<?xml version="1.0" encoding="UTF-8" standalone="no"?>
<svg
     version="1.1"
     id="Layer_1"
     x="0px"
     y="0px"
     width="2175"
     height="1800"
     viewBox="0 0 2175 1800"
     enable-background="new 0 0 522 432"
     xml:space="preserve"
     sodipodi:docname="BridgeTuckBox54.svg"
     inkscape:version="1.4 (e7c3feb1, 2024-10-09)"
     xmlns:inkscape="http://www.inkscape.org/namespaces/inkscape"
     xmlns:sodipodi="http://sodipodi.sourceforge.net/DTD/sodipodi-0.dtd"
     xmlns="http://www.w3.org/2000/svg"
     xmlns:svg="http://www.w3.org/2000/svg"><defs
         id="defs1"><defs
     id="defs221">
	

	

	

	

	

	

	

	

	

	

	

	
	
	
	
	
	

	

		
	
		
	
		
	
		
	
		
		
		
		
		
		
		
	
		
		
		
	
		
		
		
		
		
		
		
		
		
		
		
		
		
		
		
		
		
		
		
		
		
		
		
		
		
		
		
		
		
		
		
		
		
		
		
		
		
		
		
		
		
		
		
		
		
		
		
		
		
		
		
		
		
		
		
		
		
		
		
		
		
		
		
		
		
		
		
		
		
		
		
		
		
		
		
		
		
		
		
		
		
		
		
		
		
		
		
		
		
		
		
		
		
		
		
		
		
		
	
		
	
		
		
		
		
	
		
	
		
	
			
			
				
			
			
				
			
			
				
			
			
				
		
			
			
				
			
			
				
			
			
				
			
			
				
		
			
			
			
			
				
			
			
				
			
			
				
			
			
				
			
			
				
		
			
			
			
			
			
			
		
			
			
				
			
			
				
			
			
				
			
			
				
		
			
			
		
			
			
		
			
			
			
		
			
			
			
		
			
			
			
			
		
			
			
			
		
			
			
				
			
			
				
			
			
				
			
			
				
		
			
			
				
			
			
				
			
			
				
			
			
				
		
			
			
			
		
				
				
			
				
				
			
				
				
				
				
				
			
				
				
			
					
					
				
					
					
				
					
					
					
					
				
					
					
					
				
						
						
					
						
						
						
					
						
						
						
						
					
							
							
							
						
							
							
							
							
						
							
							
							
							
							
							
							
						
								
								
							
								
								
								
								
								
							</defs><sodipodi:namedview
     id="namedview221"
     pagecolor="#505050"
     bordercolor="#eeeeee"
     borderopacity="1"
     inkscape:showpageshadow="0"
     inkscape:pageopacity="0"
     inkscape:pagecheckerboard="0"
     inkscape:deskcolor="#d1d1d1"
     inkscape:zoom="0.34851424"
     inkscape:cx="1073.1269"
     inkscape:cy="1162.0759"
     inkscape:window-width="1872"
     inkscape:window-height="1027"
     inkscape:window-x="62"
     inkscape:window-y="25"
     inkscape:window-maximized="1"
     inkscape:current-layer="Layer_1" />







































</defs><polygon
         fill="#929497"
         points="0,432 522,432 522,0 0,0 "
         id="polygon1"
         transform="matrix(4.1666667,0,0,4.1666667,-8.7e-6,-7.2e-6)"
         style="fill:#303032;fill-opacity:1" /><path
         fill="#ffffff"
         stroke="#ed2224"
         stroke-miterlimit="10"
         d="m 980.99583,297.9125 92.99997,0.004 c 82.8417,0 150,67.15834 150,150 h 266.6667 c 0,91.66667 150,91.66667 150,0 h 266.6667 212.9958 V 1506.25 h -212.9917 v 213.8333 H 1224 v -213.8333 150 H 981 v -150 243 H 297.66666 v -243 150 H 54.666658 v -150 -1058.3375 c 0,-82.8375 67.158332,-150 150.000002,-150 h 93 v -92.99167 c 0,-82.84584 67.15417,-150.00417 150,-150.00417 H 831 c 82.84167,0 150,67.15833 150,150.00417"
         id="clipping"
         style="fill:#d8d8d8;fill-opacity:1;stroke:none;stroke-width:4.16667" /><polyline
         fill="none"
         stroke="#ed2224"
         stroke-miterlimit="10"
         points="71.439,136.3 71.439,49.181 100.239,49.181 "
         id="polyline1"
         transform="matrix(4.1666667,0,0,4.1666667,-8.7e-6,-7.2e-6)" /><polyline
         fill="none"
         stroke="#ed2224"
         stroke-miterlimit="10"
         points="235.439,136.3 235.439,49.181 206.639,49.181 "
         id="polyline2"
         transform="matrix(4.1666667,0,0,4.1666667,-8.7e-6,-7.2e-6)" /><rect
         x="297.66251"
         y="447.91251"
         fill="none"
         stroke="#6abd45"
         stroke-width="1.66667"
         stroke-miterlimit="10"
         width="683.33331"
         height="1058.3375"
         id="rect2" /><line
         fill="none"
         stroke="#6abd45"
         stroke-width="1.66667"
         stroke-miterlimit="10"
         x1="297.66251"
         y1="1506.25"
         x2="54.662495"
         y2="1506.25"
         id="line2" /><line
         fill="none"
         stroke="#6abd45"
         stroke-width="1.66667"
         stroke-miterlimit="10"
         x1="297.66251"
         y1="447.91251"
         x2="54.662495"
         y2="447.91251"
         id="line3" /><polyline
         fill="none"
         stroke="#6abd45"
         stroke-width="0.4"
         stroke-miterlimit="10"
         points="235.439,361.5 293.76,361.5   293.76,107.5 235.439,107.499 "
         id="polyline3"
         transform="matrix(4.1666667,0,0,4.1666667,-8.7e-6,-7.2e-6)" /><line
         fill="none"
         stroke="#6abd45"
         stroke-width="1.66667"
         stroke-miterlimit="10"
         x1="1224"
         y1="1506.25"
         x2="1907.3334"
         y2="1506.25"
         id="line4" /><line
         fill="none"
         stroke="#6abd45"
         stroke-width="1.66667"
         stroke-miterlimit="10"
         x1="1907.3334"
         y1="1506.25"
         x2="1907.3334"
         y2="447.91666"
         id="line5" /><line
         fill="none"
         stroke="#6abd45"
         stroke-width="1.66667"
         stroke-miterlimit="10"
         x1="417.66248"
         y1="204.92082"
         x2="860.99585"
         y2="204.92082"
         id="line6" /><line
         fill="none"
         stroke="#6abd45"
         stroke-width="1.66667"
         stroke-miterlimit="10"
         x1="297.66251"
         y1="567.91669"
         x2="980.99579"
         y2="567.91669"
         id="line7" /><rect
         x="1933.3291"
         y="493.05832"
         fill="#e6e6e6"
         width="147.89166"
         height="982.4917"
         id="rect7"
         style="fill:#919191;fill-opacity:1;stroke-width:4.16667" /><line
         fill="none"
         stroke="#eb2227"
         x1="1735.3916"
         y1="633.17914"
         x2="1735.3916"
         y2="445.82916"
         id="line8"
         style="stroke-width:4.16667" /><line
         fill="none"
         stroke="#8cc541"
         x1="743.75"
         y1="718.06665"
         x2="983.33331"
         y2="716.6792"
         id="line9"
         style="stroke-width:4.16667" /><path
         fill="none"
         stroke="#29abe2"
         stroke-miterlimit="10"
         stroke-dasharray="20.8333"
         d="m 1670.3042,484.4125 h -9.2875 c -0.3167,2.19166 -0.9709,4.44583 -2.0292,6.72083 -0.4458,0.95833 -0.9042,1.9125 -1.3792,2.85417"
         id="path180"
         style="stroke-width:4.16667" /><path
         fill="none"
         stroke="#29abe2"
         stroke-miterlimit="10"
         stroke-dasharray="20.8333"
         d="m 1647.9708,510.1875 c -21.5333,30.52916 -55.575,48.62916 -91.1416,44.26666 C 1524.9167,550.54166 1491.7167,534.425 1475.5458,503"
         id="path181"
         style="stroke-width:4.16667" /><path
         fill="none"
         stroke="#29abe2"
         stroke-miterlimit="10"
         stroke-dasharray="20.8333"
         d="m 1471.6708,494.32083 c -0.5,-1.30833 -0.9666,-2.6375 -1.4166,-3.99167 -0.6792,-2.07916 -1.0292,-4.05 -1.15,-5.91666 h -9.2875"
         id="path182"
         style="stroke-width:4.16667" /><line
         fill="none"
         stroke="#29abe2"
         stroke-miterlimit="10"
         stroke-dasharray="20.8333"
         x1="1442.7542"
         y1="484.41251"
         x2="1280.6375"
         y2="484.41251"
         id="line182"
         style="stroke-width:4.16667" /><polyline
         fill="none"
         stroke="#29abe2"
         stroke-miterlimit="10"
         stroke-dasharray="5"
         points="305.304,116.259 303.075,116.259      303.075,118.746    "
         id="polyline182"
         transform="matrix(4.1666667,0,0,4.1666667,-8.7e-6,-7.2e-6)" /><line
         fill="none"
         stroke="#29abe2"
         stroke-miterlimit="10"
         stroke-dasharray="20.8333"
         x1="1262.8125"
         y1="515.17499"
         x2="1262.8125"
         y2="1443.4834"
         id="line183"
         style="stroke-width:4.16667" /><polyline
         fill="none"
         stroke="#29abe2"
         stroke-miterlimit="10"
         stroke-dasharray="5"
         points="303.075,348.885 303.075,351.371      305.304,351.371    "
         id="polyline183"
         transform="matrix(4.1666667,0,0,4.1666667,-8.7e-6,-7.2e-6)" /><line
         fill="none"
         stroke="#29abe2"
         stroke-miterlimit="10"
         stroke-dasharray="20.8333"
         x1="1291.1958"
         y1="1464.0459"
         x2="1854.4291"
         y2="1464.0459"
         id="line184"
         style="stroke-width:4.16667" /><polyline
         fill="none"
         stroke="#29abe2"
         stroke-miterlimit="10"
         stroke-dasharray="5"
         points="447.355,351.371 449.584,351.371      449.584,348.885    "
         id="polyline184"
         transform="matrix(4.1666667,0,0,4.1666667,-8.7e-6,-7.2e-6)" /><line
         fill="none"
         stroke="#29abe2"
         stroke-miterlimit="10"
         stroke-dasharray="20.8333"
         x1="1873.2667"
         y1="1433.2833"
         x2="1873.2667"
         y2="504.97501"
         id="line185"
         style="stroke-width:4.16667" /><polyline
         fill="none"
         stroke="#29abe2"
         stroke-miterlimit="10"
         stroke-dasharray="5"
         points="449.584,118.746 449.584,116.259      447.355,116.259    "
         id="polyline185"
         transform="matrix(4.1666667,0,0,4.1666667,-8.7e-6,-7.2e-6)" /><line
         fill="none"
         stroke="#29abe2"
         stroke-miterlimit="10"
         stroke-dasharray="20.8333"
         x1="1846.3793"
         y1="484.41251"
         x2="1679.1125"
         y2="484.41251"
         id="line186"
         style="stroke-width:4.16667" /><polyline
         fill="none"
         stroke="#29abe2"
         stroke-miterlimit="10"
         stroke-dasharray="5"
         points="225.14,350.183 225.14,352.669      222.963,352.669    "
         id="polyline188"
         transform="matrix(4.1666667,0,0,4.1666667,-8.7e-6,-7.2e-6)" /><line
         fill="none"
         stroke="#29abe2"
         stroke-miterlimit="10"
         stroke-dasharray="20.8333"
         x1="910.35419"
         y1="1469.4542"
         x2="359.96249"
         y2="1469.4542"
         id="line188"
         style="stroke-width:4.16667" /><polyline
         fill="none"
         stroke="#29abe2"
         stroke-miterlimit="10"
         stroke-dasharray="5"
         points="84.152,352.669 81.974,352.669      81.974,350.183    "
         id="polyline189"
         transform="matrix(4.1666667,0,0,4.1666667,-8.7e-6,-7.2e-6)" /><line
         fill="none"
         stroke="#29abe2"
         stroke-miterlimit="10"
         stroke-dasharray="20.8333"
         x1="341.55832"
         y1="1438.6918"
         x2="341.55832"
         y2="510.37915"
         id="line189"
         style="stroke-width:4.16667" /><polyline
         fill="none"
         stroke="#29abe2"
         stroke-miterlimit="10"
         stroke-dasharray="5"
         points="81.974,120.043 81.974,117.557      84.152,117.557    "
         id="polyline190"
         transform="matrix(4.1666667,0,0,4.1666667,-8.7e-6,-7.2e-6)" /><line
         fill="none"
         stroke="#29abe2"
         stroke-miterlimit="10"
         stroke-dasharray="20.8333"
         x1="369.28748"
         y1="489.82083"
         x2="919.68335"
         y2="489.82083"
         id="line190"
         style="stroke-width:4.16667" /><polyline
         fill="none"
         stroke="#29abe2"
         stroke-miterlimit="10"
         stroke-dasharray="5"
         points="222.963,117.557 225.14,117.557      225.14,120.043    "
         id="polyline191"
         transform="matrix(4.1666667,0,0,4.1666667,-8.7e-6,-7.2e-6)" /><line
         fill="none"
         stroke="#29abe2"
         stroke-miterlimit="10"
         stroke-dasharray="20.8333"
         x1="938.08331"
         y1="520.58331"
         x2="938.08331"
         y2="1448.8917"
         id="line191"
         style="stroke-width:4.16667" /><line
         fill="none"
         stroke="#29abe2"
         stroke-miterlimit="10"
         x1="936.10834"
         y1="1075"
         x2="700.69586"
         y2="1075"
         id="line193"
         style="stroke-width:4.16667" /><polyline
         fill="none"
         stroke="#29abe2"
         stroke-miterlimit="10"
         stroke-dasharray="6.4298"
         points="225.14,91.109 225.14,98.999      222.953,98.999    "
         id="polyline194"
         transform="matrix(4.1666667,0,0,4.1666667,-8.7e-6,-7.2e-6)" /><line
         fill="none"
         stroke="#29abe2"
         stroke-miterlimit="10"
         stroke-dasharray="26.7908"
         x1="910.22919"
         y1="412.49582"
         x2="357.36664"
         y2="412.49582"
         id="line194"
         style="stroke-width:4.16667" /><polyline
         fill="none"
         stroke="#29abe2"
         stroke-miterlimit="10"
         stroke-dasharray="6.4298"
         points="83.519,98.999 81.332,98.999      81.332,91.109    "
         id="polyline195"
         transform="matrix(4.1666667,0,0,4.1666667,-8.7e-6,-7.2e-6)" /><line
         fill="none"
         stroke="#29abe2"
         stroke-miterlimit="10"
         stroke-dasharray="26.7908"
         x1="338.88333"
         y1="345.05835"
         x2="338.88333"
         y2="293.21667"
         id="line195"
         style="stroke-width:4.16667" /><polyline
         fill="none"
         stroke="#29abe2"
         stroke-miterlimit="10"
         stroke-dasharray="6.4298"
         points="81.332,66.225 81.332,58.335      83.519,58.335    "
         id="polyline196"
         transform="matrix(4.1666667,0,0,4.1666667,-8.7e-6,-7.2e-6)" /><line
         fill="none"
         stroke="#29abe2"
         stroke-miterlimit="10"
         stroke-dasharray="26.7908"
         x1="366.73749"
         y1="243.06248"
         x2="919.59998"
         y2="243.06248"
         id="line196"
         style="stroke-width:4.16667" /><polyline
         fill="none"
         stroke="#29abe2"
         stroke-miterlimit="10"
         stroke-dasharray="6.4298"
         points="222.953,58.335 225.14,58.335      225.14,66.225    "
         id="polyline197"
         transform="matrix(4.1666667,0,0,4.1666667,-8.7e-6,-7.2e-6)" /><line
         fill="none"
         stroke="#29abe2"
         stroke-miterlimit="10"
         stroke-dasharray="26.7908"
         x1="938.08331"
         y1="310.49582"
         x2="938.08331"
         y2="362.33749"
         id="line197"
         style="stroke-width:4.16667" /><polyline
         fill="none"
         stroke="#29abe2"
         stroke-miterlimit="10"
         stroke-dasharray="6.3702"
         points="224.723,401.848      224.723,408.998 222.536,408.998    "
         id="polyline199"
         transform="matrix(4.1666667,0,0,4.1666667,-8.7e-6,-7.2e-6)" /><line
         fill="none"
         stroke="#29abe2"
         stroke-miterlimit="10"
         stroke-dasharray="26.5425"
         x1="908.48749"
         y1="1704.1583"
         x2="355.53333"
         y2="1704.1583"
         id="line199"
         style="stroke-width:4.16667" /><polyline
         fill="none"
         stroke="#29abe2"
         stroke-miterlimit="10"
         stroke-dasharray="6.3702"
         points="83.078,408.998 80.89,408.998      80.89,401.848    "
         id="polyline200"
         transform="matrix(4.1666667,0,0,4.1666667,-8.7e-6,-7.2e-6)" /><line
         fill="none"
         stroke="#29abe2"
         stroke-miterlimit="10"
         stroke-dasharray="26.5425"
         x1="337.04166"
         y1="1643.0416"
         x2="337.04166"
         y2="1596.0709"
         id="line200"
         style="stroke-width:4.16667" /><polyline
         fill="none"
         stroke="#29abe2"
         stroke-miterlimit="10"
         stroke-dasharray="6.3702"
         points="80.89,379.297 80.89,372.148      83.078,372.148    "
         id="polyline201"
         transform="matrix(4.1666667,0,0,4.1666667,-8.7e-6,-7.2e-6)" /><line
         fill="none"
         stroke="#29abe2"
         stroke-miterlimit="10"
         stroke-dasharray="26.5425"
         x1="364.90417"
         y1="1550.6167"
         x2="917.85834"
         y2="1550.6167"
         id="line201"
         style="stroke-width:4.16667" /><polyline
         fill="none"
         stroke="#29abe2"
         stroke-miterlimit="10"
         stroke-dasharray="6.3702"
         points="222.536,372.148      224.723,372.148 224.723,379.297    "
         id="polyline202"
         transform="matrix(4.1666667,0,0,4.1666667,-8.7e-6,-7.2e-6)" /><line
         fill="none"
         stroke="#29abe2"
         stroke-miterlimit="10"
         stroke-dasharray="26.5425"
         x1="936.34589"
         y1="1611.7334"
         x2="936.34589"
         y2="1658.7084"
         id="line202"
         style="stroke-width:4.16667" /><rect
         x="1254.9459"
         y="1537.5042"
         fill="#e6e6e6"
         width="614.49585"
         height="154.99167"
         id="rect204"
         style="fill:#919191;fill-opacity:1;stroke-width:4.16667" /><polyline
         fill="none"
         stroke="#29abe2"
         stroke-miterlimit="10"
         stroke-dasharray="6.3882"
         points="61.161,350.183      61.161,352.669 60.576,352.669    "
         id="polyline204"
         transform="matrix(4.1666667,0,0,4.1666667,-8.7e-6,-7.2e-6)" /><line
         fill="none"
         stroke="#29abe2"
         stroke-miterlimit="10"
         stroke-dasharray="26.6175"
         x1="247.38333"
         y1="1469.4542"
         x2="99.391663"
         y2="1469.4542"
         id="line204"
         style="stroke-width:4.16667" /><polyline
         fill="none"
         stroke="#29abe2"
         stroke-miterlimit="10"
         stroke-dasharray="6.3882"
         points="23.252,352.669      22.667,352.669 22.667,350.183    "
         id="polyline205"
         transform="matrix(4.1666667,0,0,4.1666667,-8.7e-6,-7.2e-6)" /><line
         fill="none"
         stroke="#29abe2"
         stroke-miterlimit="10"
         stroke-dasharray="26.6175"
         x1="94.445824"
         y1="1438.6918"
         x2="94.445824"
         y2="510.37915"
         id="line205"
         style="stroke-width:4.16667" /><polyline
         fill="none"
         stroke="#29abe2"
         stroke-miterlimit="10"
         stroke-dasharray="6.3882"
         points="22.667,120.043      22.667,117.557 23.252,117.557    "
         id="polyline206"
         transform="matrix(4.1666667,0,0,4.1666667,-8.7e-6,-7.2e-6)" /><line
         fill="none"
         stroke="#29abe2"
         stroke-miterlimit="10"
         stroke-dasharray="26.6175"
         x1="101.90416"
         y1="489.82083"
         x2="249.89166"
         y2="489.82083"
         id="line206"
         style="stroke-width:4.16667" /><polyline
         fill="none"
         stroke="#29abe2"
         stroke-miterlimit="10"
         stroke-dasharray="6.3882"
         points="60.576,117.557      61.161,117.557 61.161,120.043    "
         id="polyline207"
         transform="matrix(4.1666667,0,0,4.1666667,-8.7e-6,-7.2e-6)" /><line
         fill="none"
         stroke="#29abe2"
         stroke-miterlimit="10"
         stroke-dasharray="26.6175"
         x1="254.83749"
         y1="520.58331"
         x2="254.83749"
         y2="1448.8917"
         id="line207"
         style="stroke-width:4.16667" /><path
         fill="none"
         stroke="#29abe2"
         stroke-miterlimit="10"
         stroke-dasharray="23.155"
         d="M 949.89167,510.37916"
         id="path209"
         style="stroke-width:4.16667" /><path
         fill="none"
         stroke="#29abe2"
         stroke-miterlimit="10"
         stroke-dasharray="23.155"
         d="M 949.89167,1438.6917"
         id="path210"
         style="stroke-width:4.16667" /><path
         fill="none"
         stroke="#29abe2"
         stroke-miterlimit="10"
         stroke-dasharray="23.155"
         d="M 1246.8,489.82083"
         id="path211"
         style="stroke-width:4.16667" /><path
         fill="none"
         stroke="#29abe2"
         stroke-miterlimit="10"
         stroke-dasharray="23.155"
         d="M 964.12917,489.82083"
         id="path212"
         style="stroke-width:4.16667" /><path
         fill="none"
         stroke="#29abe2"
         stroke-miterlimit="10"
         stroke-dasharray="23.155"
         d="M 1256.25,1448.8917"
         id="path213"
         style="stroke-width:4.16667" /><path
         fill="none"
         stroke="#29abe2"
         stroke-miterlimit="10"
         stroke-dasharray="23.155"
         d="M 1256.25,520.58333"
         id="path214"
         style="stroke-width:4.16667" /><polyline
         fill="none"
         stroke="#29abe2"
         stroke-miterlimit="10"
         stroke-dasharray="6.3882"
         points="283.381,349.337      283.381,351.823 282.815,351.823    "
         id="polyline216"
         transform="matrix(4.1666667,0,0,4.1666667,-8.7e-6,-7.2e-6)" /><line
         fill="none"
         stroke="#29abe2"
         stroke-miterlimit="10"
         stroke-dasharray="26.6175"
         x1="1173.55"
         y1="1465.9292"
         x2="1030.6917"
         y2="1465.9292"
         id="line216"
         style="stroke-width:4.16667" /><polyline
         fill="none"
         stroke="#29abe2"
         stroke-miterlimit="10"
         stroke-dasharray="6.3882"
         points="246.785,351.823      246.22,351.823 246.22,349.337    "
         id="polyline217"
         transform="matrix(4.1666667,0,0,4.1666667,-8.7e-6,-7.2e-6)" /><line
         fill="none"
         stroke="#29abe2"
         stroke-miterlimit="10"
         stroke-dasharray="26.6175"
         x1="1025.9166"
         y1="1435.1666"
         x2="1025.9166"
         y2="506.85834"
         id="line217"
         style="stroke-width:4.16667" /><polyline
         fill="none"
         stroke="#29abe2"
         stroke-miterlimit="10"
         stroke-dasharray="6.3882"
         points="246.22,119.197      246.22,116.711 246.785,116.711    "
         id="polyline218"
         transform="matrix(4.1666667,0,0,4.1666667,-8.7e-6,-7.2e-6)" /><line
         fill="none"
         stroke="#29abe2"
         stroke-miterlimit="10"
         stroke-dasharray="26.6175"
         x1="1033.1167"
         y1="486.29584"
         x2="1175.9751"
         y2="486.29584"
         id="line218"
         style="stroke-width:4.16667" /><polyline
         fill="none"
         stroke="#29abe2"
         stroke-miterlimit="10"
         stroke-dasharray="6.3882"
         points="282.815,116.711      283.381,116.711 283.381,119.197    "
         id="polyline219"
         transform="matrix(4.1666667,0,0,4.1666667,-8.7e-6,-7.2e-6)" /><line
         fill="none"
         stroke="#29abe2"
         stroke-miterlimit="10"
         stroke-dasharray="26.6175"
         x1="1180.7543"
         y1="517.0625"
         x2="1180.7543"
         y2="1445.3708"
         id="line219"
         style="stroke-width:4.16667" /></svg>
