<?xml version="1.0" encoding="UTF-8" standalone="no"?>
<svg
     viewBox="0 0 3000 3750"
     width="3000"
     height="3750"
     version="1.1"
     id="svg202"
     sodipodi:docname="BridgeHookBox108Inside.svg"
     inkscape:version="1.4 (e7c3feb1, 2024-10-09)"
     xmlns:inkscape="http://www.inkscape.org/namespaces/inkscape"
     xmlns:sodipodi="http://sodipodi.sourceforge.net/DTD/sodipodi-0.dtd"
     xmlns="http://www.w3.org/2000/svg"
     xmlns:svg="http://www.w3.org/2000/svg">
    <sodipodi:namedview
         id="namedview202"
         pagecolor="#505050"
         bordercolor="#eeeeee"
         borderopacity="1"
         inkscape:showpageshadow="0"
         inkscape:pageopacity="0"
         inkscape:pagecheckerboard="0"
         inkscape:deskcolor="#d1d1d1"
         inkscape:zoom="0.24"
         inkscape:cx="1641.6667"
         inkscape:cy="1437.5"
         inkscape:window-width="1872"
         inkscape:window-height="1027"
         inkscape:window-x="62"
         inkscape:window-y="25"
         inkscape:window-maximized="1"
         inkscape:current-layer="svg202" />
    <defs
         id="defs1">
        <style
             id="style1">.cls-1,.cls-2,.cls-3,.cls-4,.cls-5,.cls-6,.cls-7,.cls-8,.cls-9,.cls-10,.cls-11,.cls-12,.cls-13,.cls-14,.cls-15,.cls-16,.cls-17,.cls-18,.cls-19,.cls-20,.cls-21,.cls-22,.cls-23,.cls-24,.cls-25,.cls-26,.cls-27,.cls-28,.cls-29,.cls-30,.cls-31,.cls-32,.cls-33,.cls-34,.cls-35,.cls-36,.cls-37,.cls-38,.cls-39{fill:none;}.cls-2{stroke-dasharray:4.85 4.85;}.cls-2,.cls-3,.cls-4,.cls-5,.cls-6,.cls-7,.cls-8,.cls-9,.cls-10,.cls-11,.cls-12,.cls-13,.cls-14,.cls-15,.cls-16,.cls-17,.cls-18,.cls-19,.cls-20,.cls-21,.cls-22,.cls-23,.cls-24,.cls-25,.cls-27,.cls-29,.cls-30,.cls-31,.cls-32,.cls-33,.cls-34,.cls-35,.cls-36,.cls-37,.cls-38{stroke-miterlimit:10;}.cls-2,.cls-3,.cls-4,.cls-5,.cls-6,.cls-7,.cls-8,.cls-9,.cls-10,.cls-11,.cls-12,.cls-13,.cls-14,.cls-15,.cls-16,.cls-17,.cls-18,.cls-19,.cls-20,.cls-21,.cls-22,.cls-23,.cls-24,.cls-25,.cls-27,.cls-29,.cls-30,.cls-34,.cls-35,.cls-36,.cls-37{stroke:#26aae1;}.cls-3{stroke-dasharray:4.85 4.85;}.cls-4{stroke-dasharray:4.86 4.86;}.cls-5{stroke-dasharray:4.86 4.86;}.cls-6{stroke-dasharray:4.9 4.9;}.cls-40,.cls-41,.cls-42,.cls-43{fill-rule:evenodd;}.cls-40,.cls-44{fill:#fff;}.cls-45,.cls-46,.cls-47,.cls-48{font-family:Arial-Black, 'Arial Black';font-weight:800;}.cls-45,.cls-47,.cls-48,.cls-49{fill:#231f20;}.cls-7{stroke-dasharray:4.97 4.97;}.cls-8{stroke-dasharray:4.86 4.86;}.cls-9{stroke-dasharray:4.86 4.86;}.cls-10{stroke-dasharray:4.86 4.86;}.cls-11{stroke-dasharray:5 5;}.cls-12{stroke-dasharray:4.99 4.99;}.cls-13{stroke-dasharray:4.99 4.99;}.cls-14{stroke-dasharray:4.99 4.99;}.cls-15{stroke-dasharray:5.01 5.01;}.cls-16{stroke-dasharray:4.91 4.91;}.cls-17{stroke-dasharray:4.91 4.91;}.cls-18{stroke-dasharray:5 5;}.cls-19{stroke-dasharray:5 5;}.cls-20{stroke-dasharray:4.91 4.91;}.cls-21{stroke-dasharray:5.02 5.02;}.cls-22{stroke-dasharray:5.02 5.02;}.cls-23{stroke-dasharray:5 5;}.cls-24{stroke-dasharray:5 5;}.cls-25{stroke-dasharray:4.98 4.98;}.cls-26,.cls-28,.cls-31,.cls-38,.cls-39{stroke-width:2px;}.cls-26,.cls-39{stroke:#2ba4dd;}.cls-28{stroke:#ec2224;}.cls-29{stroke-dasharray:4.98 4.98;}.cls-46{fill:#020202;}.cls-46,.cls-47{font-size:12.75px;}.cls-30{stroke-dasharray:4.91 4.91;}.cls-41{fill:#b7d333;}.cls-50{fill:#919396;}.cls-50,.cls-51,.cls-52,.cls-49,.cls-53{font-family:Arial-BoldMT, Arial;font-weight:700;}.cls-50,.cls-51,.cls-52,.cls-53{font-size:9px;}.cls-54{fill:#d0d1d2;}.cls-31{stroke:#0ea94b;}.cls-32{stroke:#0baa4b;}.cls-32,.cls-55{opacity:.5;}.cls-56{letter-spacing:0em;}.cls-33{stroke:red;}.cls-57{font-size:12.36px;}.cls-58{font-size:14.83px;}.cls-34{stroke-dasharray:5.4 5.4;}.cls-48{font-size:30px;}.cls-59{letter-spacing:0em;}.cls-51{fill:#2ba4dd;}.cls-35{stroke-dasharray:5.03 5.03;}.cls-36{stroke-dasharray:4.96 4.96;}.cls-37{stroke-dasharray:5.04 5.04;}.cls-38{stroke:#929395;}.cls-52{fill:#0baa4b;}.cls-39{stroke-dasharray:4.99 4.99;}.cls-60{letter-spacing:-.02em;}.cls-61{letter-spacing:-.02em;}.cls-62{letter-spacing:-.02em;}.cls-63{letter-spacing:-.02em;}.cls-64{letter-spacing:-.02em;}.cls-65{letter-spacing:-.02em;}.cls-66{letter-spacing:-.04em;}.cls-67{letter-spacing:-.04em;}.cls-68{letter-spacing:-.03em;}.cls-69{letter-spacing:-.03em;}.cls-70{letter-spacing:-.03em;}.cls-71{letter-spacing:-.03em;}.cls-72{letter-spacing:0em;}.cls-73,.cls-43{fill:#4e494b;}.cls-49{font-size:10px;}.cls-74{letter-spacing:.03em;}.cls-75{letter-spacing:.02em;}.cls-76{letter-spacing:.05em;}.cls-53{fill:#eb222a;}.cls-77{letter-spacing:.01em;}</style>
    </defs>
    <path
         class="cls-55"
         d="M -1.2e-5,-4.6789144e-5 V 3750 H 3000 V -4.6789144e-5 Z"
         id="path1"
         style="stroke-width:4.16667;fill:#0f0f0f;fill-opacity:1"
         sodipodi:nodetypes="ccccc" />
    <path
         class="cls-33"
         d="m 708.12499,1145.2916 -653.625002,33.7917 c -0.25,0 -0.458333,0.2083 -0.458333,0.4583 v 989.0834 c 0,0.25 0.208333,0.4583 0.458333,0.4583 l 612.208342,32.25 c 22.875,1.2083 41.625,2.2083 41.625,2.2083 0,0 18.75,0 41.66666,0 h 365.33331 c 22.9167,0 41.6667,0 41.6667,0 0,0 0,18.75 0,41.6667 l 0.7083,1361.4167 c 0,22.9166 0,41.3333 0,40.9166 0,-0.4166 4.875,10.0834 10.7917,23.375 5.9167,13.2917 56.2083,24.125 79.125,24.125 h 502 c 22.9167,0 52.5417,-4.875 65.7917,-10.7916 13.25,-5.9167 24.125,-37.125 24.125,-36.7084 0,0.4167 0,-18 0,-40.9166 l 0.75,-1402.625 c 0,-0.25 0.2083,-0.4584 0.4583,-0.4584 h 409.1667 c 22.9166,0 60.4166,-0.9583 83.2916,-2.125 l 612.25,-31.2083 c 0.25,0 0.4584,-0.2083 0.4584,-0.4583 v -989.0834 c 0,-0.25 -0.2084,-0.4583 -0.4584,-0.4583 l -653.875,-34.9167 c 0,0 0,0 0,0 h -409.625 c -22.9166,0 -41.875,0 -42.125,0 -0.25,0 -0.4583,-18.75 -0.4583,-41.6666 V 737.66663 c 0,-22.91667 0,-60.41667 0.083,-83.33334 l 0.7084,-317.125 c 0.042,-22.91667 -0.2917,-49.45833 -0.75,-59 l -1.3334,-7.79167 c -11.8333,-70.375 -70.1666,-95.58333 -113.2083,-98.5 -29.6667,-2 -43.625,-1.66667 -43.625,-1.66667 -22.9167,0.58334 -44.4167,0.83334 -47.75,0.58334 l -2.25,-0.79167 c -16.75,-6.04167 -3.7083,-31.16667 14.0417,-22.45833 24.9583,12.29166 59.1666,-92.583336 -113.25,-92.708336 C 1388.4167,54.79162 1388.75,145.08329 1369.125,166.95829 l -2.7917,3.125 c -4,0.875 -7.2916,1.58333 -7.2916,1.625 v 0 c 0,0 -18.75,0.0417 -41.6667,0.0417 h -40 c -66.5417,0 -120.4583,53.91667 -120.4583,120.45834 v 362.08334 c 0,22.91666 0,60.41666 0,83.33333 v 365.9583 c 0,22.9167 0,41.6667 0,41.6667 0,0 -18.75,0 -41.6667,0 H 708.08333"
         id="clipping"
         style="stroke-width:4.16667;fill:#6a6a6a;fill-opacity:1;stroke:none" />
    <line
         class="cls-32"
         x1="708.375"
         y1="2203.5833"
         x2="708.375"
         y2="1145.2916"
         id="line1"
         style="stroke-width:4.16667" />
    <line
         class="cls-32"
         x1="1159.7083"
         y1="695.29163"
         x2="1842.0834"
         y2="695.29163"
         id="line2"
         style="stroke-width:4.16667" />
    <line
         class="cls-32"
         x1="1842.4166"
         y1="2653.0833"
         x2="1159.6667"
         y2="2653.0833"
         id="line3"
         style="stroke-width:4.16667" />
    <line
         class="cls-32"
         x1="2291.7085"
         y1="2203.5833"
         x2="2291.875"
         y2="1145.2916"
         id="line4"
         style="stroke-width:4.16667" />
    <line
         class="cls-32"
         x1="1843"
         y1="1145.2916"
         x2="1843"
         y2="2203.625"
         id="line5"
         style="stroke-width:4.16667" />
    <line
         class="cls-32"
         x1="1159.6667"
         y1="1145.2916"
         x2="1843"
         y2="1145.2916"
         id="line6"
         style="stroke-width:4.16667" />
    <line
         class="cls-32"
         x1="1159.6667"
         y1="2203.625"
         x2="1159.6667"
         y2="1145.2916"
         id="line7"
         style="stroke-width:4.16667" />
    <line
         class="cls-32"
         x1="1843"
         y1="2203.625"
         x2="1159.6667"
         y2="2203.625"
         id="line8"
         style="stroke-width:4.16667" />
    <polyline
         class="cls-27"
         points="430.18 283.87 432.68 283.87 432.68 286.37"
         id="polyline8"
         transform="matrix(4.1666667,0,0,4.1666667,-1.2e-5,-4.6789144e-5)" />
    <line
         class="cls-20"
         x1="1802.8333"
         y1="1213.6666"
         x2="1802.8333"
         y2="2145.4167"
         id="line9"
         style="stroke-width:4.16667" />
    <polyline
         class="cls-27"
         points="432.68 517.36 432.68 519.86 430.18 519.86"
         id="polyline9"
         transform="matrix(4.1666667,0,0,4.1666667,-1.2e-5,-4.6789144e-5)" />
    <line
         class="cls-8"
         x1="1772.1667"
         y1="2166.0833"
         x2="1215.5417"
         y2="2166.0833"
         id="line10"
         style="stroke-width:4.16667" />
    <polyline
         class="cls-27"
         points="289.3 519.86 286.8 519.86 286.8 517.36"
         id="polyline10"
         transform="matrix(4.1666667,0,0,4.1666667,-1.2e-5,-4.6789144e-5)" />
    <line
         class="cls-16"
         x1="1195"
         y1="2135.2083"
         x2="1195"
         y2="1203.4583"
         id="line11"
         style="stroke-width:4.16667" />
    <polyline
         class="cls-27"
         points="286.8 286.37 286.8 283.87 289.3 283.87"
         id="polyline11"
         transform="matrix(4.1666667,0,0,4.1666667,-1.2e-5,-4.6789144e-5)" />
    <line
         class="cls-8"
         x1="1225.6666"
         y1="1182.7916"
         x2="1782.2916"
         y2="1182.7916"
         id="line12"
         style="stroke-width:4.16667" />
    <polyline
         class="cls-27"
         points="181.86 284.29 179.36 284.3 179.36 286.8"
         id="polyline12"
         transform="matrix(4.1666667,0,0,4.1666667,-1.2e-5,-4.6789144e-5)" />
    <line
         class="cls-6"
         x1="747.29169"
         y1="1215.4166"
         x2="745.875"
         y2="2144.5833"
         id="line13"
         style="stroke-width:4.16667" />
    <polyline
         class="cls-27"
         points="179.01 517.15 179.01 519.65 181.51 519.65"
         id="polyline13"
         transform="matrix(4.1666667,0,0,4.1666667,-1.2e-5,-4.6789144e-5)" />
    <line
         class="cls-35"
         x1="777.24994"
         y1="2165.2915"
         x2="1102.0416"
         y2="2166.0415"
         id="line14"
         style="stroke-width:4.16667" />
    <polyline
         class="cls-27"
         points="267 519.86 269.5 519.86 269.5 517.36"
         id="polyline14"
         transform="matrix(4.1666667,0,0,4.1666667,-1.2e-5,-4.6789144e-5)" />
    <line
         class="cls-16"
         x1="1122.9166"
         y1="2135.2083"
         x2="1122.9166"
         y2="1203.4583"
         id="line15"
         style="stroke-width:4.16667" />
    <polyline
         class="cls-27"
         points="269.5 286.37 269.5 283.87 267 283.88"
         id="polyline15"
         transform="matrix(4.1666667,0,0,4.1666667,-1.2e-5,-4.6789144e-5)" />
    <line
         class="cls-15"
         x1="1091.6666"
         y1="1182.9166"
         x2="768.20831"
         y2="1184.4583"
         id="line16"
         style="stroke-width:4.16667" />
    <polyline
         class="cls-27"
         points="158.82 284.07 161.32 283.93 161.31 286.43"
         id="polyline16"
         transform="matrix(4.1666667,0,0,4.1666667,-1.2e-5,-4.6789144e-5)" />
    <line
         class="cls-30"
         x1="672.08331"
         y1="1213.9166"
         x2="669.875"
         y2="2145.2083"
         id="line17"
         style="stroke-width:4.16667" />
    <polyline
         class="cls-27"
         points="160.76 517.3 160.75 519.8 158.26 519.67"
         id="polyline17"
         transform="matrix(4.1666667,0,0,4.1666667,-1.2e-5,-4.6789144e-5)" />
    <line
         class="cls-7"
         x1="638.70831"
         y1="2164.2083"
         x2="110.99998"
         y2="2136.4165"
         id="line18"
         style="stroke-width:4.16667" />
    <polyline
         class="cls-27"
         points="24.16 512.61 21.66 512.48 21.66 509.98"
         id="polyline18"
         transform="matrix(4.1666667,0,0,4.1666667,-1.2e-5,-4.6789144e-5)" />
    <line
         class="cls-22"
         x1="90.249985"
         y1="2104"
         x2="90.249985"
         y2="1236.4166"
         id="line19"
         style="stroke-width:4.16667" />
    <polyline
         class="cls-27"
         points="21.66 294.23 21.66 291.73 24.16 291.59"
         id="polyline19"
         transform="matrix(4.1666667,0,0,4.1666667,-1.2e-5,-4.6789144e-5)" />
    <line
         class="cls-18"
         x1="121.45832"
         y1="1213.7916"
         x2="651.375"
         y2="1184.2083"
         id="line20"
         style="stroke-width:4.16667" />
    <polyline
         class="cls-27"
         points="538.19 284.29 540.69 284.3 540.7 286.8"
         id="polyline20"
         transform="matrix(4.1666667,0,0,4.1666667,-1.2e-5,-4.6789144e-5)" />
    <line
         class="cls-6"
         x1="2252.9167"
         y1="1215.4166"
         x2="2254.3333"
         y2="2144.5833"
         id="line21"
         style="stroke-width:4.16667" />
    <polyline
         class="cls-27"
         points="541.04 517.15 541.04 519.65 538.54 519.65"
         id="polyline21"
         transform="matrix(4.1666667,0,0,4.1666667,-1.2e-5,-4.6789144e-5)" />
    <line
         class="cls-25"
         x1="2223.1667"
         y1="2165.2915"
         x2="1901.3334"
         y2="2166.0415"
         id="line22"
         style="stroke-width:4.16667" />
    <polyline
         class="cls-27"
         points="453.82 519.86 451.32 519.86 451.32 517.36"
         id="polyline22"
         transform="matrix(4.1666667,0,0,4.1666667,-1.2e-5,-4.6789144e-5)" />
    <line
         class="cls-16"
         x1="1880.5"
         y1="2135.2083"
         x2="1880.5"
         y2="1203.4583"
         id="line23"
         style="stroke-width:4.16667" />
    <polyline
         class="cls-27"
         points="451.32 286.37 451.32 283.87 453.82 283.88"
         id="polyline23"
         transform="matrix(4.1666667,0,0,4.1666667,-1.2e-5,-4.6789144e-5)" />
    <line
         class="cls-36"
         x1="1911.625"
         y1="1182.9166"
         x2="2232.125"
         y2="1184.4583"
         id="line24"
         style="stroke-width:4.16667" />
    <polyline
         class="cls-27"
         points="561.12 284 558.63 283.87 558.63 286.37"
         id="polyline24"
         transform="matrix(4.1666667,0,0,4.1666667,-1.2e-5,-4.6789144e-5)" />
    <line
         class="cls-17"
         x1="2327.6667"
         y1="1213.6666"
         x2="2329.9167"
         y2="2145.4167"
         id="line25"
         style="stroke-width:4.16667" />
    <polyline
         class="cls-27"
         points="559.18 517.36 559.19 519.86 561.68 519.72"
         id="polyline25"
         transform="matrix(4.1666667,0,0,4.1666667,-1.2e-5,-4.6789144e-5)" />
    <line
         class="cls-29"
         x1="2361.0833"
         y1="2164.375"
         x2="2889.25"
         y2="2135.2083"
         id="line26"
         style="stroke-width:4.16667" />
    <polyline
         class="cls-27"
         points="695.91 512.31 698.41 512.17 698.41 509.67"
         id="polyline26"
         transform="matrix(4.1666667,0,0,4.1666667,-1.2e-5,-4.6789144e-5)" />
    <line
         class="cls-21"
         x1="2910.0415"
         y1="2102.75"
         x2="2910.0415"
         y2="1235.0834"
         id="line27"
         style="stroke-width:4.16667" />
    <polyline
         class="cls-27"
         points="698.41 293.91 698.41 291.41 695.91 291.28"
         id="polyline27"
         transform="matrix(4.1666667,0,0,4.1666667,-1.2e-5,-4.6789144e-5)" />
    <line
         class="cls-23"
         x1="2878.8333"
         y1="1212.5416"
         x2="2348.4167"
         y2="1183.9167"
         id="line28"
         style="stroke-width:4.16667" />
    <polyline
         class="cls-27"
         points="287.33 263.37 287.33 265.87 289.83 265.87"
         id="polyline28"
         transform="matrix(4.1666667,0,0,4.1666667,-1.2e-5,-4.6789144e-5)" />
    <line
         class="cls-5"
         x1="1227.875"
         y1="1107.7916"
         x2="1784.9584"
         y2="1107.7916"
         id="line29"
         style="stroke-width:4.16667" />
    <polyline
         class="cls-27"
         points="430.82 265.87 433.32 265.87 433.32 263.37"
         id="polyline29"
         transform="matrix(4.1666667,0,0,4.1666667,-1.2e-5,-4.6789144e-5)" />
    <line
         class="cls-11"
         x1="1805.5"
         y1="1076.5416"
         x2="1805.5"
         y2="753.62494"
         id="line30"
         style="stroke-width:4.16667" />
    <polyline
         class="cls-27"
         points="433.32 178.37 433.32 175.87 430.82 175.87"
         id="polyline30"
         transform="matrix(4.1666667,0,0,4.1666667,-1.2e-5,-4.6789144e-5)" />
    <line
         class="cls-4"
         x1="1774.8333"
         y1="732.79163"
         x2="1217.75"
         y2="732.79163"
         id="line31"
         style="stroke-width:4.16667" />
    <polyline
         class="cls-27"
         points="289.83 175.87 287.33 175.87 287.33 178.37"
         id="polyline31"
         transform="matrix(4.1666667,0,0,4.1666667,-1.2e-5,-4.6789144e-5)" />
    <line
         class="cls-24"
         x1="1197.2083"
         y1="764.04163"
         x2="1197.2083"
         y2="1086.9583"
         id="line32"
         style="stroke-width:4.16667" />
    <polyline
         class="cls-27"
         points="287.55 155.37 287.56 157.87 290.06 157.87"
         id="polyline32"
         transform="matrix(4.1666667,0,0,4.1666667,-1.2e-5,-4.6789144e-5)" />
    <line
         class="cls-3"
         x1="1228.7916"
         y1="657.79163"
         x2="1784.5417"
         y2="657.79163"
         id="line33"
         style="stroke-width:4.16667" />
    <polyline
         class="cls-27"
         points="430.71 157.87 433.21 157.87 433.21 155.37"
         id="polyline33"
         transform="matrix(4.1666667,0,0,4.1666667,-1.2e-5,-4.6789144e-5)" />
    <path
         class="cls-12"
         d="M 1805.0417,626.58329 V 304.29162 c 0,-36.5 -38.3334,-94.33333 -106.875,-94.33333 H 1301.875 c -71.7083,2.95833 -104.2917,60.20833 -104.2083,95.83333 l 0.4583,331.20834"
         id="path33"
         style="stroke-width:4.16667" />
    <path
         class="cls-19"
         d="m 1345.375,3208.8333 c 19.25,23.5417 68.2083,-5.9583 167.4583,-5.9583 112.0417,0 169.1667,33.4583 191.5,4.9583 23.7084,-30.2917 -10.9583,-84.5 -181.7083,-84.5 -170.75,0 -205.75,50.625 -177.25,85.4583 z"
         id="path34"
         style="stroke-width:4.16667" />
    <polyline
         class="cls-27"
         points="432.55 647.22 432.55 644.72 430.05 644.72"
         id="polyline34"
         transform="matrix(4.1666667,0,0,4.1666667,-1.2e-5,-4.6789144e-5)" />
    <polyline
         class="cls-2"
         points="425.2 644.72 293.67 644.72 291.91 644.72"
         id="polyline35"
         transform="matrix(4.1666667,0,0,4.1666667,-1.2e-5,-4.6789144e-5)" />
    <polyline
         class="cls-27"
         points="289.48 644.72 286.98 644.72 286.98 647.22"
         id="polyline36"
         transform="matrix(4.1666667,0,0,4.1666667,-1.2e-5,-4.6789144e-5)" />
    <line
         class="cls-34"
         x1="1195.75"
         y1="2719.25"
         x2="1195.75"
         y2="2752.9998"
         id="line36"
         style="stroke-width:4.16667" />
    <polyline
         class="cls-27"
         points="286.98 663.42 286.98 665.92 287 665.92 287 668.42"
         id="polyline37"
         transform="matrix(4.1666667,0,0,4.1666667,-1.2e-5,-4.6789144e-5)" />
    <path
         class="cls-37"
         d="m 1195.8333,2806.0416 v 822.4167 c 0,15.4167 12.4167,27.875 27.7917,27.875 h 551.0417 c 15.3333,0 27.7916,-12.5 27.7916,-27.875 v -914.25 c 0,-0.9583 -0.042,-1.9583 -0.1666,-2.875 v -4.0833"
         id="path37"
         style="stroke-width:4.16667" />
    <polyline
         class="cls-27"
         points="287.32 625.24 287.32 627.74 289.82 627.74"
         id="polyline38"
         transform="matrix(4.1666667,0,0,4.1666667,-1.2e-5,-4.6789144e-5)" />
    <line
         class="cls-9"
         x1="1227.8333"
         y1="2615.5833"
         x2="1784.4167"
         y2="2615.5833"
         id="line38"
         style="stroke-width:4.16667" />
    <polyline
         class="cls-27"
         points="430.68 627.74 433.18 627.74 433.18 625.24"
         id="polyline39"
         transform="matrix(4.1666667,0,0,4.1666667,-1.2e-5,-4.6789144e-5)" />
    <line
         class="cls-14"
         x1="1804.9166"
         y1="2584.375"
         x2="1804.9166"
         y2="2261.9165"
         id="line39"
         style="stroke-width:4.16667" />
    <polyline
         class="cls-27"
         points="433.18 540.37 433.18 537.87 430.68 537.87"
         id="polyline40"
         transform="matrix(4.1666667,0,0,4.1666667,-1.2e-5,-4.6789144e-5)" />
    <line
         class="cls-10"
         x1="1774.2916"
         y1="2241.125"
         x2="1217.7084"
         y2="2241.125"
         id="line40"
         style="stroke-width:4.16667" />
    <polyline
         class="cls-27"
         points="289.82 537.87 287.32 537.87 287.32 540.37"
         id="polyline41"
         transform="matrix(4.1666667,0,0,4.1666667,-1.2e-5,-4.6789144e-5)" />
    <line
         class="cls-13"
         x1="1197.1667"
         y1="2272.3333"
         x2="1197.1667"
         y2="2594.75"
         id="line41"
         style="stroke-width:4.16667" />
    <path
         id="Curved_slice"
         class="cls-33"
         d="m 1376.2917,3185.9166 c 0,0 27.25,-22.4583 150,-22.4583 122.75,0 150,22.4583 150,22.4583"
         style="stroke-width:4.16667" />
    <line
         class="cls-31"
         x1="1842.5834"
         y1="1749.2916"
         x2="1472.9166"
         y2="1749.2916"
         id="line42" />
    <line
         class="cls-26"
         x1="1806"
         y1="1277.2083"
         x2="1795.5834"
         y2="1277.2083"
         id="line45" />
    <line
         class="cls-39"
         x1="1774.7917"
         y1="1277.2083"
         x2="1494.0833"
         y2="1277.2083"
         id="line46" />
    <line
         class="cls-26"
         x1="1483.7084"
         y1="1277.2083"
         x2="1473.2916"
         y2="1277.2083"
         id="line47" />
</svg>
