<?xml version="1.0" encoding="UTF-8" standalone="no"?>
<svg
   version="1.1"
   id="template"
   x="0px"
   y="0px"
   width="300"
   height="300"
   viewBox="0 0 300 300"
   enable-background="new 0 0 270 414"
   xml:space="preserve"
   sodipodi:docname="CustomColorD4.svg"
   inkscape:version="1.3.2 (091e20e, 2023-11-25, custom)"
   xmlns:inkscape="http://www.inkscape.org/namespaces/inkscape"
   xmlns:sodipodi="http://sodipodi.sourceforge.net/DTD/sodipodi-0.dtd"
   xmlns="http://www.w3.org/2000/svg"
   xmlns:svg="http://www.w3.org/2000/svg"> <defs
   id="defs728" /> <sodipodi:namedview
   id="namedview726"
   pagecolor="#ffffff"
   bordercolor="#999999"
   borderopacity="1"
   showgrid="false"
   inkscape:showpageshadow="2"
   inkscape:pageopacity="0.0"
   inkscape:pagecheckerboard="0"
   inkscape:deskcolor="#d1d1d1"
   inkscape:zoom="0.9625"
   inkscape:cx="190.12987"
   inkscape:cy="43.116883"
   inkscape:window-width="2560"
   inkscape:window-height="1351"
   inkscape:window-x="-9"
   inkscape:window-y="-9"
   inkscape:window-maximized="1"
   inkscape:current-layer="template" /><g
   id="g2"
   transform="matrix(1.6666667,0,0,1.6666667,-825.00002,-106.66667)"><rect
     style="fill:#4e4e4e;fill-opacity:1;stroke-width:30.5721;paint-order:markers fill stroke"
     id="rect1466-9"
     width="180"
     height="180"
     x="495"
     y="64" /><path
     style="fill:#d2d2d2;fill-opacity:1;stroke-width:4.38964;paint-order:markers fill stroke"
     d="m 522.54773,208.23702 c -0.45096,-1.17514 0.83344,-3.79437 7.41697,-15.12518 6.36098,-10.94775 8.31985,-14.34636 11.27142,-19.55591 1.54929,-2.73452 4.38917,-7.65664 6.31083,-10.93806 1.92165,-3.28142 6.23952,-10.73918 9.59524,-16.57282 6.55153,-11.38925 11.83346,-20.5031 17.09653,-29.49961 1.81303,-3.09912 4.4652,-7.77032 5.89373,-10.38044 4.29532,-7.848189 5.26505,-7.935253 9.21962,-0.82775 1.29984,2.33618 4.0592,7.15614 6.13194,10.71101 6.50293,11.15296 11.07109,19.04013 17.37377,29.99679 3.35572,5.83364 7.67357,13.2914 9.59524,16.57282 1.92165,3.28142 4.76152,8.20354 6.31081,10.93806 3.14247,5.54644 5.52631,9.66589 11.50842,19.88737 5.94797,10.16316 7.62429,13.63592 7.16272,14.8387 -0.37443,0.97578 -5.93673,1.0712 -62.43498,1.0712 -57.52947,0 -62.05499,-0.0808 -62.45226,-1.11618 z"
     id="path369-0" /></g></svg>
