<svg id="a" xmlns="http://www.w3.org/2000/svg" viewBox="0 0 2400 1350" width="2400" height="1350"><g transform="translate(0, 416.3649025069638) scale(11.937922801432551)"><defs><style>.b{letter-spacing:.01em;}.c{stroke-dasharray:0 0 7.54 7.54;}.c,.d,.e{stroke:#00aeef;stroke-miterlimit:10;stroke-width:1.27px;}.c,.d,.e,.f,.g{fill:none;}.h{letter-spacing:.05em;}.i{letter-spacing:0em;}.j{letter-spacing:.05em;}.k{letter-spacing:-.02em;}.l{letter-spacing:-.02em;}.m,.n{fill:#010101;}.o{fill:#e7e6e6;}.p,.q{fill:#fff;}.r{fill:#e7282e;}.s,.t{fill:#4d494a;}.u,.v,.w,.x{fill:#231f20;}.u,.v,.y,.a`,.aa{font-family:Arial-BoldMT, Arial;}.ab{letter-spacing:-.02em;}.ac{letter-spacing:-.04em;}.ad{letter-spacing:-.04em;}.ae{letter-spacing:-.04em;}.af{font-size:7.96px;}.ag{letter-spacing:-.07em;}.ah{letter-spacing:-.06em;}.ai{letter-spacing:-.06em;}.e{stroke-dasharray:0 0 7.65 7.65;}.v{font-size:9.54px;}.f{stroke-dasharray:0 0 20 .07;}.f,.g{stroke:#ed2224;}.w{font-size:10.9px;}.w,.aj,.x{font-family:Arial-Black, Arial Black;}.aj{fill:#221f1f;}.aj,.x{font-size:9.98px;}.y{font-size:10px;}.y,.a`{fill:#ed2224;}.ak{font-size:11.37px;}.t,.al,.q,.n{fill-rule:evenodd;}.al{fill:#b7d334;}.a`,.aa{font-size:8.74px;}.aa{fill:#2ea1db;}</style></defs><g><polyline class="d" points="567 311.2 567 315 563.2 315"/><line class="c" x1="555.66" y1="315" x2="16.57" y2="315"/><polyline class="d" points="12.8 315 9 315 9 311.2"/><line class="e" x1="9" y1="303.55" x2="9" y2="16.63"/><polyline class="d" points="9 12.8 9 9 12.8 9"/><line class="c" x1="20.34" y1="9" x2="559.43" y2="9"/><polyline class="d" points="563.2 9 567 9 567 12.8"/><line class="e" x1="567" y1="20.45" x2="567" y2="307.37"/></g><g/><line class="g" x1="321.11" y1="78.72" x2="576" y2="78.72"/><path class="r" d="M328.88,68.84c0,.48-.22,.95-.65,1.39l-.06,.07-3.79,4c-.81,.84-1.49,1.5-2.06,1.96-.57,.45-.97,.68-1.2,.68-.25,0-.55-.11-.92-.34-.36-.23-.6-.47-.71-.71-.08-.2-.17-.64-.25-1.31-.08-.65-.12-1.38-.12-2.15,0-.42,.18-.81,.53-1.17,.35-.36,.74-.54,1.16-.54s.65,.37,.72,1.11c.01,.08,.02,.15,.02,.19,.06,.57,.14,.97,.23,1.19,.09,.23,.2,.34,.35,.34,.06,0,.18-.07,.34-.2,.17-.13,.37-.31,.6-.55l3.9-3.86c.33-.33,.62-.57,.88-.74,.26-.17,.47-.25,.66-.25,.13,0,.23,.05,.29,.15,.05,.1,.08,.27,.08,.52v.2Z"/><g><line class="e" x1="564.26" y1="174.83" x2="561.28" y2="174.83"/><line class="e" x1="555.47" y1="174.83" x2="326.08" y2="174.83"/><line class="e" x1="323.16" y1="174.83" x2="320.2" y2="174.83"/></g><line class="f" x1="320.2" y1="249.27" x2="541.97" y2="249.27"/><path class="r" d="M328.88,240.57c0,.48-.22,.95-.65,1.39l-.06,.07-3.79,3.99c-.81,.84-1.49,1.5-2.06,1.96-.57,.46-.97,.68-1.2,.68-.25,0-.55-.11-.92-.34-.36-.23-.6-.47-.71-.71-.08-.2-.17-.64-.25-1.3-.08-.65-.12-1.38-.12-2.15,0-.42,.18-.81,.53-1.17,.35-.36,.74-.54,1.16-.54s.65,.37,.72,1.11c.01,.08,.02,.15,.02,.19,.06,.57,.14,.97,.23,1.19,.09,.23,.2,.34,.35,.34,.06,0,.18-.07,.34-.2,.17-.13,.37-.31,.6-.55l3.9-3.86c.33-.33,.62-.57,.88-.74,.26-.17,.47-.25,.66-.25,.13,0,.23,.05,.29,.15,.05,.1,.08,.27,.08,.52v.2Z"/><path class="r" d="M328.88,166.05c0,.48-.22,.95-.65,1.39l-.06,.07-3.79,4c-.81,.84-1.49,1.5-2.06,1.96-.57,.45-.97,.69-1.2,.69-.25,0-.55-.11-.92-.34-.36-.23-.6-.47-.71-.71-.08-.2-.17-.64-.25-1.31-.08-.65-.12-1.38-.12-2.15,0-.42,.18-.81,.53-1.17,.35-.36,.74-.54,1.16-.54s.65,.37,.72,1.11c.01,.08,.02,.15,.02,.19,.06,.57,.14,.97,.23,1.19,.09,.23,.2,.34,.35,.34,.06,0,.18-.07,.34-.2,.17-.13,.37-.31,.6-.55l3.9-3.86c.33-.33,.62-.57,.88-.74,.26-.17,.47-.25,.66-.25,.13,0,.23,.05,.29,.15,.05,.1,.08,.27,.08,.52v.2Z"/><line class="g" x1="321.11" y1="104.08" x2="531.05" y2="104.08"/><path class="r" d="M328.88,94.19c0,.48-.22,.95-.65,1.39l-.06,.07-3.79,4c-.81,.84-1.49,1.5-2.06,1.96-.57,.45-.97,.69-1.2,.69-.25,0-.55-.11-.92-.34-.36-.23-.6-.47-.71-.71-.08-.2-.17-.64-.25-1.31-.08-.65-.12-1.38-.12-2.15,0-.42,.18-.81,.53-1.17,.35-.36,.74-.54,1.16-.54s.65,.37,.72,1.11c.01,.08,.02,.15,.02,.19,.06,.57,.14,.97,.23,1.19,.09,.23,.2,.34,.35,.34,.06,0,.18-.07,.34-.2,.17-.13,.37-.31,.6-.55l3.9-3.86c.33-.33,.62-.57,.88-.74,.26-.17,.47-.25,.66-.25,.13,0,.23,.05,.29,.15,.05,.1,.08,.27,.08,.52v.2Z"/><g><rect class="o" x="355.77" y="19.54" width="201.04" height="43.33"/><g><path class="n" d="M400.59,41.17c0,10.79-8.74,19.53-19.52,19.53s-19.52-8.75-19.52-19.53,8.74-19.53,19.52-19.53,19.52,8.75,19.52,19.53"/><path class="al" d="M398.83,41.28c0,9.81-7.95,17.76-17.75,17.76s-17.74-7.95-17.74-17.76,7.94-17.76,17.74-17.76,17.75,7.95,17.75,17.76"/><path class="m" d="M377.29,37.4c-.25,2.18-.43,3.93-.55,5.25l-.81,.04s.02-.09,.02-.15c0-.1-.03-.23-.11-.39-.07-.16-.11-.26-.12-.31-.21,.03-.41,.17-.6,.44-.19,.26-.36,.39-.52,.39-.09,0-.19-.02-.3-.07-.15,.1-.33,.14-.56,.12-.21-.04-.41-.07-.61-.09,0-.27-.28-.52-.81-.72,0-.11-.05-.27-.16-.49-.11-.22-.17-.37-.17-.46,0-.1,.04-.18,.12-.25,0-.03-.1-.24-.27-.62-.12-.28-.17-.51-.17-.71,0-.15,.04-.3,.11-.43-.09-.94-.14-1.74-.12-2.41,.02-1.04,.16-1.99,.45-2.85-.02-.13-.03-.26-.03-.4,0-.69,.25-1.17,.71-1.44v-.22c.46-.59,1.07-1.01,1.82-1.27,.45,.11,.9,.21,1.35,.31,.5,.17,.85,.47,1.04,.89,.15,.09,.23,.27,.22,.55,0,.31,.03,.51,.11,.6l-.08,.1c.09,.65,.13,1.05,.13,1.19,0,.42-.12,.71-.33,.89-.08,0-.28-.07-.6-.21-.08,.08-.16,.11-.25,.11-.04,0-.12-.02-.24-.07s-.21-.07-.29-.07c-.05,0-.11,0-.16,.03,0-.87,.02-1.52,.08-1.95-.09-.06-.17-.18-.27-.38-.09-.2-.21-.31-.35-.33-.09,.11-.13,.18-.12,.21l-.3-.11c-.27,.29-.45,.8-.54,1.53-.09,.84-.21,1.39-.34,1.66,.12,.13,.18,.3,.17,.51,0,.08-.01,.21-.04,.38-.03,.18-.04,.31-.04,.4,0,.1,0,.19,.03,.27l-.2,.19c.08,.38,.13,.85,.14,1.42,0,.48-.01,.97,0,1.45-.01,0-.11,0-.28,.01-.11,0-.19,.04-.24,.11,.07,0,.13-.01,.18-.01,.24,0,.43,.17,.57,.51,.14,.34,.26,.51,.36,.51,.11,0,.26-.1,.45-.31,.33-.35,.49-.82,.5-1.43,0-.3-.03-.62-.1-.96-.08,.04-.12,.15-.12,.33-.18,0-.29,.03-.33,.11-.08-.02-.11-.08-.1-.18,.01-.14,.02-.22,.02-.23,.13-.04,.2-.1,.2-.18,0-.03-.02-.1-.07-.18-.05-.09-.07-.16-.07-.22,0-.05,.01-.09,.04-.13l.08-.64c.24,.07,.77,.1,1.57,.09-.02,.06,0,.13,.1,.22,.08-.08,.16-.11,.25-.11,.07,0,.17,.03,.3,.09,.13,.06,.23,.09,.28,.09"/><path class="m" d="M383.45,43.09c-.15-.07-.32-.11-.49-.11-.15,0-.36,.03-.63,.09-.3,.06-.5,.1-.61,.11-.12-.23-.2-.55-.25-.96-.09-.6-.14-.93-.16-1.01,.03-.06,.05-.12,.05-.17,0-.12-.09-.23-.28-.33-.19-.1-.29-.17-.29-.23,0-.06,.11-.16,.34-.29-.06-.07-.09-.2-.12-.41-.03-.2-.08-.34-.15-.41-.13,.12-.35,.19-.65,.23-.31,.03-.51,.08-.61,.15,0,.86-.13,1.43-.42,1.73-.16-.03-.27,.02-.35,.18-.11,.18-.21,.29-.29,.32l.1,.12c-.09,.07-.23,.11-.43,.09-.31-.02-.47-.02-.49-.02l-.09-.3,1.07-8.92c0-.56,.04-.94,.09-1.14-.02-.5,.1-.8,.35-.92,.15,.1,.34,.15,.57,.16,.19,0,.48-.03,.88-.11,.4-.08,.68-.12,.83-.12,.54,.01,.77,.4,.71,1.17-.05,.62,.04,1.43,.29,2.44,.26,1.08,.38,1.89,.37,2.44,0,.16,.05,.5,.04,.67-.23,.13-.53,.2-.9,.23-.32,.01-.64,.03-.97,.05-.08-.84-.23-1.85-.32-2.68-.1-.99-.24-1.81-.39-2.45l-.51,4.72c-.04,.41,.14,.61,.55,.62,.13,0,.26-.03,.38-.09,.1-.03,.24,.04,.41,.22,0,.34,.06,.55,.2,.62,.18-.12,.41-.23,.7-.33,.25-.1,.5-.19,.75-.27,.14,.19,.23,.47,.26,.85,.05,.53,.08,.84,.1,.93,.02,.21,.1,.66,.26,1.36,.11,.55,.17,1,.16,1.34,0,.16-.02,.32-.04,.46"/><path class="m" d="M391.05,35.23s-.01,.23,0,.58c0,.29-.04,.5-.11,.64-.08,.22-.12,.53-.13,.94,0,.09,0,.23,0,.42,0,.19,0,.32,0,.41-.01,.7-.13,1.2-.36,1.51,.02,.18,.03,.36,.03,.53,0,.55-.2,1.29-.57,2.22-.1,.03-.18,.05-.25,.05-.13,0-.23-.08-.29-.23-.06-.15-.11-.29-.16-.43,.04-.84,.02-2.08-.05-3.7l.1-.1c-.07-.29-.1-.61-.1-.96,0-.25,.04-.62,.09-1.1,.05-.48,.09-.85,.09-1.09,0-.15,0-.3,0-.44-.38,.91-.65,2.45-.81,4.61l-.14,.33c-.04,.11-.14,.17-.28,.18-.04-.08-.09-.12-.13-.12-.03,0-.09,.04-.17,.12-.08,.08-.15,.11-.21,.1l-.22,.19c.1,.13,.31,.14,.63,.04,.25-.07,.38,.02,.39,.29,0,.22-.06,.52-.18,.89-.13,.37-.19,.65-.2,.84,0,.13,.01,.26,.04,.4l-1.14,.18c-.11-.23-.18-.6-.24-1.12-.05-.53-.13-.9-.24-1.12,.07-.08,.1-.16,.1-.25,0-.07-.03-.19-.09-.35-.07-.15-.1-.27-.11-.35,0-.12-.05-.41-.12-.88-.05-.38-.07-.67-.07-.88,0-.11,.01-.21,.03-.3,0-.08-.04-.19-.13-.34-.09-.15-.13-.26-.13-.32,0-.05,.02-.1,.07-.14-.07-.09-.1-.25-.09-.47,.02-.22-.01-.38-.09-.46-.16,.43-.25,1-.26,1.73,0,1.01-.02,1.6-.03,1.75l.12,.1-.12,.1c.08,.4,.12,.9,.11,1.52-.03,1.11-.04,1.63-.04,1.55-.16,.14-.37,.21-.65,.2-.34,0-.57,.02-.69,.09-.14-.25-.2-.56-.2-.94,0-.29,.05-.66,.15-1.09-.15-.28-.22-.66-.21-1.16,0-.12,.02-.35,.05-.69,.02-.28,.02-.48,0-.61,.11-.05,.17-.11,.17-.18,0-.04-.04-.12-.1-.22-.07-.11-.1-.19-.1-.24,0-.06,.05-.13,.14-.2l-.35-5.34c.21-.14,.55-.21,1.03-.2,.52,.02,.87,0,1.06-.08,.04-.02,.07-.03,.12-.03,.04,0,.1,.03,.16,.08,.06,.05,.1,.07,.12,.07,.04,0,.08-.03,.12-.1l.31,.3c.1,.39,.2,1.14,.29,2.25,.1,.96,.24,1.68,.44,2.17,.27-.98,.49-1.79,.67-2.45l.36-2.61,2.56-.05c0,.14,.04,.91,.11,1.35,.06,.38,.09,.7,.09,.94,0,.28-.05,.52-.13,.74,.09,.12,.13,.28,.12,.46,0,.19-.05,.34-.14,.46"/><path class="m" d="M396.3,41.02v-.02c-.07,.14-.11,.31-.12,.5-.01,.12-.01,.29,0,.51,0,.25,.01,.43,0,.53-.09,0-.44,0-1.05-.02-.37,0-.71,.03-1.01,.1l-.31-.34c-.09,.09-.12,.16-.1,.22-.06-.01-.31-.02-.76-.01-.35,0-.62-.04-.79-.11-.18,.18-.39,.18-.63-.01-.09-.06-.1-.18-.03-.34,.07-.16,.05-.28-.06-.36,.02-.35,.07-.9,.14-1.63,.08-.66,.12-1.18,.13-1.55,0-.5-.03-.99-.11-1.46,.12-.12,.26-.18,.42-.17,.18,0,.39,.09,.62,.26,.34,.24,.51,.36,.52,.36l.1,.12s.07-.21,.17-.53c.06-.21,.14-.34,.26-.41l.1,.1s.19-.12,.43-.31c.19-.13,.35-.44,.45-.43,.12,0,.23,.07,.34,.2,.19,.1,.3,.5,.36,.7,.06,.2,.11,.41,.16,.6-.49,.01-.9,0-1.22-.04-.08,.12-.19,.13-.33,.05-.14-.08-.25-.07-.31,.04,0,.2-.01,.56-.02,1.07-.02,.46-.02,.83-.02,1.09,0,.41,.03,.78,.08,1.12,.09,0,.5,0,1.25,.02,.52,0,.96,.05,1.33,.14m.04-7.92c-.1,0-.21,.02-.33,0-.25,0-.59-.04-1-.12-.52-.07-.83-.12-.94-.13-.16,.23-.24,.55-.25,.97-.01,.9-.01,1.29,0,1.17,.15,.09,.23,.25,.22,.5-.01,.33-.02,.5,0,.51-.08,.03-.12,.14-.12,.33-.12-.05-.25-.14-.37-.27-.17-.17-.27,.4-.25,.26l-.1,.34-.1-.1c-.09,0-.24-.04-.45-.14-.21-.1-.36-.2-.45-.29,0-.18,.03-.27,.09-.3l-.21-.24-.1,.15c-.12-1.15-.09-3.29,.06-4.5,.42,.07,.88,.12,1.38,.14,.34,.01,.82,.02,1.43,.02,.7,0,1.21,0,1.52,0,.13,.12,.19,.29,.19,.48,0,.12-.04,.32-.1,.59-.07,.27-.1,.47-.1,.6"/><path class="m" d="M377.78,51h0s-.03,.24-.08,.72c-.03,.29-.1,.52-.22,.69l-.07-.06c-.14,.28-.32,.45-.55,.52-.11,.11-.27,.18-.48,.19-.12,0-.41-.03-.86-.11-.22-.14-.33-.21-.35-.22-.14-.1-.2-.21-.19-.31-.13-.13-.32-.37-.38-.67-.08-.33-.14-.35-.21-.47-.13,.09-.17-.1-.24-.22l.07-.05s-.07-.06-.07-.1c0-.03,0-.07,.03-.12,.03-.05,.04-.09,.03-.11,0-.04-.03-.08-.07-.11,.05-.26,.09-.65,.14-1.17,.09-.05,.13-.14,.13-.28,0-.13,.01-.23,.06-.27,.21-.42,.55-.71,1.02-.85,.03,0,.15,0,.38,0,.16,0,.28,0,.36,.04,.14-.02,.28,0,.42,.1,.12,.09,.24,.18,.37,.28,.23,.25,.35,.53,.37,.84,0,.1,0,.21-.02,.33-.17,0-.29,.11-.36,.33l-.66,.06c-.07-.1-.11-.24-.12-.4,0-.06,0-.14,0-.25,0-.11,0-.19,0-.25,0-.17-.05-.31-.12-.41l-.2,.11c-.08-.03-.12-.08-.12-.14,0-.02,0-.05,0-.09,0-.04,.01-.07,.01-.08,0-.07-.07-.11-.18-.12-.08,.74-.1,1.51-.07,2.29,.02,.03,.08,.04,.19,.05,.08,.01,.13,.04,.13,.08,0,.01,0,.04-.01,.06l-.06,.05c.03,.05,.05,.13,.06,.23,0,.05,0,.13,0,.24,0,.11,0,.19,0,.24,0,.16,.05,.27,.12,.36,0,.12,.04,.19,.14,.24,.06-.03,.12-.04,.17-.04,.2,0,.34,.1,.42,.33,0,0,0,.04,0,.12,0,.04,.02,.07,.06,.08,.09-.05,.13-.14,.13-.28,0-.16,.02-.26,.06-.3-.01-.07-.06-.18-.13-.32-.07-.14-.12-.24-.12-.32,0-.08,.02-.16,.08-.24-.05-.01-.07-.04-.07-.09,0-.07,0-.11,0-.12,.36-.09,.72-.09,1.09,0"/><path class="m" d="M380.77,51.62h0c-.04,.07-.05,.18-.04,.32,.02,.2,.03,.3,.03,.3-.03,.01-.07,0-.12-.05-.08,.03-.11,.08-.11,.15,0,.01,0,.03,.01,.05v.06c0,.05-.01,.1-.04,.12-.09-.05-.2-.08-.35-.09-.14-.01-.28-.03-.41-.04,0-.66-.09-1.31-.27-1.95,0,0,0-.06-.01-.2,0-.1-.02-.17-.07-.21l-.06,.05s.02-.03,.06-.06c.04-.03,.06-.06,.06-.09,0-.01,0-.03-.01-.04l-.07-.05c-.11,.04-.16,.13-.16,.27,0,.1-.03,.16-.12,.2,.03,.02,.05,.05,.05,.08,0,.02,0,.05,0,.08,0,.03,0,.06,0,.08,0,.04,.03,.08,.07,.11,0,.03,.02,.29,.04,.79,.02,.31,0,.58-.03,.8v.12s-.08,0-.14,0c-.06,0-.15,.01-.26,.03-.11,.01-.2,.02-.25,.03-.22,.01-.38-.03-.47-.11l-.1-2.72c-.04-.13-.07-.32-.09-.56l-.03-.52c-.02-.26-.05-.45-.1-.59,.02-.09,.1-.14,.25-.15,.09,0,.21,0,.37,.04,.07-.03,.17-.06,.29-.06,.04,0,.09,0,.17,0,.08,0,.14,0,.18,0,.24-.01,.39-.09,.47-.22,.11,0,.22,.03,.36,.1,.13,.07,.24,.11,.34,.11,.26,.15,.4,.4,.42,.75,0,.08-.03,.38-.1,.93l-.44,.38c.07,.14,.16,.43,.27,.9,.09,.39,.22,.67,.4,.85m-.81-3.1h0s0-.08-.01-.35c0-.13-.06-.23-.14-.28-.05,.07,0,.11-.02,.27-.03,.16-.12,.12-.18,.19-.15,0-.19,.09-.22-.05-.07-.23-.13-.21-.13-.22l-.07,.04s-.05,.04-.08,.07c-.03,.03-.06,.04-.09,.03,0,.03-.01,.08-.04,.14-.03,.06-.04,.11-.04,.13,0,.04,.04,.08,.1,.1-.01,.1-.01,.2,0,.31,0,.06,.02,.19,.04,.4,.03,.17,.04,.31,.03,.42,.05,0,.11,0,.15,0,.21-.01,.35-.1,.41-.25,.02-.05,.05-.21,.07-.49,.02-.21,.09-.35,.19-.44"/><path class="m" d="M384.2,52.67c-.09-.03-.18-.03-.28-.03-.08,0-.2,.03-.34,.06-.16,.04-.27,.06-.33,.07-.07-.1-.13-.24-.17-.41-.07-.26-.11-.4-.12-.44,.01-.03,.02-.05,.02-.07,0-.06-.06-.1-.17-.13-.11-.04-.16-.07-.16-.09,0-.03,.06-.07,.17-.14-.03-.03-.06-.09-.08-.18-.02-.09-.05-.15-.1-.18-.07,.06-.19,.1-.35,.13-.16,.03-.27,.05-.33,.09,.04,.38,0,1.04-.15,1.18-.09-.01-.15,.02-.19,.09-.06,.09-.11,.14-.15,.15l.06,.05s-.13,.06-.23,.06c-.17,0-.26,0-.27,0l-.06-.13,.25-4.37c-.01-.25,0-.42,0-.5-.02-.22,.03-.36,.16-.42,.09,.04,.19,.06,.32,.05,.1,0,.26-.03,.48-.08,.21-.05,.36-.08,.45-.08,.3-.02,.44,.14,.43,.48,0,.27,.07,.63,.24,1.06,.18,.47,.28,.82,.29,1.06,0,.07,.1,.23,.1,.3-.12,.06-.28,.11-.48,.14-.17,.02-.35,.04-.53,.06-.08-.37-.25-.81-.32-1.17-.09-.43-.19-.79-.3-1.07l-.12,2.1c0,.18,.1,.26,.33,.25,.08,0,.14-.02,.21-.05,.05-.02,.13,0,.23,.08,0,.15,.05,.24,.14,.26,.09-.06,.21-.12,.37-.17,.14-.05,.27-.1,.4-.15,.08,.08,.14,.2,.17,.36,.04,.23,.07,.36,.09,.4,.02,.09,.08,.29,.19,.59,.08,.24,.12,.43,.13,.59,0,.07,0,.14,0,.2"/><path class="m" d="M386.69,47.71h0c-.07,.11-.16,.12-.28,.06-.03,0-.13,0-.33,.02-.16,0-.28,0-.36-.02-.02,0-.05,.02-.11,.05-.05,.04-.09,.05-.12,.06-.03,0-.05-.03-.06-.09,0-.01,0-.05,0-.12,0-.05-.03-.08-.07-.1l-.11,.09s-.05,.06-.05,.08c0,.02,.02,.06,.06,.1,.04,.04,.06,.08,.07,.1,0,.01,.02,.23,.04,.65,0,.27,.06,.48,.15,.64,.02-.03,.08-.04,.16-.04,.09,0,.15-.02,.18-.06,.05,.05,.15,.05,.28,.01,.13-.05,.23-.03,.29,.04l-.02,.64c-.05,0-.13-.03-.24-.08-.03,.09-.09,.15-.18,.18-.04,.01-.14,.02-.31,.03,0-.03-.02-.06-.08-.09-.16,.08-.22,.26-.18,.56,0-.03,0,.02,.02,.15,0,.08-.01,.14-.05,.18-.1,.01-.23-.01-.39-.07-.16-.06-.27-.09-.34-.09-.03,0-.06,0-.08,.01l-.17,.05-.27-2.94-.03-.56c.23-.08,.5-.12,.83-.14,.26-.02,.6-.02,1.02,0,.03-.05,.08,.02,.14,.01,.03,0,.07,0,.14,0,.06,.01,.1,.01,.14,.01,.04,0,.07,0,.1-.02l.04-.05c.12,.04,.19,.1,.19,.19,0,.04,0,.1-.04,.2-.02,.1-.04,.17-.03,.22,0,.04,.01,.08,.03,.12m-1.06,4.91c-.06,.03-.16,.05-.29,.06-.18,0-.28,.02-.32,.02-.02-.02-.04,0-.08-.16-.02-.1-.09-.15-.19-.14-.02,0-.05,0-.09,.01h-.16l-.09-1.48c.09-.04,.2-.07,.33-.08,.12,0,.24,0,.34,.04,0,.05,.07,.08,.23,.07h.17c.1,.41,.17,1.16,.15,1.65"/><path class="m" d="M390.32,47.84h0c-.08,0-.36,.02-.57,.05-.18,.02-.32,.02-.41,.01-.09,.06-.12,.14-.1,.24l.06,.03s-.06,.07-.05,.1l.05,.05c-.01,.86-.01,1.34-.01,1.43,.01,.23,.04,.43,.08,.6-.04,.11-.05,.23-.04,.37,0,.09,.03,.24,.06,.44,.04,.2,.09,.86,.1,.96,0,.08,0,.15,0,.22-.08,.03-.17,.05-.27,.06-.16,0-.34-.02-.52-.1-.02,.02-.05,.04-.08,.07-.03,.02-.04,.05-.02,.08-.06,.02-.14,0-.25-.07-.06-.87-.21-2.65-.45-4.45-.08,.07-.23,.01-.39,.03-.18,.02-.37-.01-.44,.02-.09-.1-.07-.13-.08-.29,0-.16-.06-.54-.02-.7,0-.03,.34-.01,.54-.03,.27-.02,.33,.05,.35,.05,.03-.04,.16-.02,.25-.02,.06,.03,.13-.03,.13,.01,0,.03,0,.21-.02,.26-.02,.05-.03,.09-.03,.12,0,.06,.05-.03,.14,0,.11,0,.22,0,.34-.01,.13,0,.27-.03,.26,.07,.02-.03,.03,.02,.22-.05,.13-.06,.22-.22,.19-.33-.01-.06,.07-.1,.02-.07,.07-.03,0,0,.08-.04,.23,.02,.35,0,.39,0,.09,0,.31,.05,.38,.02,.05,.09,.07,.35,.07,.5,0,.23,.01,.36,.01,.37"/><path class="m" d="M393.24,50.88h0c-.03,.06-.05,.13-.05,.21,0,.05,0,.13,.01,.23,.01,.11,.02,.19,.02,.23-.05,0-.24,.01-.58,.03-.2,.01-.39,.04-.55,.08l-.18-.13s-.06,.08-.05,.1c-.03,0-.17,0-.42,.03-.19,.01-.34,0-.44-.02-.09,.09-.21,.1-.34,.02-.05-.03-.06-.08-.03-.15,.03-.07,.02-.12-.05-.15,0-.16,0-.4,.02-.73,.02-.29,.02-.52,.01-.69-.01-.23-.05-.44-.11-.64,.06-.06,.14-.09,.22-.09,.1,0,.21,.02,.35,.09,.19,.09,.29,.14,.3,.14l.06,.05s.03-.09,.08-.24c.02-.09,.06-.16,.12-.19l.06,.04s.1-.06,.23-.15c.1-.06,.17-.3,.23-.3,.06,0,.13,.02,.19,.08,.11,.04,.19,.3,.23,.39,.04,.09,.08,.18,.11,.26-.27,.03-.49,.04-.67,.03-.04,.06-.1,.07-.18,.04-.08-.03-.14-.02-.17,.03,0,.09,.02,.25,.03,.47,0,.2,.01,.36,.03,.48,.01,.18,.04,.34,.08,.49,.05,0,.28-.02,.69-.04,.29-.01,.53-.01,.73,0m-.28-3.43c-.05,0-.11,.01-.18,.02-.14,0-.32,0-.55-.01-.29-.01-.46-.02-.52-.02-.08,.11-.09,.2-.08,.38,.02,.4,.04,.57,.04,.52,.08,.03,.13,.1,.14,.21,0,.14,0,.22,.01,.22-.04,.02-.06,.07-.06,.15-.07-.01-.14-.05-.21-.11-.1-.07-.13,.17-.13,.11l-.05,.15-.06-.04s-.13,0-.25-.05c-.12-.04-.21-.07-.26-.11,0-.08,0-.12,.04-.13l-.12-.1-.05,.07c-.11-.5-.18-1.38-.14-1.92,.23,.01,.5-.02,.78-.04,.18,0,.45-.02,.79-.04,.38-.03,.66-.05,.83-.06,.08,.05,.12,.12,.12,.2,0,.05,0,.14-.03,.26-.03,.12-.06,.27-.06,.33"/><path class="m" d="M396.26,50.36h0c-.04,.08-.05,.19-.04,.33,.02,.2,.03,.3,.03,.3-.03,.01-.07,0-.12-.04-.08,.03-.12,.08-.11,.14,0,.01,0,.03,.01,.05,0,.03,0,.05,0,.06,0,.05,0,.09-.05,.12-.09-.05-.2-.08-.35-.09-.14-.01-.28-.03-.41-.04,0-.66-.09-1.31-.26-1.94,0,0,0-.06-.01-.2,0-.1-.02-.17-.07-.21l-.06,.05s.02-.03,.06-.06c.04-.03,.06-.06,.06-.09,0-.01,0-.03,0-.04l-.07-.05c-.11,.04-.16,.12-.16,.27,0,.1-.03,.17-.12,.2,.03,.02,.05,.05,.05,.09,0,.02,0,.04,0,.08,0,.04,0,.06,0,.08,0,.04,.03,.08,.07,.11,0,.03,.02,.29,.05,.79,.02,.32,0,.59-.02,.81v.12s-.08,0-.14,0c-.06,0-.15,0-.26,.02-.11,.01-.2,.02-.25,.03-.22,.01-.38-.02-.47-.11l-.1-2.72c-.04-.13-.07-.32-.08-.56l-.03-.52c-.02-.26-.05-.46-.1-.6,.02-.09,.1-.14,.25-.15,.09,0,.21,0,.36,.04,.07-.03,.17-.05,.3-.06h.17c.08,0,.14,0,.18-.01,.23-.01,.39-.08,.47-.22,.11,0,.23,.03,.36,.1,.13,.07,.24,.11,.34,.11,.26,.15,.39,.4,.42,.75,0,.08-.03,.39-.09,.92l-.44,.38c.07,.14,.17,.44,.27,.9,.09,.38,.23,.67,.41,.85m-.82-3.09h.01s0-.08-.01-.35c0-.13-.06-.23-.15-.28-.05,.07-.06-.1-.08,.07-.02,.17-.07,.28-.12,.35-.15,0-.19-.09-.28-.22-.06-.08-.08,0-.08-.01l-.04,.03s-.05,.05-.08,.07c-.03,.03-.06,.03-.08,.03,0,.03-.02,.08-.04,.14-.03,.06-.04,.11-.04,.13,0,.05,.04,.08,.1,.1-.01,.1-.01,.2,0,.31,0,.06,.02,.19,.04,.4,.03,.16,.04,.31,.04,.42,.05,0,.1,0,.15,0,.21-.01,.35-.1,.41-.25,.02-.04,.05-.21,.07-.48,.02-.21,.09-.36,.19-.44"/><path class="m" d="M366.25,37.81h0c-.03,.26-.04,.43-.03,.53-.04,.01-.09,.02-.15,0-.08-.01-.13-.02-.14-.02-.03,0-.06,.01-.08,.04-.05-.03-.08-.05-.1-.04-.04,.03-.07,.07-.07,.12,0,.02,0,.06,.03,.12,.02,.05,.02,.09,.03,.12,0,.03,0,.09-.02,.17-.02,.08-.02,.14-.02,.19,0,.06,.02,.15,.04,.27,.02,.12,.03,.21,.04,.28-.02,.12-.03,.24-.03,.37,.01,.15,.05,.35,.12,.6,.02,0,.03,0,.04,0,.03,0,.07-.02,.11-.06,.04-.04,.08-.06,.11-.06,.02,0,.05,0,.07,.01,.08,.26,.12,.42,.13,.5,0,.03,0,.07,0,.11-.12,.03-.2-.01-.25-.12,0-.03-.01-.06-.05-.1l-.13,.14c.13,.02,.18,.12,.15,.3,0,.03-.04,.05-.08,.05-.08,0-.11,0-.11,0l-.11-.19-.04,.06c-.04-.09-.08-.14-.13-.13-.03,0-.07,.02-.14,.07-.07,.04-.12,.07-.16,.07-.03,0-.07,0-.11-.03,0-.05,0-.11-.02-.16,0-.06-.04-.09-.09-.11,0-.13,0-.5,.01-1.08,0-.44,0-.8-.01-1.07,0-.11-.01-.23-.03-.34-.02-.04-.04-.05-.07-.05-.02,0-.04,.02-.08,.06-.04,.04-.07,.05-.09,.05,0-.04-.02-.11-.06-.21-.04-.1-.06-.17-.06-.21,0-.07,.03-.14,.08-.2l.15,.04c.06-.09,.09-.24,.08-.44,0-.04,0-.1-.02-.19,0-.09-.01-.15-.02-.19-.02-.34,.09-.51,.31-.52,.08,0,.18,0,.3,.04l.15,.04c.01,.06,.02,.12,.02,.18,0,.08,0,.21,0,.36-.01,.16-.02,.28-.01,.36,0,.12,.03,.23,.06,.32,.04,0,.09-.02,.17-.06,.07-.04,.13-.06,.16-.06,.06,0,.11,.02,.15,.08m-.46,.47v-.15l-.06-.05,.06,.2Z"/><path class="m" d="M368.06,37.33h.01c-.02,.12-.03,.24-.05,.36-.02,.14-.07,.25-.12,.32,0,0-.06-.03-.16-.08-.07-.04-.13-.05-.18-.04-.04,.26-.06,.61-.06,1.05,0,.57,0,.91-.02,1.03-.07,0-.12,.01-.15,.06-.03,.05-.07,.1-.09,.15-.02,.03-.02,.05-.02,.07,0,.04,.03,.07,.09,.1,.06,.03,.09,.07,.09,.11-.03,.1-.08,.14-.16,.15-.04,0-.11,0-.21-.04-.1-.03-.16-.04-.21-.04l-.09-1.89c.04-.05,.05-.08,.05-.1l-.06-.04c0-.08,0-.47,.01-1.18,0-.48,.02-.87,.05-1.16,0,0,.13,0,.41-.03,.17,0,.28,.04,.33,.14,0,.1,0,.26-.03,.5-.02,.21-.03,.37-.02,.49,0,.14,.03,.27,.07,.38,.15-.2,.32-.31,.52-.32m.66,.41c.01,.17,.02,.35,.03,.51,.04,.73,.03,1.51-.03,2.34-.06,.06-.16,.07-.29,.04-.13-.03-.23-.02-.29,.04-.08-.1-.12-.27-.13-.53-.02-.37-.03-.56-.03-.58-.02-.92,.07-1.67,.27-2.24,.22,.06,.38,.2,.47,.42"/><path class="m" d="M371.04,38.7c-.03,.06-.04,.12-.04,.19,0,.07,0,.13,0,.19,0,.05-.02,.11-.04,.16-.04,0-.07-.01-.1-.01-.03,0-.06,.01-.09,.03-.03,.02-.05,.03-.07,.03-.03,0-.06,0-.11-.03l-.3-.45c0,.13,.04,.25,.09,.35,.02,.05,.05,.1,.07,.16-.18,.03-.28,.03-.3,.01l-.04,.05-.11-.14c-.09,.1-.1,.25-.06,.45,.06,.21,.06,.36,0,.46,.07,.1,.15,.14,.24,.14,.04,0,.07-.01,.1-.04,.04-.11,.09-.22,.13-.32,.07-.13,.14-.2,.21-.21,.06,0,.13,.03,.22,.1,.1,.03,.15,.08,.15,.14,0,.03-.02,.09-.07,.17-.05,.08-.07,.14-.07,.19,0,.02,0,.03,0,.05-.07,.04-.12,.11-.17,.21-.05,.1-.12,.16-.2,.2-.07,.07-.14,.11-.2,.11-.05,0-.12-.04-.22-.11-.09-.08-.18-.11-.27-.11-.03-.08-.12-.16-.26-.26-.14-.1-.22-.2-.25-.31,0,0,0-.02,0-.1,0-.05-.02-.07-.06-.08l.05-.05c-.07,0-.1-.04-.11-.11,0,0,0-.03,0-.05,0-.02,0-.04,0-.05,0-.05-.02-.09-.05-.11v-.23c-.02-.12-.04-.2-.09-.25,.05-.28,.09-.56,.13-.84,.07-.33,.18-.49,.32-.5,.02,0,.04,0,.06,0,.13-.12,.28-.19,.46-.2,.2,0,.42,.05,.66,.18,.19,.31,.3,.64,.35,1.01m-.91-.73l-.05,.06s-.06,0-.11-.05v.15c-.06,.07-.09,.19-.08,.34,.01,.27,.02,.39,.02,.38h.2c.1-.06,.14-.14,.13-.27,0-.06-.02-.16-.06-.31-.04-.14-.06-.24-.06-.31"/><polygon class="n" points="372.58 45.35 372.78 45.46 373.44 43.71 373.22 43.64 372.56 45.39 372.75 45.51 372.58 45.35"/><polygon class="n" points="372.87 45.11 372.79 45.14 372.58 45.35 372.75 45.51 372.96 45.29 372.88 45.33 372.87 45.11"/><polygon class="n" points="374.48 45.09 374.58 45.02 372.87 45.11 372.88 45.33 374.59 45.25 374.7 45.16 374.48 45.09"/><polygon class="n" points="375.26 43.48 375.14 43.34 374.48 45.09 374.7 45.16 375.36 43.41 375.25 43.27 375.26 43.48"/><polygon class="n" points="373.63 43.54 373.55 43.58 375.26 43.48 375.25 43.27 373.54 43.35 373.46 43.39 373.63 43.54"/><polygon class="n" points="373.44 43.71 373.42 43.75 373.63 43.54 373.46 43.39 373.25 43.6 373.22 43.64 373.44 43.71"/><polygon class="n" points="374.86 45.3 375.01 45.24 374.65 45.03 374.53 45.24 374.91 45.45 375.07 45.37 374.85 45.3 374.86 45.3"/><polygon class="n" points="375.58 43.69 375.52 43.55 374.85 45.3 375.07 45.37 375.74 43.62 375.68 43.48 375.58 43.69"/><polygon class="n" points="375.36 43.41 375.2 43.49 375.58 43.68 375.68 43.48 375.31 43.28 375.14 43.34 375.36 43.41"/><polygon class="m" points="373.34 43.68 373.33 43.67 373.54 43.46 375.12 43.39 375.14 43.34 375.26 43.38 375.36 43.41 375.35 43.43 375.63 43.59 375.74 43.62 375.7 43.74 376.47 45.58 375.81 47.33 374.97 45.34 374.86 45.38 374.85 45.3 374.86 45.28 374.59 45.13 374.53 45.24 374.5 45.13 372.87 45.21 372.66 45.42 373.34 43.68"/><polygon class="n" points="375.71 47.3 375.92 47.29 375.08 45.29 374.86 45.38 375.71 47.38 375.92 47.37 375.7 47.29 375.71 47.3"/><polygon class="n" points="376.37 45.63 376.36 45.54 375.7 47.29 375.92 47.37 376.58 45.62 376.58 45.53 376.37 45.63"/><polygon class="n" points="375.74 43.62 375.52 43.63 376.37 45.63 376.58 45.53 375.73 43.54 375.52 43.55 375.74 43.62"/><polygon class="q" points="375.68 44.07 375.78 44.28 375.81 44.49 375.8 44.7 375.74 44.91 375.64 45.12 375.49 45.31 375.3 45.49 375.08 45.63 374.96 45.69 374.83 45.74 374.7 45.76 374.57 45.79 374.45 45.81 374.31 45.82 374.19 45.8 374.06 45.8 373.95 45.77 373.84 45.73 373.73 45.69 373.63 45.63 373.54 45.56 373.45 45.5 373.37 45.41 373.31 45.32 373.21 45.11 373.18 44.9 373.18 44.69 373.25 44.48 373.34 44.27 373.49 44.08 373.67 43.91 373.91 43.76 374.02 43.71 374.15 43.66 374.28 43.63 374.41 43.6 374.54 43.59 374.67 43.57 374.79 43.59 374.92 43.59 375.03 43.63 375.15 43.67 375.25 43.71 375.36 43.77 375.45 43.82 375.54 43.9 375.6 43.99 375.68 44.07"/><polygon class="n" points="375.76 44.42 375.86 44.63 375.89 44.85 375.88 45.06 375.83 45.26 375.73 45.47 375.57 45.67 375.4 45.83 375.16 45.98 375.04 46.04 374.92 46.09 374.79 46.12 374.65 46.15 374.53 46.16 374.41 46.17 374.28 46.16 374.15 46.14 374.04 46.12 373.92 46.08 373.82 46.03 373.71 45.97 373.62 45.92 373.54 45.85 373.46 45.77 373.39 45.67 373.29 45.47 373.26 45.26 373.27 45.04 373.33 44.84 373.42 44.62 373.57 44.43 373.75 44.26 373.99 44.12 374.12 44.05 374.23 44.01 374.37 43.97 374.5 43.95 374.62 43.94 374.75 43.92 374.87 43.94 375 43.95 375.11 43.98 375.23 44.02 375.33 44.06 375.45 44.11 375.53 44.17 375.62 44.24 375.69 44.33 375.76 44.43 375.76 44.42"/><polygon class="q" points="375.83 44.66 375.92 44.86 375.96 45.08 375.95 45.29 375.89 45.49 375.78 45.7 375.64 45.9 375.46 46.06 375.23 46.21 375.11 46.28 374.98 46.33 374.85 46.35 374.71 46.38 374.59 46.39 374.47 46.4 374.34 46.39 374.21 46.38 374.1 46.35 373.99 46.31 373.88 46.26 373.77 46.21 373.69 46.15 373.6 46.07 373.53 46 373.45 45.9 373.36 45.7 373.32 45.49 373.33 45.28 373.39 45.07 373.49 44.85 373.63 44.65 373.83 44.5 374.05 44.35 374.18 44.29 374.3 44.23 374.43 44.21 374.57 44.18 374.69 44.16 374.81 44.16 374.95 44.17 375.06 44.18 375.18 44.21 375.29 44.25 375.41 44.3 375.51 44.35 375.59 44.41 375.69 44.47 375.75 44.57 375.83 44.66"/><polygon class="n" points="375.91 45.01 376 45.21 376.04 45.42 376.04 45.63 375.97 45.85 375.88 46.05 375.72 46.24 375.55 46.42 375.31 46.56 375.2 46.62 375.06 46.67 374.93 46.7 374.81 46.73 374.67 46.74 374.55 46.76 374.43 46.74 374.3 46.73 374.18 46.71 374.06 46.67 373.96 46.62 373.86 46.56 373.77 46.5 373.69 46.43 373.61 46.35 373.54 46.25 373.45 46.05 373.4 45.84 373.42 45.63 373.47 45.41 373.58 45.21 373.73 45.01 373.91 44.84 374.14 44.7 374.26 44.64 374.38 44.59 374.52 44.57 374.65 44.54 374.77 44.52 374.9 44.52 375.03 44.52 375.14 44.53 375.26 44.55 375.38 44.59 375.49 44.64 375.59 44.7 375.68 44.77 375.77 44.83 375.85 44.91 375.9 45.02 375.91 45.01"/><polygon class="q" points="376.03 45.24 376.13 45.43 376.17 45.64 376.16 45.87 376.11 46.07 376 46.28 375.84 46.48 375.67 46.64 375.45 46.79 375.32 46.85 375.18 46.9 375.06 46.93 374.93 46.96 374.8 46.97 374.68 46.98 374.55 46.97 374.43 46.95 374.31 46.92 374.19 46.88 374.09 46.84 373.99 46.79 373.89 46.73 373.81 46.65 373.74 46.57 373.67 46.48 373.57 46.28 373.53 46.05 373.54 45.85 373.61 45.65 373.7 45.43 373.85 45.24 374.04 45.07 374.26 44.92 374.39 44.86 374.51 44.81 374.64 44.79 374.78 44.76 374.9 44.74 375.03 44.74 375.15 44.74 375.27 44.76 375.39 44.78 375.51 44.83 375.61 44.87 375.72 44.92 375.81 44.99 375.89 45.06 375.97 45.14 376.03 45.24"/><polygon class="n" points="376.13 45.59 376.21 45.79 376.26 46.01 376.25 46.21 376.19 46.42 376.09 46.62 375.94 46.82 375.75 46.99 375.52 47.14 375.4 47.2 375.27 47.24 375.14 47.27 375.02 47.3 374.89 47.32 374.76 47.33 374.64 47.32 374.51 47.31 374.4 47.28 374.27 47.24 374.17 47.2 374.07 47.14 373.98 47.07 373.89 47.01 373.82 46.92 373.75 46.83 373.66 46.62 373.61 46.41 373.62 46.2 373.69 45.99 373.79 45.79 373.93 45.59 374.12 45.42 374.36 45.27 374.47 45.22 374.6 45.17 374.73 45.14 374.85 45.11 374.99 45.1 375.11 45.08 375.24 45.1 375.35 45.1 375.48 45.13 375.6 45.17 375.7 45.22 375.8 45.27 375.89 45.34 375.98 45.4 376.05 45.49 376.13 45.59"/><polygon class="n" points="364.49 42.9 364.51 42.83 363.84 44.59 364.05 44.66 364.72 42.9 364.72 42.85 364.49 42.9"/><polygon class="n" points="364.48 42.81 364.48 42.8 364.49 42.9 364.72 42.85 364.7 42.75 364.7 42.74 364.48 42.81"/><polygon class="n" points="364.45 42.71 364.48 42.81 364.7 42.74 364.67 42.64 364.45 42.71"/><polygon class="n" points="364.43 42.61 364.45 42.71 364.67 42.64 364.64 42.55 364.43 42.61"/><polygon class="n" points="364.4 42.51 364.4 42.51 364.43 42.61 364.64 42.55 364.62 42.44 364.62 42.46 364.4 42.51"/><polygon class="n" points="364.38 42.39 364.38 42.42 364.4 42.51 364.62 42.46 364.59 42.37 364.6 42.4 364.38 42.39"/><polygon class="n" points="364.6 42.34 364.38 42.3 364.38 42.39 364.6 42.4 364.61 42.32 364.38 42.28 364.59 42.35 364.6 42.34"/><polygon class="t" points="364.79 47.47 364.77 47.35 364.53 47.39 364.55 47.51 364.79 47.47"/><polygon class="n" points="365.28 46 365.29 45.94 364.62 47.69 364.83 47.76 365.5 46.01 365.49 45.95 365.28 46"/><polygon class="n" points="365.26 45.88 365.28 46 365.49 45.95 365.48 45.83 365.25 45.87 365.26 45.88"/><polygon class="n" points="365.23 45.76 365.25 45.87 365.48 45.83 365.44 45.71 365.23 45.76"/><polygon class="n" points="365.2 45.63 365.21 45.65 365.23 45.76 365.44 45.71 365.43 45.59 365.44 45.61 365.2 45.63"/><polygon class="n" points="365.41 45.53 365.19 45.5 365.2 45.63 365.44 45.61 365.42 45.48 365.19 45.45 365.41 45.53"/><path class="s" d="M363.84,44.24l-.11,.03,.11-.03Z"/><polygon class="s" points="363.95 44.61 363.95 44.6 364.01 44.6 364.05 44.66 363.95 44.63 363.95 44.61"/><polygon class="m" points="363.71 44.17 363.82 44.15 363.82 44.07 364.49 42.31 364.49 42.32 364.49 42.39 364.51 42.48 364.54 42.58 364.57 42.67 364.59 42.78 364.61 42.86 364.72 42.9 364.05 44.66 364.01 44.6 363.95 44.6 363.95 44.61 363.95 44.63 364.05 44.66 363.95 44.65 363.95 44.73 363.89 44.65 363.83 44.65 363.81 44.55 363.86 44.54 363.9 44.43 363.79 44.45 363.75 44.38 363.73 44.27 363.84 44.24 363.73 44.27 363.74 44.26 363.71 44.17"/><polygon class="m" points="363.95 44.51 368.85 44.35 368.97 44.36 368.99 44.36 369.11 44.39 369.13 44.4 369.25 44.44 369.37 44.49 369.38 44.49 369.5 44.57 369.52 44.57 369.61 44.65 369.64 44.67 369.71 44.75 369.71 44.77 369.76 44.84 369.76 44.87 369.55 44.93 369.51 44.88 369.51 44.89 369.46 44.81 369.46 44.81 369.38 44.75 369.4 44.77 369.28 44.7 369.28 44.7 369.15 44.65 369.05 44.62 368.93 44.59 368.95 44.6 368.84 44.58 368.84 44.57 363.95 44.73 363.95 44.51"/><polygon class="m" points="369.54 44.93 369.55 44.93 369.56 44.95 369.54 44.93"/><polygon class="n" points="372.16 49.05 372.16 48.97 371.49 50.73 371.71 50.81 372.38 49.05 372.38 48.98 372.16 49.05"/><polygon class="n" points="370.22 43.2 370.21 43.17 372.16 49.05 372.38 48.98 370.43 43.11 370.43 43.08 370.22 43.2"/><polygon class="n" points="370.19 43.14 370.18 43.13 370.22 43.2 370.43 43.08 370.38 43.01 370.37 43.01 370.17 43.14 370.19 43.14"/><polygon class="n" points="370.14 43.07 370.12 43.05 370.17 43.14 370.37 43 370.3 42.91 370.28 42.89 370.14 43.07"/><polygon class="n" points="370.06 43.02 370.04 43 370.14 43.07 370.28 42.89 370.19 42.82 370.17 42.81 370.06 43.02"/><polygon class="n" points="369.96 42.95 369.95 42.94 370.06 43.02 370.17 42.81 370.05 42.74 370.04 42.74 369.96 42.95"/><polygon class="n" points="369.85 42.9 369.82 42.9 369.96 42.95 370.04 42.74 369.92 42.69 369.9 42.68 369.83 42.91 369.85 42.9"/><polygon class="n" points="369.72 42.86 369.7 42.86 369.83 42.91 369.91 42.68 369.78 42.64 369.71 42.87 369.72 42.86"/><polygon class="n" points="369.62 42.84 369.6 42.83 369.71 42.87 369.78 42.64 369.65 42.61 369.64 42.61 369.62 42.84"/><polygon class="n" points="369.51 42.82 369.5 42.83 369.62 42.84 369.64 42.61 369.51 42.59 369.5 42.6 369.51 42.82"/><polygon class="n" points="364.73 42.9 364.61 42.98 369.51 42.82 369.5 42.6 364.61 42.76 364.51 42.83 364.72 42.9 364.73 42.9"/><polygon class="s" points="365.96 48.25 365.94 48.25 365.95 48.24 365.96 48.25"/><path class="s" d="M368.6,49.05l-.02,.23,.02-.23Z"/><path class="m" d="M364.55,47.51l.02,.12,.04,.12,.05,.09,.3,.16,.3,.16,.29,.15,.29,.14h.01l.3,.14,.29,.13,.32,.13,.32,.12h0l.35,.1,.34,.09h0l.38,.06,.39,.06h0l.43,.03h.96l.51-.04,.11-.07,.66-1.75-.11-.15v.23l-.03-.05,.03-.06h-.07l-.03-.04v.04l-.4,.02h-.95l-.42-.03-.4-.06-.38-.06-.35-.09-.35-.09-.32-.12-.31-.11-.3-.13-.29-.14-.3-.15-.29-.16-.29-.16-.2-.11v-.02l-.1-.04-.03-.12-.02-.11v-.04l.07-.17-.11-.04h0l-.11-.04-.66,1.75v.18l.02,.13Zm.08-.27v.02h0v-.02Z"/><polygon class="n" points="370.63 47.55 371.14 47.52 371.14 47.3 370.62 47.32 370.63 47.55"/><polygon class="n" points="370.14 47.56 370.63 47.55 370.62 47.32 370.14 47.34 370.14 47.56"/><polygon class="n" points="369.68 47.55 369.69 47.55 370.14 47.56 370.14 47.34 369.68 47.33 369.69 47.32 369.68 47.56 369.68 47.55"/><polygon class="n" points="369.24 47.52 369.25 47.52 369.68 47.56 369.69 47.32 369.27 47.29 369.28 47.3 369.24 47.52"/><polygon class="n" points="368.85 47.47 369.24 47.52 369.28 47.3 368.89 47.24 368.85 47.47"/><polygon class="n" points="368.46 47.4 368.47 47.4 368.85 47.47 368.89 47.24 368.5 47.18 368.51 47.18 368.46 47.4"/><polygon class="n" points="368.12 47.31 368.46 47.4 368.51 47.18 368.17 47.09 368.11 47.32 368.12 47.31"/><polygon class="n" points="367.76 47.23 367.77 47.23 368.11 47.32 368.17 47.09 367.82 47 367.83 47 367.76 47.23"/><polygon class="n" points="367.43 47.11 367.43 47.11 367.76 47.23 367.83 47 367.51 46.88 367.52 46.89 367.42 47.1 367.43 47.11"/><polygon class="n" points="367.11 46.98 367.42 47.1 367.52 46.89 367.21 46.76 367.11 46.98"/><polygon class="n" points="366.82 46.84 367.11 46.98 367.21 46.76 366.91 46.63 366.82 46.84"/><polygon class="n" points="366.51 46.69 366.52 46.71 366.82 46.84 366.91 46.63 366.61 46.49 366.62 46.49 366.51 46.7 366.51 46.69"/><polygon class="n" points="366.22 46.55 366.51 46.7 366.62 46.49 366.33 46.35 366.22 46.56 366.22 46.55"/><polygon class="n" points="365.93 46.39 366.22 46.56 366.33 46.35 366.04 46.19 365.92 46.39 365.93 46.39"/><polygon class="n" points="365.64 46.24 365.92 46.39 366.04 46.19 365.75 46.04 365.64 46.24"/><polygon class="n" points="365.5 46.01 365.33 46.08 365.64 46.24 365.75 46.04 365.45 45.88 365.29 45.94 365.5 46.01"/><polygon class="n" points="396 42.84 395.33 44.6 397.51 45.33 398.02 44.16 398.04 44.05 398.04 43.93 398.02 43.81 397.98 43.69 397.91 43.59 397.85 43.47 397.76 43.36 397.66 43.26 397.57 43.16 397.46 43.07 397.35 42.99 397.24 42.92 397.13 42.86 397.01 42.8 396.9 42.74 396.79 42.71 396.7 42.67 396.59 42.66 396.48 42.65 396.38 42.66 396.29 42.68 396.18 42.71 396.09 42.78 396 42.84"/><polygon class="n" points="397.42 45.27 397.55 45.21 395.37 44.49 395.29 44.71 397.48 45.44 397.63 45.38 397.42 45.27"/><polygon class="m" points="363.71 44.07 363.72 44.03 364.38 42.28 364.59 42.35 363.95 44.08 363.94 44.15 363.93 44.13 363.71 44.17 363.7 44.15 363.71 44.07"/><polygon class="s" points="374.42 48.21 374.38 48.23 374.38 48.23 374.42 48.21"/><path class="m" d="M363.79,44.45l.03,.1h0l.17-.05-.04,.12,4.9-.16h.12l.13,.05,.13,.04,.13,.04,.12,.07,.09,.07,.07,.08,.04,.08-.12,.03,1.95,5.87h.11v.08h.5l.14-.02,.14-.04,.14-.07,.13-.11,.15-.15h0l.09-.13,.1-.13,.12-.14,.08-.14,.1-.16,.11-.14,.09-.16,.11-.16,.09-.13,.13-.14,.11-.14,.12-.12,.11-.12,.12-.1,.11-.09,.13-.07h.03l-.08-.09,.08,.08,.13-.14,.12-.11,.11-.11,.11-.09,.11-.08,.12-.07,.1-.06,.11-.06,.12-.03,.13-.05,.12-.03,.15-.02,.16-.03h.18l.19-.03h.2l21.14-1.58,.13-.02,.11-.02,.1-.02,.1-.04,.1-.05,.1-.06,.08-.08,.1-.08,.02-.03,.37-.86-.19-.12,.08,.08h-.01l-.09-.06-.09,.22-.06,.04-.08,.03-.09,.04-.09,.02-.11,.02-.11,.02-21.15,1.58-.14,.02h-.26l-.14,.03h-.14l-.12,.02h-.14l-.12,.03-.14,.02-.12,.02-.13,.03-.14,.04-.13,.03-.13,.05-.13,.05-.13,.06-.25,.15-.25,.23-.27,.28-.25,.31-.25,.33-.21,.29-.21,.28-.18,.21-.1,.02-.09,.02h-.63l-1.94-5.87-.04-.08-.07-.08-.09-.07-.13-.08-.12-.05-.13-.04-.12-.03h-.12l-4.89,.15-.59,1.55v-.02l-.24,.06Zm35.17,.16h0l.08,.06-.09-.06Z"/><polygon class="n" points="398.22 45.05 398.34 45.02 398.46 45 398.56 44.98 398.67 44.94 398.77 44.89 398.87 44.83 398.95 44.77 399.04 44.68 398.88 44.52 398.8 44.6 398.73 44.65 398.65 44.7 398.57 44.73 398.49 44.76 398.4 44.78 398.3 44.8 398.19 44.81 398.22 45.05"/><polygon class="n" points="377.08 46.62 398.22 45.05 398.19 44.81 377.06 46.38 377.08 46.62"/><polygon class="n" points="375.01 46.99 375.13 46.94 375.26 46.9 375.4 46.86 375.52 46.81 375.65 46.77 375.77 46.75 375.9 46.74 376.03 46.71 376.14 46.69 376.28 46.69 376.41 46.67 376.54 46.66 376.68 46.65 376.79 46.64 376.94 46.63 377.08 46.62 377.06 46.38 376.92 46.4 376.79 46.41 376.65 46.41 376.51 46.43 376.39 46.43 376.26 46.46 376.13 46.46 375.98 46.48 375.86 46.5 375.73 46.53 375.59 46.56 375.45 46.59 375.33 46.63 375.19 46.68 375.04 46.73 374.92 46.79 375.01 46.99"/><polygon class="n" points="373.12 49.09 373.16 49.05 373.26 48.95 373.34 48.83 373.44 48.7 373.55 48.56 373.67 48.41 373.78 48.26 373.9 48.1 374.03 47.95 374.15 47.78 374.28 47.63 374.41 47.5 374.54 47.35 374.65 47.24 374.79 47.14 374.9 47.05 375.01 46.99 374.92 46.79 374.77 46.87 374.65 46.96 374.5 47.07 374.37 47.2 374.24 47.34 374.12 47.47 373.98 47.65 373.85 47.8 373.73 47.96 373.6 48.12 373.5 48.27 373.38 48.42 373.27 48.56 373.17 48.69 373.08 48.8 373 48.9 373.05 48.87 373.12 49.09"/><polygon class="q" points="369.07 42.72 369.51 42.72 369.54 42.72 365.79 41.46 365.61 41.58 369.07 42.73 369.07 42.72"/><polygon class="q" points="369.07 42.72 364.61 42.86 364.59 42.78 364.57 42.67 364.54 42.58 364.51 42.48 364.49 42.39 364.49 42.32 364.52 42.23 364.59 42.18 364.78 42.05 364.98 41.93 365.18 41.81 365.39 41.69 365.58 41.57 365.61 41.58 369.07 42.73 369.07 42.72"/><polygon class="p" points="366.36 45.43 369.4 45.26 370.58 45.74 371 46.98 371.13 47.41 370.63 47.44 370.14 47.44 369.68 47.43 369.27 47.41 368.86 47.36 368.49 47.29 368.14 47.2 367.79 47.11 367.47 46.99 367.16 46.87 366.86 46.74 366.57 46.59 366.27 46.45 365.98 46.29 365.69 46.13 365.39 45.98 365.36 45.85 365.34 45.74 365.32 45.61 365.3 45.49 366.36 45.43"/><polygon class="q" points="374.01 45.78 374.05 45.83 374.44 46.06 374.57 45.86 374.18 45.63 374.22 45.69 374.01 45.78 374.02 45.81 374.05 45.83 374.01 45.78"/><polygon class="q" points="370.54 45.85 370.47 45.77 371.03 47.45 371.25 47.38 370.69 45.7 370.63 45.64 370.69 45.7 370.67 45.65 370.63 45.64 370.54 45.85"/><polygon class="q" points="369.41 45.37 369.35 45.36 370.54 45.85 370.63 45.64 369.45 45.15 369.4 45.14 369.45 45.15 369.42 45.14 369.4 45.14 369.41 45.37"/><polygon class="q" points="365.42 45.48 365.3 45.61 369.41 45.37 369.4 45.14 365.3 45.38 365.19 45.5 365.3 45.38 365.17 45.38 365.19 45.5 365.42 45.48"/><polygon class="q" points="365.45 45.88 365.49 45.95 365.49 45.89 365.48 45.83 365.47 45.77 365.46 45.72 365.45 45.66 365.44 45.59 365.42 45.54 365.42 45.48 365.19 45.5 365.19 45.57 365.2 45.64 365.22 45.7 365.22 45.75 365.24 45.81 365.25 45.87 365.28 45.94 365.28 46 365.33 46.08 365.28 46 365.3 46.05 365.33 46.08 365.45 45.88"/><polygon class="q" points="371.03 47.44 371.12 47.29 370.62 47.32 370.14 47.34 369.69 47.32 369.27 47.29 368.89 47.24 368.51 47.18 368.17 47.09 367.83 47 367.51 46.88 367.21 46.76 366.91 46.63 366.62 46.49 366.33 46.35 366.04 46.19 365.75 46.04 365.45 45.88 365.33 46.08 365.64 46.24 365.92 46.39 366.22 46.56 366.51 46.7 366.82 46.84 367.11 46.98 367.43 47.11 367.76 47.23 368.11 47.32 368.46 47.4 368.85 47.47 369.25 47.52 369.68 47.56 370.14 47.56 370.63 47.55 371.15 47.53 371.25 47.38 371.15 47.53 371.3 47.51 371.25 47.38 371.03 47.45 371.03 47.44"/><polygon class="q" points="377.06 46.38 376.91 46.39 376.73 46.42 376.58 46.42 376.41 46.44 376.24 46.47 376.07 46.49 375.9 46.52 375.74 46.56 375.57 46.59 375.42 46.64 375.27 46.69 375.12 46.75 374.99 46.81 374.84 46.88 374.72 46.97 374.61 47.06 374.75 47.23 374.85 47.15 374.96 47.08 375.08 47.02 375.21 46.97 375.34 46.89 375.48 46.86 375.65 46.82 375.79 46.77 375.95 46.75 376.09 46.72 376.26 46.71 376.42 46.68 376.59 46.65 376.76 46.64 376.92 46.62 377.08 46.62 377.06 46.38"/><polygon class="q" points="398.19 44.81 377.06 46.38 377.08 46.62 398.22 45.05 398.19 44.81"/><polygon class="q" points="398.59 43.52 398.68 43.64 398.77 43.76 398.81 43.87 398.88 43.99 398.91 44.1 398.92 44.21 398.93 44.3 398.92 44.39 398.89 44.47 398.86 44.54 398.81 44.6 398.73 44.67 398.65 44.71 398.51 44.76 398.37 44.8 398.19 44.81 398.22 45.05 398.41 45.03 398.58 44.98 398.73 44.93 398.86 44.85 398.98 44.77 399.06 44.66 399.11 44.56 399.15 44.43 399.15 44.3 399.16 44.18 399.13 44.05 399.08 43.91 399.03 43.78 398.96 43.64 398.87 43.49 398.78 43.38 398.59 43.52"/><polygon class="q" points="396.07 42.31 396.26 42.31 396.45 42.32 396.65 42.37 396.84 42.4 397.02 42.45 397.2 42.52 397.37 42.6 397.53 42.67 397.7 42.77 397.86 42.86 398.02 42.97 398.14 43.06 398.27 43.18 398.39 43.3 398.49 43.41 398.59 43.52 398.78 43.38 398.67 43.25 398.54 43.13 398.42 43.01 398.28 42.89 398.13 42.78 397.98 42.67 397.83 42.57 397.65 42.47 397.47 42.38 397.28 42.31 397.09 42.24 396.89 42.17 396.69 42.13 396.49 42.1 396.26 42.08 396.06 42.09 396.07 42.31"/><polygon class="q" points="377.37 42.96 396.07 42.31 396.06 42.09 377.37 42.74 377.37 42.96"/><polygon class="q" points="374.42 42.49 374.59 42.56 374.78 42.6 374.96 42.66 375.14 42.7 375.34 42.74 375.52 42.79 375.73 42.82 375.9 42.84 376.09 42.88 376.28 42.9 376.47 42.93 376.66 42.93 376.84 42.96 377.03 42.95 377.2 42.96 377.37 42.96 377.37 42.74 377.19 42.74 377.02 42.73 376.86 42.72 376.68 42.7 376.5 42.69 376.31 42.67 376.13 42.65 375.94 42.62 375.76 42.58 375.58 42.56 375.39 42.51 375.2 42.48 375.02 42.43 374.83 42.38 374.67 42.34 374.48 42.28 374.41 42.5 374.42 42.49"/><polygon class="q" points="368.11 40.76 368.43 40.71 368.73 40.69 369.02 40.66 369.28 40.65 369.53 40.63 369.76 40.66 369.99 40.67 370.18 40.69 370.38 40.72 370.57 40.76 370.75 40.8 370.9 40.85 371.07 40.9 371.21 40.96 371.37 41.03 371.5 41.09 371.66 41.17 371.8 41.24 371.95 41.32 372.1 41.41 372.25 41.49 372.4 41.59 372.55 41.67 372.72 41.77 372.9 41.85 373.08 41.96 373.27 42.04 373.47 42.14 373.68 42.23 373.91 42.31 374.16 42.42 374.41 42.5 374.48 42.28 374.23 42.19 373.98 42.1 373.77 42.02 373.56 41.93 373.36 41.83 373.18 41.75 373.01 41.64 372.83 41.56 372.67 41.47 372.51 41.38 372.36 41.3 372.21 41.2 372.06 41.11 371.91 41.04 371.75 40.97 371.62 40.88 371.47 40.81 371.3 40.74 371.15 40.68 370.98 40.63 370.8 40.56 370.61 40.53 370.42 40.5 370.21 40.45 370 40.43 369.78 40.42 369.52 40.42 369.28 40.42 368.99 40.43 368.7 40.45 368.4 40.49 368.08 40.52 368.1 40.75 368.11 40.76"/><polygon class="q" points="364.65 42.28 364.84 42.15 365.04 42.04 365.25 41.91 365.45 41.79 365.64 41.67 365.86 41.56 366.06 41.45 366.27 41.35 366.49 41.25 366.71 41.15 366.93 41.06 367.15 40.98 367.39 40.92 367.62 40.85 367.86 40.79 368.1 40.75 368.08 40.53 367.81 40.58 367.57 40.62 367.32 40.69 367.08 40.76 366.85 40.86 366.61 40.94 366.4 41.03 366.17 41.13 365.95 41.24 365.74 41.36 365.53 41.47 365.33 41.59 365.12 41.71 364.92 41.83 364.73 41.95 364.54 42.08 364.64 42.28 364.65 42.28"/><polygon class="q" points="364.61 42.76 364.73 42.86 364.7 42.75 364.67 42.64 364.64 42.55 364.62 42.44 364.61 42.38 364.6 42.34 364.62 42.29 364.64 42.28 364.54 42.08 364.43 42.17 364.38 42.3 364.37 42.41 364.4 42.51 364.43 42.61 364.45 42.71 364.48 42.8 364.5 42.89 364.61 42.98 364.5 42.89 364.5 42.98 364.61 42.98 364.61 42.76"/><polygon class="p" points="373.25 43.59 373.25 43.6 373.25 43.6 373.25 43.59"/><polygon class="p" points="373.2 43.64 373.25 43.6 373.22 43.72 373.2 43.64"/><polygon class="p" points="376.35 44.99 380.2 46.27 379.79 46.3 379.78 46.31 376.43 45.19 376.35 44.99"/><path class="p" d="M364.61,42.98l4.9-.16h.1l.09,.04,.12,.04,.12,.04,.11,.07,.08,.05,.05,.07,.04,.04,1.95,5.87,.03,.09h.09l.1-.02,.11,.02h.39l.12-.02,.13-.04,.11-.07,.12-.13,.11-.14,.1-.12,.1-.12,.08-.11,.08-.1,.07-.11,.08-.11,.07-.11,.08-.1,.08-.1,.09-.09,.09-.1,.1-.1,.11-.11,.13-.12-.07-.09,.11-.09,.12-.08,.14-.06,.13-.06,.14-.06,.15-.04,.16-.05,.15-.04,.15-.02,.16-.03,.17-.02,.16-.03h.17l.17-.03,.16-.02h.16l2.71-.2-3.35-1.12-.09-.21,3.86,1.29,18.01-1.35,.33-.05,.25-.11,.17-.16,.06-.19v-.21h0l-.06-.25-.12-.24-.17-.26-.1-.12-.11-.12-.12-.12-.13-.1-.14-.12-.15-.1-.17-.1-.16-.1-.18-.07-.17-.08-.19-.06-.2-.07-.19-.03-.2-.04-.2-.02h-.2l-2.72,.11-15.97,.55h-.53l-.18-.03h-.18l-.18-.03-.18-.02-.19-.03-.19-.03-.19-.04-.19-.04-.19-.04-.19-.05-.19-.05-.17-.04-.18-.06-.25-.08-.25-.09-.22-.09-.22-.08-.19-.1-.18-.08-.19-.1-.17-.08-.16-.1-.15-.09-.16-.09-.15-.08-.16-.09-.15-.09-.14-.07-.15-.09-.15-.07-.15-.06-.15-.05-.17-.06-.18-.06-.17-.05-.19-.03-.2-.03-.2-.02-.23-.02h-.75l-.29,.04-.3,.03-.33,.04-.25,.03-.24,.06-.24,.06-.23,.08-.24,.08-.23,.09-.21,.09-.22,.1-.21,.11-.22,.12,3.42,1.14-4.6,.15v.22Zm31.32,.1l.02-.14,.05-.1,.08-.08,.12-.06,.15-.02h.17l.09,.03,.09,.02,.11,.04,.1,.03,.1,.04,.11,.06,.09,.04,.09,.07,.08,.06,.09,.08,.09,.07,.07,.08,.08,.07,.07,.08,.12,.16,.07,.16,.03,.08,.02,.05v.14l-.04,.11-.08,.09-.11,.06-.15,.03h-.17l-.1-.02-.11-.02-.1-.03-.11-.04-.11-.05-.1-.06-.1-.04-.11-.06-.1-.07-.09-.08-.08-.06-.09-.09-.08-.09-.07-.08-.11-.16-.06-.16-.02-.05-.02-.09Zm-19.47,2.49h0l-.08-.06,.08,.06Zm-3-1.86l.12-.12,1.61-.09,.34,.18,.81,1.9-.12,.16-1.73,.12h.08l-.06,.11h0l-.38-.22h0l.1-.05-.75-1.98Z"/><polygon class="n" points="394.84 44.3 394.75 44.24 394.73 44.15 394.87 44.12 394.9 44.21 394.81 44.15 394.84 44.3"/><polygon class="n" points="395.04 44.19 395.01 44.21 394.98 44.25 394.94 44.27 394.89 44.29 394.84 44.3 394.81 44.15 394.83 44.15 394.86 44.13 394.9 44.12 394.91 44.11 394.9 44.13 395.03 44.2 395.04 44.19"/><polygon class="n" points="394.64 43.3 394.65 43.3 394.71 43.39 394.8 43.48 394.89 43.57 394.97 43.68 395.04 43.8 395.07 43.93 395.07 44.07 395.03 44.2 394.9 44.13 394.93 44.04 394.92 43.96 394.9 43.86 394.83 43.77 394.76 43.66 394.69 43.58 394.6 43.49 394.53 43.41 394.54 43.41 394.64 43.3"/><polygon class="n" points="393.34 42.93 393.33 42.92 393.52 42.93 393.7 42.93 393.86 42.96 394.02 42.98 394.18 43.02 394.33 43.09 394.49 43.18 394.64 43.3 394.54 43.41 394.4 43.31 394.26 43.24 394.13 43.17 393.99 43.13 393.83 43.1 393.68 43.09 393.52 43.08 393.35 43.08 393.35 43.07 393.33 42.93 393.34 42.93"/><polygon class="n" points="379.61 43.65 379.67 43.61 393.33 42.93 393.35 43.07 379.69 43.76 379.75 43.72 379.61 43.65"/><polygon class="n" points="379.29 44.13 379.14 44.08 379.15 43.98 379.18 43.89 379.22 43.8 379.28 43.74 379.35 43.69 379.45 43.65 379.55 43.62 379.67 43.61 379.69 43.76 379.58 43.78 379.48 43.8 379.43 43.81 379.38 43.85 379.36 43.89 379.32 43.94 379.3 44 379.3 44.09 379.15 44.04 379.29 44.13"/><polygon class="m" points="394.76 44.07 394.72 44.01 394.67 43.95 394.63 43.89 394.58 43.83 394.53 43.77 394.47 43.72 394.43 43.66 394.28 43.55 394.14 43.45 394 43.39 393.85 43.35 393.69 43.34 393.52 43.3 393.36 43.3 393.18 43.3 379.52 43.98 379.64 43.77 379.68 43.77 379.69 43.76 393.35 43.07 393.58 43.09 393.77 43.08 393.95 43.11 394.12 43.14 394.27 43.21 394.41 43.29 394.53 43.41 394.68 43.57 394.8 43.72 394.89 43.87 394.94 43.98 394.94 44.05 394.91 44.11 394.82 44.16 394.81 44.16 394.8 44.14 394.76 44.07"/><path class="m" d="M379.14,44.08v.13l.04,.09,.04,.13,.09,.15,.11,.12,.15,.13,.17,.12,.19,.09,.21,.06h.25l14.04-.71,.27-.03,.19-.04,.14-.1,.08-.12v-.13l-.05-.16-.1-.15-.14-.17-.14-.17-.15-.13-.17-.1-.16-.08-.17-.03-.21-.04h-.45l-13.66,.69h-.15l-.14,.07-.1,.08-.07,.1-.04,.1-.03,.12Zm.16,.02l.02-.09h.09l.12-.02,.11-.21h.06l13.66-.7,.23,.02h.19l.18,.02,.16,.03,.15,.07,.14,.08,.13,.11,.14,.17,.13,.15,.09,.15,.05,.11v.07l-.03,.06-.09,.05h-.01l-.15,.04-.23,.03-14.04,.72h-.21l-.19-.06-.17-.08-.15-.09-.12-.12-.09-.12-.08-.12-.06-.1v-.08l-.02-.08Z"/></g></g></g></svg>