<svg id="a" xmlns="http://www.w3.org/2000/svg" viewBox="0 0 975 1575" width="975" height="1575"><g transform="translate(0, 676.8096130315081) scale(7.456408687672072)"><defs><style>.c{stroke-dasharray:0 0 5.14 5.14;}.c,.d,.e{stroke:#00aced;stroke-miterlimit:10;stroke-width:2px;}.c,.d,.e,.f,.g,.h{fill:none;}.d{stroke-dasharray:0 0 5.14 5.14;}.i,.j,.k,.l{font-size:7px;}.i,.j,.k,.l,.m{font-family:Arial-BoldMT, Arial;}.i,.m,.n{fill:#231f20;}.j{fill:red;}.k{fill:#ed2224;}.l{fill:#2ca1da;}.o{letter-spacing:0em;}.p{letter-spacing:.05em;}.q{letter-spacing:.01em;}.r{letter-spacing:-.02em;}.s{letter-spacing:-.02em;}.t{fill:#e6e5e5;}.u,.v{fill:#fff;}.w{fill:#e7242c;}.x,.y{fill:#4c4849;}.n,.a`{font-family:Arial-Black, Arial Black;font-size:8px;}.a`{fill:#221f1f;}.aa{letter-spacing:-.02em;}.ab{letter-spacing:-.04em;}.ac{letter-spacing:-.04em;}.ad{letter-spacing:-.07em;}.ae{font-size:7.79px;}.af{letter-spacing:-.06em;}.ag{letter-spacing:-.06em;}.f{stroke:#2ba3dc;stroke-dasharray:0 5;}.g{stroke-dasharray:0 0 20 .07;}.g,.h{stroke:red;}.ah{font-size:5.46px;}.y,.ai,.v,.aj{fill-rule:evenodd;}.ai{fill:#b6d233;}</style></defs><line class="h" x1="29.76" y1="53.51" x2="234" y2="53.51"/><path class="w" d="M35.98,45.59c0,.38-.18,.76-.52,1.12l-.05,.06-3.04,3.2c-.65,.67-1.2,1.2-1.65,1.57-.45,.36-.78,.55-.96,.55-.2,0-.44-.09-.74-.28-.29-.19-.48-.38-.57-.57-.07-.16-.14-.51-.2-1.05-.07-.52-.1-1.1-.1-1.72,0-.34,.14-.65,.43-.94,.28-.29,.59-.43,.93-.43s.52,.3,.58,.89c0,.07,.02,.12,.02,.15,.05,.46,.12,.77,.18,.95,.07,.18,.16,.27,.28,.27,.05,0,.14-.06,.27-.16,.14-.11,.3-.25,.48-.44l3.12-3.09c.26-.26,.49-.46,.71-.59,.21-.13,.38-.2,.53-.2,.11,0,.18,.04,.23,.12,.04,.08,.07,.22,.07,.41v.16Z"/><g><line class="f" x1="224.59" y1="126.88" x2="222.21" y2="126.88"/><line class="f" x1="217.55" y1="126.88" x2="33.73" y2="126.88"/><line class="f" x1="31.4" y1="126.88" x2="29.02" y2="126.88"/></g><line class="g" x1="29.02" y1="186.53" x2="206.73" y2="186.53"/><path class="w" d="M35.98,179.56c0,.38-.18,.76-.52,1.12l-.05,.06-3.04,3.2c-.65,.67-1.2,1.2-1.65,1.57-.45,.36-.78,.55-.96,.55-.2,0-.44-.09-.74-.28-.29-.19-.48-.38-.57-.57-.07-.16-.14-.51-.2-1.05-.07-.52-.1-1.1-.1-1.72,0-.34,.14-.65,.43-.94,.28-.29,.59-.43,.93-.43s.52,.3,.58,.89c0,.07,.02,.12,.02,.15,.05,.46,.12,.77,.18,.95,.07,.18,.16,.27,.28,.27,.05,0,.14-.06,.27-.16,.14-.11,.3-.25,.48-.44l3.12-3.09c.26-.26,.49-.46,.71-.59,.21-.13,.38-.2,.53-.2,.11,0,.18,.04,.23,.12,.04,.08,.07,.22,.07,.41v.16Z"/><path class="w" d="M35.98,119.85c0,.38-.18,.76-.52,1.12l-.05,.06-3.04,3.2c-.65,.67-1.2,1.2-1.65,1.57-.45,.36-.78,.55-.96,.55-.2,0-.44-.09-.74-.28-.29-.19-.48-.38-.57-.57-.07-.16-.14-.51-.2-1.05-.07-.52-.1-1.1-.1-1.72,0-.34,.14-.65,.43-.94,.28-.29,.59-.43,.93-.43s.52,.3,.58,.89c0,.07,.02,.12,.02,.15,.05,.46,.12,.77,.18,.95,.07,.18,.16,.27,.28,.27,.05,0,.14-.06,.27-.16,.14-.11,.3-.25,.48-.44l3.12-3.09c.26-.26,.49-.46,.71-.59,.21-.13,.38-.2,.53-.2,.11,0,.18,.04,.23,.12,.04,.08,.07,.22,.07,.41v.16Z"/><line class="h" x1="29.76" y1="73.82" x2="197.98" y2="73.82"/><path class="w" d="M35.98,65.9c0,.38-.18,.76-.52,1.12l-.05,.06-3.04,3.2c-.65,.67-1.2,1.2-1.65,1.57-.45,.36-.78,.55-.96,.55-.2,0-.44-.09-.74-.28-.29-.19-.48-.38-.57-.57-.07-.16-.14-.51-.2-1.05-.07-.52-.1-1.1-.1-1.72,0-.34,.14-.65,.43-.94,.28-.29,.59-.43,.93-.43s.52,.3,.58,.89c0,.07,.02,.12,.02,.15,.05,.46,.12,.77,.18,.95,.07,.18,.16,.27,.28,.27,.05,0,.14-.06,.27-.16,.14-.11,.3-.25,.48-.44l3.12-3.09c.26-.26,.49-.46,.71-.59,.21-.13,.38-.2,.53-.2,.11,0,.18,.04,.23,.12,.04,.08,.07,.22,.07,.41v.16Z"/><g id="b"><g><polyline class="e" points="225 366.43 225 369 222.43 369"/><line class="d" x1="217.29" y1="369" x2="14.14" y2="369"/><polyline class="e" points="11.57 369 9 369 9 366.43"/><line class="c" x1="9" y1="361.29" x2="9" y2="14.14"/><polyline class="e" points="9 11.57 9 9 11.57 9"/><line class="d" x1="16.71" y1="9" x2="219.86" y2="9"/><polyline class="e" points="222.43 9 225 9 225 11.57"/><line class="c" x1="225" y1="16.71" x2="225" y2="363.86"/></g></g><g><rect class="t" x="88.23" y="14.14" width="130.76" height="29.69"/><g><path class="aj" d="M118.94,28.96c0,7.39-5.99,13.39-13.37,13.39s-13.37-5.99-13.37-13.39,5.99-13.39,13.37-13.39,13.37,5.99,13.37,13.39"/><path class="ai" d="M117.74,29.03c0,6.72-5.45,12.17-12.16,12.17s-12.16-5.45-12.16-12.17,5.44-12.17,12.16-12.17,12.16,5.45,12.16,12.17"/><path d="M102.97,26.38c-.17,1.49-.29,2.69-.38,3.59l-.56,.02s.01-.06,.01-.1c0-.07-.02-.16-.08-.27-.05-.11-.08-.18-.08-.21-.14,.02-.28,.12-.41,.3-.13,.18-.25,.27-.35,.26-.06,0-.13-.02-.2-.05-.1,.07-.23,.09-.38,.08-.14-.03-.28-.05-.42-.06,0-.19-.19-.35-.56-.5,0-.08-.04-.19-.11-.34-.08-.15-.12-.25-.12-.31,0-.07,.03-.12,.08-.17,0-.02-.07-.16-.18-.42-.08-.19-.12-.35-.12-.49,0-.1,.03-.2,.07-.29-.06-.64-.09-1.19-.08-1.65,.01-.71,.11-1.36,.31-1.95-.01-.09-.02-.18-.02-.27,0-.48,.17-.8,.49-.99v-.15c.32-.4,.73-.69,1.25-.87,.31,.07,.62,.14,.92,.21,.35,.12,.58,.32,.71,.61,.1,.06,.16,.19,.15,.38,0,.21,.02,.35,.07,.41l-.06,.07c.06,.45,.09,.72,.09,.82,0,.29-.08,.49-.23,.61-.05,0-.19-.05-.41-.14-.05,.05-.11,.08-.17,.08-.03,0-.08-.02-.16-.05-.08-.03-.14-.05-.2-.05-.04,0-.08,0-.11,.02,0-.6,.01-1.04,.06-1.34-.06-.04-.12-.13-.18-.26-.06-.14-.14-.21-.24-.23-.06,.07-.09,.12-.08,.15l-.2-.07c-.18,.2-.31,.55-.37,1.05-.06,.57-.14,.95-.24,1.14,.08,.09,.12,.2,.12,.35,0,.05,0,.14-.03,.26-.02,.12-.03,.21-.03,.27,0,.07,0,.13,.02,.18l-.14,.13c.06,.26,.09,.58,.1,.98,0,.33,0,.66,0,1,0,0-.07,0-.19,0-.08,0-.13,.02-.16,.08,.05,0,.09,0,.12,0,.17,0,.3,.12,.39,.35,.09,.23,.17,.35,.24,.35,.07,0,.18-.07,.31-.21,.22-.24,.34-.56,.34-.98,0-.2-.02-.42-.07-.66-.05,.03-.08,.11-.08,.22-.12,0-.2,.02-.23,.08-.05-.02-.07-.06-.07-.13,0-.1,.01-.15,.01-.16,.09-.03,.13-.07,.14-.12,0-.02-.01-.07-.05-.13-.03-.06-.05-.11-.05-.15,0-.03,0-.06,.02-.09l.05-.44c.16,.05,.52,.07,1.07,.06-.02,.04,0,.09,.07,.15,.05-.05,.11-.08,.17-.08,.05,0,.11,.02,.2,.06,.09,.04,.16,.06,.19,.06"/><path d="M107.19,30.28c-.11-.05-.22-.07-.34-.07-.11,0-.25,.02-.43,.06-.2,.04-.34,.07-.42,.07-.08-.16-.14-.38-.17-.66-.06-.41-.1-.64-.11-.69,.02-.04,.03-.08,.03-.11,0-.08-.06-.16-.19-.22-.13-.07-.2-.12-.2-.16,0-.04,.08-.11,.23-.2-.04-.05-.06-.14-.08-.28-.02-.14-.05-.23-.1-.28-.09,.08-.24,.13-.45,.16-.21,.02-.35,.06-.42,.1,0,.59-.09,.98-.29,1.18-.11-.02-.19,.02-.24,.12-.08,.12-.14,.2-.2,.22l.07,.08c-.06,.05-.16,.07-.29,.06-.21-.01-.32-.02-.34-.02l-.06-.2,.74-6.11c0-.38,.03-.65,.06-.78-.01-.34,.07-.55,.24-.63,.1,.07,.24,.11,.39,.11,.13,0,.33-.02,.6-.08,.27-.06,.46-.08,.57-.08,.37,0,.53,.27,.48,.8-.04,.42,.03,.98,.2,1.67,.18,.74,.26,1.3,.25,1.67,0,.11,.04,.35,.02,.46-.16,.09-.36,.14-.61,.16-.22,0-.44,.02-.67,.03-.06-.57-.16-1.27-.22-1.83-.07-.68-.16-1.24-.27-1.68l-.35,3.23c-.03,.28,.1,.42,.38,.42,.09,0,.18-.02,.26-.06,.07-.02,.16,.03,.28,.15,0,.23,.04,.37,.14,.42,.12-.08,.28-.16,.48-.23,.17-.07,.34-.13,.51-.18,.09,.13,.16,.32,.18,.58,.03,.36,.05,.57,.07,.64,.01,.14,.07,.45,.18,.93,.08,.38,.11,.69,.11,.92,0,.11-.01,.22-.03,.32"/><path d="M112.4,24.89s0,.15,0,.4c0,.2-.03,.34-.08,.44-.06,.15-.08,.36-.09,.64,0,.06,0,.16,0,.28,0,.13,0,.22,0,.28,0,.48-.09,.82-.24,1.04,.01,.12,.02,.24,.02,.36,0,.38-.14,.89-.39,1.52-.07,.02-.12,.03-.17,.03-.09,0-.16-.05-.2-.16-.04-.1-.08-.2-.11-.29,.02-.58,.01-1.43-.04-2.54l.07-.07c-.05-.2-.07-.42-.07-.66,0-.17,.02-.42,.06-.76,.04-.33,.06-.58,.06-.75,0-.1,0-.21,0-.3-.26,.62-.44,1.68-.55,3.16l-.1,.23c-.03,.08-.1,.12-.19,.12-.03-.05-.06-.08-.09-.08-.02,0-.06,.03-.12,.08-.06,.06-.11,.08-.14,.07l-.15,.13c.07,.09,.21,.1,.43,.03,.17-.05,.26,.02,.27,.2,0,.15-.04,.35-.12,.61-.09,.25-.13,.45-.13,.58,0,.09,0,.18,.03,.27l-.78,.12c-.07-.16-.13-.41-.16-.77-.03-.36-.09-.62-.16-.77,.05-.05,.07-.11,.07-.17,0-.05-.02-.13-.06-.24-.05-.11-.07-.18-.08-.24,0-.08-.03-.28-.08-.6-.03-.26-.05-.46-.05-.6,0-.08,0-.14,.02-.2,0-.05-.03-.13-.09-.24-.06-.1-.09-.18-.09-.22,0-.04,.02-.07,.05-.1-.05-.06-.07-.17-.06-.32,.01-.15,0-.26-.06-.32-.11,.29-.17,.69-.18,1.19,0,.69-.01,1.09-.02,1.2l.08,.07-.08,.07c.05,.27,.08,.62,.07,1.04-.02,.76-.03,1.12-.03,1.06-.11,.1-.25,.14-.44,.14-.23,0-.39,.02-.48,.06-.1-.17-.14-.38-.13-.65,0-.2,.04-.45,.1-.75-.1-.19-.15-.45-.15-.79,0-.08,.01-.24,.03-.48,.01-.19,.01-.33,0-.42,.08-.03,.12-.08,.12-.12,0-.03-.02-.08-.07-.15-.05-.07-.07-.13-.07-.17,0-.04,.03-.09,.09-.13l-.24-3.66c.14-.1,.38-.14,.7-.14,.35,.01,.6,0,.72-.05,.02-.02,.05-.02,.08-.02,.03,0,.07,.02,.11,.05,.04,.03,.07,.05,.08,.05,.03,0,.06-.02,.08-.07l.21,.21c.07,.27,.14,.78,.2,1.54,.07,.66,.17,1.15,.3,1.49,.18-.67,.34-1.23,.46-1.68l.25-1.79,1.75-.04c0,.1,.03,.62,.08,.93,.04,.26,.06,.48,.06,.65,0,.19-.03,.36-.09,.51,.06,.08,.09,.19,.08,.32,0,.13-.03,.23-.1,.32"/><path d="M116,28.86h0c-.05,.09-.08,.2-.09,.33,0,.08,0,.2,0,.35,0,.17,0,.29,0,.36-.06,0-.3,0-.72-.01-.26,0-.49,.02-.69,.07l-.21-.23c-.06,.06-.08,.11-.07,.15-.04,0-.21-.01-.52,0-.24,0-.42-.03-.54-.08-.12,.13-.27,.12-.43,0-.06-.04-.07-.12-.02-.23,.05-.11,.03-.19-.04-.25,.01-.24,.04-.61,.1-1.12,.05-.45,.08-.81,.09-1.06,0-.35-.02-.68-.07-1,.08-.08,.18-.12,.28-.12,.12,0,.26,.06,.43,.18,.23,.16,.35,.24,.36,.24l.07,.08s.05-.14,.12-.36c.04-.14,.1-.24,.18-.28l.07,.07s.13-.09,.3-.21c.13-.09,.24-.3,.31-.3,.08,0,.16,.05,.24,.14,.13,.07,.21,.34,.25,.48,.04,.14,.08,.28,.11,.41-.34,0-.62,0-.84-.02-.05,.08-.13,.09-.23,.03-.1-.06-.17-.05-.21,.02,0,.14,0,.38-.01,.73-.01,.32-.02,.57-.01,.75,0,.28,.02,.54,.06,.77,.06,0,.35,0,.86,.02,.36,0,.66,.04,.91,.1m.02-5.42c-.07,0-.14,.01-.23,0-.17,0-.4-.03-.69-.08-.35-.05-.57-.08-.64-.09-.11,.15-.17,.38-.17,.66,0,.62,0,.89,0,.8,.1,.06,.16,.17,.15,.34,0,.23-.01,.34,0,.35-.05,.02-.08,.1-.08,.23-.08-.03-.17-.09-.26-.19-.12-.12-.18,.28-.17,.18l-.07,.23-.07-.07c-.06,0-.16-.03-.31-.1-.15-.07-.25-.14-.31-.2,0-.12,.02-.19,.06-.2l-.14-.16-.07,.1c-.08-.79-.06-2.26,.04-3.09,.29,.05,.6,.08,.95,.1,.23,0,.56,.02,.98,.02,.48,0,.83,0,1.04,0,.09,.09,.13,.2,.13,.33,0,.08-.03,.22-.07,.4-.05,.18-.07,.32-.07,.41"/><path d="M103.31,35.7h0s-.02,.17-.06,.49c-.02,.2-.07,.36-.15,.48l-.05-.04c-.09,.19-.22,.31-.37,.35-.08,.08-.18,.12-.33,.13-.08,0-.28-.02-.59-.07-.15-.09-.23-.14-.24-.15-.09-.07-.14-.14-.13-.21-.09-.09-.22-.25-.26-.46-.06-.23-.09-.24-.15-.32-.09,.06-.12-.07-.17-.15l.05-.04s-.04-.04-.04-.07c0-.02,0-.05,.02-.08,.02-.03,.03-.06,.02-.08,0-.03-.02-.05-.05-.07,.04-.18,.06-.45,.09-.8,.06-.03,.09-.1,.09-.19,0-.09,0-.15,.04-.18,.14-.29,.38-.48,.7-.58,.02,0,.11,0,.26,0,.11,0,.19,0,.25,.03,.1-.02,.19,0,.29,.07,.08,.06,.17,.13,.25,.19,.16,.17,.24,.36,.25,.58,0,.07,0,.15-.01,.23-.12,0-.2,.07-.25,.23l-.45,.04c-.05-.07-.08-.16-.08-.27,0-.04,0-.1,0-.17,0-.08,0-.13,0-.17,0-.12-.04-.21-.08-.28l-.14,.08c-.05-.02-.08-.05-.08-.1,0-.01,0-.03,0-.06,0-.03,0-.05,0-.06,0-.05-.04-.07-.13-.08-.05,.51-.07,1.03-.05,1.57,.01,.02,.06,.03,.13,.04,.06,0,.09,.02,.09,.05,0,0,0,.02,0,.04l-.04,.04s.04,.09,.04,.16c0,.04,0,.09,0,.16,0,.07,0,.13,0,.16,0,.11,.03,.19,.08,.24,0,.08,.03,.13,.1,.16,.04-.02,.08-.03,.12-.03,.14,0,.23,.07,.29,.23,0,0,0,.03,0,.08,0,.03,.02,.05,.04,.05,.06-.03,.09-.1,.09-.19,0-.11,.01-.18,.04-.21,0-.05-.04-.12-.09-.22-.05-.09-.08-.17-.08-.22,0-.06,.01-.11,.05-.16-.03,0-.05-.03-.04-.06,0-.05,0-.08,0-.08,.25-.06,.5-.06,.75,0"/><path d="M105.36,36.12h0c-.03,.05-.04,.13-.03,.22,.01,.13,.02,.21,.02,.21-.02,0-.05,0-.08-.03-.05,.02-.08,.05-.08,.1,0,0,0,.02,0,.04v.04s0,.07-.03,.08c-.06-.03-.14-.05-.24-.06-.1,0-.19-.02-.28-.03,0-.45-.06-.9-.18-1.33,0,0,0-.04,0-.14,0-.07-.01-.11-.05-.14l-.04,.04s.01-.02,.04-.04c.03-.02,.04-.04,.04-.06,0,0,0-.02,0-.03l-.05-.03c-.08,.03-.11,.09-.11,.19,0,.07-.02,.11-.08,.14,.02,.02,.03,.03,.03,.06,0,.01,0,.03,0,.06,0,.02,0,.04,0,.06,0,.03,.02,.05,.05,.07,0,.02,.01,.2,.03,.54,.01,.22,0,.4-.02,.55v.09s-.06,0-.09,0c-.04,0-.1,0-.18,.02-.08,0-.13,.01-.17,.02-.15,0-.26-.02-.32-.08l-.07-1.87c-.03-.09-.05-.22-.06-.38l-.02-.36c-.01-.18-.03-.31-.07-.41,.01-.06,.07-.1,.17-.1,.06,0,.14,0,.25,.02,.05-.02,.12-.04,.2-.04,.03,0,.07,0,.12,0,.06,0,.1,0,.12,0,.16,0,.27-.06,.32-.15,.08,0,.15,.02,.24,.07,.09,.05,.17,.08,.23,.08,.18,.1,.27,.27,.29,.52,0,.05-.02,.26-.07,.63l-.3,.26c.05,.09,.11,.3,.19,.61,.06,.26,.15,.46,.28,.58m-.56-2.12h0s0-.05,0-.24c0-.09-.04-.15-.1-.19-.04,.05,0,.07-.01,.18-.02,.11-.08,.08-.12,.13-.1,0-.13,.06-.15-.04-.05-.16-.09-.15-.09-.15l-.04,.03s-.03,.03-.05,.05c-.02,.02-.04,.02-.06,.02,0,.02,0,.05-.03,.1-.02,.04-.03,.07-.03,.09,0,.03,.03,.05,.07,.07,0,.07,0,.14,0,.21,0,.04,.01,.13,.03,.27,.02,.11,.03,.21,.02,.29,.04,0,.07,0,.11,0,.14,0,.24-.07,.28-.17,.01-.03,.03-.14,.05-.33,.02-.14,.06-.24,.13-.3"/><path d="M107.71,36.84c-.06-.02-.12-.02-.19-.02-.06,0-.13,.02-.23,.04-.11,.03-.19,.04-.23,.05-.05-.07-.09-.16-.12-.28-.05-.18-.08-.28-.09-.3,0-.02,.02-.04,.02-.05,0-.04-.04-.07-.12-.09-.07-.02-.11-.05-.11-.06,0-.02,.04-.05,.12-.1-.02-.02-.04-.06-.05-.12-.01-.06-.03-.1-.07-.12-.05,.04-.13,.07-.24,.09-.11,.02-.19,.04-.22,.06,.02,.26,0,.71-.1,.81-.06,0-.1,.01-.13,.06-.04,.06-.07,.09-.1,.11l.04,.03s-.09,.04-.16,.04c-.12,0-.18,0-.19,0l-.04-.09,.17-3c0-.17,0-.29,0-.35-.02-.15,.02-.25,.11-.29,.06,.03,.13,.04,.22,.03,.07,0,.18-.02,.33-.06,.15-.03,.25-.05,.31-.06,.2-.01,.3,.1,.29,.33,0,.19,.05,.43,.17,.73,.12,.32,.19,.56,.2,.72,0,.05,.07,.16,.07,.21-.08,.04-.19,.08-.33,.09-.12,.01-.24,.03-.37,.04-.05-.25-.17-.56-.22-.8-.06-.3-.13-.54-.21-.73l-.08,1.44c0,.12,.07,.18,.22,.17,.05,0,.1-.01,.14-.04,.04-.01,.09,0,.16,.06,0,.1,.04,.16,.09,.18,.06-.04,.15-.08,.25-.12,.09-.04,.19-.07,.27-.1,.06,.05,.1,.13,.12,.25,.03,.16,.05,.25,.06,.28,.01,.06,.06,.2,.13,.4,.06,.16,.09,.3,.09,.4,0,.05,0,.1,0,.14"/><path d="M109.42,33.44h0c-.05,.07-.11,.09-.19,.04-.02,0-.09,0-.22,.01-.11,0-.19,0-.24-.02-.01,0-.04,.01-.07,.04-.04,.02-.06,.04-.08,.04-.02,0-.04-.02-.04-.06,0,0,0-.03,0-.08,0-.03-.02-.06-.05-.07l-.08,.06s-.04,.04-.03,.06c0,.02,.01,.04,.04,.07,.03,.03,.04,.05,.05,.07,0,0,.01,.16,.03,.45,0,.18,.04,.33,.1,.44,.01-.02,.05-.03,.11-.03,.06,0,.1-.01,.12-.04,.04,.03,.1,.04,.2,0,.09-.03,.16-.02,.2,.03v.44s-.1-.02-.18-.05c-.02,.06-.06,.11-.12,.12-.02,0-.09,.02-.21,.02,0-.02-.02-.04-.05-.06-.11,.05-.15,.18-.13,.38,0-.02,0,.01,.01,.11,0,.06,0,.1-.04,.12-.07,0-.16,0-.27-.05-.11-.04-.19-.06-.23-.06-.02,0-.04,0-.05,0l-.12,.04-.18-2.02-.02-.38c.15-.05,.34-.09,.57-.1,.18-.01,.41-.01,.7,0,.02-.04,.05,.01,.09,.01,.02,0,.05,0,.09,0,.04,0,.07,0,.09,0,.03,0,.05,0,.07-.01l.03-.03c.08,.03,.13,.07,.13,.13,0,.03,0,.07-.02,.13-.02,.07-.02,.11-.02,.15,0,.03,0,.06,.02,.08m-.72,3.37s-.11,.04-.2,.04c-.12,0-.19,.01-.22,.02-.01-.01-.03,0-.06-.11-.02-.07-.06-.1-.13-.1-.02,0-.04,0-.06,0h-.11l-.06-1.02c.06-.03,.14-.05,.23-.05,.09,0,.16,0,.23,.03,0,.04,.05,.05,.16,.05h.12c.07,.28,.11,.8,.1,1.13"/><path d="M111.9,33.53h0c-.06,0-.25,.01-.39,.03-.12,.01-.22,.02-.28,0-.06,.04-.08,.1-.07,.16l.04,.02s-.04,.05-.04,.07l.04,.03c0,.59,0,.92,0,.98,0,.16,.03,.3,.06,.41-.03,.07-.03,.16-.03,.26,0,.06,.02,.16,.04,.3,.03,.14,.06,.59,.07,.66,0,.05,0,.1,0,.15-.06,.02-.12,.04-.18,.04-.11,0-.23-.02-.36-.07-.02,.02-.03,.03-.05,.05-.02,.02-.03,.03-.01,.05-.04,.01-.1,0-.17-.05-.04-.6-.15-1.82-.31-3.05-.05,.05-.16,0-.27,.02-.13,.01-.25,0-.3,.02-.06-.07-.05-.09-.05-.2,0-.11-.04-.37-.01-.48,0-.02,.24,0,.37-.02,.19-.01,.23,.03,.24,.03,.02-.02,.11-.01,.17-.01,.04,.02,.09-.02,.09,0,0,.02,0,.15-.01,.18-.01,.04-.02,.06-.02,.08,0,.04,.03-.02,.1,0,.07,0,.15,0,.23,0,.09,0,.19-.02,.18,.05,.01-.02,.02,.02,.15-.03,.09-.04,.15-.15,.13-.23,0-.04,.04-.07,.01-.05,.05-.02,0,0,.05-.03,.15,.01,.24,0,.27,0,.06,0,.22,.04,.26,.01,.03,.06,.05,.24,.05,.34,0,.16,0,.25,0,.26"/><path d="M113.91,35.61h0s-.03,.09-.03,.15c0,.04,0,.09,0,.16,0,.08,.01,.13,.01,.16-.03,0-.16,0-.4,.02-.14,0-.27,.03-.38,.06l-.12-.09s-.04,.05-.03,.07c-.02,0-.12,0-.29,.02-.13,0-.23,0-.3-.01-.06,.06-.14,.07-.24,.01-.03-.02-.04-.05-.02-.1,.02-.05,.01-.08-.03-.1,0-.11,0-.27,.02-.5,.01-.2,.02-.36,0-.47,0-.16-.04-.3-.08-.44,.04-.04,.09-.06,.15-.06,.07,0,.15,.02,.24,.06,.13,.06,.2,.09,.2,.09l.04,.03s.02-.06,.05-.16c.02-.06,.04-.11,.08-.13l.04,.03s.07-.04,.16-.11c.07-.04,.11-.2,.16-.21,.04,0,.09,.01,.13,.05,.07,.03,.13,.21,.15,.27,.03,.06,.05,.12,.08,.18-.19,.02-.34,.03-.46,.02-.03,.04-.07,.05-.12,.02-.05-.02-.09-.01-.12,.02,0,.06,.01,.17,.02,.32,0,.14,0,.25,.02,.33,0,.12,.03,.24,.06,.34,.03,0,.19-.01,.47-.03,.2,0,.36,0,.5,0m-.19-2.35s-.08,0-.12,.01c-.1,0-.22,0-.38,0-.2,0-.32-.01-.36-.02-.05,.07-.06,.13-.05,.26,.02,.27,.03,.39,.03,.36,.06,.02,.09,.07,.1,.15,0,.1,0,.15,0,.15-.03,.01-.04,.05-.04,.1-.05,0-.09-.04-.15-.07-.07-.05-.09,.12-.09,.07l-.03,.1-.04-.03s-.09,0-.17-.03c-.08-.02-.14-.05-.18-.07,0-.05,0-.08,.02-.09l-.08-.07-.03,.05c-.07-.34-.12-.95-.1-1.32,.16,0,.34-.02,.54-.03,.13,0,.31-.01,.54-.03,.26-.02,.45-.03,.57-.04,.05,.03,.08,.08,.08,.14,0,.04,0,.1-.02,.18-.02,.08-.04,.19-.04,.23"/><path d="M115.97,35.26h0c-.03,.05-.04,.13-.03,.22,.01,.14,.02,.21,.02,.21-.02,0-.05,0-.08-.03-.05,.02-.08,.05-.08,.1,0,0,0,.02,0,.04,0,.02,0,.03,0,.04,0,.04,0,.06-.03,.08-.06-.03-.14-.06-.24-.06-.1,0-.19-.02-.28-.03,0-.45-.06-.9-.18-1.33,0,0,0-.04,0-.14,0-.07-.01-.12-.05-.14l-.04,.04s.01-.02,.04-.04c.03-.02,.04-.04,.04-.06,0,0,0-.02,0-.03l-.04-.03c-.08,.02-.11,.09-.11,.19,0,.07-.02,.11-.08,.14,.02,.02,.03,.04,.04,.06,0,.01,0,.03,0,.05,0,.02,0,.04,0,.06,0,.03,.02,.05,.05,.07,0,.02,.01,.2,.03,.54,.01,.22,0,.4-.02,.55v.08s-.06,0-.1,0c-.04,0-.1,0-.18,.02-.08,0-.14,.02-.17,.02-.15,0-.26-.02-.32-.08l-.07-1.86c-.03-.09-.05-.22-.06-.38l-.02-.36c-.01-.18-.04-.31-.07-.41,.01-.06,.07-.1,.17-.1,.06,0,.14,0,.25,.02,.05-.02,.12-.04,.2-.04h.12c.06,0,.1,0,.12,0,.16,0,.27-.06,.32-.15,.07,0,.16,.02,.24,.07,.09,.05,.16,.07,.23,.08,.18,.11,.27,.28,.29,.52,0,.05-.02,.26-.06,.63l-.3,.26c.05,.1,.11,.3,.18,.62,.06,.26,.16,.46,.28,.58m-.56-2.12h0s0-.05,0-.24c0-.09-.04-.15-.1-.19-.03,.05-.04-.07-.06,.05-.02,.11-.04,.19-.08,.24-.1,0-.13-.06-.19-.15-.04-.06-.06,0-.06,0l-.03,.02s-.03,.03-.06,.05c-.02,.02-.04,.02-.06,.02,0,.02-.01,.05-.03,.1-.02,.04-.03,.07-.03,.09,0,.03,.02,.05,.07,.07,0,.07,0,.14,0,.21,0,.04,.01,.13,.03,.27,.02,.11,.03,.21,.02,.29,.04,0,.07,0,.11,0,.14,0,.24-.07,.28-.17,.01-.03,.03-.14,.05-.33,.02-.15,.06-.25,.13-.3"/><path d="M95.41,26.66h0c-.02,.18-.02,.3-.02,.36-.03,0-.06,.01-.1,0-.06,0-.09-.01-.1-.01-.02,0-.04,0-.06,.02-.03-.02-.06-.03-.07-.03-.03,.02-.05,.05-.04,.08,0,.02,0,.04,.02,.08,.01,.04,.02,.06,.02,.08,0,.02,0,.06-.02,.11-.01,.05-.02,.09-.02,.13,0,.04,.01,.1,.03,.19,.01,.08,.02,.15,.02,.19-.02,.08-.02,.16-.02,.25,0,.1,.03,.24,.08,.41,.01,0,.02,0,.03,0,.02,0,.05-.02,.08-.04,.03-.03,.05-.04,.07-.04,.01,0,.03,0,.05,0,.06,.18,.08,.29,.09,.34,0,.02,0,.05,0,.08-.08,.02-.14,0-.17-.08,0-.02,0-.04-.04-.07l-.09,.1c.09,.01,.12,.08,.1,.2,0,.02-.03,.04-.05,.04-.05,0-.08,0-.07,0l-.08-.13-.03,.04c-.03-.06-.05-.09-.09-.09-.02,0-.05,.02-.1,.05-.04,.03-.08,.04-.11,.05-.02,0-.05,0-.07-.02,0-.04,0-.07-.01-.11,0-.04-.02-.06-.06-.08,0-.09,0-.34,0-.74,0-.3,0-.55,0-.73,0-.08,0-.16-.02-.23-.02-.02-.03-.03-.04-.03-.01,0-.03,.02-.05,.04-.03,.03-.05,.04-.06,.03,0-.03-.02-.08-.04-.14-.02-.07-.04-.11-.04-.14,0-.05,.02-.1,.06-.14l.11,.03c.04-.06,.06-.16,.05-.3,0-.03,0-.07-.01-.13,0-.06,0-.1-.01-.13-.01-.23,.06-.35,.21-.36,.06,0,.13,0,.21,.03l.1,.03s.01,.08,.01,.12c0,.06,0,.14,0,.25,0,.11-.01,.19,0,.24,0,.08,.02,.15,.04,.22,.02,0,.06-.01,.11-.04,.05-.03,.09-.04,.11-.04,.04,0,.08,.02,.1,.06m-.31,.32v-.1l-.04-.03,.04,.13Z"/><path d="M96.65,26.33h0c-.01,.08-.02,.17-.04,.25-.02,.09-.04,.17-.08,.22,0,0-.04-.02-.11-.05-.05-.02-.09-.03-.12-.03-.03,.18-.04,.42-.04,.72,0,.39,0,.63-.01,.71-.04,0-.08,0-.1,.04-.02,.03-.04,.07-.06,.1-.01,.02-.01,.03-.01,.05,0,.02,.02,.05,.06,.07,.04,.02,.06,.05,.06,.07-.02,.07-.06,.1-.11,.1-.03,0-.07,0-.14-.02-.07-.02-.11-.03-.14-.02l-.06-1.29s.03-.06,.03-.07l-.04-.03c0-.05,0-.32,0-.81,0-.33,.01-.6,.04-.8,0,0,.09,0,.28-.02,.12,0,.19,.03,.23,.1,0,.07,0,.18-.02,.34-.01,.14-.02,.26-.01,.33,0,.1,.02,.18,.05,.26,.1-.14,.22-.21,.35-.22m.45,.28c0,.12,.02,.24,.02,.35,.03,.5,.02,1.04-.02,1.61-.04,.04-.11,.05-.2,.03-.09-.02-.16-.01-.2,.02-.05-.07-.08-.19-.09-.36-.01-.25-.02-.39-.02-.4-.01-.63,.05-1.15,.19-1.54,.15,.04,.26,.14,.32,.28"/><path d="M98.69,27.27s-.03,.08-.03,.13c0,.05,0,.09,0,.13,0,.04-.01,.07-.03,.11-.03,0-.05,0-.07,0-.02,0-.04,0-.06,.02-.02,.02-.04,.02-.05,.02-.02,0-.04,0-.07-.02l-.21-.31c0,.09,.03,.17,.06,.24,.01,.03,.03,.07,.05,.11-.12,.02-.19,.02-.21,0l-.03,.04-.07-.1c-.06,.07-.07,.17-.04,.31,.04,.15,.04,.25,0,.32,.05,.07,.1,.1,.16,.1,.03,0,.05,0,.07-.03,.03-.08,.06-.15,.09-.22,.05-.09,.09-.14,.15-.14,.04,0,.09,.02,.15,.07,.07,.02,.1,.06,.1,.1,0,.02-.01,.06-.05,.12-.03,.06-.05,.1-.05,.13,0,.01,0,.02,0,.03-.04,.03-.08,.08-.12,.14-.03,.07-.08,.11-.14,.13-.05,.05-.1,.07-.14,.08-.03,0-.08-.02-.15-.08-.06-.05-.13-.08-.18-.07-.02-.05-.08-.11-.18-.18-.09-.07-.15-.13-.17-.21,0,0,0-.02,0-.07,0-.03-.02-.05-.04-.06l.04-.03s-.07-.03-.07-.08c0,0,0-.02,0-.04,0-.01,0-.03,0-.04,0-.04-.01-.06-.03-.08v-.16c-.01-.08-.03-.14-.06-.17,.03-.19,.06-.38,.09-.57,.05-.22,.12-.34,.22-.34,.01,0,.03,0,.04,0,.09-.09,.19-.13,.31-.14,.14,0,.29,.04,.45,.12,.13,.21,.21,.44,.24,.69m-.62-.5l-.03,.04s-.04,0-.07-.03v.1c-.04,.05-.06,.13-.05,.23,0,.18,.01,.27,.01,.26h.14c.07-.04,.09-.1,.09-.18,0-.04-.02-.11-.04-.21-.03-.1-.04-.17-.04-.21"/><polygon class="aj" points="99.75 31.83 99.88 31.9 100.34 30.7 100.19 30.65 99.73 31.85 99.86 31.94 99.75 31.83"/><polygon class="aj" points="99.95 31.66 99.89 31.68 99.75 31.83 99.86 31.94 100.01 31.78 99.95 31.81 99.95 31.66"/><polygon class="aj" points="101.05 31.65 101.12 31.6 99.95 31.66 99.95 31.81 101.12 31.75 101.2 31.7 101.05 31.65"/><polygon class="aj" points="101.58 30.55 101.5 30.45 101.05 31.65 101.2 31.7 101.65 30.5 101.57 30.4 101.58 30.55"/><polygon class="aj" points="100.46 30.59 100.41 30.61 101.58 30.55 101.57 30.4 100.41 30.45 100.35 30.48 100.46 30.59"/><polygon class="aj" points="100.34 30.7 100.32 30.73 100.46 30.59 100.35 30.48 100.2 30.63 100.19 30.65 100.34 30.7"/><polygon class="aj" points="101.31 31.79 101.41 31.75 101.16 31.61 101.08 31.75 101.34 31.89 101.45 31.84 101.3 31.79 101.31 31.79"/><polygon class="aj" points="101.8 30.69 101.76 30.59 101.3 31.79 101.45 31.84 101.91 30.64 101.87 30.55 101.8 30.69"/><polygon class="aj" points="101.65 30.5 101.54 30.55 101.8 30.68 101.87 30.55 101.62 30.41 101.5 30.45 101.65 30.5"/><polygon points="100.27 30.68 100.26 30.68 100.4 30.53 101.49 30.48 101.5 30.45 101.58 30.48 101.65 30.5 101.65 30.51 101.84 30.62 101.91 30.64 101.88 30.72 102.41 31.98 101.96 33.18 101.38 31.82 101.31 31.85 101.3 31.79 101.31 31.78 101.12 31.67 101.08 31.75 101.06 31.68 99.95 31.73 99.8 31.88 100.27 30.68"/><polygon class="aj" points="101.89 33.16 102.04 33.15 101.46 31.79 101.31 31.85 101.89 33.22 102.04 33.21 101.88 33.16 101.89 33.16"/><polygon class="aj" points="102.34 32.02 102.34 31.96 101.88 33.16 102.04 33.21 102.49 32.01 102.49 31.95 102.34 32.02"/><polygon class="aj" points="101.91 30.64 101.76 30.65 102.34 32.02 102.49 31.95 101.9 30.59 101.76 30.59 101.91 30.64"/><polygon class="v" points="101.87 30.95 101.94 31.09 101.96 31.24 101.95 31.38 101.91 31.53 101.84 31.67 101.74 31.8 101.61 31.92 101.46 32.02 101.37 32.06 101.29 32.09 101.2 32.11 101.11 32.13 101.02 32.14 100.93 32.15 100.85 32.14 100.76 32.13 100.68 32.12 100.61 32.09 100.53 32.06 100.46 32.02 100.41 31.97 100.34 31.93 100.29 31.87 100.24 31.81 100.18 31.66 100.15 31.52 100.15 31.38 100.2 31.23 100.27 31.09 100.37 30.95 100.49 30.84 100.66 30.74 100.73 30.7 100.82 30.67 100.91 30.65 101 30.63 101.09 30.62 101.17 30.6 101.26 30.62 101.35 30.62 101.42 30.65 101.5 30.67 101.58 30.7 101.65 30.74 101.71 30.78 101.77 30.83 101.82 30.89 101.87 30.95"/><polygon class="aj" points="101.93 31.19 101.99 31.33 102.02 31.48 102.01 31.62 101.97 31.76 101.9 31.91 101.8 32.04 101.68 32.16 101.52 32.25 101.43 32.3 101.35 32.34 101.26 32.35 101.16 32.37 101.08 32.38 101 32.39 100.91 32.38 100.82 32.37 100.74 32.35 100.66 32.33 100.59 32.29 100.52 32.25 100.46 32.22 100.41 32.17 100.35 32.12 100.3 32.04 100.23 31.91 100.21 31.76 100.22 31.61 100.26 31.47 100.32 31.33 100.42 31.2 100.55 31.08 100.71 30.98 100.8 30.94 100.88 30.91 100.97 30.88 101.06 30.86 101.15 30.86 101.23 30.85 101.31 30.86 101.4 30.86 101.48 30.88 101.56 30.91 101.63 30.94 101.71 30.98 101.77 31.02 101.83 31.07 101.88 31.13 101.93 31.19 101.93 31.19"/><polygon class="v" points="101.97 31.35 102.04 31.49 102.06 31.64 102.05 31.78 102.01 31.92 101.94 32.07 101.84 32.2 101.72 32.32 101.56 32.42 101.48 32.46 101.39 32.49 101.3 32.51 101.21 32.53 101.12 32.54 101.04 32.55 100.95 32.54 100.86 32.53 100.79 32.51 100.71 32.48 100.64 32.45 100.56 32.41 100.5 32.38 100.44 32.32 100.4 32.27 100.34 32.2 100.28 32.07 100.25 31.92 100.26 31.78 100.3 31.63 100.37 31.49 100.47 31.35 100.6 31.24 100.75 31.14 100.84 31.1 100.92 31.06 101.01 31.04 101.11 31.03 101.19 31.01 101.27 31.01 101.37 31.01 101.44 31.03 101.53 31.04 101.61 31.07 101.68 31.1 101.75 31.14 101.81 31.18 101.88 31.23 101.92 31.29 101.97 31.35"/><polygon class="aj" points="102.03 31.59 102.09 31.73 102.12 31.88 102.12 32.02 102.07 32.17 102.01 32.31 101.9 32.44 101.78 32.56 101.62 32.66 101.54 32.7 101.45 32.73 101.36 32.75 101.27 32.77 101.18 32.78 101.1 32.79 101.01 32.78 100.92 32.77 100.84 32.75 100.76 32.73 100.69 32.7 100.62 32.66 100.56 32.61 100.5 32.57 100.45 32.51 100.4 32.45 100.34 32.31 100.31 32.16 100.32 32.02 100.36 31.87 100.43 31.73 100.53 31.6 100.66 31.48 100.81 31.38 100.9 31.34 100.98 31.3 101.08 31.29 101.16 31.27 101.25 31.26 101.34 31.25 101.42 31.26 101.5 31.26 101.58 31.28 101.66 31.31 101.74 31.34 101.81 31.38 101.87 31.42 101.93 31.47 101.98 31.53 102.02 31.6 102.03 31.59"/><polygon class="v" points="102.11 31.75 102.18 31.88 102.2 32.03 102.2 32.18 102.16 32.32 102.09 32.46 101.98 32.6 101.86 32.71 101.71 32.81 101.62 32.85 101.53 32.89 101.44 32.91 101.36 32.93 101.26 32.94 101.18 32.94 101.1 32.94 101.01 32.92 100.93 32.9 100.85 32.88 100.78 32.85 100.71 32.81 100.65 32.77 100.59 32.72 100.54 32.66 100.49 32.6 100.43 32.46 100.4 32.31 100.41 32.17 100.45 32.03 100.52 31.88 100.62 31.75 100.74 31.64 100.9 31.53 100.98 31.49 101.07 31.45 101.16 31.44 101.25 31.42 101.33 31.41 101.42 31.41 101.51 31.41 101.59 31.42 101.67 31.44 101.75 31.47 101.82 31.5 101.9 31.53 101.96 31.58 102.02 31.63 102.07 31.68 102.11 31.75"/><polygon class="aj" points="102.18 31.99 102.23 32.13 102.27 32.27 102.26 32.42 102.22 32.56 102.15 32.7 102.05 32.83 101.92 32.95 101.76 33.05 101.68 33.09 101.59 33.12 101.5 33.14 101.41 33.16 101.33 33.17 101.24 33.18 101.15 33.17 101.07 33.17 100.99 33.15 100.91 33.12 100.84 33.09 100.77 33.05 100.7 33 100.65 32.96 100.59 32.9 100.55 32.84 100.48 32.7 100.45 32.55 100.46 32.41 100.51 32.26 100.57 32.12 100.67 31.99 100.8 31.87 100.96 31.77 101.04 31.73 101.13 31.7 101.22 31.68 101.3 31.66 101.4 31.65 101.48 31.64 101.56 31.65 101.64 31.66 101.73 31.68 101.81 31.7 101.88 31.73 101.95 31.77 102.02 31.82 102.07 31.86 102.13 31.92 102.18 31.99"/><polygon class="aj" points="94.2 30.14 94.21 30.1 93.75 31.3 93.9 31.35 94.36 30.15 94.36 30.11 94.2 30.14"/><polygon class="aj" points="94.19 30.08 94.2 30.08 94.2 30.14 94.36 30.11 94.34 30.04 94.35 30.04 94.19 30.08"/><polygon class="aj" points="94.18 30.01 94.19 30.08 94.35 30.04 94.33 29.97 94.18 30.01"/><polygon class="aj" points="94.16 29.95 94.18 30.02 94.33 29.97 94.31 29.91 94.16 29.95"/><polygon class="aj" points="94.14 29.88 94.14 29.88 94.16 29.95 94.31 29.91 94.29 29.83 94.29 29.84 94.14 29.88"/><polygon class="aj" points="94.12 29.79 94.12 29.82 94.14 29.88 94.29 29.84 94.27 29.78 94.28 29.81 94.12 29.79"/><polygon class="aj" points="94.28 29.76 94.12 29.74 94.12 29.79 94.28 29.81 94.28 29.75 94.13 29.72 94.27 29.77 94.28 29.76"/><polygon class="y" points="94.41 33.28 94.39 33.2 94.23 33.23 94.24 33.31 94.41 33.28"/><polygon class="aj" points="94.74 32.27 94.75 32.23 94.29 33.43 94.44 33.48 94.89 32.28 94.89 32.24 94.74 32.27"/><polygon class="aj" points="94.73 32.19 94.74 32.27 94.89 32.24 94.88 32.15 94.72 32.18 94.73 32.19"/><rect x="94.72" y="32.09" width=".15" height=".08" transform="translate(-4.19 17.26) rotate(-10.18)"/><polygon class="aj" points="94.69 32.02 94.69 32.03 94.71 32.11 94.86 32.07 94.84 31.99 94.85 32 94.69 32.02"/><polygon class="aj" points="94.83 31.95 94.68 31.93 94.69 32.02 94.85 32 94.84 31.91 94.68 31.9 94.83 31.95"/><path class="x" d="M93.75,31.07l-.07,.02,.07-.02Z"/><polygon class="x" points="93.83 31.32 93.83 31.31 93.87 31.31 93.9 31.35 93.83 31.33 93.83 31.32"/><polygon points="93.66 31.02 93.74 31 93.74 30.95 94.2 29.74 94.2 29.75 94.2 29.8 94.21 29.86 94.24 29.93 94.26 29.99 94.27 30.06 94.29 30.12 94.36 30.15 93.9 31.35 93.87 31.31 93.83 31.31 93.83 31.32 93.83 31.33 93.9 31.35 93.83 31.35 93.83 31.4 93.79 31.35 93.75 31.34 93.74 31.28 93.77 31.27 93.8 31.19 93.72 31.21 93.7 31.16 93.68 31.09 93.75 31.07 93.68 31.09 93.68 31.08 93.66 31.02"/><polygon points="93.83 31.25 97.19 31.14 97.27 31.14 97.29 31.15 97.37 31.17 97.38 31.17 97.46 31.2 97.55 31.24 97.55 31.24 97.63 31.29 97.65 31.29 97.71 31.35 97.73 31.36 97.78 31.42 97.78 31.43 97.81 31.48 97.81 31.49 97.67 31.54 97.64 31.5 97.64 31.51 97.6 31.45 97.6 31.45 97.55 31.41 97.56 31.43 97.48 31.38 97.48 31.38 97.4 31.35 97.33 31.32 97.24 31.3 97.26 31.31 97.18 31.3 97.18 31.29 93.83 31.4 93.83 31.25"/><polygon points="97.66 31.54 97.67 31.54 97.67 31.55 97.66 31.54"/><polygon class="aj" points="99.46 34.36 99.46 34.31 99 35.52 99.15 35.57 99.61 34.36 99.61 34.31 99.46 34.36"/><polygon class="aj" points="98.13 30.35 98.12 30.33 99.46 34.36 99.61 34.31 98.27 30.29 98.27 30.27 98.13 30.35"/><polygon class="aj" points="98.11 30.31 98.1 30.3 98.13 30.35 98.27 30.27 98.24 30.22 98.23 30.22 98.1 30.31 98.11 30.31"/><polygon class="aj" points="98.07 30.26 98.06 30.25 98.1 30.31 98.23 30.22 98.18 30.15 98.17 30.14 98.07 30.26"/><polygon class="aj" points="98.02 30.23 98.01 30.22 98.07 30.26 98.17 30.14 98.11 30.09 98.09 30.08 98.02 30.23"/><polygon class="aj" points="97.95 30.18 97.94 30.18 98.02 30.23 98.09 30.08 98.01 30.04 98 30.04 97.95 30.18"/><polygon class="aj" points="97.87 30.15 97.85 30.15 97.95 30.18 98 30.04 97.92 30 97.91 30 97.86 30.15 97.87 30.15"/><polygon class="aj" points="97.78 30.12 97.77 30.12 97.86 30.15 97.91 30 97.83 29.97 97.78 30.12 97.78 30.12"/><polygon class="aj" points="97.72 30.1 97.7 30.1 97.78 30.12 97.83 29.97 97.73 29.95 97.73 29.95 97.72 30.1"/><polygon class="aj" points="97.64 30.09 97.64 30.1 97.72 30.1 97.73 29.95 97.64 29.93 97.63 29.94 97.64 30.09"/><polygon class="aj" points="94.36 30.15 94.28 30.2 97.64 30.09 97.63 29.94 94.29 30.05 94.21 30.1 94.36 30.15 94.36 30.15"/><polygon class="x" points="95.21 33.81 95.2 33.81 95.2 33.81 95.21 33.81"/><path class="x" d="M97.02,34.36v0Z"/><path d="M94.24,33.31v.08l.04,.08,.04,.06,.21,.11,.21,.11,.2,.11,.2,.1h0l.2,.1,.2,.09,.22,.09,.22,.08h0l.24,.07,.24,.06h0l.26,.04,.27,.04h0l.29,.02h.65l.35-.02,.07-.05,.46-1.2-.08-.11v.15l-.02-.03,.02-.04h-.05l-.02-.02v.03l-.27,.02h-.65l-.29-.02-.28-.04-.26-.04-.24-.06-.24-.06-.22-.08-.21-.08-.2-.09-.2-.1-.21-.1-.2-.11-.2-.11-.14-.07h0l-.07-.04-.02-.09v-.08l-.02-.03,.05-.12-.08-.02h0l-.07-.03-.45,1.2v.12l.02,.09Zm.05-.19h0Z"/><polygon class="aj" points="98.41 33.33 98.76 33.31 98.76 33.16 98.4 33.18 98.41 33.33"/><polygon class="aj" points="98.08 33.34 98.41 33.33 98.4 33.18 98.07 33.19 98.08 33.34"/><polygon class="aj" points="97.76 33.33 97.76 33.33 98.08 33.34 98.07 33.19 97.76 33.18 97.77 33.18 97.75 33.34 97.76 33.33"/><polygon class="aj" points="97.46 33.31 97.46 33.31 97.75 33.34 97.77 33.18 97.48 33.16 97.48 33.16 97.46 33.31"/><polygon class="aj" points="97.19 33.28 97.46 33.31 97.48 33.16 97.22 33.12 97.19 33.28"/><polygon class="aj" points="96.92 33.23 96.93 33.23 97.19 33.28 97.22 33.12 96.95 33.08 96.96 33.08 96.92 33.23"/><polygon class="aj" points="96.69 33.17 96.92 33.23 96.96 33.08 96.72 33.02 96.68 33.17 96.69 33.17"/><polygon class="aj" points="96.44 33.11 96.45 33.11 96.68 33.17 96.72 33.02 96.48 32.96 96.49 32.96 96.44 33.11"/><polygon class="aj" points="96.22 33.03 96.22 33.03 96.44 33.11 96.49 32.96 96.27 32.88 96.28 32.88 96.21 33.03 96.22 33.03"/><polygon class="aj" points="96 32.94 96.21 33.03 96.28 32.88 96.06 32.79 96 32.94"/><polygon class="aj" points="95.8 32.85 96 32.94 96.06 32.79 95.86 32.71 95.8 32.85"/><polygon class="aj" points="95.59 32.75 95.59 32.75 95.8 32.85 95.86 32.71 95.65 32.6 95.66 32.61 95.59 32.75 95.59 32.75"/><polygon class="aj" points="95.39 32.65 95.59 32.75 95.66 32.61 95.46 32.51 95.39 32.65 95.39 32.65"/><polygon class="aj" points="95.19 32.54 95.39 32.65 95.46 32.51 95.26 32.4 95.18 32.54 95.19 32.54"/><polygon class="aj" points="94.99 32.43 95.18 32.54 95.26 32.4 95.06 32.3 94.99 32.43"/><polygon class="aj" points="94.89 32.28 94.78 32.32 94.99 32.43 95.06 32.3 94.86 32.19 94.75 32.23 94.89 32.28"/><polygon class="aj" points="115.79 30.11 115.33 31.31 116.83 31.81 117.18 31.01 117.19 30.93 117.19 30.85 117.18 30.77 117.15 30.69 117.1 30.62 117.06 30.54 117 30.46 116.93 30.39 116.87 30.33 116.79 30.26 116.72 30.21 116.64 30.16 116.57 30.12 116.49 30.08 116.41 30.04 116.34 30.02 116.27 29.99 116.2 29.98 116.13 29.98 116.06 29.99 115.99 30 115.92 30.02 115.86 30.06 115.79 30.11"/><polygon class="aj" points="116.76 31.77 116.86 31.73 115.36 31.23 115.31 31.38 116.81 31.89 116.91 31.85 116.76 31.77"/><polygon points="93.66 30.95 93.67 30.92 94.13 29.72 94.27 29.77 93.83 30.96 93.82 31.01 93.82 30.99 93.66 31.02 93.66 31 93.66 30.95"/><polygon class="x" points="101.01 33.78 100.98 33.8 100.98 33.8 101.01 33.78"/><path d="M93.72,31.21l.02,.07h0l.12-.03-.03,.08,3.36-.11h.08l.09,.03,.09,.03,.09,.03,.08,.05,.06,.05,.05,.05,.03,.06-.08,.02,1.34,4.02h.08v.05h.34l.1-.02,.09-.02,.1-.05,.09-.07,.11-.1h0l.06-.09,.07-.09,.08-.09,.05-.09,.07-.11,.07-.1,.06-.11,.08-.11,.06-.09,.09-.1,.07-.1,.09-.08,.07-.08,.08-.07,.08-.06,.09-.05h.02l-.06-.06,.06,.05,.09-.1,.08-.08,.07-.07,.08-.06,.07-.05,.08-.05,.07-.04,.08-.04,.09-.02,.09-.04,.09-.02h.1l.11-.03h.12l.13-.02h.14l14.49-1.09h.09l.08-.03,.07-.02,.07-.02,.07-.03,.07-.04,.06-.05,.07-.06v-.02l.27-.59-.13-.08,.06,.06h0l-.06-.04-.06,.15-.04,.02-.06,.02-.06,.03h-.06l-.08,.03h-.08l-14.49,1.09h-.18l-.09,.02-.09,.02h-.18l-.09,.02h-.08l-.09,.03h-.08l-.09,.03-.1,.02-.09,.02-.09,.03-.09,.03-.09,.04-.17,.1-.17,.16-.18,.19-.17,.21-.17,.23-.15,.2-.14,.19-.12,.15-.07,.02h-.06l-.08,.02h-.36l-1.33-4.03-.03-.06-.05-.06-.06-.05-.09-.05-.08-.04-.09-.03-.08-.02h-.08l-3.35,.1-.4,1.06h0l-.16,.03Zm24.1,.11h0l.05,.04-.06-.04Z"/><polygon class="aj" points="117.31 31.62 117.4 31.6 117.48 31.59 117.55 31.57 117.62 31.54 117.69 31.51 117.76 31.47 117.81 31.42 117.88 31.37 117.77 31.26 117.71 31.31 117.66 31.35 117.61 31.38 117.56 31.4 117.5 31.42 117.44 31.44 117.37 31.45 117.3 31.45 117.31 31.62"/><polygon class="aj" points="102.83 32.7 117.31 31.62 117.3 31.45 102.81 32.53 102.83 32.7"/><polygon class="aj" points="101.41 32.95 101.5 32.92 101.58 32.89 101.68 32.86 101.76 32.83 101.85 32.8 101.93 32.79 102.02 32.78 102.11 32.76 102.19 32.75 102.28 32.74 102.37 32.73 102.46 32.72 102.55 32.71 102.63 32.71 102.73 32.7 102.83 32.7 102.81 32.53 102.72 32.54 102.63 32.55 102.53 32.55 102.44 32.56 102.35 32.57 102.27 32.59 102.18 32.59 102.08 32.6 101.99 32.61 101.9 32.63 101.81 32.65 101.71 32.68 101.63 32.7 101.53 32.74 101.43 32.77 101.35 32.81 101.41 32.95"/><polygon class="aj" points="100.12 34.38 100.15 34.36 100.21 34.29 100.27 34.21 100.34 34.12 100.41 34.03 100.49 33.92 100.57 33.82 100.65 33.71 100.74 33.6 100.82 33.49 100.91 33.39 101 33.3 101.09 33.2 101.16 33.12 101.26 33.05 101.34 32.99 101.41 32.95 101.35 32.81 101.25 32.87 101.16 32.93 101.06 33 100.97 33.09 100.88 33.19 100.8 33.28 100.7 33.4 100.62 33.51 100.53 33.62 100.45 33.72 100.37 33.83 100.29 33.93 100.22 34.03 100.15 34.11 100.09 34.19 100.04 34.25 100.07 34.24 100.12 34.38"/><polygon class="v" points="97.34 30.03 97.64 30.02 97.66 30.02 95.1 29.16 94.97 29.24 97.34 30.03 97.34 30.03"/><polygon class="v" points="97.34 30.03 94.29 30.12 94.27 30.06 94.26 29.99 94.24 29.93 94.21 29.86 94.2 29.8 94.2 29.75 94.22 29.69 94.27 29.65 94.4 29.56 94.54 29.48 94.68 29.4 94.82 29.32 94.95 29.23 94.97 29.24 97.34 30.03 97.34 30.03"/><polygon class="u" points="95.48 31.88 97.56 31.76 98.38 32.09 98.66 32.95 98.75 33.24 98.41 33.26 98.07 33.26 97.76 33.25 97.47 33.24 97.2 33.2 96.94 33.16 96.7 33.09 96.46 33.03 96.24 32.95 96.03 32.87 95.83 32.78 95.63 32.68 95.42 32.58 95.22 32.47 95.02 32.36 94.82 32.25 94.8 32.17 94.79 32.09 94.77 32 94.75 31.92 95.48 31.88"/><polygon class="v" points="100.73 32.12 100.75 32.15 101.02 32.32 101.11 32.18 100.84 32.01 100.87 32.06 100.73 32.12 100.73 32.14 100.75 32.15 100.73 32.12"/><polygon class="v" points="98.35 32.17 98.3 32.11 98.68 33.26 98.83 33.22 98.45 32.07 98.41 32.02 98.45 32.07 98.44 32.03 98.41 32.02 98.35 32.17"/><polygon class="v" points="97.57 31.84 97.53 31.83 98.35 32.17 98.41 32.02 97.6 31.69 97.57 31.68 97.6 31.69 97.58 31.68 97.57 31.68 97.57 31.84"/><polygon class="v" points="94.84 31.91 94.76 32 97.57 31.84 97.57 31.68 94.76 31.85 94.68 31.93 94.76 31.85 94.66 31.85 94.68 31.93 94.84 31.91"/><polygon class="v" points="94.86 32.19 94.89 32.24 94.89 32.2 94.88 32.15 94.88 32.11 94.86 32.08 94.86 32.04 94.85 31.99 94.84 31.95 94.84 31.91 94.68 31.93 94.68 31.97 94.69 32.03 94.7 32.06 94.7 32.1 94.71 32.14 94.72 32.18 94.74 32.23 94.74 32.27 94.78 32.32 94.74 32.27 94.75 32.31 94.78 32.32 94.86 32.19"/><polygon class="v" points="98.68 33.26 98.75 33.16 98.4 33.18 98.07 33.19 97.77 33.18 97.48 33.16 97.22 33.12 96.96 33.08 96.72 33.02 96.49 32.96 96.27 32.88 96.06 32.79 95.86 32.71 95.66 32.61 95.46 32.51 95.26 32.4 95.06 32.3 94.86 32.19 94.78 32.32 94.99 32.43 95.18 32.54 95.39 32.65 95.59 32.75 95.8 32.85 96 32.94 96.22 33.03 96.44 33.11 96.68 33.17 96.92 33.23 97.19 33.28 97.46 33.31 97.75 33.34 98.08 33.34 98.41 33.33 98.77 33.32 98.83 33.22 98.77 33.32 98.87 33.31 98.83 33.22 98.68 33.26 98.68 33.26"/><polygon class="v" points="102.81 32.53 102.71 32.54 102.59 32.56 102.48 32.56 102.37 32.57 102.26 32.59 102.14 32.61 102.02 32.62 101.91 32.65 101.79 32.68 101.69 32.71 101.59 32.75 101.48 32.78 101.4 32.83 101.29 32.87 101.21 32.93 101.13 33 101.23 33.12 101.3 33.06 101.38 33.01 101.46 32.97 101.55 32.93 101.64 32.88 101.73 32.86 101.85 32.83 101.95 32.8 102.05 32.79 102.15 32.76 102.27 32.75 102.38 32.74 102.49 32.72 102.61 32.71 102.72 32.7 102.83 32.7 102.81 32.53"/><polygon class="v" points="117.3 31.45 102.81 32.53 102.83 32.7 117.31 31.62 117.3 31.45"/><polygon class="v" points="117.57 30.57 117.63 30.65 117.69 30.73 117.72 30.81 117.77 30.89 117.79 30.97 117.8 31.04 117.8 31.1 117.79 31.17 117.78 31.22 117.75 31.27 117.72 31.31 117.67 31.36 117.61 31.39 117.52 31.42 117.42 31.45 117.3 31.45 117.31 31.62 117.45 31.61 117.56 31.57 117.66 31.54 117.75 31.48 117.84 31.43 117.89 31.36 117.92 31.28 117.95 31.2 117.95 31.11 117.96 31.02 117.94 30.93 117.91 30.84 117.87 30.75 117.82 30.65 117.76 30.55 117.7 30.48 117.57 30.57"/><polygon class="v" points="115.84 29.75 115.97 29.74 116.1 29.75 116.24 29.78 116.37 29.8 116.49 29.84 116.62 29.88 116.73 29.94 116.84 29.99 116.96 30.05 117.07 30.12 117.18 30.19 117.26 30.26 117.35 30.34 117.43 30.42 117.5 30.5 117.57 30.57 117.7 30.48 117.62 30.39 117.54 30.3 117.45 30.22 117.36 30.14 117.25 30.06 117.15 29.99 117.04 29.92 116.92 29.85 116.8 29.79 116.67 29.74 116.54 29.7 116.4 29.65 116.27 29.62 116.13 29.6 115.97 29.59 115.84 29.59 115.84 29.75"/><polygon class="v" points="103.03 30.19 115.84 29.75 115.84 29.59 103.03 30.04 103.03 30.19"/><polygon class="v" points="101 29.86 101.12 29.91 101.25 29.94 101.38 29.98 101.5 30.01 101.64 30.04 101.76 30.07 101.9 30.09 102.02 30.11 102.15 30.14 102.28 30.15 102.41 30.17 102.54 30.17 102.66 30.19 102.79 30.18 102.91 30.19 103.03 30.19 103.03 30.04 102.91 30.04 102.79 30.03 102.68 30.02 102.55 30.01 102.43 30 102.3 29.99 102.18 29.98 102.05 29.96 101.92 29.93 101.8 29.91 101.67 29.88 101.54 29.86 101.42 29.83 101.28 29.79 101.17 29.76 101.05 29.72 101 29.87 101 29.86"/><polygon class="v" points="96.68 28.68 96.9 28.65 97.11 28.63 97.3 28.61 97.48 28.6 97.66 28.59 97.81 28.61 97.97 28.62 98.1 28.63 98.24 28.65 98.37 28.68 98.49 28.7 98.6 28.74 98.71 28.78 98.8 28.82 98.92 28.86 99.01 28.91 99.11 28.96 99.21 29.01 99.31 29.07 99.42 29.13 99.52 29.18 99.62 29.25 99.73 29.3 99.84 29.37 99.97 29.43 100.09 29.5 100.22 29.55 100.35 29.62 100.5 29.69 100.66 29.74 100.83 29.81 101 29.87 101.05 29.72 100.88 29.66 100.71 29.6 100.56 29.54 100.41 29.48 100.28 29.41 100.16 29.36 100.04 29.28 99.92 29.23 99.8 29.17 99.7 29.11 99.59 29.05 99.49 28.98 99.39 28.92 99.28 28.87 99.18 28.82 99.09 28.77 98.98 28.71 98.87 28.67 98.76 28.63 98.65 28.59 98.52 28.55 98.4 28.52 98.27 28.5 98.12 28.47 97.98 28.45 97.83 28.45 97.65 28.45 97.48 28.45 97.29 28.45 97.09 28.47 96.88 28.49 96.66 28.52 96.67 28.68 96.68 28.68"/><polygon class="v" points="94.31 29.72 94.44 29.63 94.58 29.55 94.72 29.47 94.86 29.38 94.99 29.3 95.14 29.23 95.28 29.15 95.42 29.09 95.57 29.02 95.72 28.94 95.87 28.88 96.03 28.83 96.19 28.79 96.34 28.74 96.51 28.7 96.67 28.68 96.66 28.52 96.48 28.56 96.31 28.59 96.14 28.63 95.98 28.68 95.82 28.75 95.66 28.8 95.51 28.87 95.35 28.94 95.2 29.01 95.05 29.09 94.92 29.17 94.78 29.25 94.64 29.33 94.5 29.41 94.36 29.5 94.23 29.58 94.31 29.72 94.31 29.72"/><polygon class="v" points="94.29 30.05 94.37 30.12 94.34 30.04 94.33 29.97 94.31 29.91 94.29 29.83 94.28 29.79 94.28 29.76 94.29 29.73 94.31 29.72 94.23 29.58 94.16 29.65 94.13 29.73 94.12 29.81 94.14 29.88 94.16 29.95 94.18 30.02 94.2 30.08 94.21 30.14 94.28 30.2 94.21 30.14 94.21 30.2 94.28 30.2 94.29 30.05"/><polygon class="u" points="100.2 30.62 100.2 30.63 100.2 30.63 100.2 30.62"/><polygon class="u" points="100.17 30.66 100.2 30.63 100.18 30.71 100.17 30.66"/><polygon class="u" points="102.33 31.58 104.97 32.46 104.68 32.48 104.68 32.48 102.39 31.72 102.33 31.58"/><path class="u" d="M94.28,30.2l3.36-.11h.07l.06,.03,.08,.03,.08,.03,.07,.05,.05,.03,.03,.05,.02,.03,1.34,4.02,.02,.06h.56l.09-.04,.07-.05,.09-.09,.07-.1,.07-.08,.07-.08,.06-.08,.06-.07,.05-.07,.06-.08,.05-.07,.06-.07,.06-.07,.06-.06,.06-.07,.07-.07,.07-.07,.09-.08-.05-.06,.07-.06,.08-.05,.09-.04,.09-.04,.09-.04,.11-.03,.11-.04,.11-.03h.1l.11-.03,.12-.02,.11-.02h.12l.12-.02h.11l.11-.02,1.86-.13-2.29-.77-.06-.14,2.64,.88,12.34-.92,.23-.04,.17-.08,.12-.11,.04-.13v-.15h0l-.04-.17-.08-.16-.12-.18-.07-.08-.08-.08-.09-.08-.09-.07-.09-.08-.11-.07-.11-.07-.11-.07-.12-.05-.12-.06-.13-.04-.14-.05-.13-.02-.14-.03-.14-.02h-.14l-1.86,.07-10.95,.38h-.36l-.12-.02h-.12l-.13-.02-.12-.02-.13-.02-.13-.02-.13-.03-.13-.03-.13-.03-.13-.04-.13-.03-.12-.03-.12-.04-.17-.06-.17-.06-.15-.06-.15-.06-.13-.07-.12-.06-.13-.07-.12-.06-.11-.07-.1-.06-.11-.06-.1-.06-.11-.06-.1-.06-.1-.05-.1-.06-.1-.05-.1-.04-.1-.03-.12-.04-.12-.04-.12-.03-.13-.02-.14-.02-.14-.02h-.16l-.17-.02h-.35l-.2,.03-.21,.02-.23,.03-.17,.02-.17,.04-.17,.04-.16,.05-.16,.06-.16,.06-.15,.06-.15,.07-.14,.07-.15,.08,2.34,.78-3.15,.1v.15Zm21.46,.07v-.09l.05-.07,.06-.05,.08-.04,.1-.02h.12l.06,.02h.06l.07,.04,.07,.02,.07,.03,.07,.04,.06,.03,.07,.05,.06,.04,.06,.05,.07,.05,.05,.06,.06,.05,.05,.05,.08,.11,.04,.11,.02,.05v.2l-.06,.06-.08,.04-.1,.02h-.12l-.07-.02-.07-.02-.07-.02-.07-.02-.08-.03-.07-.04-.07-.03-.08-.04-.07-.04-.06-.05-.06-.04-.06-.06-.05-.06-.04-.06-.08-.11-.04-.11v-.04l-.02-.06Zm-13.34,1.71h0l-.05-.04,.05,.04Zm-2.05-1.28l.08-.08,1.1-.06,.23,.12,.55,1.3-.08,.11-1.18,.08h.05l-.04,.08h0l-.26-.15h0l.07-.03-.51-1.36Z"/><polygon class="aj" points="115 31.1 114.93 31.07 114.92 31.01 115.02 30.98 115.04 31.04 114.98 31 115 31.1"/><polygon class="aj" points="115.13 31.03 115.12 31.05 115.09 31.07 115.06 31.09 115.04 31.1 115 31.1 114.98 31 114.99 31.01 115.02 30.99 115.04 30.98 115.04 30.97 115.04 30.99 115.13 31.04 115.13 31.03"/><polygon class="aj" points="114.86 30.42 114.87 30.42 114.91 30.48 114.97 30.54 115.03 30.61 115.09 30.68 115.13 30.76 115.16 30.85 115.16 30.95 115.13 31.04 115.04 30.99 115.06 30.93 115.05 30.87 115.04 30.8 114.99 30.74 114.95 30.67 114.89 30.61 114.83 30.55 114.79 30.49 114.79 30.5 114.86 30.42"/><polygon class="aj" points="113.97 30.17 113.96 30.16 114.09 30.17 114.22 30.17 114.33 30.19 114.44 30.2 114.55 30.23 114.65 30.28 114.76 30.34 114.86 30.42 114.79 30.5 114.7 30.43 114.6 30.38 114.51 30.33 114.42 30.31 114.31 30.29 114.2 30.28 114.09 30.27 113.98 30.27 113.98 30.27 113.96 30.17 113.97 30.17"/><polygon class="aj" points="104.56 30.66 104.61 30.63 113.96 30.17 113.98 30.27 104.62 30.73 104.66 30.71 104.56 30.66"/><polygon class="aj" points="104.34 30.99 104.24 30.95 104.25 30.88 104.27 30.83 104.3 30.76 104.34 30.72 104.39 30.69 104.45 30.66 104.52 30.64 104.61 30.63 104.62 30.73 104.54 30.75 104.47 30.77 104.44 30.77 104.41 30.8 104.39 30.83 104.36 30.86 104.35 30.9 104.35 30.97 104.25 30.93 104.34 30.99"/><polygon points="114.94 30.95 114.91 30.91 114.88 30.86 114.85 30.82 114.82 30.79 114.79 30.74 114.75 30.71 114.72 30.66 114.62 30.59 114.52 30.53 114.42 30.48 114.32 30.46 114.21 30.45 114.1 30.42 113.99 30.42 113.86 30.42 104.5 30.89 104.58 30.74 104.61 30.74 104.62 30.73 113.98 30.27 114.14 30.28 114.27 30.27 114.39 30.29 114.5 30.31 114.61 30.36 114.7 30.42 114.79 30.49 114.89 30.61 114.97 30.71 115.04 30.81 115.07 30.88 115.07 30.93 115.04 30.97 114.99 31.01 114.98 31.01 114.97 31 114.94 30.95"/><path d="M104.24,30.95v.09l.03,.06,.03,.09,.06,.1,.08,.08,.1,.09,.12,.08,.13,.06,.14,.04h.17l9.62-.49,.18-.02,.13-.03,.09-.07,.05-.09v-.09l-.04-.11-.07-.11-.1-.12-.1-.12-.11-.09-.11-.07-.11-.05-.12-.02-.14-.03h-.31l-9.36,.47h-.1l-.1,.04-.07,.06-.05,.07-.03,.07-.02,.08Zm.11,.01v-.06h.07l.08-.02,.08-.15h.04l9.36-.48h.29l.12,.02,.11,.02,.1,.05,.09,.06,.09,.08,.1,.11,.09,.1,.06,.1,.03,.07v.05l-.02,.04-.06,.04h0l-.11,.03-.16,.02-9.62,.5h-.14l-.13-.04-.12-.05-.1-.06-.08-.08-.06-.08-.05-.08-.04-.07v-.11Z"/></g></g></g></svg>