<?xml version="1.0" encoding="UTF-8" standalone="no"?>
<svg
     version="1.1"
     x="0px"
     y="0px"
     width="4875"
     height="3075"
     viewBox="0 0 4875 3075"
     enable-background="new 0 0 1170 738"
     xml:space="preserve"
     id="svg152"
     sodipodi:docname="LargeScreen.svg"
     inkscape:version="1.4 (e7c3feb1, 2024-10-09)"
     xmlns:inkscape="http://www.inkscape.org/namespaces/inkscape"
     xmlns:sodipodi="http://sodipodi.sourceforge.net/DTD/sodipodi-0.dtd"
     xmlns="http://www.w3.org/2000/svg"
     xmlns:svg="http://www.w3.org/2000/svg"><defs
         id="defs152">




	
	
	
</defs><sodipodi:namedview
         id="namedview152"
         pagecolor="#505050"
         bordercolor="#eeeeee"
         borderopacity="1"
         inkscape:showpageshadow="0"
         inkscape:pageopacity="0"
         inkscape:pagecheckerboard="0"
         inkscape:deskcolor="#d1d1d1"
         inkscape:zoom="0.87958974"
         inkscape:cx="3858.6171"
         inkscape:cy="386.54384"
         inkscape:window-width="1872"
         inkscape:window-height="1027"
         inkscape:window-x="62"
         inkscape:window-y="25"
         inkscape:window-maximized="1"
         inkscape:current-layer="svg152" /><rect
         fill="#929497"
         width="4875"
         height="3075"
         id="rect1"
         x="0"
         y="0"
         style="stroke-width:4.16667" /><path
         fill="#ffffff"
         stroke="#ed1c24"
         stroke-miterlimit="10"
         d="m 3635.6042,188.3375 h 1200.2042 l 0.5208,2812.8625 -1200.2667,37.4959 h -0.2041 -2399.9792 -0.9917 L 35.870834,2999.1167 V 188.3375 h 1200.283366 -0.1959 c 32.8375,0 537.1834,-149.666666 1199.8209,-149.666666 662.65,0 1162.1792,149.666666 1199.825,149.666666 z"
         id="clipping"
         style="stroke-width:4.16667;fill:#717171;fill-opacity:1;stroke:none" /><path
         fill="none"
         stroke="#00aeef"
         stroke-miterlimit="10"
         stroke-dasharray="6, 6"
         d="m 3618.2709,220.8625 h 1181.4708 l 0.5125,2742.6459 -1181.5333,36.5583 h -0.1959 -2362.5208 -0.975 L 74.733334,2961.475 V 220.8625 h 1181.549966 -0.1958 c 32.325,0 528.8,-145.929166 1181.0875,-145.929166 652.3042,-0.0042 1144.0334,145.929166 1181.0959,145.929166 z"
         id="path2"
         style="stroke-width:4.16667;fill:#cccccc;fill-opacity:1;stroke:none" /><g
         id="fold"
         transform="scale(4.1666667)">
	<line
     fill="none"
     stroke="#00a651"
     stroke-width="0.5616"
     stroke-miterlimit="10"
     x1="297"
     y1="0.28400001"
     x2="297"
     y2="738.284"
     id="line151" />
	<line
     fill="none"
     stroke="#00a651"
     stroke-width="0.5616"
     stroke-miterlimit="10"
     x1="873"
     y1="0.28400001"
     x2="873"
     y2="738.284"
     id="line152" />
</g></svg>
