<?xml version="1.0" encoding="UTF-8" standalone="no"?>
<svg
     version="1.1"
     x="0px"
     y="0px"
     viewBox="0 0 7650 5925"
     style="enable-background:new 0 0 1836 1422;"
     xml:space="preserve"
     width="7650"
     height="5925"
     id="svg251"
     sodipodi:docname="LargePrototypeBox.svg"
     inkscape:version="1.4 (e7c3feb1, 2024-10-09)"
     xmlns:inkscape="http://www.inkscape.org/namespaces/inkscape"
     xmlns:sodipodi="http://sodipodi.sourceforge.net/DTD/sodipodi-0.dtd"
     xmlns="http://www.w3.org/2000/svg"
     xmlns:svg="http://www.w3.org/2000/svg"><defs
         id="defs251">
<style
     type="text/css"
     id="style1">
	.st0{display:none;}
	.st1{display:inline;opacity:0.4987;fill-rule:evenodd;clip-rule:evenodd;}
	.st2{display:inline;opacity:1;fill-rule:evenodd;clip-rule:evenodd;}
	.st3{opacity:1;fill-rule:evenodd;clip-rule:evenodd;fill:#E34120;}
	.st4{opacity:0.4987;fill-rule:evenodd;clip-rule:evenodd;fill:#E34120;}
	.st5{display:inline;fill-rule:evenodd;clip-rule:evenodd;}
	.st6{display:inline;fill-rule:evenodd;clip-rule:evenodd;fill:#FFFFFF;}
	.st7{display:inline;opacity:1;fill-rule:evenodd;clip-rule:evenodd;fill:#038FC9;}
	.st8{opacity:1;fill:none;stroke:#15AC4B;stroke-linecap:round;stroke-linejoin:round;stroke-miterlimit:10;}
	.st9{opacity:1;fill:none;stroke:#00ABE4;stroke-linecap:round;stroke-miterlimit:1.5;stroke-dasharray:5,5,0,0;}
	.st10{opacity:1;fill:none;stroke:#00ABE4;stroke-linejoin:round;stroke-dasharray:5,5,0,0;}
	.st11{opacity:0.4987;fill-rule:evenodd;clip-rule:evenodd;}
	.st12{fill-rule:evenodd;clip-rule:evenodd;fill:none;stroke:#E34120;stroke-miterlimit:10;}
	.st13{fill:#FFFFFF;}
	.st14{display:inline;}
	.st15{fill:#E2332B;}
	.st16{fill:#212020;}
	.st17{fill-rule:evenodd;clip-rule:evenodd;fill:#212020;}
	.st18{fill:#040404;}
	.st19{font-family:'Arial-Black';}
	.st20{font-size:11.5632px;}
	.st21{letter-spacing:3;}
	.st22{fill:#17AB4B;}
	.st23{font-family:'Arial-BoldMT';}
	.st24{font-size:7.079px;}
	.st25{letter-spacing:1;}
	.st26{fill:none;stroke:#17AB4B;stroke-miterlimit:10;}
	.st27{font-size:10.0283px;}
	.st28{fill:#929497;}
	.st29{font-size:7.0789px;}
	.st30{fill:#E2332D;}
	.st31{fill:#30A5DC;}
	.st32{fill:none;stroke:#949597;stroke-miterlimit:10;}
	.st33{fill:none;stroke:#E23428;}
	.st34{fill:none;stroke:#30A5DC;stroke-width:2;}
	.st35{fill:none;stroke:#30A5DC;stroke-dasharray:2.52,2.52;}
	.st36{fill-rule:evenodd;clip-rule:evenodd;fill:#D1D1D3;}
	.st37{fill-rule:evenodd;clip-rule:evenodd;fill:#030303;}
	.st38{fill-rule:evenodd;clip-rule:evenodd;fill:#B7D335;}
	.st39{fill:#030303;}
	.st40{fill-rule:evenodd;clip-rule:evenodd;fill:#FFFFFF;}
	.st41{fill-rule:evenodd;clip-rule:evenodd;fill:#4E4A4C;}
	.st42{fill:#4E4A4C;}
	.st43{font-size:10px;}
	.st44{letter-spacing:2;}
	.st45{font-size:11.627px;}
	.st46{font-size:9.6891px;}
</style>










	
	
	
	
	

	
	
	
	
	
	
	
	
	
	

	
	
	
	
	
	
	
	
	
	
	
	
	
	
	

	
	
	
	
	
	
	
	
	

	
	
	
	

	
	
	
	
	


	
</defs><sodipodi:namedview
         id="namedview251"
         pagecolor="#505050"
         bordercolor="#eeeeee"
         borderopacity="1"
         inkscape:showpageshadow="0"
         inkscape:pageopacity="0"
         inkscape:pagecheckerboard="0"
         inkscape:deskcolor="#d1d1d1"
         inkscape:zoom="0.099087382"
         inkscape:cx="4289.1435"
         inkscape:cy="3592.7884"
         inkscape:window-width="1872"
         inkscape:window-height="1027"
         inkscape:window-x="62"
         inkscape:window-y="25"
         inkscape:window-maximized="1"
         inkscape:current-layer="svg251" /><rect
         style="fill:#0b1c14;fill-opacity:1;stroke:none;stroke-width:4.80679;stroke-linecap:round;stroke-linejoin:round;stroke-opacity:1;paint-order:markers fill stroke"
         id="rect252"
         width="7645.1934"
         height="5920.1934"
         x="2.4033203"
         y="2.4033203" /><path
         class="st2"
         d="m 5705.9911,1437.8065 c -49.2428,-1.2209 -45.987,-84.6487 2.8487,-84.6487 h 498.9388 c 48.8358,0 52.0915,83.4278 2.8488,85.0557 z"
         id="path2"
         style="stroke-width:4.06965" /><path
         class="st2"
         d="m 4603.9305,1437.8065 c -49.2427,-1.2209 -45.987,-84.6487 2.8488,-84.6487 h 498.9388 c 48.8357,0 52.0915,83.4278 2.8487,85.0557 z"
         id="path3"
         style="stroke-width:4.06965" /><path
         class="st2"
         d="m 5705.9911,4433.8811 c -49.2428,-1.2209 -45.987,-84.6487 2.8487,-84.6487 h 498.9388 c 48.8358,0 52.0915,83.4278 2.8488,85.0556 z"
         id="path4"
         style="stroke-width:4.06965" /><path
         class="st2"
         d="m 4603.9305,4433.8811 c -49.2427,-1.2209 -45.987,-84.6487 2.8488,-84.6487 h 498.9388 c 48.8357,0 52.0915,83.4278 2.8487,85.0556 z"
         id="path5"
         style="stroke-width:4.06965" /><path
         id="clipping"
         style="fill:#747474;fill-opacity:1;stroke:#7c7c7c;stroke-width:4.19521;stroke-linecap:round;stroke-linejoin:round;stroke-opacity:1;paint-order:markers fill stroke"
         d="m 4619.3943,36.6269 -36.627,73.254 h -512.7754 c 0,0 8.9533,0 0,511.1464 -0.4069,30.5224 12.2101,83.8351 -36.2187,135.5196 -88.3114,94.8228 -138.3679,-410.627 -183.541,-697.5371 l -365.8614,-0.4063 v 1308.7988 c 0.4069,-0.407 -76.5097,-27.6738 -76.5097,-27.6738 H 736.13646 v 100.9254 l -349.99023,-2.441 c -53.71935,-57.3816 -180.28388,-50.056 -263.30469,31.744 v 2853.637 c 33.37111,32.557 65.52031,47.614 106.2168,60.637 62.2656,20.349 100.92708,9.361 159.12304,-32.557 h 347.95508 v 100.928 H 3411.1169 l 73.2539,-28.895 0.4063,1310.426 h 365.8613 c 0,-15.871 88.719,-813.115 183.1348,-696.723 0,0 37.0339,23.198 36.6269,75.696 v 0.406 0.408 563.238 h 512.7754 l 36.627,73.254 h 476.1484 l 54.9395,-73.254 h 512.7754 l 45.9882,73.254 h 476.1485 l 45.5801,-73.254 h 512.7753 v -551.843 -0.409 -1.627 -9.359 -1.223 c -0.8139,-46.801 36.2188,-75.693 36.2188,-75.693 87.9044,-94.416 137.9617,409.812 183.1348,696.723 h 366.6757 v -1301.881 l 73.254,-73.252 v -1318.567 c -80.986,0 -146.5079,-65.521 -146.5079,-146.507 0,-80.986 65.5219,-146.508 146.5079,-146.508 v -1318.565 l -73.254,-73.2535 V 1354.7851 58.1953 l -366.6757,0.8145 c -5.2906,27.2666 -78.5434,790.7327 -179.4707,701.6074 0,0 -41.105,-41.5105 -40.2911,-86.6836 1.6279,-99.2994 0,-564.0527 0,-564.0527 h -512.7753 l -45.5801,-73.254 h -476.1485 l -45.9863,73.254 h -512.7754 l -54.9414,-73.254 z m -12.6153,1316.5313 h 498.9395 c 48.8357,0 52.0903,83.4277 2.8477,85.0547 l -504.6368,-0.406 c -49.2427,-1.22 -45.9862,-84.6487 2.8496,-84.6487 z m 1102.0606,0 h 498.9375 c 48.8358,0 52.0923,83.4277 2.8496,85.0547 l -504.6367,-0.406 c -49.2428,-1.22 -45.9861,-84.6487 2.8496,-84.6487 z M 4606.779,4363.4769 h 498.9395 c 48.8357,0 52.0903,83.426 2.8477,85.054 l -504.6368,-0.406 c -49.2427,-1.221 -45.9862,-84.648 2.8496,-84.648 z m 1102.0606,0 h 498.9375 c 48.8358,0 52.0923,83.426 2.8496,85.054 l -504.6367,-0.406 c -49.2428,-1.221 -45.9861,-84.648 2.8496,-84.648 z" /><line
         class="st8"
         x1="3481.5217"
         y1="1368.2156"
         x2="4041.0981"
         y2="1368.2156"
         id="line12"
         style="stroke-width:4.06965" /><line
         class="st8"
         x1="7330.1875"
         y1="1353.1578"
         x2="6775.4941"
         y2="1353.1578"
         id="line13"
         style="stroke-width:4.06965" /><line
         class="st8"
         x1="6742.5303"
         y1="675.96851"
         x2="4069.9929"
         y2="675.56152"
         id="line14"
         style="stroke-width:4.06965" /><path
         class="st8"
         d="m 6779.9711,751.25695 -2746.1982,0.81393 z"
         id="path14"
         style="stroke-width:4.06965" /><line
         class="st8"
         x1="4034.1797"
         y1="1353.1578"
         x2="4681.2539"
         y2="1353.1578"
         id="line15"
         style="stroke-width:4.06965" /><line
         class="st8"
         x1="5741.8037"
         y1="1353.1578"
         x2="5078.4512"
         y2="1353.1578"
         id="line16"
         style="stroke-width:4.06965" /><line
         class="st8"
         x1="6775.4941"
         y1="1353.1578"
         x2="6176.4424"
         y2="1353.1578"
         id="line17"
         style="stroke-width:4.06965" /><polyline
         class="st8"
         points="841.5,1086.9 966.2,1086.8 978.3,1086.8  "
         id="polyline17"
         transform="matrix(4.0696476,0,0,4.0696476,59.762003,0)" /><line
         class="st8"
         x1="6742.937"
         y1="5111.8843"
         x2="4071.2136"
         y2="5113.1055"
         id="line18"
         style="stroke-width:4.06965" /><path
         class="st8"
         d="M 6781.192,5037.4098 H 4034.5868 Z"
         id="path18"
         style="stroke-width:4.06965" /><line
         class="st8"
         x1="6777.1221"
         y1="4434.6948"
         x2="4035.4009"
         y2="4434.6948"
         id="line19"
         style="stroke-width:4.06965" /><line
         class="st8"
         x1="6775.4941"
         y1="4434.6948"
         x2="6775.4941"
         y2="1353.1578"
         id="line20"
         style="stroke-width:4.06965" /><polyline
         class="st8"
         points="978.2,1086.1 978.4,1086.1 978.2,335.4  "
         id="polyline20"
         transform="matrix(4.0696476,0,0,4.0696476,59.762003,0)" /><line
         class="st8"
         x1="7330.1875"
         y1="4434.6948"
         x2="6775.4941"
         y2="4434.6948"
         id="line21"
         style="stroke-width:4.06965" /><path
         class="st8"
         d="M 3402.5705,4454.2293 V 1345.0185 m -2637.1316,97.2646 v 2910.612"
         id="path21"
         style="stroke-width:4.06965" /><path
         class="st9"
         d="m 4534.7465,1390.1916 c -2.0348,48.0219 28.4875,76.9164 70.8119,77.7303 h 501.3806 c 50.8706,-0.8139 73.2536,-23.197 74.0675,-78.1372 h 454.9866 c -2.4417,42.7313 14.6508,77.7302 72.8467,79.3581 h 501.3806 c 40.6965,-3.6627 74.0676,-14.6507 71.6258,-78.1373 h 457.0214 l -2.4417,3004.2139 H 6283.881 c 5.2906,-45.1731 -28.8945,-74.4745 -71.2188,-75.6954 h -501.3806 c -40.6965,3.6626 -71.6258,14.2437 -69.5909,78.1372 h -465.1608 c 0.407,-58.6029 -30.5223,-76.9163 -72.8467,-78.1372 h -501.3805 c -40.6965,3.6626 -72.8467,15.0577 -71.2189,78.1372 H 4078.132 V 1389.7847 Z"
         id="path22"
         style="stroke-width:4.06965" /><rect
         x="4103.3638"
         y="5149.3252"
         class="st9"
         width="2600.5049"
         height="491.20645"
         id="rect22"
         style="stroke-width:4.06965" /><rect
         x="4097.6665"
         y="4470.9146"
         class="st9"
         width="2673.7585"
         height="529.46118"
         id="rect23"
         style="stroke-width:4.06965" /><rect
         x="802.06567"
         y="1376.3549"
         class="st9"
         width="2563.8779"
         height="3039.2129"
         id="rect24"
         style="stroke-width:4.06965" /><path
         class="st10"
         d="M 692.18524,4314.2334 H 371.49701 c -8.54626,0 -16.68556,3.2557 -22.79003,9.7672 -54.12631,53.7193 -118.01978,36.2198 -188.83165,-19.1274 0,0 0,-2816.6031 0,-2816.6031 70.81187,-56.1611 134.29837,-71.2188 189.64558,-19.9412 6.10447,5.6975 13.8368,8.9532 21.9761,8.9532 l 319.06037,0.4069 2.03482,0.407 v 2836.1374 z"
         id="path24"
         style="stroke-width:4.06965" /><polygon
         class="st9"
         points="832.5,339.1 848.8,345.8 969.3,346.1 969.3,1077.8 848.5,1077.8 832.3,1085 830.4,1085 830.4,339.1 "
         id="polygon24"
         transform="matrix(4.0696476,0,0,4.0696476,59.762003,0)" /><path
         class="st9"
         d="m 7364.7794,2711.6062 c -0.4069,-439.5219 -0.8139,-842.824 -1.6278,-1282.346 l -34.1851,-32.1502 h -517.2522 l 2.4418,3019.2716 h 4.8836 v -11.395 h 476.9627 l 33.3711,-9.3602 33.7781,-34.999 V 3077.0606 c -77.7303,-0.407 -158.7163,-66.3353 -157.9023,-191.2735 0.8139,-117.2058 85.0556,-174.5879 159.5301,-174.1809 z"
         id="path25"
         style="stroke-width:4.06965" /><rect
         x="4069.179"
         y="788.29071"
         class="st9"
         width="2673.7585"
         height="529.46118"
         id="rect25"
         style="stroke-width:4.06965" /><rect
         x="4107.8403"
         y="146.50731"
         class="st9"
         width="2600.5049"
         height="491.20645"
         id="rect26"
         style="stroke-width:4.06965" /><polygon
         class="st11"
         points="3906.7,1256.8 3906.7,1256.9 "
         id="polygon26"
         style="stroke:none"
         transform="matrix(4.0696476,0,0,4.0696476,59.762003,0)" /><path
         class="st12"
         d="m 7328.1526,4432.6602 v 1301.8802 h -366.6752 c -45.1731,-286.9101 -95.2298,-791.1395 -183.1342,-696.7236 0,0 -37.0338,28.8945 -36.2198,75.6954 v 10.5811 c 0,0.8139 0,1.2209 0,2.0348 0,0 0,0.407 0,0 0,0 0,-0.4069 0,-0.4069 v -10.9881 -0.8139 0 0 c 0,0.4069 0,0.4069 0,0.8139 v -6.9184 570.1576 h -512.7756 l -45.5801,73.2537 h -476.1488 l -45.987,-73.2537 h -512.7756 l -54.9402,73.2537 h -476.1488 l -36.6268,-73.2537 h -512.7756 v -563.2392 -0.407 c 0,0 0,-0.4069 0,-0.4069 v 0 0.8139 c -0.407,26.4527 0,-0.407 0,-0.8139 0.407,-52.4985 -36.6268,-75.6955 -36.6268,-75.6955 -94.4159,-116.3919 -183.1342,680.8521 -183.1342,696.7237 h -366.2683 l -0.4069,-1310.4265 -73.2537,28.8945 H 734.10261 V 4352.4881 H 386.14774 c -58.19596,41.9174 -96.85761,52.9054 -159.12322,32.5572 -40.69648,-13.0229 -72.84669,-28.0806 -106.2178,-60.6378 V 1470.7706 c 83.02081,-81.7999 209.58685,-89.1252 263.3062,-31.7432 l 349.98969,2.4418 V 1340.5419 H 3405.8263 c 0,0 76.9163,27.2667 76.5093,27.6736 V 59.416855 l 365.8614,0.406965 c 45.173,286.91016 95.2297,792.36039 183.5411,697.5376 48.4288,-51.68453 35.8129,-104.99691 36.2198,-135.51927 8.9532,-511.14774 0,-511.14774 0,-511.14774 h 512.7756 l 36.6269,-73.253652 h 476.1487 l 54.9403,73.253652 h 512.7756 l 45.987,-73.253652 h 476.1487 l 45.5801,73.253652 h 512.7756 c 0,0 1.6279,464.75376 0,564.05316 -0.8139,45.17309 40.2895,86.6835 40.2895,86.6835 100.9273,89.12528 174.1809,-674.340611 179.4715,-701.60725 l 366.6752,-0.81393 v 1296.58971 0.407 l 73.2537,73.2536 v 1318.5659 0 c -80.986,0 -146.5073,65.5213 -146.5073,146.5073 0,80.986 65.5213,146.5073 146.5073,146.5073 v 0 1318.5658 z"
         id="path26"
         style="stroke:none;stroke-width:4.06965" /><path
         class="st12"
         d="m 5704.7702,1437.3995 c -49.2427,-1.2209 -45.987,-84.6486 2.8487,-84.6486 h 498.9388 c 48.8358,0 52.0915,83.4277 2.8488,85.0556 z"
         id="path27"
         style="stroke:none;stroke-width:4.06965" /><path
         class="st12"
         d="m 4602.7096,1437.3995 c -49.2427,-1.2209 -45.987,-84.6486 2.8488,-84.6486 h 498.9388 c 48.8357,0 52.0915,83.4277 2.8487,85.0556 z"
         id="path28"
         style="stroke:none;stroke-width:4.06965" /><path
         class="st12"
         d="m 5704.7702,4433.8811 c -49.2427,-1.2209 -45.987,-84.6487 2.8487,-84.6487 h 498.9388 c 48.8358,0 52.0915,83.4278 2.8488,85.0556 z"
         id="path29"
         style="stroke:none;stroke-width:4.06965" /><path
         class="st12"
         d="m 4602.7096,4433.8811 c -49.2427,-1.2209 -45.987,-84.6487 2.8488,-84.6487 h 498.9388 c 48.8357,0 52.0915,83.4278 2.8487,85.0556 z"
         id="path30"
         style="stroke:none;stroke-width:4.06965" /><polyline
         class="st12"
         points="978.3,336.2 976.6,332.5 976.6,186.1  "
         id="polyline30"
         style="stroke:none"
         transform="matrix(4.0696476,0,0,4.0696476,59.762003,0)" /><line
         class="st12"
         x1="6781.1919"
         y1="761.02411"
         x2="6781.1919"
         y2="1353.1578"
         id="line30"
         style="stroke:none;stroke-width:4.06965" /><line
         class="st12"
         x1="6781.1919"
         y1="4436.7295"
         x2="6781.1919"
         y2="5037.4102"
         id="line31"
         style="stroke:none;stroke-width:4.06965" /><polyline
         class="st12"
         points="978.3,1086.8 976.5,1094.1 976.5,1237.8  "
         id="polyline31"
         style="stroke:none"
         transform="matrix(4.0696476,0,0,4.0696476,59.762003,0)" /><rect
         style="fill:#000000;fill-opacity:1;stroke:#7c7c7c;stroke-width:4.167;stroke-linecap:round;stroke-linejoin:round;stroke-opacity:1;paint-order:markers fill stroke"
         id="rect253"
         width="50.46051"
         height="50.46051"
         x="6943.3667"
         y="5328.6299" /></svg>
