<?xml version="1.0" encoding="UTF-8" standalone="no"?>
<!-- Created with Inkscape (http://www.inkscape.org/) -->

<svg
     width="2550"
     height="1125"
     viewBox="0 0 2550 1125"
     version="1.1"
     id="svg5"
     xml:space="preserve"
     inkscape:version="1.4 (e7c3feb1, 2024-10-09)"
     sodipodi:docname="MintTinAccordion4.svg"
     xmlns:inkscape="http://www.inkscape.org/namespaces/inkscape"
     xmlns:sodipodi="http://sodipodi.sourceforge.net/DTD/sodipodi-0.dtd"
     xmlns="http://www.w3.org/2000/svg"
     xmlns:svg="http://www.w3.org/2000/svg"><sodipodi:namedview
         id="namedview7"
         pagecolor="#ffffff"
         bordercolor="#999999"
         borderopacity="1"
         inkscape:showpageshadow="0"
         inkscape:pageopacity="0"
         inkscape:pagecheckerboard="0"
         inkscape:deskcolor="#d1d1d1"
         inkscape:document-units="mm"
         showgrid="false"
         inkscape:zoom="0.2287265"
         inkscape:cx="1700.7212"
         inkscape:cy="1517.0957"
         inkscape:window-width="1872"
         inkscape:window-height="1027"
         inkscape:window-x="62"
         inkscape:window-y="25"
         inkscape:window-maximized="1"
         inkscape:current-layer="layer1" /><defs
         id="defs2" /><g
         inkscape:label="Layer 1"
         inkscape:groupmode="layer"
         id="layer1"
         transform="translate(-1351.9899,-34.976223)"><rect
             style="fill:#1a1a1a;stroke-width:4.79274;paint-order:markers fill stroke;fill-opacity:1"
             id="rect908"
             width="2550"
             height="1125"
             x="1351.9899"
             y="34.976223" /><path
             id="clipping"
             style="color:#000000;solid-color:#000000;fill:#686868;fill-opacity:1;stroke-width:232.334;stroke-linejoin:round;-inkscape-stroke:none;paint-order:markers fill stroke"
             d="M 1517.2672 80.194973 A 119.32735 113.11317 0 0 0 1397.9528 193.29849 L 1397.9528 1001.654 A 119.32735 113.11317 0 0 0 1517.2672 1114.7575 L 1894.5094 1114.7575 A 119.32735 113.11317 0 0 0 2012.9235 1008.1422 A 119.32735 113.11317 0 0 0 2131.3356 1114.7575 L 2508.5778 1114.7575 A 119.32735 113.11317 0 0 0 2626.9899 1008.1461 A 119.32735 113.11317 0 0 0 2745.402 1114.7575 L 3122.6442 1114.7575 A 119.32735 113.11317 0 0 0 3241.0563 1008.1403 A 119.32735 113.11317 0 0 0 3359.4704 1114.7575 L 3736.7126 1114.7575 A 119.32735 113.11317 0 0 0 3856.027 1001.654 L 3856.027 193.29849 A 119.32735 113.11317 0 0 0 3736.7126 80.194973 L 3359.4704 80.194973 A 119.32735 113.11317 0 0 0 3241.0563 186.81021 A 119.32735 113.11317 0 0 0 3122.6442 80.194973 L 2745.402 80.194973 A 119.32735 113.11317 0 0 0 2626.9899 186.8063 A 119.32735 113.11317 0 0 0 2508.5778 80.194973 L 2131.3356 80.194973 A 119.32735 113.11317 0 0 0 2012.9235 186.81021 A 119.32735 113.11317 0 0 0 1894.5094 80.194973 L 1517.2672 80.194973 z " /><path
             id="path1"
             style="color:#000000;solid-color:#000000;fill:#686868;fill-opacity:1;stroke-width:232.334;stroke-linejoin:round;-inkscape-stroke:none;paint-order:markers fill stroke"
             d="M 1517.2676,80.195111 A 119.32735,113.11317 0 0 0 1397.9533,193.29786 v 808.35694 a 119.32735,113.11317 0 0 0 119.3143,113.1024 h 377.2427 a 119.32735,113.11317 0 0 0 119.3144,-113.1024 V 193.29786 A 119.32735,113.11317 0 0 0 1894.5103,80.195111 Z" /><path
             id="path2"
             style="color:#000000;solid-color:#000000;fill:#686868;fill-opacity:1;stroke-width:232.334;stroke-linejoin:round;-inkscape-stroke:none;paint-order:markers fill stroke"
             d="M 2131.3348,80.195111 A 119.32735,113.11317 0 0 0 2012.0205,193.29786 v 808.35694 a 119.32735,113.11317 0 0 0 119.3143,113.1024 h 377.2427 a 119.32735,113.11317 0 0 0 119.3144,-113.1024 V 193.29786 A 119.32735,113.11317 0 0 0 2508.5775,80.195111 Z" /><path
             id="path3"
             style="color:#000000;solid-color:#000000;fill:#686868;fill-opacity:1;stroke-width:232.334;stroke-linejoin:round;-inkscape-stroke:none;paint-order:markers fill stroke"
             d="M 2745.4021,80.195111 A 119.32735,113.11317 0 0 0 2626.0877,193.29786 v 808.35694 a 119.32735,113.11317 0 0 0 119.3144,113.1024 h 377.2427 a 119.32735,113.11317 0 0 0 119.3143,-113.1024 V 193.29786 A 119.32735,113.11317 0 0 0 3122.6448,80.195111 Z" /><path
             id="path4"
             style="color:#000000;solid-color:#000000;fill:#686868;fill-opacity:1;stroke-width:232.334;stroke-linejoin:round;-inkscape-stroke:none;paint-order:markers fill stroke"
             d="M 3359.4694,80.195111 A 119.32735,113.11317 0 0 0 3240.155,193.29786 v 808.35694 a 119.32735,113.11317 0 0 0 119.3144,113.1024 h 377.2427 a 119.32735,113.11317 0 0 0 119.3143,-113.1024 V 193.29786 A 119.32735,113.11317 0 0 0 3736.7121,80.195111 Z" /><path
             id="path978"
             style="color:#000000;solid-color:#000000;fill:#c9c9c9;fill-opacity:1;stroke-width:207.6;stroke-linejoin:round;-inkscape-stroke:none;paint-order:markers fill stroke"
             d="m 1541.7952,122.738 a 103.81038,103.81038 0 0 0 -103.7988,103.8008 v 741.875 a 103.81038,103.81038 0 0 0 103.7988,103.8006 h 328.1875 A 103.81038,103.81038 0 0 0 1973.7816,968.4138 V 226.5388 A 103.81038,103.81038 0 0 0 1869.9827,122.738 Z" /><path
             id="path978-0"
             style="color:#000000;solid-color:#000000;fill:#c9c9c9;fill-opacity:1;stroke-width:207.6;stroke-linejoin:round;-inkscape-stroke:none;paint-order:markers fill stroke"
             d="m 2155.8624,122.738 a 103.81038,103.81038 0 0 0 -103.7988,103.8008 v 741.875 a 103.81038,103.81038 0 0 0 103.7988,103.8006 h 328.1875 A 103.81038,103.81038 0 0 0 2587.8488,968.4138 V 226.5388 A 103.81038,103.81038 0 0 0 2484.0499,122.738 Z" /><path
             id="path978-8"
             style="color:#000000;solid-color:#000000;fill:#c9c9c9;fill-opacity:1;stroke-width:207.6;stroke-linejoin:round;-inkscape-stroke:none;paint-order:markers fill stroke"
             d="m 2769.9297,122.738 a 103.81038,103.81038 0 0 0 -103.7989,103.8008 v 741.875 a 103.81038,103.81038 0 0 0 103.7989,103.8006 h 328.1875 A 103.81038,103.81038 0 0 0 3201.916,968.4138 V 226.5388 A 103.81038,103.81038 0 0 0 3098.1172,122.738 Z" /><path
             id="path978-1"
             style="color:#000000;solid-color:#000000;fill:#c9c9c9;fill-opacity:1;stroke-width:207.6;stroke-linejoin:round;-inkscape-stroke:none;paint-order:markers fill stroke"
             d="m 3383.997,122.738 a 103.81038,103.81038 0 0 0 -103.7989,103.8008 v 741.875 a 103.81038,103.81038 0 0 0 103.7989,103.8006 h 328.1875 A 103.81038,103.81038 0 0 0 3815.9833,968.4138 V 226.5388 A 103.81038,103.81038 0 0 0 3712.1845,122.738 Z" /><rect
             style="fill:#c9c9c9;fill-opacity:1;stroke-width:4.19155;stroke-linecap:round;stroke-linejoin:round;paint-order:markers fill stroke"
             id="rect9"
             width="1508.3517"
             height="678.12366"
             x="1872.8141"
             y="257.73813" /></g></svg>
