<?xml version="1.0" encoding="UTF-8" standalone="no"?>
<!-- Generator: Adobe Illustrator 16.0.0, SVG Export Plug-In . SVG Version: 6.00 Build 0)  -->

<svg
     version="1.1"
     id="Layer_1"
     x="0px"
     y="0px"
     width="750"
     height="1125"
     viewBox="0 0 750 1125"
     xml:space="preserve"
     sodipodi:docname="MintTinDeck.svg"
     inkscape:version="1.4 (e7c3feb1, 2024-10-09)"
     xmlns:inkscape="http://www.inkscape.org/namespaces/inkscape"
     xmlns:sodipodi="http://sodipodi.sourceforge.net/DTD/sodipodi-0.dtd"
     xmlns="http://www.w3.org/2000/svg"
     xmlns:svg="http://www.w3.org/2000/svg"><defs
     id="defs499" /><sodipodi:namedview
     id="namedview497"
     pagecolor="#ffffff"
     bordercolor="#999999"
     borderopacity="1"
     inkscape:showpageshadow="0"
     inkscape:pageopacity="0"
     inkscape:pagecheckerboard="0"
     inkscape:deskcolor="#d1d1d1"
     showgrid="false"
     inkscape:zoom="0.23773148"
     inkscape:cx="412.2298"
     inkscape:cy="677.23467"
     inkscape:window-width="1392"
     inkscape:window-height="997"
     inkscape:window-x="62"
     inkscape:window-y="25"
     inkscape:window-maximized="0"
     inkscape:current-layer="Layer_1" />
<style
     type="text/css"
     id="style2">

</style>


<path
     class="st23"
     d="M 0,0 V 1125 H 750 V 0 Z"
     id="path4"
     style="fill:#ffffff;fill-opacity:1;stroke-width:4.16666"
     sodipodi:nodetypes="ccccc" /><path
     style="fill:#909090;fill-opacity:1;stroke:none;stroke-width:21.4627;stroke-linejoin:round;paint-order:markers stroke fill"
     d="m 176.66991,1072.6401 c -28.6388,-6.3976 -47.65653,-16.7885 -68.08521,-37.2005 -15.520984,-15.5084 -25.628,-31.818 -33.518156,-54.08794 L 69.406038,965.37487 V 562.60956 159.84421 l 5.9387,-16.80552 C 83.228372,120.72934 93.298306,104.61691 109.26123,88.770487 124.67823,73.466 139.878,63.916619 161.24368,56.112078 l 15.42623,-5.634959 H 374.37197 572.074 l 16.35969,5.789043 c 44.05206,15.588263 76.74122,50.832328 89.2419,96.216798 3.55688,12.9134 3.7655,35.63795 3.7655,410.1266 0,376.69691 -0.19031,397.13703 -3.82075,410.12656 -10.88668,38.95318 -37.11712,71.56288 -70.84331,88.07238 -31.30581,15.3247 -25.06531,14.9277 -232.40506,14.7814 -146.65904,-0.1034 -187.70258,-0.716 -197.70206,-2.9498 z"
     id="clipping" /><path
     class="st0"
     d="m 203.75686,1039.3016 c -54.1666,0 -97.9166,-44.58332 -97.9166,-99.16666 V 185.96827 c 0,-54.58334 43.75,-99.16667 97.9166,-99.16667 h 343.33339 c 54.16663,0 97.91663,44.58333 97.91663,99.16667 v 753.75001 c 0,54.58335 -43.75,99.16662 -97.91663,99.16662 H 203.75686 Z"
     id="path8"
     style="fill:#1d1d1d;fill-opacity:1;stroke:none;stroke-width:4.16666" />

</svg>
