<?xml version="1.0" encoding="UTF-8" standalone="no"?>
<svg
     version="1.1"
     x="0px"
     y="0px"
     width="2100"
     height="1800"
     viewBox="0 0 2100 1800"
     enable-background="new 0 0 504 432"
     xml:space="preserve"
     id="svg223"
     sodipodi:docname="PokerTuckbox36.svg"
     inkscape:version="1.4 (e7c3feb1, 2024-10-09)"
     xmlns:inkscape="http://www.inkscape.org/namespaces/inkscape"
     xmlns:sodipodi="http://sodipodi.sourceforge.net/DTD/sodipodi-0.dtd"
     xmlns="http://www.w3.org/2000/svg"
     xmlns:svg="http://www.w3.org/2000/svg"><defs
         id="defs223">





	
	
		
	
	
	
	
	
	

	
	
	
	
	
	
	
	
	
	
	
	
	
	
	
	
	
	
	
	
	
	
	
	
	

	

	

		
		
	
			
			
			
			
			
			
			
			
			
			
			
			
			
			
			
			
		
			
		</defs><sodipodi:namedview
         id="namedview223"
         pagecolor="#505050"
         bordercolor="#eeeeee"
         borderopacity="1"
         inkscape:showpageshadow="0"
         inkscape:pageopacity="0"
         inkscape:pagecheckerboard="0"
         inkscape:deskcolor="#d1d1d1"
         inkscape:zoom="0.35355339"
         inkscape:cx="1262.8927"
         inkscape:cy="1015.4053"
         inkscape:window-width="1872"
         inkscape:window-height="1027"
         inkscape:window-x="62"
         inkscape:window-y="25"
         inkscape:window-maximized="1"
         inkscape:current-layer="svg223" /><polygon
         fill="#929497"
         points="504,0 0,0 0,432 504,432 "
         id="polygon1"
         transform="matrix(4.1666667,0,0,4.1666667,-8.4000002e-6,-7.2e-6)" /><path
         id="clipping"
         style="fill:#797979;stroke-width:4.16667;stroke:none;fill-opacity:1"
         d="M 352.49609 36.121094 C 269.66275 36.121094 202.49609 103.24609 202.49609 186.12109 L 202.49609 201.12109 L 187.49609 201.12109 C 104.66275 201.12109 37.496094 268.24609 37.496094 351.12109 L 37.496094 1409.4551 L 37.496094 1409.459 C 37.496094 1492.2924 104.66275 1559.459 187.49609 1559.459 L 202.49609 1559.459 L 202.49219 1559.4551 L 202.49609 1559.4551 L 202.49609 1559.459 L 202.49609 1574.4551 C 202.49609 1657.2884 269.66275 1724.4551 352.49609 1724.4551 L 810.83008 1724.4551 C 893.70509 1724.4551 960.83008 1657.2884 960.83008 1574.4551 L 960.83008 1559.459 L 960.83008 1559.4551 L 960.83398 1559.4551 L 960.83008 1559.459 L 975.87109 1559.459 C 1058.7045 1559.459 1125.8301 1492.2924 1125.8301 1409.459 L 1125.8301 1409.4551 L 1884.1621 1409.4551 L 1884.1621 1409.459 L 2019.1621 1409.459 L 2019.1621 351.12109 L 2019.1582 351.12109 L 1884.1621 351.12109 L 1579.9961 351.12109 L 1429.9961 351.12109 L 1125.8301 351.12109 C 1125.8301 268.24609 1058.7045 201.12109 975.87109 201.12109 L 960.83008 201.12109 L 960.83008 186.12109 C 960.83008 103.24609 893.70509 36.121094 810.83008 36.121094 L 352.49609 36.121094 z " /><g
         id="XMLID_1_"
         transform="matrix(4.1666667,0,0,4.1666667,-8.4000002e-6,-7.2e-6)"
         style="fill:none">
		<g
     id="g1"
     style="fill:none">
			<path
     fill="#ffffff"
     d="m 230.599,377.869 c 0,19.88 -16.11,36 -36,36 h -110 c -19.88,0 -36,-16.12 -36,-36 v -3.6 h -3.6 c -19.88,0 -36,-16.12 -36,-36 v -254 c 0,-19.89 16.12,-36 36,-36 h 3.6 v -3.6 c 0,-19.89 16.12,-36 36,-36 h 110 c 19.89,0 36,16.11 36,36 v 3.6 h 3.61 c 19.88,0 35.99,16.11 35.99,36 h 73 c 0,22 36,22 36,0 h 73 32.399 v 254 h -32.399 -182 c 0,19.88 -16.11,36 -35.99,36 h -3.61 z"
     id="path1"
     style="fill:none" />
		</g>
		<g
     id="g10"
     style="fill:none">
			<line
     fill="none"
     stroke="#ec1c24"
     stroke-miterlimit="10"
     x1="8.9989996"
     y1="338.26999"
     x2="8.9989996"
     y2="84.268997"
     id="line1"
     style="fill:none" />
			<path
     fill="none"
     stroke="#ec1c24"
     stroke-miterlimit="10"
     d="m 452.199,84.269 h -73 c 0,22 -36,22 -36,0 h -73"
     id="path2"
     style="fill:none" />
			<polyline
     fill="none"
     stroke="#ec1c24"
     stroke-miterlimit="10"
     points="452.199,338.27 484.599,338.27 484.599,84.269      452.199,84.269    "
     id="polyline2"
     style="fill:none" />
			<path
     fill="none"
     stroke="#ec1c24"
     stroke-miterlimit="10"
     d="m 8.999,84.269 c 0,-19.89 16.12,-36 36,-36 h 3.6"
     id="path3"
     style="fill:none" />
			<path
     fill="none"
     stroke="#ec1c24"
     stroke-miterlimit="10"
     d="m 270.199,84.269 c 0,-19.89 -16.11,-36 -35.99,-36 h -3.61"
     id="path4"
     style="fill:none" />
			<polyline
     fill="none"
     stroke="#ec1c24"
     stroke-miterlimit="10"
     points="48.599,113.069 48.599,48.269 48.599,44.669      77.399,44.669    "
     id="polyline4"
     style="fill:none" />
			<polyline
     fill="none"
     stroke="#ec1c24"
     stroke-miterlimit="10"
     points="230.599,113.069 230.599,48.269 230.599,44.669      201.799,44.669    "
     id="polyline5"
     style="fill:none" />
			<path
     fill="none"
     stroke="#ec1c24"
     stroke-miterlimit="10"
     d="m 48.599,44.669 c 0,-19.89 16.12,-36 36,-36 h 110"
     id="path5"
     style="fill:none" />
			<path
     fill="none"
     stroke="#ec1c24"
     stroke-miterlimit="10"
     d="m 230.599,44.669 c 0,-19.89 -16.11,-36 -36,-36"
     id="path6"
     style="fill:none" />
			<line
     fill="none"
     stroke="#ec1c24"
     stroke-miterlimit="10"
     x1="270.19901"
     y1="338.26999"
     x2="452.19901"
     y2="338.26999"
     id="line6"
     style="fill:none" />
			<path
     fill="none"
     stroke="#ec1c24"
     stroke-miterlimit="10"
     d="m 8.999,338.27 c 0,19.88 16.12,36 36,36 h 3.6"
     id="path7"
     style="fill:none" />
			<path
     fill="none"
     stroke="#ec1c24"
     stroke-miterlimit="10"
     d="m 270.199,338.27 c 0,19.88 -16.11,36 -35.99,36 h -3.61"
     id="path8"
     style="fill:none" />
			<polyline
     fill="none"
     stroke="#ec1c24"
     stroke-miterlimit="10"
     points="48.599,338.27 48.599,374.27 48.599,377.869      77.399,377.869    "
     id="polyline8"
     style="fill:none" />
			<polyline
     fill="none"
     stroke="#ec1c24"
     stroke-miterlimit="10"
     points="230.599,338.27 230.599,374.27 230.599,377.869      201.799,377.869    "
     id="polyline9"
     style="fill:none" />
			<path
     fill="none"
     stroke="#ec1c24"
     stroke-miterlimit="10"
     d="m 48.599,377.869 c 0,19.88 16.12,36 36,36 h 110"
     id="path9"
     style="fill:none" />
			<path
     fill="none"
     stroke="#ec1c24"
     stroke-miterlimit="10"
     d="m 194.599,413.869 c 19.89,0 36,-16.12 36,-36"
     id="path10"
     style="fill:none" />
		</g>
	</g><rect
         x="202.21666"
         y="470.60834"
         fill="none"
         stroke="#8bc53f"
         stroke-miterlimit="10"
         width="758.33331"
         height="938.33331"
         id="rect10"
         style="stroke-width:4.16667" /><line
         fill="none"
         stroke="#8bc53f"
         stroke-width="4.3625"
         stroke-miterlimit="10"
         x1="202.21666"
         y1="1408.9417"
         x2="37.516659"
         y2="1408.9417"
         id="line10" /><line
         fill="none"
         stroke="#8bc53f"
         stroke-width="4.3625"
         stroke-miterlimit="10"
         x1="202.21666"
         y1="350.60834"
         x2="37.516659"
         y2="350.60834"
         id="line11" /><polyline
         fill="none"
         stroke="#8bc53f"
         stroke-width="1.0506"
         stroke-miterlimit="10"
         points="230.531,338.146 270.204,338.146    270.204,84.146 230.531,84.146  "
         id="polyline11"
         transform="matrix(4.1666667,0,0,4.1666667,-8.4000002e-6,-7.2e-6)" /><line
         fill="none"
         stroke="#8bc53f"
         stroke-miterlimit="10"
         x1="1884.1833"
         y1="1408.9417"
         x2="1884.1833"
         y2="350.60834"
         id="line12"
         style="stroke-width:4.16667" /><line
         fill="none"
         stroke="#8bc53f"
         stroke-miterlimit="10"
         x1="322.21667"
         y1="186.10001"
         x2="840.54584"
         y2="186.10001"
         id="line13"
         style="stroke-width:4.16667" /><line
         fill="none"
         stroke="#8bc53f"
         stroke-miterlimit="10"
         x1="202.65416"
         y1="350.60834"
         x2="960.98749"
         y2="350.60834"
         id="line14"
         style="stroke-width:4.16667" /><line
         fill="none"
         stroke="#8bc53f"
         stroke-miterlimit="10"
         x1="322.21667"
         y1="1574.4333"
         x2="840.54584"
         y2="1574.4333"
         id="line15"
         style="stroke-width:4.16667" /><g
         id="g23"
         transform="matrix(4.1666667,0,0,4.1666667,-8.4000002e-6,-7.2e-6)">
		<g
     id="g22">
			<g
     id="g21">
				<path
     fill="none"
     stroke="#00adee"
     stroke-miterlimit="10"
     d="m 390.009,93.627 h -2.5 c -0.086,0.529 -0.262,1.073 -0.549,1.623 -0.119,0.231 -0.242,0.461 -0.369,0.689"
     id="path15" />
				<path
     fill="none"
     stroke="#00adee"
     stroke-miterlimit="10"
     stroke-dasharray="4.6962, 4.6962"
     d="m 383.995,99.848 c -5.797,7.368 -14.961,11.737 -24.537,10.683 -8.59,-0.945 -17.525,-4.833 -21.881,-12.418"
     id="path16" />
				<path
     fill="none"
     stroke="#00adee"
     stroke-miterlimit="10"
     d="m 336.534,96.019 c -0.133,-0.315 -0.26,-0.637 -0.379,-0.963 -0.184,-0.501 -0.279,-0.977 -0.311,-1.428 h -2.5"
     id="path17" />
				
					<line
     fill="none"
     stroke="#00adee"
     stroke-miterlimit="10"
     stroke-dasharray="4.5939, 4.5939"
     x1="328.75101"
     y1="93.626999"
     x2="285.108"
     y2="93.626999"
     id="line17" />
				<polyline
     fill="none"
     stroke="#00adee"
     stroke-miterlimit="10"
     points="282.812,93.627 280.312,93.627 280.312,96.127     "
     id="polyline17" />
				
					<line
     fill="none"
     stroke="#00adee"
     stroke-miterlimit="10"
     stroke-dasharray="4.924, 4.924"
     x1="280.31201"
     y1="101.052"
     x2="280.31201"
     y2="325.09601"
     id="line18" />
				<polyline
     fill="none"
     stroke="#00adee"
     stroke-miterlimit="10"
     points="280.312,327.557 280.312,330.057 282.812,330.057           "
     id="polyline18" />
				
					<line
     fill="none"
     stroke="#00adee"
     stroke-miterlimit="10"
     stroke-dasharray="5.1398, 5.1398"
     x1="287.95001"
     y1="330.05701"
     x2="439.573"
     y2="330.05701"
     id="line19" />
				<polyline
     fill="none"
     stroke="#00adee"
     stroke-miterlimit="10"
     points="442.144,330.057 444.644,330.057 444.644,327.557           "
     id="polyline19" />
				
					<line
     fill="none"
     stroke="#00adee"
     stroke-miterlimit="10"
     stroke-dasharray="4.924, 4.924"
     x1="444.64401"
     y1="322.633"
     x2="444.64401"
     y2="98.588997"
     id="line20" />
				<polyline
     fill="none"
     stroke="#00adee"
     stroke-miterlimit="10"
     points="444.644,96.127 444.644,93.627 442.144,93.627     "
     id="polyline20" />
				
					<line
     fill="none"
     stroke="#00adee"
     stroke-miterlimit="10"
     stroke-dasharray="4.7396, 4.7396"
     x1="437.405"
     y1="93.626999"
     x2="392.37799"
     y2="93.626999"
     id="line21" />
			</g>
		</g>
	</g><rect
         x="1935.2167"
         y="385.94165"
         fill="#e6e6e6"
         width="66.904167"
         height="999.99579"
         id="rect23"
         style="stroke-width:4.16667" /><g
         id="g201"
         transform="matrix(4.1666667,0,0,4.1666667,-8.4000002e-6,-7.2e-6)">
		<g
     id="g200">
			<g
     id="g199">
				<polyline
     fill="none"
     stroke="#00adee"
     stroke-miterlimit="10"
     points="221.519,326.326 221.519,328.826 219.019,328.826           "
     id="polyline196" />
				
					<line
     fill="none"
     stroke="#00adee"
     stroke-miterlimit="10"
     stroke-dasharray="5.1398, 5.1398"
     x1="213.879"
     y1="328.82599"
     x2="62.255001"
     y2="328.82599"
     id="line196" />
				<polyline
     fill="none"
     stroke="#00adee"
     stroke-miterlimit="10"
     points="59.685,328.826 57.185,328.826 57.185,326.326     "
     id="polyline197" />
				
					<line
     fill="none"
     stroke="#00adee"
     stroke-miterlimit="10"
     stroke-dasharray="4.924, 4.924"
     x1="57.185001"
     y1="321.40201"
     x2="57.185001"
     y2="97.358002"
     id="line197" />
				<polyline
     fill="none"
     stroke="#00adee"
     stroke-miterlimit="10"
     points="57.185,94.896 57.185,92.396 59.685,92.396     "
     id="polyline198" />
				
					<line
     fill="none"
     stroke="#00adee"
     stroke-miterlimit="10"
     stroke-dasharray="5.1398, 5.1398"
     x1="64.824997"
     y1="92.396004"
     x2="216.44901"
     y2="92.396004"
     id="line198" />
				<polyline
     fill="none"
     stroke="#00adee"
     stroke-miterlimit="10"
     points="219.019,92.396 221.519,92.396 221.519,94.896     "
     id="polyline199" />
				
					<line
     fill="none"
     stroke="#00adee"
     stroke-miterlimit="10"
     stroke-dasharray="4.924, 4.924"
     x1="221.519"
     y1="99.82"
     x2="221.519"
     y2="323.86301"
     id="line199" />
			</g>
		</g>
	</g><g
         id="g207"
         transform="matrix(4.1666667,0,0,4.1666667,-8.4000002e-6,-7.2e-6)">
		<g
     id="g206">
			<g
     id="g205">
				<polyline
     fill="none"
     stroke="#00adee"
     stroke-width="1.0795"
     stroke-miterlimit="10"
     points="39.856,326.326 39.856,328.826       35.132,328.826     "
     id="polyline202" />
				<polyline
     fill="none"
     stroke="#00adee"
     stroke-width="1.0795"
     stroke-miterlimit="10"
     points="22.869,328.826 18.146,328.826       18.146,326.326     "
     id="polyline203" />
				
					<line
     fill="none"
     stroke="#00adee"
     stroke-width="1.0795"
     stroke-miterlimit="10"
     stroke-dasharray="6.7684, 6.7684"
     x1="18.146"
     y1="321.40201"
     x2="18.146"
     y2="97.358002"
     id="line203" />
				<polyline
     fill="none"
     stroke="#00adee"
     stroke-width="1.0795"
     stroke-miterlimit="10"
     points="18.146,94.896 18.146,92.396       22.869,92.396     "
     id="polyline204" />
				<polyline
     fill="none"
     stroke="#00adee"
     stroke-width="1.0795"
     stroke-miterlimit="10"
     points="35.132,92.396 39.856,92.396       39.856,94.896     "
     id="polyline205" />
				
					<line
     fill="none"
     stroke="#00adee"
     stroke-width="1.0795"
     stroke-miterlimit="10"
     stroke-dasharray="6.7684, 6.7684"
     x1="39.855999"
     y1="99.82"
     x2="39.855999"
     y2="323.86301"
     id="line205" />
			</g>
		</g>
	</g><g
         id="g212"
         transform="matrix(4.1666667,0,0,4.1666667,-8.4000002e-6,-7.2e-6)">
		<g
     id="g211">
			<g
     id="g210">
				<polyline
     fill="none"
     stroke="#00adee"
     stroke-width="1.0531"
     stroke-miterlimit="10"
     points="260.495,326.326 260.495,328.826       256.03,328.826     "
     id="polyline207" />
				<polyline
     fill="none"
     stroke="#00adee"
     stroke-width="1.0531"
     stroke-miterlimit="10"
     points="244.44,328.826 239.977,328.826       239.977,326.326     "
     id="polyline208" />
				
					<line
     fill="none"
     stroke="#00adee"
     stroke-width="1.0531"
     stroke-miterlimit="10"
     stroke-dasharray="6.5799, 6.5799"
     x1="239.97701"
     y1="321.40201"
     x2="239.97701"
     y2="97.358002"
     id="line208" />
				<polyline
     fill="none"
     stroke="#00adee"
     stroke-width="1.0531"
     stroke-miterlimit="10"
     points="239.977,94.896 239.977,92.396       244.44,92.396     "
     id="polyline209" />
				<polyline
     fill="none"
     stroke="#00adee"
     stroke-width="1.0531"
     stroke-miterlimit="10"
     points="256.03,92.396 260.495,92.396       260.495,94.896     "
     id="polyline210" />
				
					<line
     fill="none"
     stroke="#00adee"
     stroke-width="1.0531"
     stroke-miterlimit="10"
     stroke-dasharray="6.5799, 6.5799"
     x1="260.495"
     y1="99.82"
     x2="260.495"
     y2="323.86301"
     id="line210" />
			</g>
		</g>
	</g><g
         id="g217"
         transform="matrix(4.1666667,0,0,4.1666667,-8.4000002e-6,-7.2e-6)">
		<g
     id="g216">
			<g
     id="g215">
				<polyline
     fill="none"
     stroke="#00adee"
     stroke-width="1.0429"
     stroke-miterlimit="10"
     points="221.519,72.162 221.519,76.665       219.019,76.665     "
     id="polyline212" />
				
					<line
     fill="none"
     stroke="#00adee"
     stroke-width="1.0429"
     stroke-miterlimit="10"
     stroke-dasharray="6.8981, 6.8981"
     x1="213.879"
     y1="76.665001"
     x2="62.255001"
     y2="76.665001"
     id="line212" />
				<polyline
     fill="none"
     stroke="#00adee"
     stroke-width="1.0429"
     stroke-miterlimit="10"
     points="59.685,76.665 57.185,76.665       57.185,72.162     "
     id="polyline213" />
				
					<line
     fill="none"
     stroke="#00adee"
     stroke-width="1.0429"
     stroke-miterlimit="10"
     stroke-dasharray="3.5276, 3.5276"
     x1="57.185001"
     y1="67.427002"
     x2="57.185001"
     y2="60.326"
     id="line213" />
				<polyline
     fill="none"
     stroke="#00adee"
     stroke-width="1.0429"
     stroke-miterlimit="10"
     points="57.185,57.958 57.185,53.456       59.685,53.456     "
     id="polyline214" />
				
					<line
     fill="none"
     stroke="#00adee"
     stroke-width="1.0429"
     stroke-miterlimit="10"
     stroke-dasharray="6.8981, 6.8981"
     x1="64.824997"
     y1="53.456001"
     x2="216.44901"
     y2="53.456001"
     id="line214" />
				<polyline
     fill="none"
     stroke="#00adee"
     stroke-width="1.0429"
     stroke-miterlimit="10"
     points="219.019,53.456 221.519,53.456       221.519,57.958     "
     id="polyline215" />
				
					<line
     fill="none"
     stroke="#00adee"
     stroke-width="1.0429"
     stroke-miterlimit="10"
     stroke-dasharray="3.5276, 3.5276"
     x1="221.519"
     y1="62.693001"
     x2="221.519"
     y2="69.793999"
     id="line215" />
			</g>
		</g>
	</g><g
         id="g222"
         transform="matrix(4.1666667,0,0,4.1666667,-8.4000002e-6,-7.2e-6)">
		<g
     id="g221">
			<g
     id="g220">
				<polyline
     fill="none"
     stroke="#00adee"
     stroke-width="1.127"
     stroke-miterlimit="10"
     points="221.519,365.626 221.519,370.041       219.019,370.041     "
     id="polyline217" />
				
					<line
     fill="none"
     stroke="#00adee"
     stroke-width="1.127"
     stroke-miterlimit="10"
     stroke-dasharray="6.8311, 6.8311"
     x1="213.879"
     y1="370.04099"
     x2="62.255001"
     y2="370.04099"
     id="line217" />
				<polyline
     fill="none"
     stroke="#00adee"
     stroke-width="1.127"
     stroke-miterlimit="10"
     points="59.685,370.041 57.185,370.041       57.185,365.626     "
     id="polyline218" />
				
					<line
     fill="none"
     stroke="#00adee"
     stroke-width="1.127"
     stroke-miterlimit="10"
     stroke-dasharray="3.4936, 3.4936"
     x1="57.185001"
     y1="360.979"
     x2="57.185001"
     y2="354.017"
     id="line218" />
				<polyline
     fill="none"
     stroke="#00adee"
     stroke-width="1.127"
     stroke-miterlimit="10"
     points="57.185,351.694 57.185,347.279       59.685,347.279     "
     id="polyline219" />
				
					<line
     fill="none"
     stroke="#00adee"
     stroke-width="1.127"
     stroke-miterlimit="10"
     stroke-dasharray="6.8311, 6.8311"
     x1="64.824997"
     y1="347.27899"
     x2="216.44901"
     y2="347.27899"
     id="line219" />
				<polyline
     fill="none"
     stroke="#00adee"
     stroke-width="1.127"
     stroke-miterlimit="10"
     points="219.019,347.279 221.519,347.279       221.519,351.694     "
     id="polyline220" />
				
					<line
     fill="none"
     stroke="#00adee"
     stroke-width="1.127"
     stroke-miterlimit="10"
     stroke-dasharray="3.4936, 3.4936"
     x1="221.519"
     y1="356.33801"
     x2="221.519"
     y2="363.302"
     id="line220" />
			</g>
		</g>
	</g></svg>
