<?xml version="1.0" encoding="UTF-8" standalone="no"?>
<svg
     version="1.1"
     id="Layer_2"
     x="0px"
     y="0px"
     width="3075"
     height="4875"
     viewBox="0 0 3075 4875"
     enable-background="new 0 0 738 1170"
     xml:space="preserve"
     sodipodi:docname="SmallGameMat.svg"
     inkscape:version="1.4 (e7c3feb1, 2024-10-09)"
     xmlns:inkscape="http://www.inkscape.org/namespaces/inkscape"
     xmlns:sodipodi="http://sodipodi.sourceforge.net/DTD/sodipodi-0.dtd"
     xmlns="http://www.w3.org/2000/svg"
     xmlns:svg="http://www.w3.org/2000/svg"><defs
         id="defs121" /><sodipodi:namedview
         id="namedview121"
         pagecolor="#505050"
         bordercolor="#eeeeee"
         borderopacity="1"
         inkscape:showpageshadow="0"
         inkscape:pageopacity="0"
         inkscape:pagecheckerboard="0"
         inkscape:deskcolor="#d1d1d1"
         inkscape:zoom="0.18461538"
         inkscape:cx="1210.625"
         inkscape:cy="2020.4167"
         inkscape:window-width="1872"
         inkscape:window-height="1027"
         inkscape:window-x="62"
         inkscape:window-y="25"
         inkscape:window-maximized="1"
         inkscape:current-layer="Layer_2" /><rect
         style="fill:#0c0c0c;fill-opacity:1;stroke-width:4.1285;stroke-linecap:round;stroke-linejoin:round;paint-order:markers fill stroke"
         id="rect121"
         width="3075"
         height="4875.0005"
         x="0"
         y="-4875"
         transform="scale(1,-1)" /><path
         id="clipping"
         style="fill:#7b7b7b;fill-opacity:1;stroke-width:4.05095;stroke-linecap:round;stroke-linejoin:round;paint-order:markers fill stroke"
         d="M 1694.4598,34.876 C 1193.1043,35.6388 691.7443,37.6544 190.39336,37.3917 119.45657,23.6076 65.176626,87.0212 36.244926,144.5987 c 1.4244,1489.8922 -3.88465,2979.8084 4.31445,4469.6835 8.9285,57.207 -18.79263,128.8203 28.50977,174.0743 32.464814,45.6456 85.774314,51.3071 137.042964,51.7675 H 2927.8172 c 51.8798,-8.7277 90.6345,-56.202 111.334,-105.3359 V 156.1417 c -8.775,-36.6839 -31.7686,-69.3172 -59.4433,-95.6875 C 2908.9255,30.2826 2827.3052,42.7622 2751.993,36.5909 2580.2065,35.4848 2408.4175,35.1492 2236.6278,34.876 Z" /><path
         id="rect123-5"
         style="fill:#eaeaea;fill-opacity:1;stroke-width:3.96498;stroke-linecap:round;stroke-linejoin:round;paint-order:markers fill stroke"
         d="m 1690.3932,74.551745 c -488.3661,0.75022 -976.73653,2.73254 -1465.09823,2.47417 -69.0989,-13.55648 -121.9725,48.809955 -150.154699,105.436645 1.3875,1465.28884 -3.784,2930.60144 4.2027,4395.87344 8.6972,56.2624 -18.3058,126.6931 27.771099,171.1997 31.6238,44.8919 83.5521,50.4599 133.4924,50.9126 H 2891.796 c 50.5358,-8.5836 88.2863,-55.2738 108.4496,-103.5964 V 193.81494 c -8.5477,-36.07811 -30.9455,-68.17252 -57.9033,-94.107365 -68.9485,-29.67336 -148.4542,-17.39984 -221.8151,-23.46923 -167.3357,-1.08783 -334.674,-1.41789 -502.0128,-1.6866 z" /></svg>
