<?xml version="1.0" encoding="UTF-8" standalone="no"?>
<svg
     version="1.1"
     id="YOUR_ARTWORK_HERE"
     x="0px"
     y="0px"
     width="2475"
     height="2475"
     viewBox="0 0 2475 2475"
     enable-background="new 0 0 594 594"
     xml:space="preserve"
     sodipodi:docname="spinnermat.svg"
     inkscape:version="1.4 (e7c3feb1, 2024-10-09)"
     xmlns:inkscape="http://www.inkscape.org/namespaces/inkscape"
     xmlns:sodipodi="http://sodipodi.sourceforge.net/DTD/sodipodi-0.dtd"
     xmlns="http://www.w3.org/2000/svg"
     xmlns:svg="http://www.w3.org/2000/svg"><defs
         id="defs180">






















	

	

	

	

	

	

	
	
	
	
	
	

		
		
		
		
	
		
		
		
		
		
		
		
	
		
		
		
	
		
		
		
		
		
		
		
		
		
		
		
		
		
		
		
		
		
		
		
		
		
		
		
		
		
		
		
		
		
		
		
		
		
		
		
		
		
		
		
		
		
		
		
		
		
		
		
		
		
		
		
		
		
		
		
		
		
		
		
		
		
		
		
		
		
		
		
		
		
		
		
		
		
		
		
		
		
		
		
		
		
		
		
		
		
		
		
		
		
		
		
		
		
		
		
		
		
		
	
			
			
		
			
			
		
			
			
			
			
		
			
			
			
		
			
			
			
		
			
			
			
		
			
			
			
		
				
				
			
				
				
				
				
				
			
				
				
			
				
				
			
					
					
				
					
					
					
				
					
					
					
					
				
					
					
				
						
						
					
						
						
						
					
						
						
						
						
					
							
							
							
							
						
							
							
							
						
							
							
							
							
							
							
							
						
								
								
								
								
								
							
								
								
							</defs><sodipodi:namedview
         id="namedview180"
         pagecolor="#505050"
         bordercolor="#eeeeee"
         borderopacity="1"
         inkscape:showpageshadow="0"
         inkscape:pageopacity="0"
         inkscape:pagecheckerboard="0"
         inkscape:deskcolor="#d1d1d1"
         inkscape:zoom="0.25712974"
         inkscape:cx="1157.0035"
         inkscape:cy="1236.7298"
         inkscape:window-width="1872"
         inkscape:window-height="1027"
         inkscape:window-x="62"
         inkscape:window-y="25"
         inkscape:window-maximized="1"
         inkscape:current-layer="YOUR_ARTWORK_HERE" /><rect
         x="2.76875"
         y="0"
         fill="#929497"
         width="2472.9624"
         height="2475"
         id="rect1"
         style="stroke-width:4.16667;fill:#0f0f10;fill-opacity:1;stroke:none;stroke-opacity:1" /><path
         id="clipping"
         style="stroke-width:4.16667;stroke:none;fill:#7f7f7f;fill-opacity:1"
         d="M 1239.5762 36.804688 A 1200 1200 0 0 0 39.576172 1236.8047 A 1200 1200 0 0 0 1239.5762 2436.8047 A 1200 1200 0 0 0 2439.5762 1236.8047 A 1200 1200 0 0 0 1239.5762 36.804688 z M 1238.5195 1175.9961 A 61.5 61.5 0 0 1 1300.0195 1237.4961 A 61.5 61.5 0 0 1 1238.5195 1298.9961 A 61.5 61.5 0 0 1 1177.0195 1237.4961 A 61.5 61.5 0 0 1 1238.5195 1175.9961 z " /><path
         id="circle2"
         style="stroke-width:4.16667;stroke:none;fill:#d0d0d0;fill-opacity:1"
         d="M 1239.5762 74.304688 A 1162.5 1162.5 0 0 0 77.076172 1236.8047 A 1162.5 1162.5 0 0 0 1239.5762 2399.3047 A 1162.5 1162.5 0 0 0 2402.0762 1236.8047 A 1162.5 1162.5 0 0 0 1239.5762 74.304688 z M 1238.5195 1132.4961 A 105.00001 105.00001 0 0 1 1343.5195 1237.4961 A 105.00001 105.00001 0 0 1 1238.5195 1342.4961 A 105.00001 105.00001 0 0 1 1133.5195 1237.4961 A 105.00001 105.00001 0 0 1 1238.5195 1132.4961 z " /></svg>
