<?xml version="1.0" encoding="UTF-8" standalone="no"?>
<!-- Created with Inkscape (http://www.inkscape.org/) -->

<svg
   width="16"
   height="16"
   viewBox="0 0 16 16.000001"
   version="1.1"
   id="svg1"
   xml:space="preserve"
   inkscape:version="1.3.2 (091e20e, 2023-11-25, custom)"
   sodipodi:docname="print.svg"
   xmlns:inkscape="http://www.inkscape.org/namespaces/inkscape"
   xmlns:sodipodi="http://sodipodi.sourceforge.net/DTD/sodipodi-0.dtd"
   xmlns="http://www.w3.org/2000/svg"
   xmlns:svg="http://www.w3.org/2000/svg"><sodipodi:namedview
     id="namedview1"
     pagecolor="#505050"
     bordercolor="#eeeeee"
     borderopacity="1"
     inkscape:showpageshadow="0"
     inkscape:pageopacity="0"
     inkscape:pagecheckerboard="0"
     inkscape:deskcolor="#d1d1d1"
     inkscape:document-units="mm"
     inkscape:zoom="70.793848"
     inkscape:cx="9.4923502"
     inkscape:cy="9.527664"
     inkscape:window-width="2560"
     inkscape:window-height="1351"
     inkscape:window-x="-9"
     inkscape:window-y="-9"
     inkscape:window-maximized="1"
     inkscape:current-layer="layer1" /><defs
     id="defs1" /><g
     inkscape:label="Layer 1"
     inkscape:groupmode="layer"
     id="layer1"><path
       id="path2"
       style="fill:currentColor;fill-opacity:1;stroke:#000000;stroke-width:0;stroke-linejoin:round;stroke-dasharray:none;stroke-dashoffset:318.954;stroke-opacity:1;paint-order:markers stroke fill"
       d="m 7.9266404,1.6409013 c -2.3678693,0.00591 -2.7068628,0.01 -2.8297624,0.036015 C 4.8578157,1.7275365 4.7607546,1.761139 4.5489332,1.8672822 4.1620922,2.0611273 3.8368742,2.3820556 3.6511267,2.752226 3.4283231,3.1962445 3.4041656,3.3593135 3.4041656,4.4192134 v 0.7666083 l -0.3395715,0.00772 C 2.7323189,5.2025081 2.5963519,5.2229347 2.3803061,5.2938672 1.9584104,5.4323845 1.5550736,5.739766 1.3152865,6.1067807 1.1599721,6.3445027 1.0921328,6.4985639 1.0168752,6.7884963 l -0.04116,0.1594956 v 1.944819 c 0,1.8256031 0.00385,1.9527091 0.036015,2.0837341 0.1540156,0.627208 0.5221381,1.106926 1.0650197,1.389156 0.3175958,0.165109 0.5091807,0.210833 0.9595467,0.223808 l 0.3678691,0.01027 v 0.949258 c 2.98e-5,1.113761 0.0066,1.169768 0.1414881,1.474048 0.149617,0.337496 0.5214982,0.605029 0.9286765,0.668853 0.1149812,0.01802 0.9126235,0.02428 3.5063329,0.02572 3.5833178,0.002 3.5588448,0.0025 3.7944538,-0.08747 0.346728,-0.132448 0.612416,-0.407265 0.751172,-0.776898 0.04032,-0.107386 0.0417,-0.134226 0.05145,-1.180782 l 0.0078,-1.070165 0.362725,-0.01027 c 0.383121,-0.01225 0.529659,-0.039 0.784615,-0.138916 0.5686,-0.222831 1.018438,-0.70993 1.203936,-1.30169 0.08742,-0.278861 0.08747,-0.261208 0.08747,-2.2689551 0,-1.7368429 -0.0038,-1.9094478 -0.03344,-2.0400012 C 14.894278,6.4177871 14.704123,6.0712681 14.406797,5.7826444 14.215825,5.5972629 14.064943,5.4921497 13.853707,5.3941952 13.537243,5.2474454 13.342177,5.2044107 12.922458,5.1909668 l -0.337,-0.010287 -0.01027,-0.9132415 c -0.01,-0.8372581 -0.01425,-0.9214369 -0.04889,-1.0495878 C 12.419687,2.8234964 12.246031,2.5175457 11.970628,2.2428689 11.655698,1.9287693 11.275415,1.7379867 10.810426,1.6640539 10.633035,1.6358425 10.367882,1.634803 7.9266404,1.6409013 Z m -5.16303,4.3758415 h 5.2453504 5.2479232 l 0.110612,0.043732 c 0.412853,0.1570562 0.706063,0.4723188 0.810342,0.8746538 0.03696,0.1424874 0.03667,0.187346 0.03087,2.0142763 -0.0059,1.8639531 -0.0061,1.8682601 -0.04631,1.9756891 -0.08131,0.216868 -0.15684,0.335082 -0.31899,0.496495 -0.279354,0.278082 -0.554876,0.377879 -1.016143,0.367869 l -0.241817,-0.0051 V 11.097453 10.40802 l 0.187794,-0.01029 c 0.203017,-0.01083 0.261245,-0.03267 0.35758,-0.131198 0.06242,-0.06384 0.115762,-0.192374 0.115762,-0.2804041 0,-0.0814 -0.08647,-0.252396 -0.156924,-0.306128 -0.139116,-0.106108 0.152464,-0.100583 -5.0884247,-0.100328 -3.2284508,1.56e-4 -4.8575121,0.0078 -4.9134965,0.02058 -0.1132583,0.02579 -0.2113082,0.09536 -0.2726861,0.190366 -0.043144,0.06679 -0.051378,0.09811 -0.051451,0.208373 -7.26e-5,0.1121491 0.00631,0.1415641 0.051451,0.2083731 0.028831,0.04267 0.088527,0.10006 0.1311976,0.128626 0.069627,0.04661 0.096395,0.05246 0.2675411,0.05917 l 0.1903658,0.0077 v 0.694578 0.69715 l -0.2546787,-0.0026 c -0.2347788,-0.0017 -0.4414649,-0.02804 -0.5350823,-0.06945 -0.020465,-0.0091 -0.07486,-0.03232 -0.1209082,-0.05145 C 2.413391,11.637803 2.1977481,11.487885 2.1384815,11.424112 2.0076188,11.28334 1.9088207,11.125238 1.8375063,10.943102 l -0.04116,-0.108045 -0.00515,-1.8779331 C 1.7876268,7.7035564 1.7911245,7.0469542 1.8040645,6.9865799 1.8960526,6.5573413 2.2113611,6.2101326 2.6452757,6.0579033 Z M 4.0498659,6.958282 c -0.09198,1.093e-4 -0.1920261,0.00178 -0.2932662,0.00257 L 3.0208615,6.966002 2.9436855,7.017453 C 2.9010235,7.045697 2.84309,7.105264 2.8150603,7.1486506 c -0.043178,0.066838 -0.051451,0.098026 -0.051451,0.2083734 0,0.1103646 0.00825,0.1414872 0.051451,0.2083733 0.04959,0.076759 0.1555988,0.158841 0.2289534,0.1775033 0.078033,0.019853 1.4874341,0.012842 1.5615144,-0.00772 0.1079542,-0.02997 0.2202242,-0.1505745 0.2572511,-0.2752587 0.027641,-0.093081 0.028171,-0.1079753 0,-0.2083734 C 4.823547,7.1117246 4.6943452,6.9838677 4.5720857,6.9659995 4.5398372,6.9612842 4.3258056,6.9579519 4.0498659,6.958282 Z m 0.1826484,3.449738 h 3.7687289 3.7661578 l 0.0051,2.047718 c 0.004,1.523548 8.31e-4,2.065361 -0.01544,2.124895 -0.03378,0.123639 -0.112799,0.217736 -0.228954,0.272686 l -0.102907,0.04888 -3.4291575,-0.0026 c -3.3830972,-0.0013 -3.4288797,-0.002 -3.511478,-0.03859 -0.1083678,-0.048 -0.1609706,-0.09752 -0.2160909,-0.205801 l -0.046305,-0.08747 0.00515,-2.081161 z"
       sodipodi:nodetypes="ccsssccssccscsccccsccccccscscssccccscccccccccscccccsscsccsssccccccccccccccsccccscscsscsccccccccccccc" /></g></svg>
