<?xml version="1.0" encoding="UTF-8" standalone="no"?>
<!-- Created with Inkscape (http://www.inkscape.org/) -->

<svg
   width="16"
   height="16"
   viewBox="0 0 16 16.000001"
   version="1.1"
   id="svg1"
   xml:space="preserve"
   inkscape:version="1.3.2 (091e20e, 2023-11-25, custom)"
   sodipodi:docname="theGameCrafter.svg"
   xmlns:inkscape="http://www.inkscape.org/namespaces/inkscape"
   xmlns:sodipodi="http://sodipodi.sourceforge.net/DTD/sodipodi-0.dtd"
   xmlns="http://www.w3.org/2000/svg"
   xmlns:svg="http://www.w3.org/2000/svg"><sodipodi:namedview
     id="namedview1"
     pagecolor="#505050"
     bordercolor="#eeeeee"
     borderopacity="1"
     inkscape:showpageshadow="0"
     inkscape:pageopacity="0"
     inkscape:pagecheckerboard="0"
     inkscape:deskcolor="#d1d1d1"
     inkscape:document-units="mm"
     inkscape:zoom="35.396924"
     inkscape:cx="10.650643"
     inkscape:cy="9.3087186"
     inkscape:window-width="2400"
     inkscape:window-height="1261"
     inkscape:window-x="3191"
     inkscape:window-y="-9"
     inkscape:window-maximized="1"
     inkscape:current-layer="layer1" /><defs
     id="defs1" /><g
     inkscape:label="Layer 1"
     inkscape:groupmode="layer"
     id="layer1"><path
       id="path146"
       style="fill:#ffffff;fill-opacity:1;stroke:#000000;stroke-width:0;stroke-linejoin:round;stroke-dasharray:none;stroke-dashoffset:318.954;stroke-opacity:1;paint-order:markers stroke fill"
       d="M 7.999885,0.36691066 A 7.6330727,7.6330727 0 0 0 5.5343484,0.7937191 7.6330727,7.6330727 0 0 0 5.5334443,0.79395418 c -0.00352,0.001141 -0.0072,0.00203 -0.010701,0.003249 -0.1107992,0.0385196 -0.2198445,0.079998 -0.328009,0.12307851 -0.00162,6.6913e-4 -0.00338,0.001262 -0.00505,0.001921 A 7.6330727,7.6330727 0 0 0 4.446889,1.2653546 7.6330727,7.6330727 0 0 0 4.3775367,1.3032157 c -0.034622,0.018843 -0.069394,0.037467 -0.1037268,0.056731 A 7.6330727,7.6330727 0 0 0 3.4528856,1.8933671 c -0.040072,0.029917 -0.080605,0.059191 -0.1200738,0.089905 A 7.6330727,7.6330727 0 0 0 0.86823901,5.334275 7.6330727,7.6330727 0 0 0 0.85765924,5.3627614 c -0.005553,0.01481 -0.0111746,0.029589 -0.0165819,0.044471 A 7.6330727,7.6330727 0 0 0 0.5601864,6.3821257 c -0.001449,0.00702 -0.00304,0.014025 -0.004577,0.021035 A 7.6330727,7.6330727 0 0 0 0.43000639,7.1165104 c -3.6162e-4,0.00247 -7.2335e-4,0.00486 -0.001085,0.00733 -0.008516,0.067549 -0.013273,0.1666435 -0.0182688,0.2632243 -7.2336e-4,0.013936 -0.001921,0.02407 -0.002645,0.037981 a 7.6330727,7.6330727 0 0 0 -0.0411053,0.5750071 7.6330727,7.6330727 0 0 0 0.0413456,0.5786129 c 9.0422e-4,0.018392 0.002458,0.031033 0.00349,0.048919 a 7.6330727,7.6330727 0 0 0 0.0929099,0.7349851 c 0.0263298,0.1396458 0.0569167,0.2771834 0.0900235,0.4135868 a 7.6330727,7.6330727 0 0 0 0.21707054,0.7379904 7.6330727,7.6330727 0 0 0 0.0525246,0.140748 c 0.019037,0.05113 0.0371422,0.102746 0.0572131,0.153367 A 7.6330727,7.6330727 0 0 0 1.2646327,11.55178 c 0.037908,0.07162 0.07623,0.14298 0.1164663,0.213345 a 7.6330727,7.6330727 0 0 0 2.0616856,2.334043 c 0.022077,0.01646 0.04392,0.0333 0.066106,0.04952 a 7.6330727,7.6330727 0 0 0 1.8071136,0.976214 c 0.027614,0.01032 0.055242,0.02062 0.082813,0.03089 a 7.6330727,7.6330727 0 0 0 0.7346247,0.229812 c 0.1460784,0.03687 0.2959035,0.06883 0.4489237,0.09772 a 7.6330727,7.6330727 0 0 0 1.4175659,0.149762 7.6330727,7.6330727 0 0 0 6.6610195,-3.945362 7.6330727,7.6330727 0 0 0 9.04e-4,-0.0015 c 0.02658,-0.04656 0.05873,-0.0984 0.08076,-0.140266 0.0127,-0.02411 0.02344,-0.04896 0.03582,-0.0732 1.64e-4,-3.26e-4 3.62e-4,-6.51e-4 5.43e-4,-9.59e-4 A 7.6330727,7.6330727 0 0 0 15.064453,10.84601 7.6330727,7.6330727 0 0 0 15.192821,10.501774 7.6330727,7.6330727 0 0 0 15.406165,9.7721977 7.6330727,7.6330727 0 0 0 15.44078,9.6133015 7.6330727,7.6330727 0 0 0 15.581647,8.7203818 7.6330727,7.6330727 0 0 0 15.5998,8.4665326 7.6330727,7.6330727 0 0 0 15.633098,8.0000604 7.6330727,7.6330727 0 0 0 8.000064,0.36691768 Z M 7.7849789,1.0920395 c 0.1308764,-0.00179 0.2713618,-9.764e-4 0.4286115,0.00265 0.033397,7.775e-4 0.049973,0.00273 0.08113,0.00361 4.71e-5,1.3e-6 7.42e-5,-10e-7 1.212e-4,0 a 6.9249734,6.9249734 0 0 1 3.7506464,1.284271 6.9249734,6.9249734 0 0 1 0.0369,0.025601 6.9249734,6.9249734 0 0 1 1.2e-4,0 6.9249734,6.9249734 0 0 1 0.738591,0.6307771 6.9249734,6.9249734 0 0 1 0.110699,0.1056506 6.9249734,6.9249734 0 0 1 0.797967,0.9932815 c -0.0014,0.041954 -0.05527,0.043758 -0.63246,0.024159 -0.348054,-0.011819 -0.670337,-0.02306 -0.716235,-0.025001 -0.08199,-0.00347 -0.08379,-6.33e-4 -0.10132,0.1633434 -0.0099,0.091795 -0.01925,0.4565205 -0.02092,0.8104667 l -0.003,0.6435175 0.07224,0.047357 c 0.04685,0.0307 0.06754,0.064891 0.05901,0.097477 -0.01815,0.069422 0.0038,0.095391 0.138825,0.1638242 0.13547,0.068676 0.202886,0.075504 0.202886,0.020673 0,-0.021254 0.02342,-0.067538 0.05204,-0.102886 0.04956,-0.061204 0.05531,-0.062045 0.121397,-0.018751 0.05175,0.033908 0.07742,0.037365 0.100968,0.013822 0.0485,-0.0485 0.03874,-0.3171846 -0.01443,-0.3983222 -0.06438,-0.098248 -0.03763,-0.6804348 0.03738,-0.8143132 0.04585,-0.081831 0.05886,-0.088268 0.147599,-0.071875 0.179933,0.03324 0.42999,0.070098 0.589669,0.08678 0.157116,0.016414 0.158658,0.015833 0.176204,-0.063702 0.01977,-0.089616 0.03492,-0.1365528 0.05638,-0.1423096 a 6.9249734,6.9249734 0 0 1 0.914675,3.2477566 c 0.0016,0.1198861 0.0025,0.2316765 5.42e-4,0.3527689 a 6.9249734,6.9249734 0 0 1 0,7.215e-4 6.9249734,6.9249734 0 0 1 -0.04916,0.624046 c -0.0021,-0.00251 -0.0018,-0.00338 -0.004,-0.00589 -0.01694,-0.019303 -0.03366,-0.048947 -0.03714,-0.065986 -0.0048,-0.023835 -0.01653,-0.036441 -0.05036,-0.054328 -0.02419,-0.012786 -0.05721,-0.035879 -0.07343,-0.051443 -0.01622,-0.015563 -0.04849,-0.035904 -0.07163,-0.045073 -0.02315,-0.00916 -0.04628,-0.024347 -0.05132,-0.033774 -0.0055,-0.010294 -0.02538,-0.01931 -0.04988,-0.022596 -0.02338,-0.00314 -0.05197,-0.015597 -0.06683,-0.029207 -0.01427,-0.013068 -0.04807,-0.031824 -0.07512,-0.041587 -0.02704,-0.00977 -0.0547,-0.022147 -0.06154,-0.027525 -0.0068,-0.00538 -0.03563,-0.015381 -0.06394,-0.022356 -0.02832,-0.00697 -0.09116,-0.023907 -0.139545,-0.037621 -0.04839,-0.013714 -0.10807,-0.024993 -0.132693,-0.025001 -0.285239,-8.23e-5 -0.799456,0.010887 -0.861069,0.01839 -0.226846,0.027627 -0.551281,0.039838 -1.219486,0.045674 -0.59552,0.0052 -0.725316,0.00914 -0.751572,0.023198 -0.01054,0.00565 -0.03387,0.010382 -0.0518,0.010459 -0.01794,7.87e-5 -0.05236,0.00708 -0.07656,0.015505 -0.04559,0.015871 -0.120869,0.013112 -0.200241,-0.00721 -0.02507,-0.00642 -0.07428,-0.00601 -0.147479,0.00108 -0.06044,0.00586 -0.227217,0.012189 -0.370559,0.014063 -0.162947,0.00213 -0.281567,0.00814 -0.316589,0.015986 -0.047859,0.010722 -0.064333,0.010196 -0.1131029,-0.00313 -0.047287,-0.012921 -0.082361,-0.014176 -0.2045683,-0.00757 -0.081136,0.00439 -0.2050475,0.0157 -0.2753652,0.025241 -0.102277,0.013877 -0.1406898,0.015315 -0.1918291,0.00697 -0.041731,-0.0068 -0.087872,-0.00731 -0.1328129,-0.00144 -0.037864,0.00495 -0.1042064,0.013459 -0.1474798,0.01887 -0.043272,0.00541 -0.2357463,0.00962 -0.4277688,0.00949 C 8.0332374,8.520297 7.7124343,8.5294725 7.6160451,8.5457425 7.4910231,8.5668637 6.9272642,8.583878 6.5796953,8.5769913 6.2679926,8.5708125 6.149143,8.5603589 6.1103142,8.5356468 6.0986512,8.5282168 6.0379548,8.5183438 5.9723315,8.5131703 5.8753905,8.5055318 5.846399,8.4993013 5.8044203,8.4773527 c -0.039901,-0.020864 -0.062989,-0.0262 -0.1079334,-0.025001 -0.096476,0.00258 -0.1072223,7.648e-4 -0.1448344,-0.02476 -0.022164,-0.015041 -0.060332,-0.028177 -0.097357,-0.033534 -0.060108,-0.0087 -0.0865,-0.017622 -0.1344964,-0.045313 -0.013525,-0.0078 -0.035945,-0.014223 -0.049761,-0.014304 -0.013815,-7.98e-5 -0.046047,-0.013461 -0.071634,-0.029688 -0.025589,-0.016227 -0.054066,-0.029568 -0.063344,-0.029688 -0.022909,-2.929e-4 -0.1004815,-0.036219 -0.1004815,-0.046515 0,-0.00455 -0.019918,-0.013569 -0.044232,-0.020072 -0.024313,-0.0065 -0.052122,-0.01967 -0.06178,-0.029327 -0.00966,-0.00966 -0.037874,-0.02536 -0.062741,-0.034856 -0.024867,-0.00949 -0.053127,-0.025915 -0.062741,-0.036539 -0.00963,-0.010624 -0.025963,-0.019351 -0.036299,-0.019351 -0.023065,0 -0.052904,-0.015195 -0.089543,-0.045674 -0.015298,-0.012719 -0.035773,-0.023198 -0.045553,-0.023198 -0.00978,0 -0.024522,-0.01013 -0.032693,-0.022596 -0.00818,-0.012471 -0.033299,-0.028843 -0.05589,-0.036298 -0.022591,-0.00745 -0.048498,-0.022719 -0.057573,-0.033895 -0.00908,-0.011176 -0.040803,-0.028572 -0.070555,-0.038703 -0.066817,-0.022753 -0.1570852,-0.064214 -0.1777662,-0.081611 -0.00849,-0.00716 -0.035066,-0.019353 -0.059014,-0.027164 -0.023948,-0.00781 -0.070072,-0.023845 -0.1025261,-0.035698 -0.052332,-0.019112 -0.084605,-0.022118 -0.2852201,-0.026562 -0.1244083,-0.00275 -0.2394243,-0.00496 -0.2556516,-0.00481 -0.01622,1.579e-4 -0.1512536,8.607e-4 -0.3000027,0.00156 -0.2744629,0.00129 -0.2936159,0.00329 -0.3983232,0.040745 -0.032455,0.011608 -0.083071,0.023521 -0.1125008,0.026562 -0.032375,0.00335 -0.06686,0.01468 -0.087381,0.028606 -0.018656,0.01266 -0.041349,0.022957 -0.050361,0.022957 -0.009,0 -0.031095,0.01092 -0.04904,0.024159 -0.017938,0.013239 -0.046429,0.026723 -0.063341,0.030048 -0.048437,0.00953 -0.088264,0.026493 -0.1067327,0.045313 -0.00935,0.00953 -0.037127,0.02024 -0.06166,0.023919 -0.03307,0.00496 -0.049576,0.013837 -0.063942,0.034014 -0.015804,0.022206 -0.029753,0.028422 -0.075482,0.034135 -0.044953,0.00562 -0.064936,0.01448 -0.1009622,0.044712 -0.024704,0.020729 -0.077012,0.05395 -0.1162276,0.073799 -0.039215,0.019848 -0.071276,0.039521 -0.071276,0.04375 0,0.00423 -0.014393,0.0135 -0.03197,0.020553 -0.017576,0.00706 -0.042412,0.020837 -0.055289,0.030649 -0.012875,0.00981 -0.040462,0.022394 -0.0613,0.028006 -0.022242,0.00599 -0.042492,0.019177 -0.049038,0.031972 -0.00614,0.011987 -0.020254,0.028992 -0.03125,0.03774 -0.017902,0.014247 -0.019788,0.026057 -0.018271,0.1127418 0.00145,0.084175 0.00443,0.099639 0.022839,0.1192323 l 0.021274,0.022596 h 0.3528888 0.3530083 l 0.022717,-0.027043 0.022836,-0.027043 h 0.6182778 c 0.6422662,0 0.6438304,6.38e-5 0.6772922,0.039303 0.00541,0.00634 0.028225,0.016711 0.050721,0.023077 0.028066,0.00795 0.047378,0.021663 0.061538,0.04351 0.011356,0.017511 0.031062,0.045903 0.043751,0.063102 0.014954,0.020265 0.025098,0.050977 0.028845,0.087261 0.00389,0.037664 0.012621,0.063166 0.026684,0.078126 0.014267,0.015183 0.024291,0.045158 0.03161,0.094473 0.00818,0.055134 0.015967,0.076419 0.032813,0.089665 0.017702,0.013925 0.023397,0.03142 0.028967,0.088703 0.00481,0.049452 0.012748,0.077709 0.025841,0.091948 0.022806,0.024819 0.038101,0.074526 0.038101,0.1239199 0,0.025148 0.00746,0.044596 0.02428,0.062741 0.02384,0.025725 0.028731,0.042359 0.038461,0.1318526 0.00264,0.024225 0.00964,0.04564 0.015496,0.047597 0.01897,0.00632 0.03917,0.057633 0.045913,0.1164678 0.00432,0.037744 0.014195,0.066531 0.028726,0.084016 0.015063,0.018128 0.024222,0.046245 0.028967,0.088463 0.00447,0.039714 0.013725,0.069392 0.025841,0.082573 0.020617,0.022443 0.038102,0.073549 0.038102,0.1115399 0,0.01327 0.010909,0.03991 0.024158,0.05913 0.014954,0.0217 0.028205,0.061 0.034977,0.103727 0.00654,0.04126 0.018285,0.07666 0.029326,0.08847 0.010777,0.01151 0.023239,0.04833 0.030049,0.08858 0.00696,0.04113 0.019318,0.07725 0.030769,0.08979 0.012369,0.01353 0.02289,0.04676 0.029567,0.09351 0.007,0.04904 0.016166,0.07715 0.028366,0.08714 0.010976,0.009 0.02392,0.04322 0.033053,0.0875 0.00824,0.04 0.021169,0.07979 0.028726,0.08847 0.00756,0.0087 0.019099,0.03353 0.025601,0.05517 0.00651,0.02164 0.013508,0.04492 0.015624,0.05168 0.00608,0.01937 0.2562302,0.01732 0.2637055,-0.0022 0.00305,-0.0079 0.020153,-0.02062 0.038101,-0.02813 0.017956,-0.0075 0.045807,-0.03012 0.061901,-0.05024 0.016093,-0.02013 0.040468,-0.0484 0.054087,-0.06286 0.013617,-0.01446 0.032453,-0.03849 0.041948,-0.05337 0.00949,-0.01487 0.022886,-0.02704 0.029688,-0.02704 0.0068,0 0.017504,-0.01364 0.023797,-0.03029 0.00629,-0.01665 0.020484,-0.03267 0.031612,-0.03558 0.011121,-0.003 0.020312,-0.0116 0.020312,-0.01935 0,-0.02172 0.030292,-0.07557 0.050602,-0.08991 0.01002,-0.007 0.018149,-0.01904 0.018149,-0.02668 0,-0.0077 0.01302,-0.02352 0.028845,-0.03522 0.015822,-0.0117 0.031302,-0.03163 0.034496,-0.04435 0.00347,-0.01381 0.015714,-0.02567 0.030291,-0.02933 0.015317,-0.0038 0.024399,-0.01317 0.024399,-0.02488 0,-0.01032 0.00921,-0.02629 0.020433,-0.0357 0.011229,-0.0094 0.033268,-0.02936 0.049038,-0.04423 0.015767,-0.01487 0.032885,-0.02704 0.037981,-0.02704 0.0051,0 0.01197,-0.0084 0.015262,-0.01887 0.00329,-0.01032 0.019446,-0.02357 0.035939,-0.02932 0.016491,-0.0057 0.038793,-0.02158 0.049519,-0.03522 0.010722,-0.01363 0.024641,-0.02474 0.031009,-0.02476 0.00637,-2.3e-5 0.031548,-0.01327 0.05589,-0.02945 0.024341,-0.01618 0.051316,-0.02954 0.059977,-0.02957 0.00866,-2.3e-5 0.036312,-0.01093 0.06142,-0.02428 0.025109,-0.01335 0.082142,-0.03121 0.1268059,-0.03966 0.04466,-0.0085 0.098918,-0.02023 0.1205529,-0.0262 0.052347,-0.01446 0.2537348,-0.0372 0.4180349,-0.04724 C 6.8564708,9.98342 6.9644166,9.975514 7.0408353,9.965427 7.0868123,9.959357 7.2261656,9.950717 7.3505737,9.946316 7.6050373,9.937316 7.7959785,9.92208 7.8472154,9.906652 7.8661484,9.900942 8.0277339,9.892075 8.2062343,9.88694 8.4330225,9.88042 8.545554,9.873445 8.5799163,9.863623 8.6745793,9.836561 8.7495472,9.830394 9.0663414,9.823718 9.305885,9.818668 9.3906127,9.813698 9.4056484,9.803886 9.4418804,9.780253 9.5492983,9.771182 9.8732025,9.764222 10.108438,9.759162 10.198032,9.754015 10.212509,9.744631 c 0.03617,-0.023442 0.14508,-0.032573 0.476568,-0.039544 0.315333,-0.00663 0.329826,-0.00765 0.345437,-0.026923 0.01405,-0.017358 0.03238,-0.021132 0.133175,-0.027284 0.06426,-0.00392 0.225173,-0.00748 0.357697,-0.00793 0.190975,-6.328e-4 0.246681,-0.00375 0.268511,-0.015144 0.06336,-0.033045 0.105699,-0.037319 0.449526,-0.044352 0.335506,-0.00686 0.350669,-0.00792 0.39051,-0.029087 0.03974,-0.021105 0.05606,-0.02233 0.393395,-0.030169 0.293373,-0.00682 0.357136,-0.010898 0.383176,-0.024159 0.04628,-0.023565 0.160858,-0.032871 0.497603,-0.040505 0.255049,-0.00578 0.304048,-0.00922 0.311062,-0.021755 0.01198,-0.021411 0.08895,-0.029439 0.35938,-0.03738 0.103866,-0.00305 0.152161,-0.00493 0.186901,-0.00806 a 6.9249734,6.9249734 0 0 1 -0.07884,0.328129 6.9249734,6.9249734 0 0 1 -0.515392,1.420691 6.9249734,6.9249734 0 0 1 -0.0025,0.0049 c -4.2e-5,8.5e-5 -7.8e-5,1.55e-4 -1.2e-4,2.36e-4 a 6.9249734,6.9249734 0 0 1 -0.254217,0.414678 c -0.02732,0.01724 -0.04516,0.0085 -0.04531,-0.03522 -9.5e-5,-0.02677 -0.01961,-0.08601 -0.0434,-0.131611 -0.03877,-0.07437 -0.132567,-0.368654 -0.171398,-0.537867 -0.01043,-0.04536 0.0027,-0.07671 0.04459,-0.106006 0.09599,-0.06723 0.14255,-0.189024 0.14255,-0.373203 0,-0.19026 -0.07217,-0.332576 -0.168751,-0.332576 -0.04585,0 -0.05384,0.0201 -0.05384,0.137382 0,0.07559 -0.01246,0.145233 -0.02777,0.154689 -0.0153,0.0094 -0.02777,0.05841 -0.02777,0.108772 0,0.142916 -0.05496,0.267832 -0.13041,0.296518 -0.118061,0.04489 -0.141176,0.0308 -0.173078,-0.106248 -0.08075,-0.346892 -0.02737,-0.599093 0.108772,-0.514069 0.07714,0.04818 0.111179,0.04263 0.111179,-0.01815 0,-0.02938 0.02751,-0.06192 0.06262,-0.07404 0.05357,-0.01849 0.04698,-0.02321 -0.04544,-0.032934 -0.05938,-0.00624 -0.12128,0.00205 -0.13762,0.01839 -0.01658,0.01659 -0.138224,0.02969 -0.275367,0.02969 -0.182974,0 -0.249512,0.0098 -0.26046,0.03834 -0.0081,0.02107 0.0048,0.261772 0.02872,0.534982 0.02387,0.273211 0.04339,0.630558 0.04339,0.794001 0,0.163443 0.0077,0.31691 0.01694,0.341111 0.01296,0.03377 0.05821,0.04399 0.194713,0.04399 0.14887,0 0.178653,-0.0079 0.182936,-0.04867 0.0029,-0.02678 0.0059,-0.242676 0.0069,-0.479813 0.0018,-0.417519 0.0036,-0.431396 0.06081,-0.439549 0.06043,-0.0087 0.07243,0.03309 0.138704,0.481256 0.07537,0.509756 0.06819,0.486785 0.153969,0.486785 0.0849,0 0.09187,0.0432 0.02092,0.160219 a 6.9249734,6.9249734 0 0 1 -0.03966,0.06466 6.9249734,6.9249734 0 0 1 -0.07668,0.103482 c -1.41e-4,1.99e-4 -1.81e-4,4.16e-4 -3.62e-4,5.97e-4 a 6.9249734,6.9249734 0 0 1 -0.552891,0.647364 6.9249734,6.9249734 0 0 1 -0.200603,0.20469 6.9249734,6.9249734 0 0 1 -0.574408,0.490511 6.9249734,6.9249734 0 0 1 -0.299762,0.221517 6.9249734,6.9249734 0 0 1 -0.522481,0.320196 6.9249734,6.9249734 0 0 1 -0.692438,0.338706 c 0.239203,-0.102 0.47011,-0.21478 0.692438,-0.338706 a 6.9249734,6.9249734 0 0 1 -0.745804,0.360702 c 0.0018,-7.59e-4 0.0037,-0.0014 0.0055,-0.0022 a 6.9249734,6.9249734 0 0 1 -0.0072,0.003 6.9249734,6.9249734 0 0 0 0.0016,-8.49e-4 c -0.0396,0.01652 -0.08049,0.03132 -0.120556,0.04724 a 6.9249734,6.9249734 0 0 0 0.03558,-0.0119 6.9249734,6.9249734 0 0 1 -0.7946005,0.26635 6.9249734,6.9249734 0 0 1 -9.041e-4,2.35e-4 6.9249734,6.9249734 0 0 1 -0.2549318,0.06117 6.9249734,6.9249734 0 0 1 -0.6867873,0.125122 6.9249734,6.9249734 0 0 0 0.6867873,-0.125122 c -0.3251918,0.06915 -0.6935648,0.122361 -1.0646772,0.14904 -0.2294861,0.0165 -0.4548294,0.02797 -0.5007266,0.02548 -0.5477684,-0.02972 -1.1299426,-0.103141 -1.4465324,-0.182454 -0.091795,-0.02299 -0.2075917,-0.04823 -0.2574544,-0.05601 -0.049864,-0.0078 -0.097601,-0.02521 -0.1060107,-0.03882 -0.00841,-0.01361 -0.045226,-0.02476 -0.081853,-0.02476 -0.036624,0 -0.095387,-0.01194 -0.1305309,-0.02656 -0.035139,-0.01455 -0.1515581,-0.0593 -0.2586523,-0.09933 -0.107098,-0.04001 -0.2196479,-0.08231 -0.2502473,-0.09397 C 5.0202317,14.231542 4.0026017,13.635532 3.7259473,13.390366 3.6779524,13.347833 3.5778672,13.261169 3.50347,13.197816 3.2502813,12.982211 2.8542583,12.573871 2.6728104,12.341315 2.6269132,12.28249 2.5740145,12.218486 2.5552609,12.199126 2.5365057,12.179766 2.4175441,12.009393 2.2909551,11.820515 1.9116133,11.254518 1.407169,10.165167 1.407169,9.9120773 c 0,-0.032434 -0.011157,-0.065869 -0.024759,-0.07428 C 1.368794,9.8293873 1.351359,9.7817703 1.343706,9.7319063 1.336056,9.6820423 1.30482,9.5410747 1.274356,9.4186813 1.0469345,8.5049852 1.0941247,7.0484233 1.3815668,6.1084239 1.4348937,5.9340357 1.5460497,5.6038121 1.5828911,5.5103396 1.6039968,5.4567921 1.6376271,5.3691727 1.6575322,5.3156256 1.7418971,5.0886661 2.1227446,4.3902955 2.3169154,4.1064761 2.5373592,3.7842542 2.8001823,3.464758 3.0728153,3.1800229 A 6.9249734,6.9249734 0 0 0 2.8820675,3.3619963 6.9249734,6.9249734 0 0 1 3.5803934,2.6956419 6.9249734,6.9249734 0 0 0 3.5051519,2.7673978 C 3.5718582,2.7095734 3.637907,2.6552896 3.7033515,2.6042947 a 6.9249734,6.9249734 0 0 0 -0.09291,0.065746 6.9249734,6.9249734 0 0 1 0.8149152,-0.5763292 6.9249734,6.9249734 0 0 1 0.053966,-0.033053 6.9249734,6.9249734 0 0 1 0.8772946,-0.4382268 6.9249734,6.9249734 0 0 1 1.808e-4,-1.199e-4 6.9249734,6.9249734 0 0 1 0.2036081,-0.084376 6.9249734,6.9249734 0 0 1 0.00126,-4.881e-4 6.9249734,6.9249734 0 0 1 0.375606,-0.1420689 6.9249734,6.9249734 0 0 1 0.8395544,-0.2015649 6.9249734,6.9249734 0 0 1 0.2298098,-0.040626 c 1.807e-4,-3.03e-5 3.616e-4,-8.99e-5 5.424e-4,-1.199e-4 A 6.9249734,6.9249734 0 0 1 7.7845974,1.092009 Z M 5.3568227,1.6224547 C 5.0546772,1.7530717 4.7467562,1.9040077 4.4795281,2.0606816 A 6.9249734,6.9249734 0 0 1 5.3568227,1.6224547 Z M 4.4255625,2.0937349 c -0.204525,0.1231913 -0.4510213,0.2884305 -0.4869062,0.3289703 -0.00765,0.00864 -0.064987,0.052909 -0.1274045,0.098318 -0.035391,0.025748 -0.071704,0.055252 -0.1076941,0.083294 A 6.9249734,6.9249734 0 0 1 4.4255625,2.0937349 Z M 3.5053579,2.7674211 C 3.3613735,2.8922319 3.2160998,3.0306167 3.0730214,3.1800464 A 6.9249734,6.9249734 0 0 1 3.5053579,2.7674211 Z M 9.779354,14.672617 c 0.051254,-0.0135 0.1064518,-0.02601 0.1538484,-0.04039 0.2080316,-0.06307 0.4085956,-0.135989 0.6051756,-0.214065 a 6.9249734,6.9249734 0 0 1 -0.759024,0.254452 z m 4.907272,-4.9521052 a 6.9249734,6.9249734 0 0 0 0.05877,-0.244955 c -0.02992,0.00628 -0.103274,0.015574 -0.229451,0.02476 -0.149166,0.010854 -0.50279,0.038377 -0.785824,0.061059 -0.502492,0.040269 -0.892843,0.068467 -1.682955,0.1218764 -0.214189,0.014479 -0.552082,0.038317 -0.750972,0.052886 -0.198888,0.014569 -0.536902,0.039334 -0.751089,0.055049 -0.21419,0.015716 -0.451997,0.035561 -0.528494,0.044111 C 9.8311009,9.8560339 9.3091327,9.8944965 7.9302924,9.9889047 5.6589049,10.144425 5.730257,10.124376 5.2381919,10.745765 5.1206026,10.894261 4.9988815,11.029407 4.9676366,11.04613 4.9363906,11.06286 4.8391708,11.07282 4.7516474,11.06824 4.599931,11.06034 4.590405,11.05529 4.5475584,10.962464 c -0.024718,-0.05355 -0.079443,-0.203735 -0.1216361,-0.333778 -0.042194,-0.130044 -0.087746,-0.258174 -0.1012025,-0.28474 -0.013453,-0.02657 -0.024399,-0.07274 -0.024399,-0.102648 0,-0.02991 -0.012586,-0.06218 -0.027885,-0.07163 -0.015298,-0.0095 -0.027766,-0.04161 -0.027766,-0.07151 0,-0.0299 -0.011411,-0.07608 -0.025361,-0.1026461 C 4.19059,9.9407946 4.1294493,9.7571619 4.0782014,9.5717121 4.0591767,9.5028656 4.0331613,9.4214186 4.0205089,9.3908202 4.0078511,9.3602219 3.9521712,9.1975684 3.8967102,9.0292774 3.8354391,8.8433659 3.7720777,8.7026584 3.7351694,8.6707392 3.6771804,8.6205913 3.6352287,8.6192391 2.8120807,8.6406909 1.5130063,8.674545 1.6203608,8.6775982 1.5885083,8.6049929 c -0.016456,-0.03751 -0.032923,-0.057578 -0.047959,-0.059976 -0.015027,-0.00239 -0.028695,0.012961 -0.039302,0.046155 -0.00855,0.026773 -0.026283,0.07373 -0.039424,0.1043281 -0.080415,0.1872385 -0.1101573,0.3343609 -0.09327,0.4616646 0.017286,0.1302491 0.021996,0.1363398 0.1049274,0.1364198 0.047753,4.7e-5 0.4717238,-0.013846 0.9422,-0.03089 0.4704763,-0.017045 0.8998183,-0.022683 0.9540986,-0.0125 0.063026,0.011824 0.142648,0.061774 0.2201952,0.1382229 0.066782,0.065837 0.1568647,0.1273112 0.2002429,0.1365402 0.1344133,0.028598 0.2543749,0.1211309 0.2840177,0.2191133 0.01528,0.050518 0.065972,0.1982061 0.112622,0.3282492 0.104293,0.290748 0.1057505,0.327742 0.013706,0.350846 -0.1083384,0.0272 -0.9274792,-0.0077 -1.054701,-0.04483 -0.061197,-0.01789 -0.161282,-0.04542 -0.222479,-0.06117 -0.1246739,-0.03209 -0.1631663,-0.0462 -0.3616624,-0.133419 -0.2463553,-0.108243 -0.3335098,-0.149912 -0.3477208,-0.165987 -0.00765,-0.0086 -0.07351,-0.04572 -0.1463966,-0.082453 -0.072885,-0.036732 -0.146384,-0.083534 -0.1633418,-0.1039682 -0.049914,-0.06014 -0.069419,-0.044611 -0.1192329,0.094953 -0.025938,0.072671 -0.058736,0.1535843 -0.072837,0.1796903 -0.053876,0.09974 -0.062939,0.269327 -0.018028,0.337865 0.054345,0.08295 0.7718678,0.441506 0.9923198,0.495919 0.2435362,0.06011 0.7237264,0.133439 0.8627507,0.131732 0.3354554,-0.0042 0.4134329,-0.03341 0.4558962,-0.171156 0.033153,-0.107543 0.098667,2.4e-5 0.2125029,0.348803 0.065893,0.201894 0.1388364,0.382685 0.1621412,0.401809 0.023303,0.01912 0.078144,0.03486 0.1218765,0.03486 0.1697847,0 0.3202878,-0.133812 0.5391883,-0.479453 0.1564641,-0.247052 0.5840448,-0.665156 0.7754923,-0.758304 0.1681119,-0.0818 0.4204851,-0.124839 0.7339033,-0.125123 0.1283105,-1.15e-4 0.3411858,-0.01231 0.4729626,-0.02716 0.1317769,-0.01484 0.4335444,-0.0402 0.6706811,-0.05625 0.5415066,-0.03665 1.0694076,-0.07807 1.4465326,-0.113582 0.1606402,-0.01513 0.4923598,-0.04035 0.7371491,-0.05601 0.8528918,-0.05457 1.2263538,-0.079572 1.5994168,-0.1072132 0.206539,-0.015303 0.538259,-0.039827 0.73715,-0.054447 0.902744,-0.066362 1.185557,-0.089068 1.424536,-0.1145447 0.140916,-0.015023 0.337483,-0.027283 0.436904,-0.027283 0.09942,0 0.275741,-0.014122 0.391713,-0.03137 0.109188,-0.016241 0.200459,-0.021715 0.219353,-0.014544 z M 2.8332336,3.4194723 A 6.9249734,6.9249734 0 0 0 2.2595492,4.1549381 6.9249734,6.9249734 0 0 1 2.8332336,3.4194723 Z M 5.558749,3.7788518 c -0.098641,0 -0.1134681,0.00416 -0.232334,0.065986 -0.069856,0.036336 -0.1377984,0.075546 -0.1509643,0.08702 -0.013164,0.011475 -0.047181,0.036525 -0.075601,0.055649 -0.045084,0.030337 -0.1698208,0.148969 -0.2281281,0.21707 -0.010799,0.012618 -0.028488,0.04866 -0.039304,0.08005 -0.012224,0.035462 -0.049814,0.086113 -0.099279,0.1337757 -0.1207663,0.1163634 -0.1523566,0.2107241 -0.1582948,0.4730829 -0.00338,0.1491051 -0.01047,0.2143726 -0.027164,0.2503635 -0.012423,0.026773 -0.026773,0.080023 -0.031972,0.1182707 -0.00521,0.038248 -0.018137,0.090323 -0.028728,0.1157467 -0.010602,0.025423 -0.023272,0.087992 -0.028245,0.1390642 -0.00497,0.051073 -0.018893,0.1148145 -0.030889,0.1415884 -0.017992,0.040161 -0.022782,0.1289882 -0.027164,0.5081793 -0.00311,0.2693157 5.424e-4,0.4997047 0.0089,0.556377 0.00777,0.053195 0.021775,0.1484822 0.031131,0.2117815 0.016238,0.1098127 0.015479,0.1182924 -0.015135,0.1836561 -0.02665,0.056903 -0.030646,0.08231 -0.023557,0.1501221 0.00469,0.044899 0.018118,0.099943 0.029808,0.1223572 0.011682,0.022414 0.021348,0.050866 0.021393,0.063222 4.88e-5,0.012355 0.012586,0.038364 0.027887,0.057813 0.015298,0.01945 0.027764,0.042614 0.027764,0.051442 0,0.00882 0.016292,0.050512 0.036178,0.092549 0.034581,0.073097 0.03532,0.079127 0.015859,0.1382229 -0.011193,0.033985 -0.015569,0.06178 -0.00962,0.06178 0.00595,0 0.025529,0.012387 0.043391,0.027645 0.050935,0.043508 0.1307226,0.09377 0.1665876,0.1048088 0.018011,0.00554 0.043889,0.021828 0.057573,0.036179 0.013689,0.014351 0.036393,0.026082 0.050361,0.026082 0.013978,0 0.041248,0.012465 0.060698,0.027764 0.01945,0.015299 0.044501,0.027885 0.055651,0.027885 0.011157,0 0.036197,0.012465 0.055649,0.027764 0.01945,0.015299 0.041354,0.027764 0.048678,0.027764 0.00732,0 0.030445,0.013507 0.051322,0.029929 0.020876,0.016422 0.067032,0.035245 0.1026457,0.041827 0.035616,0.00658 0.071186,0.020444 0.078966,0.03089 0.00777,0.010448 0.042073,0.023782 0.076325,0.029567 0.034253,0.00578 0.084237,0.022229 0.1109384,0.036539 0.050548,0.027093 0.1949538,0.03699 0.1949538,0.013342 0,-0.01219 0.044011,-0.056954 0.1306503,-0.1328142 0.039724,-0.034779 0.096423,-0.045322 0.1299305,-0.024038 0.029836,0.018951 0.084634,0.1422403 0.094232,0.2120219 0.0074,0.053827 0.015172,0.068394 0.039302,0.073319 0.016563,0.00338 0.073388,0.00522 0.1263231,0.0042 0.090012,-0.00173 0.096881,-0.00402 0.1062532,-0.036539 0.017015,-0.059055 0.053338,-0.3990602 0.067788,-0.6341426 0.00756,-0.1230696 0.019681,-0.2392451 0.026923,-0.2582964 0.00725,-0.019051 0.020387,-0.1311965 0.029208,-0.2491617 0.00882,-0.1179652 0.021889,-0.2367965 0.028967,-0.2640658 0.00709,-0.027269 0.019329,-0.1430868 0.027165,-0.2573349 0.00783,-0.1142482 0.017431,-0.2234702 0.021393,-0.2427914 0.00637,-0.031047 -0.00145,-0.039592 -0.067669,-0.073078 -0.074647,-0.037797 -0.1523494,-0.048239 -0.1884639,-0.025361 -0.012621,0.00799 -0.0408,-0.00132 -0.083415,-0.027524 -0.064017,-0.039353 -0.065862,-0.039582 -0.314787,-0.041948 l -0.2503642,-0.0024 -0.01226,0.109617 c -0.014159,0.1257259 -0.01434,0.1635297 -0.00126,0.2697149 0.00829,0.067025 0.00578,0.079697 -0.019833,0.102886 -0.016672,0.015089 -0.029207,0.043553 -0.029207,0.066106 0,0.032639 0.00587,0.039544 0.033775,0.039544 0.021395,0 0.044339,-0.014687 0.062381,-0.040024 0.038794,-0.054482 0.093451,-0.063986 0.1215151,-0.021154 0.016907,0.025793 0.021586,0.081091 0.022596,0.2658687 0.00108,0.2083705 -0.00181,0.2401589 -0.027524,0.2960374 -0.015859,0.034423 -0.033041,0.08252 -0.038223,0.1068523 -0.00519,0.024332 -0.018464,0.051704 -0.029446,0.060818 -0.010976,0.00912 -0.019952,0.024608 -0.019952,0.034496 0,0.00989 -0.014032,0.034608 -0.03125,0.054928 -0.064618,0.076287 -0.1183072,0.1323334 -0.126806,0.1323334 -0.00483,0 -0.021359,0.012465 -0.036659,0.027764 -0.016853,0.016847 -0.046396,0.027885 -0.07488,0.027885 -0.037362,0 -0.054532,-0.00994 -0.083896,-0.048438 C 5.3172074,7.8206364 5.2919384,7.7743684 5.2814064,7.7445221 5.2634864,7.6937261 5.2172114,7.6151814 5.1714301,7.557741 5.1604771,7.544005 5.1304061,7.529356 5.1046021,7.525169 5.0787971,7.520979 5.0453711,7.508411 5.0302011,7.497163 c -0.027122,-0.02011 -0.027055,-0.020992 0.00938,-0.052645 0.025051,-0.021767 0.048401,-0.030014 0.072115,-0.025482 0.031118,0.00595 0.036157,9.765e-4 0.044593,-0.04399 0.00522,-0.027872 0.00634,-0.2303809 0.0024,-0.4500056 -0.00555,-0.3085058 -0.012224,-0.4167478 -0.029448,-0.4758472 -0.025238,-0.08658 -0.019204,-0.1388683 0.020193,-0.1745216 0.022146,-0.020039 0.027093,-0.043507 0.027524,-0.1300495 3.616e-4,-0.058099 0.00958,-0.1432875 0.020673,-0.189185 0.027893,-0.1155141 0.025755,-0.1772903 -0.00732,-0.2193537 -0.035043,-0.044547 -0.03845,-0.1694988 -0.00589,-0.2159883 0.012405,-0.017721 0.030757,-0.098284 0.042188,-0.1855793 0.011102,-0.084848 0.025417,-0.1644637 0.03185,-0.1769251 0.00644,-0.012461 0.016184,-0.091379 0.021636,-0.1753628 0.00544,-0.083984 0.017757,-0.1716036 0.027404,-0.1947139 0.00964,-0.02311 0.022141,-0.066596 0.027764,-0.096636 0.013743,-0.073411 0.1038574,-0.2427204 0.1426716,-0.2681524 0.019575,-0.012826 0.046009,-0.017249 0.070913,-0.011779 0.028581,0.00628 0.049785,8.136e-4 0.075722,-0.019591 0.019829,-0.015596 0.050808,-0.028366 0.068752,-0.028366 0.037398,0 0.099996,0.060221 0.1156255,0.1112996 0.00584,0.01907 0.02017,0.045696 0.031972,0.059135 0.021145,0.024077 0.041306,0.056082 0.074641,0.1187516 0.013273,0.024932 0.013453,0.072035 7.233e-4,0.2156276 -0.00896,0.101028 -0.017883,0.2476798 -0.019832,0.3259654 -0.00416,0.1668552 -0.00218,0.1698006 0.1441128,0.2037285 0.065935,0.015291 0.1056606,0.017266 0.1487998,0.00757 0.066125,-0.014857 0.1101971,-0.00709 0.1875019,0.032933 0.066549,0.034452 0.1106401,0.018425 0.1444726,-0.052525 0.012838,-0.026911 0.028384,-0.048919 0.034616,-0.048919 0.018635,0 0.013743,-0.428611 -0.00528,-0.463347 -0.00915,-0.016708 -0.01877,-0.083539 -0.021275,-0.1485595 C 6.5116433,4.2633339 6.518788,4.2987245 6.417739,4.1694767 6.4005238,4.1474622 6.386488,4.1227369 6.386488,4.1145475 c 0,-0.00819 -0.012459,-0.0215 -0.027764,-0.029688 -0.015298,-0.00819 -0.027885,-0.023686 -0.027885,-0.034376 0,-0.010689 -0.01197,-0.023254 -0.026564,-0.027885 C 6.2896821,4.0179676 6.2743381,4.005296 6.2701413,3.994353 6.2659489,3.983411 6.2418492,3.9649293 6.2166553,3.9533673 6.1914581,3.941813 6.1615395,3.9262627 6.1500642,3.9187592 6.1190525,3.8984776 5.9029401,3.8371753 5.8233768,3.8260896 5.7852567,3.8207778 5.7338153,3.8079416 5.7090732,3.7976032 5.6843303,3.7872649 5.6166802,3.7788527 5.558711,3.7788527 Z M 8.1444787,3.941474 c -0.021775,-3.798e-4 -0.04277,0.00108 -0.061178,0.00469 -0.034424,0.00673 -0.087552,0.012793 -0.1181516,0.013463 -0.030598,6.69e-4 -0.0807,0.010437 -0.1112982,0.021756 -0.1301404,0.048125 -0.507334,0.05161 -0.5361849,0.00493 -0.016998,-0.027494 -0.068504,0.00111 -0.1044489,0.058054 -0.040666,0.064419 -0.043944,0.08841 -0.0613,0.4437556 -0.00729,0.1491672 -0.019079,0.2900358 -0.026201,0.3129845 -0.00712,0.022949 -0.020363,0.1411662 -0.029448,0.2627437 -0.00908,0.1215774 -0.022234,0.2361108 -0.029207,0.2544502 -0.00698,0.01834 -0.019012,0.1191709 -0.026683,0.2240412 -0.00767,0.1048703 -0.023193,0.2312907 -0.034496,0.2810131 -0.011302,0.049723 -0.026502,0.184382 -0.033894,0.2992827 -0.0074,0.1149009 -0.020335,0.226974 -0.028726,0.2490414 -0.0084,0.022067 -0.021636,0.1252156 -0.029448,0.2292096 -0.00781,0.1039945 -0.022619,0.2204091 -0.032933,0.2586572 -0.010305,0.038248 -0.023182,0.1472251 -0.028485,0.2421904 -0.0053,0.094966 -0.018168,0.205477 -0.028607,0.245556 -0.010437,0.040079 -0.023014,0.1407109 -0.028005,0.2236805 -0.00499,0.08297 -0.020915,0.2123578 -0.035337,0.2875037 -0.014792,0.077062 -0.026204,0.1970076 -0.026204,0.2751235 0,0.1646476 -0.00698,0.1585356 0.1777663,0.1585356 0.1374168,0 0.155342,-0.00834 0.1557724,-0.072356 1.175e-4,-0.016831 0.0098,-0.035991 0.021515,-0.042548 0.011718,-0.00656 0.03205,-0.033403 0.045192,-0.059736 0.017323,-0.03471 0.04543,-0.058169 0.102165,-0.085218 0.086884,-0.041421 0.1290789,-0.095383 0.1447149,-0.1852187 0.00531,-0.030598 0.017811,-0.068681 0.027764,-0.084616 0.010613,-0.016991 0.022259,-0.1015427 0.028125,-0.2044496 0.012766,-0.2242296 0.015479,-0.2275448 0.2094977,-0.2490416 0.07731,-0.00856 0.1601719,-0.026573 0.1891854,-0.041106 0.063057,-0.031586 0.1405396,-0.03338 0.1699545,-0.00396 0.013346,0.013337 0.021753,0.04604 0.021753,0.083895 0,0.034122 0.00944,0.084558 0.020915,0.1120207 0.03076,0.073619 0.02603,0.096659 -0.026442,0.1290881 -0.068666,0.042438 -0.072879,0.067685 -0.019112,0.1137033 0.025073,0.021459 0.051425,0.039233 0.058654,0.039544 0.00723,3.11e-4 0.03071,0.017426 0.052165,0.037981 0.035563,0.034071 0.039064,0.046098 0.039064,0.1360593 0,0.054274 0.00936,0.1329343 0.020793,0.1747618 0.011428,0.041827 0.024939,0.1288852 0.030048,0.193512 0.00793,0.1003641 0.014249,0.1221608 0.04351,0.1492807 0.018842,0.017463 0.040751,0.027737 0.048678,0.022836 0.00792,-0.00489 0.1540745,-0.016085 0.3246439,-0.02476 0.1705694,-0.00867 0.3143168,-0.019964 0.319474,-0.02512 C 8.9540179,8.3927019 8.9025386,7.9779832 8.8816261,7.9359943 8.8716987,7.9160683 8.8571224,7.8486729 8.8492944,7.7862329 8.8414646,7.723793 8.8283909,7.6601748 8.8202068,7.644885 8.8120153,7.6295953 8.7992093,7.5436563 8.7917213,7.453897 8.7842351,7.3641378 8.7721487,7.2594499 8.7647982,7.2212019 8.7574567,7.1829538 8.7444914,7.0932144 8.7360721,7.0218004 8.7175827,6.8649831 8.6843288,6.7969178 8.6260939,6.7969178 c -0.021256,0 -0.04595,0.0088 -0.054809,0.019472 -0.00886,0.010679 -0.038569,0.02356 -0.066106,0.028727 -0.027538,0.00517 -0.072587,0.02154 -0.1001215,0.036298 -0.027534,0.014758 -0.059625,0.026803 -0.071274,0.026803 -0.011645,0 -0.049647,0.015167 -0.084377,0.033654 -0.070718,0.037647 -0.1511216,0.055881 -0.1747609,0.039664 -0.034874,-0.023924 -0.074633,-0.1108804 -0.07488,-0.163704 -3.616e-4,-0.069851 -0.00879,-0.082226 -0.070916,-0.1044489 -0.038794,-0.013876 -0.060461,-0.014282 -0.095914,-0.00192 -0.062764,0.021879 -0.1742853,0.020031 -0.2197142,-0.00361 -0.063448,-0.033012 -0.1038662,-0.087279 -0.1138226,-0.1528866 -0.010865,-0.071667 0.00799,-0.3885033 0.028124,-0.4726019 0.00756,-0.031538 0.023183,-0.1652406 0.034737,-0.2971191 0.011554,-0.1318784 0.026478,-0.2541485 0.033173,-0.2717582 0.00669,-0.017609 0.01622,-0.1225777 0.021276,-0.2331761 0.017468,-0.381724 0.041181,-0.5224102 0.095433,-0.5674347 0.032377,-0.02687 0.049953,0.00994 0.065988,0.1383429 0.00801,0.064222 0.021089,0.1324406 0.029088,0.1515645 0.00799,0.019124 0.02309,0.1160626 0.033533,0.2155075 0.010448,0.099444 0.025615,0.215262 0.033775,0.2573349 0.00815,0.042073 0.020728,0.1610364 0.027885,0.264306 0.00716,0.1032702 0.022099,0.2315524 0.033175,0.2850996 0.011085,0.053548 0.024151,0.1599253 0.029086,0.2364213 0.011048,0.1711077 0.033134,0.2939192 0.056252,0.313105 0.011989,0.00994 0.097799,0.010316 0.2740416,0.00121 C 8.5152345,6.564383 8.5598624,6.558199 8.6096329,6.532258 8.6415299,6.515632 8.6702879,6.497847 8.6734549,6.492715 8.6867254,6.4712318 8.6532268,5.9229242 8.634631,5.8571258 8.6236551,5.8182946 8.610021,5.7368479 8.6043404,5.6762341 8.5986664,5.6156211 8.5859882,5.553551 8.5760955,5.5382518 8.5662071,5.5229517 8.5536782,5.4697039 8.5483313,5.419981 8.5429755,5.3702583 8.5297585,5.312255 8.5190031,5.2910132 8.5082478,5.2697713 8.4931002,5.1977641 8.4853498,5.1310351 8.4775907,5.0643032 8.4612838,4.9847055 8.4490491,4.954107 8.4313463,4.9098478 8.4251368,4.8188452 8.4185203,4.5090295 l -0.0083,-0.3894279 -0.036537,-0.05565 C 8.3536446,4.0333535 8.3255643,3.9981099 8.3111851,3.9855854 8.2820578,3.9602137 8.2098014,3.9425902 8.1444763,3.9414741 Z m 3.7149493,0.1781273 -0.194714,0.00541 c -0.107093,0.003 -0.319852,0.00928 -0.472843,0.013941 l -0.278129,0.00842 -0.0035,0.055649 c -0.0019,0.030599 -0.0128,0.09002 -0.02416,0.1320931 -0.01136,0.042073 -0.02675,0.1616343 -0.03425,0.2656283 -0.0075,0.1039934 -0.02075,0.2072255 -0.02933,0.2294498 -0.0086,0.022224 -0.02154,0.1029322 -0.02884,0.1793291 -0.0072,0.076397 -0.02148,0.1515513 -0.03149,0.1669493 -0.01,0.015398 -0.0227,0.068519 -0.02825,0.1180303 -0.0056,0.049511 -0.01912,0.1057867 -0.03017,0.1251217 -0.02263,0.03959 -0.06921,0.2049527 -0.09027,0.3203165 -0.0077,0.042073 -0.03004,0.1249726 -0.04964,0.184257 -0.0311,0.094102 -0.03986,0.1078138 -0.06863,0.1078138 -0.04029,0 -0.06914,-0.041472 -0.08726,-0.1252419 -0.0075,-0.034428 -0.02715,-0.1189014 -0.04375,-0.1877479 -0.01659,-0.068846 -0.03318,-0.1846636 -0.0369,-0.2573348 -0.0037,-0.072671 -0.01521,-0.1696099 -0.02548,-0.2155075 -0.01032,-0.045898 -0.02275,-0.1625333 -0.02777,-0.2591378 -0.005,-0.096604 -0.0146,-0.2092752 -0.0214,-0.2503637 -0.0068,-0.041089 -0.02187,-0.1356286 -0.03342,-0.2100987 -0.02146,-0.1385095 -0.04574,-0.1948502 -0.09579,-0.2216375 -0.05614,-0.030043 -0.1901351,-0.049093 -0.2634654,-0.0375 -0.039369,0.00622 -0.1688063,0.011808 -0.2877445,0.01238 -0.1729635,8.317e-4 -0.2397154,0.00694 -0.3330559,0.03077 l -0.1167086,0.029808 0.00936,0.313826 c 0.00511,0.1725854 0.018411,0.3763942 0.029568,0.4528902 0.011157,0.076496 0.026697,0.295545 0.034496,0.4867848 0.00779,0.1912401 0.019738,0.3757983 0.026564,0.4102215 0.00682,0.034424 0.016817,0.1327648 0.022234,0.2185123 0.0091,0.1439166 0.00757,0.159605 -0.019472,0.2033679 -0.037526,0.06072 -0.0368,0.077123 0.00553,0.1344969 0.043431,0.058869 0.044709,0.1227558 0.00349,0.1751224 -0.030381,0.038592 -0.031456,0.050419 -0.035457,0.4045723 -0.00397,0.3521282 -0.00302,0.3670983 0.026804,0.4314957 0.036336,0.078479 0.038924,0.200329 0.00781,0.3657497 -0.019039,0.1012256 -0.013327,0.3003755 0.01226,0.4276495 l 0.00913,0.045193 H 9.456124 c 0.180316,0 0.2051162,-0.00285 0.2367824,-0.027764 0.01945,-0.015299 0.043177,-0.027885 0.052765,-0.027885 0.039355,0 0.045123,-1.0029831 0.00626,-1.0875134 -0.01302,-0.028304 -0.013526,-0.052077 -0.00217,-0.096876 0.00994,-0.039214 0.010393,-0.064899 0.00126,-0.075843 C 9.7297831,7.0688131 9.761574,6.0407 9.7868337,5.9364506 9.8017518,5.8748191 9.852065,5.77985 9.874333,5.7713043 c 0.040477,-0.015533 0.054365,0.035267 0.063824,0.2334163 0.00609,0.1278202 0.015967,0.2064608 0.028485,0.2263251 0.010547,0.016741 0.023817,0.045776 0.029448,0.064544 0.00562,0.018767 0.017811,0.041736 0.027045,0.050962 0.01145,0.011442 0.01961,0.1113894 0.02572,0.3145472 0.0064,0.2115462 0.01512,0.3152637 0.03017,0.3579371 0.01166,0.033044 0.025,0.1045367 0.02969,0.1588963 0.0047,0.05436 0.02004,0.125697 0.03413,0.1585356 0.03679,0.085699 0.04499,0.1445552 0.02849,0.2043294 -0.01407,0.050971 -0.0022,0.1515221 0.02632,0.2228393 0.02555,0.063964 0.02982,0.091961 0.04195,0.2723592 0.008,0.1192247 0.0206,0.2040676 0.03389,0.2295701 0.01161,0.022246 0.02111,0.051639 0.02116,0.065265 4.7e-5,0.013627 0.0079,0.027371 0.01743,0.03065 0.0095,0.00328 0.100584,0.00158 0.202285,-0.00384 l 0.184978,-0.00986 0.0033,-0.1182707 c 0.0021,-0.074194 0.01188,-0.1363984 0.0262,-0.1669492 0.01255,-0.026773 0.02706,-0.070584 0.03221,-0.097357 0.0052,-0.026773 0.01761,-0.061804 0.02777,-0.077885 0.02045,-0.032368 0.04832,-0.2092166 0.04832,-0.3064942 0,-0.1200777 -0.03239,-0.1357149 -0.19844,-0.096034 -0.0786,0.018782 -0.08125,0.018344 -0.121758,-0.015746 -0.02276,-0.019157 -0.04134,-0.043004 -0.04134,-0.053005 0,-0.026358 0.09356,-0.1044489 0.125122,-0.1044489 0.01475,0 0.03352,-0.012586 0.04171,-0.027885 0.01647,-0.030778 0.09318,-0.038434 0.138943,-0.013942 0.02079,0.011125 0.03269,0.00547 0.06166,-0.028967 0.01975,-0.023471 0.03594,-0.04689 0.03594,-0.052044 0,-0.00516 0.0093,-0.053187 0.0208,-0.1067317 0.01145,-0.053544 0.03002,-0.2287863 0.04134,-0.3894278 0.01134,-0.1606417 0.02736,-0.3139759 0.03558,-0.3407495 0.0082,-0.026773 0.02103,-0.1102524 0.02848,-0.1855792 0.0075,-0.075327 0.02275,-0.1590955 0.03401,-0.18606 0.01127,-0.026965 0.02056,-0.072103 0.02056,-0.1003619 0,-0.064634 0.02666,-0.2118264 0.04171,-0.2302912 0.0063,-0.00765 0.01817,-0.051459 0.02656,-0.097357 0.01519,-0.083174 0.04432,-0.1376591 0.08846,-0.1655068 0.06443,-0.040645 0.08233,0.1068677 0.04027,0.3326963 -0.04117,0.2210035 -0.05616,0.5217325 -0.04604,0.9245309 0.0019,0.072671 0.002,0.1541181 5.42e-4,0.1808916 -0.0014,0.026773 0.0021,0.3584934 0.0079,0.7371485 l 0.01054,0.6884701 0.03341,0.052164 c 0.03122,0.048737 0.038,0.052044 0.102286,0.052044 0.07866,0 0.11787,-0.030176 0.133294,-0.1026458 0.005,-0.023827 0.02103,-0.069593 0.03546,-0.1016843 0.01443,-0.032092 0.02632,-0.071603 0.02632,-0.087742 0,-0.016139 0.0117,-0.055531 0.02608,-0.087621 0.01438,-0.032092 0.0368,-0.1397408 0.04988,-0.2391856 0.02765,-0.2101171 0.02669,-0.190168 0.01371,-0.2750034 -0.01043,-0.067943 0.0026,-0.1161575 0.06274,-0.2326952 0.01382,-0.026773 0.03233,-0.09498 0.0411,-0.1515644 0.0088,-0.056584 0.02007,-0.1095061 0.02512,-0.1176697 0.005,-0.00817 0.01295,-0.1968933 0.01754,-0.4193562 0.0079,-0.3817778 0.01,-0.4072123 0.03823,-0.4528902 0.02977,-0.048181 0.03218,-0.07121 0.04447,-0.4395487 5.42e-4,-0.016665 0.01197,-0.041298 0.02536,-0.054689 0.01973,-0.019738 0.02417,-0.048586 0.0238,-0.1524057 -3.62e-4,-0.08594 -0.0065,-0.1354239 -0.01899,-0.1504825 -0.01558,-0.01876 -0.01558,-0.029866 3.61e-4,-0.067669 0.02713,-0.064309 0.02408,-0.6120885 -0.0036,-0.6453203 -0.01275,-0.015303 -0.02362,-0.094552 -0.03294,-0.2399069 z M 2.197649,4.2559009 A 6.9249734,6.9249734 0 0 0 1.7554575,5.0354779 6.9249734,6.9249734 0 0 1 2.197649,4.2559009 Z M 1.6934361,5.1852393 A 6.9249734,6.9249734 0 0 0 1.3845386,5.9824848 6.9249734,6.9249734 0 0 1 1.6934361,5.1852393 Z M 13.329759,5.944744 c -0.0093,1.498e-4 -0.01823,0.00571 -0.03233,0.014664 -0.02075,0.013168 -0.05639,0.047253 -0.07909,0.075843 -0.05827,0.07338 -0.180407,0.1530855 -0.28522,0.1860599 -0.0402,0.012649 -0.07683,0.080904 -0.122358,0.2278874 -0.01602,0.051745 -0.02591,0.063363 -0.05697,0.066948 -0.03419,0.00394 -0.110729,-0.043195 -0.205892,-0.1269246 -0.01148,-0.010097 -0.05214,-0.036734 -0.09039,-0.059136 -0.06074,-0.035573 -0.08318,-0.040703 -0.177767,-0.040745 -0.08077,-3.67e-5 -0.111969,0.00523 -0.122478,0.020794 -0.01517,0.022472 -0.0076,0.1517211 0.01647,0.2782486 0.008,0.042073 0.01186,0.1609163 0.0087,0.264186 -0.0058,0.187778 -0.04378,0.6654413 -0.05913,0.7441198 -0.04056,0.2078889 -0.04964,0.4701294 -0.01923,0.5542135 0.01488,0.041173 0.01519,0.057518 0.0018,0.078967 -0.02978,0.047688 -0.02037,0.067063 0.03534,0.073319 0.02869,0.00322 0.07092,0.00397 0.09387,0.00156 0.02295,-0.00241 0.288954,-0.00815 0.591112,-0.01262 0.30216,-0.00447 0.649492,-0.014551 0.771884,-0.022476 0.251476,-0.016284 0.279327,-0.027146 0.265027,-0.1033668 -0.0045,-0.023794 0.002,-0.091961 0.0143,-0.1514441 0.01229,-0.059484 0.01703,-0.1129499 0.01054,-0.1187515 -0.04409,-0.039568 -0.12472,-0.048148 -0.517196,-0.055408 -0.407914,-0.00754 -0.408065,-0.00756 -0.43462,-0.040385 -0.01731,-0.021393 -0.02673,-0.055317 -0.02716,-0.097357 -3.62e-4,-0.035488 -0.0089,-0.1427243 -0.01911,-0.2383442 -0.01307,-0.1228603 -0.01502,-0.2188104 -0.0065,-0.3269272 0.0067,-0.084145 0.01418,-0.2530918 0.0167,-0.3754855 0.0053,-0.2537876 0.01443,-0.2850996 0.08365,-0.2850996 0.02498,0 0.05293,0.0075 0.06214,0.016707 0.02087,0.020875 0.114931,0.015804 0.138343,-0.00745 0.01387,-0.013773 0.05468,-0.013343 0.200845,0.00204 0.173312,0.018242 0.18448,0.017923 0.201805,-0.00577 0.02218,-0.030329 0.01423,-0.086098 -0.03185,-0.2234404 -0.01839,-0.054831 -0.03353,-0.1089101 -0.03353,-0.1201937 0,-0.011283 -0.0093,-0.024203 -0.0208,-0.028606 -0.01148,-0.0044 -0.02092,-0.017124 -0.02092,-0.028245 0,-0.011121 -0.03245,-0.048616 -0.07224,-0.083414 -0.04507,-0.039427 -0.06215,-0.054217 -0.07777,-0.053967 z M 2.6482561,6.0006346 c -0.064151,0 -0.08163,0.00687 -0.1037267,0.040265 -0.017721,0.026773 -0.017775,0.026986 -0.025361,0.2662293 -0.014285,0.4505261 -0.015189,0.636787 -0.00349,0.6984461 0.00615,0.032356 0.012224,0.1167493 0.01443,0.2016852 0.00449,0.1732376 0.01566,0.3999866 0.021515,0.4358227 0.00363,0.022251 0.0074,0.026397 0.029688,0.032332 0.035679,0.00949 0.099248,0.00964 0.1258421,3.599e-4 0.022301,-0.00777 0.022346,-0.0078 0.0089,-0.022596 -0.019642,-0.021602 -0.027201,-0.038757 -0.032453,-0.073919 -0.00608,-0.040665 0.00413,-0.066934 0.037981,-0.097718 0.014954,-0.01359 0.030085,-0.03232 0.033656,-0.041708 0.00357,-0.00938 0.00879,-0.1735758 0.011537,-0.3647882 0.0045,-0.3129623 0.00626,-0.3504969 0.01754,-0.3765671 0.019366,-0.044682 0.065846,-0.064033 0.1137032,-0.047357 0.015859,0.00553 0.030743,0.010042 0.033175,0.010097 0.00958,2.189e-4 0.026924,-0.048823 0.026924,-0.076203 0,-0.031293 0.00762,-0.050525 0.029688,-0.074761 0.01575,-0.017306 0.013779,-0.018966 -0.031972,-0.025361 -0.023456,-0.00328 -0.029563,-8.462e-4 -0.050361,0.019952 -0.037874,0.037875 -0.1016657,0.049864 -0.1253611,0.023558 -0.012386,-0.013743 -0.013146,-0.026449 -0.011898,-0.1930312 7.232e-4,-0.09805 0.00396,-0.1985791 0.00721,-0.2234404 0.00547,-0.041912 0.00461,-0.046852 -0.011175,-0.06815 -0.023104,-0.03116 -0.055179,-0.04315 -0.115987,-0.04315 z M 1.9327428,6.1650597 c -0.044481,6.69e-4 -0.049501,0.00236 -0.064062,0.020794 -0.0087,0.011004 -0.023717,0.029828 -0.033415,0.041827 -0.016708,0.020684 -0.017666,0.026115 -0.017305,0.1043281 1.809e-4,0.045372 0.00427,0.1137971 0.00901,0.152045 0.00718,0.057821 0.00701,0.076095 -0.00109,0.108896 -0.014485,0.058712 -0.024163,0.066487 -0.1073341,0.085218 -0.017034,0.00384 -0.01911,0.00738 -0.01911,0.032693 0,0.020167 0.00497,0.034497 0.017305,0.04916 0.00957,0.011363 0.017431,0.02455 0.017431,0.029327 0,0.016305 0.031277,0.037078 0.06142,0.040866 0.016546,0.00207 0.036022,0.00932 0.043391,0.015986 0.028164,0.025487 0.029666,0.050528 0.030769,0.5245256 5.424e-4,0.2505245 0.00372,0.4617072 0.00696,0.4693568 0.00475,0.011197 0.064293,0.072958 0.070314,0.072958 9.041e-4,0 0.010995,-0.00932 0.022474,-0.020793 0.018707,-0.018707 0.025299,-0.020914 0.064065,-0.020914 0.040633,0 0.044576,0.00156 0.064904,0.024399 0.021867,0.024572 0.042322,0.029742 0.078366,0.020072 l 0.015027,-0.00396 -0.016834,-0.02464 c -0.020876,-0.030764 -0.020762,-0.038102 1.211e-4,-0.062381 l 0.016708,-0.019472 0.03185,0.015505 c 0.03572,0.017354 0.057561,0.013841 0.075842,-0.01226 0.00947,-0.013531 0.00935,-0.017234 -0.00192,-0.037019 -0.00687,-0.012069 -0.017974,-0.039061 -0.02464,-0.060097 -0.016311,-0.051405 -0.0166,-0.051691 -0.033656,-0.036179 -0.026231,0.023855 -0.042646,0.029189 -0.067309,0.022115 -0.02633,-0.00755 -0.052373,-0.029884 -0.066466,-0.056972 -0.014647,-0.028147 -0.024676,-0.1411856 -0.023557,-0.2663494 5.425e-4,-0.061197 -7.232e-4,-0.2035184 -0.003,-0.31635 -0.00313,-0.158587 -0.00215,-0.2076992 0.00458,-0.2162287 0.016401,-0.020818 0.04031,-0.027764 0.1093755,-0.031972 l 0.06923,-0.0042 0.00505,-0.031972 c 0.00792,-0.049252 0.00633,-0.1203046 -0.00326,-0.1425498 -0.00785,-0.018231 -0.00964,-0.019006 -0.020553,-0.00949 -0.031347,0.027329 -0.092472,0.040773 -0.1194716,0.026322 -0.00783,-0.00419 -0.02131,-0.020772 -0.029929,-0.0369 -0.015172,-0.02838 -0.015624,-0.035462 -0.015624,-0.2205557 0,-0.105182 -0.00229,-0.1948063 -0.00505,-0.1990409 -0.00788,-0.012109 -0.087562,-0.026881 -0.1406265,-0.026082 z m -0.6057774,0.056852 a 6.9249734,6.9249734 0 0 0 -0.1717574,0.75674 6.9249734,6.9249734 0 0 1 0.1717574,-0.75674 z m 1.7956963,0.2608204 c -0.020176,-0.0015 -0.031953,0.020954 -0.032212,0.067429 -1.176e-4,0.021064 -0.012712,0.061601 -0.028007,0.090145 -0.018855,0.035181 -0.027957,0.078871 -0.028124,0.1355786 -1.338e-4,0.046011 -0.00946,0.1274675 -0.020795,0.1810118 -0.032949,0.1555556 -0.018903,0.5853942 0.021636,0.6615467 0.00924,0.017354 0.029552,0.020578 0.0994,0.015746 0.048284,-0.00334 0.095341,-0.012067 0.1045686,-0.019472 0.012621,-0.01013 0.016111,-0.1344688 0.013941,-0.5025303 l -0.0029,-0.4890688 -0.044713,-0.064424 c -0.034053,-0.049034 -0.062638,-0.074458 -0.082813,-0.075963 z m 0.6769304,0.053607 c -0.08419,-1.104e-4 -0.1330696,0.01024 -0.1506025,0.031972 -0.00949,0.011769 -0.031517,0.023925 -0.059977,0.033174 -0.036623,0.0119 -0.049613,0.020423 -0.070193,0.045915 -0.038131,0.04723 -0.046198,0.07049 -0.053367,0.1552904 -0.00893,0.105576 -0.020305,0.1700357 -0.035577,0.2008437 -0.016672,0.033632 -0.016166,0.079586 0.00126,0.1290883 0.00774,0.021897 0.017197,0.069555 0.021153,0.1058909 0.014376,0.1324005 0.025822,0.1953776 0.037621,0.2084161 0.00644,0.00711 0.017757,0.032743 0.025241,0.056972 0.00927,0.030044 0.020915,0.05084 0.036658,0.065385 0.012694,0.01173 0.024379,0.0253 0.025961,0.030048 0.00162,0.00475 0.021597,0.015116 0.044472,0.023077 0.033756,0.01175 0.066553,0.015369 0.1738008,0.019231 0.07267,0.00261 0.1572353,0.00533 0.1879829,0.00601 l 0.05589,0.00121 0.023679,-0.040024 c 0.013001,-0.021992 0.027176,-0.044624 0.031491,-0.050361 0.0043,-0.00574 0.011573,-0.026069 0.016111,-0.045193 0.00656,-0.027729 0.00631,-0.041022 -0.00108,-0.065506 -0.00835,-0.027679 -0.01235,-0.031629 -0.040024,-0.039905 -0.016889,-0.00505 -0.045681,-0.0092 -0.064062,-0.00925 -0.032744,-1.035e-4 -0.033762,4.303e-4 -0.046756,0.029808 -0.00731,0.016493 -0.0196,0.035846 -0.027404,0.04291 -0.00781,0.00707 -0.01745,0.025578 -0.021393,0.041226 -0.012098,0.048079 -0.019704,0.060104 -0.044713,0.070554 -0.013254,0.00554 -0.038502,0.010097 -0.05613,0.010097 -0.025882,0 -0.035859,-0.00376 -0.051684,-0.019591 -0.017649,-0.017649 -0.019994,-0.025798 -0.02392,-0.081732 -0.0024,-0.034163 -0.010832,-0.080899 -0.01875,-0.1038475 -0.0079,-0.022948 -0.016039,-0.066759 -0.018028,-0.097357 -0.00346,-0.05306 -0.00279,-0.056368 0.014304,-0.072237 0.015334,-0.014238 0.027354,-0.017299 0.083173,-0.020914 0.081328,-0.00527 0.091288,-0.011879 0.085337,-0.056731 -0.00349,-0.026366 -0.00162,-0.03565 0.010218,-0.050721 0.00798,-0.010152 0.017974,-0.018389 0.022234,-0.018389 0.010635,0 0.040025,0.028303 0.040025,0.038582 0,0.0046 0.017612,0.022872 0.039184,0.040626 0.035314,0.029072 0.041684,0.031811 0.064304,0.027765 0.029085,-0.0052 0.046541,-0.018706 0.06142,-0.047476 0.00882,-0.017064 0.01002,-0.043017 0.00685,-0.1564923 C 4.1200592,6.822889 4.110173,6.764044 4.0834306,6.7322694 4.0729386,6.7198085 4.0605721,6.6906867 4.0535021,6.661836 c -0.00664,-0.027051 -0.015768,-0.04916 -0.020193,-0.04916 -0.00443,0 -0.029898,-0.013005 -0.056612,-0.028846 C 3.9187671,6.549477 3.8700006,6.536446 3.7995312,6.536354 Z m -0.014792,0.1638241 c 0.00989,-8.263e-4 0.016328,0.00335 0.028607,0.015625 0.015135,0.015132 0.020915,0.030207 0.027404,0.071035 0.00452,0.028499 0.015912,0.069472 0.025241,0.090987 0.00933,0.021515 0.016889,0.044993 0.016836,0.052165 -1.808e-4,0.020159 -0.024994,0.070066 -0.044353,0.089424 -0.015063,0.015072 -0.02344,0.017422 -0.061298,0.016947 -0.053367,-6.69e-4 -0.058962,-0.00279 -0.070796,-0.026203 -0.013201,-0.026122 -0.020003,-0.1488206 -0.011048,-0.1992813 0.013146,-0.074134 0.02724,-0.093735 0.078006,-0.1082944 0.00443,-0.00127 0.00812,-0.00213 0.011411,-0.0024 z M 14.003798,8.4724195 c 0.08127,5.605e-4 0.138893,0.014485 0.156492,0.03774 0.01032,0.013693 0.03194,0.022728 0.06442,0.027164 0.03089,0.00421 0.05685,0.014784 0.07091,0.028846 0.0122,0.012212 0.03236,0.025474 0.04471,0.029327 0.01235,0.00385 0.0374,0.020022 0.05565,0.035938 0.01824,0.015916 0.04349,0.033613 0.05625,0.039424 0.01275,0.00581 0.02593,0.019021 0.0292,0.029327 0.0033,0.010305 0.01665,0.022883 0.02981,0.027885 0.01317,0.005 0.02784,0.019103 0.03257,0.031371 0.0047,0.012268 0.02238,0.03955 0.03918,0.060578 0.01681,0.021028 0.03053,0.046111 0.03053,0.05577 0,0.00966 0.01128,0.030932 0.025,0.047236 0.01816,0.02159 0.02552,0.0426 0.02704,0.077525 0.0019,0.041623 -0.0031,0.055481 -0.03726,0.1051699 -0.02163,0.031486 -0.04871,0.06342 -0.0601,0.070914 -0.02543,0.016736 -0.152572,0.024201 -0.24255,0.014182 -0.05125,-0.00571 -0.07272,-0.013227 -0.0934,-0.032453 -0.01477,-0.013737 -0.0399,-0.027978 -0.05576,-0.031732 -0.01586,-0.00375 -0.04115,-0.017336 -0.05625,-0.030048 -0.01511,-0.012714 -0.04111,-0.026019 -0.05782,-0.029688 -0.01848,-0.00406 -0.03466,-0.016004 -0.04122,-0.030409 -0.0059,-0.013017 -0.01809,-0.023678 -0.02704,-0.023678 -0.009,0 -0.02991,-0.014391 -0.04663,-0.031972 -0.03794,-0.039886 -0.04893,-0.050744 -0.08881,-0.088701 -0.01758,-0.016728 -0.03197,-0.037071 -0.03197,-0.045192 0,-0.00812 -0.01,-0.025387 -0.02212,-0.038342 -0.02017,-0.02148 -0.02211,-0.033079 -0.02211,-0.1317323 0,-0.097011 0.0021,-0.1095829 0.01971,-0.1219968 0.01087,-0.00762 0.03071,-0.024479 0.04423,-0.0375 0.0305,-0.029372 0.08666,-0.04544 0.157333,-0.044952 z m -1.509634,0.1233188 c 0.362408,-5.063e-4 0.670767,0.00244 0.685225,0.00649 0.01445,0.00406 0.0388,0.017828 0.05408,0.030529 0.0153,0.012701 0.0401,0.026009 0.05517,0.029688 0.01642,0.00401 0.03112,0.016439 0.03666,0.031011 0.005,0.013372 0.01614,0.024399 0.02464,0.024399 0.0085,0 0.02269,0.012531 0.03149,0.027885 0.0088,0.015354 0.0252,0.031969 0.03641,0.0369 0.01122,0.00493 0.02191,0.019135 0.02367,0.031611 0.0018,0.012498 0.01404,0.027613 0.02728,0.033654 0.03266,0.014882 0.03835,0.041959 0.03798,0.1796898 -3.61e-4,0.1195392 -0.01043,0.1622617 -0.03858,0.1622617 -0.0075,0 -0.02739,0.011671 -0.04423,0.025841 l -0.03065,0.025722 -0.380774,0.00877 c -0.292776,0.0068 -0.395439,0.012606 -0.444596,0.02476 -0.07115,0.017591 -0.06102,0.017037 -0.767076,0.038823 -0.278506,0.00859 -0.513745,0.019648 -0.522844,0.024519 -0.02102,0.011251 -0.08968,0.014898 -0.524646,0.028486 -0.332629,0.010393 -0.509426,0.019981 -0.998209,0.053847 -0.1108878,0.00768 -0.3388151,0.01684 -0.5064967,0.020433 -0.2902942,0.00622 -0.3700022,0.01183 -0.4818575,0.033774 -0.027046,0.0053 -0.1730683,0.013833 -0.3245227,0.018991 -0.4190186,0.014271 -0.7303247,0.018918 -0.8049388,0.01202 -0.055389,-0.00513 -0.070956,-0.010514 -0.088583,-0.031011 -0.011772,-0.013689 -0.03604,-0.031037 -0.053966,-0.038462 -0.01792,-0.00743 -0.0394,-0.023846 -0.047718,-0.036539 -0.00832,-0.012692 -0.019612,-0.023077 -0.02512,-0.023077 -0.013037,0 -0.1057702,-0.094204 -0.1057702,-0.1074527 0,-0.00559 -0.010799,-0.017126 -0.023918,-0.025722 -0.034323,-0.022489 -0.044953,-0.063487 -0.044953,-0.1725983 0,-0.1039946 0.00958,-0.1437304 0.03678,-0.1532472 0.00955,-0.00334 0.033214,-0.021121 0.052644,-0.039544 0.051581,-0.048903 0.1121753,-0.062032 0.3334193,-0.072237 0.1054761,-0.00486 0.2869543,-0.013589 0.4032488,-0.019351 0.1162963,-0.00576 0.3154398,-0.012528 0.4425532,-0.015025 0.127115,-0.0025 0.2753615,-0.00943 0.3294519,-0.015385 0.1475413,-0.016239 0.3590008,-0.026021 0.8163563,-0.037981 0.3857234,-0.010086 0.4604174,-0.01473 0.6391904,-0.039424 0.03786,-0.00522 0.239232,-0.014161 0.447481,-0.019832 0.565374,-0.015398 0.616842,-0.017408 0.71311,-0.027764 0.285595,-0.030726 0.397144,-0.034574 1.032587,-0.035458 z m -6.795877,0.184738 c 0.07503,-0.00249 0.1252887,0.00871 0.1558917,0.034255 0.017124,0.014289 0.039642,0.030744 0.050119,0.036539 0.010492,0.00579 0.023375,0.023462 0.028607,0.039303 0.00525,0.01584 0.017685,0.034639 0.027645,0.041708 0.011103,0.00788 0.018115,0.02498 0.018149,0.044231 8.32e-5,0.047204 0.01969,0.1083077 0.039062,0.1218766 0.00946,0.00662 0.026976,0.033213 0.039064,0.059135 0.012079,0.025922 0.03044,0.06256 0.040745,0.081492 0.010305,0.018932 0.018743,0.04791 0.01875,0.064424 1.09e-5,0.018201 0.012314,0.046653 0.031131,0.072237 0.021602,0.029373 0.032372,0.056877 0.035577,0.090266 0.00333,0.034602 0.00946,0.049505 0.021996,0.053486 0.025791,0.00819 0.042456,0.057686 0.036659,0.1091363 -0.00418,0.037132 -0.011682,0.050501 -0.042548,0.076083 -0.04911,0.04071 -0.073736,0.044522 -0.2907498,0.045192 -0.1519082,4.702e-4 -0.1940153,0.00386 -0.2457948,0.019591 -0.089107,0.027075 -0.1469933,0.033211 -0.171157,0.018149 -0.011085,-0.0069 -0.034454,-0.021393 -0.051924,-0.032212 -0.017468,-0.010821 -0.034145,-0.028799 -0.037018,-0.039905 -0.00288,-0.011104 -0.017739,-0.02487 -0.033053,-0.030649 -0.023169,-0.00875 -0.029702,-0.019168 -0.038944,-0.06226 -0.00991,-0.046223 -0.00896,-0.055419 0.00877,-0.085458 0.01092,-0.018506 0.019832,-0.034973 0.019832,-0.036659 0,-0.00168 -0.026757,-0.019858 -0.059495,-0.040385 -0.032738,-0.020526 -0.063396,-0.04447 -0.06803,-0.053126 -0.00463,-0.00866 -0.00495,-0.034641 -7.232e-4,-0.057813 0.00746,-0.040851 0.026337,-0.06401 0.0619,-0.076082 0.036722,-0.012466 0.014357,-0.024159 -0.046154,-0.024159 -0.054334,0 -0.0656,-0.00314 -0.078726,-0.021875 -0.019332,-0.0276 -0.019919,-0.1049087 -9.041e-4,-0.1319728 0.016021,-0.022872 0.011121,-0.033053 -0.016112,-0.033053 -0.027943,0 -0.090106,-0.102727 -0.082333,-0.1360593 0.013779,-0.059082 0.027234,-0.077886 0.071996,-0.1002422 0.041979,-0.020964 0.059694,-0.023004 0.2133455,-0.02464 0.092145,-9.764e-4 0.2095536,-0.007 0.2609407,-0.013463 0.030688,-0.00386 0.058525,-0.00627 0.083534,-0.00709 z m 7.071962,0.040024 c -0.06544,-1.424e-4 -0.146419,5.968e-4 -0.246638,0.00204 -0.270524,0.0039 -0.354082,0.0084 -0.437625,0.023558 -0.125509,0.022771 -0.230325,0.028063 -0.762629,0.038101 -0.259028,0.00488 -0.420775,0.011694 -0.43306,0.01827 -0.03956,0.021173 -0.223444,0.03223 -0.68919,0.041466 -0.2620874,0.0052 -0.4928935,0.013826 -0.5128675,0.019111 -0.08601,0.022756 -0.2305421,0.031473 -0.6608243,0.039905 -0.2515234,0.00493 -0.4727818,0.013363 -0.4917144,0.018751 -0.073603,0.020944 -0.2378745,0.031078 -0.6589021,0.040866 -0.2407045,0.0056 -0.4432439,0.012023 -0.4500049,0.014304 -0.020865,0.00703 -0.014719,0.061844 0.0083,0.074159 0.011283,0.00604 0.026768,0.026096 0.034496,0.044592 0.00773,0.018496 0.018426,0.033534 0.023799,0.033534 0.00537,0 0.019372,0.011118 0.031131,0.02464 0.011754,0.013522 0.029152,0.02464 0.038581,0.02464 0.00942,0 0.031626,0.012168 0.04928,0.027043 0.026466,0.022302 0.04416,0.027917 0.1014429,0.031972 0.038205,0.0027 0.098256,0.0039 0.1334151,0.00264 0.03516,-0.00125 0.1724083,-0.00389 0.304932,-0.00577 0.1919339,-0.00273 0.2469322,-0.00651 0.2704358,-0.01851 0.044782,-0.02287 0.1361674,-0.028004 0.6441179,-0.036659 0.3041816,-0.00518 0.4758233,-0.011877 0.4918337,-0.018991 0.048463,-0.021533 0.2084614,-0.031484 0.6490458,-0.040505 0.246113,-0.00504 0.476265,-0.013647 0.511425,-0.019111 0.03516,-0.00547 0.09483,-0.014627 0.132694,-0.020312 0.03786,-0.00568 0.241455,-0.014549 0.452409,-0.019712 0.49686,-0.012159 0.602427,-0.017004 0.644238,-0.029567 0.05185,-0.015578 0.29623,-0.028726 0.722845,-0.038943 0.210956,-0.00505 0.398984,-0.013663 0.417914,-0.019231 0.01893,-0.00556 0.06878,-0.0129 0.1107,-0.016225 0.06459,-0.00513 0.0762,-0.0088 0.0762,-0.023798 0,-0.00973 -0.01065,-0.024702 -0.02379,-0.033293 -0.01311,-0.00859 -0.02669,-0.024616 -0.03017,-0.035577 -0.0035,-0.010964 -0.01298,-0.019833 -0.02103,-0.019833 -0.008,0 -0.02654,-0.012838 -0.0411,-0.028485 -0.01458,-0.015647 -0.04136,-0.031621 -0.0595,-0.035458 -0.01813,-0.00383 -0.04247,-0.016506 -0.05408,-0.028125 -0.02252,-0.022542 -0.07974,-0.031063 -0.276085,-0.031491 z M 1.1564033,9.0364887 A 6.9249734,6.9249734 0 0 0 1.2294827,9.37219 6.9249734,6.9249734 0 0 1 1.1564033,9.0364887 Z m 2.3080825,0.4598616 c -0.055956,4.159e-4 -0.1463731,0.00361 -0.2985615,0.00842 -0.1788856,0.00564 -0.3451242,0.015887 -0.3933957,0.024159 -0.099533,0.017057 -0.187746,0.022837 -0.5227222,0.034255 -0.245254,0.00836 -0.2859182,0.014075 -0.3056535,0.043631 -0.00397,0.00595 -0.00738,0.042895 -0.00745,0.081972 -1.465e-4,0.069058 7.232e-4,0.071469 0.029448,0.086299 0.01622,0.0084 0.029448,0.019542 0.029448,0.02488 0,0.00533 0.02454,0.020547 0.054448,0.033774 0.029909,0.013227 0.061132,0.030842 0.069472,0.039184 0.00834,0.00834 0.022773,0.015265 0.031972,0.015265 0.00921,0 0.03203,0.012621 0.050843,0.028125 0.018811,0.015502 0.048447,0.031299 0.065745,0.035096 0.017305,0.0038 0.046933,0.019353 0.065986,0.034495 0.019054,0.015142 0.051553,0.030126 0.072117,0.033414 0.020564,0.0033 0.052525,0.01724 0.071034,0.03089 0.018509,0.01366 0.039333,0.02476 0.046275,0.02476 0.00695,0 0.036225,0.01284 0.065145,0.02849 0.02892,0.01565 0.077893,0.03373 0.1087763,0.04014 0.030883,0.0064 0.064145,0.02016 0.07392,0.03065 0.011302,0.01212 0.04587,0.0245 0.094951,0.0339 0.042478,0.0081 0.084992,0.0217 0.094353,0.03017 0.010995,0.01 0.049456,0.01846 0.1086545,0.02403 0.1027796,0.0097 0.149675,0.01959 0.1854585,0.0393 0.013399,0.0074 0.061959,0.01629 0.1079345,0.01971 0.045977,0.0034 0.2436683,0.0069 0.4394285,0.0078 0.2754773,0.0012 0.3576662,-0.0013 0.3635865,-0.01087 0.012586,-0.0202 0.00341,-0.05912 -0.023077,-0.09796 -0.01745,-0.02556 -0.027156,-0.05672 -0.032332,-0.103848 -0.00514,-0.04679 -0.015172,-0.07926 -0.032813,-0.106131 C 4.0626117,9.987695 4.049229,9.9494586 4.045143,9.9180364 4.0413128,9.8885141 4.029303,9.8492624 4.0184609,9.830896 4.0076287,9.8125296 3.993796,9.772558 3.9876918,9.7420731 3.9768267,9.6878068 3.9757215,9.6865162 3.938171,9.6804141 3.9157033,9.6767595 3.8923268,9.664955 3.8816812,9.6518082 3.8692949,9.6365136 3.8471564,9.626746 3.8122081,9.6212794 3.779965,9.6162309 3.7548754,9.6058783 3.7446611,9.5933944 3.7353324,9.5820025 3.7060877,9.5688129 3.675909,9.5623839 3.6469804,9.556216 3.6055964,9.5385278 3.5839605,9.5230807 3.5553809,9.5026751 3.5577481,9.4955886 3.4644889,9.4962779 Z M 1.3921116,10.049242 a 6.9249734,6.9249734 0 0 0 0.1430296,0.383539 6.9249734,6.9249734 0 0 1 -0.1430296,-0.383539 z m 11.1716524,0.03414 c -0.01541,5.43e-4 -0.03497,0.0032 -0.0625,0.0079 -0.04699,0.008 -0.225772,0.01868 -0.397242,0.02356 -0.17147,0.0049 -0.326376,0.01554 -0.344234,0.02368 -0.02868,0.01307 -0.03245,0.02436 -0.03245,0.09688 0,0.136841 0.02834,0.487732 0.04315,0.534622 0.0077,0.0242 0.04053,0.07273 0.0732,0.107817 0.07119,0.07644 0.125995,0.08466 0.192188,0.02896 0.02647,-0.02227 0.05845,-0.03474 0.08894,-0.03474 0.04663,0 0.0476,-0.0012 0.0476,-0.05818 0,-0.03919 -0.0092,-0.06792 -0.02801,-0.08798 -0.02415,-0.0257 -0.02843,-0.05104 -0.0309,-0.184258 -0.0041,-0.218761 -0.01103,-0.213098 0.262504,-0.211182 0.11693,8.14e-4 0.218764,-0.0024 0.226205,-0.0069 0.02611,-0.01613 0.05697,-0.09597 0.05697,-0.147358 0,-0.04058 -0.008,-0.05715 -0.03629,-0.07572 -0.01948,-0.01276 -0.03346,-0.01797 -0.05913,-0.01707 z m -2.006997,0.107214 c -0.120345,0 -0.18016,0.0052 -0.18702,0.01635 -0.01076,0.01735 -0.0083,0.291436 0.0026,0.302408 0.0035,0.0036 0.06974,0.0071 0.147116,0.008 0.135223,0.0016 0.141984,0.0032 0.173559,0.0399 0.02072,0.0241 0.03337,0.05712 0.03425,0.08954 0.003,0.108245 0.02429,0.318606 0.03906,0.38474 0.0085,0.03799 0.02125,0.156954 0.02837,0.264306 0.0071,0.107356 0.01935,0.215903 0.02704,0.241229 0.0077,0.02533 0.02153,0.18798 0.03077,0.361543 0.01287,0.241819 0.02163,0.321258 0.03762,0.339908 0.0242,0.02823 0.03882,0.03064 0.05241,0.0087 0.0068,-0.01099 0.0518,-0.01282 0.150362,-0.0063 0.192473,0.01284 0.187368,0.01869 0.172118,-0.200604 -0.0067,-0.09562 -0.02473,-0.227868 -0.04015,-0.293874 -0.02253,-0.09644 -0.02543,-0.134312 -0.01477,-0.192911 0.0072,-0.04011 0.0083,-0.09254 0.0022,-0.116469 -0.0061,-0.02393 -0.01371,-0.229796 -0.01684,-0.457577 -0.0044,-0.321484 -0.0016,-0.419814 0.01214,-0.439549 0.01465,-0.02092 0.0456,-0.02723 0.174883,-0.03534 0.0864,-0.0054 0.163385,-0.01599 0.171033,-0.02355 0.01388,-0.01374 0.01275,-0.219772 -0.0014,-0.26611 -0.0064,-0.02078 -0.02545,-0.0244 -0.13005,-0.0244 -0.120504,0 -0.122819,6.15e-4 -0.138703,0.03822 -0.0089,0.02104 -0.03355,0.05944 -0.05493,0.08534 l -0.03894,0.04711 -0.177888,-0.0024 c -0.209894,-0.0027 -0.236305,-0.01199 -0.22392,-0.07801 0.01438,-0.07666 -0.0205,-0.09027 -0.230893,-0.09027 z m -0.7899135,0.04171 c -0.4562633,0 -0.4949728,0.0048 -0.5098619,0.06418 -0.0096,0.03828 0.015678,0.415399 0.034496,0.514429 0.00742,0.03898 0.017702,0.173439 0.022957,0.298922 0.00525,0.125483 0.016004,0.253179 0.023799,0.283777 0.00779,0.0306 0.014936,0.07756 0.015985,0.104327 l 0.00192,0.04867 0.09267,0.008 c 0.050941,0.0044 0.1071607,0.01811 0.1250013,0.03053 0.017847,0.01242 0.055931,0.02291 0.084617,0.02332 l 0.052165,7.23e-4 v -0.127491 c 0,-0.163923 0.011031,-0.178488 0.1355778,-0.178488 0.068471,0 0.097835,-0.0065 0.124882,-0.02777 0.01945,-0.0153 0.045796,-0.02789 0.058533,-0.02789 0.04201,0 0.05649,-0.03141 0.05649,-0.122358 v -0.08894 l -0.1286067,0.0079 c -0.070759,0.0044 -0.1438343,0.0081 -0.1623835,0.0083 -0.050433,5.43e-4 -0.084489,-0.03795 -0.084735,-0.09568 -1.139e-4,-0.0275 -0.00933,-0.08885 -0.020555,-0.136421 -0.011211,-0.04757 -0.017107,-0.09499 -0.01311,-0.105414 0.00399,-0.01043 -0.00268,-0.06234 -0.014792,-0.115266 -0.034659,-0.151595 -0.02402,-0.214425 0.036059,-0.214425 0.028889,0 0.054328,0.03906 0.054328,0.08329 0,0.02772 0.00187,0.02827 0.03089,0.0079 0.023875,-0.01673 0.069593,-0.02163 0.2006028,-0.02163 0.2013474,0 0.2167224,-0.0038 0.1994024,-0.0494 -0.0078,-0.02047 -0.0074,-0.03623 9.04e-4,-0.04134 0.0074,-0.0045 0.01335,-0.0361 0.01335,-0.07007 v -0.06178 z m -1.0316222,0.121515 -0.127766,0.0078 c -0.070254,0.0043 -0.1558448,0.01825 -0.1902668,0.03089 -0.038053,0.01397 -0.1018489,0.02259 -0.1627433,0.02199 -0.065092,-6.33e-4 -0.1040779,0.005 -0.1113001,0.01622 -0.00611,0.0094 -0.01546,0.1111 -0.020672,0.225844 -0.019047,0.418528 -0.039785,0.796734 -0.053127,0.9666 -0.024152,0.307534 -0.045639,0.762404 -0.037018,0.784865 0.00583,0.01518 0.026798,0.02175 0.06899,0.02175 0.055088,0 0.067828,-0.0072 0.1405072,-0.07933 0.043967,-0.04361 0.086525,-0.0914 0.094473,-0.106248 0.00793,-0.01485 0.017794,-0.104327 0.021875,-0.198921 l 0.00732,-0.171996 0.043269,-0.02656 c 0.050602,-0.03112 0.2068285,-0.06223 0.2536081,-0.05048 0.039022,0.0098 0.053599,0.05692 0.041348,0.133536 -0.00696,0.04349 -0.00436,0.05493 0.012134,0.05493 0.03666,0 0.086356,0.0999 0.1039682,0.209017 0.00922,0.05716 0.028809,0.120982 0.04351,0.141709 0.014701,0.02073 0.026682,0.04409 0.026682,0.05204 0,0.01962 0.019824,0.0183 0.076564,-0.0054 0.026299,-0.01099 0.091628,-0.02429 0.1451941,-0.02957 0.110631,-0.01087 0.1219381,-0.02375 0.098919,-0.112261 -0.048474,-0.186397 -0.065486,-0.24025 -0.082213,-0.26022 -0.010338,-0.01235 -0.024968,-0.0742 -0.032572,-0.137502 -0.00759,-0.06329 -0.018719,-0.121318 -0.02464,-0.128968 -0.00592,-0.0077 -0.018285,-0.03742 -0.027525,-0.0661 -0.013291,-0.0413 -0.023806,-0.05216 -0.050481,-0.05216 -0.018529,0 -0.046239,0.01259 -0.061538,0.02789 -0.01546,0.01546 -0.046362,0.02777 -0.069593,0.02777 -0.022976,0 -0.064911,0.01239 -0.093149,0.02753 -0.047631,0.02553 -0.053154,0.02589 -0.076444,0.0048 -0.013815,-0.01249 -0.02512,-0.03064 -0.02512,-0.04039 0,-0.04337 -0.045004,-0.06495 -0.1180305,-0.05637 -0.076668,0.009 -0.1582588,-0.0077 -0.1763251,-0.03618 -0.013562,-0.02138 -0.012802,-0.740416 9.041e-4,-0.789433 0.01358,-0.04882 0.050473,-0.05048 0.096516,-0.0044 0.032352,0.03235 0.040959,0.05532 0.047959,0.129568 0.00469,0.04968 0.017666,0.109145 0.028845,0.132094 0.011175,0.02295 0.024794,0.07602 0.030291,0.117909 0.0055,0.04189 0.018065,0.08884 0.028005,0.104328 0.00993,0.01548 0.024568,0.06372 0.032453,0.107213 0.02076,0.114503 0.04455,0.13654 0.1478378,0.13654 0.056913,0 0.1021408,-0.0091 0.1389447,-0.02789 0.030009,-0.0153 0.065767,-0.02777 0.079448,-0.02777 0.030352,0 0.030836,-0.0059 0.0036,-0.04748 -0.011718,-0.01789 -0.024922,-0.06608 -0.029328,-0.107214 -0.00854,-0.07977 -0.061962,-0.260661 -0.1044467,-0.35385 -0.014176,-0.0311 -0.025723,-0.06892 -0.025723,-0.08401 0,-0.01509 -0.012586,-0.05197 -0.027885,-0.08197 -0.02172,-0.04268 -0.027843,-0.08218 -0.027883,-0.180357 -4.33e-5,-0.102439 -0.00536,-0.134501 -0.028728,-0.172838 z m -1.2596309,0.09087 c -0.019607,-0.0014 -0.039908,0.0095 -0.09279,0.03894 l -0.085337,0.04736 -0.2433935,0.0087 c -0.1338671,0.0047 -0.2449629,0.0097 -0.2468778,0.01075 -0.010185,0.0057 -0.00145,0.174355 0.010218,0.196037 0.00751,0.01401 0.020114,0.162291 0.028005,0.329451 0.0079,0.167158 0.020439,0.332048 0.027887,0.36647 0.00745,0.03442 0.020218,0.234303 0.028365,0.444117 0.00815,0.209814 0.018327,0.387085 0.022596,0.393994 0.013237,0.02041 0.3305117,0.0065 0.3572159,-0.01575 0.03333,-0.02771 0.033804,-0.483586 5.425e-4,-0.581377 -0.050356,-0.14832 -0.0048,-0.359139 0.077645,-0.359139 0.017649,0 0.036772,0.0093 0.042429,0.0208 0.010086,0.02048 0.059907,0.280227 0.077405,0.403372 0.00491,0.03442 0.015153,0.07433 0.022717,0.0887 0.00756,0.01437 0.019213,0.114578 0.025961,0.222599 0.00997,0.1595 0.016798,0.199707 0.036059,0.213825 0.014176,0.01043 0.067244,0.01731 0.1322125,0.01731 0.090446,0 0.1086567,-0.0037 0.1086567,-0.02236 0,-0.01228 0.01642,-0.04174 0.036418,-0.06551 0.034164,-0.0406 0.035956,-0.05012 0.030288,-0.158054 -0.00419,-0.08007 -0.012875,-0.122519 -0.028726,-0.140026 -0.036874,-0.04075 -0.090805,-0.171975 -0.1014429,-0.246878 -0.00542,-0.03825 -0.018426,-0.0819 -0.028847,-0.097 -0.010415,-0.01509 -0.01899,-0.04176 -0.01899,-0.05937 0,-0.01761 -0.012477,-0.06766 -0.027766,-0.111179 -0.015298,-0.04352 -0.024358,-0.08873 -0.02019,-0.100486 0.00416,-0.01175 0.038355,-0.04645 0.076082,-0.07704 0.037726,-0.0306 0.072345,-0.06497 0.076923,-0.07644 0.00458,-0.01148 0.014792,-0.09979 0.022717,-0.196277 0.012369,-0.150717 0.011175,-0.186486 -0.00841,-0.253848 -0.012531,-0.04312 -0.028417,-0.07836 -0.035337,-0.07836 -0.00693,0 -0.016437,-0.01222 -0.021155,-0.02704 -0.00475,-0.01497 -0.031232,-0.03438 -0.059614,-0.04375 -0.02811,-0.0092 -0.059513,-0.02537 -0.069833,-0.0357 -0.010327,-0.01032 -0.02834,-0.01875 -0.040024,-0.01875 -0.011682,0 -0.043305,-0.01043 -0.070193,-0.0232 -0.018179,-0.0087 -0.029705,-0.01393 -0.041467,-0.01478 z m 0.069712,0.09363 c 0.00821,0 0.032511,0.01682 0.053966,0.03738 0.033046,0.03166 0.038944,0.04855 0.038944,0.110458 0,0.04019 -0.00537,0.07642 -0.012025,0.08053 -0.035451,0.02191 -0.083598,0.160629 -0.090988,0.262144 -0.00941,0.129245 -0.031068,0.167367 -0.1159871,0.20493 -0.1400641,0.06195 -0.1638372,0.03401 -0.1776451,-0.208656 -0.00556,-0.0979 -0.018972,-0.196599 -0.030649,-0.225965 -0.024902,-0.06262 -0.017395,-0.10008 0.032332,-0.160098 0.057419,-0.06931 0.1331005,-0.05638 0.1629837,0.02789 0.00511,0.01443 0.022792,0.0244 0.04351,0.0244 0.026821,0 0.036979,-0.0089 0.043389,-0.03823 0.01434,-0.06569 0.036612,-0.114785 0.052165,-0.114785 z m -1.5281447,0.06959 c -0.1751641,0 -0.1886953,0.002 -0.2370211,0.03473 -0.028181,0.01912 -0.059044,0.03473 -0.068632,0.03473 -0.00958,0 -0.021073,0.0094 -0.02548,0.02092 -0.00441,0.01148 -0.01604,0.02098 -0.025841,0.02115 -0.0098,1.66e-4 -0.036546,0.02293 -0.059495,0.0506 -0.022948,0.02767 -0.052188,0.06144 -0.064905,0.075 -0.031612,0.03373 -0.092458,0.235033 -0.1074516,0.355414 -0.00678,0.05437 -0.019262,0.111877 -0.027767,0.127766 -0.018882,0.03528 -0.021444,0.475727 -0.00277,0.475727 0.020515,0 0.1125027,0.09502 0.1125027,0.116227 0,0.01065 0.00871,0.02675 0.01935,0.03558 0.010646,0.0088 0.023663,0.04493 0.028968,0.08029 0.0053,0.03536 0.020678,0.08051 0.034135,0.100365 0.071363,0.105282 0.098318,0.150383 0.098318,0.164305 0,0.02097 0.083654,0.101452 0.1433913,0.137982 0.02678,0.01638 0.085335,0.03413 0.1300498,0.03942 0.044713,0.0053 0.1000096,0.01802 0.122958,0.02825 0.022949,0.01021 0.059667,0.0191 0.08161,0.01971 0.047427,0.0013 0.2174304,-0.05466 0.2174304,-0.07163 0,-0.0065 0.024066,-0.02251 0.053486,-0.03558 0.04704,-0.02091 0.2108212,-0.192137 0.2108212,-0.220436 0,-0.0054 0.00855,-0.01966 0.019109,-0.03173 0.026458,-0.03026 0.053479,-0.37662 0.03125,-0.400486 -0.01875,-0.02013 -0.1372124,-0.02542 -0.2488,-0.01106 -0.069092,0.0089 -0.081178,0.01497 -0.088464,0.04399 -0.016563,0.06598 0.00162,0.191115 0.034256,0.235219 0.031973,0.04325 0.038505,0.08872 0.033053,0.229451 -0.00372,0.09603 -0.026648,0.131819 -0.076322,0.119351 -0.026092,-0.0066 -0.045681,-0.02954 -0.071396,-0.08389 -0.039103,-0.08266 -0.053159,-0.09195 -0.1384637,-0.09195 -0.071298,0 -0.1150486,-0.0285 -0.1269234,-0.08258 -0.00492,-0.02241 -0.017866,-0.0481 -0.028848,-0.05721 -0.015605,-0.01295 -0.020072,-0.05901 -0.020072,-0.21034 v -0.193631 l -0.041346,-0.02368 c -0.08338,-0.04774 -0.08929,-0.07804 -0.077285,-0.393876 0.00593,-0.155941 0.010393,-0.308588 0.00998,-0.339187 -0.00108,-0.08503 0.035458,-0.197417 0.066947,-0.205651 0.037319,-0.0098 0.067128,0.01757 0.072237,0.06622 0.00365,0.03485 0.012857,0.04378 0.058414,0.05649 0.029733,0.0083 0.068824,0.03223 0.0869,0.05325 0.031034,0.03607 0.032815,0.04873 0.032815,0.225603 0,0.185541 3.617e-4,0.187407 0.033773,0.200123 0.038662,0.01469 0.2305331,0.0022 0.2305331,-0.01502 0,-0.01972 0.085478,-0.109738 0.1042085,-0.109738 0.037704,0 0.040462,-0.214092 0.00336,-0.26094 -0.00765,-0.0097 -0.024045,-0.03532 -0.036418,-0.05697 -0.050696,-0.08872 -0.079021,-0.126958 -0.093872,-0.127045 -0.00863,-4.8e-5 -0.023655,-0.0099 -0.033534,-0.02175 -0.00988,-0.0119 -0.055091,-0.0401 -0.1004815,-0.06262 -0.078925,-0.03916 -0.090664,-0.04087 -0.2682731,-0.04087 z m 6.3413043,0.245075 c -0.01123,-3.26e-4 -0.01911,0.0025 -0.01911,0.0077 0,0.02072 -0.127977,0.138735 -0.198078,0.182694 -0.02092,0.01312 -0.04194,0.03954 -0.04675,0.05877 -0.0122,0.04865 -0.04791,0.06487 -0.08991,0.04087 -0.01863,-0.01065 -0.04951,-0.02681 -0.06863,-0.03594 -0.03959,-0.01889 -0.186761,-0.02498 -0.203368,-0.0085 -0.006,0.006 -0.0019,0.03108 0.0092,0.05565 0.01583,0.03493 0.02046,0.118901 0.0214,0.385342 7.23e-4,0.187416 0.0056,0.3642 0.01105,0.392794 l 0.0099,0.05204 0.14892,-0.008 c 0.08191,-0.0044 0.167008,-0.01366 0.189184,-0.02068 0.05461,-0.01726 0.156957,-0.01611 0.191109,0.0022 0.01971,0.01054 0.04021,0.01065 0.07007,2.35e-4 0.02323,-0.0081 0.09325,-0.01831 0.155531,-0.02272 0.18683,-0.01323 0.175845,-0.006 0.175845,-0.116948 0,-0.08512 -0.0033,-0.09717 -0.02884,-0.105293 -0.01588,-0.005 -0.120808,-0.0052 -0.233055,-2.36e-4 -0.256878,0.01123 -0.266182,0.0075 -0.292192,-0.11803 -0.02889,-0.139374 -0.04551,-0.434246 -0.0256,-0.454093 0.009,-0.009 0.0915,-0.02819 0.183294,-0.04279 l 0.166949,-0.02656 -0.0035,-0.04303 c -0.0047,-0.0598 -0.07287,-0.166403 -0.1113,-0.174041 -0.0043,-8.49e-4 -0.0083,-0.0013 -0.01214,-0.0014 z M 1.7766109,11.015597 a 6.9249734,6.9249734 0 0 0 0.2079349,0.380892 6.9249734,6.9249734 0 0 1 -0.2079352,-0.380895 z m 7.6631956,0.693276 c -0.028567,1.28e-4 -0.051812,0.0029 -0.060938,0.0091 -0.015352,0.01054 -0.016998,0.05996 -0.00866,0.266109 0.00675,0.166561 0.015605,0.254873 0.025841,0.257936 0.00855,0.0025 0.032666,0.0083 0.053606,0.01298 0.020943,0.0046 0.05846,0.02993 0.083414,0.05625 0.044015,0.04642 0.048353,0.04775 0.1427909,0.04495 l 0.097357,-0.0029 -0.00349,-0.246277 C 9.7668174,11.898448 9.7624574,11.853732 9.7408804,11.81495 9.7227094,11.78229 9.7037504,11.76778 9.6747744,11.76447 9.6524264,11.76197 9.6232994,11.7501 9.6101094,11.73826 9.5909864,11.7211 9.5026413,11.70853 9.439795,11.70881 Z M 2.302338,11.915125 A 6.9249734,6.9249734 0 0 0 2.5684468,12.270659 6.9249734,6.9249734 0 0 1 2.302338,11.915125 Z m 0.6546963,0.810468 A 6.9249734,6.9249734 0 0 0 3.2743456,13.042904 6.9249734,6.9249734 0 0 1 2.9570343,12.725593 Z M 3.7292799,13.43149 A 6.9249734,6.9249734 0 0 0 4.0848124,13.697599 6.9249734,6.9249734 0 0 1 3.7292799,13.43149 Z M 4.603448,14.015392 A 6.9249734,6.9249734 0 0 0 4.9843431,14.223327 6.9249734,6.9249734 0 0 1 4.603448,14.015392 Z m 0.9637149,0.449405 a 6.9249734,6.9249734 0 0 0 0.3835388,0.14303 6.9249734,6.9249734 0 0 1 -0.3835388,-0.14303 z m 1.0605887,0.305652 a 6.9249734,6.9249734 0 0 0 0.3357012,0.07308 6.9249734,6.9249734 0 0 1 -0.3357012,-0.07308 z" /></g></svg>
