<?xml version="1.0" encoding="UTF-8" standalone="no"?>
<svg
   fill="currentColor"
   className="bi bi-table"
   viewBox="0 0 16 16"
   version="1.1"
   id="svg1"
   xmlns="http://www.w3.org/2000/svg"
   xmlns:svg="http://www.w3.org/2000/svg">
  <defs
     id="defs1" />
  <path
     d="M 2,16 A 2,2 0 0 1 0,14 V 2 A 2,2 0 0 1 2,0 h 12 a 2,2 0 0 1 2,2 v 12 a 2,2 0 0 1 -2,2 z M 4,1 V 5 H 7 V 1 Z m 4,0 v 4 h 3 V 1 Z m 4,0 v 4 h 3 V 2 A 1,1 0 0 0 14,1 Z m 3,5 h -3 v 4 h 3 z m 0,5 h -3 v 4 h 2 a 1,1 0 0 0 1,-1 z m -4,4 V 11 H 8 v 4 z M 7,15 V 11 H 4 v 4 z M 4,10 H 7 V 6 H 4 Z M 8,6 v 4 h 3 V 6 Z"
     id="path1" />
</svg>
