<?xml version="1.0" encoding="UTF-8" standalone="no"?>
<!-- Created with Inkscape (http://www.inkscape.org/) -->

<svg
   width="61.507999mm"
   height="61.507999mm"
   viewBox="0 0 61.507999 61.508"
   version="1.1"
   id="svg5"
   inkscape:version="1.2.2 (b0a8486, 2022-12-01)"
   sodipodi:docname="question.svg"
   xml:space="preserve"
   xmlns:inkscape="http://www.inkscape.org/namespaces/inkscape"
   xmlns:sodipodi="http://sodipodi.sourceforge.net/DTD/sodipodi-0.dtd"
   xmlns="http://www.w3.org/2000/svg"
   xmlns:svg="http://www.w3.org/2000/svg"><sodipodi:namedview
     id="namedview7"
     pagecolor="#ffffff"
     bordercolor="#999999"
     borderopacity="1"
     inkscape:showpageshadow="0"
     inkscape:pageopacity="0"
     inkscape:pagecheckerboard="0"
     inkscape:deskcolor="#d1d1d1"
     inkscape:document-units="mm"
     showgrid="false"
     inkscape:zoom="2.0102866"
     inkscape:cx="75.362389"
     inkscape:cy="171.86604"
     inkscape:window-width="1390"
     inkscape:window-height="997"
     inkscape:window-x="59"
     inkscape:window-y="25"
     inkscape:window-maximized="0"
     inkscape:current-layer="layer1" /><defs
     id="defs2" /><g
     inkscape:label="Layer 1"
     inkscape:groupmode="layer"
     id="layer1"><path
       id="path1126-4-0"
       style="fill:currentColor;fill-opacity:1;stroke:none;stroke-width:1.84866;stroke-linecap:round;stroke-linejoin:round;stroke-opacity:1;paint-order:markers stroke fill"
       d="m 36.807635,4.0964536 -6.694682,5.1056315 -1.192175,8.8501059 7.375261,0.993221 0.993221,-7.374744 14.75052,1.986443 -1.986958,14.75052 -5.162476,-0.695564 -6.694682,5.105631 -1.192175,8.850106 7.37526,0.993221 0.993221,-7.375261 5.162476,0.695565 6.694682,-5.105631 2.38435,-17.700212 -5.105631,-6.6946818 z M 25.081219,4.8261248 1.8945211,32.754136 30.295371,56.326341 l 4.533574,-5.649785 0.237194,-1.760616 0.126608,-0.943095 1.629874,0.219108 4.046265,-5.042586 -4.935616,-0.665075 0.82734,-6.146395 c -2.208824,1.316476 -4.927004,2.374646 -8.211902,2.736784 -11.770886,1.297655 -17.741036,-7.030062 -17.741036,-7.030062 0,0 3.419387,-9.645053 15.337565,-10.979692 0.18918,-0.02116 0.380645,-0.03992 0.574125,-0.05684 9.380109,-0.820571 15.033927,4.254905 16.987594,6.408394 l 0.91984,-0.701766 4.609021,0.621151 0.380856,-2.827221 -11.817884,-9.480559 -0.685746,5.089095 -8.318355,-1.120861 -0.945679,-0.127125 1.373043,-10.1854245 0.342614,-0.260966 z m 2.823084,18.7693972 a 6.451462,6.451462 0 0 0 -0.919841,0.02687 6.451462,6.451462 0 0 0 -5.76864,7.068819 6.451462,6.451462 0 0 0 7.068302,5.76864 6.451462,6.451462 0 0 0 5.768641,-7.068302 6.451462,6.451462 0 0 0 -6.148462,-5.796029 z m 18.284672,12.762012 -0.02636,0.19482 0.14366,-0.178801 z m -10.178707,12.68553 -0.993738,7.375261 7.375261,0.993221 0.993737,-7.375261 z" /></g></svg>
