<?xml version="1.0" encoding="UTF-8" standalone="no"?>
<svg
   width="200mm"
   height="200mm"
   fill="currentColor"
   class="bi bi-box"
   viewBox="0 0 200 200"
   version="1.1"
   id="svg1"
   sodipodi:docname="componentIcon.svg"
   inkscape:version="1.2.2 (b0a8486, 2022-12-01)"
   xmlns:inkscape="http://www.inkscape.org/namespaces/inkscape"
   xmlns:sodipodi="http://sodipodi.sourceforge.net/DTD/sodipodi-0.dtd"
   xmlns="http://www.w3.org/2000/svg"
   xmlns:svg="http://www.w3.org/2000/svg">
  <defs
     id="defs1" />
  <sodipodi:namedview
     id="namedview1"
     pagecolor="#ffffff"
     bordercolor="#000000"
     borderopacity="0.25"
     inkscape:showpageshadow="2"
     inkscape:pageopacity="0.0"
     inkscape:pagecheckerboard="0"
     inkscape:deskcolor="#d1d1d1"
     inkscape:zoom="0.14099121"
     inkscape:cx="-46.102164"
     inkscape:cy="294.34459"
     inkscape:window-width="1390"
     inkscape:window-height="1027"
     inkscape:window-x="55"
     inkscape:window-y="25"
     inkscape:window-maximized="0"
     inkscape:current-layer="svg1"
     inkscape:document-units="mm"
     showgrid="false" />
  <path
     d="m 96.93932,2.0831512 c 1.89664,-1.08338995 4.22472,-1.08338995 6.12136,0 l 46.28033,26.4476698 c 1.9225,1.09817 3.10933,3.14214 3.11004,5.35618 v 49.30398 l 43.1703,24.682859 c 1.91486,1.09377 3.10048,3.12628 3.11003,5.33149 v 52.89534 c -7.2e-4,2.21404 -1.18753,4.25801 -3.11003,5.35617 l -46.28034,26.44767 c -1.89664,1.0834 -4.2247,1.0834 -6.12134,0 L 99.99999,173.22166 56.78033,197.91684 c -1.89664,1.0834 -4.2247,1.0834 -6.12134,0 L 4.37866,171.46918 C 2.45615,170.37101 1.26933,168.32705 1.26862,166.113 v -52.89533 c 7.1e-4,-2.21404 1.18753,-4.25801 3.11004,-5.35617 L 47.54895,83.190981 v -49.30398 c 7.1e-4,-2.21405 1.18753,-4.25801 3.11004,-5.35618 z M 53.71966,93.878651 19.87948,113.21767 53.71966,132.55668 87.55984,113.21767 Z m 52.45105,68.655349 33.93891,19.38837 v -38.67801 l -33.93891,-19.38839 z m 6.26945,-49.31633 33.84017,19.33901 33.84018,-19.33901 -33.84018,-19.339019 z M 93.82928,102.59171 V 63.913681 L 59.89037,44.512961 v 38.67802 z m -27.66947,-68.704709 33.84018,19.33901 33.8402,-19.33901 -33.8402,-19.33901 z M 47.54895,181.92237 V 143.24436 L 13.61004,123.85597 V 162.534 Z"
     id="path1-6"
     style="fill:#5f9edf;fill-opacity:1;stroke-width:12.3415"
     sodipodi:nodetypes="cccccccccccccccccccccccccccccccccccccccccccccccccccc" />
</svg>
