<?xml version="1.0" encoding="UTF-8" standalone="no"?>
<svg
   width="200mm"
   height="200mm"
   fill="currentColor"
   class="bi bi-box"
   viewBox="0 0 200 200"
   version="1.1"
   id="svg1"
   sodipodi:docname="stockIcon.svg"
   inkscape:version="1.3.2 (091e20e, 2023-11-25, custom)"
   xml:space="preserve"
   xmlns:inkscape="http://www.inkscape.org/namespaces/inkscape"
   xmlns:sodipodi="http://sodipodi.sourceforge.net/DTD/sodipodi-0.dtd"
   xmlns="http://www.w3.org/2000/svg"
   xmlns:svg="http://www.w3.org/2000/svg"><defs
     id="defs1" /><sodipodi:namedview
     id="namedview1"
     pagecolor="#ffffff"
     bordercolor="#000000"
     borderopacity="0.25"
     inkscape:showpageshadow="2"
     inkscape:pageopacity="0.0"
     inkscape:pagecheckerboard="0"
     inkscape:deskcolor="#d1d1d1"
     inkscape:zoom="1.1279297"
     inkscape:cx="504.46407"
     inkscape:cy="332.02425"
     inkscape:window-width="2560"
     inkscape:window-height="1351"
     inkscape:window-x="-9"
     inkscape:window-y="-9"
     inkscape:window-maximized="1"
     inkscape:current-layer="svg1"
     inkscape:document-units="mm"
     showgrid="false" /><path
     style="fill:#f7f7f9;fill-opacity:1;stroke-width:1.6467;stroke-linejoin:round;stroke-dashoffset:318.954;paint-order:markers stroke fill"
     d="m 98.981371,10.412481 c -11.459877,-0.376545 -21.469859,8.804914 -25.49806,19.931613 -2.143946,5.4108 -3.151188,11.251786 -3.67165,17.08495 -14.939486,7.804031 -30.178956,15.141608 -44.29789,24.603553 -6.211745,4.692865 -13.591442,10.121405 -14.996253,18.766851 -1.0334858,5.945852 4.207005,9.879202 8.589449,11.974992 8.786969,4.18874 18.346391,6.2868 27.73566,7.90421 0.0071,2.49155 -2.227501,4.65899 -3.280357,6.82548 -9.640597,15.43087 -21.919729,28.98787 -29.849593,45.62479 -3.04846,6.93482 -4.5035018,15.19988 -2.449288,22.66754 2.211102,4.79831 8.120309,3.29799 12.095152,3.64867 16.433152,0.17288 32.870444,0.0298 49.301915,-0.006 5.664015,-2.5286 7.395157,-9.30234 10.320206,-14.46911 4.830762,-9.3239 9.245494,-19.16597 15.958559,-27.11459 1.805519,-2.0305 3.360609,1.77746 4.501809,2.89709 7.6781,10.80561 12.60948,23.48544 19.30471,34.94411 3.46197,5.13873 10.06758,3.45153 15.08607,3.88507 15.47312,-0.0299 30.97133,0.28762 46.42831,-0.47777 4.03127,-0.30533 5.70609,-5.10988 5.39337,-8.90585 0.65612,-13.22999 -6.89911,-24.58465 -13.79214,-34.72362 -7.52115,-11.18063 -16.24791,-21.54549 -22.56229,-33.59739 -1.09059,-2.09147 2.21948,-1.45804 3.24281,-1.89843 9.43046,-1.6365 19.03703,-3.9681 27.4516,-9.00868 3.79215,-2.090974 6.79943,-6.726215 5.26143,-11.430184 C 186.69453,79.89054 177.9355,74.53936 170.5881,69.532093 157.55678,61.273628 143.80385,54.46096 130.19257,47.409814 129.30566,34.378632 124.3601,20.250033 113.20061,13.690799 108.88083,11.00343 103.90907,10.193967 98.981371,10.412039 Z"
     id="path5" /></svg>
