<?xml version="1.0" encoding="UTF-8" standalone="no"?>
<!-- Created with Inkscape (http://www.inkscape.org/) -->

<svg
   width="56.238724mm"
   height="61.507717mm"
   viewBox="0 0 56.238723 61.507718"
   version="1.1"
   id="svg5"
   inkscape:version="1.3.2 (091e20e, 2023-11-25, custom)"
   sodipodi:docname="teacherLogo.svg"
   xml:space="preserve"
   xmlns:inkscape="http://www.inkscape.org/namespaces/inkscape"
   xmlns:sodipodi="http://sodipodi.sourceforge.net/DTD/sodipodi-0.dtd"
   xmlns:xlink="http://www.w3.org/1999/xlink"
   xmlns="http://www.w3.org/2000/svg"
   xmlns:svg="http://www.w3.org/2000/svg"><sodipodi:namedview
     id="namedview7"
     pagecolor="#ffffff"
     bordercolor="#999999"
     borderopacity="1"
     inkscape:showpageshadow="0"
     inkscape:pageopacity="0"
     inkscape:pagecheckerboard="0"
     inkscape:deskcolor="#d1d1d1"
     inkscape:document-units="mm"
     showgrid="false"
     inkscape:zoom="1.829812"
     inkscape:cx="51.917902"
     inkscape:cy="160.39899"
     inkscape:window-width="2560"
     inkscape:window-height="1351"
     inkscape:window-x="-9"
     inkscape:window-y="-9"
     inkscape:window-maximized="1"
     inkscape:current-layer="layer1" /><defs
     id="defs2"><linearGradient
       inkscape:collect="always"
       id="linearGradient940"><stop
         style="stop-color:#8990c4;stop-opacity:1;"
         offset="0"
         id="stop936" /><stop
         style="stop-color:#404883;stop-opacity:1;"
         offset="1"
         id="stop938" /></linearGradient><linearGradient
       inkscape:collect="always"
       xlink:href="#linearGradient940"
       id="linearGradient942"
       x1="118.60193"
       y1="201.53848"
       x2="175.14738"
       y2="256.95514"
       gradientUnits="userSpaceOnUse" /></defs><g
     inkscape:label="Layer 1"
     inkscape:groupmode="layer"
     id="layer1"
     transform="translate(-111.44479,-188.49684)"><g
       id="g2581"
       transform="matrix(1.1044092,0,0,1.1044092,-14.571787,-23.166864)"><path
         style="fill:url(#linearGradient942);fill-opacity:1;stroke-width:1.81859;stroke-linecap:round;stroke-linejoin:round;paint-order:markers stroke fill"
         d="m 114.10316,221.46083 25.461,25.88537 25.461,-25.88537 -25.46099,-25.03663 z"
         id="path1126-4"
         sodipodi:nodetypes="ccccc" /><g
         id="g3920"
         transform="matrix(0.93386379,0,0,0.93386379,9.3257279,23.516176)"><path
           style="fill:#ffffff;fill-opacity:1;stroke-width:2.13749;stroke-linecap:round;stroke-linejoin:round;paint-order:markers stroke fill"
           d="m 121.61462,212.16498 c 0,0 4.75459,-10.05669 17.84729,-9.87794 12.52503,0.171 17.84729,9.58874 17.84729,9.58874 0,0 -5.86463,9.43375 -17.84729,9.54028 -12.4742,0.1109 -17.84729,-9.25108 -17.84729,-9.25108 z"
           id="path307-7"
           sodipodi:nodetypes="cscsc" /><circle
           style="fill:#1d0808;fill-opacity:1;stroke-width:1.6;stroke-linecap:round;stroke-linejoin:round;paint-order:markers stroke fill"
           id="path516-1"
           cx="139.46191"
           cy="211.85112"
           r="6.7960081" /></g></g><g
       id="g8"
       transform="matrix(1,0,0,0.94467143,1.1877441e-5,11.260679)"><path
         style="fill:#393a48;fill-opacity:1;stroke-width:0.120741;stroke-linejoin:round;stroke-dashoffset:318.954;paint-order:markers stroke fill"
         d="m 139.25215,210.98315 c -0.0746,-0.0352 -0.27133,-0.1738 -0.43714,-0.30801 -0.16581,-0.13421 -0.41001,-0.31412 -0.54266,-0.39979 -0.13265,-0.0857 -0.26699,-0.1732 -0.29855,-0.19449 -0.10456,-0.0706 -0.55958,-0.30755 -0.59053,-0.30755 -0.0167,0 -0.0304,-0.0113 -0.0304,-0.025 0,-0.0137 -0.0119,-0.025 -0.0265,-0.025 -0.0146,0 -0.10367,-0.0385 -0.198,-0.0856 -0.28289,-0.1412 -1.17726,-0.50098 -1.53537,-0.61764 -0.085,-0.0277 -0.19522,-0.0652 -0.24496,-0.0834 -0.0497,-0.0182 -0.19219,-0.063 -0.31655,-0.0996 -0.12436,-0.0365 -0.24646,-0.0747 -0.27133,-0.0847 -0.0249,-0.0101 -0.24872,-0.0725 -0.49744,-0.13869 -0.24872,-0.0662 -0.47578,-0.13039 -0.50457,-0.14259 -0.0288,-0.0122 -0.0798,-0.0222 -0.11346,-0.0222 -0.0336,0 -0.0847,-0.0103 -0.11346,-0.0229 -0.0563,-0.0246 -0.38922,-0.10799 -0.61009,-0.1528 -0.32645,-0.0662 -0.38341,-0.0779 -0.49743,-0.10149 -0.0663,-0.0137 -0.16808,-0.0351 -0.22611,-0.0475 -0.17459,-0.0372 -0.75831,-0.14962 -0.91951,-0.17705 -0.0829,-0.0141 -0.21179,-0.0357 -0.2864,-0.0481 -0.0746,-0.0123 -0.2035,-0.0338 -0.28641,-0.0476 -0.31429,-0.0525 -0.97194,-0.14951 -1.22098,-0.18013 -0.10778,-0.0132 -0.28414,-0.0351 -0.39192,-0.0486 -0.19587,-0.0246 -0.25452,-0.0315 -0.90444,-0.10678 -0.19068,-0.0221 -0.48914,-0.0525 -0.66325,-0.0675 -0.1741,-0.0151 -0.44543,-0.0385 -0.60295,-0.0521 -0.15752,-0.0136 -0.39494,-0.0334 -0.52759,-0.044 -0.13265,-0.0106 -0.27586,-0.0314 -0.31825,-0.0461 -0.11376,-0.0396 -0.2592,-0.14804 -0.32066,-0.23908 -0.051,-0.0755 -0.0549,-0.26765 -0.0695,-3.37859 -0.009,-1.81421 -0.0154,-5.41658 -0.0153,-5.41823 1.1e-4,-0.002 0.12225,0.0346 0.27149,0.0806 0.14923,0.046 1.18028,0.33052 2.29123,0.63228 2.62454,0.7129 2.57076,0.69839 3.99457,1.07815 0.67154,0.17912 1.32274,0.35843 1.4471,0.39847 0.12436,0.04 0.72128,0.20315 1.3265,0.36248 0.60521,0.15932 1.88252,0.50279 2.83847,0.76326 1.52477,0.41547 1.76156,0.47353 1.92945,0.47318 0.17258,-3.5e-4 0.85186,-0.18332 6.91433,-1.86237 3.69763,-1.02408 6.74806,-1.86889 6.77875,-1.87735 0.0542,-0.0149 0.0552,2.19207 0.034,5.22225 -0.0236,3.39003 -0.0153,3.24018 -0.19034,3.43332 -0.12127,0.13381 -0.21818,0.20199 -0.36676,0.25803 -0.15377,0.058 -0.18848,0.0634 -1.05518,0.16516 -0.19709,0.0231 -0.64384,0.0826 -0.9798,0.13043 -0.0995,0.0142 -0.24872,0.0352 -0.33163,0.0467 -0.0829,0.0115 -0.19143,0.0277 -0.24117,0.036 -0.0497,0.008 -0.15828,0.026 -0.24119,0.0394 -0.0829,0.0134 -0.36101,0.0593 -0.61803,0.10204 -0.257,0.0427 -0.5012,0.0825 -0.54266,0.0884 -0.0414,0.006 -0.12285,0.0208 -0.18088,0.033 -0.11383,0.024 -0.2493,0.0499 -0.60296,0.11563 -0.12436,0.0231 -0.35499,0.0695 -0.51251,0.10317 -0.15752,0.0337 -0.33389,0.0703 -0.39192,0.0814 -0.15852,0.0304 -0.68427,0.14837 -0.8255,0.18531 -0.0683,0.0179 -0.18521,0.0464 -0.25982,0.0635 -0.0746,0.0171 -0.15922,0.0412 -0.18802,0.0536 -0.0288,0.0124 -0.0706,0.0226 -0.0929,0.0226 -0.0411,0 -0.82938,0.208 -0.9401,0.24806 -0.0332,0.012 -0.16882,0.0516 -0.30147,0.088 -0.13265,0.0364 -0.2751,0.0784 -0.31656,0.0933 -0.0414,0.0149 -0.10589,0.0369 -0.1432,0.0488 -0.0373,0.0119 -0.0983,0.0319 -0.13566,0.0445 -0.0373,0.0126 -0.17637,0.0588 -0.30902,0.10269 -0.13265,0.0439 -0.3128,0.10675 -0.40035,0.1396 -0.0875,0.0329 -0.16672,0.0597 -0.17596,0.0597 -0.0766,0 -1.55169,0.63995 -1.74353,0.75642 -0.0174,0.0106 -0.16855,0.0949 -0.33582,0.18741 -0.16728,0.0925 -0.35588,0.20192 -0.41911,0.24315 -0.17992,0.11733 -0.47511,0.31898 -0.55789,0.38111 -0.2231,0.16744 -0.59736,0.20803 -0.84428,0.0916 z"
         id="path5"
         sodipodi:nodetypes="csccsssccccccsscccccccccccssccccscccccccccssccscscccccccssscscscccscccscc" /><path
         style="fill:#4e5271;fill-opacity:1;stroke-width:0.170754;stroke-linejoin:round;stroke-dashoffset:318.954;paint-order:markers stroke fill"
         d="m 139.53343,204.17291 -0.63953,-0.17872 -0.5969,-0.16023 -0.25581,-0.0703 -0.25581,-0.0718 -0.34109,-0.0902 -0.29844,-0.0846 -0.25525,-0.069 -0.25581,-0.0712 -0.2777,-0.0728 -0.34108,-0.0887 -0.25581,-0.0697 -0.27713,-0.0716 -1.67374,-0.44133 -0.053,-0.0297 -0.24515,-0.0748 -0.35174,-0.0897 -0.25581,-0.0703 -0.27713,-0.0708 -1.59883,-0.42668 -0.15097,-0.0534 -0.25386,-0.0681 -0.33934,-0.0857 -1.52713,-0.40928 -0.1667,-0.0497 -0.25581,-0.0742 -0.26935,-0.0696 -0.63953,-0.17644 -0.59689,-0.16099 -0.25582,-0.0697 -0.25581,-0.0718 -0.34108,-0.09 -0.321,-0.10579 -2.36503,-0.66999 -1.30038,-0.41241 -0.93647,-0.21033 -0.16063,-0.0354 -0.65095,-0.16952 -1.76937,-0.4789 -2.08913,-0.56636 -2.20572,-0.59881 -1.61443,-0.70331 0.0762,-0.61557 3.53508,-1.05266 7.35026,-2.04047 13.76243,-3.82281 1.97502,-0.51279 0.43516,0.0844 1.58503,0.42798 1.76936,0.47793 1.70542,0.45873 1.70541,0.45985 1.76937,0.4783 1.96123,0.52829 1.96123,0.52901 1.76936,0.47772 1.76937,0.4777 1.70542,0.45974 1.70541,0.4597 1.76937,0.47736 1.76937,0.47761 1.96123,0.5278 1.12983,0.29879 0.83318,0.33632 -0.0581,0.76909 -0.0911,0.12221 -6.38554,1.75911 -6.49212,1.81975 -0.27713,0.1006 -0.85271,0.23777 -0.27713,0.0706 -0.19186,0.0525 -0.29845,0.0862 -0.38372,0.10656 -0.27713,0.0728 -0.19186,0.0505 -0.55425,0.15897 -0.63953,0.17916 -0.27713,0.0707 -0.19187,0.0525 -0.29844,0.0862 -0.38372,0.10656 -0.27713,0.0728 -0.19186,0.0506 -0.55426,0.15841 -0.59689,0.16626 -0.29845,0.0832 -0.89535,0.24753 -0.27713,0.0715 -0.19185,0.0525 -0.29845,0.0862 -0.38372,0.10656 -0.27713,0.0728 -0.19186,0.0535 -0.27713,0.0825 -0.91666,0.25189 -0.27713,0.0715 -0.19186,0.0525 -0.29845,0.0862 -0.38371,0.10655 -0.27713,0.0728 -0.19186,0.0535 -0.27713,0.0825 -0.92311,0.25562 -0.46254,-3.4e-4 z"
         id="path4"
         sodipodi:nodetypes="cccccccccccccccccccccccccccccccccccccccccccccccccccccccccccccccccccccccccccccccccccccccccccccccccccccccccc" /><path
         id="path1126-4-0-3"
         style="fill:#ffda00;fill-opacity:1;stroke-width:0.147128;stroke-linecap:round;stroke-linejoin:round;paint-order:markers stroke fill"
         d="m 137.60937,194.38121 -0.30135,0.0922 -0.22799,0.0664 -0.1836,0.0512 -0.85914,0.25247 -0.34101,0.10127 -0.27712,0.0726 -0.19189,0.0535 -0.31332,0.0862 -0.34111,0.089 -0.45414,0.12404 -0.61813,0.15736 -0.44767,0.10922 -0.25589,0.0659 -0.31979,0.0801 -0.63946,0.15298 -0.61823,0.14504 -0.34111,0.0833 -0.57557,0.14075 -0.76746,0.1771 -0.68212,0.1612 -1.26836,0.29864 -0.41579,0.0918 -0.38367,0.0878 -1.25769,0.29936 -0.6609,0.15942 -0.63957,0.16012 -1.1298,0.28856 -0.51167,0.15101 -1.40735,0.74232 -0.0861,0.13825 -0.0458,0.024 -0.11873,-0.0248 -0.16032,-0.0204 0.002,0.006 0.0752,0.0448 0.19889,0.0622 -0.0621,0.14138 -0.30103,1.53724 0.0254,1.04257 0.10418,3.33231 -0.0266,0.46985 -0.18661,0.10636 -0.39006,0.47548 0.0647,0.58424 0.11174,0.13744 0.21451,0.79725 -0.003,0.0967 -0.2184,0.14646 -0.97637,1.58485 0.0968,0.82126 0.0791,1.90689 -0.10107,2.24857 -1.05222,3.59595 -0.20892,0.43894 -0.0583,0.1328 0.32862,0.13512 1.03219,0.32044 1.05147,-0.0145 1.40616,0.005 1.99703,-0.29338 0.29338,-0.26729 -1.27676,-3.73625 0.11529,-5.12569 -0.0209,-0.5796 -0.949,-1.16725 -0.21926,-0.17281 0.002,-0.57871 0.14427,-0.23389 0.0258,-0.0272 0.11551,-0.12941 0.12789,-0.42313 -0.36612,-0.63855 -0.20816,-0.14745 0.0129,-0.41599 0.0524,-0.64569 -0.0463,-1.83767 -0.0867,-2.48667 0.15677,-0.59192 0.20029,-0.27971 0.0435,-0.004 0.10785,0.023 -0.048,-0.0408 -0.14642,-0.0967 4.27278,-1.22262 1.04458,-0.24747 0.68223,-0.15914 0.68213,-0.15906 0.68223,-0.15896 1.26836,-0.29838 0.73545,-0.17317 3.26162,-0.80742 3.65854,-1.06276 -0.002,-0.16539 -0.57449,-0.39349 -0.10279,-0.0677 z"
         sodipodi:nodetypes="ccccccccccccccccccccccccccccccccccccccccccccccccccccccccccccccccccccccccccccccccccccccccccccccccc" /><ellipse
         style="fill:#303451;fill-opacity:1;stroke-width:0.220934;stroke-linejoin:round;stroke-dashoffset:318.954;paint-order:markers stroke fill"
         id="path7"
         cx="139.14528"
         cy="194.37569"
         rx="1.593497"
         ry="0.72888374" /></g></g></svg>
