<?xml version="1.0" encoding="UTF-8" standalone="no"?>
<!-- Created with Inkscape (http://www.inkscape.org/) -->

<svg
     width="103.73135mm"
     height="100mm"
     viewBox="0 0 103.73135 100"
     version="1.1"
     id="svg1"
     xml:space="preserve"
     inkscape:version="1.4 (e7c3feb1, 2024-10-09)"
     sodipodi:docname="bigMallet50k.svg"
     xmlns:inkscape="http://www.inkscape.org/namespaces/inkscape"
     xmlns:sodipodi="http://sodipodi.sourceforge.net/DTD/sodipodi-0.dtd"
     xmlns="http://www.w3.org/2000/svg"
     xmlns:svg="http://www.w3.org/2000/svg"><sodipodi:namedview
         id="namedview1"
         pagecolor="#505050"
         bordercolor="#eeeeee"
         borderopacity="1"
         inkscape:showpageshadow="0"
         inkscape:pageopacity="0"
         inkscape:pagecheckerboard="0"
         inkscape:deskcolor="#d1d1d1"
         inkscape:document-units="mm"
         inkscape:zoom="1.1338707"
         inkscape:cx="210.34144"
         inkscape:cy="306.03136"
         inkscape:window-width="1872"
         inkscape:window-height="1027"
         inkscape:window-x="62"
         inkscape:window-y="25"
         inkscape:window-maximized="1"
         inkscape:current-layer="layer1" /><defs
         id="defs1" /><g
         inkscape:label="Layer 1"
         inkscape:groupmode="layer"
         id="layer1"
         transform="translate(176.88,-191.39999)"><rect
             style="fill:none;fill-opacity:0.292135;stroke-width:0.221682;stroke-linecap:round;stroke-linejoin:round;stroke-dashoffset:45.1269;paint-order:markers stroke fill"
             id="rect1"
             width="103.73135"
             height="100"
             x="-176.88"
             y="191.39999" /><path
             id="rect7"
             style="fill:currentColor;fill-opacity:1;stroke:none;stroke-width:2.60269;stroke-linecap:round;stroke-linejoin:round;stroke-dasharray:none;stroke-dashoffset:45.1269;stroke-opacity:1;paint-order:markers stroke fill"
             d="m -160.31543,192.31694 v 29.84462 c 0.51633,-0.14078 1.05327,-0.22171 1.58758,-0.1977 1.0336,0.23878 1.58401,-0.30222 1.74248,-1.29527 0.42885,-1.55654 1.79845,-2.75262 3.43133,-2.83462 0.70696,-0.2229 1.64023,0.3668 2.13124,-0.40925 0.49032,-0.91267 0.70011,-2.00334 1.55142,-2.69962 1.21432,-1.24287 3.16815,-1.23571 4.76396,-0.97883 1.54919,0.32607 3.07239,0.89298 4.60845,1.17291 0.60267,-0.382 0.59394,-1.07128 0.37429,-1.66291 0.13025,-1.52729 -1.54748,-2.53669 -1.59059,-4.01477 0.6925,-0.98524 2.09403,-1.06168 3.16069,-1.42907 1.49902,-0.50764 2.64194,-1.69006 3.68145,-2.81594 0.39447,-0.46584 1.10437,-0.47015 1.40737,0.0887 0.62558,0.7033 0.90261,1.69914 1.51405,2.37596 0.6176,0.24142 0.53186,-0.77122 0.63467,-1.12168 0.23551,-2.28161 0.67899,-4.98707 2.74483,-6.36058 1.05017,-0.55397 2.26924,-0.4521 3.39576,-0.56355 0.76828,-0.81287 0.93077,-2.10401 1.76115,-2.91117 0.99107,-1.07618 2.53094,-1.22573 3.89543,-1.17471 1.24989,-0.13753 1.02332,-1.67109 1.66414,-2.43502 0.14593,-0.217 0.31349,-0.40602 0.49363,-0.57741 z m 51.1908,0 c 2.95512,1.25535 5.25292,3.75394 7.45692,6.02606 3.124225,3.67027 5.756598,7.86155 7.237554,12.47161 0.756981,2.37412 1.152741,4.94196 0.471332,7.37979 -0.331669,1.85755 -1.349393,3.92039 -3.345735,4.38725 -0.775006,0.23167 -1.599305,0.13898 -2.373539,0.19528 -0.877582,0.81756 -0.914302,2.2462 -1.881712,3.01123 -1.04256,1.07029 -2.64647,1.13039 -4.03405,1.13132 -0.96735,0.42353 -0.74527,1.78493 -1.45196,2.47057 -1.13269,1.56641 -3.23672,1.87795 -5.0153,1.57011 -1.67209,-0.13643 -3.212,-0.9846 -4.86159,-1.15362 -0.86418,0.59407 -0.0292,1.66032 0.30739,2.31146 0.61899,1.34477 1.81701,2.58006 1.83651,4.12566 -0.51573,1.3871 0.82526,2.48273 1.34468,3.63263 0.79209,1.14369 1.3214,2.6744 2.65561,3.28065 0.79916,0.5738 0.90387,1.58483 0.94388,2.48082 0.097,0.76292 0.71696,1.24432 1.3947,1.46885 1.16308,0.80427 0.70167,2.40728 1.46162,3.46387 2.2492,4.2178 4.80204,8.26846 7.291791,12.34867 h 9.973313 v -70.60221 z m -16.50086,45.77468 c -0.58103,-0.0827 -0.33056,0.84872 -0.51895,1.16387 -0.49762,1.66306 -0.65055,3.59665 -1.86785,4.92729 -1.13505,0.97014 -2.70743,1.1223 -4.12205,1.05236 -0.88517,0.5883 -0.71039,1.92004 -1.502,2.62608 -0.9973,1.23856 -2.65619,1.75285 -4.19919,1.53454 -1.10847,0.22292 -1.07268,1.66011 -1.68462,2.40248 -0.85201,1.5884 -2.79083,1.92108 -4.42702,1.75995 -3.78139,-0.20962 -7.07752,-2.42401 -9.64122,-5.07977 -2.63207,-2.58851 -4.91473,-5.55577 -6.72704,-8.78294 v 23.22367 h 50.91353 c -1.68091,-2.90784 -3.39309,-5.79692 -5.18525,-8.63528 -0.65932,-0.7308 -1.96676,-1.05594 -2.03359,-2.21442 0.28311,-1.07869 -0.33875,-2.35982 -1.52732,-2.50794 -0.61964,-0.614 -0.88745,-1.52256 -0.82212,-2.36268 -0.75789,-1.86351 -1.88534,-3.57217 -2.95456,-5.27206 -0.35444,-0.72902 -1.36325,-0.40549 -1.72561,-1.10177 -0.76503,-0.83001 -1.23673,-1.90892 -1.97514,-2.73338 z m 15.88487,26.80326 -5.29436,24.92637 h 2.93529 l 1.44232,-6.82106 3.05462,-2.34219 3.73269,9.16325 h 3.902655 l -4.937545,-11.36862 8.399608,-6.80479 h -3.903268 l -9.4851,7.72093 3.08837,-14.47389 z m -12.23476,0.62745 c -3.49547,0 -6.30048,1.84404 -8.41587,5.53181 -1.14253,1.97965 -2.00214,4.34958 -2.57906,7.10978 -0.75793,3.56335 -0.76965,6.40295 -0.0344,8.51834 0.88236,2.53394 2.78324,3.80078 5.70179,3.80078 3.23531,0 5.89324,-1.54987 7.97468,-4.64942 1.44797,-2.16065 2.52262,-4.89271 3.22399,-8.19589 0.7466,-3.48417 0.78616,-6.22736 0.11873,-8.22962 -0.84842,-2.59051 -2.8451,-3.88578 -5.98989,-3.88578 z m -24.96011,0.40743 -4.63257,13.08279 2.61343,0.15249 c 0.69004,-0.72398 1.45324,-1.28943 2.29036,-1.69667 0.83711,-0.40725 1.78199,-0.61117 2.83402,-0.61117 1.44796,0 2.5906,0.4641 3.42772,1.3917 0.83709,0.92761 1.07441,2.23957 0.71241,3.93641 -0.29411,1.40272 -1.00108,2.6813 -2.12099,3.83516 -1.11992,1.15383 -2.58513,1.73042 -4.3951,1.73042 -0.95022,0 -1.74742,-0.16933 -2.39221,-0.50871 -1.27829,-0.66741 -1.83261,-1.87247 -1.66293,-3.61455 h -3.17335 c -0.30543,2.3077 0.18152,4.02135 1.4598,5.14126 1.2896,1.10861 2.92415,1.66293 4.90379,1.66293 3.11086,0 5.5599,-0.87631 7.34723,-2.6297 1.79865,-1.7534 2.9413,-3.7785 3.42771,-6.07488 0.46381,-2.20589 0.0733,-4.02707 -1.17109,-5.46372 -1.24435,-1.43666 -2.98084,-2.15474 -5.20937,-2.15474 -1.18778,0 -2.27356,0.18662 -3.25773,0.55992 -0.5543,0.21494 -1.15932,0.53692 -1.81543,0.96677 l 2.47722,-6.75295 h 10.33376 l 0.62743,-2.95276 z m 24.55328,2.3416 c 1.95702,0 3.08235,0.8936 3.37647,2.68093 0.30543,1.77602 0.17009,4.044 -0.40684,6.80417 -0.81448,3.82355 -1.84403,6.43697 -3.08836,7.83968 -1.23305,1.40272 -2.64141,2.10412 -4.22512,2.10412 -1.96833,0 -3.11653,-1.14819 -3.44458,-3.44458 -0.21495,-1.50452 -0.0567,-3.49566 0.47494,-5.97303 0.70136,-3.29188 1.64563,-5.78045 2.83342,-7.46598 1.18779,-1.69683 2.68142,-2.54531 4.48007,-2.54531 z" /></g></svg>
