<?xml version="1.0" encoding="UTF-8" standalone="no"?>
<!-- Created with Inkscape (http://www.inkscape.org/) -->

<svg
     width="103.73135mm"
     height="100mm"
     viewBox="0 0 103.73135 100"
     version="1.1"
     id="svg1"
     xml:space="preserve"
     inkscape:version="1.4 (e7c3feb1, 2024-10-09)"
     sodipodi:docname="legallyDistinctemon.svg"
     xmlns:inkscape="http://www.inkscape.org/namespaces/inkscape"
     xmlns:sodipodi="http://sodipodi.sourceforge.net/DTD/sodipodi-0.dtd"
     xmlns="http://www.w3.org/2000/svg"
     xmlns:svg="http://www.w3.org/2000/svg"><sodipodi:namedview
         id="namedview1"
         pagecolor="#505050"
         bordercolor="#eeeeee"
         borderopacity="1"
         inkscape:showpageshadow="0"
         inkscape:pageopacity="0"
         inkscape:pagecheckerboard="0"
         inkscape:deskcolor="#d1d1d1"
         inkscape:document-units="mm"
         inkscape:zoom="1.1338707"
         inkscape:cx="276.04558"
         inkscape:cy="260.17075"
         inkscape:window-width="1872"
         inkscape:window-height="1027"
         inkscape:window-x="62"
         inkscape:window-y="25"
         inkscape:window-maximized="1"
         inkscape:current-layer="layer1" /><defs
         id="defs1" /><g
         inkscape:label="Layer 1"
         inkscape:groupmode="layer"
         id="layer1"
         transform="translate(176.88,-191.39999)"><rect
             style="fill:none;fill-opacity:0.292135;stroke-width:0.221682;stroke-linecap:round;stroke-linejoin:round;stroke-dashoffset:45.1269;paint-order:markers stroke fill"
             id="rect1"
             width="103.73135"
             height="100"
             x="-176.88"
             y="191.39999" /><path
             id="rect35"
             style="fill:currentColor;fill-opacity:1;stroke:none;stroke-width:0.645196;stroke-linecap:round;stroke-linejoin:round;stroke-dasharray:none;stroke-dashoffset:45.1269;stroke-opacity:1;paint-order:markers stroke fill"
             d="m -157.50223,195.78777 v 91.22454 h 64.976115 v -91.22454 z m 51.91451,3.24925 a 1.7981563,1.7981563 0 0 1 1.79815,1.79815 1.7981563,1.7981563 0 0 1 -1.79815,1.79814 1.7981563,1.7981563 0 0 1 -1.79815,-1.79814 1.7981563,1.7981563 0 0 1 1.79815,-1.79815 z m 4.2112,0 a 1.7981563,1.7981563 0 0 1 1.798154,1.79815 1.7981563,1.7981563 0 0 1 -1.798154,1.79814 1.7981563,1.7981563 0 0 1 -1.79814,-1.79814 1.7981563,1.7981563 0 0 1 1.79814,-1.79815 z m 4.210624,0 a 1.7981563,1.7981563 0 0 1 1.798149,1.79815 1.7981563,1.7981563 0 0 1 -1.798149,1.79814 1.7981563,1.7981563 0 0 1 -1.798149,-1.79814 1.7981563,1.7981563 0 0 1 1.798149,-1.79815 z m -57.491784,4.70907 h 59.286439 v 36.90686 h -59.286439 z" /></g></svg>
