<?xml version="1.0" encoding="UTF-8" standalone="no"?>
<!-- Created with Inkscape (http://www.inkscape.org/) -->
<svg xmlns="http://www.w3.org/2000/svg" width="24" height="24" fill="#efb521" className="bi bi-dice-5-fill" viewBox="0 0 16 16">
            <path d="M 1.130786,-1.6683212e-5 A 1.1326646,1.1325825 0 0 0 2.7195623e-4,1.1360883 V 14.869041 A 1.1326646,1.1325825 0 0 0 1.130786,15.999477 h 1.571339 l 0.1735,-0.196188 0.0028,-0.282974 0.291517,-0.329888 h 0.0014 a 0.14007758,0.14006743 0 0 0 0.03129,0.01376 0.14007758,0.14006743 0 0 0 0.13935,-0.139231 0.14007758,0.14006743 0 0 0 -0.13935,-0.140882 v -0.0014 a 0.14007758,0.14006743 0 0 0 -0.02146,0.0083 c -0.01458,-0.08722 -0.03437,-0.188485 -0.06258,-0.346949 a 0.14007758,0.14006743 0 0 0 0.0839,0.03413 0.14007758,0.14006743 0 0 0 0.139351,-0.140882 0.14007758,0.14006743 0 0 0 -0.139351,-0.13923 0.14007758,0.14006743 0 0 0 -0.11519,0.07676 c -0.07848,-0.43046 -0.183765,-0.983475 -0.338444,-1.67074 a 0.14007758,0.14006743 0 0 0 0.0085,-0.02202 0.14007758,0.14006743 0 0 0 -0.03272,-0.0853 C 2.697668,12.518975 2.666878,12.395978 2.637898,12.274138 A 0.14007758,0.14006743 0 0 0 2.757353,12.136281 0.14007758,0.14006743 0 0 0 2.616571,11.996775 v 0.0015 a 0.14007758,0.14006743 0 0 0 -0.03982,0.01651 c -0.06054,-0.246267 -0.124794,-0.497268 -0.193396,-0.7508 0,0 -0.564398,-0.118594 -0.850373,-0.189034 A 0.14007758,0.14006743 0 0 0 1.587032,10.96984 0.14007758,0.14006743 0 0 0 1.44625,10.828959 0.14007758,0.14006743 0 0 0 1.321126,10.93572 c 0.01981,0.03522 0.04741,0.08337 0.04978,0.09107 -0.0085,-0.02752 -0.176334,-0.308537 -0.176334,-0.308537 l 0.109493,-0.352644 0.01706,-0.01651 a 0.14007758,0.14006743 0 0 0 -0.01431,0.03412 0.14007758,0.14006743 0 0 0 0.139352,0.140882 0.14007758,0.14006743 0 0 0 0.140781,-0.140882 0.14007758,0.14006743 0 0 0 -0.140781,-0.13923 v 0.0014 a 0.14007758,0.14006743 0 0 0 -0.03129,0.01101 l 0.312848,-0.3099937 0.02986,-0.23306 -0.358353,-0.378234 a 0.14007758,0.14006743 0 0 0 0.04692,0.01927 0.14007758,0.14006743 0 0 0 0.140782,-0.140882 0.14007758,0.14006743 0 0 0 -0.140782,-0.139231 v 0.0015 a 0.14007758,0.14006743 0 0 0 -0.139351,0.139231 0.14007758,0.14006743 0 0 0 0.01706,0.04128 L 0.86168096,8.7698403 a 0.14007758,0.14006743 0 0 0 0.13935104,-0.139232 0.14007758,0.14006743 0 0 0 -0.13935104,-0.14088 0.14007758,0.14006743 0 0 0 -0.137947,0.135102 l -0.359772,-0.379637 0.0058,-0.0952 a 0.14007758,0.14006743 0 0 0 0.04692,-0.105111 0.14007758,0.14006743 0 0 0 -0.03555,-0.08089 0.14007758,0.14006743 0 0 0 0,-0.0015 l 0.0028,-0.0355 0.251706,-0.275847 0.174904,-0.07099 a 0.14007758,0.14006743 0 0 0 0.05118,0.01927 0.14007758,0.14006743 0 0 0 0.116621,-0.08667 0.14007758,0.14006743 0 0 0 0,-0.0015 L 1.346648,7.3618443 a 0.14007758,0.14006743 0 0 0 -0.03982,0.09961 0.14007758,0.14006743 0 0 0 0.139351,0.13923 0.14007758,0.14006743 0 0 0 0.140781,-0.13923 0.14007758,0.14006743 0 0 0 -0.140781,-0.140882 l 0.07537,-0.03137 -0.01568,-0.253148 0.207622,-0.209121 0.135086,-0.04403 0.07251,0.02202 a 0.14007758,0.14006743 0 0 0 -0.02986,0.06961 0.14007758,0.14006743 0 0 0 0.140782,0.140881 0.14007758,0.14006743 0 0 0 0.13082,-0.09383 l 0.07537,0.110889 0.277295,-0.06108 h 0.0015 a 0.14007758,0.14006743 0 0 0 0.09953,0.04403 0.14007758,0.14006743 0 0 0 0.132251,-0.09383 l 0.267336,-0.05834 0.04692,0.0083 a 0.14007758,0.14006743 0 0 0 -0.0015,0.0028 0.14007758,0.14006743 0 0 0 0.140782,0.140881 0.14007758,0.14006743 0 0 0 0.129417,-0.09245 l 0.07394,0.01376 0.240314,0.171975 -0.133682,0.617127 -0.04125,1.521439 0.162108,0.189034 0.11519,0.03 V 4.8903403 H 1.559847 v -1.962271 h 6.184401 v 1.962271 H 5.555747 v 8.1817507 h -0.82051 c 0.222427,0.559372 0.46986,1.074772 0.715281,1.372165 -0.0077,-0.0083 -0.01514,-0.01651 -0.02284,-0.02752 a 0.14007758,0.14006743 0 0 0 -0.02559,0.06108 0.14007758,0.14006743 0 0 0 0.139351,0.140882 0.14007758,0.14006743 0 0 0 0.07254,-0.02202 l 0.470692,0.06247 0.254541,0.200591 0.361194,0.06824 a 0.14007758,0.14006743 0 0 0 -0.127985,0.136479 0.14007758,0.14006743 0 0 0 0.139351,0.139231 0.14007758,0.14006743 0 0 0 0.132251,-0.118044 l 0.325644,0.534635 a 0.14007758,0.14006743 0 0 0 -0.01293,0.02834 0.14007758,0.14006743 0 0 0 0.106659,0.125197 l 0.137948,0.226181 h 7.464225 a 1.1326646,1.1325825 0 0 0 1.134779,-1.130437 V 1.1366013 A 1.1326646,1.1325825 0 0 0 14.865569,4.9531679e-4 Z M 11.626774,2.7442843 c 0.461167,0 0.915106,0.06603 1.363725,0.197564 0.451756,0.127125 0.842345,0.288174 1.171751,0.483455 v 2.33624 h -0.191965 c -0.282347,-0.326972 -0.629954,-0.599627 -1.040926,-0.817607 -0.407834,-0.222605 -0.824725,-0.332751 -1.251383,-0.332751 -0.150578,0 -0.301621,0.01376 -0.452204,0.04706 -0.147441,0.02751 -0.289995,0.08172 -0.428033,0.163444 -0.122345,0.06823 -0.226418,0.173351 -0.314266,0.31426 -0.08784,0.136204 -0.132252,0.292109 -0.132252,0.46923 0,0.268004 0.07072,0.474622 0.211889,0.619961 0.141167,0.140881 0.407031,0.270206 0.799181,0.388195 0.257237,0.07732 0.504164,0.152163 0.739453,0.224529 0.238415,0.07265 0.493537,0.172801 0.766474,0.300007 0.536462,0.254247 0.931858,0.601773 1.185972,1.042276 0.257238,0.435961 0.386792,1.004138 0.386792,1.703482 0,0.9990767 -0.29358,1.8119247 -0.880235,2.4386007 -0.583515,0.622163 -1.377996,0.932762 -2.381899,0.932762 -0.580378,0 -1.085791,-0.07236 -1.518725,-0.217651 C 9.230326,12.887379 8.82644,12.698482 8.449978,12.471421 V 10.03992 H 8.64764 c 0.373324,0.431423 0.790218,0.76233 1.251382,0.993931 0.464304,0.231684 0.910049,0.348379 1.336708,0.348379 0.109797,0 0.254898,-0.01376 0.433718,-0.04127 0.178812,-0.02752 0.323625,-0.07291 0.436564,-0.136478 0.13803,-0.08172 0.252037,-0.184632 0.339863,-0.307133 0.09098,-0.122721 0.136517,-0.303914 0.136517,-0.544596 0,-0.222603 -0.06591,-0.4126567 -0.197662,-0.5716147 -0.128619,-0.163445 -0.319257,-0.28911 -0.570232,-0.375401 -0.263539,-0.0908 -0.542678,-0.17445 -0.837574,-0.251771 -0.291761,-0.08172 -0.566104,-0.184631 -0.823355,-0.30716 C 9.563777,8.5697773 9.138394,8.1957803 8.878011,7.7234963 8.620746,7.2466453 8.492642,6.6556573 8.492642,5.9517733 c 0,-0.944594 0.291032,-1.714269 0.874547,-2.309192 0.586655,-0.599435 1.340404,-0.89867 2.259601,-0.89867 z m -9.594424,4.57433 a 0.14007758,0.14006743 0 0 0 -0.140782,0.140882 0.14007758,0.14006743 0 0 0 0.140782,0.13923 0.14007758,0.14006743 0 0 0 0.13935,-0.13923 0.14007758,0.14006743 0 0 0 -0.13935,-0.140882 z m 0.584452,0 a 0.14007758,0.14006743 0 0 0 -0.13935,0.140882 0.14007758,0.14006743 0 0 0 0.13935,0.13923 0.14007758,0.14006743 0 0 0 0.140782,-0.13923 0.14007758,0.14006743 0 0 0 -0.140782,-0.140882 z m 0.585876,0 a 0.14007758,0.14006743 0 0 0 -0.140781,0.140882 0.14007758,0.14006743 0 0 0 0.140781,0.13923 0.14007758,0.14006743 0 0 0 0.139352,-0.13923 0.14007758,0.14006743 0 0 0 -0.139352,-0.140882 z m -2.34065804,0.585843 a 0.14007758,0.14006743 0 0 0 -0.140782,0.13923 0.14007758,0.14006743 0 0 0 0.140782,0.140882 0.14007758,0.14006743 0 0 0 0.13935104,-0.140882 0.14007758,0.14006743 0 0 0 -0.13935104,-0.13923 z m 0.58445404,0 a 0.14007758,0.14006743 0 0 0 -0.139352,0.13923 0.14007758,0.14006743 0 0 0 0.139352,0.140882 0.14007758,0.14006743 0 0 0 0.140781,-0.140882 0.14007758,0.14006743 0 0 0 -0.140781,-0.13923 z m 0.585876,0 a 0.14007758,0.14006743 0 0 0 -0.140782,0.13923 0.14007758,0.14006743 0 0 0 0.140782,0.140882 0.14007758,0.14006743 0 0 0 0.13935,-0.140882 0.14007758,0.14006743 0 0 0 -0.13935,-0.13923 z m 0.584452,0 a 0.14007758,0.14006743 0 0 0 -0.13935,0.13923 0.14007758,0.14006743 0 0 0 0.13935,0.140882 0.14007758,0.14006743 0 0 0 0.140782,-0.140882 0.14007758,0.14006743 0 0 0 -0.140782,-0.13923 z m 0.585876,0 a 0.14007758,0.14006743 0 0 0 -0.140781,0.13923 0.14007758,0.14006743 0 0 0 0.140781,0.140882 0.14007758,0.14006743 0 0 0 0.139352,-0.140882 0.14007758,0.14006743 0 0 0 -0.139352,-0.13923 z m -1.756204,0.584411 a 0.14007758,0.14006743 0 0 0 -0.139352,0.14088 0.14007758,0.14006743 0 0 0 0.139352,0.139231 0.14007758,0.14006743 0 0 0 0.140781,-0.139231 0.14007758,0.14006743 0 0 0 -0.140781,-0.14088 z m 0.585876,0 a 0.14007758,0.14006743 0 0 0 -0.140782,0.14088 0.14007758,0.14006743 0 0 0 0.140782,0.139231 0.14007758,0.14006743 0 0 0 0.13935,-0.139231 0.14007758,0.14006743 0 0 0 -0.13935,-0.14088 z m 0.584452,0 a 0.14007758,0.14006743 0 0 0 -0.13935,0.14088 0.14007758,0.14006743 0 0 0 0.13935,0.139231 0.14007758,0.14006743 0 0 0 0.140782,-0.139231 0.14007758,0.14006743 0 0 0 -0.140782,-0.14088 z m 0.585876,0 a 0.14007758,0.14006743 0 0 0 -0.140781,0.14088 0.14007758,0.14006743 0 0 0 0.140781,0.139231 0.14007758,0.14006743 0 0 0 0.139352,-0.139231 0.14007758,0.14006743 0 0 0 -0.139352,-0.14088 z M 2.03235,9.0747093 a 0.14007758,0.14006743 0 0 0 -0.140782,0.13923 0.14007758,0.14006743 0 0 0 0.140782,0.140882 0.14007758,0.14006743 0 0 0 0.13935,-0.140882 0.14007758,0.14006743 0 0 0 -0.13935,-0.13923 z m 0.584452,0 a 0.14007758,0.14006743 0 0 0 -0.13935,0.13923 0.14007758,0.14006743 0 0 0 0.13935,0.140882 0.14007758,0.14006743 0 0 0 0.140782,-0.140882 0.14007758,0.14006743 0 0 0 -0.140782,-0.13923 z m 0.585876,0 a 0.14007758,0.14006743 0 0 0 -0.140781,0.13923 0.14007758,0.14006743 0 0 0 0.140781,0.140882 0.14007758,0.14006743 0 0 0 0.139352,-0.140882 0.14007758,0.14006743 0 0 0 -0.139352,-0.13923 z M 2.03235,9.6591203 A 0.14007758,0.14006743 0 0 0 1.891568,9.8000013 0.14007758,0.14006743 0 0 0 2.03235,9.9392323 0.14007758,0.14006743 0 0 0 2.1717,9.8000013 0.14007758,0.14006743 0 0 0 2.03235,9.6591203 Z m 0.584452,0 a 0.14007758,0.14006743 0 0 0 -0.13935,0.140881 0.14007758,0.14006743 0 0 0 0.13935,0.139231 0.14007758,0.14006743 0 0 0 0.140782,-0.139231 0.14007758,0.14006743 0 0 0 -0.140782,-0.140881 z m 0.585876,0 A 0.14007758,0.14006743 0 0 0 3.061897,9.8000013 0.14007758,0.14006743 0 0 0 3.202678,9.9392323 0.14007758,0.14006743 0 0 0 3.34203,9.8000013 0.14007758,0.14006743 0 0 0 3.202678,9.6591203 Z m 0.584454,0 a 0.14007758,0.14006743 0 0 0 -0.139351,0.140881 0.14007758,0.14006743 0 0 0 0.139351,0.139231 0.14007758,0.14006743 0 0 0 0.140782,-0.139231 0.14007758,0.14006743 0 0 0 -0.140782,-0.140881 z m 0.550325,0.01376 a 0.14007758,0.14006743 0 0 0 -0.105229,0.126574 0.14007758,0.14006743 0 0 0 0.140782,0.139229 0.14007758,0.14006743 0 0 0 0.08817,-0.03688 v -0.01926 z m 0.03555,0.5702117 v 0.0014 a 0.14007758,0.14006743 0 0 0 -0.140782,0.139506 0.14007758,0.14006743 0 0 0 0.02422,0.05696 l 0.207622,-0.157942 a 0.14007758,0.14006743 0 0 0 -0.091,-0.0399 z m -2.340659,0.0014 A 0.14007758,0.14006743 0 0 0 1.891567,10.383998 0.14007758,0.14006743 0 0 0 2.032348,10.52488 0.14007758,0.14006743 0 0 0 2.1717,10.383998 0.14007758,0.14006743 0 0 0 2.032348,10.244492 Z m 0.584454,0 A 0.14007758,0.14006743 0 0 0 2.477451,10.383998 0.14007758,0.14006743 0 0 0 2.616802,10.52488 0.14007758,0.14006743 0 0 0 2.757584,10.383998 0.14007758,0.14006743 0 0 0 2.616802,10.244492 Z m 0.585876,0 a 0.14007758,0.14006743 0 0 0 -0.140782,0.139506 0.14007758,0.14006743 0 0 0 0.140782,0.140882 0.14007758,0.14006743 0 0 0 0.13935,-0.140882 0.14007758,0.14006743 0 0 0 -0.13935,-0.139506 z m 0.584453,0 A 0.14007758,0.14006743 0 0 0 3.64778,10.383998 0.14007758,0.14006743 0 0 0 3.787131,10.52488 0.14007758,0.14006743 0 0 0 3.927913,10.383998 0.14007758,0.14006743 0 0 0 3.787131,10.244492 Z m -1.754783,0.584412 a 0.14007758,0.14006743 0 0 0 -0.140781,0.140882 0.14007758,0.14006743 0 0 0 0.140781,0.13923 0.14007758,0.14006743 0 0 0 0.139352,-0.13923 0.14007758,0.14006743 0 0 0 -0.139352,-0.140882 z m 0.584454,0 a 0.14007758,0.14006743 0 0 0 -0.139351,0.140882 0.14007758,0.14006743 0 0 0 0.139351,0.13923 0.14007758,0.14006743 0 0 0 0.140782,-0.13923 0.14007758,0.14006743 0 0 0 -0.140782,-0.140882 z m 0.585876,0 a 0.14007758,0.14006743 0 0 0 -0.140782,0.140882 0.14007758,0.14006743 0 0 0 0.140782,0.13923 0.14007758,0.14006743 0 0 0 0.13935,-0.13923 0.14007758,0.14006743 0 0 0 -0.13935,-0.140882 z m 0.584453,0 a 0.14007758,0.14006743 0 0 0 -0.139351,0.140882 0.14007758,0.14006743 0 0 0 0.139351,0.13923 0.14007758,0.14006743 0 0 0 0.140782,-0.13923 0.14007758,0.14006743 0 0 0 -0.140782,-0.140882 z m -1.170329,0.584411 a 0.14007758,0.14006743 0 0 0 -0.139351,0.140881 0.14007758,0.14006743 0 0 0 0.139351,0.139231 0.14007758,0.14006743 0 0 0 0.140782,-0.139231 0.14007758,0.14006743 0 0 0 -0.140782,-0.140881 z m 0.585876,0 a 0.14007758,0.14006743 0 0 0 -0.140782,0.140881 0.14007758,0.14006743 0 0 0 0.140782,0.139231 0.14007758,0.14006743 0 0 0 0.13935,-0.139231 0.14007758,0.14006743 0 0 0 -0.13935,-0.140881 z m 0.584453,0 A 0.14007758,0.14006743 0 0 0 3.64778,11.554196 0.14007758,0.14006743 0 0 0 3.787131,11.693427 0.14007758,0.14006743 0 0 0 3.927913,11.554196 0.14007758,0.14006743 0 0 0 3.787131,11.413315 Z m -0.584453,0.585841 a 0.14007758,0.14006743 0 0 0 -0.140782,0.139231 0.14007758,0.14006743 0 0 0 0.140782,0.140882 0.14007758,0.14006743 0 0 0 0.13935,-0.140882 0.14007758,0.14006743 0 0 0 -0.13935,-0.139231 z m 0.584453,0 A 0.14007758,0.14006743 0 0 0 3.64778,12.138387 0.14007758,0.14006743 0 0 0 3.787131,12.279269 0.14007758,0.14006743 0 0 0 3.927913,12.138387 0.14007758,0.14006743 0 0 0 3.787131,11.999156 Z m 0.567389,0.0083 a 0.14007758,0.14006743 0 0 0 -0.122289,0.130976 0.14007758,0.14006743 0 0 0 0.140781,0.140882 0.14007758,0.14006743 0 0 0 0.06684,-0.01651 c -0.02991,-0.0875 -0.05751,-0.170048 -0.08533,-0.254522 z m -1.151842,0.575882 a 0.14007758,0.14006743 0 0 0 -0.140782,0.142257 0.14007758,0.14006743 0 0 0 0.140782,0.137854 0.14007758,0.14006743 0 0 0 0.13935,-0.137854 0.14007758,0.14006743 0 0 0 -0.13935,-0.142257 z m 0.584453,0 a 0.14007758,0.14006743 0 0 0 -0.139349,0.142274 0.14007758,0.14006743 0 0 0 0.13935,0.137854 0.14007758,0.14006743 0 0 0 0.140782,-0.137854 0.14007758,0.14006743 0 0 0 -0.140782,-0.142257 z m 0.585876,0 a 0.14007758,0.14006743 0 0 0 -0.140782,0.142257 0.14007758,0.14006743 0 0 0 0.140782,0.137854 0.14007758,0.14006743 0 0 0 0.139351,-0.137854 0.14007758,0.14006743 0 0 0 -0.139351,-0.142257 z m -1.170329,0.585841 a 0.14007758,0.14006743 0 0 0 -0.140782,0.139231 0.14007758,0.14006743 0 0 0 0.140782,0.140881 0.14007758,0.14006743 0 0 0 0.13935,-0.140881 0.14007758,0.14006743 0 0 0 -0.13935,-0.139231 z m 0.584453,0 A 0.14007758,0.14006743 0 0 0 3.64778,13.30841 0.14007758,0.14006743 0 0 0 3.787131,13.449291 0.14007758,0.14006743 0 0 0 3.927913,13.30841 0.14007758,0.14006743 0 0 0 3.787131,13.169179 Z m 0.585876,0 A 0.14007758,0.14006743 0 0 0 4.232225,13.30841 0.14007758,0.14006743 0 0 0 4.373007,13.449291 0.14007758,0.14006743 0 0 0 4.512358,13.30841 0.14007758,0.14006743 0 0 0 4.373007,13.169179 Z m 0.452204,0.11942 a 0.14007758,0.14006743 0 0 0 -0.0085,0.01926 0.14007758,0.14006743 0 0 0 0.06114,0.108137 c -0.01816,-0.04183 -0.03467,-0.08529 -0.05262,-0.127948 z m -1.622533,0.464963 a 0.14007758,0.14006743 0 0 0 -0.140782,0.142258 0.14007758,0.14006743 0 0 0 0.140782,0.13923 0.14007758,0.14006743 0 0 0 0.13935,-0.13923 0.14007758,0.14006743 0 0 0 -0.13935,-0.142258 z m 0.584453,0 A 0.14007758,0.14006743 0 0 0 3.64778,13.89582 0.14007758,0.14006743 0 0 0 3.787131,14.03505 0.14007758,0.14006743 0 0 0 3.927913,13.89582 0.14007758,0.14006743 0 0 0 3.787131,13.753562 Z m 0.585876,0 A 0.14007758,0.14006743 0 0 0 4.232225,13.89582 0.14007758,0.14006743 0 0 0 4.373007,14.03505 0.14007758,0.14006743 0 0 0 4.512358,13.89582 0.14007758,0.14006743 0 0 0 4.373007,13.753562 Z m 0.584453,0 A 0.14007758,0.14006743 0 0 0 4.816678,13.89582 0.14007758,0.14006743 0 0 0 4.95746,14.03505 0.14007758,0.14006743 0 0 0 5.096811,13.89582 0.14007758,0.14006743 0 0 0 5.094011,13.8738 c -0.01348,-0.02752 -0.02642,-0.05256 -0.03982,-0.07952 a 0.14007758,0.14006743 0 0 0 -0.0967,-0.03825 z m -1.170327,0.58578 a 0.14007758,0.14006743 0 0 0 -0.139351,0.139231 0.14007758,0.14006743 0 0 0 0.139351,0.140882 0.14007758,0.14006743 0 0 0 0.140782,-0.140882 0.14007758,0.14006743 0 0 0 -0.140782,-0.139231 z m 0.585876,0 A 0.14007758,0.14006743 0 0 0 4.232227,14.478573 0.14007758,0.14006743 0 0 0 4.373009,14.619455 0.14007758,0.14006743 0 0 0 4.51236,14.478573 0.14007758,0.14006743 0 0 0 4.373009,14.339342 Z m 0.584453,0 A 0.14007758,0.14006743 0 0 0 4.81668,14.478573 0.14007758,0.14006743 0 0 0 4.957462,14.619455 0.14007758,0.14006743 0 0 0 5.096813,14.478573 0.14007758,0.14006743 0 0 0 4.957462,14.339342 Z m 0.543215,0.163446 c 0.01871,0.01927 0.03687,0.03798 0.05545,0.05559 -0.01844,-0.01651 -0.03685,-0.03522 -0.05545,-0.05559 z M 3.787133,14.92367 A 0.14007758,0.14006743 0 0 0 3.647782,15.065928 0.14007758,0.14006743 0 0 0 3.787133,15.203783 0.14007758,0.14006743 0 0 0 3.927915,15.065928 0.14007758,0.14006743 0 0 0 3.787133,14.92367 Z m 0.585876,0 A 0.14007758,0.14006743 0 0 0 4.232227,15.065928 0.14007758,0.14006743 0 0 0 4.373009,15.203783 0.14007758,0.14006743 0 0 0 4.51236,15.065928 0.14007758,0.14006743 0 0 0 4.373009,14.92367 Z m 0.584453,0 A 0.14007758,0.14006743 0 0 0 4.81668,15.065928 0.14007758,0.14006743 0 0 0 4.957462,15.203783 0.14007758,0.14006743 0 0 0 5.096813,15.065928 0.14007758,0.14006743 0 0 0 4.957462,14.92367 Z m 0.584456,0 A 0.14007758,0.14006743 0 0 0 5.402567,15.065928 0.14007758,0.14006743 0 0 0 5.541918,15.203783 0.14007758,0.14006743 0 0 0 5.6827,15.065928 0.14007758,0.14006743 0 0 0 5.541918,14.92367 Z m 0.585873,0 A 0.14007758,0.14006743 0 0 0 5.98701,15.065928 0.14007758,0.14006743 0 0 0 6.127791,15.203783 0.14007758,0.14006743 0 0 0 6.267142,15.065928 0.14007758,0.14006743 0 0 0 6.127791,14.92367 Z M 3.20268,15.508082 a 0.14007758,0.14006743 0 0 0 -0.140782,0.140881 0.14007758,0.14006743 0 0 0 0.140782,0.13923 0.14007758,0.14006743 0 0 0 0.13935,-0.13923 0.14007758,0.14006743 0 0 0 -0.13935,-0.140881 z m 0.584453,0 a 0.14007758,0.14006743 0 0 0 -0.139351,0.140881 0.14007758,0.14006743 0 0 0 0.139351,0.13923 0.14007758,0.14006743 0 0 0 0.140782,-0.13923 0.14007758,0.14006743 0 0 0 -0.140782,-0.140881 z m 0.585876,0 a 0.14007758,0.14006743 0 0 0 -0.140782,0.140881 0.14007758,0.14006743 0 0 0 0.140782,0.13923 0.14007758,0.14006743 0 0 0 0.139351,-0.13923 0.14007758,0.14006743 0 0 0 -0.139351,-0.140881 z m 0.584453,0 a 0.14007758,0.14006743 0 0 0 -0.140782,0.140881 0.14007758,0.14006743 0 0 0 0.140782,0.13923 0.14007758,0.14006743 0 0 0 0.139351,-0.13923 0.14007758,0.14006743 0 0 0 -0.139351,-0.140881 z m 0.584456,0 a 0.14007758,0.14006743 0 0 0 -0.139351,0.140881 0.14007758,0.14006743 0 0 0 0.139351,0.13923 0.14007758,0.14006743 0 0 0 0.140782,-0.13923 0.14007758,0.14006743 0 0 0 -0.140782,-0.140881 z m 0.585873,0 a 0.14007758,0.14006743 0 0 0 -0.140781,0.140881 0.14007758,0.14006743 0 0 0 0.140781,0.13923 0.14007758,0.14006743 0 0 0 0.139351,-0.13923 0.14007758,0.14006743 0 0 0 -0.139351,-0.140881 z m 0.584456,0 a 0.14007758,0.14006743 0 0 0 -0.139351,0.140881 0.14007758,0.14006743 0 0 0 0.139351,0.13923 0.14007758,0.14006743 0 0 0 0.140782,-0.13923 0.14007758,0.14006743 0 0 0 -0.140782,-0.140881 z"/>
        </svg>