<?xml version="1.0" encoding="UTF-8" standalone="no"?>
<!-- Created with Inkscape (http://www.inkscape.org/) -->

<svg
   width="103.73135mm"
   height="100mm"
   viewBox="0 0 103.73135 100"
   version="1.1"
   id="svg1"
   xml:space="preserve"
   xmlns="http://www.w3.org/2000/svg"
   xmlns:svg="http://www.w3.org/2000/svg"><defs
     id="defs1" /><g
     id="layer1"
     transform="translate(176.88,-191.39999)"><rect
       style="fill:none;fill-opacity:0.292135;stroke-width:0.221682;stroke-linecap:round;stroke-linejoin:round;stroke-dashoffset:45.1269;paint-order:markers stroke fill"
       id="rect1"
       width="103.73135"
       height="100"
       x="-176.88"
       y="191.39999" /><g
       id="g10"
       transform="matrix(2.3904017,0,0,2.3904017,173.81943,-349.10043)"
       style="stroke:none;stroke-opacity:1;fill:currentColor;fill-opacity:1"><path
         id="path8"
         style="-inkscape-font-specification:NanumGothicCoding;fill:currentColor;stroke-dashoffset:318.954;-inkscape-stroke:none;paint-order:markers stroke fill;stroke:none;stroke-opacity:1;fill-opacity:1"
         d="m -110.34349,247.16971 c -0.44479,0 -0.89282,0.0547 -1.33997,0.15865 -0.45217,0.0936 -0.89506,0.23826 -1.32654,0.43356 -0.19822,0.086 -0.4212,0.24177 -0.56792,0.48628 -0.14808,0.24679 -0.18157,0.54387 -0.14883,0.77308 l 0.0687,0.61547 0.002,0.0176 c 0.0326,0.21175 0.14374,0.56163 0.50384,0.76739 0.36009,0.20577 0.72556,0.12253 0.92553,0.0393 l 0.0393,-0.0176 0.0372,-0.0196 c 0.26935,-0.1443 0.55218,-0.2604 0.85318,-0.34778 0.28347,-0.0823 0.55809,-0.12093 0.83199,-0.12093 0.31953,0 0.58565,0.0351 0.79685,0.092 l 0.0181,0.006 0.0191,0.004 c 0.24413,0.0543 0.42437,0.12537 0.5488,0.19741 l 0.0176,0.0119 0.0196,0.008 c 0.22809,0.11798 0.32835,0.22728 0.37878,0.31264 l 0.008,0.0114 0.008,0.014 c 0.0754,0.11854 0.10749,0.22099 0.10749,0.38292 0,0.53578 -0.17248,0.79557 -0.99012,1.12862 -0.5798,0.2147 -1.18382,0.32452 -1.83193,0.32452 h -0.0858 c -0.21919,0 -0.53992,0.0691 -0.78135,0.31058 -0.24143,0.24143 -0.30851,0.56009 -0.30851,0.77928 v 0.64027 c 0,0.23388 0.10866,0.5876 0.36329,0.80305 0.25462,0.21545 0.52956,0.25373 0.72657,0.25373 h 0.36277 c 1.06686,1e-5 1.78554,0.18976 2.1487,0.42168 0.36167,0.23097 0.47566,0.43252 0.48059,0.94723 -0.001,0.5228 -0.16129,0.84015 -0.68781,1.2113 l -0.0114,0.008 -0.0119,0.008 c -0.34451,0.26029 -0.80317,0.41393 -1.48415,0.41393 -0.35121,0 -0.69619,-0.0394 -1.03715,-0.11731 -0.35651,-0.0815 -0.68687,-0.18568 -0.99425,-0.31419 -0.18359,-0.0787 -0.45497,-0.18352 -0.83406,-0.0413 -0.37909,0.14217 -0.59629,0.55669 -0.63665,0.79891 l -0.004,0.0217 -0.0723,0.65009 v 0.002 c -0.0237,0.22472 -0.01,0.50215 0.14676,0.77929 0.14115,0.24971 0.40903,0.40607 0.64647,0.4904 l -0.006,0.031 c 0.0228,0.008 0.0459,0.009 0.0687,0.0176 0.003,7.7e-4 0.005,0.005 0.008,0.006 v -0.004 c 0.46673,0.1665 0.93445,0.29009 1.4025,0.35346 0.46976,0.0733 0.91811,0.11369 1.34565,0.11369 0.65343,0 1.27606,-0.0937 1.85519,-0.28525 0.59612,-0.18197 1.15423,-0.47573 1.65623,-0.8692 0.51003,-0.39976 0.9195,-0.87371 1.19165,-1.418 l 0.002,-0.004 0.002,-0.006 c 0.26667,-0.54817 0.39843,-1.15415 0.39842,-1.77974 10e-6,-0.45539 -0.0955,-0.90494 -0.27337,-1.32601 -0.16874,-0.43781 -0.425,-0.84148 -0.7524,-1.19735 -0.16004,-0.17604 -0.39048,-0.2829 -0.58963,-0.42168 0.14973,-0.10935 0.3559,-0.13698 0.49196,-0.26355 l 0.008,-0.006 0.008,-0.008 c 0.65867,-0.6437 1.02164,-1.52538 1.02164,-2.45359 0,-1.16693 -0.59113,-2.2352 -1.57406,-2.93729 l -0.0196,-0.0119 -0.0196,-0.0134 c -0.90835,-0.57804 -1.97564,-0.86145 -3.12849,-0.86145 z m -16.39383,0.0605 -0.001,5.2e-4 c -0.54077,0 -1.07127,0.0752 -1.57975,0.22634 -0.46405,0.13796 -0.93146,0.34642 -1.40456,0.59945 -0.2364,0.0939 -0.50107,0.30821 -0.62477,0.58033 -0.12529,0.27564 -0.11934,0.54137 -0.0822,0.75189 l 0.002,0.002 0.10749,0.59169 0.004,0.0217 c 0.0519,0.22497 0.23753,0.60488 0.6351,0.75396 0.39756,0.14909 0.71094,0.0158 0.89659,-0.0842 l 0.0212,-0.0119 0.0217,-0.0134 c 0.72976,-0.44986 1.39133,-0.64137 2.02313,-0.64441 0.49664,0.0198 0.76246,0.14707 0.9865,0.3943 0.16618,0.19699 0.30038,0.53933 0.29094,1.1622 v 0.0114 0.0103 c 0.006,0.60177 -0.73282,2.09587 -2.53525,4.02146 l -2.60139,2.68769 0.0507,-0.0491 c -0.29206,0.25555 -0.43357,0.67043 -0.43357,0.99787 v 0.38086 0.34778 l 0.0119,0.0703 c 0.0243,0.1461 0.0149,0.32962 0.293,0.60772 v 0.002 c 0.20295,0.20279 0.51393,0.30079 0.74414,0.30231 0.0937,0.009 0.1855,0.0196 0.28319,0.0196 h 6.40219 c 0.21919,0 0.53992,-0.0691 0.78135,-0.31058 0.24143,-0.24143 0.31058,-0.56216 0.31058,-0.78135 v -0.60513 l -0.004,0.0661 c 0.0185,-0.24075 -0.0585,-0.6073 -0.30282,-0.85163 -0.24431,-0.24433 -0.53282,-0.30631 -0.74414,-0.32039 l -0.0289,-0.002 h -3.3166 c 0.20871,-0.21429 0.3864,-0.39396 0.66198,-0.68368 l 0.004,-0.004 0.004,-0.006 c 0.42073,-0.45579 0.76306,-0.83762 1.02939,-1.15238 l 0.006,-0.006 0.004,-0.006 c 0.25726,-0.31572 0.58711,-0.72893 0.99219,-1.23816 l 0.01,-0.0119 0.0103,-0.0114 c 0.46135,-0.62343 0.81244,-1.22664 1.0449,-1.82831 l 0.002,-0.004 0.002,-0.004 c 0.22383,-0.59247 0.34985,-1.1656 0.34985,-1.72496 0,-1.29375 -0.47424,-2.45618 -1.39837,-3.22254 l -0.002,-0.002 c -0.8098,-0.68107 -1.83091,-1.03095 -2.92592,-1.03095 z m -13.4674,0.0682 -0.46715,5.1e-4 c -0.23645,0 -0.56841,0.0718 -0.81856,0.32195 l 0.0548,-0.0506 -2.66599,2.23863 c -0.22248,0.17801 -0.41186,0.538 -0.41186,0.84749 0,0.23065 0.0756,0.45225 0.1757,0.61909 l 0.0351,0.0563 0.38292,0.46096 c 4.4e-4,5.4e-4 0.001,0.001 0.002,0.002 0.14352,0.17471 0.40211,0.38011 0.74569,0.41445 0.34464,0.0345 0.64143,-0.1167 0.81649,-0.25993 l 0.0103,-0.008 0.008,-0.008 c 0.19596,-0.16983 0.374,-0.32206 0.55863,-0.48059 v 8.34005 c 0,0.22496 0.0704,0.5484 0.31471,0.79272 0.24431,0.24431 0.56775,0.31471 0.79271,0.31471 h 0.709 c 0.22496,0 0.55048,-0.0704 0.79479,-0.31471 0.24431,-0.24432 0.31471,-0.56776 0.31471,-0.79272 l -0.002,-11.14453 c 0,-0.1486 -0.002,-0.27795 -0.0274,-0.42789 -0.0208,-0.12494 -0.0956,-0.33328 -0.32246,-0.56637 -0.23686,-0.23489 -0.44577,-0.30503 -0.57206,-0.32608 -0.14994,-0.025 -0.27928,-0.0294 -0.42788,-0.0294 z m 27.3141,1.56476 c 8e-4,-3.3e-4 0.007,3.5e-4 0.008,0 -0.027,0.0139 -0.0569,0.0207 -0.0837,0.0351 z m -16.69459,0.28629 c 6e-5,0.002 -8e-5,0.004 0,0.006 -0.0218,0.006 -0.0441,0.008 -0.0651,0.0207 l 0.045,-0.0253 c 0.001,-4.9e-4 0.011,-9.7e-4 0.0202,-0.001 z m 16.54679,10.62002 c 0.0125,0.004 0.0248,0.009 0.0372,0.0129 l -0.14521,0.81545 z" /><path
         style="fill:currentColor;fill-opacity:1;stroke:none;stroke-width:0.142929;stroke-dasharray:none;stroke-dashoffset:318.954;stroke-opacity:1;paint-order:markers stroke fill"
         d="m -139.19082,243.31498 c -0.0917,-0.0165 -0.24645,-0.0665 -0.34388,-0.11124 -0.0974,-0.0448 -0.21807,-0.0814 -0.26811,-0.0814 -0.0501,0 -0.11755,-0.032 -0.15001,-0.0711 -0.0324,-0.0391 -0.14479,-0.0942 -0.24962,-0.12245 -0.10483,-0.0283 -0.23501,-0.0927 -0.28929,-0.14327 -0.0543,-0.0505 -0.12825,-0.0919 -0.16436,-0.0919 -0.0361,0 -0.13391,-0.0483 -0.21732,-0.10732 -0.0834,-0.059 -0.19454,-0.13437 -0.24695,-0.16743 -0.0524,-0.0331 -0.1596,-0.10136 -0.23821,-0.15177 -0.0786,-0.0504 -0.27887,-0.17337 -0.44503,-0.27326 -0.16616,-0.0999 -0.3622,-0.22985 -0.43567,-0.28881 -0.0734,-0.059 -0.14654,-0.1072 -0.16241,-0.1072 -0.0297,0 -0.0787,-0.0392 -0.35752,-0.28564 -0.089,-0.0787 -0.19816,-0.14315 -0.24248,-0.14315 -0.0443,0 -0.10499,-0.0536 -0.13483,-0.1191 -0.0298,-0.0655 -0.0869,-0.11911 -0.12676,-0.11911 -0.0399,0 -0.0726,-0.0268 -0.0727,-0.0595 -1e-4,-0.0328 -0.0537,-0.16502 -0.1191,-0.29393 -0.0663,-0.13075 -0.11891,-0.31646 -0.11891,-0.42001 0,-0.18881 -0.0673,-0.36641 -0.16197,-0.42766 -0.0337,-0.0218 -0.0609,-0.36125 -0.0763,-0.95107 l -0.0239,-0.91717 -0.16259,-0.10947 c -0.0894,-0.0602 -0.19221,-0.15172 -0.22839,-0.20338 -0.10085,-0.14398 -0.006,-0.42311 0.19916,-0.58583 0.0921,-0.073 0.20026,-0.19632 0.2404,-0.27394 l 0.073,-0.14114 h 2.37983 2.37983 l 0.0777,-0.1186 c 0.0622,-0.0949 0.079,-0.26093 0.0845,-0.83269 0.007,-0.69455 0.01,-0.71731 0.12587,-0.8311 0.10743,-0.10551 0.17046,-0.11969 0.64318,-0.14464 0.73971,-0.039 1.27467,-0.0995 1.38363,-0.15629 0.0513,-0.0268 0.22194,-0.0642 0.37916,-0.0832 0.15722,-0.019 0.37955,-0.0663 0.49405,-0.10508 0.12037,-0.0408 0.46154,-0.0795 0.80865,-0.092 0.70547,-0.0252 0.79116,-0.0626 0.87115,-0.3803 0.0415,-0.16481 0.0848,-0.22858 0.17915,-0.264 0.0684,-0.0257 0.20145,-0.13557 0.29557,-0.24417 l 0.17113,-0.19746 0.6502,0.002 c 0.51196,0.002 0.66802,0.0172 0.73408,0.0743 0.12982,0.1123 0.38182,0.18108 0.67462,0.18412 0.36705,0.004 0.76151,0.19663 0.8685,0.42452 0.0696,0.14823 0.11132,0.17389 0.40497,0.24904 0.35182,0.09 0.80529,0.113 0.84857,0.043 0.0146,-0.0236 0.17555,-0.0882 0.35764,-0.14355 0.30998,-0.0942 0.34296,-0.0958 0.51767,-0.0259 0.10324,0.0413 0.2098,0.1256 0.23854,0.18867 0.11053,0.2426 0.22419,0.2705 1.21122,0.29737 0.74135,0.0202 0.94955,0.0409 1.08428,0.10808 0.0917,0.0457 0.23643,0.0982 0.32159,0.11653 0.0852,0.0184 0.15484,0.053 0.15484,0.0769 0,0.0414 0.0766,0.0879 0.50423,0.30627 0.10263,0.0524 0.20326,0.12122 0.22362,0.15293 0.0203,0.0317 0.11178,0.0716 0.20316,0.0888 0.0914,0.0172 0.1819,0.0576 0.20118,0.0899 0.0193,0.0323 0.14938,0.11562 0.2891,0.18515 l 0.25404,0.12642 h 4.49988 c 3.89212,0 4.52298,-0.01 4.67092,-0.0715 0.13728,-0.0573 0.41764,-0.0715 1.42044,-0.0715 1.09637,0 1.26926,0.0102 1.41156,0.0834 0.14808,0.0761 0.40731,0.0846 2.98505,0.0977 l 2.82288,0.0144 0.0744,0.14392 c 0.0554,0.10713 0.0661,0.2105 0.0419,0.40431 -0.0606,0.48514 0.19528,0.445 -2.87969,0.45166 -2.15263,0.005 -2.73,0.019 -2.88241,0.0715 -0.2465,0.085 -3.11838,0.0979 -3.20191,0.0144 -0.0575,-0.0575 -1.99167,-0.0577 -5.77879,-4.3e-4 -1.30758,0.0198 -2.14996,0.0147 -2.19799,-0.0131 -0.054,-0.0312 -0.13411,-0.0184 -0.26086,0.0417 -0.29906,0.14191 -0.3205,0.18244 -0.20245,0.38253 0.10674,0.1809 0.24702,0.26136 0.45566,0.26136 0.0675,0 0.14647,0.0315 0.17557,0.07 0.0906,0.11991 0.65376,0.16237 2.5065,0.18901 1.63332,0.0235 2.29562,0.0631 2.4281,0.14489 0.0271,0.0167 0.0493,0.0585 0.0493,0.0927 0,0.0342 0.0408,0.11411 0.0907,0.17752 0.0499,0.0634 0.11436,0.20317 0.14328,0.31056 0.0289,0.10739 0.0846,0.22182 0.12369,0.25428 0.0391,0.0324 0.0712,0.0939 0.0714,0.13657 1.4e-4,0.0426 0.039,0.14141 0.0864,0.21947 0.0846,0.13926 0.0841,0.14498 -0.0234,0.30342 -0.12546,0.18487 -0.21228,0.46013 -0.17543,0.55616 0.047,0.12226 -0.13272,0.61414 -0.28646,0.78441 -0.0832,0.0921 -0.18344,0.21355 -0.22288,0.26991 -0.0395,0.0564 -0.15157,0.1496 -0.24919,0.20719 -0.0976,0.0576 -0.17749,0.12404 -0.17749,0.14766 0,0.0236 -0.0292,0.043 -0.0649,0.043 -0.0683,0 -0.36538,0.20936 -0.53564,0.37742 -0.0551,0.0545 -0.12152,0.099 -0.14746,0.099 -0.026,0 -0.0859,0.0429 -0.13338,0.0953 -0.0474,0.0524 -0.10971,0.0953 -0.1384,0.0953 -0.0287,3e-5 -0.11375,0.053 -0.18902,0.11775 -0.0753,0.0647 -0.1771,0.13046 -0.2263,0.14608 -0.0492,0.0156 -0.0895,0.0591 -0.0895,0.0966 0,0.0376 -0.0279,0.0683 -0.0619,0.0683 -0.0341,0 -0.19038,0.0911 -0.34739,0.20249 -0.57568,0.40835 -0.9322,0.56515 -1.4964,0.65812 -0.29225,0.0482 -17.31169,0.0471 -17.58026,-8.1e-4 z"
         id="path9" /></g></g></svg>
