<?xml version="1.0" encoding="UTF-8" standalone="no"?>
<!-- Created with Inkscape (http://www.inkscape.org/) -->

<svg
     width="58.042999mm"
     height="58.042992mm"
     viewBox="0 0 58.042999 58.042992"
     version="1.1"
     id="svg5"
     inkscape:version="1.4 (e7c3feb1, 2024-10-09)"
     sodipodi:docname="previewing.svg"
     xml:space="preserve"
     xmlns:inkscape="http://www.inkscape.org/namespaces/inkscape"
     xmlns:sodipodi="http://sodipodi.sourceforge.net/DTD/sodipodi-0.dtd"
     xmlns:xlink="http://www.w3.org/1999/xlink"
     xmlns="http://www.w3.org/2000/svg"
     xmlns:svg="http://www.w3.org/2000/svg"><sodipodi:namedview
         id="namedview7"
         pagecolor="#ffffff"
         bordercolor="#999999"
         borderopacity="1"
         inkscape:showpageshadow="0"
         inkscape:pageopacity="0"
         inkscape:pagecheckerboard="0"
         inkscape:deskcolor="#d1d1d1"
         inkscape:document-units="mm"
         showgrid="false"
         inkscape:zoom="0.32346812"
         inkscape:cx="-488.45617"
         inkscape:cy="707.9523"
         inkscape:window-width="1872"
         inkscape:window-height="1027"
         inkscape:window-x="62"
         inkscape:window-y="25"
         inkscape:window-maximized="1"
         inkscape:current-layer="layer1" /><defs
         id="defs2"><linearGradient
             id="linearGradient16"
             inkscape:collect="always"><stop
                 style="stop-color:#ff33d0;stop-opacity:1;"
                 offset="0"
                 id="stop16" /><stop
                 style="stop-color:#990075;stop-opacity:1;"
                 offset="1"
                 id="stop17" /></linearGradient><linearGradient
             inkscape:collect="always"
             id="linearGradient940"><stop
                 style="stop-color:#8990c4;stop-opacity:1;"
                 offset="0"
                 id="stop936" /><stop
                 style="stop-color:#404883;stop-opacity:1;"
                 offset="1"
                 id="stop938" /></linearGradient><linearGradient
             inkscape:collect="always"
             xlink:href="#linearGradient940"
             id="linearGradient942"
             x1="118.60193"
             y1="201.53848"
             x2="175.14738"
             y2="256.95514"
             gradientUnits="userSpaceOnUse" /><linearGradient
             inkscape:collect="always"
             xlink:href="#linearGradient16"
             id="linearGradient17"
             x1="-53.092949"
             y1="199.02835"
             x2="-63.336529"
             y2="180.73697"
             gradientUnits="userSpaceOnUse"
             gradientTransform="matrix(0.47741243,-0.30862021,0.30862021,0.47741243,89.013721,119.50237)" /></defs><g
         inkscape:label="Layer 1"
         inkscape:groupmode="layer"
         id="layer1"
         transform="translate(-110.54266,-192.8637)"><g
             id="g2581"
             transform="matrix(1.1044092,0,0,1.1044092,-14.571787,-23.166864)"><path
                 style="fill:url(#linearGradient942);fill-opacity:1;stroke-width:1.81859;stroke-linecap:round;stroke-linejoin:round;paint-order:markers stroke fill"
                 d="m 114.10316,221.46083 25.461,25.88537 25.461,-25.88537 -25.46099,-25.03663 z"
                 id="path1126-4"
                 sodipodi:nodetypes="ccccc" /><g
                 id="g3920"
                 transform="matrix(0.93386379,0,0,0.93386379,9.3257279,23.516176)"><path
                     style="fill:white;fill-opacity:1;stroke-width:2.13749;stroke-linecap:round;stroke-linejoin:round;paint-order:markers stroke fill"
                     d="m 121.61462,212.16498 c 0,0 4.75459,-10.05669 17.84729,-9.87794 12.52503,0.171 17.84729,9.58874 17.84729,9.58874 0,0 -5.86463,9.43375 -17.84729,9.54028 -12.4742,0.1109 -17.84729,-9.25108 -17.84729,-9.25108 z"
                     id="path307-7"
                     sodipodi:nodetypes="cscsc" /><circle
                     style="fill:#1d0808;fill-opacity:1;stroke-width:1.6;stroke-linecap:round;stroke-linejoin:round;paint-order:markers stroke fill"
                     id="path516-1"
                     cx="139.46191"
                     cy="211.85112"
                     r="6.7960081" /></g></g><path
             style="fill:#b0e4fe;fill-opacity:1;stroke:none;stroke-width:0.056848;stroke-linecap:round;stroke-linejoin:round;stroke-dasharray:none;stroke-dashoffset:45.1269;stroke-opacity:1;paint-order:markers stroke fill"
             d="m 121.76435,236.63551 6.84341,13.15579 1.23166,-0.45014 -4.51468,-14.7996 -0.63651,-1.73409 c 0,0 -3.52464,2.41691 -3.43861,2.60353 0.086,0.18662 0.51473,1.22451 0.51473,1.22451 z"
             id="path11" /><path
             style="fill:#a8b07a;fill-opacity:1;stroke:none;stroke-width:0.056848;stroke-linecap:round;stroke-linejoin:round;stroke-dasharray:none;stroke-dashoffset:45.1269;stroke-opacity:1;paint-order:markers stroke fill"
             d="m 118.54822,232.62396 c 0.0789,0.12204 2.29931,3.28921 2.29931,3.28921 0,0 1.3202,0.58719 2.19333,0.45003 1.03586,-0.16272 2.14163,-1.45284 2.14163,-1.45284 l 0.3205,-1.00312 -0.78882,-4.64631 -6.31362,2.97401 z"
             id="path12"
             sodipodi:nodetypes="ccsccccc" /><path
             style="fill:#fffeda;fill-opacity:1;stroke:none;stroke-width:0.056848;stroke-linecap:round;stroke-linejoin:round;stroke-dasharray:none;stroke-dashoffset:45.1269;stroke-opacity:1;paint-order:markers stroke fill"
             d="m 116.09036,230.85608 2.29712,1.73337 1.0433,0.32913 2.06122,-0.39811 0.93164,-0.32541 1.55067,-1.34848 1.0818,-2.395 0.44478,-2.95216 -0.32933,-1.79423 -8.48824,3.41083 z"
             id="path14" /><path
             style="fill:url(#linearGradient17);fill-opacity:1;stroke:none;stroke-width:0.056848;stroke-linecap:round;stroke-linejoin:round;stroke-dasharray:none;stroke-dashoffset:45.1269;stroke-opacity:1;paint-order:markers stroke fill"
             d="m 111.0753,228.07665 3.86821,2.9325 2.27593,0.95114 0.2527,-0.19794 0.48543,-0.69447 c 0,0 0.28869,-0.46347 0.44227,-0.49354 0.15359,-0.0301 1.40669,-0.28644 1.40669,-0.28644 0,0 0.81527,-0.0772 0.92153,-0.18045 0.10626,-0.10328 0.70926,-0.56232 0.70926,-0.56232 l 0.88037,-1.26122 0.51846,-0.75042 0.63457,-0.41021 0.68338,-0.44177 0.47113,-0.82364 0.84559,-0.51204 0.22532,0.0274 0.4744,-5.04764 -0.13312,-0.84831 -2.15859,-0.12723 -6.22436,2.36263 -4.39046,3.21884 -2.18254,2.1376 z"
             id="path13" /><path
             id="path15"
             style="fill:#b12691;fill-opacity:1;stroke:none;stroke-width:0.056848;stroke-linecap:round;stroke-linejoin:round;stroke-dasharray:none;stroke-dashoffset:45.1269;stroke-opacity:1;paint-order:markers stroke fill"
             d="m 117.65452,221.71279 -4.39036,3.21871 -2.18273,2.13756 -0.006,1.00764 1.54632,1.17234 c 0.0158,-0.12145 0.0228,-0.24396 -0.011,-0.29619 -0.0789,-0.12203 -0.63675,-1.14572 -0.63675,-1.14572 l -0.0586,-0.412 c 0,0 1.59747,-0.0982 2.09127,-0.2444 0.49379,-0.14618 2.18913,-0.89604 2.18913,-0.89604 l 2.25986,-1.32234 2.88847,-1.90189 0.0317,-0.53964 c 0,0 -0.95414,-0.94062 -1.12351,-0.93495 -0.16936,0.006 -0.67162,0.1921 -0.67162,0.1921 l 1.1444,-1.12038 0.34006,-0.20934 z" /><g
             id="g11"
             transform="matrix(0.49049071,0,0,0.49049071,129.5926,105.53407)"><path
                 style="fill:#ab6c30;fill-opacity:1;stroke-width:2.96748;stroke-linecap:round;stroke-linejoin:round;stroke-dashoffset:45.1269;paint-order:markers stroke fill"
                 d="m 49.391846,261.92428 c -0.615945,0.0707 -1.360821,-1.87889 -1.899809,-2.18528 -0.788551,-0.44825 -1.582721,-0.38686 -2.467038,-0.18505 -0.840831,0.19189 -1.637173,0.63425 -2.298662,1.18765 -0.901166,0.75391 -1.795722,1.67501 -2.145416,2.7967 -0.152221,0.48827 -0.03261,1.03278 0.07662,1.53243 0.07344,0.33592 0.619004,0.7076 0.38311,0.95778 -0.249339,0.26444 -0.772508,-0.0928 -1.034399,-0.3448 -0.757129,-0.72857 -1.201023,-1.90306 -1.111017,-2.94994 0.0863,-1.00378 0.829297,-1.88362 1.532438,-2.60515 0.892782,-0.91614 2.031,-1.66352 3.256438,-2.03049 1.003451,-0.30049 2.114949,-0.28493 3.1415,-0.0766 0.576923,0.11708 1.213314,0.2921 1.609063,0.72791 0.399088,0.43949 0.577081,1.09204 0.574665,1.68569 -0.0011,0.27058 0.651326,1.45831 0.382507,1.48915 z"
                 id="path10"
                 sodipodi:nodetypes="sssssssssssssss" /><path
                 id="path3"
                 style="fill:#ab6c30;fill-opacity:1;stroke-width:3.27127;stroke-linecap:round;stroke-linejoin:round;stroke-dashoffset:45.1269;paint-order:markers stroke fill"
                 d="m -54.6127,252.52141 a 24.283129,17.790586 -180 0 0 -12.141714,-2.3837 24.283129,17.790586 -180 0 0 -24.282936,17.7908 24.283129,17.790586 -180 0 0 24.283254,17.7906 24.283129,17.790586 -180 0 0 24.282936,-17.7908 24.283129,17.790586 -180 0 0 -12.14154,-15.4069 z m -8.784337,2.42292 a 4.6346021,3.3954556 -180 0 1 2.317271,2.94061 4.6346021,3.3954556 -180 0 1 -4.634793,3.39564 4.6346021,3.3954556 -180 0 1 -4.634416,-3.39532 4.6346021,3.3954556 -180 0 1 4.634792,-3.39565 4.6346021,3.3954556 -180 0 1 2.317146,0.45472 z"
                 transform="rotate(-23.897932)" /><path
                 id="ellipse6"
                 style="fill:#c9823f;fill-opacity:1;stroke-width:3.27127;stroke-linecap:round;stroke-linejoin:round;stroke-dashoffset:45.1269;paint-order:markers stroke fill"
                 d="m -54.872712,251.84663 a 24.283129,17.790586 -180 0 0 -12.141924,-2.38323 24.283129,17.790586 -180 0 0 -24.282726,17.79033 24.283129,17.790586 -180 0 0 24.282782,17.79039 24.283129,17.790586 -180 0 0 24.283198,-17.79012 24.283129,17.790586 -180 0 0 -12.14133,-15.40737 z m -8.524325,3.0977 a 4.6346021,3.3954556 -180 0 1 2.317271,2.94061 4.6346021,3.3954556 -180 0 1 -4.634793,3.39564 4.6346021,3.3954556 -180 0 1 -4.634416,-3.39532 4.6346021,3.3954556 -180 0 1 4.634792,-3.39565 4.6346021,3.3954556 -180 0 1 2.317146,0.45472 z"
                 transform="rotate(-23.897932)" /><path
                 style="fill:#c92c3c;fill-opacity:1;stroke-width:2.80001;stroke-linecap:round;stroke-linejoin:round;stroke-dashoffset:45.1269;paint-order:markers stroke fill"
                 d="m 37.14967,275.15575 c 0.345453,-0.771 -0.896619,-1.59318 -1.687036,-1.89153 -0.529965,-0.20004 -1.152111,0.0181 -1.687039,0.20449 -1.1702,0.40768 -2.081322,1.34998 -3.169587,1.94265 -0.830007,0.45202 -2.026435,0.4442 -2.556118,1.22693 -0.5743,0.84866 -0.182583,2.04286 -0.204492,3.06735 -0.01531,0.71575 -0.204488,2.09602 0.05112,2.14714 0.255611,0.0511 2.009017,1.7112 3.22071,1.68703 0.648764,-0.0129 1.48255,-1.07357 1.687038,-0.97132 0.204489,0.10224 0.531531,0.84388 0.971326,0.97132 0.671067,0.19445 1.374414,-0.26364 2.044895,-0.4601 0.957046,-0.28043 2.40275,-0.81796 2.81173,-1.02244 0.40898,-0.20449 2.578674,-0.55125 3.118464,-1.5848 0.28672,-0.54899 -0.06594,-1.2508 -0.255611,-1.8404 -0.224096,-0.6966 -0.817957,-1.89153 -1.022448,-1.94265 -0.204489,-0.0511 -3.58466,-0.34214 -3.322955,-1.53367 0,0 2e-6,0 3e-6,0 z"
                 id="path4-3"
                 sodipodi:nodetypes="sssssssssssssssss" /><path
                 style="fill:#f2b83a;fill-opacity:1;stroke-width:2.80001;stroke-linecap:round;stroke-linejoin:round;stroke-dashoffset:45.1269;paint-order:markers stroke fill"
                 d="m 45.27813,276.58716 c -0.941563,0.74593 -1.640092,1.89273 -1.89153,3.06735 -0.136713,0.63866 0.433875,1.31432 0.255614,1.94265 -0.161986,0.57096 -1.136906,0.78693 -1.124694,1.3803 0.01639,0.79657 0.870097,1.43715 1.584793,1.78928 0.658901,0.32464 1.533671,0.35786 2.198262,0.15337 0.664591,-0.20449 3.783057,-1.32918 3.987546,-1.48255 0.204488,-0.15337 2.13869,-1.27991 3.118463,-2.04489 0.475261,-0.37107 0.797302,-0.94291 1.329182,-1.22694 0.386466,-0.20638 0.928481,-0.0426 1.278059,-0.30673 0.748827,-0.56569 1.357436,-1.51567 1.380305,-2.45388 0.01671,-0.68567 -0.38131,-1.41611 -0.920202,-1.8404 -0.893152,-0.70321 -2.186613,-0.79777 -3.322955,-0.76684 -0.797897,0.0217 -1.507459,0.5741 -2.300506,0.66459 -0.627359,0.0716 -1.265748,-0.18652 -1.891528,-0.10224 -1.281732,0.17262 -2.667074,0.42383 -3.680809,1.22693 z"
                 id="path5-5"
                 sodipodi:nodetypes="ssssssssssssssss" /><path
                 style="fill:#286fec;fill-opacity:1;stroke-width:2.80001;stroke-linecap:round;stroke-linejoin:round;stroke-dashoffset:45.1269;paint-order:markers stroke fill"
                 d="m 62.123837,261.74951 c -1.187576,0.49514 -2.31782,1.21273 -3.217259,2.13279 -0.647334,0.66218 -0.927869,1.60784 -1.482109,2.34969 -0.393494,0.52669 -0.90682,0.9562 -1.301364,1.4821 -0.565698,0.75404 -1.541617,1.44348 -1.518256,2.38584 0.01756,0.70856 0.673018,1.29562 1.229064,1.73515 0.631944,0.49952 2.060493,0.83142 2.241238,0.90372 0.180745,0.0723 0.795272,0.7953 0.976021,0.83143 0.18074,0.0361 2.171865,-0.1089 3.18111,-0.46994 0.860021,-0.30765 1.626012,-0.85251 2.349685,-1.40981 0.506342,-0.38993 0.883648,-0.92724 1.373661,-1.33751 0.602519,-0.50446 1.50829,-0.70182 1.915895,-1.37366 0.397759,-0.65561 0.425887,-1.51717 0.32534,-2.27739 -0.09626,-0.7278 -0.625241,-1.33135 -0.867574,-2.02434 -0.210357,-0.60155 -0.185768,-1.29269 -0.506087,-1.8436 -0.308356,-0.53034 -0.749869,-1.03266 -1.301361,-1.30136 -0.447416,-0.21799 -0.984844,-0.20146 -1.482109,-0.18074 -0.651675,0.0272 -1.313884,0.14663 -1.915895,0.39763 z"
                 id="path6-0"
                 sodipodi:nodetypes="ssssssssssssssssss" /><path
                 style="fill:#d95260;fill-opacity:1;stroke-width:2.80001;stroke-linecap:round;stroke-linejoin:round;stroke-dashoffset:45.1269;paint-order:markers stroke fill"
                 d="m 36.433956,274.84901 c 0.345454,-0.771 -0.896618,-1.59318 -1.687036,-1.89153 -0.529965,-0.20004 -1.15211,0.0181 -1.687039,0.20449 -1.170199,0.40768 -2.081321,1.34998 -3.169586,1.94265 -0.830007,0.45202 -2.026435,0.4442 -2.556118,1.22693 -0.5743,0.84866 -0.182583,2.04286 -0.204492,3.06735 -0.01531,0.71575 -0.204488,2.09602 0.05112,2.14714 0.255611,0.0511 2.009017,1.7112 3.220709,1.68703 0.648765,-0.0129 1.482551,-1.07357 1.687039,-0.97132 0.204489,0.10224 0.531531,0.84388 0.971325,0.97132 0.671068,0.19445 1.374415,-0.26364 2.044896,-0.4601 0.957045,-0.28043 2.40275,-0.81796 2.81173,-1.02244 0.408979,-0.20449 2.578674,-0.55125 3.118464,-1.5848 0.28672,-0.54899 -0.06594,-1.2508 -0.255612,-1.8404 -0.224096,-0.6966 -0.817956,-1.89153 -1.022448,-1.94265 -0.204488,-0.0511 -3.584659,-0.34214 -3.322955,-1.53367 10e-7,0 3e-6,0 3e-6,0 z"
                 id="path7-2"
                 sodipodi:nodetypes="sssssssssssssssss" /><path
                 style="fill:#f5c867;fill-opacity:1;stroke-width:2.80001;stroke-linecap:round;stroke-linejoin:round;stroke-dashoffset:45.1269;paint-order:markers stroke fill"
                 d="m 44.460172,276.2293 c -0.941562,0.74593 -1.640092,1.89273 -1.89153,3.06735 -0.136713,0.63866 0.433876,1.31432 0.255614,1.94265 -0.161986,0.57096 -1.136906,0.78693 -1.124694,1.3803 0.01639,0.79657 0.870097,1.43715 1.584794,1.78928 0.6589,0.32464 1.53367,0.35786 2.198261,0.15337 0.664591,-0.20449 3.783057,-1.32918 3.987546,-1.48255 0.204489,-0.15337 2.13869,-1.27991 3.118463,-2.04489 0.475261,-0.37107 0.797302,-0.94291 1.329182,-1.22694 0.386466,-0.20638 0.928481,-0.0426 1.278059,-0.30673 0.748827,-0.56569 1.357436,-1.51567 1.380305,-2.45388 0.01671,-0.68567 -0.38131,-1.41611 -0.920202,-1.8404 -0.893152,-0.70321 -2.186613,-0.79777 -3.322955,-0.76684 -0.797897,0.0217 -1.507459,0.5741 -2.300506,0.66459 -0.627359,0.0716 -1.265748,-0.18652 -1.891528,-0.10224 -1.281732,0.17262 -2.667074,0.42383 -3.680809,1.22693 z"
                 id="path8-3"
                 sodipodi:nodetypes="ssssssssssssssss" /><path
                 style="fill:#3e7eee;fill-opacity:1;stroke-width:2.80001;stroke-linecap:round;stroke-linejoin:round;stroke-dashoffset:45.1269;paint-order:markers stroke fill"
                 d="m 60.999145,261.39165 c -1.187576,0.49514 -2.31782,1.21273 -3.217259,2.13279 -0.647334,0.66218 -0.927869,1.60784 -1.482109,2.34969 -0.393494,0.52669 -0.90682,0.9562 -1.301364,1.4821 -0.565698,0.75404 -1.541617,1.44348 -1.518256,2.38584 0.01756,0.70856 0.673018,1.29562 1.229064,1.73515 0.631944,0.49952 2.060493,0.83142 2.241238,0.90372 0.180745,0.0723 0.795272,0.7953 0.976021,0.83143 0.18074,0.0361 2.171865,-0.1089 3.18111,-0.46994 0.860021,-0.30765 1.626012,-0.85251 2.349685,-1.40981 0.506342,-0.38993 0.883648,-0.92724 1.373661,-1.33751 0.602519,-0.50446 1.50829,-0.70182 1.915895,-1.37366 0.397759,-0.65561 0.425887,-1.51717 0.32534,-2.27739 -0.09626,-0.7278 -0.625241,-1.33135 -0.867574,-2.02434 -0.210357,-0.60155 -0.185768,-1.29269 -0.506087,-1.8436 -0.308356,-0.53034 -0.749869,-1.03266 -1.301361,-1.30136 -0.447416,-0.21799 -0.984844,-0.20146 -1.482109,-0.18074 -0.651675,0.0272 -1.313884,0.14663 -1.915895,0.39763 z"
                 id="path9-2"
                 sodipodi:nodetypes="ssssssssssssssssss" /></g></g></svg>
