<?xml version="1.0" encoding="UTF-8" standalone="no"?>
<svg
   width="200mm"
   height="200mm"
   fill="currentColor"
   class="bi bi-easel"
   viewBox="0 0 200 200"
   version="1.1"
   id="svg1"
   sodipodi:docname="artDataIcon.svg"
   inkscape:version="1.3.2 (091e20e, 2023-11-25, custom)"
   xmlns:inkscape="http://www.inkscape.org/namespaces/inkscape"
   xmlns:sodipodi="http://sodipodi.sourceforge.net/DTD/sodipodi-0.dtd"
   xmlns="http://www.w3.org/2000/svg"
   xmlns:svg="http://www.w3.org/2000/svg">
  <defs
     id="defs1" />
  <sodipodi:namedview
     id="namedview1"
     pagecolor="#ffffff"
     bordercolor="#000000"
     borderopacity="0.25"
     inkscape:showpageshadow="2"
     inkscape:pageopacity="0.0"
     inkscape:pagecheckerboard="0"
     inkscape:deskcolor="#d1d1d1"
     inkscape:zoom="0.56396485"
     inkscape:cx="261.54112"
     inkscape:cy="220.75844"
     inkscape:window-width="2560"
     inkscape:window-height="1351"
     inkscape:window-x="-9"
     inkscape:window-y="-9"
     inkscape:window-maximized="1"
     inkscape:current-layer="svg1"
     inkscape:document-units="mm" />
  <path
     d="m 99.999993,11.271037 c 2.747257,-0.0015 5.192717,1.548138 6.088327,3.858148 l 7.37551,19.038873 h 63.76645 c 7.10885,6e-6 12.8717,5.125677 12.8717,11.448511 V 125.7561 c 1e-5,6.32284 -5.76285,11.44852 -12.8717,11.44853 H 153.4176 l 17.0293,43.92792 c 1.15909,2.9908 -0.62738,6.25103 -3.99007,7.28171 -3.36269,1.03068 -7.02806,-0.55852 -8.1866,-3.54949 l -18.4709,-47.66014 h -33.36347 v 34.34552 c -0.003,3.15949 -2.8836,5.71932 -6.435861,5.71932 -3.552259,0 -6.432793,-2.55983 -6.435861,-5.71932 V 137.20463 H 60.200663 l -18.470906,47.66014 c -1.158461,2.99106 -4.823893,4.58034 -8.186645,3.54964 -3.362751,-1.03071 -5.149206,-4.29103 -3.989993,-7.28186 L 46.582392,137.20463 H 22.769726 c -7.108858,0 -12.8717221,-5.12569 -12.8717103,-11.44853 V 45.616569 c 0,-6.322837 5.7628603,-11.44851 12.8717103,-11.448511 h 63.766456 l 7.375491,-19.038873 c 0.895605,-2.310008 3.341065,-3.859688 6.08832,-3.858148"
     id="path1"
     style="fill:#e8b24e;fill-opacity:1;stroke:none;stroke-width:17.8723;stroke-dasharray:none;stroke-opacity:1"
     sodipodi:nodetypes="ccccscsccsccccsccccsccscssccc" />
</svg>
