<?xml version="1.0" encoding="UTF-8" standalone="no"?>
<svg
   width="200mm"
   height="200mm"
   fill="currentColor"
   class="bi bi-image"
   viewBox="0 0 200 200"
   version="1.1"
   id="svg2"
   sodipodi:docname="artIcon.svg"
   inkscape:version="1.3.2 (091e20e, 2023-11-25, custom)"
   xmlns:inkscape="http://www.inkscape.org/namespaces/inkscape"
   xmlns:sodipodi="http://sodipodi.sourceforge.net/DTD/sodipodi-0.dtd"
   xmlns="http://www.w3.org/2000/svg"
   xmlns:svg="http://www.w3.org/2000/svg">
  <defs
     id="defs2" />
  <sodipodi:namedview
     id="namedview2"
     pagecolor="#ffffff"
     bordercolor="#000000"
     borderopacity="0.25"
     inkscape:showpageshadow="2"
     inkscape:pageopacity="0.0"
     inkscape:pagecheckerboard="0"
     inkscape:deskcolor="#d1d1d1"
     inkscape:zoom="1.1279297"
     inkscape:cx="590.01905"
     inkscape:cy="286.80866"
     inkscape:window-width="2560"
     inkscape:window-height="1351"
     inkscape:window-x="-9"
     inkscape:window-y="-9"
     inkscape:window-maximized="1"
     inkscape:current-layer="svg2"
     inkscape:document-units="mm" />
  <path
     id="path1"
     style="stroke-width:10.2824;fill:#ebe412;fill-opacity:1"
     d="m 38.30506,14.52925 c -11.357659,0 -20.564636,9.206978 -20.564636,20.564636 V 164.90612 c 0,11.35766 9.206977,20.56463 20.564636,20.56463 h 123.38936 c 11.35765,0 20.56515,-9.20697 20.56515,-20.56463 V 35.093886 c 0,-11.357658 -9.2075,-20.564636 -20.56515,-20.564636 z m 0,10.28206 h 123.38936 c 5.67884,0 10.28258,4.603747 10.28258,10.282576 V 104.57543 L 133.14009,84.555978 c -1.97748,-0.99057 -4.36687,-0.60571 -5.93297,0.95602 L 89.059584,123.66006 61.708283,105.43946 c -2.036036,-1.35552 -4.745427,-1.08874 -6.478158,0.63769 L 28.023,130.28188 V 35.093886 c 0,-5.678829 4.603231,-10.282576 10.28206,-10.282576 z m 24.554057,23.787178 c -8.047107,0.602821 -14.269259,7.306668 -14.27148,15.376322 -0.023,8.534464 6.889117,15.465218 15.423606,15.465218 8.534489,0 15.446604,-6.930754 15.423606,-15.465218 -0.0025,-8.970463 -7.630328,-16.046371 -16.575732,-15.376322 z"
     sodipodi:nodetypes="sssssssssssscccccccssccscc" />
</svg>
