<?xml version="1.0" encoding="UTF-8" standalone="no"?>
<!-- Created with Inkscape (http://www.inkscape.org/) -->

<svg
   width="200mm"
   height="200mm"
   version="1.1"
   viewBox="0 0 200 200"
   xmlSpace="preserve"
   id="svg3"
   xml:space="preserve"
   xmlns="http://www.w3.org/2000/svg"
   xmlns:svg="http://www.w3.org/2000/svg"><defs
     id="defs3" /><rect
     style="fill:#e594f3;fill-opacity:1;stroke-width:0.529167;stroke-linejoin:round;stroke-dashoffset:318.954;paint-order:markers stroke fill"
     id="rect3"
     width="170.32863"
     height="178.02817"
     x="358.12207"
     y="466.10327" /><path
     id="path3"
     style="fill:#fbfbfb;fill-opacity:1;stroke-width:0.951009;stroke-linejoin:round;stroke-dashoffset:318.954;paint-order:markers stroke fill"
     d="m 77.442378,12.44197 c -1.442929,0.0348 -2.892441,0.515255 -3.977016,1.434538 -1.582414,1.341177 -3.77926,5.612444 -3.78834,7.364215 -0.0024,0.466172 -0.185194,0.97133 -0.405914,1.122814 -0.220503,0.151555 -0.534469,0.897178 -0.697589,1.657914 -0.268712,1.253181 -1.595553,5.349871 -2.558251,7.899454 -0.208253,0.551344 -0.659205,1.905515 -1.002931,3.008273 -1.043093,3.346265 -21.938121,66.091912 -22.367671,67.167832 -0.220023,0.55142 -0.855881,2.46879 -1.412544,4.26073 -0.556688,1.79197 -1.264197,3.9344 -1.57271,4.76147 -0.602566,1.61554 -2.643474,7.7539 -3.666703,11.02771 -0.344663,1.10268 -0.797224,2.45558 -1.005429,3.007 -1.005502,2.663 -2.303783,6.58037 -2.303783,6.95179 0,0.22874 -0.27438,1.12577 -0.60946,1.99448 -1.148901,2.97846 -2.54833,7.11402 -2.54833,7.52976 0,0.22875 -0.283821,1.12586 -0.630573,1.99457 -0.346753,0.86873 -1.191032,3.38348 -1.87678,5.58898 -0.685771,2.20545 -1.416868,4.22503 -1.624833,4.48695 -0.208013,0.26185 -0.379804,0.82523 -0.381077,1.25248 -0.0015,0.42733 -0.29917,1.40863 -0.661583,2.18073 -0.362414,0.77212 -0.85617,2.12629 -1.097282,3.00826 -0.603143,2.20639 -1.788002,5.9078 -2.277722,7.11741 -0.223146,0.55135 -0.588057,1.67917 -0.811804,2.50621 -0.372406,1.3767 -0.613711,1.52672 -2.852424,1.78207 -5.214047,0.59471 -7.8584813,3.21344 -7.8584813,7.7808 0,2.02574 0.2622264,2.92693 1.2847343,4.41662 0.70662,1.02952 1.786103,2.08349 2.398109,2.34211 0.612006,0.25864 5.513505,0.469 10.893386,0.469 8.899797,-0.002 9.912,-0.0908 11.22354,-0.97932 1.909182,-1.29358 2.783823,-2.86964 3.090775,-5.56839 0.316271,-2.78092 -0.732322,-5.23044 -2.952996,-6.89527 -0.868323,-0.65107 -1.541676,-1.44472 -1.495726,-1.76413 0.110492,-0.76773 1.406324,-4.8265 1.946317,-6.09528 0.234676,-0.55135 0.708422,-1.90419 1.052581,-3.00693 1.474084,-4.72324 4.851057,-14.6071 5.264225,-15.40711 0.247238,-0.47873 0.450567,-1.15516 0.451816,-1.50346 0.0015,-0.34838 0.299169,-1.26518 0.661607,-2.03729 0.362414,-0.77211 0.852807,-2.12495 1.089836,-3.00692 0.237077,-0.88208 1.27539,-3.97298 2.306281,-6.86769 1.030891,-2.89471 2.083135,-6.05179 2.33854,-7.0167 0.255405,-0.9649 0.593943,-1.97787 0.753459,-2.24965 0.159493,-0.2718 0.594808,-1.51128 0.966926,-2.75585 l 0.676499,-2.26352 25.786102,-0.12971 25.786131,-0.12839 0.76957,2.3849 c 0.42367,1.31174 1.04956,3.09549 1.39146,3.96421 0.34192,0.86879 0.62188,1.76723 0.62188,1.9959 0,0.37141 1.29828,4.28745 2.3038,6.95037 0.20826,0.55142 0.66077,1.90559 1.00543,3.00834 1.2414,3.97184 3.11811,9.55553 3.73249,11.10365 0.34474,0.8687 0.62683,1.76581 0.62683,1.99447 0,0.41575 1.39943,4.54989 2.54833,7.52835 0.3351,0.86871 0.60946,1.76723 0.60946,1.9959 0,0.37381 1.3223,4.36251 2.30503,6.95187 0.20922,0.55142 0.70876,2.10904 1.1097,3.46209 0.67965,2.29373 0.67768,2.49201 -0.0372,2.93659 -0.42174,0.26238 -1.39381,1.09879 -2.1598,1.85932 -1.23912,1.23029 -1.41421,1.75395 -1.58511,4.73667 l -0.1924,3.35177 2.09279,2.22755 2.09152,2.22761 h 10.14737 c 9.71002,0 10.21381,-0.0489 11.66916,-1.10896 1.65181,-1.20318 2.89802,-3.42601 3.03243,-5.40837 0.20946,-3.09067 -0.0937,-4.05107 -1.88425,-5.98213 -1.55493,-1.67685 -2.21243,-2.02064 -4.39782,-2.29654 -3.55559,-0.44888 -4.14763,-0.68433 -4.1508,-1.65382 -0.002,-0.46393 -0.29917,-1.47487 -0.66159,-2.24699 -0.36243,-0.77211 -0.85616,-2.12625 -1.09728,-3.00825 -0.59334,-2.17057 -1.78118,-5.89055 -2.27277,-7.11741 -0.22098,-0.55139 -0.60715,-1.67909 -0.85771,-2.50622 -0.25055,-0.82704 -0.88965,-2.74442 -1.42001,-4.26072 -0.53036,-1.51633 -1.24092,-3.65871 -1.57888,-4.76147 -0.33799,-1.10275 -0.92473,-2.90694 -1.30335,-4.00968 -0.89686,-2.61215 -3.77614,-11.33746 -4.7975,-14.53678 -0.44004,-1.37846 -2.14001,-6.52931 -3.77842,-11.44706 -1.63842,-4.91772 -2.98085,-9.31717 -2.98278,-9.77531 -0.002,-0.45819 -0.73888,-2.97556 -1.63847,-5.59448 -1.65445,-4.816764 -4.24643,-12.614948 -5.4144,-16.291298 -0.35033,-1.102759 -0.80717,-2.455587 -1.01535,-3.006929 -1.00555,-2.663003 -2.30381,-6.580456 -2.30381,-6.951857 0,-0.228747 -0.27435,-1.125779 -0.60946,-1.994496 -1.1489,-2.978539 -2.54708,-7.11259 -2.54708,-7.52834 0,-0.228666 -0.27435,-1.12719 -0.609458,-1.995908 -0.335103,-0.868789 -1.060651,-2.933553 -1.611166,-4.587654 -0.550538,-1.654169 -1.291075,-3.747115 -1.645923,-4.652482 -0.354847,-0.90537 -0.645465,-1.887153 -0.645465,-2.180727 0,-0.293576 -0.294342,-1.244354 -0.655386,-2.113142 -0.744284,-1.790752 -1.878965,-5.247259 -2.575642,-7.845643 -0.258719,-0.964902 -0.631414,-1.979525 -0.827921,-2.255161 -0.196484,-0.275706 -0.569202,-1.290327 -0.827922,-2.255231 -0.64794,-2.416531 -1.816417,-6.062587 -2.329868,-7.269017 -0.486406,-1.14287 -1.648902,-4.744502 -2.297586,-7.117389 -0.241113,-0.882066 -0.734844,-2.234823 -1.097282,-3.006929 -0.362414,-0.77218 -0.66031,-1.672604 -0.661583,-2.001418 -0.0048,-1.108266 -1.777048,-3.951424 -3.182627,-5.10623 -1.056112,-0.867657 -2.493109,-1.278957 -3.936063,-1.244212 z m -0.239479,30.757708 c 0.323718,0 0.588346,0.277262 0.588346,0.616526 0,0.585173 1.220625,4.287654 2.548331,7.729753 0.335103,0.868717 0.609459,1.894499 0.609459,2.280092 0,0.385664 0.170542,0.916033 0.378604,1.177899 0.208013,0.261926 0.939038,2.280088 1.624809,4.485604 0.685771,2.205443 1.53005,4.721694 1.876803,5.590411 0.346753,0.868717 0.630573,1.765752 0.630573,1.994496 0,0.371187 0.90051,3.074091 2.482516,7.452562 0.298857,0.827049 1.002067,2.970842 1.562766,4.762793 0.560699,1.791955 1.300779,3.968585 1.644674,4.837302 0.343894,0.868717 0.625601,1.767238 0.625601,1.995911 0,0.415748 1.399429,4.549869 2.54833,7.52834 0.335104,0.868714 0.60946,1.894423 0.60946,2.280088 0,0.385523 0.175827,0.916033 0.390998,1.1779 0.464403,0.565395 1.864385,5.129735 1.864385,6.078705 0,0.53933 -3.734079,0.66205 -20.073784,0.66205 -18.523461,0 -20.07256,-0.0646 -20.07256,-0.84412 0,-1.7392 19.574409,-59.806312 20.160689,-59.806312 z m 60.577621,7.822196 c -0.53985,-0.0017 -1.06829,0.161992 -1.90039,0.488279 -1.03623,0.406287 -2.26507,1.121965 -2.73079,1.590329 -0.75925,0.763562 -2.58184,4.582002 -2.58184,5.409759 0,0.180222 -0.28168,1.037504 -0.62685,1.906221 -0.34514,0.868717 -2.18738,6.430029 -4.09371,12.357377 -1.90627,5.927276 -3.6427,11.148899 -3.85907,11.604339 -0.21642,0.455367 -0.72406,2.247038 -1.12832,3.980731 -1.21577,5.213643 0.13091,8.593595 3.9671,9.958782 2.30303,0.819633 5.08124,0.230376 6.64946,-1.411091 0.69662,-0.729169 1.76566,-2.792945 2.37701,-4.584899 0.61139,-1.791955 1.66291,-4.893727 2.33609,-6.892462 0.67317,-1.998735 1.37044,-3.633201 1.5491,-3.633201 0.17871,0 0.63492,0.846187 1.01413,1.880019 1.51364,4.126776 2.6141,7.46252 2.89587,8.776718 0.1631,0.760736 0.47697,1.506429 0.69759,1.657914 0.22051,0.151476 0.40092,0.622388 0.40092,1.046895 0,0.424507 0.29559,1.483055 0.65664,2.351772 0.74428,1.790823 1.87894,5.247334 2.57564,7.845634 0.25872,0.96498 0.62728,1.97953 0.81922,2.25523 0.19192,0.27572 0.49241,1.06527 0.66656,1.75447 0.3645,1.44257 1.89969,6.03079 2.79285,8.34634 0.33511,0.86871 0.60946,1.71491 0.60946,1.88003 0,0.16523 -1.94881,0.2993 -4.32953,0.2993 -5.32519,0 -8.74204,1.00099 -10.25784,3.00283 -2.72332,3.5964 -1.51893,9.82776 2.24918,11.63738 0.77614,0.37275 4.50416,0.72189 9.40509,0.88277 l 8.12037,0.26758 0.71623,2.25523 c 0.39409,1.24063 0.84516,2.59345 1.00293,3.00692 0.42359,1.11048 7.55453,22.47501 8.28174,24.81272 0.34305,1.10277 0.80435,2.45566 1.02529,3.00701 1.04943,2.61913 1.35012,4.38609 0.90363,5.31316 -0.25245,0.52422 -0.63288,0.95309 -0.84529,0.95309 -0.21233,0 -0.72566,0.94046 -1.13948,2.0897 -1.36746,3.79782 0.054,7.74196 3.46188,9.60843 1.16874,0.64017 2.96996,0.81151 8.60075,0.82069 8.13582,0.0133 9.80727,-0.52904 11.60587,-3.76286 1.35324,-2.43313 1.10975,-6.63824 -0.49652,-8.57389 -1.31149,-1.58044 -3.50774,-2.68969 -5.32874,-2.68969 -1.4199,0 -1.44788,-0.0556 -3.95718,-8.01937 -0.3909,-1.24063 -0.98996,-2.96584 -1.33188,-3.83455 -0.34193,-0.86874 -0.62188,-1.89585 -0.62188,-2.28144 0,-0.38567 -0.17054,-0.91604 -0.37858,-1.17797 -0.20801,-0.26183 -0.93906,-2.2801 -1.62481,-4.48552 -0.68577,-2.20553 -1.50053,-4.68618 -1.81101,-5.51324 -0.31051,-0.82704 -1.02318,-2.97084 -1.58388,-4.76278 -0.56068,-1.79203 -1.27124,-3.93435 -1.57889,-4.76147 -0.30762,-0.82704 -1.0182,-2.9695 -1.57888,-4.76144 -0.56072,-1.79195 -1.3008,-3.97001 -1.6447,-4.83871 -0.34389,-0.86872 -0.62557,-1.99217 -0.62557,-2.49656 0,-0.84294 -1.03921,-4.11673 -2.54833,-8.02903 -0.33511,-0.86879 -0.60946,-1.76726 -0.60946,-1.99593 0,-0.41574 -1.39943,-4.54986 -2.54833,-7.5284 -0.33511,-0.86871 -0.60946,-1.92586 -0.60946,-2.35036 0,-0.4245 -0.18039,-0.89682 -0.40095,-1.04832 -0.2205,-0.15161 -0.53447,-0.8971 -0.69759,-1.65789 -0.26969,-1.25784 -1.31271,-4.459698 -2.73698,-8.401519 -0.29886,-0.827049 -1.00207,-2.969499 -1.56276,-4.761451 -0.5607,-1.792026 -1.30078,-3.968584 -1.64468,-4.837301 -0.34389,-0.868716 -0.62437,-1.767238 -0.62437,-1.99591 0,-0.370622 -0.87943,-3.008411 -2.48254,-7.452491 -0.29833,-0.827051 -1.30321,-3.872328 -2.23302,-6.767037 -0.92982,-2.894641 -1.86261,-5.713506 -2.07293,-6.264848 -0.21018,-0.551415 -0.9264,-2.581926 -1.5913,-4.511804 -1.46895,-4.263431 -2.41356,-5.487515 -4.99487,-6.46492 -0.87598,-0.331567 -1.42755,-0.497669 -1.9674,-0.499295 z" /></svg>
