<?xml version="1.0" encoding="UTF-8" standalone="no"?>
<svg
   width="200mm"
   height="200mm"
   fill="currentColor"
   class="bi bi-easel"
   viewBox="0 0 200 200"
   version="1.1"
   id="svg1"
   sodipodi:docname="settingsIcon.svg"
   inkscape:version="1.2.2 (b0a8486, 2022-12-01)"
   xmlns:inkscape="http://www.inkscape.org/namespaces/inkscape"
   xmlns:sodipodi="http://sodipodi.sourceforge.net/DTD/sodipodi-0.dtd"
   xmlns="http://www.w3.org/2000/svg"
   xmlns:svg="http://www.w3.org/2000/svg">
  <defs
     id="defs1" />
  <sodipodi:namedview
     id="namedview1"
     pagecolor="#ffffff"
     bordercolor="#000000"
     borderopacity="0.25"
     inkscape:showpageshadow="2"
     inkscape:pageopacity="0.0"
     inkscape:pagecheckerboard="0"
     inkscape:deskcolor="#d1d1d1"
     inkscape:zoom="0.56396485"
     inkscape:cx="257.9948"
     inkscape:cy="222.5316"
     inkscape:window-width="1390"
     inkscape:window-height="1027"
     inkscape:window-x="58"
     inkscape:window-y="25"
     inkscape:window-maximized="0"
     inkscape:current-layer="svg1"
     inkscape:document-units="mm"
     showgrid="false" />
  <g
     id="g567"
     transform="matrix(43.558088,0,0,43.78016,-4436.6195,-3289.0013)"
     style="fill:#d8d8d8;fill-opacity:1">
    <path
       d="m 104.151,76.550685 a 0.8588375,0.8588375 0 1 0 0,1.717675 0.8588375,0.8588375 0 0 0 0,-1.717675 z m -0.59426,0.858838 a 0.594255,0.594255 0 1 1 1.18851,0 0.594255,0.594255 0 0 1 -1.18851,0 z"
       id="path132"
       style="stroke-width:0.264583;fill:#d8d8d8;fill-opacity:1" />
    <path
       d="m 104.62619,75.648191 c -0.13944,-0.473604 -0.81095,-0.473604 -0.95039,0 l -0.0249,0.0844 a 0.23098125,0.23098125 0 0 1 -0.33205,0.137584 l -0.0773,-0.04233 c -0.43391,-0.236008 -0.90831,0.238655 -0.67204,0.672307 l 0.0421,0.07726 a 0.23098125,0.23098125 0 0 1 -0.13758,0.332052 l -0.0844,0.02487 c -0.47361,0.139435 -0.47361,0.810948 0,0.950383 l 0.0844,0.02487 a 0.23098125,0.23098125 0 0 1 0.13758,0.332052 l -0.0423,0.07726 c -0.23601,0.433916 0.23839,0.908579 0.6723,0.672041 l 0.0773,-0.04207 a 0.23098125,0.23098125 0 0 1 0.33205,0.137584 l 0.0249,0.0844 c 0.13944,0.473604 0.81095,0.473604 0.95039,0 l 0.0249,-0.0844 a 0.23098125,0.23098125 0 0 1 0.33205,-0.137584 l 0.0773,0.04233 c 0.43392,0.236273 0.90858,-0.238654 0.67204,-0.672306 l -0.0421,-0.07726 a 0.23098125,0.23098125 0 0 1 0.13759,-0.332052 l 0.0844,-0.02487 c 0.4736,-0.139435 0.4736,-0.810948 0,-0.950383 l -0.0844,-0.02487 a 0.23098125,0.23098125 0 0 1 -0.13759,-0.332052 l 0.0423,-0.07726 c 0.23627,-0.433917 -0.23866,-0.908315 -0.67231,-0.672042 l -0.0773,0.04207 a 0.23098125,0.23098125 0 0 1 -0.33205,-0.137584 z m -0.69665,0.07488 c 0.0651,-0.220927 0.37783,-0.220927 0.44291,0 l 0.0249,0.0844 a 0.49556458,0.49556458 0 0 0 0.71253,0.29501 l 0.077,-0.04233 c 0.20214,-0.109802 0.42333,0.111125 0.31327,0.313531 l -0.0421,0.07726 a 0.49556458,0.49556458 0 0 0 0.29527,0.712259 l 0.0841,0.02487 c 0.22093,0.06509 0.22093,0.377825 0,0.442913 l -0.0844,0.02487 a 0.49556458,0.49556458 0 0 0 -0.29501,0.712523 l 0.0423,0.07699 c 0.1098,0.202142 -0.11112,0.423334 -0.31353,0.313267 l -0.077,-0.04207 a 0.49556458,0.49556458 0 0 0 -0.71253,0.295275 l -0.0249,0.08414 c -0.0651,0.220927 -0.37782,0.220927 -0.44291,0 l -0.0249,-0.0844 a 0.49556458,0.49556458 0 0 0 -0.71226,-0.295011 l -0.0773,0.04233 c -0.20214,0.109802 -0.42333,-0.111125 -0.31326,-0.313532 l 0.0421,-0.07699 a 0.49556458,0.49556458 0 0 0 -0.29501,-0.712788 l -0.0844,-0.02487 c -0.22092,-0.06509 -0.22092,-0.377825 0,-0.442912 l 0.0844,-0.02487 a 0.49556458,0.49556458 0 0 0 0.29501,-0.711994 l -0.0423,-0.07726 c -0.1098,-0.202142 0.11113,-0.423333 0.31353,-0.313267 l 0.0773,0.04207 a 0.49556458,0.49556458 0 0 0 0.71226,-0.29501 z"
       id="path134"
       style="stroke-width:0.264583;fill:#d8d8d8;fill-opacity:1" />
  </g>
</svg>
