<?xml version="1.0" encoding="UTF-8" standalone="no"?>
<!-- Created with Inkscape (http://www.inkscape.org/) -->

<svg
   width="200mm"
   height="200mm"
   version="1.1"
   viewBox="0 0 200 200"
   xmlSpace="preserve"
   id="svg3"
   xmlns="http://www.w3.org/2000/svg"
   xmlns:svg="http://www.w3.org/2000/svg">
  <defs
     id="defs3" />
  <g
     id="g3">
    <path
       fill="none"
       fillOpacity="0"
       strokeLinecap="round"
       strokeLinejoin="round"
       strokeWidth="0.265"
       d="M 0,0 H 200 V 200 H 0 Z"
       paintOrder="markers stroke fill"
       id="path1" />
    <path
       id="path146"
       style="fill:#c7f246;fill-opacity:1;stroke:#000000;stroke-width:0;stroke-linejoin:round;stroke-dasharray:none;stroke-dashoffset:318.954;stroke-opacity:1;paint-order:markers stroke fill"
       d="m 99.984997,5.2800874 a 94.702086,94.702086 0 0 0 -30.589458,5.2950256 94.702086,94.702086 0 0 0 -0.01135,0.0038 c -0.04368,0.01324 -0.09379,0.02477 -0.14069,0.04028 -1.373939,0.478307 -2.729119,0.994114 -4.07023,1.528678 -0.02023,0.0076 -0.04179,0.01513 -0.0469,0.02383 a 94.702086,94.702086 0 0 0 -9.215668,4.257778 94.702086,94.702086 0 0 0 -0.858121,0.46891 c -0.422028,0.234464 -0.862811,0.468928 -1.284837,0.703393 a 94.702086,94.702086 0 0 0 -10.184918,6.617851 c -0.497053,0.375135 -0.998796,0.736201 -1.491162,1.116026 a 94.702086,94.702086 0 0 0 -30.577728,41.575277 94.702086,94.702086 0 0 0 -0.140671,0.375135 c -0.0469,0.187586 -0.140671,0.375135 -0.187568,0.553323 a 94.702086,94.702086 0 0 0 -3.4840592,12.09528 c -0.018343,0.09379 -0.03799,0.187586 -0.046897,0.281342 a 94.702086,94.702086 0 0 0 -1.5568111,8.850376 c -0.00416,0.03045 -0.00889,0.0469 -0.013048,0.09379 -0.093774,0.839374 -0.1875676,2.067934 -0.2344604,3.263684 -0.00889,0.187587 -0.023921,0.281342 -0.032828,0.473599 a 94.702086,94.702086 0 0 0 -0.5111221,7.134135 94.702086,94.702086 0 0 0 0.5111221,7.17868 c 0.010779,0.23446 0.030483,0.37514 0.043134,0.60491 a 94.702086,94.702086 0 0 0 1.1535397,9.1186 c 0.3282442,1.735 0.7080672,3.43718 1.1160262,5.13137 a 94.702086,94.702086 0 0 0 2.6915968,9.15612 94.702086,94.702086 0 0 0 0.651797,1.74436 c 0.234458,0.63305 0.468918,1.27548 0.708067,1.90382 a 94.702086,94.702086 0 0 0 4.257781,9.22458 c 0.468919,0.88625 0.947217,1.7725 1.444271,2.64469 a 94.702086,94.702086 0 0 0 25.578584,28.95762 c 0.281351,0.18759 0.543946,0.42202 0.820608,0.61427 a 94.702086,94.702086 0 0 0 22.420883,12.11172 c 0.328257,0.14069 0.684634,0.23446 1.026941,0.37513 a 94.702086,94.702086 0 0 0 9.114378,2.85104 c 1.814711,0.4689 3.671628,0.85342 5.569353,1.21449 a 94.702086,94.702086 0 0 0 17.587738,1.85691 94.702086,94.702086 0 0 0 82.64178,-48.94903 94.702086,94.702086 0 0 0 0.0113,-0.0189 c 0.32824,-0.57677 0.72683,-1.2192 1.00348,-1.7397 0.14069,-0.28136 0.28136,-0.60959 0.42203,-0.9097 0.002,-0.004 0.004,-0.008 0.006,-0.0113 a 94.702086,94.702086 0 0 0 3.54034,-7.76436 94.702086,94.702086 0 0 0 1.59433,-4.27185 94.702086,94.702086 0 0 0 2.64469,-9.05154 94.702086,94.702086 0 0 0 0.42203,-1.96947 94.702086,94.702086 0 0 0 1.74907,-11.07819 94.702086,94.702086 0 0 0 0.23447,-3.15115 94.702086,94.702086 0 0 0 0.42201,-5.78739 A 94.702086,94.702086 0 0 0 99.991616,5.3144278 Z m -2.668153,8.9966636 c 1.622453,-0.0225 3.366846,-0.01135 5.317556,0.0329 0.42201,0.0095 0.61896,0.03385 1.00816,0.04463 9.5e-4,0 9.5e-4,0 0.002,0 a 85.916832,85.916832 0 0 1 46.53363,15.933866 85.916832,85.916832 0 0 1 0.46893,0.328238 85.916832,85.916832 0 0 1 0.001,0 85.916832,85.916832 0 0 1 9.16362,7.826253 85.916832,85.916832 0 0 1 1.37392,1.312973 85.916832,85.916832 0 0 1 9.90029,12.323185 c -0.017,0.520515 -0.68463,0.543944 -7.84688,0.281361 -4.31874,-0.14069 -8.31676,-0.281361 -8.88649,-0.328239 -1.01755,-0.04311 -1.04099,-0.0076 -1.2567,2.025726 -0.14069,1.139475 -0.23446,5.664073 -0.28134,10.055488 l -0.0371,7.98381 0.89564,0.586151 c 0.58146,0.375135 0.83935,0.806546 0.73151,1.209819 -0.23447,0.862804 0.0469,1.181663 1.72093,2.035106 1.67873,0.853424 2.51809,0.937838 2.51809,0.234445 0,-0.281342 0.28136,-0.839355 0.64711,-1.275456 0.61427,-0.759649 0.68462,-0.769029 1.50523,-0.234445 0.64241,0.422013 0.96129,0.46891 1.25201,0.187587 0.60022,-0.60022 0.47829,-3.93423 -0.18758,-4.94194 -0.79717,-1.219199 -0.46893,-8.441941 0.4689,-10.102857 0.5674,-1.017562 0.73154,-1.097268 1.8288,-0.890941 2.23206,0.422013 5.33489,0.872182 7.31607,1.078509 1.95071,0.187586 1.96946,0.187586 2.18515,-0.792478 0.23447,-1.111336 0.42203,-1.692798 0.6987,-1.763143 a 85.916832,85.916832 0 0 1 11.34831,40.294205 c 0.0197,1.486472 0.031,2.874476 0.006,4.375016 a 85.916832,85.916832 0 0 1 0,0.009 85.916832,85.916832 0 0 1 -0.6096,7.74231 c -0.0257,-0.031 -0.0221,-0.0418 -0.0469,-0.0938 -0.18758,-0.23447 -0.42201,-0.6096 -0.46891,-0.82062 -0.0469,-0.28134 -0.18758,-0.46891 -0.62366,-0.67523 -0.28135,-0.14069 -0.70807,-0.42203 -0.9097,-0.63774 -0.18759,-0.18759 -0.60022,-0.46891 -0.89095,-0.55801 -0.28136,-0.0938 -0.57208,-0.28135 -0.63773,-0.42204 -0.0469,-0.14069 -0.32824,-0.23444 -0.61896,-0.28134 -0.28136,-0.0389 -0.64712,-0.18758 -0.83,-0.37513 -0.18758,-0.14069 -0.59553,-0.37514 -0.93315,-0.51581 -0.32823,-0.14069 -0.67992,-0.28136 -0.76433,-0.32826 -0.0938,-0.0469 -0.42204,-0.18758 -0.79248,-0.28134 -0.32824,-0.0938 -1.1301,-0.28136 -1.7303,-0.46893 -0.60022,-0.18758 -1.34111,-0.32823 -1.6459,-0.32823 -3.54035,-9.5e-4 -9.91858,0.14068 -10.68339,0.23446 -2.81352,0.32824 -6.83965,0.49236 -15.12967,0.56739 -7.38875,0.0469 -8.99902,0.0938 -9.32444,0.28134 -0.14069,0.0469 -0.42204,0.14069 -0.64243,0.14069 -0.23445,9.3e-4 -0.6471,0.0938 -0.95189,0.18759 -0.56739,0.18759 -1.50054,0.14069 -2.48527,-0.0938 -0.32824,-0.0938 -0.91908,-0.0938 -1.82878,0.0132 -0.75027,0.0938 -2.81821,0.14069 -4.59542,0.18759 -2.02104,0.0263 -3.49344,0.0938 -3.92954,0.18759 -0.59553,0.14069 -0.79717,0.14069 -1.40206,-0.039 -0.58615,-0.14069 -1.02225,-0.18758 -2.53686,-0.0938 -1.00816,0.0469 -2.54153,0.18759 -3.4184,0.32826 -1.27079,0.18758 -1.74439,0.18758 -2.38213,0.0938 -0.5158,-0.0938 -1.09257,-0.0938 -1.6459,-0.017 -0.46891,0.0469 -1.29421,0.18759 -1.82878,0.23446 -0.53456,0.0469 -2.92604,0.14069 -5.30722,0.14069 -5.74567,-0.004 -9.725854,0.0938 -10.921605,0.32824 -1.552108,0.28136 -8.545567,0.47362 -12.857749,0.37514 -3.868575,-0.0938 -5.341923,-0.18759 -5.823502,-0.51112 -0.14069,-0.0938 -0.895631,-0.23446 -1.711557,-0.28136 -1.200421,-0.0938 -1.561487,-0.18759 -2.082002,-0.42201 -0.492358,-0.28136 -0.783079,-0.32826 -1.336403,-0.32826 -1.19575,0.032 -1.331731,0.009 -1.79597,-0.32824 -0.281342,-0.18758 -0.750271,-0.32824 -1.209801,-0.42203 -0.74558,-0.0938 -1.073838,-0.23444 -1.669349,-0.5627 -0.187587,-0.0938 -0.468929,-0.18759 -0.618979,-0.18759 -0.187587,-9.3e-4 -0.572082,-0.18759 -0.890942,-0.37513 -0.328257,-0.18759 -0.670565,-0.37514 -0.787787,-0.37514 -0.281361,-0.004 -1.247318,-0.46891 -1.247318,-0.57675 0,-0.0469 -0.234464,-0.18759 -0.548634,-0.23447 -0.281361,-0.0938 -0.647117,-0.23446 -0.764339,-0.37513 -0.14069,-0.14069 -0.468927,-0.32824 -0.778412,-0.42203 -0.328245,-0.14069 -0.661177,-0.32824 -0.778405,-0.46891 -0.140671,-0.14069 -0.328244,-0.23447 -0.468919,-0.23447 -0.281351,0 -0.656486,-0.18758 -1.111338,-0.56739 -0.187568,-0.14069 -0.422026,-0.28136 -0.567393,-0.28136 -0.140671,0 -0.281351,-0.14069 -0.422026,-0.281343 -0.09377,-0.14069 -0.422026,-0.375135 -0.694,-0.468929 -0.281351,-0.09379 -0.600216,-0.281341 -0.712757,-0.422012 -0.09377,-0.14069 -0.506432,-0.375136 -0.876878,-0.478308 -0.829987,-0.281342 -1.950703,-0.797167 -2.203918,-1.012854 -0.09377,-0.09379 -0.422026,-0.234464 -0.731514,-0.328257 -0.281351,-0.09379 -0.8675,-0.281342 -1.27077,-0.422013 -0.647107,-0.234464 -1.050378,-0.281361 -3.540337,-0.328258 -1.542742,-0.03423 -2.968256,-0.0469 -3.169891,-0.0469 -0.187567,0.0019 -1.875676,0.01135 -3.723216,0.01929 -3.40435,0.01513 -3.643499,0.04085 -4.941936,0.506446 -0.422026,0.140689 -1.03162,0.281342 -1.397377,0.328238 -0.422026,0.04179 -0.829987,0.187587 -1.083203,0.375135 -0.234458,0.14069 -0.511122,0.281342 -0.623662,0.281342 -0.09377,0 -0.375136,0.14069 -0.609594,0.281361 -0.234459,0.187587 -0.57677,0.328239 -0.787784,0.375135 -0.600216,0.14069 -1.097269,0.328239 -1.322351,0.562703 -0.09377,0.14069 -0.468918,0.234464 -0.764337,0.281342 -0.422028,0.0469 -0.614283,0.187586 -0.792474,0.422032 -0.187567,0.28136 -0.375135,0.37514 -0.937837,0.42203 -0.558014,0.0469 -0.806541,0.18759 -1.252014,0.55333 -0.328242,0.23446 -0.956594,0.67054 -1.44427,0.91439 -0.487674,0.23446 -0.886256,0.49236 -0.886256,0.54394 0,0.0469 -0.187567,0.18759 -0.375135,0.23447 -0.23446,0.0938 -0.525189,0.28134 -0.684621,0.37513 -0.14067,0.14069 -0.501744,0.28134 -0.759649,0.32824 -0.281352,0.0938 -0.529877,0.23446 -0.609594,0.37513 -0.09379,0.14069 -0.23446,0.37514 -0.375135,0.46891 -0.234461,0.18759 -0.234461,0.32826 -0.234461,1.39739 0.01778,1.04568 0.0469,1.23794 0.281352,1.47709 l 0.281351,0.28136 h 4.379703 4.379702 l 0.281351,-0.32825 0.281352,-0.32824 h 7.671041 c 7.968338,0 7.988033,9.4e-4 8.403027,0.48769 0.0469,0.0938 0.328242,0.18758 0.62835,0.28134 0.328244,0.0938 0.586149,0.28134 0.764339,0.53925 0.140671,0.23447 0.375134,0.56739 0.543944,0.7831 0.187568,0.23446 0.328245,0.63305 0.375136,1.0832 0.0469,0.46893 0.140671,0.7831 0.328244,0.97066 0.187567,0.18759 0.281351,0.56271 0.375135,1.17231 0.09377,0.68461 0.187568,0.94721 0.422026,1.11133 0.234461,0.18759 0.281352,0.37514 0.375135,1.10196 0.0469,0.61429 0.140671,0.96598 0.328245,1.13947 0.281351,0.32824 0.473606,0.92377 0.473606,1.53806 0,0.32824 0.09378,0.55333 0.281352,0.77839 0.281351,0.32826 0.375135,0.52521 0.478298,1.63654 0.03236,0.28135 0.140671,0.5674 0.187568,0.59083 0.234458,0.0938 0.487675,0.71277 0.56739,1.44428 0.0469,0.46891 0.187568,0.82528 0.375135,1.04099 0.187568,0.23446 0.281352,0.57208 0.375136,1.09727 0.0469,0.49237 0.187567,0.86282 0.328244,1.02225 0.234458,0.28134 0.473607,0.91439 0.473607,1.3833 0,0.18759 0.14067,0.49707 0.281351,0.73153 0.187568,0.28134 0.328244,0.75494 0.422028,1.28483 0.09377,0.51112 0.234458,0.95191 0.375135,1.09727 0.140671,0.14069 0.281352,0.60022 0.375133,1.09727 0.09378,0.51112 0.234461,0.9566 0.375136,1.11603 0.140671,0.18758 0.281351,0.58146 0.375135,1.15823 0.09377,0.60958 0.187567,0.9566 0.328244,1.0832 0.140671,0.0938 0.281351,0.53456 0.422026,1.0832 0.09377,0.49704 0.281352,0.98942 0.375135,1.09726 0.09378,0.0938 0.234461,0.42204 0.328245,0.68464 0.09377,0.28134 0.187567,0.55801 0.187567,0.64241 0.09379,0.23446 3.17927,0.23446 3.273061,-0.0272 0.03744,-0.0938 0.234446,-0.23447 0.473599,-0.32824 0.234465,-0.0938 0.567393,-0.37514 0.769029,-0.62367 0.187587,-0.23447 0.501738,-0.60022 0.670547,-0.77841 0.187586,-0.18759 0.422031,-0.47829 0.520514,-0.66117 0.14069,-0.18758 0.281342,-0.32825 0.375135,-0.32825 0.09379,0 0.234446,-0.18759 0.281342,-0.37514 0.09379,-0.18759 0.234465,-0.42201 0.375136,-0.42201 0.140689,-0.0371 0.234464,-0.14069 0.234464,-0.23447 0,-0.28136 0.375135,-0.93783 0.628339,-1.11602 0.14069,-0.0938 0.234464,-0.23447 0.234464,-0.32824 0,-0.0938 0.14069,-0.28136 0.375135,-0.42203 0.187587,-0.14069 0.375135,-0.37514 0.422032,-0.54864 0.04312,-0.18758 0.187587,-0.32823 0.375135,-0.37513 0.187587,-0.0469 0.281342,-0.14069 0.281342,-0.32824 0,-0.14069 0.09379,-0.32826 0.234464,-0.42203 0.14069,-0.0938 0.422032,-0.37514 0.6096,-0.54864 0.187586,-0.18758 0.422032,-0.32823 0.473599,-0.32823 0.0469,0 0.14069,-0.0938 0.187587,-0.23447 0.04085,-0.14069 0.234464,-0.28136 0.468928,-0.37513 0.187586,-0.0469 0.482978,-0.28136 0.614289,-0.42204 0.14069,-0.18758 0.328239,-0.32823 0.375135,-0.32823 0.09379,0 0.375135,-0.18759 0.693995,-0.37514 0.281342,-0.18759 0.637718,-0.37513 0.74558,-0.37513 0.09379,-4.8e-4 0.46891,-0.14069 0.75965,-0.28137 0.328239,-0.18758 1.017543,-0.37513 1.575556,-0.49235 0.553324,-0.0938 1.228579,-0.23447 1.495851,-0.32824 0.647117,-0.18759 3.146461,-0.46893 5.18671,-0.58615 4.665742,-0.28136 6.006853,-0.37514 6.955016,-0.50643 0.572082,-0.0938 2.297708,-0.18759 3.845126,-0.23446 3.155821,-0.0938 5.526219,-0.28136 6.161593,-0.49236 0.234464,-0.0938 2.241434,-0.18759 4.454734,-0.23447 2.81351,-0.0938 4.2109,-0.18758 4.63762,-0.28136 1.17228,-0.32824 2.10543,-0.42201 6.03497,-0.49704 2.97294,-0.0469 4.02333,-0.14069 4.2109,-0.23447 0.46891,-0.28134 1.78188,-0.42203 5.80053,-0.49236 2.91667,-0.0469 4.028,-0.14069 4.21088,-0.23446 0.46893,-0.28134 1.80066,-0.42203 5.91261,-0.49236 3.91078,-0.0938 4.09365,-0.0938 4.28591,-0.32826 0.18759,-0.23444 0.42203,-0.28134 1.65059,-0.32823 0.79717,-0.0469 2.79476,-0.0938 4.44066,-0.0938 2.36805,-0.008 3.06205,-0.0465 3.32934,-0.18758 0.78777,-0.42204 1.31297,-0.46893 5.57731,-0.54864 4.16401,-0.0938 4.35157,-0.0938 4.84488,-0.37513 0.49236,-0.28136 0.69399,-0.28136 4.8805,-0.37514 3.6388,-0.0938 4.43128,-0.14069 4.75437,-0.28136 0.57208,-0.28134 1.99759,-0.42203 6.17332,-0.50174 3.1652,-0.0938 3.7748,-0.0938 3.85919,-0.28136 0.14069,-0.28134 1.10196,-0.37513 4.45942,-0.46891 1.28952,-0.038 1.88974,-0.0469 2.32115,-0.0938 a 85.916832,85.916832 0 0 1 -0.98004,4.07023 85.916832,85.916832 0 0 1 -6.39419,17.62619 85.916832,85.916832 0 0 1 -0.031,0.0469 c -4.7e-4,9.4e-4 -9.4e-4,0.002 -0.002,0.002 a 85.916832,85.916832 0 0 1 -3.15584,5.14497 c -0.32824,0.23447 -0.55801,0.0938 -0.5627,-0.42203 -9.3e-4,-0.32824 -0.23445,-1.06913 -0.53926,-1.63183 -0.48298,-0.92377 -1.6459,-4.57195 -2.12419,-6.67318 -0.14069,-0.5627 0.0339,-0.95191 0.55333,-1.31766 1.19104,-0.83467 1.76781,-2.34459 1.76781,-4.62823 0,-2.35867 -0.89563,-4.12649 -2.09136,-4.12649 -0.5674,0 -0.67057,0.23447 -0.67057,1.70687 0,0.93784 -0.14069,1.80064 -0.32824,1.91788 -0.18758,0.0938 -0.32823,0.72683 -0.32823,1.35048 0,1.77252 -0.67995,3.32465 -1.61779,3.68102 -1.46302,0.55802 -1.75374,0.37514 -2.14764,-1.31766 -1.00349,-4.30468 -0.32823,-7.43283 1.35049,-6.37777 0.95658,0.59553 1.37861,0.52987 1.37861,-0.23447 0,-0.37513 0.32824,-0.76902 0.77841,-0.91908 0.66586,-0.23446 0.58146,-0.28134 -0.5627,-0.42203 -0.7362,-0.0938 -1.50523,0.0257 -1.70687,0.23447 -0.18758,0.18758 -1.71624,0.37513 -3.41842,0.37513 -2.26955,0 -3.09486,0.14069 -3.23084,0.47831 -0.0938,0.28134 0.0469,3.2496 0.37514,6.63754 0.28134,3.39028 0.53925,7.82298 0.53925,9.85105 0,2.02573 0.0938,3.92954 0.18759,4.22964 0.14069,0.42203 0.72213,0.54394 2.41493,0.54394 1.84754,0 2.21798,-0.0938 2.26957,-0.60491 0.0361,-0.32823 0.0938,-3.01044 0.0938,-5.95292 0.0225,-5.18015 0.045,-5.35223 0.75496,-5.45353 0.75027,-0.0938 0.90032,0.42204 1.72094,5.97076 0.93315,6.32478 0.84404,6.03968 1.9085,6.03968 1.05506,0 1.13948,0.53456 0.28134,1.98821 a 85.916832,85.916832 0 0 1 -0.49235,0.80185 85.916832,85.916832 0 0 1 -0.95191,1.28484 c -0.001,0.002 -0.002,0.006 -0.004,0.008 a 85.916832,85.916832 0 0 1 -6.85983,8.03164 85.916832,85.916832 0 0 1 -2.48994,2.54153 85.916832,85.916832 0 0 1 -7.12664,6.08563 85.916832,85.916832 0 0 1 -3.71853,2.74788 85.916832,85.916832 0 0 1 -6.48232,3.97172 85.916832,85.916832 0 0 1 -8.59107,4.20153 c 2.96826,-1.26608 5.83241,-2.66347 8.59107,-4.20153 a 85.916832,85.916832 0 0 1 -9.25318,4.47349 c 0.0221,-0.009 0.046,-0.017 0.0469,-0.0272 a 85.916832,85.916832 0 0 1 -0.0938,0.0371 85.916832,85.916832 0 0 0 0.0197,-0.009 c -0.49238,0.18758 -0.9988,0.37513 -1.49585,0.58615 a 85.916832,85.916832 0 0 0 0.42201,-0.14069 85.916832,85.916832 0 0 1 -9.85854,3.30589 85.916832,85.916832 0 0 1 -0.0113,0.002 85.916832,85.916832 0 0 1 -3.1652,0.75965 85.916832,85.916832 0 0 1 -8.52074,1.55213 85.916832,85.916832 0 0 0 8.52074,-1.55213 c -4.03272,0.85813 -8.60467,1.5193 -13.20946,1.84754 -2.84634,0.18758 -5.64297,0.32825 -6.21224,0.32825 -6.796039,-0.37513 -14.0188,-1.28014 -17.946922,-2.26488 -1.139475,-0.28136 -2.574379,-0.60022 -3.193339,-0.69399 -0.618978,-0.0938 -1.209819,-0.32826 -1.312973,-0.483 -0.09379,-0.18758 -0.562703,-0.32824 -1.017562,-0.32824 -0.46891,0 -1.181663,-0.14069 -1.617763,-0.32823 -0.422032,-0.18759 -1.880366,-0.73621 -3.207408,-1.23327 -1.327042,-0.49705 -2.72441,-1.02223 -3.104235,-1.16761 -5.042295,-1.92256 -17.667931,-9.31742 -21.100416,-12.35882 -0.595529,-0.52987 -1.838163,-1.60371 -2.761934,-2.39148 -3.141756,-2.67284 -8.054618,-7.74091 -10.305896,-10.62617 -0.567392,-0.73153 -1.223879,-1.52399 -1.458338,-1.76314 -0.23446,-0.23447 -1.706865,-2.35397 -3.277743,-4.69762 -4.706538,-7.02207 -10.965198,-20.53772 -10.965198,-23.6776 0,-0.42203 -0.140671,-0.81591 -0.328243,-0.92377 -0.187567,-0.0938 -0.375135,-0.69399 -0.478298,-1.31297 -0.09379,-0.61898 -0.482986,-2.36804 -0.858121,-3.88734 -2.822892,-11.3361 -2.236742,-29.407302 1.33173,-41.069793 0.661176,-2.161708 2.039797,-6.26053 2.499336,-7.420635 0.281352,-0.665856 0.679933,-1.753764 0.928461,-2.41493 1.045689,-2.818204 5.771452,-11.48054 8.180757,-15.001645 2.733797,-3.999885 5.995597,-7.96178 9.378377,-11.494608 a 85.916832,85.916832 0 0 0 -2.368041,2.2555 85.916832,85.916832 0 0 1 8.663745,-8.267515 85.916832,85.916832 0 0 0 -0.933148,0.890941 c 0.829985,-0.717443 1.645905,-1.392678 2.461823,-2.025726 a 85.916832,85.916832 0 0 0 -1.15354,0.815926 85.916832,85.916832 0 0 1 10.110828,-7.150545 85.916832,85.916832 0 0 1 0.670553,-0.422031 85.916832,85.916832 0 0 1 10.884542,-5.437116 85.916832,85.916832 0 0 1 0.0019,-0.0014 85.916832,85.916832 0 0 1 2.527483,-1.0457 85.916832,85.916832 0 0 1 0.01513,-0.0057 85.916832,85.916832 0 0 1 4.661051,-1.763143 85.916832,85.916832 0 0 1 10.416554,-2.499325 85.916832,85.916832 0 0 1 2.851031,-0.506446 c 0.0019,0 0.0038,-9.27e-4 0.0057,-0.0014 a 85.916832,85.916832 0 0 1 9.645199,-0.754961 z m -30.125692,6.580353 c -3.746662,1.622453 -7.569286,3.493439 -10.884542,5.437115 a 85.916832,85.916832 0 0 1 10.884542,-5.437115 z m -11.554158,5.847404 c -2.536852,1.528679 -5.595609,3.577853 -6.041082,4.079609 -0.09377,0.09379 -0.80654,0.656477 -1.580257,1.21918 -0.422026,0.328239 -0.890945,0.684615 -1.336418,1.031631 a 85.916832,85.916832 0 0 1 8.957757,-6.334637 z m -11.416768,8.358019 c -1.78658,1.547437 -3.587229,3.263664 -5.363962,5.119655 a 85.916832,85.916832 0 0 1 5.363962,-5.119655 z M 122.06028,182.76821 c 0.63774,-0.18758 1.32236,-0.32825 1.90851,-0.50175 2.57905,-0.7831 5.06949,-1.68811 7.50832,-2.65409 a 85.916832,85.916832 0 0 1 -9.4173,3.15584 z m 60.88396,-61.43962 a 85.916832,85.916832 0 0 0 0.73152,-3.0386 c -0.37514,0.0938 -1.28015,0.18758 -2.84635,0.32823 -1.85222,0.14069 -6.23802,0.47831 -9.74975,0.75965 -6.23428,0.50176 -11.07728,0.84876 -20.88002,1.51461 -2.65877,0.18759 -6.8495,0.47362 -9.31741,0.6565 -2.46652,0.18759 -6.66101,0.48767 -9.31836,0.68462 -2.65878,0.18758 -5.6078,0.42203 -6.55689,0.54863 -2.3024,0.23446 -8.7777,0.7362 -25.884805,1.90381 -28.180617,1.92727 -27.295292,1.67873 -33.400136,9.39011 -1.458352,1.84285 -2.968272,3.52157 -3.357477,3.7279 -0.375135,0.18759 -1.594315,0.32824 -2.677517,0.28134 -1.880364,-0.0938 -2.002284,-0.14069 -2.532162,-1.31297 -0.328243,-0.66586 -0.984729,-2.52746 -1.509919,-4.14056 -0.525189,-1.61307 -1.087892,-3.2027 -1.256702,-3.53095 -0.187568,-0.32824 -0.28135,-0.90032 -0.28135,-1.27546 0,-0.37513 -0.140671,-0.77372 -0.328244,-0.89094 -0.187568,-0.14069 -0.328243,-0.51581 -0.328243,-0.88625 0,-0.37514 -0.14067,-0.94253 -0.328244,-1.27546 -0.375135,-0.67994 -1.116026,-2.95889 -1.749066,-5.258 -0.234461,-0.85342 -0.558013,-1.8663 -0.717447,-2.24612 -0.140671,-0.37514 -0.848743,-2.39617 -1.538054,-4.48755 -0.759648,-2.30707 -1.547432,-4.05146 -2.002283,-4.45004 -0.717445,-0.62367 -1.237945,-0.63774 -11.452404,-0.37513 -16.117209,0.42203 -14.785479,0.46892 -15.180778,-0.42204 -0.187568,-0.46891 -0.422028,-0.71275 -0.595527,-0.74558 -0.187567,-0.0295 -0.375135,0.14069 -0.487675,0.57209 -0.09378,0.32823 -0.328245,0.91438 -0.487676,1.29421 -0.998798,2.32116 -1.364554,4.14994 -1.158229,5.72786 0.234458,1.61776 0.281351,1.69279 1.303593,1.69279 0.590837,4.6e-4 5.852576,-0.18758 11.689678,-0.37513 5.837102,-0.23447 11.16402,-0.28136 11.837387,-0.14069 0.783094,0.14069 1.767823,0.76434 2.733797,1.71624 0.829986,0.81593 1.946014,1.58027 2.48527,1.6928 1.66935,0.37514 3.155823,1.50054 3.521579,2.71974 0.187568,0.62834 0.820608,2.45712 1.39738,4.07021 1.294214,3.60599 1.312971,4.06552 0.187567,4.35157 -1.345797,0.32824 -11.507269,-0.0938 -13.08565,-0.55801 -0.759648,-0.23446 -2.002282,-0.5627 -2.761932,-0.75965 -1.547431,-0.37513 -2.025729,-0.57208 -4.487553,-1.6553 -3.05735,-1.34109 -4.135864,-1.8616 -4.314052,-2.05855 -0.09378,-0.0938 -0.909702,-0.56737 -1.814716,-1.02223 -0.905014,-0.46893 -1.814716,-1.03633 -2.02573,-1.28953 -0.618973,-0.74558 -0.862811,-0.55332 -1.477095,1.17699 -0.328242,0.90032 -0.726824,1.9038 -0.905012,2.22737 -0.670554,1.23793 -0.783094,3.34338 -0.23446,4.19212 0.675243,1.03163 9.57626,5.47745 12.311464,6.15268 3.019837,0.74559 8.978858,1.65529 10.704009,1.63653 4.159311,-0.0469 5.129504,-0.42202 5.6561,-2.12419 0.422026,-1.33642 1.223877,4.7e-4 2.635324,4.32812 0.815918,2.50402 1.720932,4.74779 2.011661,4.98507 0.281351,0.23445 0.970662,0.42202 1.509918,0.42202 2.105447,0 3.971743,-1.65997 6.68959,-5.94824 1.941331,-3.06671 7.246209,-8.2525 9.621278,-9.40838 2.086691,-1.01286 5.217193,-1.54742 9.105471,-1.55211 1.589644,-0.001 4.23433,-0.14069 5.868054,-0.32826 1.636522,-0.18759 5.378967,-0.49705 8.320955,-0.69868 6.718683,-0.46891 13.268063,-0.97067 17.946943,-1.40675 1.9929,-0.18759 6.10861,-0.50176 9.14579,-0.69402 10.58162,-0.67523 15.21501,-0.9894 19.8437,-1.33171 2.56031,-0.18758 6.67787,-0.49237 9.14534,-0.67525 11.20059,-0.8206 14.70905,-1.10665 17.67401,-1.42082 1.74908,-0.18759 4.18745,-0.32826 5.4207,-0.32826 1.23325,0 3.42312,-0.18758 4.85987,-0.37513 1.35518,-0.18759 2.48528,-0.28134 2.71974,-0.18759 z M 35.881443,43.152781 a 85.916832,85.916832 0 0 0 -7.117719,9.124684 85.916832,85.916832 0 0 1 7.117719,-9.124684 z m 33.814669,4.459415 c -1.223869,0 -1.406747,0.0469 -2.88384,0.820615 -0.867511,0.46891 -1.711556,0.937838 -1.870986,1.078509 -0.14069,0.14069 -0.586151,0.468929 -0.937838,0.689305 -0.558013,0.375135 -2.10545,1.847538 -2.832274,2.691602 -0.140671,0.140689 -0.375135,0.604909 -0.487676,0.994113 -0.140671,0.422013 -0.618973,1.06913 -1.233256,1.659971 -1.495851,1.444265 -1.889743,2.611877 -1.96477,5.869453 -0.04221,1.847538 -0.140671,2.658774 -0.328245,3.104235 -0.140671,0.328257 -0.328242,0.994114 -0.375135,1.467732 -0.0469,0.473599 -0.234458,1.120716 -0.375135,1.434885 -0.140671,0.328239 -0.281349,1.092578 -0.328242,1.725626 -0.0469,0.633029 -0.234459,1.425506 -0.375135,1.758434 -0.234459,0.497067 -0.281352,1.599024 -0.328243,6.305081 -0.03892,3.3387 0.0066,6.199583 0.09378,6.902484 0.09379,0.661186 0.281351,1.842867 0.375135,2.625946 0.187567,1.35987 0.187567,1.467713 -0.187568,2.278949 -0.328244,0.708064 -0.375135,1.022252 -0.281351,1.861607 0.0469,0.558013 0.234458,1.237958 0.375135,1.5193 0.140671,0.28136 0.281351,0.633047 0.281351,0.783098 4.69e-4,0.140689 0.140671,0.478288 0.328243,0.717442 0.187567,0.234465 0.328242,0.529875 0.328242,0.637738 0,0.09379 0.187568,0.628339 0.468919,1.148835 0.422028,0.905029 0.422028,0.980045 0.187568,1.716246 -0.140671,0.422032 -0.187568,0.764339 -0.140671,0.764339 0.09379,0 0.328242,0.14069 0.539256,0.328239 0.63304,0.539273 1.622459,1.162923 2.067931,1.298904 0.234461,0.0469 0.543946,0.281356 0.712757,0.468926 0.187568,0.18759 0.468919,0.32824 0.623663,0.32824 0.187567,0 0.511122,0.14069 0.754965,0.32824 0.234465,0.18759 0.553324,0.32826 0.689305,0.32826 0.14069,0 0.468929,0.14069 0.689324,0.32824 0.234445,0.18758 0.511116,0.32823 0.604891,0.32823 0.09379,0 0.375135,0.18759 0.637737,0.37514 0.281342,0.18759 0.829976,0.42203 1.275456,0.5205 0.422032,0.0938 0.881562,0.23446 0.980045,0.37513 0.09379,0.14069 0.520496,0.28136 0.947217,0.37514 0.422032,0.0938 1.045681,0.28136 1.37861,0.46892 0.628358,0.32824 2.41962,0.46891 2.41962,0.18759 0,-0.14069 0.543963,-0.70806 1.622472,-1.6459 0.492357,-0.42203 1.195731,-0.5627 1.613073,-0.28136 0.375135,0.23446 1.05039,1.76314 1.167613,2.63063 0.09379,0.66588 0.187586,0.84876 0.487668,0.9097 0.187586,0.0422 0.9097,0.0469 1.566196,0.0469 1.116026,-0.0212 1.20044,-0.0469 1.317663,-0.46891 0.187586,-0.73153 0.661167,-4.95132 0.839355,-7.868004 0.09379,-1.52866 0.234464,-2.968254 0.328257,-3.2027 0.09379,-0.234464 0.234446,-1.627161 0.375135,-3.090185 0.09379,-1.463023 0.281342,-2.940115 0.375136,-3.277733 0.09379,-0.328258 0.234445,-1.777212 0.328238,-3.193339 0.09379,-1.416146 0.234464,-2.771326 0.281342,-3.010461 0.09379,-0.375135 -0.01891,-0.492377 -0.839355,-0.90501 -0.928459,-0.468929 -1.889745,-0.60022 -2.339915,-0.328258 -0.140689,0.09379 -0.506426,-0.01702 -1.036302,-0.328238 -0.792477,-0.487668 -0.815925,-0.492358 -3.906091,-0.520496 l -3.104254,-0.03007 -0.14069,1.35987 c -0.187587,1.561487 -0.187587,2.030416 -0.01513,3.348079 0.09379,0.829975 0.09379,0.989405 -0.234464,1.275456 -0.187587,0.187586 -0.375136,0.539254 -0.375136,0.820596 0,0.422032 0.09379,0.492377 0.422032,0.492377 0.281342,0 0.548634,-0.187587 0.773719,-0.497048 0.482978,-0.675255 1.158233,-0.792477 1.50992,-0.281361 0.187586,0.328239 0.281342,1.008183 0.281342,3.296493 0.01324,2.583758 -0.0225,2.977633 -0.328239,3.671646 -0.187586,0.422013 -0.422031,1.022233 -0.473618,1.327042 -0.0469,0.281342 -0.234445,0.642408 -0.375135,0.75496 -0.14069,0.09379 -0.234445,0.328239 -0.234445,0.422013 0,0.14069 -0.187587,0.422032 -0.375135,0.679945 -0.801857,0.947217 -1.467713,1.641211 -1.575576,1.641211 -0.0469,0 -0.281342,0.14069 -0.468909,0.328239 -0.187587,0.187586 -0.576772,0.328238 -0.928459,0.328238 -0.468928,0 -0.675255,-0.14069 -1.04101,-0.600201 -0.234465,-0.328257 -0.567393,-0.905029 -0.693995,-1.275475 -0.234464,-0.628339 -0.797167,-1.603694 -1.364559,-2.316447 -0.14069,-0.187587 -0.511117,-0.375135 -0.829976,-0.422032 -0.328257,-0.0469 -0.736201,-0.187586 -0.923769,-0.328238 -0.328257,-0.234465 -0.328257,-0.281361 0.09379,-0.651807 0.328239,-0.281342 0.60022,-0.375135 0.895631,-0.328238 0.375135,0.09379 0.468929,0.01135 0.553324,-0.543944 0.0469,-0.328239 0.09379,-2.855721 0.0295,-5.582949 -0.0469,-3.826368 -0.14069,-5.170296 -0.375135,-5.90368 -0.328257,-1.073838 -0.234464,-1.720936 0.234445,-2.166416 0.281361,-0.234464 0.328258,-0.539255 0.328258,-1.613074 0.0038,-0.722132 0.14069,-1.777212 0.234445,-2.344604 0.328258,-1.434886 0.328258,-2.199225 -0.09379,-2.719721 -0.422032,-0.553323 -0.478308,-2.100761 -0.09379,-2.677532 0.14069,-0.234446 0.375135,-1.21918 0.525185,-2.302379 0.14069,-1.05039 0.328258,-2.039814 0.375135,-2.194554 0.09379,-0.14069 0.187587,-1.134785 0.281361,-2.175776 0.0469,-1.040992 0.234464,-2.128899 0.328239,-2.414931 0.14069,-0.281361 0.281361,-0.825305 0.328238,-1.20044 0.187587,-0.9097 1.289544,-3.010461 1.767833,-3.32932 0.234464,-0.14069 0.572082,-0.234464 0.881562,-0.14069 0.375135,0.09379 0.618979,0.0095 0.937838,-0.234464 0.234464,-0.187587 0.628358,-0.375135 0.853443,-0.375135 0.468909,0 1.242628,0.74558 1.434885,1.378628 0.09379,0.234445 0.234464,0.567393 0.375135,0.731512 0.281361,0.281342 0.511117,0.693994 0.928459,1.472403 0.187586,0.328238 0.187586,0.895631 0.0095,2.677532 -0.09379,1.252008 -0.234464,3.071408 -0.234464,4.042073 -0.0469,2.072623 -0.02666,2.105451 1.786591,2.527464 0.815926,0.187586 1.312973,0.234464 1.847538,0.09379 0.820615,-0.187587 1.369249,-0.09379 2.325846,0.422032 0.825286,0.422013 1.373919,0.234445 1.791262,-0.651807 0.140689,-0.328238 0.375135,-0.604909 0.422031,-0.604909 0.234465,0 0.187587,-5.317529 -0.0469,-5.748468 -0.09379,-0.187586 -0.234464,-1.036302 -0.281342,-1.842848 -0.234464,-5.723166 -0.14069,-5.284247 -1.383318,-6.887961 -0.234464,-0.281342 -0.375135,-0.581442 -0.375135,-0.679925 0,-0.09379 -0.14069,-0.281342 -0.328239,-0.375135 C 79.379671,51.230306 79.239,51.042754 79.239,50.902064 c 0,-0.14069 -0.14069,-0.281342 -0.328239,-0.328239 -0.187587,-0.0469 -0.375135,-0.234464 -0.422032,-0.328238 -0.0469,-0.14069 -0.328238,-0.375135 -0.665856,-0.506427 -0.328239,-0.14069 -0.684615,-0.328258 -0.825305,-0.422032 -0.375135,-0.234464 -3.066718,-1.012872 -4.051453,-1.148854 -0.473599,-0.0469 -1.111336,-0.234464 -1.416126,-0.375135 -0.328258,-0.14069 -1.148854,-0.234464 -1.866297,-0.234464 z m 32.080628,2.016347 c -0.28136,-0.0038 -0.52988,0.01324 -0.75965,0.0469 -0.42203,0.09379 -1.087896,0.14069 -1.467721,0.187587 -0.375135,0.0076 -1.003493,0.14069 -1.383318,0.281361 -1.613073,0.595511 -6.294302,0.642408 -6.652551,0.0469 -0.187586,-0.328238 -0.848734,0.01324 -1.294214,0.722152 -0.506427,0.801837 -0.543944,1.097267 -0.75965,5.505569 -0.09379,1.852228 -0.234464,3.596612 -0.328238,3.882643 -0.09379,0.281361 -0.234465,1.753764 -0.375136,3.258994 -0.09379,1.509921 -0.28136,2.930737 -0.375135,3.155822 -0.09379,0.234464 -0.234464,1.477092 -0.328238,2.780686 -0.09379,1.298904 -0.281361,2.86979 -0.422032,3.48406 -0.14069,0.618979 -0.328239,2.288328 -0.422032,3.713835 -0.09379,1.425525 -0.234464,2.813513 -0.375135,3.090185 -0.09379,0.281342 -0.281342,1.552127 -0.375135,2.846341 -0.09379,1.289525 -0.281342,2.73379 -0.422032,3.207408 -0.14069,0.473599 -0.281342,1.824089 -0.375135,3.005752 -0.0469,1.176992 -0.234446,2.550931 -0.375136,3.047978 -0.140689,0.497067 -0.281341,1.744384 -0.328238,2.775997 -0.0469,1.031631 -0.281342,2.635325 -0.422013,3.568474 -0.187586,0.956596 -0.328257,2.443073 -0.328257,3.413733 0,2.04449 -0.09379,1.96476 2.203914,1.96476 1.706867,0 1.927262,-0.0938 1.931952,-0.89563 0.0014,-0.18758 0.14069,-0.46891 0.281361,-0.52987 0.14069,-0.0938 0.375135,-0.42203 0.562702,-0.74089 0.234446,-0.42204 0.562703,-0.72214 1.266077,-1.05506 1.078509,-0.515832 1.599005,-1.181688 1.795952,-2.297714 0.0469,-0.375136 0.234464,-0.853424 0.328238,-1.050371 0.14069,-0.187587 0.281361,-1.261406 0.328258,-2.536862 0.14069,-2.780686 0.187586,-2.822893 2.597808,-3.090166 0.961286,-0.09379 1.988209,-0.328258 2.349275,-0.511135 0.783098,-0.375136 1.744384,-0.422013 2.11014,-0.0469 0.187589,0.187586 0.281349,0.572082 0.281349,1.040992 0,0.422031 0.14069,1.05037 0.28136,1.388007 0.37513,0.91439 0.32824,1.200421 -0.32824,1.599005 -0.853448,0.525185 -0.905015,0.839374 -0.234469,1.411456 0.328249,0.281342 0.637739,0.487668 0.726829,0.492358 0.0938,0.0038 0.37513,0.234464 0.64712,0.468909 0.42201,0.422032 0.48297,0.572082 0.48297,1.688109 0,0.675254 0.0938,1.650612 0.23447,2.166422 0.14069,0.52049 0.32824,1.599 0.37513,2.40086 0.0938,1.24732 0.18759,1.51461 0.53926,1.85223 0.23446,0.23446 0.50642,0.32824 0.60491,0.28136 0.0938,-0.0469 1.91317,-0.18759 4.028,-0.32826 2.11483,-0.0938 3.9014,-0.23444 3.96237,-0.32824 0.18759,-0.18758 -0.46893,-5.31895 -0.72682,-5.839918 -0.14069,-0.234464 -0.28136,-1.083199 -0.42203,-1.856917 -0.0938,-0.773719 -0.28135,-1.566196 -0.37514,-1.753764 -0.0938,-0.187586 -0.28134,-1.256697 -0.37513,-2.368034 -0.0938,-1.116026 -0.23447,-2.41024 -0.32824,-2.888529 -0.0938,-0.473618 -0.23447,-1.589645 -0.37514,-2.475896 -0.23446,-1.946021 -0.64243,-2.790066 -1.36456,-2.790066 -0.28134,0 -0.57208,0.09379 -0.67992,0.234445 -0.0938,0.14069 -0.47831,0.281361 -0.82062,0.375136 -0.32824,0.0469 -0.90032,0.281361 -1.24263,0.468928 -0.32824,0.187587 -0.74089,0.328239 -0.88625,0.328239 -0.14069,0 -0.61429,0.187586 -1.0457,0.422031 -0.87687,0.46891 -1.87567,0.693995 -2.1664,0.492358 -0.42203,-0.281342 -0.92846,-1.37392 -0.92846,-2.030416 -0.0038,-0.867493 -0.09379,-1.017543 -0.881581,-1.294214 -0.482979,-0.187587 -0.75027,-0.187587 -1.191042,-0.02383 -0.778408,0.281361 -2.161726,0.234465 -2.724429,-0.04463 -0.787769,-0.422032 -1.289525,-1.083217 -1.411437,-1.899124 -0.14069,-0.890942 0.09379,-4.820028 0.328238,-5.863364 0.09379,-0.375135 0.281361,-2.049175 0.422032,-3.685697 0.14069,-1.636541 0.328239,-3.151132 0.422032,-3.371527 0.09379,-0.234464 0.187586,-1.519299 0.281342,-2.893238 0.234464,-4.736067 0.511116,-6.481397 1.181681,-7.039883 0.422032,-0.328239 0.618979,0.14069 0.820597,1.716246 0.09379,0.797167 0.281361,1.641212 0.375135,1.880366 0.09379,0.234464 0.281361,1.439575 0.422032,2.672843 0.14069,1.233249 0.328238,2.672843 0.422032,3.193338 0.09379,0.520496 0.234464,1.997589 0.328238,3.277734 0.09379,1.280146 0.281361,2.87448 0.422032,3.535646 0.14069,0.665876 0.281342,1.983539 0.375135,2.935446 0.14069,2.12419 0.422032,3.648179 0.698693,3.882643 0.14069,0.14069 1.21451,0.14069 3.39966,0.01513 2.73379,-0.14069 3.28711,-0.234445 3.90609,-0.539255 0.37514,-0.187586 0.75027,-0.422012 0.79248,-0.492357 0.18759,-0.281361 -0.23446,-7.068948 -0.483,-7.885346 -0.14069,-0.482979 -0.32824,-1.491162 -0.37513,-2.246122 -0.0938,-0.75027 -0.23445,-1.523989 -0.32824,-1.711556 -0.14069,-0.187587 -0.28134,-0.848735 -0.32824,-1.467714 -0.0469,-0.618959 -0.23446,-1.336421 -0.37513,-1.599004 -0.14069,-0.281361 -0.32824,-1.158233 -0.42204,-1.98352 -0.0938,-0.829994 -0.28134,-1.814729 -0.46891,-2.194554 -0.23446,-0.548633 -0.28136,-1.678729 -0.37513,-5.521983 l -0.0938,-4.831279 -0.46891,-0.689304 c -0.23447,-0.375136 -0.59553,-0.815926 -0.77372,-0.970666 -0.37514,-0.328239 -1.2567,-0.534565 -2.06794,-0.548634 z m 46.09097,2.208623 -2.41493,0.0469 c -1.32705,0.03706 -3.96706,0.09379 -5.86666,0.187586 l -3.45123,0.09379 -0.0431,0.689305 c -0.0234,0.375135 -0.14069,1.116026 -0.28136,1.641212 -0.14069,0.520514 -0.32824,2.006986 -0.42203,3.296511 -0.0938,1.289525 -0.23444,2.56967 -0.37513,2.846342 -0.0938,0.281341 -0.28135,1.275455 -0.37514,2.222673 -0.0938,0.947217 -0.28134,1.880365 -0.37513,2.072622 -0.14069,0.187587 -0.28135,0.848735 -0.32824,1.463024 -0.0469,0.61427 -0.23447,1.312973 -0.37514,1.552108 -0.28134,0.492377 -0.85811,2.541551 -1.12071,3.976437 -0.0938,0.520496 -0.37514,1.552127 -0.61429,2.283638 -0.37514,1.167613 -0.49236,1.336422 -0.85343,1.336422 -0.50173,0 -0.85811,-0.515806 -1.0832,-1.552127 -0.0938,-0.422032 -0.32823,-1.477093 -0.54394,-2.330517 -0.18759,-0.853443 -0.42203,-2.293018 -0.46893,-3.193338 -0.046,-0.90034 -0.18758,-2.105451 -0.32824,-2.672843 -0.14069,-0.567393 -0.28136,-2.016347 -0.32824,-3.216787 -0.0469,-1.200421 -0.18758,-2.597809 -0.28136,-3.104235 -0.0938,-0.511136 -0.28134,-1.683419 -0.42203,-2.607188 -0.28134,-1.720936 -0.56739,-2.41962 -1.19104,-2.747877 -0.69399,-0.375136 -2.35867,-0.609581 -3.26837,-0.46891 -0.48767,0.09379 -2.09606,0.14069 -3.56848,0.14069 -2.14764,0.0095 -2.97294,0.09379 -4.13117,0.375135 l -1.44896,0.375135 0.0938,3.892023 c 0.0469,2.142968 0.23444,4.670431 0.37513,5.619067 0.14069,0.947217 0.32824,3.666938 0.42201,6.039207 0.0938,2.372724 0.23447,4.661052 0.32826,5.089646 0.0938,0.422012 0.18759,1.645901 0.28134,2.710341 0.0938,1.786572 0.0938,1.978829 -0.23446,2.522792 -0.46891,0.75496 -0.46891,0.956578 0.0469,1.66935 0.53926,0.731512 0.55333,1.52397 0.0437,2.171087 -0.37514,0.478289 -0.37514,0.623668 -0.42202,5.019773 -0.0469,4.370331 -0.0374,4.553209 0.32824,5.353174 0.46891,0.975355 0.48298,2.485275 0.0938,4.53914 -0.23445,1.256696 -0.18759,3.727906 0.14069,5.305826 l 0.0938,0.5627 h 2.49934 c 2.23675,0 2.54623,-0.0352 2.94012,-0.32826 0.23446,-0.18758 0.53456,-0.32824 0.6565,-0.32824 0.48766,0 0.55801,-12.444167 0.0938,-13.492666 -0.14069,-0.328238 -0.18759,-0.647097 -0.0272,-1.200421 0.14069,-0.487687 0.14069,-0.806546 0.0151,-0.942527 -0.28136,-0.328258 0.14069,-13.073002 0.42203,-14.366271 0.18758,-0.764339 0.81121,-1.941331 1.08789,-2.049174 0.50173,-0.187587 0.67523,0.422031 0.79247,2.897908 0.0938,1.584955 0.18759,2.56031 0.37514,2.808825 0.14069,0.187586 0.28134,0.567392 0.37513,0.801856 0.0469,0.234464 0.23445,0.515806 0.32824,0.633048 0.14069,0.14069 0.23447,1.383299 0.32824,3.901402 0.0938,2.625946 0.18759,3.910781 0.37514,4.440657 0.14069,0.422031 0.32823,1.298904 0.37513,1.96945 0.0469,0.675255 0.23447,1.561506 0.42203,1.964779 0.46891,1.06444 0.55802,1.791262 0.37514,2.536843 -0.18759,0.633048 -0.0276,1.880366 0.32824,2.766636 0.32824,0.792459 0.37513,1.139456 0.52049,3.380885 0.0938,1.4818 0.23447,2.53217 0.42203,2.84634 0.14069,0.28136 0.28135,0.64243 0.28135,0.81124 9.4e-4,0.18759 0.0938,0.32824 0.23446,0.37514 0.14069,0.0408 1.24734,0.0197 2.50872,-0.0469 l 2.29302,-0.14069 0.0409,-1.46771 c 0.0263,-0.91908 0.14069,-1.6928 0.32824,-2.07263 0.14069,-0.32824 0.32823,-0.876869 0.42203,-1.209817 0.0469,-0.328238 0.23446,-0.764339 0.32824,-0.965976 0.23446,-0.422012 0.60022,-2.597808 0.60022,-3.802919 0,-1.491161 -0.42204,-1.683418 -2.46183,-1.191061 -0.97536,0.234465 -1.00818,0.234465 -1.50992,-0.187586 -0.28134,-0.234464 -0.51112,-0.534565 -0.51112,-0.656477 0,-0.328258 1.16293,-1.294215 1.55213,-1.294215 0.18759,0 0.42201,-0.14069 0.51581,-0.328257 0.18758,-0.375135 1.15823,-0.478289 1.72562,-0.187587 0.28134,0.14069 0.42201,0.0469 0.76434,-0.375135 0.23445,-0.281342 0.46891,-0.581442 0.46891,-0.647098 0,-0.0469 0.0938,-0.661185 0.23446,-1.322352 0.14069,-0.665857 0.37514,-2.836962 0.51112,-4.831279 0.14069,-1.992899 0.32824,-3.896713 0.42203,-4.229641 0.0938,-0.328238 0.28135,-1.369249 0.37514,-2.302397 0.0938,-0.933148 0.28134,-1.97414 0.42203,-2.307068 0.14069,-0.328258 0.23445,-0.89565 0.23445,-1.247337 0,-0.801838 0.32823,-2.625946 0.5158,-2.855702 0.0938,-0.09379 0.23447,-0.637737 0.32826,-1.209819 0.18759,-1.031613 0.54863,-1.706867 1.09727,-2.053865 0.79716,-0.506426 1.02223,1.327043 0.50173,4.126487 -0.51111,2.743169 -0.69868,6.473418 -0.57208,11.470688 0.0234,0.900321 0.0248,1.913193 0.006,2.246121 -0.017,0.328239 0.0263,4.450036 0.0938,9.145807 l 0.14069,8.541355 0.42203,0.64709 c 0.37513,0.60491 0.46891,0.64712 1.27077,0.64712 0.97535,0 1.46302,-0.37514 1.65528,-1.27546 0.0469,-0.28136 0.28136,-0.86282 0.42203,-1.2614 0.18758,-0.37514 0.32824,-0.88625 0.32824,-1.08789 0,-0.18759 0.14069,-0.6893 0.32824,-1.087888 0.18758,-0.375136 0.46892,-1.735005 0.61897,-2.968254 0.32824,-2.607188 0.32824,-2.358655 0.18759,-3.413734 -0.14069,-0.844045 0.0323,-1.439575 0.77841,-2.88853 0.18759,-0.328257 0.42203,-1.176992 0.51112,-1.880365 0.0938,-0.703374 0.23446,-1.35987 0.32825,-1.458334 0.0469,-0.09379 0.14069,-2.443068 0.23445,-5.203124 0.0938,-4.736559 0.14069,-5.052147 0.47362,-5.618594 0.37513,-0.60022 0.42201,-0.881562 0.55332,-5.453529 0.008,-0.187586 0.14069,-0.511116 0.32824,-0.679925 0.23446,-0.234465 0.28136,-0.60491 0.28136,-1.889745 -0.004,-1.06444 -0.0938,-1.678729 -0.23447,-1.866297 -0.18758,-0.234464 -0.18758,-0.375135 0.004,-0.839374 0.32824,-0.797148 0.28134,-7.594133 -0.0446,-8.006313 -0.14069,-0.187586 -0.28134,-1.172302 -0.42203,-2.977633 z M 27.995635,53.529964 a 85.916832,85.916832 0 0 0 -5.486351,9.671918 85.916832,85.916832 0 0 1 5.486351,-9.671918 z M 21.73979,65.060199 a 85.916832,85.916832 0 0 0 -3.831069,9.891368 85.916832,85.916832 0 0 1 3.831069,-9.891368 z m 144.3698,9.422931 c -0.0938,0.0019 -0.23447,0.09379 -0.42204,0.187587 -0.23444,0.14069 -0.69868,0.586151 -0.98002,0.942527 -0.72215,0.9097 -2.23676,1.899106 -3.54036,2.307068 -0.49705,0.14069 -0.95189,1.003494 -1.51928,2.827583 -0.18758,0.642427 -0.32826,0.787788 -0.70808,0.829995 -0.42201,0.0469 -1.37392,-0.534565 -2.5556,-1.575575 -0.14069,-0.14069 -0.6471,-0.46891 -1.12072,-0.731512 -0.75496,-0.422032 -1.03161,-0.506427 -2.20391,-0.506427 -1.0035,-4.73e-4 -1.38801,0.0469 -1.5193,0.281342 -0.18759,0.281361 -0.0938,1.880366 0.18759,3.451251 0.0938,0.520496 0.14068,1.997588 0.0938,3.277734 -0.0938,2.330535 -0.54395,8.255792 -0.7362,9.232073 -0.50174,2.579069 -0.61427,5.832884 -0.23445,6.875764 0.18759,0.51112 0.18759,0.71275 0.0221,0.98005 -0.37514,0.59084 -0.23447,0.82997 0.42203,0.9097 0.37513,0.0399 0.88156,0.0469 1.16292,0.0193 0.28134,-0.0301 3.58721,-0.0938 7.33388,-0.14069 3.74666,-0.0469 8.05791,-0.18758 9.57674,-0.28134 3.11831,-0.18759 3.4653,-0.32824 3.28711,-1.28483 -0.0469,-0.28136 0.0248,-1.13948 0.18759,-1.88037 0.14069,-0.736201 0.23447,-1.402076 0.14069,-1.472402 -0.54863,-0.492377 -1.54742,-0.59553 -6.41669,-0.689324 -5.06103,-0.09379 -5.0629,-0.09379 -5.39256,-0.501737 -0.23446,-0.281361 -0.32824,-0.684615 -0.32824,-1.209819 -0.004,-0.422013 -0.0938,-1.772504 -0.23446,-2.958875 -0.14069,-1.523989 -0.18759,-2.715031 -0.0938,-4.056142 0.0938,-1.045681 0.18759,-3.141752 0.18759,-4.661052 0.0469,-3.146442 0.18759,-3.535646 1.0363,-3.535646 0.32824,0 0.6565,0.09379 0.76903,0.187587 0.28136,0.281341 1.42551,0.187586 1.71625,-0.09379 0.18758,-0.187586 0.67992,-0.187586 2.48996,0.02534 2.14764,0.234464 2.28831,0.234464 2.50402,-0.09379 0.28136,-0.375135 0.18758,-1.069129 -0.37514,-2.771307 -0.23446,-0.679944 -0.42203,-1.35049 -0.42203,-1.491161 0,-0.14069 -0.0938,-0.281361 -0.23444,-0.375135 -0.14069,-0.0469 -0.28137,-0.234464 -0.28137,-0.328258 0,-0.140689 -0.42203,-0.60489 -0.89563,-1.036302 -0.55801,-0.487668 -0.76903,-0.675235 -0.96597,-0.670546 z M 33.586085,75.177125 c -0.797161,0 -1.012865,0.09379 -1.284837,0.501737 -0.23446,0.328257 -0.23446,0.328257 -0.328244,3.301201 -0.187568,5.58951 -0.187568,7.900341 -0.04313,8.665607 0.09379,0.422032 0.14067,1.448974 0.187567,2.504034 0.0469,2.147639 0.187568,4.962571 0.281351,5.407105 0.04501,0.281342 0.09378,0.328239 0.375134,0.422032 0.422028,0.14069 1.233256,0.14069 1.5615,0.0038 0.281352,-0.09379 0.281352,-0.09379 0.09378,-0.281361 -0.234461,-0.281341 -0.328244,-0.478288 -0.422028,-0.914389 -0.09378,-0.506427 0.0469,-0.829976 0.473608,-1.21449 0.187568,-0.187587 0.375136,-0.422032 0.422028,-0.515825 0.04408,-0.09379 0.09378,-2.152329 0.140671,-4.525052 0.0469,-3.882662 0.09377,-4.346882 0.234461,-4.670431 0.234458,-0.553343 0.815918,-0.792478 1.411445,-0.586151 0.187567,0.0469 0.375135,0.14069 0.422026,0.14069 0.140671,0.0019 0.328244,-0.60491 0.328244,-0.947218 0,-0.375135 0.09377,-0.628358 0.375135,-0.928458 0.187568,-0.234465 0.187568,-0.234465 -0.375135,-0.328239 -0.281351,-0.04028 -0.375135,-0.0095 -0.623663,0.234445 -0.468919,0.468929 -1.26139,0.618979 -1.556809,0.281361 -0.140671,-0.187586 -0.140671,-0.328238 -0.140671,-2.396171 0.0089,-1.21451 0.0469,-2.461827 0.09377,-2.771307 0.0469,-0.520515 0.0469,-0.581462 -0.140671,-0.844064 -0.281351,-0.375135 -0.684622,-0.534565 -1.43958,-0.534565 z m -8.877102,2.039795 c -0.553325,0.0076 -0.614283,0.0295 -0.797163,0.234464 -0.09377,0.14069 -0.281351,0.375135 -0.422026,0.520496 -0.187567,0.234464 -0.234458,0.328238 -0.234458,1.294214 0.0023,0.562703 0.0469,1.411456 0.09379,1.885056 0.09377,0.717442 0.09377,0.942527 -0.01362,1.35049 -0.187568,0.726822 -0.281352,0.825286 -1.33173,1.055061 -0.234459,0.0469 -0.234459,0.09379 -0.234459,0.422031 0,0.234465 0.0469,0.422032 0.234459,0.6096 0.140671,0.14069 0.23446,0.281342 0.23446,0.375135 0,0.187586 0.375135,0.46891 0.759648,0.506427 0.187568,0.02572 0.468919,0.09379 0.539256,0.187586 0.328245,0.328239 0.375136,0.628358 0.375136,6.507663 0.0066,3.108925 0.04595,5.72831 0.09377,5.823502 0.0469,0.14069 0.797163,0.905011 0.87219,0.905011 0.01135,0 0.140671,-0.09379 0.281352,-0.281361 0.234458,-0.234464 0.328242,-0.281342 0.797161,-0.281342 0.506432,0 0.553323,0.01967 0.80654,0.281342 0.281352,0.281361 0.52519,0.375135 0.970662,0.234464 l 0.187568,-0.0469 -0.187568,-0.328238 c -0.281351,-0.375135 -0.234458,-0.473599 0.0014,-0.773719 l 0.187568,-0.234464 0.375135,0.187586 c 0.422026,0.234465 0.712757,0.187587 0.942526,-0.140689 0.140671,-0.187587 0.09377,-0.234465 -0.02392,-0.46891 -0.09378,-0.14069 -0.234461,-0.482997 -0.328245,-0.745581 -0.187567,-0.637737 -0.187567,-0.642427 -0.422026,-0.468928 -0.328244,0.281361 -0.529879,0.375135 -0.834676,0.281361 -0.328243,-0.09379 -0.651797,-0.375135 -0.825296,-0.708083 -0.187568,-0.328238 -0.328244,-1.753744 -0.281351,-3.305871 0.007,-0.75965 -0.0089,-2.522774 -0.03704,-3.924851 -0.03892,-1.96945 -0.02672,-2.57436 0.0469,-2.682222 0.187567,-0.281342 0.501743,-0.328238 1.355176,-0.375135 l 0.858121,-0.0469 0.0469,-0.375135 c 0.09379,-0.609599 0.09379,-1.491161 -0.04033,-1.767832 -0.09379,-0.234465 -0.140671,-0.234465 -0.234459,-0.14069 -0.375135,0.328238 -1.148851,0.506426 -1.481783,0.328238 -0.09378,-0.0469 -0.281352,-0.281342 -0.375136,-0.468909 -0.187567,-0.375135 -0.187567,-0.422032 -0.187567,-2.738498 0,-1.303594 -0.02861,-2.414931 -0.0469,-2.471188 -0.09377,-0.14069 -1.087892,-0.328257 -1.744378,-0.328257 z m -7.51583,0.703374 a 85.916832,85.916832 0 0 0 -2.128892,9.388704 85.916832,85.916832 0 0 1 2.128892,-9.388704 z m 22.278801,3.235545 c -0.234458,-0.01891 -0.375135,0.281342 -0.422026,0.834685 -0.0014,0.281341 -0.140671,0.76432 -0.328244,1.116026 -0.234459,0.422013 -0.328243,0.980026 -0.328243,1.683418 -0.0019,0.572064 -0.140671,1.580246 -0.281351,2.246122 -0.422026,1.931933 -0.23446,7.262604 0.281351,8.207477 0.09377,0.234464 0.375136,0.234464 1.233257,0.187586 0.600216,-0.04122 1.181676,-0.14069 1.298904,-0.234464 0.140671,-0.14069 0.187568,-1.66935 0.187568,-6.234736 l -0.0361,-6.067819 -0.553324,-0.797148 C 40.10172,81.487387 39.745342,81.173199 39.496814,81.154459 Z m 8.398806,0.665857 c -1.045689,-0.0014 -1.650595,0.14069 -1.870987,0.375135 -0.140671,0.14069 -0.375135,0.281361 -0.74558,0.422032 -0.468919,0.14069 -0.614284,0.234464 -0.872189,0.567392 -0.473608,0.586151 -0.572082,0.876872 -0.661176,1.927262 -0.09377,1.308284 -0.234459,2.11014 -0.422026,2.489946 -0.187568,0.422032 -0.187568,0.989425 0.01551,1.603714 0.09377,0.281342 0.234459,0.862803 0.281351,1.312973 0.187568,1.641211 0.328243,2.424309 0.468919,2.583739 0.09378,0.09379 0.234459,0.422032 0.328243,0.708063 0.09379,0.375136 0.281351,0.628359 0.468919,0.811236 0.140671,0.14069 0.281351,0.328239 0.328242,0.375136 0.02016,0.0469 0.281351,0.187586 0.553325,0.281342 0.422027,0.140689 0.825298,0.187586 2.157026,0.234464 0.900324,0.03234 1.950703,0.0469 2.330528,0.09379 l 0.694,0.01513 0.281351,-0.497048 c 0.140671,-0.28136 0.328242,-0.553323 0.375135,-0.623668 0.0469,-0.09379 0.140671,-0.328238 0.187568,-0.562703 0.09377,-0.328238 0.09377,-0.511116 -0.01305,-0.811217 -0.09377,-0.328257 -0.140671,-0.375135 -0.497053,-0.497066 -0.187568,-0.0469 -0.567393,-0.09379 -0.792474,-0.09379 -0.422026,-9.46e-4 -0.422026,0.0057 -0.581459,0.375135 -0.09378,0.187586 -0.234459,0.422013 -0.328243,0.529875 -0.09377,0.09379 -0.23446,0.328238 -0.281351,0.511116 -0.140671,0.595531 -0.23446,0.745581 -0.553323,0.876873 -0.187568,0.0469 -0.478299,0.14069 -0.694001,0.14069 -0.328244,0 -0.422028,-0.0469 -0.642419,-0.234465 -0.234459,-0.234464 -0.234459,-0.328238 -0.281351,-1.012872 -0.02954,-0.422013 -0.140671,-1.003474 -0.234459,-1.289525 -0.09377,-0.281342 -0.187568,-0.829976 -0.23446,-1.209801 -0.04268,-0.656496 -0.0347,-0.698703 0.187567,-0.895631 0.187568,-0.187586 0.328244,-0.234464 1.031622,-0.28136 1.008175,-0.0469 1.134783,-0.14069 1.059756,-0.703374 -0.04313,-0.328239 -0.02016,-0.422032 0.140671,-0.628358 0.09379,-0.14069 0.234458,-0.234464 0.281351,-0.234464 0.140671,0 0.497053,0.328257 0.497053,0.478307 0,0.0469 0.234461,0.281342 0.487676,0.506427 0.422026,0.375135 0.51581,0.375135 0.797162,0.328239 0.375135,-0.0469 0.576771,-0.234446 0.764337,-0.590822 0.09377,-0.234464 0.140671,-0.534584 0.09377,-1.941331 -0.0469,-1.885055 -0.187567,-2.611878 -0.50643,-3.005771 -0.140671,-0.14069 -0.281352,-0.515807 -0.375135,-0.872183 -0.09378,-0.328258 -0.187568,-0.609599 -0.234461,-0.609599 -0.0469,0 -0.375135,-0.14069 -0.703377,-0.375136 -0.717447,-0.422031 -1.322353,-0.586151 -2.199231,-0.59084 z m -0.187568,2.030434 c 0.140671,-0.0095 0.187568,0.04179 0.375135,0.187587 0.187568,0.187586 0.281352,0.375135 0.328243,0.881562 0.0469,0.375135 0.187567,0.862803 0.328244,1.130095 0.09377,0.281342 0.187567,0.558013 0.187567,0.647098 -0.0023,0.234464 -0.328244,0.867512 -0.548635,1.111336 -0.187568,0.187587 -0.281352,0.234465 -0.759648,0.187587 -0.661176,-0.0076 -0.731514,-0.0346 -0.876878,-0.328239 -0.140671,-0.328238 -0.234461,-1.847538 -0.140671,-2.471206 0.140671,-0.919079 0.328244,-1.162904 0.965974,-1.341092 0.0469,-0.01513 0.09377,-0.02666 0.140671,-0.03007 z M 174.46806,105.8402 c 1.00818,0.008 1.72093,0.18759 1.94133,0.46891 0.14069,0.18759 0.37513,0.28136 0.79717,0.32826 0.37513,0.0469 0.70337,0.18758 0.88156,0.37511 0.14069,0.14069 0.42203,0.32826 0.55332,0.37514 0.14069,0.0469 0.46891,0.23446 0.68931,0.46893 0.23446,0.18758 0.53925,0.42203 0.6987,0.48766 0.14069,0.0938 0.32824,0.23447 0.37513,0.37514 0.0412,0.14069 0.18759,0.28136 0.37514,0.32826 0.14069,0.0469 0.32824,0.23444 0.42201,0.37513 0.0469,0.14069 0.28136,0.49236 0.48769,0.75027 0.18759,0.28134 0.37513,0.57208 0.37513,0.694 0,0.14069 0.14069,0.37513 0.32824,0.58615 0.23447,0.28134 0.32824,0.52987 0.32824,0.96128 0.024,0.51581 -0.0384,0.68931 -0.46891,1.3036 -0.28136,0.37513 -0.60491,0.78777 -0.74558,0.88156 -0.32826,0.18759 -1.89443,0.28134 -3.01046,0.18759 -0.63774,-0.0938 -0.90032,-0.18759 -1.15823,-0.42204 -0.18759,-0.18758 -0.49705,-0.32823 -0.694,-0.37513 -0.18758,-0.0465 -0.51113,-0.23446 -0.6987,-0.37514 -0.18759,-0.14069 -0.51112,-0.32823 -0.71744,-0.37513 -0.23445,-0.0469 -0.42202,-0.18759 -0.51112,-0.37514 -0.0938,-0.14069 -0.23446,-0.28134 -0.32824,-0.28134 -0.0938,0 -0.37513,-0.18758 -0.57677,-0.37513 -0.46893,-0.49238 -0.60491,-0.62836 -1.10196,-1.10196 -0.23446,-0.18759 -0.37513,-0.46893 -0.37513,-0.5627 0,-0.0938 -0.14069,-0.32826 -0.28136,-0.47362 -0.23447,-0.28134 -0.28134,-0.42203 -0.28134,-1.63652 0,-1.20513 0.0257,-1.35987 0.23444,-1.51461 0.14069,-0.0938 0.37514,-0.28134 0.54865,-0.46891 0.37514,-0.37514 1.07382,-0.56271 1.95069,-0.55803 z m -18.72955,1.52868 c 4.49693,-0.006 8.3219,0.0301 8.50149,0.0938 0.18758,0.0469 0.483,0.23447 0.67056,0.37514 0.18759,0.14069 0.49705,0.32824 0.68462,0.37513 0.18758,0.0469 0.37513,0.18759 0.46893,0.37514 0.0469,0.18758 0.18758,0.28136 0.32824,0.28136 0.0938,0 0.28134,0.14069 0.37513,0.32824 0.0938,0.18758 0.32824,0.37513 0.46891,0.46891 0.14069,0.0469 0.28136,0.23446 0.28136,0.37513 0.0225,0.14069 0.18759,0.32826 0.32824,0.42203 0.42203,0.18759 0.47362,0.5205 0.46893,2.22737 -0.004,1.48178 -0.14069,2.01165 -0.47831,2.01165 -0.0938,0 -0.32824,0.14069 -0.54863,0.32826 l -0.37514,0.32824 -4.72436,0.0938 c -3.63411,0.0938 -4.9063,0.14069 -5.51588,0.32826 -0.88158,0.23444 -0.75496,0.23444 -9.51717,0.48298 -3.45595,0.0938 -6.37403,0.23446 -6.48656,0.28136 -0.28137,0.14069 -1.11134,0.18759 -6.50954,0.37513 -4.12649,0.14069 -6.32008,0.23445 -12.3846,0.67055 -1.37394,0.0938 -4.20153,0.18759 -6.284,0.23446 -3.60128,0.0938 -4.59071,0.14069 -5.97824,0.42202 -0.32824,0.0469 -2.14764,0.18758 -4.02801,0.23446 -5.1989,0.18759 -9.060922,0.23447 -9.986582,0.14069 -0.689305,-0.0469 -0.881562,-0.14069 -1.097268,-0.37513 -0.140689,-0.18759 -0.468909,-0.37514 -0.670546,-0.47829 -0.234464,-0.0938 -0.487668,-0.28136 -0.59084,-0.46893 -0.09379,-0.14069 -0.234465,-0.28134 -0.328239,-0.28134 -0.14069,0 -1.312973,-1.16762 -1.312973,-1.33173 0,-0.0469 -0.14069,-0.23447 -0.281361,-0.32824 -0.422013,-0.28136 -0.558013,-0.78779 -0.558013,-2.14297 0,-1.28953 0.14069,-1.78188 0.468928,-1.89913 0.14069,-0.0412 0.422032,-0.28134 0.651788,-0.49235 0.637737,-0.60491 1.392697,-0.76903 4.135866,-0.89563 1.308284,-0.0469 3.559095,-0.18759 5.00291,-0.23447 1.44427,-0.0938 3.91547,-0.14069 5.49058,-0.18758 1.57555,-0.031 3.4184,-0.0938 4.08896,-0.18759 1.82878,-0.18759 4.45473,-0.32824 10.12818,-0.4736 4.78578,-0.14069 5.71237,-0.18759 7.93035,-0.48769 0.46891,-0.0469 2.96826,-0.18758 5.552,-0.23444 7.01456,-0.18759 7.65322,-0.23447 8.84756,-0.32826 3.54502,-0.37514 4.92694,-0.42201 12.81087,-0.42201 z m -84.315373,2.293 c 0.933149,-0.031 1.556817,0.0938 1.936642,0.42203 0.234464,0.18759 0.492358,0.37513 0.623668,0.46893 0.14069,0.0938 0.281342,0.28134 0.375135,0.48767 0.0469,0.18758 0.234446,0.42203 0.328239,0.5158 0.14069,0.0938 0.234464,0.32824 0.234464,0.54864 0.0014,0.58615 0.234445,1.34111 0.482979,1.50992 0.09379,0.0938 0.328238,0.42203 0.482997,0.73151 0.14069,0.32825 0.375135,0.77372 0.506427,1.01287 0.14069,0.23446 0.234464,0.59553 0.234464,0.80186 0,0.23444 0.14069,0.57675 0.375135,0.89563 0.281342,0.37513 0.422013,0.70806 0.422013,1.12071 0.04122,0.42204 0.14069,0.61427 0.281361,0.66586 0.328239,0.0938 0.525186,0.71744 0.46891,1.35518 -0.0469,0.46891 -0.14069,0.62836 -0.529876,0.94253 -0.609599,0.50642 -0.914389,0.55332 -3.605991,0.5627 -1.885036,0.006 -2.405551,0.0469 -3.047959,0.23446 -1.106647,0.32824 -1.82409,0.42202 -2.124209,0.23445 -0.14069,-0.0938 -0.422032,-0.28134 -0.642408,-0.42201 -0.234464,-0.14069 -0.422032,-0.37514 -0.468929,-0.49707 -0.03574,-0.14069 -0.234464,-0.32824 -0.422031,-0.37513 -0.281342,-0.0938 -0.375136,-0.23445 -0.482979,-0.77372 -0.14069,-0.57207 -0.09379,-0.68931 0.09379,-1.05975 0.14069,-0.23447 0.234465,-0.42204 0.234465,-0.46891 0,-0.0212 -0.328239,-0.23447 -0.736202,-0.50176 -0.422032,-0.23444 -0.787787,-0.55332 -0.844045,-0.65648 -0.0469,-0.0938 -0.0469,-0.42203 -0.0095,-0.71744 0.09379,-0.50644 0.328257,-0.79248 0.769029,-0.94253 0.468928,-0.14069 0.187586,-0.28136 -0.572083,-0.28136 -0.675235,0 -0.815906,-0.0389 -0.975336,-0.28134 -0.234464,-0.32826 -0.234464,-1.30359 -0.01135,-1.63654 0.187587,-0.28134 0.14069,-0.42201 -0.187586,-0.42201 -0.328239,0 -1.116027,-1.27546 -1.022233,-1.68811 0.187586,-0.73151 0.328238,-0.96598 0.890941,-1.24265 0.520496,-0.28134 0.740891,-0.28134 2.644705,-0.32824 1.144164,-0.0113 2.597808,-0.0938 3.235546,-0.18758 0.375135,-0.0469 0.726822,-0.0938 1.036302,-0.0938 z m 87.740833,0.49706 c -0.81124,-0.002 -1.81942,0.008 -3.06205,0.0253 -3.35746,0.0469 -4.39378,0.0938 -5.42961,0.28134 -1.55681,0.28137 -2.85572,0.32824 -9.46185,0.47362 -3.21209,0.0469 -5.22046,0.14069 -5.37287,0.23445 -0.49236,0.28136 -2.77131,0.42203 -8.55073,0.51582 -3.24962,0.0469 -6.11517,0.18759 -6.36276,0.23445 -1.06913,0.28136 -2.86041,0.37513 -8.19904,0.49707 -3.11833,0.0469 -5.86571,0.18758 -6.10065,0.23446 -0.91439,0.28134 -2.94949,0.37513 -8.174653,0.50643 -2.987012,0.0469 -5.49948,0.14069 -5.582949,0.18758 -0.281361,0.0938 -0.187586,0.76903 0.09379,0.91908 0.140689,0.0938 0.328238,0.32824 0.422031,0.55333 0.09379,0.23446 0.234465,0.42203 0.281342,0.42203 0.0469,0 0.234464,0.14069 0.375135,0.32824 0.14069,0.18758 0.375136,0.32823 0.478308,0.32823 0.09379,0 0.375135,0.14069 0.6096,0.32824 0.328238,0.28136 0.548633,0.32826 1.256697,0.37514 0.473599,0.0339 1.21918,0.0469 1.65528,0.0329 0.422032,-0.0151 2.138289,-0.0469 3.784189,-0.0938 2.3821,-0.0342 3.06203,-0.0938 3.35746,-0.23447 0.55801,-0.28136 1.68811,-0.32823 7.99132,-0.46892 3.7748,-0.0469 5.90368,-0.14069 6.10249,-0.23445 0.60022,-0.28136 2.58374,-0.37514 8.05229,-0.50176 3.05267,-0.0469 5.90884,-0.18758 6.34541,-0.23444 0.42202,-0.0469 1.17698,-0.18759 1.64591,-0.23447 0.4689,-0.0938 2.99639,-0.18758 5.61248,-0.23446 6.16488,-0.14069 7.47457,-0.18759 7.99319,-0.37513 0.64243,-0.18759 3.67632,-0.37514 8.96807,-0.48298 2.61657,-0.0469 4.95038,-0.18759 5.18531,-0.23447 0.23445,-0.0469 0.85343,-0.14069 1.37392,-0.18758 0.80186,-0.0469 0.94722,-0.0938 0.94722,-0.28135 0,-0.14069 -0.14069,-0.32825 -0.28134,-0.42203 -0.14069,-0.0938 -0.32826,-0.32824 -0.37514,-0.42203 -0.0437,-0.14069 -0.14069,-0.23446 -0.28136,-0.23446 -0.0938,0 -0.32824,-0.14069 -0.51111,-0.37514 -0.18759,-0.18759 -0.51112,-0.37513 -0.73621,-0.42201 -0.23446,-0.0469 -0.52518,-0.18759 -0.67054,-0.32826 -0.28136,-0.28134 -0.98943,-0.37513 -3.42311,-0.37513 z m -144.0908,2.67752 a 85.916832,85.916832 0 0 0 0.905014,4.164 85.916832,85.916832 0 0 1 -0.905014,-4.164 z m 28.635936,5.7058 c -0.694,0.006 -1.814716,0.0446 -3.704459,0.0938 -2.217987,0.0938 -4.281229,0.18758 -4.880976,0.28134 -1.233257,0.23446 -2.330528,0.28136 -6.485147,0.42203 -3.043285,0.0938 -3.545028,0.18759 -3.793554,0.53926 -0.0469,0.0938 -0.09377,0.52987 -0.09377,1.01756 -0.0019,0.85811 0.0089,0.88625 0.375133,1.06913 0.187568,0.0938 0.375136,0.23446 0.375136,0.32824 0,0.0469 0.328244,0.23446 0.675243,0.42203 0.375135,0.18758 0.75965,0.37513 0.862811,0.48767 0.09377,0.0938 0.281351,0.18758 0.375135,0.18758 0.09377,0 0.375135,0.14069 0.62835,0.32826 0.234461,0.18759 0.600217,0.37513 0.81592,0.42201 0.234459,0.0469 0.58146,0.23447 0.815919,0.42203 0.23446,0.18759 0.637729,0.37514 0.895634,0.42204 0.234461,0.0412 0.651797,0.23446 0.881568,0.37513 0.23446,0.18759 0.487676,0.32824 0.572082,0.32824 0.09377,0 0.468917,0.14069 0.806539,0.37513 0.375135,0.18759 0.965974,0.42204 1.350486,0.49705 0.375136,0.0938 0.797164,0.23447 0.919082,0.37514 0.140671,0.14069 0.567392,0.28136 1.176986,0.42203 0.525189,0.0938 1.055068,0.28136 1.172296,0.37513 0.140671,0.14069 0.614286,0.23447 1.350487,0.28137 1.27546,0.14069 1.856919,0.23444 2.302392,0.48766 0.187567,0.0938 0.769027,0.18759 1.341107,0.23447 0.572082,0.0422 3.024528,0.0938 5.45212,0.0938 3.418418,0.0151 4.435971,-0.0151 4.510998,-0.14069 0.140671,-0.23446 0.04268,-0.73151 -0.281351,-1.21451 -0.234459,-0.32824 -0.328243,-0.70337 -0.422026,-1.28952 -0.0469,-0.58146 -0.187568,-0.98472 -0.422027,-1.31767 -0.187567,-0.28134 -0.328244,-0.75496 -0.422028,-1.14414 -0.0469,-0.37514 -0.187567,-0.85344 -0.328242,-1.08322 -0.140671,-0.23444 -0.328244,-0.72213 -0.375135,-1.10196 -0.140671,-0.67523 -0.140671,-0.6893 -0.614284,-0.76433 -0.281351,-0.0454 -0.567392,-0.18759 -0.698689,-0.37514 -0.140671,-0.18759 -0.422026,-0.32824 -0.862811,-0.37514 -0.422026,-0.0469 -0.712757,-0.18758 -0.839365,-0.32823 -0.09377,-0.14069 -0.478296,-0.28135 -0.853431,-0.37514 -0.375135,-0.0938 -0.872191,-0.28134 -1.139473,-0.48767 -0.375135,-0.23446 -0.328244,-0.32825 -1.481784,-0.32825 z m -25.711758,6.85935 a 85.916832,85.916832 0 0 0 1.772513,4.75859 85.916832,85.916832 0 0 1 -1.772513,-4.75859 z m 138.604442,0.42204 c -0.18759,0.008 -0.42204,0.0399 -0.77372,0.0938 -0.58146,0.0938 -2.79945,0.23446 -4.9288,0.28136 -2.1289,0.0469 -4.04678,0.18759 -4.27185,0.28134 -0.37513,0.14069 -0.42203,0.28136 -0.42203,1.20044 0,1.69749 0.37514,6.05093 0.53457,6.63285 0.0938,0.28136 0.50173,0.90032 0.9097,1.33642 0.88156,0.94722 1.5615,1.05039 2.3821,0.37514 0.32826,-0.28135 0.72684,-0.42204 1.10197,-0.42204 0.57676,0 0.59083,-0.0151 0.59083,-0.72213 0,-0.48767 -0.0938,-0.84404 -0.32824,-1.09258 -0.28134,-0.32824 -0.37514,-0.63304 -0.37514,-2.28833 -0.0469,-2.71503 -0.14069,-2.6447 3.259,-2.62125 1.44895,0.009 2.71503,-0.0301 2.80413,-0.0938 0.32824,-0.18758 0.70806,-1.19106 0.70806,-1.82877 0,-0.50176 -0.0938,-0.70809 -0.46892,-0.93784 -0.23445,-0.14069 -0.42202,-0.23447 -0.73621,-0.23447 z m -24.90052,1.33173 c -1.49117,0 -2.23675,0.0469 -2.32116,0.18758 -0.14069,0.23445 -0.0938,3.61536 0.0323,3.75134 0.0437,0.0446 0.86749,0.0938 1.82409,0.0938 1.67872,0.0197 1.76314,0.0393 2.15234,0.49236 0.23447,0.28136 0.42203,0.70808 0.42203,1.11133 0.0371,1.34112 0.28135,3.95299 0.48298,4.77361 0.0938,0.4736 0.28135,1.946 0.37514,3.27773 0.0938,1.33173 0.23446,2.67753 0.32824,2.9917 0.0938,0.32826 0.28136,2.33054 0.37513,4.48756 0.14069,3.00108 0.28136,3.98581 0.46893,4.21559 0.28134,0.32824 0.48298,0.37513 0.65179,0.0938 0.0938,-0.14069 0.64243,-0.14069 1.86629,-0.0938 2.3868,0.14069 2.32585,0.23446 2.13359,-2.48997 -0.0938,-1.18637 -0.32824,-2.82758 -0.49706,-3.64818 -0.28135,-1.19575 -0.32824,-1.66466 -0.18759,-2.3915 0.0938,-0.49704 0.0938,-1.14883 0.0272,-1.44426 -0.0938,-0.28134 -0.18759,-2.85103 -0.18759,-5.6772 -0.0469,-3.9905 -0.0197,-5.20876 0.14069,-5.45353 0.18759,-0.28134 0.5674,-0.32824 2.17109,-0.42203 1.07384,-0.0469 2.02575,-0.18759 2.11952,-0.28134 0.18759,-0.18759 0.14069,-2.72443 -0.017,-3.30118 -0.0938,-0.28136 -0.32826,-0.28136 -1.61309,-0.28136 -1.49585,0 -1.52399,0.008 -1.72094,0.4736 -0.0938,0.28136 -0.42201,0.73622 -0.67992,1.05976 l -0.48298,0.58616 -2.20862,-0.0295 c -2.6025,-0.0339 -2.93074,-0.14069 -2.78069,-0.96596 0.18759,-0.95191 -0.23445,-1.12072 -2.86508,-1.12072 z m -9.79994,0.5158 c -5.66078,0 -6.14096,0.0469 -6.32571,0.79717 -0.14069,0.4736 0.18758,5.15388 0.42201,6.38244 0.0938,0.483 0.23446,2.15235 0.28136,3.70915 0.0469,1.55681 0.18759,3.14177 0.28134,3.52159 0.0938,0.37514 0.18759,0.96127 0.18759,1.29422 l 0.024,0.60489 1.14886,0.0938 c 0.63305,0.0469 1.32704,0.23447 1.55212,0.37514 0.23445,0.14069 0.694,0.28134 1.05038,0.28134 l 0.64711,0.009 v -1.58026 c 0,-2.03511 0.14069,-2.2133 1.68342,-2.2133 0.84874,0 1.21449,-0.0938 1.54742,-0.32823 0.23446,-0.18759 0.56739,-0.32826 0.72682,-0.32826 0.52052,0 0.70339,-0.37514 0.70339,-1.5193 v -1.10196 l -1.59433,0.0938 c -0.87687,0.0469 -1.78657,0.0938 -2.01635,0.0938 -0.62835,0.008 -1.05037,-0.46891 -1.05037,-1.18635 -10e-4,-0.32826 -0.0938,-1.10196 -0.23446,-1.6928 -0.14069,-0.59084 -0.23447,-1.17699 -0.14069,-1.30828 0.0469,-0.14069 -0.0333,-0.77372 -0.18759,-1.43022 -0.42203,-1.88037 -0.28136,-2.65875 0.46891,-2.65875 0.37514,0 0.67524,0.48297 0.67524,1.03161 0,0.32824 0.0234,0.32824 0.37513,0.0938 0.28136,-0.18759 0.86282,-0.28136 2.48997,-0.28136 2.49934,0 2.68691,-0.0469 2.47589,-0.61429 -0.0938,-0.23444 -0.0938,-0.46891 0.0114,-0.51112 0.0938,-0.0469 0.18759,-0.4689 0.18759,-0.86749 v -0.76434 z m -12.79915,1.50992 -1.58494,0.0938 c -0.8722,0.0469 -1.93195,0.23446 -2.35867,0.37513 -0.4736,0.18759 -1.26139,0.28136 -2.02104,0.28136 -0.80652,-0.008 -1.28952,0.0469 -1.37861,0.18759 -0.0938,0.0938 -0.18758,1.37861 -0.23446,2.80413 -0.23446,5.19233 -0.49238,9.88481 -0.6565,11.99261 -0.28134,3.81698 -0.56739,9.45903 -0.46891,9.73755 0.0938,0.18759 0.32824,0.28136 0.85812,0.28136 0.68463,0 0.83937,-0.0938 1.74438,-0.98473 0.54395,-0.53926 1.07382,-1.13479 1.17231,-1.31767 0.0938,-0.18758 0.23444,-1.29421 0.28134,-2.46651 l 0.0938,-2.13357 0.53457,-0.32826 c 0.62833,-0.37514 2.56498,-0.7737 3.14644,-0.62834 0.48298,0.14069 0.66585,0.70806 0.51111,1.65528 -0.0938,0.53926 -0.0469,0.67993 0.14069,0.67993 0.46891,0 1.07382,1.23795 1.28953,2.59312 0.0938,0.70808 0.37513,1.50054 0.53925,1.75845 0.18759,0.23446 0.32824,0.54863 0.32824,0.64712 0,0.23444 0.23447,0.23444 0.95191,-0.0469 0.32824,-0.14069 1.13478,-0.28136 1.80064,-0.37514 1.37394,-0.14069 1.51461,-0.28136 1.22858,-1.39269 -0.60022,-2.31176 -0.81124,-2.98233 -1.01756,-3.22615 -0.14069,-0.14069 -0.32824,-0.9191 -0.42204,-1.70687 -0.0938,-0.7831 -0.23444,-1.50523 -0.32823,-1.59902 -0.0938,-0.0938 -0.23447,-0.46891 -0.32824,-0.8206 -0.18759,-0.51113 -0.28136,-0.64711 -0.62836,-0.64711 -0.23447,0 -0.57208,0.14069 -0.76434,0.32823 -0.18759,0.18759 -0.57677,0.32826 -0.8628,0.32826 -0.28137,0 -0.80655,0.14069 -1.15355,0.32824 -0.59084,0.32824 -0.66116,0.32824 -0.94722,0.0469 -0.18758,-0.14069 -0.32823,-0.37514 -0.32823,-0.50176 0,-0.53925 -0.55802,-0.80653 -1.46303,-0.69868 -0.9519,0.0938 -1.96478,-0.0938 -2.18986,-0.46891 -0.18759,-0.28136 -0.14069,-9.18613 0.0113,-9.79433 0.18759,-0.60489 0.62834,-0.62833 1.19574,-0.0469 0.42203,0.42201 0.50644,0.68461 0.59553,1.60838 0.0469,0.61429 0.23446,1.35518 0.37513,1.63652 0.14069,0.28136 0.32824,0.94253 0.37514,1.46303 0.0469,0.52051 0.23446,1.10195 0.32824,1.29421 0.14069,0.18759 0.32825,0.78779 0.42203,1.33173 0.23446,1.42084 0.55332,1.6928 1.83347,1.6928 0.70806,0 1.26607,-0.0938 1.72562,-0.32824 0.37514,-0.18758 0.81593,-0.32824 0.98474,-0.32824 0.37513,0 0.37513,-0.0938 0.0446,-0.59084 -0.14069,-0.23446 -0.32823,-0.82061 -0.37513,-1.33173 -0.0938,-0.98942 -0.76901,-3.23554 -1.29422,-4.38907 -0.18758,-0.37513 -0.32823,-0.85344 -0.32823,-1.04101 0,-0.18759 -0.14069,-0.6471 -0.32824,-1.01754 -0.28136,-0.5299 -0.32824,-1.01756 -0.32824,-2.23674 -4.7e-4,-1.27079 -0.0469,-1.66937 -0.37514,-2.14297 z m -15.628117,1.12541 c -0.234464,-0.017 -0.497067,0.14069 -1.153544,0.48298 l -1.059769,0.58615 -3.01984,0.0938 c -1.65997,0.0469 -3.03858,0.14069 -3.062028,0.14069 -0.14069,0.0938 -0.01702,2.16171 0.14069,2.43369 0.09379,0.18759 0.234464,2.01166 0.328238,4.08897 0.09379,2.07262 0.234465,4.1218 0.328258,4.54852 0.09379,0.42201 0.234445,2.90729 0.375135,5.50979 0.09379,2.60249 0.234445,4.80266 0.281342,4.88848 0.187586,0.23446 4.103039,0.0938 4.431277,-0.18759 0.422032,-0.32824 0.422032,-5.99982 0.0057,-7.21291 -0.623668,-1.83816 -0.0469,-4.45472 0.965957,-4.45472 0.234464,0 0.468929,0.0938 0.525205,0.23444 0.140689,0.23447 0.74558,3.4747 0.961267,5.00478 0.0469,0.42203 0.187586,0.92377 0.281361,1.10196 0.09379,0.18758 0.234464,1.42083 0.328238,2.76192 0.14069,1.97885 0.187587,2.4759 0.468929,2.65409 0.187586,0.14069 0.834665,0.23446 1.641211,0.23446 1.120716,0 1.345801,-0.0454 1.345801,-0.28136 0,-0.14069 0.187587,-0.52049 0.46891,-0.81122 0.422032,-0.50642 0.468928,-0.62366 0.375135,-1.96009 -0.0469,-0.99409 -0.14069,-1.51929 -0.375135,-1.73498 -0.46891,-0.50645 -1.125406,-2.13359 -1.256697,-3.06205 -0.0469,-0.4736 -0.234465,-1.01756 -0.375136,-1.20513 -0.14069,-0.18758 -0.234464,-0.5158 -0.234464,-0.7362 0,-0.23445 -0.14069,-0.83935 -0.328238,-1.37861 -0.187587,-0.53925 -0.281361,-1.10196 -0.234465,-1.24734 0.0469,-0.14069 0.473618,-0.57677 0.942528,-0.95657 0.468928,-0.37514 0.895631,-0.80655 0.951907,-0.94722 0.0469,-0.14069 0.187586,-1.23796 0.281361,-2.43369 0.14069,-1.87099 0.14069,-2.31178 -0.09379,-3.15115 -0.140689,-0.53457 -0.375135,-0.97065 -0.422031,-0.97065 -0.09379,0 -0.187587,-0.14069 -0.281342,-0.32825 -0.0469,-0.18759 -0.375135,-0.42202 -0.740891,-0.54395 -0.328239,-0.0938 -0.736202,-0.32824 -0.867512,-0.42201 -0.14069,-0.14069 -0.375135,-0.23447 -0.497048,-0.23447 -0.14069,0 -0.539254,-0.14069 -0.872182,-0.28136 -0.234465,-0.0938 -0.375136,-0.18758 -0.515825,-0.18758 z m 0.862803,1.1629 c 0.09379,0 0.422032,0.18759 0.670546,0.46893 0.422032,0.37514 0.482998,0.60022 0.482998,1.36925 0,0.49705 -0.0469,0.94722 -0.14069,0.99879 -0.422013,0.28136 -1.036302,1.99291 -1.130076,3.2543 -0.09379,1.60369 -0.375136,2.07731 -1.439594,2.54153 -1.739676,0.76903 -2.035106,0.42203 -2.203915,-2.58843 -0.0469,-1.21449 -0.234464,-2.43838 -0.375135,-2.80413 -0.328239,-0.77841 -0.234464,-1.24263 0.422032,-1.98821 0.712753,-0.85813 1.650591,-0.69868 2.021036,0.32824 0.0469,0.18758 0.281342,0.28136 0.539255,0.28136 0.328238,0 0.468928,-0.0938 0.539254,-0.47362 0.187587,-0.81592 0.468929,-1.42551 0.647117,-1.42551 z m -18.959322,0.86283 c -2.171106,0 -2.339915,0.0248 -2.940135,0.42203 -0.328238,0.23444 -0.731512,0.42201 -0.853424,0.42201 -0.14069,0 -0.281361,0.0938 -0.328238,0.28136 -0.0469,0.14069 -0.187587,0.28134 -0.328258,0.28134 -0.14069,0.002 -0.468909,0.28136 -0.736201,0.62836 -0.281342,0.32824 -0.647098,0.76434 -0.806528,0.92846 -0.375135,0.42203 -1.148853,2.91667 -1.331731,4.40783 -0.09379,0.67525 -0.234465,1.38801 -0.328239,1.58495 -0.234464,0.42203 -0.281361,5.90228 -0.03423,5.90228 0.234464,0 1.397387,1.177 1.397387,1.44427 0,0.14069 0.09379,0.32826 0.234464,0.42203 0.14069,0.0938 0.281342,0.55801 0.375136,0.9988 0.0469,0.42202 0.234445,0.99879 0.422012,1.24263 0.886271,1.30829 1.219199,1.8663 1.219199,2.0398 0,0.28136 1.036302,1.25669 1.777193,1.71155 0.328258,0.18759 1.059769,0.42204 1.613093,0.48767 0.553323,0.0469 1.242628,0.23447 1.523989,0.32826 0.281342,0.14069 0.740891,0.23444 1.012854,0.23444 0.59084,0.017 2.696291,-0.67992 2.696291,-0.89094 0,-0.0938 0.281342,-0.28134 0.665856,-0.42203 0.581462,-0.28134 2.616567,-2.3821 2.616567,-2.73379 0,-0.0469 0.09379,-0.23446 0.234464,-0.37513 0.328239,-0.37514 0.665857,-4.67512 0.375136,-4.96914 -0.234465,-0.23446 -1.702178,-0.32823 -3.085496,-0.14069 -0.858114,0.0938 -1.008164,0.18759 -1.097267,0.54395 -0.187587,0.81591 0.02023,2.37272 0.422031,2.91667 0.375136,0.53456 0.478308,1.10195 0.422032,2.84634 -0.04633,1.19106 -0.328238,1.63652 -0.947217,1.48178 -0.328239,-0.0938 -0.567393,-0.37514 -0.886252,-1.04099 -0.482997,-1.02694 -0.661185,-1.13948 -1.716246,-1.13948 -0.886252,0 -1.425525,-0.37513 -1.575575,-1.02225 -0.0469,-0.28134 -0.234465,-0.59553 -0.375136,-0.70806 -0.187586,-0.14069 -0.234464,-0.73151 -0.234464,-2.61188 v -2.40086 l -0.511116,-0.28136 c -1.036302,-0.59084 -1.106647,-0.96598 -0.961287,-4.88659 0.09379,-1.93664 0.14069,-3.82639 0.14069,-4.2109 -0.01324,-1.05506 0.422013,-2.44776 0.829976,-2.55091 0.468928,-0.14069 0.834684,0.23446 0.895631,0.82059 0.04557,0.42203 0.14069,0.54397 0.726822,0.69871 0.375135,0.0938 0.853443,0.42201 1.078528,0.66116 0.375135,0.46893 0.422013,0.60491 0.422013,2.79945 0,2.30239 0.0038,2.32584 0.422032,2.48527 0.478307,0.18759 2.86041,0.0272 2.86041,-0.18758 0,-0.23447 1.05975,-1.35987 1.294215,-1.35987 0.468909,0 0.501737,-2.65878 0.04179,-3.23555 -0.09379,-0.14069 -0.281361,-0.42201 -0.468929,-0.70806 -0.628339,-1.10196 -0.980026,-1.57556 -1.162904,-1.57556 -0.09379,-4.7e-4 -0.281361,-0.14069 -0.422032,-0.28136 -0.14069,-0.14069 -0.684615,-0.49705 -1.247317,-0.77841 -0.980045,-0.48767 -1.125406,-0.50643 -3.329339,-0.50643 z m 78.675676,3.03859 c -0.14069,-0.004 -0.23447,0.031 -0.23447,0.0938 0,0.23446 -1.58964,1.72093 -2.45713,2.26488 -0.28134,0.14069 -0.5205,0.49236 -0.58146,0.72682 -0.14069,0.60491 -0.59553,0.80655 -1.11603,0.50643 -0.23446,-0.14069 -0.61429,-0.32824 -0.85342,-0.46891 -0.49238,-0.23447 -2.31647,-0.32824 -2.5228,-0.0938 -0.0938,0.0938 -0.0238,0.37514 0.0938,0.68933 0.18758,0.42201 0.23444,1.47709 0.28134,4.78109 0.009,2.32584 0.0469,4.52038 0.14069,4.87347 l 0.14069,0.64711 1.84754,-0.0938 c 1.01754,-0.0469 2.07262,-0.18759 2.34458,-0.23445 0.67526,-0.23446 1.94602,-0.18758 2.37274,0.0272 0.23445,0.14069 0.49705,0.14069 0.8675,0.002 0.28134,-0.0938 1.15823,-0.23447 1.92726,-0.28137 2.31645,-0.18758 2.18047,-0.0938 2.18047,-1.44895 0,-1.05506 -0.0409,-1.20513 -0.37514,-1.30828 -0.18759,-0.0469 -1.50054,-0.0469 -2.89324,-0.002 -3.18863,0.14069 -3.30118,0.0938 -3.62473,-1.46303 -0.37513,-1.73031 -0.5627,-5.38787 -0.32824,-5.63406 0.0938,-0.0938 1.13479,-0.32824 2.27424,-0.52987 l 2.07263,-0.32824 -0.0437,-0.53457 c -0.0469,-0.74091 -0.90501,-2.06324 -1.37861,-2.16172 -0.0469,-0.0113 -0.0938,-0.017 -0.14069,-0.017 z m -131.287436,2.01635 a 85.916832,85.916832 0 0 0 2.579053,4.72576 85.916832,85.916832 0 0 1 -2.579053,-4.72576 z m 95.076116,8.60137 c -0.37514,0.002 -0.64243,0.0361 -0.75496,0.0938 -0.18759,0.14069 -0.18759,0.74559 -0.0938,3.30119 0.0938,2.06793 0.18759,3.16051 0.32824,3.19803 0.0938,0.0314 0.42203,0.0938 0.66586,0.14069 0.28136,0.0469 0.72682,0.37513 1.03632,0.69868 0.54394,0.57677 0.6002,0.59084 1.7725,0.55803 l 1.20982,-0.0357 -0.0431,-3.05736 c -0.0361,-2.58843 -0.0938,-3.14175 -0.37514,-3.62473 -0.23444,-0.42203 -0.46891,-0.58615 -0.8206,-0.62836 -0.28136,-0.031 -0.63773,-0.18758 -0.80185,-0.32823 -0.23447,-0.23447 -1.33173,-0.37514 -2.11483,-0.37514 z m -88.553455,2.56031 a 85.916832,85.916832 0 0 0 3.301187,4.41252 85.916832,85.916832 0 0 1 -3.301187,-4.41252 z m 8.12261,10.05549 a 85.916832,85.916832 0 0 0 3.93892,3.93892 85.916832,85.916832 0 0 1 -3.93892,-3.93892 z m 9.58142,8.758 a 85.916832,85.916832 0 0 0 4.412526,3.30118 85.916832,85.916832 0 0 1 -4.412526,-3.30118 z m 10.845623,7.24432 a 85.916832,85.916832 0 0 0 4.725302,2.57905 85.916832,85.916832 0 0 1 -4.725302,-2.57905 z m 11.956497,5.57544 a 85.916832,85.916832 0 0 0 4.758589,1.77252 85.916832,85.916832 0 0 1 -4.758589,-1.77252 z m 13.158323,3.79356 a 85.916832,85.916832 0 0 0 4.164005,0.90501 85.916832,85.916832 0 0 1 -4.164005,-0.90501 z" />
  </g>
</svg>
