<?xml version="1.0" encoding="UTF-8" standalone="no"?>
<!-- Created with Inkscape (http://www.inkscape.org/) -->
<svg
      xmlns="http://www.w3.org/2000/svg"
      width="200mm"
      height="200mm"
      version="1.1"
      viewBox="0 0 200 200"
      xmlSpace="preserve"
    >
      <g>
        <g transform="translate(379.995 -39.52)">
          <path
            fill="none"
            fillOpacity="0"
            strokeLinecap="round"
            strokeLinejoin="round"
            strokeWidth="0.265"
            d="M-379.995 39.52H-179.995V239.52H-379.995z"
            paintOrder="markers stroke fill"
          ></path>
          <path
            fill="#65a0ff"
            fillOpacity="1"
            strokeWidth="0.398"
            d="M-360.14 49.575a9.467 9.467 0 00-.479.005c-1.864.062-3.147.69-4.021 1.564-1.166 1.166-1.893 3.058-1.427 6.086.467 3.028 2.26 7.06 6.073 11.508 26.996 31.495 52.857 61.853 73.044 84.283 4.88 5.422 9.42 10.37 13.568 14.765 4.81-12.685 13.746-21.528 25.012-25.732a864.987 864.987 0 00-14.393-13.22c-22.43-20.186-52.788-46.049-84.283-73.045-4.448-3.813-8.48-5.606-11.508-6.072a11.752 11.752 0 00-1.586-.141zm117.609 98.07c-12.112 3.032-21.17 11.604-25.292 25.932 2.247 2.3 4.356 4.407 6.275 6.245 3.014 2.888 5.604 5.172 7.638 6.742.706-6.849 3.994-13.146 8.606-17.77 4.216-4.225 9.74-7.16 15.557-7.59-1.539-1.924-3.634-4.276-6.215-6.969a279.447 279.447 0 00-6.57-6.59zm14.056 20.656c-4.134.054-8.322 2.1-11.762 5.548-4.588 4.599-7.425 11.472-6.468 18.172 2.12 14.848 9.443 26.167 19.666 32.301 9.037 5.422 20.458 6.899 33.258 2.777-9.631-1.595-18.48-12.21-19.164-20.14 4.227 5.095 9.519 9.76 15.279 12.625-3.929-8.978-3.659-18.073-4.409-25.576-.537-5.376-1.547-9.933-4.524-13.98-2.976-4.049-8.12-7.874-17.79-11.097a12.35 12.35 0 00-4.086-.63z"
          ></path>
        </g>
      </g>
    </svg>