<?xml version="1.0" encoding="UTF-8" standalone="no"?>
<!-- Created with Inkscape (http://www.inkscape.org/) -->

<svg
      xmlns="http://www.w3.org/2000/svg"
      width="200mm"
      height="200mm"
      version="1.1"
      viewBox="0 0 200 200"
      xmlSpace="preserve"
    >
      <g>
        <path
          fill="#none"
          fillOpacity="1"
          strokeLinecap="round"
          strokeLinejoin="round"
          strokeWidth="0.265"
          d="M-422.888 -89.504H-396.37699999999995V-66.21700000000001H-422.888z"
          paintOrder="markers stroke fill"
        ></path>
        <path
          fill="#bc42b4"
          fillOpacity="1"
          strokeLinecap="round"
          strokeLinejoin="round"
          strokeWidth="0.265"
          d="M-373.337 -89.504H-346.82599999999996V-66.21700000000001H-373.337z"
          paintOrder="markers stroke fill"
        ></path>
        <path
          fill="#f1f034"
          fillOpacity="1"
          strokeLinecap="round"
          strokeLinejoin="round"
          strokeWidth="0.265"
          d="M-323.787 -89.504H-297.27599999999995V-66.21700000000001H-323.787z"
          paintOrder="markers stroke fill"
        ></path>
        <path
          fill="#ea2622"
          fillOpacity="1"
          strokeLinecap="round"
          strokeLinejoin="round"
          strokeWidth="0.265"
          d="M-521.989 -89.504H-495.478V-66.21700000000001H-521.989z"
          paintOrder="markers stroke fill"
        ></path>
        <path
          fill="#4ae83e"
          fillOpacity="1"
          strokeLinecap="round"
          strokeLinejoin="round"
          strokeWidth="0.265"
          d="M-472.439 -89.504H-445.928V-66.21700000000001H-472.439z"
          paintOrder="markers stroke fill"
        ></path>
        <g transform="translate(-47.945 -299.248)">
          <path
            fill="none"
            fillOpacity="0"
            strokeLinecap="round"
            strokeLinejoin="round"
            strokeWidth="0.265"
            d="M47.945 299.248H247.945V499.248H47.945z"
            paintOrder="markers stroke fill"
          ></path>
          <path
            fill="#f1f034"
            fillOpacity="1"
            strokeWidth="0.467"
            d="M58.435 305.17v188.157h179.02V305.17zm16.08 12.217h146.86V481.11H74.515zm9.648 7.331v38.283h26.692c.536-4.398 1.232-8.96 2.358-13.847 3.43-8.552 13.292-17.626 24.12-19.426 2.09-.387 4.502.602 6.753.57 1.447 0 7.182-1.092 8.2-1.14 16.509.33 29.64 13.724 31.784 24.558.322 1.832 1.072 5.172 1.93 9.285h25.727v-38.283zm60.512 12.748c-5.306 0-10.344 2.321-14.418 6.76-4.02 4.44-6.753 10.874-6.753 18.042 0 7.168 2.733 13.603 6.753 18.042 4.074 4.44 9.112 6.761 14.418 6.761 5.307 0 10.345-2.321 14.418-6.76 4.02-4.44 6.754-10.875 6.754-18.043 0-7.168-2.734-13.602-6.754-18.042-4.073-4.439-9.111-6.76-14.418-6.76zm-60.512 32.866v54.086c4.073-6.68 16.08-13.155 18.973-18.735 5.682-10.915 5.896-22.196 7.022-35.35zm103.445 0c1.876 9.327 4.234 19.101 5.306 28.224 7.879 3.828 14.525 8.797 18.813 14.458v-42.682zm-28.247 20.242a29.9 29.9 0 01-14.686 3.828c-1.93 0-3.805-.204-5.628-.53-2.197 2.73-4.18 5.661-5.842 9.001-2.68 5.254-9.219 7.779-14.847 10.711-4.127 3.014-13.614 5.824-9.862 11.16 5.2 5.253 20.26 5.783 27.228 5.742 10.345-.937 23.905-.611 31.623-5.743zm-32.212 50.5l-3.056 7.25 31.73 13.114 5.307-11.444c-6.753-5.01-19.563-7.29-33.981-8.92zm-8.362 17.92c-2.519.53-5.145 1.182-7.343 1.752-1.554 3.462-.268 7.33.911 12.136 11.953 1.222 20.314-3.38 29.265-7.534z"
          ></path>
        </g>
        <g>
          <path
            fill="#e6e6e6"
            fillOpacity="0"
            strokeLinecap="round"
            strokeLinejoin="round"
            strokeWidth="0.265"
            d="M-319.891 2.345H-119.89100000000002V202.345H-319.891z"
            paintOrder="markers stroke fill"
          ></path>
          <path
            fill="#ea2622"
            fillOpacity="1"
            strokeWidth="0.398"
            d="M-300.036 12.401a9.467 9.467 0 00-.478.005c-1.864.062-3.147.69-4.021 1.564-1.166 1.166-1.893 3.058-1.427 6.086.467 3.028 2.26 7.06 6.072 11.507 26.996 31.496 52.858 61.854 73.044 84.284 4.88 5.422 9.421 10.37 13.57 14.765 4.808-12.685 13.745-21.529 25.01-25.732a864.962 864.962 0 00-14.392-13.22c-22.43-20.186-52.788-46.049-84.284-73.045-4.447-3.813-8.479-5.606-11.507-6.072a11.752 11.752 0 00-1.587-.142zm117.61 98.07c-12.112 3.032-21.17 11.604-25.292 25.932 2.247 2.3 4.356 4.407 6.274 6.245 3.014 2.888 5.605 5.172 7.639 6.742.706-6.849 3.994-13.146 8.606-17.77 4.215-4.226 9.74-7.16 15.557-7.591-1.54-1.923-3.634-4.275-6.215-6.968a279.447 279.447 0 00-6.57-6.59zm14.056 20.655c-4.134.055-8.322 2.1-11.763 5.55-4.587 4.598-7.425 11.47-6.468 18.17 2.121 14.848 9.443 26.168 19.667 32.302 9.036 5.422 20.458 6.899 33.258 2.777-9.631-1.595-18.48-12.21-19.164-20.14 4.226 5.095 9.519 9.76 15.279 12.625-3.93-8.978-3.659-18.073-4.41-25.576-.537-5.376-1.546-9.933-4.523-13.98-2.976-4.049-8.12-7.874-17.79-11.097a12.35 12.35 0 00-4.086-.63z"
          ></path>
        </g>
        <g>
          <path
            fill="#e6e6e6"
            fillOpacity="0"
            strokeLinecap="round"
            strokeLinejoin="round"
            strokeWidth="0.265"
            d="M-488.357 245.365H-288.357V445.365H-488.357z"
            paintOrder="markers stroke fill"
          ></path>
          <path
            fill="#4ae83e"
            fillOpacity="1"
            strokeWidth="0.355"
            d="M-303.889 260.904l-35.845.037v35.802h35.845zm-42.234.043l-84.468.088v35.708h84.468zm-90.857.094l-35.845.037v35.665h35.845zm-35.845 42.09v39.04h81.274v-39.04zm87.662 0v39.04h81.274v-39.04zm-87.662 45.429v39.04h35.845v-39.04zm42.234 0v39.04h84.468v-39.04zm90.857 0v39.04h35.845v-39.04zm-133.091 45.428v35.839l81.274-.084v-35.755zm87.662 0v35.749l81.274-.084v-35.665z"
          ></path>
        </g>
        <g transform="translate(505.328 -322.555)">
          <path
            fill="#e6e6e6"
            fillOpacity="0"
            strokeLinecap="round"
            strokeLinejoin="round"
            strokeWidth="0.265"
            d="M-273.278 246.556H-73.27800000000002V446.55600000000004H-273.278z"
            paintOrder="markers stroke fill"
          ></path>
          <path
            fill="#bc42b4"
            fillOpacity="1"
            strokeWidth="0.399"
            d="M-121.414 252.937c-15.161 12.186-25.328 26.378-33.49 41.364a202.715 202.715 0 0015.365 8.53l35.402 13.579a204.593 204.593 0 0016.56 3.84c5.382-17.118 7.927-34.238 7.752-51.355l-41.588-15.957zm-106.439 1.548l6.037 25.917 27.506 6.535-5.183-25.741zm-7.018 2.732l-14.851 18.967 4.93 24.744 15.755-18.664zm11.083 30.378l-14.798 17.54 20.81 3.08c2.89-.842 5.777-1.635 8.663-2.381l11.019-12.13-25.694-6.11zm68.045 14.898l3.501 23.502a167.36 167.36 0 016.834 7.426l35.514 13.626 18.078-20.034c-21.83-4.428-43.208-12.294-63.927-24.52zm-27.96 5.378c-19.678 3.73-39.23 8.737-58.732 17.013 16.286 13.913 30.656 28.868 42.281 45.293l59.522-17.827c-10.585-16.7-26.33-30.725-43.073-44.48zm-66.492 20.192c-8.225 20.058-15.016 40.398-16.544 62.702 9.788 21.1 28.006 36.152 44.187 47.76l16.945-63.21c-11.958-17.096-27.147-32.69-44.588-47.252zm113.837 30.79l-62.105 18.602-16.813 62.719c20.811-3.133 41.485-8.726 62.162-19.252 9.954-21.35 12.169-39.785 16.756-62.068z"
          ></path>
        </g>
        <g transform="translate(-643.459 -9.12)">
          <path
            fill="#e6e6e6"
            fillOpacity="0"
            strokeLinecap="round"
            strokeLinejoin="round"
            strokeWidth="0.265"
            d="M0 0H200V200H0z"
            paintOrder="markers stroke fill"
          ></path>
          <path
            fill="#43c2de"
            fillOpacity="1"
            strokeWidth="0.385"
            d="M82.658 8.73C74.431 25.41 49.961 36.575 26.06 47.928l45.407 14.177-48.873-5.56c11.011 22.356 27.608 43.65 46.585 60.75l38.247 11.517-36.814-2.636c-13.54 12.618-36.662 27.242-62.194 35.345 34.061 15.609 62.11 18.083 107.961 29.75 31.007-15.106 45.337-25.687 66.334-42.494l-57.476-16.343 56.79 7.293c-19.163-17.426-34.494-39.546-44.467-62.17L89.3 65.256l54.324 5.236c21.218-7.864 32.765-18.978 47.957-39.39C153.955 23.02 123.061 13.508 82.658 8.73z"
          ></path>
        </g>
        <path
          fill="#000"
          fillOpacity="1"
          strokeLinecap="round"
          strokeLinejoin="round"
          strokeWidth="0.265"
          d="M-224.989 -194.895H-170.53300000000002V-140.43900000000002H-224.989z"
          paintOrder="markers stroke fill"
        ></path>
      </g>
    </svg>
