<?xml version="1.0" encoding="UTF-8" standalone="no"?>
<svg
   width="200mm"
   height="200mm"
   fill="currentColor"
   class="bi bi-box"
   viewBox="0 0 200 200"
   version="1.1"
   id="svg1"
   sodipodi:docname="componentIcon.svg"
   inkscape:version="1.3.2 (091e20e, 2023-11-25, custom)"
   xmlns:inkscape="http://www.inkscape.org/namespaces/inkscape"
   xmlns:sodipodi="http://sodipodi.sourceforge.net/DTD/sodipodi-0.dtd"
   xmlns="http://www.w3.org/2000/svg"
   xmlns:svg="http://www.w3.org/2000/svg">
  <defs
     id="defs1" />
  <sodipodi:namedview
     id="namedview1"
     pagecolor="#ffffff"
     bordercolor="#000000"
     borderopacity="0.25"
     inkscape:showpageshadow="2"
     inkscape:pageopacity="0.0"
     inkscape:pagecheckerboard="0"
     inkscape:deskcolor="#d1d1d1"
     inkscape:zoom="1.1279297"
     inkscape:cx="477.42337"
     inkscape:cy="284.14891"
     inkscape:window-width="2560"
     inkscape:window-height="1351"
     inkscape:window-x="-9"
     inkscape:window-y="-9"
     inkscape:window-maximized="1"
     inkscape:current-layer="svg1"
     inkscape:document-units="mm" />
  <path
     d="m 101.96158,26.964782 c -1.25905,-0.504579 -2.664115,-0.504579 -3.923164,0 L 35.09916,52.138375 99.999994,78.092381 164.90084,52.138375 Z M 94.726933,170.90877 V 87.341329 L 26.177141,59.931959 V 143.48885 Z M 94.125804,17.167435 c 3.770935,-1.508105 7.977446,-1.508105 11.748386,0 l 75.18331,30.077539 c 1.99985,0.801463 3.31098,2.738932 3.31148,4.893401 v 91.350475 c -0.003,4.31154 -2.62967,8.18722 -6.63351,9.7868 l -75.77389,30.30956 c -1.25905,0.50458 -2.664115,0.50458 -3.923164,0 l -75.76334,-30.30956 c -4.007982,-1.59623 -6.639604,-5.47265 -6.644056,-9.7868 V 52.138375 c 5.01e-4,-2.154469 1.311633,-4.091938 3.311482,-4.893401 z"
     id="path1"
     style="fill:#5f9edf;fill-opacity:1;stroke-width:10.5461"
     sodipodi:nodetypes="cccccccccccccccccccccccc" />
</svg>
