<?xml version="1.0" encoding="UTF-8" standalone="no"?>
<svg
   width="200mm"
   height="200mm"
   fill="currentColor"
   class="bi bi-box"
   viewBox="0 0 200 200"
   version="1.1"
   id="svg1"
   sodipodi:docname="componentIcon.svg"
   inkscape:version="1.3.2 (091e20e, 2023-11-25, custom)"
   xmlns:inkscape="http://www.inkscape.org/namespaces/inkscape"
   xmlns:sodipodi="http://sodipodi.sourceforge.net/DTD/sodipodi-0.dtd"
   xmlns="http://www.w3.org/2000/svg"
   xmlns:svg="http://www.w3.org/2000/svg">
  <defs
     id="defs1" />
  <sodipodi:namedview
     id="namedview1"
     pagecolor="#ffffff"
     bordercolor="#000000"
     borderopacity="0.25"
     inkscape:showpageshadow="2"
     inkscape:pageopacity="0.0"
     inkscape:pagecheckerboard="0"
     inkscape:deskcolor="#d1d1d1"
     inkscape:zoom="0.56396485"
     inkscape:cx="578.93679"
     inkscape:cy="259.76796"
     inkscape:window-width="2560"
     inkscape:window-height="1351"
     inkscape:window-x="-9"
     inkscape:window-y="-9"
     inkscape:window-maximized="1"
     inkscape:current-layer="svg1"
     inkscape:document-units="mm" />
  <path
     d="m 101.96158,26.964782 a 5.2730609,5.2730609 0 0 0 -3.923164,0 L 35.09916,52.138375 99.999994,78.092381 164.90084,52.138375 Z m 71.86128,32.967177 -68.54979,27.419917 V 170.89822 L 173.82286,143.4783 V 59.942505 Z M 94.726933,170.90877 V 87.341329 L 26.177141,59.931959 V 143.48885 Z M 94.125804,17.167435 a 15.819183,15.819183 0 0 1 11.748386,0 l 75.18331,30.077539 a 5.2730609,5.2730609 0 0 1 3.31148,4.893401 v 91.350475 a 10.546122,10.546122 0 0 1 -6.63351,9.7868 l -75.77389,30.30956 a 5.2730609,5.2730609 0 0 1 -3.923164,0 l -75.76334,-30.30956 a 10.546122,10.546122 0 0 1 -6.644056,-9.7868 V 52.138375 a 5.2730609,5.2730609 0 0 1 3.311482,-4.893401 z"
     id="path1"
     style="stroke-width:10.5461;fill:#5f9edf;fill-opacity:1" />
</svg>
