<?xml version="1.0" encoding="UTF-8" standalone="no"?>
<svg
   width="200mm"
   height="200mm"
   fill="currentColor"
   class="bi bi-boxes"
   viewBox="0 0 200 200"
   version="1.1"
   id="svg1"
   sodipodi:docname="gameIcon.svg"
   inkscape:version="1.3.2 (091e20e, 2023-11-25, custom)"
   xmlns:inkscape="http://www.inkscape.org/namespaces/inkscape"
   xmlns:sodipodi="http://sodipodi.sourceforge.net/DTD/sodipodi-0.dtd"
   xmlns="http://www.w3.org/2000/svg"
   xmlns:svg="http://www.w3.org/2000/svg">
  <defs
     id="defs1" />
  <sodipodi:namedview
     id="namedview1"
     pagecolor="#ffffff"
     bordercolor="#000000"
     borderopacity="0.25"
     inkscape:showpageshadow="2"
     inkscape:pageopacity="0.0"
     inkscape:pagecheckerboard="0"
     inkscape:deskcolor="#d1d1d1"
     inkscape:zoom="0.56396485"
     inkscape:cx="164.01731"
     inkscape:cy="328.92121"
     inkscape:window-width="2560"
     inkscape:window-height="1351"
     inkscape:window-x="-9"
     inkscape:window-y="-9"
     inkscape:window-maximized="1"
     inkscape:current-layer="svg1"
     inkscape:document-units="mm" />
  <path
     d="m 96.93932,2.0831541 c 1.896643,-1.08339626 4.22472,-1.08339626 6.12136,0 l 46.28033,26.4476669 c 1.9225,1.098166 3.10933,3.142135 3.11004,5.356178 v 49.30398 l 43.1703,24.682861 c 1.91486,1.09377 3.10048,3.12628 3.11003,5.33149 v 52.89534 c -7.2e-4,2.21404 -1.18753,4.25801 -3.11003,5.35617 l -46.28034,26.44767 c -1.89664,1.0834 -4.2247,1.0834 -6.12134,0 L 99.999993,173.22166 56.780334,197.91684 c -1.89664,1.0834 -4.224705,1.0834 -6.121345,0 L 4.3786567,171.46918 C 2.4561507,170.37101 1.2693304,168.32705 1.2686191,166.113 v -52.89533 c 7.149e-4,-2.21404 1.1875352,-4.25801 3.1100376,-5.35617 L 47.54895,83.190979 v -49.30398 c 7.14e-4,-2.214044 1.187534,-4.258012 3.110039,-5.356178 z M 53.719661,93.878649 19.879482,113.21767 53.719661,132.55668 87.55984,113.21767 Z m 52.451049,68.655351 33.93891,19.38837 v -38.67801 l -33.93891,-19.38839 z m 6.26945,-49.31633 33.84017,19.33901 33.84018,-19.33901 -33.84018,-19.339021 z M 93.829283,102.59171 V 63.913678 L 59.890372,44.512963 V 83.190979 Z M 66.159814,33.886999 99.999993,53.226007 133.84019,33.886999 99.999993,14.54799 Z M 47.54895,181.92237 V 143.24436 L 13.61004,123.85597 V 162.534 Z"
     id="path1"
     style="fill:#426ac3;fill-opacity:1;stroke-width:12.3415"
     sodipodi:nodetypes="cccccccccccccccccccccccccccccccccccccccccccccccccccc" />
</svg>
