<?xml version="1.0" encoding="UTF-8" standalone="no"?>
<svg
   width="200mm"
   height="200mm"
   fill="currentColor"
   class="bi bi-boxes"
   viewBox="0 0 200 200"
   version="1.1"
   id="svg1"
   sodipodi:docname="gameIcon.svg"
   inkscape:version="1.3.2 (091e20e, 2023-11-25, custom)"
   xmlns:inkscape="http://www.inkscape.org/namespaces/inkscape"
   xmlns:sodipodi="http://sodipodi.sourceforge.net/DTD/sodipodi-0.dtd"
   xmlns="http://www.w3.org/2000/svg"
   xmlns:svg="http://www.w3.org/2000/svg">
  <defs
     id="defs1" />
  <sodipodi:namedview
     id="namedview1"
     pagecolor="#ffffff"
     bordercolor="#000000"
     borderopacity="0.25"
     inkscape:showpageshadow="2"
     inkscape:pageopacity="0.0"
     inkscape:pagecheckerboard="0"
     inkscape:deskcolor="#d1d1d1"
     inkscape:zoom="0.39878337"
     inkscape:cx="751.03433"
     inkscape:cy="28.837712"
     inkscape:window-width="2560"
     inkscape:window-height="1351"
     inkscape:window-x="-9"
     inkscape:window-y="-9"
     inkscape:window-maximized="1"
     inkscape:current-layer="svg1"
     inkscape:document-units="mm" />
  <path
     d="m 97.448358,18.368217 a 5.1444277,5.1444277 0 0 1 5.103282,0 l 38.58321,22.049017 a 5.1444277,5.1444277 0 0 1 2.59279,4.465364 v 41.103977 l 35.99042,20.577725 a 5.1444277,5.1444277 0 0 1 2.59279,4.44478 v 44.09804 a 5.1444277,5.1444277 0 0 1 -2.59279,4.46536 l -38.58321,22.04902 a 5.1444277,5.1444277 0 0 1 -5.10327,0 l -36.031586,-20.57772 -36.031571,20.588 a 5.1444277,5.1444277 0 0 1 -5.103272,0 L 20.281943,159.58277 a 5.1444277,5.1444277 0 0 1 -2.592791,-4.46537 v -44.09803 a 5.1444277,5.1444277 0 0 1 2.592791,-4.46536 L 56.272359,85.986575 V 44.882598 a 5.1444277,5.1444277 0 0 1 2.592792,-4.465364 z M 61.416787,94.896723 33.204745,111.01937 61.416787,127.14201 89.628828,111.01937 Z m 33.43878,24.991637 -28.294353,16.1638 v 32.24527 l 28.294353,-16.16379 z m 10.288863,32.24528 28.29435,16.16379 v -32.24527 l -28.29435,-16.1638 z m 5.22674,-41.11427 28.21204,16.12264 28.21204,-16.12264 -28.21204,-16.122647 z M 133.43878,85.986575 V 53.741302 L 105.14443,69.915383 V 102.16067 Z M 94.855567,102.16067 V 69.915383 L 66.561214,53.741302 V 85.986575 Z M 71.787953,44.882598 99.999994,61.005234 128.21205,44.882598 99.999994,28.759961 Z m 100.234037,75.005762 -28.29435,16.1638 v 32.24527 l 28.29435,-16.16379 z M 56.272359,168.29743 v -32.24527 l -28.294352,-16.1638 v 32.24528 z"
     id="path1"
     style="stroke-width:10.2889;fill:#426ac3;fill-opacity:1" />
</svg>
