<?xml version="1.0" encoding="UTF-8" standalone="no"?>
<svg
   width="200mm"
   height="200mm"
   fill="currentColor"
   class="bi bi-boxes"
   viewBox="0 0 200 200"
   version="1.1"
   id="svg1"
   sodipodi:docname="gameIcon.svg"
   inkscape:version="1.2.2 (b0a8486, 2022-12-01)"
   xml:space="preserve"
   xmlns:inkscape="http://www.inkscape.org/namespaces/inkscape"
   xmlns:sodipodi="http://sodipodi.sourceforge.net/DTD/sodipodi-0.dtd"
   xmlns="http://www.w3.org/2000/svg"
   xmlns:svg="http://www.w3.org/2000/svg"><defs
     id="defs1" /><sodipodi:namedview
     id="namedview1"
     pagecolor="#ffffff"
     bordercolor="#000000"
     borderopacity="0.25"
     inkscape:showpageshadow="2"
     inkscape:pageopacity="0.0"
     inkscape:pagecheckerboard="0"
     inkscape:deskcolor="#d1d1d1"
     inkscape:zoom="0.56396485"
     inkscape:cx="339.56017"
     inkscape:cy="442.40346"
     inkscape:window-width="1390"
     inkscape:window-height="1027"
     inkscape:window-x="55"
     inkscape:window-y="25"
     inkscape:window-maximized="0"
     inkscape:current-layer="svg1"
     inkscape:document-units="mm"
     showgrid="false" /><path
     d="m 102.29553,14.531687 c -1.47345,-0.590535 -3.117794,-0.590535 -4.59124,0 l -73.6536,29.45897 29.66876,11.86036 75.94913,-30.37227 z m 43.98483,17.59907 -75.94913,30.37226 29.66882,11.8599 75.94908,-30.37226 z M 93.82932,182.97989 V 85.186367 L 13.61005,53.111097 V 150.89203 Z M 93.12592,3.0664069 c 4.412874,-1.7648338 9.33548,-1.7648338 13.74835,0 l 87.98198,35.1976801 c 2.34036,0.937905 3.87472,3.205273 3.87525,5.72657 V 150.89203 c -0.003,5.04562 -3.07723,9.58123 -7.76276,11.45315 l -88.67312,35.46914 c -1.47345,0.59054 -3.117794,0.59054 -4.59124,0 L 9.04357,162.34518 C 4.3532006,160.47716 1.2735794,155.9407 1.2685,150.89203 V 43.990657 c 5.328e-4,-2.521297 1.5348926,-4.788665 3.87525,-5.72657 z"
     id="path3743"
     style="fill:#426ac3;fill-opacity:1;stroke-width:12.3414"
     sodipodi:nodetypes="ccccccccccccccccccccccccccccc" /></svg>
