<?xml version="1.0" encoding="UTF-8" standalone="no"?>
<svg
   width="200mm"
   height="200mm"
   fill="currentColor"
   class="bi bi-boxes"
   viewBox="0 0 200 200"
   version="1.1"
   id="svg1"
   sodipodi:docname="gamedataIcon.svg"
   inkscape:version="1.2.2 (b0a8486, 2022-12-01)"
   xml:space="preserve"
   xmlns:inkscape="http://www.inkscape.org/namespaces/inkscape"
   xmlns:sodipodi="http://sodipodi.sourceforge.net/DTD/sodipodi-0.dtd"
   xmlns="http://www.w3.org/2000/svg"
   xmlns:svg="http://www.w3.org/2000/svg"><defs
     id="defs1" /><sodipodi:namedview
     id="namedview1"
     pagecolor="#ffffff"
     bordercolor="#000000"
     borderopacity="0.25"
     inkscape:showpageshadow="2"
     inkscape:pageopacity="0.0"
     inkscape:pagecheckerboard="0"
     inkscape:deskcolor="#d1d1d1"
     inkscape:zoom="0.56396485"
     inkscape:cx="336.01385"
     inkscape:cy="444.17662"
     inkscape:window-width="1390"
     inkscape:window-height="1027"
     inkscape:window-x="55"
     inkscape:window-y="25"
     inkscape:window-maximized="0"
     inkscape:current-layer="svg1"
     inkscape:document-units="mm"
     showgrid="false" /><path
     id="path1"
     style="fill:#d269c6;fill-opacity:1;stroke-width:9.92427"
     d="m 50.378107,20.605431 c -16.443106,0 -29.772676,13.329574 -29.772676,29.77268 v 99.243219 c 0,16.4431 13.329572,29.77324 29.772676,29.77324 h 99.243223 c 16.4431,0 29.77324,-13.33014 29.77324,-29.77324 V 50.378111 c 0,-16.443106 -13.33014,-29.77268 -29.77324,-29.77268 z m 9.924605,24.810661 c 8.221546,0 14.886624,6.665074 14.886624,14.886623 0,8.221552 -6.665078,14.886624 -14.886624,14.886624 -8.221544,0 -14.886623,-6.665072 -14.886623,-14.886624 0,-8.221549 6.665079,-14.886623 14.886623,-14.886623 z m 79.394578,0.0057 c 8.21931,0 14.8829,6.661636 14.88604,14.880954 0.003,8.223782 -6.66227,14.892294 -14.88604,14.892294 -8.22378,0 -14.88979,-6.668512 -14.88663,-14.892294 0.003,-8.219318 6.66732,-14.880954 14.88663,-14.880954 z M 60.302712,85.113377 c 8.221546,0 14.886624,6.665073 14.886624,14.886622 0,8.221551 -6.665078,14.886061 -14.886624,14.886061 -8.221544,0 -14.886623,-6.66451 -14.886623,-14.886061 0,-8.221549 6.665079,-14.886622 14.886623,-14.886622 z m 79.394578,0.0057 c 8.21931,0 14.8829,6.661637 14.88604,14.880953 0.003,8.22378 -6.66227,14.8923 -14.88604,14.8923 -8.22378,0 -14.88979,-6.66852 -14.88663,-14.8923 0.003,-8.219316 6.66732,-14.880953 14.88663,-14.880953 z M 60.302712,124.81066 c 8.221546,0 14.886624,6.66508 14.886624,14.88663 0,8.22156 -6.665078,14.88606 -14.886624,14.88606 -8.221544,0 -14.886623,-6.6645 -14.886623,-14.88606 0,-8.22155 6.665079,-14.88663 14.886623,-14.88663 z m 79.394578,0.005 c 8.21931,0 14.8829,6.66164 14.88604,14.88095 0.003,8.2238 -6.66227,14.89173 -14.88604,14.89173 -8.22378,0 -14.88979,-6.66793 -14.88663,-14.89173 0.003,-8.21931 6.66732,-14.88095 14.88663,-14.88095 z" /></svg>
