<?xml version="1.0" encoding="UTF-8" standalone="no"?>
<!-- Created with Inkscape (http://www.inkscape.org/) -->
<svg
      xmlns="http://www.w3.org/2000/svg"
      width="200mm"
      height="200mm"
      version="1.1"
      viewBox="0 0 200 200"
      xmlSpace="preserve"
    >
      <g>
        <g transform="translate(-232.05 76)">
          <path
            fill="none"
            fillOpacity="0"
            strokeLinecap="round"
            strokeLinejoin="round"
            strokeWidth="0.265"
            d="M232.05 -75.999H432.05V124.001H232.05z"
            paintOrder="markers stroke fill"
          ></path>
          <path
            fill="#f79824"
            fillOpacity="1"
            strokeWidth="0.399"
            d="M383.915-69.617c-15.162 12.185-25.33 26.378-33.491 41.363a202.715 202.715 0 0015.365 8.53L401.19-6.146a204.593 204.593 0 0016.56 3.84c5.382-17.118 7.927-34.238 7.752-51.354l-41.588-15.957zm-106.44 1.548l6.038 25.917 27.506 6.534-5.184-25.74zm-7.018 2.731L255.606-46.37l4.93 24.744 15.755-18.664zM281.54-34.96l-14.798 17.54 20.81 3.08c2.89-.842 5.778-1.635 8.664-2.38l11.018-12.131-25.694-6.11zm68.045 14.898l3.501 23.502a167.36 167.36 0 016.834 7.426l35.514 13.626 18.078-20.033C391.682.03 370.304-7.836 349.585-20.063zm-27.96 5.379c-19.677 3.73-39.23 8.736-58.732 17.012 16.286 13.914 30.657 28.868 42.281 45.293l59.522-17.826c-10.585-16.7-26.33-30.726-43.072-44.48zm-66.492 20.19c-8.225 20.06-15.016 40.399-16.544 62.703 9.788 21.1 28.006 36.152 44.187 47.76l16.945-63.21c-11.958-17.096-27.147-32.69-44.588-47.252zm113.838 30.79L306.866 54.9l-16.813 62.72c20.81-3.134 41.484-8.727 62.161-19.253 9.954-21.35 12.169-39.784 16.756-62.068z"
          ></path>
        </g>
      </g>
    </svg>