<?xml version="1.0" encoding="UTF-8" standalone="no"?>
<!-- Created with Inkscape (http://www.inkscape.org/) -->

<svg
   width="200mm"
   height="200mm"
   version="1.1"
   viewBox="0 0 200 200"
   xmlSpace="preserve"
   id="svg3"
   sodipodi:docname="pieceIcon.svg"
   inkscape:version="1.3.2 (091e20e, 2023-11-25, custom)"
   xmlns:inkscape="http://www.inkscape.org/namespaces/inkscape"
   xmlns:sodipodi="http://sodipodi.sourceforge.net/DTD/sodipodi-0.dtd"
   xmlns="http://www.w3.org/2000/svg"
   xmlns:svg="http://www.w3.org/2000/svg">
  <defs
     id="defs3" />
  <sodipodi:namedview
     id="namedview3"
     pagecolor="#ffffff"
     bordercolor="#000000"
     borderopacity="0.25"
     inkscape:showpageshadow="2"
     inkscape:pageopacity="0.0"
     inkscape:pagecheckerboard="0"
     inkscape:deskcolor="#d1d1d1"
     inkscape:document-units="mm"
     inkscape:zoom="0.54021853"
     inkscape:cx="345.23066"
     inkscape:cy="335.97515"
     inkscape:window-width="2560"
     inkscape:window-height="1351"
     inkscape:window-x="-9"
     inkscape:window-y="-9"
     inkscape:window-maximized="1"
     inkscape:current-layer="svg3" />
  <path
     id="path3-8"
     style="fill:#86d9c4;stroke-width:0.206009;stroke-linejoin:round;stroke-dashoffset:318.954;paint-order:markers stroke fill;fill-opacity:1"
     d="M 145.04347,8.5353905 107.10094,51.989133 111.76408,73.397973 93.111077,58.135978 78.697173,61.951475 89.507603,51.77711 83.996372,19.981886 49.975365,14.364648 28.990122,36.515116 34.713371,69.900507 49.339299,72.020273 31.321922,74.98769 8.1113457,144.83144 58.772038,191.46462 127.45012,169.84376 145.4675,104.7696 l -4.45156,-3.17987 16.95772,5.93526 24.80029,-25.224337 9.1147,-54.476195 z m 1.30209,9.3405905 h 8.7e-4 l -4.6e-4,4.48e-4 35.99765,13.811388 c 0.15148,14.815324 -2.05143,29.63418 -6.71,44.45123 A 177.09264,177.09264 0 0 1 161.29933,72.81558 L 130.6568,61.062685 a 175.46707,175.46707 0 0 1 -13.29967,-7.383641 c 7.06395,-12.970601 15.86515,-25.255573 28.98884,-35.802615 z m -92.131987,1.339673 24.548009,5.809131 4.487349,22.280185 -23.809068,-5.655704 z m -6.074831,2.364 L 53.188798,43.2609 39.551411,59.416159 35.284137,37.997928 Z m 9.593313,26.293838 22.240376,5.288916 -9.536956,10.50045 c -2.498078,0.644862 -4.997948,1.331011 -7.499489,2.059834 L 44.923075,63.056759 57.732055,47.874388 Z m 58.898685,12.895759 c 17.93401,10.583492 36.43888,17.392217 55.33457,21.225894 l -15.64802,17.34016 -30.74048,-11.794496 a 144.86431,144.86431 0 0 0 -5.9156,-6.427747 l -3.03047,-20.34292 z M 92.428494,65.425234 C 106.92008,77.330473 120.54859,89.471193 129.71079,103.92643 L 78.189482,119.35617 C 68.127939,105.13895 55.688443,92.195078 41.59156,80.151362 58.472165,72.98778 75.396845,68.654757 92.428944,65.426125 Z M 34.874854,82.902719 C 49.971488,95.50735 63.118884,109.00568 73.469533,123.80371 L 58.802005,178.51742 C 44.796007,168.46973 29.026763,155.44055 20.554433,137.17674 21.87703,117.87091 27.755495,100.2662 34.874854,82.902719 Z m 98.536476,26.650801 -8.6e-4,0.002 c -3.97044,19.28866 -5.88781,35.24497 -14.50382,53.72518 -17.89767,9.11113 -35.792898,13.95201 -53.805688,16.66473 l 14.55302,-54.28921 z" />
  <path
     fill="none"
     fillOpacity="0"
     strokeLinecap="round"
     strokeLinejoin="round"
     strokeWidth="0.265"
     d="m -452.80325,48.59436 h 200 v 200 h -200 z"
     paintOrder="markers stroke fill"
     id="path1-6" />
</svg>
