<?xml version="1.0" encoding="UTF-8" standalone="no"?>
<svg
   width="200mm"
   height="200mm"
   fill="currentColor"
   class="bi bi-people"
   viewBox="0 0 200 200"
   version="1.1"
   id="svg1"
   sodipodi:docname="studioIcon.svg"
   inkscape:version="1.3.2 (091e20e, 2023-11-25, custom)"
   xmlns:inkscape="http://www.inkscape.org/namespaces/inkscape"
   xmlns:sodipodi="http://sodipodi.sourceforge.net/DTD/sodipodi-0.dtd"
   xmlns="http://www.w3.org/2000/svg"
   xmlns:svg="http://www.w3.org/2000/svg">
  <defs
     id="defs1" />
  <sodipodi:namedview
     id="namedview1"
     pagecolor="#ffffff"
     bordercolor="#000000"
     borderopacity="0.25"
     inkscape:showpageshadow="2"
     inkscape:pageopacity="0.0"
     inkscape:pagecheckerboard="0"
     inkscape:deskcolor="#d1d1d1"
     inkscape:document-units="mm"
     inkscape:zoom="0.76398438"
     inkscape:cx="419.5112"
     inkscape:cy="309.5613"
     inkscape:window-width="2560"
     inkscape:window-height="1351"
     inkscape:window-x="-9"
     inkscape:window-y="-9"
     inkscape:window-maximized="1"
     inkscape:current-layer="svg1" />
  <path
     d="m 180.93939,169.37662 c 0,0 11.56278,0 11.56278,-11.56277 0,-11.56277 -11.56278,-46.25108 -57.81385,-46.25108 -46.25109,0 -57.813861,34.68831 -57.813861,46.25108 0,11.56277 11.562771,11.56277 11.562771,11.56277 z M 169.37662,65.311689 c 0.005,19.16109 -15.52723,34.696621 -34.68831,34.696621 -19.16108,0 -34.692911,-15.535531 -34.68831,-34.696621 0.005,-19.154585 15.53374,-34.679967 34.68831,-34.679967 19.15457,0 34.68371,15.525382 34.68831,34.679967 M 87.697212,114.80035 c -4.627909,-1.44638 -9.394695,-2.40361 -14.222207,-2.85601 -2.712944,-0.26457 -5.437522,-0.39192 -8.163316,-0.38157 -46.251083,0 -57.8138542,34.68831 -57.8138542,46.25108 0,7.70851 3.8542572,11.56277 11.5627712,11.56277 h 48.748641 c -1.713323,-3.60999 -2.568135,-7.56746 -2.497558,-11.56277 0,-11.67839 4.359163,-23.61118 12.603418,-33.57829 2.809755,-3.39944 6.082019,-6.57921 9.782105,-9.43521 M 24.841991,71.093074 c 0,-19.157839 15.530486,-34.688298 34.688312,-34.688298 19.157826,0 34.688312,15.530459 34.688312,34.688298 0,19.157839 -15.530487,34.688296 -34.688312,34.688296 -19.157825,0 -34.688312,-15.530457 -34.688312,-34.688296"
     id="path1"
     style="fill:#9e4ddf;fill-opacity:1;stroke-width:11.5628"
     sodipodi:nodetypes="cssscccsssccccsscccccsssc" />
</svg>
