<?xml version="1.0" encoding="UTF-8" standalone="no"?>
<svg
   width="200mm"
   height="200mm"
   fill="currentColor"
   class="bi bi-building"
   viewBox="0 0 200 200"
   version="1.1"
   id="svg2"
   sodipodi:docname="studioIcon.svg"
   inkscape:version="1.3.2 (091e20e, 2023-11-25, custom)"
   xmlns:inkscape="http://www.inkscape.org/namespaces/inkscape"
   xmlns:sodipodi="http://sodipodi.sourceforge.net/DTD/sodipodi-0.dtd"
   xmlns="http://www.w3.org/2000/svg"
   xmlns:svg="http://www.w3.org/2000/svg">
  <defs
     id="defs2" />
  <sodipodi:namedview
     id="namedview2"
     pagecolor="#ffffff"
     bordercolor="#000000"
     borderopacity="0.25"
     inkscape:showpageshadow="2"
     inkscape:pageopacity="0.0"
     inkscape:pagecheckerboard="0"
     inkscape:deskcolor="#d1d1d1"
     inkscape:zoom="0.79756673"
     inkscape:cx="498.3909"
     inkscape:cy="416.89302"
     inkscape:window-width="2560"
     inkscape:window-height="1351"
     inkscape:window-x="-9"
     inkscape:window-y="-9"
     inkscape:window-maximized="1"
     inkscape:current-layer="svg2"
     inkscape:document-units="mm" />
  <g
     id="g3"
     transform="matrix(10.288669,0,0,10.288669,17.690649,17.690649)"
     style="fill:#7f52d1;fill-opacity:1">
    <g
       id="g2"
       style="fill:#7f52d1;fill-opacity:1">
      <path
         d="M 4,2.5 A 0.5,0.5 0 0 1 4.5,2 h 1 A 0.5,0.5 0 0 1 6,2.5 v 1 A 0.5,0.5 0 0 1 5.5,4 h -1 A 0.5,0.5 0 0 1 4,3.5 Z m 3,0 A 0.5,0.5 0 0 1 7.5,2 h 1 A 0.5,0.5 0 0 1 9,2.5 v 1 A 0.5,0.5 0 0 1 8.5,4 h -1 A 0.5,0.5 0 0 1 7,3.5 Z M 10.5,2 A 0.5,0.5 0 0 0 10,2.5 v 1 A 0.5,0.5 0 0 0 10.5,4 h 1 A 0.5,0.5 0 0 0 12,3.5 v -1 A 0.5,0.5 0 0 0 11.5,2 Z M 4,5.5 A 0.5,0.5 0 0 1 4.5,5 h 1 A 0.5,0.5 0 0 1 6,5.5 v 1 A 0.5,0.5 0 0 1 5.5,7 h -1 A 0.5,0.5 0 0 1 4,6.5 Z M 7.5,5 A 0.5,0.5 0 0 0 7,5.5 v 1 A 0.5,0.5 0 0 0 7.5,7 h 1 A 0.5,0.5 0 0 0 9,6.5 v -1 A 0.5,0.5 0 0 0 8.5,5 Z M 10,5.5 A 0.5,0.5 0 0 1 10.5,5 h 1 A 0.5,0.5 0 0 1 12,5.5 v 1 A 0.5,0.5 0 0 1 11.5,7 h -1 A 0.5,0.5 0 0 1 10,6.5 Z M 4.5,8 A 0.5,0.5 0 0 0 4,8.5 v 1 A 0.5,0.5 0 0 0 4.5,10 h 1 A 0.5,0.5 0 0 0 6,9.5 v -1 A 0.5,0.5 0 0 0 5.5,8 Z M 7,8.5 A 0.5,0.5 0 0 1 7.5,8 h 1 A 0.5,0.5 0 0 1 9,8.5 v 1 A 0.5,0.5 0 0 1 8.5,10 h -1 A 0.5,0.5 0 0 1 7,9.5 Z M 10.5,8 A 0.5,0.5 0 0 0 10,8.5 v 1 a 0.5,0.5 0 0 0 0.5,0.5 h 1 A 0.5,0.5 0 0 0 12,9.5 v -1 A 0.5,0.5 0 0 0 11.5,8 Z"
         id="path1"
         style="fill:#7f52d1;fill-opacity:1" />
      <path
         d="M 2,1 A 1,1 0 0 1 3,0 h 10 a 1,1 0 0 1 1,1 v 14 a 1,1 0 0 1 -1,1 H 3 A 1,1 0 0 1 2,15 Z M 13,1 H 3 V 15 H 6 V 12.5 A 0.5,0.5 0 0 1 6.5,12 h 3 A 0.5,0.5 0 0 1 10,12.5 V 15 h 3 z"
         id="path2"
         style="fill:#7f52d1;fill-opacity:1" />
    </g>
  </g>
</svg>
