<?xml version="1.0" encoding="UTF-8" standalone="no"?>
<!-- Created with Inkscape (http://www.inkscape.org/) -->

<svg
   width="61.507999mm"
   height="61.507999mm"
   viewBox="0 0 61.507999 61.508"
   version="1.1"
   id="svg5"
   inkscape:version="1.2.2 (b0a8486, 2022-12-01)"
   sodipodi:docname="oldTutorial.svg"
   xml:space="preserve"
   xmlns:inkscape="http://www.inkscape.org/namespaces/inkscape"
   xmlns:sodipodi="http://sodipodi.sourceforge.net/DTD/sodipodi-0.dtd"
   xmlns="http://www.w3.org/2000/svg"
   xmlns:svg="http://www.w3.org/2000/svg"><sodipodi:namedview
     id="namedview7"
     pagecolor="#ffffff"
     bordercolor="#999999"
     borderopacity="1"
     inkscape:showpageshadow="0"
     inkscape:pageopacity="0"
     inkscape:pagecheckerboard="0"
     inkscape:deskcolor="#d1d1d1"
     inkscape:document-units="mm"
     showgrid="false"
     inkscape:zoom="0.46714868"
     inkscape:cx="185.16589"
     inkscape:cy="360.69887"
     inkscape:window-width="1390"
     inkscape:window-height="997"
     inkscape:window-x="59"
     inkscape:window-y="25"
     inkscape:window-maximized="0"
     inkscape:current-layer="layer1" /><defs
     id="defs2" /><g
     inkscape:label="Layer 1"
     inkscape:groupmode="layer"
     id="layer1"><path
       id="path1126-4"
       style="fill:currentColor;fill-opacity:1;stroke-width:2.00847;stroke-linecap:round;stroke-linejoin:round;paint-order:markers stroke fill"
       d="m 30.45096,0.68044957 -1.97507,0.48421003 -13.76247,3.61115 -7.3499403,1.92753 -3.53518,0.99477 -0.0765,0.58136 1.61489,0.66456 2.20555,0.56534 2.08928,0.5353704 1.7694003,0.45217 0.65061,0.16019 0.0253,0.005 -0.23668,1.14102 0.0253,0.98495 0.10439,3.14761 -0.0269,0.4439 -0.18655,0.10077 -0.38964,0.44907 0.0646,0.5519 0.11162,0.12971 0.21446,0.75293 -0.003,0.0915 -0.21808,0.1385 -0.97668,1.49706 0.0971,0.77567 0.0791,1.80144 -0.0786,1.65261 L 2.6345297,32.23912 30.75374,60.82755 58.87347,32.23912 44.51259,18.1175 c 0.15567,-0.15729 0.15092,-0.14207 0.17364,-3.22513 0.009,-1.16018 0.0121,-2.13606 0.0114,-2.95279 l 0.0315,-0.0109 6.49211,-1.71928 6.38514,-1.6613904 0.0915,-0.11576 0.0579,-0.72657 -0.83302,-0.31781 -1.13016,-0.28215 -1.96113,-0.49868 -1.7694,-0.45113 -1.7694,-0.45062 -1.70532,-0.4346 -1.70532,-0.43408 -1.7694,-0.45114 -1.7694,-0.45165 -1.96112,-0.49971 -1.96112,-0.49868 -1.76941,-0.45217 -1.70532,-0.43408 -1.70584,-0.43357 -1.7694,-0.45165 -1.58491,-0.40411003 z M 30.3352,5.0160996 a 1.593497,0.68855566 0 0 1 1.59319,0.68885 1.593497,0.68855566 0 0 1 -1.59319,0.68833 1.593497,0.68855566 0 0 1 -0.85679,-0.11369 l -0.002,-0.13229 -0.57464,-0.37207 -0.10284,-0.0636 v -0.002 l -0.0506,0.0145 a 1.593497,0.68855566 0 0 1 -0.007,-0.0196 1.593497,0.68855566 0 0 1 1.5937,-0.68885 z m -17.33537,5.8353104 0.1788,0.0377 1.3007,0.38964 2.36471,0.63304 0.0212,0.007 c 0.003,1.04681 0.006,2.27973 0.0103,3.11299 0.0127,2.56438 0.0174,3.02858 0.0522,3.15278 l -2.6479,2.60346 0.0129,-0.53795 -0.0212,-0.54725 -0.94878,-1.10278 -0.21963,-0.1633 0.002,-0.54673 0.14418,-0.22066 0.0258,-0.0258 0.11576,-0.12247 0.12764,-0.39946 -0.36587,-0.60307 -0.20825,-0.13952 0.0129,-0.39274 0.0522,-0.6103 -0.046,-1.73581 -0.0868,-2.34921 z m 17.43924,11.40602 c 0.10436,1.7e-4 0.20922,0.001 0.31471,0.003 12.91786,0.17636 18.40715,9.88932 18.40715,9.88932 0,0 -6.04867,9.72984 -18.40715,9.83971 -12.86539,0.11438 -18.40714,-9.54154 -18.40714,-9.54154 0,0 0.75856,-1.59885 2.49287,-3.52898 l 0.32091,-0.0444 0.29352,-0.2527 -0.0946,-0.26148 c 2.71657,-2.80018 7.4289,-6.02306 14.7681,-6.10092 0.1034,-0.001 0.20725,-0.002 0.3116,-0.002 z m 0.31471,2.85719 a 7.0091839,7.0091839 0 0 0 -7.00887,7.00939 7.0091839,7.0091839 0 0 0 7.00887,7.00939 7.0091839,7.0091839 0 0 0 7.0094,-7.00939 7.0091839,7.0091839 0 0 0 -7.0094,-7.00939 z" /></g></svg>
