<?xml version="1.0" encoding="UTF-8" standalone="no"?>
<!-- Created with Inkscape (http://www.inkscape.org/) -->

<svg
   width="61.507999mm"
   height="61.507999mm"
   viewBox="0 0 61.507999 61.508"
   version="1.1"
   id="svg5"
   inkscape:version="1.2.2 (b0a8486, 2022-12-01)"
   sodipodi:docname="otherQuestion.svg"
   xml:space="preserve"
   xmlns:inkscape="http://www.inkscape.org/namespaces/inkscape"
   xmlns:sodipodi="http://sodipodi.sourceforge.net/DTD/sodipodi-0.dtd"
   xmlns="http://www.w3.org/2000/svg"
   xmlns:svg="http://www.w3.org/2000/svg"><sodipodi:namedview
     id="namedview7"
     pagecolor="#ffffff"
     bordercolor="#999999"
     borderopacity="1"
     inkscape:showpageshadow="0"
     inkscape:pageopacity="0"
     inkscape:pagecheckerboard="0"
     inkscape:deskcolor="#d1d1d1"
     inkscape:document-units="mm"
     showgrid="false"
     inkscape:zoom="2.0102866"
     inkscape:cx="75.362389"
     inkscape:cy="171.86604"
     inkscape:window-width="1390"
     inkscape:window-height="997"
     inkscape:window-x="59"
     inkscape:window-y="25"
     inkscape:window-maximized="0"
     inkscape:current-layer="layer1" /><defs
     id="defs2" /><g
     inkscape:label="Layer 1"
     inkscape:groupmode="layer"
     id="layer1"><path
       id="path1126-4-0"
       style="fill:currentColor;fill-opacity:1;stroke-width:1.84866;stroke-linecap:round;stroke-linejoin:round;paint-order:markers stroke fill"
       d="M 36.665462 4.0963908 L 29.97078 9.2020223 L 28.778605 18.052128 L 36.153866 19.045349 L 37.147087 11.670605 L 51.897607 13.657048 L 49.910649 28.407568 L 44.748173 27.712004 L 38.053491 32.817635 L 36.861316 41.667741 L 44.236576 42.660962 L 45.229797 35.285701 L 50.392273 35.981266 L 57.086955 30.875635 L 59.471305 13.175423 L 54.365674 6.4807414 L 36.665462 4.0963908 z M 24.939046 4.826062 L 1.7523478 32.754073 L 30.153198 56.326278 L 31.653882 54.456108 L 32.445565 48.582048 L 32.572172 47.638436 L 32.906002 45.162101 L 38.50721 45.915544 L 38.899951 45.425651 L 32.980416 44.6288 L 33.914209 37.688656 C 32.289535 38.350725 30.458336 38.84842 28.406535 39.074618 C 16.635649 40.372273 10.665499 32.044556 10.665499 32.044556 C 10.665499 32.044556 14.01336 22.60634 25.624276 21.11189 L 24.894604 21.013704 L 26.740487 7.3241007 L 27.413314 6.8109538 L 24.939046 4.826062 z M 39.93348 16.854785 L 39.115442 22.927799 L 36.839095 22.621358 C 38.893722 23.522714 40.526608 24.648614 41.738021 25.665617 L 43.791125 24.099821 L 46.949072 24.523568 L 47.197119 22.68182 L 39.93348 16.854785 z M 27.76213 23.595459 A 6.451462 6.451462 0 0 0 26.842289 23.622331 A 6.451462 6.451462 0 0 0 21.073649 30.69115 A 6.451462 6.451462 0 0 0 28.141951 36.45979 A 6.451462 6.451462 0 0 0 33.910592 29.391488 A 6.451462 6.451462 0 0 0 27.76213 23.595459 z M 35.868095 49.043001 L 34.874357 56.418262 L 42.249618 57.411483 L 43.243355 50.036222 L 35.868095 49.043001 z " /></g></svg>
