<?xml version="1.0" encoding="UTF-8" standalone="no"?>
<svg
     width="24"
     height="24"
     class="bi topbar-icon bi-file-font-fill"
     viewBox="0 0 16 16"
     version="1.1"
     id="svg1"
     xmlns="http://www.w3.org/2000/svg"
     xmlns:svg="http://www.w3.org/2000/svg">
    <defs
         id="defs1" />
    <path
         id="path1"
         d="M 4 0 A 2 2 0 0 0 2 2 L 2 14 A 2 2 0 0 0 4 16 L 12 16 A 2 2 0 0 0 14 14 L 14 2 A 2 2 0 0 0 12 0 L 4 0 z M 6.9375 3.8763021 C 7.005464 3.8746651 7.0726558 3.8940288 7.1223958 3.9348958 C 7.1885978 3.9892873 7.2732095 4.1222792 7.2734375 4.1744792 C 7.2734975 4.1899662 7.2863154 4.2331613 7.3033854 4.2695312 C 7.3204554 4.3058974 7.3441088 4.3699133 7.3554688 4.4114583 C 7.3860248 4.5232216 7.4406317 4.6922647 7.4635417 4.7460938 C 7.4877287 4.8029169 7.5436987 4.9747227 7.5742188 5.0885417 C 7.5863987 5.1339882 7.6026792 5.1823265 7.6119792 5.1953125 C 7.6212292 5.2082948 7.6388517 5.2553342 7.6510417 5.3007812 C 7.6838557 5.4231654 7.7383775 5.5862279 7.7734375 5.6705729 C 7.7904475 5.7114929 7.8033854 5.7557042 7.8033854 5.7695312 C 7.8033854 5.7833587 7.8179254 5.8297528 7.8346354 5.8723958 C 7.8513454 5.9150387 7.8855283 6.0145359 7.9114583 6.0924479 C 7.9373883 6.1703562 7.9711992 6.2676738 7.9869792 6.3085938 C 8.0027592 6.3495097 8.0169271 6.3915737 8.0169271 6.4023438 C 8.0169271 6.4219256 8.0826088 6.6162209 8.1367188 6.7565104 C 8.1525088 6.7974274 8.1653646 6.8394864 8.1653646 6.8502604 C 8.1653646 6.8677535 8.2260775 7.0529577 8.2734375 7.1783854 C 8.2832375 7.2043537 8.3051146 7.2670704 8.3216146 7.3190104 C 8.3766266 7.4921669 8.4988929 7.8603696 8.5768229 8.0872396 C 8.6191929 8.2105911 8.6535518 8.3286814 8.6536458 8.3502604 C 8.6537368 8.3718386 8.7171018 8.579573 8.7942708 8.8111979 C 8.8714398 9.0428248 8.9506302 9.2853351 8.9713542 9.3502604 C 9.0194602 9.5009488 9.1557664 9.9121196 9.1979167 10.035156 C 9.2157567 10.087095 9.2431946 10.172018 9.2591146 10.223958 C 9.2750346 10.275898 9.3083533 10.376497 9.3333333 10.447917 C 9.3583133 10.519336 9.3892417 10.609488 9.4010417 10.648438 C 9.4128517 10.6874 9.4309962 10.740957 9.4414062 10.766927 C 9.4645643 10.824713 9.5202271 10.999327 9.5481771 11.101562 C 9.5595271 11.143105 9.5818883 11.20713 9.5989583 11.24349 C 9.6160283 11.279854 9.6301173 11.327108 9.6302083 11.348958 C 9.6303573 11.394618 9.6593539 11.405943 9.8268229 11.427083 C 9.9297549 11.440081 9.9606142 11.456176 10.033854 11.535156 C 10.118204 11.626109 10.132296 11.672137 10.122396 11.817708 C 10.116066 11.911077 10.056967 12.014945 9.9791667 12.071615 C 9.9106197 12.121545 9.8870308 12.123698 9.4296875 12.123698 L 8.9518229 12.123698 L 8.8528646 12.019531 L 8.7552083 11.914062 L 8.7643229 11.75651 C 8.7723729 11.616022 8.7801817 11.591804 8.8385417 11.533854 C 8.8746187 11.498034 8.9202442 11.457672 8.9401042 11.445312 C 8.9738242 11.424373 8.9734162 11.415326 8.9414062 11.307292 C 8.9225162 11.243568 8.8992229 11.170501 8.8893229 11.144531 C 8.8430349 11.022571 8.78125 10.834016 8.78125 10.816406 C 8.78125 10.805636 8.7683842 10.763576 8.7526042 10.722656 C 8.6984872 10.58237 8.6328125 10.38807 8.6328125 10.36849 C 8.6328125 10.35772 8.6191046 10.31566 8.6028646 10.27474 C 8.5739276 10.201823 8.4855533 9.938376 8.4270833 9.7513021 C 8.4108433 9.6993629 8.3900083 9.635346 8.3802083 9.609375 C 8.3328493 9.4839514 8.2708333 9.3000451 8.2708333 9.2825521 C 8.2708333 9.2717811 8.2582875 9.2297221 8.2421875 9.1888021 C 8.2260775 9.1478853 8.1957412 9.0630851 8.1757812 9.0013021 L 8.140625 8.8893229 L 6.9257812 8.8958333 L 5.7109375 8.9010417 L 5.6796875 9.0078125 C 5.6621575 9.066432 5.6416146 9.1252198 5.6341146 9.1380208 C 5.6265946 9.1508216 5.6096863 9.1980426 5.5976562 9.2434896 C 5.5856302 9.2889369 5.5368412 9.4378775 5.4882812 9.5742188 C 5.4397252 9.7105597 5.3900762 9.8555894 5.3789062 9.8971354 C 5.3677463 9.9386763 5.345195 10.002702 5.328125 10.039062 C 5.311055 10.075432 5.296946 10.119007 5.296875 10.135417 C 5.296815 10.151817 5.2876817 10.183179 5.2760417 10.205729 C 5.2565817 10.243409 5.0967737 10.709827 5.0273438 10.932292 C 5.0111337 10.984229 4.9889146 11.046947 4.9778646 11.072917 C 4.9524346 11.132677 4.8919188 11.324517 4.8867188 11.360677 C 4.8845588 11.375717 4.9161312 11.41334 4.9570312 11.44401 C 5.0616272 11.522424 5.1112542 11.637248 5.0963542 11.768229 C 5.0818972 11.895341 5.0404408 11.97032 4.9505208 12.03125 C 4.8887468 12.07308 4.841057 12.076732 4.421875 12.076823 C 4.168483 12.076823 3.9376842 12.066868 3.9088542 12.054688 C 3.8800232 12.042503 3.8288529 11.9925 3.7955729 11.94401 C 3.7474129 11.873846 3.7356771 11.832389 3.7356771 11.736979 C 3.7356771 11.521856 3.8598867 11.397802 4.1054688 11.369792 C 4.2109178 11.357762 4.2220433 11.351298 4.2395833 11.286458 C 4.2501233 11.247505 4.2668337 11.193939 4.2773438 11.167969 C 4.3004048 11.110996 4.3570067 10.937254 4.3854167 10.833333 C 4.3967667 10.791791 4.42043 10.727776 4.4375 10.691406 C 4.45457 10.655044 4.4673759 10.608672 4.4674479 10.588542 C 4.4675079 10.568422 4.4758771 10.542278 4.4856771 10.529948 C 4.4954771 10.517611 4.5302 10.421585 4.5625 10.317708 C 4.5948 10.213828 4.6347117 10.095607 4.6510417 10.054688 C 4.6673717 10.013768 4.6809896 9.9717175 4.6809896 9.9609375 C 4.6809896 9.9413565 4.7466713 9.7470567 4.8007812 9.6067708 C 4.8165613 9.5658548 4.8294271 9.5224938 4.8294271 9.5117188 C 4.8294271 9.4942248 4.89014 9.3103232 4.9375 9.1848958 C 4.94731 9.1589238 4.9694471 9.0949047 4.9856771 9.0429688 C 5.0338711 8.888772 5.1291721 8.5995295 5.1575521 8.5234375 C 5.1720921 8.4844824 5.2055508 8.3838812 5.2317708 8.2994792 C 5.2579908 8.2150787 5.2878171 8.1249293 5.2981771 8.0989583 C 5.3184091 8.0482825 6.3024325 5.0925052 6.3515625 4.9348958 C 6.3677525 4.8829558 6.3899396 4.8189367 6.3997396 4.7929688 C 6.4450836 4.6728831 6.5068712 4.4809 6.5195312 4.421875 C 6.5272112 4.386044 6.5416933 4.35089 6.5520833 4.34375 C 6.5625033 4.336615 6.5715046 4.3123216 6.5716146 4.2903646 C 6.5720426 4.2078561 6.67547 4.0071794 6.75 3.9440104 C 6.801084 3.9007114 6.86954 3.8779421 6.9375 3.8763021 z M 6.9257812 5.3242188 C 6.8981673 5.3242188 5.9765625 8.0600111 5.9765625 8.1419271 C 5.9765625 8.1786351 6.049418 8.1809896 6.921875 8.1809896 C 7.691476 8.1809896 7.8671875 8.1751416 7.8671875 8.1497396 C 7.8671875 8.1050432 7.8018179 7.8899113 7.7799479 7.8632812 C 7.7698279 7.8509472 7.7617188 7.8267537 7.7617188 7.8085938 C 7.7617188 7.7904291 7.7488529 7.7414368 7.7330729 7.7005208 C 7.6789559 7.5602346 7.6119792 7.3659362 7.6119792 7.3463542 C 7.6119792 7.3355832 7.5995333 7.2935212 7.5833333 7.2526042 C 7.5671433 7.2116876 7.5316183 7.1091406 7.5052083 7.0247396 C 7.4787983 6.9403386 7.4463717 6.8397353 7.4322917 6.8007812 C 7.3577747 6.5945548 7.3151042 6.4667018 7.3151042 6.4492188 C 7.3151042 6.4384448 7.3014862 6.3963858 7.2851562 6.3554688 C 7.2688263 6.314552 7.2289146 6.1963245 7.1966146 6.0924479 C 7.1643146 5.9885678 7.1308937 5.8925453 7.1210938 5.8802083 C 7.1112637 5.8678743 7.1028646 5.8436858 7.1028646 5.8255208 C 7.1028646 5.8073593 7.0899988 5.7583649 7.0742188 5.7174479 C 7.0116817 5.5553246 6.9544271 5.3817287 6.9544271 5.3541667 C 6.9544271 5.3381877 6.9410312 5.3242188 6.9257812 5.3242188 z M 9.7799479 5.6927083 C 9.8053679 5.6927853 9.8311358 5.7005288 9.8723958 5.7161458 C 9.9939758 5.7621816 10.037581 5.8200253 10.106771 6.0208333 C 10.138091 6.1117308 10.172392 6.2071009 10.182292 6.2330729 C 10.192202 6.2590411 10.236158 6.3923079 10.279948 6.5286458 C 10.323743 6.6649869 10.371367 6.8087023 10.385417 6.8476562 C 10.460925 7.0569729 10.502604 7.1804607 10.502604 7.1979167 C 10.502604 7.2086877 10.51505 7.2520517 10.53125 7.2929688 C 10.54745 7.3338853 10.582965 7.4364283 10.609375 7.5208333 C 10.635785 7.6052344 10.668212 7.7058397 10.682292 7.7447917 C 10.749372 7.9304516 10.798508 8.081381 10.811198 8.140625 C 10.818888 8.176459 10.83336 8.21161 10.84375 8.21875 C 10.85414 8.225886 10.863281 8.2482352 10.863281 8.2682292 C 10.863281 8.2882234 10.876147 8.3379902 10.891927 8.3789062 C 10.946044 8.5191958 11.011719 8.7134929 11.011719 8.7330729 C 11.011719 8.7438439 11.024585 8.7859029 11.040365 8.8268229 C 11.111441 9.0110926 11.160156 9.1660262 11.160156 9.2057292 C 11.160156 9.2294862 11.173904 9.2819997 11.190104 9.3229167 C 11.206304 9.3638328 11.241819 9.4663803 11.268229 9.5507812 C 11.294639 9.6351818 11.327958 9.7357856 11.342448 9.7747396 C 11.356938 9.813697 11.390257 9.9142929 11.416667 9.9986979 C 11.443077 10.083099 11.476265 10.185008 11.490885 10.223958 C 11.505505 10.262913 11.544523 10.379192 11.576823 10.483073 C 11.609123 10.586949 11.642544 10.68168 11.652344 10.69401 C 11.662174 10.70634 11.670573 10.73184 11.670573 10.75 C 11.670573 10.768166 11.684421 10.817153 11.700521 10.858073 C 11.716621 10.898989 11.744611 10.97933 11.763021 11.03776 C 11.881205 11.412873 11.882339 11.415365 11.949219 11.415365 C 12.034988 11.415365 12.138751 11.468529 12.200521 11.542969 C 12.276181 11.634138 12.287698 11.832015 12.223958 11.946615 C 12.139244 12.098926 12.060281 12.124339 11.677083 12.123698 C 11.411872 12.123268 11.327185 12.114785 11.272135 12.084635 C 11.11168 11.996725 11.043663 11.811689 11.108073 11.632812 C 11.127563 11.578682 11.15276 11.533854 11.16276 11.533854 C 11.17276 11.533854 11.189933 11.514273 11.201823 11.489583 C 11.222853 11.445918 11.209586 11.361643 11.160156 11.238281 C 11.149746 11.212313 11.126837 11.149596 11.110677 11.097656 C 11.076425 10.987549 10.741304 9.9806894 10.721354 9.9283854 C 10.713924 9.9089112 10.693039 9.8448923 10.674479 9.7864583 L 10.640625 9.6809896 L 10.257812 9.6679688 C 10.026978 9.6603907 9.8516642 9.6438591 9.8151042 9.6263021 C 9.6376282 9.5410689 9.580064 9.2475159 9.7083333 9.078125 C 9.7797273 8.9838386 9.9405891 8.9361979 10.191406 8.9361979 C 10.303537 8.9361979 10.395833 8.9309571 10.395833 8.9231771 C 10.395833 8.9154001 10.382967 8.8755514 10.367188 8.8346354 C 10.325123 8.725573 10.252847 8.5093512 10.235677 8.4414062 C 10.227477 8.4089442 10.213427 8.3710579 10.204427 8.3580729 C 10.195377 8.3450872 10.177555 8.2980552 10.165365 8.2526042 C 10.132552 8.1302244 10.079321 7.9671605 10.044271 7.8828125 C 10.027261 7.8418957 10.013021 7.7921294 10.013021 7.7721354 C 10.013021 7.7521404 10.005182 7.7297863 9.9947917 7.7226562 C 9.9843917 7.7155213 9.9699396 7.6803622 9.9622396 7.6445312 C 9.9489686 7.5826324 9.8968108 7.4261423 9.8255208 7.2317708 C 9.8076608 7.1830778 9.7857437 7.1432292 9.7773438 7.1432292 C 9.7689338 7.1432292 9.7361371 7.2196611 9.7044271 7.3138021 C 9.6727168 7.4079427 9.6238421 7.5536198 9.5950521 7.6380208 C 9.5662541 7.722422 9.5158829 7.8198247 9.4830729 7.8541667 C 9.4092099 7.9314797 9.2777438 7.9591769 9.1692708 7.9205729 C 8.9886198 7.8562724 8.9258129 7.697386 8.9830729 7.4518229 C 9.0021129 7.3701657 9.0249663 7.2857709 9.0351562 7.2643229 C 9.0453473 7.2428716 9.1276579 6.9966232 9.2174479 6.7174479 C 9.3072359 6.4382692 9.3938962 6.1763337 9.4101562 6.1354167 C 9.4264162 6.0945007 9.4401042 6.0540629 9.4401042 6.0455729 C 9.4401042 6.0065855 9.5254379 5.8276307 9.5611979 5.7916667 C 9.5831329 5.7696057 9.6412942 5.7352818 9.6901042 5.7161458 C 9.7292942 5.7007778 9.7545179 5.6926366 9.7799479 5.6927083 z " />
</svg>
