<?xml version="1.0" encoding="UTF-8" standalone="no"?>
<svg
   width="24"
   height="24"
   className="bi topbar-icon bi-file-image-fill"
   viewBox="0 0 24 24"
   version="1.1"
   id="svg2"
   xmlns="http://www.w3.org/2000/svg"
   xmlns:svg="http://www.w3.org/2000/svg">
  <defs
     id="defs2" />
  <path
     id="path1"
     d="M 6 0 C 4.3431492 0 3 1.3431492 3 3 L 3 18.4375 L 3 20.560547 L 3 20.701172 L 3 21 C 3 22.65685 4.3431492 24 6 24 L 18 24 C 19.65685 24 21 22.65685 21 21 L 21 20.701172 L 21 17.5625 L 21 15.439453 L 21 3 C 21 1.3431492 19.65685 0 18 0 L 6 0 z M 11.142578 2.1660156 C 12.534022 2.1266407 13.887689 2.5281654 15.203125 3.3710938 C 16.830115 4.4071659 17.785037 5.753982 18.070312 7.4082031 C 18.352831 9.0464414 17.784348 10.64216 16.365234 12.195312 C 16.316188 12.244919 15.736624 12.820992 14.626953 13.925781 C 13.916291 14.624372 13.391062 15.246481 13.048828 15.791016 C 12.738282 16.28071 12.35022 16.564599 11.886719 16.644531 C 11.431209 16.723085 11.00365 16.629715 10.603516 16.361328 C 10.202003 16.084949 9.9650447 15.730364 9.890625 15.298828 C 9.7803738 14.659515 10.171951 13.855648 11.066406 12.886719 C 11.901619 12.051442 12.736477 11.212408 13.570312 10.369141 C 14.466147 9.4082025 14.858873 8.6117899 14.75 7.9804688 C 14.621833 7.237268 14.122766 6.6062243 13.251953 6.0898438 C 12.387753 5.5640937 11.547545 5.3731015 10.732422 5.5136719 C 10.300886 5.5880915 9.7516848 5.9374876 9.0859375 6.5625 C 8.418812 7.1795209 7.9308054 7.5146119 7.6191406 7.5683594 C 7.1476477 7.6496696 6.7169858 7.5468923 6.3300781 7.2597656 C 5.9497837 6.9632694 5.723432 6.603232 5.6503906 6.1796875 C 5.5125766 5.380547 6.0869834 4.5275082 7.3710938 3.6230469 C 8.4559738 2.8516922 9.3887173 2.3987296 10.171875 2.2636719 C 10.497025 2.2075988 10.821476 2.1751022 11.142578 2.1660156 z M 11.970703 17.767578 C 12.346491 17.781463 12.674609 17.923059 12.955078 18.189453 C 13.252702 18.483748 13.440977 18.858943 13.519531 19.314453 C 13.603598 19.801929 13.55005 20.279023 13.359375 20.748047 C 13.11745 21.349344 12.697012 21.701327 12.097656 21.804688 C 11.642146 21.883241 11.202553 21.810808 10.777344 21.587891 C 10.314656 21.33852 10.042248 20.979306 9.9609375 20.507812 C 9.867224 19.964397 9.9399636 19.432689 10.179688 18.914062 C 10.465427 18.280522 10.932774 17.908504 11.580078 17.796875 C 11.715932 17.773447 11.84544 17.76295 11.970703 17.767578 z " />
</svg>
