<?xml version="1.0" encoding="UTF-8" standalone="no"?>
<svg
     width="24"
     height="24"
     class="bi topbar-icon bi-file-font-fill"
     viewBox="0 0 16 16"
     version="1.1"
     id="svg1"
     xmlns="http://www.w3.org/2000/svg"
     xmlns:svg="http://www.w3.org/2000/svg">
    <defs
         id="defs1" />
    <path
         id="path1"
         d="M 4 0 A 2 2 0 0 0 2 2 L 2 14 A 2 2 0 0 0 4 16 L 12 16 A 2 2 0 0 0 14 14 L 14 2 A 2 2 0 0 0 12 0 L 4 0 z M 4.8958333 3.9348958 C 4.9188313 3.9348958 4.9527025 3.9389486 4.9986979 3.9466146 L 6.5286458 3.9817708 C 6.6819645 3.9817708 6.8959014 3.9777181 7.171875 3.9700521 C 7.4785126 3.9547201 7.6937516 3.9466146 7.8164062 3.9466146 C 8.5293382 3.9466146 9.0925504 4.1077183 9.5065104 4.4296875 C 9.9281374 4.7439908 10.139323 5.1731667 10.139323 5.7174479 C 10.139323 6.2540633 9.9240846 6.6981483 9.4947917 7.0507812 C 9.0654997 7.3957483 8.4833252 7.5988288 7.7473958 7.6601562 C 7.6784025 7.6678223 7.6391764 7.6799805 7.6315104 7.6953125 C 7.6315104 7.7259765 7.6707365 7.7408854 7.7473958 7.7408854 C 8.5523185 7.8788722 9.1033724 8.1631556 9.4023438 8.5924479 C 9.7089811 9.0140743 9.9120611 9.7803669 10.011719 10.891927 C 10.073045 11.520534 10.288285 11.834635 10.65625 11.834635 C 10.771239 11.834635 10.828125 11.811618 10.828125 11.765625 C 10.828125 11.757958 10.825375 11.751156 10.817708 11.74349 C 10.779382 11.659164 10.759115 11.59012 10.759115 11.536458 C 10.759115 11.375474 10.84437 11.294271 11.013021 11.294271 C 11.197004 11.294271 11.289062 11.390383 11.289062 11.582031 C 11.289062 11.904001 11.02099 12.065104 10.484375 12.065104 C 9.8864314 12.065104 9.4180298 11.815994 9.0807292 11.317708 C 8.9350765 11.103062 8.8389648 10.895929 8.7929688 10.696615 C 8.7546394 10.4973 8.6937003 9.9909739 8.609375 9.1783854 C 8.563379 8.6877656 8.4063282 8.3425434 8.1380208 8.1432292 C 7.8697128 7.936249 7.4324315 7.8252277 6.8268229 7.8098958 L 6.8268229 11.432292 C 6.8268229 11.58561 6.9500027 11.681722 7.1953125 11.720052 C 7.2643059 11.727719 7.4403184 11.735823 7.7239583 11.74349 C 7.8236151 11.74349 7.8736979 11.773309 7.8736979 11.834635 C 7.8736979 11.903629 7.8087061 11.938802 7.6783854 11.938802 L 7.5403646 11.938802 C 7.4713712 11.931135 7.1370053 11.927083 6.5390625 11.927083 C 6.4240735 11.927083 6.2290987 11.931135 5.953125 11.938802 L 5.4244792 11.938802 L 4.9752604 11.938802 C 4.8066098 11.938802 4.7226562 11.903629 4.7226562 11.834635 C 4.7226563 11.780975 4.8336774 11.751156 5.0559896 11.74349 C 5.4162884 11.735823 5.6125654 11.689793 5.6432292 11.605469 C 5.6738932 11.567135 5.6888021 11.416888 5.6888021 11.15625 L 5.6888021 4.8085938 C 5.6888021 4.5019564 5.6536288 4.3178379 5.5846354 4.2565104 C 5.5233081 4.1951831 5.3283332 4.1613119 4.9986979 4.1536458 C 4.8070495 4.1536458 4.7109375 4.1184726 4.7109375 4.0494792 C 4.7109375 3.9728198 4.7731783 3.9348958 4.8958333 3.9348958 z M 7.4830729 4.1770833 C 7.2300968 4.1770833 7.056835 4.2109545 6.9648438 4.2799479 C 6.8728525 4.3489413 6.8268229 4.472121 6.8268229 4.6484375 L 6.8268229 7.5690104 C 7.5627528 7.5766764 8.0920932 7.4426403 8.4140625 7.1666667 C 8.7436972 6.8906931 8.9088542 6.4412532 8.9088542 5.8203125 C 8.9088542 4.724084 8.4336482 4.1770833 7.4830729 4.1770833 z " />
</svg>
