<?xml version="1.0" encoding="UTF-8" standalone="no"?>
<svg
     viewBox="0 0 2625 3300"
     width="2625"
     height="3300"
     version="1.1"
     id="svg203"
     sodipodi:docname="BridgeHookBox54Inside.svg"
     inkscape:version="1.4 (e7c3feb1, 2024-10-09)"
     xmlns:inkscape="http://www.inkscape.org/namespaces/inkscape"
     xmlns:sodipodi="http://sodipodi.sourceforge.net/DTD/sodipodi-0.dtd"
     xmlns="http://www.w3.org/2000/svg"
     xmlns:svg="http://www.w3.org/2000/svg">
    <sodipodi:namedview
         id="namedview203"
         pagecolor="#505050"
         bordercolor="#eeeeee"
         borderopacity="1"
         inkscape:showpageshadow="0"
         inkscape:pageopacity="0"
         inkscape:pagecheckerboard="0"
         inkscape:deskcolor="#d1d1d1"
         inkscape:zoom="0.1928473"
         inkscape:cx="1021.5336"
         inkscape:cy="1825.2783"
         inkscape:window-width="1872"
         inkscape:window-height="1027"
         inkscape:window-x="62"
         inkscape:window-y="25"
         inkscape:window-maximized="1"
         inkscape:current-layer="g203" />
    <defs
         id="defs1">
        <style
             id="style1">.cls-1,.cls-2,.cls-3,.cls-4,.cls-5,.cls-6,.cls-7,.cls-8,.cls-9,.cls-10,.cls-11,.cls-12,.cls-13,.cls-14,.cls-15,.cls-16,.cls-17,.cls-18,.cls-19,.cls-20,.cls-21,.cls-22,.cls-23,.cls-24,.cls-25,.cls-26,.cls-27,.cls-28,.cls-29,.cls-30,.cls-31,.cls-32,.cls-33,.cls-34,.cls-35,.cls-36{fill:none;}.cls-2{stroke-dasharray:4.85 4.85;}.cls-2,.cls-3,.cls-4,.cls-5,.cls-6,.cls-7,.cls-8,.cls-9,.cls-10,.cls-11,.cls-12,.cls-13,.cls-14,.cls-15,.cls-16,.cls-17,.cls-18,.cls-19,.cls-20,.cls-22,.cls-24,.cls-25,.cls-26,.cls-27,.cls-28,.cls-29,.cls-30,.cls-31,.cls-32,.cls-33,.cls-34,.cls-35{stroke-miterlimit:10;}.cls-2,.cls-3,.cls-4,.cls-6,.cls-8,.cls-9,.cls-10,.cls-11,.cls-12,.cls-13,.cls-14,.cls-15,.cls-16,.cls-17,.cls-18,.cls-19,.cls-20,.cls-22,.cls-24,.cls-25,.cls-26,.cls-27,.cls-28,.cls-31,.cls-32,.cls-33,.cls-34{stroke:#26aae1;}.cls-3{stroke-dasharray:4.85 4.85;}.cls-4{stroke-dasharray:4.9 4.9;}.cls-5{stroke:#0baa4b;}.cls-37,.cls-38,.cls-39,.cls-40{fill-rule:evenodd;}.cls-37,.cls-41{fill:#fff;}.cls-42,.cls-43,.cls-44,.cls-45{font-family:Arial-Black, 'Arial Black';font-weight:800;}.cls-42,.cls-44,.cls-45,.cls-46{fill:#231f20;}.cls-6{stroke-dasharray:4.97 4.97;}.cls-7{stroke:#ff0f00;}.cls-8{stroke-dasharray:4.86 4.86;}.cls-9{stroke-dasharray:4.86 4.86;}.cls-10{stroke-dasharray:4.86 4.86;}.cls-11{stroke-dasharray:4.99 4.99;}.cls-12{stroke-dasharray:4.91 4.91;}.cls-13{stroke-dasharray:4.91 4.91;}.cls-14{stroke-dasharray:5 5;}.cls-15{stroke-dasharray:5 5;}.cls-16{stroke-dasharray:4.91 4.91;}.cls-17{stroke-dasharray:5.02 5.02;}.cls-18{stroke-dasharray:5.02 5.02;}.cls-19{stroke-dasharray:5 5;}.cls-20{stroke-dasharray:5.02 5.02;}.cls-21,.cls-23,.cls-29,.cls-35,.cls-36{stroke-width:2px;}.cls-21,.cls-36{stroke:#2ba4dd;}.cls-23{stroke:#ec2224;}.cls-24{stroke-dasharray:4.98 4.98;}.cls-25{stroke-dasharray:4.98 4.98;}.cls-43{fill:#020202;}.cls-43,.cls-44{font-size:12.75px;}.cls-26{stroke-dasharray:4.93 4.93;}.cls-27{stroke-dasharray:4.93 4.93;}.cls-28{stroke-dasharray:4.91 4.91;}.cls-38{fill:#b7d333;}.cls-47{fill:#919396;}.cls-47,.cls-48,.cls-49,.cls-46,.cls-50{font-family:Arial-BoldMT, Arial;font-weight:700;}.cls-47,.cls-48,.cls-49,.cls-50{font-size:9px;}.cls-51{fill:#d0d1d2;}.cls-29{stroke:#0ea94b;}.cls-52{letter-spacing:0em;}.cls-30{stroke:red;}.cls-53{font-size:12.36px;}.cls-54{font-size:14.83px;}.cls-31{stroke-dasharray:5.4 5.4;}.cls-45{font-size:30px;}.cls-55{letter-spacing:0em;}.cls-32{stroke-dasharray:4.95 4.95;}.cls-56{opacity:.5;}.cls-48{fill:#2ba4dd;}.cls-33{stroke-dasharray:5.05 5.05;}.cls-34{stroke-dasharray:5.04 5.04;}.cls-35{stroke:#929395;}.cls-49{fill:#0baa4b;}.cls-36{stroke-dasharray:4.99 4.99;}.cls-57{letter-spacing:-.02em;}.cls-58{letter-spacing:-.02em;}.cls-59{letter-spacing:-.02em;}.cls-60{letter-spacing:-.02em;}.cls-61{letter-spacing:-.02em;}.cls-62{letter-spacing:-.02em;}.cls-63{letter-spacing:-.04em;}.cls-64{letter-spacing:-.04em;}.cls-65{letter-spacing:-.03em;}.cls-66{letter-spacing:-.03em;}.cls-67{letter-spacing:-.03em;}.cls-68{letter-spacing:-.03em;}.cls-69{letter-spacing:0em;}.cls-70,.cls-40{fill:#4e494b;}.cls-46{font-size:10px;}.cls-71{letter-spacing:.03em;}.cls-72{letter-spacing:.02em;}.cls-73{letter-spacing:.05em;}.cls-50{fill:#eb222a;}.cls-74{letter-spacing:.01em;}</style>
    </defs>
    <g
         id="g203"
         transform="matrix(4.1203704,0,0,4.1203704,14.583333,18.333333)">
        <path
             class="cls-56"
             d="M -3.5393275,-4.449443 V 796.44944 H 633.53932 V -4.449443 Z"
             id="path1"
             style="stroke-width:1.01124"
             sodipodi:nodetypes="ccccc" />
        <polyline
             class="cls-22"
             points="385.99 229.33 388.49 229.33 388.49 231.83"
             id="polyline1" />
        <line
             class="cls-16"
             x1="388.48999"
             y1="236.75"
             x2="388.48999"
             y2="460.37"
             id="line1" />
        <polyline
             class="cls-22"
             points="388.49 462.82 388.49 465.32 385.99 465.32"
             id="polyline2" />
        <line
             class="cls-8"
             x1="381.13"
             y1="465.32001"
             x2="247.53999"
             y2="465.32999"
             id="line2" />
        <polyline
             class="cls-22"
             points="245.11 465.33 242.61 465.33 242.61 462.83"
             id="polyline3" />
        <line
             class="cls-12"
             x1="242.61"
             y1="457.91"
             x2="242.61"
             y2="234.28999"
             id="line3" />
        <polyline
             class="cls-22"
             points="242.61 231.83 242.61 229.33 245.11 229.33"
             id="polyline4" />
        <line
             class="cls-8"
             x1="249.97"
             y1="229.33"
             x2="383.56"
             y2="229.33"
             id="line4" />
        <polyline
             class="cls-22"
             points="186.95 229.73 184.45 229.76 184.45 232.26"
             id="polyline5" />
        <line
             class="cls-4"
             x1="184.44"
             y1="237.16"
             x2="184.28999"
             y2="460.16"
             id="line5" />
        <polyline
             class="cls-22"
             points="184.29 462.61 184.29 465.11 186.79 465.12"
             id="polyline6" />
        <line
             class="cls-33"
             x1="191.83"
             y1="465.14999"
             x2="219.59"
             y2="465.29999"
             id="line6" />
        <polyline
             class="cls-22"
             points="222.11 465.31 224.61 465.32 224.61 462.82"
             id="polyline7" />
        <line
             class="cls-12"
             x1="224.61"
             y1="457.91"
             x2="224.61"
             y2="234.28999"
             id="line7" />
        <polyline
             class="cls-22"
             points="224.61 231.83 224.61 229.33 222.11 229.36"
             id="polyline8" />
        <line
             class="cls-20"
             x1="217.09"
             y1="229.41"
             x2="189.46001"
             y2="229.71001"
             id="line8" />
        <polyline
             class="cls-22"
             points="163.79 229.47 166.29 229.33 166.28 231.83"
             id="polyline9" />
        <line
             class="cls-28"
             x1="166.27"
             y1="236.74001"
             x2="165.74001"
             y2="460.23999"
             id="line9" />
        <polyline
             class="cls-22"
             points="165.73 462.7 165.73 465.2 163.23 465.07"
             id="polyline10" />
        <line
             class="cls-6"
             x1="158.25999"
             y1="464.81"
             x2="31.620001"
             y2="458.14001"
             id="line10" />
        <polyline
             class="cls-22"
             points="29.13 458.01 26.64 457.88 26.64 455.38"
             id="polyline11" />
        <line
             class="cls-18"
             x1="26.639999"
             y1="450.35999"
             x2="26.639999"
             y2="242.14"
             id="line11" />
        <polyline
             class="cls-22"
             points="26.64 239.63 26.64 237.13 29.13 236.99"
             id="polyline12" />
        <line
             class="cls-14"
             x1="34.119999"
             y1="236.71001"
             x2="161.3"
             y2="229.61"
             id="line12" />
        <polyline
             class="cls-22"
             points="443.57 229.73 446.07 229.76 446.07 232.26"
             id="polyline13" />
        <line
             class="cls-4"
             x1="446.07001"
             y1="237.16"
             x2="446.22"
             y2="460.16"
             id="line13" />
        <polyline
             class="cls-22"
             points="446.22 462.61 446.23 465.11 443.73 465.12"
             id="polyline14" />
        <line
             class="cls-25"
             x1="438.75"
             y1="465.14999"
             x2="411.38"
             y2="465.29999"
             id="line14" />
        <polyline
             class="cls-22"
             points="408.89 465.31 406.39 465.33 406.39 462.83"
             id="polyline15" />
        <line
             class="cls-12"
             x1="406.39001"
             y1="457.91"
             x2="406.39001"
             y2="234.28999"
             id="line15" />
        <polyline
             class="cls-22"
             points="406.39 231.83 406.39 229.33 408.89 229.36"
             id="polyline16" />
        <line
             class="cls-32"
             x1="413.84"
             y1="229.41"
             x2="441.09"
             y2="229.71001"
             id="line16" />
        <polyline
             class="cls-22"
             points="466.69 229.47 464.19 229.33 464.2 231.83"
             id="polyline17" />
        <line
             class="cls-13"
             x1="464.20999"
             y1="236.75"
             x2="464.73999"
             y2="460.37"
             id="line17" />
        <polyline
             class="cls-22"
             points="464.75 462.83 464.76 465.33 467.25 465.19"
             id="polyline18" />
        <line
             class="cls-24"
             x1="472.22"
             y1="464.91"
             x2="598.98999"
             y2="457.91"
             id="line18" />
        <polyline
             class="cls-22"
             points="601.48 457.77 603.97 457.64 603.97 455.14"
             id="polyline19" />
        <line
             class="cls-17"
             x1="603.96997"
             y1="450.12"
             x2="603.96997"
             y2="241.88"
             id="line19" />
        <polyline
             class="cls-22"
             points="603.97 239.38 603.97 236.88 601.48 236.74"
             id="polyline20" />
        <line
             class="cls-19"
             x1="596.48999"
             y1="236.47"
             x2="469.19"
             y2="229.60001"
             id="line20" />
        <polyline
             class="cls-22"
             points="242.61 208.83 242.61 211.33 245.11 211.33"
             id="polyline21" />
        <line
             class="cls-9"
             x1="249.97"
             y1="211.33"
             x2="383.56"
             y2="211.33"
             id="line21" />
        <polyline
             class="cls-22"
             points="385.99 211.33 388.49 211.33 388.49 208.83"
             id="polyline22" />
        <line
             class="cls-26"
             x1="388.48999"
             y1="203.89999"
             x2="388.48999"
             y2="176.82001"
             id="line22" />
        <path
             class="cls-7"
             d="m 232.86,771.16 c 0,6.39 5.18,11.58 11.58,11.58 h 140.5 c 6.4,0 11.58,-5.19 11.58,-11.58 v 0.36 c 0,0 0.18,-297.19 0.18,-297.19 h 58.32 c 0,0 157.65,-8.01 157.65,-8.01 v -237.6 c 0,0 -157.04,-8.39 -157.04,-8.39 h -58.94 c 0,0 -0.09,0 -0.09,0 v -57.21 c 0,0 0.21,-96.11 0.21,-96.11 C 396.6,45.5 380.6,38.11 369.12,37.34 362,36.86 354.38,37.2 348.66,37.2 v 0 c -6.84,0 -3.46,-8.07 1.37,-5.69 5.99,2.95 14.2,-22.22 -27.18,-22.25 -39.39,-0.03 -33.67,28.29 -41.53,28.04 v 0 c 0,0 -0.42,0.01 -0.42,0.01 h -19.28 c -15.91,0 -28.8,12.89 -28.8,28.8 v 97.01 c 0,0 0,57.21 0,57.21 h -0.12 c 0,0 -58.38,0 -58.38,0 l -156.98,8.12 v 237.6 c 0,0 157.02,8.28 157.02,8.28 h 58.34 c 0,0 0.18,297.19 0.18,297.19 v -0.36 z"
             id="clipping"
             style="fill:#656565;fill-opacity:1;stroke:none" />
        <polyline
             class="cls-22"
             points="388.49 174.35 388.49 171.85 385.99 171.85"
             id="polyline23" />
        <line
             class="cls-10"
             x1="381.13"
             y1="171.85001"
             x2="247.53999"
             y2="171.85001"
             id="line23" />
        <polyline
             class="cls-22"
             points="245.11 171.85 242.61 171.85 242.61 174.35"
             id="polyline24" />
        <line
             class="cls-27"
             x1="242.61"
             y1="179.28"
             x2="242.61"
             y2="206.37"
             id="line24" />
        <polyline
             class="cls-22"
             points="242.73 151.35 242.73 153.85 245.23 153.85"
             id="polyline25" />
        <line
             class="cls-3"
             x1="250.08"
             y1="153.85001"
             x2="383.45999"
             y2="153.85001"
             id="line25" />
        <polyline
             class="cls-22"
             points="385.89 153.85 388.39 153.85 388.39 151.35"
             id="polyline26" />
        <path
             class="cls-11"
             d="M 388.39,146.36 V 69.01 c 0,-8.76 -9.2,-22.64 -25.65,-22.64 h -95.11 c -17.21,0.71 -25.03,14.45 -25.01,23 l 0.11,79.49"
             id="path26" />
        <path
             class="cls-15"
             d="m 278.7,666.33 c 4.62,5.65 16.37,-1.43 40.19,-1.43 26.89,0 40.6,8.03 45.96,1.19 5.69,-7.27 -2.63,-20.28 -43.61,-20.28 -40.98,0 -49.38,12.15 -42.54,20.51 z"
             id="path27" />
        <polyline
             class="cls-22"
             points="388.35 543.43 388.35 540.93 385.85 540.93"
             id="polyline27" />
        <polyline
             class="cls-2"
             points="381.01 540.93 249.47 540.93 247.71 540.93"
             id="polyline28" />
        <polyline
             class="cls-22"
             points="245.29 540.93 242.79 540.93 242.79 543.43"
             id="polyline29" />
        <line
             class="cls-31"
             x1="242.78999"
             y1="548.83002"
             x2="242.78999"
             y2="556.92999"
             id="line29" />
        <polyline
             class="cls-22"
             points="242.79 559.62 242.79 562.12 242.8 562.12 242.8 564.62"
             id="polyline30" />
        <path
             class="cls-34"
             d="m 242.8,569.66 v 197.38 c 0,3.7 2.98,6.69 6.67,6.69 h 132.25 c 3.68,0 6.67,-3 6.67,-6.69 V 547.62 c 0,-0.23 -0.01,-0.47 -0.04,-0.69 v -0.98"
             id="path30" />
        <polyline
             class="cls-22"
             points="242.65 520.43 242.65 522.93 245.15 522.93"
             id="polyline31" />
        <line
             class="cls-9"
             x1="250.00999"
             y1="522.92999"
             x2="383.60001"
             y2="522.92999"
             id="line31" />
        <polyline
             class="cls-22"
             points="386.03 522.93 388.53 522.93 388.53 520.43"
             id="polyline32" />
        <line
             class="cls-26"
             x1="388.53"
             y1="515.5"
             x2="388.53"
             y2="488.41"
             id="line32" />
        <polyline
             class="cls-22"
             points="388.53 485.95 388.53 483.45 386.03 483.45"
             id="polyline33" />
        <line
             class="cls-10"
             x1="381.17001"
             y1="483.45001"
             x2="247.58"
             y2="483.45001"
             id="line33" />
        <polyline
             class="cls-22"
             points="245.15 483.45 242.65 483.45 242.65 485.95"
             id="polyline34" />
        <line
             class="cls-27"
             x1="242.64999"
             y1="490.87"
             x2="242.64999"
             y2="517.96002"
             id="line34" />
        <line
             class="cls-5"
             x1="175.71001"
             y1="474.20001"
             x2="175.71001"
             y2="220.33"
             id="line35" />
        <line
             class="cls-5"
             x1="233.31"
             y1="162.85001"
             x2="397.07999"
             y2="162.85001"
             id="line36" />
        <line
             class="cls-5"
             x1="397.31"
             y1="531.92999"
             x2="233.3"
             y2="531.92999"
             id="line37" />
        <line
             class="cls-5"
             x1="454.89001"
             y1="474.32999"
             x2="454.92001"
             y2="220.33"
             id="line38" />
        <line
             class="cls-5"
             x1="397.29999"
             y1="220.33"
             x2="397.31"
             y2="474.32999"
             id="line39" />
        <line
             class="cls-5"
             x1="233.3"
             y1="220.33"
             x2="397.29999"
             y2="220.33"
             id="line40" />
        <line
             class="cls-5"
             x1="233.3"
             y1="474.32999"
             x2="233.3"
             y2="220.33"
             id="line41" />
        <line
             class="cls-5"
             x1="397.31"
             y1="474.32999"
             x2="233.3"
             y2="474.32999"
             id="line42" />
        <path
             id="Curved_slice"
             class="cls-30"
             d="m 285.29,660.03 c 0,0 6.54,-5.39 36,-5.39 29.46,0 36,5.39 36,5.39" />
        <line
             class="cls-29"
             x1="397.31"
             y1="366.48001"
             x2="308.57999"
             y2="366.48001"
             id="line43" />
        <line
             class="cls-21"
             x1="388.53"
             y1="253.17"
             x2="386.03"
             y2="253.17"
             id="line46" />
        <line
             class="cls-36"
             x1="381.03"
             y1="253.17"
             x2="313.66"
             y2="253.17"
             id="line47" />
        <line
             class="cls-21"
             x1="311.17001"
             y1="253.17"
             x2="308.67001"
             y2="253.17"
             id="line48" />
    </g>
</svg>
