<?xml version="1.0" encoding="UTF-8" standalone="no"?>
<svg
     version="1.1"
     x="0px"
     y="0px"
     width="375"
     height="900"
     viewBox="0 0 375 900"
     enable-background="new 0 0 90 216"
     xml:space="preserve"
     id="svg179"
     sodipodi:docname="BullseyeChit.svg"
     inkscape:version="1.4 (e7c3feb1, 2024-10-09)"
     xmlns:inkscape="http://www.inkscape.org/namespaces/inkscape"
     xmlns:sodipodi="http://sodipodi.sourceforge.net/DTD/sodipodi-0.dtd"
     xmlns="http://www.w3.org/2000/svg"
     xmlns:svg="http://www.w3.org/2000/svg"><defs
     id="defs179">
	
	
	
	
	

	
	
	
	
	
	
	
	
	

		
	
		
		
		
		
		
		
	
		
	
		
	
		
	
			
			
			
		
			
			
			
			
			
			
		
			
		
				
				
				
				
			
				
				
				
				
				
				
				
			
				
				
				
			
				
				
				
				
				
				
				
				
				
				
				
				
				
				
				
				
				
				
				
				
				
				
				
				
				
				
				
				
				
				
				
				
				
				
				
				
				
				
				
				
				
				
				
				
				
				
				
				
				
				
				
				
				
				
				
				
				
				
				
				
				
				
				
				
				
				
				
				
				
				
				
				
				
				
				
				
				
				
				
				
				
				
				
				
				
				
				
				
				
				
				
				
				
				
				
				
				
				
			
					
					
					
				
					
					
					
				
					
					
					
					
				
					
					
					
				
					
					
				
					
					
					
				
					
					
				
						
						
					
						
						
					
						
						
						
						
						
					
						
						
					
							
							
						
							
							
							
							
						
							
							
							
						
							
							
						
								
								
								
							
								
								
								
								
							
								
								
							
									
									
									
									
									
									
									
								
									
									
									
									
								
									
									
									
								</defs><sodipodi:namedview
     id="namedview179"
     pagecolor="#505050"
     bordercolor="#eeeeee"
     borderopacity="1"
     inkscape:showpageshadow="0"
     inkscape:pageopacity="0"
     inkscape:pagecheckerboard="0"
     inkscape:deskcolor="#d1d1d1"
     inkscape:zoom="0.70710678"
     inkscape:cx="66.468037"
     inkscape:cy="329.51176"
     inkscape:window-width="1872"
     inkscape:window-height="1027"
     inkscape:window-x="62"
     inkscape:window-y="25"
     inkscape:window-maximized="1"
     inkscape:current-layer="svg179" />

<polygon
     fill="#757a79"
     points="90.215,215.805 90.215,0.235 0.215,0.235 0.215,215.805 "
     id="polygon1"
     transform="matrix(4.1666667,0,0,4.1666667,-0.89583484,-0.08333693)" /><path
     id="clipping"
     style="stroke-width:4.16667;stroke:none"
     d="M 187.5 38.396484 A 75 75 0 0 0 112.5 113.39648 A 75 75 0 0 0 187.5 188.39648 A 75 75 0 0 0 262.5 113.39648 A 75 75 0 0 0 187.5 38.396484 z M 187.5 263.39648 C 125.37083 263.39648 75 313.76315 75 375.89648 C 75 438.02982 125.37083 488.39648 187.5 488.39648 C 249.62917 488.39248 300 438.02982 300 375.89648 C 300 313.76315 249.63333 263.39648 187.5 263.39648 z M 187.5 300.89648 C 228.92083 300.89648 262.5 334.47565 262.5 375.89648 C 262.5 417.31732 228.92083 450.89648 187.5 450.89648 C 146.07917 450.89648 112.5 417.31732 112.5 375.89648 C 112.5 334.47565 146.07917 300.89648 187.5 300.89648 z M 187.5 563.39258 C 104.65833 563.39258 37.5 630.54674 37.5 713.39258 C 37.5 796.23841 104.65833 863.39258 187.5 863.39258 C 270.34167 863.39258 337.5 796.23841 337.5 713.39258 C 337.5 630.54674 270.34583 563.39258 187.5 563.39258 z M 187.5 600.89258 C 249.63333 600.89258 300 651.25924 300 713.39258 C 300 775.52591 249.63333 825.89258 187.5 825.89258 C 125.36667 825.89258 75 775.52591 75 713.39258 C 75 651.25924 125.36667 600.89258 187.5 600.89258 z " /><circle
     fill="#ffffff"
     stroke="#ca0e23"
     cx="187.5"
     cy="113.39584"
     r="75"
     id="circle1"
     style="stroke-width:4.16667;stroke:none" /><path
     fill="#ffffff"
     stroke="#ca0e23"
     d="m 300,375.89583 c 0,-62.13333 -50.36667,-112.5 -112.5,-112.5 -62.12917,0 -112.500001,50.36667 -112.500001,112.5 0,62.13334 50.370831,112.5 112.500001,112.5 62.12917,-0.004 112.5,-50.36666 112.5,-112.5 z m -187.5,0 c 0,-41.42083 33.57917,-75 75,-75 41.42083,0 75,33.57917 75,75 0,41.42084 -33.57917,75 -75,75 -41.42083,0 -75,-33.57916 -75,-75 z"
     id="path1"
     style="stroke-width:4.16667;stroke:none" /><path
     fill="#ffffff"
     stroke="#ca0e23"
     d="m 337.5,713.39167 c 0,-82.84584 -67.15417,-150 -150,-150 -82.84167,0 -150.000001,67.15416 -150.000001,150 0,82.84583 67.158331,150 150.000001,150 82.84167,0 150,-67.15417 150,-150 z m -262.500001,0 c 0,-62.13334 50.366671,-112.5 112.500001,-112.5 62.13333,0 112.5,50.36666 112.5,112.5 0,62.13333 -50.36667,112.5 -112.5,112.5 -62.13333,0 -112.500001,-50.36667 -112.500001,-112.5 z"
     id="path2"
     style="stroke-width:4.16667;stroke:none" /><circle
     fill="none"
     stroke="#2988bf"
     stroke-dasharray="8.33333"
     cx="187.5"
     cy="113.39584"
     r="37.5"
     id="circle2"
     style="stroke-width:4.16667" /><line
     fill="none"
     stroke="#2988bf"
     stroke-dasharray="8.33333"
     x1="149.99583"
     y1="109.37917"
     x2="148.59583"
     y2="109.37917"
     id="line2"
     style="stroke-width:4.16667" /><line
     fill="none"
     stroke="#2988bf"
     stroke-dasharray="8.33333"
     x1="36.199997"
     y1="109.37917"
     x2="34.799999"
     y2="109.37917"
     id="line4"
     style="stroke-width:4.16667" />
</svg>
