<?xml version="1.0" encoding="UTF-8" standalone="no"?>
<svg version="1.1" x="0px" y="0px" viewBox="0 0 900 1500" enable-background="new 0 0 216 360" xml:space="preserve" width="900" height="1500" id="svg928" sodipodi:docname="CardCraftingDeck.svg" inkscape:version="1.4 (e7c3feb1, 2024-10-09)" xmlns:inkscape="http://www.inkscape.org/namespaces/inkscape" xmlns:sodipodi="http://sodipodi.sourceforge.net/DTD/sodipodi-0.dtd" xmlns="http://www.w3.org/2000/svg" xmlns:svg="http://www.w3.org/2000/svg"><g transform="translate(-5.684341886080802e-14, 0) scale(4.166666666666667)"><defs id="defs928">
	
	
	
	
		
	
		
	
	
	
	
	
	
	
	
	
	

		
		
		
		
		
		
		
		
		
		
		
		
		
		
		
		
		
		
		
		
		
		
		
		
		
		
		
		
		
		
		
		
		
		
		
		
		
		
		
		
		
		
		
		
		
		
		
		
		
		
		
		
		
		
		
		
		
		
		
		
		
		
		
		
		
		
		
		
		
		
		
		
		
		
		
		
		
		
		
		
		
		
		
		
		
		
		
		
		
		
		
		
		
		
		
		
		
		
		
		
		
		
		
		
		
		
		
		
		
		
		
		
		
		
		
		
		
		
		
		
		
		
		
		
		
		
		
		
		
		
		
		
		
		
		
		
		
		
		
		
		
		
		
		
		
		
		
		
		
		
		
		
		
		
		
		
		
		
		
		
		
		
		
		
		
		
		
		
		
		
		
		
		
		
		
		
		
		
		
		
		
		
		
		
		
		
		
		
		
		
		
		
		
		
		
		
		
		
		
		
		
		
		
		
		
		
		
		
		
		
		
		
		
		
		
		
		
		
		
		
		
		
		
		
		
		
		
		
		
		
		
		
		
		
		
		
		
		
		
		
		
		
		
		
		
		
		
		
		
		
		
		
		
		
		
		
		
		
		
		
		
		
		
		
		
		
		
		
		
		
		
		
		
		
		
		
		
		
		
		
		
		
		
		
		
		
		
		
		
		
		
		
		
		
		
		
		
		
		
		
		
		
		
		
		
		
		
		
		
		
		
		
		
		
		
		
		
		
		
		
		
		
		
		
		
		
		
		
		
		
		
		
		
		
		
		
		
		
		
		
		
		
		
		
		
		
		
		
		
		
		
		
		
		
		
		
		
		
		
		
		
		
		
		
		
		
		
		
		
		
		
		
		
		
		
		
		
		
		
		
		
		
		
		
		
		
		
		
		
		
		
		
		
		
		
		
		
		
		
		
		
		
		
		
		
		
		
		
		
		
		
		
		
		
		
		
		
		
		
		
		
		
		
		
		
		
		
		
		
		
		
		
		
		
		
		
		
		
		
		
		
		
		
		
		
		
		
		
		
		
		
		
		
		
		
		
		
		
		
		
		
		
		
		
		
		
		
		
		
		
		
		
		
		
		
		
		
		
		
		
		
		
		
		
		
		
		
		
		
		
		
		
		
		
		
		
		
		
		
		
		
		
		
		
		
		
		
		
		
		
		
		
		
		
		
		
		
		
		
		
		
		
		
		
		
		
		
		
		
		
		
		
		
		
		
		
		
		
		
		
		
		
		
		
		
		
		
		
		
		
		
		
		
		
		
		
		
		
		
		
		
		
		
		
		
		
		
		
		
		
		
		
		
		
		
		
		
		
		
		
		
		
		
		
		
		
		
		
		
		
		
		
		
		
		
		
		
		
		
		
		
		
		
		
		
		
		
		
		
		
		
		
		
		
		
		
		
		
		
		
		
		
		
		
		
		
		
		
		
		
		
		
		
		
		
		
		
		
		
	
		
	
		
	
		
		
		
		
	
		
	
		
	
		
	
		
	
		
			
		
		
	
			
			
			
			
			
			
			
			
			
			
			
			
			
			
			
			
			
			
			
			
			
			
			
			
			
			
			
			
			
			
			
			
			
			
			
			
			
			
			
			
			
			
			
			
			
			
			
			
			
			
			
			
			
			
			
			
			
			
			
			
			
			
			
			
			
			
			
			
			
			
			
			
			
			
			
			
			
			
			
			
			
			
			
			
			
			
			
			
			
			
			
			
			
			
			
			
			
			
			
			
			
			
			
			
			
			
			
			
			
			
		
			
		
			
			
			
			
			
			
		
				
				
				
			
				
				
				
				
				
				
				
			
				
				
				
				
			
				
				
				
				
				
				
				
				
				
				
				
				
				
				
				
				
				
				
				
				
				
				
				
				
				
				
				
				
				
				
				
				
				
				
				
				
				
				
				
				
				
				
				
				
				
				
				
				
				
				
				
				
				
				
				
				
				
				
				
				
				
				
				
				
				
				
				
				
				
				
				
				
				
				
				
				
				
				
				
				
				
				
				
				
				
				
				
				
				
				
				
				
				
				
				
				
				
				
			
					
					
				
					
					
					
				
					
					
					
				
					
					
				
					
					
					
				
					
					
					
					
				
					
					
					
				
						
						
						
						
						
					
						
						
					
						
						
					
						
						
					
							
							
							
							
						
							
							
						
							
							
						
							
							
							
						
								
								
							
								
								
								
							
								
								
								
								
							
									
									
									
									
								
									
									
									
									
									
									
									
								
									
									
									
								
										
										
									
										
										
										
										
										
									</defs><sodipodi:namedview id="namedview928" pagecolor="#505050" bordercolor="#eeeeee" borderopacity="1" inkscape:showpageshadow="0" inkscape:pageopacity="0" inkscape:pagecheckerboard="0" inkscape:deskcolor="#d1d1d1" inkscape:zoom="0.3" inkscape:cx="-116.66667" inkscape:cy="616.66667" inkscape:window-width="1872" inkscape:window-height="1027" inkscape:window-x="62" inkscape:window-y="25" inkscape:window-maximized="1" inkscape:current-layer="svg928"/>
<path id="Bleed"d="M 0,0 V 1500 H 899.99999 V 0 Z" style="stroke-width:4.16667;fill:#0f0f0f;fill-opacity:1" sodipodi:nodetypes="ccccc"/><path fill="none" stroke="#ec2224" stroke-miterlimit="10" d="M 848.62082,79.724999 V 1420.275 c 0,19.5708 -15.8625,35.4333 -35.43333,35.4333 H 86.812499 c -19.570833,0 -35.433333,-15.8625 -35.433333,-35.4333 V 79.724999 c 0,-19.570833 15.8625,-35.433333 35.433333,-35.433333 H 813.19165 c 19.56667,0 35.42917,15.8625 35.42917,35.433333 z" id="clipping" style="stroke-width:4.16667;stroke:none;fill:#666666;fill-opacity:1"/><path fill="none" stroke="#27aae1" stroke-miterlimit="10" stroke-dasharray="6" d="M 811.12915,117.23333 V 1382.7791 c 0,19.5709 -15.8625,35.4334 -35.43333,35.4334 H 124.3125 c -19.57084,0 -35.433335,-15.8625 -35.433335,-35.4334 V 117.23333 c 0,-19.570832 15.862495,-35.433331 35.433335,-35.433331 h 651.38332 c 19.56667,0 35.43333,15.862499 35.43333,35.433331 z" id="path924" style="stroke-width:4.16667;fill:#b5b5b5;fill-opacity:1;stroke:none"/>
<g id="Overlay" display="none">
	<path display="inline"fill="#ED1C24" d="M0,0v360h216V0H0z M203.669,340.874c0,4.692-3.804,8.496-8.496,8.496   H20.827c-4.692,0-8.496-3.804-8.496-8.496V19.126c0-4.692,3.804-8.496,8.496-8.496h174.347c4.692,0,8.496,3.804,8.496,8.496   V340.874z" id="path925"/>
	<g id="clipping_00000126283147732983047320000004717548950533054604_" display="inline">
		<path fill="none" stroke="#EC2224" stroke-miterlimit="10" d="M203.669,19.134v321.732c0,4.697-3.807,8.504-8.504,8.504H20.835    c-4.697,0-8.504-3.807-8.504-8.504V19.134c0-4.697,3.807-8.504,8.504-8.504h174.331C199.862,10.63,203.669,14.437,203.669,19.134z    " id="path926"/>
	</g>
	<g id="clipping_00000039113944237752432880000008967553650701058190_" display="inline">
		<path fill="none" stroke="#27AAE1" stroke-miterlimit="10" stroke-dasharray="1.44" d="M194.671,28.136v303.731    c0,4.697-3.807,8.504-8.504,8.504H29.835c-4.697,0-8.504-3.807-8.504-8.504V28.136c0-4.697,3.807-8.504,8.504-8.504h156.332    C190.863,19.632,194.671,23.439,194.671,28.136z" id="path927"/>
	</g>
</g>
<g id="Mask" display="none">
	<rect display="inline" width="216" height="360" id="rect927"/>
	<g id="clipping_00000021082898553682244140000010821186169106590603_" display="inline">
		<path fill="#FFFFFF" d="M203.669,19.134v321.732c0,4.697-3.807,8.504-8.504,8.504H20.835c-4.697,0-8.504-3.807-8.504-8.504V19.134    c0-4.697,3.807-8.504,8.504-8.504h174.331C199.862,10.63,203.669,14.437,203.669,19.134z" id="path928"/>
	</g>
</g>
</g></svg>