<svg id="a" xmlns="http://www.w3.org/2000/svg" viewBox="0 0 750 1050" width="750" height="1050"><defs><style>.b{letter-spacing:-.02em;}.c{letter-spacing:.05em;}.d{font-size:3.48px;}.e{letter-spacing:0em;}.f{fill:#e6e5e5;}.g,.h{fill:#fff;}.i{fill:#e7242c;}.j{fill:#4c4849;}.k,.l,.m,.n,.o{font-family:Arial-BoldMT, Arial;}.k,.o,.p{fill:#231f20;}.q{letter-spacing:-.04em;}.r{letter-spacing:-.04em;}.s{letter-spacing:-.04em;}.t{letter-spacing:-.04em;}.u{letter-spacing:-.07em;}.v{letter-spacing:-.06em;}.l{fill:red;}.l,.m,.n,.o{font-size:4.46px;}.m{fill:#ed2224;}.n{fill:#2ca1da;}.w{font-size:4.97px;}.x{stroke:#2ba3dc;stroke-dasharray:0 5;}.x,.y,.a`,.aa{fill:none;}.y{stroke-dasharray:0 0 20 .07;}.y,.aa{stroke:red;}.p,.ab{font-family:Arial-Black, Arial Black;font-size:5.1px;}.ab{fill:#221f1f;}.ac{fill:#b6d233;}.ac,.h,.ad{fill-rule:evenodd;}.a`{stroke:#00aced;stroke-dasharray:0 0 5.14 5.14;stroke-miterlimit:10;}.ae{letter-spacing:-.02em;}.af{letter-spacing:-.02em;}.ag{letter-spacing:.01em;}</style></defs><rect class="a`" x="9" y="9" width="162" height="234"></rect><line class="aa" x1="44.21" y1="36.3" x2="180.12" y2="36.3"></line><path class="i" d="M48.17,31.25c0,.24-.11,.48-.33,.71l-.03,.04-1.94,2.04c-.41,.43-.76,.77-1.05,1-.29,.23-.5,.35-.61,.35-.13,0-.28-.06-.47-.18-.18-.12-.31-.24-.36-.36-.04-.1-.09-.33-.13-.67-.04-.33-.06-.7-.06-1.1,0-.22,.09-.42,.27-.6,.18-.18,.38-.28,.59-.28s.33,.19,.37,.57c0,.04,0,.07,.01,.1,.03,.29,.07,.49,.12,.61,.05,.12,.1,.17,.18,.17,.03,0,.09-.04,.17-.1,.09-.07,.19-.16,.31-.28l1.99-1.97c.17-.17,.31-.29,.45-.38,.13-.08,.24-.13,.34-.13,.07,0,.12,.03,.15,.08,.03,.05,.04,.14,.04,.26v.1Z"></path><g><line class="x" x1="171" y1="80.25" x2="165.24" y2="80.25"></line><line class="x" x1="163.88" y1="80.59" x2="46.74" y2="80.59"></line><line class="x" x1="45.25" y1="80.59" x2="43.74" y2="80.59"></line></g><line class="y" x1="43.74" y1="118.6" x2="156.99" y2="118.6"></line><path class="i" d="M48.17,114.16c0,.24-.11,.48-.33,.71l-.03,.04-1.94,2.04c-.41,.43-.76,.77-1.05,1-.29,.23-.5,.35-.61,.35-.13,0-.28-.06-.47-.18-.18-.12-.31-.24-.36-.36-.04-.1-.09-.33-.13-.67-.04-.33-.06-.7-.06-1.1,0-.22,.09-.42,.27-.6,.18-.18,.38-.28,.59-.28s.33,.19,.37,.57c0,.04,0,.08,.01,.1,.03,.29,.07,.49,.12,.61,.05,.12,.1,.17,.18,.17,.03,0,.09-.04,.17-.1,.09-.07,.19-.16,.31-.28l1.99-1.97c.17-.17,.31-.29,.45-.38,.13-.08,.24-.13,.34-.13,.07,0,.12,.03,.15,.08,.03,.05,.04,.14,.04,.26v.11Z"></path><path class="i" d="M48.17,76.11c0,.24-.11,.48-.33,.71l-.03,.04-1.94,2.04c-.41,.43-.76,.77-1.05,1-.29,.23-.5,.35-.61,.35-.13,0-.28-.06-.47-.18-.18-.12-.31-.24-.36-.36-.04-.1-.09-.33-.13-.67-.04-.33-.06-.7-.06-1.1,0-.22,.09-.42,.27-.6,.18-.18,.38-.28,.59-.28s.33,.19,.37,.57c0,.04,0,.07,.01,.1,.03,.29,.07,.49,.12,.61,.05,.12,.1,.17,.18,.17,.03,0,.09-.04,.17-.1,.09-.07,.19-.16,.31-.28l1.99-1.97c.17-.17,.31-.29,.45-.38,.13-.08,.24-.13,.34-.13,.07,0,.12,.03,.15,.08,.03,.05,.04,.14,.04,.26v.1Z"></path><line class="aa" x1="44.21" y1="49.25" x2="151.41" y2="49.25"></line><path class="i" d="M48.17,44.2c0,.24-.11,.48-.33,.71l-.03,.04-1.94,2.04c-.41,.43-.76,.77-1.05,1-.29,.23-.5,.35-.61,.35-.13,0-.28-.06-.47-.18-.18-.12-.31-.24-.36-.36-.04-.1-.09-.33-.13-.67-.04-.33-.06-.7-.06-1.1,0-.22,.09-.42,.27-.6,.18-.18,.38-.28,.59-.28s.33,.19,.37,.57c0,.04,0,.07,.01,.1,.03,.29,.07,.49,.12,.61,.05,.12,.1,.17,.18,.17,.03,0,.09-.04,.17-.1,.09-.07,.19-.16,.31-.28l1.99-1.97c.17-.17,.31-.29,.45-.38,.13-.08,.24-.13,.34-.13,.07,0,.12,.03,.15,.08,.03,.05,.04,.14,.04,.26v.11Z"></path><g><rect class="f" x="78.59" y="12.65" width="86.65" height="18.92"></rect><g><path class="ad" d="M98.16,22.1c0,4.71-3.82,8.53-8.52,8.53s-8.52-3.82-8.52-8.53,3.82-8.53,8.52-8.53,8.52,3.82,8.52,8.53"></path><path class="ac" d="M97.39,22.15c0,4.28-3.47,7.75-7.75,7.75s-7.75-3.47-7.75-7.75,3.47-7.75,7.75-7.75,7.75,3.47,7.75,7.75"></path><path d="M87.98,20.45c-.11,.95-.19,1.71-.24,2.29l-.35,.02s0-.04,0-.06c0-.04-.01-.1-.05-.17-.03-.07-.05-.12-.05-.13-.09,.01-.18,.08-.26,.19-.08,.11-.16,.17-.23,.17-.04,0-.08-.01-.13-.03-.06,.04-.14,.06-.24,.05-.09-.02-.18-.03-.27-.04,0-.12-.12-.23-.35-.32,0-.05-.02-.12-.07-.21-.05-.09-.07-.16-.07-.2,0-.04,.02-.08,.05-.11,0-.01-.04-.1-.12-.27-.05-.12-.08-.23-.07-.31,0-.07,.02-.13,.04-.19-.04-.41-.06-.76-.05-1.05,0-.45,.07-.87,.2-1.25,0-.06-.01-.12-.01-.17,0-.3,.11-.51,.31-.63v-.09c.2-.26,.47-.44,.8-.56,.2,.05,.39,.09,.59,.13,.22,.08,.37,.21,.46,.39,.07,.04,.1,.12,.1,.24,0,.13,.01,.22,.05,.26l-.04,.04c.04,.28,.06,.46,.06,.52,0,.18-.05,.31-.15,.39-.03,0-.12-.03-.26-.09-.03,.03-.07,.05-.11,.05-.02,0-.05-.01-.1-.03-.05-.02-.09-.03-.13-.03-.02,0-.05,0-.07,.01,0-.38,0-.66,.04-.85-.04-.02-.08-.08-.12-.17-.04-.09-.09-.14-.15-.15-.04,.05-.06,.08-.05,.09l-.13-.05c-.12,.13-.2,.35-.23,.67-.04,.36-.09,.61-.15,.73,.05,.06,.08,.13,.08,.22,0,.03,0,.09-.02,.17-.01,.08-.02,.13-.02,.17,0,.04,0,.08,.01,.12l-.09,.08c.04,.16,.06,.37,.06,.62,0,.21,0,.42,0,.63,0,0-.05,0-.12,0-.05,0-.08,.02-.1,.05,.03,0,.06,0,.08,0,.11,0,.19,.08,.25,.22,.06,.15,.11,.22,.16,.22,.05,0,.11-.04,.2-.13,.14-.15,.21-.36,.22-.62,0-.13-.01-.27-.04-.42-.03,.02-.05,.07-.05,.14-.08,0-.13,.01-.14,.05-.03-.01-.05-.04-.04-.08,0-.06,0-.1,0-.1,.06-.02,.09-.04,.09-.08,0-.02,0-.04-.03-.08-.02-.04-.03-.07-.03-.09,0-.02,0-.04,.02-.06l.03-.28c.1,.03,.33,.04,.68,.04-.01,.02,0,.06,.04,.09,.03-.03,.07-.05,.11-.05,.03,0,.07,.01,.13,.04,.06,.03,.1,.04,.12,.04"></path><path d="M90.67,22.94c-.07-.03-.14-.05-.21-.05-.07,0-.16,.01-.27,.04-.13,.03-.22,.04-.27,.05-.05-.1-.09-.24-.11-.42-.04-.26-.06-.41-.07-.44,.01-.03,.02-.05,.02-.07,0-.05-.04-.1-.12-.14-.08-.04-.13-.08-.12-.1,0-.03,.05-.07,.15-.13-.02-.03-.04-.09-.05-.18-.01-.09-.03-.15-.07-.18-.06,.05-.15,.09-.29,.1-.13,.01-.22,.04-.26,.06,0,.38-.06,.63-.19,.75-.07-.01-.12,.01-.15,.08-.05,.08-.09,.13-.12,.14l.04,.05s-.1,.05-.19,.04c-.13,0-.21-.01-.22-.01l-.04-.13,.47-3.9c0-.24,.02-.41,.04-.5,0-.22,.04-.35,.15-.4,.07,.04,.15,.07,.25,.07,.08,0,.21-.01,.38-.05,.17-.04,.29-.05,.36-.05,.24,0,.34,.17,.31,.51-.02,.27,.02,.62,.13,1.06,.11,.47,.16,.83,.16,1.06,0,.07,.02,.22,.02,.29-.1,.06-.23,.09-.39,.1-.14,0-.28,.01-.42,.02-.04-.37-.1-.81-.14-1.17-.04-.43-.1-.79-.17-1.07l-.22,2.06c-.02,.18,.06,.27,.24,.27,.06,0,.11-.01,.17-.04,.04-.01,.1,.02,.18,.1,0,.15,.03,.24,.09,.27,.08-.05,.18-.1,.31-.15,.11-.04,.22-.08,.33-.12,.06,.08,.1,.21,.12,.37,.02,.23,.03,.37,.04,.41,0,.09,.04,.29,.11,.59,.05,.24,.07,.44,.07,.59,0,.07,0,.14-.02,.2"></path><path d="M93.99,19.5s0,.1,0,.25c0,.13-.02,.22-.05,.28-.04,.1-.05,.23-.06,.41,0,.04,0,.1,0,.18,0,.08,0,.14,0,.18,0,.3-.06,.52-.16,.66,0,.08,.01,.16,.01,.23,0,.24-.09,.56-.25,.97-.04,.01-.08,.02-.11,.02-.06,0-.1-.03-.12-.1-.03-.06-.05-.13-.07-.19,.02-.37,0-.91-.02-1.62l.04-.04c-.03-.13-.04-.27-.04-.42,0-.11,.02-.27,.04-.48,.02-.21,.04-.37,.04-.48,0-.07,0-.13,0-.19-.17,.4-.28,1.07-.35,2.01l-.06,.14s-.06,.07-.12,.08c-.02-.03-.04-.05-.06-.05-.01,0-.04,.02-.08,.05-.04,.04-.07,.05-.09,.04l-.1,.08c.04,.05,.13,.06,.27,.02,.11-.03,.17,.01,.17,.13,0,.1-.02,.23-.08,.39-.06,.16-.08,.29-.09,.37,0,.06,0,.12,.02,.17l-.5,.08c-.05-.1-.08-.26-.1-.49-.02-.23-.06-.39-.1-.49,.03-.03,.04-.07,.04-.11,0-.03-.01-.08-.04-.15-.03-.07-.04-.12-.05-.15,0-.05-.02-.18-.05-.38-.02-.16-.03-.29-.03-.38,0-.05,0-.09,.01-.13,0-.03-.02-.08-.06-.15-.04-.07-.06-.11-.06-.14,0-.02,.01-.04,.03-.06-.03-.04-.05-.11-.04-.2,0-.1,0-.16-.04-.2-.07,.19-.11,.44-.11,.76,0,.44,0,.7-.01,.76l.05,.04-.05,.04c.04,.17,.05,.39,.05,.67-.01,.48-.02,.71-.02,.68-.07,.06-.16,.09-.28,.09-.15,0-.25,.01-.3,.04-.06-.11-.09-.24-.09-.41,0-.13,.02-.29,.06-.48-.06-.12-.1-.29-.09-.51,0-.05,0-.15,.02-.3,0-.12,0-.21,0-.27,.05-.02,.07-.05,.07-.08,0-.02-.02-.05-.04-.1-.03-.05-.05-.08-.05-.11,0-.03,.02-.06,.06-.08l-.15-2.33c.09-.06,.24-.09,.45-.09,.23,0,.38,0,.46-.03,.02-.01,.03-.01,.05-.01,.02,0,.04,.01,.07,.03,.03,.02,.04,.03,.05,.03,.02,0,.04-.01,.05-.04l.13,.13c.05,.17,.09,.5,.13,.98,.04,.42,.11,.74,.19,.95,.12-.43,.21-.78,.29-1.07l.16-1.14,1.12-.02c0,.06,.02,.4,.05,.59,.03,.17,.04,.31,.04,.41,0,.12-.02,.23-.06,.32,.04,.05,.06,.12,.05,.2,0,.08-.02,.15-.06,.2"></path><path d="M96.28,22.03h0c-.03,.05-.05,.13-.06,.21,0,.05,0,.13,0,.22,0,.11,0,.19,0,.23-.04,0-.19,0-.46,0-.16,0-.31,.01-.44,.04l-.14-.15s-.05,.07-.04,.09c-.02,0-.13,0-.33,0-.15,0-.27-.02-.34-.05-.08,.08-.17,.08-.27,0-.04-.03-.04-.08-.01-.15,.03-.07,.02-.12-.03-.16,0-.15,.03-.39,.06-.71,.03-.29,.05-.51,.05-.68,0-.22-.01-.43-.05-.64,.05-.05,.11-.08,.18-.08,.08,0,.17,.04,.27,.11,.15,.1,.22,.16,.23,.16l.04,.05s.03-.09,.08-.23c.03-.09,.06-.15,.11-.18l.04,.05s.08-.05,.19-.13c.08-.06,.15-.19,.2-.19,.05,0,.1,.03,.15,.09,.08,.04,.13,.22,.16,.31,.02,.09,.05,.18,.07,.26-.22,0-.39,0-.53-.02-.04,.05-.08,.06-.14,.02-.06-.04-.11-.03-.14,.02,0,.09,0,.24,0,.47,0,.2-.01,.36,0,.48,0,.18,.01,.34,.04,.49,.04,0,.22,0,.55,.01,.23,0,.42,.02,.58,.06m.02-3.46s-.09,0-.14,0c-.11,0-.26-.02-.44-.05-.23-.03-.36-.05-.41-.06-.07,.1-.11,.24-.11,.42,0,.39,0,.56,0,.51,.07,.04,.1,.11,.1,.22,0,.14,0,.22,0,.22-.03,.01-.05,.06-.05,.14-.05-.02-.11-.06-.16-.12-.08-.07-.12,.18-.11,.11l-.04,.15-.04-.04s-.1-.02-.2-.06c-.09-.05-.16-.09-.2-.13,0-.08,.01-.12,.04-.13l-.09-.1-.05,.07c-.05-.5-.04-1.44,.03-1.97,.18,.03,.38,.05,.6,.06,.15,0,.36,.01,.63,.01,.31,0,.53,0,.66,0,.06,.05,.08,.12,.08,.21,0,.05-.02,.14-.04,.26-.03,.12-.04,.2-.04,.26"></path><path d="M88.2,26.39h0s-.01,.11-.04,.31c-.01,.13-.04,.23-.09,.3l-.03-.03c-.06,.12-.14,.2-.24,.23-.05,.05-.12,.08-.21,.08-.05,0-.18-.01-.37-.05-.1-.06-.15-.09-.16-.1-.06-.04-.09-.09-.08-.14-.06-.06-.14-.16-.17-.29-.04-.15-.06-.15-.09-.2-.06,.04-.07-.04-.11-.1l.03-.02s-.03-.03-.03-.04c0-.01,0-.03,.01-.05,.01-.02,.02-.04,.01-.05,0-.02-.01-.03-.03-.05,.02-.11,.04-.28,.06-.51,.04-.02,.06-.06,.05-.12,0-.06,0-.1,.02-.12,.09-.18,.24-.31,.45-.37,.01,0,.07,0,.17,0,.07,0,.12,0,.16,.02,.06-.01,.12,0,.19,.05,.05,.04,.11,.08,.16,.12,.1,.11,.16,.23,.16,.37,0,.04,0,.09,0,.14-.07,0-.13,.05-.16,.15l-.29,.03s-.05-.1-.05-.18c0-.03,0-.06,0-.11,0-.05,0-.08,0-.11,0-.08-.02-.13-.05-.18l-.09,.05s-.05-.03-.05-.06c0,0,0-.02,0-.04,0-.02,0-.03,0-.04,0-.03-.03-.05-.08-.05-.04,.32-.05,.66-.03,1,0,.01,.04,.02,.08,.02,.04,0,.06,.02,.06,.03,0,0,0,.02,0,.03l-.03,.02s.02,.06,.03,.1c0,.02,0,.06,0,.1,0,.05,0,.08,0,.11,0,.07,.02,.12,.05,.15,0,.05,.02,.08,.06,.1,.03-.01,.05-.02,.08-.02,.09,0,.15,.04,.18,.14,0,0,0,.02,0,.05,0,.02,.01,.03,.03,.03,.04-.02,.06-.06,.06-.12,0-.07,0-.11,.03-.13,0-.03-.02-.08-.06-.14-.03-.06-.05-.11-.05-.14,0-.04,0-.07,.03-.11-.02,0-.03-.02-.03-.04v-.05c.16-.04,.32-.04,.48,0"></path><path d="M89.5,26.66h0s-.02,.08-.02,.14c0,.09,.01,.13,.01,.13-.01,0-.03,0-.05-.02-.03,.01-.05,.03-.05,.06,0,0,0,.01,0,.02v.03s0,.04-.02,.05c-.04-.02-.09-.03-.15-.04-.06,0-.12-.01-.18-.02,0-.29-.04-.57-.12-.85,0,0,0-.03,0-.09,0-.04,0-.07-.03-.09l-.03,.02s0-.01,.03-.02c.02-.01,.03-.03,.03-.04,0,0,0-.01,0-.02l-.03-.02s-.07,.06-.07,.12c0,.04-.01,.07-.05,.09,.01,0,.02,.02,.02,.04,0,0,0,.02,0,.04,0,.02,0,.03,0,.04,0,.02,.01,.03,.03,.05,0,.01,0,.13,.02,.34,0,.14,0,.25-.01,.35v.05s-.04,0-.06,0c-.03,0-.06,0-.11,.01-.05,0-.09,0-.11,.01-.1,0-.16-.01-.2-.05l-.04-1.19c-.02-.06-.03-.14-.04-.24v-.23c-.02-.11-.04-.2-.06-.26,0-.04,.04-.06,.11-.07,.04,0,.09,0,.16,.02,.03-.02,.07-.02,.13-.03,.02,0,.04,0,.08,0,.04,0,.06,0,.08,0,.1,0,.17-.04,.2-.09,.05,0,.1,.02,.16,.04,.06,.03,.11,.05,.15,.05,.11,.07,.17,.17,.18,.33,0,.03-.01,.17-.04,.4l-.19,.17c.03,.06,.07,.19,.12,.39,.04,.17,.1,.29,.18,.37m-.36-1.35h0s0-.03,0-.15c0-.06-.02-.1-.06-.12-.02,.03,0,.05,0,.12-.01,.07-.05,.05-.08,.08-.07,0-.08,.04-.09-.02-.03-.1-.06-.09-.06-.1l-.03,.02s-.02,.02-.03,.03c-.01,.01-.03,.02-.04,.01,0,.01,0,.03-.02,.06-.01,.03-.02,.05-.02,.06,0,.02,.02,.03,.04,.04,0,.04,0,.09,0,.13,0,.03,0,.08,.02,.17,.01,.07,.02,.13,.02,.18,.02,0,.05,0,.07,0,.09,0,.15-.04,.18-.11,0-.02,.02-.09,.03-.21,.01-.09,.04-.15,.08-.19"></path><path d="M91,27.12s-.08-.01-.12-.01c-.04,0-.09,.01-.15,.03-.07,.02-.12,.03-.15,.03-.03-.04-.06-.1-.07-.18-.03-.11-.05-.18-.05-.19,0-.01,.01-.02,.01-.03,0-.02-.03-.04-.08-.06-.05-.02-.07-.03-.07-.04,0-.01,.02-.03,.08-.06-.01-.01-.03-.04-.03-.08,0-.04-.02-.06-.04-.08-.03,.03-.08,.04-.15,.06-.07,.01-.12,.02-.14,.04,.02,.17,0,.46-.07,.52-.04,0-.06,0-.08,.04-.02,.04-.05,.06-.06,.07l.03,.02s-.05,.03-.1,.03c-.07,0-.11,0-.12,0l-.03-.06,.11-1.91c0-.11,0-.18,0-.22-.01-.1,.01-.16,.07-.18,.04,.02,.08,.02,.14,.02,.04,0,.11-.01,.21-.04,.09-.02,.16-.03,.19-.04,.13,0,.19,.06,.19,.21,0,.12,.03,.27,.11,.46,.08,.2,.12,.36,.13,.46,0,.03,.04,.1,.04,.13-.05,.03-.12,.05-.21,.06-.08,0-.15,.02-.23,.03-.03-.16-.11-.35-.14-.51-.04-.19-.09-.34-.13-.47l-.05,.92c0,.08,.04,.12,.14,.11,.03,0,.06,0,.09-.02,.02,0,.06,0,.1,.04,0,.07,.02,.1,.06,.11,.04-.03,.09-.05,.16-.08,.06-.02,.12-.04,.17-.07,.04,.03,.06,.09,.08,.16,.02,.1,.03,.16,.04,.18,0,.04,.04,.13,.08,.26,.04,.11,.05,.19,.06,.26,0,.03,0,.06,0,.09"></path><path d="M92.09,24.95h0s-.07,.05-.12,.03c-.01,0-.06,0-.14,0-.07,0-.12,0-.15-.01,0,0-.02,0-.05,.02-.02,.02-.04,.02-.05,.02-.01,0-.02-.01-.03-.04,0,0,0-.02,0-.05,0-.02-.01-.04-.03-.04l-.05,.04s-.02,.02-.02,.04c0,.01,0,.02,.03,.04,.02,.02,.03,.03,.03,.04,0,0,0,.1,.02,.29,0,.12,.03,.21,.06,.28,0-.01,.03-.02,.07-.02,.04,0,.06,0,.08-.03,.02,.02,.07,.02,.12,0,.06-.02,.1-.01,.13,.02v.28s-.07-.01-.11-.03c-.01,.04-.04,.07-.08,.08-.02,0-.06,0-.13,.01,0-.01,0-.03-.04-.04-.07,.04-.1,.12-.08,.24,0-.01,0,0,0,.07,0,.04,0,.06-.02,.08-.04,0-.1,0-.17-.03-.07-.03-.12-.04-.15-.04-.01,0-.03,0-.04,0l-.07,.02-.12-1.29v-.24c.08-.03,.21-.05,.35-.06,.11,0,.26,0,.44,0,.01-.02,.04,0,.06,0,.01,0,.03,0,.06,0,.03,0,.05,0,.06,0,.02,0,.03,0,.04,0l.02-.02c.05,.02,.08,.04,.08,.09,0,.02,0,.04-.02,.09-.01,.04-.02,.07-.01,.09,0,.02,0,.04,.01,.05m-.46,2.14s-.07,.02-.13,.03c-.08,0-.12,0-.14,.01,0,0-.02,0-.04-.07,0-.04-.04-.06-.08-.06-.01,0-.02,0-.04,0h-.07l-.04-.65s.09-.03,.14-.03c.05,0,.1,0,.15,.02,0,.02,.03,.03,.1,.03h.08c.05,.18,.07,.51,.07,.72"></path><path d="M93.67,25.01h0s-.16,0-.25,.02c-.08,0-.14,.01-.18,0-.04,.02-.05,.06-.04,.1h.03s-.03,.05-.02,.06l.02,.02c0,.38,0,.58,0,.62,0,.1,.02,.19,.04,.26-.02,.05-.02,.1-.02,.16,0,.04,.01,.1,.03,.19,.02,.09,.04,.37,.04,.42,0,.03,0,.07,0,.1-.04,.01-.08,.02-.12,.02-.07,0-.15-.01-.23-.04l-.03,.03s-.02,.02,0,.03c-.03,0-.06,0-.11-.03-.02-.38-.09-1.16-.19-1.94-.04,.03-.1,0-.17,.01-.08,0-.16,0-.19,.01-.04-.04-.03-.06-.04-.12,0-.07-.03-.24,0-.31,0-.01,.15,0,.24-.01,.12,0,.15,.02,.15,.02,.01-.02,.07,0,.11,0,.03,.01,.06-.01,.06,0,0,.01,0,.09,0,.12,0,.02-.01,.04-.01,.05,0,.02,.02-.01,.06,0,.05,0,.1,0,.15,0,.06,0,.12-.02,.12,.03,0-.01,.01,.01,.1-.02,.06-.03,.09-.1,.08-.14,0-.03,.03-.04,0-.03,.03-.02,0,0,.04-.02,.1,0,.15,0,.17,0,.04,0,.14,.02,.17,0,.02,.04,.03,.15,.03,.22,0,.1,0,.16,0,.16"></path><path d="M94.95,26.34h0s-.02,.06-.02,.09c0,.02,0,.06,0,.1,0,.05,0,.08,0,.1-.02,0-.1,0-.25,.01-.09,0-.17,.02-.24,.04l-.08-.06s-.03,.03-.02,.04c-.01,0-.07,0-.18,.01-.08,0-.15,0-.19,0-.04,.04-.09,.04-.15,0-.02-.01-.02-.03-.01-.07,.01-.03,0-.05-.02-.07,0-.07,0-.17,0-.32,0-.13,.01-.23,0-.3,0-.1-.02-.19-.05-.28,.03-.02,.06-.04,.1-.04,.04,0,.09,.01,.15,.04,.08,.04,.13,.06,.13,.06l.03,.02s.01-.04,.03-.1c0-.04,.03-.07,.05-.08l.02,.02s.04-.03,.1-.07c.04-.03,.07-.13,.1-.13,.03,0,.06,0,.08,.03,.05,.02,.08,.13,.1,.17,.02,.04,.03,.08,.05,.11-.12,.01-.21,.02-.29,.01-.02,.02-.04,.03-.08,.02-.04-.01-.06,0-.07,.01,0,.04,0,.11,.01,.21,0,.09,0,.16,.01,.21,0,.08,.02,.15,.04,.21,.02,0,.12,0,.3-.02,.12,0,.23,0,.32,0m-.12-1.5s-.05,0-.08,0c-.06,0-.14,0-.24,0-.12,0-.2,0-.23-.01-.04,.05-.04,.09-.04,.16,.01,.17,.02,.25,.02,.23,.04,.01,.06,.05,.06,.09,0,.06,0,.1,0,.1-.02,0-.03,.03-.02,.07-.03,0-.06-.02-.09-.05-.04-.03-.06,.07-.06,.05l-.02,.07-.03-.02s-.06,0-.11-.02c-.05-.02-.09-.03-.11-.05,0-.03,0-.05,.01-.06l-.05-.04-.02,.03c-.05-.22-.08-.6-.06-.84,.1,0,.22-.01,.34-.02,.08,0,.2,0,.34-.02,.17-.01,.29-.02,.36-.02,.03,.02,.05,.05,.05,.09,0,.02,0,.06-.01,.11-.01,.05-.03,.12-.03,.14"></path><path d="M96.26,26.11h0s-.02,.08-.02,.14c0,.09,.01,.13,.01,.13-.01,0-.03,0-.05-.02-.03,.01-.05,.03-.05,.06,0,0,0,.01,0,.02,0,.01,0,.02,0,.03,0,.02,0,.04-.02,.05-.04-.02-.09-.04-.15-.04-.06,0-.12-.01-.18-.02,0-.29-.04-.57-.12-.85,0,0,0-.03,0-.09,0-.04,0-.07-.03-.09l-.03,.02s0-.01,.03-.02c.02-.01,.03-.03,.02-.04,0,0,0-.01,0-.02l-.03-.02s-.07,.05-.07,.12c0,.04-.02,.07-.05,.09,.01,.01,.02,.02,.02,.04,0,0,0,.02,0,.03,0,.02,0,.03,0,.04,0,.02,.01,.03,.03,.05,0,.01,0,.13,.02,.34,0,.14,0,.26,0,.35v.05s-.04,0-.06,0c-.03,0-.06,0-.12,.01-.05,0-.09,.01-.11,.01-.1,0-.17-.01-.21-.05l-.04-1.19c-.02-.06-.03-.14-.04-.24v-.23c-.02-.11-.04-.2-.06-.26,0-.04,.04-.06,.11-.07,.04,0,.09,0,.16,.02,.03-.02,.07-.02,.13-.03h.08s.06,0,.08,0c.1,0,.17-.04,.2-.09,.05,0,.1,.01,.16,.05,.06,.03,.1,.05,.15,.05,.11,.07,.17,.18,.18,.33,0,.03-.01,.17-.04,.4l-.19,.17c.03,.06,.07,.19,.12,.39,.04,.17,.1,.29,.18,.37m-.36-1.35h0s0-.03,0-.15c0-.06-.02-.1-.06-.12-.02,.03-.03-.04-.04,.03-.01,.07-.03,.12-.05,.15-.06,0-.08-.04-.12-.09-.03-.04-.04,0-.04,0h-.02l-.04,.04s-.02,.02-.04,.01c0,.01,0,.03-.02,.06-.01,.03-.02,.05-.02,.06,0,.02,.02,.03,.04,.04,0,.04,0,.09,0,.13,0,.03,0,.08,.02,.17,.01,.07,.02,.13,.02,.18,.02,0,.05,0,.07,0,.09,0,.15-.04,.18-.11,0-.02,.02-.09,.03-.21,0-.09,.04-.16,.08-.19"></path><path d="M83.16,20.63h0c-.01,.11-.02,.19-.01,.23-.02,0-.04,0-.07,0-.04,0-.05,0-.06,0-.01,0-.03,0-.04,.02-.02-.01-.04-.02-.05-.02-.02,.01-.03,.03-.03,.05,0,0,0,.03,.01,.05,0,.02,0,.04,.01,.05,0,.02,0,.04-.01,.07,0,.03-.01,.06,0,.08,0,.02,0,.06,.02,.12,0,.05,.01,.09,.02,.12-.01,.05-.01,.11-.01,.16,0,.06,.02,.15,.05,.26,0,0,.01,0,.02,0,.01,0,.03-.01,.05-.03,.02-.02,.03-.03,.05-.03,0,0,.02,0,.03,0,.04,.11,.05,.18,.05,.22,0,.02,0,.03,0,.05-.05,.01-.09,0-.11-.05,0-.01,0-.03-.02-.04l-.06,.06c.06,0,.08,.05,.07,.13,0,.01-.02,.02-.03,.02h-.05l-.05-.08-.02,.02s-.04-.06-.06-.06c-.01,0-.03,.01-.06,.03-.03,.02-.05,.03-.07,.03-.01,0-.03,0-.05-.01,0-.02,0-.05,0-.07,0-.03-.02-.04-.04-.05,0-.06,0-.22,0-.47,0-.19,0-.35,0-.47,0-.05,0-.1-.01-.15,0-.02-.02-.02-.03-.02,0,0-.02,0-.04,.03-.02,.02-.03,.02-.04,.02,0-.02,0-.05-.03-.09-.02-.04-.03-.07-.03-.09,0-.03,.01-.06,.04-.09l.07,.02s.04-.1,.03-.19c0-.02,0-.04,0-.08,0-.04,0-.06,0-.08,0-.15,.04-.22,.14-.23,.04,0,.08,0,.13,.02l.06,.02s0,.05,0,.08c0,.04,0,.09,0,.16,0,.07,0,.12,0,.16,0,.05,.01,.1,.03,.14,.01,0,.04,0,.07-.02,.03-.02,.06-.03,.07-.03,.03,0,.05,.01,.06,.04m-.2,.21v-.07l-.02-.02,.02,.09Z"></path><path d="M83.96,20.42h0c0,.05-.01,.11-.02,.16-.01,.06-.03,.11-.05,.14,0,0-.03-.01-.07-.03-.03-.02-.06-.02-.08-.02-.02,.11-.03,.27-.03,.46,0,.25,0,.4,0,.45-.03,0-.05,0-.06,.03-.01,.02-.03,.04-.04,.06,0,.01,0,.02,0,.03,0,.02,.01,.03,.04,.05,.02,.01,.04,.03,.04,.05-.01,.04-.04,.06-.07,.07-.02,0-.05,0-.09-.02-.04-.01-.07-.02-.09-.02l-.04-.82s.02-.04,.02-.04l-.02-.02s0-.21,0-.52c0-.21,0-.38,.02-.51,0,0,.06,0,.18-.01,.07,0,.12,.02,.14,.06,0,.04,0,.11-.01,.22,0,.09-.01,.16,0,.21,0,.06,.01,.12,.03,.17,.07-.09,.14-.13,.23-.14m.29,.18c0,.08,0,.15,.01,.22,.02,.32,.01,.66-.02,1.02-.03,.03-.07,.03-.13,.02-.06-.01-.1,0-.12,.02-.03-.04-.05-.12-.06-.23,0-.16-.01-.25-.01-.25,0-.4,.03-.73,.12-.98,.1,.03,.17,.09,.21,.18"></path><path d="M85.25,21.02s-.02,.05-.02,.08c0,.03,0,.06,0,.08,0,.02,0,.05-.02,.07-.02,0-.03,0-.04,0s-.03,0-.04,.01c-.01,.01-.02,.01-.03,.01-.01,0-.03,0-.05-.01l-.13-.19c0,.06,.02,.11,.04,.15,0,.02,.02,.04,.03,.07-.08,.01-.12,.01-.13,0l-.02,.02-.05-.06s-.05,.11-.03,.19c.02,.09,.03,.16,0,.2,.03,.04,.06,.06,.1,.06,.02,0,.03,0,.05-.02,.02-.05,.04-.09,.06-.14,.03-.06,.06-.09,.09-.09,.03,0,.06,.01,.09,.04,.04,.02,.06,.04,.07,.06,0,.01,0,.04-.03,.07-.02,.04-.03,.06-.03,.08,0,0,0,.02,0,.02-.03,.02-.05,.05-.07,.09s-.05,.07-.09,.09c-.03,.03-.06,.05-.09,.05-.02,0-.05-.02-.1-.05-.04-.03-.08-.05-.12-.05-.01-.03-.05-.07-.11-.11-.06-.04-.1-.09-.11-.13,0,0,0-.01,0-.05,0-.02,0-.03-.03-.04l.02-.02s-.04-.02-.05-.05v-.05s0-.04-.02-.05v-.1c0-.05-.02-.09-.04-.11,.02-.12,.04-.24,.06-.37,.03-.14,.08-.21,.14-.22,0,0,.02,0,.03,0,.06-.05,.12-.08,.2-.09,.09,0,.18,.02,.29,.08,.08,.13,.13,.28,.15,.44m-.4-.32l-.02,.02s-.03,0-.05-.02v.07s-.04,.08-.03,.15c0,.12,0,.17,0,.17h.09s.06-.06,.06-.12c0-.03,0-.07-.03-.13-.02-.06-.03-.11-.03-.14"></path><polygon class="ad" points="85.93 23.92 86.01 23.97 86.3 23.21 86.21 23.18 85.92 23.94 86 23.99 85.93 23.92"></polygon><polygon class="ad" points="86.06 23.82 86.02 23.83 85.93 23.92 86 23.99 86.09 23.9 86.06 23.92 86.06 23.82"></polygon><polygon class="ad" points="86.76 23.81 86.8 23.78 86.06 23.82 86.06 23.92 86.8 23.88 86.85 23.84 86.76 23.81"></polygon><polygon class="ad" points="87.1 23.11 87.04 23.05 86.76 23.81 86.85 23.84 87.14 23.08 87.09 23.02 87.1 23.11"></polygon><polygon class="ad" points="86.38 23.13 86.35 23.15 87.1 23.11 87.09 23.02 86.35 23.05 86.31 23.07 86.38 23.13"></polygon><polygon class="ad" points="86.3 23.21 86.29 23.23 86.38 23.13 86.31 23.07 86.22 23.16 86.21 23.18 86.3 23.21"></polygon><polygon class="ad" points="86.92 23.9 86.99 23.87 86.83 23.78 86.78 23.88 86.94 23.97 87.02 23.93 86.92 23.9 86.92 23.9"></polygon><polygon class="ad" points="87.23 23.2 87.21 23.14 86.92 23.9 87.02 23.93 87.3 23.17 87.28 23.11 87.23 23.2"></polygon><polygon class="ad" points="87.14 23.08 87.07 23.11 87.23 23.2 87.28 23.11 87.12 23.02 87.04 23.05 87.14 23.08"></polygon><polygon points="86.26 23.19 86.25 23.19 86.35 23.1 87.04 23.07 87.04 23.05 87.1 23.06 87.14 23.08 87.14 23.09 87.26 23.15 87.3 23.17 87.29 23.22 87.62 24.02 87.34 24.79 86.97 23.92 86.92 23.94 86.92 23.9 86.92 23.89 86.8 23.83 86.78 23.88 86.76 23.83 86.06 23.86 85.96 23.96 86.26 23.19"></polygon><polygon class="ad" points="87.29 24.77 87.39 24.77 87.02 23.9 86.92 23.94 87.29 24.81 87.39 24.81 87.29 24.77 87.29 24.77"></polygon><polygon class="ad" points="87.58 24.05 87.58 24.01 87.29 24.77 87.39 24.81 87.68 24.04 87.67 24 87.58 24.05"></polygon><polygon class="ad" points="87.3 23.17 87.21 23.17 87.58 24.05 87.67 24 87.3 23.13 87.21 23.14 87.3 23.17"></polygon><polygon class="h" points="87.28 23.37 87.32 23.46 87.34 23.55 87.33 23.64 87.31 23.73 87.26 23.83 87.2 23.91 87.12 23.98 87.02 24.05 86.96 24.07 86.91 24.09 86.85 24.1 86.8 24.12 86.74 24.12 86.68 24.13 86.63 24.12 86.57 24.12 86.53 24.11 86.48 24.09 86.43 24.07 86.38 24.04 86.35 24.02 86.31 23.99 86.27 23.95 86.24 23.91 86.2 23.82 86.19 23.73 86.19 23.64 86.22 23.54 86.26 23.45 86.32 23.37 86.4 23.29 86.51 23.23 86.56 23.21 86.61 23.18 86.67 23.17 86.73 23.16 86.78 23.15 86.84 23.15 86.89 23.15 86.95 23.16 87 23.17 87.05 23.19 87.09 23.21 87.14 23.23 87.18 23.25 87.22 23.29 87.25 23.33 87.28 23.37"></polygon><polygon class="ad" points="87.32 23.52 87.36 23.61 87.37 23.7 87.37 23.8 87.34 23.88 87.3 23.98 87.23 24.06 87.16 24.14 87.06 24.2 87 24.23 86.95 24.25 86.89 24.26 86.83 24.27 86.78 24.28 86.73 24.28 86.67 24.28 86.61 24.27 86.56 24.26 86.51 24.24 86.47 24.22 86.42 24.2 86.38 24.17 86.35 24.14 86.31 24.11 86.28 24.06 86.24 23.98 86.22 23.88 86.23 23.79 86.25 23.7 86.29 23.6 86.36 23.52 86.44 23.45 86.54 23.39 86.6 23.36 86.65 23.34 86.71 23.32 86.77 23.31 86.82 23.31 86.87 23.3 86.93 23.31 86.98 23.31 87.03 23.32 87.08 23.34 87.13 23.36 87.18 23.38 87.21 23.41 87.26 23.44 87.28 23.48 87.32 23.52 87.32 23.52"></polygon><polygon class="h" points="87.34 23.62 87.39 23.71 87.4 23.81 87.4 23.9 87.37 23.98 87.32 24.08 87.26 24.16 87.19 24.24 87.08 24.3 87.03 24.33 86.97 24.35 86.92 24.36 86.86 24.37 86.8 24.38 86.75 24.38 86.7 24.38 86.64 24.37 86.59 24.36 86.54 24.34 86.5 24.32 86.45 24.3 86.41 24.27 86.37 24.24 86.34 24.21 86.31 24.16 86.27 24.08 86.25 23.98 86.25 23.9 86.28 23.8 86.32 23.71 86.39 23.62 86.47 23.55 86.57 23.49 86.62 23.46 86.68 23.44 86.73 23.42 86.79 23.41 86.85 23.41 86.9 23.4 86.96 23.41 87.01 23.41 87.06 23.43 87.11 23.44 87.16 23.46 87.2 23.49 87.24 23.51 87.28 23.54 87.31 23.58 87.34 23.62"></polygon><polygon class="ad" points="87.38 23.77 87.42 23.86 87.44 23.96 87.44 24.05 87.41 24.14 87.37 24.23 87.3 24.31 87.22 24.39 87.12 24.45 87.07 24.48 87.01 24.5 86.95 24.51 86.9 24.52 86.84 24.53 86.79 24.54 86.73 24.53 86.68 24.53 86.63 24.52 86.58 24.5 86.53 24.48 86.48 24.45 86.45 24.42 86.41 24.4 86.38 24.36 86.34 24.32 86.31 24.23 86.29 24.14 86.29 24.04 86.32 23.95 86.36 23.86 86.43 23.78 86.51 23.7 86.61 23.64 86.66 23.61 86.71 23.59 86.77 23.58 86.83 23.57 86.88 23.56 86.94 23.56 86.99 23.56 87.05 23.56 87.1 23.58 87.15 23.59 87.2 23.61 87.24 23.64 87.28 23.67 87.32 23.7 87.35 23.73 87.38 23.78 87.38 23.77"></polygon><polygon class="h" points="87.43 23.87 87.48 23.96 87.49 24.05 87.49 24.15 87.47 24.24 87.42 24.33 87.35 24.42 87.27 24.49 87.18 24.55 87.12 24.58 87.06 24.6 87.01 24.61 86.95 24.62 86.9 24.63 86.84 24.63 86.79 24.63 86.73 24.62 86.68 24.61 86.63 24.59 86.59 24.57 86.54 24.55 86.5 24.52 86.46 24.49 86.43 24.46 86.4 24.42 86.36 24.33 86.34 24.23 86.35 24.14 86.38 24.05 86.42 23.96 86.48 23.87 86.56 23.8 86.66 23.74 86.72 23.71 86.77 23.69 86.83 23.68 86.89 23.66 86.94 23.66 87 23.66 87.05 23.66 87.1 23.66 87.15 23.68 87.21 23.7 87.25 23.71 87.3 23.74 87.34 23.77 87.37 23.8 87.41 23.83 87.43 23.87"></polygon><polygon class="ad" points="87.48 24.03 87.51 24.12 87.53 24.21 87.53 24.3 87.5 24.39 87.46 24.48 87.39 24.57 87.31 24.64 87.21 24.71 87.16 24.73 87.1 24.75 87.05 24.76 86.99 24.78 86.94 24.78 86.88 24.79 86.82 24.78 86.77 24.78 86.72 24.77 86.67 24.75 86.62 24.73 86.58 24.71 86.54 24.68 86.5 24.65 86.47 24.61 86.44 24.57 86.4 24.48 86.38 24.39 86.38 24.3 86.41 24.2 86.45 24.11 86.52 24.03 86.6 23.95 86.7 23.89 86.75 23.87 86.81 23.84 86.86 23.83 86.92 23.82 86.98 23.81 87.03 23.81 87.09 23.81 87.14 23.82 87.19 23.83 87.24 23.85 87.29 23.87 87.33 23.89 87.37 23.92 87.41 23.95 87.44 23.98 87.48 24.03"></polygon><polygon class="ad" points="82.4 22.85 82.4 22.82 82.11 23.59 82.2 23.62 82.5 22.85 82.5 22.83 82.4 22.85"></polygon><polygon class="ad" points="82.39 22.81 82.39 22.81 82.4 22.85 82.5 22.83 82.49 22.79 82.49 22.78 82.39 22.81"></polygon><polygon class="ad" points="82.38 22.77 82.39 22.81 82.49 22.78 82.48 22.74 82.38 22.77"></polygon><polygon class="ad" points="82.37 22.73 82.38 22.77 82.48 22.74 82.46 22.7 82.37 22.73"></polygon><polygon class="ad" points="82.36 22.68 82.36 22.68 82.37 22.73 82.46 22.7 82.45 22.66 82.45 22.66 82.36 22.68"></polygon><polygon class="ad" points="82.34 22.63 82.34 22.64 82.36 22.68 82.45 22.66 82.44 22.62 82.44 22.64 82.34 22.63"></polygon><polygon class="ad" points="82.44 22.61 82.34 22.59 82.34 22.63 82.44 22.64 82.45 22.6 82.35 22.58 82.44 22.62 82.44 22.61"></polygon><rect class="j" x="82.42" y="24.81" width=".1" height=".05" transform="translate(-3.29 16.86) rotate(-11.45)"></rect><polygon class="ad" points="82.74 24.21 82.74 24.18 82.45 24.95 82.54 24.98 82.83 24.21 82.83 24.19 82.74 24.21"></polygon><polygon class="ad" points="82.73 24.15 82.74 24.21 82.83 24.19 82.83 24.13 82.73 24.15 82.73 24.15"></polygon><polygon class="ad" points="82.72 24.1 82.73 24.15 82.83 24.13 82.81 24.08 82.72 24.1"></polygon><polygon class="ad" points="82.71 24.05 82.71 24.05 82.72 24.1 82.81 24.08 82.8 24.03 82.81 24.04 82.71 24.05"></polygon><polygon class="ad" points="82.8 24 82.7 23.99 82.71 24.05 82.81 24.04 82.8 23.98 82.7 23.97 82.8 24"></polygon><path class="j" d="M82.11,23.44h0Z"></path><polygon class="j" points="82.16 23.6 82.16 23.59 82.19 23.6 82.2 23.62 82.16 23.61 82.16 23.6"></polygon><polygon points="82.05 23.41 82.1 23.4 82.1 23.36 82.4 22.6 82.39 22.6 82.39 22.63 82.4 22.67 82.42 22.72 82.43 22.76 82.44 22.8 82.45 22.84 82.5 22.85 82.2 23.62 82.19 23.6 82.16 23.59 82.16 23.6 82.16 23.61 82.2 23.62 82.16 23.62 82.16 23.65 82.13 23.62 82.11 23.62 82.1 23.57 82.12 23.57 82.14 23.52 82.09 23.53 82.07 23.5 82.06 23.45 82.11 23.44 82.06 23.45 82.07 23.45 82.05 23.41"></polygon><polygon points="82.16 23.56 84.3 23.49 84.35 23.49 84.36 23.49 84.41 23.5 84.42 23.51 84.47 23.53 84.53 23.55 84.53 23.55 84.58 23.58 84.59 23.58 84.63 23.62 84.64 23.63 84.67 23.66 84.68 23.67 84.69 23.7 84.7 23.71 84.6 23.74 84.59 23.72 84.59 23.72 84.56 23.69 84.56 23.69 84.53 23.66 84.54 23.67 84.49 23.64 84.49 23.64 84.43 23.62 84.39 23.6 84.33 23.59 84.34 23.59 84.29 23.59 84.29 23.58 82.16 23.65 82.16 23.56"></polygon><polygon points="84.6 23.74 84.6 23.74 84.61 23.75 84.6 23.74"></polygon><polygon class="ad" points="85.74 25.54 85.74 25.51 85.45 26.28 85.55 26.31 85.84 25.54 85.84 25.51 85.74 25.54"></polygon><polygon class="ad" points="84.9 22.98 84.89 22.97 85.74 25.54 85.84 25.51 84.99 22.94 84.99 22.93 84.9 22.98"></polygon><polygon class="ad" points="84.88 22.96 84.88 22.95 84.9 22.98 84.99 22.93 84.97 22.9 84.96 22.9 84.88 22.96 84.88 22.96"></polygon><polygon class="ad" points="84.86 22.93 84.85 22.92 84.88 22.96 84.96 22.9 84.93 22.86 84.92 22.85 84.86 22.93"></polygon><polygon class="ad" points="84.83 22.91 84.82 22.9 84.86 22.93 84.92 22.85 84.88 22.82 84.88 22.81 84.83 22.91"></polygon><polygon class="ad" points="84.78 22.88 84.78 22.87 84.83 22.91 84.88 22.81 84.82 22.79 84.82 22.78 84.78 22.88"></polygon><polygon class="ad" points="84.73 22.85 84.72 22.85 84.78 22.88 84.82 22.78 84.76 22.76 84.76 22.76 84.73 22.86 84.73 22.85"></polygon><polygon class="ad" points="84.68 22.84 84.67 22.84 84.73 22.86 84.76 22.76 84.7 22.74 84.68 22.84 84.68 22.84"></polygon><polygon class="ad" points="84.64 22.83 84.63 22.82 84.68 22.84 84.7 22.74 84.65 22.73 84.64 22.73 84.64 22.83"></polygon><polygon class="ad" points="84.58 22.82 84.58 22.82 84.64 22.83 84.64 22.73 84.59 22.72 84.58 22.72 84.58 22.82"></polygon><polygon class="ad" points="82.5 22.86 82.45 22.89 84.58 22.82 84.58 22.72 82.45 22.79 82.4 22.82 82.5 22.85 82.5 22.86"></polygon><polygon class="j" points="83.04 25.19 83.03 25.19 83.03 25.19 83.04 25.19"></polygon><path class="j" d="M84.19,25.54v0Z"></path><path d="M82.42,24.87v.05l.03,.05,.02,.04,.13,.07,.13,.07,.13,.07,.13,.06h0l.13,.06,.13,.06,.14,.06,.14,.05h0l.15,.04,.15,.04h0l.17,.03,.17,.03h.83l.05-.04,.29-.76-.05-.07v.05h-.03v-.02l-.02,.02h-.76l-.18-.03-.16-.03-.15-.04-.15-.04-.14-.05-.14-.05-.13-.06-.13-.06-.13-.06-.12-.07-.13-.07-.09-.05h0l-.04-.02v-.05l-.02-.05v-.02l.03-.07-.05-.02h0l-.05-.02-.29,.76v.14Zm.04-.12h0Z"></path><polygon class="ad" points="85.07 24.88 85.3 24.87 85.3 24.77 85.07 24.79 85.07 24.88"></polygon><polygon class="ad" points="84.86 24.89 85.07 24.88 85.07 24.79 84.86 24.79 84.86 24.89"></polygon><polygon class="ad" points="84.66 24.88 84.67 24.89 84.86 24.89 84.86 24.79 84.66 24.79 84.67 24.78 84.66 24.89 84.66 24.88"></polygon><polygon class="ad" points="84.47 24.87 84.47 24.87 84.66 24.89 84.67 24.78 84.48 24.77 84.49 24.77 84.47 24.87"></polygon><polygon class="ad" points="84.3 24.85 84.47 24.87 84.49 24.77 84.31 24.75 84.3 24.85"></polygon><polygon class="ad" points="84.13 24.82 84.13 24.82 84.3 24.85 84.31 24.75 84.15 24.72 84.15 24.72 84.13 24.82"></polygon><polygon class="ad" points="83.98 24.78 84.13 24.82 84.15 24.72 84 24.68 83.98 24.78 83.98 24.78"></polygon><polygon class="ad" points="83.82 24.74 83.83 24.74 83.98 24.78 84 24.68 83.85 24.64 83.85 24.65 83.82 24.74"></polygon><polygon class="ad" points="83.68 24.69 83.68 24.69 83.82 24.74 83.85 24.65 83.71 24.59 83.72 24.59 83.67 24.69 83.68 24.69"></polygon><polygon class="ad" points="83.54 24.63 83.67 24.69 83.72 24.59 83.58 24.54 83.54 24.63"></polygon><polygon class="ad" points="83.41 24.57 83.54 24.63 83.58 24.54 83.45 24.48 83.41 24.57"></polygon><polygon class="ad" points="83.28 24.51 83.28 24.52 83.41 24.57 83.45 24.48 83.32 24.42 83.32 24.42 83.28 24.52 83.28 24.51"></polygon><polygon class="ad" points="83.15 24.45 83.28 24.52 83.32 24.42 83.2 24.36 83.15 24.45 83.15 24.45"></polygon><polygon class="ad" points="83.03 24.38 83.15 24.45 83.2 24.36 83.07 24.29 83.02 24.38 83.03 24.38"></polygon><polygon class="ad" points="82.9 24.31 83.02 24.38 83.07 24.29 82.94 24.22 82.9 24.31"></polygon><polygon class="ad" points="82.83 24.21 82.76 24.24 82.9 24.31 82.94 24.22 82.81 24.16 82.74 24.18 82.83 24.21"></polygon><polygon class="ad" points="96.15 22.83 95.86 23.6 96.81 23.92 97.04 23.41 97.04 23.36 97.04 23.31 97.04 23.25 97.02 23.2 96.99 23.15 96.96 23.1 96.92 23.05 96.88 23.01 96.84 22.97 96.79 22.93 96.74 22.89 96.69 22.86 96.65 22.84 96.59 22.81 96.54 22.78 96.5 22.77 96.46 22.76 96.41 22.75 96.36 22.75 96.32 22.75 96.28 22.76 96.23 22.77 96.19 22.8 96.15 22.83"></polygon><polygon class="ad" points="96.77 23.89 96.83 23.86 95.88 23.55 95.84 23.64 96.8 23.96 96.86 23.94 96.77 23.89"></polygon><polygon points="82.05 23.36 82.06 23.35 82.35 22.58 82.44 22.62 82.16 23.37 82.15 23.4 82.15 23.39 82.05 23.41 82.05 23.4 82.05 23.36"></polygon><polygon class="j" points="86.73 25.17 86.71 25.18 86.71 25.18 86.73 25.17"></polygon><path d="M82.09,23.53v.05h.01l.07-.02-.02,.05,2.14-.07h.05l.06,.02,.05,.02,.06,.02,.05,.03,.04,.03,.03,.03,.02,.04h-.05l.85,2.58h.05v.03h.28l.06-.03,.06-.03,.06-.05,.07-.07h0l.04-.06,.04-.06,.05-.06,.04-.06,.04-.07,.05-.06,.04-.07,.05-.07,.04-.06,.06-.06,.05-.06,.05-.05,.05-.05,.05-.05,.05-.04,.06-.03h.01l-.04-.04,.04,.04,.06-.06,.05-.05,.05-.05,.05-.04,.05-.03,.05-.03,.04-.03,.05-.02h.05l.05-.04h.05l.06-.02h.07l.08-.02h.17l9.23-.7h.05l.05-.02h.04l.04-.03,.04-.02,.04-.03,.04-.03,.04-.04h0l.16-.39-.08-.05,.04,.04h0l-.04-.02-.04,.09-.03,.02h-.04l-.04,.03h-.04l-.05,.02h-.05l-9.23,.7h-.17l-.06,.02h-.17l-.05,.02h-.06l-.05,.02h-.06l-.06,.03h-.06l-.06,.03-.06,.02-.06,.03-.11,.07-.11,.1-.12,.12-.11,.14-.11,.14-.09,.13-.09,.12-.08,.09h-.05l-.04,.02h-.28l-.85-2.56-.02-.04-.03-.04-.04-.03-.06-.03-.05-.02-.06-.02h-.1l-2.14,.05-.26,.68h0l-.1,.02Zm15.36,.07h0l.03,.03-.04-.03Z"></path><polygon class="ad" points="97.12 23.79 97.18 23.78 97.23 23.77 97.27 23.76 97.32 23.74 97.36 23.72 97.4 23.7 97.44 23.67 97.48 23.63 97.41 23.56 97.38 23.6 97.34 23.62 97.31 23.64 97.28 23.65 97.24 23.66 97.2 23.68 97.16 23.68 97.11 23.69 97.12 23.79"></polygon><polygon class="ad" points="87.89 24.48 97.12 23.79 97.11 23.69 87.88 24.38 87.89 24.48"></polygon><polygon class="ad" points="86.99 24.64 87.04 24.62 87.1 24.6 87.16 24.58 87.21 24.56 87.27 24.55 87.32 24.54 87.37 24.53 87.43 24.52 87.48 24.51 87.54 24.51 87.6 24.5 87.66 24.5 87.72 24.49 87.77 24.49 87.83 24.48 87.89 24.48 87.88 24.38 87.82 24.38 87.77 24.39 87.7 24.39 87.64 24.39 87.59 24.4 87.53 24.41 87.48 24.41 87.41 24.42 87.36 24.43 87.3 24.44 87.24 24.45 87.18 24.47 87.13 24.48 87.06 24.5 87 24.52 86.95 24.55 86.99 24.64"></polygon><polygon class="ad" points="86.16 25.55 86.18 25.54 86.22 25.49 86.26 25.44 86.3 25.39 86.35 25.33 86.4 25.26 86.45 25.19 86.5 25.13 86.56 25.06 86.61 24.98 86.67 24.92 86.73 24.86 86.78 24.8 86.83 24.75 86.89 24.71 86.94 24.67 86.99 24.64 86.95 24.55 86.88 24.59 86.83 24.62 86.77 24.68 86.71 24.73 86.65 24.79 86.6 24.85 86.54 24.93 86.48 24.99 86.43 25.06 86.37 25.13 86.33 25.2 86.27 25.26 86.23 25.33 86.18 25.38 86.15 25.43 86.11 25.47 86.13 25.46 86.16 25.55"></polygon><polygon class="h" points="84.39 22.78 84.58 22.77 84.6 22.77 82.96 22.23 82.88 22.28 84.39 22.78 84.39 22.78"></polygon><polygon class="h" points="84.39 22.78 82.45 22.84 82.44 22.8 82.43 22.76 82.42 22.72 82.4 22.67 82.39 22.63 82.39 22.6 82.41 22.56 82.44 22.54 82.52 22.48 82.61 22.43 82.7 22.38 82.79 22.33 82.87 22.27 82.88 22.28 84.39 22.78 84.39 22.78"></polygon><polygon class="g" points="83.21 23.96 84.54 23.88 85.06 24.09 85.24 24.64 85.29 24.82 85.08 24.84 84.86 24.84 84.66 24.83 84.48 24.82 84.3 24.8 84.14 24.77 83.99 24.73 83.84 24.69 83.7 24.64 83.56 24.59 83.43 24.53 83.3 24.47 83.17 24.4 83.05 24.33 82.92 24.27 82.79 24.2 82.78 24.14 82.77 24.09 82.76 24.04 82.75 23.98 83.21 23.96"></polygon><polygon class="h" points="86.55 24.11 86.57 24.13 86.74 24.24 86.8 24.15 86.62 24.04 86.64 24.07 86.55 24.11 86.56 24.12 86.57 24.13 86.55 24.11"></polygon><polygon class="h" points="85.04 24.14 85.01 24.11 85.25 24.84 85.34 24.81 85.1 24.08 85.08 24.05 85.1 24.08 85.1 24.06 85.08 24.05 85.04 24.14"></polygon><polygon class="h" points="84.54 23.93 84.52 23.93 85.04 24.14 85.08 24.05 84.56 23.84 84.54 23.83 84.56 23.84 84.55 23.83 84.54 23.83 84.54 23.93"></polygon><polygon class="h" points="82.8 23.98 82.75 24.04 84.54 23.93 84.54 23.83 82.75 23.94 82.7 23.99 82.75 23.94 82.69 23.94 82.7 23.99 82.8 23.98"></polygon><polygon class="h" points="82.81 24.16 82.83 24.19 82.83 24.16 82.83 24.13 82.82 24.11 82.82 24.08 82.82 24.06 82.81 24.03 82.8 24.01 82.8 23.98 82.7 23.99 82.7 24.02 82.7 24.05 82.71 24.07 82.71 24.1 82.72 24.12 82.73 24.15 82.74 24.18 82.74 24.21 82.76 24.24 82.74 24.21 82.75 24.23 82.76 24.24 82.81 24.16"></polygon><polygon class="h" points="85.25 24.84 85.29 24.77 85.07 24.79 84.86 24.79 84.67 24.78 84.48 24.77 84.31 24.75 84.15 24.72 84 24.68 83.85 24.65 83.71 24.59 83.58 24.54 83.45 24.48 83.32 24.42 83.2 24.36 83.07 24.29 82.94 24.22 82.81 24.16 82.76 24.24 82.9 24.31 83.02 24.38 83.15 24.45 83.28 24.52 83.41 24.57 83.54 24.63 83.68 24.69 83.82 24.74 83.98 24.78 84.13 24.82 84.3 24.85 84.47 24.87 84.66 24.89 84.86 24.89 85.07 24.88 85.3 24.87 85.34 24.81 85.3 24.87 85.37 24.87 85.34 24.81 85.25 24.84 85.25 24.84"></polygon><polygon class="h" points="87.88 24.38 87.81 24.38 87.74 24.39 87.67 24.39 87.6 24.4 87.53 24.41 87.45 24.42 87.38 24.43 87.3 24.45 87.23 24.47 87.17 24.49 87.1 24.51 87.03 24.53 86.98 24.56 86.91 24.59 86.86 24.63 86.81 24.67 86.87 24.75 86.92 24.71 86.97 24.68 87.02 24.65 87.07 24.63 87.13 24.6 87.19 24.58 87.27 24.57 87.33 24.55 87.4 24.54 87.46 24.52 87.53 24.52 87.6 24.5 87.68 24.49 87.75 24.49 87.82 24.48 87.89 24.48 87.88 24.38"></polygon><polygon class="h" points="97.11 23.69 87.88 24.38 87.89 24.48 97.12 23.79 97.11 23.69"></polygon><polygon class="h" points="97.28 23.12 97.32 23.18 97.36 23.23 97.38 23.28 97.41 23.33 97.42 23.38 97.43 23.42 97.43 23.46 97.43 23.5 97.42 23.54 97.4 23.57 97.38 23.6 97.34 23.63 97.31 23.65 97.25 23.67 97.19 23.68 97.11 23.69 97.12 23.79 97.21 23.79 97.28 23.76 97.34 23.74 97.4 23.71 97.45 23.67 97.49 23.62 97.51 23.58 97.53 23.52 97.53 23.47 97.53 23.41 97.52 23.36 97.5 23.29 97.47 23.24 97.44 23.18 97.4 23.11 97.36 23.06 97.28 23.12"></polygon><polygon class="h" points="96.18 22.6 96.26 22.59 96.35 22.6 96.44 22.62 96.52 22.63 96.6 22.66 96.68 22.69 96.75 22.72 96.82 22.76 96.9 22.8 96.96 22.84 97.04 22.88 97.09 22.93 97.14 22.97 97.2 23.03 97.24 23.08 97.28 23.12 97.36 23.06 97.32 23.01 97.26 22.95 97.21 22.9 97.15 22.85 97.08 22.8 97.02 22.75 96.95 22.71 96.87 22.66 96.79 22.63 96.71 22.59 96.63 22.57 96.54 22.54 96.45 22.52 96.37 22.51 96.27 22.5 96.18 22.5 96.18 22.6"></polygon><polygon class="h" points="88.02 22.88 96.18 22.6 96.18 22.5 88.02 22.78 88.02 22.88"></polygon><polygon class="h" points="86.73 22.67 86.8 22.71 86.89 22.72 86.97 22.75 87.05 22.77 87.13 22.78 87.21 22.81 87.3 22.82 87.38 22.83 87.46 22.85 87.54 22.85 87.63 22.87 87.71 22.87 87.79 22.88 87.87 22.88 87.94 22.88 88.02 22.88 88.02 22.78 87.94 22.78 87.87 22.78 87.8 22.77 87.72 22.77 87.64 22.76 87.56 22.76 87.48 22.75 87.39 22.73 87.31 22.72 87.24 22.71 87.15 22.68 87.07 22.67 86.99 22.65 86.91 22.63 86.84 22.61 86.76 22.58 86.73 22.68 86.73 22.67"></polygon><polygon class="h" points="83.98 21.92 84.11 21.9 84.24 21.89 84.37 21.88 84.49 21.87 84.6 21.86 84.69 21.88 84.8 21.88 84.88 21.89 84.97 21.9 85.05 21.92 85.13 21.94 85.2 21.96 85.27 21.98 85.33 22.01 85.4 22.04 85.46 22.07 85.52 22.1 85.59 22.13 85.65 22.17 85.72 22.2 85.78 22.24 85.85 22.28 85.91 22.32 85.99 22.36 86.07 22.4 86.14 22.44 86.23 22.48 86.31 22.52 86.41 22.56 86.51 22.6 86.62 22.64 86.73 22.68 86.76 22.58 86.65 22.54 86.54 22.5 86.45 22.47 86.35 22.43 86.27 22.39 86.19 22.35 86.11 22.3 86.04 22.27 85.96 22.23 85.9 22.19 85.83 22.16 85.76 22.11 85.7 22.07 85.63 22.04 85.57 22.01 85.51 21.97 85.44 21.94 85.37 21.91 85.3 21.88 85.23 21.86 85.15 21.83 85.07 21.82 84.98 21.81 84.89 21.79 84.8 21.77 84.7 21.77 84.59 21.77 84.48 21.77 84.36 21.78 84.23 21.78 84.1 21.8 83.96 21.82 83.97 21.92 83.98 21.92"></polygon><polygon class="h" points="82.47 22.58 82.55 22.53 82.64 22.48 82.73 22.42 82.82 22.37 82.9 22.32 82.99 22.27 83.08 22.22 83.17 22.18 83.27 22.13 83.36 22.09 83.46 22.05 83.56 22.01 83.66 21.99 83.76 21.96 83.87 21.93 83.97 21.92 83.96 21.82 83.85 21.84 83.74 21.86 83.63 21.89 83.53 21.92 83.43 21.96 83.32 22 83.23 22.04 83.13 22.08 83.03 22.13 82.94 22.18 82.85 22.23 82.76 22.28 82.67 22.33 82.58 22.39 82.5 22.44 82.41 22.49 82.46 22.58 82.47 22.58"></polygon><polygon class="h" points="82.45 22.79 82.5 22.84 82.49 22.79 82.48 22.74 82.46 22.7 82.45 22.66 82.45 22.63 82.44 22.61 82.45 22.59 82.46 22.58 82.41 22.49 82.37 22.54 82.35 22.59 82.34 22.64 82.36 22.68 82.37 22.73 82.38 22.77 82.39 22.81 82.4 22.85 82.45 22.89 82.4 22.85 82.4 22.89 82.45 22.89 82.45 22.79"></polygon><polygon class="g" points="86.22 23.16 86.22 23.16 86.22 23.16 86.22 23.16"></polygon><polygon class="g" points="86.2 23.18 86.22 23.16 86.21 23.21 86.2 23.18"></polygon><polygon class="g" points="87.57 23.77 89.25 24.33 89.07 24.34 89.07 24.34 87.61 23.85 87.57 23.77"></polygon><path class="g" d="M82.45,22.89l2.14-.07h.05l.04,.02,.05,.02,.05,.02,.05,.03,.03,.02,.02,.03,.02,.02,.85,2.56v.04h.37l.06-.03,.05-.03,.05-.06,.05-.06,.04-.05,.04-.05,.04-.05,.04-.05,.03-.05,.04-.05,.03-.05,.04-.04,.04-.04,.04-.04,.04-.04,.04-.04,.05-.05,.06-.05-.03-.04,.05-.04,.05-.03,.06-.03,.06-.03,.06-.03,.07-.02,.07-.02,.07-.02h.07l.07-.02h.08l.07-.02h.15l.07-.02h.07l1.19-.09-1.46-.49-.04-.09,1.68,.56,7.86-.59,.15-.02,.11-.05,.08-.07,.03-.08v-.09h0l-.03-.11-.05-.1-.08-.11-.04-.05-.05-.05-.05-.05-.05-.05-.06-.05-.07-.04-.07-.04-.07-.04-.08-.03-.08-.04-.08-.03-.09-.03h-.08l-.09-.03h-.18l-1.19,.04-6.97,.24h-.31l-.08-.02h-.08l-.08-.02h-.08l-.08-.02-.08-.02-.08-.02-.08-.02-.08-.02-.08-.02-.08-.02-.08-.03-.11-.04-.11-.04-.09-.04-.09-.04-.08-.04-.08-.04-.08-.04-.08-.04-.07-.04-.06-.04-.07-.04-.06-.04-.07-.04-.07-.04-.06-.03-.07-.04-.07-.03-.07-.03-.07-.02-.07-.02-.08-.03-.07-.02h-.08l-.09-.03h-.09l-.1-.02h-.33l-.13,.02h-.13l-.14,.03-.11,.02-.1,.03-.11,.03-.1,.03-.1,.04-.1,.04-.09,.04-.1,.04-.09,.05-.09,.05,1.49,.5-2.01,.07v.1Zm13.67,.04v-.06l.03-.04,.04-.03,.05-.03h.22l.05,.03h.04l.04,.03,.05,.03,.04,.02,.04,.03,.04,.03,.04,.03,.04,.03,.03,.04,.04,.03,.03,.04,.05,.07,.03,.07v.03l.02,.02v.06l-.02,.05-.03,.04-.05,.02-.07,.02h-.12l-.05-.02h-.04l-.05-.03-.05-.02-.04-.03-.04-.02-.05-.03-.04-.03-.04-.03-.04-.03-.04-.04-.03-.04-.03-.04-.05-.07-.03-.07v-.02l-.02-.04Zm-8.5,1.09h0l-.03-.03,.03,.03Zm-1.31-.81l.05-.05,.7-.04,.15,.08,.35,.83-.05,.07-.76,.05h.04l-.03,.05h0l-.17-.1h0l.04-.02-.33-.87Z"></path><polygon class="ad" points="95.65 23.46 95.6 23.44 95.6 23.4 95.66 23.39 95.67 23.43 95.63 23.4 95.65 23.46"></polygon><polygon class="ad" points="95.73 23.42 95.72 23.43 95.71 23.44 95.69 23.45 95.67 23.46 95.65 23.46 95.63 23.4 95.64 23.4 95.66 23.39 95.67 23.39 95.67 23.38 95.67 23.39 95.73 23.42 95.73 23.42"></polygon><polygon class="ad" points="95.56 23.03 95.56 23.03 95.59 23.07 95.63 23.1 95.67 23.15 95.7 23.2 95.73 23.25 95.75 23.3 95.75 23.36 95.73 23.42 95.67 23.39 95.68 23.35 95.68 23.32 95.67 23.27 95.64 23.23 95.61 23.19 95.58 23.15 95.54 23.11 95.51 23.08 95.52 23.08 95.56 23.03"></polygon><polygon class="ad" points="94.99 22.87 94.99 22.86 95.07 22.87 95.15 22.87 95.22 22.88 95.29 22.89 95.36 22.91 95.42 22.94 95.49 22.98 95.56 23.03 95.52 23.08 95.45 23.03 95.39 23 95.34 22.97 95.27 22.96 95.21 22.94 95.14 22.94 95.07 22.93 94.99 22.93 95 22.93 94.99 22.87 94.99 22.87"></polygon><polygon class="ad" points="89 23.18 89.02 23.16 94.99 22.87 95 22.93 89.03 23.23 89.06 23.21 89 23.18"></polygon><polygon class="ad" points="88.86 23.39 88.79 23.37 88.8 23.32 88.81 23.29 88.83 23.25 88.85 23.22 88.88 23.2 88.92 23.18 88.97 23.17 89.02 23.16 89.03 23.23 88.98 23.24 88.94 23.25 88.92 23.25 88.9 23.27 88.89 23.29 88.87 23.31 88.86 23.33 88.86 23.38 88.8 23.35 88.86 23.39"></polygon><polygon points="95.61 23.36 95.59 23.34 95.57 23.31 95.55 23.28 95.53 23.26 95.51 23.23 95.49 23.21 95.46 23.18 95.4 23.14 95.34 23.1 95.28 23.07 95.21 23.05 95.14 23.05 95.07 23.03 95 23.03 94.92 23.03 88.96 23.33 89.01 23.23 89.03 23.23 89.03 23.23 95 22.93 95.1 22.94 95.18 22.93 95.26 22.94 95.33 22.96 95.4 22.99 95.46 23.03 95.51 23.08 95.57 23.15 95.63 23.21 95.67 23.28 95.69 23.32 95.69 23.36 95.67 23.38 95.64 23.4 95.63 23.41 95.63 23.4 95.61 23.36"></polygon><path d="M88.79,23.37v.06l.02,.04,.02,.06,.04,.07,.05,.05,.06,.06,.08,.05,.08,.04,.09,.02h.11l6.13-.31h.12l.08-.03,.06-.04,.03-.05v-.06l-.02-.07-.04-.07-.06-.08-.06-.07-.07-.06-.07-.05-.07-.03h-.08l-.09-.03h-.2l-5.96,.3h-.06l-.06,.03-.04,.04-.03,.04-.02,.04v.05Zm.06,0v-.04h.1l.05-.1h.03l5.96-.3h.26l.07,.03,.07,.03,.06,.04,.05,.05,.06,.07,.06,.07,.04,.06,.02,.05v.03l-.02,.03-.04,.02h0l-.07,.02h-.1l-6.13,.33h-.09l-.08-.03-.08-.03-.06-.04-.05-.05-.04-.05-.03-.05-.03-.04v-.07Z"></path></g></g></svg>