<svg id="a" xmlns="http://www.w3.org/2000/svg" viewBox="0 0 2475 3150" width="2475" height="3150"><defs><style>.b{letter-spacing:.05em;}.c{letter-spacing:0em;}.d{letter-spacing:.01em;}.e{letter-spacing:.05em;}.f{font-size:14.56px;}.g{letter-spacing:-.02em;}.h{letter-spacing:-.02em;}.i,.j{fill:#010101;}.k{fill:#e7e6e6;}.l,.m{fill:#fff;}.n{fill:#e7282e;}.o,.p{fill:#4d494a;}.q{fill:#2ea1db;}.q,.r,.s{font-size:14.43px;}.q,.r,.s,.t{font-family:Arial-BoldMT, Arial;}.r,.t,.u{fill:#231f20;}.s{fill:#ed2224;}.v{stroke-dasharray:0 0 12 12;}.v,.w,.x{stroke:#00aeef;stroke-miterlimit:10;stroke-width:2px;}.v,.w,.x,.y,.a`{fill:none;}.w{stroke-dasharray:0 0 11.9 11.9;}.aa{letter-spacing:-.02em;}.ab{letter-spacing:-.04em;}.ac{letter-spacing:-.04em;}.ad{letter-spacing:-.04em;}.u,.ae{font-family:Arial-Black, Arial Black;font-size:16.49px;}.ae{fill:#221f1f;}.af{letter-spacing:-.07em;}.ag{letter-spacing:-.06em;}.ah{letter-spacing:-.06em;}.ai{letter-spacing:0em;}.aj{letter-spacing:0em;}.y{stroke-dasharray:0 0 20 .07;}.y,.a`{stroke:#ed2224;}.ak{font-size:20.8px;}.p,.al,.m,.j{fill-rule:evenodd;}.al{fill:#b7d334;}.am{letter-spacing:0em;}</style></defs><g><polyline class="x" points="585 741 585 747 579 747"></polyline><line class="v" x1="567" y1="747" x2="21" y2="747"></line><polyline class="x" points="15 747 9 747 9 741"></polyline><line class="w" x1="9" y1="729.1" x2="9" y2="20.95"></line><polyline class="x" points="9 15 9 9 15 9"></polyline><line class="v" x1="27" y1="9" x2="573" y2="9"></line><polyline class="x" points="579 9 585 9 585 15"></polyline><line class="w" x1="585" y1="26.9" x2="585" y2="735.05"></line></g><line class="a`" x1="173.03" y1="140.45" x2="594" y2="140.45"></line><path class="n" d="M185.86,124.13c0,.79-.36,1.56-1.08,2.3l-.11,.12-6.26,6.6c-1.33,1.39-2.46,2.48-3.4,3.24-.93,.75-1.6,1.13-1.98,1.13-.41,0-.91-.19-1.52-.57-.59-.38-.99-.78-1.17-1.18-.14-.33-.29-1.06-.41-2.16-.14-1.08-.21-2.27-.21-3.55,0-.7,.29-1.34,.88-1.93,.58-.59,1.22-.89,1.92-.89s1.07,.61,1.19,1.84c.02,.14,.03,.24,.04,.31,.1,.94,.24,1.59,.37,1.96,.15,.37,.33,.56,.58,.56,.1,0,.29-.12,.56-.33,.28-.22,.61-.52,.99-.9l6.44-6.37c.54-.54,1.02-.95,1.45-1.23,.42-.27,.78-.42,1.08-.42,.22,0,.37,.08,.48,.25,.09,.17,.14,.45,.14,.85v.34Z"></path><g><line class="w" x1="585" y1="281.59" x2="579.96" y2="281.59"></line><line class="w" x1="570.11" y1="281.59" x2="181.48" y2="281.59"></line><line class="w" x1="176.54" y1="281.59" x2="171.52" y2="281.59"></line></g><line class="y" x1="171.52" y1="404.54" x2="537.8" y2="404.54"></line><path class="n" d="M185.86,390.17c0,.79-.36,1.56-1.08,2.3l-.11,.12-6.26,6.6c-1.33,1.39-2.46,2.48-3.4,3.24-.93,.75-1.6,1.13-1.98,1.13-.41,0-.91-.19-1.52-.57-.59-.38-.99-.78-1.17-1.18-.14-.33-.29-1.06-.41-2.16-.14-1.08-.21-2.27-.21-3.55,0-.7,.29-1.34,.88-1.93,.58-.59,1.22-.89,1.92-.89s1.07,.61,1.19,1.84c.02,.14,.03,.24,.04,.31,.1,.94,.24,1.59,.37,1.96,.15,.37,.33,.56,.58,.56,.1,0,.29-.12,.56-.33,.28-.22,.61-.52,.99-.9l6.44-6.37c.54-.54,1.02-.95,1.45-1.23,.42-.27,.78-.42,1.08-.42,.22,0,.37,.08,.48,.25,.09,.17,.14,.45,.14,.85v.34Z"></path><path class="n" d="M185.86,267.09c0,.79-.36,1.56-1.08,2.3l-.11,.12-6.26,6.6c-1.33,1.39-2.46,2.48-3.4,3.25-.93,.75-1.6,1.13-1.98,1.13-.41,0-.91-.19-1.52-.57-.59-.38-.99-.78-1.17-1.18-.14-.33-.29-1.06-.41-2.16-.14-1.08-.21-2.27-.21-3.55,0-.7,.29-1.35,.88-1.93,.58-.59,1.22-.89,1.92-.89s1.07,.61,1.19,1.84c.02,.14,.03,.24,.04,.31,.1,.94,.24,1.59,.37,1.96,.15,.37,.33,.56,.58,.56,.1,0,.29-.12,.56-.33,.28-.22,.61-.52,.99-.9l6.44-6.37c.54-.54,1.02-.95,1.45-1.23,.42-.27,.78-.42,1.08-.42,.22,0,.37,.08,.48,.25,.09,.17,.14,.45,.14,.85v.34Z"></path><line class="a`" x1="173.04" y1="182.33" x2="519.77" y2="182.33"></line><path class="n" d="M185.86,166c0,.79-.36,1.56-1.08,2.3l-.11,.12-6.26,6.6c-1.33,1.39-2.46,2.48-3.4,3.24-.93,.75-1.6,1.13-1.98,1.13-.41,0-.91-.19-1.52-.57-.59-.38-.99-.78-1.17-1.18-.14-.33-.29-1.06-.41-2.16-.14-1.08-.21-2.27-.21-3.55,0-.7,.29-1.34,.88-1.93,.58-.59,1.22-.89,1.92-.89s1.07,.61,1.19,1.84c.02,.14,.03,.24,.04,.31,.1,.94,.24,1.59,.37,1.96,.15,.37,.33,.56,.58,.56,.1,0,.29-.12,.56-.33,.28-.22,.61-.52,.99-.9l6.43-6.37c.54-.54,1.02-.95,1.45-1.23,.42-.27,.78-.42,1.08-.42,.22,0,.37,.08,.48,.25,.09,.17,.14,.45,.14,.85v.34Z"></path><g><rect class="k" x="221.72" y="22.59" width="348.94" height="79.23"></rect><g><path class="j" d="M303.68,62.14c0,19.73-15.97,35.72-35.69,35.72s-35.69-15.99-35.69-35.72,15.98-35.72,35.69-35.72,35.69,15.99,35.69,35.72"></path><path class="al" d="M300.47,62.34c0,17.93-14.53,32.47-32.45,32.47s-32.45-14.54-32.45-32.47,14.53-32.47,32.45-32.47,32.45,14.54,32.45,32.47"></path><path class="i" d="M261.07,55.26c-.45,3.98-.78,7.18-1,9.59l-1.48,.06c.02-.08,.04-.17,.04-.27,0-.18-.06-.42-.2-.71-.13-.29-.21-.48-.23-.56-.39,.05-.75,.32-1.1,.8-.35,.48-.66,.71-.94,.71-.17,0-.34-.04-.55-.13-.27,.18-.61,.25-1.02,.22-.39-.07-.76-.12-1.12-.17-.01-.5-.51-.94-1.49-1.32,0-.2-.1-.5-.3-.9-.21-.39-.31-.68-.31-.83,0-.18,.08-.33,.22-.45-.02-.06-.19-.44-.49-1.13-.21-.5-.31-.94-.31-1.3,0-.28,.07-.55,.19-.78-.17-1.71-.25-3.18-.23-4.41,.03-1.9,.3-3.63,.82-5.22-.04-.24-.06-.48-.05-.72,.02-1.27,.45-2.14,1.31-2.64v-.39c.85-1.07,1.96-1.84,3.34-2.33,.82,.2,1.64,.38,2.46,.56,.92,.32,1.56,.86,1.91,1.63,.28,.17,.42,.5,.4,1,0,.56,.06,.93,.19,1.09l-.15,.18c.16,1.19,.23,1.92,.23,2.18-.02,.76-.21,1.3-.61,1.62-.14,0-.51-.13-1.1-.38-.15,.14-.29,.21-.46,.2-.08,0-.22-.04-.43-.13-.21-.08-.39-.13-.53-.13-.1,0-.2,.02-.3,.05-.01-1.59,.04-2.78,.15-3.56-.16-.1-.32-.34-.49-.7-.17-.36-.38-.56-.64-.61-.16,.2-.24,.33-.22,.39l-.54-.19c-.49,.53-.82,1.47-.98,2.79-.16,1.53-.38,2.54-.63,3.04,.22,.23,.32,.54,.32,.94,0,.14-.03,.38-.07,.69-.05,.33-.07,.56-.07,.73,0,.18,.01,.34,.05,.48l-.36,.35c.15,.69,.23,1.56,.26,2.6-.01,.88-.02,1.77-.01,2.66-.03,0-.2,0-.52,.02-.2,0-.35,.07-.43,.21,.12-.01,.23-.03,.33-.02,.44,0,.79,.32,1.04,.94,.25,.61,.47,.93,.65,.93,.2,0,.48-.18,.83-.56,.6-.63,.9-1.5,.92-2.61,0-.54-.05-1.13-.19-1.76-.14,.08-.21,.28-.22,.6-.33,0-.53,.06-.61,.2-.14-.05-.2-.15-.18-.34,.03-.26,.04-.4,.04-.42,.24-.08,.36-.18,.37-.32,0-.06-.04-.18-.13-.34-.09-.17-.13-.29-.13-.4,0-.08,.02-.16,.06-.24l.14-1.17c.44,.12,1.4,.19,2.86,.17-.04,.1,.02,.23,.18,.39,.14-.14,.29-.21,.45-.2,.12,0,.3,.05,.54,.16,.24,.11,.42,.16,.51,.16"></path><path class="i" d="M272.33,65.66c-.28-.12-.58-.19-.9-.2-.28,0-.67,.05-1.15,.16-.55,.11-.92,.18-1.12,.19-.22-.43-.37-1.01-.46-1.76-.16-1.09-.26-1.7-.3-1.85,.06-.12,.09-.22,.09-.3,.01-.22-.17-.42-.51-.6-.35-.18-.53-.32-.52-.42,0-.12,.21-.29,.62-.53-.1-.12-.17-.37-.21-.74-.05-.37-.14-.62-.28-.75-.25,.22-.64,.36-1.19,.42-.56,.06-.93,.15-1.11,.27,.01,1.57-.24,2.62-.78,3.16-.28-.06-.5,.04-.64,.32-.21,.33-.38,.54-.52,.59l.17,.22c-.16,.14-.43,.19-.79,.17-.56-.03-.87-.04-.9-.04l-.17-.54,1.96-16.31c.02-1.02,.07-1.72,.16-2.08-.03-.91,.19-1.47,.63-1.68,.28,.18,.63,.28,1.05,.29,.34,0,.88-.06,1.6-.21,.73-.15,1.23-.22,1.52-.22,.98,.02,1.42,.73,1.29,2.14-.1,1.13,.07,2.62,.53,4.46,.47,1.98,.69,3.46,.68,4.45,0,.3,.09,.92,.06,1.23-.42,.23-.97,.37-1.64,.43-.58,.03-1.18,.06-1.78,.09-.16-1.53-.42-3.38-.58-4.9-.19-1.81-.43-3.31-.71-4.48l-.93,8.62c-.07,.74,.26,1.12,1.01,1.13,.24,0,.47-.05,.7-.17,.18-.05,.43,.08,.75,.41,0,.62,.11,1,.37,1.12,.33-.21,.76-.42,1.28-.61,.47-.18,.92-.34,1.37-.49,.25,.35,.42,.86,.48,1.55,.09,.97,.15,1.53,.18,1.7,.03,.39,.19,1.21,.47,2.49,.2,1.01,.3,1.83,.3,2.45,0,.3-.04,.58-.08,.84"></path><path class="i" d="M286.23,51.28c-.02,.06-.03,.41-.02,1.06-.01,.53-.08,.92-.2,1.18-.15,.4-.23,.97-.24,1.71,0,.17,0,.42,.02,.76,0,.34,0,.59-.01,.75-.02,1.27-.24,2.19-.65,2.77,.04,.33,.05,.65,.05,.97-.02,1.01-.36,2.36-1.03,4.06-.18,.06-.33,.09-.46,.09-.24,0-.41-.14-.52-.42-.1-.27-.2-.53-.3-.78,.07-1.54,.03-3.8-.1-6.77l.18-.17c-.13-.53-.19-1.11-.18-1.76,0-.46,.07-1.13,.17-2.02,.1-.88,.16-1.55,.17-2,.01-.28,0-.55-.01-.81-.69,1.66-1.19,4.47-1.47,8.43l-.26,.6c-.08,.2-.26,.31-.51,.32-.08-.14-.16-.21-.24-.21-.06,0-.16,.07-.32,.22-.15,.15-.28,.21-.38,.19l-.4,.35c.18,.23,.56,.26,1.15,.08,.46-.13,.7,.04,.72,.53,0,.4-.1,.94-.33,1.63-.23,.68-.35,1.19-.36,1.54,0,.24,.02,.48,.08,.72l-2.08,.33c-.2-.41-.34-1.09-.44-2.05-.09-.96-.24-1.64-.43-2.05,.12-.14,.18-.29,.19-.45,0-.14-.06-.35-.17-.64-.12-.28-.19-.49-.2-.64-.02-.22-.09-.76-.21-1.6-.09-.69-.13-1.22-.13-1.6,.01-.2,.02-.38,.05-.54,0-.14-.08-.35-.23-.63-.16-.28-.23-.47-.23-.59,0-.1,.05-.18,.12-.27-.13-.17-.19-.45-.16-.85,.03-.4-.03-.69-.16-.85-.3,.78-.46,1.83-.48,3.17-.01,1.85-.04,2.92-.06,3.2l.21,.19-.21,.18c.15,.73,.21,1.65,.19,2.78-.06,2.03-.08,2.98-.08,2.84-.29,.26-.68,.38-1.19,.37-.62-.01-1.05,.04-1.27,.16-.26-.45-.37-1.02-.36-1.73,0-.54,.1-1.2,.27-1.99-.27-.5-.4-1.21-.39-2.12,0-.22,.03-.65,.09-1.27,.03-.51,.03-.87,.02-1.12,.2-.09,.31-.2,.31-.32,0-.08-.07-.22-.19-.41-.13-.19-.19-.34-.19-.44,0-.12,.09-.24,.25-.36l-.65-9.77c.38-.25,1.01-.38,1.88-.36,.94,.04,1.59-.01,1.93-.14,.06-.04,.13-.06,.21-.06,.08,0,.17,.05,.28,.14,.11,.09,.19,.14,.23,.14,.08,0,.15-.05,.21-.18l.56,.56c.19,.71,.37,2.08,.54,4.11,.17,1.76,.44,3.08,.81,3.97,.49-1.78,.9-3.28,1.22-4.48l.65-4.78,4.68-.1c.02,.26,.08,1.66,.2,2.47,.11,.7,.16,1.28,.16,1.72,0,.51-.09,.96-.23,1.36,.16,.22,.23,.51,.23,.85,0,.34-.09,.62-.26,.84"></path><path class="i" d="M295.83,61.87v-.04c-.12,.26-.2,.56-.23,.91-.02,.22-.03,.53-.01,.94,0,.46,.02,.79,.01,.96-.16,0-.8,0-1.93-.03-.69,0-1.3,.05-1.85,.18l-.57-.61c-.16,.16-.22,.29-.18,.39-.1-.03-.57-.03-1.39-.03-.65-.01-1.13-.08-1.44-.21-.33,.34-.71,.33-1.15-.02-.16-.12-.18-.33-.05-.61,.12-.29,.09-.51-.11-.66,.03-.64,.12-1.64,.26-2.98,.14-1.21,.22-2.15,.23-2.84,.02-.92-.05-1.81-.19-2.66,.22-.22,.48-.33,.76-.32,.33,0,.71,.16,1.14,.47,.61,.43,.94,.65,.95,.65l.18,.22c.02-.06,.12-.38,.31-.96,.1-.38,.26-.63,.47-.75l.18,.19c.08-.04,.34-.23,.79-.56,.35-.24,.63-.8,.83-.79,.22,0,.43,.12,.63,.37,.34,.19,.55,.91,.66,1.29,.1,.37,.2,.74,.3,1.11-.9,.02-1.65,0-2.23-.07-.15,.22-.35,.25-.6,.09-.26-.15-.45-.13-.57,.07-.01,.36-.03,1.02-.04,1.96-.03,.85-.04,1.51-.03,1.99,0,.75,.06,1.43,.15,2.06,.16,0,.92,.02,2.29,.04,.95,.02,1.76,.1,2.44,.26m.07-14.47c-.18,.02-.38,.03-.61,.02-.46,0-1.07-.08-1.83-.21-.95-.14-1.52-.22-1.72-.24-.29,.41-.44,1-.45,1.77-.03,1.65-.03,2.36,0,2.15,.28,.16,.41,.47,.41,.91-.02,.6-.04,.92-.01,.94-.15,.06-.22,.26-.22,.6-.22-.08-.45-.25-.68-.5-.32-.31-.49,.74-.46,.47l-.19,.62-.18-.19c-.16,.01-.44-.07-.83-.26-.39-.19-.66-.36-.82-.53,0-.32,.06-.5,.16-.54l-.39-.43-.19,.27c-.23-2.1-.17-6.02,.11-8.23,.76,.13,1.6,.22,2.53,.25,.62,.03,1.5,.04,2.62,.04,1.29,0,2.22,0,2.78,.01,.24,.23,.35,.52,.35,.88,0,.22-.07,.58-.19,1.07-.13,.49-.18,.85-.18,1.1"></path><path class="i" d="M261.98,80.12v-.02s-.05,.46-.16,1.34c-.06,.54-.18,.96-.39,1.27l-.13-.11c-.25,.52-.58,.83-1,.94-.2,.21-.49,.33-.87,.35-.23,.01-.75-.05-1.56-.2-.4-.25-.61-.38-.65-.41-.25-.19-.37-.38-.35-.57-.24-.25-.58-.68-.7-1.23-.15-.61-.25-.64-.39-.85-.23,.17-.31-.19-.44-.4l.12-.09c-.07-.05-.12-.11-.12-.18,0-.05,.02-.12,.06-.22,.05-.09,.07-.16,.06-.21,0-.08-.05-.14-.13-.19,.09-.48,.17-1.19,.25-2.14,.16-.09,.24-.26,.23-.5-.01-.25,.03-.41,.1-.49,.38-.77,1.01-1.29,1.87-1.56,.05,0,.28,0,.69-.01,.29,0,.5,.02,.65,.08,.25-.04,.52,.02,.78,.19,.22,.17,.44,.34,.67,.5,.42,.46,.65,.97,.68,1.54,.01,.19,0,.39-.04,.61-.31-.01-.53,.19-.66,.61l-1.2,.11c-.13-.18-.21-.43-.22-.73-.01-.11,0-.26,0-.46,0-.2,0-.35,0-.46-.02-.32-.1-.57-.23-.75l-.37,.21c-.14-.06-.22-.14-.22-.26,0-.04,0-.09,.01-.16,.02-.08,.02-.12,.02-.15,0-.13-.12-.2-.34-.22-.15,1.36-.19,2.75-.13,4.19,.04,.05,.15,.08,.34,.1,.16,.02,.24,.07,.24,.15,0,.03,0,.06-.03,.11l-.12,.1c.06,.1,.1,.24,.11,.42,0,.1,0,.24-.01,.44,0,.2-.01,.34,0,.44,.01,.29,.09,.5,.22,.65-.01,.21,.07,.35,.26,.43,.12-.05,.22-.07,.32-.08,.36-.02,.62,.18,.76,.61,0,0,0,.08,0,.22,0,.08,.04,.12,.12,.14,.16-.09,.25-.26,.24-.51,0-.29,.03-.47,.11-.55-.02-.14-.1-.32-.24-.58-.14-.25-.21-.44-.22-.59,0-.15,.04-.3,.14-.44-.09-.03-.12-.08-.12-.17,0-.13,0-.2,0-.22,.65-.16,1.32-.17,2-.01"></path><path class="i" d="M267.44,81.25h-.02c-.07,.14-.09,.34-.07,.59,.03,.36,.05,.55,.05,.56-.06,.02-.13,0-.22-.08-.14,.05-.2,.15-.2,.27,0,.02,.01,.05,.03,.09v.11c.01,.09-.02,.18-.08,.22-.16-.09-.37-.14-.63-.17-.26-.03-.51-.05-.75-.07,0-1.21-.16-2.4-.48-3.56,0,0,0-.11-.02-.36,0-.18-.04-.3-.12-.38l-.11,.1s.03-.05,.11-.1c.07-.05,.11-.11,.11-.16,0-.03-.01-.05-.02-.08l-.13-.09c-.21,.07-.3,.23-.28,.5,0,.17-.06,.3-.21,.37,.06,.04,.09,.09,.09,.15,0,.04,0,.09-.02,.15-.01,.06-.02,.11-.02,.15,0,.08,.05,.14,.13,.19,0,.05,.03,.53,.08,1.44,.04,.58,.02,1.07-.05,1.47v.23c-.06,0-.15,0-.25,0-.11,0-.27,.02-.48,.05-.21,.02-.36,.04-.46,.05-.41,.02-.69-.05-.86-.21l-.18-4.98c-.07-.24-.13-.58-.16-1.02l-.06-.96c-.03-.47-.09-.83-.17-1.09,.04-.17,.18-.26,.45-.28,.17-.01,.39,0,.67,.07,.13-.06,.31-.1,.54-.11,.07,0,.17,0,.32,0,.15,0,.26-.01,.33-.02,.43-.03,.72-.16,.86-.4,.2,0,.41,.06,.65,.19,.23,.13,.44,.2,.62,.21,.47,.28,.72,.73,.77,1.37,0,.14-.05,.7-.18,1.69l-.8,.7c.14,.25,.3,.8,.49,1.64,.16,.71,.4,1.22,.74,1.55m-1.49-5.66l.02,.02c.02,.06,0-.16-.02-.66-.01-.24-.1-.41-.26-.52-.1,.13,0,.19-.04,.49-.05,.3-.22,.22-.33,.35-.28,0-.34,.16-.4-.1-.13-.43-.23-.39-.23-.4l-.12,.07s-.09,.08-.14,.13c-.05,.05-.11,.07-.16,.05,0,.05-.03,.14-.08,.25-.05,.11-.08,.19-.08,.24,0,.08,.07,.14,.19,.18-.02,.18-.02,.37-.01,.56,0,.11,.03,.35,.08,.73,.05,.3,.07,.56,.06,.77,.1,0,.19,0,.28,0,.39-.03,.64-.18,.75-.46,.04-.08,.09-.38,.14-.89,.04-.38,.16-.65,.35-.81"></path><path class="i" d="M273.71,83.18c-.16-.05-.33-.06-.51-.05-.16,0-.36,.05-.62,.12-.29,.07-.5,.11-.61,.13-.13-.18-.23-.43-.31-.76-.13-.47-.2-.74-.23-.8,.03-.05,.04-.1,.04-.13,0-.1-.11-.18-.31-.24-.19-.06-.29-.12-.29-.17,0-.05,.1-.14,.31-.26-.05-.05-.1-.16-.14-.32-.03-.16-.09-.27-.18-.32-.12,.11-.34,.18-.64,.23-.3,.05-.5,.1-.59,.16,.07,.69,0,1.91-.27,2.16-.16-.02-.27,.04-.34,.17-.1,.16-.19,.25-.27,.28l.11,.09c-.08,.07-.23,.11-.43,.11-.31,0-.47,.02-.5,.02l-.11-.24,.46-8c-.02-.46-.02-.76,.01-.92-.04-.4,.05-.66,.29-.77,.16,.07,.35,.1,.59,.08,.19,0,.48-.06,.87-.15,.39-.09,.66-.14,.82-.15,.54-.04,.8,.26,.78,.89-.01,.5,.13,1.15,.44,1.94,.33,.85,.5,1.5,.53,1.93,0,.13,.18,.42,.18,.55-.22,.12-.52,.21-.88,.25-.32,.03-.64,.08-.97,.11-.14-.67-.45-1.48-.59-2.14-.17-.79-.35-1.44-.55-1.95l-.21,3.84c-.01,.33,.19,.48,.59,.46,.14,0,.26-.04,.38-.1,.1-.03,.24,.02,.42,.15,.02,.28,.1,.44,.25,.48,.17-.11,.39-.21,.67-.32,.25-.1,.5-.19,.73-.27,.15,.14,.26,.36,.32,.66,.08,.42,.14,.67,.16,.74,.03,.17,.15,.53,.34,1.08,.15,.44,.23,.79,.25,1.07,.01,.13,0,.26,0,.37"></path><path class="i" d="M278.27,74.11h.02c-.13,.19-.3,.23-.51,.1-.05,0-.25,0-.6,.04-.29,.02-.51,0-.65-.05-.03,0-.1,.04-.2,.1-.1,.07-.16,.1-.21,.1-.06,0-.1-.05-.11-.17,0-.02,0-.09-.01-.23,0-.09-.05-.15-.13-.18l-.2,.16c-.07,.05-.1,.1-.09,.15,0,.04,.04,.11,.11,.18,.07,.08,.11,.14,.12,.18,0,.03,.03,.42,.08,1.2,.02,.49,.11,.88,.27,1.18,.04-.05,.14-.08,.3-.08,.16,0,.27-.04,.32-.11,.1,.09,.28,.1,.52,.02,.24-.08,.42-.05,.53,.08l-.03,1.18c-.1,0-.25-.06-.45-.15-.05,.17-.16,.28-.32,.32-.06,.02-.25,.04-.56,.06,0-.06-.04-.11-.15-.17-.3,.15-.41,.48-.34,1.02,0-.05,.02,.03,.03,.28,.01,.15-.03,.26-.1,.33-.19,.03-.43-.02-.71-.13-.29-.11-.5-.16-.62-.16-.06,0-.11,.01-.15,.02l-.31,.1-.49-5.38-.06-1.02c.41-.14,.92-.23,1.53-.26,.48-.03,1.09-.03,1.86,0,.05-.1,.14,.04,.25,.03,.05,0,.13,0,.25,.02,.11,.02,.19,.03,.25,.02,.07,0,.13-.02,.18-.04l.08-.09c.22,.07,.34,.19,.35,.36,0,.07-.02,.19-.06,.36-.05,.18-.07,.3-.06,.4,0,.08,.03,.15,.06,.21m-1.93,8.98c-.12,.06-.3,.09-.54,.11-.32,.02-.51,.04-.58,.04-.03-.04-.08,0-.15-.29-.04-.18-.16-.27-.35-.26-.04,0-.09,0-.16,.02h-.3l-.16-2.71c.16-.08,.36-.13,.61-.14,.23-.01,.44,0,.62,.07,0,.1,.13,.14,.42,.12l.31-.02c.19,.77,.3,2.15,.28,3.04"></path><path class="i" d="M284.89,74.33h.01c-.15,0-.65,.03-1.04,.09-.33,.04-.58,.05-.75,.02-.16,.1-.22,.25-.18,.43l.11,.06c-.09,.07-.12,.14-.09,.18l.09,.09c-.02,1.58-.03,2.45-.02,2.62,.03,.42,.08,.79,.15,1.1-.07,.2-.09,.43-.07,.68,0,.17,.05,.43,.11,.8,.08,.36,.17,1.57,.18,1.75,0,.15,0,.28-.01,.4-.15,.06-.32,.1-.49,.11-.3,.02-.61-.04-.96-.18-.04,.04-.09,.07-.14,.12-.06,.04-.07,.09-.04,.14-.11,.03-.26-.01-.46-.14-.1-1.59-.39-4.85-.82-8.14-.15,.14-.42,.03-.71,.06-.34,.04-.67-.02-.8,.04-.16-.18-.13-.23-.14-.52-.02-.28-.11-.98-.03-1.28,.02-.06,.63-.03,.99-.05,.5-.03,.61,.09,.64,.08,.05-.07,.29-.03,.47-.04,.11,.05,.24-.05,.24,.03,0,.06,0,.39-.04,.48-.04,.1-.06,.17-.06,.21,.01,.1,.09-.05,.27,.01,.2,0,.4-.01,.62-.02,.23,.02,.5-.06,.48,.13,.03-.05,.06,.04,.4-.09,.25-.11,.39-.41,.35-.61-.03-.12,.12-.18,.03-.13,.12-.06,.01-.02,.14-.07,.41,.04,.64,0,.72,0,.17,0,.58,.1,.69,.03,.08,.16,.13,.64,.13,.91,.01,.43,.02,.66,.03,.68"></path><path class="i" d="M290.25,79.89v-.02c-.06,.12-.09,.26-.09,.41,0,.1,0,.24,.03,.42,.02,.2,.04,.34,.04,.42-.09,0-.44,.03-1.06,.06-.37,.02-.71,.07-1,.15l-.33-.25c-.08,.08-.12,.14-.09,.18-.05,0-.31,.01-.76,.05-.35,.02-.62,0-.8-.03-.17,.16-.38,.17-.63,.04-.09-.05-.1-.14-.05-.27,.06-.13,.03-.23-.09-.28,0-.29,0-.73,.04-1.33,.03-.53,.04-.96,.03-1.26-.02-.41-.09-.8-.2-1.17,.12-.1,.25-.16,.4-.17,.18-.01,.39,.05,.65,.16,.35,.16,.53,.25,.54,.25l.1,.08s.06-.17,.14-.43c.04-.17,.12-.29,.22-.35l.1,.08s.18-.12,.42-.28c.18-.11,.3-.54,.42-.55,.12,0,.24,.04,.36,.14,.19,.07,.35,.56,.41,.71,.07,.16,.14,.32,.2,.48-.5,.05-.9,.07-1.22,.06-.07,.1-.18,.12-.33,.06-.15-.06-.25-.04-.31,.05,.01,.16,.03,.45,.05,.87,0,.37,.03,.67,.05,.88,.03,.33,.08,.63,.15,.9,.09,0,.51-.03,1.26-.07,.52-.03,.97-.03,1.34,.02m-.51-6.26c-.09,.01-.2,.02-.33,.03-.26,.01-.59,0-1.01-.02-.52-.03-.84-.03-.95-.04-.14,.2-.16,.36-.14,.69,.04,.73,.07,1.05,.07,.95,.16,.06,.24,.19,.26,.39,0,.26,.01,.4,.02,.41-.07,.03-.11,.12-.1,.28-.12-.03-.25-.1-.39-.19-.19-.12-.24,.31-.24,.19l-.08,.27-.1-.07c-.09,0-.24-.01-.46-.08-.22-.07-.38-.13-.47-.2,0-.14,.01-.22,.06-.24l-.22-.18-.09,.13c-.2-.91-.33-2.53-.26-3.51,.42,.03,.92-.04,1.43-.07,.34,0,.82-.03,1.44-.08,.7-.05,1.21-.08,1.52-.1,.14,.09,.21,.22,.22,.37,0,.1-.01,.25-.06,.47-.05,.23-.11,.5-.11,.61"></path><path class="i" d="M295.76,78.95h-.02c-.07,.14-.09,.34-.07,.59,.03,.36,.05,.55,.05,.56-.06,.03-.13,0-.22-.08-.14,.05-.21,.14-.2,.26,0,.02,0,.05,.02,.1,0,.05,0,.09,0,.11,0,.1-.02,.17-.08,.22-.16-.09-.37-.15-.64-.17-.26-.02-.51-.05-.74-.07,0-1.21-.17-2.39-.48-3.55,0,0,0-.12-.02-.36,0-.18-.04-.31-.12-.38l-.11,.1s.04-.05,.11-.11c.07-.05,.11-.11,.1-.16,0-.03,0-.05-.02-.08l-.12-.09c-.21,.06-.3,.23-.29,.5,0,.18-.06,.3-.22,.37,.06,.04,.09,.1,.1,.16,0,.03,0,.08-.02,.14-.01,.07-.02,.11-.02,.15,0,.08,.05,.14,.13,.19,0,.05,.03,.53,.08,1.44,.03,.58,.02,1.07-.04,1.47v.23c-.07,0-.16,0-.26,0-.12,0-.27,.02-.48,.05-.21,.03-.37,.04-.46,.05-.41,.02-.69-.04-.86-.21l-.18-4.97c-.08-.25-.13-.58-.16-1.02l-.06-.96c-.04-.47-.1-.83-.18-1.09,.03-.17,.19-.26,.45-.28,.17-.01,.38,.01,.67,.07,.13-.06,.31-.1,.54-.11h.31c.15,0,.26-.02,.33-.02,.43-.02,.71-.15,.85-.4,.2,0,.42,.06,.65,.19,.23,.13,.44,.2,.62,.2,.47,.28,.72,.74,.76,1.38,0,.14-.05,.71-.17,1.69l-.8,.7c.14,.26,.3,.8,.49,1.64,.17,.7,.41,1.22,.75,1.55m-1.5-5.66h.02c.02,.08,0-.14-.02-.64-.02-.24-.1-.41-.27-.52-.09,.13-.1-.17-.15,.13-.04,.3-.12,.51-.22,.65-.28,0-.35-.17-.51-.4-.11-.15-.15-.02-.15-.03l-.07,.06s-.09,.08-.15,.13c-.05,.05-.1,.06-.16,.05,0,.05-.03,.14-.08,.25-.05,.11-.08,.19-.07,.23,0,.08,.06,.14,.19,.18-.02,.18-.03,.37-.02,.56,0,.11,.03,.35,.07,.73,.05,.3,.07,.56,.06,.77,.1,0,.19,0,.28,0,.38-.02,.63-.18,.75-.46,.04-.08,.08-.38,.13-.89,.04-.39,.16-.66,.35-.81"></path><path class="i" d="M240.89,56h0c-.05,.47-.06,.79-.05,.97-.07,.03-.16,.03-.28,.01-.15-.02-.23-.04-.25-.03-.06,0-.12,.03-.15,.07-.09-.06-.15-.08-.19-.07-.08,.05-.12,.13-.12,.22,0,.04,.02,.11,.05,.21,.03,.1,.04,.17,.05,.22,0,.06,0,.17-.04,.3-.03,.14-.04,.25-.04,.34,.01,.1,.03,.27,.07,.49,.04,.22,.06,.39,.06,.5-.04,.22-.06,.44-.05,.67,.02,.27,.09,.64,.22,1.1,.03,0,.05,0,.08,0,.06,0,.12-.04,.2-.12,.08-.07,.14-.12,.2-.12,.04,0,.08,0,.13,.03,.15,.47,.22,.77,.23,.91,0,.06,0,.13,0,.2-.22,.05-.37-.02-.46-.22,.01-.05-.02-.11-.1-.18l-.24,.26c.24,.03,.33,.22,.28,.55-.02,.06-.07,.1-.15,.1-.14,0-.2,0-.19,0l-.2-.35-.08,.1c-.07-.17-.14-.25-.23-.24-.05,0-.13,.04-.26,.12-.12,.08-.22,.12-.3,.12-.06,0-.13-.02-.19-.05,0-.1-.01-.19-.03-.3-.02-.1-.06-.17-.16-.2,0-.25,0-.91,.03-1.97,0-.81,0-1.46-.03-1.96-.01-.21-.03-.42-.05-.61-.04-.07-.08-.09-.12-.09s-.08,.04-.15,.11c-.07,.07-.12,.1-.17,.09,0-.08-.04-.21-.11-.39-.06-.18-.11-.3-.11-.39,0-.14,.05-.26,.15-.36l.28,.08c.12-.16,.16-.43,.14-.81,0-.07-.01-.18-.03-.34-.01-.16-.02-.27-.03-.34-.03-.62,.16-.94,.57-.96,.15,0,.34,.02,.56,.08l.27,.07c.02,.11,.03,.21,.04,.33,0,.15,0,.38-.02,.67-.03,.3-.04,.52-.03,.65,0,.22,.05,.41,.11,.59,.07,0,.16-.04,.3-.11,.14-.07,.24-.11,.3-.11,.11,0,.2,.04,.27,.15m-.84,.87v-.28l-.1-.08,.1,.36Z"></path><path class="i" d="M244.2,55.13h.02c-.03,.22-.06,.44-.1,.66-.04,.25-.12,.45-.21,.59-.02,0-.12-.05-.3-.14-.12-.06-.24-.09-.33-.08-.07,.47-.11,1.11-.12,1.93,0,1.04-.02,1.67-.03,1.89-.12-.02-.21,.03-.27,.11-.06,.09-.12,.18-.17,.27-.03,.05-.04,.09-.03,.13,0,.06,.06,.13,.17,.19,.11,.06,.16,.12,.16,.19-.05,.18-.15,.26-.3,.27-.08,0-.2-.02-.38-.06-.18-.05-.3-.07-.38-.07l-.17-3.45c.06-.09,.09-.15,.09-.19l-.1-.07c.01-.15,.02-.87,.03-2.17,0-.88,.03-1.59,.09-2.13,0,0,.24-.01,.75-.05,.32-.02,.52,.07,.61,.26,0,.18-.02,.48-.05,.91-.03,.39-.05,.68-.04,.89,.01,.26,.06,.49,.12,.7,.27-.37,.59-.56,.94-.58m1.2,.74c.03,.32,.04,.63,.06,.94,.07,1.34,.05,2.77-.06,4.29-.11,.11-.29,.13-.53,.07-.24-.06-.42-.04-.52,.07-.14-.18-.22-.5-.24-.96-.03-.68-.05-1.03-.05-1.05-.03-1.69,.14-3.06,.5-4.1,.41,.11,.7,.36,.85,.76"></path><path class="i" d="M249.64,57.62c-.05,.11-.08,.22-.07,.34,0,.12,0,.24,.02,.35,0,.1-.04,.19-.08,.29-.08-.02-.14-.03-.19-.03-.05,0-.11,.03-.17,.06-.06,.04-.1,.06-.13,.06-.05,0-.11-.01-.2-.05l-.56-.82c.02,.24,.08,.45,.17,.63,.04,.09,.09,.19,.13,.29-.33,.05-.51,.06-.55,.03l-.08,.1-.19-.25c-.16,.18-.19,.46-.11,.82,.1,.39,.11,.67,.02,.84,.13,.18,.27,.26,.44,.25,.07,0,.14-.03,.19-.08,.08-.2,.16-.4,.23-.59,.12-.24,.25-.37,.39-.38,.11,0,.24,.05,.4,.18,.17,.06,.27,.15,.28,.25,0,.06-.04,.17-.12,.31-.09,.15-.13,.26-.12,.34,0,.04,0,.06,.02,.09-.12,.08-.22,.21-.31,.39-.09,.18-.22,.29-.37,.36-.13,.13-.26,.19-.36,.2-.09,0-.22-.07-.4-.21-.17-.14-.33-.2-.49-.2-.06-.14-.22-.3-.47-.47-.25-.18-.4-.36-.46-.56,0,.02,0-.04-.01-.19,0-.08-.04-.13-.11-.15l.1-.09c-.13,0-.19-.07-.19-.21,0-.02,0-.05,0-.1,0-.04,0-.07,0-.1,0-.1-.04-.16-.09-.2l-.03-.43c0-.21-.05-.37-.13-.46,.09-.51,.16-1.02,.24-1.53,.13-.6,.32-.9,.59-.91,.04,0,.08,0,.12,.02,.23-.23,.51-.35,.84-.37,.36-.02,.76,.09,1.2,.33,.34,.56,.56,1.17,.64,1.84m-1.66-1.33l-.09,.1c-.06,0-.12-.02-.19-.09l.02,.28c-.12,.13-.17,.34-.15,.62,.03,.49,.03,.72,.03,.7h.37c.17-.1,.25-.27,.23-.49,0-.11-.04-.29-.11-.56-.08-.25-.11-.45-.1-.57"></path><polygon class="j" points="252.46 69.79 252.82 69.99 254.04 66.79 253.64 66.66 252.42 69.86 252.77 70.09 252.46 69.79"></polygon><polygon class="j" points="253 69.34 252.85 69.4 252.46 69.79 252.77 70.09 253.16 69.68 253.01 69.76 253 69.34"></polygon><polygon class="j" points="255.94 69.32 256.12 69.19 253 69.34 253.01 69.76 256.13 69.6 256.33 69.45 255.94 69.32"></polygon><polygon class="j" points="257.35 66.38 257.14 66.11 255.94 69.32 256.33 69.45 257.55 66.25 257.33 65.99 257.35 66.38"></polygon><polygon class="j" points="254.38 66.48 254.23 66.56 257.35 66.38 257.33 65.99 254.22 66.13 254.07 66.2 254.38 66.48"></polygon><polygon class="j" points="254.04 66.79 253.99 66.87 254.38 66.48 254.07 66.2 253.68 66.59 253.64 66.66 254.04 66.79"></polygon><polygon class="j" points="256.63 69.7 256.91 69.58 256.24 69.2 256.03 69.58 256.72 69.97 257.02 69.83 256.62 69.69 256.63 69.7"></polygon><polygon class="j" points="257.94 66.75 257.83 66.5 256.61 69.69 257.02 69.83 258.23 66.63 258.12 66.38 257.94 66.75"></polygon><polygon class="j" points="257.55 66.25 257.25 66.38 257.94 66.74 258.12 66.38 257.45 66 257.14 66.11 257.55 66.25"></polygon><polygon class="i" points="253.85 66.73 253.82 66.72 254.22 66.34 257.11 66.2 257.14 66.11 257.35 66.19 257.55 66.25 257.53 66.28 258.04 66.57 258.23 66.63 258.16 66.84 259.57 70.21 258.37 73.41 256.83 69.76 256.62 69.85 256.61 69.69 256.63 69.65 256.14 69.39 256.03 69.58 255.97 69.39 253 69.54 252.61 69.92 253.85 66.73"></polygon><polygon class="j" points="258.19 73.35 258.58 73.33 257.03 69.68 256.62 69.84 258.18 73.5 258.57 73.48 258.16 73.34 258.19 73.35"></polygon><polygon class="j" points="259.39 70.3 259.38 70.14 258.16 73.34 258.57 73.48 259.78 70.28 259.78 70.13 259.39 70.3"></polygon><polygon class="j" points="258.23 66.63 257.84 66.65 259.39 70.3 259.78 70.13 258.22 66.48 257.83 66.5 258.23 66.63"></polygon><polygon class="m" points="258.13 67.45 258.31 67.83 258.37 68.22 258.35 68.6 258.24 68.99 258.05 69.38 257.78 69.72 257.44 70.04 257.03 70.3 256.8 70.4 256.58 70.5 256.33 70.54 256.1 70.59 255.87 70.63 255.63 70.65 255.41 70.62 255.17 70.61 254.97 70.56 254.76 70.49 254.56 70.4 254.38 70.3 254.22 70.18 254.04 70.06 253.91 69.91 253.79 69.74 253.61 69.36 253.55 68.97 253.55 68.59 253.68 68.2 253.85 67.82 254.12 67.46 254.46 67.15 254.89 66.88 255.1 66.78 255.34 66.69 255.58 66.64 255.8 66.59 256.05 66.57 256.27 66.53 256.5 66.57 256.73 66.58 256.94 66.65 257.16 66.72 257.35 66.79 257.55 66.89 257.71 66.99 257.87 67.13 257.99 67.3 258.13 67.45"></polygon><polygon class="j" points="258.29 68.09 258.46 68.46 258.52 68.87 258.5 69.25 258.4 69.62 258.22 70.02 257.94 70.37 257.62 70.67 257.19 70.93 256.96 71.05 256.73 71.15 256.5 71.2 256.25 71.24 256.02 71.28 255.8 71.29 255.57 71.28 255.33 71.24 255.13 71.19 254.92 71.12 254.73 71.04 254.53 70.93 254.37 70.83 254.22 70.7 254.07 70.56 253.95 70.37 253.76 70.01 253.7 69.62 253.72 69.22 253.82 68.85 254 68.46 254.27 68.11 254.61 67.8 255.03 67.53 255.27 67.42 255.49 67.34 255.73 67.27 255.98 67.22 256.2 67.22 256.42 67.18 256.65 67.22 256.88 67.22 257.09 67.28 257.31 67.35 257.49 67.44 257.7 67.52 257.86 67.64 258.03 67.76 258.15 67.93 258.28 68.1 258.29 68.09"></polygon><polygon class="m" points="258.4 68.53 258.58 68.89 258.63 69.3 258.62 69.68 258.51 70.05 258.32 70.43 258.05 70.79 257.73 71.1 257.3 71.36 257.09 71.48 256.84 71.57 256.61 71.62 256.36 71.67 256.14 71.7 255.92 71.71 255.68 71.7 255.44 71.66 255.24 71.62 255.03 71.55 254.85 71.46 254.64 71.36 254.48 71.26 254.32 71.11 254.2 70.97 254.05 70.79 253.88 70.43 253.81 70.05 253.84 69.67 253.95 69.27 254.12 68.88 254.39 68.52 254.74 68.23 255.15 67.96 255.38 67.84 255.61 67.75 255.84 67.7 256.09 67.66 256.32 67.62 256.54 67.61 256.79 67.63 257 67.66 257.21 67.7 257.43 67.78 257.63 67.87 257.81 67.97 257.97 68.06 258.15 68.19 258.26 68.35 258.4 68.53"></polygon><polygon class="j" points="258.55 69.16 258.72 69.54 258.79 69.92 258.79 70.31 258.66 70.7 258.49 71.07 258.2 71.42 257.88 71.75 257.45 72.01 257.25 72.12 257 72.2 256.77 72.26 256.54 72.3 256.29 72.33 256.07 72.37 255.84 72.33 255.61 72.32 255.39 72.27 255.18 72.2 254.99 72.11 254.79 72.01 254.64 71.89 254.49 71.77 254.34 71.62 254.21 71.44 254.05 71.07 253.97 70.68 253.99 70.3 254.1 69.91 254.29 69.54 254.56 69.18 254.9 68.86 255.31 68.59 255.53 68.5 255.76 68.4 256.01 68.35 256.24 68.3 256.46 68.27 256.71 68.26 256.93 68.28 257.15 68.28 257.36 68.33 257.58 68.41 257.78 68.5 257.97 68.6 258.13 68.72 258.29 68.83 258.43 68.99 258.54 69.18 258.55 69.16"></polygon><polygon class="m" points="258.77 69.58 258.96 69.94 259.02 70.33 259.01 70.73 258.91 71.1 258.72 71.49 258.43 71.85 258.11 72.15 257.7 72.42 257.47 72.53 257.22 72.62 257 72.67 256.76 72.73 256.52 72.75 256.29 72.76 256.07 72.75 255.84 72.72 255.62 72.67 255.41 72.6 255.22 72.51 255.03 72.43 254.86 72.3 254.71 72.17 254.57 72.01 254.46 71.85 254.28 71.49 254.2 71.07 254.22 70.7 254.34 70.33 254.52 69.94 254.79 69.58 255.12 69.28 255.53 69.01 255.77 68.89 255.99 68.8 256.23 68.77 256.48 68.7 256.69 68.67 256.94 68.67 257.16 68.68 257.38 68.7 257.59 68.75 257.82 68.83 258.01 68.91 258.2 69 258.37 69.12 258.52 69.26 258.66 69.41 258.77 69.58"></polygon><polygon class="j" points="258.95 70.22 259.1 70.59 259.19 70.99 259.17 71.36 259.06 71.75 258.87 72.12 258.6 72.48 258.26 72.8 257.84 73.07 257.62 73.16 257.38 73.25 257.15 73.31 256.91 73.36 256.69 73.39 256.45 73.41 256.22 73.38 255.99 73.37 255.79 73.32 255.56 73.24 255.37 73.16 255.19 73.06 255.02 72.94 254.86 72.82 254.72 72.67 254.6 72.5 254.43 72.12 254.35 71.72 254.37 71.35 254.5 70.96 254.67 70.59 254.93 70.23 255.28 69.91 255.71 69.65 255.91 69.54 256.16 69.46 256.39 69.4 256.62 69.35 256.87 69.33 257.09 69.3 257.32 69.33 257.52 69.34 257.76 69.39 257.98 69.46 258.16 69.54 258.34 69.65 258.52 69.77 258.67 69.89 258.81 70.04 258.95 70.22"></polygon><polygon class="j" points="237.67 65.3 237.7 65.18 236.47 68.4 236.86 68.53 238.09 65.31 238.09 65.22 237.67 65.3"></polygon><polygon class="j" points="237.65 65.14 237.65 65.12 237.67 65.3 238.09 65.22 238.05 65.04 238.06 65.02 237.65 65.14"></polygon><polygon class="j" points="237.6 64.95 237.65 65.14 238.06 65.02 238.01 64.84 237.6 64.95"></polygon><polygon class="j" points="237.55 64.79 237.6 64.96 238.01 64.84 237.95 64.67 237.55 64.79"></polygon><polygon class="j" points="237.51 64.6 237.51 64.6 237.55 64.79 237.95 64.66 237.91 64.48 237.9 64.5 237.51 64.6"></polygon><polygon class="j" points="237.46 64.37 237.46 64.43 237.51 64.6 237.9 64.5 237.85 64.33 237.87 64.4 237.46 64.37"></polygon><polygon class="j" points="237.86 64.29 237.46 64.22 237.46 64.37 237.87 64.4 237.88 64.26 237.47 64.18 237.86 64.31 237.86 64.29"></polygon><polygon class="p" points="238.22 73.66 238.18 73.45 237.75 73.52 237.78 73.75 238.22 73.66"></polygon><polygon class="j" points="239.11 70.98 239.13 70.87 237.9 74.07 238.29 74.2 239.51 71 239.5 70.89 239.11 70.98"></polygon><polygon class="j" points="239.08 70.75 239.11 70.98 239.5 70.89 239.47 70.67 239.06 70.74 239.08 70.75"></polygon><polygon class="j" points="239.02 70.54 239.06 70.74 239.47 70.67 239.41 70.45 239.02 70.54"></polygon><polygon class="j" points="238.97 70.3 238.98 70.33 239.02 70.54 239.41 70.45 239.38 70.23 239.4 70.26 238.97 70.3"></polygon><polygon class="j" points="239.36 70.11 238.94 70.06 238.97 70.3 239.4 70.26 239.36 70.03 238.95 69.98 239.36 70.11"></polygon><path class="o" d="M236.48,67.76l-.19,.06,.19-.06Z"></path><polygon class="o" points="236.68 68.43 236.69 68.41 236.79 68.42 236.86 68.53 236.68 68.46 236.68 68.43"></polygon><polygon class="i" points="236.24 67.63 236.44 67.6 236.45 67.45 237.67 64.23 237.66 64.25 237.66 64.38 237.7 64.54 237.77 64.73 237.82 64.9 237.86 65.08 237.89 65.24 238.09 65.31 236.86 68.53 236.79 68.42 236.69 68.41 236.68 68.43 236.68 68.46 236.86 68.53 236.68 68.52 236.69 68.66 236.56 68.51 236.46 68.5 236.43 68.32 236.51 68.31 236.59 68.1 236.38 68.15 236.32 68.01 236.28 67.82 236.48 67.76 236.28 67.82 236.29 67.8 236.24 67.63"></polygon><polygon class="i" points="236.67 68.25 245.63 67.95 245.86 67.97 245.9 67.98 246.12 68.03 246.14 68.04 246.37 68.12 246.6 68.21 246.61 68.22 246.83 68.36 246.86 68.37 247.04 68.51 247.09 68.55 247.2 68.7 247.22 68.72 247.3 68.86 247.31 68.9 246.91 69.02 246.85 68.92 246.84 68.94 246.75 68.8 246.75 68.8 246.61 68.69 246.64 68.72 246.43 68.61 246.43 68.61 246.2 68.51 246.01 68.45 245.79 68.39 245.82 68.41 245.62 68.39 245.62 68.36 236.68 68.66 236.67 68.25"></polygon><polygon class="i" points="246.9 69.03 246.91 69.02 246.94 69.06 246.9 69.03"></polygon><polygon class="j" points="251.69 76.55 251.69 76.42 250.47 79.64 250.87 79.77 252.1 76.55 252.1 76.43 251.69 76.55"></polygon><polygon class="j" points="248.15 65.86 248.13 65.81 251.69 76.55 252.1 76.43 248.53 65.69 248.53 65.64 248.15 65.86"></polygon><polygon class="j" points="248.09 65.75 248.07 65.72 248.15 65.86 248.53 65.64 248.44 65.5 248.42 65.5 248.06 65.74 248.09 65.75"></polygon><polygon class="j" points="248 65.62 247.97 65.58 248.06 65.74 248.42 65.5 248.29 65.33 248.26 65.29 248 65.62"></polygon><polygon class="j" points="247.86 65.52 247.83 65.49 248 65.62 248.26 65.29 248.09 65.17 248.05 65.14 247.86 65.52"></polygon><polygon class="j" points="247.67 65.4 247.65 65.39 247.86 65.52 248.05 65.14 247.83 65.02 247.81 65.02 247.67 65.4"></polygon><polygon class="j" points="247.46 65.31 247.42 65.31 247.67 65.4 247.81 65.02 247.59 64.92 247.56 64.91 247.43 65.32 247.46 65.31"></polygon><polygon class="j" points="247.23 65.23 247.2 65.24 247.43 65.32 247.57 64.91 247.34 64.84 247.22 65.25 247.23 65.23"></polygon><polygon class="j" points="247.05 65.19 247.01 65.18 247.22 65.25 247.34 64.84 247.1 64.78 247.08 64.77 247.05 65.19"></polygon><polygon class="j" points="246.84 65.16 246.83 65.18 247.05 65.19 247.08 64.77 246.85 64.74 246.83 64.75 246.84 65.16"></polygon><polygon class="j" points="238.1 65.31 237.88 65.45 246.84 65.16 246.83 64.75 237.89 65.05 237.7 65.18 238.09 65.31 238.1 65.31"></polygon><polygon class="o" points="240.36 75.1 240.32 75.08 240.34 75.07 240.36 75.1"></polygon><path class="o" d="M245.19,76.55l-.04,.43,.04-.43Z"></path><path class="i" d="M237.78,73.75l.04,.21,.08,.22,.1,.16,.55,.29,.55,.29,.53,.28,.53,.26h.02l.54,.26,.54,.25,.59,.23,.59,.22h.02l.63,.18,.63,.17h.02l.7,.11,.72,.11h.02l.78,.05h.86l.89-.02,.94-.05,.2-.13,1.21-3.2-.2-.28v.41l-.05-.08,.05-.12h-.14l-.06-.06-.03,.08-.7,.05h-.9l-.83-.02-.76-.04-.74-.1-.69-.12-.63-.17-.63-.17-.59-.23-.57-.21-.54-.25-.53-.26-.56-.27-.53-.28-.53-.29-.37-.19v-.03l-.18-.07-.05-.23-.04-.21-.02-.07,.15-.31-.2-.07h0l-.19-.07-1.21,3.2-.02,.1,.03,.23,.03,.24Zm.14-.5v.04h-.01v-.04Z"></path><polygon class="j" points="248.89 73.81 249.83 73.76 249.82 73.35 248.88 73.4 248.89 73.81"></polygon><polygon class="j" points="248 73.83 248.89 73.81 248.88 73.4 247.99 73.43 248 73.83"></polygon><polygon class="j" points="247.15 73.81 247.18 73.81 248 73.83 247.99 73.43 247.16 73.4 247.18 73.39 247.15 73.83 247.15 73.81"></polygon><polygon class="j" points="246.36 73.76 246.37 73.76 247.15 73.83 247.18 73.39 246.41 73.35 246.43 73.35 246.36 73.76"></polygon><polygon class="j" points="245.63 73.67 246.36 73.76 246.43 73.35 245.71 73.24 245.63 73.67"></polygon><polygon class="j" points="244.93 73.54 244.95 73.54 245.63 73.67 245.71 73.24 245 73.13 245.02 73.14 244.93 73.54"></polygon><polygon class="j" points="244.3 73.37 244.93 73.54 245.02 73.14 244.39 72.97 244.29 73.39 244.3 73.37"></polygon><polygon class="j" points="243.64 73.22 243.66 73.22 244.29 73.39 244.39 72.97 243.76 72.8 243.78 72.81 243.64 73.22"></polygon><polygon class="j" points="243.05 73 243.05 73 243.64 73.22 243.78 72.81 243.19 72.59 243.2 72.6 243.03 72.99 243.05 73"></polygon><polygon class="j" points="242.46 72.76 243.03 72.99 243.2 72.6 242.64 72.37 242.46 72.76"></polygon><polygon class="j" points="241.93 72.51 242.46 72.76 242.64 72.37 242.09 72.14 241.93 72.51"></polygon><polygon class="j" points="241.37 72.24 241.38 72.27 241.93 72.51 242.09 72.14 241.54 71.87 241.56 71.87 241.36 72.27 241.37 72.24"></polygon><polygon class="j" points="240.84 71.98 241.36 72.27 241.56 71.87 241.02 71.61 240.83 72 240.84 71.98"></polygon><polygon class="j" points="240.31 71.7 240.83 72 241.02 71.61 240.49 71.33 240.29 71.69 240.31 71.7"></polygon><polygon class="j" points="239.76 71.41 240.29 71.69 240.49 71.33 239.97 71.05 239.76 71.41"></polygon><polygon class="j" points="239.51 71 239.21 71.12 239.76 71.41 239.97 71.05 239.42 70.76 239.13 70.87 239.51 71"></polygon><polygon class="j" points="295.29 65.2 294.06 68.42 298.05 69.76 298.98 67.62 299.01 67.41 299.02 67.2 298.98 66.97 298.9 66.75 298.78 66.56 298.67 66.36 298.51 66.15 298.33 65.96 298.15 65.79 297.96 65.62 297.75 65.47 297.55 65.35 297.36 65.23 297.13 65.13 296.93 65.02 296.74 64.96 296.56 64.9 296.36 64.87 296.17 64.85 295.99 64.88 295.81 64.91 295.62 64.97 295.45 65.09 295.29 65.2"></polygon><polygon class="j" points="297.87 69.65 298.13 69.54 294.13 68.21 293.99 68.61 297.99 69.95 298.27 69.84 297.87 69.65"></polygon><polygon class="i" points="236.24 67.44 236.25 67.38 237.47 64.18 237.86 64.31 236.68 67.47 236.65 67.6 236.65 67.55 236.24 67.63 236.23 67.59 236.24 67.44"></polygon><polygon class="o" points="255.82 75.01 255.76 75.05 255.75 75.05 255.82 75.01"></polygon><path class="i" d="M236.38,68.15l.05,.19v-.02l.31-.07-.08,.21,8.96-.29h.21l.23,.08,.24,.08,.23,.08,.21,.13,.17,.12,.13,.14,.07,.15-.21,.06,3.57,10.74h.2v.14h.91l.26-.04,.25-.07,.26-.13,.23-.2,.28-.27v-.02l.17-.22,.18-.24,.21-.25,.15-.25,.18-.3,.2-.26,.16-.29,.21-.29,.17-.25,.24-.26,.19-.26,.23-.22,.2-.21,.21-.19,.21-.17,.24-.14,.05-.03-.16-.15,.16,.15,.23-.26,.22-.2,.19-.2,.21-.17,.2-.15,.22-.12,.19-.11,.2-.1,.23-.05,.23-.1,.23-.05,.27-.04,.3-.05,.33-.02,.35-.03h.37l38.65-2.9,.23-.03,.2-.04,.19-.04,.19-.07,.18-.09,.19-.11,.16-.14,.18-.15,.04-.06,.67-1.57-.35-.22,.15,.15-.03,.02-.17-.12-.17,.4-.11,.07-.15,.06-.17,.07-.16,.03-.2,.04-.21,.04-38.67,2.88-.25,.03h-.24l-.24,.02-.25,.04h-.25l-.23,.03-.25,.03-.22,.03-.25,.04-.23,.04-.23,.05-.26,.07-.24,.05-.24,.09-.25,.09-.23,.12-.46,.28-.46,.42-.49,.5-.47,.57-.46,.6-.39,.53-.38,.51-.32,.39-.19,.04-.16,.03-.2,.02h-.56l-.21-.02-.18-.02-3.55-10.72-.08-.15-.12-.15-.17-.12-.24-.14-.22-.1-.24-.08-.22-.05h-.21l-8.95,.27-1.07,2.83v-.04l-.43,.11Zm64.31,.3v-.03l.16,.14-.16-.11Z"></path><polygon class="j" points="299.34 69.24 299.57 69.19 299.78 69.15 299.96 69.11 300.16 69.03 300.35 68.95 300.53 68.84 300.67 68.72 300.86 68.57 300.55 68.27 300.41 68.42 300.27 68.52 300.13 68.61 299.99 68.66 299.85 68.7 299.68 68.75 299.5 68.78 299.3 68.8 299.34 69.24"></polygon><polygon class="j" points="260.7 72.11 299.34 69.24 299.3 68.8 260.65 71.68 260.7 72.11"></polygon><polygon class="j" points="256.91 72.8 257.13 72.7 257.35 72.62 257.62 72.54 257.84 72.46 258.07 72.39 258.3 72.36 258.52 72.33 258.77 72.28 258.98 72.24 259.22 72.23 259.46 72.21 259.71 72.19 259.95 72.16 260.17 72.15 260.44 72.13 260.7 72.11 260.65 71.68 260.4 71.71 260.16 71.73 259.9 71.73 259.66 71.76 259.42 71.77 259.19 71.82 258.95 71.82 258.68 71.85 258.45 71.89 258.22 71.94 257.97 71.99 257.72 72.06 257.49 72.13 257.23 72.22 256.97 72.3 256.74 72.42 256.91 72.8"></polygon><polygon class="j" points="253.45 76.62 253.53 76.56 253.7 76.36 253.86 76.16 254.04 75.91 254.24 75.66 254.46 75.39 254.66 75.11 254.88 74.83 255.11 74.54 255.34 74.23 255.58 73.97 255.81 73.71 256.05 73.45 256.24 73.24 256.5 73.07 256.71 72.9 256.91 72.8 256.74 72.42 256.47 72.57 256.24 72.73 255.98 72.94 255.73 73.17 255.5 73.42 255.27 73.67 255.01 73.99 254.79 74.27 254.56 74.57 254.33 74.85 254.13 75.13 253.92 75.4 253.72 75.66 253.54 75.9 253.38 76.1 253.24 76.27 253.32 76.23 253.45 76.62"></polygon><polygon class="m" points="246.04 64.98 246.84 64.97 246.9 64.97 240.05 62.68 239.71 62.89 246.04 65 246.04 64.98"></polygon><polygon class="m" points="246.04 64.98 237.89 65.24 237.86 65.08 237.82 64.9 237.77 64.73 237.7 64.54 237.66 64.38 237.66 64.25 237.71 64.09 237.86 63.99 238.19 63.76 238.57 63.54 238.94 63.32 239.32 63.11 239.67 62.88 239.71 62.89 246.04 65 246.04 64.98"></polygon><polygon class="l" points="241.08 69.94 246.64 69.62 248.81 70.5 249.58 72.78 249.81 73.56 248.89 73.62 247.99 73.62 247.16 73.6 246.4 73.56 245.66 73.46 244.97 73.34 244.34 73.17 243.71 73.01 243.12 72.78 242.55 72.57 242 72.33 241.47 72.06 240.92 71.79 240.39 71.51 239.86 71.22 239.32 70.93 239.26 70.71 239.23 70.5 239.18 70.27 239.14 70.04 241.08 69.94"></polygon><polygon class="m" points="255.08 70.57 255.15 70.67 255.87 71.1 256.1 70.72 255.38 70.29 255.45 70.4 255.08 70.57 255.1 70.63 255.15 70.67 255.08 70.57"></polygon><polygon class="m" points="248.73 70.71 248.6 70.56 249.62 73.62 250.02 73.5 249.01 70.44 248.9 70.32 249.01 70.44 248.98 70.34 248.9 70.32 248.73 70.71"></polygon><polygon class="m" points="246.66 69.83 246.56 69.81 248.73 70.71 248.9 70.32 246.73 69.42 246.65 69.41 246.73 69.42 246.69 69.4 246.65 69.41 246.66 69.83"></polygon><polygon class="m" points="239.36 70.03 239.16 70.26 246.66 69.83 246.65 69.41 239.15 69.85 238.94 70.06 239.15 69.85 238.91 69.85 238.94 70.06 239.36 70.03"></polygon><polygon class="m" points="239.42 70.76 239.5 70.89 239.5 70.78 239.47 70.67 239.47 70.56 239.43 70.46 239.43 70.35 239.4 70.23 239.37 70.13 239.36 70.03 238.94 70.06 238.94 70.19 238.96 70.33 239 70.42 239 70.53 239.03 70.63 239.06 70.74 239.1 70.86 239.11 70.98 239.21 71.12 239.11 70.98 239.14 71.07 239.21 71.12 239.42 70.76"></polygon><polygon class="m" points="249.63 73.61 249.8 73.34 248.88 73.4 247.99 73.43 247.18 73.39 246.41 73.35 245.71 73.24 245.02 73.14 244.39 72.97 243.78 72.81 243.19 72.59 242.64 72.37 242.09 72.14 241.56 71.87 241.02 71.61 240.49 71.33 239.97 71.05 239.42 70.76 239.21 71.12 239.76 71.41 240.29 71.69 240.83 72 241.36 72.27 241.93 72.51 242.46 72.76 243.05 73 243.64 73.22 244.29 73.39 244.93 73.54 245.63 73.67 246.37 73.76 247.15 73.83 248 73.83 248.89 73.81 249.85 73.77 250.02 73.5 249.85 73.77 250.12 73.75 250.02 73.5 249.62 73.62 249.63 73.61"></polygon><polygon class="m" points="260.65 71.68 260.37 71.7 260.05 71.74 259.77 71.75 259.45 71.78 259.16 71.83 258.85 71.87 258.53 71.92 258.23 71.99 257.93 72.06 257.66 72.15 257.38 72.24 257.1 72.35 256.87 72.46 256.59 72.59 256.37 72.74 256.16 72.91 256.42 73.24 256.62 73.09 256.81 72.95 257.03 72.84 257.27 72.74 257.51 72.61 257.76 72.55 258.07 72.47 258.33 72.39 258.62 72.36 258.88 72.29 259.19 72.27 259.49 72.22 259.8 72.17 260.11 72.15 260.4 72.12 260.7 72.11 260.65 71.68"></polygon><polygon class="m" points="299.3 68.8 260.65 71.68 260.7 72.11 299.34 69.24 299.3 68.8"></polygon><polygon class="m" points="300.02 66.44 300.18 66.66 300.35 66.87 300.42 67.09 300.55 67.3 300.61 67.5 300.63 67.7 300.64 67.87 300.62 68.03 300.58 68.17 300.51 68.3 300.43 68.42 300.28 68.54 300.13 68.62 299.88 68.71 299.63 68.78 299.3 68.8 299.34 69.24 299.69 69.21 300.01 69.12 300.28 69.01 300.51 68.88 300.74 68.74 300.89 68.53 300.97 68.34 301.05 68.11 301.04 67.88 301.06 67.64 301 67.41 300.92 67.15 300.82 66.92 300.7 66.66 300.53 66.39 300.36 66.19 300.02 66.44"></polygon><polygon class="m" points="295.41 64.24 295.76 64.22 296.11 64.26 296.47 64.34 296.82 64.39 297.15 64.49 297.48 64.61 297.79 64.75 298.09 64.9 298.39 65.06 298.68 65.24 298.98 65.43 299.2 65.61 299.43 65.81 299.66 66.04 299.85 66.25 300.02 66.44 300.36 66.19 300.16 65.95 299.93 65.72 299.71 65.5 299.46 65.29 299.18 65.09 298.91 64.89 298.62 64.7 298.3 64.52 297.97 64.36 297.63 64.22 297.28 64.11 296.91 63.98 296.55 63.91 296.19 63.85 295.77 63.81 295.4 63.82 295.41 64.24"></polygon><polygon class="m" points="261.21 65.42 295.41 64.24 295.4 63.82 261.22 65.01 261.21 65.42"></polygon><polygon class="m" points="255.82 64.55 256.14 64.69 256.48 64.76 256.81 64.86 257.15 64.94 257.51 65.01 257.84 65.1 258.21 65.16 258.54 65.2 258.88 65.28 259.23 65.31 259.58 65.36 259.92 65.37 260.25 65.42 260.6 65.4 260.91 65.42 261.21 65.42 261.22 65.01 260.9 65.01 260.59 64.99 260.29 64.98 259.95 64.95 259.62 64.92 259.28 64.9 258.96 64.85 258.61 64.8 258.27 64.73 257.94 64.69 257.6 64.59 257.26 64.54 256.92 64.45 256.57 64.36 256.27 64.28 255.94 64.17 255.81 64.58 255.82 64.55"></polygon><polygon class="m" points="244.29 61.39 244.87 61.31 245.42 61.26 245.94 61.21 246.43 61.19 246.89 61.16 247.3 61.22 247.72 61.23 248.08 61.26 248.44 61.32 248.78 61.39 249.11 61.46 249.4 61.55 249.7 61.65 249.95 61.76 250.25 61.88 250.49 62.01 250.77 62.14 251.04 62.28 251.31 62.43 251.59 62.59 251.85 62.74 252.14 62.92 252.41 63.06 252.72 63.25 253.05 63.39 253.37 63.59 253.73 63.73 254.08 63.91 254.47 64.09 254.9 64.23 255.35 64.42 255.81 64.58 255.94 64.17 255.48 64.01 255.02 63.84 254.64 63.69 254.25 63.54 253.88 63.35 253.56 63.2 253.24 63.01 252.93 62.86 252.62 62.69 252.33 62.53 252.06 62.38 251.78 62.2 251.51 62.04 251.23 61.91 250.95 61.77 250.7 61.62 250.43 61.49 250.12 61.36 249.84 61.25 249.53 61.15 249.2 61.04 248.86 60.97 248.51 60.92 248.13 60.83 247.74 60.78 247.34 60.78 246.87 60.78 246.42 60.78 245.9 60.79 245.37 60.83 244.81 60.9 244.23 60.96 244.26 61.38 244.29 61.39"></polygon><polygon class="m" points="237.97 64.18 238.3 63.94 238.68 63.73 239.05 63.51 239.43 63.27 239.78 63.06 240.17 62.85 240.54 62.65 240.92 62.48 241.32 62.29 241.73 62.1 242.13 61.94 242.54 61.79 242.98 61.69 243.39 61.57 243.83 61.45 244.26 61.38 244.23 60.97 243.74 61.07 243.29 61.14 242.84 61.27 242.41 61.39 241.99 61.57 241.55 61.73 241.15 61.89 240.74 62.08 240.34 62.28 239.94 62.5 239.58 62.7 239.21 62.91 238.83 63.13 238.46 63.35 238.1 63.58 237.75 63.8 237.95 64.17 237.97 64.18"></polygon><polygon class="m" points="237.89 65.05 238.11 65.23 238.05 65.04 238.01 64.84 237.95 64.67 237.91 64.48 237.88 64.36 237.86 64.29 237.9 64.19 237.95 64.17 237.75 63.8 237.57 63.97 237.47 64.2 237.44 64.4 237.51 64.6 237.55 64.79 237.6 64.96 237.65 65.12 237.69 65.28 237.88 65.45 237.69 65.28 237.69 65.45 237.88 65.45 237.89 65.05"></polygon><polygon class="l" points="253.69 66.57 253.69 66.59 253.68 66.59 253.69 66.57"></polygon><polygon class="l" points="253.59 66.67 253.68 66.59 253.63 66.81 253.59 66.67"></polygon><polygon class="l" points="259.35 69.12 266.4 71.48 265.64 71.53 265.63 71.54 259.51 69.5 259.35 69.12"></polygon><path class="l" d="M237.88,65.45l8.96-.29,.19,.02,.17,.06,.23,.08,.22,.07,.19,.13,.14,.09,.08,.13,.07,.07,3.56,10.74,.05,.17h.17l.18-.03,.21,.03,.25,.02h.47l.21-.05,.23-.07,.2-.13,.23-.25,.19-.25,.18-.22,.18-.22,.15-.21,.15-.19,.13-.19,.15-.2,.13-.19,.15-.19,.15-.19,.16-.16,.17-.18,.19-.19,.2-.2,.24-.22-.13-.17,.2-.16,.22-.14,.25-.11,.23-.11,.25-.11,.28-.08,.29-.1,.28-.08,.27-.04,.29-.05,.31-.04,.29-.05,.31-.03,.31-.02,.29-.03,.29-.02,4.96-.35-6.12-2.04-.16-.38,7.05,2.35,32.93-2.46,.61-.1,.45-.21,.32-.3,.11-.35v-.4l-.1-.44-.22-.44-.32-.47-.19-.21-.21-.22-.23-.22-.23-.19-.25-.21-.28-.18-.3-.19-.3-.18-.32-.13-.31-.15-.35-.11-.37-.12-.34-.05-.36-.08-.37-.04h-.37l-4.97,.19-29.21,1h-.96l-.33-.05-.33-.03-.34-.03-.33-.04-.35-.05-.35-.05-.34-.07-.34-.07-.34-.07-.35-.1-.34-.09-.31-.08-.33-.12-.46-.15-.46-.17-.4-.16-.4-.15-.35-.18-.33-.15-.35-.18-.31-.15-.3-.18-.27-.16-.29-.16-.27-.15-.29-.16-.27-.16-.26-.12-.27-.16-.28-.14-.28-.11-.27-.09-.31-.1-.33-.11-.31-.09-.35-.05-.37-.06-.37-.04-.42-.03-.44-.02-.45,.02h-.48l-.53,.07-.55,.05-.6,.08-.45,.06-.44,.1-.44,.11-.41,.14-.43,.15-.42,.17-.39,.16-.41,.19-.39,.19-.39,.21,6.25,2.09-8.41,.28v.4Zm57.27,.18l.04-.25,.09-.18,.15-.14,.23-.11,.27-.04h.15l.17,.02,.16,.04,.16,.03,.19,.07,.18,.06,.18,.08,.2,.11,.17,.07,.17,.12,.15,.11,.17,.15,.17,.12,.12,.15,.15,.13,.12,.15,.22,.3,.12,.29,.05,.14,.03,.1-.02,.25-.05,.19-.14,.17-.21,.1-.28,.06h-.16l-.16-.02-.19-.02-.2-.04-.18-.06-.19-.07-.2-.09-.18-.11-.18-.08-.2-.11-.18-.12-.16-.14-.15-.11-.16-.16-.14-.16-.12-.15-.2-.3-.11-.3-.03-.1-.03-.16Zm-35.6,4.55h0l-.14-.11,.14,.11Zm-5.48-3.41l.23-.22,2.94-.17,.62,.32,1.48,3.47-.23,.29-3.16,.22,.14,.03-.11,.18h-.02l-.7-.4h0l.18-.09-1.37-3.63Z"></path><polygon class="j" points="293.17 67.87 292.99 67.76 292.96 67.6 293.22 67.54 293.27 67.7 293.12 67.59 293.17 67.87"></polygon><polygon class="j" points="293.52 67.66 293.48 67.71 293.42 67.78 293.34 67.81 293.26 67.85 293.17 67.87 293.12 67.59 293.15 67.6 293.21 67.55 293.28 67.54 293.29 67.52 293.28 67.55 293.51 67.68 293.52 67.66"></polygon><polygon class="j" points="292.8 66.04 292.81 66.05 292.94 66.2 293.1 66.36 293.25 66.54 293.4 66.74 293.52 66.95 293.59 67.19 293.59 67.45 293.51 67.68 293.28 67.55 293.33 67.4 293.31 67.25 293.27 67.06 293.15 66.89 293.02 66.7 292.88 66.55 292.73 66.38 292.6 66.24 292.62 66.25 292.8 66.04"></polygon><polygon class="j" points="290.43 65.36 290.4 65.35 290.74 65.36 291.08 65.36 291.37 65.42 291.66 65.45 291.96 65.53 292.23 65.66 292.52 65.83 292.8 66.04 292.62 66.25 292.36 66.07 292.1 65.92 291.87 65.8 291.61 65.73 291.33 65.68 291.04 65.65 290.74 65.64 290.44 65.64 290.44 65.63 290.4 65.37 290.43 65.36"></polygon><polygon class="j" points="265.32 66.68 265.43 66.61 290.4 65.37 290.44 65.63 265.47 66.87 265.58 66.8 265.32 66.68"></polygon><polygon class="j" points="264.73 67.55 264.46 67.46 264.48 67.28 264.53 67.12 264.61 66.95 264.71 66.84 264.84 66.75 265.02 66.69 265.21 66.62 265.43 66.61 265.47 66.87 265.26 66.92 265.07 66.96 264.98 66.97 264.9 67.05 264.85 67.12 264.78 67.21 264.75 67.32 264.75 67.49 264.48 67.4 264.73 67.55"></polygon><polygon class="i" points="293.01 67.45 292.94 67.34 292.85 67.22 292.78 67.11 292.68 67.01 292.6 66.9 292.5 66.8 292.41 66.69 292.15 66.5 291.89 66.32 291.62 66.21 291.35 66.14 291.06 66.11 290.76 66.05 290.46 66.04 290.14 66.04 265.16 67.29 265.36 66.9 265.44 66.89 265.47 66.87 290.44 65.63 290.86 65.66 291.21 65.64 291.54 65.69 291.84 65.75 292.12 65.88 292.37 66.03 292.6 66.24 292.87 66.54 293.1 66.81 293.26 67.08 293.35 67.28 293.35 67.41 293.29 67.52 293.13 67.61 293.11 67.62 293.1 67.58 293.01 67.45"></polygon><path class="i" d="M264.46,67.46l.03,.25,.05,.17,.07,.24,.17,.27,.2,.22,.27,.24,.31,.21,.35,.16,.37,.1h.45l25.66-1.3,.49-.05,.35-.08,.25-.18,.14-.23v-.24l-.1-.29-.19-.28-.26-.32-.26-.31-.28-.24-.3-.19-.3-.14-.32-.06-.38-.07h-.39l-.43,.03-24.97,1.24h0l-.27,.02-.27,.1-.18,.15-.12,.18-.08,.18-.05,.22Zm.29,.03l.03-.16v-.02h.16l.22-.02,.21-.39h.08l.03-.03,24.97-1.25,.42,.03h.35l.33,.03,.3,.06,.28,.13,.25,.15,.23,.21,.26,.3,.23,.27,.16,.27,.09,.2v.13l-.06,.11-.16,.1h-.02l-.28,.07-.42,.05-25.67,1.32h-.02l-.36-.02-.35-.1-.31-.15-.27-.16-.22-.22-.16-.22-.14-.22-.11-.18-.02-.14-.02-.15Z"></path></g></g></svg>