<svg version="1.1" id="Layer_1" xmlns="http://www.w3.org/2000/svg" xmlns:xlink="http://www.w3.org/1999/xlink" x="0px" y="0px" width="180" height="180" viewBox="0 0 180 180" enable-background="new 0 0 43.2 43.2" xml:space="preserve">
<rect x="2.1" y="32.063" fill="#E7E6E6" width="39" height="6.029"></rect>
<g>
	<g>
		<polyline fill="none" stroke="#2BA6DE" stroke-width="0.5" points="3.6,39.101 3.6,39.601 4.1,39.601 		"></polyline>
		<line fill="none" stroke="#2BA6DE" stroke-width="0.5" stroke-dasharray="1,1" x1="5.1" y1="39.601" x2="38.6" y2="39.601"></line>
		<polyline fill="none" stroke="#2BA6DE" stroke-width="0.5" points="39.1,39.601 39.6,39.601 39.6,39.101 		"></polyline>
		<line fill="none" stroke="#2BA6DE" stroke-width="0.5" stroke-dasharray="1,1" x1="39.6" y1="38.101" x2="39.6" y2="4.6"></line>
		<polyline fill="none" stroke="#2BA6DE" stroke-width="0.5" points="39.6,4.1 39.6,3.6 39.1,3.6 		"></polyline>
		<line fill="none" stroke="#2BA6DE" stroke-width="0.5" stroke-dasharray="1,1" x1="38.1" y1="3.6" x2="4.6" y2="3.6"></line>
		<polyline fill="none" stroke="#2BA6DE" stroke-width="0.5" points="4.1,3.6 3.6,3.6 3.6,4.1 		"></polyline>
		<line fill="none" stroke="#2BA6DE" stroke-width="0.5" stroke-dasharray="1,1" x1="3.6" y1="5.1" x2="3.6" y2="38.601"></line>
	</g>
</g>








<path fill="#EA242A" d="M11.91,5.022c0,0.109-0.051,0.217-0.15,0.321l-0.016,0.016l-0.869,0.915
	c-0.184,0.193-0.342,0.344-0.471,0.449c-0.131,0.108-0.223,0.16-0.275,0.16c-0.057,0-0.127-0.025-0.211-0.08
	c-0.082-0.052-0.137-0.106-0.16-0.163C9.736,6.593,9.717,6.495,9.699,6.342C9.68,6.19,9.671,6.025,9.671,5.849
	c0-0.097,0.04-0.186,0.12-0.267c0.081-0.083,0.17-0.124,0.267-0.124c0.093,0,0.15,0.085,0.166,0.254
	c0.003,0.02,0.003,0.035,0.004,0.043c0.016,0.131,0.033,0.222,0.053,0.274c0.02,0.053,0.046,0.077,0.079,0.077
	c0.015,0,0.041-0.015,0.079-0.046c0.039-0.03,0.085-0.072,0.139-0.123l0.894-0.886c0.074-0.075,0.14-0.132,0.2-0.17
	c0.059-0.038,0.11-0.057,0.151-0.057c0.031,0,0.053,0.012,0.065,0.035c0.013,0.023,0.021,0.062,0.021,0.117V5.022z"></path>
<g>
	<g>
		<line fill="none" stroke="#2BA6DE" stroke-width="0.5" x1="3.604" y1="7.604" x2="4.104" y2="7.604"></line>
		
			<line fill="none" stroke="#2BA6DE" stroke-width="0.5" stroke-dasharray="1.0129,1.0129" x1="5.117" y1="7.604" x2="22.843" y2="7.604"></line>
		<line fill="none" stroke="#2BA6DE" stroke-width="0.5" x1="23.35" y1="7.604" x2="23.85" y2="7.604"></line>
	</g>
</g>


<path fill-rule="evenodd" clip-rule="evenodd" d="M31.086,20.259c0,5.241-4.247,9.486-9.485,9.486c-5.239,0-9.486-4.245-9.486-9.486
	c0-5.24,4.247-9.486,9.486-9.486C26.839,10.773,31.086,15.02,31.086,20.259"></path>
<path fill-rule="evenodd" clip-rule="evenodd" fill="#B7D333" d="M30.229,20.311c0,4.767-3.861,8.625-8.625,8.625
	c-4.76,0-8.621-3.858-8.621-8.625c0-4.762,3.861-8.621,8.621-8.621C26.368,11.689,30.229,15.549,30.229,20.311"></path>
<path d="M19.761,18.432c-0.121,1.057-0.209,1.904-0.267,2.546l-0.395,0.018c0.006-0.021,0.009-0.046,0.01-0.073
	c0.002-0.048-0.017-0.111-0.053-0.189c-0.036-0.077-0.057-0.127-0.062-0.149c-0.103,0.016-0.2,0.087-0.291,0.211
	c-0.095,0.127-0.179,0.19-0.252,0.188c-0.044,0-0.093-0.013-0.145-0.033c-0.068,0.047-0.16,0.067-0.273,0.059
	c-0.103-0.018-0.2-0.031-0.295-0.046c-0.005-0.133-0.137-0.25-0.398-0.351c0.002-0.054-0.023-0.134-0.079-0.237
	c-0.056-0.107-0.083-0.18-0.08-0.222c0-0.049,0.018-0.086,0.059-0.12c-0.007-0.015-0.051-0.116-0.131-0.3
	c-0.058-0.134-0.086-0.25-0.085-0.346c0-0.074,0.021-0.143,0.052-0.208c-0.046-0.455-0.066-0.847-0.06-1.171
	c0.008-0.503,0.08-0.963,0.217-1.383c-0.01-0.066-0.014-0.131-0.014-0.196c0.006-0.334,0.122-0.569,0.351-0.698v-0.105
	c0.226-0.285,0.52-0.49,0.885-0.619c0.218,0.053,0.436,0.104,0.656,0.151c0.243,0.082,0.412,0.227,0.505,0.43
	c0.074,0.047,0.108,0.134,0.108,0.268c-0.004,0.15,0.013,0.248,0.052,0.288l-0.042,0.048c0.043,0.316,0.064,0.508,0.059,0.58
	c-0.001,0.202-0.053,0.346-0.156,0.429c-0.04,0-0.136-0.033-0.294-0.098c-0.039,0.035-0.08,0.052-0.123,0.052
	c-0.022,0-0.058-0.012-0.115-0.036c-0.055-0.02-0.102-0.032-0.141-0.033c-0.025,0-0.052,0.006-0.08,0.017
	c-0.003-0.426,0.009-0.739,0.042-0.946c-0.045-0.03-0.086-0.093-0.13-0.189c-0.046-0.095-0.101-0.151-0.17-0.163
	c-0.043,0.054-0.063,0.088-0.058,0.105l-0.144-0.051c-0.129,0.143-0.217,0.389-0.26,0.74c-0.045,0.406-0.098,0.675-0.168,0.808
	c0.058,0.059,0.086,0.143,0.084,0.25c0,0.037-0.006,0.1-0.019,0.185c-0.013,0.082-0.018,0.147-0.018,0.192
	c-0.002,0.047,0.003,0.09,0.013,0.127l-0.096,0.097c0.037,0.182,0.061,0.413,0.068,0.691c-0.006,0.233-0.007,0.467-0.006,0.705
	c-0.005,0-0.049,0.001-0.136,0.006c-0.053-0.004-0.09,0.016-0.111,0.054c0.031-0.004,0.06-0.008,0.086-0.008
	c0.118,0.004,0.211,0.086,0.275,0.251c0.07,0.162,0.125,0.246,0.175,0.247c0.053,0,0.125-0.05,0.218-0.15
	c0.157-0.167,0.241-0.399,0.244-0.692c0.001-0.145-0.012-0.299-0.047-0.467c-0.04,0.022-0.057,0.076-0.059,0.16
	c-0.084,0-0.14,0.017-0.162,0.051c-0.036-0.01-0.052-0.039-0.046-0.087c0.005-0.07,0.01-0.105,0.01-0.112
	c0.064-0.02,0.096-0.048,0.096-0.087c0-0.015-0.008-0.045-0.032-0.088c-0.023-0.045-0.037-0.077-0.037-0.105
	c0-0.022,0.008-0.041,0.019-0.063l0.037-0.314c0.118,0.036,0.371,0.049,0.761,0.046c-0.01,0.026,0.006,0.061,0.048,0.104
	c0.038-0.037,0.076-0.055,0.12-0.052c0.032,0,0.079,0.013,0.142,0.042C19.688,18.418,19.734,18.431,19.761,18.432"></path>
<path d="M22.753,21.193c-0.073-0.033-0.152-0.052-0.238-0.055c-0.076,0-0.178,0.017-0.308,0.047
	c-0.144,0.028-0.243,0.044-0.296,0.05c-0.059-0.113-0.098-0.269-0.122-0.467c-0.042-0.289-0.068-0.452-0.08-0.49
	c0.018-0.032,0.026-0.06,0.026-0.079c0.001-0.061-0.046-0.112-0.138-0.16c-0.094-0.045-0.139-0.085-0.139-0.111
	c0-0.031,0.057-0.078,0.164-0.142c-0.027-0.031-0.047-0.098-0.059-0.195c-0.012-0.1-0.036-0.168-0.072-0.198
	c-0.064,0.056-0.173,0.093-0.321,0.109c-0.146,0.016-0.243,0.04-0.291,0.07c0.004,0.418-0.064,0.698-0.209,0.841
	c-0.072-0.017-0.129,0.01-0.169,0.085c-0.053,0.091-0.103,0.142-0.14,0.158l0.049,0.057c-0.045,0.035-0.115,0.052-0.209,0.045
	c-0.149-0.01-0.231-0.012-0.241-0.012L19.917,20.6l0.523-4.33c0.004-0.273,0.017-0.458,0.041-0.556
	c-0.009-0.239,0.049-0.388,0.168-0.443c0.075,0.047,0.168,0.072,0.28,0.078c0.09,0,0.232-0.02,0.424-0.059
	c0.195-0.039,0.327-0.059,0.402-0.059c0.262,0.005,0.377,0.195,0.344,0.569c-0.026,0.299,0.02,0.694,0.139,1.181
	c0.126,0.527,0.187,0.921,0.181,1.183c-0.002,0.081,0.024,0.246,0.02,0.327c-0.114,0.062-0.258,0.101-0.436,0.112
	c-0.153,0.007-0.312,0.018-0.474,0.024c-0.041-0.408-0.113-0.896-0.155-1.298c-0.049-0.483-0.111-0.879-0.187-1.192l-0.248,2.291
	c-0.019,0.196,0.071,0.3,0.269,0.301c0.062,0.001,0.124-0.014,0.186-0.044c0.048-0.016,0.112,0.018,0.197,0.106
	c-0.003,0.167,0.031,0.266,0.1,0.298c0.086-0.057,0.199-0.111,0.341-0.163c0.122-0.044,0.245-0.088,0.365-0.129
	c0.065,0.092,0.11,0.229,0.128,0.412c0.021,0.258,0.037,0.406,0.047,0.447c0.007,0.104,0.052,0.324,0.124,0.663
	c0.056,0.268,0.081,0.483,0.079,0.649C22.772,21.049,22.768,21.123,22.753,21.193"></path>
<path d="M26.445,17.374c-0.004,0.017-0.008,0.109-0.004,0.279c-0.004,0.14-0.02,0.245-0.054,0.314
	c-0.039,0.104-0.059,0.26-0.063,0.457c-0.002,0.04,0.003,0.107,0.005,0.199c0,0.092-0.002,0.158-0.002,0.201
	c-0.009,0.336-0.064,0.58-0.176,0.732c0.011,0.089,0.015,0.173,0.013,0.26c-0.004,0.267-0.096,0.626-0.276,1.079
	c-0.047,0.017-0.087,0.021-0.121,0.021c-0.063,0-0.109-0.038-0.138-0.111c-0.029-0.072-0.057-0.141-0.079-0.205
	c0.015-0.412,0.007-1.011-0.026-1.799l0.049-0.047c-0.036-0.139-0.053-0.296-0.047-0.464c0.002-0.124,0.02-0.302,0.043-0.538
	c0.029-0.235,0.043-0.412,0.043-0.53c0.006-0.073,0-0.145-0.002-0.217c-0.183,0.442-0.312,1.188-0.393,2.242l-0.064,0.157
	c-0.023,0.053-0.068,0.084-0.138,0.087c-0.021-0.037-0.039-0.056-0.062-0.056c-0.016,0-0.045,0.019-0.085,0.057
	c-0.041,0.04-0.074,0.056-0.102,0.052l-0.104,0.093c0.046,0.06,0.146,0.069,0.306,0.023c0.119-0.037,0.184,0.01,0.186,0.139
	c0.008,0.108-0.023,0.249-0.086,0.431c-0.061,0.182-0.091,0.317-0.095,0.408c-0.002,0.065,0.006,0.129,0.019,0.193l-0.554,0.085
	c-0.052-0.107-0.091-0.288-0.115-0.541c-0.021-0.256-0.062-0.437-0.112-0.544c0.03-0.037,0.049-0.076,0.049-0.12
	c0-0.036-0.014-0.094-0.045-0.169c-0.029-0.075-0.05-0.132-0.054-0.171c-0.003-0.058-0.025-0.2-0.059-0.424
	c-0.021-0.183-0.035-0.324-0.03-0.426c0-0.054,0.004-0.102,0.009-0.145c0-0.036-0.021-0.092-0.062-0.167
	c-0.041-0.071-0.059-0.124-0.059-0.154c0-0.027,0.009-0.052,0.029-0.073c-0.034-0.045-0.049-0.118-0.043-0.225
	c0.009-0.108-0.008-0.182-0.043-0.224c-0.081,0.206-0.119,0.486-0.126,0.839c-0.004,0.49-0.008,0.776-0.017,0.849l0.056,0.05
	l-0.056,0.048c0.04,0.192,0.056,0.438,0.052,0.738c-0.012,0.54-0.021,0.79-0.021,0.754c-0.074,0.067-0.181,0.101-0.316,0.1
	c-0.162-0.005-0.275,0.009-0.335,0.041c-0.068-0.119-0.101-0.273-0.099-0.458c0.005-0.145,0.028-0.321,0.073-0.529
	c-0.073-0.135-0.105-0.324-0.101-0.563c0-0.06,0.004-0.172,0.023-0.338c0.004-0.134,0.009-0.232,0.004-0.295
	c0.052-0.027,0.081-0.056,0.081-0.086c0-0.022-0.016-0.06-0.051-0.111c-0.034-0.051-0.054-0.091-0.054-0.116
	c0.004-0.032,0.023-0.064,0.069-0.098l-0.171-2.592c0.102-0.068,0.267-0.1,0.496-0.097c0.253,0.011,0.424-0.003,0.516-0.04
	c0.017-0.008,0.036-0.013,0.056-0.013c0.023,0,0.045,0.012,0.074,0.036c0.031,0.025,0.052,0.036,0.062,0.036
	c0.02,0,0.041-0.014,0.056-0.046l0.149,0.147c0.053,0.189,0.098,0.553,0.143,1.093c0.045,0.468,0.117,0.818,0.216,1.055
	c0.129-0.473,0.239-0.87,0.324-1.189l0.172-1.271l1.244-0.026c0.003,0.069,0.02,0.442,0.051,0.657
	c0.031,0.187,0.043,0.339,0.043,0.457c-0.002,0.134-0.021,0.253-0.062,0.359c0.045,0.061,0.062,0.136,0.061,0.225
	C26.51,17.242,26.488,17.314,26.445,17.374"></path>
<path d="M28.996,20.185v-0.009c-0.033,0.07-0.053,0.15-0.057,0.24c-0.007,0.059-0.01,0.141-0.007,0.249
	c0.004,0.123,0.007,0.21,0.004,0.256c-0.045,0-0.217-0.004-0.513-0.007c-0.18-0.003-0.346,0.012-0.492,0.048l-0.147-0.164
	c-0.045,0.041-0.061,0.077-0.049,0.104c-0.028-0.009-0.151-0.009-0.371-0.009c-0.171-0.002-0.298-0.019-0.381-0.052
	c-0.089,0.087-0.192,0.085-0.308-0.005c-0.045-0.035-0.047-0.089-0.014-0.164c0.035-0.08,0.022-0.136-0.031-0.175
	c0.01-0.17,0.035-0.436,0.071-0.792c0.039-0.322,0.059-0.572,0.061-0.754c0.004-0.248-0.013-0.48-0.054-0.706
	c0.062-0.058,0.13-0.089,0.204-0.085c0.088,0,0.188,0.041,0.303,0.125c0.162,0.114,0.249,0.171,0.253,0.171l0.047,0.058
	c0.008-0.018,0.035-0.1,0.09-0.256c0.023-0.102,0.067-0.164,0.118-0.197l0.049,0.051c0.021-0.012,0.093-0.062,0.212-0.152
	c0.091-0.063,0.167-0.21,0.219-0.21c0.06,0.001,0.116,0.033,0.167,0.098c0.093,0.052,0.148,0.246,0.175,0.343
	c0.03,0.099,0.056,0.198,0.081,0.295c-0.239,0.005-0.438,0-0.592-0.018c-0.04,0.058-0.093,0.067-0.164,0.024
	c-0.068-0.042-0.119-0.036-0.152,0.017c0,0.098-0.004,0.271-0.011,0.522c-0.005,0.224-0.007,0.402-0.005,0.53
	c0,0.198,0.014,0.378,0.037,0.544c0.045,0.003,0.245,0.007,0.608,0.011C28.601,20.119,28.816,20.144,28.996,20.185 M29.015,16.342
	c-0.048,0.006-0.101,0.007-0.159,0.006c-0.124-0.001-0.282-0.022-0.49-0.056c-0.249-0.036-0.4-0.058-0.455-0.065
	c-0.077,0.112-0.116,0.268-0.12,0.472c-0.01,0.439-0.01,0.629-0.002,0.568c0.074,0.046,0.109,0.127,0.109,0.244
	c-0.011,0.16-0.011,0.245-0.007,0.249c-0.037,0.014-0.058,0.068-0.058,0.16c-0.057-0.024-0.119-0.067-0.183-0.133
	c-0.084-0.082-0.129,0.196-0.121,0.127l-0.055,0.163l-0.047-0.048c-0.041,0.005-0.112-0.017-0.217-0.068
	c-0.104-0.049-0.176-0.095-0.221-0.14c0.004-0.085,0.018-0.131,0.045-0.143l-0.1-0.115l-0.054,0.073
	c-0.059-0.559-0.043-1.601,0.028-2.189c0.203,0.037,0.427,0.06,0.674,0.069c0.167,0.009,0.398,0.013,0.698,0.013
	c0.341,0,0.588,0,0.736,0.004c0.066,0.059,0.096,0.136,0.094,0.233c0,0.06-0.018,0.155-0.047,0.286
	C29.032,16.181,29.015,16.278,29.015,16.342"></path>
<path d="M20,25.035v-0.007c0,0.005-0.013,0.124-0.039,0.357c-0.015,0.143-0.049,0.254-0.105,0.337l-0.035-0.031
	c-0.064,0.141-0.154,0.224-0.266,0.251c-0.051,0.057-0.13,0.087-0.231,0.094c-0.059,0.004-0.199-0.016-0.416-0.055
	c-0.104-0.062-0.161-0.098-0.171-0.107c-0.067-0.048-0.098-0.099-0.092-0.149c-0.066-0.063-0.155-0.181-0.19-0.327
	c-0.041-0.161-0.066-0.169-0.103-0.226c-0.06,0.043-0.082-0.05-0.118-0.108l0.031-0.023c-0.019-0.014-0.027-0.031-0.031-0.048
	c0-0.015,0.006-0.032,0.017-0.059c0.011-0.021,0.017-0.041,0.015-0.053c-0.001-0.021-0.014-0.039-0.034-0.053
	c0.025-0.128,0.045-0.315,0.064-0.568c0.045-0.023,0.064-0.067,0.062-0.134c-0.001-0.065,0.006-0.108,0.026-0.13
	c0.104-0.206,0.268-0.347,0.5-0.416c0.012,0.004,0.074,0,0.185-0.002c0.076-0.002,0.135,0.006,0.173,0.02
	c0.068-0.012,0.133,0.002,0.202,0.05c0.061,0.043,0.124,0.088,0.179,0.137c0.112,0.118,0.17,0.257,0.181,0.406
	c0.004,0.051,0,0.108-0.011,0.161c-0.08-0.002-0.138,0.051-0.172,0.162l-0.321,0.032c-0.035-0.05-0.054-0.114-0.058-0.196v-0.124
	c0-0.051,0-0.092,0-0.121c-0.006-0.085-0.024-0.147-0.06-0.197l-0.095,0.054c-0.041-0.016-0.061-0.035-0.062-0.068
	c0-0.01,0.001-0.026,0.003-0.044c0.004-0.018,0.007-0.032,0.004-0.041c0-0.035-0.029-0.053-0.086-0.061
	c-0.039,0.363-0.052,0.733-0.034,1.112c0.01,0.016,0.039,0.021,0.091,0.029c0.041,0.004,0.062,0.018,0.063,0.038
	c0,0.007-0.003,0.016-0.009,0.03l-0.031,0.022c0.018,0.029,0.028,0.066,0.03,0.114c0.001,0.026,0.001,0.065-0.002,0.117
	c-0.003,0.053-0.004,0.093-0.003,0.117c0.005,0.075,0.025,0.134,0.058,0.173c-0.004,0.054,0.019,0.095,0.069,0.113
	c0.03-0.014,0.057-0.019,0.083-0.019c0.097-0.009,0.166,0.046,0.203,0.158c0,0.002,0,0.021-0.001,0.057
	c0.001,0.021,0.012,0.032,0.032,0.039c0.042-0.023,0.062-0.068,0.062-0.137c-0.002-0.074,0.011-0.123,0.029-0.145
	c-0.005-0.036-0.025-0.087-0.063-0.154c-0.036-0.066-0.057-0.117-0.059-0.158s0.011-0.078,0.037-0.114
	c-0.023-0.009-0.033-0.021-0.033-0.046c0.002-0.036,0.002-0.056,0.002-0.056C19.645,24.998,19.822,24.997,20,25.035"></path>
<path d="M21.452,25.332h-0.003c-0.019,0.037-0.024,0.091-0.019,0.157c0.008,0.098,0.013,0.147,0.013,0.149
	c-0.013,0.006-0.035,0-0.058-0.023c-0.037,0.018-0.056,0.039-0.055,0.072c0,0.004,0.004,0.013,0.007,0.023
	c0,0.016,0.003,0.023,0.003,0.027c0,0.027-0.006,0.047-0.025,0.062c-0.042-0.024-0.096-0.039-0.166-0.046
	c-0.072-0.006-0.137-0.016-0.2-0.02c0-0.322-0.043-0.637-0.129-0.946c0,0.005-0.001-0.026-0.005-0.095
	c0-0.048-0.011-0.079-0.032-0.101l-0.031,0.027c0-0.003,0.012-0.014,0.031-0.027c0.02-0.014,0.028-0.029,0.028-0.043
	c0-0.004-0.002-0.015-0.007-0.023l-0.03-0.021c-0.057,0.02-0.081,0.061-0.077,0.134c0,0.044-0.016,0.08-0.056,0.1
	c0.016,0.012,0.025,0.023,0.025,0.039c0,0.011,0,0.025-0.006,0.039c-0.002,0.018-0.004,0.032-0.002,0.039
	c0,0.025,0.013,0.039,0.034,0.05c0,0.018,0.005,0.145,0.02,0.386c0.011,0.153,0.005,0.283-0.011,0.392l0.001,0.056h-0.07
	c-0.03,0.003-0.071,0.012-0.127,0.016c-0.053,0.007-0.095,0.012-0.122,0.012c-0.108,0.008-0.183-0.012-0.228-0.053l-0.045-1.322
	c-0.02-0.063-0.036-0.154-0.042-0.269l-0.015-0.257c-0.01-0.125-0.026-0.222-0.05-0.287c0.011-0.046,0.051-0.072,0.12-0.074
	c0.046-0.004,0.102,0.002,0.178,0.016c0.036-0.014,0.082-0.023,0.145-0.028h0.083c0.041-0.005,0.07-0.005,0.089-0.007
	c0.115-0.006,0.189-0.039,0.225-0.105c0.054,0,0.111,0.018,0.175,0.051c0.059,0.035,0.116,0.053,0.163,0.053
	c0.125,0.075,0.191,0.196,0.201,0.367c0.003,0.037-0.012,0.186-0.042,0.449l-0.217,0.187c0.038,0.066,0.081,0.212,0.134,0.435
	C21.3,25.106,21.365,25.245,21.452,25.332 M21.057,23.829l0.005,0.004c0.004,0.017,0.001-0.043-0.005-0.176
	c-0.004-0.059-0.029-0.109-0.073-0.14c-0.023,0.04,0.003,0.054-0.006,0.132c-0.013,0.08-0.058,0.061-0.087,0.093
	c-0.074,0-0.09,0.044-0.105-0.024c-0.035-0.116-0.062-0.107-0.062-0.107l-0.031,0.02c-0.011,0.01-0.023,0.02-0.038,0.035
	c-0.016,0.012-0.029,0.016-0.045,0.012c0.003,0.014-0.005,0.039-0.017,0.065c-0.017,0.03-0.024,0.054-0.024,0.065
	c0.002,0.021,0.019,0.038,0.051,0.048c-0.004,0.047-0.004,0.098-0.003,0.146c0.002,0.028,0.008,0.095,0.021,0.193
	c0.012,0.082,0.017,0.15,0.017,0.207h0.073c0.102-0.006,0.168-0.049,0.201-0.123c0.009-0.021,0.021-0.1,0.033-0.238
	C20.975,23.941,21.006,23.87,21.057,23.829"></path>
<path d="M23.119,25.847c-0.041-0.016-0.087-0.016-0.136-0.016c-0.042,0-0.096,0.016-0.163,0.032
	c-0.082,0.02-0.134,0.031-0.165,0.035c-0.033-0.05-0.059-0.117-0.081-0.2c-0.033-0.127-0.056-0.198-0.06-0.216
	c0.008-0.013,0.012-0.028,0.01-0.035c0-0.025-0.029-0.047-0.082-0.064c-0.05-0.018-0.078-0.032-0.078-0.046
	c0-0.013,0.028-0.033,0.084-0.066c-0.015-0.016-0.027-0.041-0.038-0.087c-0.009-0.041-0.023-0.067-0.046-0.082
	c-0.036,0.027-0.091,0.05-0.171,0.061c-0.079,0.011-0.134,0.028-0.159,0.044c0.017,0.184,0,0.504-0.072,0.575
	c-0.039-0.005-0.07,0.009-0.091,0.044c-0.025,0.04-0.05,0.064-0.069,0.073l0.028,0.025c-0.023,0.018-0.061,0.025-0.113,0.027
	c-0.081,0.002-0.127,0.004-0.132,0.004l-0.032-0.062l0.127-2.127c-0.01-0.117-0.009-0.199,0-0.245
	c-0.01-0.105,0.016-0.173,0.077-0.2c0.044,0.017,0.095,0.025,0.156,0.023c0.049-0.003,0.127-0.019,0.232-0.044
	c0.103-0.024,0.176-0.039,0.218-0.042c0.144-0.008,0.211,0.072,0.207,0.237c-0.005,0.134,0.035,0.303,0.118,0.516
	c0.087,0.227,0.134,0.397,0.143,0.515c0,0.033,0.05,0.107,0.048,0.143c-0.061,0.032-0.141,0.057-0.236,0.071
	c-0.085,0.007-0.17,0.018-0.257,0.026c-0.037-0.178-0.121-0.394-0.159-0.569c-0.043-0.208-0.092-0.382-0.145-0.518l-0.054,1.02
	c-0.003,0.086,0.047,0.129,0.156,0.123c0.036-0.004,0.07-0.01,0.1-0.029c0.026-0.008,0.064,0.006,0.114,0.041
	c0.003,0.073,0.025,0.114,0.063,0.126c0.045-0.024,0.107-0.053,0.181-0.085c0.064-0.021,0.13-0.047,0.195-0.068
	c0.041,0.035,0.064,0.094,0.086,0.173c0.018,0.111,0.032,0.181,0.042,0.199c0.008,0.043,0.039,0.14,0.09,0.283
	c0.039,0.115,0.06,0.212,0.063,0.284C23.123,25.781,23.121,25.813,23.119,25.847"></path>
<path d="M24.332,23.436h0.005c-0.034,0.052-0.08,0.061-0.137,0.031c-0.011-0.004-0.066,0-0.158,0.008
	c-0.079,0.004-0.134,0-0.171-0.012c-0.008,0.002-0.027,0.007-0.053,0.024c-0.027,0.019-0.043,0.026-0.055,0.028
	c-0.016,0-0.027-0.016-0.027-0.048c0-0.001-0.002-0.021-0.006-0.059c0-0.023-0.015-0.037-0.035-0.047l-0.052,0.043
	c-0.02,0.011-0.027,0.023-0.027,0.041c0.002,0.009,0.014,0.026,0.029,0.05c0.02,0.02,0.033,0.037,0.035,0.043
	c0,0.009,0.006,0.113,0.015,0.321c0.009,0.13,0.031,0.232,0.076,0.311c0.012-0.012,0.037-0.019,0.078-0.019
	c0.043-0.005,0.072-0.013,0.084-0.028c0.029,0.023,0.074,0.023,0.142,0.002c0.062-0.021,0.11-0.013,0.141,0.021l-0.007,0.313
	c-0.03-0.004-0.071-0.016-0.118-0.039c-0.016,0.046-0.045,0.074-0.088,0.088c-0.02,0.004-0.069,0.008-0.151,0.015
	c0.002-0.015-0.013-0.028-0.037-0.044c-0.078,0.037-0.108,0.126-0.091,0.271c0.003-0.013,0.007,0.009,0.013,0.076
	c0,0.039-0.01,0.066-0.027,0.084c-0.052,0.008-0.116-0.002-0.19-0.031c-0.076-0.031-0.132-0.045-0.165-0.043
	c-0.015,0-0.027,0.002-0.039,0.005l-0.082,0.026l-0.132-1.43l-0.014-0.271c0.106-0.037,0.245-0.061,0.405-0.071
	c0.124-0.007,0.293-0.005,0.493,0.002c0.016-0.025,0.039,0.009,0.068,0.009c0.012-0.003,0.037,0,0.066,0.005
	c0.028,0.004,0.051,0.004,0.065,0.004c0.018,0,0.035-0.002,0.045-0.009l0.023-0.022c0.059,0.018,0.092,0.049,0.092,0.092
	c0.004,0.021-0.002,0.052-0.014,0.097c-0.013,0.046-0.02,0.082-0.018,0.104C24.317,23.4,24.322,23.422,24.332,23.436 M23.816,25.822
	c-0.029,0.015-0.08,0.023-0.142,0.029c-0.085,0.005-0.137,0.012-0.154,0.012c-0.011-0.009-0.02,0-0.041-0.074
	c-0.011-0.05-0.042-0.074-0.091-0.071c-0.012,0-0.023,0.002-0.046,0.007l-0.08,0.004l-0.041-0.724
	c0.045-0.019,0.097-0.032,0.161-0.037c0.064-0.002,0.118,0.003,0.168,0.019c-0.002,0.025,0.034,0.038,0.11,0.032l0.085-0.007
	C23.791,25.215,23.826,25.585,23.816,25.822"></path>
<path d="M26.092,23.496l0.002,0.004c-0.044-0.004-0.176,0.006-0.277,0.018c-0.084,0.013-0.151,0.015-0.196,0.008
	c-0.043,0.026-0.057,0.067-0.048,0.116l0.028,0.014c-0.023,0.021-0.029,0.035-0.023,0.049l0.023,0.023
	c-0.004,0.42-0.004,0.653-0.002,0.694c0.006,0.113,0.018,0.21,0.041,0.295c-0.021,0.053-0.027,0.115-0.023,0.18
	c0.002,0.048,0.012,0.116,0.033,0.215c0.018,0.1,0.044,0.417,0.046,0.466c0.001,0.038,0.001,0.073-0.002,0.108
	c-0.041,0.015-0.085,0.025-0.13,0.027c-0.08,0.004-0.165-0.013-0.253-0.047c-0.014,0.008-0.028,0.02-0.042,0.031
	c-0.013,0.012-0.02,0.023-0.011,0.037c-0.028,0.004-0.067-0.006-0.122-0.037c-0.025-0.424-0.103-1.287-0.214-2.16
	c-0.041,0.034-0.114,0.004-0.188,0.012c-0.09,0.01-0.179-0.004-0.214,0.012c-0.043-0.044-0.033-0.059-0.037-0.137
	c-0.006-0.076-0.033-0.262-0.014-0.34c0.008-0.018,0.173-0.009,0.27-0.016c0.128-0.008,0.16,0.024,0.168,0.024
	c0.01-0.018,0.074-0.009,0.124-0.011c0.028,0.015,0.059-0.016,0.061,0.009c0.002,0.013,0,0.1-0.008,0.127
	c-0.012,0.023-0.016,0.043-0.014,0.055c0,0.03,0.02-0.012,0.066,0.004c0.055-0.002,0.107-0.004,0.163-0.006
	c0.062,0.006,0.137-0.016,0.128,0.036c0.013-0.015,0.018,0.009,0.106-0.025c0.067-0.03,0.108-0.106,0.095-0.158
	c-0.008-0.03,0.031-0.052,0.007-0.035c0.032-0.02,0.005-0.006,0.039-0.021c0.106,0.012,0.171,0,0.191-0.002
	c0.041-0.002,0.153,0.028,0.181,0.011c0.023,0.041,0.035,0.17,0.035,0.238C26.085,23.43,26.09,23.491,26.092,23.496"></path>
<path d="M27.513,24.974v-0.003c-0.014,0.031-0.023,0.068-0.023,0.106c-0.002,0.028,0,0.065,0.006,0.113
	c0.007,0.054,0.009,0.088,0.011,0.109c-0.024,0.005-0.116,0.008-0.281,0.018c-0.098,0.007-0.188,0.02-0.269,0.041l-0.084-0.068
	c-0.024,0.025-0.028,0.04-0.024,0.05c-0.016-0.003-0.084,0.002-0.201,0.013c-0.095,0.006-0.165,0.002-0.215-0.011
	c-0.043,0.043-0.102,0.048-0.166,0.011c-0.024-0.013-0.03-0.037-0.016-0.074c0.018-0.033,0.011-0.059-0.021-0.072
	c0-0.077,0.005-0.194,0.011-0.352c0.009-0.146,0.011-0.255,0.009-0.336c-0.007-0.108-0.023-0.21-0.054-0.312
	c0.032-0.025,0.066-0.041,0.108-0.043c0.047-0.001,0.104,0.01,0.168,0.042c0.096,0.046,0.142,0.065,0.146,0.065l0.03,0.026
	c0.002-0.01,0.011-0.048,0.035-0.119c0.013-0.044,0.033-0.075,0.062-0.091l0.027,0.02c0.01-0.004,0.045-0.031,0.11-0.072
	c0.046-0.034,0.08-0.147,0.111-0.149s0.061,0.012,0.093,0.039c0.053,0.018,0.094,0.147,0.109,0.188
	c0.019,0.041,0.037,0.087,0.056,0.128c-0.13,0.011-0.24,0.016-0.325,0.016c-0.021,0.027-0.05,0.031-0.087,0.015
	c-0.041-0.015-0.067-0.009-0.085,0.017c0.006,0.042,0.008,0.118,0.016,0.229c0.002,0.102,0.006,0.178,0.012,0.232
	c0.008,0.088,0.021,0.168,0.041,0.239c0.021,0,0.134-0.008,0.333-0.018C27.294,24.961,27.411,24.961,27.513,24.974 M27.378,23.311
	c-0.025,0.002-0.056,0.004-0.089,0.01c-0.064,0-0.156,0-0.271-0.008c-0.137-0.006-0.221-0.009-0.249-0.011
	c-0.039,0.055-0.045,0.096-0.039,0.186c0.01,0.19,0.02,0.275,0.02,0.249c0.041,0.016,0.064,0.05,0.066,0.103
	c0,0.073,0.004,0.107,0.008,0.11c-0.021,0.007-0.029,0.032-0.026,0.071c-0.034-0.006-0.067-0.024-0.105-0.052
	c-0.046-0.03-0.065,0.084-0.063,0.056l-0.021,0.071l-0.03-0.021c-0.02,0.004-0.061-0.002-0.123-0.021
	c-0.054-0.018-0.095-0.034-0.124-0.054c0-0.035,0.008-0.057,0.021-0.062l-0.062-0.049l-0.021,0.035
	c-0.053-0.243-0.089-0.673-0.069-0.932c0.114,0.007,0.243-0.012,0.379-0.019c0.091-0.003,0.218-0.011,0.383-0.021
	c0.188-0.015,0.319-0.025,0.403-0.029c0.037,0.027,0.056,0.059,0.061,0.102c0,0.025-0.005,0.067-0.017,0.123
	C27.394,23.209,27.376,23.282,27.378,23.311"></path>
<path d="M28.975,24.721l-0.002,0.004c-0.018,0.037-0.025,0.089-0.018,0.156l0.013,0.146c-0.015,0.005-0.034,0-0.058-0.019
	c-0.04,0.013-0.056,0.034-0.056,0.067c0,0.006,0.004,0.015,0.006,0.027c0.002,0.014,0.002,0.02,0.004,0.025
	c0,0.029-0.006,0.045-0.023,0.062c-0.041-0.024-0.096-0.039-0.167-0.046c-0.071-0.008-0.139-0.016-0.2-0.021
	c0-0.32-0.043-0.637-0.127-0.943c0,0.004-0.002-0.027-0.006-0.098c0-0.048-0.014-0.076-0.031-0.099l-0.032,0.027
	c0-0.002,0.009-0.016,0.032-0.029c0.016-0.012,0.026-0.027,0.026-0.041c0-0.008-0.002-0.013-0.005-0.021l-0.034-0.021
	c-0.054,0.018-0.08,0.059-0.074,0.13c0.004,0.046-0.02,0.08-0.059,0.1c0.016,0.011,0.025,0.027,0.025,0.039
	c0.002,0.012,0,0.025-0.006,0.039c-0.002,0.02-0.004,0.032-0.004,0.041c0.002,0.023,0.014,0.039,0.037,0.053
	c0,0.013,0.006,0.142,0.018,0.383c0.01,0.151,0.009,0.284-0.008,0.391l0.002,0.061c-0.022-0.004-0.045-0.004-0.068,0
	c-0.029,0-0.073,0.006-0.13,0.012c-0.053,0.009-0.096,0.014-0.123,0.014c-0.108,0.004-0.183-0.014-0.226-0.055l-0.047-1.32
	c-0.022-0.065-0.037-0.156-0.042-0.272l-0.017-0.254c-0.011-0.125-0.024-0.223-0.046-0.288c0.009-0.045,0.048-0.069,0.117-0.074
	c0.046-0.004,0.104,0.002,0.18,0.016c0.032-0.014,0.08-0.025,0.143-0.029h0.082c0.044-0.004,0.074-0.006,0.089-0.008
	c0.115-0.004,0.19-0.041,0.229-0.104c0.053,0,0.109,0.018,0.171,0.049c0.062,0.037,0.119,0.053,0.165,0.055
	c0.125,0.076,0.193,0.196,0.201,0.367c0.005,0.037-0.014,0.186-0.043,0.451l-0.212,0.185c0.033,0.066,0.078,0.21,0.13,0.436
	C28.825,24.495,28.893,24.637,28.975,24.721 M28.58,23.22l0.005,0.002c0.005,0.019,0.003-0.043-0.005-0.171
	c-0.004-0.065-0.027-0.11-0.069-0.141c-0.027,0.034-0.031-0.045-0.041,0.034c-0.013,0.082-0.031,0.139-0.059,0.172
	c-0.073,0-0.09-0.044-0.136-0.104c-0.023-0.039-0.041-0.006-0.041-0.009l-0.018,0.018c-0.014,0.01-0.025,0.021-0.037,0.035
	c-0.016,0.012-0.029,0.017-0.043,0.012c0,0.014-0.006,0.039-0.021,0.068s-0.024,0.049-0.02,0.062c0,0.021,0.018,0.036,0.05,0.043
	c-0.005,0.05-0.005,0.103-0.005,0.153c0,0.029,0.007,0.093,0.02,0.193c0.014,0.078,0.02,0.148,0.02,0.206
	c0.023,0,0.049,0,0.074-0.003c0.1-0.006,0.169-0.047,0.199-0.121c0.011-0.02,0.021-0.103,0.032-0.235
	C28.501,23.33,28.531,23.261,28.58,23.22"></path>
<path d="M14.4,18.629L14.4,18.629c-0.015,0.125-0.019,0.21-0.015,0.256c-0.018,0.006-0.043,0.008-0.073,0.004
	c-0.038-0.006-0.062-0.009-0.067-0.007c-0.017,0-0.032,0.005-0.041,0.015c-0.024-0.014-0.041-0.023-0.049-0.018
	c-0.023,0.012-0.035,0.034-0.034,0.059c0,0.01,0.006,0.028,0.014,0.053c0.008,0.028,0.012,0.048,0.012,0.059
	c0,0.02-0.002,0.046-0.01,0.082c-0.008,0.037-0.01,0.067-0.01,0.09c0.002,0.029,0.008,0.073,0.018,0.132
	c0.01,0.059,0.017,0.103,0.018,0.134c-0.013,0.058-0.017,0.117-0.015,0.176c0.005,0.073,0.025,0.17,0.062,0.294
	c0.006,0.002,0.011,0.002,0.018,0.002c0.015-0.002,0.032-0.012,0.053-0.033c0.021-0.019,0.038-0.03,0.052-0.03
	c0.012-0.002,0.024,0,0.036,0.007c0.04,0.122,0.059,0.205,0.061,0.241c0.001,0.017,0.001,0.035,0,0.053
	c-0.057,0.015-0.098-0.004-0.121-0.055c0.003-0.018-0.007-0.032-0.024-0.048l-0.066,0.067c0.062,0.009,0.088,0.058,0.076,0.142
	c-0.007,0.019-0.019,0.03-0.042,0.03H14.2l-0.052-0.095l-0.019,0.026c-0.018-0.045-0.038-0.064-0.062-0.063
	c-0.013,0-0.034,0.011-0.066,0.033c-0.034,0.02-0.06,0.03-0.081,0.032c-0.018,0.001-0.036-0.004-0.053-0.014
	c0-0.026-0.005-0.051-0.009-0.079c-0.003-0.027-0.018-0.044-0.042-0.055c0-0.065,0.001-0.238,0.006-0.522
	c0.001-0.213,0-0.386-0.006-0.519c-0.005-0.058-0.009-0.108-0.014-0.163c-0.01-0.017-0.023-0.026-0.032-0.024
	c-0.009,0-0.02,0.01-0.037,0.028c-0.019,0.019-0.035,0.025-0.047,0.023c-0.002-0.019-0.011-0.055-0.028-0.103
	c-0.02-0.047-0.029-0.08-0.032-0.102c-0.002-0.034,0.012-0.066,0.043-0.094l0.074,0.018c0.03-0.041,0.041-0.117,0.036-0.212
	c-0.001-0.021-0.002-0.05-0.006-0.094c-0.006-0.039-0.009-0.069-0.011-0.09c-0.006-0.164,0.045-0.249,0.154-0.255
	c0.039-0.002,0.091,0.006,0.149,0.023l0.07,0.018c0.005,0.026,0.01,0.056,0.011,0.085c0.001,0.039,0,0.1-0.006,0.18
	c-0.005,0.078-0.007,0.133-0.005,0.17c0.002,0.058,0.012,0.11,0.032,0.157c0.016,0,0.043-0.013,0.08-0.028
	c0.034-0.019,0.062-0.028,0.079-0.028C14.355,18.586,14.381,18.599,14.4,18.629 M14.175,18.859l-0.003-0.076l-0.024-0.022
	L14.175,18.859z"></path>
<path d="M15.279,18.4l0.004-0.001c-0.009,0.057-0.017,0.114-0.027,0.174c-0.011,0.064-0.032,0.116-0.057,0.156
	c-0.004-0.001-0.031-0.013-0.08-0.04c-0.031-0.016-0.061-0.022-0.086-0.018c-0.019,0.125-0.03,0.296-0.032,0.512
	c-0.002,0.275-0.003,0.444-0.006,0.501c-0.034-0.003-0.057,0.006-0.072,0.03c-0.017,0.024-0.031,0.047-0.045,0.072
	c-0.006,0.014-0.01,0.024-0.01,0.034c0.002,0.02,0.018,0.034,0.045,0.051c0.031,0.016,0.045,0.034,0.045,0.052
	c-0.013,0.045-0.039,0.071-0.08,0.071c-0.018,0.001-0.053-0.004-0.101-0.017c-0.048-0.012-0.081-0.018-0.1-0.017l-0.046-0.917
	c0.017-0.024,0.026-0.039,0.025-0.049l-0.028-0.019c0.002-0.036,0.003-0.23,0.007-0.574c0.001-0.233,0.009-0.422,0.026-0.566
	c-0.002,0,0.063-0.006,0.196-0.014c0.083-0.003,0.139,0.022,0.163,0.069c0,0.047-0.006,0.129-0.014,0.239
	c-0.01,0.102-0.014,0.181-0.011,0.237c0.004,0.07,0.014,0.131,0.032,0.184C15.098,18.454,15.184,18.401,15.279,18.4 M15.597,18.595
	c0.006,0.083,0.011,0.166,0.017,0.247c0.017,0.357,0.011,0.736-0.017,1.138c-0.033,0.03-0.077,0.036-0.142,0.019
	c-0.065-0.015-0.112-0.009-0.14,0.018c-0.036-0.047-0.058-0.13-0.065-0.256c-0.007-0.18-0.012-0.271-0.012-0.278
	c-0.008-0.451,0.035-0.812,0.13-1.091C15.48,18.42,15.554,18.489,15.597,18.595"></path>
<path d="M16.72,19.058c-0.013,0.028-0.018,0.06-0.015,0.09c0,0.034,0,0.063,0.004,0.096c-0.004,0.024-0.011,0.05-0.023,0.077
	c-0.02-0.006-0.035-0.01-0.048-0.008c-0.015,0-0.031,0.006-0.047,0.018c-0.014,0.01-0.026,0.014-0.034,0.014
	c-0.013,0.004-0.032-0.003-0.054-0.012l-0.148-0.218c0.005,0.064,0.02,0.121,0.043,0.17c0.014,0.024,0.024,0.05,0.035,0.074
	c-0.085,0.015-0.134,0.018-0.146,0.008l-0.02,0.026l-0.052-0.067c-0.04,0.048-0.05,0.119-0.027,0.216
	c0.026,0.103,0.027,0.179,0.004,0.224c0.032,0.047,0.07,0.069,0.117,0.068c0.019-0.003,0.034-0.006,0.049-0.021
	c0.021-0.053,0.04-0.107,0.063-0.158c0.032-0.064,0.066-0.099,0.104-0.099c0.029-0.001,0.065,0.016,0.104,0.045
	c0.047,0.019,0.073,0.039,0.076,0.069c0,0.018-0.01,0.044-0.036,0.083c-0.02,0.039-0.031,0.069-0.031,0.088
	c0.001,0.011,0.002,0.018,0.005,0.025c-0.031,0.023-0.059,0.057-0.083,0.103c-0.025,0.047-0.057,0.077-0.097,0.098
	c-0.036,0.031-0.067,0.05-0.096,0.05c-0.024,0-0.058-0.018-0.106-0.056c-0.046-0.035-0.09-0.052-0.131-0.051
	c-0.017-0.038-0.058-0.08-0.125-0.123c-0.066-0.048-0.108-0.098-0.123-0.15c0.001,0.004,0-0.014,0-0.051
	c-0.004-0.022-0.013-0.037-0.03-0.041l0.025-0.025c-0.034,0-0.05-0.019-0.052-0.055V19.54c0-0.012,0.001-0.02,0-0.024
	c0-0.027-0.008-0.045-0.024-0.053l-0.006-0.112c-0.002-0.06-0.014-0.1-0.035-0.124c0.021-0.138,0.042-0.272,0.063-0.411
	c0.035-0.155,0.086-0.237,0.154-0.239c0.012-0.002,0.022,0,0.033,0.002c0.062-0.061,0.135-0.092,0.223-0.097
	c0.095-0.005,0.202,0.025,0.32,0.088C16.643,18.719,16.7,18.882,16.72,19.058 M16.279,18.703l-0.022,0.029
	c-0.013,0.003-0.031-0.005-0.051-0.023l0.004,0.072c-0.033,0.035-0.045,0.093-0.04,0.168c0.007,0.129,0.009,0.191,0.009,0.185
	l0.096-0.002c0.046-0.026,0.068-0.068,0.065-0.126c-0.002-0.032-0.012-0.082-0.031-0.15C16.288,18.788,16.279,18.738,16.279,18.703"></path>
<polygon fill-rule="evenodd" clip-rule="evenodd" points="17.473,22.289 17.57,22.345 17.893,21.497 17.785,21.46 17.461,22.31 
	17.556,22.367 "></polygon>
<polygon fill-rule="evenodd" clip-rule="evenodd" points="17.616,22.17 17.576,22.188 17.473,22.289 17.556,22.367 17.66,22.263 
	17.619,22.28 "></polygon>
<polygon fill-rule="evenodd" clip-rule="evenodd" points="18.397,22.168 18.444,22.129 17.616,22.17 17.619,22.28 18.448,22.239 
	18.501,22.2 "></polygon>
<polygon fill-rule="evenodd" clip-rule="evenodd" points="18.772,21.386 18.715,21.312 18.397,22.167 18.501,22.2 18.824,21.351 
	18.768,21.278 "></polygon>
<polygon fill-rule="evenodd" clip-rule="evenodd" points="17.981,21.41 17.942,21.432 18.773,21.386 18.768,21.277 17.94,21.314 
	17.898,21.336 "></polygon>
<polygon fill-rule="evenodd" clip-rule="evenodd" points="17.893,21.497 17.881,21.514 17.98,21.41 17.898,21.336 17.795,21.44 
	17.785,21.46 "></polygon>
<polygon fill-rule="evenodd" clip-rule="evenodd" points="18.583,22.265 18.655,22.236 18.477,22.134 18.42,22.236 18.603,22.336 
	18.684,22.304 18.578,22.263 "></polygon>
<polygon fill-rule="evenodd" clip-rule="evenodd" points="18.929,21.482 18.9,21.417 18.577,22.262 18.683,22.303 19.006,21.45 
	18.978,21.385 "></polygon>
<polygon fill-rule="evenodd" clip-rule="evenodd" points="18.824,21.351 18.743,21.385 18.929,21.482 18.978,21.385 18.8,21.284 
	18.716,21.312 "></polygon>
<polygon points="17.841,21.479 17.836,21.477 17.94,21.375 18.709,21.335 18.716,21.312 18.772,21.333 18.824,21.35 18.82,21.361 
	18.957,21.432 19.006,21.45 18.986,21.504 19.362,22.402 19.043,23.252 18.633,22.283 18.58,22.303 18.577,22.262 18.582,22.254 
	18.45,22.184 18.42,22.236 18.403,22.184 17.615,22.223 17.511,22.324 "></polygon>
<polygon fill-rule="evenodd" clip-rule="evenodd" points="18.993,23.234 19.098,23.229 18.686,22.262 18.58,22.303 18.992,23.275 
	19.097,23.271 18.989,23.234 "></polygon>
<polygon fill-rule="evenodd" clip-rule="evenodd" points="19.315,22.428 19.312,22.384 18.989,23.234 19.097,23.271 19.418,22.42 
	19.416,22.377 "></polygon>
<polygon fill-rule="evenodd" clip-rule="evenodd" points="19.006,21.45 18.901,21.458 19.315,22.428 19.417,22.378 19.004,21.408 
	18.9,21.417 "></polygon>
<polygon fill-rule="evenodd" clip-rule="evenodd" fill="#FFFFFF" points="18.979,21.67 19.025,21.771 19.043,21.874 19.038,21.975 
	19.009,22.076 18.958,22.181 18.888,22.273 18.795,22.355 18.687,22.428 18.627,22.451 18.567,22.479 18.5,22.488 18.438,22.504 
	18.379,22.512 18.314,22.521 18.256,22.512 18.191,22.508 18.139,22.496 18.083,22.475 18.028,22.451 17.98,22.426 17.939,22.396 
	17.894,22.36 17.857,22.319 17.825,22.274 17.778,22.174 17.761,22.072 17.761,21.973 17.795,21.866 17.841,21.769 17.913,21.674 
	18.004,21.592 18.12,21.52 18.171,21.492 18.238,21.468 18.299,21.456 18.359,21.44 18.426,21.433 18.484,21.427 18.545,21.433 
	18.607,21.439 18.664,21.456 18.72,21.477 18.772,21.492 18.824,21.521 18.865,21.547 18.913,21.583 18.942,21.629 "></polygon>
<polygon fill-rule="evenodd" clip-rule="evenodd" points="19.02,21.839 19.066,21.938 19.083,22.047 19.076,22.147 19.049,22.247 
	19.004,22.352 18.926,22.445 18.844,22.525 18.728,22.592 18.667,22.624 18.607,22.649 18.545,22.663 18.478,22.677 18.417,22.685 
	18.359,22.687 18.299,22.685 18.233,22.675 18.178,22.661 18.125,22.644 18.073,22.62 18.021,22.592 17.979,22.567 17.939,22.529 
	17.9,22.494 17.866,22.445 17.819,22.347 17.801,22.245 17.808,22.14 17.835,22.039 17.881,21.936 17.951,21.845 18.042,21.761 
	18.158,21.692 18.217,21.663 18.276,21.642 18.34,21.622 18.407,21.608 18.463,21.606 18.523,21.6 18.586,21.606 18.645,21.608 
	18.707,21.624 18.761,21.642 18.812,21.665 18.865,21.688 18.906,21.72 18.953,21.749 18.982,21.798 19.02,21.843 "></polygon>
<polygon fill-rule="evenodd" clip-rule="evenodd" fill="#FFFFFF" points="19.049,21.954 19.098,22.051 19.112,22.16 19.107,22.263 
	19.081,22.358 19.028,22.46 18.957,22.557 18.873,22.638 18.759,22.707 18.702,22.737 18.638,22.765 18.577,22.776 18.51,22.788 
	18.45,22.798 18.391,22.802 18.33,22.798 18.264,22.788 18.212,22.776 18.156,22.757 18.105,22.735 18.052,22.707 18.011,22.679 
	17.966,22.641 17.933,22.602 17.897,22.557 17.849,22.46 17.833,22.356 17.836,22.259 17.866,22.154 17.912,22.051 17.985,21.954 
	18.077,21.88 18.188,21.804 18.25,21.774 18.31,21.748 18.371,21.734 18.437,21.722 18.495,21.715 18.556,21.711 18.621,21.715 
	18.679,21.722 18.737,21.737 18.791,21.757 18.845,21.778 18.893,21.806 18.937,21.833 18.982,21.866 19.014,21.907 "></polygon>
<polygon fill-rule="evenodd" clip-rule="evenodd" points="19.091,22.123 19.136,22.224 19.155,22.325 19.155,22.43 19.121,22.529 
	19.075,22.634 18.998,22.726 18.914,22.81 18.798,22.881 18.744,22.908 18.679,22.932 18.618,22.943 18.557,22.961 18.49,22.965 
	18.431,22.975 18.371,22.965 18.311,22.963 18.25,22.949 18.195,22.93 18.146,22.908 18.091,22.878 18.052,22.848 18.011,22.817 
	17.974,22.776 17.938,22.729 17.895,22.631 17.874,22.527 17.879,22.426 17.906,22.319 17.958,22.224 18.029,22.127 18.12,22.043 
	18.232,21.973 18.287,21.944 18.348,21.921 18.417,21.907 18.476,21.894 18.537,21.889 18.6,21.884 18.661,21.889 18.718,21.893 
	18.774,21.903 18.833,21.923 18.888,21.944 18.933,21.975 18.983,22.008 19.024,22.038 19.06,22.077 19.089,22.129 "></polygon>
<polygon fill-rule="evenodd" clip-rule="evenodd" fill="#FFFFFF" points="19.15,22.236 19.197,22.328 19.216,22.433 19.213,22.541 
	19.185,22.639 19.136,22.742 19.056,22.835 18.974,22.917 18.865,22.989 18.803,23.018 18.737,23.043 18.676,23.055 18.616,23.069 
	18.549,23.076 18.491,23.082 18.431,23.076 18.371,23.067 18.312,23.055 18.256,23.035 18.206,23.013 18.158,22.991 18.11,22.961 
	18.071,22.923 18.034,22.881 18.004,22.837 17.954,22.74 17.934,22.633 17.94,22.53 17.974,22.435 18.018,22.328 18.089,22.236 
	18.178,22.155 18.286,22.084 18.351,22.052 18.41,22.026 18.474,22.019 18.539,22.001 18.596,21.993 18.66,21.993 18.724,21.995 
	18.777,22.001 18.834,22.015 18.897,22.036 18.947,22.058 18.999,22.08 19.043,22.114 19.083,22.149 19.12,22.19 "></polygon>
<polygon fill-rule="evenodd" clip-rule="evenodd" points="19.198,22.405 19.237,22.502 19.26,22.605 19.255,22.707 19.227,22.81 
	19.177,22.911 19.104,23.006 19.015,23.091 18.904,23.16 18.845,23.187 18.779,23.21 18.719,23.221 18.656,23.24 18.597,23.249 
	18.533,23.253 18.47,23.242 18.41,23.24 18.357,23.229 18.296,23.21 18.246,23.184 18.2,23.16 18.152,23.125 18.111,23.096 
	18.074,23.055 18.042,23.009 17.996,22.911 17.976,22.806 17.979,22.703 18.013,22.6 18.058,22.499 18.13,22.407 18.22,22.322 
	18.337,22.253 18.389,22.223 18.455,22.203 18.515,22.188 18.578,22.174 18.644,22.168 18.703,22.16 18.761,22.168 18.821,22.168 
	18.882,22.184 18.938,22.205 18.989,22.223 19.037,22.253 19.083,22.285 19.124,22.315 19.162,22.356 "></polygon>
<polygon fill-rule="evenodd" clip-rule="evenodd" points="13.545,21.1 13.55,21.065 13.223,21.92 13.327,21.953 13.651,21.102 
	13.653,21.078 "></polygon>
<polygon fill-rule="evenodd" clip-rule="evenodd" points="13.535,21.056 13.537,21.049 13.544,21.1 13.653,21.077 13.642,21.028 
	13.643,21.023 "></polygon>
<polygon fill-rule="evenodd" clip-rule="evenodd" points="13.524,21.009 13.535,21.056 13.643,21.023 13.631,20.976 "></polygon>
<rect x="13.547" y="20.913" transform="matrix(-0.2948 -0.9556 0.9556 -0.2948 -2.4659 40.1187)" fill-rule="evenodd" clip-rule="evenodd" width="0.048" height="0.113"></rect>
<polygon fill-rule="evenodd" clip-rule="evenodd" points="13.499,20.912 13.499,20.912 13.509,20.963 13.616,20.93 13.604,20.88 
	13.604,20.885 "></polygon>
<polygon fill-rule="evenodd" clip-rule="evenodd" points="13.485,20.851 13.485,20.869 13.499,20.912 13.604,20.884 13.591,20.841 
	13.595,20.861 "></polygon>
<polygon fill-rule="evenodd" clip-rule="evenodd" points="13.593,20.831 13.486,20.811 13.485,20.852 13.595,20.86 13.597,20.819 
	13.489,20.8 13.591,20.837 "></polygon>
<polygon fill-rule="evenodd" clip-rule="evenodd" fill="#4D494A" points="13.686,23.316 13.677,23.263 13.562,23.282 13.57,23.343 
	"></polygon>
<polygon fill-rule="evenodd" clip-rule="evenodd" points="13.926,22.604 13.93,22.58 13.604,23.425 13.708,23.462 14.031,22.612 
	14.029,22.583 "></polygon>
<polygon fill-rule="evenodd" clip-rule="evenodd" points="13.917,22.545 13.925,22.604 14.028,22.584 14.021,22.523 13.912,22.545 
	"></polygon>
<rect x="13.933" y="22.45" transform="matrix(-0.1728 -0.985 0.985 -0.1728 -5.7944 40.1464)" fill-rule="evenodd" clip-rule="evenodd" width="0.057" height="0.112"></rect>
<polygon fill-rule="evenodd" clip-rule="evenodd" points="13.888,22.428 13.893,22.436 13.9,22.489 14.007,22.469 13.998,22.406 
	14,22.412 "></polygon>
<polygon fill-rule="evenodd" clip-rule="evenodd" points="13.992,22.376 13.882,22.36 13.888,22.428 14,22.412 13.993,22.354 
	13.882,22.341 "></polygon>
<path fill="#4D494A" d="M13.225,21.75l-0.052,0.019L13.225,21.75z"></path>
<polygon fill="#4D494A" points="13.277,21.93 13.281,21.922 13.307,21.927 13.326,21.953 13.278,21.939 "></polygon>
<polygon points="13.161,21.72 13.215,21.706 13.217,21.667 13.541,20.812 13.541,20.818 13.541,20.854 13.55,20.895 13.565,20.947 
	13.581,20.99 13.591,21.041 13.6,21.082 13.651,21.102 13.327,21.953 13.307,21.927 13.281,21.923 13.277,21.93 13.278,21.939 
	13.327,21.953 13.28,21.951 13.281,21.99 13.246,21.951 13.221,21.949 13.212,21.902 13.234,21.896 13.254,21.841 13.2,21.857 
	13.184,21.816 13.172,21.769 13.224,21.749 13.172,21.769 13.174,21.761 "></polygon>
<polygon points="13.277,21.882 15.657,21.804 15.717,21.806 15.729,21.812 15.786,21.825 15.793,21.825 15.855,21.847 15.913,21.87 
	15.917,21.873 15.976,21.907 15.985,21.912 16.03,21.951 16.044,21.96 16.077,22 16.08,22.008 16.103,22.042 16.103,22.055 
	15.999,22.088 15.982,22.062 15.98,22.067 15.953,22.027 15.917,21.998 15.925,22.008 15.869,21.975 15.808,21.951 15.756,21.934 
	15.698,21.921 15.708,21.923 15.653,21.919 15.653,21.912 13.281,21.99 "></polygon>
<polygon points="15.998,22.088 15.999,22.088 16.004,22.096 "></polygon>
<polygon fill-rule="evenodd" clip-rule="evenodd" points="17.268,24.083 17.268,24.052 16.941,24.905 17.049,24.94 17.374,24.087 
	17.374,24.054 "></polygon>
<polygon fill-rule="evenodd" clip-rule="evenodd" points="16.328,21.245 16.321,21.231 17.267,24.083 17.373,24.054 16.427,21.198 
	16.427,21.188 "></polygon>
<polygon fill-rule="evenodd" clip-rule="evenodd" points="16.309,21.217 16.306,21.209 16.329,21.244 16.426,21.189 16.407,21.152 
	16.397,21.152 16.304,21.217 "></polygon>
<polygon fill-rule="evenodd" clip-rule="evenodd" points="16.287,21.181 16.279,21.172 16.303,21.216 16.398,21.152 16.363,21.107 
	16.355,21.097 "></polygon>
<polygon fill-rule="evenodd" clip-rule="evenodd" points="16.25,21.158 16.242,21.149 16.287,21.18 16.355,21.096 16.309,21.063 
	16.301,21.055 "></polygon>
<polygon fill-rule="evenodd" clip-rule="evenodd" points="16.197,21.122 16.192,21.122 16.25,21.157 16.301,21.056 16.241,21.023 
	16.236,21.022 "></polygon>
<polygon fill-rule="evenodd" clip-rule="evenodd" points="16.144,21.102 16.131,21.102 16.197,21.122 16.236,21.023 16.176,20.998 
	16.172,20.997 16.138,21.104 "></polygon>
<polygon fill-rule="evenodd" clip-rule="evenodd" points="16.082,21.08 16.075,21.081 16.138,21.103 16.173,20.997 16.11,20.976 
	16.08,21.084 "></polygon>
<polygon fill-rule="evenodd" clip-rule="evenodd" points="16.036,21.067 16.023,21.065 16.08,21.084 16.109,20.975 16.05,20.96 
	16.042,20.96 "></polygon>
<polygon fill-rule="evenodd" clip-rule="evenodd" points="15.979,21.062 15.977,21.067 16.036,21.067 16.042,20.959 15.982,20.949 
	15.976,20.953 "></polygon>
<polygon fill-rule="evenodd" clip-rule="evenodd" points="13.658,21.103 13.598,21.14 15.979,21.062 15.976,20.953 13.6,21.033 
	13.55,21.065 13.651,21.102 "></polygon>
<polygon fill="#4D494A" points="14.255,23.702 14.247,23.694 14.252,23.692 "></polygon>
<path fill="#4D494A" d="M15.541,24.083l-0.01,0.116L15.541,24.083z"></path>
<path d="M13.57,23.344l0.011,0.053l0.021,0.058l0.026,0.041l0.145,0.076l0.147,0.078l0.139,0.077l0.141,0.069h0.006l0.144,0.065
	l0.142,0.066l0.156,0.063l0.158,0.059l0.005,0.002l0.168,0.045l0.167,0.044l0.005,0.002l0.184,0.026l0.191,0.03h0.004l0.206,0.013
	l0.01-0.004l0.218,0.009l0.235-0.011l0.252-0.014l0.05-0.034l0.322-0.848l-0.052-0.077l0.002,0.112l-0.016-0.023l0.012-0.03
	l-0.037,0.002l-0.014-0.021l-0.008,0.023l-0.185,0.011h-0.239l-0.221-0.004l-0.203-0.011l-0.195-0.026l-0.186-0.034l-0.165-0.043
	l-0.169-0.043l-0.156-0.06l-0.154-0.061l-0.143-0.062l-0.14-0.068l-0.149-0.073l-0.14-0.076l-0.138-0.073l-0.098-0.052l0.002-0.009
	l-0.05-0.02l-0.014-0.061l-0.01-0.053l-0.005-0.019l0.04-0.084l-0.056-0.02h-0.002l-0.053-0.016l-0.323,0.848l-0.003,0.029
	l0.009,0.059L13.57,23.344z M13.61,23.208l0.002,0.01l-0.006-0.002L13.61,23.208z"></path>
<polygon fill-rule="evenodd" clip-rule="evenodd" points="16.525,23.357 16.773,23.345 16.771,23.234 16.52,23.251 "></polygon>
<rect x="16.285" y="23.255" transform="matrix(-0.9995 0.033 -0.033 -0.9995 33.5667 46.0617)" fill-rule="evenodd" clip-rule="evenodd" width="0.237" height="0.106"></rect>
<polygon fill-rule="evenodd" clip-rule="evenodd" points="16.063,23.357 16.068,23.36 16.289,23.364 16.285,23.256 16.064,23.251 
	16.071,23.249 16.061,23.362 "></polygon>
<polygon fill-rule="evenodd" clip-rule="evenodd" points="15.852,23.346 15.855,23.346 16.061,23.362 16.071,23.248 15.863,23.234 
	15.87,23.238 "></polygon>
<polygon fill-rule="evenodd" clip-rule="evenodd" points="15.659,23.32 15.852,23.345 15.869,23.238 15.68,23.21 "></polygon>
<polygon fill-rule="evenodd" clip-rule="evenodd" points="15.47,23.288 15.476,23.29 15.659,23.319 15.68,23.21 15.49,23.177 
	15.495,23.179 "></polygon>
<polygon fill-rule="evenodd" clip-rule="evenodd" points="15.303,23.24 15.47,23.288 15.495,23.178 15.327,23.136 15.301,23.249 "></polygon>
<polygon fill-rule="evenodd" clip-rule="evenodd" points="15.129,23.201 15.134,23.201 15.301,23.249 15.327,23.136 15.16,23.091 
	15.165,23.093 "></polygon>
<polygon fill-rule="evenodd" clip-rule="evenodd" points="14.973,23.142 14.973,23.142 15.128,23.201 15.165,23.092 15.007,23.035 
	15.014,23.035 14.966,23.14 "></polygon>
<polygon fill-rule="evenodd" clip-rule="evenodd" points="14.816,23.078 14.965,23.14 15.014,23.035 14.861,22.974 "></polygon>
<rect x="14.688" y="22.938" transform="matrix(-0.9151 -0.4033 0.4033 -0.9151 19.0063 49.9904)" fill-rule="evenodd" clip-rule="evenodd" width="0.157" height="0.112"></rect>
<polygon fill-rule="evenodd" clip-rule="evenodd" points="14.524,22.942 14.528,22.95 14.672,23.013 14.717,22.911 14.569,22.843 
	14.575,22.845 14.523,22.946 "></polygon>
<polygon fill-rule="evenodd" clip-rule="evenodd" points="14.384,22.872 14.522,22.945 14.575,22.846 14.433,22.774 14.381,22.878 
	"></polygon>
<polygon fill-rule="evenodd" clip-rule="evenodd" points="14.244,22.796 14.38,22.878 14.433,22.774 14.292,22.698 14.239,22.796 
	"></polygon>
<rect x="14.114" y="22.654" transform="matrix(-0.8839 -0.4677 0.4677 -0.8839 16.1176 49.4198)" fill-rule="evenodd" clip-rule="evenodd" width="0.161" height="0.11"></rect>
<polygon fill-rule="evenodd" clip-rule="evenodd" points="14.031,22.612 13.952,22.641 14.097,22.719 14.153,22.623 14.008,22.549 
	13.93,22.58 "></polygon>
<polygon fill-rule="evenodd" clip-rule="evenodd" points="28.852,21.072 28.527,21.926 29.591,22.281 29.836,21.713 29.842,21.657 
	29.844,21.601 29.836,21.542 29.814,21.481 29.779,21.432 29.752,21.378 29.708,21.324 29.662,21.271 29.614,21.229 29.561,21.182 
	29.507,21.141 29.456,21.115 29.406,21.08 29.342,21.052 29.29,21.022 29.238,21.009 29.194,20.991 29.139,20.982 29.087,20.979 
	29.038,20.987 28.995,20.994 28.943,21.01 28.898,21.042 "></polygon>
<polygon fill-rule="evenodd" clip-rule="evenodd" points="29.54,22.255 29.609,22.224 28.545,21.87 28.511,21.979 29.57,22.332 
	29.644,22.304 "></polygon>
<polygon points="13.161,21.666 13.165,21.648 13.489,20.8 13.591,20.836 13.277,21.676 13.272,21.707 13.271,21.695 13.161,21.72 
	13.16,21.707 "></polygon>
<polygon fill="#4D494A" points="18.367,23.677 18.347,23.689 18.345,23.688 "></polygon>
<path d="M13.2,21.857l0.011,0.05l0.001-0.005l0.084-0.021l-0.021,0.057l2.379-0.076h0.058l0.06,0.02l0.063,0.021l0.061,0.02
	l0.057,0.037l0.045,0.034l0.033,0.039l0.02,0.039l-0.054,0.016l0.944,2.854h0.057L17,24.979h0.086l0.077-0.005l0.077,0.005
	l0.064-0.014l0.07-0.018l0.067-0.035l0.064-0.052l0.075-0.072l0.001-0.006l0.044-0.058l0.049-0.065l0.057-0.067l0.039-0.066
	l0.052-0.08l0.05-0.067l0.043-0.078l0.055-0.077l0.043-0.063l0.063-0.073l0.051-0.067l0.061-0.061l0.052-0.055l0.056-0.052
	l0.056-0.043l0.063-0.037l0.013-0.006l-0.041-0.039l0.041,0.039l0.064-0.07l0.058-0.054l0.052-0.052l0.054-0.046l0.053-0.039
	l0.057-0.031l0.049-0.027l0.056-0.031l0.062-0.012l0.059-0.025l0.062-0.014l0.07-0.008l0.08-0.016l0.087-0.009l0.095-0.003
	l0.09-0.006l0.007,0.002l10.27-0.769l0.062-0.007l0.056-0.01l0.047-0.012l0.055-0.018l0.045-0.023l0.049-0.03l0.043-0.039
	l0.048-0.041l0.013-0.012l0.176-0.42l-0.094-0.062l0.041,0.043l-0.006,0.008L30.239,21.9l-0.045,0.104l-0.026,0.02l-0.042,0.014
	l-0.047,0.021l-0.041,0.009l-0.056,0.01l-0.053,0.01L19.65,22.852l-0.065,0.008h-0.063h-0.064l-0.064,0.013h-0.071l-0.059,0.008
	l-0.061,0.008l-0.063,0.012l-0.065,0.012l-0.061,0.007l-0.062,0.014l-0.069,0.019l-0.06,0.012l-0.067,0.023l-0.064,0.025
	l-0.061,0.029l-0.121,0.077l-0.127,0.111l-0.127,0.134l-0.127,0.152l-0.118,0.155l-0.105,0.145l-0.105,0.137l-0.084,0.102
	l-0.048,0.014l-0.045,0.008l-0.053,0.002h-0.051h-0.052l-0.043-0.002l-0.056-0.002l-0.05-0.004l-0.944-2.848l-0.021-0.041
	l-0.033-0.038l-0.045-0.031l-0.062-0.038l-0.06-0.027l-0.06-0.019l-0.059-0.017l-0.057-0.001l-2.378,0.073l-0.285,0.754l-0.003-0.01
	L13.2,21.857z M30.291,21.936l0.002-0.007l0.039,0.037L30.291,21.936z"></path>
<polygon fill-rule="evenodd" clip-rule="evenodd" points="29.931,22.146 29.993,22.13 30.046,22.118 30.096,22.108 30.147,22.091 
	30.197,22.067 30.246,22.038 30.283,22.007 30.332,21.966 30.25,21.883 30.217,21.926 30.178,21.954 30.137,21.974 30.103,21.989 
	30.065,22 30.019,22.015 29.972,22.021 29.921,22.026 "></polygon>
<rect x="19.641" y="22.408" transform="matrix(-0.9972 0.0742 -0.0742 -0.9972 51.1811 43.0321)" fill-rule="evenodd" clip-rule="evenodd" width="10.299" height="0.119"></rect>
<polygon fill-rule="evenodd" clip-rule="evenodd" points="18.653,23.091 18.714,23.063 18.772,23.042 18.844,23.022 18.9,23.001 
	18.964,22.981 19.025,22.973 19.084,22.962 19.15,22.951 19.205,22.942 19.267,22.94 19.333,22.934 19.4,22.926 19.463,22.921 
	19.521,22.916 19.59,22.91 19.659,22.908 19.647,22.791 19.581,22.8 19.519,22.807 19.449,22.807 19.385,22.812 19.321,22.816 
	19.26,22.828 19.197,22.83 19.127,22.834 19.065,22.852 19.004,22.865 18.937,22.873 18.866,22.893 18.811,22.91 18.74,22.936 
	18.67,22.953 18.608,22.986 "></polygon>
<polygon fill-rule="evenodd" clip-rule="evenodd" points="17.734,24.104 17.757,24.088 17.802,24.035 17.843,23.981 17.894,23.917 
	17.945,23.849 18.005,23.777 18.056,23.704 18.115,23.627 18.175,23.548 18.237,23.466 18.3,23.399 18.363,23.332 18.425,23.263 
	18.478,23.207 18.546,23.16 18.6,23.117 18.653,23.09 18.608,22.987 18.539,23.026 18.478,23.069 18.408,23.124 18.343,23.189 
	18.28,23.254 18.218,23.32 18.151,23.405 18.089,23.481 18.03,23.557 17.971,23.637 17.916,23.709 17.859,23.782 17.807,23.849 
	17.759,23.914 17.718,23.969 17.682,24.01 17.699,23.999 "></polygon>
<polygon fill-rule="evenodd" clip-rule="evenodd" fill="#FFFFFF" points="15.768,21.015 15.979,21.009 15.997,21.009 14.175,20.401 
	14.082,20.457 15.763,21.02 "></polygon>
<polygon fill-rule="evenodd" clip-rule="evenodd" fill="#FFFFFF" points="15.768,21.015 13.601,21.082 13.591,21.041 13.581,20.991 
	13.565,20.947 13.55,20.895 13.541,20.854 13.541,20.818 13.555,20.778 13.591,20.748 13.682,20.688 13.779,20.63 13.879,20.572 
	13.979,20.514 14.072,20.455 14.082,20.457 15.763,21.02 "></polygon>
<polygon fill="#FFFFFF" points="14.451,22.328 15.926,22.248 16.502,22.478 16.707,23.084 16.769,23.292 16.524,23.307 
	16.286,23.307 16.064,23.303 15.862,23.292 15.667,23.265 15.48,23.231 15.315,23.188 15.146,23.145 14.991,23.086 14.836,23.025 
	14.695,22.963 14.554,22.894 14.406,22.821 14.265,22.746 14.126,22.672 13.98,22.592 13.967,22.532 13.957,22.478 13.942,22.417 
	13.934,22.356 "></polygon>
<polygon fill-rule="evenodd" clip-rule="evenodd" fill="#FFFFFF" points="18.167,22.499 18.188,22.523 18.377,22.638 18.438,22.541 
	18.25,22.426 18.268,22.452 18.167,22.499 18.172,22.512 18.188,22.523 "></polygon>
<polygon fill-rule="evenodd" clip-rule="evenodd" fill="#FFFFFF" points="16.479,22.534 16.446,22.495 16.718,23.308 16.823,23.274 
	16.554,22.46 16.524,22.43 16.554,22.46 16.545,22.435 16.524,22.43 "></polygon>
<polygon fill-rule="evenodd" clip-rule="evenodd" fill="#FFFFFF" points="15.932,22.3 15.902,22.295 16.479,22.533 16.524,22.43 
	15.951,22.19 15.928,22.19 15.951,22.19 15.938,22.188 15.928,22.19 "></polygon>
<polygon fill-rule="evenodd" clip-rule="evenodd" fill="#FFFFFF" points="13.993,22.355 13.937,22.415 15.932,22.299 15.928,22.19 
	13.934,22.303 13.882,22.361 13.934,22.303 13.871,22.305 13.882,22.361 "></polygon>
<polygon fill-rule="evenodd" clip-rule="evenodd" fill="#FFFFFF" points="14.008,22.549 14.029,22.583 14.029,22.553 14.021,22.524 
	14.018,22.494 14.011,22.469 14.009,22.439 14.001,22.408 13.994,22.382 13.993,22.355 13.882,22.361 13.882,22.396 13.884,22.434 
	13.895,22.457 13.897,22.486 13.904,22.512 13.911,22.545 13.924,22.577 13.926,22.604 13.952,22.642 13.926,22.604 13.934,22.631 
	13.952,22.642 "></polygon>
<polygon fill-rule="evenodd" clip-rule="evenodd" fill="#FFFFFF" points="16.718,23.305 16.765,23.232 16.519,23.25 16.285,23.256 
	16.072,23.248 15.864,23.234 15.679,23.209 15.495,23.179 15.326,23.136 15.165,23.092 15.006,23.034 14.861,22.975 14.717,22.91 
	14.575,22.846 14.433,22.775 14.292,22.699 14.152,22.622 14.008,22.548 13.951,22.642 14.096,22.72 14.239,22.795 14.381,22.877 
	14.523,22.946 14.672,23.014 14.816,23.077 14.972,23.142 15.129,23.2 15.301,23.248 15.469,23.287 15.658,23.32 15.855,23.346 
	16.06,23.362 16.288,23.364 16.525,23.357 16.777,23.346 16.823,23.275 16.777,23.346 16.85,23.344 16.823,23.275 16.718,23.309 "></polygon>
<polygon fill-rule="evenodd" clip-rule="evenodd" fill="#FFFFFF" points="19.647,22.792 19.574,22.796 19.488,22.809 19.417,22.811 
	19.332,22.817 19.252,22.831 19.168,22.846 19.086,22.856 19.006,22.874 18.925,22.895 18.854,22.917 18.777,22.941 18.707,22.969 
	18.645,23.002 18.57,23.031 18.511,23.075 18.456,23.118 18.523,23.208 18.579,23.166 18.628,23.132 18.687,23.099 18.75,23.075 
	18.814,23.041 18.88,23.023 18.962,23.004 19.031,22.98 19.11,22.973 19.178,22.953 19.26,22.949 19.337,22.938 19.421,22.924 
	19.503,22.917 19.581,22.908 19.659,22.908 "></polygon>
<rect x="19.639" y="22.409" transform="matrix(0.9972 -0.0743 0.0743 0.9972 -1.6012 1.9045)" fill-rule="evenodd" clip-rule="evenodd" fill="#FFFFFF" width="10.302" height="0.118"></rect>
<polygon fill-rule="evenodd" clip-rule="evenodd" fill="#FFFFFF" points="30.107,21.4 30.153,21.46 30.199,21.515 30.219,21.575 
	30.251,21.629 30.269,21.682 30.272,21.733 30.272,21.779 30.271,21.826 30.258,21.861 30.242,21.894 30.219,21.926 30.18,21.96 
	30.137,21.979 30.076,22.005 30.005,22.021 29.921,22.026 29.931,22.145 30.025,22.134 30.107,22.112 30.178,22.084 30.242,22.05 
	30.301,22.011 30.341,21.954 30.364,21.907 30.384,21.844 30.384,21.781 30.386,21.721 30.374,21.657 30.353,21.591 30.323,21.528 
	30.292,21.46 30.247,21.389 30.201,21.336 "></polygon>
<polygon fill-rule="evenodd" clip-rule="evenodd" fill="#FFFFFF" points="28.885,20.815 28.979,20.812 29.072,20.821 29.169,20.841 
	29.262,20.853 29.352,20.884 29.436,20.914 29.52,20.953 29.598,20.991 29.681,21.035 29.754,21.081 29.836,21.131 29.895,21.18 
	29.951,21.234 30.014,21.294 30.065,21.35 30.108,21.4 30.2,21.336 30.147,21.271 30.085,21.21 30.03,21.152 29.962,21.093 
	29.889,21.042 29.818,20.99 29.738,20.942 29.656,20.89 29.565,20.847 29.475,20.812 29.381,20.782 29.284,20.748 29.19,20.729 
	29.089,20.713 28.98,20.705 28.881,20.705 "></polygon>
<rect x="19.795" y="20.862" transform="matrix(-0.9994 0.0345 -0.0345 -0.9994 49.3874 40.9828)" fill-rule="evenodd" clip-rule="evenodd" fill="#FFFFFF" width="9.091" height="0.11"></rect>
<polygon fill-rule="evenodd" clip-rule="evenodd" fill="#FFFFFF" points="18.364,20.901 18.451,20.933 18.541,20.953 18.629,20.983 
	18.718,21.001 18.813,21.023 18.902,21.046 19.003,21.062 19.087,21.072 19.178,21.093 19.271,21.101 19.364,21.115 19.455,21.116 
	19.541,21.129 19.634,21.123 19.72,21.131 19.799,21.129 19.799,21.022 19.713,21.022 19.631,21.017 19.554,21.01 19.464,21.005 
	19.375,20.999 19.286,20.991 19.198,20.979 19.104,20.967 19.016,20.947 18.929,20.933 18.84,20.912 18.747,20.897 18.66,20.875 
	18.562,20.847 18.485,20.829 18.396,20.797 18.364,20.905 "></polygon>
<polygon fill-rule="evenodd" clip-rule="evenodd" fill="#FFFFFF" points="15.3,20.061 15.455,20.039 15.6,20.026 15.741,20.012 
	15.871,20.005 15.991,20 16.1,20.016 16.214,20.019 16.309,20.026 16.406,20.041 16.496,20.061 16.581,20.078 16.659,20.104 
	16.741,20.131 16.805,20.158 16.885,20.191 16.949,20.222 17.021,20.26 17.096,20.293 17.167,20.337 17.24,20.375 17.312,20.418 
	17.386,20.465 17.462,20.5 17.539,20.551 17.628,20.593 17.715,20.645 17.81,20.682 17.901,20.729 18.007,20.773 18.12,20.812 
	18.24,20.864 18.363,20.904 18.396,20.798 18.275,20.758 18.155,20.709 18.052,20.673 17.948,20.63 17.852,20.582 17.765,20.542 
	17.682,20.493 17.597,20.451 17.515,20.406 17.437,20.365 17.367,20.324 17.291,20.272 17.218,20.231 17.146,20.197 17.073,20.163 
	17.005,20.12 16.931,20.087 16.851,20.053 16.777,20.022 16.695,19.995 16.605,19.966 16.517,19.949 16.424,19.934 16.322,19.913 
	16.219,19.898 16.11,19.896 15.986,19.895 15.866,19.895 15.727,19.902 15.587,19.913 15.438,19.931 15.284,19.947 15.293,20.058 
	"></polygon>
<polygon fill-rule="evenodd" clip-rule="evenodd" fill="#FFFFFF" points="13.622,20.799 13.709,20.737 13.808,20.679 13.908,20.623 
	14.011,20.559 14.103,20.504 14.205,20.447 14.304,20.394 14.404,20.348 14.512,20.298 14.621,20.25 14.726,20.205 14.834,20.167 
	14.953,20.137 15.062,20.106 15.18,20.077 15.293,20.058 15.284,19.946 15.157,19.972 15.035,19.994 14.917,20.026 14.802,20.059 
	14.689,20.106 14.574,20.149 14.469,20.192 14.36,20.241 14.25,20.297 14.146,20.354 14.049,20.405 13.949,20.464 13.851,20.521 
	13.751,20.582 13.658,20.64 13.563,20.699 13.617,20.797 "></polygon>
<polygon fill-rule="evenodd" clip-rule="evenodd" fill="#FFFFFF" points="13.601,21.033 13.659,21.08 13.642,21.027 13.631,20.975 
	13.617,20.929 13.604,20.88 13.599,20.849 13.593,20.831 13.603,20.805 13.617,20.798 13.563,20.7 13.515,20.746 13.487,20.808 
	13.479,20.862 13.499,20.912 13.509,20.963 13.523,21.009 13.537,21.05 13.544,21.094 13.599,21.139 13.544,21.094 13.546,21.139 
	13.599,21.139 "></polygon>
<polygon fill="#FFFFFF" points="17.8,21.436 17.798,21.441 17.796,21.441 "></polygon>
<polygon fill="#FFFFFF" points="17.772,21.46 17.796,21.44 17.783,21.499 "></polygon>
<polygon fill="#FFFFFF" points="19.304,22.114 21.176,22.738 20.975,22.751 20.971,22.757 19.345,22.214 "></polygon>
<path fill="#FFFFFF" d="M13.598,21.139l2.381-0.077l0.05,0.005l0.046,0.015l0.063,0.021l0.055,0.02l0.051,0.032l0.038,0.026
	l0.021,0.036l0.018,0.015l0.947,2.852l0.013,0.045h0.047l0.046-0.006l0.055,0.006l0.068,0.006l0.062-0.002l0.063,0.002l0.056-0.014
	l0.062-0.02l0.052-0.035L17.855,24l0.051-0.068l0.047-0.055l0.049-0.061l0.039-0.053l0.039-0.052l0.035-0.052l0.043-0.052
	l0.032-0.052l0.042-0.051l0.037-0.051l0.044-0.042l0.044-0.049l0.051-0.053l0.052-0.048l0.064-0.056l-0.034-0.046l0.051-0.043
	l0.059-0.037l0.067-0.028l0.061-0.03l0.068-0.03l0.075-0.021l0.077-0.026l0.076-0.02l0.071-0.009l0.077-0.018l0.084-0.01l0.08-0.012
	l0.08-0.008l0.082-0.004l0.078-0.012l0.075-0.004l1.32-0.094l-1.626-0.543l-0.041-0.1l1.872,0.623l8.753-0.649l0.16-0.027
	l0.123-0.055l0.084-0.083l0.029-0.09v-0.104l0.002-0.006l-0.028-0.117l-0.059-0.114l-0.082-0.126l-0.051-0.059l-0.054-0.056
	l-0.061-0.062l-0.062-0.05l-0.07-0.055l-0.07-0.048l-0.083-0.05l-0.08-0.05l-0.086-0.033l-0.083-0.038l-0.093-0.034L29.268,20.8
	l-0.095-0.012l-0.094-0.021l-0.1-0.012l-0.099,0.004l-1.321,0.049l-7.761,0.264h-0.086h-0.08h-0.088l-0.088-0.012l-0.088-0.007
	l-0.089-0.007l-0.088-0.011l-0.093-0.014l-0.093-0.013l-0.09-0.022l-0.09-0.018l-0.089-0.019l-0.093-0.025L18.551,20.9l-0.082-0.021
	l-0.088-0.029l-0.122-0.042l-0.123-0.046l-0.106-0.04l-0.105-0.042l-0.092-0.048l-0.09-0.04l-0.092-0.048l-0.083-0.042l-0.081-0.047
	l-0.072-0.042l-0.077-0.042l-0.071-0.042l-0.078-0.042l-0.07-0.043l-0.069-0.032l-0.072-0.042l-0.073-0.036l-0.077-0.03l-0.07-0.026
	l-0.084-0.026l-0.087-0.029L16.504,20l-0.092-0.014l-0.098-0.014l-0.099-0.012l-0.112-0.007l-0.118-0.006l-0.12,0.006l-0.127,0.003
	l-0.141,0.016l-0.148,0.012l-0.161,0.021l-0.12,0.018l-0.116,0.029l-0.12,0.028l-0.109,0.038l-0.115,0.042l-0.112,0.042
	l-0.105,0.044l-0.107,0.05l-0.104,0.05l-0.105,0.056l1.661,0.558l-2.235,0.073L13.598,21.139z M28.819,21.188l0.011-0.066
	l0.021-0.05l0.04-0.036l0.064-0.031l0.069-0.01l0.039,0.003l0.045,0.002l0.046,0.01l0.04,0.008l0.055,0.017l0.044,0.017l0.048,0.021
	l0.054,0.03l0.043,0.021l0.051,0.03l0.038,0.03l0.043,0.038l0.051,0.035l0.027,0.037l0.044,0.034l0.032,0.041l0.059,0.077
	l0.03,0.078l0.016,0.039l0.01,0.028l-0.008,0.064l-0.014,0.053l-0.034,0.045l-0.057,0.026l-0.074,0.015L29.611,21.8l-0.041-0.011
	l-0.052-0.002l-0.051-0.013l-0.047-0.016l-0.053-0.019l-0.053-0.023l-0.048-0.029l-0.047-0.021l-0.057-0.027l-0.046-0.033
	l-0.041-0.037l-0.041-0.032l-0.045-0.039l-0.037-0.043l-0.033-0.041l-0.054-0.079l-0.028-0.078l-0.009-0.026L28.819,21.188z
	 M19.36,22.396L19.36,22.396l-0.039-0.03L19.36,22.396z M17.901,21.493l0.061-0.064l0.782-0.043l0.168,0.084l0.39,0.926
	l-0.061,0.076l-0.838,0.058l0.035,0.012l-0.028,0.043h-0.003l-0.187-0.108l-0.002-0.002l0.049-0.021L17.901,21.493z"></path>
<polygon fill-rule="evenodd" clip-rule="evenodd" points="28.29,21.779 28.243,21.75 28.232,21.707 28.304,21.691 28.314,21.738 
	28.273,21.707 "></polygon>
<polygon fill-rule="evenodd" clip-rule="evenodd" points="28.387,21.726 28.374,21.738 28.356,21.756 28.335,21.767 28.315,21.779 
	28.29,21.779 28.274,21.706 28.286,21.706 28.303,21.696 28.322,21.692 28.324,21.688 28.319,21.696 28.381,21.729 "></polygon>
<polygon fill-rule="evenodd" clip-rule="evenodd" points="28.189,21.296 28.195,21.297 28.229,21.336 28.271,21.38 28.311,21.429 
	28.35,21.48 28.385,21.535 28.401,21.602 28.401,21.667 28.381,21.729 28.318,21.695 28.332,21.654 28.328,21.613 28.314,21.564 
	28.287,21.521 28.253,21.47 28.214,21.429 28.171,21.386 28.14,21.347 28.142,21.349 "></polygon>
<polygon fill-rule="evenodd" clip-rule="evenodd" points="27.56,21.115 27.555,21.112 27.646,21.115 27.731,21.115 27.811,21.129 
	27.889,21.137 27.967,21.158 28.041,21.193 28.118,21.237 28.19,21.296 28.142,21.348 28.075,21.302 28.006,21.261 27.945,21.229 
	27.876,21.212 27.798,21.199 27.724,21.188 27.644,21.188 27.564,21.188 27.566,21.182 27.553,21.117 "></polygon>
<polygon fill-rule="evenodd" clip-rule="evenodd" points="20.889,21.464 20.919,21.444 27.554,21.116 27.565,21.183 20.929,21.518 
	20.959,21.498 "></polygon>
<polygon fill-rule="evenodd" clip-rule="evenodd" points="20.733,21.696 20.66,21.674 20.667,21.623 20.677,21.583 20.697,21.536 
	20.725,21.505 20.76,21.481 20.809,21.467 20.86,21.45 20.919,21.445 20.928,21.517 20.875,21.528 20.823,21.54 20.8,21.542 
	20.776,21.562 20.764,21.583 20.744,21.604 20.734,21.634 20.736,21.682 20.667,21.655 "></polygon>
<polygon points="28.251,21.668 28.23,21.642 28.203,21.607 28.188,21.578 28.162,21.553 28.137,21.521 28.111,21.499 28.089,21.468 
	28.021,21.417 27.948,21.368 27.878,21.339 27.808,21.319 27.729,21.312 27.647,21.297 27.569,21.294 27.483,21.294 20.846,21.627 
	20.9,21.521 20.921,21.521 20.928,21.518 27.565,21.183 27.678,21.192 27.771,21.188 27.855,21.2 27.938,21.217 28.011,21.255 
	28.076,21.292 28.141,21.347 28.206,21.429 28.272,21.499 28.314,21.572 28.335,21.625 28.335,21.656 28.323,21.688 28.277,21.713 
	28.273,21.715 28.272,21.704 "></polygon>
<path d="M20.66,21.673l0.006,0.065l0.016,0.043l0.015,0.062l0.046,0.074l0.055,0.057l0.07,0.062l0.085,0.058l0.093,0.041
	l0.101,0.025l0.12,0.004l6.819-0.345l0.128-0.016l0.092-0.019l0.068-0.048l0.035-0.063v-0.061l-0.024-0.078l-0.05-0.075
	l-0.068-0.084l-0.071-0.081l-0.076-0.063l-0.08-0.05l-0.076-0.038l-0.087-0.017l-0.104-0.018h-0.1l-0.12,0.007l-6.633,0.328v0.002
	l-0.071,0.003l-0.071,0.028l-0.049,0.041l-0.033,0.043l-0.02,0.052L20.66,21.673z M20.736,21.683l0.008-0.045l0.005-0.006
	l0.004-0.004h0.037l0.056-0.002l0.057-0.104h0.019l0.006-0.004l6.638-0.335l0.11,0.011l0.094-0.004l0.086,0.012l0.082,0.015
	l0.071,0.038l0.066,0.037l0.064,0.055l0.065,0.082l0.066,0.07l0.043,0.075l0.02,0.051v0.033l-0.012,0.031l-0.045,0.023l-0.004,0.002
	l-0.075,0.018l-0.113,0.014l-6.819,0.35h-0.006l-0.096-0.004l-0.093-0.023l-0.086-0.041l-0.071-0.041l-0.058-0.06l-0.046-0.059
	l-0.037-0.06l-0.03-0.05l-0.004-0.037L20.736,21.683z"></path>















</svg>