<svg id="a" xmlns="http://www.w3.org/2000/svg" viewBox="0 0 975 1575" width="975" height="1575"><defs><style>.c{stroke-dasharray:0 0 5.14 5.14;}.c,.d,.e{stroke:#00aced;stroke-miterlimit:10;stroke-width:2px;}.c,.d,.e,.f,.g,.h{fill:none;}.d{stroke-dasharray:0 0 5.14 5.14;}.i,.j,.k,.l{font-size:7px;}.i,.j,.k,.l,.m{font-family:Arial-BoldMT, Arial;}.i,.m,.n{fill:#231f20;}.j{fill:red;}.k{fill:#ed2224;}.l{fill:#2ca1da;}.o{letter-spacing:0em;}.p{letter-spacing:.05em;}.q{letter-spacing:.05em;}.r{letter-spacing:-.02em;}.s{letter-spacing:-.02em;}.t{fill:#e6e5e5;}.u,.v{fill:#fff;}.w{fill:#e7242c;}.x{fill:#4c4849;}.n,.y{font-family:Arial-Black, Arial Black;font-size:8px;}.y{fill:#221f1f;}.a`{letter-spacing:-.02em;}.aa{letter-spacing:-.04em;}.ab{letter-spacing:-.04em;}.ac{letter-spacing:-.07em;}.ad{font-size:7.79px;}.ae{letter-spacing:-.06em;}.af{letter-spacing:-.06em;}.f{stroke:#2ba3dc;stroke-dasharray:0 5;}.g{stroke-dasharray:0 0 20 .07;}.g,.h{stroke:red;}.ag{font-size:5.46px;}.ah{fill:#b6d233;}.ah,.v,.ai{fill-rule:evenodd;}.aj{letter-spacing:.01em;}</style></defs><line class="h" x1="29.76" y1="53.51" x2="234" y2="53.51"></line><path class="w" d="M35.98,45.59c0,.38-.18,.76-.52,1.12l-.05,.06-3.04,3.2c-.65,.67-1.2,1.2-1.65,1.57-.45,.36-.78,.55-.96,.55-.2,0-.44-.09-.74-.28-.29-.19-.48-.38-.57-.57-.07-.16-.14-.51-.2-1.05-.07-.52-.1-1.1-.1-1.72,0-.34,.14-.65,.43-.94,.28-.29,.59-.43,.93-.43s.52,.3,.58,.89c0,.07,.02,.12,.02,.15,.05,.46,.12,.77,.18,.95,.07,.18,.16,.27,.28,.27,.05,0,.14-.06,.27-.16,.14-.11,.3-.25,.48-.44l3.12-3.09c.26-.26,.49-.46,.71-.59,.21-.13,.38-.2,.53-.2,.11,0,.18,.04,.23,.12,.04,.08,.07,.22,.07,.41v.16Z"></path><g><line class="f" x1="224.59" y1="126.88" x2="222.21" y2="126.88"></line><line class="f" x1="217.55" y1="126.88" x2="33.73" y2="126.88"></line><line class="f" x1="31.4" y1="126.88" x2="29.02" y2="126.88"></line></g><line class="g" x1="29.02" y1="186.53" x2="206.73" y2="186.53"></line><path class="w" d="M35.98,179.56c0,.38-.18,.76-.52,1.12l-.05,.06-3.04,3.2c-.65,.67-1.2,1.2-1.65,1.57-.45,.36-.78,.55-.96,.55-.2,0-.44-.09-.74-.28-.29-.19-.48-.38-.57-.57-.07-.16-.14-.51-.2-1.05-.07-.52-.1-1.1-.1-1.72,0-.34,.14-.65,.43-.94,.28-.29,.59-.43,.93-.43s.52,.3,.58,.89c0,.07,.02,.12,.02,.15,.05,.46,.12,.77,.18,.95,.07,.18,.16,.27,.28,.27,.05,0,.14-.06,.27-.16,.14-.11,.3-.25,.48-.44l3.12-3.09c.26-.26,.49-.46,.71-.59,.21-.13,.38-.2,.53-.2,.11,0,.18,.04,.23,.12,.04,.08,.07,.22,.07,.41v.16Z"></path><path class="w" d="M35.98,119.85c0,.38-.18,.76-.52,1.12l-.05,.06-3.04,3.2c-.65,.67-1.2,1.2-1.65,1.57-.45,.36-.78,.55-.96,.55-.2,0-.44-.09-.74-.28-.29-.19-.48-.38-.57-.57-.07-.16-.14-.51-.2-1.05-.07-.52-.1-1.1-.1-1.72,0-.34,.14-.65,.43-.94,.28-.29,.59-.43,.93-.43s.52,.3,.58,.89c0,.07,.02,.12,.02,.15,.05,.46,.12,.77,.18,.95,.07,.18,.16,.27,.28,.27,.05,0,.14-.06,.27-.16,.14-.11,.3-.25,.48-.44l3.12-3.09c.26-.26,.49-.46,.71-.59,.21-.13,.38-.2,.53-.2,.11,0,.18,.04,.23,.12,.04,.08,.07,.22,.07,.41v.16Z"></path><line class="h" x1="29.76" y1="73.82" x2="197.98" y2="73.82"></line><path class="w" d="M35.98,65.9c0,.38-.18,.76-.52,1.12l-.05,.06-3.04,3.2c-.65,.67-1.2,1.2-1.65,1.57-.45,.36-.78,.55-.96,.55-.2,0-.44-.09-.74-.28-.29-.19-.48-.38-.57-.57-.07-.16-.14-.51-.2-1.05-.07-.52-.1-1.1-.1-1.72,0-.34,.14-.65,.43-.94,.28-.29,.59-.43,.93-.43s.52,.3,.58,.89c0,.07,.02,.12,.02,.15,.05,.46,.12,.77,.18,.95,.07,.18,.16,.27,.28,.27,.05,0,.14-.06,.27-.16,.14-.11,.3-.25,.48-.44l3.12-3.09c.26-.26,.49-.46,.71-.59,.21-.13,.38-.2,.53-.2,.11,0,.18,.04,.23,.12,.04,.08,.07,.22,.07,.41v.16Z"></path><g id="b"><g><polyline class="e" points="225 366.43 225 369 222.43 369"></polyline><line class="d" x1="217.29" y1="369" x2="14.14" y2="369"></line><polyline class="e" points="11.57 369 9 369 9 366.43"></polyline><line class="c" x1="9" y1="361.29" x2="9" y2="14.14"></line><polyline class="e" points="9 11.57 9 9 11.57 9"></polyline><line class="d" x1="16.71" y1="9" x2="219.86" y2="9"></line><polyline class="e" points="222.43 9 225 9 225 11.57"></polyline><line class="c" x1="225" y1="16.71" x2="225" y2="363.86"></line></g></g><g><rect class="t" x="88.23" y="14.14" width="131.64" height="29.69"></rect><g><path class="ai" d="M119.14,28.96c0,7.39-6.03,13.39-13.46,13.39s-13.46-5.99-13.46-13.39,6.03-13.39,13.46-13.39,13.46,5.99,13.46,13.39"></path><path class="ah" d="M117.93,29.03c0,6.72-5.48,12.17-12.24,12.17s-12.24-5.45-12.24-12.17,5.48-12.17,12.24-12.17,12.24,5.45,12.24,12.17"></path><path d="M103.07,26.38c-.17,1.49-.3,2.69-.38,3.59l-.56,.02s.01-.06,.01-.1c0-.07-.02-.16-.08-.27-.05-.11-.08-.18-.09-.21-.15,.02-.28,.12-.42,.3-.13,.18-.25,.27-.36,.26-.06,0-.13-.02-.21-.05-.1,.07-.23,.09-.39,.08-.15-.03-.29-.05-.42-.06,0-.19-.19-.35-.56-.5,0-.08-.04-.19-.11-.34-.08-.15-.12-.25-.12-.31,0-.07,.03-.12,.08-.17,0-.02-.07-.16-.19-.42-.08-.19-.12-.35-.12-.49,0-.1,.03-.2,.07-.29-.06-.64-.09-1.19-.09-1.65,.01-.71,.11-1.36,.31-1.95-.01-.09-.02-.18-.02-.27,0-.48,.17-.8,.49-.99v-.15c.32-.4,.74-.69,1.26-.87,.31,.07,.62,.14,.93,.21,.35,.12,.59,.32,.72,.61,.1,.06,.16,.19,.15,.38,0,.21,.02,.35,.07,.41l-.06,.07c.06,.45,.09,.72,.09,.82,0,.29-.08,.49-.23,.61-.05,0-.19-.05-.42-.14-.06,.05-.11,.08-.17,.08-.03,0-.08-.02-.16-.05-.08-.03-.15-.05-.2-.05-.04,0-.08,0-.11,.02,0-.6,.01-1.04,.06-1.34-.06-.04-.12-.13-.18-.26-.06-.14-.14-.21-.24-.23-.06,.07-.09,.12-.08,.15l-.2-.07c-.19,.2-.31,.55-.37,1.05-.06,.57-.14,.95-.24,1.14,.08,.09,.12,.2,.12,.35,0,.05-.01,.14-.03,.26-.02,.12-.03,.21-.03,.27,0,.07,0,.13,.02,.18l-.14,.13c.06,.26,.09,.58,.1,.98,0,.33,0,.66,0,1,0,0-.07,0-.19,0-.08,0-.13,.02-.16,.08,.05,0,.09,0,.13,0,.17,0,.3,.12,.39,.35,.09,.23,.18,.35,.24,.35,.07,0,.18-.07,.31-.21,.22-.24,.34-.56,.35-.98,0-.2-.02-.42-.07-.66-.05,.03-.08,.11-.08,.22-.12,0-.2,.02-.23,.08-.05-.02-.07-.06-.07-.13,0-.1,.01-.15,.01-.16,.09-.03,.14-.07,.14-.12,0-.02-.01-.07-.05-.13-.03-.06-.05-.11-.05-.15,0-.03,0-.06,.02-.09l.05-.44c.17,.05,.53,.07,1.08,.06-.02,.04,0,.09,.07,.15,.05-.05,.11-.08,.17-.08,.05,0,.11,.02,.2,.06,.09,.04,.16,.06,.19,.06"></path><path d="M107.32,30.28c-.11-.05-.22-.07-.34-.07-.11,0-.25,.02-.43,.06-.2,.04-.35,.07-.42,.07-.08-.16-.14-.38-.17-.66-.06-.41-.1-.64-.11-.69,.02-.04,.03-.08,.03-.11,0-.08-.06-.16-.19-.22-.13-.07-.2-.12-.2-.16,0-.04,.08-.11,.23-.2-.04-.05-.06-.14-.08-.28-.02-.14-.05-.23-.1-.28-.09,.08-.24,.13-.45,.16-.21,.02-.35,.06-.42,.1,0,.59-.09,.98-.29,1.18-.11-.02-.19,.02-.24,.12-.08,.12-.14,.2-.2,.22l.07,.08c-.06,.05-.16,.07-.3,.06-.21-.01-.33-.02-.34-.02l-.06-.2,.74-6.11c0-.38,.03-.65,.06-.78-.01-.34,.07-.55,.24-.63,.1,.07,.24,.11,.4,.11,.13,0,.33-.02,.6-.08,.28-.06,.47-.08,.57-.08,.37,0,.53,.27,.49,.8-.04,.42,.03,.98,.2,1.67,.18,.74,.26,1.3,.26,1.67,0,.11,.04,.35,.02,.46-.16,.09-.37,.14-.62,.16-.22,0-.44,.02-.67,.03-.06-.57-.16-1.27-.22-1.83-.07-.68-.16-1.24-.27-1.68l-.35,3.23c-.03,.28,.1,.42,.38,.42,.09,0,.18-.02,.26-.06,.07-.02,.16,.03,.28,.15,0,.23,.04,.37,.14,.42,.12-.08,.29-.16,.48-.23,.18-.07,.35-.13,.52-.18,.09,.13,.16,.32,.18,.58,.03,.36,.06,.57,.07,.64,.01,.14,.07,.45,.18,.93,.08,.38,.11,.69,.11,.92,0,.11-.01,.22-.03,.32"></path><path d="M112.56,24.89s0,.15,0,.4c0,.2-.03,.34-.08,.44-.06,.15-.09,.36-.09,.64,0,.06,0,.16,0,.28,0,.13,0,.22,0,.28,0,.48-.09,.82-.25,1.04,.01,.12,.02,.24,.02,.36,0,.38-.14,.89-.39,1.52-.07,.02-.13,.03-.17,.03-.09,0-.16-.05-.2-.16-.04-.1-.08-.2-.11-.29,.02-.58,.01-1.43-.04-2.54l.07-.07c-.05-.2-.07-.42-.07-.66,0-.17,.02-.42,.06-.76,.04-.33,.06-.58,.06-.75,0-.1,0-.21,0-.3-.26,.62-.45,1.68-.56,3.16l-.1,.23c-.03,.08-.1,.12-.19,.12-.03-.05-.06-.08-.09-.08-.02,0-.06,.03-.12,.08-.06,.06-.11,.08-.14,.07l-.15,.13c.07,.09,.21,.1,.43,.03,.17-.05,.27,.02,.27,.2,0,.15-.04,.35-.12,.61-.09,.25-.13,.45-.14,.58,0,.09,0,.18,.03,.27l-.79,.12c-.07-.16-.13-.41-.16-.77-.03-.36-.09-.62-.16-.77,.05-.05,.07-.11,.07-.17,0-.05-.02-.13-.06-.24-.05-.11-.07-.18-.08-.24,0-.08-.03-.28-.08-.6-.03-.26-.05-.46-.05-.6,0-.08,0-.14,.02-.2,0-.05-.03-.13-.09-.24-.06-.1-.09-.18-.09-.22,0-.04,.02-.07,.05-.1-.05-.06-.07-.17-.06-.32,.01-.15,0-.26-.06-.32-.11,.29-.17,.69-.18,1.19,0,.69-.01,1.09-.02,1.2l.08,.07-.08,.07c.06,.27,.08,.62,.07,1.04-.02,.76-.03,1.12-.03,1.06-.11,.1-.26,.14-.45,.14-.23,0-.39,.02-.48,.06-.1-.17-.14-.38-.14-.65,0-.2,.04-.45,.1-.75-.1-.19-.15-.45-.15-.79,0-.08,.01-.24,.03-.48,.01-.19,.01-.33,0-.42,.08-.03,.12-.08,.12-.12,0-.03-.02-.08-.07-.15-.05-.07-.07-.13-.07-.17,0-.04,.03-.09,.09-.13l-.24-3.66c.15-.1,.38-.14,.71-.14,.36,.01,.6,0,.73-.05,.02-.02,.05-.02,.08-.02,.03,0,.07,.02,.11,.05,.04,.03,.07,.05,.08,.05,.03,0,.06-.02,.08-.07l.21,.21c.07,.27,.14,.78,.2,1.54,.07,.66,.17,1.15,.31,1.49,.18-.67,.34-1.23,.46-1.68l.25-1.79,1.76-.04c0,.1,.03,.62,.08,.93,.04,.26,.06,.48,.06,.65,0,.19-.03,.36-.09,.51,.06,.08,.09,.19,.08,.32,0,.13-.03,.23-.1,.32"></path><path d="M116.18,28.86h0c-.05,.09-.08,.2-.09,.33,0,.08,0,.2,0,.35,0,.17,0,.29,0,.36-.06,0-.3,0-.73-.01-.26,0-.49,.02-.7,.07l-.21-.23c-.06,.06-.08,.11-.07,.15-.04,0-.21-.01-.52,0-.24,0-.43-.03-.54-.08-.12,.13-.27,.12-.43,0-.06-.04-.07-.12-.02-.23,.05-.11,.03-.19-.04-.25,.01-.24,.05-.61,.1-1.12,.05-.45,.08-.81,.09-1.06,0-.35-.02-.68-.07-1,.08-.08,.18-.12,.29-.12,.12,0,.27,.06,.43,.18,.23,.16,.35,.24,.36,.24l.07,.08s.05-.14,.12-.36c.04-.14,.1-.24,.18-.28l.07,.07s.13-.09,.3-.21c.13-.09,.24-.3,.31-.3,.08,0,.16,.05,.24,.14,.13,.07,.21,.34,.25,.48,.04,.14,.08,.28,.11,.41-.34,0-.62,0-.84-.02-.06,.08-.13,.09-.23,.03-.1-.06-.17-.05-.22,.02,0,.14,0,.38-.01,.73-.01,.32-.02,.57-.01,.75,0,.28,.02,.54,.06,.77,.06,0,.35,0,.86,.02,.36,0,.66,.04,.92,.1m.02-5.42c-.07,0-.14,.01-.23,0-.17,0-.4-.03-.69-.08-.36-.05-.57-.08-.65-.09-.11,.15-.17,.38-.17,.66,0,.62,0,.89,0,.8,.1,.06,.16,.17,.15,.34,0,.23-.01,.34,0,.35-.06,.02-.08,.1-.08,.23-.08-.03-.17-.09-.26-.19-.12-.12-.18,.28-.18,.18l-.07,.23-.07-.07c-.06,0-.16-.03-.31-.1-.15-.07-.25-.14-.31-.2,0-.12,.02-.19,.06-.2l-.15-.16-.07,.1c-.08-.79-.06-2.26,.04-3.09,.29,.05,.6,.08,.95,.1,.24,0,.57,.02,.99,.02,.49,0,.84,0,1.05,0,.09,.09,.13,.2,.13,.33,0,.08-.03,.22-.07,.4-.05,.18-.07,.32-.07,.41"></path><path d="M103.41,35.7h0s-.02,.17-.06,.49c-.02,.2-.07,.36-.15,.48l-.05-.04c-.09,.19-.22,.31-.38,.35-.08,.08-.19,.12-.33,.13-.08,0-.28-.02-.59-.07-.15-.09-.23-.14-.25-.15-.09-.07-.14-.14-.13-.21-.09-.09-.22-.25-.27-.46-.06-.23-.09-.24-.15-.32-.09,.06-.12-.07-.17-.15l.05-.04s-.04-.04-.04-.07c0-.02,0-.05,.02-.08,.02-.03,.03-.06,.02-.08,0-.03-.02-.05-.05-.07,.04-.18,.06-.45,.09-.8,.06-.03,.09-.1,.09-.19,0-.09,0-.15,.04-.18,.14-.29,.38-.48,.71-.58,.02,0,.11,0,.26,0,.11,0,.19,0,.25,.03,.1-.02,.19,0,.29,.07,.08,.06,.17,.13,.25,.19,.16,.17,.25,.36,.26,.58,0,.07,0,.15-.01,.23-.12,0-.2,.07-.25,.23l-.45,.04c-.05-.07-.08-.16-.08-.27,0-.04,0-.1,0-.17,0-.08,0-.13,0-.17,0-.12-.04-.21-.08-.28l-.14,.08c-.05-.02-.08-.05-.08-.1,0-.01,0-.03,0-.06,0-.03,0-.05,0-.06,0-.05-.05-.07-.13-.08-.05,.51-.07,1.03-.05,1.57,.01,.02,.06,.03,.13,.04,.06,0,.09,.02,.09,.05,0,0,0,.02-.01,.04l-.04,.04s.04,.09,.04,.16c0,.04,0,.09,0,.16,0,.07,0,.13,0,.16,0,.11,.03,.19,.08,.24,0,.08,.03,.13,.1,.16,.04-.02,.08-.03,.12-.03,.14,0,.23,.07,.29,.23,0,0,0,.03,0,.08,0,.03,.02,.05,.04,.05,.06-.03,.09-.1,.09-.19,0-.11,.01-.18,.04-.21,0-.05-.04-.12-.09-.22-.05-.09-.08-.17-.08-.22,0-.06,.01-.11,.05-.16-.03,0-.05-.03-.05-.06,0-.05,0-.08,0-.08,.25-.06,.5-.06,.75,0"></path><path d="M105.47,36.12h0c-.03,.05-.04,.13-.03,.22,.01,.13,.02,.21,.02,.21-.02,0-.05,0-.08-.03-.05,.02-.08,.05-.08,.1,0,0,0,.02,.01,.04v.04s0,.07-.03,.08c-.06-.03-.14-.05-.24-.06-.1,0-.19-.02-.28-.03,0-.45-.06-.9-.18-1.33v-.14c0-.07-.02-.11-.06-.14l-.04,.04s.01-.02,.04-.04c.03-.02,.04-.04,.04-.06,0,0,0-.02,0-.03l-.05-.03c-.08,.03-.11,.09-.11,.19,0,.07-.02,.11-.08,.14,.02,.02,.03,.03,.03,.06,0,.01,0,.03,0,.06,0,.02,0,.04,0,.06,0,.03,.02,.05,.05,.07,0,.02,.01,.2,.03,.54,.02,.22,0,.4-.02,.55v.09s-.06,0-.09,0c-.04,0-.1,0-.18,.02-.08,0-.14,.01-.17,.02-.15,0-.26-.02-.32-.08l-.07-1.87c-.03-.09-.05-.22-.06-.38l-.02-.36c-.01-.18-.03-.31-.07-.41,.01-.06,.07-.1,.17-.1,.06,0,.15,0,.25,.02,.05-.02,.12-.04,.2-.04,.03,0,.07,0,.12,0,.06,0,.1,0,.12,0,.16,0,.27-.06,.32-.15,.08,0,.16,.02,.25,.07,.09,.05,.17,.08,.23,.08,.18,.1,.27,.27,.29,.52,0,.05-.02,.26-.07,.63l-.3,.26c.05,.09,.11,.3,.19,.61,.06,.26,.15,.46,.28,.58m-.56-2.12h0s0-.05,0-.24c0-.09-.04-.15-.1-.19-.04,.05,0,.07-.01,.18-.02,.11-.08,.08-.12,.13-.1,0-.13,.06-.15-.04-.05-.16-.09-.15-.09-.15l-.05,.03s-.03,.03-.05,.05c-.02,.02-.04,.02-.06,.02,0,.02,0,.05-.03,.1-.02,.04-.03,.07-.03,.09,0,.03,.03,.05,.07,.07,0,.07,0,.14,0,.21,0,.04,.01,.13,.03,.27,.02,.11,.03,.21,.02,.29,.04,0,.07,0,.11,0,.15,0,.24-.07,.28-.17,.01-.03,.03-.14,.05-.33,.02-.14,.06-.24,.13-.3"></path><path d="M107.84,36.84c-.06-.02-.12-.02-.19-.02-.06,0-.14,.02-.23,.04-.11,.03-.19,.04-.23,.05-.05-.07-.09-.16-.12-.28-.05-.18-.08-.28-.09-.3,0-.02,.02-.04,.02-.05,0-.04-.04-.07-.12-.09-.07-.02-.11-.05-.11-.06,0-.02,.04-.05,.12-.1-.02-.02-.04-.06-.05-.12-.01-.06-.03-.1-.07-.12-.05,.04-.13,.07-.24,.09-.11,.02-.19,.04-.22,.06,.02,.26,0,.71-.1,.81-.06,0-.1,.01-.13,.06-.04,.06-.07,.09-.1,.11l.04,.03s-.09,.04-.16,.04c-.12,0-.18,0-.19,0l-.04-.09,.17-3c0-.17,0-.29,0-.35-.02-.15,.02-.25,.11-.29,.06,.03,.13,.04,.22,.03,.07,0,.18-.02,.33-.06,.15-.03,.25-.05,.31-.06,.2-.01,.3,.1,.29,.33,0,.19,.05,.43,.17,.73,.12,.32,.19,.56,.2,.72,0,.05,.07,.16,.07,.21-.08,.04-.2,.08-.33,.09-.12,.01-.24,.03-.37,.04-.05-.25-.17-.56-.22-.8-.06-.3-.13-.54-.21-.73l-.08,1.44c0,.12,.07,.18,.22,.17,.05,0,.1-.01,.14-.04,.04-.01,.09,0,.16,.06,0,.1,.04,.16,.09,.18,.06-.04,.15-.08,.25-.12,.09-.04,.19-.07,.28-.1,.06,.05,.1,.13,.12,.25,.03,.16,.05,.25,.06,.28,.01,.06,.06,.2,.13,.4,.06,.16,.09,.3,.09,.4,0,.05,0,.1,0,.14"></path><path d="M109.56,33.44h0c-.05,.07-.11,.09-.19,.04-.02,0-.09,0-.23,.01-.11,0-.19,0-.24-.02-.01,0-.04,.01-.07,.04-.04,.02-.06,.04-.08,.04-.02,0-.04-.02-.04-.06,0,0,0-.03,0-.08,0-.03-.02-.06-.05-.07l-.08,.06s-.04,.04-.03,.06c0,.02,.01,.04,.04,.07,.03,.03,.04,.05,.05,.07,0,0,.01,.16,.03,.45,0,.18,.04,.33,.1,.44,.01-.02,.05-.03,.11-.03,.06,0,.1-.01,.12-.04,.04,.03,.1,.04,.2,0,.09-.03,.16-.02,.2,.03v.44s-.1-.02-.18-.05c-.02,.06-.06,.11-.12,.12-.02,0-.1,.02-.21,.02,0-.02-.02-.04-.06-.06-.11,.05-.15,.18-.13,.38,0-.02,0,.01,.01,.11,0,.06,0,.1-.04,.12-.07,0-.16,0-.27-.05-.11-.04-.19-.06-.23-.06-.02,0-.04,0-.06,0l-.12,.04-.19-2.02-.02-.38c.16-.05,.35-.09,.58-.1,.18-.01,.41-.01,.7,0,.02-.04,.05,.01,.1,.01,.02,0,.05,0,.09,0,.04,0,.07,0,.09,0,.03,0,.05,0,.07-.01l.03-.03c.08,.03,.13,.07,.13,.13,0,.03,0,.07-.02,.13-.02,.07-.02,.11-.02,.15,0,.03,0,.06,.02,.08m-.73,3.37s-.11,.04-.2,.04c-.12,0-.19,.01-.22,.02-.01-.01-.03,0-.06-.11-.02-.07-.06-.1-.13-.1-.02,0-.04,0-.06,0h-.11l-.06-1.02c.06-.03,.14-.05,.23-.05,.09,0,.16,0,.23,.03,0,.04,.05,.05,.16,.05h.12c.07,.28,.12,.8,.1,1.13"></path><path d="M112.06,33.53h0c-.06,0-.25,.01-.39,.03-.13,.01-.22,.02-.28,0-.06,.04-.08,.1-.07,.16l.04,.02s-.04,.05-.04,.07l.04,.03c0,.59,0,.92,0,.98,0,.16,.03,.3,.06,.41-.03,.07-.03,.16-.03,.26,0,.06,.02,.16,.04,.3,.03,.14,.06,.59,.07,.66,0,.05,0,.1,0,.15-.06,.02-.12,.04-.19,.04-.11,0-.23-.02-.36-.07-.02,.02-.03,.03-.05,.05-.02,.02-.03,.03-.02,.05-.04,.01-.1,0-.17-.05-.04-.6-.15-1.82-.31-3.05-.06,.05-.16,0-.27,.02-.13,.01-.25,0-.3,.02-.06-.07-.05-.09-.06-.2,0-.11-.04-.37-.01-.48,0-.02,.24,0,.37-.02,.19-.01,.23,.03,.24,.03,.02-.02,.11-.01,.18-.01,.04,.02,.09-.02,.09,0,0,.02,0,.15-.01,.18-.01,.04-.02,.06-.02,.08,0,.04,.03-.02,.1,0,.07,0,.15,0,.23,0,.09,0,.19-.02,.18,.05,.01-.02,.02,.02,.15-.03,.09-.04,.15-.15,.13-.23,0-.04,.05-.07,.01-.05,.05-.02,0,0,.05-.03,.16,.01,.24,0,.27,0,.06,0,.22,.04,.26,.01,.03,.06,.05,.24,.05,.34,0,.16,0,.25,0,.26"></path><path d="M114.08,35.61h0s-.03,.09-.03,.15c0,.04,0,.09,.01,.16,0,.08,.01,.13,.01,.16-.03,0-.17,0-.4,.02-.14,0-.27,.03-.38,.06l-.12-.09s-.04,.05-.03,.07c-.02,0-.12,0-.29,.02-.13,0-.23,0-.3-.01-.06,.06-.14,.07-.24,.01-.03-.02-.04-.05-.02-.1,.02-.05,.01-.08-.03-.1,0-.11,0-.27,.02-.5,.01-.2,.02-.36,0-.47,0-.16-.04-.3-.08-.44,.04-.04,.09-.06,.15-.06,.07,0,.15,.02,.24,.06,.13,.06,.2,.09,.21,.09l.04,.03s.02-.06,.05-.16c.02-.06,.04-.11,.08-.13l.04,.03s.07-.04,.16-.11c.07-.04,.11-.2,.16-.21,.04,0,.09,.01,.13,.05,.07,.03,.13,.21,.16,.27,.03,.06,.05,.12,.08,.18-.19,.02-.34,.03-.46,.02-.03,.04-.07,.05-.12,.02-.06-.02-.09-.01-.12,.02,0,.06,.01,.17,.02,.32,0,.14,0,.25,.02,.33,0,.12,.03,.24,.06,.34,.03,0,.19-.01,.47-.03,.2,0,.36,0,.51,0m-.19-2.35s-.08,0-.12,.01c-.1,0-.22,0-.38,0-.2,0-.32-.01-.36-.02-.05,.07-.06,.13-.05,.26,.02,.27,.03,.39,.03,.36,.06,.02,.09,.07,.1,.15,0,.1,0,.15,0,.15-.03,.01-.04,.05-.04,.1-.05,0-.09-.04-.15-.07-.07-.05-.09,.12-.09,.07l-.03,.1-.04-.03s-.09,0-.17-.03c-.08-.02-.14-.05-.18-.07,0-.05,0-.08,.02-.09l-.08-.07-.03,.05c-.07-.34-.12-.95-.1-1.32,.16,0,.35-.02,.54-.03,.13,0,.31-.01,.54-.03,.27-.02,.46-.03,.57-.04,.05,.03,.08,.08,.08,.14,0,.04,0,.1-.02,.18-.02,.08-.04,.19-.04,.23"></path><path d="M116.16,35.26h0c-.03,.05-.04,.13-.03,.22,.01,.14,.02,.21,.02,.21-.02,0-.05,0-.08-.03-.05,.02-.08,.05-.08,.1,0,0,0,.02,0,.04,0,.02,0,.03,0,.04,0,.04,0,.06-.03,.08-.06-.03-.14-.06-.24-.06-.1,0-.19-.02-.28-.03,0-.45-.06-.9-.18-1.33,0,0,0-.04,0-.14,0-.07-.01-.12-.05-.14l-.04,.04s.01-.02,.04-.04c.03-.02,.04-.04,.04-.06,0,0,0-.02,0-.03l-.05-.03c-.08,.02-.11,.09-.11,.19,0,.07-.02,.11-.08,.14,.02,.02,.03,.04,.04,.06,0,.01,0,.03,0,.05,0,.02,0,.04,0,.06,0,.03,.02,.05,.05,.07,0,.02,.01,.2,.03,.54,.01,.22,0,.4-.02,.55v.08s-.06,0-.1,0c-.04,0-.1,0-.18,.02-.08,0-.14,.02-.17,.02-.15,0-.26-.02-.32-.08l-.07-1.86c-.03-.09-.05-.22-.06-.38l-.02-.36c-.01-.18-.04-.31-.07-.41,.01-.06,.07-.1,.17-.1,.06,0,.15,0,.25,.02,.05-.02,.12-.04,.2-.04h.12c.06,0,.1,0,.12,0,.16,0,.27-.06,.32-.15,.07,0,.16,.02,.25,.07,.09,.05,.17,.07,.23,.08,.18,.11,.27,.28,.29,.52,0,.05-.02,.26-.06,.63l-.3,.26c.05,.1,.11,.3,.18,.62,.06,.26,.16,.46,.28,.58m-.56-2.12h0s0-.05,0-.24c0-.09-.04-.15-.1-.19-.03,.05-.04-.07-.06,.05-.02,.11-.04,.19-.08,.24-.1,0-.13-.06-.19-.15-.04-.06-.06,0-.06,0l-.03,.02s-.03,.03-.06,.05c-.02,.02-.04,.02-.06,.02,0,.02-.01,.05-.03,.1-.02,.04-.03,.07-.03,.09,0,.03,.02,.05,.07,.07,0,.07,0,.14,0,.21,0,.04,.01,.13,.03,.27,.02,.11,.03,.21,.02,.29,.04,0,.07,0,.11,0,.14,0,.24-.07,.28-.17,.01-.03,.03-.14,.05-.33,.02-.15,.06-.25,.13-.3"></path><path d="M95.46,26.66h0c-.02,.18-.02,.3-.02,.36-.03,0-.06,.01-.1,0-.06,0-.09-.01-.1-.01-.02,0-.04,0-.06,.02-.03-.02-.06-.03-.07-.03-.03,.02-.05,.05-.05,.08,0,.02,0,.04,.02,.08,.01,.04,.02,.06,.02,.08,0,.02,0,.06-.02,.11-.01,.05-.02,.09-.02,.13,0,.04,.01,.1,.03,.19,.01,.08,.02,.15,.02,.19-.02,.08-.02,.16-.02,.25,0,.1,.03,.24,.08,.41,.01,0,.02,0,.03,0,.02,0,.05-.02,.08-.04,.03-.03,.05-.04,.07-.04,.01,0,.03,0,.05,0,.06,.18,.08,.29,.09,.34,0,.02,0,.05,0,.08-.08,.02-.14,0-.17-.08,0-.02,0-.04-.04-.07l-.09,.1c.09,.01,.12,.08,.1,.2,0,.02-.03,.04-.05,.04-.05,0-.08,0-.07,0l-.08-.13-.03,.04c-.03-.06-.05-.09-.09-.09-.02,0-.05,.02-.1,.05-.05,.03-.08,.04-.11,.05-.02,0-.05,0-.07-.02,0-.04,0-.07-.01-.11,0-.04-.02-.06-.06-.08,0-.09,0-.34,0-.74,0-.3,0-.55,0-.73,0-.08,0-.16-.02-.23-.02-.02-.03-.03-.05-.03-.01,0-.03,.02-.05,.04-.03,.03-.05,.04-.06,.03,0-.03-.02-.08-.04-.14-.02-.07-.04-.11-.04-.14,0-.05,.02-.1,.06-.14l.11,.03c.04-.06,.06-.16,.05-.3,0-.03,0-.07-.01-.13,0-.06,0-.1-.01-.13-.01-.23,.06-.35,.22-.36,.06,0,.13,0,.21,.03l.1,.03s.01,.08,.02,.12c0,.06,0,.14,0,.25-.01,.11-.01,.19-.01,.24,0,.08,.02,.15,.04,.22,.02,0,.06-.01,.11-.04,.05-.03,.09-.04,.11-.04,.04,0,.08,.02,.1,.06m-.32,.32v-.1l-.04-.03,.04,.13Z"></path><path d="M96.71,26.33h0c-.01,.08-.02,.17-.04,.25-.02,.09-.05,.17-.08,.22,0,0-.04-.02-.11-.05-.05-.02-.09-.03-.12-.03-.03,.18-.04,.42-.04,.72,0,.39,0,.63-.01,.71-.05,0-.08,0-.1,.04-.02,.03-.05,.07-.06,.1-.01,.02-.01,.03-.01,.05,0,.02,.02,.05,.06,.07,.04,.02,.06,.05,.06,.07-.02,.07-.06,.1-.11,.1-.03,0-.07,0-.14-.02-.07-.02-.11-.03-.14-.02l-.06-1.29s.03-.06,.03-.07l-.04-.03c0-.05,0-.32,0-.81,0-.33,.01-.6,.04-.8,0,0,.09,0,.28-.02,.12,0,.2,.03,.23,.1,0,.07,0,.18-.02,.34-.01,.14-.02,.26-.01,.33,0,.1,.02,.18,.05,.26,.1-.14,.22-.21,.36-.22m.45,.28c0,.12,.02,.24,.02,.35,.03,.5,.02,1.04-.02,1.61-.04,.04-.11,.05-.2,.03-.09-.02-.16-.01-.2,.02-.05-.07-.08-.19-.09-.36-.01-.25-.02-.39-.02-.4-.01-.63,.05-1.15,.19-1.54,.16,.04,.26,.14,.32,.28"></path><path d="M98.76,27.27s-.03,.08-.03,.13c0,.05,0,.09,0,.13,0,.04-.01,.07-.03,.11-.03,0-.05,0-.07,0-.02,0-.04,0-.06,.02-.02,.02-.04,.02-.05,.02-.02,0-.04,0-.07-.02l-.21-.31c0,.09,.03,.17,.06,.24,.01,.03,.03,.07,.05,.11-.12,.02-.19,.02-.21,0l-.03,.04-.07-.1c-.06,.07-.07,.17-.04,.31,.04,.15,.04,.25,0,.32,.05,.07,.1,.1,.16,.1,.03,0,.05,0,.07-.03,.03-.08,.06-.15,.09-.22,.05-.09,.1-.14,.15-.14,.04,0,.09,.02,.15,.07,.07,.02,.1,.06,.1,.1,0,.02-.01,.06-.05,.12-.03,.06-.05,.1-.05,.13,0,.01,0,.02,0,.03-.05,.03-.08,.08-.12,.14-.03,.07-.08,.11-.14,.13-.05,.05-.1,.07-.14,.08-.03,0-.08-.02-.15-.08-.06-.05-.13-.08-.18-.07-.02-.05-.08-.11-.18-.18-.09-.07-.15-.13-.17-.21,0,0,0-.02,0-.07,0-.03-.02-.05-.04-.06l.04-.03s-.07-.03-.07-.08c0,0,0-.02,0-.04,0-.01,0-.03,0-.04,0-.04-.01-.06-.03-.08v-.16c-.01-.08-.03-.14-.06-.17,.03-.19,.06-.38,.09-.57,.05-.22,.12-.34,.22-.34,.01,0,.03,0,.04,0,.09-.09,.19-.13,.32-.14,.14,0,.29,.04,.45,.12,.13,.21,.21,.44,.24,.69m-.63-.5l-.03,.04s-.04,0-.07-.03v.1c-.04,.05-.06,.13-.05,.23,0,.18,.01,.27,.01,.26h.14c.07-.04,.09-.1,.09-.18,0-.04-.02-.11-.04-.21-.03-.1-.04-.17-.04-.21"></path><polygon class="ai" points="99.82 31.83 99.96 31.9 100.42 30.7 100.27 30.65 99.81 31.85 99.94 31.94 99.82 31.83"></polygon><polygon class="ai" points="100.02 31.66 99.97 31.68 99.82 31.83 99.94 31.94 100.09 31.78 100.03 31.81 100.02 31.66"></polygon><polygon class="ai" points="101.14 31.65 101.2 31.6 100.02 31.66 100.03 31.81 101.21 31.75 101.28 31.7 101.14 31.65"></polygon><polygon class="ai" points="101.67 30.55 101.59 30.45 101.14 31.65 101.28 31.7 101.74 30.5 101.66 30.4 101.67 30.55"></polygon><polygon class="ai" points="100.55 30.59 100.49 30.61 101.67 30.55 101.66 30.4 100.49 30.45 100.43 30.48 100.55 30.59"></polygon><polygon class="ai" points="100.42 30.7 100.4 30.73 100.55 30.59 100.43 30.48 100.28 30.63 100.27 30.65 100.42 30.7"></polygon><polygon class="ai" points="101.4 31.79 101.5 31.75 101.25 31.61 101.17 31.75 101.43 31.89 101.54 31.84 101.39 31.79 101.4 31.79"></polygon><polygon class="ai" points="101.89 30.69 101.85 30.59 101.39 31.79 101.54 31.84 102 30.64 101.96 30.55 101.89 30.69"></polygon><polygon class="ai" points="101.74 30.5 101.63 30.55 101.89 30.68 101.96 30.55 101.71 30.41 101.59 30.45 101.74 30.5"></polygon><polygon points="100.35 30.68 100.34 30.68 100.48 30.53 101.58 30.48 101.59 30.45 101.67 30.48 101.74 30.5 101.74 30.51 101.93 30.62 102 30.64 101.97 30.72 102.5 31.98 102.05 33.18 101.47 31.82 101.39 31.85 101.39 31.79 101.4 31.78 101.21 31.67 101.17 31.75 101.14 31.68 100.02 31.73 99.88 31.88 100.35 30.68"></polygon><polygon class="ai" points="101.98 33.16 102.13 33.15 101.54 31.79 101.39 31.85 101.98 33.22 102.13 33.21 101.97 33.16 101.98 33.16"></polygon><polygon class="ai" points="102.44 32.02 102.43 31.96 101.97 33.16 102.13 33.21 102.58 32.01 102.58 31.95 102.44 32.02"></polygon><polygon class="ai" points="102 30.64 101.85 30.65 102.44 32.02 102.58 31.95 101.99 30.59 101.85 30.59 102 30.64"></polygon><polygon class="v" points="101.96 30.95 102.03 31.09 102.05 31.24 102.04 31.38 102 31.53 101.93 31.67 101.83 31.8 101.7 31.92 101.55 32.02 101.46 32.06 101.38 32.09 101.28 32.11 101.19 32.13 101.11 32.14 101.02 32.15 100.93 32.14 100.84 32.13 100.77 32.12 100.69 32.09 100.61 32.06 100.54 32.02 100.49 31.97 100.42 31.93 100.37 31.87 100.32 31.81 100.26 31.66 100.23 31.52 100.23 31.38 100.28 31.23 100.35 31.09 100.45 30.95 100.58 30.84 100.74 30.74 100.82 30.7 100.91 30.67 101 30.65 101.08 30.63 101.17 30.62 101.26 30.6 101.35 30.62 101.43 30.62 101.51 30.65 101.59 30.67 101.67 30.7 101.74 30.74 101.8 30.78 101.86 30.83 101.91 30.89 101.96 30.95"></polygon><polygon class="ai" points="102.02 31.19 102.09 31.33 102.11 31.48 102.1 31.62 102.06 31.76 101.99 31.91 101.89 32.04 101.77 32.16 101.6 32.25 101.52 32.3 101.43 32.34 101.35 32.35 101.25 32.37 101.17 32.38 101.08 32.39 101 32.38 100.9 32.37 100.83 32.35 100.75 32.33 100.68 32.29 100.6 32.25 100.54 32.22 100.49 32.17 100.43 32.12 100.38 32.04 100.31 31.91 100.29 31.76 100.3 31.61 100.34 31.47 100.4 31.33 100.5 31.2 100.63 31.08 100.79 30.98 100.88 30.94 100.96 30.91 101.05 30.88 101.15 30.86 101.23 30.86 101.32 30.85 101.4 30.86 101.49 30.86 101.57 30.88 101.65 30.91 101.72 30.94 101.8 30.98 101.86 31.02 101.92 31.07 101.97 31.13 102.02 31.19 102.02 31.19"></polygon><polygon class="v" points="102.06 31.35 102.13 31.49 102.15 31.64 102.14 31.78 102.1 31.92 102.03 32.07 101.93 32.2 101.81 32.32 101.65 32.42 101.57 32.46 101.48 32.49 101.39 32.51 101.29 32.53 101.21 32.54 101.13 32.55 101.04 32.54 100.95 32.53 100.87 32.51 100.79 32.48 100.72 32.45 100.65 32.41 100.59 32.38 100.52 32.32 100.48 32.27 100.42 32.2 100.36 32.07 100.33 31.92 100.34 31.78 100.38 31.63 100.45 31.49 100.55 31.35 100.68 31.24 100.84 31.14 100.93 31.1 101.01 31.06 101.1 31.04 101.19 31.03 101.28 31.01 101.36 31.01 101.45 31.01 101.53 31.03 101.61 31.04 101.69 31.07 101.77 31.1 101.84 31.14 101.9 31.18 101.97 31.23 102.01 31.29 102.06 31.35"></polygon><polygon class="ai" points="102.12 31.59 102.18 31.73 102.21 31.88 102.21 32.02 102.16 32.17 102.1 32.31 101.99 32.44 101.87 32.56 101.71 32.66 101.63 32.7 101.53 32.73 101.45 32.75 101.36 32.77 101.27 32.78 101.18 32.79 101.1 32.78 101.01 32.77 100.93 32.75 100.85 32.73 100.78 32.7 100.7 32.66 100.64 32.61 100.59 32.57 100.53 32.51 100.48 32.45 100.42 32.31 100.39 32.16 100.4 32.02 100.44 31.87 100.51 31.73 100.61 31.6 100.74 31.48 100.9 31.38 100.98 31.34 101.07 31.3 101.16 31.29 101.25 31.27 101.33 31.26 101.42 31.25 101.51 31.26 101.59 31.26 101.67 31.28 101.75 31.31 101.83 31.34 101.9 31.38 101.96 31.42 102.02 31.47 102.08 31.53 102.12 31.6 102.12 31.59"></polygon><polygon class="v" points="102.2 31.75 102.27 31.88 102.3 32.03 102.29 32.18 102.26 32.32 102.18 32.46 102.07 32.6 101.95 32.71 101.8 32.81 101.71 32.85 101.62 32.89 101.53 32.91 101.44 32.93 101.35 32.94 101.27 32.94 101.18 32.94 101.1 32.92 101.01 32.9 100.93 32.88 100.86 32.85 100.79 32.81 100.73 32.77 100.67 32.72 100.62 32.66 100.58 32.6 100.51 32.46 100.48 32.31 100.49 32.17 100.53 32.03 100.6 31.88 100.7 31.75 100.83 31.64 100.98 31.53 101.07 31.49 101.15 31.45 101.25 31.44 101.34 31.42 101.42 31.41 101.51 31.41 101.6 31.41 101.68 31.42 101.76 31.44 101.85 31.47 101.91 31.5 101.99 31.53 102.05 31.58 102.11 31.63 102.16 31.68 102.2 31.75"></polygon><polygon class="ai" points="102.27 31.99 102.33 32.13 102.36 32.27 102.35 32.42 102.31 32.56 102.24 32.7 102.14 32.83 102.01 32.95 101.85 33.05 101.77 33.09 101.68 33.12 101.59 33.14 101.5 33.16 101.42 33.17 101.33 33.18 101.24 33.17 101.15 33.17 101.08 33.15 100.99 33.12 100.92 33.09 100.85 33.05 100.79 33 100.73 32.96 100.68 32.9 100.63 32.84 100.56 32.7 100.53 32.55 100.54 32.41 100.59 32.26 100.65 32.12 100.76 31.99 100.88 31.87 101.05 31.77 101.12 31.73 101.22 31.7 101.3 31.68 101.39 31.66 101.48 31.65 101.57 31.64 101.65 31.65 101.73 31.66 101.82 31.68 101.9 31.7 101.97 31.73 102.04 31.77 102.11 31.82 102.16 31.86 102.22 31.92 102.27 31.99"></polygon><polygon class="ai" points="94.24 30.14 94.25 30.1 93.79 31.3 93.94 31.35 94.4 30.15 94.4 30.11 94.24 30.14"></polygon><polygon class="ai" points="94.23 30.08 94.24 30.08 94.24 30.14 94.4 30.11 94.38 30.04 94.39 30.04 94.23 30.08"></polygon><polygon class="ai" points="94.22 30.01 94.23 30.08 94.39 30.04 94.37 29.97 94.22 30.01"></polygon><rect x="94.2" y="29.93" width=".16" height=".07" transform="translate(-4.62 27.9) rotate(-16.44)"></rect><polygon class="ai" points="94.18 29.88 94.18 29.88 94.2 29.95 94.35 29.91 94.33 29.83 94.33 29.84 94.18 29.88"></polygon><polygon class="ai" points="94.16 29.79 94.16 29.82 94.18 29.88 94.33 29.84 94.31 29.78 94.32 29.81 94.16 29.79"></polygon><polygon class="ai" points="94.32 29.76 94.16 29.74 94.16 29.79 94.32 29.81 94.32 29.75 94.17 29.72 94.31 29.77 94.32 29.76"></polygon><rect class="x" x="94.28" y="33.21" width=".17" height=".08" transform="translate(-4.66 18.98) rotate(-11.21)"></rect><polygon class="ai" points="94.79 32.27 94.79 32.23 94.33 33.43 94.48 33.48 94.94 32.28 94.93 32.24 94.79 32.27"></polygon><polygon class="ai" points="94.77 32.19 94.79 32.27 94.93 32.24 94.92 32.15 94.77 32.18 94.77 32.19"></polygon><polygon class="ai" points="94.75 32.11 94.77 32.18 94.92 32.15 94.9 32.07 94.75 32.11"></polygon><polygon class="ai" points="94.73 32.02 94.74 32.03 94.75 32.11 94.9 32.07 94.89 31.99 94.89 32 94.73 32.02"></polygon><polygon class="ai" points="94.88 31.95 94.72 31.93 94.73 32.02 94.89 32 94.88 31.91 94.72 31.9 94.88 31.95"></polygon><path class="x" d="M93.79,31.07l-.07,.02,.07-.02Z"></path><polygon class="x" points="93.87 31.32 93.87 31.31 93.91 31.31 93.94 31.35 93.87 31.33 93.87 31.32"></polygon><polygon points="93.7 31.02 93.78 31 93.78 30.95 94.24 29.74 94.24 29.75 94.24 29.8 94.25 29.86 94.28 29.93 94.3 29.99 94.31 30.06 94.33 30.12 94.4 30.15 93.94 31.35 93.91 31.31 93.87 31.31 93.87 31.32 93.87 31.33 93.94 31.35 93.87 31.35 93.87 31.4 93.82 31.35 93.79 31.34 93.78 31.28 93.81 31.27 93.83 31.19 93.76 31.21 93.73 31.16 93.72 31.09 93.79 31.07 93.72 31.09 93.72 31.08 93.7 31.02"></polygon><polygon points="93.87 31.25 97.25 31.14 97.33 31.14 97.35 31.15 97.43 31.17 97.44 31.17 97.52 31.2 97.61 31.24 97.62 31.24 97.7 31.29 97.71 31.29 97.78 31.35 97.79 31.36 97.84 31.42 97.84 31.43 97.88 31.48 97.88 31.49 97.73 31.54 97.71 31.5 97.7 31.51 97.67 31.45 97.67 31.45 97.61 31.41 97.63 31.43 97.55 31.38 97.55 31.38 97.46 31.35 97.39 31.32 97.3 31.3 97.32 31.31 97.24 31.3 97.24 31.29 93.87 31.4 93.87 31.25"></polygon><polygon points="97.73 31.54 97.73 31.54 97.74 31.55 97.73 31.54"></polygon><polygon class="ai" points="99.53 34.36 99.53 34.31 99.07 35.52 99.22 35.57 99.68 34.36 99.68 34.31 99.53 34.36"></polygon><polygon class="ai" points="98.2 30.35 98.19 30.33 99.53 34.36 99.68 34.31 98.34 30.29 98.34 30.27 98.2 30.35"></polygon><polygon class="ai" points="98.17 30.31 98.17 30.3 98.2 30.35 98.34 30.27 98.31 30.22 98.3 30.22 98.16 30.31 98.17 30.31"></polygon><polygon class="ai" points="98.14 30.26 98.13 30.25 98.16 30.31 98.3 30.22 98.25 30.15 98.24 30.14 98.14 30.26"></polygon><polygon class="ai" points="98.09 30.23 98.07 30.22 98.14 30.26 98.24 30.14 98.17 30.09 98.16 30.08 98.09 30.23"></polygon><polygon class="ai" points="98.01 30.18 98.01 30.18 98.09 30.23 98.16 30.08 98.08 30.04 98.07 30.04 98.01 30.18"></polygon><polygon class="ai" points="97.94 30.15 97.92 30.15 98.01 30.18 98.07 30.04 97.98 30 97.98 30 97.92 30.15 97.94 30.15"></polygon><polygon class="ai" points="97.85 30.12 97.84 30.12 97.92 30.15 97.98 30 97.89 29.97 97.84 30.12 97.85 30.12"></polygon><polygon class="ai" points="97.78 30.1 97.77 30.1 97.84 30.12 97.89 29.97 97.8 29.95 97.79 29.95 97.78 30.1"></polygon><polygon class="ai" points="97.7 30.09 97.7 30.1 97.78 30.1 97.79 29.95 97.71 29.93 97.7 29.94 97.7 30.09"></polygon><polygon class="ai" points="94.41 30.15 94.32 30.2 97.7 30.09 97.7 29.94 94.33 30.05 94.25 30.1 94.4 30.15 94.41 30.15"></polygon><polygon class="x" points="95.26 33.81 95.24 33.81 95.25 33.81 95.26 33.81"></polygon><path class="x" d="M97.08,34.36v0Z"></path><path d="M94.28,33.31v.08l.04,.08,.04,.06,.21,.11,.21,.11,.2,.11,.2,.1h0l.2,.1,.2,.09,.22,.09,.22,.08h0l.24,.07,.24,.06h0l.26,.04,.27,.04h0l.29,.02h.66l.35-.02,.07-.05,.46-1.2-.08-.11v.15l-.02-.03,.02-.04h-.05l-.02-.02v.03l-.27,.02h-.65l-.29-.02-.28-.04-.26-.04-.24-.06-.24-.06-.22-.08-.22-.08-.2-.09-.2-.1-.21-.1-.2-.11-.2-.11-.14-.07h0l-.07-.04-.02-.09v-.08l-.02-.03,.06-.12-.08-.02h0l-.07-.03-.46,1.2v.12l.02,.09Zm.05-.19h0Z"></path><polygon class="ai" points="98.48 33.33 98.83 33.31 98.83 33.16 98.47 33.18 98.48 33.33"></polygon><rect x="98.14" y="33.18" width=".33" height=".15" transform="translate(-.75 2.3) rotate(-1.34)"></rect><polygon class="ai" points="97.82 33.33 97.83 33.33 98.14 33.34 98.14 33.19 97.82 33.18 97.83 33.18 97.82 33.34 97.82 33.33"></polygon><polygon class="ai" points="97.52 33.31 97.53 33.31 97.82 33.34 97.83 33.18 97.54 33.16 97.55 33.16 97.52 33.31"></polygon><polygon class="ai" points="97.25 33.28 97.52 33.31 97.55 33.16 97.28 33.12 97.25 33.28"></polygon><polygon class="ai" points="96.98 33.23 96.99 33.23 97.25 33.28 97.28 33.12 97.01 33.08 97.01 33.08 96.98 33.23"></polygon><polygon class="ai" points="96.74 33.17 96.98 33.23 97.01 33.08 96.78 33.02 96.74 33.17 96.74 33.17"></polygon><polygon class="ai" points="96.5 33.11 96.5 33.11 96.74 33.17 96.78 33.02 96.54 32.96 96.55 32.96 96.5 33.11"></polygon><polygon class="ai" points="96.27 33.03 96.27 33.03 96.5 33.11 96.55 32.96 96.32 32.88 96.33 32.88 96.26 33.03 96.27 33.03"></polygon><polygon class="ai" points="96.05 32.94 96.26 33.03 96.33 32.88 96.12 32.79 96.05 32.94"></polygon><polygon class="ai" points="95.85 32.85 96.05 32.94 96.12 32.79 95.91 32.71 95.85 32.85"></polygon><polygon class="ai" points="95.64 32.75 95.64 32.75 95.85 32.85 95.91 32.71 95.7 32.6 95.71 32.61 95.64 32.75 95.64 32.75"></polygon><polygon class="ai" points="95.44 32.65 95.64 32.75 95.71 32.61 95.51 32.51 95.44 32.65 95.44 32.65"></polygon><polygon class="ai" points="95.24 32.54 95.44 32.65 95.51 32.51 95.31 32.4 95.23 32.54 95.24 32.54"></polygon><polygon class="ai" points="95.03 32.43 95.23 32.54 95.31 32.4 95.11 32.3 95.03 32.43"></polygon><polygon class="ai" points="94.94 32.28 94.82 32.32 95.03 32.43 95.11 32.3 94.9 32.19 94.79 32.23 94.94 32.28"></polygon><polygon class="ai" points="115.98 30.11 115.52 31.31 117.02 31.81 117.37 31.01 117.38 30.93 117.39 30.85 117.37 30.77 117.34 30.69 117.3 30.62 117.26 30.54 117.19 30.46 117.13 30.39 117.06 30.33 116.99 30.26 116.91 30.21 116.83 30.16 116.76 30.12 116.67 30.08 116.6 30.04 116.52 30.02 116.46 29.99 116.38 29.98 116.31 29.98 116.24 29.99 116.18 30 116.1 30.02 116.04 30.06 115.98 30.11"></polygon><polygon class="ai" points="116.95 31.77 117.05 31.73 115.54 31.23 115.49 31.38 117 31.89 117.1 31.85 116.95 31.77"></polygon><polygon points="93.7 30.95 93.71 30.92 94.17 29.72 94.31 29.77 93.87 30.96 93.86 31.01 93.86 30.99 93.7 31.02 93.7 31 93.7 30.95"></polygon><polygon class="x" points="101.09 33.78 101.06 33.8 101.06 33.8 101.09 33.78"></polygon><path d="M93.76,31.21l.02,.07h0l.12-.03-.03,.08,3.38-.11h.08l.09,.03,.09,.03,.09,.03,.08,.05,.06,.05,.05,.05,.03,.06-.08,.02,1.35,4.02h.08v.05h.34l.1-.02,.1-.02,.1-.05,.09-.07,.11-.1h0l.06-.09,.07-.09,.08-.09,.06-.09,.07-.11,.07-.1,.06-.11,.08-.11,.06-.09,.09-.1,.07-.1,.09-.08,.07-.08,.08-.07,.08-.06,.09-.05h.02l-.06-.06,.06,.05,.09-.1,.08-.08,.07-.07,.08-.06,.07-.05,.08-.05,.07-.04,.08-.04,.09-.02,.09-.04,.09-.02h.1l.11-.03h.12l.13-.02h.14l14.58-1.09h.09l.08-.03,.07-.02,.07-.02,.07-.03,.07-.04,.06-.05,.07-.06v-.02l.27-.59-.13-.08,.06,.06h0l-.06-.04-.06,.15-.04,.02-.06,.02-.06,.03h-.06l-.08,.03h-.08l-14.59,1.09h-.18l-.09,.02-.09,.02h-.18l-.09,.02h-.08l-.1,.03h-.09l-.09,.03-.1,.02-.09,.02-.09,.03-.09,.03-.09,.04-.17,.1-.17,.16-.19,.19-.18,.21-.17,.23-.15,.2-.15,.19-.12,.15-.07,.02h-.06l-.08,.02h-.36l-1.34-4.03-.03-.06-.05-.06-.06-.05-.09-.05-.08-.04-.09-.03-.08-.02h-.08l-3.38,.1-.4,1.06h0l-.16,.03Zm24.26,.11h0l.05,.04-.06-.04Z"></path><polygon class="ai" points="117.51 31.62 117.6 31.6 117.67 31.59 117.74 31.57 117.82 31.54 117.89 31.51 117.96 31.47 118.01 31.42 118.08 31.37 117.96 31.26 117.91 31.31 117.86 31.35 117.81 31.38 117.75 31.4 117.7 31.42 117.63 31.44 117.57 31.45 117.49 31.45 117.51 31.62"></polygon><polygon class="ai" points="102.93 32.7 117.51 31.62 117.49 31.45 102.91 32.53 102.93 32.7"></polygon><polygon class="ai" points="101.5 32.95 101.59 32.92 101.67 32.89 101.77 32.86 101.85 32.83 101.94 32.8 102.02 32.79 102.11 32.78 102.2 32.76 102.28 32.75 102.37 32.74 102.46 32.73 102.56 32.72 102.65 32.71 102.73 32.71 102.83 32.7 102.93 32.7 102.91 32.53 102.82 32.54 102.73 32.55 102.63 32.55 102.54 32.56 102.45 32.57 102.36 32.59 102.27 32.59 102.17 32.6 102.08 32.61 101.99 32.63 101.9 32.65 101.8 32.68 101.72 32.7 101.62 32.74 101.52 32.77 101.43 32.81 101.5 32.95"></polygon><polygon class="ai" points="100.19 34.38 100.23 34.36 100.29 34.29 100.35 34.21 100.42 34.12 100.49 34.03 100.58 33.92 100.65 33.82 100.74 33.71 100.82 33.6 100.91 33.49 101 33.39 101.09 33.3 101.17 33.2 101.25 33.12 101.35 33.05 101.42 32.99 101.5 32.95 101.43 32.81 101.34 32.87 101.25 32.93 101.15 33 101.06 33.09 100.97 33.19 100.88 33.28 100.78 33.4 100.7 33.51 100.61 33.62 100.53 33.72 100.45 33.83 100.37 33.93 100.3 34.03 100.23 34.11 100.17 34.19 100.12 34.25 100.15 34.24 100.19 34.38"></polygon><polygon class="v" points="97.4 30.03 97.7 30.02 97.73 30.02 95.14 29.16 95.01 29.24 97.4 30.03 97.4 30.03"></polygon><polygon class="v" points="97.4 30.03 94.33 30.12 94.31 30.06 94.3 29.99 94.28 29.93 94.25 29.86 94.24 29.8 94.24 29.75 94.26 29.69 94.31 29.65 94.44 29.56 94.58 29.48 94.72 29.4 94.86 29.32 95 29.23 95.01 29.24 97.4 30.03 97.4 30.03"></polygon><polygon class="u" points="95.53 31.88 97.63 31.76 98.45 32.09 98.73 32.95 98.82 33.24 98.48 33.26 98.14 33.26 97.82 33.25 97.54 33.24 97.26 33.2 97 33.16 96.76 33.09 96.52 33.03 96.3 32.95 96.08 32.87 95.88 32.78 95.68 32.68 95.47 32.58 95.27 32.47 95.07 32.36 94.86 32.25 94.84 32.17 94.83 32.09 94.81 32 94.8 31.92 95.53 31.88"></polygon><polygon class="v" points="100.81 32.12 100.84 32.15 101.11 32.32 101.19 32.18 100.92 32.01 100.95 32.06 100.81 32.12 100.82 32.14 100.84 32.15 100.81 32.12"></polygon><polygon class="v" points="98.41 32.17 98.37 32.11 98.75 33.26 98.9 33.22 98.52 32.07 98.48 32.02 98.52 32.07 98.51 32.03 98.48 32.02 98.41 32.17"></polygon><polygon class="v" points="97.63 31.84 97.59 31.83 98.41 32.17 98.48 32.02 97.66 31.69 97.63 31.68 97.66 31.69 97.65 31.68 97.63 31.68 97.63 31.84"></polygon><polygon class="v" points="94.88 31.91 94.8 32 97.63 31.84 97.63 31.68 94.8 31.85 94.72 31.93 94.8 31.85 94.71 31.85 94.72 31.93 94.88 31.91"></polygon><polygon class="v" points="94.9 32.19 94.93 32.24 94.93 32.2 94.92 32.15 94.92 32.11 94.91 32.08 94.9 32.04 94.89 31.99 94.88 31.95 94.88 31.91 94.72 31.93 94.72 31.97 94.73 32.03 94.74 32.06 94.75 32.1 94.76 32.14 94.77 32.18 94.78 32.23 94.79 32.27 94.82 32.32 94.79 32.27 94.8 32.31 94.82 32.32 94.9 32.19"></polygon><polygon class="v" points="98.75 33.26 98.82 33.16 98.47 33.18 98.14 33.19 97.83 33.18 97.54 33.16 97.28 33.12 97.01 33.08 96.78 33.02 96.55 32.96 96.32 32.88 96.12 32.79 95.91 32.71 95.71 32.61 95.51 32.51 95.31 32.4 95.11 32.3 94.9 32.19 94.82 32.32 95.03 32.43 95.23 32.54 95.44 32.65 95.64 32.75 95.85 32.85 96.05 32.94 96.27 33.03 96.5 33.11 96.74 33.17 96.98 33.23 97.25 33.28 97.53 33.31 97.82 33.34 98.14 33.34 98.48 33.33 98.84 33.32 98.9 33.22 98.84 33.32 98.94 33.31 98.9 33.22 98.75 33.26 98.75 33.26"></polygon><polygon class="v" points="102.91 32.53 102.81 32.54 102.69 32.56 102.58 32.56 102.46 32.57 102.35 32.59 102.23 32.61 102.11 32.62 102 32.65 101.88 32.68 101.78 32.71 101.68 32.75 101.57 32.78 101.49 32.83 101.38 32.87 101.3 32.93 101.22 33 101.32 33.12 101.39 33.06 101.46 33.01 101.54 32.97 101.64 32.93 101.73 32.88 101.82 32.86 101.94 32.83 102.04 32.8 102.15 32.79 102.24 32.76 102.36 32.75 102.47 32.74 102.59 32.72 102.71 32.71 102.82 32.7 102.93 32.7 102.91 32.53"></polygon><polygon class="v" points="117.49 31.45 102.91 32.53 102.93 32.7 117.51 31.62 117.49 31.45"></polygon><polygon class="v" points="117.77 30.57 117.82 30.65 117.89 30.73 117.92 30.81 117.96 30.89 117.99 30.97 117.99 31.04 118 31.1 117.99 31.17 117.98 31.22 117.95 31.27 117.92 31.31 117.86 31.36 117.81 31.39 117.71 31.42 117.62 31.45 117.49 31.45 117.51 31.62 117.64 31.61 117.76 31.57 117.86 31.54 117.95 31.48 118.03 31.43 118.09 31.36 118.12 31.28 118.15 31.2 118.15 31.11 118.16 31.02 118.14 30.93 118.1 30.84 118.07 30.75 118.02 30.65 117.96 30.55 117.89 30.48 117.77 30.57"></polygon><polygon class="v" points="116.03 29.75 116.16 29.74 116.29 29.75 116.43 29.78 116.56 29.8 116.68 29.84 116.81 29.88 116.92 29.94 117.04 29.99 117.15 30.05 117.26 30.12 117.37 30.19 117.46 30.26 117.54 30.34 117.63 30.42 117.7 30.5 117.77 30.57 117.89 30.48 117.82 30.39 117.73 30.3 117.65 30.22 117.55 30.14 117.45 30.06 117.34 29.99 117.24 29.92 117.12 29.85 116.99 29.79 116.86 29.74 116.73 29.7 116.59 29.65 116.46 29.62 116.32 29.6 116.16 29.59 116.02 29.59 116.03 29.75"></polygon><polygon class="v" points="103.12 30.19 116.03 29.75 116.02 29.59 103.13 30.04 103.12 30.19"></polygon><polygon class="v" points="101.09 29.86 101.21 29.91 101.34 29.94 101.46 29.98 101.59 30.01 101.73 30.04 101.85 30.07 101.99 30.09 102.12 30.11 102.24 30.14 102.38 30.15 102.51 30.17 102.64 30.17 102.76 30.19 102.89 30.18 103.01 30.19 103.12 30.19 103.13 30.04 103.01 30.04 102.89 30.03 102.78 30.02 102.65 30.01 102.52 30 102.4 29.99 102.27 29.98 102.14 29.96 102.01 29.93 101.89 29.91 101.76 29.88 101.63 29.86 101.51 29.83 101.37 29.79 101.26 29.76 101.14 29.72 101.09 29.87 101.09 29.86"></polygon><polygon class="v" points="96.74 28.68 96.96 28.65 97.16 28.63 97.36 28.61 97.55 28.6 97.72 28.59 97.87 28.61 98.04 28.62 98.17 28.63 98.31 28.65 98.43 28.68 98.56 28.7 98.67 28.74 98.78 28.78 98.87 28.82 98.99 28.86 99.08 28.91 99.18 28.96 99.29 29.01 99.39 29.07 99.49 29.13 99.59 29.18 99.7 29.25 99.8 29.3 99.92 29.37 100.04 29.43 100.17 29.5 100.3 29.55 100.43 29.62 100.58 29.69 100.74 29.74 100.91 29.81 101.09 29.87 101.14 29.72 100.96 29.66 100.79 29.6 100.65 29.54 100.5 29.48 100.36 29.41 100.24 29.36 100.12 29.28 100 29.23 99.88 29.17 99.77 29.11 99.67 29.05 99.56 28.98 99.46 28.92 99.36 28.87 99.25 28.82 99.16 28.77 99.06 28.71 98.94 28.67 98.83 28.63 98.72 28.59 98.59 28.55 98.46 28.52 98.33 28.5 98.19 28.47 98.04 28.45 97.89 28.45 97.71 28.45 97.54 28.45 97.35 28.45 97.15 28.47 96.94 28.49 96.72 28.52 96.73 28.68 96.74 28.68"></polygon><polygon class="v" points="94.35 29.72 94.48 29.63 94.62 29.55 94.76 29.47 94.9 29.38 95.04 29.3 95.19 29.23 95.32 29.15 95.47 29.09 95.62 29.02 95.77 28.94 95.92 28.88 96.08 28.83 96.24 28.79 96.4 28.74 96.57 28.7 96.73 28.68 96.72 28.52 96.53 28.56 96.36 28.59 96.19 28.63 96.03 28.68 95.87 28.75 95.71 28.8 95.56 28.87 95.4 28.94 95.25 29.01 95.1 29.09 94.96 29.17 94.82 29.25 94.68 29.33 94.54 29.41 94.41 29.5 94.27 29.58 94.35 29.72 94.35 29.72"></polygon><polygon class="v" points="94.33 30.05 94.41 30.12 94.38 30.04 94.37 29.97 94.35 29.91 94.33 29.83 94.32 29.79 94.32 29.76 94.33 29.73 94.35 29.72 94.27 29.58 94.2 29.65 94.17 29.73 94.16 29.81 94.18 29.88 94.2 29.95 94.22 30.02 94.24 30.08 94.25 30.14 94.32 30.2 94.25 30.14 94.25 30.2 94.32 30.2 94.33 30.05"></polygon><polygon class="u" points="100.28 30.62 100.28 30.63 100.28 30.63 100.28 30.62"></polygon><polygon class="u" points="100.25 30.66 100.28 30.63 100.26 30.71 100.25 30.66"></polygon><polygon class="u" points="102.42 31.58 105.08 32.46 104.79 32.48 104.79 32.48 102.48 31.72 102.42 31.58"></polygon><path class="u" d="M94.32,30.2l3.38-.11h.07l.06,.03,.09,.03,.08,.03,.07,.05,.05,.03,.03,.05,.02,.03,1.34,4.02,.02,.06h.56l.09-.04,.07-.05,.09-.09,.07-.1,.07-.08,.07-.08,.06-.08,.06-.07,.05-.07,.06-.08,.05-.07,.06-.07,.06-.07,.06-.06,.06-.07,.07-.07,.07-.07,.09-.08-.05-.06,.07-.06,.08-.05,.09-.04,.09-.04,.1-.04,.11-.03,.11-.04,.11-.03h.1l.11-.03,.12-.02,.11-.02h.12l.12-.02h.11l.11-.02,1.87-.13-2.31-.77-.06-.14,2.66,.88,12.42-.92,.23-.04,.17-.08,.12-.11,.04-.13v-.15h0l-.04-.17-.08-.16-.12-.18-.07-.08-.08-.08-.09-.08-.09-.07-.1-.08-.11-.07-.12-.07-.11-.07-.12-.05-.12-.06-.13-.04-.14-.05-.13-.02-.14-.03-.14-.02h-.14l-1.87,.07-11.02,.38h-.36l-.12-.02h-.13l-.13-.02-.12-.02-.13-.02-.13-.02-.13-.03-.13-.03-.13-.03-.13-.04-.13-.03-.12-.03-.12-.04-.17-.06-.17-.06-.15-.06-.15-.06-.13-.07-.13-.06-.13-.07-.12-.06-.11-.07-.1-.06-.11-.06-.1-.06-.11-.06-.1-.06-.1-.05-.1-.06-.1-.05-.11-.04-.1-.03-.12-.04-.12-.04-.12-.03-.13-.02-.14-.02-.14-.02h-.16l-.17-.02h-.35l-.2,.03-.21,.02-.23,.03-.17,.02-.17,.04-.17,.04-.16,.05-.16,.06-.16,.06-.15,.06-.15,.07-.15,.07-.15,.08,2.36,.78-3.17,.1v.15Zm21.61,.07v-.09l.05-.07,.06-.05,.09-.04,.1-.02h.12l.06,.02h.06l.07,.04,.07,.02,.07,.03,.07,.04,.06,.03,.07,.05,.06,.04,.06,.05,.07,.05,.04,.06,.06,.05,.05,.05,.08,.11,.04,.11,.02,.05v.2l-.06,.06-.08,.04-.1,.02h-.12l-.07-.02-.07-.02-.07-.02-.07-.02-.08-.03-.07-.04-.07-.03-.08-.04-.07-.04-.06-.05-.06-.04-.06-.06-.05-.06-.05-.06-.08-.11-.04-.11v-.04l-.02-.06Zm-13.43,1.71h0l-.05-.04,.05,.04Zm-2.07-1.28l.09-.08,1.11-.06,.23,.12,.56,1.3-.09,.11-1.19,.08h.05l-.04,.08h0l-.26-.15h0l.07-.03-.52-1.36Z"></path><polygon class="ai" points="115.18 31.1 115.11 31.07 115.1 31.01 115.2 30.98 115.22 31.04 115.16 31 115.18 31.1"></polygon><polygon class="ai" points="115.31 31.03 115.3 31.05 115.27 31.07 115.24 31.09 115.21 31.1 115.18 31.1 115.16 31 115.17 31.01 115.19 30.99 115.22 30.98 115.22 30.97 115.22 30.99 115.31 31.04 115.31 31.03"></polygon><polygon class="ai" points="115.04 30.42 115.05 30.42 115.09 30.48 115.15 30.54 115.21 30.61 115.27 30.68 115.31 30.76 115.34 30.85 115.34 30.95 115.31 31.04 115.22 30.99 115.24 30.93 115.23 30.87 115.22 30.8 115.17 30.74 115.12 30.67 115.07 30.61 115.01 30.55 114.97 30.49 114.97 30.5 115.04 30.42"></polygon><polygon class="ai" points="114.15 30.17 114.14 30.16 114.26 30.17 114.39 30.17 114.5 30.19 114.61 30.2 114.72 30.23 114.83 30.28 114.94 30.34 115.04 30.42 114.97 30.5 114.87 30.43 114.78 30.38 114.69 30.33 114.59 30.31 114.48 30.29 114.38 30.28 114.26 30.27 114.15 30.27 114.15 30.27 114.14 30.17 114.15 30.17"></polygon><polygon class="ai" points="104.67 30.66 104.71 30.63 114.14 30.17 114.15 30.27 104.73 30.73 104.77 30.71 104.67 30.66"></polygon><polygon class="ai" points="104.45 30.99 104.35 30.95 104.36 30.88 104.38 30.83 104.4 30.76 104.44 30.72 104.49 30.69 104.56 30.66 104.63 30.64 104.71 30.63 104.73 30.73 104.65 30.75 104.58 30.77 104.55 30.77 104.51 30.8 104.5 30.83 104.47 30.86 104.46 30.9 104.46 30.97 104.36 30.93 104.45 30.99"></polygon><polygon points="115.12 30.95 115.09 30.91 115.06 30.86 115.03 30.82 115 30.79 114.96 30.74 114.93 30.71 114.89 30.66 114.79 30.59 114.7 30.53 114.6 30.48 114.49 30.46 114.38 30.45 114.27 30.42 114.16 30.42 114.04 30.42 104.61 30.89 104.69 30.74 104.72 30.74 104.73 30.73 114.15 30.27 114.31 30.28 114.44 30.27 114.56 30.29 114.68 30.31 114.78 30.36 114.88 30.42 114.97 30.49 115.06 30.61 115.15 30.71 115.21 30.81 115.25 30.88 115.25 30.93 115.22 30.97 115.16 31.01 115.16 31.01 115.15 31 115.12 30.95"></polygon><path d="M104.35,30.95v.09l.03,.06,.03,.09,.06,.1,.08,.08,.1,.09,.12,.08,.13,.06,.14,.04h.17l9.68-.49,.18-.02,.13-.03,.09-.07,.05-.09v-.09l-.04-.11-.07-.11-.1-.12-.1-.12-.11-.09-.12-.07-.11-.05-.12-.02-.14-.03h-.31l-9.42,.47h-.1l-.1,.04-.07,.06-.05,.07-.03,.07-.02,.08Zm.11,.01v-.06h.07l.08-.02,.08-.15h.04l9.42-.48h.29l.12,.02,.11,.02,.1,.05,.1,.06,.09,.08,.1,.11,.09,.1,.06,.1,.03,.07v.05l-.02,.04-.06,.04h0l-.11,.03-.16,.02-9.68,.5h-.14l-.13-.04-.12-.05-.1-.06-.08-.08-.06-.08-.05-.08-.04-.07v-.11Z"></path></g></g></svg>