<svg version="1.1" xmlns="http://www.w3.org/2000/svg" xmlns:xlink="http://www.w3.org/1999/xlink" x="0px" y="0px" width="600" height="1125" viewBox="0 0 600 1125" enable-background="new 0 0 144 270" xml:space="preserve">
<g id="Layer_1">
	<rect fill="#919396" width="144" height="270"></rect>
	<path fill="#FFFFFF" stroke="#EA222A" d="M126,261H18c-4.971,0-9-4.029-9-9V18c0-4.971,4.029-9,9-9h108c4.971,0,9,4.029,9,9v234
		C135,256.971,130.971,261,126,261z"></path>
	<path fill="none" stroke="#00ADEE" stroke-dasharray="1.44,1.44" d="M18.238,21.599c0-2.054,1.069-3.716,2.388-3.716h102.669
		c1.319,0,2.388,1.662,2.388,3.716v226.641c0,2.052-1.068,3.716-2.388,3.716H20.625c-1.319,0-2.388-1.664-2.388-3.716V21.599z"></path>
</g>
<g id="instructions">
	<rect x="19.365" y="213.438" fill="#E7E6E6" width="104.901" height="36.303"></rect>
	<rect x="19.364" y="18.999" fill="#E7E6E6" width="104.902" height="10.854"></rect>
	
	
	
	
	
	
	
	
	
	
	
	
	
	
	
	
	
	
	
	
	
	
	<rect x="116.767" y="144.976" fill="#F9A51B" width="27.233" height="17.43"></rect>
	<line fill="none" stroke="#F9A51B" x1="90.668" y1="145.31" x2="133.617" y2="145.31"></line>
	<line fill="none" stroke="#EA222A" x1="96.705" y1="77.226" x2="134.612" y2="77.226"></line>
	<line fill="none" stroke="#919396" x1="92.361" y1="98.543" x2="134.123" y2="98.543"></line>
	<line fill="none" stroke="#2BA4DD" stroke-dasharray="1.44,1.44" x1="95.182" y1="44.661" x2="125.604" y2="44.661"></line>
	<path fill="#EA222A" d="M95.189,40.027c0,0.275-0.125,0.543-0.373,0.804l-0.039,0.039L92.6,43.164
		c-0.463,0.486-0.856,0.861-1.182,1.127c-0.326,0.266-0.555,0.399-0.688,0.399c-0.142,0-0.315-0.067-0.524-0.199
		c-0.21-0.134-0.346-0.27-0.406-0.411c-0.053-0.118-0.101-0.366-0.146-0.747c-0.045-0.381-0.068-0.793-0.068-1.237
		c0-0.243,0.102-0.467,0.303-0.672c0.203-0.206,0.426-0.309,0.67-0.309c0.232,0,0.371,0.213,0.414,0.638
		c0.006,0.05,0.01,0.086,0.012,0.11c0.038,0.326,0.081,0.554,0.131,0.684c0.049,0.129,0.117,0.194,0.201,0.194
		c0.035,0,0.102-0.038,0.197-0.114c0.096-0.077,0.211-0.181,0.345-0.312l2.237-2.217c0.188-0.187,0.355-0.33,0.504-0.425
		c0.148-0.097,0.272-0.145,0.377-0.145c0.078,0,0.133,0.029,0.166,0.087c0.033,0.059,0.049,0.158,0.049,0.296V40.027z"></path>
	<path fill="#EA222A" d="M96.002,72.076c0,0.274-0.125,0.543-0.373,0.803l-0.039,0.04l-2.178,2.292
		c-0.463,0.487-0.857,0.862-1.182,1.128c-0.326,0.266-0.557,0.399-0.689,0.399c-0.141,0-0.316-0.066-0.525-0.199
		c-0.209-0.134-0.344-0.271-0.405-0.411c-0.052-0.117-0.101-0.367-0.146-0.747c-0.045-0.381-0.068-0.793-0.068-1.236
		c0-0.243,0.101-0.467,0.302-0.672c0.202-0.206,0.425-0.308,0.671-0.308c0.231,0,0.37,0.212,0.414,0.637
		c0.006,0.05,0.009,0.086,0.012,0.11c0.037,0.326,0.08,0.554,0.13,0.684c0.05,0.129,0.116,0.193,0.2,0.193
		c0.035,0,0.102-0.038,0.199-0.114c0.096-0.077,0.211-0.18,0.344-0.312l2.238-2.217c0.188-0.187,0.355-0.329,0.503-0.425
		c0.149-0.097,0.273-0.146,0.378-0.146c0.076,0,0.133,0.03,0.166,0.088c0.031,0.06,0.049,0.158,0.049,0.297V72.076z"></path>
	<path fill="#EA222A" d="M92.326,93.046c0,0.274-0.125,0.543-0.373,0.803l-0.039,0.039l-2.178,2.293
		c-0.463,0.486-0.857,0.862-1.182,1.128S88,97.708,87.866,97.708c-0.142,0-0.316-0.065-0.525-0.199
		c-0.208-0.133-0.345-0.27-0.405-0.411c-0.052-0.116-0.1-0.365-0.146-0.747c-0.045-0.38-0.068-0.792-0.068-1.235
		c0-0.242,0.102-0.467,0.303-0.672c0.202-0.205,0.426-0.309,0.67-0.309c0.232,0,0.371,0.213,0.415,0.638
		c0.005,0.05,0.009,0.086,0.012,0.11c0.036,0.325,0.081,0.554,0.13,0.683c0.049,0.13,0.116,0.194,0.2,0.194
		c0.036,0,0.102-0.038,0.198-0.114c0.096-0.077,0.211-0.181,0.345-0.312l2.237-2.217c0.188-0.188,0.355-0.329,0.504-0.427
		c0.148-0.096,0.273-0.144,0.377-0.144c0.078,0,0.133,0.03,0.166,0.088c0.033,0.059,0.049,0.157,0.049,0.297V93.046z"></path>
	<path fill="#EA222A" d="M90.513,140.543c0,0.275-0.126,0.543-0.373,0.804l-0.04,0.04l-2.177,2.292
		c-0.463,0.486-0.856,0.863-1.183,1.129c-0.325,0.266-0.555,0.396-0.688,0.396c-0.142,0-0.316-0.066-0.525-0.197
		c-0.209-0.135-0.344-0.27-0.406-0.41c-0.052-0.119-0.1-0.367-0.146-0.746c-0.046-0.381-0.069-0.795-0.069-1.24
		c0-0.24,0.102-0.465,0.303-0.669c0.203-0.207,0.426-0.309,0.67-0.309c0.232,0,0.371,0.211,0.416,0.637
		c0.005,0.05,0.008,0.086,0.011,0.11c0.038,0.325,0.081,0.553,0.13,0.684c0.05,0.129,0.117,0.193,0.201,0.193
		c0.035,0,0.102-0.037,0.197-0.115c0.096-0.076,0.212-0.181,0.346-0.311l2.237-2.218c0.188-0.188,0.355-0.33,0.503-0.426
		c0.149-0.096,0.273-0.144,0.378-0.144c0.077,0,0.133,0.028,0.165,0.086c0.033,0.059,0.05,0.158,0.05,0.297V140.543z"></path>
	<rect x="5.333" y="26.595" fill="none" width="132.297" height="180.405"></rect>
	<g>
		
		
		
		
		
		
	</g>
	<g>
		<defs>
			<rect id="SVGID_1_" x="5.333" y="82.65" width="132.297" height="180.405"></rect>
		</defs>
		<clipPath id="SVGID_2_">
			<use xlink:href="#SVGID_1_" overflow="visible"></use>
		</clipPath>
		<path clip-path="url(#SVGID_2_)" fill="#EA222A" d="M83.77,217.156c0,0.273-0.125,0.543-0.374,0.803l-0.039,0.039l-2.177,2.295
			c-0.463,0.484-0.857,0.861-1.182,1.127c-0.326,0.266-0.557,0.396-0.689,0.396c-0.141,0-0.316-0.064-0.525-0.197
			s-0.344-0.271-0.405-0.412c-0.052-0.117-0.101-0.365-0.146-0.746c-0.046-0.379-0.069-0.791-0.069-1.236
			c0-0.244,0.102-0.465,0.303-0.672c0.202-0.205,0.425-0.309,0.67-0.309c0.233,0,0.371,0.213,0.415,0.639
			c0.006,0.049,0.009,0.086,0.012,0.109c0.037,0.326,0.08,0.555,0.129,0.682c0.051,0.129,0.117,0.195,0.201,0.195
			c0.035,0,0.102-0.039,0.198-0.115s0.212-0.18,0.345-0.311l2.238-2.217c0.188-0.188,0.355-0.33,0.504-0.426
			c0.147-0.098,0.272-0.146,0.377-0.146c0.077,0,0.132,0.031,0.166,0.09c0.031,0.059,0.049,0.156,0.049,0.295V217.156z"></path>
		<path clip-path="url(#SVGID_2_)" fill-rule="evenodd" clip-rule="evenodd" d="M53.161,231.238c0,8.85-7.173,16.021-16.022,16.021
			s-16.023-7.172-16.023-16.021s7.174-16.023,16.023-16.023S53.161,222.389,53.161,231.238"></path>
		<path clip-path="url(#SVGID_2_)" fill-rule="evenodd" clip-rule="evenodd" fill="#B7D333" d="M51.716,231.326
			c0,8.045-6.521,14.566-14.566,14.566s-14.567-6.521-14.567-14.566s6.522-14.566,14.567-14.566S51.716,223.281,51.716,231.326"></path>
		<path clip-path="url(#SVGID_2_)" d="M34.031,228.15c-0.202,1.785-0.352,3.219-0.452,4.301l-0.664,0.031
			c0.009-0.037,0.015-0.078,0.016-0.123c0-0.082-0.029-0.188-0.09-0.32c-0.062-0.133-0.096-0.217-0.105-0.252
			c-0.171,0.023-0.336,0.145-0.493,0.355c-0.158,0.215-0.3,0.322-0.425,0.32c-0.072-0.004-0.154-0.021-0.244-0.059
			c-0.118,0.078-0.272,0.113-0.462,0.102c-0.171-0.031-0.337-0.057-0.5-0.076c-0.006-0.229-0.228-0.426-0.667-0.596
			c0.002-0.09-0.044-0.225-0.136-0.4c-0.092-0.18-0.137-0.303-0.135-0.377c0-0.08,0.033-0.146,0.098-0.201
			c-0.009-0.027-0.083-0.195-0.222-0.506c-0.096-0.227-0.142-0.422-0.14-0.582c0.003-0.129,0.031-0.246,0.088-0.352
			c-0.077-0.77-0.111-1.43-0.102-1.98c0.014-0.85,0.135-1.629,0.364-2.34c-0.016-0.107-0.023-0.217-0.021-0.324
			c0.01-0.568,0.207-0.963,0.589-1.184l0.003-0.176c0.378-0.482,0.876-0.828,1.494-1.045c0.37,0.088,0.738,0.17,1.107,0.25
			c0.414,0.141,0.699,0.387,0.855,0.732c0.125,0.076,0.186,0.225,0.183,0.449c-0.004,0.254,0.024,0.418,0.086,0.49l-0.069,0.08
			c0.072,0.533,0.107,0.859,0.105,0.979c-0.006,0.342-0.096,0.584-0.27,0.727c-0.062-0.002-0.229-0.059-0.498-0.172
			c-0.064,0.062-0.132,0.094-0.204,0.09c-0.037,0-0.103-0.02-0.196-0.057s-0.173-0.057-0.236-0.057
			c-0.044-0.002-0.091,0.008-0.135,0.023c-0.006-0.713,0.017-1.246,0.067-1.598c-0.071-0.045-0.144-0.152-0.217-0.314
			c-0.076-0.164-0.17-0.256-0.287-0.277c-0.074,0.092-0.106,0.148-0.099,0.176l-0.243-0.084c-0.22,0.238-0.367,0.656-0.44,1.25
			c-0.075,0.688-0.168,1.141-0.281,1.363c0.097,0.104,0.145,0.242,0.141,0.424c0,0.064-0.011,0.168-0.032,0.311
			c-0.021,0.145-0.031,0.254-0.032,0.324c-0.002,0.082,0.005,0.154,0.023,0.219l-0.166,0.16c0.067,0.307,0.106,0.697,0.116,1.168
			c-0.007,0.396-0.009,0.793-0.007,1.189c-0.008,0-0.085,0.004-0.229,0.012c-0.09-0.004-0.154,0.027-0.191,0.092
			c0.054-0.01,0.103-0.014,0.148-0.012c0.198,0.002,0.354,0.145,0.466,0.42c0.114,0.279,0.21,0.418,0.292,0.42
			c0.091,0.002,0.213-0.082,0.37-0.252c0.266-0.283,0.404-0.676,0.413-1.172c0.005-0.244-0.022-0.506-0.082-0.785
			c-0.064,0.033-0.098,0.123-0.1,0.268c-0.144-0.002-0.236,0.027-0.273,0.09c-0.062-0.02-0.089-0.07-0.078-0.15
			c0.011-0.117,0.016-0.18,0.016-0.189c0.11-0.033,0.164-0.084,0.166-0.146c0-0.027-0.019-0.078-0.058-0.15
			c-0.04-0.072-0.059-0.131-0.059-0.176c0.001-0.037,0.011-0.072,0.03-0.109l0.062-0.527c0.198,0.059,0.626,0.084,1.287,0.078
			c-0.02,0.043,0.007,0.104,0.078,0.176c0.064-0.062,0.132-0.094,0.205-0.09c0.054,0,0.135,0.023,0.242,0.07
			C33.909,228.127,33.986,228.148,34.031,228.15"></path>
		<path clip-path="url(#SVGID_2_)" d="M39.088,232.816c-0.126-0.057-0.261-0.086-0.405-0.088c-0.127-0.002-0.3,0.021-0.518,0.074
			c-0.244,0.049-0.413,0.076-0.502,0.084c-0.096-0.191-0.164-0.453-0.204-0.789c-0.072-0.488-0.118-0.766-0.135-0.828
			c0.029-0.055,0.043-0.1,0.043-0.135c0.002-0.1-0.076-0.189-0.232-0.27c-0.157-0.078-0.234-0.143-0.233-0.188
			c0-0.053,0.091-0.133,0.273-0.238c-0.043-0.055-0.076-0.166-0.096-0.332c-0.019-0.168-0.061-0.281-0.123-0.336
			c-0.111,0.098-0.29,0.162-0.539,0.188c-0.25,0.027-0.414,0.068-0.497,0.121c0.005,0.703-0.11,1.178-0.349,1.416
			c-0.125-0.029-0.223,0.02-0.287,0.145c-0.094,0.152-0.172,0.24-0.235,0.268l0.079,0.096c-0.073,0.062-0.191,0.088-0.353,0.074
			c-0.253-0.012-0.388-0.02-0.407-0.02l-0.076-0.246l0.882-7.314c0.009-0.461,0.031-0.773,0.07-0.934
			c-0.011-0.408,0.084-0.658,0.284-0.754c0.125,0.082,0.284,0.125,0.473,0.129c0.154,0.004,0.394-0.029,0.719-0.096
			c0.328-0.066,0.553-0.1,0.681-0.098c0.442,0.01,0.635,0.326,0.58,0.959c-0.044,0.506,0.034,1.17,0.237,1.996
			c0.211,0.889,0.312,1.555,0.305,1.998c-0.003,0.133,0.042,0.416,0.031,0.551c-0.191,0.104-0.436,0.168-0.735,0.189
			c-0.262,0.014-0.529,0.029-0.8,0.041c-0.069-0.688-0.191-1.516-0.26-2.195c-0.085-0.814-0.191-1.482-0.318-2.012l-0.419,3.869
			c-0.032,0.336,0.119,0.504,0.453,0.512c0.108,0,0.212-0.025,0.312-0.078c0.083-0.025,0.194,0.035,0.336,0.182
			c-0.005,0.281,0.051,0.449,0.167,0.506c0.146-0.098,0.337-0.188,0.573-0.275c0.209-0.078,0.415-0.152,0.614-0.221
			c0.114,0.156,0.188,0.389,0.219,0.695c0.038,0.436,0.066,0.688,0.082,0.76c0.015,0.172,0.085,0.543,0.21,1.115
			c0.092,0.453,0.136,0.818,0.131,1.1C39.118,232.572,39.106,232.699,39.088,232.816"></path>
		<path clip-path="url(#SVGID_2_)" d="M45.326,226.363c-0.01,0.027-0.012,0.186-0.008,0.475c-0.004,0.234-0.034,0.41-0.089,0.525
			c-0.068,0.18-0.103,0.439-0.109,0.771c-0.002,0.074,0.001,0.186,0.008,0.34c-0.003,0.154-0.005,0.266-0.005,0.338
			c-0.01,0.568-0.107,0.982-0.293,1.242c0.016,0.146,0.023,0.289,0.021,0.434c-0.008,0.451-0.163,1.059-0.465,1.822
			c-0.081,0.025-0.15,0.039-0.205,0.037c-0.108-0.004-0.186-0.064-0.233-0.188c-0.048-0.123-0.093-0.238-0.136-0.348
			c0.029-0.693,0.015-1.707-0.044-3.035l0.083-0.082c-0.059-0.234-0.085-0.496-0.081-0.785c0.003-0.209,0.03-0.51,0.076-0.906
			c0.047-0.398,0.073-0.695,0.075-0.895c0.003-0.127,0-0.248-0.005-0.365c-0.312,0.744-0.532,2.004-0.661,3.781l-0.113,0.27
			c-0.038,0.09-0.115,0.139-0.233,0.146c-0.035-0.064-0.071-0.098-0.106-0.098c-0.027-0.002-0.076,0.031-0.144,0.1
			c-0.069,0.064-0.127,0.096-0.171,0.086l-0.18,0.158c0.081,0.102,0.25,0.113,0.515,0.037c0.208-0.061,0.316,0.018,0.321,0.234
			c0.006,0.182-0.043,0.424-0.147,0.729c-0.104,0.307-0.158,0.535-0.16,0.689c-0.002,0.109,0.009,0.217,0.034,0.324l-0.937,0.148
			c-0.087-0.182-0.152-0.488-0.195-0.918c-0.042-0.43-0.106-0.736-0.194-0.918c0.055-0.061,0.083-0.129,0.084-0.201
			c0.001-0.062-0.023-0.158-0.076-0.287c-0.052-0.127-0.082-0.223-0.09-0.287c-0.007-0.098-0.039-0.338-0.096-0.719
			c-0.039-0.307-0.059-0.549-0.056-0.719c0.002-0.09,0.008-0.17,0.019-0.244c0.001-0.062-0.035-0.154-0.104-0.279
			c-0.069-0.123-0.104-0.213-0.103-0.266c0-0.045,0.018-0.084,0.055-0.119c-0.062-0.076-0.087-0.201-0.075-0.381
			c0.012-0.182-0.013-0.309-0.075-0.381c-0.132,0.35-0.204,0.82-0.214,1.416c-0.005,0.832-0.013,1.312-0.024,1.438l0.094,0.084
			l-0.096,0.078c0.066,0.326,0.096,0.742,0.086,1.248c-0.024,0.912-0.036,1.336-0.035,1.273c-0.128,0.115-0.306,0.172-0.532,0.166
			c-0.28-0.002-0.471,0.021-0.57,0.074c-0.114-0.201-0.169-0.461-0.163-0.777c0.004-0.242,0.045-0.539,0.124-0.891
			c-0.123-0.229-0.181-0.545-0.174-0.953c0.001-0.098,0.014-0.287,0.037-0.568c0.013-0.225,0.016-0.393,0.009-0.5
			c0.09-0.043,0.137-0.092,0.137-0.146c0.001-0.035-0.027-0.098-0.084-0.186c-0.058-0.086-0.086-0.152-0.085-0.197
			c0.001-0.055,0.039-0.107,0.111-0.162l-0.292-4.381c0.175-0.115,0.456-0.168,0.844-0.16c0.423,0.016,0.714-0.008,0.868-0.068
			c0.028-0.018,0.06-0.025,0.096-0.025c0.037,0.002,0.079,0.023,0.127,0.064c0.05,0.041,0.083,0.062,0.1,0.062
			c0.036,0,0.069-0.027,0.097-0.08l0.253,0.25c0.085,0.316,0.165,0.932,0.24,1.846c0.076,0.785,0.197,1.381,0.363,1.781
			c0.222-0.801,0.404-1.471,0.549-2.01l0.294-2.145l2.1-0.045c0.008,0.117,0.034,0.744,0.09,1.107
			c0.048,0.316,0.072,0.574,0.069,0.773c-0.003,0.225-0.039,0.428-0.106,0.607c0.07,0.102,0.105,0.229,0.103,0.381
			C45.439,226.141,45.399,226.266,45.326,226.363"></path>
		<path clip-path="url(#SVGID_2_)" d="M49.636,231.111v-0.014c-0.056,0.117-0.091,0.252-0.101,0.406
			c-0.011,0.1-0.014,0.238-0.008,0.418c0.005,0.209,0.008,0.354,0.007,0.436c-0.074-0.002-0.361-0.008-0.867-0.016
			c-0.308-0.004-0.583,0.021-0.828,0.082l-0.253-0.275c-0.075,0.07-0.102,0.127-0.084,0.174c-0.045-0.01-0.252-0.014-0.624-0.01
			c-0.29-0.006-0.505-0.037-0.648-0.094c-0.147,0.152-0.319,0.148-0.515-0.01c-0.072-0.053-0.078-0.146-0.023-0.275
			c0.057-0.131,0.041-0.229-0.049-0.293c0.014-0.289,0.054-0.736,0.118-1.34c0.063-0.541,0.097-0.965,0.103-1.271
			c0.005-0.416-0.022-0.814-0.088-1.193c0.102-0.098,0.215-0.146,0.341-0.145c0.146,0.002,0.315,0.072,0.512,0.211
			c0.276,0.193,0.42,0.293,0.429,0.293l0.079,0.096c0.01-0.027,0.058-0.17,0.144-0.43c0.047-0.172,0.117-0.283,0.208-0.336
			l0.08,0.082c0.037-0.018,0.155-0.102,0.357-0.252c0.154-0.105,0.281-0.355,0.371-0.352c0.101,0,0.193,0.057,0.282,0.166
			c0.153,0.082,0.248,0.408,0.295,0.574c0.047,0.168,0.092,0.334,0.135,0.498c-0.407,0.012-0.742,0-1.002-0.031
			c-0.065,0.1-0.156,0.113-0.273,0.043c-0.114-0.068-0.2-0.059-0.256,0.029c-0.003,0.162-0.009,0.457-0.016,0.881
			c-0.015,0.379-0.02,0.678-0.014,0.895c0.003,0.334,0.025,0.641,0.065,0.922c0.072,0,0.415,0.008,1.029,0.018
			C48.965,231.006,49.33,231.043,49.636,231.111 M49.665,224.621c-0.082,0.008-0.171,0.012-0.27,0.01
			c-0.209-0.004-0.484-0.037-0.826-0.096c-0.423-0.061-0.68-0.098-0.77-0.107c-0.129,0.188-0.197,0.453-0.204,0.795
			c-0.012,0.742-0.012,1.062-0.002,0.963c0.125,0.074,0.188,0.211,0.183,0.41c-0.014,0.27-0.017,0.41-0.007,0.42
			c-0.064,0.025-0.097,0.115-0.099,0.27c-0.1-0.039-0.202-0.113-0.308-0.225c-0.143-0.137-0.218,0.332-0.208,0.215l-0.085,0.277
			l-0.08-0.082c-0.073,0.006-0.197-0.031-0.372-0.115c-0.174-0.086-0.297-0.162-0.368-0.236c0.003-0.145,0.027-0.225,0.072-0.242
			l-0.173-0.193l-0.083,0.121c-0.101-0.941-0.076-2.701,0.049-3.693c0.342,0.061,0.722,0.098,1.137,0.115
			c0.28,0.014,0.672,0.02,1.178,0.02c0.579,0,0.995,0.002,1.248,0.006c0.105,0.102,0.158,0.234,0.154,0.396
			c0,0.1-0.028,0.26-0.082,0.48C49.694,224.348,49.667,224.514,49.665,224.621"></path>
		<path clip-path="url(#SVGID_2_)" d="M34.438,239.305v-0.008c0,0.006-0.022,0.205-0.069,0.598c-0.024,0.242-0.083,0.432-0.175,0.57
			l-0.059-0.047c-0.11,0.23-0.259,0.371-0.449,0.42c-0.091,0.096-0.222,0.146-0.392,0.156c-0.101,0.008-0.334-0.021-0.702-0.088
			c-0.177-0.109-0.273-0.17-0.29-0.182c-0.112-0.084-0.166-0.168-0.16-0.256c-0.107-0.109-0.258-0.307-0.316-0.551
			c-0.069-0.273-0.111-0.287-0.174-0.385c-0.103,0.076-0.139-0.082-0.199-0.18l0.053-0.039c-0.033-0.025-0.051-0.053-0.052-0.082
			c-0.001-0.021,0.008-0.053,0.026-0.096c0.02-0.041,0.029-0.072,0.027-0.096c-0.002-0.033-0.022-0.062-0.061-0.084
			c0.041-0.215,0.079-0.535,0.112-0.963c0.073-0.039,0.107-0.113,0.104-0.225c-0.004-0.111,0.011-0.186,0.046-0.223
			c0.173-0.346,0.452-0.578,0.841-0.699c0.022,0.002,0.125,0,0.313-0.004c0.127-0.004,0.225,0.006,0.29,0.033
			c0.115-0.021,0.233,0.01,0.349,0.082c0.101,0.076,0.202,0.152,0.302,0.229c0.188,0.203,0.29,0.436,0.305,0.691
			c0.005,0.086,0,0.178-0.017,0.271c-0.139-0.004-0.238,0.086-0.297,0.275l-0.541,0.051c-0.058-0.082-0.092-0.191-0.099-0.33
			c-0.003-0.047-0.003-0.115,0-0.205c0.002-0.092,0.003-0.158,0-0.205c-0.009-0.143-0.042-0.254-0.1-0.338l-0.162,0.094
			c-0.067-0.027-0.101-0.064-0.104-0.115c-0.001-0.02,0.001-0.045,0.007-0.076c0.007-0.033,0.009-0.055,0.009-0.068
			c-0.003-0.055-0.053-0.088-0.15-0.102c-0.066,0.611-0.086,1.238-0.06,1.879c0.017,0.021,0.069,0.035,0.155,0.045
			c0.069,0.008,0.105,0.029,0.107,0.062c0,0.014-0.003,0.031-0.013,0.055l-0.053,0.041c0.029,0.045,0.046,0.109,0.051,0.189
			c0.002,0.043,0.001,0.109-0.004,0.197c-0.005,0.09-0.006,0.154-0.004,0.197c0.008,0.127,0.04,0.225,0.097,0.291
			c-0.006,0.094,0.033,0.16,0.115,0.193c0.052-0.021,0.099-0.031,0.142-0.033c0.165-0.012,0.28,0.08,0.344,0.27
			c0.001,0.004,0,0.037-0.002,0.096c0.002,0.035,0.019,0.057,0.052,0.068c0.072-0.043,0.107-0.121,0.106-0.232
			c-0.001-0.129,0.015-0.211,0.049-0.246c-0.009-0.061-0.044-0.146-0.106-0.258c-0.063-0.113-0.096-0.201-0.1-0.266
			c-0.004-0.07,0.016-0.135,0.06-0.197c-0.038-0.012-0.055-0.035-0.053-0.074c0.003-0.062,0.004-0.094,0.004-0.098
			C33.836,239.238,34.135,239.236,34.438,239.305"></path>
		<path clip-path="url(#SVGID_2_)" d="M36.89,239.807h-0.007c-0.032,0.061-0.041,0.15-0.03,0.266
			c0.014,0.162,0.022,0.246,0.022,0.25c-0.024,0.012-0.058-0.002-0.098-0.035c-0.064,0.023-0.094,0.064-0.09,0.119
			c0,0.008,0.003,0.021,0.01,0.041c0.001,0.023,0.002,0.041,0.003,0.049c0.002,0.043-0.011,0.076-0.04,0.098
			c-0.071-0.039-0.167-0.064-0.283-0.076c-0.118-0.01-0.229-0.021-0.334-0.031c-0.002-0.543-0.075-1.076-0.22-1.596
			c0,0.006-0.003-0.049-0.009-0.162c0.001-0.078-0.018-0.135-0.053-0.17l-0.051,0.045c0-0.008,0.016-0.023,0.05-0.047
			c0.034-0.023,0.05-0.049,0.048-0.072c0-0.012-0.004-0.023-0.01-0.033l-0.054-0.041c-0.093,0.031-0.135,0.105-0.128,0.223
			c0.005,0.08-0.028,0.137-0.094,0.168c0.024,0.02,0.039,0.043,0.041,0.07c0.001,0.016-0.001,0.037-0.008,0.066
			c-0.006,0.027-0.008,0.051-0.007,0.066c0.002,0.035,0.021,0.064,0.057,0.086c0.002,0.023,0.014,0.238,0.038,0.646
			c0.015,0.26,0.008,0.479-0.021,0.658l0.005,0.104c-0.035-0.002-0.075,0-0.118,0c-0.05,0.002-0.123,0.01-0.216,0.023
			c-0.092,0.012-0.163,0.018-0.207,0.02c-0.183,0.012-0.312-0.02-0.385-0.092l-0.079-2.232c-0.036-0.109-0.059-0.262-0.071-0.457
			l-0.024-0.43c-0.018-0.211-0.045-0.373-0.082-0.486c0.015-0.078,0.083-0.121,0.202-0.127c0.074-0.004,0.173,0.006,0.3,0.031
			c0.057-0.025,0.139-0.045,0.242-0.051c0.03-0.002,0.076-0.002,0.142-0.002c0.069-0.004,0.119-0.008,0.148-0.008
			c0.194-0.012,0.321-0.072,0.384-0.18c0.09-0.002,0.187,0.027,0.292,0.086c0.105,0.059,0.197,0.09,0.276,0.092
			c0.211,0.123,0.325,0.328,0.341,0.615c0.004,0.064-0.021,0.318-0.075,0.76l-0.362,0.314c0.062,0.113,0.135,0.359,0.222,0.738
			C36.632,239.428,36.742,239.658,36.89,239.807 M36.221,237.268l0.008,0.006c0.005,0.027,0.003-0.072-0.01-0.293
			c-0.006-0.107-0.045-0.186-0.118-0.234c-0.041,0.059,0.006,0.086-0.014,0.221c-0.019,0.135-0.099,0.098-0.146,0.156
			c-0.124,0-0.152,0.076-0.179-0.043c-0.055-0.193-0.104-0.178-0.104-0.18l-0.053,0.031c-0.019,0.018-0.04,0.037-0.063,0.057
			c-0.024,0.021-0.047,0.029-0.073,0.023c0.001,0.023-0.011,0.061-0.034,0.113c-0.025,0.051-0.037,0.086-0.035,0.105
			c0.002,0.037,0.03,0.062,0.087,0.08c-0.01,0.08-0.013,0.164-0.008,0.252c0.003,0.047,0.014,0.156,0.034,0.328
			c0.022,0.135,0.03,0.25,0.026,0.346c0.046,0,0.087,0,0.127-0.002c0.175-0.01,0.287-0.078,0.338-0.205
			c0.018-0.037,0.038-0.17,0.06-0.398C36.083,237.457,36.135,237.336,36.221,237.268"></path>
		<path clip-path="url(#SVGID_2_)" d="M39.704,240.674c-0.071-0.021-0.146-0.027-0.226-0.023c-0.069,0.004-0.163,0.021-0.279,0.053
			c-0.134,0.031-0.224,0.051-0.272,0.057c-0.061-0.08-0.106-0.193-0.139-0.338c-0.058-0.213-0.093-0.334-0.104-0.361
			c0.014-0.023,0.02-0.045,0.019-0.061c-0.003-0.045-0.048-0.08-0.136-0.109c-0.089-0.027-0.133-0.055-0.134-0.072
			c-0.001-0.025,0.045-0.062,0.142-0.117c-0.026-0.021-0.048-0.07-0.064-0.143c-0.017-0.074-0.042-0.119-0.079-0.143
			c-0.057,0.047-0.153,0.082-0.288,0.104c-0.135,0.023-0.224,0.047-0.269,0.072c0.029,0.311,0,0.855-0.122,0.971
			c-0.069-0.008-0.121,0.016-0.151,0.076c-0.046,0.068-0.086,0.111-0.12,0.125l0.047,0.039c-0.039,0.031-0.102,0.047-0.19,0.047
			c-0.139,0.004-0.213,0.006-0.223,0.008l-0.051-0.107l0.208-3.588c-0.01-0.203-0.009-0.34,0.006-0.412
			c-0.02-0.18,0.022-0.293,0.13-0.344c0.071,0.031,0.158,0.043,0.263,0.037c0.083-0.004,0.214-0.027,0.39-0.07
			c0.177-0.041,0.299-0.064,0.37-0.068c0.242-0.014,0.359,0.119,0.35,0.398c-0.008,0.225,0.059,0.514,0.199,0.871
			c0.147,0.381,0.226,0.672,0.237,0.867c0.003,0.061,0.084,0.186,0.082,0.246c-0.102,0.055-0.234,0.09-0.396,0.113
			c-0.144,0.016-0.289,0.033-0.437,0.049c-0.062-0.301-0.204-0.664-0.265-0.963c-0.075-0.354-0.157-0.645-0.244-0.873l-0.095,1.723
			c-0.006,0.146,0.083,0.217,0.266,0.205c0.059-0.004,0.116-0.018,0.169-0.045c0.043-0.016,0.106,0.008,0.19,0.066
			c0.006,0.125,0.042,0.195,0.109,0.217c0.077-0.049,0.178-0.098,0.304-0.145c0.112-0.043,0.222-0.082,0.329-0.121
			c0.069,0.064,0.115,0.164,0.145,0.299c0.036,0.189,0.059,0.299,0.07,0.33c0.015,0.076,0.066,0.236,0.155,0.482
			c0.066,0.197,0.103,0.355,0.11,0.48C39.711,240.564,39.71,240.621,39.704,240.674"></path>
		<path clip-path="url(#SVGID_2_)" d="M41.754,236.602h0.007c-0.059,0.088-0.136,0.104-0.228,0.051
			c-0.021-0.006-0.109,0.002-0.268,0.014c-0.133,0.01-0.23,0.002-0.292-0.02c-0.015,0.002-0.045,0.018-0.087,0.045
			c-0.043,0.029-0.073,0.043-0.095,0.045c-0.029,0.002-0.045-0.023-0.048-0.074c0-0.008-0.002-0.043-0.005-0.104
			c-0.003-0.039-0.022-0.066-0.058-0.08l-0.092,0.072c-0.029,0.021-0.043,0.043-0.041,0.068c0,0.02,0.017,0.047,0.049,0.084
			c0.032,0.035,0.051,0.062,0.057,0.076c0,0.014,0.012,0.191,0.031,0.539c0.007,0.221,0.048,0.395,0.121,0.525
			c0.018-0.02,0.064-0.031,0.135-0.033s0.12-0.018,0.143-0.047c0.047,0.039,0.125,0.043,0.234,0.006
			c0.11-0.035,0.19-0.025,0.238,0.039l-0.015,0.527c-0.044-0.006-0.112-0.029-0.197-0.064c-0.026,0.074-0.075,0.125-0.147,0.145
			c-0.03,0.01-0.114,0.018-0.252,0.027c0.004-0.025-0.017-0.049-0.065-0.074c-0.134,0.064-0.185,0.217-0.151,0.457
			c0.003-0.023,0.008,0.018,0.015,0.127c0.004,0.066-0.011,0.115-0.043,0.145c-0.084,0.014-0.19-0.006-0.32-0.057
			c-0.128-0.049-0.223-0.074-0.276-0.07c-0.025,0.002-0.047,0.004-0.067,0.01l-0.139,0.043l-0.223-2.414l-0.025-0.459
			c0.184-0.062,0.414-0.104,0.686-0.119c0.214-0.012,0.492-0.01,0.835,0.006c0.022-0.045,0.063,0.014,0.113,0.012
			c0.024-0.002,0.062,0.002,0.112,0.008c0.05,0.008,0.088,0.01,0.113,0.01c0.03-0.002,0.056-0.008,0.08-0.018l0.036-0.037
			c0.101,0.029,0.154,0.082,0.158,0.156c0.002,0.033-0.007,0.088-0.029,0.164c-0.02,0.078-0.028,0.137-0.027,0.176
			C41.729,236.543,41.737,236.576,41.754,236.602 M40.885,240.631c-0.052,0.029-0.134,0.045-0.243,0.051
			c-0.144,0.01-0.23,0.016-0.26,0.021c-0.015-0.016-0.035-0.002-0.067-0.129c-0.02-0.082-0.072-0.121-0.155-0.115
			c-0.021,0-0.044,0.002-0.074,0.01l-0.134,0.008l-0.071-1.223c0.072-0.035,0.164-0.057,0.271-0.064
			c0.105-0.006,0.197,0.006,0.277,0.031c-0.001,0.047,0.062,0.066,0.19,0.057l0.141-0.008
			C40.846,239.611,40.897,240.232,40.885,240.631"></path>
		<path clip-path="url(#SVGID_2_)" d="M44.724,236.707l0.008,0.006c-0.071-0.004-0.295,0.01-0.468,0.033
			c-0.147,0.016-0.259,0.02-0.334,0.008c-0.072,0.047-0.099,0.113-0.079,0.195l0.046,0.027c-0.038,0.035-0.051,0.061-0.04,0.08
			l0.04,0.039c-0.009,0.709-0.011,1.102-0.006,1.176c0.011,0.188,0.033,0.354,0.065,0.496c-0.029,0.09-0.041,0.191-0.034,0.307
			c0.005,0.074,0.022,0.195,0.054,0.359c0.032,0.164,0.074,0.703,0.08,0.787c0.003,0.062,0.003,0.123-0.004,0.18
			c-0.068,0.027-0.142,0.043-0.221,0.049c-0.134,0.008-0.277-0.02-0.43-0.082c-0.019,0.016-0.04,0.033-0.064,0.055
			c-0.023,0.02-0.03,0.039-0.018,0.064c-0.049,0.012-0.117-0.006-0.206-0.061c-0.046-0.719-0.174-2.18-0.364-3.656
			c-0.067,0.061-0.189,0.01-0.318,0.027c-0.152,0.016-0.303-0.008-0.361,0.021c-0.074-0.08-0.058-0.105-0.064-0.236
			c-0.009-0.125-0.05-0.441-0.018-0.572c0.008-0.029,0.285-0.012,0.449-0.025c0.222-0.014,0.271,0.039,0.286,0.039
			c0.018-0.029,0.126-0.014,0.205-0.02c0.053,0.025,0.107-0.023,0.109,0.014c0.001,0.023,0,0.174-0.017,0.217
			c-0.018,0.043-0.026,0.074-0.025,0.094c0.003,0.049,0.038-0.021,0.118,0.006c0.09-0.002,0.181-0.006,0.275-0.01
			c0.105,0.01,0.226-0.027,0.217,0.061c0.018-0.025,0.029,0.018,0.18-0.043c0.111-0.049,0.179-0.18,0.157-0.27
			c-0.012-0.049,0.056-0.082,0.014-0.059c0.053-0.029,0.004-0.01,0.062-0.033c0.186,0.018,0.288-0.002,0.323-0.002
			c0.074-0.006,0.259,0.043,0.312,0.016c0.039,0.07,0.058,0.289,0.06,0.408C44.72,236.594,44.723,236.695,44.724,236.707"></path>
		<path clip-path="url(#SVGID_2_)" d="M47.131,239.201l-0.001-0.006c-0.026,0.053-0.041,0.115-0.042,0.182
			c-0.003,0.043,0,0.107,0.01,0.186c0.01,0.092,0.017,0.154,0.019,0.191c-0.04,0.002-0.2,0.012-0.477,0.027
			c-0.168,0.01-0.317,0.033-0.451,0.068l-0.147-0.111c-0.038,0.035-0.05,0.061-0.039,0.08c-0.025-0.002-0.14,0.004-0.342,0.02
			c-0.159,0.01-0.278,0.004-0.359-0.016c-0.074,0.072-0.168,0.078-0.282,0.018c-0.04-0.021-0.047-0.062-0.022-0.123
			c0.026-0.059,0.015-0.1-0.037-0.125c-0.001-0.129,0.003-0.326,0.018-0.596c0.016-0.24,0.019-0.428,0.012-0.564
			c-0.011-0.184-0.042-0.355-0.089-0.523c0.051-0.047,0.112-0.07,0.181-0.074c0.079-0.006,0.175,0.02,0.289,0.072
			c0.158,0.076,0.238,0.113,0.244,0.113l0.047,0.037c0.004-0.01,0.025-0.076,0.062-0.195c0.021-0.076,0.056-0.129,0.104-0.154
			l0.046,0.031c0.02-0.008,0.083-0.051,0.188-0.123c0.081-0.053,0.137-0.248,0.187-0.25c0.054-0.004,0.108,0.018,0.16,0.062
			c0.086,0.031,0.154,0.25,0.186,0.32c0.031,0.072,0.062,0.145,0.091,0.213c-0.222,0.021-0.407,0.031-0.551,0.027
			c-0.031,0.045-0.082,0.055-0.147,0.029c-0.066-0.025-0.113-0.018-0.14,0.023c0.005,0.072,0.011,0.201,0.022,0.389
			c0.005,0.168,0.013,0.299,0.023,0.395c0.013,0.146,0.037,0.281,0.069,0.404c0.039-0.004,0.228-0.016,0.563-0.033
			C46.759,239.182,46.96,239.184,47.131,239.201 M46.9,236.391c-0.043,0.006-0.095,0.012-0.149,0.014
			c-0.113,0.006-0.264,0.004-0.454-0.01c-0.234-0.01-0.376-0.016-0.426-0.018c-0.064,0.09-0.073,0.16-0.064,0.311
			c0.02,0.326,0.03,0.469,0.032,0.424c0.071,0.027,0.109,0.086,0.114,0.174c0.003,0.119,0.005,0.18,0.012,0.186
			c-0.034,0.012-0.049,0.055-0.045,0.123c-0.055-0.014-0.114-0.043-0.176-0.086c-0.084-0.057-0.11,0.139-0.107,0.088l-0.038,0.121
			l-0.047-0.033c-0.038,0.006-0.108-0.006-0.206-0.037c-0.099-0.029-0.169-0.059-0.21-0.09c-0.002-0.062,0.006-0.1,0.031-0.109
			l-0.102-0.078l-0.042,0.057c-0.087-0.41-0.147-1.133-0.113-1.576c0.189,0.014,0.411-0.018,0.639-0.027
			c0.153-0.008,0.369-0.018,0.646-0.037c0.317-0.023,0.544-0.039,0.682-0.047c0.062,0.041,0.096,0.096,0.099,0.168
			c0.003,0.045-0.005,0.115-0.027,0.215C46.925,236.221,46.897,236.342,46.9,236.391"></path>
		<path clip-path="url(#SVGID_2_)" d="M49.601,238.777h-0.007c-0.03,0.062-0.041,0.15-0.03,0.264
			c0.016,0.164,0.022,0.248,0.022,0.252c-0.025,0.01-0.057-0.002-0.099-0.035c-0.064,0.023-0.094,0.062-0.09,0.119
			c0.001,0.008,0.004,0.021,0.01,0.041c0.001,0.023,0.002,0.039,0.003,0.049c0.002,0.043-0.011,0.076-0.04,0.098
			c-0.072-0.041-0.167-0.066-0.285-0.078c-0.115-0.01-0.227-0.021-0.333-0.031c-0.002-0.543-0.075-1.076-0.219-1.594
			c0,0.006-0.003-0.051-0.008-0.162c0-0.078-0.018-0.135-0.056-0.17l-0.049,0.045c0-0.008,0.016-0.023,0.049-0.047
			s0.05-0.049,0.048-0.072c-0.001-0.012-0.004-0.023-0.009-0.037l-0.055-0.039c-0.092,0.031-0.135,0.104-0.127,0.225
			c0.004,0.08-0.028,0.137-0.096,0.168c0.026,0.018,0.04,0.041,0.042,0.068c0.001,0.018-0.001,0.039-0.008,0.066
			c-0.004,0.027-0.007,0.051-0.007,0.066c0.002,0.035,0.02,0.066,0.057,0.088c0.001,0.023,0.014,0.238,0.037,0.645
			c0.015,0.26,0.009,0.48-0.021,0.66l0.006,0.102c-0.034,0-0.075,0-0.119,0.002c-0.05,0.004-0.122,0.01-0.216,0.021
			c-0.092,0.012-0.162,0.02-0.207,0.021c-0.182,0.01-0.311-0.02-0.385-0.092l-0.078-2.232c-0.036-0.109-0.059-0.262-0.071-0.457
			l-0.025-0.43c-0.017-0.211-0.043-0.373-0.08-0.486c0.015-0.078,0.082-0.121,0.201-0.127c0.075-0.006,0.174,0.004,0.301,0.031
			c0.058-0.027,0.138-0.045,0.242-0.051c0.03-0.002,0.077-0.002,0.141-0.002c0.069-0.004,0.12-0.008,0.149-0.01
			c0.193-0.01,0.321-0.07,0.384-0.178c0.09,0,0.187,0.027,0.292,0.084c0.106,0.061,0.199,0.09,0.279,0.092
			c0.21,0.125,0.325,0.33,0.341,0.617c0.003,0.064-0.022,0.318-0.075,0.76l-0.363,0.314c0.062,0.113,0.136,0.357,0.223,0.736
			C49.342,238.398,49.454,238.629,49.601,238.777 M48.932,236.238l0.008,0.004c0.005,0.027,0.003-0.07-0.011-0.291
			c-0.006-0.109-0.045-0.186-0.118-0.234c-0.04,0.057-0.048-0.076-0.067,0.057c-0.021,0.137-0.052,0.232-0.099,0.293
			c-0.124-0.002-0.153-0.076-0.228-0.18c-0.046-0.066-0.068-0.008-0.068-0.014l-0.034,0.027c-0.019,0.018-0.04,0.037-0.063,0.059
			c-0.024,0.021-0.048,0.027-0.074,0.021c0.002,0.023-0.01,0.062-0.035,0.113c-0.023,0.051-0.034,0.088-0.034,0.107
			c0.002,0.035,0.031,0.061,0.086,0.078c-0.01,0.08-0.013,0.166-0.007,0.254c0.003,0.049,0.013,0.156,0.033,0.328
			c0.023,0.133,0.032,0.248,0.028,0.344c0.045,0.002,0.087,0.002,0.127,0c0.173-0.01,0.286-0.078,0.338-0.205
			c0.017-0.037,0.037-0.172,0.059-0.4C48.793,236.426,48.847,236.307,48.932,236.238"></path>
		<path clip-path="url(#SVGID_2_)" d="M24.974,228.48v0.008c-0.021,0.207-0.029,0.352-0.021,0.43
			c-0.032,0.012-0.075,0.016-0.125,0.006c-0.067-0.012-0.104-0.016-0.115-0.016c-0.029,0.002-0.051,0.012-0.069,0.029
			c-0.041-0.025-0.068-0.037-0.083-0.033c-0.039,0.023-0.058,0.057-0.056,0.1c0.001,0.02,0.008,0.049,0.022,0.096
			c0.013,0.045,0.021,0.076,0.022,0.1c0,0.027-0.005,0.074-0.019,0.135c-0.013,0.062-0.018,0.113-0.017,0.154
			c0.003,0.045,0.013,0.119,0.031,0.221c0.018,0.1,0.027,0.174,0.03,0.225c-0.021,0.1-0.028,0.199-0.023,0.299
			c0.006,0.123,0.041,0.289,0.102,0.496c0.011,0.004,0.021,0.004,0.033,0.004c0.024-0.002,0.054-0.021,0.089-0.055
			c0.034-0.033,0.064-0.051,0.088-0.053c0.019,0,0.039,0.002,0.061,0.014c0.065,0.209,0.099,0.346,0.103,0.406
			c0.001,0.029,0.001,0.061,0,0.092c-0.097,0.023-0.166-0.01-0.206-0.1c0.005-0.023-0.009-0.049-0.042-0.078l-0.109,0.115
			c0.107,0.016,0.148,0.096,0.127,0.242c-0.009,0.031-0.032,0.045-0.068,0.047c-0.062,0-0.09,0-0.087,0l-0.088-0.158l-0.035,0.045
			c-0.03-0.076-0.064-0.111-0.104-0.109c-0.022,0.002-0.06,0.02-0.114,0.055c-0.054,0.035-0.1,0.055-0.135,0.057
			c-0.029,0.002-0.058-0.008-0.087-0.023c-0.003-0.043-0.008-0.088-0.015-0.135c-0.008-0.047-0.032-0.076-0.073-0.088
			c-0.002-0.113,0.001-0.406,0.009-0.885c0.004-0.361,0-0.656-0.011-0.879c-0.005-0.094-0.011-0.186-0.019-0.273
			c-0.02-0.029-0.038-0.043-0.056-0.043c-0.015,0.002-0.037,0.018-0.066,0.047c-0.029,0.031-0.054,0.045-0.076,0.043
			c-0.003-0.037-0.02-0.096-0.05-0.174c-0.031-0.08-0.047-0.139-0.05-0.174c-0.002-0.062,0.021-0.115,0.068-0.16l0.127,0.031
			c0.05-0.072,0.072-0.191,0.063-0.361c-0.001-0.033-0.006-0.084-0.013-0.154c-0.008-0.07-0.012-0.121-0.013-0.154
			c-0.015-0.277,0.071-0.42,0.255-0.43c0.068-0.004,0.151,0.01,0.25,0.037l0.121,0.031c0.009,0.045,0.016,0.094,0.018,0.145
			c0.004,0.07,0.001,0.168-0.009,0.301c-0.01,0.135-0.013,0.23-0.01,0.291c0.005,0.098,0.022,0.188,0.052,0.264
			c0.029-0.002,0.074-0.018,0.136-0.047c0.062-0.029,0.106-0.047,0.136-0.047C24.901,228.41,24.943,228.432,24.974,228.48
			 M24.597,228.869l-0.006-0.123l-0.039-0.037L24.597,228.869z"></path>
		<path clip-path="url(#SVGID_2_)" d="M26.461,228.094l0.006-0.002c-0.012,0.1-0.028,0.199-0.044,0.297
			c-0.02,0.111-0.052,0.199-0.096,0.264c-0.007-0.002-0.052-0.023-0.133-0.064c-0.056-0.027-0.104-0.041-0.147-0.035
			c-0.034,0.213-0.052,0.5-0.055,0.865c-0.002,0.467-0.006,0.748-0.011,0.846c-0.055-0.004-0.095,0.016-0.123,0.053
			c-0.027,0.039-0.053,0.078-0.075,0.121c-0.011,0.021-0.015,0.043-0.014,0.059c0.001,0.031,0.026,0.059,0.074,0.084
			c0.049,0.027,0.073,0.057,0.075,0.088c-0.021,0.078-0.066,0.119-0.135,0.121c-0.032,0.002-0.088-0.008-0.169-0.027
			c-0.08-0.021-0.136-0.033-0.17-0.029l-0.078-1.549c0.031-0.041,0.043-0.068,0.04-0.082l-0.045-0.031
			c0.004-0.064,0.008-0.391,0.01-0.971c0.002-0.395,0.018-0.715,0.045-0.957c-0.004,0,0.107-0.006,0.334-0.023
			c0.14-0.006,0.232,0.033,0.272,0.117c0,0.08-0.008,0.213-0.024,0.402c-0.016,0.174-0.021,0.309-0.017,0.402
			c0.006,0.117,0.024,0.219,0.055,0.312C26.158,228.188,26.299,228.102,26.461,228.094 M27,228.424
			c0.011,0.143,0.018,0.285,0.027,0.422c0.03,0.6,0.02,1.24-0.028,1.92c-0.052,0.049-0.132,0.059-0.241,0.031
			c-0.107-0.025-0.186-0.014-0.233,0.031c-0.062-0.08-0.098-0.223-0.109-0.434c-0.015-0.303-0.023-0.459-0.024-0.471
			c-0.013-0.758,0.062-1.371,0.223-1.838C26.8,228.135,26.929,228.246,27,228.424"></path>
		<path clip-path="url(#SVGID_2_)" d="M28.898,229.209c-0.024,0.049-0.034,0.1-0.031,0.152c0.002,0.057,0.005,0.107,0.008,0.16
			c-0.006,0.041-0.018,0.086-0.037,0.131c-0.033-0.01-0.06-0.014-0.083-0.014c-0.025,0.002-0.051,0.012-0.077,0.029
			c-0.025,0.018-0.047,0.027-0.061,0.027c-0.022,0.002-0.05-0.006-0.088-0.023l-0.251-0.365c0.008,0.107,0.033,0.201,0.074,0.283
			c0.021,0.043,0.041,0.084,0.06,0.127c-0.146,0.025-0.23,0.031-0.248,0.012l-0.036,0.047l-0.087-0.115
			c-0.068,0.082-0.083,0.203-0.046,0.365c0.044,0.176,0.046,0.301,0.007,0.379c0.055,0.082,0.12,0.119,0.195,0.115
			c0.033-0.002,0.06-0.014,0.085-0.037c0.036-0.09,0.071-0.178,0.106-0.266c0.053-0.109,0.111-0.164,0.176-0.166
			c0.05-0.002,0.109,0.023,0.178,0.078c0.081,0.027,0.122,0.066,0.125,0.111c0.001,0.031-0.016,0.078-0.055,0.143
			c-0.038,0.064-0.057,0.115-0.055,0.152c0.001,0.014,0.003,0.025,0.007,0.037c-0.052,0.037-0.098,0.096-0.14,0.174
			c-0.042,0.08-0.096,0.133-0.164,0.162c-0.058,0.057-0.112,0.086-0.163,0.09c-0.041,0-0.1-0.029-0.179-0.092
			c-0.079-0.064-0.152-0.092-0.221-0.09c-0.028-0.064-0.099-0.135-0.211-0.211c-0.112-0.078-0.182-0.162-0.209-0.252
			c0.001,0.008,0-0.02-0.004-0.084c-0.002-0.039-0.018-0.061-0.047-0.068l0.041-0.041c-0.055-0.002-0.083-0.031-0.085-0.094
			c0-0.006-0.001-0.021-0.002-0.043c0.002-0.02,0.003-0.033,0.002-0.043c-0.002-0.043-0.017-0.072-0.042-0.09l-0.009-0.189
			c-0.005-0.098-0.025-0.168-0.06-0.209c0.036-0.229,0.071-0.459,0.106-0.689c0.059-0.266,0.146-0.402,0.261-0.408
			c0.019-0.002,0.036,0.002,0.054,0.008c0.105-0.102,0.229-0.158,0.377-0.166c0.163-0.008,0.342,0.043,0.539,0.146
			C28.766,228.637,28.861,228.91,28.898,229.209 M28.152,228.613l-0.037,0.045c-0.024,0.004-0.055-0.008-0.088-0.039l0.007,0.125
			c-0.056,0.059-0.077,0.152-0.068,0.279c0.011,0.217,0.016,0.32,0.016,0.314l0.162-0.004c0.077-0.043,0.114-0.115,0.107-0.217
			c-0.001-0.051-0.018-0.133-0.052-0.248C28.167,228.752,28.15,228.668,28.152,228.613"></path>
		<polygon clip-path="url(#SVGID_2_)" fill-rule="evenodd" clip-rule="evenodd" points="30.168,234.668 30.329,234.76 
			30.877,233.324 30.693,233.264 30.147,234.699 30.306,234.801 		"></polygon>
		<polygon clip-path="url(#SVGID_2_)" fill-rule="evenodd" clip-rule="evenodd" points="30.407,234.469 30.341,234.494 
			30.168,234.668 30.307,234.801 30.482,234.619 30.414,234.652 		"></polygon>
		<polygon clip-path="url(#SVGID_2_)" fill-rule="evenodd" clip-rule="evenodd" points="31.731,234.457 31.809,234.396 
			30.408,234.469 30.414,234.652 31.814,234.582 31.904,234.516 		"></polygon>
		<polygon clip-path="url(#SVGID_2_)" fill-rule="evenodd" clip-rule="evenodd" points="32.364,233.139 32.267,233.02 
			31.731,234.457 31.904,234.518 32.45,233.08 32.354,232.961 		"></polygon>
		<polygon clip-path="url(#SVGID_2_)" fill-rule="evenodd" clip-rule="evenodd" points="31.029,233.184 30.959,233.219 
			32.364,233.139 32.354,232.961 30.957,233.023 30.888,233.059 		"></polygon>
		<polygon clip-path="url(#SVGID_2_)" fill-rule="evenodd" clip-rule="evenodd" points="30.877,233.324 30.856,233.355 
			31.029,233.184 30.888,233.059 30.713,233.232 30.693,233.264 		"></polygon>
		<polygon clip-path="url(#SVGID_2_)" fill-rule="evenodd" clip-rule="evenodd" points="32.04,234.627 32.165,234.572 
			31.863,234.404 31.769,234.576 32.078,234.746 32.213,234.686 32.031,234.625 		"></polygon>
		<polygon clip-path="url(#SVGID_2_)" fill-rule="evenodd" clip-rule="evenodd" points="32.626,233.303 32.577,233.189 
			32.031,234.625 32.213,234.686 32.759,233.25 32.709,233.139 		"></polygon>
		<polygon clip-path="url(#SVGID_2_)" fill-rule="evenodd" clip-rule="evenodd" points="32.45,233.08 32.315,233.141 
			32.627,233.303 32.709,233.139 32.41,232.971 32.268,233.02 		"></polygon>
		<polygon clip-path="url(#SVGID_2_)" points="30.789,233.297 30.78,233.293 30.954,233.119 32.254,233.057 32.268,233.02 
			32.363,233.051 32.449,233.08 32.444,233.096 32.671,233.221 32.759,233.25 32.723,233.344 33.36,234.857 32.822,236.295 
			32.126,234.658 32.037,234.693 32.031,234.625 32.037,234.607 31.818,234.486 31.768,234.576 31.741,234.49 30.408,234.555 
			30.234,234.727 		"></polygon>
		<polygon clip-path="url(#SVGID_2_)" fill-rule="evenodd" clip-rule="evenodd" points="32.735,236.266 32.912,236.258 
			32.216,234.619 32.037,234.693 32.732,236.332 32.909,236.324 32.726,236.262 		"></polygon>
		<polygon clip-path="url(#SVGID_2_)" fill-rule="evenodd" clip-rule="evenodd" points="33.279,234.896 33.272,234.826 
			32.727,236.262 32.908,236.324 33.456,234.889 33.45,234.82 		"></polygon>
		<polygon clip-path="url(#SVGID_2_)" fill-rule="evenodd" clip-rule="evenodd" points="32.759,233.25 32.583,233.26 
			33.279,234.896 33.45,234.82 32.754,233.182 32.577,233.189 		"></polygon>
		<polygon clip-path="url(#SVGID_2_)" fill-rule="evenodd" clip-rule="evenodd" fill="#FFFFFF" points="32.713,233.619 
			32.791,233.791 32.82,233.963 32.811,234.135 32.762,234.311 32.675,234.482 32.557,234.637 32.403,234.777 32.218,234.898 
			32.118,234.943 32.017,234.986 31.904,235.006 31.799,235.029 31.698,235.043 31.589,235.055 31.488,235.041 31.384,235.035 
			31.294,235.014 31.199,234.982 31.107,234.943 31.026,234.896 30.957,234.844 30.878,234.789 30.815,234.719 30.763,234.645 
			30.684,234.475 30.656,234.301 30.656,234.127 30.714,233.955 30.789,233.787 30.911,233.627 31.063,233.484 31.257,233.365 
			31.351,233.32 31.46,233.277 31.562,233.258 31.667,233.232 31.777,233.221 31.877,233.207 31.979,233.221 32.083,233.229 
			32.179,233.258 32.274,233.291 32.361,233.32 32.449,233.369 32.521,233.412 32.597,233.477 32.649,233.553 		"></polygon>
		<polygon clip-path="url(#SVGID_2_)" fill-rule="evenodd" clip-rule="evenodd" points="32.782,233.902 32.86,234.074 
			32.885,234.256 32.878,234.426 32.83,234.594 32.753,234.77 32.623,234.928 32.482,235.064 32.288,235.182 32.184,235.234 
			32.083,235.277 31.979,235.299 31.867,235.322 31.766,235.336 31.667,235.342 31.562,235.336 31.453,235.318 31.364,235.297 
			31.268,235.266 31.184,235.229 31.095,235.18 31.022,235.135 30.957,235.076 30.89,235.014 30.832,234.928 30.751,234.766 
			30.723,234.594 30.734,234.414 30.781,234.246 30.858,234.07 30.977,233.916 31.13,233.775 31.323,233.658 31.427,233.605 
			31.526,233.57 31.632,233.539 31.746,233.52 31.844,233.514 31.945,233.498 32.045,233.514 32.149,233.52 32.248,233.543 
			32.344,233.572 32.427,233.611 32.519,233.652 32.589,233.703 32.667,233.758 32.718,233.834 32.779,233.912 		"></polygon>
		<polygon clip-path="url(#SVGID_2_)" fill-rule="evenodd" clip-rule="evenodd" fill="#FFFFFF" points="32.83,234.102 
			32.913,234.264 32.938,234.445 32.928,234.617 32.883,234.783 32.796,234.957 32.675,235.119 32.534,235.254 32.34,235.373 
			32.245,235.428 32.135,235.469 32.031,235.492 31.918,235.512 31.816,235.525 31.719,235.531 31.615,235.525 31.505,235.508 
			31.416,235.488 31.32,235.457 31.236,235.418 31.146,235.369 31.075,235.326 31,235.264 30.944,235.195 30.884,235.119 
			30.803,234.957 30.774,234.783 30.783,234.613 30.832,234.436 30.91,234.262 31.031,234.1 31.19,233.969 31.375,233.848 
			31.479,233.797 31.58,233.752 31.685,233.729 31.797,233.709 31.897,233.695 31.996,233.689 32.109,233.697 32.202,233.709 
			32.3,233.732 32.395,233.766 32.487,233.805 32.567,233.852 32.64,233.895 32.718,233.951 32.771,234.025 		"></polygon>
		<polygon clip-path="url(#SVGID_2_)" fill-rule="evenodd" clip-rule="evenodd" points="32.9,234.385 32.979,234.557 33.007,234.73 
			33.007,234.902 32.949,235.076 32.874,235.244 32.745,235.402 32.6,235.547 32.407,235.664 32.314,235.711 32.204,235.75 
			32.1,235.773 31.996,235.797 31.885,235.809 31.785,235.822 31.685,235.809 31.58,235.803 31.482,235.781 31.387,235.748 
			31.302,235.711 31.214,235.662 31.144,235.607 31.076,235.559 31.011,235.488 30.95,235.41 30.882,235.242 30.844,235.066 
			30.853,234.896 30.901,234.719 30.985,234.555 31.106,234.395 31.26,234.252 31.445,234.131 31.545,234.088 31.646,234.045 
			31.759,234.025 31.863,234 31.966,233.986 32.072,233.984 32.175,233.99 32.271,233.992 32.37,234.016 32.464,234.049 
			32.557,234.088 32.637,234.135 32.716,234.189 32.785,234.242 32.849,234.311 32.897,234.395 		"></polygon>
		<polygon clip-path="url(#SVGID_2_)" fill-rule="evenodd" clip-rule="evenodd" fill="#FFFFFF" points="33.001,234.572 
			33.083,234.736 33.111,234.908 33.108,235.09 33.062,235.258 32.975,235.432 32.846,235.59 32.704,235.725 32.519,235.848 
			32.415,235.898 32.305,235.938 32.201,235.963 32.097,235.984 31.987,235.996 31.889,236.004 31.785,235.996 31.684,235.982 
			31.586,235.959 31.49,235.928 31.406,235.889 31.323,235.852 31.245,235.797 31.178,235.736 31.116,235.666 31.063,235.592 
			30.982,235.43 30.947,235.246 30.956,235.076 31.01,234.91 31.09,234.734 31.209,234.572 31.36,234.439 31.545,234.318 
			31.649,234.268 31.75,234.225 31.861,234.213 31.967,234.18 32.068,234.166 32.175,234.164 32.279,234.17 32.372,234.18 
			32.47,234.203 32.573,234.238 32.657,234.275 32.742,234.312 32.82,234.369 32.886,234.43 32.95,234.5 		"></polygon>
		<polygon clip-path="url(#SVGID_2_)" fill-rule="evenodd" clip-rule="evenodd" points="33.08,234.859 33.149,235.027 
			33.187,235.203 33.177,235.373 33.128,235.549 33.044,235.715 32.923,235.877 32.77,236.018 32.585,236.139 32.484,236.184 
			32.374,236.221 32.271,236.244 32.167,236.268 32.065,236.283 31.956,236.293 31.854,236.279 31.75,236.273 31.661,236.254 
			31.558,236.219 31.474,236.182 31.393,236.137 31.314,236.08 31.245,236.029 31.181,235.959 31.129,235.885 31.052,235.715 
			31.014,235.537 31.022,235.367 31.08,235.193 31.155,235.025 31.277,234.865 31.43,234.723 31.624,234.604 31.716,234.559 
			31.826,234.518 31.929,234.494 32.035,234.471 32.144,234.461 32.245,234.445 32.345,234.461 32.441,234.463 32.548,234.49 
			32.643,234.521 32.728,234.561 32.808,234.605 32.886,234.66 32.955,234.713 33.018,234.781 		"></polygon>
		<polygon clip-path="url(#SVGID_2_)" fill-rule="evenodd" clip-rule="evenodd" points="23.531,232.654 23.54,232.6 22.99,234.045 
			23.164,234.102 23.712,232.658 23.715,232.621 		"></polygon>
		<polygon clip-path="url(#SVGID_2_)" fill-rule="evenodd" clip-rule="evenodd" points="23.516,232.582 23.52,232.574 
			23.53,232.654 23.715,232.621 23.696,232.537 23.699,232.529 		"></polygon>
		<polygon clip-path="url(#SVGID_2_)" fill-rule="evenodd" clip-rule="evenodd" points="23.496,232.5 23.516,232.582 23.7,232.529 
			23.678,232.443 		"></polygon>
		
			<rect x="23.536" y="232.338" transform="matrix(-0.2885 -0.9575 0.9575 -0.2885 -192.1757 322.058)" clip-path="url(#SVGID_2_)" fill-rule="evenodd" clip-rule="evenodd" width="0.08" height="0.191"></rect>
		<polygon clip-path="url(#SVGID_2_)" fill-rule="evenodd" clip-rule="evenodd" points="23.453,232.342 23.453,232.342 
			23.473,232.424 23.656,232.369 23.634,232.285 23.633,232.295 		"></polygon>
		<polygon clip-path="url(#SVGID_2_)" fill-rule="evenodd" clip-rule="evenodd" points="23.43,232.236 23.43,232.266 
			23.453,232.342 23.633,232.295 23.609,232.219 23.618,232.25 		"></polygon>
		<polygon clip-path="url(#SVGID_2_)" fill-rule="evenodd" clip-rule="evenodd" points="23.615,232.201 23.433,232.17 
			23.43,232.236 23.618,232.25 23.62,232.186 23.438,232.152 23.611,232.209 		"></polygon>
		<polygon clip-path="url(#SVGID_2_)" fill-rule="evenodd" clip-rule="evenodd" fill="#4D494A" points="23.772,236.402 
			23.755,236.311 23.562,236.342 23.576,236.443 		"></polygon>
		<polygon clip-path="url(#SVGID_2_)" fill-rule="evenodd" clip-rule="evenodd" points="24.175,235.199 24.18,235.154 
			23.633,236.59 23.808,236.646 24.354,235.211 24.351,235.162 		"></polygon>
		<polygon clip-path="url(#SVGID_2_)" fill-rule="evenodd" clip-rule="evenodd" points="24.159,235.098 24.174,235.199 
			24.35,235.162 24.337,235.061 24.15,235.096 		"></polygon>
		<polygon clip-path="url(#SVGID_2_)" fill-rule="evenodd" clip-rule="evenodd" points="24.134,235.004 24.15,235.096 
			24.337,235.061 24.311,234.965 		"></polygon>
		<polygon clip-path="url(#SVGID_2_)" fill-rule="evenodd" clip-rule="evenodd" points="24.111,234.898 24.117,234.91 
			24.134,235.004 24.31,234.965 24.296,234.865 24.301,234.877 		"></polygon>
		<polygon clip-path="url(#SVGID_2_)" fill-rule="evenodd" clip-rule="evenodd" points="24.284,234.812 24.1,234.789 
			24.111,234.898 24.301,234.877 24.287,234.775 24.103,234.752 		"></polygon>
		<path clip-path="url(#SVGID_2_)" fill="#4D494A" d="M22.991,233.758l-0.088,0.025L22.991,233.758z"></path>
		<polygon clip-path="url(#SVGID_2_)" fill="#4D494A" points="23.083,234.059 23.085,234.051 23.131,234.055 23.164,234.102 
			23.083,234.074 		"></polygon>
		<polygon clip-path="url(#SVGID_2_)" points="22.883,233.701 22.977,233.684 22.979,233.617 23.528,232.174 23.525,232.182 
			23.525,232.24 23.54,232.312 23.568,232.398 23.591,232.475 23.611,232.557 23.625,232.629 23.713,232.658 23.164,234.102 
			23.131,234.055 23.085,234.051 23.083,234.059 23.083,234.074 23.164,234.102 23.083,234.098 23.085,234.162 23.03,234.094 
			22.984,234.09 22.973,234.01 23.006,234.002 23.042,233.91 22.951,233.936 22.924,233.867 22.902,233.783 22.991,233.758 
			22.902,233.783 22.906,233.775 		"></polygon>
		<polygon clip-path="url(#SVGID_2_)" points="23.08,233.979 27.101,233.846 27.204,233.852 27.222,233.859 27.32,233.881 
			27.329,233.885 27.434,233.918 27.534,233.963 27.542,233.965 27.638,234.025 27.655,234.031 27.73,234.096 27.754,234.113 
			27.809,234.178 27.813,234.189 27.852,234.25 27.854,234.271 27.677,234.324 27.649,234.279 27.646,234.289 27.601,234.225 
			27.602,234.225 27.539,234.176 27.554,234.189 27.456,234.139 27.456,234.139 27.354,234.096 27.268,234.064 27.169,234.043 
			27.187,234.049 27.095,234.037 27.095,234.027 23.085,234.162 		"></polygon>
		<polygon clip-path="url(#SVGID_2_)" points="27.673,234.326 27.677,234.324 27.687,234.34 		"></polygon>
		<polygon clip-path="url(#SVGID_2_)" fill-rule="evenodd" clip-rule="evenodd" points="29.82,237.699 29.82,237.643 
			29.271,239.086 29.454,239.146 30.002,237.703 30.002,237.645 		"></polygon>
		<polygon clip-path="url(#SVGID_2_)" fill-rule="evenodd" clip-rule="evenodd" points="28.233,232.904 28.221,232.883 
			29.82,237.699 30.002,237.645 28.403,232.828 28.4,232.809 		"></polygon>
		<polygon clip-path="url(#SVGID_2_)" fill-rule="evenodd" clip-rule="evenodd" points="28.201,232.855 28.196,232.844 
			28.233,232.904 28.4,232.809 28.363,232.746 28.354,232.742 28.192,232.854 		"></polygon>
		<polygon clip-path="url(#SVGID_2_)" fill-rule="evenodd" clip-rule="evenodd" points="28.164,232.795 28.149,232.781 
			28.192,232.854 28.354,232.742 28.294,232.666 28.279,232.65 		"></polygon>
		<polygon clip-path="url(#SVGID_2_)" fill-rule="evenodd" clip-rule="evenodd" points="28.1,232.756 28.086,232.74 28.165,232.795 
			28.279,232.65 28.201,232.598 28.187,232.582 		"></polygon>
		<polygon clip-path="url(#SVGID_2_)" fill-rule="evenodd" clip-rule="evenodd" points="28.014,232.697 28.005,232.695 
			28.1,232.756 28.188,232.582 28.088,232.531 28.081,232.527 		"></polygon>
		<polygon clip-path="url(#SVGID_2_)" fill-rule="evenodd" clip-rule="evenodd" points="27.921,232.656 27.901,232.66 
			28.014,232.697 28.08,232.527 27.979,232.482 27.97,232.482 27.91,232.662 		"></polygon>
		<polygon clip-path="url(#SVGID_2_)" fill-rule="evenodd" clip-rule="evenodd" points="27.817,232.623 27.805,232.629 
			27.911,232.662 27.97,232.482 27.866,232.447 27.813,232.631 		"></polygon>
		<polygon clip-path="url(#SVGID_2_)" fill-rule="evenodd" clip-rule="evenodd" points="27.736,232.605 27.719,232.6 
			27.813,232.631 27.866,232.447 27.76,232.42 27.751,232.418 		"></polygon>
		<polygon clip-path="url(#SVGID_2_)" fill-rule="evenodd" clip-rule="evenodd" points="27.644,232.594 27.641,232.602 
			27.737,232.605 27.751,232.418 27.649,232.4 27.638,232.408 		"></polygon>
		<polygon clip-path="url(#SVGID_2_)" fill-rule="evenodd" clip-rule="evenodd" points="23.721,232.662 23.624,232.723 
			27.644,232.594 27.638,232.408 23.625,232.543 23.54,232.6 23.712,232.658 		"></polygon>
		<polygon clip-path="url(#SVGID_2_)" fill="#4D494A" points="24.731,237.051 24.717,237.043 24.726,237.039 		"></polygon>
		<path clip-path="url(#SVGID_2_)" fill="#4D494A" d="M26.903,237.699l-0.016,0.195L26.903,237.699z"></path>
		<path clip-path="url(#SVGID_2_)" d="M23.576,236.443l0.018,0.094l0.035,0.098l0.043,0.072l0.246,0.129l0.245,0.131l0.237,0.127
			l0.239,0.119l0.009,0.004l0.243,0.107l0.242,0.111l0.263,0.107l0.266,0.098l0.009,0.002l0.283,0.076l0.283,0.074l0.01,0.004
			l0.311,0.047l0.321,0.049l0.009,0.002l0.349,0.02l0.013-0.006l0.372,0.01l0.398-0.012l0.422-0.021l0.086-0.059l0.545-1.434
			l-0.092-0.129l0.006,0.186l-0.03-0.037l0.021-0.053l-0.061,0.004l-0.026-0.033l-0.013,0.037l-0.314,0.018H28.16l-0.372-0.008
			l-0.341-0.018l-0.332-0.043l-0.31-0.057l-0.283-0.074l-0.283-0.074l-0.266-0.1l-0.257-0.096l-0.243-0.111l-0.24-0.115
			l-0.249-0.123l-0.237-0.127l-0.235-0.127l-0.165-0.086l0.004-0.016l-0.085-0.029l-0.023-0.104l-0.018-0.092l-0.007-0.031
			l0.065-0.143l-0.092-0.029l-0.005-0.002l-0.085-0.027l-0.547,1.434l-0.006,0.047l0.015,0.1L23.576,236.443z M23.643,236.215
			l0.003,0.02l-0.011-0.004L23.643,236.215z"></path>
		<polygon clip-path="url(#SVGID_2_)" fill-rule="evenodd" clip-rule="evenodd" points="28.564,236.473 28.986,236.449 
			28.98,236.264 28.559,236.287 		"></polygon>
		
			<rect x="28.163" y="236.293" transform="matrix(-0.9996 0.0294 -0.0294 -0.9996 63.6624 471.8355)" clip-path="url(#SVGID_2_)" fill-rule="evenodd" clip-rule="evenodd" width="0.399" height="0.186"></rect>
		<polygon clip-path="url(#SVGID_2_)" fill-rule="evenodd" clip-rule="evenodd" points="27.785,236.473 27.793,236.475 
			28.166,236.484 28.161,236.299 27.788,236.289 27.799,236.285 27.782,236.48 		"></polygon>
		<polygon clip-path="url(#SVGID_2_)" fill-rule="evenodd" clip-rule="evenodd" points="27.426,236.449 27.436,236.451 
			27.782,236.48 27.8,236.285 27.45,236.262 27.458,236.268 		"></polygon>
		<polygon clip-path="url(#SVGID_2_)" fill-rule="evenodd" clip-rule="evenodd" points="27.103,236.408 27.426,236.449 
			27.458,236.268 27.138,236.217 		"></polygon>
		<polygon clip-path="url(#SVGID_2_)" fill-rule="evenodd" clip-rule="evenodd" points="26.785,236.35 26.794,236.354 
			27.103,236.408 27.137,236.217 26.817,236.168 26.826,236.17 		"></polygon>
		<polygon clip-path="url(#SVGID_2_)" fill-rule="evenodd" clip-rule="evenodd" points="26.502,236.275 26.785,236.35 
			26.826,236.17 26.543,236.096 26.499,236.283 		"></polygon>
		<polygon clip-path="url(#SVGID_2_)" fill-rule="evenodd" clip-rule="evenodd" points="26.208,236.205 26.217,236.209 
			26.5,236.283 26.543,236.096 26.26,236.021 26.269,236.023 		"></polygon>
		<polygon clip-path="url(#SVGID_2_)" fill-rule="evenodd" clip-rule="evenodd" points="25.942,236.107 25.942,236.107 
			26.207,236.205 26.269,236.023 26.002,235.926 26.012,235.928 25.933,236.104 		"></polygon>
		<polygon clip-path="url(#SVGID_2_)" fill-rule="evenodd" clip-rule="evenodd" points="25.679,236 25.934,236.104 26.012,235.928 
			25.758,235.824 		"></polygon>
		<polygon clip-path="url(#SVGID_2_)" fill-rule="evenodd" clip-rule="evenodd" points="25.437,235.891 25.678,236 25.757,235.824 
			25.512,235.721 		"></polygon>
		<polygon clip-path="url(#SVGID_2_)" fill-rule="evenodd" clip-rule="evenodd" points="25.188,235.768 25.193,235.781 
			25.437,235.891 25.512,235.721 25.264,235.602 25.272,235.605 25.185,235.777 		"></polygon>
		<polygon clip-path="url(#SVGID_2_)" fill-rule="evenodd" clip-rule="evenodd" points="24.949,235.65 25.186,235.777 
			25.272,235.605 25.032,235.486 24.946,235.658 		"></polygon>
		<polygon clip-path="url(#SVGID_2_)" fill-rule="evenodd" clip-rule="evenodd" points="24.712,235.523 24.946,235.658 
			25.032,235.486 24.796,235.359 24.703,235.521 		"></polygon>
		<polygon clip-path="url(#SVGID_2_)" fill-rule="evenodd" clip-rule="evenodd" points="24.466,235.393 24.703,235.521 
			24.796,235.359 24.559,235.23 		"></polygon>
		<polygon clip-path="url(#SVGID_2_)" fill-rule="evenodd" clip-rule="evenodd" points="24.353,235.211 24.22,235.264 
			24.466,235.393 24.559,235.23 24.313,235.102 24.18,235.154 		"></polygon>
		<polygon clip-path="url(#SVGID_2_)" fill-rule="evenodd" clip-rule="evenodd" points="49.391,232.611 48.842,234.055 
			50.635,234.652 51.051,233.695 51.062,233.602 51.066,233.506 51.051,233.404 51.016,233.307 50.959,233.221 50.912,233.127 
			50.837,233.035 50.76,232.951 50.679,232.877 50.589,232.799 50.497,232.729 50.407,232.68 50.32,232.621 50.219,232.578 
			50.13,232.529 50.043,232.502 49.965,232.475 49.872,232.463 49.789,232.455 49.708,232.465 49.627,232.479 49.541,232.506 
			49.465,232.559 		"></polygon>
		<polygon clip-path="url(#SVGID_2_)" fill-rule="evenodd" clip-rule="evenodd" points="50.554,234.605 50.666,234.557 
			48.873,233.959 48.812,234.141 50.606,234.738 50.728,234.691 		"></polygon>
		<polygon clip-path="url(#SVGID_2_)" points="22.883,233.613 22.892,233.588 23.439,232.152 23.611,232.209 23.082,233.629 
			23.071,233.686 23.068,233.666 22.883,233.701 22.881,233.68 		"></polygon>
		<polygon clip-path="url(#SVGID_2_)" fill="#4D494A" points="31.677,237.01 31.646,237.029 31.643,237.027 		"></polygon>
		<path clip-path="url(#SVGID_2_)" d="M22.95,233.936l0.019,0.082l0.003-0.008l0.14-0.029l-0.036,0.094l4.021-0.133l0.095,0.004
			l0.104,0.035l0.104,0.033l0.103,0.035l0.096,0.061l0.078,0.055l0.055,0.066l0.034,0.066l-0.094,0.029l1.598,4.818h0.095
			l0.001,0.059h0.144l0.136-0.002l0.124,0.002l0.113-0.02l0.115-0.029l0.116-0.057l0.107-0.09l0.126-0.121l0.003-0.01l0.073-0.1
			l0.083-0.107l0.096-0.111l0.066-0.113l0.084-0.135l0.086-0.117l0.071-0.129l0.094-0.135l0.074-0.109l0.107-0.117l0.087-0.115
			l0.101-0.102l0.089-0.096l0.096-0.084l0.092-0.074l0.108-0.059l0.022-0.014l-0.069-0.066l0.069,0.066l0.107-0.117l0.098-0.094
			l0.087-0.086l0.093-0.076l0.09-0.064l0.093-0.057l0.084-0.049l0.093-0.045l0.104-0.023l0.102-0.043l0.104-0.023l0.12-0.018
			l0.133-0.023l0.148-0.008l0.16-0.014l0.155-0.008l0.009,0.004l17.351-1.297l0.101-0.012l0.093-0.02l0.083-0.02l0.087-0.029
			L51.357,235l0.084-0.051l0.069-0.062l0.081-0.07l0.018-0.021l0.303-0.707l-0.158-0.104l0.07,0.07l-0.012,0.01l-0.077-0.057
			l-0.076,0.18l-0.051,0.027l-0.066,0.029l-0.078,0.029l-0.073,0.016l-0.091,0.018l-0.093,0.016l-17.359,1.293l-0.11,0.012
			l-0.106,0.004l-0.106,0.002l-0.113,0.02h-0.116l-0.1,0.016l-0.111,0.012l-0.1,0.014l-0.114,0.021l-0.101,0.014l-0.103,0.021
			l-0.116,0.031l-0.105,0.021l-0.11,0.041l-0.11,0.041l-0.104,0.053l-0.205,0.123l-0.208,0.189l-0.22,0.227l-0.211,0.256
			l-0.205,0.27l-0.176,0.24l-0.173,0.23l-0.144,0.172l-0.084,0.021l-0.072,0.014l-0.09,0.008h-0.086h-0.087l-0.074-0.004
			l-0.096-0.004l-0.084-0.01l-1.594-4.805l-0.034-0.07l-0.055-0.066l-0.078-0.055l-0.105-0.062l-0.101-0.043l-0.104-0.037
			l-0.098-0.021l-0.096-0.004l-4.017,0.123l-0.483,1.271l-0.003-0.018L22.95,233.936z M51.82,234.068l0.005-0.012l0.066,0.062
			L51.82,234.068z"></path>
		<polygon clip-path="url(#SVGID_2_)" fill-rule="evenodd" clip-rule="evenodd" points="51.213,234.422 51.316,234.398 
			51.408,234.381 51.494,234.361 51.58,234.332 51.66,234.291 51.745,234.244 51.811,234.188 51.892,234.119 51.754,233.984 
			51.693,234.053 51.629,234.098 51.568,234.137 51.502,234.162 51.438,234.18 51.363,234.201 51.282,234.215 51.193,234.223 		"></polygon>
		<polygon clip-path="url(#SVGID_2_)" fill-rule="evenodd" clip-rule="evenodd" points="33.864,235.709 51.213,234.422 
			51.193,234.223 33.842,235.518 		"></polygon>
		<polygon clip-path="url(#SVGID_2_)" fill-rule="evenodd" clip-rule="evenodd" points="32.164,236.018 32.264,235.975 
			32.363,235.938 32.482,235.902 32.58,235.867 32.686,235.836 32.787,235.822 32.889,235.805 33.001,235.787 33.094,235.768 
			33.2,235.768 33.311,235.756 33.42,235.742 33.529,235.73 33.627,235.727 33.746,235.717 33.864,235.709 33.843,235.518 
			33.731,235.531 33.624,235.541 33.507,235.541 33.397,235.553 33.29,235.557 33.187,235.578 33.079,235.582 32.96,235.59 
			32.856,235.613 32.753,235.635 32.64,235.656 32.524,235.686 32.427,235.721 32.308,235.756 32.19,235.795 32.085,235.846 		"></polygon>
		<polygon clip-path="url(#SVGID_2_)" fill-rule="evenodd" clip-rule="evenodd" points="30.609,237.73 30.647,237.707 
			30.725,237.615 30.793,237.523 30.877,237.418 30.964,237.301 31.063,237.18 31.152,237.057 31.253,236.926 31.355,236.797 
			31.458,236.658 31.565,236.539 31.67,236.43 31.777,236.311 31.866,236.215 31.979,236.139 32.071,236.062 32.164,236.018 
			32.085,235.846 31.966,235.912 31.866,235.984 31.748,236.08 31.635,236.188 31.531,236.297 31.427,236.406 31.312,236.551 
			31.209,236.68 31.109,236.811 31.008,236.941 30.919,237.064 30.82,237.186 30.733,237.301 30.65,237.408 30.581,237.5 
			30.517,237.576 30.551,237.557 		"></polygon>
		<polygon clip-path="url(#SVGID_2_)" fill-rule="evenodd" clip-rule="evenodd" fill="#FFFFFF" points="27.286,232.512 
			27.644,232.506 27.673,232.506 24.597,231.48 24.441,231.574 27.282,232.521 		"></polygon>
		<polygon clip-path="url(#SVGID_2_)" fill-rule="evenodd" clip-rule="evenodd" fill="#FFFFFF" points="27.286,232.512 
			23.625,232.629 23.611,232.557 23.591,232.475 23.569,232.398 23.54,232.312 23.525,232.24 23.525,232.182 23.548,232.113 
			23.611,232.066 23.763,231.963 23.93,231.865 24.097,231.766 24.265,231.668 24.424,231.566 24.441,231.574 27.282,232.521 		"></polygon>
		<polygon clip-path="url(#SVGID_2_)" fill="#FFFFFF" points="25.061,234.734 27.554,234.594 28.529,234.988 28.873,236.006 
			28.978,236.359 28.564,236.385 28.161,236.385 27.788,236.377 27.447,236.359 27.115,236.316 26.805,236.26 26.522,236.186 
			26.24,236.111 25.974,236.012 25.716,235.916 25.474,235.805 25.234,235.689 24.986,235.566 24.749,235.439 24.513,235.312 
			24.267,235.182 24.244,235.078 24.226,234.986 24.204,234.883 24.188,234.781 		"></polygon>
		<polygon clip-path="url(#SVGID_2_)" fill-rule="evenodd" clip-rule="evenodd" fill="#FFFFFF" points="31.34,235.02 
			31.376,235.061 31.696,235.254 31.8,235.088 31.479,234.895 31.511,234.943 31.34,235.02 31.353,235.043 31.376,235.061 		"></polygon>
		<polygon clip-path="url(#SVGID_2_)" fill-rule="evenodd" clip-rule="evenodd" fill="#FFFFFF" points="28.489,235.08 
			28.435,235.014 28.892,236.389 29.072,236.332 28.617,234.957 28.568,234.904 28.617,234.957 28.603,234.916 28.568,234.904 		"></polygon>
		<polygon clip-path="url(#SVGID_2_)" fill-rule="evenodd" clip-rule="evenodd" fill="#FFFFFF" points="27.563,234.684 
			27.517,234.678 28.49,235.08 28.568,234.904 27.595,234.502 27.556,234.5 27.595,234.502 27.577,234.496 27.556,234.5 		"></polygon>
		<polygon clip-path="url(#SVGID_2_)" fill-rule="evenodd" clip-rule="evenodd" fill="#FFFFFF" points="24.287,234.775 
			24.195,234.879 27.562,234.684 27.557,234.5 24.189,234.693 24.1,234.789 24.189,234.693 24.082,234.697 24.1,234.789 		"></polygon>
		<polygon clip-path="url(#SVGID_2_)" fill-rule="evenodd" clip-rule="evenodd" fill="#FFFFFF" points="24.314,235.102 
			24.351,235.162 24.348,235.113 24.336,235.061 24.333,235.012 24.319,234.969 24.315,234.92 24.304,234.869 24.291,234.824 
			24.287,234.775 24.1,234.789 24.099,234.848 24.108,234.908 24.122,234.949 24.125,235 24.14,235.043 24.151,235.096 
			24.171,235.15 24.175,235.199 24.22,235.264 24.175,235.199 24.188,235.242 24.22,235.264 		"></polygon>
		<polygon clip-path="url(#SVGID_2_)" fill-rule="evenodd" clip-rule="evenodd" fill="#FFFFFF" points="28.893,236.379 
			28.971,236.26 28.559,236.287 28.16,236.299 27.799,236.285 27.45,236.262 27.138,236.217 26.826,236.17 26.543,236.096 
			26.269,236.023 26.002,235.926 25.758,235.824 25.512,235.721 25.272,235.605 25.033,235.486 24.796,235.359 24.559,235.23 
			24.313,235.102 24.22,235.264 24.466,235.393 24.703,235.521 24.946,235.658 25.185,235.777 25.437,235.891 25.678,236 
			25.942,236.107 26.207,236.205 26.499,236.283 26.785,236.35 27.102,236.408 27.435,236.451 27.782,236.48 28.167,236.484 
			28.564,236.473 28.995,236.451 29.073,236.332 28.995,236.451 29.113,236.441 29.073,236.332 28.892,236.389 		"></polygon>
		<polygon clip-path="url(#SVGID_2_)" fill-rule="evenodd" clip-rule="evenodd" fill="#FFFFFF" points="33.842,235.518 
			33.715,235.523 33.573,235.543 33.446,235.549 33.308,235.561 33.174,235.584 33.033,235.605 32.892,235.625 32.755,235.656 
			32.619,235.689 32.501,235.725 32.371,235.768 32.25,235.814 32.146,235.867 32.022,235.922 31.921,235.994 31.828,236.07 
			31.944,236.215 32.033,236.146 32.12,236.088 32.215,236.033 32.325,235.994 32.432,235.934 32.548,235.904 32.684,235.873 
			32.802,235.836 32.932,235.822 33.048,235.793 33.187,235.781 33.319,235.758 33.461,235.738 33.599,235.725 33.729,235.711 
			33.864,235.709 		"></polygon>
		<polygon clip-path="url(#SVGID_2_)" fill-rule="evenodd" clip-rule="evenodd" fill="#FFFFFF" points="51.192,234.223 
			33.842,235.518 33.864,235.709 51.212,234.422 		"></polygon>
		<polygon clip-path="url(#SVGID_2_)" fill-rule="evenodd" clip-rule="evenodd" fill="#FFFFFF" points="51.516,233.164 
			51.588,233.266 51.664,233.359 51.698,233.457 51.753,233.553 51.781,233.639 51.791,233.729 51.792,233.807 51.788,233.881 
			51.767,233.941 51.738,234 51.701,234.055 51.634,234.109 51.565,234.145 51.455,234.186 51.339,234.215 51.193,234.223 
			51.213,234.422 51.371,234.406 51.51,234.367 51.631,234.318 51.738,234.262 51.837,234.195 51.906,234.104 51.944,234.02 
			51.978,233.916 51.976,233.809 51.981,233.705 51.958,233.602 51.92,233.484 51.877,233.381 51.819,233.266 51.745,233.146 
			51.669,233.053 		"></polygon>
		<polygon clip-path="url(#SVGID_2_)" fill-rule="evenodd" clip-rule="evenodd" fill="#FFFFFF" points="49.448,232.178 
			49.604,232.172 49.763,232.186 49.924,232.221 50.08,232.244 50.228,232.293 50.376,232.342 50.517,232.408 50.65,232.473 
			50.789,232.547 50.915,232.629 51.051,232.713 51.149,232.793 51.253,232.885 51.354,232.986 51.438,233.082 51.517,233.164 
			51.669,233.053 51.58,232.945 51.479,232.844 51.377,232.742 51.265,232.648 51.141,232.559 51.017,232.471 50.89,232.389 
			50.745,232.301 50.596,232.232 50.441,232.172 50.286,232.119 50.122,232.064 49.96,232.029 49.795,232.004 49.606,231.99 
			49.443,231.99 		"></polygon>
		<polygon clip-path="url(#SVGID_2_)" fill-rule="evenodd" clip-rule="evenodd" fill="#FFFFFF" points="34.097,232.705 
			49.448,232.178 49.443,231.99 34.099,232.523 		"></polygon>
		<polygon clip-path="url(#SVGID_2_)" fill-rule="evenodd" clip-rule="evenodd" fill="#FFFFFF" points="31.673,232.32 
			31.818,232.379 31.971,232.41 32.118,232.459 32.271,232.49 32.432,232.525 32.583,232.566 32.747,232.592 32.895,232.613 
			33.048,232.645 33.207,232.658 33.362,232.682 33.516,232.684 33.663,232.705 33.819,232.699 33.96,232.709 34.097,232.705 
			34.099,232.523 33.954,232.523 33.813,232.514 33.68,232.51 33.53,232.498 33.38,232.486 33.23,232.475 33.083,232.455 
			32.927,232.432 32.774,232.398 32.626,232.379 32.477,232.34 32.321,232.316 32.17,232.273 32.011,232.23 31.878,232.197 
			31.731,232.148 31.67,232.33 		"></polygon>
		<polygon clip-path="url(#SVGID_2_)" fill-rule="evenodd" clip-rule="evenodd" fill="#FFFFFF" points="26.495,230.902 
			26.757,230.865 27.005,230.84 27.243,230.822 27.459,230.809 27.665,230.799 27.85,230.824 28.04,230.828 28.199,230.844 
			28.364,230.869 28.517,230.902 28.661,230.932 28.791,230.975 28.93,231.02 29.04,231.066 29.175,231.121 29.282,231.176 
			29.405,231.236 29.53,231.297 29.652,231.367 29.773,231.436 29.895,231.506 30.021,231.588 30.146,231.648 30.281,231.73 
			30.432,231.801 30.575,231.887 30.738,231.951 30.894,232.031 31.069,232.109 31.261,232.174 31.463,232.26 31.67,232.33 
			31.731,232.148 31.523,232.078 31.318,232 31.147,231.934 30.968,231.863 30.804,231.781 30.663,231.713 30.518,231.627 
			30.376,231.561 30.238,231.484 30.108,231.414 29.987,231.344 29.86,231.262 29.738,231.193 29.614,231.133 29.49,231.072 
			29.377,231.006 29.253,230.945 29.118,230.891 28.99,230.838 28.851,230.791 28.705,230.742 28.551,230.711 28.396,230.688 
			28.224,230.65 28.048,230.629 27.867,230.627 27.655,230.625 27.454,230.623 27.219,230.633 26.982,230.65 26.732,230.682 
			26.472,230.711 26.485,230.896 		"></polygon>
		<polygon clip-path="url(#SVGID_2_)" fill-rule="evenodd" clip-rule="evenodd" fill="#FFFFFF" points="23.661,232.152 
			23.811,232.047 23.979,231.947 24.146,231.85 24.315,231.744 24.473,231.65 24.65,231.557 24.814,231.467 24.983,231.389 
			25.167,231.305 25.347,231.221 25.526,231.146 25.711,231.082 25.912,231.035 26.093,230.979 26.292,230.932 26.486,230.896 
			26.472,230.711 26.255,230.752 26.05,230.791 25.848,230.848 25.656,230.9 25.466,230.98 25.27,231.051 25.091,231.127 
			24.909,231.209 24.724,231.301 24.548,231.396 24.383,231.484 24.215,231.584 24.047,231.682 23.88,231.781 23.722,231.881 
			23.562,231.982 23.652,232.148 		"></polygon>
		<polygon clip-path="url(#SVGID_2_)" fill-rule="evenodd" clip-rule="evenodd" fill="#FFFFFF" points="23.626,232.543 
			23.724,232.623 23.695,232.537 23.678,232.443 23.655,232.369 23.635,232.285 23.624,232.234 23.614,232.201 23.629,232.16 
			23.652,232.148 23.562,231.982 23.479,232.061 23.435,232.162 23.424,232.254 23.453,232.342 23.473,232.424 23.496,232.5 
			23.52,232.574 23.533,232.646 23.624,232.725 23.533,232.646 23.536,232.725 23.624,232.725 		"></polygon>
		<polygon clip-path="url(#SVGID_2_)" fill="#FFFFFF" points="30.717,233.225 30.715,233.232 30.713,233.232 		"></polygon>
		<polygon clip-path="url(#SVGID_2_)" fill="#FFFFFF" points="30.674,233.268 30.713,233.232 30.691,233.332 		"></polygon>
		<polygon clip-path="url(#SVGID_2_)" fill="#FFFFFF" points="33.258,234.371 36.423,235.426 36.081,235.447 36.078,235.455 
			33.329,234.539 		"></polygon>
		<path clip-path="url(#SVGID_2_)" fill="#FFFFFF" d="M23.624,232.723l4.021-0.129l0.083,0.008l0.078,0.027l0.105,0.033l0.094,0.033
			l0.086,0.059l0.063,0.039l0.038,0.061l0.029,0.029l1.6,4.816l0.023,0.074l0.078-0.002l0.081-0.01l0.092,0.01l0.113,0.01
			l0.106-0.004l0.104,0.006l0.095-0.025l0.106-0.031l0.087-0.057l0.104-0.113l0.086-0.113l0.081-0.098l0.081-0.098l0.069-0.094
			l0.066-0.084l0.058-0.084l0.07-0.094l0.058-0.088l0.066-0.082l0.067-0.084l0.072-0.074l0.075-0.08l0.087-0.086l0.086-0.088
			l0.11-0.096l-0.059-0.074l0.086-0.07l0.1-0.064l0.113-0.049l0.104-0.053l0.112-0.049l0.127-0.035l0.13-0.043l0.127-0.035
			l0.122-0.018l0.132-0.023l0.141-0.02l0.133-0.021l0.138-0.012l0.139-0.014l0.129-0.012l0.127-0.008l2.231-0.16l-2.749-0.916
			l-0.072-0.168l3.166,1.055l14.783-1.104l0.276-0.043l0.205-0.094l0.142-0.137l0.05-0.156v-0.172l0.003-0.01l-0.048-0.197
			l-0.099-0.199l-0.142-0.209l-0.083-0.096l-0.091-0.1l-0.102-0.1l-0.106-0.084l-0.113-0.096l-0.126-0.08l-0.135-0.086l-0.137-0.082
			l-0.145-0.059l-0.142-0.066l-0.155-0.051l-0.165-0.055l-0.155-0.023l-0.162-0.035l-0.169-0.018l-0.163,0.002l-2.233,0.084
			l-13.111,0.449h-0.145l-0.135,0.002l-0.154-0.002l-0.146-0.021l-0.151-0.012l-0.149-0.012l-0.147-0.02l-0.157-0.023l-0.156-0.023
			l-0.153-0.031l-0.153-0.033l-0.153-0.031l-0.159-0.043l-0.15-0.041l-0.143-0.037l-0.147-0.049l-0.209-0.07l-0.204-0.078
			l-0.18-0.068l-0.178-0.07l-0.158-0.08l-0.149-0.07l-0.156-0.08l-0.143-0.066l-0.135-0.084l-0.122-0.07l-0.13-0.07l-0.121-0.07
			l-0.13-0.072l-0.12-0.07l-0.117-0.057l-0.122-0.07l-0.124-0.061l-0.128-0.051l-0.121-0.043l-0.139-0.045l-0.147-0.049
			l-0.141-0.039l-0.157-0.021l-0.165-0.025l-0.167-0.02l-0.188-0.014l-0.199-0.008l-0.204,0.008l-0.215,0.006l-0.239,0.025
			l-0.249,0.023l-0.271,0.035l-0.203,0.027l-0.2,0.049l-0.199,0.051l-0.185,0.062l-0.196,0.07l-0.187,0.07l-0.179,0.076
			l-0.182,0.084l-0.173,0.086l-0.177,0.096l2.806,0.936l-3.776,0.127L23.624,232.723z M49.336,232.805l0.017-0.111l0.039-0.082
			l0.068-0.064l0.104-0.053l0.122-0.016l0.066,0.002l0.076,0.006l0.071,0.016l0.072,0.012l0.087,0.031l0.078,0.025l0.083,0.037
			l0.09,0.049l0.074,0.035l0.079,0.055l0.069,0.053l0.076,0.062l0.078,0.055l0.054,0.068l0.067,0.059l0.055,0.066l0.101,0.131
			l0.052,0.133l0.026,0.066l0.015,0.045l-0.009,0.111l-0.021,0.09l-0.064,0.074l-0.092,0.047l-0.125,0.025l-0.069,0.006
			l-0.071-0.016l-0.084-0.008l-0.089-0.02l-0.078-0.025l-0.086-0.029l-0.092-0.039l-0.083-0.049l-0.083-0.037l-0.09-0.049
			l-0.078-0.053l-0.074-0.066l-0.07-0.051l-0.072-0.072l-0.064-0.07l-0.054-0.066l-0.089-0.137l-0.052-0.131l-0.015-0.043
			L49.336,232.805z M33.354,234.846L33.354,234.846l-0.062-0.051L33.354,234.846z M30.894,233.318l0.102-0.102l1.319-0.076
			l0.279,0.146l0.662,1.557l-0.103,0.131l-1.417,0.102l0.062,0.012l-0.047,0.076h-0.007l-0.314-0.182l-0.001-0.002l0.083-0.037
			L30.894,233.318z"></path>
		<polygon clip-path="url(#SVGID_2_)" fill-rule="evenodd" clip-rule="evenodd" points="48.442,233.805 48.362,233.76 
			48.347,233.686 48.463,233.658 48.486,233.732 48.417,233.68 		"></polygon>
		<polygon clip-path="url(#SVGID_2_)" fill-rule="evenodd" clip-rule="evenodd" points="48.6,233.713 48.582,233.736 
			48.553,233.766 48.517,233.783 48.484,233.799 48.442,233.805 48.417,233.682 48.435,233.686 48.46,233.666 48.492,233.658 
			48.495,233.65 48.489,233.666 48.596,233.723 		"></polygon>
		<polygon clip-path="url(#SVGID_2_)" fill-rule="evenodd" clip-rule="evenodd" points="48.272,232.988 48.282,232.99 
			48.337,233.059 48.408,233.129 48.478,233.211 48.544,233.299 48.598,233.396 48.63,233.504 48.631,233.619 48.596,233.723 
			48.489,233.666 48.512,233.598 48.507,233.529 48.486,233.445 48.435,233.371 48.376,233.283 48.314,233.213 48.241,233.143 
			48.186,233.076 48.194,233.078 		"></polygon>
		<polygon clip-path="url(#SVGID_2_)" fill-rule="evenodd" clip-rule="evenodd" points="47.21,232.682 47.201,232.68 
			47.354,232.682 47.499,232.682 47.634,232.707 47.764,232.721 47.896,232.756 48.021,232.818 48.151,232.891 48.272,232.988 
			48.195,233.078 48.076,233 47.963,232.934 47.857,232.879 47.742,232.85 47.614,232.826 47.484,232.812 47.351,232.807 
			47.215,232.809 47.219,232.801 47.197,232.688 		"></polygon>
		<polygon clip-path="url(#SVGID_2_)" fill-rule="evenodd" clip-rule="evenodd" points="35.939,233.273 35.988,233.24 
			47.198,232.688 47.218,232.801 36.006,233.363 36.055,233.33 		"></polygon>
		<polygon clip-path="url(#SVGID_2_)" fill-rule="evenodd" clip-rule="evenodd" points="35.673,233.666 35.551,233.625 
			35.561,233.541 35.583,233.471 35.619,233.396 35.665,233.344 35.725,233.307 35.803,233.275 35.89,233.246 35.988,233.24 
			36.005,233.363 35.913,233.379 35.83,233.4 35.789,233.404 35.748,233.439 35.729,233.471 35.697,233.51 35.679,233.562 
			35.683,233.639 35.561,233.598 		"></polygon>
		<polygon clip-path="url(#SVGID_2_)" points="48.371,233.619 48.34,233.568 48.299,233.516 48.267,233.467 48.224,233.422 
			48.183,233.373 48.139,233.328 48.1,233.277 47.983,233.191 47.865,233.111 47.746,233.062 47.623,233.031 47.494,233.016 
			47.357,232.992 47.224,232.984 47.079,232.984 35.867,233.547 35.959,233.373 35.995,233.367 36.005,233.363 47.218,232.801 
			47.406,232.814 47.562,232.809 47.709,232.828 47.845,232.855 47.969,232.916 48.081,232.982 48.187,233.076 48.304,233.211 
			48.409,233.332 48.484,233.453 48.521,233.543 48.521,233.6 48.495,233.65 48.423,233.693 48.414,233.695 48.409,233.678 		"></polygon>
		<path clip-path="url(#SVGID_2_)" d="M35.552,233.625l0.011,0.107l0.023,0.076l0.032,0.107l0.076,0.121l0.091,0.098l0.118,0.109
			l0.142,0.094l0.16,0.072l0.166,0.045l0.203,0.002l11.519-0.586l0.22-0.021l0.156-0.035l0.114-0.078l0.063-0.105l-0.003-0.105
			l-0.043-0.129l-0.083-0.125l-0.116-0.146l-0.118-0.135l-0.127-0.109l-0.135-0.084l-0.133-0.062l-0.144-0.029l-0.174-0.029h-0.173
			l-0.197,0.012l-11.209,0.553v0.002l-0.119,0.008l-0.121,0.045l-0.08,0.068l-0.056,0.078l-0.038,0.086L35.552,233.625z
			 M35.682,233.639l0.014-0.072l0.004-0.012l0.01-0.002h0.058l0.098-0.006l0.093-0.174l0.034-0.006l0.011-0.004l11.214-0.562
			l0.187,0.014l0.156-0.006l0.147,0.02l0.136,0.027l0.125,0.061l0.112,0.066l0.104,0.094l0.119,0.135l0.104,0.121l0.076,0.121
			l0.036,0.09v0.057l-0.025,0.051l-0.072,0.043l-0.009,0.002l-0.127,0.029l-0.189,0.021l-11.522,0.594l-0.009-0.002l-0.161-0.006
			l-0.159-0.043l-0.143-0.066l-0.12-0.07l-0.102-0.1l-0.072-0.102l-0.063-0.098l-0.05-0.084l-0.009-0.061L35.682,233.639z"></path>
	</g>
</g>
</svg>