<svg version="1.1" id="Layer_1" xmlns="http://www.w3.org/2000/svg" xmlns:xlink="http://www.w3.org/1999/xlink" x="0px" y="0px" width="675" height="1275" viewBox="0 0 675 1275" enable-background="new 0 0 162 306" xml:space="preserve">
<rect fill="#939598" width="162" height="306"></rect>
<rect x="9" y="9" fill="#FFFFFF" stroke="#ED2224" stroke-miterlimit="10" width="144" height="288"></rect>
<rect x="21.262" y="200.056" fill="#E7E7E7" width="123.795" height="42.828"></rect>
<rect x="21.261" y="62.057" fill="#E7E7E7" width="123.795" height="12.804"></rect>





















<rect x="138.947" y="176.414" fill="#F9A61C" width="23.053" height="20.799"></rect>
<line fill="none" stroke="#F9A61C" stroke-width="1.0769" x1="106.003" y1="176.812" x2="157.215" y2="176.812"></line>
<line fill="none" stroke="#EB242B" stroke-width="1.0769" x1="111.326" y1="114.401" x2="153.132" y2="114.401"></line>
<line fill="none" stroke="#929497" stroke-width="1.0769" x1="106.177" y1="130.284" x2="155.971" y2="130.284"></line>
<line fill="none" stroke="#2DA6DE" stroke-width="1.0769" stroke-dasharray="1.3288" x1="110.734" y1="83.611" x2="144.334" y2="83.611"></line>
<g>
	<path fill="#EB242B" d="M110.742,78.145c0,0.324-0.146,0.641-0.438,0.947l-0.046,0.046l-2.57,2.707
		c-0.546,0.573-1.011,1.016-1.395,1.33s-0.655,0.47-0.813,0.47c-0.167,0-0.371-0.079-0.619-0.235
		c-0.247-0.157-0.405-0.317-0.478-0.485c-0.062-0.139-0.12-0.432-0.174-0.881c-0.053-0.449-0.08-0.936-0.08-1.459
		c0-0.286,0.12-0.549,0.357-0.792c0.238-0.243,0.501-0.363,0.79-0.363c0.275,0,0.438,0.25,0.489,0.752
		c0.006,0.059,0.012,0.102,0.014,0.129c0.043,0.385,0.097,0.654,0.153,0.807c0.058,0.151,0.137,0.228,0.236,0.228
		c0.042,0,0.119-0.045,0.234-0.135c0.112-0.089,0.25-0.212,0.407-0.367l2.64-2.615c0.223-0.222,0.42-0.389,0.595-0.503
		s0.323-0.17,0.444-0.17c0.093,0,0.156,0.035,0.196,0.103c0.039,0.069,0.057,0.186,0.057,0.35V78.145z"></path>
</g>
<g>
	<path fill="#EB242B" d="M111.701,108.866c0,0.324-0.146,0.641-0.44,0.947l-0.046,0.046l-2.569,2.707
		c-0.547,0.573-1.011,1.017-1.395,1.33c-0.385,0.313-0.655,0.469-0.813,0.469c-0.166,0-0.373-0.078-0.621-0.234
		c-0.245-0.156-0.404-0.318-0.477-0.484c-0.061-0.139-0.119-0.434-0.173-0.882s-0.08-0.935-0.08-1.458
		c0-0.286,0.12-0.55,0.357-0.792c0.238-0.242,0.501-0.363,0.79-0.363c0.273,0,0.438,0.25,0.49,0.752
		c0.006,0.059,0.01,0.101,0.013,0.129c0.044,0.386,0.097,0.654,0.153,0.806c0.059,0.152,0.138,0.229,0.237,0.229
		c0.041,0,0.119-0.045,0.233-0.135c0.112-0.09,0.25-0.213,0.407-0.369l2.641-2.614c0.222-0.222,0.42-0.389,0.594-0.502
		c0.176-0.114,0.323-0.171,0.445-0.171c0.092,0,0.156,0.036,0.196,0.104c0.038,0.069,0.057,0.187,0.057,0.349V108.866z"></path>
</g>
<g>
	<path fill="#EB242B" d="M107.363,124.158c0,0.324-0.146,0.64-0.438,0.948l-0.046,0.046l-2.57,2.705
		c-0.547,0.573-1.011,1.017-1.395,1.331c-0.383,0.313-0.654,0.469-0.812,0.469c-0.167,0-0.373-0.077-0.619-0.234
		c-0.247-0.156-0.407-0.318-0.479-0.484c-0.061-0.139-0.118-0.431-0.172-0.882c-0.055-0.448-0.082-0.935-0.082-1.458
		c0-0.286,0.119-0.55,0.358-0.792c0.238-0.243,0.502-0.364,0.789-0.364c0.275,0,0.438,0.251,0.49,0.752
		c0.007,0.059,0.012,0.101,0.014,0.129c0.044,0.385,0.095,0.654,0.153,0.806c0.06,0.153,0.137,0.228,0.238,0.228
		c0.04,0,0.119-0.044,0.231-0.134c0.113-0.09,0.25-0.213,0.408-0.369l2.64-2.614c0.223-0.221,0.421-0.389,0.596-0.504
		c0.175-0.112,0.322-0.169,0.444-0.169c0.092,0,0.156,0.035,0.196,0.104c0.039,0.069,0.056,0.187,0.056,0.35V124.158z"></path>
</g>

<g>
	<path fill="#EB242B" d="M97.266,204.443c0,0.323-0.147,0.639-0.439,0.947l-0.047,0.046l-2.569,2.705
		c-0.547,0.574-1.011,1.017-1.395,1.331c-0.384,0.312-0.654,0.469-0.813,0.469c-0.166,0-0.373-0.077-0.62-0.234
		c-0.245-0.154-0.404-0.318-0.479-0.482c-0.06-0.141-0.117-0.435-0.173-0.884c-0.053-0.447-0.08-0.934-0.08-1.456
		c0-0.289,0.12-0.551,0.357-0.794c0.238-0.243,0.502-0.363,0.79-0.363c0.274,0,0.438,0.251,0.491,0.752
		c0.005,0.058,0.009,0.103,0.013,0.13c0.045,0.385,0.096,0.653,0.152,0.804c0.06,0.154,0.139,0.229,0.237,0.229
		c0.043,0,0.119-0.044,0.234-0.135c0.113-0.091,0.248-0.212,0.407-0.366l2.64-2.614c0.223-0.223,0.42-0.391,0.595-0.504
		c0.176-0.115,0.323-0.172,0.446-0.172c0.09,0,0.155,0.035,0.194,0.104s0.058,0.186,0.058,0.351V204.443z"></path>
</g>
<g>
	<ellipse fill-rule="evenodd" clip-rule="evenodd" fill="#010101" cx="42.238" cy="221.054" rx="18.908" ry="18.902"></ellipse>
	<circle fill-rule="evenodd" clip-rule="evenodd" fill="#B7D334" cx="42.25" cy="221.159" r="17.189"></circle>
	<g>
		<path fill="#010101" d="M38.57,217.412c-0.238,2.105-0.416,3.799-0.534,5.074l-0.783,0.036c0.011-0.044,0.017-0.092,0.018-0.146
			c0.002-0.094-0.034-0.222-0.105-0.376c-0.072-0.156-0.113-0.255-0.123-0.298c-0.203,0.028-0.397,0.17-0.583,0.421
			c-0.187,0.253-0.354,0.378-0.503,0.377c-0.084-0.004-0.181-0.026-0.286-0.07c-0.14,0.094-0.322,0.134-0.546,0.12
			c-0.202-0.035-0.399-0.066-0.59-0.092c-0.007-0.266-0.269-0.499-0.787-0.7c0.002-0.106-0.052-0.265-0.161-0.475
			c-0.108-0.209-0.162-0.356-0.159-0.442c0-0.095,0.04-0.174,0.115-0.237c-0.011-0.03-0.098-0.23-0.261-0.598
			c-0.113-0.269-0.167-0.498-0.165-0.688c0.003-0.15,0.037-0.287,0.104-0.415c-0.092-0.907-0.133-1.686-0.121-2.335
			c0.017-1.002,0.16-1.921,0.431-2.76c-0.02-0.127-0.028-0.256-0.026-0.382c0.012-0.673,0.244-1.138,0.695-1.396l0.004-0.207
			c0.446-0.568,1.034-0.979,1.763-1.234c0.437,0.105,0.871,0.202,1.307,0.296c0.488,0.167,0.823,0.455,1.008,0.863
			c0.148,0.089,0.22,0.265,0.216,0.532c-0.006,0.298,0.028,0.49,0.101,0.575l-0.082,0.095c0.085,0.63,0.127,1.015,0.125,1.154
			c-0.007,0.404-0.113,0.69-0.317,0.856c-0.075-0.001-0.271-0.067-0.589-0.2c-0.075,0.072-0.157,0.108-0.241,0.106
			c-0.044-0.001-0.121-0.024-0.231-0.068c-0.112-0.043-0.205-0.065-0.279-0.066c-0.053-0.001-0.108,0.008-0.161,0.028
			c-0.006-0.842,0.02-1.47,0.08-1.886c-0.084-0.053-0.169-0.181-0.257-0.37c-0.087-0.195-0.201-0.303-0.338-0.327
			c-0.087,0.107-0.126,0.176-0.116,0.206l-0.286-0.099c-0.26,0.283-0.433,0.774-0.52,1.476c-0.088,0.811-0.199,1.345-0.331,1.609
			c0.115,0.118,0.171,0.285,0.167,0.497c-0.001,0.074-0.014,0.199-0.039,0.367c-0.025,0.17-0.037,0.3-0.038,0.384
			c-0.002,0.095,0.006,0.182,0.027,0.256l-0.195,0.188c0.079,0.364,0.124,0.824,0.136,1.378c-0.007,0.468-0.011,0.938-0.007,1.406
			c-0.011,0-0.102,0.004-0.271,0.013c-0.107-0.004-0.183,0.032-0.226,0.107c0.064-0.01,0.123-0.015,0.176-0.014
			c0.234,0.004,0.418,0.17,0.55,0.497c0.134,0.326,0.248,0.491,0.344,0.496c0.106,0,0.252-0.101,0.437-0.3
			c0.313-0.337,0.478-0.796,0.487-1.381c0.005-0.289-0.027-0.599-0.096-0.929c-0.076,0.041-0.115,0.146-0.118,0.316
			c-0.17-0.002-0.278,0.034-0.321,0.105c-0.073-0.022-0.105-0.082-0.093-0.177c0.013-0.138,0.02-0.212,0.02-0.224
			c0.129-0.039,0.192-0.097,0.195-0.174c0-0.03-0.022-0.089-0.069-0.175c-0.046-0.086-0.069-0.155-0.069-0.21
			c0.001-0.042,0.013-0.083,0.035-0.128l0.075-0.621c0.233,0.069,0.738,0.099,1.518,0.092c-0.023,0.051,0.008,0.121,0.092,0.208
			c0.075-0.074,0.156-0.11,0.241-0.107c0.064,0.001,0.16,0.028,0.285,0.086C38.426,217.383,38.516,217.411,38.57,217.412z"></path>
		<path fill="#010101" d="M44.537,222.917c-0.147-0.065-0.307-0.1-0.478-0.104c-0.149-0.003-0.353,0.027-0.609,0.087
			c-0.29,0.059-0.487,0.092-0.594,0.101c-0.113-0.225-0.193-0.536-0.239-0.93c-0.086-0.577-0.141-0.903-0.161-0.979
			c0.035-0.063,0.051-0.115,0.051-0.157c0.002-0.118-0.09-0.225-0.274-0.319c-0.186-0.092-0.277-0.166-0.276-0.219
			c0-0.063,0.109-0.158,0.325-0.281c-0.053-0.064-0.091-0.198-0.114-0.393c-0.022-0.198-0.071-0.33-0.145-0.396
			c-0.129,0.114-0.342,0.188-0.635,0.222c-0.293,0.032-0.489,0.079-0.585,0.141c0.007,0.83-0.13,1.39-0.413,1.671
			c-0.148-0.033-0.262,0.022-0.338,0.169c-0.11,0.181-0.203,0.287-0.277,0.317l0.093,0.113c-0.085,0.072-0.227,0.103-0.417,0.09
			c-0.298-0.018-0.458-0.023-0.479-0.023l-0.09-0.292l1.041-8.628c0.01-0.544,0.038-0.913,0.083-1.103
			c-0.013-0.482,0.099-0.778,0.335-0.89c0.148,0.097,0.334,0.148,0.558,0.152c0.181,0.004,0.464-0.033,0.848-0.114
			c0.388-0.077,0.654-0.117,0.803-0.114c0.522,0.01,0.75,0.387,0.685,1.132c-0.052,0.595,0.04,1.381,0.279,2.355
			c0.249,1.047,0.37,1.832,0.36,2.354c-0.003,0.158,0.05,0.491,0.036,0.65c-0.227,0.125-0.514,0.2-0.866,0.225
			c-0.31,0.018-0.624,0.033-0.945,0.048c-0.082-0.812-0.226-1.789-0.308-2.589c-0.101-0.96-0.226-1.751-0.375-2.374l-0.494,4.566
			c-0.038,0.394,0.14,0.594,0.534,0.602c0.128,0,0.25-0.029,0.369-0.091c0.097-0.031,0.23,0.04,0.397,0.214
			c-0.007,0.33,0.06,0.529,0.198,0.595c0.172-0.113,0.397-0.221,0.677-0.325c0.247-0.09,0.489-0.177,0.724-0.259
			c0.136,0.185,0.223,0.457,0.259,0.818c0.043,0.514,0.077,0.813,0.096,0.898c0.017,0.204,0.1,0.642,0.249,1.315
			c0.109,0.533,0.16,0.968,0.155,1.298C44.575,222.631,44.561,222.778,44.537,222.917z"></path>
		<path fill="#010101" d="M51.9,215.305c-0.012,0.031-0.015,0.219-0.01,0.56c-0.005,0.277-0.038,0.485-0.106,0.621
			c-0.08,0.214-0.121,0.519-0.128,0.911c-0.003,0.084,0.002,0.218,0.011,0.399c-0.005,0.181-0.005,0.313-0.008,0.398
			c-0.013,0.67-0.126,1.157-0.346,1.463c0.019,0.174,0.027,0.344,0.027,0.514c-0.011,0.532-0.194,1.25-0.551,2.148
			c-0.095,0.032-0.176,0.046-0.241,0.045c-0.128-0.004-0.219-0.077-0.276-0.222c-0.055-0.144-0.108-0.28-0.159-0.41
			c0.034-0.819,0.018-2.013-0.052-3.58l0.097-0.096c-0.07-0.277-0.101-0.585-0.095-0.928c0.004-0.245,0.036-0.602,0.089-1.07
			c0.057-0.469,0.086-0.82,0.09-1.055c0.003-0.148,0-0.291-0.007-0.429c-0.368,0.877-0.627,2.364-0.781,4.461l-0.134,0.315
			c-0.045,0.108-0.137,0.164-0.273,0.175c-0.042-0.077-0.084-0.114-0.126-0.115c-0.032-0.001-0.089,0.037-0.171,0.117
			c-0.081,0.076-0.149,0.112-0.201,0.101l-0.211,0.186c0.093,0.12,0.294,0.136,0.607,0.046c0.246-0.071,0.372,0.021,0.378,0.277
			c0.007,0.214-0.051,0.499-0.175,0.86c-0.123,0.358-0.185,0.63-0.188,0.811c-0.003,0.129,0.01,0.256,0.041,0.385l-1.106,0.173
			c-0.103-0.214-0.179-0.575-0.231-1.083c-0.048-0.506-0.124-0.867-0.228-1.081c0.063-0.075,0.097-0.152,0.099-0.24
			c0.001-0.073-0.028-0.187-0.09-0.335c-0.061-0.15-0.097-0.264-0.107-0.341c-0.007-0.113-0.044-0.4-0.112-0.848
			c-0.047-0.361-0.069-0.647-0.065-0.848c0.001-0.107,0.009-0.202,0.021-0.288c0-0.075-0.042-0.184-0.124-0.33
			c-0.082-0.145-0.123-0.249-0.121-0.313c0.001-0.053,0.023-0.101,0.066-0.142c-0.073-0.088-0.102-0.236-0.089-0.449
			c0.015-0.213-0.015-0.364-0.086-0.447c-0.157,0.409-0.241,0.968-0.253,1.671c-0.006,0.98-0.016,1.546-0.028,1.695l0.11,0.098
			l-0.114,0.094c0.078,0.384,0.114,0.874,0.103,1.473c-0.029,1.075-0.043,1.575-0.043,1.501c-0.149,0.137-0.359,0.202-0.625,0.198
			c-0.331-0.006-0.557,0.024-0.674,0.084c-0.134-0.236-0.199-0.542-0.192-0.914c0.005-0.288,0.054-0.639,0.146-1.054
			c-0.145-0.268-0.212-0.641-0.204-1.122c0.001-0.117,0.015-0.341,0.043-0.671c0.015-0.265,0.019-0.465,0.01-0.591
			c0.106-0.052,0.162-0.108,0.162-0.173c0-0.041-0.031-0.114-0.1-0.218c-0.068-0.102-0.101-0.179-0.1-0.234
			c0.002-0.062,0.044-0.127,0.13-0.189l-0.343-5.167c0.205-0.136,0.537-0.201,0.996-0.191c0.5,0.021,0.842-0.009,1.024-0.08
			c0.031-0.021,0.069-0.028,0.112-0.028c0.044,0.001,0.092,0.024,0.151,0.074c0.059,0.047,0.099,0.073,0.118,0.073
			c0.042,0,0.081-0.032,0.114-0.095l0.299,0.294c0.099,0.375,0.194,1.102,0.283,2.178c0.09,0.93,0.232,1.63,0.428,2.103
			c0.261-0.944,0.477-1.735,0.647-2.37l0.347-2.53l2.479-0.054c0.008,0.137,0.038,0.88,0.104,1.307
			c0.058,0.374,0.086,0.677,0.082,0.911c-0.004,0.267-0.046,0.507-0.125,0.719c0.083,0.118,0.124,0.268,0.121,0.447
			C52.033,215.042,51.987,215.188,51.9,215.305z"></path>
		<path fill="#010101" d="M56.987,220.906v-0.016c-0.067,0.137-0.108,0.297-0.121,0.478c-0.013,0.117-0.016,0.283-0.009,0.495
			c0.007,0.244,0.009,0.416,0.008,0.513c-0.086-0.001-0.426-0.009-1.022-0.018c-0.365-0.006-0.688,0.024-0.978,0.094l-0.299-0.323
			c-0.087,0.083-0.12,0.151-0.1,0.205c-0.053-0.012-0.299-0.016-0.736-0.013c-0.34-0.006-0.596-0.042-0.764-0.108
			c-0.174,0.178-0.377,0.174-0.608-0.012c-0.084-0.062-0.092-0.174-0.026-0.326c0.067-0.153,0.047-0.27-0.058-0.348
			c0.017-0.338,0.063-0.865,0.14-1.577c0.074-0.638,0.114-1.141,0.121-1.5c0.007-0.492-0.026-0.961-0.105-1.41
			c0.123-0.114,0.254-0.171,0.404-0.169c0.171,0.002,0.372,0.087,0.603,0.252c0.326,0.227,0.496,0.344,0.506,0.344l0.093,0.111
			c0.013-0.031,0.067-0.199,0.169-0.507c0.057-0.202,0.139-0.335,0.247-0.396l0.095,0.099c0.042-0.021,0.182-0.119,0.421-0.297
			c0.181-0.126,0.332-0.422,0.437-0.419c0.119,0.001,0.229,0.068,0.333,0.197c0.18,0.099,0.292,0.481,0.348,0.679
			c0.056,0.198,0.109,0.395,0.159,0.589c-0.48,0.011-0.875,0-1.183-0.038c-0.077,0.116-0.183,0.134-0.322,0.052
			c-0.134-0.083-0.236-0.072-0.303,0.032c-0.003,0.192-0.01,0.54-0.019,1.04c-0.018,0.446-0.023,0.8-0.017,1.056
			c0.002,0.393,0.028,0.757,0.077,1.087c0.085,0.001,0.49,0.011,1.215,0.021C56.194,220.78,56.625,220.824,56.987,220.906z
			 M57.02,213.25c-0.095,0.009-0.202,0.013-0.319,0.012c-0.246-0.006-0.571-0.043-0.974-0.113c-0.501-0.071-0.803-0.115-0.91-0.128
			c-0.152,0.222-0.232,0.534-0.24,0.938c-0.015,0.875-0.015,1.253-0.002,1.136c0.147,0.087,0.22,0.25,0.216,0.483
			c-0.017,0.318-0.018,0.484-0.008,0.496c-0.075,0.029-0.115,0.136-0.117,0.315c-0.118-0.042-0.238-0.132-0.364-0.262
			c-0.168-0.163-0.257,0.39-0.245,0.251l-0.102,0.329l-0.094-0.098c-0.087,0.009-0.232-0.036-0.437-0.135
			c-0.208-0.1-0.353-0.191-0.437-0.28c0.004-0.169,0.032-0.265,0.086-0.285l-0.204-0.228l-0.099,0.142
			c-0.12-1.109-0.09-3.187,0.057-4.355c0.403,0.07,0.851,0.116,1.341,0.135c0.331,0.016,0.793,0.025,1.39,0.025
			c0.682,0,1.174,0.002,1.471,0.006c0.125,0.12,0.187,0.275,0.184,0.468c0,0.117-0.033,0.306-0.097,0.565
			S57.023,213.123,57.02,213.25z"></path>
	</g>
	<g>
		<path fill="#010101" d="M39.051,230.572v-0.01c0,0.006-0.028,0.242-0.083,0.706c-0.028,0.284-0.097,0.508-0.208,0.672
			l-0.069-0.056c-0.13,0.27-0.305,0.436-0.528,0.495c-0.106,0.113-0.261,0.173-0.462,0.187c-0.12,0.006-0.396-0.027-0.828-0.105
			c-0.209-0.13-0.324-0.201-0.344-0.216c-0.132-0.099-0.194-0.196-0.188-0.301c-0.127-0.128-0.306-0.36-0.374-0.65
			c-0.082-0.32-0.131-0.338-0.207-0.451c-0.121,0.09-0.163-0.099-0.234-0.214l0.063-0.047c-0.04-0.028-0.06-0.062-0.062-0.096
			c-0.001-0.026,0.01-0.062,0.032-0.113c0.022-0.049,0.034-0.086,0.031-0.111c-0.003-0.039-0.026-0.074-0.072-0.102
			c0.048-0.253,0.092-0.631,0.132-1.135c0.086-0.046,0.126-0.133,0.122-0.266c-0.004-0.131,0.013-0.218,0.054-0.26
			c0.205-0.409,0.535-0.684,0.993-0.827c0.025,0.004,0.147,0.001,0.369-0.007c0.15-0.003,0.265,0.011,0.342,0.042
			c0.137-0.025,0.275,0.009,0.411,0.097c0.119,0.091,0.24,0.18,0.357,0.27c0.222,0.24,0.341,0.514,0.358,0.816
			c0.006,0.1,0,0.207-0.019,0.318c-0.164-0.005-0.281,0.104-0.35,0.326l-0.639,0.061c-0.067-0.098-0.108-0.229-0.116-0.391
			c-0.003-0.055-0.002-0.137,0-0.24c0.002-0.11,0.002-0.189,0-0.245c-0.01-0.167-0.049-0.297-0.118-0.397l-0.191,0.11
			c-0.079-0.03-0.118-0.076-0.122-0.137c-0.001-0.021,0.002-0.05,0.009-0.089c0.007-0.037,0.01-0.063,0.009-0.08
			c-0.004-0.065-0.062-0.104-0.176-0.12c-0.079,0.721-0.103,1.46-0.071,2.218c0.02,0.024,0.081,0.04,0.182,0.052
			c0.083,0.01,0.125,0.034,0.127,0.074c0.001,0.018-0.004,0.037-0.015,0.063l-0.063,0.049c0.035,0.054,0.056,0.129,0.061,0.224
			c0.002,0.052,0.001,0.129-0.005,0.232c-0.006,0.105-0.008,0.183-0.005,0.23c0.009,0.153,0.047,0.27,0.114,0.347
			c-0.007,0.11,0.04,0.188,0.135,0.227c0.062-0.024,0.117-0.037,0.169-0.039c0.193-0.012,0.33,0.094,0.405,0.317
			c0,0.006-0.001,0.045-0.002,0.116c0.002,0.039,0.022,0.064,0.061,0.079c0.086-0.051,0.126-0.143,0.126-0.274
			c-0.001-0.151,0.019-0.248,0.059-0.291c-0.011-0.071-0.052-0.172-0.126-0.305c-0.074-0.133-0.112-0.236-0.118-0.313
			c-0.004-0.08,0.021-0.157,0.072-0.23c-0.045-0.015-0.065-0.042-0.062-0.089c0.001-0.071,0.003-0.109,0.003-0.114
			C38.339,230.493,38.693,230.49,39.051,230.572z"></path>
		<path fill="#010101" d="M41.945,231.164h-0.007c-0.039,0.072-0.05,0.177-0.038,0.312c0.018,0.195,0.028,0.293,0.028,0.298
			c-0.029,0.01-0.069-0.003-0.117-0.044c-0.075,0.029-0.11,0.074-0.106,0.141c0,0.011,0.003,0.026,0.012,0.05
			c0,0.027,0.002,0.046,0.003,0.057c0.002,0.051-0.013,0.091-0.047,0.116c-0.084-0.046-0.196-0.078-0.333-0.092
			c-0.141-0.012-0.272-0.024-0.395-0.035c-0.002-0.642-0.089-1.27-0.259-1.881c0,0.004-0.004-0.059-0.012-0.19
			c0.001-0.097-0.021-0.161-0.064-0.202l-0.059,0.053c0-0.009,0.019-0.027,0.058-0.056c0.042-0.027,0.06-0.058,0.057-0.086
			c-0.001-0.013-0.004-0.027-0.012-0.041l-0.063-0.047c-0.109,0.036-0.159,0.125-0.151,0.264c0.005,0.095-0.032,0.162-0.111,0.197
			c0.031,0.021,0.046,0.051,0.047,0.083c0.002,0.019,0,0.047-0.008,0.079c-0.006,0.032-0.009,0.061-0.008,0.078
			c0.001,0.04,0.025,0.076,0.067,0.102c0.003,0.029,0.016,0.281,0.044,0.761c0.018,0.306,0.01,0.567-0.024,0.779l0.006,0.12
			c-0.042-0.001-0.089,0-0.14,0.002c-0.058,0.003-0.144,0.012-0.254,0.025c-0.109,0.015-0.191,0.021-0.245,0.024
			c-0.216,0.014-0.368-0.024-0.455-0.108l-0.091-2.633c-0.042-0.129-0.071-0.311-0.083-0.539l-0.029-0.508
			c-0.021-0.25-0.053-0.44-0.096-0.575c0.018-0.092,0.098-0.142,0.237-0.147c0.089-0.005,0.205,0.006,0.354,0.035
			c0.068-0.031,0.165-0.053,0.287-0.059c0.036-0.002,0.089-0.002,0.167-0.002c0.082-0.005,0.14-0.009,0.175-0.012
			c0.229-0.011,0.378-0.082,0.454-0.21c0.106-0.001,0.221,0.033,0.345,0.102c0.124,0.067,0.233,0.104,0.327,0.106
			c0.249,0.146,0.382,0.39,0.402,0.727c0.005,0.076-0.025,0.374-0.088,0.898l-0.428,0.369c0.073,0.133,0.16,0.424,0.262,0.871
			C41.641,230.718,41.771,230.989,41.945,231.164z M41.155,228.169l0.009,0.005c0.008,0.032,0.004-0.083-0.011-0.346
			c-0.008-0.126-0.055-0.217-0.14-0.274c-0.049,0.068,0.006,0.101-0.017,0.259c-0.022,0.16-0.117,0.115-0.171,0.185
			c-0.147,0-0.18,0.089-0.211-0.05c-0.066-0.229-0.123-0.209-0.124-0.213l-0.062,0.038c-0.022,0.021-0.048,0.042-0.076,0.068
			c-0.027,0.025-0.056,0.033-0.086,0.026c0.002,0.028-0.012,0.072-0.041,0.133c-0.029,0.06-0.042,0.102-0.042,0.125
			c0.002,0.044,0.037,0.074,0.104,0.095c-0.012,0.094-0.016,0.193-0.01,0.296c0.003,0.057,0.017,0.187,0.041,0.386
			c0.026,0.16,0.035,0.297,0.032,0.41c0.053,0.001,0.102,0.001,0.149-0.001c0.204-0.013,0.338-0.093,0.399-0.243
			c0.021-0.044,0.045-0.2,0.07-0.472C40.992,228.393,41.053,228.248,41.155,228.169z"></path>
		<path fill="#010101" d="M45.265,232.188c-0.083-0.024-0.172-0.035-0.267-0.028c-0.081,0.005-0.191,0.026-0.329,0.062
			c-0.159,0.037-0.264,0.061-0.322,0.068c-0.071-0.095-0.125-0.229-0.164-0.4c-0.069-0.251-0.11-0.393-0.123-0.425
			c0.018-0.027,0.023-0.055,0.022-0.072c-0.002-0.053-0.057-0.093-0.161-0.13c-0.106-0.032-0.159-0.063-0.159-0.087
			c-0.001-0.027,0.053-0.072,0.167-0.135c-0.031-0.027-0.056-0.084-0.076-0.171c-0.019-0.084-0.049-0.141-0.093-0.167
			c-0.067,0.058-0.18,0.098-0.34,0.123c-0.16,0.026-0.265,0.055-0.317,0.086c0.033,0.365,0,1.008-0.145,1.144
			c-0.082-0.008-0.141,0.019-0.178,0.09c-0.056,0.082-0.101,0.133-0.142,0.148l0.055,0.045c-0.045,0.038-0.12,0.057-0.225,0.058
			c-0.164,0.004-0.251,0.006-0.263,0.007l-0.061-0.125l0.248-4.233c-0.014-0.239-0.013-0.401,0.005-0.488
			c-0.022-0.21,0.027-0.345,0.153-0.404c0.085,0.038,0.187,0.052,0.312,0.046c0.099-0.006,0.253-0.032,0.46-0.083
			c0.208-0.051,0.354-0.078,0.435-0.083c0.287-0.016,0.424,0.142,0.415,0.471c-0.008,0.267,0.07,0.607,0.235,1.026
			c0.173,0.451,0.266,0.794,0.28,1.024c0.004,0.07,0.098,0.22,0.096,0.29c-0.119,0.063-0.276,0.108-0.466,0.133
			c-0.17,0.021-0.341,0.041-0.516,0.06c-0.074-0.356-0.24-0.784-0.312-1.136c-0.089-0.418-0.185-0.761-0.288-1.029l-0.112,2.029
			c-0.007,0.175,0.098,0.256,0.314,0.243c0.07-0.004,0.137-0.021,0.2-0.053c0.052-0.018,0.126,0.008,0.224,0.078
			c0.008,0.147,0.052,0.23,0.129,0.255c0.091-0.056,0.211-0.114,0.36-0.17c0.131-0.049,0.26-0.098,0.387-0.142
			c0.081,0.075,0.136,0.191,0.171,0.35c0.042,0.224,0.069,0.354,0.083,0.392c0.017,0.089,0.078,0.28,0.183,0.571
			c0.079,0.229,0.123,0.418,0.13,0.564C45.273,232.058,45.271,232.123,45.265,232.188z"></path>
		<path fill="#010101" d="M47.685,227.383h0.008c-0.07,0.104-0.16,0.122-0.27,0.06c-0.023-0.006-0.128,0.003-0.314,0.017
			c-0.158,0.012-0.272,0.001-0.345-0.023c-0.016,0.003-0.052,0.021-0.103,0.055c-0.05,0.033-0.086,0.05-0.11,0.052
			c-0.034,0.003-0.055-0.027-0.059-0.09c0-0.007-0.003-0.048-0.005-0.119c-0.004-0.047-0.027-0.077-0.067-0.094l-0.111,0.084
			c-0.034,0.025-0.049,0.052-0.047,0.08c0.001,0.022,0.021,0.055,0.058,0.098c0.038,0.044,0.061,0.073,0.067,0.092
			c0.001,0.016,0.014,0.228,0.036,0.635c0.009,0.261,0.058,0.467,0.143,0.622c0.021-0.025,0.076-0.039,0.16-0.041
			c0.085-0.002,0.14-0.021,0.169-0.056c0.055,0.049,0.147,0.052,0.277,0.009c0.13-0.044,0.223-0.028,0.281,0.044l-0.017,0.624
			c-0.053-0.008-0.132-0.033-0.232-0.079c-0.031,0.09-0.089,0.149-0.174,0.173c-0.036,0.012-0.136,0.021-0.299,0.03
			c0.005-0.028-0.021-0.056-0.076-0.087c-0.159,0.077-0.219,0.256-0.18,0.54c0.005-0.029,0.01,0.021,0.019,0.148
			c0.004,0.079-0.013,0.138-0.051,0.172c-0.1,0.017-0.226-0.005-0.379-0.065c-0.151-0.059-0.261-0.087-0.326-0.084
			c-0.028,0.002-0.054,0.006-0.078,0.012l-0.163,0.051l-0.264-2.849l-0.03-0.542c0.217-0.073,0.487-0.121,0.81-0.139
			c0.251-0.014,0.58-0.012,0.984,0.008c0.027-0.056,0.075,0.014,0.134,0.011c0.029-0.001,0.074,0.002,0.132,0.012
			c0.06,0.008,0.104,0.01,0.133,0.009c0.035-0.001,0.066-0.007,0.095-0.021l0.042-0.045c0.119,0.037,0.182,0.099,0.188,0.188
			c0.001,0.038-0.01,0.103-0.035,0.192c-0.022,0.092-0.034,0.162-0.032,0.208C47.655,227.314,47.666,227.353,47.685,227.383z
			 M46.658,232.139c-0.062,0.031-0.158,0.051-0.286,0.059c-0.17,0.011-0.272,0.019-0.307,0.024c-0.019-0.019-0.042-0.002-0.079-0.15
			c-0.023-0.099-0.086-0.145-0.184-0.139c-0.024,0.001-0.053,0.004-0.087,0.011l-0.158,0.011l-0.084-1.442
			c0.086-0.042,0.192-0.068,0.32-0.074c0.124-0.007,0.233,0.006,0.327,0.035c-0.001,0.054,0.074,0.076,0.224,0.065l0.168-0.01
			C46.612,230.934,46.673,231.665,46.658,232.139z"></path>
		<path fill="#010101" d="M51.189,227.507l0.009,0.008c-0.083-0.007-0.348,0.011-0.552,0.037c-0.173,0.021-0.305,0.022-0.394,0.011
			c-0.085,0.057-0.116,0.133-0.094,0.231l0.055,0.03c-0.045,0.043-0.06,0.072-0.047,0.096l0.047,0.046
			c-0.01,0.837-0.013,1.3-0.007,1.387c0.012,0.222,0.037,0.415,0.078,0.584c-0.035,0.106-0.048,0.227-0.041,0.362
			c0.005,0.09,0.025,0.23,0.063,0.425c0.039,0.192,0.088,0.829,0.094,0.929c0.003,0.073,0.003,0.146-0.005,0.211
			c-0.08,0.033-0.167,0.053-0.259,0.059c-0.158,0.009-0.328-0.023-0.509-0.099c-0.021,0.021-0.046,0.042-0.074,0.065
			s-0.036,0.048-0.022,0.076c-0.058,0.016-0.139-0.007-0.242-0.072c-0.055-0.846-0.206-2.569-0.43-4.311
			c-0.08,0.071-0.224,0.012-0.375,0.031c-0.181,0.02-0.357-0.009-0.426,0.023c-0.087-0.093-0.069-0.12-0.076-0.276
			c-0.01-0.149-0.059-0.521-0.02-0.677c0.009-0.033,0.335-0.013,0.528-0.03c0.263-0.015,0.321,0.048,0.338,0.047
			c0.021-0.034,0.149-0.017,0.242-0.023c0.061,0.029,0.126-0.026,0.128,0.018c0.003,0.027,0,0.204-0.019,0.257
			c-0.021,0.051-0.032,0.086-0.029,0.109c0.003,0.057,0.043-0.026,0.14,0.008c0.105-0.005,0.214-0.008,0.324-0.014
			c0.125,0.013,0.266-0.031,0.255,0.071c0.021-0.028,0.035,0.022,0.212-0.049c0.132-0.06,0.212-0.214,0.187-0.319
			c-0.015-0.058,0.064-0.097,0.015-0.068c0.063-0.036,0.005-0.012,0.074-0.039c0.219,0.022,0.34-0.001,0.381-0.003
			c0.087-0.007,0.305,0.052,0.367,0.019c0.045,0.083,0.068,0.34,0.072,0.481C51.184,227.374,51.188,227.494,51.189,227.507z"></path>
		<path fill="#010101" d="M54.029,230.449l-0.002-0.006c-0.03,0.062-0.048,0.134-0.048,0.214c-0.003,0.051,0,0.126,0.013,0.22
			c0.012,0.107,0.021,0.182,0.022,0.224c-0.048,0.003-0.236,0.014-0.562,0.035c-0.198,0.01-0.375,0.036-0.531,0.08l-0.175-0.134
			c-0.043,0.041-0.059,0.074-0.046,0.097c-0.029-0.005-0.165,0.004-0.403,0.021c-0.188,0.013-0.328,0.006-0.424-0.017
			c-0.088,0.085-0.199,0.092-0.333,0.02c-0.048-0.024-0.057-0.074-0.025-0.145c0.03-0.071,0.015-0.12-0.045-0.149
			c-0.002-0.149,0.005-0.385,0.021-0.701c0.019-0.284,0.024-0.508,0.013-0.667c-0.012-0.216-0.048-0.42-0.105-0.616
			c0.06-0.054,0.133-0.085,0.214-0.089c0.094-0.007,0.206,0.023,0.341,0.085c0.187,0.09,0.282,0.133,0.288,0.133l0.055,0.046
			c0.006-0.014,0.029-0.091,0.074-0.23c0.024-0.09,0.064-0.152,0.122-0.183l0.055,0.038c0.023-0.01,0.096-0.06,0.221-0.146
			c0.096-0.062,0.162-0.291,0.221-0.295c0.063-0.006,0.126,0.021,0.189,0.073c0.1,0.036,0.181,0.294,0.218,0.379
			c0.037,0.086,0.072,0.169,0.108,0.252c-0.264,0.024-0.48,0.035-0.649,0.03c-0.038,0.055-0.097,0.066-0.174,0.036
			c-0.078-0.031-0.132-0.021-0.166,0.027c0.006,0.084,0.013,0.236,0.027,0.456c0.007,0.2,0.015,0.354,0.027,0.466
			c0.015,0.174,0.043,0.332,0.08,0.478c0.047-0.003,0.27-0.017,0.667-0.037C53.591,230.425,53.828,230.427,54.029,230.449z
			 M53.757,227.133c-0.051,0.008-0.11,0.015-0.175,0.018c-0.133,0.007-0.312,0.003-0.537-0.011c-0.276-0.014-0.444-0.02-0.502-0.021
			c-0.075,0.104-0.085,0.188-0.075,0.366c0.023,0.386,0.036,0.552,0.039,0.5c0.083,0.033,0.128,0.102,0.134,0.207
			c0.003,0.14,0.006,0.211,0.014,0.216c-0.041,0.017-0.058,0.066-0.054,0.145c-0.064-0.016-0.134-0.049-0.208-0.101
			c-0.098-0.065-0.129,0.165-0.126,0.104l-0.044,0.144l-0.056-0.038c-0.045,0.006-0.127-0.008-0.244-0.044
			c-0.116-0.037-0.199-0.07-0.247-0.106c-0.005-0.074,0.007-0.117,0.036-0.129l-0.121-0.092l-0.049,0.066
			c-0.103-0.483-0.173-1.338-0.133-1.859c0.223,0.016,0.486-0.021,0.754-0.033c0.18-0.009,0.436-0.021,0.764-0.044
			c0.373-0.025,0.641-0.046,0.803-0.056c0.074,0.05,0.114,0.114,0.118,0.2c0.003,0.052-0.007,0.136-0.032,0.253
			C53.789,226.933,53.754,227.076,53.757,227.133z"></path>
		<path fill="#010101" d="M56.944,229.949h-0.008c-0.035,0.073-0.048,0.179-0.035,0.312c0.018,0.193,0.025,0.292,0.025,0.296
			c-0.028,0.012-0.066-0.002-0.117-0.041c-0.075,0.026-0.109,0.074-0.106,0.14c0,0.011,0.005,0.024,0.011,0.047
			c0.003,0.028,0.003,0.048,0.004,0.059c0.003,0.052-0.013,0.09-0.046,0.116c-0.086-0.048-0.196-0.078-0.335-0.091
			c-0.138-0.014-0.27-0.026-0.394-0.039c-0.002-0.64-0.087-1.267-0.257-1.879c0,0.006-0.004-0.06-0.011-0.192
			c0-0.095-0.022-0.158-0.065-0.199l-0.059,0.053c0-0.009,0.019-0.027,0.059-0.056c0.039-0.028,0.059-0.058,0.057-0.086
			c-0.002-0.013-0.005-0.027-0.012-0.041l-0.064-0.048c-0.109,0.036-0.16,0.124-0.15,0.265c0.005,0.096-0.034,0.162-0.113,0.198
			c0.03,0.021,0.047,0.049,0.049,0.082c0.001,0.018-0.002,0.046-0.01,0.076c-0.005,0.034-0.009,0.062-0.007,0.079
			c0.002,0.043,0.023,0.077,0.067,0.104c0.001,0.028,0.016,0.282,0.043,0.761c0.019,0.306,0.011,0.567-0.023,0.78l0.006,0.119
			c-0.04-0.002-0.087-0.002-0.142,0.002c-0.058,0.004-0.143,0.011-0.253,0.024c-0.109,0.015-0.191,0.022-0.244,0.025
			c-0.216,0.014-0.368-0.022-0.455-0.109l-0.092-2.632c-0.042-0.129-0.071-0.311-0.083-0.539l-0.03-0.508
			c-0.021-0.25-0.052-0.441-0.094-0.575c0.018-0.091,0.096-0.141,0.236-0.147c0.089-0.006,0.207,0.006,0.355,0.035
			c0.067-0.032,0.163-0.053,0.285-0.059c0.035-0.002,0.092-0.003,0.167-0.003c0.082-0.003,0.141-0.01,0.176-0.011
			c0.228-0.013,0.38-0.083,0.454-0.21c0.105-0.001,0.22,0.032,0.343,0.101c0.125,0.069,0.235,0.104,0.331,0.106
			c0.247,0.148,0.381,0.389,0.4,0.729c0.004,0.077-0.026,0.374-0.088,0.897l-0.428,0.37c0.072,0.132,0.161,0.422,0.263,0.868
			C56.64,229.502,56.771,229.773,56.944,229.949z M56.154,226.953l0.01,0.006c0.008,0.032,0.003-0.084-0.012-0.344
			c-0.006-0.128-0.055-0.219-0.139-0.276c-0.048,0.068-0.058-0.092-0.08,0.068c-0.023,0.159-0.061,0.272-0.116,0.343
			c-0.146,0-0.18-0.089-0.268-0.21c-0.055-0.078-0.081-0.013-0.081-0.017l-0.04,0.034c-0.022,0.017-0.047,0.042-0.074,0.067
			c-0.028,0.025-0.058,0.033-0.088,0.025c0.003,0.027-0.011,0.074-0.04,0.133c-0.028,0.062-0.042,0.103-0.042,0.127
			c0.004,0.042,0.038,0.072,0.104,0.093c-0.014,0.097-0.017,0.194-0.011,0.299c0.004,0.056,0.016,0.186,0.041,0.386
			c0.026,0.159,0.038,0.296,0.034,0.409c0.052,0.003,0.101,0.002,0.148-0.001c0.205-0.014,0.338-0.094,0.398-0.244
			c0.02-0.044,0.044-0.201,0.07-0.47C55.991,227.176,56.056,227.033,56.154,226.953z"></path>
	</g>
	<g>
		<path fill="#010101" d="M27.882,217.805v0.005c-0.026,0.246-0.035,0.416-0.025,0.509c-0.038,0.016-0.088,0.018-0.146,0.007
			c-0.079-0.013-0.123-0.021-0.136-0.018c-0.034,0.001-0.061,0.013-0.082,0.034c-0.048-0.03-0.081-0.044-0.098-0.039
			c-0.046,0.028-0.068,0.067-0.066,0.117c0.002,0.022,0.01,0.059,0.026,0.111c0.015,0.053,0.024,0.093,0.025,0.117
			c0,0.034-0.005,0.087-0.021,0.161c-0.016,0.073-0.022,0.134-0.02,0.181c0.003,0.055,0.015,0.143,0.037,0.262
			c0.021,0.117,0.032,0.205,0.035,0.265c-0.024,0.116-0.034,0.234-0.028,0.354c0.008,0.146,0.049,0.339,0.12,0.583
			c0.013,0.005,0.025,0.006,0.039,0.005c0.028-0.001,0.064-0.022,0.105-0.063c0.041-0.04,0.076-0.062,0.105-0.062
			c0.021-0.001,0.045,0.002,0.071,0.016c0.077,0.245,0.116,0.406,0.121,0.479c0.002,0.036,0.001,0.074,0,0.109
			c-0.114,0.028-0.195-0.01-0.242-0.115c0.006-0.029-0.011-0.061-0.051-0.094l-0.127,0.135c0.125,0.02,0.174,0.115,0.149,0.286
			c-0.011,0.036-0.037,0.054-0.08,0.057c-0.073-0.003-0.107-0.003-0.103-0.003l-0.105-0.187l-0.042,0.054
			c-0.036-0.089-0.075-0.13-0.122-0.127c-0.026,0.001-0.07,0.022-0.136,0.062c-0.063,0.044-0.117,0.064-0.159,0.066
			c-0.034,0.003-0.068-0.006-0.103-0.025c-0.004-0.051-0.009-0.104-0.019-0.159c-0.009-0.056-0.037-0.09-0.085-0.106
			c-0.002-0.132,0.001-0.478,0.011-1.042c0.004-0.426,0-0.771-0.013-1.037c-0.006-0.109-0.013-0.218-0.023-0.322
			c-0.022-0.035-0.045-0.051-0.066-0.05c-0.018,0.003-0.042,0.02-0.077,0.056c-0.036,0.035-0.065,0.052-0.09,0.049
			c-0.003-0.042-0.023-0.111-0.059-0.204c-0.037-0.096-0.056-0.163-0.059-0.205c-0.003-0.072,0.023-0.136,0.081-0.19l0.149,0.038
			c0.059-0.084,0.084-0.228,0.075-0.426c-0.003-0.039-0.008-0.101-0.016-0.183c-0.01-0.083-0.015-0.142-0.017-0.182
			c-0.016-0.327,0.084-0.496,0.301-0.508c0.08-0.004,0.179,0.011,0.296,0.044l0.143,0.037c0.011,0.054,0.019,0.112,0.021,0.171
			c0.004,0.082,0.001,0.201-0.01,0.355c-0.012,0.157-0.015,0.272-0.012,0.343c0.006,0.116,0.025,0.219,0.06,0.312
			c0.035-0.002,0.088-0.021,0.161-0.056c0.072-0.037,0.125-0.055,0.161-0.055C27.797,217.718,27.845,217.745,27.882,217.805z
			 M27.437,218.263l-0.007-0.148l-0.046-0.042L27.437,218.263z"></path>
		<path fill="#010101" d="M29.638,217.345l0.006-0.001c-0.015,0.116-0.031,0.232-0.052,0.35c-0.022,0.133-0.06,0.236-0.112,0.313
			c-0.008-0.006-0.062-0.029-0.158-0.077c-0.066-0.034-0.124-0.05-0.175-0.042c-0.039,0.25-0.06,0.591-0.064,1.02
			c-0.002,0.552-0.007,0.884-0.013,0.999c-0.065-0.004-0.112,0.018-0.145,0.063c-0.032,0.047-0.062,0.093-0.088,0.141
			c-0.012,0.027-0.018,0.051-0.016,0.071c0.001,0.034,0.03,0.069,0.088,0.098c0.057,0.03,0.086,0.067,0.087,0.104
			c-0.024,0.091-0.078,0.139-0.159,0.143c-0.038,0.002-0.105-0.011-0.201-0.034c-0.094-0.026-0.161-0.039-0.2-0.034l-0.092-1.827
			c0.036-0.048,0.052-0.08,0.047-0.097l-0.053-0.035c0.005-0.077,0.008-0.461,0.012-1.146c0.002-0.467,0.021-0.842,0.053-1.13
			c-0.004,0,0.127-0.008,0.395-0.026c0.166-0.009,0.273,0.038,0.321,0.138c0,0.094-0.009,0.252-0.029,0.474
			c-0.018,0.206-0.026,0.365-0.02,0.476c0.007,0.137,0.029,0.259,0.064,0.366C29.278,217.457,29.447,217.354,29.638,217.345z
			 M30.272,217.735c0.012,0.169,0.022,0.335,0.032,0.497c0.035,0.708,0.024,1.463-0.034,2.267c-0.061,0.056-0.156,0.066-0.284,0.036
			c-0.126-0.029-0.219-0.017-0.276,0.035c-0.073-0.094-0.115-0.263-0.128-0.51c-0.017-0.357-0.027-0.543-0.028-0.556
			c-0.015-0.894,0.072-1.617,0.263-2.169C30.037,217.393,30.188,217.526,30.272,217.735z"></path>
		<path fill="#010101" d="M32.512,218.662c-0.026,0.058-0.038,0.117-0.035,0.179c0.002,0.065,0.005,0.128,0.01,0.188
			c-0.007,0.051-0.021,0.101-0.043,0.155c-0.039-0.011-0.071-0.017-0.098-0.016c-0.03,0.004-0.06,0.013-0.09,0.034
			c-0.031,0.022-0.056,0.031-0.072,0.031c-0.026,0.002-0.06-0.007-0.104-0.026l-0.296-0.431c0.01,0.125,0.039,0.238,0.087,0.334
			c0.024,0.049,0.047,0.099,0.071,0.148c-0.173,0.032-0.271,0.037-0.293,0.016l-0.042,0.053l-0.102-0.136
			c-0.08,0.1-0.099,0.241-0.055,0.433c0.052,0.206,0.055,0.354,0.009,0.447c0.064,0.095,0.141,0.139,0.231,0.134
			c0.039-0.001,0.07-0.015,0.1-0.042c0.042-0.105,0.083-0.21,0.126-0.313c0.062-0.127,0.131-0.193,0.207-0.196
			c0.06-0.003,0.13,0.026,0.21,0.092c0.095,0.035,0.145,0.08,0.148,0.133c0,0.034-0.02,0.091-0.065,0.167
			c-0.044,0.077-0.067,0.138-0.064,0.181c0.001,0.015,0.003,0.03,0.009,0.045c-0.062,0.043-0.117,0.112-0.167,0.204
			c-0.048,0.093-0.112,0.155-0.192,0.191c-0.069,0.064-0.133,0.101-0.193,0.104c-0.047,0.002-0.117-0.032-0.21-0.108
			c-0.093-0.074-0.18-0.107-0.261-0.104c-0.033-0.074-0.117-0.158-0.248-0.25c-0.132-0.091-0.216-0.189-0.247-0.294
			c0,0.008,0-0.027-0.003-0.103c-0.003-0.043-0.022-0.07-0.056-0.08l0.048-0.047c-0.064-0.002-0.097-0.038-0.101-0.111
			c-0.001-0.008-0.001-0.024-0.002-0.051c0.002-0.021,0.003-0.04,0.003-0.05c-0.002-0.054-0.019-0.088-0.05-0.108l-0.011-0.221
			c-0.005-0.116-0.028-0.199-0.07-0.248c0.042-0.271,0.084-0.542,0.125-0.812c0.069-0.313,0.174-0.476,0.309-0.48
			c0.021-0.001,0.043,0.001,0.064,0.008c0.123-0.121,0.27-0.187,0.445-0.194c0.192-0.012,0.403,0.048,0.636,0.172
			C32.357,217.985,32.468,218.312,32.512,218.662z M31.632,217.957l-0.043,0.055c-0.029,0.005-0.065-0.011-0.104-0.046l0.008,0.145
			c-0.066,0.072-0.092,0.184-0.08,0.332c0.013,0.256,0.019,0.38,0.019,0.369l0.191-0.002c0.091-0.053,0.134-0.137,0.127-0.255
			c-0.001-0.06-0.022-0.159-0.062-0.296C31.649,218.123,31.631,218.023,31.632,217.957z"></path>
	</g>
	<g>
		<polygon fill-rule="evenodd" clip-rule="evenodd" fill="#010101" points="34.012,225.1 34.202,225.21 34.848,223.519 
			34.631,223.445 33.986,225.139 34.175,225.257 34.012,225.1 34.012,225.1 		"></polygon>
		<polygon fill-rule="evenodd" clip-rule="evenodd" fill="#010101" points="34.294,224.865 34.216,224.898 34.012,225.1 
			34.175,225.257 34.383,225.044 34.301,225.086 34.294,224.865 34.294,224.865 		"></polygon>
		<polygon fill-rule="evenodd" clip-rule="evenodd" fill="#010101" points="35.856,224.854 35.948,224.781 34.294,224.865 
			34.301,225.086 35.955,225 36.06,224.924 35.856,224.854 35.856,224.854 35.856,224.854 		"></polygon>
		<polygon fill-rule="evenodd" clip-rule="evenodd" fill="#010101" points="36.603,223.297 36.489,223.155 35.856,224.854 
			36.06,224.924 36.704,223.228 36.593,223.088 36.603,223.297 36.603,223.297 36.603,223.297 		"></polygon>
		<polygon fill-rule="evenodd" clip-rule="evenodd" fill="#010101" points="35.027,223.351 34.945,223.392 36.603,223.297 
			36.593,223.088 34.942,223.161 34.861,223.203 35.027,223.351 35.027,223.351 35.027,223.351 		"></polygon>
		<polygon fill-rule="evenodd" clip-rule="evenodd" fill="#010101" points="34.848,223.519 34.823,223.554 35.027,223.351 
			34.861,223.203 34.655,223.408 34.631,223.445 34.848,223.519 34.848,223.519 34.848,223.519 		"></polygon>
		<polygon fill-rule="evenodd" clip-rule="evenodd" fill="#010101" points="36.22,225.053 36.367,224.99 36.013,224.791 
			35.9,224.993 36.264,225.193 36.425,225.123 36.21,225.051 36.21,225.051 36.22,225.053 		"></polygon>
		<polygon fill-rule="evenodd" clip-rule="evenodd" fill="#010101" points="36.913,223.49 36.854,223.358 36.21,225.051 
			36.425,225.123 37.069,223.43 37.011,223.297 36.913,223.49 36.913,223.49 		"></polygon>
		<polygon fill-rule="evenodd" clip-rule="evenodd" fill="#010101" points="36.704,223.228 36.545,223.301 36.913,223.49 
			37.011,223.297 36.657,223.1 36.489,223.155 36.704,223.228 36.704,223.228 		"></polygon>
		<polygon fill="#010101" points="34.745,223.483 34.735,223.479 34.939,223.275 36.474,223.201 36.489,223.155 36.603,223.194 
			36.704,223.228 36.698,223.247 36.967,223.395 37.069,223.43 37.028,223.538 37.778,225.324 37.143,227.021 36.322,225.089 
			36.322,225.089 36.217,225.132 36.21,225.051 36.218,225.029 35.959,224.888 35.9,224.993 35.868,224.892 34.294,224.969 
			34.089,225.171 		"></polygon>
		<polygon fill-rule="evenodd" clip-rule="evenodd" fill="#010101" points="37.041,226.985 37.249,226.976 36.428,225.045 
			36.217,225.132 37.038,227.063 37.247,227.054 37.031,226.982 37.031,226.982 37.041,226.985 		"></polygon>
		<polygon fill-rule="evenodd" clip-rule="evenodd" fill="#010101" points="37.684,225.373 37.674,225.288 37.031,226.982 
			37.247,227.054 37.891,225.362 37.885,225.28 37.684,225.373 37.684,225.373 		"></polygon>
		<polygon fill-rule="evenodd" clip-rule="evenodd" fill="#010101" points="37.069,223.43 36.861,223.439 37.684,225.373 
			37.885,225.28 37.063,223.348 36.854,223.358 37.069,223.43 37.069,223.43 		"></polygon>
		<polygon fill-rule="evenodd" clip-rule="evenodd" fill="#FFFFFF" points="37.015,223.865 37.106,224.068 37.141,224.271 
			37.13,224.471 37.072,224.68 36.971,224.883 36.831,225.065 36.649,225.23 36.431,225.375 36.312,225.426 36.193,225.477 
			36.06,225.5 35.936,225.528 35.818,225.544 35.688,225.558 35.569,225.541 35.446,225.535 35.341,225.511 35.229,225.473 
			35.12,225.426 35.024,225.371 34.942,225.31 34.85,225.245 34.775,225.162 34.713,225.073 34.621,224.874 34.587,224.669 
			34.587,224.464 34.656,224.259 34.745,224.062 34.887,223.873 35.068,223.705 35.297,223.566 35.407,223.511 35.536,223.462 
			35.658,223.437 35.78,223.409 35.91,223.394 36.029,223.379 36.149,223.394 36.271,223.402 36.385,223.438 36.497,223.477 
			36.599,223.511 36.704,223.57 36.789,223.619 36.878,223.694 36.94,223.783 37.015,223.865 37.015,223.865 37.015,223.865 		"></polygon>
		<polygon fill-rule="evenodd" clip-rule="evenodd" fill="#010101" points="37.097,224.201 37.188,224.4 37.218,224.616 
			37.209,224.816 37.154,225.015 37.063,225.224 36.908,225.406 36.742,225.569 36.514,225.708 36.39,225.771 36.271,225.82 
			36.148,225.847 36.016,225.872 35.896,225.889 35.78,225.896 35.657,225.889 35.527,225.868 35.423,225.845 35.311,225.808 
			35.211,225.763 35.106,225.704 35.02,225.652 34.942,225.581 34.864,225.511 34.794,225.406 34.7,225.218 34.666,225.013 
			34.679,224.802 34.735,224.604 34.826,224.396 34.966,224.215 35.147,224.048 35.375,223.909 35.498,223.85 35.614,223.807 
			35.739,223.77 35.873,223.746 35.989,223.739 36.108,223.722 36.227,223.739 36.349,223.746 36.467,223.774 36.579,223.81 
			36.678,223.854 36.787,223.904 36.868,223.965 36.96,224.027 37.021,224.117 37.093,224.21 37.093,224.21 37.097,224.201 		"></polygon>
		<polygon fill-rule="evenodd" clip-rule="evenodd" fill="#FFFFFF" points="37.154,224.435 37.25,224.625 37.28,224.841 
			37.27,225.043 37.216,225.238 37.113,225.443 36.969,225.633 36.803,225.793 36.574,225.934 36.463,225.999 36.333,226.046 
			36.21,226.073 36.077,226.097 35.957,226.114 35.842,226.12 35.719,226.114 35.589,226.095 35.483,226.069 35.372,226.03 
			35.272,225.986 35.167,225.93 35.082,225.878 34.993,225.802 34.928,225.725 34.856,225.633 34.762,225.443 34.727,225.236 
			34.737,225.037 34.794,224.829 34.887,224.623 35.03,224.432 35.218,224.277 35.437,224.134 35.56,224.074 35.678,224.021 
			35.802,223.995 35.934,223.971 36.053,223.953 36.17,223.947 36.302,223.957 36.411,223.971 36.527,224 36.64,224.036 
			36.748,224.083 36.844,224.138 36.93,224.189 37.021,224.253 37.083,224.344 37.154,224.435 37.154,224.435 		"></polygon>
		<polygon fill-rule="evenodd" clip-rule="evenodd" fill="#010101" points="37.235,224.768 37.328,224.97 37.362,225.174 
			37.362,225.377 37.293,225.582 37.206,225.779 37.051,225.967 36.881,226.14 36.653,226.277 36.544,226.331 36.414,226.379 
			36.292,226.407 36.17,226.432 36.038,226.447 35.919,226.465 35.801,226.447 35.678,226.441 35.562,226.414 35.45,226.375 
			35.351,226.331 35.245,226.275 35.164,226.211 35.082,226.15 35.007,226.069 34.935,225.978 34.853,225.778 34.809,225.569 
			34.819,225.371 34.877,225.162 34.975,224.969 35.12,224.779 35.3,224.611 35.519,224.469 35.637,224.417 35.756,224.366 
			35.89,224.343 36.013,224.314 36.132,224.299 36.258,224.295 36.38,224.301 36.493,224.304 36.609,224.331 36.721,224.37 
			36.831,224.417 36.925,224.471 37.019,224.537 37.099,224.6 37.175,224.68 37.232,224.78 37.232,224.78 37.235,224.768 		"></polygon>
		<polygon fill-rule="evenodd" clip-rule="evenodd" fill="#FFFFFF" points="37.354,224.99 37.451,225.182 37.485,225.386 
			37.481,225.6 37.426,225.797 37.324,226.002 37.171,226.188 37.004,226.35 36.786,226.492 36.663,226.554 36.534,226.602 
			36.411,226.629 36.288,226.654 36.159,226.668 36.043,226.676 35.919,226.668 35.801,226.651 35.685,226.625 35.572,226.587 
			35.474,226.543 35.375,226.498 35.283,226.432 35.204,226.361 35.13,226.28 35.068,226.192 34.972,226.001 34.931,225.785 
			34.942,225.581 35.007,225.389 35.099,225.181 35.241,224.99 35.419,224.833 35.637,224.691 35.759,224.628 35.879,224.576 
			36.009,224.563 36.135,224.526 36.255,224.509 36.38,224.507 36.503,224.514 36.612,224.526 36.728,224.553 36.85,224.596 
			36.949,224.64 37.048,224.685 37.141,224.748 37.218,224.819 37.294,224.901 37.354,224.99 37.354,224.99 		"></polygon>
		<polygon fill-rule="evenodd" clip-rule="evenodd" fill="#010101" points="37.447,225.326 37.529,225.525 37.573,225.731 
			37.562,225.934 37.506,226.142 37.406,226.335 37.262,226.526 37.082,226.695 36.864,226.837 36.745,226.887 36.615,226.936 
			36.493,226.961 36.371,226.989 36.25,227.007 36.122,227.021 36.001,227.003 35.879,226.996 35.773,226.972 35.651,226.932 
			35.551,226.886 35.457,226.833 35.364,226.769 35.283,226.706 35.208,226.625 35.146,226.536 35.055,226.335 35.01,226.127 
			35.02,225.926 35.088,225.721 35.177,225.522 35.319,225.332 35.5,225.166 35.73,225.026 35.839,224.973 35.968,224.926 
			36.09,224.898 36.214,224.872 36.343,224.856 36.463,224.84 36.581,224.856 36.694,224.859 36.82,224.891 36.932,224.93 
			37.031,224.975 37.126,225.026 37.218,225.092 37.3,225.154 37.375,225.235 37.447,225.326 37.447,225.326 37.447,225.326 		"></polygon>
		<polygon fill-rule="evenodd" clip-rule="evenodd" fill="#010101" points="26.178,222.728 26.189,222.663 25.541,224.366 
			25.746,224.434 26.393,222.73 26.396,222.687 26.178,222.728 26.178,222.728 26.178,222.728 		"></polygon>
		<polygon fill-rule="evenodd" clip-rule="evenodd" fill="#010101" points="26.162,222.641 26.166,222.632 26.178,222.728 
			26.396,222.687 26.374,222.588 26.378,222.576 26.162,222.641 26.162,222.641 26.162,222.641 		"></polygon>
		<polygon fill-rule="evenodd" clip-rule="evenodd" fill="#010101" points="26.138,222.544 26.162,222.641 26.378,222.576 
			26.353,222.478 26.138,222.544 26.138,222.544 26.138,222.544 		"></polygon>
		<polygon fill-rule="evenodd" clip-rule="evenodd" fill="#010101" points="26.111,222.454 26.138,222.544 26.353,222.478 
			26.326,222.39 26.111,222.454 26.111,222.454 		"></polygon>
		<polygon fill-rule="evenodd" clip-rule="evenodd" fill="#010101" points="26.087,222.355 26.087,222.355 26.111,222.454 
			26.326,222.39 26.301,222.292 26.299,222.303 26.087,222.355 26.087,222.355 26.087,222.355 		"></polygon>
		<polygon fill-rule="evenodd" clip-rule="evenodd" fill="#010101" points="26.06,222.233 26.06,222.268 26.087,222.355 
			26.299,222.303 26.271,222.213 26.282,222.25 26.06,222.233 26.06,222.233 		"></polygon>
		<polygon fill-rule="evenodd" clip-rule="evenodd" fill="#010101" points="26.277,222.192 26.063,222.153 26.06,222.233 
			26.282,222.25 26.284,222.173 26.07,222.133 26.274,222.201 26.274,222.201 26.277,222.192 		"></polygon>
		<polygon fill-rule="evenodd" clip-rule="evenodd" fill="#4D494A" points="26.464,227.148 26.443,227.039 26.215,227.077 
			26.232,227.197 26.464,227.148 26.464,227.148 26.464,227.148 		"></polygon>
		<polygon fill-rule="evenodd" clip-rule="evenodd" fill="#010101" points="26.939,225.729 26.945,225.675 26.301,227.367 
			26.505,227.435 27.15,225.742 27.146,225.684 26.939,225.729 26.939,225.729 26.939,225.729 		"></polygon>
		<polygon fill-rule="evenodd" clip-rule="evenodd" fill="#010101" points="26.921,225.609 26.939,225.729 27.146,225.684 
			27.129,225.564 26.911,225.606 26.911,225.606 26.921,225.609 		"></polygon>
		<polygon fill-rule="evenodd" clip-rule="evenodd" fill="#010101" points="26.891,225.497 26.911,225.606 27.129,225.564 
			27.099,225.452 26.891,225.497 26.891,225.497 26.891,225.497 		"></polygon>
		<polygon fill-rule="evenodd" clip-rule="evenodd" fill="#010101" points="26.863,225.375 26.87,225.389 26.891,225.497 
			27.099,225.452 27.082,225.332 27.088,225.348 26.863,225.375 26.863,225.375 26.863,225.375 		"></polygon>
		<polygon fill-rule="evenodd" clip-rule="evenodd" fill="#010101" points="27.068,225.272 26.85,225.245 26.863,225.375 
			27.088,225.348 27.072,225.229 26.854,225.201 27.068,225.272 27.068,225.272 		"></polygon>
		<g>
			<polygon fill="#4D494A" points="25.542,224.026 25.438,224.059 25.542,224.026 			"></polygon>
			<polygon fill="#4D494A" points="25.65,224.383 25.654,224.374 25.706,224.377 25.746,224.434 25.651,224.401 			"></polygon>
			<polygon fill="#010101" points="25.414,223.961 25.525,223.939 25.527,223.86 26.175,222.158 26.171,222.169 26.171,222.237 
				26.189,222.322 26.224,222.426 26.251,222.515 26.274,222.611 26.291,222.695 26.291,222.695 26.393,222.73 25.746,224.434 
				25.706,224.377 25.654,224.374 25.65,224.383 25.651,224.401 25.746,224.434 25.652,224.428 25.654,224.506 25.588,224.424 
				25.534,224.42 25.52,224.324 25.561,224.316 25.602,224.206 25.494,224.236 25.462,224.157 25.438,224.059 25.542,224.026 
				25.542,224.026 25.438,224.059 25.441,224.048 			"></polygon>
		</g>
		<g>
			<polygon fill="none" points="30.691,224.426 30.691,224.426 30.784,224.219 			"></polygon>
			<polygon fill="#010101" points="25.646,224.289 30.392,224.133 30.514,224.138 30.535,224.148 30.65,224.173 30.661,224.178 
				30.784,224.219 30.902,224.271 30.913,224.272 31.026,224.344 31.045,224.35 31.134,224.426 31.162,224.446 31.227,224.524 
				31.233,224.537 31.277,224.608 31.281,224.633 31.073,224.697 31.04,224.645 31.037,224.653 30.981,224.578 30.982,224.578 
				30.91,224.52 30.926,224.537 30.81,224.477 30.811,224.477 30.691,224.426 30.691,224.426 30.588,224.392 30.474,224.365 
				30.494,224.371 30.385,224.358 30.385,224.347 25.654,224.506 			"></polygon>
			<polygon fill="#010101" points="31.066,224.699 31.073,224.697 31.084,224.716 			"></polygon>
		</g>
		<polygon fill-rule="evenodd" clip-rule="evenodd" fill="#010101" points="33.601,228.676 33.601,228.611 32.953,230.312 
			33.168,230.385 33.816,228.683 33.816,228.615 33.601,228.676 33.601,228.676 33.601,228.676 		"></polygon>
		<polygon fill-rule="evenodd" clip-rule="evenodd" fill="#010101" points="31.729,223.021 31.715,222.995 33.601,228.676 
			33.816,228.615 31.929,222.929 31.925,222.909 31.729,223.021 31.729,223.021 31.729,223.021 		"></polygon>
		<polygon fill-rule="evenodd" clip-rule="evenodd" fill="#010101" points="31.69,222.965 31.685,222.951 31.729,223.021 
			31.925,222.909 31.882,222.835 31.872,222.83 31.68,222.962 31.68,222.962 31.69,222.965 		"></polygon>
		<polygon fill-rule="evenodd" clip-rule="evenodd" fill="#010101" points="31.646,222.894 31.628,222.876 31.68,222.962 
			31.872,222.83 31.8,222.74 31.782,222.724 31.646,222.894 31.646,222.894 31.646,222.894 		"></polygon>
		<polygon fill-rule="evenodd" clip-rule="evenodd" fill="#010101" points="31.571,222.845 31.554,222.828 31.646,222.894 
			31.782,222.724 31.69,222.658 31.674,222.641 31.571,222.845 31.571,222.845 		"></polygon>
		<polygon fill-rule="evenodd" clip-rule="evenodd" fill="#010101" points="31.469,222.775 31.459,222.774 31.571,222.845 
			31.674,222.641 31.557,222.578 31.547,222.576 31.469,222.775 31.469,222.775 		"></polygon>
		<polygon fill-rule="evenodd" clip-rule="evenodd" fill="#010101" points="31.36,222.729 31.336,222.731 31.469,222.775 
			31.547,222.576 31.428,222.525 31.418,222.522 31.347,222.735 31.347,222.735 31.36,222.729 		"></polygon>
		<polygon fill-rule="evenodd" clip-rule="evenodd" fill="#010101" points="31.237,222.688 31.224,222.694 31.347,222.735 
			31.418,222.522 31.295,222.48 31.295,222.48 31.233,222.697 31.233,222.697 31.237,222.688 		"></polygon>
		<polygon fill-rule="evenodd" clip-rule="evenodd" fill="#010101" points="31.143,222.667 31.122,222.661 31.233,222.697 
			31.295,222.48 31.169,222.451 31.159,222.448 31.143,222.667 31.143,222.667 31.143,222.667 		"></polygon>
		<polygon fill-rule="evenodd" clip-rule="evenodd" fill="#010101" points="31.032,222.654 31.029,222.664 31.143,222.667 
			31.159,222.448 31.04,222.428 31.026,222.436 31.032,222.654 31.032,222.654 		"></polygon>
		<polygon fill-rule="evenodd" clip-rule="evenodd" fill="#010101" points="26.404,222.734 26.289,222.807 31.032,222.654 
			31.026,222.436 26.291,222.596 26.189,222.663 26.393,222.73 26.393,222.73 26.404,222.734 		"></polygon>
		<polygon fill="#4D494A" points="27.596,227.913 27.58,227.902 27.59,227.898 		"></polygon>
		<g>
			<polygon fill="#4D494A" points="30.158,228.677 30.139,228.907 30.158,228.677 			"></polygon>
			<g>
				<polygon fill="none" points="30.149,228.788 30.139,228.907 30.149,228.788 				"></polygon>
				<g>
					<polygon fill="none" points="26.303,226.944 26.312,226.928 26.315,226.951 					"></polygon>
					<path fill="#010101" d="M26.232,227.197l0.021,0.109l0.041,0.116l0.051,0.084l0.29,0.152l0.29,0.153l0.279,0.151l0.283,0.14
						l0.011,0.004l0.287,0.129l0.285,0.13l0.311,0.127l0.314,0.115l0.01,0.004l0.334,0.087l0.334,0.089l0.011,0.004l0.369,0.056
						l0.378,0.058l0.01,0.002l0.412,0.022l0.014-0.005l0.44,0.012l0.47-0.016l0.499-0.025l0.103-0.069l0.644-1.692l-0.109-0.149
						l0.007,0.218l-0.035-0.042l0.025-0.062l-0.072,0.003l-0.03-0.038l-0.017,0.043l-0.369,0.021h-0.477l-0.44-0.009l-0.402-0.02
						l-0.393-0.052l-0.364-0.065l-0.335-0.088l-0.333-0.09l-0.312-0.116l-0.305-0.113l-0.285-0.128l-0.284-0.14l-0.293-0.143
						l-0.28-0.151l-0.278-0.149l-0.195-0.102l0.007-0.019l-0.103-0.034l0,0l-0.027-0.122L27,225.477l-0.009-0.037l0.078-0.167
						l-0.108-0.036l-0.006-0.001l0,0l-0.101-0.034l-0.646,1.692l-0.006,0.056l0.016,0.119L26.232,227.197z M26.312,226.928
						l0.004,0.023l-0.012-0.007L26.312,226.928z"></path>
				</g>
			</g>
		</g>
		<polygon fill-rule="evenodd" clip-rule="evenodd" fill="#010101" points="32.12,227.229 32.617,227.202 32.61,226.984 
			32.112,227.012 32.12,227.229 32.12,227.229 32.12,227.229 		"></polygon>
		<polygon fill-rule="evenodd" clip-rule="evenodd" fill="#010101" points="31.649,227.244 32.12,227.229 32.112,227.012 
			31.643,227.025 31.649,227.244 31.649,227.244 31.649,227.244 		"></polygon>
		<polygon fill-rule="evenodd" clip-rule="evenodd" fill="#010101" points="31.2,227.229 31.21,227.232 31.649,227.244 
			31.643,227.025 31.203,227.015 31.216,227.008 31.195,227.239 31.195,227.239 31.2,227.229 		"></polygon>
		<polygon fill-rule="evenodd" clip-rule="evenodd" fill="#010101" points="30.775,227.202 30.787,227.204 31.195,227.239 
			31.216,227.008 30.804,226.982 30.813,226.987 30.775,227.202 30.775,227.202 30.775,227.202 		"></polygon>
		<polygon fill-rule="evenodd" clip-rule="evenodd" fill="#010101" points="30.394,227.153 30.775,227.202 30.813,226.987 
			30.436,226.93 30.394,227.153 30.394,227.153 		"></polygon>
		<polygon fill-rule="evenodd" clip-rule="evenodd" fill="#010101" points="30.019,227.086 30.029,227.092 30.394,227.153 
			30.436,226.93 30.057,226.871 30.067,226.875 30.019,227.086 30.019,227.086 30.019,227.086 		"></polygon>
		<polygon fill-rule="evenodd" clip-rule="evenodd" fill="#010101" points="29.686,226.996 30.019,227.086 30.067,226.875 
			29.734,226.787 29.682,227.008 29.682,227.008 29.686,226.996 		"></polygon>
		<polygon fill-rule="evenodd" clip-rule="evenodd" fill="#010101" points="29.337,226.915 29.348,226.919 29.682,227.008 
			29.734,226.787 29.4,226.698 29.41,226.701 29.337,226.915 29.337,226.915 		"></polygon>
		<polygon fill-rule="evenodd" clip-rule="evenodd" fill="#010101" points="29.024,226.799 29.024,226.799 29.337,226.915 
			29.41,226.701 29.096,226.585 29.107,226.588 29.015,226.796 29.015,226.796 29.024,226.799 		"></polygon>
		<polygon fill-rule="evenodd" clip-rule="evenodd" fill="#010101" points="28.714,226.674 29.015,226.796 29.107,226.588 
			28.807,226.466 28.714,226.674 28.714,226.674 		"></polygon>
		<polygon fill-rule="evenodd" clip-rule="evenodd" fill="#010101" points="28.428,226.543 28.714,226.674 28.807,226.466 
			28.517,226.345 28.428,226.543 28.428,226.543 		"></polygon>
		<polygon fill-rule="evenodd" clip-rule="evenodd" fill="#010101" points="28.135,226.4 28.141,226.415 28.428,226.543 
			28.517,226.345 28.224,226.204 28.234,226.207 28.131,226.409 28.131,226.409 28.135,226.4 		"></polygon>
		<polygon fill-rule="evenodd" clip-rule="evenodd" fill="#010101" points="27.853,226.261 28.131,226.409 28.234,226.207 
			27.95,226.067 27.849,226.27 27.849,226.27 27.853,226.261 		"></polygon>
		<polygon fill-rule="evenodd" clip-rule="evenodd" fill="#010101" points="27.573,226.111 27.849,226.27 27.95,226.067 
			27.672,225.917 27.562,226.106 27.562,226.106 27.573,226.111 		"></polygon>
		<polygon fill-rule="evenodd" clip-rule="evenodd" fill="#010101" points="27.282,225.956 27.562,226.106 27.672,225.917 
			27.392,225.767 27.282,225.956 27.282,225.956 		"></polygon>
		<polygon fill-rule="evenodd" clip-rule="evenodd" fill="#010101" points="27.15,225.742 26.992,225.802 27.282,225.956 
			27.392,225.767 27.103,225.613 26.945,225.675 27.15,225.742 27.15,225.742 27.15,225.742 		"></polygon>
		<polygon fill-rule="evenodd" clip-rule="evenodd" fill="#010101" points="56.697,222.676 56.048,224.377 58.165,225.084 
			58.655,223.951 58.669,223.846 58.673,223.73 58.655,223.612 58.614,223.497 58.547,223.393 58.492,223.284 58.403,223.176 
			58.312,223.076 58.217,222.989 58.111,222.896 58.001,222.813 57.896,222.755 57.792,222.688 57.674,222.637 57.568,222.577 
			57.466,222.545 57.375,222.516 57.264,222.501 57.166,222.492 57.071,222.504 56.976,222.519 56.874,222.551 56.784,222.612 
			56.697,222.676 56.697,222.676 56.697,222.676 		"></polygon>
		<polygon fill-rule="evenodd" clip-rule="evenodd" fill="#010101" points="58.069,225.027 58.202,224.972 56.085,224.266 
			56.013,224.479 58.132,225.184 58.274,225.131 58.069,225.027 58.069,225.027 		"></polygon>
		<g>
			<polygon fill="none" points="58.478,225.519 58.491,225.633 58.478,225.519 			"></polygon>
			<polygon fill="none" points="59.569,224.379 59.647,224.455 59.563,224.394 			"></polygon>
			<g>
				<polygon fill="none" points="59.647,224.455 59.563,224.394 59.569,224.379 				"></polygon>
				<g>
					<polygon fill="none" points="59.647,224.455 59.563,224.394 59.569,224.379 					"></polygon>
					<polygon fill="#010101" points="25.414,223.857 25.425,223.826 26.07,222.133 26.274,222.201 25.649,223.875 25.637,223.943 
						25.634,223.92 25.414,223.961 25.412,223.937 					"></polygon>
					<g>
						<polygon fill="none" points="59.647,224.455 59.563,224.394 59.569,224.379 						"></polygon>
						<polygon fill="#4D494A" points="35.793,227.866 35.755,227.888 35.752,227.886 						"></polygon>
						<g>
							<polygon fill="none" points="35.835,227.964 35.916,228.041 35.835,227.964 							"></polygon>
							<polygon fill="none" points="59.647,224.455 59.563,224.394 59.569,224.379 							"></polygon>
							<polygon fill="none" points="33.056,230.348 33.063,230.348 33.063,230.35 32.953,230.312 33.046,230.315 							"></polygon>
							<path fill="#010101" d="M25.494,224.236l0.022,0.1l0.004-0.012l0.167-0.032l-0.043,0.106l4.745-0.153l0.111,0.003
								l0.123,0.043l0.124,0.037l0.122,0.044l0.113,0.069l0.092,0.065l0.064,0.079l0.04,0.078l-0.111,0.035l1.887,5.682l0.111,0.001
								l0.003,0.069h0.17l0.16-0.002l0.146,0.002l0.133-0.021l0.135-0.036l0.137-0.067l0.125-0.104l0.15-0.145l0.003-0.011
								l0.086-0.118l0.098-0.125l0.113-0.133l0.079-0.134l0.1-0.16l0.102-0.137l0.084-0.151l0.11-0.159l0.088-0.128l0.126-0.14
								l0.103-0.136l0.119-0.121l0.105-0.111l0.113-0.1l0.108-0.088l0.126-0.07l0.027-0.016l-0.08-0.077l0,0l0.08,0.077l0.127-0.14
								l0.116-0.107l0.102-0.103l0.11-0.091l0.105-0.077l0.111-0.065l0.1-0.057l0.109-0.053l0.123-0.029l0.119-0.05l0.123-0.027
								l0.142-0.021l0.157-0.027l0.175-0.009l0.188-0.017l0.183-0.008l0.011,0.005l20.475-1.532l0.121-0.012l0.109-0.022
								l0.098-0.024l0.103-0.034l0.095-0.048l0.099-0.058l0.082-0.076l0.095-0.082l0.02-0.026l0.359-0.834l-0.187-0.119l0.083,0.08
								l-0.014,0.012l-0.091-0.065l-0.089,0.21l-0.062,0.036l-0.077,0.03l-0.092,0.038l-0.086,0.016l-0.109,0.022l-0.109,0.02
								l-20.485,1.525l-0.13,0.013l-0.126,0.005l-0.125,0.002l-0.134,0.021h-0.137l-0.118,0.02l-0.13,0.013l-0.119,0.018
								l-0.133,0.023l-0.12,0.017l-0.122,0.027l-0.137,0.035l-0.123,0.027l-0.13,0.047l-0.129,0.049l-0.122,0.06l-0.242,0.147
								l-0.246,0.224l-0.259,0.267l-0.249,0.305l-0.242,0.314l-0.208,0.283l-0.205,0.273l-0.169,0.205l-0.1,0.023l-0.085,0.018
								l-0.106,0.009h-0.103h-0.102l-0.088-0.005l-0.112-0.005l-0.099-0.011l-1.88-5.67l-0.042-0.081l-0.064-0.08l-0.091-0.062
								l-0.124-0.075l-0.12-0.053l-0.122-0.04l-0.117-0.029l-0.112-0.003l-4.741,0.145l-0.57,1.5l-0.003-0.021L25.494,224.236z
								 M59.563,224.394l0.005-0.015l0.079,0.076L59.563,224.394z"></path>
						</g>
					</g>
				</g>
			</g>
		</g>
		<polygon fill-rule="evenodd" clip-rule="evenodd" fill="#010101" points="58.847,224.812 58.969,224.783 59.078,224.764 
			59.178,224.738 59.28,224.703 59.375,224.656 59.474,224.6 59.551,224.536 59.647,224.455 59.485,224.297 59.413,224.375 
			59.338,224.431 59.264,224.473 59.188,224.504 59.112,224.525 59.023,224.552 58.929,224.564 58.823,224.576 58.847,224.812 
			58.847,224.812 		"></polygon>
		<polygon fill-rule="evenodd" clip-rule="evenodd" fill="#010101" points="38.373,226.33 58.847,224.812 58.823,224.576 
			38.348,226.104 38.373,226.33 38.373,226.33 		"></polygon>
		<polygon fill-rule="evenodd" clip-rule="evenodd" fill="#010101" points="36.366,226.694 36.485,226.642 36.602,226.602 
			36.742,226.558 36.857,226.517 36.983,226.479 37.102,226.463 37.223,226.445 37.354,226.422 37.464,226.4 37.589,226.398 
			37.72,226.384 37.849,226.371 37.979,226.356 38.094,226.35 38.235,226.339 38.373,226.33 38.348,226.104 38.217,226.119 
			38.089,226.13 37.952,226.13 37.822,226.146 37.695,226.149 37.573,226.176 37.447,226.179 37.308,226.188 37.184,226.216 
			37.063,226.244 36.93,226.268 36.792,226.302 36.677,226.342 36.538,226.386 36.397,226.43 36.273,226.491 36.366,226.694 
			36.366,226.694 36.366,226.694 		"></polygon>
		<polygon fill-rule="evenodd" clip-rule="evenodd" fill="#010101" points="34.532,228.716 34.577,228.686 34.668,228.578 
			34.75,228.472 34.849,228.346 34.951,228.207 35.068,228.065 35.174,227.919 35.292,227.764 35.412,227.613 35.535,227.449 
			35.66,227.309 35.784,227.18 35.91,227.039 36.015,226.928 36.148,226.837 36.258,226.748 36.366,226.694 36.273,226.491 
			36.135,226.57 36.015,226.654 35.875,226.769 35.743,226.894 35.62,227.025 35.498,227.151 35.361,227.323 35.241,227.476 
			35.122,227.63 35.003,227.782 34.898,227.929 34.781,228.073 34.678,228.207 34.58,228.335 34.499,228.443 34.424,228.531 
			34.464,228.51 34.532,228.716 34.532,228.716 34.532,228.716 		"></polygon>
		<polygon fill="none" points="56.652,222.773 56.697,222.676 56.777,222.6 56.901,222.539 57.043,222.519 57.121,222.522 
			57.212,222.527 57.295,222.545 57.38,222.562 57.483,222.598 57.576,222.627 57.674,222.672 57.781,222.729 57.869,222.771 
			57.961,222.835 58.043,222.896 58.132,222.972 58.223,223.036 58.288,223.113 58.368,223.186 58.431,223.265 58.551,223.416 
			58.612,223.574 58.643,223.652 58.66,223.704 58.65,223.838 58.625,223.942 58.55,224.031 58.441,224.084 58.295,224.114 
			58.213,224.124 58.128,224.104 58.029,224.095 57.924,224.071 57.831,224.04 57.729,224.004 57.62,223.958 57.524,223.904 
			57.426,223.859 57.319,223.802 57.227,223.738 57.139,223.662 57.057,223.602 56.972,223.518 56.897,223.434 56.833,223.355 
			56.727,223.194 56.666,223.039 56.649,222.988 56.631,222.902 		"></polygon>
		<polygon fill-rule="evenodd" clip-rule="evenodd" fill="#FFFFFF" points="30.61,222.56 31.032,222.551 31.066,222.551 
			27.437,221.342 27.252,221.45 30.606,222.568 30.606,222.568 30.61,222.56 		"></polygon>
		<polygon fill-rule="evenodd" clip-rule="evenodd" fill="#FFFFFF" points="30.61,222.56 26.291,222.695 26.274,222.611 
			26.251,222.515 26.224,222.426 26.189,222.322 26.171,222.237 26.171,222.169 26.2,222.086 26.274,222.031 26.452,221.909 
			26.649,221.795 26.847,221.678 27.045,221.563 27.233,221.443 27.252,221.45 30.606,222.568 30.606,222.568 30.61,222.56 		"></polygon>
		<polygon fill="#FFFFFF" points="27.984,225.181 30.926,225.016 32.078,225.479 32.484,226.681 32.607,227.098 32.12,227.126 
			31.643,227.126 31.203,227.117 30.801,227.098 30.408,227.046 30.044,226.98 29.708,226.893 29.375,226.803 29.063,226.687 
			28.758,226.573 28.473,226.445 28.189,226.306 27.896,226.163 27.616,226.012 27.338,225.862 27.047,225.708 27.021,225.586 
			27,225.477 26.973,225.354 26.955,225.235 		"></polygon>
		<polygon fill-rule="evenodd" clip-rule="evenodd" fill="#FFFFFF" points="35.396,225.518 35.437,225.564 35.815,225.793 
			35.936,225.599 35.559,225.369 35.597,225.426 35.396,225.518 35.409,225.544 35.437,225.564 35.396,225.518 35.396,225.518 		"></polygon>
		<polygon fill-rule="evenodd" clip-rule="evenodd" fill="#FFFFFF" points="32.032,225.587 31.966,225.51 32.505,227.129 
			32.719,227.064 32.181,225.443 32.123,225.379 32.181,225.443 32.164,225.394 32.123,225.379 32.032,225.587 32.032,225.587 
			32.032,225.587 		"></polygon>
		<polygon fill-rule="evenodd" clip-rule="evenodd" fill="#FFFFFF" points="30.938,225.121 30.882,225.114 32.032,225.587 
			32.123,225.379 30.975,224.906 30.93,224.902 30.975,224.906 30.954,224.9 30.93,224.902 30.938,225.121 30.938,225.121 
			30.938,225.121 		"></polygon>
		<polygon fill-rule="evenodd" clip-rule="evenodd" fill="#FFFFFF" points="27.072,225.229 26.962,225.35 30.938,225.121 
			30.93,224.902 26.956,225.132 26.85,225.245 26.956,225.132 26.829,225.136 26.85,225.245 27.072,225.229 27.072,225.229 		"></polygon>
		<polygon fill-rule="evenodd" clip-rule="evenodd" fill="#FFFFFF" points="27.103,225.613 27.146,225.684 27.143,225.627 
			27.129,225.564 27.125,225.508 27.109,225.457 27.105,225.399 27.091,225.339 27.076,225.286 27.072,225.229 26.85,225.245 
			26.85,225.312 26.861,225.386 26.877,225.435 26.881,225.492 26.897,225.544 26.911,225.606 26.936,225.672 26.939,225.729 
			26.992,225.802 26.939,225.729 26.955,225.778 26.992,225.802 27.103,225.613 27.103,225.613 		"></polygon>
		<polygon fill-rule="evenodd" clip-rule="evenodd" fill="#FFFFFF" points="32.507,227.12 32.599,226.98 32.112,227.012 
			31.643,227.025 31.216,227.008 30.804,226.982 30.436,226.93 30.067,226.875 29.734,226.787 29.41,226.701 29.096,226.585 
			28.807,226.466 28.517,226.345 28.234,226.207 27.95,226.067 27.672,225.917 27.392,225.767 27.103,225.613 26.992,225.802 
			27.282,225.956 27.562,226.106 27.849,226.27 28.131,226.409 28.428,226.543 28.714,226.674 29.024,226.799 29.337,226.915 
			29.682,227.008 30.019,227.086 30.394,227.153 30.787,227.204 31.195,227.239 31.649,227.244 32.12,227.229 32.627,227.204 
			32.719,227.064 32.627,227.204 32.767,227.195 32.719,227.064 32.505,227.129 32.505,227.129 32.507,227.12 		"></polygon>
		<g>
			<polygon fill="none" points="34.564,228.56 34.647,228.642 34.564,228.56 			"></polygon>
			<polygon fill="none" points="33.81,228.531 33.79,228.532 33.79,228.532 			"></polygon>
			<polygon fill="none" points="31.959,223.02 34.942,224.016 31.959,223.02 			"></polygon>
		</g>
		<polygon fill-rule="evenodd" clip-rule="evenodd" fill="#FFFFFF" points="38.348,226.104 38.198,226.112 38.029,226.136 
			37.88,226.142 37.718,226.153 37.56,226.182 37.393,226.207 37.226,226.23 37.065,226.268 36.905,226.306 36.765,226.35 
			36.611,226.4 36.469,226.454 36.345,226.517 36.2,226.58 36.081,226.666 35.971,226.753 36.107,226.927 36.213,226.847 
			36.315,226.777 36.428,226.713 36.558,226.666 36.684,226.595 36.82,226.561 36.979,226.522 37.12,226.479 37.273,226.463 
			37.41,226.427 37.573,226.415 37.73,226.387 37.897,226.362 38.06,226.35 38.213,226.332 38.373,226.33 38.348,226.104 
			38.348,226.104 38.348,226.104 		"></polygon>
		<polygon fill-rule="evenodd" clip-rule="evenodd" fill="#FFFFFF" points="58.823,224.576 38.348,226.104 38.373,226.33 
			58.847,224.812 58.823,224.576 58.823,224.576 		"></polygon>
		<polygon fill-rule="evenodd" clip-rule="evenodd" fill="#FFFFFF" points="59.204,223.326 59.289,223.449 59.378,223.557 
			59.42,223.674 59.485,223.786 59.517,223.888 59.528,223.994 59.531,224.084 59.524,224.173 59.501,224.246 59.467,224.314 
			59.423,224.378 59.343,224.443 59.262,224.484 59.132,224.531 58.998,224.564 58.823,224.576 58.847,224.812 59.034,224.793 
			59.198,224.746 59.34,224.691 59.467,224.622 59.584,224.546 59.664,224.436 59.708,224.337 59.75,224.214 59.748,224.088 
			59.753,223.967 59.726,223.846 59.682,223.705 59.631,223.583 59.562,223.449 59.474,223.304 59.385,223.197 59.204,223.326 
			59.204,223.326 		"></polygon>
		<polygon fill-rule="evenodd" clip-rule="evenodd" fill="#FFFFFF" points="56.764,222.164 56.948,222.155 57.135,222.175 
			57.327,222.216 57.51,222.242 57.685,222.3 57.859,222.358 58.025,222.436 58.183,222.513 58.346,222.6 58.495,222.694 
			58.655,222.795 58.771,222.89 58.895,222.998 59.014,223.117 59.113,223.229 59.204,223.326 59.385,223.197 59.28,223.07 
			59.161,222.951 59.04,222.83 58.908,222.718 58.762,222.613 58.615,222.508 58.465,222.412 58.296,222.309 58.118,222.227 
			57.937,222.155 57.751,222.096 57.559,222.03 57.367,221.988 57.172,221.959 56.95,221.941 56.757,221.943 56.764,222.164 
			56.764,222.164 		"></polygon>
		<polygon fill-rule="evenodd" clip-rule="evenodd" fill="#FFFFFF" points="38.647,222.786 56.764,222.164 56.757,221.943 
			38.651,222.572 38.647,222.786 38.647,222.786 		"></polygon>
		<polygon fill-rule="evenodd" clip-rule="evenodd" fill="#FFFFFF" points="35.787,222.331 35.958,222.401 36.139,222.438 
			36.312,222.496 36.493,222.531 36.684,222.575 36.861,222.622 37.056,222.653 37.23,222.678 37.411,222.715 37.598,222.731 
			37.781,222.759 37.963,222.761 38.135,222.785 38.32,222.778 38.488,222.79 38.647,222.786 38.651,222.572 38.48,222.572 
			38.313,222.562 38.156,222.554 37.979,222.542 37.802,222.527 37.625,222.515 37.451,222.49 37.267,222.462 37.087,222.426 
			36.913,222.401 36.735,222.354 36.552,222.326 36.375,222.277 36.186,222.227 36.029,222.188 35.856,222.129 35.785,222.343 
			35.785,222.343 35.787,222.331 		"></polygon>
		<polygon fill-rule="evenodd" clip-rule="evenodd" fill="#FFFFFF" points="29.677,220.658 29.987,220.613 30.279,220.586 
			30.56,220.564 30.815,220.548 31.057,220.538 31.275,220.565 31.5,220.574 31.688,220.589 31.882,220.621 32.063,220.659 
			32.232,220.692 32.387,220.744 32.55,220.798 32.679,220.854 32.839,220.916 32.966,220.98 33.111,221.054 33.259,221.125 
			33.402,221.208 33.546,221.289 33.689,221.371 33.839,221.468 33.986,221.538 34.145,221.637 34.322,221.721 34.493,221.822 
			34.684,221.896 34.868,221.99 35.074,222.082 35.301,222.158 35.54,222.261 35.785,222.343 35.856,222.129 35.611,222.048 
			35.369,221.955 35.167,221.875 34.957,221.795 34.762,221.695 34.595,221.615 34.424,221.514 34.257,221.436 34.094,221.349 
			33.94,221.262 33.798,221.181 33.648,221.083 33.504,221.002 33.358,220.931 33.212,220.859 33.078,220.779 32.932,220.709 
			32.771,220.646 32.622,220.584 32.458,220.529 32.284,220.471 32.103,220.435 31.92,220.405 31.718,220.361 31.511,220.337 
			31.296,220.334 31.045,220.331 30.808,220.33 30.531,220.341 30.252,220.36 29.956,220.398 29.649,220.434 29.666,220.652 
			29.666,220.652 29.677,220.658 		"></polygon>
		<polygon fill-rule="evenodd" clip-rule="evenodd" fill="#FFFFFF" points="26.333,222.132 26.509,222.008 26.707,221.893 
			26.905,221.777 27.106,221.652 27.291,221.543 27.499,221.43 27.692,221.325 27.894,221.232 28.109,221.135 28.324,221.034 
			28.534,220.948 28.752,220.871 28.988,220.815 29.203,220.749 29.438,220.692 29.666,220.652 29.649,220.434 29.394,220.483 
			29.151,220.528 28.913,220.593 28.688,220.657 28.463,220.751 28.231,220.834 28.021,220.922 27.805,221.022 27.587,221.13 
			27.379,221.242 27.185,221.349 26.987,221.464 26.789,221.58 26.591,221.695 26.404,221.815 26.216,221.933 26.322,222.129 
			26.322,222.129 26.333,222.132 		"></polygon>
		<polygon fill-rule="evenodd" clip-rule="evenodd" fill="#FFFFFF" points="26.291,222.596 26.407,222.688 26.374,222.588 
			26.353,222.478 26.326,222.39 26.301,222.292 26.289,222.228 26.277,222.192 26.295,222.143 26.322,222.129 26.216,221.933 
			26.118,222.026 26.066,222.145 26.053,222.255 26.087,222.355 26.111,222.454 26.138,222.544 26.166,222.632 26.182,222.718 
			26.289,222.807 26.182,222.718 26.186,222.807 26.289,222.807 26.291,222.596 26.291,222.596 		"></polygon>
		<g>
			<polygon fill="none" points="34.655,223.408 34.657,223.409 34.629,223.525 			"></polygon>
			<polygon fill="#FFFFFF" points="34.661,223.398 34.657,223.409 34.655,223.408 			"></polygon>
			<polygon fill="#FFFFFF" points="34.609,223.451 34.655,223.408 34.629,223.525 			"></polygon>
			<g>
				<polygon fill="none" points="56.697,222.676 56.777,222.6 56.901,222.539 57.043,222.519 57.121,222.522 57.212,222.527 
					57.295,222.545 57.38,222.562 57.483,222.598 57.576,222.627 57.674,222.672 57.781,222.729 57.869,222.771 57.961,222.835 
					58.043,222.896 58.132,222.972 58.223,223.036 58.288,223.113 58.368,223.186 58.431,223.265 58.551,223.416 58.612,223.574 
					58.643,223.652 58.66,223.704 58.65,223.838 58.625,223.942 58.55,224.031 58.441,224.084 58.295,224.114 58.213,224.124 
					58.128,224.104 58.029,224.095 57.924,224.071 57.831,224.04 57.729,224.004 57.62,223.958 57.524,223.904 57.426,223.859 
					57.319,223.802 57.227,223.738 57.139,223.662 57.057,223.602 56.972,223.518 56.897,223.434 56.833,223.355 56.727,223.194 
					56.666,223.039 56.649,222.988 56.631,222.902 56.652,222.773 				"></polygon>
				<polygon fill="none" points="36.963,223.393 36.963,223.393 36.861,223.439 				"></polygon>
				<polygon fill="none" points="37.699,225.252 37.771,225.31 37.778,225.324 37.584,225.565 35.873,225.688 35.5,225.474 
					35.499,225.471 35.597,225.426 34.869,223.51 34.989,223.389 36.545,223.301 36.875,223.473 37.684,225.373 				"></polygon>
				<polygon fill="none" points="31.861,222.817 31.861,222.817 34.724,223.771 				"></polygon>
				<g>
					<polygon fill="none" points="56.697,222.676 56.777,222.6 56.901,222.539 57.043,222.519 57.121,222.522 57.212,222.527 
						57.295,222.545 57.38,222.562 57.483,222.598 57.576,222.627 57.674,222.672 57.781,222.729 57.869,222.771 57.961,222.835 
						58.043,222.896 58.132,222.972 58.223,223.036 58.288,223.113 58.368,223.186 58.431,223.265 58.551,223.416 58.612,223.574 
						58.643,223.652 58.66,223.704 58.65,223.838 58.625,223.942 58.55,224.031 58.441,224.084 58.295,224.114 58.213,224.124 
						58.128,224.104 58.029,224.095 57.924,224.071 57.831,224.04 57.729,224.004 57.62,223.958 57.524,223.904 57.426,223.859 
						57.319,223.802 57.227,223.738 57.139,223.662 57.057,223.602 56.972,223.518 56.897,223.434 56.833,223.355 56.727,223.194 
						56.666,223.039 56.649,222.988 56.631,222.902 56.652,222.773 					"></polygon>
					<polygon fill="none" points="36.545,223.301 36.875,223.473 37.684,225.373 37.699,225.252 37.771,225.31 37.778,225.324 
						37.584,225.565 35.873,225.688 35.5,225.474 35.499,225.471 35.597,225.426 34.869,223.51 34.989,223.389 					"></polygon>
					<polygon fill="none" points="31.861,222.817 31.861,222.817 34.724,223.771 					"></polygon>
					<g>
						<polygon fill="none" points="56.697,222.676 56.777,222.6 56.901,222.539 57.043,222.519 57.121,222.522 57.212,222.527 
							57.295,222.545 57.38,222.562 57.483,222.598 57.576,222.627 57.674,222.672 57.781,222.729 57.869,222.771 57.961,222.835 
							58.043,222.896 58.132,222.972 58.223,223.036 58.288,223.113 58.368,223.186 58.431,223.265 58.551,223.416 58.612,223.574 
							58.643,223.652 58.66,223.704 58.65,223.838 58.625,223.942 58.55,224.031 58.441,224.084 58.295,224.114 58.213,224.124 
							58.128,224.104 58.029,224.095 57.924,224.071 57.831,224.04 57.729,224.004 57.62,223.958 57.524,223.904 57.426,223.859 
							57.319,223.802 57.227,223.738 57.139,223.662 57.057,223.602 56.972,223.518 56.897,223.434 56.833,223.355 56.727,223.194 
							56.666,223.039 56.649,222.988 56.631,222.902 56.652,222.773 						"></polygon>
						<polygon fill="none" points="36.545,223.301 36.875,223.473 37.684,225.373 37.699,225.252 37.771,225.31 37.778,225.324 
							37.585,225.562 37.573,225.461 35.862,225.582 35.936,225.599 35.88,225.687 35.873,225.688 35.5,225.474 35.499,225.471 
							35.597,225.426 34.869,223.51 34.989,223.389 						"></polygon>
						<polygon fill="none" points="31.861,222.817 31.861,222.817 34.724,223.771 						"></polygon>
						<g>
							<polygon fill="none" points="37.742,224.949 40.986,226.029 37.742,224.949 							"></polygon>
							<polygon fill="none" points="37.659,224.75 41.394,225.998 37.659,224.75 							"></polygon>
							<polygon fill="none" points="56.697,222.676 56.777,222.6 56.901,222.539 57.043,222.519 57.121,222.522 57.212,222.527 
								57.295,222.545 57.38,222.562 57.483,222.598 57.576,222.627 57.674,222.672 57.781,222.729 57.869,222.771 57.961,222.835 
								58.043,222.896 58.132,222.972 58.223,223.036 58.288,223.113 58.368,223.186 58.431,223.265 58.551,223.416 58.612,223.574 
								58.643,223.652 58.66,223.704 58.65,223.838 58.625,223.942 58.55,224.031 58.441,224.084 58.295,224.114 58.213,224.124 
								58.128,224.104 58.029,224.095 57.924,224.071 57.831,224.04 57.729,224.004 57.62,223.958 57.524,223.904 57.426,223.859 
								57.319,223.802 57.227,223.738 57.139,223.662 57.057,223.602 56.972,223.518 56.897,223.434 56.833,223.355 56.727,223.194 
								56.666,223.039 56.649,222.988 56.631,222.902 56.652,222.773 							"></polygon>
							<polygon fill="none" points="36.545,223.301 36.875,223.473 37.684,225.373 37.699,225.252 37.771,225.31 37.778,225.324 
								37.585,225.562 37.584,225.565 35.88,225.687 35.873,225.688 35.5,225.474 35.499,225.471 35.597,225.426 34.869,223.51 
								34.989,223.389 							"></polygon>
							<polygon fill="none" points="31.861,222.817 31.861,222.817 34.724,223.771 							"></polygon>
							<polygon fill="#FFFFFF" points="37.659,224.75 41.394,225.998 40.989,226.021 40.986,226.029 37.742,224.949 							"></polygon>
							<g>
								<polygon fill="none" points="56.697,222.676 56.777,222.6 56.901,222.539 57.043,222.519 57.121,222.522 57.212,222.527 
									57.295,222.545 57.38,222.562 57.483,222.598 57.576,222.627 57.674,222.672 57.781,222.729 57.869,222.771 57.961,222.835 
									58.043,222.896 58.132,222.972 58.223,223.036 58.288,223.113 58.368,223.186 58.431,223.265 58.551,223.416 
									58.612,223.574 58.643,223.652 58.66,223.704 58.65,223.838 58.625,223.942 58.55,224.031 58.441,224.084 58.295,224.114 
									58.213,224.124 58.128,224.104 58.029,224.095 57.924,224.071 57.831,224.04 57.729,224.004 57.62,223.958 57.524,223.904 
									57.426,223.859 57.319,223.802 57.227,223.738 57.139,223.662 57.057,223.602 56.972,223.518 56.897,223.434 
									56.833,223.355 56.727,223.194 56.666,223.039 56.649,222.988 56.631,222.902 56.652,222.773 								"></polygon>
								<polygon fill="none" points="36.545,223.301 36.875,223.473 37.655,225.309 37.534,225.464 35.862,225.582 35.936,225.599 
									35.88,225.687 35.873,225.688 35.5,225.474 35.499,225.471 35.597,225.426 34.869,223.51 34.989,223.389 								"></polygon>
								<polygon fill="none" points="37.699,225.252 37.771,225.31 37.771,225.31 								"></polygon>
								<polygon fill="none" points="31.861,222.817 31.861,222.817 34.724,223.771 								"></polygon>
								<path fill="#FFFFFF" d="M26.289,222.807l4.744-0.152l0.1,0.01l0.092,0.03l0.124,0.041l0.112,0.039l0.101,0.068l0.076,0.047
									l0.044,0.072l0.035,0.033l1.886,5.681l0.028,0.09l0.092-0.003l0.095-0.013l0.109,0.013l0.133,0.012l0.125-0.005l0.124,0.009
									l0.112-0.032l0.126-0.035l0.102-0.069l0.123-0.132l0.103-0.134l0.095-0.115l0.096-0.115l0.082-0.109l0.078-0.1l0.069-0.103
									l0.082-0.109l0.067-0.102l0.079-0.1l0.078-0.1l0.085-0.084l0.089-0.096l0.102-0.101l0.103-0.104l0.129-0.112l-0.069-0.087
									l0.103-0.087l0.118-0.074l0.132-0.058l0.124-0.061l0.132-0.059l0.15-0.04l0.153-0.053l0.15-0.038l0.144-0.021l0.156-0.028
									l0.167-0.022l0.156-0.028l0.163-0.014l0.164-0.013l0.154-0.017l0.151-0.007l2.632-0.191l-3.244-1.08l-0.083-0.199l0,0
									l3.735,1.248l17.445-1.303l0.325-0.051l0.242-0.113l0.168-0.159l0.059-0.185v-0.203l0.004-0.012l-0.058-0.234l-0.115-0.233
									l-0.168-0.249l-0.099-0.109l-0.109-0.117l-0.119-0.118l-0.125-0.102l-0.133-0.112l-0.149-0.095l-0.16-0.099l-0.161-0.099
									l-0.172-0.068l-0.167-0.078l-0.184-0.062l-0.192-0.064l-0.184-0.027l-0.192-0.042l-0.199-0.021l-0.193,0.006l-2.635,0.096
									l-15.471,0.531H38.48l-0.16,0.002l-0.181-0.002l-0.173-0.025l-0.178-0.014l-0.177-0.015l-0.173-0.024l-0.185-0.026
									l-0.184-0.026l-0.181-0.039l-0.18-0.037l-0.182-0.038l-0.186-0.05l-0.177-0.05l-0.168-0.043l-0.174-0.059l-0.246-0.082
									l-0.24-0.092l-0.212-0.08l-0.21-0.083l-0.185-0.095l-0.177-0.083l-0.183-0.097l-0.168-0.077l-0.16-0.098l-0.143-0.083
									l-0.154-0.084l-0.143-0.083l-0.153-0.085l-0.143-0.081l-0.138-0.069l-0.143-0.081l-0.147-0.07l-0.151-0.062l-0.142-0.048
									l-0.163-0.056l-0.174-0.057l-0.167-0.046l-0.185-0.026l-0.194-0.03l-0.197-0.021l-0.222-0.017l-0.236-0.01l-0.24,0.01
									l-0.253,0.006l-0.283,0.031l-0.293,0.027l-0.319,0.04l-0.24,0.034l-0.235,0.057l-0.236,0.059l-0.218,0.075l-0.23,0.083
									l-0.222,0.084l-0.21,0.088l-0.215,0.1l-0.205,0.102l-0.208,0.113l3.311,1.105l-4.457,0.148L26.289,222.807z M56.631,222.902
									l0.021-0.129l0.045-0.098l0.081-0.076l0.124-0.061l0.142-0.021l0.078,0.004l0.091,0.005l0.083,0.018l0.085,0.018
									l0.103,0.035l0.093,0.029l0.098,0.045l0.107,0.058l0.087,0.041l0.093,0.064l0.082,0.062l0.089,0.075l0.09,0.064l0.065,0.077
									l0.08,0.072l0.063,0.079l0.12,0.151l0.062,0.158l0.031,0.078l0.017,0.052l-0.01,0.134l-0.024,0.104l-0.076,0.089
									l-0.109,0.053l-0.146,0.03l-0.082,0.01l-0.085-0.02l-0.099-0.01l-0.105-0.023l-0.093-0.031l-0.102-0.036l-0.109-0.046
									l-0.096-0.054l-0.099-0.045l-0.107-0.058l-0.092-0.063l-0.088-0.076l-0.082-0.061l-0.085-0.084l-0.075-0.084l-0.064-0.078
									l-0.105-0.161l-0.062-0.155l-0.017-0.051L56.631,222.902z M37.771,225.31L37.771,225.31l-0.072-0.058L37.771,225.31z
									 M34.869,223.51l0.12-0.121l1.557-0.088l0.329,0.172l0.781,1.836l-0.121,0.155l-1.672,0.118l0.074,0.017l-0.056,0.088
									l-0.007,0.001l-0.372-0.214l-0.001-0.003l0.098-0.045L34.869,223.51z"></path>
							</g>
						</g>
					</g>
				</g>
			</g>
		</g>
		<polygon fill-rule="evenodd" clip-rule="evenodd" fill="#010101" points="55.577,224.084 55.482,224.03 55.464,223.943 
			55.602,223.909 55.629,224 55.547,223.938 55.577,224.084 55.577,224.084 		"></polygon>
		<polygon fill-rule="evenodd" clip-rule="evenodd" fill="#010101" points="55.763,223.976 55.741,224.002 55.707,224.036 
			55.665,224.058 55.626,224.077 55.577,224.084 55.547,223.938 55.567,223.943 55.599,223.921 55.635,223.909 55.639,223.9 
			55.633,223.921 55.758,223.986 55.758,223.986 55.763,223.976 		"></polygon>
		<polygon fill-rule="evenodd" clip-rule="evenodd" fill="#010101" points="55.377,223.121 55.388,223.124 55.452,223.201 
			55.537,223.288 55.619,223.382 55.697,223.487 55.762,223.602 55.799,223.727 55.8,223.861 55.758,223.986 55.633,223.921 
			55.66,223.838 55.653,223.757 55.629,223.659 55.567,223.571 55.5,223.468 55.426,223.385 55.338,223.301 55.274,223.223 
			55.285,223.227 55.377,223.121 55.377,223.121 		"></polygon>
		<polygon fill-rule="evenodd" clip-rule="evenodd" fill="#010101" points="54.123,222.759 54.112,222.754 54.293,222.759 
			54.464,222.759 54.624,222.787 54.777,222.806 54.934,222.847 55.081,222.919 55.233,223.004 55.377,223.121 55.285,223.227 
			55.145,223.133 55.01,223.055 54.886,222.991 54.75,222.955 54.6,222.928 54.446,222.912 54.29,222.904 54.129,222.909 
			54.133,222.898 54.108,222.764 54.108,222.764 54.123,222.759 		"></polygon>
		<polygon fill-rule="evenodd" clip-rule="evenodd" fill="#010101" points="40.822,223.456 40.88,223.416 54.108,222.764 
			54.133,222.898 40.9,223.56 40.959,223.524 40.822,223.456 40.822,223.456 		"></polygon>
		<polygon fill-rule="evenodd" clip-rule="evenodd" fill="#010101" points="40.509,223.92 40.365,223.871 40.375,223.771 
			40.402,223.69 40.443,223.602 40.499,223.538 40.569,223.497 40.661,223.459 40.764,223.426 40.88,223.416 40.9,223.56 
			40.791,223.58 40.692,223.604 40.645,223.612 40.597,223.652 40.573,223.69 40.536,223.734 40.515,223.797 40.52,223.887 
			40.375,223.839 40.509,223.92 40.509,223.92 		"></polygon>
		<g>
			<polygon fill="none" points="40.88,223.421 40.9,223.56 40.88,223.421 			"></polygon>
			<g>
				<polygon fill="none" points="40.52,223.887 40.536,223.802 40.575,223.714 40.61,223.646 40.682,223.602 40.768,223.583 
					40.887,223.567 40.9,223.56 54.133,222.898 54.354,222.916 54.539,222.909 54.713,222.931 54.87,222.963 55.019,223.035 
					55.151,223.111 55.274,223.223 55.415,223.382 55.537,223.527 55.626,223.668 55.669,223.774 55.669,223.844 55.639,223.9 
					55.554,223.951 55.393,223.989 55.169,224.016 41.571,224.716 41.562,224.713 41.371,224.704 41.183,224.653 41.016,224.576 
					40.874,224.493 40.754,224.375 40.669,224.254 40.594,224.14 40.536,224.041 40.525,223.97 				"></polygon>
				<g>
					<path fill="none" d="M40.536,223.802l-0.016,0.085l0.006,0.083l0.01,0.071l0.059,0.099l0.075,0.114l0.085,0.121l0.12,0.118
						l0.143,0.083l0.167,0.077l0.188,0.051l0.191,0.009l0.009,0.003l13.598-0.7l0.224-0.026l0.161-0.038l0.084-0.051l0.031-0.057
						v-0.069l-0.043-0.106l-0.089-0.141l-0.123-0.146l-0.14-0.159l-0.124-0.111l-0.132-0.076l-0.148-0.072l-0.157-0.032
						l-0.174-0.021l-0.184,0.007l-0.222-0.018L40.9,223.56l-0.013,0.008l-0.12,0.016l-0.085,0.019l-0.072,0.045l-0.035,0.067
						L40.536,223.802z M40.723,223.717l13.233-0.662l0.007-0.02l0.177,0.015h0.171l0.16,0.028l0.153,0.018l0.156,0.041l0.147,0.071
						l0.142,0.082l0.154,0.119l0.058,0.064l0.052,0.052l0.047,0.062l0.04,0.044l0.058,0.067l0.045,0.071l0.037,0.058l0.039,0.058
						l0.003,0.024l-0.137,0.034l0.005,0.025l-0.035-0.068l-0.038-0.057l-0.051-0.054l-0.037-0.057l-0.042-0.048l-0.048-0.062
						l-0.05-0.051l-0.062-0.054l0.005-0.006l-0.121-0.09l-0.129-0.09l-0.129-0.056l-0.138-0.034l-0.148-0.026l-0.153-0.017
						l-0.167-0.01l-0.161,0.003l-13.229,0.653L40.723,223.717z"></path>
					<g>
						<path fill="none" d="M40.536,223.802l-0.016,0.085l0.006,0.083l0.01,0.071l0.059,0.099l0.075,0.114l0.085,0.121l0.12,0.118
							l0.143,0.083l0.167,0.077l0.188,0.051l0.191,0.009l0.009,0.003l13.598-0.7l0.224-0.026l0.161-0.038l0.084-0.051l0.031-0.057
							v-0.069l-0.043-0.106l-0.089-0.141l-0.123-0.146l-0.14-0.159l-0.124-0.111l-0.132-0.076l-0.148-0.072l-0.157-0.032
							l-0.174-0.021l-0.184,0.007l-0.222-0.018L40.9,223.56l-0.013,0.008l-0.12,0.016l-0.085,0.019l-0.072,0.045l-0.035,0.067
							L40.536,223.802z"></path>
						<g>
							<polygon fill="none" points="40.575,223.714 40.61,223.646 40.682,223.602 40.768,223.583 40.846,223.573 40.737,223.779 
								53.969,223.115 54.14,223.115 54.296,223.124 54.457,223.152 54.61,223.171 54.757,223.208 54.896,223.267 55.036,223.359 
								55.172,223.46 55.219,223.522 55.27,223.573 55.319,223.631 55.37,223.686 55.407,223.742 55.457,223.804 55.493,223.861 
								55.537,223.933 55.542,223.953 55.393,223.989 55.169,224.016 41.571,224.716 41.562,224.713 41.371,224.704 41.183,224.653 
								41.016,224.576 40.874,224.493 40.754,224.375 40.669,224.254 40.594,224.14 40.536,224.041 40.525,223.97 40.52,223.887 
								40.536,223.802 							"></polygon>
							<polygon fill="#010101" points="55.493,223.861 55.457,223.804 55.407,223.742 55.37,223.686 55.319,223.631 55.27,223.573 
								55.219,223.522 55.172,223.46 55.036,223.359 54.896,223.267 54.757,223.208 54.61,223.171 54.457,223.152 54.296,223.124 
								54.14,223.115 53.969,223.115 40.737,223.779 40.846,223.573 40.887,223.567 40.9,223.56 54.133,222.898 54.354,222.916 
								54.539,222.909 54.713,222.931 54.87,222.963 55.019,223.035 55.151,223.111 55.274,223.223 55.415,223.382 55.537,223.527 
								55.626,223.668 55.669,223.774 55.669,223.844 55.639,223.9 55.554,223.951 55.542,223.953 55.537,223.933 							"></polygon>
							<g>
								<polygon fill="none" points="40.541,223.788 40.552,223.786 40.621,223.786 40.737,223.779 40.847,223.573 40.887,223.567 
									40.9,223.56 54.133,222.898 54.354,222.916 54.539,222.909 54.713,222.931 54.87,222.963 55.019,223.035 55.151,223.111 
									55.274,223.223 55.415,223.382 55.537,223.527 55.626,223.668 55.669,223.774 55.669,223.844 55.639,223.9 55.554,223.951 
									55.542,223.953 55.393,223.989 55.169,224.016 41.571,224.716 41.562,224.713 41.371,224.704 41.183,224.653 
									41.016,224.576 40.874,224.493 40.754,224.375 40.669,224.254 40.594,224.14 40.536,224.041 40.525,223.97 40.52,223.887 
									40.536,223.802 								"></polygon>
								<path fill="#010101" d="M40.365,223.871L40.379,224l0.027,0.088l0.037,0.125l0.089,0.146l0.108,0.113l0.139,0.128
									l0.168,0.113l0.187,0.084l0.198,0.055l0.238,0.001l13.594-0.691l0.26-0.025l0.183-0.042l0.133-0.092l0.074-0.124
									l-0.003-0.124l-0.05-0.152l-0.099-0.147l-0.136-0.171l-0.14-0.159l-0.151-0.131l-0.16-0.098l-0.156-0.074l-0.17-0.036
									l-0.205-0.032h-0.205l-0.233,0.011l-13.228,0.652v0.005l-0.139,0.008l-0.144,0.053l-0.095,0.083l-0.065,0.092l-0.043,0.1
									L40.365,223.871z M40.52,223.887l0.016-0.085l0.005-0.014l0.011-0.002h0.069l0.116-0.007l0.11-0.206l0.041-0.006
									l0.013-0.008l13.232-0.661l0.222,0.018l0.184-0.007l0.174,0.021l0.157,0.032l0.148,0.072l0.132,0.076l0.124,0.111
									l0.14,0.159l0.123,0.146l0.089,0.141l0.043,0.106v0.069l-0.031,0.057l-0.084,0.051l-0.012,0.002l-0.149,0.036l-0.224,0.026
									l-13.598,0.7l-0.009-0.003l-0.191-0.009l-0.188-0.051l-0.167-0.077l-0.143-0.083l-0.12-0.118l-0.085-0.121l-0.075-0.114
									l-0.059-0.099l-0.01-0.071L40.52,223.887z"></path>
							</g>
						</g>
					</g>
				</g>
			</g>
		</g>
	</g>
</g>

<rect x="18" y="18" fill="none" stroke="#2DA6DE" stroke-width="1.1664" stroke-dasharray="1.7321" width="126" height="270"></rect>
</svg>