<svg version="1.1" id="cuts" xmlns="http://www.w3.org/2000/svg" xmlns:xlink="http://www.w3.org/1999/xlink" x="0px" y="0px" width="1275" height="2475" viewBox="0 0 1275 2475" enable-background="new 0 0 306 594" xml:space="preserve">
<rect x="0" y="0" fill="#919396" stroke="#919396" width="306" height="594"></rect>
<rect x="9" y="9" fill="#FFFFFF" stroke="#EC1C24" stroke-miterlimit="10" width="288" height="576"></rect>
<rect x="18" y="18" fill="none" stroke="#00ADEE" stroke-miterlimit="10" stroke-dasharray="1.44,1.44" width="270" height="558"></rect>






















<rect x="279.04" y="234.542" fill="#F9A51B" width="27.277" height="35.295"></rect>
<line fill="none" stroke="#F9A51B" x1="210.581" y1="235.217" x2="297.556" y2="235.217"></line>
<line fill="none" stroke="#EA222A" x1="222.806" y1="127.748" x2="297" y2="127.748"></line>
<line fill="none" stroke="#919396" x1="214.011" y1="154.699" x2="298.58" y2="154.699"></line>
<line fill="none" stroke="#2BA4DD" stroke-dasharray="1.44,1.44" x1="219.722" y1="73.963" x2="288.02" y2="73.963"></line>
<path fill="#EA222A" d="M219.738,64.58c0,0.556-0.254,1.1-0.756,1.626l-0.079,0.08l-4.411,4.645
	c-0.936,0.985-1.733,1.745-2.394,2.283c-0.658,0.539-1.123,0.808-1.394,0.808c-0.285,0-0.639-0.135-1.064-0.403
	c-0.423-0.271-0.695-0.547-0.819-0.833c-0.105-0.238-0.203-0.741-0.296-1.512c-0.093-0.771-0.141-1.606-0.141-2.505
	c0-0.492,0.207-0.945,0.613-1.36c0.41-0.416,0.862-0.624,1.356-0.624c0.473,0,0.753,0.431,0.84,1.291
	c0.014,0.101,0.019,0.174,0.024,0.222c0.076,0.66,0.163,1.122,0.261,1.384c0.104,0.261,0.238,0.393,0.41,0.393
	c0.071,0,0.203-0.077,0.399-0.231c0.195-0.156,0.428-0.365,0.7-0.632l4.529-4.489c0.381-0.378,0.722-0.667,1.021-0.861
	c0.301-0.196,0.552-0.293,0.764-0.293c0.158,0,0.27,0.06,0.335,0.177c0.066,0.12,0.101,0.32,0.101,0.6V64.58z"></path>
<path fill="#EA222A" d="M221.382,117.317c0,0.556-0.254,1.1-0.756,1.626l-0.08,0.08l-4.41,4.644
	c-0.936,0.985-1.734,1.746-2.392,2.284c-0.661,0.537-1.126,0.807-1.396,0.807c-0.285,0-0.64-0.134-1.065-0.403
	c-0.423-0.27-0.695-0.547-0.819-0.832c-0.105-0.237-0.203-0.742-0.296-1.513c-0.093-0.77-0.14-1.604-0.14-2.503
	c0-0.492,0.206-0.945,0.613-1.36c0.409-0.417,0.861-0.624,1.355-0.624c0.473,0,0.753,0.43,0.84,1.291
	c0.014,0.101,0.019,0.173,0.024,0.222c0.076,0.66,0.164,1.122,0.264,1.384c0.101,0.261,0.235,0.393,0.407,0.393
	c0.071,0,0.203-0.077,0.399-0.231c0.195-0.156,0.428-0.366,0.7-0.634l4.529-4.488c0.381-0.38,0.722-0.667,1.021-0.861
	c0.301-0.196,0.555-0.294,0.764-0.294c0.158,0,0.27,0.061,0.336,0.178c0.065,0.12,0.101,0.32,0.101,0.6V117.317z"></path>
<path fill="#EA222A" d="M213.94,143.567c0,0.557-0.254,1.1-0.756,1.627l-0.079,0.079l-4.411,4.644
	c-0.936,0.985-1.733,1.746-2.392,2.284c-0.66,0.537-1.126,0.807-1.396,0.807c-0.285,0-0.64-0.134-1.064-0.404
	c-0.423-0.269-0.695-0.546-0.819-0.832c-0.106-0.236-0.204-0.74-0.296-1.513c-0.093-0.77-0.141-1.605-0.141-2.503
	c0-0.491,0.206-0.944,0.613-1.36c0.409-0.416,0.861-0.624,1.355-0.624c0.474,0,0.753,0.43,0.841,1.291
	c0.013,0.101,0.019,0.173,0.023,0.222c0.077,0.66,0.164,1.122,0.265,1.384c0.101,0.261,0.235,0.393,0.407,0.393
	c0.071,0,0.203-0.077,0.398-0.231c0.195-0.156,0.429-0.365,0.7-0.633l4.53-4.488c0.38-0.38,0.721-0.667,1.02-0.863
	c0.302-0.195,0.556-0.292,0.764-0.292c0.159,0,0.27,0.061,0.336,0.178c0.066,0.119,0.101,0.32,0.101,0.6V143.567z"></path>
<path fill="#EA222A" d="M210.266,225.564c0,0.558-0.253,1.101-0.756,1.628l-0.079,0.081l-4.41,4.643
	c-0.936,0.984-1.734,1.746-2.395,2.283c-0.658,0.54-1.123,0.805-1.393,0.805c-0.286,0-0.64-0.135-1.065-0.401
	c-0.423-0.27-0.695-0.546-0.819-0.831c-0.105-0.238-0.203-0.743-0.296-1.512c-0.093-0.772-0.14-1.608-0.14-2.507
	c0-0.489,0.206-0.943,0.612-1.357c0.41-0.419,0.862-0.625,1.356-0.625c0.473,0,0.753,0.429,0.84,1.291
	c0.014,0.1,0.019,0.173,0.024,0.222c0.076,0.659,0.163,1.122,0.264,1.385c0.101,0.26,0.235,0.391,0.407,0.391
	c0.071,0,0.203-0.077,0.399-0.234c0.195-0.152,0.428-0.365,0.7-0.629l4.529-4.49c0.381-0.381,0.722-0.669,1.021-0.862
	c0.301-0.195,0.555-0.292,0.764-0.292c0.158,0,0.27,0.057,0.335,0.176c0.066,0.119,0.101,0.32,0.101,0.6V225.564z"></path>
<rect x="37.772" y="9" fill="none" width="267.911" height="365.333"></rect>






<g>
	<defs>
		<rect id="SVGID_1_" x="37.772" y="9" width="267.911" height="365.333"></rect>
	</defs>
	<clipPath id="SVGID_2_">
		<use xlink:href="#SVGID_1_" overflow="visible"></use>
	</clipPath>
	<path clip-path="url(#SVGID_2_)" fill="#EA222A" d="M196.609,281.386c0,0.555-0.251,1.098-0.756,1.625l-0.079,0.079l-4.408,4.646
		c-0.938,0.983-1.736,1.744-2.395,2.283c-0.658,0.535-1.123,0.805-1.396,0.805c-0.285,0-0.64-0.133-1.062-0.403
		c-0.423-0.268-0.697-0.545-0.821-0.831c-0.104-0.237-0.204-0.742-0.297-1.514c-0.09-0.768-0.137-1.604-0.137-2.502
		c0-0.492,0.203-0.943,0.613-1.36c0.409-0.415,0.861-0.624,1.355-0.624c0.471,0,0.75,0.43,0.84,1.292
		c0.011,0.098,0.019,0.174,0.024,0.221c0.074,0.662,0.164,1.122,0.262,1.383c0.1,0.263,0.237,0.394,0.406,0.394
		c0.072,0,0.207-0.078,0.402-0.231c0.192-0.156,0.428-0.364,0.697-0.632l4.532-4.49c0.381-0.377,0.719-0.667,1.021-0.861
		c0.299-0.195,0.552-0.295,0.764-0.295c0.156,0,0.267,0.062,0.336,0.18c0.065,0.121,0.098,0.32,0.098,0.602V281.386z"></path>
	<path clip-path="url(#SVGID_2_)" fill-rule="evenodd" clip-rule="evenodd" d="M134.625,309.902
		c0,17.922-14.526,32.445-32.445,32.445c-17.92,0-32.449-14.523-32.449-32.445c0-17.921,14.528-32.449,32.449-32.449
		C120.1,277.453,134.625,291.98,134.625,309.902"></path>
	<path clip-path="url(#SVGID_2_)" fill-rule="evenodd" clip-rule="evenodd" fill="#B7D333" d="M131.7,310.082
		c0,16.291-13.206,29.498-29.499,29.498c-16.291,0-29.497-13.207-29.497-29.498c0-16.293,13.207-29.5,29.497-29.5
		C118.494,280.582,131.7,293.788,131.7,310.082"></path>
	<path clip-path="url(#SVGID_2_)" d="M95.886,303.65c-0.409,3.613-0.713,6.52-0.917,8.711l-1.344,0.059
		c0.02-0.072,0.029-0.156,0.032-0.246c0.001-0.164-0.058-0.381-0.182-0.65c-0.125-0.266-0.194-0.438-0.212-0.51
		c-0.346,0.049-0.68,0.293-0.998,0.723c-0.32,0.434-0.608,0.65-0.862,0.646c-0.146-0.006-0.311-0.045-0.493-0.119
		c-0.239,0.16-0.552,0.229-0.937,0.205c-0.346-0.062-0.684-0.111-1.012-0.154c-0.012-0.461-0.461-0.859-1.352-1.203
		c0.004-0.184-0.089-0.455-0.274-0.816c-0.188-0.359-0.278-0.611-0.274-0.758c0-0.166,0.066-0.301,0.198-0.408
		c-0.019-0.055-0.169-0.396-0.449-1.025c-0.194-0.461-0.287-0.854-0.283-1.182c0.005-0.256,0.063-0.492,0.178-0.711
		c-0.157-1.559-0.226-2.895-0.207-4.01c0.029-1.719,0.275-3.297,0.739-4.737c-0.032-0.221-0.047-0.439-0.044-0.657
		c0.021-1.152,0.418-1.951,1.193-2.396l0.007-0.355c0.766-0.978,1.774-1.681,3.026-2.116c0.749,0.179,1.495,0.345,2.242,0.506
		c0.838,0.287,1.414,0.782,1.73,1.481c0.253,0.153,0.378,0.457,0.37,0.912c-0.008,0.514,0.05,0.844,0.175,0.992l-0.14,0.161
		c0.146,1.082,0.218,1.741,0.213,1.979c-0.012,0.697-0.195,1.188-0.546,1.473c-0.127,0-0.464-0.115-1.009-0.346
		c-0.13,0.125-0.269,0.188-0.415,0.184c-0.074,0-0.207-0.041-0.396-0.115c-0.19-0.078-0.351-0.115-0.479-0.117
		c-0.09-0.002-0.184,0.016-0.274,0.049c-0.013-1.444,0.034-2.524,0.137-3.236c-0.146-0.093-0.292-0.309-0.44-0.637
		c-0.153-0.333-0.345-0.52-0.581-0.561c-0.151,0.183-0.216,0.3-0.2,0.355l-0.491-0.173c-0.447,0.486-0.745,1.332-0.892,2.536
		c-0.151,1.388-0.341,2.306-0.568,2.761c0.196,0.205,0.293,0.488,0.285,0.855c-0.001,0.127-0.023,0.34-0.064,0.629
		c-0.044,0.293-0.063,0.512-0.065,0.658c-0.004,0.166,0.011,0.312,0.046,0.441l-0.334,0.322c0.135,0.625,0.214,1.414,0.234,2.365
		c-0.014,0.805-0.019,1.609-0.014,2.414c-0.017,0-0.174,0.004-0.465,0.02c-0.183-0.004-0.313,0.057-0.387,0.186
		c0.11-0.016,0.209-0.025,0.301-0.021c0.402,0.006,0.717,0.289,0.944,0.85c0.23,0.564,0.426,0.846,0.592,0.852
		c0.183,0,0.431-0.168,0.75-0.514c0.539-0.574,0.819-1.367,0.836-2.371c0.01-0.494-0.045-1.025-0.165-1.594
		c-0.129,0.07-0.198,0.254-0.202,0.545c-0.292-0.004-0.478,0.057-0.553,0.182c-0.126-0.039-0.18-0.143-0.158-0.301
		c0.023-0.238,0.032-0.369,0.032-0.387c0.222-0.068,0.332-0.168,0.335-0.297c0-0.053-0.038-0.156-0.117-0.303
		c-0.08-0.146-0.118-0.266-0.118-0.359c0.001-0.074,0.021-0.145,0.059-0.219l0.127-1.068c0.401,0.119,1.268,0.168,2.605,0.156
		c-0.04,0.09,0.014,0.209,0.158,0.357c0.13-0.125,0.268-0.189,0.414-0.184c0.11,0.002,0.273,0.051,0.49,0.145
		C95.64,303.599,95.794,303.646,95.886,303.65"></path>
	<path clip-path="url(#SVGID_2_)" d="M106.126,313.097c-0.253-0.113-0.528-0.172-0.819-0.178c-0.257-0.004-0.608,0.045-1.047,0.148
		c-0.497,0.1-0.835,0.156-1.018,0.174c-0.195-0.387-0.333-0.92-0.412-1.6c-0.148-0.988-0.239-1.549-0.275-1.68
		c0.058-0.105,0.087-0.199,0.087-0.27c0.005-0.203-0.153-0.385-0.471-0.547c-0.317-0.158-0.474-0.287-0.472-0.377
		c0-0.109,0.187-0.27,0.555-0.484c-0.088-0.109-0.156-0.336-0.194-0.674c-0.04-0.34-0.124-0.564-0.249-0.678
		c-0.225,0.199-0.586,0.324-1.091,0.379c-0.505,0.057-0.838,0.139-1.004,0.244c0.011,1.426-0.223,2.385-0.708,2.867
		c-0.254-0.057-0.451,0.041-0.581,0.295c-0.189,0.307-0.348,0.486-0.477,0.539l0.16,0.195c-0.147,0.125-0.387,0.178-0.715,0.152
		c-0.513-0.027-0.786-0.041-0.824-0.041l-0.154-0.498l1.786-14.812c0.018-0.933,0.063-1.567,0.142-1.894
		c-0.023-0.824,0.17-1.332,0.575-1.526c0.253,0.168,0.574,0.257,0.957,0.263c0.311,0.007,0.797-0.058,1.456-0.195
		c0.663-0.133,1.121-0.2,1.378-0.196c0.896,0.017,1.286,0.662,1.175,1.942c-0.091,1.022,0.069,2.37,0.479,4.042
		c0.428,1.801,0.634,3.148,0.618,4.047c-0.005,0.27,0.086,0.842,0.063,1.115c-0.388,0.211-0.883,0.342-1.488,0.385
		c-0.531,0.027-1.072,0.057-1.621,0.082c-0.142-1.393-0.388-3.07-0.527-4.445c-0.173-1.648-0.387-3.004-0.645-4.072l-0.848,7.833
		c-0.065,0.678,0.24,1.021,0.917,1.033c0.219,0.002,0.431-0.049,0.634-0.154c0.167-0.053,0.394,0.068,0.68,0.367
		c-0.01,0.568,0.104,0.906,0.34,1.021c0.294-0.195,0.682-0.381,1.16-0.557c0.423-0.158,0.84-0.305,1.245-0.445
		c0.23,0.316,0.378,0.785,0.441,1.406c0.077,0.881,0.133,1.393,0.167,1.541c0.03,0.348,0.172,1.1,0.427,2.258
		c0.187,0.916,0.275,1.658,0.266,2.227C106.189,312.605,106.165,312.861,106.126,313.097"></path>
	<path clip-path="url(#SVGID_2_)" d="M118.761,300.031c-0.021,0.055-0.026,0.375-0.017,0.961c-0.009,0.475-0.069,0.83-0.181,1.066
		c-0.138,0.363-0.209,0.887-0.221,1.561c-0.004,0.146,0.002,0.375,0.017,0.686c-0.008,0.312-0.01,0.541-0.012,0.688
		c-0.02,1.15-0.218,1.988-0.593,2.512c0.032,0.297,0.045,0.588,0.042,0.881c-0.016,0.914-0.33,2.145-0.94,3.689
		c-0.166,0.051-0.304,0.076-0.415,0.074c-0.22-0.004-0.375-0.131-0.473-0.379s-0.188-0.482-0.276-0.703
		c0.06-1.406,0.031-3.457-0.088-6.148l0.167-0.164c-0.119-0.475-0.172-1.006-0.164-1.592c0.008-0.422,0.061-1.033,0.156-1.836
		c0.095-0.805,0.146-1.408,0.152-1.809c0.007-0.258,0-0.502-0.011-0.74c-0.633,1.508-1.077,4.059-1.34,7.658l-0.229,0.545
		c-0.077,0.182-0.234,0.281-0.47,0.295c-0.071-0.127-0.146-0.193-0.215-0.195c-0.056-0.004-0.155,0.064-0.292,0.201
		c-0.142,0.133-0.258,0.191-0.347,0.172l-0.364,0.32c0.162,0.207,0.507,0.23,1.044,0.078c0.42-0.125,0.638,0.037,0.648,0.475
		c0.012,0.367-0.088,0.857-0.298,1.477c-0.213,0.617-0.321,1.082-0.325,1.395c-0.004,0.221,0.02,0.439,0.069,0.658l-1.896,0.297
		c-0.177-0.367-0.309-0.988-0.396-1.857c-0.083-0.869-0.214-1.49-0.391-1.859c0.111-0.125,0.167-0.26,0.169-0.408
		c0.002-0.127-0.046-0.322-0.153-0.578c-0.106-0.26-0.165-0.451-0.183-0.582c-0.016-0.199-0.079-0.688-0.195-1.455
		c-0.079-0.623-0.119-1.111-0.112-1.455c0.004-0.186,0.017-0.35,0.037-0.496c0.002-0.129-0.07-0.316-0.211-0.566
		c-0.142-0.248-0.21-0.428-0.208-0.537c0-0.092,0.037-0.172,0.111-0.246c-0.125-0.15-0.174-0.404-0.15-0.77
		c0.023-0.367-0.027-0.623-0.152-0.77c-0.268,0.705-0.411,1.664-0.432,2.869c-0.01,1.684-0.026,2.656-0.05,2.91l0.19,0.168
		l-0.195,0.16c0.135,0.66,0.195,1.504,0.177,2.527c-0.05,1.848-0.074,2.707-0.071,2.58c-0.259,0.232-0.618,0.346-1.077,0.338
		c-0.567-0.01-0.953,0.041-1.154,0.145c-0.232-0.406-0.343-0.93-0.33-1.568c0.008-0.494,0.092-1.096,0.251-1.809
		c-0.25-0.461-0.366-1.104-0.353-1.928c0.003-0.201,0.028-0.582,0.076-1.15c0.026-0.455,0.032-0.795,0.018-1.014
		c0.183-0.088,0.278-0.186,0.278-0.297c0.002-0.072-0.056-0.199-0.172-0.375c-0.116-0.172-0.174-0.307-0.172-0.4
		c0.003-0.109,0.077-0.217,0.225-0.326l-0.592-8.873c0.354-0.231,0.922-0.341,1.71-0.326c0.856,0.033,1.445-0.014,1.757-0.135
		c0.056-0.037,0.119-0.053,0.193-0.053c0.074,0.003,0.16,0.043,0.259,0.128c0.101,0.083,0.167,0.127,0.202,0.127
		c0.073,0,0.139-0.054,0.197-0.162l0.513,0.504c0.171,0.644,0.333,1.89,0.486,3.739c0.153,1.594,0.399,2.799,0.735,3.609
		c0.447-1.621,0.818-2.979,1.11-4.07l0.598-4.342l4.252-0.093c0.016,0.236,0.069,1.509,0.183,2.244
		c0.096,0.64,0.145,1.162,0.139,1.564c-0.007,0.458-0.078,0.869-0.214,1.232c0.142,0.205,0.213,0.461,0.208,0.77
		C118.988,299.578,118.909,299.832,118.761,300.031"></path>
	<path clip-path="url(#SVGID_2_)" d="M127.487,309.648v-0.029c-0.113,0.236-0.182,0.51-0.205,0.82
		c-0.022,0.201-0.028,0.484-0.015,0.85c0.011,0.42,0.015,0.713,0.013,0.879c-0.149-0.002-0.732-0.014-1.755-0.029
		c-0.624-0.01-1.181,0.043-1.678,0.164l-0.512-0.559c-0.152,0.143-0.208,0.262-0.171,0.354c-0.091-0.02-0.512-0.027-1.262-0.021
		c-0.586-0.01-1.023-0.074-1.313-0.188c-0.298,0.309-0.645,0.301-1.044-0.018c-0.144-0.111-0.157-0.299-0.045-0.562
		c0.115-0.264,0.082-0.461-0.099-0.592c0.028-0.584,0.108-1.488,0.239-2.713c0.127-1.094,0.197-1.955,0.208-2.576
		c0.012-0.842-0.045-1.646-0.178-2.418c0.206-0.195,0.433-0.293,0.689-0.289c0.296,0.004,0.64,0.148,1.036,0.43
		c0.56,0.391,0.851,0.592,0.87,0.592l0.158,0.191c0.021-0.053,0.118-0.344,0.292-0.871c0.097-0.346,0.237-0.57,0.422-0.682
		l0.163,0.17c0.075-0.035,0.314-0.205,0.723-0.51c0.312-0.215,0.569-0.723,0.75-0.715c0.205,0,0.391,0.115,0.571,0.338
		c0.311,0.166,0.502,0.826,0.599,1.162c0.095,0.344,0.187,0.678,0.273,1.01c-0.825,0.023-1.504,0-2.031-0.062
		c-0.131,0.199-0.316,0.229-0.552,0.086c-0.233-0.139-0.406-0.119-0.52,0.059c-0.007,0.33-0.019,0.926-0.032,1.785
		c-0.032,0.766-0.04,1.371-0.029,1.811c0.005,0.676,0.05,1.299,0.13,1.867c0.147,0.002,0.84,0.016,2.084,0.037
		C126.129,309.431,126.867,309.507,127.487,309.648 M127.545,296.504c-0.164,0.016-0.346,0.021-0.547,0.019
		c-0.423-0.008-0.98-0.074-1.673-0.194c-0.857-0.123-1.377-0.197-1.559-0.219c-0.262,0.38-0.399,0.918-0.414,1.613
		c-0.025,1.5-0.025,2.148-0.004,1.947c0.253,0.15,0.379,0.428,0.37,0.83c-0.029,0.549-0.033,0.834-0.013,0.852
		c-0.129,0.051-0.197,0.232-0.201,0.543c-0.201-0.074-0.41-0.227-0.624-0.449c-0.288-0.279-0.441,0.666-0.42,0.432l-0.174,0.562
		l-0.161-0.166c-0.148,0.014-0.399-0.062-0.752-0.234c-0.354-0.17-0.601-0.326-0.745-0.479c0.005-0.291,0.054-0.455,0.144-0.49
		l-0.349-0.389l-0.169,0.242c-0.204-1.906-0.153-5.47,0.099-7.479c0.694,0.122,1.461,0.2,2.302,0.231
		c0.567,0.029,1.361,0.042,2.385,0.042c1.172,0.002,2.015,0.006,2.526,0.014c0.214,0.205,0.32,0.472,0.314,0.802
		c-0.003,0.202-0.058,0.526-0.167,0.972C127.606,295.951,127.551,296.283,127.545,296.504"></path>
	<path clip-path="url(#SVGID_2_)" d="M96.71,326.238v-0.016c0,0.01-0.046,0.414-0.141,1.211c-0.049,0.488-0.167,0.875-0.354,1.154
		l-0.119-0.096c-0.223,0.465-0.524,0.748-0.908,0.85c-0.185,0.193-0.449,0.299-0.794,0.32c-0.204,0.012-0.678-0.049-1.421-0.18
		c-0.358-0.223-0.554-0.348-0.588-0.371c-0.226-0.168-0.334-0.34-0.324-0.516c-0.218-0.223-0.523-0.621-0.64-1.117
		c-0.141-0.551-0.225-0.58-0.354-0.773c-0.207,0.152-0.281-0.172-0.401-0.367l0.107-0.082c-0.067-0.049-0.103-0.104-0.106-0.164
		c-0.002-0.045,0.018-0.109,0.054-0.193c0.041-0.084,0.058-0.148,0.054-0.191c-0.004-0.068-0.044-0.129-0.123-0.176
		c0.083-0.432,0.16-1.082,0.228-1.945c0.147-0.08,0.216-0.23,0.21-0.457c-0.009-0.225,0.022-0.375,0.093-0.449
		c0.35-0.699,0.917-1.172,1.703-1.416c0.043,0.004,0.253,0,0.634-0.012c0.258-0.006,0.455,0.016,0.587,0.07
		c0.234-0.043,0.472,0.018,0.706,0.166c0.204,0.156,0.408,0.309,0.611,0.463c0.38,0.412,0.586,0.881,0.617,1.4
		c0.01,0.172-0.001,0.357-0.034,0.549c-0.281-0.008-0.481,0.176-0.6,0.559l-1.096,0.104c-0.117-0.168-0.186-0.391-0.2-0.668
		c-0.007-0.096-0.005-0.236,0-0.418c0.004-0.184,0.005-0.322,0-0.416c-0.018-0.287-0.084-0.514-0.203-0.684l-0.328,0.189
		c-0.135-0.053-0.203-0.131-0.209-0.234c-0.003-0.035,0.003-0.086,0.015-0.15c0.014-0.068,0.019-0.113,0.018-0.139
		c-0.007-0.113-0.108-0.18-0.305-0.207c-0.134,1.236-0.175,2.506-0.12,3.807c0.035,0.043,0.141,0.07,0.313,0.09
		c0.141,0.016,0.213,0.061,0.217,0.127c0.001,0.027-0.006,0.062-0.027,0.107l-0.108,0.084c0.06,0.092,0.095,0.223,0.104,0.387
		c0.004,0.086,0.001,0.219-0.009,0.398c-0.011,0.18-0.013,0.314-0.008,0.396c0.014,0.262,0.08,0.459,0.196,0.592
		c-0.012,0.191,0.067,0.322,0.233,0.391c0.105-0.041,0.2-0.062,0.288-0.068c0.334-0.02,0.567,0.164,0.697,0.547
		c0.001,0.008-0.001,0.074-0.004,0.197c0.004,0.068,0.038,0.113,0.105,0.135c0.146-0.086,0.217-0.242,0.215-0.469
		c-0.002-0.26,0.03-0.428,0.101-0.5c-0.019-0.123-0.09-0.297-0.217-0.523c-0.127-0.229-0.193-0.406-0.201-0.537
		c-0.008-0.139,0.033-0.271,0.121-0.398c-0.076-0.023-0.111-0.072-0.105-0.15c0.005-0.123,0.006-0.188,0.006-0.197
		C95.492,326.103,96.098,326.099,96.71,326.238"></path>
	<path clip-path="url(#SVGID_2_)" d="M101.676,327.255h-0.013c-0.065,0.123-0.083,0.303-0.062,0.537
		c0.03,0.33,0.046,0.5,0.046,0.508c-0.049,0.02-0.116-0.006-0.198-0.072c-0.13,0.047-0.192,0.127-0.184,0.24
		c0,0.018,0.007,0.045,0.02,0.084c0.002,0.047,0.005,0.08,0.005,0.096c0.005,0.09-0.021,0.156-0.08,0.201
		c-0.145-0.082-0.338-0.133-0.573-0.156c-0.238-0.021-0.464-0.045-0.677-0.062c-0.004-1.102-0.151-2.18-0.444-3.23
		c0,0.01-0.006-0.098-0.019-0.326c0.001-0.164-0.037-0.277-0.11-0.346l-0.102,0.09c-0.001-0.016,0.032-0.047,0.101-0.096
		s0.101-0.098,0.097-0.146c-0.001-0.023-0.008-0.047-0.021-0.068l-0.109-0.08c-0.188,0.061-0.274,0.211-0.261,0.451
		c0.01,0.162-0.055,0.275-0.19,0.338c0.051,0.039,0.079,0.088,0.083,0.143c0.002,0.033-0.002,0.078-0.015,0.135
		c-0.012,0.057-0.018,0.102-0.015,0.135c0.004,0.07,0.043,0.131,0.115,0.174c0.004,0.049,0.029,0.484,0.077,1.309
		c0.03,0.523,0.017,0.969-0.042,1.336l0.009,0.205c-0.07-0.002-0.151,0-0.239,0.004c-0.102,0.004-0.248,0.021-0.437,0.045
		c-0.187,0.023-0.329,0.037-0.418,0.041c-0.372,0.021-0.632-0.041-0.78-0.186l-0.159-4.52c-0.072-0.221-0.119-0.531-0.143-0.928
		l-0.049-0.871c-0.036-0.428-0.092-0.756-0.165-0.984c0.031-0.158,0.169-0.244,0.409-0.256c0.15-0.01,0.35,0.012,0.607,0.062
		c0.117-0.055,0.282-0.09,0.492-0.102c0.061-0.006,0.154-0.006,0.287-0.006c0.14-0.008,0.241-0.014,0.301-0.018
		c0.393-0.02,0.651-0.143,0.779-0.359c0.182-0.004,0.378,0.055,0.591,0.172c0.213,0.117,0.399,0.18,0.561,0.186
		c0.428,0.25,0.658,0.666,0.692,1.248c0.008,0.129-0.045,0.643-0.153,1.539l-0.732,0.635c0.124,0.229,0.274,0.727,0.449,1.494
		C101.154,326.488,101.376,326.957,101.676,327.255 M100.323,322.113l0.016,0.01c0.012,0.055,0.007-0.143-0.021-0.592
		c-0.012-0.219-0.091-0.375-0.239-0.473c-0.083,0.117,0.012,0.172-0.028,0.445c-0.038,0.273-0.201,0.197-0.295,0.314
		c-0.25,0-0.308,0.154-0.363-0.086c-0.112-0.393-0.209-0.357-0.211-0.363l-0.106,0.062c-0.039,0.035-0.082,0.072-0.129,0.117
		c-0.048,0.045-0.096,0.057-0.147,0.045c0.003,0.049-0.021,0.125-0.071,0.229c-0.049,0.105-0.072,0.176-0.07,0.217
		c0.004,0.074,0.061,0.127,0.176,0.16c-0.021,0.162-0.026,0.334-0.016,0.51c0.006,0.096,0.028,0.318,0.068,0.664
		c0.046,0.271,0.062,0.506,0.054,0.701c0.092,0.002,0.176,0.002,0.257-0.002c0.353-0.021,0.581-0.16,0.686-0.416
		c0.036-0.074,0.076-0.348,0.121-0.809C100.042,322.498,100.148,322.251,100.323,322.113"></path>
	<path clip-path="url(#SVGID_2_)" d="M107.374,329.011c-0.143-0.043-0.296-0.057-0.457-0.049c-0.139,0.008-0.328,0.045-0.566,0.105
		c-0.27,0.064-0.452,0.104-0.552,0.117c-0.122-0.162-0.214-0.393-0.28-0.688c-0.119-0.43-0.188-0.674-0.21-0.729
		c0.028-0.049,0.041-0.092,0.039-0.125c-0.005-0.088-0.098-0.16-0.278-0.221c-0.18-0.057-0.27-0.107-0.271-0.148
		c-0.003-0.049,0.091-0.125,0.288-0.234c-0.054-0.045-0.098-0.141-0.131-0.291c-0.035-0.146-0.086-0.242-0.16-0.287
		c-0.115,0.098-0.311,0.168-0.583,0.213c-0.275,0.041-0.455,0.09-0.544,0.146c0.058,0.625,0,1.729-0.249,1.961
		c-0.14-0.016-0.243,0.033-0.307,0.154c-0.092,0.141-0.173,0.227-0.243,0.256l0.095,0.078c-0.077,0.064-0.206,0.094-0.386,0.096
		c-0.28,0.008-0.431,0.014-0.452,0.014l-0.103-0.215l0.423-7.266c-0.021-0.412-0.018-0.691,0.011-0.838
		c-0.04-0.361,0.046-0.594,0.263-0.695c0.144,0.064,0.321,0.09,0.532,0.078c0.169-0.01,0.435-0.057,0.79-0.143
		c0.359-0.086,0.606-0.131,0.75-0.141c0.49-0.027,0.725,0.24,0.709,0.809c-0.016,0.453,0.119,1.039,0.404,1.762
		c0.297,0.773,0.455,1.361,0.479,1.758c0.006,0.119,0.169,0.375,0.167,0.498c-0.207,0.109-0.476,0.184-0.804,0.229
		c-0.291,0.033-0.584,0.068-0.884,0.098c-0.125-0.605-0.411-1.344-0.535-1.945c-0.152-0.719-0.318-1.307-0.494-1.77l-0.193,3.486
		c-0.012,0.299,0.169,0.438,0.539,0.418c0.12-0.008,0.234-0.039,0.342-0.094c0.088-0.029,0.216,0.016,0.384,0.135
		c0.013,0.252,0.087,0.398,0.222,0.438c0.156-0.098,0.359-0.195,0.616-0.291c0.227-0.086,0.449-0.168,0.666-0.244
		c0.139,0.129,0.232,0.33,0.293,0.602c0.071,0.387,0.119,0.607,0.141,0.672c0.03,0.152,0.134,0.479,0.314,0.979
		c0.134,0.396,0.208,0.719,0.224,0.971C107.389,328.789,107.387,328.902,107.374,329.011"></path>
	<path clip-path="url(#SVGID_2_)" d="M111.525,320.765h0.016c-0.12,0.178-0.275,0.211-0.461,0.102
		c-0.042-0.01-0.221,0.004-0.543,0.029c-0.27,0.016-0.465,0.002-0.589-0.039c-0.031,0.004-0.091,0.033-0.177,0.09
		c-0.087,0.059-0.148,0.086-0.191,0.09c-0.058,0.006-0.091-0.049-0.099-0.152c0-0.014-0.005-0.084-0.011-0.207
		c-0.005-0.078-0.045-0.135-0.116-0.162l-0.187,0.146c-0.058,0.043-0.086,0.088-0.083,0.137c0.002,0.039,0.036,0.096,0.1,0.17
		c0.063,0.074,0.103,0.127,0.114,0.156c0.001,0.025,0.024,0.387,0.063,1.09c0.016,0.447,0.098,0.801,0.246,1.066
		c0.035-0.041,0.128-0.066,0.272-0.068c0.145-0.006,0.243-0.039,0.291-0.096c0.095,0.082,0.252,0.086,0.475,0.014
		c0.223-0.074,0.384-0.051,0.482,0.076l-0.031,1.07c-0.091-0.012-0.226-0.059-0.399-0.135c-0.053,0.156-0.152,0.256-0.3,0.295
		c-0.061,0.021-0.23,0.037-0.51,0.055c0.008-0.049-0.036-0.1-0.132-0.148c-0.272,0.129-0.375,0.438-0.306,0.926
		c0.008-0.049,0.017,0.037,0.032,0.254c0.008,0.137-0.022,0.236-0.089,0.297c-0.17,0.025-0.386-0.012-0.648-0.113
		c-0.262-0.102-0.449-0.15-0.561-0.145c-0.047,0.002-0.095,0.01-0.135,0.02l-0.281,0.088l-0.451-4.891l-0.053-0.93
		c0.373-0.127,0.839-0.207,1.39-0.238c0.431-0.025,0.996-0.021,1.691,0.01c0.045-0.09,0.126,0.027,0.229,0.023
		c0.049-0.004,0.124,0.004,0.226,0.018c0.101,0.014,0.179,0.02,0.229,0.016c0.06-0.002,0.114-0.014,0.163-0.033l0.072-0.076
		c0.203,0.061,0.312,0.168,0.319,0.318c0.005,0.066-0.016,0.178-0.058,0.332c-0.038,0.158-0.058,0.277-0.053,0.357
		C111.475,320.646,111.492,320.71,111.525,320.765 M109.768,328.925c-0.108,0.057-0.272,0.088-0.493,0.104
		c-0.292,0.016-0.466,0.031-0.527,0.041c-0.03-0.029-0.07-0.004-0.135-0.26c-0.04-0.168-0.145-0.248-0.314-0.234
		c-0.042,0-0.09,0.006-0.15,0.018l-0.271,0.018l-0.144-2.477c0.146-0.072,0.331-0.115,0.55-0.129
		c0.213-0.012,0.399,0.01,0.562,0.062c-0.003,0.092,0.125,0.131,0.386,0.113l0.286-0.018
		C109.686,326.859,109.792,328.115,109.768,328.925"></path>
	<path clip-path="url(#SVGID_2_)" d="M117.54,320.978l0.017,0.01c-0.144-0.008-0.597,0.021-0.946,0.066
		c-0.3,0.035-0.525,0.041-0.678,0.016c-0.146,0.098-0.198,0.23-0.159,0.396l0.094,0.057c-0.078,0.07-0.104,0.123-0.081,0.164
		l0.081,0.078c-0.017,1.436-0.022,2.23-0.012,2.381c0.021,0.381,0.066,0.713,0.132,1.002c-0.06,0.182-0.082,0.389-0.068,0.623
		c0.009,0.152,0.045,0.393,0.108,0.729c0.066,0.33,0.151,1.422,0.162,1.594c0.008,0.127,0.005,0.25-0.008,0.363
		c-0.139,0.057-0.288,0.09-0.446,0.1c-0.272,0.014-0.563-0.041-0.872-0.17c-0.037,0.035-0.08,0.072-0.13,0.111
		c-0.046,0.041-0.061,0.084-0.037,0.131c-0.098,0.027-0.237-0.01-0.415-0.123c-0.095-1.453-0.354-4.41-0.737-7.4
		c-0.138,0.123-0.385,0.021-0.646,0.055c-0.308,0.033-0.611-0.016-0.73,0.041c-0.15-0.162-0.118-0.209-0.131-0.475
		c-0.017-0.258-0.101-0.895-0.034-1.16c0.015-0.059,0.577-0.025,0.908-0.053c0.449-0.027,0.55,0.082,0.579,0.078
		c0.037-0.057,0.256-0.029,0.417-0.039c0.105,0.051,0.218-0.047,0.22,0.027c0.004,0.049,0,0.354-0.034,0.441s-0.053,0.15-0.05,0.191
		c0.008,0.096,0.077-0.045,0.241,0.01c0.181-0.006,0.366-0.01,0.555-0.021c0.214,0.02,0.458-0.057,0.439,0.123
		c0.037-0.051,0.061,0.039,0.365-0.084c0.226-0.104,0.362-0.367,0.32-0.549c-0.026-0.1,0.111-0.164,0.026-0.117
		c0.108-0.061,0.008-0.02,0.127-0.066c0.376,0.035,0.584-0.004,0.653-0.006c0.15-0.01,0.525,0.086,0.633,0.033
		c0.078,0.141,0.116,0.582,0.122,0.824C117.532,320.748,117.54,320.953,117.54,320.978"></path>
	<path clip-path="url(#SVGID_2_)" d="M122.416,326.029l-0.002-0.012c-0.053,0.107-0.082,0.23-0.085,0.367
		c-0.006,0.09,0.003,0.215,0.021,0.377c0.021,0.184,0.034,0.312,0.04,0.387c-0.082,0.004-0.404,0.021-0.964,0.057
		c-0.341,0.018-0.644,0.062-0.913,0.137l-0.299-0.227c-0.075,0.07-0.102,0.125-0.081,0.164c-0.05-0.006-0.283,0.008-0.692,0.039
		c-0.32,0.02-0.563,0.008-0.728-0.029c-0.149,0.145-0.341,0.156-0.57,0.031c-0.082-0.041-0.098-0.125-0.045-0.246
		c0.053-0.121,0.029-0.207-0.075-0.256c-0.002-0.258,0.007-0.66,0.036-1.205c0.033-0.486,0.04-0.869,0.025-1.145
		c-0.022-0.369-0.083-0.721-0.181-1.057c0.103-0.094,0.227-0.145,0.367-0.152c0.159-0.012,0.354,0.039,0.584,0.145
		c0.32,0.154,0.482,0.23,0.494,0.23l0.094,0.076c0.009-0.021,0.051-0.156,0.128-0.396c0.041-0.154,0.111-0.26,0.209-0.312
		l0.092,0.066c0.04-0.018,0.167-0.102,0.38-0.252c0.164-0.107,0.278-0.5,0.378-0.506c0.108-0.008,0.218,0.035,0.324,0.125
		c0.174,0.064,0.313,0.506,0.377,0.65c0.063,0.146,0.125,0.291,0.185,0.432c-0.451,0.043-0.825,0.061-1.115,0.053
		c-0.063,0.094-0.167,0.115-0.297,0.062c-0.134-0.055-0.229-0.037-0.284,0.047c0.009,0.145,0.022,0.406,0.045,0.785
		c0.01,0.34,0.025,0.605,0.045,0.797c0.028,0.299,0.077,0.572,0.14,0.82c0.079-0.008,0.461-0.029,1.142-0.066
		C121.663,325.988,122.07,325.99,122.416,326.029 M121.948,320.335c-0.088,0.012-0.191,0.023-0.303,0.029
		c-0.229,0.014-0.532,0.008-0.919-0.02c-0.475-0.021-0.763-0.033-0.863-0.035c-0.129,0.178-0.147,0.322-0.129,0.629
		c0.04,0.66,0.061,0.949,0.066,0.857c0.144,0.057,0.222,0.174,0.23,0.352c0.005,0.242,0.01,0.365,0.023,0.373
		c-0.068,0.027-0.1,0.113-0.092,0.25c-0.111-0.025-0.231-0.084-0.355-0.174c-0.169-0.111-0.223,0.283-0.218,0.18l-0.075,0.246
		l-0.095-0.07c-0.078,0.014-0.219-0.01-0.418-0.072c-0.2-0.061-0.341-0.121-0.426-0.18c-0.005-0.129,0.013-0.203,0.062-0.225
		l-0.205-0.156l-0.084,0.115c-0.177-0.834-0.297-2.299-0.229-3.193c0.383,0.027,0.833-0.039,1.294-0.059
		c0.309-0.012,0.747-0.033,1.308-0.074c0.642-0.045,1.102-0.078,1.382-0.094c0.125,0.082,0.193,0.197,0.201,0.34
		c0.005,0.09-0.013,0.234-0.056,0.436C121.999,319.992,121.943,320.238,121.948,320.335"></path>
	<path clip-path="url(#SVGID_2_)" d="M127.416,325.167l-0.013,0.002c-0.062,0.125-0.083,0.305-0.061,0.537
		c0.032,0.332,0.045,0.5,0.045,0.508c-0.05,0.02-0.115-0.004-0.201-0.07c-0.129,0.045-0.189,0.127-0.182,0.24
		c0.002,0.016,0.008,0.041,0.021,0.082c0.003,0.047,0.003,0.08,0.005,0.098c0.007,0.088-0.021,0.154-0.079,0.201
		c-0.146-0.084-0.338-0.135-0.576-0.158c-0.235-0.021-0.46-0.045-0.675-0.066c-0.004-1.098-0.152-2.174-0.443-3.227
		c0,0.012-0.006-0.1-0.017-0.326c0-0.162-0.038-0.275-0.112-0.346l-0.101,0.092c0-0.016,0.032-0.049,0.101-0.096
		c0.066-0.049,0.101-0.098,0.098-0.146c-0.002-0.023-0.008-0.049-0.021-0.074l-0.111-0.078c-0.187,0.061-0.272,0.209-0.256,0.451
		c0.008,0.162-0.057,0.277-0.193,0.342c0.05,0.037,0.081,0.084,0.083,0.141c0.003,0.031-0.002,0.076-0.017,0.131
		c-0.008,0.061-0.016,0.105-0.013,0.139c0.005,0.07,0.041,0.131,0.116,0.176c0.003,0.049,0.028,0.482,0.074,1.307
		c0.032,0.523,0.019,0.971-0.041,1.336l0.012,0.207c-0.069-0.004-0.15-0.004-0.242,0.002c-0.101,0.008-0.247,0.02-0.436,0.043
		c-0.188,0.023-0.329,0.039-0.419,0.043c-0.37,0.021-0.632-0.039-0.78-0.186l-0.158-4.52c-0.072-0.223-0.121-0.531-0.143-0.926
		l-0.053-0.871c-0.033-0.428-0.087-0.758-0.16-0.986c0.03-0.156,0.165-0.242,0.405-0.254c0.153-0.012,0.353,0.01,0.609,0.061
		c0.118-0.057,0.279-0.09,0.49-0.102c0.061-0.002,0.156-0.004,0.286-0.004c0.141-0.008,0.243-0.016,0.302-0.02
		c0.391-0.021,0.651-0.143,0.778-0.359c0.183-0.002,0.378,0.055,0.589,0.17c0.215,0.119,0.402,0.18,0.565,0.186
		c0.426,0.252,0.657,0.668,0.69,1.25c0.005,0.129-0.045,0.643-0.153,1.539l-0.735,0.637c0.127,0.229,0.278,0.723,0.452,1.492
		C126.893,324.402,127.12,324.869,127.416,325.167 M126.063,320.027l0.016,0.01c0.012,0.057,0.006-0.143-0.021-0.592
		c-0.013-0.221-0.092-0.377-0.239-0.471c-0.081,0.115-0.1-0.158-0.136,0.115c-0.041,0.273-0.106,0.469-0.198,0.588
		c-0.252,0-0.311-0.15-0.462-0.361c-0.093-0.133-0.138-0.018-0.138-0.027l-0.068,0.057c-0.04,0.033-0.081,0.074-0.13,0.117
		c-0.047,0.043-0.098,0.059-0.15,0.045c0.005,0.047-0.019,0.125-0.069,0.229c-0.047,0.104-0.07,0.176-0.069,0.217
		c0.004,0.072,0.062,0.125,0.176,0.16c-0.02,0.162-0.027,0.332-0.016,0.512c0.006,0.096,0.028,0.316,0.067,0.662
		c0.047,0.273,0.064,0.506,0.057,0.701c0.091,0.004,0.176,0.002,0.258-0.002c0.35-0.021,0.579-0.16,0.685-0.416
		c0.034-0.074,0.074-0.346,0.119-0.809C125.783,320.408,125.891,320.167,126.063,320.027"></path>
	<path clip-path="url(#SVGID_2_)" d="M77.545,304.322v0.012c-0.043,0.42-0.058,0.711-0.042,0.869
		c-0.065,0.025-0.151,0.029-0.252,0.014c-0.136-0.023-0.213-0.033-0.233-0.033c-0.058,0.004-0.105,0.023-0.141,0.061
		c-0.082-0.051-0.137-0.074-0.167-0.066c-0.079,0.047-0.117,0.115-0.112,0.201c0.002,0.039,0.017,0.1,0.044,0.191
		c0.026,0.092,0.042,0.156,0.044,0.201c0.001,0.057-0.01,0.15-0.037,0.277c-0.026,0.125-0.038,0.227-0.034,0.309
		c0.005,0.094,0.026,0.244,0.062,0.447c0.036,0.203,0.056,0.355,0.062,0.459c-0.042,0.199-0.058,0.4-0.048,0.604
		c0.012,0.25,0.083,0.584,0.206,1.002c0.023,0.008,0.044,0.01,0.066,0.008c0.049-0.002,0.111-0.041,0.182-0.109
		c0.069-0.066,0.13-0.104,0.18-0.107c0.037,0,0.079,0.006,0.122,0.029c0.132,0.422,0.2,0.697,0.208,0.822
		c0.001,0.059,0.001,0.121-0.001,0.186c-0.198,0.049-0.336-0.02-0.417-0.199c0.011-0.049-0.019-0.104-0.086-0.16l-0.22,0.232
		c0.215,0.033,0.299,0.197,0.256,0.49c-0.019,0.062-0.063,0.094-0.138,0.096c-0.126-0.002-0.183-0.002-0.176-0.002l-0.18-0.32
		l-0.072,0.092c-0.061-0.152-0.13-0.223-0.209-0.219c-0.045,0.002-0.121,0.039-0.231,0.109c-0.109,0.072-0.202,0.109-0.273,0.113
		c-0.058,0.004-0.116-0.012-0.177-0.045c-0.005-0.09-0.016-0.18-0.031-0.273c-0.017-0.096-0.065-0.154-0.147-0.18
		c-0.004-0.23,0.003-0.824,0.018-1.793c0.008-0.73,0-1.324-0.022-1.777c-0.01-0.191-0.023-0.375-0.039-0.555
		c-0.04-0.059-0.077-0.086-0.113-0.086c-0.031,0.004-0.075,0.033-0.133,0.096c-0.06,0.062-0.111,0.09-0.154,0.084
		c-0.006-0.072-0.04-0.191-0.102-0.352s-0.096-0.277-0.102-0.352c-0.005-0.123,0.042-0.232,0.139-0.324l0.256,0.062
		c0.102-0.143,0.146-0.389,0.129-0.73c-0.004-0.066-0.013-0.172-0.027-0.312s-0.024-0.244-0.027-0.312
		c-0.028-0.561,0.143-0.852,0.517-0.871c0.137-0.008,0.307,0.018,0.507,0.074l0.245,0.064c0.019,0.094,0.032,0.191,0.038,0.293
		c0.007,0.141,0.002,0.344-0.019,0.611c-0.021,0.27-0.025,0.465-0.021,0.586c0.009,0.201,0.044,0.379,0.104,0.537
		c0.058-0.004,0.15-0.037,0.276-0.096c0.124-0.062,0.215-0.094,0.274-0.098C77.399,304.175,77.483,304.22,77.545,304.322
		 M76.782,305.107l-0.012-0.252l-0.079-0.072L76.782,305.107z"></path>
	<path clip-path="url(#SVGID_2_)" d="M80.558,303.533h0.011c-0.024,0.199-0.056,0.398-0.089,0.598
		c-0.04,0.227-0.104,0.406-0.193,0.537c-0.015-0.008-0.106-0.049-0.27-0.131c-0.114-0.059-0.213-0.082-0.3-0.072
		c-0.068,0.43-0.103,1.014-0.109,1.752c-0.004,0.945-0.013,1.516-0.022,1.713c-0.112-0.006-0.193,0.027-0.248,0.109
		c-0.056,0.078-0.107,0.158-0.153,0.24c-0.021,0.047-0.03,0.088-0.027,0.123c0.001,0.061,0.051,0.117,0.15,0.168
		c0.099,0.055,0.148,0.113,0.151,0.18c-0.042,0.156-0.135,0.238-0.273,0.244c-0.065,0.004-0.181-0.018-0.344-0.059
		c-0.161-0.043-0.276-0.062-0.344-0.059l-0.157-3.135c0.062-0.08,0.088-0.139,0.08-0.166l-0.091-0.062
		c0.008-0.131,0.015-0.789,0.021-1.969c0.004-0.797,0.035-1.443,0.09-1.936c-0.007,0,0.218-0.016,0.678-0.045
		c0.284-0.016,0.47,0.064,0.551,0.236c0,0.16-0.017,0.43-0.049,0.812c-0.033,0.354-0.044,0.625-0.035,0.814
		c0.012,0.236,0.049,0.445,0.111,0.633C79.942,303.726,80.229,303.55,80.558,303.533 M81.647,304.203
		c0.022,0.291,0.038,0.576,0.054,0.855c0.061,1.211,0.042,2.51-0.057,3.889c-0.106,0.096-0.267,0.115-0.487,0.062
		c-0.216-0.051-0.376-0.029-0.474,0.062c-0.126-0.162-0.197-0.453-0.221-0.879c-0.03-0.611-0.046-0.93-0.047-0.951
		c-0.027-1.535,0.125-2.777,0.451-3.725C81.244,303.615,81.503,303.843,81.647,304.203"></path>
	<path clip-path="url(#SVGID_2_)" d="M85.491,305.796c-0.047,0.096-0.068,0.199-0.062,0.307c0.005,0.111,0.01,0.217,0.017,0.32
		c-0.012,0.088-0.035,0.174-0.075,0.268c-0.066-0.02-0.122-0.027-0.167-0.025c-0.05,0.002-0.103,0.021-0.154,0.057
		c-0.053,0.037-0.096,0.055-0.124,0.055c-0.045,0.004-0.103-0.014-0.179-0.045l-0.508-0.742c0.018,0.219,0.068,0.41,0.15,0.574
		c0.041,0.086,0.081,0.172,0.122,0.256c-0.298,0.055-0.467,0.062-0.503,0.025l-0.072,0.094l-0.177-0.232
		c-0.138,0.168-0.169,0.412-0.093,0.74c0.089,0.354,0.094,0.607,0.015,0.768c0.111,0.164,0.242,0.238,0.396,0.232
		c0.066-0.004,0.122-0.027,0.171-0.074c0.072-0.182,0.144-0.359,0.216-0.539c0.107-0.219,0.225-0.33,0.356-0.336
		c0.101-0.006,0.222,0.047,0.359,0.16c0.164,0.057,0.248,0.131,0.253,0.225c0.002,0.061-0.034,0.156-0.112,0.287
		c-0.075,0.131-0.115,0.234-0.11,0.309c0.003,0.027,0.007,0.053,0.015,0.076c-0.106,0.076-0.199,0.195-0.284,0.354
		c-0.084,0.16-0.193,0.266-0.33,0.328c-0.118,0.111-0.229,0.172-0.33,0.178c-0.081,0.004-0.202-0.059-0.361-0.186
		c-0.16-0.127-0.309-0.186-0.448-0.18c-0.057-0.129-0.2-0.273-0.426-0.43c-0.227-0.154-0.369-0.326-0.423-0.506
		c0.001,0.014-0.001-0.043-0.007-0.174c-0.005-0.074-0.037-0.121-0.096-0.139l0.083-0.08c-0.111-0.004-0.167-0.064-0.172-0.191
		c-0.001-0.014-0.002-0.041-0.004-0.088c0.004-0.035,0.007-0.064,0.005-0.088c-0.004-0.086-0.034-0.146-0.086-0.182l-0.02-0.383
		c-0.009-0.197-0.05-0.34-0.12-0.422c0.071-0.465,0.144-0.93,0.215-1.395c0.119-0.541,0.296-0.818,0.529-0.83
		c0.038,0,0.073,0.004,0.109,0.016c0.213-0.207,0.464-0.318,0.765-0.334c0.329-0.016,0.693,0.084,1.091,0.297
		C85.224,304.632,85.416,305.191,85.491,305.796 M83.98,304.583l-0.073,0.094c-0.049,0.008-0.112-0.018-0.18-0.078l0.014,0.25
		c-0.112,0.123-0.156,0.312-0.137,0.568c0.021,0.439,0.033,0.648,0.033,0.635l0.328-0.004c0.156-0.09,0.23-0.236,0.218-0.441
		c-0.004-0.102-0.038-0.27-0.107-0.506C84.01,304.869,83.978,304.697,83.98,304.583"></path>
	<polygon clip-path="url(#SVGID_2_)" fill-rule="evenodd" clip-rule="evenodd" points="88.065,316.845 88.391,317.035 89.5,314.128 
		89.127,314.005 88.021,316.912 88.344,317.117 	"></polygon>
	<polygon clip-path="url(#SVGID_2_)" fill-rule="evenodd" clip-rule="evenodd" points="88.548,316.445 88.415,316.498 
		88.065,316.845 88.344,317.117 88.7,316.748 88.562,316.818 	"></polygon>
	<polygon clip-path="url(#SVGID_2_)" fill-rule="evenodd" clip-rule="evenodd" points="91.228,316.421 91.385,316.298 
		88.549,316.445 88.561,316.818 91.399,316.675 91.579,316.541 	"></polygon>
	<polygon clip-path="url(#SVGID_2_)" fill-rule="evenodd" clip-rule="evenodd" points="92.51,313.75 92.315,313.509 91.229,316.421 
		91.579,316.541 92.685,313.632 92.492,313.392 	"></polygon>
	<polygon clip-path="url(#SVGID_2_)" fill-rule="evenodd" clip-rule="evenodd" points="89.807,313.843 89.666,313.914 92.51,313.75 
		92.492,313.392 89.662,313.517 89.521,313.589 	"></polygon>
	<polygon clip-path="url(#SVGID_2_)" fill-rule="evenodd" clip-rule="evenodd" points="89.499,314.128 89.457,314.191 
		89.807,313.843 89.522,313.589 89.168,313.941 89.128,314.005 	"></polygon>
	<polygon clip-path="url(#SVGID_2_)" fill-rule="evenodd" clip-rule="evenodd" points="91.853,316.765 92.106,316.654 
		91.497,316.316 91.306,316.662 91.931,317.005 92.206,316.884 91.835,316.761 	"></polygon>
	<polygon clip-path="url(#SVGID_2_)" fill-rule="evenodd" clip-rule="evenodd" points="93.042,314.085 92.943,313.855 
		91.835,316.761 92.205,316.884 93.311,313.978 93.21,313.75 	"></polygon>
	<polygon clip-path="url(#SVGID_2_)" fill-rule="evenodd" clip-rule="evenodd" points="92.685,313.632 92.411,313.755 
		93.043,314.085 93.211,313.75 92.603,313.41 92.316,313.509 	"></polygon>
	<polygon clip-path="url(#SVGID_2_)" points="89.322,314.072 89.304,314.064 89.656,313.712 92.288,313.585 92.316,313.509 
		92.509,313.574 92.684,313.632 92.674,313.664 93.134,313.919 93.311,313.978 93.239,314.166 94.528,317.23 93.438,320.142 
		92.029,316.826 91.848,316.9 91.835,316.761 91.849,316.726 91.405,316.482 91.305,316.662 91.25,316.488 88.549,316.619 
		88.197,316.968 	"></polygon>
	<polygon clip-path="url(#SVGID_2_)" fill-rule="evenodd" clip-rule="evenodd" points="93.262,320.082 93.619,320.066 
		92.211,316.75 91.848,316.9 93.256,320.216 93.614,320.201 93.244,320.078 	"></polygon>
	<polygon clip-path="url(#SVGID_2_)" fill-rule="evenodd" clip-rule="evenodd" points="94.364,317.312 94.35,317.169 
		93.245,320.078 93.613,320.201 94.721,317.296 94.709,317.156 	"></polygon>
	<polygon clip-path="url(#SVGID_2_)" fill-rule="evenodd" clip-rule="evenodd" points="93.311,313.978 92.954,313.996 
		94.363,317.312 94.709,317.156 93.3,313.837 92.943,313.855 	"></polygon>
	<polygon clip-path="url(#SVGID_2_)" fill-rule="evenodd" clip-rule="evenodd" fill="#FFFFFF" points="93.217,314.726 
		93.374,315.074 93.434,315.421 93.416,315.767 93.316,316.125 93.14,316.474 92.902,316.785 92.591,317.07 92.216,317.316 
		92.011,317.406 91.807,317.492 91.579,317.533 91.367,317.58 91.163,317.607 90.941,317.63 90.737,317.603 90.526,317.591 
		90.344,317.55 90.152,317.484 89.966,317.406 89.802,317.31 89.661,317.205 89.502,317.091 89.375,316.953 89.269,316.8 
		89.109,316.457 89.052,316.103 89.052,315.753 89.17,315.404 89.322,315.064 89.568,314.738 89.878,314.451 90.268,314.21 
		90.458,314.117 90.68,314.035 90.888,313.99 91.1,313.943 91.323,313.917 91.525,313.89 91.731,313.917 91.942,313.931 
		92.135,313.994 92.328,314.06 92.504,314.117 92.683,314.218 92.83,314.304 92.983,314.433 93.089,314.587 	"></polygon>
	<polygon clip-path="url(#SVGID_2_)" fill-rule="evenodd" clip-rule="evenodd" points="93.357,315.3 93.514,315.646 93.566,316.013 
		93.552,316.359 93.455,316.699 93.299,317.054 93.035,317.375 92.749,317.652 92.357,317.89 92.146,317.994 91.942,318.082 
		91.73,318.126 91.503,318.171 91.299,318.199 91.099,318.212 90.887,318.199 90.666,318.166 90.484,318.123 90.291,318.06 
		90.122,317.982 89.942,317.884 89.794,317.794 89.661,317.671 89.526,317.548 89.407,317.375 89.245,317.046 89.187,316.695 
		89.21,316.332 89.304,315.994 89.461,315.636 89.702,315.326 90.012,315.041 90.402,314.802 90.615,314.697 90.813,314.625 
		91.028,314.562 91.259,314.521 91.458,314.509 91.662,314.48 91.866,314.509 92.076,314.521 92.276,314.568 92.47,314.632 
		92.639,314.707 92.825,314.792 92.966,314.894 93.125,315.005 93.227,315.16 93.352,315.318 	"></polygon>
	<polygon clip-path="url(#SVGID_2_)" fill-rule="evenodd" clip-rule="evenodd" fill="#FFFFFF" points="93.455,315.703 
		93.621,316.031 93.673,316.4 93.654,316.746 93.562,317.083 93.385,317.435 93.14,317.761 92.854,318.035 92.463,318.275 
		92.27,318.386 92.046,318.468 91.837,318.515 91.607,318.554 91.402,318.587 91.205,318.597 90.994,318.587 90.772,318.55 
		90.59,318.509 90.396,318.445 90.228,318.369 90.045,318.267 89.9,318.181 89.749,318.052 89.636,317.917 89.513,317.761 
		89.351,317.435 89.291,317.08 89.309,316.736 89.407,316.38 89.566,316.025 89.812,315.697 90.133,315.433 90.509,315.187 
		90.72,315.083 90.923,314.994 91.136,314.947 91.363,314.906 91.566,314.878 91.766,314.865 91.995,314.884 92.183,314.906 
		92.38,314.955 92.574,315.019 92.759,315.099 92.923,315.193 93.07,315.281 93.228,315.392 93.333,315.546 	"></polygon>
	<polygon clip-path="url(#SVGID_2_)" fill-rule="evenodd" clip-rule="evenodd" points="93.596,316.275 93.755,316.621 
		93.814,316.972 93.814,317.322 93.695,317.673 93.543,318.013 93.281,318.333 92.988,318.628 92.598,318.867 92.41,318.958 
		92.186,319.041 91.976,319.089 91.766,319.134 91.541,319.158 91.338,319.187 91.135,319.158 90.922,319.146 90.725,319.101 
		90.531,319.035 90.361,318.958 90.181,318.861 90.041,318.753 89.901,318.65 89.771,318.509 89.648,318.351 89.508,318.011 
		89.431,317.654 89.45,317.31 89.549,316.953 89.718,316.619 89.964,316.292 90.274,316.005 90.649,315.761 90.854,315.673 
		91.058,315.585 91.287,315.544 91.497,315.498 91.703,315.468 91.919,315.462 92.128,315.474 92.323,315.478 92.522,315.527 
		92.714,315.591 92.9,315.673 93.063,315.767 93.224,315.878 93.362,315.984 93.492,316.125 93.591,316.294 	"></polygon>
	<polygon clip-path="url(#SVGID_2_)" fill-rule="evenodd" clip-rule="evenodd" fill="#FFFFFF" points="93.801,316.654 
		93.966,316.986 94.024,317.333 94.018,317.703 93.924,318.042 93.748,318.394 93.486,318.714 93.201,318.99 92.824,319.236 
		92.613,319.339 92.391,319.421 92.182,319.468 91.969,319.513 91.747,319.539 91.549,319.55 91.338,319.539 91.134,319.509 
		90.935,319.462 90.741,319.398 90.571,319.322 90.402,319.246 90.245,319.134 90.108,319.011 89.983,318.871 89.877,318.72 
		89.712,318.392 89.641,318.019 89.659,317.671 89.77,317.339 89.93,316.984 90.173,316.654 90.479,316.386 90.853,316.142 
		91.064,316.037 91.268,315.949 91.491,315.925 91.707,315.861 91.912,315.832 92.129,315.826 92.339,315.837 92.526,315.861 
		92.726,315.906 92.935,315.978 93.104,316.054 93.276,316.13 93.434,316.242 93.567,316.365 93.697,316.505 	"></polygon>
	<polygon clip-path="url(#SVGID_2_)" fill-rule="evenodd" clip-rule="evenodd" points="93.959,317.236 94.1,317.574 94.176,317.931 
		94.157,318.277 94.059,318.632 93.888,318.966 93.643,319.294 93.332,319.582 92.958,319.826 92.754,319.914 92.531,319.996 
		92.322,320.041 92.111,320.089 91.906,320.119 91.684,320.14 91.478,320.113 91.269,320.099 91.087,320.058 90.877,319.988 
		90.707,319.914 90.544,319.82 90.385,319.708 90.245,319.603 90.116,319.462 90.011,319.31 89.854,318.966 89.777,318.609 
		89.794,318.263 89.911,317.912 90.063,317.57 90.309,317.246 90.619,316.957 91.011,316.72 91.199,316.626 91.421,316.544 
		91.63,316.498 91.843,316.451 92.065,316.427 92.27,316.398 92.472,316.427 92.667,316.433 92.884,316.486 93.076,316.552 
		93.247,316.628 93.411,316.72 93.567,316.832 93.707,316.937 93.835,317.078 	"></polygon>
	<polygon clip-path="url(#SVGID_2_)" fill-rule="evenodd" clip-rule="evenodd" points="74.623,312.773 74.642,312.662 
		73.528,315.583 73.88,315.701 74.991,312.777 74.996,312.703 	"></polygon>
	<polygon clip-path="url(#SVGID_2_)" fill-rule="evenodd" clip-rule="evenodd" points="74.593,312.623 74.6,312.607 74.622,312.773 
		74.997,312.703 74.958,312.533 74.963,312.515 	"></polygon>
	<polygon clip-path="url(#SVGID_2_)" fill-rule="evenodd" clip-rule="evenodd" points="74.553,312.457 74.593,312.623 
		74.964,312.515 74.92,312.345 	"></polygon>
	
		<rect x="74.634" y="312.132" transform="matrix(-0.2913 -0.9566 0.9566 -0.2913 -202.3042 474.774)" clip-path="url(#SVGID_2_)" fill-rule="evenodd" clip-rule="evenodd" width="0.159" height="0.386"></rect>
	<polygon clip-path="url(#SVGID_2_)" fill-rule="evenodd" clip-rule="evenodd" points="74.465,312.134 74.465,312.134 
		74.506,312.304 74.875,312.193 74.832,312.025 74.83,312.042 	"></polygon>
	<polygon clip-path="url(#SVGID_2_)" fill-rule="evenodd" clip-rule="evenodd" points="74.419,311.923 74.419,311.984 
		74.465,312.134 74.83,312.042 74.782,311.888 74.8,311.953 	"></polygon>
	<polygon clip-path="url(#SVGID_2_)" fill-rule="evenodd" clip-rule="evenodd" points="74.792,311.853 74.425,311.789 
		74.42,311.923 74.8,311.953 74.804,311.82 74.436,311.751 74.787,311.871 	"></polygon>
	<polygon clip-path="url(#SVGID_2_)" fill-rule="evenodd" clip-rule="evenodd" fill="#4D494A" points="75.111,320.363 
		75.078,320.175 74.687,320.24 74.714,320.445 	"></polygon>
	<polygon clip-path="url(#SVGID_2_)" fill-rule="evenodd" clip-rule="evenodd" points="75.927,317.925 75.938,317.832 
		74.831,320.738 75.183,320.853 76.29,317.947 76.283,317.847 	"></polygon>
	<polygon clip-path="url(#SVGID_2_)" fill-rule="evenodd" clip-rule="evenodd" points="75.896,317.72 75.926,317.925 
		76.282,317.847 76.255,317.644 75.878,317.714 	"></polygon>
	<polygon clip-path="url(#SVGID_2_)" fill-rule="evenodd" clip-rule="evenodd" points="75.845,317.529 75.878,317.714 
		76.255,317.644 76.202,317.451 	"></polygon>
	<polygon clip-path="url(#SVGID_2_)" fill-rule="evenodd" clip-rule="evenodd" points="75.797,317.316 75.809,317.339 
		75.845,317.529 76.202,317.451 76.172,317.246 76.183,317.271 	"></polygon>
	<polygon clip-path="url(#SVGID_2_)" fill-rule="evenodd" clip-rule="evenodd" points="76.149,317.14 75.775,317.091 
		75.797,317.316 76.183,317.271 76.154,317.066 75.781,317.019 	"></polygon>
	<path clip-path="url(#SVGID_2_)" fill="#4D494A" d="M73.53,315.003l-0.178,0.053L73.53,315.003z"></path>
	<polygon clip-path="url(#SVGID_2_)" fill="#4D494A" points="73.715,315.613 73.721,315.597 73.812,315.605 73.88,315.699 
		73.716,315.648 	"></polygon>
	<polygon clip-path="url(#SVGID_2_)" points="73.311,314.89 73.501,314.853 73.505,314.718 74.617,311.796 74.611,311.814 
		74.611,311.931 74.64,312.078 74.699,312.253 74.746,312.406 74.787,312.574 74.815,312.72 74.991,312.777 73.88,315.701 
		73.812,315.605 73.721,315.597 73.715,315.613 73.716,315.648 73.88,315.701 73.717,315.691 73.721,315.826 73.61,315.685 
		73.516,315.677 73.493,315.515 73.561,315.5 73.632,315.312 73.447,315.363 73.395,315.228 73.351,315.056 73.53,315.003 
		73.351,315.056 73.358,315.041 	"></polygon>
	<polygon clip-path="url(#SVGID_2_)" points="73.709,315.451 81.853,315.183 82.062,315.193 82.098,315.208 82.296,315.253 
		82.313,315.261 82.526,315.332 82.729,315.419 82.747,315.423 82.94,315.546 82.976,315.558 83.127,315.687 83.174,315.722 
		83.286,315.855 83.296,315.88 83.374,316.001 83.378,316.042 83.02,316.152 82.963,316.062 82.958,316.08 82.865,315.951 
		82.866,315.951 82.74,315.849 82.77,315.88 82.571,315.775 82.572,315.773 82.365,315.687 82.191,315.628 81.992,315.583 
		82.027,315.591 81.84,315.57 81.84,315.552 73.721,315.826 	"></polygon>
	<polygon clip-path="url(#SVGID_2_)" points="83.011,316.156 83.02,316.152 83.039,316.185 	"></polygon>
	<polygon clip-path="url(#SVGID_2_)" fill-rule="evenodd" clip-rule="evenodd" points="87.359,322.986 87.359,322.873 
		86.248,325.794 86.617,325.917 87.729,322.994 87.729,322.878 	"></polygon>
	<polygon clip-path="url(#SVGID_2_)" fill-rule="evenodd" clip-rule="evenodd" points="84.147,313.277 84.121,313.232 
		87.359,322.986 87.729,322.878 84.491,313.121 84.484,313.082 	"></polygon>
	<polygon clip-path="url(#SVGID_2_)" fill-rule="evenodd" clip-rule="evenodd" points="84.081,313.179 84.07,313.158 
		84.147,313.277 84.484,313.082 84.409,312.957 84.391,312.949 84.062,313.173 	"></polygon>
	<polygon clip-path="url(#SVGID_2_)" fill-rule="evenodd" clip-rule="evenodd" points="84.005,313.056 83.976,313.029 
		84.062,313.173 84.392,312.949 84.268,312.794 84.238,312.763 	"></polygon>
	<polygon clip-path="url(#SVGID_2_)" fill-rule="evenodd" clip-rule="evenodd" points="83.876,312.974 83.848,312.945 
		84.006,313.056 84.239,312.763 84.081,312.654 84.052,312.623 	"></polygon>
	<polygon clip-path="url(#SVGID_2_)" fill-rule="evenodd" clip-rule="evenodd" points="83.7,312.857 83.683,312.851 83.876,312.974 
		84.053,312.623 83.852,312.519 83.836,312.513 	"></polygon>
	<polygon clip-path="url(#SVGID_2_)" fill-rule="evenodd" clip-rule="evenodd" points="83.514,312.777 83.474,312.781 
		83.701,312.857 83.834,312.513 83.63,312.425 83.613,312.419 83.491,312.785 	"></polygon>
	<polygon clip-path="url(#SVGID_2_)" fill-rule="evenodd" clip-rule="evenodd" points="83.303,312.707 83.278,312.716 
		83.492,312.785 83.613,312.419 83.401,312.349 83.296,312.722 	"></polygon>
	<polygon clip-path="url(#SVGID_2_)" fill-rule="evenodd" clip-rule="evenodd" points="83.14,312.669 83.105,312.66 83.296,312.722 
		83.401,312.349 83.187,312.296 83.168,312.291 	"></polygon>
	<polygon clip-path="url(#SVGID_2_)" fill-rule="evenodd" clip-rule="evenodd" points="82.951,312.646 82.946,312.664 
		83.141,312.669 83.169,312.291 82.963,312.259 82.94,312.273 	"></polygon>
	<polygon clip-path="url(#SVGID_2_)" fill-rule="evenodd" clip-rule="evenodd" points="75.008,312.785 74.811,312.91 
		82.951,312.646 82.94,312.273 74.815,312.544 74.642,312.662 74.991,312.777 	"></polygon>
	<polygon clip-path="url(#SVGID_2_)" fill="#4D494A" points="77.054,321.673 77.025,321.658 77.043,321.65 	"></polygon>
	<path clip-path="url(#SVGID_2_)" fill="#4D494A" d="M81.452,322.988l-0.033,0.395L81.452,322.988z"></path>
	<path clip-path="url(#SVGID_2_)" d="M74.713,320.445l0.037,0.188l0.071,0.199l0.087,0.146l0.497,0.262l0.496,0.264l0.48,0.258
		l0.484,0.24l0.019,0.006l0.492,0.221l0.489,0.225l0.533,0.215l0.539,0.201l0.018,0.004l0.572,0.152l0.574,0.152l0.019,0.006
		l0.63,0.096l0.649,0.1l0.018,0.004l0.707,0.039l0.026-0.01l0.754,0.02l0.806-0.027l0.856-0.045l0.175-0.115l1.104-2.906
		l-0.187-0.258l0.012,0.375l-0.059-0.074l0.042-0.107l-0.123,0.008l-0.053-0.066l-0.027,0.072l-0.635,0.037h-0.819l-0.754-0.016
		l-0.69-0.035l-0.672-0.09l-0.626-0.109l-0.574-0.152l-0.573-0.152l-0.537-0.199l-0.521-0.195l-0.492-0.221l-0.485-0.24
		l-0.503-0.246l-0.48-0.256l-0.478-0.258l-0.333-0.176l0.009-0.031l-0.174-0.059l-0.048-0.209l-0.035-0.188l-0.015-0.064
		l0.133-0.287l-0.186-0.061l-0.009-0.002l-0.173-0.057l-1.108,2.904l-0.011,0.094l0.03,0.203L74.713,320.445z M74.85,319.982
		l0.006,0.039l-0.021-0.01L74.85,319.982z"></path>
	<polygon clip-path="url(#SVGID_2_)" fill-rule="evenodd" clip-rule="evenodd" points="84.817,320.501 85.67,320.455 
		85.659,320.078 84.804,320.126 	"></polygon>
	
		<rect x="84.003" y="320.138" transform="matrix(-0.9996 0.029 -0.029 -0.9996 178.0645 638.0697)" clip-path="url(#SVGID_2_)" fill-rule="evenodd" clip-rule="evenodd" width="0.808" height="0.375"></rect>
	<polygon clip-path="url(#SVGID_2_)" fill-rule="evenodd" clip-rule="evenodd" points="83.238,320.501 83.256,320.503 
		84.009,320.525 83.999,320.152 83.245,320.132 83.266,320.121 83.231,320.517 	"></polygon>
	<polygon clip-path="url(#SVGID_2_)" fill-rule="evenodd" clip-rule="evenodd" points="82.511,320.455 82.53,320.458 
		83.231,320.517 83.268,320.121 82.559,320.078 82.576,320.085 	"></polygon>
	<polygon clip-path="url(#SVGID_2_)" fill-rule="evenodd" clip-rule="evenodd" points="81.856,320.373 82.51,320.455 
		82.576,320.085 81.928,319.984 	"></polygon>
	<polygon clip-path="url(#SVGID_2_)" fill-rule="evenodd" clip-rule="evenodd" points="81.212,320.253 81.231,320.261 
		81.856,320.373 81.926,319.984 81.277,319.886 81.296,319.89 	"></polygon>
	<polygon clip-path="url(#SVGID_2_)" fill-rule="evenodd" clip-rule="evenodd" points="80.64,320.101 81.212,320.253 81.295,319.89 
		80.724,319.738 80.633,320.119 	"></polygon>
	<polygon clip-path="url(#SVGID_2_)" fill-rule="evenodd" clip-rule="evenodd" points="80.043,319.962 80.062,319.966 
		80.634,320.119 80.723,319.738 80.15,319.587 80.167,319.593 	"></polygon>
	<polygon clip-path="url(#SVGID_2_)" fill-rule="evenodd" clip-rule="evenodd" points="79.505,319.761 79.505,319.761 
		80.042,319.962 80.167,319.593 79.628,319.396 79.647,319.4 79.489,319.755 	"></polygon>
	<polygon clip-path="url(#SVGID_2_)" fill-rule="evenodd" clip-rule="evenodd" points="78.973,319.546 79.489,319.755 79.648,319.4 
		79.132,319.187 	"></polygon>
	<polygon clip-path="url(#SVGID_2_)" fill-rule="evenodd" clip-rule="evenodd" points="78.482,319.322 78.972,319.546 
		79.132,319.187 78.634,318.982 	"></polygon>
	<polygon clip-path="url(#SVGID_2_)" fill-rule="evenodd" clip-rule="evenodd" points="77.979,319.076 77.989,319.101 
		78.482,319.322 78.634,318.982 78.131,318.74 78.149,318.746 77.972,319.093 	"></polygon>
	<polygon clip-path="url(#SVGID_2_)" fill-rule="evenodd" clip-rule="evenodd" points="77.494,318.837 77.973,319.093 
		78.148,318.746 77.663,318.505 77.489,318.855 	"></polygon>
	<polygon clip-path="url(#SVGID_2_)" fill-rule="evenodd" clip-rule="evenodd" points="77.014,318.58 77.489,318.855 
		77.663,318.505 77.185,318.248 76.995,318.576 	"></polygon>
	<polygon clip-path="url(#SVGID_2_)" fill-rule="evenodd" clip-rule="evenodd" points="76.516,318.316 76.995,318.576 
		77.185,318.248 76.705,317.988 	"></polygon>
	<polygon clip-path="url(#SVGID_2_)" fill-rule="evenodd" clip-rule="evenodd" points="76.289,317.947 76.019,318.052 
		76.516,318.316 76.705,317.988 76.208,317.726 75.937,317.832 	"></polygon>
	<polygon clip-path="url(#SVGID_2_)" fill-rule="evenodd" clip-rule="evenodd" points="126.991,312.681 125.879,315.605 
		129.51,316.816 130.354,314.875 130.376,314.689 130.384,314.494 130.354,314.289 130.284,314.091 130.167,313.917 
		130.072,313.728 129.921,313.541 129.763,313.373 129.601,313.22 129.417,313.062 129.23,312.919 129.049,312.82 128.874,312.705 
		128.667,312.617 128.488,312.515 128.313,312.458 128.155,312.406 127.966,312.382 127.798,312.367 127.634,312.39 127.47,312.414 
		127.296,312.47 127.141,312.576 	"></polygon>
	<polygon clip-path="url(#SVGID_2_)" fill-rule="evenodd" clip-rule="evenodd" points="129.348,316.724 129.575,316.625 
		125.943,315.412 125.82,315.781 129.454,316.99 129.697,316.898 	"></polygon>
	<polygon clip-path="url(#SVGID_2_)" points="73.311,314.714 73.33,314.66 74.436,311.751 74.787,311.871 73.713,314.742 
		73.692,314.859 73.687,314.818 73.311,314.89 73.307,314.849 	"></polygon>
	<polygon clip-path="url(#SVGID_2_)" fill="#4D494A" points="91.121,321.593 91.057,321.63 91.05,321.626 	"></polygon>
	<path clip-path="url(#SVGID_2_)" d="M73.447,315.363l0.039,0.17l0.007-0.018l0.284-0.059l-0.073,0.186l8.143-0.266l0.192,0.008
		l0.211,0.07l0.211,0.068l0.208,0.072l0.195,0.119l0.157,0.113l0.112,0.137l0.067,0.133l-0.19,0.059l3.236,9.756l0.192,0.002
		l0.002,0.121h0.292l0.274-0.006l0.252,0.006l0.229-0.041l0.232-0.061l0.235-0.113l0.216-0.182l0.257-0.246l0.006-0.02l0.148-0.203
		l0.168-0.217l0.193-0.227l0.136-0.229l0.17-0.275l0.176-0.234l0.143-0.262l0.188-0.271l0.151-0.221l0.217-0.24l0.177-0.232
		l0.203-0.207l0.182-0.191l0.194-0.17l0.186-0.15l0.218-0.123l0.046-0.023l-0.14-0.135l0.14,0.135l0.218-0.24l0.198-0.188
		l0.176-0.174l0.188-0.154l0.183-0.133l0.189-0.113l0.17-0.098l0.188-0.094l0.209-0.047l0.206-0.086l0.211-0.049l0.244-0.035
		l0.269-0.047l0.299-0.018l0.323-0.027l0.314-0.014l0.019,0.008l35.136-2.627l0.203-0.025l0.189-0.037l0.169-0.039l0.177-0.059
		l0.163-0.082l0.17-0.102l0.139-0.127l0.164-0.143l0.036-0.045l0.614-1.432l-0.321-0.205l0.141,0.139l-0.022,0.018l-0.154-0.109
		l-0.153,0.359l-0.104,0.061l-0.133,0.055l-0.159,0.062l-0.148,0.029l-0.185,0.035l-0.188,0.035l-35.154,2.619l-0.224,0.021
		l-0.216,0.008l-0.215,0.004l-0.229,0.037h-0.235l-0.203,0.033l-0.223,0.023l-0.203,0.029l-0.229,0.041l-0.205,0.029l-0.208,0.045
		l-0.235,0.061l-0.211,0.045l-0.223,0.082l-0.222,0.084l-0.209,0.104l-0.416,0.252l-0.422,0.385l-0.444,0.459l-0.427,0.518
		l-0.415,0.543l-0.357,0.486l-0.351,0.469l-0.291,0.352l-0.172,0.039l-0.145,0.031l-0.183,0.018h-0.176h-0.175l-0.15-0.014
		l-0.193-0.006l-0.17-0.018l-3.226-9.732l-0.07-0.141l-0.111-0.137l-0.157-0.109l-0.212-0.127l-0.205-0.09l-0.211-0.07l-0.199-0.047
		l-0.193-0.006l-8.135,0.25l-0.978,2.57l-0.005-0.033L73.447,315.363z M131.912,315.632l0.01-0.023l0.132,0.127L131.912,315.632z"></path>
	<polygon clip-path="url(#SVGID_2_)" fill-rule="evenodd" clip-rule="evenodd" points="130.68,316.351 130.891,316.302 
		131.076,316.267 131.248,316.226 131.425,316.167 131.586,316.085 131.758,315.988 131.892,315.876 132.056,315.736 
		131.777,315.466 131.652,315.601 131.523,315.695 131.399,315.771 131.267,315.822 131.137,315.857 130.985,315.904 
		130.821,315.927 130.64,315.945 	"></polygon>
	<polygon clip-path="url(#SVGID_2_)" fill-rule="evenodd" clip-rule="evenodd" points="95.549,318.957 130.68,316.351 
		130.64,315.945 95.504,318.57 	"></polygon>
	<polygon clip-path="url(#SVGID_2_)" fill-rule="evenodd" clip-rule="evenodd" points="92.104,319.58 92.309,319.494 
		92.509,319.421 92.75,319.347 92.947,319.277 93.163,319.214 93.368,319.183 93.574,319.154 93.801,319.113 93.989,319.076 
		94.204,319.072 94.427,319.048 94.649,319.025 94.872,319.003 95.069,318.992 95.31,318.974 95.549,318.957 95.505,318.57 
		95.28,318.595 95.061,318.615 94.826,318.615 94.604,318.64 94.386,318.646 94.176,318.693 93.958,318.697 93.718,318.714 
		93.508,318.761 93.299,318.808 93.07,318.849 92.835,318.908 92.638,318.978 92.398,319.052 92.159,319.13 91.946,319.234 	"></polygon>
	<polygon clip-path="url(#SVGID_2_)" fill-rule="evenodd" clip-rule="evenodd" points="88.957,323.052 89.034,323 89.191,322.818 
		89.33,322.63 89.5,322.416 89.676,322.181 89.877,321.937 90.057,321.683 90.261,321.419 90.467,321.16 90.677,320.878 
		90.893,320.638 91.105,320.416 91.321,320.175 91.502,319.982 91.73,319.826 91.917,319.673 92.104,319.58 91.946,319.234 
		91.706,319.371 91.502,319.513 91.263,319.708 91.035,319.925 90.824,320.148 90.613,320.369 90.38,320.662 90.173,320.923 
		89.969,321.187 89.765,321.451 89.584,321.703 89.383,321.947 89.208,322.181 89.04,322.398 88.9,322.585 88.77,322.738 
		88.84,322.701 	"></polygon>
	<polygon clip-path="url(#SVGID_2_)" fill-rule="evenodd" clip-rule="evenodd" fill="#FFFFFF" points="82.227,312.484 
		82.951,312.47 83.011,312.47 76.782,310.394 76.466,310.58 82.22,312.5 	"></polygon>
	<polygon clip-path="url(#SVGID_2_)" fill-rule="evenodd" clip-rule="evenodd" fill="#FFFFFF" points="82.227,312.484 
		74.815,312.72 74.787,312.574 74.746,312.406 74.7,312.253 74.642,312.078 74.611,311.931 74.611,311.814 74.658,311.673 
		74.787,311.578 75.092,311.369 75.431,311.171 75.77,310.972 76.11,310.773 76.432,310.568 76.466,310.58 82.22,312.5 	"></polygon>
	<polygon clip-path="url(#SVGID_2_)" fill="#FFFFFF" points="77.721,316.984 82.77,316.699 84.745,317.496 85.442,319.558 
		85.654,320.273 84.817,320.324 83.999,320.324 83.243,320.308 82.553,320.273 81.881,320.183 81.254,320.074 80.68,319.921 
		80.108,319.769 79.571,319.57 79.048,319.375 78.559,319.154 78.073,318.914 77.57,318.667 77.089,318.412 76.612,318.154 
		76.114,317.888 76.066,317.679 76.031,317.492 75.985,317.283 75.954,317.076 	"></polygon>
	<polygon clip-path="url(#SVGID_2_)" fill-rule="evenodd" clip-rule="evenodd" fill="#FFFFFF" points="90.438,317.562 
		90.51,317.644 91.158,318.035 91.368,317.699 90.718,317.304 90.783,317.404 90.438,317.562 90.462,317.607 90.51,317.644 	"></polygon>
	<polygon clip-path="url(#SVGID_2_)" fill-rule="evenodd" clip-rule="evenodd" fill="#FFFFFF" points="84.665,317.683 
		84.554,317.548 85.479,320.332 85.845,320.218 84.922,317.435 84.822,317.324 84.922,317.435 84.894,317.349 84.822,317.324 	"></polygon>
	<polygon clip-path="url(#SVGID_2_)" fill-rule="evenodd" clip-rule="evenodd" fill="#FFFFFF" points="82.789,316.882 
		82.694,316.869 84.666,317.683 84.822,317.324 82.854,316.511 82.775,316.507 82.854,316.511 82.817,316.501 82.775,316.507 	"></polygon>
	<polygon clip-path="url(#SVGID_2_)" fill-rule="evenodd" clip-rule="evenodd" fill="#FFFFFF" points="76.154,317.066 
		75.967,317.275 82.788,316.882 82.776,316.507 75.957,316.9 75.775,317.091 75.957,316.9 75.738,316.906 75.775,317.091 	"></polygon>
	<polygon clip-path="url(#SVGID_2_)" fill-rule="evenodd" clip-rule="evenodd" fill="#FFFFFF" points="76.208,317.726 
		76.283,317.847 76.278,317.75 76.254,317.644 76.247,317.544 76.219,317.457 76.212,317.359 76.189,317.253 76.161,317.166 
		76.154,317.066 75.775,317.091 75.774,317.21 75.792,317.333 75.821,317.417 75.828,317.519 75.855,317.607 75.879,317.714 
		75.92,317.826 75.927,317.925 76.019,318.052 75.927,317.925 75.954,318.011 76.019,318.052 	"></polygon>
	<polygon clip-path="url(#SVGID_2_)" fill-rule="evenodd" clip-rule="evenodd" fill="#FFFFFF" points="85.481,320.312 
		85.64,320.074 84.804,320.126 83.997,320.152 83.266,320.121 82.559,320.078 81.927,319.984 81.295,319.89 80.723,319.738 
		80.167,319.593 79.628,319.394 79.133,319.187 78.634,318.982 78.149,318.746 77.664,318.505 77.185,318.248 76.705,317.988 
		76.208,317.726 76.019,318.052 76.516,318.316 76.997,318.576 77.489,318.855 77.972,319.093 78.482,319.322 78.972,319.546 
		79.505,319.761 80.042,319.962 80.633,320.119 81.213,320.253 81.855,320.373 82.529,320.458 83.231,320.517 84.01,320.525 
		84.817,320.501 85.687,320.46 85.846,320.218 85.687,320.46 85.928,320.441 85.846,320.218 85.479,320.332 	"></polygon>
	<polygon clip-path="url(#SVGID_2_)" fill-rule="evenodd" clip-rule="evenodd" fill="#FFFFFF" points="95.504,318.57 
		95.247,318.582 94.959,318.623 94.702,318.632 94.422,318.656 94.152,318.703 93.866,318.746 93.579,318.787 93.303,318.849 
		93.028,318.914 92.789,318.99 92.524,319.076 92.28,319.171 92.069,319.277 91.818,319.386 91.613,319.535 91.424,319.685 
		91.661,319.98 91.841,319.843 92.017,319.724 92.209,319.615 92.431,319.535 92.649,319.412 92.882,319.351 93.158,319.289 
		93.397,319.212 93.662,319.183 93.896,319.125 94.177,319.101 94.444,319.056 94.732,319.013 95.012,318.99 95.274,318.962 
		95.549,318.957 	"></polygon>
	<polygon clip-path="url(#SVGID_2_)" fill-rule="evenodd" clip-rule="evenodd" fill="#FFFFFF" points="130.64,315.945 
		95.504,318.57 95.548,318.957 130.68,316.351 	"></polygon>
	<polygon clip-path="url(#SVGID_2_)" fill-rule="evenodd" clip-rule="evenodd" fill="#FFFFFF" points="131.296,313.802 
		131.441,314.009 131.594,314.199 131.665,314.396 131.775,314.589 131.832,314.765 131.851,314.945 131.856,315.101 
		131.845,315.253 131.803,315.378 131.745,315.496 131.668,315.607 131.534,315.718 131.394,315.789 131.171,315.871 
		130.938,315.927 130.64,315.945 130.68,316.351 131.002,316.32 131.283,316.238 131.528,316.142 131.745,316.023 131.944,315.892 
		132.083,315.705 132.161,315.535 132.23,315.326 132.226,315.109 132.236,314.9 132.189,314.689 132.112,314.451 132.025,314.242 
		131.909,314.009 131.758,313.765 131.605,313.578 	"></polygon>
	<polygon clip-path="url(#SVGID_2_)" fill-rule="evenodd" clip-rule="evenodd" fill="#FFFFFF" points="127.107,311.804 
		127.423,311.792 127.745,311.822 128.072,311.892 128.386,311.939 128.688,312.039 128.986,312.138 129.271,312.273 
		129.541,312.402 129.821,312.552 130.078,312.716 130.354,312.888 130.553,313.05 130.762,313.238 130.968,313.443 
		131.137,313.634 131.296,313.802 131.605,313.578 131.424,313.361 131.219,313.158 131.014,312.949 130.787,312.757 
		130.535,312.578 130.285,312.398 130.027,312.23 129.734,312.054 129.431,311.916 129.118,311.792 128.804,311.687 
		128.472,311.576 128.143,311.503 127.809,311.453 127.427,311.423 127.096,311.425 	"></polygon>
	<polygon clip-path="url(#SVGID_2_)" fill-rule="evenodd" clip-rule="evenodd" fill="#FFFFFF" points="96.02,312.875 
		127.107,311.804 127.098,311.425 96.025,312.505 	"></polygon>
	<polygon clip-path="url(#SVGID_2_)" fill-rule="evenodd" clip-rule="evenodd" fill="#FFFFFF" points="91.112,312.093 
		91.404,312.212 91.714,312.275 92.013,312.375 92.323,312.439 92.649,312.511 92.954,312.593 93.286,312.644 93.585,312.687 
		93.897,312.751 94.217,312.779 94.532,312.826 94.844,312.83 95.142,312.873 95.458,312.861 95.744,312.88 96.02,312.875 
		96.025,312.505 95.731,312.505 95.445,312.488 95.177,312.476 94.872,312.455 94.568,312.429 94.265,312.406 93.965,312.365 
		93.652,312.318 93.34,312.253 93.042,312.212 92.739,312.132 92.423,312.083 92.119,312 91.795,311.914 91.526,311.843 
		91.229,311.744 91.107,312.111 	"></polygon>
	<polygon clip-path="url(#SVGID_2_)" fill-rule="evenodd" clip-rule="evenodd" fill="#FFFFFF" points="80.625,309.22 
		81.157,309.144 81.66,309.097 82.14,309.06 82.578,309.031 82.994,309.015 83.368,309.062 83.754,309.074 84.076,309.103 
		84.41,309.154 84.72,309.222 85.011,309.279 85.276,309.367 85.556,309.46 85.778,309.554 86.053,309.664 86.269,309.775 
		86.52,309.902 86.772,310.021 87.019,310.164 87.264,310.304 87.51,310.443 87.767,310.609 88.019,310.73 88.292,310.9 
		88.597,311.041 88.889,311.216 89.218,311.345 89.533,311.509 89.889,311.666 90.275,311.796 90.687,311.97 91.107,312.111 
		91.229,311.744 90.808,311.603 90.394,311.445 90.045,311.308 89.684,311.169 89.352,311 89.064,310.865 88.772,310.689 
		88.486,310.554 88.206,310.404 87.942,310.257 87.697,310.117 87.44,309.951 87.193,309.812 86.942,309.689 86.69,309.566 
		86.461,309.431 86.211,309.308 85.936,309.197 85.678,309.093 85.396,309 85.101,308.898 84.789,308.835 84.476,308.787 
		84.127,308.712 83.772,308.669 83.404,308.666 82.974,308.66 82.567,308.658 82.092,308.675 81.612,308.71 81.104,308.773 
		80.578,308.833 80.606,309.21 	"></polygon>
	<polygon clip-path="url(#SVGID_2_)" fill-rule="evenodd" clip-rule="evenodd" fill="#FFFFFF" points="74.887,311.751 
		75.19,311.539 75.53,311.339 75.869,311.142 76.213,310.925 76.531,310.74 76.888,310.544 77.221,310.363 77.564,310.207 
		77.935,310.037 78.302,309.867 78.665,309.716 79.039,309.587 79.444,309.488 79.812,309.376 80.215,309.279 80.608,309.21 
		80.578,308.833 80.139,308.919 79.724,308.998 79.314,309.111 78.927,309.218 78.543,309.38 78.144,309.521 77.784,309.675 
		77.413,309.843 77.04,310.031 76.683,310.224 76.348,310.404 76.009,310.603 75.669,310.802 75.331,311 75.01,311.205 
		74.688,311.41 74.868,311.744 	"></polygon>
	<polygon clip-path="url(#SVGID_2_)" fill-rule="evenodd" clip-rule="evenodd" fill="#FFFFFF" points="74.815,312.544 
		75.014,312.708 74.956,312.533 74.921,312.345 74.875,312.193 74.833,312.025 74.81,311.917 74.791,311.853 74.822,311.767 
		74.868,311.744 74.688,311.41 74.518,311.566 74.43,311.773 74.406,311.96 74.465,312.134 74.505,312.304 74.553,312.457 
		74.6,312.607 74.627,312.755 74.81,312.912 74.627,312.755 74.634,312.912 74.81,312.912 	"></polygon>
	<polygon clip-path="url(#SVGID_2_)" fill="#FFFFFF" points="89.176,313.925 89.171,313.943 89.168,313.941 	"></polygon>
	<polygon clip-path="url(#SVGID_2_)" fill="#FFFFFF" points="89.087,314.011 89.169,313.941 89.123,314.14 	"></polygon>
	<polygon clip-path="url(#SVGID_2_)" fill="#FFFFFF" points="94.322,316.246 100.731,318.384 100.037,318.425 100.032,318.441 
		94.465,316.585 	"></polygon>
	<path clip-path="url(#SVGID_2_)" fill="#FFFFFF" d="M74.81,312.91l8.142-0.264l0.171,0.018l0.156,0.053l0.213,0.068l0.191,0.066
		l0.175,0.119l0.128,0.08l0.076,0.123l0.06,0.059l3.238,9.754l0.048,0.152l0.158-0.006l0.164-0.021l0.187,0.021l0.229,0.02
		l0.214-0.006l0.211,0.012l0.194-0.053l0.215-0.062l0.176-0.117l0.211-0.225l0.176-0.232l0.164-0.199l0.164-0.197l0.141-0.189
		l0.134-0.17l0.116-0.172l0.142-0.189l0.117-0.174l0.134-0.17l0.136-0.172l0.145-0.145l0.153-0.164l0.176-0.176l0.176-0.176
		l0.221-0.195l-0.119-0.15l0.176-0.145l0.202-0.127l0.229-0.102l0.209-0.105l0.227-0.098l0.257-0.07l0.265-0.09l0.257-0.068
		l0.247-0.035l0.269-0.049l0.286-0.039l0.27-0.045l0.28-0.025l0.281-0.023l0.262-0.029l0.258-0.01l4.517-0.328l-5.565-1.855
		l-0.145-0.34l6.409,2.139l29.937-2.234l0.558-0.088l0.417-0.191l0.285-0.275l0.103-0.316v-0.35l0.008-0.02l-0.101-0.402
		l-0.198-0.398l-0.288-0.428l-0.169-0.191l-0.185-0.199l-0.207-0.203l-0.214-0.172l-0.23-0.193l-0.256-0.162l-0.273-0.17
		l-0.276-0.172l-0.293-0.117l-0.288-0.133l-0.314-0.105l-0.334-0.111l-0.313-0.045l-0.331-0.072l-0.341-0.035l-0.329,0.006
		l-4.523,0.168l-26.55,0.908h-0.293l-0.273,0.004l-0.311-0.004l-0.296-0.041l-0.306-0.023l-0.303-0.023l-0.298-0.043l-0.318-0.047
		l-0.315-0.045l-0.31-0.064l-0.31-0.066l-0.31-0.064l-0.321-0.086l-0.303-0.084l-0.289-0.076l-0.298-0.098l-0.422-0.143
		l-0.413-0.158l-0.363-0.139l-0.361-0.141l-0.318-0.164l-0.303-0.139l-0.315-0.168l-0.289-0.133l-0.274-0.168l-0.245-0.143
		l-0.265-0.145l-0.244-0.141l-0.264-0.145l-0.243-0.143l-0.236-0.117l-0.246-0.141l-0.25-0.123l-0.259-0.105l-0.244-0.082
		l-0.28-0.094l-0.299-0.098l-0.286-0.078l-0.318-0.045l-0.333-0.053l-0.339-0.037l-0.38-0.029l-0.405-0.018l-0.412,0.018
		l-0.435,0.012l-0.484,0.051l-0.503,0.049l-0.549,0.068l-0.41,0.059l-0.404,0.1l-0.404,0.1l-0.374,0.129l-0.396,0.141l-0.38,0.145
		l-0.361,0.152l-0.369,0.168l-0.353,0.176l-0.356,0.195l5.681,1.895l-7.647,0.256L74.81,312.91z M126.879,313.074l0.035-0.223
		l0.078-0.17l0.139-0.129l0.21-0.105l0.247-0.033l0.133,0.004l0.155,0.012l0.143,0.029l0.148,0.029l0.176,0.061l0.157,0.053
		l0.169,0.074l0.182,0.1l0.151,0.07l0.158,0.111l0.142,0.105l0.152,0.129l0.159,0.109l0.108,0.135l0.137,0.123l0.111,0.135
		l0.203,0.264l0.104,0.27l0.053,0.135l0.031,0.088l-0.019,0.229l-0.042,0.18l-0.129,0.152l-0.185,0.094l-0.251,0.053l-0.142,0.012
		l-0.144-0.031l-0.171-0.016l-0.181-0.041l-0.157-0.053l-0.174-0.061l-0.188-0.078l-0.167-0.096l-0.167-0.076l-0.183-0.1
		l-0.159-0.109l-0.149-0.131l-0.142-0.105l-0.146-0.145l-0.128-0.141l-0.111-0.137l-0.18-0.275l-0.107-0.266l-0.029-0.09
		L126.879,313.074z M94.517,317.207L94.517,317.207l-0.125-0.1L94.517,317.207z M89.534,314.117l0.206-0.207l2.671-0.154
		l0.566,0.295l1.34,3.152l-0.208,0.266l-2.868,0.205l0.125,0.025l-0.096,0.154l-0.014,0.002l-0.637-0.367l-0.003-0.008l0.166-0.076
		L89.534,314.117z"></path>
	<polygon clip-path="url(#SVGID_2_)" fill-rule="evenodd" clip-rule="evenodd" points="125.069,315.101 124.908,315.007 
		124.878,314.861 125.112,314.802 125.159,314.955 125.019,314.849 	"></polygon>
	<polygon clip-path="url(#SVGID_2_)" fill-rule="evenodd" clip-rule="evenodd" points="125.389,314.914 125.354,314.962 
		125.294,315.019 125.223,315.054 125.154,315.089 125.071,315.101 125.019,314.849 125.054,314.861 125.106,314.82 125.17,314.802 
		125.178,314.787 125.165,314.82 125.381,314.931 	"></polygon>
	<polygon clip-path="url(#SVGID_2_)" fill-rule="evenodd" clip-rule="evenodd" points="124.726,313.447 124.746,313.451 
		124.856,313.587 125,313.734 125.142,313.896 125.275,314.078 125.387,314.271 125.45,314.49 125.453,314.722 125.381,314.931 
		125.165,314.82 125.211,314.679 125.202,314.541 125.159,314.371 125.054,314.22 124.937,314.044 124.812,313.902 124.663,313.757 
		124.551,313.623 124.567,313.626 	"></polygon>
	<polygon clip-path="url(#SVGID_2_)" fill-rule="evenodd" clip-rule="evenodd" points="122.575,312.826 122.556,312.818 
		122.868,312.826 123.16,312.826 123.434,312.876 123.698,312.908 123.965,312.978 124.218,313.101 124.48,313.248 124.726,313.447 
		124.569,313.626 124.33,313.468 124.1,313.333 123.885,313.224 123.65,313.164 123.393,313.119 123.129,313.087 122.86,313.078 
		122.585,313.083 122.593,313.066 122.549,312.837 	"></polygon>
	<polygon clip-path="url(#SVGID_2_)" fill-rule="evenodd" clip-rule="evenodd" points="99.751,314.023 99.85,313.957 
		122.551,312.837 122.593,313.066 99.885,314.203 99.985,314.138 	"></polygon>
	<polygon clip-path="url(#SVGID_2_)" fill-rule="evenodd" clip-rule="evenodd" points="99.212,314.816 98.965,314.734 
		98.985,314.564 99.031,314.425 99.101,314.273 99.194,314.167 99.316,314.091 99.474,314.027 99.651,313.97 99.851,313.957 
		99.885,314.203 99.696,314.238 99.528,314.281 99.446,314.289 99.363,314.361 99.324,314.425 99.26,314.501 99.224,314.607 
		99.231,314.763 98.985,314.681 	"></polygon>
	<polygon clip-path="url(#SVGID_2_)" points="124.927,314.722 124.863,314.621 124.78,314.515 124.715,314.416 124.626,314.326 
		124.543,314.224 124.456,314.136 124.377,314.031 124.142,313.855 123.901,313.697 123.661,313.599 123.41,313.533 
		123.149,313.503 122.872,313.453 122.604,313.439 122.311,313.439 99.604,314.58 99.791,314.224 99.863,314.214 99.885,314.203 
		122.592,313.066 122.972,313.095 123.288,313.083 123.587,313.125 123.859,313.177 124.113,313.3 124.339,313.433 124.551,313.623 
		124.791,313.896 125.002,314.142 125.154,314.386 125.229,314.568 125.229,314.685 125.178,314.787 125.032,314.873 
		125.011,314.878 125.002,314.843 	"></polygon>
	<path clip-path="url(#SVGID_2_)" d="M98.967,314.734l0.022,0.221l0.046,0.154l0.065,0.215l0.153,0.248l0.185,0.197l0.24,0.219
		l0.288,0.193l0.322,0.145l0.337,0.092l0.411,0.002l23.328-1.184l0.444-0.047l0.316-0.07l0.23-0.158l0.127-0.211l-0.005-0.215
		l-0.088-0.264l-0.169-0.252l-0.232-0.293l-0.241-0.275l-0.259-0.223l-0.272-0.168l-0.27-0.129l-0.293-0.059l-0.352-0.059h-0.35
		l-0.399,0.023l-22.699,1.119v0.006l-0.241,0.012l-0.244,0.094l-0.163,0.141l-0.112,0.158l-0.076,0.17L98.967,314.734z
		 M99.23,314.763l0.028-0.146l0.009-0.021l0.02-0.006h0.117l0.199-0.012l0.189-0.354l0.069-0.01l0.021-0.012l22.709-1.137
		l0.378,0.029l0.317-0.012l0.299,0.041l0.272,0.053l0.255,0.123l0.226,0.133l0.211,0.189l0.241,0.273l0.208,0.246l0.153,0.244
		l0.074,0.182v0.117l-0.05,0.102l-0.146,0.086l-0.02,0.006l-0.256,0.061l-0.386,0.045l-23.333,1.201l-0.017-0.004l-0.326-0.014
		l-0.323-0.088l-0.288-0.135l-0.244-0.141l-0.205-0.203l-0.146-0.207l-0.128-0.197l-0.101-0.168l-0.018-0.125L99.23,314.763z"></path>
</g>
</svg>