<svg xmlns="http://www.w3.org/2000/svg" viewBox="0 0 900 900" width="900" height="900"><g transform="translate(0, 0) scale(4.535718785435303)">
  <defs>
    <style>
      .cls-1, .cls-2, .cls-3, .cls-4, .cls-5, .cls-6, .cls-7 {
        fill: none;
      }

      .cls-8 {
        font-size: 4.648px;
      }

      .cls-8, .cls-9 {
        fill: #000100;
        font-family: Arial-Black, 'Arial Black';
        font-weight: 800;
      }

      .cls-10 {
        letter-spacing: .025em;
      }

      .cls-11 {
        letter-spacing: .05em;
      }

      .cls-12 {
        letter-spacing: -.043em;
      }

      .cls-13, .cls-14, .cls-15, .cls-16, .cls-17, .cls-18, .cls-19, .cls-20 {
        fill: #231f20;
      }

      .cls-13, .cls-15, .cls-16, .cls-17, .cls-18, .cls-19 {
        font-family: ArialMT, Arial;
      }

      .cls-21 {
        letter-spacing: .013em;
      }

      .cls-22 {
        letter-spacing: .016em;
      }

      .cls-23 {
        letter-spacing: -.017em;
      }

      .cls-24, .cls-25 {
        fill: #f7a31a;
      }

      .cls-26 {
        fill: #eb1d27;
      }

      .cls-27, .cls-28 {
        fill: #fff;
      }

      .cls-29 {
        fill: #cecfd0;
      }

      .cls-30, .cls-31 {
        fill: #4e494b;
      }

      .cls-32 {
        font-size: 4.196px;
      }

      .cls-33 {
        fill: #929497;
        font-size: 3.944px;
      }

      .cls-33, .cls-14, .cls-34, .cls-20, .cls-25, .cls-35, .cls-36 {
        font-family: Arial-BoldMT, Arial;
        font-weight: 700;
      }

      .cls-14 {
        font-size: 3.895px;
      }

      .cls-15 {
        letter-spacing: -.037em;
      }

      .cls-16 {
        letter-spacing: -.018em;
      }

      .cls-17 {
        letter-spacing: -.074em;
      }

      .cls-9 {
        font-size: 4.706px;
      }

      .cls-18 {
        letter-spacing: -.074em;
      }

      .cls-37 {
        letter-spacing: -.037em;
      }

      .cls-34 {
        fill: #ea1c24;
      }

      .cls-38 {
        letter-spacing: -.026em;
      }

      .cls-39 {
        letter-spacing: -.055em;
      }

      .cls-2 {
        stroke-dasharray: 0 0 4.463 4.463;
      }

      .cls-2, .cls-3, .cls-5 {
        stroke: #2da6de;
      }

      .cls-19 {
        letter-spacing: 0em;
      }

      .cls-3 {
        stroke-dasharray: 0 5;
      }

      .cls-20 {
        font-size: 3.75px;
      }

      .cls-4 {
        stroke: #f7a31a;
        stroke-miterlimit: 10;
      }

      .cls-40 {
        letter-spacing: -.005em;
      }

      .cls-41 {
        opacity: .5;
      }

      .cls-25, .cls-35, .cls-36 {
        font-size: 3.943px;
      }

      .cls-35 {
        fill: #2ba6de;
      }

      .cls-36 {
        fill: #ec1e28;
      }

      .cls-31, .cls-42, .cls-28, .cls-43 {
        fill-rule: evenodd;
      }

      .cls-42 {
        fill: #b5d133;
      }

      .cls-6 {
        stroke: #929497;
      }

      .cls-7 {
        stroke: red;
      }
    </style>
  </defs>
  <g id="Layer_1" data-name="Layer 1">
    <path id="Bleed_Zone" data-name="Bleed Zone" class="cls-41" d="m0,0v216h216V0H0Zm207.213,198.709c0,4.677-3.827,8.504-8.504,8.504H17.292c-4.677,0-8.504-3.827-8.504-8.504V17.291c0-4.677,3.827-8.504,8.504-8.504h181.417c4.677,0,8.504,3.827,8.504,8.504v181.417Z"/>
    <rect id="Safe_Zone" data-name="Safe Zone" class="cls-3" x="17.788" y="17.787" width="180.425" height="180.425" rx="8.504" ry="8.504"/>
    <rect id="clipping" data-name="Trim Line" class="cls-7" x="8.788" y="8.787" width="198.425" height="198.425" rx="8.504" ry="8.504"/>
  </g>
  <g id="Text">
    <g id="Info">
      <g>
        <g>
          
          
          <path class="cls-26" d="m144.805,173.149v-1.026c.146-.471.531-.873,1.035-.926.862-.146.291,2.067,1.036,1.768,1.378-1.074,2.419-2.61,3.867-3.564h.268c.364.578-.011,1.26-.476,1.67-.58.624-1.177,1.231-1.752,1.86-.636.571-2.001,2.322-2.815,2.293-1.089-.259-1.033-1.177-1.164-2.075Z"/>
        </g>
        <g>
          
          <path class="cls-26" d="m146.342,30.582v-1.039c.148-.477.537-.884,1.048-.938.873-.148.294,2.093,1.049,1.79,1.395-1.087,2.449-2.643,3.915-3.608h.271c.369.585-.012,1.276-.482,1.691-.587.631-1.192,1.246-1.773,1.883-.644.578-2.026,2.35-2.85,2.322-1.102-.263-1.046-1.192-1.178-2.1Z"/>
          <g>
            <line class="cls-5" x1="197.943" y1="32.808" x2="195.443" y2="32.808"/>
            <line class="cls-2" x1="190.979" y1="32.808" x2="157.506" y2="32.808"/>
            <line class="cls-5" x1="155.274" y1="32.808" x2="152.774" y2="32.808"/>
          </g>
          
        </g>
        <g>
          
          
          <path class="cls-26" d="m141.253,127.52v-1.039c.148-.477.538-.884,1.048-.938.873-.148.294,2.093,1.049,1.79,1.395-1.087,2.449-2.643,3.915-3.608h.271c.369.585-.012,1.276-.482,1.691-.587.631-1.192,1.247-1.773,1.883-.644.578-2.026,2.351-2.85,2.322-1.102-.263-1.046-1.192-1.178-2.1Z"/>
          <line class="cls-4" x1="191.268" y1="129.746" x2="147.745" y2="129.746"/>
          <rect class="cls-24" x="188.943" y="123.726" width="27" height="24.802"/>
        </g>
        <g>
          
          
          <path class="cls-26" d="m143.258,84.188v-1.039c.148-.477.538-.884,1.048-.938.873-.148.294,2.093,1.049,1.79,1.395-1.087,2.449-2.643,3.915-3.608h.271c.369.585-.012,1.276-.482,1.691-.587.631-1.192,1.247-1.773,1.883-.644.578-2.026,2.35-2.85,2.322-1.102-.263-1.046-1.192-1.178-2.1Z"/>
          <line class="cls-6" x1="215.943" y1="86.414" x2="149.751" y2="86.414"/>
        </g>
        <g>
          
          
          <path class="cls-26" d="m147.934,64.356v-1.039c.148-.477.538-.884,1.048-.938.873-.148.294,2.093,1.049,1.79,1.395-1.087,2.449-2.643,3.915-3.608h.271c.369.585-.012,1.276-.482,1.691-.587.631-1.192,1.246-1.773,1.883-.644.578-2.026,2.35-2.85,2.322-1.102-.263-1.046-1.192-1.178-2.1Z"/>
          <line class="cls-7" x1="206.943" y1="66.582" x2="154.366" y2="66.582"/>
        </g>
      </g>
      <g>
        <rect class="cls-29" x="26.788" y="121.194" width="61.542" height="68.019"/>
        
        <path class="cls-43" d="m77.929,144.672c0,10.726-8.692,19.42-19.414,19.42s-19.414-8.695-19.414-19.42,8.692-19.421,19.414-19.421,19.414,8.696,19.414,19.421Z"/>
        <path class="cls-42" d="m76.178,144.78c0,9.75-7.902,17.655-17.649,17.655s-17.65-7.904-17.65-17.655,7.902-17.655,17.65-17.655,17.649,7.904,17.649,17.655Z"/>
        <g>
          <path d="m54.749,140.929c-.245,2.164-.427,3.902-.548,5.215l-.805.035c.012-.043.018-.093.019-.147.001-.098-.034-.228-.108-.388-.074-.159-.116-.261-.127-.305-.208.028-.408.174-.598.432-.19.259-.363.388-.515.387-.088-.002-.186-.027-.295-.072-.144.096-.33.136-.56.122-.207-.036-.409-.067-.606-.093-.007-.273-.276-.514-.808-.72.002-.109-.053-.272-.165-.487-.111-.216-.166-.367-.165-.454.001-.099.041-.18.119-.245-.011-.033-.101-.237-.268-.612-.117-.275-.172-.513-.169-.709.003-.153.038-.296.106-.425-.094-.933-.135-1.731-.124-2.4.017-1.029.165-1.973.442-2.834-.019-.132-.028-.263-.026-.395.011-.689.25-1.167.713-1.433l.004-.214c.459-.583,1.062-1.006,1.811-1.267.447.106.894.208,1.341.302.501.173.846.469,1.036.888.152.091.226.272.22.545-.005.307.03.505.105.593l-.084.097c.088.647.13,1.042.128,1.185-.008.415-.117.71-.327.88-.077,0-.277-.069-.603-.207-.078.075-.161.112-.249.111-.043,0-.123-.024-.237-.07-.114-.046-.21-.069-.286-.071-.056,0-.11.009-.165.03-.007-.864.021-1.511.082-1.936-.087-.056-.174-.185-.264-.382-.09-.198-.206-.31-.347-.334-.088.108-.129.179-.118.211l-.294-.103c-.268.291-.446.797-.534,1.518-.091.831-.204,1.382-.34,1.653.118.123.175.294.171.512-.001.077-.014.203-.039.377-.025.175-.037.306-.039.395-.002.098.007.186.028.263l-.2.193c.081.374.129.846.14,1.416-.007.482-.011.963-.007,1.445-.011,0-.105.004-.28.012-.109-.002-.187.035-.232.111.066-.009.127-.014.181-.014.241.004.429.174.567.511.136.337.254.506.352.508.109.001.259-.1.449-.305.322-.345.49-.819.5-1.42.005-.295-.029-.613-.099-.954-.077.043-.118.151-.12.326-.175-.004-.285.033-.33.109-.076-.024-.109-.084-.096-.183.014-.142.02-.218.021-.229.132-.042.198-.102.2-.178,0-.033-.024-.093-.071-.182-.047-.088-.071-.16-.069-.215,0-.044.011-.087.034-.131l.076-.639c.24.07.759.1,1.559.092-.023.055.009.127.095.215.078-.076.161-.113.249-.111.065.002.163.031.293.088.131.057.223.085.278.086Z"/>
          <path d="m60.876,146.586c-.152-.069-.315-.104-.49-.107-.154-.002-.362.027-.626.088-.296.06-.5.095-.609.105-.117-.232-.198-.552-.246-.958-.089-.592-.144-.927-.164-1.004.034-.066.052-.12.052-.164.002-.12-.092-.229-.281-.324-.191-.097-.285-.172-.284-.228.001-.064.112-.163.334-.29-.054-.066-.094-.201-.117-.404-.024-.203-.074-.338-.148-.406-.133.119-.351.195-.653.227-.301.034-.502.082-.602.146.008.854-.133,1.426-.423,1.717-.153-.035-.269.023-.348.176-.113.184-.208.292-.285.323l.097.117c-.088.075-.232.106-.427.091-.308-.017-.471-.024-.493-.024l-.094-.297,1.07-8.867c.009-.558.038-.936.085-1.132-.014-.493.101-.797.344-.913.151.1.343.153.573.157.186.003.476-.036.872-.117.396-.08.67-.12.823-.117.536.009.77.396.703,1.162-.055.612.041,1.419.287,2.419.255,1.077.379,1.883.369,2.42-.002.165.051.503.038.668-.232.127-.529.204-.89.231-.317.016-.641.033-.969.049-.085-.832-.231-1.837-.316-2.66-.103-.987-.232-1.8-.385-2.437l-.507,4.689c-.039.404.143.61.548.617.131.002.257-.029.379-.092.099-.032.235.042.407.22-.006.339.062.543.203.612.177-.119.409-.229.695-.334.254-.094.501-.183.744-.267.139.19.228.47.265.843.046.526.078.833.099.921.018.208.104.659.256,1.352.112.549.164.993.158,1.333-.003.165-.017.317-.041.46Z"/>
          <path d="m68.436,138.764c-.013.033-.015.224-.011.575-.004.284-.041.497-.109.639-.081.217-.124.528-.13.934-.002.088.001.224.009.411-.004.186-.006.323-.007.41-.012.69-.13,1.191-.355,1.505.019.176.027.351.024.526-.009.547-.197,1.283-.562,2.207-.099.032-.182.047-.247.046-.131-.003-.226-.078-.283-.226-.058-.15-.113-.29-.165-.423.035-.842.018-2.068-.053-3.679l.1-.096c-.072-.286-.105-.604-.099-.954.005-.252.036-.619.093-1.099.057-.481.088-.841.092-1.083.002-.153,0-.301-.008-.443-.377.903-.644,2.431-.801,4.586l-.136.326c-.046.109-.14.168-.282.176-.043-.076-.086-.116-.13-.117-.033,0-.091.039-.174.12-.084.08-.153.114-.207.103l-.217.193c.097.122.304.136.624.044.253-.072.382.023.389.285.006.219-.053.514-.18.884-.127.37-.191.649-.195.835-.002.131.012.263.043.394l-1.136.178c-.105-.221-.184-.591-.236-1.113-.051-.521-.13-.892-.235-1.113.067-.075.101-.156.103-.245,0-.076-.029-.192-.093-.346-.063-.154-.099-.27-.109-.346-.009-.121-.048-.412-.117-.873-.048-.373-.071-.664-.067-.872.002-.109.01-.208.022-.296.001-.076-.041-.189-.126-.339-.084-.149-.126-.257-.125-.323.001-.054.023-.103.068-.145-.075-.09-.105-.244-.091-.463.015-.218-.016-.372-.091-.461-.16.424-.246.997-.258,1.72-.006,1.006-.017,1.588-.03,1.74l.113.101-.116.097c.081.395.116.9.106,1.513-.03,1.105-.045,1.62-.043,1.543-.156.139-.37.207-.643.202-.34-.006-.57.024-.691.087-.139-.243-.205-.556-.198-.939.005-.295.055-.655.15-1.082-.148-.276-.218-.661-.21-1.153.002-.121.016-.35.044-.689.016-.273.02-.475.012-.607.11-.053.165-.112.166-.178,0-.044-.034-.119-.103-.224-.069-.105-.103-.185-.103-.239.001-.065.047-.131.135-.195l-.353-5.31c.21-.139.551-.205,1.022-.197.514.02.864-.007,1.052-.08.034-.022.072-.032.115-.031.044,0,.095.027.154.076.06.05.1.076.122.077.044.001.083-.032.117-.097l.306.3c.103.386.2,1.132.291,2.239.093.954.239,1.675.439,2.159.268-.969.489-1.782.666-2.436l.356-2.599,2.545-.056c.009.143.04.905.109,1.343.058.384.087.696.083.937-.004.274-.048.52-.129.737.087.122.128.276.124.462-.003.187-.049.338-.139.458Z"/>
          <path d="m73.657,144.52v-.017c-.067.141-.109.306-.123.49-.013.12-.015.29-.009.51.007.252.009.428.008.525-.087,0-.438-.007-1.051-.017-.372-.006-.707.026-1.004.097l-.305-.333c-.09.085-.124.156-.103.212-.054-.013-.306-.016-.754-.014-.351-.005-.613-.043-.786-.112-.179.184-.387.18-.624-.01-.086-.067-.095-.18-.027-.338.067-.158.048-.276-.059-.354.016-.35.064-.891.142-1.624.077-.655.118-1.17.125-1.542.008-.502-.027-.985-.107-1.446.123-.118.26-.177.413-.174.176.003.382.089.62.257.334.235.508.354.519.354l.096.117c.011-.032.069-.207.172-.523.059-.207.143-.342.254-.407l.097.101c.044-.021.188-.123.432-.305.188-.127.342-.432.451-.43.12.002.234.069.342.202.184.102.3.495.357.699.056.203.111.403.162.602-.493.014-.898,0-1.214-.037-.079.119-.189.135-.329.052-.141-.085-.244-.073-.313.035-.003.198-.01.553-.018,1.067-.019.46-.025.821-.017,1.084.003.405.03.778.079,1.119.088,0,.503.008,1.246.021.515.008.958.054,1.328.138Zm.035-7.867c-.098.009-.208.013-.328.011-.252-.004-.585-.043-.999-.116-.515-.074-.825-.118-.935-.13-.157.227-.239.549-.247.965-.014.898-.016,1.286-.003,1.166.151.09.225.256.222.496-.016.328-.02.498-.009.509-.077.031-.117.14-.12.326-.12-.046-.244-.135-.372-.268-.173-.168-.265.399-.251.258l-.104.337-.097-.101c-.088.009-.238-.037-.449-.139-.212-.102-.361-.197-.447-.287.003-.175.032-.274.087-.295l-.209-.232-.101.146c-.123-1.141-.093-3.274.058-4.476.416.073.874.119,1.378.139.338.016.814.024,1.427.024.702.001,1.206.004,1.511.009.128.123.192.283.188.479-.002.121-.036.314-.1.581-.064.268-.098.466-.101.598Z"/>
        </g>
        <g>
          <path d="m55.244,154.449v-.008c0,.006-.029.246-.086.723-.027.294-.098.524-.211.692l-.072-.058c-.134.278-.314.448-.544.509-.109.115-.268.179-.474.191-.123.008-.406-.028-.851-.106-.215-.133-.332-.207-.352-.222-.136-.102-.2-.204-.193-.309-.131-.133-.314-.371-.383-.669-.084-.329-.134-.347-.212-.463-.124.091-.169-.103-.24-.218l.065-.051c-.041-.029-.062-.061-.064-.099-.001-.026.01-.064.032-.115.024-.05.034-.09.032-.115-.002-.041-.027-.077-.073-.106.049-.258.095-.646.136-1.164.088-.047.13-.139.125-.274-.005-.134.014-.224.056-.268.209-.419.549-.701,1.019-.849.027.005.153.001.379-.005.155-.005.272.01.351.042.141-.024.282.009.423.1.123.092.244.184.367.275.227.248.35.527.368.839.006.103-.001.213-.02.328-.169-.005-.288.105-.359.334l-.656.061c-.071-.1-.111-.233-.121-.4-.003-.056-.003-.14,0-.249.004-.11.004-.193,0-.25-.011-.171-.051-.307-.121-.406l-.197.112c-.08-.032-.121-.079-.125-.141-.001-.021.002-.051.01-.09.007-.04.011-.067.01-.083-.005-.067-.065-.109-.182-.123-.081.739-.104,1.498-.072,2.278.021.025.083.043.187.052.084.011.129.037.13.078.001.016-.004.037-.016.063l-.065.05c.035.056.056.133.062.231.002.052,0,.132-.006.238-.006.108-.008.187-.005.238.01.156.048.274.118.353-.007.115.04.192.139.234.063-.025.121-.038.173-.042.2-.011.339.097.417.328,0,.005-.001.044-.003.117.003.042.023.068.063.082.087-.052.131-.146.129-.281-.002-.156.018-.256.06-.301-.011-.071-.054-.176-.13-.312s-.116-.243-.121-.321c-.004-.082.02-.162.074-.238-.046-.013-.067-.044-.063-.09.003-.073.003-.112.003-.118.357-.088.719-.09,1.087-.008Z"/>
          <path d="m58.214,155.058h-.008c-.039.075-.05.183-.036.322.018.198.028.298.028.304-.03.012-.07-.003-.121-.044-.076.029-.113.077-.109.144,0,.01.005.026.012.051.002.028.003.048.003.058.004.053-.013.093-.046.119-.087-.048-.202-.078-.344-.092-.143-.015-.278-.027-.405-.039-.001-.659-.091-1.303-.265-1.932,0,.004-.004-.06-.012-.196.001-.096-.021-.165-.065-.206l-.06.054c-.001-.01.019-.028.06-.058.041-.029.06-.059.059-.087-.001-.014-.005-.029-.012-.043l-.066-.047c-.112.036-.164.126-.156.271.005.097-.032.165-.115.204.031.022.048.049.05.084.001.019-.002.046-.009.08-.007.035-.009.061-.008.081.003.043.025.078.069.105.002.029.017.289.045.783.019.314.01.58-.025.8l.007.123c-.042-.002-.091-.002-.144.002-.061.004-.147.013-.26.026-.115.014-.198.023-.252.025-.222.013-.377-.025-.467-.111l-.093-2.705c-.044-.133-.073-.318-.087-.555l-.03-.521c-.021-.256-.054-.453-.098-.59.018-.094.1-.144.244-.152.09-.005.211.006.363.037.07-.034.169-.053.295-.061.035-.002.093-.003.171-.002.084-.005.145-.008.18-.011.234-.015.389-.086.466-.217.108,0,.226.034.353.104.127.07.239.107.336.111.254.15.392.398.413.746.004.078-.025.384-.091.921l-.438.381c.074.137.163.434.269.893.088.383.221.663.401.841Zm-.81-3.077l.008.006c.008.033.004-.085-.011-.356-.008-.13-.055-.225-.142-.283-.05.071.006.104-.017.268-.024.164-.12.117-.177.189-.151-.002-.185.09-.217-.054-.067-.234-.126-.213-.126-.217l-.063.039c-.023.021-.049.045-.078.07-.028.026-.058.035-.088.026.002.03-.013.075-.041.137-.03.063-.044.106-.043.13.003.044.037.076.105.096-.013.097-.016.2-.01.306.003.058.017.191.041.397.027.164.039.304.032.419.056.002.106.002.155,0,.21-.011.346-.095.409-.249.021-.045.045-.206.072-.484.023-.209.088-.356.191-.439Z"/>
          <path d="m61.622,156.108c-.086-.024-.177-.034-.273-.028-.083.005-.197.026-.339.064-.16.038-.271.061-.33.07-.073-.098-.128-.234-.169-.413-.069-.257-.11-.402-.123-.436.016-.029.023-.054.022-.074-.003-.053-.058-.097-.166-.132-.108-.035-.162-.065-.163-.089-.001-.029.055-.076.172-.141-.032-.027-.058-.085-.078-.174-.021-.088-.052-.145-.096-.172-.069.058-.186.1-.35.126-.164.026-.272.055-.325.088.034.376,0,1.036-.148,1.175-.085-.01-.146.02-.184.09-.055.086-.103.138-.144.154l.057.047c-.046.037-.123.056-.231.057-.169.005-.258.007-.27.008l-.062-.128.253-4.349c-.014-.247-.012-.413.007-.502-.025-.217.028-.355.156-.417.087.039.193.054.319.047.102-.007.26-.034.473-.085.213-.051.363-.079.447-.085.294-.017.436.144.425.484-.008.273.073.624.242,1.055.176.464.273.815.286,1.051.004.073.1.225.099.298-.123.065-.283.112-.48.137-.174.02-.349.04-.529.06-.075-.364-.246-.806-.32-1.165-.091-.432-.19-.783-.296-1.059l-.114,2.086c-.008.179.099.262.321.249.072-.003.141-.023.205-.055.053-.018.13.009.23.081.009.151.053.237.133.261.093-.059.215-.116.369-.174.135-.051.269-.101.399-.147.082.077.14.198.175.361.043.229.072.363.087.401.017.091.079.286.187.585.081.237.125.431.133.581.004.072.002.14-.006.204Z"/>
          <path d="m64.107,151.175h.01c-.072.106-.164.125-.277.06-.024-.003-.132.003-.324.018-.161.009-.279.002-.353-.023-.018.002-.054.019-.106.053-.052.035-.09.053-.114.055-.036.002-.056-.028-.06-.091,0-.01-.003-.051-.007-.123-.003-.05-.027-.082-.069-.099l-.113.086c-.035.027-.051.055-.049.083.001.024.021.058.06.101.038.044.061.075.068.095.001.014.014.232.038.652.01.266.058.478.146.638.022-.026.076-.04.164-.042.087-.002.145-.022.172-.057.057.05.152.053.285.009.133-.044.229-.029.287.045l-.017.64c-.054-.006-.134-.032-.239-.08-.031.094-.091.153-.179.178-.036.012-.138.022-.306.032.005-.03-.021-.059-.078-.09-.163.077-.225.262-.184.555.004-.029.01.022.018.152.005.082-.013.141-.053.178-.102.015-.231-.007-.388-.068-.157-.061-.269-.09-.334-.086-.03.002-.058.006-.08.012l-.169.054-.269-2.928-.032-.557c.224-.076.501-.124.831-.143.258-.014.596-.013,1.012.007.026-.056.076.017.135.013.031-.001.076.002.136.011.061.008.107.012.136.01.036-.003.069-.009.098-.021l.043-.046c.122.036.187.101.192.192.002.039-.009.105-.034.199-.025.093-.035.164-.033.212.003.044.015.082.034.114Zm-1.051,4.884c-.065.034-.164.053-.296.061-.174.01-.278.018-.315.025-.019-.019-.042-.003-.081-.156-.024-.1-.087-.148-.189-.142-.025.002-.054.006-.09.013l-.162.009-.087-1.482c.088-.043.198-.07.33-.077.126-.006.238.007.336.039-.003.053.073.076.229.067l.171-.01c.102.415.164,1.168.152,1.653Z"/>
          <path d="m67.707,151.302l.009.006c-.085-.005-.356.013-.566.04-.179.021-.314.024-.406.01-.087.058-.118.138-.094.238l.056.033c-.045.041-.062.073-.049.098l.048.048c-.011.858-.013,1.333-.007,1.425.013.227.04.426.079.598-.035.109-.049.233-.041.373.006.091.027.237.066.435.039.199.091.852.097.953.005.077.003.151-.006.219-.083.034-.172.053-.268.059-.162.01-.335-.024-.52-.101-.024.022-.049.043-.078.066-.028.024-.037.05-.023.078-.059.018-.142-.007-.248-.072-.056-.87-.212-2.64-.442-4.429-.08.073-.23.012-.385.031-.186.021-.367-.008-.438.025-.089-.097-.07-.125-.079-.284-.009-.154-.059-.536-.019-.695.008-.034.344-.015.542-.031.269-.016.33.048.347.046.022-.035.153-.016.25-.023.061.031.128-.028.131.016.002.029,0,.212-.02.264-.021.052-.031.09-.03.114.004.058.045-.027.143.006.108-.002.219-.005.333-.012.128.011.273-.035.262.073.022-.031.036.023.218-.05.135-.062.218-.22.191-.33-.015-.06.067-.098.016-.069.064-.036.006-.011.076-.039.225.02.349-.002.391-.006.091-.006.314.053.378.021.047.084.07.349.073.494.008.232.011.355.013.371Z"/>
          <path d="m70.622,154.324v-.007c-.033.065-.05.138-.051.221-.003.054.001.128.013.225.013.11.02.188.023.231-.048.002-.24.014-.577.033-.204.012-.385.04-.545.083l-.179-.136c-.046.042-.062.074-.05.098-.029-.003-.168.004-.413.024-.192.012-.337.005-.435-.019-.091.087-.205.094-.341.02-.05-.026-.058-.075-.026-.147.031-.073.017-.124-.046-.155-.003-.154.004-.394.022-.72.019-.292.024-.52.014-.684-.013-.222-.05-.433-.109-.633.063-.057.137-.088.22-.093.096-.006.212.024.35.089.191.09.29.136.296.136l.057.047c.006-.014.03-.094.077-.238.025-.093.066-.156.125-.189l.056.04c.024-.01.099-.06.226-.151.098-.064.166-.298.226-.301.066-.005.131.021.195.075.104.038.187.301.225.389.038.088.075.174.11.259-.27.026-.492.036-.666.031-.039.057-.099.068-.179.036-.08-.032-.137-.022-.17.029.006.086.015.243.028.471.006.203.015.361.028.478.017.179.044.341.082.49.048-.003.276-.017.684-.04.282-.016.526-.014.732.008Zm-.279-3.408c-.054.009-.113.014-.18.019-.137.007-.322.003-.551-.013-.283-.012-.456-.019-.516-.021-.077.106-.088.193-.077.376.022.396.036.567.038.514.086.034.133.104.139.21.002.145.007.219.013.224-.041.017-.06.067-.054.149-.067-.015-.139-.05-.214-.104-.101-.067-.132.17-.13.107l-.045.148-.057-.041c-.048.007-.13-.006-.25-.044-.12-.036-.205-.073-.255-.109-.004-.077.008-.121.037-.132l-.123-.095-.05.068c-.107-.498-.178-1.375-.137-1.91.229.016.497-.024.773-.035.186-.006.448-.021.783-.045.383-.027.658-.046.827-.055.075.049.116.117.12.203.003.055-.008.14-.034.261-.026.12-.061.268-.057.325Z"/>
          <path d="m73.616,153.809h-.009c-.038.076-.05.183-.036.323.017.198.026.299.026.304-.029.011-.069-.003-.12-.044-.077.028-.113.076-.109.144.001.01.005.027.012.051.001.029.003.048.003.057.003.054-.012.093-.047.119-.087-.048-.202-.079-.344-.092-.142-.014-.276-.027-.403-.039-.002-.658-.091-1.302-.266-1.932,0,.005-.004-.06-.011-.195,0-.096-.022-.165-.066-.207l-.06.054c0-.01.018-.028.06-.058.04-.029.06-.058.058-.087,0-.014-.005-.029-.011-.043l-.066-.047c-.113.036-.164.126-.156.271.006.096-.033.164-.114.202.03.023.048.052.05.085,0,.019-.003.046-.009.081-.007.034-.011.062-.009.081.002.044.025.079.07.105.001.029.016.29.045.782.018.315.01.582-.025.801l.007.123c-.042-.002-.09-.002-.144.001-.06.004-.146.012-.26.026-.113.013-.197.022-.251.026-.222.012-.378-.025-.467-.112l-.094-2.706c-.044-.133-.072-.318-.087-.554l-.03-.522c-.021-.255-.053-.453-.097-.59.019-.093.1-.143.243-.153.091-.005.211.008.364.037.07-.034.168-.053.294-.061.037-.001.093-.002.172-.002.084-.005.144-.008.18-.011.234-.013.389-.085.466-.215.108-.002.226.033.353.102.128.07.24.108.337.111.255.151.392.399.412.747.005.077-.025.385-.091.921l-.438.381c.075.136.163.434.269.893.088.382.222.663.401.841Zm-.811-3.077l.01.007c.008.033.005-.085-.011-.356-.007-.13-.055-.225-.143-.282-.05.07-.059-.094-.083.07-.024.165-.064.281-.119.353-.151-.001-.185-.091-.275-.216-.056-.079-.084-.01-.084-.015l-.041.033c-.022.021-.049.044-.078.07-.028.026-.058.035-.088.028.002.028-.012.074-.042.136-.029.062-.044.105-.042.129.002.043.038.075.105.096-.012.098-.015.2-.009.306.003.058.016.19.041.397.028.163.039.302.034.419.054.002.105.002.154-.001.21-.013.345-.096.409-.249.021-.046.045-.206.071-.484.024-.21.088-.356.191-.44Z"/>
        </g>
        <g>
          <path d="m43.775,141.332v.007c-.026.251-.036.425-.026.521-.038.014-.089.017-.15.007-.08-.014-.126-.02-.14-.019-.035.001-.062.013-.083.037-.05-.033-.084-.047-.101-.041-.048.029-.069.069-.067.122.002.022.009.06.026.113.015.055.024.095.024.12.002.035-.005.091-.02.166-.016.075-.023.137-.021.185.003.057.015.146.037.267.021.121.033.213.037.275-.025.12-.034.241-.028.363.006.149.048.348.122.598.014.004.027.005.04.004.03-.001.067-.023.109-.064.041-.042.077-.063.108-.064.022,0,.046.004.073.016.079.254.12.419.124.493.002.035.001.072-.001.112-.117.028-.2-.012-.249-.119.007-.031-.009-.063-.051-.096l-.131.138c.128.021.179.119.153.295-.011.036-.039.055-.082.057-.075,0-.11,0-.105,0l-.108-.191-.043.054c-.036-.09-.077-.134-.125-.132-.026.002-.073.023-.139.066-.065.042-.12.066-.163.067-.035.002-.071-.007-.107-.027-.003-.053-.008-.106-.018-.163-.009-.057-.039-.092-.087-.108-.002-.136.002-.492.011-1.072.004-.438,0-.793-.014-1.064-.005-.113-.013-.225-.023-.334-.023-.034-.046-.05-.068-.049-.018.001-.044.02-.079.057-.035.037-.067.053-.093.05-.002-.044-.021-.114-.059-.211-.038-.097-.058-.167-.06-.21-.004-.075.024-.14.082-.195l.153.039c.061-.087.087-.233.076-.438-.002-.039-.007-.101-.016-.187-.008-.085-.015-.147-.016-.186-.017-.336.085-.51.308-.521.083-.005.185.01.304.044l.147.039c.012.056.019.114.022.176.004.084,0,.205-.011.366-.011.16-.016.278-.012.351.006.119.026.226.062.32.036-.001.091-.02.165-.057.075-.037.13-.056.164-.058.061-.003.111.026.149.084Zm-.456.47l-.008-.15-.047-.044.055.194Z"/>
          <path d="m45.578,140.86h.006c-.015.119-.034.238-.054.358-.024.137-.062.244-.115.321-.009-.003-.062-.029-.161-.077-.068-.037-.128-.051-.181-.044-.039.256-.061.606-.065,1.049-.003.566-.008.908-.015,1.026-.066-.005-.115.016-.148.064-.033.048-.064.096-.092.145-.012.027-.017.052-.016.074.001.035.032.068.09.1.059.032.089.069.09.108-.025.093-.08.142-.163.146-.039.002-.107-.009-.206-.035-.097-.026-.166-.038-.206-.036l-.094-1.874c.037-.051.052-.084.048-.102l-.054-.037c.004-.078.01-.471.013-1.177.002-.477.02-.865.053-1.159-.005,0,.131-.009.406-.027.17-.009.28.039.329.141.001.096-.008.259-.027.488-.02.211-.027.374-.022.488.007.139.029.266.065.378.148-.201.321-.306.517-.316Zm.651.401c.013.175.024.344.032.511.037.726.025,1.502-.034,2.328-.063.056-.16.068-.291.038-.131-.03-.225-.018-.284.037-.075-.095-.119-.272-.132-.525-.019-.367-.029-.557-.029-.57-.016-.92.074-1.663.269-2.229.226.059.382.195.467.411Z"/>
          <path d="m48.53,142.214c-.029.058-.04.121-.037.186.003.066.006.129.01.192-.007.051-.021.104-.044.159-.041-.011-.074-.016-.099-.014-.031.001-.063.013-.094.035-.032.021-.057.032-.074.033-.027.002-.062-.008-.107-.027l-.305-.445c.011.131.041.246.09.344.024.051.049.103.074.154-.178.031-.279.036-.302.015l-.042.055-.106-.14c-.083.102-.102.248-.057.444.055.212.057.364.01.459.066.098.145.144.237.139.04-.002.073-.017.103-.044.043-.108.086-.215.129-.323.063-.13.134-.197.212-.201.062-.003.134.029.215.094.098.034.149.081.151.136.002.036-.021.093-.067.171-.046.08-.068.141-.066.185.001.017.003.033.008.046-.063.047-.12.118-.169.213-.05.094-.116.159-.198.194-.07.069-.136.105-.197.109-.048.002-.12-.034-.216-.111-.095-.076-.185-.112-.268-.108-.035-.077-.119-.162-.256-.257-.136-.094-.22-.195-.252-.303,0,.008-.002-.026-.005-.105-.003-.044-.021-.071-.057-.082l.05-.049c-.066,0-.1-.038-.104-.114-.001-.008-.002-.026-.003-.052.003-.022.004-.039.004-.052-.003-.053-.02-.089-.051-.11l-.012-.229c-.006-.119-.03-.203-.072-.253.043-.278.086-.556.129-.834.072-.324.177-.489.317-.497.022,0,.043.004.066.01.125-.125.278-.192.457-.201.196-.009.414.05.653.179.187.305.302.639.347,1.001Zm-.904-.724l-.043.055c-.031.006-.067-.01-.108-.047l.007.151c-.066.073-.093.187-.081.34.013.262.019.388.019.381l.197-.004c.094-.053.137-.14.131-.262-.002-.061-.023-.162-.064-.302-.039-.14-.058-.244-.057-.31Z"/>
        </g>
        <g>
          <polygon class="cls-43" points="50.069 148.829 50.264 148.941 50.927 147.202 50.706 147.129 50.044 148.867 50.236 148.99 50.069 148.829 50.069 148.829 50.069 148.829"/>
          <polygon class="cls-43" points="50.359 148.588 50.279 148.62 50.069 148.829 50.236 148.99 50.45 148.769 50.366 148.812 50.359 148.588 50.359 148.588 50.359 148.588"/>
          <polygon class="cls-43" points="51.962 148.574 52.057 148.501 50.359 148.588 50.366 148.812 52.064 148.725 52.172 148.645 51.962 148.574 51.962 148.574 51.962 148.574 51.962 148.574"/>
          <polygon class="cls-43" points="52.729 146.975 52.613 146.831 51.962 148.574 52.172 148.645 52.834 146.905 52.719 146.762 52.729 146.975 52.729 146.975 52.729 146.975 52.729 146.975"/>
          <polygon class="cls-43" points="51.112 147.031 51.028 147.072 52.729 146.975 52.719 146.762 51.025 146.838 50.94 146.88 51.112 147.031 51.112 147.031 51.112 147.031 51.112 147.031"/>
          <polygon class="cls-43" points="50.927 147.202 50.903 147.24 51.112 147.031 50.94 146.88 50.731 147.09 50.706 147.129 50.927 147.202 50.927 147.202 50.927 147.202 50.927 147.202"/>
          <polygon class="cls-43" points="52.337 148.781 52.487 148.714 52.123 148.512 52.007 148.718 52.383 148.925 52.546 148.851 52.326 148.778 52.326 148.778 52.337 148.781 52.337 148.781"/>
          <polygon class="cls-43" points="53.047 147.175 52.988 147.038 52.326 148.778 52.546 148.851 53.208 147.111 53.148 146.975 53.047 147.175 53.047 147.175 53.047 147.175"/>
          <polygon class="cls-43" points="52.834 146.905 52.67 146.979 53.047 147.175 53.148 146.975 52.785 146.773 52.613 146.831 52.834 146.905 52.834 146.905 52.834 146.905"/>
          <polygon points="50.821 147.167 50.811 147.164 51.021 146.953 52.597 146.877 52.613 146.831 52.729 146.87 52.834 146.905 52.827 146.924 53.104 147.077 53.208 147.111 53.165 147.225 53.936 149.058 53.284 150.8 52.441 148.816 52.441 148.816 52.333 148.861 52.326 148.778 52.334 148.757 52.068 148.61 52.007 148.718 51.975 148.614 50.359 148.693 50.149 148.903 50.821 147.167"/>
          <polygon class="cls-43" points="53.179 150.765 53.392 150.755 52.55 148.771 52.333 148.861 53.176 150.847 53.389 150.836 53.169 150.762 53.169 150.762 53.179 150.765 53.179 150.765"/>
          <polygon class="cls-43" points="53.838 149.108 53.831 149.023 53.169 150.762 53.389 150.836 54.051 149.097 54.045 149.012 53.838 149.108 53.838 149.108 53.838 149.108"/>
          <polygon class="cls-43" points="53.208 147.111 52.994 147.123 53.838 149.108 54.045 149.012 53.201 147.028 52.988 147.038 53.208 147.111 53.208 147.111 53.208 147.111"/>
          <polygon class="cls-28" points="53.152 147.56 53.246 147.767 53.282 147.977 53.271 148.183 53.211 148.396 53.106 148.606 52.963 148.792 52.777 148.963 52.553 149.111 52.431 149.163 52.308 149.215 52.172 149.239 52.046 149.267 51.923 149.284 51.79 149.299 51.668 149.281 51.542 149.273 51.433 149.25 51.318 149.211 51.206 149.163 51.108 149.106 51.024 149.043 50.93 148.976 50.853 148.892 50.789 148.801 50.695 148.595 50.66 148.385 50.661 148.175 50.731 147.965 50.821 147.762 50.968 147.566 51.154 147.394 51.388 147.251 51.501 147.196 51.634 147.146 51.759 147.117 51.885 147.09 52.018 147.076 52.141 147.059 52.264 147.076 52.389 147.084 52.504 147.122 52.621 147.16 52.725 147.196 52.834 147.255 52.921 147.308 53.012 147.385 53.075 147.476 53.152 147.56 53.152 147.56 53.152 147.56 53.152 147.56"/>
          <polygon class="cls-43" points="53.236 147.903 53.33 148.109 53.362 148.33 53.351 148.536 53.295 148.74 53.201 148.953 53.043 149.145 52.872 149.31 52.637 149.453 52.511 149.516 52.389 149.568 52.263 149.596 52.126 149.621 52.004 149.639 51.885 149.646 51.759 149.639 51.626 149.617 51.518 149.593 51.402 149.554 51.3 149.508 51.192 149.45 51.104 149.397 51.023 149.323 50.943 149.25 50.874 149.145 50.775 148.948 50.741 148.739 50.755 148.522 50.81 148.319 50.905 148.105 51.049 147.92 51.235 147.748 51.468 147.604 51.595 147.542 51.715 147.499 51.843 147.461 51.98 147.437 52.099 147.43 52.221 147.412 52.344 147.43 52.47 147.437 52.589 147.465 52.705 147.503 52.806 147.55 52.918 147.597 53.001 147.661 53.096 147.728 53.159 147.819 53.232 147.913 53.232 147.913 53.236 147.903 53.236 147.903"/>
          <polygon class="cls-28" points="53.295 148.144 53.394 148.341 53.425 148.561 53.414 148.767 53.358 148.97 53.253 149.18 53.106 149.376 52.935 149.54 52.7 149.685 52.584 149.75 52.452 149.8 52.325 149.828 52.189 149.852 52.067 149.869 51.947 149.876 51.822 149.869 51.689 149.848 51.58 149.824 51.465 149.785 51.363 149.74 51.254 149.68 51.168 149.627 51.076 149.55 51.01 149.47 50.936 149.376 50.838 149.179 50.803 148.969 50.814 148.763 50.874 148.549 50.968 148.336 51.115 148.14 51.307 147.983 51.532 147.836 51.658 147.773 51.78 147.72 51.907 147.692 52.043 147.667 52.166 147.651 52.284 147.643 52.42 147.654 52.533 147.667 52.652 147.696 52.767 147.734 52.879 147.784 52.977 147.84 53.065 147.892 53.159 147.959 53.222 148.05 53.295 148.144 53.295 148.144 53.295 148.144"/>
          <polygon class="cls-43" points="53.379 148.487 53.474 148.694 53.509 148.904 53.509 149.114 53.439 149.324 53.348 149.527 53.19 149.719 53.016 149.895 52.781 150.037 52.668 150.093 52.536 150.142 52.41 150.17 52.284 150.198 52.151 150.213 52.028 150.23 51.906 150.213 51.78 150.205 51.661 150.177 51.545 150.139 51.443 150.093 51.336 150.033 51.251 149.97 51.168 149.908 51.091 149.824 51.016 149.729 50.933 149.526 50.887 149.312 50.898 149.106 50.957 148.892 51.059 148.693 51.206 148.497 51.392 148.325 51.616 148.179 51.738 148.126 51.861 148.074 51.998 148.049 52.123 148.021 52.246 148.004 52.376 148 52.501 148.007 52.617 148.011 52.735 148.04 52.85 148.078 52.963 148.126 53.061 148.183 53.155 148.249 53.239 148.312 53.316 148.396 53.376 148.498 53.376 148.498 53.379 148.487 53.379 148.487"/>
          <polygon class="cls-28" points="53.502 148.715 53.6 148.911 53.635 149.121 53.632 149.342 53.575 149.544 53.47 149.754 53.312 149.947 53.141 150.111 52.917 150.259 52.791 150.322 52.658 150.37 52.533 150.399 52.406 150.426 52.273 150.44 52.154 150.447 52.028 150.44 51.906 150.423 51.787 150.395 51.671 150.356 51.569 150.311 51.467 150.265 51.373 150.198 51.293 150.125 51.217 150.04 51.153 149.95 51.055 149.753 51.013 149.53 51.023 149.323 51.091 149.124 51.185 148.91 51.332 148.714 51.514 148.552 51.738 148.406 51.864 148.344 51.987 148.291 52.119 148.276 52.249 148.238 52.372 148.221 52.501 148.218 52.627 148.225 52.74 148.239 52.858 148.266 52.984 148.309 53.085 148.354 53.186 148.4 53.282 148.467 53.362 148.54 53.439 148.623 53.502 148.715 53.502 148.715 53.502 148.715"/>
          <polygon class="cls-43" points="53.596 149.062 53.68 149.264 53.726 149.479 53.715 149.685 53.656 149.898 53.554 150.098 53.407 150.293 53.221 150.465 52.997 150.612 52.875 150.664 52.742 150.713 52.616 150.741 52.49 150.769 52.367 150.787 52.235 150.8 52.112 150.783 51.986 150.776 51.877 150.751 51.751 150.71 51.65 150.663 51.552 150.608 51.458 150.542 51.373 150.478 51.297 150.394 51.234 150.303 51.139 150.096 51.094 149.883 51.104 149.676 51.175 149.466 51.266 149.264 51.412 149.068 51.598 148.897 51.833 148.753 51.945 148.697 52.078 148.648 52.204 148.62 52.329 148.592 52.463 148.578 52.585 148.561 52.708 148.578 52.822 148.582 52.953 148.613 53.068 148.652 53.169 148.698 53.267 148.753 53.362 148.82 53.446 148.883 53.523 148.967 53.596 149.062 53.596 149.062 53.596 149.062 53.596 149.062"/>
          <polygon class="cls-43" points="42.026 146.391 42.037 146.324 41.372 148.073 41.581 148.144 42.247 146.393 42.25 146.348 42.026 146.391 42.026 146.391 42.026 146.391 42.026 146.391"/>
          <polygon class="cls-43" points="42.009 146.303 42.012 146.292 42.026 146.391 42.25 146.348 42.226 146.247 42.23 146.236 42.009 146.303 42.009 146.303 42.009 146.303 42.009 146.303"/>
          <polygon class="cls-43" points="41.985 146.201 42.009 146.303 42.23 146.236 42.204 146.135 41.985 146.201 41.985 146.201 41.985 146.201 41.985 146.201"/>
          <polygon class="cls-43" points="41.957 146.11 41.985 146.201 42.204 146.135 42.177 146.043 41.957 146.11 41.957 146.11 41.957 146.11"/>
          <polygon class="cls-43" points="41.932 146.009 41.932 146.009 41.957 146.11 42.177 146.043 42.153 145.941 42.149 145.952 41.932 146.009 41.932 146.009 41.932 146.009 41.932 146.009"/>
          <polygon class="cls-43" points="41.904 145.883 41.904 145.917 41.932 146.009 42.149 145.952 42.122 145.861 42.132 145.9 41.904 145.883 41.904 145.883 41.904 145.883"/>
          <polygon class="cls-43" points="42.129 145.841 41.908 145.802 41.904 145.883 42.132 145.9 42.135 145.819 41.915 145.781 42.124 145.851 42.124 145.851 42.129 145.841 42.129 145.841"/>
          <polygon class="cls-31" points="42.319 150.934 42.299 150.822 42.064 150.86 42.081 150.983 42.319 150.934 42.319 150.934 42.319 150.934 42.319 150.934"/>
          <polygon class="cls-43" points="42.807 149.475 42.813 149.418 42.152 151.158 42.361 151.227 43.023 149.488 43.02 149.428 42.807 149.475 42.807 149.475 42.807 149.475 42.807 149.475"/>
          <polygon class="cls-43" points="42.789 149.352 42.807 149.475 43.02 149.428 43.002 149.306 42.778 149.348 42.778 149.348 42.789 149.352 42.789 149.352"/>
          <polygon class="cls-43" points="42.757 149.236 42.778 149.348 43.002 149.306 42.971 149.191 42.757 149.236 42.757 149.236 42.757 149.236 42.757 149.236"/>
          <polygon class="cls-43" points="42.729 149.111 42.736 149.124 42.757 149.236 42.971 149.191 42.953 149.068 42.961 149.082 42.729 149.111 42.729 149.111 42.729 149.111 42.729 149.111"/>
          <polygon class="cls-43" points="42.939 149.005 42.716 148.977 42.729 149.111 42.961 149.082 42.943 148.96 42.719 148.932 42.939 149.005 42.939 149.005 42.939 149.005"/>
          <g>
            <polygon class="cls-30" points="41.373 147.726 41.267 147.759 41.373 147.726 41.373 147.726"/>
            <polygon class="cls-30" points="41.484 148.091 41.487 148.081 41.541 148.085 41.581 148.144 41.484 148.111 41.484 148.091"/>
            <polygon points="41.242 147.657 41.354 147.636 41.358 147.555 42.023 145.805 42.02 145.816 42.02 145.886 42.038 145.974 42.073 146.079 42.1 146.169 42.124 146.271 42.142 146.358 42.142 146.358 42.247 146.393 41.581 148.144 41.541 148.085 41.487 148.081 41.484 148.091 41.484 148.111 41.581 148.144 41.484 148.138 41.487 148.217 41.419 148.133 41.365 148.129 41.351 148.032 41.391 148.023 41.434 147.91 41.324 147.94 41.291 147.86 41.267 147.759 41.373 147.726 41.373 147.726 41.267 147.759 41.271 147.748 41.242 147.657"/>
          </g>
          <g>
            <polygon class="cls-1" points="46.66 148.135 46.66 148.135 46.755 147.921 46.66 148.135"/>
            <polygon points="41.481 147.993 46.352 147.834 46.478 147.841 46.499 147.848 46.619 147.876 46.628 147.88 46.755 147.921 46.877 147.974 46.888 147.977 47.003 148.051 47.024 148.058 47.115 148.135 47.143 148.156 47.209 148.236 47.217 148.251 47.261 148.324 47.265 148.348 47.051 148.413 47.017 148.359 47.013 148.369 46.957 148.293 46.958 148.292 46.884 148.233 46.901 148.251 46.782 148.188 46.783 148.187 46.66 148.135 46.66 148.135 46.555 148.1 46.436 148.072 46.457 148.079 46.345 148.065 46.345 148.054 41.487 148.217 41.481 147.993"/>
            <polygon points="47.045 148.415 47.051 148.413 47.063 148.433 47.045 148.415"/>
          </g>
          <polygon class="cls-43" points="49.648 152.504 49.648 152.434 48.983 154.184 49.203 154.258 49.869 152.508 49.868 152.438 49.648 152.504 49.648 152.504 49.648 152.504 49.648 152.504"/>
          <polygon class="cls-43" points="47.724 146.693 47.71 146.666 49.648 152.504 49.868 152.438 47.931 146.599 47.927 146.574 47.724 146.693 47.724 146.693 47.724 146.693 47.724 146.693"/>
          <polygon class="cls-43" points="47.685 146.634 47.678 146.62 47.724 146.693 47.927 146.574 47.882 146.501 47.871 146.497 47.675 146.63 47.675 146.63 47.685 146.634 47.685 146.634"/>
          <polygon class="cls-43" points="47.64 146.56 47.623 146.543 47.675 146.63 47.871 146.497 47.798 146.403 47.78 146.385 47.64 146.56 47.64 146.56 47.64 146.56 47.64 146.56"/>
          <polygon class="cls-43" points="47.564 146.511 47.546 146.494 47.64 146.56 47.78 146.385 47.685 146.319 47.668 146.301 47.564 146.511 47.564 146.511 47.564 146.511"/>
          <polygon class="cls-43" points="47.458 146.441 47.448 146.438 47.564 146.511 47.668 146.301 47.55 146.238 47.539 146.234 47.458 146.441 47.458 146.441 47.458 146.441"/>
          <polygon class="cls-43" points="47.346 146.392 47.321 146.396 47.458 146.441 47.539 146.234 47.416 146.183 47.406 146.179 47.332 146.4 47.332 146.4 47.346 146.392 47.346 146.392"/>
          <polygon class="cls-43" points="47.22 146.35 47.207 146.357 47.332 146.4 47.406 146.179 47.28 146.137 47.28 146.137 47.217 146.36 47.217 146.36 47.22 146.35 47.22 146.35"/>
          <polygon class="cls-43" points="47.123 146.329 47.101 146.322 47.217 146.36 47.28 146.137 47.15 146.105 47.14 146.102 47.123 146.329 47.123 146.329 47.123 146.329 47.123 146.329"/>
          <polygon class="cls-43" points="47.01 146.315 47.007 146.325 47.123 146.329 47.14 146.102 47.017 146.084 47.003 146.091 47.01 146.315 47.01 146.315 47.01 146.315"/>
          <polygon class="cls-43" points="42.258 146.397 42.138 146.474 47.01 146.315 47.003 146.091 42.142 146.253 42.037 146.324 42.247 146.393 42.247 146.393 42.258 146.397 42.258 146.397"/>
          <polygon class="cls-30" points="43.481 151.717 43.465 151.709 43.475 151.704 43.481 151.717"/>
          <g>
            <polygon class="cls-30" points="46.112 152.505 46.092 152.741 46.112 152.505 46.112 152.505"/>
            <g>
              <polygon class="cls-1" points="46.103 152.617 46.092 152.741 46.103 152.617 46.103 152.617"/>
              <g>
                <polygon class="cls-1" points="42.155 150.723 42.162 150.707 42.166 150.729 42.155 150.723"/>
                <path d="m42.081,150.983l.021.112.043.118.053.089.298.156.297.159.288.153.29.144.01.003.294.133.294.133.318.13.323.118.01.004.342.091.344.091.011.004.378.056.389.06.01.003.423.025.015-.007.451.01.483-.014.511-.028.105-.07.662-1.739-.112-.154.006.224-.035-.043.026-.064-.074.005-.031-.04-.016.043-.38.023h-.49l-.452-.011-.412-.021-.403-.053-.374-.066-.343-.092-.343-.091-.322-.118-.312-.117-.293-.133-.291-.144-.301-.146-.287-.154-.286-.155-.199-.105.006-.017-.105-.035h0l-.028-.127-.021-.112-.009-.038.078-.171-.11-.036-.005-.002h0l-.105-.035-.662,1.739-.007.055.017.123.013.133Zm.081-.276l.004.022-.011-.005.007-.016Z"/>
              </g>
            </g>
          </g>
          <polygon class="cls-43" points="48.126 151.017 48.637 150.988 48.63 150.764 48.119 150.792 48.126 151.017 48.126 151.017 48.126 151.017 48.126 151.017"/>
          <polygon class="cls-43" points="47.643 151.029 48.126 151.017 48.119 150.792 47.636 150.806 47.643 151.029 47.643 151.029 47.643 151.029 47.643 151.029"/>
          <polygon class="cls-43" points="47.181 151.016 47.191 151.019 47.643 151.029 47.636 150.806 47.185 150.795 47.199 150.788 47.177 151.026 47.177 151.026 47.181 151.016 47.181 151.016"/>
          <polygon class="cls-43" points="46.746 150.987 46.758 150.991 47.177 151.026 47.199 150.788 46.775 150.764 46.785 150.767 46.746 150.987 46.746 150.987 46.746 150.987 46.746 150.987"/>
          <polygon class="cls-43" points="46.354 150.938 46.746 150.987 46.785 150.767 46.397 150.707 46.354 150.938 46.354 150.938 46.354 150.938"/>
          <polygon class="cls-43" points="45.97 150.868 45.98 150.872 46.354 150.938 46.397 150.707 46.009 150.648 46.019 150.651 45.97 150.868 45.97 150.868 45.97 150.868 45.97 150.868"/>
          <polygon class="cls-43" points="45.627 150.777 45.97 150.868 46.019 150.651 45.676 150.56 45.623 150.788 45.623 150.788 45.627 150.777 45.627 150.777"/>
          <polygon class="cls-43" points="45.27 150.693 45.28 150.696 45.623 150.788 45.676 150.56 45.333 150.469 45.344 150.472 45.27 150.693 45.27 150.693 45.27 150.693"/>
          <polygon class="cls-43" points="44.948 150.574 44.948 150.574 45.27 150.693 45.344 150.472 45.022 150.353 45.032 150.356 44.938 150.571 44.938 150.571 44.948 150.574 44.948 150.574"/>
          <polygon class="cls-43" points="44.629 150.443 44.938 150.571 45.032 150.356 44.724 150.23 44.629 150.443 44.629 150.443 44.629 150.443"/>
          <polygon class="cls-43" points="44.336 150.311 44.629 150.443 44.724 150.23 44.427 150.108 44.336 150.311 44.336 150.311 44.336 150.311"/>
          <polygon class="cls-43" points="44.034 150.164 44.042 150.178 44.336 150.311 44.427 150.108 44.126 149.961 44.136 149.965 44.031 150.175 44.031 150.175 44.034 150.164 44.034 150.164"/>
          <polygon class="cls-43" points="43.744 150.02 44.031 150.175 44.136 149.965 43.847 149.821 43.74 150.031 43.74 150.031 43.744 150.02 43.744 150.02"/>
          <polygon class="cls-43" points="43.457 149.866 43.74 150.031 43.847 149.821 43.559 149.667 43.447 149.863 43.447 149.863 43.457 149.866 43.457 149.866"/>
          <polygon class="cls-43" points="43.16 149.708 43.447 149.863 43.559 149.667 43.271 149.512 43.16 149.708 43.16 149.708 43.16 149.708"/>
          <polygon class="cls-43" points="43.023 149.488 42.863 149.551 43.16 149.708 43.271 149.512 42.974 149.355 42.813 149.418 43.023 149.488 43.023 149.488 43.023 149.488 43.023 149.488"/>
          <polygon class="cls-43" points="73.361 146.336 72.695 148.085 74.868 148.811 75.372 147.649 75.387 147.537 75.39 147.421 75.372 147.299 75.331 147.18 75.261 147.074 75.205 146.962 75.114 146.85 75.019 146.749 74.921 146.658 74.813 146.563 74.701 146.479 74.592 146.419 74.487 146.35 74.365 146.297 74.256 146.238 74.151 146.202 74.057 146.172 73.944 146.158 73.843 146.146 73.745 146.161 73.647 146.175 73.542 146.21 73.45 146.273 73.361 146.336 73.361 146.336 73.361 146.336 73.361 146.336"/>
          <polygon class="cls-43" points="74.771 148.755 74.906 148.695 72.733 147.97 72.659 148.19 74.833 148.915 74.98 148.86 74.771 148.755 74.771 148.755 74.771 148.755"/>
          <g>
            <polygon class="cls-1" points="75.19 149.259 75.204 149.378 75.19 149.259 75.19 149.259"/>
            <polygon class="cls-1" points="76.31 148.087 76.39 148.164 76.304 148.102 76.31 148.087"/>
            <g>
              <polygon class="cls-1" points="76.39 148.164 76.304 148.102 76.31 148.087 76.39 148.164"/>
              <g>
                <polygon class="cls-1" points="76.39 148.164 76.304 148.102 76.31 148.087 76.39 148.164"/>
                <polygon points="41.242 147.552 41.252 147.52 41.915 145.781 42.124 145.851 41.483 147.569 41.47 147.639 41.467 147.615 41.242 147.657 41.239 147.633 41.242 147.552"/>
                <g>
                  <polygon class="cls-1" points="76.39 148.164 76.304 148.102 76.31 148.087 76.39 148.164"/>
                  <polygon class="cls-30" points="51.899 151.669 51.859 151.692 51.856 151.69 51.899 151.669"/>
                  <g>
                    <polygon class="cls-1" points="51.941 151.77 52.025 151.85 51.941 151.77 51.941 151.77"/>
                    <polygon class="cls-1" points="76.39 148.164 76.304 148.102 76.31 148.087 76.39 148.164"/>
                    <polygon class="cls-1" points="49.088 154.219 49.095 154.219 49.095 154.222 48.983 154.184 49.076 154.186 49.088 154.219"/>
                    <path d="m41.324,147.94l.024.102.003-.01.169-.037-.043.113,4.871-.159.116.004.125.042.126.042.126.042.115.073.095.066.067.081.041.081-.114.035,1.938,5.84.113.002.002.072h.175l.164-.004.15.004.138-.024.14-.036.14-.069.13-.109.153-.147.005-.01.088-.122.101-.13.115-.137.081-.136.101-.164.106-.14.086-.157.112-.162.091-.132.13-.144.105-.139.123-.123.108-.116.116-.101.112-.091.13-.074.028-.014-.083-.08h0l.083.08.129-.143.12-.112.104-.105.112-.091.109-.08.115-.066.101-.059.112-.056.126-.028.123-.052.126-.029.147-.021.161-.027.178-.011.194-.017.189-.007.011.004,21.023-1.57.123-.018.112-.021.101-.025.104-.035.099-.048.101-.06.084-.078.097-.084.022-.028.367-.857-.192-.123.086.082-.014.011-.093-.065-.092.215-.062.037-.081.031-.095.039-.088.018-.112.021-.112.021-21.034,1.567-.134.014-.129.004-.129.003-.137.024h-.14l-.122.017-.133.015-.123.017-.136.025-.123.017-.125.028-.14.035-.127.028-.133.049-.132.048-.127.063-.248.151-.252.231-.266.273-.256.311-.248.326-.214.291-.21.279-.175.21-.101.024-.088.018-.109.01h-.209l-.091-.007-.116-.004-.102-.01-1.931-5.825-.042-.084-.067-.081-.094-.067-.127-.076-.122-.053-.125-.042-.12-.028-.116-.003-4.868.148-.586,1.54-.003-.021-.23.062Zm34.981.162l.006-.016.08.077-.086-.061Z"/>
                  </g>
                </g>
              </g>
            </g>
          </g>
          <polygon class="cls-43" points="75.568 148.531 75.694 148.503 75.806 148.482 75.908 148.458 76.013 148.422 76.111 148.374 76.212 148.313 76.292 148.248 76.39 148.164 76.223 148.002 76.149 148.083 76.072 148.139 75.999 148.185 75.919 148.216 75.841 148.237 75.75 148.265 75.652 148.279 75.544 148.29 75.568 148.531 75.568 148.531 75.568 148.531"/>
          <polygon class="cls-43" points="54.548 150.091 75.568 148.531 75.544 148.29 54.521 149.86 54.548 150.091 54.548 150.091 54.548 150.091"/>
          <polygon class="cls-43" points="52.486 150.465 52.609 150.412 52.729 150.37 52.872 150.325 52.991 150.283 53.12 150.244 53.242 150.227 53.365 150.21 53.502 150.185 53.614 150.164 53.743 150.161 53.877 150.147 54.009 150.133 54.142 150.119 54.261 150.112 54.404 150.101 54.548 150.091 54.521 149.86 54.387 149.874 54.254 149.888 54.115 149.888 53.981 149.902 53.852 149.905 53.726 149.934 53.595 149.937 53.452 149.947 53.326 149.976 53.2 150.003 53.064 150.027 52.924 150.062 52.805 150.104 52.662 150.15 52.518 150.195 52.393 150.258 52.486 150.465 52.486 150.465 52.486 150.465 52.486 150.465"/>
          <polygon class="cls-43" points="50.603 152.542 50.649 152.511 50.743 152.403 50.828 152.291 50.929 152.162 51.033 152.022 51.153 151.875 51.262 151.724 51.384 151.566 51.506 151.409 51.633 151.242 51.762 151.098 51.889 150.964 52.017 150.822 52.126 150.706 52.263 150.612 52.374 150.521 52.486 150.465 52.393 150.258 52.248 150.339 52.126 150.426 51.983 150.542 51.846 150.671 51.72 150.804 51.594 150.937 51.454 151.112 51.332 151.269 51.209 151.427 51.086 151.584 50.978 151.734 50.859 151.882 50.754 152.022 50.652 152.151 50.568 152.263 50.491 152.354 50.534 152.333 50.603 152.542 50.603 152.542 50.603 152.542 50.603 152.542"/>
          <polygon class="cls-1" points="73.315 146.437 73.361 146.336 73.444 146.259 73.57 146.195 73.717 146.175 73.797 146.178 73.889 146.185 73.976 146.202 74.064 146.22 74.169 146.255 74.263 146.287 74.365 146.332 74.473 146.392 74.564 146.434 74.658 146.5 74.742 146.563 74.834 146.64 74.928 146.707 74.995 146.788 75.075 146.861 75.142 146.941 75.264 147.099 75.327 147.26 75.359 147.341 75.376 147.393 75.365 147.53 75.341 147.638 75.263 147.73 75.151 147.785 75.001 147.816 74.918 147.824 74.83 147.806 74.728 147.795 74.62 147.771 74.526 147.739 74.421 147.704 74.309 147.656 74.211 147.6 74.109 147.554 74 147.494 73.905 147.428 73.815 147.351 73.731 147.287 73.644 147.2 73.566 147.115 73.5 147.036 73.392 146.871 73.329 146.71 73.311 146.658 73.294 146.57 73.315 146.437"/>
          <polygon class="cls-28" points="46.576 146.217 47.01 146.21 47.045 146.21 43.318 144.966 43.13 145.078 46.573 146.227 46.573 146.227 46.576 146.217 46.576 146.217"/>
          <polygon class="cls-28" points="46.576 146.217 42.142 146.358 42.124 146.271 42.1 146.169 42.073 146.079 42.038 145.974 42.02 145.886 42.02 145.816 42.048 145.732 42.124 145.676 42.307 145.55 42.509 145.431 42.713 145.312 42.916 145.194 43.108 145.071 43.13 145.078 46.573 146.227 46.573 146.227 46.576 146.217 46.576 146.217"/>
          <polygon class="cls-27" points="43.881 148.911 46.901 148.741 48.083 149.217 48.5 150.453 48.627 150.88 48.126 150.911 47.636 150.911 47.184 150.9 46.772 150.879 46.369 150.826 45.995 150.76 45.652 150.669 45.308 150.577 44.986 150.459 44.675 150.342 44.381 150.21 44.091 150.065 43.79 149.919 43.503 149.765 43.216 149.61 42.918 149.453 42.89 149.327 42.869 149.214 42.841 149.089 42.824 148.967 43.881 148.911"/>
          <polygon class="cls-28" points="51.49 149.257 51.531 149.306 51.92 149.54 52.046 149.337 51.657 149.103 51.696 149.163 51.49 149.257 51.504 149.284 51.531 149.306 51.49 149.257 51.49 149.257 51.49 149.257"/>
          <polygon class="cls-28" points="48.035 149.328 47.969 149.248 48.521 150.915 48.742 150.848 48.189 149.182 48.13 149.116 48.189 149.182 48.172 149.13 48.13 149.116 48.035 149.328 48.035 149.328 48.035 149.328 48.035 149.328"/>
          <polygon class="cls-28" points="46.911 148.849 46.856 148.842 48.035 149.328 48.13 149.116 46.95 148.629 46.905 148.625 46.95 148.629 46.929 148.622 46.905 148.625 46.911 148.849 46.911 148.849 46.911 148.849 46.911 148.849"/>
          <polygon class="cls-28" points="42.943 148.96 42.83 149.085 46.911 148.849 46.905 148.625 42.824 148.861 42.716 148.977 42.824 148.861 42.694 148.864 42.716 148.977 42.943 148.96 42.943 148.96 42.943 148.96"/>
          <polygon class="cls-28" points="42.974 149.355 43.02 149.428 43.016 149.369 43.002 149.306 42.998 149.246 42.981 149.195 42.978 149.135 42.964 149.072 42.947 149.019 42.943 148.96 42.716 148.977 42.716 149.047 42.726 149.12 42.744 149.173 42.747 149.232 42.764 149.284 42.778 149.348 42.803 149.415 42.807 149.475 42.863 149.551 42.807 149.475 42.824 149.527 42.863 149.551 42.974 149.355 42.974 149.355 42.974 149.355"/>
          <polygon class="cls-28" points="48.525 150.904 48.619 150.76 48.119 150.792 47.636 150.806 47.199 150.788 46.775 150.764 46.397 150.707 46.019 150.651 45.676 150.56 45.344 150.472 45.022 150.353 44.724 150.23 44.427 150.108 44.136 149.965 43.847 149.821 43.559 149.667 43.271 149.512 42.974 149.355 42.863 149.551 43.16 149.708 43.447 149.863 43.74 150.031 44.031 150.175 44.336 150.311 44.629 150.443 44.948 150.574 45.27 150.693 45.623 150.788 45.97 150.868 46.354 150.938 46.758 150.991 47.177 151.026 47.643 151.029 48.126 151.017 48.647 150.992 48.742 150.848 48.647 150.992 48.791 150.982 48.742 150.848 48.521 150.915 48.521 150.915 48.525 150.904 48.525 150.904"/>
          <g>
            <polygon class="cls-1" points="50.636 152.384 50.722 152.466 50.636 152.384 50.636 152.384"/>
            <polygon class="cls-1" points="49.861 152.354 49.841 152.355 49.841 152.355 49.861 152.354"/>
            <polygon class="cls-1" points="47.962 146.691 51.024 147.713 47.962 146.691 47.962 146.691"/>
          </g>
          <polygon class="cls-28" points="54.521 149.86 54.366 149.867 54.194 149.891 54.04 149.898 53.872 149.912 53.712 149.94 53.54 149.965 53.369 149.989 53.204 150.027 53.039 150.065 52.897 150.111 52.739 150.164 52.592 150.22 52.466 150.283 52.316 150.349 52.193 150.437 52.08 150.528 52.22 150.703 52.329 150.622 52.434 150.552 52.549 150.486 52.682 150.437 52.812 150.363 52.952 150.328 53.117 150.29 53.26 150.244 53.418 150.227 53.558 150.192 53.725 150.178 53.887 150.151 54.059 150.126 54.226 150.112 54.383 150.095 54.548 150.091 54.521 149.86 54.521 149.86 54.521 149.86 54.521 149.86"/>
          <polygon class="cls-28" points="75.544 148.29 54.521 149.86 54.548 150.091 75.568 148.531 75.544 148.29 75.544 148.29 75.544 148.29"/>
          <polygon class="cls-28" points="75.936 147.008 76.023 147.131 76.114 147.243 76.156 147.361 76.223 147.478 76.258 147.583 76.268 147.691 76.272 147.785 76.265 147.876 76.24 147.95 76.205 148.02 76.159 148.087 76.079 148.153 75.995 148.195 75.862 148.243 75.722 148.279 75.544 148.29 75.568 148.531 75.761 148.514 75.929 148.465 76.076 148.409 76.205 148.335 76.324 148.258 76.408 148.146 76.453 148.045 76.496 147.919 76.492 147.789 76.5 147.663 76.471 147.537 76.426 147.394 76.373 147.271 76.303 147.131 76.212 146.984 76.121 146.872 75.936 147.008 75.936 147.008 75.936 147.008"/>
          <polygon class="cls-28" points="73.43 145.81 73.619 145.804 73.812 145.822 74.008 145.864 74.197 145.891 74.375 145.951 74.554 146.011 74.725 146.091 74.886 146.169 75.054 146.259 75.208 146.357 75.373 146.459 75.492 146.556 75.617 146.668 75.74 146.791 75.841 146.907 75.936 147.008 76.121 146.872 76.013 146.742 75.89 146.62 75.768 146.497 75.631 146.381 75.481 146.274 75.331 146.165 75.177 146.066 75.002 145.961 74.82 145.877 74.635 145.804 74.445 145.741 74.246 145.674 74.05 145.632 73.85 145.6 73.623 145.583 73.423 145.586 73.43 145.81 73.43 145.81 73.43 145.81"/>
          <polygon class="cls-28" points="54.828 146.451 73.43 145.81 73.423 145.586 54.832 146.23 54.828 146.451 54.828 146.451 54.828 146.451"/>
          <polygon class="cls-28" points="51.892 145.984 52.067 146.055 52.253 146.093 52.432 146.153 52.617 146.19 52.812 146.233 52.995 146.283 53.195 146.314 53.373 146.337 53.559 146.377 53.751 146.394 53.939 146.422 54.126 146.426 54.304 146.451 54.493 146.444 54.664 146.454 54.828 146.451 54.832 146.23 54.658 146.23 54.486 146.22 54.324 146.213 54.143 146.199 53.961 146.185 53.78 146.17 53.601 146.146 53.412 146.117 53.226 146.08 53.048 146.055 52.865 146.005 52.677 145.977 52.494 145.928 52.302 145.876 52.141 145.835 51.962 145.775 51.889 145.995 51.889 145.995 51.892 145.984 51.892 145.984"/>
          <polygon class="cls-28" points="45.618 144.264 45.937 144.218 46.236 144.19 46.524 144.169 46.787 144.152 47.035 144.141 47.259 144.169 47.49 144.177 47.683 144.194 47.883 144.226 48.068 144.264 48.242 144.3 48.4 144.352 48.568 144.408 48.701 144.464 48.866 144.531 48.995 144.597 49.145 144.671 49.296 144.745 49.443 144.829 49.59 144.913 49.737 144.996 49.891 145.095 50.042 145.169 50.206 145.27 50.387 145.354 50.563 145.459 50.759 145.536 50.948 145.634 51.161 145.729 51.392 145.805 51.637 145.91 51.889 145.995 51.962 145.775 51.71 145.69 51.463 145.595 51.255 145.515 51.039 145.431 50.839 145.329 50.668 145.249 50.493 145.143 50.321 145.063 50.153 144.972 49.995 144.885 49.849 144.8 49.696 144.702 49.548 144.617 49.397 144.545 49.247 144.471 49.11 144.39 48.96 144.317 48.796 144.25 48.642 144.188 48.474 144.131 48.295 144.072 48.11 144.034 47.921 144.005 47.713 143.96 47.501 143.935 47.28 143.932 47.024 143.928 46.78 143.928 46.496 143.939 46.209 143.959 45.905 143.997 45.59 144.033 45.607 144.26 45.607 144.26 45.618 144.264 45.618 144.264"/>
          <polygon class="cls-28" points="42.184 145.778 42.366 145.652 42.569 145.533 42.773 145.414 42.979 145.285 43.168 145.173 43.381 145.058 43.581 144.949 43.787 144.854 44.007 144.753 44.229 144.651 44.446 144.56 44.669 144.484 44.911 144.424 45.131 144.358 45.372 144.298 45.607 144.26 45.59 144.033 45.327 144.085 45.079 144.13 44.834 144.2 44.603 144.263 44.372 144.361 44.134 144.445 43.917 144.536 43.696 144.638 43.472 144.749 43.258 144.864 43.059 144.973 42.857 145.092 42.653 145.211 42.45 145.329 42.258 145.452 42.065 145.574 42.173 145.774 42.173 145.774 42.184 145.778 42.184 145.778"/>
          <polygon class="cls-28" points="42.142 146.253 42.261 146.352 42.226 146.247 42.204 146.135 42.177 146.043 42.153 145.941 42.138 145.879 42.129 145.841 42.146 145.788 42.173 145.774 42.065 145.574 41.964 145.669 41.911 145.792 41.897 145.904 41.932 146.009 41.957 146.11 41.985 146.201 42.012 146.292 42.03 146.38 42.138 146.474 42.03 146.38 42.033 146.474 42.138 146.474 42.142 146.253 42.142 146.253 42.142 146.253"/>
          <g>
            <polygon class="cls-1" points="50.731 147.09 50.731 147.09 50.703 147.209 50.731 147.09"/>
            <polygon class="cls-27" points="50.734 147.079 50.731 147.09 50.731 147.09 50.734 147.079"/>
            <polygon class="cls-27" points="50.681 147.132 50.731 147.09 50.703 147.209 50.681 147.132"/>
            <g>
              <polygon class="cls-1" points="73.361 146.336 73.444 146.259 73.57 146.195 73.717 146.175 73.797 146.178 73.889 146.185 73.976 146.202 74.064 146.22 74.169 146.255 74.263 146.287 74.365 146.332 74.473 146.392 74.564 146.434 74.658 146.5 74.742 146.563 74.834 146.64 74.928 146.707 74.995 146.788 75.075 146.861 75.142 146.941 75.264 147.099 75.327 147.26 75.359 147.341 75.376 147.393 75.365 147.53 75.341 147.638 75.263 147.73 75.151 147.785 75.001 147.816 74.918 147.824 74.83 147.806 74.728 147.795 74.62 147.771 74.526 147.739 74.421 147.704 74.309 147.656 74.211 147.6 74.109 147.554 74 147.494 73.905 147.428 73.815 147.351 73.731 147.287 73.644 147.2 73.566 147.115 73.5 147.036 73.392 146.871 73.329 146.71 73.311 146.658 73.294 146.57 73.315 146.437 73.361 146.336"/>
              <polygon class="cls-1" points="53.099 147.074 53.099 147.074 52.994 147.123 53.099 147.074"/>
              <polygon class="cls-1" points="53.856 148.984 53.93 149.044 53.936 149.058 53.736 149.307 51.979 149.431 51.598 149.212 51.597 149.208 51.696 149.163 50.948 147.194 51.072 147.07 52.67 146.979 53.008 147.155 53.838 149.108 53.856 148.984"/>
              <polygon class="cls-1" points="47.859 146.481 47.859 146.481 50.8 147.463 47.859 146.481"/>
              <g>
                <polygon class="cls-1" points="73.361 146.336 73.444 146.259 73.57 146.195 73.717 146.175 73.797 146.178 73.889 146.185 73.976 146.202 74.064 146.22 74.169 146.255 74.263 146.287 74.365 146.332 74.473 146.392 74.564 146.434 74.658 146.5 74.742 146.563 74.834 146.64 74.928 146.707 74.995 146.788 75.075 146.861 75.142 146.941 75.264 147.099 75.327 147.26 75.359 147.341 75.376 147.393 75.365 147.53 75.341 147.638 75.263 147.73 75.151 147.785 75.001 147.816 74.918 147.824 74.83 147.806 74.728 147.795 74.62 147.771 74.526 147.739 74.421 147.704 74.309 147.656 74.211 147.6 74.109 147.554 74 147.494 73.905 147.428 73.815 147.351 73.731 147.287 73.644 147.2 73.566 147.115 73.5 147.036 73.392 146.871 73.329 146.71 73.311 146.658 73.294 146.57 73.315 146.437 73.361 146.336"/>
                <polygon class="cls-1" points="52.67 146.979 53.008 147.155 53.838 149.108 53.856 148.984 53.93 149.044 53.936 149.058 53.736 149.307 51.979 149.431 51.598 149.212 51.597 149.208 51.696 149.163 50.948 147.194 51.072 147.07 52.67 146.979"/>
                <polygon class="cls-1" points="47.859 146.481 47.859 146.481 50.8 147.463 47.859 146.481"/>
                <g>
                  <polygon class="cls-1" points="73.361 146.336 73.444 146.259 73.57 146.195 73.717 146.175 73.797 146.178 73.889 146.185 73.976 146.202 74.064 146.22 74.169 146.255 74.263 146.287 74.365 146.332 74.473 146.392 74.564 146.434 74.658 146.5 74.742 146.563 74.834 146.64 74.928 146.707 74.995 146.788 75.075 146.861 75.142 146.941 75.264 147.099 75.327 147.26 75.359 147.341 75.376 147.393 75.365 147.53 75.341 147.638 75.263 147.73 75.151 147.785 75.001 147.816 74.918 147.824 74.83 147.806 74.728 147.795 74.62 147.771 74.526 147.739 74.421 147.704 74.309 147.656 74.211 147.6 74.109 147.554 74 147.494 73.905 147.428 73.815 147.351 73.731 147.287 73.644 147.2 73.566 147.115 73.5 147.036 73.392 146.871 73.329 146.71 73.311 146.658 73.294 146.57 73.315 146.437 73.361 146.336"/>
                  <polygon class="cls-1" points="52.67 146.979 53.008 147.155 53.838 149.108 53.856 148.984 53.93 149.044 53.936 149.058 53.738 149.304 53.726 149.198 51.969 149.323 52.046 149.337 51.987 149.43 51.979 149.431 51.598 149.212 51.597 149.208 51.696 149.163 50.948 147.194 51.072 147.07 52.67 146.979"/>
                  <polygon class="cls-1" points="47.859 146.481 47.859 146.481 50.8 147.463 47.859 146.481"/>
                  <g>
                    <polygon class="cls-1" points="53.9 148.673 57.229 149.784 53.9 148.673 53.9 148.673"/>
                    <polygon class="cls-1" points="53.813 148.469 57.649 149.749 53.813 148.469 53.813 148.469"/>
                    <polygon class="cls-1" points="73.361 146.336 73.444 146.259 73.57 146.195 73.717 146.175 73.797 146.178 73.889 146.185 73.976 146.202 74.064 146.22 74.169 146.255 74.263 146.287 74.365 146.332 74.473 146.392 74.564 146.434 74.658 146.5 74.742 146.563 74.834 146.64 74.928 146.707 74.995 146.788 75.075 146.861 75.142 146.941 75.264 147.099 75.327 147.26 75.359 147.341 75.376 147.393 75.365 147.53 75.341 147.638 75.263 147.73 75.151 147.785 75.001 147.816 74.918 147.824 74.83 147.806 74.728 147.795 74.62 147.771 74.526 147.739 74.421 147.704 74.309 147.656 74.211 147.6 74.109 147.554 74 147.494 73.905 147.428 73.815 147.351 73.731 147.287 73.644 147.2 73.566 147.115 73.5 147.036 73.392 146.871 73.329 146.71 73.311 146.658 73.294 146.57 73.315 146.437 73.361 146.336"/>
                    <polygon class="cls-1" points="52.67 146.979 53.008 147.155 53.838 149.108 53.856 148.984 53.93 149.044 53.936 149.058 53.738 149.304 53.736 149.307 51.987 149.43 51.979 149.431 51.598 149.212 51.597 149.208 51.696 149.163 50.948 147.194 51.072 147.07 52.67 146.979"/>
                    <polygon class="cls-1" points="47.859 146.481 47.859 146.481 50.8 147.463 47.859 146.481"/>
                    <polygon class="cls-27" points="53.813 148.469 57.649 149.749 57.232 149.773 57.229 149.784 53.9 148.673 53.813 148.469"/>
                    <g>
                      <polygon class="cls-1" points="73.361 146.336 73.444 146.259 73.57 146.195 73.717 146.175 73.797 146.178 73.889 146.185 73.976 146.202 74.064 146.22 74.169 146.255 74.263 146.287 74.365 146.332 74.473 146.392 74.564 146.434 74.658 146.5 74.742 146.563 74.834 146.64 74.928 146.707 74.995 146.788 75.075 146.861 75.142 146.941 75.264 147.099 75.327 147.26 75.359 147.341 75.376 147.393 75.365 147.53 75.341 147.638 75.263 147.73 75.151 147.785 75.001 147.816 74.918 147.824 74.83 147.806 74.728 147.795 74.62 147.771 74.526 147.739 74.421 147.704 74.309 147.656 74.211 147.6 74.109 147.554 74 147.494 73.905 147.428 73.815 147.351 73.731 147.287 73.644 147.2 73.566 147.115 73.5 147.036 73.392 146.871 73.329 146.71 73.311 146.658 73.294 146.57 73.315 146.437 73.361 146.336"/>
                      <polygon class="cls-1" points="52.67 146.979 53.008 147.155 53.81 149.042 53.686 149.201 51.969 149.323 52.046 149.337 51.987 149.43 51.979 149.431 51.598 149.212 51.597 149.208 51.696 149.163 50.948 147.194 51.072 147.07 52.67 146.979"/>
                      <polygon class="cls-1" points="53.856 148.984 53.93 149.044 53.93 149.044 53.856 148.984"/>
                      <polygon class="cls-1" points="47.859 146.481 47.859 146.481 50.8 147.463 47.859 146.481"/>
                      <path class="cls-27" d="m42.138,146.474l4.872-.159.102.01.094.032.126.043.115.038.105.07.078.049.045.073.034.036,1.938,5.838.028.091.095-.004.098-.014.112.014.136.011.129-.003.126.006.116-.032.129-.038.105-.07.127-.133.105-.14.098-.119.097-.119.084-.112.081-.101.07-.105.084-.112.07-.105.081-.101.081-.102.087-.087.091-.098.105-.105.105-.105.133-.119-.071-.089.106-.086.119-.078.137-.06.125-.062.137-.06.154-.041.158-.053.154-.042.147-.021.161-.028.172-.025.161-.027.168-.014.169-.014.157-.017.155-.007,2.701-.195-3.329-1.111-.087-.204h0l3.836,1.28,17.912-1.338.332-.052.249-.115.172-.165.062-.189v-.21s.004-.011.004-.011l-.059-.241-.119-.238-.172-.255-.101-.115-.112-.119-.122-.122-.129-.103-.137-.114-.154-.099-.164-.102-.166-.101-.174-.07-.172-.081-.189-.063-.199-.066-.189-.028-.196-.042-.203-.021-.2.003-2.705.101-15.886.543h-.174l-.165.004-.186-.004-.178-.025-.182-.014-.182-.014-.178-.025-.19-.028-.188-.028-.186-.039-.186-.039-.185-.038-.193-.052-.182-.05-.171-.046-.178-.059-.252-.084-.249-.095-.217-.084-.217-.084-.189-.099-.182-.084-.189-.099-.171-.08-.164-.101-.148-.084-.157-.087-.147-.084-.158-.088-.146-.083-.14-.07-.147-.085-.151-.073-.154-.063-.147-.049-.168-.056-.179-.06-.171-.046-.189-.028-.2-.031-.203-.022-.227-.017-.242-.011-.248.011-.259.007-.291.032-.301.028-.329.042-.244.034-.242.06-.241.06-.224.077-.237.084-.228.087-.217.091-.221.101-.209.105-.214.116,3.399,1.134-4.575.153-.004.221Zm31.155.096l.021-.133.046-.101.083-.078.126-.063.147-.021.08.004.092.007.087.017.088.018.106.034.094.032.101.046.108.06.091.042.094.066.084.063.092.077.094.066.067.081.08.073.067.081.123.158.063.161.031.081.017.052-.01.137-.025.108-.078.091-.112.055-.15.032-.084.008-.087-.018-.102-.01-.108-.025-.095-.032-.105-.035-.112-.048-.098-.057-.102-.046-.109-.06-.095-.067-.09-.077-.084-.063-.087-.087-.077-.085-.066-.079-.108-.165-.063-.161-.018-.052-.017-.088Zm-19.364,2.474h0l-.074-.06.074.06Zm-2.982-1.851l.125-.124,1.597-.091.338.176.802,1.888-.125.158-1.717.123.077.014-.059.093h-.008s-.381-.219-.381-.219v-.004s.098-.045.098-.045l-.748-1.969Z"/>
                    </g>
                  </g>
                </g>
              </g>
            </g>
          </g>
          <polygon class="cls-43" points="72.211 147.784 72.114 147.728 72.096 147.64 72.237 147.605 72.265 147.697 72.18 147.633 72.211 147.784 72.211 147.784 72.211 147.784"/>
          <polygon class="cls-43" points="72.401 147.672 72.38 147.7 72.345 147.735 72.303 147.756 72.262 147.777 72.211 147.784 72.18 147.633 72.202 147.64 72.233 147.617 72.272 147.605 72.275 147.595 72.268 147.617 72.398 147.683 72.398 147.683 72.401 147.672 72.401 147.672"/>
          <polygon class="cls-43" points="72.005 146.793 72.016 146.797 72.083 146.878 72.171 146.965 72.254 147.063 72.334 147.171 72.401 147.287 72.439 147.416 72.44 147.557 72.398 147.683 72.268 147.617 72.296 147.532 72.289 147.448 72.265 147.347 72.202 147.256 72.132 147.15 72.055 147.067 71.967 146.979 71.901 146.899 71.911 146.902 72.005 146.793 72.005 146.793 72.005 146.793"/>
          <polygon class="cls-43" points="70.718 146.422 70.707 146.418 70.892 146.422 71.067 146.422 71.232 146.454 71.389 146.471 71.551 146.513 71.701 146.587 71.858 146.675 72.005 146.793 71.911 146.902 71.768 146.807 71.631 146.726 71.503 146.66 71.362 146.625 71.208 146.597 71.05 146.579 70.889 146.573 70.725 146.576 70.728 146.566 70.704 146.429 70.704 146.429 70.718 146.422 70.718 146.422"/>
          <polygon class="cls-43" points="57.061 147.138 57.122 147.099 70.704 146.429 70.728 146.566 57.142 147.246 57.202 147.208 57.061 147.138 57.061 147.138 57.061 147.138"/>
          <polygon class="cls-43" points="56.739 147.614 56.592 147.565 56.602 147.463 56.631 147.379 56.673 147.289 56.729 147.225 56.802 147.18 56.897 147.141 57.002 147.106 57.122 147.099 57.142 147.246 57.029 147.267 56.928 147.292 56.879 147.299 56.831 147.341 56.806 147.379 56.768 147.425 56.747 147.488 56.75 147.582 56.602 147.533 56.739 147.614 56.739 147.614 56.739 147.614"/>
          <g>
            <polygon class="cls-1" points="57.122 147.103 57.142 147.246 57.122 147.103 57.122 147.103"/>
            <g>
              <polygon class="cls-1" points="56.75 147.582 56.768 147.495 56.81 147.404 56.845 147.334 56.918 147.289 57.005 147.27 57.128 147.253 57.142 147.246 70.728 146.566 70.955 146.583 71.145 146.576 71.324 146.601 71.488 146.632 71.638 146.706 71.774 146.786 71.901 146.899 72.045 147.063 72.171 147.21 72.262 147.356 72.306 147.465 72.306 147.535 72.275 147.595 72.187 147.648 72.023 147.686 71.792 147.714 57.831 148.433 57.821 148.43 57.624 148.423 57.432 148.37 57.26 148.29 57.113 148.205 56.992 148.083 56.904 147.96 56.827 147.841 56.768 147.74 56.757 147.667 56.75 147.582"/>
              <g>
                <path class="cls-1" d="m56.768,147.495l-.018.087.007.084.011.074.059.101.077.119.088.122.122.122.147.085.172.08.192.053.197.007.01.004,13.961-.72.231-.028.164-.038.087-.053.032-.06v-.07l-.045-.109-.091-.147-.126-.147-.144-.164-.127-.113-.136-.08-.151-.073-.164-.032-.179-.025-.19.008-.227-.018-13.587.681-.013.007-.123.017-.088.019-.073.045-.035.07-.042.091Zm.192-.087l13.587-.682.007-.021.182.014h.175s.164.031.164.031l.157.018.162.042.15.073.146.084.158.122.06.067.053.052.048.063.043.049.06.066.045.074.039.059.038.06.004.024-.141.035.003.025-.034-.071-.038-.059-.053-.052-.039-.059-.041-.049-.049-.063-.052-.053-.063-.056.005-.004-.125-.094-.132-.092-.133-.056-.139-.035-.154-.029-.158-.017-.172-.011-.164.004-13.582.669-.015-.132Z"/>
                <g>
                  <path class="cls-1" d="m56.768,147.495l-.018.087.007.084.011.074.059.101.077.119.088.122.122.122.147.085.172.08.192.053.197.007.01.004,13.961-.72.231-.028.164-.038.087-.053.032-.06v-.07l-.045-.109-.091-.147-.126-.147-.144-.164-.127-.113-.136-.08-.151-.073-.164-.032-.179-.025-.19.008-.227-.018-13.587.681-.013.007-.123.017-.088.019-.073.045-.035.07-.042.091Z"/>
                  <g>
                    <polygon class="cls-1" points="56.81 147.404 56.845 147.334 56.918 147.289 57.005 147.27 57.086 147.259 56.974 147.471 70.56 146.789 70.735 146.789 70.896 146.797 71.061 146.828 71.218 146.846 71.369 146.884 71.512 146.943 71.656 147.038 71.796 147.143 71.845 147.206 71.897 147.258 71.946 147.322 71.999 147.374 72.036 147.434 72.086 147.497 72.125 147.557 72.171 147.629 72.176 147.651 72.023 147.686 71.792 147.714 57.831 148.433 57.821 148.43 57.624 148.423 57.432 148.37 57.26 148.29 57.113 148.205 56.992 148.083 56.904 147.96 56.827 147.841 56.768 147.74 56.757 147.667 56.75 147.582 56.768 147.495 56.81 147.404"/>
                    <polygon points="72.125 147.557 72.086 147.497 72.036 147.434 71.999 147.374 71.946 147.322 71.897 147.258 71.845 147.206 71.796 147.143 71.656 147.038 71.512 146.943 71.369 146.884 71.218 146.846 71.061 146.828 70.896 146.797 70.735 146.789 70.56 146.789 56.974 147.471 57.086 147.259 57.128 147.253 57.142 147.246 70.728 146.566 70.955 146.583 71.145 146.576 71.324 146.601 71.488 146.632 71.638 146.706 71.774 146.786 71.901 146.899 72.045 147.063 72.171 147.21 72.262 147.356 72.306 147.465 72.306 147.535 72.275 147.595 72.187 147.648 72.176 147.651 72.171 147.629 72.125 147.557"/>
                    <g>
                      <polygon class="cls-1" points="56.774 147.48 56.785 147.478 56.855 147.478 56.974 147.471 57.087 147.258 57.128 147.253 57.142 147.246 70.728 146.566 70.955 146.583 71.145 146.576 71.324 146.601 71.488 146.632 71.638 146.706 71.774 146.786 71.901 146.899 72.045 147.063 72.171 147.21 72.262 147.356 72.306 147.465 72.306 147.535 72.275 147.595 72.187 147.648 72.176 147.651 72.023 147.686 71.792 147.714 57.831 148.433 57.821 148.43 57.624 148.423 57.432 148.37 57.26 148.29 57.113 148.205 56.992 148.083 56.904 147.96 56.827 147.841 56.768 147.74 56.757 147.667 56.75 147.582 56.768 147.495 56.774 147.48"/>
                      <path d="m56.592,147.565l.015.133.028.091.039.129.091.147.111.12.144.129.172.116.192.088.203.055h.245l13.958-.708.266-.028.189-.042.136-.095.077-.126-.003-.129-.053-.159-.101-.15-.14-.175-.144-.165-.154-.133-.164-.101-.161-.077-.175-.035-.211-.035h-.209l-.238.014-13.582.671v.004l-.145.006-.146.056-.098.084-.067.095-.046.101-.028.119Zm.158.018l.018-.087.006-.015.012-.002h.069l.12-.007.113-.212.041-.005.013-.007,13.587-.681.227.018.19-.008.179.025.164.032.151.073.136.08.127.113.144.164.126.147.091.147.045.109v.07l-.032.06-.087.053-.011.003-.153.035-.231.028-13.961.72-.01-.004-.197-.007-.192-.053-.172-.08-.147-.085-.122-.122-.088-.122-.077-.119-.059-.101-.011-.074-.007-.084Z"/>
                    </g>
                  </g>
                </g>
              </g>
            </g>
          </g>
        </g>
      </g>
      
    </g>
  </g>
</g></svg>