<svg version="1.1" id="Layer_1" xmlns="http://www.w3.org/2000/svg" xmlns:xlink="http://www.w3.org/1999/xlink" x="0px" y="0px" width="825" height="900" viewBox="0 0 825 900" enable-background="new 0 0 198 216" xml:space="preserve">
<rect fill="#929497" width="198" height="216"></rect>
<polygon fill="#FFFFFF" stroke="#EB242B" stroke-width="0.866" points="80.988,76.824 62.99,45.648 80.988,14.472 116.988,14.472 
	134.986,45.648 116.988,76.824 "></polygon>
<polygon fill="none" stroke="#00AEEF" stroke-width="0.866" stroke-dasharray="2.8863" points="85.487,69.03 71.988,45.648 
	85.487,22.266 112.487,22.266 125.986,45.648 112.487,69.03 "></polygon>
<polygon fill="#FFFFFF" stroke="#EB242B" stroke-width="0.866" points="134.998,108 117,76.824 134.998,45.648 170.998,45.648 
	188.996,76.824 170.998,108 "></polygon>
<polygon fill="none" stroke="#00AEEF" stroke-width="0.866" stroke-dasharray="2.8863" points="139.497,100.206 126,76.824 
	139.497,53.442 166.497,53.442 179.998,76.824 166.497,100.206 "></polygon>
<polygon fill="#FFFFFF" stroke="#EB242B" stroke-width="0.866" points="80.996,139.176 62.998,108 80.996,76.824 116.997,76.824 
	134.995,108 116.997,139.176 "></polygon>
<polygon fill="none" stroke="#00AEEF" stroke-width="0.866" stroke-dasharray="2.8863" points="85.496,131.382 71.998,108 
	85.496,84.618 112.496,84.618 125.996,108 112.496,131.382 "></polygon>
<polygon fill="#FFFFFF" stroke="#EB242B" stroke-width="0.866" points="135.009,170.352 117.01,139.176 135.009,108 171.008,108 
	189.007,139.176 171.008,170.352 "></polygon>
<polygon fill="none" stroke="#00AEEF" stroke-width="0.866" stroke-dasharray="2.8863" points="139.508,162.558 126.009,139.176 
	139.508,115.794 166.508,115.794 180.007,139.176 166.508,162.558 "></polygon>
<polygon fill="#FFFFFF" stroke="#EB242B" stroke-width="0.866" points="80.99,201.528 62.992,170.352 80.99,139.176 116.99,139.176 
	134.988,170.352 116.99,201.528 "></polygon>
<polygon fill="none" stroke="#00AEEF" stroke-width="0.866" stroke-dasharray="2.8863" points="85.489,193.734 71.991,170.352 
	85.489,146.97 112.489,146.97 125.99,170.352 112.489,193.734 "></polygon>
<polygon fill="#FFFFFF" stroke="#EB242B" stroke-width="0.866" points="26.992,107.971 8.994,76.795 26.992,45.619 62.992,45.619 
	80.99,76.795 62.992,107.971 "></polygon>
<polygon fill="none" stroke="#00AEEF" stroke-width="0.866" stroke-dasharray="2.8863" points="31.491,100.177 17.993,76.795 
	31.491,53.413 58.491,53.413 71.991,76.795 58.491,100.177 "></polygon>
<polygon fill="#FFFFFF" stroke="#EB242B" stroke-width="0.866" points="27.001,170.323 9.003,139.147 27.001,107.971 
	63.001,107.971 81,139.147 63.001,170.323 "></polygon>
<polygon fill="none" stroke="#00AEEF" stroke-width="0.866" stroke-dasharray="2.8863" points="31.5,162.529 18.002,139.147 
	31.5,115.766 58.5,115.766 72,139.147 58.5,162.529 "></polygon>
<g>
	<line fill="#FFFFFF" stroke="#000000" stroke-width="0.866" x1="135.005" y1="107.98" x2="171.005" y2="107.98"></line>
	<line fill="#FFFFFF" stroke="#000000" stroke-width="0.866" x1="135.005" y1="170.332" x2="117.007" y2="139.155"></line>
	<line fill="#FFFFFF" stroke="#000000" stroke-width="0.866" x1="135.004" y1="45.61" x2="117.006" y2="76.786"></line>
	<line fill="#FFFFFF" stroke="#000000" stroke-width="0.866" x1="62.989" y1="107.962" x2="26.989" y2="107.962"></line>
	<line fill="#FFFFFF" stroke="#000000" stroke-width="0.866" x1="62.989" y1="45.61" x2="80.987" y2="76.786"></line>
	<line fill="#FFFFFF" stroke="#000000" stroke-width="0.866" x1="134.998" y1="107.962" x2="117" y2="139.139"></line>
	<line fill="#FFFFFF" stroke="#000000" stroke-width="0.866" x1="117" y1="76.786" x2="134.998" y2="107.962"></line>
	<line fill="#FFFFFF" stroke="#000000" stroke-width="0.866" x1="81" y1="76.786" x2="117" y2="76.786"></line>
	<line fill="#FFFFFF" stroke="#000000" stroke-width="0.866" x1="63.001" y1="107.962" x2="81" y2="76.786"></line>
	<line fill="#FFFFFF" stroke="#000000" stroke-width="0.866" x1="81" y1="139.139" x2="63.001" y2="107.962"></line>
	<line fill="#FFFFFF" stroke="#000000" stroke-width="0.866" x1="81.009" y1="139.139" x2="117.009" y2="139.139"></line>
	<line fill="#FFFFFF" stroke="#000000" stroke-width="0.866" x1="63.011" y1="170.314" x2="81.009" y2="139.139"></line>
</g>
<rect x="124.135" y="197.337" fill="#D1D2D3" width="73.865" height="18.663"></rect>

<g>
	<ellipse fill-rule="evenodd" clip-rule="evenodd" fill="#010101" cx="164.074" cy="22.531" rx="17.697" ry="17.71"></ellipse>
	<ellipse fill-rule="evenodd" clip-rule="evenodd" fill="#B7D334" cx="164.086" cy="22.629" rx="16.088" ry="16.1"></ellipse>
	<g>
		<path fill="#010101" d="M160.642,19.119c-0.224,1.974-0.389,3.558-0.499,4.755l-0.733,0.032c0.01-0.04,0.016-0.085,0.017-0.135
			c0.002-0.089-0.031-0.207-0.099-0.354c-0.067-0.146-0.106-0.239-0.115-0.279c-0.189,0.026-0.372,0.159-0.546,0.395
			c-0.173,0.237-0.33,0.354-0.469,0.352c-0.081-0.001-0.17-0.023-0.27-0.064c-0.131,0.087-0.301,0.124-0.51,0.111
			c-0.189-0.033-0.374-0.061-0.553-0.084c-0.006-0.249-0.252-0.468-0.737-0.657c0.001-0.099-0.048-0.248-0.149-0.444
			c-0.102-0.197-0.151-0.334-0.15-0.415c0.002-0.09,0.038-0.164,0.109-0.223c-0.011-0.03-0.092-0.216-0.246-0.559
			c-0.104-0.251-0.156-0.467-0.153-0.646c0.002-0.14,0.035-0.27,0.097-0.388c-0.085-0.851-0.123-1.58-0.112-2.188
			c0.016-0.938,0.149-1.8,0.403-2.585c-0.019-0.12-0.026-0.239-0.024-0.359c0.011-0.629,0.228-1.064,0.65-1.307l0.004-0.194
			c0.418-0.533,0.968-0.917,1.65-1.156c0.407,0.097,0.815,0.189,1.223,0.276c0.456,0.157,0.771,0.427,0.944,0.81
			c0.138,0.083,0.205,0.249,0.2,0.498c-0.004,0.28,0.028,0.46,0.097,0.541l-0.076,0.089c0.079,0.59,0.118,0.951,0.116,1.08
			c-0.007,0.38-0.106,0.647-0.298,0.804c-0.07-0.001-0.254-0.064-0.551-0.188c-0.071,0.068-0.146,0.102-0.227,0.101
			c-0.04,0-0.112-0.021-0.217-0.063c-0.104-0.042-0.19-0.063-0.26-0.064c-0.051-0.001-0.101,0.008-0.15,0.027
			c-0.006-0.789,0.019-1.377,0.074-1.767c-0.079-0.051-0.158-0.167-0.24-0.348c-0.082-0.181-0.188-0.283-0.316-0.305
			c-0.081,0.098-0.118,0.162-0.108,0.192l-0.268-0.094c-0.244,0.266-0.406,0.727-0.487,1.384c-0.083,0.757-0.186,1.26-0.31,1.507
			c0.107,0.112,0.159,0.268,0.156,0.467c-0.001,0.07-0.013,0.185-0.036,0.344s-0.034,0.279-0.035,0.359
			c-0.002,0.09,0.006,0.17,0.024,0.24l-0.182,0.177c0.074,0.34,0.117,0.771,0.128,1.29c-0.008,0.439-0.011,0.879-0.008,1.318
			c-0.011,0-0.095,0.003-0.255,0.011c-0.1-0.002-0.17,0.032-0.211,0.102c0.061-0.009,0.115-0.014,0.165-0.013
			c0.22,0.003,0.392,0.159,0.516,0.465c0.124,0.307,0.231,0.461,0.321,0.463c0.1,0.001,0.236-0.091,0.41-0.278
			c0.293-0.315,0.446-0.747,0.455-1.295c0.005-0.27-0.025-0.56-0.09-0.871c-0.072,0.04-0.107,0.138-0.11,0.297
			c-0.159-0.002-0.26,0.031-0.301,0.1c-0.069-0.021-0.099-0.076-0.087-0.166c0.012-0.129,0.019-0.199,0.019-0.209
			c0.121-0.038,0.18-0.092,0.182-0.162c0.001-0.029-0.021-0.085-0.064-0.166c-0.043-0.081-0.064-0.146-0.063-0.196
			c0.001-0.04,0.012-0.08,0.032-0.12l0.069-0.583c0.219,0.063,0.691,0.091,1.421,0.084c-0.021,0.05,0.008,0.115,0.087,0.196
			c0.07-0.069,0.146-0.102,0.226-0.101c0.06,0.001,0.148,0.028,0.269,0.08C160.508,19.092,160.592,19.118,160.642,19.119z"></path>
		<path fill="#010101" d="M166.227,24.276c-0.139-0.062-0.287-0.095-0.447-0.097c-0.14-0.002-0.33,0.024-0.57,0.081
			c-0.271,0.055-0.455,0.086-0.555,0.095c-0.107-0.211-0.182-0.503-0.226-0.873c-0.08-0.54-0.131-0.845-0.148-0.916
			c0.031-0.06,0.047-0.109,0.048-0.148c0.002-0.11-0.085-0.208-0.258-0.296c-0.174-0.088-0.259-0.157-0.258-0.207
			c0-0.06,0.103-0.148,0.304-0.265c-0.049-0.061-0.085-0.184-0.105-0.368c-0.022-0.185-0.068-0.309-0.137-0.37
			c-0.121,0.108-0.319,0.177-0.594,0.207c-0.275,0.031-0.459,0.075-0.549,0.133c0.006,0.779-0.122,1.302-0.386,1.566
			c-0.14-0.033-0.246,0.021-0.317,0.16c-0.103,0.167-0.189,0.266-0.26,0.294l0.088,0.106c-0.081,0.068-0.211,0.097-0.39,0.083
			c-0.28-0.015-0.429-0.022-0.449-0.022l-0.085-0.271l0.976-8.086c0.008-0.509,0.033-0.853,0.077-1.032
			c-0.013-0.45,0.092-0.727,0.312-0.833c0.138,0.092,0.312,0.14,0.522,0.144c0.169,0.002,0.435-0.033,0.794-0.106
			c0.361-0.074,0.61-0.109,0.751-0.107c0.488,0.009,0.701,0.362,0.641,1.06c-0.05,0.558,0.038,1.293,0.262,2.207
			c0.232,0.982,0.346,1.718,0.337,2.207c-0.003,0.15,0.047,0.46,0.034,0.61c-0.212,0.116-0.481,0.186-0.812,0.21
			c-0.29,0.015-0.584,0.03-0.885,0.045c-0.076-0.76-0.21-1.676-0.288-2.426c-0.094-0.9-0.211-1.641-0.351-2.222l-0.462,4.275
			c-0.035,0.369,0.131,0.557,0.5,0.563c0.119,0.001,0.234-0.027,0.345-0.084c0.091-0.029,0.215,0.039,0.372,0.201
			c-0.006,0.31,0.056,0.495,0.185,0.558c0.161-0.108,0.372-0.208,0.634-0.304c0.23-0.085,0.456-0.167,0.678-0.243
			c0.126,0.172,0.207,0.428,0.241,0.768c0.042,0.48,0.071,0.76,0.091,0.84c0.016,0.19,0.095,0.601,0.233,1.232
			c0.101,0.5,0.149,0.906,0.144,1.215C166.261,24.007,166.249,24.146,166.227,24.276z"></path>
		<path fill="#010101" d="M173.118,17.145c-0.012,0.029-0.014,0.204-0.009,0.523c-0.005,0.26-0.038,0.454-0.1,0.583
			c-0.074,0.198-0.113,0.482-0.12,0.851c-0.001,0.081,0.001,0.205,0.009,0.375c-0.003,0.169-0.005,0.294-0.006,0.374
			c-0.011,0.629-0.118,1.086-0.323,1.373c0.018,0.161,0.024,0.32,0.022,0.479c-0.009,0.499-0.181,1.17-0.513,2.013
			c-0.091,0.029-0.167,0.042-0.227,0.042c-0.119-0.002-0.205-0.071-0.259-0.207c-0.053-0.136-0.102-0.264-0.149-0.385
			c0.032-0.768,0.017-1.887-0.048-3.355l0.091-0.088c-0.065-0.261-0.095-0.551-0.09-0.87c0.004-0.229,0.032-0.564,0.084-1.002
			c0.053-0.438,0.081-0.768,0.084-0.987c0.003-0.14-0.001-0.275-0.007-0.404c-0.344,0.823-0.588,2.217-0.73,4.181l-0.124,0.297
			c-0.042,0.099-0.128,0.153-0.257,0.161c-0.04-0.07-0.078-0.106-0.118-0.106c-0.03-0.001-0.084,0.036-0.159,0.109
			c-0.076,0.073-0.139,0.104-0.189,0.094l-0.197,0.177c0.088,0.111,0.277,0.124,0.568,0.04c0.23-0.066,0.349,0.02,0.355,0.26
			c0.006,0.2-0.049,0.469-0.164,0.807c-0.116,0.337-0.175,0.591-0.178,0.761c-0.002,0.119,0.011,0.24,0.039,0.36l-1.036,0.163
			c-0.096-0.202-0.167-0.54-0.214-1.015s-0.119-0.813-0.215-1.015c0.061-0.068,0.092-0.143,0.093-0.223
			c0.001-0.07-0.026-0.175-0.084-0.316c-0.058-0.141-0.091-0.247-0.1-0.316c-0.009-0.11-0.043-0.375-0.106-0.795
			c-0.044-0.34-0.065-0.606-0.062-0.795c0.002-0.1,0.009-0.189,0.021-0.269c0.001-0.07-0.038-0.173-0.115-0.31
			c-0.078-0.136-0.115-0.234-0.114-0.294c0.001-0.049,0.021-0.094,0.062-0.132c-0.068-0.082-0.096-0.222-0.082-0.422
			c0.013-0.199-0.015-0.34-0.083-0.42c-0.146,0.387-0.225,0.91-0.236,1.569c-0.005,0.918-0.015,1.448-0.026,1.586l0.103,0.092
			l-0.105,0.088c0.073,0.361,0.105,0.82,0.096,1.379c-0.027,1.007-0.04,1.477-0.038,1.408c-0.142,0.127-0.338,0.188-0.587,0.184
			c-0.31-0.005-0.52,0.022-0.63,0.079c-0.127-0.221-0.187-0.507-0.18-0.856c0.004-0.27,0.05-0.598,0.136-0.986
			c-0.136-0.252-0.199-0.603-0.191-1.052c0.002-0.11,0.015-0.319,0.04-0.628c0.014-0.249,0.018-0.434,0.01-0.554
			c0.101-0.048,0.151-0.102,0.152-0.162c0.001-0.04-0.03-0.107-0.094-0.204c-0.063-0.096-0.095-0.168-0.094-0.218
			c0.001-0.06,0.042-0.119,0.122-0.178l-0.322-4.843c0.192-0.126,0.503-0.187,0.933-0.179c0.468,0.018,0.787-0.007,0.959-0.073
			c0.03-0.02,0.064-0.029,0.104-0.029s0.087,0.024,0.142,0.07c0.054,0.046,0.091,0.069,0.11,0.069
			c0.04,0.001,0.076-0.029,0.106-0.088l0.279,0.274c0.094,0.351,0.183,1.031,0.266,2.041c0.084,0.87,0.218,1.527,0.4,1.969
			c0.244-0.884,0.446-1.625,0.606-2.221l0.325-2.37l2.319-0.051c0.008,0.13,0.037,0.824,0.1,1.225
			c0.054,0.35,0.079,0.635,0.075,0.854c-0.004,0.25-0.043,0.474-0.116,0.672c0.078,0.112,0.115,0.251,0.112,0.421
			C173.242,16.897,173.199,17.036,173.118,17.145z"></path>
		<path fill="#010101" d="M177.878,22.392v-0.015c-0.062,0.129-0.1,0.278-0.112,0.448c-0.012,0.109-0.015,0.264-0.008,0.464
			c0.006,0.23,0.009,0.39,0.008,0.479c-0.081,0-0.4-0.006-0.959-0.016c-0.339-0.006-0.644,0.023-0.914,0.089l-0.279-0.304
			c-0.082,0.078-0.111,0.143-0.093,0.193c-0.05-0.012-0.28-0.015-0.688-0.012c-0.319-0.005-0.559-0.04-0.717-0.102
			c-0.162,0.167-0.353,0.164-0.568-0.009c-0.079-0.061-0.087-0.165-0.025-0.308c0.062-0.144,0.045-0.251-0.054-0.323
			c0.015-0.319,0.059-0.812,0.13-1.48c0.07-0.598,0.107-1.067,0.113-1.406c0.008-0.459-0.024-0.899-0.097-1.319
			c0.111-0.108,0.236-0.161,0.376-0.159c0.16,0.002,0.348,0.081,0.565,0.234c0.305,0.215,0.464,0.322,0.474,0.323l0.087,0.106
			c0.011-0.03,0.063-0.188,0.158-0.477c0.053-0.188,0.13-0.312,0.231-0.37l0.089,0.091c0.04-0.019,0.17-0.112,0.394-0.278
			c0.17-0.117,0.311-0.394,0.41-0.392c0.11,0.002,0.213,0.063,0.311,0.185c0.169,0.093,0.274,0.451,0.326,0.637
			s0.102,0.368,0.148,0.55c-0.449,0.012-0.818,0-1.106-0.034c-0.072,0.108-0.172,0.124-0.301,0.047
			c-0.129-0.077-0.224-0.065-0.285,0.033c-0.003,0.18-0.009,0.504-0.017,0.973c-0.018,0.419-0.022,0.749-0.017,0.989
			c0.004,0.369,0.028,0.709,0.072,1.02c0.08,0.001,0.459,0.008,1.137,0.019C177.137,22.275,177.54,22.316,177.878,22.392z
			 M177.91,15.219c-0.09,0.008-0.189,0.011-0.3,0.01c-0.229-0.004-0.533-0.039-0.911-0.105c-0.468-0.068-0.752-0.107-0.852-0.119
			c-0.143,0.206-0.217,0.5-0.224,0.879c-0.015,0.818-0.016,1.173-0.004,1.063c0.139,0.082,0.206,0.233,0.202,0.453
			c-0.016,0.299-0.018,0.454-0.008,0.464c-0.07,0.029-0.106,0.128-0.109,0.298c-0.109-0.042-0.223-0.124-0.34-0.245
			c-0.158-0.153-0.241,0.365-0.229,0.235l-0.095,0.308l-0.089-0.092c-0.08,0.009-0.216-0.033-0.409-0.126
			c-0.193-0.093-0.328-0.18-0.407-0.262c0.003-0.16,0.03-0.249,0.079-0.269l-0.19-0.212l-0.092,0.133
			c-0.112-1.041-0.084-2.986,0.054-4.082c0.378,0.067,0.797,0.109,1.255,0.126c0.31,0.015,0.743,0.022,1.302,0.022
			c0.639,0,1.099,0.003,1.377,0.008c0.118,0.113,0.176,0.258,0.173,0.438c-0.002,0.111-0.033,0.287-0.092,0.531
			C177.942,14.917,177.912,15.099,177.91,15.219z"></path>
	</g>
	<g>
		<path fill="#010101" d="M161.092,31.446V31.44c0,0.004-0.025,0.224-0.078,0.66c-0.024,0.268-0.089,0.478-0.193,0.631l-0.064-0.053
			c-0.121,0.254-0.285,0.408-0.495,0.463c-0.1,0.106-0.244,0.164-0.433,0.175c-0.111,0.006-0.37-0.026-0.775-0.097
			c-0.195-0.122-0.303-0.189-0.321-0.203c-0.123-0.093-0.182-0.187-0.176-0.282c-0.118-0.122-0.286-0.338-0.35-0.61
			c-0.076-0.3-0.122-0.317-0.193-0.422c-0.112,0.083-0.153-0.093-0.219-0.199l0.06-0.046c-0.037-0.026-0.057-0.056-0.059-0.089
			c-0.001-0.023,0.009-0.058,0.03-0.104c0.021-0.046,0.03-0.082,0.028-0.105c-0.002-0.037-0.024-0.069-0.066-0.096
			c0.045-0.235,0.086-0.589,0.123-1.062c0.081-0.043,0.119-0.126,0.115-0.249c-0.005-0.123,0.012-0.205,0.051-0.245
			c0.19-0.382,0.5-0.64,0.93-0.774c0.023,0.003,0.138,0.001,0.344-0.005c0.143-0.004,0.248,0.009,0.321,0.038
			c0.128-0.021,0.257,0.009,0.385,0.092c0.112,0.084,0.224,0.167,0.334,0.251c0.208,0.225,0.32,0.48,0.337,0.764
			c0.006,0.095-0.001,0.194-0.019,0.3c-0.153-0.005-0.263,0.096-0.327,0.304l-0.599,0.056c-0.064-0.091-0.102-0.212-0.109-0.364
			c-0.004-0.053-0.003-0.128,0-0.228s0.003-0.176,0-0.228c-0.009-0.157-0.046-0.281-0.11-0.372l-0.18,0.103
			c-0.072-0.029-0.11-0.072-0.113-0.128c-0.001-0.019,0.002-0.046,0.009-0.083c0.006-0.036,0.01-0.061,0.009-0.075
			c-0.004-0.062-0.06-0.099-0.166-0.112c-0.073,0.674-0.095,1.367-0.065,2.078c0.019,0.023,0.076,0.039,0.171,0.047
			c0.077,0.009,0.117,0.034,0.119,0.071c0,0.015-0.004,0.034-0.015,0.058l-0.059,0.046c0.031,0.051,0.051,0.121,0.057,0.211
			c0.002,0.047,0,0.12-0.006,0.217c-0.006,0.098-0.008,0.171-0.005,0.218c0.009,0.142,0.043,0.25,0.107,0.322
			c-0.006,0.104,0.037,0.176,0.127,0.213c0.058-0.023,0.109-0.035,0.157-0.038c0.183-0.011,0.309,0.088,0.38,0.299
			c0,0.004-0.001,0.04-0.003,0.107c0.003,0.038,0.021,0.062,0.058,0.074c0.08-0.047,0.12-0.132,0.118-0.256
			c-0.002-0.143,0.017-0.234,0.056-0.274c-0.01-0.065-0.05-0.161-0.119-0.285c-0.069-0.124-0.105-0.222-0.11-0.293
			c-0.005-0.076,0.019-0.148,0.067-0.218c-0.042-0.012-0.062-0.039-0.058-0.082c0.002-0.067,0.003-0.103,0.003-0.107
			C160.427,31.374,160.758,31.371,161.092,31.446z"></path>
		<path fill="#010101" d="M163.8,32.003h-0.008c-0.035,0.068-0.046,0.167-0.032,0.293c0.016,0.181,0.023,0.273,0.024,0.277
			c-0.027,0.01-0.063-0.003-0.11-0.04c-0.069,0.026-0.102,0.07-0.099,0.132c0.001,0.009,0.004,0.024,0.011,0.045
			c0.002,0.026,0.003,0.044,0.003,0.053c0.003,0.048-0.012,0.085-0.043,0.109c-0.079-0.044-0.184-0.072-0.313-0.084
			c-0.13-0.013-0.252-0.024-0.368-0.035c-0.002-0.601-0.083-1.188-0.242-1.763c0,0.004-0.003-0.055-0.01-0.178
			c0-0.088-0.02-0.151-0.061-0.188l-0.056,0.05c0-0.009,0.018-0.027,0.056-0.053c0.037-0.026,0.055-0.053,0.053-0.08
			c-0.001-0.013-0.005-0.025-0.011-0.039l-0.061-0.043c-0.103,0.033-0.149,0.115-0.142,0.247c0.006,0.088-0.03,0.15-0.104,0.185
			c0.029,0.021,0.044,0.046,0.045,0.077c0.002,0.018-0.001,0.042-0.007,0.073c-0.007,0.031-0.01,0.056-0.009,0.073
			c0.003,0.039,0.023,0.071,0.063,0.096c0.001,0.026,0.016,0.264,0.04,0.713c0.019,0.287,0.01,0.53-0.021,0.73l0.006,0.113
			c-0.039-0.002-0.082-0.001-0.132,0c-0.055,0.003-0.134,0.011-0.237,0.024c-0.104,0.013-0.18,0.021-0.229,0.023
			c-0.203,0.012-0.345-0.022-0.427-0.102l-0.085-2.467c-0.04-0.121-0.065-0.29-0.078-0.506l-0.028-0.475
			c-0.019-0.233-0.048-0.413-0.089-0.539c0.017-0.085,0.092-0.131,0.223-0.138c0.082-0.005,0.192,0.006,0.331,0.033
			c0.063-0.03,0.153-0.048,0.269-0.056c0.033-0.002,0.084-0.002,0.156-0.002c0.076-0.004,0.131-0.007,0.164-0.009
			c0.213-0.012,0.354-0.078,0.425-0.197c0.099-0.001,0.206,0.03,0.322,0.094s0.219,0.098,0.307,0.102
			c0.232,0.137,0.357,0.363,0.377,0.68c0.004,0.071-0.023,0.351-0.084,0.84l-0.399,0.348c0.068,0.125,0.149,0.395,0.246,0.814
			C163.516,31.584,163.638,31.84,163.8,32.003z M163.062,29.196l0.008,0.006c0.008,0.031,0.004-0.077-0.011-0.324
			c-0.007-0.119-0.05-0.205-0.13-0.258c-0.045,0.065,0.007,0.095-0.016,0.244c-0.021,0.149-0.109,0.107-0.16,0.172
			c-0.138-0.001-0.17,0.082-0.198-0.049c-0.062-0.213-0.115-0.194-0.115-0.198l-0.059,0.035c-0.021,0.019-0.045,0.04-0.07,0.063
			s-0.053,0.032-0.08,0.024c0.001,0.027-0.012,0.069-0.038,0.126c-0.027,0.057-0.04,0.096-0.039,0.118
			c0.003,0.04,0.034,0.068,0.096,0.087c-0.012,0.089-0.014,0.182-0.008,0.279c0.002,0.052,0.015,0.173,0.037,0.361
			c0.024,0.149,0.035,0.277,0.03,0.383c0.05,0.002,0.096,0.002,0.141-0.001c0.19-0.011,0.315-0.087,0.372-0.227
			c0.02-0.041,0.042-0.188,0.065-0.441C162.909,29.406,162.967,29.272,163.062,29.196z"></path>
		<path fill="#010101" d="M166.906,32.961c-0.078-0.022-0.161-0.031-0.248-0.026c-0.076,0.004-0.18,0.024-0.31,0.058
			c-0.146,0.035-0.247,0.056-0.301,0.064c-0.065-0.089-0.116-0.214-0.153-0.376c-0.063-0.234-0.102-0.367-0.113-0.397
			c0.015-0.027,0.021-0.05,0.021-0.067c-0.003-0.048-0.054-0.088-0.151-0.12s-0.147-0.059-0.149-0.081
			c0-0.026,0.052-0.069,0.158-0.128c-0.029-0.025-0.053-0.077-0.071-0.158s-0.047-0.133-0.087-0.158
			c-0.063,0.053-0.169,0.091-0.319,0.115c-0.148,0.024-0.247,0.051-0.295,0.08c0.031,0.343,0,0.945-0.136,1.072
			c-0.077-0.009-0.133,0.018-0.168,0.082c-0.05,0.078-0.094,0.126-0.132,0.141l0.052,0.043c-0.042,0.033-0.112,0.051-0.211,0.052
			c-0.153,0.005-0.235,0.007-0.246,0.007l-0.056-0.116l0.229-3.967c-0.012-0.224-0.011-0.377,0.008-0.457
			c-0.023-0.198,0.025-0.324,0.142-0.38c0.079,0.035,0.176,0.05,0.291,0.043c0.093-0.006,0.236-0.031,0.432-0.078
			c0.194-0.046,0.33-0.072,0.406-0.077c0.269-0.016,0.397,0.132,0.389,0.441c-0.008,0.249,0.065,0.568,0.22,0.962
			c0.162,0.423,0.249,0.743,0.262,0.959c0.004,0.066,0.091,0.206,0.09,0.272c-0.111,0.06-0.258,0.102-0.437,0.125
			c-0.159,0.018-0.319,0.036-0.483,0.055c-0.068-0.333-0.224-0.736-0.292-1.063c-0.082-0.393-0.173-0.714-0.27-0.965l-0.104,1.902
			c-0.007,0.164,0.091,0.24,0.293,0.228c0.065-0.003,0.128-0.021,0.187-0.05c0.049-0.016,0.118,0.009,0.209,0.074
			c0.009,0.137,0.049,0.216,0.122,0.238c0.085-0.053,0.196-0.106,0.336-0.159c0.123-0.047,0.244-0.091,0.362-0.134
			c0.075,0.071,0.129,0.181,0.159,0.329c0.039,0.21,0.065,0.332,0.079,0.367c0.016,0.083,0.072,0.261,0.171,0.534
			c0.073,0.216,0.113,0.393,0.121,0.529C166.916,32.84,166.914,32.902,166.906,32.961z"></path>
		<path fill="#010101" d="M169.171,28.461l0.01,0c-0.066,0.097-0.15,0.115-0.252,0.055c-0.022-0.004-0.121,0.002-0.296,0.017
			c-0.147,0.009-0.254,0.002-0.322-0.021c-0.016,0.001-0.049,0.017-0.096,0.048c-0.048,0.032-0.082,0.048-0.104,0.049
			c-0.032,0.002-0.051-0.025-0.054-0.083c0-0.008-0.003-0.046-0.007-0.112c-0.003-0.043-0.023-0.074-0.062-0.089l-0.103,0.079
			c-0.032,0.024-0.047,0.049-0.045,0.076c0.001,0.022,0.02,0.053,0.055,0.093c0.035,0.041,0.056,0.069,0.062,0.086
			c0.001,0.013,0.013,0.212,0.034,0.595c0.009,0.243,0.054,0.436,0.133,0.582c0.021-0.023,0.07-0.036,0.15-0.039
			c0.079-0.002,0.132-0.02,0.157-0.052c0.052,0.046,0.139,0.048,0.26,0.008s0.208-0.026,0.262,0.041l-0.016,0.584
			c-0.05-0.006-0.123-0.03-0.219-0.073c-0.027,0.085-0.082,0.14-0.163,0.162c-0.032,0.011-0.125,0.021-0.278,0.03
			c0.004-0.027-0.019-0.054-0.07-0.082c-0.149,0.07-0.205,0.239-0.168,0.506c0.004-0.027,0.01,0.02,0.017,0.139
			c0.004,0.075-0.012,0.129-0.048,0.162c-0.094,0.014-0.211-0.006-0.354-0.062c-0.144-0.056-0.246-0.082-0.306-0.078
			c-0.027,0.001-0.052,0.005-0.073,0.011l-0.153,0.048l-0.246-2.669l-0.028-0.508c0.203-0.069,0.457-0.113,0.757-0.13
			c0.235-0.013,0.543-0.011,0.923,0.006c0.023-0.05,0.068,0.016,0.123,0.012c0.028-0.001,0.069,0.002,0.125,0.01
			c0.055,0.008,0.096,0.011,0.124,0.009c0.032-0.002,0.062-0.008,0.089-0.019l0.039-0.042c0.111,0.034,0.17,0.092,0.174,0.176
			c0.003,0.035-0.008,0.095-0.03,0.181c-0.022,0.085-0.032,0.15-0.03,0.193C169.144,28.397,169.154,28.432,169.171,28.461z
			 M168.213,32.916c-0.06,0.03-0.148,0.048-0.269,0.055c-0.159,0.009-0.255,0.017-0.287,0.023c-0.018-0.017-0.038-0.003-0.073-0.143
			c-0.022-0.091-0.08-0.134-0.173-0.128c-0.022,0.001-0.049,0.005-0.081,0.011l-0.148,0.008l-0.078-1.351
			c0.08-0.04,0.18-0.064,0.3-0.07c0.116-0.007,0.218,0.005,0.308,0.035c-0.003,0.048,0.067,0.069,0.209,0.061l0.155-0.009
			C168.168,31.787,168.225,32.473,168.213,32.916z"></path>
		<path fill="#010101" d="M172.452,28.577l0.009,0.006c-0.077-0.005-0.324,0.012-0.515,0.036c-0.164,0.019-0.288,0.021-0.371,0.009
			c-0.079,0.053-0.107,0.125-0.085,0.217l0.05,0.03c-0.041,0.037-0.056,0.067-0.044,0.089l0.044,0.043
			c-0.01,0.783-0.012,1.216-0.007,1.3c0.012,0.207,0.036,0.388,0.072,0.545c-0.032,0.1-0.045,0.213-0.037,0.34
			c0.005,0.083,0.024,0.216,0.06,0.397c0.035,0.182,0.083,0.777,0.088,0.87c0.004,0.07,0.002,0.137-0.005,0.199
			c-0.075,0.031-0.156,0.049-0.244,0.054c-0.147,0.009-0.306-0.022-0.475-0.091c-0.021,0.019-0.044,0.039-0.07,0.06
			c-0.026,0.022-0.033,0.046-0.021,0.071c-0.054,0.017-0.129-0.006-0.227-0.066c-0.051-0.793-0.193-2.407-0.403-4.039
			c-0.073,0.066-0.208,0.011-0.351,0.028c-0.169,0.019-0.334-0.007-0.398,0.023c-0.082-0.088-0.064-0.113-0.072-0.259
			c-0.009-0.141-0.054-0.488-0.018-0.634c0.007-0.031,0.313-0.013,0.493-0.027c0.246-0.015,0.301,0.043,0.316,0.042
			c0.021-0.032,0.141-0.016,0.228-0.021c0.057,0.028,0.118-0.025,0.12,0.014c0.002,0.026,0,0.193-0.019,0.241
			c-0.02,0.047-0.028,0.082-0.027,0.104c0.004,0.053,0.041-0.024,0.131,0.005c0.099-0.001,0.2-0.005,0.304-0.01
			c0.115,0.01,0.249-0.032,0.238,0.066c0.021-0.028,0.032,0.021,0.199-0.045c0.123-0.056,0.197-0.201,0.174-0.3
			c-0.014-0.054,0.061-0.089,0.015-0.063c0.059-0.032,0.005-0.01,0.069-0.036c0.205,0.019,0.318-0.002,0.356-0.005
			c0.083-0.005,0.286,0.049,0.345,0.019c0.043,0.077,0.064,0.318,0.066,0.45C172.448,28.451,172.451,28.563,172.452,28.577z"></path>
		<path fill="#010101" d="M175.111,31.333l-0.002-0.006c-0.029,0.06-0.044,0.127-0.045,0.202c-0.003,0.049,0.001,0.117,0.012,0.205
			c0.011,0.102,0.018,0.172,0.021,0.211c-0.045,0.002-0.22,0.012-0.525,0.03c-0.186,0.011-0.352,0.036-0.497,0.075l-0.163-0.123
			c-0.042,0.039-0.057,0.068-0.045,0.089c-0.027-0.002-0.153,0.004-0.377,0.022c-0.176,0.01-0.308,0.004-0.397-0.017
			c-0.082,0.08-0.187,0.086-0.311,0.018c-0.045-0.023-0.054-0.069-0.024-0.134c0.029-0.066,0.016-0.113-0.042-0.141
			c-0.001-0.141,0.004-0.36,0.021-0.657c0.018-0.266,0.021-0.474,0.014-0.624c-0.013-0.203-0.046-0.396-0.1-0.578
			c0.057-0.052,0.123-0.08,0.2-0.084c0.088-0.005,0.192,0.022,0.318,0.081c0.175,0.082,0.265,0.124,0.27,0.124l0.052,0.042
			c0.005-0.014,0.027-0.086,0.07-0.216c0.021-0.085,0.06-0.142,0.113-0.172l0.051,0.036c0.022-0.009,0.091-0.055,0.207-0.137
			c0.09-0.059,0.151-0.272,0.206-0.276c0.06-0.003,0.119,0.02,0.177,0.069c0.095,0.034,0.171,0.275,0.206,0.354
			c0.034,0.08,0.067,0.158,0.1,0.236c-0.245,0.023-0.447,0.033-0.606,0.029c-0.036,0.051-0.091,0.062-0.163,0.033
			c-0.073-0.029-0.125-0.021-0.155,0.026c0.005,0.079,0.013,0.222,0.024,0.429c0.006,0.185,0.015,0.33,0.025,0.436
			c0.015,0.163,0.041,0.311,0.076,0.446c0.043-0.002,0.251-0.014,0.623-0.036C174.7,31.311,174.922,31.313,175.111,31.333z
			 M174.856,28.226c-0.049,0.007-0.104,0.013-0.164,0.016c-0.126,0.007-0.292,0.003-0.503-0.011
			c-0.258-0.012-0.415-0.018-0.47-0.019c-0.071,0.097-0.081,0.175-0.071,0.343c0.021,0.36,0.033,0.517,0.035,0.468
			c0.079,0.031,0.121,0.095,0.127,0.191c0.002,0.132,0.006,0.2,0.013,0.205c-0.038,0.015-0.055,0.061-0.05,0.135
			c-0.062-0.013-0.127-0.045-0.195-0.095c-0.092-0.061-0.12,0.155-0.118,0.097l-0.042,0.135l-0.051-0.037
			c-0.044,0.007-0.12-0.006-0.229-0.04c-0.109-0.033-0.187-0.066-0.232-0.099c-0.004-0.071,0.007-0.111,0.034-0.122l-0.112-0.086
			l-0.045,0.062c-0.099-0.454-0.163-1.253-0.126-1.742c0.21,0.014,0.454-0.022,0.706-0.033c0.169-0.005,0.407-0.019,0.713-0.041
			c0.35-0.025,0.602-0.042,0.754-0.051c0.068,0.044,0.106,0.106,0.11,0.186c0.003,0.049-0.008,0.128-0.032,0.237
			S174.854,28.173,174.856,28.226z"></path>
		<path fill="#010101" d="M177.84,30.864l-0.009,0.001c-0.034,0.067-0.045,0.166-0.032,0.293c0.016,0.18,0.024,0.272,0.024,0.277
			c-0.027,0.01-0.063-0.003-0.109-0.04c-0.07,0.025-0.103,0.07-0.1,0.131c0.001,0.009,0.004,0.024,0.011,0.046
			c0.002,0.026,0.003,0.044,0.003,0.053c0.004,0.048-0.011,0.084-0.043,0.108c-0.079-0.044-0.185-0.072-0.313-0.084
			c-0.13-0.012-0.253-0.024-0.368-0.035c-0.002-0.6-0.083-1.188-0.242-1.762c0,0.004-0.004-0.055-0.011-0.179
			c0.001-0.088-0.02-0.151-0.06-0.188l-0.055,0.049c-0.001-0.008,0.017-0.026,0.055-0.052c0.036-0.027,0.055-0.053,0.053-0.079
			c-0.001-0.013-0.005-0.027-0.011-0.04l-0.061-0.043c-0.102,0.033-0.149,0.115-0.142,0.247c0.006,0.088-0.03,0.15-0.104,0.186
			c0.028,0.021,0.044,0.046,0.046,0.077c0.001,0.017-0.003,0.042-0.008,0.073c-0.007,0.031-0.01,0.056-0.009,0.074
			c0.003,0.039,0.023,0.071,0.063,0.096c0.001,0.026,0.015,0.264,0.041,0.713c0.017,0.287,0.009,0.53-0.023,0.731l0.007,0.112
			c-0.039-0.002-0.082-0.002-0.132,0c-0.055,0.003-0.134,0.011-0.237,0.024c-0.104,0.012-0.18,0.021-0.229,0.023
			c-0.203,0.011-0.344-0.022-0.426-0.102l-0.086-2.467c-0.04-0.122-0.066-0.29-0.079-0.506l-0.027-0.476
			c-0.019-0.233-0.048-0.413-0.089-0.538c0.018-0.085,0.092-0.131,0.223-0.139c0.082-0.004,0.192,0.007,0.331,0.034
			c0.064-0.03,0.153-0.048,0.268-0.055c0.034-0.002,0.085-0.002,0.157-0.002c0.076-0.004,0.131-0.008,0.164-0.01
			c0.213-0.012,0.354-0.077,0.425-0.196c0.099-0.001,0.206,0.03,0.321,0.094c0.117,0.064,0.219,0.098,0.308,0.102
			c0.233,0.137,0.357,0.364,0.376,0.681c0.005,0.07-0.023,0.35-0.082,0.839l-0.4,0.348c0.068,0.125,0.149,0.396,0.245,0.814
			C177.554,30.446,177.677,30.701,177.84,30.864z M177.1,28.058l0.01,0.006c0.007,0.03,0.003-0.078-0.011-0.324
			c-0.008-0.119-0.051-0.206-0.13-0.258c-0.046,0.065-0.055-0.085-0.076,0.064c-0.021,0.15-0.058,0.256-0.108,0.321
			c-0.138-0.001-0.169-0.083-0.251-0.197c-0.051-0.073-0.076-0.01-0.076-0.014l-0.037,0.03c-0.021,0.019-0.044,0.04-0.07,0.064
			c-0.025,0.023-0.053,0.031-0.08,0.024c0.001,0.026-0.012,0.068-0.039,0.125c-0.026,0.057-0.039,0.096-0.038,0.118
			c0.003,0.039,0.034,0.068,0.096,0.087c-0.012,0.088-0.014,0.182-0.009,0.279c0.004,0.053,0.016,0.173,0.038,0.362
			c0.024,0.148,0.035,0.276,0.03,0.382c0.05,0.001,0.096,0.001,0.14-0.001c0.191-0.012,0.315-0.087,0.373-0.228
			c0.02-0.042,0.042-0.188,0.065-0.441C176.947,28.267,177.007,28.134,177.1,28.058z"></path>
	</g>
	<g>
		<path fill="#010101" d="M150.639,19.486v0.006c-0.024,0.229-0.032,0.387-0.024,0.475c-0.034,0.013-0.08,0.016-0.137,0.006
			c-0.073-0.012-0.114-0.018-0.128-0.017c-0.031,0.001-0.057,0.013-0.075,0.034c-0.046-0.03-0.075-0.042-0.092-0.038
			c-0.042,0.026-0.062,0.063-0.061,0.111c0.002,0.02,0.009,0.055,0.024,0.104c0.014,0.05,0.021,0.086,0.022,0.11
			c0.002,0.032-0.005,0.082-0.019,0.15c-0.015,0.068-0.021,0.125-0.02,0.169c0.004,0.052,0.014,0.133,0.034,0.244
			c0.02,0.11,0.03,0.194,0.034,0.25c-0.023,0.109-0.032,0.22-0.027,0.331c0.008,0.136,0.045,0.317,0.112,0.546
			c0.012,0.004,0.024,0.005,0.036,0.004c0.027-0.001,0.061-0.021,0.1-0.059c0.038-0.037,0.07-0.057,0.098-0.059
			c0.021,0,0.043,0.004,0.066,0.015c0.072,0.232,0.109,0.382,0.113,0.45c0.002,0.032,0.001,0.066-0.001,0.102
			c-0.107,0.025-0.183-0.011-0.227-0.108c0.006-0.028-0.01-0.058-0.047-0.088l-0.119,0.126c0.117,0.018,0.163,0.108,0.139,0.269
			c-0.01,0.033-0.035,0.05-0.075,0.052c-0.067,0-0.1-0.001-0.096-0.001l-0.099-0.175l-0.039,0.05
			c-0.032-0.083-0.07-0.123-0.114-0.121c-0.024,0.002-0.065,0.022-0.126,0.061c-0.06,0.039-0.109,0.06-0.149,0.062
			c-0.032,0.001-0.064-0.006-0.098-0.025c-0.002-0.048-0.007-0.097-0.016-0.149c-0.009-0.051-0.035-0.084-0.08-0.098
			c-0.003-0.124,0.001-0.449,0.011-0.977c0.004-0.4,0-0.723-0.014-0.97c-0.005-0.104-0.012-0.206-0.021-0.305
			c-0.021-0.031-0.042-0.046-0.062-0.045c-0.016,0.001-0.04,0.019-0.072,0.052s-0.061,0.049-0.085,0.046
			c-0.001-0.04-0.02-0.104-0.054-0.192c-0.034-0.088-0.053-0.152-0.056-0.192c-0.003-0.068,0.022-0.127,0.076-0.178l0.14,0.035
			c0.056-0.079,0.079-0.212,0.069-0.399c-0.002-0.035-0.007-0.092-0.015-0.17s-0.013-0.134-0.015-0.169
			c-0.015-0.307,0.079-0.466,0.282-0.476c0.075-0.004,0.168,0.009,0.277,0.04l0.133,0.036c0.012,0.051,0.018,0.104,0.021,0.16
			c0.004,0.076,0.001,0.187-0.01,0.333c-0.011,0.147-0.015,0.254-0.011,0.321c0.005,0.108,0.023,0.205,0.057,0.291
			c0.031-0.001,0.081-0.019,0.149-0.052c0.068-0.034,0.118-0.051,0.15-0.053C150.559,19.406,150.604,19.432,150.639,19.486z
			 M150.223,19.915l-0.007-0.137l-0.044-0.04L150.223,19.915z"></path>
		<path fill="#010101" d="M152.282,19.056l0.006,0c-0.015,0.108-0.031,0.217-0.05,0.326c-0.021,0.125-0.057,0.222-0.104,0.293
			c-0.009-0.003-0.058-0.027-0.147-0.071c-0.062-0.032-0.117-0.045-0.164-0.039c-0.036,0.233-0.056,0.553-0.06,0.956
			c-0.003,0.515-0.007,0.827-0.013,0.936c-0.06-0.005-0.105,0.014-0.135,0.058c-0.029,0.044-0.058,0.088-0.083,0.133
			c-0.011,0.024-0.016,0.046-0.015,0.066c0.001,0.032,0.029,0.063,0.082,0.092c0.054,0.03,0.081,0.063,0.083,0.099
			c-0.023,0.085-0.073,0.129-0.149,0.133c-0.035,0.001-0.099-0.009-0.188-0.033c-0.089-0.024-0.151-0.034-0.188-0.032l-0.086-1.71
			c0.034-0.046,0.048-0.076,0.044-0.092l-0.05-0.034c0.004-0.071,0.008-0.43,0.012-1.073c0.002-0.436,0.019-0.789,0.049-1.058
			c-0.004,0,0.119-0.008,0.37-0.024c0.155-0.008,0.255,0.035,0.3,0.128c0.001,0.088-0.008,0.236-0.026,0.445
			c-0.018,0.193-0.023,0.341-0.02,0.445c0.007,0.127,0.027,0.242,0.061,0.345C151.946,19.161,152.103,19.064,152.282,19.056z
			 M152.875,19.421c0.012,0.159,0.022,0.314,0.03,0.466c0.033,0.662,0.022,1.369-0.031,2.123c-0.058,0.051-0.146,0.062-0.265,0.034
			c-0.119-0.027-0.206-0.017-0.259,0.034c-0.068-0.088-0.109-0.248-0.12-0.479c-0.017-0.334-0.025-0.508-0.026-0.52
			c-0.015-0.839,0.067-1.516,0.245-2.033C152.655,19.101,152.797,19.226,152.875,19.421z"></path>
		<path fill="#010101" d="M154.972,20.29c-0.025,0.053-0.036,0.11-0.033,0.169c0.003,0.06,0.005,0.117,0.009,0.174
			c-0.006,0.047-0.02,0.096-0.04,0.145c-0.037-0.01-0.067-0.015-0.091-0.014c-0.028,0.002-0.057,0.012-0.086,0.032
			c-0.028,0.02-0.052,0.03-0.067,0.03c-0.023,0.001-0.056-0.007-0.097-0.025l-0.278-0.405c0.011,0.119,0.038,0.224,0.082,0.313
			c0.022,0.046,0.044,0.093,0.066,0.14c-0.162,0.028-0.254,0.033-0.274,0.014l-0.039,0.05l-0.097-0.127
			c-0.075,0.092-0.093,0.226-0.052,0.404c0.051,0.193,0.053,0.333,0.01,0.419c0.061,0.089,0.132,0.131,0.216,0.126
			c0.036-0.001,0.067-0.015,0.094-0.041c0.038-0.098,0.078-0.195,0.117-0.293c0.058-0.119,0.122-0.18,0.193-0.184
			c0.057-0.002,0.122,0.026,0.197,0.086c0.089,0.031,0.135,0.074,0.138,0.125c0.001,0.032-0.02,0.084-0.062,0.156
			c-0.042,0.072-0.062,0.128-0.061,0.168c0.001,0.016,0.004,0.029,0.009,0.041c-0.059,0.043-0.109,0.108-0.155,0.194
			s-0.105,0.146-0.18,0.177c-0.065,0.063-0.125,0.096-0.18,0.099c-0.045,0.002-0.11-0.032-0.198-0.101
			c-0.087-0.069-0.168-0.103-0.244-0.099c-0.031-0.07-0.109-0.148-0.233-0.234s-0.201-0.177-0.229-0.276
			c0.001,0.008-0.002-0.023-0.004-0.095c-0.003-0.04-0.02-0.065-0.052-0.076l0.045-0.044c-0.061,0-0.092-0.035-0.095-0.103
			c-0.001-0.008-0.001-0.024-0.003-0.048c0.003-0.02,0.005-0.036,0.004-0.048c-0.002-0.048-0.019-0.081-0.047-0.1l-0.011-0.209
			c-0.005-0.108-0.027-0.184-0.065-0.23c0.039-0.253,0.078-0.507,0.118-0.761c0.063-0.295,0.16-0.446,0.288-0.452
			c0.02-0.001,0.039,0.002,0.061,0.009c0.114-0.114,0.252-0.174,0.415-0.183c0.18-0.009,0.378,0.045,0.596,0.162
			C154.826,19.656,154.931,19.96,154.972,20.29z M154.148,19.63l-0.039,0.05c-0.028,0.005-0.061-0.009-0.099-0.043l0.007,0.138
			c-0.061,0.066-0.085,0.17-0.074,0.309c0.012,0.239,0.018,0.355,0.018,0.347l0.179-0.003c0.087-0.048,0.126-0.127,0.12-0.24
			c-0.003-0.056-0.022-0.147-0.059-0.275C154.164,19.784,154.147,19.69,154.148,19.63z"></path>
	</g>
	<g>
		<polygon fill-rule="evenodd" clip-rule="evenodd" fill="#010101" points="156.376,26.322 156.554,26.425 157.157,24.839 
			156.956,24.771 156.353,26.357 156.528,26.47 156.376,26.322 156.376,26.322 		"></polygon>
		<polygon fill-rule="evenodd" clip-rule="evenodd" fill="#010101" points="156.64,26.103 156.566,26.131 156.376,26.322 
			156.528,26.47 156.723,26.269 156.646,26.307 156.64,26.103 156.64,26.103 		"></polygon>
		<polygon fill-rule="evenodd" clip-rule="evenodd" fill="#010101" points="158.102,26.09 158.188,26.023 156.64,26.103 
			156.646,26.307 158.194,26.228 158.293,26.154 158.102,26.09 158.102,26.09 158.102,26.09 		"></polygon>
		<polygon fill-rule="evenodd" clip-rule="evenodd" fill="#010101" points="158.8,24.632 158.694,24.5 158.102,26.09 
			158.293,26.154 158.896,24.567 158.791,24.437 158.8,24.632 158.8,24.632 158.8,24.632 		"></polygon>
		<polygon fill-rule="evenodd" clip-rule="evenodd" fill="#010101" points="157.326,24.682 157.249,24.721 158.8,24.632 
			158.791,24.437 157.247,24.507 157.169,24.544 157.326,24.682 157.326,24.682 157.326,24.682 		"></polygon>
		<polygon fill-rule="evenodd" clip-rule="evenodd" fill="#010101" points="157.157,24.839 157.135,24.874 157.326,24.682 
			157.169,24.544 156.979,24.736 156.956,24.771 157.157,24.839 157.157,24.839 157.157,24.839 		"></polygon>
		<polygon fill-rule="evenodd" clip-rule="evenodd" fill="#010101" points="158.442,26.278 158.58,26.218 158.248,26.033 
			158.143,26.221 158.484,26.41 158.634,26.343 158.433,26.275 158.433,26.275 158.442,26.278 		"></polygon>
		<polygon fill-rule="evenodd" clip-rule="evenodd" fill="#010101" points="159.09,24.814 159.036,24.689 158.433,26.275 
			158.634,26.343 159.237,24.756 159.183,24.632 159.09,24.814 159.09,24.814 		"></polygon>
		<polygon fill-rule="evenodd" clip-rule="evenodd" fill="#010101" points="158.896,24.567 158.746,24.635 159.09,24.814 
			159.183,24.632 158.851,24.447 158.694,24.5 158.896,24.567 158.896,24.567 		"></polygon>
		<polygon fill="#010101" points="157.062,24.807 157.052,24.804 157.243,24.612 158.68,24.542 158.694,24.5 158.801,24.536 
			158.896,24.567 158.889,24.585 159.141,24.725 159.237,24.756 159.198,24.859 159.9,26.531 159.307,28.12 158.538,26.311 
			158.538,26.311 158.439,26.352 158.433,26.275 158.44,26.256 158.198,26.123 158.143,26.221 158.112,26.126 156.64,26.198 
			156.448,26.39 		"></polygon>
		<polygon fill-rule="evenodd" clip-rule="evenodd" fill="#010101" points="159.211,28.088 159.405,28.079 158.637,26.269 
			158.439,26.352 159.208,28.162 159.402,28.152 159.201,28.085 159.201,28.085 159.211,28.088 		"></polygon>
		<polygon fill-rule="evenodd" clip-rule="evenodd" fill="#010101" points="159.812,26.576 159.805,26.499 159.201,28.085 
			159.402,28.152 160.006,26.567 159.999,26.49 159.812,26.576 159.812,26.576 		"></polygon>
		<polygon fill-rule="evenodd" clip-rule="evenodd" fill="#010101" points="159.237,24.756 159.042,24.766 159.812,26.576 
			159.999,26.49 159.23,24.68 159.036,24.689 159.237,24.756 159.237,24.756 		"></polygon>
		<polygon fill-rule="evenodd" clip-rule="evenodd" fill="#FFFFFF" points="159.186,25.165 159.272,25.353 159.304,25.545 
			159.295,25.733 159.239,25.928 159.145,26.119 159.014,26.288 158.844,26.444 158.64,26.579 158.528,26.627 158.417,26.674 
			158.292,26.696 158.178,26.722 158.065,26.738 157.944,26.751 157.833,26.735 157.719,26.728 157.619,26.706 157.514,26.671 
			157.412,26.626 157.323,26.575 157.246,26.518 157.16,26.457 157.09,26.38 157.032,26.297 156.946,26.108 156.914,25.917 
			156.914,25.726 156.979,25.535 157.062,25.349 157.195,25.171 157.364,25.015 157.578,24.883 157.681,24.833 157.802,24.788 
			157.917,24.762 158.031,24.737 158.152,24.724 158.264,24.708 158.376,24.724 158.49,24.731 158.596,24.766 158.701,24.801 
			158.797,24.833 158.895,24.887 158.976,24.935 159.058,25.005 159.115,25.088 159.186,25.165 159.186,25.165 159.186,25.165 		"></polygon>
		<polygon fill-rule="evenodd" clip-rule="evenodd" fill="#010101" points="159.262,25.478 159.349,25.666 159.377,25.867 
			159.368,26.056 159.316,26.241 159.23,26.436 159.086,26.611 158.93,26.761 158.717,26.892 158.602,26.949 158.49,26.997 
			158.376,27.022 158.251,27.044 158.139,27.061 158.031,27.067 157.916,27.061 157.795,27.041 157.695,27.019 157.591,26.983 
			157.498,26.942 157.399,26.888 157.319,26.84 157.245,26.773 157.173,26.706 157.108,26.61 157.02,26.431 156.988,26.239 
			157.001,26.042 157.051,25.857 157.138,25.662 157.27,25.493 157.438,25.336 157.65,25.206 157.766,25.148 157.875,25.11 
			157.993,25.075 158.117,25.053 158.226,25.046 158.337,25.031 158.449,25.046 158.563,25.053 158.673,25.078 158.777,25.113 
			158.87,25.155 158.973,25.2 159.049,25.258 159.135,25.318 159.192,25.401 159.259,25.487 159.259,25.487 159.262,25.478 		"></polygon>
		<polygon fill-rule="evenodd" clip-rule="evenodd" fill="#FFFFFF" points="159.316,25.698 159.406,25.877 159.435,26.078 
			159.425,26.266 159.373,26.451 159.278,26.643 159.144,26.821 158.988,26.971 158.774,27.103 158.669,27.163 158.548,27.208 
			158.433,27.232 158.309,27.255 158.197,27.271 158.088,27.277 157.973,27.271 157.852,27.252 157.753,27.229 157.647,27.194 
			157.556,27.153 157.457,27.099 157.377,27.05 157.294,26.98 157.233,26.907 157.166,26.821 157.077,26.642 157.045,26.45 
			157.055,26.263 157.108,26.067 157.195,25.873 157.329,25.694 157.504,25.55 157.709,25.417 157.824,25.359 157.936,25.311 
			158.05,25.286 158.175,25.264 158.286,25.248 158.395,25.241 158.52,25.251 158.621,25.264 158.729,25.289 158.835,25.324 
			158.938,25.369 159.026,25.42 159.106,25.468 159.192,25.529 159.25,25.612 159.316,25.698 159.316,25.698 		"></polygon>
		<polygon fill-rule="evenodd" clip-rule="evenodd" fill="#010101" points="159.394,26.011 159.479,26.199 159.512,26.391 
			159.512,26.583 159.447,26.774 159.364,26.959 159.22,27.134 159.062,27.294 158.848,27.425 158.745,27.476 158.624,27.52 
			158.509,27.546 158.395,27.571 158.273,27.584 158.161,27.6 158.05,27.584 157.936,27.578 157.826,27.552 157.721,27.517 
			157.629,27.475 157.53,27.421 157.453,27.363 157.377,27.306 157.307,27.229 157.239,27.143 157.163,26.958 157.122,26.763 
			157.131,26.575 157.186,26.38 157.278,26.198 157.412,26.02 157.58,25.863 157.785,25.729 157.897,25.682 158.009,25.634 
			158.133,25.611 158.248,25.586 158.359,25.57 158.478,25.567 158.593,25.574 158.697,25.577 158.806,25.602 158.911,25.637 
			159.014,25.682 159.103,25.733 159.189,25.793 159.266,25.851 159.335,25.928 159.39,26.021 159.39,26.021 159.394,26.011 		"></polygon>
		<polygon fill-rule="evenodd" clip-rule="evenodd" fill="#FFFFFF" points="159.505,26.219 159.594,26.397 159.626,26.588 
			159.622,26.79 159.571,26.975 159.476,27.167 159.332,27.342 159.176,27.492 158.972,27.626 158.857,27.683 158.735,27.728 
			158.621,27.754 158.506,27.779 158.385,27.791 158.276,27.798 158.161,27.791 158.05,27.775 157.941,27.75 157.836,27.714 
			157.744,27.673 157.65,27.631 157.565,27.571 157.491,27.504 157.422,27.427 157.363,27.345 157.274,27.166 157.236,26.961 
			157.245,26.773 157.307,26.591 157.393,26.396 157.526,26.218 157.692,26.071 157.897,25.937 158.012,25.88 158.123,25.832 
			158.244,25.818 158.362,25.784 158.475,25.768 158.593,25.765 158.707,25.771 158.81,25.785 158.918,25.81 159.032,25.848 
			159.125,25.889 159.218,25.931 159.304,25.992 159.377,26.059 159.447,26.135 159.505,26.219 159.505,26.219 		"></polygon>
		<polygon fill-rule="evenodd" clip-rule="evenodd" fill="#010101" points="159.592,26.535 159.666,26.719 159.709,26.915 
			159.699,27.103 159.646,27.297 159.553,27.479 159.418,27.657 159.249,27.814 159.045,27.948 158.934,27.996 158.812,28.041 
			158.697,28.066 158.582,28.092 158.471,28.107 158.35,28.12 158.238,28.104 158.123,28.098 158.024,28.076 157.909,28.037 
			157.816,27.996 157.728,27.944 157.642,27.884 157.565,27.826 157.495,27.75 157.438,27.667 157.351,27.478 157.31,27.284 
			157.319,27.095 157.383,26.904 157.467,26.718 157.601,26.54 157.769,26.384 157.982,26.253 158.085,26.202 158.206,26.157 
			158.322,26.132 158.437,26.106 158.558,26.094 158.669,26.078 158.78,26.094 158.886,26.097 159.004,26.125 159.109,26.161 
			159.201,26.202 159.291,26.253 159.377,26.313 159.453,26.372 159.523,26.448 159.592,26.535 159.592,26.535 159.592,26.535 		"></polygon>
		<polygon fill-rule="evenodd" clip-rule="evenodd" fill="#010101" points="149.045,24.099 149.054,24.037 148.447,25.633 
			148.639,25.697 149.246,24.101 149.248,24.06 149.045,24.099 149.045,24.099 149.045,24.099 		"></polygon>
		<polygon fill-rule="evenodd" clip-rule="evenodd" fill="#010101" points="149.029,24.019 149.031,24.009 149.045,24.099 
			149.248,24.06 149.227,23.968 149.23,23.958 149.029,24.019 149.029,24.019 149.029,24.019 		"></polygon>
		<polygon fill-rule="evenodd" clip-rule="evenodd" fill="#010101" points="149.006,23.926 149.029,24.019 149.23,23.958 
			149.207,23.865 149.006,23.926 149.006,23.926 149.006,23.926 		"></polygon>
		<polygon fill-rule="evenodd" clip-rule="evenodd" fill="#010101" points="148.98,23.843 149.006,23.926 149.207,23.865 
			149.182,23.782 148.98,23.843 148.98,23.843 		"></polygon>
		<polygon fill-rule="evenodd" clip-rule="evenodd" fill="#010101" points="148.958,23.75 148.958,23.75 148.98,23.843 
			149.182,23.782 149.159,23.689 149.156,23.699 148.958,23.75 148.958,23.75 148.958,23.75 		"></polygon>
		<polygon fill-rule="evenodd" clip-rule="evenodd" fill="#010101" points="148.933,23.635 148.933,23.667 148.958,23.75 
			149.156,23.699 149.131,23.616 149.141,23.651 148.933,23.635 148.933,23.635 		"></polygon>
		<polygon fill-rule="evenodd" clip-rule="evenodd" fill="#010101" points="149.138,23.598 148.937,23.562 148.933,23.635 
			149.141,23.651 149.144,23.578 148.942,23.542 149.134,23.607 149.134,23.607 149.138,23.598 		"></polygon>
		<polygon fill-rule="evenodd" clip-rule="evenodd" fill="#4D494A" points="149.312,28.241 149.292,28.139 149.079,28.174 
			149.095,28.286 149.312,28.241 149.312,28.241 149.312,28.241 		"></polygon>
		<polygon fill-rule="evenodd" clip-rule="evenodd" fill="#010101" points="149.755,26.911 149.762,26.859 149.159,28.446 
			149.35,28.51 149.953,26.923 149.95,26.87 149.755,26.911 149.755,26.911 149.755,26.911 		"></polygon>
		<polygon fill-rule="evenodd" clip-rule="evenodd" fill="#010101" points="149.739,26.799 149.755,26.911 149.95,26.87 
			149.934,26.757 149.729,26.795 149.729,26.795 149.739,26.799 		"></polygon>
		<polygon fill-rule="evenodd" clip-rule="evenodd" fill="#010101" points="149.711,26.693 149.729,26.795 149.934,26.757 
			149.905,26.652 149.711,26.693 149.711,26.693 149.711,26.693 		"></polygon>
		<polygon fill-rule="evenodd" clip-rule="evenodd" fill="#010101" points="149.685,26.579 149.691,26.592 149.711,26.693 
			149.905,26.652 149.89,26.54 149.896,26.554 149.685,26.579 149.685,26.579 149.685,26.579 		"></polygon>
		<polygon fill-rule="evenodd" clip-rule="evenodd" fill="#010101" points="149.877,26.482 149.673,26.457 149.685,26.579 
			149.896,26.554 149.88,26.441 149.676,26.416 149.877,26.482 149.877,26.482 		"></polygon>
		<g>
			<polygon fill="#4D494A" points="148.449,25.317 148.352,25.346 148.449,25.317 			"></polygon>
			<polygon fill="#4D494A" points="148.549,25.65 148.553,25.64 148.603,25.644 148.639,25.697 148.55,25.668 			"></polygon>
			<polygon fill="#010101" points="148.33,25.254 148.432,25.234 148.435,25.161 149.041,23.565 149.038,23.575 149.038,23.639 
				149.055,23.719 149.086,23.814 149.111,23.897 149.134,23.99 149.149,24.069 149.149,24.069 149.246,24.101 148.639,25.697 
				148.603,25.644 148.553,25.64 148.549,25.65 148.55,25.668 148.639,25.697 148.551,25.692 148.553,25.764 148.491,25.688 
				148.441,25.684 148.428,25.595 148.465,25.587 148.504,25.484 148.403,25.512 148.374,25.438 148.352,25.346 148.449,25.317 
				148.449,25.317 148.352,25.346 148.355,25.336 			"></polygon>
		</g>
		<g>
			<polygon fill="none" points="153.268,25.689 153.268,25.689 153.354,25.495 			"></polygon>
			<polygon fill="#010101" points="148.546,25.56 152.987,25.415 153.103,25.421 153.121,25.428 153.23,25.453 153.239,25.457 
				153.354,25.495 153.466,25.542 153.476,25.545 153.581,25.613 153.6,25.619 153.683,25.689 153.708,25.708 153.769,25.782 
				153.775,25.795 153.816,25.862 153.82,25.884 153.624,25.943 153.593,25.894 153.59,25.903 153.539,25.833 153.54,25.833 
				153.472,25.779 153.488,25.795 153.38,25.738 153.38,25.737 153.268,25.689 153.268,25.689 153.172,25.658 153.063,25.632 
				153.082,25.638 152.98,25.625 152.981,25.616 148.553,25.764 			"></polygon>
			<polygon fill="#010101" points="153.619,25.945 153.624,25.943 153.635,25.961 			"></polygon>
		</g>
		<polygon fill-rule="evenodd" clip-rule="evenodd" fill="#010101" points="155.991,29.673 155.991,29.61 155.386,31.205 
			155.586,31.273 156.193,29.677 156.192,29.613 155.991,29.673 155.991,29.673 155.991,29.673 		"></polygon>
		<polygon fill-rule="evenodd" clip-rule="evenodd" fill="#010101" points="154.238,24.375 154.226,24.35 155.991,29.673 
			156.192,29.613 154.426,24.289 154.424,24.266 154.238,24.375 154.238,24.375 154.238,24.375 		"></polygon>
		<polygon fill-rule="evenodd" clip-rule="evenodd" fill="#010101" points="154.203,24.32 154.197,24.308 154.238,24.375 
			154.424,24.266 154.382,24.199 154.372,24.196 154.193,24.317 154.193,24.317 154.203,24.32 		"></polygon>
		<polygon fill-rule="evenodd" clip-rule="evenodd" fill="#010101" points="154.162,24.253 154.146,24.237 154.193,24.317 
			154.372,24.196 154.305,24.109 154.289,24.094 154.162,24.253 154.162,24.253 154.162,24.253 		"></polygon>
		<polygon fill-rule="evenodd" clip-rule="evenodd" fill="#010101" points="154.091,24.209 154.075,24.193 154.162,24.253 
			154.289,24.094 154.203,24.033 154.188,24.018 154.091,24.209 154.091,24.209 		"></polygon>
		<polygon fill-rule="evenodd" clip-rule="evenodd" fill="#010101" points="153.995,24.145 153.986,24.142 154.091,24.209 
			154.188,24.018 154.079,23.96 154.069,23.956 153.995,24.145 153.995,24.145 		"></polygon>
		<polygon fill-rule="evenodd" clip-rule="evenodd" fill="#010101" points="153.894,24.1 153.871,24.103 153.995,24.145 
			154.069,23.956 153.957,23.909 153.947,23.905 153.881,24.106 153.881,24.106 153.894,24.1 		"></polygon>
		<polygon fill-rule="evenodd" clip-rule="evenodd" fill="#010101" points="153.779,24.062 153.766,24.068 153.881,24.106 
			153.947,23.905 153.833,23.867 153.833,23.867 153.775,24.071 153.775,24.071 153.779,24.062 		"></polygon>
		<polygon fill-rule="evenodd" clip-rule="evenodd" fill="#010101" points="153.689,24.042 153.671,24.037 153.775,24.071 
			153.833,23.867 153.715,23.838 153.705,23.835 153.689,24.042 153.689,24.042 153.689,24.042 		"></polygon>
		<polygon fill-rule="evenodd" clip-rule="evenodd" fill="#010101" points="153.588,24.03 153.584,24.039 153.689,24.042 
			153.705,23.835 153.594,23.819 153.581,23.825 153.588,24.03 153.588,24.03 		"></polygon>
		<polygon fill-rule="evenodd" clip-rule="evenodd" fill="#010101" points="149.255,24.104 149.146,24.175 153.588,24.03 
			153.581,23.825 149.149,23.974 149.054,24.037 149.246,24.101 149.246,24.101 149.255,24.104 		"></polygon>
		<polygon fill="#4D494A" points="150.371,28.956 150.355,28.949 150.364,28.944 		"></polygon>
		<g>
			<polygon fill="#4D494A" points="152.769,29.674 152.75,29.89 152.769,29.674 			"></polygon>
			<g>
				<polygon fill="none" points="152.761,29.777 152.75,29.89 152.761,29.777 				"></polygon>
				<g>
					<polygon fill="none" points="149.162,28.05 149.168,28.034 149.172,28.055 					"></polygon>
					<path fill="#010101" d="M149.095,28.286l0.019,0.102l0.039,0.109l0.047,0.08l0.272,0.143l0.271,0.145l0.262,0.14l0.265,0.131
						l0.009,0.003l0.269,0.121l0.268,0.122l0.291,0.118l0.293,0.108l0.01,0.003l0.312,0.083l0.312,0.083l0.01,0.002l0.345,0.052
						l0.354,0.054l0.01,0.003l0.387,0.023l0.013-0.007l0.411,0.009l0.44-0.012l0.466-0.025l0.096-0.064l0.604-1.586l-0.103-0.141
						l0.006,0.205l-0.031-0.04l0.022-0.059l-0.066,0.004l-0.029-0.036l-0.015,0.039l-0.346,0.021h-0.446l-0.412-0.01l-0.377-0.019
						l-0.366-0.048l-0.341-0.06L152.349,28l-0.312-0.083l-0.293-0.108l-0.284-0.106l-0.269-0.121l-0.265-0.131l-0.274-0.134
						l-0.261-0.14l-0.262-0.141l-0.182-0.096l0.006-0.016l-0.096-0.032l0,0l-0.025-0.115l-0.019-0.103l-0.008-0.035l0.071-0.157
						l-0.101-0.033l-0.005-0.001l0,0l-0.096-0.032l-0.604,1.585l-0.007,0.051l0.017,0.112L149.095,28.286z M149.168,28.034
						l0.004,0.021l-0.01-0.005L149.168,28.034z"></path>
				</g>
			</g>
		</g>
		<polygon fill-rule="evenodd" clip-rule="evenodd" fill="#010101" points="154.604,28.317 155.069,28.292 155.063,28.087 
			154.598,28.112 154.604,28.317 154.604,28.317 154.604,28.317 		"></polygon>
		<polygon fill-rule="evenodd" clip-rule="evenodd" fill="#010101" points="154.164,28.329 154.604,28.317 154.598,28.112 
			154.158,28.125 154.164,28.329 154.164,28.329 154.164,28.329 		"></polygon>
		<polygon fill-rule="evenodd" clip-rule="evenodd" fill="#010101" points="153.742,28.316 153.752,28.319 154.164,28.329 
			154.158,28.125 153.746,28.116 153.759,28.109 153.74,28.326 153.74,28.326 153.742,28.316 		"></polygon>
		<polygon fill-rule="evenodd" clip-rule="evenodd" fill="#010101" points="153.347,28.291 153.357,28.294 153.74,28.326 
			153.759,28.109 153.373,28.086 153.383,28.09 153.347,28.291 153.347,28.291 153.347,28.291 		"></polygon>
		<polygon fill-rule="evenodd" clip-rule="evenodd" fill="#010101" points="152.989,28.246 153.347,28.291 153.383,28.09 
			153.028,28.035 152.989,28.246 152.989,28.246 		"></polygon>
		<polygon fill-rule="evenodd" clip-rule="evenodd" fill="#010101" points="152.639,28.182 152.648,28.185 152.989,28.246 
			153.028,28.035 152.674,27.981 152.684,27.984 152.639,28.182 152.639,28.182 152.639,28.182 		"></polygon>
		<polygon fill-rule="evenodd" clip-rule="evenodd" fill="#010101" points="152.327,28.099 152.639,28.182 152.684,27.984 
			152.371,27.901 152.323,28.108 152.323,28.108 152.327,28.099 		"></polygon>
		<polygon fill-rule="evenodd" clip-rule="evenodd" fill="#010101" points="152.001,28.022 152.011,28.025 152.323,28.108 
			152.371,27.901 152.059,27.818 152.068,27.821 152.001,28.022 152.001,28.022 		"></polygon>
		<polygon fill-rule="evenodd" clip-rule="evenodd" fill="#010101" points="151.707,27.913 151.707,27.913 152.001,28.022 
			152.068,27.821 151.774,27.712 151.784,27.715 151.698,27.911 151.698,27.911 151.707,27.913 		"></polygon>
		<polygon fill-rule="evenodd" clip-rule="evenodd" fill="#010101" points="151.417,27.795 151.698,27.911 151.784,27.715 
			151.504,27.6 151.417,27.795 151.417,27.795 		"></polygon>
		<polygon fill-rule="evenodd" clip-rule="evenodd" fill="#010101" points="151.149,27.674 151.417,27.795 151.504,27.6 
			151.232,27.489 151.149,27.674 151.149,27.674 		"></polygon>
		<polygon fill-rule="evenodd" clip-rule="evenodd" fill="#010101" points="150.875,27.54 150.881,27.553 151.149,27.674 
			151.232,27.489 150.958,27.354 150.968,27.358 150.872,27.549 150.872,27.549 150.875,27.54 		"></polygon>
		<polygon fill-rule="evenodd" clip-rule="evenodd" fill="#010101" points="150.61,27.409 150.872,27.549 150.968,27.358 
			150.703,27.227 150.607,27.418 150.607,27.418 150.61,27.409 		"></polygon>
		<polygon fill-rule="evenodd" clip-rule="evenodd" fill="#010101" points="150.349,27.269 150.607,27.418 150.703,27.227 
			150.441,27.086 150.339,27.265 150.339,27.265 150.349,27.269 		"></polygon>
		<polygon fill-rule="evenodd" clip-rule="evenodd" fill="#010101" points="150.077,27.124 150.339,27.265 150.441,27.086 
			150.18,26.946 150.077,27.124 150.077,27.124 		"></polygon>
		<polygon fill-rule="evenodd" clip-rule="evenodd" fill="#010101" points="149.953,26.923 149.807,26.981 150.077,27.124 
			150.18,26.946 149.908,26.802 149.762,26.859 149.953,26.923 149.953,26.923 149.953,26.923 		"></polygon>
		<polygon fill-rule="evenodd" clip-rule="evenodd" fill="#010101" points="177.607,24.048 177,25.644 178.98,26.306 
			179.441,25.246 179.454,25.144 179.457,25.038 179.441,24.926 179.402,24.818 179.338,24.722 179.287,24.62 179.205,24.518 
			179.119,24.426 179.029,24.342 178.931,24.256 178.828,24.18 178.729,24.125 178.634,24.062 178.522,24.014 178.423,23.959 
			178.328,23.927 178.242,23.898 178.139,23.885 178.047,23.876 177.957,23.889 177.867,23.901 177.772,23.934 177.689,23.991 
			177.607,24.048 177.607,24.048 177.607,24.048 		"></polygon>
		<polygon fill-rule="evenodd" clip-rule="evenodd" fill="#010101" points="178.892,26.255 179.016,26.2 177.035,25.539 
			176.968,25.74 178.949,26.401 179.084,26.35 178.892,26.255 178.892,26.255 		"></polygon>
		<g>
			<polygon fill="none" points="179.273,26.715 179.287,26.823 179.273,26.715 			"></polygon>
			<polygon fill="none" points="180.296,25.646 180.369,25.715 180.29,25.66 			"></polygon>
			<g>
				<polygon fill="none" points="180.369,25.715 180.29,25.66 180.296,25.646 				"></polygon>
				<g>
					<polygon fill="none" points="180.369,25.715 180.29,25.66 180.296,25.646 					"></polygon>
					<polygon fill="#010101" points="148.33,25.158 148.339,25.129 148.942,23.542 149.134,23.607 148.549,25.173 148.537,25.237 
						148.534,25.215 148.33,25.254 148.327,25.231 					"></polygon>
					<g>
						<polygon fill="none" points="180.369,25.715 180.29,25.66 180.296,25.646 						"></polygon>
						<polygon fill="#4D494A" points="158.043,28.912 158.008,28.933 158.005,28.931 						"></polygon>
						<g>
							<polygon fill="none" points="158.082,29.005 158.157,29.078 158.082,29.005 							"></polygon>
							<polygon fill="none" points="180.369,25.715 180.29,25.66 180.296,25.646 							"></polygon>
							<polygon fill="none" points="155.48,31.237 155.487,31.237 155.487,31.24 155.386,31.205 155.471,31.207 							"></polygon>
							<path fill="#010101" d="M148.403,25.512l0.022,0.093l0.002-0.009l0.155-0.033l-0.04,0.103l4.441-0.145l0.104,0.003
								l0.115,0.039l0.115,0.038l0.114,0.039l0.105,0.066l0.086,0.061l0.061,0.073l0.037,0.075l-0.104,0.032l1.767,5.324
								l0.103,0.002l0.002,0.065h0.159l0.15-0.004l0.138,0.004l0.124-0.022l0.127-0.032l0.129-0.063l0.117-0.099l0.141-0.134
								l0.003-0.01l0.08-0.111l0.093-0.118l0.105-0.125l0.073-0.125l0.092-0.15l0.096-0.127l0.08-0.144l0.103-0.147l0.082-0.121
								l0.118-0.131l0.097-0.127l0.111-0.112l0.099-0.105l0.105-0.093l0.103-0.083l0.117-0.067l0.025-0.013l-0.075-0.073l0,0
								l0.075,0.073l0.118-0.131l0.109-0.102l0.095-0.096l0.103-0.083l0.1-0.074l0.104-0.061l0.093-0.054l0.102-0.051l0.115-0.026
								l0.112-0.048l0.114-0.025l0.134-0.019l0.147-0.026l0.162-0.009l0.176-0.016l0.172-0.006l0.01,0.003l19.164-1.432l0.111-0.016
								l0.103-0.02l0.093-0.022l0.096-0.032l0.089-0.044l0.093-0.054l0.076-0.071l0.09-0.076l0.02-0.025l0.335-0.782l-0.175-0.112
								l0.077,0.075l-0.013,0.01l-0.084-0.06l-0.085,0.196l-0.056,0.034l-0.074,0.029l-0.086,0.035l-0.08,0.016l-0.102,0.02
								l-0.102,0.019l-19.174,1.429l-0.121,0.013l-0.118,0.003l-0.118,0.003l-0.124,0.022h-0.128l-0.112,0.016l-0.121,0.013
								l-0.111,0.016l-0.124,0.022l-0.112,0.016l-0.114,0.024l-0.127,0.032l-0.115,0.026l-0.122,0.044l-0.121,0.045l-0.114,0.058
								l-0.227,0.138l-0.23,0.209l-0.242,0.249l-0.233,0.284l-0.227,0.297l-0.194,0.265l-0.191,0.255l-0.159,0.191l-0.093,0.022
								l-0.08,0.016l-0.099,0.01h-0.096h-0.096l-0.084-0.006l-0.104-0.004l-0.093-0.01l-1.76-5.312l-0.038-0.077l-0.061-0.073
								l-0.086-0.061l-0.115-0.07l-0.111-0.048l-0.115-0.038l-0.108-0.026l-0.104-0.002l-4.438,0.135l-0.533,1.404l-0.003-0.019
								L148.403,25.512z M180.29,25.66l0.006-0.015l0.073,0.07L180.29,25.66z"></path>
						</g>
					</g>
				</g>
			</g>
		</g>
		<polygon fill-rule="evenodd" clip-rule="evenodd" fill="#010101" points="179.619,26.05 179.734,26.025 179.836,26.006 
			179.929,25.983 180.024,25.951 180.114,25.907 180.206,25.853 180.279,25.792 180.369,25.715 180.217,25.568 180.148,25.642 
			180.078,25.693 180.012,25.734 179.938,25.763 179.868,25.783 179.785,25.808 179.696,25.821 179.597,25.83 179.619,26.05 
			179.619,26.05 		"></polygon>
		<polygon fill-rule="evenodd" clip-rule="evenodd" fill="#010101" points="160.458,27.473 179.619,26.05 179.597,25.83 
			160.434,27.263 160.458,27.473 160.458,27.473 		"></polygon>
		<polygon fill-rule="evenodd" clip-rule="evenodd" fill="#010101" points="158.579,27.813 158.69,27.766 158.8,27.728 
			158.93,27.686 159.038,27.648 159.156,27.613 159.269,27.597 159.38,27.582 159.504,27.559 159.606,27.54 159.725,27.537 
			159.846,27.523 159.967,27.511 160.088,27.499 160.196,27.492 160.328,27.482 160.458,27.473 160.434,27.263 160.312,27.275 
			160.19,27.288 160.062,27.288 159.941,27.301 159.823,27.304 159.709,27.33 159.591,27.333 159.459,27.342 159.345,27.367 
			159.229,27.393 159.105,27.415 158.978,27.447 158.87,27.485 158.739,27.527 158.608,27.568 158.493,27.625 158.579,27.813 
			158.579,27.813 158.579,27.813 		"></polygon>
		<polygon fill-rule="evenodd" clip-rule="evenodd" fill="#010101" points="156.862,29.709 156.903,29.681 156.99,29.582 
			157.066,29.479 157.158,29.361 157.255,29.233 157.363,29.1 157.462,28.962 157.574,28.818 157.686,28.675 157.801,28.522 
			157.918,28.391 158.034,28.27 158.151,28.139 158.251,28.034 158.376,27.948 158.477,27.865 158.579,27.813 158.493,27.625 
			158.362,27.699 158.251,27.779 158.12,27.884 157.996,28.001 157.88,28.124 157.766,28.245 157.639,28.404 157.526,28.548 
			157.414,28.691 157.303,28.834 157.204,28.972 157.096,29.105 157,29.233 156.907,29.352 156.831,29.454 156.76,29.537 
			156.799,29.518 156.862,29.709 156.862,29.709 156.862,29.709 		"></polygon>
		<polygon fill="none" points="177.565,24.141 177.607,24.048 177.684,23.979 177.798,23.921 177.932,23.901 178.005,23.905 
			178.088,23.911 178.168,23.927 178.247,23.943 178.344,23.975 178.43,24.004 178.522,24.045 178.621,24.1 178.703,24.138 
			178.79,24.199 178.866,24.256 178.949,24.326 179.036,24.387 179.097,24.461 179.17,24.527 179.23,24.601 179.342,24.745 
			179.399,24.892 179.428,24.965 179.443,25.013 179.435,25.137 179.412,25.236 179.342,25.319 179.239,25.37 179.103,25.399 
			179.025,25.405 178.946,25.389 178.854,25.38 178.755,25.357 178.668,25.329 178.573,25.296 178.471,25.252 178.382,25.201 
			178.289,25.159 178.189,25.105 178.104,25.045 178.021,24.974 177.944,24.917 177.865,24.837 177.795,24.76 177.733,24.687 
			177.636,24.537 177.578,24.39 177.562,24.342 177.546,24.262 		"></polygon>
		<polygon fill-rule="evenodd" clip-rule="evenodd" fill="#FFFFFF" points="153.191,23.94 153.588,23.934 153.619,23.934 
			150.223,22.8 150.05,22.902 153.188,23.95 153.188,23.95 153.191,23.94 		"></polygon>
		<polygon fill-rule="evenodd" clip-rule="evenodd" fill="#FFFFFF" points="153.191,23.94 149.149,24.069 149.134,23.99 
			149.111,23.897 149.086,23.814 149.055,23.719 149.038,23.639 149.038,23.575 149.063,23.499 149.134,23.447 149.3,23.333 
			149.485,23.224 149.67,23.115 149.855,23.007 150.03,22.896 150.05,22.902 153.188,23.95 153.188,23.95 153.191,23.94 		"></polygon>
		<polygon fill="#FFFFFF" points="150.735,26.397 153.488,26.242 154.566,26.676 154.945,27.803 155.061,28.192 154.604,28.221 
			154.158,28.221 153.746,28.211 153.369,28.192 153.003,28.144 152.662,28.083 152.349,28 152.036,27.917 151.743,27.809 
			151.459,27.702 151.19,27.582 150.926,27.45 150.651,27.316 150.391,27.176 150.129,27.035 149.857,26.891 149.832,26.776 
			149.813,26.674 149.787,26.56 149.771,26.448 		"></polygon>
		<polygon fill-rule="evenodd" clip-rule="evenodd" fill="#FFFFFF" points="157.67,26.712 157.709,26.757 158.062,26.971 
			158.178,26.786 157.823,26.572 157.857,26.626 157.67,26.712 157.684,26.738 157.709,26.757 157.67,26.712 157.67,26.712 		"></polygon>
		<polygon fill-rule="evenodd" clip-rule="evenodd" fill="#FFFFFF" points="154.521,26.778 154.461,26.705 154.965,28.225 
			155.166,28.164 154.662,26.644 154.607,26.583 154.662,26.644 154.646,26.597 154.607,26.583 154.521,26.778 154.521,26.778 
			154.521,26.778 		"></polygon>
		<polygon fill-rule="evenodd" clip-rule="evenodd" fill="#FFFFFF" points="153.498,26.341 153.446,26.335 154.521,26.778 
			154.607,26.583 153.533,26.14 153.491,26.137 153.533,26.14 153.514,26.133 153.491,26.137 153.498,26.341 153.498,26.341 
			153.498,26.341 		"></polygon>
		<polygon fill-rule="evenodd" clip-rule="evenodd" fill="#FFFFFF" points="149.88,26.441 149.778,26.556 153.498,26.341 
			153.491,26.137 149.771,26.352 149.673,26.457 149.771,26.352 149.653,26.354 149.673,26.457 149.88,26.441 149.88,26.441 		"></polygon>
		<polygon fill-rule="evenodd" clip-rule="evenodd" fill="#FFFFFF" points="149.908,26.802 149.95,26.87 149.946,26.815 
			149.934,26.757 149.931,26.703 149.915,26.655 149.912,26.601 149.899,26.543 149.883,26.496 149.88,26.441 149.673,26.457 
			149.672,26.521 149.682,26.588 149.698,26.636 149.701,26.69 149.717,26.738 149.729,26.795 149.752,26.856 149.755,26.911 
			149.807,26.981 149.755,26.911 149.771,26.958 149.807,26.981 149.908,26.802 149.908,26.802 		"></polygon>
		<polygon fill-rule="evenodd" clip-rule="evenodd" fill="#FFFFFF" points="154.968,28.215 155.054,28.084 154.598,28.112 
			154.158,28.125 153.759,28.109 153.373,28.086 153.028,28.035 152.684,27.984 152.371,27.901 152.068,27.821 151.774,27.712 
			151.504,27.6 151.232,27.489 150.968,27.358 150.703,27.227 150.441,27.086 150.18,26.946 149.908,26.802 149.807,26.981 
			150.077,27.124 150.339,27.265 150.607,27.418 150.872,27.549 151.149,27.674 151.417,27.795 151.707,27.913 152.001,28.022 
			152.323,28.108 152.639,28.182 152.989,28.246 153.357,28.294 153.74,28.326 154.164,28.329 154.604,28.317 155.079,28.295 
			155.166,28.164 155.079,28.295 155.211,28.285 155.166,28.164 154.965,28.225 154.965,28.225 154.968,28.215 		"></polygon>
		<g>
			<polygon fill="none" points="156.893,29.563 156.971,29.639 156.893,29.563 			"></polygon>
			<polygon fill="none" points="156.186,29.537 156.168,29.538 156.168,29.538 			"></polygon>
			<polygon fill="none" points="154.454,24.373 157.246,25.305 154.454,24.373 			"></polygon>
		</g>
		<polygon fill-rule="evenodd" clip-rule="evenodd" fill="#FFFFFF" points="160.434,27.263 160.293,27.269 160.136,27.291 
			159.996,27.297 159.843,27.31 159.695,27.336 159.539,27.358 159.384,27.38 159.233,27.415 159.083,27.45 158.953,27.492 
			158.81,27.54 158.675,27.591 158.561,27.648 158.423,27.708 158.312,27.789 158.209,27.871 158.337,28.031 158.436,27.958 
			158.531,27.894 158.637,27.833 158.758,27.789 158.876,27.721 159.003,27.689 159.153,27.655 159.284,27.613 159.428,27.597 
			159.556,27.565 159.709,27.553 159.855,27.527 160.012,27.505 160.165,27.492 160.309,27.477 160.458,27.473 160.434,27.263 
			160.434,27.263 160.434,27.263 		"></polygon>
		<polygon fill-rule="evenodd" clip-rule="evenodd" fill="#FFFFFF" points="179.597,25.83 160.434,27.263 160.458,27.473 
			179.619,26.05 179.597,25.83 179.597,25.83 		"></polygon>
		<polygon fill-rule="evenodd" clip-rule="evenodd" fill="#FFFFFF" points="179.954,24.662 180.034,24.773 180.117,24.876 
			180.155,24.984 180.216,25.09 180.248,25.186 180.257,25.285 180.261,25.371 180.254,25.453 180.231,25.521 180.199,25.585 
			180.158,25.646 180.085,25.706 180.009,25.745 179.887,25.789 179.76,25.821 179.597,25.83 179.619,26.05 179.795,26.035 
			179.947,25.99 180.082,25.939 180.199,25.872 180.309,25.802 180.385,25.7 180.426,25.607 180.465,25.492 180.461,25.374 
			180.468,25.259 180.442,25.144 180.4,25.014 180.353,24.902 180.289,24.773 180.206,24.64 180.123,24.538 179.954,24.662 
			179.954,24.662 		"></polygon>
		<polygon fill-rule="evenodd" clip-rule="evenodd" fill="#FFFFFF" points="177.67,23.57 177.843,23.564 178.019,23.58 
			178.196,23.618 178.369,23.644 178.531,23.697 178.694,23.752 178.851,23.825 178.997,23.896 179.15,23.979 179.291,24.068 
			179.441,24.161 179.55,24.25 179.663,24.352 179.776,24.464 179.868,24.569 179.954,24.662 180.123,24.538 180.024,24.419 
			179.913,24.308 179.801,24.196 179.677,24.09 179.539,23.992 179.402,23.893 179.263,23.803 179.104,23.707 178.938,23.631 
			178.768,23.564 178.596,23.506 178.414,23.445 178.235,23.407 178.053,23.378 177.846,23.362 177.664,23.365 177.67,23.57 
			177.67,23.57 		"></polygon>
		<polygon fill-rule="evenodd" clip-rule="evenodd" fill="#FFFFFF" points="160.714,24.153 177.67,23.57 177.664,23.365 
			160.718,23.953 160.714,24.153 160.714,24.153 		"></polygon>
		<polygon fill-rule="evenodd" clip-rule="evenodd" fill="#FFFFFF" points="158.037,23.728 158.197,23.792 158.367,23.827 
			158.529,23.881 158.697,23.917 158.877,23.955 159.042,24 159.225,24.028 159.387,24.051 159.557,24.086 159.731,24.103 
			159.903,24.128 160.073,24.131 160.235,24.153 160.408,24.147 160.564,24.157 160.714,24.153 160.718,23.953 160.558,23.953 
			160.401,23.943 160.255,23.937 160.089,23.924 159.923,23.911 159.758,23.898 159.595,23.875 159.422,23.85 159.254,23.815 
			159.091,23.792 158.925,23.748 158.752,23.722 158.586,23.677 158.411,23.629 158.264,23.591 158.102,23.537 158.035,23.738 
			158.035,23.738 158.037,23.728 		"></polygon>
		<polygon fill-rule="evenodd" clip-rule="evenodd" fill="#FFFFFF" points="152.317,22.159 152.608,22.117 152.882,22.092 
			153.145,22.073 153.384,22.057 153.61,22.047 153.814,22.073 154.025,22.08 154.2,22.096 154.383,22.125 154.552,22.16 
			154.711,22.191 154.854,22.239 155.007,22.291 155.128,22.342 155.278,22.402 155.396,22.463 155.534,22.53 155.671,22.598 
			155.805,22.674 155.938,22.75 156.073,22.827 156.213,22.917 156.351,22.984 156.5,23.076 156.666,23.153 156.826,23.249 
			157.004,23.319 157.177,23.408 157.371,23.495 157.582,23.565 157.806,23.661 158.035,23.738 158.102,23.537 157.872,23.46 
			157.645,23.374 157.457,23.3 157.26,23.224 157.078,23.131 156.921,23.058 156.762,22.961 156.605,22.888 156.452,22.805 
			156.309,22.725 156.175,22.649 156.035,22.559 155.9,22.482 155.763,22.416 155.626,22.348 155.502,22.275 155.364,22.208 
			155.215,22.147 155.074,22.09 154.921,22.039 154.759,21.984 154.59,21.949 154.417,21.923 154.229,21.882 154.034,21.859 
			153.833,21.856 153.601,21.853 153.377,21.853 153.118,21.862 152.857,21.881 152.58,21.916 152.293,21.948 152.309,22.155 
			152.309,22.155 152.317,22.159 		"></polygon>
		<polygon fill-rule="evenodd" clip-rule="evenodd" fill="#FFFFFF" points="149.188,23.54 149.354,23.425 149.539,23.317 
			149.725,23.208 149.912,23.09 150.084,22.988 150.279,22.882 150.462,22.784 150.649,22.698 150.851,22.605 151.052,22.513 
			151.249,22.43 151.453,22.359 151.674,22.306 151.874,22.245 152.095,22.19 152.309,22.155 152.293,21.948 152.054,21.996 
			151.827,22.037 151.604,22.101 151.393,22.159 151.183,22.248 150.965,22.324 150.768,22.407 150.565,22.5 150.362,22.602 
			150.168,22.707 149.985,22.806 149.801,22.914 149.615,23.022 149.431,23.131 149.255,23.243 149.08,23.354 149.179,23.536 
			149.179,23.536 149.188,23.54 		"></polygon>
		<polygon fill-rule="evenodd" clip-rule="evenodd" fill="#FFFFFF" points="149.149,23.974 149.258,24.063 149.227,23.968 
			149.207,23.865 149.182,23.782 149.159,23.689 149.146,23.632 149.138,23.598 149.152,23.549 149.179,23.536 149.08,23.354 
			148.986,23.44 148.939,23.553 148.927,23.655 148.958,23.75 148.98,23.843 149.006,23.926 149.031,24.009 149.047,24.089 
			149.146,24.175 149.047,24.089 149.051,24.175 149.146,24.175 149.149,23.974 149.149,23.974 		"></polygon>
		<g>
			<polygon fill="none" points="156.979,24.736 156.979,24.737 156.953,24.845 			"></polygon>
			<polygon fill="#FFFFFF" points="156.981,24.727 156.979,24.737 156.979,24.736 			"></polygon>
			<polygon fill="#FFFFFF" points="156.934,24.774 156.979,24.736 156.953,24.845 			"></polygon>
			<g>
				<polygon fill="none" points="177.607,24.048 177.684,23.979 177.798,23.921 177.932,23.901 178.005,23.905 178.088,23.911 
					178.168,23.927 178.247,23.943 178.344,23.975 178.43,24.004 178.522,24.045 178.621,24.1 178.703,24.138 178.79,24.199 
					178.866,24.256 178.949,24.326 179.036,24.387 179.097,24.461 179.17,24.527 179.23,24.601 179.342,24.745 179.399,24.892 
					179.428,24.965 179.443,25.013 179.435,25.137 179.412,25.236 179.342,25.319 179.239,25.37 179.103,25.399 179.025,25.405 
					178.946,25.389 178.854,25.38 178.755,25.357 178.668,25.329 178.573,25.296 178.471,25.252 178.382,25.201 178.289,25.159 
					178.189,25.105 178.104,25.045 178.021,24.974 177.944,24.917 177.865,24.837 177.795,24.76 177.733,24.687 177.636,24.537 
					177.578,24.39 177.562,24.342 177.546,24.262 177.565,24.141 				"></polygon>
				<polygon fill="none" points="159.138,24.722 159.138,24.722 159.042,24.766 				"></polygon>
				<polygon fill="none" points="159.827,26.464 159.895,26.518 159.9,26.531 159.719,26.757 158.117,26.872 157.769,26.671 
					157.768,26.667 157.857,26.626 157.177,24.831 157.29,24.718 158.746,24.635 159.055,24.795 159.812,26.576 				"></polygon>
				<polygon fill="none" points="154.361,24.182 154.361,24.182 157.042,25.077 				"></polygon>
				<g>
					<polygon fill="none" points="177.607,24.048 177.684,23.979 177.798,23.921 177.932,23.901 178.005,23.905 178.088,23.911 
						178.168,23.927 178.247,23.943 178.344,23.975 178.43,24.004 178.522,24.045 178.621,24.1 178.703,24.138 178.79,24.199 
						178.866,24.256 178.949,24.326 179.036,24.387 179.097,24.461 179.17,24.527 179.23,24.601 179.342,24.745 179.399,24.892 
						179.428,24.965 179.443,25.013 179.435,25.137 179.412,25.236 179.342,25.319 179.239,25.37 179.103,25.399 179.025,25.405 
						178.946,25.389 178.854,25.38 178.755,25.357 178.668,25.329 178.573,25.296 178.471,25.252 178.382,25.201 178.289,25.159 
						178.189,25.105 178.104,25.045 178.021,24.974 177.944,24.917 177.865,24.837 177.795,24.76 177.733,24.687 177.636,24.537 
						177.578,24.39 177.562,24.342 177.546,24.262 177.565,24.141 					"></polygon>
					<polygon fill="none" points="158.746,24.635 159.055,24.795 159.812,26.576 159.827,26.464 159.895,26.518 159.9,26.531 
						159.719,26.757 158.117,26.872 157.769,26.671 157.768,26.667 157.857,26.626 157.177,24.831 157.29,24.718 					"></polygon>
					<polygon fill="none" points="154.361,24.182 154.361,24.182 157.042,25.077 					"></polygon>
					<g>
						<polygon fill="none" points="177.607,24.048 177.684,23.979 177.798,23.921 177.932,23.901 178.005,23.905 178.088,23.911 
							178.168,23.927 178.247,23.943 178.344,23.975 178.43,24.004 178.522,24.045 178.621,24.1 178.703,24.138 178.79,24.199 
							178.866,24.256 178.949,24.326 179.036,24.387 179.097,24.461 179.17,24.527 179.23,24.601 179.342,24.745 179.399,24.892 
							179.428,24.965 179.443,25.013 179.435,25.137 179.412,25.236 179.342,25.319 179.239,25.37 179.103,25.399 179.025,25.405 
							178.946,25.389 178.854,25.38 178.755,25.357 178.668,25.329 178.573,25.296 178.471,25.252 178.382,25.201 178.289,25.159 
							178.189,25.105 178.104,25.045 178.021,24.974 177.944,24.917 177.865,24.837 177.795,24.76 177.733,24.687 177.636,24.537 
							177.578,24.39 177.562,24.342 177.546,24.262 177.565,24.141 						"></polygon>
						<polygon fill="none" points="158.746,24.635 159.055,24.795 159.812,26.576 159.827,26.464 159.895,26.518 159.9,26.531 
							159.721,26.755 159.709,26.659 158.107,26.773 158.178,26.786 158.124,26.871 158.117,26.872 157.769,26.671 157.768,26.667 
							157.857,26.626 157.177,24.831 157.29,24.718 						"></polygon>
						<polygon fill="none" points="154.361,24.182 154.361,24.182 157.042,25.077 						"></polygon>
						<g>
							<polygon fill="none" points="159.867,26.18 162.902,27.193 159.867,26.18 							"></polygon>
							<polygon fill="none" points="159.789,25.994 163.285,27.162 159.789,25.994 							"></polygon>
							<polygon fill="none" points="177.607,24.048 177.684,23.979 177.798,23.921 177.932,23.901 178.005,23.905 178.088,23.911 
								178.168,23.927 178.247,23.943 178.344,23.975 178.43,24.004 178.522,24.045 178.621,24.1 178.703,24.138 178.79,24.199 
								178.866,24.256 178.949,24.326 179.036,24.387 179.097,24.461 179.17,24.527 179.23,24.601 179.342,24.745 179.399,24.892 
								179.428,24.965 179.443,25.013 179.435,25.137 179.412,25.236 179.342,25.319 179.239,25.37 179.103,25.399 179.025,25.405 
								178.946,25.389 178.854,25.38 178.755,25.357 178.668,25.329 178.573,25.296 178.471,25.252 178.382,25.201 178.289,25.159 
								178.189,25.105 178.104,25.045 178.021,24.974 177.944,24.917 177.865,24.837 177.795,24.76 177.733,24.687 177.636,24.537 
								177.578,24.39 177.562,24.342 177.546,24.262 177.565,24.141 							"></polygon>
							<polygon fill="none" points="158.746,24.635 159.055,24.795 159.812,26.576 159.827,26.464 159.895,26.518 159.9,26.531 
								159.721,26.755 159.719,26.757 158.124,26.871 158.117,26.872 157.769,26.671 157.768,26.667 157.857,26.626 157.177,24.831 
								157.29,24.718 							"></polygon>
							<polygon fill="none" points="154.361,24.182 154.361,24.182 157.042,25.077 							"></polygon>
							<polygon fill="#FFFFFF" points="159.789,25.994 163.285,27.162 162.905,27.184 162.902,27.193 159.867,26.18 							"></polygon>
							<g>
								<polygon fill="none" points="177.607,24.048 177.684,23.979 177.798,23.921 177.932,23.901 178.005,23.905 178.088,23.911 
									178.168,23.927 178.247,23.943 178.344,23.975 178.43,24.004 178.522,24.045 178.621,24.1 178.703,24.138 178.79,24.199 
									178.866,24.256 178.949,24.326 179.036,24.387 179.097,24.461 179.17,24.527 179.23,24.601 179.342,24.745 179.399,24.892 
									179.428,24.965 179.443,25.013 179.435,25.137 179.412,25.236 179.342,25.319 179.239,25.37 179.103,25.399 179.025,25.405 
									178.946,25.389 178.854,25.38 178.755,25.357 178.668,25.329 178.573,25.296 178.471,25.252 178.382,25.201 178.289,25.159 
									178.189,25.105 178.104,25.045 178.021,24.974 177.944,24.917 177.865,24.837 177.795,24.76 177.733,24.687 177.636,24.537 
									177.578,24.39 177.562,24.342 177.546,24.262 177.565,24.141 								"></polygon>
								<polygon fill="none" points="158.746,24.635 159.055,24.795 159.785,26.517 159.672,26.661 158.107,26.773 158.178,26.786 
									158.124,26.871 158.117,26.872 157.769,26.671 157.768,26.667 157.857,26.626 157.177,24.831 157.29,24.718 								"></polygon>
								<polygon fill="none" points="159.827,26.464 159.895,26.518 159.895,26.518 								"></polygon>
								<polygon fill="none" points="154.361,24.182 154.361,24.182 157.042,25.077 								"></polygon>
								<path fill="#FFFFFF" d="M149.146,24.175l4.441-0.145l0.092,0.009l0.086,0.029l0.115,0.038l0.105,0.035l0.096,0.064
									l0.07,0.045l0.041,0.067l0.032,0.032l1.766,5.324l0.026,0.083l0.086-0.003l0.089-0.013l0.103,0.013l0.124,0.009l0.118-0.003
									l0.115,0.006l0.105-0.029l0.118-0.035l0.095-0.063l0.115-0.122l0.096-0.127l0.089-0.108l0.09-0.108l0.077-0.102l0.073-0.093
									l0.063-0.096l0.076-0.102l0.064-0.096l0.073-0.093l0.073-0.092l0.079-0.08l0.084-0.089l0.096-0.096l0.096-0.096l0.121-0.108
									l-0.064-0.082l0.096-0.079l0.108-0.07l0.125-0.054l0.115-0.057l0.124-0.054l0.14-0.039l0.145-0.047l0.141-0.038l0.134-0.02
									l0.146-0.025l0.156-0.023l0.147-0.025l0.152-0.013l0.153-0.012l0.144-0.016l0.141-0.007l2.463-0.178l-3.035-1.013
									l-0.078-0.187l0,0l3.496,1.168l16.328-1.22l0.303-0.048l0.227-0.105l0.156-0.15l0.057-0.172l0.001-0.192l0.003-0.009
									l-0.055-0.221l-0.107-0.217l-0.157-0.233l-0.092-0.105l-0.103-0.108l-0.111-0.112l-0.118-0.092l-0.124-0.105l-0.141-0.09
									l-0.15-0.093l-0.149-0.092l-0.159-0.064l-0.157-0.074l-0.172-0.057l-0.182-0.061l-0.172-0.025l-0.18-0.039l-0.185-0.019
									l-0.182,0.003l-2.466,0.092l-14.48,0.495h-0.16l-0.149,0.003l-0.169-0.003l-0.163-0.023l-0.166-0.012L159.744,24
									l-0.162-0.022l-0.173-0.026l-0.172-0.025l-0.169-0.035l-0.17-0.036l-0.168-0.035l-0.176-0.048l-0.166-0.044l-0.156-0.042
									l-0.163-0.054l-0.229-0.077l-0.227-0.086l-0.197-0.077l-0.197-0.076l-0.173-0.09l-0.166-0.077l-0.172-0.089l-0.157-0.074
									l-0.149-0.092l-0.134-0.077l-0.144-0.08l-0.134-0.076l-0.144-0.08l-0.134-0.077l-0.128-0.064l-0.134-0.077l-0.138-0.067
									l-0.141-0.058l-0.134-0.044l-0.153-0.051l-0.163-0.055l-0.155-0.042l-0.172-0.025l-0.183-0.029l-0.185-0.02l-0.208-0.016
									l-0.22-0.01l-0.227,0.01l-0.236,0.006l-0.265,0.029l-0.274,0.025l-0.3,0.038l-0.223,0.032l-0.22,0.054l-0.221,0.054
									l-0.205,0.07l-0.216,0.077l-0.208,0.08l-0.197,0.083l-0.202,0.092l-0.19,0.096l-0.194,0.105l3.098,1.035l-4.171,0.14
									L149.146,24.175z M177.546,24.262l0.02-0.121l0.042-0.093l0.076-0.07l0.114-0.058l0.134-0.02l0.073,0.004l0.083,0.006
									l0.08,0.016l0.079,0.017l0.097,0.032l0.086,0.029l0.093,0.041l0.099,0.055l0.082,0.039l0.087,0.061l0.076,0.057l0.083,0.07
									l0.087,0.061l0.061,0.074l0.073,0.066l0.061,0.074l0.111,0.144l0.058,0.147l0.028,0.073l0.016,0.048l-0.009,0.124
									l-0.022,0.099l-0.07,0.083l-0.103,0.051l-0.137,0.029l-0.077,0.006l-0.079-0.016l-0.093-0.009l-0.099-0.022l-0.087-0.029
									l-0.095-0.032l-0.103-0.044l-0.089-0.052l-0.093-0.042l-0.1-0.054l-0.086-0.061l-0.082-0.071l-0.077-0.058l-0.079-0.08
									l-0.07-0.077l-0.062-0.073l-0.098-0.149l-0.058-0.147l-0.016-0.048L177.546,24.262z M159.895,26.518L159.895,26.518
									l-0.067-0.054L159.895,26.518z M157.177,24.831l0.113-0.113l1.456-0.083l0.309,0.161l0.73,1.721l-0.113,0.145l-1.564,0.112
									l0.07,0.013l-0.054,0.085l-0.007,0.001l-0.349-0.201l-0.001-0.004l0.09-0.041L157.177,24.831z"></path>
							</g>
						</g>
					</g>
				</g>
			</g>
		</g>
		<polygon fill-rule="evenodd" clip-rule="evenodd" fill="#010101" points="176.56,25.369 176.471,25.318 176.454,25.238 
			176.582,25.206 176.607,25.29 176.531,25.232 176.56,25.369 176.56,25.369 		"></polygon>
		<polygon fill-rule="evenodd" clip-rule="evenodd" fill="#010101" points="176.732,25.268 176.713,25.293 176.682,25.325 
			176.643,25.344 176.604,25.363 176.56,25.369 176.531,25.232 176.551,25.238 176.579,25.216 176.614,25.206 176.617,25.197 
			176.611,25.216 176.729,25.277 176.729,25.277 176.732,25.268 		"></polygon>
		<polygon fill-rule="evenodd" clip-rule="evenodd" fill="#010101" points="176.372,24.466 176.381,24.469 176.442,24.542 
			176.521,24.622 176.598,24.711 176.672,24.811 176.732,24.916 176.768,25.034 176.768,25.162 176.729,25.277 176.611,25.216 
			176.637,25.14 176.631,25.063 176.607,24.971 176.551,24.888 176.487,24.792 176.417,24.715 176.337,24.635 176.275,24.562 
			176.285,24.565 176.372,24.466 176.372,24.466 		"></polygon>
		<polygon fill-rule="evenodd" clip-rule="evenodd" fill="#010101" points="175.198,24.127 175.188,24.124 175.357,24.127 
			175.518,24.127 175.667,24.156 175.811,24.172 175.957,24.21 176.094,24.278 176.237,24.357 176.372,24.466 176.285,24.565 
			176.155,24.479 176.03,24.405 175.913,24.345 175.784,24.312 175.645,24.287 175.501,24.271 175.354,24.265 175.204,24.268 
			175.207,24.258 175.185,24.134 175.185,24.134 175.198,24.127 		"></polygon>
		<polygon fill-rule="evenodd" clip-rule="evenodd" fill="#010101" points="162.749,24.78 162.804,24.745 175.185,24.134 
			175.207,24.258 162.822,24.878 162.877,24.844 162.749,24.78 162.749,24.78 		"></polygon>
		<polygon fill-rule="evenodd" clip-rule="evenodd" fill="#010101" points="162.456,25.214 162.322,25.169 162.331,25.077 
			162.357,25 162.396,24.917 162.446,24.86 162.514,24.818 162.6,24.784 162.695,24.751 162.804,24.745 162.822,24.878 
			162.721,24.898 162.628,24.92 162.583,24.926 162.539,24.965 162.517,25 162.481,25.042 162.463,25.099 162.465,25.186 
			162.331,25.141 162.456,25.214 162.456,25.214 		"></polygon>
		<g>
			<polygon fill="none" points="162.805,24.749 162.822,24.878 162.805,24.749 			"></polygon>
			<g>
				<polygon fill="none" points="162.465,25.186 162.481,25.105 162.52,25.022 162.552,24.958 162.619,24.917 162.698,24.901 
					162.81,24.885 162.822,24.878 175.207,24.258 175.415,24.274 175.587,24.268 175.75,24.29 175.899,24.319 176.037,24.386 
					176.161,24.459 176.275,24.562 176.407,24.711 176.521,24.846 176.604,24.98 176.646,25.079 176.646,25.143 176.617,25.197 
					176.537,25.245 176.388,25.28 176.178,25.305 163.451,25.961 163.441,25.958 163.263,25.952 163.088,25.903 162.931,25.83 
					162.797,25.753 162.686,25.642 162.605,25.53 162.535,25.422 162.481,25.329 162.472,25.262 				"></polygon>
				<g>
					<path fill="none" d="M162.481,25.105l-0.017,0.08l0.007,0.077l0.01,0.067l0.054,0.093l0.07,0.108l0.08,0.111l0.111,0.112
						l0.134,0.077l0.157,0.073l0.175,0.048l0.179,0.006l0.01,0.003l12.727-0.656l0.21-0.025l0.149-0.035l0.08-0.048l0.029-0.054
						v-0.063l-0.042-0.099l-0.083-0.134l-0.114-0.135l-0.132-0.149l-0.114-0.103l-0.124-0.073l-0.138-0.066l-0.149-0.029
						l-0.163-0.022l-0.172,0.006l-0.208-0.016l-12.385,0.621l-0.013,0.006l-0.111,0.016l-0.079,0.017l-0.067,0.041l-0.032,0.064
						L162.481,25.105z M162.657,25.026l12.384-0.621l0.006-0.02l0.167,0.013l0.159,0l0.15,0.028l0.144,0.016l0.146,0.039
						l0.137,0.067l0.134,0.077l0.144,0.112l0.055,0.061l0.048,0.048l0.044,0.057l0.039,0.045l0.055,0.061l0.041,0.067l0.035,0.054
						l0.035,0.054l0.003,0.022l-0.128,0.032l0.004,0.022l-0.032-0.064l-0.034-0.054l-0.049-0.047l-0.035-0.055l-0.037-0.044
						l-0.046-0.058l-0.047-0.048l-0.058-0.051l0.004-0.004l-0.113-0.085l-0.121-0.083l-0.121-0.05l-0.127-0.033l-0.141-0.025
						l-0.144-0.016l-0.157-0.009l-0.149,0.003l-12.381,0.61L162.657,25.026z"></path>
					<g>
						<path fill="none" d="M162.481,25.105l-0.017,0.08l0.007,0.077l0.01,0.067l0.054,0.093l0.07,0.108l0.08,0.111l0.111,0.112
							l0.134,0.077l0.157,0.073l0.175,0.048l0.179,0.006l0.01,0.003l12.727-0.656l0.21-0.025l0.149-0.035l0.08-0.048l0.029-0.054
							v-0.063l-0.042-0.099l-0.083-0.134l-0.114-0.135l-0.132-0.149l-0.114-0.103l-0.124-0.073l-0.138-0.066l-0.149-0.029
							l-0.163-0.022l-0.172,0.006l-0.208-0.016l-12.385,0.621l-0.013,0.006l-0.111,0.016l-0.079,0.017l-0.067,0.041l-0.032,0.064
							L162.481,25.105z"></path>
						<g>
							<polygon fill="none" points="162.52,25.022 162.552,24.958 162.619,24.917 162.698,24.901 162.771,24.891 162.67,25.083 
								175.055,24.462 175.214,24.462 175.36,24.469 175.511,24.498 175.654,24.514 175.791,24.549 175.922,24.603 176.053,24.689 
								176.181,24.785 176.226,24.842 176.273,24.89 176.318,24.948 176.365,24.996 176.4,25.05 176.445,25.107 176.48,25.162 
								176.521,25.229 176.527,25.248 176.388,25.28 176.178,25.305 163.451,25.961 163.441,25.958 163.263,25.952 163.088,25.903 
								162.931,25.83 162.797,25.753 162.686,25.642 162.605,25.53 162.535,25.422 162.481,25.329 162.472,25.262 162.465,25.186 
								162.481,25.105 							"></polygon>
							<polygon fill="#010101" points="176.48,25.162 176.445,25.107 176.4,25.05 176.365,24.996 176.318,24.948 176.273,24.89 
								176.226,24.842 176.181,24.785 176.053,24.689 175.922,24.603 175.791,24.549 175.654,24.514 175.511,24.498 175.36,24.469 
								175.214,24.462 175.055,24.462 162.67,25.083 162.771,24.891 162.81,24.885 162.822,24.878 175.207,24.258 175.415,24.274 
								175.587,24.268 175.75,24.29 175.899,24.319 176.037,24.386 176.161,24.459 176.275,24.562 176.407,24.711 176.521,24.846 
								176.604,24.98 176.646,25.079 176.646,25.143 176.617,25.197 176.537,25.245 176.527,25.248 176.521,25.229 							"></polygon>
							<g>
								<polygon fill="none" points="162.487,25.093 162.497,25.09 162.561,25.09 162.67,25.083 162.772,24.89 162.81,24.885 
									162.822,24.878 175.207,24.258 175.415,24.274 175.587,24.268 175.75,24.29 175.899,24.319 176.037,24.386 176.161,24.459 
									176.275,24.562 176.407,24.711 176.521,24.846 176.604,24.98 176.646,25.079 176.646,25.143 176.617,25.197 176.537,25.245 
									176.527,25.248 176.388,25.28 176.178,25.305 163.451,25.961 163.441,25.958 163.263,25.952 163.088,25.903 162.931,25.83 
									162.797,25.753 162.686,25.642 162.605,25.53 162.535,25.422 162.481,25.329 162.472,25.262 162.465,25.186 162.481,25.105 
																	"></polygon>
								<path fill="#010101" d="M162.322,25.169l0.013,0.121l0.025,0.083l0.035,0.118l0.083,0.134l0.102,0.108l0.131,0.118
									l0.156,0.105l0.176,0.08l0.185,0.051l0.224,0l12.723-0.646l0.242-0.026l0.172-0.038l0.125-0.086l0.07-0.115l-0.003-0.118
									l-0.048-0.144l-0.093-0.137l-0.127-0.16l-0.132-0.15l-0.141-0.122l-0.148-0.092l-0.147-0.07l-0.16-0.032l-0.19-0.032h-0.192
									l-0.217,0.013l-12.381,0.611l0.001,0.004l-0.132,0.005l-0.134,0.051l-0.089,0.077l-0.062,0.087l-0.042,0.092L162.322,25.169
									z M162.465,25.186l0.017-0.08l0.006-0.013l0.01-0.003h0.063l0.109-0.006l0.103-0.193l0.037-0.005l0.013-0.006l12.385-0.621
									l0.208,0.016l0.172-0.006l0.163,0.022l0.149,0.029l0.138,0.066l0.124,0.073l0.114,0.103l0.132,0.149l0.114,0.135
									l0.083,0.134l0.042,0.099v0.063l-0.029,0.054l-0.08,0.048l-0.01,0.002l-0.14,0.032l-0.21,0.025l-12.727,0.656l-0.01-0.003
									l-0.179-0.006l-0.175-0.048l-0.157-0.073l-0.134-0.077l-0.111-0.112l-0.08-0.111l-0.07-0.108l-0.054-0.093l-0.01-0.067
									L162.465,25.186z"></path>
							</g>
						</g>
					</g>
				</g>
			</g>
		</g>
	</g>
</g>


<g>
	<path fill="#EB242B" d="M14.056,180.254c0,0.421-0.191,0.832-0.572,1.231l-0.06,0.059l-3.336,3.517
		c-0.709,0.745-1.312,1.322-1.811,1.729c-0.498,0.406-0.85,0.61-1.056,0.61c-0.215,0-0.482-0.102-0.804-0.305
		c-0.32-0.204-0.527-0.414-0.62-0.63c-0.08-0.181-0.154-0.562-0.224-1.145c-0.071-0.583-0.105-1.215-0.105-1.896
		c0-0.371,0.154-0.715,0.464-1.03c0.31-0.314,0.651-0.472,1.025-0.472c0.356,0,0.568,0.326,0.637,0.978
		c0.008,0.075,0.013,0.131,0.017,0.167c0.058,0.502,0.124,0.851,0.199,1.048c0.075,0.198,0.179,0.297,0.308,0.297
		c0.054,0,0.155-0.059,0.302-0.176c0.147-0.116,0.324-0.275,0.529-0.477l3.427-3.397c0.288-0.289,0.546-0.506,0.772-0.654
		c0.227-0.146,0.419-0.222,0.577-0.222c0.118,0,0.203,0.046,0.254,0.136c0.051,0.091,0.076,0.241,0.076,0.454V180.254z"></path>
</g>
<g>
	<path fill="#EB242B" d="M24.168,15.705c0,0.421-0.191,0.832-0.572,1.231l-0.06,0.059l-3.336,3.517
		c-0.709,0.745-1.312,1.322-1.811,1.729c-0.498,0.406-0.85,0.61-1.056,0.61c-0.215,0-0.482-0.102-0.804-0.305
		c-0.32-0.204-0.527-0.414-0.62-0.63c-0.08-0.181-0.154-0.562-0.224-1.145c-0.071-0.583-0.105-1.215-0.105-1.896
		c0-0.371,0.154-0.715,0.464-1.03c0.31-0.314,0.651-0.472,1.025-0.472c0.356,0,0.568,0.326,0.637,0.978
		c0.008,0.075,0.013,0.131,0.017,0.167c0.058,0.502,0.124,0.851,0.199,1.048c0.075,0.198,0.179,0.297,0.308,0.297
		c0.054,0,0.155-0.059,0.302-0.176c0.147-0.116,0.324-0.275,0.529-0.477l3.427-3.397c0.288-0.289,0.546-0.506,0.772-0.654
		c0.227-0.146,0.419-0.222,0.577-0.222c0.118,0,0.203,0.046,0.254,0.136c0.051,0.091,0.076,0.241,0.076,0.454V15.705z"></path>
</g>
<line fill="none" stroke="#ED1C24" x1="14.587" y1="188.514" x2="73.794" y2="188.514"></line>

<g>
	<path fill="#EB242B" d="M137.845,72.194c0,0.421-0.191,0.832-0.572,1.231l-0.06,0.059l-3.336,3.517
		c-0.709,0.745-1.312,1.322-1.811,1.729c-0.498,0.406-0.85,0.61-1.056,0.61c-0.215,0-0.482-0.102-0.804-0.305
		c-0.32-0.204-0.527-0.414-0.62-0.63c-0.08-0.181-0.154-0.562-0.224-1.145c-0.071-0.583-0.105-1.215-0.105-1.896
		c0-0.371,0.154-0.715,0.464-1.03c0.31-0.314,0.651-0.472,1.025-0.472c0.356,0,0.568,0.326,0.637,0.978
		c0.008,0.075,0.013,0.131,0.017,0.167c0.058,0.502,0.124,0.851,0.199,1.048c0.075,0.198,0.179,0.297,0.308,0.297
		c0.054,0,0.155-0.059,0.302-0.176c0.147-0.116,0.324-0.275,0.529-0.477l3.427-3.397c0.288-0.289,0.546-0.506,0.772-0.654
		c0.227-0.146,0.419-0.222,0.577-0.222c0.118,0,0.203,0.046,0.254,0.136c0.051,0.091,0.076,0.241,0.076,0.454V72.194z"></path>
</g>
<line fill="none" stroke="#00AEEF" stroke-dasharray="3.3329" x1="136.626" y1="80.726" x2="178.126" y2="80.726"></line>
</svg>