<svg version="1.1" xmlns="http://www.w3.org/2000/svg" xmlns:xlink="http://www.w3.org/1999/xlink" x="0px" y="0px" width="1575" height="3075" viewBox="0 0 1575 3075" enable-background="new 0 0 378 738" xml:space="preserve"><g transform="translate(0, 750) scale(2.1341463414634148)">
<g id="Layer_1">
	<rect fill="#929497" width="378" height="738"/>
	<rect x="9" y="9" fill="#FFFFFF" width="360" height="720"/>
	<rect x="9" y="9" fill="none" stroke="#EC1E28" stroke-width="0.7071" width="360" height="720"/>
	
	
	
	
	
	
	
	
	
	
	
	
	
	
	
	
	
	
	
	
	
	
	
	
	<rect x="137.608" y="40.858" fill="#D0D2D3" width="196.92" height="200.729"/>
	
	
	
	
		<rect x="18" y="18" fill="none" stroke="#2BA6DE" stroke-width="0.698" stroke-dasharray="1.0072,1.0072" width="342" height="702"/>
	<rect x="350.87" y="535.894" fill="#F9A51A" width="26.989" height="54.685"/>
	<g>
		<defs>
			<rect id="SVGID_1_" x="-360.141" width="738" height="738"/>
		</defs>
		<clipPath id="SVGID_2_">
			<use xlink:href="#SVGID_1_" overflow="visible"/>
		</clipPath>
		<g clip-path="url(#SVGID_2_)">
			
		</g>
		<g clip-path="url(#SVGID_2_)">
			
		</g>
		<line clip-path="url(#SVGID_2_)" fill="none" stroke="#F9A51A" x1="256.875" y1="535.726" x2="377.825" y2="535.726"/>
	</g>
	<line fill="none" stroke="#EC1E28" x1="274.532" y1="361.588" x2="368.828" y2="361.588"/>
	<line fill="none" stroke="#929497" x1="262.622" y1="411.187" x2="375.575" y2="411.187"/>
	<line fill="none" stroke="#2BA6DE" stroke-dasharray="1.442,1.442" x1="270.869" y1="263.057" x2="358.832" y2="263.057"/>
	<g>
		<defs>
			<rect id="SVGID_3_" x="-360.141" width="738" height="738"/>
		</defs>
		<clipPath id="SVGID_4_">
			<use xlink:href="#SVGID_3_" overflow="visible"/>
		</clipPath>
		<path clip-path="url(#SVGID_4_)" fill="#EC1E28" d="M269.486,250.044c0,0.686-0.312,1.354-0.932,2.004l-0.097,0.097l-5.431,5.723    c-1.153,1.214-2.135,2.152-2.946,2.814c-0.812,0.662-1.384,0.993-1.719,0.993c-0.351,0-0.786-0.165-1.309-0.496    c-0.521-0.332-0.857-0.673-1.01-1.025c-0.129-0.293-0.251-0.914-0.363-1.863c-0.116-0.95-0.172-1.978-0.172-3.086    c0-0.604,0.251-1.162,0.755-1.676c0.504-0.512,1.06-0.768,1.669-0.768c0.58,0,0.926,0.53,1.036,1.591    c0.013,0.123,0.021,0.213,0.027,0.272c0.095,0.815,0.201,1.384,0.324,1.706c0.123,0.322,0.29,0.483,0.501,0.483    c0.088,0,0.252-0.095,0.491-0.286c0.24-0.19,0.528-0.449,0.862-0.777l5.579-5.53c0.468-0.469,0.887-0.824,1.256-1.064    c0.369-0.24,0.682-0.361,0.938-0.361c0.194,0,0.332,0.074,0.414,0.22c0.082,0.147,0.124,0.393,0.124,0.738V250.044z"/>
		<path clip-path="url(#SVGID_4_)" fill="#EC1E28" d="M369.898,366.271l0.265-5.057l-1.558,0.956l0.074-1.142l1.595-0.949    c0.03-0.413,0.063-0.797,0.103-1.149c0.044-0.352,0.091-0.686,0.144-1l0.043-0.235c-0.122,0.042-0.24,0.07-0.353,0.083    c-0.113,0.014-0.217,0.014-0.313-0.003c-0.312-0.053-0.551-0.208-0.718-0.461c-0.171-0.255-0.227-0.544-0.17-0.871    c0.063-0.367,0.242-0.661,0.54-0.883c0.296-0.221,0.616-0.302,0.962-0.243c0.298,0.053,0.522,0.196,0.674,0.434    c0.15,0.237,0.196,0.519,0.14,0.85c-0.028,0.158-0.104,0.386-0.235,0.688c-0.129,0.302-0.205,0.53-0.233,0.687    c-0.043,0.254-0.028,0.514,0.047,0.782c0.074,0.266,0.21,0.551,0.411,0.849c0.391-0.154,0.729-0.368,1.017-0.645    c0.288-0.274,0.519-0.607,0.691-0.996c0.06-0.127,0.136-0.306,0.229-0.535c0.095-0.228,0.164-0.374,0.206-0.438    c0.146-0.211,0.323-0.365,0.527-0.462c0.203-0.097,0.421-0.126,0.65-0.087c0.298,0.053,0.525,0.203,0.685,0.453    c0.158,0.251,0.209,0.545,0.149,0.882c-0.06,0.348-0.231,0.623-0.515,0.823c-0.284,0.199-0.598,0.27-0.945,0.209    c-0.151-0.025-0.286-0.081-0.408-0.165c-0.121-0.084-0.233-0.201-0.333-0.353c-0.222,0.466-0.479,0.868-0.771,1.202    c-0.293,0.333-0.618,0.6-0.974,0.799c-0.13,1.269-0.22,2.137-0.274,2.605c-0.054,0.467-0.098,0.81-0.135,1.025    c-0.095,0.54-0.237,0.995-0.431,1.367C370.488,365.662,370.229,365.987,369.898,366.271 M369.954,357.381    c0.237,0.042,0.456-0.015,0.65-0.168c0.2-0.154,0.322-0.362,0.368-0.627c0.04-0.23,0.008-0.429-0.096-0.6    c-0.103-0.169-0.254-0.271-0.451-0.305c-0.245-0.042-0.473,0.016-0.686,0.175c-0.211,0.158-0.338,0.37-0.384,0.635    c-0.039,0.222-0.002,0.417,0.109,0.584C369.576,357.243,369.738,357.345,369.954,357.381 M374.106,358.438    c0.251,0.043,0.472-0.006,0.666-0.146s0.313-0.339,0.354-0.595c0.04-0.222,0.009-0.414-0.094-0.577    c-0.102-0.161-0.254-0.26-0.452-0.293c-0.229-0.04-0.447,0.024-0.654,0.192c-0.207,0.167-0.333,0.383-0.377,0.647    c-0.035,0.203-0.003,0.373,0.097,0.512C373.748,358.314,373.901,358.401,374.106,358.438"/>
		<path clip-path="url(#SVGID_4_)" fill="#EC1E28" d="M273.816,347.742c0,0.686-0.311,1.354-0.931,2.005l-0.097,0.097l-5.43,5.723    c-1.154,1.213-2.137,2.151-2.947,2.813c-0.812,0.663-1.385,0.993-1.718,0.993c-0.352,0-0.788-0.165-1.309-0.496    c-0.521-0.331-0.857-0.673-1.01-1.024c-0.13-0.294-0.251-0.914-0.365-1.864c-0.114-0.949-0.173-1.978-0.173-3.086    c0-0.604,0.252-1.162,0.756-1.675c0.505-0.512,1.061-0.769,1.67-0.769c0.581,0,0.926,0.531,1.035,1.591    c0.014,0.123,0.021,0.214,0.028,0.273c0.093,0.815,0.201,1.383,0.325,1.706c0.123,0.321,0.288,0.483,0.5,0.483    c0.088,0,0.252-0.095,0.492-0.286s0.526-0.45,0.861-0.778l5.579-5.53c0.468-0.468,0.888-0.824,1.255-1.064    c0.37-0.24,0.684-0.36,0.94-0.36c0.194,0,0.331,0.073,0.413,0.22c0.082,0.146,0.123,0.392,0.123,0.738V347.742z"/>
		<path clip-path="url(#SVGID_4_)" fill="#EC1E28" d="M260.488,398.423c0,0.688-0.31,1.354-0.931,2.005l-0.097,0.1l-5.43,5.721    c-1.153,1.213-2.137,2.15-2.948,2.814c-0.81,0.662-1.382,0.994-1.716,0.994c-0.352,0-0.788-0.166-1.31-0.497    s-0.858-0.674-1.011-1.025c-0.128-0.293-0.25-0.914-0.364-1.864c-0.114-0.949-0.173-1.977-0.173-3.085    c0-0.604,0.253-1.162,0.757-1.674c0.503-0.514,1.061-0.771,1.669-0.771c0.58,0,0.926,0.53,1.037,1.591    c0.012,0.123,0.021,0.215,0.027,0.273c0.094,0.814,0.201,1.384,0.324,1.706c0.124,0.323,0.29,0.483,0.501,0.483    c0.087,0,0.251-0.096,0.492-0.286c0.24-0.189,0.526-0.449,0.861-0.777l5.578-5.531c0.469-0.469,0.887-0.822,1.257-1.062    c0.368-0.24,0.682-0.361,0.939-0.361c0.193,0,0.332,0.074,0.413,0.22c0.081,0.147,0.122,0.394,0.122,0.739V398.423z"/>
		<path clip-path="url(#SVGID_4_)" fill="#EC1E28" d="M238.498,609.823c0,0.688-0.311,1.354-0.932,2.006l-0.096,0.098l-5.431,5.722    c-1.153,1.214-2.136,2.151-2.947,2.814c-0.812,0.661-1.384,0.994-1.717,0.994c-0.352,0-0.788-0.166-1.31-0.497    c-0.521-0.331-0.858-0.674-1.011-1.025c-0.129-0.293-0.251-0.914-0.363-1.864c-0.115-0.949-0.173-1.978-0.173-3.085    c0-0.604,0.253-1.162,0.756-1.675c0.504-0.513,1.061-0.769,1.67-0.769c0.579,0,0.925,0.529,1.037,1.591    c0.012,0.122,0.02,0.215,0.025,0.272c0.094,0.814,0.202,1.384,0.325,1.707c0.123,0.322,0.291,0.481,0.502,0.481    c0.087,0,0.251-0.095,0.491-0.285s0.525-0.449,0.861-0.777l5.578-5.531c0.469-0.469,0.887-0.823,1.257-1.062    c0.368-0.241,0.682-0.362,0.939-0.362c0.193,0,0.331,0.074,0.413,0.221s0.123,0.393,0.123,0.738V609.823z"/>
		<path clip-path="url(#SVGID_4_)" fill-rule="evenodd" clip-rule="evenodd" d="M301.249,116.015    c0,34.333-27.814,62.166-62.12,62.166c-34.31,0-62.124-27.833-62.124-62.166s27.814-62.166,62.124-62.166    C273.435,53.849,301.249,81.682,301.249,116.015"/>
		<path clip-path="url(#SVGID_4_)" fill-rule="evenodd" clip-rule="evenodd" fill="#B7D333" d="M295.645,116.358    c0,31.212-25.284,56.515-56.474,56.515s-56.475-25.303-56.475-56.515s25.285-56.514,56.475-56.514S295.645,85.146,295.645,116.358    "/>
		<path clip-path="url(#SVGID_4_)" d="M227.079,104.035c-0.784,6.927-1.367,12.49-1.755,16.691l-2.575,0.113    c0.036-0.14,0.056-0.297,0.062-0.472c0.004-0.314-0.112-0.728-0.348-1.242c-0.236-0.512-0.371-0.839-0.404-0.979    c-0.666,0.094-1.306,0.557-1.914,1.386c-0.61,0.832-1.16,1.244-1.649,1.236c-0.282-0.005-0.596-0.083-0.942-0.227    c-0.46,0.307-1.057,0.436-1.793,0.39c-0.663-0.117-1.31-0.215-1.939-0.297c-0.02-0.874-0.882-1.643-2.586-2.305    c0.005-0.349-0.17-0.87-0.526-1.558c-0.356-0.691-0.532-1.173-0.526-1.455c0.004-0.317,0.132-0.576,0.382-0.782    c-0.035-0.106-0.322-0.759-0.861-1.961c-0.37-0.881-0.55-1.64-0.538-2.268c0.006-0.491,0.121-0.946,0.338-1.362    c-0.299-2.986-0.432-5.544-0.395-7.682c0.055-3.295,0.526-6.318,1.415-9.074c-0.063-0.42-0.092-0.84-0.085-1.262    c0.037-2.207,0.801-3.735,2.283-4.587l0.012-0.683c1.469-1.869,3.399-3.22,5.796-4.056c1.43,0.34,2.86,0.663,4.291,0.968    c1.603,0.552,2.708,1.5,3.315,2.843c0.484,0.289,0.721,0.872,0.705,1.746c-0.016,0.981,0.096,1.615,0.336,1.899l-0.268,0.311    c0.279,2.072,0.416,3.337,0.408,3.791c-0.022,1.333-0.373,2.274-1.047,2.822c-0.244-0.005-0.89-0.225-1.932-0.662    c-0.25,0.239-0.515,0.358-0.794,0.353c-0.141-0.002-0.395-0.077-0.76-0.224c-0.364-0.146-0.671-0.222-0.915-0.226    c-0.176-0.002-0.354,0.03-0.528,0.097c-0.021-2.769,0.066-4.836,0.263-6.201c-0.276-0.179-0.558-0.588-0.844-1.222    c-0.288-0.636-0.66-0.993-1.111-1.07c-0.285,0.346-0.413,0.571-0.38,0.677l-0.939-0.331c-0.856,0.932-1.427,2.552-1.71,4.859    c-0.291,2.658-0.653,4.423-1.088,5.291c0.376,0.393,0.562,0.94,0.549,1.639c-0.004,0.247-0.045,0.65-0.127,1.208    c-0.08,0.56-0.12,0.979-0.124,1.261c-0.007,0.315,0.021,0.597,0.089,0.842l-0.64,0.619c0.26,1.196,0.41,2.708,0.449,4.53    c-0.025,1.542-0.037,3.084-0.025,4.625c-0.038,0-0.335,0.013-0.896,0.037c-0.35-0.005-0.598,0.113-0.741,0.357    c0.212-0.031,0.404-0.047,0.577-0.043c0.771,0.012,1.376,0.557,1.812,1.633c0.436,1.079,0.812,1.619,1.128,1.625    c0.349,0.004,0.828-0.319,1.438-0.976c1.031-1.104,1.565-2.62,1.599-4.545c0.017-0.948-0.09-1.965-0.316-3.055    c-0.25,0.137-0.375,0.484-0.385,1.043c-0.561-0.009-0.912,0.108-1.058,0.35c-0.243-0.074-0.347-0.268-0.305-0.583    c0.041-0.454,0.063-0.699,0.065-0.735c0.423-0.133,0.633-0.323,0.639-0.567c0.002-0.105-0.074-0.3-0.227-0.583    c-0.151-0.282-0.227-0.51-0.225-0.686c0.004-0.141,0.041-0.28,0.113-0.42l0.244-2.046c0.768,0.224,2.428,0.321,4.986,0.296    c-0.074,0.174,0.028,0.405,0.305,0.687c0.248-0.241,0.511-0.359,0.793-0.354c0.211,0.005,0.523,0.098,0.941,0.28    C226.607,103.942,226.903,104.033,227.079,104.035"/>
		<path clip-path="url(#SVGID_4_)" d="M246.683,122.139c-0.487-0.219-1.01-0.333-1.571-0.343c-0.488-0.007-1.158,0.086-2.001,0.283    c-0.949,0.193-1.598,0.304-1.948,0.335c-0.375-0.742-0.636-1.765-0.789-3.065c-0.284-1.896-0.461-2.967-0.521-3.214    c0.107-0.209,0.163-0.383,0.164-0.522c0.009-0.388-0.294-0.732-0.901-1.041c-0.609-0.308-0.911-0.55-0.907-0.727    c0.002-0.208,0.359-0.519,1.066-0.929c-0.171-0.212-0.298-0.643-0.371-1.291c-0.077-0.65-0.238-1.084-0.478-1.299    c-0.427,0.38-1.122,0.623-2.087,0.729c-0.967,0.106-1.607,0.262-1.924,0.465c0.021,2.735-0.43,4.568-1.355,5.498    c-0.489-0.114-0.862,0.072-1.113,0.56c-0.361,0.589-0.665,0.936-0.912,1.035l0.309,0.374c-0.283,0.239-0.74,0.339-1.368,0.292    c-0.983-0.053-1.505-0.078-1.575-0.078l-0.299-0.952l3.422-28.385c0.03-1.787,0.121-2.995,0.271-3.623    c-0.045-1.579,0.324-2.554,1.099-2.925c0.485,0.322,1.098,0.491,1.833,0.504c0.594,0.009,1.525-0.114,2.789-0.374    c1.268-0.258,2.144-0.384,2.635-0.376c1.714,0.029,2.463,1.269,2.249,3.718c-0.174,1.96,0.132,4.542,0.918,7.746    c0.817,3.447,1.213,6.03,1.183,7.748c-0.01,0.525,0.163,1.614,0.12,2.14c-0.742,0.406-1.691,0.653-2.85,0.738    c-1.017,0.053-2.05,0.106-3.103,0.158c-0.271-2.667-0.739-5.883-1.011-8.517c-0.332-3.159-0.744-5.759-1.232-7.799l-1.622,15.007    c-0.125,1.294,0.459,1.954,1.755,1.976c0.419,0.006,0.821-0.093,1.211-0.295c0.318-0.1,0.753,0.136,1.303,0.704    c-0.02,1.088,0.197,1.739,0.649,1.958c0.567-0.378,1.309-0.732,2.226-1.067c0.81-0.301,1.603-0.585,2.379-0.854    c0.442,0.604,0.728,1.502,0.848,2.696c0.146,1.685,0.25,2.668,0.316,2.949c0.058,0.668,0.332,2.11,0.82,4.327    c0.354,1.757,0.524,3.18,0.506,4.267C246.804,121.195,246.761,121.684,246.683,122.139"/>
		<path clip-path="url(#SVGID_4_)" d="M270.873,97.104c-0.039,0.104-0.047,0.717-0.032,1.839c-0.015,0.911-0.133,1.594-0.349,2.046    c-0.259,0.696-0.397,1.692-0.419,2.987c-0.007,0.282,0.004,0.72,0.028,1.317c-0.01,0.595-0.017,1.032-0.021,1.312    c-0.036,2.209-0.414,3.812-1.134,4.818c0.062,0.564,0.087,1.124,0.078,1.683c-0.029,1.753-0.63,4.109-1.8,7.067    c-0.318,0.101-0.583,0.148-0.792,0.145c-0.421-0.007-0.722-0.249-0.908-0.724c-0.186-0.477-0.359-0.927-0.525-1.352    c0.112-2.695,0.058-6.622-0.17-11.779l0.319-0.309c-0.229-0.915-0.334-1.933-0.315-3.054c0.014-0.806,0.113-1.978,0.296-3.517    c0.185-1.538,0.283-2.695,0.295-3.466c0.012-0.49-0.002-0.964-0.026-1.419c-1.206,2.889-2.061,7.781-2.562,14.677l-0.438,1.042    c-0.146,0.35-0.446,0.537-0.9,0.564c-0.139-0.245-0.275-0.372-0.415-0.375c-0.105-0.001-0.292,0.127-0.557,0.385    c-0.27,0.258-0.49,0.367-0.664,0.33l-0.695,0.619c0.311,0.393,0.974,0.437,1.995,0.141c0.809-0.232,1.224,0.072,1.247,0.914    c0.021,0.701-0.171,1.645-0.575,2.83c-0.406,1.183-0.612,2.075-0.622,2.67c-0.007,0.42,0.037,0.842,0.136,1.264l-3.636,0.57    c-0.337-0.709-0.588-1.894-0.753-3.563c-0.164-1.668-0.416-2.855-0.754-3.561c0.214-0.241,0.323-0.501,0.328-0.783    c0.003-0.245-0.094-0.614-0.295-1.108c-0.204-0.494-0.321-0.865-0.351-1.111c-0.029-0.385-0.152-1.317-0.374-2.792    c-0.155-1.195-0.228-2.127-0.216-2.791c0.007-0.35,0.031-0.665,0.071-0.944c0.003-0.246-0.133-0.606-0.403-1.087    c-0.273-0.478-0.406-0.821-0.401-1.033c0.003-0.173,0.074-0.329,0.218-0.465c-0.242-0.288-0.337-0.779-0.29-1.48    c0.045-0.7-0.052-1.192-0.29-1.476c-0.516,1.357-0.79,3.192-0.831,5.507c-0.019,3.223-0.052,5.082-0.094,5.569l0.362,0.323    l-0.372,0.308c0.259,1.267,0.371,2.881,0.337,4.843c-0.095,3.538-0.141,5.185-0.135,4.941c-0.498,0.446-1.187,0.662-2.061,0.647    c-1.085-0.018-1.822,0.077-2.211,0.278c-0.444-0.778-0.655-1.78-0.631-3.007c0.013-0.945,0.176-2.098,0.478-3.462    c-0.476-0.884-0.699-2.115-0.673-3.691c0.008-0.387,0.053-1.121,0.142-2.206c0.05-0.874,0.062-1.523,0.036-1.945    c0.352-0.168,0.528-0.358,0.532-0.568c0.004-0.141-0.106-0.379-0.329-0.717c-0.223-0.335-0.332-0.592-0.329-0.767    c0.004-0.21,0.148-0.417,0.431-0.625l-1.131-17c0.675-0.443,1.765-0.654,3.27-0.627c1.645,0.064,2.767-0.023,3.367-0.257    c0.106-0.07,0.228-0.103,0.369-0.101c0.14,0.002,0.305,0.086,0.495,0.245c0.19,0.162,0.32,0.241,0.389,0.243    c0.14,0.003,0.266-0.1,0.374-0.308l0.981,0.963c0.329,1.233,0.639,3.621,0.93,7.164c0.297,3.055,0.767,5.361,1.407,6.913    c0.858-3.104,1.565-5.704,2.129-7.798l1.139-8.319l8.144-0.177c0.028,0.455,0.129,2.891,0.35,4.298    c0.188,1.228,0.278,2.229,0.264,3c-0.014,0.877-0.15,1.662-0.407,2.358c0.274,0.392,0.405,0.882,0.395,1.478    C271.309,96.236,271.158,96.723,270.873,97.104"/>
		<path clip-path="url(#SVGID_4_)" d="M287.581,115.526l0.002-0.053c-0.219,0.453-0.351,0.976-0.396,1.57    c-0.041,0.385-0.051,0.928-0.027,1.629c0.021,0.807,0.029,1.369,0.024,1.682c-0.281-0.003-1.401-0.022-3.362-0.055    c-1.189-0.021-2.261,0.083-3.21,0.313l-0.98-1.068c-0.285,0.274-0.393,0.501-0.325,0.679c-0.175-0.042-0.982-0.052-2.415-0.043    c-1.123-0.019-1.962-0.139-2.517-0.359c-0.571,0.588-1.237,0.577-1.998-0.032c-0.276-0.214-0.303-0.576-0.086-1.08    c0.219-0.505,0.155-0.882-0.19-1.134c0.053-1.119,0.206-2.852,0.456-5.197c0.246-2.097,0.377-3.744,0.398-4.935    c0.027-1.611-0.085-3.155-0.34-4.631c0.392-0.38,0.83-0.566,1.32-0.557c0.562,0.009,1.222,0.284,1.983,0.821    c1.07,0.755,1.629,1.132,1.663,1.133l0.306,0.373c0.038-0.103,0.224-0.661,0.556-1.673c0.186-0.662,0.456-1.095,0.812-1.3    l0.31,0.322c0.14-0.068,0.6-0.394,1.382-0.976c0.6-0.41,1.092-1.383,1.44-1.377c0.386,0.007,0.749,0.224,1.093,0.65    c0.591,0.326,0.961,1.585,1.145,2.236c0.18,0.65,0.354,1.292,0.519,1.928c-1.577,0.043-2.873,0.002-3.885-0.119    c-0.253,0.381-0.604,0.435-1.055,0.165c-0.45-0.271-0.782-0.231-1,0.115c-0.011,0.632-0.03,1.77-0.059,3.415    c-0.061,1.473-0.079,2.628-0.058,3.471c0.012,1.296,0.099,2.49,0.255,3.579c0.278,0.005,1.608,0.027,3.988,0.067    C284.979,115.115,286.395,115.26,287.581,115.526 M287.694,90.345c-0.315,0.028-0.666,0.04-1.053,0.035    c-0.804-0.014-1.871-0.138-3.197-0.37c-1.645-0.239-2.641-0.377-2.989-0.418c-0.502,0.724-0.764,1.757-0.787,3.088    c-0.049,2.873-0.053,4.117-0.011,3.732c0.484,0.288,0.722,0.818,0.707,1.589c-0.052,1.05-0.061,1.594-0.026,1.629    c-0.247,0.102-0.375,0.449-0.385,1.046c-0.384-0.148-0.779-0.435-1.193-0.862c-0.553-0.536-0.846,1.281-0.804,0.826l-0.332,1.08    l-0.312-0.322c-0.281,0.029-0.76-0.118-1.437-0.445c-0.679-0.326-1.153-0.63-1.429-0.919c0.01-0.56,0.104-0.874,0.277-0.942    l-0.669-0.745l-0.323,0.467c-0.392-3.652-0.295-10.481,0.19-14.328c1.327,0.233,2.796,0.381,4.405,0.443    c1.085,0.052,2.606,0.078,4.568,0.077c2.241,0.003,3.855,0.012,4.834,0.028c0.413,0.395,0.615,0.906,0.605,1.535    c-0.008,0.389-0.115,1.006-0.322,1.863C287.807,89.288,287.7,89.923,287.694,90.345"/>
		<path clip-path="url(#SVGID_4_)" d="M228.659,147.31l-0.002-0.024c0.002,0.016-0.09,0.788-0.271,2.316    c-0.09,0.94-0.316,1.677-0.679,2.216l-0.228-0.187c-0.425,0.892-1.003,1.434-1.738,1.628c-0.35,0.37-0.857,0.574-1.518,0.612    c-0.394,0.024-1.3-0.091-2.724-0.342c-0.686-0.427-1.062-0.662-1.128-0.709c-0.432-0.326-0.638-0.656-0.615-0.99    c-0.418-0.426-1.007-1.188-1.227-2.141c-0.267-1.052-0.431-1.112-0.68-1.481c-0.396,0.291-0.539-0.329-0.769-0.701l0.208-0.162    c-0.129-0.093-0.196-0.196-0.204-0.313c-0.005-0.083,0.029-0.205,0.104-0.368s0.108-0.287,0.102-0.369    c-0.006-0.131-0.086-0.245-0.236-0.337c0.16-0.826,0.305-2.068,0.437-3.727c0.282-0.149,0.415-0.441,0.401-0.874    c-0.017-0.431,0.043-0.718,0.181-0.86c0.669-1.34,1.755-2.244,3.261-2.716c0.082,0.012,0.486,0.005,1.209-0.02    c0.498-0.012,0.872,0.032,1.126,0.134c0.451-0.076,0.904,0.032,1.354,0.323c0.392,0.294,0.782,0.588,1.171,0.882    c0.729,0.792,1.123,1.686,1.182,2.683c0.02,0.332-0.004,0.683-0.064,1.053c-0.539-0.018-0.922,0.338-1.149,1.069l-2.1,0.196    c-0.226-0.319-0.356-0.747-0.386-1.278c-0.011-0.183-0.009-0.45,0-0.801c0.011-0.35,0.012-0.617,0-0.799    c-0.031-0.549-0.16-0.984-0.386-1.304l-0.632,0.361c-0.254-0.102-0.386-0.252-0.397-0.452c-0.005-0.066,0.006-0.163,0.03-0.289    c0.023-0.127,0.034-0.215,0.03-0.264c-0.013-0.215-0.206-0.346-0.582-0.393c-0.256,2.367-0.333,4.798-0.229,7.292    c0.065,0.08,0.266,0.136,0.6,0.166c0.271,0.034,0.409,0.118,0.417,0.251c0.003,0.051-0.012,0.118-0.05,0.202l-0.208,0.163    c0.112,0.177,0.181,0.424,0.199,0.739c0.009,0.166,0.002,0.422-0.019,0.763c-0.021,0.344-0.028,0.599-0.019,0.764    c0.031,0.499,0.154,0.877,0.379,1.13c-0.023,0.367,0.128,0.618,0.444,0.75c0.204-0.08,0.386-0.123,0.553-0.132    c0.64-0.038,1.085,0.31,1.333,1.049c0.001,0.016-0.002,0.141-0.009,0.375c0.007,0.133,0.074,0.219,0.201,0.261    c0.281-0.165,0.42-0.466,0.414-0.897c-0.007-0.5,0.058-0.821,0.194-0.963c-0.035-0.23-0.173-0.563-0.416-1    c-0.244-0.436-0.372-0.778-0.387-1.028c-0.016-0.266,0.063-0.52,0.235-0.764c-0.147-0.042-0.215-0.138-0.203-0.287    c0.007-0.236,0.011-0.361,0.011-0.377C226.324,147.054,227.483,147.044,228.659,147.31"/>
		<path clip-path="url(#SVGID_4_)" d="M238.164,149.261l-0.027,0.001c-0.122,0.24-0.159,0.585-0.115,1.03    c0.056,0.635,0.086,0.957,0.087,0.973c-0.094,0.036-0.224-0.011-0.386-0.141c-0.244,0.092-0.36,0.246-0.348,0.463    c0.002,0.031,0.015,0.085,0.038,0.16c0.006,0.092,0.011,0.155,0.013,0.186c0.009,0.169-0.041,0.297-0.152,0.381    c-0.279-0.155-0.646-0.253-1.1-0.296c-0.457-0.045-0.888-0.085-1.295-0.122c-0.006-2.11-0.289-4.173-0.849-6.187    c0,0.016-0.012-0.192-0.036-0.626c0.001-0.309-0.068-0.53-0.212-0.662l-0.193,0.174c-0.002-0.032,0.062-0.092,0.192-0.186    c0.13-0.091,0.192-0.186,0.188-0.278c-0.006-0.046-0.018-0.091-0.039-0.137l-0.211-0.151c-0.359,0.114-0.524,0.403-0.498,0.867    c0.02,0.309-0.105,0.527-0.367,0.65c0.102,0.071,0.154,0.161,0.16,0.27c0.005,0.061-0.004,0.148-0.027,0.256    c-0.023,0.111-0.032,0.197-0.029,0.258c0.01,0.138,0.083,0.25,0.223,0.336c0.004,0.093,0.054,0.928,0.143,2.505    c0.062,1.005,0.032,1.859-0.079,2.563l0.021,0.394c-0.136-0.007-0.29-0.006-0.462,0.003c-0.192,0.012-0.471,0.04-0.834,0.084    c-0.362,0.045-0.631,0.073-0.804,0.082c-0.71,0.04-1.208-0.079-1.495-0.357l-0.298-8.658c-0.141-0.426-0.232-1.018-0.276-1.776    l-0.097-1.669c-0.067-0.818-0.171-1.449-0.312-1.889c0.059-0.299,0.32-0.461,0.782-0.487c0.286-0.017,0.673,0.022,1.16,0.118    c0.225-0.107,0.538-0.171,0.943-0.195c0.115-0.007,0.296-0.01,0.548-0.008c0.268-0.015,0.46-0.027,0.575-0.033    c0.748-0.045,1.246-0.274,1.492-0.692c0.348-0.004,0.723,0.105,1.131,0.329c0.406,0.225,0.766,0.345,1.075,0.356    c0.817,0.481,1.257,1.277,1.325,2.389c0.012,0.248-0.084,1.231-0.293,2.949l-1.403,1.222c0.237,0.436,0.524,1.388,0.86,2.857    C237.165,147.792,237.594,148.689,238.164,149.261 M235.572,139.409l0.026,0.021c0.027,0.106,0.015-0.272-0.036-1.138    c-0.023-0.417-0.176-0.717-0.455-0.904c-0.16,0.227,0.021,0.332-0.055,0.856c-0.076,0.524-0.386,0.377-0.565,0.605    c-0.482-0.003-0.593,0.288-0.696-0.171c-0.216-0.748-0.402-0.682-0.403-0.696l-0.204,0.123c-0.072,0.066-0.156,0.141-0.247,0.223    c-0.091,0.084-0.186,0.113-0.282,0.086c0.005,0.094-0.041,0.24-0.134,0.44c-0.097,0.199-0.141,0.337-0.136,0.414    c0.01,0.14,0.119,0.24,0.334,0.306c-0.038,0.314-0.047,0.64-0.027,0.98c0.009,0.184,0.055,0.609,0.131,1.271    c0.087,0.522,0.123,0.97,0.105,1.342c0.175,0.007,0.339,0.006,0.493-0.005c0.673-0.039,1.108-0.305,1.31-0.796    c0.068-0.144,0.146-0.661,0.229-1.55C235.036,140.145,235.239,139.676,235.572,139.409"/>
		<path clip-path="url(#SVGID_4_)" d="M249.07,152.625c-0.275-0.079-0.566-0.108-0.873-0.09c-0.27,0.015-0.631,0.083-1.086,0.202    c-0.514,0.123-0.865,0.197-1.056,0.224c-0.231-0.313-0.41-0.749-0.539-1.317c-0.222-0.825-0.355-1.29-0.397-1.397    c0.052-0.096,0.074-0.175,0.072-0.237c-0.012-0.169-0.188-0.31-0.531-0.422c-0.345-0.111-0.519-0.207-0.522-0.285    c-0.003-0.091,0.178-0.242,0.554-0.449c-0.103-0.088-0.187-0.272-0.249-0.556c-0.065-0.283-0.167-0.467-0.308-0.553    c-0.222,0.185-0.593,0.319-1.118,0.403c-0.523,0.084-0.87,0.179-1.037,0.282c0.107,1.203,0,3.316-0.476,3.763    c-0.271-0.032-0.468,0.064-0.59,0.289c-0.178,0.273-0.332,0.44-0.464,0.493l0.182,0.151c-0.147,0.118-0.394,0.178-0.739,0.184    c-0.539,0.016-0.825,0.024-0.865,0.027l-0.195-0.409l0.808-13.925c-0.044-0.787-0.038-1.323,0.024-1.605    c-0.081-0.693,0.088-1.138,0.499-1.332c0.277,0.123,0.616,0.172,1.021,0.149c0.324-0.02,0.831-0.109,1.516-0.274    c0.683-0.162,1.159-0.253,1.427-0.269c0.943-0.054,1.396,0.463,1.362,1.549c-0.027,0.871,0.23,1.995,0.773,3.375    c0.567,1.487,0.873,2.61,0.918,3.367c0.014,0.231,0.321,0.724,0.314,0.956c-0.392,0.209-0.904,0.355-1.533,0.438    c-0.557,0.064-1.119,0.129-1.695,0.192c-0.238-1.166-0.784-2.581-1.023-3.731c-0.292-1.378-0.609-2.506-0.948-3.387l-0.364,6.675    c-0.023,0.574,0.32,0.841,1.029,0.799c0.229-0.011,0.448-0.072,0.655-0.176c0.171-0.056,0.415,0.031,0.735,0.26    c0.029,0.479,0.17,0.759,0.426,0.835c0.297-0.187,0.69-0.372,1.18-0.557c0.434-0.164,0.858-0.321,1.274-0.469    c0.263,0.248,0.448,0.633,0.558,1.155c0.138,0.735,0.23,1.164,0.277,1.285c0.055,0.291,0.254,0.917,0.599,1.874    c0.256,0.76,0.397,1.379,0.427,1.859C249.103,152.202,249.094,152.419,249.07,152.625"/>
		<path clip-path="url(#SVGID_4_)" d="M257.02,136.83l0.03-0.001c-0.23,0.339-0.523,0.403-0.883,0.192    c-0.079-0.013-0.425,0.008-1.038,0.058c-0.518,0.031-0.893,0.006-1.13-0.074c-0.057,0.005-0.172,0.062-0.338,0.171    c-0.167,0.111-0.289,0.169-0.366,0.173c-0.112,0.007-0.179-0.09-0.188-0.291c-0.002-0.031-0.011-0.162-0.024-0.395    c-0.009-0.154-0.084-0.259-0.221-0.312l-0.358,0.276c-0.112,0.085-0.165,0.173-0.158,0.266c0.004,0.077,0.068,0.185,0.192,0.325    c0.123,0.142,0.195,0.241,0.219,0.302c0.005,0.046,0.043,0.743,0.121,2.088c0.03,0.851,0.186,1.53,0.464,2.042    c0.072-0.081,0.248-0.126,0.529-0.135c0.277-0.008,0.463-0.07,0.551-0.184c0.183,0.161,0.486,0.17,0.913,0.029    c0.425-0.141,0.73-0.093,0.919,0.144l-0.055,2.05c-0.175-0.019-0.431-0.105-0.767-0.256c-0.098,0.3-0.29,0.489-0.574,0.567    c-0.114,0.04-0.438,0.072-0.977,0.104c0.014-0.095-0.067-0.189-0.25-0.288c-0.521,0.248-0.719,0.841-0.588,1.779    c0.014-0.094,0.033,0.067,0.058,0.486c0.015,0.262-0.04,0.452-0.168,0.567c-0.327,0.05-0.74-0.023-1.241-0.218    c-0.502-0.197-0.86-0.289-1.07-0.275c-0.097,0.005-0.184,0.019-0.259,0.038l-0.539,0.171l-0.861-9.371l-0.102-1.784    c0.716-0.242,1.604-0.396,2.659-0.458c0.825-0.047,1.903-0.04,3.236,0.022c0.084-0.176,0.243,0.054,0.436,0.042    c0.096-0.005,0.241,0.005,0.436,0.034c0.193,0.026,0.338,0.038,0.436,0.033c0.116-0.009,0.22-0.029,0.314-0.066l0.136-0.148    c0.392,0.117,0.598,0.323,0.611,0.616c0.007,0.124-0.028,0.335-0.106,0.636c-0.078,0.298-0.113,0.525-0.105,0.68    C256.923,136.604,256.959,136.726,257.02,136.83 M253.653,152.465c-0.207,0.106-0.521,0.169-0.942,0.195    c-0.557,0.032-0.892,0.059-1.006,0.081c-0.062-0.058-0.135-0.01-0.261-0.5c-0.076-0.32-0.278-0.473-0.604-0.452    c-0.078,0.005-0.172,0.017-0.287,0.04l-0.519,0.029l-0.275-4.742c0.281-0.14,0.633-0.223,1.055-0.248    c0.404-0.023,0.763,0.019,1.077,0.124c-0.01,0.171,0.236,0.244,0.733,0.213l0.548-0.032    C253.499,148.504,253.697,150.912,253.653,152.465"/>
		<path clip-path="url(#SVGID_4_)" d="M268.537,137.234l0.03,0.022c-0.271-0.016-1.141,0.042-1.81,0.127    c-0.575,0.066-1.008,0.076-1.3,0.031c-0.278,0.185-0.378,0.44-0.301,0.761l0.178,0.106c-0.145,0.133-0.197,0.236-0.155,0.312    l0.154,0.153c-0.034,2.748-0.04,4.267-0.023,4.562c0.039,0.726,0.127,1.364,0.254,1.916c-0.114,0.349-0.159,0.746-0.132,1.194    c0.018,0.293,0.087,0.758,0.209,1.395c0.124,0.636,0.29,2.726,0.31,3.051c0.015,0.246,0.008,0.48-0.019,0.698    c-0.264,0.11-0.549,0.172-0.856,0.19c-0.518,0.03-1.072-0.077-1.664-0.32c-0.074,0.066-0.155,0.135-0.248,0.211    c-0.092,0.075-0.115,0.158-0.072,0.248c-0.189,0.057-0.454-0.02-0.793-0.231c-0.182-2.783-0.68-8.45-1.418-14.177    c-0.257,0.231-0.731,0.038-1.23,0.097c-0.594,0.066-1.174-0.025-1.4,0.082c-0.286-0.31-0.224-0.399-0.254-0.908    c-0.028-0.495-0.188-1.715-0.061-2.225c0.026-0.108,1.102-0.047,1.733-0.098c0.863-0.051,1.055,0.154,1.11,0.149    c0.07-0.113,0.493-0.056,0.799-0.074c0.198,0.098,0.412-0.089,0.422,0.051c0.006,0.092,0,0.678-0.066,0.845    c-0.067,0.165-0.1,0.288-0.096,0.366c0.011,0.184,0.144-0.087,0.459,0.019c0.345-0.005,0.701-0.017,1.065-0.038    c0.407,0.037,0.874-0.111,0.837,0.234c0.07-0.099,0.115,0.075,0.699-0.161c0.432-0.195,0.694-0.705,0.608-1.053    c-0.046-0.191,0.214-0.314,0.052-0.224c0.207-0.114,0.02-0.035,0.245-0.124c0.719,0.066,1.118-0.008,1.252-0.017    c0.29-0.018,1.002,0.169,1.209,0.065c0.149,0.27,0.225,1.116,0.232,1.581C268.521,136.793,268.532,137.188,268.537,137.234"/>
		<path clip-path="url(#SVGID_4_)" d="M277.868,146.912l-0.003-0.023c-0.104,0.209-0.157,0.445-0.16,0.708    c-0.011,0.172,0.003,0.411,0.041,0.719c0.039,0.354,0.063,0.602,0.071,0.74c-0.155,0.008-0.769,0.044-1.843,0.107    c-0.652,0.038-1.235,0.126-1.747,0.264l-0.572-0.433c-0.147,0.135-0.198,0.239-0.157,0.312c-0.096-0.009-0.538,0.016-1.323,0.078    c-0.615,0.036-1.078,0.016-1.392-0.059c-0.291,0.279-0.656,0.303-1.094,0.063c-0.158-0.083-0.187-0.241-0.084-0.47    c0.102-0.232,0.054-0.396-0.146-0.494c-0.007-0.494,0.015-1.264,0.07-2.307c0.062-0.932,0.077-1.663,0.047-2.189    c-0.043-0.712-0.159-1.386-0.348-2.028c0.199-0.182,0.434-0.28,0.701-0.296c0.308-0.018,0.679,0.078,1.118,0.285    c0.613,0.288,0.928,0.435,0.947,0.435l0.183,0.15c0.018-0.047,0.097-0.302,0.245-0.758c0.077-0.3,0.211-0.501,0.398-0.605    l0.179,0.128c0.078-0.034,0.318-0.195,0.725-0.484c0.314-0.204,0.532-0.956,0.725-0.967c0.21-0.012,0.418,0.069,0.621,0.243    c0.333,0.121,0.6,0.965,0.722,1.244c0.122,0.28,0.238,0.556,0.352,0.829c-0.863,0.082-1.573,0.115-2.132,0.1    c-0.124,0.179-0.316,0.217-0.57,0.114c-0.257-0.1-0.439-0.071-0.546,0.092c0.017,0.278,0.047,0.78,0.088,1.507    c0.019,0.649,0.049,1.158,0.088,1.53c0.052,0.571,0.143,1.092,0.266,1.566c0.154-0.009,0.884-0.051,2.188-0.126    C276.427,146.833,277.207,146.841,277.868,146.912 M276.977,136.003c-0.172,0.027-0.365,0.045-0.577,0.058    c-0.441,0.025-1.026,0.012-1.764-0.038c-0.907-0.041-1.458-0.063-1.651-0.066c-0.248,0.339-0.282,0.615-0.248,1.203    c0.073,1.266,0.116,1.816,0.124,1.645c0.276,0.108,0.425,0.333,0.444,0.673c0.007,0.464,0.021,0.703,0.042,0.718    c-0.132,0.054-0.19,0.212-0.175,0.475c-0.215-0.048-0.444-0.161-0.684-0.333c-0.322-0.213-0.423,0.545-0.414,0.342l-0.146,0.472    l-0.18-0.128c-0.154,0.023-0.421-0.022-0.803-0.14c-0.383-0.116-0.656-0.234-0.815-0.348c-0.015-0.247,0.023-0.39,0.12-0.426    l-0.394-0.303l-0.16,0.218c-0.344-1.591-0.573-4.4-0.44-6.112c0.735,0.049,1.594-0.079,2.477-0.115    c0.595-0.018,1.432-0.066,2.506-0.144c1.227-0.086,2.108-0.145,2.646-0.177c0.239,0.157,0.371,0.374,0.386,0.652    c0.01,0.17-0.027,0.447-0.112,0.832C277.073,135.345,276.965,135.818,276.977,136.003"/>
		<path clip-path="url(#SVGID_4_)" d="M287.446,145.264l-0.028,0.004c-0.121,0.238-0.16,0.582-0.114,1.029    c0.056,0.633,0.084,0.957,0.085,0.972c-0.096,0.037-0.222-0.009-0.384-0.14c-0.246,0.091-0.36,0.246-0.35,0.461    c0.003,0.031,0.016,0.084,0.038,0.162c0.006,0.092,0.01,0.155,0.012,0.184c0.012,0.171-0.039,0.298-0.15,0.382    c-0.28-0.156-0.647-0.254-1.102-0.297c-0.455-0.043-0.887-0.086-1.293-0.124c-0.008-2.106-0.291-4.168-0.849-6.183    c0,0.015-0.014-0.194-0.038-0.628c0.002-0.308-0.068-0.529-0.211-0.661l-0.191,0.174c-0.002-0.029,0.061-0.092,0.191-0.185    c0.128-0.094,0.191-0.186,0.186-0.278c-0.004-0.046-0.016-0.094-0.038-0.138l-0.21-0.152c-0.359,0.116-0.525,0.404-0.498,0.868    c0.018,0.31-0.105,0.527-0.368,0.649c0.1,0.072,0.155,0.163,0.163,0.27c0.002,0.061-0.01,0.147-0.029,0.257    c-0.022,0.11-0.034,0.196-0.03,0.258c0.009,0.139,0.082,0.251,0.222,0.337c0.006,0.092,0.054,0.926,0.145,2.503    c0.061,1.005,0.031,1.861-0.081,2.564l0.023,0.395c-0.137-0.009-0.29-0.009-0.462,0.003c-0.193,0.011-0.471,0.039-0.834,0.083    c-0.364,0.043-0.63,0.072-0.804,0.082c-0.71,0.041-1.207-0.078-1.493-0.356l-0.301-8.66c-0.14-0.426-0.232-1.018-0.277-1.775    l-0.098-1.669c-0.066-0.818-0.168-1.448-0.31-1.889c0.059-0.298,0.321-0.46,0.78-0.488c0.289-0.017,0.675,0.024,1.163,0.118    c0.225-0.106,0.537-0.172,0.939-0.194c0.117-0.006,0.298-0.009,0.55-0.009c0.268-0.015,0.462-0.027,0.575-0.034    c0.75-0.043,1.246-0.273,1.492-0.69c0.346-0.005,0.724,0.105,1.13,0.329c0.409,0.224,0.767,0.343,1.079,0.356    c0.815,0.481,1.255,1.277,1.321,2.39c0.014,0.247-0.084,1.23-0.293,2.949l-1.403,1.22c0.239,0.436,0.524,1.388,0.862,2.858    C286.444,143.796,286.873,144.693,287.446,145.264 M284.852,135.412l0.031,0.023c0.024,0.107,0.011-0.273-0.037-1.138    c-0.025-0.418-0.179-0.72-0.458-0.904c-0.159,0.226-0.189-0.301-0.265,0.224s-0.203,0.899-0.38,1.128    c-0.483-0.004-0.595-0.291-0.88-0.693c-0.18-0.256-0.268-0.034-0.268-0.049l-0.131,0.105c-0.073,0.068-0.155,0.142-0.248,0.225    c-0.09,0.083-0.187,0.111-0.283,0.086c0.006,0.092-0.039,0.239-0.135,0.438c-0.092,0.2-0.138,0.338-0.135,0.414    c0.011,0.139,0.12,0.242,0.338,0.308c-0.042,0.312-0.051,0.638-0.031,0.979c0.014,0.185,0.054,0.608,0.132,1.272    c0.088,0.522,0.125,0.968,0.107,1.342c0.175,0.005,0.336,0.003,0.492-0.004c0.671-0.041,1.106-0.306,1.31-0.798    c0.066-0.145,0.145-0.661,0.228-1.55C284.316,136.149,284.521,135.681,284.852,135.412"/>
		<path clip-path="url(#SVGID_4_)" d="M191.964,105.325l0.001,0.022c-0.085,0.802-0.115,1.358-0.085,1.667    c-0.123,0.047-0.283,0.055-0.482,0.023c-0.255-0.043-0.401-0.064-0.445-0.061c-0.11,0.005-0.199,0.045-0.266,0.118    c-0.159-0.103-0.266-0.148-0.323-0.132c-0.148,0.092-0.219,0.222-0.213,0.389c0.007,0.071,0.032,0.193,0.083,0.364    c0.052,0.177,0.079,0.302,0.082,0.386c0.006,0.112-0.016,0.289-0.066,0.53c-0.051,0.24-0.073,0.438-0.066,0.592    c0.011,0.181,0.05,0.468,0.119,0.857c0.068,0.388,0.105,0.683,0.118,0.877c-0.081,0.384-0.11,0.772-0.092,1.163    c0.024,0.476,0.155,1.114,0.392,1.917c0.043,0.012,0.086,0.016,0.127,0.013c0.097-0.005,0.214-0.075,0.349-0.207    c0.133-0.132,0.246-0.201,0.347-0.206c0.069-0.003,0.146,0.013,0.232,0.051c0.251,0.815,0.383,1.341,0.396,1.579    c0.006,0.113,0.004,0.231-0.003,0.357c-0.375,0.09-0.642-0.037-0.796-0.379c0.021-0.1-0.032-0.203-0.165-0.309l-0.418,0.442    c0.41,0.064,0.571,0.379,0.487,0.944c-0.034,0.115-0.123,0.175-0.263,0.181c-0.239-0.001-0.35-0.003-0.337-0.003l-0.346-0.613    l-0.14,0.175c-0.113-0.289-0.247-0.43-0.398-0.423c-0.085,0.006-0.231,0.076-0.444,0.211c-0.208,0.138-0.384,0.211-0.523,0.217    c-0.111,0.005-0.225-0.023-0.342-0.089c-0.007-0.168-0.025-0.341-0.057-0.522c-0.03-0.181-0.124-0.295-0.279-0.345    c-0.009-0.433,0.004-1.577,0.036-3.43c0.015-1.404,0-2.539-0.045-3.406c-0.02-0.363-0.043-0.721-0.074-1.07    c-0.074-0.108-0.147-0.161-0.218-0.158c-0.058,0.003-0.142,0.065-0.254,0.182c-0.113,0.118-0.213,0.172-0.299,0.162    c-0.006-0.139-0.068-0.365-0.189-0.674c-0.121-0.31-0.185-0.534-0.193-0.674c-0.011-0.238,0.076-0.446,0.265-0.625l0.49,0.124    c0.196-0.277,0.276-0.744,0.244-1.402c-0.007-0.124-0.023-0.325-0.052-0.596c-0.026-0.273-0.044-0.472-0.051-0.597    c-0.054-1.077,0.276-1.635,0.988-1.67c0.266-0.015,0.592,0.033,0.974,0.14l0.47,0.125c0.037,0.18,0.062,0.368,0.071,0.563    c0.013,0.267,0.002,0.656-0.035,1.169c-0.04,0.515-0.051,0.891-0.041,1.128c0.021,0.378,0.087,0.719,0.2,1.02    c0.112-0.004,0.287-0.065,0.527-0.183c0.24-0.117,0.415-0.179,0.527-0.184C191.683,105.044,191.842,105.136,191.964,105.325     M190.504,106.829l-0.024-0.483l-0.152-0.139L190.504,106.829z"/>
		<path clip-path="url(#SVGID_4_)" d="M197.732,103.813l0.021-0.002c-0.05,0.381-0.109,0.763-0.174,1.145    c-0.075,0.439-0.199,0.781-0.368,1.029c-0.03-0.012-0.202-0.094-0.517-0.248c-0.217-0.115-0.41-0.16-0.575-0.139    c-0.129,0.821-0.197,1.94-0.21,3.356c-0.009,1.811-0.023,2.905-0.044,3.285c-0.211-0.016-0.369,0.05-0.473,0.203    c-0.105,0.154-0.204,0.308-0.293,0.467c-0.038,0.085-0.055,0.164-0.052,0.233c0.004,0.112,0.103,0.222,0.29,0.322    c0.187,0.104,0.283,0.219,0.289,0.344c-0.081,0.299-0.258,0.455-0.524,0.468c-0.123,0.007-0.344-0.031-0.657-0.114    c-0.312-0.084-0.53-0.121-0.657-0.113l-0.302-6.003c0.118-0.16,0.169-0.268,0.153-0.323l-0.174-0.118    c0.014-0.252,0.028-1.509,0.04-3.768c0.008-1.53,0.064-2.768,0.171-3.712c-0.013,0.002,0.419-0.028,1.301-0.087    c0.544-0.027,0.896,0.123,1.052,0.452c0.003,0.309-0.027,0.828-0.091,1.562c-0.062,0.676-0.086,1.196-0.069,1.561    c0.024,0.447,0.095,0.849,0.21,1.209C196.554,104.183,197.104,103.845,197.732,103.813 M199.815,105.099    c0.042,0.559,0.076,1.103,0.104,1.635c0.118,2.323,0.082,4.807-0.108,7.454c-0.202,0.178-0.513,0.219-0.931,0.12    c-0.418-0.098-0.722-0.059-0.908,0.118c-0.24-0.31-0.381-0.871-0.421-1.682c-0.06-1.174-0.09-1.783-0.093-1.826    c-0.051-2.944,0.237-5.321,0.86-7.134C199.044,103.973,199.543,104.41,199.815,105.099"/>
		<path clip-path="url(#SVGID_4_)" d="M207.176,108.145c-0.091,0.188-0.128,0.387-0.117,0.596c0.009,0.21,0.019,0.411,0.029,0.61    c-0.021,0.167-0.066,0.338-0.142,0.51c-0.127-0.035-0.233-0.052-0.316-0.047c-0.101,0.005-0.2,0.042-0.301,0.111    c-0.101,0.069-0.182,0.105-0.237,0.106c-0.083,0.004-0.196-0.026-0.34-0.089l-0.977-1.423c0.035,0.419,0.132,0.786,0.288,1.102    c0.077,0.162,0.155,0.327,0.234,0.492c-0.571,0.099-0.893,0.115-0.966,0.048l-0.137,0.176l-0.339-0.446    c-0.265,0.323-0.325,0.794-0.181,1.419c0.176,0.678,0.186,1.169,0.033,1.471c0.211,0.312,0.463,0.46,0.757,0.445    c0.128-0.005,0.236-0.054,0.329-0.143c0.135-0.344,0.273-0.686,0.411-1.03c0.203-0.417,0.431-0.633,0.681-0.645    c0.197-0.009,0.427,0.092,0.69,0.303c0.313,0.109,0.475,0.257,0.485,0.437c0.003,0.114-0.067,0.295-0.217,0.547    c-0.147,0.254-0.216,0.449-0.211,0.592c0.002,0.055,0.012,0.103,0.028,0.145c-0.203,0.15-0.385,0.377-0.544,0.68    c-0.161,0.302-0.37,0.51-0.632,0.62c-0.228,0.222-0.438,0.337-0.632,0.348c-0.155,0.009-0.385-0.111-0.693-0.355    c-0.306-0.243-0.593-0.359-0.857-0.346c-0.11-0.247-0.383-0.52-0.818-0.822c-0.437-0.299-0.706-0.623-0.807-0.969    c0.002,0.029-0.005-0.083-0.016-0.335c-0.008-0.14-0.068-0.227-0.182-0.265l0.158-0.156c-0.211-0.002-0.321-0.122-0.333-0.361    c-0.003-0.028-0.003-0.085-0.007-0.168c0.008-0.072,0.015-0.127,0.012-0.168c-0.008-0.169-0.063-0.285-0.164-0.351l-0.037-0.735    c-0.019-0.378-0.097-0.646-0.231-0.808c0.138-0.89,0.275-1.782,0.414-2.671c0.226-1.036,0.564-1.566,1.013-1.588    c0.068-0.002,0.139,0.008,0.211,0.031c0.401-0.398,0.888-0.612,1.46-0.641c0.631-0.031,1.327,0.158,2.09,0.569    C206.664,105.92,207.032,106.989,207.176,108.145 M204.283,105.829l-0.138,0.175c-0.098,0.019-0.211-0.03-0.345-0.151l0.025,0.484    c-0.214,0.233-0.3,0.595-0.262,1.085c0.042,0.84,0.062,1.246,0.061,1.218l0.63-0.011c0.302-0.17,0.439-0.449,0.421-0.842    c-0.01-0.196-0.078-0.517-0.205-0.967C204.342,106.37,204.281,106.041,204.283,105.829"/>
		<polygon clip-path="url(#SVGID_4_)" fill-rule="evenodd" clip-rule="evenodd" points="212.104,129.322 212.729,129.682     214.846,124.114 214.141,123.878 212.021,129.446 212.639,129.839   "/>
		<polygon clip-path="url(#SVGID_4_)" fill-rule="evenodd" clip-rule="evenodd" points="213.029,128.55 212.773,128.651     212.104,129.322 212.639,129.839 213.32,129.132 213.053,129.267   "/>
		<polygon clip-path="url(#SVGID_4_)" fill-rule="evenodd" clip-rule="evenodd" points="218.159,128.506 218.462,128.272     213.029,128.55 213.053,129.267 218.485,128.99 218.832,128.732   "/>
		<polygon clip-path="url(#SVGID_4_)" fill-rule="evenodd" clip-rule="evenodd" points="220.612,123.388 220.242,122.927     218.159,128.506 218.832,128.732 220.948,123.162 220.58,122.704   "/>
		<polygon clip-path="url(#SVGID_4_)" fill-rule="evenodd" clip-rule="evenodd" points="215.439,123.565 215.171,123.699     220.612,123.388 220.58,122.704 215.16,122.949 214.89,123.081   "/>
		<polygon clip-path="url(#SVGID_4_)" fill-rule="evenodd" clip-rule="evenodd" points="214.846,124.114 214.768,124.236     215.439,123.565 214.89,123.081 214.218,123.755 214.141,123.877   "/>
		<polygon clip-path="url(#SVGID_4_)" fill-rule="evenodd" clip-rule="evenodd" points="219.357,129.168 219.84,128.956     218.677,128.306 218.305,128.966 219.503,129.628 220.028,129.393 219.322,129.158   "/>
		<polygon clip-path="url(#SVGID_4_)" fill-rule="evenodd" clip-rule="evenodd" points="221.632,124.027 221.441,123.589     219.322,129.158 220.028,129.392 222.147,123.824 221.956,123.388   "/>
		<polygon clip-path="url(#SVGID_4_)" fill-rule="evenodd" clip-rule="evenodd" points="220.948,123.163 220.423,123.398     221.633,124.026 221.956,123.389 220.792,122.739 220.242,122.927   "/>
		<polygon clip-path="url(#SVGID_4_)" points="214.509,124.001 214.476,123.989 215.148,123.317 220.191,123.071 220.242,122.927     220.613,123.051 220.948,123.163 220.926,123.225 221.811,123.713 222.147,123.825 222.01,124.187 224.476,130.055     222.391,135.634 219.693,129.279 219.347,129.426 219.322,129.158 219.351,129.09 218.5,128.621 218.305,128.967 218.199,128.632     213.029,128.888 212.358,129.559   "/>
		<polygon clip-path="url(#SVGID_4_)" fill-rule="evenodd" clip-rule="evenodd" points="222.054,135.521 222.738,135.489     220.04,129.135 219.347,129.425 222.044,135.779 222.727,135.746 222.021,135.51   "/>
		<polygon clip-path="url(#SVGID_4_)" fill-rule="evenodd" clip-rule="evenodd" points="224.162,130.213 224.139,129.942     222.021,135.51 222.727,135.746 224.846,130.179 224.823,129.911   "/>
		<polygon clip-path="url(#SVGID_4_)" fill-rule="evenodd" clip-rule="evenodd" points="222.147,123.824 221.463,123.859     224.162,130.213 224.823,129.91 222.123,123.556 221.441,123.589   "/>
		<polygon clip-path="url(#SVGID_4_)" fill-rule="evenodd" clip-rule="evenodd" fill="#FFFFFF" points="221.967,125.259     222.27,125.92 222.382,126.593 222.35,127.254 222.156,127.938 221.822,128.609 221.361,129.202 220.769,129.751 220.052,130.222     219.66,130.39 219.269,130.558 218.831,130.635 218.428,130.725 218.036,130.78 217.611,130.825 217.219,130.769 216.816,130.746     216.469,130.669 216.099,130.545 215.741,130.388 215.429,130.208 215.158,130.008 214.855,129.794 214.61,129.526     214.408,129.233 214.105,128.572 213.993,127.901 213.994,127.227 214.219,126.556 214.509,125.905 214.98,125.28     215.573,124.731 216.323,124.27 216.683,124.092 217.108,123.936 217.512,123.845 217.915,123.757 218.339,123.712     218.732,123.656 219.125,123.712 219.526,123.736 219.896,123.857 220.266,123.98 220.601,124.094 220.947,124.283     221.229,124.452 221.519,124.698 221.722,124.989   "/>
		<polygon clip-path="url(#SVGID_4_)" fill-rule="evenodd" clip-rule="evenodd" points="222.235,126.357 222.54,127.019     222.639,127.725 222.606,128.386 222.425,129.036 222.123,129.719 221.618,130.334 221.069,130.861 220.32,131.319     219.918,131.521 219.525,131.69 219.123,131.778 218.686,131.857 218.294,131.913 217.915,131.936 217.51,131.913     217.083,131.846 216.735,131.766 216.367,131.643 216.043,131.497 215.695,131.307 215.416,131.14 215.157,130.903 214.9,130.668     214.677,130.332 214.363,129.704 214.251,129.031 214.296,128.336 214.475,127.688 214.777,127.005 215.238,126.41     215.831,125.861 216.579,125.402 216.983,125.201 217.365,125.067 217.779,124.943 218.217,124.865 218.597,124.843     218.988,124.788 219.381,124.843 219.784,124.865 220.166,124.955 220.534,125.078 220.859,125.225 221.219,125.382     221.486,125.585 221.788,125.796 221.989,126.09 222.226,126.39   "/>
		<polygon clip-path="url(#SVGID_4_)" fill-rule="evenodd" clip-rule="evenodd" fill="#FFFFFF" points="222.425,127.13     222.74,127.758 222.84,128.464 222.806,129.126 222.627,129.774 222.291,130.446 221.82,131.073 221.272,131.599 220.522,132.06     220.152,132.272 219.728,132.429 219.322,132.517 218.887,132.596 218.495,132.651 218.114,132.674 217.71,132.651     217.285,132.585 216.938,132.506 216.568,132.384 216.244,132.237 215.897,132.047 215.616,131.877 215.325,131.63     215.114,131.375 214.878,131.071 214.564,130.444 214.452,129.771 214.485,129.111 214.677,128.427 214.979,127.743     215.45,127.116 216.064,126.612 216.783,126.142 217.186,125.941 217.578,125.772 217.98,125.683 218.418,125.606     218.809,125.549 219.189,125.526 219.627,125.56 219.986,125.606 220.366,125.696 220.735,125.817 221.095,125.975     221.409,126.155 221.688,126.323 221.99,126.537 222.191,126.828   "/>
		<polygon clip-path="url(#SVGID_4_)" fill-rule="evenodd" clip-rule="evenodd" points="222.695,128.228 222.996,128.891     223.11,129.562 223.11,130.234 222.885,130.906 222.592,131.557 222.088,132.17 221.531,132.732 220.779,133.19 220.421,133.371     219.995,133.525 219.591,133.616 219.188,133.706 218.764,133.75 218.37,133.808 217.979,133.75 217.577,133.728 217.195,133.639     216.824,133.515 216.502,133.368 216.155,133.179 215.885,132.977 215.619,132.774 215.371,132.504 215.135,132.203     214.866,131.553 214.722,130.869 214.754,130.208 214.945,129.525 215.271,128.888 215.741,128.259 216.333,127.709     217.051,127.239 217.443,127.072 217.836,126.904 218.271,126.826 218.676,126.737 219.066,126.681 219.48,126.669     219.883,126.692 220.253,126.705 220.633,126.793 221.004,126.917 221.362,127.073 221.675,127.252 221.979,127.465     222.247,127.667 222.492,127.937 222.683,128.263   "/>
		<polygon clip-path="url(#SVGID_4_)" fill-rule="evenodd" clip-rule="evenodd" fill="#FFFFFF" points="223.087,128.957     223.399,129.584 223.513,130.256 223.5,130.962 223.321,131.611 222.983,132.285 222.48,132.9 221.932,133.426 221.217,133.897     220.812,134.099 220.387,134.255 219.983,134.346 219.58,134.435 219.154,134.479 218.774,134.5 218.37,134.479 217.979,134.422     217.6,134.333 217.229,134.208 216.904,134.062 216.579,133.917 216.277,133.705 216.02,133.469 215.774,133.199 215.571,132.91     215.259,132.281 215.124,131.563 215.157,130.903 215.371,130.266 215.673,129.582 216.143,128.955 216.727,128.438     217.443,127.969 217.847,127.769 218.237,127.6 218.663,127.554 219.078,127.431 219.47,127.375 219.884,127.365 220.288,127.388     220.646,127.434 221.025,127.522 221.428,127.655 221.754,127.801 222.079,127.947 222.382,128.162 222.639,128.396     222.886,128.665   "/>
		<polygon clip-path="url(#SVGID_4_)" fill-rule="evenodd" clip-rule="evenodd" points="223.391,130.066 223.655,130.715     223.804,131.4 223.769,132.061 223.58,132.743 223.253,133.382 222.783,134.008 222.189,134.558 221.473,135.029 221.081,135.197     220.654,135.354 220.253,135.443 219.85,135.533 219.457,135.587 219.031,135.633 218.641,135.578 218.236,135.553     217.89,135.476 217.486,135.341 217.162,135.195 216.849,135.015 216.546,134.803 216.278,134.601 216.031,134.332     215.829,134.04 215.526,133.379 215.382,132.697 215.416,132.035 215.64,131.362 215.932,130.712 216.401,130.086     216.995,129.538 217.745,129.077 218.104,128.899 218.529,128.743 218.934,128.652 219.335,128.563 219.762,128.519     220.153,128.463 220.545,128.519 220.913,128.531 221.329,128.631 221.697,128.754 222.023,128.9 222.337,129.079     222.639,129.291 222.906,129.494 223.153,129.763   "/>
		<polygon clip-path="url(#SVGID_4_)" fill-rule="evenodd" clip-rule="evenodd" points="186.369,121.515 186.402,121.301     184.272,126.903 184.944,127.127 187.074,121.525 187.084,121.38   "/>
		<polygon clip-path="url(#SVGID_4_)" fill-rule="evenodd" clip-rule="evenodd" points="186.313,121.234 186.323,121.2     186.369,121.516 187.084,121.38 187.008,121.055 187.02,121.022   "/>
		<polygon clip-path="url(#SVGID_4_)" fill-rule="evenodd" clip-rule="evenodd" points="186.233,120.91 186.313,121.235     187.02,121.022 186.939,120.697   "/>
		
			<rect x="186.39" y="120.289" transform="matrix(-0.2882 -0.9576 0.9576 -0.2882 124.7723 334.0607)" clip-path="url(#SVGID_4_)" fill-rule="evenodd" clip-rule="evenodd" width="0.305" height="0.737"/>
		<polygon clip-path="url(#SVGID_4_)" fill-rule="evenodd" clip-rule="evenodd" points="186.066,120.293 186.066,120.293     186.146,120.619 186.851,120.405 186.771,120.08 186.762,120.114   "/>
		<polygon clip-path="url(#SVGID_4_)" fill-rule="evenodd" clip-rule="evenodd" points="185.978,119.889 185.978,120.002     186.066,120.293 186.762,120.114 186.672,119.821 186.706,119.946   "/>
		<polygon clip-path="url(#SVGID_4_)" fill-rule="evenodd" clip-rule="evenodd" points="186.694,119.756 185.988,119.631     185.978,119.889 186.705,119.946 186.716,119.689 186.011,119.564 186.683,119.789   "/>
		<polygon clip-path="url(#SVGID_4_)" fill-rule="evenodd" clip-rule="evenodd" fill="#4C4849" points="187.305,136.058     187.238,135.7 186.488,135.823 186.544,136.214   "/>
		<polygon clip-path="url(#SVGID_4_)" fill-rule="evenodd" clip-rule="evenodd" points="188.863,131.387 188.885,131.207     186.77,136.775 187.439,137 189.559,131.432 189.547,131.242   "/>
		<polygon clip-path="url(#SVGID_4_)" fill-rule="evenodd" clip-rule="evenodd" points="188.808,130.995 188.863,131.387     189.547,131.242 189.49,130.848 188.773,130.983   "/>
		<polygon clip-path="url(#SVGID_4_)" fill-rule="evenodd" clip-rule="evenodd" points="188.707,130.624 188.773,130.983     189.49,130.848 189.391,130.479   "/>
		<polygon clip-path="url(#SVGID_4_)" fill-rule="evenodd" clip-rule="evenodd" points="188.617,130.221 188.639,130.266     188.707,130.624 189.391,130.479 189.334,130.085 189.357,130.133   "/>
		<polygon clip-path="url(#SVGID_4_)" fill-rule="evenodd" clip-rule="evenodd" points="189.289,129.885 188.573,129.795     188.617,130.221 189.357,130.133 189.301,129.74 188.583,129.65   "/>
		<path clip-path="url(#SVGID_4_)" fill="#4C4849" d="M184.277,125.792l-0.34,0.103L184.277,125.792z"/>
		<polygon clip-path="url(#SVGID_4_)" fill="#4C4849" points="184.63,126.961 184.643,126.926 184.816,126.939 184.944,127.127     184.632,127.023   "/>
		<polygon clip-path="url(#SVGID_4_)" points="183.858,125.57 184.217,125.502 184.229,125.245 186.357,119.644 186.347,119.677     186.347,119.901 186.403,120.181 186.515,120.519 186.604,120.808 186.682,121.134 186.738,121.413 187.074,121.526     184.944,127.127 184.816,126.939 184.643,126.926 184.629,126.961 184.632,127.023 184.944,127.127 184.634,127.109     184.643,127.362 184.425,127.095 184.25,127.082 184.205,126.769 184.335,126.741 184.473,126.382 184.116,126.477     184.016,126.219 183.938,125.895 184.277,125.793 183.938,125.895 183.949,125.862   "/>
		<polygon clip-path="url(#SVGID_4_)" points="184.619,126.646 200.209,126.135 200.612,126.159 200.68,126.181 201.062,126.271     201.096,126.282 201.497,126.417 201.89,126.584 201.922,126.596 202.292,126.832 202.358,126.854 202.649,127.1 202.739,127.167     202.952,127.425 202.975,127.47 203.119,127.705 203.131,127.783 202.444,127.99 202.335,127.816 202.325,127.851     202.146,127.604 202.147,127.603 201.91,127.415 201.968,127.47 201.587,127.27 201.587,127.266 201.193,127.1 200.857,126.989     200.477,126.898 200.544,126.921 200.185,126.875 200.188,126.842 184.643,127.362   "/>
		<polygon clip-path="url(#SVGID_4_)" points="202.427,127.997 202.444,127.99 202.481,128.053   "/>
		<polygon clip-path="url(#SVGID_4_)" fill-rule="evenodd" clip-rule="evenodd" points="210.755,141.085 210.755,140.862     208.626,146.463 209.331,146.699 211.462,141.098 211.461,140.874   "/>
		<polygon clip-path="url(#SVGID_4_)" fill-rule="evenodd" clip-rule="evenodd" points="204.6,122.484 204.555,122.396     210.755,141.085 211.461,140.875 205.26,122.183 205.248,122.104   "/>
		<polygon clip-path="url(#SVGID_4_)" fill-rule="evenodd" clip-rule="evenodd" points="204.477,122.295 204.455,122.249     204.6,122.484 205.248,122.104 205.104,121.868 205.07,121.857 204.442,122.284   "/>
		<polygon clip-path="url(#SVGID_4_)" fill-rule="evenodd" clip-rule="evenodd" points="204.331,122.059 204.274,122.004     204.442,122.284 205.07,121.857 204.835,121.556 204.777,121.499   "/>
		<polygon clip-path="url(#SVGID_4_)" fill-rule="evenodd" clip-rule="evenodd" points="204.084,121.902 204.027,121.846     204.331,122.058 204.777,121.499 204.477,121.285 204.421,121.23   "/>
		<polygon clip-path="url(#SVGID_4_)" fill-rule="evenodd" clip-rule="evenodd" points="203.748,121.678 203.716,121.667     204.084,121.903 204.421,121.23 204.04,121.03 204.007,121.017   "/>
		<polygon clip-path="url(#SVGID_4_)" fill-rule="evenodd" clip-rule="evenodd" points="203.391,121.521 203.312,121.531     203.748,121.678 204.007,121.017 203.613,120.85 203.58,120.837 203.346,121.543   "/>
		<polygon clip-path="url(#SVGID_4_)" fill-rule="evenodd" clip-rule="evenodd" points="202.987,121.387 202.942,121.408     203.346,121.544 203.58,120.838 203.178,120.703 202.976,121.42   "/>
		<polygon clip-path="url(#SVGID_4_)" fill-rule="evenodd" clip-rule="evenodd" points="202.674,121.319 202.607,121.298     202.976,121.42 203.178,120.703 202.763,120.603 202.729,120.591   "/>
		<polygon clip-path="url(#SVGID_4_)" fill-rule="evenodd" clip-rule="evenodd" points="202.314,121.274 202.304,121.308     202.674,121.318 202.729,120.591 202.336,120.533 202.293,120.558   "/>
		<polygon clip-path="url(#SVGID_4_)" fill-rule="evenodd" clip-rule="evenodd" points="187.108,121.537 186.728,121.782     202.314,121.274 202.292,120.557 186.738,121.078 186.402,121.301 187.074,121.525   "/>
		<polygon clip-path="url(#SVGID_4_)" fill="#4C4849" points="191.023,138.567 190.969,138.542 191.003,138.524   "/>
		<path clip-path="url(#SVGID_4_)" fill="#4C4849" d="M199.442,141.089l-0.064,0.754L199.442,141.089z"/>
		<path clip-path="url(#SVGID_4_)" d="M186.544,136.214l0.067,0.359l0.135,0.381l0.168,0.28l0.953,0.504l0.95,0.507l0.918,0.492    l0.93,0.459l0.032,0.012l0.942,0.426l0.939,0.426l1.02,0.415l1.03,0.38l0.034,0.012l1.098,0.293l1.098,0.291l0.032,0.01l1.21,0.18    l1.243,0.191l0.034,0.011l1.354,0.08l0.046-0.023l1.444,0.035l1.546-0.045l1.635-0.088l0.338-0.225l2.115-5.567l-0.358-0.494    l0.021,0.718l-0.111-0.14l0.08-0.207l-0.234,0.012l-0.103-0.125l-0.05,0.137l-1.214,0.075h-1.568l-1.446-0.034l-1.32-0.068    l-1.286-0.169l-1.198-0.212l-1.1-0.292l-1.098-0.292l-1.029-0.381l-0.997-0.372l-0.94-0.425l-0.931-0.461l-0.962-0.47    l-0.917-0.492l-0.918-0.495l-0.638-0.336l0.021-0.055l-0.336-0.114l-0.09-0.402l-0.066-0.359l-0.027-0.123l0.25-0.549    l-0.353-0.117l-0.017-0.007l-0.337-0.111l-2.116,5.567l-0.023,0.178l0.057,0.394L186.544,136.214z M186.802,135.332l0.015,0.071    l-0.035-0.018L186.802,135.332z"/>
		<polygon clip-path="url(#SVGID_4_)" fill-rule="evenodd" clip-rule="evenodd" points="205.885,136.323 207.518,136.234     207.497,135.516 205.863,135.605   "/>
		
			<rect x="204.328" y="135.626" transform="matrix(-0.9996 0.0278 -0.0278 -0.9996 413.9035 266.2154)" clip-path="url(#SVGID_4_)" fill-rule="evenodd" clip-rule="evenodd" width="1.546" height="0.719"/>
		<polygon clip-path="url(#SVGID_4_)" fill-rule="evenodd" clip-rule="evenodd" points="202.86,136.321 202.895,136.332     204.34,136.366 204.317,135.651 202.873,135.616 202.918,135.593 202.85,136.355   "/>
		<polygon clip-path="url(#SVGID_4_)" fill-rule="evenodd" clip-rule="evenodd" points="201.472,136.232 201.507,136.243     202.85,136.355 202.918,135.593 201.562,135.515 201.595,135.525   "/>
		<polygon clip-path="url(#SVGID_4_)" fill-rule="evenodd" clip-rule="evenodd" points="200.217,136.073 201.472,136.232     201.595,135.526 200.353,135.334   "/>
		<polygon clip-path="url(#SVGID_4_)" fill-rule="evenodd" clip-rule="evenodd" points="198.986,135.849 199.02,135.86     200.217,136.074 200.353,135.334 199.11,135.144 199.143,135.155   "/>
		<polygon clip-path="url(#SVGID_4_)" fill-rule="evenodd" clip-rule="evenodd" points="197.89,135.557 198.986,135.849     199.143,135.155 198.046,134.863 197.878,135.591   "/>
		<polygon clip-path="url(#SVGID_4_)" fill-rule="evenodd" clip-rule="evenodd" points="196.747,135.288 196.78,135.299     197.878,135.591 198.046,134.863 196.948,134.571 196.982,134.582   "/>
		<polygon clip-path="url(#SVGID_4_)" fill-rule="evenodd" clip-rule="evenodd" points="195.715,134.907 195.715,134.907     196.747,135.288 196.982,134.582 195.952,134.201 195.986,134.211 195.684,134.896   "/>
		<polygon clip-path="url(#SVGID_4_)" fill-rule="evenodd" clip-rule="evenodd" points="194.697,134.491 195.684,134.896     195.986,134.211 195,133.807   "/>
		<polygon clip-path="url(#SVGID_4_)" fill-rule="evenodd" clip-rule="evenodd" points="193.757,134.065 194.697,134.491     195,133.808 194.047,133.416   "/>
		<polygon clip-path="url(#SVGID_4_)" fill-rule="evenodd" clip-rule="evenodd" points="192.794,133.594 192.814,133.64     193.757,134.065 194.047,133.415 193.085,132.945 193.119,132.956 192.783,133.629   "/>
		<polygon clip-path="url(#SVGID_4_)" fill-rule="evenodd" clip-rule="evenodd" points="191.863,133.134 192.783,133.629     193.119,132.956 192.189,132.496 191.854,133.168   "/>
		<polygon clip-path="url(#SVGID_4_)" fill-rule="evenodd" clip-rule="evenodd" points="190.945,132.643 191.854,133.168     192.189,132.497 191.271,132.003 190.912,132.63   "/>
		<polygon clip-path="url(#SVGID_4_)" fill-rule="evenodd" clip-rule="evenodd" points="189.994,132.137 190.912,132.631     191.271,132.004 190.353,131.51   "/>
		<polygon clip-path="url(#SVGID_4_)" fill-rule="evenodd" clip-rule="evenodd" points="189.559,131.432 189.043,131.633     189.994,132.137 190.353,131.51 189.401,131.005 188.886,131.207   "/>
		<polygon clip-path="url(#SVGID_4_)" fill-rule="evenodd" clip-rule="evenodd" points="286.63,121.34 284.499,126.941     291.452,129.263 293.068,125.543 293.113,125.185 293.123,124.814 293.068,124.422 292.933,124.042 292.709,123.705     292.529,123.346 292.239,122.988 291.937,122.663 291.623,122.371 291.275,122.069 290.918,121.799 290.57,121.608     290.234,121.385 289.843,121.217 289.495,121.027 289.159,120.913 288.859,120.814 288.497,120.768 288.174,120.735     287.859,120.78 287.546,120.823 287.212,120.937 286.92,121.137   "/>
		<polygon clip-path="url(#SVGID_4_)" fill-rule="evenodd" clip-rule="evenodd" points="291.14,129.083 291.576,128.894     284.623,126.571 284.387,127.276 291.343,129.599 291.812,129.42   "/>
		<polygon clip-path="url(#SVGID_4_)" points="183.858,125.233 183.892,125.132 186.011,119.564 186.683,119.79 184.629,125.289     184.586,125.515 184.577,125.435 183.858,125.569 183.849,125.491   "/>
		<polygon clip-path="url(#SVGID_4_)" fill="#4C4849" points="217.956,138.411 217.831,138.487 217.822,138.478   "/>
		<path clip-path="url(#SVGID_4_)" d="M184.116,126.477l0.079,0.325l0.01-0.033l0.542-0.116l-0.138,0.361l15.587-0.508l0.37,0.011    l0.404,0.135l0.403,0.134l0.403,0.136l0.367,0.234l0.303,0.212l0.214,0.257l0.13,0.261l-0.364,0.111l6.199,18.69l0.362,0.006    l0.008,0.229h0.559l0.527-0.012l0.481,0.012l0.438-0.078l0.446-0.112l0.45-0.223l0.413-0.348l0.491-0.471l0.013-0.033l0.28-0.391    l0.324-0.415l0.37-0.438l0.258-0.437l0.323-0.525l0.337-0.449l0.28-0.504l0.359-0.515l0.29-0.424l0.415-0.461l0.336-0.448    l0.394-0.393l0.346-0.368l0.369-0.325l0.359-0.291l0.413-0.236l0.09-0.044l-0.265-0.255l0.265,0.255l0.415-0.461l0.381-0.357    l0.336-0.337l0.359-0.29l0.347-0.258l0.368-0.213l0.325-0.189l0.358-0.179l0.404-0.09l0.392-0.168l0.403-0.09l0.47-0.067    l0.516-0.089l0.569-0.033l0.618-0.056l0.604-0.021l0.034,0.009l67.27-5.027l0.394-0.055l0.356-0.069l0.325-0.077l0.336-0.112    l0.314-0.156l0.324-0.192l0.27-0.247l0.313-0.268l0.068-0.09l1.174-2.743l-0.612-0.393l0.271,0.262l-0.044,0.037l-0.296-0.209    l-0.295,0.687l-0.198,0.118l-0.259,0.101l-0.302,0.125l-0.281,0.054l-0.357,0.068l-0.356,0.066l-67.305,5.017l-0.427,0.045    l-0.414,0.012l-0.414,0.01l-0.437,0.078h-0.45l-0.391,0.056l-0.426,0.046l-0.392,0.056l-0.437,0.077l-0.392,0.055l-0.402,0.089    l-0.447,0.112l-0.404,0.091l-0.427,0.156l-0.425,0.157l-0.403,0.202l-0.795,0.482l-0.808,0.737l-0.85,0.875l-0.819,0.997    l-0.795,1.042l-0.683,0.93l-0.672,0.895l-0.561,0.672l-0.325,0.078l-0.279,0.057l-0.348,0.033h-0.336h-0.336l-0.292-0.021    l-0.369-0.013l-0.325-0.034l-6.177-18.646l-0.136-0.269l-0.211-0.257l-0.302-0.214l-0.405-0.247l-0.391-0.167l-0.403-0.135    l-0.381-0.091l-0.37-0.01l-15.576,0.475l-1.872,4.928l-0.011-0.064L184.116,126.477z M296.048,126.996l0.021-0.05l0.257,0.245    L296.048,126.996z"/>
		<polygon clip-path="url(#SVGID_4_)" fill-rule="evenodd" clip-rule="evenodd" points="293.693,128.367 294.096,128.278     294.455,128.211 294.78,128.132 295.117,128.019 295.43,127.864 295.756,127.672 296.011,127.461 296.325,127.191 295.79,126.676     295.553,126.933 295.307,127.113 295.07,127.258 294.813,127.359 294.566,127.427 294.276,127.515 293.963,127.56     293.615,127.595   "/>
		<polygon clip-path="url(#SVGID_4_)" fill-rule="evenodd" clip-rule="evenodd" points="226.434,133.362 293.693,128.367     293.615,127.595 226.347,132.622   "/>
		<polygon clip-path="url(#SVGID_4_)" fill-rule="evenodd" clip-rule="evenodd" points="219.838,134.557 220.229,134.39     220.611,134.256 221.069,134.109 221.45,133.974 221.864,133.852 222.256,133.797 222.648,133.741 223.085,133.663     223.444,133.594 223.859,133.584 224.285,133.538 224.71,133.495 225.135,133.45 225.516,133.429 225.976,133.394     226.434,133.362 226.347,132.622 225.919,132.666 225.494,132.711 225.046,132.711 224.62,132.755 224.206,132.767     223.804,132.857 223.389,132.868 222.928,132.901 222.525,132.991 222.121,133.079 221.687,133.158 221.237,133.27     220.857,133.403 220.4,133.55 219.939,133.694 219.537,133.896   "/>
		<polygon clip-path="url(#SVGID_4_)" fill-rule="evenodd" clip-rule="evenodd" points="213.812,141.21 213.957,141.109     214.261,140.763 214.529,140.404 214.853,139.99 215.189,139.541 215.571,139.072 215.918,138.588 216.311,138.085     216.701,137.581 217.105,137.043 217.52,136.585 217.923,136.158 218.337,135.7 218.685,135.33 219.123,135.028 219.479,134.736     219.838,134.557 219.537,133.897 219.077,134.154 218.685,134.434 218.226,134.803 217.789,135.217 217.386,135.644     216.982,136.069 216.535,136.628 216.143,137.133 215.749,137.636 215.357,138.141 215.011,138.622 214.629,139.092     214.293,139.541 213.968,139.956 213.7,140.315 213.453,140.606 213.588,140.538   "/>
		<polygon clip-path="url(#SVGID_4_)" fill-rule="evenodd" clip-rule="evenodd" fill="#FFFFFF" points="200.926,120.961     202.314,120.939 202.428,120.939 190.502,116.957 189.897,117.315 200.915,120.994   "/>
		<polygon clip-path="url(#SVGID_4_)" fill-rule="evenodd" clip-rule="evenodd" fill="#FFFFFF" points="200.926,120.961     186.738,121.413 186.682,121.134 186.604,120.808 186.515,120.519 186.404,120.181 186.347,119.901 186.347,119.677     186.436,119.409 186.683,119.229 187.265,118.827 187.914,118.445 188.563,118.064 189.214,117.684 189.83,117.293     189.897,117.315 200.915,120.994   "/>
		<polygon clip-path="url(#SVGID_4_)" fill="#FFFFFF" points="192.302,129.584 201.967,129.039 205.751,130.564 207.083,134.52     207.486,135.887 205.886,135.986 204.317,135.986 202.871,135.952 201.551,135.884 200.265,135.715 199.066,135.503     197.967,135.211 196.869,134.919 195.84,134.538 194.843,134.166 193.902,133.741 192.972,133.28 192.01,132.81 191.093,132.318     190.175,131.823 189.223,131.318 189.133,130.916 189.066,130.557 188.977,130.155 188.92,129.761   "/>
		<polygon clip-path="url(#SVGID_4_)" fill-rule="evenodd" clip-rule="evenodd" fill="#FFFFFF" points="216.647,130.69     216.783,130.848 218.025,131.599 218.428,130.949 217.184,130.199 217.307,130.389 216.647,130.69 216.692,130.78     216.783,130.848   "/>
		<polygon clip-path="url(#SVGID_4_)" fill-rule="evenodd" clip-rule="evenodd" fill="#FFFFFF" points="205.594,130.922     205.381,130.664 207.149,135.998 207.855,135.786 206.089,130.451 205.897,130.239 206.089,130.451 206.031,130.284     205.897,130.239   "/>
		<polygon clip-path="url(#SVGID_4_)" fill-rule="evenodd" clip-rule="evenodd" fill="#FFFFFF" points="202.001,129.387     201.821,129.365 205.594,130.922 205.896,130.239 202.125,128.68 201.978,128.67 202.125,128.68 202.057,128.658 201.978,128.67       "/>
		<polygon clip-path="url(#SVGID_4_)" fill-rule="evenodd" clip-rule="evenodd" fill="#FFFFFF" points="189.301,129.74     188.942,130.143 202.001,129.387 201.978,128.67 188.921,129.426 188.572,129.795 188.921,129.426 188.506,129.436     188.572,129.795   "/>
		<polygon clip-path="url(#SVGID_4_)" fill-rule="evenodd" clip-rule="evenodd" fill="#FFFFFF" points="189.401,131.006     189.547,131.242 189.536,131.051 189.49,130.848 189.479,130.658 189.424,130.49 189.413,130.3 189.367,130.098 189.312,129.929     189.301,129.74 188.573,129.795 188.572,130.02 188.605,130.255 188.662,130.423 188.672,130.613 188.729,130.78 188.773,130.984     188.854,131.195 188.863,131.387 189.043,131.632 188.863,131.387 188.92,131.555 189.043,131.632   "/>
		<polygon clip-path="url(#SVGID_4_)" fill-rule="evenodd" clip-rule="evenodd" fill="#FFFFFF" points="207.162,135.964     207.463,135.505 205.862,135.605 204.317,135.65 202.918,135.593 201.561,135.515 200.352,135.334 199.142,135.154     198.046,134.862 196.982,134.583 195.952,134.2 195,133.808 194.047,133.416 193.119,132.957 192.189,132.497 191.271,132.004     190.352,131.509 189.401,131.006 189.043,131.632 189.994,132.136 190.912,132.631 191.854,133.168 192.783,133.629     193.757,134.065 194.697,134.491 195.715,134.906 196.747,135.289 197.878,135.591 198.986,135.849 200.217,136.073     201.507,136.243 202.849,136.355 204.34,136.365 205.885,136.322 207.552,136.246 207.855,135.785 207.552,136.246     208.014,136.211 207.855,135.785 207.149,135.998   "/>
		<polygon clip-path="url(#SVGID_4_)" fill-rule="evenodd" clip-rule="evenodd" fill="#FFFFFF" points="226.347,132.622     225.854,132.643 225.303,132.722 224.812,132.744 224.273,132.789 223.758,132.879 223.209,132.956 222.661,133.035     222.134,133.158 221.605,133.28 221.149,133.427 220.646,133.594 220.174,133.773 219.771,133.975 219.289,134.187     218.898,134.468 218.539,134.759 218.987,135.319 219.333,135.062 219.67,134.837 220.04,134.625 220.464,134.468 220.88,134.232     221.326,134.121 221.854,133.999 222.314,133.852 222.817,133.797 223.266,133.685 223.804,133.641 224.318,133.551     224.867,133.472 225.404,133.428 225.908,133.373 226.434,133.362   "/>
		<polygon clip-path="url(#SVGID_4_)" fill-rule="evenodd" clip-rule="evenodd" fill="#FFFFFF" points="293.615,127.595     226.347,132.622 226.434,133.362 293.693,128.367   "/>
		<polygon clip-path="url(#SVGID_4_)" fill-rule="evenodd" clip-rule="evenodd" fill="#FFFFFF" points="294.87,123.493     295.15,123.886 295.441,124.245 295.576,124.625 295.789,124.996 295.9,125.333 295.933,125.679 295.945,125.981 295.923,126.271     295.844,126.509 295.731,126.731 295.587,126.945 295.328,127.158 295.059,127.292 294.634,127.449 294.188,127.561     293.615,127.595 293.693,128.368 294.311,128.312 294.847,128.155 295.317,127.976 295.731,127.741 296.112,127.494     296.381,127.136 296.526,126.81 296.661,126.408 296.649,125.992 296.674,125.591 296.584,125.186 296.438,124.728     296.268,124.334 296.045,123.886 295.755,123.417 295.464,123.057   "/>
		<polygon clip-path="url(#SVGID_4_)" fill-rule="evenodd" clip-rule="evenodd" fill="#FFFFFF" points="286.853,119.66     287.458,119.639 288.074,119.694 288.7,119.829 289.306,119.919 289.877,120.108 290.447,120.3 290.996,120.557 291.511,120.805     292.049,121.095 292.542,121.41 293.068,121.734 293.45,122.048 293.85,122.406 294.244,122.799 294.568,123.169 294.871,123.493     295.464,123.057 295.117,122.642 294.725,122.25 294.333,121.858 293.896,121.488 293.416,121.142 292.934,120.793     292.442,120.478 291.882,120.142 291.301,119.874 290.706,119.639 290.1,119.436 289.463,119.223 288.836,119.089     288.197,118.987 287.468,118.931 286.83,118.942   "/>
		<polygon clip-path="url(#SVGID_4_)" fill-rule="evenodd" clip-rule="evenodd" fill="#FFFFFF" points="227.332,121.709     286.854,119.66 286.829,118.941 227.344,121.003   "/>
		<polygon clip-path="url(#SVGID_4_)" fill-rule="evenodd" clip-rule="evenodd" fill="#FFFFFF" points="217.936,120.215     218.498,120.441 219.091,120.564 219.662,120.754 220.255,120.877 220.881,121.013 221.464,121.17 222.104,121.27     222.674,121.349 223.269,121.474 223.883,121.529 224.487,121.618 225.082,121.63 225.653,121.708 226.258,121.687     226.806,121.72 227.332,121.71 227.344,121.004 226.783,121.004 226.235,120.97 225.72,120.947 225.138,120.903 224.556,120.857     223.974,120.811 223.403,120.733 222.797,120.644 222.205,120.52 221.634,120.441 221.051,120.284 220.445,120.194     219.863,120.037 219.248,119.869 218.732,119.735 218.16,119.544 217.927,120.25   "/>
		<polygon clip-path="url(#SVGID_4_)" fill-rule="evenodd" clip-rule="evenodd" fill="#FFFFFF" points="197.859,114.708     198.879,114.561 199.84,114.472 200.76,114.405 201.601,114.349 202.396,114.316 203.112,114.406 203.852,114.429     204.467,114.485 205.105,114.587 205.699,114.711 206.258,114.822 206.764,114.99 207.3,115.17 207.725,115.35 208.251,115.562     208.666,115.775 209.147,116.011 209.631,116.247 210.1,116.516 210.57,116.784 211.04,117.054 211.532,117.368 212.016,117.604     212.54,117.928 213.123,118.197 213.683,118.534 214.31,118.779 214.914,119.093 215.597,119.397 216.336,119.644 217.12,119.979     217.927,120.25 218.16,119.544 217.355,119.274 216.56,118.971 215.898,118.714 215.206,118.444 214.567,118.119 214.019,117.861     213.458,117.524 212.91,117.267 212.371,116.976 211.868,116.695 211.397,116.428 210.906,116.112 210.436,115.843     209.953,115.609 209.472,115.372 209.035,115.114 208.554,114.88 208.028,114.665 207.534,114.464 206.997,114.285     206.426,114.093 205.833,113.971 205.229,113.88 204.566,113.735 203.885,113.656 203.179,113.644 202.36,113.633     201.578,113.632 200.67,113.666 199.752,113.733 198.778,113.855 197.77,113.968 197.826,114.695   "/>
		<polygon clip-path="url(#SVGID_4_)" fill-rule="evenodd" clip-rule="evenodd" fill="#FFFFFF" points="186.872,119.554     187.455,119.151 188.104,118.771 188.755,118.39 189.415,117.976 190.02,117.617 190.702,117.248 191.342,116.901     192.002,116.599 192.708,116.273 193.414,115.949 194.107,115.658 194.824,115.411 195.599,115.222 196.302,115.009     197.075,114.819 197.826,114.696 197.77,113.969 196.93,114.136 196.136,114.281 195.352,114.504 194.611,114.706 193.873,115.02     193.111,115.288 192.417,115.579 191.709,115.905 190.995,116.261 190.312,116.631 189.673,116.978 189.023,117.358     188.372,117.739 187.724,118.119 187.108,118.513 186.492,118.905 186.839,119.543   "/>
		<polygon clip-path="url(#SVGID_4_)" fill-rule="evenodd" clip-rule="evenodd" fill="#FFFFFF" points="186.738,121.078     187.118,121.391 187.008,121.056 186.939,120.697 186.851,120.406 186.771,120.079 186.728,119.879 186.694,119.756     186.749,119.588 186.839,119.542 186.492,118.904 186.167,119.206 185.998,119.599 185.954,119.957 186.066,120.293     186.146,120.618 186.233,120.91 186.323,121.201 186.379,121.481 186.728,121.782 186.379,121.481 186.39,121.782     186.728,121.782   "/>
		<polygon clip-path="url(#SVGID_4_)" fill="#FFFFFF" points="214.23,123.722 214.222,123.757 214.218,123.755   "/>
		<polygon clip-path="url(#SVGID_4_)" fill="#FFFFFF" points="214.062,123.889 214.218,123.755 214.129,124.136   "/>
		<polygon clip-path="url(#SVGID_4_)" fill="#FFFFFF" points="224.083,128.169 236.355,132.267 235.023,132.346 235.013,132.377     224.36,128.822   "/>
		<path clip-path="url(#SVGID_4_)" fill="#FFFFFF" d="M186.728,121.782l15.587-0.508l0.326,0.033l0.302,0.101l0.403,0.135    l0.37,0.124l0.335,0.224l0.248,0.158l0.144,0.234l0.112,0.113l6.2,18.689l0.09,0.292l0.301-0.011l0.315-0.045l0.357,0.045    l0.438,0.034l0.414-0.011l0.403,0.021l0.37-0.102l0.414-0.122l0.335-0.223l0.403-0.426l0.337-0.448l0.312-0.38l0.313-0.38    l0.27-0.36l0.259-0.324l0.224-0.337l0.268-0.358l0.224-0.336l0.259-0.324l0.258-0.326l0.279-0.28l0.292-0.313l0.336-0.336    l0.336-0.337l0.426-0.38l-0.227-0.285l0.338-0.276l0.38-0.247l0.438-0.19l0.403-0.201l0.436-0.19l0.492-0.135l0.506-0.167    l0.492-0.134l0.471-0.068l0.514-0.088l0.549-0.08l0.516-0.089l0.538-0.045l0.538-0.043l0.504-0.056l0.493-0.023l8.645-0.625    l-10.652-3.556l-0.277-0.652l12.272,4.098l57.317-4.282l1.063-0.168l0.794-0.368l0.549-0.527l0.201-0.605l0.001-0.672l0.011-0.034    l-0.19-0.774l-0.379-0.76l-0.552-0.819l-0.323-0.369l-0.357-0.382l-0.393-0.391l-0.413-0.325l-0.438-0.37l-0.492-0.315    l-0.526-0.325l-0.526-0.325l-0.561-0.224l-0.55-0.259l-0.604-0.201l-0.636-0.213l-0.604-0.09l-0.63-0.135l-0.649-0.067    l-0.639,0.01l-8.654,0.324l-50.831,1.738h-0.561l-0.525,0.012l-0.594-0.013l-0.57-0.078l-0.583-0.045l-0.583-0.045l-0.57-0.079    l-0.605-0.09l-0.604-0.089l-0.595-0.124l-0.594-0.124l-0.592-0.122l-0.616-0.169l-0.582-0.158l-0.549-0.145l-0.572-0.19    l-0.806-0.271l-0.794-0.301l-0.695-0.27l-0.692-0.267l-0.606-0.316l-0.583-0.269l-0.604-0.314l-0.549-0.259l-0.525-0.323    l-0.47-0.271l-0.504-0.28l-0.471-0.268l-0.504-0.281l-0.47-0.27l-0.449-0.223l-0.471-0.27l-0.48-0.235l-0.493-0.203l-0.471-0.156    l-0.537-0.179l-0.572-0.191l-0.546-0.147l-0.605-0.089l-0.639-0.101l-0.648-0.067l-0.729-0.056l-0.773-0.035l-0.794,0.034    l-0.83,0.021l-0.927,0.101l-0.964,0.09l-1.052,0.134l-0.785,0.112l-0.771,0.189l-0.773,0.19l-0.719,0.246l-0.759,0.27l-0.729,0.28    l-0.694,0.29l-0.707,0.324l-0.67,0.338l-0.684,0.37l10.875,3.631l-14.639,0.49L186.728,121.782z M286.417,122.089l0.066-0.424    l0.146-0.325l0.267-0.247l0.404-0.202l0.47-0.068l0.257,0.013l0.293,0.022l0.279,0.055l0.279,0.057l0.337,0.112l0.303,0.101    l0.325,0.145l0.346,0.191l0.291,0.135l0.304,0.213l0.268,0.201l0.292,0.247l0.302,0.213l0.213,0.258l0.258,0.236l0.213,0.257    l0.392,0.506l0.201,0.515l0.1,0.258l0.057,0.167l-0.031,0.437l-0.081,0.346l-0.246,0.292l-0.359,0.179l-0.48,0.101l-0.269,0.024    l-0.28-0.058l-0.323-0.033l-0.348-0.078l-0.305-0.102l-0.335-0.113l-0.357-0.154l-0.313-0.182l-0.326-0.145l-0.348-0.191    l-0.303-0.211l-0.289-0.249l-0.27-0.201l-0.278-0.28l-0.247-0.27l-0.213-0.257l-0.346-0.526l-0.202-0.516l-0.056-0.168    L286.417,122.089z M224.456,130.01L224.456,130.01l-0.238-0.19L224.456,130.01z M214.916,124.087l0.396-0.396l5.11-0.292    l1.085,0.563l2.564,6.041l-0.398,0.509l-5.492,0.392l0.246,0.045l-0.188,0.299l-0.026,0.003l-1.22-0.705l-0.004-0.013l0.316-0.144    L214.916,124.087z"/>
		<polygon clip-path="url(#SVGID_4_)" fill-rule="evenodd" clip-rule="evenodd" points="282.955,125.976 282.643,125.798     282.584,125.518 283.033,125.405 283.122,125.697 282.854,125.495   "/>
		<polygon clip-path="url(#SVGID_4_)" fill-rule="evenodd" clip-rule="evenodd" points="283.561,125.619 283.492,125.708     283.381,125.819 283.245,125.886 283.112,125.954 282.955,125.975 282.854,125.494 282.922,125.517 283.021,125.438     283.146,125.404 283.156,125.371 283.134,125.438 283.548,125.652   "/>
		<polygon clip-path="url(#SVGID_4_)" fill-rule="evenodd" clip-rule="evenodd" points="282.296,122.805 282.328,122.816     282.542,123.075 282.821,123.354 283.089,123.668 283.347,124.015 283.559,124.385 283.683,124.8 283.684,125.248     283.548,125.652 283.134,125.438 283.225,125.169 283.202,124.901 283.122,124.576 282.922,124.285 282.699,123.949     282.453,123.68 282.172,123.399 281.958,123.143 281.991,123.154   "/>
		<polygon clip-path="url(#SVGID_4_)" fill-rule="evenodd" clip-rule="evenodd" points="278.175,121.617 278.14,121.604     278.733,121.617 279.294,121.617 279.82,121.718 280.324,121.772 280.839,121.909 281.32,122.145 281.823,122.425     282.296,122.805 281.991,123.154 281.534,122.85 281.096,122.593 280.683,122.381 280.233,122.266 279.741,122.176     279.238,122.121 278.723,122.099 278.195,122.11 278.207,122.075 278.128,121.639   "/>
		<polygon clip-path="url(#SVGID_4_)" fill-rule="evenodd" clip-rule="evenodd" points="234.477,123.908 234.667,123.785     278.128,121.639 278.207,122.075 234.733,124.255 234.925,124.133   "/>
		<polygon clip-path="url(#SVGID_4_)" fill-rule="evenodd" clip-rule="evenodd" points="233.444,125.432 232.976,125.274     233.009,124.949 233.099,124.682 233.233,124.391 233.412,124.188 233.648,124.042 233.95,123.919 234.286,123.807     234.667,123.786 234.733,124.254 234.376,124.322 234.052,124.4 233.894,124.423 233.737,124.557 233.66,124.682 233.536,124.828     233.47,125.028 233.479,125.33 233.009,125.173   "/>
		<polygon clip-path="url(#SVGID_4_)" points="282.676,125.248 282.553,125.058 282.395,124.856 282.271,124.666 282.104,124.497     281.947,124.295 281.779,124.127 281.623,123.925 281.174,123.59 280.716,123.287 280.257,123.096 279.774,122.973     279.271,122.916 278.745,122.816 278.229,122.793 277.67,122.792 234.197,124.972 234.555,124.297 234.689,124.276     234.733,124.254 278.207,122.075 278.935,122.132 279.541,122.109 280.113,122.188 280.637,122.29 281.12,122.524     281.556,122.781 281.958,123.143 282.419,123.668 282.822,124.14 283.113,124.609 283.258,124.957 283.258,125.181     283.156,125.371 282.876,125.54 282.838,125.549 282.822,125.482   "/>
		<path clip-path="url(#SVGID_4_)" d="M232.976,125.274l0.047,0.425l0.089,0.292l0.122,0.414l0.291,0.47l0.358,0.382l0.459,0.415    l0.549,0.37l0.615,0.281l0.648,0.177l0.785,0.001l44.66-2.267l0.851-0.09l0.604-0.134l0.438-0.303l0.246-0.403l-0.011-0.414    l-0.169-0.506l-0.324-0.481l-0.446-0.561l-0.46-0.527l-0.495-0.425l-0.522-0.324l-0.518-0.247l-0.56-0.113l-0.672-0.112h-0.671    l-0.764,0.044l-43.461,2.147l0.002,0.012l-0.461,0.021l-0.47,0.178l-0.312,0.27l-0.214,0.303l-0.146,0.323L232.976,125.274z     M233.479,125.33l0.058-0.279l0.021-0.046l0.035-0.009h0.224l0.382-0.023l0.361-0.678l0.131-0.018l0.044-0.022l43.474-2.179    l0.728,0.056l0.606-0.022l0.571,0.078l0.524,0.102l0.483,0.235l0.436,0.257l0.401,0.361l0.461,0.526l0.403,0.471l0.291,0.47    l0.146,0.347v0.224l-0.102,0.191l-0.281,0.169l-0.037,0.009l-0.487,0.113l-0.739,0.089l-44.672,2.303l-0.034-0.011l-0.626-0.023    l-0.616-0.169l-0.55-0.257l-0.471-0.269l-0.391-0.393l-0.279-0.392l-0.247-0.38l-0.189-0.325l-0.036-0.235L233.479,125.33z"/>
	</g>
	
	
</g>
<g id="tile_text">
	
</g>
</g></svg>