<svg version="1.1" id="YOUR_ARTWORK_HERE" xmlns="http://www.w3.org/2000/svg" xmlns:xlink="http://www.w3.org/1999/xlink" x="0px" y="0px" width="1575" height="3075" viewBox="0 0 1575 3075" enable-background="new 0 0 378 738" xml:space="preserve">
<rect fill="#929497" width="378" height="738"></rect>
<rect x="9" y="9" fill="#FFFFFF" stroke="#EC1E28" width="360" height="720"></rect>

<rect x="137.749" y="40.858" fill="#D0D2D3" width="196.92" height="200.729"></rect>


<rect x="18" y="18" fill="none" stroke="#2BA6DE" stroke-dasharray="1.0069" width="342" height="702"></rect>
<rect x="351.011" y="535.895" fill="#F9A51A" width="26.989" height="54.684"></rect>

<line fill="none" stroke="#F9A51A" x1="257.016" y1="535.726" x2="377.966" y2="535.726"></line>
<line fill="none" stroke="#EC1E28" x1="274.673" y1="361.588" x2="368.969" y2="361.588"></line>
<line fill="none" stroke="#929497" x1="262.763" y1="411.187" x2="375.716" y2="411.187"></line>
<line fill="none" x1="271.01" y1="263.057" x2="358.973" y2="263.057"></line>
<g>
	<path fill="#EC1E28" d="M269.627,250.044c0,0.686-0.312,1.354-0.932,2.004l-0.097,0.097l-5.431,5.723
		c-1.153,1.213-2.135,2.151-2.946,2.813c-0.812,0.663-1.384,0.994-1.719,0.994c-0.351,0-0.786-0.166-1.309-0.497
		c-0.521-0.332-0.857-0.673-1.01-1.024c-0.129-0.293-0.251-0.915-0.363-1.863c-0.116-0.95-0.172-1.979-0.172-3.086
		c0-0.604,0.251-1.162,0.755-1.675c0.504-0.512,1.06-0.769,1.669-0.769c0.58,0,0.926,0.53,1.036,1.591
		c0.013,0.124,0.021,0.214,0.027,0.272c0.094,0.815,0.201,1.384,0.324,1.706s0.29,0.483,0.501,0.483
		c0.088,0,0.252-0.095,0.491-0.286c0.24-0.19,0.528-0.45,0.862-0.778l5.578-5.53c0.469-0.469,0.888-0.824,1.257-1.063
		c0.368-0.241,0.682-0.361,0.938-0.361c0.194,0,0.332,0.073,0.414,0.22s0.124,0.393,0.124,0.738V250.044z"></path>
</g>
<g>
	<path fill="#EC1E28" d="M370.039,366.271l0.265-5.058l-1.558,0.956l0.074-1.142l1.595-0.95c0.03-0.413,0.063-0.797,0.104-1.148
		c0.043-0.353,0.09-0.686,0.143-1l0.043-0.235c-0.122,0.042-0.24,0.07-0.353,0.083c-0.113,0.015-0.217,0.014-0.313-0.002
		c-0.311-0.054-0.551-0.208-0.718-0.461c-0.171-0.255-0.227-0.544-0.17-0.871c0.063-0.367,0.243-0.662,0.54-0.883
		c0.296-0.221,0.616-0.302,0.962-0.243c0.298,0.053,0.522,0.196,0.674,0.435c0.15,0.236,0.196,0.519,0.14,0.849
		c-0.028,0.158-0.104,0.387-0.235,0.688c-0.128,0.302-0.205,0.531-0.233,0.688c-0.043,0.254-0.028,0.514,0.047,0.782
		c0.074,0.267,0.21,0.551,0.411,0.849c0.391-0.154,0.729-0.368,1.017-0.645c0.288-0.275,0.519-0.607,0.691-0.997
		c0.06-0.127,0.136-0.306,0.229-0.535c0.095-0.229,0.164-0.375,0.206-0.438c0.146-0.211,0.323-0.365,0.527-0.462
		c0.203-0.097,0.421-0.126,0.65-0.087c0.298,0.052,0.525,0.203,0.685,0.453c0.158,0.25,0.209,0.545,0.149,0.881
		c-0.06,0.349-0.231,0.624-0.515,0.823c-0.284,0.2-0.598,0.27-0.945,0.209c-0.151-0.025-0.286-0.081-0.408-0.165
		c-0.121-0.084-0.233-0.202-0.333-0.354c-0.222,0.466-0.479,0.868-0.771,1.202c-0.293,0.333-0.618,0.6-0.974,0.799
		c-0.13,1.268-0.22,2.137-0.274,2.604c-0.054,0.467-0.098,0.811-0.135,1.025c-0.095,0.541-0.237,0.996-0.431,1.367
		C370.629,365.662,370.369,365.988,370.039,366.271z M370.095,357.382c0.237,0.042,0.456-0.015,0.65-0.168
		c0.2-0.154,0.322-0.362,0.368-0.626c0.04-0.23,0.008-0.43-0.096-0.6c-0.103-0.169-0.254-0.271-0.451-0.305
		c-0.245-0.042-0.473,0.016-0.686,0.175c-0.211,0.158-0.338,0.37-0.384,0.635c-0.039,0.222-0.002,0.417,0.109,0.584
		C369.717,357.242,369.879,357.345,370.095,357.382z M374.247,358.438c0.251,0.043,0.472-0.006,0.666-0.146s0.312-0.339,0.355-0.595
		c0.039-0.222,0.008-0.414-0.095-0.577c-0.102-0.162-0.254-0.26-0.452-0.293c-0.229-0.04-0.447,0.024-0.654,0.192
		c-0.207,0.167-0.333,0.383-0.377,0.647c-0.035,0.203-0.003,0.373,0.097,0.512C373.889,358.314,374.042,358.401,374.247,358.438z"></path>
</g>
<g>
	<path fill="#EC1E28" d="M273.957,347.742c0,0.686-0.311,1.354-0.931,2.005l-0.097,0.097l-5.43,5.724
		c-1.154,1.213-2.137,2.151-2.947,2.813c-0.812,0.663-1.385,0.993-1.718,0.993c-0.352,0-0.788-0.166-1.309-0.496
		c-0.521-0.331-0.857-0.673-1.01-1.024c-0.13-0.293-0.251-0.914-0.365-1.864c-0.114-0.949-0.172-1.978-0.172-3.086
		c0-0.604,0.252-1.162,0.755-1.675c0.505-0.513,1.061-0.769,1.67-0.769c0.581,0,0.926,0.53,1.036,1.591
		c0.013,0.123,0.021,0.214,0.027,0.272c0.093,0.815,0.201,1.384,0.325,1.706c0.123,0.322,0.288,0.483,0.5,0.483
		c0.088,0,0.252-0.095,0.492-0.286c0.24-0.19,0.527-0.45,0.861-0.778l5.579-5.53c0.468-0.468,0.888-0.824,1.256-1.063
		c0.369-0.241,0.683-0.36,0.939-0.36c0.194,0,0.331,0.073,0.413,0.22s0.123,0.393,0.123,0.738V347.742z"></path>
</g>
<g>
	<path fill="#EC1E28" d="M260.629,398.423c0,0.688-0.31,1.354-0.931,2.005l-0.097,0.099l-5.43,5.722
		c-1.153,1.213-2.137,2.15-2.948,2.814c-0.81,0.662-1.382,0.994-1.716,0.994c-0.352,0-0.788-0.166-1.31-0.497
		s-0.858-0.674-1.011-1.025c-0.128-0.293-0.25-0.914-0.364-1.864c-0.114-0.949-0.172-1.978-0.172-3.085
		c0-0.604,0.252-1.162,0.756-1.674c0.503-0.514,1.061-0.771,1.669-0.771c0.58,0,0.926,0.53,1.037,1.591
		c0.012,0.123,0.021,0.215,0.027,0.273c0.094,0.814,0.201,1.384,0.324,1.706c0.124,0.323,0.29,0.483,0.501,0.483
		c0.087,0,0.251-0.096,0.492-0.286c0.24-0.189,0.526-0.449,0.861-0.777l5.578-5.531c0.469-0.469,0.887-0.822,1.257-1.062
		c0.368-0.24,0.682-0.361,0.939-0.361c0.193,0,0.332,0.074,0.413,0.22c0.081,0.147,0.122,0.394,0.122,0.739V398.423z"></path>
</g>
<g>
	<path fill="#EC1E28" d="M256.298,522.796c0,0.687-0.31,1.354-0.931,2.005l-0.097,0.097l-5.429,5.725
		c-1.155,1.213-2.139,2.15-2.947,2.812c-0.812,0.663-1.385,0.992-1.718,0.992c-0.352,0-0.789-0.165-1.31-0.495
		c-0.521-0.332-0.859-0.672-1.012-1.024c-0.128-0.293-0.249-0.913-0.364-1.864c-0.112-0.948-0.171-1.979-0.171-3.087
		c0-0.604,0.253-1.16,0.756-1.674c0.504-0.513,1.061-0.771,1.67-0.771c0.579,0,0.925,0.533,1.036,1.594
		c0.012,0.123,0.021,0.212,0.026,0.271c0.094,0.815,0.202,1.384,0.325,1.706s0.29,0.484,0.501,0.484
		c0.088,0,0.251-0.096,0.492-0.285c0.24-0.191,0.525-0.451,0.86-0.78l5.578-5.528c0.469-0.47,0.887-0.825,1.257-1.064
		c0.369-0.24,0.683-0.359,0.94-0.359c0.192,0,0.332,0.072,0.413,0.219c0.082,0.146,0.122,0.393,0.122,0.737V522.796z"></path>
</g>
<g>
	<path fill="#EC1E28" d="M238.639,609.823c0,0.688-0.311,1.354-0.932,2.006l-0.096,0.098l-5.431,5.722
		c-1.153,1.214-2.136,2.151-2.947,2.814c-0.812,0.661-1.384,0.994-1.717,0.994c-0.352,0-0.788-0.166-1.31-0.497
		c-0.521-0.331-0.858-0.674-1.011-1.025c-0.129-0.293-0.251-0.914-0.363-1.864c-0.115-0.949-0.172-1.978-0.172-3.085
		c0-0.604,0.252-1.162,0.755-1.675c0.504-0.513,1.061-0.769,1.67-0.769c0.579,0,0.925,0.529,1.037,1.591
		c0.012,0.122,0.02,0.215,0.025,0.272c0.095,0.815,0.202,1.384,0.325,1.707c0.123,0.322,0.291,0.481,0.502,0.481
		c0.087,0,0.251-0.095,0.491-0.285s0.526-0.449,0.861-0.777l5.578-5.531c0.469-0.469,0.887-0.822,1.257-1.062
		c0.368-0.241,0.682-0.362,0.939-0.362c0.193,0,0.331,0.074,0.413,0.221s0.123,0.393,0.123,0.738V609.823z"></path>
</g>
<g>
	<path fill-rule="evenodd" clip-rule="evenodd" d="M301.39,116.015c0,34.333-27.814,62.166-62.12,62.166
		c-34.31,0-62.124-27.833-62.124-62.166c0-34.333,27.814-62.166,62.124-62.166C273.575,53.849,301.39,81.682,301.39,116.015z"></path>
	<ellipse fill-rule="evenodd" clip-rule="evenodd" fill="#B7D333" cx="239.311" cy="116.358" rx="56.474" ry="56.515"></ellipse>
	<g>
		<path d="M227.22,104.035c-0.784,6.927-1.367,12.49-1.755,16.691l-2.575,0.113c0.036-0.14,0.056-0.296,0.062-0.472
			c0.004-0.314-0.112-0.729-0.348-1.242c-0.236-0.512-0.371-0.838-0.404-0.979c-0.666,0.093-1.306,0.557-1.914,1.385
			c-0.61,0.832-1.16,1.244-1.649,1.237c-0.282-0.005-0.596-0.083-0.942-0.227c-0.46,0.307-1.057,0.436-1.793,0.389
			c-0.663-0.116-1.31-0.215-1.939-0.296c-0.02-0.875-0.882-1.643-2.586-2.305c0.005-0.35-0.17-0.87-0.526-1.559
			c-0.356-0.691-0.532-1.173-0.526-1.455c0.004-0.316,0.132-0.576,0.382-0.782c-0.035-0.106-0.322-0.759-0.861-1.961
			c-0.37-0.88-0.55-1.639-0.538-2.268c0.006-0.49,0.121-0.946,0.338-1.362c-0.299-2.985-0.432-5.544-0.395-7.682
			c0.055-3.294,0.526-6.317,1.415-9.073c-0.063-0.42-0.092-0.84-0.085-1.262c0.038-2.208,0.801-3.735,2.283-4.587l0.012-0.683
			c1.469-1.869,3.399-3.22,5.796-4.056c1.43,0.34,2.86,0.663,4.291,0.968c1.603,0.552,2.708,1.5,3.315,2.843
			c0.484,0.289,0.721,0.871,0.705,1.745c-0.016,0.981,0.096,1.616,0.336,1.899l-0.268,0.312c0.279,2.072,0.416,3.337,0.408,3.791
			c-0.022,1.333-0.373,2.273-1.047,2.822c-0.244-0.004-0.89-0.225-1.932-0.662c-0.25,0.239-0.515,0.358-0.794,0.353
			c-0.141-0.001-0.395-0.077-0.76-0.224c-0.364-0.146-0.671-0.222-0.915-0.226c-0.176-0.002-0.353,0.03-0.528,0.097
			c-0.021-2.769,0.066-4.836,0.263-6.201c-0.276-0.179-0.558-0.588-0.844-1.222c-0.288-0.636-0.659-0.994-1.111-1.07
			c-0.285,0.346-0.413,0.571-0.38,0.677l-0.939-0.332c-0.856,0.933-1.427,2.552-1.71,4.859c-0.291,2.658-0.653,4.423-1.088,5.291
			c0.376,0.394,0.562,0.94,0.549,1.64c-0.004,0.247-0.045,0.649-0.127,1.208c-0.08,0.56-0.12,0.98-0.124,1.261
			c-0.007,0.315,0.021,0.598,0.089,0.843l-0.64,0.619c0.26,1.196,0.41,2.707,0.449,4.529c-0.025,1.542-0.037,3.084-0.025,4.625
			c-0.038,0-0.335,0.013-0.896,0.037c-0.35-0.006-0.598,0.113-0.741,0.357c0.212-0.032,0.404-0.047,0.577-0.043
			c0.771,0.012,1.376,0.557,1.812,1.633c0.436,1.079,0.812,1.619,1.128,1.625c0.349,0.004,0.828-0.318,1.438-0.976
			c1.031-1.104,1.565-2.62,1.599-4.545c0.017-0.947-0.09-1.965-0.316-3.055c-0.25,0.137-0.375,0.485-0.385,1.043
			c-0.561-0.009-0.912,0.108-1.058,0.35c-0.243-0.074-0.347-0.268-0.305-0.583c0.041-0.453,0.063-0.699,0.065-0.734
			c0.423-0.133,0.633-0.323,0.639-0.567c0.002-0.104-0.074-0.299-0.227-0.583c-0.151-0.283-0.227-0.511-0.225-0.687
			c0.004-0.141,0.041-0.28,0.113-0.42l0.244-2.045c0.768,0.224,2.428,0.32,4.986,0.295c-0.074,0.174,0.028,0.405,0.305,0.688
			c0.248-0.241,0.511-0.359,0.793-0.354c0.211,0.005,0.523,0.097,0.941,0.279C226.748,103.941,227.044,104.032,227.22,104.035z"></path>
		<path d="M246.823,122.139c-0.487-0.219-1.01-0.333-1.571-0.343c-0.488-0.007-1.157,0.085-2.001,0.283
			c-0.948,0.193-1.598,0.304-1.947,0.335c-0.375-0.742-0.637-1.765-0.79-3.065c-0.284-1.896-0.46-2.967-0.521-3.215
			c0.107-0.209,0.163-0.382,0.164-0.522c0.009-0.388-0.294-0.732-0.901-1.041c-0.609-0.308-0.91-0.55-0.907-0.727
			c0.002-0.208,0.359-0.519,1.066-0.929c-0.171-0.212-0.298-0.643-0.371-1.292c-0.077-0.65-0.237-1.083-0.478-1.298
			c-0.427,0.379-1.122,0.622-2.087,0.728c-0.966,0.107-1.607,0.262-1.924,0.466c0.021,2.734-0.43,4.568-1.355,5.498
			c-0.489-0.114-0.862,0.072-1.113,0.561c-0.361,0.589-0.665,0.936-0.912,1.035l0.309,0.374c-0.283,0.239-0.74,0.339-1.368,0.292
			c-0.983-0.053-1.505-0.078-1.575-0.079l-0.299-0.952l3.422-28.385c0.03-1.787,0.121-2.995,0.271-3.623
			c-0.044-1.579,0.324-2.554,1.099-2.925c0.485,0.322,1.098,0.491,1.833,0.504c0.594,0.009,1.525-0.114,2.789-0.374
			c1.268-0.258,2.144-0.384,2.635-0.376c1.714,0.03,2.463,1.27,2.249,3.719c-0.174,1.96,0.132,4.542,0.918,7.746
			c0.817,3.447,1.213,6.03,1.184,7.748c-0.011,0.526,0.162,1.614,0.119,2.141c-0.742,0.406-1.691,0.653-2.85,0.738
			c-1.017,0.053-2.05,0.106-3.103,0.158c-0.271-2.667-0.739-5.883-1.011-8.517c-0.332-3.159-0.743-5.759-1.232-7.799l-1.622,15.007
			c-0.125,1.294,0.459,1.954,1.755,1.977c0.419,0.006,0.821-0.093,1.211-0.295c0.318-0.101,0.753,0.136,1.303,0.704
			c-0.02,1.087,0.197,1.739,0.649,1.958c0.567-0.378,1.309-0.732,2.226-1.068c0.81-0.301,1.603-0.585,2.379-0.854
			c0.442,0.605,0.728,1.503,0.848,2.697c0.146,1.685,0.25,2.668,0.316,2.949c0.058,0.668,0.332,2.11,0.82,4.327
			c0.355,1.757,0.524,3.18,0.506,4.267C246.944,121.195,246.901,121.685,246.823,122.139z"></path>
		<path d="M271.014,97.104c-0.039,0.104-0.047,0.717-0.032,1.839c-0.015,0.912-0.133,1.594-0.349,2.046
			c-0.259,0.696-0.397,1.691-0.419,2.987c-0.007,0.282,0.004,0.72,0.029,1.317c-0.011,0.595-0.018,1.032-0.022,1.312
			c-0.036,2.209-0.414,3.812-1.134,4.818c0.062,0.564,0.087,1.125,0.078,1.684c-0.029,1.752-0.631,4.108-1.8,7.067
			c-0.318,0.101-0.583,0.148-0.792,0.145c-0.421-0.007-0.722-0.249-0.908-0.725c-0.186-0.477-0.359-0.926-0.525-1.352
			c0.112-2.695,0.058-6.622-0.17-11.779l0.319-0.31c-0.229-0.915-0.334-1.933-0.315-3.054c0.014-0.805,0.113-1.978,0.296-3.517
			c0.185-1.538,0.283-2.695,0.295-3.466c0.011-0.489-0.002-0.964-0.026-1.418c-1.206,2.889-2.061,7.781-2.562,14.676l-0.438,1.043
			c-0.146,0.349-0.446,0.537-0.9,0.564c-0.139-0.245-0.275-0.372-0.415-0.375c-0.105-0.001-0.292,0.127-0.557,0.385
			c-0.27,0.257-0.49,0.367-0.664,0.33l-0.695,0.619c0.31,0.393,0.974,0.437,1.995,0.141c0.809-0.232,1.224,0.072,1.247,0.914
			c0.021,0.702-0.171,1.646-0.575,2.83c-0.406,1.183-0.612,2.075-0.622,2.67c-0.007,0.42,0.037,0.843,0.136,1.264l-3.636,0.57
			c-0.337-0.708-0.588-1.894-0.753-3.562c-0.164-1.668-0.416-2.855-0.754-3.561c0.214-0.241,0.323-0.501,0.328-0.783
			c0.003-0.245-0.094-0.614-0.295-1.108c-0.204-0.494-0.321-0.865-0.351-1.111c-0.029-0.385-0.152-1.317-0.374-2.792
			c-0.155-1.194-0.228-2.126-0.216-2.791c0.007-0.35,0.031-0.665,0.071-0.944c0.003-0.246-0.133-0.606-0.403-1.086
			c-0.273-0.478-0.406-0.822-0.401-1.033c0.003-0.173,0.074-0.33,0.218-0.465c-0.242-0.288-0.337-0.779-0.29-1.48
			c0.045-0.7-0.052-1.192-0.29-1.476c-0.516,1.357-0.79,3.192-0.831,5.507c-0.018,3.223-0.052,5.083-0.094,5.57l0.362,0.322
			l-0.372,0.309c0.259,1.267,0.371,2.881,0.337,4.843c-0.095,3.538-0.141,5.185-0.135,4.941c-0.498,0.446-1.187,0.662-2.061,0.647
			c-1.085-0.019-1.822,0.077-2.211,0.277c-0.444-0.777-0.655-1.779-0.631-3.006c0.013-0.946,0.176-2.099,0.478-3.462
			c-0.476-0.884-0.699-2.115-0.673-3.691c0.008-0.386,0.053-1.121,0.142-2.206c0.05-0.874,0.062-1.523,0.036-1.945
			c0.352-0.168,0.528-0.357,0.532-0.567c0.004-0.142-0.106-0.379-0.329-0.717c-0.223-0.335-0.332-0.592-0.329-0.767
			c0.004-0.21,0.148-0.418,0.431-0.625l-1.131-17c0.675-0.443,1.765-0.654,3.27-0.627c1.645,0.064,2.767-0.022,3.367-0.256
			c0.106-0.07,0.228-0.103,0.369-0.101c0.14,0.002,0.305,0.085,0.495,0.245c0.19,0.162,0.32,0.242,0.389,0.244
			c0.14,0.003,0.266-0.101,0.374-0.309l0.981,0.963c0.329,1.232,0.639,3.621,0.93,7.164c0.297,3.055,0.767,5.36,1.407,6.913
			c0.858-3.104,1.565-5.704,2.129-7.797l1.139-8.32l8.144-0.177c0.028,0.456,0.129,2.891,0.35,4.298
			c0.188,1.228,0.278,2.229,0.264,3c-0.014,0.877-0.15,1.662-0.407,2.358c0.274,0.393,0.405,0.883,0.395,1.479
			C271.449,96.236,271.299,96.723,271.014,97.104z"></path>
		<path d="M287.722,115.526l0.002-0.053c-0.219,0.452-0.351,0.976-0.396,1.57c-0.041,0.384-0.051,0.928-0.027,1.628
			c0.021,0.807,0.029,1.37,0.024,1.683c-0.281-0.003-1.401-0.022-3.362-0.055c-1.189-0.021-2.261,0.083-3.21,0.312l-0.98-1.068
			c-0.285,0.274-0.393,0.501-0.325,0.679c-0.176-0.042-0.982-0.052-2.415-0.043c-1.123-0.019-1.962-0.139-2.517-0.359
			c-0.571,0.588-1.237,0.577-1.998-0.032c-0.276-0.214-0.303-0.577-0.086-1.081c0.219-0.504,0.155-0.881-0.19-1.133
			c0.053-1.119,0.206-2.852,0.456-5.197c0.246-2.098,0.377-3.745,0.398-4.935c0.027-1.611-0.085-3.155-0.34-4.631
			c0.392-0.38,0.83-0.566,1.32-0.557c0.562,0.009,1.222,0.284,1.983,0.821c1.07,0.754,1.628,1.132,1.663,1.133l0.306,0.373
			c0.038-0.104,0.224-0.662,0.556-1.673c0.186-0.662,0.456-1.096,0.812-1.301l0.311,0.322c0.14-0.068,0.6-0.394,1.382-0.976
			c0.599-0.41,1.092-1.383,1.44-1.377c0.386,0.006,0.749,0.223,1.093,0.65c0.591,0.326,0.961,1.584,1.145,2.235
			c0.18,0.65,0.354,1.292,0.519,1.928c-1.577,0.043-2.873,0.002-3.885-0.119c-0.254,0.38-0.604,0.435-1.055,0.165
			c-0.45-0.27-0.783-0.231-1,0.114c-0.011,0.633-0.03,1.771-0.059,3.416c-0.061,1.473-0.079,2.628-0.059,3.471
			c0.013,1.296,0.1,2.49,0.256,3.58c0.278,0.005,1.608,0.027,3.988,0.067C285.119,115.115,286.535,115.26,287.722,115.526z
			 M287.835,90.345c-0.316,0.028-0.666,0.04-1.053,0.035c-0.805-0.014-1.871-0.138-3.197-0.37c-1.645-0.238-2.641-0.377-2.989-0.418
			c-0.502,0.725-0.764,1.757-0.787,3.089c-0.049,2.872-0.053,4.116-0.011,3.731c0.484,0.288,0.722,0.818,0.707,1.589
			c-0.052,1.05-0.061,1.595-0.026,1.629c-0.247,0.102-0.375,0.449-0.385,1.046c-0.384-0.147-0.78-0.435-1.193-0.861
			c-0.553-0.536-0.846,1.28-0.804,0.826l-0.332,1.08l-0.312-0.322c-0.281,0.029-0.76-0.118-1.437-0.444
			c-0.679-0.326-1.153-0.631-1.429-0.919c0.01-0.56,0.104-0.874,0.277-0.942l-0.669-0.745l-0.323,0.467
			c-0.393-3.651-0.295-10.481,0.189-14.328c1.328,0.233,2.797,0.381,4.406,0.443c1.085,0.052,2.606,0.078,4.568,0.077
			c2.241,0.003,3.855,0.012,4.834,0.029c0.413,0.395,0.615,0.905,0.605,1.535c-0.008,0.389-0.115,1.006-0.322,1.863
			C287.947,89.288,287.841,89.923,287.835,90.345z"></path>
	</g>
	<g>
		<path d="M228.8,147.31l-0.002-0.024c0.002,0.017-0.09,0.788-0.271,2.316c-0.09,0.94-0.316,1.677-0.679,2.216l-0.228-0.187
			c-0.426,0.892-1.003,1.434-1.738,1.628c-0.35,0.37-0.857,0.574-1.518,0.612c-0.394,0.024-1.3-0.091-2.724-0.342
			c-0.686-0.427-1.062-0.663-1.128-0.709c-0.432-0.326-0.638-0.655-0.615-0.99c-0.418-0.426-1.007-1.188-1.227-2.141
			c-0.268-1.052-0.431-1.112-0.68-1.481c-0.396,0.292-0.539-0.329-0.769-0.701l0.208-0.162c-0.129-0.093-0.196-0.196-0.204-0.313
			c-0.005-0.083,0.029-0.205,0.104-0.368c0.074-0.162,0.108-0.287,0.102-0.368c-0.006-0.132-0.086-0.245-0.235-0.337
			c0.159-0.827,0.304-2.068,0.436-3.728c0.282-0.149,0.415-0.441,0.401-0.874c-0.017-0.432,0.043-0.719,0.181-0.861
			c0.669-1.339,1.755-2.244,3.261-2.716c0.082,0.013,0.486,0.005,1.209-0.02c0.498-0.012,0.872,0.032,1.126,0.134
			c0.451-0.077,0.904,0.031,1.354,0.322c0.392,0.294,0.782,0.588,1.171,0.882c0.729,0.792,1.123,1.686,1.182,2.683
			c0.02,0.333-0.004,0.683-0.064,1.054c-0.539-0.019-0.922,0.338-1.149,1.069l-2.1,0.195c-0.226-0.318-0.356-0.746-0.386-1.278
			c-0.011-0.183-0.009-0.45,0-0.8c0.011-0.351,0.012-0.618,0-0.8c-0.031-0.548-0.16-0.983-0.386-1.303l-0.632,0.36
			c-0.254-0.102-0.386-0.252-0.397-0.452c-0.005-0.066,0.006-0.163,0.03-0.289c0.023-0.127,0.034-0.215,0.03-0.264
			c-0.013-0.215-0.206-0.346-0.582-0.393c-0.256,2.367-0.333,4.798-0.229,7.292c0.065,0.08,0.266,0.136,0.6,0.166
			c0.271,0.034,0.409,0.119,0.417,0.251c0.003,0.051-0.012,0.118-0.05,0.203l-0.208,0.163c0.112,0.177,0.181,0.424,0.199,0.739
			c0.009,0.166,0.003,0.421-0.019,0.763c-0.021,0.344-0.028,0.599-0.019,0.764c0.031,0.499,0.154,0.876,0.379,1.13
			c-0.023,0.367,0.128,0.618,0.444,0.75c0.204-0.08,0.386-0.123,0.553-0.132c0.64-0.038,1.085,0.311,1.333,1.049
			c0.001,0.016-0.002,0.141-0.009,0.375c0.008,0.133,0.074,0.219,0.201,0.261c0.281-0.166,0.42-0.466,0.414-0.898
			c-0.007-0.5,0.058-0.821,0.194-0.962c-0.035-0.23-0.173-0.563-0.416-1c-0.244-0.437-0.372-0.779-0.388-1.028
			c-0.015-0.266,0.064-0.521,0.236-0.764c-0.147-0.042-0.215-0.138-0.203-0.287c0.007-0.235,0.011-0.36,0.011-0.377
			C226.465,147.054,227.624,147.045,228.8,147.31z"></path>
		<path d="M238.305,149.261l-0.027,0.001c-0.122,0.24-0.159,0.585-0.115,1.03c0.056,0.635,0.086,0.957,0.087,0.973
			c-0.094,0.036-0.223-0.011-0.386-0.141c-0.244,0.091-0.36,0.246-0.348,0.463c0.002,0.031,0.015,0.084,0.038,0.16
			c0.006,0.092,0.011,0.154,0.012,0.186c0.01,0.169-0.041,0.297-0.151,0.38c-0.279-0.154-0.646-0.253-1.1-0.295
			c-0.457-0.045-0.888-0.085-1.295-0.122c-0.006-2.11-0.289-4.173-0.849-6.187c0,0.016-0.012-0.192-0.036-0.626
			c0.001-0.31-0.069-0.53-0.212-0.663l-0.193,0.174c-0.002-0.032,0.062-0.092,0.192-0.186c0.13-0.092,0.192-0.186,0.187-0.279
			c-0.005-0.045-0.017-0.091-0.038-0.137l-0.211-0.151c-0.359,0.115-0.524,0.404-0.498,0.867c0.02,0.309-0.105,0.527-0.367,0.65
			c0.102,0.071,0.154,0.162,0.16,0.27c0.005,0.061-0.005,0.148-0.027,0.256c-0.023,0.111-0.032,0.197-0.029,0.258
			c0.01,0.138,0.083,0.25,0.223,0.336c0.004,0.092,0.054,0.927,0.143,2.504c0.062,1.005,0.032,1.859-0.079,2.563l0.021,0.395
			c-0.136-0.007-0.29-0.006-0.462,0.003c-0.192,0.012-0.471,0.04-0.834,0.083c-0.362,0.045-0.631,0.074-0.804,0.082
			c-0.71,0.041-1.208-0.079-1.495-0.356l-0.298-8.659c-0.141-0.425-0.232-1.017-0.276-1.776l-0.097-1.668
			c-0.067-0.818-0.171-1.449-0.312-1.89c0.059-0.298,0.32-0.461,0.781-0.486c0.287-0.018,0.674,0.021,1.161,0.118
			c0.225-0.107,0.538-0.171,0.943-0.195c0.115-0.007,0.296-0.01,0.548-0.008c0.268-0.015,0.46-0.027,0.575-0.033
			c0.748-0.044,1.246-0.274,1.492-0.692c0.348-0.004,0.723,0.105,1.131,0.33c0.406,0.225,0.766,0.345,1.075,0.356
			c0.817,0.48,1.257,1.276,1.324,2.389c0.013,0.248-0.084,1.23-0.293,2.948l-1.402,1.223c0.237,0.436,0.524,1.388,0.86,2.857
			C237.306,147.792,237.733,148.689,238.305,149.261z M235.713,139.409l0.026,0.021c0.027,0.106,0.015-0.272-0.036-1.138
			c-0.023-0.417-0.176-0.718-0.455-0.905c-0.16,0.227,0.021,0.332-0.055,0.857c-0.076,0.523-0.386,0.376-0.565,0.604
			c-0.482-0.003-0.593,0.288-0.696-0.171c-0.216-0.748-0.402-0.682-0.403-0.696l-0.204,0.124c-0.072,0.065-0.156,0.141-0.247,0.223
			c-0.091,0.084-0.186,0.112-0.282,0.086c0.005,0.094-0.041,0.239-0.134,0.439c-0.097,0.199-0.141,0.337-0.137,0.415
			c0.011,0.14,0.12,0.24,0.336,0.305c-0.039,0.314-0.048,0.64-0.028,0.98c0.009,0.184,0.055,0.609,0.131,1.271
			c0.087,0.523,0.123,0.97,0.105,1.342c0.175,0.007,0.339,0.006,0.493-0.004c0.672-0.039,1.108-0.305,1.31-0.796
			c0.068-0.144,0.146-0.661,0.229-1.55C235.177,140.146,235.38,139.676,235.713,139.409z"></path>
		<path d="M249.211,152.625c-0.275-0.079-0.566-0.108-0.873-0.09c-0.269,0.015-0.631,0.083-1.086,0.202
			c-0.514,0.124-0.865,0.197-1.056,0.225c-0.231-0.313-0.41-0.75-0.539-1.318c-0.222-0.825-0.355-1.29-0.397-1.397
			c0.052-0.096,0.074-0.175,0.072-0.236c-0.012-0.169-0.188-0.31-0.531-0.422c-0.345-0.112-0.519-0.207-0.522-0.286
			c-0.003-0.09,0.178-0.242,0.554-0.449c-0.103-0.087-0.187-0.271-0.249-0.556c-0.065-0.283-0.167-0.467-0.308-0.553
			c-0.222,0.185-0.593,0.319-1.118,0.403c-0.523,0.084-0.87,0.178-1.037,0.281c0.107,1.204,0,3.316-0.476,3.764
			c-0.271-0.032-0.468,0.063-0.59,0.289c-0.178,0.273-0.332,0.44-0.464,0.493l0.183,0.151c-0.148,0.117-0.395,0.178-0.74,0.183
			c-0.539,0.017-0.825,0.024-0.865,0.027l-0.195-0.409l0.808-13.925c-0.044-0.787-0.038-1.323,0.024-1.604
			c-0.081-0.694,0.088-1.138,0.499-1.333c0.277,0.123,0.616,0.172,1.021,0.149c0.325-0.02,0.831-0.109,1.516-0.273
			c0.683-0.163,1.159-0.253,1.427-0.269c0.943-0.055,1.396,0.462,1.362,1.548c-0.027,0.871,0.231,1.995,0.773,3.375
			c0.567,1.487,0.874,2.609,0.918,3.367c0.014,0.231,0.321,0.724,0.314,0.956c-0.392,0.209-0.904,0.355-1.533,0.438
			c-0.557,0.063-1.118,0.128-1.695,0.191c-0.238-1.166-0.784-2.581-1.023-3.731c-0.292-1.378-0.608-2.506-0.948-3.387l-0.364,6.675
			c-0.023,0.574,0.32,0.841,1.029,0.799c0.229-0.012,0.448-0.072,0.655-0.177c0.171-0.056,0.415,0.032,0.735,0.26
			c0.029,0.479,0.17,0.759,0.426,0.835c0.297-0.187,0.69-0.372,1.18-0.557c0.434-0.164,0.858-0.32,1.274-0.469
			c0.263,0.249,0.449,0.633,0.558,1.155c0.139,0.735,0.23,1.164,0.277,1.286c0.055,0.291,0.254,0.917,0.599,1.874
			c0.256,0.76,0.397,1.378,0.427,1.859C249.243,152.202,249.235,152.42,249.211,152.625z"></path>
		<path d="M257.16,136.83l0.031-0.001c-0.231,0.339-0.524,0.403-0.884,0.192c-0.079-0.013-0.425,0.008-1.038,0.058
			c-0.518,0.03-0.893,0.006-1.13-0.074c-0.057,0.005-0.172,0.062-0.338,0.171c-0.167,0.111-0.289,0.168-0.366,0.172
			c-0.112,0.007-0.179-0.09-0.188-0.291c-0.002-0.031-0.011-0.162-0.024-0.395c-0.009-0.154-0.084-0.259-0.221-0.312l-0.358,0.276
			c-0.112,0.085-0.165,0.173-0.158,0.266c0.004,0.077,0.068,0.186,0.192,0.325c0.123,0.142,0.195,0.241,0.219,0.302
			c0.005,0.046,0.044,0.744,0.121,2.088c0.03,0.852,0.186,1.53,0.465,2.042c0.071-0.082,0.247-0.126,0.528-0.135
			c0.277-0.008,0.463-0.07,0.551-0.184c0.183,0.161,0.486,0.17,0.913,0.029c0.425-0.141,0.73-0.093,0.919,0.144l-0.055,2.051
			c-0.175-0.02-0.431-0.105-0.767-0.256c-0.098,0.3-0.29,0.489-0.574,0.567c-0.114,0.04-0.438,0.071-0.976,0.104
			c0.013-0.095-0.068-0.189-0.25-0.288c-0.521,0.248-0.72,0.841-0.589,1.779c0.014-0.094,0.033,0.067,0.058,0.486
			c0.015,0.262-0.04,0.452-0.168,0.567c-0.327,0.05-0.74-0.023-1.241-0.218c-0.502-0.197-0.86-0.289-1.07-0.275
			c-0.097,0.005-0.184,0.019-0.259,0.039l-0.539,0.17l-0.861-9.371l-0.102-1.783c0.716-0.243,1.604-0.396,2.659-0.458
			c0.825-0.047,1.903-0.041,3.236,0.021c0.085-0.176,0.243,0.054,0.436,0.042c0.096-0.005,0.241,0.005,0.436,0.033
			c0.193,0.026,0.339,0.039,0.436,0.033c0.116-0.009,0.22-0.029,0.314-0.065l0.136-0.148c0.392,0.117,0.598,0.322,0.611,0.616
			c0.008,0.124-0.028,0.334-0.106,0.636c-0.078,0.298-0.113,0.525-0.105,0.68C257.063,136.604,257.1,136.726,257.16,136.83z
			 M253.794,152.465c-0.207,0.106-0.521,0.169-0.942,0.195c-0.557,0.032-0.892,0.059-1.006,0.081
			c-0.062-0.058-0.135-0.011-0.261-0.5c-0.076-0.32-0.278-0.473-0.603-0.452c-0.079,0.005-0.173,0.018-0.288,0.04l-0.519,0.029
			l-0.275-4.742c0.281-0.14,0.633-0.223,1.055-0.248c0.404-0.023,0.763,0.019,1.077,0.124c-0.009,0.17,0.236,0.243,0.733,0.213
			l0.548-0.032C253.64,148.503,253.838,150.912,253.794,152.465z"></path>
		<path d="M268.678,137.234l0.03,0.022c-0.271-0.016-1.141,0.042-1.81,0.127c-0.574,0.066-1.008,0.075-1.3,0.031
			c-0.278,0.185-0.378,0.44-0.301,0.761l0.178,0.106c-0.145,0.133-0.197,0.235-0.155,0.312l0.154,0.153
			c-0.034,2.748-0.04,4.267-0.022,4.562c0.039,0.726,0.126,1.364,0.253,1.916c-0.114,0.349-0.159,0.747-0.131,1.194
			c0.017,0.293,0.087,0.759,0.209,1.395c0.124,0.637,0.289,2.726,0.309,3.052c0.015,0.246,0.008,0.48-0.018,0.698
			c-0.265,0.11-0.55,0.172-0.857,0.19c-0.517,0.03-1.072-0.077-1.664-0.32c-0.074,0.066-0.155,0.136-0.248,0.211
			c-0.092,0.075-0.115,0.158-0.072,0.249c-0.189,0.057-0.454-0.021-0.793-0.231c-0.182-2.783-0.68-8.45-1.418-14.177
			c-0.257,0.232-0.731,0.039-1.23,0.097c-0.594,0.066-1.174-0.024-1.4,0.083c-0.286-0.31-0.224-0.399-0.254-0.909
			c-0.028-0.494-0.187-1.714-0.061-2.225c0.026-0.108,1.102-0.047,1.733-0.098c0.863-0.051,1.055,0.154,1.11,0.149
			c0.071-0.112,0.493-0.056,0.799-0.073c0.198,0.098,0.412-0.089,0.422,0.05c0.006,0.092,0,0.678-0.065,0.846
			c-0.068,0.165-0.101,0.288-0.097,0.365c0.012,0.185,0.144-0.087,0.459,0.02c0.346-0.005,0.701-0.018,1.065-0.038
			c0.407,0.037,0.874-0.111,0.837,0.233c0.071-0.099,0.115,0.075,0.699-0.16c0.432-0.195,0.694-0.705,0.608-1.053
			c-0.046-0.191,0.214-0.314,0.053-0.225c0.207-0.114,0.019-0.034,0.244-0.124c0.719,0.066,1.118-0.007,1.252-0.017
			c0.29-0.018,1.003,0.169,1.209,0.065c0.149,0.27,0.225,1.116,0.232,1.581C268.662,136.793,268.673,137.188,268.678,137.234z"></path>
		<path d="M278.009,146.911l-0.003-0.022c-0.104,0.208-0.157,0.445-0.16,0.708c-0.011,0.172,0.003,0.411,0.041,0.719
			c0.039,0.354,0.063,0.602,0.071,0.741c-0.155,0.007-0.769,0.043-1.843,0.106c-0.652,0.038-1.235,0.126-1.747,0.264l-0.572-0.433
			c-0.147,0.134-0.198,0.238-0.156,0.312c-0.097-0.009-0.539,0.016-1.324,0.078c-0.615,0.036-1.078,0.015-1.392-0.06
			c-0.291,0.279-0.656,0.303-1.094,0.063c-0.158-0.083-0.187-0.241-0.084-0.47c0.102-0.232,0.054-0.396-0.146-0.493
			c-0.007-0.495,0.015-1.265,0.07-2.308c0.062-0.932,0.077-1.663,0.047-2.189c-0.043-0.711-0.159-1.386-0.348-2.027
			c0.199-0.182,0.434-0.281,0.701-0.296c0.308-0.019,0.679,0.078,1.118,0.285c0.613,0.289,0.928,0.435,0.947,0.435l0.183,0.15
			c0.018-0.047,0.097-0.301,0.245-0.758c0.077-0.3,0.211-0.501,0.398-0.605l0.179,0.128c0.078-0.034,0.318-0.195,0.725-0.483
			c0.314-0.205,0.532-0.956,0.725-0.967c0.21-0.012,0.418,0.069,0.621,0.243c0.333,0.121,0.6,0.965,0.722,1.244
			c0.121,0.28,0.238,0.556,0.352,0.829c-0.863,0.082-1.573,0.115-2.132,0.101c-0.124,0.179-0.316,0.216-0.57,0.114
			c-0.257-0.101-0.439-0.071-0.546,0.092c0.017,0.277,0.047,0.78,0.088,1.506c0.019,0.649,0.049,1.159,0.088,1.53
			c0.053,0.571,0.143,1.092,0.266,1.566c0.154-0.009,0.884-0.051,2.188-0.126C276.567,146.833,277.348,146.842,278.009,146.911z
			 M277.117,136.003c-0.172,0.027-0.365,0.045-0.577,0.058c-0.441,0.024-1.027,0.012-1.764-0.039
			c-0.907-0.04-1.458-0.062-1.651-0.066c-0.248,0.339-0.282,0.616-0.248,1.204c0.073,1.266,0.116,1.816,0.124,1.644
			c0.276,0.108,0.425,0.333,0.444,0.673c0.007,0.464,0.021,0.703,0.042,0.718c-0.132,0.054-0.19,0.212-0.175,0.475
			c-0.215-0.047-0.444-0.16-0.684-0.332c-0.322-0.214-0.423,0.545-0.414,0.342l-0.146,0.472l-0.18-0.128
			c-0.154,0.024-0.421-0.021-0.803-0.139c-0.383-0.117-0.655-0.234-0.815-0.349c-0.015-0.247,0.023-0.39,0.12-0.426l-0.394-0.303
			l-0.16,0.219c-0.344-1.592-0.572-4.4-0.44-6.113c0.735,0.05,1.594-0.079,2.477-0.115c0.595-0.018,1.432-0.066,2.506-0.144
			c1.227-0.086,2.108-0.146,2.646-0.177c0.239,0.157,0.371,0.374,0.386,0.651c0.01,0.171-0.027,0.448-0.112,0.832
			C277.214,135.346,277.105,135.818,277.117,136.003z"></path>
		<path d="M287.587,145.264l-0.028,0.004c-0.121,0.238-0.16,0.582-0.114,1.029c0.056,0.632,0.084,0.957,0.085,0.972
			c-0.096,0.036-0.222-0.009-0.384-0.141c-0.246,0.091-0.36,0.247-0.35,0.461c0.003,0.031,0.016,0.084,0.038,0.162
			c0.006,0.092,0.01,0.154,0.011,0.184c0.013,0.17-0.038,0.297-0.149,0.382c-0.28-0.156-0.647-0.254-1.102-0.297
			c-0.456-0.043-0.887-0.085-1.293-0.124c-0.008-2.106-0.291-4.168-0.849-6.183c0,0.015-0.014-0.194-0.038-0.628
			c0.002-0.308-0.068-0.53-0.211-0.662l-0.191,0.174c-0.002-0.029,0.061-0.092,0.191-0.185c0.128-0.094,0.191-0.186,0.186-0.278
			c-0.004-0.046-0.016-0.094-0.038-0.138l-0.21-0.152c-0.359,0.116-0.525,0.404-0.498,0.868c0.018,0.31-0.105,0.527-0.368,0.649
			c0.1,0.072,0.154,0.163,0.163,0.271c0.002,0.061-0.01,0.147-0.029,0.257c-0.022,0.11-0.034,0.196-0.03,0.258
			c0.009,0.138,0.082,0.251,0.222,0.337c0.006,0.092,0.054,0.926,0.145,2.502c0.061,1.005,0.031,1.861-0.081,2.564l0.023,0.395
			c-0.137-0.008-0.29-0.008-0.462,0.003c-0.193,0.012-0.471,0.039-0.834,0.083c-0.364,0.043-0.63,0.072-0.804,0.083
			c-0.71,0.041-1.207-0.078-1.493-0.356l-0.301-8.66c-0.14-0.426-0.232-1.018-0.277-1.775l-0.098-1.669
			c-0.066-0.818-0.168-1.448-0.31-1.889c0.059-0.298,0.32-0.46,0.779-0.488c0.29-0.017,0.676,0.024,1.164,0.118
			c0.225-0.106,0.537-0.172,0.939-0.194c0.117-0.006,0.298-0.008,0.55-0.008c0.268-0.015,0.462-0.027,0.575-0.035
			c0.75-0.042,1.246-0.272,1.492-0.69c0.346-0.004,0.724,0.105,1.13,0.329c0.409,0.224,0.767,0.343,1.079,0.356
			c0.815,0.481,1.255,1.277,1.32,2.391c0.015,0.247-0.084,1.229-0.291,2.948l-1.404,1.22c0.239,0.437,0.524,1.389,0.861,2.858
			C286.585,143.796,287.015,144.693,287.587,145.264z M284.992,135.412l0.031,0.023c0.024,0.107,0.011-0.272-0.037-1.138
			c-0.025-0.418-0.179-0.72-0.458-0.904c-0.159,0.226-0.189-0.301-0.265,0.224c-0.075,0.525-0.203,0.9-0.38,1.128
			c-0.483-0.003-0.595-0.29-0.88-0.693c-0.18-0.256-0.268-0.033-0.268-0.049l-0.131,0.105c-0.073,0.067-0.155,0.142-0.248,0.225
			c-0.09,0.083-0.187,0.111-0.283,0.086c0.006,0.091-0.039,0.239-0.135,0.438c-0.092,0.2-0.138,0.338-0.134,0.414
			c0.01,0.139,0.119,0.242,0.337,0.308c-0.042,0.312-0.051,0.638-0.031,0.979c0.014,0.186,0.054,0.608,0.132,1.273
			c0.088,0.521,0.125,0.967,0.107,1.341c0.175,0.005,0.336,0.003,0.492-0.004c0.67-0.041,1.106-0.306,1.31-0.798
			c0.066-0.145,0.145-0.661,0.228-1.549C284.457,136.149,284.662,135.681,284.992,135.412z"></path>
	</g>
	<g>
		<path d="M192.104,105.325l0.001,0.022c-0.085,0.802-0.115,1.358-0.085,1.667c-0.123,0.048-0.283,0.055-0.482,0.023
			c-0.255-0.043-0.401-0.063-0.445-0.06c-0.11,0.004-0.199,0.044-0.266,0.118c-0.159-0.104-0.266-0.148-0.323-0.132
			c-0.148,0.092-0.219,0.222-0.212,0.389c0.006,0.071,0.031,0.193,0.083,0.364c0.051,0.176,0.078,0.302,0.082,0.386
			c0.005,0.112-0.017,0.289-0.067,0.53c-0.051,0.24-0.073,0.438-0.066,0.592c0.011,0.181,0.05,0.468,0.119,0.857
			c0.068,0.388,0.105,0.683,0.118,0.877c-0.081,0.384-0.11,0.771-0.092,1.163c0.024,0.476,0.156,1.114,0.392,1.917
			c0.043,0.013,0.086,0.017,0.127,0.014c0.098-0.005,0.214-0.075,0.349-0.208c0.133-0.131,0.247-0.201,0.347-0.206
			c0.069-0.003,0.146,0.013,0.232,0.051c0.252,0.815,0.383,1.341,0.396,1.58c0.006,0.112,0.004,0.23-0.003,0.356
			c-0.375,0.09-0.641-0.037-0.796-0.379c0.021-0.099-0.032-0.203-0.165-0.309l-0.418,0.442c0.41,0.064,0.572,0.379,0.488,0.944
			c-0.035,0.115-0.124,0.175-0.264,0.181c-0.239-0.001-0.35-0.003-0.337-0.003l-0.346-0.614l-0.139,0.175
			c-0.114-0.289-0.247-0.43-0.399-0.423c-0.085,0.006-0.231,0.076-0.444,0.211c-0.208,0.137-0.384,0.21-0.523,0.216
			c-0.111,0.005-0.225-0.022-0.341-0.088c-0.008-0.168-0.026-0.342-0.058-0.522c-0.03-0.181-0.124-0.295-0.279-0.345
			c-0.009-0.434,0.005-1.577,0.036-3.431c0.015-1.403,0-2.538-0.045-3.405c-0.02-0.363-0.043-0.721-0.074-1.07
			c-0.074-0.108-0.147-0.161-0.218-0.158c-0.058,0.003-0.142,0.065-0.254,0.182c-0.113,0.118-0.213,0.172-0.299,0.162
			c-0.006-0.139-0.068-0.365-0.189-0.674c-0.121-0.31-0.185-0.534-0.193-0.674c-0.01-0.238,0.077-0.446,0.265-0.625l0.49,0.124
			c0.196-0.277,0.277-0.744,0.244-1.402c-0.006-0.124-0.023-0.324-0.051-0.596c-0.027-0.272-0.045-0.472-0.052-0.597
			c-0.054-1.078,0.276-1.635,0.988-1.67c0.266-0.015,0.592,0.033,0.974,0.141l0.47,0.125c0.038,0.18,0.062,0.368,0.071,0.563
			c0.013,0.267,0.002,0.656-0.035,1.169c-0.039,0.515-0.051,0.891-0.04,1.127c0.02,0.378,0.086,0.719,0.199,1.021
			c0.112-0.004,0.287-0.065,0.527-0.183c0.24-0.117,0.415-0.179,0.527-0.184C191.823,105.044,191.982,105.136,192.104,105.325z
			 M190.645,106.829l-0.024-0.483l-0.152-0.139L190.645,106.829z"></path>
		<path d="M197.873,103.814l0.021-0.002c-0.05,0.381-0.109,0.763-0.174,1.145c-0.075,0.439-0.199,0.781-0.369,1.029
			c-0.029-0.012-0.201-0.094-0.516-0.248c-0.217-0.115-0.41-0.161-0.575-0.139c-0.129,0.821-0.197,1.94-0.21,3.356
			c-0.009,1.81-0.023,2.904-0.044,3.284c-0.211-0.016-0.369,0.051-0.473,0.203c-0.105,0.154-0.204,0.309-0.293,0.467
			c-0.038,0.085-0.055,0.164-0.052,0.233c0.004,0.112,0.103,0.222,0.29,0.322c0.187,0.104,0.283,0.22,0.289,0.345
			c-0.081,0.299-0.258,0.455-0.524,0.468c-0.123,0.006-0.344-0.031-0.657-0.114c-0.312-0.083-0.53-0.121-0.657-0.113l-0.302-6.003
			c0.118-0.16,0.169-0.268,0.153-0.323l-0.174-0.118c0.014-0.251,0.028-1.509,0.04-3.768c0.008-1.529,0.064-2.768,0.171-3.712
			c-0.013,0.002,0.419-0.028,1.301-0.086c0.544-0.027,0.896,0.123,1.052,0.451c0.003,0.309-0.028,0.828-0.091,1.562
			c-0.062,0.676-0.086,1.197-0.069,1.561c0.024,0.447,0.095,0.85,0.21,1.209C196.694,104.183,197.244,103.845,197.873,103.814z
			 M199.956,105.099c0.042,0.559,0.076,1.103,0.104,1.635c0.119,2.322,0.082,4.807-0.107,7.454c-0.202,0.178-0.513,0.218-0.931,0.12
			c-0.418-0.098-0.722-0.059-0.908,0.118c-0.24-0.31-0.381-0.871-0.421-1.683c-0.06-1.174-0.09-1.782-0.093-1.826
			c-0.051-2.943,0.237-5.321,0.86-7.134C199.184,103.972,199.683,104.41,199.956,105.099z"></path>
		<path d="M207.316,108.145c-0.091,0.188-0.128,0.387-0.117,0.596c0.009,0.21,0.019,0.411,0.029,0.61
			c-0.021,0.167-0.066,0.338-0.142,0.51c-0.127-0.035-0.233-0.052-0.316-0.047c-0.101,0.005-0.2,0.042-0.301,0.111
			c-0.101,0.068-0.182,0.104-0.237,0.105c-0.083,0.004-0.196-0.026-0.34-0.088l-0.977-1.423c0.035,0.419,0.132,0.785,0.288,1.101
			c0.077,0.163,0.155,0.328,0.234,0.492c-0.571,0.099-0.893,0.115-0.966,0.048l-0.137,0.177l-0.339-0.446
			c-0.265,0.323-0.325,0.794-0.181,1.419c0.176,0.678,0.186,1.169,0.033,1.471c0.211,0.312,0.463,0.459,0.757,0.445
			c0.128-0.005,0.236-0.054,0.329-0.143c0.136-0.344,0.273-0.687,0.411-1.03c0.203-0.417,0.432-0.633,0.682-0.646
			c0.196-0.009,0.426,0.092,0.689,0.303c0.313,0.109,0.475,0.257,0.485,0.438c0.003,0.113-0.067,0.295-0.216,0.547
			c-0.148,0.254-0.217,0.449-0.212,0.591c0.003,0.056,0.012,0.104,0.028,0.145c-0.203,0.151-0.385,0.377-0.544,0.68
			c-0.161,0.302-0.37,0.51-0.632,0.621c-0.228,0.222-0.438,0.337-0.632,0.348c-0.155,0.009-0.385-0.111-0.693-0.355
			c-0.306-0.243-0.593-0.359-0.857-0.346c-0.11-0.247-0.383-0.521-0.818-0.822c-0.437-0.299-0.706-0.623-0.807-0.969
			c0.002,0.029-0.005-0.083-0.016-0.335c-0.008-0.14-0.069-0.227-0.182-0.265l0.158-0.156c-0.211-0.002-0.321-0.123-0.333-0.362
			c-0.002-0.028-0.004-0.084-0.007-0.168c0.008-0.071,0.015-0.127,0.012-0.168c-0.009-0.168-0.063-0.284-0.164-0.351l-0.037-0.735
			c-0.019-0.378-0.097-0.646-0.231-0.809c0.138-0.89,0.275-1.781,0.414-2.671c0.226-1.036,0.564-1.565,1.013-1.588
			c0.068-0.002,0.139,0.008,0.211,0.031c0.401-0.398,0.888-0.612,1.46-0.641c0.631-0.031,1.326,0.158,2.09,0.569
			C206.805,105.92,207.173,106.989,207.316,108.145z M204.424,105.829l-0.138,0.175c-0.098,0.02-0.211-0.03-0.345-0.151l0.025,0.484
			c-0.214,0.233-0.3,0.595-0.262,1.085c0.042,0.84,0.062,1.246,0.061,1.218l0.63-0.011c0.302-0.169,0.439-0.449,0.421-0.841
			c-0.01-0.196-0.078-0.518-0.206-0.967C204.482,106.37,204.422,106.041,204.424,105.829z"></path>
	</g>
	<g>
		<polygon fill-rule="evenodd" clip-rule="evenodd" points="212.244,129.322 212.869,129.682 214.986,124.114 214.281,123.877 
			212.161,129.446 212.779,129.839 212.244,129.322 212.244,129.322 		"></polygon>
		<polygon fill-rule="evenodd" clip-rule="evenodd" points="213.17,128.55 212.914,128.65 212.244,129.322 212.779,129.839 
			213.461,129.132 213.193,129.267 213.17,128.55 213.17,128.55 		"></polygon>
		<polygon fill-rule="evenodd" clip-rule="evenodd" points="218.3,128.506 218.603,128.271 213.17,128.55 213.193,129.267 
			218.626,128.99 218.973,128.732 218.3,128.506 218.3,128.506 218.3,128.506 		"></polygon>
		<polygon fill-rule="evenodd" clip-rule="evenodd" points="220.753,123.388 220.383,122.927 218.3,128.506 218.973,128.732 
			221.089,123.163 220.721,122.704 220.753,123.388 220.753,123.388 220.753,123.388 		"></polygon>
		<polygon fill-rule="evenodd" clip-rule="evenodd" points="215.58,123.565 215.312,123.699 220.753,123.388 220.721,122.704 
			215.301,122.949 215.03,123.081 215.58,123.565 215.58,123.565 215.58,123.565 		"></polygon>
		<polygon fill-rule="evenodd" clip-rule="evenodd" points="214.986,124.114 214.908,124.236 215.58,123.565 215.03,123.081 
			214.358,123.755 214.281,123.877 214.986,124.114 214.986,124.114 214.986,124.114 		"></polygon>
		<polygon fill-rule="evenodd" clip-rule="evenodd" points="219.498,129.168 219.98,128.955 218.817,128.306 218.445,128.966 
			219.645,129.628 220.169,129.392 219.463,129.158 219.463,129.158 219.498,129.168 		"></polygon>
		<polygon fill-rule="evenodd" clip-rule="evenodd" points="221.772,124.027 221.582,123.589 219.463,129.158 220.169,129.392 
			222.288,123.824 222.097,123.388 221.772,124.027 221.772,124.027 		"></polygon>
		<polygon fill-rule="evenodd" clip-rule="evenodd" points="221.089,123.163 220.563,123.399 221.772,124.027 222.097,123.388 
			220.933,122.739 220.383,122.927 221.089,123.163 221.089,123.163 		"></polygon>
		<polygon points="214.649,124.001 214.616,123.99 215.289,123.318 220.332,123.072 220.383,122.927 220.754,123.051 
			221.089,123.163 221.066,123.224 221.951,123.713 222.288,123.824 222.15,124.187 224.616,130.055 222.531,135.634 
			219.834,129.28 219.834,129.28 219.487,129.425 219.463,129.158 219.491,129.09 218.641,128.62 218.445,128.966 218.34,128.633 
			213.17,128.887 212.499,129.558 		"></polygon>
		<polygon fill-rule="evenodd" clip-rule="evenodd" points="222.194,135.521 222.879,135.489 220.181,129.135 219.487,129.425 
			222.185,135.779 222.867,135.746 222.162,135.51 222.162,135.51 222.194,135.521 		"></polygon>
		<polygon fill-rule="evenodd" clip-rule="evenodd" points="224.303,130.213 224.279,129.942 222.162,135.51 222.867,135.746 
			224.986,130.179 224.964,129.911 224.303,130.213 224.303,130.213 		"></polygon>
		<polygon fill-rule="evenodd" clip-rule="evenodd" points="222.288,123.824 221.604,123.859 224.303,130.213 224.964,129.911 
			222.264,123.556 221.582,123.589 222.288,123.824 222.288,123.824 		"></polygon>
		<polygon fill-rule="evenodd" clip-rule="evenodd" fill="#FFFFFF" points="222.107,125.259 222.41,125.92 222.522,126.593 
			222.49,127.254 222.297,127.938 221.963,128.608 221.502,129.202 220.909,129.75 220.192,130.222 219.801,130.39 219.409,130.558 
			218.972,130.635 218.568,130.725 218.177,130.78 217.752,130.825 217.359,130.769 216.957,130.746 216.609,130.669 
			216.239,130.545 215.882,130.388 215.569,130.208 215.299,130.007 214.996,129.793 214.751,129.526 214.549,129.233 
			214.246,128.572 214.134,127.901 214.135,127.227 214.359,126.556 214.649,125.904 215.121,125.28 215.714,124.73 216.464,124.27 
			216.823,124.092 217.249,123.936 217.652,123.845 218.056,123.757 218.479,123.711 218.873,123.656 219.266,123.711 
			219.667,123.735 220.036,123.857 220.406,123.98 220.741,124.094 221.088,124.283 221.37,124.452 221.659,124.698 
			221.862,124.989 222.107,125.259 222.107,125.259 222.107,125.259 		"></polygon>
		<polygon fill-rule="evenodd" clip-rule="evenodd" points="222.376,126.357 222.681,127.019 222.779,127.725 222.747,128.386 
			222.565,129.036 222.264,129.719 221.759,130.333 221.21,130.861 220.461,131.319 220.059,131.521 219.666,131.689 
			219.264,131.778 218.826,131.856 218.435,131.913 218.056,131.936 217.65,131.913 217.224,131.846 216.876,131.766 
			216.508,131.643 216.184,131.497 215.836,131.307 215.557,131.14 215.298,130.903 215.041,130.668 214.817,130.332 
			214.504,129.704 214.392,129.031 214.437,128.336 214.615,127.688 214.918,127.005 215.379,126.41 215.972,125.861 
			216.72,125.402 217.124,125.201 217.506,125.067 217.92,124.943 218.357,124.865 218.737,124.843 219.129,124.788 
			219.522,124.843 219.925,124.865 220.307,124.955 220.675,125.078 221,125.225 221.359,125.382 221.627,125.584 221.929,125.796 
			222.13,126.09 222.366,126.39 222.366,126.39 222.376,126.357 		"></polygon>
		<polygon fill-rule="evenodd" clip-rule="evenodd" fill="#FFFFFF" points="222.565,127.13 222.881,127.758 222.98,128.464 
			222.946,129.125 222.768,129.774 222.432,130.446 221.961,131.073 221.413,131.599 220.663,132.06 220.293,132.271 
			219.868,132.429 219.463,132.517 219.027,132.596 218.636,132.651 218.255,132.674 217.851,132.651 217.426,132.584 
			217.079,132.506 216.709,132.384 216.385,132.237 216.038,132.047 215.757,131.877 215.466,131.63 215.255,131.375 
			215.019,131.071 214.705,130.444 214.593,129.771 214.626,129.111 214.817,128.427 215.119,127.743 215.591,127.116 
			216.205,126.612 216.924,126.142 217.326,125.94 217.719,125.771 218.121,125.683 218.559,125.606 218.949,125.549 
			219.33,125.525 219.768,125.56 220.127,125.606 220.507,125.696 220.876,125.817 221.235,125.975 221.55,126.155 221.828,126.323 
			222.131,126.537 222.332,126.828 222.565,127.13 222.565,127.13 		"></polygon>
		<polygon fill-rule="evenodd" clip-rule="evenodd" points="222.836,128.228 223.137,128.89 223.251,129.562 223.251,130.234 
			223.025,130.906 222.733,131.556 222.229,132.171 221.672,132.733 220.92,133.19 220.562,133.37 220.136,133.526 219.732,133.617 
			219.329,133.705 218.904,133.751 218.511,133.807 218.119,133.751 217.718,133.728 217.336,133.638 216.965,133.514 
			216.643,133.368 216.296,133.178 216.025,132.977 215.76,132.775 215.512,132.505 215.276,132.202 215.007,131.553 
			214.862,130.869 214.895,130.208 215.086,129.526 215.411,128.887 215.882,128.259 216.474,127.71 217.192,127.24 
			217.584,127.072 217.977,126.905 218.412,126.826 218.817,126.737 219.207,126.681 219.621,126.669 220.024,126.693 
			220.394,126.704 220.774,126.793 221.145,126.917 221.503,127.073 221.816,127.253 222.119,127.465 222.388,127.667 
			222.633,127.937 222.823,128.262 222.823,128.262 222.836,128.228 		"></polygon>
		<polygon fill-rule="evenodd" clip-rule="evenodd" fill="#FFFFFF" points="223.228,128.957 223.541,129.585 223.653,130.256 
			223.641,130.963 223.462,131.611 223.125,132.285 222.621,132.901 222.072,133.427 221.357,133.897 220.953,134.099 
			220.527,134.256 220.125,134.346 219.721,134.434 219.295,134.479 218.916,134.501 218.511,134.479 218.119,134.423 
			217.74,134.333 217.37,134.208 217.045,134.063 216.72,133.917 216.419,133.704 216.16,133.469 215.916,133.2 215.712,132.91 
			215.399,132.282 215.265,131.563 215.298,130.903 215.512,130.265 215.813,129.582 216.283,128.954 216.867,128.439 
			217.584,127.968 217.987,127.769 218.378,127.6 218.804,127.553 219.219,127.431 219.61,127.375 220.024,127.365 220.429,127.388 
			220.786,127.433 221.167,127.522 221.568,127.656 221.895,127.802 222.22,127.948 222.522,128.161 222.779,128.396 
			223.026,128.665 223.228,128.957 223.228,128.957 		"></polygon>
		<polygon fill-rule="evenodd" clip-rule="evenodd" points="223.531,130.066 223.796,130.715 223.944,131.4 223.909,132.061 
			223.721,132.743 223.394,133.382 222.924,134.008 222.33,134.558 221.613,135.029 221.222,135.197 220.795,135.354 
			220.394,135.443 219.99,135.533 219.598,135.587 219.172,135.633 218.781,135.578 218.377,135.553 218.03,135.476 
			217.627,135.341 217.302,135.195 216.989,135.015 216.687,134.803 216.419,134.601 216.172,134.332 215.97,134.04 
			215.667,133.379 215.522,132.697 215.557,132.035 215.78,131.362 216.072,130.711 216.542,130.085 217.135,129.538 
			217.885,129.077 218.245,128.899 218.67,128.743 219.074,128.652 219.476,128.562 219.902,128.519 220.294,128.463 
			220.686,128.519 221.054,128.531 221.47,128.631 221.838,128.754 222.164,128.9 222.478,129.079 222.779,129.291 223.047,129.494 
			223.294,129.763 223.531,130.066 223.531,130.066 223.531,130.066 		"></polygon>
		<polygon fill-rule="evenodd" clip-rule="evenodd" points="186.51,121.515 186.543,121.301 184.413,126.903 185.085,127.127 
			187.215,121.525 187.225,121.38 186.51,121.515 186.51,121.515 186.51,121.515 		"></polygon>
		<polygon fill-rule="evenodd" clip-rule="evenodd" points="186.454,121.234 186.464,121.201 186.51,121.515 187.225,121.38 
			187.148,121.056 187.16,121.022 186.454,121.234 186.454,121.234 186.454,121.234 		"></polygon>
		<polygon fill-rule="evenodd" clip-rule="evenodd" points="186.374,120.91 186.454,121.234 187.16,121.022 187.08,120.697 
			186.374,120.91 186.374,120.91 186.374,120.91 		"></polygon>
		<polygon fill-rule="evenodd" clip-rule="evenodd" points="186.286,120.618 186.374,120.91 187.08,120.697 186.991,120.406 
			186.286,120.618 186.286,120.618 		"></polygon>
		<polygon fill-rule="evenodd" clip-rule="evenodd" points="186.207,120.293 186.207,120.293 186.286,120.618 186.991,120.406 
			186.912,120.08 186.902,120.114 186.207,120.293 186.207,120.293 186.207,120.293 		"></polygon>
		<polygon fill-rule="evenodd" clip-rule="evenodd" points="186.118,119.889 186.118,120.002 186.207,120.293 186.902,120.114 
			186.812,119.821 186.846,119.946 186.118,119.889 186.118,119.889 		"></polygon>
		<polygon fill-rule="evenodd" clip-rule="evenodd" points="186.835,119.756 186.129,119.631 186.118,119.889 186.846,119.946 
			186.856,119.689 186.151,119.564 186.823,119.79 186.823,119.79 186.835,119.756 		"></polygon>
		<polygon fill-rule="evenodd" clip-rule="evenodd" fill="#4C4849" points="187.445,136.058 187.379,135.7 186.629,135.823 
			186.685,136.214 187.445,136.058 187.445,136.058 187.445,136.058 		"></polygon>
		<polygon fill-rule="evenodd" clip-rule="evenodd" points="189.004,131.387 189.026,131.207 186.91,136.775 187.58,137 
			189.699,131.432 189.688,131.242 189.004,131.387 189.004,131.387 189.004,131.387 		"></polygon>
		<polygon fill-rule="evenodd" clip-rule="evenodd" points="188.948,130.995 189.004,131.387 189.688,131.242 189.631,130.848 
			188.914,130.983 188.914,130.983 188.948,130.995 		"></polygon>
		<polygon fill-rule="evenodd" clip-rule="evenodd" points="188.848,130.624 188.914,130.983 189.631,130.848 189.531,130.479 
			188.848,130.624 188.848,130.624 188.848,130.624 		"></polygon>
		<polygon fill-rule="evenodd" clip-rule="evenodd" points="188.758,130.221 188.78,130.267 188.848,130.624 189.531,130.479 
			189.475,130.085 189.498,130.133 188.758,130.221 188.758,130.221 188.758,130.221 		"></polygon>
		<polygon fill-rule="evenodd" clip-rule="evenodd" points="189.43,129.885 188.714,129.794 188.758,130.221 189.498,130.133 
			189.441,129.74 188.724,129.65 189.43,129.885 189.43,129.885 		"></polygon>
		<g>
			<polygon fill="#4C4849" points="184.418,125.792 184.078,125.895 184.418,125.792 			"></polygon>
			<polygon fill="#4C4849" points="184.771,126.961 184.783,126.926 184.957,126.938 185.085,127.127 184.772,127.023 			"></polygon>
			<polygon points="183.999,125.57 184.357,125.502 184.37,125.245 186.498,119.644 186.487,119.677 186.487,119.901 
				186.544,120.181 186.655,120.519 186.744,120.808 186.822,121.134 186.879,121.413 186.879,121.413 187.215,121.525 
				185.085,127.127 184.957,126.938 184.783,126.926 184.771,126.961 184.772,127.023 185.085,127.127 184.774,127.108 
				184.783,127.362 184.565,127.095 184.391,127.082 184.346,126.769 184.476,126.741 184.613,126.381 184.257,126.477 
				184.156,126.219 184.078,125.895 184.418,125.792 184.418,125.792 184.078,125.895 184.09,125.861 			"></polygon>
		</g>
		<g>
			<polygon fill="none" points="201.334,127.1 201.334,127.1 201.638,126.417 			"></polygon>
			<polygon points="184.76,126.646 200.35,126.135 200.753,126.159 200.819,126.181 201.202,126.271 201.235,126.282 
				201.638,126.417 202.029,126.584 202.062,126.596 202.433,126.832 202.499,126.854 202.79,127.1 202.88,127.167 203.093,127.425 
				203.115,127.47 203.26,127.705 203.271,127.783 202.585,127.99 202.476,127.816 202.466,127.851 202.286,127.604 
				202.288,127.603 202.051,127.415 202.108,127.47 201.728,127.27 201.728,127.266 201.334,127.1 201.334,127.1 200.998,126.989 
				200.617,126.898 200.685,126.921 200.325,126.875 200.328,126.842 184.783,127.362 			"></polygon>
			<polygon points="202.567,127.997 202.585,127.99 202.622,128.053 			"></polygon>
		</g>
		<polygon fill-rule="evenodd" clip-rule="evenodd" points="210.896,141.085 210.896,140.862 208.767,146.463 209.472,146.699 
			211.603,141.098 211.602,140.874 210.896,141.085 210.896,141.085 210.896,141.085 		"></polygon>
		<polygon fill-rule="evenodd" clip-rule="evenodd" points="204.74,122.484 204.695,122.396 210.896,141.085 211.602,140.874 
			205.4,122.183 205.39,122.104 204.74,122.484 204.74,122.484 204.74,122.484 		"></polygon>
		<polygon fill-rule="evenodd" clip-rule="evenodd" points="204.617,122.295 204.597,122.249 204.74,122.484 205.39,122.104 
			205.244,121.868 205.211,121.857 204.583,122.284 204.583,122.284 204.617,122.295 		"></polygon>
		<polygon fill-rule="evenodd" clip-rule="evenodd" points="204.472,122.059 204.415,122.004 204.583,122.284 205.211,121.857 
			204.976,121.555 204.918,121.499 204.472,122.059 204.472,122.059 204.472,122.059 		"></polygon>
		<polygon fill-rule="evenodd" clip-rule="evenodd" points="204.225,121.902 204.168,121.847 204.472,122.059 204.918,121.499 
			204.617,121.286 204.562,121.23 204.225,121.902 204.225,121.902 		"></polygon>
		<polygon fill-rule="evenodd" clip-rule="evenodd" points="203.889,121.678 203.856,121.667 204.225,121.902 204.562,121.23 
			204.181,121.029 204.147,121.017 203.889,121.678 203.889,121.678 		"></polygon>
		<polygon fill-rule="evenodd" clip-rule="evenodd" points="203.531,121.521 203.453,121.532 203.889,121.678 204.147,121.017 
			203.754,120.849 203.721,120.837 203.486,121.543 203.486,121.543 203.531,121.521 		"></polygon>
		<polygon fill-rule="evenodd" clip-rule="evenodd" points="203.128,121.387 203.083,121.408 203.486,121.543 203.721,120.837 
			203.318,120.703 203.318,120.703 203.116,121.419 203.116,121.419 203.128,121.387 		"></polygon>
		<polygon fill-rule="evenodd" clip-rule="evenodd" points="202.814,121.319 202.748,121.298 203.116,121.419 203.318,120.703 
			202.903,120.603 202.87,120.591 202.814,121.319 202.814,121.319 202.814,121.319 		"></polygon>
		<polygon fill-rule="evenodd" clip-rule="evenodd" points="202.455,121.274 202.444,121.307 202.814,121.319 202.87,120.591 
			202.478,120.534 202.433,120.557 202.455,121.274 202.455,121.274 		"></polygon>
		<polygon fill-rule="evenodd" clip-rule="evenodd" points="187.249,121.537 186.868,121.782 202.455,121.274 202.433,120.557 
			186.879,121.078 186.543,121.301 187.215,121.525 187.215,121.525 187.249,121.537 		"></polygon>
		<polygon fill="#4C4849" points="191.164,138.567 191.109,138.541 191.143,138.524 		"></polygon>
		<g>
			<polygon fill="#4C4849" points="199.583,141.089 199.519,141.843 199.583,141.089 			"></polygon>
			<g>
				<polygon fill="none" points="199.554,141.449 199.519,141.843 199.554,141.449 				"></polygon>
				<g>
					<polygon fill="none" points="186.921,135.385 186.942,135.332 186.957,135.403 					"></polygon>
					<path d="M186.685,136.214l0.067,0.358l0.135,0.381l0.168,0.28l0.953,0.504l0.95,0.506l0.918,0.493l0.93,0.458l0.033,0.012
						l0.941,0.426l0.939,0.426l1.02,0.415l1.03,0.381l0.034,0.012l1.098,0.292l1.098,0.291l0.032,0.011l1.21,0.179l1.243,0.192
						l0.034,0.011l1.354,0.08l0.046-0.023l1.444,0.035l1.546-0.044l1.635-0.088l0.337-0.225l2.116-5.567l-0.358-0.494l0.021,0.718
						l-0.11-0.14l0.079-0.207l-0.234,0.012l-0.103-0.125l-0.05,0.136l-1.214,0.075h-1.568l-1.446-0.034l-1.32-0.067l-1.286-0.169
						l-1.198-0.212l-1.1-0.292l-1.098-0.292l-1.029-0.381l-0.997-0.372l-0.94-0.425l-0.931-0.461l-0.962-0.47l-0.917-0.492
						l-0.918-0.495l-0.638-0.336l0.021-0.055l-0.336-0.113l0,0l-0.09-0.402l-0.066-0.359l-0.027-0.123l0.25-0.549l-0.353-0.117
						l-0.017-0.007l0,0l-0.337-0.111l-2.116,5.567l-0.023,0.179l0.057,0.393L186.685,136.214z M186.942,135.332l0.015,0.071
						l-0.036-0.018L186.942,135.332z"></path>
				</g>
			</g>
		</g>
		<polygon fill-rule="evenodd" clip-rule="evenodd" points="206.025,136.323 207.658,136.234 207.638,135.516 206.003,135.605 
			206.025,136.323 206.025,136.323 206.025,136.323 		"></polygon>
		<polygon fill-rule="evenodd" clip-rule="evenodd" points="204.48,136.366 206.025,136.323 206.003,135.605 204.458,135.65 
			204.48,136.366 204.48,136.366 204.48,136.366 		"></polygon>
		<polygon fill-rule="evenodd" clip-rule="evenodd" points="203.001,136.321 203.035,136.332 204.48,136.366 204.458,135.65 
			203.014,135.616 203.059,135.593 202.99,136.355 202.99,136.355 203.001,136.321 		"></polygon>
		<polygon fill-rule="evenodd" clip-rule="evenodd" points="201.612,136.232 201.647,136.243 202.99,136.355 203.059,135.593 
			201.702,135.514 201.735,135.526 201.612,136.232 201.612,136.232 201.612,136.232 		"></polygon>
		<polygon fill-rule="evenodd" clip-rule="evenodd" points="200.357,136.073 201.612,136.232 201.735,135.526 200.493,135.334 
			200.357,136.073 200.357,136.073 		"></polygon>
		<polygon fill-rule="evenodd" clip-rule="evenodd" points="199.127,135.849 199.16,135.86 200.357,136.073 200.493,135.334 
			199.251,135.144 199.283,135.155 199.127,135.849 199.127,135.849 199.127,135.849 		"></polygon>
		<polygon fill-rule="evenodd" clip-rule="evenodd" points="198.03,135.557 199.127,135.849 199.283,135.155 198.187,134.863 
			198.019,135.591 198.019,135.591 198.03,135.557 		"></polygon>
		<polygon fill-rule="evenodd" clip-rule="evenodd" points="196.888,135.288 196.921,135.299 198.019,135.591 198.187,134.863 
			197.089,134.571 197.123,134.582 196.888,135.288 196.888,135.288 		"></polygon>
		<polygon fill-rule="evenodd" clip-rule="evenodd" points="195.855,134.907 195.855,134.907 196.888,135.288 197.123,134.582 
			196.093,134.201 196.127,134.211 195.824,134.896 195.824,134.896 195.855,134.907 		"></polygon>
		<polygon fill-rule="evenodd" clip-rule="evenodd" points="194.838,134.491 195.824,134.896 196.127,134.211 195.141,133.808 
			194.838,134.491 194.838,134.491 		"></polygon>
		<polygon fill-rule="evenodd" clip-rule="evenodd" points="193.897,134.065 194.838,134.491 195.141,133.808 194.188,133.416 
			193.897,134.065 193.897,134.065 		"></polygon>
		<polygon fill-rule="evenodd" clip-rule="evenodd" points="192.935,133.594 192.956,133.641 193.897,134.065 194.188,133.416 
			193.226,132.945 193.26,132.957 192.924,133.629 192.924,133.629 192.935,133.594 		"></polygon>
		<polygon fill-rule="evenodd" clip-rule="evenodd" points="192.004,133.134 192.924,133.629 193.26,132.957 192.33,132.497 
			191.994,133.168 191.994,133.168 192.004,133.134 		"></polygon>
		<polygon fill-rule="evenodd" clip-rule="evenodd" points="191.086,132.643 191.994,133.168 192.33,132.497 191.412,132.004 
			191.053,132.631 191.053,132.631 191.086,132.643 		"></polygon>
		<polygon fill-rule="evenodd" clip-rule="evenodd" points="190.135,132.137 191.053,132.631 191.412,132.004 190.493,131.509 
			190.135,132.137 190.135,132.137 		"></polygon>
		<polygon fill-rule="evenodd" clip-rule="evenodd" points="189.699,131.432 189.184,131.632 190.135,132.137 190.493,131.509 
			189.542,131.006 189.026,131.207 189.699,131.432 189.699,131.432 189.699,131.432 		"></polygon>
		<polygon fill-rule="evenodd" clip-rule="evenodd" points="286.771,121.34 284.64,126.941 291.593,129.264 293.208,125.543 
			293.254,125.186 293.264,124.814 293.208,124.422 293.073,124.042 292.85,123.705 292.67,123.346 292.38,122.989 292.077,122.663 
			291.764,122.372 291.417,122.069 291.059,121.8 290.711,121.608 290.376,121.386 289.983,121.218 289.636,121.027 289.3,120.914 
			288.999,120.814 288.638,120.768 288.314,120.735 288.001,120.78 287.687,120.824 287.353,120.937 287.061,121.138 
			286.771,121.34 286.771,121.34 286.771,121.34 		"></polygon>
		<polygon fill-rule="evenodd" clip-rule="evenodd" points="291.28,129.083 291.717,128.893 284.764,126.572 284.527,127.277 
			291.483,129.598 291.953,129.42 291.28,129.083 291.28,129.083 		"></polygon>
		<g>
			<polygon fill="none" points="292.623,130.699 292.668,131.078 292.623,130.699 			"></polygon>
			<polygon fill="none" points="296.21,126.946 296.466,127.191 296.188,126.996 			"></polygon>
			<g>
				<polygon fill="none" points="296.466,127.191 296.188,126.996 296.21,126.946 				"></polygon>
				<g>
					<polygon fill="none" points="296.466,127.191 296.188,126.996 296.21,126.946 					"></polygon>
					<polygon points="183.999,125.233 184.032,125.132 186.151,119.564 186.823,119.79 184.77,125.288 184.727,125.514 
						184.718,125.435 183.999,125.57 183.989,125.491 					"></polygon>
					<g>
						<polygon fill="none" points="296.466,127.191 296.188,126.996 296.21,126.946 						"></polygon>
						<polygon fill="#4C4849" points="218.097,138.411 217.972,138.487 217.963,138.478 						"></polygon>
						<g>
							<polygon fill="none" points="218.234,138.739 218.499,138.994 218.234,138.739 							"></polygon>
							<polygon fill="none" points="296.466,127.191 296.188,126.996 296.21,126.946 							"></polygon>
							<polygon fill="none" points="209.103,146.575 209.125,146.575 209.125,146.583 208.767,146.463 209.066,146.469 							"></polygon>
							<path d="M184.257,126.477l0.079,0.325l0.01-0.033l0.542-0.116l-0.138,0.361l15.587-0.508l0.37,0.012l0.404,0.134l0.403,0.134
								l0.402,0.136l0.368,0.234l0.303,0.212l0.214,0.257l0.13,0.261l-0.364,0.111l6.199,18.69l0.362,0.006l0.008,0.23h0.559
								l0.527-0.012l0.481,0.012l0.438-0.079l0.446-0.112l0.45-0.223l0.413-0.349l0.491-0.471l0.013-0.033l0.28-0.391l0.324-0.415
								l0.37-0.438l0.258-0.437l0.323-0.525l0.337-0.449l0.28-0.504l0.359-0.515l0.29-0.424l0.415-0.461l0.336-0.447l0.394-0.393
								l0.346-0.369l0.369-0.324l0.359-0.291l0.413-0.236l0.09-0.044l-0.265-0.255l0,0l0.265,0.255l0.415-0.461l0.381-0.357
								l0.336-0.336l0.359-0.291l0.347-0.258l0.368-0.213l0.325-0.189l0.358-0.179l0.404-0.09l0.392-0.168l0.403-0.09l0.47-0.067
								l0.516-0.089l0.569-0.033l0.618-0.056l0.604-0.021l0.034,0.01l67.27-5.028l0.394-0.055l0.357-0.069l0.324-0.077l0.336-0.112
								l0.314-0.156l0.324-0.191l0.27-0.247l0.313-0.268l0.068-0.09l1.175-2.743l-0.613-0.393l0.271,0.262l-0.044,0.036
								l-0.296-0.209l-0.295,0.687l-0.198,0.119l-0.259,0.101l-0.302,0.125l-0.281,0.055l-0.357,0.068l-0.356,0.066l-67.305,5.017
								l-0.427,0.044l-0.414,0.012l-0.414,0.011l-0.437,0.078h-0.45l-0.391,0.056l-0.426,0.046l-0.392,0.056l-0.437,0.078
								l-0.392,0.055l-0.402,0.089l-0.447,0.112l-0.404,0.091l-0.427,0.155l-0.425,0.157l-0.403,0.202l-0.795,0.482l-0.808,0.737
								l-0.85,0.875l-0.819,0.997l-0.795,1.042l-0.683,0.93l-0.672,0.895l-0.561,0.672l-0.325,0.078l-0.279,0.057l-0.348,0.034
								h-0.336h-0.336l-0.292-0.021l-0.369-0.013l-0.325-0.034l-6.177-18.646l-0.136-0.269l-0.211-0.258l-0.302-0.214L204,121.341
								l-0.391-0.167l-0.403-0.135l-0.381-0.091l-0.37-0.009l-15.576,0.475l-1.872,4.928l-0.011-0.065L184.257,126.477z
								 M296.188,126.996l0.021-0.05l0.256,0.245L296.188,126.996z"></path>
						</g>
					</g>
				</g>
			</g>
		</g>
		<polygon fill-rule="evenodd" clip-rule="evenodd" points="293.834,128.367 294.236,128.278 294.596,128.211 294.921,128.132 
			295.258,128.02 295.57,127.864 295.896,127.672 296.151,127.461 296.466,127.191 295.931,126.676 295.693,126.934 
			295.447,127.113 295.211,127.258 294.954,127.359 294.707,127.427 294.417,127.515 294.104,127.561 293.756,127.595 
			293.834,128.367 293.834,128.367 		"></polygon>
		<polygon fill-rule="evenodd" clip-rule="evenodd" points="226.574,133.362 293.834,128.367 293.756,127.595 226.487,132.622 
			226.574,133.362 226.574,133.362 		"></polygon>
		<polygon fill-rule="evenodd" clip-rule="evenodd" points="219.979,134.557 220.37,134.39 220.752,134.256 221.21,134.109 
			221.591,133.975 222.005,133.852 222.396,133.797 222.789,133.741 223.226,133.663 223.585,133.594 223.999,133.584 
			224.426,133.539 224.851,133.495 225.275,133.45 225.656,133.429 226.116,133.394 226.574,133.362 226.487,132.622 
			226.06,132.666 225.635,132.711 225.187,132.711 224.761,132.755 224.347,132.767 223.944,132.857 223.529,132.868 
			223.068,132.901 222.666,132.991 222.262,133.079 221.827,133.158 221.378,133.271 220.998,133.403 220.54,133.55 220.08,133.694 
			219.678,133.896 219.979,134.557 219.979,134.557 219.979,134.557 		"></polygon>
		<polygon fill-rule="evenodd" clip-rule="evenodd" points="213.952,141.21 214.098,141.109 214.401,140.763 214.67,140.404 
			214.993,139.99 215.33,139.541 215.712,139.072 216.059,138.588 216.451,138.084 216.842,137.581 217.246,137.043 217.66,136.584 
			218.063,136.158 218.478,135.7 218.825,135.33 219.264,135.028 219.619,134.736 219.979,134.557 219.678,133.896 219.218,134.154 
			218.825,134.434 218.366,134.803 217.93,135.217 217.526,135.644 217.123,136.069 216.676,136.628 216.283,137.133 
			215.89,137.636 215.498,138.141 215.151,138.622 214.77,139.092 214.435,139.541 214.108,139.956 213.841,140.315 
			213.594,140.606 213.729,140.538 213.952,141.21 213.952,141.21 213.952,141.21 		"></polygon>
		<polygon fill="none" points="286.624,121.665 286.771,121.34 287.038,121.093 287.441,120.891 287.912,120.824 288.168,120.836 
			288.461,120.858 288.74,120.914 289.02,120.97 289.356,121.082 289.659,121.183 289.984,121.329 290.331,121.52 290.621,121.654 
			290.925,121.867 291.192,122.069 291.484,122.315 291.787,122.528 291.999,122.787 292.257,123.022 292.47,123.28 
			292.861,123.785 293.062,124.3 293.163,124.558 293.219,124.726 293.188,125.162 293.106,125.509 292.86,125.801 292.501,125.979 
			292.021,126.08 291.752,126.104 291.472,126.046 291.148,126.014 290.801,125.935 290.497,125.833 290.162,125.721 
			289.804,125.566 289.49,125.384 289.165,125.239 288.816,125.049 288.514,124.837 288.225,124.589 287.956,124.388 
			287.677,124.107 287.43,123.837 287.217,123.581 286.871,123.054 286.669,122.539 286.613,122.37 286.558,122.09 		"></polygon>
		<polygon fill-rule="evenodd" clip-rule="evenodd" fill="#FFFFFF" points="201.066,120.961 202.455,120.938 202.568,120.938 
			190.643,116.957 190.038,117.315 201.056,120.994 201.056,120.994 201.066,120.961 		"></polygon>
		<polygon fill-rule="evenodd" clip-rule="evenodd" fill="#FFFFFF" points="201.066,120.961 186.879,121.413 186.822,121.134 
			186.744,120.808 186.655,120.519 186.544,120.181 186.487,119.901 186.487,119.677 186.576,119.409 186.823,119.229 
			187.405,118.827 188.055,118.445 188.704,118.064 189.354,117.684 189.971,117.292 190.038,117.315 201.056,120.994 
			201.056,120.994 201.066,120.961 		"></polygon>
		<polygon fill="#FFFFFF" points="192.442,129.584 202.107,129.039 205.892,130.564 207.224,134.52 207.627,135.887 
			206.026,135.986 204.458,135.986 203.012,135.952 201.691,135.884 200.405,135.715 199.207,135.503 198.107,135.211 
			197.01,134.919 195.98,134.538 194.983,134.166 194.043,133.741 193.112,133.28 192.15,132.81 191.233,132.318 190.315,131.823 
			189.363,131.318 189.273,130.916 189.207,130.557 189.117,130.155 189.061,129.761 		"></polygon>
		<polygon fill-rule="evenodd" clip-rule="evenodd" fill="#FFFFFF" points="216.788,130.69 216.924,130.848 218.166,131.599 
			218.568,130.949 217.324,130.199 217.447,130.389 216.788,130.69 216.833,130.78 216.924,130.848 216.788,130.69 216.788,130.69 
					"></polygon>
		<polygon fill-rule="evenodd" clip-rule="evenodd" fill="#FFFFFF" points="205.734,130.922 205.521,130.664 207.29,135.998 
			207.996,135.786 206.229,130.451 206.038,130.239 206.229,130.451 206.173,130.284 206.038,130.239 205.734,130.922 
			205.734,130.922 205.734,130.922 		"></polygon>
		<polygon fill-rule="evenodd" clip-rule="evenodd" fill="#FFFFFF" points="202.142,129.387 201.962,129.365 205.734,130.922 
			206.038,130.239 202.266,128.68 202.118,128.669 202.266,128.68 202.197,128.658 202.118,128.669 202.142,129.387 
			202.142,129.387 202.142,129.387 		"></polygon>
		<polygon fill-rule="evenodd" clip-rule="evenodd" fill="#FFFFFF" points="189.441,129.74 189.083,130.143 202.142,129.387 
			202.118,128.669 189.062,129.425 188.714,129.794 189.062,129.425 188.646,129.436 188.714,129.794 189.441,129.74 
			189.441,129.74 		"></polygon>
		<polygon fill-rule="evenodd" clip-rule="evenodd" fill="#FFFFFF" points="189.542,131.006 189.688,131.242 189.677,131.051 
			189.631,130.848 189.62,130.658 189.564,130.49 189.554,130.3 189.508,130.098 189.452,129.929 189.441,129.74 188.714,129.794 
			188.713,130.02 188.746,130.255 188.803,130.422 188.813,130.613 188.87,130.78 188.914,130.983 188.994,131.195 189.004,131.387 
			189.184,131.632 189.004,131.387 189.061,131.555 189.184,131.632 189.542,131.006 189.542,131.006 		"></polygon>
		<polygon fill-rule="evenodd" clip-rule="evenodd" fill="#FFFFFF" points="207.303,135.964 207.604,135.505 206.003,135.605 
			204.458,135.65 203.059,135.593 201.702,135.514 200.493,135.334 199.283,135.155 198.187,134.863 197.123,134.582 
			196.093,134.201 195.141,133.808 194.188,133.416 193.26,132.957 192.33,132.497 191.412,132.004 190.493,131.509 
			189.542,131.006 189.184,131.632 190.135,132.137 191.053,132.631 191.994,133.168 192.924,133.629 193.897,134.065 
			194.838,134.491 195.855,134.907 196.888,135.288 198.019,135.591 199.127,135.849 200.357,136.073 201.647,136.243 
			202.99,136.355 204.48,136.366 206.025,136.323 207.692,136.245 207.996,135.786 207.692,136.245 208.154,136.211 
			207.996,135.786 207.29,135.998 207.29,135.998 207.303,135.964 		"></polygon>
		<g>
			<polygon fill="none" points="214.058,140.699 214.333,140.964 214.058,140.699 			"></polygon>
			<polygon fill="none" points="211.578,140.606 211.515,140.609 211.515,140.609 			"></polygon>
			<polygon fill="none" points="205.499,122.478 215.3,125.75 205.499,122.478 			"></polygon>
		</g>
		<polygon fill-rule="evenodd" clip-rule="evenodd" fill="#FFFFFF" points="226.487,132.622 225.994,132.644 225.443,132.722 
			224.952,132.744 224.414,132.789 223.898,132.879 223.35,132.957 222.802,133.035 222.274,133.158 221.746,133.28 221.29,133.427 
			220.786,133.594 220.314,133.773 219.912,133.975 219.43,134.188 219.039,134.468 218.68,134.759 219.128,135.319 
			219.474,135.062 219.811,134.837 220.181,134.625 220.604,134.468 221.021,134.232 221.468,134.121 221.994,134 222.455,133.852 
			222.958,133.797 223.406,133.686 223.944,133.641 224.459,133.551 225.007,133.472 225.545,133.428 226.049,133.374 
			226.574,133.362 226.487,132.622 226.487,132.622 226.487,132.622 		"></polygon>
		<polygon fill-rule="evenodd" clip-rule="evenodd" fill="#FFFFFF" points="293.756,127.595 226.487,132.622 226.574,133.362 
			293.834,128.367 293.756,127.595 293.756,127.595 		"></polygon>
		<polygon fill-rule="evenodd" clip-rule="evenodd" fill="#FFFFFF" points="295.011,123.493 295.291,123.885 295.582,124.245 
			295.717,124.625 295.93,124.996 296.041,125.333 296.074,125.679 296.086,125.982 296.063,126.271 295.984,126.508 
			295.872,126.732 295.728,126.945 295.469,127.157 295.2,127.293 294.774,127.448 294.328,127.561 293.756,127.595 
			293.834,128.367 294.451,128.312 294.987,128.154 295.458,127.976 295.872,127.74 296.253,127.494 296.521,127.136 
			296.667,126.81 296.802,126.408 296.79,125.992 296.814,125.59 296.725,125.186 296.578,124.728 296.409,124.335 296.186,123.885 
			295.896,123.417 295.604,123.057 295.011,123.493 295.011,123.493 		"></polygon>
		<polygon fill-rule="evenodd" clip-rule="evenodd" fill="#FFFFFF" points="286.993,119.66 287.599,119.638 288.215,119.694 
			288.841,119.829 289.446,119.918 290.018,120.108 290.588,120.299 291.137,120.557 291.651,120.805 292.189,121.095 
			292.683,121.409 293.209,121.733 293.591,122.048 293.99,122.405 294.385,122.799 294.709,123.168 295.011,123.493 
			295.604,123.057 295.258,122.642 294.865,122.25 294.474,121.857 294.037,121.487 293.556,121.142 293.074,120.793 
			292.583,120.478 292.022,120.142 291.441,119.874 290.846,119.638 290.24,119.436 289.604,119.223 288.977,119.088 
			288.338,118.987 287.608,118.931 286.97,118.941 286.993,119.66 286.993,119.66 		"></polygon>
		<polygon fill-rule="evenodd" clip-rule="evenodd" fill="#FFFFFF" points="227.473,121.709 286.993,119.66 286.97,118.941 
			227.484,121.003 227.473,121.709 227.473,121.709 		"></polygon>
		<polygon fill-rule="evenodd" clip-rule="evenodd" fill="#FFFFFF" points="218.076,120.215 218.638,120.441 219.231,120.563 
			219.803,120.753 220.396,120.876 221.021,121.013 221.604,121.17 222.244,121.27 222.814,121.349 223.409,121.474 
			224.023,121.529 224.628,121.618 225.223,121.63 225.794,121.708 226.398,121.687 226.946,121.72 227.473,121.709 
			227.484,121.003 226.924,121.003 226.376,120.97 225.86,120.947 225.278,120.902 224.696,120.857 224.114,120.811 
			223.544,120.733 222.938,120.644 222.346,120.52 221.774,120.441 221.191,120.284 220.586,120.194 220.004,120.037 
			219.388,119.869 218.873,119.734 218.301,119.544 218.067,120.25 218.067,120.25 218.076,120.215 		"></polygon>
		<polygon fill-rule="evenodd" clip-rule="evenodd" fill="#FFFFFF" points="198,114.708 199.02,114.561 199.98,114.472 
			200.9,114.405 201.741,114.349 202.536,114.316 203.253,114.406 203.992,114.429 204.607,114.485 205.246,114.587 205.84,114.711 
			206.398,114.822 206.904,114.99 207.44,115.17 207.865,115.35 208.392,115.562 208.807,115.775 209.288,116.011 209.771,116.247 
			210.24,116.516 210.711,116.784 211.181,117.054 211.673,117.368 212.156,117.604 212.681,117.928 213.264,118.197 
			213.823,118.534 214.45,118.779 215.055,119.093 215.737,119.397 216.477,119.644 217.261,119.979 218.067,120.25 
			218.301,119.544 217.496,119.274 216.7,118.971 216.039,118.714 215.347,118.444 214.708,118.119 214.159,117.861 
			213.599,117.524 213.051,117.267 212.512,116.976 212.009,116.695 211.538,116.428 211.047,116.112 210.576,115.843 
			210.094,115.609 209.612,115.372 209.176,115.114 208.694,114.88 208.169,114.665 207.675,114.464 207.138,114.285 
			206.566,114.093 205.974,113.971 205.369,113.88 204.707,113.735 204.025,113.656 203.319,113.644 202.501,113.633 
			201.719,113.632 200.811,113.666 199.893,113.733 198.919,113.855 197.91,113.968 197.967,114.695 197.967,114.695 198,114.708 		
			"></polygon>
		<polygon fill-rule="evenodd" clip-rule="evenodd" fill="#FFFFFF" points="187.013,119.554 187.596,119.15 188.245,118.771 
			188.896,118.39 189.556,117.976 190.16,117.617 190.843,117.248 191.482,116.901 192.143,116.599 192.849,116.273 
			193.555,115.949 194.248,115.658 194.965,115.411 195.739,115.222 196.442,115.008 197.216,114.818 197.967,114.695 
			197.91,113.968 197.07,114.136 196.276,114.28 195.491,114.503 194.752,114.706 194.014,115.02 193.252,115.288 192.558,115.579 
			191.85,115.904 191.136,116.261 190.452,116.63 189.813,116.978 189.164,117.358 188.513,117.739 187.864,118.119 
			187.249,118.513 186.633,118.904 186.979,119.542 186.979,119.542 187.013,119.554 		"></polygon>
		<polygon fill-rule="evenodd" clip-rule="evenodd" fill="#FFFFFF" points="186.879,121.078 187.259,121.392 187.148,121.056 
			187.08,120.697 186.991,120.406 186.912,120.08 186.868,119.879 186.835,119.756 186.89,119.588 186.979,119.542 186.633,118.904 
			186.308,119.207 186.139,119.599 186.095,119.958 186.207,120.293 186.286,120.618 186.374,120.91 186.464,121.201 
			186.52,121.481 186.868,121.782 186.52,121.481 186.53,121.782 186.868,121.782 186.879,121.078 186.879,121.078 		"></polygon>
		<g>
			<polygon fill="none" points="214.358,123.755 214.362,123.757 214.27,124.136 			"></polygon>
			<polygon fill="#FFFFFF" points="214.371,123.722 214.362,123.757 214.358,123.755 			"></polygon>
			<polygon fill="#FFFFFF" points="214.202,123.889 214.358,123.755 214.27,124.136 			"></polygon>
			<g>
				<polygon fill="none" points="286.771,121.34 287.038,121.093 287.441,120.891 287.912,120.824 288.168,120.836 288.461,120.858 
					288.74,120.914 289.02,120.97 289.356,121.082 289.659,121.183 289.984,121.329 290.331,121.52 290.621,121.654 
					290.925,121.867 291.192,122.069 291.484,122.315 291.787,122.528 291.999,122.787 292.257,123.022 292.47,123.28 
					292.861,123.785 293.062,124.3 293.163,124.558 293.219,124.726 293.188,125.162 293.106,125.509 292.86,125.801 
					292.501,125.979 292.021,126.08 291.752,126.104 291.472,126.046 291.148,126.014 290.801,125.935 290.497,125.833 
					290.162,125.721 289.804,125.566 289.49,125.384 289.165,125.239 288.816,125.049 288.514,124.837 288.225,124.589 
					287.956,124.388 287.677,124.107 287.43,123.837 287.217,123.581 286.871,123.054 286.669,122.539 286.613,122.37 
					286.558,122.09 286.624,121.665 				"></polygon>
				<polygon fill="none" points="221.938,123.705 221.938,123.705 221.604,123.859 				"></polygon>
				<polygon fill="none" points="224.358,129.82 224.597,130.01 224.616,130.055 223.978,130.85 218.354,131.251 217.135,130.547 
					217.131,130.534 217.447,130.389 215.057,124.087 215.454,123.692 220.563,123.399 221.648,123.962 224.303,130.213 				"></polygon>
				<polygon fill="none" points="205.174,121.808 205.174,121.808 214.582,124.949 				"></polygon>
				<g>
					<polygon fill="none" points="286.771,121.34 287.038,121.093 287.441,120.891 287.912,120.824 288.168,120.836 
						288.461,120.858 288.74,120.914 289.02,120.97 289.356,121.082 289.659,121.183 289.984,121.329 290.331,121.52 
						290.621,121.654 290.925,121.867 291.192,122.069 291.484,122.315 291.787,122.528 291.999,122.787 292.257,123.022 
						292.47,123.28 292.861,123.785 293.062,124.3 293.163,124.558 293.219,124.726 293.188,125.162 293.106,125.509 
						292.86,125.801 292.501,125.979 292.021,126.08 291.752,126.104 291.472,126.046 291.148,126.014 290.801,125.935 
						290.497,125.833 290.162,125.721 289.804,125.566 289.49,125.384 289.165,125.239 288.816,125.049 288.514,124.837 
						288.225,124.589 287.956,124.388 287.677,124.107 287.43,123.837 287.217,123.581 286.871,123.054 286.669,122.539 
						286.613,122.37 286.558,122.09 286.624,121.665 					"></polygon>
					<polygon fill="none" points="220.563,123.399 221.648,123.962 224.303,130.213 224.358,129.82 224.597,130.01 224.616,130.055 
						223.978,130.85 218.354,131.251 217.135,130.547 217.131,130.534 217.447,130.389 215.057,124.087 215.454,123.692 					"></polygon>
					<polygon fill="none" points="205.174,121.808 205.174,121.808 214.582,124.949 					"></polygon>
					<g>
						<polygon fill="none" points="286.771,121.34 287.038,121.093 287.441,120.891 287.912,120.824 288.168,120.836 
							288.461,120.858 288.74,120.914 289.02,120.97 289.356,121.082 289.659,121.183 289.984,121.329 290.331,121.52 
							290.621,121.654 290.925,121.867 291.192,122.069 291.484,122.315 291.787,122.528 291.999,122.787 292.257,123.022 
							292.47,123.28 292.861,123.785 293.062,124.3 293.163,124.558 293.219,124.726 293.188,125.162 293.106,125.509 
							292.86,125.801 292.501,125.979 292.021,126.08 291.752,126.104 291.472,126.046 291.148,126.014 290.801,125.935 
							290.497,125.833 290.162,125.721 289.804,125.566 289.49,125.384 289.165,125.239 288.816,125.049 288.514,124.837 
							288.225,124.589 287.956,124.388 287.677,124.107 287.43,123.837 287.217,123.581 286.871,123.054 286.669,122.539 
							286.613,122.37 286.558,122.09 286.624,121.665 						"></polygon>
						<polygon fill="none" points="220.563,123.399 221.648,123.962 224.303,130.213 224.358,129.82 224.597,130.01 
							224.616,130.055 223.984,130.842 223.944,130.503 218.322,130.904 218.568,130.949 218.381,131.249 218.354,131.251 
							217.135,130.547 217.131,130.534 217.447,130.389 215.057,124.087 215.454,123.692 						"></polygon>
						<polygon fill="none" points="205.174,121.808 205.174,121.808 214.582,124.949 						"></polygon>
						<g>
							<polygon fill="none" points="224.501,128.822 235.153,132.377 224.501,128.822 							"></polygon>
							<polygon fill="none" points="224.224,128.169 236.497,132.267 224.224,128.169 							"></polygon>
							<polygon fill="none" points="286.771,121.34 287.038,121.093 287.441,120.891 287.912,120.824 288.168,120.836 
								288.461,120.858 288.74,120.914 289.02,120.97 289.356,121.082 289.659,121.183 289.984,121.329 290.331,121.52 
								290.621,121.654 290.925,121.867 291.192,122.069 291.484,122.315 291.787,122.528 291.999,122.787 292.257,123.022 
								292.47,123.28 292.861,123.785 293.062,124.3 293.163,124.558 293.219,124.726 293.188,125.162 293.106,125.509 
								292.86,125.801 292.501,125.979 292.021,126.08 291.752,126.104 291.472,126.046 291.148,126.014 290.801,125.935 
								290.497,125.833 290.162,125.721 289.804,125.566 289.49,125.384 289.165,125.239 288.816,125.049 288.514,124.837 
								288.225,124.589 287.956,124.388 287.677,124.107 287.43,123.837 287.217,123.581 286.871,123.054 286.669,122.539 
								286.613,122.37 286.558,122.09 286.624,121.665 							"></polygon>
							<polygon fill="none" points="220.563,123.399 221.648,123.962 224.303,130.213 224.358,129.82 224.597,130.01 
								224.616,130.055 223.984,130.842 223.978,130.85 218.381,131.249 218.354,131.251 217.135,130.547 217.131,130.534 
								217.447,130.389 215.057,124.087 215.454,123.692 							"></polygon>
							<polygon fill="none" points="205.174,121.808 205.174,121.808 214.582,124.949 							"></polygon>
							<polygon fill="#FFFFFF" points="224.224,128.169 236.497,132.267 235.165,132.346 235.153,132.377 224.501,128.822 							
								"></polygon>
							<g>
								<polygon fill="none" points="286.771,121.34 287.038,121.093 287.441,120.891 287.912,120.824 288.168,120.836 
									288.461,120.858 288.74,120.914 289.02,120.97 289.356,121.082 289.659,121.183 289.984,121.329 290.331,121.52 
									290.621,121.654 290.925,121.867 291.192,122.069 291.484,122.315 291.787,122.528 291.999,122.787 292.257,123.022 
									292.47,123.28 292.861,123.785 293.062,124.3 293.163,124.558 293.219,124.726 293.188,125.162 293.106,125.509 
									292.86,125.801 292.501,125.979 292.021,126.08 291.752,126.104 291.472,126.046 291.148,126.014 290.801,125.935 
									290.497,125.833 290.162,125.721 289.804,125.566 289.49,125.384 289.165,125.239 288.816,125.049 288.514,124.837 
									288.225,124.589 287.956,124.388 287.677,124.107 287.43,123.837 287.217,123.581 286.871,123.054 286.669,122.539 
									286.613,122.37 286.558,122.09 286.624,121.665 								"></polygon>
								<polygon fill="none" points="220.563,123.399 221.648,123.962 224.213,130.003 223.814,130.512 218.322,130.904 
									218.568,130.949 218.381,131.249 218.354,131.251 217.135,130.547 217.131,130.534 217.447,130.389 215.057,124.087 
									215.454,123.692 								"></polygon>
								<polygon fill="none" points="224.358,129.82 224.597,130.01 224.597,130.01 								"></polygon>
								<polygon fill="none" points="205.174,121.808 205.174,121.808 214.582,124.949 								"></polygon>
								<path fill="#FFFFFF" d="M186.868,121.782l15.587-0.508l0.326,0.033l0.302,0.101l0.403,0.135l0.37,0.124l0.335,0.225
									l0.248,0.158l0.144,0.234l0.112,0.112l6.2,18.689l0.09,0.292l0.302-0.011l0.314-0.044l0.357,0.044l0.438,0.034l0.414-0.01
									l0.403,0.022l0.37-0.102l0.414-0.122l0.335-0.223l0.403-0.426l0.337-0.447l0.312-0.381l0.313-0.38l0.27-0.359l0.259-0.325
									l0.224-0.337l0.268-0.358l0.224-0.336l0.259-0.324l0.258-0.325l0.279-0.28l0.292-0.313l0.336-0.336l0.336-0.336l0.426-0.38
									l-0.227-0.285l0.338-0.275l0.38-0.247l0.438-0.19l0.403-0.201l0.436-0.189l0.492-0.135l0.506-0.168l0.492-0.134l0.471-0.067
									l0.515-0.088l0.548-0.08l0.516-0.089l0.538-0.045l0.538-0.043l0.504-0.057l0.493-0.022l8.645-0.625l-10.652-3.556
									l-0.277-0.653l0,0l12.273,4.098l57.316-4.282l1.063-0.168l0.794-0.368l0.549-0.527l0.201-0.605l0.001-0.672l0.011-0.034
									l-0.19-0.774l-0.379-0.761l-0.552-0.819l-0.323-0.369l-0.357-0.381l-0.393-0.392l-0.413-0.325l-0.438-0.369l-0.492-0.316
									l-0.526-0.325l-0.526-0.325l-0.561-0.225l-0.55-0.259l-0.604-0.201l-0.636-0.213l-0.604-0.09l-0.63-0.135l-0.649-0.066
									l-0.639,0.01l-8.654,0.323l-50.831,1.738h-0.561l-0.525,0.012l-0.594-0.013l-0.57-0.079l-0.583-0.044l-0.583-0.046
									l-0.57-0.078l-0.605-0.091l-0.604-0.088l-0.595-0.124l-0.594-0.124l-0.592-0.123l-0.616-0.169l-0.582-0.157l-0.549-0.145
									l-0.572-0.19l-0.806-0.271l-0.794-0.302l-0.695-0.27l-0.692-0.267l-0.606-0.316l-0.583-0.269l-0.604-0.314l-0.549-0.258
									l-0.525-0.323l-0.47-0.271l-0.504-0.28l-0.471-0.269l-0.504-0.281l-0.47-0.27l-0.449-0.224l-0.47-0.27l-0.481-0.235
									l-0.493-0.203l-0.471-0.156l-0.537-0.179l-0.572-0.191l-0.546-0.146l-0.605-0.089l-0.639-0.101l-0.648-0.067l-0.729-0.056
									l-0.773-0.035l-0.794,0.034l-0.83,0.021l-0.927,0.101l-0.964,0.09l-1.052,0.133l-0.785,0.112l-0.771,0.189l-0.773,0.19
									l-0.719,0.246l-0.759,0.27l-0.729,0.28l-0.693,0.291l-0.707,0.323l-0.671,0.338l-0.684,0.37l10.875,3.632l-14.639,0.489
									L186.868,121.782z M286.558,122.09l0.066-0.425l0.146-0.325l0.268-0.247l0.403-0.202l0.471-0.067l0.256,0.013l0.293,0.021
									l0.279,0.056l0.279,0.057l0.337,0.112l0.303,0.101l0.325,0.146l0.347,0.191l0.29,0.135l0.304,0.213l0.268,0.202l0.292,0.247
									l0.303,0.213l0.212,0.258l0.258,0.235l0.213,0.258l0.392,0.505l0.201,0.515l0.101,0.258l0.056,0.167l-0.031,0.437
									l-0.081,0.347l-0.246,0.292l-0.359,0.178l-0.48,0.101l-0.269,0.024l-0.28-0.058l-0.323-0.033l-0.348-0.079l-0.304-0.102
									l-0.335-0.112l-0.358-0.155l-0.313-0.182l-0.325-0.145l-0.349-0.19l-0.303-0.212l-0.289-0.248l-0.269-0.201l-0.279-0.281
									l-0.247-0.27l-0.213-0.257l-0.346-0.526l-0.202-0.516l-0.056-0.168L286.558,122.09z M224.597,130.01L224.597,130.01
									l-0.238-0.19L224.597,130.01z M215.057,124.087l0.397-0.396l5.109-0.293l1.085,0.563l2.564,6.042l-0.398,0.509l-5.492,0.392
									l0.246,0.045l-0.188,0.299l-0.026,0.003l-1.22-0.705l-0.004-0.013l0.316-0.145L215.057,124.087z"></path>
							</g>
						</g>
					</g>
				</g>
			</g>
		</g>
		<polygon fill-rule="evenodd" clip-rule="evenodd" points="283.096,125.976 282.782,125.798 282.725,125.517 283.174,125.404 
			283.263,125.697 282.994,125.495 283.096,125.976 283.096,125.976 		"></polygon>
		<polygon fill-rule="evenodd" clip-rule="evenodd" points="283.701,125.619 283.633,125.708 283.521,125.819 283.386,125.886 
			283.253,125.955 283.096,125.976 282.994,125.495 283.062,125.517 283.162,125.438 283.286,125.404 283.297,125.371 
			283.274,125.438 283.688,125.652 283.688,125.652 283.701,125.619 		"></polygon>
		<polygon fill-rule="evenodd" clip-rule="evenodd" points="282.437,122.805 282.469,122.816 282.683,123.075 282.962,123.354 
			283.229,123.668 283.487,124.015 283.699,124.385 283.823,124.8 283.824,125.248 283.688,125.652 283.274,125.438 
			283.365,125.169 283.343,124.901 283.263,124.576 283.062,124.286 282.84,123.949 282.594,123.68 282.312,123.399 
			282.099,123.143 282.132,123.154 282.437,122.805 282.437,122.805 		"></polygon>
		<polygon fill-rule="evenodd" clip-rule="evenodd" points="278.315,121.617 278.28,121.604 278.874,121.617 279.435,121.617 
			279.96,121.717 280.465,121.773 280.979,121.909 281.46,122.145 281.964,122.424 282.437,122.805 282.132,123.154 281.675,122.85 
			281.236,122.592 280.823,122.38 280.374,122.266 279.882,122.176 279.378,122.121 278.863,122.099 278.336,122.109 
			278.348,122.075 278.269,121.639 278.269,121.639 278.315,121.617 		"></polygon>
		<polygon fill-rule="evenodd" clip-rule="evenodd" points="234.617,123.908 234.808,123.785 278.269,121.639 278.348,122.075 
			234.874,124.254 235.065,124.133 234.617,123.908 234.617,123.908 		"></polygon>
		<polygon fill-rule="evenodd" clip-rule="evenodd" points="233.585,125.432 233.116,125.274 233.149,124.949 233.239,124.682 
			233.374,124.391 233.553,124.188 233.789,124.042 234.091,123.92 234.427,123.807 234.808,123.785 234.874,124.254 
			234.517,124.322 234.192,124.4 234.034,124.422 233.878,124.556 233.801,124.682 233.677,124.827 233.61,125.028 233.619,125.33 
			233.149,125.173 233.585,125.432 233.585,125.432 		"></polygon>
		<g>
			<polygon fill="none" points="234.81,123.798 234.874,124.254 234.81,123.798 			"></polygon>
			<g>
				<polygon fill="none" points="233.619,125.33 233.677,125.051 233.81,124.759 233.923,124.535 234.158,124.391 234.438,124.332 
					234.83,124.276 234.874,124.254 278.348,122.075 279.075,122.132 279.682,122.109 280.253,122.188 280.777,122.29 
					281.261,122.524 281.696,122.781 282.099,123.143 282.56,123.668 282.962,124.14 283.253,124.609 283.398,124.957 
					283.398,125.181 283.297,125.371 283.017,125.541 282.491,125.662 281.752,125.751 237.08,128.055 237.046,128.043 
					236.42,128.021 235.804,127.852 235.254,127.595 234.783,127.325 234.394,126.933 234.113,126.541 233.866,126.161 
					233.677,125.835 233.642,125.6 				"></polygon>
				<g>
					<path fill="none" d="M233.677,125.051l-0.058,0.279l0.022,0.271l0.035,0.235l0.189,0.325l0.247,0.38l0.28,0.392l0.39,0.393
						l0.471,0.27l0.55,0.257l0.616,0.169l0.626,0.023l0.034,0.011l44.672-2.303l0.739-0.089l0.525-0.122l0.28-0.169l0.102-0.19
						v-0.224l-0.146-0.348l-0.291-0.47l-0.402-0.471l-0.461-0.525l-0.402-0.362l-0.436-0.257l-0.483-0.234l-0.524-0.102
						l-0.571-0.079l-0.606,0.022l-0.728-0.057l-43.474,2.179l-0.044,0.022l-0.392,0.056l-0.28,0.059l-0.235,0.144l-0.113,0.224
						L233.677,125.051z M234.293,124.771l43.473-2.18l0.021-0.068l0.585,0.045l0.56,0.001l0.526,0.1l0.503,0.056l0.517,0.136
						l0.479,0.234l0.47,0.27l0.504,0.391l0.191,0.214l0.168,0.167l0.156,0.202l0.136,0.156l0.19,0.213l0.146,0.236l0.122,0.189
						l0.123,0.191l0.012,0.078l-0.449,0.113l0.013,0.078l-0.112-0.225l-0.122-0.189l-0.169-0.167l-0.124-0.191l-0.132-0.156
						l-0.159-0.203l-0.167-0.168l-0.199-0.179l0.013-0.015l-0.397-0.298l-0.426-0.293l-0.424-0.178l-0.447-0.113l-0.493-0.09
						l-0.505-0.056l-0.549-0.034l-0.525,0.012l-43.461,2.145L234.293,124.771z"></path>
					<g>
						<path fill="none" d="M233.677,125.051l-0.058,0.279l0.022,0.271l0.035,0.235l0.189,0.325l0.247,0.38l0.28,0.392l0.39,0.393
							l0.471,0.27l0.55,0.257l0.616,0.169l0.626,0.023l0.034,0.011l44.672-2.303l0.739-0.089l0.525-0.122l0.28-0.169l0.102-0.19
							v-0.224l-0.146-0.348l-0.291-0.47l-0.402-0.471l-0.461-0.525l-0.402-0.362l-0.436-0.257l-0.483-0.234l-0.524-0.102
							l-0.571-0.079l-0.606,0.022l-0.728-0.057l-43.474,2.179l-0.044,0.022l-0.392,0.056l-0.28,0.059l-0.235,0.144l-0.113,0.224
							L233.677,125.051z"></path>
						<g>
							<polygon fill="none" points="233.81,124.759 233.923,124.535 234.158,124.391 234.438,124.332 234.695,124.297 
								234.338,124.972 277.811,122.792 278.369,122.793 278.886,122.816 279.412,122.917 279.915,122.973 280.397,123.096 
								280.856,123.287 281.314,123.59 281.764,123.925 281.921,124.127 282.088,124.295 282.245,124.497 282.412,124.666 
								282.535,124.856 282.693,125.058 282.816,125.248 282.962,125.482 282.979,125.549 282.491,125.662 281.752,125.751 
								237.08,128.055 237.046,128.043 236.42,128.021 235.804,127.852 235.254,127.595 234.783,127.325 234.394,126.933 
								234.113,126.541 233.866,126.161 233.677,125.835 233.642,125.6 233.619,125.33 233.677,125.051 							"></polygon>
							<polygon points="282.816,125.248 282.693,125.058 282.535,124.856 282.412,124.666 282.245,124.497 282.088,124.295 
								281.921,124.127 281.764,123.925 281.314,123.59 280.856,123.287 280.397,123.096 279.915,122.973 279.412,122.917 
								278.886,122.816 278.369,122.793 277.811,122.792 234.338,124.972 234.695,124.297 234.83,124.276 234.874,124.254 
								278.348,122.075 279.075,122.132 279.682,122.109 280.253,122.188 280.777,122.29 281.261,122.524 281.696,122.781 
								282.099,123.143 282.56,123.668 282.962,124.14 283.253,124.609 283.398,124.957 283.398,125.181 283.297,125.371 
								283.017,125.541 282.979,125.549 282.962,125.482 							"></polygon>
							<g>
								<polygon fill="none" points="233.697,125.005 233.732,124.995 233.956,124.995 234.338,124.972 234.699,124.295 
									234.83,124.276 234.874,124.254 278.348,122.075 279.075,122.132 279.682,122.109 280.253,122.188 280.777,122.29 
									281.261,122.524 281.696,122.781 282.099,123.143 282.56,123.668 282.962,124.14 283.253,124.609 283.398,124.957 
									283.398,125.181 283.297,125.371 283.017,125.541 282.979,125.549 282.491,125.662 281.752,125.751 237.08,128.055 
									237.046,128.043 236.42,128.021 235.804,127.852 235.254,127.595 234.783,127.325 234.394,126.933 234.113,126.541 
									233.866,126.161 233.677,125.835 233.642,125.6 233.619,125.33 233.677,125.051 								"></polygon>
								<path d="M233.116,125.274l0.047,0.425l0.089,0.292l0.122,0.414l0.291,0.47l0.358,0.381l0.459,0.415l0.549,0.37l0.615,0.281
									l0.648,0.178l0.785,0.001l44.66-2.267l0.851-0.09l0.604-0.135l0.438-0.302l0.246-0.403l-0.011-0.415l-0.169-0.505
									l-0.324-0.481l-0.446-0.562l-0.46-0.526l-0.494-0.426l-0.523-0.323l-0.517-0.248l-0.561-0.112l-0.672-0.112h-0.671
									l-0.763,0.044l-43.461,2.146l0.002,0.013l-0.461,0.021l-0.471,0.178l-0.312,0.27l-0.214,0.303l-0.146,0.324L233.116,125.274
									z M233.619,125.33l0.058-0.279l0.021-0.046l0.035-0.01h0.224l0.382-0.023l0.361-0.677l0.131-0.019l0.044-0.022l43.474-2.179
									l0.728,0.057l0.606-0.022l0.571,0.079l0.524,0.102l0.483,0.234l0.436,0.257l0.402,0.362l0.461,0.525l0.402,0.471l0.291,0.47
									l0.146,0.348v0.224l-0.102,0.19l-0.28,0.169l-0.038,0.009l-0.487,0.113l-0.739,0.089l-44.672,2.303l-0.034-0.011
									l-0.626-0.023l-0.616-0.169l-0.55-0.257l-0.471-0.27l-0.39-0.393l-0.28-0.392l-0.247-0.38l-0.189-0.325l-0.035-0.235
									L233.619,125.33z"></path>
							</g>
						</g>
					</g>
				</g>
			</g>
		</g>
	</g>
</g>
</svg>