<svg version="1.1" xmlns="http://www.w3.org/2000/svg" xmlns:xlink="http://www.w3.org/1999/xlink" x="0px" y="0px" width="1650" height="1425" viewBox="0 0 1650 1425" enable-background="new 0 0 396 342" xml:space="preserve">
<g id="cuts">
	<rect y="0" fill="#919395" width="396" height="341.999"></rect>
	<polygon fill="#FFFFFF" stroke="#EC1C24" points="103.5,333 9,171 103.5,9 292.5,9 387,171 292.5,333 	"></polygon>
	<polygon fill="none" stroke="#00ADEE" stroke-dasharray="1.44,1.44" points="108,324 18,171 108,18 287.999,18 378,171 
		287.999,324 	"></polygon>
	<polygon fill="#E7E6E6" points="300.425,40.628 96.232,40.628 107.986,19.294 287.986,19.294 	"></polygon>
</g>
<g id="Layer_3">
</g>
<g id="text">
	
	
	
	
	
	
	
	
	
	
	
	
	
	
	
	
	
	
	
	
	
	
	<polygon fill="#F9A51B" points="395.307,189.46 357.221,189.46 341.09,216.946 395.307,216.946 	"></polygon>
	<line fill="none" stroke="#F9A51B" x1="268.996" y1="189.986" x2="395.307" y2="189.986"></line>
	<line fill="none" stroke="#EA222A" x1="279.517" y1="106.295" x2="349.643" y2="106.295"></line>
	<line fill="none" stroke="#919396" x1="272.668" y1="127.283" x2="372.049" y2="127.283"></line>
	<line fill="none" stroke="#2BA4DD" stroke-dasharray="1.44,1.44" x1="277.115" y1="64.411" x2="316.008" y2="64.411"></line>
	<path fill="#EA222A" d="M277.127,57.104c0,0.433-0.197,0.856-0.588,1.267l-0.062,0.062l-3.435,3.617
		c-0.729,0.767-1.351,1.358-1.864,1.778c-0.513,0.419-0.875,0.629-1.086,0.629c-0.222,0-0.498-0.105-0.828-0.313
		c-0.329-0.211-0.542-0.426-0.639-0.648c-0.083-0.186-0.159-0.577-0.23-1.178c-0.072-0.6-0.108-1.251-0.108-1.951
		c0-0.383,0.159-0.736,0.477-1.059c0.32-0.324,0.672-0.486,1.057-0.486c0.367,0,0.586,0.335,0.654,1.005
		c0.01,0.078,0.015,0.136,0.019,0.173c0.059,0.514,0.128,0.874,0.204,1.078c0.079,0.203,0.186,0.305,0.318,0.305
		c0.055,0,0.159-0.06,0.312-0.18c0.151-0.122,0.333-0.285,0.544-0.493l3.528-3.496c0.297-0.295,0.562-0.52,0.795-0.671
		c0.233-0.153,0.43-0.228,0.595-0.228c0.122,0,0.209,0.046,0.261,0.138c0.052,0.093,0.077,0.249,0.077,0.467V57.104z"></path>
	<path fill="#EA222A" d="M278.407,98.172c0,0.434-0.196,0.857-0.588,1.267l-0.062,0.062l-3.434,3.616
		c-0.729,0.767-1.351,1.359-1.863,1.778c-0.514,0.418-0.876,0.628-1.087,0.628c-0.222,0-0.498-0.104-0.828-0.314
		c-0.329-0.21-0.542-0.426-0.639-0.648c-0.082-0.184-0.159-0.577-0.23-1.178c-0.071-0.6-0.108-1.25-0.108-1.949
		c0-0.383,0.159-0.736,0.478-1.06s0.671-0.485,1.056-0.485c0.367,0,0.585,0.334,0.654,1.005c0.01,0.078,0.015,0.135,0.019,0.173
		c0.059,0.514,0.128,0.874,0.205,1.078c0.078,0.203,0.184,0.306,0.316,0.306c0.056,0,0.16-0.06,0.312-0.18
		c0.15-0.121,0.333-0.284,0.544-0.493l3.528-3.495c0.297-0.296,0.561-0.52,0.795-0.671c0.233-0.153,0.431-0.229,0.595-0.229
		c0.122,0,0.208,0.047,0.261,0.139c0.052,0.093,0.077,0.249,0.077,0.467V98.172z"></path>
	<path fill="#EA222A" d="M272.612,118.615c0,0.434-0.196,0.857-0.589,1.267l-0.062,0.062l-3.434,3.616
		c-0.729,0.767-1.352,1.359-1.864,1.779c-0.513,0.418-0.875,0.628-1.086,0.628c-0.223,0-0.498-0.104-0.828-0.314
		c-0.33-0.209-0.543-0.426-0.64-0.648c-0.081-0.184-0.158-0.576-0.23-1.178c-0.071-0.599-0.108-1.25-0.108-1.949
		c0-0.382,0.16-0.735,0.478-1.059c0.319-0.324,0.671-0.485,1.056-0.485c0.368,0,0.586,0.335,0.655,1.005
		c0.009,0.079,0.014,0.135,0.019,0.173c0.059,0.514,0.127,0.874,0.204,1.078c0.078,0.203,0.185,0.306,0.317,0.306
		c0.056,0,0.159-0.06,0.312-0.18c0.151-0.122,0.333-0.285,0.544-0.493l3.529-3.495c0.296-0.296,0.561-0.52,0.794-0.672
		c0.233-0.152,0.432-0.228,0.595-0.228c0.123,0,0.209,0.047,0.262,0.139c0.051,0.093,0.077,0.249,0.077,0.467V118.615z"></path>
	<path fill="#EA222A" d="M269.752,182.469c0,0.434-0.198,0.856-0.589,1.268l-0.062,0.062l-3.435,3.616
		c-0.729,0.767-1.351,1.359-1.864,1.778c-0.513,0.419-0.875,0.626-1.086,0.626c-0.222,0-0.498-0.104-0.828-0.312
		c-0.329-0.21-0.542-0.425-0.639-0.647c-0.082-0.185-0.158-0.578-0.23-1.177c-0.072-0.602-0.108-1.253-0.108-1.952
		c0-0.381,0.159-0.734,0.477-1.057c0.32-0.326,0.672-0.487,1.057-0.487c0.367,0,0.586,0.335,0.654,1.006
		c0.01,0.078,0.015,0.135,0.019,0.173c0.059,0.514,0.128,0.873,0.205,1.078c0.078,0.203,0.185,0.305,0.317,0.305
		c0.055,0,0.159-0.06,0.312-0.183c0.151-0.118,0.333-0.283,0.544-0.489l3.528-3.497c0.297-0.296,0.562-0.521,0.795-0.671
		c0.233-0.151,0.431-0.227,0.595-0.227c0.122,0,0.209,0.044,0.261,0.137s0.078,0.249,0.078,0.467V182.469z"></path>
	<rect x="135.424" y="13.822" fill="none" width="208.633" height="284.5"></rect>
	
	
	
	
	
	
	<g>
		<defs>
			<rect id="SVGID_1_" x="135.424" y="13.822" width="208.633" height="284.5"></rect>
		</defs>
		<clipPath id="SVGID_2_">
			<use xlink:href="#SVGID_1_" overflow="visible"></use>
		</clipPath>
		<path clip-path="url(#SVGID_2_)" fill="#EA222A" d="M258.778,225.148c-0.164,0-0.361,0.077-0.595,0.229
			c-0.233,0.151-0.498,0.377-0.795,0.671l-3.528,3.496c-0.21,0.208-0.393,0.371-0.544,0.492c-0.152,0.119-0.257,0.181-0.312,0.181
			c-0.132,0-0.238-0.103-0.316-0.307c-0.077-0.203-0.146-0.562-0.205-1.077c-0.004-0.037-0.009-0.096-0.018-0.172
			c-0.069-0.672-0.288-1.006-0.655-1.006c-0.385,0-0.736,0.162-1.056,0.485c-0.318,0.325-0.478,0.677-0.478,1.061
			c0,0.699,0.037,1.35,0.108,1.947c0.072,0.602,0.149,0.994,0.23,1.18c0.097,0.222,0.31,0.438,0.639,0.647
			c0.33,0.21,0.606,0.313,0.828,0.313c0.211,0,0.573-0.21,1.087-0.627c0.513-0.42,1.134-1.013,1.863-1.778l3.435-3.617l0.062-0.062
			c0.392-0.41,0.589-0.833,0.589-1.266v-0.183c0-0.22-0.026-0.375-0.078-0.469C258.987,225.197,258.9,225.148,258.778,225.148z"></path>
		<circle clip-path="url(#SVGID_2_)" fill-rule="evenodd" clip-rule="evenodd" cx="185.581" cy="248.145" r="25.268"></circle>
		
			<circle clip-path="url(#SVGID_2_)" fill-rule="evenodd" clip-rule="evenodd" fill="#B7D333" cx="185.598" cy="248.285" r="22.971"></circle>
		<path clip-path="url(#SVGID_2_)" d="M178.561,239.694c0.099,0.002,0.225,0.031,0.373,0.091c0.147,0.059,0.251,0.09,0.309,0.091
			c0.113,0.003,0.222-0.046,0.322-0.144c0.425,0.18,0.687,0.269,0.786,0.27c0.274-0.223,0.417-0.604,0.426-1.147
			c0.003-0.185-0.053-0.698-0.166-1.541l0.108-0.126c-0.097-0.115-0.143-0.372-0.136-0.772c0.006-0.354-0.091-0.591-0.288-0.71
			c-0.247-0.544-0.695-0.931-1.348-1.153c-0.582-0.126-1.162-0.255-1.746-0.395c-0.975,0.34-1.76,0.888-2.356,1.648l-0.005,0.277
			c-0.603,0.347-0.913,0.968-0.929,1.865c-0.002,0.17,0.009,0.341,0.035,0.513c-0.361,1.12-0.553,2.35-0.575,3.688
			c-0.015,0.868,0.039,1.909,0.161,3.122c-0.09,0.17-0.135,0.354-0.139,0.554c-0.003,0.255,0.069,0.562,0.22,0.921
			c0.218,0.489,0.335,0.756,0.35,0.798c-0.103,0.084-0.154,0.189-0.154,0.317c-0.003,0.114,0.067,0.312,0.213,0.591
			c0.144,0.281,0.217,0.492,0.213,0.635c0.694,0.269,1.043,0.579,1.053,0.938c0.255,0.033,0.519,0.072,0.788,0.121
			c0.299,0.019,0.543-0.035,0.729-0.16c0.142,0.058,0.271,0.088,0.384,0.093c0.198,0.003,0.423-0.166,0.672-0.504
			c0.247-0.335,0.508-0.523,0.777-0.562c0.014,0.057,0.068,0.189,0.165,0.397c0.096,0.209,0.143,0.378,0.142,0.506
			c-0.002,0.07-0.01,0.136-0.025,0.192l1.047-0.047c0.159-1.706,0.396-3.969,0.714-6.783c-0.072-0.002-0.192-0.039-0.363-0.113
			c-0.168-0.074-0.296-0.111-0.381-0.113c-0.114-0.004-0.221,0.046-0.323,0.144c-0.111-0.115-0.154-0.209-0.123-0.278
			c-1.042,0.01-1.717-0.029-2.029-0.122l-0.099,0.832c-0.03,0.058-0.045,0.112-0.046,0.17c0,0.073,0.029,0.166,0.091,0.28
			c0.062,0.114,0.092,0.194,0.092,0.236c-0.003,0.1-0.088,0.178-0.261,0.23c0,0.015-0.007,0.115-0.025,0.301
			c-0.017,0.124,0.025,0.205,0.124,0.234c0.059-0.097,0.203-0.144,0.431-0.141c0.003-0.228,0.056-0.371,0.157-0.424
			c0.093,0.442,0.136,0.855,0.129,1.24c-0.014,0.782-0.232,1.398-0.651,1.847c-0.248,0.269-0.441,0.4-0.584,0.399
			c-0.129-0.004-0.282-0.224-0.46-0.662c-0.177-0.438-0.423-0.658-0.735-0.662c-0.071-0.004-0.149,0.004-0.234,0.016
			c0.057-0.1,0.159-0.146,0.302-0.144c0.227-0.012,0.349-0.016,0.362-0.016c-0.004-0.627,0-1.253,0.011-1.879
			c-0.016-0.742-0.077-1.356-0.183-1.842l0.26-0.252c-0.027-0.101-0.039-0.214-0.036-0.343c0.001-0.114,0.017-0.285,0.051-0.514
			c0.032-0.226,0.049-0.39,0.05-0.49c0.006-0.284-0.07-0.506-0.222-0.665c0.177-0.354,0.324-1.069,0.442-2.151
			c0.115-0.937,0.347-1.596,0.694-1.975l0.382,0.135c-0.012-0.043,0.038-0.135,0.156-0.276c0.184,0.032,0.333,0.177,0.453,0.437
			c0.116,0.255,0.229,0.424,0.342,0.496c-0.08,0.555-0.116,1.395-0.106,2.52C178.417,239.706,178.49,239.693,178.561,239.694z"></path>
		<path clip-path="url(#SVGID_2_)" d="M188.167,246.545c-0.025-0.114-0.069-0.514-0.128-1.199c-0.049-0.484-0.166-0.85-0.345-1.096
			c-0.315,0.109-0.64,0.225-0.968,0.347c-0.373,0.137-0.674,0.281-0.904,0.434c-0.185-0.089-0.273-0.354-0.265-0.795
			c-0.223-0.232-0.4-0.327-0.53-0.287c-0.159,0.084-0.323,0.123-0.494,0.122c-0.527-0.011-0.765-0.278-0.714-0.805l0.659-6.102
			c0.201,0.832,0.368,1.888,0.503,3.172c0.109,1.07,0.301,2.377,0.411,3.46c0.428-0.019,0.848-0.041,1.263-0.062
			c0.471-0.034,0.855-0.136,1.158-0.301c0.018-0.213-0.053-0.657-0.048-0.868c0.012-0.698-0.148-1.748-0.481-3.15
			c-0.319-1.302-0.444-2.352-0.373-3.148c0.086-0.997-0.217-1.499-0.915-1.513c-0.2-0.003-0.556,0.05-1.073,0.153
			c-0.513,0.107-0.892,0.158-1.134,0.152c-0.298-0.005-0.548-0.074-0.745-0.204c-0.315,0.151-0.466,0.546-0.448,1.188
			c-0.062,0.254-0.097,0.748-0.111,1.475l-1.391,11.535l0.12,0.388c0.03,0,0.242,0.01,0.642,0.032
			c0.255,0.019,0.442-0.022,0.557-0.12l-0.125-0.151c0.1-0.041,0.223-0.181,0.371-0.421c0.101-0.197,0.254-0.273,0.452-0.228
			c0.377-0.377,0.559-1.123,0.551-2.234c0.13-0.082,0.39-0.146,0.783-0.189c0.392-0.042,0.674-0.141,0.85-0.295
			c0.097,0.087,0.163,0.263,0.193,0.527c0.03,0.263,0.082,0.439,0.152,0.525c-0.288,0.166-0.433,0.292-0.433,0.376
			c-0.002,0.071,0.121,0.171,0.368,0.295c0.247,0.126,0.37,0.268,0.366,0.425c0,0.056-0.023,0.127-0.068,0.211
			c0.028,0.102,0.099,0.537,0.214,1.308c0.062,0.529,0.169,0.943,0.321,1.245c0.142-0.014,0.406-0.058,0.792-0.135
			c0.342-0.081,0.616-0.119,0.816-0.116c0.226,0.005,0.44,0.051,0.638,0.139c0.029-0.184,0.048-0.383,0.053-0.597
			c0.008-0.442-0.062-1.021-0.207-1.733C188.302,247.402,188.192,246.817,188.167,246.545z"></path>
		<path clip-path="url(#SVGID_2_)" d="M198.571,237.085c-0.088-0.572-0.129-1.562-0.141-1.747l-3.312,0.072l-0.465,3.382
			c-0.227,0.85-0.516,1.907-0.865,3.168c-0.261-0.63-0.452-1.568-0.572-2.81c-0.118-1.439-0.245-2.41-0.378-2.911l-0.399-0.394
			c-0.044,0.085-0.096,0.127-0.153,0.127c-0.027,0-0.08-0.034-0.158-0.099c-0.077-0.066-0.143-0.098-0.201-0.1
			c-0.057,0-0.106,0.012-0.151,0.041c-0.242,0.095-0.701,0.131-1.369,0.104c-0.613-0.011-1.056,0.074-1.331,0.255l0.46,6.909
			c-0.115,0.085-0.173,0.168-0.175,0.254c-0.001,0.072,0.043,0.178,0.134,0.312c0.092,0.137,0.136,0.234,0.134,0.291
			c0,0.086-0.074,0.162-0.216,0.231c0.011,0.17,0.007,0.435-0.014,0.789c-0.036,0.442-0.056,0.74-0.058,0.896
			c-0.01,0.642,0.08,1.141,0.274,1.501c-0.123,0.555-0.188,1.023-0.195,1.408c-0.01,0.498,0.077,0.905,0.257,1.222
			c0.157-0.082,0.458-0.12,0.899-0.113c0.356,0.007,0.636-0.082,0.838-0.263c-0.001,0.099,0.018-0.571,0.056-2.01
			c0.015-0.797-0.032-1.453-0.137-1.968l0.151-0.124l-0.147-0.132c0.018-0.197,0.03-0.955,0.038-2.266
			c0.017-0.938,0.129-1.685,0.337-2.235c0.097,0.114,0.137,0.313,0.118,0.6c-0.019,0.284,0.02,0.483,0.118,0.601
			c-0.058,0.057-0.086,0.119-0.087,0.19c-0.002,0.085,0.052,0.225,0.162,0.419c0.109,0.195,0.167,0.341,0.165,0.441
			c-0.016,0.113-0.026,0.241-0.029,0.386c-0.005,0.268,0.026,0.647,0.087,1.133c0.091,0.599,0.141,0.979,0.152,1.134
			c0.014,0.101,0.06,0.251,0.143,0.453c0.083,0.199,0.122,0.351,0.12,0.449c-0.002,0.116-0.046,0.222-0.133,0.319
			c0.139,0.287,0.24,0.771,0.306,1.446c0.067,0.679,0.17,1.161,0.308,1.448l1.478-0.232c-0.039-0.17-0.057-0.341-0.054-0.513
			c0.003-0.243,0.087-0.604,0.253-1.086c0.164-0.481,0.243-0.864,0.233-1.149c-0.008-0.342-0.178-0.467-0.506-0.37
			c-0.417,0.119-0.686,0.101-0.812-0.06l0.284-0.25c0.069,0.016,0.16-0.031,0.27-0.134c0.107-0.107,0.185-0.16,0.228-0.156
			c0.054,0.001,0.111,0.052,0.167,0.15c0.185-0.01,0.307-0.087,0.367-0.229l0.178-0.425c0.204-2.803,0.551-4.79,1.043-5.964
			c0.008,0.186,0.013,0.377,0.008,0.576c-0.004,0.313-0.044,0.782-0.119,1.409c-0.073,0.625-0.115,1.102-0.12,1.429
			c-0.007,0.457,0.034,0.871,0.127,1.241l-0.13,0.127c0.093,2.096,0.115,3.692,0.069,4.788c0.068,0.172,0.139,0.354,0.215,0.547
			c0.076,0.193,0.197,0.292,0.368,0.297c0.087,0.001,0.195-0.019,0.323-0.059c0.477-1.203,0.721-2.161,0.734-2.873
			c0.002-0.228-0.009-0.455-0.034-0.686c0.293-0.408,0.447-1.061,0.463-1.957c0.001-0.113,0.003-0.291,0.008-0.534
			c-0.011-0.242-0.016-0.42-0.013-0.535c0.01-0.524,0.065-0.932,0.172-1.216c0.087-0.183,0.134-0.461,0.141-0.83
			c-0.007-0.456-0.003-0.705,0.013-0.748c0.116-0.155,0.178-0.352,0.181-0.596c0.004-0.241-0.05-0.44-0.161-0.6
			c0.105-0.283,0.161-0.603,0.167-0.959C198.685,237.991,198.646,237.583,198.571,237.085z"></path>
		<path clip-path="url(#SVGID_2_)" d="M205.289,247.948v-0.021c-0.003,0.006-0.002,0.015-0.005,0.021
			C205.285,247.947,205.287,247.948,205.289,247.948z"></path>
		<path clip-path="url(#SVGID_2_)" d="M203.384,235.543c-0.798,0-1.417-0.011-1.858-0.033c-0.654-0.024-1.253-0.086-1.792-0.181
			c-0.197,1.564-0.236,4.34-0.077,5.824l0.132-0.188l0.271,0.302c-0.07,0.028-0.108,0.155-0.112,0.383
			c0.111,0.119,0.305,0.24,0.58,0.373c0.275,0.134,0.471,0.193,0.585,0.182l0.127,0.13l0.135-0.438
			c-0.016,0.184,0.103-0.554,0.328-0.336c0.167,0.174,0.328,0.292,0.485,0.351c0.003-0.242,0.056-0.384,0.156-0.424
			c-0.016-0.014-0.013-0.236,0.011-0.663c0.007-0.312-0.091-0.529-0.288-0.646c-0.017,0.157-0.017-0.349,0.003-1.517
			c0.011-0.541,0.118-0.96,0.321-1.255c0.142,0.017,0.547,0.074,1.215,0.17c0.54,0.094,0.974,0.145,1.303,0.15
			c0.156,0.003,0.298-0.002,0.427-0.014c0.003-0.172,0.046-0.431,0.13-0.778c0.085-0.347,0.129-0.599,0.13-0.756
			c0.005-0.258-0.078-0.466-0.243-0.625C204.952,235.547,204.295,235.544,203.384,235.543z"></path>
		<path clip-path="url(#SVGID_2_)" d="M201.938,247.74c-0.063-0.442-0.098-0.927-0.102-1.454c-0.009-0.343-0.003-0.813,0.021-1.409
			c0.012-0.669,0.021-1.133,0.025-1.391c0.089-0.139,0.224-0.154,0.404-0.045c0.185,0.109,0.328,0.087,0.431-0.068
			c0.411,0.05,0.938,0.067,1.582,0.05c-0.069-0.26-0.141-0.52-0.215-0.786c-0.073-0.263-0.224-0.776-0.465-0.906
			c-0.14-0.174-0.286-0.263-0.444-0.263c-0.142-0.005-0.342,0.39-0.585,0.558c-0.318,0.236-0.505,0.369-0.562,0.396l-0.127-0.132
			c-0.145,0.085-0.254,0.26-0.328,0.529c-0.136,0.411-0.211,0.638-0.228,0.68l-0.123-0.15c-0.015,0-0.242-0.156-0.677-0.46
			c-0.31-0.22-0.577-0.332-0.808-0.335c-0.199-0.004-0.376,0.072-0.537,0.226c0.104,0.6,0.148,1.227,0.139,1.883
			c-0.008,0.484-0.062,1.154-0.162,2.006c-0.102,0.953-0.164,1.658-0.186,2.112c0.141,0.103,0.167,0.256,0.077,0.462
			c-0.087,0.204-0.077,0.352,0.036,0.437c0.31,0.248,0.58,0.255,0.812,0.015c0.227,0.089,0.566,0.139,1.022,0.146
			c0.585-0.005,0.912,0.001,0.983,0.017c-0.027-0.072,0.016-0.164,0.134-0.275l0.398,0.435c0.387-0.095,0.82-0.136,1.307-0.128
			c0.797,0.013,1.25,0.021,1.367,0.022c0-0.128-0.002-0.356-0.012-0.684c-0.009-0.285-0.005-0.506,0.012-0.662
			c0.017-0.234,0.072-0.438,0.155-0.617c-0.482-0.108-1.056-0.167-1.724-0.178C202.592,247.752,202.052,247.742,201.938,247.74z"></path>
		<polygon clip-path="url(#SVGID_2_)" points="181.322,260.867 181.322,260.856 181.321,260.867 		"></polygon>
		<path clip-path="url(#SVGID_2_)" d="M179.908,260.877c0,0.006-0.001,0.057-0.004,0.152c-0.004,0.062,0.023,0.1,0.082,0.118
			c-0.068,0.099-0.101,0.201-0.095,0.31c0.006,0.102,0.058,0.24,0.157,0.419c0.099,0.176,0.154,0.312,0.168,0.406
			c-0.055,0.057-0.08,0.188-0.078,0.39c0.001,0.177-0.054,0.298-0.167,0.366c-0.053-0.018-0.079-0.052-0.082-0.106
			c0.002-0.096,0.004-0.146,0.003-0.153c-0.102-0.299-0.283-0.44-0.543-0.425c-0.068,0.004-0.142,0.021-0.224,0.053
			c-0.129-0.053-0.191-0.156-0.181-0.304c-0.091-0.104-0.142-0.258-0.153-0.461c-0.004-0.065-0.002-0.169,0.006-0.309
			c0.008-0.141,0.01-0.244,0.007-0.312c-0.007-0.127-0.035-0.229-0.081-0.3l0.083-0.066c0.016-0.035,0.022-0.062,0.021-0.083
			c-0.003-0.053-0.06-0.088-0.169-0.1c-0.135-0.015-0.217-0.036-0.245-0.07c-0.042-1.013-0.011-2.001,0.094-2.964
			c0.153,0.021,0.231,0.073,0.237,0.161c0.001,0.021-0.003,0.056-0.014,0.107c-0.009,0.051-0.014,0.091-0.011,0.117
			c0.005,0.082,0.058,0.143,0.163,0.184l0.255-0.148c0.093,0.133,0.144,0.309,0.158,0.532c0.004,0.074,0.003,0.182,0,0.325
			c-0.004,0.141-0.005,0.25,0,0.324c0.012,0.216,0.065,0.39,0.156,0.521l0.854-0.08c0.092-0.299,0.249-0.441,0.468-0.436
			c0.025-0.149,0.034-0.293,0.026-0.427c-0.024-0.404-0.184-0.77-0.48-1.091c-0.158-0.12-0.317-0.238-0.476-0.36
			c-0.183-0.116-0.368-0.162-0.55-0.13c-0.104-0.042-0.256-0.06-0.458-0.054c-0.296,0.009-0.459,0.012-0.493,0.008
			c-0.612,0.191-1.054,0.559-1.327,1.104c-0.055,0.057-0.079,0.174-0.072,0.349c0.005,0.177-0.049,0.294-0.164,0.355
			c-0.053,0.674-0.113,1.179-0.177,1.517c0.062,0.035,0.093,0.082,0.096,0.136c0.004,0.033-0.01,0.083-0.042,0.148
			c-0.029,0.066-0.044,0.116-0.042,0.15c0.003,0.048,0.03,0.091,0.083,0.129l-0.084,0.063c0.094,0.152,0.151,0.404,0.313,0.285
			c0.101,0.151,0.166,0.174,0.276,0.604c0.091,0.387,0.329,0.696,0.499,0.869c-0.008,0.137,0.076,0.271,0.252,0.402
			c0.026,0.019,0.179,0.115,0.458,0.289c0.579,0.102,0.948,0.149,1.106,0.139c0.269-0.016,0.475-0.099,0.619-0.249
			c0.298-0.078,0.533-0.299,0.707-0.661l0.092,0.075c0.147-0.219,0.238-0.519,0.276-0.899c0.071-0.595,0.106-0.9,0.109-0.932
			C180.843,260.759,180.372,260.762,179.908,260.877z"></path>
		<path clip-path="url(#SVGID_2_)" d="M184.317,259.401l0.571-0.494c0.084-0.699,0.125-1.098,0.118-1.199
			c-0.026-0.452-0.206-0.776-0.539-0.971c-0.125-0.005-0.271-0.054-0.436-0.146c-0.167-0.091-0.319-0.136-0.46-0.134
			c-0.1,0.17-0.301,0.265-0.607,0.281c-0.046,0.003-0.125,0.007-0.234,0.013c-0.104,0-0.176,0-0.223,0.005
			c-0.164,0.009-0.292,0.037-0.383,0.079c-0.2-0.04-0.356-0.056-0.473-0.049c-0.187,0.01-0.294,0.076-0.318,0.199
			c0.057,0.179,0.1,0.434,0.128,0.767l0.038,0.679c0.019,0.308,0.056,0.55,0.112,0.722l0.124,3.52
			c0.116,0.112,0.318,0.162,0.607,0.146c0.07-0.004,0.181-0.015,0.326-0.033c0.148-0.019,0.262-0.03,0.341-0.035
			c0.068-0.003,0.132-0.004,0.186-0.002l-0.007-0.16c0.045-0.285,0.055-0.632,0.032-1.04c-0.038-0.642-0.057-0.98-0.06-1.019
			c-0.056-0.034-0.086-0.081-0.09-0.135c-0.002-0.027,0.003-0.062,0.012-0.105c0.01-0.044,0.014-0.08,0.012-0.105
			c-0.002-0.043-0.025-0.081-0.064-0.11c0.105-0.05,0.156-0.138,0.148-0.265c-0.01-0.187,0.056-0.304,0.203-0.351l0.085,0.062
			c0.01,0.017,0.015,0.035,0.016,0.054c0.003,0.038-0.022,0.076-0.076,0.114c-0.053,0.038-0.079,0.062-0.078,0.074l0.079-0.07
			c0.057,0.054,0.086,0.142,0.085,0.269c0.009,0.178,0.015,0.263,0.015,0.255c0.228,0.818,0.343,1.658,0.346,2.515
			c0.166,0.015,0.342,0.032,0.527,0.049c0.183,0.019,0.334,0.059,0.447,0.122c0.045-0.036,0.065-0.087,0.062-0.156
			c-0.001-0.012-0.003-0.038-0.004-0.075c-0.01-0.03-0.016-0.052-0.016-0.065c-0.006-0.088,0.042-0.15,0.143-0.187
			c0.064,0.052,0.117,0.071,0.155,0.056c0-0.006-0.013-0.138-0.036-0.396c-0.016-0.182-0.002-0.321,0.048-0.418h0.011
			c-0.234-0.233-0.407-0.599-0.521-1.096C184.531,259.966,184.415,259.58,184.317,259.401z M184.146,257.663l-0.013-0.008
			c-0.136,0.107-0.218,0.3-0.247,0.571c-0.035,0.36-0.066,0.572-0.094,0.63c-0.082,0.2-0.259,0.308-0.534,0.324
			c-0.063,0.003-0.128,0.003-0.2,0.001c0.006-0.151-0.006-0.333-0.042-0.545c-0.032-0.269-0.048-0.442-0.054-0.518
			c-0.008-0.137-0.003-0.27,0.012-0.396c-0.089-0.026-0.134-0.067-0.137-0.125c-0.002-0.032,0.016-0.087,0.055-0.168
			c0.038-0.081,0.057-0.141,0.055-0.178c0.041,0.009,0.078-0.002,0.115-0.035c0.037-0.035,0.07-0.065,0.1-0.092l0.083-0.05
			c0.001,0.006,0.077-0.021,0.165,0.283c0.043,0.188,0.087,0.068,0.282,0.068c0.074-0.092,0.2-0.032,0.229-0.246
			c0.032-0.212-0.042-0.255,0.022-0.347c0.115,0.076,0.177,0.198,0.187,0.368C184.152,257.551,184.156,257.706,184.146,257.663z"></path>
		<path clip-path="url(#SVGID_2_)" d="M189.215,261.244c-0.018-0.051-0.055-0.224-0.111-0.523c-0.046-0.211-0.12-0.368-0.229-0.469
			c-0.168,0.06-0.341,0.124-0.518,0.19c-0.2,0.074-0.359,0.15-0.48,0.227c-0.104-0.031-0.162-0.146-0.172-0.341
			c-0.131-0.093-0.23-0.128-0.299-0.104c-0.084,0.042-0.173,0.066-0.267,0.071c-0.289,0.017-0.429-0.091-0.419-0.325l0.15-2.714
			c0.137,0.359,0.267,0.817,0.384,1.378c0.097,0.469,0.319,1.043,0.417,1.516c0.234-0.024,0.462-0.051,0.688-0.077
			c0.255-0.034,0.464-0.093,0.625-0.178c0.002-0.096-0.125-0.295-0.13-0.389c-0.018-0.309-0.141-0.766-0.373-1.368
			c-0.221-0.562-0.327-1.019-0.315-1.372c0.014-0.442-0.17-0.651-0.552-0.63c-0.111,0.008-0.304,0.044-0.583,0.109
			c-0.277,0.067-0.484,0.104-0.615,0.111c-0.166,0.009-0.303-0.011-0.416-0.061c-0.168,0.079-0.236,0.26-0.204,0.542
			c-0.023,0.114-0.025,0.331-0.009,0.652l-0.329,5.657l0.08,0.168c0.016-0.001,0.133-0.004,0.352-0.011
			c0.14-0.002,0.24-0.025,0.3-0.074l-0.074-0.062c0.054-0.022,0.116-0.089,0.188-0.199c0.049-0.094,0.13-0.132,0.239-0.119
			c0.193-0.182,0.238-1.041,0.193-1.528c0.07-0.043,0.209-0.081,0.424-0.114c0.213-0.035,0.365-0.09,0.454-0.165
			c0.058,0.035,0.098,0.109,0.124,0.224c0.026,0.116,0.06,0.191,0.103,0.227c-0.154,0.085-0.227,0.145-0.225,0.183
			c0.001,0.031,0.071,0.071,0.211,0.115c0.14,0.047,0.211,0.104,0.215,0.172c0.002,0.026-0.007,0.059-0.029,0.097
			c0.017,0.044,0.071,0.233,0.163,0.568c0.052,0.229,0.125,0.408,0.219,0.535c0.077-0.011,0.219-0.041,0.43-0.092
			c0.185-0.047,0.332-0.075,0.44-0.081c0.126-0.007,0.245,0.004,0.356,0.037c0.01-0.084,0.012-0.173,0.007-0.267
			c-0.011-0.195-0.069-0.446-0.173-0.755C189.319,261.616,189.238,261.362,189.215,261.244z"></path>
		<path clip-path="url(#SVGID_2_)" d="M191.071,260.823c-0.203,0.015-0.302-0.016-0.3-0.088c-0.126-0.041-0.271-0.058-0.438-0.048
			c-0.17,0.01-0.313,0.044-0.428,0.1l0.112,1.929l0.211-0.014c0.047-0.009,0.085-0.014,0.117-0.015
			c0.131-0.009,0.214,0.053,0.245,0.184c0.051,0.198,0.082,0.179,0.105,0.202c0.047-0.008,0.183-0.02,0.41-0.032
			c0.171-0.012,0.3-0.036,0.383-0.08c0.019-0.631-0.063-1.609-0.196-2.151L191.071,260.823z"></path>
		<path clip-path="url(#SVGID_2_)" d="M192.902,255.921c-0.007-0.117-0.091-0.201-0.25-0.249l-0.056,0.06
			c-0.038,0.016-0.08,0.025-0.126,0.027c-0.04,0.002-0.1-0.002-0.178-0.014c-0.079-0.011-0.138-0.016-0.176-0.014
			c-0.08,0.004-0.144-0.088-0.179-0.018c-0.542-0.024-0.98-0.027-1.317-0.008c-0.428,0.024-0.791,0.087-1.082,0.186l0.041,0.724
			l0.351,3.809l0.219-0.067c0.032-0.009,0.067-0.014,0.105-0.016c0.085-0.006,0.233,0.033,0.436,0.112
			c0.205,0.079,0.373,0.107,0.506,0.088c0.051-0.047,0.074-0.124,0.068-0.23c-0.011-0.17-0.018-0.236-0.024-0.197
			c-0.053-0.381,0.027-0.622,0.239-0.723c0.075,0.039,0.108,0.078,0.102,0.116c0.218-0.013,0.351-0.025,0.398-0.042
			c0.114-0.031,0.192-0.109,0.233-0.229c0.135,0.059,0.24,0.095,0.311,0.104l0.023-0.833c-0.075-0.098-0.201-0.117-0.375-0.059
			c-0.173,0.057-0.296,0.053-0.37-0.012c-0.037,0.046-0.113,0.071-0.226,0.075c-0.113,0.002-0.185,0.021-0.213,0.053
			c-0.115-0.206-0.179-0.481-0.19-0.829c-0.031-0.548-0.049-0.83-0.05-0.85c-0.008-0.023-0.039-0.064-0.088-0.121
			c-0.051-0.058-0.077-0.102-0.078-0.133c-0.003-0.038,0.019-0.073,0.064-0.106l0.145-0.113c0.056,0.021,0.086,0.064,0.091,0.126
			c0.004,0.095,0.008,0.149,0.009,0.161c0.005,0.081,0.031,0.122,0.077,0.118c0.034-0.002,0.081-0.024,0.149-0.07
			c0.066-0.044,0.114-0.066,0.137-0.069c0.097,0.031,0.25,0.043,0.459,0.03c0.251-0.021,0.39-0.029,0.423-0.023
			c0.145,0.085,0.266,0.06,0.359-0.078h-0.012c-0.026-0.042-0.04-0.093-0.044-0.148c-0.003-0.062,0.012-0.155,0.042-0.277
			C192.89,256.059,192.905,255.973,192.902,255.921z"></path>
		<path clip-path="url(#SVGID_2_)" d="M197.527,256.29c-0.004-0.189-0.034-0.532-0.095-0.643c-0.083,0.042-0.375-0.033-0.492-0.026
			c-0.055,0.003-0.215,0.033-0.509,0.006c-0.093,0.036-0.015,0.004-0.099,0.051c0.066-0.037-0.042,0.015-0.021,0.092
			c0.034,0.141-0.072,0.347-0.249,0.427c-0.237,0.096-0.255,0.027-0.283,0.066c0.014-0.14-0.175-0.08-0.342-0.096
			c-0.147,0.008-0.292,0.013-0.433,0.017c-0.127-0.043-0.181,0.066-0.186-0.009c-0.002-0.03,0.011-0.08,0.039-0.148
			c0.026-0.068,0.029-0.306,0.026-0.343c-0.002-0.058-0.089,0.018-0.172-0.021c-0.125,0.008-0.294-0.015-0.323,0.03
			c-0.023,0.002-0.101-0.082-0.452-0.062c-0.257,0.021-0.695-0.004-0.707,0.041c-0.052,0.207,0.014,0.703,0.027,0.903
			c0.01,0.207-0.015,0.244,0.102,0.37c0.092-0.044,0.329-0.007,0.569-0.032c0.204-0.026,0.396,0.054,0.502-0.042
			c0.299,2.328,0.5,4.631,0.574,5.763c0.14,0.088,0.247,0.118,0.324,0.096c-0.018-0.036-0.007-0.07,0.029-0.102
			c0.038-0.03,0.071-0.06,0.1-0.086c0.242,0.1,0.468,0.143,0.679,0.131c0.125-0.008,0.24-0.033,0.348-0.078
			c0.012-0.087,0.013-0.184,0.007-0.282c-0.008-0.133-0.075-0.983-0.125-1.241c-0.05-0.261-0.078-0.449-0.085-0.567
			c-0.01-0.182,0.008-0.344,0.054-0.484c-0.052-0.226-0.086-0.484-0.104-0.78c-0.007-0.118-0.004-0.736,0.01-1.854l-0.062-0.062
			c-0.019-0.031,0.002-0.071,0.062-0.127l-0.073-0.044c-0.031-0.129,0.011-0.232,0.124-0.309c0.119,0.019,0.295,0.015,0.528-0.012
			c0.272-0.035,0.625-0.059,0.737-0.052l-0.013-0.009C197.542,256.751,197.537,256.591,197.527,256.29z"></path>
		<path clip-path="url(#SVGID_2_)" d="M198.079,257.816l0.16,0.122c-0.039,0.017-0.053,0.074-0.048,0.174
			c0.065,0.047,0.176,0.094,0.332,0.142c0.155,0.048,0.265,0.066,0.326,0.057l0.074,0.055l0.059-0.192
			c-0.004,0.081,0.038-0.227,0.17-0.141c0.097,0.07,0.191,0.115,0.277,0.136c-0.006-0.106,0.018-0.173,0.072-0.194
			c-0.01-0.006-0.015-0.102-0.019-0.29c-0.007-0.139-0.067-0.23-0.18-0.274c-0.003,0.07-0.021-0.153-0.051-0.668
			c-0.014-0.239,0-0.351,0.101-0.49c0.078,0.002,0.302,0.012,0.671,0.028c0.301,0.021,0.538,0.025,0.716,0.016
			c0.087-0.005,0.167-0.015,0.235-0.023c-0.004-0.077,0.04-0.269,0.076-0.425c0.033-0.156,0.049-0.269,0.043-0.339
			c-0.005-0.111-0.058-0.2-0.156-0.265c-0.218,0.012-0.576,0.038-1.076,0.073c-0.437,0.031-0.777,0.049-1.018,0.059
			c-0.359,0.015-0.709,0.065-1.007,0.045c-0.054,0.696,0.04,1.838,0.178,2.486L198.079,257.816z"></path>
		<path clip-path="url(#SVGID_2_)" d="M200.385,260.694c-0.53,0.029-0.827,0.047-0.89,0.052c-0.05-0.192-0.087-0.405-0.108-0.638
			c-0.016-0.15-0.027-0.357-0.036-0.622c-0.017-0.294-0.027-0.499-0.035-0.611c0.043-0.065,0.117-0.078,0.222-0.037
			c0.102,0.041,0.182,0.026,0.231-0.047c0.227,0.006,0.518-0.009,0.868-0.041c-0.046-0.11-0.095-0.224-0.145-0.337
			s-0.157-0.457-0.293-0.506c-0.082-0.07-0.168-0.104-0.252-0.098c-0.079,0.004-0.167,0.31-0.295,0.394
			c-0.165,0.116-0.264,0.183-0.295,0.195l-0.072-0.051c-0.076,0.041-0.131,0.123-0.163,0.243c-0.059,0.188-0.092,0.292-0.099,0.31
			l-0.074-0.061c-0.009,0-0.136-0.06-0.385-0.179c-0.179-0.082-0.331-0.122-0.455-0.113c-0.108,0.007-0.205,0.046-0.286,0.119
			c0.076,0.262,0.124,0.535,0.141,0.823c0.012,0.215,0.006,0.512-0.019,0.892c-0.023,0.424-0.03,0.736-0.028,0.938
			c0.082,0.039,0.1,0.105,0.059,0.199c-0.041,0.095-0.029,0.16,0.035,0.192c0.178,0.097,0.327,0.088,0.443-0.025
			c0.129,0.029,0.317,0.039,0.567,0.023c0.32-0.024,0.5-0.035,0.54-0.03c-0.017-0.03,0.003-0.072,0.062-0.128l0.232,0.177
			c0.21-0.058,0.446-0.093,0.711-0.106c0.437-0.028,0.688-0.042,0.751-0.045c-0.004-0.058-0.014-0.157-0.03-0.3
			c-0.015-0.127-0.021-0.225-0.016-0.294c0.001-0.103,0.023-0.195,0.063-0.277C201.066,260.674,200.75,260.672,200.385,260.694z"></path>
		<polygon clip-path="url(#SVGID_2_)" points="201.338,260.695 201.336,260.705 201.34,260.705 		"></polygon>
		<path clip-path="url(#SVGID_2_)" d="M204.361,257.778l0.572-0.495c0.084-0.698,0.123-1.098,0.118-1.198
			c-0.025-0.454-0.206-0.777-0.536-0.974c-0.128-0.004-0.273-0.052-0.44-0.145c-0.165-0.09-0.317-0.134-0.459-0.133
			c-0.1,0.169-0.303,0.264-0.607,0.28c-0.045,0.003-0.125,0.008-0.234,0.015c-0.102,0-0.176,0.002-0.223,0.004
			c-0.164,0.008-0.29,0.035-0.382,0.079c-0.199-0.04-0.355-0.057-0.475-0.048c-0.187,0.01-0.293,0.077-0.315,0.197
			c0.057,0.179,0.099,0.436,0.125,0.769l0.04,0.678c0.018,0.308,0.056,0.549,0.111,0.722l0.124,3.52
			c0.115,0.114,0.318,0.161,0.606,0.145c0.07-0.003,0.181-0.016,0.326-0.034c0.148-0.017,0.261-0.027,0.34-0.032
			c0.07-0.006,0.136-0.006,0.188-0.002l-0.01-0.161c0.047-0.285,0.058-0.633,0.033-1.041c-0.037-0.642-0.057-0.979-0.059-1.017
			c-0.06-0.036-0.087-0.082-0.09-0.138c-0.002-0.026,0.003-0.062,0.01-0.107c0.011-0.042,0.015-0.077,0.013-0.103
			c-0.002-0.044-0.024-0.08-0.064-0.109c0.105-0.05,0.157-0.139,0.151-0.266c-0.014-0.188,0.053-0.305,0.199-0.352l0.086,0.062
			c0.01,0.02,0.014,0.038,0.016,0.057c0.003,0.038-0.023,0.076-0.075,0.114c-0.053,0.037-0.078,0.062-0.078,0.075l0.078-0.071
			c0.058,0.054,0.087,0.143,0.087,0.269c0.008,0.176,0.015,0.263,0.015,0.254c0.226,0.819,0.341,1.658,0.344,2.514
			c0.168,0.016,0.344,0.033,0.526,0.051c0.186,0.018,0.335,0.058,0.448,0.123c0.045-0.036,0.066-0.088,0.062-0.157
			c-0.002-0.013-0.003-0.039-0.006-0.076c-0.009-0.03-0.014-0.051-0.015-0.063c-0.007-0.088,0.041-0.151,0.142-0.188
			c0.065,0.053,0.117,0.071,0.156,0.056c0-0.006-0.01-0.138-0.035-0.396c-0.019-0.181-0.002-0.32,0.047-0.418l0.011-0.001
			c-0.231-0.232-0.407-0.597-0.521-1.095C204.576,258.341,204.46,257.956,204.361,257.778z M204.192,256.039l-0.014-0.008
			c-0.134,0.109-0.218,0.297-0.248,0.572c-0.034,0.359-0.066,0.57-0.093,0.63c-0.082,0.199-0.261,0.308-0.533,0.322
			c-0.063,0.005-0.129,0.006-0.201,0.003c0.007-0.151-0.006-0.334-0.043-0.546c-0.032-0.27-0.048-0.441-0.054-0.516
			c-0.008-0.14-0.002-0.272,0.013-0.399c-0.089-0.027-0.134-0.067-0.136-0.124c-0.002-0.032,0.017-0.089,0.054-0.169
			c0.039-0.08,0.057-0.142,0.053-0.178c0.041,0.01,0.08-0.001,0.117-0.035s0.07-0.064,0.101-0.092l0.053-0.043
			c0,0.007,0.035-0.084,0.108,0.021c0.117,0.163,0.163,0.281,0.359,0.282c0.073-0.094,0.122-0.245,0.155-0.459
			c0.028-0.213,0.043,0,0.104-0.09c0.115,0.074,0.178,0.195,0.188,0.367C204.196,255.927,204.2,256.082,204.192,256.039z"></path>
		<path clip-path="url(#SVGID_2_)" d="M166.225,247.179c-0.039,0.003-0.086,0.03-0.14,0.083c-0.055,0.054-0.103,0.084-0.141,0.085
			c-0.018,0.002-0.034,0-0.052-0.006c-0.096-0.326-0.15-0.585-0.16-0.779c-0.007-0.159,0.004-0.316,0.037-0.472
			c-0.004-0.08-0.02-0.198-0.048-0.356c-0.028-0.158-0.044-0.275-0.048-0.349c-0.003-0.063,0.006-0.143,0.026-0.24
			c0.021-0.099,0.03-0.171,0.029-0.217c-0.001-0.033-0.014-0.084-0.034-0.156c-0.021-0.071-0.033-0.118-0.035-0.147
			c-0.003-0.068,0.026-0.121,0.087-0.158c0.023-0.006,0.066,0.013,0.13,0.053c0.028-0.029,0.064-0.045,0.109-0.047
			c0.016-0.002,0.076,0.007,0.182,0.024c0.079,0.014,0.145,0.01,0.196-0.011c-0.013-0.123-0.001-0.35,0.032-0.677V243.8
			c-0.048-0.079-0.114-0.113-0.193-0.108c-0.046,0.002-0.117,0.026-0.213,0.075c-0.099,0.046-0.17,0.072-0.215,0.075
			c-0.047-0.124-0.074-0.263-0.081-0.419c-0.004-0.094,0-0.246,0.016-0.456c0.016-0.209,0.02-0.367,0.015-0.477
			c-0.004-0.079-0.015-0.155-0.029-0.229l-0.191-0.049c-0.156-0.045-0.289-0.064-0.396-0.059c-0.291,0.015-0.424,0.241-0.402,0.679
			c0.002,0.053,0.01,0.133,0.021,0.243c0.011,0.11,0.018,0.192,0.021,0.242c0.014,0.268-0.021,0.458-0.101,0.569l-0.199-0.048
			c-0.076,0.071-0.113,0.156-0.109,0.253c0.005,0.057,0.031,0.148,0.08,0.273s0.074,0.217,0.079,0.273
			c0.033,0.005,0.074-0.018,0.12-0.065c0.045-0.049,0.08-0.072,0.104-0.074c0.028-0.001,0.058,0.021,0.088,0.065
			c0.013,0.141,0.022,0.284,0.031,0.433c0.017,0.353,0.023,0.815,0.017,1.385c-0.011,0.755-0.017,1.217-0.014,1.396
			c0.063,0.02,0.101,0.066,0.114,0.14c0.011,0.074,0.02,0.145,0.024,0.214c0.047,0.025,0.093,0.038,0.138,0.034
			c0.056-0.003,0.127-0.031,0.213-0.088c0.086-0.055,0.145-0.083,0.18-0.085c0.062-0.003,0.116,0.052,0.163,0.17l0.056-0.07
			l0.14,0.25c-0.005,0,0.039,0,0.138,0.001c0.058-0.002,0.092-0.027,0.107-0.074c0.034-0.229-0.031-0.357-0.199-0.383l0.171-0.181
			c0.053,0.044,0.076,0.086,0.067,0.125c0.063,0.14,0.171,0.192,0.325,0.155c0.002-0.051,0.002-0.099,0.001-0.146
			c-0.006-0.097-0.059-0.312-0.162-0.641C166.286,247.183,166.253,247.178,166.225,247.179z M165.793,244.215l0.009,0.196
			l-0.071-0.253L165.793,244.215z"></path>
		<path clip-path="url(#SVGID_2_)" d="M168.751,243.185l-0.009,0.002c-0.256,0.013-0.479,0.149-0.67,0.409
			c-0.048-0.146-0.077-0.309-0.086-0.492c-0.007-0.148,0.002-0.359,0.027-0.634c0.025-0.299,0.038-0.51,0.038-0.634
			c-0.063-0.134-0.208-0.195-0.429-0.185c-0.358,0.024-0.533,0.036-0.528,0.035c-0.043,0.384-0.067,0.887-0.071,1.509
			c-0.004,0.918-0.009,1.431-0.016,1.533l0.071,0.047c0.006,0.022-0.014,0.067-0.062,0.131l0.122,2.44
			c0.053-0.004,0.143,0.012,0.268,0.046c0.127,0.032,0.217,0.049,0.268,0.045c0.108-0.004,0.18-0.067,0.212-0.188
			c-0.002-0.053-0.041-0.099-0.118-0.141c-0.077-0.04-0.116-0.084-0.117-0.132c-0.002-0.026,0.005-0.059,0.021-0.095
			c0.036-0.064,0.076-0.126,0.119-0.188c0.042-0.063,0.105-0.09,0.193-0.085c0.007-0.153,0.014-0.598,0.017-1.333
			c0.005-0.576,0.033-1.03,0.085-1.365c0.068-0.008,0.146,0.011,0.234,0.057c0.127,0.064,0.198,0.096,0.21,0.102
			c0.069-0.102,0.12-0.241,0.15-0.418C168.708,243.497,168.732,243.341,168.751,243.185z"></path>
		<path clip-path="url(#SVGID_2_)" d="M169.591,243.708c-0.111-0.28-0.313-0.458-0.608-0.534c-0.254,0.736-0.372,1.704-0.351,2.899
			c0.001,0.018,0.014,0.265,0.037,0.742c0.018,0.331,0.074,0.558,0.172,0.684c0.076-0.071,0.2-0.089,0.369-0.049
			c0.171,0.041,0.297,0.025,0.379-0.049c0.077-1.074,0.092-2.084,0.044-3.028C169.62,244.157,169.608,243.935,169.591,243.708z"></path>
		<path clip-path="url(#SVGID_2_)" d="M172.133,243.644c-0.31-0.165-0.593-0.243-0.85-0.231c-0.233,0.012-0.43,0.099-0.595,0.261
			c-0.028-0.01-0.056-0.014-0.085-0.013c-0.181,0.01-0.319,0.226-0.412,0.646c-0.056,0.361-0.112,0.724-0.168,1.086
			c0.055,0.064,0.087,0.175,0.094,0.329l0.015,0.297c0.041,0.028,0.064,0.074,0.067,0.143c0.001,0.018-0.001,0.04-0.004,0.067
			c0.001,0.036,0.002,0.059,0.003,0.069c0.004,0.099,0.047,0.146,0.134,0.148l-0.064,0.062c0.046,0.014,0.07,0.051,0.075,0.107
			c0.004,0.103,0.007,0.146,0.005,0.137c0.042,0.14,0.153,0.272,0.33,0.394c0.176,0.122,0.288,0.233,0.332,0.334
			c0.109-0.005,0.225,0.041,0.349,0.141c0.124,0.099,0.218,0.147,0.281,0.144c0.079-0.004,0.166-0.051,0.257-0.139
			c0.106-0.047,0.192-0.131,0.257-0.255c0.066-0.122,0.139-0.215,0.221-0.274c-0.006-0.019-0.009-0.038-0.011-0.061
			c-0.004-0.058,0.027-0.138,0.086-0.24c0.061-0.101,0.089-0.176,0.087-0.223c-0.004-0.073-0.069-0.132-0.197-0.176
			c-0.107-0.088-0.201-0.13-0.28-0.124c-0.103,0.004-0.194,0.091-0.277,0.261c-0.056,0.141-0.111,0.279-0.167,0.42
			c-0.039,0.037-0.082,0.055-0.134,0.058c-0.12,0.005-0.222-0.054-0.309-0.181c0.062-0.124,0.059-0.322-0.011-0.598
			c-0.059-0.255-0.035-0.446,0.073-0.577l0.138,0.182l0.056-0.072c0.028,0.029,0.16,0.021,0.392-0.021
			c-0.032-0.065-0.063-0.133-0.095-0.198c-0.064-0.129-0.103-0.278-0.117-0.448l0.396,0.578c0.059,0.025,0.104,0.039,0.14,0.035
			c0.022,0,0.056-0.014,0.097-0.043c0.04-0.027,0.081-0.042,0.12-0.044c0.036-0.001,0.08,0.005,0.131,0.021
			c0.031-0.073,0.049-0.141,0.058-0.209c-0.005-0.08-0.009-0.163-0.013-0.25c-0.005-0.084,0.011-0.164,0.048-0.239
			C172.526,244.477,172.376,244.042,172.133,243.644z M171.396,245.145l-0.256,0.003c0,0.011-0.009-0.152-0.025-0.494
			c-0.015-0.199,0.019-0.347,0.107-0.442l-0.011-0.195c0.053,0.048,0.102,0.067,0.14,0.061l0.057-0.072
			c-0.002,0.089,0.023,0.222,0.075,0.403c0.054,0.184,0.08,0.314,0.083,0.395C171.576,244.961,171.518,245.075,171.396,245.145z"></path>
		<polygon clip-path="url(#SVGID_2_)" fill-rule="evenodd" clip-rule="evenodd" points="174.555,253.605 174.806,253.765 
			174.589,253.554 174.843,253.7 175.706,251.437 175.416,251.341 		"></polygon>
		<polygon clip-path="url(#SVGID_2_)" fill-rule="evenodd" clip-rule="evenodd" points="174.965,253.241 174.861,253.282 
			174.589,253.554 174.807,253.765 175.083,253.478 174.977,253.532 		"></polygon>
		<polygon clip-path="url(#SVGID_2_)" fill-rule="evenodd" clip-rule="evenodd" points="177.175,253.126 174.966,253.241 
			174.975,253.532 177.185,253.42 177.325,253.315 177.052,253.223 		"></polygon>
		<polygon clip-path="url(#SVGID_2_)" fill-rule="evenodd" clip-rule="evenodd" points="178.05,251.143 177.898,250.956 
			177.053,253.223 177.326,253.316 178.187,251.051 178.037,250.864 		"></polygon>
		<polygon clip-path="url(#SVGID_2_)" fill-rule="evenodd" clip-rule="evenodd" points="175.833,250.961 175.723,251.017 
			175.945,251.214 175.835,251.269 178.05,251.143 178.037,250.864 		"></polygon>
		<polygon clip-path="url(#SVGID_2_)" fill-rule="evenodd" clip-rule="evenodd" points="175.448,251.292 175.417,251.341 
			175.706,251.437 175.672,251.487 175.946,251.214 175.723,251.018 		"></polygon>
		<polygon clip-path="url(#SVGID_2_)" fill-rule="evenodd" clip-rule="evenodd" points="177.539,253.491 177.736,253.405 
			177.262,253.141 177.112,253.41 177.599,253.678 177.813,253.583 177.525,253.487 		"></polygon>
		<polygon clip-path="url(#SVGID_2_)" fill-rule="evenodd" clip-rule="evenodd" points="178.465,251.403 178.388,251.224 
			177.525,253.488 177.813,253.583 178.674,251.32 178.596,251.143 		"></polygon>
		<polygon clip-path="url(#SVGID_2_)" fill-rule="evenodd" clip-rule="evenodd" points="177.9,250.956 178.187,251.051 
			177.973,251.147 178.466,251.403 178.596,251.143 178.123,250.878 		"></polygon>
		<polygon clip-path="url(#SVGID_2_)" points="178.674,251.32 178.537,251.275 178.179,251.076 178.186,251.051 178.05,251.005 
			177.899,250.956 177.877,251.014 175.828,251.114 175.554,251.388 175.567,251.393 174.692,253.65 174.966,253.376 
			177.069,253.275 177.112,253.41 177.19,253.27 177.536,253.46 177.525,253.487 177.535,253.596 177.676,253.539 178.773,256.121 
			179.622,253.852 178.618,251.467 		"></polygon>
		<polygon clip-path="url(#SVGID_2_)" fill-rule="evenodd" clip-rule="evenodd" points="178.914,256.06 177.817,253.479 
			177.535,253.596 178.632,256.179 178.91,256.166 178.622,256.07 178.636,256.074 		"></polygon>
		<polygon clip-path="url(#SVGID_2_)" fill-rule="evenodd" clip-rule="evenodd" points="179.494,253.917 179.483,253.806 
			178.623,256.07 178.909,256.166 179.772,253.904 179.763,253.794 		"></polygon>
		<polygon clip-path="url(#SVGID_2_)" fill-rule="evenodd" clip-rule="evenodd" points="178.388,251.224 178.674,251.32 
			178.396,251.333 179.494,253.917 179.763,253.794 178.666,251.21 		"></polygon>
		<polygon clip-path="url(#SVGID_2_)" fill-rule="evenodd" clip-rule="evenodd" fill="#FFFFFF" points="178.601,251.903 
			178.501,251.794 178.419,251.675 178.299,251.574 178.185,251.507 178.046,251.429 177.909,251.383 177.758,251.333 
			177.608,251.284 177.444,251.274 177.284,251.251 177.126,251.274 176.952,251.293 176.787,251.329 176.625,251.364 
			176.453,251.429 176.305,251.501 176,251.688 175.759,251.912 175.567,252.166 175.45,252.43 175.357,252.703 175.357,252.975 
			175.402,253.25 175.526,253.518 175.608,253.637 175.708,253.746 175.832,253.833 175.941,253.915 176.069,253.989 
			176.214,254.05 176.364,254.102 176.505,254.134 176.669,254.143 176.829,254.165 177.001,254.146 177.16,254.125 
			177.325,254.089 177.503,254.056 177.662,253.989 177.821,253.92 178.113,253.728 178.355,253.506 178.541,253.263 
			178.678,252.992 178.756,252.713 178.77,252.445 178.724,252.173 		"></polygon>
		<polygon clip-path="url(#SVGID_2_)" fill-rule="evenodd" clip-rule="evenodd" points="178.71,252.35 178.706,252.363 
			178.609,252.241 178.529,252.121 178.405,252.034 178.296,251.955 178.151,251.888 178.019,251.83 177.868,251.78 
			177.712,251.744 177.549,251.734 177.39,251.711 177.231,251.734 177.076,251.744 176.896,251.775 176.729,251.824 
			176.574,251.879 176.409,251.961 176.105,252.147 175.864,252.371 175.677,252.612 175.554,252.89 175.48,253.154 
			175.462,253.436 175.508,253.71 175.634,253.965 175.727,254.101 175.832,254.197 175.936,254.292 176.051,254.362 
			176.19,254.439 176.322,254.499 176.473,254.547 176.614,254.581 176.787,254.608 176.952,254.618 177.107,254.608 
			177.267,254.585 177.443,254.551 177.608,254.516 177.767,254.448 177.932,254.367 178.237,254.18 178.459,253.965 
			178.665,253.716 178.786,253.439 178.862,253.174 178.873,252.905 178.833,252.62 		"></polygon>
		<polygon clip-path="url(#SVGID_2_)" fill-rule="evenodd" clip-rule="evenodd" fill="#FFFFFF" points="178.786,252.664 
			178.691,252.542 178.609,252.421 178.487,252.335 178.372,252.266 178.245,252.194 178.101,252.13 177.95,252.082 
			177.796,252.042 177.649,252.026 177.471,252.011 177.315,252.022 177.157,252.042 176.98,252.075 176.814,252.111 
			176.657,252.181 176.492,252.261 176.199,252.454 175.95,252.659 175.758,252.914 175.634,253.191 175.558,253.468 
			175.544,253.736 175.59,254.011 175.717,254.266 175.812,254.388 175.9,254.494 176.018,254.593 176.131,254.661 176.273,254.739 
			176.405,254.798 176.555,254.848 176.697,254.88 176.87,254.909 177.034,254.917 177.188,254.909 177.348,254.884 
			177.526,254.853 177.689,254.818 177.863,254.753 178.014,254.667 178.318,254.48 178.541,254.266 178.732,254.011 
			178.87,253.738 178.941,253.475 178.956,253.206 178.916,252.918 		"></polygon>
		<polygon clip-path="url(#SVGID_2_)" fill-rule="evenodd" clip-rule="evenodd" points="178.896,253.109 178.892,253.124 
			178.815,252.992 178.714,252.882 178.606,252.799 178.481,252.713 178.354,252.64 178.209,252.578 178.06,252.527 
			177.905,252.489 177.753,252.486 177.59,252.476 177.422,252.48 177.262,252.503 177.098,252.541 176.919,252.572 176.761,252.64 
			176.601,252.708 176.31,252.899 176.068,253.123 175.876,253.376 175.745,253.636 175.668,253.915 175.653,254.182 
			175.713,254.461 175.822,254.726 175.917,254.848 176.019,254.958 176.127,255.039 176.237,255.122 176.377,255.199 
			176.51,255.257 176.66,255.309 176.814,255.345 176.98,255.355 177.138,255.376 177.296,255.355 177.471,255.335 177.635,255.3 
			177.798,255.263 177.972,255.199 178.119,255.127 178.423,254.942 178.651,254.712 178.855,254.462 178.973,254.198 
			179.066,253.924 179.066,253.653 179.02,253.377 		"></polygon>
		<polygon clip-path="url(#SVGID_2_)" fill-rule="evenodd" clip-rule="evenodd" fill="#FFFFFF" points="179.056,253.405 
			178.975,253.289 178.874,253.179 178.771,253.083 178.647,252.996 178.513,252.936 178.381,252.877 178.218,252.822 
			178.063,252.787 177.918,252.769 177.753,252.759 177.585,252.763 177.425,252.787 177.257,252.836 177.083,252.855 
			176.924,252.923 176.76,253.005 176.469,253.196 176.23,253.405 176.042,253.661 175.917,253.938 175.831,254.197 
			175.816,254.466 175.872,254.757 176,255.013 176.083,255.13 176.18,255.241 176.287,255.335 176.409,255.422 176.541,255.481 
			176.673,255.541 176.824,255.591 176.979,255.627 177.138,255.65 177.302,255.66 177.456,255.65 177.629,255.631 177.795,255.596 
			177.958,255.559 178.131,255.496 178.295,255.415 178.588,255.223 178.811,255.009 179.015,254.758 179.151,254.485 
			179.225,254.22 179.229,253.933 179.185,253.662 		"></polygon>
		<polygon clip-path="url(#SVGID_2_)" fill-rule="evenodd" clip-rule="evenodd" points="179.179,253.857 179.083,253.734 
			178.982,253.625 178.874,253.542 178.752,253.456 178.624,253.384 178.491,253.325 178.342,253.274 178.173,253.233 
			178.021,253.228 177.863,253.205 177.704,253.228 177.531,253.246 177.366,253.282 177.203,253.319 177.03,253.382 
			176.883,253.455 176.578,253.64 176.336,253.865 176.145,254.118 176.026,254.383 175.936,254.657 175.922,254.926 
			175.982,255.205 176.104,255.473 176.186,255.591 176.287,255.701 176.396,255.783 176.52,255.869 176.646,255.942 176.779,256 
			176.942,256.055 177.083,256.087 177.247,256.097 177.407,256.119 177.58,256.101 177.74,256.079 177.904,256.042 
			178.066,256.005 178.24,255.943 178.399,255.875 178.69,255.684 178.933,255.46 179.123,255.206 179.256,254.944 179.333,254.667 
			179.348,254.399 179.289,254.121 		"></polygon>
		<polygon clip-path="url(#SVGID_2_)" fill-rule="evenodd" clip-rule="evenodd" points="164.136,250.294 163.268,252.571 
			163.542,252.662 164.407,250.385 164.412,250.327 164.121,250.381 		"></polygon>
		<polygon clip-path="url(#SVGID_2_)" fill-rule="evenodd" clip-rule="evenodd" points="164.098,250.265 164.105,250.263 
			164.104,250.252 		"></polygon>
		<polygon clip-path="url(#SVGID_2_)" fill-rule="evenodd" clip-rule="evenodd" points="164.386,250.181 164.105,250.263 
			164.12,250.381 164.412,250.327 164.382,250.194 		"></polygon>
		<polygon clip-path="url(#SVGID_2_)" fill-rule="evenodd" clip-rule="evenodd" points="164.066,250.135 164.098,250.265 
			164.387,250.181 164.353,250.048 		"></polygon>
		
			<rect x="164.13" y="249.882" transform="matrix(-0.2924 -0.9563 0.9563 -0.2924 -26.8987 480.1624)" clip-path="url(#SVGID_2_)" fill-rule="evenodd" clip-rule="evenodd" width="0.124" height="0.3"></rect>
		<polygon clip-path="url(#SVGID_2_)" fill-rule="evenodd" clip-rule="evenodd" points="164.282,249.812 163.999,249.884 
			164.03,250.017 164.318,249.93 164.284,249.799 		"></polygon>
		<polygon clip-path="url(#SVGID_2_)" fill-rule="evenodd" clip-rule="evenodd" points="164.259,249.744 163.962,249.72 
			163.962,249.767 163.999,249.884 164.282,249.812 164.245,249.693 		"></polygon>
		<polygon clip-path="url(#SVGID_2_)" fill-rule="evenodd" clip-rule="evenodd" points="164.164,249.65 164.252,249.666 
			164.249,249.678 164.164,249.65 163.967,249.616 163.963,249.72 164.259,249.744 164.262,249.639 163.975,249.587 		"></polygon>
		<polygon clip-path="url(#SVGID_2_)" fill-rule="evenodd" clip-rule="evenodd" points="164.252,249.666 164.164,249.65 
			164.249,249.678 		"></polygon>
		<polygon clip-path="url(#SVGID_2_)" fill-rule="evenodd" clip-rule="evenodd" fill="#4D494A" points="164.171,256.196 
			164.192,256.356 164.501,256.292 164.475,256.146 		"></polygon>
		<polygon clip-path="url(#SVGID_2_)" fill-rule="evenodd" clip-rule="evenodd" points="165.136,254.394 165.145,254.322 
			164.283,256.584 164.557,256.673 165.419,254.411 165.414,254.333 		"></polygon>
		<polygon clip-path="url(#SVGID_2_)" fill-rule="evenodd" clip-rule="evenodd" points="165.099,254.23 165.113,254.234 
			165.136,254.394 165.413,254.333 165.392,254.175 		"></polygon>
		<polygon clip-path="url(#SVGID_2_)" fill-rule="evenodd" clip-rule="evenodd" points="165.073,254.084 165.099,254.23 
			165.392,254.175 165.351,254.025 		"></polygon>
		<polygon clip-path="url(#SVGID_2_)" fill-rule="evenodd" clip-rule="evenodd" points="165.036,253.92 165.045,253.938 
			165.073,254.084 165.351,254.025 165.33,253.885 		"></polygon>
		<polygon clip-path="url(#SVGID_2_)" fill-rule="evenodd" clip-rule="evenodd" points="165.327,253.865 165.33,253.885 
			165.336,253.884 		"></polygon>
		<polygon clip-path="url(#SVGID_2_)" fill-rule="evenodd" clip-rule="evenodd" points="165.022,253.689 165.309,253.783 
			165.019,253.746 165.036,253.92 165.335,253.884 165.313,253.726 		"></polygon>
		<path clip-path="url(#SVGID_2_)" fill="#4D494A" d="M163.27,252.12l-0.139,0.041L163.27,252.12z"></path>
		<polygon clip-path="url(#SVGID_2_)" fill="#4D494A" points="163.419,252.582 163.414,252.593 163.415,252.621 163.542,252.661 
			163.49,252.586 		"></polygon>
		<polygon clip-path="url(#SVGID_2_)" points="164.111,249.634 164.111,249.635 164.117,249.622 		"></polygon>
		<polygon clip-path="url(#SVGID_2_)" points="164.249,250.226 164.217,250.095 164.18,249.977 164.135,249.84 164.111,249.726 
			164.111,249.635 163.251,251.897 163.248,252.001 163.099,252.03 163.136,252.147 163.13,252.161 163.27,252.12 163.13,252.161 
			163.165,252.293 163.206,252.399 163.35,252.359 163.294,252.505 163.241,252.516 163.259,252.644 163.332,252.649 
			163.419,252.758 163.416,252.655 163.542,252.662 163.415,252.621 163.414,252.593 163.419,252.582 163.49,252.586 
			163.542,252.662 164.408,250.385 164.271,250.34 		"></polygon>
		<polygon clip-path="url(#SVGID_2_)" points="170.875,252.801 170.867,252.782 170.78,252.679 170.744,252.651 170.625,252.55 
			170.599,252.542 170.448,252.446 170.434,252.443 170.276,252.374 170.11,252.32 170.097,252.313 169.942,252.279 
			169.914,252.266 169.751,252.259 163.41,252.467 163.419,252.758 169.741,252.546 169.741,252.56 169.887,252.578 169.859,252.57 
			170.015,252.605 170.15,252.651 170.312,252.718 170.31,252.72 170.465,252.801 170.442,252.778 170.54,252.856 170.539,252.856 
			170.612,252.957 170.616,252.944 170.66,253.013 170.939,252.928 170.936,252.896 		"></polygon>
		<polygon clip-path="url(#SVGID_2_)" points="170.653,253.017 170.675,253.039 170.66,253.013 		"></polygon>
		<polygon clip-path="url(#SVGID_2_)" fill-rule="evenodd" clip-rule="evenodd" points="174.04,258.246 173.173,260.522 
			173.461,260.618 174.327,258.34 174.327,258.251 174.04,258.335 		"></polygon>
		<polygon clip-path="url(#SVGID_2_)" fill-rule="evenodd" clip-rule="evenodd" points="171.8,250.623 171.538,250.775 
			171.518,250.74 174.04,258.335 174.327,258.251 171.806,250.652 		"></polygon>
		<polygon clip-path="url(#SVGID_2_)" fill-rule="evenodd" clip-rule="evenodd" points="171.486,250.699 171.481,250.687 
			171.472,250.694 		"></polygon>
		<polygon clip-path="url(#SVGID_2_)" fill-rule="evenodd" clip-rule="evenodd" points="171.728,250.519 171.482,250.687 
			171.538,250.775 171.8,250.623 171.742,250.525 		"></polygon>
		<polygon clip-path="url(#SVGID_2_)" fill-rule="evenodd" clip-rule="evenodd" points="171.481,250.687 171.482,250.687 
			171.478,250.681 		"></polygon>
		<polygon clip-path="url(#SVGID_2_)" fill-rule="evenodd" clip-rule="evenodd" points="171.609,250.375 171.428,250.603 
			171.405,250.581 171.472,250.694 171.728,250.519 171.632,250.399 		"></polygon>
		<polygon clip-path="url(#SVGID_2_)" fill-rule="evenodd" clip-rule="evenodd" points="171.327,250.539 171.33,250.534 
			171.305,250.516 		"></polygon>
		<polygon clip-path="url(#SVGID_2_)" fill-rule="evenodd" clip-rule="evenodd" points="171.464,250.265 171.33,250.534 
			171.428,250.603 171.609,250.375 171.486,250.289 		"></polygon>
		<polygon clip-path="url(#SVGID_2_)" fill-rule="evenodd" clip-rule="evenodd" points="171.295,250.179 171.19,250.447 
			171.176,250.443 171.327,250.539 171.464,250.265 171.308,250.184 		"></polygon>
		<polygon clip-path="url(#SVGID_2_)" fill-rule="evenodd" clip-rule="evenodd" points="171.014,250.387 171.027,250.392 
			171.029,250.386 		"></polygon>
		<polygon clip-path="url(#SVGID_2_)" fill-rule="evenodd" clip-rule="evenodd" points="171.027,250.392 171.027,250.392 
			171.027,250.392 		"></polygon>
		<polygon clip-path="url(#SVGID_2_)" fill-rule="evenodd" clip-rule="evenodd" points="171.122,250.107 171.029,250.386 
			171.045,250.384 171.027,250.392 171.19,250.447 171.294,250.179 171.136,250.111 		"></polygon>
		<polygon clip-path="url(#SVGID_2_)" fill-rule="evenodd" clip-rule="evenodd" points="171.029,250.386 171.027,250.392 
			171.027,250.392 171.045,250.384 		"></polygon>
		<polygon clip-path="url(#SVGID_2_)" fill-rule="evenodd" clip-rule="evenodd" points="170.88,250.33 170.878,250.331 
			170.875,250.342 		"></polygon>
		<polygon clip-path="url(#SVGID_2_)" fill-rule="evenodd" clip-rule="evenodd" points="170.878,250.331 170.88,250.33 
			170.875,250.342 170.878,250.331 170.861,250.338 171.028,250.392 171.122,250.107 170.957,250.052 		"></polygon>
		<polygon clip-path="url(#SVGID_2_)" fill-rule="evenodd" clip-rule="evenodd" points="170.776,250.005 170.754,250.301 
			170.727,250.292 170.875,250.342 170.957,250.052 170.79,250.011 		"></polygon>
		<polygon clip-path="url(#SVGID_2_)" fill-rule="evenodd" clip-rule="evenodd" points="170.599,249.993 170.606,250.283 
			170.603,250.296 170.754,250.301 170.776,250.005 170.616,249.981 		"></polygon>
		<polygon clip-path="url(#SVGID_2_)" fill-rule="evenodd" clip-rule="evenodd" points="164.271,250.205 164.136,250.294 
			164.407,250.385 164.421,250.39 164.268,250.489 170.606,250.283 170.598,249.993 		"></polygon>
		<polygon clip-path="url(#SVGID_2_)" fill="#4D494A" points="165.992,257.3 166.014,257.313 166.006,257.294 		"></polygon>
		<path clip-path="url(#SVGID_2_)" fill="#4D494A" d="M169.438,258.336l-0.025,0.308L169.438,258.336z"></path>
		<path clip-path="url(#SVGID_2_)" d="M172.724,256.364l-0.046-0.058l0.033-0.084l-0.096,0.006l-0.041-0.052l-0.021,0.057
			l-0.495,0.029h-0.638l-0.587-0.013l-0.538-0.027l-0.524-0.069l-0.488-0.085l-0.446-0.119l-0.446-0.119l-0.418-0.155l-0.406-0.151
			l-0.383-0.173l-0.378-0.186l-0.392-0.191l-0.374-0.201l-0.372-0.2l-0.259-0.136l0.007-0.025l-0.136-0.045l-0.037-0.163
			l-0.027-0.146l-0.012-0.05l0.103-0.224l-0.145-0.047l-0.007-0.002l-0.135-0.044l-0.863,2.262l-0.008,0.073l0.023,0.158
			l0.017,0.173l0.028,0.146l0.055,0.156l0.069,0.113l0.387,0.204l0.386,0.205l0.374,0.201l0.377,0.187l0.015,0.005l0.383,0.172
			l0.381,0.175l0.415,0.168l0.419,0.155l0.014,0.005l0.445,0.118l0.447,0.118l0.015,0.005l0.491,0.074l0.506,0.077l0.014,0.004
			l0.55,0.03l0.02-0.008l0.587,0.015l0.628-0.021l0.667-0.035l0.137-0.091l0.86-2.263l-0.146-0.2L172.724,256.364z M164.287,256.019
			l0.011-0.023l0.005,0.03L164.287,256.019z"></path>
		<polygon clip-path="url(#SVGID_2_)" fill-rule="evenodd" clip-rule="evenodd" points="172.049,256.109 172.06,256.4 
			172.724,256.364 172.715,256.071 		"></polygon>
		
			<rect x="171.595" y="255.949" transform="matrix(-0.0319 -0.9995 0.9995 -0.0319 -78.9207 436.0825)" clip-path="url(#SVGID_2_)" fill-rule="evenodd" clip-rule="evenodd" width="0.291" height="0.63"></rect>
		<polygon clip-path="url(#SVGID_2_)" fill-rule="evenodd" clip-rule="evenodd" points="170.835,256.113 170.851,256.113 
			170.852,256.104 		"></polygon>
		<polygon clip-path="url(#SVGID_2_)" fill-rule="evenodd" clip-rule="evenodd" points="170.851,256.113 170.825,256.413 
			170.83,256.4 170.844,256.402 171.43,256.418 171.422,256.127 		"></polygon>
		<polygon clip-path="url(#SVGID_2_)" fill-rule="evenodd" clip-rule="evenodd" points="170.314,256.076 170.264,256.364 
			170.279,256.367 170.825,256.413 170.853,256.104 170.301,256.07 		"></polygon>
		<polygon clip-path="url(#SVGID_2_)" fill-rule="evenodd" clip-rule="evenodd" points="169.753,256.299 170.264,256.364 
			170.314,256.076 169.81,255.998 		"></polygon>
		<polygon clip-path="url(#SVGID_2_)" fill-rule="evenodd" clip-rule="evenodd" points="169.318,255.924 169.252,256.208 
			169.268,256.213 169.754,256.299 169.809,255.998 169.303,255.92 		"></polygon>
		<polygon clip-path="url(#SVGID_2_)" fill-rule="evenodd" clip-rule="evenodd" points="168.802,256.103 168.807,256.088 
			169.252,256.208 169.317,255.924 168.872,255.806 		"></polygon>
		<polygon clip-path="url(#SVGID_2_)" fill-rule="evenodd" clip-rule="evenodd" points="168.438,255.693 168.342,255.98 
			168.356,255.984 168.802,256.103 168.872,255.806 168.425,255.688 		"></polygon>
		<polygon clip-path="url(#SVGID_2_)" fill-rule="evenodd" clip-rule="evenodd" points="167.91,255.82 167.923,255.824 
			168.341,255.98 168.438,255.693 168.033,255.543 		"></polygon>
		<polygon clip-path="url(#SVGID_2_)" fill-rule="evenodd" clip-rule="evenodd" points="168.019,255.539 168.033,255.543 
			168.034,255.542 		"></polygon>
		<polygon clip-path="url(#SVGID_2_)" fill-rule="evenodd" clip-rule="evenodd" points="167.508,255.656 167.911,255.82 
			168.034,255.542 167.633,255.377 		"></polygon>
		<polygon clip-path="url(#SVGID_2_)" fill-rule="evenodd" clip-rule="evenodd" points="167.126,255.482 167.508,255.656 
			167.632,255.377 167.244,255.216 		"></polygon>
		<polygon clip-path="url(#SVGID_2_)" fill-rule="evenodd" clip-rule="evenodd" points="166.735,255.292 166.743,255.31 
			167.126,255.482 167.244,255.216 166.866,255.035 		"></polygon>
		<polygon clip-path="url(#SVGID_2_)" fill-rule="evenodd" clip-rule="evenodd" points="166.729,255.304 166.735,255.292 
			166.734,255.29 		"></polygon>
		<polygon clip-path="url(#SVGID_2_)" fill-rule="evenodd" clip-rule="evenodd" points="166.854,255.029 166.866,255.035 
			166.867,255.033 		"></polygon>
		<polygon clip-path="url(#SVGID_2_)" fill-rule="evenodd" clip-rule="evenodd" points="166.353,255.118 166.358,255.106 
			166.357,255.105 		"></polygon>
		<polygon clip-path="url(#SVGID_2_)" fill-rule="evenodd" clip-rule="evenodd" points="166.358,255.106 166.73,255.304 
			166.867,255.033 166.488,254.845 		"></polygon>
		<polygon clip-path="url(#SVGID_2_)" fill-rule="evenodd" clip-rule="evenodd" points="165.968,254.901 165.983,254.904 
			166.353,255.118 166.488,254.845 166.116,254.646 		"></polygon>
		<polygon clip-path="url(#SVGID_2_)" fill-rule="evenodd" clip-rule="evenodd" points="165.595,254.699 165.968,254.901 
			166.116,254.646 165.742,254.443 		"></polygon>
		<polygon clip-path="url(#SVGID_2_)" fill-rule="evenodd" clip-rule="evenodd" points="165.144,254.322 165.418,254.411 
			165.208,254.494 165.595,254.698 165.742,254.443 165.355,254.239 		"></polygon>
		<polygon clip-path="url(#SVGID_2_)" fill-rule="evenodd" clip-rule="evenodd" points="207.467,251.409 207.376,251.273 
			207.302,251.125 207.184,250.98 207.062,250.848 206.934,250.73 206.792,250.607 206.646,250.497 206.506,250.418 
			206.368,250.329 206.207,250.26 206.067,250.182 205.932,250.137 205.808,250.096 205.662,250.078 205.53,250.066 
			205.402,250.083 205.275,250.101 205.139,250.146 205.02,250.228 204.902,250.31 204.036,252.587 206.863,253.53 207.521,252.018 
			207.539,251.874 207.544,251.722 207.521,251.562 		"></polygon>
		<polygon clip-path="url(#SVGID_2_)" fill-rule="evenodd" clip-rule="evenodd" points="206.914,253.38 204.085,252.437 
			203.99,252.724 206.819,253.666 207.01,253.594 206.737,253.458 		"></polygon>
		<polygon clip-path="url(#SVGID_2_)" points="163.114,251.851 163.099,251.893 163.096,251.998 163.099,252.03 163.392,251.974 
			163.396,252.006 163.413,251.916 164.249,249.678 163.976,249.587 		"></polygon>
		<polygon clip-path="url(#SVGID_2_)" fill="#4D494A" points="176.918,257.28 176.969,257.25 176.914,257.276 		"></polygon>
		<path clip-path="url(#SVGID_2_)" d="M208.738,252.587l-0.019,0.014l-0.12-0.086l-0.119,0.28l-0.081,0.047l-0.104,0.043
			l-0.123,0.049l-0.114,0.022l-0.145,0.028l-0.146,0.026l-27.375,2.04l-0.174,0.017l-0.168,0.006l-0.167,0.004l-0.178,0.029h-0.183
			l-0.158,0.025l-0.174,0.018l-0.158,0.022l-0.179,0.033l-0.16,0.021l-0.162,0.036l-0.183,0.047l-0.165,0.035l-0.174,0.063
			l-0.173,0.065l-0.163,0.081l-0.324,0.195l-0.329,0.301l-0.346,0.355l-0.333,0.405l-0.323,0.423l-0.278,0.378l-0.273,0.364
			l-0.227,0.274l-0.134,0.03l-0.113,0.024l-0.143,0.013h-0.137h-0.137l-0.117-0.009l-0.151-0.006l-0.133-0.014l-2.512-7.579
			l-0.055-0.108l-0.086-0.106l-0.123-0.085l-0.165-0.101l-0.16-0.068l-0.164-0.056l-0.155-0.036l-0.151-0.004l-6.335,0.193
			l-0.761,2.002l-0.004-0.026l-0.3,0.083l0.03,0.132l0.006-0.015l0.221-0.045l-0.057,0.146l6.341-0.207l0.149,0.005l0.164,0.056
			l0.165,0.053l0.162,0.057l0.152,0.094l0.123,0.087l0.087,0.106l0.053,0.104l-0.149,0.047l2.521,7.597l0.15,0.001l0.002,0.095
			h0.228l0.214-0.005l0.196,0.005l0.178-0.032l0.181-0.047l0.183-0.089l0.168-0.142l0.2-0.191l0.004-0.016l0.116-0.157l0.131-0.169
			l0.151-0.177l0.105-0.179l0.132-0.214l0.137-0.182l0.111-0.204l0.147-0.212l0.118-0.172l0.169-0.187l0.138-0.182l0.158-0.16
			l0.141-0.149l0.151-0.133l0.145-0.117l0.17-0.095l0.036-0.02l-0.109-0.104l0.109,0.104l0.169-0.187l0.154-0.146l0.137-0.136
			l0.146-0.12l0.143-0.103l0.147-0.088l0.133-0.077l0.146-0.072l0.163-0.037l0.161-0.066l0.164-0.038l0.19-0.027l0.209-0.036
			l0.233-0.014l0.252-0.021l0.245-0.011l0.015,0.006l27.362-2.045l0.159-0.02l0.146-0.03l0.132-0.03l0.138-0.046l0.128-0.063
			l0.132-0.078l0.108-0.1l0.128-0.11l0.027-0.035l0.479-1.115l-0.251-0.161L208.738,252.587z M208.846,252.689l-0.112-0.08
			l0.008-0.02L208.846,252.689z"></path>
		<polygon clip-path="url(#SVGID_2_)" fill-rule="evenodd" clip-rule="evenodd" points="208.533,252.583 208.432,252.658 
			208.335,252.716 208.232,252.756 208.131,252.784 208.012,252.82 207.885,252.838 207.744,252.852 207.775,253.167 
			207.939,253.129 208.084,253.103 208.218,253.07 208.354,253.025 208.481,252.961 208.614,252.885 208.718,252.798 
			208.846,252.689 208.63,252.478 		"></polygon>
		<polygon clip-path="url(#SVGID_2_)" fill-rule="evenodd" clip-rule="evenodd" points="180.382,254.896 180.417,255.197 
			207.775,253.167 207.744,252.852 		"></polygon>
		<polygon clip-path="url(#SVGID_2_)" fill-rule="evenodd" clip-rule="evenodd" points="180.208,254.916 180.037,254.931 
			179.854,254.931 179.681,254.95 179.511,254.956 179.348,254.992 179.178,254.996 178.992,255.009 178.827,255.045 
			178.665,255.082 178.487,255.114 178.304,255.159 178.15,255.213 177.963,255.272 177.777,255.332 177.611,255.414 
			177.734,255.683 177.894,255.615 178.049,255.559 178.237,255.5 178.391,255.446 178.559,255.398 178.719,255.375 178.879,255.35 
			179.056,255.32 179.203,255.29 179.37,255.288 179.543,255.269 179.716,255.25 179.889,255.233 180.043,255.224 180.231,255.21 
			180.417,255.197 180.383,254.896 		"></polygon>
		<polygon clip-path="url(#SVGID_2_)" fill-rule="evenodd" clip-rule="evenodd" points="177.424,255.519 177.265,255.631 
			177.079,255.783 176.902,255.952 176.737,256.125 176.573,256.297 176.392,256.525 176.23,256.729 176.072,256.934 
			175.913,257.139 175.772,257.335 175.615,257.526 175.479,257.708 175.348,257.876 175.239,258.023 175.138,258.141 
			175.193,258.112 175.284,258.386 175.344,258.346 175.466,258.204 175.574,258.059 175.706,257.891 175.844,257.708 176,257.517 
			176.14,257.321 176.299,257.115 176.459,256.913 176.623,256.693 176.792,256.506 176.957,256.333 177.125,256.146 
			177.265,255.996 177.443,255.875 177.589,255.755 177.734,255.683 177.611,255.414 		"></polygon>
		<polygon clip-path="url(#SVGID_2_)" fill-rule="evenodd" clip-rule="evenodd" fill="#FFFFFF" points="165.556,248.674 
			170.038,250.169 170.043,250.156 170.606,250.147 170.653,250.147 165.803,248.529 		"></polygon>
		<polygon clip-path="url(#SVGID_2_)" fill-rule="evenodd" clip-rule="evenodd" fill="#FFFFFF" points="170.038,250.169 
			170.043,250.156 170,250.157 		"></polygon>
		<polygon clip-path="url(#SVGID_2_)" fill-rule="evenodd" clip-rule="evenodd" fill="#FFFFFF" points="165.529,248.664 
			165.279,248.825 165.015,248.979 164.75,249.134 164.487,249.289 164.249,249.451 164.148,249.525 164.111,249.634 
			164.111,249.726 164.136,249.84 164.181,249.977 164.217,250.095 164.249,250.226 164.271,250.34 170,250.157 165.556,248.674 		
			"></polygon>
		<polygon clip-path="url(#SVGID_2_)" fill="#FFFFFF" points="172.003,254.059 170.465,253.44 166.534,253.661 165.158,253.733 
			165.182,253.893 165.218,254.056 165.245,254.203 165.282,254.366 165.67,254.572 166.042,254.772 166.416,254.973 
			166.808,255.165 167.186,255.35 167.567,255.523 167.975,255.674 168.393,255.83 168.838,255.949 169.285,256.068 
			169.773,256.153 170.296,256.222 170.834,256.25 171.422,256.262 172.06,256.262 172.711,256.222 172.546,255.667 		"></polygon>
		<polygon clip-path="url(#SVGID_2_)" fill-rule="evenodd" clip-rule="evenodd" fill="#FFFFFF" points="176.456,254.146 
			176.493,254.175 176.437,254.111 		"></polygon>
		<polygon clip-path="url(#SVGID_2_)" fill-rule="evenodd" clip-rule="evenodd" fill="#FFFFFF" points="176.706,253.988 
			176.437,254.111 176.493,254.175 176.998,254.48 177.161,254.217 176.655,253.911 		"></polygon>
		<polygon clip-path="url(#SVGID_2_)" fill-rule="evenodd" clip-rule="evenodd" fill="#FFFFFF" points="172.063,253.926 
			171.941,254.206 171.855,254.1 172.576,256.267 172.86,256.18 172.142,254.011 		"></polygon>
		<polygon clip-path="url(#SVGID_2_)" fill-rule="evenodd" clip-rule="evenodd" fill="#FFFFFF" points="172.119,253.945 
			172.063,253.926 172.142,254.011 		"></polygon>
		<polygon clip-path="url(#SVGID_2_)" fill-rule="evenodd" clip-rule="evenodd" fill="#FFFFFF" points="170.502,253.285 
			170.469,253.29 170.53,253.293 		"></polygon>
		<polygon clip-path="url(#SVGID_2_)" fill-rule="evenodd" clip-rule="evenodd" fill="#FFFFFF" points="170.469,253.29 
			170.48,253.582 170.406,253.571 171.942,254.206 172.063,253.926 170.53,253.293 		"></polygon>
		<polygon clip-path="url(#SVGID_2_)" fill-rule="evenodd" clip-rule="evenodd" fill="#FFFFFF" points="164.99,253.6 
			165.019,253.746 165.16,253.596 		"></polygon>
		<polygon clip-path="url(#SVGID_2_)" fill-rule="evenodd" clip-rule="evenodd" fill="#FFFFFF" points="165.16,253.596 
			165.019,253.746 165.313,253.726 165.168,253.888 170.479,253.582 170.47,253.29 		"></polygon>
		<polygon clip-path="url(#SVGID_2_)" fill-rule="evenodd" clip-rule="evenodd" fill="#FFFFFF" points="165.392,254.175 
			165.386,254.098 165.364,254.029 165.359,253.953 165.341,253.871 165.318,253.802 165.313,253.726 165.019,253.746 
			165.018,253.837 165.031,253.933 165.054,254 165.06,254.078 165.081,254.146 165.1,254.23 165.131,254.316 165.136,254.394 
			165.208,254.494 165.355,254.239 165.414,254.333 165.41,254.256 		"></polygon>
		<polygon clip-path="url(#SVGID_2_)" fill-rule="evenodd" clip-rule="evenodd" fill="#FFFFFF" points="165.158,254.461 
			165.208,254.494 165.136,254.394 		"></polygon>
		<polygon clip-path="url(#SVGID_2_)" fill-rule="evenodd" clip-rule="evenodd" fill="#FFFFFF" points="172.575,256.267 
			172.577,256.252 172.701,256.068 172.049,256.109 171.421,256.127 170.852,256.104 170.301,256.07 169.809,255.998 
			169.317,255.924 168.871,255.806 168.438,255.693 168.019,255.538 167.633,255.377 167.244,255.216 166.867,255.033 
			166.489,254.845 166.116,254.646 165.742,254.443 165.355,254.239 165.208,254.494 165.595,254.699 165.969,254.901 
			166.353,255.118 166.729,255.304 167.126,255.482 167.508,255.656 167.923,255.824 168.341,255.98 168.802,256.103 
			169.253,256.208 169.753,256.299 170.278,256.367 170.825,256.413 171.431,256.418 172.06,256.4 172.737,256.368 172.861,256.18 
					"></polygon>
		<polygon clip-path="url(#SVGID_2_)" fill-rule="evenodd" clip-rule="evenodd" fill="#FFFFFF" points="172.737,256.368 
			172.925,256.354 172.861,256.18 		"></polygon>
		<polygon clip-path="url(#SVGID_2_)" fill-rule="evenodd" clip-rule="evenodd" fill="#FFFFFF" points="180.182,254.905 
			179.958,254.937 179.758,254.944 179.54,254.962 179.33,255 179.106,255.033 178.883,255.064 178.668,255.114 178.454,255.165 
			178.268,255.223 178.062,255.29 177.872,255.364 177.707,255.446 177.512,255.532 177.352,255.647 177.205,255.764 
			177.389,255.994 177.53,255.887 177.667,255.794 177.816,255.709 177.989,255.647 178.159,255.551 178.34,255.504 
			178.555,255.456 178.741,255.397 178.947,255.375 179.129,255.328 179.349,255.31 179.557,255.274 179.781,255.242 
			179.999,255.223 180.203,255.201 180.417,255.197 180.382,254.896 		"></polygon>
		<polygon clip-path="url(#SVGID_2_)" fill-rule="evenodd" clip-rule="evenodd" fill="#FFFFFF" points="180.382,254.896 
			180.417,255.197 207.775,253.167 207.743,252.852 		"></polygon>
		<polygon clip-path="url(#SVGID_2_)" fill-rule="evenodd" clip-rule="evenodd" fill="#FFFFFF" points="208.95,251.874 
			208.891,251.688 208.823,251.526 208.731,251.344 208.614,251.154 208.496,251.008 208.254,251.184 208.368,251.344 
			208.487,251.492 208.541,251.645 208.627,251.796 208.673,251.933 208.688,252.073 208.69,252.196 208.682,252.314 
			208.65,252.411 208.604,252.502 208.545,252.588 208.44,252.675 208.331,252.731 208.157,252.793 207.975,252.838 
			207.744,252.852 207.775,253.167 208.025,253.143 208.244,253.08 208.435,253.005 208.604,252.913 208.759,252.811 
			208.868,252.665 208.928,252.533 208.981,252.37 208.979,252.201 208.987,252.038 		"></polygon>
		<polygon clip-path="url(#SVGID_2_)" fill-rule="evenodd" clip-rule="evenodd" fill="#FFFFFF" points="208.194,250.681 
			208.035,250.519 207.857,250.37 207.662,250.229 207.467,250.089 207.266,249.959 207.039,249.823 206.802,249.714 
			206.56,249.618 206.313,249.537 206.055,249.449 205.8,249.393 205.538,249.353 205.242,249.331 204.984,249.333 204.992,249.627 
			205.238,249.618 205.489,249.641 205.744,249.696 205.989,249.733 206.223,249.81 206.456,249.887 206.679,249.993 
			206.889,250.093 207.106,250.21 207.307,250.338 207.521,250.471 207.676,250.597 207.839,250.744 208,250.903 208.132,251.053 
			208.255,251.184 208.496,251.008 208.354,250.839 		"></polygon>
		<polygon clip-path="url(#SVGID_2_)" fill-rule="evenodd" clip-rule="evenodd" fill="#FFFFFF" points="180.788,250.173 
			180.784,250.46 204.993,249.627 204.984,249.333 		"></polygon>
		<polygon clip-path="url(#SVGID_2_)" fill-rule="evenodd" clip-rule="evenodd" fill="#FFFFFF" points="176.958,249.867 
			176.962,249.852 176.962,249.852 		"></polygon>
		<polygon clip-path="url(#SVGID_2_)" fill-rule="evenodd" clip-rule="evenodd" fill="#FFFFFF" points="180.336,250.16 
			180.127,250.151 179.89,250.133 179.653,250.114 179.417,250.095 179.184,250.063 178.939,250.027 178.697,249.977 
			178.465,249.945 178.229,249.882 177.983,249.845 177.746,249.78 177.494,249.712 177.284,249.658 177.053,249.581 
			176.962,249.852 177.189,249.945 177.431,249.995 177.664,250.072 177.905,250.122 178.159,250.177 178.396,250.242 
			178.655,250.282 178.888,250.314 179.13,250.365 179.38,250.386 179.625,250.423 179.868,250.426 180.1,250.459 180.346,250.451 
			180.568,250.465 180.784,250.46 180.788,250.173 180.559,250.173 		"></polygon>
		<polygon clip-path="url(#SVGID_2_)" fill-rule="evenodd" clip-rule="evenodd" fill="#FFFFFF" points="176.402,249.348 
			176.131,249.242 175.85,249.133 175.591,249 175.367,248.895 175.14,248.758 174.917,248.655 174.698,248.537 174.493,248.422 
			174.302,248.313 174.102,248.184 173.91,248.076 173.714,247.98 173.518,247.885 173.34,247.779 173.145,247.684 172.931,247.597 
			172.73,247.515 172.511,247.443 172.28,247.365 172.038,247.315 171.793,247.278 171.522,247.219 171.246,247.186 
			170.959,247.183 170.625,247.178 170.308,247.177 169.938,247.19 169.563,247.218 169.168,247.267 168.758,247.314 
			168.781,247.608 168.795,247.616 169.21,247.556 169.601,247.519 169.975,247.491 170.316,247.468 170.64,247.455 
			170.931,247.492 171.232,247.501 171.482,247.524 171.743,247.564 171.984,247.617 172.211,247.661 172.417,247.73 
			172.635,247.801 172.808,247.875 173.022,247.961 173.19,248.047 173.385,248.145 173.583,248.239 173.774,248.35 
			173.965,248.459 174.157,248.567 174.357,248.697 174.553,248.792 174.766,248.923 175.003,249.034 175.23,249.17 175.487,249.27 
			175.732,249.398 176.009,249.52 176.311,249.622 176.631,249.756 176.958,249.867 177.053,249.581 176.725,249.47 		"></polygon>
		<polygon clip-path="url(#SVGID_2_)" fill-rule="evenodd" clip-rule="evenodd" fill="#FFFFFF" points="168.417,247.38 
			168.094,247.442 167.774,247.53 167.473,247.613 167.174,247.74 166.863,247.85 166.583,247.969 166.294,248.101 166.003,248.247 
			165.725,248.396 165.465,248.537 165.2,248.692 164.936,248.847 164.672,249 164.422,249.161 164.172,249.32 164.312,249.581 
			164.327,249.585 164.562,249.42 164.827,249.265 165.092,249.112 165.359,248.943 165.606,248.797 165.885,248.646 
			166.145,248.505 166.412,248.383 166.701,248.251 166.986,248.119 167.269,248.001 167.56,247.9 167.875,247.824 168.162,247.737 
			168.476,247.661 168.782,247.608 168.758,247.314 		"></polygon>
		<polygon clip-path="url(#SVGID_2_)" fill-rule="evenodd" clip-rule="evenodd" fill="#FFFFFF" points="164.13,250.49 
			164.267,250.49 164.125,250.368 		"></polygon>
		<polygon clip-path="url(#SVGID_2_)" fill-rule="evenodd" clip-rule="evenodd" fill="#FFFFFF" points="164.354,250.048 
			164.317,249.93 164.285,249.799 164.267,249.715 164.252,249.666 164.276,249.598 164.312,249.581 164.171,249.32 164.04,249.442 
			163.971,249.602 163.952,249.749 163.999,249.884 164.03,250.017 164.067,250.135 164.104,250.252 164.125,250.368 
			164.267,250.49 164.271,250.205 164.426,250.331 164.381,250.194 		"></polygon>
		<polygon clip-path="url(#SVGID_2_)" fill="#FFFFFF" points="175.45,251.293 175.454,251.279 175.448,251.292 		"></polygon>
		<polygon clip-path="url(#SVGID_2_)" fill="#FFFFFF" points="175.413,251.447 175.449,251.292 175.385,251.346 		"></polygon>
		<polygon clip-path="url(#SVGID_2_)" fill="#FFFFFF" points="179.573,253.351 183.908,254.795 183.912,254.784 184.453,254.751 
			179.461,253.085 		"></polygon>
		<path clip-path="url(#SVGID_2_)" fill="#FFFFFF" d="M208.601,251.421l-0.225-0.332l-0.132-0.149l-0.145-0.155l-0.159-0.158
			l-0.168-0.134l-0.178-0.15l-0.2-0.127l-0.214-0.133l-0.214-0.132l-0.229-0.092l-0.224-0.104l-0.245-0.082l-0.261-0.085
			l-0.244-0.036l-0.256-0.056l-0.266-0.028l-0.258,0.006l-3.521,0.129l-20.676,0.708h-0.229l-0.213,0.003l-0.242-0.003l-0.23-0.031
			l-0.238-0.019l-0.236-0.019l-0.232-0.033l-0.248-0.036l-0.246-0.036l-0.241-0.05l-0.241-0.052l-0.241-0.05l-0.25-0.066
			l-0.236-0.066l-0.225-0.059l-0.232-0.076l-0.329-0.11l-0.321-0.124l-0.283-0.108l-0.281-0.109l-0.248-0.127l-0.236-0.109
			l-0.245-0.129l-0.225-0.104l-0.213-0.132l-0.191-0.109l-0.206-0.113l-0.19-0.109l-0.206-0.113l-0.189-0.111l-0.184-0.09
			l-0.191-0.11l-0.195-0.095l-0.202-0.082l-0.19-0.065l-0.218-0.072l-0.233-0.077l-0.222-0.061l-0.248-0.035l-0.259-0.041
			l-0.265-0.028l-0.296-0.021l-0.315-0.015l-0.321,0.015l-0.339,0.008l-0.377,0.04l-0.392,0.037l-0.427,0.055l-0.32,0.045
			l-0.315,0.077l-0.315,0.077l-0.291,0.102l-0.309,0.109l-0.296,0.112l-0.282,0.118l-0.287,0.132l-0.274,0.137l-0.278,0.151
			l4.424,1.476l-5.956,0.2l-0.004,0.284l6.34-0.206l0.133,0.014l0.122,0.042l0.166,0.054l0.149,0.051l0.136,0.092l0.1,0.062
			l0.059,0.097l0.046,0.046l2.521,7.596l0.037,0.118l0.123-0.004l0.128-0.018l0.146,0.018l0.178,0.015l0.167-0.005l0.165,0.01
			l0.151-0.041l0.167-0.05l0.138-0.091l0.164-0.176l0.137-0.181l0.127-0.154l0.128-0.153l0.109-0.147l0.104-0.133l0.091-0.135
			l0.11-0.146l0.091-0.137l0.104-0.131l0.105-0.134l0.113-0.113l0.119-0.128l0.137-0.136l0.137-0.138l0.172-0.152l-0.092-0.116
			l0.137-0.113l0.157-0.099l0.178-0.078l0.163-0.083l0.177-0.076l0.2-0.056l0.206-0.068l0.2-0.054l0.192-0.027l0.209-0.038
			l0.223-0.03l0.21-0.036l0.218-0.019l0.219-0.019l0.205-0.022l0.201-0.008l3.517-0.256l-4.334-1.444l-0.112-0.266l4.991,1.666
			l23.312-1.74l0.435-0.067l0.324-0.15l0.224-0.214l0.08-0.246v-0.272l0.005-0.015l-0.077-0.314L208.601,251.421z M179.613,253.834
			l-0.097-0.078L179.613,253.834z M179.295,254.039l-2.233,0.159l0.098,0.02l-0.074,0.12l-0.011,0.002l-0.496-0.286l-0.003-0.006
			l0.13-0.06l-0.972-2.56l0.16-0.162l2.08-0.119l0.44,0.229l1.043,2.455L179.295,254.039z M207.512,251.865l-0.032,0.141
			l-0.102,0.118l-0.144,0.073l-0.197,0.04l-0.109,0.01l-0.112-0.024l-0.133-0.013l-0.142-0.031l-0.123-0.041l-0.136-0.047
			l-0.145-0.062l-0.13-0.074l-0.132-0.06l-0.143-0.077l-0.123-0.086l-0.116-0.102l-0.11-0.082l-0.113-0.112l-0.101-0.11
			l-0.086-0.105l-0.141-0.215l-0.082-0.207l-0.023-0.069l-0.021-0.113l0.026-0.174l0.06-0.132l0.108-0.1l0.163-0.082l0.192-0.027
			l0.104,0.005l0.12,0.009l0.112,0.022l0.114,0.022l0.137,0.047l0.123,0.041l0.132,0.059l0.143,0.077l0.117,0.055l0.123,0.087
			l0.109,0.082l0.119,0.101l0.123,0.085l0.085,0.105l0.106,0.096l0.086,0.104l0.158,0.206l0.082,0.21l0.041,0.105l0.023,0.068
			L207.512,251.865z"></path>
		<polygon clip-path="url(#SVGID_2_)" fill-rule="evenodd" clip-rule="evenodd" points="203.439,251.961 203.256,252.007 
			203.279,252.123 203.406,252.195 203.366,251.998 203.477,252.082 		"></polygon>
		<polygon clip-path="url(#SVGID_2_)" fill-rule="evenodd" clip-rule="evenodd" points="203.649,252.063 203.654,252.049 
			203.646,252.061 		"></polygon>
		<polygon clip-path="url(#SVGID_2_)" fill-rule="evenodd" clip-rule="evenodd" points="203.489,251.95 203.484,251.961 
			203.436,251.976 203.394,252.007 203.367,251.999 203.406,252.195 203.472,252.185 203.524,252.159 203.581,252.13 
			203.626,252.086 203.646,252.061 203.48,251.976 		"></polygon>
		<polygon clip-path="url(#SVGID_2_)" fill-rule="evenodd" clip-rule="evenodd" points="203.653,251.548 203.566,251.398 
			203.462,251.257 203.353,251.129 203.239,251.016 203.153,250.911 203.139,250.906 203.016,251.047 203.002,251.042 
			203.088,251.148 203.204,251.261 203.304,251.372 203.394,251.508 203.477,251.625 203.509,251.758 203.516,251.867 
			203.48,251.976 203.649,252.063 203.703,251.899 203.702,251.718 		"></polygon>
		<polygon clip-path="url(#SVGID_2_)" fill-rule="evenodd" clip-rule="evenodd" points="202.742,250.637 202.546,250.541 
			202.337,250.486 202.133,250.462 201.919,250.422 201.69,250.422 201.448,250.417 201.464,250.422 201.443,250.432 
			201.478,250.61 201.472,250.624 201.686,250.619 201.896,250.627 202.1,250.651 202.301,250.686 202.483,250.733 202.651,250.819 
			202.829,250.923 203.016,251.047 203.139,250.906 202.947,250.75 		"></polygon>
		<polygon clip-path="url(#SVGID_2_)" fill-rule="evenodd" clip-rule="evenodd" points="183.767,251.303 183.689,251.355 
			183.872,251.445 183.794,251.496 201.477,250.61 201.444,250.432 		"></polygon>
		<polygon clip-path="url(#SVGID_2_)" fill-rule="evenodd" clip-rule="evenodd" points="183.611,251.314 183.474,251.359 
			183.351,251.409 183.256,251.468 183.183,251.55 183.128,251.668 183.093,251.777 183.078,251.91 183.27,251.973 183.093,251.867 
			183.285,251.932 183.279,251.81 183.307,251.727 183.357,251.668 183.387,251.619 183.452,251.563 183.516,251.555 
			183.646,251.523 183.793,251.496 183.767,251.303 		"></polygon>
		<polygon clip-path="url(#SVGID_2_)" points="203.353,251.449 203.188,251.257 203.003,251.042 202.837,250.896 202.661,250.792 
			202.464,250.696 202.251,250.655 202.02,250.624 201.772,250.632 201.477,250.61 183.793,251.496 183.776,251.504 183.72,251.512 
			183.575,251.788 201.257,250.9 201.485,250.9 201.694,250.912 201.91,250.951 202.114,250.974 202.309,251.025 202.496,251.102 
			202.683,251.225 202.866,251.362 202.929,251.443 202.997,251.512 203.061,251.591 203.13,251.662 203.18,251.739 
			203.245,251.821 203.294,251.899 203.353,251.994 203.361,252.022 203.376,252.017 203.49,251.95 203.529,251.872 203.529,251.78 
			203.472,251.639 		"></polygon>
		<path clip-path="url(#SVGID_2_)" d="M203.653,251.548l-0.132-0.195l-0.182-0.229l-0.187-0.213l-0.202-0.175l-0.213-0.13
			l-0.209-0.102l-0.229-0.045l-0.273-0.045h-0.273l-0.311,0.018l-17.677,0.871v0.005l-0.188,0.01l-0.19,0.072l-0.127,0.109
			l-0.087,0.123l-0.059,0.133l-0.037,0.154l0.018,0.172l0.036,0.119l0.05,0.168l0.119,0.192l0.145,0.154l0.187,0.17l0.224,0.149
			l0.251,0.113l0.262,0.071l0.32,0.002l18.165-0.922l0.347-0.036l0.245-0.055l0.179-0.123l0.1-0.165l-0.005-0.167L203.653,251.548z
			 M203.529,251.872l-0.04,0.078l-0.114,0.067l-0.014,0.005l-0.2,0.046l-0.3,0.035l-18.171,0.937l-0.014-0.005l-0.255-0.009
			l-0.25-0.069l-0.224-0.104l-0.19-0.109l-0.16-0.159l-0.113-0.16l-0.1-0.154l-0.078-0.131l-0.014-0.097l-0.008-0.109l0.022-0.114
			l0.007-0.018l0.015-0.004h0.092l0.155-0.01l0.147-0.274l0.054-0.008l0.017-0.009l17.685-0.886l0.295,0.022l0.246-0.009
			l0.232,0.031l0.213,0.041l0.198,0.096l0.176,0.104l0.164,0.146l0.188,0.215l0.162,0.191l0.119,0.19l0.058,0.141V251.872z"></path>
	</g>
</g>
</svg>