<svg version="1.1" id="Layer_1" xmlns="http://www.w3.org/2000/svg" xmlns:xlink="http://www.w3.org/1999/xlink" x="0px" y="0px" width="1275" height="1125" viewBox="0 0 1275 1125" enable-background="new 0 0 306 270" xml:space="preserve"><g transform="translate(0, 0) scale(4.166666666666667)">
<rect fill="#929497" width="306" height="270"/>
<g>
	<polygon fill="#FFFFFF" stroke="#EB242B" stroke-width="0.8661" points="243.014,166.216 225.014,135.038 243.014,103.859    279.016,103.859 297.016,135.038 279.016,166.216  "/>
	<polygon fill="none" stroke="#00AEEF" stroke-width="0.8661" stroke-dasharray="2.8865" points="247.513,158.421 234.013,135.038    247.513,111.654 274.515,111.654 288.015,135.038 274.515,158.421  "/>
</g>
<g>
	<polygon fill="#FFFFFF" stroke="#EB242B" stroke-width="0.8661" points="189.026,72.652 171.026,41.474 189.026,10.295    225.029,10.295 243.028,41.474 225.029,72.652  "/>
	<polygon fill="none" stroke="#00AEEF" stroke-width="0.8661" stroke-dasharray="2.8865" points="193.525,64.857 180.027,41.474    193.525,18.09 220.527,18.09 234.029,41.474 220.527,64.857  "/>
</g>
<g>
	<polygon fill="#FFFFFF" stroke="#EB242B" stroke-width="0.8661" points="135.005,103.831 117.006,72.652 135.005,41.474    171.008,41.474 189.008,72.652 171.008,103.831  "/>
	<polygon fill="none" stroke="#00AEEF" stroke-width="0.8661" stroke-dasharray="2.8865" points="139.505,96.036 126.006,72.652    139.505,49.269 166.507,49.269 180.007,72.652 166.507,96.036  "/>
</g>
<g>
	<polygon fill="#FFFFFF" stroke="#EB242B" stroke-width="0.8661" points="189.02,135.009 171.021,103.831 189.02,72.652    225.022,72.652 243.021,103.831 225.022,135.009  "/>
	<polygon fill="none" stroke="#00AEEF" stroke-width="0.8661" stroke-dasharray="2.8865" points="193.519,127.214 180.021,103.831    193.519,80.447 220.521,80.447 234.022,103.831 220.521,127.214  "/>
</g>
<g>
	<polygon fill="#FFFFFF" stroke="#EB242B" stroke-width="0.8661" points="134.999,166.187 116.999,135.009 134.999,103.831    171.001,103.831 189.001,135.009 171.001,166.187  "/>
	<polygon fill="none" stroke="#00AEEF" stroke-width="0.8661" stroke-dasharray="2.8865" points="139.498,158.393 126,135.009    139.498,111.625 166.5,111.625 180,135.009 166.5,158.393  "/>
</g>
<g>
	<polygon fill="#FFFFFF" stroke="#EB242B" stroke-width="0.8661" points="189.013,197.365 171.015,166.187 189.013,135.009    225.016,135.009 243.015,166.187 225.016,197.365  "/>
	<polygon fill="none" stroke="#00AEEF" stroke-width="0.8661" stroke-dasharray="2.8865" points="193.512,189.57 180.014,166.187    193.512,142.803 220.514,142.803 234.016,166.187 220.514,189.57  "/>
</g>
<g>
	<polygon fill="#FFFFFF" stroke="#EB242B" stroke-width="0.8661" points="134.992,228.543 116.992,197.365 134.992,166.187    170.994,166.187 188.994,197.365 170.994,228.543  "/>
	<polygon fill="none" stroke="#00AEEF" stroke-width="0.8661" stroke-dasharray="2.8865" points="139.491,220.749 125.993,197.365    139.491,173.981 166.493,173.981 179.995,197.365 166.493,220.749  "/>
</g>
<g>
	<polygon fill="#FFFFFF" stroke="#EB242B" stroke-width="0.8661" points="189.008,259.722 171.008,228.543 189.008,197.365    225.01,197.365 243.01,228.543 225.01,259.722  "/>
	<polygon fill="none" stroke="#00AEEF" stroke-width="0.8661" stroke-dasharray="2.8865" points="193.507,251.927 180.007,228.543    193.507,205.16 220.509,205.16 234.009,228.543 220.509,251.927  "/>
</g>
<g>
	<polygon fill="#FFFFFF" stroke="#EB242B" stroke-width="0.8661" points="81.012,72.634 63.012,41.456 81.012,10.278    117.014,10.278 135.014,41.456 117.014,72.634  "/>
	<polygon fill="none" stroke="#00AEEF" stroke-width="0.8661" stroke-dasharray="2.8865" points="85.511,64.84 72.013,41.456    85.511,18.072 112.513,18.072 126.015,41.456 112.513,64.84  "/>
</g>
<g>
	<polygon fill="#FFFFFF" stroke="#EB242B" stroke-width="0.8661" points="81.005,134.991 63.005,103.813 81.005,72.634    117.008,72.634 135.007,103.813 117.008,134.991  "/>
	<polygon fill="none" stroke="#00AEEF" stroke-width="0.8661" stroke-dasharray="2.8865" points="85.504,127.196 72.006,103.813    85.504,80.429 112.506,80.429 126.008,103.813 112.506,127.196  "/>
</g>
<g>
	<polygon fill="#FFFFFF" stroke="#EB242B" stroke-width="0.8661" points="26.984,166.168 8.984,134.991 26.984,103.813    62.987,103.813 80.986,134.991 62.987,166.168  "/>
	<polygon fill="none" stroke="#00AEEF" stroke-width="0.8661" stroke-dasharray="2.8865" points="31.484,158.374 17.983,134.991    31.484,111.607 58.486,111.607 71.986,134.991 58.486,158.374  "/>
</g>
<g>
	<polygon fill="#FFFFFF" stroke="#EB242B" stroke-width="0.8661" points="80.998,197.347 62.999,166.168 80.998,134.991    117.001,134.991 135,166.168 117.001,197.347  "/>
	<polygon fill="none" stroke="#00AEEF" stroke-width="0.8661" stroke-dasharray="2.8865" points="85.498,189.552 71.999,166.168    85.498,142.784 112.5,142.784 126.001,166.168 112.5,189.552  "/>
</g>
<g>
	<polygon fill="#FFFFFF" stroke="#EB242B" stroke-width="0.8661" points="80.993,259.703 62.994,228.524 80.993,197.347    116.996,197.347 134.995,228.524 116.996,259.703  "/>
	<polygon fill="none" stroke="#00AEEF" stroke-width="0.8661" stroke-dasharray="2.8865" points="85.493,251.908 71.993,228.524    85.493,205.141 112.495,205.141 125.995,228.524 112.495,251.908  "/>
</g>
<line fill="#FFFFFF" stroke="#000000" stroke-width="0.8661" x1="80.986" y1="135.038" x2="62.987" y2="166.216"/>
<line fill="#FFFFFF" stroke="#000000" stroke-width="0.8661" x1="62.987" y1="103.86" x2="80.986" y2="135.038"/>
<line fill="#FFFFFF" stroke="#000000" stroke-width="0.8661" x1="117.001" y1="197.394" x2="80.998" y2="197.394"/>
<line fill="#FFFFFF" stroke="#000000" stroke-width="0.8661" x1="135" y1="166.216" x2="117.001" y2="197.394"/>
<line fill="#FFFFFF" stroke="#000000" stroke-width="0.8661" x1="117.001" y1="135.038" x2="135" y2="166.216"/>
<line fill="#FFFFFF" stroke="#000000" stroke-width="0.8661" x1="80.998" y1="135.038" x2="117.001" y2="135.038"/>
<line fill="#FFFFFF" stroke="#000000" stroke-width="0.8661" x1="116.996" y1="197.394" x2="134.995" y2="228.572"/>
<line fill="#FFFFFF" stroke="#000000" stroke-width="0.8661" x1="189.001" y1="72.67" x2="171.001" y2="103.848"/>
<line fill="#FFFFFF" stroke="#000000" stroke-width="0.8661" x1="171.001" y1="41.492" x2="189.001" y2="72.67"/>
<line fill="#FFFFFF" stroke="#000000" stroke-width="0.8661" x1="189.013" y1="72.67" x2="225.016" y2="72.67"/>
<line fill="#FFFFFF" stroke="#000000" stroke-width="0.8661" x1="170.994" y1="103.848" x2="188.994" y2="135.026"/>
<line fill="#FFFFFF" stroke="#000000" stroke-width="0.8661" x1="134.992" y1="103.848" x2="170.994" y2="103.848"/>
<line fill="#FFFFFF" stroke="#000000" stroke-width="0.8661" x1="135.007" y1="41.474" x2="117.008" y2="72.652"/>
<line fill="#FFFFFF" stroke="#000000" stroke-width="0.8661" x1="135" y1="103.831" x2="117.001" y2="135.009"/>
<line fill="#FFFFFF" stroke="#000000" stroke-width="0.8661" x1="117.001" y1="72.652" x2="135" y2="103.831"/>
<line fill="#FFFFFF" stroke="#000000" stroke-width="0.8661" x1="80.998" y1="72.652" x2="117.001" y2="72.652"/>
<line fill="#FFFFFF" stroke="#000000" stroke-width="0.8661" x1="243.01" y1="103.812" x2="225.01" y2="134.991"/>
<line fill="#FFFFFF" stroke="#000000" stroke-width="0.8661" x1="225.004" y1="197.348" x2="189.001" y2="197.348"/>
<line fill="#FFFFFF" stroke="#000000" stroke-width="0.8661" x1="225.004" y1="134.991" x2="243.003" y2="166.169"/>
<line fill="#FFFFFF" stroke="#000000" stroke-width="0.8661" x1="189.001" y1="134.991" x2="225.004" y2="134.991"/>
<line fill="#FFFFFF" stroke="#000000" stroke-width="0.8661" x1="171.001" y1="166.169" x2="189.001" y2="134.991"/>
<line fill="#FFFFFF" stroke="#000000" stroke-width="0.8661" x1="188.982" y1="197.348" x2="170.982" y2="228.525"/>
<line fill="#FFFFFF" stroke="#000000" stroke-width="0.8661" x1="170.982" y1="166.169" x2="188.982" y2="197.348"/>
<line fill="#FFFFFF" stroke="#000000" stroke-width="0.8661" x1="134.98" y1="166.169" x2="170.982" y2="166.169"/>



<g>
	<path fill="#EB242B" d="M245.844,130.844c0,0.421-0.191,0.832-0.572,1.231l-0.06,0.059l-3.336,3.517   c-0.709,0.745-1.312,1.322-1.811,1.729c-0.498,0.406-0.85,0.61-1.056,0.61c-0.215,0-0.482-0.102-0.804-0.305   c-0.32-0.204-0.527-0.414-0.62-0.63c-0.08-0.181-0.154-0.562-0.224-1.145c-0.071-0.583-0.105-1.215-0.105-1.896   c0-0.371,0.154-0.715,0.464-1.03c0.31-0.314,0.651-0.472,1.025-0.472c0.356,0,0.568,0.326,0.637,0.978   c0.008,0.075,0.013,0.131,0.017,0.167c0.058,0.502,0.124,0.851,0.199,1.048c0.075,0.198,0.179,0.297,0.308,0.297   c0.054,0,0.155-0.059,0.302-0.176c0.147-0.116,0.324-0.275,0.529-0.477l3.427-3.397c0.288-0.289,0.546-0.506,0.772-0.654   c0.227-0.146,0.419-0.222,0.577-0.222c0.118,0,0.203,0.046,0.254,0.136c0.051,0.091,0.076,0.241,0.076,0.454V130.844z"/>
</g>
<g>
	<path fill="#EB242B" d="M13.594,42.865c0,0.421-0.191,0.832-0.572,1.231l-0.06,0.059l-3.336,3.517   c-0.709,0.745-1.312,1.322-1.811,1.729c-0.498,0.406-0.85,0.61-1.056,0.61c-0.215,0-0.482-0.102-0.804-0.305   c-0.32-0.204-0.527-0.414-0.62-0.63c-0.08-0.181-0.154-0.562-0.224-1.145c-0.071-0.583-0.105-1.215-0.105-1.896   c0-0.371,0.154-0.715,0.464-1.03c0.31-0.314,0.651-0.472,1.025-0.472c0.356,0,0.568,0.326,0.637,0.978   c0.008,0.075,0.013,0.131,0.017,0.167c0.058,0.502,0.124,0.851,0.199,1.048c0.075,0.198,0.179,0.297,0.308,0.297   c0.054,0,0.155-0.059,0.302-0.176c0.147-0.116,0.324-0.275,0.529-0.477l3.427-3.397c0.288-0.289,0.546-0.506,0.772-0.654   c0.227-0.146,0.419-0.222,0.577-0.222c0.118,0,0.203,0.046,0.254,0.136c0.051,0.091,0.076,0.241,0.076,0.454V42.865z"/>
</g>
<g>
	<path fill="#EB242B" d="M22.397,185.883c0,0.421-0.191,0.832-0.572,1.231l-0.06,0.059l-3.336,3.517   c-0.709,0.745-1.312,1.322-1.811,1.729c-0.498,0.406-0.85,0.61-1.056,0.61c-0.215,0-0.482-0.102-0.804-0.305   c-0.32-0.204-0.527-0.414-0.62-0.63c-0.08-0.181-0.154-0.562-0.224-1.145c-0.071-0.583-0.105-1.215-0.105-1.896   c0-0.371,0.154-0.715,0.464-1.03c0.31-0.314,0.651-0.472,1.025-0.472c0.356,0,0.568,0.326,0.637,0.978   c0.008,0.075,0.013,0.131,0.017,0.167c0.058,0.502,0.124,0.851,0.199,1.048c0.075,0.198,0.179,0.297,0.308,0.297   c0.054,0,0.155-0.059,0.302-0.176c0.147-0.116,0.324-0.275,0.529-0.477l3.427-3.397c0.288-0.289,0.546-0.506,0.772-0.654   c0.227-0.146,0.419-0.222,0.577-0.222c0.118,0,0.203,0.046,0.254,0.136c0.051,0.091,0.076,0.241,0.076,0.454V185.883z"/>
</g>
<line fill="none" stroke="#ED1C24" stroke-width="0.9645" x1="13.25" y1="51.125" x2="68.332" y2="51.125"/>
<line fill="none" stroke="#00AEEF" stroke-dasharray="3.3329" x1="244.625" y1="139.375" x2="286.125" y2="139.375"/>
<g>
	<ellipse fill-rule="evenodd" clip-rule="evenodd" fill="#010101" cx="269.575" cy="66.859" rx="30.846" ry="30.867"/>
	<ellipse fill-rule="evenodd" clip-rule="evenodd" fill="#B7D334" cx="269.597" cy="67.03" rx="28.041" ry="28.062"/>
	<g>
		<path fill="#010101" d="M263.593,60.911c-0.39,3.44-0.679,6.202-0.871,8.288l-1.278,0.056c0.018-0.069,0.027-0.147,0.03-0.234    c0.002-0.156-0.056-0.361-0.173-0.617c-0.117-0.254-0.185-0.416-0.201-0.486c-0.33,0.046-0.647,0.277-0.95,0.688    c-0.303,0.413-0.576,0.618-0.818,0.614c-0.141-0.002-0.296-0.041-0.469-0.112c-0.228,0.152-0.524,0.216-0.89,0.193    c-0.329-0.058-0.65-0.106-0.963-0.147c-0.01-0.434-0.438-0.816-1.284-1.145c0.002-0.173-0.085-0.432-0.262-0.774    c-0.177-0.343-0.264-0.583-0.261-0.722c0.002-0.157,0.065-0.286,0.189-0.388c-0.018-0.053-0.16-0.377-0.428-0.974    c-0.184-0.437-0.273-0.814-0.268-1.126c0.003-0.244,0.061-0.47,0.168-0.676c-0.148-1.482-0.214-2.753-0.196-3.814    c0.027-1.636,0.262-3.137,0.703-4.505c-0.031-0.208-0.046-0.417-0.042-0.626c0.019-1.096,0.397-1.855,1.134-2.278l0.006-0.339    c0.729-0.928,1.688-1.599,2.878-2.014c0.709,0.169,1.42,0.33,2.13,0.481c0.796,0.274,1.345,0.745,1.646,1.412    c0.24,0.144,0.357,0.433,0.35,0.867c-0.007,0.487,0.048,0.802,0.167,0.943l-0.133,0.155c0.139,1.028,0.207,1.657,0.203,1.882    c-0.012,0.662-0.186,1.128-0.52,1.401c-0.122-0.002-0.442-0.112-0.96-0.329c-0.124,0.119-0.255,0.178-0.394,0.175    c-0.07-0.001-0.196-0.038-0.378-0.111c-0.181-0.072-0.333-0.11-0.454-0.112c-0.087-0.001-0.175,0.015-0.262,0.048    c-0.011-1.375,0.032-2.401,0.13-3.079c-0.138-0.088-0.276-0.292-0.419-0.606c-0.143-0.316-0.327-0.493-0.552-0.531    c-0.142,0.171-0.205,0.283-0.188,0.336l-0.467-0.165c-0.425,0.463-0.708,1.268-0.849,2.413c-0.145,1.32-0.324,2.196-0.54,2.627    c0.187,0.195,0.278,0.467,0.272,0.814c-0.002,0.123-0.022,0.322-0.063,0.6c-0.04,0.278-0.06,0.487-0.062,0.626    c-0.003,0.157,0.011,0.297,0.044,0.418l-0.317,0.308c0.129,0.594,0.204,1.344,0.223,2.249c-0.013,0.766-0.019,1.532-0.013,2.297    c-0.019,0-0.166,0.006-0.444,0.019c-0.174-0.003-0.297,0.056-0.368,0.177c0.105-0.016,0.201-0.023,0.287-0.021    c0.383,0.005,0.683,0.276,0.899,0.811c0.217,0.536,0.403,0.804,0.561,0.807c0.173,0.002,0.411-0.158,0.714-0.484    c0.512-0.548,0.777-1.301,0.793-2.257c0.009-0.47-0.044-0.976-0.156-1.517c-0.125,0.068-0.187,0.241-0.191,0.518    c-0.278-0.004-0.453,0.054-0.525,0.174c-0.12-0.037-0.172-0.133-0.151-0.29c0.021-0.225,0.032-0.347,0.033-0.365    c0.21-0.066,0.313-0.16,0.316-0.282c0.001-0.052-0.036-0.148-0.112-0.289c-0.075-0.141-0.112-0.253-0.111-0.341    c0.002-0.07,0.021-0.139,0.057-0.208l0.121-1.016c0.381,0.111,1.205,0.159,2.476,0.146c-0.037,0.087,0.014,0.201,0.151,0.341    c0.123-0.12,0.254-0.178,0.394-0.176c0.104,0.002,0.26,0.048,0.468,0.139C263.358,60.865,263.506,60.91,263.593,60.911z"/>
		<path fill="#010101" d="M273.326,69.9c-0.241-0.108-0.501-0.165-0.779-0.169c-0.243-0.004-0.575,0.042-0.994,0.14    c-0.471,0.096-0.793,0.15-0.967,0.166c-0.187-0.368-0.316-0.876-0.393-1.521c-0.141-0.941-0.229-1.473-0.259-1.596    c0.054-0.104,0.081-0.19,0.082-0.259c0.004-0.192-0.146-0.363-0.448-0.517c-0.303-0.153-0.451-0.273-0.45-0.361    c0.001-0.104,0.179-0.258,0.529-0.461c-0.085-0.105-0.147-0.319-0.184-0.641c-0.039-0.323-0.118-0.538-0.237-0.645    c-0.212,0.188-0.558,0.309-1.036,0.361c-0.479,0.053-0.799,0.13-0.956,0.231c0.011,1.357-0.213,2.268-0.673,2.729    c-0.242-0.057-0.428,0.036-0.553,0.278c-0.179,0.292-0.33,0.464-0.452,0.514l0.152,0.186c-0.141,0.119-0.367,0.168-0.679,0.145    c-0.488-0.026-0.747-0.038-0.782-0.039l-0.148-0.473l1.699-14.094c0.015-0.887,0.06-1.487,0.135-1.799    c-0.021-0.784,0.161-1.268,0.545-1.452c0.241,0.16,0.545,0.244,0.91,0.25c0.295,0.005,0.758-0.057,1.385-0.186    c0.63-0.128,1.064-0.19,1.309-0.187c0.852,0.015,1.223,0.63,1.117,1.847c-0.087,0.973,0.065,2.255,0.455,3.846    c0.406,1.712,0.603,2.994,0.588,3.847c-0.005,0.261,0.081,0.801,0.06,1.063c-0.369,0.202-0.84,0.324-1.415,0.366    c-0.505,0.026-1.018,0.053-1.541,0.079c-0.134-1.325-0.367-2.921-0.502-4.229c-0.164-1.569-0.368-2.86-0.611-3.873l-0.806,7.451    c-0.062,0.643,0.228,0.97,0.871,0.981c0.208,0.003,0.408-0.046,0.602-0.146c0.158-0.05,0.374,0.068,0.647,0.35    c-0.01,0.54,0.098,0.863,0.322,0.972c0.281-0.188,0.649-0.363,1.104-0.53c0.402-0.149,0.796-0.291,1.182-0.424    c0.22,0.3,0.361,0.746,0.421,1.339c0.072,0.836,0.124,1.325,0.157,1.464c0.028,0.332,0.165,1.047,0.407,2.148    c0.176,0.872,0.26,1.579,0.251,2.119C273.387,69.432,273.365,69.674,273.326,69.9z"/>
		<path fill="#010101" d="M285.338,57.47c-0.02,0.052-0.023,0.356-0.016,0.913c-0.008,0.453-0.066,0.792-0.174,1.016    c-0.128,0.346-0.197,0.84-0.208,1.483c-0.003,0.14,0.002,0.358,0.015,0.654c-0.005,0.295-0.009,0.512-0.011,0.651    c-0.019,1.097-0.206,1.893-0.563,2.392c0.031,0.28,0.043,0.558,0.039,0.836c-0.015,0.87-0.313,2.04-0.894,3.509    c-0.158,0.05-0.29,0.074-0.394,0.072c-0.209-0.004-0.358-0.124-0.451-0.36c-0.092-0.237-0.178-0.46-0.261-0.671    c0.056-1.338,0.029-3.288-0.084-5.848l0.158-0.154c-0.113-0.455-0.165-0.96-0.156-1.517c0.007-0.4,0.056-0.982,0.146-1.746    c0.092-0.764,0.141-1.338,0.146-1.721c0.006-0.243-0.001-0.479-0.013-0.704c-0.599,1.435-1.023,3.863-1.272,7.287l-0.217,0.518    c-0.073,0.173-0.222,0.266-0.447,0.28c-0.069-0.122-0.137-0.185-0.206-0.186c-0.053-0.001-0.146,0.063-0.276,0.191    c-0.134,0.128-0.243,0.182-0.33,0.164l-0.345,0.308c0.153,0.195,0.483,0.217,0.99,0.07c0.401-0.115,0.607,0.036,0.619,0.454    c0.011,0.349-0.085,0.817-0.285,1.405c-0.202,0.587-0.305,1.03-0.31,1.326c-0.003,0.208,0.019,0.418,0.067,0.628l-1.805,0.283    c-0.168-0.352-0.292-0.94-0.374-1.769c-0.081-0.828-0.207-1.417-0.374-1.768c0.105-0.119,0.16-0.249,0.162-0.389    c0.002-0.122-0.046-0.305-0.146-0.55c-0.101-0.245-0.159-0.43-0.174-0.551c-0.015-0.191-0.075-0.654-0.186-1.387    c-0.077-0.593-0.113-1.056-0.107-1.386c0.004-0.174,0.016-0.33,0.036-0.469c0.001-0.122-0.066-0.301-0.2-0.54    c-0.137-0.237-0.202-0.408-0.2-0.513c0.002-0.086,0.037-0.164,0.108-0.23c-0.12-0.143-0.167-0.387-0.144-0.735    c0.022-0.347-0.026-0.592-0.145-0.733c-0.256,0.674-0.392,1.585-0.412,2.734c-0.009,1.601-0.026,2.524-0.047,2.766l0.18,0.16    l-0.185,0.153c0.129,0.629,0.185,1.43,0.167,2.404c-0.047,1.756-0.069,2.575-0.066,2.454c-0.247,0.222-0.589,0.329-1.023,0.321    c-0.538-0.009-0.904,0.038-1.098,0.138c-0.221-0.386-0.325-0.883-0.313-1.493c0.007-0.47,0.088-1.042,0.237-1.719    c-0.236-0.439-0.347-1.05-0.334-1.833c0.004-0.191,0.026-0.556,0.07-1.095c0.024-0.434,0.03-0.756,0.018-0.966    c0.175-0.083,0.263-0.177,0.265-0.282c0.002-0.07-0.053-0.188-0.163-0.356c-0.111-0.167-0.165-0.294-0.164-0.381    c0.002-0.104,0.074-0.208,0.214-0.311l-0.562-8.441c0.335-0.22,0.876-0.325,1.624-0.312c0.816,0.032,1.373-0.011,1.672-0.127    c0.053-0.035,0.112-0.051,0.183-0.05c0.069,0.001,0.151,0.043,0.246,0.122c0.095,0.081,0.159,0.12,0.193,0.121    c0.069,0.001,0.132-0.05,0.186-0.153l0.487,0.479c0.163,0.612,0.317,1.798,0.462,3.557c0.147,1.517,0.38,2.662,0.698,3.432    c0.426-1.541,0.777-2.832,1.057-3.872l0.566-4.131l4.043-0.088c0.014,0.227,0.064,1.436,0.174,2.134    c0.093,0.61,0.138,1.107,0.131,1.489c-0.007,0.436-0.075,0.826-0.202,1.171c0.136,0.195,0.201,0.438,0.195,0.734    C285.554,57.039,285.479,57.28,285.338,57.47z"/>
		<path fill="#010101" d="M293.634,66.617l0.001-0.026c-0.108,0.225-0.174,0.485-0.196,0.78c-0.021,0.191-0.025,0.46-0.014,0.809    c0.011,0.401,0.015,0.68,0.013,0.835c-0.141-0.001-0.696-0.011-1.67-0.027c-0.591-0.011-1.123,0.041-1.594,0.155l-0.487-0.53    c-0.142,0.136-0.194,0.249-0.161,0.337c-0.087-0.021-0.488-0.026-1.199-0.021c-0.558-0.009-0.974-0.069-1.25-0.178    c-0.283,0.292-0.614,0.286-0.991-0.016c-0.138-0.106-0.15-0.287-0.043-0.537c0.108-0.25,0.077-0.438-0.095-0.563    c0.026-0.556,0.103-1.416,0.227-2.581c0.122-1.042,0.188-1.859,0.198-2.45c0.013-0.8-0.043-1.567-0.169-2.299    c0.194-0.189,0.412-0.281,0.655-0.277c0.279,0.004,0.606,0.141,0.985,0.408c0.531,0.375,0.808,0.562,0.825,0.562l0.152,0.186    c0.019-0.052,0.11-0.329,0.275-0.831c0.092-0.329,0.227-0.544,0.403-0.646l0.154,0.16c0.069-0.034,0.297-0.195,0.686-0.484    c0.298-0.204,0.542-0.687,0.716-0.684c0.191,0.003,0.371,0.111,0.542,0.323c0.294,0.162,0.478,0.787,0.568,1.11    c0.09,0.323,0.176,0.642,0.258,0.958c-0.783,0.021-1.427,0.001-1.929-0.059c-0.126,0.189-0.3,0.216-0.524,0.082    c-0.224-0.134-0.389-0.115-0.496,0.057c-0.006,0.314-0.016,0.879-0.029,1.696c-0.03,0.731-0.039,1.305-0.029,1.724    c0.007,0.644,0.05,1.236,0.127,1.777c0.139,0.002,0.799,0.013,1.98,0.033C292.342,66.413,293.045,66.484,293.634,66.617z     M293.69,54.114c-0.157,0.014-0.331,0.02-0.522,0.017c-0.4-0.007-0.93-0.068-1.588-0.184c-0.816-0.118-1.312-0.187-1.484-0.207    c-0.249,0.359-0.379,0.872-0.391,1.533c-0.024,1.426-0.026,2.044-0.006,1.853c0.241,0.143,0.358,0.406,0.352,0.789    c-0.026,0.521-0.03,0.792-0.014,0.809c-0.122,0.051-0.186,0.223-0.19,0.52c-0.19-0.073-0.388-0.216-0.593-0.428    c-0.274-0.266-0.42,0.636-0.399,0.41l-0.165,0.536l-0.154-0.16c-0.14,0.015-0.377-0.059-0.713-0.221    c-0.337-0.162-0.573-0.313-0.71-0.457c0.005-0.278,0.052-0.434,0.138-0.468l-0.332-0.37l-0.16,0.232    c-0.195-1.813-0.146-5.204,0.094-7.115c0.659,0.116,1.389,0.189,2.188,0.22c0.539,0.026,1.295,0.039,2.269,0.038    c1.113,0.001,1.915,0.006,2.4,0.014c0.205,0.196,0.306,0.45,0.301,0.762c-0.004,0.193-0.058,0.5-0.16,0.925    S293.693,53.904,293.69,54.114z"/>
	</g>
	<g>
		<path fill="#010101" d="M264.377,82.398v-0.012c0,0.008-0.045,0.391-0.136,1.15c-0.044,0.466-0.156,0.833-0.337,1.1l-0.112-0.092    c-0.212,0.442-0.498,0.711-0.863,0.808c-0.174,0.184-0.426,0.285-0.754,0.305c-0.195,0.011-0.646-0.046-1.353-0.17    c-0.34-0.212-0.526-0.329-0.56-0.353c-0.215-0.162-0.316-0.325-0.306-0.491c-0.207-0.212-0.5-0.59-0.609-1.063    c-0.133-0.522-0.213-0.553-0.337-0.736c-0.197,0.145-0.268-0.163-0.382-0.348l0.104-0.081c-0.064-0.046-0.098-0.098-0.102-0.156    c-0.002-0.041,0.015-0.102,0.052-0.183c0.036-0.081,0.054-0.142,0.05-0.183c-0.003-0.065-0.042-0.122-0.116-0.167    c0.079-0.411,0.15-1.027,0.216-1.851c0.141-0.074,0.206-0.22,0.199-0.434c-0.008-0.214,0.021-0.357,0.09-0.428    c0.332-0.666,0.871-1.114,1.619-1.349c0.041,0.006,0.241,0.002,0.601-0.01c0.247-0.006,0.433,0.016,0.559,0.066    c0.225-0.038,0.449,0.016,0.672,0.16c0.194,0.146,0.389,0.292,0.582,0.438c0.361,0.393,0.558,0.837,0.587,1.332    c0.01,0.165-0.002,0.339-0.032,0.523c-0.268-0.009-0.458,0.168-0.571,0.531l-1.042,0.097c-0.112-0.158-0.177-0.37-0.191-0.634    c-0.006-0.091-0.005-0.223,0-0.397c0.005-0.173,0.006-0.307,0-0.396c-0.016-0.273-0.08-0.489-0.192-0.647l-0.313,0.179    c-0.126-0.05-0.191-0.125-0.197-0.224c-0.002-0.033,0.003-0.081,0.016-0.144c0.011-0.062,0.017-0.106,0.015-0.131    c-0.006-0.107-0.103-0.172-0.289-0.196c-0.127,1.175-0.165,2.383-0.113,3.622c0.032,0.04,0.132,0.067,0.298,0.082    c0.134,0.017,0.203,0.059,0.207,0.124c0.001,0.026-0.006,0.06-0.025,0.101l-0.103,0.081c0.056,0.088,0.09,0.21,0.099,0.368    c0.004,0.083,0.001,0.209-0.009,0.378c-0.011,0.171-0.015,0.298-0.01,0.38c0.016,0.248,0.076,0.435,0.188,0.561    c-0.012,0.182,0.063,0.306,0.221,0.372c0.101-0.04,0.191-0.061,0.274-0.066c0.317-0.018,0.538,0.154,0.662,0.521    c0,0.008-0.002,0.07-0.005,0.186c0.004,0.066,0.037,0.109,0.1,0.129c0.14-0.082,0.209-0.231,0.206-0.446    c-0.004-0.249,0.028-0.407,0.097-0.478c-0.018-0.114-0.086-0.28-0.207-0.497s-0.185-0.387-0.192-0.511    c-0.008-0.132,0.032-0.258,0.117-0.379c-0.073-0.021-0.106-0.068-0.101-0.143c0.003-0.117,0.005-0.179,0.005-0.187    C263.218,82.271,263.794,82.267,264.377,82.398z"/>
		<path fill="#010101" d="M269.097,83.368h-0.014c-0.061,0.119-0.079,0.291-0.057,0.512c0.027,0.315,0.042,0.475,0.043,0.483    c-0.047,0.018-0.11-0.006-0.191-0.07c-0.121,0.045-0.179,0.122-0.173,0.23c0.001,0.015,0.007,0.042,0.019,0.08    c0.003,0.045,0.006,0.077,0.006,0.092c0.005,0.084-0.021,0.147-0.075,0.189c-0.139-0.077-0.32-0.126-0.546-0.147    c-0.227-0.023-0.44-0.042-0.643-0.061c-0.003-1.048-0.144-2.072-0.422-3.072c0,0.008-0.006-0.095-0.018-0.311    c0.001-0.154-0.034-0.264-0.105-0.329l-0.096,0.087c-0.001-0.016,0.03-0.046,0.096-0.092c0.064-0.045,0.096-0.093,0.093-0.139    c-0.003-0.022-0.009-0.045-0.02-0.068l-0.104-0.075c-0.179,0.057-0.261,0.2-0.247,0.431c0.01,0.154-0.053,0.261-0.183,0.322    c0.051,0.036,0.077,0.081,0.079,0.134c0.003,0.031-0.002,0.074-0.013,0.128c-0.012,0.055-0.017,0.097-0.015,0.128    c0.005,0.068,0.041,0.124,0.11,0.167c0.002,0.046,0.026,0.461,0.07,1.244c0.031,0.499,0.017,0.923-0.039,1.272l0.011,0.196    c-0.067-0.004-0.144-0.003-0.229,0.001c-0.096,0.006-0.233,0.02-0.414,0.042c-0.18,0.022-0.313,0.036-0.398,0.041    c-0.353,0.02-0.601-0.039-0.743-0.177l-0.147-4.299c-0.07-0.211-0.115-0.505-0.138-0.881l-0.048-0.829    c-0.033-0.406-0.085-0.719-0.155-0.938c0.029-0.148,0.159-0.229,0.389-0.241c0.143-0.009,0.334,0.01,0.576,0.058    c0.111-0.053,0.268-0.084,0.469-0.097c0.057-0.003,0.146-0.005,0.271-0.004c0.133-0.007,0.229-0.013,0.286-0.016    c0.371-0.022,0.618-0.136,0.74-0.344c0.173-0.002,0.359,0.053,0.562,0.164s0.381,0.171,0.534,0.177    c0.406,0.238,0.624,0.634,0.657,1.186c0.007,0.124-0.041,0.611-0.146,1.465l-0.696,0.607c0.118,0.216,0.261,0.688,0.428,1.418    C268.601,82.638,268.813,83.083,269.097,83.368z M267.81,78.475l0.014,0.01c0.014,0.054,0.007-0.135-0.019-0.564    c-0.012-0.208-0.087-0.357-0.226-0.45c-0.079,0.113,0.011,0.165-0.027,0.425c-0.038,0.26-0.191,0.187-0.28,0.301    c-0.24-0.002-0.295,0.143-0.346-0.085c-0.107-0.372-0.2-0.338-0.2-0.345l-0.102,0.061c-0.036,0.032-0.078,0.07-0.123,0.11    c-0.045,0.042-0.092,0.056-0.14,0.042c0.002,0.047-0.021,0.12-0.066,0.219c-0.048,0.099-0.07,0.167-0.068,0.206    c0.006,0.069,0.06,0.119,0.167,0.151c-0.02,0.156-0.023,0.318-0.014,0.487c0.004,0.091,0.026,0.303,0.064,0.63    c0.043,0.26,0.062,0.482,0.053,0.667c0.087,0.003,0.168,0.003,0.245-0.002c0.333-0.02,0.55-0.151,0.649-0.395    c0.034-0.071,0.072-0.329,0.114-0.77C267.544,78.841,267.645,78.608,267.81,78.475z"/>
		<path fill="#010101" d="M274.512,85.038c-0.137-0.04-0.281-0.055-0.434-0.045c-0.133,0.007-0.312,0.042-0.539,0.101    c-0.255,0.061-0.43,0.098-0.523,0.111c-0.115-0.155-0.204-0.373-0.268-0.655c-0.11-0.409-0.177-0.64-0.197-0.693    c0.025-0.047,0.036-0.086,0.035-0.117c-0.006-0.084-0.093-0.154-0.264-0.209s-0.258-0.103-0.26-0.142    c-0.001-0.045,0.089-0.12,0.275-0.223c-0.051-0.043-0.093-0.135-0.124-0.276c-0.032-0.141-0.083-0.231-0.152-0.274    c-0.11,0.092-0.294,0.159-0.556,0.201c-0.26,0.042-0.432,0.088-0.515,0.14c0.054,0.598,0,1.647-0.236,1.869    c-0.135-0.017-0.231,0.031-0.293,0.143c-0.088,0.136-0.164,0.219-0.229,0.245l0.09,0.075c-0.073,0.058-0.195,0.088-0.367,0.091    c-0.268,0.009-0.41,0.012-0.43,0.013l-0.097-0.202l0.4-6.915c-0.021-0.391-0.019-0.656,0.013-0.796    c-0.04-0.345,0.044-0.565,0.248-0.662c0.138,0.061,0.306,0.086,0.506,0.074c0.162-0.01,0.413-0.054,0.753-0.136    c0.339-0.081,0.575-0.126,0.708-0.134c0.469-0.027,0.693,0.23,0.677,0.769c-0.014,0.433,0.115,0.99,0.384,1.676    c0.282,0.738,0.435,1.295,0.456,1.672c0.007,0.115,0.159,0.359,0.156,0.474c-0.194,0.104-0.449,0.177-0.761,0.218    c-0.277,0.031-0.556,0.063-0.842,0.095c-0.119-0.579-0.39-1.282-0.509-1.853c-0.145-0.684-0.302-1.244-0.471-1.682l-0.181,3.315    c-0.012,0.285,0.159,0.418,0.511,0.396c0.114-0.005,0.223-0.036,0.325-0.087c0.085-0.028,0.206,0.015,0.365,0.129    c0.015,0.238,0.085,0.376,0.212,0.415c0.147-0.093,0.343-0.185,0.585-0.277c0.216-0.082,0.427-0.159,0.633-0.233    c0.131,0.124,0.224,0.315,0.277,0.574c0.068,0.365,0.114,0.578,0.138,0.639c0.027,0.144,0.126,0.455,0.297,0.93    c0.128,0.377,0.198,0.685,0.212,0.923C274.528,84.827,274.524,84.936,274.512,85.038z"/>
		<path fill="#010101" d="M278.459,77.195l0.016-0.001c-0.115,0.169-0.261,0.2-0.438,0.096c-0.04-0.007-0.211,0.004-0.516,0.029    c-0.257,0.015-0.443,0.003-0.562-0.037c-0.027,0.002-0.085,0.03-0.167,0.084c-0.083,0.055-0.144,0.084-0.183,0.086    c-0.056,0.003-0.088-0.044-0.093-0.145c-0.001-0.015-0.005-0.081-0.012-0.196c-0.005-0.076-0.042-0.128-0.11-0.155l-0.178,0.137    c-0.056,0.042-0.082,0.086-0.078,0.132c0.002,0.039,0.034,0.092,0.096,0.162c0.061,0.07,0.097,0.12,0.108,0.15    c0.002,0.023,0.021,0.37,0.06,1.037c0.016,0.423,0.093,0.76,0.231,1.015c0.035-0.041,0.122-0.063,0.262-0.067    c0.138-0.004,0.23-0.035,0.273-0.091c0.091,0.08,0.242,0.084,0.454,0.014c0.211-0.07,0.362-0.046,0.456,0.072l-0.027,1.018    c-0.087-0.01-0.214-0.052-0.381-0.127c-0.048,0.149-0.144,0.243-0.285,0.282c-0.057,0.02-0.218,0.035-0.484,0.051    c0.007-0.047-0.033-0.094-0.124-0.143c-0.259,0.123-0.357,0.417-0.292,0.883c0.007-0.046,0.017,0.034,0.028,0.242    c0.008,0.13-0.02,0.225-0.083,0.282c-0.163,0.025-0.368-0.011-0.616-0.108c-0.25-0.098-0.428-0.143-0.532-0.137    c-0.048,0.003-0.091,0.01-0.128,0.02l-0.268,0.084l-0.428-4.653l-0.051-0.886c0.355-0.12,0.797-0.197,1.32-0.228    c0.41-0.023,0.945-0.02,1.607,0.011c0.042-0.087,0.12,0.027,0.216,0.021c0.048-0.002,0.12,0.003,0.217,0.017    c0.096,0.014,0.168,0.02,0.216,0.017c0.058-0.004,0.109-0.014,0.156-0.032l0.067-0.074c0.194,0.058,0.297,0.16,0.304,0.306    c0.004,0.062-0.015,0.166-0.053,0.316c-0.039,0.148-0.057,0.261-0.053,0.337C278.411,77.083,278.429,77.143,278.459,77.195z     M276.788,84.958c-0.104,0.053-0.259,0.083-0.468,0.097c-0.277,0.016-0.443,0.029-0.5,0.041c-0.03-0.029-0.066-0.005-0.129-0.249    c-0.038-0.159-0.139-0.234-0.3-0.224c-0.039,0.002-0.086,0.009-0.143,0.019l-0.258,0.015l-0.137-2.354    c0.14-0.069,0.314-0.111,0.523-0.123c0.201-0.012,0.379,0.009,0.535,0.062c-0.005,0.084,0.117,0.121,0.364,0.105l0.271-0.016    C276.711,82.991,276.81,84.187,276.788,84.958z"/>
		<path fill="#010101" d="M284.178,77.396l0.016,0.011c-0.135-0.008-0.566,0.021-0.898,0.063c-0.285,0.033-0.501,0.037-0.646,0.015    c-0.139,0.092-0.188,0.219-0.149,0.378l0.088,0.053c-0.071,0.065-0.098,0.117-0.077,0.155l0.077,0.076    c-0.018,1.365-0.021,2.119-0.012,2.266c0.02,0.36,0.062,0.677,0.126,0.951c-0.057,0.173-0.079,0.371-0.065,0.593    c0.009,0.146,0.043,0.376,0.104,0.692s0.144,1.354,0.153,1.516c0.007,0.122,0.003,0.238-0.01,0.346    c-0.131,0.055-0.272,0.085-0.425,0.094c-0.257,0.016-0.533-0.038-0.827-0.159c-0.036,0.033-0.076,0.068-0.123,0.104    c-0.045,0.038-0.057,0.079-0.035,0.124c-0.095,0.028-0.226-0.01-0.395-0.115c-0.09-1.382-0.337-4.195-0.703-7.04    c-0.128,0.116-0.363,0.02-0.611,0.048c-0.295,0.033-0.583-0.012-0.695,0.041c-0.143-0.154-0.111-0.198-0.126-0.451    c-0.015-0.245-0.093-0.852-0.03-1.104c0.013-0.054,0.547-0.023,0.86-0.048c0.429-0.026,0.524,0.076,0.552,0.074    c0.035-0.056,0.245-0.028,0.396-0.037c0.099,0.049,0.205-0.044,0.209,0.025c0.004,0.045,0,0.337-0.032,0.42    c-0.034,0.083-0.05,0.143-0.048,0.181c0.006,0.092,0.071-0.042,0.228,0.01c0.172-0.002,0.349-0.009,0.529-0.018    c0.202,0.018,0.435-0.056,0.416,0.115c0.035-0.049,0.057,0.038,0.347-0.08c0.215-0.097,0.345-0.35,0.303-0.523    c-0.023-0.095,0.105-0.156,0.025-0.111c0.104-0.056,0.01-0.017,0.121-0.062c0.357,0.033,0.556-0.003,0.622-0.008    c0.144-0.009,0.498,0.084,0.601,0.033c0.074,0.134,0.111,0.554,0.115,0.785C284.17,77.176,284.176,77.373,284.178,77.396z"/>
		<path fill="#010101" d="M288.812,82.2l-0.002-0.011c-0.052,0.104-0.078,0.221-0.079,0.351c-0.006,0.085,0.001,0.205,0.021,0.357    c0.019,0.177,0.031,0.299,0.035,0.368c-0.077,0.003-0.382,0.022-0.915,0.053c-0.324,0.019-0.613,0.062-0.867,0.131l-0.284-0.214    c-0.073,0.067-0.099,0.119-0.078,0.155c-0.048-0.004-0.268,0.008-0.657,0.039c-0.306,0.018-0.535,0.007-0.691-0.03    c-0.145,0.139-0.325,0.15-0.543,0.031c-0.078-0.041-0.093-0.12-0.041-0.233c0.05-0.115,0.026-0.196-0.073-0.245    c-0.003-0.246,0.007-0.628,0.035-1.146c0.03-0.463,0.038-0.826,0.023-1.087c-0.021-0.353-0.079-0.688-0.173-1.006    c0.099-0.091,0.215-0.14,0.348-0.147c0.153-0.009,0.337,0.039,0.556,0.142c0.305,0.143,0.461,0.216,0.47,0.216l0.091,0.074    c0.009-0.023,0.048-0.149,0.122-0.376c0.038-0.148,0.104-0.248,0.198-0.3l0.088,0.063c0.039-0.016,0.158-0.097,0.36-0.24    c0.156-0.102,0.264-0.475,0.359-0.48c0.104-0.006,0.208,0.034,0.309,0.121c0.165,0.06,0.298,0.479,0.358,0.618    c0.061,0.139,0.118,0.276,0.175,0.412c-0.429,0.041-0.781,0.058-1.059,0.05c-0.062,0.089-0.157,0.107-0.283,0.057    c-0.128-0.05-0.219-0.036-0.271,0.045c0.009,0.138,0.023,0.387,0.044,0.748c0.009,0.322,0.024,0.575,0.044,0.76    c0.025,0.283,0.07,0.542,0.132,0.777c0.076-0.004,0.438-0.025,1.086-0.062C288.096,82.162,288.482,82.166,288.812,82.2z     M288.368,76.785c-0.085,0.013-0.181,0.022-0.286,0.028c-0.22,0.012-0.51,0.006-0.876-0.019c-0.45-0.021-0.724-0.031-0.819-0.033    c-0.124,0.169-0.141,0.306-0.124,0.598c0.037,0.629,0.058,0.901,0.062,0.816c0.138,0.053,0.211,0.165,0.221,0.333    c0.004,0.231,0.011,0.349,0.021,0.357c-0.065,0.026-0.095,0.105-0.087,0.235c-0.106-0.023-0.221-0.079-0.34-0.165    c-0.16-0.106-0.21,0.271-0.205,0.169l-0.073,0.234l-0.089-0.063c-0.077,0.012-0.209-0.011-0.398-0.069    c-0.19-0.058-0.325-0.116-0.405-0.173c-0.007-0.123,0.012-0.194,0.06-0.212l-0.195-0.15l-0.079,0.108    c-0.171-0.791-0.284-2.185-0.219-3.036c0.365,0.025,0.791-0.039,1.229-0.057c0.295-0.008,0.711-0.032,1.244-0.071    c0.609-0.043,1.047-0.072,1.313-0.088c0.119,0.077,0.185,0.185,0.191,0.323c0.005,0.085-0.014,0.223-0.056,0.413    C288.416,76.458,288.362,76.692,288.368,76.785z"/>
		<path fill="#010101" d="M293.567,81.382l-0.015,0.002c-0.06,0.118-0.079,0.289-0.057,0.51c0.027,0.314,0.042,0.476,0.042,0.483    c-0.047,0.018-0.109-0.005-0.19-0.07c-0.122,0.045-0.179,0.122-0.174,0.229c0.002,0.016,0.008,0.042,0.02,0.081    c0.003,0.046,0.005,0.077,0.005,0.092c0.007,0.085-0.019,0.148-0.074,0.189c-0.139-0.078-0.321-0.126-0.547-0.147    c-0.227-0.021-0.44-0.042-0.642-0.062c-0.004-1.046-0.145-2.07-0.422-3.07c0,0.007-0.007-0.096-0.019-0.312    c0.001-0.153-0.034-0.263-0.104-0.329l-0.096,0.086c-0.001-0.014,0.03-0.045,0.096-0.092c0.063-0.046,0.095-0.092,0.092-0.138    c-0.002-0.023-0.008-0.046-0.019-0.069l-0.104-0.076c-0.179,0.058-0.261,0.201-0.247,0.431c0.009,0.154-0.053,0.261-0.183,0.323    c0.049,0.036,0.076,0.08,0.08,0.134c0.001,0.03-0.005,0.073-0.014,0.128c-0.012,0.054-0.018,0.097-0.016,0.128    c0.005,0.069,0.041,0.125,0.11,0.167c0.003,0.045,0.026,0.459,0.071,1.243c0.03,0.499,0.016,0.924-0.04,1.273l0.012,0.196    c-0.067-0.004-0.144-0.004-0.229,0.001c-0.096,0.006-0.233,0.019-0.414,0.042c-0.181,0.021-0.312,0.036-0.398,0.041    c-0.354,0.02-0.6-0.039-0.742-0.177l-0.149-4.299c-0.069-0.211-0.115-0.505-0.138-0.882l-0.048-0.829    c-0.033-0.406-0.084-0.719-0.154-0.938c0.029-0.148,0.159-0.229,0.388-0.243c0.144-0.008,0.335,0.012,0.577,0.059    c0.112-0.053,0.267-0.085,0.467-0.097c0.059-0.003,0.147-0.004,0.273-0.004c0.133-0.008,0.229-0.014,0.285-0.018    c0.372-0.021,0.619-0.135,0.741-0.342c0.172-0.002,0.359,0.052,0.561,0.164c0.203,0.111,0.381,0.17,0.536,0.177    c0.405,0.238,0.623,0.634,0.655,1.187c0.008,0.122-0.041,0.61-0.145,1.463l-0.697,0.606c0.119,0.217,0.261,0.69,0.428,1.419    C293.069,80.653,293.283,81.099,293.567,81.382z M292.278,76.491l0.016,0.012c0.013,0.053,0.006-0.136-0.019-0.565    c-0.013-0.208-0.088-0.358-0.227-0.449c-0.08,0.113-0.095-0.149-0.132,0.112c-0.037,0.261-0.101,0.446-0.188,0.56    c-0.24-0.001-0.296-0.144-0.438-0.344c-0.089-0.127-0.133-0.016-0.133-0.024l-0.064,0.052c-0.036,0.034-0.077,0.07-0.123,0.111    c-0.045,0.042-0.093,0.055-0.141,0.043c0.003,0.045-0.02,0.118-0.067,0.217c-0.046,0.099-0.068,0.168-0.066,0.206    c0.005,0.069,0.06,0.12,0.167,0.153c-0.021,0.154-0.024,0.316-0.015,0.486c0.007,0.092,0.026,0.302,0.065,0.632    c0.043,0.259,0.062,0.48,0.053,0.666c0.087,0.003,0.167,0.002,0.244-0.002c0.333-0.02,0.55-0.152,0.65-0.396    c0.033-0.072,0.072-0.328,0.113-0.769C292.013,76.856,292.115,76.624,292.278,76.491z"/>
	</g>
	<g>
		<path fill="#010101" d="M246.157,61.551v0.011c-0.042,0.398-0.057,0.675-0.042,0.828c-0.061,0.023-0.141,0.027-0.239,0.011    c-0.127-0.021-0.199-0.032-0.222-0.03c-0.055,0.002-0.099,0.022-0.132,0.059c-0.079-0.052-0.132-0.074-0.16-0.065    c-0.073,0.045-0.108,0.11-0.105,0.193c0.003,0.035,0.016,0.096,0.042,0.181c0.024,0.087,0.038,0.15,0.04,0.192    c0.003,0.056-0.008,0.143-0.033,0.263c-0.025,0.119-0.036,0.218-0.033,0.294c0.006,0.09,0.024,0.232,0.06,0.426    c0.033,0.193,0.052,0.339,0.059,0.436c-0.04,0.19-0.055,0.383-0.046,0.577c0.013,0.236,0.078,0.554,0.194,0.952    c0.021,0.006,0.043,0.008,0.063,0.007c0.048-0.002,0.106-0.037,0.173-0.103c0.066-0.065,0.123-0.1,0.172-0.102    c0.035-0.001,0.073,0.006,0.115,0.025c0.126,0.405,0.19,0.666,0.197,0.784c0.003,0.056,0.002,0.115-0.002,0.177    c-0.187,0.044-0.318-0.019-0.396-0.188c0.011-0.049-0.016-0.101-0.081-0.153l-0.208,0.219c0.204,0.032,0.284,0.188,0.242,0.469    c-0.018,0.057-0.062,0.087-0.131,0.09c-0.118,0-0.174-0.001-0.167-0.001l-0.172-0.305l-0.068,0.087    c-0.057-0.144-0.123-0.213-0.198-0.21c-0.043,0.003-0.115,0.038-0.221,0.105c-0.104,0.068-0.19,0.104-0.261,0.107    c-0.055,0.002-0.111-0.011-0.169-0.044c-0.004-0.083-0.013-0.17-0.028-0.259c-0.016-0.09-0.062-0.147-0.139-0.171    c-0.005-0.215,0.002-0.783,0.018-1.703c0.008-0.697,0-1.261-0.022-1.691c-0.009-0.181-0.021-0.358-0.036-0.532    c-0.037-0.054-0.073-0.08-0.108-0.078c-0.028,0.001-0.07,0.032-0.126,0.09c-0.057,0.059-0.105,0.085-0.148,0.081    c-0.003-0.069-0.034-0.181-0.094-0.335c-0.061-0.154-0.092-0.265-0.097-0.334c-0.005-0.119,0.039-0.222,0.132-0.31l0.243,0.061    c0.098-0.137,0.138-0.369,0.121-0.696c-0.003-0.062-0.012-0.161-0.025-0.296c-0.013-0.135-0.021-0.234-0.025-0.296    c-0.026-0.535,0.138-0.812,0.491-0.83c0.132-0.007,0.293,0.017,0.483,0.07l0.232,0.062c0.02,0.089,0.031,0.183,0.036,0.279    c0.006,0.133,0.001,0.326-0.018,0.581c-0.02,0.256-0.025,0.443-0.02,0.56c0.009,0.188,0.042,0.357,0.099,0.507    c0.056-0.002,0.143-0.033,0.262-0.091c0.119-0.058,0.206-0.088,0.262-0.091C246.018,61.412,246.097,61.458,246.157,61.551z     M245.433,62.298l-0.013-0.24l-0.075-0.069L245.433,62.298z"/>
		<path fill="#010101" d="M249.021,60.801l0.011-0.001c-0.025,0.189-0.055,0.379-0.087,0.568c-0.037,0.218-0.099,0.388-0.183,0.511    c-0.015-0.006-0.101-0.046-0.256-0.123c-0.108-0.057-0.204-0.08-0.286-0.069c-0.063,0.408-0.098,0.963-0.104,1.667    c-0.004,0.898-0.012,1.442-0.021,1.631c-0.104-0.008-0.184,0.025-0.234,0.101c-0.053,0.076-0.102,0.153-0.146,0.232    c-0.02,0.042-0.027,0.082-0.026,0.116c0.002,0.056,0.052,0.11,0.145,0.16c0.093,0.052,0.141,0.109,0.144,0.171    c-0.04,0.148-0.128,0.226-0.261,0.232c-0.061,0.003-0.171-0.016-0.326-0.057c-0.154-0.042-0.264-0.06-0.326-0.056l-0.15-2.98    c0.06-0.08,0.084-0.133,0.076-0.161l-0.086-0.058c0.007-0.125,0.014-0.75,0.02-1.871c0.004-0.759,0.032-1.374,0.085-1.843    c-0.006,0.001,0.208-0.014,0.646-0.043c0.27-0.013,0.444,0.061,0.521,0.224c0.002,0.153-0.014,0.411-0.045,0.775    c-0.031,0.336-0.042,0.595-0.034,0.775c0.012,0.222,0.047,0.422,0.104,0.601C248.437,60.984,248.709,60.816,249.021,60.801z     M250.056,61.439c0.021,0.277,0.038,0.548,0.052,0.812c0.059,1.153,0.04,2.387-0.054,3.701c-0.101,0.088-0.255,0.108-0.462,0.06    c-0.208-0.048-0.358-0.029-0.451,0.059c-0.119-0.154-0.189-0.433-0.209-0.835c-0.029-0.583-0.045-0.885-0.046-0.906    c-0.025-1.462,0.117-2.643,0.427-3.542C249.672,60.88,249.92,61.097,250.056,61.439z"/>
		<path fill="#010101" d="M253.71,62.952c-0.045,0.093-0.063,0.192-0.058,0.296c0.004,0.104,0.009,0.204,0.015,0.303    c-0.011,0.083-0.033,0.167-0.07,0.253c-0.063-0.018-0.116-0.026-0.157-0.024c-0.05,0.003-0.1,0.021-0.149,0.055    s-0.091,0.052-0.118,0.053c-0.041,0.002-0.098-0.013-0.169-0.044l-0.484-0.707c0.018,0.208,0.065,0.39,0.143,0.547    c0.039,0.081,0.077,0.163,0.116,0.244c-0.283,0.049-0.442,0.057-0.479,0.024l-0.067,0.088l-0.168-0.222    c-0.132,0.16-0.162,0.395-0.09,0.705c0.087,0.336,0.092,0.58,0.017,0.73c0.104,0.155,0.229,0.228,0.375,0.221    c0.063-0.002,0.118-0.027,0.164-0.071c0.067-0.171,0.136-0.341,0.204-0.512c0.101-0.207,0.214-0.314,0.338-0.32    c0.098-0.004,0.212,0.046,0.343,0.15c0.155,0.054,0.235,0.128,0.241,0.217c0.001,0.056-0.034,0.146-0.107,0.271    c-0.074,0.126-0.107,0.223-0.105,0.294c0.002,0.027,0.006,0.051,0.015,0.072c-0.102,0.075-0.191,0.188-0.271,0.338    c-0.08,0.15-0.184,0.253-0.313,0.308c-0.113,0.11-0.218,0.167-0.313,0.172c-0.077,0.004-0.191-0.055-0.345-0.176    c-0.151-0.121-0.294-0.179-0.426-0.172c-0.055-0.123-0.19-0.259-0.406-0.408c-0.217-0.148-0.351-0.309-0.4-0.481    c0.001,0.014-0.003-0.041-0.008-0.166c-0.004-0.069-0.034-0.113-0.09-0.132l0.078-0.077c-0.104-0.001-0.159-0.061-0.165-0.18    c-0.001-0.014-0.002-0.042-0.004-0.083c0.004-0.035,0.008-0.063,0.006-0.083c-0.004-0.083-0.031-0.141-0.081-0.174l-0.019-0.365    c-0.01-0.188-0.048-0.321-0.115-0.402c0.068-0.441,0.137-0.884,0.206-1.326c0.111-0.514,0.28-0.777,0.503-0.788    c0.033-0.001,0.068,0.004,0.104,0.016c0.199-0.198,0.44-0.304,0.725-0.318c0.313-0.016,0.658,0.078,1.038,0.282    C253.456,61.847,253.639,62.377,253.71,62.952z M252.274,61.802l-0.068,0.087c-0.049,0.01-0.105-0.015-0.172-0.075l0.013,0.24    c-0.106,0.116-0.148,0.295-0.13,0.539c0.021,0.417,0.031,0.619,0.03,0.605l0.312-0.006c0.15-0.084,0.219-0.223,0.209-0.417    c-0.005-0.098-0.039-0.257-0.103-0.48C252.303,62.07,252.273,61.907,252.274,61.802z"/>
	</g>
	<g>
		<polygon fill-rule="evenodd" clip-rule="evenodd" fill="#010101" points="256.157,73.467 256.468,73.646 257.519,70.881     257.169,70.763 256.116,73.528 256.423,73.723 256.157,73.467 256.157,73.467   "/>
		<polygon fill-rule="evenodd" clip-rule="evenodd" fill="#010101" points="256.617,73.083 256.489,73.133 256.157,73.467     256.423,73.723 256.762,73.373 256.628,73.44 256.617,73.083 256.617,73.083   "/>
		<polygon fill-rule="evenodd" clip-rule="evenodd" fill="#010101" points="259.164,73.062 259.314,72.945 256.617,73.083     256.628,73.44 259.326,73.302 259.498,73.174 259.164,73.062 259.164,73.062 259.164,73.062   "/>
		<polygon fill-rule="evenodd" clip-rule="evenodd" fill="#010101" points="260.382,70.521 260.198,70.292 259.164,73.062     259.498,73.174 260.549,70.408 260.366,70.181 260.382,70.521 260.382,70.521 260.382,70.521   "/>
		<polygon fill-rule="evenodd" clip-rule="evenodd" fill="#010101" points="257.813,70.608 257.68,70.675 260.382,70.521     260.366,70.181 257.675,70.302 257.54,70.368 257.813,70.608 257.813,70.608 257.813,70.608   "/>
		<polygon fill-rule="evenodd" clip-rule="evenodd" fill="#010101" points="257.519,70.881 257.479,70.941 257.813,70.608     257.54,70.368 257.207,70.703 257.169,70.763 257.519,70.881 257.519,70.881 257.519,70.881   "/>
		<polygon fill-rule="evenodd" clip-rule="evenodd" fill="#010101" points="259.759,73.39 259.998,73.285 259.421,72.962     259.236,73.291 259.832,73.619 260.092,73.502 259.741,73.385 259.741,73.385 259.759,73.39   "/>
		<polygon fill-rule="evenodd" clip-rule="evenodd" fill="#010101" points="260.888,70.838 260.794,70.62 259.741,73.385     260.092,73.502 261.145,70.737 261.049,70.521 260.888,70.838 260.888,70.838   "/>
		<polygon fill-rule="evenodd" clip-rule="evenodd" fill="#010101" points="260.549,70.408 260.288,70.525 260.888,70.838     261.049,70.521 260.471,70.198 260.198,70.292 260.549,70.408 260.549,70.408   "/>
		<polygon fill="#010101" points="257.352,70.825 257.335,70.819 257.669,70.486 260.173,70.364 260.198,70.292 260.383,70.353     260.549,70.408 260.537,70.439 260.977,70.682 261.145,70.737 261.076,70.917 262.3,73.831 261.265,76.601 259.926,73.446     259.926,73.446 259.754,73.518 259.741,73.385 259.756,73.352 259.333,73.118 259.236,73.291 259.184,73.125 256.617,73.25     256.283,73.584   "/>
		<polygon fill-rule="evenodd" clip-rule="evenodd" fill="#010101" points="261.098,76.545 261.438,76.528 260.098,73.374     259.754,73.518 261.093,76.673 261.432,76.657 261.082,76.539 261.082,76.539 261.098,76.545   "/>
		<polygon fill-rule="evenodd" clip-rule="evenodd" fill="#010101" points="262.145,73.909 262.133,73.775 261.082,76.539     261.432,76.657 262.484,73.893 262.473,73.759 262.145,73.909 262.145,73.909   "/>
		<polygon fill-rule="evenodd" clip-rule="evenodd" fill="#010101" points="261.145,70.737 260.805,70.754 262.145,73.909     262.473,73.759 261.132,70.604 260.794,70.62 261.145,70.737 261.145,70.737   "/>
		<polygon fill-rule="evenodd" clip-rule="evenodd" fill="#FFFFFF" points="261.055,71.449 261.205,71.777 261.261,72.112     261.244,72.44 261.148,72.779 260.982,73.112 260.754,73.407 260.459,73.679 260.104,73.914 259.909,73.998 259.715,74.08     259.497,74.119 259.297,74.163 259.103,74.19 258.892,74.213 258.697,74.186 258.497,74.174 258.324,74.136 258.141,74.074     257.963,73.997 257.809,73.906 257.674,73.807 257.523,73.701 257.401,73.568 257.302,73.422 257.151,73.094 257.096,72.761     257.096,72.426 257.207,72.094 257.352,71.77 257.586,71.459 257.88,71.187 258.252,70.958 258.431,70.87 258.643,70.792     258.843,70.747 259.043,70.704 259.253,70.681 259.448,70.654 259.644,70.681 259.843,70.693 260.026,70.753 260.21,70.814     260.376,70.871 260.548,70.965 260.688,71.048 260.832,71.17 260.933,71.315 261.055,71.449 261.055,71.449 261.055,71.449   "/>
		<polygon fill-rule="evenodd" clip-rule="evenodd" fill="#010101" points="261.188,71.995 261.339,72.323 261.388,72.673     261.372,73.002 261.282,73.325 261.132,73.664 260.881,73.969 260.608,74.231 260.237,74.458 260.037,74.558 259.842,74.642     259.643,74.687 259.425,74.725 259.23,74.753 259.043,74.765 258.842,74.753 258.63,74.72 258.457,74.68 258.274,74.619     258.113,74.546 257.94,74.452 257.802,74.369 257.673,74.252 257.546,74.135 257.435,73.968 257.279,73.656 257.224,73.322     257.246,72.977 257.334,72.655 257.484,72.316 257.714,72.021 258.008,71.749 258.379,71.521 258.58,71.42 258.77,71.354     258.976,71.292 259.192,71.254 259.381,71.243 259.575,71.215 259.771,71.243 259.971,71.254 260.16,71.298 260.343,71.359     260.505,71.432 260.683,71.51 260.815,71.611 260.966,71.716 261.065,71.862 261.183,72.011 261.183,72.011 261.188,71.995   "/>
		<polygon fill-rule="evenodd" clip-rule="evenodd" fill="#FFFFFF" points="261.282,72.378 261.438,72.69 261.488,73.041     261.471,73.369 261.382,73.691 261.216,74.025 260.981,74.336 260.71,74.597 260.337,74.826 260.153,74.931 259.942,75.01     259.741,75.053 259.525,75.092 259.331,75.12 259.142,75.131 258.94,75.12 258.729,75.086 258.558,75.047 258.374,74.987     258.213,74.915 258.041,74.82 257.901,74.735 257.757,74.613 257.652,74.486 257.534,74.335 257.379,74.023 257.323,73.69     257.34,73.362 257.435,73.022 257.585,72.683 257.818,72.372 258.124,72.121 258.48,71.888 258.681,71.788 258.875,71.704     259.075,71.66 259.292,71.622 259.486,71.593 259.676,71.582 259.893,71.599 260.071,71.622 260.26,71.666 260.443,71.727     260.621,71.805 260.777,71.895 260.916,71.977 261.066,72.084 261.166,72.229 261.282,72.378 261.282,72.378   "/>
		<polygon fill-rule="evenodd" clip-rule="evenodd" fill="#010101" points="261.416,72.923 261.565,73.252 261.622,73.586     261.622,73.92 261.51,74.253 261.365,74.576 261.114,74.881 260.838,75.16 260.465,75.388 260.287,75.477 260.075,75.554     259.875,75.6 259.675,75.643 259.464,75.666 259.269,75.693 259.074,75.666 258.875,75.655 258.686,75.61 258.501,75.548     258.341,75.475 258.169,75.381 258.034,75.281 257.902,75.182 257.779,75.047 257.662,74.897 257.529,74.574 257.457,74.235     257.473,73.906 257.568,73.568 257.729,73.25 257.963,72.939 258.257,72.667 258.614,72.433 258.809,72.35 259.003,72.266     259.22,72.228 259.421,72.183 259.614,72.155 259.82,72.15 260.021,72.162 260.203,72.167 260.393,72.211 260.576,72.272     260.754,72.35 260.91,72.439 261.061,72.544 261.193,72.645 261.315,72.779 261.41,72.94 261.41,72.94 261.416,72.923   "/>
		<polygon fill-rule="evenodd" clip-rule="evenodd" fill="#FFFFFF" points="261.61,73.286 261.767,73.597 261.822,73.93     261.815,74.282 261.727,74.604 261.56,74.938 261.31,75.244 261.037,75.505 260.682,75.739 260.481,75.838 260.27,75.917     260.07,75.961 259.869,76.005 259.658,76.027 259.47,76.038 259.269,76.027 259.074,76 258.886,75.955 258.702,75.893     258.541,75.821 258.379,75.749 258.23,75.643 258.102,75.526 257.98,75.392 257.879,75.249 257.724,74.936 257.657,74.58     257.673,74.252 257.779,73.935 257.93,73.596 258.162,73.284 258.452,73.029 258.809,72.795 259.009,72.695 259.203,72.612     259.414,72.588 259.62,72.528 259.814,72.5 260.021,72.495 260.221,72.506 260.398,72.529 260.588,72.573 260.787,72.64     260.949,72.712 261.11,72.784 261.261,72.89 261.388,73.007 261.511,73.141 261.61,73.286 261.61,73.286   "/>
		<polygon fill-rule="evenodd" clip-rule="evenodd" fill="#010101" points="261.762,73.836 261.893,74.158 261.967,74.499     261.949,74.827 261.855,75.165 261.693,75.483 261.46,75.793 261.165,76.066 260.809,76.301 260.614,76.384 260.402,76.461     260.203,76.506 260.003,76.551 259.809,76.578 259.597,76.6 259.403,76.573 259.202,76.561 259.03,76.523 258.83,76.456     258.668,76.383 258.513,76.293 258.363,76.188 258.23,76.088 258.107,75.955 258.007,75.81 257.856,75.481 257.785,75.143     257.802,74.814 257.913,74.48 258.058,74.156 258.291,73.846 258.585,73.574 258.958,73.345 259.137,73.257 259.348,73.179     259.549,73.134 259.748,73.089 259.96,73.068 260.154,73.04 260.349,73.068 260.531,73.074 260.738,73.124 260.921,73.185     261.082,73.257 261.238,73.346 261.388,73.451 261.521,73.552 261.644,73.686 261.762,73.836 261.762,73.836 261.762,73.836   "/>
		<polygon fill-rule="evenodd" clip-rule="evenodd" fill="#010101" points="243.379,69.591 243.396,69.484 242.338,72.265     242.672,72.377 243.729,69.595 243.734,69.524 243.379,69.591 243.379,69.591 243.379,69.591   "/>
		<polygon fill-rule="evenodd" clip-rule="evenodd" fill="#010101" points="243.352,69.451 243.356,69.435 243.379,69.591     243.734,69.524 243.696,69.362 243.702,69.346 243.352,69.451 243.352,69.451 243.352,69.451   "/>
		<polygon fill-rule="evenodd" clip-rule="evenodd" fill="#010101" points="243.312,69.29 243.352,69.451 243.702,69.346     243.662,69.184 243.312,69.29 243.312,69.29 243.312,69.29   "/>
		<polygon fill-rule="evenodd" clip-rule="evenodd" fill="#010101" points="243.268,69.145 243.312,69.29 243.662,69.184     243.618,69.04 243.268,69.145 243.268,69.145   "/>
		<polygon fill-rule="evenodd" clip-rule="evenodd" fill="#010101" points="243.229,68.984 243.229,68.984 243.268,69.145     243.618,69.04 243.579,68.877 243.574,68.895 243.229,68.984 243.229,68.984 243.229,68.984   "/>
		<polygon fill-rule="evenodd" clip-rule="evenodd" fill="#010101" points="243.185,68.783 243.185,68.839 243.229,68.984     243.574,68.895 243.529,68.75 243.546,68.812 243.185,68.783 243.185,68.783   "/>
		<polygon fill-rule="evenodd" clip-rule="evenodd" fill="#010101" points="243.541,68.717 243.19,68.655 243.185,68.783     243.546,68.812 243.551,68.684 243.201,68.622 243.535,68.734 243.535,68.734 243.541,68.717   "/>
		<polygon fill-rule="evenodd" clip-rule="evenodd" fill="#4D494A" points="243.844,76.812 243.811,76.633 243.438,76.694     243.466,76.889 243.844,76.812 243.844,76.812 243.844,76.812   "/>
		<polygon fill-rule="evenodd" clip-rule="evenodd" fill="#010101" points="244.617,74.492 244.629,74.403 243.578,77.167     243.91,77.279 244.963,74.514 244.957,74.42 244.617,74.492 244.617,74.492 244.617,74.492   "/>
		<polygon fill-rule="evenodd" clip-rule="evenodd" fill="#010101" points="244.59,74.297 244.617,74.492 244.957,74.42     244.929,74.224 244.573,74.292 244.573,74.292 244.59,74.297   "/>
		<polygon fill-rule="evenodd" clip-rule="evenodd" fill="#010101" points="244.54,74.113 244.573,74.292 244.929,74.224     244.879,74.041 244.54,74.113 244.54,74.113 244.54,74.113   "/>
		<polygon fill-rule="evenodd" clip-rule="evenodd" fill="#010101" points="244.495,73.913 244.507,73.936 244.54,74.113     244.879,74.041 244.852,73.846 244.863,73.87 244.495,73.913 244.495,73.913 244.495,73.913   "/>
		<polygon fill-rule="evenodd" clip-rule="evenodd" fill="#010101" points="244.829,73.746 244.474,73.702 244.495,73.913     244.863,73.87 244.835,73.674 244.479,73.63 244.829,73.746 244.829,73.746   "/>
		<g>
			<polygon fill="#4D494A" points="242.341,71.714 242.172,71.765 242.341,71.714    "/>
			<polygon fill="#4D494A" points="242.516,72.294 242.521,72.277 242.608,72.283 242.672,72.377 242.517,72.326    "/>
			<polygon fill="#010101" points="242.133,71.604 242.311,71.57 242.316,71.442 243.373,68.661 243.368,68.678 243.368,68.789      243.396,68.928 243.451,69.096 243.495,69.239 243.534,69.401 243.562,69.54 243.562,69.54 243.729,69.595 242.672,72.377      242.608,72.283 242.521,72.277 242.516,72.294 242.517,72.326 242.672,72.377 242.518,72.368 242.521,72.494 242.414,72.361      242.327,72.354 242.305,72.199 242.369,72.185 242.438,72.006 242.261,72.054 242.211,71.926 242.172,71.765 242.341,71.714      242.341,71.714 242.172,71.765 242.178,71.749    "/>
		</g>
		<g>
			<polygon fill="none" points="250.74,72.363 250.74,72.363 250.891,72.024    "/>
			<polygon fill="#010101" points="242.51,72.138 250.251,71.884 250.451,71.896 250.484,71.908 250.675,71.952 250.69,71.958      250.891,72.024 251.085,72.107 251.102,72.113 251.285,72.23 251.318,72.241 251.463,72.363 251.508,72.397 251.613,72.525      251.624,72.547 251.696,72.664 251.702,72.703 251.361,72.806 251.307,72.719 251.302,72.736 251.213,72.614 251.214,72.613      251.096,72.52 251.124,72.547 250.936,72.448 250.936,72.446 250.74,72.363 250.74,72.363 250.573,72.309 250.384,72.263      250.417,72.274 250.239,72.251 250.24,72.235 242.521,72.494    "/>
			<polygon fill="#010101" points="251.353,72.809 251.361,72.806 251.379,72.836    "/>
		</g>
		<polygon fill-rule="evenodd" clip-rule="evenodd" fill="#010101" points="255.487,79.308 255.487,79.197 254.431,81.978     254.78,82.095 255.839,79.314 255.838,79.203 255.487,79.308 255.487,79.308 255.487,79.308   "/>
		<polygon fill-rule="evenodd" clip-rule="evenodd" fill="#010101" points="252.431,70.072 252.409,70.028 255.487,79.308     255.838,79.203 252.759,69.922 252.754,69.882 252.431,70.072 252.431,70.072 252.431,70.072   "/>
		<polygon fill-rule="evenodd" clip-rule="evenodd" fill="#010101" points="252.37,69.978 252.359,69.955 252.431,70.072     252.754,69.882 252.682,69.766 252.665,69.76 252.354,69.972 252.354,69.972 252.37,69.978   "/>
		<polygon fill-rule="evenodd" clip-rule="evenodd" fill="#010101" points="252.298,69.86 252.27,69.833 252.354,69.972     252.665,69.76 252.548,69.61 252.52,69.583 252.298,69.86 252.298,69.86 252.298,69.86   "/>
		<polygon fill-rule="evenodd" clip-rule="evenodd" fill="#010101" points="252.175,69.783 252.146,69.755 252.298,69.86     252.52,69.583 252.37,69.476 252.343,69.449 252.175,69.783 252.175,69.783   "/>
		<polygon fill-rule="evenodd" clip-rule="evenodd" fill="#010101" points="252.008,69.671 251.992,69.666 252.175,69.783     252.343,69.449 252.153,69.349 252.137,69.343 252.008,69.671 252.008,69.671   "/>
		<polygon fill-rule="evenodd" clip-rule="evenodd" fill="#010101" points="251.831,69.593 251.792,69.598 252.008,69.671     252.137,69.343 251.941,69.26 251.925,69.254 251.809,69.604 251.809,69.604 251.831,69.593   "/>
		<polygon fill-rule="evenodd" clip-rule="evenodd" fill="#010101" points="251.631,69.527 251.608,69.538 251.809,69.604     251.925,69.254 251.725,69.187 251.725,69.187 251.625,69.543 251.625,69.543 251.631,69.527   "/>
		<polygon fill-rule="evenodd" clip-rule="evenodd" fill="#010101" points="251.475,69.493 251.442,69.482 251.625,69.543     251.725,69.187 251.519,69.137 251.503,69.132 251.475,69.493 251.475,69.493 251.475,69.493   "/>
		<polygon fill-rule="evenodd" clip-rule="evenodd" fill="#010101" points="251.297,69.471 251.291,69.487 251.475,69.493     251.503,69.132 251.308,69.103 251.285,69.115 251.297,69.471 251.297,69.471   "/>
		<polygon fill-rule="evenodd" clip-rule="evenodd" fill="#010101" points="243.746,69.601 243.557,69.723 251.297,69.471     251.285,69.115 243.562,69.374 243.396,69.484 243.729,69.595 243.729,69.595 243.746,69.601   "/>
		<polygon fill="#4D494A" points="245.69,78.057 245.663,78.044 245.68,78.036   "/>
		<g>
			<polygon fill="#4D494A" points="249.87,79.309 249.838,79.684 249.87,79.309    "/>
			<g>
				<polygon fill="none" points="249.855,79.488 249.838,79.684 249.855,79.488     "/>
				<g>
					<polygon fill="none" points="243.583,76.477 243.594,76.451 243.602,76.486      "/>
					<path fill="#010101" d="M243.466,76.889l0.033,0.178l0.067,0.189l0.083,0.139l0.474,0.25l0.472,0.251l0.456,0.245l0.461,0.228       l0.017,0.006l0.468,0.211l0.467,0.211l0.506,0.206l0.512,0.189l0.017,0.006l0.545,0.146l0.545,0.145l0.017,0.005l0.601,0.089       l0.617,0.095l0.017,0.006l0.673,0.04l0.022-0.012l0.717,0.017l0.768-0.021l0.812-0.044l0.167-0.112l1.051-2.764l-0.178-0.246       l0.01,0.357l-0.055-0.07l0.039-0.103l-0.116,0.007l-0.051-0.062l-0.024,0.067l-0.604,0.038h-0.778l-0.718-0.018l-0.656-0.033       l-0.639-0.084l-0.595-0.105l-0.546-0.146l-0.545-0.145l-0.511-0.189l-0.495-0.185l-0.468-0.211l-0.462-0.229l-0.478-0.233       l-0.455-0.244l-0.456-0.246l-0.316-0.167l0.011-0.027l-0.167-0.056l0,0l-0.045-0.2l-0.032-0.179l-0.014-0.061l0.124-0.272       l-0.175-0.058l-0.009-0.003l0,0l-0.167-0.055l-1.051,2.764l-0.012,0.089l0.028,0.195L243.466,76.889z M243.594,76.451       l0.008,0.035l-0.019-0.009L243.594,76.451z"/>
				</g>
			</g>
		</g>
		<polygon fill-rule="evenodd" clip-rule="evenodd" fill="#010101" points="253.069,76.943 253.88,76.899 253.87,76.542     253.058,76.586 253.069,76.943 253.069,76.943 253.069,76.943   "/>
		<polygon fill-rule="evenodd" clip-rule="evenodd" fill="#010101" points="252.302,76.964 253.069,76.943 253.058,76.586     252.291,76.609 252.302,76.964 252.302,76.964 252.302,76.964   "/>
		<polygon fill-rule="evenodd" clip-rule="evenodd" fill="#010101" points="251.567,76.942 251.584,76.947 252.302,76.964     252.291,76.609 251.574,76.592 251.596,76.581 251.562,76.959 251.562,76.959 251.567,76.942   "/>
		<polygon fill-rule="evenodd" clip-rule="evenodd" fill="#010101" points="250.878,76.898 250.896,76.903 251.562,76.959     251.596,76.581 250.923,76.541 250.939,76.547 250.878,76.898 250.878,76.898 250.878,76.898   "/>
		<polygon fill-rule="evenodd" clip-rule="evenodd" fill="#010101" points="250.255,76.819 250.878,76.898 250.939,76.547     250.322,76.452 250.255,76.819 250.255,76.819   "/>
		<polygon fill-rule="evenodd" clip-rule="evenodd" fill="#010101" points="249.644,76.708 249.66,76.713 250.255,76.819     250.322,76.452 249.705,76.358 249.722,76.363 249.644,76.708 249.644,76.708 249.644,76.708   "/>
		<polygon fill-rule="evenodd" clip-rule="evenodd" fill="#010101" points="249.1,76.562 249.644,76.708 249.722,76.363     249.177,76.218 249.094,76.58 249.094,76.58 249.1,76.562   "/>
		<polygon fill-rule="evenodd" clip-rule="evenodd" fill="#010101" points="248.532,76.429 248.549,76.435 249.094,76.58     249.177,76.218 248.632,76.073 248.648,76.079 248.532,76.429 248.532,76.429   "/>
		<polygon fill-rule="evenodd" clip-rule="evenodd" fill="#010101" points="248.02,76.24 248.02,76.24 248.532,76.429     248.648,76.079 248.138,75.889 248.154,75.894 248.004,76.235 248.004,76.235 248.02,76.24   "/>
		<polygon fill-rule="evenodd" clip-rule="evenodd" fill="#010101" points="247.515,76.034 248.004,76.235 248.154,75.894     247.665,75.694 247.515,76.034 247.515,76.034   "/>
		<polygon fill-rule="evenodd" clip-rule="evenodd" fill="#010101" points="247.047,75.822 247.515,76.034 247.665,75.694     247.191,75.5 247.047,75.822 247.047,75.822   "/>
		<polygon fill-rule="evenodd" clip-rule="evenodd" fill="#010101" points="246.569,75.588 246.58,75.611 247.047,75.822     247.191,75.5 246.714,75.266 246.73,75.271 246.563,75.605 246.563,75.605 246.569,75.588   "/>
		<polygon fill-rule="evenodd" clip-rule="evenodd" fill="#010101" points="246.107,75.36 246.563,75.605 246.73,75.271     246.27,75.043 246.103,75.376 246.103,75.376 246.107,75.36   "/>
		<polygon fill-rule="evenodd" clip-rule="evenodd" fill="#010101" points="245.651,75.116 246.103,75.376 246.27,75.043     245.813,74.798 245.635,75.11 245.635,75.11 245.651,75.116   "/>
		<polygon fill-rule="evenodd" clip-rule="evenodd" fill="#010101" points="245.179,74.864 245.635,75.11 245.813,74.798     245.357,74.553 245.179,74.864 245.179,74.864   "/>
		<polygon fill-rule="evenodd" clip-rule="evenodd" fill="#010101" points="244.963,74.514 244.707,74.614 245.179,74.864     245.357,74.553 244.885,74.303 244.629,74.403 244.963,74.514 244.963,74.514 244.963,74.514   "/>
		<polygon fill-rule="evenodd" clip-rule="evenodd" fill="#010101" points="293.162,69.503 292.104,72.285 295.556,73.438     296.358,71.59 296.381,71.413 296.386,71.229 296.358,71.034 296.291,70.846 296.18,70.678 296.091,70.5 295.947,70.322     295.797,70.161 295.641,70.015 295.469,69.865 295.291,69.732 295.118,69.637 294.952,69.526 294.757,69.443 294.584,69.348     294.418,69.292 294.269,69.242 294.089,69.219 293.928,69.203 293.772,69.226 293.616,69.247 293.45,69.303 293.306,69.403     293.162,69.503 293.162,69.503 293.162,69.503   "/>
		<polygon fill-rule="evenodd" clip-rule="evenodd" fill="#010101" points="295.4,73.349 295.617,73.253 292.165,72.102     292.048,72.452 295.502,73.604 295.735,73.515 295.4,73.349 295.4,73.349   "/>
		<g>
			<polygon fill="none" points="296.067,74.15 296.09,74.339 296.067,74.15    "/>
			<polygon fill="none" points="297.849,72.287 297.976,72.409 297.838,72.312    "/>
			<g>
				<polygon fill="none" points="297.976,72.409 297.838,72.312 297.849,72.287     "/>
				<g>
					<polygon fill="none" points="297.976,72.409 297.838,72.312 297.849,72.287      "/>
					<polygon fill="#010101" points="242.133,71.437 242.149,71.387 243.201,68.622 243.535,68.734 242.515,71.464 242.494,71.576        242.489,71.537 242.133,71.604 242.128,71.564      "/>
					<g>
						<polygon fill="none" points="297.976,72.409 297.838,72.312 297.849,72.287       "/>
						<polygon fill="#4D494A" points="259.062,77.98 259.001,78.017 258.996,78.013       "/>
						<g>
							<polygon fill="none" points="259.131,78.143 259.263,78.269 259.131,78.143        "/>
							<polygon fill="none" points="297.976,72.409 297.838,72.312 297.849,72.287        "/>
							<polygon fill="none" points="254.597,82.033 254.608,82.033 254.608,82.038 254.431,81.978 254.579,81.98        "/>
							<path fill="#010101" d="M242.261,72.054l0.039,0.162l0.005-0.017l0.27-0.058l-0.069,0.18l7.74-0.252l0.184,0.006l0.2,0.067         l0.2,0.066l0.2,0.068l0.183,0.116l0.15,0.105l0.106,0.127l0.064,0.13l-0.181,0.055l3.078,9.28l0.18,0.003l0.004,0.114h0.277         l0.262-0.006l0.239,0.006l0.217-0.039l0.222-0.056l0.224-0.111l0.205-0.172l0.244-0.234l0.006-0.017l0.14-0.194l0.161-0.206         l0.184-0.217l0.128-0.217l0.16-0.261l0.167-0.223l0.14-0.25l0.179-0.256l0.144-0.21l0.206-0.229l0.167-0.222l0.195-0.195         l0.172-0.183l0.184-0.161l0.178-0.144l0.205-0.118l0.045-0.022l-0.132-0.126l0,0l0.132,0.126l0.206-0.229l0.189-0.178         l0.166-0.167l0.179-0.145l0.173-0.128l0.183-0.105l0.161-0.094l0.178-0.089l0.201-0.045l0.194-0.084l0.2-0.044l0.233-0.033         l0.256-0.044l0.282-0.016l0.308-0.028l0.3-0.011l0.017,0.005l33.401-2.496l0.195-0.027l0.178-0.035l0.161-0.038l0.167-0.056         l0.155-0.077l0.161-0.095l0.134-0.123l0.156-0.133l0.033-0.044l0.584-1.363l-0.305-0.195l0.135,0.13l-0.021,0.018         l-0.147-0.104l-0.146,0.341l-0.099,0.059l-0.128,0.05l-0.15,0.062l-0.14,0.027l-0.177,0.034l-0.178,0.033l-33.418,2.491         l-0.212,0.022l-0.206,0.006l-0.205,0.005l-0.217,0.038h-0.224l-0.194,0.028l-0.211,0.022l-0.195,0.028l-0.216,0.039         l-0.195,0.027l-0.199,0.043l-0.222,0.056l-0.201,0.045l-0.212,0.077l-0.211,0.078l-0.2,0.1l-0.395,0.24l-0.401,0.366         l-0.422,0.434l-0.407,0.495l-0.395,0.518l-0.339,0.461l-0.333,0.444l-0.278,0.334l-0.162,0.039l-0.139,0.028l-0.173,0.017         h-0.166h-0.167l-0.146-0.011l-0.183-0.007l-0.162-0.017l-3.066-9.258l-0.067-0.133l-0.104-0.128l-0.15-0.106l-0.201-0.122         l-0.194-0.083l-0.2-0.067l-0.188-0.045l-0.184-0.004l-7.734,0.235l-0.93,2.447l-0.005-0.033L242.261,72.054z M297.838,72.312         l0.011-0.025l0.127,0.122L297.838,72.312z"/>
						</g>
					</g>
				</g>
			</g>
		</g>
		<polygon fill-rule="evenodd" clip-rule="evenodd" fill="#010101" points="296.669,72.993 296.869,72.948 297.047,72.915     297.209,72.876 297.376,72.82 297.531,72.743 297.692,72.647 297.819,72.542 297.976,72.409 297.71,72.153 297.592,72.281     297.47,72.37 297.353,72.442 297.225,72.492 297.103,72.526 296.958,72.57 296.803,72.592 296.63,72.609 296.669,72.993     296.669,72.993   "/>
		<polygon fill-rule="evenodd" clip-rule="evenodd" fill="#010101" points="263.272,75.472 296.669,72.993 296.63,72.609     263.229,75.105 263.272,75.472 263.272,75.472   "/>
		<polygon fill-rule="evenodd" clip-rule="evenodd" fill="#010101" points="259.997,76.066 260.191,75.983 260.382,75.917     260.608,75.844 260.798,75.777 261.004,75.716 261.198,75.688 261.393,75.661 261.609,75.622 261.788,75.588 261.994,75.583     262.205,75.561 262.416,75.539 262.627,75.517 262.816,75.506 263.045,75.489 263.272,75.472 263.229,75.105 263.017,75.127     262.806,75.149 262.583,75.149 262.372,75.172 262.166,75.178 261.967,75.222 261.761,75.228 261.531,75.244 261.332,75.288     261.131,75.333 260.915,75.372 260.692,75.427 260.504,75.493 260.276,75.566 260.048,75.638 259.848,75.738 259.997,76.066     259.997,76.066 259.997,76.066   "/>
		<polygon fill-rule="evenodd" clip-rule="evenodd" fill="#010101" points="257.005,79.37 257.077,79.32 257.229,79.148     257.361,78.969 257.521,78.764 257.689,78.541 257.879,78.308 258.051,78.067 258.246,77.817 258.439,77.568 258.641,77.3     258.846,77.073 259.047,76.861 259.252,76.633 259.425,76.45 259.643,76.3 259.819,76.155 259.997,76.066 259.848,75.738     259.619,75.866 259.425,76.005 259.197,76.188 258.98,76.394 258.779,76.606 258.579,76.817 258.357,77.095 258.162,77.345     257.967,77.595 257.772,77.845 257.601,78.084 257.411,78.318 257.244,78.541 257.083,78.747 256.95,78.925 256.827,79.069     256.895,79.036 257.005,79.37 257.005,79.37 257.005,79.37   "/>
		<polygon fill="none" points="293.089,69.665 293.162,69.503 293.295,69.381 293.495,69.281 293.729,69.247 293.855,69.253     294.001,69.264 294.14,69.292 294.278,69.32 294.445,69.375 294.596,69.426 294.758,69.498 294.93,69.593 295.073,69.66     295.225,69.765 295.357,69.865 295.502,69.988 295.652,70.093 295.758,70.222 295.886,70.338 295.991,70.466 296.186,70.717     296.286,70.974 296.336,71.102 296.363,71.185 296.348,71.401 296.308,71.573 296.186,71.718 296.007,71.807 295.769,71.857     295.635,71.869 295.496,71.84 295.335,71.824 295.163,71.785 295.012,71.734 294.846,71.679 294.668,71.602 294.512,71.512     294.351,71.439 294.178,71.345 294.027,71.24 293.884,71.117 293.75,71.017 293.611,70.877 293.489,70.744 293.383,70.616     293.212,70.355 293.111,70.099 293.084,70.015 293.056,69.875   "/>
		<polygon fill-rule="evenodd" clip-rule="evenodd" fill="#FFFFFF" points="250.607,69.315 251.297,69.304 251.353,69.304     245.432,67.327 245.131,67.505 250.602,69.332 250.602,69.332 250.607,69.315   "/>
		<polygon fill-rule="evenodd" clip-rule="evenodd" fill="#FFFFFF" points="250.607,69.315 243.562,69.54 243.534,69.401     243.495,69.239 243.451,69.096 243.396,68.928 243.368,68.789 243.368,68.678 243.412,68.545 243.535,68.455 243.824,68.255     244.146,68.066 244.469,67.877 244.792,67.688 245.098,67.494 245.131,67.505 250.602,69.332 250.602,69.332 250.607,69.315   "/>
		<polygon fill="#FFFFFF" points="246.325,73.597 251.124,73.326 253.003,74.083 253.664,76.047 253.864,76.726 253.069,76.776     252.291,76.776 251.573,76.758 250.917,76.725 250.278,76.641 249.684,76.536 249.138,76.391 248.593,76.246 248.082,76.057     247.587,75.872 247.119,75.661 246.657,75.432 246.18,75.199 245.725,74.955 245.269,74.708 244.796,74.458 244.751,74.258     244.719,74.08 244.674,73.88 244.646,73.685   "/>
		<polygon fill-rule="evenodd" clip-rule="evenodd" fill="#FFFFFF" points="258.413,74.146 258.48,74.224 259.098,74.597     259.297,74.275 258.68,73.902 258.74,73.997 258.413,74.146 258.436,74.19 258.48,74.224 258.413,74.146 258.413,74.146   "/>
		<polygon fill-rule="evenodd" clip-rule="evenodd" fill="#FFFFFF" points="252.925,74.261 252.819,74.133 253.697,76.782     254.048,76.676 253.171,74.027 253.075,73.922 253.171,74.027 253.143,73.944 253.075,73.922 252.925,74.261 252.925,74.261     252.925,74.261   "/>
		<polygon fill-rule="evenodd" clip-rule="evenodd" fill="#FFFFFF" points="251.141,73.499 251.052,73.488 252.925,74.261     253.075,73.922 251.202,73.148 251.129,73.143 251.202,73.148 251.168,73.137 251.129,73.143 251.141,73.499 251.141,73.499     251.141,73.499   "/>
		<polygon fill-rule="evenodd" clip-rule="evenodd" fill="#FFFFFF" points="244.835,73.674 244.657,73.874 251.141,73.499     251.129,73.143 244.646,73.518 244.474,73.702 244.646,73.518 244.44,73.523 244.474,73.702 244.835,73.674 244.835,73.674   "/>
		<polygon fill-rule="evenodd" clip-rule="evenodd" fill="#FFFFFF" points="244.885,74.303 244.957,74.42 244.951,74.325     244.929,74.224 244.924,74.13 244.896,74.047 244.891,73.953 244.868,73.852 244.84,73.769 244.835,73.674 244.474,73.702     244.473,73.813 244.489,73.93 244.518,74.013 244.523,74.108 244.551,74.19 244.573,74.292 244.612,74.397 244.617,74.492     244.707,74.614 244.617,74.492 244.646,74.575 244.707,74.614 244.885,74.303 244.885,74.303   "/>
		<polygon fill-rule="evenodd" clip-rule="evenodd" fill="#FFFFFF" points="253.703,76.765 253.853,76.537 253.058,76.586     252.291,76.609 251.596,76.581 250.923,76.541 250.322,76.452 249.722,76.363 249.177,76.218 248.648,76.079 248.138,75.889     247.665,75.694 247.191,75.5 246.73,75.271 246.27,75.043 245.813,74.798 245.357,74.553 244.885,74.303 244.707,74.614     245.179,74.864 245.635,75.11 246.103,75.376 246.563,75.605 247.047,75.822 247.515,76.034 248.02,76.24 248.532,76.429     249.094,76.58 249.644,76.708 250.255,76.819 250.896,76.903 251.562,76.959 252.302,76.964 253.069,76.943 253.896,76.904     254.048,76.676 253.896,76.904 254.126,76.887 254.048,76.676 253.697,76.782 253.697,76.782 253.703,76.765   "/>
		<g>
			<polygon fill="none" points="257.058,79.116 257.194,79.248 257.058,79.116    "/>
			<polygon fill="none" points="255.826,79.069 255.795,79.071 255.795,79.071    "/>
			<polygon fill="none" points="252.808,70.068 257.674,71.693 252.808,70.068    "/>
		</g>
		<polygon fill-rule="evenodd" clip-rule="evenodd" fill="#FFFFFF" points="263.229,75.105 262.984,75.116 262.711,75.155     262.467,75.166 262.2,75.188 261.943,75.233 261.671,75.271 261.399,75.311 261.138,75.372 260.875,75.432 260.648,75.505     260.398,75.588 260.164,75.677 259.965,75.777 259.725,75.883 259.531,76.022 259.353,76.167 259.575,76.445 259.747,76.317     259.914,76.205 260.098,76.1 260.309,76.022 260.515,75.905 260.736,75.85 260.998,75.79 261.227,75.716 261.477,75.688     261.699,75.633 261.967,75.611 262.222,75.566 262.494,75.527 262.762,75.505 263.012,75.478 263.272,75.472 263.229,75.105     263.229,75.105 263.229,75.105   "/>
		<polygon fill-rule="evenodd" clip-rule="evenodd" fill="#FFFFFF" points="296.63,72.609 263.229,75.105 263.272,75.472     296.669,72.993 296.63,72.609 296.63,72.609   "/>
		<polygon fill-rule="evenodd" clip-rule="evenodd" fill="#FFFFFF" points="297.253,70.572 297.393,70.767 297.537,70.945     297.604,71.134 297.709,71.319 297.765,71.486 297.781,71.658 297.787,71.809 297.775,71.952 297.736,72.069 297.681,72.181     297.609,72.287 297.48,72.392 297.348,72.459 297.136,72.537 296.914,72.592 296.63,72.609 296.669,72.993 296.976,72.965     297.241,72.887 297.476,72.798 297.681,72.681 297.87,72.559 298.003,72.381 298.075,72.22 298.143,72.02 298.137,71.813     298.148,71.614 298.104,71.413 298.031,71.186 297.947,70.991 297.836,70.767 297.692,70.534 297.548,70.356 297.253,70.572     297.253,70.572   "/>
		<polygon fill-rule="evenodd" clip-rule="evenodd" fill="#FFFFFF" points="293.272,68.669 293.573,68.659 293.879,68.686     294.189,68.753 294.49,68.797 294.773,68.892 295.057,68.987 295.33,69.115 295.585,69.238 295.853,69.382 296.098,69.538     296.358,69.699 296.548,69.855 296.746,70.032 296.942,70.228 297.104,70.411 297.253,70.572 297.548,70.356 297.376,70.15     297.181,69.956 296.986,69.76 296.77,69.577 296.53,69.405 296.292,69.232 296.048,69.076 295.77,68.909 295.48,68.775     295.186,68.659 294.885,68.558 294.568,68.453 294.257,68.385 293.939,68.335 293.578,68.307 293.261,68.312 293.272,68.669     293.272,68.669   "/>
		<polygon fill-rule="evenodd" clip-rule="evenodd" fill="#FFFFFF" points="263.719,69.687 293.272,68.669 293.261,68.312     263.725,69.336 263.719,69.687 263.719,69.687   "/>
		<polygon fill-rule="evenodd" clip-rule="evenodd" fill="#FFFFFF" points="259.053,68.945 259.332,69.057 259.627,69.118     259.91,69.212 260.204,69.273 260.516,69.341 260.805,69.419 261.122,69.468 261.405,69.508 261.701,69.57 262.006,69.597     262.306,69.642 262.602,69.647 262.885,69.686 263.186,69.675 263.457,69.692 263.719,69.687 263.725,69.336 263.446,69.336     263.174,69.32 262.918,69.308 262.629,69.286 262.34,69.264 262.051,69.241 261.768,69.202 261.467,69.158 261.173,69.096     260.889,69.057 260.6,68.979 260.299,68.934 260.01,68.856 259.704,68.773 259.448,68.706 259.164,68.612 259.049,68.962     259.049,68.962 259.053,68.945   "/>
		<polygon fill-rule="evenodd" clip-rule="evenodd" fill="#FFFFFF" points="249.084,66.21 249.591,66.137 250.067,66.093     250.524,66.06 250.942,66.032 251.337,66.016 251.692,66.061 252.06,66.072 252.365,66.1 252.683,66.15 252.978,66.212     253.255,66.267 253.506,66.35 253.771,66.44 253.982,66.529 254.244,66.635 254.45,66.74 254.689,66.857 254.929,66.975     255.162,67.108 255.396,67.241 255.629,67.375 255.873,67.531 256.113,67.649 256.374,67.809 256.663,67.943 256.941,68.11     257.252,68.232 257.553,68.388 257.892,68.539 258.259,68.661 258.648,68.828 259.049,68.962 259.164,68.612 258.765,68.478     258.369,68.327 258.041,68.2 257.697,68.066 257.381,67.904 257.107,67.776 256.83,67.609 256.558,67.481 256.29,67.336     256.04,67.197 255.807,67.064 255.562,66.908 255.329,66.774 255.089,66.658 254.851,66.54 254.634,66.412 254.395,66.296     254.134,66.189 253.889,66.089 253.621,66 253.338,65.905 253.044,65.845 252.743,65.799 252.415,65.727 252.076,65.688     251.726,65.682 251.319,65.677 250.931,65.676 250.479,65.693 250.024,65.726 249.541,65.787 249.04,65.843 249.068,66.204     249.068,66.204 249.084,66.21   "/>
		<polygon fill-rule="evenodd" clip-rule="evenodd" fill="#FFFFFF" points="243.629,68.617 243.918,68.417 244.241,68.228     244.563,68.039 244.892,67.833 245.191,67.655 245.53,67.471 245.849,67.299 246.176,67.149 246.526,66.988 246.877,66.827     247.222,66.682 247.577,66.56 247.962,66.465 248.311,66.359 248.695,66.265 249.068,66.204 249.04,65.843 248.623,65.926     248.229,65.998 247.839,66.109 247.472,66.209 247.105,66.365 246.727,66.499 246.382,66.643 246.03,66.804 245.676,66.981     245.337,67.165 245.02,67.337 244.697,67.526 244.374,67.715 244.052,67.904 243.746,68.1 243.44,68.294 243.612,68.611     243.612,68.611 243.629,68.617   "/>
		<polygon fill-rule="evenodd" clip-rule="evenodd" fill="#FFFFFF" points="243.562,69.374 243.751,69.529 243.696,69.362     243.662,69.184 243.618,69.04 243.579,68.877 243.557,68.778 243.541,68.717 243.567,68.633 243.612,68.611 243.44,68.294     243.278,68.444 243.195,68.639 243.173,68.817 243.229,68.984 243.268,69.145 243.312,69.29 243.356,69.435 243.384,69.574     243.557,69.723 243.384,69.574 243.39,69.723 243.557,69.723 243.562,69.374 243.562,69.374   "/>
		<g>
			<polygon fill="none" points="257.207,70.703 257.209,70.704 257.163,70.892    "/>
			<polygon fill="#FFFFFF" points="257.213,70.686 257.209,70.704 257.207,70.703    "/>
			<polygon fill="#FFFFFF" points="257.129,70.769 257.207,70.703 257.163,70.892    "/>
			<g>
				<polygon fill="none" points="293.162,69.503 293.295,69.381 293.495,69.281 293.729,69.247 293.855,69.253 294.001,69.264       294.14,69.292 294.278,69.32 294.445,69.375 294.596,69.426 294.758,69.498 294.93,69.593 295.073,69.66 295.225,69.765       295.357,69.865 295.502,69.988 295.652,70.093 295.758,70.222 295.886,70.338 295.991,70.466 296.186,70.717 296.286,70.974       296.336,71.102 296.363,71.185 296.348,71.401 296.308,71.573 296.186,71.718 296.007,71.807 295.769,71.857 295.635,71.869       295.496,71.84 295.335,71.824 295.163,71.785 295.012,71.734 294.846,71.679 294.668,71.602 294.512,71.512 294.351,71.439       294.178,71.345 294.027,71.24 293.884,71.117 293.75,71.017 293.611,70.877 293.489,70.744 293.383,70.616 293.212,70.355       293.111,70.099 293.084,70.015 293.056,69.875 293.089,69.665     "/>
				<polygon fill="none" points="260.971,70.678 260.971,70.678 260.805,70.754     "/>
				<polygon fill="none" points="262.172,73.714 262.29,73.808 262.3,73.831 261.983,74.225 259.191,74.425 258.585,74.075       258.583,74.068 258.74,73.997 257.554,70.868 257.751,70.671 260.288,70.525 260.826,70.805 262.145,73.909     "/>
				<polygon fill="none" points="252.646,69.736 252.646,69.736 257.318,71.295     "/>
				<g>
					<polygon fill="none" points="293.162,69.503 293.295,69.381 293.495,69.281 293.729,69.247 293.855,69.253 294.001,69.264        294.14,69.292 294.278,69.32 294.445,69.375 294.596,69.426 294.758,69.498 294.93,69.593 295.073,69.66 295.225,69.765        295.357,69.865 295.502,69.988 295.652,70.093 295.758,70.222 295.886,70.338 295.991,70.466 296.186,70.717 296.286,70.974        296.336,71.102 296.363,71.185 296.348,71.401 296.308,71.573 296.186,71.718 296.007,71.807 295.769,71.857 295.635,71.869        295.496,71.84 295.335,71.824 295.163,71.785 295.012,71.734 294.846,71.679 294.668,71.602 294.512,71.512 294.351,71.439        294.178,71.345 294.027,71.24 293.884,71.117 293.75,71.017 293.611,70.877 293.489,70.744 293.383,70.616 293.212,70.355        293.111,70.099 293.084,70.015 293.056,69.875 293.089,69.665      "/>
					<polygon fill="none" points="260.288,70.525 260.826,70.805 262.145,73.909 262.172,73.714 262.29,73.808 262.3,73.831        261.983,74.225 259.191,74.425 258.585,74.075 258.583,74.068 258.74,73.997 257.554,70.868 257.751,70.671      "/>
					<polygon fill="none" points="252.646,69.736 252.646,69.736 257.318,71.295      "/>
					<g>
						<polygon fill="none" points="293.162,69.503 293.295,69.381 293.495,69.281 293.729,69.247 293.855,69.253 294.001,69.264         294.14,69.292 294.278,69.32 294.445,69.375 294.596,69.426 294.758,69.498 294.93,69.593 295.073,69.66 295.225,69.765         295.357,69.865 295.502,69.988 295.652,70.093 295.758,70.222 295.886,70.338 295.991,70.466 296.186,70.717 296.286,70.974         296.336,71.102 296.363,71.185 296.348,71.401 296.308,71.573 296.186,71.718 296.007,71.807 295.769,71.857 295.635,71.869         295.496,71.84 295.335,71.824 295.163,71.785 295.012,71.734 294.846,71.679 294.668,71.602 294.512,71.512 294.351,71.439         294.178,71.345 294.027,71.24 293.884,71.117 293.75,71.017 293.611,70.877 293.489,70.744 293.383,70.616 293.212,70.355         293.111,70.099 293.084,70.015 293.056,69.875 293.089,69.665       "/>
						<polygon fill="none" points="260.288,70.525 260.826,70.805 262.145,73.909 262.172,73.714 262.29,73.808 262.3,73.831         261.986,74.221 261.967,74.053 259.175,74.252 259.297,74.275 259.204,74.423 259.191,74.425 258.585,74.075 258.583,74.068         258.74,73.997 257.554,70.868 257.751,70.671       "/>
						<polygon fill="none" points="252.646,69.736 252.646,69.736 257.318,71.295       "/>
						<g>
							<polygon fill="none" points="262.243,73.219 267.532,74.984 262.243,73.219        "/>
							<polygon fill="none" points="262.105,72.894 268.199,74.929 262.105,72.894        "/>
							<polygon fill="none" points="293.162,69.503 293.295,69.381 293.495,69.281 293.729,69.247 293.855,69.253 294.001,69.264          294.14,69.292 294.278,69.32 294.445,69.375 294.596,69.426 294.758,69.498 294.93,69.593 295.073,69.66 295.225,69.765          295.357,69.865 295.502,69.988 295.652,70.093 295.758,70.222 295.886,70.338 295.991,70.466 296.186,70.717 296.286,70.974          296.336,71.102 296.363,71.185 296.348,71.401 296.308,71.573 296.186,71.718 296.007,71.807 295.769,71.857 295.635,71.869          295.496,71.84 295.335,71.824 295.163,71.785 295.012,71.734 294.846,71.679 294.668,71.602 294.512,71.512 294.351,71.439          294.178,71.345 294.027,71.24 293.884,71.117 293.75,71.017 293.611,70.877 293.489,70.744 293.383,70.616 293.212,70.355          293.111,70.099 293.084,70.015 293.056,69.875 293.089,69.665        "/>
							<polygon fill="none" points="260.288,70.525 260.826,70.805 262.145,73.909 262.172,73.714 262.29,73.808 262.3,73.831          261.986,74.221 261.983,74.225 259.204,74.423 259.191,74.425 258.585,74.075 258.583,74.068 258.74,73.997 257.554,70.868          257.751,70.671        "/>
							<polygon fill="none" points="252.646,69.736 252.646,69.736 257.318,71.295        "/>
							<polygon fill="#FFFFFF" points="262.105,72.894 268.199,74.929 267.538,74.968 267.532,74.984 262.243,73.219        "/>
							<g>
								<polygon fill="none" points="293.162,69.503 293.295,69.381 293.495,69.281 293.729,69.247 293.855,69.253 294.001,69.264           294.14,69.292 294.278,69.32 294.445,69.375 294.596,69.426 294.758,69.498 294.93,69.593 295.073,69.66 295.225,69.765           295.357,69.865 295.502,69.988 295.652,70.093 295.758,70.222 295.886,70.338 295.991,70.466 296.186,70.717           296.286,70.974 296.336,71.102 296.363,71.185 296.348,71.401 296.308,71.573 296.186,71.718 296.007,71.807           295.769,71.857 295.635,71.869 295.496,71.84 295.335,71.824 295.163,71.785 295.012,71.734 294.846,71.679 294.668,71.602           294.512,71.512 294.351,71.439 294.178,71.345 294.027,71.24 293.884,71.117 293.75,71.017 293.611,70.877 293.489,70.744           293.383,70.616 293.212,70.355 293.111,70.099 293.084,70.015 293.056,69.875 293.089,69.665         "/>
								<polygon fill="none" points="260.288,70.525 260.826,70.805 262.1,73.805 261.902,74.058 259.175,74.252 259.297,74.275           259.204,74.423 259.191,74.425 258.585,74.075 258.583,74.068 258.74,73.997 257.554,70.868 257.751,70.671         "/>
								<polygon fill="none" points="262.172,73.714 262.29,73.808 262.29,73.808         "/>
								<polygon fill="none" points="252.646,69.736 252.646,69.736 257.318,71.295         "/>
								<path fill="#FFFFFF" d="M243.557,69.723l7.74-0.252l0.161,0.016l0.15,0.051l0.2,0.066l0.184,0.062l0.166,0.112l0.124,0.078          l0.071,0.116l0.056,0.056l3.078,9.28l0.045,0.145l0.149-0.005l0.156-0.022l0.178,0.022l0.217,0.017l0.206-0.005l0.2,0.011          l0.184-0.051l0.206-0.061l0.166-0.111l0.2-0.212l0.167-0.222l0.155-0.189l0.156-0.188l0.134-0.178l0.128-0.161l0.111-0.168          l0.133-0.177l0.111-0.167l0.128-0.161l0.128-0.161l0.139-0.139l0.146-0.155l0.167-0.167l0.166-0.167l0.212-0.188          l-0.112-0.142l0.167-0.137l0.189-0.123l0.218-0.094l0.2-0.1l0.216-0.094l0.244-0.067l0.252-0.083l0.244-0.066l0.233-0.034          l0.256-0.044l0.271-0.04l0.257-0.043l0.267-0.022l0.268-0.021l0.25-0.028l0.245-0.012l4.292-0.31l-5.289-1.765l-0.138-0.325          l0,0l6.094,2.035l28.459-2.126l0.528-0.083l0.395-0.183l0.272-0.262l0.1-0.3l0.001-0.334l0.005-0.017l-0.095-0.384          l-0.188-0.377l-0.274-0.407l-0.16-0.183l-0.178-0.189l-0.195-0.195l-0.205-0.161l-0.217-0.184l-0.244-0.157l-0.262-0.161          l-0.262-0.161l-0.277-0.112l-0.273-0.128l-0.3-0.1l-0.316-0.106l-0.3-0.044l-0.312-0.067l-0.322-0.033l-0.317,0.005          l-4.298,0.161l-25.238,0.863h-0.278l-0.261,0.006l-0.295-0.006l-0.283-0.04l-0.29-0.021l-0.289-0.023l-0.283-0.039          l-0.301-0.045l-0.3-0.043l-0.295-0.062l-0.295-0.062l-0.294-0.061l-0.306-0.083l-0.289-0.078l-0.272-0.072l-0.284-0.095          l-0.4-0.134l-0.395-0.15l-0.345-0.134l-0.344-0.132l-0.302-0.157l-0.289-0.133l-0.3-0.156l-0.272-0.128l-0.262-0.161          l-0.232-0.134l-0.251-0.139l-0.233-0.133l-0.25-0.139l-0.233-0.134l-0.223-0.111l-0.233-0.134l-0.239-0.117l-0.245-0.101          l-0.233-0.077l-0.267-0.089l-0.284-0.095l-0.271-0.073l-0.3-0.044l-0.317-0.05l-0.322-0.034l-0.362-0.027l-0.384-0.018          l-0.395,0.017l-0.412,0.011l-0.46,0.05l-0.479,0.044l-0.522,0.066l-0.39,0.056l-0.383,0.094l-0.385,0.095l-0.356,0.122          l-0.377,0.134l-0.362,0.139l-0.344,0.144l-0.352,0.161l-0.333,0.168l-0.339,0.184l5.399,1.803l-7.269,0.243L243.557,69.723z           M293.056,69.875l0.033-0.211l0.073-0.161l0.133-0.122l0.2-0.101l0.233-0.034l0.127,0.006l0.146,0.011l0.139,0.027          l0.139,0.028l0.167,0.056l0.15,0.05l0.162,0.072l0.172,0.095l0.144,0.067l0.151,0.105l0.133,0.1l0.145,0.123l0.15,0.105          l0.105,0.129l0.128,0.116l0.105,0.128l0.194,0.251l0.101,0.256l0.05,0.128l0.027,0.083l-0.016,0.217l-0.04,0.172          l-0.122,0.145l-0.179,0.088l-0.238,0.05l-0.134,0.012l-0.139-0.028l-0.161-0.016l-0.172-0.039l-0.151-0.051l-0.166-0.056          l-0.178-0.077l-0.156-0.09l-0.161-0.072l-0.173-0.094l-0.15-0.105l-0.144-0.123l-0.134-0.1l-0.139-0.139l-0.122-0.134          l-0.106-0.128l-0.171-0.261l-0.101-0.256l-0.027-0.083L293.056,69.875z M262.29,73.808L262.29,73.808l-0.118-0.094          L262.29,73.808z M257.554,70.868l0.197-0.197l2.537-0.146l0.538,0.28l1.273,3l-0.197,0.252l-2.728,0.195l0.122,0.022          l-0.093,0.148l-0.013,0.002l-0.606-0.351l-0.002-0.007l0.157-0.071L257.554,70.868z"/>
							</g>
						</g>
					</g>
				</g>
			</g>
		</g>
		<polygon fill-rule="evenodd" clip-rule="evenodd" fill="#010101" points="291.337,71.805 291.182,71.717 291.152,71.578     291.376,71.521 291.42,71.667 291.286,71.566 291.337,71.805 291.337,71.805   "/>
		<polygon fill-rule="evenodd" clip-rule="evenodd" fill="#010101" points="291.638,71.628 291.604,71.672 291.549,71.728     291.48,71.761 291.415,71.795 291.337,71.805 291.286,71.566 291.32,71.578 291.37,71.539 291.432,71.521 291.437,71.505     291.426,71.539 291.631,71.645 291.631,71.645 291.638,71.628   "/>
		<polygon fill-rule="evenodd" clip-rule="evenodd" fill="#010101" points="291.01,70.231 291.025,70.237 291.132,70.365     291.271,70.503 291.403,70.659 291.531,70.832 291.637,71.015 291.698,71.221 291.699,71.444 291.631,71.645 291.426,71.539     291.471,71.405 291.46,71.272 291.42,71.11 291.32,70.966 291.21,70.799 291.088,70.665 290.948,70.525 290.842,70.398     290.858,70.404 291.01,70.231 291.01,70.231   "/>
		<polygon fill-rule="evenodd" clip-rule="evenodd" fill="#010101" points="288.963,69.641 288.946,69.635 289.241,69.641     289.52,69.641 289.78,69.69 290.03,69.719 290.286,69.786 290.524,69.903 290.775,70.042 291.01,70.231 290.858,70.404     290.632,70.253 290.414,70.125 290.209,70.02 289.985,69.963 289.741,69.918 289.491,69.891 289.235,69.88 288.974,69.885     288.979,69.869 288.94,69.652 288.94,69.652 288.963,69.641   "/>
		<polygon fill-rule="evenodd" clip-rule="evenodd" fill="#010101" points="267.266,70.779 267.36,70.717 288.94,69.652     288.979,69.869 267.394,70.95 267.488,70.89 267.266,70.779 267.266,70.779   "/>
		<polygon fill-rule="evenodd" clip-rule="evenodd" fill="#010101" points="266.754,71.535 266.521,71.457 266.537,71.295     266.582,71.163 266.648,71.018 266.737,70.917 266.854,70.846 267.005,70.785 267.172,70.728 267.36,70.717 267.394,70.95     267.216,70.984 267.055,71.023 266.977,71.034 266.898,71.101 266.86,71.163 266.799,71.235 266.766,71.335 266.771,71.485     266.537,71.407 266.754,71.535 266.754,71.535   "/>
		<g>
			<polygon fill="none" points="267.361,70.724 267.394,70.95 267.361,70.724    "/>
			<g>
				<polygon fill="none" points="266.771,71.485 266.799,71.346 266.865,71.201 266.921,71.09 267.038,71.018 267.177,70.989       267.371,70.961 267.394,70.95 288.979,69.869 289.341,69.896 289.642,69.885 289.926,69.924 290.186,69.975 290.426,70.091       290.643,70.219 290.842,70.398 291.07,70.659 291.271,70.894 291.415,71.127 291.487,71.299 291.487,71.411 291.437,71.505       291.298,71.589 291.037,71.649 290.67,71.694 268.488,72.837 268.472,72.832 268.161,72.821 267.855,72.737 267.582,72.609       267.349,72.475 267.155,72.28 267.016,72.086 266.893,71.897 266.799,71.736 266.781,71.619     "/>
				<g>
					<path fill="none" d="M266.799,71.346l-0.028,0.139l0.011,0.134l0.018,0.117l0.094,0.161l0.123,0.189l0.14,0.194l0.193,0.195       l0.233,0.134l0.273,0.128l0.306,0.084l0.311,0.011l0.017,0.006l22.182-1.144l0.367-0.044l0.261-0.06l0.139-0.084l0.051-0.094       v-0.111l-0.072-0.172l-0.145-0.233l-0.2-0.234l-0.229-0.261l-0.199-0.179l-0.217-0.128l-0.24-0.116l-0.26-0.051l-0.284-0.039       l-0.301,0.011l-0.361-0.028l-21.586,1.082l-0.022,0.011l-0.194,0.028l-0.139,0.029l-0.117,0.072l-0.056,0.111L266.799,71.346z        M267.104,71.208l21.586-1.083l0.01-0.034l0.291,0.022l0.277,0.001l0.262,0.049l0.25,0.028l0.256,0.067l0.238,0.117       l0.233,0.134l0.25,0.194l0.096,0.106l0.083,0.083l0.077,0.1l0.067,0.078l0.095,0.106l0.072,0.117l0.061,0.094l0.062,0.095       l0.006,0.039l-0.224,0.056l0.007,0.039l-0.056-0.112l-0.061-0.094l-0.084-0.083l-0.062-0.095l-0.065-0.078l-0.079-0.101       l-0.083-0.083l-0.1-0.089l0.007-0.007l-0.197-0.148l-0.212-0.146l-0.21-0.088l-0.222-0.057l-0.245-0.044l-0.251-0.028       l-0.272-0.017l-0.261,0.006l-21.58,1.064L267.104,71.208z"/>
					<g>
						<path fill="none" d="M266.799,71.346l-0.028,0.139l0.011,0.134l0.018,0.117l0.094,0.161l0.123,0.189l0.14,0.194l0.193,0.195        l0.233,0.134l0.273,0.128l0.306,0.084l0.311,0.011l0.017,0.006l22.182-1.144l0.367-0.044l0.261-0.06l0.139-0.084l0.051-0.094        v-0.111l-0.072-0.172l-0.145-0.233l-0.2-0.234l-0.229-0.261l-0.199-0.179l-0.217-0.128l-0.24-0.116l-0.26-0.051l-0.284-0.039        l-0.301,0.011l-0.361-0.028l-21.586,1.082l-0.022,0.011l-0.194,0.028l-0.139,0.029l-0.117,0.072l-0.056,0.111L266.799,71.346z        "/>
						<g>
							<polygon fill="none" points="266.865,71.201 266.921,71.09 267.038,71.018 267.177,70.989 267.305,70.972 267.127,71.307          288.713,70.225 288.99,70.225 289.246,70.237 289.508,70.286 289.758,70.314 289.997,70.375 290.225,70.47 290.452,70.621          290.676,70.788 290.754,70.887 290.837,70.971 290.915,71.071 290.998,71.155 291.059,71.249 291.137,71.349 291.198,71.444          291.271,71.56 291.279,71.593 291.037,71.649 290.67,71.694 268.488,72.837 268.472,72.832 268.161,72.821 267.855,72.737          267.582,72.609 267.349,72.475 267.155,72.28 267.016,72.086 266.893,71.897 266.799,71.736 266.781,71.619 266.771,71.485          266.799,71.346        "/>
							<polygon fill="#010101" points="291.198,71.444 291.137,71.349 291.059,71.249 290.998,71.155 290.915,71.071          290.837,70.971 290.754,70.887 290.676,70.788 290.452,70.621 290.225,70.47 289.997,70.375 289.758,70.314 289.508,70.286          289.246,70.237 288.99,70.225 288.713,70.225 267.127,71.307 267.305,70.972 267.371,70.961 267.394,70.95 288.979,69.869          289.341,69.896 289.642,69.885 289.926,69.924 290.186,69.975 290.426,70.091 290.643,70.219 290.842,70.398 291.07,70.659          291.271,70.894 291.415,71.127 291.487,71.299 291.487,71.411 291.437,71.505 291.298,71.589 291.279,71.593 291.271,71.56                 "/>
							<g>
								<polygon fill="none" points="266.81,71.323 266.826,71.318 266.938,71.318 267.127,71.307 267.307,70.971 267.371,70.961           267.394,70.95 288.979,69.869 289.341,69.896 289.642,69.885 289.926,69.924 290.186,69.975 290.426,70.091 290.643,70.219           290.842,70.398 291.07,70.659 291.271,70.894 291.415,71.127 291.487,71.299 291.487,71.411 291.437,71.505 291.298,71.589           291.279,71.593 291.037,71.649 290.67,71.694 268.488,72.837 268.472,72.832 268.161,72.821 267.855,72.737 267.582,72.609           267.349,72.475 267.155,72.28 267.016,72.086 266.893,71.897 266.799,71.736 266.781,71.619 266.771,71.485 266.799,71.346                   "/>
								<path fill="#010101" d="M266.521,71.457l0.023,0.211l0.044,0.146l0.061,0.206l0.145,0.233l0.178,0.189l0.229,0.206          l0.272,0.184l0.306,0.139l0.321,0.088l0.39,0l22.176-1.126l0.422-0.044l0.3-0.067l0.218-0.15l0.122-0.2l-0.005-0.206          l-0.084-0.251l-0.161-0.238l-0.222-0.279l-0.229-0.261l-0.245-0.212l-0.26-0.161l-0.257-0.123l-0.278-0.056l-0.333-0.056          h-0.334l-0.378,0.022l-21.58,1.065l0.001,0.007l-0.229,0.01l-0.234,0.088l-0.154,0.134l-0.106,0.151l-0.073,0.161          L266.521,71.457z M266.771,71.485l0.028-0.139l0.011-0.023l0.017-0.005h0.111l0.189-0.011l0.18-0.336l0.064-0.009          l0.022-0.011l21.586-1.082l0.361,0.028l0.301-0.011l0.284,0.039l0.26,0.051l0.24,0.116l0.217,0.128l0.199,0.179l0.229,0.261          l0.2,0.234l0.145,0.233l0.072,0.172v0.111l-0.051,0.094l-0.139,0.084l-0.019,0.004l-0.242,0.056l-0.367,0.044l-22.182,1.144          l-0.017-0.006l-0.311-0.011l-0.306-0.084l-0.273-0.128l-0.233-0.134l-0.193-0.195l-0.14-0.194l-0.123-0.189l-0.094-0.161          l-0.018-0.117L266.771,71.485z"/>
							</g>
						</g>
					</g>
				</g>
			</g>
		</g>
	</g>
</g>
<rect x="232.75" y="250.982" fill="#D1D2D3" width="73.25" height="18.508"/>

</g></svg>