<?xml version="1.0" encoding="UTF-8" standalone="no"?>
<svg
     viewBox="0 0 3450 5100"
     width="3450"
     height="5100"
     version="1.1"
     id="svg199"
     sodipodi:docname="JumboHookBox90Inside.svg"
     inkscape:version="1.4 (e7c3feb1, 2024-10-09)"
     xmlns:inkscape="http://www.inkscape.org/namespaces/inkscape"
     xmlns:sodipodi="http://sodipodi.sourceforge.net/DTD/sodipodi-0.dtd"
     xmlns="http://www.w3.org/2000/svg"
     xmlns:svg="http://www.w3.org/2000/svg">
    <defs
         id="defs199">
        <defs
             id="defs1">
            <style
                 id="style1">.cls-1,.cls-2,.cls-3,.cls-4,.cls-5,.cls-6,.cls-7,.cls-8,.cls-9,.cls-10,.cls-11,.cls-12,.cls-13,.cls-14,.cls-15,.cls-16,.cls-17,.cls-18,.cls-19,.cls-20,.cls-21,.cls-22,.cls-23,.cls-24,.cls-25,.cls-26,.cls-27,.cls-28,.cls-29,.cls-30{fill:none;}.cls-2,.cls-3,.cls-4,.cls-5,.cls-6,.cls-7,.cls-8,.cls-9,.cls-11,.cls-12,.cls-14,.cls-15,.cls-16,.cls-17,.cls-18,.cls-19,.cls-20,.cls-21,.cls-22,.cls-23,.cls-24,.cls-25,.cls-26,.cls-27,.cls-28,.cls-29{stroke-miterlimit:10;}.cls-2,.cls-18{stroke:#0baa4b;}.cls-31,.cls-32,.cls-33,.cls-34{fill-rule:evenodd;}.cls-31,.cls-35{fill:#fff;}.cls-36,.cls-37,.cls-38,.cls-39{font-family:Arial-Black, 'Arial Black';font-weight:800;}.cls-36,.cls-38,.cls-39,.cls-40,.cls-41{fill:#231f20;}.cls-3{stroke-dasharray:5.02 5.02;}.cls-3,.cls-4,.cls-5,.cls-6,.cls-7,.cls-8,.cls-9,.cls-11,.cls-12,.cls-14,.cls-15,.cls-16,.cls-20,.cls-21,.cls-22,.cls-23,.cls-24,.cls-25,.cls-26,.cls-27,.cls-28{stroke:#26aae1;}.cls-4{stroke-dasharray:4.99 4.99;}.cls-5{stroke-dasharray:5 5;}.cls-6{stroke-dasharray:5 5;}.cls-7{stroke-dasharray:5 5;}.cls-8{stroke-dasharray:4.99 4.99;}.cls-9{stroke-dasharray:5 5;}.cls-10,.cls-13,.cls-17,.cls-29,.cls-30{stroke-width:2px;}.cls-10,.cls-30{stroke:#2ba4dd;}.cls-11{stroke-dasharray:5.88 5.88;}.cls-13{stroke:#ec2224;}.cls-37{fill:#020202;}.cls-37,.cls-38{font-size:12.75px;}.cls-32{fill:#b7d333;}.cls-14{stroke-dasharray:5.3 5.3;}.cls-15{stroke-dasharray:5.21 5.21;}.cls-16{stroke-dasharray:5.21 5.21;}.cls-42{fill:#919396;}.cls-42,.cls-43,.cls-44,.cls-41,.cls-45{font-family:Arial-BoldMT, Arial;font-weight:700;}.cls-42,.cls-43,.cls-44,.cls-45{font-size:9px;}.cls-46{fill:#d0d1d2;}.cls-17{stroke:#0ea94b;}.cls-18,.cls-40{opacity:.5;}.cls-47{letter-spacing:0em;}.cls-19{stroke:red;}.cls-48{font-size:12.36px;}.cls-49{font-size:14.83px;}.cls-39{font-size:30px;}.cls-50{letter-spacing:0em;}.cls-20{stroke-dasharray:4.94 4.94;}.cls-21{stroke-dasharray:4.94 4.94;}.cls-22{stroke-dasharray:4.94 4.94;}.cls-23{stroke-dasharray:4.94 4.94;}.cls-24{stroke-dasharray:4.94 4.94;}.cls-25{stroke-dasharray:5.06 5.06;}.cls-43{fill:#2ba4dd;}.cls-26{stroke-dasharray:5.32 5.32;}.cls-27{stroke-dasharray:5.04 5.04;}.cls-28{stroke-dasharray:5.04 5.04;}.cls-29{stroke:#929395;}.cls-44{fill:#0baa4b;}.cls-30{stroke-dasharray:4.99 4.99;}.cls-51{letter-spacing:-.02em;}.cls-52{letter-spacing:-.02em;}.cls-53{letter-spacing:-.02em;}.cls-54{letter-spacing:-.02em;}.cls-55{letter-spacing:-.02em;}.cls-56{letter-spacing:-.02em;}.cls-57{letter-spacing:-.06em;}.cls-58{letter-spacing:-.04em;}.cls-59{letter-spacing:-.04em;}.cls-60{letter-spacing:-.03em;}.cls-61{letter-spacing:-.03em;}.cls-62{letter-spacing:-.03em;}.cls-63{letter-spacing:-.03em;}.cls-64{letter-spacing:0em;}.cls-65,.cls-34{fill:#4e494b;}.cls-41{font-size:10px;}.cls-66{letter-spacing:.03em;}.cls-67{letter-spacing:.02em;}.cls-68{letter-spacing:.05em;}.cls-45{fill:#eb222a;}.cls-69{letter-spacing:.01em;}</style>
        </defs>
    </defs>
    <sodipodi:namedview
         id="namedview199"
         pagecolor="#505050"
         bordercolor="#eeeeee"
         borderopacity="1"
         inkscape:showpageshadow="0"
         inkscape:pageopacity="0"
         inkscape:pagecheckerboard="0"
         inkscape:deskcolor="#d1d1d1"
         inkscape:zoom="0.17647059"
         inkscape:cx="1960.6667"
         inkscape:cy="3128"
         inkscape:window-width="1872"
         inkscape:window-height="1027"
         inkscape:window-x="62"
         inkscape:window-y="25"
         inkscape:window-maximized="1"
         inkscape:current-layer="svg199" />
    <path
         class="cls-40"
         d="M -1.38e-5,-2.04e-5 V 5100 H 3450 V -2.04e-5 Z"
         id="path1"
         style="stroke-width:4.16667"
         sodipodi:nodetypes="ccccc" />
    <path
         class="cls-19"
         d="m 1313.625,165.12498 c -66.375,0 -120.2083,53.83333 -120.2083,120.20834 v 657.20833 c 0,22.91667 0,60.41665 0,83.33335 V 1320.5 c 0,22.9167 0,41.6667 -0.083,41.6667 h -41.75 c 0,0 -297.66664,0 -297.66664,0 -22.91667,0 -60.41667,0.9166 -83.29167,2.0833 l -707.79167,35.375 c -0.333333,0 -0.583333,0.2917 -0.583333,0.625 v 1582.7917 c 0,0 0.08333,0.2083 0.208333,0.2083 13.5,0.6667 708.20834,35.4167 708.20834,35.4167 22.875,1.125 60.375,2.0833 83.29167,2.0833 h 339.12497 c 0,0 0.2084,0.083 0.2084,0.2083 v 339.125 c 0,22.9167 0,60.4167 0,83.3334 v 1533.125 c 0,41.5417 33.6666,75.2083 75.2083,75.2083 h 913.0833 c 41.5417,0 75.2084,-33.6666 75.2084,-75.2083 v -1533.125 c 0,-22.9167 0,-60.4167 0,-83.3334 v -339.125 c 0,0 0.083,-0.2083 0.2083,-0.2083 9.7917,0 343.6667,0 343.6667,0 22.9166,0 60.4166,-0.9583 83.2916,-2.0833 l 703.6667,-35.375 c 0,0 0.2083,-0.083 0.2083,-0.2084 V 1401.5 c 0,0 -0.125,-0.2917 -0.25,-0.2917 l -706.5833,-34 c -22.875,-1.0833 -60.375,-2.1666 -83.2917,-2.3333 l -299.1666,-2.375 c -22.9167,-0.1667 -41.875,-0.3333 -42.0834,-0.3333 -0.2083,0 -0.4166,-18.75 -0.4166,-41.6667 v -294.625 c 0,-22.9167 0,-60.41668 0.042,-83.33335 l 0.75,-612 c 0,-22.91667 -0.4583,-50.79167 -1.0416,-61.875 L 2254,259.70832 c -13.375,-67.29167 -70.25,-91.62501 -112.5,-94.45834 -29.6667,-2 -237.125,-0.83333 -237.125,-0.83333 -22.9167,0.125 -44.4583,0 -47.9167,-0.25 l -2.25,-0.83334 c -16.5416,-6.125 -3.5,-31.125 14.2084,-22.375 24.9583,12.29167 59.1666,-92.58333 -113.25,-92.70833 -143.625,-0.08333 -143.2917,90.20833 -162.9167,112.08333 l -2.7917,3.125 c -4,0.875 -7.2916,1.58334 -7.2916,1.625 0,0 -18.75,0 -41.6667,0 h -226.7083 z"
         id="clipping"
         style="stroke-width:4.167;fill:#737373;fill-opacity:1;stroke:none;stroke-dasharray:none" />
    <g
         id="Safe_Zones_copy"
         transform="matrix(4.1666667,0,0,4.1666667,-1.38e-5,-2.04e-5)">
        <polyline
             class="cls-12"
             points="530.12 335.92 532.62 335.92 532.62 338.42"
             id="polyline157" />
        <line
             class="cls-5"
             x1="532.62"
             y1="343.42999"
             x2="532.62"
             y2="710.97998"
             id="line157" />
        <polyline
             class="cls-12"
             points="532.62 713.48 532.62 715.98 530.12 715.98"
             id="polyline158" />
        <line
             class="cls-20"
             x1="525.17999"
             y1="715.97998"
             x2="300.35001"
             y2="715.97998"
             id="line158" />
        <polyline
             class="cls-12"
             points="297.88 715.98 295.38 715.98 295.38 713.48"
             id="polyline159" />
        <line
             class="cls-6"
             x1="295.38"
             y1="708.47998"
             x2="295.38"
             y2="340.92001"
             id="line159" />
        <polyline
             class="cls-12"
             points="295.38 338.42 295.38 335.92 297.88 335.92"
             id="polyline160" />
        <line
             class="cls-20"
             x1="302.82001"
             y1="335.92001"
             x2="527.65002"
             y2="335.92001"
             id="line160" />
        <polyline
             class="cls-12"
             points="206.01 336.59 203.51 336.62 203.5 339.12"
             id="polyline161" />
        <line
             class="cls-4"
             x1="203.5"
             y1="344.10001"
             x2="203.22"
             y2="710.64001"
             id="line161" />
        <polyline
             class="cls-12"
             points="203.22 713.14 203.22 715.64 205.72 715.65"
             id="polyline162" />
        <line
             class="cls-26"
             x1="211.03999"
             y1="715.66998"
             x2="272.22"
             y2="715.96002"
             id="line162" />
        <polyline
             class="cls-12"
             points="274.88 715.97 277.38 715.98 277.38 713.48"
             id="polyline163" />
        <line
             class="cls-6"
             x1="277.38"
             y1="708.47998"
             x2="277.38"
             y2="340.92001"
             id="line163" />
        <polyline
             class="cls-12"
             points="277.38 338.42 277.38 335.92 274.88 335.95"
             id="polyline164" />
        <line
             class="cls-14"
             x1="269.57999"
             y1="336"
             x2="208.66"
             y2="336.57001"
             id="line164" />
        <polyline
             class="cls-12"
             points="183.08 336.78 185.58 336.65 185.57 339.15"
             id="polyline165" />
        <line
             class="cls-8"
             x1="185.56"
             y1="344.14001"
             x2="184.92999"
             y2="710.98999"
             id="line165" />
        <polyline
             class="cls-12"
             points="184.93 713.48 184.93 715.98 182.43 715.85"
             id="polyline166" />
        <line
             class="cls-28"
             x1="177.39999"
             y1="715.58002"
             x2="28.950001"
             y2="707.65997"
             id="line166" />
        <polyline
             class="cls-12"
             points="26.43 707.52 23.94 707.39 23.94 704.89"
             id="polyline167" />
        <line
             class="cls-27"
             x1="23.940001"
             y1="699.85999"
             x2="23.940001"
             y2="349.91"
             id="line167" />
        <polyline
             class="cls-12"
             points="23.94 347.4 23.94 344.9 26.43 344.77"
             id="polyline168" />
        <line
             class="cls-25"
             x1="31.49"
             y1="344.51001"
             x2="180.55"
             y2="336.91"
             id="line168" />
        <polyline
             class="cls-12"
             points="620.3 336.95 622.8 336.98 622.8 339.48"
             id="polyline169" />
        <line
             class="cls-4"
             x1="622.79999"
             y1="344.45999"
             x2="623.08002"
             y2="711"
             id="line169" />
        <polyline
             class="cls-12"
             points="623.09 713.5 623.09 716 620.59 716.01"
             id="polyline170" />
        <line
             class="cls-26"
             x1="615.27002"
             y1="716.03003"
             x2="554.09003"
             y2="716.32001"
             id="line170" />
        <polyline
             class="cls-12"
             points="551.43 716.33 548.93 716.34 548.93 713.84"
             id="polyline171" />
        <line
             class="cls-6"
             x1="548.92999"
             y1="708.84003"
             x2="548.92999"
             y2="341.29001"
             id="line171" />
        <polyline
             class="cls-12"
             points="548.93 338.79 548.93 336.29 551.43 336.31"
             id="polyline172" />
        <line
             class="cls-14"
             x1="556.72998"
             y1="336.35999"
             x2="617.65002"
             y2="336.92999"
             id="line172" />
        <polyline
             class="cls-12"
             points="643.22 337.14 640.73 337.01 640.73 339.51"
             id="polyline173" />
        <line
             class="cls-8"
             x1="640.73999"
             y1="344.5"
             x2="641.37"
             y2="711.34998"
             id="line173" />
        <polyline
             class="cls-12"
             points="641.37 713.84 641.38 716.34 643.87 716.21"
             id="polyline174" />
        <line
             class="cls-28"
             x1="648.90997"
             y1="715.94"
             x2="797.34998"
             y2="708.02002"
             id="line174" />
        <polyline
             class="cls-12"
             points="799.87 707.89 802.37 707.75 802.37 705.25"
             id="polyline175" />
        <line
             class="cls-27"
             x1="802.37"
             y1="700.21997"
             x2="802.37"
             y2="350.28"
             id="line175" />
        <polyline
             class="cls-12"
             points="802.37 347.76 802.37 345.26 799.87 345.13"
             id="polyline176" />
        <line
             class="cls-25"
             x1="794.82001"
             y1="344.87"
             x2="645.75"
             y2="337.26999"
             id="line176" />
        <polyline
             class="cls-12"
             points="295.38 315.42 295.38 317.92 297.88 317.92"
             id="polyline177" />
        <line
             class="cls-23"
             x1="302.82001"
             y1="317.92001"
             x2="527.60999"
             y2="317.92001"
             id="line177" />
        <polyline
             class="cls-12"
             points="530.08 317.92 532.58 317.92 532.58 315.42"
             id="polyline178" />
        <line
             class="cls-16"
             x1="532.58002"
             y1="310.22"
             x2="532.58002"
             y2="250.32001"
             id="line178" />
        <polyline
             class="cls-12"
             points="532.58 247.71 532.58 245.21 530.08 245.21"
             id="polyline179" />
        <line
             class="cls-22"
             x1="525.14001"
             y1="245.21001"
             x2="300.35001"
             y2="245.21001"
             id="line179" />
        <polyline
             class="cls-12"
             points="297.88 245.21 295.38 245.21 295.38 247.71"
             id="polyline180" />
        <line
             class="cls-15"
             x1="295.38"
             y1="252.92"
             x2="295.38"
             y2="312.82001"
             id="line180" />
        <polyline
             class="cls-12"
             points="295.57 224.71 295.57 227.21 298.07 227.21"
             id="polyline181" />
        <line
             class="cls-24"
             x1="303.01001"
             y1="227.21001"
             x2="527.65002"
             y2="227.21001"
             id="line181" />
        <polyline
             class="cls-12"
             points="530.12 227.21 532.62 227.21 532.62 224.71"
             id="polyline182" />
        <path
             class="cls-3"
             d="M 532.62,219.69 532.59,74.96 c 0,-14.55 -12.07,-26.34 -26.95,-26.34 H 321.68 c -14.54,0 -26.33,11.53 -26.31,25.74 l 0.19,147.83"
             id="path182" />
        <polyline
             class="cls-12"
             points="295.36 804.56 295.36 807.06 297.86 807.06"
             id="polyline183" />
        <line
             class="cls-23"
             x1="302.79999"
             y1="807.06"
             x2="527.59003"
             y2="807.06"
             id="line183" />
        <polyline
             class="cls-12"
             points="530.06 807.06 532.56 807.06 532.56 804.56"
             id="polyline184" />
        <line
             class="cls-16"
             x1="532.56"
             y1="799.34998"
             x2="532.56"
             y2="739.45001"
             id="line184" />
        <polyline
             class="cls-12"
             points="532.56 736.85 532.56 734.35 530.06 734.35"
             id="polyline185" />
        <line
             class="cls-22"
             x1="525.12"
             y1="734.34998"
             x2="300.32999"
             y2="734.34998"
             id="line185" />
        <polyline
             class="cls-12"
             points="297.86 734.35 295.36 734.35 295.36 736.85"
             id="polyline186" />
        <line
             class="cls-15"
             x1="295.35999"
             y1="742.06"
             x2="295.35999"
             y2="801.95001"
             id="line186" />
        <path
             class="cls-9"
             d="m 373.81,1020.1 c 4.62,5.65 16.37,-1.43 40.19,-1.43 26.89,0 40.6,8.03 45.96,1.19 5.69,-7.27 -2.63,-20.28 -43.61,-20.28 -40.98,0 -49.38,12.15 -42.54,20.51 z"
             id="path186" />
        <polyline
             class="cls-12"
             points="532.56 827.93 532.56 825.43 530.06 825.43"
             id="polyline187" />
        <polyline
             class="cls-21"
             points="525.12 825.43 521.75 825.43 306.24 825.43 300.33 825.43"
             id="polyline188" />
        <polyline
             class="cls-12"
             points="297.86 825.43 295.36 825.43 295.36 827.93"
             id="polyline189" />
        <line
             class="cls-11"
             x1="295.35999"
             y1="833.81"
             x2="295.35999"
             y2="854.40002"
             id="line189" />
        <polyline
             class="cls-12"
             points="295.36 857.34 295.36 859.84 295.38 859.84 295.38 862.34"
             id="polyline190" />
        <path
             class="cls-7"
             d="m 295.38,867.33 v 325.23 c 0,6 4.86,10.86 10.86,10.86 h 215.51 c 6,0 10.86,-4.86 10.86,-10.86 V 836.29 c 0,-0.38 -0.02,-0.76 -0.06,-1.13 v -4.74"
             id="path190" />
    </g>
    <line
         class="cls-18"
         x1="1193.25"
         y1="984.20837"
         x2="2256.75"
         y2="984.20837"
         id="line190"
         style="stroke-width:4.16667" />
    <line
         class="cls-2"
         x1="1193.25"
         y1="3401.75"
         x2="2256.75"
         y2="3401.75"
         id="line191"
         style="stroke-width:4.16667" />
    <line
         class="cls-2"
         x1="812.25"
         y1="1363.7084"
         x2="809.20837"
         y2="3019.25"
         id="line192"
         style="stroke-width:4.16667" />
    <line
         class="cls-2"
         x1="2637.75"
         y1="1362.2083"
         x2="2637.75"
         y2="3020.75"
         id="line193"
         style="stroke-width:4.16667" />
    <rect
         class="cls-2"
         x="1193.25"
         y="1362.1667"
         width="1063.5"
         height="1658.5834"
         id="rect193"
         style="stroke-width:4.16667" />
    <path
         id="Curved_slice"
         class="cls-19"
         d="m 1581.9583,4226.7917 c 0,0 27.25,-22.4584 150,-22.4584 122.75,0 150,22.4584 150,22.4584"
         style="stroke-width:4.16667" />
</svg>
