<svg version="1.1" id="YOUR_ARTWORK_HERE" xmlns="http://www.w3.org/2000/svg" xmlns:xlink="http://www.w3.org/1999/xlink" x="0px" y="0px" width="3075" height="3075" viewBox="0 0 3075 3075" enable-background="new 0 0 738 738" xml:space="preserve">
<rect fill="#929497" width="738" height="738"></rect>
<rect x="9" y="9" fill="#FFFFFF" stroke="#EC1E28" stroke-width="1.0003" width="720" height="720"></rect>

<rect x="497.749" y="40.858" fill="#D0D2D3" width="196.92" height="200.729"></rect>


<rect x="18" y="18" fill="none" stroke="#2BA6DE" stroke-width="1.0003" stroke-dasharray="1.4425" width="702" height="702"></rect>
<rect x="711.011" y="535.895" fill="#F9A51A" width="26.989" height="54.684"></rect>

<line fill="none" stroke="#F9A51A" x1="617.016" y1="535.726" x2="737.966" y2="535.726"></line>
<line fill="none" stroke="#EC1E28" x1="634.673" y1="361.588" x2="728.969" y2="361.588"></line>
<line fill="none" stroke="#929497" x1="622.763" y1="411.187" x2="735.716" y2="411.187"></line>
<line fill="none" stroke="#2BA6DE" stroke-dasharray="1.4421" x1="631.01" y1="263.057" x2="718.973" y2="263.057"></line>
<g>
	<path fill="#EC1E28" d="M629.627,250.044c0,0.686-0.312,1.354-0.932,2.004l-0.097,0.097l-5.431,5.723
		c-1.153,1.213-2.135,2.151-2.946,2.813c-0.812,0.663-1.384,0.994-1.719,0.994c-0.351,0-0.786-0.166-1.309-0.497
		c-0.521-0.332-0.857-0.673-1.01-1.024c-0.129-0.293-0.251-0.915-0.363-1.863c-0.116-0.95-0.172-1.979-0.172-3.086
		c0-0.604,0.251-1.162,0.755-1.675c0.504-0.512,1.06-0.769,1.669-0.769c0.58,0,0.926,0.53,1.036,1.591
		c0.013,0.124,0.021,0.214,0.027,0.272c0.094,0.815,0.201,1.384,0.324,1.706s0.29,0.483,0.501,0.483
		c0.088,0,0.252-0.095,0.491-0.286c0.24-0.19,0.528-0.45,0.862-0.778l5.578-5.53c0.469-0.469,0.888-0.824,1.257-1.063
		c0.368-0.241,0.682-0.361,0.938-0.361c0.194,0,0.332,0.073,0.414,0.22s0.124,0.393,0.124,0.738V250.044z"></path>
</g>
<g>
	<path fill="#EC1E28" d="M730.039,366.271l0.265-5.058l-1.558,0.956l0.074-1.142l1.595-0.95c0.03-0.413,0.063-0.797,0.104-1.148
		c0.043-0.353,0.09-0.686,0.143-1l0.043-0.235c-0.122,0.042-0.24,0.07-0.353,0.083c-0.113,0.015-0.217,0.014-0.313-0.002
		c-0.311-0.054-0.551-0.208-0.718-0.461c-0.171-0.255-0.227-0.544-0.17-0.871c0.063-0.367,0.243-0.662,0.54-0.883
		c0.296-0.221,0.616-0.302,0.962-0.243c0.298,0.053,0.522,0.196,0.674,0.435c0.15,0.236,0.196,0.519,0.14,0.849
		c-0.028,0.158-0.104,0.387-0.235,0.688c-0.128,0.302-0.205,0.531-0.233,0.688c-0.043,0.254-0.028,0.514,0.047,0.782
		c0.074,0.267,0.21,0.551,0.411,0.849c0.391-0.154,0.729-0.368,1.017-0.645c0.288-0.275,0.519-0.607,0.691-0.997
		c0.06-0.127,0.136-0.306,0.229-0.535c0.095-0.229,0.164-0.375,0.206-0.438c0.146-0.211,0.323-0.365,0.527-0.462
		c0.203-0.097,0.421-0.126,0.65-0.087c0.298,0.052,0.525,0.203,0.685,0.453c0.158,0.25,0.209,0.545,0.149,0.881
		c-0.06,0.349-0.231,0.624-0.515,0.823c-0.284,0.2-0.598,0.27-0.945,0.209c-0.151-0.025-0.286-0.081-0.408-0.165
		c-0.121-0.084-0.233-0.202-0.333-0.354c-0.222,0.466-0.479,0.868-0.771,1.202c-0.293,0.333-0.618,0.6-0.974,0.799
		c-0.13,1.268-0.22,2.137-0.274,2.604c-0.054,0.467-0.098,0.811-0.135,1.025c-0.095,0.541-0.237,0.996-0.431,1.367
		C730.629,365.662,730.369,365.988,730.039,366.271z M730.095,357.382c0.237,0.042,0.456-0.015,0.65-0.168
		c0.2-0.154,0.322-0.362,0.368-0.626c0.04-0.23,0.008-0.43-0.096-0.6c-0.103-0.169-0.254-0.271-0.451-0.305
		c-0.245-0.042-0.473,0.016-0.686,0.175c-0.211,0.158-0.338,0.37-0.384,0.635c-0.039,0.222-0.002,0.417,0.109,0.584
		C729.717,357.242,729.879,357.345,730.095,357.382z M734.247,358.438c0.251,0.043,0.472-0.006,0.666-0.146s0.312-0.339,0.355-0.595
		c0.039-0.222,0.008-0.414-0.095-0.577c-0.102-0.162-0.254-0.26-0.452-0.293c-0.229-0.04-0.447,0.024-0.654,0.192
		c-0.207,0.167-0.333,0.383-0.377,0.647c-0.035,0.203-0.003,0.373,0.097,0.512C733.889,358.314,734.042,358.401,734.247,358.438z"></path>
</g>
<g>
	<path fill="#EC1E28" d="M633.957,347.742c0,0.686-0.311,1.354-0.931,2.005l-0.097,0.097l-5.43,5.724
		c-1.154,1.213-2.137,2.151-2.947,2.813c-0.812,0.663-1.385,0.993-1.718,0.993c-0.352,0-0.788-0.166-1.309-0.496
		c-0.521-0.331-0.857-0.673-1.01-1.024c-0.13-0.293-0.251-0.914-0.365-1.864c-0.114-0.949-0.172-1.978-0.172-3.086
		c0-0.604,0.252-1.162,0.755-1.675c0.505-0.513,1.061-0.769,1.67-0.769c0.581,0,0.926,0.53,1.036,1.591
		c0.013,0.123,0.021,0.214,0.027,0.272c0.093,0.815,0.201,1.384,0.325,1.706c0.123,0.322,0.288,0.483,0.5,0.483
		c0.088,0,0.252-0.095,0.492-0.286c0.24-0.19,0.527-0.45,0.861-0.778l5.579-5.53c0.468-0.468,0.888-0.824,1.256-1.063
		c0.369-0.241,0.683-0.36,0.939-0.36c0.194,0,0.331,0.073,0.413,0.22s0.123,0.393,0.123,0.738V347.742z"></path>
</g>
<g>
	<path fill="#EC1E28" d="M620.629,398.423c0,0.688-0.31,1.354-0.931,2.005l-0.097,0.099l-5.43,5.722
		c-1.153,1.213-2.137,2.15-2.948,2.814c-0.81,0.662-1.382,0.994-1.716,0.994c-0.352,0-0.788-0.166-1.31-0.497
		s-0.858-0.674-1.011-1.025c-0.128-0.293-0.25-0.914-0.364-1.864c-0.114-0.949-0.172-1.978-0.172-3.085
		c0-0.604,0.252-1.162,0.756-1.674c0.503-0.514,1.061-0.771,1.669-0.771c0.58,0,0.926,0.53,1.037,1.591
		c0.012,0.123,0.021,0.215,0.027,0.273c0.094,0.814,0.201,1.384,0.324,1.706c0.124,0.323,0.29,0.483,0.501,0.483
		c0.087,0,0.251-0.096,0.492-0.286c0.24-0.189,0.526-0.449,0.861-0.777l5.578-5.531c0.469-0.469,0.887-0.822,1.257-1.062
		c0.368-0.24,0.682-0.361,0.939-0.361c0.193,0,0.332,0.074,0.413,0.22c0.081,0.147,0.122,0.394,0.122,0.739V398.423z"></path>
</g>
<g>
	<path fill="#EC1E28" d="M616.298,522.796c0,0.687-0.31,1.354-0.931,2.005l-0.097,0.097l-5.429,5.725
		c-1.155,1.213-2.139,2.15-2.947,2.812c-0.812,0.663-1.385,0.992-1.718,0.992c-0.352,0-0.789-0.165-1.31-0.495
		c-0.521-0.332-0.859-0.672-1.012-1.024c-0.128-0.293-0.249-0.913-0.364-1.864c-0.112-0.948-0.171-1.979-0.171-3.087
		c0-0.604,0.253-1.16,0.756-1.674c0.504-0.513,1.061-0.771,1.67-0.771c0.579,0,0.925,0.533,1.036,1.594
		c0.012,0.123,0.021,0.212,0.026,0.271c0.094,0.815,0.202,1.384,0.325,1.706s0.29,0.484,0.501,0.484
		c0.088,0,0.251-0.096,0.492-0.285c0.24-0.191,0.525-0.451,0.86-0.78l5.578-5.528c0.469-0.47,0.887-0.825,1.257-1.064
		c0.369-0.24,0.683-0.359,0.94-0.359c0.192,0,0.332,0.072,0.413,0.219c0.082,0.146,0.122,0.393,0.122,0.737V522.796z"></path>
</g>
<g>
	<path fill="#EC1E28" d="M598.639,609.823c0,0.688-0.311,1.354-0.932,2.006l-0.096,0.098l-5.431,5.722
		c-1.153,1.214-2.136,2.151-2.947,2.814c-0.812,0.661-1.384,0.994-1.717,0.994c-0.352,0-0.788-0.166-1.31-0.497
		c-0.521-0.331-0.858-0.674-1.011-1.025c-0.129-0.293-0.251-0.914-0.363-1.864c-0.115-0.949-0.172-1.978-0.172-3.085
		c0-0.604,0.252-1.162,0.755-1.675c0.504-0.513,1.061-0.769,1.67-0.769c0.579,0,0.925,0.529,1.037,1.591
		c0.012,0.122,0.02,0.215,0.025,0.272c0.095,0.815,0.202,1.384,0.325,1.707c0.123,0.322,0.291,0.481,0.502,0.481
		c0.087,0,0.251-0.095,0.491-0.285s0.526-0.449,0.861-0.777l5.578-5.531c0.469-0.469,0.887-0.822,1.257-1.062
		c0.368-0.241,0.682-0.362,0.939-0.362c0.193,0,0.331,0.074,0.413,0.221s0.123,0.393,0.123,0.738V609.823z"></path>
</g>
<g>
	<path fill-rule="evenodd" clip-rule="evenodd" d="M661.39,116.015c0,34.333-27.814,62.166-62.12,62.166
		c-34.31,0-62.124-27.833-62.124-62.166c0-34.333,27.814-62.166,62.124-62.166C633.575,53.849,661.39,81.682,661.39,116.015z"></path>
	<ellipse fill-rule="evenodd" clip-rule="evenodd" fill="#B7D333" cx="599.311" cy="116.358" rx="56.474" ry="56.515"></ellipse>
	<g>
		<path d="M587.22,104.035c-0.784,6.927-1.367,12.49-1.755,16.691l-2.575,0.113c0.036-0.14,0.056-0.296,0.062-0.472
			c0.004-0.314-0.112-0.729-0.348-1.242c-0.236-0.512-0.371-0.838-0.404-0.979c-0.666,0.093-1.306,0.557-1.914,1.385
			c-0.61,0.832-1.16,1.244-1.649,1.237c-0.282-0.005-0.596-0.083-0.942-0.227c-0.46,0.307-1.057,0.436-1.793,0.389
			c-0.663-0.116-1.31-0.215-1.939-0.296c-0.02-0.875-0.882-1.643-2.586-2.305c0.005-0.35-0.17-0.87-0.526-1.559
			c-0.356-0.691-0.532-1.173-0.526-1.455c0.004-0.316,0.132-0.576,0.382-0.782c-0.035-0.106-0.322-0.759-0.861-1.961
			c-0.37-0.88-0.55-1.639-0.538-2.268c0.006-0.49,0.121-0.946,0.338-1.362c-0.299-2.985-0.432-5.544-0.395-7.682
			c0.055-3.294,0.526-6.317,1.415-9.073c-0.063-0.42-0.092-0.84-0.085-1.262c0.038-2.208,0.801-3.735,2.283-4.587l0.012-0.683
			c1.469-1.869,3.399-3.22,5.796-4.056c1.43,0.34,2.86,0.663,4.291,0.968c1.603,0.552,2.708,1.5,3.315,2.843
			c0.484,0.289,0.721,0.871,0.705,1.745c-0.016,0.981,0.096,1.616,0.336,1.899l-0.268,0.312c0.279,2.072,0.416,3.337,0.408,3.791
			c-0.022,1.333-0.373,2.273-1.047,2.822c-0.244-0.004-0.89-0.225-1.932-0.662c-0.25,0.239-0.515,0.358-0.794,0.353
			c-0.141-0.001-0.395-0.077-0.76-0.224c-0.364-0.146-0.671-0.222-0.915-0.226c-0.176-0.002-0.353,0.03-0.528,0.097
			c-0.021-2.769,0.066-4.836,0.263-6.201c-0.276-0.179-0.558-0.588-0.844-1.222c-0.288-0.636-0.659-0.994-1.111-1.07
			c-0.285,0.346-0.413,0.571-0.38,0.677l-0.939-0.332c-0.856,0.933-1.427,2.552-1.71,4.859c-0.291,2.658-0.653,4.423-1.088,5.291
			c0.376,0.394,0.562,0.94,0.549,1.64c-0.004,0.247-0.045,0.649-0.127,1.208c-0.08,0.56-0.12,0.98-0.124,1.261
			c-0.007,0.315,0.021,0.598,0.089,0.843l-0.64,0.619c0.26,1.196,0.41,2.707,0.449,4.529c-0.025,1.542-0.037,3.084-0.025,4.625
			c-0.038,0-0.335,0.013-0.896,0.037c-0.35-0.006-0.598,0.113-0.741,0.357c0.212-0.032,0.404-0.047,0.577-0.043
			c0.771,0.012,1.376,0.557,1.812,1.633c0.436,1.079,0.812,1.619,1.128,1.625c0.349,0.004,0.828-0.318,1.438-0.976
			c1.031-1.104,1.565-2.62,1.599-4.545c0.017-0.947-0.09-1.965-0.316-3.055c-0.25,0.137-0.375,0.485-0.385,1.043
			c-0.561-0.009-0.912,0.108-1.058,0.35c-0.243-0.074-0.347-0.268-0.305-0.583c0.041-0.453,0.063-0.699,0.065-0.734
			c0.423-0.133,0.633-0.323,0.639-0.567c0.002-0.104-0.074-0.299-0.227-0.583c-0.151-0.283-0.227-0.511-0.225-0.687
			c0.004-0.141,0.041-0.28,0.113-0.42l0.244-2.045c0.768,0.224,2.428,0.32,4.986,0.295c-0.074,0.174,0.028,0.405,0.305,0.688
			c0.248-0.241,0.511-0.359,0.793-0.354c0.211,0.005,0.523,0.097,0.941,0.279C586.748,103.941,587.044,104.032,587.22,104.035z"></path>
		<path d="M606.823,122.139c-0.487-0.219-1.01-0.333-1.571-0.343c-0.488-0.007-1.157,0.085-2.001,0.283
			c-0.948,0.193-1.598,0.304-1.947,0.335c-0.375-0.742-0.637-1.765-0.79-3.065c-0.284-1.896-0.46-2.967-0.521-3.215
			c0.107-0.209,0.163-0.382,0.164-0.522c0.009-0.388-0.294-0.732-0.901-1.041c-0.609-0.308-0.91-0.55-0.907-0.727
			c0.002-0.208,0.359-0.519,1.066-0.929c-0.171-0.212-0.298-0.643-0.371-1.292c-0.077-0.65-0.237-1.083-0.478-1.298
			c-0.427,0.379-1.122,0.622-2.087,0.728c-0.966,0.107-1.607,0.262-1.924,0.466c0.021,2.734-0.43,4.568-1.355,5.498
			c-0.489-0.114-0.862,0.072-1.113,0.561c-0.361,0.589-0.665,0.936-0.912,1.035l0.309,0.374c-0.283,0.239-0.74,0.339-1.368,0.292
			c-0.983-0.053-1.505-0.078-1.575-0.079l-0.299-0.952l3.422-28.385c0.03-1.787,0.121-2.995,0.271-3.623
			c-0.044-1.579,0.324-2.554,1.099-2.925c0.485,0.322,1.098,0.491,1.833,0.504c0.594,0.009,1.525-0.114,2.789-0.374
			c1.268-0.258,2.144-0.384,2.635-0.376c1.714,0.03,2.463,1.27,2.249,3.719c-0.174,1.96,0.132,4.542,0.918,7.746
			c0.817,3.447,1.213,6.03,1.184,7.748c-0.011,0.526,0.162,1.614,0.119,2.141c-0.742,0.406-1.691,0.653-2.85,0.738
			c-1.017,0.053-2.05,0.106-3.103,0.158c-0.271-2.667-0.739-5.883-1.011-8.517c-0.332-3.159-0.743-5.759-1.232-7.799l-1.622,15.007
			c-0.125,1.294,0.459,1.954,1.755,1.977c0.419,0.006,0.821-0.093,1.211-0.295c0.318-0.101,0.753,0.136,1.303,0.704
			c-0.02,1.087,0.197,1.739,0.649,1.958c0.567-0.378,1.309-0.732,2.226-1.068c0.81-0.301,1.603-0.585,2.379-0.854
			c0.442,0.605,0.728,1.503,0.848,2.697c0.146,1.685,0.25,2.668,0.316,2.949c0.058,0.668,0.332,2.11,0.82,4.327
			c0.355,1.757,0.524,3.18,0.506,4.267C606.944,121.195,606.901,121.685,606.823,122.139z"></path>
		<path d="M631.014,97.104c-0.039,0.104-0.047,0.717-0.032,1.839c-0.015,0.912-0.133,1.594-0.349,2.046
			c-0.259,0.696-0.397,1.691-0.419,2.987c-0.007,0.282,0.004,0.72,0.029,1.317c-0.011,0.595-0.018,1.032-0.022,1.312
			c-0.036,2.209-0.414,3.812-1.134,4.818c0.062,0.564,0.087,1.125,0.078,1.684c-0.029,1.752-0.631,4.108-1.8,7.067
			c-0.318,0.101-0.583,0.148-0.792,0.145c-0.421-0.007-0.722-0.249-0.908-0.725c-0.186-0.477-0.359-0.926-0.525-1.352
			c0.112-2.695,0.058-6.622-0.17-11.779l0.319-0.31c-0.229-0.915-0.334-1.933-0.315-3.054c0.014-0.805,0.113-1.978,0.296-3.517
			c0.185-1.538,0.283-2.695,0.295-3.466c0.011-0.489-0.002-0.964-0.026-1.418c-1.206,2.889-2.061,7.781-2.562,14.676l-0.438,1.043
			c-0.146,0.349-0.446,0.537-0.9,0.564c-0.139-0.245-0.275-0.372-0.415-0.375c-0.105-0.001-0.292,0.127-0.557,0.385
			c-0.27,0.257-0.49,0.367-0.664,0.33l-0.695,0.619c0.31,0.393,0.974,0.437,1.995,0.141c0.809-0.232,1.224,0.072,1.247,0.914
			c0.021,0.702-0.171,1.646-0.575,2.83c-0.406,1.183-0.612,2.075-0.622,2.67c-0.007,0.42,0.037,0.843,0.136,1.264l-3.636,0.57
			c-0.337-0.708-0.588-1.894-0.753-3.562c-0.164-1.668-0.416-2.855-0.754-3.561c0.214-0.241,0.323-0.501,0.328-0.783
			c0.003-0.245-0.094-0.614-0.295-1.108c-0.204-0.494-0.321-0.865-0.351-1.111c-0.029-0.385-0.152-1.317-0.374-2.792
			c-0.155-1.194-0.228-2.126-0.216-2.791c0.007-0.35,0.031-0.665,0.071-0.944c0.003-0.246-0.133-0.606-0.403-1.086
			c-0.273-0.478-0.406-0.822-0.401-1.033c0.003-0.173,0.074-0.33,0.218-0.465c-0.242-0.288-0.337-0.779-0.29-1.48
			c0.045-0.7-0.052-1.192-0.29-1.476c-0.516,1.357-0.79,3.192-0.831,5.507c-0.018,3.223-0.052,5.083-0.094,5.57l0.362,0.322
			l-0.372,0.309c0.259,1.267,0.371,2.881,0.337,4.843c-0.095,3.538-0.141,5.185-0.135,4.941c-0.498,0.446-1.187,0.662-2.061,0.647
			c-1.085-0.019-1.822,0.077-2.211,0.277c-0.444-0.777-0.655-1.779-0.631-3.006c0.013-0.946,0.176-2.099,0.478-3.462
			c-0.476-0.884-0.699-2.115-0.673-3.691c0.008-0.386,0.053-1.121,0.142-2.206c0.05-0.874,0.062-1.523,0.036-1.945
			c0.352-0.168,0.528-0.357,0.532-0.567c0.004-0.142-0.106-0.379-0.329-0.717c-0.223-0.335-0.332-0.592-0.329-0.767
			c0.004-0.21,0.148-0.418,0.431-0.625l-1.131-17c0.675-0.443,1.765-0.654,3.27-0.627c1.645,0.064,2.767-0.022,3.367-0.256
			c0.106-0.07,0.228-0.103,0.369-0.101c0.14,0.002,0.305,0.085,0.495,0.245c0.19,0.162,0.32,0.242,0.389,0.244
			c0.14,0.003,0.266-0.101,0.374-0.309l0.981,0.963c0.329,1.232,0.639,3.621,0.93,7.164c0.297,3.055,0.767,5.36,1.407,6.913
			c0.858-3.104,1.565-5.704,2.129-7.797l1.139-8.32l8.144-0.177c0.028,0.456,0.129,2.891,0.35,4.298
			c0.188,1.228,0.278,2.229,0.264,3c-0.014,0.877-0.15,1.662-0.407,2.358c0.274,0.393,0.405,0.883,0.395,1.479
			C631.449,96.236,631.299,96.723,631.014,97.104z"></path>
		<path d="M647.722,115.526l0.002-0.053c-0.219,0.452-0.351,0.976-0.396,1.57c-0.041,0.384-0.051,0.928-0.027,1.628
			c0.021,0.807,0.029,1.37,0.024,1.683c-0.281-0.003-1.401-0.022-3.362-0.055c-1.189-0.021-2.261,0.083-3.21,0.312l-0.98-1.068
			c-0.285,0.274-0.393,0.501-0.325,0.679c-0.176-0.042-0.982-0.052-2.415-0.043c-1.123-0.019-1.962-0.139-2.517-0.359
			c-0.571,0.588-1.237,0.577-1.998-0.032c-0.276-0.214-0.303-0.577-0.086-1.081c0.219-0.504,0.155-0.881-0.19-1.133
			c0.053-1.119,0.206-2.852,0.456-5.197c0.246-2.098,0.377-3.745,0.398-4.935c0.027-1.611-0.085-3.155-0.34-4.631
			c0.392-0.38,0.83-0.566,1.32-0.557c0.562,0.009,1.222,0.284,1.983,0.821c1.07,0.754,1.628,1.132,1.663,1.133l0.306,0.373
			c0.038-0.104,0.224-0.662,0.556-1.673c0.186-0.662,0.456-1.096,0.812-1.301l0.311,0.322c0.14-0.068,0.6-0.394,1.382-0.976
			c0.599-0.41,1.092-1.383,1.44-1.377c0.386,0.006,0.749,0.223,1.093,0.65c0.591,0.326,0.961,1.584,1.145,2.235
			c0.18,0.65,0.354,1.292,0.519,1.928c-1.577,0.043-2.873,0.002-3.885-0.119c-0.254,0.38-0.604,0.435-1.055,0.165
			c-0.45-0.27-0.783-0.231-1,0.114c-0.011,0.633-0.03,1.771-0.059,3.416c-0.061,1.473-0.079,2.628-0.059,3.471
			c0.013,1.296,0.1,2.49,0.256,3.58c0.278,0.005,1.608,0.027,3.988,0.067C645.119,115.115,646.535,115.26,647.722,115.526z
			 M647.835,90.345c-0.316,0.028-0.666,0.04-1.053,0.035c-0.805-0.014-1.871-0.138-3.197-0.37c-1.645-0.238-2.641-0.377-2.989-0.418
			c-0.502,0.725-0.764,1.757-0.787,3.089c-0.049,2.872-0.053,4.116-0.011,3.731c0.484,0.288,0.722,0.818,0.707,1.589
			c-0.052,1.05-0.061,1.595-0.026,1.629c-0.247,0.102-0.375,0.449-0.385,1.046c-0.384-0.147-0.78-0.435-1.193-0.861
			c-0.553-0.536-0.846,1.28-0.804,0.826l-0.332,1.08l-0.312-0.322c-0.281,0.029-0.76-0.118-1.437-0.444
			c-0.679-0.326-1.153-0.631-1.429-0.919c0.01-0.56,0.104-0.874,0.277-0.942l-0.669-0.745l-0.323,0.467
			c-0.393-3.651-0.295-10.481,0.189-14.328c1.328,0.233,2.797,0.381,4.406,0.443c1.085,0.052,2.606,0.078,4.568,0.077
			c2.241,0.003,3.855,0.012,4.834,0.029c0.413,0.395,0.615,0.905,0.605,1.535c-0.008,0.389-0.115,1.006-0.322,1.863
			C647.947,89.288,647.841,89.923,647.835,90.345z"></path>
	</g>
	<g>
		<path d="M588.8,147.31l-0.002-0.024c0.002,0.017-0.09,0.788-0.271,2.316c-0.09,0.94-0.316,1.677-0.679,2.216l-0.228-0.187
			c-0.426,0.892-1.003,1.434-1.738,1.628c-0.35,0.37-0.857,0.574-1.518,0.612c-0.394,0.024-1.3-0.091-2.724-0.342
			c-0.686-0.427-1.062-0.663-1.128-0.709c-0.432-0.326-0.638-0.655-0.615-0.99c-0.418-0.426-1.007-1.188-1.227-2.141
			c-0.268-1.052-0.431-1.112-0.68-1.481c-0.396,0.292-0.539-0.329-0.769-0.701l0.208-0.162c-0.129-0.093-0.196-0.196-0.204-0.313
			c-0.005-0.083,0.029-0.205,0.104-0.368c0.074-0.162,0.108-0.287,0.102-0.368c-0.006-0.132-0.086-0.245-0.235-0.337
			c0.159-0.827,0.304-2.068,0.436-3.728c0.282-0.149,0.415-0.441,0.401-0.874c-0.017-0.432,0.043-0.719,0.181-0.861
			c0.669-1.339,1.755-2.244,3.261-2.716c0.082,0.013,0.486,0.005,1.209-0.02c0.498-0.012,0.872,0.032,1.126,0.134
			c0.451-0.077,0.904,0.031,1.354,0.322c0.392,0.294,0.782,0.588,1.171,0.882c0.729,0.792,1.123,1.686,1.182,2.683
			c0.02,0.333-0.004,0.683-0.064,1.054c-0.539-0.019-0.922,0.338-1.149,1.069l-2.1,0.195c-0.226-0.318-0.356-0.746-0.386-1.278
			c-0.011-0.183-0.009-0.45,0-0.8c0.011-0.351,0.012-0.618,0-0.8c-0.031-0.548-0.16-0.983-0.386-1.303l-0.632,0.36
			c-0.254-0.102-0.386-0.252-0.397-0.452c-0.005-0.066,0.006-0.163,0.03-0.289c0.023-0.127,0.034-0.215,0.03-0.264
			c-0.013-0.215-0.206-0.346-0.582-0.393c-0.256,2.367-0.333,4.798-0.229,7.292c0.065,0.08,0.266,0.136,0.6,0.166
			c0.271,0.034,0.409,0.119,0.417,0.251c0.003,0.051-0.012,0.118-0.05,0.203l-0.208,0.163c0.112,0.177,0.181,0.424,0.199,0.739
			c0.009,0.166,0.003,0.421-0.019,0.763c-0.021,0.344-0.028,0.599-0.019,0.764c0.031,0.499,0.154,0.876,0.379,1.13
			c-0.023,0.367,0.128,0.618,0.444,0.75c0.204-0.08,0.386-0.123,0.553-0.132c0.64-0.038,1.085,0.311,1.333,1.049
			c0.001,0.016-0.002,0.141-0.009,0.375c0.008,0.133,0.074,0.219,0.201,0.261c0.281-0.166,0.42-0.466,0.414-0.898
			c-0.007-0.5,0.058-0.821,0.194-0.962c-0.035-0.23-0.173-0.563-0.416-1c-0.244-0.437-0.372-0.779-0.388-1.028
			c-0.015-0.266,0.064-0.521,0.236-0.764c-0.147-0.042-0.215-0.138-0.203-0.287c0.007-0.235,0.011-0.36,0.011-0.377
			C586.465,147.054,587.624,147.045,588.8,147.31z"></path>
		<path d="M598.305,149.261l-0.027,0.001c-0.122,0.24-0.159,0.585-0.115,1.03c0.056,0.635,0.086,0.957,0.087,0.973
			c-0.094,0.036-0.223-0.011-0.386-0.141c-0.244,0.091-0.36,0.246-0.348,0.463c0.002,0.031,0.015,0.084,0.038,0.16
			c0.006,0.092,0.011,0.154,0.012,0.186c0.01,0.169-0.041,0.297-0.151,0.38c-0.279-0.154-0.646-0.253-1.1-0.295
			c-0.457-0.045-0.888-0.085-1.295-0.122c-0.006-2.11-0.289-4.173-0.849-6.187c0,0.016-0.012-0.192-0.036-0.626
			c0.001-0.31-0.069-0.53-0.212-0.663l-0.193,0.174c-0.002-0.032,0.062-0.092,0.192-0.186c0.13-0.092,0.192-0.186,0.187-0.279
			c-0.005-0.045-0.017-0.091-0.038-0.137l-0.211-0.151c-0.359,0.115-0.524,0.404-0.498,0.867c0.02,0.309-0.105,0.527-0.367,0.65
			c0.102,0.071,0.154,0.162,0.16,0.27c0.005,0.061-0.005,0.148-0.027,0.256c-0.023,0.111-0.032,0.197-0.029,0.258
			c0.01,0.138,0.083,0.25,0.223,0.336c0.004,0.092,0.054,0.927,0.143,2.504c0.062,1.005,0.032,1.859-0.079,2.563l0.021,0.395
			c-0.136-0.007-0.29-0.006-0.462,0.003c-0.192,0.012-0.471,0.04-0.834,0.083c-0.362,0.045-0.631,0.074-0.804,0.082
			c-0.71,0.041-1.208-0.079-1.495-0.356l-0.298-8.659c-0.141-0.425-0.232-1.017-0.276-1.776l-0.097-1.668
			c-0.067-0.818-0.171-1.449-0.312-1.89c0.059-0.298,0.32-0.461,0.781-0.486c0.287-0.018,0.674,0.021,1.161,0.118
			c0.225-0.107,0.538-0.171,0.943-0.195c0.115-0.007,0.296-0.01,0.548-0.008c0.268-0.015,0.46-0.027,0.575-0.033
			c0.748-0.044,1.246-0.274,1.492-0.692c0.348-0.004,0.723,0.105,1.131,0.33c0.406,0.225,0.766,0.345,1.075,0.356
			c0.817,0.48,1.257,1.276,1.324,2.389c0.013,0.248-0.084,1.23-0.293,2.948l-1.402,1.223c0.237,0.436,0.524,1.388,0.86,2.857
			C597.306,147.792,597.733,148.689,598.305,149.261z M595.713,139.409l0.026,0.021c0.027,0.106,0.015-0.272-0.036-1.138
			c-0.023-0.417-0.176-0.718-0.455-0.905c-0.16,0.227,0.021,0.332-0.055,0.857c-0.076,0.523-0.386,0.376-0.565,0.604
			c-0.482-0.003-0.593,0.288-0.696-0.171c-0.216-0.748-0.402-0.682-0.403-0.696l-0.204,0.124c-0.072,0.065-0.156,0.141-0.247,0.223
			c-0.091,0.084-0.186,0.112-0.282,0.086c0.005,0.094-0.041,0.239-0.134,0.439c-0.097,0.199-0.141,0.337-0.137,0.415
			c0.011,0.14,0.12,0.24,0.336,0.305c-0.039,0.314-0.048,0.64-0.028,0.98c0.009,0.184,0.055,0.609,0.131,1.271
			c0.087,0.523,0.123,0.97,0.105,1.342c0.175,0.007,0.339,0.006,0.493-0.004c0.672-0.039,1.108-0.305,1.31-0.796
			c0.068-0.144,0.146-0.661,0.229-1.55C595.177,140.146,595.38,139.676,595.713,139.409z"></path>
		<path d="M609.211,152.625c-0.275-0.079-0.566-0.108-0.873-0.09c-0.269,0.015-0.631,0.083-1.086,0.202
			c-0.514,0.124-0.865,0.197-1.056,0.225c-0.231-0.313-0.41-0.75-0.539-1.318c-0.222-0.825-0.355-1.29-0.397-1.397
			c0.052-0.096,0.074-0.175,0.072-0.236c-0.012-0.169-0.188-0.31-0.531-0.422c-0.345-0.112-0.519-0.207-0.522-0.286
			c-0.003-0.09,0.178-0.242,0.554-0.449c-0.103-0.087-0.187-0.271-0.249-0.556c-0.065-0.283-0.167-0.467-0.308-0.553
			c-0.222,0.185-0.593,0.319-1.118,0.403c-0.523,0.084-0.87,0.178-1.037,0.281c0.107,1.204,0,3.316-0.476,3.764
			c-0.271-0.032-0.468,0.063-0.59,0.289c-0.178,0.273-0.332,0.44-0.464,0.493l0.183,0.151c-0.148,0.117-0.395,0.178-0.74,0.183
			c-0.539,0.017-0.825,0.024-0.865,0.027l-0.195-0.409l0.808-13.925c-0.044-0.787-0.038-1.323,0.024-1.604
			c-0.081-0.694,0.088-1.138,0.499-1.333c0.277,0.123,0.616,0.172,1.021,0.149c0.325-0.02,0.831-0.109,1.516-0.273
			c0.683-0.163,1.159-0.253,1.427-0.269c0.943-0.055,1.396,0.462,1.362,1.548c-0.027,0.871,0.231,1.995,0.773,3.375
			c0.567,1.487,0.874,2.609,0.918,3.367c0.014,0.231,0.321,0.724,0.314,0.956c-0.392,0.209-0.904,0.355-1.533,0.438
			c-0.557,0.063-1.118,0.128-1.695,0.191c-0.238-1.166-0.784-2.581-1.023-3.731c-0.292-1.378-0.608-2.506-0.948-3.387l-0.364,6.675
			c-0.023,0.574,0.32,0.841,1.029,0.799c0.229-0.012,0.448-0.072,0.655-0.177c0.171-0.056,0.415,0.032,0.735,0.26
			c0.029,0.479,0.17,0.759,0.426,0.835c0.297-0.187,0.69-0.372,1.18-0.557c0.434-0.164,0.858-0.32,1.274-0.469
			c0.263,0.249,0.449,0.633,0.558,1.155c0.139,0.735,0.23,1.164,0.277,1.286c0.055,0.291,0.254,0.917,0.599,1.874
			c0.256,0.76,0.397,1.378,0.427,1.859C609.243,152.202,609.235,152.42,609.211,152.625z"></path>
		<path d="M617.16,136.83l0.031-0.001c-0.231,0.339-0.524,0.403-0.884,0.192c-0.079-0.013-0.425,0.008-1.038,0.058
			c-0.518,0.03-0.893,0.006-1.13-0.074c-0.057,0.005-0.172,0.062-0.338,0.171c-0.167,0.111-0.289,0.168-0.366,0.172
			c-0.112,0.007-0.179-0.09-0.188-0.291c-0.002-0.031-0.011-0.162-0.024-0.395c-0.009-0.154-0.084-0.259-0.221-0.312l-0.358,0.276
			c-0.112,0.085-0.165,0.173-0.158,0.266c0.004,0.077,0.068,0.186,0.192,0.325c0.123,0.142,0.195,0.241,0.219,0.302
			c0.005,0.046,0.044,0.744,0.121,2.088c0.03,0.852,0.186,1.53,0.465,2.042c0.071-0.082,0.247-0.126,0.528-0.135
			c0.277-0.008,0.463-0.07,0.551-0.184c0.183,0.161,0.486,0.17,0.913,0.029c0.425-0.141,0.73-0.093,0.919,0.144l-0.055,2.051
			c-0.175-0.02-0.431-0.105-0.767-0.256c-0.098,0.3-0.29,0.489-0.574,0.567c-0.114,0.04-0.438,0.071-0.976,0.104
			c0.013-0.095-0.068-0.189-0.25-0.288c-0.521,0.248-0.72,0.841-0.589,1.779c0.014-0.094,0.033,0.067,0.058,0.486
			c0.015,0.262-0.04,0.452-0.168,0.567c-0.327,0.05-0.74-0.023-1.241-0.218c-0.502-0.197-0.86-0.289-1.07-0.275
			c-0.097,0.005-0.184,0.019-0.259,0.039l-0.539,0.17l-0.861-9.371l-0.102-1.783c0.716-0.243,1.604-0.396,2.659-0.458
			c0.825-0.047,1.903-0.041,3.236,0.021c0.085-0.176,0.243,0.054,0.436,0.042c0.096-0.005,0.241,0.005,0.436,0.033
			c0.193,0.026,0.339,0.039,0.436,0.033c0.116-0.009,0.22-0.029,0.314-0.065l0.136-0.148c0.392,0.117,0.598,0.322,0.611,0.616
			c0.008,0.124-0.028,0.334-0.106,0.636c-0.078,0.298-0.113,0.525-0.105,0.68C617.063,136.604,617.1,136.726,617.16,136.83z
			 M613.794,152.465c-0.207,0.106-0.521,0.169-0.942,0.195c-0.557,0.032-0.892,0.059-1.006,0.081
			c-0.062-0.058-0.135-0.011-0.261-0.5c-0.076-0.32-0.278-0.473-0.603-0.452c-0.079,0.005-0.173,0.018-0.288,0.04l-0.519,0.029
			l-0.275-4.742c0.281-0.14,0.633-0.223,1.055-0.248c0.404-0.023,0.763,0.019,1.077,0.124c-0.009,0.17,0.236,0.243,0.733,0.213
			l0.548-0.032C613.64,148.503,613.838,150.912,613.794,152.465z"></path>
		<path d="M628.678,137.234l0.03,0.022c-0.271-0.016-1.141,0.042-1.81,0.127c-0.574,0.066-1.008,0.075-1.3,0.031
			c-0.278,0.185-0.378,0.44-0.301,0.761l0.178,0.106c-0.145,0.133-0.197,0.235-0.155,0.312l0.154,0.153
			c-0.034,2.748-0.04,4.267-0.022,4.562c0.039,0.726,0.126,1.364,0.253,1.916c-0.114,0.349-0.159,0.747-0.131,1.194
			c0.017,0.293,0.087,0.759,0.209,1.395c0.124,0.637,0.289,2.726,0.309,3.052c0.015,0.246,0.008,0.48-0.018,0.698
			c-0.265,0.11-0.55,0.172-0.857,0.19c-0.517,0.03-1.072-0.077-1.664-0.32c-0.074,0.066-0.155,0.136-0.248,0.211
			c-0.092,0.075-0.115,0.158-0.072,0.249c-0.189,0.057-0.454-0.021-0.793-0.231c-0.182-2.783-0.68-8.45-1.418-14.177
			c-0.257,0.232-0.731,0.039-1.23,0.097c-0.594,0.066-1.174-0.024-1.4,0.083c-0.286-0.31-0.224-0.399-0.254-0.909
			c-0.028-0.494-0.187-1.714-0.061-2.225c0.026-0.108,1.102-0.047,1.733-0.098c0.863-0.051,1.055,0.154,1.11,0.149
			c0.071-0.112,0.493-0.056,0.799-0.073c0.198,0.098,0.412-0.089,0.422,0.05c0.006,0.092,0,0.678-0.065,0.846
			c-0.068,0.165-0.101,0.288-0.097,0.365c0.012,0.185,0.144-0.087,0.459,0.02c0.346-0.005,0.701-0.018,1.065-0.038
			c0.407,0.037,0.874-0.111,0.837,0.233c0.071-0.099,0.115,0.075,0.699-0.16c0.432-0.195,0.694-0.705,0.608-1.053
			c-0.046-0.191,0.214-0.314,0.053-0.225c0.207-0.114,0.019-0.034,0.244-0.124c0.719,0.066,1.118-0.007,1.252-0.017
			c0.29-0.018,1.003,0.169,1.209,0.065c0.149,0.27,0.225,1.116,0.232,1.581C628.662,136.793,628.673,137.188,628.678,137.234z"></path>
		<path d="M638.009,146.911l-0.003-0.022c-0.104,0.208-0.157,0.445-0.16,0.708c-0.011,0.172,0.003,0.411,0.041,0.719
			c0.039,0.354,0.063,0.602,0.071,0.741c-0.155,0.007-0.769,0.043-1.843,0.106c-0.652,0.038-1.235,0.126-1.747,0.264l-0.572-0.433
			c-0.147,0.134-0.198,0.238-0.156,0.312c-0.097-0.009-0.539,0.016-1.324,0.078c-0.615,0.036-1.078,0.015-1.392-0.06
			c-0.291,0.279-0.656,0.303-1.094,0.063c-0.158-0.083-0.187-0.241-0.084-0.47c0.102-0.232,0.054-0.396-0.146-0.493
			c-0.007-0.495,0.015-1.265,0.07-2.308c0.062-0.932,0.077-1.663,0.047-2.189c-0.043-0.711-0.159-1.386-0.348-2.027
			c0.199-0.182,0.434-0.281,0.701-0.296c0.308-0.019,0.679,0.078,1.118,0.285c0.613,0.289,0.928,0.435,0.947,0.435l0.183,0.15
			c0.018-0.047,0.097-0.301,0.245-0.758c0.077-0.3,0.211-0.501,0.398-0.605l0.179,0.128c0.078-0.034,0.318-0.195,0.725-0.483
			c0.314-0.205,0.532-0.956,0.725-0.967c0.21-0.012,0.418,0.069,0.621,0.243c0.333,0.121,0.6,0.965,0.722,1.244
			c0.121,0.28,0.238,0.556,0.352,0.829c-0.863,0.082-1.573,0.115-2.132,0.101c-0.124,0.179-0.316,0.216-0.57,0.114
			c-0.257-0.101-0.439-0.071-0.546,0.092c0.017,0.277,0.047,0.78,0.088,1.506c0.019,0.649,0.049,1.159,0.088,1.53
			c0.053,0.571,0.143,1.092,0.266,1.566c0.154-0.009,0.884-0.051,2.188-0.126C636.567,146.833,637.348,146.842,638.009,146.911z
			 M637.117,136.003c-0.172,0.027-0.365,0.045-0.577,0.058c-0.441,0.024-1.027,0.012-1.764-0.039
			c-0.907-0.04-1.458-0.062-1.651-0.066c-0.248,0.339-0.282,0.616-0.248,1.204c0.073,1.266,0.116,1.816,0.124,1.644
			c0.276,0.108,0.425,0.333,0.444,0.673c0.007,0.464,0.021,0.703,0.042,0.718c-0.132,0.054-0.19,0.212-0.175,0.475
			c-0.215-0.047-0.444-0.16-0.684-0.332c-0.322-0.214-0.423,0.545-0.414,0.342l-0.146,0.472l-0.18-0.128
			c-0.154,0.024-0.421-0.021-0.803-0.139c-0.383-0.117-0.655-0.234-0.815-0.349c-0.015-0.247,0.023-0.39,0.12-0.426l-0.394-0.303
			l-0.16,0.219c-0.344-1.592-0.572-4.4-0.44-6.113c0.735,0.05,1.594-0.079,2.477-0.115c0.595-0.018,1.432-0.066,2.506-0.144
			c1.227-0.086,2.108-0.146,2.646-0.177c0.239,0.157,0.371,0.374,0.386,0.651c0.01,0.171-0.027,0.448-0.112,0.832
			C637.214,135.346,637.105,135.818,637.117,136.003z"></path>
		<path d="M647.587,145.264l-0.028,0.004c-0.121,0.238-0.16,0.582-0.114,1.029c0.056,0.632,0.084,0.957,0.085,0.972
			c-0.096,0.036-0.222-0.009-0.384-0.141c-0.246,0.091-0.36,0.247-0.35,0.461c0.003,0.031,0.016,0.084,0.038,0.162
			c0.006,0.092,0.01,0.154,0.011,0.184c0.013,0.17-0.038,0.297-0.149,0.382c-0.28-0.156-0.647-0.254-1.102-0.297
			c-0.456-0.043-0.887-0.085-1.293-0.124c-0.008-2.106-0.291-4.168-0.849-6.183c0,0.015-0.014-0.194-0.038-0.628
			c0.002-0.308-0.068-0.53-0.211-0.662l-0.191,0.174c-0.002-0.029,0.061-0.092,0.191-0.185c0.128-0.094,0.191-0.186,0.186-0.278
			c-0.004-0.046-0.016-0.094-0.038-0.138l-0.21-0.152c-0.359,0.116-0.525,0.404-0.498,0.868c0.018,0.31-0.105,0.527-0.368,0.649
			c0.1,0.072,0.154,0.163,0.163,0.271c0.002,0.061-0.01,0.147-0.029,0.257c-0.022,0.11-0.034,0.196-0.03,0.258
			c0.009,0.138,0.082,0.251,0.222,0.337c0.006,0.092,0.054,0.926,0.145,2.502c0.061,1.005,0.031,1.861-0.081,2.564l0.023,0.395
			c-0.137-0.008-0.29-0.008-0.462,0.003c-0.193,0.012-0.471,0.039-0.834,0.083c-0.364,0.043-0.63,0.072-0.804,0.083
			c-0.71,0.041-1.207-0.078-1.493-0.356l-0.301-8.66c-0.14-0.426-0.232-1.018-0.277-1.775l-0.098-1.669
			c-0.066-0.818-0.168-1.448-0.31-1.889c0.059-0.298,0.32-0.46,0.779-0.488c0.29-0.017,0.676,0.024,1.164,0.118
			c0.225-0.106,0.537-0.172,0.939-0.194c0.117-0.006,0.298-0.008,0.55-0.008c0.268-0.015,0.462-0.027,0.575-0.035
			c0.75-0.042,1.246-0.272,1.492-0.69c0.346-0.004,0.724,0.105,1.13,0.329c0.409,0.224,0.767,0.343,1.079,0.356
			c0.815,0.481,1.255,1.277,1.32,2.391c0.015,0.247-0.084,1.229-0.291,2.948l-1.404,1.22c0.239,0.437,0.524,1.389,0.861,2.858
			C646.585,143.796,647.015,144.693,647.587,145.264z M644.992,135.412l0.031,0.023c0.024,0.107,0.011-0.272-0.037-1.138
			c-0.025-0.418-0.179-0.72-0.458-0.904c-0.159,0.226-0.189-0.301-0.265,0.224c-0.075,0.525-0.203,0.9-0.38,1.128
			c-0.483-0.003-0.595-0.29-0.88-0.693c-0.18-0.256-0.268-0.033-0.268-0.049l-0.131,0.105c-0.073,0.067-0.155,0.142-0.248,0.225
			c-0.09,0.083-0.187,0.111-0.283,0.086c0.006,0.091-0.039,0.239-0.135,0.438c-0.092,0.2-0.138,0.338-0.134,0.414
			c0.01,0.139,0.119,0.242,0.337,0.308c-0.042,0.312-0.051,0.638-0.031,0.979c0.014,0.186,0.054,0.608,0.132,1.273
			c0.088,0.521,0.125,0.967,0.107,1.341c0.175,0.005,0.336,0.003,0.492-0.004c0.67-0.041,1.106-0.306,1.31-0.798
			c0.066-0.145,0.145-0.661,0.228-1.549C644.457,136.149,644.662,135.681,644.992,135.412z"></path>
	</g>
	<g>
		<path d="M552.104,105.325l0.001,0.022c-0.085,0.802-0.115,1.358-0.085,1.667c-0.123,0.048-0.283,0.055-0.482,0.023
			c-0.255-0.043-0.401-0.063-0.445-0.06c-0.11,0.004-0.199,0.044-0.266,0.118c-0.159-0.104-0.266-0.148-0.323-0.132
			c-0.148,0.092-0.219,0.222-0.212,0.389c0.006,0.071,0.031,0.193,0.083,0.364c0.051,0.176,0.078,0.302,0.082,0.386
			c0.005,0.112-0.017,0.289-0.067,0.53c-0.051,0.24-0.073,0.438-0.066,0.592c0.011,0.181,0.05,0.468,0.119,0.857
			c0.068,0.388,0.105,0.683,0.118,0.877c-0.081,0.384-0.11,0.771-0.092,1.163c0.024,0.476,0.156,1.114,0.392,1.917
			c0.043,0.013,0.086,0.017,0.127,0.014c0.098-0.005,0.214-0.075,0.349-0.208c0.133-0.131,0.247-0.201,0.347-0.206
			c0.069-0.003,0.146,0.013,0.232,0.051c0.252,0.815,0.383,1.341,0.396,1.58c0.006,0.112,0.004,0.23-0.003,0.356
			c-0.375,0.09-0.641-0.037-0.796-0.379c0.021-0.099-0.032-0.203-0.165-0.309l-0.418,0.442c0.41,0.064,0.572,0.379,0.488,0.944
			c-0.035,0.115-0.124,0.175-0.264,0.181c-0.239-0.001-0.35-0.003-0.337-0.003l-0.346-0.614l-0.139,0.175
			c-0.114-0.289-0.247-0.43-0.399-0.423c-0.085,0.006-0.231,0.076-0.444,0.211c-0.208,0.137-0.384,0.21-0.523,0.216
			c-0.111,0.005-0.225-0.022-0.341-0.088c-0.008-0.168-0.026-0.342-0.058-0.522c-0.03-0.181-0.124-0.295-0.279-0.345
			c-0.009-0.434,0.005-1.577,0.036-3.431c0.015-1.403,0-2.538-0.045-3.405c-0.02-0.363-0.043-0.721-0.074-1.07
			c-0.074-0.108-0.147-0.161-0.218-0.158c-0.058,0.003-0.142,0.065-0.254,0.182c-0.113,0.118-0.213,0.172-0.299,0.162
			c-0.006-0.139-0.068-0.365-0.189-0.674c-0.121-0.31-0.185-0.534-0.193-0.674c-0.01-0.238,0.077-0.446,0.265-0.625l0.49,0.124
			c0.196-0.277,0.277-0.744,0.244-1.402c-0.006-0.124-0.023-0.324-0.051-0.596c-0.027-0.272-0.045-0.472-0.052-0.597
			c-0.054-1.078,0.276-1.635,0.988-1.67c0.266-0.015,0.592,0.033,0.974,0.141l0.47,0.125c0.038,0.18,0.062,0.368,0.071,0.563
			c0.013,0.267,0.002,0.656-0.035,1.169c-0.039,0.515-0.051,0.891-0.04,1.127c0.02,0.378,0.086,0.719,0.199,1.021
			c0.112-0.004,0.287-0.065,0.527-0.183c0.24-0.117,0.415-0.179,0.527-0.184C551.823,105.044,551.982,105.136,552.104,105.325z
			 M550.645,106.829l-0.024-0.483l-0.152-0.139L550.645,106.829z"></path>
		<path d="M557.873,103.814l0.021-0.002c-0.05,0.381-0.109,0.763-0.174,1.145c-0.075,0.439-0.199,0.781-0.369,1.029
			c-0.029-0.012-0.201-0.094-0.516-0.248c-0.217-0.115-0.41-0.161-0.575-0.139c-0.129,0.821-0.197,1.94-0.21,3.356
			c-0.009,1.81-0.023,2.904-0.044,3.284c-0.211-0.016-0.369,0.051-0.473,0.203c-0.105,0.154-0.204,0.309-0.293,0.467
			c-0.038,0.085-0.055,0.164-0.052,0.233c0.004,0.112,0.103,0.222,0.29,0.322c0.187,0.104,0.283,0.22,0.289,0.345
			c-0.081,0.299-0.258,0.455-0.524,0.468c-0.123,0.006-0.344-0.031-0.657-0.114c-0.312-0.083-0.53-0.121-0.657-0.113l-0.302-6.003
			c0.118-0.16,0.169-0.268,0.153-0.323l-0.174-0.118c0.014-0.251,0.028-1.509,0.04-3.768c0.008-1.529,0.064-2.768,0.171-3.712
			c-0.013,0.002,0.419-0.028,1.301-0.086c0.544-0.027,0.896,0.123,1.052,0.451c0.003,0.309-0.028,0.828-0.091,1.562
			c-0.062,0.676-0.086,1.197-0.069,1.561c0.024,0.447,0.095,0.85,0.21,1.209C556.694,104.183,557.244,103.845,557.873,103.814z
			 M559.956,105.099c0.042,0.559,0.076,1.103,0.104,1.635c0.119,2.322,0.082,4.807-0.107,7.454c-0.202,0.178-0.513,0.218-0.931,0.12
			c-0.418-0.098-0.722-0.059-0.908,0.118c-0.24-0.31-0.381-0.871-0.421-1.683c-0.06-1.174-0.09-1.782-0.093-1.826
			c-0.051-2.943,0.237-5.321,0.86-7.134C559.184,103.972,559.683,104.41,559.956,105.099z"></path>
		<path d="M567.316,108.145c-0.091,0.188-0.128,0.387-0.117,0.596c0.009,0.21,0.019,0.411,0.029,0.61
			c-0.021,0.167-0.066,0.338-0.142,0.51c-0.127-0.035-0.233-0.052-0.316-0.047c-0.101,0.005-0.2,0.042-0.301,0.111
			c-0.101,0.068-0.182,0.104-0.237,0.105c-0.083,0.004-0.196-0.026-0.34-0.088l-0.977-1.423c0.035,0.419,0.132,0.785,0.288,1.101
			c0.077,0.163,0.155,0.328,0.234,0.492c-0.571,0.099-0.893,0.115-0.966,0.048l-0.137,0.177l-0.339-0.446
			c-0.265,0.323-0.325,0.794-0.181,1.419c0.176,0.678,0.186,1.169,0.033,1.471c0.211,0.312,0.463,0.459,0.757,0.445
			c0.128-0.005,0.236-0.054,0.329-0.143c0.136-0.344,0.273-0.687,0.411-1.03c0.203-0.417,0.432-0.633,0.682-0.646
			c0.196-0.009,0.426,0.092,0.689,0.303c0.313,0.109,0.475,0.257,0.485,0.438c0.003,0.113-0.067,0.295-0.216,0.547
			c-0.148,0.254-0.217,0.449-0.212,0.591c0.003,0.056,0.012,0.104,0.028,0.145c-0.203,0.151-0.385,0.377-0.544,0.68
			c-0.161,0.302-0.37,0.51-0.632,0.621c-0.228,0.222-0.438,0.337-0.632,0.348c-0.155,0.009-0.385-0.111-0.693-0.355
			c-0.306-0.243-0.593-0.359-0.857-0.346c-0.11-0.247-0.383-0.521-0.818-0.822c-0.437-0.299-0.706-0.623-0.807-0.969
			c0.002,0.029-0.005-0.083-0.016-0.335c-0.008-0.14-0.069-0.227-0.182-0.265l0.158-0.156c-0.211-0.002-0.321-0.123-0.333-0.362
			c-0.002-0.028-0.004-0.084-0.007-0.168c0.008-0.071,0.015-0.127,0.012-0.168c-0.009-0.168-0.063-0.284-0.164-0.351l-0.037-0.735
			c-0.019-0.378-0.097-0.646-0.231-0.809c0.138-0.89,0.275-1.781,0.414-2.671c0.226-1.036,0.564-1.565,1.013-1.588
			c0.068-0.002,0.139,0.008,0.211,0.031c0.401-0.398,0.888-0.612,1.46-0.641c0.631-0.031,1.326,0.158,2.09,0.569
			C566.805,105.92,567.173,106.989,567.316,108.145z M564.424,105.829l-0.138,0.175c-0.098,0.02-0.211-0.03-0.345-0.151l0.025,0.484
			c-0.214,0.233-0.3,0.595-0.262,1.085c0.042,0.84,0.062,1.246,0.061,1.218l0.63-0.011c0.302-0.169,0.439-0.449,0.421-0.841
			c-0.01-0.196-0.078-0.518-0.206-0.967C564.482,106.37,564.422,106.041,564.424,105.829z"></path>
	</g>
	<g>
		<polygon fill-rule="evenodd" clip-rule="evenodd" points="572.244,129.322 572.869,129.682 574.986,124.114 574.281,123.877 
			572.161,129.446 572.779,129.839 572.244,129.322 572.244,129.322 		"></polygon>
		<polygon fill-rule="evenodd" clip-rule="evenodd" points="573.17,128.55 572.914,128.65 572.244,129.322 572.779,129.839 
			573.461,129.132 573.193,129.267 573.17,128.55 573.17,128.55 		"></polygon>
		<polygon fill-rule="evenodd" clip-rule="evenodd" points="578.3,128.506 578.603,128.271 573.17,128.55 573.193,129.267 
			578.626,128.99 578.973,128.732 578.3,128.506 578.3,128.506 578.3,128.506 		"></polygon>
		<polygon fill-rule="evenodd" clip-rule="evenodd" points="580.753,123.388 580.383,122.927 578.3,128.506 578.973,128.732 
			581.089,123.163 580.721,122.704 580.753,123.388 580.753,123.388 580.753,123.388 		"></polygon>
		<polygon fill-rule="evenodd" clip-rule="evenodd" points="575.58,123.565 575.312,123.699 580.753,123.388 580.721,122.704 
			575.301,122.949 575.03,123.081 575.58,123.565 575.58,123.565 575.58,123.565 		"></polygon>
		<polygon fill-rule="evenodd" clip-rule="evenodd" points="574.986,124.114 574.908,124.236 575.58,123.565 575.03,123.081 
			574.358,123.755 574.281,123.877 574.986,124.114 574.986,124.114 574.986,124.114 		"></polygon>
		<polygon fill-rule="evenodd" clip-rule="evenodd" points="579.498,129.168 579.98,128.955 578.817,128.306 578.445,128.966 
			579.645,129.628 580.169,129.392 579.463,129.158 579.463,129.158 579.498,129.168 		"></polygon>
		<polygon fill-rule="evenodd" clip-rule="evenodd" points="581.772,124.027 581.582,123.589 579.463,129.158 580.169,129.392 
			582.288,123.824 582.097,123.388 581.772,124.027 581.772,124.027 		"></polygon>
		<polygon fill-rule="evenodd" clip-rule="evenodd" points="581.089,123.163 580.563,123.399 581.772,124.027 582.097,123.388 
			580.933,122.739 580.383,122.927 581.089,123.163 581.089,123.163 		"></polygon>
		<polygon points="574.649,124.001 574.616,123.99 575.289,123.318 580.332,123.072 580.383,122.927 580.754,123.051 
			581.089,123.163 581.066,123.224 581.951,123.713 582.288,123.824 582.15,124.187 584.616,130.055 582.531,135.634 
			579.834,129.28 579.834,129.28 579.487,129.425 579.463,129.158 579.491,129.09 578.641,128.62 578.445,128.966 578.34,128.633 
			573.17,128.887 572.499,129.558 		"></polygon>
		<polygon fill-rule="evenodd" clip-rule="evenodd" points="582.194,135.521 582.879,135.489 580.181,129.135 579.487,129.425 
			582.185,135.779 582.867,135.746 582.162,135.51 582.162,135.51 582.194,135.521 		"></polygon>
		<polygon fill-rule="evenodd" clip-rule="evenodd" points="584.303,130.213 584.279,129.942 582.162,135.51 582.867,135.746 
			584.986,130.179 584.964,129.911 584.303,130.213 584.303,130.213 		"></polygon>
		<polygon fill-rule="evenodd" clip-rule="evenodd" points="582.288,123.824 581.604,123.859 584.303,130.213 584.964,129.911 
			582.264,123.556 581.582,123.589 582.288,123.824 582.288,123.824 		"></polygon>
		<polygon fill-rule="evenodd" clip-rule="evenodd" fill="#FFFFFF" points="582.107,125.259 582.41,125.92 582.522,126.593 
			582.49,127.254 582.297,127.938 581.963,128.608 581.502,129.202 580.909,129.75 580.192,130.222 579.801,130.39 579.409,130.558 
			578.972,130.635 578.568,130.725 578.177,130.78 577.752,130.825 577.359,130.769 576.957,130.746 576.609,130.669 
			576.239,130.545 575.882,130.388 575.569,130.208 575.299,130.007 574.996,129.793 574.751,129.526 574.549,129.233 
			574.246,128.572 574.134,127.901 574.135,127.227 574.359,126.556 574.649,125.904 575.121,125.28 575.714,124.73 576.464,124.27 
			576.823,124.092 577.249,123.936 577.652,123.845 578.056,123.757 578.479,123.711 578.873,123.656 579.266,123.711 
			579.667,123.735 580.036,123.857 580.406,123.98 580.741,124.094 581.088,124.283 581.37,124.452 581.659,124.698 
			581.862,124.989 582.107,125.259 582.107,125.259 582.107,125.259 		"></polygon>
		<polygon fill-rule="evenodd" clip-rule="evenodd" points="582.376,126.357 582.681,127.019 582.779,127.725 582.747,128.386 
			582.565,129.036 582.264,129.719 581.759,130.333 581.21,130.861 580.461,131.319 580.059,131.521 579.666,131.689 
			579.264,131.778 578.826,131.856 578.435,131.913 578.056,131.936 577.65,131.913 577.224,131.846 576.876,131.766 
			576.508,131.643 576.184,131.497 575.836,131.307 575.557,131.14 575.298,130.903 575.041,130.668 574.817,130.332 
			574.504,129.704 574.392,129.031 574.437,128.336 574.615,127.688 574.918,127.005 575.379,126.41 575.972,125.861 
			576.72,125.402 577.124,125.201 577.506,125.067 577.92,124.943 578.357,124.865 578.737,124.843 579.129,124.788 
			579.522,124.843 579.925,124.865 580.307,124.955 580.675,125.078 581,125.225 581.359,125.382 581.627,125.584 581.929,125.796 
			582.13,126.09 582.366,126.39 582.366,126.39 582.376,126.357 		"></polygon>
		<polygon fill-rule="evenodd" clip-rule="evenodd" fill="#FFFFFF" points="582.565,127.13 582.881,127.758 582.98,128.464 
			582.946,129.125 582.768,129.774 582.432,130.446 581.961,131.073 581.413,131.599 580.663,132.06 580.293,132.271 
			579.868,132.429 579.463,132.517 579.027,132.596 578.636,132.651 578.255,132.674 577.851,132.651 577.426,132.584 
			577.079,132.506 576.709,132.384 576.385,132.237 576.038,132.047 575.757,131.877 575.466,131.63 575.255,131.375 
			575.019,131.071 574.705,130.444 574.593,129.771 574.626,129.111 574.817,128.427 575.119,127.743 575.591,127.116 
			576.205,126.612 576.924,126.142 577.326,125.94 577.719,125.771 578.121,125.683 578.559,125.606 578.949,125.549 
			579.33,125.525 579.768,125.56 580.127,125.606 580.507,125.696 580.876,125.817 581.235,125.975 581.55,126.155 581.828,126.323 
			582.131,126.537 582.332,126.828 582.565,127.13 582.565,127.13 		"></polygon>
		<polygon fill-rule="evenodd" clip-rule="evenodd" points="582.836,128.228 583.137,128.89 583.251,129.562 583.251,130.234 
			583.025,130.906 582.733,131.556 582.229,132.171 581.672,132.733 580.92,133.19 580.562,133.37 580.136,133.526 579.732,133.617 
			579.329,133.705 578.904,133.751 578.511,133.807 578.119,133.751 577.718,133.728 577.336,133.638 576.965,133.514 
			576.643,133.368 576.296,133.178 576.025,132.977 575.76,132.775 575.512,132.505 575.276,132.202 575.007,131.553 
			574.862,130.869 574.895,130.208 575.086,129.526 575.411,128.887 575.882,128.259 576.474,127.71 577.192,127.24 
			577.584,127.072 577.977,126.905 578.412,126.826 578.817,126.737 579.207,126.681 579.621,126.669 580.024,126.693 
			580.394,126.704 580.774,126.793 581.145,126.917 581.503,127.073 581.816,127.253 582.119,127.465 582.388,127.667 
			582.633,127.937 582.823,128.262 582.823,128.262 582.836,128.228 		"></polygon>
		<polygon fill-rule="evenodd" clip-rule="evenodd" fill="#FFFFFF" points="583.228,128.957 583.541,129.585 583.653,130.256 
			583.641,130.963 583.462,131.611 583.125,132.285 582.621,132.901 582.072,133.427 581.357,133.897 580.953,134.099 
			580.527,134.256 580.125,134.346 579.721,134.434 579.295,134.479 578.916,134.501 578.511,134.479 578.119,134.423 
			577.74,134.333 577.37,134.208 577.045,134.063 576.72,133.917 576.419,133.704 576.16,133.469 575.916,133.2 575.712,132.91 
			575.399,132.282 575.265,131.563 575.298,130.903 575.512,130.265 575.813,129.582 576.283,128.954 576.867,128.439 
			577.584,127.968 577.987,127.769 578.378,127.6 578.804,127.553 579.219,127.431 579.61,127.375 580.024,127.365 580.429,127.388 
			580.786,127.433 581.167,127.522 581.568,127.656 581.895,127.802 582.22,127.948 582.522,128.161 582.779,128.396 
			583.026,128.665 583.228,128.957 583.228,128.957 		"></polygon>
		<polygon fill-rule="evenodd" clip-rule="evenodd" points="583.531,130.066 583.796,130.715 583.944,131.4 583.909,132.061 
			583.721,132.743 583.394,133.382 582.924,134.008 582.33,134.558 581.613,135.029 581.222,135.197 580.795,135.354 
			580.394,135.443 579.99,135.533 579.598,135.587 579.172,135.633 578.781,135.578 578.377,135.553 578.03,135.476 
			577.627,135.341 577.302,135.195 576.989,135.015 576.687,134.803 576.419,134.601 576.172,134.332 575.97,134.04 
			575.667,133.379 575.522,132.697 575.557,132.035 575.78,131.362 576.072,130.711 576.542,130.085 577.135,129.538 
			577.885,129.077 578.245,128.899 578.67,128.743 579.074,128.652 579.476,128.562 579.902,128.519 580.294,128.463 
			580.686,128.519 581.054,128.531 581.47,128.631 581.838,128.754 582.164,128.9 582.478,129.079 582.779,129.291 583.047,129.494 
			583.294,129.763 583.531,130.066 583.531,130.066 583.531,130.066 		"></polygon>
		<polygon fill-rule="evenodd" clip-rule="evenodd" points="546.51,121.515 546.543,121.301 544.413,126.903 545.085,127.127 
			547.215,121.525 547.225,121.38 546.51,121.515 546.51,121.515 546.51,121.515 		"></polygon>
		<polygon fill-rule="evenodd" clip-rule="evenodd" points="546.454,121.234 546.464,121.201 546.51,121.515 547.225,121.38 
			547.148,121.056 547.16,121.022 546.454,121.234 546.454,121.234 546.454,121.234 		"></polygon>
		<polygon fill-rule="evenodd" clip-rule="evenodd" points="546.374,120.91 546.454,121.234 547.16,121.022 547.08,120.697 
			546.374,120.91 546.374,120.91 546.374,120.91 		"></polygon>
		<polygon fill-rule="evenodd" clip-rule="evenodd" points="546.286,120.618 546.374,120.91 547.08,120.697 546.991,120.406 
			546.286,120.618 546.286,120.618 		"></polygon>
		<polygon fill-rule="evenodd" clip-rule="evenodd" points="546.207,120.293 546.207,120.293 546.286,120.618 546.991,120.406 
			546.912,120.08 546.902,120.114 546.207,120.293 546.207,120.293 546.207,120.293 		"></polygon>
		<polygon fill-rule="evenodd" clip-rule="evenodd" points="546.118,119.889 546.118,120.002 546.207,120.293 546.902,120.114 
			546.812,119.821 546.846,119.946 546.118,119.889 546.118,119.889 		"></polygon>
		<polygon fill-rule="evenodd" clip-rule="evenodd" points="546.835,119.756 546.129,119.631 546.118,119.889 546.846,119.946 
			546.856,119.689 546.151,119.564 546.823,119.79 546.823,119.79 546.835,119.756 		"></polygon>
		<polygon fill-rule="evenodd" clip-rule="evenodd" fill="#4C4849" points="547.445,136.058 547.379,135.7 546.629,135.823 
			546.685,136.214 547.445,136.058 547.445,136.058 547.445,136.058 		"></polygon>
		<polygon fill-rule="evenodd" clip-rule="evenodd" points="549.004,131.387 549.026,131.207 546.91,136.775 547.58,137 
			549.699,131.432 549.688,131.242 549.004,131.387 549.004,131.387 549.004,131.387 		"></polygon>
		<polygon fill-rule="evenodd" clip-rule="evenodd" points="548.948,130.995 549.004,131.387 549.688,131.242 549.631,130.848 
			548.914,130.983 548.914,130.983 548.948,130.995 		"></polygon>
		<polygon fill-rule="evenodd" clip-rule="evenodd" points="548.848,130.624 548.914,130.983 549.631,130.848 549.531,130.479 
			548.848,130.624 548.848,130.624 548.848,130.624 		"></polygon>
		<polygon fill-rule="evenodd" clip-rule="evenodd" points="548.758,130.221 548.78,130.267 548.848,130.624 549.531,130.479 
			549.475,130.085 549.498,130.133 548.758,130.221 548.758,130.221 548.758,130.221 		"></polygon>
		<polygon fill-rule="evenodd" clip-rule="evenodd" points="549.43,129.885 548.714,129.794 548.758,130.221 549.498,130.133 
			549.441,129.74 548.724,129.65 549.43,129.885 549.43,129.885 		"></polygon>
		<g>
			<polygon fill="#4C4849" points="544.418,125.792 544.078,125.895 544.418,125.792 			"></polygon>
			<polygon fill="#4C4849" points="544.771,126.961 544.783,126.926 544.957,126.938 545.085,127.127 544.772,127.023 			"></polygon>
			<polygon points="543.999,125.57 544.357,125.502 544.37,125.245 546.498,119.644 546.487,119.677 546.487,119.901 
				546.544,120.181 546.655,120.519 546.744,120.808 546.822,121.134 546.879,121.413 546.879,121.413 547.215,121.525 
				545.085,127.127 544.957,126.938 544.783,126.926 544.771,126.961 544.772,127.023 545.085,127.127 544.774,127.108 
				544.783,127.362 544.565,127.095 544.391,127.082 544.346,126.769 544.476,126.741 544.613,126.381 544.257,126.477 
				544.156,126.219 544.078,125.895 544.418,125.792 544.418,125.792 544.078,125.895 544.09,125.861 			"></polygon>
		</g>
		<g>
			<polygon fill="none" points="561.334,127.1 561.334,127.1 561.638,126.417 			"></polygon>
			<polygon points="544.76,126.646 560.35,126.135 560.753,126.159 560.819,126.181 561.202,126.271 561.235,126.282 
				561.638,126.417 562.029,126.584 562.062,126.596 562.433,126.832 562.499,126.854 562.79,127.1 562.88,127.167 563.093,127.425 
				563.115,127.47 563.26,127.705 563.271,127.783 562.585,127.99 562.476,127.816 562.466,127.851 562.286,127.604 
				562.288,127.603 562.051,127.415 562.108,127.47 561.728,127.27 561.728,127.266 561.334,127.1 561.334,127.1 560.998,126.989 
				560.617,126.898 560.685,126.921 560.325,126.875 560.328,126.842 544.783,127.362 			"></polygon>
			<polygon points="562.567,127.997 562.585,127.99 562.622,128.053 			"></polygon>
		</g>
		<polygon fill-rule="evenodd" clip-rule="evenodd" points="570.896,141.085 570.896,140.862 568.767,146.463 569.472,146.699 
			571.603,141.098 571.602,140.874 570.896,141.085 570.896,141.085 570.896,141.085 		"></polygon>
		<polygon fill-rule="evenodd" clip-rule="evenodd" points="564.74,122.484 564.695,122.396 570.896,141.085 571.602,140.874 
			565.4,122.183 565.39,122.104 564.74,122.484 564.74,122.484 564.74,122.484 		"></polygon>
		<polygon fill-rule="evenodd" clip-rule="evenodd" points="564.617,122.295 564.597,122.249 564.74,122.484 565.39,122.104 
			565.244,121.868 565.211,121.857 564.583,122.284 564.583,122.284 564.617,122.295 		"></polygon>
		<polygon fill-rule="evenodd" clip-rule="evenodd" points="564.472,122.059 564.415,122.004 564.583,122.284 565.211,121.857 
			564.976,121.555 564.918,121.499 564.472,122.059 564.472,122.059 564.472,122.059 		"></polygon>
		<polygon fill-rule="evenodd" clip-rule="evenodd" points="564.225,121.902 564.168,121.847 564.472,122.059 564.918,121.499 
			564.617,121.286 564.562,121.23 564.225,121.902 564.225,121.902 		"></polygon>
		<polygon fill-rule="evenodd" clip-rule="evenodd" points="563.889,121.678 563.856,121.667 564.225,121.902 564.562,121.23 
			564.181,121.029 564.147,121.017 563.889,121.678 563.889,121.678 		"></polygon>
		<polygon fill-rule="evenodd" clip-rule="evenodd" points="563.531,121.521 563.453,121.532 563.889,121.678 564.147,121.017 
			563.754,120.849 563.721,120.837 563.486,121.543 563.486,121.543 563.531,121.521 		"></polygon>
		<polygon fill-rule="evenodd" clip-rule="evenodd" points="563.128,121.387 563.083,121.408 563.486,121.543 563.721,120.837 
			563.318,120.703 563.318,120.703 563.116,121.419 563.116,121.419 563.128,121.387 		"></polygon>
		<polygon fill-rule="evenodd" clip-rule="evenodd" points="562.814,121.319 562.748,121.298 563.116,121.419 563.318,120.703 
			562.903,120.603 562.87,120.591 562.814,121.319 562.814,121.319 562.814,121.319 		"></polygon>
		<polygon fill-rule="evenodd" clip-rule="evenodd" points="562.455,121.274 562.444,121.307 562.814,121.319 562.87,120.591 
			562.478,120.534 562.433,120.557 562.455,121.274 562.455,121.274 		"></polygon>
		<polygon fill-rule="evenodd" clip-rule="evenodd" points="547.249,121.537 546.868,121.782 562.455,121.274 562.433,120.557 
			546.879,121.078 546.543,121.301 547.215,121.525 547.215,121.525 547.249,121.537 		"></polygon>
		<polygon fill="#4C4849" points="551.164,138.567 551.109,138.541 551.143,138.524 		"></polygon>
		<g>
			<polygon fill="#4C4849" points="559.583,141.089 559.519,141.843 559.583,141.089 			"></polygon>
			<g>
				<polygon fill="none" points="559.554,141.449 559.519,141.843 559.554,141.449 				"></polygon>
				<g>
					<polygon fill="none" points="546.921,135.385 546.942,135.332 546.957,135.403 					"></polygon>
					<path d="M546.685,136.214l0.067,0.358l0.135,0.381l0.168,0.28l0.953,0.504l0.95,0.506l0.918,0.493l0.93,0.458l0.033,0.012
						l0.941,0.426l0.939,0.426l1.02,0.415l1.03,0.381l0.034,0.012l1.098,0.292l1.098,0.291l0.032,0.011l1.21,0.179l1.243,0.192
						l0.034,0.011l1.354,0.08l0.046-0.023l1.444,0.035l1.546-0.044l1.635-0.088l0.337-0.225l2.116-5.567l-0.358-0.494l0.021,0.718
						l-0.11-0.14l0.079-0.207l-0.234,0.012l-0.103-0.125l-0.05,0.136l-1.214,0.075h-1.568l-1.446-0.034l-1.32-0.067l-1.286-0.169
						l-1.198-0.212l-1.1-0.292l-1.098-0.292l-1.029-0.381l-0.997-0.372l-0.94-0.425l-0.931-0.461l-0.962-0.47l-0.917-0.492
						l-0.918-0.495l-0.638-0.336l0.021-0.055l-0.336-0.113l0,0l-0.09-0.402l-0.066-0.359l-0.027-0.123l0.25-0.549l-0.353-0.117
						l-0.017-0.007l0,0l-0.337-0.111l-2.116,5.567l-0.023,0.179l0.057,0.393L546.685,136.214z M546.942,135.332l0.015,0.071
						l-0.036-0.018L546.942,135.332z"></path>
				</g>
			</g>
		</g>
		<polygon fill-rule="evenodd" clip-rule="evenodd" points="566.025,136.323 567.658,136.234 567.638,135.516 566.003,135.605 
			566.025,136.323 566.025,136.323 566.025,136.323 		"></polygon>
		<polygon fill-rule="evenodd" clip-rule="evenodd" points="564.48,136.366 566.025,136.323 566.003,135.605 564.458,135.65 
			564.48,136.366 564.48,136.366 564.48,136.366 		"></polygon>
		<polygon fill-rule="evenodd" clip-rule="evenodd" points="563.001,136.321 563.035,136.332 564.48,136.366 564.458,135.65 
			563.014,135.616 563.059,135.593 562.99,136.355 562.99,136.355 563.001,136.321 		"></polygon>
		<polygon fill-rule="evenodd" clip-rule="evenodd" points="561.612,136.232 561.647,136.243 562.99,136.355 563.059,135.593 
			561.702,135.514 561.735,135.526 561.612,136.232 561.612,136.232 561.612,136.232 		"></polygon>
		<polygon fill-rule="evenodd" clip-rule="evenodd" points="560.357,136.073 561.612,136.232 561.735,135.526 560.493,135.334 
			560.357,136.073 560.357,136.073 		"></polygon>
		<polygon fill-rule="evenodd" clip-rule="evenodd" points="559.127,135.849 559.16,135.86 560.357,136.073 560.493,135.334 
			559.251,135.144 559.283,135.155 559.127,135.849 559.127,135.849 559.127,135.849 		"></polygon>
		<polygon fill-rule="evenodd" clip-rule="evenodd" points="558.03,135.557 559.127,135.849 559.283,135.155 558.187,134.863 
			558.019,135.591 558.019,135.591 558.03,135.557 		"></polygon>
		<polygon fill-rule="evenodd" clip-rule="evenodd" points="556.888,135.288 556.921,135.299 558.019,135.591 558.187,134.863 
			557.089,134.571 557.123,134.582 556.888,135.288 556.888,135.288 		"></polygon>
		<polygon fill-rule="evenodd" clip-rule="evenodd" points="555.855,134.907 555.855,134.907 556.888,135.288 557.123,134.582 
			556.093,134.201 556.127,134.211 555.824,134.896 555.824,134.896 555.855,134.907 		"></polygon>
		<polygon fill-rule="evenodd" clip-rule="evenodd" points="554.838,134.491 555.824,134.896 556.127,134.211 555.141,133.808 
			554.838,134.491 554.838,134.491 		"></polygon>
		<polygon fill-rule="evenodd" clip-rule="evenodd" points="553.897,134.065 554.838,134.491 555.141,133.808 554.188,133.416 
			553.897,134.065 553.897,134.065 		"></polygon>
		<polygon fill-rule="evenodd" clip-rule="evenodd" points="552.935,133.594 552.956,133.641 553.897,134.065 554.188,133.416 
			553.226,132.945 553.26,132.957 552.924,133.629 552.924,133.629 552.935,133.594 		"></polygon>
		<polygon fill-rule="evenodd" clip-rule="evenodd" points="552.004,133.134 552.924,133.629 553.26,132.957 552.33,132.497 
			551.994,133.168 551.994,133.168 552.004,133.134 		"></polygon>
		<polygon fill-rule="evenodd" clip-rule="evenodd" points="551.086,132.643 551.994,133.168 552.33,132.497 551.412,132.004 
			551.053,132.631 551.053,132.631 551.086,132.643 		"></polygon>
		<polygon fill-rule="evenodd" clip-rule="evenodd" points="550.135,132.137 551.053,132.631 551.412,132.004 550.493,131.509 
			550.135,132.137 550.135,132.137 		"></polygon>
		<polygon fill-rule="evenodd" clip-rule="evenodd" points="549.699,131.432 549.184,131.632 550.135,132.137 550.493,131.509 
			549.542,131.006 549.026,131.207 549.699,131.432 549.699,131.432 549.699,131.432 		"></polygon>
		<polygon fill-rule="evenodd" clip-rule="evenodd" points="646.771,121.34 644.64,126.941 651.593,129.264 653.208,125.543 
			653.254,125.186 653.264,124.814 653.208,124.422 653.073,124.042 652.85,123.705 652.67,123.346 652.38,122.989 652.077,122.663 
			651.764,122.372 651.417,122.069 651.059,121.8 650.711,121.608 650.376,121.386 649.983,121.218 649.636,121.027 649.3,120.914 
			648.999,120.814 648.638,120.768 648.314,120.735 648.001,120.78 647.687,120.824 647.353,120.937 647.061,121.138 
			646.771,121.34 646.771,121.34 646.771,121.34 		"></polygon>
		<polygon fill-rule="evenodd" clip-rule="evenodd" points="651.28,129.083 651.717,128.893 644.764,126.572 644.527,127.277 
			651.483,129.598 651.953,129.42 651.28,129.083 651.28,129.083 		"></polygon>
		<g>
			<polygon fill="none" points="652.623,130.699 652.668,131.078 652.623,130.699 			"></polygon>
			<polygon fill="none" points="656.21,126.946 656.466,127.191 656.188,126.996 			"></polygon>
			<g>
				<polygon fill="none" points="656.466,127.191 656.188,126.996 656.21,126.946 				"></polygon>
				<g>
					<polygon fill="none" points="656.466,127.191 656.188,126.996 656.21,126.946 					"></polygon>
					<polygon points="543.999,125.233 544.032,125.132 546.151,119.564 546.823,119.79 544.77,125.288 544.727,125.514 
						544.718,125.435 543.999,125.57 543.989,125.491 					"></polygon>
					<g>
						<polygon fill="none" points="656.466,127.191 656.188,126.996 656.21,126.946 						"></polygon>
						<polygon fill="#4C4849" points="578.097,138.411 577.972,138.487 577.963,138.478 						"></polygon>
						<g>
							<polygon fill="none" points="578.234,138.739 578.499,138.994 578.234,138.739 							"></polygon>
							<polygon fill="none" points="656.466,127.191 656.188,126.996 656.21,126.946 							"></polygon>
							<polygon fill="none" points="569.103,146.575 569.125,146.575 569.125,146.583 568.767,146.463 569.066,146.469 							"></polygon>
							<path d="M544.257,126.477l0.079,0.325l0.01-0.033l0.542-0.116l-0.138,0.361l15.587-0.508l0.37,0.012l0.404,0.134l0.403,0.134
								l0.402,0.136l0.368,0.234l0.303,0.212l0.214,0.257l0.13,0.261l-0.364,0.111l6.199,18.69l0.362,0.006l0.008,0.23h0.559
								l0.527-0.012l0.481,0.012l0.438-0.079l0.446-0.112l0.45-0.223l0.413-0.349l0.491-0.471l0.013-0.033l0.28-0.391l0.324-0.415
								l0.37-0.438l0.258-0.437l0.323-0.525l0.337-0.449l0.28-0.504l0.359-0.515l0.29-0.424l0.415-0.461l0.336-0.447l0.394-0.393
								l0.346-0.369l0.369-0.324l0.359-0.291l0.413-0.236l0.09-0.044l-0.265-0.255l0,0l0.265,0.255l0.415-0.461l0.381-0.357
								l0.336-0.336l0.359-0.291l0.347-0.258l0.368-0.213l0.325-0.189l0.358-0.179l0.404-0.09l0.392-0.168l0.403-0.09l0.47-0.067
								l0.516-0.089l0.569-0.033l0.618-0.056l0.604-0.021l0.034,0.01l67.27-5.028l0.394-0.055l0.357-0.069l0.324-0.077l0.336-0.112
								l0.314-0.156l0.324-0.191l0.27-0.247l0.313-0.268l0.068-0.09l1.175-2.743l-0.613-0.393l0.271,0.262l-0.044,0.036
								l-0.296-0.209l-0.295,0.687l-0.198,0.119l-0.259,0.101l-0.302,0.125l-0.281,0.055l-0.357,0.068l-0.356,0.066l-67.305,5.017
								l-0.427,0.044l-0.414,0.012l-0.414,0.011l-0.437,0.078h-0.45l-0.391,0.056l-0.426,0.046l-0.392,0.056l-0.437,0.078
								l-0.392,0.055l-0.402,0.089l-0.447,0.112l-0.404,0.091l-0.427,0.155l-0.425,0.157l-0.403,0.202l-0.795,0.482l-0.808,0.737
								l-0.85,0.875l-0.819,0.997l-0.795,1.042l-0.683,0.93l-0.672,0.895l-0.561,0.672l-0.325,0.078l-0.279,0.057l-0.348,0.034
								h-0.336h-0.336l-0.292-0.021l-0.369-0.013l-0.325-0.034l-6.177-18.646l-0.136-0.269l-0.211-0.258l-0.302-0.214L564,121.341
								l-0.391-0.167l-0.403-0.135l-0.381-0.091l-0.37-0.009l-15.576,0.475l-1.872,4.928l-0.011-0.065L544.257,126.477z
								 M656.188,126.996l0.021-0.05l0.256,0.245L656.188,126.996z"></path>
						</g>
					</g>
				</g>
			</g>
		</g>
		<polygon fill-rule="evenodd" clip-rule="evenodd" points="653.834,128.367 654.236,128.278 654.596,128.211 654.921,128.132 
			655.258,128.02 655.57,127.864 655.896,127.672 656.151,127.461 656.466,127.191 655.931,126.676 655.693,126.934 
			655.447,127.113 655.211,127.258 654.954,127.359 654.707,127.427 654.417,127.515 654.104,127.561 653.756,127.595 
			653.834,128.367 653.834,128.367 		"></polygon>
		<polygon fill-rule="evenodd" clip-rule="evenodd" points="586.574,133.362 653.834,128.367 653.756,127.595 586.487,132.622 
			586.574,133.362 586.574,133.362 		"></polygon>
		<polygon fill-rule="evenodd" clip-rule="evenodd" points="579.979,134.557 580.37,134.39 580.752,134.256 581.21,134.109 
			581.591,133.975 582.005,133.852 582.396,133.797 582.789,133.741 583.226,133.663 583.585,133.594 583.999,133.584 
			584.426,133.539 584.851,133.495 585.275,133.45 585.656,133.429 586.116,133.394 586.574,133.362 586.487,132.622 
			586.06,132.666 585.635,132.711 585.187,132.711 584.761,132.755 584.347,132.767 583.944,132.857 583.529,132.868 
			583.068,132.901 582.666,132.991 582.262,133.079 581.827,133.158 581.378,133.271 580.998,133.403 580.54,133.55 580.08,133.694 
			579.678,133.896 579.979,134.557 579.979,134.557 579.979,134.557 		"></polygon>
		<polygon fill-rule="evenodd" clip-rule="evenodd" points="573.952,141.21 574.098,141.109 574.401,140.763 574.67,140.404 
			574.993,139.99 575.33,139.541 575.712,139.072 576.059,138.588 576.451,138.084 576.842,137.581 577.246,137.043 577.66,136.584 
			578.063,136.158 578.478,135.7 578.825,135.33 579.264,135.028 579.619,134.736 579.979,134.557 579.678,133.896 579.218,134.154 
			578.825,134.434 578.366,134.803 577.93,135.217 577.526,135.644 577.123,136.069 576.676,136.628 576.283,137.133 
			575.89,137.636 575.498,138.141 575.151,138.622 574.77,139.092 574.435,139.541 574.108,139.956 573.841,140.315 
			573.594,140.606 573.729,140.538 573.952,141.21 573.952,141.21 573.952,141.21 		"></polygon>
		<polygon fill="none" points="646.624,121.665 646.771,121.34 647.038,121.093 647.441,120.891 647.912,120.824 648.168,120.836 
			648.461,120.858 648.74,120.914 649.02,120.97 649.356,121.082 649.659,121.183 649.984,121.329 650.331,121.52 650.621,121.654 
			650.925,121.867 651.192,122.069 651.484,122.315 651.787,122.528 651.999,122.787 652.257,123.022 652.47,123.28 
			652.861,123.785 653.062,124.3 653.163,124.558 653.219,124.726 653.188,125.162 653.106,125.509 652.86,125.801 652.501,125.979 
			652.021,126.08 651.752,126.104 651.472,126.046 651.148,126.014 650.801,125.935 650.497,125.833 650.162,125.721 
			649.804,125.566 649.49,125.384 649.165,125.239 648.816,125.049 648.514,124.837 648.225,124.589 647.956,124.388 
			647.677,124.107 647.43,123.837 647.217,123.581 646.871,123.054 646.669,122.539 646.613,122.37 646.558,122.09 		"></polygon>
		<polygon fill-rule="evenodd" clip-rule="evenodd" fill="#FFFFFF" points="561.066,120.961 562.455,120.938 562.568,120.938 
			550.643,116.957 550.038,117.315 561.056,120.994 561.056,120.994 561.066,120.961 		"></polygon>
		<polygon fill-rule="evenodd" clip-rule="evenodd" fill="#FFFFFF" points="561.066,120.961 546.879,121.413 546.822,121.134 
			546.744,120.808 546.655,120.519 546.544,120.181 546.487,119.901 546.487,119.677 546.576,119.409 546.823,119.229 
			547.405,118.827 548.055,118.445 548.704,118.064 549.354,117.684 549.971,117.292 550.038,117.315 561.056,120.994 
			561.056,120.994 561.066,120.961 		"></polygon>
		<polygon fill="#FFFFFF" points="552.442,129.584 562.107,129.039 565.892,130.564 567.224,134.52 567.627,135.887 
			566.026,135.986 564.458,135.986 563.012,135.952 561.691,135.884 560.405,135.715 559.207,135.503 558.107,135.211 
			557.01,134.919 555.98,134.538 554.983,134.166 554.043,133.741 553.112,133.28 552.15,132.81 551.233,132.318 550.315,131.823 
			549.363,131.318 549.273,130.916 549.207,130.557 549.117,130.155 549.061,129.761 		"></polygon>
		<polygon fill-rule="evenodd" clip-rule="evenodd" fill="#FFFFFF" points="576.788,130.69 576.924,130.848 578.166,131.599 
			578.568,130.949 577.324,130.199 577.447,130.389 576.788,130.69 576.833,130.78 576.924,130.848 576.788,130.69 576.788,130.69 
					"></polygon>
		<polygon fill-rule="evenodd" clip-rule="evenodd" fill="#FFFFFF" points="565.734,130.922 565.521,130.664 567.29,135.998 
			567.996,135.786 566.229,130.451 566.038,130.239 566.229,130.451 566.173,130.284 566.038,130.239 565.734,130.922 
			565.734,130.922 565.734,130.922 		"></polygon>
		<polygon fill-rule="evenodd" clip-rule="evenodd" fill="#FFFFFF" points="562.142,129.387 561.962,129.365 565.734,130.922 
			566.038,130.239 562.266,128.68 562.118,128.669 562.266,128.68 562.197,128.658 562.118,128.669 562.142,129.387 
			562.142,129.387 562.142,129.387 		"></polygon>
		<polygon fill-rule="evenodd" clip-rule="evenodd" fill="#FFFFFF" points="549.441,129.74 549.083,130.143 562.142,129.387 
			562.118,128.669 549.062,129.425 548.714,129.794 549.062,129.425 548.646,129.436 548.714,129.794 549.441,129.74 
			549.441,129.74 		"></polygon>
		<polygon fill-rule="evenodd" clip-rule="evenodd" fill="#FFFFFF" points="549.542,131.006 549.688,131.242 549.677,131.051 
			549.631,130.848 549.62,130.658 549.564,130.49 549.554,130.3 549.508,130.098 549.452,129.929 549.441,129.74 548.714,129.794 
			548.713,130.02 548.746,130.255 548.803,130.422 548.813,130.613 548.87,130.78 548.914,130.983 548.994,131.195 549.004,131.387 
			549.184,131.632 549.004,131.387 549.061,131.555 549.184,131.632 549.542,131.006 549.542,131.006 		"></polygon>
		<polygon fill-rule="evenodd" clip-rule="evenodd" fill="#FFFFFF" points="567.303,135.964 567.604,135.505 566.003,135.605 
			564.458,135.65 563.059,135.593 561.702,135.514 560.493,135.334 559.283,135.155 558.187,134.863 557.123,134.582 
			556.093,134.201 555.141,133.808 554.188,133.416 553.26,132.957 552.33,132.497 551.412,132.004 550.493,131.509 
			549.542,131.006 549.184,131.632 550.135,132.137 551.053,132.631 551.994,133.168 552.924,133.629 553.897,134.065 
			554.838,134.491 555.855,134.907 556.888,135.288 558.019,135.591 559.127,135.849 560.357,136.073 561.647,136.243 
			562.99,136.355 564.48,136.366 566.025,136.323 567.692,136.245 567.996,135.786 567.692,136.245 568.154,136.211 
			567.996,135.786 567.29,135.998 567.29,135.998 567.303,135.964 		"></polygon>
		<g>
			<polygon fill="none" points="574.058,140.699 574.333,140.964 574.058,140.699 			"></polygon>
			<polygon fill="none" points="571.578,140.606 571.515,140.609 571.515,140.609 			"></polygon>
			<polygon fill="none" points="565.499,122.478 575.3,125.75 565.499,122.478 			"></polygon>
		</g>
		<polygon fill-rule="evenodd" clip-rule="evenodd" fill="#FFFFFF" points="586.487,132.622 585.994,132.644 585.443,132.722 
			584.952,132.744 584.414,132.789 583.898,132.879 583.35,132.957 582.802,133.035 582.274,133.158 581.746,133.28 581.29,133.427 
			580.786,133.594 580.314,133.773 579.912,133.975 579.43,134.188 579.039,134.468 578.68,134.759 579.128,135.319 
			579.474,135.062 579.811,134.837 580.181,134.625 580.604,134.468 581.021,134.232 581.468,134.121 581.994,134 582.455,133.852 
			582.958,133.797 583.406,133.686 583.944,133.641 584.459,133.551 585.007,133.472 585.545,133.428 586.049,133.374 
			586.574,133.362 586.487,132.622 586.487,132.622 586.487,132.622 		"></polygon>
		<polygon fill-rule="evenodd" clip-rule="evenodd" fill="#FFFFFF" points="653.756,127.595 586.487,132.622 586.574,133.362 
			653.834,128.367 653.756,127.595 653.756,127.595 		"></polygon>
		<polygon fill-rule="evenodd" clip-rule="evenodd" fill="#FFFFFF" points="655.011,123.493 655.291,123.885 655.582,124.245 
			655.717,124.625 655.93,124.996 656.041,125.333 656.074,125.679 656.086,125.982 656.063,126.271 655.984,126.508 
			655.872,126.732 655.728,126.945 655.469,127.157 655.2,127.293 654.774,127.448 654.328,127.561 653.756,127.595 
			653.834,128.367 654.451,128.312 654.987,128.154 655.458,127.976 655.872,127.74 656.253,127.494 656.521,127.136 
			656.667,126.81 656.802,126.408 656.79,125.992 656.814,125.59 656.725,125.186 656.578,124.728 656.409,124.335 656.186,123.885 
			655.896,123.417 655.604,123.057 655.011,123.493 655.011,123.493 		"></polygon>
		<polygon fill-rule="evenodd" clip-rule="evenodd" fill="#FFFFFF" points="646.993,119.66 647.599,119.638 648.215,119.694 
			648.841,119.829 649.446,119.918 650.018,120.108 650.588,120.299 651.137,120.557 651.651,120.805 652.189,121.095 
			652.683,121.409 653.209,121.733 653.591,122.048 653.99,122.405 654.385,122.799 654.709,123.168 655.011,123.493 
			655.604,123.057 655.258,122.642 654.865,122.25 654.474,121.857 654.037,121.487 653.556,121.142 653.074,120.793 
			652.583,120.478 652.022,120.142 651.441,119.874 650.846,119.638 650.24,119.436 649.604,119.223 648.977,119.088 
			648.338,118.987 647.608,118.931 646.97,118.941 646.993,119.66 646.993,119.66 		"></polygon>
		<polygon fill-rule="evenodd" clip-rule="evenodd" fill="#FFFFFF" points="587.473,121.709 646.993,119.66 646.97,118.941 
			587.484,121.003 587.473,121.709 587.473,121.709 		"></polygon>
		<polygon fill-rule="evenodd" clip-rule="evenodd" fill="#FFFFFF" points="578.076,120.215 578.638,120.441 579.231,120.563 
			579.803,120.753 580.396,120.876 581.021,121.013 581.604,121.17 582.244,121.27 582.814,121.349 583.409,121.474 
			584.023,121.529 584.628,121.618 585.223,121.63 585.794,121.708 586.398,121.687 586.946,121.72 587.473,121.709 
			587.484,121.003 586.924,121.003 586.376,120.97 585.86,120.947 585.278,120.902 584.696,120.857 584.114,120.811 
			583.544,120.733 582.938,120.644 582.346,120.52 581.774,120.441 581.191,120.284 580.586,120.194 580.004,120.037 
			579.388,119.869 578.873,119.734 578.301,119.544 578.067,120.25 578.067,120.25 578.076,120.215 		"></polygon>
		<polygon fill-rule="evenodd" clip-rule="evenodd" fill="#FFFFFF" points="558,114.708 559.02,114.561 559.98,114.472 
			560.9,114.405 561.741,114.349 562.536,114.316 563.253,114.406 563.992,114.429 564.607,114.485 565.246,114.587 565.84,114.711 
			566.398,114.822 566.904,114.99 567.44,115.17 567.865,115.35 568.392,115.562 568.807,115.775 569.288,116.011 569.771,116.247 
			570.24,116.516 570.711,116.784 571.181,117.054 571.673,117.368 572.156,117.604 572.681,117.928 573.264,118.197 
			573.823,118.534 574.45,118.779 575.055,119.093 575.737,119.397 576.477,119.644 577.261,119.979 578.067,120.25 
			578.301,119.544 577.496,119.274 576.7,118.971 576.039,118.714 575.347,118.444 574.708,118.119 574.159,117.861 
			573.599,117.524 573.051,117.267 572.512,116.976 572.009,116.695 571.538,116.428 571.047,116.112 570.576,115.843 
			570.094,115.609 569.612,115.372 569.176,115.114 568.694,114.88 568.169,114.665 567.675,114.464 567.138,114.285 
			566.566,114.093 565.974,113.971 565.369,113.88 564.707,113.735 564.025,113.656 563.319,113.644 562.501,113.633 
			561.719,113.632 560.811,113.666 559.893,113.733 558.919,113.855 557.91,113.968 557.967,114.695 557.967,114.695 558,114.708 		
			"></polygon>
		<polygon fill-rule="evenodd" clip-rule="evenodd" fill="#FFFFFF" points="547.013,119.554 547.596,119.15 548.245,118.771 
			548.896,118.39 549.556,117.976 550.16,117.617 550.843,117.248 551.482,116.901 552.143,116.599 552.849,116.273 
			553.555,115.949 554.248,115.658 554.965,115.411 555.739,115.222 556.442,115.008 557.216,114.818 557.967,114.695 
			557.91,113.968 557.07,114.136 556.276,114.28 555.491,114.503 554.752,114.706 554.014,115.02 553.252,115.288 552.558,115.579 
			551.85,115.904 551.136,116.261 550.452,116.63 549.813,116.978 549.164,117.358 548.513,117.739 547.864,118.119 
			547.249,118.513 546.633,118.904 546.979,119.542 546.979,119.542 547.013,119.554 		"></polygon>
		<polygon fill-rule="evenodd" clip-rule="evenodd" fill="#FFFFFF" points="546.879,121.078 547.259,121.392 547.148,121.056 
			547.08,120.697 546.991,120.406 546.912,120.08 546.868,119.879 546.835,119.756 546.89,119.588 546.979,119.542 546.633,118.904 
			546.308,119.207 546.139,119.599 546.095,119.958 546.207,120.293 546.286,120.618 546.374,120.91 546.464,121.201 
			546.52,121.481 546.868,121.782 546.52,121.481 546.53,121.782 546.868,121.782 546.879,121.078 546.879,121.078 		"></polygon>
		<g>
			<polygon fill="none" points="574.358,123.755 574.362,123.757 574.27,124.136 			"></polygon>
			<polygon fill="#FFFFFF" points="574.371,123.722 574.362,123.757 574.358,123.755 			"></polygon>
			<polygon fill="#FFFFFF" points="574.202,123.889 574.358,123.755 574.27,124.136 			"></polygon>
			<g>
				<polygon fill="none" points="646.771,121.34 647.038,121.093 647.441,120.891 647.912,120.824 648.168,120.836 648.461,120.858 
					648.74,120.914 649.02,120.97 649.356,121.082 649.659,121.183 649.984,121.329 650.331,121.52 650.621,121.654 
					650.925,121.867 651.192,122.069 651.484,122.315 651.787,122.528 651.999,122.787 652.257,123.022 652.47,123.28 
					652.861,123.785 653.062,124.3 653.163,124.558 653.219,124.726 653.188,125.162 653.106,125.509 652.86,125.801 
					652.501,125.979 652.021,126.08 651.752,126.104 651.472,126.046 651.148,126.014 650.801,125.935 650.497,125.833 
					650.162,125.721 649.804,125.566 649.49,125.384 649.165,125.239 648.816,125.049 648.514,124.837 648.225,124.589 
					647.956,124.388 647.677,124.107 647.43,123.837 647.217,123.581 646.871,123.054 646.669,122.539 646.613,122.37 
					646.558,122.09 646.624,121.665 				"></polygon>
				<polygon fill="none" points="581.938,123.705 581.938,123.705 581.604,123.859 				"></polygon>
				<polygon fill="none" points="584.358,129.82 584.597,130.01 584.616,130.055 583.978,130.85 578.354,131.251 577.135,130.547 
					577.131,130.534 577.447,130.389 575.057,124.087 575.454,123.692 580.563,123.399 581.648,123.962 584.303,130.213 				"></polygon>
				<polygon fill="none" points="565.174,121.808 565.174,121.808 574.582,124.949 				"></polygon>
				<g>
					<polygon fill="none" points="646.771,121.34 647.038,121.093 647.441,120.891 647.912,120.824 648.168,120.836 
						648.461,120.858 648.74,120.914 649.02,120.97 649.356,121.082 649.659,121.183 649.984,121.329 650.331,121.52 
						650.621,121.654 650.925,121.867 651.192,122.069 651.484,122.315 651.787,122.528 651.999,122.787 652.257,123.022 
						652.47,123.28 652.861,123.785 653.062,124.3 653.163,124.558 653.219,124.726 653.188,125.162 653.106,125.509 
						652.86,125.801 652.501,125.979 652.021,126.08 651.752,126.104 651.472,126.046 651.148,126.014 650.801,125.935 
						650.497,125.833 650.162,125.721 649.804,125.566 649.49,125.384 649.165,125.239 648.816,125.049 648.514,124.837 
						648.225,124.589 647.956,124.388 647.677,124.107 647.43,123.837 647.217,123.581 646.871,123.054 646.669,122.539 
						646.613,122.37 646.558,122.09 646.624,121.665 					"></polygon>
					<polygon fill="none" points="580.563,123.399 581.648,123.962 584.303,130.213 584.358,129.82 584.597,130.01 584.616,130.055 
						583.978,130.85 578.354,131.251 577.135,130.547 577.131,130.534 577.447,130.389 575.057,124.087 575.454,123.692 					"></polygon>
					<polygon fill="none" points="565.174,121.808 565.174,121.808 574.582,124.949 					"></polygon>
					<g>
						<polygon fill="none" points="646.771,121.34 647.038,121.093 647.441,120.891 647.912,120.824 648.168,120.836 
							648.461,120.858 648.74,120.914 649.02,120.97 649.356,121.082 649.659,121.183 649.984,121.329 650.331,121.52 
							650.621,121.654 650.925,121.867 651.192,122.069 651.484,122.315 651.787,122.528 651.999,122.787 652.257,123.022 
							652.47,123.28 652.861,123.785 653.062,124.3 653.163,124.558 653.219,124.726 653.188,125.162 653.106,125.509 
							652.86,125.801 652.501,125.979 652.021,126.08 651.752,126.104 651.472,126.046 651.148,126.014 650.801,125.935 
							650.497,125.833 650.162,125.721 649.804,125.566 649.49,125.384 649.165,125.239 648.816,125.049 648.514,124.837 
							648.225,124.589 647.956,124.388 647.677,124.107 647.43,123.837 647.217,123.581 646.871,123.054 646.669,122.539 
							646.613,122.37 646.558,122.09 646.624,121.665 						"></polygon>
						<polygon fill="none" points="580.563,123.399 581.648,123.962 584.303,130.213 584.358,129.82 584.597,130.01 
							584.616,130.055 583.984,130.842 583.944,130.503 578.322,130.904 578.568,130.949 578.381,131.249 578.354,131.251 
							577.135,130.547 577.131,130.534 577.447,130.389 575.057,124.087 575.454,123.692 						"></polygon>
						<polygon fill="none" points="565.174,121.808 565.174,121.808 574.582,124.949 						"></polygon>
						<g>
							<polygon fill="none" points="584.501,128.822 595.153,132.377 584.501,128.822 							"></polygon>
							<polygon fill="none" points="584.224,128.169 596.497,132.267 584.224,128.169 							"></polygon>
							<polygon fill="none" points="646.771,121.34 647.038,121.093 647.441,120.891 647.912,120.824 648.168,120.836 
								648.461,120.858 648.74,120.914 649.02,120.97 649.356,121.082 649.659,121.183 649.984,121.329 650.331,121.52 
								650.621,121.654 650.925,121.867 651.192,122.069 651.484,122.315 651.787,122.528 651.999,122.787 652.257,123.022 
								652.47,123.28 652.861,123.785 653.062,124.3 653.163,124.558 653.219,124.726 653.188,125.162 653.106,125.509 
								652.86,125.801 652.501,125.979 652.021,126.08 651.752,126.104 651.472,126.046 651.148,126.014 650.801,125.935 
								650.497,125.833 650.162,125.721 649.804,125.566 649.49,125.384 649.165,125.239 648.816,125.049 648.514,124.837 
								648.225,124.589 647.956,124.388 647.677,124.107 647.43,123.837 647.217,123.581 646.871,123.054 646.669,122.539 
								646.613,122.37 646.558,122.09 646.624,121.665 							"></polygon>
							<polygon fill="none" points="580.563,123.399 581.648,123.962 584.303,130.213 584.358,129.82 584.597,130.01 
								584.616,130.055 583.984,130.842 583.978,130.85 578.381,131.249 578.354,131.251 577.135,130.547 577.131,130.534 
								577.447,130.389 575.057,124.087 575.454,123.692 							"></polygon>
							<polygon fill="none" points="565.174,121.808 565.174,121.808 574.582,124.949 							"></polygon>
							<polygon fill="#FFFFFF" points="584.224,128.169 596.497,132.267 595.165,132.346 595.153,132.377 584.501,128.822 							
								"></polygon>
							<g>
								<polygon fill="none" points="646.771,121.34 647.038,121.093 647.441,120.891 647.912,120.824 648.168,120.836 
									648.461,120.858 648.74,120.914 649.02,120.97 649.356,121.082 649.659,121.183 649.984,121.329 650.331,121.52 
									650.621,121.654 650.925,121.867 651.192,122.069 651.484,122.315 651.787,122.528 651.999,122.787 652.257,123.022 
									652.47,123.28 652.861,123.785 653.062,124.3 653.163,124.558 653.219,124.726 653.188,125.162 653.106,125.509 
									652.86,125.801 652.501,125.979 652.021,126.08 651.752,126.104 651.472,126.046 651.148,126.014 650.801,125.935 
									650.497,125.833 650.162,125.721 649.804,125.566 649.49,125.384 649.165,125.239 648.816,125.049 648.514,124.837 
									648.225,124.589 647.956,124.388 647.677,124.107 647.43,123.837 647.217,123.581 646.871,123.054 646.669,122.539 
									646.613,122.37 646.558,122.09 646.624,121.665 								"></polygon>
								<polygon fill="none" points="580.563,123.399 581.648,123.962 584.213,130.003 583.814,130.512 578.322,130.904 
									578.568,130.949 578.381,131.249 578.354,131.251 577.135,130.547 577.131,130.534 577.447,130.389 575.057,124.087 
									575.454,123.692 								"></polygon>
								<polygon fill="none" points="584.358,129.82 584.597,130.01 584.597,130.01 								"></polygon>
								<polygon fill="none" points="565.174,121.808 565.174,121.808 574.582,124.949 								"></polygon>
								<path fill="#FFFFFF" d="M546.868,121.782l15.587-0.508l0.326,0.033l0.302,0.101l0.403,0.135l0.37,0.124l0.335,0.225
									l0.248,0.158l0.144,0.234l0.112,0.112l6.2,18.689l0.09,0.292l0.302-0.011l0.314-0.044l0.357,0.044l0.438,0.034l0.414-0.01
									l0.403,0.022l0.37-0.102l0.414-0.122l0.335-0.223l0.403-0.426l0.337-0.447l0.312-0.381l0.313-0.38l0.27-0.359l0.259-0.325
									l0.224-0.337l0.268-0.358l0.224-0.336l0.259-0.324l0.258-0.325l0.279-0.28l0.292-0.313l0.336-0.336l0.336-0.336l0.426-0.38
									l-0.227-0.285l0.338-0.275l0.38-0.247l0.438-0.19l0.403-0.201l0.436-0.189l0.492-0.135l0.506-0.168l0.492-0.134l0.471-0.067
									l0.515-0.088l0.548-0.08l0.516-0.089l0.538-0.045l0.538-0.043l0.504-0.057l0.493-0.022l8.645-0.625l-10.652-3.556
									l-0.277-0.653l0,0l12.273,4.098l57.316-4.282l1.063-0.168l0.794-0.368l0.549-0.527l0.201-0.605l0.001-0.672l0.011-0.034
									l-0.19-0.774l-0.379-0.761l-0.552-0.819l-0.323-0.369l-0.357-0.381l-0.393-0.392l-0.413-0.325l-0.438-0.369l-0.492-0.316
									l-0.526-0.325l-0.526-0.325l-0.561-0.225l-0.55-0.259l-0.604-0.201l-0.636-0.213l-0.604-0.09l-0.63-0.135l-0.649-0.066
									l-0.639,0.01l-8.654,0.323l-50.831,1.738h-0.561l-0.525,0.012l-0.594-0.013l-0.57-0.079l-0.583-0.044l-0.583-0.046
									l-0.57-0.078l-0.605-0.091l-0.604-0.088l-0.595-0.124l-0.594-0.124l-0.592-0.123l-0.616-0.169l-0.582-0.157l-0.549-0.145
									l-0.572-0.19l-0.806-0.271l-0.794-0.302l-0.695-0.27l-0.692-0.267l-0.606-0.316l-0.583-0.269l-0.604-0.314l-0.549-0.258
									l-0.525-0.323l-0.47-0.271l-0.504-0.28l-0.471-0.269l-0.504-0.281l-0.47-0.27l-0.449-0.224l-0.47-0.27l-0.481-0.235
									l-0.493-0.203l-0.471-0.156l-0.537-0.179l-0.572-0.191l-0.546-0.146l-0.605-0.089l-0.639-0.101l-0.648-0.067l-0.729-0.056
									l-0.773-0.035l-0.794,0.034l-0.83,0.021l-0.927,0.101l-0.964,0.09l-1.052,0.133l-0.785,0.112l-0.771,0.189l-0.773,0.19
									l-0.719,0.246l-0.759,0.27l-0.729,0.28l-0.693,0.291l-0.707,0.323l-0.671,0.338l-0.684,0.37l10.875,3.632l-14.639,0.489
									L546.868,121.782z M646.558,122.09l0.066-0.425l0.146-0.325l0.268-0.247l0.403-0.202l0.471-0.067l0.256,0.013l0.293,0.021
									l0.279,0.056l0.279,0.057l0.337,0.112l0.303,0.101l0.325,0.146l0.347,0.191l0.29,0.135l0.304,0.213l0.268,0.202l0.292,0.247
									l0.303,0.213l0.212,0.258l0.258,0.235l0.213,0.258l0.392,0.505l0.201,0.515l0.101,0.258l0.056,0.167l-0.031,0.437
									l-0.081,0.347l-0.246,0.292l-0.359,0.178l-0.48,0.101l-0.269,0.024l-0.28-0.058l-0.323-0.033l-0.348-0.079l-0.304-0.102
									l-0.335-0.112l-0.358-0.155l-0.313-0.182l-0.325-0.145l-0.349-0.19l-0.303-0.212l-0.289-0.248l-0.269-0.201l-0.279-0.281
									l-0.247-0.27l-0.213-0.257l-0.346-0.526l-0.202-0.516l-0.056-0.168L646.558,122.09z M584.597,130.01L584.597,130.01
									l-0.238-0.19L584.597,130.01z M575.057,124.087l0.397-0.396l5.109-0.293l1.085,0.563l2.564,6.042l-0.398,0.509l-5.492,0.392
									l0.246,0.045l-0.188,0.299l-0.026,0.003l-1.22-0.705l-0.004-0.013l0.316-0.145L575.057,124.087z"></path>
							</g>
						</g>
					</g>
				</g>
			</g>
		</g>
		<polygon fill-rule="evenodd" clip-rule="evenodd" points="643.096,125.976 642.782,125.798 642.725,125.517 643.174,125.404 
			643.263,125.697 642.994,125.495 643.096,125.976 643.096,125.976 		"></polygon>
		<polygon fill-rule="evenodd" clip-rule="evenodd" points="643.701,125.619 643.633,125.708 643.521,125.819 643.386,125.886 
			643.253,125.955 643.096,125.976 642.994,125.495 643.062,125.517 643.162,125.438 643.286,125.404 643.297,125.371 
			643.274,125.438 643.688,125.652 643.688,125.652 643.701,125.619 		"></polygon>
		<polygon fill-rule="evenodd" clip-rule="evenodd" points="642.437,122.805 642.469,122.816 642.683,123.075 642.962,123.354 
			643.229,123.668 643.487,124.015 643.699,124.385 643.823,124.8 643.824,125.248 643.688,125.652 643.274,125.438 
			643.365,125.169 643.343,124.901 643.263,124.576 643.062,124.286 642.84,123.949 642.594,123.68 642.312,123.399 
			642.099,123.143 642.132,123.154 642.437,122.805 642.437,122.805 		"></polygon>
		<polygon fill-rule="evenodd" clip-rule="evenodd" points="638.315,121.617 638.28,121.604 638.874,121.617 639.435,121.617 
			639.96,121.717 640.465,121.773 640.979,121.909 641.46,122.145 641.964,122.424 642.437,122.805 642.132,123.154 641.675,122.85 
			641.236,122.592 640.823,122.38 640.374,122.266 639.882,122.176 639.378,122.121 638.863,122.099 638.336,122.109 
			638.348,122.075 638.269,121.639 638.269,121.639 638.315,121.617 		"></polygon>
		<polygon fill-rule="evenodd" clip-rule="evenodd" points="594.617,123.908 594.808,123.785 638.269,121.639 638.348,122.075 
			594.874,124.254 595.065,124.133 594.617,123.908 594.617,123.908 		"></polygon>
		<polygon fill-rule="evenodd" clip-rule="evenodd" points="593.585,125.432 593.116,125.274 593.149,124.949 593.239,124.682 
			593.374,124.391 593.553,124.188 593.789,124.042 594.091,123.92 594.427,123.807 594.808,123.785 594.874,124.254 
			594.517,124.322 594.192,124.4 594.034,124.422 593.878,124.556 593.801,124.682 593.677,124.827 593.61,125.028 593.619,125.33 
			593.149,125.173 593.585,125.432 593.585,125.432 		"></polygon>
		<g>
			<polygon fill="none" points="594.81,123.798 594.874,124.254 594.81,123.798 			"></polygon>
			<g>
				<polygon fill="none" points="593.619,125.33 593.677,125.051 593.81,124.759 593.923,124.535 594.158,124.391 594.438,124.332 
					594.83,124.276 594.874,124.254 638.348,122.075 639.075,122.132 639.682,122.109 640.253,122.188 640.777,122.29 
					641.261,122.524 641.696,122.781 642.099,123.143 642.56,123.668 642.962,124.14 643.253,124.609 643.398,124.957 
					643.398,125.181 643.297,125.371 643.017,125.541 642.491,125.662 641.752,125.751 597.08,128.055 597.046,128.043 
					596.42,128.021 595.804,127.852 595.254,127.595 594.783,127.325 594.394,126.933 594.113,126.541 593.866,126.161 
					593.677,125.835 593.642,125.6 				"></polygon>
				<g>
					<path fill="none" d="M593.677,125.051l-0.058,0.279l0.022,0.271l0.035,0.235l0.189,0.325l0.247,0.38l0.28,0.392l0.39,0.393
						l0.471,0.27l0.55,0.257l0.616,0.169l0.626,0.023l0.034,0.011l44.672-2.303l0.739-0.089l0.525-0.122l0.28-0.169l0.102-0.19
						v-0.224l-0.146-0.348l-0.291-0.47l-0.402-0.471l-0.461-0.525l-0.402-0.362l-0.436-0.257l-0.483-0.234l-0.524-0.102
						l-0.571-0.079l-0.606,0.022l-0.728-0.057l-43.474,2.179l-0.044,0.022l-0.392,0.056l-0.28,0.059l-0.235,0.144l-0.113,0.224
						L593.677,125.051z M594.293,124.771l43.473-2.18l0.021-0.068l0.585,0.045l0.56,0.001l0.526,0.1l0.503,0.056l0.517,0.136
						l0.479,0.234l0.47,0.27l0.504,0.391l0.191,0.214l0.168,0.167l0.156,0.202l0.136,0.156l0.19,0.213l0.146,0.236l0.122,0.189
						l0.123,0.191l0.012,0.078l-0.449,0.113l0.013,0.078l-0.112-0.225l-0.122-0.189l-0.169-0.167l-0.124-0.191l-0.132-0.156
						l-0.159-0.203l-0.167-0.168l-0.199-0.179l0.013-0.015l-0.397-0.298l-0.426-0.293l-0.424-0.178l-0.447-0.113l-0.493-0.09
						l-0.505-0.056l-0.549-0.034l-0.525,0.012l-43.461,2.145L594.293,124.771z"></path>
					<g>
						<path fill="none" d="M593.677,125.051l-0.058,0.279l0.022,0.271l0.035,0.235l0.189,0.325l0.247,0.38l0.28,0.392l0.39,0.393
							l0.471,0.27l0.55,0.257l0.616,0.169l0.626,0.023l0.034,0.011l44.672-2.303l0.739-0.089l0.525-0.122l0.28-0.169l0.102-0.19
							v-0.224l-0.146-0.348l-0.291-0.47l-0.402-0.471l-0.461-0.525l-0.402-0.362l-0.436-0.257l-0.483-0.234l-0.524-0.102
							l-0.571-0.079l-0.606,0.022l-0.728-0.057l-43.474,2.179l-0.044,0.022l-0.392,0.056l-0.28,0.059l-0.235,0.144l-0.113,0.224
							L593.677,125.051z"></path>
						<g>
							<polygon fill="none" points="593.81,124.759 593.923,124.535 594.158,124.391 594.438,124.332 594.695,124.297 
								594.338,124.972 637.811,122.792 638.369,122.793 638.886,122.816 639.412,122.917 639.915,122.973 640.397,123.096 
								640.856,123.287 641.314,123.59 641.764,123.925 641.921,124.127 642.088,124.295 642.245,124.497 642.412,124.666 
								642.535,124.856 642.693,125.058 642.816,125.248 642.962,125.482 642.979,125.549 642.491,125.662 641.752,125.751 
								597.08,128.055 597.046,128.043 596.42,128.021 595.804,127.852 595.254,127.595 594.783,127.325 594.394,126.933 
								594.113,126.541 593.866,126.161 593.677,125.835 593.642,125.6 593.619,125.33 593.677,125.051 							"></polygon>
							<polygon points="642.816,125.248 642.693,125.058 642.535,124.856 642.412,124.666 642.245,124.497 642.088,124.295 
								641.921,124.127 641.764,123.925 641.314,123.59 640.856,123.287 640.397,123.096 639.915,122.973 639.412,122.917 
								638.886,122.816 638.369,122.793 637.811,122.792 594.338,124.972 594.695,124.297 594.83,124.276 594.874,124.254 
								638.348,122.075 639.075,122.132 639.682,122.109 640.253,122.188 640.777,122.29 641.261,122.524 641.696,122.781 
								642.099,123.143 642.56,123.668 642.962,124.14 643.253,124.609 643.398,124.957 643.398,125.181 643.297,125.371 
								643.017,125.541 642.979,125.549 642.962,125.482 							"></polygon>
							<g>
								<polygon fill="none" points="593.697,125.005 593.732,124.995 593.956,124.995 594.338,124.972 594.699,124.295 
									594.83,124.276 594.874,124.254 638.348,122.075 639.075,122.132 639.682,122.109 640.253,122.188 640.777,122.29 
									641.261,122.524 641.696,122.781 642.099,123.143 642.56,123.668 642.962,124.14 643.253,124.609 643.398,124.957 
									643.398,125.181 643.297,125.371 643.017,125.541 642.979,125.549 642.491,125.662 641.752,125.751 597.08,128.055 
									597.046,128.043 596.42,128.021 595.804,127.852 595.254,127.595 594.783,127.325 594.394,126.933 594.113,126.541 
									593.866,126.161 593.677,125.835 593.642,125.6 593.619,125.33 593.677,125.051 								"></polygon>
								<path d="M593.116,125.274l0.047,0.425l0.089,0.292l0.122,0.414l0.291,0.47l0.358,0.381l0.459,0.415l0.549,0.37l0.615,0.281
									l0.648,0.178l0.785,0.001l44.66-2.267l0.851-0.09l0.604-0.135l0.438-0.302l0.246-0.403l-0.011-0.415l-0.169-0.505
									l-0.324-0.481l-0.446-0.562l-0.46-0.526l-0.494-0.426l-0.523-0.323l-0.517-0.248l-0.561-0.112l-0.672-0.112h-0.671
									l-0.763,0.044l-43.461,2.146l0.002,0.013l-0.461,0.021l-0.471,0.178l-0.312,0.27l-0.214,0.303l-0.146,0.324L593.116,125.274
									z M593.619,125.33l0.058-0.279l0.021-0.046l0.035-0.01h0.224l0.382-0.023l0.361-0.677l0.131-0.019l0.044-0.022l43.474-2.179
									l0.728,0.057l0.606-0.022l0.571,0.079l0.524,0.102l0.483,0.234l0.436,0.257l0.402,0.362l0.461,0.525l0.402,0.471l0.291,0.47
									l0.146,0.348v0.224l-0.102,0.19l-0.28,0.169l-0.038,0.009l-0.487,0.113l-0.739,0.089l-44.672,2.303l-0.034-0.011
									l-0.626-0.023l-0.616-0.169l-0.55-0.257l-0.471-0.27l-0.39-0.393l-0.28-0.392l-0.247-0.38l-0.189-0.325l-0.035-0.235
									L593.619,125.33z"></path>
							</g>
						</g>
					</g>
				</g>
			</g>
		</g>
	</g>
</g>
</svg>