<svg version="1.1" xmlns="http://www.w3.org/2000/svg" xmlns:xlink="http://www.w3.org/1999/xlink" x="0px" y="0px" width="375" height="975" viewBox="0 0 375 975" enable-background="new 0 0 90 234" xml:space="preserve">
<g id="Guidelines">
	<polygon fill="#929497" points="0.038,0.002 0.038,234.001 90.038,234.001 90.038,0.002 0.038,0.002 	"></polygon>
	<path fill="#FFFFFF" stroke="#EB242B" stroke-width="0.5" d="M81.019,45.001c0-0.013-0.001-0.026-0.001-0.039l0.039,0.039
		c0-19.267-15.137-34.998-34.168-35.952c-0.293-0.015-0.59-0.016-0.885-0.023c-0.304-0.008-0.604-0.023-0.909-0.024l0.001,0.001
		c-0.026,0-0.051-0.002-0.077-0.002c-19.882,0-36,16.118-36,36c0,0.505,0.018,1.007,0.038,1.507v122.692
		c0,0.994,0.806,1.801,1.8,1.801h31.86v-18h4.681v18h31.859c0.994,0,1.8-0.807,1.8-1.801V45.002L81.019,45.001
		C81.019,45.002,81.019,45.002,81.019,45.001z"></path>
	<path fill="none" stroke="#2DA6DE" stroke-dasharray="0.533" d="M56.397,162.002v-18H33.717v18h-15.66V46.325l-0.007-0.184
		c-0.016-0.378-0.031-0.757-0.031-1.139c0-14.838,12.032-26.918,26.851-27l1.555,0.036c13.904,0.697,24.885,11.793,25.596,25.545
		l-0.002,10.186l0.038,0.001v108.233H56.397z"></path>
	<path fill="#FFFFFF" stroke="#EB242B" stroke-width="0.5" d="M47.379,189.082v17.916h-4.681v-17.916
		c-18.197,1.17-32.717,15.848-33.616,34.115c0,0.994,0.762,1.801,1.756,1.801h68.4c0.994,0,1.756-0.805,1.756-1.797
		C80.096,204.932,65.576,190.252,47.379,189.082z"></path>
</g>
<g id="Delete_This_Layer">
	
	<g>
		<g>
			<g>
				<line fill="none" stroke="#2DA6DE" stroke-dasharray="0.533" x1="71.933" y1="119.001" x2="71.565" y2="119.001"></line>
				<line fill="none" stroke="#2DA6DE" stroke-dasharray="0.533" x1="70.853" y1="119.001" x2="42.666" y2="119.001"></line>
				<line fill="none" stroke="#2DA6DE" stroke-dasharray="0.533" x1="42.308" y1="119.001" x2="41.943" y2="119.001"></line>
			</g>
		</g>
	</g>
	<g>
		<path fill="#E9262D" d="M54.531,114.324c0,0.141-0.064,0.278-0.191,0.41l-0.02,0.021l-1.115,1.175
			c-0.236,0.248-0.438,0.441-0.604,0.577c-0.168,0.136-0.285,0.204-0.354,0.204c-0.072,0-0.162-0.035-0.27-0.103
			s-0.176-0.138-0.205-0.21c-0.027-0.061-0.055-0.188-0.076-0.382c-0.025-0.195-0.035-0.406-0.035-0.634
			c0-0.123,0.051-0.24,0.154-0.344c0.104-0.105,0.219-0.157,0.344-0.157c0.119,0,0.189,0.107,0.213,0.326
			c0.002,0.025,0.004,0.044,0.006,0.055c0.018,0.169,0.039,0.284,0.066,0.351c0.023,0.066,0.059,0.1,0.102,0.1
			c0.018,0,0.053-0.019,0.102-0.059c0.049-0.039,0.107-0.093,0.178-0.16l1.145-1.134c0.096-0.097,0.182-0.169,0.258-0.218
			c0.074-0.051,0.141-0.074,0.191-0.074c0.041,0,0.068,0.015,0.086,0.045c0.018,0.029,0.025,0.079,0.025,0.151V114.324z"></path>
	</g>
	
	
	<rect x="72.057" y="45.072" fill="#F9A61C" stroke="#F9A61C" stroke-miterlimit="10" width="18" height="20.288"></rect>
	<line fill="#919396" stroke="#919396" stroke-width="0.5" stroke-miterlimit="10" x1="86.997" y1="89.39" x2="40.941" y2="89.39"></line>
	<line fill="none" stroke="#E92629" stroke-width="0.5" x1="50.218" y1="76.748" x2="81.057" y2="76.748"></line>
	
	
	
	
	
	
	
	
	
	
	
		<line fill="#F9A61C" stroke="#F9A61C" stroke-width="0.5" stroke-miterlimit="10" x1="46.902" y1="45.786" x2="76.569" y2="45.786"></line>
	<g>
		<path fill="#E9262D" d="M52.45,85.979c0,0.147-0.066,0.291-0.199,0.432l-0.021,0.021l-1.168,1.231
			c-0.248,0.261-0.461,0.463-0.635,0.605c-0.176,0.143-0.299,0.214-0.371,0.214c-0.074,0-0.17-0.036-0.281-0.107
			c-0.111-0.071-0.186-0.144-0.217-0.219c-0.029-0.063-0.055-0.197-0.078-0.402c-0.025-0.205-0.037-0.426-0.037-0.665
			c0-0.129,0.055-0.249,0.162-0.359c0.107-0.111,0.229-0.166,0.359-0.166c0.125,0,0.199,0.114,0.223,0.342
			c0.004,0.027,0.004,0.046,0.006,0.059c0.02,0.175,0.043,0.298,0.07,0.368c0.025,0.069,0.062,0.104,0.107,0.104
			c0.018,0,0.055-0.021,0.105-0.061c0.051-0.042,0.113-0.098,0.186-0.168l1.201-1.189c0.1-0.101,0.191-0.178,0.27-0.229
			c0.08-0.051,0.148-0.079,0.203-0.079c0.043,0,0.072,0.018,0.09,0.048c0.018,0.031,0.025,0.085,0.025,0.159V85.979z"></path>
	</g>
	<g>
		<path fill="#E9262D" d="M51.13,74.262c0,0.147-0.067,0.292-0.201,0.431l-0.02,0.022l-1.169,1.231
			c-0.249,0.259-0.46,0.462-0.635,0.605c-0.175,0.141-0.299,0.212-0.369,0.212c-0.076,0-0.171-0.035-0.283-0.106
			c-0.11-0.071-0.185-0.145-0.218-0.22c-0.026-0.062-0.054-0.197-0.077-0.402c-0.025-0.202-0.038-0.425-0.038-0.662
			c0-0.13,0.054-0.251,0.164-0.361c0.108-0.11,0.228-0.166,0.358-0.166c0.125,0,0.199,0.114,0.223,0.343
			c0.004,0.026,0.006,0.046,0.007,0.059c0.019,0.176,0.044,0.298,0.069,0.367c0.027,0.069,0.062,0.104,0.108,0.104
			c0.019,0,0.055-0.021,0.104-0.062c0.053-0.041,0.114-0.098,0.186-0.169l1.201-1.188c0.101-0.102,0.19-0.177,0.271-0.229
			c0.079-0.052,0.146-0.078,0.202-0.078c0.041,0,0.07,0.016,0.09,0.047c0.017,0.032,0.025,0.085,0.025,0.159V74.262z"></path>
	</g>
	
	<rect x="1.001" y="1.003" fill="#E7E6E6" width="32.153" height="9.498"></rect>
	
</g>
</svg>