<svg width="2475" height="3075" version="1.1" xmlns="http://www.w3.org/2000/svg" xmlns:xlink="http://www.w3.org/1999/xlink" xml:space="preserve" xmlns:serif="http://www.serif.com/" style="fill-rule:evenodd;clip-rule:evenodd;" viewBox="0 0 2475 3075"><g transform="translate(7.5, 0) scale(4.270833333333333)"><g id="Template" transform="matrix(4.16667,0,0,4.16667,0,0)"><g opacity="0.5"><path d="M585,729L9,729L9,9L585,9L585,729ZM0,738L594,738L594,0L0,0L0,738Z" style="fill-rule:nonzero;"/></g><g transform="matrix(-1,0,0,1,594,0)"><rect x="9" y="9" width="576" height="720" style="fill:none;stroke:rgb(236,30,40);stroke-width:1px;"/></g><g transform="matrix(-1,0,0,1,594,-0.166)"><rect x="18" y="18.166" width="558" height="701.834" style="fill:none;stroke:rgb(43,166,222);stroke-width:1px;stroke-dasharray:0.94,0.94;"/></g><g opacity="0.75"><g transform="matrix(1,0,0,-1,0,738)"><rect x="0" y="728.984" width="594" height="9.016" style="fill:rgb(255,208,90);"/></g></g></g><g id="Guideline-Text" serif:id="Guideline Text" transform="matrix(4.16667,0,0,4.16667,0,0)"><g><g transform="matrix(0.997926,0,0,1,1.08536,0)"/><g transform="matrix(0.997923,0,0,1,0.994219,0)"/><g transform="matrix(0.997923,0,0,1,1.02634,0)"/><g transform="matrix(0.997923,0,0,1,0.989845,0)"/><g transform="matrix(0.997923,0,0,1,0.94187,0)"/><g transform="matrix(0.997923,0,0,1,0.987941,0)"/><g transform="matrix(0.997923,0,0,1,0.926926,0)"/><g transform="matrix(0.997926,0,0,1,1.09081,0)"/><g transform="matrix(0.997923,0,0,1,1.0082,0)"/><g transform="matrix(0.997923,0,0,1,1.06549,0)"/><g transform="matrix(0.997926,0,0,1,1.07506,0)"/><g transform="matrix(0.997923,0,0,1,0.945316,0)"/><g transform="matrix(0.997923,0,0,1,0.87966,0)"/><g transform="matrix(0.997923,0,0,1,0.972606,0)"/><g transform="matrix(0.997923,0,0,1,0.886131,0)"/><g transform="matrix(0.997923,0,0,1,0.910419,0)"/><g transform="matrix(0.997923,0,0,1,0.906606,0)"/><g transform="matrix(0.997923,0,0,1,0.872431,0)"/><g transform="matrix(0.997923,0,0,1,1.10087,0)"/><g transform="matrix(0.997926,0,0,1,1.04618,0)"/><g transform="matrix(0.997923,0,0,1,0.938715,0)"/><g transform="matrix(0.997923,0,0,1,0.968075,0)"/><g transform="matrix(0.997923,0,0,1,0.955526,0)"/><g transform="matrix(0.997923,0,0,1,1.02545,0)"/></g><g transform="matrix(1,0,0,1,527.619,97.4155)"><path d="M0,0L57.115,0" style="fill:none;fill-rule:nonzero;stroke:rgb(236,30,40);stroke-width:1px;"/></g><g transform="matrix(1,0,0,1,520.216,37.2866)"><path d="M0,0L55.784,0" style="fill:none;fill-rule:nonzero;stroke:rgb(43,166,222);stroke-width:1px;stroke-dasharray:0.94,0.94;"/></g><g transform="matrix(1,0,0,1,517.407,127.498)"><path d="M0,0L68.414,0" style="fill:none;fill-rule:nonzero;stroke:rgb(146,148,151);stroke-width:1px;"/></g><g transform="matrix(1,0,0,1,521.56,36.0587)"><path d="M0,-6.297C0,-5.881 -0.188,-5.476 -0.564,-5.082L-0.623,-5.023L-3.91,-1.551C-4.609,-0.816 -5.204,-0.247 -5.696,0.154C-6.187,0.556 -6.534,0.758 -6.736,0.758C-6.949,0.758 -7.213,0.657 -7.528,0.456C-7.844,0.255 -8.049,0.049 -8.142,-0.165C-8.22,-0.343 -8.292,-0.72 -8.362,-1.296C-8.431,-1.872 -8.465,-2.495 -8.465,-3.167C-8.465,-3.533 -8.313,-3.872 -8.008,-4.182C-7.702,-4.494 -7.366,-4.649 -6.996,-4.649C-6.646,-4.649 -6.437,-4.328 -6.369,-3.685C-6.362,-3.61 -6.357,-3.554 -6.354,-3.519C-6.296,-3.025 -6.23,-2.68 -6.156,-2.484C-6.082,-2.289 -5.981,-2.192 -5.853,-2.192C-5.801,-2.192 -5.701,-2.248 -5.556,-2.365C-5.41,-2.481 -5.235,-2.637 -5.034,-2.837L-1.654,-6.191C-1.371,-6.475 -1.117,-6.69 -0.895,-6.836C-0.671,-6.982 -0.48,-7.055 -0.324,-7.055C-0.206,-7.055 -0.124,-7.01 -0.074,-6.921C-0.024,-6.832 0,-6.683 0,-6.473L0,-6.297Z" style="fill:rgb(236,30,40);fill-rule:nonzero;"/></g><g transform="matrix(1,0,0,1,587.932,98.3264)"><path d="M0,-2.822C0.151,-2.797 0.285,-2.825 0.402,-2.91C0.52,-2.996 0.592,-3.116 0.618,-3.272C0.641,-3.406 0.622,-3.523 0.56,-3.622C0.499,-3.718 0.406,-3.779 0.286,-3.8C0.148,-3.824 0.016,-3.785 -0.109,-3.683C-0.235,-3.581 -0.311,-3.451 -0.339,-3.291C-0.359,-3.168 -0.341,-3.064 -0.28,-2.98C-0.218,-2.896 -0.124,-2.844 0,-2.822M-2.516,-3.463C-2.372,-3.437 -2.24,-3.471 -2.121,-3.565C-2.001,-3.657 -1.927,-3.784 -1.898,-3.945C-1.875,-4.084 -1.895,-4.205 -1.958,-4.308C-2.02,-4.412 -2.111,-4.473 -2.23,-4.494C-2.379,-4.519 -2.518,-4.484 -2.645,-4.387C-2.773,-4.292 -2.851,-4.163 -2.878,-4.002C-2.901,-3.868 -2.879,-3.75 -2.812,-3.647C-2.744,-3.548 -2.646,-3.484 -2.516,-3.463M-2.549,1.929L-2.391,-1.138L-3.333,-0.558L-3.288,-1.251L-2.322,-1.827C-2.305,-2.078 -2.284,-2.309 -2.259,-2.524C-2.233,-2.737 -2.205,-2.94 -2.172,-3.131L-2.147,-3.273C-2.222,-3.247 -2.293,-3.231 -2.361,-3.222C-2.43,-3.213 -2.493,-3.214 -2.55,-3.223C-2.738,-3.257 -2.884,-3.35 -2.984,-3.505C-3.089,-3.659 -3.122,-3.835 -3.088,-4.032C-3.05,-4.255 -2.94,-4.433 -2.76,-4.567C-2.582,-4.702 -2.387,-4.751 -2.179,-4.715C-1.998,-4.683 -1.862,-4.595 -1.771,-4.451C-1.679,-4.307 -1.651,-4.137 -1.686,-3.937C-1.702,-3.841 -1.749,-3.702 -1.828,-3.52C-1.906,-3.336 -1.953,-3.197 -1.97,-3.102C-1.996,-2.949 -1.985,-2.792 -1.941,-2.628C-1.896,-2.467 -1.814,-2.294 -1.691,-2.113C-1.456,-2.207 -1.251,-2.337 -1.075,-2.504C-0.902,-2.672 -0.763,-2.873 -0.657,-3.108C-0.621,-3.186 -0.576,-3.294 -0.519,-3.432C-0.461,-3.572 -0.418,-3.66 -0.394,-3.699C-0.306,-3.826 -0.198,-3.92 -0.074,-3.979C0.049,-4.038 0.18,-4.054 0.319,-4.03C0.499,-4 0.639,-3.908 0.734,-3.757C0.829,-3.604 0.86,-3.426 0.826,-3.222C0.788,-3.01 0.686,-2.844 0.513,-2.723C0.341,-2.601 0.151,-2.558 -0.062,-2.595C-0.152,-2.612 -0.232,-2.645 -0.308,-2.696C-0.381,-2.747 -0.448,-2.818 -0.508,-2.91C-0.643,-2.627 -0.799,-2.385 -0.977,-2.181C-1.153,-1.979 -1.351,-1.817 -1.566,-1.697C-1.645,-0.926 -1.698,-0.4 -1.732,-0.116C-1.765,0.167 -1.791,0.374 -1.814,0.505C-1.87,0.833 -1.958,1.109 -2.074,1.334C-2.192,1.559 -2.352,1.757 -2.549,1.929" style="fill:rgb(236,30,40);fill-rule:nonzero;"/></g><g transform="matrix(1,0,0,1,524.185,95.3141)"><path d="M0,-6.297C0,-5.881 -0.187,-5.476 -0.563,-5.081L-0.623,-5.024L-3.912,-1.552C-4.61,-0.816 -5.205,-0.246 -5.696,0.155C-6.188,0.557 -6.534,0.758 -6.736,0.758C-6.949,0.758 -7.214,0.658 -7.529,0.456C-7.846,0.256 -8.049,0.049 -8.141,-0.165C-8.22,-0.343 -8.293,-0.719 -8.362,-1.295C-8.432,-1.871 -8.467,-2.494 -8.467,-3.167C-8.467,-3.532 -8.314,-3.871 -8.009,-4.183C-7.704,-4.494 -7.367,-4.649 -6.998,-4.649C-6.646,-4.649 -6.437,-4.327 -6.37,-3.685C-6.362,-3.609 -6.357,-3.554 -6.354,-3.518C-6.297,-3.025 -6.232,-2.68 -6.157,-2.484C-6.083,-2.288 -5.981,-2.191 -5.854,-2.191C-5.801,-2.191 -5.701,-2.249 -5.555,-2.364C-5.41,-2.481 -5.236,-2.638 -5.034,-2.837L-1.655,-6.191C-1.371,-6.475 -1.117,-6.69 -0.894,-6.835C-0.671,-6.981 -0.481,-7.055 -0.325,-7.055C-0.208,-7.055 -0.124,-7.01 -0.074,-6.921C-0.024,-6.831 0,-6.683 0,-6.473L0,-6.297Z" style="fill:rgb(236,30,40);fill-rule:nonzero;"/></g><g transform="matrix(1,0,0,1,516.112,126.054)"><path d="M0,-6.298C0,-5.882 -0.188,-5.477 -0.564,-5.082L-0.623,-5.023L-3.912,-1.552C-4.61,-0.816 -5.205,-0.246 -5.696,0.155C-6.188,0.556 -6.534,0.757 -6.737,0.757C-6.95,0.757 -7.214,0.657 -7.529,0.456C-7.846,0.255 -8.05,0.048 -8.142,-0.165C-8.221,-0.343 -8.293,-0.72 -8.363,-1.296C-8.432,-1.872 -8.467,-2.495 -8.467,-3.166C-8.467,-3.533 -8.313,-3.871 -8.008,-4.183C-7.703,-4.493 -7.367,-4.651 -6.998,-4.651C-6.646,-4.651 -6.436,-4.328 -6.37,-3.685C-6.362,-3.61 -6.357,-3.555 -6.354,-3.519C-6.297,-3.026 -6.231,-2.68 -6.156,-2.485C-6.082,-2.289 -5.981,-2.192 -5.854,-2.192C-5.801,-2.192 -5.701,-2.248 -5.556,-2.365C-5.41,-2.481 -5.237,-2.638 -5.035,-2.836L-1.655,-6.191C-1.371,-6.476 -1.117,-6.69 -0.895,-6.836C-0.671,-6.982 -0.481,-7.055 -0.324,-7.055C-0.208,-7.055 -0.124,-7.01 -0.074,-6.921C-0.024,-6.832 0,-6.683 0,-6.473L0,-6.298Z" style="fill:rgb(236,30,40);fill-rule:nonzero;"/></g><g transform="matrix(1,0,0,1,503.176,200.767)"><path d="M0,-6.296C0,-5.88 -0.189,-5.475 -0.565,-5.08L-0.624,-5.023L-3.912,-1.55C-4.611,-0.815 -5.206,-0.245 -5.698,0.156C-6.188,0.558 -6.535,0.758 -6.738,0.758C-6.95,0.758 -7.216,0.658 -7.531,0.458C-7.847,0.256 -8.05,0.05 -8.142,-0.164C-8.22,-0.341 -8.295,-0.718 -8.363,-1.294C-8.433,-1.87 -8.467,-2.495 -8.467,-3.167C-8.467,-3.533 -8.314,-3.871 -8.01,-4.182C-7.705,-4.492 -7.367,-4.649 -6.999,-4.649C-6.648,-4.649 -6.438,-4.326 -6.371,-3.683C-6.363,-3.608 -6.358,-3.554 -6.354,-3.518C-6.298,-3.025 -6.232,-2.68 -6.158,-2.484C-6.083,-2.288 -5.982,-2.19 -5.854,-2.19C-5.801,-2.19 -5.701,-2.248 -5.557,-2.363C-5.411,-2.48 -5.237,-2.637 -5.035,-2.835L-1.656,-6.19C-1.373,-6.475 -1.118,-6.689 -0.896,-6.834C-0.671,-6.981 -0.481,-7.054 -0.326,-7.054C-0.209,-7.054 -0.125,-7.01 -0.075,-6.92C-0.025,-6.831 0,-6.683 0,-6.473L0,-6.296Z" style="fill:rgb(236,30,40);fill-rule:nonzero;"/></g><g transform="matrix(-1,0,0,1,175.725,559.419)"><rect x="27" y="27.166" width="121.725" height="124.249" style="fill:rgb(208,210,211);"/></g><g><g transform="matrix(0.997927,0,0,1,0.0676972,0)"/><g transform="matrix(0.997927,0,0,1,0.0676972,0)"/><g transform="matrix(0.997927,0,0,1,0.0676972,0)"/></g><g transform="matrix(0.997926,0,0,1,0.569482,2.22045e-16)"/><g transform="matrix(0,-1,1,0,0,0)"><g transform="matrix(1.00208,0,0,1,0.516123,0)"/><g transform="matrix(1.00208,0,0,1,0.446972,0)"/></g><g transform="matrix(0,-1,-1,0,89.7539,594.706)"><path d="M-38.401,-38.399C-59.652,-38.399 -76.88,-21.207 -76.88,0C-76.88,21.208 -59.652,38.401 -38.401,38.401C-17.149,38.401 0.079,21.208 0.079,0C0.079,-21.207 -17.149,-38.399 -38.401,-38.399"/></g><g transform="matrix(0,-1,-1,0,89.78,598.411)"><path d="M-34.909,-34.909C-54.229,-34.909 -69.891,-19.281 -69.891,-0.001C-69.891,19.28 -54.229,34.909 -34.909,34.909C-15.588,34.909 0.073,19.28 0.073,-0.001C0.073,-19.281 -15.588,-34.909 -34.909,-34.909" style="fill:rgb(183,211,51);"/></g><g transform="matrix(1,0,0,1,82.3057,622.29)"><path d="M0,3.4C-0.483,7.688 -0.845,11.131 -1.084,13.731L-2.677,13.801C-2.653,13.715 -2.642,13.618 -2.639,13.51C-2.636,13.315 -2.707,13.058 -2.853,12.74C-2.999,12.423 -3.083,12.221 -3.104,12.135C-3.515,12.192 -3.91,12.48 -4.286,12.992C-4.663,13.507 -5.004,13.763 -5.306,13.758C-5.479,13.755 -5.674,13.706 -5.889,13.618C-6.173,13.808 -6.541,13.887 -6.996,13.858C-7.407,13.787 -7.807,13.725 -8.195,13.674C-8.207,13.133 -8.74,12.658 -9.795,12.248C-9.791,12.031 -9.898,11.709 -10.12,11.284C-10.339,10.856 -10.447,10.557 -10.445,10.383C-10.442,10.187 -10.363,10.026 -10.209,9.899C-10.23,9.833 -10.408,9.43 -10.741,8.685C-10.97,8.14 -11.081,7.67 -11.074,7.281C-11.069,6.978 -10.999,6.695 -10.865,6.438C-11.05,4.59 -11.132,3.006 -11.108,1.683C-11.074,-0.356 -10.783,-2.228 -10.234,-3.933C-10.273,-4.194 -10.291,-4.454 -10.286,-4.714C-10.264,-6.081 -9.792,-7.026 -8.876,-7.554L-8.867,-7.977C-7.96,-9.134 -6.767,-9.97 -5.285,-10.487C-4.401,-10.277 -3.517,-10.077 -2.633,-9.889C-1.643,-9.547 -0.959,-8.96 -0.584,-8.129C-0.284,-7.95 -0.138,-7.589 -0.147,-7.048C-0.156,-6.44 -0.089,-6.048 0.061,-5.872L-0.105,-5.68C0.067,-4.397 0.152,-3.614 0.146,-3.333C0.133,-2.509 -0.084,-1.926 -0.5,-1.587C-0.651,-1.59 -1.05,-1.726 -1.694,-1.997C-1.848,-1.849 -2.013,-1.775 -2.186,-1.778C-2.272,-1.779 -2.429,-1.826 -2.654,-1.916C-2.88,-2.007 -3.069,-2.053 -3.22,-2.056C-3.329,-2.058 -3.438,-2.037 -3.546,-1.997C-3.56,-3.71 -3.506,-4.99 -3.384,-5.834C-3.555,-5.945 -3.729,-6.199 -3.905,-6.591C-4.084,-6.984 -4.313,-7.206 -4.593,-7.253C-4.77,-7.039 -4.849,-6.9 -4.828,-6.834L-5.408,-7.039C-5.938,-6.462 -6.29,-5.459 -6.466,-4.031C-6.646,-2.386 -6.869,-1.294 -7.138,-0.757C-6.905,-0.513 -6.791,-0.175 -6.799,0.258C-6.801,0.411 -6.827,0.66 -6.877,1.005C-6.926,1.353 -6.951,1.613 -6.954,1.786C-6.957,1.982 -6.94,2.155 -6.898,2.308L-7.294,2.691C-7.134,3.432 -7.041,4.366 -7.017,5.495C-7.032,6.449 -7.039,7.404 -7.032,8.358C-7.056,8.358 -7.239,8.366 -7.586,8.38C-7.802,8.377 -7.956,8.451 -8.045,8.602C-7.913,8.582 -7.794,8.572 -7.687,8.575C-7.21,8.582 -6.837,8.92 -6.566,9.586C-6.297,10.254 -6.065,10.588 -5.87,10.592C-5.654,10.594 -5.357,10.394 -4.981,9.987C-4.344,9.304 -4.013,8.366 -3.992,7.174C-3.982,6.587 -4.048,5.958 -4.188,5.283C-4.342,5.367 -4.42,5.583 -4.427,5.929C-4.772,5.922 -4.99,5.996 -5.08,6.145C-5.229,6.099 -5.294,5.98 -5.269,5.784C-5.242,5.504 -5.229,5.352 -5.229,5.33C-4.967,5.247 -4.836,5.13 -4.833,4.978C-4.831,4.913 -4.879,4.793 -4.973,4.618C-5.067,4.443 -5.113,4.302 -5.11,4.192C-5.11,4.106 -5.087,4.02 -5.043,3.933L-4.891,2.667C-4.417,2.806 -3.39,2.866 -1.809,2.85C-1.854,2.958 -1.791,3.101 -1.621,3.275C-1.467,3.126 -1.305,3.053 -1.131,3.056C-1.001,3.059 -0.807,3.117 -0.549,3.229C-0.291,3.343 -0.109,3.399 0,3.4" style="fill-rule:nonzero;"/></g><g transform="matrix(1,0,0,1,94.4248,612.879)"><path d="M0,24.018C-0.302,23.882 -0.626,23.812 -0.972,23.806C-1.274,23.802 -1.688,23.859 -2.209,23.981C-2.795,24.101 -3.197,24.169 -3.414,24.188C-3.645,23.729 -3.807,23.096 -3.9,22.291C-4.076,21.118 -4.185,20.455 -4.224,20.302C-4.157,20.172 -4.122,20.065 -4.122,19.978C-4.117,19.738 -4.304,19.525 -4.679,19.334C-5.057,19.143 -5.242,18.994 -5.24,18.885C-5.238,18.756 -5.018,18.563 -4.58,18.31C-4.687,18.178 -4.766,17.912 -4.812,17.51C-4.858,17.108 -4.957,16.84 -5.105,16.706C-5.369,16.941 -5.799,17.092 -6.396,17.157C-6.993,17.223 -7.389,17.319 -7.586,17.445C-7.572,19.138 -7.851,20.273 -8.424,20.849C-8.726,20.778 -8.955,20.893 -9.111,21.195C-9.335,21.56 -9.521,21.774 -9.675,21.836L-9.484,22.067C-9.659,22.215 -9.942,22.276 -10.329,22.248C-10.937,22.215 -11.261,22.2 -11.304,22.199L-11.488,21.61L-9.373,4.04C-9.354,2.934 -9.298,2.186 -9.205,1.797C-9.232,0.82 -9.005,0.217 -8.525,-0.013C-8.226,0.186 -7.848,0.291 -7.394,0.299C-7.026,0.304 -6.45,0.228 -5.669,0.067C-4.886,-0.092 -4.343,-0.17 -4.04,-0.165C-2.98,-0.148 -2.518,0.62 -2.65,2.137C-2.758,3.35 -2.569,4.948 -2.083,6.931C-1.578,9.065 -1.334,10.663 -1.352,11.727C-1.356,12.052 -1.251,12.726 -1.277,13.051C-1.737,13.303 -2.323,13.455 -3.038,13.508C-3.667,13.541 -4.307,13.574 -4.956,13.606C-5.123,11.955 -5.413,9.965 -5.582,8.334C-5.786,6.379 -6.04,4.769 -6.344,3.506L-7.345,12.796C-7.424,13.597 -7.062,14.005 -6.261,14.019C-6.001,14.023 -5.753,13.961 -5.512,13.836C-5.316,13.774 -5.047,13.921 -4.707,14.272C-4.72,14.945 -4.585,15.349 -4.305,15.484C-3.954,15.25 -3.497,15.031 -2.931,14.823C-2.43,14.637 -1.939,14.461 -1.46,14.295C-1.187,14.669 -1.01,15.225 -0.936,15.964C-0.845,17.007 -0.78,17.616 -0.739,17.789C-0.704,18.203 -0.535,19.095 -0.233,20.467C-0.013,21.555 0.09,22.436 0.08,23.108C0.074,23.434 0.047,23.736 0,24.018" style="fill-rule:nonzero;"/></g><g transform="matrix(1,0,0,1,109.377,628.116)"><path d="M0,-6.715C-0.025,-6.65 -0.03,-6.271 -0.021,-5.577C-0.03,-5.013 -0.102,-4.59 -0.236,-4.31C-0.396,-3.879 -0.481,-3.263 -0.495,-2.461C-0.498,-2.286 -0.492,-2.015 -0.476,-1.646C-0.483,-1.278 -0.486,-1.007 -0.49,-0.834C-0.513,0.534 -0.746,1.526 -1.191,2.148C-1.152,2.497 -1.137,2.845 -1.143,3.19C-1.16,4.275 -1.532,5.734 -2.256,7.564C-2.452,7.627 -2.615,7.657 -2.745,7.655C-3.005,7.65 -3.191,7.5 -3.306,7.205C-3.421,6.91 -3.529,6.633 -3.632,6.369C-3.562,4.702 -3.596,2.271 -3.736,-0.922L-3.538,-1.113C-3.681,-1.68 -3.745,-2.31 -3.734,-3.004C-3.725,-3.503 -3.663,-4.228 -3.55,-5.18C-3.437,-6.132 -3.376,-6.848 -3.368,-7.326C-3.361,-7.629 -3.369,-7.923 -3.385,-8.204C-4.13,-6.416 -4.658,-3.388 -4.968,0.88L-5.239,1.526C-5.329,1.742 -5.516,1.858 -5.797,1.875C-5.881,1.723 -5.967,1.645 -6.053,1.643C-6.118,1.642 -6.232,1.722 -6.397,1.882C-6.562,2.04 -6.699,2.109 -6.807,2.085L-7.236,2.468C-7.045,2.711 -6.636,2.739 -6.003,2.555C-5.504,2.412 -5.247,2.6 -5.233,3.121C-5.221,3.556 -5.338,4.139 -5.588,4.873C-5.839,5.605 -5.967,6.157 -5.973,6.526C-5.978,6.786 -5.949,7.047 -5.89,7.308L-8.137,7.66C-8.346,7.222 -8.5,6.489 -8.603,5.456C-8.703,4.423 -8.858,3.688 -9.068,3.251C-8.936,3.103 -8.868,2.941 -8.865,2.767C-8.863,2.615 -8.923,2.387 -9.048,2.08C-9.173,1.774 -9.245,1.545 -9.265,1.393C-9.282,1.155 -9.358,0.577 -9.494,-0.336C-9.591,-1.074 -9.635,-1.652 -9.628,-2.063C-9.624,-2.28 -9.609,-2.475 -9.584,-2.647C-9.582,-2.799 -9.667,-3.022 -9.833,-3.319C-10.002,-3.615 -10.084,-3.828 -10.081,-3.959C-10.079,-4.067 -10.035,-4.163 -9.947,-4.248C-10.097,-4.425 -10.155,-4.729 -10.127,-5.164C-10.098,-5.596 -10.159,-5.901 -10.306,-6.077C-10.624,-5.236 -10.794,-4.101 -10.819,-2.669C-10.83,-0.673 -10.852,0.477 -10.877,0.78L-10.652,0.979L-10.884,1.17C-10.724,1.954 -10.653,2.953 -10.675,4.167C-10.733,6.358 -10.761,7.377 -10.759,7.225C-11.067,7.502 -11.492,7.636 -12.032,7.627C-12.702,7.615 -13.159,7.674 -13.398,7.799C-13.673,7.317 -13.804,6.697 -13.789,5.937C-13.78,5.352 -13.681,4.639 -13.493,3.794C-13.788,3.247 -13.926,2.485 -13.909,1.509C-13.904,1.27 -13.877,0.815 -13.822,0.144C-13.791,-0.397 -13.784,-0.799 -13.801,-1.06C-13.583,-1.164 -13.473,-1.281 -13.471,-1.412C-13.469,-1.499 -13.536,-1.646 -13.675,-1.855C-13.812,-2.063 -13.879,-2.221 -13.878,-2.33C-13.876,-2.46 -13.786,-2.589 -13.61,-2.716L-14.311,-13.24C-13.894,-13.514 -13.22,-13.645 -12.289,-13.628C-11.272,-13.589 -10.578,-13.642 -10.208,-13.787C-10.142,-13.831 -10.066,-13.851 -9.979,-13.849C-9.893,-13.848 -9.791,-13.797 -9.674,-13.698C-9.556,-13.598 -9.476,-13.548 -9.434,-13.548C-9.348,-13.546 -9.27,-13.609 -9.202,-13.738L-8.596,-13.142C-8.393,-12.379 -8.201,-10.901 -8.021,-8.707C-7.837,-6.817 -7.548,-5.39 -7.151,-4.428C-6.621,-6.35 -6.183,-7.96 -5.835,-9.256L-5.131,-14.405L-0.097,-14.514C-0.079,-14.232 -0.018,-12.725 0.119,-11.854C0.235,-11.093 0.291,-10.474 0.281,-9.997C0.273,-9.454 0.189,-8.968 0.029,-8.537C0.199,-8.295 0.279,-7.991 0.273,-7.622C0.269,-7.253 0.177,-6.952 0,-6.715" style="fill-rule:nonzero;"/></g><g transform="matrix(1,0,0,1,119.773,632.325)"><path d="M0,-15.108C-0.194,-15.09 -0.41,-15.083 -0.649,-15.087C-1.146,-15.095 -1.807,-15.171 -2.626,-15.316C-3.642,-15.463 -4.258,-15.549 -4.474,-15.574C-4.783,-15.126 -4.945,-14.487 -4.961,-13.663C-4.99,-11.885 -4.991,-11.114 -4.967,-11.353C-4.667,-11.174 -4.521,-10.846 -4.529,-10.369C-4.562,-9.718 -4.567,-9.382 -4.547,-9.361C-4.699,-9.298 -4.778,-9.083 -4.783,-8.713C-5.021,-8.805 -5.267,-8.982 -5.521,-9.246C-5.862,-9.579 -6.044,-8.455 -6.019,-8.735L-6.224,-8.067L-6.416,-8.267C-6.591,-8.248 -6.886,-8.339 -7.304,-8.542C-7.724,-8.743 -8.018,-8.932 -8.187,-9.11C-8.182,-9.457 -8.123,-9.652 -8.015,-9.693L-8.429,-10.155L-8.629,-9.866C-8.872,-12.126 -8.811,-16.353 -8.513,-18.735C-7.69,-18.591 -6.783,-18.499 -5.788,-18.461C-5.118,-18.428 -4.177,-18.412 -2.964,-18.413C-1.578,-18.411 -0.582,-18.406 0.023,-18.396C0.278,-18.15 0.404,-17.835 0.397,-17.445C0.394,-17.205 0.327,-16.823 0.198,-16.293C0.071,-15.763 0.005,-15.369 0,-15.108M-0.069,0.479L-0.067,0.447C-0.202,0.726 -0.285,1.051 -0.312,1.418C-0.338,1.656 -0.344,1.993 -0.329,2.426C-0.316,2.926 -0.312,3.274 -0.313,3.468C-0.488,3.466 -1.18,3.454 -2.393,3.434C-3.128,3.42 -3.789,3.485 -4.377,3.627L-4.981,2.966C-5.159,3.135 -5.227,3.276 -5.185,3.386C-5.292,3.36 -5.79,3.353 -6.678,3.359C-7.37,3.348 -7.889,3.274 -8.231,3.138C-8.585,3.501 -8.997,3.495 -9.467,3.118C-9.639,2.986 -9.654,2.761 -9.521,2.449C-9.386,2.137 -9.425,1.903 -9.639,1.748C-9.605,1.055 -9.511,-0.018 -9.355,-1.47C-9.204,-2.768 -9.122,-3.787 -9.11,-4.525C-9.093,-5.521 -9.163,-6.477 -9.319,-7.391C-9.077,-7.626 -8.807,-7.741 -8.504,-7.735C-8.156,-7.73 -7.748,-7.559 -7.278,-7.227C-6.616,-6.76 -6.271,-6.526 -6.25,-6.526L-6.06,-6.295C-6.037,-6.359 -5.923,-6.705 -5.718,-7.331C-5.602,-7.74 -5.435,-8.009 -5.216,-8.136L-5.024,-7.936C-4.937,-7.979 -4.652,-8.18 -4.17,-8.54C-3.799,-8.795 -3.495,-9.397 -3.279,-9.392C-3.04,-9.389 -2.816,-9.254 -2.604,-8.99C-2.239,-8.789 -2.01,-8.009 -1.896,-7.607C-1.785,-7.204 -1.678,-6.807 -1.575,-6.413C-2.551,-6.386 -3.352,-6.412 -3.978,-6.487C-4.134,-6.251 -4.351,-6.217 -4.629,-6.383C-4.907,-6.551 -5.112,-6.527 -5.247,-6.313C-5.254,-5.922 -5.267,-5.217 -5.283,-4.199C-5.321,-3.288 -5.332,-2.573 -5.318,-2.051C-5.312,-1.249 -5.258,-0.509 -5.161,0.165C-4.99,0.167 -4.167,0.182 -2.695,0.206C-1.678,0.224 -0.803,0.314 -0.069,0.479" style="fill-rule:nonzero;"/></g><g transform="matrix(1,0,0,1,83.2823,650.635)"><path d="M0,1.842L0,1.827C0,1.838 -0.057,2.315 -0.168,3.261C-0.225,3.842 -0.363,4.299 -0.587,4.632L-0.729,4.517C-0.992,5.07 -1.35,5.405 -1.803,5.524C-2.02,5.754 -2.333,5.88 -2.741,5.903C-2.984,5.918 -3.544,5.847 -4.425,5.692C-4.849,5.427 -5.081,5.281 -5.122,5.253C-5.389,5.052 -5.517,4.847 -5.503,4.64C-5.761,4.376 -6.125,3.905 -6.261,3.315C-6.426,2.663 -6.526,2.627 -6.68,2.398C-6.926,2.578 -7.014,2.194 -7.155,1.965L-7.027,1.864C-7.106,1.806 -7.148,1.743 -7.153,1.67C-7.156,1.619 -7.135,1.543 -7.089,1.442C-7.044,1.342 -7.022,1.265 -7.025,1.214C-7.03,1.133 -7.079,1.062 -7.172,1.006C-7.074,0.494 -6.983,-0.275 -6.903,-1.301C-6.729,-1.394 -6.646,-1.575 -6.654,-1.843C-6.664,-2.109 -6.628,-2.287 -6.543,-2.375C-6.13,-3.204 -5.458,-3.764 -4.528,-4.056C-4.477,-4.049 -4.227,-4.053 -3.78,-4.068C-3.473,-4.076 -3.24,-4.049 -3.084,-3.986C-2.806,-4.033 -2.525,-3.966 -2.247,-3.786C-2.005,-3.604 -1.764,-3.422 -1.523,-3.24C-1.073,-2.75 -0.83,-2.197 -0.794,-1.579C-0.781,-1.373 -0.796,-1.156 -0.833,-0.927C-1.166,-0.938 -1.403,-0.718 -1.544,-0.266L-2.842,-0.145C-2.98,-0.342 -3.061,-0.606 -3.08,-0.935C-3.086,-1.049 -3.086,-1.214 -3.08,-1.43C-3.073,-1.648 -3.072,-1.813 -3.079,-1.926C-3.099,-2.265 -3.179,-2.534 -3.318,-2.733L-3.709,-2.51C-3.866,-2.572 -3.947,-2.665 -3.955,-2.789C-3.957,-2.83 -3.951,-2.889 -3.936,-2.968C-3.922,-3.047 -3.915,-3.101 -3.917,-3.132C-3.925,-3.264 -4.045,-3.346 -4.277,-3.375C-4.436,-1.91 -4.482,-0.405 -4.419,1.139C-4.377,1.189 -4.254,1.223 -4.048,1.242C-3.88,1.263 -3.795,1.315 -3.79,1.397C-3.787,1.429 -3.797,1.469 -3.821,1.522L-3.949,1.623C-3.879,1.733 -3.838,1.886 -3.826,2.08C-3.821,2.183 -3.824,2.342 -3.838,2.553C-3.852,2.766 -3.854,2.924 -3.849,3.026C-3.829,3.335 -3.753,3.568 -3.615,3.725C-3.629,3.953 -3.536,4.107 -3.34,4.19C-3.214,4.14 -3.101,4.113 -2.999,4.107C-2.604,4.085 -2.327,4.3 -2.174,4.757C-2.174,4.767 -2.175,4.844 -2.18,4.988C-2.175,5.072 -2.134,5.125 -2.056,5.151C-1.882,5.049 -1.797,4.862 -1.799,4.595C-1.804,4.285 -1.764,4.087 -1.68,3.999C-1.702,3.856 -1.787,3.65 -1.937,3.38C-2.087,3.11 -2.167,2.898 -2.177,2.743C-2.185,2.579 -2.137,2.421 -2.03,2.271C-2.121,2.245 -2.163,2.185 -2.156,2.092C-2.151,1.947 -2.149,1.87 -2.149,1.859C-1.443,1.684 -0.727,1.678 0,1.842" style="fill-rule:nonzero;"/></g><g transform="matrix(1,0,0,1,87.5557,653.75)"><path d="M0,-6.163L0.018,-6.15C0.034,-6.084 0.026,-6.319 -0.005,-6.854C-0.021,-7.113 -0.114,-7.298 -0.287,-7.414C-0.386,-7.274 -0.274,-7.208 -0.321,-6.883C-0.368,-6.56 -0.559,-6.65 -0.67,-6.51C-0.969,-6.512 -1.037,-6.331 -1.1,-6.615C-1.234,-7.079 -1.349,-7.038 -1.35,-7.046L-1.477,-6.97C-1.521,-6.929 -1.573,-6.882 -1.629,-6.832C-1.686,-6.78 -1.743,-6.763 -1.804,-6.779C-1.8,-6.721 -1.828,-6.631 -1.887,-6.506C-1.945,-6.383 -1.974,-6.298 -1.97,-6.25C-1.964,-6.164 -1.896,-6.101 -1.763,-6.061C-1.786,-5.867 -1.793,-5.665 -1.781,-5.455C-1.774,-5.34 -1.747,-5.077 -1.699,-4.668C-1.646,-4.344 -1.624,-4.067 -1.635,-3.836C-1.526,-3.833 -1.426,-3.833 -1.331,-3.84C-0.914,-3.863 -0.645,-4.028 -0.52,-4.333C-0.479,-4.421 -0.43,-4.742 -0.378,-5.292C-0.332,-5.707 -0.206,-5.998 0,-6.163M1.602,-0.064L1.586,-0.063C1.511,0.085 1.487,0.299 1.515,0.574C1.549,0.966 1.567,1.166 1.568,1.176C1.51,1.198 1.43,1.169 1.33,1.089C1.18,1.146 1.107,1.241 1.115,1.375C1.116,1.394 1.124,1.427 1.139,1.475C1.142,1.531 1.145,1.57 1.146,1.589C1.151,1.694 1.12,1.774 1.052,1.825C0.88,1.73 0.652,1.669 0.372,1.642C0.09,1.614 -0.177,1.589 -0.428,1.566C-0.432,0.26 -0.607,-1.017 -0.953,-2.263C-0.953,-2.253 -0.96,-2.382 -0.976,-2.651C-0.975,-2.842 -1.019,-2.979 -1.106,-3.06L-1.226,-2.953C-1.228,-2.972 -1.187,-3.01 -1.106,-3.068C-1.027,-3.125 -0.988,-3.183 -0.991,-3.24C-0.994,-3.268 -1.002,-3.297 -1.015,-3.325L-1.146,-3.419C-1.367,-3.348 -1.47,-3.169 -1.453,-2.882C-1.441,-2.691 -1.519,-2.556 -1.679,-2.479C-1.618,-2.436 -1.585,-2.379 -1.581,-2.313C-1.578,-2.275 -1.584,-2.221 -1.599,-2.154C-1.613,-2.085 -1.619,-2.032 -1.616,-1.994C-1.611,-1.909 -1.565,-1.839 -1.479,-1.786C-1.476,-1.728 -1.446,-1.212 -1.39,-0.236C-1.354,0.387 -1.37,0.915 -1.438,1.35L-1.426,1.595C-1.51,1.59 -1.605,1.591 -1.712,1.597C-1.83,1.605 -2.002,1.621 -2.227,1.649C-2.451,1.677 -2.617,1.694 -2.724,1.7C-3.162,1.724 -3.47,1.65 -3.647,1.479L-3.833,-3.881C-3.919,-4.144 -3.976,-4.511 -4.003,-4.98L-4.062,-6.013C-4.104,-6.52 -4.168,-6.91 -4.256,-7.183C-4.22,-7.368 -4.058,-7.468 -3.773,-7.483C-3.597,-7.495 -3.356,-7.471 -3.056,-7.411C-2.916,-7.477 -2.722,-7.517 -2.473,-7.531C-2.401,-7.536 -2.289,-7.538 -2.134,-7.536C-1.968,-7.546 -1.849,-7.553 -1.778,-7.558C-1.315,-7.584 -1.009,-7.726 -0.856,-7.986C-0.642,-7.988 -0.409,-7.92 -0.157,-7.781C0.095,-7.642 0.317,-7.568 0.508,-7.561C1.013,-7.264 1.284,-6.77 1.326,-6.082C1.334,-5.929 1.274,-5.321 1.146,-4.258L0.278,-3.5C0.426,-3.23 0.604,-2.642 0.811,-1.732C0.985,-0.974 1.248,-0.418 1.602,-0.064" style="fill-rule:nonzero;"/></g><g transform="matrix(1,0,0,1,95.8994,645.681)"><path d="M0,10.086C-0.17,10.038 -0.35,10.019 -0.54,10.031C-0.705,10.041 -0.929,10.082 -1.21,10.156C-1.528,10.232 -1.745,10.278 -1.864,10.294C-2.006,10.101 -2.117,9.831 -2.196,9.48C-2.334,8.969 -2.417,8.681 -2.443,8.615C-2.41,8.555 -2.396,8.506 -2.398,8.468C-2.404,8.363 -2.515,8.276 -2.727,8.207C-2.939,8.138 -3.046,8.079 -3.049,8.03C-3.052,7.974 -2.939,7.88 -2.707,7.753C-2.771,7.698 -2.821,7.584 -2.86,7.408C-2.9,7.233 -2.964,7.119 -3.051,7.065C-3.187,7.18 -3.417,7.263 -3.742,7.315C-4.066,7.368 -4.28,7.425 -4.384,7.49C-4.316,8.234 -4.384,9.543 -4.678,9.819C-4.845,9.799 -4.966,9.859 -5.041,9.998C-5.15,10.168 -5.246,10.27 -5.327,10.303L-5.216,10.397C-5.307,10.469 -5.459,10.507 -5.673,10.51C-6.006,10.52 -6.184,10.525 -6.207,10.527L-6.329,10.274L-5.829,1.654C-5.856,1.168 -5.853,0.836 -5.814,0.661C-5.864,0.232 -5.761,-0.043 -5.506,-0.164C-5.334,-0.087 -5.125,-0.057 -4.875,-0.071C-4.675,-0.083 -4.36,-0.139 -3.939,-0.241C-3.517,-0.341 -3.222,-0.398 -3.056,-0.407C-2.474,-0.441 -2.193,-0.122 -2.214,0.552C-2.23,1.091 -2.071,1.786 -1.735,2.641C-1.385,3.561 -1.196,4.256 -1.169,4.725C-1.16,4.868 -0.97,5.173 -0.974,5.316C-1.217,5.446 -1.533,5.537 -1.923,5.588C-2.266,5.627 -2.613,5.668 -2.97,5.707C-3.117,4.985 -3.454,4.109 -3.603,3.398C-3.782,2.544 -3.979,1.846 -4.188,1.3L-4.414,5.432C-4.429,5.788 -4.217,5.953 -3.777,5.927C-3.635,5.919 -3.501,5.882 -3.372,5.817C-3.268,5.783 -3.116,5.837 -2.917,5.979C-2.9,6.276 -2.813,6.448 -2.654,6.496C-2.472,6.38 -2.229,6.266 -1.925,6.151C-1.657,6.049 -1.395,5.953 -1.138,5.861C-0.975,6.015 -0.86,6.253 -0.792,6.576C-0.708,7.031 -0.65,7.296 -0.622,7.371C-0.588,7.552 -0.465,7.939 -0.252,8.531C-0.093,9.002 -0.005,9.385 0.012,9.682C0.021,9.825 0.016,9.96 0,10.086" style="fill-rule:nonzero;"/></g><g transform="matrix(1,0,0,1,98.7325,644.696)"><path d="M0,10.972C-0.127,11.038 -0.322,11.077 -0.583,11.093C-0.927,11.113 -1.134,11.13 -1.204,11.143C-1.242,11.107 -1.288,11.137 -1.365,10.834C-1.413,10.636 -1.537,10.541 -1.738,10.554C-1.787,10.557 -1.844,10.565 -1.916,10.579L-2.235,10.597L-2.407,7.661C-2.232,7.575 -2.016,7.523 -1.755,7.508C-1.505,7.493 -1.283,7.519 -1.09,7.585C-1.095,7.691 -0.943,7.735 -0.636,7.717L-0.297,7.696C-0.096,8.52 0.027,10.012 0,10.972M2.082,1.294L2.101,1.294C1.958,1.504 1.776,1.543 1.553,1.412C1.506,1.405 1.292,1.418 0.913,1.449C0.592,1.468 0.36,1.452 0.214,1.403C0.18,1.406 0.107,1.441 0.005,1.509C-0.098,1.577 -0.173,1.613 -0.221,1.616C-0.291,1.619 -0.332,1.56 -0.338,1.435C-0.339,1.416 -0.344,1.335 -0.353,1.192C-0.358,1.096 -0.403,1.031 -0.489,0.998L-0.71,1.169C-0.78,1.221 -0.812,1.276 -0.809,1.333C-0.806,1.381 -0.766,1.448 -0.688,1.534C-0.613,1.622 -0.568,1.684 -0.555,1.721C-0.551,1.75 -0.527,2.181 -0.479,3.014C-0.461,3.541 -0.364,3.961 -0.19,4.278C-0.146,4.228 -0.039,4.2 0.135,4.195C0.307,4.19 0.421,4.151 0.477,4.081C0.589,4.18 0.776,4.185 1.04,4.098C1.303,4.012 1.492,4.041 1.608,4.187L1.573,5.457C1.466,5.445 1.308,5.391 1.1,5.298C1.04,5.484 0.921,5.6 0.746,5.65C0.675,5.673 0.474,5.694 0.142,5.714C0.15,5.655 0.1,5.597 -0.012,5.535C-0.335,5.689 -0.457,6.055 -0.376,6.636C-0.368,6.578 -0.355,6.678 -0.341,6.937C-0.332,7.099 -0.366,7.217 -0.445,7.288C-0.646,7.319 -0.902,7.274 -1.212,7.153C-1.522,7.032 -1.743,6.974 -1.874,6.983C-1.934,6.986 -1.987,6.994 -2.034,7.007L-2.366,7.112L-2.899,1.311L-2.963,0.208C-2.521,0.057 -1.972,-0.038 -1.318,-0.076C-0.809,-0.105 -0.142,-0.101 0.683,-0.062C0.735,-0.171 0.833,-0.029 0.952,-0.036C1.011,-0.04 1.101,-0.033 1.221,-0.016C1.34,0 1.431,0.008 1.49,0.005C1.562,-0.001 1.626,-0.013 1.684,-0.036L1.769,-0.127C2.01,-0.055 2.137,0.073 2.146,0.254C2.151,0.331 2.129,0.461 2.08,0.648C2.031,0.832 2.01,0.972 2.016,1.068C2.021,1.154 2.043,1.23 2.082,1.294" style="fill-rule:nonzero;"/></g><g transform="matrix(1,0,0,1,107.934,653.581)"><path d="M0,-7.34L0.018,-7.327C-0.149,-7.336 -0.687,-7.3 -1.102,-7.248C-1.456,-7.208 -1.723,-7.201 -1.903,-7.229C-2.075,-7.114 -2.137,-6.957 -2.091,-6.757L-1.979,-6.692C-2.07,-6.61 -2.103,-6.546 -2.075,-6.499L-1.979,-6.404C-2.001,-4.703 -2.006,-3.763 -1.996,-3.58C-1.97,-3.132 -1.916,-2.736 -1.838,-2.395C-1.909,-2.179 -1.937,-1.933 -1.919,-1.656C-1.909,-1.474 -1.865,-1.186 -1.789,-0.793C-1.713,-0.398 -1.611,0.895 -1.599,1.097C-1.591,1.249 -1.594,1.394 -1.61,1.529C-1.773,1.597 -1.949,1.636 -2.14,1.647C-2.459,1.665 -2.804,1.599 -3.169,1.448C-3.214,1.488 -3.265,1.532 -3.321,1.579C-3.378,1.625 -3.394,1.676 -3.366,1.732C-3.483,1.767 -3.647,1.72 -3.856,1.589C-3.97,-0.134 -4.276,-3.642 -4.732,-7.187C-4.892,-7.043 -5.186,-7.163 -5.494,-7.126C-5.86,-7.086 -6.22,-7.142 -6.359,-7.076C-6.537,-7.267 -6.498,-7.322 -6.517,-7.638C-6.534,-7.944 -6.632,-8.699 -6.555,-9.015C-6.537,-9.082 -5.873,-9.044 -5.482,-9.076C-4.949,-9.107 -4.83,-8.981 -4.796,-8.984C-4.751,-9.053 -4.492,-9.018 -4.303,-9.029C-4.179,-8.968 -4.047,-9.084 -4.042,-8.998C-4.038,-8.941 -4.042,-8.578 -4.083,-8.474C-4.124,-8.372 -4.145,-8.297 -4.142,-8.248C-4.135,-8.133 -4.053,-8.302 -3.858,-8.236C-3.644,-8.239 -3.425,-8.247 -3.2,-8.259C-2.948,-8.236 -2.659,-8.329 -2.682,-8.115C-2.639,-8.176 -2.611,-8.069 -2.25,-8.215C-1.983,-8.335 -1.82,-8.651 -1.874,-8.867C-1.902,-8.985 -1.741,-9.061 -1.841,-9.005C-1.713,-9.076 -1.829,-9.027 -1.689,-9.082C-1.246,-9.041 -0.999,-9.087 -0.916,-9.092C-0.737,-9.103 -0.297,-8.987 -0.17,-9.052C-0.076,-8.885 -0.03,-8.361 -0.026,-8.074C-0.011,-7.613 -0.003,-7.369 0,-7.34" style="fill-rule:nonzero;"/></g><g transform="matrix(1,0,0,1,113.149,652.349)"><path d="M0,-6.87C-0.106,-6.854 -0.226,-6.843 -0.356,-6.834C-0.629,-6.819 -0.991,-6.827 -1.447,-6.858C-2.008,-6.883 -2.348,-6.896 -2.467,-6.899C-2.621,-6.689 -2.642,-6.518 -2.621,-6.154C-2.575,-5.37 -2.549,-5.029 -2.544,-5.137C-2.374,-5.07 -2.281,-4.93 -2.271,-4.72C-2.266,-4.432 -2.257,-4.285 -2.243,-4.276C-2.325,-4.243 -2.361,-4.144 -2.353,-3.981C-2.484,-4.011 -2.626,-4.081 -2.774,-4.187C-2.974,-4.32 -3.035,-3.849 -3.03,-3.975L-3.12,-3.684L-3.232,-3.763C-3.326,-3.748 -3.491,-3.776 -3.728,-3.849C-3.965,-3.922 -4.132,-3.994 -4.232,-4.065C-4.24,-4.218 -4.217,-4.306 -4.158,-4.328L-4.401,-4.516L-4.5,-4.38C-4.712,-5.367 -4.854,-7.105 -4.772,-8.164C-4.318,-8.134 -3.787,-8.213 -3.242,-8.236C-2.874,-8.247 -2.356,-8.277 -1.692,-8.324C-0.935,-8.378 -0.389,-8.414 -0.057,-8.433C0.092,-8.337 0.172,-8.203 0.181,-8.031C0.187,-7.925 0.165,-7.754 0.113,-7.516C0.061,-7.278 -0.008,-6.985 0,-6.87M0.551,-0.118L0.549,-0.132C0.485,-0.003 0.453,0.143 0.451,0.305C0.443,0.412 0.453,0.56 0.477,0.751C0.5,0.97 0.515,1.123 0.52,1.209C0.425,1.213 0.045,1.236 -0.62,1.275C-1.022,1.298 -1.383,1.353 -1.699,1.439L-2.053,1.171C-2.145,1.254 -2.175,1.318 -2.149,1.364C-2.209,1.359 -2.482,1.374 -2.969,1.412C-3.348,1.434 -3.635,1.422 -3.828,1.376C-4.009,1.548 -4.233,1.563 -4.504,1.415C-4.602,1.363 -4.62,1.265 -4.557,1.123C-4.493,0.98 -4.523,0.879 -4.646,0.818C-4.652,0.512 -4.638,0.035 -4.604,-0.611C-4.564,-1.187 -4.557,-1.64 -4.575,-1.965C-4.601,-2.406 -4.673,-2.824 -4.789,-3.221C-4.666,-3.332 -4.521,-3.394 -4.355,-3.404C-4.165,-3.415 -3.937,-3.356 -3.665,-3.228C-3.286,-3.049 -3.091,-2.958 -3.079,-2.958L-2.967,-2.866C-2.956,-2.894 -2.906,-3.052 -2.815,-3.335C-2.766,-3.52 -2.685,-3.644 -2.568,-3.709L-2.457,-3.63C-2.41,-3.651 -2.261,-3.751 -2.01,-3.929C-1.815,-4.056 -1.682,-4.521 -1.562,-4.528C-1.432,-4.536 -1.304,-4.485 -1.179,-4.377C-0.972,-4.303 -0.808,-3.78 -0.732,-3.607C-0.657,-3.434 -0.584,-3.264 -0.515,-3.095C-1.048,-3.044 -1.487,-3.023 -1.833,-3.033C-1.91,-2.921 -2.029,-2.898 -2.186,-2.961C-2.344,-3.024 -2.456,-3.005 -2.522,-2.905C-2.513,-2.733 -2.494,-2.422 -2.468,-1.973C-2.456,-1.57 -2.438,-1.255 -2.413,-1.025C-2.382,-0.671 -2.326,-0.349 -2.25,-0.056C-2.154,-0.061 -1.703,-0.088 -0.896,-0.134C-0.34,-0.166 0.143,-0.162 0.551,-0.118" style="fill-rule:nonzero;"/></g><g transform="matrix(1,0,0,1,118.018,651.276)"><path d="M0,-6.163L0.019,-6.149C0.034,-6.083 0.025,-6.318 -0.004,-6.853C-0.021,-7.113 -0.114,-7.3 -0.287,-7.413C-0.386,-7.273 -0.404,-7.599 -0.45,-7.275C-0.496,-6.95 -0.576,-6.718 -0.686,-6.577C-0.984,-6.579 -1.053,-6.756 -1.23,-7.005C-1.341,-7.164 -1.396,-7.026 -1.396,-7.036L-1.476,-6.971C-1.521,-6.929 -1.571,-6.883 -1.628,-6.831C-1.685,-6.78 -1.743,-6.762 -1.804,-6.777C-1.8,-6.722 -1.828,-6.63 -1.887,-6.506C-1.943,-6.383 -1.972,-6.298 -1.97,-6.25C-1.964,-6.164 -1.896,-6.101 -1.762,-6.06C-1.787,-5.867 -1.793,-5.665 -1.781,-5.455C-1.773,-5.34 -1.748,-5.078 -1.699,-4.667C-1.645,-4.344 -1.622,-4.068 -1.633,-3.836C-1.524,-3.833 -1.426,-3.834 -1.328,-3.839C-0.914,-3.863 -0.644,-4.028 -0.52,-4.333C-0.478,-4.422 -0.43,-4.742 -0.379,-5.292C-0.331,-5.707 -0.204,-5.997 0,-6.163M1.604,-0.065L1.587,-0.063C1.512,0.085 1.487,0.297 1.516,0.574C1.55,0.966 1.567,1.167 1.568,1.176C1.509,1.198 1.431,1.17 1.331,1.089C1.179,1.146 1.107,1.242 1.115,1.375C1.116,1.394 1.125,1.426 1.138,1.475C1.142,1.532 1.144,1.571 1.146,1.589C1.152,1.694 1.121,1.774 1.053,1.825C0.88,1.729 0.652,1.669 0.372,1.641C0.091,1.615 -0.176,1.589 -0.427,1.566C-0.432,0.261 -0.607,-1.016 -0.952,-2.263C-0.952,-2.253 -0.96,-2.383 -0.976,-2.651C-0.975,-2.842 -1.018,-2.979 -1.106,-3.06L-1.226,-2.953C-1.226,-2.971 -1.187,-3.01 -1.106,-3.067C-1.027,-3.126 -0.987,-3.183 -0.99,-3.24C-0.993,-3.268 -1.001,-3.297 -1.015,-3.325L-1.146,-3.419C-1.366,-3.347 -1.47,-3.169 -1.452,-2.882C-1.441,-2.69 -1.518,-2.556 -1.68,-2.48C-1.618,-2.435 -1.584,-2.379 -1.579,-2.313C-1.578,-2.275 -1.585,-2.221 -1.598,-2.154C-1.611,-2.085 -1.618,-2.032 -1.616,-1.994C-1.611,-1.908 -1.565,-1.839 -1.479,-1.786C-1.476,-1.728 -1.446,-1.212 -1.39,-0.236C-1.353,0.386 -1.37,0.916 -1.439,1.351L-1.426,1.595C-1.51,1.591 -1.604,1.591 -1.711,1.597C-1.83,1.605 -2.002,1.621 -2.227,1.649C-2.451,1.676 -2.616,1.693 -2.724,1.7C-3.161,1.725 -3.471,1.652 -3.646,1.48L-3.833,-3.881C-3.919,-4.144 -3.976,-4.511 -4.003,-4.98L-4.063,-6.014C-4.104,-6.519 -4.168,-6.909 -4.255,-7.183C-4.22,-7.367 -4.058,-7.468 -3.773,-7.484C-3.594,-7.495 -3.356,-7.47 -3.054,-7.411C-2.915,-7.477 -2.721,-7.518 -2.474,-7.531C-2.4,-7.536 -2.289,-7.537 -2.134,-7.537C-1.967,-7.546 -1.848,-7.553 -1.778,-7.559C-1.314,-7.584 -1.007,-7.727 -0.855,-7.985C-0.642,-7.988 -0.408,-7.92 -0.157,-7.782C0.096,-7.642 0.316,-7.569 0.51,-7.561C1.014,-7.263 1.286,-6.771 1.326,-6.081C1.335,-5.929 1.274,-5.32 1.146,-4.257L0.278,-3.501C0.426,-3.231 0.603,-2.642 0.811,-1.732C0.984,-0.974 1.25,-0.419 1.604,-0.065" style="fill-rule:nonzero;"/></g><g transform="matrix(1,0,0,1,59.6983,629.962)"><path d="M0,-2.542L-0.016,-2.84L-0.11,-2.927L0,-2.542ZM0.902,-3.473L0.902,-3.46C0.85,-2.963 0.831,-2.619 0.85,-2.428C0.773,-2.398 0.675,-2.394 0.552,-2.414C0.395,-2.44 0.304,-2.453 0.276,-2.452C0.208,-2.448 0.153,-2.424 0.112,-2.378C0.013,-2.442 -0.053,-2.47 -0.087,-2.46C-0.181,-2.403 -0.224,-2.322 -0.219,-2.218C-0.216,-2.175 -0.199,-2.1 -0.167,-1.994C-0.137,-1.885 -0.119,-1.807 -0.117,-1.755C-0.114,-1.685 -0.127,-1.576 -0.158,-1.427C-0.19,-1.278 -0.203,-1.156 -0.199,-1.061C-0.192,-0.948 -0.17,-0.771 -0.126,-0.529C-0.084,-0.29 -0.061,-0.107 -0.054,0.014C-0.103,0.251 -0.121,0.491 -0.109,0.733C-0.095,1.027 -0.013,1.423 0.133,1.92C0.159,1.927 0.187,1.93 0.212,1.928C0.271,1.925 0.344,1.881 0.427,1.8C0.509,1.718 0.58,1.675 0.641,1.672C0.685,1.67 0.731,1.681 0.785,1.703C0.94,2.208 1.021,2.534 1.029,2.681C1.032,2.751 1.031,2.824 1.027,2.902C0.796,2.958 0.632,2.879 0.535,2.667C0.548,2.605 0.515,2.541 0.434,2.476L0.175,2.75C0.428,2.79 0.528,2.984 0.478,3.334C0.454,3.405 0.4,3.442 0.313,3.446C0.167,3.446 0.098,3.444 0.106,3.444L-0.107,3.064L-0.193,3.173C-0.265,2.994 -0.347,2.907 -0.44,2.912C-0.493,2.915 -0.584,2.958 -0.715,3.042C-0.844,3.127 -0.952,3.172 -1.039,3.176C-1.108,3.179 -1.178,3.162 -1.249,3.122C-1.255,3.017 -1.267,2.91 -1.284,2.798C-1.304,2.686 -1.362,2.615 -1.459,2.584C-1.463,2.316 -1.455,1.608 -1.436,0.461C-1.427,-0.408 -1.436,-1.11 -1.464,-1.646C-1.475,-1.872 -1.49,-2.093 -1.51,-2.31C-1.556,-2.376 -1.602,-2.409 -1.644,-2.407C-1.68,-2.405 -1.731,-2.367 -1.801,-2.295C-1.871,-2.221 -1.933,-2.188 -1.984,-2.194C-1.989,-2.28 -2.027,-2.42 -2.103,-2.612C-2.177,-2.803 -2.217,-2.942 -2.222,-3.029C-2.229,-3.176 -2.175,-3.305 -2.059,-3.416L-1.756,-3.339C-1.634,-3.51 -1.584,-3.799 -1.605,-4.207C-1.608,-4.283 -1.619,-4.408 -1.637,-4.575C-1.653,-4.744 -1.664,-4.867 -1.668,-4.945C-1.701,-5.612 -1.497,-5.957 -1.057,-5.979C-0.894,-5.988 -0.692,-5.959 -0.455,-5.892L-0.165,-5.815C-0.142,-5.703 -0.127,-5.587 -0.121,-5.466C-0.112,-5.301 -0.12,-5.06 -0.143,-4.742C-0.167,-4.423 -0.174,-4.191 -0.167,-4.044C-0.155,-3.811 -0.115,-3.6 -0.044,-3.413C0.025,-3.416 0.134,-3.454 0.281,-3.526C0.431,-3.599 0.538,-3.637 0.608,-3.64C0.728,-3.647 0.826,-3.59 0.902,-3.473" style="fill-rule:nonzero;"/></g><g transform="matrix(1,0,0,1,65.4532,628.974)"><path d="M0,-2.625C0.026,-2.279 0.048,-1.943 0.064,-1.613C0.137,-0.175 0.114,1.363 -0.003,3.001C-0.127,3.111 -0.319,3.136 -0.578,3.076C-0.836,3.015 -1.024,3.039 -1.139,3.148C-1.288,2.957 -1.375,2.609 -1.399,2.107C-1.436,1.38 -1.455,1.003 -1.456,0.977C-1.488,-0.845 -1.31,-2.317 -0.925,-3.439C-0.478,-3.322 -0.169,-3.051 0,-2.625M-1.288,-3.42L-1.274,-3.422C-1.306,-3.186 -1.342,-2.95 -1.382,-2.713C-1.428,-2.441 -1.505,-2.229 -1.609,-2.076C-1.628,-2.083 -1.734,-2.134 -1.929,-2.229C-2.063,-2.301 -2.182,-2.329 -2.284,-2.315C-2.363,-1.807 -2.405,-1.115 -2.414,-0.238C-2.419,0.882 -2.428,1.56 -2.441,1.795C-2.572,1.785 -2.67,1.826 -2.734,1.921C-2.8,2.016 -2.859,2.112 -2.914,2.209C-2.938,2.263 -2.949,2.312 -2.946,2.354C-2.944,2.424 -2.884,2.491 -2.768,2.553C-2.651,2.618 -2.592,2.689 -2.589,2.767C-2.64,2.952 -2.747,3.048 -2.912,3.057C-2.988,3.06 -3.125,3.037 -3.318,2.985C-3.511,2.935 -3.647,2.912 -3.726,2.916L-3.911,-0.8C-3.838,-0.899 -3.808,-0.966 -3.817,-1L-3.924,-1.073C-3.916,-1.229 -3.907,-2.007 -3.898,-3.406C-3.896,-4.352 -3.858,-5.119 -3.794,-5.704C-3.802,-5.703 -3.535,-5.72 -2.99,-5.757C-2.653,-5.773 -2.436,-5.681 -2.34,-5.478C-2.338,-5.286 -2.357,-4.964 -2.396,-4.511C-2.435,-4.092 -2.448,-3.77 -2.438,-3.544C-2.423,-3.268 -2.381,-3.018 -2.309,-2.795C-2.017,-3.191 -1.676,-3.401 -1.288,-3.42" style="fill-rule:nonzero;"/></g><g transform="matrix(1,0,0,1,68.2159,631.611)"><path d="M0,-4.81L-0.086,-4.702C-0.146,-4.689 -0.218,-4.721 -0.299,-4.795L-0.283,-4.496C-0.416,-4.351 -0.469,-4.127 -0.445,-3.824C-0.419,-3.304 -0.406,-3.053 -0.407,-3.07L-0.019,-3.077C0.168,-3.181 0.254,-3.355 0.241,-3.598C0.235,-3.719 0.193,-3.918 0.114,-4.196C0.035,-4.475 -0.003,-4.679 0,-4.81M1.787,-3.376C1.731,-3.261 1.707,-3.137 1.715,-3.007C1.721,-2.877 1.727,-2.753 1.733,-2.63C1.721,-2.527 1.691,-2.421 1.646,-2.314C1.566,-2.335 1.5,-2.346 1.449,-2.343C1.388,-2.34 1.326,-2.317 1.264,-2.275C1.201,-2.232 1.152,-2.21 1.117,-2.209C1.065,-2.206 0.995,-2.225 0.906,-2.264L0.305,-3.145C0.325,-2.885 0.384,-2.659 0.481,-2.463C0.529,-2.362 0.578,-2.26 0.626,-2.159C0.274,-2.097 0.074,-2.087 0.028,-2.129L-0.056,-2.019L-0.264,-2.296C-0.428,-2.096 -0.465,-1.804 -0.376,-1.417C-0.268,-0.997 -0.262,-0.694 -0.355,-0.507C-0.226,-0.313 -0.069,-0.223 0.112,-0.231C0.19,-0.235 0.259,-0.265 0.315,-0.32C0.4,-0.533 0.484,-0.745 0.57,-0.957C0.695,-1.215 0.837,-1.349 0.991,-1.356C1.112,-1.362 1.254,-1.3 1.417,-1.169C1.611,-1.102 1.711,-1.01 1.717,-0.898C1.72,-0.828 1.676,-0.716 1.584,-0.56C1.492,-0.403 1.449,-0.282 1.453,-0.194C1.454,-0.159 1.461,-0.13 1.471,-0.104C1.345,-0.011 1.232,0.13 1.134,0.317C1.035,0.503 0.905,0.633 0.743,0.701C0.604,0.839 0.473,0.909 0.353,0.916C0.257,0.921 0.114,0.848 -0.075,0.697C-0.264,0.546 -0.441,0.474 -0.606,0.482C-0.674,0.33 -0.842,0.161 -1.112,-0.026C-1.382,-0.212 -1.548,-0.412 -1.61,-0.626C-1.608,-0.609 -1.613,-0.678 -1.62,-0.834C-1.625,-0.92 -1.662,-0.975 -1.732,-0.997L-1.634,-1.094C-1.765,-1.096 -1.832,-1.17 -1.84,-1.318C-1.841,-1.334 -1.842,-1.37 -1.845,-1.422C-1.839,-1.466 -1.836,-1.5 -1.837,-1.526C-1.842,-1.63 -1.877,-1.702 -1.938,-1.743L-1.962,-2.197C-1.974,-2.432 -2.021,-2.598 -2.104,-2.698C-2.02,-3.249 -1.934,-3.801 -1.849,-4.352C-1.709,-4.993 -1.5,-5.32 -1.223,-5.334C-1.18,-5.335 -1.136,-5.33 -1.093,-5.315C-0.845,-5.562 -0.543,-5.694 -0.189,-5.711C0.199,-5.731 0.63,-5.614 1.103,-5.359C1.471,-4.754 1.699,-4.092 1.787,-3.376" style="fill-rule:nonzero;"/></g><g transform="matrix(1,0,0,1,73.0489,638.293)"><path d="M0,3.05L0.386,3.273L1.695,-0.173L1.26,-0.32L-0.051,3.127L0.33,3.37L0,3.05Z"/></g><g transform="matrix(1,0,0,1,73.6211,641.662)"><path d="M0,-0.797L-0.158,-0.735L-0.572,-0.319L-0.242,0L0.181,-0.437L0.015,-0.353L0,-0.797Z"/></g><g transform="matrix(1,0,0,1,76.792,641.164)"><path d="M0,-0.326L0.187,-0.471L-3.171,-0.299L-3.156,0.145L0.201,-0.026L0.416,-0.186L0,-0.326Z"/></g><g transform="matrix(1,0,0,1,78.3086,640.555)"><path d="M0,-2.885L-0.229,-3.17L-1.517,0.283L-1.101,0.423L0.208,-3.025L-0.02,-3.308L0,-2.885Z"/></g><g transform="matrix(1,0,0,1,75.1114,637.33)"><path d="M0,0.449L-0.166,0.532L3.197,0.34L3.178,-0.083L-0.173,0.068L-0.34,0.15L0,0.449Z"/></g><g transform="matrix(1,0,0,1,74.7442,637.555)"><path d="M0,0.565L-0.048,0.64L0.367,0.225L0.027,-0.075L-0.389,0.342L-0.436,0.419L0,0.565Z"/></g><g transform="matrix(1,0,0,1,77.5332,640.999)"><path d="M0,0.249L0.298,0.117L-0.422,-0.285L-0.65,0.124L0.091,0.534L0.415,0.388L-0.021,0.243L0,0.249Z"/></g><g transform="matrix(1,0,0,1,78.9385,640.991)"><path d="M0,-2.925L-0.117,-3.196L-1.427,0.251L-0.99,0.396L0.319,-3.05L0.201,-3.321L0,-2.925Z"/></g><g transform="matrix(1,0,0,1,78.5166,637.804)"><path d="M0,-0.274L-0.324,-0.128L0.422,0.262L0.623,-0.134L-0.097,-0.536L-0.437,-0.42L0,-0.274Z"/></g><g transform="matrix(1,0,0,1,74.5371,644.585)"><path d="M0,-6.535L-0.021,-6.542L0.394,-6.958L3.511,-7.111L3.543,-7.2L3.772,-7.124L3.979,-7.055L3.965,-7.016L4.513,-6.713L4.721,-6.644L4.635,-6.421L6.159,-2.788L4.871,0.665L3.203,-3.268L2.989,-3.178L2.975,-3.343L2.991,-3.385L2.466,-3.676L2.346,-3.462L2.28,-3.668L-0.916,-3.511L-1.331,-3.096L0,-6.535Z" style="fill-rule:nonzero;"/></g><g transform="matrix(1,0,0,1,79.2002,641.387)"><path d="M0,3.793L0.423,3.773L-1.245,-0.16L-1.674,0.02L-0.006,3.953L0.416,3.932L-0.021,3.786L0,3.793Z"/></g><g transform="matrix(1,0,0,1,80.503,645.133)"><path d="M0,-3.238L-0.015,-3.405L-1.323,0.041L-0.887,0.187L0.423,-3.258L0.408,-3.425L0,-3.238Z"/></g><g transform="matrix(1,0,0,1,79.2578,641.727)"><path d="M0,-3.787L-0.423,-3.766L1.245,0.167L1.653,-0.02L-0.015,-3.954L-0.437,-3.933L0,-3.787Z"/></g><g transform="matrix(1,0,0,1,79.1465,641.282)"><path d="M0,-2.454L0.187,-2.044L0.256,-1.628L0.235,-1.219L0.117,-0.796L-0.09,-0.38L-0.375,-0.014L-0.741,0.326L-1.185,0.619L-1.427,0.722L-1.669,0.826L-1.939,0.874L-2.188,0.929L-2.431,0.964L-2.693,0.992L-2.937,0.957L-3.186,0.942L-3.399,0.895L-3.628,0.818L-3.849,0.721L-4.043,0.609L-4.21,0.485L-4.396,0.353L-4.548,0.187L-4.673,0.006L-4.86,-0.403L-4.929,-0.819L-4.929,-1.235L-4.79,-1.651L-4.609,-2.054L-4.319,-2.441L-3.952,-2.781L-3.488,-3.066L-3.267,-3.176L-3.004,-3.274L-2.755,-3.329L-2.506,-3.384L-2.243,-3.412L-2,-3.446L-1.758,-3.412L-1.509,-3.397L-1.281,-3.322L-1.052,-3.246L-0.845,-3.175L-0.631,-3.058L-0.457,-2.954L-0.276,-2.801L-0.152,-2.621L0,-2.454Z" style="fill:white;"/></g><g transform="matrix(1,0,0,1,79.3116,641.99)"><path d="M0,-2.482L0.188,-2.072L0.25,-1.636L0.229,-1.226L0.118,-0.824L-0.069,-0.401L-0.38,-0.021L-0.72,0.306L-1.184,0.59L-1.433,0.715L-1.675,0.819L-1.925,0.874L-2.194,0.922L-2.436,0.956L-2.671,0.971L-2.921,0.956L-3.184,0.916L-3.398,0.866L-3.627,0.789L-3.827,0.699L-4.042,0.582L-4.215,0.478L-4.375,0.331L-4.534,0.186L-4.672,-0.022L-4.866,-0.41L-4.935,-0.827L-4.908,-1.257L-4.797,-1.659L-4.609,-2.081L-4.325,-2.449L-3.959,-2.789L-3.495,-3.073L-3.246,-3.197L-3.011,-3.281L-2.754,-3.357L-2.483,-3.405L-2.248,-3.419L-2.007,-3.453L-1.764,-3.419L-1.515,-3.405L-1.278,-3.35L-1.051,-3.274L-0.85,-3.183L-0.629,-3.086L-0.464,-2.96L-0.276,-2.83L-0.151,-2.648L-0.006,-2.461L0,-2.482Z"/></g><g transform="matrix(1,0,0,1,79.4297,642.425)"><path d="M0,-2.439L0.194,-2.05L0.257,-1.613L0.234,-1.204L0.125,-0.802L-0.083,-0.386L-0.374,0.003L-0.713,0.328L-1.177,0.613L-1.405,0.744L-1.668,0.842L-1.919,0.896L-2.188,0.945L-2.43,0.979L-2.665,0.993L-2.914,0.979L-3.178,0.938L-3.393,0.89L-3.621,0.813L-3.821,0.723L-4.035,0.605L-4.209,0.5L-4.389,0.347L-4.52,0.189L-4.666,0.001L-4.859,-0.387L-4.93,-0.804L-4.909,-1.212L-4.79,-1.636L-4.603,-2.059L-4.312,-2.447L-3.933,-2.76L-3.487,-3.05L-3.238,-3.174L-2.997,-3.279L-2.748,-3.334L-2.478,-3.382L-2.234,-3.417L-2,-3.432L-1.73,-3.411L-1.508,-3.382L-1.272,-3.326L-1.045,-3.251L-0.823,-3.153L-0.629,-3.041L-0.456,-2.939L-0.27,-2.806L-0.146,-2.626L0,-2.439Z" style="fill:white;"/></g><g transform="matrix(1,0,0,1,79.5957,643.154)"><path d="M0,-2.489L0.187,-2.079L0.257,-1.663L0.257,-1.246L0.117,-0.831L-0.062,-0.428L-0.374,-0.048L-0.72,0.3L-1.185,0.583L-1.405,0.695L-1.669,0.791L-1.918,0.847L-2.166,0.902L-2.43,0.93L-2.673,0.964L-2.915,0.93L-3.163,0.916L-3.399,0.86L-3.628,0.784L-3.828,0.693L-4.043,0.575L-4.209,0.45L-4.374,0.326L-4.527,0.159L-4.673,-0.028L-4.839,-0.43L-4.929,-0.854L-4.908,-1.263L-4.79,-1.685L-4.589,-2.081L-4.298,-2.469L-3.932,-2.809L-3.488,-3.1L-3.246,-3.204L-3.003,-3.308L-2.733,-3.357L-2.484,-3.411L-2.242,-3.447L-1.986,-3.453L-1.737,-3.439L-1.509,-3.432L-1.273,-3.377L-1.045,-3.301L-0.823,-3.203L-0.63,-3.092L-0.443,-2.96L-0.276,-2.836L-0.125,-2.669L-0.007,-2.468L0,-2.489Z"/></g><g transform="matrix(1,0,0,1,79.8389,643.565)"><path d="M0,-2.448L0.193,-2.059L0.262,-1.643L0.256,-1.206L0.144,-0.804L-0.063,-0.388L-0.375,-0.006L-0.714,0.319L-1.157,0.611L-1.406,0.735L-1.669,0.832L-1.918,0.888L-2.169,0.942L-2.432,0.971L-2.666,0.985L-2.916,0.971L-3.158,0.936L-3.393,0.881L-3.621,0.803L-3.822,0.713L-4.023,0.623L-4.21,0.491L-4.369,0.345L-4.521,0.179L-4.646,-0.001L-4.84,-0.39L-4.923,-0.834L-4.902,-1.243L-4.771,-1.637L-4.583,-2.061L-4.293,-2.449L-3.932,-2.768L-3.489,-3.06L-3.24,-3.183L-2.998,-3.288L-2.734,-3.316L-2.479,-3.392L-2.236,-3.427L-1.98,-3.433L-1.73,-3.419L-1.51,-3.391L-1.273,-3.335L-1.026,-3.253L-0.824,-3.162L-0.623,-3.072L-0.437,-2.941L-0.277,-2.795L-0.125,-2.629L0,-2.448Z" style="fill:white;"/></g><g transform="matrix(1,0,0,1,80.0264,644.257)"><path d="M0,-2.453L0.164,-2.051L0.255,-1.628L0.233,-1.218L0.116,-0.796L-0.085,-0.4L-0.377,-0.013L-0.743,0.327L-1.186,0.619L-1.428,0.723L-1.691,0.82L-1.94,0.875L-2.189,0.931L-2.432,0.964L-2.694,0.992L-2.937,0.959L-3.186,0.943L-3.401,0.896L-3.65,0.813L-3.851,0.722L-4.045,0.61L-4.231,0.479L-4.397,0.354L-4.55,0.188L-4.675,0.006L-4.86,-0.402L-4.951,-0.825L-4.93,-1.234L-4.791,-1.651L-4.611,-2.053L-4.32,-2.441L-3.954,-2.78L-3.49,-3.065L-3.269,-3.175L-3.005,-3.272L-2.756,-3.328L-2.508,-3.384L-2.244,-3.411L-2.002,-3.445L-1.759,-3.411L-1.531,-3.404L-1.274,-3.341L-1.047,-3.265L-0.846,-3.174L-0.652,-3.064L-0.465,-2.932L-0.299,-2.807L-0.146,-2.64L0,-2.453Z"/></g><g transform="matrix(1,0,0,1,57.1416,639.853)"><path d="M0,-3.343L0.021,-3.474L-1.296,-0.008L-0.881,0.131L0.436,-3.336L0.442,-3.426L0,-3.343Z"/></g><g transform="matrix(1,0,0,1,57.1075,636.379)"><path d="M0,-0.042L0.006,-0.063L0.034,0.131L0.477,0.049L0.429,-0.152L0.436,-0.173L0,-0.042Z"/></g><g transform="matrix(0.241399,0.970426,0.970426,-0.241399,57.275,635.927)"><rect x="0.15" y="-0.261" width="0.185" height="0.454"/></g><g transform="matrix(0.290741,0.956802,0.956802,-0.290741,57.2007,635.739)"><rect x="0.15" y="-0.252" width="0.189" height="0.455"/></g><g transform="matrix(1,0,0,1,56.9551,635.823)"><path d="M0,-0.069L0.048,0.132L0.484,0.001L0.436,-0.201L0.429,-0.18L0,-0.069Z"/></g><g transform="matrix(1,0,0,1,56.8994,635.712)"><path d="M0,-0.208L0,-0.138L0.056,0.042L0.484,-0.069L0.43,-0.25L0.45,-0.172L0,-0.208Z"/></g><g transform="matrix(1,0,0,1,57.3418,635.421)"><path d="M0,0.001L-0.437,-0.076L-0.442,0.084L0.008,0.119L0.014,-0.041L-0.422,-0.118L-0.007,0.022L0,0.001Z"/></g><g transform="matrix(-0.181613,-0.98337,-0.98337,0.181613,57.4829,645.191)"><rect x="-0.36" y="-0.174" width="0.235" height="0.47" style="fill:rgb(76,72,73);"/></g><g transform="matrix(1,0,0,1,58.6836,645.984)"><path d="M0,-3.363L0.013,-3.474L-1.295,-0.028L-0.881,0.111L0.429,-3.335L0.422,-3.453L0,-3.363Z"/></g><g transform="matrix(1,0,0,1,58.6494,642.53)"><path d="M0,-0.151L0.034,0.091L0.456,0.001L0.422,-0.242L-0.021,-0.158L0,-0.151Z"/></g><g transform="matrix(0.180826,0.983515,0.983515,-0.180826,58.851,641.966)"><rect x="0.132" y="-0.293" width="0.224" height="0.451"/></g><g transform="matrix(1,0,0,1,58.5313,642.065)"><path d="M0,-0.165L0.015,-0.137L0.056,0.084L0.478,-0.005L0.443,-0.249L0.457,-0.22L0,-0.165Z"/></g><g transform="matrix(1,0,0,1,58.9473,641.754)"><path d="M0,-0.062L-0.443,-0.118L-0.416,0.146L0.041,0.091L0.006,-0.152L-0.437,-0.208L0,-0.062Z"/></g><g transform="matrix(1,0,0,1,55.8477,639.222)"><path d="M0,-0.064L-0.209,0L0,-0.064Z" style="fill:rgb(76,72,73);fill-rule:nonzero;"/></g><g transform="matrix(1,0,0,1,56.0664,639.964)"><path d="M0,-0.082L0.008,-0.103L0.115,-0.096L0.194,0.021L0.002,-0.043L0,-0.082Z" style="fill:rgb(76,72,73);fill-rule:nonzero;"/></g><g transform="matrix(1,0,0,1,55.5899,636.462)"><path d="M0,2.558L0.222,2.516L0.229,2.357L1.545,-1.11L1.538,-1.089L1.538,-0.951L1.572,-0.778L1.643,-0.568L1.697,-0.389L1.744,-0.188L1.78,-0.015L1.987,0.055L0.671,3.522L0.592,3.405L0.484,3.398L0.477,3.419L0.479,3.458L0.671,3.522L0.479,3.51L0.484,3.668L0.351,3.502L0.242,3.494L0.215,3.3L0.294,3.283L0.379,3.06L0.159,3.12L0.097,2.96L0.049,2.76L0.258,2.696L0.049,2.76L0.056,2.739L0,2.558Z" style="fill-rule:nonzero;"/></g><g transform="matrix(1,0,0,1,56.0606,640.202)"><path d="M0,-0.516L9.636,-0.832L9.885,-0.817L9.926,-0.804L10.163,-0.748L10.183,-0.741L10.433,-0.658L10.675,-0.554L10.695,-0.546L10.924,-0.401L10.965,-0.387L11.146,-0.235L11.201,-0.194L11.331,-0.034L11.346,-0.006L11.436,0.14L11.442,0.188L11.019,0.316L10.95,0.209L10.944,0.23L10.833,0.077L10.835,0.076L10.688,-0.04L10.723,-0.006L10.487,-0.13L10.488,-0.132L10.244,-0.235L10.037,-0.303L9.802,-0.36L9.844,-0.346L9.621,-0.374L9.622,-0.395L0.014,-0.072L0,-0.516Z" style="fill-rule:nonzero;"/></g><g transform="matrix(1,0,0,1,67.0674,640.554)"><path d="M0,-0.031L0.012,-0.035L0.034,0.004L0,-0.031Z" style="fill-rule:nonzero;"/></g><g transform="matrix(1,0,0,1,72.2149,651.961)"><path d="M0,-3.337L0,-3.475L-1.315,-0.008L-0.879,0.138L0.437,-3.329L0.437,-3.467L0,-3.337Z"/></g><g transform="matrix(1,0,0,1,68.4102,648.388)"><path d="M0,-11.277L-0.027,-11.332L3.805,0.236L4.241,0.106L0.409,-11.464L0.401,-11.513L0,-11.277Z"/></g><g transform="matrix(1,0,0,1,68.335,636.84)"><path d="M0,0.154L-0.014,0.126L0.075,0.271L0.477,0.035L0.388,-0.11L0.366,-0.117L-0.021,0.147L0,0.154Z"/></g><g transform="matrix(1,0,0,1,68.2442,636.639)"><path d="M0,0.208L-0.035,0.174L0.069,0.347L0.457,0.084L0.312,-0.104L0.277,-0.139L0,0.208Z"/></g><g transform="matrix(1,0,0,1,68.0918,636.43)"><path d="M0,0.321L-0.035,0.286L0.152,0.417L0.43,0.071L0.243,-0.061L0.208,-0.096L0,0.321Z"/></g><g transform="matrix(1,0,0,1,67.8838,636.342)"><path d="M0,0.269L-0.021,0.263L0.208,0.409L0.416,-0.008L0.181,-0.132L0.16,-0.14L0,0.269Z"/></g><g transform="matrix(1,0,0,1,67.6631,636.19)"><path d="M0,0.324L-0.049,0.331L0.221,0.422L0.381,0.013L0.139,-0.091L0.117,-0.098L-0.027,0.339L0,0.324Z"/></g><g transform="matrix(1,0,0,1,67.4141,636.105)"><path d="M0,0.326L-0.028,0.34L0.222,0.423L0.366,-0.013L0.117,-0.097L-0.008,0.347L0,0.326Z"/></g><g transform="matrix(1,0,0,1,67.2198,636.001)"><path d="M0,0.389L-0.041,0.376L0.187,0.451L0.312,0.007L0.055,-0.055L0.034,-0.062L0,0.389Z"/></g><g transform="matrix(1,0,0,1,66.9981,635.931)"><path d="M0,0.43L-0.007,0.451L0.222,0.458L0.256,0.008L0.014,-0.028L-0.014,-0.013L0,0.43Z"/></g><g transform="matrix(1,0,0,1,57.5977,636.07)"><path d="M0,0.454L-0.234,0.606L9.4,0.291L9.387,-0.152L-0.228,0.17L-0.436,0.309L-0.021,0.447L0,0.454Z"/></g><g transform="matrix(1,0,0,1,60.0186,647.039)"><path d="M0,0.027L-0.033,0.01L-0.013,0L0,0.027Z" style="fill:rgb(76,72,73);fill-rule:nonzero;"/></g><g transform="matrix(1,0,0,1,65.2227,649.094)"><path d="M0,-0.467L-0.04,0L0,-0.467Z" style="fill:rgb(76,72,73);fill-rule:nonzero;"/></g><g transform="matrix(1,0,0,1,57.4092,645.632)"><path d="M0,-0.568L0.009,-0.525L-0.014,-0.536L0,-0.568ZM-0.16,-0.023L-0.118,0.199L-0.035,0.435L0.069,0.609L0.657,0.921L1.245,1.235L1.813,1.539L2.388,1.823L2.408,1.83L2.99,2.094L3.572,2.357L4.201,2.615L4.838,2.85L4.859,2.858L5.537,3.038L6.216,3.219L6.236,3.225L6.983,3.336L7.752,3.455L7.773,3.462L8.61,3.511L8.639,3.496L9.531,3.518L10.487,3.491L11.497,3.437L11.705,3.297L13.014,-0.15L12.792,-0.455L12.806,-0.01L12.736,-0.098L12.786,-0.225L12.641,-0.217L12.577,-0.295L12.547,-0.21L11.796,-0.164L10.827,-0.164L9.934,-0.185L9.117,-0.227L8.321,-0.332L7.581,-0.463L6.901,-0.644L6.223,-0.824L5.587,-1.06L4.97,-1.291L4.39,-1.553L3.813,-1.839L3.219,-2.13L2.651,-2.434L2.085,-2.74L1.69,-2.949L1.703,-2.983L1.495,-3.053L1.44,-3.302L1.399,-3.525L1.383,-3.6L1.538,-3.94L1.319,-4.013L1.31,-4.017L1.102,-4.086L-0.207,-0.64L-0.222,-0.529L-0.187,-0.286L-0.16,-0.023Z" style="fill-rule:nonzero;"/></g><g transform="matrix(0.998521,-0.0543749,-0.0543749,-0.998521,69.2194,645.703)"><rect x="-0.013" y="0.027" width="1.022" height="0.445"/></g><g transform="matrix(0.9996,-0.0282906,-0.0282906,-0.9996,68.2579,645.717)"><rect x="-0.006" y="0.013" width="0.952" height="0.445"/></g><g transform="matrix(1,0,0,1,67.336,645.252)"><path d="M0,0.423L0.021,0.43L0.915,0.451L0.9,0.007L0.008,-0.014L0.035,-0.028L-0.007,0.444L0,0.423Z"/></g><g transform="matrix(1,0,0,1,66.4766,645.253)"><path d="M0,0.367L0.021,0.374L0.853,0.444L0.895,-0.029L0.056,-0.077L0.077,-0.07L0,0.367Z"/></g><g transform="matrix(0.9921,0.125453,0.125453,-0.9921,65.6821,645.467)"><rect x="0.026" y="-0.052" width="0.804" height="0.442"/></g><g transform="matrix(1,0,0,1,64.9405,645.086)"><path d="M0,0.297L0.021,0.305L0.761,0.436L0.845,-0.02L0.076,-0.139L0.097,-0.133L0,0.297Z"/></g><g transform="matrix(1,0,0,1,64.2627,644.953)"><path d="M0,0.25L0.678,0.43L0.774,0L0.097,-0.18L-0.008,0.271L0,0.25Z"/></g><g transform="matrix(1,0,0,1,63.5557,644.78)"><path d="M0,0.257L0.021,0.264L0.699,0.444L0.804,-0.007L0.125,-0.187L0.146,-0.18L0,0.257Z"/></g><g transform="matrix(1,0,0,1,62.919,644.6)"><path d="M0,0.2L0.637,0.437L0.783,-0.001L0.146,-0.237L0.167,-0.23L-0.02,0.193L0,0.2Z"/></g><g transform="matrix(0.925087,0.379756,0.379756,-0.925087,62.2869,644.385)"><rect x="0.063" y="-0.145" width="0.671" height="0.462"/></g><g transform="matrix(0.910688,0.413095,0.413095,-0.910688,61.7139,644.114)"><rect x="0.063" y="-0.153" width="0.635" height="0.464"/></g><g transform="matrix(1,0,0,1,61.1133,643.878)"><path d="M0,0.11L0.014,0.138L0.595,0.402L0.774,0L0.18,-0.292L0.2,-0.285L-0.008,0.131L0,0.11Z"/></g><g transform="matrix(1,0,0,1,60.5381,643.614)"><path d="M0,0.09L0.567,0.396L0.775,-0.02L0.201,-0.306L-0.006,0.111L0,0.09Z"/></g><g transform="matrix(1,0,0,1,59.9707,643.328)"><path d="M0,0.071L0.562,0.396L0.769,-0.02L0.201,-0.325L-0.021,0.064L0,0.071Z"/></g><g transform="matrix(0.880022,0.474933,0.474933,-0.880022,59.4104,642.894)"><rect x="0.067" y="-0.182" width="0.655" height="0.448"/></g><g transform="matrix(1,0,0,1,59.1123,642.823)"><path d="M0,-0.174L-0.318,-0.05L0.271,0.263L0.491,-0.126L-0.097,-0.437L-0.416,-0.313L0,-0.174Z"/></g><g transform="matrix(1,0,0,1,119.117,640.932)"><path d="M0,-4.529L-1.317,-1.062L2.981,0.375L3.979,-1.928L4.006,-2.149L4.014,-2.379L3.979,-2.621L3.896,-2.856L3.758,-3.066L3.646,-3.288L3.467,-3.509L3.28,-3.71L3.086,-3.891L2.872,-4.079L2.649,-4.245L2.436,-4.363L2.228,-4.501L1.984,-4.605L1.771,-4.723L1.563,-4.794L1.377,-4.855L1.153,-4.883L0.954,-4.904L0.76,-4.876L0.566,-4.849L0.359,-4.779L0.178,-4.655L0,-4.529Z"/></g><g transform="matrix(1,0,0,1,121.905,639.958)"><path d="M0,1.237L0.27,1.119L-4.028,-0.318L-4.176,0.119L0.124,1.555L0.414,1.446L0,1.237Z"/></g><g transform="matrix(1,0,0,1,55.5899,635.511)"><path d="M0,3.301L0.021,3.239L1.33,-0.208L1.745,-0.069L0.476,3.334L0.449,3.474L0.443,3.426L0,3.509L-0.007,3.461L0,3.301Z" style="fill-rule:nonzero;"/></g><g transform="matrix(1,0,0,1,76.667,647.016)"><path d="M0,-0.047L-0.077,0L-0.083,-0.006L0,-0.047Z" style="fill:rgb(76,72,73);fill-rule:nonzero;"/></g><g transform="matrix(1,0,0,1,124.938,648.488)"><path d="M0,-8.585L0.014,-8.616L0.173,-8.464L0,-8.585ZM-69.188,-8.906L-69.14,-8.705L-69.133,-8.726L-68.799,-8.797L-68.884,-8.573L-59.248,-8.889L-59.02,-8.881L-58.771,-8.798L-58.521,-8.715L-58.272,-8.631L-58.044,-8.486L-57.856,-8.355L-57.726,-8.195L-57.645,-8.034L-57.87,-7.965L-54.038,3.603L-53.814,3.608L-53.809,3.75L-53.464,3.75L-53.138,3.743L-52.841,3.75L-52.57,3.701L-52.294,3.632L-52.017,3.494L-51.761,3.278L-51.457,2.987L-51.449,2.966L-51.276,2.724L-51.075,2.468L-50.847,2.197L-50.688,1.927L-50.486,1.601L-50.279,1.324L-50.105,1.012L-49.885,0.692L-49.705,0.43L-49.448,0.144L-49.24,-0.132L-48.998,-0.376L-48.783,-0.604L-48.555,-0.804L-48.333,-0.985L-48.077,-1.13L-48.022,-1.159L-48.186,-1.316L-48.022,-1.159L-47.766,-1.443L-47.53,-1.665L-47.322,-1.874L-47.101,-2.053L-46.885,-2.212L-46.658,-2.344L-46.457,-2.461L-46.235,-2.572L-45.986,-2.627L-45.743,-2.731L-45.494,-2.787L-45.204,-2.829L-44.885,-2.884L-44.533,-2.905L-44.151,-2.939L-43.778,-2.953L-43.757,-2.946L-2.175,-6.059L-1.933,-6.092L-1.712,-6.135L-1.51,-6.183L-1.302,-6.252L-1.109,-6.349L-0.908,-6.467L-0.741,-6.62L-0.548,-6.785L-0.506,-6.842L0.221,-8.54L-0.158,-8.783L0.009,-8.621L-0.018,-8.598L-0.201,-8.728L-0.383,-8.303L-0.506,-8.229L-0.665,-8.166L-0.853,-8.089L-1.026,-8.055L-1.248,-8.014L-1.467,-7.973L-43.071,-4.867L-43.335,-4.839L-43.591,-4.832L-43.846,-4.826L-44.117,-4.777L-44.394,-4.777L-44.636,-4.743L-44.899,-4.714L-45.142,-4.68L-45.412,-4.631L-45.653,-4.598L-45.902,-4.543L-46.179,-4.474L-46.43,-4.417L-46.691,-4.321L-46.955,-4.224L-47.204,-4.099L-47.696,-3.8L-48.194,-3.344L-48.72,-2.802L-49.227,-2.186L-49.718,-1.541L-50.14,-0.965L-50.556,-0.411L-50.901,0.006L-51.103,0.054L-51.275,0.089L-51.49,0.109L-51.698,0.109L-51.905,0.109L-52.085,0.096L-52.313,0.088L-52.515,0.067L-56.333,-11.474L-56.416,-11.641L-56.547,-11.8L-56.734,-11.932L-56.984,-12.085L-57.227,-12.189L-57.475,-12.273L-57.71,-12.329L-57.939,-12.335L-67.567,-12.041L-68.725,-8.99L-68.731,-9.031L-69.188,-8.906Z" style="fill-rule:nonzero;"/></g><g transform="matrix(1,0,0,1,123.483,639.705)"><path d="M0,1.047L0.249,0.991L0.471,0.95L0.672,0.901L0.88,0.832L1.073,0.735L1.273,0.617L1.432,0.485L1.627,0.318L1.296,0L1.148,0.16L0.997,0.27L0.851,0.36L0.692,0.423L0.538,0.464L0.36,0.52L0.167,0.547L-0.049,0.568L0,1.047Z"/></g><g transform="matrix(0.997246,-0.074165,-0.074165,-0.997246,82.0969,645.379)"><rect x="-0.075" y="1.545" width="41.677" height="0.48"/></g><g transform="matrix(1,0,0,1,77.8301,643.386)"><path d="M0,1.197L0.243,1.093L0.479,1.01L0.762,0.92L0.997,0.837L1.253,0.761L1.495,0.726L1.737,0.692L2.007,0.643L2.229,0.601L2.485,0.595L2.748,0.567L3.011,0.54L3.274,0.512L3.51,0.499L3.793,0.478L4.077,0.458L4.023,0L3.759,0.027L3.496,0.054L3.22,0.054L2.956,0.082L2.7,0.089L2.451,0.145L2.194,0.152L1.91,0.172L1.661,0.228L1.411,0.282L1.143,0.331L0.865,0.401L0.63,0.483L0.347,0.573L0.062,0.663L-0.187,0.788L0,1.197Z"/></g><g transform="matrix(1,0,0,1,74.1045,644.175)"><path d="M0,4.527L0.09,4.465L0.277,4.25L0.444,4.029L0.644,3.772L0.852,3.494L1.088,3.204L1.303,2.904L1.545,2.592L1.787,2.281L2.036,1.948L2.292,1.663L2.542,1.4L2.798,1.116L3.013,0.887L3.282,0.7L3.503,0.52L3.726,0.409L3.539,0L3.255,0.159L3.013,0.332L2.729,0.561L2.459,0.818L2.21,1.082L1.96,1.345L1.684,1.692L1.441,2.003L1.198,2.315L0.956,2.627L0.742,2.925L0.506,3.216L0.299,3.494L0.098,3.751L-0.068,3.972L-0.221,4.152L-0.138,4.111L0,4.527Z"/></g><g transform="matrix(1,0,0,1,66.1407,633.71)"><path d="M0,2.458L0.857,2.444L0.927,2.444L-6.444,-0.021L-6.818,0.201L-0.008,2.479L0,2.458Z" style="fill:white;"/></g><g transform="matrix(1,0,0,1,66.1407,634.177)"><path d="M0,1.991L-8.771,2.271L-8.807,2.098L-8.854,1.897L-8.908,1.718L-8.979,1.508L-9.013,1.335L-9.013,1.197L-8.958,1.031L-8.806,0.919L-8.445,0.669L-8.044,0.434L-7.643,0.199L-7.241,-0.037L-6.859,-0.28L-6.818,-0.266L-0.008,2.012L0,1.991Z" style="fill:white;"/></g><g transform="matrix(1,0,0,1,60.8086,645.132)"><path d="M0,-3.628L5.974,-3.964L8.313,-3.021L9.138,-0.572L9.387,0.275L8.396,0.336L7.428,0.336L6.534,0.315L5.718,0.273L4.922,0.168L4.182,0.037L3.502,-0.144L2.823,-0.325L2.188,-0.561L1.57,-0.791L0.99,-1.054L0.414,-1.339L-0.181,-1.63L-0.748,-1.935L-1.314,-2.241L-1.904,-2.553L-1.959,-2.803L-2,-3.025L-2.056,-3.273L-2.09,-3.517L0,-3.628Z" style="fill:white;fill-rule:nonzero;"/></g><g transform="matrix(1,0,0,1,75.8584,642.448)"><path d="M0,-0.258L0.082,-0.161L0.851,0.304L1.1,-0.098L0.331,-0.562L0.407,-0.445L0,-0.258L0.027,-0.202L0.082,-0.161L0,-0.258Z" style="fill:white;"/></g><g transform="matrix(1,0,0,1,69.0244,645.053)"><path d="M0,-2.72L-0.131,-2.88L0.962,0.422L1.398,0.29L0.306,-3.012L0.188,-3.142L0.306,-3.012L0.271,-3.115L0.188,-3.142L0,-2.72Z" style="fill:white;"/></g><g transform="matrix(1,0,0,1,66.8037,641.883)"><path d="M0,-0.5L-0.11,-0.513L2.221,0.451L2.409,0.028L0.076,-0.937L-0.014,-0.944L0.076,-0.937L0.034,-0.951L-0.014,-0.944L0,-0.5Z" style="fill:white;"/></g><g transform="matrix(1,0,0,1,58.9532,641.189)"><path d="M0,0.413L-0.222,0.663L7.851,0.194L7.837,-0.25L-0.234,0.218L-0.449,0.447L-0.234,0.218L-0.491,0.225L-0.449,0.447L0,0.413Z" style="fill:white;"/></g><g transform="matrix(1,0,0,1,59.0157,641.989)"><path d="M0,0.397L0.09,0.543L0.084,0.425L0.056,0.299L0.049,0.181L0.014,0.078L0.008,-0.04L-0.021,-0.165L-0.056,-0.27L-0.062,-0.387L-0.512,-0.353L-0.513,-0.214L-0.491,-0.068L-0.457,0.036L-0.449,0.154L-0.416,0.257L-0.388,0.383L-0.338,0.514L-0.332,0.632L-0.222,0.784L-0.332,0.632L-0.297,0.737L-0.222,0.784L0,0.397Z" style="fill:white;"/></g><g transform="matrix(1,0,0,1,69.9942,642.635)"><path d="M0,2.82L0.187,2.535L-0.804,2.597L-1.758,2.625L-2.623,2.59L-3.462,2.541L-4.209,2.43L-4.957,2.318L-5.635,2.138L-6.292,1.964L-6.93,1.728L-7.517,1.484L-8.106,1.242L-8.681,0.958L-9.255,0.673L-9.822,0.368L-10.391,0.062L-10.979,-0.249L-11.2,0.138L-10.611,0.451L-10.044,0.757L-9.462,1.089L-8.889,1.374L-8.286,1.644L-7.704,1.908L-7.075,2.165L-6.438,2.402L-5.739,2.589L-5.054,2.748L-4.293,2.887L-3.496,2.992L-2.665,3.062L-1.743,3.069L-0.789,3.042L0.242,2.993L0.429,2.709L0.242,2.993L0.526,2.972L0.429,2.709L-0.008,2.841L0,2.82Z" style="fill:white;"/></g><g transform="matrix(1,0,0,1,81.8535,645.055)"><path d="M0,-1.669L-0.306,-1.656L-0.646,-1.607L-0.949,-1.594L-1.282,-1.566L-1.601,-1.51L-1.939,-1.462L-2.278,-1.414L-2.604,-1.338L-2.931,-1.262L-3.212,-1.171L-3.524,-1.067L-3.815,-0.957L-4.064,-0.832L-4.362,-0.7L-4.604,-0.527L-4.827,-0.346L-4.549,0L-4.336,-0.159L-4.128,-0.298L-3.899,-0.43L-3.636,-0.527L-3.379,-0.672L-3.103,-0.742L-2.777,-0.817L-2.494,-0.908L-2.182,-0.942L-1.905,-1.011L-1.572,-1.039L-1.254,-1.094L-0.914,-1.143L-0.583,-1.17L-0.271,-1.205L0.054,-1.211L0,-1.669Z" style="fill:white;"/></g><g transform="matrix(-0.997211,0.0746331,0.0746331,0.997211,82.0937,645.389)"><rect x="-41.607" y="-2.015" width="41.678" height="0.461" style="fill:white;"/></g><g transform="matrix(1,0,0,1,124.211,640.483)"><path d="M0,-2.748L0.172,-2.505L0.353,-2.282L0.437,-2.047L0.567,-1.817L0.636,-1.609L0.657,-1.394L0.664,-1.207L0.65,-1.027L0.602,-0.881L0.531,-0.743L0.442,-0.611L0.282,-0.48L0.117,-0.395L-0.147,-0.299L-0.423,-0.23L-0.776,-0.209L-0.728,0.27L-0.347,0.235L-0.015,0.137L0.276,0.027L0.531,-0.119L0.769,-0.271L0.934,-0.493L1.023,-0.695L1.106,-0.943L1.1,-1.202L1.114,-1.45L1.059,-1.7L0.968,-1.983L0.864,-2.227L0.727,-2.505L0.546,-2.795L0.366,-3.018L0,-2.748Z" style="fill:white;"/></g><g transform="matrix(1,0,0,1,119.254,637.284)"><path d="M0,-1.922L0.375,-1.936L0.755,-1.901L1.143,-1.818L1.517,-1.762L1.869,-1.645L2.223,-1.526L2.562,-1.366L2.88,-1.214L3.213,-1.034L3.518,-0.839L3.844,-0.639L4.078,-0.444L4.326,-0.222L4.569,0.021L4.77,0.25L4.957,0.451L5.323,0.181L5.109,-0.076L4.866,-0.318L4.624,-0.561L4.354,-0.791L4.058,-1.005L3.76,-1.22L3.455,-1.415L3.109,-1.624L2.749,-1.79L2.382,-1.936L2.008,-2.06L1.614,-2.193L1.226,-2.276L0.831,-2.339L0.381,-2.373L-0.014,-2.366L0,-1.922Z" style="fill:white;"/></g><g transform="matrix(0.999406,-0.0344716,-0.0344716,-0.999406,82.5034,637.265)"><rect x="-0.019" y="0.635" width="36.814" height="0.444" style="fill:white;"/></g><g transform="matrix(1,0,0,1,76.6543,636.223)"><path d="M0,-0.517L0.347,-0.377L0.714,-0.301L1.066,-0.184L1.434,-0.108L1.82,-0.023L2.182,0.074L2.576,0.136L2.929,0.185L3.296,0.262L3.677,0.295L4.05,0.351L4.418,0.359L4.77,0.407L5.145,0.394L5.482,0.415L5.809,0.408L5.815,-0.029L5.47,-0.029L5.13,-0.049L4.811,-0.064L4.451,-0.092L4.092,-0.12L3.732,-0.147L3.379,-0.197L3.005,-0.252L2.639,-0.328L2.286,-0.377L1.925,-0.475L1.552,-0.53L1.191,-0.627L0.811,-0.731L0.492,-0.815L0.139,-0.932L-0.006,-0.496L0,-0.517Z" style="fill:white;"/></g><g transform="matrix(1,0,0,1,64.2442,635.061)"><path d="M0,-2.764L0.631,-2.855L1.225,-2.91L1.793,-2.951L2.313,-2.986L2.805,-3.006L3.247,-2.951L3.704,-2.937L4.084,-2.902L4.479,-2.839L4.846,-2.763L5.191,-2.694L5.504,-2.589L5.836,-2.478L6.098,-2.367L6.424,-2.235L6.681,-2.104L6.978,-1.957L7.275,-1.811L7.566,-1.645L7.857,-1.478L8.147,-1.312L8.452,-1.118L8.75,-0.971L9.075,-0.771L9.436,-0.604L9.781,-0.396L10.168,-0.244L10.542,-0.05L10.964,0.138L11.421,0.291L11.906,0.499L12.404,0.666L12.549,0.23L12.051,0.062L11.56,-0.125L11.151,-0.285L10.723,-0.451L10.327,-0.652L9.988,-0.812L9.642,-1.02L9.304,-1.18L8.971,-1.361L8.659,-1.535L8.368,-1.7L8.064,-1.895L7.773,-2.062L7.476,-2.207L7.179,-2.353L6.908,-2.513L6.61,-2.658L6.286,-2.791L5.981,-2.915L5.648,-3.026L5.296,-3.144L4.929,-3.221L4.556,-3.276L4.146,-3.367L3.725,-3.415L3.288,-3.423L2.782,-3.429L2.299,-3.43L1.737,-3.409L1.17,-3.368L0.567,-3.292L-0.056,-3.222L-0.021,-2.772L0,-2.764Z" style="fill:white;"/></g><g transform="matrix(1,0,0,1,57.4522,631.839)"><path d="M0,3.458L0.36,3.208L0.762,2.973L1.165,2.737L1.572,2.48L1.946,2.259L2.368,2.03L2.763,1.816L3.172,1.629L3.607,1.428L4.044,1.226L4.473,1.047L4.916,0.894L5.395,0.776L5.829,0.645L6.308,0.526L6.771,0.451L6.736,0L6.218,0.104L5.727,0.193L5.241,0.332L4.784,0.457L4.328,0.651L3.856,0.817L3.428,0.998L2.991,1.199L2.549,1.42L2.126,1.648L1.732,1.863L1.33,2.099L0.928,2.334L0.526,2.57L0.146,2.813L-0.234,3.056L-0.021,3.451L0,3.458Z" style="fill:white;"/></g><g transform="matrix(1,0,0,1,57.3701,635.331)"><path d="M0,0.909L0.234,1.103L0.166,0.895L0.123,0.673L0.069,0.493L0.021,0.291L-0.007,0.166L-0.028,0.091L0.006,-0.013L0.062,-0.042L-0.152,-0.436L-0.354,-0.25L-0.457,-0.007L-0.485,0.215L-0.415,0.423L-0.367,0.624L-0.312,0.805L-0.257,0.985L-0.223,1.159L-0.007,1.345L-0.223,1.159L-0.215,1.345L-0.007,1.345L0,0.909Z" style="fill:white;"/></g><g transform="matrix(1,0,0,1,74.3643,637.899)"><path d="M0,-0.022L-0.007,0L-0.009,-0.001L0,-0.022Z" style="fill:white;fill-rule:nonzero;"/></g><g transform="matrix(1,0,0,1,74.2598,638.049)"><path d="M0,-0.069L0.096,-0.152L0.041,0.083L0,-0.069Z" style="fill:white;fill-rule:nonzero;"/></g><g transform="matrix(1,0,0,1,80.4541,643.234)"><path d="M0,-2.605L7.586,-0.069L6.763,-0.02L6.757,0L0.172,-2.201L0,-2.605Z" style="fill:white;fill-rule:nonzero;"/></g><g transform="matrix(1,0,0,1,74.7871,642.562)"><path d="M0,-4.459L0.246,-4.704L3.405,-4.886L4.074,-4.538L5.661,-0.798L5.415,-0.482L2.02,-0.24L2.171,-0.212L2.056,-0.026L2.039,-0.024L1.285,-0.461L1.282,-0.469L1.479,-0.559L0,-4.459ZM5.897,-0.793L5.75,-0.911L5.897,-0.793ZM44.197,-5.696L44.239,-5.959L44.33,-6.16L44.495,-6.313L44.744,-6.438L45.035,-6.48L45.193,-6.472L45.375,-6.458L45.548,-6.424L45.721,-6.389L45.929,-6.32L46.114,-6.257L46.316,-6.167L46.53,-6.049L46.71,-5.966L46.897,-5.834L47.063,-5.709L47.243,-5.557L47.431,-5.425L47.561,-5.265L47.721,-5.119L47.852,-4.959L48.095,-4.647L48.22,-4.327L48.282,-4.168L48.315,-4.064L48.296,-3.794L48.246,-3.58L48.094,-3.399L47.872,-3.289L47.574,-3.226L47.409,-3.211L47.236,-3.247L47.035,-3.268L46.821,-3.315L46.634,-3.379L46.426,-3.448L46.204,-3.544L46.011,-3.656L45.81,-3.746L45.595,-3.864L45.407,-3.995L45.229,-4.149L45.062,-4.274L44.889,-4.447L44.736,-4.614L44.606,-4.773L44.392,-5.1L44.267,-5.418L44.232,-5.522L44.197,-5.696ZM-17.424,-5.886L-7.789,-6.201L-7.588,-6.18L-7.401,-6.118L-7.151,-6.034L-6.924,-5.958L-6.716,-5.818L-6.563,-5.721L-6.474,-5.576L-6.404,-5.507L-2.572,6.062L-2.517,6.243L-2.329,6.236L-2.136,6.208L-1.914,6.236L-1.645,6.256L-1.389,6.25L-1.14,6.264L-0.91,6.201L-0.654,6.125L-0.447,5.987L-0.197,5.723L0.011,5.446L0.204,5.211L0.397,4.976L0.564,4.753L0.724,4.552L0.862,4.343L1.028,4.122L1.167,3.914L1.326,3.713L1.485,3.512L1.658,3.339L1.838,3.145L2.046,2.936L2.254,2.728L2.518,2.493L2.376,2.317L2.586,2.146L2.82,1.993L3.092,1.875L3.341,1.75L3.61,1.633L3.915,1.55L4.228,1.446L4.531,1.364L4.822,1.321L5.141,1.267L5.479,1.217L5.798,1.163L6.13,1.135L6.463,1.108L6.774,1.073L7.079,1.059L12.424,0.672L5.839,-1.529L5.667,-1.933L13.253,0.603L48.684,-2.047L49.34,-2.15L49.831,-2.379L50.171,-2.705L50.295,-3.079L50.295,-3.495L50.303,-3.516L50.185,-3.995L49.95,-4.466L49.609,-4.972L49.409,-5.202L49.188,-5.438L48.945,-5.68L48.691,-5.881L48.42,-6.109L48.115,-6.305L47.79,-6.506L47.466,-6.707L47.119,-6.846L46.778,-7.006L46.405,-7.131L46.012,-7.263L45.638,-7.318L45.249,-7.402L44.848,-7.443L44.453,-7.437L39.104,-7.237L7.683,-6.16L7.337,-6.16L7.012,-6.153L6.645,-6.161L6.292,-6.209L5.931,-6.237L5.57,-6.266L5.218,-6.314L4.844,-6.37L4.471,-6.425L4.104,-6.501L3.737,-6.578L3.37,-6.654L2.989,-6.758L2.63,-6.856L2.29,-6.946L1.937,-7.063L1.439,-7.231L0.948,-7.418L0.519,-7.585L0.091,-7.751L-0.284,-7.946L-0.645,-8.112L-1.019,-8.307L-1.358,-8.466L-1.683,-8.667L-1.974,-8.834L-2.284,-9.007L-2.576,-9.174L-2.887,-9.347L-3.177,-9.515L-3.454,-9.653L-3.745,-9.82L-4.043,-9.965L-4.348,-10.09L-4.639,-10.188L-4.971,-10.298L-5.324,-10.417L-5.662,-10.507L-6.036,-10.563L-6.431,-10.626L-6.832,-10.667L-7.283,-10.701L-7.761,-10.723L-8.251,-10.702L-8.765,-10.689L-9.338,-10.626L-9.934,-10.571L-10.584,-10.487L-11.068,-10.419L-11.546,-10.302L-12.024,-10.184L-12.468,-10.032L-12.938,-9.864L-13.388,-9.691L-13.816,-9.512L-14.253,-9.311L-14.668,-9.102L-15.091,-8.874L-8.367,-6.626L-17.417,-6.322L-17.424,-5.886Z" style="fill:white;fill-rule:nonzero;"/></g><g transform="matrix(1,0,0,1,116.845,638.918)"><path d="M0,0.354L-0.193,0.244L-0.229,0.07L0.048,0L0.104,0.181L-0.062,0.056L0,0.354Z"/></g><g transform="matrix(1,0,0,1,117.22,639.119)"><path d="M0,-0.068L-0.042,-0.012L-0.112,0.057L-0.195,0.098L-0.277,0.14L-0.375,0.153L-0.437,-0.145L-0.396,-0.131L-0.333,-0.179L-0.257,-0.201L-0.25,-0.221L-0.264,-0.179L-0.008,-0.047L0,-0.068Z"/></g><g transform="matrix(1,0,0,1,116.438,639.072)"><path d="M0,-1.762L0.021,-1.756L0.151,-1.595L0.324,-1.422L0.491,-1.228L0.648,-1.013L0.781,-0.785L0.857,-0.527L0.858,-0.25L0.774,0L0.519,-0.132L0.574,-0.298L0.562,-0.465L0.512,-0.666L0.387,-0.845L0.249,-1.054L0.098,-1.22L-0.077,-1.395L-0.209,-1.553L-0.188,-1.547L0,-1.762Z"/></g><g transform="matrix(1,0,0,1,113.891,637.518)"><path d="M0,-0.944L-0.021,-0.951L0.345,-0.944L0.69,-0.944L1.017,-0.882L1.328,-0.847L1.647,-0.764L1.944,-0.617L2.255,-0.444L2.547,-0.208L2.358,0.007L2.075,-0.181L1.805,-0.34L1.55,-0.471L1.272,-0.542L0.968,-0.598L0.656,-0.632L0.338,-0.646L0.014,-0.639L0.021,-0.66L-0.028,-0.93L0,-0.944Z"/></g><g transform="matrix(1,0,0,1,86.8789,636.801)"><path d="M0,1.191L0.118,1.114L26.983,-0.214L27.032,0.056L0.159,1.405L0.277,1.33L0,1.191Z"/></g><g transform="matrix(1,0,0,1,86.2412,637.915)"><path d="M0,1.02L-0.29,0.923L-0.27,0.721L-0.215,0.556L-0.131,0.375L-0.021,0.249L0.125,0.161L0.312,0.084L0.521,0.015L0.756,0L0.797,0.291L0.575,0.333L0.375,0.381L0.277,0.395L0.181,0.478L0.133,0.556L0.056,0.646L0.015,0.77L0.021,0.957L-0.27,0.86L0,1.02Z"/></g><g transform="matrix(1,0,0,1,116.673,637.044)"><path d="M0,1.777L-0.076,1.659L-0.175,1.535L-0.249,1.417L-0.354,1.312L-0.451,1.187L-0.555,1.084L-0.65,0.958L-0.929,0.751L-1.212,0.563L-1.496,0.445L-1.794,0.369L-2.105,0.334L-2.43,0.272L-2.749,0.258L-3.095,0.257L-29.967,1.607L-29.746,1.189L-29.662,1.176L-29.635,1.162L-2.762,-0.187L-2.313,-0.152L-1.937,-0.165L-1.585,-0.117L-1.261,-0.054L-0.962,0.091L-0.693,0.251L-0.444,0.474L-0.159,0.799L0.089,1.091L0.27,1.382L0.359,1.597L0.359,1.735L0.297,1.853L0.124,1.958L0.101,1.964L0.089,1.923L0,1.777Z" style="fill-rule:nonzero;"/></g><g transform="matrix(1,0,0,1,86.2627,638.523)"><path d="M0,0.349L0.034,0.177L0.047,0.148L0.068,0.142L0.207,0.142L0.443,0.128L0.667,-0.292L0.748,-0.303L0.775,-0.317L27.648,-1.666L28.097,-1.63L28.473,-1.644L28.825,-1.595L29.149,-1.532L29.448,-1.387L29.717,-1.228L29.966,-1.005L30.251,-0.679L30.499,-0.387L30.68,-0.097L30.77,0.118L30.77,0.257L30.707,0.374L30.534,0.479L30.511,0.485L30.209,0.555L29.752,0.61L2.139,2.036L2.117,2.028L1.73,2.015L1.35,1.91L1.01,1.751L0.72,1.584L0.478,1.341L0.305,1.099L0.152,0.863L0.034,0.661L0.013,0.516L0,0.349ZM-0.312,0.315L-0.283,0.578L-0.229,0.758L-0.152,1.015L0.027,1.306L0.249,1.542L0.532,1.799L0.872,2.028L1.252,2.203L1.653,2.312L2.139,2.312L29.744,0.91L30.27,0.853L30.644,0.77L30.915,0.583L31.067,0.333L31.06,0.077L30.956,-0.236L30.756,-0.534L30.479,-0.881L30.195,-1.207L29.891,-1.471L29.565,-1.671L29.247,-1.823L28.9,-1.893L28.486,-1.963L28.07,-1.963L27.6,-1.936L0.734,-0.608L0.735,-0.599L0.449,-0.587L0.159,-0.476L-0.034,-0.309L-0.166,-0.121L-0.257,0.079L-0.312,0.315Z" style="fill-rule:nonzero;"/></g></g></g></svg>