<svg version="1.1" xmlns="http://www.w3.org/2000/svg" xmlns:xlink="http://www.w3.org/1999/xlink" x="0px" y="0px" width="3975" height="4725" viewBox="0 0 3975 4725" enable-background="new 0 0 954 1134" xml:space="preserve">
<g id="Borders">
	<rect fill="#939598" width="954" height="1134"></rect>
	<polygon fill="#FFFFFF" stroke="#ED1C24" stroke-miterlimit="10" points="945,994.469 895.5,994.469 895.5,1030.828 
		821.875,1030.703 814.5,1004.539 814.5,994.531 814.5,1075.531 814.5,1125.031 139.5,1125.031 139.5,994.531 139.5,1004.539 
		132.375,1030.703 58.5,1030.828 58.5,994.469 9,994.469 9,139.469 58.5,139.469 58.5,104.453 132.5,104.453 139.5,129.461 
		139.5,139.469 139.5,8.969 814.5,8.969 814.5,139.469 814.5,129.461 822,104.203 895.5,104.328 895.5,139.469 945,139.469 	"></polygon>
	<line fill="none" stroke="#00A651" stroke-miterlimit="10" x1="139.5" y1="58.469" x2="814.5" y2="58.469"></line>
	<line fill="none" stroke="#00A651" stroke-miterlimit="10" x1="814.5" y1="139.469" x2="139.5" y2="139.469"></line>
	<line fill="none" stroke="#00A651" stroke-miterlimit="10" x1="814.5" y1="994.531" x2="139.5" y2="994.531"></line>
	<line fill="none" stroke="#00A651" stroke-miterlimit="10" x1="139.5" y1="1075.531" x2="814.5" y2="1075.531"></line>
	<rect x="814.5" y="139.469" fill="none" stroke="#00A651" stroke-miterlimit="10" width="81" height="855"></rect>
	<rect x="58.5" y="139.469" fill="none" stroke="#00A651" stroke-miterlimit="10" width="81" height="855"></rect>
	<rect x="823.5" y="148.469" fill="none" stroke="#00ADE8" stroke-miterlimit="10" stroke-dasharray="12" width="63" height="837"></rect>
	<rect x="67.5" y="148.469" fill="none" stroke="#00ADE8" stroke-miterlimit="10" stroke-dasharray="12" width="63" height="837"></rect>
	<rect x="148.5" y="67.469" fill="none" stroke="#00ADE8" stroke-miterlimit="10" stroke-dasharray="12" width="657" height="63"></rect>
	<rect x="148.5" y="1004.5" fill="none" stroke="#00ADE8" stroke-miterlimit="10" stroke-dasharray="12" width="657" height="63"></rect>
	
		<rect x="148.499" y="148.469" fill="none" stroke="#00ADE8" stroke-miterlimit="10" stroke-dasharray="12" width="657" height="837"></rect>
</g>
<g id="Text">
	<line fill="none" stroke="#929497" x1="641.254" y1="584.874" x2="958.562" y2="584.874"></line>
	
	
	
	
	
	
	
	
	
	
	
	
	
	
	
	
	
	
	
	
	
	
	
	<path fill="#EC1E28" d="M664.513,328.112c0,1.088-0.489,2.154-1.48,3.192l-0.152,0.154l-8.637,9.117
		c-1.835,1.933-3.396,3.428-4.693,4.487c-1.289,1.051-2.204,1.583-2.732,1.583c-0.561,0-1.252-0.267-2.079-0.79
		c-0.83-0.533-1.369-1.075-1.613-1.638c-0.208-0.464-0.395-1.456-0.575-2.97c-0.185-1.514-0.275-3.148-0.275-4.916
		c0-0.96,0.402-1.852,1.205-2.667s1.688-1.225,2.652-1.225c0.925,0,1.476,0.845,1.652,2.531c0.019,0.198,0.033,0.344,0.037,0.435
		c0.156,1.303,0.324,2.206,0.521,2.72c0.201,0.517,0.458,0.767,0.794,0.767c0.142,0,0.403-0.143,0.783-0.453
		c0.38-0.302,0.844-0.713,1.369-1.239l8.882-8.809c0.742-0.747,1.408-1.312,1.996-1.694c0.585-0.385,1.089-0.577,1.497-0.577
		c0.312,0,0.527,0.12,0.654,0.353c0.13,0.232,0.195,0.625,0.195,1.176V328.112z"></path>
	<path fill="#EC1E28" d="M671.407,483.78c0,1.09-0.491,2.156-1.479,3.196l-0.159,0.149l-8.64,9.12
		c-1.832,1.933-3.398,3.429-4.684,4.484c-1.298,1.056-2.203,1.582-2.73,1.582c-0.562,0-1.258-0.262-2.09-0.791
		c-0.828-0.528-1.361-1.071-1.604-1.631c-0.208-0.468-0.403-1.459-0.582-2.972c-0.18-1.511-0.277-3.151-0.277-4.916
		c0-0.958,0.402-1.852,1.207-2.667c0.798-0.819,1.685-1.224,2.656-1.224c0.919,0,1.47,0.84,1.648,2.533
		c0.017,0.193,0.034,0.343,0.042,0.436c0.146,1.298,0.324,2.203,0.519,2.716c0.193,0.517,0.46,0.77,0.798,0.77
		c0.138,0,0.401-0.153,0.783-0.455c0.38-0.305,0.832-0.716,1.367-1.241l8.877-8.808c0.744-0.749,1.413-1.314,2.003-1.696
		c0.583-0.382,1.08-0.575,1.488-0.575c0.311,0,0.528,0.117,0.661,0.354c0.132,0.229,0.195,0.621,0.195,1.17V483.78z"></path>
	<path fill="#EC1E28" d="M650.2,564.533c0,1.093-0.49,2.159-1.48,3.195l-0.152,0.159l-8.645,9.113
		c-1.832,1.934-3.396,3.428-4.687,4.484c-1.293,1.053-2.203,1.585-2.735,1.585c-0.561,0-1.253-0.27-2.081-0.792
		c-0.83-0.527-1.363-1.072-1.606-1.632c-0.208-0.471-0.396-1.462-0.582-2.976c-0.177-1.511-0.268-3.148-0.268-4.913
		c0-0.962,0.402-1.849,1.197-2.667c0.802-0.819,1.688-1.227,2.659-1.227c0.926,0,1.475,0.846,1.647,2.535
		c0.022,0.195,0.03,0.338,0.042,0.435c0.147,1.3,0.325,2.202,0.52,2.714c0.195,0.514,0.458,0.773,0.791,0.773
		c0.145,0,0.401-0.149,0.786-0.455c0.381-0.305,0.837-0.718,1.37-1.237l8.875-8.815c0.745-0.747,1.418-1.309,2.001-1.693
		c0.588-0.383,1.087-0.575,1.496-0.575c0.308,0,0.521,0.117,0.656,0.351c0.134,0.232,0.195,0.627,0.195,1.176V564.533z"></path>
	<path fill="#EC1E28" d="M616.21,742.378c0,1.092-0.489,2.154-1.477,3.19l-0.153,0.152l-8.643,9.124
		c-1.835,1.93-3.398,3.426-4.689,4.481c-1.285,1.06-2.201,1.581-2.734,1.581c-0.556,0-1.253-0.258-2.084-0.788
		c-0.827-0.526-1.36-1.072-1.604-1.633c-0.206-0.464-0.396-1.45-0.582-2.97c-0.18-1.517-0.274-3.154-0.274-4.919
		c0-0.962,0.399-1.849,1.204-2.667c0.804-0.815,1.685-1.225,2.656-1.225c0.921,0,1.469,0.844,1.65,2.534
		c0.013,0.194,0.03,0.338,0.044,0.435c0.146,1.3,0.321,2.203,0.515,2.713c0.195,0.523,0.458,0.773,0.8,0.773
		c0.136,0,0.399-0.152,0.781-0.455c0.38-0.305,0.84-0.718,1.366-1.237l8.878-8.809c0.742-0.754,1.415-1.319,2.001-1.695
		c0.587-0.391,1.084-0.579,1.498-0.579c0.306,0,0.526,0.117,0.653,0.357c0.132,0.228,0.193,0.621,0.193,1.17V742.378z"></path>
	<line fill="none" stroke="#EC1E28" x1="671.534" y1="502.312" x2="945.001" y2="502.312"></line>
	<line fill="none" stroke="#2BA6DE" stroke-dasharray="12,9" x1="666.689" y1="347.363" x2="803.943" y2="347.363"></line>
	<rect x="178.289" y="237.484" fill="#E6E7E8" width="142.701" height="154"></rect>
	<g>
		<path fill-rule="evenodd" clip-rule="evenodd" d="M300.173,296.919c0,28.472-23.083,51.553-51.553,51.553
			c-28.471,0-51.553-23.081-51.553-51.553c0-28.476,23.082-51.554,51.553-51.554C277.091,245.365,300.173,268.443,300.173,296.919z"></path>
		<circle fill-rule="evenodd" clip-rule="evenodd" fill="#B7D333" cx="248.657" cy="297.202" r="46.867"></circle>
		<g>
			<path d="M238.623,286.983c-0.65,5.742-1.133,10.36-1.456,13.841l-2.135,0.094c0.03-0.116,0.044-0.248,0.048-0.393
				c0.003-0.26-0.091-0.604-0.288-1.031c-0.197-0.423-0.31-0.694-0.337-0.81c-0.551,0.081-1.081,0.465-1.587,1.149
				c-0.505,0.688-0.964,1.032-1.369,1.026c-0.234-0.007-0.495-0.069-0.782-0.189c-0.384,0.254-0.877,0.364-1.49,0.326
				c-0.548-0.099-1.086-0.179-1.608-0.247c-0.018-0.728-0.731-1.363-2.146-1.911c0.006-0.291-0.142-0.723-0.437-1.296
				c-0.295-0.572-0.44-0.972-0.436-1.205c0.003-0.26,0.108-0.477,0.317-0.649c-0.03-0.085-0.269-0.629-0.716-1.627
				c-0.306-0.731-0.455-1.358-0.447-1.879c0.007-0.406,0.1-0.783,0.283-1.128c-0.25-2.476-0.36-4.599-0.328-6.37
				c0.045-2.731,0.434-5.24,1.175-7.524c-0.053-0.351-0.078-0.7-0.073-1.048c0.033-1.831,0.667-3.096,1.895-3.804l0.012-0.567
				c1.219-1.549,2.821-2.67,4.807-3.363c1.191,0.283,2.376,0.55,3.562,0.805c1.33,0.458,2.247,1.243,2.75,2.356
				c0.402,0.24,0.6,0.724,0.588,1.445c-0.014,0.818,0.079,1.343,0.278,1.578l-0.223,0.256c0.232,1.72,0.348,2.769,0.34,3.144
				c-0.02,1.107-0.309,1.886-0.868,2.341c-0.203-0.001-0.738-0.184-1.603-0.55c-0.209,0.2-0.43,0.298-0.66,0.294
				c-0.118-0.001-0.329-0.065-0.63-0.187c-0.302-0.121-0.558-0.18-0.76-0.183c-0.145-0.003-0.291,0.021-0.437,0.076
				c-0.019-2.294,0.055-4.008,0.218-5.139c-0.23-0.149-0.463-0.492-0.701-1.015c-0.239-0.528-0.547-0.825-0.922-0.888
				c-0.237,0.288-0.344,0.475-0.317,0.563l-0.779-0.275c-0.71,0.772-1.184,2.116-1.418,4.029c-0.243,2.207-0.542,3.667-0.902,4.388
				c0.312,0.326,0.466,0.778,0.453,1.36c-0.002,0.201-0.037,0.538-0.104,0.999c-0.067,0.465-0.101,0.815-0.104,1.048
				c-0.003,0.261,0.018,0.494,0.076,0.696l-0.533,0.515c0.215,0.992,0.34,2.245,0.374,3.757c-0.021,1.277-0.031,2.556-0.021,3.834
				c-0.031,0-0.278,0.011-0.742,0.034c-0.29-0.008-0.498,0.092-0.615,0.293c0.173-0.026,0.334-0.039,0.478-0.034
				c0.64,0.008,1.141,0.461,1.502,1.354c0.365,0.892,0.676,1.342,0.938,1.348c0.291,0.001,0.688-0.267,1.192-0.813
				c0.856-0.913,1.3-2.171,1.327-3.768c0.015-0.785-0.073-1.629-0.262-2.532c-0.204,0.111-0.312,0.4-0.32,0.865
				c-0.464-0.006-0.758,0.09-0.877,0.29c-0.201-0.061-0.286-0.222-0.252-0.481c0.033-0.378,0.051-0.584,0.051-0.612
				c0.354-0.107,0.527-0.267,0.534-0.468c0-0.088-0.062-0.251-0.189-0.486c-0.125-0.233-0.186-0.422-0.186-0.569
				c0-0.114,0.034-0.23,0.093-0.347l0.203-1.697c0.638,0.188,2.017,0.266,4.14,0.249c-0.062,0.14,0.022,0.333,0.253,0.566
				c0.204-0.2,0.423-0.299,0.657-0.291c0.173,0.003,0.433,0.079,0.777,0.23C238.231,286.904,238.475,286.981,238.623,286.983z"></path>
			<path d="M254.891,301.996c-0.405-0.18-0.839-0.272-1.302-0.283c-0.409-0.006-0.963,0.071-1.664,0.234
				c-0.789,0.161-1.327,0.253-1.617,0.278c-0.312-0.616-0.527-1.461-0.652-2.541c-0.234-1.572-0.384-2.46-0.436-2.669
				c0.091-0.172,0.137-0.317,0.137-0.429c0.006-0.322-0.244-0.609-0.747-0.867c-0.507-0.252-0.756-0.455-0.752-0.601
				c0.002-0.169,0.295-0.428,0.883-0.768c-0.141-0.176-0.246-0.533-0.311-1.071c-0.061-0.539-0.195-0.898-0.395-1.077
				c-0.354,0.315-0.931,0.516-1.732,0.602c-0.801,0.091-1.333,0.219-1.596,0.387c0.017,2.268-0.356,3.79-1.124,4.559
				c-0.406-0.093-0.716,0.063-0.924,0.468c-0.301,0.488-0.554,0.773-0.758,0.856l0.256,0.31c-0.234,0.2-0.615,0.282-1.136,0.244
				c-0.813-0.044-1.249-0.065-1.307-0.065l-0.247-0.792l2.839-23.534c0.027-1.482,0.101-2.488,0.225-3.007
				c-0.036-1.31,0.268-2.119,0.911-2.426c0.404,0.268,0.911,0.407,1.52,0.419c0.497,0.009,1.267-0.095,2.315-0.311
				c1.054-0.213,1.78-0.32,2.187-0.314c1.423,0.027,2.044,1.054,1.868,3.085c-0.145,1.625,0.109,3.767,0.76,6.422
				c0.679,2.862,1.007,5.004,0.983,6.429c-0.01,0.432,0.135,1.337,0.099,1.771c-0.617,0.338-1.403,0.544-2.363,0.612
				c-0.844,0.045-1.704,0.091-2.575,0.131c-0.224-2.213-0.614-4.877-0.84-7.063c-0.273-2.62-0.615-4.773-1.023-6.469l-1.347,12.446
				c-0.103,1.075,0.382,1.623,1.458,1.64c0.349,0.006,0.681-0.076,1.007-0.245c0.261-0.082,0.624,0.112,1.08,0.585
				c-0.018,0.9,0.163,1.441,0.537,1.624c0.472-0.312,1.086-0.607,1.846-0.888c0.672-0.247,1.334-0.483,1.977-0.705
				c0.366,0.501,0.603,1.244,0.704,2.236c0.119,1.397,0.208,2.214,0.262,2.444c0.049,0.555,0.274,1.749,0.678,3.589
				c0.297,1.455,0.436,2.637,0.422,3.537C254.991,301.214,254.954,301.619,254.891,301.996z"></path>
			<path d="M274.965,281.233c-0.032,0.088-0.04,0.597-0.024,1.526c-0.015,0.756-0.109,1.32-0.291,1.695
				c-0.216,0.579-0.328,1.407-0.349,2.481c-0.004,0.233,0.003,0.596,0.024,1.089c-0.009,0.497-0.014,0.858-0.017,1.09
				c-0.032,1.831-0.346,3.16-0.943,3.993c0.052,0.47,0.073,0.933,0.069,1.397c-0.026,1.453-0.524,3.408-1.496,5.863
				c-0.264,0.084-0.484,0.121-0.659,0.119c-0.348-0.008-0.598-0.21-0.753-0.604c-0.153-0.395-0.297-0.767-0.436-1.118
				c0.094-2.234,0.048-5.492-0.142-9.769l0.267-0.258c-0.192-0.755-0.277-1.601-0.262-2.53c0.011-0.67,0.095-1.642,0.244-2.918
				c0.155-1.276,0.236-2.236,0.247-2.874c0.009-0.407-0.003-0.797-0.021-1.176c-1.002,2.396-1.711,6.451-2.126,12.169l-0.366,0.866
				c-0.121,0.291-0.37,0.447-0.747,0.469c-0.114-0.204-0.229-0.309-0.343-0.311c-0.088-0.004-0.242,0.103-0.463,0.318
				c-0.224,0.214-0.407,0.305-0.55,0.274l-0.578,0.512c0.256,0.325,0.807,0.363,1.657,0.119c0.668-0.195,1.014,0.059,1.032,0.757
				c0.019,0.58-0.14,1.363-0.475,2.347c-0.338,0.979-0.509,1.718-0.518,2.214c-0.006,0.35,0.032,0.698,0.113,1.045l-3.016,0.472
				c-0.28-0.585-0.489-1.57-0.627-2.953c-0.133-1.378-0.344-2.368-0.624-2.952c0.177-0.199,0.268-0.415,0.271-0.649
				c0.003-0.204-0.077-0.51-0.245-0.918c-0.166-0.413-0.262-0.718-0.29-0.924c-0.023-0.318-0.125-1.093-0.309-2.315
				c-0.128-0.988-0.189-1.764-0.18-2.312c0.006-0.292,0.026-0.554,0.058-0.787c0.003-0.201-0.11-0.501-0.333-0.9
				c-0.227-0.395-0.338-0.68-0.332-0.854c0-0.145,0.06-0.272,0.177-0.388c-0.2-0.238-0.28-0.645-0.24-1.224
				c0.039-0.583-0.043-0.991-0.24-1.224c-0.428,1.123-0.655,2.646-0.689,4.562c-0.016,2.674-0.043,4.217-0.078,4.621l0.301,0.271
				l-0.309,0.251c0.213,1.049,0.309,2.391,0.28,4.016c-0.079,2.935-0.116,4.3-0.114,4.101c-0.413,0.367-0.982,0.548-1.71,0.535
				c-0.899-0.014-1.513,0.063-1.834,0.229c-0.365-0.646-0.542-1.476-0.523-2.491c0.012-0.786,0.146-1.742,0.399-2.873
				c-0.396-0.736-0.582-1.753-0.561-3.062c0.007-0.321,0.046-0.927,0.119-1.83c0.043-0.722,0.05-1.261,0.029-1.61
				c0.291-0.14,0.44-0.295,0.442-0.472c0.004-0.116-0.087-0.315-0.273-0.594c-0.184-0.276-0.274-0.489-0.274-0.637
				c0.004-0.173,0.123-0.345,0.358-0.517l-0.94-14.099c0.561-0.367,1.465-0.541,2.714-0.52c1.365,0.054,2.299-0.02,2.793-0.21
				c0.09-0.061,0.191-0.087,0.308-0.087c0.119,0.005,0.252,0.072,0.411,0.205c0.158,0.132,0.265,0.201,0.323,0.201
				c0.116,0.001,0.219-0.084,0.311-0.259l0.813,0.803c0.274,1.022,0.531,3.002,0.774,5.939c0.246,2.534,0.633,4.447,1.167,5.735
				c0.713-2.574,1.299-4.731,1.765-6.465l0.946-6.901l6.758-0.147c0.026,0.376,0.108,2.399,0.291,3.566
				c0.154,1.018,0.229,1.847,0.217,2.486c-0.01,0.728-0.123,1.381-0.339,1.957c0.225,0.324,0.338,0.732,0.329,1.223
				C275.328,280.516,275.201,280.917,274.965,281.233z"></path>
			<path d="M288.831,296.514l0.001-0.045c-0.179,0.373-0.291,0.809-0.326,1.302c-0.034,0.319-0.044,0.768-0.024,1.35
				c0.017,0.667,0.024,1.133,0.021,1.397c-0.234-0.005-1.163-0.022-2.79-0.048c-0.989-0.017-1.875,0.069-2.664,0.261l-0.813-0.886
				c-0.239,0.227-0.328,0.414-0.273,0.56c-0.143-0.03-0.813-0.041-2.004-0.033c-0.929-0.014-1.626-0.118-2.085-0.297
				c-0.477,0.489-1.028,0.477-1.659-0.027c-0.229-0.177-0.252-0.477-0.073-0.894c0.183-0.419,0.129-0.731-0.155-0.941
				c0.043-0.927,0.171-2.366,0.377-4.311c0.205-1.738,0.312-3.104,0.329-4.091c0.021-1.338-0.07-2.619-0.281-3.841
				c0.327-0.314,0.69-0.468,1.098-0.46c0.467,0.005,1.015,0.234,1.646,0.683c0.886,0.62,1.352,0.938,1.378,0.938l0.254,0.308
				c0.033-0.088,0.186-0.55,0.459-1.388c0.156-0.548,0.381-0.907,0.675-1.079l0.257,0.267c0.117-0.055,0.498-0.326,1.148-0.809
				c0.495-0.343,0.904-1.149,1.194-1.14c0.322,0.001,0.619,0.184,0.906,0.538c0.489,0.266,0.797,1.313,0.95,1.851
				c0.15,0.542,0.294,1.074,0.432,1.602c-1.307,0.035-2.385,0-3.226-0.101c-0.208,0.317-0.5,0.363-0.875,0.139
				c-0.373-0.222-0.649-0.191-0.829,0.092c-0.009,0.525-0.027,1.473-0.049,2.836c-0.052,1.219-0.065,2.178-0.047,2.877
				c0.01,1.076,0.08,2.064,0.209,2.966c0.231,0.006,1.336,0.025,3.312,0.059C286.672,296.171,287.847,296.291,288.831,296.514z
				 M288.923,275.63c-0.262,0.026-0.55,0.035-0.871,0.03c-0.668-0.011-1.554-0.118-2.653-0.309
				c-1.365-0.195-2.191-0.311-2.481-0.346c-0.417,0.602-0.632,1.456-0.654,2.561c-0.04,2.383-0.04,3.415-0.007,3.095
				c0.403,0.239,0.599,0.681,0.586,1.319c-0.044,0.871-0.05,1.323-0.021,1.351c-0.204,0.083-0.312,0.372-0.32,0.865
				c-0.319-0.12-0.648-0.359-0.989-0.714c-0.459-0.444-0.702,1.06-0.667,0.686l-0.278,0.894l-0.256-0.265
				c-0.235,0.025-0.632-0.098-1.192-0.369c-0.565-0.273-0.958-0.521-1.187-0.762c0.009-0.465,0.085-0.725,0.231-0.782l-0.555-0.617
				l-0.267,0.385c-0.328-3.029-0.247-8.689,0.152-11.88c1.104,0.19,2.323,0.315,3.659,0.367c0.902,0.044,2.163,0.065,3.792,0.065
				c1.861,0.002,3.2,0.008,4.013,0.022c0.34,0.324,0.509,0.751,0.5,1.273c-0.002,0.321-0.094,0.836-0.265,1.542
				C289.018,274.755,288.929,275.279,288.923,275.63z"></path>
		</g>
		<g>
			<path d="M239.932,322.872v-0.023c0,0.015-0.076,0.658-0.225,1.923c-0.076,0.777-0.262,1.389-0.562,1.834l-0.19-0.152
				c-0.353,0.738-0.832,1.189-1.443,1.349c-0.291,0.306-0.711,0.476-1.259,0.509c-0.326,0.02-1.078-0.077-2.257-0.284
				c-0.571-0.354-0.883-0.552-0.938-0.59c-0.36-0.268-0.53-0.541-0.512-0.821c-0.346-0.352-0.835-0.984-1.018-1.773
				c-0.222-0.875-0.356-0.921-0.563-1.231c-0.329,0.244-0.448-0.271-0.637-0.582l0.171-0.129c-0.106-0.079-0.165-0.167-0.171-0.264
				c-0.003-0.068,0.029-0.169,0.087-0.306c0.062-0.134,0.093-0.234,0.086-0.304c-0.008-0.108-0.071-0.205-0.197-0.278
				c0.133-0.688,0.253-1.719,0.362-3.092c0.234-0.126,0.344-0.366,0.332-0.727c-0.012-0.356,0.04-0.596,0.153-0.711
				c0.552-1.113,1.456-1.863,2.705-2.252c0.069,0.008,0.402,0.001,1.003-0.017c0.411-0.01,0.724,0.025,0.934,0.111
				c0.375-0.065,0.75,0.027,1.123,0.267c0.324,0.245,0.65,0.488,0.97,0.732c0.606,0.655,0.934,1.4,0.982,2.226
				c0.015,0.272-0.003,0.566-0.053,0.872c-0.448-0.012-0.765,0.279-0.954,0.888l-1.742,0.163c-0.186-0.265-0.296-0.62-0.32-1.062
				c-0.009-0.151-0.006-0.373,0-0.662c0.007-0.294,0.009-0.513,0-0.664c-0.027-0.456-0.133-0.813-0.322-1.083l-0.522,0.301
				c-0.213-0.084-0.32-0.208-0.33-0.374c-0.003-0.055,0.004-0.137,0.024-0.239c0.02-0.108,0.029-0.178,0.026-0.221
				c-0.01-0.178-0.171-0.285-0.482-0.328c-0.213,1.963-0.277,3.98-0.191,6.049c0.055,0.067,0.221,0.111,0.496,0.14
				c0.226,0.026,0.341,0.098,0.346,0.205c0.005,0.044-0.007,0.099-0.041,0.17l-0.171,0.134c0.091,0.145,0.149,0.354,0.165,0.614
				c0.006,0.135,0.003,0.347-0.016,0.633c-0.018,0.285-0.022,0.497-0.015,0.632c0.026,0.413,0.128,0.726,0.314,0.938
				c-0.018,0.302,0.107,0.512,0.369,0.619c0.167-0.064,0.319-0.098,0.459-0.107c0.53-0.034,0.898,0.259,1.106,0.867
				c0.001,0.016-0.003,0.117-0.006,0.314c0.006,0.111,0.061,0.181,0.166,0.218c0.232-0.14,0.346-0.388,0.343-0.748
				c-0.005-0.413,0.048-0.679,0.158-0.795c-0.028-0.193-0.141-0.471-0.343-0.831c-0.203-0.364-0.306-0.645-0.321-0.854
				c-0.012-0.219,0.055-0.43,0.194-0.63c-0.122-0.039-0.176-0.116-0.167-0.243c0.006-0.195,0.009-0.298,0.009-0.311
				C237.992,322.659,238.958,322.652,239.932,322.872z"></path>
			<path d="M247.821,324.489H247.8c-0.103,0.197-0.132,0.484-0.1,0.854c0.049,0.524,0.075,0.794,0.075,0.806
				c-0.078,0.032-0.188-0.009-0.319-0.116c-0.202,0.077-0.302,0.205-0.289,0.383c0,0.027,0.012,0.071,0.032,0.133
				c0.001,0.077,0.007,0.129,0.007,0.154c0.009,0.14-0.034,0.246-0.125,0.317c-0.232-0.128-0.537-0.21-0.912-0.249
				c-0.38-0.034-0.74-0.068-1.075-0.099c-0.006-1.748-0.241-3.462-0.707-5.129c0,0.012-0.009-0.157-0.031-0.521
				c0.003-0.256-0.055-0.438-0.173-0.548l-0.159,0.143c-0.003-0.026,0.048-0.073,0.157-0.151c0.108-0.078,0.162-0.156,0.155-0.233
				c-0.004-0.038-0.014-0.076-0.032-0.111l-0.175-0.126c-0.297,0.096-0.434,0.336-0.413,0.716c0.016,0.257-0.088,0.438-0.303,0.539
				c0.084,0.061,0.126,0.139,0.129,0.226c0.006,0.052-0.001,0.125-0.021,0.216c-0.02,0.088-0.027,0.158-0.022,0.213
				c0.004,0.111,0.068,0.206,0.183,0.276c0.006,0.078,0.044,0.771,0.12,2.079c0.049,0.833,0.024,1.54-0.067,2.124l0.019,0.326
				c-0.113-0.004-0.243-0.002-0.384,0.003c-0.158,0.012-0.39,0.035-0.691,0.073c-0.298,0.037-0.524,0.058-0.666,0.067
				c-0.589,0.033-1.004-0.067-1.242-0.297l-0.248-7.181c-0.117-0.351-0.194-0.844-0.23-1.472l-0.079-1.386
				c-0.057-0.678-0.143-1.199-0.261-1.564c0.05-0.25,0.267-0.384,0.649-0.405c0.24-0.014,0.559,0.017,0.964,0.099
				c0.186-0.085,0.447-0.14,0.783-0.162c0.094-0.009,0.247-0.009,0.454-0.009c0.223-0.012,0.382-0.022,0.477-0.027
				c0.625-0.034,1.034-0.226,1.238-0.573c0.29-0.005,0.602,0.088,0.941,0.272c0.335,0.188,0.634,0.289,0.89,0.295
				c0.679,0.398,1.043,1.059,1.1,1.984c0.012,0.206-0.07,1.02-0.244,2.444l-1.164,1.011c0.198,0.363,0.436,1.151,0.713,2.372
				C246.991,323.269,247.344,324.015,247.821,324.489z M245.669,316.317l0.024,0.017c0.023,0.088,0.012-0.227-0.03-0.94
				c-0.019-0.347-0.146-0.597-0.381-0.752c-0.131,0.187,0.02,0.275-0.044,0.708c-0.059,0.436-0.318,0.314-0.467,0.502
				c-0.399,0-0.49,0.241-0.578-0.14c-0.178-0.621-0.333-0.566-0.335-0.577l-0.169,0.101c-0.062,0.055-0.131,0.116-0.206,0.187
				c-0.075,0.07-0.154,0.09-0.234,0.072c0.004,0.078-0.032,0.197-0.111,0.362c-0.08,0.166-0.116,0.277-0.113,0.343
				c0.009,0.117,0.099,0.201,0.28,0.256c-0.033,0.258-0.041,0.529-0.027,0.811c0.011,0.152,0.046,0.506,0.111,1.054
				c0.073,0.433,0.102,0.805,0.086,1.112c0.146,0.005,0.281,0.005,0.409-0.001c0.559-0.033,0.921-0.255,1.089-0.662
				c0.056-0.117,0.12-0.548,0.19-1.284C245.224,316.932,245.393,316.539,245.669,316.317z"></path>
			<path d="M256.873,327.278c-0.229-0.067-0.469-0.089-0.725-0.074c-0.223,0.012-0.523,0.069-0.899,0.166
				c-0.429,0.102-0.721,0.166-0.877,0.186c-0.195-0.257-0.343-0.623-0.448-1.091c-0.186-0.686-0.296-1.071-0.332-1.159
				c0.045-0.078,0.063-0.145,0.061-0.198c-0.009-0.14-0.159-0.256-0.44-0.35c-0.288-0.09-0.431-0.172-0.434-0.235
				c-0.003-0.076,0.146-0.2,0.458-0.372c-0.085-0.075-0.152-0.228-0.206-0.465c-0.055-0.233-0.138-0.384-0.256-0.456
				c-0.183,0.154-0.491,0.266-0.926,0.337c-0.436,0.067-0.722,0.145-0.865,0.233c0.091,0.994,0,2.748-0.392,3.116
				c-0.224-0.024-0.385,0.055-0.491,0.244c-0.147,0.225-0.275,0.362-0.382,0.408l0.149,0.123c-0.124,0.101-0.327,0.149-0.612,0.154
				c-0.447,0.012-0.685,0.019-0.718,0.02l-0.164-0.339l0.672-11.546c-0.037-0.652-0.03-1.097,0.017-1.33
				c-0.065-0.576,0.075-0.946,0.417-1.107c0.231,0.104,0.512,0.143,0.846,0.125c0.27-0.016,0.693-0.089,1.258-0.227
				c0.566-0.136,0.963-0.209,1.187-0.223c0.779-0.044,1.156,0.383,1.128,1.285c-0.023,0.72,0.192,1.653,0.643,2.797
				c0.471,1.231,0.722,2.164,0.759,2.794c0.012,0.19,0.269,0.6,0.265,0.794c-0.329,0.172-0.752,0.291-1.275,0.361
				c-0.461,0.055-0.927,0.108-1.406,0.16c-0.199-0.966-0.652-2.139-0.85-3.095c-0.244-1.142-0.506-2.076-0.786-2.81l-0.305,5.537
				c-0.019,0.477,0.268,0.698,0.856,0.664c0.189-0.01,0.372-0.061,0.542-0.148c0.143-0.046,0.344,0.026,0.611,0.215
				c0.023,0.399,0.141,0.632,0.354,0.694c0.246-0.155,0.573-0.311,0.978-0.461c0.36-0.136,0.713-0.267,1.057-0.388
				c0.221,0.206,0.372,0.525,0.466,0.955c0.113,0.614,0.189,0.966,0.227,1.069c0.046,0.241,0.211,0.761,0.497,1.554
				c0.214,0.629,0.332,1.145,0.355,1.54C256.897,326.927,256.894,327.107,256.873,327.278z"></path>
			<path d="M263.472,314.178h0.022c-0.19,0.281-0.434,0.335-0.732,0.16c-0.063-0.012-0.352,0.006-0.862,0.049
				c-0.428,0.025-0.741,0.001-0.938-0.063c-0.045,0.006-0.142,0.052-0.277,0.142c-0.14,0.096-0.239,0.139-0.305,0.144
				c-0.094,0.009-0.149-0.075-0.158-0.243c-0.003-0.022-0.009-0.134-0.019-0.324c-0.007-0.128-0.07-0.216-0.183-0.261l-0.298,0.232
				c-0.091,0.068-0.137,0.14-0.131,0.217c0.003,0.063,0.058,0.154,0.162,0.271c0.101,0.116,0.162,0.2,0.18,0.247
				c0.003,0.042,0.037,0.619,0.101,1.732c0.023,0.71,0.156,1.273,0.387,1.695c0.058-0.067,0.205-0.105,0.436-0.109
				c0.232-0.008,0.384-0.058,0.46-0.153c0.152,0.13,0.402,0.141,0.756,0.023c0.354-0.118,0.609-0.081,0.764,0.119l-0.047,1.701
				c-0.145-0.02-0.358-0.088-0.635-0.211c-0.082,0.247-0.241,0.405-0.476,0.467c-0.097,0.034-0.365,0.06-0.81,0.085
				c0.012-0.078-0.058-0.156-0.209-0.236c-0.433,0.206-0.598,0.696-0.489,1.475c0.012-0.079,0.027,0.057,0.048,0.402
				c0.013,0.216-0.033,0.376-0.14,0.471c-0.271,0.04-0.612-0.021-1.03-0.181c-0.415-0.162-0.714-0.239-0.889-0.229
				c-0.078,0.004-0.153,0.015-0.213,0.032l-0.448,0.14l-0.716-7.77l-0.085-1.48c0.594-0.2,1.331-0.328,2.208-0.378
				c0.685-0.04,1.581-0.034,2.687,0.017c0.07-0.145,0.201,0.044,0.363,0.038c0.079-0.006,0.198,0.003,0.36,0.025
				c0.161,0.022,0.283,0.032,0.364,0.027c0.093-0.005,0.18-0.023,0.257-0.052l0.113-0.125c0.326,0.097,0.496,0.27,0.51,0.51
				c0.008,0.104-0.026,0.28-0.092,0.527c-0.062,0.248-0.093,0.438-0.086,0.565C263.389,313.989,263.419,314.093,263.472,314.178z
				 M260.674,327.145c-0.168,0.088-0.432,0.139-0.783,0.163c-0.46,0.026-0.737,0.05-0.834,0.067
				c-0.049-0.048-0.11-0.009-0.213-0.414c-0.067-0.267-0.235-0.393-0.503-0.375c-0.065,0.002-0.142,0.014-0.237,0.03l-0.432,0.027
				l-0.229-3.934c0.236-0.114,0.527-0.183,0.877-0.204c0.335-0.019,0.632,0.015,0.891,0.101c-0.004,0.145,0.199,0.206,0.611,0.176
				l0.456-0.027C260.546,323.862,260.714,325.857,260.674,327.145z"></path>
			<path d="M273.027,314.516l0.024,0.019c-0.226-0.015-0.946,0.035-1.501,0.103c-0.476,0.056-0.835,0.064-1.076,0.026
				c-0.231,0.155-0.317,0.366-0.252,0.629l0.147,0.088c-0.122,0.114-0.165,0.198-0.126,0.261l0.126,0.126
				c-0.029,2.28-0.035,3.54-0.019,3.784c0.032,0.603,0.104,1.131,0.209,1.59c-0.094,0.288-0.131,0.619-0.108,0.99
				c0.014,0.241,0.07,0.628,0.172,1.156c0.106,0.527,0.241,2.262,0.258,2.533c0.011,0.201,0.008,0.397-0.014,0.576
				c-0.221,0.091-0.457,0.143-0.711,0.16c-0.431,0.024-0.891-0.063-1.385-0.268c-0.058,0.055-0.126,0.112-0.204,0.176
				c-0.075,0.063-0.095,0.133-0.058,0.208c-0.159,0.043-0.379-0.019-0.662-0.195c-0.151-2.308-0.561-7.008-1.173-11.757
				c-0.216,0.193-0.612,0.032-1.023,0.083c-0.492,0.053-0.975-0.023-1.162,0.065c-0.239-0.256-0.186-0.333-0.208-0.753
				c-0.026-0.41-0.159-1.421-0.052-1.843c0.021-0.093,0.914-0.04,1.439-0.084c0.716-0.04,0.875,0.129,0.922,0.125
				c0.058-0.091,0.408-0.045,0.661-0.062c0.164,0.08,0.344-0.073,0.349,0.044c0.008,0.076,0,0.56-0.053,0.699
				c-0.057,0.14-0.083,0.243-0.079,0.305c0.009,0.153,0.12-0.072,0.378,0.017c0.289-0.006,0.584-0.017,0.886-0.034
				c0.338,0.031,0.727-0.09,0.696,0.195c0.058-0.083,0.096,0.061,0.579-0.134c0.358-0.164,0.577-0.583,0.507-0.871
				c-0.04-0.159,0.177-0.262,0.042-0.187c0.174-0.096,0.017-0.029,0.204-0.105c0.598,0.059,0.925-0.003,1.037-0.01
				c0.241-0.015,0.835,0.138,1.002,0.052c0.125,0.223,0.189,0.926,0.195,1.311C273.014,314.148,273.026,314.477,273.027,314.516z"></path>
			<path d="M280.771,322.54l-0.003-0.019c-0.085,0.17-0.131,0.367-0.131,0.586c-0.012,0.14,0,0.339,0.032,0.599
				c0.035,0.291,0.053,0.495,0.061,0.612c-0.129,0.006-0.64,0.034-1.533,0.089c-0.539,0.031-1.022,0.103-1.448,0.22l-0.477-0.361
				c-0.121,0.111-0.163,0.198-0.126,0.259c-0.08-0.007-0.448,0.014-1.1,0.064c-0.512,0.03-0.896,0.012-1.156-0.048
				c-0.241,0.231-0.543,0.25-0.906,0.051c-0.131-0.067-0.155-0.198-0.07-0.391c0.084-0.192,0.042-0.328-0.122-0.407
				c-0.006-0.41,0.012-1.048,0.058-1.913c0.053-0.775,0.064-1.382,0.038-1.819c-0.035-0.587-0.132-1.148-0.288-1.68
				c0.167-0.151,0.361-0.23,0.583-0.242c0.254-0.019,0.562,0.062,0.927,0.231c0.509,0.242,0.771,0.362,0.786,0.362l0.151,0.123
				c0.014-0.035,0.081-0.248,0.202-0.63c0.068-0.245,0.177-0.413,0.333-0.497l0.149,0.105c0.062-0.027,0.265-0.161,0.6-0.399
				c0.262-0.172,0.442-0.796,0.603-0.804c0.172-0.011,0.346,0.056,0.515,0.199c0.275,0.101,0.497,0.801,0.597,1.033
				c0.101,0.233,0.2,0.461,0.294,0.687c-0.715,0.067-1.308,0.096-1.77,0.084c-0.103,0.149-0.264,0.181-0.474,0.096
				c-0.213-0.085-0.364-0.058-0.454,0.076c0.015,0.229,0.04,0.645,0.073,1.248c0.017,0.54,0.04,0.962,0.073,1.268
				c0.042,0.474,0.118,0.907,0.221,1.302c0.128-0.011,0.736-0.044,1.817-0.105C279.574,322.476,280.222,322.482,280.771,322.54z
				 M280.029,313.495c-0.141,0.02-0.303,0.038-0.48,0.044c-0.362,0.023-0.846,0.013-1.462-0.029
				c-0.753-0.033-1.209-0.052-1.371-0.056c-0.205,0.285-0.233,0.512-0.205,1c0.062,1.049,0.096,1.504,0.104,1.363
				c0.229,0.089,0.353,0.277,0.367,0.561c0.008,0.384,0.017,0.579,0.035,0.594c-0.11,0.042-0.156,0.177-0.146,0.395
				c-0.177-0.042-0.366-0.134-0.566-0.277c-0.269-0.176-0.351,0.451-0.344,0.285l-0.121,0.393l-0.15-0.111
				c-0.125,0.021-0.348-0.017-0.665-0.116c-0.317-0.096-0.545-0.193-0.676-0.289c-0.01-0.202,0.02-0.319,0.097-0.352l-0.326-0.253
				l-0.131,0.185c-0.283-1.324-0.476-3.652-0.366-5.074c0.609,0.043,1.322-0.061,2.053-0.091c0.494-0.017,1.19-0.055,2.082-0.121
				c1.019-0.071,1.748-0.121,2.193-0.147c0.201,0.131,0.311,0.312,0.321,0.541c0.011,0.143-0.02,0.372-0.09,0.69
				C280.11,312.948,280.021,313.338,280.029,313.495z"></path>
			<path d="M288.719,321.173l-0.023,0.003c-0.1,0.199-0.132,0.484-0.096,0.852c0.049,0.527,0.07,0.796,0.073,0.809
				c-0.079,0.032-0.186-0.006-0.32-0.116c-0.204,0.076-0.3,0.204-0.29,0.384c0.003,0.025,0.012,0.067,0.031,0.131
				c0.004,0.078,0.008,0.128,0.01,0.156c0.007,0.14-0.035,0.245-0.126,0.317c-0.232-0.13-0.537-0.212-0.914-0.249
				c-0.378-0.035-0.734-0.071-1.072-0.105c-0.006-1.744-0.241-3.455-0.704-5.127c0,0.015-0.012-0.158-0.03-0.518
				c0-0.256-0.058-0.439-0.176-0.548l-0.159,0.144c0-0.024,0.048-0.076,0.159-0.152c0.105-0.078,0.158-0.155,0.155-0.233
				c-0.006-0.038-0.016-0.076-0.034-0.116l-0.175-0.127c-0.297,0.098-0.436,0.334-0.41,0.721c0.012,0.256-0.091,0.439-0.308,0.54
				c0.082,0.059,0.128,0.134,0.134,0.222c0.003,0.053-0.006,0.124-0.024,0.212c-0.018,0.093-0.027,0.164-0.024,0.218
				c0.006,0.112,0.067,0.208,0.183,0.279c0.006,0.078,0.046,0.767,0.122,2.076c0.049,0.833,0.027,1.543-0.068,2.125l0.021,0.327
				c-0.11-0.005-0.24-0.005-0.385,0.005c-0.159,0.009-0.39,0.03-0.692,0.067c-0.302,0.038-0.521,0.061-0.667,0.068
				c-0.587,0.033-1.002-0.063-1.238-0.296l-0.25-7.18c-0.118-0.353-0.193-0.844-0.23-1.471l-0.081-1.384
				c-0.055-0.68-0.138-1.204-0.257-1.567c0.049-0.247,0.265-0.383,0.646-0.404c0.242-0.015,0.56,0.017,0.965,0.099
				c0.189-0.089,0.448-0.144,0.782-0.163c0.096-0.006,0.248-0.008,0.454-0.008c0.224-0.012,0.386-0.023,0.48-0.029
				c0.621-0.034,1.035-0.227,1.24-0.571c0.286-0.001,0.6,0.087,0.936,0.271c0.338,0.189,0.636,0.287,0.896,0.296
				c0.675,0.399,1.044,1.059,1.095,1.984c0.011,0.206-0.07,1.021-0.242,2.447l-1.165,1.008c0.198,0.364,0.435,1.153,0.715,2.37
				C287.887,319.957,288.247,320.7,288.719,321.173z M286.565,313.005l0.026,0.017c0.021,0.088,0.01-0.227-0.029-0.94
				c-0.021-0.352-0.149-0.598-0.38-0.75c-0.131,0.184-0.159-0.251-0.22,0.184c-0.062,0.436-0.167,0.745-0.315,0.936
				c-0.401-0.002-0.494-0.241-0.733-0.576c-0.149-0.212-0.219-0.027-0.219-0.039l-0.109,0.086c-0.061,0.057-0.128,0.117-0.204,0.188
				c-0.077,0.068-0.155,0.091-0.238,0.07c0.006,0.076-0.032,0.199-0.109,0.364c-0.076,0.163-0.116,0.279-0.113,0.344
				c0.009,0.115,0.101,0.196,0.282,0.254c-0.035,0.258-0.045,0.529-0.029,0.813c0.012,0.153,0.046,0.503,0.111,1.053
				c0.072,0.433,0.102,0.804,0.09,1.114c0.145,0.006,0.278,0.002,0.406-0.005c0.557-0.032,0.92-0.252,1.088-0.659
				c0.055-0.12,0.12-0.55,0.19-1.286C286.122,313.614,286.294,313.226,286.565,313.005z"></path>
		</g>
		<g>
			<path d="M209.481,288.053v0.018c-0.07,0.667-0.094,1.129-0.068,1.38c-0.103,0.042-0.239,0.048-0.401,0.021
				c-0.213-0.035-0.335-0.052-0.369-0.05c-0.094,0.004-0.167,0.038-0.222,0.096c-0.134-0.084-0.223-0.119-0.269-0.106
				c-0.125,0.076-0.183,0.183-0.176,0.323c0.005,0.059,0.026,0.158,0.07,0.301c0.04,0.146,0.063,0.249,0.067,0.318
				c0.003,0.094-0.014,0.239-0.058,0.44c-0.04,0.199-0.058,0.362-0.053,0.492c0.009,0.149,0.04,0.388,0.099,0.71
				c0.057,0.322,0.088,0.565,0.096,0.727c-0.066,0.317-0.09,0.638-0.075,0.964c0.021,0.395,0.13,0.922,0.326,1.588
				c0.036,0.011,0.07,0.015,0.106,0.011c0.08-0.003,0.177-0.061,0.289-0.172c0.11-0.106,0.206-0.163,0.288-0.167
				c0.058-0.004,0.122,0.008,0.192,0.04c0.211,0.676,0.32,1.114,0.329,1.31c0.005,0.094,0.003,0.194-0.001,0.295
				c-0.312,0.077-0.531-0.03-0.662-0.313c0.018-0.082-0.027-0.169-0.134-0.258l-0.349,0.369c0.34,0.051,0.474,0.312,0.407,0.779
				c-0.032,0.098-0.103,0.148-0.221,0.152c-0.199-0.002-0.291-0.002-0.279-0.002l-0.287-0.511l-0.115,0.145
				c-0.095-0.239-0.205-0.353-0.333-0.345c-0.07,0.004-0.192,0.061-0.366,0.171c-0.176,0.116-0.321,0.174-0.436,0.178
				c-0.094,0.01-0.186-0.016-0.283-0.068c-0.007-0.141-0.023-0.284-0.049-0.436c-0.024-0.149-0.104-0.245-0.232-0.284
				c-0.007-0.364,0.005-1.309,0.031-2.847c0.012-1.164,0-2.106-0.038-2.826c-0.016-0.301-0.035-0.597-0.062-0.885
				c-0.061-0.089-0.122-0.133-0.18-0.129c-0.047,0.001-0.119,0.05-0.21,0.149c-0.095,0.097-0.177,0.141-0.247,0.134
				c-0.006-0.116-0.06-0.303-0.159-0.559c-0.101-0.256-0.152-0.44-0.162-0.557c-0.009-0.198,0.064-0.371,0.22-0.516l0.408,0.097
				c0.162-0.227,0.23-0.612,0.203-1.16c-0.005-0.103-0.02-0.272-0.042-0.496c-0.026-0.226-0.04-0.388-0.046-0.494
				c-0.042-0.894,0.232-1.355,0.823-1.386c0.219-0.012,0.487,0.027,0.807,0.117l0.39,0.102c0.031,0.149,0.05,0.304,0.058,0.468
				c0.009,0.223,0.002,0.544-0.031,0.971c-0.03,0.428-0.039,0.739-0.03,0.934c0.015,0.315,0.067,0.598,0.164,0.85
				c0.092-0.006,0.238-0.058,0.439-0.152c0.198-0.099,0.341-0.149,0.436-0.154C209.247,287.82,209.379,287.893,209.481,288.053z
				 M208.269,289.3l-0.02-0.399l-0.126-0.118L208.269,289.3z"></path>
			<path d="M214.267,286.799l0.019-0.001c-0.042,0.316-0.09,0.633-0.143,0.95c-0.062,0.363-0.166,0.647-0.308,0.853
				c-0.022-0.01-0.167-0.076-0.426-0.206c-0.181-0.094-0.341-0.132-0.478-0.116c-0.107,0.683-0.163,1.609-0.174,2.784
				c-0.006,1.501-0.02,2.408-0.036,2.722c-0.177-0.012-0.306,0.042-0.394,0.17c-0.088,0.127-0.167,0.253-0.244,0.387
				c-0.031,0.072-0.044,0.135-0.042,0.193c0.004,0.093,0.085,0.185,0.24,0.267c0.155,0.085,0.235,0.18,0.241,0.285
				c-0.067,0.248-0.216,0.378-0.436,0.389c-0.102,0.004-0.285-0.027-0.545-0.093c-0.256-0.07-0.438-0.103-0.545-0.096l-0.251-4.978
				c0.099-0.131,0.142-0.223,0.128-0.267l-0.145-0.096c0.012-0.21,0.024-1.257,0.034-3.128c0.007-1.269,0.055-2.294,0.143-3.079
				c-0.009,0.002,0.347-0.023,1.077-0.071c0.453-0.023,0.747,0.104,0.876,0.376c0.001,0.254-0.024,0.683-0.077,1.293
				c-0.051,0.561-0.073,0.993-0.058,1.294c0.021,0.372,0.078,0.704,0.176,1.002C213.29,287.106,213.747,286.826,214.267,286.799z
				 M215.998,287.864c0.034,0.463,0.061,0.915,0.085,1.359c0.097,1.925,0.067,3.986-0.09,6.181c-0.166,0.149-0.425,0.18-0.774,0.098
				c-0.346-0.082-0.597-0.047-0.752,0.097c-0.2-0.256-0.315-0.717-0.349-1.394c-0.05-0.975-0.075-1.479-0.076-1.514
				c-0.043-2.438,0.198-4.413,0.714-5.916C215.358,286.93,215.769,287.292,215.998,287.864z"></path>
			<path d="M222.105,290.392c-0.077,0.155-0.106,0.318-0.098,0.49c0.006,0.177,0.016,0.344,0.026,0.509
				c-0.02,0.139-0.057,0.279-0.119,0.426c-0.105-0.032-0.193-0.046-0.265-0.042c-0.081,0.004-0.164,0.034-0.246,0.089
				c-0.085,0.06-0.152,0.089-0.198,0.089c-0.071,0.006-0.164-0.022-0.283-0.072l-0.81-1.179c0.031,0.346,0.109,0.65,0.237,0.913
				c0.066,0.134,0.131,0.271,0.195,0.405c-0.472,0.087-0.74,0.101-0.801,0.043l-0.113,0.146l-0.28-0.369
				c-0.22,0.267-0.271,0.656-0.151,1.175c0.145,0.562,0.152,0.967,0.026,1.221c0.176,0.258,0.383,0.381,0.628,0.369
				c0.105-0.006,0.193-0.043,0.274-0.118c0.115-0.288,0.227-0.571,0.341-0.857c0.169-0.344,0.358-0.522,0.565-0.533
				c0.163-0.009,0.353,0.076,0.573,0.253c0.259,0.091,0.395,0.211,0.402,0.361c0.003,0.094-0.055,0.248-0.178,0.452
				c-0.124,0.213-0.183,0.375-0.178,0.492c0.004,0.044,0.01,0.083,0.024,0.122c-0.167,0.122-0.317,0.311-0.45,0.561
				c-0.134,0.252-0.308,0.425-0.524,0.518c-0.188,0.181-0.364,0.279-0.527,0.286c-0.128,0.006-0.318-0.093-0.573-0.294
				c-0.252-0.204-0.49-0.296-0.712-0.288c-0.09-0.203-0.317-0.432-0.678-0.679c-0.361-0.248-0.586-0.519-0.67-0.804
				c0.002,0.023-0.003-0.07-0.012-0.277c-0.007-0.118-0.057-0.192-0.151-0.221l0.131-0.128c-0.177-0.005-0.265-0.102-0.274-0.301
				c-0.003-0.022-0.004-0.07-0.009-0.141c0.009-0.058,0.012-0.104,0.011-0.14c-0.006-0.138-0.053-0.233-0.136-0.289l-0.03-0.606
				c-0.017-0.315-0.08-0.539-0.195-0.673c0.116-0.736,0.231-1.477,0.344-2.215c0.189-0.857,0.472-1.299,0.841-1.315
				c0.061-0.002,0.116,0.006,0.175,0.022c0.336-0.327,0.737-0.505,1.214-0.532c0.521-0.024,1.1,0.136,1.733,0.474
				C221.68,288.546,221.986,289.433,222.105,290.392z M219.705,288.468l-0.116,0.148c-0.079,0.014-0.176-0.026-0.283-0.125
				l0.019,0.399c-0.177,0.195-0.247,0.497-0.216,0.903c0.035,0.696,0.052,1.031,0.052,1.007l0.521-0.006
				c0.25-0.142,0.365-0.374,0.349-0.699c-0.008-0.163-0.062-0.43-0.17-0.803C219.754,288.921,219.702,288.65,219.705,288.468z"></path>
		</g>
		<g>
			<polygon fill-rule="evenodd" clip-rule="evenodd" points="226.194,307.951 226.713,308.25 228.472,303.633 227.884,303.438 
				226.126,308.056 226.639,308.382 226.194,307.951 226.194,307.951 			"></polygon>
			<polygon fill-rule="evenodd" clip-rule="evenodd" points="226.964,307.313 226.751,307.397 226.194,307.951 226.639,308.382 
				227.205,307.796 226.983,307.909 226.964,307.313 226.964,307.313 			"></polygon>
			<polygon fill-rule="evenodd" clip-rule="evenodd" points="231.22,307.278 231.472,307.08 226.964,307.313 226.983,307.909 
				231.491,307.678 231.778,307.464 231.22,307.278 231.22,307.278 231.22,307.278 			"></polygon>
			<polygon fill-rule="evenodd" clip-rule="evenodd" points="233.257,303.033 232.949,302.65 231.22,307.278 231.778,307.464 
				233.536,302.845 233.23,302.463 233.257,303.033 233.257,303.033 233.257,303.033 			"></polygon>
			<polygon fill-rule="evenodd" clip-rule="evenodd" points="228.963,303.179 228.739,303.29 233.257,303.033 233.23,302.463 
				228.731,302.666 228.509,302.778 228.963,303.179 228.963,303.179 228.963,303.179 			"></polygon>
			<polygon fill-rule="evenodd" clip-rule="evenodd" points="228.472,303.633 228.405,303.733 228.963,303.179 228.509,302.778 
				227.948,303.336 227.884,303.438 228.472,303.633 228.472,303.633 228.472,303.633 			"></polygon>
			<polygon fill-rule="evenodd" clip-rule="evenodd" points="232.215,307.826 232.615,307.646 231.65,307.11 231.342,307.658 
				232.336,308.205 232.774,308.012 232.186,307.817 232.186,307.817 232.215,307.826 			"></polygon>
			<polygon fill-rule="evenodd" clip-rule="evenodd" points="234.102,303.563 233.943,303.199 232.186,307.817 232.774,308.012 
				234.528,303.394 234.37,303.033 234.102,303.563 234.102,303.563 			"></polygon>
			<polygon fill-rule="evenodd" clip-rule="evenodd" points="233.536,302.845 233.1,303.041 234.102,303.563 234.37,303.033 
				233.406,302.494 232.949,302.65 233.536,302.845 233.536,302.845 			"></polygon>
			<polygon points="228.192,303.543 228.163,303.532 228.722,302.974 232.905,302.771 232.949,302.65 233.257,302.751 
				233.536,302.845 233.517,302.896 234.251,303.301 234.528,303.394 234.416,303.694 236.462,308.56 234.73,313.188 
				232.493,307.92 232.493,307.92 232.204,308.04 232.186,307.817 232.208,307.761 231.501,307.372 231.342,307.658 
				231.253,307.383 226.964,307.59 226.405,308.149 			"></polygon>
			<polygon fill-rule="evenodd" clip-rule="evenodd" points="234.452,313.093 235.019,313.066 232.781,307.799 232.204,308.04 
				234.443,313.309 235.011,313.281 234.425,313.084 234.425,313.084 234.452,313.093 			"></polygon>
			<polygon fill-rule="evenodd" clip-rule="evenodd" points="236.202,308.692 236.183,308.467 234.425,313.084 235.011,313.281 
				236.769,308.665 236.75,308.443 236.202,308.692 236.202,308.692 			"></polygon>
			<polygon fill-rule="evenodd" clip-rule="evenodd" points="234.528,303.394 233.962,303.423 236.202,308.692 236.75,308.443 
				234.513,303.171 233.943,303.199 234.528,303.394 234.528,303.394 			"></polygon>
			<polygon fill-rule="evenodd" clip-rule="evenodd" fill="#FFFFFF" points="234.382,304.585 234.632,305.133 234.723,305.688 
				234.698,306.236 234.537,306.806 234.26,307.362 233.878,307.855 233.386,308.308 232.79,308.7 232.466,308.841 232.14,308.978 
				231.778,309.043 231.442,309.118 231.12,309.16 230.765,309.199 230.44,309.155 230.105,309.136 229.815,309.071 
				229.511,308.966 229.212,308.838 228.953,308.688 228.731,308.522 228.479,308.344 228.275,308.122 228.108,307.878 
				227.854,307.333 227.763,306.774 227.763,306.217 227.952,305.659 228.192,305.12 228.582,304.601 229.076,304.145 
				229.697,303.765 229.995,303.616 230.349,303.485 230.681,303.412 231.016,303.339 231.369,303.299 231.694,303.255 
				232.021,303.299 232.355,303.32 232.661,303.418 232.967,303.523 233.246,303.616 233.532,303.776 233.767,303.915 
				234.007,304.117 234.176,304.359 234.382,304.585 234.382,304.585 234.382,304.585 			"></polygon>
			<polygon fill-rule="evenodd" clip-rule="evenodd" points="234.602,305.496 234.854,306.046 234.936,306.628 234.912,307.177 
				234.76,307.716 234.51,308.283 234.091,308.792 233.635,309.23 233.013,309.61 232.679,309.776 232.355,309.915 232.018,309.988 
				231.659,310.058 231.333,310.102 231.016,310.121 230.681,310.102 230.327,310.047 230.04,309.98 229.731,309.879 
				229.464,309.757 229.176,309.599 228.944,309.459 228.728,309.264 228.517,309.069 228.329,308.792 228.07,308.271 
				227.979,307.712 228.012,307.135 228.163,306.597 228.414,306.03 228.797,305.537 229.289,305.082 229.91,304.704 
				230.245,304.536 230.562,304.422 230.904,304.322 231.269,304.259 231.583,304.238 231.908,304.194 232.235,304.238 
				232.566,304.259 232.885,304.332 233.191,304.432 233.46,304.555 233.758,304.688 233.979,304.851 234.233,305.027 
				234.397,305.271 234.595,305.523 234.595,305.523 234.602,305.496 			"></polygon>
			<polygon fill-rule="evenodd" clip-rule="evenodd" fill="#FFFFFF" points="234.76,306.135 235.023,306.657 235.105,307.242 
				235.075,307.792 234.929,308.327 234.65,308.886 234.257,309.404 233.803,309.841 233.182,310.221 232.874,310.399 
				232.521,310.53 232.186,310.603 231.823,310.668 231.499,310.717 231.183,310.733 230.845,310.717 230.493,310.659 
				230.207,310.592 229.899,310.492 229.631,310.37 229.343,310.213 229.112,310.071 228.868,309.869 228.692,309.654 
				228.496,309.404 228.238,308.886 228.143,308.323 228.17,307.777 228.329,307.211 228.58,306.646 228.97,306.125 
				229.481,305.707 230.078,305.314 230.413,305.15 230.737,305.008 231.074,304.935 231.435,304.87 231.759,304.826 
				232.076,304.806 232.438,304.833 232.737,304.87 233.052,304.947 233.358,305.05 233.654,305.176 233.916,305.327 
				234.148,305.468 234.397,305.642 234.564,305.886 234.76,306.135 234.76,306.135 			"></polygon>
			<polygon fill-rule="evenodd" clip-rule="evenodd" points="234.984,307.045 235.235,307.595 235.33,308.153 235.33,308.707 
				235.141,309.265 234.9,309.804 234.481,310.315 234.018,310.784 233.395,311.162 233.096,311.308 232.743,311.439 
				232.408,311.515 232.076,311.585 231.72,311.625 231.396,311.669 231.071,311.625 230.737,311.607 230.42,311.534 
				230.114,311.429 229.843,311.308 229.557,311.151 229.333,310.982 229.112,310.817 228.906,310.592 228.71,310.342 
				228.487,309.803 228.366,309.237 228.396,308.688 228.553,308.122 228.823,307.59 229.212,307.072 229.706,306.617 
				230.3,306.229 230.626,306.086 230.952,305.948 231.314,305.884 231.65,305.808 231.974,305.763 232.318,305.755 232.65,305.772 
				232.959,305.78 233.276,305.855 233.581,305.958 233.878,306.086 234.138,306.236 234.392,306.413 234.614,306.583 
				234.818,306.806 234.973,307.074 234.973,307.074 234.984,307.045 			"></polygon>
			<polygon fill-rule="evenodd" clip-rule="evenodd" fill="#FFFFFF" points="235.31,307.646 235.57,308.172 235.662,308.728 
				235.652,309.312 235.503,309.852 235.226,310.41 234.807,310.919 234.352,311.356 233.758,311.747 233.422,311.914 
				233.069,312.044 232.734,312.119 232.399,312.19 232.045,312.23 231.732,312.25 231.396,312.23 231.071,312.182 230.755,312.109 
				230.45,312.006 230.178,311.884 229.91,311.765 229.657,311.585 229.444,311.392 229.242,311.167 229.072,310.929 
				228.81,310.408 228.701,309.814 228.728,309.264 228.906,308.734 229.158,308.17 229.546,307.646 230.032,307.221 
				230.626,306.833 230.959,306.666 231.284,306.523 231.639,306.489 231.981,306.385 232.308,306.34 232.65,306.33 232.987,306.35 
				233.282,306.385 233.599,306.461 233.935,306.573 234.203,306.692 234.474,306.813 234.723,306.99 234.936,307.186 
				235.144,307.41 235.31,307.646 235.31,307.646 			"></polygon>
			<polygon fill-rule="evenodd" clip-rule="evenodd" points="235.561,308.571 235.783,309.109 235.905,309.675 235.875,310.224 
				235.716,310.79 235.449,311.32 235.057,311.841 234.564,312.298 233.97,312.687 233.645,312.825 233.29,312.955 232.959,313.028 
				232.624,313.104 232.298,313.149 231.945,313.185 231.619,313.142 231.284,313.121 230.998,313.055 230.663,312.944 
				230.392,312.822 230.132,312.676 229.88,312.499 229.657,312.331 229.453,312.106 229.286,311.867 229.036,311.318 
				228.916,310.752 228.944,310.202 229.13,309.644 229.371,309.104 229.761,308.584 230.254,308.129 230.877,307.75 
				231.174,307.603 231.527,307.473 231.863,307.397 232.196,307.327 232.551,307.286 232.874,307.24 233.2,307.286 
				233.507,307.296 233.852,307.381 234.157,307.483 234.428,307.605 234.687,307.751 234.936,307.928 235.159,308.096 
				235.363,308.32 235.561,308.571 235.561,308.571 235.561,308.571 			"></polygon>
			<polygon fill-rule="evenodd" clip-rule="evenodd" points="204.837,301.479 204.867,301.302 203.098,305.946 203.657,306.131 
				205.424,301.487 205.432,301.368 204.837,301.479 204.837,301.479 204.837,301.479 			"></polygon>
			<polygon fill-rule="evenodd" clip-rule="evenodd" points="204.79,301.243 204.799,301.218 204.837,301.479 205.432,301.368 
				205.368,301.097 205.378,301.069 204.79,301.243 204.79,301.243 204.79,301.243 			"></polygon>
			<polygon fill-rule="evenodd" clip-rule="evenodd" points="204.727,300.977 204.79,301.243 205.378,301.069 205.312,300.798 
				204.727,300.977 204.727,300.977 204.727,300.977 			"></polygon>
			<polygon fill-rule="evenodd" clip-rule="evenodd" points="204.651,300.736 204.727,300.977 205.312,300.798 205.238,300.559 
				204.651,300.736 204.651,300.736 			"></polygon>
			<polygon fill-rule="evenodd" clip-rule="evenodd" points="204.586,300.465 204.586,300.465 204.651,300.736 205.238,300.559 
				205.171,300.291 205.165,300.318 204.586,300.465 204.586,300.465 204.586,300.465 			"></polygon>
			<polygon fill-rule="evenodd" clip-rule="evenodd" points="204.513,300.131 204.513,300.226 204.586,300.465 205.165,300.318 
				205.091,300.075 205.118,300.177 204.513,300.131 204.513,300.131 			"></polygon>
			<polygon fill-rule="evenodd" clip-rule="evenodd" points="205.107,300.018 204.522,299.917 204.513,300.131 205.118,300.177 
				205.125,299.965 204.541,299.86 205.098,300.047 205.098,300.047 205.107,300.018 			"></polygon>
			<polygon fill-rule="evenodd" clip-rule="evenodd" fill="#4C4849" points="205.616,313.538 205.558,313.239 204.938,313.343 
				204.982,313.669 205.616,313.538 205.616,313.538 205.616,313.538 			"></polygon>
			<polygon fill-rule="evenodd" clip-rule="evenodd" points="206.908,309.667 206.925,309.517 205.168,314.135 205.727,314.319 
				207.483,309.701 207.474,309.543 206.908,309.667 206.908,309.667 206.908,309.667 			"></polygon>
			<polygon fill-rule="evenodd" clip-rule="evenodd" points="206.862,309.338 206.908,309.667 207.474,309.543 207.428,309.22 
				206.834,309.331 206.834,309.331 206.862,309.338 			"></polygon>
			<polygon fill-rule="evenodd" clip-rule="evenodd" points="206.78,309.036 206.834,309.331 207.428,309.22 207.346,308.914 
				206.78,309.036 206.78,309.036 206.78,309.036 			"></polygon>
			<polygon fill-rule="evenodd" clip-rule="evenodd" points="206.705,308.7 206.723,308.734 206.78,309.036 207.346,308.914 
				207.299,308.584 207.317,308.626 206.705,308.7 206.705,308.7 206.705,308.7 			"></polygon>
			<polygon fill-rule="evenodd" clip-rule="evenodd" points="207.262,308.42 206.667,308.344 206.705,308.7 207.317,308.626 
				207.27,308.303 206.676,308.227 207.262,308.42 207.262,308.42 			"></polygon>
			<g>
				<polygon fill="#4C4849" points="203.099,305.025 202.819,305.11 203.099,305.025 				"></polygon>
				<polygon fill="#4C4849" points="203.395,305.992 203.406,305.968 203.55,305.979 203.657,306.131 203.396,306.047 				"></polygon>
				<polygon points="202.752,304.842 203.054,304.783 203.063,304.571 204.83,299.93 204.821,299.955 204.821,300.142 
					204.867,300.375 204.959,300.653 205.034,300.896 205.098,301.163 205.144,301.396 205.144,301.396 205.424,301.487 
					203.657,306.131 203.55,305.979 203.406,305.968 203.395,305.992 203.396,306.047 203.657,306.131 203.398,306.117 
					203.406,306.329 203.226,306.107 203.082,306.096 203.042,305.835 203.148,305.813 203.264,305.514 202.969,305.596 
					202.883,305.38 202.819,305.11 203.099,305.025 203.099,305.025 202.819,305.11 202.828,305.082 				"></polygon>
			</g>
			<g>
				<polygon fill="none" points="217.14,306.111 217.14,306.111 217.393,305.543 				"></polygon>
				<polygon points="203.386,305.735 216.323,305.31 216.656,305.327 216.713,305.35 217.029,305.424 217.058,305.435 
					217.393,305.543 217.718,305.685 217.745,305.692 218.053,305.887 218.108,305.904 218.349,306.111 218.424,306.167 
					218.601,306.379 218.617,306.417 218.739,306.612 218.748,306.678 218.179,306.848 218.087,306.707 218.081,306.734 
					217.932,306.528 217.934,306.528 217.734,306.37 217.783,306.417 217.466,306.251 217.468,306.247 217.14,306.111 
					217.14,306.111 216.861,306.015 216.546,305.945 216.604,305.962 216.304,305.923 216.304,305.896 203.406,306.329 				"></polygon>
				<polygon points="218.165,306.856 218.179,306.848 218.209,306.9 				"></polygon>
			</g>
			<polygon fill-rule="evenodd" clip-rule="evenodd" points="225.076,317.708 225.076,317.525 223.307,322.169 223.894,322.365 
				225.661,317.718 225.661,317.536 225.076,317.708 225.076,317.708 225.076,317.708 			"></polygon>
			<polygon fill-rule="evenodd" clip-rule="evenodd" points="219.97,302.281 219.931,302.208 225.076,317.708 225.661,317.536 
				220.516,302.03 220.505,301.969 219.97,302.281 219.97,302.281 219.97,302.281 			"></polygon>
			<polygon fill-rule="evenodd" clip-rule="evenodd" points="219.863,302.128 219.848,302.09 219.97,302.281 220.505,301.969 
				220.387,301.773 220.358,301.759 219.836,302.117 219.836,302.117 219.863,302.128 			"></polygon>
			<polygon fill-rule="evenodd" clip-rule="evenodd" points="219.745,301.93 219.697,301.884 219.836,302.117 220.358,301.759 
				220.162,301.514 220.116,301.464 219.745,301.93 219.745,301.93 219.745,301.93 			"></polygon>
			<polygon fill-rule="evenodd" clip-rule="evenodd" points="219.539,301.801 219.495,301.753 219.745,301.93 220.116,301.464 
				219.863,301.291 219.819,301.241 219.539,301.801 219.539,301.801 			"></polygon>
			<polygon fill-rule="evenodd" clip-rule="evenodd" points="219.26,301.613 219.232,301.605 219.539,301.801 219.819,301.241 
				219.503,301.075 219.475,301.066 219.26,301.613 219.26,301.613 			"></polygon>
			<polygon fill-rule="evenodd" clip-rule="evenodd" points="218.965,301.485 218.898,301.491 219.26,301.613 219.475,301.066 
				219.15,300.926 219.123,300.918 218.928,301.502 218.928,301.502 218.965,301.485 			"></polygon>
			<polygon fill-rule="evenodd" clip-rule="evenodd" points="218.63,301.375 218.593,301.391 218.928,301.502 219.123,300.918 
				218.787,300.807 218.787,300.807 218.617,301.398 218.617,301.398 218.63,301.375 			"></polygon>
			<polygon fill-rule="evenodd" clip-rule="evenodd" points="218.369,301.314 218.313,301.298 218.617,301.398 218.787,300.807 
				218.444,300.724 218.417,300.713 218.369,301.314 218.369,301.314 218.369,301.314 			"></polygon>
			<polygon fill-rule="evenodd" clip-rule="evenodd" points="218.07,301.279 218.062,301.304 218.369,301.314 218.417,300.713 
				218.09,300.664 218.053,300.686 218.07,301.279 218.07,301.279 			"></polygon>
			<polygon fill-rule="evenodd" clip-rule="evenodd" points="205.452,301.497 205.135,301.698 218.07,301.279 218.053,300.686 
				205.144,301.118 204.867,301.302 205.424,301.487 205.424,301.487 205.452,301.497 			"></polygon>
			<polygon fill="#4C4849" points="208.7,315.622 208.656,315.596 208.683,315.583 			"></polygon>
			<g>
				<polygon fill="#4C4849" points="215.687,317.71 215.635,318.337 215.687,317.71 				"></polygon>
				<g>
					<polygon fill="none" points="215.662,318.01 215.635,318.337 215.662,318.01 					"></polygon>
					<g>
						<polygon fill="none" points="205.178,312.982 205.198,312.935 205.209,312.994 						"></polygon>
						<path d="M204.982,313.669l0.056,0.297l0.112,0.318l0.139,0.231l0.79,0.419l0.79,0.416l0.762,0.411l0.772,0.379l0.027,0.01
							l0.781,0.351l0.78,0.358l0.845,0.341l0.856,0.317l0.027,0.009l0.911,0.241l0.91,0.242l0.029,0.011l1.005,0.149l1.03,0.16
							l0.03,0.007l1.122,0.062l0.04-0.017l1.197,0.03l1.283-0.041l1.358-0.072l0.279-0.186l1.757-4.617l-0.297-0.41l0.019,0.598
							l-0.093-0.118l0.067-0.174l-0.195,0.014l-0.084-0.105l-0.044,0.116l-1.008,0.058h-1.301l-1.2-0.025l-1.095-0.058l-1.068-0.14
							l-0.995-0.174l-0.912-0.243l-0.911-0.242l-0.853-0.317l-0.829-0.31l-0.779-0.351l-0.771-0.379l-0.801-0.392l-0.762-0.409
							l-0.761-0.409l-0.527-0.28l0.015-0.047l-0.277-0.093l0,0l-0.073-0.332l-0.058-0.299l-0.021-0.102l0.208-0.456l-0.294-0.098
							l-0.015-0.006l0,0l-0.278-0.09l-1.758,4.617l-0.018,0.149l0.045,0.323L204.982,313.669z M205.198,312.935l0.011,0.059
							l-0.031-0.012L205.198,312.935z"></path>
					</g>
				</g>
			</g>
			<polygon fill-rule="evenodd" clip-rule="evenodd" points="221.033,313.758 222.391,313.686 222.372,313.088 221.015,313.165 
				221.033,313.758 221.033,313.758 221.033,313.758 			"></polygon>
			<polygon fill-rule="evenodd" clip-rule="evenodd" points="219.752,313.797 221.033,313.758 221.015,313.165 219.732,313.203 
				219.752,313.797 219.752,313.797 219.752,313.797 			"></polygon>
			<polygon fill-rule="evenodd" clip-rule="evenodd" points="218.526,313.758 218.554,313.765 219.752,313.797 219.732,313.203 
				218.535,313.172 218.572,313.154 218.514,313.783 218.514,313.783 218.526,313.758 			"></polygon>
			<polygon fill-rule="evenodd" clip-rule="evenodd" points="217.372,313.686 217.4,313.69 218.514,313.783 218.572,313.154 
				217.447,313.087 217.475,313.098 217.372,313.686 217.372,313.686 217.372,313.686 			"></polygon>
			<polygon fill-rule="evenodd" clip-rule="evenodd" points="216.331,313.553 217.372,313.686 217.475,313.098 216.442,312.938 
				216.331,313.553 216.331,313.553 			"></polygon>
			<polygon fill-rule="evenodd" clip-rule="evenodd" points="215.308,313.366 215.336,313.378 216.331,313.553 216.442,312.938 
				215.412,312.78 215.44,312.789 215.308,313.366 215.308,313.366 215.308,313.366 			"></polygon>
			<polygon fill-rule="evenodd" clip-rule="evenodd" points="214.398,313.122 215.308,313.366 215.44,312.789 214.529,312.548 
				214.386,313.153 214.386,313.153 214.398,313.122 			"></polygon>
			<polygon fill-rule="evenodd" clip-rule="evenodd" points="213.449,312.901 213.478,312.91 214.386,313.153 214.529,312.548 
				213.619,312.306 213.646,312.316 213.449,312.901 213.449,312.901 			"></polygon>
			<polygon fill-rule="evenodd" clip-rule="evenodd" points="212.595,312.583 212.595,312.583 213.449,312.901 213.646,312.316 
				212.79,312 212.821,312.007 212.57,312.575 212.57,312.575 212.595,312.583 			"></polygon>
			<polygon fill-rule="evenodd" clip-rule="evenodd" points="211.75,312.24 212.57,312.575 212.821,312.007 212.001,311.672 
				211.75,312.24 211.75,312.24 			"></polygon>
			<polygon fill-rule="evenodd" clip-rule="evenodd" points="210.968,311.885 211.75,312.24 212.001,311.672 211.212,311.347 
				210.968,311.885 210.968,311.885 			"></polygon>
			<polygon fill-rule="evenodd" clip-rule="evenodd" points="210.17,311.496 210.188,311.535 210.968,311.885 211.212,311.347 
				210.414,310.961 210.44,310.968 210.161,311.524 210.161,311.524 210.17,311.496 			"></polygon>
			<polygon fill-rule="evenodd" clip-rule="evenodd" points="209.399,311.116 210.161,311.524 210.44,310.968 209.667,310.586 
				209.39,311.142 209.39,311.142 209.399,311.116 			"></polygon>
			<polygon fill-rule="evenodd" clip-rule="evenodd" points="208.636,310.706 209.39,311.142 209.667,310.586 208.907,310.179 
				208.607,310.701 208.607,310.701 208.636,310.706 			"></polygon>
			<polygon fill-rule="evenodd" clip-rule="evenodd" points="207.847,310.288 208.607,310.701 208.907,310.179 208.144,309.765 
				207.847,310.288 207.847,310.288 			"></polygon>
			<polygon fill-rule="evenodd" clip-rule="evenodd" points="207.483,309.701 207.057,309.869 207.847,310.288 208.144,309.765 
				207.355,309.349 206.925,309.517 207.483,309.701 207.483,309.701 207.483,309.701 			"></polygon>
			<polygon fill-rule="evenodd" clip-rule="evenodd" points="288.042,301.334 286.274,305.98 292.045,307.905 293.385,304.819 
				293.421,304.524 293.432,304.215 293.385,303.889 293.273,303.573 293.087,303.296 292.938,302.998 292.697,302.701 
				292.448,302.433 292.186,302.19 291.898,301.939 291.601,301.713 291.311,301.557 291.032,301.371 290.708,301.231 
				290.419,301.073 290.142,300.981 289.892,300.897 289.59,300.859 289.324,300.834 289.063,300.87 288.801,300.908 
				288.524,300.998 288.281,301.166 288.042,301.334 288.042,301.334 288.042,301.334 			"></polygon>
			<polygon fill-rule="evenodd" clip-rule="evenodd" points="291.785,307.756 292.147,307.599 286.376,305.674 286.182,306.259 
				291.954,308.183 292.341,308.033 291.785,307.756 291.785,307.756 			"></polygon>
			<g>
				<polygon fill="none" points="292.898,309.093 292.936,309.409 292.898,309.093 				"></polygon>
				<polygon fill="none" points="295.876,305.984 296.088,306.187 295.856,306.024 				"></polygon>
				<g>
					<polygon fill="none" points="296.088,306.187 295.856,306.024 295.876,305.984 					"></polygon>
					<g>
						<polygon fill="none" points="296.088,306.187 295.856,306.024 295.876,305.984 						"></polygon>
						<polygon points="202.752,304.563 202.783,304.477 204.541,299.86 205.098,300.047 203.392,304.609 203.358,304.794 
							203.351,304.729 202.752,304.842 202.746,304.777 						"></polygon>
						<g>
							<polygon fill="none" points="296.088,306.187 295.856,306.024 295.876,305.984 							"></polygon>
							<polygon fill="#4C4849" points="231.052,315.493 230.949,315.553 230.939,315.545 							"></polygon>
							<g>
								<polygon fill="none" points="231.164,315.762 231.384,315.973 231.164,315.762 								"></polygon>
								<polygon fill="none" points="296.088,306.187 295.856,306.024 295.876,305.984 								"></polygon>
								<polygon fill="none" points="223.587,322.261 223.607,322.261 223.607,322.27 223.307,322.169 223.558,322.171 								"></polygon>
								<path d="M202.969,305.596l0.063,0.268l0.01-0.029l0.451-0.093l-0.115,0.298l12.937-0.424l0.304,0.01l0.337,0.114
									l0.334,0.107l0.335,0.116l0.306,0.194l0.251,0.176l0.177,0.216l0.109,0.213l-0.303,0.093l5.142,15.5l0.303,0.003l0.006,0.19
									h0.463l0.437-0.009l0.4,0.009l0.363-0.062l0.369-0.097l0.375-0.18l0.341-0.29l0.41-0.392l0.009-0.029l0.233-0.323
									l0.268-0.344l0.31-0.361l0.215-0.364l0.27-0.437l0.279-0.372l0.23-0.414l0.296-0.431l0.242-0.354l0.346-0.379l0.281-0.371
									l0.324-0.328l0.285-0.305l0.311-0.271l0.295-0.238l0.344-0.194l0.073-0.04l-0.221-0.211l0,0l0.221,0.211l0.346-0.379
									l0.315-0.301l0.279-0.274l0.3-0.244l0.289-0.212l0.303-0.178l0.271-0.155l0.297-0.149l0.333-0.076l0.326-0.137l0.335-0.075
									l0.39-0.056l0.426-0.077l0.476-0.027l0.512-0.044l0.5-0.02l0.03,0.012l55.824-4.171l0.327-0.043l0.297-0.059l0.269-0.064
									l0.279-0.093l0.259-0.129l0.273-0.16l0.224-0.203l0.258-0.224l0.055-0.073l0.975-2.276l-0.505-0.328l0.222,0.222
									l-0.036,0.028l-0.247-0.173l-0.243,0.569l-0.166,0.097l-0.213,0.085l-0.25,0.101l-0.234,0.048l-0.295,0.056l-0.299,0.055
									l-55.854,4.161l-0.356,0.035l-0.342,0.011l-0.341,0.009l-0.365,0.059h-0.372l-0.322,0.05l-0.355,0.037l-0.324,0.048
									l-0.362,0.064l-0.327,0.046l-0.332,0.073l-0.374,0.094l-0.336,0.073l-0.354,0.131l-0.353,0.13l-0.333,0.166l-0.66,0.399
									l-0.67,0.614l-0.703,0.724l-0.683,0.827l-0.657,0.863l-0.567,0.773l-0.557,0.743l-0.463,0.559l-0.273,0.062l-0.233,0.047
									l-0.288,0.029h-0.279h-0.281l-0.241-0.02l-0.304-0.011l-0.271-0.029l-5.126-15.462l-0.111-0.223l-0.176-0.213l-0.25-0.177
									l-0.336-0.204l-0.324-0.14l-0.335-0.115l-0.317-0.073L218.07,301l-12.927,0.396l-1.554,4.085l-0.009-0.055L202.969,305.596z
									 M295.856,306.024l0.02-0.04l0.212,0.203L295.856,306.024z"></path>
							</g>
						</g>
					</g>
				</g>
			</g>
			<polygon fill-rule="evenodd" clip-rule="evenodd" points="293.904,307.163 294.237,307.085 294.535,307.033 294.806,306.964 
				295.086,306.873 295.345,306.742 295.614,306.586 295.826,306.41 296.088,306.187 295.646,305.757 295.447,305.973 
				295.244,306.124 295.046,306.242 294.833,306.324 294.629,306.38 294.388,306.456 294.129,306.492 293.84,306.519 
				293.904,307.163 293.904,307.163 			"></polygon>
			<polygon fill-rule="evenodd" clip-rule="evenodd" points="238.086,311.305 293.904,307.163 293.84,306.519 238.013,310.689 
				238.086,311.305 238.086,311.305 			"></polygon>
			<polygon fill-rule="evenodd" clip-rule="evenodd" points="232.612,312.295 232.938,312.157 233.255,312.044 233.635,311.924 
				233.952,311.812 234.295,311.712 234.621,311.666 234.947,311.618 235.308,311.555 235.606,311.496 235.949,311.489 
				236.305,311.452 236.658,311.417 237.008,311.378 237.325,311.36 237.706,311.331 238.086,311.305 238.013,310.689 
				237.658,310.726 237.31,310.763 236.937,310.763 236.582,310.801 236.237,310.811 235.905,310.884 235.558,310.892 
				235.179,310.919 234.842,310.996 234.51,311.069 234.148,311.134 233.774,311.228 233.459,311.339 233.079,311.457 
				232.697,311.58 232.363,311.746 232.612,312.295 232.612,312.295 232.612,312.295 			"></polygon>
			<polygon fill-rule="evenodd" clip-rule="evenodd" points="227.612,317.811 227.732,317.728 227.985,317.439 228.208,317.143 
				228.475,316.801 228.755,316.428 229.072,316.039 229.362,315.637 229.685,315.22 230.01,314.804 230.346,314.357 
				230.687,313.975 231.025,313.622 231.366,313.239 231.655,312.933 232.018,312.687 232.317,312.444 232.612,312.295 
				232.363,311.746 231.981,311.961 231.655,312.19 231.276,312.499 230.916,312.843 230.579,313.195 230.242,313.548 
				229.874,314.013 229.546,314.431 229.222,314.848 228.896,315.267 228.609,315.667 228.29,316.056 228.012,316.428 
				227.741,316.771 227.522,317.07 227.314,317.311 227.427,317.251 227.612,317.811 227.612,317.811 227.612,317.811 			"></polygon>
			<polygon fill="none" points="287.921,301.603 288.042,301.334 288.263,301.13 288.599,300.962 288.99,300.908 289.203,300.916 
				289.446,300.935 289.676,300.981 289.909,301.027 290.187,301.123 290.44,301.207 290.708,301.325 290.996,301.484 
				291.238,301.595 291.489,301.773 291.71,301.939 291.956,302.145 292.206,302.318 292.38,302.533 292.597,302.728 
				292.772,302.943 293.096,303.36 293.264,303.788 293.348,304.003 293.395,304.144 293.366,304.505 293.299,304.792 
				293.094,305.033 292.798,305.18 292.399,305.264 292.177,305.286 291.945,305.237 291.675,305.209 291.388,305.144 
				291.135,305.06 290.857,304.966 290.559,304.841 290.297,304.688 290.031,304.566 289.739,304.41 289.49,304.236 
				289.249,304.028 289.024,303.861 288.793,303.631 288.588,303.406 288.414,303.189 288.128,302.752 287.956,302.329 
				287.912,302.189 287.863,301.956 			"></polygon>
			<polygon fill-rule="evenodd" clip-rule="evenodd" fill="#FFFFFF" points="216.919,301.019 218.07,301 218.165,301 208.268,297.7 
				207.767,297.996 216.908,301.046 216.908,301.046 216.919,301.019 			"></polygon>
			<polygon fill-rule="evenodd" clip-rule="evenodd" fill="#FFFFFF" points="216.919,301.019 205.144,301.396 205.098,301.163 
				205.034,300.896 204.959,300.653 204.867,300.375 204.821,300.142 204.821,299.955 204.894,299.732 205.098,299.583 
				205.583,299.25 206.119,298.934 206.658,298.617 207.198,298.302 207.711,297.975 207.767,297.996 216.908,301.046 
				216.908,301.046 216.919,301.019 			"></polygon>
			<polygon fill="#FFFFFF" points="209.76,308.17 217.783,307.718 220.92,308.982 222.028,312.262 222.364,313.395 221.033,313.477 
				219.732,313.477 218.532,313.452 217.437,313.395 216.369,313.254 215.375,313.081 214.462,312.837 213.551,312.595 
				212.698,312.278 211.87,311.969 211.09,311.618 210.319,311.238 209.518,310.846 208.756,310.437 207.995,310.028 
				207.206,309.608 207.133,309.276 207.075,308.978 207.002,308.644 206.954,308.316 			"></polygon>
			<polygon fill-rule="evenodd" clip-rule="evenodd" fill="#FFFFFF" points="229.965,309.087 230.078,309.22 231.109,309.841 
				231.442,309.305 230.411,308.681 230.513,308.838 229.965,309.087 230.001,309.16 230.078,309.22 229.965,309.087 
				229.965,309.087 			"></polygon>
			<polygon fill-rule="evenodd" clip-rule="evenodd" fill="#FFFFFF" points="220.792,309.281 220.616,309.066 222.085,313.487 
				222.669,313.311 221.204,308.888 221.042,308.711 221.204,308.888 221.155,308.749 221.042,308.711 220.792,309.281 
				220.792,309.281 220.792,309.281 			"></polygon>
			<polygon fill-rule="evenodd" clip-rule="evenodd" fill="#FFFFFF" points="217.81,308.009 217.661,307.987 220.792,309.281 
				221.042,308.711 217.914,307.421 217.792,307.412 217.914,307.421 217.856,307.402 217.792,307.412 217.81,308.009 
				217.81,308.009 217.81,308.009 			"></polygon>
			<polygon fill-rule="evenodd" clip-rule="evenodd" fill="#FFFFFF" points="207.27,308.303 206.975,308.633 217.81,308.009 
				217.792,307.412 206.956,308.04 206.667,308.344 206.956,308.04 206.61,308.045 206.667,308.344 207.27,308.303 207.27,308.303 
							"></polygon>
			<polygon fill-rule="evenodd" clip-rule="evenodd" fill="#FFFFFF" points="207.355,309.349 207.474,309.543 207.465,309.386 
				207.428,309.22 207.419,309.062 207.374,308.921 207.365,308.765 207.326,308.598 207.279,308.457 207.27,308.303 
				206.667,308.344 206.665,308.532 206.694,308.726 206.74,308.862 206.752,309.021 206.796,309.16 206.834,309.331 
				206.898,309.508 206.908,309.667 207.057,309.869 206.908,309.667 206.954,309.803 207.057,309.869 207.355,309.349 
				207.355,309.349 			"></polygon>
			<polygon fill-rule="evenodd" clip-rule="evenodd" fill="#FFFFFF" points="222.092,313.46 222.343,313.081 221.015,313.165 
				219.732,313.203 218.572,313.154 217.447,313.087 216.442,312.938 215.44,312.789 214.529,312.548 213.646,312.316 212.79,312 
				212.001,311.672 211.212,311.347 210.44,310.968 209.667,310.586 208.907,310.179 208.144,309.765 207.355,309.349 
				207.057,309.869 207.847,310.288 208.607,310.701 209.39,311.142 210.161,311.524 210.968,311.885 211.75,312.24 
				212.595,312.583 213.449,312.901 214.386,313.153 215.308,313.366 216.331,313.553 217.4,313.69 218.514,313.783 
				219.752,313.797 221.033,313.758 222.416,313.693 222.669,313.311 222.416,313.693 222.8,313.666 222.669,313.311 
				222.085,313.487 222.085,313.487 222.092,313.46 			"></polygon>
			<g>
				<polygon fill="none" points="227.698,317.389 227.927,317.609 227.698,317.389 				"></polygon>
				<polygon fill="none" points="225.642,317.311 225.589,317.312 225.589,317.312 				"></polygon>
				<polygon fill="none" points="220.598,302.275 228.731,304.992 220.598,302.275 				"></polygon>
			</g>
			<polygon fill-rule="evenodd" clip-rule="evenodd" fill="#FFFFFF" points="238.013,310.689 237.605,310.708 237.148,310.773 
				236.74,310.79 236.295,310.825 235.869,310.901 235.412,310.968 234.955,311.034 234.518,311.134 234.08,311.238 
				233.703,311.356 233.282,311.496 232.893,311.645 232.557,311.812 232.158,311.989 231.833,312.222 231.534,312.461 
				231.908,312.929 232.194,312.712 232.475,312.526 232.779,312.35 233.133,312.222 233.478,312.027 233.849,311.934 
				234.285,311.832 234.668,311.712 235.086,311.666 235.458,311.57 235.905,311.535 236.332,311.461 236.787,311.395 
				237.232,311.356 237.65,311.312 238.086,311.305 238.013,310.689 238.013,310.689 238.013,310.689 			"></polygon>
			<polygon fill-rule="evenodd" clip-rule="evenodd" fill="#FFFFFF" points="293.84,306.519 238.013,310.689 238.086,311.305 
				293.904,307.163 293.84,306.519 293.84,306.519 			"></polygon>
			<polygon fill-rule="evenodd" clip-rule="evenodd" fill="#FFFFFF" points="294.881,303.118 295.113,303.444 295.354,303.744 
				295.468,304.06 295.643,304.366 295.735,304.644 295.765,304.931 295.771,305.182 295.755,305.424 295.689,305.619 
				295.596,305.805 295.474,305.981 295.26,306.158 295.039,306.272 294.684,306.4 294.315,306.492 293.84,306.519 293.904,307.163 
				294.416,307.113 294.864,306.984 295.25,306.835 295.596,306.644 295.913,306.435 296.134,306.137 296.255,305.869 
				296.368,305.535 296.359,305.191 296.376,304.859 296.301,304.524 296.179,304.145 296.042,303.815 295.856,303.444 
				295.614,303.056 295.374,302.757 294.881,303.118 294.881,303.118 			"></polygon>
			<polygon fill-rule="evenodd" clip-rule="evenodd" fill="#FFFFFF" points="288.226,299.939 288.73,299.921 289.24,299.97 
				289.761,300.081 290.26,300.156 290.736,300.314 291.21,300.471 291.665,300.686 292.095,300.891 292.539,301.13 
				292.947,301.391 293.386,301.662 293.7,301.919 294.035,302.218 294.361,302.544 294.629,302.85 294.881,303.118 
				295.374,302.757 295.086,302.414 294.76,302.09 294.434,301.759 294.073,301.457 293.673,301.168 293.273,300.88 
				292.865,300.618 292.402,300.338 291.917,300.119 291.424,299.921 290.922,299.755 290.395,299.577 289.87,299.466 
				289.34,299.382 288.735,299.336 288.21,299.342 288.226,299.939 288.226,299.939 			"></polygon>
			<polygon fill-rule="evenodd" clip-rule="evenodd" fill="#FFFFFF" points="238.833,301.64 288.226,299.939 288.21,299.342 
				238.842,301.054 238.833,301.64 238.833,301.64 			"></polygon>
			<polygon fill-rule="evenodd" clip-rule="evenodd" fill="#FFFFFF" points="231.037,300.399 231.5,300.588 231.994,300.691 
				232.469,300.847 232.959,300.951 233.478,301.065 233.962,301.193 234.492,301.275 234.967,301.341 235.46,301.446 
				235.969,301.49 236.472,301.564 236.965,301.574 237.438,301.639 237.941,301.619 238.394,301.651 238.833,301.64 
				238.842,301.054 238.375,301.054 237.922,301.027 237.492,301.008 237.011,300.974 236.527,300.932 236.045,300.896 
				235.571,300.83 235.07,300.757 234.577,300.653 234.105,300.588 233.621,300.46 233.118,300.385 232.635,300.251 
				232.122,300.114 231.694,300.003 231.223,299.845 231.028,300.43 231.028,300.43 231.037,300.399 			"></polygon>
			<polygon fill-rule="evenodd" clip-rule="evenodd" fill="#FFFFFF" points="214.374,295.835 215.219,295.714 216.016,295.638 
				216.78,295.582 217.478,295.537 218.138,295.508 218.733,295.583 219.345,295.603 219.857,295.648 220.387,295.732 
				220.881,295.837 221.344,295.93 221.764,296.069 222.209,296.217 222.559,296.364 222.998,296.542 223.343,296.718 
				223.742,296.917 224.141,297.109 224.532,297.334 224.923,297.557 225.313,297.778 225.722,298.042 226.122,298.235 
				226.558,298.505 227.04,298.728 227.505,299.007 228.025,299.211 228.527,299.472 229.092,299.722 229.708,299.93 
				230.359,300.204 231.028,300.43 231.223,299.845 230.553,299.621 229.893,299.371 229.343,299.154 228.768,298.933 
				228.24,298.661 227.784,298.449 227.319,298.168 226.864,297.956 226.418,297.714 226,297.481 225.609,297.259 225.2,296.997 
				224.811,296.774 224.409,296.581 224.013,296.385 223.647,296.17 223.25,295.976 222.812,295.798 222.402,295.632 
				221.958,295.482 221.484,295.326 220.99,295.223 220.491,295.147 219.939,295.027 219.375,294.96 218.788,294.954 
				218.108,294.943 217.46,294.942 216.706,294.967 215.943,295.025 215.139,295.126 214.301,295.221 214.347,295.823 
				214.347,295.823 214.374,295.835 			"></polygon>
			<polygon fill-rule="evenodd" clip-rule="evenodd" fill="#FFFFFF" points="205.256,299.855 205.738,299.517 206.277,299.2 
				206.818,298.889 207.365,298.544 207.867,298.247 208.435,297.939 208.965,297.651 209.512,297.402 210.1,297.134 
				210.684,296.863 211.261,296.624 211.856,296.418 212.497,296.263 213.082,296.083 213.724,295.927 214.347,295.823 
				214.301,295.221 213.602,295.357 212.942,295.481 212.292,295.664 211.678,295.831 211.065,296.089 210.432,296.314 
				209.859,296.558 209.271,296.826 208.677,297.123 208.11,297.429 207.579,297.717 207.04,298.031 206.499,298.349 
				205.962,298.661 205.453,298.989 204.94,299.312 205.226,299.845 205.226,299.845 205.256,299.855 			"></polygon>
			<polygon fill-rule="evenodd" clip-rule="evenodd" fill="#FFFFFF" points="205.144,301.118 205.46,301.375 205.368,301.097 
				205.312,300.798 205.238,300.559 205.171,300.291 205.135,300.121 205.107,300.018 205.153,299.881 205.226,299.845 
				204.94,299.312 204.671,299.561 204.53,299.889 204.493,300.188 204.586,300.465 204.651,300.736 204.727,300.977 
				204.799,301.218 204.845,301.452 205.135,301.698 204.845,301.452 204.857,301.698 205.135,301.698 205.144,301.118 
				205.144,301.118 			"></polygon>
			<g>
				<polygon fill="none" points="227.948,303.336 227.953,303.339 227.875,303.653 				"></polygon>
				<polygon fill="#FFFFFF" points="227.96,303.31 227.953,303.339 227.948,303.336 				"></polygon>
				<polygon fill="#FFFFFF" points="227.82,303.448 227.948,303.336 227.875,303.653 				"></polygon>
				<g>
					<polygon fill="none" points="288.042,301.334 288.263,301.13 288.599,300.962 288.99,300.908 289.203,300.916 289.446,300.935 
						289.676,300.981 289.909,301.027 290.187,301.123 290.44,301.207 290.708,301.325 290.996,301.484 291.238,301.595 
						291.489,301.773 291.71,301.939 291.956,302.145 292.206,302.318 292.38,302.533 292.597,302.728 292.772,302.943 
						293.096,303.36 293.264,303.788 293.348,304.003 293.395,304.144 293.366,304.505 293.299,304.792 293.094,305.033 
						292.798,305.18 292.399,305.264 292.177,305.286 291.945,305.237 291.675,305.209 291.388,305.144 291.135,305.06 
						290.857,304.966 290.559,304.841 290.297,304.688 290.031,304.566 289.739,304.41 289.49,304.236 289.249,304.028 
						289.024,303.861 288.793,303.631 288.588,303.406 288.414,303.189 288.128,302.752 287.956,302.329 287.912,302.189 
						287.863,301.956 287.921,301.603 					"></polygon>
					<polygon fill="none" points="234.241,303.296 234.241,303.296 233.962,303.423 					"></polygon>
					<polygon fill="none" points="236.247,308.365 236.444,308.524 236.462,308.56 235.933,309.221 231.265,309.554 230.254,308.97 
						230.249,308.959 230.513,308.838 228.529,303.613 228.856,303.284 233.1,303.041 233.998,303.51 236.202,308.692 					"></polygon>
					<polygon fill="none" points="220.328,301.723 220.328,301.723 228.134,304.326 					"></polygon>
					<g>
						<polygon fill="none" points="288.042,301.334 288.263,301.13 288.599,300.962 288.99,300.908 289.203,300.916 
							289.446,300.935 289.676,300.981 289.909,301.027 290.187,301.123 290.44,301.207 290.708,301.325 290.996,301.484 
							291.238,301.595 291.489,301.773 291.71,301.939 291.956,302.145 292.206,302.318 292.38,302.533 292.597,302.728 
							292.772,302.943 293.096,303.36 293.264,303.788 293.348,304.003 293.395,304.144 293.366,304.505 293.299,304.792 
							293.094,305.033 292.798,305.18 292.399,305.264 292.177,305.286 291.945,305.237 291.675,305.209 291.388,305.144 
							291.135,305.06 290.857,304.966 290.559,304.841 290.297,304.688 290.031,304.566 289.739,304.41 289.49,304.236 
							289.249,304.028 289.024,303.861 288.793,303.631 288.588,303.406 288.414,303.189 288.128,302.752 287.956,302.329 
							287.912,302.189 287.863,301.956 287.921,301.603 						"></polygon>
						<polygon fill="none" points="233.1,303.041 233.998,303.51 236.202,308.692 236.247,308.365 236.444,308.524 236.462,308.56 
							235.933,309.221 231.265,309.554 230.254,308.97 230.249,308.959 230.513,308.838 228.529,303.613 228.856,303.284 						"></polygon>
						<polygon fill="none" points="220.328,301.723 220.328,301.723 228.134,304.326 						"></polygon>
						<g>
							<polygon fill="none" points="288.042,301.334 288.263,301.13 288.599,300.962 288.99,300.908 289.203,300.916 
								289.446,300.935 289.676,300.981 289.909,301.027 290.187,301.123 290.44,301.207 290.708,301.325 290.996,301.484 
								291.238,301.595 291.489,301.773 291.71,301.939 291.956,302.145 292.206,302.318 292.38,302.533 292.597,302.728 
								292.772,302.943 293.096,303.36 293.264,303.788 293.348,304.003 293.395,304.144 293.366,304.505 293.299,304.792 
								293.094,305.033 292.798,305.18 292.399,305.264 292.177,305.286 291.945,305.237 291.675,305.209 291.388,305.144 
								291.135,305.06 290.857,304.966 290.559,304.841 290.297,304.688 290.031,304.566 289.739,304.41 289.49,304.236 
								289.249,304.028 289.024,303.861 288.793,303.631 288.588,303.406 288.414,303.189 288.128,302.752 287.956,302.329 
								287.912,302.189 287.863,301.956 287.921,301.603 							"></polygon>
							<polygon fill="none" points="233.1,303.041 233.998,303.51 236.202,308.692 236.247,308.365 236.444,308.524 236.462,308.56 
								235.938,309.214 235.905,308.932 231.241,309.265 231.442,309.305 231.287,309.552 231.265,309.554 230.254,308.97 
								230.249,308.959 230.513,308.838 228.529,303.613 228.856,303.284 							"></polygon>
							<polygon fill="none" points="220.328,301.723 220.328,301.723 228.134,304.326 							"></polygon>
							<g>
								<polygon fill="none" points="236.365,307.538 245.207,310.487 236.365,307.538 								"></polygon>
								<polygon fill="none" points="236.137,306.996 246.321,310.396 236.137,306.996 								"></polygon>
								<polygon fill="none" points="288.042,301.334 288.263,301.13 288.599,300.962 288.99,300.908 289.203,300.916 
									289.446,300.935 289.676,300.981 289.909,301.027 290.187,301.123 290.44,301.207 290.708,301.325 290.996,301.484 
									291.238,301.595 291.489,301.773 291.71,301.939 291.956,302.145 292.206,302.318 292.38,302.533 292.597,302.728 
									292.772,302.943 293.096,303.36 293.264,303.788 293.348,304.003 293.395,304.144 293.366,304.505 293.299,304.792 
									293.094,305.033 292.798,305.18 292.399,305.264 292.177,305.286 291.945,305.237 291.675,305.209 291.388,305.144 
									291.135,305.06 290.857,304.966 290.559,304.841 290.297,304.688 290.031,304.566 289.739,304.41 289.49,304.236 
									289.249,304.028 289.024,303.861 288.793,303.631 288.588,303.406 288.414,303.189 288.128,302.752 287.956,302.329 
									287.912,302.189 287.863,301.956 287.921,301.603 								"></polygon>
								<polygon fill="none" points="233.1,303.041 233.998,303.51 236.202,308.692 236.247,308.365 236.444,308.524 
									236.462,308.56 235.938,309.214 235.933,309.221 231.287,309.552 231.265,309.554 230.254,308.97 230.249,308.959 
									230.513,308.838 228.529,303.613 228.856,303.284 								"></polygon>
								<polygon fill="none" points="220.328,301.723 220.328,301.723 228.134,304.326 								"></polygon>
								<polygon fill="#FFFFFF" points="236.137,306.996 246.321,310.396 245.214,310.46 245.207,310.487 236.365,307.538 								
									"></polygon>
								<g>
									<polygon fill="none" points="288.042,301.334 288.263,301.13 288.599,300.962 288.99,300.908 289.203,300.916 
										289.446,300.935 289.676,300.981 289.909,301.027 290.187,301.123 290.44,301.207 290.708,301.325 290.996,301.484 
										291.238,301.595 291.489,301.773 291.71,301.939 291.956,302.145 292.206,302.318 292.38,302.533 292.597,302.728 
										292.772,302.943 293.096,303.36 293.264,303.788 293.348,304.003 293.395,304.144 293.366,304.505 293.299,304.792 
										293.094,305.033 292.798,305.18 292.399,305.264 292.177,305.286 291.945,305.237 291.675,305.209 291.388,305.144 
										291.135,305.06 290.857,304.966 290.559,304.841 290.297,304.688 290.031,304.566 289.739,304.41 289.49,304.236 
										289.249,304.028 289.024,303.861 288.793,303.631 288.588,303.406 288.414,303.189 288.128,302.752 287.956,302.329 
										287.912,302.189 287.863,301.956 287.921,301.603 									"></polygon>
									<polygon fill="none" points="233.1,303.041 233.998,303.51 236.127,308.518 235.797,308.941 231.241,309.265 
										231.442,309.305 231.287,309.552 231.265,309.554 230.254,308.97 230.249,308.959 230.513,308.838 228.529,303.613 
										228.856,303.284 									"></polygon>
									<polygon fill="none" points="236.247,308.365 236.444,308.524 236.444,308.524 									"></polygon>
									<polygon fill="none" points="220.328,301.723 220.328,301.723 228.134,304.326 									"></polygon>
									<path fill="#FFFFFF" d="M205.135,301.698l12.936-0.419l0.27,0.024l0.252,0.087l0.335,0.111l0.304,0.103l0.278,0.186
										l0.207,0.128l0.119,0.198l0.095,0.091l5.145,15.5l0.073,0.241l0.252-0.007l0.259-0.037l0.298,0.037l0.363,0.028
										l0.341-0.011l0.337,0.021l0.306-0.085l0.342-0.101l0.279-0.186l0.335-0.358l0.28-0.368l0.261-0.315l0.258-0.312
										l0.224-0.302l0.213-0.27l0.186-0.276l0.224-0.3l0.185-0.277l0.215-0.268l0.212-0.271l0.233-0.233l0.244-0.261l0.279-0.277
										l0.279-0.282l0.353-0.311l-0.188-0.236l0.279-0.231l0.318-0.204l0.362-0.157l0.334-0.167l0.362-0.155l0.409-0.115
										l0.419-0.14l0.408-0.106l0.39-0.06l0.43-0.076l0.454-0.063l0.43-0.072l0.445-0.039l0.445-0.038l0.42-0.046l0.409-0.017
										l7.175-0.519l-8.842-2.949l-0.229-0.542l0,0l10.184,3.399l47.564-3.55l0.884-0.138l0.661-0.307l0.457-0.437l0.162-0.501
										v-0.557l0.012-0.029l-0.157-0.64l-0.315-0.635l-0.458-0.678l-0.266-0.305l-0.299-0.317l-0.326-0.323l-0.341-0.271
										l-0.362-0.31l-0.409-0.258l-0.438-0.271l-0.437-0.269l-0.467-0.186l-0.456-0.213l-0.503-0.169l-0.527-0.174l-0.5-0.075
										l-0.522-0.112l-0.542-0.057l-0.525,0.011l-7.185,0.264l-42.184,1.445h-0.466l-0.434,0.007l-0.495-0.007l-0.472-0.066
										l-0.484-0.038l-0.481-0.038l-0.475-0.067l-0.502-0.073l-0.503-0.073l-0.491-0.103l-0.493-0.106l-0.492-0.101l-0.51-0.136
										l-0.481-0.135l-0.46-0.119l-0.472-0.155l-0.669-0.227l-0.657-0.251l-0.578-0.221l-0.576-0.226l-0.502-0.257l-0.484-0.223
										l-0.5-0.264l-0.457-0.213l-0.436-0.269l-0.392-0.224l-0.418-0.231l-0.39-0.222l-0.417-0.23l-0.39-0.227l-0.372-0.186
										l-0.39-0.223l-0.402-0.195l-0.408-0.167l-0.39-0.131l-0.446-0.149l-0.474-0.157l-0.453-0.122l-0.504-0.073l-0.53-0.085
										l-0.539-0.055l-0.603-0.046l-0.643-0.03l-0.658,0.029l-0.689,0.017l-0.771,0.084l-0.801,0.074l-0.873,0.111l-0.65,0.093
										l-0.643,0.157l-0.64,0.156l-0.597,0.206l-0.629,0.226l-0.604,0.229l-0.573,0.24l-0.587,0.27l-0.558,0.279l-0.568,0.309
										l9.028,3.01l-12.152,0.408L205.135,301.698z M287.863,301.956l0.058-0.353l0.122-0.269l0.221-0.204l0.335-0.168
										l0.392-0.055l0.213,0.008l0.243,0.02l0.23,0.046l0.233,0.046l0.278,0.096l0.253,0.083l0.269,0.119l0.288,0.159l0.242,0.111
										l0.251,0.178l0.221,0.166l0.246,0.206l0.25,0.173l0.175,0.215l0.216,0.195l0.176,0.215l0.324,0.417l0.168,0.428
										l0.083,0.215l0.047,0.141l-0.029,0.362l-0.067,0.287l-0.206,0.241l-0.296,0.147l-0.399,0.084l-0.222,0.021l-0.232-0.049
										l-0.27-0.027l-0.288-0.065l-0.253-0.084l-0.277-0.094l-0.298-0.125l-0.262-0.153l-0.266-0.122l-0.292-0.157l-0.25-0.173
										l-0.241-0.208l-0.225-0.167l-0.23-0.23l-0.206-0.225l-0.174-0.216l-0.286-0.437l-0.172-0.423l-0.044-0.14L287.863,301.956z
										 M236.444,308.524L236.444,308.524l-0.198-0.159L236.444,308.524z M228.529,303.613l0.327-0.329l4.244-0.244l0.898,0.469
										l2.129,5.008l-0.33,0.423l-4.556,0.324l0.201,0.04l-0.155,0.247l-0.022,0.002l-1.011-0.583l-0.005-0.011l0.265-0.121
										L228.529,303.613z"></path>
								</g>
							</g>
						</g>
					</g>
				</g>
			</g>
			<polygon fill-rule="evenodd" clip-rule="evenodd" points="284.99,305.179 284.731,305.031 284.686,304.798 285.057,304.704 
				285.132,304.947 284.908,304.78 284.99,305.179 284.99,305.179 			"></polygon>
			<polygon fill-rule="evenodd" clip-rule="evenodd" points="285.496,304.882 285.438,304.958 285.343,305.05 285.231,305.104 
				285.125,305.159 284.99,305.179 284.908,304.78 284.964,304.798 285.048,304.733 285.15,304.704 285.161,304.678 285.14,304.733 
				285.487,304.909 285.487,304.909 285.496,304.882 			"></polygon>
			<polygon fill-rule="evenodd" clip-rule="evenodd" points="284.445,302.55 284.472,302.558 284.649,302.772 284.881,303.005 
				285.103,303.266 285.316,303.553 285.494,303.859 285.595,304.204 285.597,304.576 285.487,304.909 285.14,304.733 
				285.215,304.509 285.198,304.289 285.132,304.017 284.964,303.777 284.78,303.499 284.578,303.275 284.342,303.041 
				284.165,302.829 284.192,302.837 284.445,302.55 284.445,302.55 			"></polygon>
			<polygon fill-rule="evenodd" clip-rule="evenodd" points="281.025,301.562 280.997,301.553 281.49,301.562 281.953,301.562 
				282.391,301.647 282.809,301.692 283.236,301.807 283.635,302.002 284.052,302.233 284.445,302.55 284.192,302.837 
				283.812,302.585 283.449,302.372 283.108,302.197 282.736,302.103 282.326,302.029 281.907,301.98 281.481,301.964 
				281.044,301.973 281.053,301.945 280.988,301.581 280.988,301.581 281.025,301.562 			"></polygon>
			<polygon fill-rule="evenodd" clip-rule="evenodd" points="244.761,303.466 244.919,303.36 280.988,301.581 281.053,301.945 
				244.974,303.753 245.136,303.649 244.761,303.466 244.761,303.466 			"></polygon>
			<polygon fill-rule="evenodd" clip-rule="evenodd" points="243.907,304.727 243.515,304.597 243.544,304.326 243.618,304.105 
				243.729,303.863 243.877,303.694 244.072,303.573 244.323,303.473 244.602,303.382 244.919,303.36 244.974,303.753 
				244.675,303.808 244.409,303.872 244.276,303.889 244.146,304.003 244.085,304.105 243.981,304.227 243.926,304.393 
				243.935,304.643 243.544,304.51 243.907,304.727 243.907,304.727 			"></polygon>
			<g>
				<polygon fill="none" points="244.919,303.371 244.974,303.753 244.919,303.371 				"></polygon>
				<g>
					<polygon fill="none" points="243.935,304.643 243.981,304.41 244.09,304.171 244.186,303.986 244.38,303.863 244.612,303.815 
						244.938,303.77 244.974,303.753 281.053,301.945 281.655,301.991 282.16,301.973 282.632,302.037 283.068,302.122 
						283.47,302.317 283.83,302.529 284.165,302.829 284.548,303.266 284.881,303.656 285.125,304.044 285.243,304.332 
						285.243,304.52 285.161,304.678 284.929,304.816 284.491,304.92 283.878,304.992 246.805,306.902 246.777,306.894 
						246.258,306.875 245.747,306.734 245.291,306.519 244.901,306.297 244.575,305.973 244.345,305.646 244.14,305.331 
						243.981,305.063 243.951,304.865 					"></polygon>
					<g>
						<path fill="none" d="M243.981,304.41l-0.046,0.233l0.016,0.222l0.03,0.198l0.159,0.268l0.206,0.315l0.229,0.326l0.326,0.324
							l0.39,0.222l0.456,0.215l0.512,0.14l0.519,0.02l0.027,0.008l37.074-1.91l0.612-0.072l0.438-0.104l0.231-0.138l0.082-0.159
							v-0.188l-0.118-0.288l-0.244-0.388l-0.333-0.39l-0.384-0.437l-0.335-0.3l-0.359-0.212l-0.402-0.195l-0.436-0.085l-0.472-0.064
							l-0.505,0.019l-0.602-0.046l-36.079,1.808l-0.037,0.017l-0.326,0.045l-0.232,0.047l-0.194,0.124l-0.095,0.185L243.981,304.41z
							 M244.492,304.178l36.079-1.807l0.017-0.055l0.483,0.036h0.466l0.438,0.083l0.417,0.047l0.427,0.113l0.399,0.195l0.39,0.223
							l0.417,0.326l0.158,0.174l0.14,0.141l0.131,0.168l0.109,0.128l0.158,0.181l0.122,0.192l0.101,0.155l0.104,0.16l0.009,0.066
							l-0.372,0.095l0.009,0.065l-0.095-0.186l-0.099-0.159l-0.142-0.139l-0.102-0.16l-0.111-0.128l-0.131-0.169l-0.137-0.137
							l-0.167-0.149l0.012-0.014l-0.331-0.247l-0.354-0.244l-0.352-0.149l-0.371-0.094l-0.409-0.076l-0.418-0.041l-0.456-0.032
							l-0.437,0.011l-36.067,1.782L244.492,304.178z"></path>
						<g>
							<path fill="none" d="M243.981,304.41l-0.046,0.233l0.016,0.222l0.03,0.198l0.159,0.268l0.206,0.315l0.229,0.326l0.326,0.324
								l0.39,0.222l0.456,0.215l0.512,0.14l0.519,0.02l0.027,0.008l37.074-1.91l0.612-0.072l0.438-0.104l0.231-0.138l0.082-0.159
								v-0.188l-0.118-0.288l-0.244-0.388l-0.333-0.39l-0.384-0.437l-0.335-0.3l-0.359-0.212l-0.402-0.195l-0.436-0.085
								l-0.472-0.064l-0.505,0.019l-0.602-0.046l-36.079,1.808l-0.037,0.017l-0.326,0.045l-0.232,0.047l-0.194,0.124l-0.095,0.185
								L243.981,304.41z"></path>
							<g>
								<polygon fill="none" points="244.09,304.171 244.186,303.986 244.38,303.863 244.612,303.815 244.825,303.787 
									244.529,304.347 280.606,302.539 281.07,302.539 281.5,302.558 281.937,302.64 282.354,302.688 282.751,302.791 
									283.135,302.949 283.514,303.2 283.887,303.479 284.015,303.645 284.156,303.787 284.286,303.95 284.427,304.093 
									284.527,304.249 284.66,304.416 284.762,304.576 284.881,304.769 284.896,304.826 284.491,304.92 283.878,304.992 
									246.805,306.902 246.777,306.894 246.258,306.875 245.747,306.734 245.291,306.519 244.901,306.297 244.575,305.973 
									244.345,305.646 244.14,305.331 243.981,305.063 243.951,304.865 243.935,304.643 243.981,304.41 								"></polygon>
								<polygon points="284.762,304.576 284.66,304.416 284.527,304.249 284.427,304.093 284.286,303.95 284.156,303.787 
									284.015,303.645 283.887,303.479 283.514,303.2 283.135,302.949 282.751,302.791 282.354,302.688 281.937,302.64 
									281.5,302.558 281.07,302.539 280.606,302.539 244.529,304.347 244.825,303.787 244.938,303.77 244.974,303.753 
									281.053,301.945 281.655,301.991 282.16,301.973 282.632,302.037 283.068,302.122 283.47,302.317 283.83,302.529 
									284.165,302.829 284.548,303.266 284.881,303.656 285.125,304.044 285.243,304.332 285.243,304.52 285.161,304.678 
									284.929,304.816 284.896,304.826 284.881,304.769 								"></polygon>
								<g>
									<polygon fill="none" points="243.997,304.375 244.027,304.366 244.213,304.366 244.529,304.347 244.83,303.787 
										244.938,303.77 244.974,303.753 281.053,301.945 281.655,301.991 282.16,301.973 282.632,302.037 283.068,302.122 
										283.47,302.317 283.83,302.529 284.165,302.829 284.548,303.266 284.881,303.656 285.125,304.044 285.243,304.332 
										285.243,304.52 285.161,304.678 284.929,304.816 284.896,304.826 284.491,304.92 283.878,304.992 246.805,306.902 
										246.777,306.894 246.258,306.875 245.747,306.734 245.291,306.519 244.901,306.297 244.575,305.973 244.345,305.646 
										244.14,305.331 243.981,305.063 243.951,304.865 243.935,304.643 243.981,304.41 									"></polygon>
									<path d="M243.515,304.597l0.04,0.352l0.071,0.242l0.104,0.341l0.242,0.393l0.296,0.315l0.38,0.346l0.457,0.308l0.512,0.229
										l0.537,0.148l0.651,0.002l37.062-1.881l0.707-0.073l0.5-0.111l0.366-0.25l0.204-0.336l-0.009-0.345l-0.139-0.417
										l-0.269-0.399l-0.372-0.466l-0.381-0.437l-0.409-0.355l-0.436-0.266l-0.428-0.206l-0.463-0.092l-0.557-0.093h-0.558
										l-0.633,0.035l-36.069,1.779v0.011l-0.382,0.019l-0.391,0.149l-0.257,0.223l-0.178,0.251l-0.119,0.27L243.515,304.597z
										 M243.935,304.643l0.046-0.233l0.016-0.035l0.03-0.009h0.186l0.316-0.019l0.301-0.56l0.108-0.017l0.037-0.017l36.079-1.808
										l0.602,0.046l0.505-0.019l0.472,0.064l0.436,0.085l0.402,0.195l0.359,0.212l0.335,0.3l0.384,0.437l0.333,0.39l0.244,0.388
										l0.118,0.288v0.188l-0.082,0.159l-0.231,0.138l-0.033,0.01l-0.405,0.094l-0.612,0.072l-37.074,1.91l-0.027-0.008
										l-0.519-0.02l-0.512-0.14l-0.456-0.215l-0.39-0.222l-0.326-0.324l-0.229-0.326l-0.206-0.315l-0.159-0.268l-0.03-0.198
										L243.935,304.643z"></path>
								</g>
							</g>
						</g>
					</g>
				</g>
			</g>
		</g>
	</g>
	
	<rect x="179.356" y="396.849" fill="none" width="142.492" height="106.495"></rect>
	
</g>
<g id="Your_Art_Here">
</g>
</svg>