<svg version="1.1" id="Layer_1" xmlns="http://www.w3.org/2000/svg" xmlns:xlink="http://www.w3.org/1999/xlink" x="0px" y="0px" viewBox="0 0 5925 5925" enable-background="new 0 0 1422 1422" xml:space="preserve" width="5925" height="5925">
<rect x="0" y="0" opacity="0.5" width="1422" height="1422"></rect>
<g id="INSERT">
	<g id="SPLINE">
		
			<polygon fill="#FFFFFF" stroke="#EB232A" stroke-width="0.9921" stroke-linecap="round" stroke-linejoin="round" stroke-miterlimit="10" points="
			1329.12,318.96 1222.5,318.96 1103.041,318.96 1188,234.001 1188,97.92 1108.08,97.92 1103.041,92.88 1098,20.88 324,20.88 
			318.96,92.881 313.921,97.92 233.999,97.92 233.999,234.001 318.96,318.96 121.499,318.96 92.879,318.96 20.879,324 20.879,1098 
			92.879,1103.04 121.499,1103.04 318.959,1103.04 233.999,1187.999 233.999,1324.08 313.919,1324.08 318.959,1329.12 
			323.999,1401.12 1098,1401.12 1103.039,1329.119 1108.078,1324.08 1188,1324.08 1188,1187.999 1103.039,1103.04 1222.5,1103.04 
			1329.12,1103.04 1401.121,1098 1401.121,324 		"></polygon>
	</g>
</g>
<rect x="318.96" y="318.96" fill="none" stroke="#00A551" stroke-miterlimit="10" width="784.079" height="784.08"></rect>
<rect x="318.96" y="97.92" fill="none" stroke="#00A551" stroke-width="0.531" stroke-miterlimit="10" width="784.079" height="221.04"></rect>
<g>
	<g>
		<polyline fill="none" stroke="#00ADEE" stroke-miterlimit="10" points="333.96,309.96 327.96,309.96 327.96,303.96 		"></polyline>
		
			<line fill="none" stroke="#00ADEE" stroke-miterlimit="10" stroke-dasharray="12.736,12.736" x1="327.96" y1="291.224" x2="327.96" y2="119.288"></line>
		<polyline fill="none" stroke="#00ADEE" stroke-miterlimit="10" points="327.96,112.92 327.96,106.92 333.96,106.92 		"></polyline>
		
			<line fill="none" stroke="#00ADEE" stroke-miterlimit="10" stroke-dasharray="11.9695,11.9695" x1="345.93" y1="106.92" x2="1082.054" y2="106.92"></line>
		<polyline fill="none" stroke="#00ADEE" stroke-miterlimit="10" points="1088.039,106.92 1094.039,106.92 1094.039,112.92 		"></polyline>
		
			<line fill="none" stroke="#00ADEE" stroke-miterlimit="10" stroke-dasharray="12.736,12.736" x1="1094.039" y1="125.656" x2="1094.039" y2="297.592"></line>
		<polyline fill="none" stroke="#00ADEE" stroke-miterlimit="10" points="1094.039,303.96 1094.039,309.96 1088.039,309.96 		"></polyline>
		
			<line fill="none" stroke="#00ADEE" stroke-miterlimit="10" stroke-dasharray="11.9695,11.9695" x1="1076.07" y1="309.96" x2="339.945" y2="309.96"></line>
	</g>
</g>
<rect x="318.96" y="1103.04" fill="none" stroke="#00A551" stroke-width="0.531" stroke-miterlimit="10" width="784.079" height="221.04"></rect>
<g>
	<g>
		<polyline fill="none" stroke="#00ADEE" stroke-miterlimit="10" points="333.96,1315.08 327.96,1315.08 327.96,1309.08 		"></polyline>
		
			<line fill="none" stroke="#00ADEE" stroke-miterlimit="10" stroke-dasharray="12.736,12.736" x1="327.96" y1="1296.344" x2="327.96" y2="1124.408"></line>
		<polyline fill="none" stroke="#00ADEE" stroke-miterlimit="10" points="327.96,1118.04 327.96,1112.04 333.96,1112.04 		"></polyline>
		
			<line fill="none" stroke="#00ADEE" stroke-miterlimit="10" stroke-dasharray="11.9695,11.9695" x1="345.93" y1="1112.04" x2="1082.054" y2="1112.04"></line>
		<polyline fill="none" stroke="#00ADEE" stroke-miterlimit="10" points="1088.039,1112.04 1094.039,1112.04 1094.039,1118.04 		"></polyline>
		
			<line fill="none" stroke="#00ADEE" stroke-miterlimit="10" stroke-dasharray="12.736,12.736" x1="1094.039" y1="1130.776" x2="1094.039" y2="1302.712"></line>
		<polyline fill="none" stroke="#00ADEE" stroke-miterlimit="10" points="1094.039,1309.08 1094.039,1315.08 1088.039,1315.08 		"></polyline>
		
			<line fill="none" stroke="#00ADEE" stroke-miterlimit="10" stroke-dasharray="11.9695,11.9695" x1="1076.07" y1="1315.08" x2="339.945" y2="1315.08"></line>
	</g>
</g>
<line fill="none" stroke="#00A551" stroke-width="0.531" stroke-miterlimit="10" x1="1324.08" y1="318.961" x2="1324.08" y2="1103.04"></line>
<g>
	<g>
		<polyline fill="none" stroke="#00ADEE" stroke-miterlimit="10" points="1112.039,333.961 1112.039,327.961 1118.039,327.961 		"></polyline>
		
			<line fill="none" stroke="#00ADEE" stroke-miterlimit="10" stroke-dasharray="12.7361,12.7361" x1="1130.775" y1="327.961" x2="1302.712" y2="327.961"></line>
		<polyline fill="none" stroke="#00ADEE" stroke-miterlimit="10" points="1309.08,327.961 1315.08,327.961 1315.08,333.961 		"></polyline>
		
			<line fill="none" stroke="#00ADEE" stroke-miterlimit="10" stroke-dasharray="11.9695,11.9695" x1="1315.08" y1="345.93" x2="1315.08" y2="1082.055"></line>
		<polyline fill="none" stroke="#00ADEE" stroke-miterlimit="10" points="1315.08,1088.04 1315.08,1094.04 1309.08,1094.04 		"></polyline>
		
			<line fill="none" stroke="#00ADEE" stroke-miterlimit="10" stroke-dasharray="12.7361,12.7361" x1="1296.344" y1="1094.04" x2="1124.407" y2="1094.04"></line>
		<polyline fill="none" stroke="#00ADEE" stroke-miterlimit="10" points="1118.039,1094.04 1112.039,1094.04 1112.039,1088.04 		"></polyline>
		
			<line fill="none" stroke="#00ADEE" stroke-miterlimit="10" stroke-dasharray="11.9695,11.9695" x1="1112.039" y1="1076.07" x2="1112.039" y2="339.945"></line>
	</g>
</g>
<line fill="none" stroke="#00A551" stroke-width="0.531" stroke-miterlimit="10" x1="97.919" y1="1103.039" x2="97.919" y2="318.961"></line>
<g>
	<g>
		<polyline fill="none" stroke="#00ADEE" stroke-miterlimit="10" points="106.919,333.961 106.919,327.961 112.919,327.961 		"></polyline>
		
			<line fill="none" stroke="#00ADEE" stroke-miterlimit="10" stroke-dasharray="12.736,12.736" x1="125.655" y1="327.961" x2="297.591" y2="327.961"></line>
		<polyline fill="none" stroke="#00ADEE" stroke-miterlimit="10" points="303.96,327.961 309.96,327.961 309.96,333.961 		"></polyline>
		
			<line fill="none" stroke="#00ADEE" stroke-miterlimit="10" stroke-dasharray="11.9695,11.9695" x1="309.96" y1="345.93" x2="309.96" y2="1082.054"></line>
		<polyline fill="none" stroke="#00ADEE" stroke-miterlimit="10" points="309.96,1088.039 309.96,1094.039 303.96,1094.039 		"></polyline>
		
			<line fill="none" stroke="#00ADEE" stroke-miterlimit="10" stroke-dasharray="12.736,12.736" x1="291.224" y1="1094.039" x2="119.287" y2="1094.039"></line>
		<polyline fill="none" stroke="#00ADEE" stroke-miterlimit="10" points="112.919,1094.039 106.919,1094.039 106.919,1088.039 		"></polyline>
		
			<line fill="none" stroke="#00ADEE" stroke-miterlimit="10" stroke-dasharray="11.9695,11.9695" x1="106.919" y1="1076.07" x2="106.919" y2="339.945"></line>
	</g>
</g>
<g>
	<g>
		<polyline fill="none" stroke="#00ADEE" stroke-miterlimit="10" points="333.96,1094.04 327.96,1094.04 327.96,1088.04 		"></polyline>
		
			<line fill="none" stroke="#00ADEE" stroke-miterlimit="10" stroke-dasharray="11.9695,11.9695" x1="327.96" y1="1076.07" x2="327.96" y2="339.945"></line>
		<polyline fill="none" stroke="#00ADEE" stroke-miterlimit="10" points="327.96,333.96 327.96,327.96 333.96,327.96 		"></polyline>
		
			<line fill="none" stroke="#00ADEE" stroke-miterlimit="10" stroke-dasharray="11.9695,11.9695" x1="345.93" y1="327.96" x2="1082.054" y2="327.96"></line>
		<polyline fill="none" stroke="#00ADEE" stroke-miterlimit="10" points="1088.039,327.96 1094.039,327.96 1094.039,333.96 		"></polyline>
		
			<line fill="none" stroke="#00ADEE" stroke-miterlimit="10" stroke-dasharray="11.9695,11.9695" x1="1094.039" y1="345.93" x2="1094.039" y2="1082.055"></line>
		<polyline fill="none" stroke="#00ADEE" stroke-miterlimit="10" points="1094.039,1088.04 1094.039,1094.04 1088.039,1094.04 		"></polyline>
		
			<line fill="none" stroke="#00ADEE" stroke-miterlimit="10" stroke-dasharray="11.9695,11.9695" x1="1076.07" y1="1094.04" x2="339.945" y2="1094.04"></line>
	</g>
</g>
<line fill="none" stroke="#929497" stroke-width="1.5906" x1="959.049" y1="555.093" x2="1413" y2="555.093"></line>

<line fill="none" stroke="#00ADEE" stroke-width="1.5906" stroke-miterlimit="10" stroke-dasharray="19.0873" x1="969.764" y1="375.096" x2="1093.647" y2="375.096"></line>
<g>
	<path fill="#EC1E28" d="M969.764,361.225c0,0.816-0.367,1.614-1.109,2.388l-0.115,0.116l-6.465,6.826
		c-1.373,1.446-2.544,2.565-3.514,3.356c-0.963,0.79-1.646,1.185-2.044,1.185c-0.42,0-0.936-0.197-1.557-0.59
		c-0.621-0.396-1.025-0.804-1.205-1.224c-0.155-0.349-0.299-1.09-0.432-2.224c-0.137-1.133-0.209-2.357-0.209-3.68
		c0-0.719,0.302-1.386,0.904-1.997c0.6-0.611,1.262-0.918,1.985-0.918c0.692,0,1.102,0.633,1.236,1.895
		c0.013,0.148,0.024,0.257,0.028,0.327c0.114,0.973,0.242,1.649,0.388,2.034c0.15,0.387,0.345,0.576,0.597,0.576
		c0.103,0,0.302-0.111,0.587-0.34c0.283-0.227,0.628-0.536,1.023-0.928l6.648-6.596c0.559-0.558,1.056-0.98,1.497-1.267
		c0.438-0.288,0.815-0.431,1.118-0.431c0.233,0,0.395,0.088,0.491,0.263c0.1,0.175,0.146,0.468,0.146,0.881V361.225z"></path>
</g>
<g>
	<path fill="#EC1E28" d="M974.924,477.752c0,0.816-0.37,1.614-1.106,2.391l-0.118,0.114l-6.468,6.826
		c-1.373,1.448-2.541,2.567-3.508,3.356c-0.969,0.791-1.649,1.184-2.044,1.184c-0.419,0-0.941-0.196-1.562-0.593
		c-0.621-0.393-1.022-0.801-1.202-1.219c-0.155-0.351-0.302-1.092-0.435-2.223c-0.137-1.133-0.205-2.358-0.205-3.682
		c0-0.717,0.299-1.384,0.901-1.997c0.597-0.611,1.262-0.915,1.988-0.915c0.689,0,1.1,0.63,1.236,1.897
		c0.013,0.145,0.021,0.256,0.031,0.325c0.108,0.971,0.239,1.649,0.385,2.033c0.149,0.386,0.345,0.578,0.597,0.578
		c0.105,0,0.305-0.115,0.587-0.339c0.286-0.229,0.625-0.538,1.025-0.93l6.646-6.595c0.556-0.56,1.06-0.983,1.497-1.27
		c0.438-0.285,0.811-0.431,1.115-0.431c0.233,0,0.394,0.088,0.494,0.266c0.1,0.173,0.147,0.466,0.147,0.877V477.752z"></path>
</g>
<g>
	<path fill="#EC1E28" d="M959.049,538.2c0,0.819-0.367,1.616-1.106,2.392l-0.115,0.118l-6.471,6.822
		c-1.37,1.448-2.541,2.567-3.508,3.359c-0.969,0.786-1.649,1.184-2.047,1.184c-0.423,0-0.938-0.199-1.56-0.59
		c-0.621-0.395-1.02-0.805-1.202-1.224c-0.155-0.351-0.299-1.09-0.435-2.225c-0.133-1.131-0.201-2.357-0.201-3.68
		c0-0.717,0.301-1.384,0.897-1.996c0.6-0.614,1.261-0.917,1.988-0.917c0.692,0,1.105,0.632,1.233,1.898
		c0.018,0.146,0.024,0.253,0.034,0.323c0.108,0.972,0.242,1.651,0.388,2.033c0.144,0.384,0.342,0.578,0.594,0.578
		c0.105,0,0.299-0.11,0.587-0.34c0.286-0.226,0.625-0.538,1.025-0.926l6.646-6.6c0.556-0.56,1.056-0.979,1.497-1.269
		c0.438-0.286,0.81-0.431,1.118-0.431c0.231,0,0.392,0.09,0.491,0.264c0.1,0.176,0.147,0.471,0.147,0.882V538.2z"></path>
</g>
<g>
	<path fill="#EC1E28" d="M933.608,671.332c0,0.816-0.367,1.612-1.109,2.389l-0.115,0.111l-6.468,6.832
		c-1.373,1.444-2.545,2.562-3.511,3.356c-0.963,0.789-1.646,1.181-2.047,1.181c-0.417,0-0.938-0.193-1.56-0.588
		c-0.618-0.397-1.02-0.805-1.199-1.224c-0.155-0.348-0.299-1.088-0.438-2.222c-0.134-1.137-0.205-2.36-0.205-3.681
		c0-0.721,0.302-1.386,0.901-1.998c0.603-0.608,1.265-0.92,1.991-0.92c0.686,0,1.1,0.634,1.233,1.898
		c0.013,0.149,0.024,0.255,0.031,0.326c0.111,0.973,0.242,1.649,0.388,2.032c0.147,0.388,0.345,0.577,0.597,0.577
		c0.103,0,0.302-0.114,0.587-0.338c0.283-0.23,0.628-0.541,1.022-0.926l6.645-6.599c0.559-0.562,1.059-0.983,1.5-1.271
		c0.439-0.286,0.811-0.429,1.118-0.429c0.23,0,0.394,0.087,0.491,0.264c0.097,0.171,0.146,0.469,0.146,0.879V671.332z"></path>
</g>
<line fill="none" stroke="#EC1E28" stroke-width="1.5906" x1="971.568" y1="494.57" x2="1401.121" y2="494.57"></line>
<g>
	<rect x="18" y="1266.152" fill="#D0D2D3" width="141.585" height="137.848"></rect>
	
	<g>
		<path fill-rule="evenodd" clip-rule="evenodd" d="M140.336,1321.956c0,28.114-22.744,50.907-50.801,50.907
			c-28.058,0-50.804-22.793-50.804-50.907c0-28.116,22.745-50.909,50.804-50.909C117.592,1271.047,140.336,1293.84,140.336,1321.956
			z"></path>
		<path fill-rule="evenodd" clip-rule="evenodd" fill="#B7D333" d="M135.752,1322.237c0,25.559-20.675,46.281-46.183,46.281
			c-25.507,0-46.185-20.723-46.185-46.281c0-25.562,20.678-46.281,46.185-46.281
			C115.077,1275.956,135.752,1296.676,135.752,1322.237z"></path>
		<g>
			<path d="M79.682,1312.144c-0.643,5.674-1.119,10.229-1.434,13.669l-2.108,0.093c0.031-0.115,0.046-0.243,0.05-0.387
				c0.004-0.258-0.091-0.597-0.284-1.018c-0.193-0.418-0.304-0.688-0.331-0.801c-0.544,0.076-1.067,0.457-1.564,1.135
				c-0.499,0.68-0.95,1.02-1.349,1.014c-0.23-0.006-0.486-0.07-0.771-0.188c-0.375,0.252-0.864,0.357-1.465,0.32
				c-0.543-0.096-1.072-0.178-1.587-0.244c-0.016-0.717-0.722-1.345-2.116-1.887c0.006-0.287-0.137-0.713-0.429-1.275
				c-0.291-0.567-0.435-0.963-0.433-1.193c0.004-0.259,0.111-0.471,0.314-0.641c-0.029-0.086-0.264-0.619-0.705-1.605
				c-0.302-0.721-0.449-1.342-0.439-1.857c0.006-0.4,0.099-0.774,0.276-1.115c-0.245-2.444-0.354-4.54-0.322-6.291
				c0.044-2.697,0.429-5.174,1.156-7.43c-0.052-0.346-0.075-0.688-0.069-1.033c0.031-1.809,0.655-3.059,1.866-3.758l0.012-0.559
				c1.2-1.53,2.78-2.637,4.738-3.321c1.17,0.278,2.341,0.544,3.51,0.792c1.311,0.452,2.215,1.229,2.71,2.328
				c0.396,0.237,0.591,0.714,0.577,1.43c-0.012,0.805,0.077,1.322,0.275,1.557l-0.219,0.254c0.228,1.697,0.34,2.733,0.335,3.105
				c-0.021,1.089-0.306,1.861-0.855,2.309c-0.202-0.002-0.729-0.184-1.582-0.542c-0.203,0.196-0.421,0.294-0.648,0.29
				c-0.116-0.002-0.322-0.062-0.621-0.184c-0.299-0.119-0.55-0.181-0.75-0.184c-0.143-0.003-0.286,0.023-0.43,0.077
				c-0.018-2.265,0.053-3.96,0.213-5.075c-0.224-0.148-0.455-0.483-0.688-1.003c-0.237-0.52-0.54-0.813-0.91-0.874
				c-0.232,0.281-0.337,0.466-0.31,0.553l-0.768-0.271c-0.701,0.764-1.167,2.09-1.399,3.979c-0.238,2.177-0.534,3.622-0.889,4.332
				c0.308,0.323,0.459,0.771,0.449,1.343c-0.004,0.201-0.039,0.533-0.103,0.989c-0.066,0.46-0.101,0.803-0.103,1.032
				c-0.007,0.259,0.018,0.488,0.073,0.691l-0.524,0.506c0.213,0.98,0.335,2.217,0.367,3.709c-0.021,1.264-0.03,2.526-0.021,3.789
				c-0.03,0-0.272,0.01-0.731,0.029c-0.286-0.006-0.489,0.094-0.607,0.292c0.174-0.026,0.331-0.038,0.473-0.036
				c0.631,0.01,1.126,0.457,1.482,1.338c0.356,0.883,0.664,1.327,0.923,1.332c0.285,0.004,0.678-0.262,1.176-0.801
				c0.842-0.904,1.281-2.145,1.309-3.721c0.012-0.776-0.073-1.608-0.26-2.502c-0.203,0.111-0.308,0.396-0.315,0.854
				c-0.459-0.008-0.747,0.09-0.865,0.287c-0.198-0.061-0.282-0.219-0.25-0.479c0.035-0.371,0.052-0.571,0.055-0.6
				c0.346-0.109,0.52-0.266,0.522-0.467c0.002-0.084-0.061-0.244-0.184-0.477c-0.126-0.23-0.187-0.418-0.185-0.562
				c0.002-0.114,0.031-0.229,0.091-0.344l0.202-1.674c0.627,0.184,1.983,0.262,4.076,0.241c-0.061,0.144,0.023,0.333,0.25,0.563
				c0.202-0.197,0.418-0.295,0.646-0.29c0.172,0.005,0.43,0.08,0.771,0.229C79.295,1312.068,79.536,1312.144,79.682,1312.144z"></path>
			<path d="M95.714,1326.97c-0.4-0.179-0.828-0.271-1.286-0.279c-0.4-0.007-0.948,0.068-1.638,0.23
				c-0.774,0.158-1.306,0.25-1.593,0.275c-0.306-0.608-0.518-1.447-0.645-2.51c-0.232-1.553-0.375-2.432-0.428-2.633
				c0.087-0.172,0.134-0.314,0.136-0.429c0.006-0.315-0.242-0.599-0.737-0.853c-0.5-0.252-0.743-0.449-0.741-0.594
				c0.001-0.171,0.292-0.426,0.872-0.762c-0.141-0.173-0.245-0.526-0.306-1.057c-0.062-0.531-0.193-0.888-0.389-1.064
				c-0.351,0.312-0.918,0.51-1.707,0.598c-0.79,0.088-1.315,0.215-1.574,0.381c0.018,2.238-0.35,3.74-1.109,4.502
				c-0.398-0.094-0.702,0.061-0.909,0.459c-0.297,0.482-0.545,0.766-0.745,0.848l0.251,0.307c-0.232,0.194-0.605,0.275-1.119,0.239
				c-0.801-0.045-1.232-0.063-1.289-0.065l-0.241-0.779l2.797-23.245c0.025-1.462,0.098-2.452,0.223-2.966
				c-0.037-1.293,0.263-2.092,0.897-2.396c0.397,0.264,0.898,0.403,1.498,0.412c0.487,0.008,1.249-0.093,2.283-0.306
				c1.035-0.212,1.753-0.313,2.154-0.309c1.401,0.024,2.013,1.039,1.837,3.047c-0.141,1.604,0.108,3.719,0.751,6.342
				c0.67,2.824,0.991,4.938,0.968,6.345c-0.006,0.431,0.133,1.321,0.099,1.753c-0.608,0.332-1.384,0.535-2.329,0.604
				c-0.832,0.045-1.678,0.088-2.537,0.131c-0.221-2.184-0.605-4.818-0.828-6.976c-0.27-2.586-0.606-4.716-1.008-6.388l-1.325,12.291
				c-0.104,1.059,0.376,1.599,1.435,1.617c0.342,0.006,0.672-0.076,0.991-0.241c0.259-0.082,0.615,0.111,1.064,0.577
				c-0.016,0.891,0.16,1.424,0.532,1.603c0.463-0.31,1.069-0.599,1.817-0.874c0.663-0.246,1.312-0.479,1.946-0.699
				c0.361,0.495,0.596,1.23,0.694,2.209c0.118,1.379,0.205,2.184,0.26,2.414c0.047,0.547,0.269,1.728,0.668,3.543
				c0.292,1.439,0.43,2.605,0.416,3.494C95.813,1326.196,95.775,1326.597,95.714,1326.97z"></path>
			<path d="M115.495,1306.47c-0.033,0.084-0.039,0.586-0.027,1.504c-0.012,0.748-0.108,1.307-0.284,1.678
				c-0.212,0.57-0.325,1.385-0.344,2.446c-0.005,0.23,0.003,0.589,0.025,1.078c-0.01,0.487-0.013,0.845-0.019,1.074
				c-0.032,1.81-0.339,3.121-0.928,3.945c0.05,0.462,0.071,0.921,0.063,1.378c-0.022,1.436-0.515,3.365-1.473,5.787
				c-0.259,0.083-0.474,0.122-0.646,0.119c-0.345-0.006-0.59-0.205-0.741-0.594c-0.153-0.391-0.296-0.758-0.432-1.105
				c0.093-2.207,0.048-5.424-0.14-9.646l0.264-0.254c-0.189-0.75-0.274-1.584-0.26-2.5c0.012-0.66,0.093-1.621,0.244-2.881
				c0.149-1.259,0.23-2.205,0.24-2.838c0.01-0.402-0.002-0.791-0.021-1.162c-0.985,2.365-1.687,6.371-2.095,12.02l-0.36,0.853
				c-0.117,0.286-0.363,0.44-0.737,0.463c-0.109-0.201-0.225-0.306-0.339-0.308c-0.085-0.002-0.238,0.104-0.454,0.316
				c-0.22,0.209-0.399,0.301-0.543,0.269l-0.569,0.507c0.255,0.322,0.797,0.357,1.633,0.115c0.66-0.189,1,0.059,1.018,0.75
				c0.018,0.573-0.137,1.346-0.468,2.316c-0.333,0.969-0.502,1.698-0.51,2.187c-0.005,0.344,0.031,0.69,0.111,1.034l-2.974,0.468
				c-0.277-0.581-0.48-1.55-0.615-2.917c-0.134-1.367-0.339-2.339-0.616-2.918c0.175-0.195,0.264-0.409,0.267-0.639
				c0.004-0.201-0.075-0.506-0.241-0.909c-0.165-0.405-0.262-0.708-0.287-0.909c-0.022-0.315-0.124-1.079-0.304-2.288
				c-0.127-0.976-0.186-1.741-0.177-2.284c0.005-0.287,0.025-0.545,0.06-0.773c0.001-0.201-0.111-0.496-0.332-0.889
				c-0.221-0.392-0.331-0.674-0.326-0.846c0.002-0.144,0.06-0.271,0.178-0.382c-0.198-0.235-0.276-0.638-0.238-1.213
				c0.039-0.572-0.043-0.976-0.236-1.208c-0.422,1.111-0.646,2.614-0.68,4.51c-0.015,2.639-0.043,4.161-0.077,4.561l0.296,0.264
				l-0.304,0.252c0.211,1.039,0.304,2.361,0.276,3.966c-0.077,2.898-0.116,4.247-0.111,4.047c-0.409,0.366-0.97,0.542-1.685,0.53
				c-0.887-0.016-1.493,0.062-1.808,0.227c-0.364-0.636-0.536-1.456-0.518-2.461c0.012-0.774,0.144-1.718,0.392-2.836
				c-0.39-0.724-0.573-1.731-0.55-3.023c0.006-0.314,0.042-0.917,0.114-1.805c0.042-0.717,0.052-1.248,0.029-1.593
				c0.288-0.139,0.434-0.294,0.438-0.466c0.001-0.115-0.088-0.31-0.271-0.586c-0.18-0.275-0.271-0.485-0.269-0.628
				c0.003-0.173,0.121-0.343,0.354-0.513l-0.925-13.923c0.549-0.362,1.442-0.534,2.673-0.513c1.346,0.053,2.263-0.019,2.755-0.21
				c0.087-0.058,0.186-0.084,0.302-0.083c0.114,0.002,0.248,0.069,0.404,0.201c0.156,0.131,0.262,0.197,0.317,0.199
				c0.114,0.002,0.217-0.082,0.307-0.254l0.801,0.789c0.27,1.01,0.522,2.967,0.762,5.867c0.243,2.502,0.624,4.39,1.151,5.661
				c0.7-2.542,1.279-4.671,1.74-6.386l0.931-6.812l6.661-0.145c0.022,0.373,0.104,2.367,0.286,3.52
				c0.153,1.006,0.227,1.824,0.213,2.456c-0.01,0.718-0.121,1.362-0.333,1.931c0.226,0.322,0.332,0.725,0.323,1.211
				C115.849,1305.758,115.729,1306.155,115.495,1306.47z"></path>
			<path d="M129.157,1321.555l0.002-0.042c-0.179,0.369-0.286,0.799-0.323,1.285c-0.033,0.313-0.042,0.76-0.023,1.332
				c0.018,0.662,0.025,1.123,0.021,1.38c-0.23-0.003-1.146-0.021-2.748-0.046c-0.974-0.018-1.85,0.068-2.628,0.256l-0.799-0.875
				c-0.236,0.225-0.323,0.411-0.27,0.557c-0.141-0.033-0.801-0.043-1.975-0.037c-0.918-0.014-1.602-0.111-2.056-0.292
				c-0.468,0.481-1.015,0.472-1.636-0.026c-0.227-0.176-0.247-0.472-0.069-0.885c0.178-0.414,0.126-0.722-0.157-0.928
				c0.043-0.918,0.171-2.336,0.374-4.256c0.201-1.719,0.31-3.066,0.325-4.042c0.023-1.319-0.07-2.583-0.276-3.792
				c0.32-0.311,0.677-0.463,1.079-0.455c0.459,0.006,0.999,0.232,1.621,0.672c0.876,0.617,1.332,0.926,1.36,0.927l0.252,0.306
				c0.029-0.084,0.182-0.541,0.453-1.37c0.153-0.541,0.373-0.897,0.664-1.064l0.253,0.263c0.114-0.055,0.492-0.32,1.131-0.799
				c0.489-0.336,0.892-1.131,1.177-1.127c0.318,0.005,0.614,0.183,0.895,0.533c0.481,0.266,0.785,1.297,0.936,1.829
				c0.146,0.533,0.29,1.06,0.425,1.579c-1.291,0.037-2.35,0.002-3.178-0.097c-0.208,0.312-0.494,0.356-0.861,0.137
				c-0.369-0.224-0.642-0.19-0.817,0.093c-0.01,0.518-0.027,1.449-0.048,2.797c-0.051,1.205-0.066,2.152-0.049,2.842
				c0.01,1.062,0.081,2.039,0.209,2.932c0.227,0.002,1.316,0.021,3.262,0.055C127.03,1321.218,128.188,1321.335,129.157,1321.555z
				 M129.248,1300.934c-0.257,0.024-0.542,0.034-0.857,0.028c-0.658-0.012-1.531-0.112-2.615-0.303
				c-1.345-0.195-2.16-0.309-2.444-0.342c-0.411,0.592-0.626,1.438-0.646,2.527c-0.038,2.354-0.04,3.372-0.007,3.059
				c0.395,0.234,0.59,0.669,0.578,1.3c-0.042,0.861-0.05,1.307-0.023,1.333c-0.201,0.084-0.305,0.369-0.314,0.857
				c-0.315-0.121-0.639-0.355-0.975-0.705c-0.451-0.439-0.691,1.047-0.658,0.676l-0.271,0.883l-0.254-0.262
				c-0.231,0.023-0.623-0.098-1.175-0.365c-0.555-0.266-0.944-0.516-1.169-0.752c0.008-0.459,0.085-0.717,0.229-0.771l-0.549-0.61
				l-0.265,0.383c-0.321-2.989-0.239-8.581,0.155-11.733c1.086,0.19,2.286,0.312,3.604,0.363c0.887,0.042,2.131,0.062,3.735,0.062
				c1.833,0.004,3.151,0.01,3.953,0.023c0.337,0.324,0.504,0.742,0.493,1.258c-0.004,0.318-0.093,0.823-0.263,1.524
				C129.344,1300.068,129.256,1300.589,129.248,1300.934z"></path>
		</g>
		<g>
			<path d="M80.973,1347.582v-0.021c0,0.014-0.075,0.646-0.222,1.898c-0.076,0.769-0.26,1.373-0.557,1.812l-0.186-0.15
				c-0.349,0.73-0.82,1.174-1.421,1.332c-0.288,0.303-0.702,0.469-1.242,0.502c-0.321,0.02-1.062-0.076-2.227-0.281
				c-0.562-0.348-0.869-0.543-0.923-0.58c-0.353-0.267-0.523-0.537-0.504-0.811c-0.343-0.35-0.822-0.973-1.002-1.754
				c-0.219-0.861-0.354-0.91-0.557-1.213c-0.325,0.238-0.44-0.27-0.629-0.574l0.171-0.132c-0.104-0.075-0.161-0.161-0.167-0.257
				c-0.004-0.067,0.023-0.168,0.085-0.302c0.059-0.133,0.088-0.234,0.084-0.301c-0.007-0.108-0.072-0.202-0.193-0.276
				c0.13-0.677,0.249-1.693,0.355-3.051c0.23-0.124,0.339-0.362,0.329-0.718c-0.014-0.353,0.035-0.588,0.148-0.704
				c0.546-1.097,1.435-1.838,2.665-2.223c0.068,0.009,0.399,0.004,0.989-0.018c0.407-0.01,0.715,0.026,0.922,0.109
				c0.368-0.062,0.739,0.025,1.107,0.265c0.318,0.241,0.639,0.481,0.956,0.722c0.596,0.648,0.92,1.381,0.966,2.199
				c0.017,0.271-0.003,0.559-0.051,0.861c-0.441-0.016-0.757,0.277-0.94,0.875l-1.717,0.16c-0.184-0.26-0.29-0.61-0.316-1.047
				c-0.01-0.149-0.009-0.368,0-0.655c0.007-0.287,0.009-0.505,0-0.655c-0.025-0.449-0.132-0.805-0.315-1.066l-0.518,0.295
				c-0.206-0.084-0.315-0.207-0.325-0.369c-0.003-0.055,0.004-0.133,0.025-0.237c0.02-0.104,0.027-0.177,0.023-0.217
				c-0.01-0.177-0.168-0.284-0.475-0.321c-0.211,1.938-0.272,3.93-0.188,5.971c0.055,0.066,0.219,0.112,0.49,0.137
				c0.222,0.027,0.335,0.098,0.342,0.207c0.003,0.041-0.009,0.094-0.042,0.164l-0.169,0.133c0.093,0.146,0.147,0.348,0.163,0.606
				c0.006,0.135,0.002,0.345-0.016,0.625c-0.02,0.28-0.023,0.49-0.016,0.625c0.025,0.407,0.126,0.718,0.309,0.925
				c-0.017,0.301,0.104,0.506,0.364,0.613c0.167-0.064,0.315-0.1,0.451-0.107c0.522-0.029,0.888,0.254,1.091,0.86
				c0,0.013-0.001,0.114-0.007,0.306c0.006,0.109,0.059,0.182,0.164,0.216c0.229-0.136,0.343-0.383,0.34-0.736
				c-0.007-0.41,0.046-0.673,0.155-0.788c-0.026-0.189-0.14-0.463-0.338-0.819c-0.199-0.356-0.304-0.639-0.317-0.843
				c-0.012-0.218,0.053-0.426,0.193-0.625c-0.12-0.034-0.176-0.113-0.166-0.236c0.007-0.191,0.007-0.293,0.007-0.309
				C79.063,1347.372,80.011,1347.366,80.973,1347.582z"></path>
			<path d="M88.745,1349.182h-0.021c-0.099,0.196-0.13,0.479-0.095,0.844c0.047,0.519,0.071,0.784,0.071,0.796
				c-0.077,0.029-0.184-0.01-0.313-0.115c-0.201,0.076-0.297,0.203-0.284,0.38c0,0.024,0.012,0.069,0.028,0.132
				c0.004,0.073,0.009,0.126,0.01,0.152c0.008,0.138-0.033,0.242-0.124,0.311c-0.228-0.126-0.528-0.207-0.898-0.241
				c-0.373-0.037-0.727-0.069-1.059-0.102c-0.006-1.726-0.237-3.417-0.694-5.065c0,0.012-0.01-0.158-0.031-0.514
				c0.002-0.254-0.056-0.434-0.172-0.541l-0.157,0.141c-0.002-0.024,0.051-0.075,0.157-0.15c0.104-0.076,0.156-0.152,0.153-0.229
				c-0.005-0.037-0.015-0.074-0.032-0.111l-0.173-0.125c-0.293,0.094-0.429,0.331-0.407,0.709c0.016,0.254-0.087,0.433-0.298,0.534
				c0.081,0.057,0.123,0.132,0.13,0.22c0.004,0.051-0.004,0.122-0.024,0.211c-0.019,0.091-0.026,0.161-0.024,0.212
				c0.008,0.112,0.069,0.204,0.182,0.274c0.006,0.076,0.045,0.758,0.118,2.051c0.051,0.824,0.027,1.523-0.063,2.098l0.018,0.324
				c-0.113-0.006-0.239-0.005-0.378,0.002c-0.158,0.012-0.386,0.033-0.684,0.068c-0.296,0.037-0.515,0.062-0.656,0.068
				c-0.58,0.031-0.987-0.064-1.223-0.292l-0.244-7.091c-0.114-0.348-0.19-0.832-0.227-1.454l-0.077-1.366
				c-0.057-0.67-0.142-1.187-0.258-1.547c0.049-0.246,0.263-0.379,0.64-0.399c0.233-0.015,0.551,0.019,0.95,0.097
				c0.184-0.088,0.44-0.141,0.771-0.16c0.093-0.005,0.242-0.007,0.447-0.006c0.221-0.013,0.377-0.021,0.471-0.028
				c0.611-0.036,1.019-0.224,1.22-0.565c0.284-0.004,0.592,0.085,0.926,0.27c0.332,0.184,0.627,0.281,0.877,0.291
				c0.669,0.395,1.028,1.046,1.083,1.957c0.012,0.203-0.067,1.007-0.236,2.414l-1.147,1c0.193,0.359,0.43,1.138,0.702,2.34
				C87.93,1347.978,88.276,1348.712,88.745,1349.182z M86.627,1341.112l0.024,0.018c0.021,0.087,0.01-0.224-0.031-0.933
				c-0.021-0.341-0.145-0.586-0.373-0.74c-0.132,0.187,0.016,0.272-0.045,0.702c-0.062,0.429-0.313,0.309-0.463,0.494
				c-0.395-0.002-0.483,0.237-0.566-0.139c-0.178-0.613-0.33-0.559-0.331-0.57l-0.169,0.101c-0.059,0.054-0.127,0.116-0.201,0.183
				c-0.076,0.068-0.15,0.092-0.231,0.07c0.005,0.076-0.032,0.196-0.109,0.36c-0.078,0.164-0.114,0.276-0.109,0.339
				c0.007,0.114,0.096,0.196,0.271,0.251c-0.03,0.256-0.038,0.522-0.022,0.802c0.01,0.151,0.045,0.498,0.108,1.041
				c0.071,0.429,0.101,0.793,0.085,1.1c0.143,0.006,0.277,0.006,0.403-0.004c0.552-0.031,0.907-0.25,1.071-0.652
				c0.057-0.117,0.121-0.541,0.188-1.27C86.189,1341.716,86.355,1341.331,86.627,1341.112z"></path>
			<path d="M97.665,1351.934c-0.225-0.063-0.463-0.087-0.715-0.071c-0.218,0.012-0.515,0.066-0.887,0.165
				c-0.422,0.1-0.708,0.159-0.865,0.183c-0.188-0.256-0.334-0.614-0.439-1.078c-0.182-0.676-0.292-1.056-0.327-1.145
				c0.045-0.078,0.062-0.143,0.061-0.194c-0.01-0.138-0.155-0.253-0.435-0.344c-0.282-0.093-0.424-0.171-0.427-0.235
				c-0.004-0.074,0.145-0.197,0.452-0.367c-0.084-0.072-0.15-0.223-0.203-0.455c-0.054-0.232-0.137-0.383-0.251-0.453
				c-0.18,0.15-0.484,0.262-0.916,0.33c-0.428,0.068-0.71,0.145-0.848,0.23c0.089,0.986,0,2.717-0.39,3.081
				c-0.22-0.025-0.381,0.054-0.481,0.237c-0.144,0.225-0.271,0.359-0.378,0.404l0.147,0.124c-0.12,0.095-0.321,0.146-0.604,0.149
				c-0.441,0.014-0.676,0.021-0.707,0.023l-0.162-0.336l0.661-11.402c-0.036-0.646-0.03-1.084,0.021-1.314
				c-0.066-0.568,0.071-0.932,0.408-1.092c0.227,0.102,0.503,0.143,0.834,0.123c0.265-0.017,0.682-0.09,1.238-0.225
				c0.559-0.134,0.949-0.207,1.168-0.221c0.771-0.045,1.142,0.379,1.115,1.27c-0.023,0.712,0.188,1.633,0.633,2.764
				c0.462,1.217,0.713,2.137,0.749,2.757c0.012,0.189,0.263,0.592,0.26,0.782c-0.323,0.172-0.742,0.291-1.257,0.359
				c-0.453,0.053-0.913,0.104-1.386,0.157c-0.195-0.954-0.641-2.114-0.839-3.055c-0.236-1.128-0.496-2.052-0.774-2.774l-0.297,5.465
				c-0.02,0.471,0.261,0.691,0.842,0.654c0.189-0.008,0.365-0.058,0.536-0.143c0.139-0.047,0.339,0.025,0.602,0.213
				c0.022,0.393,0.138,0.621,0.347,0.684c0.244-0.152,0.565-0.305,0.966-0.457c0.354-0.134,0.703-0.262,1.042-0.383
				c0.217,0.203,0.367,0.518,0.457,0.945c0.111,0.602,0.188,0.953,0.226,1.053c0.045,0.238,0.207,0.75,0.49,1.533
				c0.209,0.624,0.325,1.13,0.349,1.522C97.691,1351.59,97.687,1351.767,97.665,1351.934z"></path>
			<path d="M104.167,1339l0.025-0.001c-0.191,0.279-0.43,0.33-0.724,0.157c-0.064-0.011-0.347,0.009-0.849,0.048
				c-0.424,0.025-0.731,0.006-0.925-0.061c-0.047,0.004-0.14,0.051-0.277,0.141c-0.136,0.091-0.233,0.138-0.298,0.141
				c-0.093,0.006-0.147-0.073-0.154-0.237c-0.003-0.026-0.008-0.132-0.021-0.323c-0.007-0.127-0.067-0.212-0.18-0.256l-0.292,0.226
				c-0.094,0.069-0.135,0.142-0.13,0.218c0.002,0.063,0.057,0.151,0.159,0.266c0.099,0.116,0.156,0.199,0.176,0.248
				c0.004,0.037,0.036,0.607,0.099,1.709c0.025,0.699,0.153,1.254,0.383,1.673c0.059-0.066,0.2-0.103,0.43-0.11
				c0.227-0.006,0.378-0.059,0.451-0.15c0.149,0.133,0.399,0.14,0.748,0.023c0.346-0.115,0.598-0.076,0.751,0.118l-0.045,1.679
				c-0.143-0.016-0.353-0.086-0.627-0.211c-0.079,0.248-0.236,0.4-0.469,0.467c-0.095,0.031-0.36,0.058-0.799,0.084
				c0.011-0.078-0.056-0.155-0.204-0.234c-0.427,0.203-0.588,0.688-0.481,1.455c0.01-0.076,0.027,0.056,0.046,0.398
				c0.012,0.215-0.032,0.369-0.137,0.464c-0.268,0.041-0.604-0.019-1.015-0.178c-0.41-0.161-0.704-0.237-0.877-0.226
				c-0.077,0.004-0.148,0.016-0.211,0.031l-0.439,0.14l-0.707-7.675l-0.083-1.459c0.587-0.2,1.312-0.326,2.176-0.375
				c0.676-0.039,1.559-0.034,2.646,0.018c0.071-0.145,0.199,0.043,0.358,0.033c0.077-0.004,0.195,0.004,0.354,0.027
				c0.159,0.021,0.279,0.031,0.356,0.027c0.097-0.008,0.183-0.023,0.258-0.055l0.112-0.119c0.319,0.094,0.487,0.264,0.5,0.504
				c0.007,0.102-0.024,0.273-0.09,0.521c-0.063,0.244-0.091,0.43-0.084,0.557C104.086,1338.815,104.116,1338.915,104.167,1339z
				 M101.412,1351.804c-0.168,0.088-0.426,0.139-0.771,0.16c-0.455,0.025-0.729,0.049-0.822,0.067
				c-0.051-0.05-0.11-0.009-0.213-0.41c-0.063-0.263-0.229-0.388-0.494-0.37c-0.063,0.004-0.139,0.014-0.234,0.033l-0.423,0.022
				l-0.228-3.883c0.231-0.114,0.518-0.183,0.864-0.203c0.33-0.02,0.622,0.015,0.88,0.102c-0.007,0.14,0.193,0.2,0.601,0.175
				l0.447-0.027C101.287,1348.56,101.448,1350.532,101.412,1351.804z"></path>
			<path d="M113.584,1339.333l0.025,0.017c-0.223-0.013-0.933,0.034-1.48,0.105c-0.469,0.052-0.823,0.062-1.062,0.022
				c-0.229,0.152-0.31,0.362-0.247,0.625l0.145,0.088c-0.118,0.107-0.16,0.192-0.126,0.254l0.126,0.125
				c-0.026,2.252-0.032,3.495-0.02,3.736c0.033,0.594,0.105,1.117,0.208,1.568c-0.094,0.287-0.13,0.613-0.107,0.979
				c0.014,0.24,0.072,0.622,0.173,1.143c0.102,0.521,0.234,2.231,0.252,2.5c0.011,0.2,0.006,0.392-0.017,0.57
				c-0.216,0.091-0.448,0.141-0.699,0.156c-0.423,0.023-0.88-0.064-1.363-0.264c-0.058,0.053-0.126,0.111-0.199,0.174
				c-0.076,0.061-0.098,0.129-0.061,0.201c-0.154,0.049-0.372-0.016-0.647-0.188c-0.149-2.279-0.557-6.92-1.16-11.611
				c-0.211,0.191-0.601,0.033-1.007,0.082c-0.484,0.053-0.96-0.021-1.146,0.065c-0.235-0.253-0.183-0.325-0.208-0.744
				c-0.022-0.403-0.152-1.403-0.05-1.821c0.022-0.088,0.902-0.037,1.419-0.081c0.705-0.041,0.861,0.128,0.908,0.122
				c0.058-0.09,0.402-0.044,0.652-0.059c0.162,0.08,0.337-0.074,0.344,0.041c0.007,0.074,0,0.555-0.054,0.691
				c-0.055,0.135-0.081,0.235-0.077,0.301c0.01,0.15,0.117-0.072,0.375,0.016c0.283-0.004,0.573-0.016,0.869-0.031
				c0.335,0.029,0.717-0.092,0.688,0.191c0.056-0.082,0.093,0.061,0.57-0.132c0.352-0.16,0.568-0.577,0.498-0.862
				c-0.037-0.156,0.177-0.257,0.043-0.184c0.171-0.095,0.015-0.029,0.201-0.102c0.586,0.053,0.913-0.008,1.022-0.014
				c0.237-0.014,0.82,0.139,0.988,0.053c0.122,0.221,0.184,0.914,0.19,1.295C113.57,1338.971,113.582,1339.295,113.584,1339.333z"></path>
			<path d="M121.215,1347.257l-0.003-0.02c-0.085,0.171-0.127,0.365-0.128,0.58c-0.013,0.141,0.001,0.336,0.032,0.588
				c0.031,0.289,0.05,0.494,0.058,0.607c-0.125,0.006-0.629,0.035-1.508,0.086c-0.531,0.031-1.01,0.104-1.428,0.218l-0.469-0.354
				c-0.12,0.109-0.161,0.193-0.128,0.256c-0.077-0.008-0.44,0.013-1.084,0.062c-0.502,0.029-0.881,0.014-1.137-0.049
				c-0.237,0.229-0.535,0.249-0.894,0.053c-0.13-0.067-0.153-0.197-0.07-0.385c0.086-0.191,0.045-0.324-0.118-0.405
				c-0.008-0.405,0.012-1.034,0.057-1.89c0.052-0.764,0.062-1.359,0.036-1.793c-0.032-0.581-0.128-1.135-0.282-1.66
				c0.163-0.148,0.356-0.229,0.573-0.242c0.254-0.014,0.555,0.063,0.913,0.234c0.504,0.234,0.761,0.355,0.776,0.355l0.148,0.122
				c0.014-0.038,0.08-0.245,0.2-0.62c0.065-0.244,0.174-0.41,0.327-0.494l0.147,0.104c0.062-0.028,0.26-0.158,0.592-0.395
				c0.258-0.17,0.434-0.783,0.592-0.793c0.173-0.011,0.344,0.057,0.508,0.199c0.274,0.1,0.489,0.791,0.591,1.02
				c0.099,0.227,0.194,0.453,0.288,0.677c-0.706,0.067-1.287,0.095-1.744,0.083c-0.103,0.146-0.26,0.177-0.467,0.094
				c-0.211-0.082-0.357-0.058-0.446,0.074c0.013,0.228,0.038,0.639,0.073,1.232c0.016,0.533,0.039,0.951,0.071,1.255
				c0.043,0.468,0.116,0.896,0.215,1.282c0.128-0.008,0.725-0.041,1.791-0.104C120.036,1347.192,120.675,1347.2,121.215,1347.257z
				 M120.485,1338.324c-0.142,0.021-0.298,0.036-0.471,0.046c-0.361,0.02-0.84,0.011-1.444-0.03
				c-0.741-0.032-1.192-0.051-1.348-0.055c-0.204,0.278-0.231,0.506-0.204,0.985c0.06,1.038,0.095,1.488,0.103,1.347
				c0.224,0.089,0.346,0.273,0.361,0.552c0.007,0.38,0.018,0.576,0.035,0.588c-0.108,0.044-0.156,0.173-0.143,0.389
				c-0.175-0.039-0.364-0.131-0.561-0.272c-0.263-0.175-0.344,0.448-0.338,0.28l-0.118,0.385l-0.149-0.104
				c-0.124,0.02-0.343-0.018-0.656-0.113c-0.313-0.097-0.534-0.193-0.665-0.286c-0.013-0.203,0.019-0.319,0.098-0.35l-0.323-0.248
				l-0.13,0.18c-0.28-1.304-0.468-3.604-0.359-5.005c0.6,0.04,1.303-0.064,2.024-0.096c0.486-0.016,1.171-0.054,2.051-0.117
				c1-0.07,1.724-0.117,2.161-0.145c0.198,0.127,0.305,0.307,0.315,0.533c0.008,0.141-0.021,0.366-0.091,0.681
				C120.564,1337.784,120.476,1338.171,120.485,1338.324z"></path>
			<path d="M129.049,1345.907l-0.022,0.002c-0.1,0.197-0.132,0.479-0.096,0.846c0.046,0.517,0.07,0.783,0.07,0.795
				c-0.078,0.029-0.183-0.008-0.314-0.115c-0.201,0.074-0.296,0.203-0.286,0.378c0.004,0.026,0.013,0.068,0.031,0.132
				c0.006,0.075,0.007,0.127,0.012,0.152c0.008,0.139-0.035,0.242-0.124,0.311c-0.229-0.126-0.53-0.206-0.902-0.242
				c-0.372-0.034-0.725-0.068-1.056-0.101c-0.007-1.726-0.239-3.414-0.694-5.063c0,0.013-0.012-0.16-0.03-0.516
				c0-0.252-0.057-0.434-0.175-0.541l-0.156,0.144c0-0.024,0.05-0.077,0.156-0.151c0.106-0.078,0.158-0.154,0.153-0.229
				c-0.004-0.038-0.014-0.076-0.031-0.112l-0.172-0.126c-0.295,0.096-0.431,0.332-0.407,0.711c0.014,0.254-0.087,0.432-0.3,0.531
				c0.079,0.061,0.126,0.135,0.132,0.222c0.002,0.05-0.008,0.121-0.025,0.211c-0.018,0.091-0.027,0.16-0.023,0.211
				c0.006,0.114,0.068,0.206,0.183,0.276c0.004,0.076,0.042,0.758,0.117,2.049c0.049,0.824,0.025,1.524-0.067,2.1l0.02,0.324
				c-0.11-0.008-0.236-0.008-0.377,0.002c-0.157,0.01-0.386,0.031-0.682,0.068c-0.299,0.035-0.516,0.059-0.659,0.068
				c-0.578,0.031-0.986-0.064-1.219-0.293l-0.248-7.092c-0.114-0.348-0.188-0.832-0.225-1.452l-0.081-1.368
				c-0.054-0.669-0.138-1.186-0.254-1.547c0.049-0.244,0.262-0.377,0.637-0.399c0.238-0.013,0.554,0.019,0.953,0.097
				c0.184-0.087,0.441-0.141,0.768-0.158c0.098-0.006,0.244-0.008,0.45-0.008c0.22-0.013,0.377-0.021,0.47-0.028
				c0.614-0.034,1.02-0.224,1.222-0.563c0.282-0.004,0.59,0.084,0.923,0.268c0.335,0.184,0.628,0.281,0.884,0.293
				c0.666,0.393,1.027,1.044,1.079,1.957c0.012,0.201-0.066,1.007-0.237,2.414l-1.15,0.998c0.197,0.359,0.43,1.139,0.705,2.342
				C128.229,1344.705,128.58,1345.438,129.049,1345.907z M126.925,1337.84l0.025,0.019c0.021,0.087,0.01-0.225-0.029-0.933
				c-0.022-0.342-0.147-0.589-0.375-0.739c-0.13,0.184-0.154-0.246-0.215,0.182c-0.062,0.43-0.168,0.738-0.312,0.924
				c-0.395-0.002-0.485-0.236-0.721-0.566c-0.146-0.209-0.219-0.027-0.219-0.041l-0.105,0.087c-0.061,0.055-0.127,0.116-0.202,0.185
				c-0.075,0.068-0.152,0.092-0.231,0.07c0.003,0.074-0.033,0.196-0.11,0.359c-0.076,0.163-0.112,0.276-0.111,0.34
				c0.009,0.112,0.1,0.197,0.275,0.25c-0.032,0.256-0.041,0.523-0.025,0.802c0.01,0.151,0.045,0.499,0.109,1.042
				c0.071,0.428,0.102,0.793,0.087,1.098c0.143,0.006,0.274,0.004,0.402-0.002c0.55-0.031,0.907-0.25,1.07-0.654
				c0.056-0.117,0.12-0.54,0.188-1.268C126.487,1338.442,126.656,1338.059,126.925,1337.84z"></path>
		</g>
		<g>
			<path d="M50.965,1313.201v0.017c-0.069,0.658-0.094,1.114-0.069,1.365c-0.101,0.04-0.232,0.046-0.395,0.02
				c-0.208-0.036-0.328-0.053-0.364-0.05c-0.091,0.005-0.162,0.037-0.217,0.097c-0.132-0.085-0.219-0.121-0.264-0.107
				c-0.123,0.075-0.18,0.182-0.176,0.32c0.006,0.057,0.027,0.156,0.069,0.297c0.041,0.143,0.064,0.247,0.066,0.314
				c0.003,0.092-0.014,0.236-0.054,0.434c-0.043,0.197-0.061,0.359-0.055,0.486c0.01,0.147,0.039,0.381,0.097,0.703
				c0.056,0.315,0.087,0.557,0.097,0.717c-0.065,0.313-0.091,0.631-0.073,0.951c0.019,0.391,0.126,0.914,0.319,1.57
				c0.034,0.011,0.069,0.014,0.104,0.012c0.079-0.004,0.174-0.062,0.284-0.169c0.108-0.109,0.201-0.167,0.282-0.17
				c0.059-0.002,0.12,0.012,0.189,0.042c0.208,0.667,0.314,1.098,0.325,1.293c0.005,0.092,0.003,0.189-0.001,0.291
				c-0.309,0.075-0.525-0.03-0.652-0.31c0.018-0.081-0.027-0.167-0.134-0.253l-0.343,0.363c0.335,0.051,0.467,0.309,0.4,0.771
				c-0.03,0.094-0.102,0.145-0.217,0.148c-0.195-0.001-0.286-0.002-0.274-0.002l-0.282-0.502l-0.115,0.143
				c-0.093-0.236-0.203-0.352-0.326-0.346c-0.07,0.006-0.189,0.062-0.362,0.172c-0.17,0.113-0.315,0.174-0.43,0.178
				c-0.091,0.004-0.182-0.019-0.279-0.072c-0.005-0.137-0.021-0.279-0.046-0.428c-0.025-0.148-0.103-0.241-0.231-0.281
				c-0.007-0.355,0.006-1.292,0.031-2.81c0.012-1.149,0-2.079-0.038-2.788c-0.015-0.299-0.034-0.592-0.059-0.877
				c-0.062-0.09-0.122-0.133-0.178-0.131c-0.049,0.004-0.116,0.054-0.21,0.15c-0.091,0.096-0.174,0.141-0.242,0.133
				c-0.005-0.115-0.058-0.299-0.157-0.553c-0.098-0.254-0.15-0.438-0.156-0.553c-0.01-0.195,0.062-0.365,0.216-0.512l0.4,0.104
				c0.163-0.229,0.227-0.611,0.2-1.149c-0.004-0.101-0.02-0.266-0.041-0.487c-0.022-0.223-0.036-0.387-0.043-0.49
				c-0.042-0.883,0.228-1.338,0.809-1.367c0.217-0.012,0.483,0.027,0.795,0.115l0.386,0.102c0.029,0.148,0.049,0.301,0.057,0.461
				c0.012,0.219,0.002,0.538-0.027,0.958c-0.033,0.422-0.043,0.729-0.033,0.923c0.016,0.311,0.069,0.59,0.163,0.836
				c0.093-0.004,0.236-0.053,0.432-0.15c0.195-0.096,0.339-0.146,0.432-0.149C50.734,1312.972,50.864,1313.046,50.965,1313.201z
				 M49.772,1314.433l-0.022-0.395l-0.123-0.115L49.772,1314.433z"></path>
			<path d="M55.681,1311.963l0.018-0.001c-0.041,0.312-0.09,0.625-0.142,0.938c-0.062,0.359-0.163,0.641-0.302,0.842
				c-0.023-0.009-0.165-0.077-0.422-0.201c-0.177-0.095-0.335-0.133-0.471-0.115c-0.104,0.674-0.158,1.589-0.17,2.748
				c-0.008,1.483-0.021,2.379-0.037,2.689c-0.173-0.014-0.303,0.042-0.387,0.168c-0.087,0.125-0.167,0.252-0.238,0.381
				c-0.033,0.072-0.047,0.135-0.042,0.191c0.001,0.092,0.082,0.182,0.235,0.264c0.152,0.086,0.232,0.18,0.236,0.283
				c-0.067,0.244-0.21,0.371-0.429,0.383c-0.1,0.004-0.28-0.025-0.535-0.094c-0.256-0.067-0.436-0.098-0.541-0.093l-0.244-4.917
				c0.097-0.131,0.137-0.219,0.124-0.263l-0.141-0.099c0.01-0.204,0.021-1.234,0.033-3.084c0.004-1.252,0.052-2.268,0.139-3.041
				c-0.011,0.002,0.343-0.022,1.062-0.07c0.446-0.021,0.734,0.101,0.859,0.369c0.002,0.254-0.022,0.68-0.073,1.279
				c-0.05,0.555-0.069,0.979-0.056,1.279c0.02,0.365,0.075,0.695,0.17,0.99C54.717,1312.267,55.168,1311.988,55.681,1311.963z
				 M57.386,1313.015c0.033,0.459,0.062,0.902,0.084,1.34c0.097,1.902,0.065,3.936-0.088,6.105c-0.164,0.145-0.42,0.178-0.762,0.098
				c-0.342-0.082-0.59-0.049-0.742,0.096c-0.197-0.254-0.312-0.711-0.345-1.377c-0.048-0.962-0.073-1.461-0.075-1.496
				c-0.043-2.41,0.193-4.357,0.704-5.842C56.753,1312.093,57.161,1312.452,57.386,1313.015z"></path>
			<path d="M63.404,1315.511c-0.074,0.154-0.106,0.316-0.098,0.488s0.019,0.336,0.027,0.498c-0.019,0.138-0.056,0.277-0.117,0.418
				c-0.104-0.027-0.192-0.041-0.26-0.037c-0.081,0.004-0.162,0.033-0.246,0.09c-0.083,0.057-0.147,0.086-0.193,0.086
				c-0.068,0.006-0.16-0.02-0.278-0.07l-0.796-1.167c0.027,0.343,0.104,0.644,0.233,0.901c0.063,0.135,0.128,0.27,0.191,0.404
				c-0.465,0.08-0.728,0.094-0.79,0.039l-0.112,0.145l-0.275-0.365c-0.216,0.264-0.265,0.65-0.148,1.162
				c0.146,0.555,0.151,0.957,0.027,1.205c0.172,0.256,0.379,0.375,0.619,0.363c0.104-0.004,0.193-0.045,0.269-0.117
				c0.112-0.281,0.225-0.562,0.336-0.843c0.167-0.341,0.353-0.519,0.559-0.528c0.16-0.008,0.348,0.076,0.563,0.248
				c0.257,0.089,0.389,0.211,0.397,0.358c0.004,0.093-0.055,0.241-0.176,0.446c-0.122,0.21-0.179,0.369-0.173,0.484
				c0.002,0.047,0.01,0.086,0.021,0.12c-0.167,0.124-0.313,0.31-0.443,0.557c-0.132,0.248-0.304,0.417-0.518,0.509
				c-0.185,0.182-0.359,0.274-0.519,0.283c-0.125,0.008-0.313-0.09-0.564-0.289s-0.484-0.295-0.703-0.283
				c-0.089-0.203-0.311-0.426-0.669-0.674c-0.356-0.244-0.575-0.51-0.659-0.794c0.002,0.023-0.004-0.067-0.012-0.274
				c-0.007-0.114-0.058-0.186-0.148-0.217l0.13-0.127c-0.175-0.002-0.264-0.102-0.273-0.297c-0.002-0.021-0.004-0.068-0.006-0.138
				c0.008-0.059,0.012-0.103,0.01-0.137c-0.008-0.138-0.053-0.233-0.136-0.288l-0.029-0.6c-0.016-0.312-0.079-0.531-0.189-0.664
				c0.112-0.729,0.227-1.459,0.34-2.187c0.184-0.849,0.46-1.282,0.827-1.3c0.057-0.003,0.114,0.006,0.173,0.024
				c0.327-0.326,0.726-0.501,1.194-0.524c0.515-0.026,1.084,0.129,1.709,0.466C62.984,1313.688,63.288,1314.563,63.404,1315.511z
				 M61.038,1313.613l-0.111,0.145c-0.08,0.016-0.175-0.025-0.283-0.124l0.021,0.396c-0.176,0.191-0.246,0.486-0.215,0.889
				c0.034,0.688,0.053,1.021,0.05,0.997l0.516-0.009c0.246-0.139,0.36-0.369,0.345-0.689c-0.01-0.161-0.064-0.424-0.171-0.792
				C61.087,1314.058,61.036,1313.788,61.038,1313.613z"></path>
		</g>
		<g>
			<polygon fill-rule="evenodd" clip-rule="evenodd" points="67.433,1332.853 67.945,1333.146 69.676,1328.587 69.1,1328.394 
				67.367,1332.954 67.872,1333.276 67.433,1332.853 67.433,1332.853 			"></polygon>
			<polygon fill-rule="evenodd" clip-rule="evenodd" points="68.191,1332.221 67.982,1332.302 67.433,1332.853 67.872,1333.276 
				68.43,1332.696 68.211,1332.807 68.191,1332.221 68.191,1332.221 			"></polygon>
			<polygon fill-rule="evenodd" clip-rule="evenodd" points="72.387,1332.185 72.633,1331.992 68.191,1332.221 68.211,1332.807 
				72.653,1332.581 72.937,1332.368 72.387,1332.185 72.387,1332.185 72.387,1332.185 			"></polygon>
			<polygon fill-rule="evenodd" clip-rule="evenodd" points="74.394,1327.993 74.09,1327.615 72.387,1332.185 72.937,1332.368 
				74.669,1327.808 74.366,1327.434 74.394,1327.993 74.394,1327.993 74.394,1327.993 			"></polygon>
			<polygon fill-rule="evenodd" clip-rule="evenodd" points="70.162,1328.138 69.94,1328.249 74.394,1327.993 74.366,1327.434 
				69.934,1327.634 69.713,1327.741 70.162,1328.138 70.162,1328.138 70.162,1328.138 			"></polygon>
			<polygon fill-rule="evenodd" clip-rule="evenodd" points="69.676,1328.587 69.614,1328.688 70.162,1328.138 69.713,1327.741 
				69.163,1328.293 69.1,1328.394 69.676,1328.587 69.676,1328.587 69.676,1328.587 			"></polygon>
			<polygon fill-rule="evenodd" clip-rule="evenodd" points="73.365,1332.727 73.761,1332.552 72.809,1332.021 72.506,1332.56 
				73.485,1333.103 73.915,1332.909 73.339,1332.718 73.339,1332.718 73.365,1332.727 			"></polygon>
			<polygon fill-rule="evenodd" clip-rule="evenodd" points="75.226,1328.517 75.07,1328.158 73.339,1332.718 73.915,1332.909 
				75.648,1328.35 75.491,1327.993 75.226,1328.517 75.226,1328.517 			"></polygon>
			<polygon fill-rule="evenodd" clip-rule="evenodd" points="74.669,1327.808 74.238,1328.001 75.226,1328.517 75.491,1327.993 
				74.541,1327.462 74.09,1327.615 74.669,1327.808 74.669,1327.808 			"></polygon>
			<polygon points="69.403,1328.495 69.375,1328.486 69.924,1327.935 74.047,1327.733 74.09,1327.615 74.394,1327.716 
				74.669,1327.808 74.648,1327.858 75.373,1328.259 75.648,1328.35 75.535,1328.646 77.551,1333.452 75.847,1338.021 
				73.641,1332.817 73.641,1332.817 73.358,1332.937 73.339,1332.718 73.36,1332.663 72.665,1332.277 72.506,1332.56 
				72.419,1332.288 68.191,1332.495 67.642,1333.046 			"></polygon>
			<polygon fill-rule="evenodd" clip-rule="evenodd" points="75.571,1337.929 76.132,1337.902 73.925,1332.7 73.358,1332.937 
				75.563,1338.14 76.121,1338.112 75.545,1337.919 75.545,1337.919 75.571,1337.929 			"></polygon>
			<polygon fill-rule="evenodd" clip-rule="evenodd" points="77.295,1333.581 77.275,1333.36 75.545,1337.919 76.121,1338.112 
				77.855,1333.556 77.835,1333.335 77.295,1333.581 77.295,1333.581 			"></polygon>
			<polygon fill-rule="evenodd" clip-rule="evenodd" points="75.648,1328.35 75.088,1328.378 77.295,1333.581 77.835,1333.335 
				75.629,1328.13 75.07,1328.158 75.648,1328.35 75.648,1328.35 			"></polygon>
			<polygon fill-rule="evenodd" clip-rule="evenodd" fill="#FFFFFF" points="75.501,1329.524 75.748,1330.067 75.839,1330.618 
				75.813,1331.159 75.656,1331.718 75.383,1332.269 75.005,1332.754 74.521,1333.204 73.933,1333.591 73.613,1333.728 
				73.294,1333.864 72.934,1333.927 72.606,1334.002 72.285,1334.047 71.939,1334.083 71.615,1334.038 71.286,1334.019 
				71.004,1333.955 70.702,1333.854 70.408,1333.726 70.152,1333.577 69.932,1333.413 69.686,1333.239 69.484,1333.019 
				69.319,1332.778 69.07,1332.239 68.979,1331.688 68.979,1331.138 69.163,1330.588 69.403,1330.055 69.786,1329.542 
				70.272,1329.093 70.886,1328.716 71.178,1328.569 71.526,1328.44 71.856,1328.366 72.187,1328.295 72.533,1328.259 
				72.855,1328.212 73.174,1328.259 73.504,1328.277 73.808,1328.377 74.108,1328.478 74.382,1328.571 74.667,1328.726 
				74.897,1328.864 75.135,1329.065 75.3,1329.305 75.501,1329.524 75.501,1329.524 75.501,1329.524 			"></polygon>
			<polygon fill-rule="evenodd" clip-rule="evenodd" points="75.72,1330.424 75.969,1330.966 76.051,1331.544 76.023,1332.086 
				75.876,1332.617 75.629,1333.177 75.216,1333.681 74.767,1334.112 74.153,1334.487 73.824,1334.653 73.503,1334.792 
				73.174,1334.864 72.815,1334.929 72.496,1334.974 72.187,1334.993 71.856,1334.974 71.507,1334.919 71.223,1334.853 
				70.921,1334.753 70.655,1334.633 70.371,1334.478 70.143,1334.341 69.932,1334.146 69.721,1333.954 69.538,1333.679 
				69.281,1333.165 69.19,1332.613 69.228,1332.045 69.374,1331.514 69.619,1330.955 69.997,1330.468 70.481,1330.019 
				71.095,1329.642 71.425,1329.478 71.735,1329.367 72.077,1329.267 72.435,1329.202 72.744,1329.185 73.064,1329.14 
				73.387,1329.185 73.714,1329.202 74.027,1329.276 74.327,1329.376 74.595,1329.497 74.888,1329.626 75.106,1329.792 
				75.354,1329.964 75.519,1330.205 75.712,1330.451 75.712,1330.451 75.72,1330.424 			"></polygon>
			<polygon fill-rule="evenodd" clip-rule="evenodd" fill="#FFFFFF" points="75.876,1331.058 76.134,1331.571 76.215,1332.15 
				76.186,1332.69 76.041,1333.222 75.766,1333.772 75.381,1334.286 74.932,1334.717 74.317,1335.095 74.017,1335.267 
				73.67,1335.397 73.336,1335.469 72.98,1335.533 72.661,1335.579 72.349,1335.598 72.02,1335.579 71.671,1335.524 71.387,1335.46 
				71.085,1335.358 70.82,1335.239 70.538,1335.084 70.307,1334.944 70.068,1334.743 69.895,1334.534 69.704,1334.284 
				69.447,1333.771 69.355,1333.22 69.382,1332.679 69.538,1332.12 69.786,1331.56 70.169,1331.046 70.673,1330.632 
				71.262,1330.249 71.59,1330.083 71.912,1329.945 72.241,1329.872 72.597,1329.81 72.918,1329.763 73.23,1329.743 
				73.586,1329.771 73.88,1329.81 74.192,1329.884 74.494,1329.982 74.786,1330.112 75.044,1330.26 75.273,1330.396 
				75.519,1330.571 75.683,1330.81 75.876,1331.058 75.876,1331.058 			"></polygon>
			<polygon fill-rule="evenodd" clip-rule="evenodd" points="76.095,1331.956 76.343,1332.499 76.434,1333.05 76.434,1333.6 
				76.25,1334.149 76.012,1334.683 75.602,1335.187 75.143,1335.645 74.529,1336.021 74.236,1336.167 73.889,1336.296 
				73.558,1336.368 73.23,1336.442 72.88,1336.479 72.558,1336.522 72.238,1336.479 71.91,1336.461 71.598,1336.388 
				71.294,1336.286 71.029,1336.165 70.747,1336.01 70.528,1335.846 70.307,1335.681 70.106,1335.458 69.914,1335.212 
				69.693,1334.681 69.576,1334.118 69.603,1333.577 69.757,1333.019 70.024,1332.495 70.409,1331.981 70.894,1331.532 
				71.481,1331.147 71.799,1331.01 72.122,1330.872 72.479,1330.808 72.809,1330.735 73.127,1330.688 73.468,1330.681 
				73.798,1330.698 74.099,1330.708 74.411,1330.782 74.713,1330.882 75.005,1331.011 75.263,1331.157 75.508,1331.332 
				75.729,1331.497 75.931,1331.718 76.085,1331.985 76.085,1331.985 76.095,1331.956 			"></polygon>
			<polygon fill-rule="evenodd" clip-rule="evenodd" fill="#FFFFFF" points="76.416,1332.552 76.671,1333.066 76.763,1333.618 
				76.755,1334.196 76.606,1334.728 76.333,1335.278 75.921,1335.782 75.472,1336.214 74.885,1336.599 74.556,1336.763 
				74.207,1336.893 73.879,1336.967 73.547,1337.038 73.201,1337.076 72.889,1337.095 72.558,1337.076 72.238,1337.03 
				71.929,1336.956 71.625,1336.854 71.36,1336.734 71.095,1336.616 70.847,1336.44 70.636,1336.247 70.437,1336.028 
				70.271,1335.79 70.015,1335.276 69.904,1334.688 69.932,1334.146 70.106,1333.625 70.354,1333.064 70.736,1332.552 
				71.215,1332.13 71.799,1331.743 72.13,1331.579 72.45,1331.441 72.799,1331.404 73.137,1331.304 73.458,1331.257 73.798,1331.25 
				74.126,1331.269 74.42,1331.305 74.732,1331.378 75.06,1331.487 75.326,1331.607 75.592,1331.728 75.839,1331.901 
				76.051,1332.094 76.252,1332.313 76.416,1332.552 76.416,1332.552 			"></polygon>
			<polygon fill-rule="evenodd" clip-rule="evenodd" points="76.664,1333.462 76.883,1333.993 77.003,1334.553 76.974,1335.095 
				76.818,1335.653 76.552,1336.177 76.167,1336.69 75.683,1337.141 75.096,1337.525 74.776,1337.663 74.429,1337.792 
				74.097,1337.864 73.769,1337.938 73.447,1337.983 73.101,1338.021 72.779,1337.975 72.45,1337.954 72.165,1337.892 
				71.837,1337.782 71.571,1337.662 71.314,1337.514 71.068,1337.341 70.847,1337.175 70.646,1336.956 70.481,1336.716 
				70.233,1336.175 70.113,1335.616 70.143,1335.075 70.326,1334.523 70.564,1333.991 70.95,1333.478 71.434,1333.028 
				72.047,1332.652 72.341,1332.507 72.69,1332.378 73.019,1332.303 73.349,1332.23 73.696,1332.194 74.017,1332.149 
				74.337,1332.194 74.64,1332.204 74.979,1332.286 75.28,1332.388 75.545,1332.507 75.803,1332.653 76.051,1332.827 
				76.27,1332.993 76.471,1333.214 76.664,1333.462 76.664,1333.462 76.664,1333.462 			"></polygon>
			<polygon fill-rule="evenodd" clip-rule="evenodd" points="46.389,1326.458 46.416,1326.285 44.674,1330.871 45.224,1331.054 
				46.966,1326.468 46.974,1326.351 46.389,1326.458 46.389,1326.458 46.389,1326.458 			"></polygon>
			<polygon fill-rule="evenodd" clip-rule="evenodd" points="46.343,1326.229 46.353,1326.202 46.389,1326.458 46.974,1326.351 
				46.91,1326.083 46.92,1326.056 46.343,1326.229 46.343,1326.229 46.343,1326.229 			"></polygon>
			<polygon fill-rule="evenodd" clip-rule="evenodd" points="46.279,1325.964 46.343,1326.229 46.92,1326.056 46.855,1325.788 
				46.279,1325.964 46.279,1325.964 46.279,1325.964 			"></polygon>
			<polygon fill-rule="evenodd" clip-rule="evenodd" points="46.205,1325.724 46.279,1325.964 46.855,1325.788 46.782,1325.551 
				46.205,1325.724 46.205,1325.724 			"></polygon>
			<polygon fill-rule="evenodd" clip-rule="evenodd" points="46.143,1325.459 46.143,1325.459 46.205,1325.724 46.782,1325.551 
				46.718,1325.284 46.71,1325.312 46.143,1325.459 46.143,1325.459 46.143,1325.459 			"></polygon>
			<polygon fill-rule="evenodd" clip-rule="evenodd" points="46.07,1325.128 46.07,1325.222 46.143,1325.459 46.71,1325.312 
				46.637,1325.072 46.664,1325.175 46.07,1325.128 46.07,1325.128 			"></polygon>
			<polygon fill-rule="evenodd" clip-rule="evenodd" points="46.654,1325.019 46.077,1324.916 46.07,1325.128 46.664,1325.175 
				46.672,1324.964 46.097,1324.861 46.645,1325.046 46.645,1325.046 46.654,1325.019 			"></polygon>
			<polygon fill-rule="evenodd" clip-rule="evenodd" fill="#4C4849" points="47.154,1338.368 47.1,1338.075 46.485,1338.176 
				46.53,1338.497 47.154,1338.368 47.154,1338.368 47.154,1338.368 			"></polygon>
			<polygon fill-rule="evenodd" clip-rule="evenodd" points="48.43,1334.544 48.447,1334.396 46.717,1338.956 47.264,1339.14 
				48.997,1334.581 48.987,1334.425 48.43,1334.544 48.43,1334.544 48.43,1334.544 			"></polygon>
			<polygon fill-rule="evenodd" clip-rule="evenodd" points="48.385,1334.222 48.43,1334.544 48.987,1334.425 48.942,1334.103 
				48.356,1334.212 48.356,1334.212 48.385,1334.222 			"></polygon>
			<polygon fill-rule="evenodd" clip-rule="evenodd" points="48.302,1333.917 48.356,1334.212 48.942,1334.103 48.859,1333.8 
				48.302,1333.917 48.302,1333.917 48.302,1333.917 			"></polygon>
			<polygon fill-rule="evenodd" clip-rule="evenodd" points="48.229,1333.589 48.245,1333.626 48.302,1333.917 48.859,1333.8 
				48.814,1333.478 48.832,1333.516 48.229,1333.589 48.229,1333.589 48.229,1333.589 			"></polygon>
			<polygon fill-rule="evenodd" clip-rule="evenodd" points="48.778,1333.313 48.191,1333.24 48.229,1333.589 48.832,1333.516 
				48.785,1333.194 48.199,1333.122 48.778,1333.313 48.778,1333.313 			"></polygon>
			<g>
				<polygon fill="#4C4849" points="44.678,1329.961 44.401,1330.046 44.678,1329.961 				"></polygon>
				<polygon fill="#4C4849" points="44.967,1330.919 44.976,1330.892 45.119,1330.9 45.224,1331.054 44.968,1330.97 				"></polygon>
				<polygon points="44.335,1329.78 44.629,1329.724 44.64,1329.513 46.38,1324.927 46.37,1324.954 46.37,1325.138 46.416,1325.366 
					46.509,1325.645 46.58,1325.881 46.645,1326.146 46.691,1326.375 46.691,1326.375 46.966,1326.468 45.224,1331.054 
					45.119,1330.9 44.976,1330.892 44.967,1330.919 44.968,1330.97 45.224,1331.054 44.971,1331.038 44.976,1331.248 44.8,1331.028 
					44.656,1331.018 44.62,1330.761 44.725,1330.739 44.839,1330.444 44.546,1330.522 44.463,1330.311 44.401,1330.046 
					44.678,1329.961 44.678,1329.961 44.401,1330.046 44.408,1330.019 				"></polygon>
			</g>
			<g>
				<polygon fill="none" points="58.511,1331.033 58.511,1331.033 58.76,1330.474 				"></polygon>
				<polygon points="44.958,1330.661 57.707,1330.242 58.036,1330.263 58.091,1330.28 58.403,1330.354 58.432,1330.363 
					58.76,1330.474 59.081,1330.611 59.109,1330.62 59.411,1330.813 59.466,1330.831 59.703,1331.033 59.776,1331.087 
					59.949,1331.298 59.969,1331.336 60.088,1331.527 60.097,1331.593 59.534,1331.763 59.445,1331.619 59.438,1331.647 
					59.291,1331.444 59.293,1331.444 59.099,1331.29 59.146,1331.336 58.834,1331.171 58.834,1331.169 58.511,1331.033 
					58.511,1331.033 58.238,1330.942 57.926,1330.867 57.981,1330.886 57.689,1330.849 57.689,1330.821 44.976,1331.248 				"></polygon>
				<polygon points="59.522,1331.768 59.534,1331.763 59.565,1331.813 				"></polygon>
			</g>
			<polygon fill-rule="evenodd" clip-rule="evenodd" points="66.331,1342.485 66.331,1342.304 64.591,1346.889 65.168,1347.082 
				66.908,1342.496 66.908,1342.312 66.331,1342.485 66.331,1342.485 66.331,1342.485 			"></polygon>
			<polygon fill-rule="evenodd" clip-rule="evenodd" points="61.296,1327.253 61.26,1327.18 66.331,1342.485 66.908,1342.312 
				61.839,1327.007 61.828,1326.942 61.296,1327.253 61.296,1327.253 61.296,1327.253 			"></polygon>
			<polygon fill-rule="evenodd" clip-rule="evenodd" points="61.197,1327.099 61.18,1327.062 61.296,1327.253 61.828,1326.942 
				61.711,1326.747 61.684,1326.74 61.168,1327.089 61.168,1327.089 61.197,1327.099 			"></polygon>
			<polygon fill-rule="evenodd" clip-rule="evenodd" points="61.077,1326.903 61.031,1326.859 61.168,1327.089 61.684,1326.74 
				61.49,1326.491 61.443,1326.444 61.077,1326.903 61.077,1326.903 61.077,1326.903 			"></polygon>
			<polygon fill-rule="evenodd" clip-rule="evenodd" points="60.877,1326.777 60.83,1326.731 61.077,1326.903 61.443,1326.444 
				61.197,1326.272 61.151,1326.226 60.877,1326.777 60.877,1326.777 			"></polygon>
			<polygon fill-rule="evenodd" clip-rule="evenodd" points="60.601,1326.592 60.574,1326.583 60.877,1326.777 61.151,1326.226 
				60.84,1326.061 60.813,1326.052 60.601,1326.592 60.601,1326.592 			"></polygon>
			<polygon fill-rule="evenodd" clip-rule="evenodd" points="60.309,1326.464 60.243,1326.472 60.601,1326.592 60.813,1326.052 
				60.491,1325.913 60.464,1325.904 60.273,1326.481 60.273,1326.481 60.309,1326.464 			"></polygon>
			<polygon fill-rule="evenodd" clip-rule="evenodd" points="59.979,1326.354 59.941,1326.372 60.273,1326.481 60.464,1325.904 
				60.135,1325.794 60.135,1325.794 59.969,1326.382 59.969,1326.382 59.979,1326.354 			"></polygon>
			<polygon fill-rule="evenodd" clip-rule="evenodd" points="59.723,1326.3 59.668,1326.282 59.969,1326.382 60.135,1325.794 
				59.794,1325.712 59.767,1325.703 59.723,1326.3 59.723,1326.3 59.723,1326.3 			"></polygon>
			<polygon fill-rule="evenodd" clip-rule="evenodd" points="59.429,1326.261 59.42,1326.289 59.723,1326.3 59.767,1325.703 
				59.447,1325.655 59.411,1325.675 59.429,1326.261 59.429,1326.261 			"></polygon>
			<polygon fill-rule="evenodd" clip-rule="evenodd" points="46.993,1326.477 46.682,1326.679 59.429,1326.261 59.411,1325.675 
				46.691,1326.101 46.416,1326.285 46.966,1326.468 46.966,1326.468 46.993,1326.477 			"></polygon>
			<polygon fill="#4C4849" points="50.194,1340.424 50.15,1340.401 50.178,1340.388 			"></polygon>
			<g>
				<polygon fill="#4C4849" points="57.08,1342.487 57.026,1343.106 57.08,1342.487 				"></polygon>
				<g>
					<polygon fill="none" points="57.055,1342.783 57.026,1343.106 57.055,1342.783 					"></polygon>
					<g>
						<polygon fill="none" points="46.725,1337.817 46.743,1337.774 46.755,1337.831 						"></polygon>
						<path d="M46.53,1338.497l0.057,0.294l0.109,0.312l0.138,0.23l0.779,0.412l0.777,0.414l0.751,0.402l0.761,0.377l0.027,0.01
							l0.771,0.348l0.768,0.349l0.833,0.341l0.842,0.311l0.029,0.011l0.896,0.239l0.897,0.239l0.027,0.009l0.989,0.146l1.017,0.156
							l0.027,0.01l1.106,0.064l0.039-0.02l1.181,0.029l1.265-0.036l1.338-0.072l0.274-0.185l1.73-4.56l-0.294-0.403l0.019,0.588
							l-0.094-0.115l0.066-0.168l-0.191,0.01l-0.084-0.104l-0.041,0.112l-0.992,0.062h-1.284l-1.181-0.029l-1.08-0.055l-1.054-0.137
							l-0.979-0.176l-0.9-0.238l-0.895-0.24l-0.843-0.311l-0.816-0.305l-0.767-0.348l-0.763-0.378l-0.786-0.385l-0.751-0.403
							l-0.752-0.404l-0.521-0.277l0.019-0.043l-0.275-0.094l0,0l-0.073-0.33l-0.055-0.295l-0.021-0.1l0.206-0.449l-0.291-0.096
							l-0.012-0.006l0,0l-0.276-0.09l-1.73,4.557l-0.02,0.147l0.046,0.321L46.53,1338.497z M46.743,1337.774l0.012,0.057
							l-0.03-0.014L46.743,1337.774z"></path>
					</g>
				</g>
			</g>
			<polygon fill-rule="evenodd" clip-rule="evenodd" points="62.347,1338.585 63.686,1338.513 63.666,1337.925 62.329,1337.997 
				62.347,1338.585 62.347,1338.585 62.347,1338.585 			"></polygon>
			<polygon fill-rule="evenodd" clip-rule="evenodd" points="61.085,1338.622 62.347,1338.585 62.329,1337.997 61.065,1338.034 
				61.085,1338.622 61.085,1338.622 61.085,1338.622 			"></polygon>
			<polygon fill-rule="evenodd" clip-rule="evenodd" points="59.875,1338.583 59.903,1338.593 61.085,1338.622 61.065,1338.034 
				59.885,1338.007 59.922,1337.987 59.867,1338.612 59.867,1338.612 59.875,1338.583 			"></polygon>
			<polygon fill-rule="evenodd" clip-rule="evenodd" points="58.739,1338.511 58.768,1338.521 59.867,1338.612 59.922,1337.987 
				58.814,1337.923 58.84,1337.933 58.739,1338.511 58.739,1338.511 58.739,1338.511 			"></polygon>
			<polygon fill-rule="evenodd" clip-rule="evenodd" points="57.713,1338.381 58.739,1338.511 58.84,1337.933 57.823,1337.776 
				57.713,1338.381 57.713,1338.381 			"></polygon>
			<polygon fill-rule="evenodd" clip-rule="evenodd" points="56.707,1338.198 56.733,1338.206 57.713,1338.381 57.823,1337.776 
				56.808,1337.619 56.835,1337.628 56.707,1338.198 56.707,1338.198 56.707,1338.198 			"></polygon>
			<polygon fill-rule="evenodd" clip-rule="evenodd" points="55.811,1337.958 56.707,1338.198 56.835,1337.628 55.939,1337.39 
				55.799,1337.986 55.799,1337.986 55.811,1337.958 			"></polygon>
			<polygon fill-rule="evenodd" clip-rule="evenodd" points="54.875,1337.738 54.904,1337.747 55.799,1337.986 55.939,1337.39 
				55.04,1337.149 55.068,1337.159 54.875,1337.738 54.875,1337.738 			"></polygon>
			<polygon fill-rule="evenodd" clip-rule="evenodd" points="54.031,1337.426 54.031,1337.426 54.875,1337.738 55.068,1337.159 
				54.225,1336.847 54.254,1336.855 54.006,1337.417 54.006,1337.417 54.031,1337.426 			"></polygon>
			<polygon fill-rule="evenodd" clip-rule="evenodd" points="53.198,1337.086 54.006,1337.417 54.254,1336.855 53.449,1336.524 
				53.198,1337.086 53.198,1337.086 			"></polygon>
			<polygon fill-rule="evenodd" clip-rule="evenodd" points="52.431,1336.736 53.198,1337.086 53.449,1336.524 52.669,1336.205 
				52.431,1336.736 52.431,1336.736 			"></polygon>
			<polygon fill-rule="evenodd" clip-rule="evenodd" points="51.643,1336.351 51.662,1336.389 52.431,1336.736 52.669,1336.205 
				51.881,1335.819 51.908,1335.829 51.633,1336.379 51.633,1336.379 51.643,1336.351 			"></polygon>
			<polygon fill-rule="evenodd" clip-rule="evenodd" points="50.883,1335.976 51.633,1336.379 51.908,1335.829 51.149,1335.451 
				50.874,1336.003 50.874,1336.003 50.883,1335.976 			"></polygon>
			<polygon fill-rule="evenodd" clip-rule="evenodd" points="50.131,1335.572 50.874,1336.003 51.149,1335.451 50.398,1335.048 
				50.104,1335.562 50.104,1335.562 50.131,1335.572 			"></polygon>
			<polygon fill-rule="evenodd" clip-rule="evenodd" points="49.353,1335.157 50.104,1335.562 50.398,1335.048 49.647,1334.645 
				49.353,1335.157 49.353,1335.157 			"></polygon>
			<polygon fill-rule="evenodd" clip-rule="evenodd" points="48.997,1334.581 48.575,1334.743 49.353,1335.157 49.647,1334.645 
				48.869,1334.231 48.447,1334.396 48.997,1334.581 48.997,1334.581 48.997,1334.581 			"></polygon>
			<polygon fill-rule="evenodd" clip-rule="evenodd" points="128.381,1326.316 126.64,1330.901 132.324,1332.804 133.645,1329.757 
				133.682,1329.465 133.69,1329.161 133.645,1328.839 133.533,1328.529 133.352,1328.253 133.205,1327.958 132.967,1327.666 
				132.721,1327.399 132.464,1327.161 132.181,1326.911 131.887,1326.692 131.603,1326.535 131.327,1326.354 131.006,1326.216 
				130.723,1326.06 130.448,1325.966 130.203,1325.886 129.906,1325.849 129.644,1325.819 129.388,1325.858 129.13,1325.894 
				128.857,1325.985 128.617,1326.15 128.381,1326.316 128.381,1326.316 128.381,1326.316 			"></polygon>
			<polygon fill-rule="evenodd" clip-rule="evenodd" points="132.07,1332.657 132.427,1332.499 126.74,1330.601 126.546,1331.177 
				132.233,1333.078 132.618,1332.933 132.07,1332.657 132.07,1332.657 			"></polygon>
			<g>
				<polygon fill="none" points="133.166,1333.98 133.205,1334.29 133.166,1333.98 				"></polygon>
				<polygon fill="none" points="136.099,1330.907 136.31,1331.108 136.081,1330.948 				"></polygon>
				<g>
					<polygon fill="none" points="136.31,1331.108 136.081,1330.948 136.099,1330.907 					"></polygon>
					<g>
						<polygon fill="none" points="136.31,1331.108 136.081,1330.948 136.099,1330.907 						"></polygon>
						<polygon points="44.335,1329.505 44.362,1329.421 46.097,1324.861 46.645,1325.046 44.967,1329.548 44.932,1329.733 
							44.922,1329.669 44.335,1329.78 44.327,1329.716 						"></polygon>
						<g>
							<polygon fill="none" points="136.31,1331.108 136.081,1330.948 136.099,1330.907 							"></polygon>
							<polygon fill="#4C4849" points="72.221,1340.296 72.118,1340.357 72.111,1340.35 							"></polygon>
							<g>
								<polygon fill="none" points="72.332,1340.563 72.549,1340.772 72.332,1340.563 								"></polygon>
								<polygon fill="none" points="136.31,1331.108 136.081,1330.948 136.099,1330.907 								"></polygon>
								<polygon fill="none" points="64.866,1346.981 64.883,1346.981 64.883,1346.987 64.591,1346.889 64.837,1346.896 								"></polygon>
								<path d="M44.546,1330.522l0.064,0.267l0.01-0.028l0.443-0.094l-0.115,0.296l12.75-0.417l0.302,0.01l0.329,0.109l0.329,0.11
									l0.331,0.111l0.302,0.19l0.247,0.176l0.174,0.211l0.106,0.213l-0.297,0.091l5.069,15.306l0.296,0.006l0.007,0.188h0.456
									l0.432-0.01l0.394,0.01l0.357-0.065l0.366-0.091l0.366-0.184l0.338-0.284l0.402-0.386l0.01-0.027l0.229-0.321l0.268-0.339
									l0.302-0.358l0.211-0.356l0.266-0.432l0.274-0.367l0.229-0.412l0.292-0.422l0.238-0.348l0.339-0.378l0.276-0.366l0.32-0.322
									l0.284-0.301l0.302-0.266l0.295-0.239l0.336-0.192l0.074-0.037l-0.217-0.209l0,0l0.217,0.209l0.34-0.376l0.312-0.294
									l0.275-0.275l0.292-0.238l0.284-0.211l0.302-0.175l0.265-0.154l0.293-0.147l0.331-0.072l0.319-0.139l0.331-0.073
									l0.383-0.056l0.423-0.072l0.466-0.026l0.506-0.046l0.493-0.019l0.027,0.009l55.014-4.117l0.319-0.045l0.292-0.057
									l0.267-0.063l0.275-0.092l0.256-0.128l0.265-0.156l0.223-0.201l0.254-0.22l0.057-0.075l0.962-2.246l-0.504-0.322
									l0.224,0.216l-0.035,0.03l-0.244-0.172l-0.24,0.562l-0.162,0.098l-0.212,0.083l-0.247,0.103l-0.23,0.045l-0.293,0.056
									l-0.29,0.054l-55.041,4.108l-0.351,0.037l-0.336,0.01l-0.339,0.008l-0.358,0.063H77.35l-0.319,0.046l-0.351,0.037
									l-0.319,0.047l-0.358,0.062l-0.319,0.047l-0.329,0.072l-0.365,0.092l-0.331,0.074l-0.349,0.127l-0.349,0.129l-0.329,0.164
									l-0.651,0.396l-0.657,0.604l-0.697,0.717l-0.67,0.814l-0.649,0.854l-0.559,0.762l-0.55,0.733l-0.458,0.55l-0.266,0.065
									l-0.229,0.046l-0.284,0.027h-0.274h-0.275l-0.238-0.018l-0.302-0.011l-0.266-0.028l-5.052-15.268l-0.11-0.221l-0.173-0.211
									l-0.247-0.176l-0.331-0.201l-0.319-0.139l-0.329-0.109l-0.312-0.074l-0.304-0.009l-12.737,0.389l-1.531,4.035l-0.009-0.052
									L44.546,1330.522z M136.081,1330.948l0.018-0.041l0.211,0.201L136.081,1330.948z"></path>
							</g>
						</g>
					</g>
				</g>
			</g>
			<polygon fill-rule="evenodd" clip-rule="evenodd" points="134.157,1332.07 134.486,1331.997 134.78,1331.942 135.046,1331.878 
				135.32,1331.786 135.576,1331.658 135.843,1331.501 136.053,1331.329 136.31,1331.108 135.87,1330.685 135.677,1330.896 
				135.476,1331.044 135.282,1331.163 135.072,1331.245 134.869,1331.3 134.634,1331.373 134.378,1331.409 134.094,1331.438 
				134.157,1332.07 134.157,1332.07 			"></polygon>
			<polygon fill-rule="evenodd" clip-rule="evenodd" points="79.153,1336.16 134.157,1332.07 134.094,1331.438 79.082,1335.554 
				79.153,1336.16 79.153,1336.16 			"></polygon>
			<polygon fill-rule="evenodd" clip-rule="evenodd" points="73.759,1337.14 74.079,1337.003 74.394,1336.893 74.767,1336.772 
				75.079,1336.663 75.416,1336.563 75.737,1336.517 76.058,1336.472 76.414,1336.407 76.707,1336.351 77.047,1336.343 
				77.396,1336.306 77.742,1336.27 78.091,1336.233 78.402,1336.215 78.777,1336.188 79.153,1336.16 79.082,1335.554 
				78.731,1335.593 78.385,1335.627 78.019,1335.627 77.671,1335.663 77.332,1335.673 77.003,1335.747 76.662,1335.757 
				76.287,1335.782 75.957,1335.857 75.626,1335.929 75.271,1335.993 74.904,1336.085 74.593,1336.194 74.217,1336.313 
				73.842,1336.433 73.513,1336.598 73.759,1337.14 73.759,1337.14 73.759,1337.14 			"></polygon>
			<polygon fill-rule="evenodd" clip-rule="evenodd" points="68.83,1342.589 68.95,1342.505 69.197,1342.22 69.419,1341.929 
				69.682,1341.589 69.957,1341.22 70.271,1340.837 70.555,1340.44 70.874,1340.028 71.195,1339.616 71.524,1339.175 71.863,1338.8 
				72.193,1338.45 72.531,1338.075 72.815,1337.772 73.174,1337.524 73.464,1337.286 73.759,1337.14 73.513,1336.598 
				73.137,1336.81 72.815,1337.038 72.439,1337.341 72.084,1337.679 71.753,1338.03 71.425,1338.378 71.058,1338.836 
				70.736,1339.249 70.415,1339.662 70.094,1340.073 69.812,1340.469 69.5,1340.854 69.225,1341.22 68.96,1341.561 68.739,1341.854 
				68.538,1342.092 68.648,1342.036 68.83,1342.589 68.83,1342.589 68.83,1342.589 			"></polygon>
			<polygon fill="none" points="128.261,1326.581 128.381,1326.316 128.6,1326.114 128.929,1325.948 129.314,1325.894 
				129.523,1325.904 129.763,1325.922 129.991,1325.966 130.22,1326.014 130.494,1326.104 130.743,1326.187 131.008,1326.307 
				131.293,1326.463 131.528,1326.573 131.776,1326.747 131.997,1326.911 132.235,1327.114 132.482,1327.29 132.655,1327.501 
				132.866,1327.692 133.04,1327.903 133.361,1328.318 133.526,1328.74 133.609,1328.951 133.654,1329.089 133.627,1329.446 
				133.561,1329.729 133.36,1329.968 133.067,1330.114 132.673,1330.198 132.454,1330.218 132.225,1330.169 131.961,1330.142 
				131.676,1330.079 131.428,1329.996 131.153,1329.903 130.86,1329.776 130.606,1329.629 130.338,1329.51 130.054,1329.353 
				129.806,1329.18 129.569,1328.977 129.349,1328.812 129.12,1328.582 128.919,1328.362 128.744,1328.151 128.462,1327.72 
				128.296,1327.297 128.251,1327.161 128.204,1326.931 			"></polygon>
			<polygon fill-rule="evenodd" clip-rule="evenodd" fill="#FFFFFF" points="58.294,1326.005 59.429,1325.986 59.522,1325.986 
				49.769,1322.726 49.275,1323.019 58.284,1326.032 58.284,1326.032 58.294,1326.005 			"></polygon>
			<polygon fill-rule="evenodd" clip-rule="evenodd" fill="#FFFFFF" points="58.294,1326.005 46.691,1326.375 46.645,1326.146 
				46.58,1325.881 46.509,1325.645 46.416,1325.366 46.37,1325.138 46.37,1324.954 46.443,1324.735 46.645,1324.587 
				47.121,1324.257 47.653,1323.945 48.184,1323.634 48.716,1323.321 49.219,1323.002 49.275,1323.019 58.284,1326.032 
				58.284,1326.032 58.294,1326.005 			"></polygon>
			<polygon fill="#FFFFFF" points="51.24,1333.065 59.144,1332.62 62.239,1333.87 63.329,1337.108 63.658,1338.229 62.35,1338.31 
				61.065,1338.31 59.885,1338.28 58.805,1338.226 57.751,1338.089 56.773,1337.913 55.872,1337.675 54.977,1337.435 
				54.134,1337.124 53.317,1336.819 52.551,1336.472 51.788,1336.094 51.002,1335.709 50.251,1335.306 49.499,1334.901 
				48.722,1334.487 48.648,1334.157 48.594,1333.862 48.521,1333.534 48.476,1333.212 			"></polygon>
			<polygon fill-rule="evenodd" clip-rule="evenodd" fill="#FFFFFF" points="71.149,1333.974 71.259,1334.102 72.275,1334.717 
				72.606,1334.185 71.589,1333.571 71.691,1333.728 71.149,1333.974 71.188,1334.047 71.259,1334.102 71.149,1333.974 
				71.149,1333.974 			"></polygon>
			<polygon fill-rule="evenodd" clip-rule="evenodd" fill="#FFFFFF" points="62.109,1334.163 61.937,1333.951 63.383,1338.319 
				63.96,1338.146 62.514,1333.776 62.358,1333.603 62.514,1333.776 62.467,1333.64 62.358,1333.603 62.109,1334.163 
				62.109,1334.163 62.109,1334.163 			"></polygon>
			<polygon fill-rule="evenodd" clip-rule="evenodd" fill="#FFFFFF" points="59.173,1332.904 59.025,1332.888 62.109,1334.163 
				62.358,1333.603 59.273,1332.326 59.153,1332.317 59.273,1332.326 59.217,1332.308 59.153,1332.317 59.173,1332.904 
				59.173,1332.904 59.173,1332.904 			"></polygon>
			<polygon fill-rule="evenodd" clip-rule="evenodd" fill="#FFFFFF" points="48.785,1333.194 48.493,1333.524 59.173,1332.904 
				59.153,1332.317 48.476,1332.937 48.191,1333.24 48.476,1332.937 48.135,1332.945 48.191,1333.24 48.785,1333.194 
				48.785,1333.194 			"></polygon>
			<polygon fill-rule="evenodd" clip-rule="evenodd" fill="#FFFFFF" points="48.869,1334.231 48.987,1334.425 48.979,1334.269 
				48.942,1334.103 48.933,1333.946 48.886,1333.808 48.879,1333.653 48.842,1333.487 48.795,1333.35 48.785,1333.194 
				48.191,1333.24 48.191,1333.423 48.219,1333.616 48.266,1333.753 48.273,1333.909 48.319,1334.047 48.356,1334.212 
				48.42,1334.387 48.43,1334.544 48.575,1334.743 48.43,1334.544 48.476,1334.681 48.575,1334.743 48.869,1334.231 
				48.869,1334.231 			"></polygon>
			<polygon fill-rule="evenodd" clip-rule="evenodd" fill="#FFFFFF" points="63.393,1338.292 63.638,1337.916 62.329,1337.997 
				61.065,1338.034 59.922,1337.987 58.814,1337.923 57.823,1337.776 56.835,1337.628 55.939,1337.39 55.068,1337.159 
				54.225,1336.847 53.449,1336.524 52.669,1336.205 51.908,1335.829 51.149,1335.451 50.398,1335.048 49.647,1334.645 
				48.869,1334.231 48.575,1334.743 49.353,1335.157 50.104,1335.562 50.874,1336.003 51.633,1336.379 52.431,1336.736 
				53.198,1337.086 54.031,1337.426 54.875,1337.738 55.799,1337.986 56.707,1338.198 57.713,1338.381 58.768,1338.521 
				59.867,1338.612 61.085,1338.622 62.347,1338.585 63.712,1338.521 63.96,1338.146 63.712,1338.521 64.089,1338.493 
				63.96,1338.146 63.383,1338.319 63.383,1338.319 63.393,1338.292 			"></polygon>
			<g>
				<polygon fill="none" points="68.917,1342.17 69.142,1342.386 68.917,1342.17 				"></polygon>
				<polygon fill="none" points="66.891,1342.092 66.836,1342.095 66.836,1342.095 				"></polygon>
				<polygon fill="none" points="61.917,1327.247 69.934,1329.927 61.917,1327.247 				"></polygon>
			</g>
			<polygon fill-rule="evenodd" clip-rule="evenodd" fill="#FFFFFF" points="79.082,1335.554 78.677,1335.573 78.228,1335.636 
				77.825,1335.654 77.387,1335.69 76.965,1335.765 76.517,1335.829 76.068,1335.894 75.636,1335.993 75.205,1336.094 
				74.833,1336.214 74.42,1336.351 74.033,1336.498 73.704,1336.663 73.311,1336.838 72.989,1337.067 72.695,1337.305 
				73.064,1337.765 73.346,1337.553 73.621,1337.369 73.923,1337.194 74.272,1337.067 74.612,1336.874 74.979,1336.782 
				75.407,1336.683 75.783,1336.563 76.195,1336.517 76.562,1336.427 77.003,1336.389 77.423,1336.317 77.872,1336.251 
				78.312,1336.214 78.722,1336.17 79.153,1336.16 79.082,1335.554 79.082,1335.554 79.082,1335.554 			"></polygon>
			<polygon fill-rule="evenodd" clip-rule="evenodd" fill="#FFFFFF" points="134.094,1331.438 79.082,1335.554 79.153,1336.16 
				134.157,1332.07 134.094,1331.438 134.094,1331.438 			"></polygon>
			<polygon fill-rule="evenodd" clip-rule="evenodd" fill="#FFFFFF" points="135.119,1328.077 135.348,1328.4 135.586,1328.694 
				135.696,1329.005 135.87,1329.31 135.961,1329.585 135.991,1329.87 135.998,1330.116 135.981,1330.354 135.915,1330.548 
				135.824,1330.731 135.706,1330.905 135.493,1331.078 135.274,1331.19 134.926,1331.317 134.56,1331.409 134.094,1331.438 
				134.157,1332.07 134.662,1332.025 135.102,1331.896 135.485,1331.749 135.824,1331.558 136.136,1331.354 136.355,1331.062 
				136.475,1330.794 136.583,1330.466 136.574,1330.126 136.595,1329.796 136.521,1329.465 136.4,1329.091 136.263,1328.769 
				136.081,1328.4 135.843,1328.017 135.606,1327.722 135.119,1328.077 135.119,1328.077 			"></polygon>
			<polygon fill-rule="evenodd" clip-rule="evenodd" fill="#FFFFFF" points="128.564,1324.94 129.059,1324.922 129.56,1324.968 
				130.073,1325.077 130.568,1325.151 131.035,1325.306 131.502,1325.464 131.95,1325.675 132.373,1325.878 132.812,1326.115 
				133.214,1326.372 133.647,1326.638 133.956,1326.896 134.285,1327.188 134.606,1327.511 134.872,1327.812 135.119,1328.077 
				135.606,1327.722 135.32,1327.382 134.999,1327.062 134.68,1326.74 134.323,1326.437 133.929,1326.153 133.536,1325.868 
				133.133,1325.61 132.674,1325.335 132.198,1325.114 131.712,1324.922 131.219,1324.757 130.696,1324.583 130.183,1324.472 
				129.66,1324.39 129.066,1324.343 128.543,1324.352 128.564,1324.94 128.564,1324.94 			"></polygon>
			<polygon fill-rule="evenodd" clip-rule="evenodd" fill="#FFFFFF" points="79.889,1326.618 128.564,1324.94 128.543,1324.352 
				79.897,1326.041 79.889,1326.618 79.889,1326.618 			"></polygon>
			<polygon fill-rule="evenodd" clip-rule="evenodd" fill="#FFFFFF" points="72.204,1325.394 72.663,1325.579 73.147,1325.68 
				73.615,1325.835 74.102,1325.937 74.612,1326.048 75.091,1326.175 75.61,1326.259 76.079,1326.323 76.565,1326.425 
				77.066,1326.47 77.561,1326.542 78.048,1326.554 78.515,1326.618 79.01,1326.6 79.457,1326.628 79.889,1326.618 79.897,1326.041 
				79.439,1326.041 78.991,1326.014 78.569,1325.995 78.093,1325.958 77.616,1325.921 77.14,1325.883 76.674,1325.817 
				76.181,1325.745 75.694,1325.646 75.228,1325.579 74.751,1325.45 74.256,1325.376 73.78,1325.249 73.276,1325.11 
				72.855,1325.001 72.388,1324.845 72.196,1325.423 72.196,1325.423 72.204,1325.394 			"></polygon>
			<polygon fill-rule="evenodd" clip-rule="evenodd" fill="#FFFFFF" points="55.785,1320.886 56.62,1320.765 57.405,1320.692 
				58.157,1320.638 58.844,1320.591 59.496,1320.564 60.081,1320.638 60.687,1320.657 61.189,1320.702 61.711,1320.785 
				62.196,1320.887 62.653,1320.978 63.065,1321.116 63.505,1321.263 63.854,1321.409 64.285,1321.585 64.624,1321.759 
				65.017,1321.951 65.409,1322.146 65.795,1322.365 66.181,1322.587 66.564,1322.806 66.968,1323.062 67.361,1323.257 
				67.791,1323.521 68.269,1323.742 68.726,1324.017 69.236,1324.22 69.731,1324.476 70.29,1324.724 70.896,1324.927 
				71.536,1325.202 72.196,1325.423 72.388,1324.845 71.728,1324.624 71.079,1324.376 70.538,1324.165 69.971,1323.944 
				69.449,1323.679 68.998,1323.468 68.541,1323.191 68.092,1322.98 67.653,1322.741 67.241,1322.513 66.857,1322.294 
				66.455,1322.034 66.069,1321.814 65.677,1321.622 65.281,1321.429 64.924,1321.217 64.531,1321.025 64.101,1320.851 
				63.698,1320.686 63.259,1320.538 62.791,1320.382 62.307,1320.28 61.812,1320.207 61.271,1320.087 60.714,1320.022 
				60.135,1320.013 59.467,1320.005 58.826,1320.005 58.085,1320.032 57.334,1320.087 56.536,1320.187 55.711,1320.279 
				55.759,1320.874 55.759,1320.874 55.785,1320.886 			"></polygon>
			<polygon fill-rule="evenodd" clip-rule="evenodd" fill="#FFFFFF" points="46.8,1324.853 47.278,1324.524 47.808,1324.212 
				48.341,1323.899 48.881,1323.56 49.374,1323.267 49.934,1322.964 50.454,1322.681 50.996,1322.434 51.573,1322.168 
				52.149,1321.901 52.717,1321.663 53.304,1321.461 53.937,1321.306 54.512,1321.13 55.145,1320.976 55.759,1320.874 
				55.711,1320.279 55.024,1320.415 54.376,1320.534 53.733,1320.717 53.129,1320.884 52.525,1321.14 51.901,1321.36 
				51.335,1321.599 50.756,1321.864 50.171,1322.156 49.612,1322.459 49.091,1322.743 48.56,1323.056 48.026,1323.366 
				47.497,1323.679 46.993,1324.001 46.489,1324.321 46.773,1324.843 46.773,1324.843 46.8,1324.853 			"></polygon>
			<polygon fill-rule="evenodd" clip-rule="evenodd" fill="#FFFFFF" points="46.691,1326.101 47.001,1326.358 46.91,1326.083 
				46.855,1325.788 46.782,1325.551 46.718,1325.284 46.682,1325.119 46.654,1325.019 46.699,1324.882 46.773,1324.843 
				46.489,1324.321 46.225,1324.568 46.087,1324.89 46.051,1325.183 46.143,1325.459 46.205,1325.724 46.279,1325.964 
				46.353,1326.202 46.397,1326.431 46.682,1326.679 46.397,1326.431 46.407,1326.679 46.682,1326.679 46.691,1326.101 
				46.691,1326.101 			"></polygon>
			<g>
				<polygon fill="none" points="69.163,1328.293 69.165,1328.295 69.09,1328.605 				"></polygon>
				<polygon fill="#FFFFFF" points="69.173,1328.266 69.165,1328.295 69.163,1328.293 				"></polygon>
				<polygon fill="#FFFFFF" points="69.035,1328.403 69.163,1328.293 69.09,1328.605 				"></polygon>
				<g>
					<polygon fill="none" points="128.381,1326.316 128.6,1326.114 128.929,1325.948 129.314,1325.894 129.523,1325.904 
						129.763,1325.922 129.991,1325.966 130.22,1326.014 130.494,1326.104 130.743,1326.187 131.008,1326.307 131.293,1326.463 
						131.528,1326.573 131.776,1326.747 131.997,1326.911 132.235,1327.114 132.482,1327.29 132.655,1327.501 132.866,1327.692 
						133.04,1327.903 133.361,1328.318 133.526,1328.74 133.609,1328.951 133.654,1329.089 133.627,1329.446 133.561,1329.729 
						133.36,1329.968 133.067,1330.114 132.673,1330.198 132.454,1330.218 132.225,1330.169 131.961,1330.142 131.676,1330.079 
						131.428,1329.996 131.153,1329.903 130.86,1329.776 130.606,1329.629 130.338,1329.51 130.054,1329.353 129.806,1329.18 
						129.569,1328.977 129.349,1328.812 129.12,1328.582 128.919,1328.362 128.744,1328.151 128.462,1327.72 128.296,1327.297 
						128.251,1327.161 128.204,1326.931 128.261,1326.581 					"></polygon>
					<polygon fill="none" points="75.361,1328.253 75.361,1328.253 75.088,1328.378 					"></polygon>
					<polygon fill="none" points="77.342,1333.26 77.535,1333.416 77.551,1333.452 77.03,1334.104 72.431,1334.433 71.434,1333.855 
						71.43,1333.845 71.691,1333.728 69.734,1328.565 70.06,1328.241 74.238,1328.001 75.123,1328.462 77.295,1333.581 					"></polygon>
					<polygon fill="none" points="61.651,1326.698 61.651,1326.698 69.347,1329.271 					"></polygon>
					<g>
						<polygon fill="none" points="128.381,1326.316 128.6,1326.114 128.929,1325.948 129.314,1325.894 129.523,1325.904 
							129.763,1325.922 129.991,1325.966 130.22,1326.014 130.494,1326.104 130.743,1326.187 131.008,1326.307 131.293,1326.463 
							131.528,1326.573 131.776,1326.747 131.997,1326.911 132.235,1327.114 132.482,1327.29 132.655,1327.501 132.866,1327.692 
							133.04,1327.903 133.361,1328.318 133.526,1328.74 133.609,1328.951 133.654,1329.089 133.627,1329.446 133.561,1329.729 
							133.36,1329.968 133.067,1330.114 132.673,1330.198 132.454,1330.218 132.225,1330.169 131.961,1330.142 131.676,1330.079 
							131.428,1329.996 131.153,1329.903 130.86,1329.776 130.606,1329.629 130.338,1329.51 130.054,1329.353 129.806,1329.18 
							129.569,1328.977 129.349,1328.812 129.12,1328.582 128.919,1328.362 128.744,1328.151 128.462,1327.72 128.296,1327.297 
							128.251,1327.161 128.204,1326.931 128.261,1326.581 						"></polygon>
						<polygon fill="none" points="74.238,1328.001 75.123,1328.462 77.295,1333.581 77.342,1333.26 77.535,1333.416 
							77.551,1333.452 77.03,1334.104 72.431,1334.433 71.434,1333.855 71.43,1333.845 71.691,1333.728 69.734,1328.565 
							70.06,1328.241 						"></polygon>
						<polygon fill="none" points="61.651,1326.698 61.651,1326.698 69.347,1329.271 						"></polygon>
						<g>
							<polygon fill="none" points="128.381,1326.316 128.6,1326.114 128.929,1325.948 129.314,1325.894 129.523,1325.904 
								129.763,1325.922 129.991,1325.966 130.22,1326.014 130.494,1326.104 130.743,1326.187 131.008,1326.307 131.293,1326.463 
								131.528,1326.573 131.776,1326.747 131.997,1326.911 132.235,1327.114 132.482,1327.29 132.655,1327.501 132.866,1327.692 
								133.04,1327.903 133.361,1328.318 133.526,1328.74 133.609,1328.951 133.654,1329.089 133.627,1329.446 133.561,1329.729 
								133.36,1329.968 133.067,1330.114 132.673,1330.198 132.454,1330.218 132.225,1330.169 131.961,1330.142 131.676,1330.079 
								131.428,1329.996 131.153,1329.903 130.86,1329.776 130.606,1329.629 130.338,1329.51 130.054,1329.353 129.806,1329.18 
								129.569,1328.977 129.349,1328.812 129.12,1328.582 128.919,1328.362 128.744,1328.151 128.462,1327.72 128.296,1327.297 
								128.251,1327.161 128.204,1326.931 128.261,1326.581 							"></polygon>
							<polygon fill="none" points="74.238,1328.001 75.123,1328.462 77.295,1333.581 77.342,1333.26 77.535,1333.416 
								77.551,1333.452 77.035,1334.097 77.003,1333.819 72.405,1334.147 72.606,1334.185 72.454,1334.431 72.431,1334.433 
								71.434,1333.855 71.43,1333.845 71.691,1333.728 69.734,1328.565 70.06,1328.241 							"></polygon>
							<polygon fill="none" points="61.651,1326.698 61.651,1326.698 69.347,1329.271 							"></polygon>
							<g>
								<polygon fill="none" points="77.458,1332.444 86.17,1335.354 77.458,1332.444 								"></polygon>
								<polygon fill="none" points="77.231,1331.907 87.266,1335.264 77.231,1331.907 								"></polygon>
								<polygon fill="none" points="128.381,1326.316 128.6,1326.114 128.929,1325.948 129.314,1325.894 129.523,1325.904 
									129.763,1325.922 129.991,1325.966 130.22,1326.014 130.494,1326.104 130.743,1326.187 131.008,1326.307 131.293,1326.463 
									131.528,1326.573 131.776,1326.747 131.997,1326.911 132.235,1327.114 132.482,1327.29 132.655,1327.501 132.866,1327.692 
									133.04,1327.903 133.361,1328.318 133.526,1328.74 133.609,1328.951 133.654,1329.089 133.627,1329.446 133.561,1329.729 
									133.36,1329.968 133.067,1330.114 132.673,1330.198 132.454,1330.218 132.225,1330.169 131.961,1330.142 131.676,1330.079 
									131.428,1329.996 131.153,1329.903 130.86,1329.776 130.606,1329.629 130.338,1329.51 130.054,1329.353 129.806,1329.18 
									129.569,1328.977 129.349,1328.812 129.12,1328.582 128.919,1328.362 128.744,1328.151 128.462,1327.72 128.296,1327.297 
									128.251,1327.161 128.204,1326.931 128.261,1326.581 								"></polygon>
								<polygon fill="none" points="74.238,1328.001 75.123,1328.462 77.295,1333.581 77.342,1333.26 77.535,1333.416 
									77.551,1333.452 77.035,1334.097 77.03,1334.104 72.454,1334.431 72.431,1334.433 71.434,1333.855 71.43,1333.845 
									71.691,1333.728 69.734,1328.565 70.06,1328.241 								"></polygon>
								<polygon fill="none" points="61.651,1326.698 61.651,1326.698 69.347,1329.271 								"></polygon>
								<polygon fill="#FFFFFF" points="77.231,1331.907 87.266,1335.264 86.179,1335.329 86.17,1335.354 77.458,1332.444 								
									"></polygon>
								<g>
									<polygon fill="none" points="128.381,1326.316 128.6,1326.114 128.929,1325.948 129.314,1325.894 129.523,1325.904 
										129.763,1325.922 129.991,1325.966 130.22,1326.014 130.494,1326.104 130.743,1326.187 131.008,1326.307 131.293,1326.463 
										131.528,1326.573 131.776,1326.747 131.997,1326.911 132.235,1327.114 132.482,1327.29 132.655,1327.501 132.866,1327.692 
										133.04,1327.903 133.361,1328.318 133.526,1328.74 133.609,1328.951 133.654,1329.089 133.627,1329.446 133.561,1329.729 
										133.36,1329.968 133.067,1330.114 132.673,1330.198 132.454,1330.218 132.225,1330.169 131.961,1330.142 131.676,1330.079 
										131.428,1329.996 131.153,1329.903 130.86,1329.776 130.606,1329.629 130.338,1329.51 130.054,1329.353 129.806,1329.18 
										129.569,1328.977 129.349,1328.812 129.12,1328.582 128.919,1328.362 128.744,1328.151 128.462,1327.72 128.296,1327.297 
										128.251,1327.161 128.204,1326.931 128.261,1326.581 									"></polygon>
									<polygon fill="none" points="74.238,1328.001 75.123,1328.462 77.224,1333.409 76.897,1333.827 72.405,1334.147 
										72.606,1334.185 72.454,1334.431 72.431,1334.433 71.434,1333.855 71.43,1333.845 71.691,1333.728 69.734,1328.565 
										70.06,1328.241 									"></polygon>
									<polygon fill="none" points="77.342,1333.26 77.535,1333.416 77.535,1333.416 									"></polygon>
									<polygon fill="none" points="61.651,1326.698 61.651,1326.698 69.347,1329.271 									"></polygon>
									<path fill="#FFFFFF" d="M46.682,1326.679l12.747-0.418l0.267,0.028l0.246,0.083l0.331,0.109l0.302,0.102l0.275,0.185
										l0.2,0.128l0.118,0.193l0.092,0.091l5.071,15.306l0.074,0.24l0.247-0.01l0.256-0.036l0.292,0.036l0.358,0.027l0.339-0.01
										l0.329,0.018l0.303-0.082l0.34-0.1l0.272-0.184l0.331-0.35l0.274-0.365l0.256-0.312l0.257-0.311l0.222-0.295l0.209-0.266
										l0.184-0.275l0.219-0.293l0.184-0.275l0.211-0.266l0.212-0.266l0.228-0.229l0.238-0.257l0.274-0.275l0.275-0.275
										l0.35-0.311l-0.188-0.234l0.278-0.226l0.309-0.202l0.36-0.156l0.329-0.164l0.356-0.156l0.402-0.109l0.414-0.138
										l0.402-0.109l0.384-0.056l0.422-0.074l0.449-0.063l0.42-0.073l0.438-0.037l0.442-0.035l0.411-0.045l0.403-0.02l7.071-0.512
										l-8.712-2.91l-0.227-0.537l0,0l10.034,3.356l46.874-3.506l0.869-0.138l0.65-0.302l0.449-0.432l0.165-0.494v-0.552
										l0.01-0.027l-0.157-0.633l-0.311-0.623l-0.45-0.67l-0.264-0.304l-0.294-0.312l-0.321-0.32l-0.337-0.268l-0.358-0.301
										l-0.402-0.26l-0.43-0.266l-0.43-0.266l-0.459-0.184l-0.451-0.213l-0.493-0.164l-0.52-0.175l-0.494-0.073l-0.515-0.111
										l-0.53-0.055l-0.523,0.008l-7.076,0.266l-41.57,1.424h-0.457l-0.43,0.01l-0.486-0.011l-0.466-0.063l-0.478-0.037
										l-0.477-0.039l-0.467-0.062l-0.495-0.074l-0.494-0.072l-0.483-0.102l-0.486-0.102l-0.485-0.101l-0.504-0.138l-0.477-0.129
										l-0.448-0.119l-0.467-0.155l-0.66-0.223l-0.648-0.246l-0.569-0.222l-0.564-0.219l-0.497-0.26l-0.477-0.219l-0.494-0.258
										l-0.451-0.211L67.508,1323l-0.385-0.222l-0.413-0.23l-0.385-0.221l-0.41-0.229l-0.386-0.221l-0.365-0.184l-0.386-0.22
										l-0.394-0.192l-0.403-0.166l-0.386-0.129l-0.438-0.146l-0.469-0.156l-0.447-0.119l-0.493-0.076l-0.522-0.08l-0.53-0.055
										l-0.599-0.047l-0.631-0.028l-0.65,0.028l-0.678,0.018l-0.759,0.082l-0.787,0.073l-0.861,0.11l-0.642,0.092l-0.631,0.154
										l-0.635,0.154l-0.585,0.203l-0.623,0.221l-0.594,0.229l-0.568,0.238l-0.578,0.266l-0.548,0.277l-0.56,0.301l8.895,2.975
										l-11.972,0.4L46.682,1326.679z M128.204,1326.931l0.057-0.35l0.12-0.265l0.219-0.202l0.329-0.166l0.385-0.055l0.21,0.011
										l0.239,0.018l0.229,0.044l0.229,0.048l0.274,0.091l0.249,0.082l0.265,0.12l0.285,0.156l0.235,0.11l0.248,0.174l0.221,0.164
										l0.238,0.203l0.247,0.176l0.173,0.211l0.211,0.191l0.174,0.211l0.321,0.415l0.165,0.422l0.083,0.211l0.045,0.138
										l-0.027,0.357l-0.066,0.283l-0.2,0.238l-0.293,0.146l-0.395,0.084l-0.219,0.02l-0.23-0.049l-0.264-0.027l-0.285-0.062
										l-0.248-0.083l-0.274-0.093l-0.293-0.127l-0.255-0.147l-0.268-0.119l-0.284-0.157l-0.248-0.173l-0.236-0.203l-0.221-0.165
										l-0.229-0.229l-0.201-0.22l-0.175-0.211l-0.282-0.432l-0.166-0.423l-0.045-0.136L128.204,1326.931z M77.535,1333.416
										L77.535,1333.416l-0.193-0.156L77.535,1333.416z M69.734,1328.565l0.325-0.324l4.179-0.24l0.885,0.461l2.101,4.947
										l-0.327,0.418l-4.491,0.32l0.201,0.037l-0.152,0.246l-0.023,0.002l-0.997-0.577l-0.004-0.011l0.262-0.117L69.734,1328.565z
										"></path>
								</g>
							</g>
						</g>
					</g>
				</g>
			</g>
			<polygon fill-rule="evenodd" clip-rule="evenodd" points="125.375,1330.112 125.117,1329.967 125.073,1329.736 125.439,1329.644 
				125.512,1329.884 125.292,1329.718 125.375,1330.112 125.375,1330.112 			"></polygon>
			<polygon fill-rule="evenodd" clip-rule="evenodd" points="125.87,1329.819 125.814,1329.893 125.721,1329.983 125.612,1330.039 
				125.504,1330.095 125.375,1330.112 125.292,1329.718 125.348,1329.736 125.432,1329.672 125.531,1329.644 125.539,1329.617 
				125.522,1329.672 125.86,1329.848 125.86,1329.848 125.87,1329.819 			"></polygon>
			<polygon fill-rule="evenodd" clip-rule="evenodd" points="124.834,1327.516 124.863,1327.524 125.036,1327.736 125.265,1327.966 
				125.485,1328.222 125.693,1328.507 125.868,1328.81 125.969,1329.149 125.972,1329.517 125.86,1329.848 125.522,1329.672 
				125.596,1329.452 125.577,1329.231 125.512,1328.966 125.348,1328.729 125.166,1328.452 124.964,1328.233 124.734,1328.001 
				124.56,1327.792 124.587,1327.802 124.834,1327.516 124.834,1327.516 			"></polygon>
			<polygon fill-rule="evenodd" clip-rule="evenodd" points="121.467,1326.542 121.438,1326.532 121.924,1326.542 122.38,1326.542 
				122.812,1326.626 123.225,1326.671 123.647,1326.781 124.037,1326.975 124.449,1327.204 124.834,1327.516 124.587,1327.802 
				124.212,1327.552 123.854,1327.341 123.517,1327.167 123.148,1327.075 122.748,1327.001 122.336,1326.956 121.914,1326.937 
				121.483,1326.945 121.494,1326.917 121.428,1326.561 121.428,1326.561 121.467,1326.542 			"></polygon>
			<polygon fill-rule="evenodd" clip-rule="evenodd" points="85.731,1328.419 85.888,1328.318 121.428,1326.561 121.494,1326.917 
				85.939,1328.702 86.097,1328.603 85.731,1328.419 85.731,1328.419 			"></polygon>
			<polygon fill-rule="evenodd" clip-rule="evenodd" points="84.887,1329.667 84.504,1329.538 84.531,1329.271 84.603,1329.053 
				84.715,1328.813 84.86,1328.647 85.054,1328.529 85.299,1328.429 85.574,1328.337 85.888,1328.318 85.939,1328.702 
				85.648,1328.758 85.382,1328.821 85.255,1328.839 85.127,1328.95 85.064,1329.053 84.96,1329.171 84.906,1329.335 
				84.916,1329.583 84.531,1329.454 84.887,1329.667 84.887,1329.667 			"></polygon>
			<g>
				<polygon fill="none" points="85.888,1328.329 85.939,1328.702 85.888,1328.329 				"></polygon>
				<g>
					<polygon fill="none" points="84.916,1329.583 84.96,1329.355 85.071,1329.115 85.162,1328.933 85.356,1328.813 
						85.584,1328.765 85.905,1328.722 85.939,1328.702 121.494,1326.917 122.086,1326.964 122.583,1326.945 123.05,1327.011 
						123.48,1327.094 123.874,1327.286 124.229,1327.497 124.56,1327.792 124.938,1328.222 125.265,1328.608 125.504,1328.993 
						125.623,1329.276 125.623,1329.462 125.539,1329.617 125.311,1329.755 124.882,1329.854 124.277,1329.928 87.744,1331.815 
						87.717,1331.804 87.204,1331.787 86.701,1331.648 86.252,1331.438 85.866,1331.218 85.548,1330.896 85.318,1330.575 
						85.117,1330.265 84.96,1329.996 84.934,1329.805 					"></polygon>
					<g>
						<path fill="none" d="M84.96,1329.355l-0.044,0.228l0.018,0.222l0.026,0.191l0.157,0.269l0.201,0.311l0.229,0.32l0.318,0.322
							l0.386,0.221l0.449,0.21l0.503,0.139l0.513,0.017l0.027,0.012l36.533-1.888l0.604-0.073l0.429-0.1l0.229-0.138l0.084-0.155
							v-0.186l-0.119-0.283l-0.239-0.385l-0.327-0.387l-0.378-0.43l-0.331-0.295l-0.354-0.211l-0.395-0.192l-0.43-0.083
							l-0.467-0.065l-0.497,0.019l-0.592-0.047l-35.555,1.785l-0.034,0.02l-0.321,0.043l-0.229,0.049l-0.193,0.119l-0.091,0.183
							L84.96,1329.355z M85.463,1329.125l35.555-1.784l0.018-0.056l0.477,0.036l0.456,0.001l0.432,0.083l0.412,0.045l0.422,0.111
							l0.393,0.191l0.383,0.223l0.412,0.319l0.155,0.175l0.138,0.138l0.129,0.165l0.111,0.129l0.154,0.174l0.12,0.193l0.099,0.156
							l0.104,0.156l0.007,0.062l-0.365,0.093l0.007,0.065l-0.091-0.186l-0.099-0.154l-0.139-0.137l-0.101-0.158l-0.108-0.127
							l-0.13-0.166l-0.135-0.139l-0.164-0.146l0.01-0.011l-0.324-0.245l-0.348-0.24l-0.348-0.146l-0.364-0.092l-0.403-0.074
							l-0.415-0.046l-0.447-0.028l-0.429,0.01l-35.543,1.758L85.463,1329.125z"></path>
						<g>
							<path fill="none" d="M84.96,1329.355l-0.044,0.228l0.018,0.222l0.026,0.191l0.157,0.269l0.201,0.311l0.229,0.32l0.318,0.322
								l0.386,0.221l0.449,0.21l0.503,0.139l0.513,0.017l0.027,0.012l36.533-1.888l0.604-0.073l0.429-0.1l0.229-0.138l0.084-0.155
								v-0.186l-0.119-0.283l-0.239-0.385l-0.327-0.387l-0.378-0.43l-0.331-0.295l-0.354-0.211l-0.395-0.192l-0.43-0.083
								l-0.467-0.065l-0.497,0.019l-0.592-0.047l-35.555,1.785l-0.034,0.02l-0.321,0.043l-0.229,0.049l-0.193,0.119l-0.091,0.183
								L84.96,1329.355z"></path>
							<g>
								<polygon fill="none" points="85.071,1329.115 85.162,1328.933 85.356,1328.813 85.584,1328.765 85.794,1328.737 
									85.502,1329.291 121.052,1327.505 121.512,1327.506 121.933,1327.524 122.363,1327.606 122.775,1327.653 123.168,1327.753 
									123.544,1327.909 123.92,1328.158 124.287,1328.433 124.412,1328.599 124.551,1328.735 124.68,1328.901 124.817,1329.04 
									124.916,1329.194 125.046,1329.36 125.148,1329.517 125.265,1329.708 125.28,1329.763 124.882,1329.854 124.277,1329.928 
									87.744,1331.815 87.717,1331.804 87.204,1331.787 86.701,1331.648 86.252,1331.438 85.866,1331.218 85.548,1330.896 
									85.318,1330.575 85.117,1330.265 84.96,1329.996 84.934,1329.805 84.916,1329.583 84.96,1329.355 								"></polygon>
								<polygon points="125.148,1329.517 125.046,1329.36 124.916,1329.194 124.817,1329.04 124.68,1328.901 124.551,1328.735 
									124.412,1328.599 124.287,1328.433 123.92,1328.158 123.544,1327.909 123.168,1327.753 122.775,1327.653 122.363,1327.606 
									121.933,1327.524 121.512,1327.506 121.052,1327.505 85.502,1329.291 85.794,1328.737 85.905,1328.722 85.939,1328.702 
									121.494,1326.917 122.086,1326.964 122.583,1326.945 123.05,1327.011 123.48,1327.094 123.874,1327.286 124.229,1327.497 
									124.56,1327.792 124.938,1328.222 125.265,1328.608 125.504,1328.993 125.623,1329.276 125.623,1329.462 125.539,1329.617 
									125.311,1329.755 125.28,1329.763 125.265,1329.708 								"></polygon>
								<g>
									<polygon fill="none" points="84.978,1329.317 85.008,1329.31 85.189,1329.31 85.502,1329.291 85.799,1328.735 
										85.905,1328.722 85.939,1328.702 121.494,1326.917 122.086,1326.964 122.583,1326.945 123.05,1327.011 123.48,1327.094 
										123.874,1327.286 124.229,1327.497 124.56,1327.792 124.938,1328.222 125.265,1328.608 125.504,1328.993 125.623,1329.276 
										125.623,1329.462 125.539,1329.617 125.311,1329.755 125.28,1329.763 124.882,1329.854 124.277,1329.928 87.744,1331.815 
										87.717,1331.804 87.204,1331.787 86.701,1331.648 86.252,1331.438 85.866,1331.218 85.548,1330.896 85.318,1330.575 
										85.117,1330.265 84.96,1329.996 84.934,1329.805 84.916,1329.583 84.96,1329.355 									"></polygon>
									<path d="M84.504,1329.538l0.036,0.349l0.073,0.239l0.102,0.338l0.236,0.385l0.293,0.312l0.374,0.34l0.451,0.303l0.502,0.23
										l0.531,0.146l0.642,0.001l36.522-1.856l0.693-0.073l0.496-0.111l0.358-0.247l0.2-0.33l-0.007-0.339l-0.14-0.414
										l-0.263-0.395l-0.368-0.46l-0.374-0.431l-0.403-0.35l-0.431-0.264l-0.419-0.202l-0.462-0.093l-0.547-0.092h-0.551
										l-0.623,0.036l-35.54,1.758v0.011l-0.378,0.017l-0.383,0.146l-0.257,0.221l-0.175,0.249l-0.12,0.265L84.504,1329.538z
										 M84.916,1329.583l0.044-0.228l0.018-0.038l0.03-0.008h0.181l0.313-0.019l0.297-0.556l0.106-0.014l0.034-0.02l35.555-1.785
										l0.592,0.047l0.497-0.019l0.467,0.065l0.43,0.083l0.395,0.192l0.354,0.211l0.331,0.295l0.378,0.43l0.327,0.387l0.239,0.385
										l0.119,0.283v0.186l-0.084,0.155l-0.229,0.138l-0.03,0.008l-0.398,0.092l-0.604,0.073l-36.533,1.888l-0.027-0.012
										l-0.513-0.017l-0.503-0.139l-0.449-0.21l-0.386-0.221l-0.318-0.322l-0.229-0.32l-0.201-0.311l-0.157-0.269l-0.026-0.191
										L84.916,1329.583z"></path>
								</g>
							</g>
						</g>
					</g>
				</g>
			</g>
		</g>
	</g>
</g>
</svg>