<svg version="1.1" id="Layer_1" xmlns="http://www.w3.org/2000/svg" xmlns:xlink="http://www.w3.org/1999/xlink" x="0px" y="0px" viewBox="0 0 3450 3450" enable-background="new 0 0 828 828" xml:space="preserve" width="3450" height="3450"><g transform="translate(-2.2737367544323206e-13, -2.2737367544323206e-13) scale(4.307116104868914)">
<path d="M0,828V0h828v828H0z M814.5,13.5h-801v801h801V13.5z"/>
<rect x="13.5" y="13.5" fill="none" stroke="#FF0000" stroke-miterlimit="10" width="801" height="801"/>
<g>
	<g>
		<polyline fill="none" stroke="#00ADEE" stroke-miterlimit="10" points="28.5,805.5 22.5,805.5 22.5,799.5   "/>
		
			<line fill="none" stroke="#00ADEE" stroke-miterlimit="10" stroke-dasharray="11.8615,11.8615" x1="22.5" y1="787.638" x2="22.5" y2="34.431"/>
		<polyline fill="none" stroke="#00ADEE" stroke-miterlimit="10" points="22.5,28.5 22.5,22.5 28.5,22.5   "/>
		
			<line fill="none" stroke="#00ADEE" stroke-miterlimit="10" stroke-dasharray="11.8615,11.8615" x1="40.361" y1="22.5" x2="793.569" y2="22.5"/>
		<polyline fill="none" stroke="#00ADEE" stroke-miterlimit="10" points="799.5,22.5 805.5,22.5 805.5,28.5   "/>
		
			<line fill="none" stroke="#00ADEE" stroke-miterlimit="10" stroke-dasharray="11.8615,11.8615" x1="805.5" y1="40.362" x2="805.5" y2="793.569"/>
		<polyline fill="none" stroke="#00ADEE" stroke-miterlimit="10" points="805.5,799.5 805.5,805.5 799.5,805.5   "/>
		
			<line fill="none" stroke="#00ADEE" stroke-miterlimit="10" stroke-dasharray="11.8615,11.8615" x1="787.638" y1="805.5" x2="34.431" y2="805.5"/>
	</g>
</g>
<line fill="none" stroke="#929497" stroke-width="1.5906" x1="670.901" y1="322.293" x2="823.5" y2="322.293"/>

<line fill="none" stroke="#00ADEE" stroke-width="1.5906" stroke-miterlimit="10" stroke-dasharray="19.0873" x1="681.616" y1="142.295" x2="805.5" y2="142.295"/>
<g>
	<path fill="#EC1E28" d="M681.616,128.424c0,0.816-0.367,1.614-1.109,2.389l-0.115,0.116l-6.465,6.826   c-1.373,1.446-2.544,2.565-3.514,3.356c-0.963,0.789-1.646,1.184-2.044,1.184c-0.42,0-0.936-0.197-1.557-0.59   c-0.621-0.396-1.025-0.804-1.205-1.225c-0.155-0.348-0.299-1.09-0.432-2.223c-0.137-1.133-0.209-2.357-0.209-3.68   c0-0.72,0.302-1.387,0.904-1.997c0.6-0.611,1.262-0.918,1.985-0.918c0.692,0,1.102,0.633,1.236,1.895   c0.013,0.148,0.024,0.258,0.028,0.327c0.114,0.974,0.242,1.649,0.388,2.034c0.149,0.387,0.345,0.576,0.597,0.576   c0.102,0,0.302-0.111,0.587-0.34c0.283-0.227,0.628-0.536,1.023-0.929l6.648-6.597c0.559-0.557,1.056-0.979,1.497-1.267   c0.438-0.288,0.814-0.431,1.118-0.431c0.233,0,0.395,0.088,0.491,0.263c0.1,0.175,0.146,0.468,0.146,0.882V128.424z"/>
</g>
<g>
	<path fill="#EC1E28" d="M686.776,244.951c0,0.816-0.37,1.613-1.106,2.391l-0.118,0.114l-6.468,6.826   c-1.373,1.448-2.541,2.567-3.508,3.357c-0.969,0.791-1.649,1.184-2.044,1.184c-0.419,0-0.941-0.195-1.562-0.594   c-0.621-0.393-1.022-0.801-1.202-1.219c-0.155-0.35-0.302-1.092-0.435-2.223c-0.137-1.133-0.205-2.359-0.205-3.683   c0-0.718,0.299-1.384,0.901-1.997c0.597-0.611,1.262-0.915,1.988-0.915c0.69,0,1.1,0.63,1.236,1.896   c0.013,0.146,0.021,0.257,0.031,0.325c0.108,0.971,0.239,1.648,0.385,2.033c0.149,0.385,0.345,0.577,0.597,0.577   c0.105,0,0.305-0.114,0.587-0.339c0.286-0.23,0.625-0.539,1.025-0.93l6.646-6.596c0.556-0.559,1.06-0.982,1.497-1.27   c0.438-0.285,0.812-0.431,1.115-0.431c0.233,0,0.394,0.089,0.494,0.266c0.1,0.173,0.147,0.466,0.147,0.878V244.951z"/>
</g>
<g>
	<path fill="#EC1E28" d="M670.901,305.398c0,0.82-0.367,1.616-1.106,2.393l-0.115,0.118l-6.471,6.822   c-1.37,1.448-2.541,2.567-3.508,3.358c-0.969,0.787-1.649,1.184-2.047,1.184c-0.423,0-0.938-0.198-1.56-0.59   c-0.621-0.395-1.02-0.805-1.202-1.224c-0.155-0.35-0.299-1.091-0.435-2.225c-0.133-1.131-0.201-2.355-0.201-3.68   c0-0.717,0.301-1.384,0.897-1.996c0.6-0.613,1.261-0.916,1.988-0.916c0.692,0,1.105,0.632,1.233,1.898   c0.019,0.146,0.024,0.253,0.034,0.322c0.108,0.973,0.242,1.651,0.388,2.033c0.144,0.385,0.342,0.578,0.594,0.578   c0.105,0,0.299-0.109,0.587-0.34c0.286-0.225,0.625-0.537,1.025-0.926l6.646-6.6c0.556-0.561,1.056-0.979,1.497-1.27   c0.438-0.285,0.811-0.431,1.118-0.431c0.231,0,0.392,0.091,0.491,0.265c0.1,0.176,0.147,0.471,0.147,0.882V305.398z"/>
</g>
<g>
	<path fill="#EC1E28" d="M645.461,438.531c0,0.816-0.367,1.611-1.109,2.389l-0.115,0.111l-6.468,6.832   c-1.373,1.443-2.545,2.562-3.511,3.355c-0.963,0.789-1.646,1.18-2.047,1.18c-0.417,0-0.938-0.193-1.56-0.588   c-0.618-0.396-1.02-0.805-1.199-1.223c-0.155-0.348-0.299-1.088-0.439-2.223c-0.134-1.137-0.205-2.359-0.205-3.68   c0-0.721,0.302-1.387,0.901-1.998c0.602-0.609,1.265-0.92,1.991-0.92c0.687,0,1.1,0.633,1.233,1.898   c0.013,0.148,0.024,0.254,0.031,0.326c0.111,0.973,0.242,1.648,0.388,2.031c0.146,0.389,0.345,0.578,0.597,0.578   c0.103,0,0.302-0.115,0.587-0.338c0.283-0.23,0.628-0.541,1.022-0.926l6.646-6.6c0.559-0.562,1.059-0.983,1.5-1.27   c0.439-0.287,0.811-0.43,1.118-0.43c0.23,0,0.394,0.088,0.491,0.264c0.097,0.172,0.146,0.469,0.146,0.879V438.531z"/>
</g>
<line fill="none" stroke="#EC1E28" stroke-width="1.5906" x1="683.421" y1="261.77" x2="814.5" y2="261.77"/>
<g>
	<rect x="31.5" y="658.652" fill="#D0D2D3" width="159.543" height="137.848"/>
	
	<g>
		<path fill-rule="evenodd" clip-rule="evenodd" d="M153.836,714.457c0,28.113-22.744,50.906-50.801,50.906    c-28.059,0-50.804-22.793-50.804-50.906c0-28.117,22.745-50.91,50.804-50.91C131.092,663.547,153.836,686.34,153.836,714.457z"/>
		<path fill-rule="evenodd" clip-rule="evenodd" fill="#B7D333" d="M149.252,714.738c0,25.559-20.675,46.281-46.183,46.281    c-25.507,0-46.185-20.723-46.185-46.281c0-25.562,20.678-46.281,46.185-46.281C128.577,668.457,149.252,689.176,149.252,714.738z"/>
		<g>
			<path d="M93.182,704.644c-0.643,5.674-1.119,10.229-1.434,13.668l-2.108,0.094c0.031-0.115,0.046-0.244,0.05-0.387     c0.004-0.258-0.091-0.598-0.284-1.018c-0.193-0.418-0.304-0.688-0.331-0.801c-0.544,0.076-1.067,0.457-1.564,1.135     c-0.499,0.68-0.95,1.02-1.349,1.014c-0.23-0.006-0.486-0.07-0.771-0.188c-0.375,0.252-0.864,0.357-1.465,0.32     c-0.543-0.096-1.072-0.178-1.587-0.244c-0.016-0.717-0.722-1.346-2.116-1.887c0.006-0.287-0.137-0.713-0.429-1.275     c-0.291-0.568-0.435-0.963-0.433-1.193c0.004-0.26,0.111-0.471,0.314-0.641c-0.029-0.086-0.264-0.619-0.705-1.605     c-0.302-0.721-0.449-1.342-0.44-1.857c0.006-0.4,0.099-0.775,0.276-1.115c-0.245-2.445-0.354-4.541-0.322-6.291     c0.044-2.697,0.429-5.174,1.156-7.43c-0.052-0.346-0.075-0.688-0.069-1.033c0.031-1.809,0.655-3.059,1.866-3.758l0.012-0.559     c1.2-1.531,2.78-2.637,4.738-3.322c1.17,0.279,2.341,0.545,3.51,0.793c1.31,0.451,2.215,1.229,2.71,2.328     c0.396,0.236,0.591,0.713,0.577,1.43c-0.012,0.805,0.077,1.322,0.275,1.557l-0.219,0.254c0.228,1.697,0.34,2.732,0.335,3.105     c-0.021,1.088-0.306,1.861-0.855,2.309c-0.202-0.002-0.729-0.184-1.582-0.543c-0.203,0.197-0.421,0.295-0.648,0.291     c-0.116-0.002-0.322-0.062-0.621-0.184c-0.299-0.119-0.55-0.182-0.75-0.184c-0.144-0.004-0.286,0.023-0.43,0.076     c-0.018-2.264,0.053-3.959,0.213-5.074c-0.224-0.148-0.455-0.484-0.688-1.004c-0.237-0.52-0.54-0.812-0.91-0.873     c-0.232,0.281-0.337,0.465-0.31,0.553l-0.769-0.271c-0.701,0.764-1.167,2.09-1.399,3.979c-0.238,2.178-0.534,3.623-0.889,4.332     c0.308,0.324,0.459,0.772,0.449,1.344c-0.004,0.201-0.039,0.533-0.103,0.988c-0.066,0.461-0.101,0.803-0.103,1.033     c-0.007,0.258,0.018,0.488,0.073,0.691l-0.524,0.506c0.213,0.981,0.335,2.217,0.367,3.709c-0.021,1.264-0.03,2.525-0.021,3.789     c-0.03,0-0.272,0.01-0.731,0.029c-0.286-0.006-0.489,0.094-0.607,0.291c0.174-0.025,0.331-0.037,0.473-0.035     c0.631,0.01,1.126,0.457,1.482,1.338c0.356,0.883,0.664,1.326,0.923,1.332c0.285,0.004,0.678-0.262,1.176-0.801     c0.842-0.904,1.281-2.145,1.309-3.721c0.012-0.777-0.073-1.609-0.26-2.502c-0.203,0.111-0.308,0.396-0.315,0.853     c-0.459-0.008-0.747,0.09-0.865,0.287c-0.198-0.06-0.282-0.219-0.25-0.478c0.035-0.371,0.052-0.572,0.055-0.6     c0.346-0.109,0.52-0.266,0.522-0.467c0.002-0.084-0.061-0.244-0.184-0.477c-0.126-0.23-0.187-0.418-0.185-0.562     c0.002-0.115,0.031-0.229,0.091-0.344l0.202-1.674c0.627,0.184,1.983,0.262,4.076,0.24c-0.061,0.144,0.023,0.334,0.25,0.564     c0.202-0.197,0.418-0.295,0.646-0.291c0.172,0.006,0.43,0.08,0.771,0.229C92.795,704.568,93.036,704.644,93.182,704.644z"/>
			<path d="M109.214,719.471c-0.399-0.18-0.828-0.271-1.286-0.279c-0.4-0.008-0.948,0.068-1.638,0.23     c-0.774,0.158-1.306,0.25-1.593,0.275c-0.306-0.609-0.518-1.447-0.645-2.51c-0.233-1.553-0.375-2.432-0.428-2.633     c0.087-0.172,0.134-0.315,0.136-0.43c0.006-0.315-0.242-0.598-0.737-0.852c-0.5-0.252-0.743-0.449-0.741-0.594     c0.001-0.172,0.292-0.426,0.872-0.762c-0.141-0.174-0.245-0.527-0.306-1.057c-0.062-0.531-0.193-0.889-0.389-1.064     c-0.351,0.311-0.918,0.51-1.707,0.598c-0.79,0.088-1.315,0.215-1.574,0.381c0.018,2.238-0.35,3.74-1.109,4.502     c-0.398-0.094-0.702,0.061-0.909,0.459c-0.297,0.482-0.545,0.766-0.745,0.848l0.251,0.307c-0.232,0.193-0.605,0.275-1.119,0.238     c-0.801-0.045-1.231-0.062-1.289-0.065l-0.241-0.779l2.797-23.246c0.025-1.461,0.098-2.451,0.223-2.965     c-0.037-1.293,0.263-2.092,0.897-2.397c0.397,0.264,0.898,0.404,1.498,0.412c0.487,0.008,1.249-0.092,2.283-0.305     c1.035-0.213,1.753-0.314,2.154-0.309c1.401,0.023,2.013,1.039,1.837,3.047c-0.141,1.604,0.108,3.719,0.751,6.342     c0.67,2.824,0.991,4.938,0.968,6.344c-0.006,0.432,0.133,1.322,0.099,1.754c-0.608,0.332-1.384,0.535-2.329,0.604     c-0.832,0.045-1.678,0.088-2.537,0.131c-0.221-2.184-0.605-4.818-0.828-6.977c-0.27-2.586-0.606-4.715-1.008-6.387l-1.325,12.291     c-0.104,1.059,0.376,1.598,1.435,1.617c0.342,0.006,0.672-0.076,0.991-0.242c0.259-0.082,0.615,0.111,1.064,0.578     c-0.016,0.891,0.16,1.424,0.532,1.602c0.463-0.309,1.069-0.598,1.817-0.873c0.663-0.246,1.312-0.478,1.946-0.699     c0.361,0.494,0.596,1.23,0.694,2.209c0.118,1.379,0.205,2.184,0.26,2.414c0.047,0.547,0.269,1.727,0.668,3.543     c0.292,1.44,0.43,2.606,0.416,3.494C109.312,718.697,109.275,719.098,109.214,719.471z"/>
			<path d="M128.995,698.971c-0.033,0.084-0.039,0.586-0.027,1.504c-0.012,0.748-0.108,1.307-0.284,1.678     c-0.212,0.57-0.325,1.385-0.344,2.445c-0.005,0.231,0.003,0.59,0.025,1.078c-0.01,0.488-0.013,0.846-0.019,1.074     c-0.032,1.81-0.339,3.121-0.928,3.945c0.05,0.463,0.071,0.922,0.063,1.379c-0.022,1.435-0.515,3.365-1.473,5.787     c-0.259,0.082-0.474,0.121-0.647,0.119c-0.345-0.006-0.59-0.205-0.741-0.594c-0.153-0.391-0.296-0.758-0.432-1.106     c0.093-2.207,0.048-5.424-0.14-9.646l0.264-0.254c-0.189-0.75-0.274-1.584-0.26-2.5c0.012-0.66,0.093-1.621,0.244-2.881     c0.149-1.26,0.23-2.205,0.24-2.838c0.01-0.402-0.002-0.791-0.021-1.162c-0.985,2.365-1.687,6.371-2.095,12.019l-0.36,0.852     c-0.117,0.287-0.363,0.441-0.737,0.463c-0.109-0.201-0.225-0.305-0.339-0.307c-0.085-0.002-0.238,0.104-0.454,0.316     c-0.22,0.209-0.4,0.301-0.543,0.268l-0.569,0.508c0.255,0.322,0.797,0.357,1.633,0.115c0.66-0.189,1,0.059,1.017,0.75     c0.018,0.572-0.137,1.346-0.468,2.316c-0.333,0.969-0.502,1.697-0.51,2.186c-0.005,0.344,0.031,0.691,0.111,1.035l-2.974,0.467     c-0.277-0.58-0.48-1.549-0.615-2.916c-0.134-1.367-0.339-2.34-0.616-2.918c0.175-0.195,0.264-0.41,0.267-0.639     c0.004-0.201-0.075-0.506-0.241-0.91c-0.165-0.404-0.262-0.707-0.287-0.908c-0.022-0.316-0.124-1.08-0.304-2.289     c-0.127-0.975-0.186-1.74-0.177-2.283c0.005-0.287,0.025-0.545,0.06-0.773c0.001-0.201-0.111-0.496-0.332-0.889     c-0.221-0.393-0.331-0.674-0.326-0.846c0.002-0.145,0.06-0.271,0.178-0.383c-0.198-0.234-0.276-0.637-0.238-1.213     c0.039-0.572-0.043-0.975-0.236-1.207c-0.422,1.111-0.646,2.613-0.68,4.51c-0.015,2.639-0.043,4.16-0.077,4.56l0.296,0.264     l-0.304,0.252c0.211,1.039,0.304,2.361,0.276,3.965c-0.077,2.898-0.116,4.248-0.111,4.047c-0.409,0.367-0.97,0.543-1.685,0.531     c-0.887-0.016-1.493,0.062-1.808,0.227c-0.364-0.637-0.536-1.457-0.518-2.461c0.012-0.775,0.144-1.719,0.392-2.836     c-0.39-0.725-0.573-1.732-0.55-3.023c0.006-0.315,0.042-0.918,0.114-1.805c0.042-0.717,0.052-1.248,0.029-1.594     c0.288-0.139,0.434-0.293,0.438-0.465c0.001-0.115-0.088-0.311-0.271-0.586c-0.18-0.275-0.271-0.486-0.269-0.629     c0.003-0.172,0.121-0.342,0.353-0.512l-0.925-13.924c0.549-0.361,1.442-0.533,2.673-0.512c1.346,0.053,2.263-0.02,2.755-0.211     c0.087-0.057,0.186-0.084,0.302-0.082c0.114,0.002,0.248,0.068,0.404,0.201c0.156,0.131,0.262,0.197,0.317,0.199     c0.114,0.002,0.217-0.082,0.307-0.254l0.801,0.789c0.27,1.01,0.522,2.967,0.762,5.867c0.243,2.502,0.624,4.389,1.151,5.66     c0.7-2.541,1.279-4.67,1.74-6.385l0.931-6.812l6.661-0.145c0.022,0.373,0.104,2.367,0.286,3.52     c0.153,1.006,0.227,1.824,0.213,2.455c-0.01,0.719-0.121,1.363-0.333,1.932c0.226,0.322,0.332,0.725,0.323,1.211     C129.349,698.258,129.229,698.656,128.995,698.971z"/>
			<path d="M142.657,714.055l0.002-0.041c-0.179,0.369-0.286,0.799-0.323,1.285c-0.033,0.312-0.042,0.76-0.023,1.332     c0.018,0.662,0.025,1.123,0.021,1.379c-0.23-0.002-1.145-0.02-2.748-0.045c-0.974-0.018-1.85,0.068-2.628,0.256l-0.799-0.875     c-0.236,0.225-0.323,0.41-0.27,0.557c-0.141-0.033-0.801-0.043-1.975-0.037c-0.918-0.014-1.602-0.111-2.056-0.293     c-0.468,0.482-1.015,0.473-1.636-0.025c-0.227-0.176-0.247-0.473-0.069-0.885c0.178-0.414,0.126-0.723-0.157-0.928     c0.043-0.918,0.171-2.336,0.374-4.256c0.201-1.719,0.31-3.066,0.325-4.043c0.023-1.318-0.07-2.582-0.276-3.791     c0.32-0.31,0.677-0.463,1.079-0.455c0.459,0.006,0.999,0.232,1.621,0.672c0.876,0.617,1.332,0.926,1.36,0.926l0.252,0.307     c0.029-0.084,0.182-0.541,0.453-1.371c0.153-0.541,0.373-0.896,0.664-1.064l0.253,0.264c0.114-0.055,0.492-0.32,1.131-0.799     c0.489-0.336,0.892-1.131,1.177-1.127c0.318,0.004,0.614,0.182,0.895,0.533c0.481,0.266,0.785,1.297,0.936,1.828     c0.146,0.533,0.29,1.06,0.425,1.58c-1.291,0.037-2.35,0.002-3.178-0.098c-0.208,0.312-0.494,0.357-0.861,0.137     c-0.369-0.223-0.642-0.189-0.817,0.094c-0.01,0.518-0.027,1.449-0.048,2.797c-0.051,1.205-0.066,2.152-0.049,2.842     c0.01,1.06,0.081,2.039,0.209,2.932c0.227,0.002,1.316,0.021,3.262,0.055C140.53,713.719,141.688,713.836,142.657,714.055z      M142.748,693.434c-0.257,0.025-0.542,0.035-0.857,0.029c-0.658-0.012-1.531-0.113-2.615-0.303     c-1.345-0.195-2.16-0.309-2.444-0.342c-0.411,0.592-0.626,1.438-0.646,2.527c-0.038,2.354-0.04,3.371-0.007,3.059     c0.395,0.234,0.59,0.668,0.578,1.299c-0.042,0.861-0.05,1.307-0.023,1.334c-0.201,0.084-0.305,0.369-0.313,0.857     c-0.315-0.121-0.639-0.355-0.975-0.705c-0.451-0.439-0.691,1.047-0.658,0.676l-0.271,0.883l-0.254-0.262     c-0.231,0.023-0.623-0.098-1.175-0.365c-0.555-0.266-0.944-0.516-1.169-0.752c0.008-0.459,0.085-0.717,0.229-0.771l-0.549-0.611     l-0.265,0.383c-0.321-2.988-0.239-8.58,0.155-11.732c1.086,0.189,2.286,0.312,3.605,0.363c0.887,0.041,2.131,0.062,3.735,0.062     c1.833,0.004,3.151,0.01,3.953,0.023c0.337,0.324,0.504,0.742,0.493,1.258c-0.004,0.318-0.093,0.822-0.263,1.523     C142.844,692.568,142.756,693.09,142.748,693.434z"/>
		</g>
		<g>
			<path d="M94.473,740.082v-0.019c0,0.014-0.075,0.646-0.222,1.898c-0.076,0.768-0.26,1.373-0.557,1.812l-0.186-0.15     c-0.349,0.731-0.82,1.174-1.421,1.332c-0.288,0.303-0.702,0.469-1.242,0.502c-0.321,0.02-1.062-0.076-2.227-0.281     c-0.562-0.348-0.869-0.543-0.923-0.58c-0.352-0.268-0.523-0.537-0.504-0.811c-0.343-0.35-0.822-0.973-1.002-1.754     c-0.219-0.861-0.354-0.91-0.557-1.213c-0.325,0.238-0.44-0.269-0.629-0.574l0.171-0.133c-0.104-0.074-0.161-0.16-0.167-0.256     c-0.004-0.068,0.024-0.168,0.085-0.303c0.059-0.133,0.088-0.234,0.084-0.301c-0.007-0.107-0.072-0.201-0.193-0.275     c0.13-0.678,0.249-1.693,0.355-3.051c0.23-0.125,0.339-0.363,0.329-0.719c-0.014-0.352,0.035-0.588,0.147-0.703     c0.546-1.098,1.435-1.838,2.665-2.223c0.068,0.008,0.399,0.004,0.989-0.018c0.407-0.01,0.715,0.025,0.922,0.109     c0.368-0.062,0.739,0.025,1.107,0.264c0.318,0.242,0.639,0.482,0.956,0.723c0.596,0.648,0.92,1.381,0.966,2.199     c0.018,0.27-0.003,0.559-0.051,0.861c-0.441-0.016-0.757,0.277-0.94,0.875l-1.717,0.16c-0.184-0.26-0.29-0.611-0.315-1.047     c-0.01-0.15-0.009-0.369,0-0.656c0.007-0.287,0.009-0.504,0-0.654c-0.025-0.449-0.132-0.805-0.315-1.066l-0.518,0.295     c-0.206-0.084-0.315-0.207-0.325-0.369c-0.003-0.055,0.004-0.133,0.025-0.238c0.02-0.104,0.027-0.176,0.023-0.217     c-0.01-0.176-0.168-0.283-0.475-0.32c-0.211,1.938-0.272,3.93-0.188,5.971c0.055,0.066,0.219,0.111,0.49,0.137     c0.222,0.027,0.335,0.098,0.342,0.207c0.003,0.041-0.009,0.094-0.042,0.164l-0.169,0.133c0.093,0.145,0.147,0.348,0.163,0.605     c0.006,0.135,0.002,0.346-0.016,0.625c-0.02,0.281-0.023,0.49-0.016,0.625c0.025,0.408,0.126,0.719,0.31,0.926     c-0.018,0.301,0.104,0.506,0.364,0.613c0.167-0.065,0.315-0.1,0.451-0.107c0.522-0.029,0.888,0.254,1.091,0.859     c0,0.014-0.001,0.115-0.007,0.307c0.006,0.109,0.06,0.182,0.164,0.215c0.229-0.135,0.343-0.383,0.34-0.736     c-0.007-0.41,0.046-0.672,0.155-0.787c-0.026-0.19-0.14-0.463-0.338-0.82c-0.199-0.355-0.304-0.639-0.317-0.842     c-0.012-0.219,0.053-0.426,0.193-0.625c-0.12-0.035-0.176-0.113-0.166-0.236c0.007-0.191,0.007-0.293,0.007-0.309     C92.562,739.873,93.511,739.867,94.473,740.082z"/>
			<path d="M102.245,741.682h-0.021c-0.099,0.197-0.13,0.481-0.095,0.844c0.047,0.52,0.071,0.785,0.071,0.797     c-0.077,0.029-0.184-0.01-0.313-0.115c-0.201,0.076-0.297,0.203-0.284,0.379c0,0.025,0.012,0.07,0.028,0.133     c0.004,0.072,0.009,0.125,0.01,0.152c0.008,0.137-0.033,0.242-0.124,0.31c-0.228-0.127-0.528-0.207-0.898-0.242     c-0.373-0.037-0.727-0.068-1.059-0.102c-0.006-1.725-0.237-3.416-0.694-5.065c0,0.012-0.01-0.158-0.031-0.514     c0.002-0.254-0.056-0.434-0.172-0.541l-0.157,0.141c-0.002-0.025,0.051-0.076,0.157-0.15c0.104-0.076,0.156-0.152,0.153-0.229     c-0.005-0.037-0.015-0.074-0.032-0.111l-0.173-0.125c-0.293,0.094-0.429,0.33-0.407,0.709c0.016,0.254-0.087,0.432-0.298,0.533     c0.081,0.057,0.123,0.133,0.13,0.221c0.004,0.051-0.004,0.121-0.024,0.211c-0.019,0.09-0.026,0.16-0.024,0.211     c0.008,0.113,0.069,0.205,0.182,0.275c0.006,0.076,0.045,0.758,0.118,2.051c0.051,0.824,0.027,1.523-0.063,2.098l0.018,0.324     c-0.113-0.006-0.239-0.006-0.378,0.002c-0.158,0.012-0.386,0.033-0.684,0.068c-0.296,0.037-0.515,0.061-0.656,0.068     c-0.58,0.031-0.987-0.064-1.223-0.293l-0.244-7.09c-0.114-0.348-0.19-0.832-0.227-1.455l-0.077-1.365     c-0.057-0.67-0.142-1.188-0.258-1.547c0.049-0.246,0.263-0.379,0.64-0.4c0.233-0.014,0.551,0.02,0.95,0.098     c0.184-0.088,0.44-0.141,0.771-0.16c0.093-0.006,0.242-0.008,0.447-0.006c0.221-0.014,0.377-0.021,0.471-0.029     c0.611-0.035,1.019-0.223,1.22-0.564c0.284-0.004,0.592,0.084,0.926,0.269c0.332,0.184,0.627,0.281,0.877,0.291     c0.669,0.395,1.028,1.045,1.083,1.957c0.012,0.203-0.067,1.006-0.236,2.414l-1.147,1c0.193,0.359,0.43,1.137,0.702,2.34     C101.43,740.479,101.776,741.213,102.245,741.682z M100.127,733.613l0.023,0.018c0.021,0.086,0.01-0.225-0.031-0.934     c-0.021-0.34-0.145-0.586-0.373-0.74c-0.132,0.188,0.016,0.273-0.045,0.703c-0.062,0.428-0.313,0.309-0.463,0.494     c-0.394-0.002-0.483,0.236-0.566-0.139c-0.178-0.613-0.33-0.559-0.331-0.57l-0.169,0.1c-0.059,0.055-0.127,0.117-0.201,0.184     c-0.076,0.068-0.15,0.092-0.231,0.07c0.005,0.076-0.032,0.195-0.109,0.359c-0.078,0.164-0.114,0.277-0.109,0.34     c0.007,0.113,0.096,0.195,0.271,0.25c-0.03,0.256-0.038,0.523-0.022,0.803c0.01,0.15,0.045,0.498,0.108,1.041     c0.071,0.428,0.101,0.793,0.085,1.1c0.144,0.006,0.277,0.006,0.403-0.004c0.552-0.031,0.907-0.25,1.071-0.652     c0.057-0.117,0.121-0.541,0.188-1.269C99.688,734.217,99.854,733.832,100.127,733.613z"/>
			<path d="M111.165,744.434c-0.225-0.062-0.463-0.086-0.715-0.07c-0.218,0.012-0.515,0.066-0.887,0.164     c-0.422,0.1-0.708,0.16-0.865,0.184c-0.188-0.256-0.334-0.615-0.44-1.078c-0.182-0.676-0.292-1.057-0.327-1.145     c0.045-0.078,0.062-0.143,0.061-0.195c-0.01-0.137-0.155-0.252-0.435-0.344c-0.282-0.092-0.424-0.17-0.427-0.234     c-0.004-0.074,0.145-0.197,0.452-0.367c-0.084-0.072-0.15-0.223-0.203-0.455c-0.054-0.232-0.137-0.383-0.251-0.453     c-0.18,0.15-0.484,0.262-0.916,0.33c-0.428,0.068-0.71,0.145-0.848,0.231c0.089,0.986,0,2.717-0.39,3.08     c-0.22-0.025-0.381,0.055-0.481,0.238c-0.144,0.225-0.271,0.359-0.378,0.404l0.147,0.123c-0.12,0.096-0.321,0.146-0.604,0.15     c-0.441,0.014-0.676,0.021-0.707,0.023l-0.162-0.336l0.661-11.402c-0.036-0.646-0.03-1.084,0.021-1.314     c-0.066-0.568,0.071-0.932,0.408-1.092c0.227,0.102,0.503,0.143,0.834,0.123c0.265-0.018,0.682-0.09,1.238-0.225     c0.559-0.135,0.949-0.207,1.168-0.221c0.771-0.045,1.142,0.379,1.115,1.27c-0.023,0.711,0.188,1.633,0.633,2.764     c0.462,1.217,0.713,2.137,0.749,2.756c0.012,0.189,0.263,0.592,0.26,0.783c-0.323,0.172-0.742,0.291-1.257,0.359     c-0.453,0.053-0.913,0.104-1.386,0.156c-0.195-0.953-0.641-2.113-0.839-3.055c-0.236-1.127-0.496-2.051-0.774-2.773l-0.297,5.465     c-0.02,0.471,0.261,0.691,0.842,0.654c0.189-0.008,0.365-0.059,0.536-0.143c0.139-0.047,0.339,0.025,0.602,0.213     c0.022,0.393,0.138,0.621,0.347,0.684c0.244-0.152,0.565-0.305,0.966-0.457c0.354-0.135,0.703-0.262,1.042-0.383     c0.217,0.203,0.367,0.518,0.457,0.945c0.111,0.602,0.188,0.953,0.226,1.053c0.045,0.238,0.207,0.75,0.49,1.533     c0.209,0.623,0.325,1.129,0.349,1.521C111.191,744.09,111.187,744.268,111.165,744.434z"/>
			<path d="M117.667,731.5h0.025c-0.19,0.279-0.43,0.33-0.724,0.156c-0.065-0.01-0.347,0.01-0.849,0.049     c-0.424,0.025-0.731,0.006-0.925-0.061c-0.047,0.004-0.14,0.051-0.277,0.141c-0.136,0.09-0.233,0.137-0.298,0.141     c-0.093,0.006-0.147-0.074-0.154-0.238c-0.003-0.025-0.008-0.131-0.021-0.322c-0.007-0.127-0.067-0.213-0.18-0.256l-0.292,0.225     c-0.094,0.07-0.135,0.143-0.13,0.219c0.002,0.062,0.057,0.15,0.159,0.266c0.099,0.115,0.156,0.199,0.176,0.248     c0.004,0.037,0.036,0.607,0.099,1.709c0.025,0.699,0.153,1.254,0.383,1.672c0.059-0.066,0.2-0.102,0.43-0.109     c0.227-0.006,0.378-0.059,0.451-0.15c0.149,0.133,0.399,0.139,0.748,0.023c0.346-0.115,0.598-0.076,0.751,0.117l-0.045,1.68     c-0.143-0.016-0.353-0.086-0.627-0.211c-0.079,0.248-0.236,0.4-0.469,0.467c-0.095,0.031-0.36,0.057-0.799,0.084     c0.011-0.078-0.056-0.156-0.204-0.234c-0.427,0.203-0.588,0.688-0.481,1.455c0.01-0.076,0.027,0.055,0.046,0.398     c0.012,0.215-0.032,0.369-0.137,0.463c-0.268,0.041-0.604-0.018-1.015-0.178c-0.41-0.16-0.704-0.236-0.877-0.225     c-0.077,0.004-0.148,0.016-0.211,0.031l-0.439,0.139l-0.707-7.674l-0.083-1.459c0.587-0.201,1.312-0.326,2.176-0.375     c0.676-0.039,1.559-0.035,2.646,0.018c0.071-0.144,0.199,0.043,0.358,0.033c0.077-0.004,0.195,0.004,0.354,0.027     c0.159,0.021,0.279,0.031,0.356,0.027c0.097-0.008,0.183-0.023,0.258-0.055l0.112-0.119c0.319,0.094,0.487,0.264,0.5,0.504     c0.007,0.102-0.024,0.273-0.09,0.521c-0.063,0.244-0.091,0.43-0.084,0.557C117.586,731.316,117.616,731.416,117.667,731.5z      M114.912,744.305c-0.168,0.088-0.426,0.139-0.771,0.16c-0.455,0.025-0.729,0.049-0.822,0.066     c-0.051-0.049-0.11-0.008-0.213-0.41c-0.063-0.262-0.229-0.387-0.494-0.369c-0.063,0.004-0.139,0.014-0.234,0.033l-0.423,0.021     l-0.228-3.883c0.231-0.113,0.518-0.182,0.864-0.203c0.33-0.02,0.622,0.016,0.88,0.102c-0.007,0.141,0.193,0.201,0.601,0.176     l0.447-0.027C114.787,741.06,114.948,743.033,114.912,744.305z"/>
			<path d="M127.084,731.834l0.025,0.016c-0.223-0.012-0.933,0.035-1.48,0.105c-0.469,0.053-0.823,0.062-1.062,0.023     c-0.229,0.152-0.31,0.361-0.247,0.625l0.145,0.088c-0.118,0.107-0.16,0.191-0.126,0.254l0.126,0.125     c-0.026,2.252-0.032,3.494-0.02,3.736c0.033,0.594,0.105,1.117,0.208,1.568c-0.094,0.287-0.13,0.613-0.107,0.979     c0.014,0.24,0.072,0.621,0.173,1.143c0.101,0.521,0.234,2.23,0.252,2.5c0.011,0.199,0.006,0.391-0.017,0.57     c-0.216,0.09-0.448,0.141-0.699,0.156c-0.423,0.023-0.88-0.064-1.363-0.264c-0.058,0.053-0.126,0.111-0.199,0.174     c-0.076,0.06-0.098,0.129-0.061,0.201c-0.154,0.049-0.372-0.016-0.647-0.188c-0.149-2.279-0.557-6.92-1.16-11.611     c-0.211,0.191-0.601,0.033-1.007,0.082c-0.484,0.053-0.96-0.021-1.146,0.064c-0.235-0.252-0.183-0.324-0.208-0.744     c-0.022-0.402-0.152-1.402-0.05-1.82c0.022-0.088,0.902-0.037,1.419-0.082c0.705-0.041,0.861,0.129,0.908,0.123     c0.058-0.09,0.402-0.045,0.652-0.059c0.162,0.08,0.337-0.074,0.344,0.041c0.007,0.074,0,0.555-0.054,0.691     c-0.055,0.135-0.081,0.234-0.077,0.301c0.01,0.15,0.117-0.072,0.375,0.016c0.283-0.004,0.573-0.016,0.869-0.031     c0.335,0.029,0.717-0.092,0.688,0.191c0.056-0.082,0.093,0.06,0.57-0.133c0.353-0.16,0.568-0.576,0.498-0.861     c-0.037-0.156,0.177-0.258,0.043-0.184c0.171-0.096,0.015-0.029,0.201-0.102c0.586,0.053,0.913-0.008,1.022-0.014     c0.237-0.014,0.82,0.139,0.988,0.053c0.122,0.221,0.184,0.914,0.19,1.295C127.07,731.471,127.082,731.795,127.084,731.834z"/>
			<path d="M134.715,739.758l-0.003-0.02c-0.085,0.17-0.127,0.365-0.128,0.58c-0.013,0.141,0.001,0.336,0.032,0.588     c0.031,0.289,0.05,0.494,0.058,0.607c-0.125,0.006-0.629,0.035-1.508,0.086c-0.531,0.031-1.01,0.104-1.428,0.217l-0.469-0.354     c-0.12,0.109-0.161,0.193-0.128,0.256c-0.077-0.008-0.44,0.012-1.084,0.062c-0.502,0.029-0.881,0.014-1.137-0.049     c-0.237,0.228-0.535,0.248-0.893,0.053c-0.13-0.068-0.153-0.197-0.07-0.385c0.086-0.191,0.045-0.324-0.118-0.406     c-0.008-0.404,0.012-1.033,0.057-1.889c0.052-0.764,0.062-1.359,0.036-1.793c-0.032-0.582-0.128-1.135-0.282-1.66     c0.163-0.148,0.357-0.23,0.573-0.242c0.254-0.014,0.555,0.062,0.913,0.234c0.504,0.234,0.761,0.356,0.776,0.356l0.148,0.121     c0.014-0.037,0.08-0.244,0.2-0.619c0.065-0.244,0.174-0.41,0.327-0.494l0.147,0.104c0.062-0.029,0.26-0.158,0.592-0.395     c0.258-0.17,0.434-0.783,0.592-0.793c0.173-0.012,0.344,0.057,0.508,0.199c0.274,0.1,0.489,0.791,0.591,1.02     c0.099,0.227,0.194,0.453,0.288,0.676c-0.706,0.068-1.287,0.096-1.744,0.084c-0.103,0.145-0.26,0.176-0.467,0.094     c-0.211-0.082-0.357-0.059-0.446,0.074c0.013,0.227,0.038,0.639,0.073,1.232c0.016,0.533,0.039,0.951,0.071,1.254     c0.043,0.469,0.116,0.897,0.215,1.283c0.128-0.008,0.725-0.041,1.791-0.105C133.536,739.693,134.175,739.701,134.715,739.758z      M133.985,730.824c-0.142,0.021-0.298,0.037-0.471,0.047c-0.361,0.02-0.84,0.01-1.444-0.031     c-0.741-0.031-1.192-0.051-1.348-0.055c-0.204,0.279-0.232,0.506-0.204,0.986c0.06,1.037,0.095,1.488,0.102,1.346     c0.224,0.09,0.346,0.273,0.361,0.553c0.007,0.379,0.018,0.576,0.035,0.588c-0.108,0.043-0.156,0.172-0.143,0.389     c-0.175-0.039-0.364-0.131-0.561-0.273c-0.263-0.174-0.344,0.449-0.338,0.281l-0.118,0.385l-0.149-0.104     c-0.124,0.02-0.343-0.018-0.656-0.113c-0.313-0.098-0.534-0.193-0.665-0.287c-0.013-0.203,0.019-0.318,0.098-0.35l-0.323-0.248     l-0.13,0.18c-0.28-1.303-0.468-3.604-0.359-5.004c0.6,0.039,1.303-0.064,2.024-0.096c0.486-0.016,1.171-0.055,2.051-0.117     c1-0.07,1.724-0.117,2.161-0.145c0.198,0.127,0.305,0.307,0.315,0.533c0.008,0.141-0.021,0.365-0.091,0.68     C134.064,730.285,133.976,730.672,133.985,730.824z"/>
			<path d="M142.549,738.408l-0.023,0.002c-0.1,0.197-0.132,0.479-0.096,0.846c0.046,0.516,0.07,0.783,0.07,0.795     c-0.078,0.029-0.183-0.008-0.314-0.115c-0.201,0.074-0.296,0.203-0.286,0.377c0.004,0.027,0.013,0.068,0.031,0.133     c0.006,0.074,0.007,0.127,0.012,0.152c0.008,0.139-0.035,0.242-0.124,0.311c-0.229-0.127-0.53-0.207-0.902-0.242     c-0.372-0.035-0.725-0.068-1.056-0.102c-0.007-1.725-0.239-3.414-0.694-5.062c0,0.012-0.012-0.16-0.03-0.516     c0-0.252-0.057-0.434-0.175-0.541l-0.156,0.143c0-0.023,0.05-0.076,0.156-0.15c0.107-0.078,0.158-0.154,0.153-0.229     c-0.004-0.039-0.014-0.076-0.031-0.113l-0.172-0.125c-0.295,0.096-0.431,0.332-0.407,0.711c0.014,0.254-0.087,0.432-0.3,0.531     c0.079,0.06,0.126,0.135,0.132,0.221c0.002,0.051-0.008,0.121-0.025,0.211c-0.018,0.092-0.027,0.16-0.023,0.211     c0.006,0.115,0.068,0.207,0.183,0.277c0.004,0.076,0.042,0.758,0.117,2.049c0.049,0.824,0.025,1.523-0.067,2.1l0.02,0.324     c-0.11-0.008-0.236-0.008-0.377,0.002c-0.157,0.01-0.386,0.031-0.682,0.068c-0.299,0.035-0.516,0.059-0.659,0.068     c-0.578,0.031-0.986-0.064-1.219-0.293l-0.248-7.092c-0.114-0.348-0.188-0.832-0.225-1.453l-0.081-1.367     c-0.054-0.67-0.138-1.185-0.254-1.547c0.049-0.244,0.262-0.377,0.637-0.4c0.238-0.012,0.554,0.02,0.953,0.098     c0.184-0.088,0.441-0.141,0.768-0.158c0.098-0.006,0.244-0.008,0.45-0.008c0.22-0.014,0.377-0.021,0.47-0.029     c0.614-0.033,1.02-0.223,1.222-0.562c0.282-0.004,0.59,0.084,0.923,0.268c0.335,0.184,0.628,0.281,0.884,0.293     c0.666,0.393,1.027,1.043,1.079,1.957c0.012,0.201-0.066,1.006-0.237,2.414l-1.15,0.998c0.197,0.359,0.43,1.139,0.705,2.342     C141.729,737.205,142.08,737.939,142.549,738.408z M140.425,730.34l0.025,0.02c0.021,0.086,0.01-0.225-0.029-0.934     c-0.021-0.342-0.146-0.588-0.375-0.738c-0.13,0.184-0.154-0.246-0.215,0.182c-0.062,0.43-0.168,0.738-0.311,0.924     c-0.395-0.002-0.485-0.236-0.721-0.566c-0.146-0.209-0.219-0.027-0.219-0.041l-0.105,0.086c-0.061,0.055-0.127,0.117-0.202,0.185     c-0.075,0.068-0.152,0.092-0.232,0.07c0.003,0.074-0.033,0.195-0.11,0.359c-0.076,0.162-0.112,0.275-0.111,0.34     c0.009,0.111,0.1,0.197,0.275,0.25c-0.032,0.256-0.041,0.523-0.025,0.801c0.01,0.152,0.045,0.5,0.109,1.043     c0.071,0.428,0.102,0.793,0.087,1.098c0.143,0.006,0.274,0.004,0.402-0.002c0.55-0.031,0.907-0.25,1.07-0.654     c0.056-0.117,0.12-0.541,0.188-1.268C139.987,730.943,140.156,730.559,140.425,730.34z"/>
		</g>
		<g>
			<path d="M64.465,705.701v0.018c-0.069,0.658-0.094,1.113-0.069,1.365c-0.101,0.039-0.232,0.045-0.395,0.02     c-0.208-0.037-0.328-0.053-0.364-0.051c-0.091,0.006-0.162,0.037-0.217,0.098c-0.132-0.086-0.219-0.121-0.264-0.107     c-0.123,0.074-0.18,0.182-0.176,0.32c0.006,0.057,0.027,0.156,0.069,0.297c0.041,0.143,0.064,0.246,0.066,0.315     c0.003,0.092-0.014,0.236-0.054,0.434c-0.043,0.197-0.061,0.359-0.055,0.486c0.01,0.147,0.039,0.381,0.097,0.703     c0.056,0.315,0.087,0.557,0.097,0.717c-0.065,0.312-0.091,0.631-0.073,0.951c0.019,0.391,0.126,0.914,0.319,1.57     c0.034,0.01,0.069,0.014,0.104,0.012c0.079-0.004,0.174-0.062,0.284-0.17c0.108-0.109,0.201-0.166,0.282-0.17     c0.059-0.002,0.12,0.012,0.189,0.043c0.208,0.666,0.314,1.098,0.325,1.293c0.005,0.092,0.003,0.19-0.001,0.291     c-0.309,0.074-0.525-0.031-0.652-0.31c0.018-0.08-0.027-0.166-0.134-0.252l-0.343,0.363c0.335,0.051,0.467,0.309,0.4,0.771     c-0.03,0.094-0.103,0.145-0.217,0.148c-0.195-0.002-0.286-0.002-0.274-0.002l-0.282-0.502l-0.115,0.143     c-0.093-0.236-0.203-0.352-0.326-0.346c-0.07,0.006-0.189,0.062-0.362,0.172c-0.17,0.113-0.315,0.174-0.43,0.178     c-0.091,0.004-0.182-0.019-0.279-0.072c-0.005-0.137-0.021-0.279-0.046-0.428c-0.025-0.148-0.103-0.242-0.23-0.281     c-0.007-0.355,0.006-1.293,0.031-2.811c0.012-1.148,0-2.078-0.038-2.787c-0.015-0.299-0.034-0.592-0.059-0.877     c-0.062-0.09-0.122-0.133-0.178-0.131c-0.049,0.004-0.116,0.053-0.21,0.15c-0.091,0.096-0.174,0.141-0.242,0.133     c-0.005-0.115-0.058-0.299-0.157-0.553c-0.098-0.254-0.15-0.438-0.156-0.553c-0.01-0.195,0.062-0.365,0.216-0.512l0.399,0.104     c0.163-0.229,0.228-0.611,0.2-1.15c-0.004-0.1-0.02-0.266-0.041-0.486c-0.022-0.223-0.036-0.387-0.043-0.49     c-0.042-0.883,0.228-1.338,0.81-1.367c0.217-0.012,0.482,0.027,0.795,0.115l0.386,0.102c0.029,0.148,0.049,0.301,0.057,0.461     c0.012,0.219,0.002,0.537-0.027,0.957c-0.033,0.422-0.043,0.73-0.033,0.924c0.016,0.31,0.069,0.59,0.163,0.836     c0.093-0.004,0.236-0.053,0.432-0.15c0.195-0.096,0.339-0.146,0.432-0.15C64.234,705.473,64.364,705.547,64.465,705.701z      M63.271,706.934l-0.022-0.395l-0.123-0.115L63.271,706.934z"/>
			<path d="M69.181,704.463h0.018c-0.041,0.312-0.09,0.625-0.142,0.938c-0.062,0.359-0.163,0.641-0.302,0.842     c-0.023-0.01-0.165-0.078-0.422-0.201c-0.177-0.096-0.335-0.133-0.471-0.115c-0.104,0.674-0.158,1.588-0.17,2.748     c-0.008,1.482-0.021,2.379-0.037,2.689c-0.173-0.014-0.303,0.041-0.387,0.168c-0.087,0.125-0.167,0.252-0.238,0.381     c-0.033,0.072-0.047,0.135-0.042,0.191c0.001,0.092,0.082,0.182,0.235,0.264c0.152,0.086,0.232,0.18,0.236,0.283     c-0.066,0.244-0.21,0.371-0.429,0.383c-0.1,0.004-0.28-0.025-0.535-0.094c-0.256-0.068-0.436-0.098-0.541-0.094l-0.244-4.916     c0.097-0.131,0.137-0.219,0.124-0.264l-0.141-0.098c0.01-0.205,0.021-1.234,0.033-3.084c0.004-1.252,0.052-2.268,0.139-3.041     c-0.011,0.002,0.343-0.023,1.062-0.07c0.446-0.021,0.734,0.1,0.859,0.369c0.002,0.254-0.022,0.68-0.073,1.279     c-0.05,0.555-0.069,0.979-0.056,1.279c0.02,0.365,0.075,0.695,0.17,0.99C68.217,704.768,68.668,704.488,69.181,704.463z      M70.886,705.516c0.033,0.459,0.062,0.902,0.084,1.34c0.097,1.902,0.065,3.936-0.088,6.105c-0.164,0.145-0.42,0.178-0.762,0.098     c-0.342-0.082-0.59-0.049-0.742,0.096c-0.197-0.254-0.312-0.711-0.345-1.377c-0.048-0.963-0.073-1.461-0.075-1.496     c-0.043-2.41,0.193-4.357,0.704-5.842C70.253,704.594,70.661,704.953,70.886,705.516z"/>
			<path d="M76.904,708.012c-0.074,0.154-0.106,0.316-0.098,0.488c0.009,0.172,0.019,0.336,0.027,0.498     c-0.019,0.137-0.056,0.277-0.117,0.418c-0.104-0.027-0.192-0.041-0.26-0.037c-0.081,0.004-0.162,0.033-0.246,0.09     c-0.083,0.057-0.147,0.086-0.193,0.086c-0.068,0.006-0.16-0.02-0.278-0.07l-0.796-1.168c0.027,0.344,0.104,0.644,0.232,0.902     c0.064,0.135,0.128,0.27,0.191,0.404c-0.465,0.08-0.728,0.094-0.79,0.039l-0.112,0.144l-0.275-0.365     c-0.216,0.264-0.265,0.65-0.148,1.162c0.146,0.555,0.151,0.957,0.027,1.205c0.172,0.256,0.379,0.375,0.619,0.363     c0.104-0.004,0.193-0.045,0.27-0.117c0.112-0.281,0.225-0.562,0.336-0.844c0.167-0.34,0.353-0.518,0.559-0.527     c0.16-0.008,0.348,0.076,0.563,0.248c0.257,0.088,0.389,0.211,0.396,0.357c0.004,0.094-0.055,0.242-0.176,0.447     c-0.122,0.209-0.179,0.369-0.173,0.484c0.002,0.047,0.01,0.086,0.021,0.119c-0.167,0.125-0.313,0.311-0.443,0.557     c-0.132,0.248-0.304,0.418-0.518,0.51c-0.185,0.182-0.359,0.273-0.519,0.283c-0.125,0.008-0.313-0.09-0.564-0.289     c-0.251-0.199-0.484-0.295-0.703-0.283c-0.089-0.203-0.312-0.426-0.669-0.674c-0.356-0.244-0.575-0.51-0.659-0.795     c0.002,0.023-0.004-0.066-0.012-0.273c-0.007-0.115-0.058-0.186-0.148-0.217l0.13-0.127c-0.175-0.002-0.264-0.102-0.273-0.297     c-0.002-0.021-0.004-0.068-0.006-0.139c0.008-0.059,0.012-0.102,0.01-0.137c-0.008-0.137-0.053-0.232-0.136-0.287l-0.029-0.6     c-0.016-0.312-0.079-0.531-0.189-0.664c0.112-0.729,0.227-1.459,0.34-2.188c0.184-0.848,0.46-1.281,0.827-1.299     c0.057-0.004,0.114,0.006,0.173,0.023c0.327-0.326,0.725-0.5,1.194-0.523c0.515-0.027,1.084,0.129,1.709,0.465     C76.484,706.189,76.788,707.064,76.904,708.012z M74.538,706.113l-0.111,0.145c-0.08,0.016-0.175-0.025-0.283-0.123l0.021,0.396     c-0.176,0.191-0.246,0.486-0.215,0.889c0.034,0.688,0.053,1.019,0.05,0.996l0.516-0.008c0.246-0.139,0.36-0.369,0.345-0.69     c-0.01-0.162-0.064-0.424-0.171-0.793C74.587,706.559,74.536,706.289,74.538,706.113z"/>
		</g>
		<g>
			<polygon fill-rule="evenodd" clip-rule="evenodd" points="80.933,725.354 81.445,725.646 83.176,721.088 82.6,720.894      80.867,725.455 81.372,725.777 80.933,725.354 80.933,725.354    "/>
			<polygon fill-rule="evenodd" clip-rule="evenodd" points="81.691,724.721 81.482,724.803 80.933,725.354 81.372,725.777      81.93,725.197 81.711,725.307 81.691,724.721 81.691,724.721    "/>
			<polygon fill-rule="evenodd" clip-rule="evenodd" points="85.887,724.685 86.133,724.492 81.691,724.721 81.711,725.307      86.153,725.082 86.437,724.869 85.887,724.685 85.887,724.685 85.887,724.685    "/>
			<polygon fill-rule="evenodd" clip-rule="evenodd" points="87.894,720.494 87.59,720.115 85.887,724.685 86.437,724.869      88.169,720.309 87.866,719.934 87.894,720.494 87.894,720.494 87.894,720.494    "/>
			<polygon fill-rule="evenodd" clip-rule="evenodd" points="83.662,720.639 83.44,720.75 87.894,720.494 87.866,719.934      83.434,720.135 83.213,720.242 83.662,720.639 83.662,720.639 83.662,720.639    "/>
			<polygon fill-rule="evenodd" clip-rule="evenodd" points="83.176,721.088 83.114,721.188 83.662,720.639 83.213,720.242      82.663,720.793 82.6,720.894 83.176,721.088 83.176,721.088 83.176,721.088    "/>
			<polygon fill-rule="evenodd" clip-rule="evenodd" points="86.865,725.227 87.261,725.053 86.309,724.521 86.006,725.06      86.985,725.604 87.415,725.41 86.839,725.219 86.839,725.219 86.865,725.227    "/>
			<polygon fill-rule="evenodd" clip-rule="evenodd" points="88.726,721.018 88.57,720.658 86.839,725.219 87.415,725.41      89.147,720.85 88.991,720.494 88.726,721.018 88.726,721.018    "/>
			<polygon fill-rule="evenodd" clip-rule="evenodd" points="88.169,720.309 87.738,720.502 88.726,721.018 88.991,720.494      88.041,719.963 87.59,720.115 88.169,720.309 88.169,720.309    "/>
			<polygon points="82.903,720.996 82.875,720.986 83.424,720.435 87.547,720.234 87.59,720.115 87.894,720.217 88.169,720.309      88.148,720.359 88.873,720.76 89.147,720.85 89.035,721.146 91.051,725.953 89.347,730.521 87.141,725.318 87.141,725.318      86.858,725.438 86.839,725.219 86.86,725.164 86.165,724.777 86.006,725.06 85.919,724.789 81.691,724.996 81.142,725.547    "/>
			<polygon fill-rule="evenodd" clip-rule="evenodd" points="89.071,730.43 89.632,730.402 87.425,725.201 86.858,725.438      89.062,730.641 89.621,730.613 89.045,730.42 89.045,730.42 89.071,730.43    "/>
			<polygon fill-rule="evenodd" clip-rule="evenodd" points="90.795,726.082 90.775,725.861 89.045,730.42 89.621,730.613      91.354,726.057 91.335,725.836 90.795,726.082 90.795,726.082    "/>
			<polygon fill-rule="evenodd" clip-rule="evenodd" points="89.147,720.85 88.588,720.879 90.795,726.082 91.335,725.836      89.129,720.631 88.57,720.658 89.147,720.85 89.147,720.85    "/>
			<polygon fill-rule="evenodd" clip-rule="evenodd" fill="#FFFFFF" points="89.001,722.025 89.248,722.568 89.339,723.119      89.312,723.66 89.156,724.219 88.883,724.769 88.505,725.254 88.021,725.705 87.433,726.092 87.113,726.229 86.794,726.365      86.434,726.428 86.106,726.502 85.785,726.547 85.439,726.584 85.115,726.539 84.786,726.519 84.504,726.455 84.202,726.354      83.908,726.227 83.652,726.078 83.432,725.914 83.186,725.74 82.984,725.519 82.819,725.279 82.57,724.74 82.479,724.189      82.479,723.639 82.663,723.088 82.903,722.555 83.286,722.043 83.771,721.594 84.386,721.217 84.678,721.07 85.026,720.941      85.355,720.867 85.687,720.795 86.033,720.76 86.354,720.713 86.674,720.76 87.004,720.777 87.308,720.877 87.608,720.979      87.882,721.072 88.167,721.227 88.396,721.365 88.635,721.566 88.8,721.805 89.001,722.025 89.001,722.025 89.001,722.025    "/>
			<polygon fill-rule="evenodd" clip-rule="evenodd" points="89.22,722.924 89.469,723.467 89.551,724.045 89.523,724.586      89.376,725.117 89.129,725.678 88.716,726.182 88.267,726.613 87.653,726.988 87.324,727.154 87.003,727.293 86.674,727.365      86.315,727.43 85.996,727.475 85.687,727.494 85.355,727.475 85.007,727.42 84.723,727.354 84.421,727.254 84.155,727.133      83.871,726.979 83.643,726.842 83.432,726.646 83.221,726.455 83.038,726.18 82.781,725.666 82.69,725.113 82.728,724.545      82.874,724.014 83.119,723.455 83.497,722.969 83.981,722.519 84.595,722.143 84.925,721.979 85.235,721.867 85.577,721.768      85.935,721.703 86.244,721.685 86.564,721.641 86.887,721.685 87.214,721.703 87.527,721.777 87.827,721.877 88.095,721.998      88.388,722.127 88.606,722.293 88.854,722.465 89.019,722.705 89.212,722.951 89.212,722.951 89.22,722.924    "/>
			<polygon fill-rule="evenodd" clip-rule="evenodd" fill="#FFFFFF" points="89.376,723.559 89.634,724.072 89.715,724.65      89.686,725.191 89.541,725.723 89.266,726.273 88.881,726.787 88.432,727.217 87.817,727.596 87.517,727.768 87.17,727.898      86.836,727.969 86.479,728.033 86.161,728.08 85.849,728.098 85.52,728.08 85.171,728.025 84.887,727.961 84.585,727.859      84.32,727.74 84.038,727.584 83.807,727.445 83.568,727.244 83.395,727.035 83.204,726.785 82.947,726.271 82.854,725.721      82.882,725.18 83.038,724.621 83.286,724.06 83.669,723.547 84.173,723.133 84.762,722.75 85.09,722.584 85.412,722.445      85.741,722.373 86.097,722.31 86.418,722.264 86.729,722.244 87.086,722.271 87.38,722.31 87.692,722.385 87.994,722.482      88.286,722.613 88.544,722.76 88.772,722.896 89.019,723.072 89.183,723.31 89.376,723.559 89.376,723.559    "/>
			<polygon fill-rule="evenodd" clip-rule="evenodd" points="89.595,724.457 89.843,725 89.934,725.551 89.934,726.1 89.75,726.65      89.512,727.184 89.102,727.688 88.643,728.144 88.029,728.521 87.736,728.668 87.389,728.797 87.058,728.869 86.729,728.943      86.38,728.98 86.058,729.023 85.738,728.98 85.41,728.961 85.098,728.889 84.794,728.787 84.529,728.666 84.247,728.51      84.028,728.346 83.807,728.182 83.605,727.959 83.414,727.713 83.193,727.182 83.076,726.619 83.103,726.078 83.257,725.519      83.524,724.996 83.909,724.482 84.394,724.033 84.98,723.648 85.299,723.51 85.622,723.373 85.979,723.309 86.309,723.236      86.627,723.189 86.968,723.182 87.298,723.199 87.599,723.209 87.911,723.283 88.213,723.383 88.505,723.512 88.763,723.658      89.008,723.832 89.229,723.998 89.431,724.219 89.585,724.486 89.585,724.486 89.595,724.457    "/>
			<polygon fill-rule="evenodd" clip-rule="evenodd" fill="#FFFFFF" points="89.916,725.053 90.171,725.566 90.263,726.119      90.255,726.697 90.106,727.229 89.833,727.779 89.421,728.283 88.972,728.715 88.385,729.1 88.056,729.264 87.707,729.393      87.379,729.467 87.047,729.539 86.701,729.576 86.389,729.596 86.058,729.576 85.738,729.531 85.429,729.457 85.125,729.355      84.86,729.234 84.595,729.117 84.347,728.941 84.136,728.748 83.937,728.529 83.771,728.291 83.515,727.777 83.404,727.188      83.432,726.646 83.605,726.125 83.854,725.564 84.236,725.053 84.715,724.631 85.299,724.244 85.63,724.08 85.95,723.941      86.299,723.904 86.637,723.805 86.958,723.758 87.298,723.75 87.626,723.769 87.92,723.805 88.232,723.879 88.56,723.988      88.826,724.107 89.092,724.229 89.339,724.402 89.551,724.594 89.752,724.814 89.916,725.053 89.916,725.053    "/>
			<polygon fill-rule="evenodd" clip-rule="evenodd" points="90.164,725.963 90.383,726.494 90.503,727.053 90.474,727.596      90.318,728.154 90.052,728.678 89.667,729.191 89.183,729.641 88.596,730.025 88.276,730.164 87.929,730.293 87.597,730.365      87.269,730.439 86.947,730.484 86.601,730.521 86.279,730.475 85.95,730.455 85.665,730.393 85.337,730.283 85.071,730.162      84.813,730.014 84.568,729.842 84.347,729.676 84.146,729.457 83.981,729.217 83.733,728.676 83.613,728.117 83.643,727.576      83.826,727.023 84.064,726.492 84.45,725.979 84.934,725.529 85.547,725.152 85.841,725.008 86.19,724.879 86.519,724.803      86.849,724.73 87.196,724.695 87.517,724.65 87.837,724.695 88.14,724.705 88.479,724.787 88.78,724.889 89.045,725.008      89.303,725.154 89.551,725.328 89.77,725.494 89.971,725.715 90.164,725.963 90.164,725.963 90.164,725.963    "/>
			<polygon fill-rule="evenodd" clip-rule="evenodd" points="59.889,718.959 59.916,718.785 58.174,723.371 58.724,723.555      60.466,718.969 60.474,718.852 59.889,718.959 59.889,718.959 59.889,718.959    "/>
			<polygon fill-rule="evenodd" clip-rule="evenodd" points="59.843,718.73 59.853,718.703 59.889,718.959 60.474,718.852      60.41,718.584 60.42,718.557 59.843,718.73 59.843,718.73 59.843,718.73    "/>
			<polygon fill-rule="evenodd" clip-rule="evenodd" points="59.779,718.465 59.843,718.73 60.42,718.557 60.354,718.289      59.779,718.465 59.779,718.465 59.779,718.465    "/>
			<polygon fill-rule="evenodd" clip-rule="evenodd" points="59.705,718.225 59.779,718.465 60.354,718.289 60.282,718.051      59.705,718.225 59.705,718.225    "/>
			<polygon fill-rule="evenodd" clip-rule="evenodd" points="59.643,717.959 59.643,717.959 59.705,718.225 60.282,718.051      60.218,717.785 60.21,717.812 59.643,717.959 59.643,717.959 59.643,717.959    "/>
			<polygon fill-rule="evenodd" clip-rule="evenodd" points="59.57,717.629 59.57,717.723 59.643,717.959 60.21,717.812      60.137,717.572 60.164,717.676 59.57,717.629 59.57,717.629    "/>
			<polygon fill-rule="evenodd" clip-rule="evenodd" points="60.154,717.519 59.577,717.416 59.57,717.629 60.164,717.676      60.172,717.465 59.597,717.361 60.145,717.547 60.145,717.547 60.154,717.519    "/>
			<polygon fill-rule="evenodd" clip-rule="evenodd" fill="#4C4849" points="60.654,730.869 60.6,730.576 59.985,730.676      60.03,730.998 60.654,730.869 60.654,730.869 60.654,730.869    "/>
			<polygon fill-rule="evenodd" clip-rule="evenodd" points="61.93,727.045 61.947,726.896 60.217,731.457 60.764,731.641      62.497,727.082 62.487,726.926 61.93,727.045 61.93,727.045 61.93,727.045    "/>
			<polygon fill-rule="evenodd" clip-rule="evenodd" points="61.885,726.723 61.93,727.045 62.487,726.926 62.442,726.604      61.856,726.713 61.856,726.713 61.885,726.723    "/>
			<polygon fill-rule="evenodd" clip-rule="evenodd" points="61.802,726.418 61.856,726.713 62.442,726.604 62.359,726.301      61.802,726.418 61.802,726.418 61.802,726.418    "/>
			<polygon fill-rule="evenodd" clip-rule="evenodd" points="61.729,726.09 61.745,726.127 61.802,726.418 62.359,726.301      62.314,725.979 62.332,726.016 61.729,726.09 61.729,726.09 61.729,726.09    "/>
			<polygon fill-rule="evenodd" clip-rule="evenodd" points="62.278,725.814 61.691,725.74 61.729,726.09 62.332,726.016      62.285,725.695 61.699,725.623 62.278,725.814 62.278,725.814    "/>
			<g>
				<polygon fill="#4C4849" points="58.178,722.461 57.901,722.547 58.178,722.461     "/>
				<polygon fill="#4C4849" points="58.467,723.42 58.476,723.393 58.619,723.4 58.724,723.555 58.468,723.471     "/>
				<polygon points="57.835,722.281 58.129,722.225 58.14,722.014 59.88,717.428 59.87,717.455 59.87,717.639 59.916,717.867       60.009,718.144 60.08,718.381 60.145,718.646 60.191,718.875 60.191,718.875 60.466,718.969 58.724,723.555 58.619,723.4       58.476,723.393 58.467,723.42 58.468,723.471 58.724,723.555 58.471,723.539 58.476,723.748 58.3,723.529 58.156,723.518       58.12,723.262 58.225,723.24 58.339,722.945 58.046,723.023 57.963,722.81 57.901,722.547 58.178,722.461 58.178,722.461       57.901,722.547 57.908,722.519     "/>
			</g>
			<g>
				<polygon fill="none" points="72.011,723.533 72.011,723.533 72.26,722.975     "/>
				<polygon points="58.458,723.162 71.207,722.742 71.536,722.764 71.591,722.781 71.903,722.854 71.932,722.863 72.26,722.975       72.581,723.111 72.609,723.121 72.911,723.314 72.966,723.332 73.203,723.533 73.276,723.588 73.449,723.799 73.469,723.836       73.588,724.027 73.597,724.094 73.034,724.264 72.945,724.119 72.938,724.148 72.791,723.945 72.793,723.945 72.599,723.791       72.646,723.836 72.334,723.672 72.334,723.67 72.011,723.533 72.011,723.533 71.738,723.443 71.426,723.367 71.481,723.387       71.188,723.35 71.188,723.322 58.476,723.748     "/>
				<polygon points="73.021,724.268 73.034,724.264 73.065,724.314     "/>
			</g>
			<polygon fill-rule="evenodd" clip-rule="evenodd" points="79.831,734.986 79.831,734.805 78.091,739.389 78.668,739.582      80.408,734.996 80.408,734.812 79.831,734.986 79.831,734.986 79.831,734.986    "/>
			<polygon fill-rule="evenodd" clip-rule="evenodd" points="74.796,719.754 74.76,719.68 79.831,734.986 80.408,734.812      75.339,719.508 75.328,719.443 74.796,719.754 74.796,719.754 74.796,719.754    "/>
			<polygon fill-rule="evenodd" clip-rule="evenodd" points="74.697,719.6 74.68,719.562 74.796,719.754 75.328,719.443      75.211,719.248 75.184,719.24 74.668,719.59 74.668,719.59 74.697,719.6    "/>
			<polygon fill-rule="evenodd" clip-rule="evenodd" points="74.577,719.404 74.531,719.359 74.668,719.59 75.184,719.24      74.99,718.992 74.943,718.945 74.577,719.404 74.577,719.404 74.577,719.404    "/>
			<polygon fill-rule="evenodd" clip-rule="evenodd" points="74.377,719.277 74.33,719.232 74.577,719.404 74.943,718.945      74.697,718.773 74.651,718.727 74.377,719.277 74.377,719.277    "/>
			<polygon fill-rule="evenodd" clip-rule="evenodd" points="74.101,719.092 74.074,719.084 74.377,719.277 74.651,718.727      74.34,718.56 74.312,718.553 74.101,719.092 74.101,719.092    "/>
			<polygon fill-rule="evenodd" clip-rule="evenodd" points="73.809,718.965 73.743,718.973 74.101,719.092 74.312,718.553      73.991,718.414 73.964,718.404 73.772,718.982 73.772,718.982 73.809,718.965    "/>
			<polygon fill-rule="evenodd" clip-rule="evenodd" points="73.479,718.855 73.441,718.873 73.772,718.982 73.964,718.404      73.635,718.295 73.635,718.295 73.469,718.883 73.469,718.883 73.479,718.855    "/>
			<polygon fill-rule="evenodd" clip-rule="evenodd" points="73.223,718.801 73.168,718.783 73.469,718.883 73.635,718.295      73.294,718.213 73.267,718.203 73.223,718.801 73.223,718.801 73.223,718.801    "/>
			<polygon fill-rule="evenodd" clip-rule="evenodd" points="72.929,718.762 72.92,718.789 73.223,718.801 73.267,718.203      72.947,718.156 72.911,718.176 72.929,718.762 72.929,718.762    "/>
			<polygon fill-rule="evenodd" clip-rule="evenodd" points="60.493,718.977 60.182,719.18 72.929,718.762 72.911,718.176      60.191,718.602 59.916,718.785 60.466,718.969 60.466,718.969 60.493,718.977    "/>
			<polygon fill="#4C4849" points="63.694,732.924 63.65,732.902 63.678,732.889    "/>
			<g>
				<polygon fill="#4C4849" points="70.58,734.988 70.526,735.607 70.58,734.988     "/>
				<g>
					<polygon fill="none" points="70.555,735.283 70.526,735.607 70.555,735.283      "/>
					<g>
						<polygon fill="none" points="60.225,730.318 60.243,730.275 60.255,730.332       "/>
						<path d="M60.03,730.998l0.057,0.293l0.109,0.312l0.138,0.23l0.779,0.412l0.777,0.414l0.751,0.402l0.761,0.377l0.027,0.01        l0.771,0.348l0.768,0.348l0.833,0.342l0.842,0.311l0.029,0.01l0.896,0.24l0.897,0.238l0.027,0.01l0.989,0.146l1.017,0.156        l0.027,0.01l1.106,0.064l0.039-0.02l1.181,0.029l1.265-0.037l1.338-0.072l0.274-0.184l1.73-4.561l-0.294-0.402l0.02,0.588        l-0.094-0.115l0.066-0.168l-0.191,0.01l-0.084-0.103l-0.041,0.111l-0.992,0.062h-1.284l-1.181-0.029l-1.08-0.055l-1.054-0.137        l-0.979-0.176l-0.9-0.238l-0.896-0.24l-0.843-0.31l-0.816-0.305l-0.767-0.348l-0.763-0.379l-0.786-0.385l-0.751-0.402        l-0.752-0.404l-0.521-0.277l0.019-0.043l-0.275-0.094l0,0l-0.073-0.33l-0.055-0.295l-0.021-0.1l0.206-0.449l-0.291-0.096        l-0.012-0.006l0,0l-0.276-0.09l-1.73,4.557l-0.02,0.146l0.046,0.322L60.03,730.998z M60.243,730.275l0.012,0.057l-0.03-0.014        L60.243,730.275z"/>
					</g>
				</g>
			</g>
			<polygon fill-rule="evenodd" clip-rule="evenodd" points="75.847,731.086 77.186,731.014 77.166,730.426 75.829,730.498      75.847,731.086 75.847,731.086 75.847,731.086    "/>
			<polygon fill-rule="evenodd" clip-rule="evenodd" points="74.585,731.123 75.847,731.086 75.829,730.498 74.565,730.535      74.585,731.123 74.585,731.123 74.585,731.123    "/>
			<polygon fill-rule="evenodd" clip-rule="evenodd" points="73.375,731.084 73.403,731.094 74.585,731.123 74.565,730.535      73.385,730.508 73.422,730.488 73.367,731.113 73.367,731.113 73.375,731.084    "/>
			<polygon fill-rule="evenodd" clip-rule="evenodd" points="72.239,731.012 72.268,731.021 73.367,731.113 73.422,730.488      72.313,730.424 72.34,730.434 72.239,731.012 72.239,731.012 72.239,731.012    "/>
			<polygon fill-rule="evenodd" clip-rule="evenodd" points="71.213,730.881 72.239,731.012 72.34,730.434 71.323,730.277      71.213,730.881 71.213,730.881    "/>
			<polygon fill-rule="evenodd" clip-rule="evenodd" points="70.207,730.699 70.233,730.707 71.213,730.881 71.323,730.277      70.308,730.119 70.335,730.129 70.207,730.699 70.207,730.699 70.207,730.699    "/>
			<polygon fill-rule="evenodd" clip-rule="evenodd" points="69.311,730.459 70.207,730.699 70.335,730.129 69.438,729.891      69.299,730.486 69.299,730.486 69.311,730.459    "/>
			<polygon fill-rule="evenodd" clip-rule="evenodd" points="68.375,730.238 68.404,730.248 69.299,730.486 69.438,729.891      68.54,729.65 68.568,729.66 68.375,730.238 68.375,730.238    "/>
			<polygon fill-rule="evenodd" clip-rule="evenodd" points="67.531,729.926 67.531,729.926 68.375,730.238 68.568,729.66      67.725,729.348 67.754,729.355 67.506,729.918 67.506,729.918 67.531,729.926    "/>
			<polygon fill-rule="evenodd" clip-rule="evenodd" points="66.698,729.586 67.506,729.918 67.754,729.355 66.949,729.025      66.698,729.586 66.698,729.586    "/>
			<polygon fill-rule="evenodd" clip-rule="evenodd" points="65.931,729.236 66.698,729.586 66.949,729.025 66.169,728.705      65.931,729.236 65.931,729.236    "/>
			<polygon fill-rule="evenodd" clip-rule="evenodd" points="65.143,728.852 65.162,728.889 65.931,729.236 66.169,728.705      65.381,728.32 65.408,728.33 65.133,728.879 65.133,728.879 65.143,728.852    "/>
			<polygon fill-rule="evenodd" clip-rule="evenodd" points="64.383,728.477 65.133,728.879 65.408,728.33 64.649,727.951      64.374,728.504 64.374,728.504 64.383,728.477    "/>
			<polygon fill-rule="evenodd" clip-rule="evenodd" points="63.631,728.072 64.374,728.504 64.649,727.951 63.898,727.549      63.604,728.062 63.604,728.062 63.631,728.072    "/>
			<polygon fill-rule="evenodd" clip-rule="evenodd" points="62.853,727.658 63.604,728.062 63.898,727.549 63.146,727.144      62.853,727.658 62.853,727.658    "/>
			<polygon fill-rule="evenodd" clip-rule="evenodd" points="62.497,727.082 62.075,727.244 62.853,727.658 63.146,727.144      62.369,726.732 61.947,726.896 62.497,727.082 62.497,727.082 62.497,727.082    "/>
			<polygon fill-rule="evenodd" clip-rule="evenodd" points="141.881,718.816 140.14,723.402 145.824,725.305 147.145,722.258      147.182,721.965 147.191,721.662 147.145,721.34 147.033,721.029 146.852,720.754 146.705,720.459 146.467,720.166      146.221,719.9 145.964,719.662 145.681,719.412 145.387,719.193 145.103,719.035 144.827,718.854 144.506,718.717      144.223,718.56 143.948,718.467 143.703,718.387 143.406,718.35 143.144,718.32 142.888,718.359 142.63,718.394 142.357,718.486      142.117,718.65 141.881,718.816 141.881,718.816 141.881,718.816    "/>
			<polygon fill-rule="evenodd" clip-rule="evenodd" points="145.57,725.158 145.927,725 140.24,723.102 140.046,723.678      145.733,725.578 146.118,725.434 145.57,725.158 145.57,725.158    "/>
			<g>
				<polygon fill="none" points="146.666,726.48 146.705,726.791 146.666,726.48     "/>
				<polygon fill="none" points="149.599,723.408 149.81,723.609 149.581,723.449     "/>
				<g>
					<polygon fill="none" points="149.81,723.609 149.581,723.449 149.599,723.408      "/>
					<g>
						<polygon fill="none" points="149.81,723.609 149.581,723.449 149.599,723.408       "/>
						<polygon points="57.835,722.006 57.862,721.922 59.597,717.361 60.145,717.547 58.467,722.049 58.432,722.234 58.422,722.17         57.835,722.281 57.827,722.217       "/>
						<g>
							<polygon fill="none" points="149.81,723.609 149.581,723.449 149.599,723.408        "/>
							<polygon fill="#4C4849" points="85.721,732.797 85.618,732.857 85.611,732.85        "/>
							<g>
								<polygon fill="none" points="85.832,733.064 86.049,733.273 85.832,733.064         "/>
								<polygon fill="none" points="149.81,723.609 149.581,723.449 149.599,723.408         "/>
								<polygon fill="none" points="78.366,739.482 78.383,739.482 78.383,739.488 78.091,739.389 78.337,739.396         "/>
								<path d="M58.046,723.023l0.065,0.266l0.01-0.027l0.443-0.094l-0.115,0.295l12.75-0.416l0.302,0.01l0.329,0.109l0.329,0.109          l0.331,0.111l0.302,0.191l0.247,0.176l0.174,0.211l0.106,0.213l-0.297,0.09l5.069,15.307l0.296,0.006l0.007,0.188h0.456          l0.432-0.01l0.393,0.01l0.358-0.066l0.366-0.09l0.366-0.184l0.338-0.285l0.402-0.385l0.01-0.027l0.229-0.322l0.268-0.338          l0.302-0.359l0.211-0.355l0.266-0.432l0.274-0.367l0.229-0.412l0.292-0.422l0.238-0.348l0.339-0.379l0.276-0.365l0.32-0.322          l0.284-0.301l0.302-0.266l0.295-0.24l0.336-0.191l0.074-0.037l-0.217-0.209l0,0l0.217,0.209l0.34-0.377l0.312-0.293          l0.275-0.275l0.292-0.238l0.284-0.211l0.302-0.176l0.265-0.154l0.293-0.147l0.331-0.072l0.319-0.139l0.331-0.074          l0.383-0.055l0.423-0.072l0.466-0.027l0.506-0.045l0.493-0.02l0.027,0.01l55.014-4.117l0.319-0.045l0.292-0.057l0.267-0.064          l0.275-0.092l0.256-0.127l0.265-0.156l0.223-0.201l0.254-0.221l0.057-0.074l0.962-2.246l-0.504-0.322l0.224,0.215          l-0.035,0.031l-0.244-0.172l-0.24,0.561l-0.162,0.098l-0.212,0.084l-0.247,0.102l-0.23,0.045l-0.293,0.057l-0.29,0.053          l-55.041,4.109l-0.351,0.037l-0.336,0.01l-0.339,0.008l-0.358,0.062H90.85l-0.319,0.047l-0.351,0.037l-0.319,0.047          l-0.358,0.062l-0.319,0.047l-0.329,0.072l-0.365,0.092l-0.331,0.074l-0.349,0.127l-0.349,0.129l-0.329,0.164l-0.651,0.396          l-0.657,0.604l-0.697,0.717l-0.67,0.814l-0.649,0.854l-0.559,0.762l-0.55,0.732l-0.458,0.551l-0.266,0.064l-0.229,0.047          l-0.284,0.027h-0.274h-0.275l-0.238-0.018l-0.302-0.012l-0.266-0.027l-5.052-15.268l-0.11-0.221l-0.173-0.211l-0.247-0.176          l-0.331-0.201l-0.319-0.139l-0.329-0.109l-0.312-0.074l-0.304-0.01l-12.737,0.389l-1.531,4.035l-0.009-0.051L58.046,723.023          z M149.581,723.449l0.018-0.041l0.211,0.201L149.581,723.449z"/>
							</g>
						</g>
					</g>
				</g>
			</g>
			<polygon fill-rule="evenodd" clip-rule="evenodd" points="147.657,724.57 147.986,724.498 148.28,724.443 148.546,724.379      148.82,724.287 149.076,724.158 149.343,724.002 149.553,723.83 149.81,723.609 149.37,723.185 149.177,723.396 148.976,723.545      148.782,723.664 148.572,723.746 148.369,723.801 148.134,723.873 147.878,723.91 147.594,723.939 147.657,724.57      147.657,724.57    "/>
			<polygon fill-rule="evenodd" clip-rule="evenodd" points="92.653,728.66 147.657,724.57 147.594,723.939 92.582,728.055      92.653,728.66 92.653,728.66    "/>
			<polygon fill-rule="evenodd" clip-rule="evenodd" points="87.259,729.641 87.579,729.504 87.894,729.393 88.267,729.273      88.579,729.164 88.916,729.064 89.237,729.018 89.558,728.973 89.914,728.908 90.207,728.852 90.547,728.844 90.896,728.807      91.242,728.769 91.591,728.734 91.902,728.715 92.277,728.689 92.653,728.66 92.582,728.055 92.231,728.094 91.885,728.127      91.519,728.127 91.171,728.164 90.832,728.174 90.503,728.248 90.162,728.258 89.787,728.283 89.457,728.357 89.126,728.43      88.771,728.494 88.404,728.586 88.093,728.695 87.717,728.814 87.342,728.934 87.013,729.098 87.259,729.641 87.259,729.641      87.259,729.641    "/>
			<polygon fill-rule="evenodd" clip-rule="evenodd" points="82.33,735.09 82.45,735.006 82.697,734.721 82.919,734.43      83.182,734.09 83.457,733.721 83.771,733.338 84.055,732.941 84.374,732.529 84.695,732.117 85.024,731.676 85.363,731.301      85.693,730.951 86.031,730.576 86.315,730.273 86.674,730.025 86.964,729.787 87.259,729.641 87.013,729.098 86.637,729.31      86.315,729.539 85.939,729.842 85.584,730.18 85.253,730.531 84.925,730.879 84.558,731.336 84.236,731.75 83.915,732.162      83.594,732.574 83.312,732.969 83,733.354 82.725,733.721 82.46,734.06 82.239,734.355 82.038,734.592 82.148,734.537      82.33,735.09 82.33,735.09 82.33,735.09    "/>
			<polygon fill="none" points="141.761,719.082 141.881,718.816 142.1,718.615 142.429,718.449 142.814,718.394 143.023,718.404      143.263,718.422 143.491,718.467 143.72,718.514 143.994,718.605 144.243,718.688 144.508,718.807 144.793,718.963      145.028,719.074 145.276,719.248 145.497,719.412 145.735,719.615 145.982,719.791 146.155,720.002 146.366,720.193      146.54,720.404 146.861,720.818 147.026,721.24 147.109,721.451 147.154,721.59 147.127,721.947 147.061,722.23 146.86,722.469      146.567,722.615 146.173,722.699 145.954,722.719 145.725,722.67 145.461,722.643 145.176,722.58 144.928,722.496      144.653,722.404 144.36,722.277 144.105,722.129 143.838,722.01 143.554,721.854 143.306,721.68 143.069,721.477      142.849,721.312 142.62,721.082 142.419,720.863 142.244,720.652 141.962,720.221 141.796,719.797 141.751,719.662      141.704,719.432    "/>
			<polygon fill-rule="evenodd" clip-rule="evenodd" fill="#FFFFFF" points="71.794,718.506 72.929,718.486 73.021,718.486      63.269,715.227 62.775,715.519 71.784,718.533 71.784,718.533 71.794,718.506    "/>
			<polygon fill-rule="evenodd" clip-rule="evenodd" fill="#FFFFFF" points="71.794,718.506 60.191,718.875 60.145,718.646      60.08,718.381 60.009,718.144 59.916,717.867 59.87,717.639 59.87,717.455 59.943,717.236 60.145,717.088 60.621,716.758      61.153,716.445 61.684,716.135 62.216,715.822 62.719,715.502 62.775,715.519 71.784,718.533 71.784,718.533 71.794,718.506         "/>
			<polygon fill="#FFFFFF" points="64.74,725.566 72.644,725.121 75.739,726.371 76.829,729.609 77.158,730.73 75.85,730.81      74.565,730.81 73.385,730.781 72.305,730.727 71.251,730.59 70.272,730.414 69.372,730.176 68.477,729.935 67.634,729.625      66.817,729.32 66.051,728.973 65.288,728.594 64.502,728.209 63.751,727.807 62.999,727.402 62.222,726.988 62.148,726.658      62.094,726.363 62.021,726.035 61.976,725.713    "/>
			<polygon fill-rule="evenodd" clip-rule="evenodd" fill="#FFFFFF" points="84.649,726.475 84.759,726.602 85.775,727.217      86.106,726.685 85.089,726.072 85.191,726.229 84.649,726.475 84.688,726.547 84.759,726.602 84.649,726.475 84.649,726.475         "/>
			<polygon fill-rule="evenodd" clip-rule="evenodd" fill="#FFFFFF" points="75.609,726.664 75.437,726.451 76.883,730.82      77.46,730.646 76.014,726.277 75.858,726.104 76.014,726.277 75.967,726.141 75.858,726.104 75.609,726.664 75.609,726.664      75.609,726.664    "/>
			<polygon fill-rule="evenodd" clip-rule="evenodd" fill="#FFFFFF" points="72.673,725.404 72.525,725.389 75.609,726.664      75.858,726.104 72.773,724.826 72.653,724.818 72.773,724.826 72.717,724.809 72.653,724.818 72.673,725.404 72.673,725.404      72.673,725.404    "/>
			<polygon fill-rule="evenodd" clip-rule="evenodd" fill="#FFFFFF" points="62.285,725.695 61.993,726.025 72.673,725.404      72.653,724.818 61.976,725.438 61.691,725.74 61.976,725.438 61.635,725.445 61.691,725.74 62.285,725.695 62.285,725.695    "/>
			<polygon fill-rule="evenodd" clip-rule="evenodd" fill="#FFFFFF" points="62.369,726.732 62.487,726.926 62.479,726.769      62.442,726.604 62.433,726.447 62.386,726.309 62.379,726.154 62.342,725.988 62.295,725.85 62.285,725.695 61.691,725.74      61.691,725.924 61.719,726.117 61.766,726.254 61.772,726.41 61.819,726.547 61.856,726.713 61.92,726.887 61.93,727.045      62.075,727.244 61.93,727.045 61.976,727.182 62.075,727.244 62.369,726.732 62.369,726.732    "/>
			<polygon fill-rule="evenodd" clip-rule="evenodd" fill="#FFFFFF" points="76.893,730.793 77.138,730.416 75.829,730.498      74.565,730.535 73.422,730.488 72.313,730.424 71.323,730.277 70.335,730.129 69.438,729.891 68.568,729.66 67.725,729.348      66.949,729.025 66.169,728.705 65.408,728.33 64.649,727.951 63.898,727.549 63.146,727.144 62.369,726.732 62.075,727.244      62.853,727.658 63.604,728.062 64.374,728.504 65.133,728.879 65.931,729.236 66.698,729.586 67.531,729.926 68.375,730.238      69.299,730.486 70.207,730.699 71.213,730.881 72.268,731.021 73.367,731.113 74.585,731.123 75.847,731.086 77.212,731.021      77.46,730.646 77.212,731.021 77.589,730.994 77.46,730.646 76.883,730.82 76.883,730.82 76.893,730.793    "/>
			<g>
				<polygon fill="none" points="82.417,734.67 82.642,734.887 82.417,734.67     "/>
				<polygon fill="none" points="80.391,734.592 80.336,734.596 80.336,734.596     "/>
				<polygon fill="none" points="75.417,719.748 83.434,722.428 75.417,719.748     "/>
			</g>
			<polygon fill-rule="evenodd" clip-rule="evenodd" fill="#FFFFFF" points="92.582,728.055 92.177,728.074 91.728,728.137      91.325,728.154 90.887,728.191 90.465,728.266 90.017,728.33 89.568,728.394 89.136,728.494 88.705,728.594 88.333,728.715      87.92,728.852 87.533,728.998 87.204,729.164 86.811,729.338 86.489,729.568 86.195,729.805 86.564,730.266 86.846,730.053      87.121,729.869 87.423,729.695 87.771,729.568 88.112,729.375 88.479,729.283 88.907,729.184 89.283,729.064 89.695,729.018      90.062,728.928 90.503,728.889 90.923,728.818 91.372,728.752 91.812,728.715 92.222,728.67 92.653,728.66 92.582,728.055      92.582,728.055 92.582,728.055    "/>
			<polygon fill-rule="evenodd" clip-rule="evenodd" fill="#FFFFFF" points="147.594,723.939 92.582,728.055 92.653,728.66      147.657,724.57 147.594,723.939 147.594,723.939    "/>
			<polygon fill-rule="evenodd" clip-rule="evenodd" fill="#FFFFFF" points="148.619,720.578 148.848,720.9 149.086,721.195      149.196,721.506 149.37,721.81 149.461,722.086 149.491,722.371 149.498,722.617 149.482,722.855 149.415,723.049      149.324,723.232 149.206,723.406 148.993,723.578 148.774,723.691 148.426,723.818 148.06,723.91 147.594,723.939      147.657,724.57 148.162,724.525 148.602,724.396 148.985,724.25 149.324,724.059 149.636,723.855 149.855,723.562      149.975,723.295 150.083,722.967 150.074,722.627 150.095,722.297 150.02,721.965 149.9,721.592 149.763,721.269 149.581,720.9      149.343,720.518 149.105,720.223 148.619,720.578 148.619,720.578    "/>
			<polygon fill-rule="evenodd" clip-rule="evenodd" fill="#FFFFFF" points="142.064,717.441 142.559,717.422 143.06,717.469      143.573,717.578 144.068,717.652 144.535,717.807 145.002,717.965 145.45,718.176 145.873,718.379 146.312,718.615      146.714,718.873 147.146,719.139 147.456,719.396 147.785,719.689 148.107,720.012 148.372,720.312 148.619,720.578      149.105,720.223 148.82,719.883 148.499,719.562 148.18,719.24 147.823,718.938 147.429,718.654 147.036,718.369      146.633,718.111 146.174,717.836 145.698,717.615 145.212,717.422 144.719,717.258 144.196,717.084 143.683,716.973      143.16,716.891 142.566,716.844 142.043,716.852 142.064,717.441 142.064,717.441    "/>
			<polygon fill-rule="evenodd" clip-rule="evenodd" fill="#FFFFFF" points="93.389,719.119 142.064,717.441 142.043,716.852      93.396,718.541 93.389,719.119 93.389,719.119    "/>
			<polygon fill-rule="evenodd" clip-rule="evenodd" fill="#FFFFFF" points="85.704,717.894 86.163,718.08 86.646,718.18      87.115,718.336 87.602,718.438 88.112,718.549 88.591,718.676 89.11,718.76 89.579,718.824 90.065,718.926 90.566,718.971      91.061,719.043 91.548,719.055 92.015,719.119 92.51,719.1 92.957,719.129 93.389,719.119 93.396,718.541 92.939,718.541      92.491,718.514 92.069,718.496 91.593,718.459 91.116,718.422 90.64,718.383 90.174,718.318 89.681,718.246 89.194,718.146      88.728,718.08 88.251,717.951 87.756,717.877 87.28,717.75 86.776,717.611 86.354,717.502 85.888,717.346 85.696,717.924      85.696,717.924 85.704,717.894    "/>
			<polygon fill-rule="evenodd" clip-rule="evenodd" fill="#FFFFFF" points="69.285,713.387 70.12,713.266 70.905,713.193      71.657,713.139 72.344,713.092 72.996,713.064 73.581,713.139 74.187,713.158 74.689,713.203 75.211,713.285 75.696,713.387      76.153,713.479 76.565,713.617 77.005,713.764 77.354,713.91 77.785,714.086 78.124,714.26 78.517,714.451 78.909,714.646      79.295,714.865 79.681,715.088 80.064,715.307 80.468,715.562 80.861,715.758 81.291,716.021 81.769,716.242 82.226,716.518      82.736,716.721 83.231,716.977 83.79,717.225 84.396,717.428 85.036,717.703 85.696,717.924 85.888,717.346 85.228,717.125      84.579,716.877 84.038,716.666 83.471,716.445 82.949,716.18 82.498,715.969 82.041,715.691 81.592,715.48 81.153,715.242      80.741,715.014 80.357,714.795 79.955,714.535 79.569,714.314 79.177,714.123 78.781,713.93 78.424,713.717 78.031,713.525      77.601,713.352 77.198,713.185 76.759,713.039 76.291,712.883 75.807,712.781 75.312,712.707 74.771,712.588 74.214,712.523      73.635,712.514 72.967,712.506 72.326,712.506 71.585,712.533 70.834,712.588 70.036,712.688 69.211,712.779 69.259,713.375      69.259,713.375 69.285,713.387    "/>
			<polygon fill-rule="evenodd" clip-rule="evenodd" fill="#FFFFFF" points="60.3,717.354 60.778,717.025 61.308,716.713      61.841,716.4 62.381,716.06 62.874,715.768 63.434,715.465 63.954,715.182 64.496,714.934 65.073,714.668 65.649,714.402      66.217,714.164 66.804,713.961 67.437,713.807 68.012,713.631 68.645,713.477 69.259,713.375 69.211,712.779 68.524,712.916      67.876,713.035 67.233,713.217 66.629,713.385 66.025,713.641 65.401,713.861 64.835,714.1 64.256,714.365 63.671,714.656      63.112,714.959 62.591,715.244 62.06,715.557 61.526,715.867 60.997,716.18 60.493,716.502 59.989,716.822 60.272,717.344      60.272,717.344 60.3,717.354    "/>
			<polygon fill-rule="evenodd" clip-rule="evenodd" fill="#FFFFFF" points="60.191,718.602 60.501,718.859 60.41,718.584      60.354,718.289 60.282,718.051 60.218,717.785 60.182,717.619 60.154,717.519 60.199,717.383 60.272,717.344 59.989,716.822      59.725,717.068 59.587,717.391 59.551,717.684 59.643,717.959 59.705,718.225 59.779,718.465 59.853,718.703 59.896,718.932      60.182,719.18 59.896,718.932 59.907,719.18 60.182,719.18 60.191,718.602 60.191,718.602    "/>
			<g>
				<polygon fill="none" points="82.663,720.793 82.665,720.795 82.59,721.105     "/>
				<polygon fill="#FFFFFF" points="82.673,720.766 82.665,720.795 82.663,720.793     "/>
				<polygon fill="#FFFFFF" points="82.535,720.904 82.663,720.793 82.59,721.105     "/>
				<g>
					<polygon fill="none" points="141.881,718.816 142.1,718.615 142.429,718.449 142.814,718.394 143.023,718.404 143.263,718.422        143.491,718.467 143.72,718.514 143.994,718.605 144.243,718.688 144.508,718.807 144.793,718.963 145.028,719.074        145.276,719.248 145.497,719.412 145.735,719.615 145.982,719.791 146.155,720.002 146.366,720.193 146.54,720.404        146.861,720.818 147.026,721.24 147.109,721.451 147.154,721.59 147.127,721.947 147.061,722.23 146.86,722.469        146.567,722.615 146.173,722.699 145.954,722.719 145.725,722.67 145.461,722.643 145.176,722.58 144.928,722.496        144.653,722.404 144.36,722.277 144.105,722.129 143.838,722.01 143.554,721.854 143.306,721.68 143.069,721.477        142.849,721.312 142.62,721.082 142.419,720.863 142.244,720.652 141.962,720.221 141.796,719.797 141.751,719.662        141.704,719.432 141.761,719.082      "/>
					<polygon fill="none" points="88.861,720.754 88.861,720.754 88.588,720.879      "/>
					<polygon fill="none" points="90.842,725.76 91.035,725.916 91.051,725.953 90.53,726.604 85.931,726.934 84.934,726.355        84.93,726.346 85.191,726.229 83.234,721.066 83.56,720.742 87.738,720.502 88.623,720.963 90.795,726.082      "/>
					<polygon fill="none" points="75.151,719.199 75.151,719.199 82.847,721.771      "/>
					<g>
						<polygon fill="none" points="141.881,718.816 142.1,718.615 142.429,718.449 142.814,718.394 143.023,718.404         143.263,718.422 143.491,718.467 143.72,718.514 143.994,718.605 144.243,718.688 144.508,718.807 144.793,718.963         145.028,719.074 145.276,719.248 145.497,719.412 145.735,719.615 145.982,719.791 146.155,720.002 146.366,720.193         146.54,720.404 146.861,720.818 147.026,721.24 147.109,721.451 147.154,721.59 147.127,721.947 147.061,722.23         146.86,722.469 146.567,722.615 146.173,722.699 145.954,722.719 145.725,722.67 145.461,722.643 145.176,722.58         144.928,722.496 144.653,722.404 144.36,722.277 144.105,722.129 143.838,722.01 143.554,721.854 143.306,721.68         143.069,721.477 142.849,721.312 142.62,721.082 142.419,720.863 142.244,720.652 141.962,720.221 141.796,719.797         141.751,719.662 141.704,719.432 141.761,719.082       "/>
						<polygon fill="none" points="87.738,720.502 88.623,720.963 90.795,726.082 90.842,725.76 91.035,725.916 91.051,725.953         90.53,726.604 85.931,726.934 84.934,726.355 84.93,726.346 85.191,726.229 83.234,721.066 83.56,720.742       "/>
						<polygon fill="none" points="75.151,719.199 75.151,719.199 82.847,721.771       "/>
						<g>
							<polygon fill="none" points="141.881,718.816 142.1,718.615 142.429,718.449 142.814,718.394 143.023,718.404          143.263,718.422 143.491,718.467 143.72,718.514 143.994,718.605 144.243,718.688 144.508,718.807 144.793,718.963          145.028,719.074 145.276,719.248 145.497,719.412 145.735,719.615 145.982,719.791 146.155,720.002 146.366,720.193          146.54,720.404 146.861,720.818 147.026,721.24 147.109,721.451 147.154,721.59 147.127,721.947 147.061,722.23          146.86,722.469 146.567,722.615 146.173,722.699 145.954,722.719 145.725,722.67 145.461,722.643 145.176,722.58          144.928,722.496 144.653,722.404 144.36,722.277 144.105,722.129 143.838,722.01 143.554,721.854 143.306,721.68          143.069,721.477 142.849,721.312 142.62,721.082 142.419,720.863 142.244,720.652 141.962,720.221 141.796,719.797          141.751,719.662 141.704,719.432 141.761,719.082        "/>
							<polygon fill="none" points="87.738,720.502 88.623,720.963 90.795,726.082 90.842,725.76 91.035,725.916 91.051,725.953          90.535,726.598 90.503,726.32 85.905,726.648 86.106,726.685 85.954,726.932 85.931,726.934 84.934,726.355 84.93,726.346          85.191,726.229 83.234,721.066 83.56,720.742        "/>
							<polygon fill="none" points="75.151,719.199 75.151,719.199 82.847,721.771        "/>
							<g>
								<polygon fill="none" points="90.958,724.945 99.67,727.855 90.958,724.945         "/>
								<polygon fill="none" points="90.731,724.408 100.766,727.764 90.731,724.408         "/>
								<polygon fill="none" points="141.881,718.816 142.1,718.615 142.429,718.449 142.814,718.394 143.023,718.404           143.263,718.422 143.491,718.467 143.72,718.514 143.994,718.605 144.243,718.688 144.508,718.807 144.793,718.963           145.028,719.074 145.276,719.248 145.497,719.412 145.735,719.615 145.982,719.791 146.155,720.002 146.366,720.193           146.54,720.404 146.861,720.818 147.026,721.24 147.109,721.451 147.154,721.59 147.127,721.947 147.061,722.23           146.86,722.469 146.567,722.615 146.173,722.699 145.954,722.719 145.725,722.67 145.461,722.643 145.176,722.58           144.928,722.496 144.653,722.404 144.36,722.277 144.105,722.129 143.838,722.01 143.554,721.854 143.306,721.68           143.069,721.477 142.849,721.312 142.62,721.082 142.419,720.863 142.244,720.652 141.962,720.221 141.796,719.797           141.751,719.662 141.704,719.432 141.761,719.082         "/>
								<polygon fill="none" points="87.738,720.502 88.623,720.963 90.795,726.082 90.842,725.76 91.035,725.916 91.051,725.953           90.535,726.598 90.53,726.604 85.954,726.932 85.931,726.934 84.934,726.355 84.93,726.346 85.191,726.229 83.234,721.066           83.56,720.742         "/>
								<polygon fill="none" points="75.151,719.199 75.151,719.199 82.847,721.771         "/>
								<polygon fill="#FFFFFF" points="90.731,724.408 100.766,727.764 99.679,727.83 99.67,727.855 90.958,724.945         "/>
								<g>
									<polygon fill="none" points="141.881,718.816 142.1,718.615 142.429,718.449 142.814,718.394 143.023,718.404            143.263,718.422 143.491,718.467 143.72,718.514 143.994,718.605 144.243,718.688 144.508,718.807 144.793,718.963            145.028,719.074 145.276,719.248 145.497,719.412 145.735,719.615 145.982,719.791 146.155,720.002 146.366,720.193            146.54,720.404 146.861,720.818 147.026,721.24 147.109,721.451 147.154,721.59 147.127,721.947 147.061,722.23            146.86,722.469 146.567,722.615 146.173,722.699 145.954,722.719 145.725,722.67 145.461,722.643 145.176,722.58            144.928,722.496 144.653,722.404 144.36,722.277 144.105,722.129 143.838,722.01 143.554,721.854 143.306,721.68            143.069,721.477 142.849,721.312 142.62,721.082 142.419,720.863 142.244,720.652 141.962,720.221 141.796,719.797            141.751,719.662 141.704,719.432 141.761,719.082          "/>
									<polygon fill="none" points="87.738,720.502 88.623,720.963 90.724,725.91 90.396,726.328 85.905,726.648 86.106,726.685            85.954,726.932 85.931,726.934 84.934,726.355 84.93,726.346 85.191,726.229 83.234,721.066 83.56,720.742          "/>
									<polygon fill="none" points="90.842,725.76 91.035,725.916 91.035,725.916          "/>
									<polygon fill="none" points="75.151,719.199 75.151,719.199 82.847,721.771          "/>
									<path fill="#FFFFFF" d="M60.182,719.18l12.747-0.418l0.267,0.027l0.246,0.084l0.331,0.109l0.302,0.102l0.275,0.184           l0.2,0.129l0.118,0.193l0.092,0.09l5.071,15.307l0.074,0.24l0.247-0.01l0.256-0.037l0.292,0.037l0.358,0.027l0.339-0.01           l0.329,0.018l0.303-0.082l0.34-0.1l0.272-0.184l0.331-0.35l0.274-0.365l0.256-0.312l0.257-0.311l0.222-0.295l0.209-0.266           l0.184-0.275l0.219-0.293l0.184-0.275l0.211-0.266l0.212-0.266l0.228-0.23l0.238-0.256l0.274-0.275l0.275-0.275l0.35-0.311           l-0.188-0.234l0.278-0.227l0.309-0.201l0.36-0.156l0.329-0.164l0.356-0.156l0.402-0.109l0.414-0.139l0.402-0.109           l0.384-0.055l0.422-0.074l0.449-0.064l0.42-0.072l0.438-0.037l0.442-0.035l0.411-0.045l0.403-0.02l7.071-0.512l-8.712-2.91           l-0.227-0.537l0,0l10.034,3.355l46.874-3.506l0.869-0.137l0.65-0.303l0.449-0.432l0.165-0.494v-0.551l0.01-0.027           l-0.157-0.633l-0.311-0.623l-0.45-0.67l-0.264-0.305l-0.294-0.311l-0.321-0.32l-0.337-0.268l-0.358-0.301l-0.402-0.26           l-0.43-0.266l-0.43-0.266l-0.459-0.184l-0.451-0.213l-0.493-0.164l-0.521-0.176l-0.494-0.072l-0.515-0.111l-0.53-0.055           l-0.523,0.008l-7.076,0.266l-41.57,1.424h-0.457l-0.43,0.01l-0.486-0.012l-0.466-0.062l-0.478-0.037l-0.477-0.039           l-0.467-0.062l-0.495-0.074l-0.494-0.072l-0.483-0.102l-0.486-0.102l-0.485-0.102l-0.504-0.137l-0.477-0.129l-0.448-0.119           l-0.467-0.156l-0.66-0.223l-0.649-0.246l-0.569-0.221l-0.564-0.219l-0.497-0.26l-0.477-0.219l-0.494-0.258l-0.451-0.211           l-0.428-0.266l-0.385-0.221l-0.413-0.23l-0.385-0.221l-0.41-0.229l-0.386-0.221l-0.365-0.184l-0.386-0.221l-0.394-0.191           l-0.403-0.166l-0.386-0.129l-0.438-0.146l-0.469-0.156l-0.447-0.119l-0.493-0.076l-0.522-0.08l-0.53-0.055l-0.599-0.047           l-0.631-0.029l-0.65,0.029l-0.678,0.018l-0.759,0.082l-0.787,0.072l-0.861,0.111l-0.642,0.092l-0.631,0.154l-0.635,0.154           l-0.585,0.203l-0.623,0.221l-0.594,0.228l-0.568,0.238l-0.578,0.266l-0.548,0.277l-0.56,0.301l8.895,2.975l-11.972,0.4           L60.182,719.18z M141.704,719.432l0.057-0.35l0.12-0.266l0.219-0.201l0.329-0.166l0.385-0.055l0.21,0.01l0.239,0.018           l0.229,0.045l0.229,0.047l0.274,0.092l0.249,0.082l0.265,0.119l0.285,0.156l0.235,0.111l0.248,0.174l0.221,0.164           l0.238,0.203l0.247,0.176l0.173,0.211l0.211,0.191l0.174,0.211l0.321,0.414l0.165,0.422l0.083,0.211l0.045,0.139           l-0.027,0.357l-0.066,0.283l-0.2,0.238l-0.293,0.146l-0.395,0.084l-0.219,0.019l-0.23-0.049l-0.264-0.027l-0.285-0.062           l-0.248-0.084l-0.274-0.092l-0.293-0.127l-0.255-0.148l-0.268-0.119l-0.284-0.156l-0.248-0.174l-0.236-0.203l-0.221-0.164           l-0.229-0.231l-0.201-0.219l-0.175-0.211l-0.282-0.432l-0.166-0.424l-0.045-0.135L141.704,719.432z M91.035,725.916           L91.035,725.916l-0.193-0.156L91.035,725.916z M83.234,721.066l0.325-0.324l4.179-0.24l0.885,0.461l2.101,4.947           l-0.327,0.418l-4.491,0.32l0.201,0.037l-0.152,0.246l-0.023,0.002l-0.997-0.578l-0.004-0.01l0.262-0.117L83.234,721.066z"/>
								</g>
							</g>
						</g>
					</g>
				</g>
			</g>
			<polygon fill-rule="evenodd" clip-rule="evenodd" points="138.875,722.613 138.617,722.467 138.573,722.236 138.939,722.144      139.012,722.385 138.792,722.219 138.875,722.613 138.875,722.613    "/>
			<polygon fill-rule="evenodd" clip-rule="evenodd" points="139.37,722.32 139.314,722.393 139.221,722.484 139.112,722.539      139.004,722.596 138.875,722.613 138.792,722.219 138.848,722.236 138.932,722.172 139.031,722.144 139.039,722.117      139.021,722.172 139.36,722.348 139.36,722.348 139.37,722.32    "/>
			<polygon fill-rule="evenodd" clip-rule="evenodd" points="138.334,720.016 138.363,720.025 138.536,720.236 138.765,720.467      138.985,720.723 139.193,721.008 139.368,721.31 139.469,721.65 139.472,722.018 139.36,722.348 139.021,722.172      139.096,721.953 139.077,721.732 139.012,721.467 138.848,721.229 138.666,720.953 138.464,720.734 138.234,720.502      138.06,720.293 138.087,720.303 138.334,720.016 138.334,720.016    "/>
			<polygon fill-rule="evenodd" clip-rule="evenodd" points="134.967,719.043 134.938,719.033 135.424,719.043 135.88,719.043      136.312,719.127 136.725,719.172 137.146,719.281 137.537,719.475 137.949,719.705 138.334,720.016 138.087,720.303      137.712,720.053 137.354,719.842 137.017,719.668 136.648,719.576 136.248,719.502 135.836,719.457 135.414,719.438      134.983,719.445 134.994,719.418 134.928,719.06 134.928,719.06 134.967,719.043    "/>
			<polygon fill-rule="evenodd" clip-rule="evenodd" points="99.231,720.92 99.388,720.818 134.928,719.06 134.994,719.418      99.439,721.203 99.597,721.104 99.231,720.92 99.231,720.92    "/>
			<polygon fill-rule="evenodd" clip-rule="evenodd" points="98.387,722.168 98.004,722.039 98.031,721.771 98.103,721.553      98.215,721.314 98.36,721.148 98.554,721.029 98.799,720.93 99.074,720.838 99.388,720.818 99.439,721.203 99.147,721.258      98.882,721.322 98.755,721.34 98.627,721.451 98.563,721.553 98.46,721.672 98.406,721.836 98.416,722.084 98.031,721.955      98.387,722.168 98.387,722.168    "/>
			<g>
				<polygon fill="none" points="99.388,720.83 99.439,721.203 99.388,720.83     "/>
				<g>
					<polygon fill="none" points="98.416,722.084 98.46,721.855 98.571,721.615 98.662,721.434 98.855,721.314 99.084,721.266        99.405,721.223 99.439,721.203 134.994,719.418 135.586,719.465 136.083,719.445 136.55,719.512 136.98,719.594        137.374,719.787 137.729,719.998 138.06,720.293 138.438,720.723 138.765,721.109 139.004,721.494 139.123,721.777        139.123,721.963 139.039,722.117 138.811,722.256 138.382,722.355 137.777,722.428 101.244,724.316 101.217,724.305        100.704,724.287 100.201,724.148 99.752,723.939 99.366,723.719 99.048,723.396 98.818,723.076 98.617,722.766 98.46,722.496        98.434,722.305      "/>
					<g>
						<path fill="none" d="M98.46,721.855l-0.044,0.229l0.018,0.221l0.026,0.191l0.157,0.27l0.201,0.311l0.229,0.32l0.318,0.322        l0.386,0.221l0.449,0.209l0.503,0.139l0.513,0.018l0.027,0.012l36.533-1.889l0.604-0.072l0.429-0.1l0.229-0.139l0.084-0.154        v-0.186l-0.119-0.283l-0.239-0.385l-0.327-0.387l-0.378-0.43l-0.331-0.295l-0.354-0.211l-0.395-0.193l-0.43-0.082        l-0.467-0.066l-0.497,0.019l-0.592-0.047l-35.555,1.785l-0.034,0.019l-0.321,0.043l-0.229,0.049l-0.193,0.119l-0.091,0.182        L98.46,721.855z M98.963,721.625l35.555-1.783l0.018-0.057l0.477,0.037h0.456l0.432,0.084l0.412,0.045l0.422,0.111        l0.394,0.191l0.383,0.223l0.412,0.318l0.155,0.176l0.138,0.137l0.129,0.166l0.111,0.129l0.154,0.174l0.12,0.193l0.099,0.156        l0.104,0.156l0.007,0.062l-0.365,0.092l0.007,0.066l-0.091-0.185l-0.099-0.154l-0.139-0.137l-0.102-0.158l-0.108-0.127        l-0.13-0.166l-0.135-0.139l-0.164-0.147l0.01-0.012l-0.324-0.244l-0.348-0.24l-0.348-0.146l-0.364-0.092l-0.403-0.074        l-0.415-0.047l-0.447-0.027l-0.429,0.01l-35.543,1.758L98.963,721.625z"/>
						<g>
							<path fill="none" d="M98.46,721.855l-0.044,0.229l0.018,0.221l0.026,0.191l0.157,0.27l0.201,0.311l0.229,0.32l0.318,0.322         l0.386,0.221l0.449,0.209l0.503,0.139l0.513,0.018l0.027,0.012l36.533-1.889l0.604-0.072l0.429-0.1l0.229-0.139l0.084-0.154         v-0.186l-0.119-0.283l-0.239-0.385l-0.327-0.387l-0.378-0.43l-0.331-0.295l-0.354-0.211l-0.395-0.193l-0.43-0.082         l-0.467-0.066l-0.497,0.019l-0.592-0.047l-35.555,1.785l-0.034,0.019l-0.321,0.043l-0.229,0.049l-0.193,0.119l-0.091,0.182         L98.46,721.855z"/>
							<g>
								<polygon fill="none" points="98.571,721.615 98.662,721.434 98.855,721.314 99.084,721.266 99.294,721.238 99.002,721.791           134.552,720.006 135.012,720.006 135.433,720.025 135.863,720.107 136.275,720.154 136.668,720.254 137.044,720.41           137.42,720.658 137.787,720.934 137.912,721.1 138.051,721.236 138.18,721.402 138.317,721.541 138.416,721.695           138.546,721.861 138.648,722.018 138.765,722.209 138.78,722.264 138.382,722.355 137.777,722.428 101.244,724.316           101.217,724.305 100.704,724.287 100.201,724.148 99.752,723.939 99.366,723.719 99.048,723.396 98.818,723.076           98.617,722.766 98.46,722.496 98.434,722.305 98.416,722.084 98.46,721.855         "/>
								<polygon points="138.648,722.018 138.546,721.861 138.416,721.695 138.317,721.541 138.18,721.402 138.051,721.236           137.912,721.1 137.787,720.934 137.42,720.658 137.044,720.41 136.668,720.254 136.275,720.154 135.863,720.107           135.433,720.025 135.012,720.006 134.552,720.006 99.002,721.791 99.294,721.238 99.405,721.223 99.439,721.203           134.994,719.418 135.586,719.465 136.083,719.445 136.55,719.512 136.98,719.594 137.374,719.787 137.729,719.998           138.06,720.293 138.438,720.723 138.765,721.109 139.004,721.494 139.123,721.777 139.123,721.963 139.039,722.117           138.811,722.256 138.78,722.264 138.765,722.209         "/>
								<g>
									<polygon fill="none" points="98.478,721.818 98.508,721.81 98.688,721.81 99.002,721.791 99.299,721.236 99.405,721.223            99.439,721.203 134.994,719.418 135.586,719.465 136.083,719.445 136.55,719.512 136.98,719.594 137.374,719.787            137.729,719.998 138.06,720.293 138.438,720.723 138.765,721.109 139.004,721.494 139.123,721.777 139.123,721.963            139.039,722.117 138.811,722.256 138.78,722.264 138.382,722.355 137.777,722.428 101.244,724.316 101.217,724.305            100.704,724.287 100.201,724.148 99.752,723.939 99.366,723.719 99.048,723.396 98.818,723.076 98.617,722.766            98.46,722.496 98.434,722.305 98.416,722.084 98.46,721.855          "/>
									<path d="M98.004,722.039l0.036,0.348l0.073,0.24l0.102,0.338l0.236,0.385l0.293,0.312l0.374,0.34l0.451,0.303l0.502,0.23           l0.531,0.145l0.642,0.002l36.522-1.857l0.693-0.072l0.496-0.111l0.358-0.248l0.2-0.33l-0.007-0.338l-0.14-0.414           l-0.263-0.394l-0.368-0.461l-0.374-0.43l-0.403-0.35l-0.431-0.264l-0.419-0.203l-0.462-0.092l-0.547-0.092h-0.551           l-0.623,0.035l-35.54,1.758v0.012l-0.378,0.016l-0.383,0.146l-0.257,0.221l-0.175,0.248l-0.12,0.266L98.004,722.039z            M98.416,722.084l0.044-0.229l0.018-0.037l0.03-0.008h0.181l0.313-0.019l0.297-0.555l0.106-0.014l0.034-0.019l35.555-1.785           l0.592,0.047l0.497-0.019l0.467,0.066l0.43,0.082l0.395,0.193l0.354,0.211l0.331,0.295l0.378,0.43l0.327,0.387l0.239,0.385           l0.119,0.283v0.186l-0.084,0.154l-0.229,0.139l-0.03,0.008l-0.398,0.092l-0.604,0.072l-36.533,1.889l-0.027-0.012           l-0.513-0.018l-0.503-0.139l-0.449-0.209l-0.386-0.221l-0.318-0.322l-0.229-0.32l-0.201-0.311l-0.157-0.27l-0.026-0.191           L98.416,722.084z"/>
								</g>
							</g>
						</g>
					</g>
				</g>
			</g>
		</g>
	</g>
</g>
</g></svg>