<svg id="Layer_1" data-name="Layer 1" xmlns="http://www.w3.org/2000/svg" version="1.1" viewBox="0 0 2475 3075" width="2475" height="3075"><g transform="translate(0, 1321.6452205882354) scale(10.110294117647058)">
  <defs>
    <style>
      .cls-1 {
        fill: #ec1c24;
        font-size: 11.2px;
      }

      .cls-1, .cls-2, .cls-3, .cls-4 {
        font-family: Arial-Black, 'Arial Black';
        font-weight: 800;
      }

      .cls-5 {
        font-size: 7.8px;
        letter-spacing: 0em;
      }

      .cls-6 {
        stroke-dasharray: 0 0 5 5;
      }

      .cls-6, .cls-7, .cls-8, .cls-9, .cls-10, .cls-11, .cls-12, .cls-13 {
        fill: none;
      }

      .cls-6, .cls-7, .cls-9, .cls-12, .cls-13 {
        stroke-miterlimit: 10;
      }

      .cls-6, .cls-12, .cls-13 {
        stroke: #26aae1;
      }

      .cls-2 {
        font-size: 8.2px;
      }

      .cls-2, .cls-3 {
        fill: #221f1f;
      }

      .cls-7 {
        stroke: #ec1c24;
      }

      .cls-14, .cls-15, .cls-16, .cls-17, .cls-18, .cls-19 {
        font-family: Arial-BoldMT, Arial;
        font-weight: 700;
      }

      .cls-14, .cls-15, .cls-18, .cls-19 {
        font-size: 7.1px;
      }

      .cls-14, .cls-20 {
        fill: #b9529f;
      }

      .cls-21, .cls-22, .cls-23, .cls-24, .cls-25, .cls-20, .cls-26, .cls-27, .cls-28, .cls-29, .cls-30, .cls-31 {
        stroke-width: 0px;
      }

      .cls-21, .cls-26 {
        fill: #4c4849;
      }

      .cls-15 {
        fill: #2ca1da;
      }

      .cls-8 {
        stroke: #2ba3dc;
        stroke-dasharray: 0 5;
      }

      .cls-22 {
        fill: #e7242c;
      }

      .cls-16 {
        fill: #ed2224;
        font-size: 7px;
      }

      .cls-23 {
        fill: #10ab4b;
      }

      .cls-24 {
        fill: #e6e5e5;
      }

      .cls-9 {
        stroke: #b9529f;
      }

      .cls-25, .cls-30 {
        fill: #000;
      }

      .cls-3, .cls-4 {
        font-size: 8.3px;
      }

      .cls-17, .cls-4, .cls-31 {
        fill: #231f20;
      }

      .cls-10 {
        stroke: #9b9b9b;
      }

      .cls-20 {
        opacity: .2;
      }

      .cls-20, .cls-4 {
        isolation: isolate;
      }

      .cls-26, .cls-27, .cls-28, .cls-30 {
        fill-rule: evenodd;
      }

      .cls-11 {
        stroke: red;
      }

      .cls-32 {
        font-size: 11.2px;
      }

      .cls-27 {
        fill: #b6d233;
      }

      .cls-33 {
        opacity: .5;
      }

      .cls-18 {
        fill: #6f6f6f;
      }

      .cls-28, .cls-29 {
        fill: #fff;
      }

      .cls-19 {
        fill: red;
      }

      .cls-13 {
        stroke-dasharray: 0 0 5 5;
      }
    </style>
  </defs>
  <path class="cls-20" d="M9,18v702c0,5,4,9,9,9h558c5,0,9-4,9-9V9.2c0,0,0-.2-.2-.2H18c-5,0-9,4-9,9ZM549,693H45V45h504v648Z"/>
  <g id="Safe_Zone" data-name="Safe Zone">
    <g>
      <polyline class="cls-12" points="47.5 693 45 693 45 690.5"/>
      <line class="cls-6" x1="45" y1="685.5" x2="45" y2="50"/>
      <polyline class="cls-12" points="45 47.5 45 45 47.5 45"/>
      <line class="cls-13" x1="52.5" y1="45" x2="544" y2="45"/>
      <polyline class="cls-12" points="546.5 45 549 45 549 47.5"/>
      <line class="cls-6" x1="549" y1="52.5" x2="549" y2="688"/>
      <polyline class="cls-12" points="549 690.5 549 693 546.5 693"/>
      <line class="cls-13" x1="541.5" y1="693" x2="50" y2="693"/>
    </g>
  </g>
  <g class="cls-33">
    <path class="cls-31" d="M594,0H0s0,738,0,738h594s0-738,0-738ZM576.2,729.2H18.2c-5,0-9-4-9-9V18.2c0-5,4-9,9-9h566.7c.2,0,.3.1.3.3v710.7c0,5-4,9-9,9Z"/>
  </g>
  <path class="cls-7" d="M585,720c0,5-4,9-9,9H18c-5,0-9-4-9-9V18c0-4.9,4-9,9-9h566.6c.2,0,.4.2.4.4v710.6Z"/>
  <line class="cls-11" x1="337.6" y1="178.3" x2="584.8" y2="178.3"/>
  <path class="cls-22" d="M343.6,169c0,.5-.2.9-.6,1.3h0c0,0-3.6,3.9-3.6,3.9-.8.8-1.4,1.4-1.9,1.9-.5.4-.9.6-1.1.6s-.5-.1-.9-.3c-.3-.2-.6-.4-.7-.7,0-.2-.2-.6-.2-1.2,0-.6-.1-1.3-.1-2s.2-.8.5-1.1c.3-.3.7-.5,1.1-.5s.6.4.7,1.1c0,0,0,.1,0,.2,0,.5.1.9.2,1.1,0,.2.2.3.3.3s.2,0,.3-.2c.2-.1.4-.3.6-.5l3.7-3.7c.3-.3.6-.5.8-.7.2-.2.4-.2.6-.2s.2,0,.3.1c0,0,0,.3,0,.5v.2Z"/>
  
  <line class="cls-10" x1="337.6" y1="154.2" x2="591.3" y2="154.2"/>
  <path class="cls-22" d="M343.6,144.8c0,.5-.2.9-.6,1.3h0c0,0-3.6,3.9-3.6,3.9-.8.8-1.4,1.4-1.9,1.9-.5.4-.9.6-1.1.6s-.5-.1-.9-.3c-.3-.2-.6-.4-.7-.7,0-.2-.2-.6-.2-1.2,0-.6-.1-1.3-.1-2s.2-.8.5-1.1c.3-.3.7-.5,1.1-.5s.6.4.7,1.1c0,0,0,.1,0,.2,0,.5.1.9.2,1.1,0,.2.2.3.3.3s.2,0,.3-.2c.2-.1.4-.3.6-.5l3.7-3.7c.3-.3.6-.5.8-.7.2-.2.4-.2.6-.2s.2,0,.3.1c0,0,0,.3,0,.5v.2Z"/>
  
  <g>
    <g>
      <line class="cls-8" x1="574.2" y1="204" x2="571.3" y2="204"/>
      <line class="cls-8" x1="565.6" y1="204" x2="343.3" y2="204"/>
      <line class="cls-8" x1="340.5" y1="204" x2="337.6" y2="204"/>
    </g>
    
    <path class="cls-22" d="M343.6,195.7c0,.5-.2.9-.6,1.3h0c0,0-3.6,3.9-3.6,3.9-.8.8-1.4,1.4-1.9,1.9-.5.4-.9.6-1.1.6s-.5-.1-.9-.3c-.3-.2-.6-.4-.7-.7,0-.2-.2-.6-.2-1.2,0-.6-.1-1.3-.1-2s.2-.8.5-1.1c.3-.3.7-.5,1.1-.5s.6.4.7,1.1c0,0,0,.1,0,.2,0,.5.1.9.2,1.1,0,.2.2.3.3.3s.2,0,.3-.2c.2-.1.4-.3.6-.5l3.7-3.7c.3-.3.6-.5.8-.7.2-.2.4-.2.6-.2s.2,0,.3.1c0,0,0,.3,0,.5v.2Z"/>
  </g>
  <g>
    <rect class="cls-24" x="54" y="54" width="244.8" height="42.7"/>
    
    <g>
      <path class="cls-30" d="M98.5,75.3c0,10.6-8.7,19.2-19.4,19.2s-19.4-8.6-19.4-19.2,8.7-19.2,19.4-19.2,19.4,8.6,19.4,19.2"/>
      <path class="cls-27" d="M96.7,75.4c0,9.7-7.9,17.5-17.6,17.5s-17.6-7.8-17.6-17.5,7.9-17.5,17.6-17.5,17.6,7.8,17.6,17.5"/>
      <path class="cls-25" d="M75.3,71.6c-.2,2.1-.4,3.9-.5,5.2h-.8s0,0,0-.1c0,0,0-.2-.1-.4,0-.2-.1-.3-.1-.3-.2,0-.4.2-.6.4-.2.3-.4.4-.5.4,0,0-.2,0-.3,0-.1,0-.3.1-.6.1-.2,0-.4,0-.6,0,0-.3-.3-.5-.8-.7,0-.1,0-.3-.2-.5-.1-.2-.2-.4-.2-.4,0,0,0-.2.1-.2,0,0-.1-.2-.3-.6-.1-.3-.2-.5-.2-.7,0-.2,0-.3.1-.4,0-.9-.1-1.7-.1-2.4,0-1,.2-2,.4-2.8,0-.1,0-.3,0-.4,0-.7.2-1.2.7-1.4v-.2c.5-.6,1.1-1,1.8-1.3.4.1.9.2,1.3.3.5.2.8.5,1,.9.2,0,.2.3.2.5,0,.3,0,.5.1.6h0c0,.7.1,1.1.1,1.3,0,.4-.1.7-.3.9,0,0-.3,0-.6-.2,0,0-.2.1-.2.1,0,0-.1,0-.2,0-.1,0-.2,0-.3,0,0,0-.1,0-.2,0,0-.9,0-1.5,0-1.9,0,0-.2-.2-.3-.4,0-.2-.2-.3-.3-.3,0,.1-.1.2-.1.2h-.3c-.3.2-.4.7-.5,1.4,0,.8-.2,1.4-.3,1.6.1.1.2.3.2.5,0,0,0,.2,0,.4,0,.2,0,.3,0,.4,0,0,0,.2,0,.3l-.2.2c0,.4.1.8.1,1.4,0,.5,0,1,0,1.4,0,0-.1,0-.3,0-.1,0-.2,0-.2.1,0,0,.1,0,.2,0,.2,0,.4.2.6.5.1.3.3.5.4.5.1,0,.3,0,.4-.3.3-.3.5-.8.5-1.4,0-.3,0-.6-.1-.9,0,0-.1.2-.1.3-.2,0-.3,0-.3.1,0,0-.1,0,0-.2,0-.1,0-.2,0-.2.1,0,.2,0,.2-.2,0,0,0,0,0-.2,0,0,0-.2,0-.2,0,0,0,0,0-.1v-.6c.3,0,.8,0,1.6,0,0,0,0,.1,0,.2,0,0,.2-.1.2-.1,0,0,.2,0,.3,0,.1,0,.2,0,.3,0"/>
      <path class="cls-25" d="M81.5,77.2c-.2,0-.3-.1-.5-.1-.2,0-.4,0-.6,0-.3,0-.5,0-.6.1-.1-.2-.2-.5-.2-.9,0-.6-.1-.9-.2-1,0,0,0-.1,0-.2,0-.1,0-.2-.3-.3-.2,0-.3-.2-.3-.2,0,0,.1-.2.3-.3,0,0,0-.2-.1-.4,0-.2,0-.3-.2-.4-.1.1-.3.2-.6.2-.3,0-.5,0-.6.1,0,.8-.1,1.4-.4,1.7-.2,0-.3,0-.3.2-.1.2-.2.3-.3.3h0c0,.2-.2.2-.4.2-.3,0-.5,0-.5,0v-.3c0,0,1-8.8,1-8.8,0-.6,0-.9,0-1.1,0-.5.1-.8.3-.9.2,0,.3.2.6.2.2,0,.5,0,.9-.1.4,0,.7-.1.8-.1.5,0,.8.4.7,1.2,0,.6,0,1.4.3,2.4.3,1.1.4,1.9.4,2.4,0,.2,0,.5,0,.7-.2.1-.5.2-.9.2-.3,0-.6,0-1,0,0-.8-.2-1.8-.3-2.6-.1-1-.2-1.8-.4-2.4l-.5,4.6c0,.4.1.6.5.6.1,0,.3,0,.4,0,0,0,.2,0,.4.2,0,.3,0,.5.2.6.2-.1.4-.2.7-.3.3,0,.5-.2.7-.3.1.2.2.5.3.8,0,.5,0,.8.1.9,0,.2.1.7.3,1.3.1.5.2,1,.2,1.3,0,.2,0,.3,0,.5"/>
      <path class="cls-25" d="M89,69.5s0,.2,0,.6c0,.3,0,.5-.1.6,0,.2-.1.5-.1.9,0,0,0,.2,0,.4,0,.2,0,.3,0,.4,0,.7-.1,1.2-.4,1.5,0,.2,0,.4,0,.5,0,.5-.2,1.3-.6,2.2,0,0-.2,0-.2,0-.1,0-.2,0-.3-.2,0-.1-.1-.3-.2-.4,0-.8,0-2.1,0-3.6h0c0-.4-.1-.7,0-1,0-.2,0-.6,0-1.1,0-.5,0-.8,0-1.1,0-.1,0-.3,0-.4-.4.9-.6,2.4-.8,4.5v.3c-.2.1-.3.2-.4.2,0,0,0-.1-.1-.1s0,0-.2.1c0,0-.2.1-.2.1l-.2.2c0,.1.3.1.6,0,.3,0,.4,0,.4.3,0,.2,0,.5-.2.9-.1.4-.2.6-.2.8,0,.1,0,.3,0,.4l-1.1.2c-.1-.2-.2-.6-.2-1.1,0-.5-.1-.9-.2-1.1,0,0,0-.2.1-.2,0,0,0-.2,0-.3,0-.2-.1-.3-.1-.3,0-.1,0-.4-.1-.9,0-.4,0-.7,0-.9,0-.1,0-.2,0-.3,0,0,0-.2-.1-.3,0-.1-.1-.3-.1-.3s0,0,0-.1c0,0-.1-.2,0-.5,0-.2,0-.4,0-.5-.2.4-.2,1-.3,1.7,0,1,0,1.6,0,1.7h.1c0,.1-.1.2-.1.2,0,.4.1.9.1,1.5,0,1.1,0,1.6,0,1.5-.2.1-.4.2-.6.2-.3,0-.6,0-.7,0-.1-.2-.2-.5-.2-.9,0-.3,0-.6.1-1.1-.1-.3-.2-.7-.2-1.1,0-.1,0-.3,0-.7,0-.3,0-.5,0-.6.1,0,.2-.1.2-.2s0-.1-.1-.2c0-.1-.1-.2-.1-.2,0,0,0-.1.1-.2l-.4-5.3c.2-.1.5-.2,1-.2.5,0,.9,0,1,0,0,0,0,0,.1,0,0,0,0,0,.2,0,0,0,.1,0,.1,0,0,0,0,0,.1,0l.3.3c.1.4.2,1.1.3,2.2,0,.9.2,1.7.4,2.1.3-1,.5-1.8.7-2.4l.4-2.6h2.5c0,0,0,.8.1,1.3,0,.4,0,.7,0,.9,0,.3,0,.5-.1.7,0,.1.1.3.1.5,0,.2,0,.3-.1.5"/>
      <path class="cls-25" d="M94.2,75.2h0c0,.1-.1.3-.1.5,0,.1,0,.3,0,.5,0,.2,0,.4,0,.5,0,0-.4,0-1,0-.4,0-.7,0-1,0l-.3-.3c0,0-.1.2,0,.2,0,0-.3,0-.8,0-.4,0-.6,0-.8-.1-.2.2-.4.2-.6,0,0,0,0-.2,0-.3,0-.2,0-.3,0-.4,0-.3,0-.9.1-1.6,0-.7.1-1.2.1-1.5,0-.5,0-1-.1-1.4.1-.1.3-.2.4-.2.2,0,.4,0,.6.3.3.2.5.4.5.4h0c0,0,0,0,.2-.4,0-.2.1-.3.3-.4h0c0,0,.2,0,.4-.2.2-.1.3-.4.4-.4.1,0,.2,0,.3.2.2.1.3.5.4.7,0,.2.1.4.2.6-.5,0-.9,0-1.2,0,0,.1-.2.1-.3,0-.1,0-.2,0-.3,0,0,.2,0,.5,0,1.1,0,.5,0,.8,0,1.1,0,.4,0,.8,0,1.1,0,0,.5,0,1.2,0,.5,0,1,0,1.3.1M94.2,67.4c0,0-.2,0-.3,0-.2,0-.6,0-1-.1-.5,0-.8-.1-.9-.1-.2.2-.2.5-.2,1,0,.9,0,1.3,0,1.2.2,0,.2.3.2.5,0,.3,0,.5,0,.5,0,0-.1.1-.1.3-.1,0-.2-.1-.4-.3-.2-.2-.3.4-.3.3v.3c-.1,0-.2,0-.2,0,0,0-.2,0-.4-.1-.2-.1-.4-.2-.4-.3,0-.2,0-.3,0-.3l-.2-.2h-.1c-.1-1,0-3.1,0-4.3.4,0,.9.1,1.4.1.3,0,.8,0,1.4,0s1.2,0,1.5,0c.1.1.2.3.2.5,0,.1,0,.3-.1.6,0,.3,0,.5-.1.6"/>
      <path class="cls-25" d="M75.8,85h0s0,.2,0,.7c0,.3,0,.5-.2.7h0c-.1.2-.3.4-.5.4-.1.1-.3.2-.5.2-.1,0-.4,0-.8-.1-.2-.1-.3-.2-.4-.2-.1,0-.2-.2-.2-.3-.1-.1-.3-.4-.4-.7,0-.3-.1-.3-.2-.5-.1,0-.2-.1-.2-.2h0c0,0,0-.1,0-.1,0,0,0,0,0-.1,0,0,0,0,0-.1,0,0,0,0,0-.1,0-.3,0-.6.1-1.2,0,0,.1-.1.1-.3,0-.1,0-.2,0-.3.2-.4.5-.7,1-.8,0,0,.2,0,.4,0,.2,0,.3,0,.4,0,.1,0,.3,0,.4.1.1,0,.2.2.4.3.2.2.4.5.4.8,0,.1,0,.2,0,.3-.2,0-.3.1-.4.3h-.7c0,0-.1-.2-.1-.3,0,0,0-.1,0-.2,0-.1,0-.2,0-.2,0-.2,0-.3-.1-.4h-.2c0,0-.1,0-.1,0,0,0,0,0,0,0,0,0,0,0,0,0,0,0,0-.1-.2-.1,0,.7-.1,1.5,0,2.3,0,0,0,0,.2,0,0,0,.1,0,.1,0,0,0,0,0,0,0h0c0,.1,0,.2,0,.3,0,0,0,.1,0,.2,0,.1,0,.2,0,.2,0,.2,0,.3.1.4,0,.1,0,.2.1.2,0,0,.1,0,.2,0,.2,0,.3,0,.4.3,0,0,0,0,0,.1,0,0,0,0,0,0,0,0,.1-.1.1-.3,0-.2,0-.3,0-.3,0,0,0-.2-.1-.3,0-.1-.1-.2-.1-.3,0,0,0-.2,0-.2,0,0,0,0,0,0,0,0,0-.1,0-.1.4,0,.7,0,1.1,0"/>
      <path class="cls-25" d="M78.8,85.6h0c0,0,0,.2,0,.3,0,.2,0,.3,0,.3,0,0,0,0-.1,0,0,0-.1,0-.1.1,0,0,0,0,0,0h0c0,.1,0,.2,0,.2,0,0-.2,0-.3,0-.1,0-.3,0-.4,0,0-.7,0-1.3-.3-1.9,0,0,0,0,0-.2,0,0,0-.2,0-.2h0s0,0,0,0c0,0,0,0,0,0,0,0,0,0,0,0h0c-.1,0-.2,0-.2.2,0,0,0,.2-.1.2,0,0,0,0,0,0,0,0,0,0,0,0,0,0,0,0,0,0,0,0,0,0,0,.1,0,0,0,.3,0,.8,0,.3,0,.6,0,.8h0c0,.1,0,.1-.1.1,0,0-.1,0-.3,0-.1,0-.2,0-.2,0-.2,0-.4,0-.5-.1v-2.7c-.1-.1-.2-.3-.2-.5v-.5c0-.3,0-.4-.1-.6,0,0,0-.1.2-.1,0,0,.2,0,.4,0,0,0,.2,0,.3,0,0,0,0,0,.2,0,0,0,.1,0,.2,0,.2,0,.4,0,.5-.2.1,0,.2,0,.4.1.1,0,.2.1.3.1.3.1.4.4.4.7,0,0,0,.4,0,.9l-.4.4c0,.1.2.4.3.9,0,.4.2.7.4.8M78,82.6h0s0,0,0-.3c0-.1,0-.2-.1-.3,0,0,0,.1,0,.3,0,.2-.1.1-.2.2-.2,0-.2,0-.2,0,0-.2-.1-.2-.1-.2h0c0,0,0,0,0,.1,0,0,0,0,0,0,0,0,0,0,0,.1,0,0,0,.1,0,.1,0,0,0,0,.1,0,0,0,0,.2,0,.3,0,0,0,.2,0,.4,0,.2,0,.3,0,.4,0,0,.1,0,.2,0,.2,0,.3,0,.4-.2,0,0,0-.2,0-.5,0-.2,0-.3.2-.4"/>
      <path class="cls-25" d="M82.2,86.6c0,0-.2,0-.3,0,0,0-.2,0-.3,0-.2,0-.3,0-.3,0,0,0-.1-.2-.2-.4,0-.3-.1-.4-.1-.4,0,0,0,0,0,0,0,0,0,0-.2-.1-.1,0-.2,0-.2,0,0,0,0,0,.2-.1,0,0,0,0,0-.2,0,0,0-.1,0-.2,0,0-.2,0-.3.1-.2,0-.3,0-.3,0,0,.4,0,1-.1,1.2,0,0-.1,0-.2,0,0,0-.1.1-.1.2h0c0,0-.1.1-.2.1-.2,0-.3,0-.3,0h0c0-.1.2-4.4.2-4.4,0-.2,0-.4,0-.5,0-.2,0-.4.2-.4,0,0,.2,0,.3,0,.1,0,.3,0,.5,0,.2,0,.4,0,.4,0,.3,0,.4.1.4.5,0,.3,0,.6.2,1,.2.5.3.8.3,1,0,0,0,.2,0,.3-.1,0-.3.1-.5.1-.2,0-.3,0-.5,0,0-.4-.2-.8-.3-1.2,0-.4-.2-.8-.3-1.1v2.1c-.1.2,0,.3.2.2,0,0,.1,0,.2,0,0,0,.1,0,.2,0,0,.1,0,.2.1.3,0,0,.2-.1.4-.2.1,0,.3-.1.4-.1,0,0,.1.2.2.4,0,.2,0,.4,0,.4,0,0,0,.3.2.6,0,.2.1.4.1.6,0,0,0,.1,0,.2"/>
      <path class="cls-25" d="M84.7,81.8h0c0,.1-.2.1-.3,0,0,0-.1,0-.3,0-.2,0-.3,0-.4,0,0,0,0,0-.1,0,0,0,0,0-.1,0,0,0,0,0,0,0,0,0,0,0,0-.1,0,0,0,0,0,0h-.1c0,.1,0,.1,0,.2,0,0,0,0,0,0,0,0,0,0,0,0,0,0,0,.2,0,.6,0,.3,0,.5.1.6,0,0,0,0,.2,0,0,0,.1,0,.2,0,0,0,.1,0,.3,0,.1,0,.2,0,.3,0v.6c0,0-.1,0-.3,0,0,0,0,.2-.2.2,0,0-.1,0-.3,0,0,0,0,0,0,0-.2,0-.2.3-.2.6,0,0,0,0,0,.2,0,0,0,.1,0,.2-.1,0-.2,0-.4,0-.2,0-.3,0-.3,0,0,0,0,0,0,0h-.2c0,0-.3-2.8-.3-2.8v-.6c.2,0,.5-.1.8-.1.3,0,.6,0,1,0,0,0,0,0,.1,0,0,0,0,0,.1,0,0,0,.1,0,.1,0,0,0,0,0,0,0h0c.1,0,.2,0,.2.1,0,0,0,.1,0,.2,0,0,0,.2,0,.2,0,0,0,0,0,.1M83.6,86.6c0,0-.2,0-.3,0-.2,0-.3,0-.3,0,0,0,0,0,0-.2,0,0,0-.1-.2-.1,0,0,0,0,0,0h-.2s0-1.5,0-1.5c0,0,.2,0,.3,0,.1,0,.2,0,.3,0,0,0,0,0,.2,0h.2c.1.4.2,1.1.1,1.6"/>
      <path class="cls-25" d="M88.3,81.9h0c0,0-.4,0-.6,0-.2,0-.3,0-.4,0,0,0-.1.1,0,.2h0c0,0,0,.1,0,.1h0c0,.9,0,1.4,0,1.5,0,.2,0,.4,0,.6,0,.1,0,.2,0,.4,0,0,0,.2,0,.4,0,.2,0,.8.1.9,0,0,0,.1,0,.2,0,0-.2,0-.3,0-.2,0-.3,0-.5,0,0,0,0,0,0,0,0,0,0,0,0,0,0,0-.1,0-.2,0,0-.9-.2-2.6-.4-4.4,0,0-.2,0-.4,0-.2,0-.4,0-.4,0,0,0,0-.1,0-.3,0-.2,0-.5,0-.7,0,0,.3,0,.5,0,.3,0,.3,0,.3,0,0,0,.2,0,.3,0,0,0,.1,0,.1,0,0,0,0,.2,0,.3,0,0,0,0,0,.1,0,0,0,0,.1,0,.1,0,.2,0,.3,0,.1,0,.3,0,.3,0,0,0,0,0,.2,0,.1,0,.2-.2.2-.3,0,0,0,0,0,0,0,0,0,0,0,0,.2,0,.3,0,.4,0,0,0,.3,0,.4,0,0,0,0,.3,0,.5,0,.2,0,.4,0,.4"/>
      <path class="cls-25" d="M91.2,84.9h0c0,0,0,.1,0,.2,0,0,0,.1,0,.2,0,.1,0,.2,0,.2,0,0-.2,0-.6,0-.2,0-.4,0-.5,0h-.2c0,0,0,0,0,0,0,0-.2,0-.4,0-.2,0-.3,0-.4,0,0,0-.2,0-.3,0,0,0,0,0,0-.1,0,0,0-.1,0-.2,0-.2,0-.4,0-.7,0-.3,0-.5,0-.7,0-.2,0-.4-.1-.6,0,0,.1,0,.2,0,0,0,.2,0,.4,0,.2,0,.3.1.3.1h0s0,0,0-.2c0,0,0-.2.1-.2h0s0,0,.2-.1c0,0,.2-.3.2-.3,0,0,.1,0,.2,0,.1,0,.2.3.2.4,0,0,0,.2.1.3-.3,0-.5,0-.7,0,0,0,0,0-.2,0,0,0-.1,0-.2,0,0,0,0,.2,0,.5,0,.2,0,.4,0,.5,0,.2,0,.3,0,.5,0,0,.3,0,.7,0,.3,0,.5,0,.7,0M90.9,81.5c0,0-.1,0-.2,0-.1,0-.3,0-.6,0-.3,0-.5,0-.5,0,0,.1,0,.2,0,.4,0,.4,0,.6,0,.5,0,0,.1.1.1.2,0,.1,0,.2,0,.2,0,0,0,0,0,.1,0,0-.1,0-.2-.1-.1,0-.1.2-.1.1h0c0,.1,0,.1,0,.1,0,0-.1,0-.2,0-.1,0-.2,0-.3-.1,0,0,0-.1,0-.1h-.1c0,0,0,0,0,0-.1-.5-.2-1.4-.1-1.9.2,0,.5,0,.8,0,.2,0,.4,0,.8,0,.4,0,.7,0,.8,0,0,0,.1.1.1.2,0,0,0,.1,0,.3,0,.1,0,.3,0,.3"/>
      <path class="cls-25" d="M94.2,84.4h0c0,0,0,.2,0,.3,0,.2,0,.3,0,.3,0,0,0,0-.1,0,0,0-.1,0-.1.1,0,0,0,0,0,0,0,0,0,0,0,0,0,0,0,0,0,.1,0,0-.2,0-.3,0-.1,0-.3,0-.4,0,0-.7,0-1.3-.3-1.9,0,0,0,0,0-.2,0,0,0-.2,0-.2h0s0,0,0,0c0,0,0,0,0,0,0,0,0,0,0,0h0c-.1,0-.2,0-.2.2,0,0,0,.2-.1.2,0,0,0,0,0,0,0,0,0,0,0,0,0,0,0,0,0,0,0,0,0,0,0,.1,0,0,0,.3,0,.8,0,.3,0,.6,0,.8h0c0,.1,0,.1-.1.1,0,0-.1,0-.3,0-.1,0-.2,0-.2,0-.2,0-.4,0-.5-.1v-2.7c-.1-.1-.2-.3-.2-.5v-.5c0-.3,0-.4-.1-.6,0,0,.1-.1.2-.1,0,0,.2,0,.4,0,0,0,.2,0,.3,0h.2c0,0,.1,0,.2,0,.2,0,.4,0,.5-.2.1,0,.2,0,.4.1.1,0,.2.1.3.1.3.2.4.4.4.7,0,0,0,.4,0,.9l-.4.4c0,.1.2.4.3.9,0,.4.2.7.4.8M93.4,81.3h0s0,0,0-.3c0-.1,0-.2-.1-.3,0,0,0,0,0,0,0,.2,0,.3-.1.3-.1,0-.2,0-.3-.2,0,0,0,0,0,0h0c0,0,0,0,0,.1,0,0,0,0,0,0,0,0,0,0,0,.1,0,0,0,.1,0,.1,0,0,0,0,.1,0,0,0,0,.2,0,.3,0,0,0,.2,0,.4,0,.2,0,.3,0,.4,0,0,.1,0,.2,0,.2,0,.3,0,.4-.2,0,0,0-.2,0-.5,0-.2,0-.4.2-.4"/>
      <path class="cls-25" d="M64.4,72h0c0,.3,0,.4,0,.5,0,0,0,0-.1,0,0,0-.1,0-.1,0,0,0,0,0,0,0,0,0,0,0-.1,0,0,0,0,0,0,.1,0,0,0,0,0,.1,0,0,0,0,0,.1,0,0,0,0,0,.2,0,0,0,.1,0,.2,0,0,0,.1,0,.3,0,.1,0,.2,0,.3,0,.1,0,.2,0,.4,0,.1,0,.3.1.6,0,0,0,0,0,0,0,0,0,0,.1,0,0,0,0,0,.1,0s0,0,0,0c0,.3.1.4.1.5,0,0,0,0,0,.1-.1,0-.2,0-.2-.1,0,0,0,0,0,0h-.1c.1.2.2.3.2.4,0,0,0,0,0,0,0,0-.1,0-.1,0v-.2c-.1,0-.2,0-.2,0,0,0,0-.1-.1-.1,0,0,0,0-.1,0,0,0-.1,0-.2,0,0,0,0,0-.1,0,0,0,0-.1,0-.2,0,0,0,0,0-.1,0-.1,0-.5,0-1.1,0-.4,0-.8,0-1.1,0-.1,0-.2,0-.3,0,0,0,0,0,0s0,0,0,0c0,0,0,0,0,0,0,0,0-.1,0-.2,0,0,0-.2,0-.2,0,0,0-.1,0-.2h.2c0,0,0-.2,0-.4,0,0,0,0,0-.2,0,0,0-.1,0-.2,0-.3,0-.5.3-.5,0,0,.2,0,.3,0h.1c0,0,0,.2,0,.2,0,0,0,.2,0,.4,0,.2,0,.3,0,.4,0,.1,0,.2,0,.3,0,0,0,0,.2,0,0,0,.1,0,.2,0,0,0,.1,0,.1,0M63.9,72.5h0c0-.1,0-.2,0-.2v.2Z"/>
      <path class="cls-25" d="M66.2,71.5h0c0,.1,0,.2,0,.4,0,.1,0,.2-.1.3,0,0,0,0-.2,0,0,0-.1,0-.2,0,0,.3,0,.6,0,1,0,.6,0,.9,0,1,0,0-.1,0-.1,0,0,0,0,0,0,.1,0,0,0,0,0,0,0,0,0,0,0,.1,0,0,0,0,0,.1,0,0,0,.1-.2.1,0,0-.1,0-.2,0,0,0-.2,0-.2,0v-1.9c0,0,0,0,0,0h0c0-.1,0-.5,0-1.2,0-.5,0-.9,0-1.1,0,0,.1,0,.4,0,.2,0,.3,0,.3.1,0,0,0,.3,0,.5,0,.2,0,.4,0,.5,0,.1,0,.3,0,.4.1-.2.3-.3.5-.3M66.8,71.9c0,.2,0,.3,0,.5,0,.7,0,1.5,0,2.3,0,0-.2,0-.3,0-.1,0-.2,0-.3,0,0,0-.1-.3-.1-.5,0-.4,0-.6,0-.6,0-.9,0-1.6.3-2.2.2,0,.4.2.5.4"/>
      <path class="cls-25" d="M69.1,72.9c0,0,0,.1,0,.2,0,0,0,.1,0,.2,0,0,0,.1,0,.2,0,0,0,0-.1,0s0,0,0,0c0,0,0,0,0,0,0,0,0,0-.1,0l-.3-.4c0,.1,0,.2,0,.3,0,0,0,.1,0,.2-.2,0-.3,0-.3,0h0c0,0-.1,0-.1,0,0,0-.1.2,0,.4,0,.2,0,.4,0,.5,0,0,.1.1.2.1,0,0,0,0,.1,0,0-.1,0-.2.1-.3,0-.1.1-.2.2-.2,0,0,.1,0,.2,0,0,0,.1,0,.2.1,0,0,0,0,0,.2,0,0,0,.1,0,.2,0,0,0,0,0,0,0,0-.1.1-.2.2,0,0-.1.2-.2.2,0,0-.1.1-.2.1,0,0-.1,0-.2-.1,0,0-.2-.1-.3-.1,0,0-.1-.2-.3-.3-.1,0-.2-.2-.2-.3,0,0,0,0,0-.1,0,0,0,0,0,0h0c0,0-.1,0-.1-.2,0,0,0,0,0,0,0,0,0,0,0,0,0,0,0,0,0-.1v-.2c0-.1,0-.2,0-.2,0-.3,0-.6.1-.8,0-.3.2-.5.3-.5,0,0,0,0,0,0,.1-.1.3-.2.5-.2.2,0,.4,0,.7.2.2.3.3.6.3,1M68.2,72.2h0c0,0,0,0-.1,0h0c0,.2,0,.3,0,.5,0,.3,0,.4,0,.4h.2c0,0,.1-.1.1-.3,0,0,0-.2,0-.3,0-.1,0-.2,0-.3"/>
      <polygon class="cls-30" points="70.7 79.4 70.9 79.5 71.5 77.8 71.3 77.8 70.7 79.5 70.8 79.6 70.7 79.4"/>
      <polygon class="cls-30" points="71 79.2 70.9 79.2 70.7 79.4 70.8 79.6 71.1 79.4 71 79.4 71 79.2"/>
      <polygon class="cls-30" points="72.6 79.2 72.7 79.1 71 79.2 71 79.4 72.7 79.3 72.8 79.3 72.6 79.2"/>
      <polygon class="cls-30" points="73.3 77.6 73.2 77.5 72.6 79.2 72.8 79.3 73.4 77.5 73.3 77.4 73.3 77.6"/>
      <polygon class="cls-30" points="71.7 77.7 71.6 77.7 73.3 77.6 73.3 77.4 71.6 77.5 71.5 77.5 71.7 77.7"/>
      <polygon class="cls-30" points="71.5 77.8 71.5 77.9 71.7 77.7 71.5 77.5 71.3 77.7 71.3 77.8 71.5 77.8"/>
      <polygon class="cls-30" points="72.9 79.4 73.1 79.3 72.7 79.1 72.6 79.3 73 79.5 73.1 79.5 72.9 79.4 72.9 79.4"/>
      <polygon class="cls-30" points="73.6 77.8 73.6 77.7 72.9 79.4 73.1 79.5 73.8 77.7 73.7 77.6 73.6 77.8"/>
      <polygon class="cls-30" points="73.4 77.5 73.3 77.6 73.6 77.8 73.7 77.6 73.4 77.4 73.2 77.5 73.4 77.5"/>
      <polygon class="cls-25" points="71.4 77.8 71.4 77.8 71.6 77.6 73.2 77.5 73.2 77.5 73.3 77.5 73.4 77.5 73.4 77.5 73.7 77.7 73.8 77.7 73.8 77.8 74.5 79.7 73.9 81.4 73 79.4 72.9 79.5 72.9 79.4 72.9 79.4 72.7 79.2 72.6 79.3 72.6 79.2 71 79.3 70.8 79.5 71.4 77.8"/>
      <polygon class="cls-30" points="73.8 81.4 74 81.3 73.2 79.4 72.9 79.5 73.8 81.4 74 81.4 73.8 81.3 73.8 81.4"/>
      <polygon class="cls-30" points="74.4 79.7 74.4 79.6 73.8 81.3 74 81.4 74.6 79.7 74.6 79.6 74.4 79.7"/>
      <polygon class="cls-30" points="73.8 77.7 73.6 77.7 74.4 79.7 74.6 79.6 73.8 77.7 73.6 77.7 73.8 77.7"/>
      <polygon class="cls-28" points="73.8 78.2 73.8 78.4 73.9 78.6 73.9 78.8 73.8 79 73.7 79.2 73.6 79.4 73.4 79.6 73.2 79.7 73 79.8 72.9 79.8 72.8 79.8 72.6 79.9 72.5 79.9 72.4 79.9 72.3 79.9 72.1 79.9 72 79.9 71.9 79.8 71.8 79.8 71.7 79.7 71.6 79.6 71.5 79.6 71.5 79.5 71.4 79.4 71.3 79.2 71.3 79 71.3 78.8 71.3 78.6 71.4 78.4 71.6 78.2 71.8 78 72 77.9 72.1 77.8 72.2 77.8 72.4 77.7 72.5 77.7 72.6 77.7 72.7 77.7 72.9 77.7 73 77.7 73.1 77.7 73.2 77.8 73.3 77.8 73.4 77.9 73.5 77.9 73.6 78 73.7 78.1 73.8 78.2"/>
      <polygon class="cls-30" points="73.8 78.5 73.9 78.7 74 78.9 74 79.1 73.9 79.3 73.8 79.6 73.6 79.7 73.5 79.9 73.2 80.1 73.1 80.1 73 80.2 72.9 80.2 72.7 80.2 72.6 80.2 72.5 80.2 72.4 80.2 72.2 80.2 72.1 80.2 72 80.2 71.9 80.1 71.8 80 71.7 80 71.6 79.9 71.5 79.9 71.5 79.7 71.4 79.6 71.3 79.3 71.4 79.1 71.4 78.9 71.5 78.7 71.7 78.5 71.8 78.4 72.1 78.2 72.2 78.2 72.3 78.1 72.4 78.1 72.6 78.1 72.7 78 72.8 78 72.9 78 73.1 78.1 73.2 78.1 73.3 78.1 73.4 78.2 73.5 78.2 73.6 78.3 73.7 78.3 73.8 78.4 73.8 78.5 73.8 78.5"/>
      <polygon class="cls-28" points="73.9 78.8 74 79 74 79.2 74 79.4 74 79.6 73.9 79.8 73.7 80 73.5 80.1 73.3 80.3 73.2 80.3 73.1 80.4 72.9 80.4 72.8 80.4 72.7 80.5 72.6 80.5 72.4 80.5 72.3 80.4 72.2 80.4 72.1 80.4 72 80.3 71.9 80.3 71.8 80.2 71.7 80.1 71.6 80.1 71.5 80 71.4 79.8 71.4 79.6 71.4 79.4 71.5 79.2 71.6 78.9 71.7 78.7 71.9 78.6 72.1 78.5 72.3 78.4 72.4 78.3 72.5 78.3 72.6 78.3 72.8 78.3 72.9 78.3 73 78.3 73.1 78.3 73.3 78.3 73.4 78.3 73.5 78.4 73.6 78.5 73.7 78.5 73.8 78.6 73.8 78.7 73.9 78.8"/>
      <polygon class="cls-30" points="74 79.1 74.1 79.3 74.1 79.5 74.1 79.7 74 79.9 73.9 80.1 73.8 80.3 73.6 80.5 73.4 80.6 73.3 80.7 73.1 80.7 73 80.8 72.9 80.8 72.8 80.8 72.6 80.8 72.5 80.8 72.4 80.8 72.3 80.8 72.1 80.7 72 80.7 71.9 80.6 71.9 80.6 71.8 80.5 71.7 80.4 71.6 80.3 71.5 80.1 71.5 79.9 71.5 79.7 71.6 79.5 71.7 79.3 71.8 79.1 72 78.9 72.2 78.8 72.3 78.7 72.5 78.7 72.6 78.7 72.7 78.6 72.8 78.6 73 78.6 73.1 78.6 73.2 78.6 73.3 78.6 73.5 78.7 73.6 78.7 73.7 78.8 73.8 78.9 73.8 78.9 73.9 79 74 79.1 74 79.1"/>
      <polygon class="cls-28" points="74.1 79.3 74.2 79.5 74.2 79.7 74.2 79.9 74.2 80.1 74.1 80.3 73.9 80.5 73.7 80.7 73.5 80.9 73.4 80.9 73.3 81 73.1 81 73 81 72.9 81 72.8 81 72.6 81 72.5 81 72.4 81 72.3 80.9 72.2 80.9 72.1 80.9 72 80.8 71.9 80.7 71.8 80.6 71.8 80.5 71.7 80.3 71.6 80.1 71.6 79.9 71.7 79.7 71.8 79.5 71.9 79.3 72.1 79.2 72.3 79 72.5 79 72.6 78.9 72.7 78.9 72.9 78.8 73 78.8 73.1 78.8 73.2 78.8 73.3 78.8 73.5 78.9 73.6 78.9 73.7 79 73.8 79 73.9 79.1 74 79.1 74 79.2 74.1 79.3"/>
      <polygon class="cls-30" points="74.2 79.7 74.3 79.9 74.3 80.1 74.3 80.3 74.3 80.5 74.2 80.7 74 80.9 73.8 81.1 73.6 81.2 73.5 81.3 73.3 81.3 73.2 81.3 73.1 81.4 73 81.4 72.8 81.4 72.7 81.4 72.6 81.4 72.5 81.3 72.4 81.3 72.3 81.3 72.2 81.2 72.1 81.1 72 81.1 71.9 81 71.8 80.9 71.7 80.7 71.7 80.5 71.7 80.3 71.8 80.1 71.9 79.9 72 79.7 72.2 79.5 72.4 79.4 72.5 79.3 72.7 79.3 72.8 79.2 72.9 79.2 73.1 79.2 73.2 79.2 73.3 79.2 73.4 79.2 73.6 79.2 73.7 79.3 73.8 79.3 73.9 79.4 74 79.4 74 79.5 74.1 79.6 74.2 79.7"/>
      <polygon class="cls-30" points="62.7 77 62.7 76.9 62 78.7 62.2 78.8 62.9 77 62.9 77 62.7 77"/>
      <polygon class="cls-30" points="62.6 76.9 62.6 76.9 62.7 77 62.9 77 62.9 76.9 62.9 76.9 62.6 76.9"/>
      <polygon class="cls-30" points="62.6 76.8 62.6 76.9 62.9 76.9 62.8 76.8 62.6 76.8"/>
      <rect class="cls-25" x="62.6" y="76.7" width=".2" height="0" transform="translate(-19.2 20.9) rotate(-16.4)"/>
      <polygon class="cls-30" points="62.6 76.6 62.6 76.6 62.6 76.7 62.8 76.7 62.8 76.6 62.8 76.6 62.6 76.6"/>
      <polygon class="cls-30" points="62.5 76.5 62.5 76.5 62.6 76.6 62.8 76.6 62.8 76.5 62.8 76.5 62.5 76.5"/>
      <polygon class="cls-30" points="62.8 76.5 62.5 76.4 62.5 76.5 62.8 76.5 62.8 76.5 62.5 76.4 62.8 76.5 62.8 76.5"/>
      <polygon class="cls-26" points="62.9 81.5 62.9 81.4 62.7 81.4 62.7 81.6 62.9 81.5"/>
      <polygon class="cls-30" points="63.4 80.1 63.4 80 62.8 81.7 63 81.8 63.6 80.1 63.6 80 63.4 80.1"/>
      <polygon class="cls-30" points="63.4 80 63.4 80.1 63.6 80 63.6 79.9 63.4 79.9 63.4 80"/>
      <polygon class="cls-30" points="63.4 79.8 63.4 79.9 63.6 79.9 63.6 79.8 63.4 79.8"/>
      <polygon class="cls-30" points="63.4 79.7 63.4 79.7 63.4 79.8 63.6 79.8 63.6 79.7 63.6 79.7 63.4 79.7"/>
      <polygon class="cls-30" points="63.6 79.6 63.3 79.6 63.4 79.7 63.6 79.7 63.6 79.6 63.3 79.5 63.6 79.6"/>
      <path class="cls-21" d="M62,78.3h-.1s.1,0,.1,0Z"/>
      <polygon class="cls-21" points="62.1 78.7 62.1 78.7 62.2 78.7 62.2 78.8 62.1 78.7 62.1 78.7"/>
      <polygon class="cls-25" points="61.9 78.3 62 78.3 62 78.2 62.7 76.4 62.6 76.4 62.6 76.5 62.7 76.6 62.7 76.7 62.7 76.8 62.8 76.9 62.8 77 62.9 77 62.2 78.8 62.2 78.7 62.1 78.7 62.1 78.7 62.1 78.7 62.2 78.8 62.1 78.7 62.1 78.8 62.1 78.7 62 78.7 62 78.6 62 78.6 62.1 78.5 62 78.6 61.9 78.5 61.9 78.4 62 78.3 61.9 78.4 61.9 78.4 61.9 78.3"/>
      <polygon class="cls-25" points="62.1 78.6 67 78.4 67.1 78.5 67.1 78.5 67.2 78.5 67.2 78.5 67.4 78.5 67.5 78.6 67.5 78.6 67.6 78.7 67.6 78.7 67.7 78.7 67.8 78.8 67.8 78.8 67.8 78.9 67.9 78.9 67.9 79 67.7 79 67.6 79 67.6 79 67.6 78.9 67.6 78.9 67.5 78.8 67.5 78.9 67.4 78.8 67.4 78.8 67.3 78.7 67.2 78.7 67.1 78.7 67.1 78.7 67 78.7 67 78.7 62.1 78.8 62.1 78.6"/>
      <polygon class="cls-25" points="67.7 79 67.7 79 67.7 79 67.7 79"/>
      <polygon class="cls-30" points="70.3 83.1 70.3 83 69.6 84.7 69.8 84.8 70.5 83.1 70.5 83 70.3 83.1"/>
      <polygon class="cls-30" points="68.3 77.3 68.3 77.3 70.3 83.1 70.5 83 68.5 77.2 68.5 77.2 68.3 77.3"/>
      <polygon class="cls-30" points="68.3 77.3 68.3 77.2 68.3 77.3 68.5 77.2 68.5 77.1 68.5 77.1 68.3 77.3 68.3 77.3"/>
      <polygon class="cls-30" points="68.3 77.2 68.2 77.2 68.3 77.3 68.5 77.1 68.4 77 68.4 77 68.3 77.2"/>
      <polygon class="cls-30" points="68.2 77.1 68.2 77.1 68.3 77.2 68.4 77 68.3 76.9 68.3 76.9 68.2 77.1"/>
      <polygon class="cls-30" points="68.1 77.1 68.1 77.1 68.2 77.1 68.3 76.9 68.2 76.9 68.2 76.9 68.1 77.1"/>
      <polygon class="cls-30" points="68 77 67.9 77 68.1 77.1 68.2 76.9 68 76.8 68 76.8 67.9 77 68 77"/>
      <polygon class="cls-30" points="67.8 77 67.8 77 67.9 77 68 76.8 67.9 76.8 67.8 77 67.8 77"/>
      <polygon class="cls-30" points="67.7 77 67.7 76.9 67.8 77 67.9 76.8 67.8 76.7 67.8 76.7 67.7 77"/>
      <polygon class="cls-30" points="67.6 76.9 67.6 77 67.7 77 67.8 76.7 67.6 76.7 67.6 76.7 67.6 76.9"/>
      <polygon class="cls-30" points="62.9 77 62.8 77.1 67.6 76.9 67.6 76.7 62.8 76.9 62.7 76.9 62.9 77 62.9 77"/>
      <polygon class="cls-21" points="64.1 82.3 64.1 82.3 64.1 82.3 64.1 82.3"/>
      <path class="cls-21" d="M66.7,83.1v.2s0-.2,0-.2Z"/>
      <path class="cls-25" d="M62.7,81.6h0c0,.1,0,.2,0,.2h0c0,0,.3.2.3.2l.3.2.3.2h.3c0,.1,0,.1,0,.1h.3c0,.1.3.3.3.3h.3c0,.1.3.2.3.2h0s.3,0,.3,0h.3c0,0,0,0,0,0h.4c0,0,.4.1.4.1h.4s0,0,0,0h.5s.5,0,.5,0h.5s.1,0,.1,0l.7-1.7v-.2c-.1,0-.1.2-.1.2h0s0-.1,0-.1h0s0,0,0,0h0s-.4,0-.4,0h-.9s-.4,0-.4,0h-.4c0,0-.4-.1-.4-.1h-.3c0,0-.3-.2-.3-.2h-.3c0-.1-.3-.2-.3-.2h-.3c0-.1-.3-.3-.3-.3h-.3c0-.1-.3-.3-.3-.3l-.3-.2h-.2c0-.1,0-.1,0-.1h-.1s0-.2,0-.2h0c0-.1,0-.2,0-.2v-.2c0,0,0,0,0,0h0s-.1,0-.1,0l-.7,1.7h0c0,0,0,.2,0,.2h0ZM62.8,81.3h0s0,0,0,0h0Z"/>
      <polygon class="cls-30" points="68.7 81.6 69.3 81.6 69.2 81.4 68.7 81.4 68.7 81.6"/>
      <rect class="cls-25" x="68.3" y="81.4" width=".5" height=".2" transform="translate(-1.9 1.6) rotate(-1.3)"/>
      <polygon class="cls-30" points="67.8 81.6 67.8 81.6 68.3 81.6 68.3 81.4 67.8 81.4 67.8 81.4 67.8 81.6 67.8 81.6"/>
      <polygon class="cls-30" points="67.4 81.6 67.4 81.6 67.8 81.6 67.8 81.4 67.4 81.4 67.4 81.4 67.4 81.6"/>
      <polygon class="cls-30" points="67 81.5 67.4 81.6 67.4 81.4 67 81.3 67 81.5"/>
      <polygon class="cls-30" points="66.6 81.5 66.6 81.5 67 81.5 67 81.3 66.6 81.2 66.6 81.2 66.6 81.5"/>
      <polygon class="cls-30" points="66.2 81.4 66.6 81.5 66.6 81.2 66.3 81.1 66.2 81.4 66.2 81.4"/>
      <polygon class="cls-30" points="65.9 81.3 65.9 81.3 66.2 81.4 66.3 81.1 66 81.1 66 81.1 65.9 81.3"/>
      <polygon class="cls-30" points="65.6 81.2 65.6 81.2 65.9 81.3 66 81.1 65.6 80.9 65.7 80.9 65.6 81.2 65.6 81.2"/>
      <polygon class="cls-30" points="65.3 81 65.6 81.2 65.7 80.9 65.3 80.8 65.3 81"/>
      <polygon class="cls-30" points="65 80.9 65.3 81 65.3 80.8 65.1 80.7 65 80.9"/>
      <polygon class="cls-30" points="64.7 80.8 64.7 80.8 65 80.9 65.1 80.7 64.8 80.6 64.8 80.6 64.7 80.8 64.7 80.8"/>
      <polygon class="cls-30" points="64.4 80.6 64.7 80.8 64.8 80.6 64.5 80.4 64.4 80.6 64.4 80.6"/>
      <polygon class="cls-30" points="64.1 80.5 64.4 80.6 64.5 80.4 64.2 80.3 64.1 80.5 64.1 80.5"/>
      <polygon class="cls-30" points="63.8 80.3 64.1 80.5 64.2 80.3 63.9 80.1 63.8 80.3"/>
      <polygon class="cls-30" points="63.6 80.1 63.5 80.1 63.8 80.3 63.9 80.1 63.6 80 63.4 80 63.6 80.1"/>
      <polygon class="cls-30" points="93.9 77 93.2 78.7 95.4 79.4 95.9 78.3 95.9 78.2 95.9 78 95.9 77.9 95.9 77.8 95.8 77.7 95.7 77.6 95.7 77.5 95.6 77.4 95.5 77.3 95.4 77.2 95.2 77.1 95.1 77 95 77 94.9 76.9 94.8 76.9 94.7 76.8 94.6 76.8 94.5 76.8 94.4 76.8 94.3 76.8 94.2 76.8 94.1 76.8 94 76.9 93.9 77"/>
      <polygon class="cls-30" points="95.3 79.4 95.4 79.3 93.3 78.6 93.2 78.8 95.4 79.5 95.5 79.5 95.3 79.4"/>
      <polygon class="cls-25" points="61.9 78.2 61.9 78.1 62.5 76.4 62.8 76.5 62.1 78.2 62.1 78.3 62.1 78.2 61.9 78.3 61.9 78.2 61.9 78.2"/>
      <polygon class="cls-21" points="72.5 82.2 72.5 82.3 72.5 82.3 72.5 82.2"/>
      <path class="cls-25" d="M62,78.6h0c0,.1,0,0,0,0h.2s0,0,0,0l4.9-.2h.1s.1,0,.1,0h.1s.1,0,.1,0h.1c0,0,0,.1,0,.1h0c0,0,0,.2,0,.2h-.1s1.9,5.8,1.9,5.8h.1s0,0,0,0h.3s.1,0,.1,0h.1s.1,0,.1,0h.1c0,0,.1-.2.1-.2h.2c0-.1,0-.2,0-.2h0c0-.1.1-.3.1-.3h.1c0-.1,0-.3,0-.3v-.2c0,0,.2-.1.2-.1v-.2c0,0,.2-.2.2-.2h0c0-.1.1-.3.1-.3h.1c0-.1.1-.3.1-.3h.1c0-.1.1-.2.1-.2h.1c0,0,.1-.2.1-.2h0s0,0,0,0h0c0,0,.1,0,.1,0h.1c0-.1.1-.2.1-.2h.1c0,0,.1-.2.1-.2h.1c0,0,.1-.1.1-.1h.1c0,0,.1,0,.1,0h.1c0,0,.1,0,.1,0h.1s.2,0,.2,0h.2s.2,0,.2,0h.2s0,0,0,0l21-1.6h.1s.1,0,.1,0h.1s.1,0,.1,0h0s.1-.1.1-.1h0c0,0,0-.2,0-.2h0s.4-.9.4-.9h-.2c0-.1,0,0,0,0h0s0,0,0,0v.2c0,0-.2,0-.2,0h0s0,0,0,0h0s-.1,0-.1,0h-.1s-21,1.6-21,1.6h-.1s-.1,0-.1,0h-.1s-.1,0-.1,0h-.3s-.1,0-.1,0h-.1s-.1,0-.1,0h-.1s-.1,0-.1,0h-.1s-.1,0-.1,0h-.1s-.1,0-.1,0h-.1c0,0-.2.2-.2.2l-.2.2-.3.3-.3.3-.2.3-.2.3-.2.3-.2.2h-.1s0,0,0,0h-.1s-.1,0-.1,0h-.2s-.1,0-.1,0h-.1s-1.9-5.8-1.9-5.8h0c0,0,0-.2,0-.2h0c0,0-.1-.1-.1-.1h-.1c0,0-.1,0-.1,0h-.1s-.1,0-.1,0h-4.9c0,.1-.6,1.7-.6,1.7h0s-.2,0-.2,0ZM96.8,78.7h0s0,0,0,0h0Z"/>
      <polygon class="cls-30" points="96.1 79.1 96.2 79.1 96.3 79.1 96.4 79.1 96.6 79 96.7 79 96.8 78.9 96.8 78.9 96.9 78.8 96.8 78.6 96.7 78.7 96.6 78.7 96.5 78.8 96.5 78.8 96.4 78.8 96.3 78.9 96.2 78.9 96.1 78.9 96.1 79.1"/>
      <polygon class="cls-30" points="75.1 80.7 96.1 79.1 96.1 78.9 75.1 80.5 75.1 80.7"/>
      <polygon class="cls-30" points="73.1 81.1 73.2 81 73.3 81 73.5 80.9 73.6 80.9 73.7 80.8 73.8 80.8 74 80.8 74.1 80.8 74.2 80.8 74.3 80.8 74.5 80.7 74.6 80.7 74.7 80.7 74.9 80.7 75 80.7 75.1 80.7 75.1 80.5 75 80.5 74.9 80.5 74.7 80.5 74.6 80.5 74.5 80.5 74.3 80.5 74.2 80.5 74.1 80.5 73.9 80.6 73.8 80.6 73.7 80.6 73.5 80.7 73.4 80.7 73.3 80.7 73.1 80.8 73 80.9 73.1 81.1"/>
      <polygon class="cls-30" points="71.2 83.1 71.3 83.1 71.3 83 71.4 82.9 71.5 82.7 71.6 82.6 71.8 82.5 71.9 82.3 72 82.1 72.1 82 72.2 81.8 72.4 81.7 72.5 81.5 72.6 81.4 72.7 81.3 72.9 81.2 73 81.1 73.1 81.1 73 80.9 72.9 80.9 72.7 81 72.6 81.1 72.5 81.3 72.3 81.4 72.2 81.5 72.1 81.7 71.9 81.9 71.8 82 71.7 82.2 71.6 82.3 71.5 82.5 71.4 82.6 71.3 82.7 71.2 82.8 71.1 82.9 71.1 82.9 71.2 83.1"/>
      <polygon class="cls-28" points="67.2 76.8 67.6 76.8 67.7 76.8 63.9 75.6 63.8 75.7 67.2 76.9 67.2 76.8"/>
      <polygon class="cls-28" points="67.2 76.8 62.8 77 62.8 76.9 62.7 76.8 62.7 76.7 62.7 76.6 62.6 76.5 62.6 76.4 62.7 76.4 62.8 76.3 62.9 76.2 63.1 76.1 63.3 75.9 63.5 75.8 63.7 75.7 63.8 75.7 67.2 76.9 67.2 76.8"/>
      <polygon class="cls-29" points="64.5 79.5 67.5 79.3 68.7 79.8 69.1 81 69.2 81.5 68.7 81.5 68.3 81.5 67.8 81.5 67.4 81.5 67 81.4 66.6 81.3 66.3 81.3 65.9 81.2 65.6 81 65.3 80.9 65 80.8 64.7 80.7 64.4 80.5 64.1 80.4 63.8 80.2 63.5 80.1 63.5 79.9 63.5 79.8 63.5 79.7 63.5 79.6 64.5 79.5"/>
      <polygon class="cls-28" points="72.1 79.9 72.1 79.9 72.5 80.1 72.6 79.9 72.3 79.7 72.3 79.8 72.1 79.9 72.1 79.9 72.1 79.9 72.1 79.9"/>
      <polygon class="cls-28" points="68.6 79.9 68.6 79.8 69.1 81.5 69.4 81.4 68.8 79.8 68.7 79.7 68.8 79.8 68.8 79.7 68.7 79.7 68.6 79.9"/>
      <polygon class="cls-28" points="67.5 79.5 67.5 79.4 68.6 79.9 68.7 79.7 67.6 79.2 67.5 79.2 67.6 79.2 67.5 79.2 67.5 79.2 67.5 79.5"/>
      <polygon class="cls-28" points="63.6 79.6 63.5 79.7 67.5 79.5 67.5 79.2 63.5 79.5 63.3 79.6 63.5 79.5 63.3 79.5 63.3 79.6 63.6 79.6"/>
      <polygon class="cls-28" points="63.6 80 63.6 80 63.6 80 63.6 79.9 63.6 79.8 63.6 79.8 63.6 79.7 63.6 79.7 63.6 79.6 63.6 79.6 63.3 79.6 63.3 79.6 63.4 79.7 63.4 79.8 63.4 79.8 63.4 79.9 63.4 79.9 63.4 80 63.4 80.1 63.5 80.1 63.4 80.1 63.5 80.1 63.5 80.1 63.6 80"/>
      <polygon class="cls-28" points="69.1 81.5 69.2 81.3 68.7 81.4 68.3 81.4 67.8 81.4 67.4 81.4 67 81.3 66.6 81.2 66.3 81.1 66 81.1 65.6 80.9 65.3 80.8 65.1 80.7 64.8 80.6 64.5 80.4 64.2 80.3 63.9 80.1 63.6 80 63.5 80.1 63.8 80.3 64.1 80.5 64.4 80.6 64.7 80.8 65 80.9 65.3 81 65.6 81.2 65.9 81.3 66.2 81.4 66.6 81.5 67 81.5 67.4 81.6 67.8 81.6 68.3 81.6 68.7 81.6 69.3 81.6 69.4 81.4 69.3 81.6 69.4 81.6 69.4 81.4 69.1 81.5 69.1 81.5"/>
      <polygon class="cls-28" points="75.1 80.5 75 80.5 74.8 80.5 74.6 80.5 74.5 80.5 74.3 80.5 74.1 80.6 74 80.6 73.8 80.6 73.6 80.7 73.5 80.7 73.3 80.8 73.2 80.8 73.1 80.9 72.9 80.9 72.8 81 72.7 81.1 72.8 81.3 72.9 81.2 73 81.1 73.2 81.1 73.3 81 73.4 81 73.6 80.9 73.7 80.9 73.9 80.8 74 80.8 74.2 80.8 74.3 80.8 74.5 80.7 74.7 80.7 74.8 80.7 75 80.7 75.1 80.7 75.1 80.5"/>
      <polygon class="cls-28" points="96.1 78.9 75.1 80.5 75.1 80.7 96.1 79.1 96.1 78.9"/>
      <polygon class="cls-28" points="96.5 77.6 96.6 77.8 96.7 77.9 96.7 78 96.8 78.1 96.8 78.2 96.8 78.3 96.8 78.4 96.8 78.5 96.8 78.6 96.7 78.6 96.7 78.7 96.6 78.8 96.5 78.8 96.4 78.9 96.3 78.9 96.1 78.9 96.1 79.1 96.3 79.1 96.5 79.1 96.6 79 96.7 78.9 96.9 78.9 96.9 78.8 97 78.7 97 78.5 97 78.4 97 78.3 97 78.2 97 78 96.9 77.9 96.8 77.8 96.8 77.6 96.7 77.5 96.5 77.6"/>
      <polygon class="cls-28" points="94 76.4 94.2 76.4 94.4 76.5 94.6 76.5 94.7 76.5 94.9 76.6 95.1 76.6 95.3 76.7 95.4 76.8 95.6 76.9 95.7 77 95.9 77.1 96 77.2 96.2 77.3 96.3 77.4 96.4 77.5 96.5 77.6 96.7 77.5 96.6 77.4 96.4 77.2 96.3 77.1 96.2 77 96 76.9 95.9 76.8 95.7 76.7 95.5 76.6 95.4 76.5 95.2 76.4 95 76.4 94.8 76.3 94.6 76.3 94.4 76.2 94.2 76.2 94 76.2 94 76.4"/>
      <polygon class="cls-28" points="75.4 77.1 94 76.4 94 76.2 75.4 76.9 75.4 77.1"/>
      <polygon class="cls-28" points="72.5 76.6 72.7 76.7 72.9 76.7 73 76.8 73.2 76.8 73.4 76.9 73.6 76.9 73.8 76.9 74 77 74.2 77 74.3 77 74.5 77 74.7 77.1 74.9 77.1 75.1 77.1 75.3 77.1 75.4 77.1 75.4 76.9 75.3 76.9 75.1 76.8 74.9 76.8 74.7 76.8 74.6 76.8 74.4 76.8 74.2 76.8 74 76.7 73.8 76.7 73.6 76.7 73.5 76.6 73.3 76.6 73.1 76.6 72.9 76.5 72.7 76.5 72.6 76.4 72.5 76.6 72.5 76.6"/>
      <polygon class="cls-28" points="66.2 74.9 66.6 74.9 66.9 74.8 67.1 74.8 67.4 74.8 67.7 74.8 67.9 74.8 68.1 74.8 68.3 74.8 68.5 74.9 68.7 74.9 68.9 74.9 69 75 69.2 75.1 69.3 75.1 69.5 75.2 69.6 75.2 69.8 75.3 69.9 75.4 70.1 75.5 70.2 75.6 70.3 75.6 70.5 75.7 70.6 75.8 70.8 75.9 71 76 71.2 76.1 71.4 76.2 71.6 76.3 71.8 76.4 72 76.4 72.2 76.5 72.5 76.6 72.6 76.4 72.3 76.3 72.1 76.2 71.9 76.1 71.6 76.1 71.4 76 71.3 75.9 71.1 75.8 70.9 75.7 70.8 75.6 70.6 75.5 70.5 75.4 70.3 75.3 70.2 75.3 70 75.2 69.9 75.1 69.7 75 69.6 75 69.4 74.9 69.3 74.8 69.1 74.8 68.9 74.7 68.7 74.7 68.5 74.7 68.3 74.6 68.1 74.6 67.9 74.6 67.6 74.6 67.4 74.6 67.1 74.6 66.8 74.6 66.5 74.6 66.2 74.7 66.2 74.9 66.2 74.9"/>
      <polygon class="cls-28" points="62.8 76.4 63 76.3 63.2 76.2 63.4 76 63.6 75.9 63.8 75.8 64 75.7 64.2 75.6 64.4 75.5 64.6 75.4 64.9 75.3 65.1 75.2 65.3 75.1 65.5 75.1 65.8 75 66 74.9 66.2 74.9 66.2 74.7 65.9 74.7 65.7 74.8 65.5 74.8 65.2 74.9 65 75 64.8 75.1 64.5 75.2 64.3 75.3 64.1 75.4 63.9 75.5 63.7 75.6 63.5 75.7 63.3 75.8 63.1 76 62.9 76.1 62.7 76.2 62.8 76.4 62.8 76.4"/>
      <polygon class="cls-28" points="62.8 76.9 62.9 77 62.9 76.9 62.8 76.8 62.8 76.7 62.8 76.6 62.8 76.5 62.8 76.5 62.8 76.4 62.8 76.4 62.7 76.2 62.6 76.3 62.5 76.4 62.5 76.5 62.6 76.6 62.6 76.7 62.6 76.8 62.6 76.9 62.7 77 62.8 77.1 62.7 77 62.7 77.1 62.8 77.1 62.8 76.9"/>
      <polygon class="cls-29" points="71.3 77.7 71.3 77.7 71.3 77.7 71.3 77.7"/>
      <polygon class="cls-29" points="71.3 77.8 71.3 77.7 71.3 77.8 71.3 77.8"/>
      <polygon class="cls-29" points="74.4 79.1 78.2 80.3 77.8 80.4 77.8 80.4 74.5 79.3 74.4 79.1"/>
      <path class="cls-29" d="M62.8,77.1l4.9-.2h.1s0,0,0,0h.1s.1,0,.1,0h.1c0,0,0,.1,0,.1h0c0,0,0,.1,0,.1l1.9,5.8h0c0,0,0,0,0,0h0s.1,0,.1,0h.1s.1,0,.1,0h.1s.1,0,.1,0h.1s.1-.1.1-.1h.1c0-.1.1-.3.1-.3h0c0-.1,0-.2,0-.2h0c0-.1,0-.2,0-.2h0c0-.1,0-.2,0-.2h0c0-.1,0-.2,0-.2h0c0-.1,0-.2,0-.2h0c0,0,.1-.2.1-.2h.1c0-.1.1-.2.1-.2h0c0,0,.1-.2.1-.2h.1c0,0,.1-.1.1-.1h.1c0,0,.1-.1.1-.1h.2s.2,0,.2,0h.2s.1,0,.1,0h.2s.2,0,.2,0h.2s.2,0,.2,0h.2s.2,0,.2,0h.2s2.7-.2,2.7-.2l-3.3-1.1v-.2c0,0,3.7,1.3,3.7,1.3l17.9-1.3h.3c0,0,.2-.2.2-.2l.2-.2v-.2c0,0,0-.2,0-.2h0s0-.2,0-.2v-.2c-.1,0-.3-.3-.3-.3h-.1c0-.1-.1-.2-.1-.2h-.1c0-.1-.1-.2-.1-.2h-.1c0-.1-.2-.2-.2-.2h-.2c0-.1-.2-.2-.2-.2h-.2c0,0-.2-.2-.2-.2h-.2c0,0-.2-.1-.2-.1h-.2s-.2,0-.2,0h-.2s-.2,0-.2,0h-2.7c0,0-15.8.6-15.8.6h-.3s-.2,0-.2,0h-.2s-.2,0-.2,0h-.2s-.2,0-.2,0h-.2s-.2,0-.2,0h-.2s-.2,0-.2,0h-.2s-.2,0-.2,0h-.2s-.2,0-.2,0h-.2c0,0-.2-.1-.2-.1h-.3c0,0-.2-.2-.2-.2h-.2c0,0-.2-.2-.2-.2h-.2c0,0-.2-.2-.2-.2h-.2c0,0-.2-.2-.2-.2h-.1c0,0-.2-.2-.2-.2h-.1c0,0-.2-.2-.2-.2h-.1c0,0-.1-.2-.1-.2h-.1c0,0-.2-.2-.2-.2h-.2c0,0-.1-.1-.1-.1h-.2c0,0-.2-.1-.2-.1h-.2s-.2,0-.2,0h-.2s-.2,0-.2,0h-.2s-.2,0-.2,0h-.2s-.3,0-.3,0h-.3s-.3,0-.3,0h-.3s-.2,0-.2,0h-.2c0,0-.2.1-.2.1h-.2c0,0-.2.2-.2.2h-.2c0,0-.2.2-.2.2h-.2c0,.1-.2.2-.2.2h-.2c0,.1,3.4,1.2,3.4,1.2h-4.6c0,.1,0,.4,0,.4ZM93.8,77.2h0c0-.1,0-.2,0-.2h0c0,0,.1-.1.1-.1h.1s0,0,0,0h0s0,0,0,0h0s.1,0,.1,0h0s0,0,0,0h.1c0,0,0,0,0,0h0c0,0,0,.1,0,.1h0c0,0,0,.1,0,.1h0c0,0,0,.2,0,.2h0c0,0,.1.2.1.2v.2c0,0,0,0,0,0h0c0,0,0,.2,0,.2h0c0,.1,0,.2,0,.2h-.1c0,0-.2,0-.2,0h0s0,0,0,0h-.1s-.1,0-.1,0h0s-.1,0-.1,0h-.1s-.1-.1-.1-.1h0s-.1-.1-.1-.1h0c0,0,0-.1,0-.1h0c0,0,0-.1,0-.1h0c0,0,0-.2,0-.2v-.2c-.1,0-.2-.2-.2-.2h0c0,0,0-.1,0-.1ZM74.5,79.6h0c0,0,0,0,0,0ZM71.6,77.8h.1c0-.1,1.6-.2,1.6-.2l.3.2.8,1.9v.2c-.1,0-1.8.1-1.8.1h0s0,.1,0,.1h0l-.4-.2h0s0,0,0,0l-.7-2Z"/>
      <polygon class="cls-30" points="92.8 78.4 92.7 78.3 92.6 78.3 92.8 78.2 92.8 78.3 92.7 78.2 92.8 78.4"/>
      <polygon class="cls-30" points="93 78.3 92.9 78.3 92.9 78.3 92.9 78.4 92.8 78.4 92.8 78.4 92.7 78.2 92.7 78.3 92.8 78.2 92.8 78.2 92.8 78.2 92.8 78.2 92.9 78.3 93 78.3"/>
      <polygon class="cls-30" points="92.6 77.4 92.6 77.4 92.6 77.5 92.7 77.6 92.8 77.7 92.9 77.8 93 77.9 93 78 93 78.2 92.9 78.3 92.8 78.2 92.8 78.1 92.8 78.1 92.8 78 92.7 77.9 92.7 77.8 92.6 77.7 92.5 77.6 92.5 77.5 92.5 77.5 92.6 77.4"/>
      <polygon class="cls-30" points="91.3 77 91.3 77 91.4 77 91.6 77 91.8 77.1 91.9 77.1 92.1 77.1 92.3 77.2 92.4 77.3 92.6 77.4 92.5 77.5 92.3 77.4 92.2 77.4 92.1 77.3 91.9 77.2 91.8 77.2 91.6 77.2 91.4 77.2 91.3 77.2 91.3 77.2 91.3 77.1 91.3 77"/>
      <polygon class="cls-30" points="77.7 77.8 77.7 77.7 91.3 77.1 91.3 77.2 77.7 77.9 77.8 77.8 77.7 77.8"/>
      <polygon class="cls-30" points="77.3 78.2 77.2 78.2 77.2 78.1 77.2 78 77.3 77.9 77.3 77.8 77.4 77.8 77.5 77.8 77.6 77.7 77.7 77.7 77.7 77.9 77.6 77.9 77.5 77.9 77.5 77.9 77.4 78 77.4 78 77.4 78 77.3 78.1 77.3 78.2 77.2 78.1 77.3 78.2"/>
      <polygon class="cls-25" points="92.7 78.2 92.6 78.1 92.6 78.1 92.5 78 92.5 77.9 92.4 77.9 92.4 77.8 92.3 77.8 92.2 77.7 92.1 77.6 91.9 77.5 91.8 77.5 91.6 77.5 91.4 77.4 91.3 77.4 91.1 77.4 77.6 78.1 77.7 77.9 77.7 77.9 77.7 77.9 91.3 77.2 91.5 77.2 91.7 77.2 91.9 77.2 92 77.3 92.2 77.3 92.3 77.4 92.5 77.5 92.6 77.7 92.7 77.8 92.8 78 92.9 78.1 92.9 78.2 92.8 78.2 92.7 78.3 92.7 78.3 92.7 78.2 92.7 78.2"/>
      <path class="cls-25" d="M77.2,78.2h0c0,.1,0,.2,0,.2h0c0,.1,0,.3,0,.3h.1c0,.1.1.2.1.2h.2c0,.1.2.2.2.2h.2c0,0,.2,0,.2,0l13.9-.7h.3s.2,0,.2,0h.1c0,0,0-.2,0-.2h0c0-.1,0-.3,0-.3v-.2c-.1,0-.2-.2-.2-.2v-.2c-.1,0-.3-.1-.3-.1h-.2c0-.1-.2-.2-.2-.2h-.2s-.2,0-.2,0h-.4s-13.5.7-13.5.7h0s-.1,0-.1,0h-.1c0,0,0,.1,0,.1h0c0,0,0,.2,0,.2h0ZM77.3,78.2h0c0,0,0,0,0,0h0s0,0,0,0h.1s.1-.2.1-.2h0s0,0,0,0l13.5-.7h.2s.2,0,.2,0h.2s.2,0,.2,0h.2c0,0,.1.2.1.2h.1c0,.1.1.3.1.3h.1c0,.1,0,.3,0,.3h0v.2h0c0,0,0,.1,0,.1h0s-.2,0-.2,0h-.2s-13.9.7-13.9.7h0s-.2,0-.2,0h-.2c0,0-.2-.1-.2-.1h-.1c0,0-.1-.2-.1-.2h0c0-.1,0-.2,0-.2h0c0,0,0-.2,0-.2h0Z"/>
    </g>
  </g>
  <g>
    <path class="cls-23" d="M53.2,679.4v-5.9h-2.1v-1.2h5.7v1.2h-2.1v5.9h-1.4Z"/>
    <path class="cls-23" d="M59.1,672.3v2.6c.4-.5,1-.8,1.6-.8s.6,0,.9.2c.3.1.4.3.6.4.1.2.2.4.3.6,0,.2,0,.6,0,1v3h-1.4v-2.7c0-.5,0-.9,0-1s-.1-.3-.3-.3c-.1,0-.3-.1-.5-.1s-.4,0-.6.2c-.2.1-.3.3-.4.5,0,.2-.1.6-.1,1v2.6h-1.4v-7.2h1.4Z"/>
    <path class="cls-23" d="M63.8,673.5v-1.3h1.4v1.3h-1.4ZM63.8,679.4v-5.2h1.4v5.2h-1.4Z"/>
    <path class="cls-23" d="M66.1,677.9l1.4-.2c0,.3.2.5.4.6.2.1.4.2.8.2s.6,0,.8-.2c.1,0,.2-.2.2-.4s0-.2,0-.3c0,0-.2-.1-.5-.2-1.1-.2-1.8-.5-2.1-.7-.4-.3-.6-.7-.6-1.2s.2-.8.5-1.1c.4-.3.9-.5,1.6-.5s1.2.1,1.6.3c.3.2.6.6.7,1l-1.3.2c0-.2-.2-.4-.3-.5s-.4-.2-.7-.2-.6,0-.8.2c-.1,0-.2.2-.2.3s0,.2.1.2c.1,0,.5.2,1.3.4s1.2.4,1.5.6c.3.2.4.6.4,1s-.2.9-.6,1.2c-.4.3-1,.5-1.8.5s-1.3-.1-1.7-.4c-.4-.3-.7-.7-.8-1.2Z"/>
    <path class="cls-23" d="M74.4,677.9l1.4-.2c0,.3.2.5.4.6.2.1.4.2.8.2s.6,0,.8-.2c.1,0,.2-.2.2-.4s0-.2,0-.3c0,0-.2-.1-.5-.2-1.1-.2-1.8-.5-2.1-.7-.4-.3-.6-.7-.6-1.2s.2-.8.5-1.1c.4-.3.9-.5,1.6-.5s1.2.1,1.6.3c.3.2.6.6.7,1l-1.3.2c0-.2-.2-.4-.3-.5s-.4-.2-.7-.2-.6,0-.8.2c-.1,0-.2.2-.2.3s0,.2.1.2c.1,0,.5.2,1.3.4s1.2.4,1.5.6c.3.2.4.6.4,1s-.2.9-.6,1.2c-.4.3-1,.5-1.8.5s-1.3-.1-1.7-.4c-.4-.3-.7-.7-.8-1.2Z"/>
    <path class="cls-23" d="M80.5,673.5v-1.3h1.4v1.3h-1.4ZM80.5,679.4v-5.2h1.4v5.2h-1.4Z"/>
    <path class="cls-23" d="M88,679.4h-1.3v-.8c-.2.3-.5.5-.7.7-.3.1-.6.2-.9.2-.6,0-1.1-.2-1.5-.7-.4-.5-.6-1.2-.6-2s.2-1.5.6-2c.4-.5.9-.7,1.6-.7s1.1.2,1.5.7v-2.6h1.4v7.2ZM84.4,676.7c0,.6,0,1,.2,1.2.2.4.5.5.9.5s.6-.1.8-.4c.2-.3.3-.7.3-1.2s-.1-1-.3-1.3c-.2-.3-.5-.4-.8-.4s-.6.1-.8.4-.3.6-.3,1.2Z"/>
    <path class="cls-23" d="M92.4,677.8l1.4.2c-.2.5-.5.9-.8,1.1-.4.3-.9.4-1.4.4-.9,0-1.6-.3-2-.9-.3-.5-.5-1.1-.5-1.8s.2-1.5.7-2c.4-.5,1-.7,1.7-.7s1.4.3,1.8.8c.4.5.7,1.3.6,2.3h-3.4c0,.4.1.7.3,1,.2.2.5.3.8.3s.4,0,.5-.2c.1-.1.3-.3.3-.6ZM92.4,676.4c0-.4-.1-.7-.3-.9-.2-.2-.4-.3-.7-.3s-.5.1-.7.3c-.2.2-.3.5-.3.9h2Z"/>
    <path class="cls-23" d="M97.7,673.5v-1.3h1.4v1.3h-1.4ZM97.7,679.4v-5.2h1.4v5.2h-1.4Z"/>
    <path class="cls-23" d="M100,677.9l1.4-.2c0,.3.2.5.4.6.2.1.4.2.8.2s.6,0,.8-.2c.1,0,.2-.2.2-.4s0-.2,0-.3c0,0-.2-.1-.5-.2-1.1-.2-1.8-.5-2.1-.7-.4-.3-.6-.7-.6-1.2s.2-.8.5-1.1c.4-.3.9-.5,1.6-.5s1.2.1,1.6.3c.3.2.6.6.7,1l-1.3.2c0-.2-.2-.4-.3-.5s-.4-.2-.7-.2-.6,0-.8.2c-.1,0-.2.2-.2.3s0,.2.1.2c.1,0,.5.2,1.3.4s1.2.4,1.5.6c.3.2.4.6.4,1s-.2.9-.6,1.2c-.4.3-1,.5-1.8.5s-1.3-.1-1.7-.4c-.4-.3-.7-.7-.8-1.2Z"/>
    <path class="cls-23" d="M111.2,674.2v1.1h-.9v2.1c0,.4,0,.7,0,.7,0,0,0,.1.1.2,0,0,.1,0,.2,0s.3,0,.6-.1v1.1c-.2.1-.6.2-1,.2s-.5,0-.7-.1-.3-.2-.4-.3-.2-.3-.2-.5c0-.2,0-.5,0-1v-2.3h-.6v-1.1h.6v-1l1.4-.8v1.8h.9Z"/>
    <path class="cls-23" d="M113.5,672.3v2.6c.4-.5,1-.8,1.6-.8s.6,0,.9.2c.3.1.4.3.6.4.1.2.2.4.3.6,0,.2,0,.6,0,1v3h-1.4v-2.7c0-.5,0-.9,0-1s-.1-.3-.3-.3c-.1,0-.3-.1-.5-.1s-.4,0-.6.2c-.2.1-.3.3-.4.5,0,.2-.1.6-.1,1v2.6h-1.4v-7.2h1.4Z"/>
    <path class="cls-23" d="M121.2,677.8l1.4.2c-.2.5-.5.9-.8,1.1-.4.3-.9.4-1.4.4-.9,0-1.6-.3-2-.9-.3-.5-.5-1.1-.5-1.8s.2-1.5.7-2c.4-.5,1-.7,1.7-.7s1.4.3,1.8.8c.4.5.7,1.3.6,2.3h-3.4c0,.4.1.7.3,1,.2.2.5.3.8.3s.4,0,.5-.2c.1-.1.3-.3.3-.6ZM121.3,676.4c0-.4-.1-.7-.3-.9-.2-.2-.4-.3-.7-.3s-.5.1-.7.3c-.2.2-.3.5-.3.9h2Z"/>
    <path class="cls-23" d="M126.5,679.4v-7.2h1.4v7.2h-1.4Z"/>
    <path class="cls-23" d="M129.4,679.4v-7.2h1.4l2.9,4.8v-4.8h1.3v7.2h-1.4l-2.9-4.7v4.7h-1.3Z"/>
    <path class="cls-23" d="M136.6,679.4v-7.2h1.4l2.9,4.8v-4.8h1.3v7.2h-1.4l-2.9-4.7v4.7h-1.3Z"/>
    <path class="cls-23" d="M143.8,679.4v-7.2h5.3v1.2h-3.9v1.6h3.6v1.2h-3.6v1.9h4v1.2h-5.4Z"/>
    <path class="cls-23" d="M150.5,679.4v-7.2h3c.8,0,1.3,0,1.7.2.3.1.6.4.8.7.2.3.3.7.3,1.1s-.2,1-.5,1.3c-.3.3-.8.6-1.4.7.3.2.6.4.8.6.2.2.5.6.8,1.2l.9,1.4h-1.7l-1-1.6c-.4-.6-.6-.9-.8-1.1-.1-.1-.3-.2-.4-.3-.2,0-.4,0-.7,0h-.3v3h-1.4ZM151.9,675.3h1.1c.7,0,1.1,0,1.3,0,.2,0,.3-.2.4-.3,0-.1.1-.3.1-.5s0-.4-.2-.6c-.1-.1-.3-.2-.5-.3-.1,0-.5,0-1.1,0h-1.1v1.8Z"/>
    <path class="cls-23" d="M160.5,679.4v-7.2h4.9v1.2h-3.5v1.7h3v1.2h-3v3h-1.4Z"/>
    <path class="cls-23" d="M172.5,679.4h-1.6l-.6-1.6h-2.9l-.6,1.6h-1.5l2.8-7.2h1.5l2.9,7.2ZM169.8,676.6l-1-2.7-1,2.7h2Z"/>
    <path class="cls-23" d="M177.8,676.8l1.4.4c-.2.8-.6,1.4-1.1,1.7-.5.4-1.1.6-1.9.6s-1.7-.3-2.3-1-.9-1.5-.9-2.7.3-2.1.9-2.8c.6-.7,1.4-1,2.4-1s1.6.3,2.1.8c.3.3.6.7.7,1.3l-1.4.3c0-.4-.3-.7-.5-.9s-.6-.3-1-.3-1,.2-1.3.6-.5,1-.5,1.9.2,1.5.5,1.9c.3.4.7.6,1.3.6s.7-.1,1-.4.5-.6.6-1.2Z"/>
    <path class="cls-23" d="M180.4,679.4v-7.2h5.3v1.2h-3.9v1.6h3.6v1.2h-3.6v1.9h4v1.2h-5.4Z"/>
    <path class="cls-23" d="M189.8,674.2h1.3v.8c.2-.3.4-.5.7-.6.3-.2.6-.2.9-.2.6,0,1.1.2,1.5.7.4.5.6,1.1.6,2s-.2,1.5-.6,2c-.4.5-.9.7-1.5.7s-.5,0-.8-.2c-.2-.1-.5-.3-.7-.6v2.6h-1.4v-7.2ZM191.2,676.7c0,.6.1,1,.3,1.3.2.3.5.4.8.4s.6-.1.8-.4c.2-.3.3-.7.3-1.3s-.1-.9-.3-1.2-.5-.4-.8-.4-.6.1-.8.4c-.2.3-.3.6-.3,1.1Z"/>
    <path class="cls-23" d="M197,675.8l-1.2-.2c.1-.5.4-.9.7-1.1.3-.2.8-.4,1.5-.4s1.1,0,1.4.2c.3.1.5.3.6.6.1.2.2.6.2,1.2v1.6c0,.5,0,.8,0,1,0,.2.1.4.2.7h-1.4c0,0,0-.2-.1-.4,0,0,0-.1,0-.2-.2.2-.5.4-.8.5-.3.1-.6.2-.9.2-.5,0-1-.1-1.3-.4-.3-.3-.5-.7-.5-1.1s0-.6.2-.8c.1-.2.3-.4.6-.5.3-.1.6-.2,1.1-.3.6-.1,1.1-.2,1.3-.3h0c0-.4,0-.6-.2-.7-.1-.1-.4-.2-.7-.2s-.4,0-.6.1c-.1,0-.2.3-.3.5ZM198.8,676.9c-.2,0-.5.1-.8.2-.4,0-.6.2-.7.2-.2.1-.3.3-.3.5s0,.4.2.5c.1.1.3.2.5.2s.5,0,.7-.2c.2-.1.3-.3.3-.5,0-.1,0-.3,0-.7v-.3Z"/>
    <path class="cls-23" d="M206.2,679.4h-1.4v-2.6c0-.6,0-.9,0-1.1,0-.2-.2-.3-.3-.4-.1,0-.3-.1-.5-.1s-.5,0-.6.2c-.2.1-.3.3-.4.5,0,.2-.1.6-.1,1.2v2.3h-1.4v-5.2h1.3v.8c.5-.6,1-.9,1.7-.9s.6,0,.8.2c.2.1.4.2.6.4.1.2.2.4.3.6,0,.2,0,.5,0,.9v3.2Z"/>
    <path class="cls-23" d="M210.6,677.8l1.4.2c-.2.5-.5.9-.8,1.1-.4.3-.9.4-1.4.4-.9,0-1.6-.3-2-.9-.3-.5-.5-1.1-.5-1.8s.2-1.5.7-2c.4-.5,1-.7,1.7-.7s1.4.3,1.8.8c.4.5.7,1.3.6,2.3h-3.4c0,.4.1.7.3,1,.2.2.5.3.8.3s.4,0,.5-.2c.1-.1.3-.3.3-.6ZM210.7,676.4c0-.4-.1-.7-.3-.9-.2-.2-.4-.3-.7-.3s-.5.1-.7.3c-.2.2-.3.5-.3.9h2Z"/>
    <path class="cls-23" d="M213.2,679.4v-7.2h1.4v7.2h-1.4Z"/>
    <path class="cls-23" d="M218.4,676.8c0-.5.1-.9.3-1.3.2-.4.5-.8,1-1,.4-.2.9-.3,1.4-.3.8,0,1.4.3,1.9.8.5.5.8,1.2.8,1.9s-.3,1.4-.8,2c-.5.5-1.1.8-1.9.8s-.9-.1-1.4-.3-.8-.5-1-.9c-.2-.4-.3-.9-.3-1.5ZM219.8,676.8c0,.5.1.9.4,1.2.2.3.5.4.9.4s.7-.1.9-.4c.2-.3.4-.7.4-1.2s-.1-.9-.4-1.2c-.2-.3-.5-.4-.9-.4s-.7.1-.9.4c-.2.3-.4.7-.4,1.2Z"/>
    <path class="cls-23" d="M224.2,674.2h.8v-.4c0-.4,0-.8.1-1s.3-.4.5-.5c.2-.1.6-.2.9-.2s.8,0,1.1.2l-.2,1c-.2,0-.4,0-.6,0s-.3,0-.4.1c0,0-.1.3-.1.5v.4h1v1.1h-1v4.1h-1.4v-4.1h-.8v-1.1Z"/>
    <path class="cls-23" d="M233.3,674.2v1.1h-.9v2.1c0,.4,0,.7,0,.7,0,0,0,.1.1.2,0,0,.1,0,.2,0s.3,0,.6-.1v1.1c-.2.1-.6.2-1,.2s-.5,0-.7-.1-.3-.2-.4-.3-.2-.3-.2-.5c0-.2,0-.5,0-1v-2.3h-.6v-1.1h.6v-1l1.4-.8v1.8h.9Z"/>
    <path class="cls-23" d="M235.6,672.3v2.6c.4-.5,1-.8,1.6-.8s.6,0,.9.2c.3.1.4.3.6.4.1.2.2.4.3.6,0,.2,0,.6,0,1v3h-1.4v-2.7c0-.5,0-.9,0-1s-.1-.3-.3-.3c-.1,0-.3-.1-.5-.1s-.4,0-.6.2c-.2.1-.3.3-.4.5,0,.2-.1.6-.1,1v2.6h-1.4v-7.2h1.4Z"/>
    <path class="cls-23" d="M243.4,677.8l1.4.2c-.2.5-.5.9-.8,1.1-.4.3-.9.4-1.4.4-.9,0-1.6-.3-2-.9-.3-.5-.5-1.1-.5-1.8s.2-1.5.7-2c.4-.5,1-.7,1.7-.7s1.4.3,1.8.8c.4.5.7,1.3.6,2.3h-3.4c0,.4.1.7.3,1,.2.2.5.3.8.3s.4,0,.5-.2c.1-.1.3-.3.3-.6ZM243.5,676.4c0-.4-.1-.7-.3-.9-.2-.2-.4-.3-.7-.3s-.5.1-.7.3c-.2.2-.3.5-.3.9h2Z"/>
    <path class="cls-23" d="M248.7,672.3h2.9c.6,0,1,0,1.3,0,.3,0,.5.1.7.3.2.2.4.3.5.6s.2.5.2.8,0,.6-.3.9c-.2.3-.4.5-.7.6.4.1.8.3,1,.6.2.3.4.7.4,1.1s0,.6-.2,1c-.2.3-.4.6-.6.7-.3.2-.6.3-1,.3-.2,0-.8,0-1.7,0h-2.4v-7.2ZM250.2,673.5v1.7h.9c.6,0,.9,0,1,0,.2,0,.4-.1.6-.3s.2-.3.2-.6,0-.4-.2-.5c-.1-.1-.3-.2-.5-.3-.1,0-.6,0-1.2,0h-.8ZM250.2,676.3v1.9h1.3c.5,0,.9,0,1,0,.2,0,.4-.1.5-.3.1-.2.2-.4.2-.6s0-.4-.2-.5c-.1-.1-.3-.3-.5-.3-.2,0-.6-.1-1.3-.1h-1.2Z"/>
    <path class="cls-23" d="M255.6,676.8c0-.5.1-.9.3-1.3.2-.4.5-.8,1-1,.4-.2.9-.3,1.4-.3.8,0,1.4.3,1.9.8.5.5.8,1.2.8,1.9s-.3,1.4-.8,2c-.5.5-1.1.8-1.9.8s-.9-.1-1.4-.3-.8-.5-1-.9c-.2-.4-.3-.9-.3-1.5ZM257,676.8c0,.5.1.9.4,1.2.2.3.5.4.9.4s.7-.1.9-.4c.2-.3.4-.7.4-1.2s-.1-.9-.4-1.2c-.2-.3-.5-.4-.9-.4s-.7.1-.9.4c-.2.3-.4.7-.4,1.2Z"/>
    <path class="cls-23" d="M263.1,675.8l-1.2-.2c.1-.5.4-.9.7-1.1.3-.2.8-.4,1.5-.4s1.1,0,1.4.2c.3.1.5.3.6.6.1.2.2.6.2,1.2v1.6c0,.5,0,.8,0,1,0,.2.1.4.2.7h-1.4c0,0,0-.2-.1-.4,0,0,0-.1,0-.2-.2.2-.5.4-.8.5-.3.1-.6.2-.9.2-.5,0-1-.1-1.3-.4-.3-.3-.5-.7-.5-1.1s0-.6.2-.8c.1-.2.3-.4.6-.5.3-.1.6-.2,1.1-.3.6-.1,1.1-.2,1.3-.3h0c0-.4,0-.6-.2-.7-.1-.1-.4-.2-.7-.2s-.4,0-.6.1c-.1,0-.2.3-.3.5ZM264.9,676.9c-.2,0-.5.1-.8.2-.4,0-.6.2-.7.2-.2.1-.3.3-.3.5s0,.4.2.5c.1.1.3.2.5.2s.5,0,.7-.2c.2-.1.3-.3.3-.5,0-.1,0-.3,0-.7v-.3Z"/>
    <path class="cls-23" d="M268.9,679.4h-1.4v-5.2h1.3v.7c.2-.3.4-.6.6-.7.2-.1.4-.2.6-.2s.6,0,.9.3l-.4,1.2c-.2-.1-.4-.2-.6-.2s-.4,0-.5.2c-.1.1-.2.3-.3.6,0,.3-.1.9-.1,1.7v1.6Z"/>
    <path class="cls-23" d="M276.2,679.4h-1.3v-.8c-.2.3-.5.5-.7.7-.3.1-.6.2-.9.2-.6,0-1.1-.2-1.5-.7-.4-.5-.6-1.2-.6-2s.2-1.5.6-2c.4-.5.9-.7,1.6-.7s1.1.2,1.5.7v-2.6h1.4v7.2ZM272.6,676.7c0,.6,0,1,.2,1.2.2.4.5.5.9.5s.6-.1.8-.4c.2-.3.3-.7.3-1.2s-.1-1-.3-1.3c-.2-.3-.5-.4-.8-.4s-.6.1-.8.4-.3.6-.3,1.2Z"/>
    <path class="cls-23" d="M277.6,679.4v-1.4h1.4v1.4h-1.4Z"/>
    <path class="cls-23" d="M51.6,689.4v-7.2h2.3c.9,0,1.5,0,1.7.1.4.1.8.3,1,.7.3.4.4.8.4,1.4s0,.8-.2,1.1c-.2.3-.4.5-.6.7-.2.2-.5.3-.7.3-.3,0-.8.1-1.5.1h-.9v2.7h-1.4ZM53.1,683.5v2h.8c.6,0,.9,0,1.1-.1.2,0,.3-.2.5-.4.1-.2.2-.3.2-.6s0-.5-.2-.6c-.2-.2-.3-.3-.6-.3-.2,0-.5,0-1,0h-.7Z"/>
    <path class="cls-23" d="M58.3,689.4v-7.2h1.4v7.2h-1.4Z"/>
    <path class="cls-23" d="M62.1,685.8l-1.2-.2c.1-.5.4-.9.7-1.1.3-.2.8-.4,1.5-.4s1.1,0,1.4.2c.3.1.5.3.6.6.1.2.2.6.2,1.2v1.6c0,.5,0,.8,0,1,0,.2.1.4.2.7h-1.4c0,0,0-.2-.1-.4,0,0,0-.1,0-.2-.2.2-.5.4-.8.5-.3.1-.6.2-.9.2-.5,0-1-.1-1.3-.4-.3-.3-.5-.7-.5-1.1s0-.6.2-.8c.1-.2.3-.4.6-.5.3-.1.6-.2,1.1-.3.6-.1,1.1-.2,1.3-.3h0c0-.4,0-.6-.2-.7-.1-.1-.4-.2-.7-.2s-.4,0-.6.1c-.1,0-.2.3-.3.5ZM63.9,686.9c-.2,0-.5.1-.8.2-.4,0-.6.2-.7.2-.2.1-.3.3-.3.5s0,.4.2.5c.1.1.3.2.5.2s.5,0,.7-.2c.2-.1.3-.3.3-.5,0-.1,0-.3,0-.7v-.3Z"/>
    <path class="cls-23" d="M71.1,685.8l-1.4.2c0-.3-.1-.5-.3-.6s-.4-.2-.6-.2-.6.1-.8.4c-.2.2-.3.6-.3,1.2s.1,1,.3,1.3c.2.3.5.4.8.4s.5,0,.6-.2c.2-.1.3-.4.4-.8l1.3.2c-.1.6-.4,1.1-.8,1.4-.4.3-.9.5-1.6.5s-1.4-.2-1.8-.7c-.5-.5-.7-1.1-.7-2s.2-1.5.7-2c.5-.5,1.1-.7,1.8-.7s1.1.1,1.5.4c.4.3.6.7.8,1.2Z"/>
    <path class="cls-23" d="M75.2,687.8l1.4.2c-.2.5-.5.9-.8,1.1-.4.3-.9.4-1.4.4-.9,0-1.6-.3-2-.9-.3-.5-.5-1.1-.5-1.8s.2-1.5.7-2c.4-.5,1-.7,1.7-.7s1.4.3,1.8.8c.4.5.7,1.3.6,2.3h-3.4c0,.4.1.7.3,1,.2.2.5.3.8.3s.4,0,.5-.2c.1-.1.3-.3.3-.6ZM75.2,686.4c0-.4-.1-.7-.3-.9-.2-.2-.4-.3-.7-.3s-.5.1-.7.3c-.2.2-.3.5-.3.9h2Z"/>
    <path class="cls-23" d="M79.9,684.2h1.5l1.2,3.7,1.2-3.7h1.4l-1.8,5-.3.9c-.1.3-.2.5-.3.7-.1.2-.2.3-.4.4-.1,0-.3.2-.5.2-.2,0-.4,0-.7,0s-.5,0-.8,0v-1.1c0,0,.3,0,.5,0,.3,0,.6,0,.7-.3.2-.2.3-.4.4-.7l-2-5.2Z"/>
    <path class="cls-23" d="M85.7,686.8c0-.5.1-.9.3-1.3.2-.4.5-.8,1-1,.4-.2.9-.3,1.4-.3.8,0,1.4.3,1.9.8.5.5.8,1.2.8,1.9s-.3,1.4-.8,2c-.5.5-1.1.8-1.9.8s-.9-.1-1.4-.3-.8-.5-1-.9c-.2-.4-.3-.9-.3-1.5ZM87.1,686.8c0,.5.1.9.4,1.2.2.3.5.4.9.4s.7-.1.9-.4c.2-.3.4-.7.4-1.2s-.1-.9-.4-1.2c-.2-.3-.5-.4-.9-.4s-.7.1-.9.4c-.2.3-.4.7-.4,1.2Z"/>
    <path class="cls-23" d="M95.6,689.4v-.8c-.2.3-.4.5-.7.7-.3.2-.6.2-1,.2s-.7,0-.9-.2c-.3-.2-.5-.4-.6-.6-.1-.3-.2-.7-.2-1.1v-3.3h1.4v2.4c0,.7,0,1.2,0,1.3,0,.2.1.3.3.4.1,0,.3.1.5.1s.4,0,.6-.2c.2-.1.3-.3.4-.5s.1-.7.1-1.4v-2.2h1.4v5.2h-1.3Z"/>
    <path class="cls-23" d="M99.6,689.4h-1.4v-5.2h1.3v.7c.2-.3.4-.6.6-.7.2-.1.4-.2.6-.2s.6,0,.9.3l-.4,1.2c-.2-.1-.4-.2-.6-.2s-.4,0-.5.2c-.1.1-.2.3-.3.6,0,.3-.1.9-.1,1.7v1.6Z"/>
    <path class="cls-23" d="M106,685.8l-1.2-.2c.1-.5.4-.9.7-1.1.3-.2.8-.4,1.5-.4s1.1,0,1.4.2c.3.1.5.3.6.6.1.2.2.6.2,1.2v1.6c0,.5,0,.8,0,1,0,.2.1.4.2.7h-1.4c0,0,0-.2-.1-.4,0,0,0-.1,0-.2-.2.2-.5.4-.8.5-.3.1-.6.2-.9.2-.5,0-1-.1-1.3-.4-.3-.3-.5-.7-.5-1.1s0-.6.2-.8c.1-.2.3-.4.6-.5.3-.1.6-.2,1.1-.3.6-.1,1.1-.2,1.3-.3h0c0-.4,0-.6-.2-.7-.1-.1-.4-.2-.7-.2s-.4,0-.6.1c-.1,0-.2.3-.3.5ZM107.8,686.9c-.2,0-.5.1-.8.2-.4,0-.6.2-.7.2-.2.1-.3.3-.3.5s0,.4.2.5c.1.1.3.2.5.2s.5,0,.7-.2c.2-.1.3-.3.3-.5,0-.1,0-.3,0-.7v-.3Z"/>
    <path class="cls-23" d="M111.8,689.4h-1.4v-5.2h1.3v.7c.2-.3.4-.6.6-.7.2-.1.4-.2.6-.2s.6,0,.9.3l-.4,1.2c-.2-.1-.4-.2-.6-.2s-.4,0-.5.2c-.1.1-.2.3-.3.6,0,.3-.1.9-.1,1.7v1.6Z"/>
    <path class="cls-23" d="M116.8,684.2v1.1h-.9v2.1c0,.4,0,.7,0,.7,0,0,0,.1.1.2,0,0,.1,0,.2,0s.3,0,.6-.1v1.1c-.2.1-.6.2-1,.2s-.5,0-.7-.1-.3-.2-.4-.3-.2-.3-.2-.5c0-.2,0-.5,0-1v-2.3h-.6v-1.1h.6v-1l1.4-.8v1.8h.9Z"/>
    <path class="cls-23" d="M122.9,684.2v1.1h-.9v2.1c0,.4,0,.7,0,.7,0,0,0,.1.1.2,0,0,.1,0,.2,0s.3,0,.6-.1v1.1c-.2.1-.6.2-1,.2s-.5,0-.7-.1-.3-.2-.4-.3-.2-.3-.2-.5c0-.2,0-.5,0-1v-2.3h-.6v-1.1h.6v-1l1.4-.8v1.8h.9Z"/>
    <path class="cls-23" d="M125.2,682.3v2.6c.4-.5,1-.8,1.6-.8s.6,0,.9.2c.3.1.4.3.6.4.1.2.2.4.3.6,0,.2,0,.6,0,1v3h-1.4v-2.7c0-.5,0-.9,0-1s-.1-.3-.3-.3c-.1,0-.3-.1-.5-.1s-.4,0-.6.2c-.2.1-.3.3-.4.5,0,.2-.1.6-.1,1v2.6h-1.4v-7.2h1.4Z"/>
    <path class="cls-23" d="M130.9,685.8l-1.2-.2c.1-.5.4-.9.7-1.1.3-.2.8-.4,1.5-.4s1.1,0,1.4.2c.3.1.5.3.6.6.1.2.2.6.2,1.2v1.6c0,.5,0,.8,0,1,0,.2.1.4.2.7h-1.4c0,0,0-.2-.1-.4,0,0,0-.1,0-.2-.2.2-.5.4-.8.5-.3.1-.6.2-.9.2-.5,0-1-.1-1.3-.4-.3-.3-.5-.7-.5-1.1s0-.6.2-.8c.1-.2.3-.4.6-.5.3-.1.6-.2,1.1-.3.6-.1,1.1-.2,1.3-.3h0c0-.4,0-.6-.2-.7-.1-.1-.4-.2-.7-.2s-.4,0-.6.1c-.1,0-.2.3-.3.5ZM132.8,686.9c-.2,0-.5.1-.8.2-.4,0-.6.2-.7.2-.2.1-.3.3-.3.5s0,.4.2.5c.1.1.3.2.5.2s.5,0,.7-.2c.2-.1.3-.3.3-.5,0-.1,0-.3,0-.7v-.3Z"/>
    <path class="cls-23" d="M137.8,684.2v1.1h-.9v2.1c0,.4,0,.7,0,.7,0,0,0,.1.1.2,0,0,.1,0,.2,0s.3,0,.6-.1v1.1c-.2.1-.6.2-1,.2s-.5,0-.7-.1-.3-.2-.4-.3-.2-.3-.2-.5c0-.2,0-.5,0-1v-2.3h-.6v-1.1h.6v-1l1.4-.8v1.8h.9Z"/>
    <path class="cls-23" d="M142.5,689.4l-1.6-5.2h1.3l1,3.4.9-3.4h1.3l.9,3.4,1-3.4h1.4l-1.7,5.2h-1.3l-.9-3.3-.9,3.3h-1.3Z"/>
    <path class="cls-23" d="M149.3,683.5v-1.3h1.4v1.3h-1.4ZM149.3,689.4v-5.2h1.4v5.2h-1.4Z"/>
    <path class="cls-23" d="M152.1,689.4v-7.2h1.4v7.2h-1.4Z"/>
    <path class="cls-23" d="M154.9,689.4v-7.2h1.4v7.2h-1.4Z"/>
    <path class="cls-23" d="M160,687.9l1.4-.2c0,.3.2.5.4.6.2.1.4.2.8.2s.6,0,.8-.2c.1,0,.2-.2.2-.4s0-.2,0-.3c0,0-.2-.1-.5-.2-1.1-.2-1.8-.5-2.1-.7-.4-.3-.6-.7-.6-1.2s.2-.8.5-1.1c.4-.3.9-.5,1.6-.5s1.2.1,1.6.3c.3.2.6.6.7,1l-1.3.2c0-.2-.2-.4-.3-.5s-.4-.2-.7-.2-.6,0-.8.2c-.1,0-.2.2-.2.3s0,.2.1.2c.1,0,.5.2,1.3.4s1.2.4,1.5.6c.3.2.4.6.4,1s-.2.9-.6,1.2c-.4.3-1,.5-1.8.5s-1.3-.1-1.7-.4c-.4-.3-.7-.7-.8-1.2Z"/>
    <path class="cls-23" d="M167.4,682.3v2.6c.4-.5,1-.8,1.6-.8s.6,0,.9.2c.3.1.4.3.6.4.1.2.2.4.3.6,0,.2,0,.6,0,1v3h-1.4v-2.7c0-.5,0-.9,0-1s-.1-.3-.3-.3c-.1,0-.3-.1-.5-.1s-.4,0-.6.2c-.2.1-.3.3-.4.5,0,.2-.1.6-.1,1v2.6h-1.4v-7.2h1.4Z"/>
    <path class="cls-23" d="M171.8,686.8c0-.5.1-.9.3-1.3.2-.4.5-.8,1-1,.4-.2.9-.3,1.4-.3.8,0,1.4.3,1.9.8.5.5.8,1.2.8,1.9s-.3,1.4-.8,2c-.5.5-1.1.8-1.9.8s-.9-.1-1.4-.3-.8-.5-1-.9c-.2-.4-.3-.9-.3-1.5ZM173.2,686.8c0,.5.1.9.4,1.2.2.3.5.4.9.4s.7-.1.9-.4c.2-.3.4-.7.4-1.2s-.1-.9-.4-1.2c-.2-.3-.5-.4-.9-.4s-.7.1-.9.4c-.2.3-.4.7-.4,1.2Z"/>
    <path class="cls-23" d="M179.2,689.4l-1.6-5.2h1.3l1,3.4.9-3.4h1.3l.9,3.4,1-3.4h1.4l-1.7,5.2h-1.3l-.9-3.3-.9,3.3h-1.3Z"/>
    <path class="cls-23" d="M191.1,684.2v1.1h-.9v2.1c0,.4,0,.7,0,.7,0,0,0,.1.1.2,0,0,.1,0,.2,0s.3,0,.6-.1v1.1c-.2.1-.6.2-1,.2s-.5,0-.7-.1-.3-.2-.4-.3-.2-.3-.2-.5c0-.2,0-.5,0-1v-2.3h-.6v-1.1h.6v-1l1.4-.8v1.8h.9Z"/>
    <path class="cls-23" d="M193.5,682.3v2.6c.4-.5,1-.8,1.6-.8s.6,0,.9.2c.3.1.4.3.6.4.1.2.2.4.3.6,0,.2,0,.6,0,1v3h-1.4v-2.7c0-.5,0-.9,0-1s-.1-.3-.3-.3c-.1,0-.3-.1-.5-.1s-.4,0-.6.2c-.2.1-.3.3-.4.5,0,.2-.1.6-.1,1v2.6h-1.4v-7.2h1.4Z"/>
    <path class="cls-23" d="M199.5,689.4h-1.4v-5.2h1.3v.7c.2-.3.4-.6.6-.7.2-.1.4-.2.6-.2s.6,0,.9.3l-.4,1.2c-.2-.1-.4-.2-.6-.2s-.4,0-.5.2c-.1.1-.2.3-.3.6,0,.3-.1.9-.1,1.7v1.6Z"/>
    <path class="cls-23" d="M201.8,686.8c0-.5.1-.9.3-1.3.2-.4.5-.8,1-1,.4-.2.9-.3,1.4-.3.8,0,1.4.3,1.9.8.5.5.8,1.2.8,1.9s-.3,1.4-.8,2c-.5.5-1.1.8-1.9.8s-.9-.1-1.4-.3-.8-.5-1-.9c-.2-.4-.3-.9-.3-1.5ZM203.2,686.8c0,.5.1.9.4,1.2.2.3.5.4.9.4s.7-.1.9-.4c.2-.3.4-.7.4-1.2s-.1-.9-.4-1.2c-.2-.3-.5-.4-.9-.4s-.7.1-.9.4c-.2.3-.4.7-.4,1.2Z"/>
    <path class="cls-23" d="M211.6,689.4v-.8c-.2.3-.4.5-.7.7-.3.2-.6.2-1,.2s-.7,0-.9-.2c-.3-.2-.5-.4-.6-.6-.1-.3-.2-.7-.2-1.1v-3.3h1.4v2.4c0,.7,0,1.2,0,1.3,0,.2.1.3.3.4.1,0,.3.1.5.1s.4,0,.6-.2c.2-.1.3-.3.4-.5s.1-.7.1-1.4v-2.2h1.4v5.2h-1.3Z"/>
    <path class="cls-23" d="M214.2,689.8l1.6.2c0,.2,0,.3.2.4.1,0,.3.1.6.1s.6,0,.8-.2c.1,0,.2-.2.3-.3,0-.1,0-.3,0-.6v-.8c-.4.6-.9.8-1.6.8s-1.2-.3-1.7-.9c-.3-.5-.5-1-.5-1.7s.2-1.5.6-2,.9-.7,1.6-.7,1.2.3,1.6.8v-.7h1.3v4.7c0,.6,0,1.1-.2,1.4s-.2.5-.4.7c-.2.2-.4.3-.7.4-.3,0-.7.1-1.2.1-.9,0-1.5-.2-1.9-.5-.4-.3-.6-.7-.6-1.1s0-.1,0-.2ZM215.4,686.7c0,.6.1,1,.3,1.2.2.3.5.4.8.4s.6-.1.8-.4c.2-.3.3-.7.3-1.2s-.1-.9-.3-1.2c-.2-.3-.5-.4-.8-.4s-.6.1-.8.4c-.2.3-.3.6-.3,1.2Z"/>
    <path class="cls-23" d="M221.8,682.3v2.6c.4-.5,1-.8,1.6-.8s.6,0,.9.2c.3.1.4.3.6.4.1.2.2.4.3.6,0,.2,0,.6,0,1v3h-1.4v-2.7c0-.5,0-.9,0-1s-.1-.3-.3-.3c-.1,0-.3-.1-.5-.1s-.4,0-.6.2c-.2.1-.3.3-.4.5,0,.2-.1.6-.1,1v2.6h-1.4v-7.2h1.4Z"/>
    <path class="cls-23" d="M231.7,684.2v1.1h-.9v2.1c0,.4,0,.7,0,.7,0,0,0,.1.1.2,0,0,.1,0,.2,0s.3,0,.6-.1v1.1c-.2.1-.6.2-1,.2s-.5,0-.7-.1-.3-.2-.4-.3-.2-.3-.2-.5c0-.2,0-.5,0-1v-2.3h-.6v-1.1h.6v-1l1.4-.8v1.8h.9Z"/>
    <path class="cls-23" d="M234,682.3v2.6c.4-.5,1-.8,1.6-.8s.6,0,.9.2c.3.1.4.3.6.4.1.2.2.4.3.6,0,.2,0,.6,0,1v3h-1.4v-2.7c0-.5,0-.9,0-1s-.1-.3-.3-.3c-.1,0-.3-.1-.5-.1s-.4,0-.6.2c-.2.1-.3.3-.4.5,0,.2-.1.6-.1,1v2.6h-1.4v-7.2h1.4Z"/>
    <path class="cls-23" d="M241.7,687.8l1.4.2c-.2.5-.5.9-.8,1.1-.4.3-.9.4-1.4.4-.9,0-1.6-.3-2-.9-.3-.5-.5-1.1-.5-1.8s.2-1.5.7-2c.4-.5,1-.7,1.7-.7s1.4.3,1.8.8c.4.5.7,1.3.6,2.3h-3.4c0,.4.1.7.3,1,.2.2.5.3.8.3s.4,0,.5-.2c.1-.1.3-.3.3-.6ZM241.8,686.4c0-.4-.1-.7-.3-.9-.2-.2-.4-.3-.7-.3s-.5.1-.7.3c-.2.2-.3.5-.3.9h2Z"/>
    <path class="cls-23" d="M251.6,685.8l-1.4.2c0-.3-.1-.5-.3-.6s-.4-.2-.6-.2-.6.1-.8.4c-.2.2-.3.6-.3,1.2s.1,1,.3,1.3c.2.3.5.4.8.4s.5,0,.6-.2c.2-.1.3-.4.4-.8l1.3.2c-.1.6-.4,1.1-.8,1.4-.4.3-.9.5-1.6.5s-1.4-.2-1.8-.7c-.5-.5-.7-1.1-.7-2s.2-1.5.7-2c.5-.5,1.1-.7,1.8-.7s1.1.1,1.5.4c.4.3.6.7.8,1.2Z"/>
    <path class="cls-23" d="M256,689.4v-.8c-.2.3-.4.5-.7.7-.3.2-.6.2-1,.2s-.7,0-.9-.2c-.3-.2-.5-.4-.6-.6-.1-.3-.2-.7-.2-1.1v-3.3h1.4v2.4c0,.7,0,1.2,0,1.3,0,.2.1.3.3.4.1,0,.3.1.5.1s.4,0,.6-.2c.2-.1.3-.3.4-.5s.1-.7.1-1.4v-2.2h1.4v5.2h-1.3Z"/>
    <path class="cls-23" d="M261.1,684.2v1.1h-.9v2.1c0,.4,0,.7,0,.7,0,0,0,.1.1.2,0,0,.1,0,.2,0s.3,0,.6-.1v1.1c-.2.1-.6.2-1,.2s-.5,0-.7-.1-.3-.2-.4-.3-.2-.3-.2-.5c0-.2,0-.5,0-1v-2.3h-.6v-1.1h.6v-1l1.4-.8v1.8h.9Z"/>
    <path class="cls-23" d="M261.5,687.9l1.4-.2c0,.3.2.5.4.6.2.1.4.2.8.2s.6,0,.8-.2c.1,0,.2-.2.2-.4s0-.2,0-.3c0,0-.2-.1-.5-.2-1.1-.2-1.8-.5-2.1-.7-.4-.3-.6-.7-.6-1.2s.2-.8.5-1.1c.4-.3.9-.5,1.6-.5s1.2.1,1.6.3c.3.2.6.6.7,1l-1.3.2c0-.2-.2-.4-.3-.5s-.4-.2-.7-.2-.6,0-.8.2c-.1,0-.2.2-.2.3s0,.2.1.2c.1,0,.5.2,1.3.4s1.2.4,1.5.6c.3.2.4.6.4,1s-.2.9-.6,1.2c-.4.3-1,.5-1.8.5s-1.3-.1-1.7-.4c-.4-.3-.7-.7-.8-1.2Z"/>
    <path class="cls-23" d="M270,686.8c0-.5.1-.9.3-1.3.2-.4.5-.8,1-1,.4-.2.9-.3,1.4-.3.8,0,1.4.3,1.9.8.5.5.8,1.2.8,1.9s-.3,1.4-.8,2c-.5.5-1.1.8-1.9.8s-.9-.1-1.4-.3-.8-.5-1-.9c-.2-.4-.3-.9-.3-1.5ZM271.5,686.8c0,.5.1.9.4,1.2.2.3.5.4.9.4s.7-.1.9-.4c.2-.3.4-.7.4-1.2s-.1-.9-.4-1.2c-.2-.3-.5-.4-.9-.4s-.7.1-.9.4c-.2.3-.4.7-.4,1.2Z"/>
    <path class="cls-23" d="M281.2,689.4h-1.4v-2.6c0-.6,0-.9,0-1.1,0-.2-.2-.3-.3-.4-.1,0-.3-.1-.5-.1s-.5,0-.6.2c-.2.1-.3.3-.4.5,0,.2-.1.6-.1,1.2v2.3h-1.4v-5.2h1.3v.8c.5-.6,1-.9,1.7-.9s.6,0,.8.2c.2.1.4.2.6.4.1.2.2.4.3.6,0,.2,0,.5,0,.9v3.2Z"/>
    <path class="cls-23" d="M287.7,684.2v1.1h-.9v2.1c0,.4,0,.7,0,.7,0,0,0,.1.1.2,0,0,.1,0,.2,0s.3,0,.6-.1v1.1c-.2.1-.6.2-1,.2s-.5,0-.7-.1-.3-.2-.4-.3-.2-.3-.2-.5c0-.2,0-.5,0-1v-2.3h-.6v-1.1h.6v-1l1.4-.8v1.8h.9Z"/>
    <path class="cls-23" d="M290,682.3v2.6c.4-.5,1-.8,1.6-.8s.6,0,.9.2c.3.1.4.3.6.4.1.2.2.4.3.6,0,.2,0,.6,0,1v3h-1.4v-2.7c0-.5,0-.9,0-1s-.1-.3-.3-.3c-.1,0-.3-.1-.5-.1s-.4,0-.6.2c-.2.1-.3.3-.4.5,0,.2-.1.6-.1,1v2.6h-1.4v-7.2h1.4Z"/>
    <path class="cls-23" d="M297.8,687.8l1.4.2c-.2.5-.5.9-.8,1.1-.4.3-.9.4-1.4.4-.9,0-1.6-.3-2-.9-.3-.5-.5-1.1-.5-1.8s.2-1.5.7-2c.4-.5,1-.7,1.7-.7s1.4.3,1.8.8c.4.5.7,1.3.6,2.3h-3.4c0,.4.1.7.3,1,.2.2.5.3.8.3s.4,0,.5-.2c.1-.1.3-.3.3-.6ZM297.9,686.4c0-.4-.1-.7-.3-.9-.2-.2-.4-.3-.7-.3s-.5.1-.7.3c-.2.2-.3.5-.3.9h2Z"/>
    <path class="cls-23" d="M303.1,689.4v-7.2h5.3v1.2h-3.9v1.6h3.6v1.2h-3.6v1.9h4v1.2h-5.4Z"/>
    <path class="cls-23" d="M309.1,689.4l1.9-2.7-1.8-2.5h1.7l.9,1.4,1-1.4h1.6l-1.8,2.5,1.9,2.7h-1.7l-1.1-1.6-1.1,1.6h-1.6Z"/>
    <path class="cls-23" d="M317.7,684.2v1.1h-.9v2.1c0,.4,0,.7,0,.7,0,0,0,.1.1.2,0,0,.1,0,.2,0s.3,0,.6-.1v1.1c-.2.1-.6.2-1,.2s-.5,0-.7-.1-.3-.2-.4-.3-.2-.3-.2-.5c0-.2,0-.5,0-1v-2.3h-.6v-1.1h.6v-1l1.4-.8v1.8h.9Z"/>
    <path class="cls-23" d="M321.7,687.8l1.4.2c-.2.5-.5.9-.8,1.1-.4.3-.9.4-1.4.4-.9,0-1.6-.3-2-.9-.3-.5-.5-1.1-.5-1.8s.2-1.5.7-2c.4-.5,1-.7,1.7-.7s1.4.3,1.8.8c.4.5.7,1.3.6,2.3h-3.4c0,.4.1.7.3,1,.2.2.5.3.8.3s.4,0,.5-.2c.1-.1.3-.3.3-.6ZM321.7,686.4c0-.4-.1-.7-.3-.9-.2-.2-.4-.3-.7-.3s-.5.1-.7.3c-.2.2-.3.5-.3.9h2Z"/>
    <path class="cls-23" d="M325.5,689.4h-1.4v-5.2h1.3v.7c.2-.3.4-.6.6-.7.2-.1.4-.2.6-.2s.6,0,.9.3l-.4,1.2c-.2-.1-.4-.2-.6-.2s-.4,0-.5.2c-.1.1-.2.3-.3.6,0,.3-.1.9-.1,1.7v1.6Z"/>
    <path class="cls-23" d="M328.1,683.5v-1.3h1.4v1.3h-1.4ZM328.1,689.4v-5.2h1.4v5.2h-1.4Z"/>
    <path class="cls-23" d="M330.6,686.8c0-.5.1-.9.3-1.3.2-.4.5-.8,1-1,.4-.2.9-.3,1.4-.3.8,0,1.4.3,1.9.8.5.5.8,1.2.8,1.9s-.3,1.4-.8,2c-.5.5-1.1.8-1.9.8s-.9-.1-1.4-.3-.8-.5-1-.9c-.2-.4-.3-.9-.3-1.5ZM332,686.8c0,.5.1.9.4,1.2.2.3.5.4.9.4s.7-.1.9-.4c.2-.3.4-.7.4-1.2s-.1-.9-.4-1.2c-.2-.3-.5-.4-.9-.4s-.7.1-.9.4c-.2.3-.4.7-.4,1.2Z"/>
    <path class="cls-23" d="M338.3,689.4h-1.4v-5.2h1.3v.7c.2-.3.4-.6.6-.7.2-.1.4-.2.6-.2s.6,0,.9.3l-.4,1.2c-.2-.1-.4-.2-.6-.2s-.4,0-.5.2c-.1.1-.2.3-.3.6,0,.3-.1.9-.1,1.7v1.6Z"/>
    <path class="cls-23" d="M343.7,689.4v-7.2h4.9v1.2h-3.5v1.7h3v1.2h-3v3h-1.4Z"/>
    <path class="cls-23" d="M350.8,685.8l-1.2-.2c.1-.5.4-.9.7-1.1.3-.2.8-.4,1.5-.4s1.1,0,1.4.2c.3.1.5.3.6.6.1.2.2.6.2,1.2v1.6c0,.5,0,.8,0,1,0,.2.1.4.2.7h-1.4c0,0,0-.2-.1-.4,0,0,0-.1,0-.2-.2.2-.5.4-.8.5-.3.1-.6.2-.9.2-.5,0-1-.1-1.3-.4-.3-.3-.5-.7-.5-1.1s0-.6.2-.8c.1-.2.3-.4.6-.5.3-.1.6-.2,1.1-.3.6-.1,1.1-.2,1.3-.3h0c0-.4,0-.6-.2-.7-.1-.1-.4-.2-.7-.2s-.4,0-.6.1c-.1,0-.2.3-.3.5ZM352.6,686.9c-.2,0-.5.1-.8.2-.4,0-.6.2-.7.2-.2.1-.3.3-.3.5s0,.4.2.5c.1.1.3.2.5.2s.5,0,.7-.2c.2-.1.3-.3.3-.5,0-.1,0-.3,0-.7v-.3Z"/>
    <path class="cls-23" d="M359.8,685.8l-1.4.2c0-.3-.1-.5-.3-.6s-.4-.2-.6-.2-.6.1-.8.4c-.2.2-.3.6-.3,1.2s.1,1,.3,1.3c.2.3.5.4.8.4s.5,0,.6-.2c.2-.1.3-.4.4-.8l1.3.2c-.1.6-.4,1.1-.8,1.4-.4.3-.9.5-1.6.5s-1.4-.2-1.8-.7c-.5-.5-.7-1.1-.7-2s.2-1.5.7-2c.5-.5,1.1-.7,1.8-.7s1.1.1,1.5.4c.4.3.6.7.8,1.2Z"/>
    <path class="cls-23" d="M363.9,687.8l1.4.2c-.2.5-.5.9-.8,1.1-.4.3-.9.4-1.4.4-.9,0-1.6-.3-2-.9-.3-.5-.5-1.1-.5-1.8s.2-1.5.7-2c.4-.5,1-.7,1.7-.7s1.4.3,1.8.8c.4.5.7,1.3.6,2.3h-3.4c0,.4.1.7.3,1,.2.2.5.3.8.3s.4,0,.5-.2c.1-.1.3-.3.3-.6ZM363.9,686.4c0-.4-.1-.7-.3-.9-.2-.2-.4-.3-.7-.3s-.5.1-.7.3c-.2.2-.3.5-.3.9h2Z"/>
    <path class="cls-23" d="M369.2,684.2h1.3v.8c.2-.3.4-.5.7-.6.3-.2.6-.2.9-.2.6,0,1.1.2,1.5.7.4.5.6,1.1.6,2s-.2,1.5-.6,2c-.4.5-.9.7-1.5.7s-.5,0-.8-.2c-.2-.1-.5-.3-.7-.6v2.6h-1.4v-7.2ZM370.5,686.7c0,.6.1,1,.3,1.3.2.3.5.4.8.4s.6-.1.8-.4c.2-.3.3-.7.3-1.3s-.1-.9-.3-1.2-.5-.4-.8-.4-.6.1-.8.4c-.2.3-.3.6-.3,1.1Z"/>
    <path class="cls-23" d="M376.3,685.8l-1.2-.2c.1-.5.4-.9.7-1.1.3-.2.8-.4,1.5-.4s1.1,0,1.4.2c.3.1.5.3.6.6.1.2.2.6.2,1.2v1.6c0,.5,0,.8,0,1,0,.2.1.4.2.7h-1.4c0,0,0-.2-.1-.4,0,0,0-.1,0-.2-.2.2-.5.4-.8.5-.3.1-.6.2-.9.2-.5,0-1-.1-1.3-.4-.3-.3-.5-.7-.5-1.1s0-.6.2-.8c.1-.2.3-.4.6-.5.3-.1.6-.2,1.1-.3.6-.1,1.1-.2,1.3-.3h0c0-.4,0-.6-.2-.7-.1-.1-.4-.2-.7-.2s-.4,0-.6.1c-.1,0-.2.3-.3.5ZM378.2,686.9c-.2,0-.5.1-.8.2-.4,0-.6.2-.7.2-.2.1-.3.3-.3.5s0,.4.2.5c.1.1.3.2.5.2s.5,0,.7-.2c.2-.1.3-.3.3-.5,0-.1,0-.3,0-.7v-.3Z"/>
    <path class="cls-23" d="M385.6,689.4h-1.4v-2.6c0-.6,0-.9,0-1.1,0-.2-.2-.3-.3-.4-.1,0-.3-.1-.5-.1s-.5,0-.6.2c-.2.1-.3.3-.4.5,0,.2-.1.6-.1,1.2v2.3h-1.4v-5.2h1.3v.8c.5-.6,1-.9,1.7-.9s.6,0,.8.2c.2.1.4.2.6.4.1.2.2.4.3.6,0,.2,0,.5,0,.9v3.2Z"/>
    <path class="cls-23" d="M390,687.8l1.4.2c-.2.5-.5.9-.8,1.1-.4.3-.9.4-1.4.4-.9,0-1.6-.3-2-.9-.3-.5-.5-1.1-.5-1.8s.2-1.5.7-2c.4-.5,1-.7,1.7-.7s1.4.3,1.8.8c.4.5.7,1.3.6,2.3h-3.4c0,.4.1.7.3,1,.2.2.5.3.8.3s.4,0,.5-.2c.1-.1.3-.3.3-.6ZM390,686.4c0-.4-.1-.7-.3-.9-.2-.2-.4-.3-.7-.3s-.5.1-.7.3c-.2.2-.3.5-.3.9h2Z"/>
    <path class="cls-23" d="M392.5,689.4v-7.2h1.4v7.2h-1.4Z"/>
    <path class="cls-23" d="M395.3,689.4v-1.4h1.4v1.4h-1.4Z"/>
  </g>
  <g>
    
    <line class="cls-11" x1="340.5" y1="290.5" x2="521.3" y2="290.5"/>
    
  </g>
  <g>
    <g>
      
      
    </g>
    <path class="cls-22" d="M342.7,251.6c0,.5-.2.9-.6,1.3h0c0,0-3.6,3.9-3.6,3.9-.8.8-1.4,1.4-1.9,1.9-.5.4-.9.6-1.1.6s-.5-.1-.9-.3c-.3-.2-.6-.4-.7-.7,0-.2-.2-.6-.2-1.2,0-.6-.1-1.3-.1-2s.2-.8.5-1.1c.3-.3.7-.5,1.1-.5s.6.4.7,1.1c0,0,0,.1,0,.2,0,.5.1.9.2,1.1,0,.2.2.3.3.3s.2,0,.3-.2c.2-.1.4-.3.6-.5l3.7-3.7c.3-.3.6-.5.8-.7.2-.2.4-.2.6-.2s.2,0,.3.1c0,0,0,.3,0,.5v.2Z"/>
    <line class="cls-9" x1="336.8" y1="261.7" x2="552" y2="261.7"/>
  </g>
</g></svg>