<svg version="1.1" xmlns="http://www.w3.org/2000/svg" xmlns:xlink="http://www.w3.org/1999/xlink" x="0px" y="0px" width="3075" height="3075" viewBox="0 0 3075 3075" enable-background="new 0 0 738 738" xml:space="preserve"><g transform="translate(0, 0) scale(4.166666666666667)">
<g id="Layer_1">
	<rect fill="#929497" width="738" height="738"/>
	<rect x="9" y="9" fill="#FFFFFF" width="720" height="720"/>
	<rect x="9" y="9" fill="none" stroke="#EC1E28" width="720" height="720"/>
	
	
	
	
	
	
	
	
	
	
	
	
	
	
	
	
	
	
	
	
	
	
	
	
	<rect x="497.749" y="40.858" fill="#D0D2D3" width="196.92" height="200.729"/>
	
	
	
	<g>
		<defs>
			<rect id="SVGID_1_" width="738" height="738"/>
		</defs>
		<clipPath id="SVGID_2_">
			<use xlink:href="#SVGID_1_" overflow="visible"/>
		</clipPath>
		<g clip-path="url(#SVGID_2_)">
			
		</g>
		<g clip-path="url(#SVGID_2_)">
			
		</g>
	</g>
	<rect x="18" y="18" fill="none" stroke="#2BA6DE" stroke-dasharray="1.443,1.443" width="702" height="702"/>
	<rect x="711.011" y="535.894" fill="#F9A51A" width="26.989" height="54.685"/>
	<g>
		<defs>
			<rect id="SVGID_3_" width="738" height="738"/>
		</defs>
		<clipPath id="SVGID_4_">
			<use xlink:href="#SVGID_3_" overflow="visible"/>
		</clipPath>
		<g clip-path="url(#SVGID_4_)">
			
		</g>
		<g clip-path="url(#SVGID_4_)">
			
		</g>
		<line clip-path="url(#SVGID_4_)" fill="none" stroke="#F9A51A" x1="617.016" y1="535.726" x2="737.966" y2="535.726"/>
	</g>
	<line fill="none" stroke="#EC1E28" x1="634.673" y1="361.588" x2="728.969" y2="361.588"/>
	<line fill="none" stroke="#929497" x1="622.763" y1="411.187" x2="735.716" y2="411.187"/>
	<line fill="none" stroke="#2BA6DE" stroke-dasharray="1.442,1.442" x1="631.01" y1="263.057" x2="718.973" y2="263.057"/>
	<g>
		<defs>
			<rect id="SVGID_5_" width="738" height="738"/>
		</defs>
		<clipPath id="SVGID_6_">
			<use xlink:href="#SVGID_5_" overflow="visible"/>
		</clipPath>
		<path clip-path="url(#SVGID_6_)" fill="#EC1E28" d="M629.627,250.044c0,0.686-0.312,1.354-0.932,2.004l-0.097,0.097l-5.431,5.723    c-1.153,1.214-2.135,2.152-2.946,2.814c-0.812,0.662-1.384,0.993-1.719,0.993c-0.351,0-0.786-0.165-1.309-0.496    c-0.521-0.332-0.857-0.673-1.01-1.025c-0.129-0.293-0.251-0.914-0.363-1.863c-0.116-0.95-0.172-1.978-0.172-3.086    c0-0.604,0.251-1.162,0.755-1.676c0.504-0.512,1.06-0.768,1.669-0.768c0.58,0,0.926,0.53,1.036,1.591    c0.013,0.123,0.021,0.213,0.027,0.272c0.095,0.815,0.201,1.384,0.324,1.706c0.123,0.322,0.29,0.483,0.501,0.483    c0.088,0,0.252-0.095,0.491-0.286c0.24-0.19,0.528-0.449,0.862-0.777l5.579-5.53c0.468-0.469,0.887-0.824,1.256-1.064    c0.369-0.24,0.682-0.361,0.938-0.361c0.194,0,0.332,0.074,0.414,0.22c0.082,0.147,0.124,0.393,0.124,0.738V250.044z"/>
		<path clip-path="url(#SVGID_6_)" fill="#EC1E28" d="M730.039,366.271l0.265-5.057l-1.558,0.956l0.074-1.142l1.595-0.949    c0.03-0.413,0.063-0.797,0.103-1.149c0.044-0.352,0.091-0.686,0.144-1l0.043-0.235c-0.122,0.042-0.24,0.07-0.353,0.083    c-0.113,0.014-0.217,0.014-0.313-0.003c-0.312-0.053-0.551-0.208-0.718-0.461c-0.171-0.255-0.227-0.544-0.17-0.871    c0.063-0.367,0.242-0.661,0.54-0.883c0.296-0.221,0.616-0.302,0.962-0.243c0.298,0.053,0.522,0.196,0.674,0.434    c0.15,0.237,0.196,0.519,0.14,0.85c-0.028,0.158-0.104,0.386-0.235,0.688c-0.129,0.302-0.205,0.53-0.233,0.687    c-0.043,0.254-0.028,0.514,0.047,0.782c0.074,0.266,0.21,0.551,0.411,0.849c0.391-0.154,0.729-0.368,1.017-0.645    c0.288-0.274,0.519-0.607,0.691-0.996c0.06-0.127,0.136-0.306,0.229-0.535c0.095-0.228,0.164-0.374,0.206-0.438    c0.146-0.211,0.323-0.365,0.527-0.462c0.203-0.097,0.421-0.126,0.65-0.087c0.298,0.053,0.525,0.203,0.685,0.453    c0.158,0.251,0.209,0.545,0.149,0.882c-0.06,0.348-0.231,0.623-0.515,0.823c-0.284,0.199-0.598,0.27-0.945,0.209    c-0.151-0.025-0.286-0.081-0.408-0.165c-0.121-0.084-0.233-0.201-0.333-0.353c-0.222,0.466-0.479,0.868-0.771,1.202    c-0.293,0.333-0.618,0.6-0.974,0.799c-0.13,1.269-0.22,2.137-0.274,2.605c-0.054,0.467-0.098,0.81-0.135,1.025    c-0.095,0.54-0.237,0.995-0.431,1.367C730.629,365.662,730.369,365.987,730.039,366.271 M730.095,357.381    c0.237,0.042,0.456-0.015,0.65-0.168c0.2-0.154,0.322-0.362,0.368-0.627c0.04-0.23,0.008-0.429-0.096-0.6    c-0.103-0.169-0.254-0.271-0.451-0.305c-0.245-0.042-0.473,0.016-0.686,0.175c-0.211,0.158-0.338,0.37-0.384,0.635    c-0.039,0.222-0.002,0.417,0.109,0.584C729.717,357.243,729.879,357.345,730.095,357.381 M734.247,358.438    c0.251,0.043,0.472-0.006,0.666-0.146s0.313-0.339,0.354-0.595c0.04-0.222,0.009-0.414-0.094-0.577    c-0.102-0.161-0.254-0.26-0.452-0.293c-0.229-0.04-0.447,0.024-0.654,0.192c-0.207,0.167-0.333,0.383-0.377,0.647    c-0.035,0.203-0.003,0.373,0.097,0.512C733.889,358.314,734.042,358.401,734.247,358.438"/>
		<path clip-path="url(#SVGID_6_)" fill="#EC1E28" d="M633.957,347.742c0,0.686-0.311,1.354-0.931,2.005l-0.097,0.097l-5.43,5.723    c-1.154,1.213-2.137,2.151-2.947,2.813c-0.812,0.663-1.385,0.993-1.718,0.993c-0.352,0-0.788-0.165-1.309-0.496    c-0.521-0.331-0.857-0.673-1.01-1.024c-0.13-0.294-0.251-0.914-0.365-1.864c-0.114-0.949-0.173-1.978-0.173-3.086    c0-0.604,0.252-1.162,0.756-1.675c0.505-0.512,1.061-0.769,1.67-0.769c0.581,0,0.926,0.531,1.035,1.591    c0.014,0.123,0.021,0.214,0.028,0.273c0.093,0.815,0.201,1.383,0.325,1.706c0.123,0.321,0.288,0.483,0.5,0.483    c0.088,0,0.252-0.095,0.492-0.286s0.526-0.45,0.861-0.778l5.579-5.53c0.468-0.468,0.888-0.824,1.255-1.064    c0.37-0.24,0.684-0.36,0.94-0.36c0.194,0,0.331,0.073,0.413,0.22c0.082,0.146,0.123,0.392,0.123,0.738V347.742z"/>
		<path clip-path="url(#SVGID_6_)" fill="#EC1E28" d="M620.629,398.423c0,0.688-0.31,1.354-0.931,2.005l-0.097,0.1l-5.43,5.721    c-1.153,1.213-2.137,2.15-2.948,2.814c-0.81,0.662-1.382,0.994-1.716,0.994c-0.352,0-0.788-0.166-1.31-0.497    s-0.858-0.674-1.011-1.025c-0.128-0.293-0.25-0.914-0.364-1.864c-0.114-0.949-0.173-1.977-0.173-3.085    c0-0.604,0.253-1.162,0.757-1.674c0.503-0.514,1.061-0.771,1.669-0.771c0.58,0,0.926,0.53,1.037,1.591    c0.012,0.123,0.021,0.215,0.027,0.273c0.094,0.814,0.201,1.384,0.324,1.706c0.124,0.323,0.29,0.483,0.501,0.483    c0.087,0,0.251-0.096,0.492-0.286c0.24-0.189,0.526-0.449,0.861-0.777l5.578-5.531c0.469-0.469,0.887-0.822,1.257-1.062    c0.368-0.24,0.682-0.361,0.939-0.361c0.193,0,0.332,0.074,0.413,0.22c0.081,0.147,0.122,0.394,0.122,0.739V398.423z"/>
		<path clip-path="url(#SVGID_6_)" fill="#EC1E28" d="M598.639,609.823c0,0.688-0.311,1.354-0.932,2.006l-0.096,0.098l-5.431,5.722    c-1.153,1.214-2.136,2.151-2.947,2.814c-0.812,0.661-1.384,0.994-1.717,0.994c-0.352,0-0.788-0.166-1.31-0.497    c-0.521-0.331-0.858-0.674-1.011-1.025c-0.129-0.293-0.251-0.914-0.363-1.864c-0.115-0.949-0.173-1.978-0.173-3.085    c0-0.604,0.253-1.162,0.756-1.675c0.504-0.513,1.061-0.769,1.67-0.769c0.579,0,0.925,0.529,1.037,1.591    c0.012,0.122,0.02,0.215,0.025,0.272c0.094,0.814,0.202,1.384,0.325,1.707c0.123,0.322,0.291,0.481,0.502,0.481    c0.087,0,0.251-0.095,0.491-0.285s0.525-0.449,0.861-0.777l5.578-5.531c0.469-0.469,0.887-0.823,1.257-1.062    c0.368-0.241,0.682-0.362,0.939-0.362c0.193,0,0.331,0.074,0.413,0.221s0.123,0.393,0.123,0.738V609.823z"/>
		<path clip-path="url(#SVGID_6_)" fill-rule="evenodd" clip-rule="evenodd" d="M661.39,116.015    c0,34.333-27.814,62.166-62.12,62.166c-34.31,0-62.124-27.833-62.124-62.166s27.814-62.166,62.124-62.166    C633.575,53.849,661.39,81.682,661.39,116.015"/>
		<path clip-path="url(#SVGID_6_)" fill-rule="evenodd" clip-rule="evenodd" fill="#B7D333" d="M655.785,116.358    c0,31.212-25.284,56.515-56.474,56.515s-56.475-25.303-56.475-56.515s25.285-56.514,56.475-56.514S655.785,85.146,655.785,116.358    "/>
		<path clip-path="url(#SVGID_6_)" d="M587.22,104.035c-0.784,6.927-1.367,12.49-1.755,16.691l-2.575,0.113    c0.036-0.14,0.056-0.297,0.062-0.472c0.004-0.314-0.112-0.728-0.348-1.242c-0.236-0.512-0.371-0.839-0.404-0.979    c-0.666,0.094-1.306,0.557-1.914,1.386c-0.61,0.832-1.16,1.244-1.649,1.236c-0.282-0.005-0.596-0.083-0.942-0.227    c-0.46,0.307-1.057,0.436-1.793,0.39c-0.663-0.117-1.31-0.215-1.939-0.297c-0.02-0.874-0.882-1.643-2.586-2.305    c0.005-0.349-0.17-0.87-0.526-1.558c-0.356-0.691-0.532-1.173-0.526-1.455c0.004-0.317,0.132-0.576,0.382-0.782    c-0.035-0.106-0.322-0.759-0.861-1.961c-0.37-0.881-0.55-1.64-0.538-2.268c0.006-0.491,0.121-0.946,0.338-1.362    c-0.299-2.986-0.432-5.544-0.395-7.682c0.055-3.295,0.526-6.318,1.415-9.074c-0.063-0.42-0.092-0.84-0.085-1.262    c0.037-2.207,0.801-3.735,2.283-4.587l0.012-0.683c1.469-1.869,3.399-3.22,5.796-4.056c1.43,0.34,2.86,0.663,4.291,0.968    c1.603,0.552,2.708,1.5,3.315,2.843c0.484,0.289,0.721,0.872,0.705,1.746c-0.016,0.981,0.096,1.615,0.336,1.899l-0.268,0.311    c0.279,2.072,0.416,3.337,0.408,3.791c-0.022,1.333-0.373,2.274-1.047,2.822c-0.244-0.005-0.89-0.225-1.932-0.662    c-0.25,0.239-0.515,0.358-0.794,0.353c-0.141-0.002-0.395-0.077-0.76-0.224c-0.364-0.146-0.671-0.222-0.915-0.226    c-0.176-0.002-0.354,0.03-0.528,0.097c-0.021-2.769,0.066-4.836,0.263-6.201c-0.276-0.179-0.558-0.588-0.844-1.222    c-0.288-0.636-0.66-0.993-1.111-1.07c-0.285,0.346-0.413,0.571-0.38,0.677l-0.939-0.331c-0.856,0.932-1.427,2.552-1.71,4.859    c-0.291,2.658-0.653,4.423-1.088,5.291c0.376,0.393,0.562,0.94,0.549,1.639c-0.004,0.247-0.045,0.65-0.127,1.208    c-0.08,0.56-0.12,0.979-0.124,1.261c-0.007,0.315,0.021,0.597,0.089,0.842l-0.64,0.619c0.26,1.196,0.41,2.708,0.449,4.53    c-0.025,1.542-0.037,3.084-0.025,4.625c-0.038,0-0.335,0.013-0.896,0.037c-0.35-0.005-0.598,0.113-0.741,0.357    c0.212-0.031,0.404-0.047,0.577-0.043c0.771,0.012,1.376,0.557,1.812,1.633c0.436,1.079,0.812,1.619,1.128,1.625    c0.349,0.004,0.828-0.319,1.438-0.976c1.031-1.104,1.565-2.62,1.599-4.545c0.017-0.948-0.09-1.965-0.316-3.055    c-0.25,0.137-0.375,0.484-0.385,1.043c-0.561-0.009-0.912,0.108-1.058,0.35c-0.243-0.074-0.347-0.268-0.305-0.583    c0.041-0.454,0.063-0.699,0.065-0.735c0.423-0.133,0.633-0.323,0.639-0.567c0.002-0.105-0.074-0.3-0.227-0.583    c-0.151-0.282-0.227-0.51-0.225-0.686c0.004-0.141,0.041-0.28,0.113-0.42l0.244-2.046c0.768,0.224,2.428,0.321,4.986,0.296    c-0.074,0.174,0.028,0.405,0.305,0.687c0.248-0.241,0.511-0.359,0.793-0.354c0.211,0.005,0.523,0.098,0.941,0.28    C586.748,103.942,587.044,104.033,587.22,104.035"/>
		<path clip-path="url(#SVGID_6_)" d="M606.823,122.139c-0.487-0.219-1.01-0.333-1.571-0.343c-0.488-0.007-1.158,0.086-2.001,0.283    c-0.949,0.193-1.598,0.304-1.948,0.335c-0.375-0.742-0.636-1.765-0.789-3.065c-0.284-1.896-0.461-2.967-0.521-3.214    c0.107-0.209,0.163-0.383,0.164-0.522c0.009-0.388-0.294-0.732-0.901-1.041c-0.609-0.308-0.911-0.55-0.907-0.727    c0.002-0.208,0.359-0.519,1.066-0.929c-0.171-0.212-0.298-0.643-0.371-1.291c-0.077-0.65-0.238-1.084-0.478-1.299    c-0.427,0.38-1.122,0.623-2.087,0.729c-0.967,0.106-1.607,0.262-1.924,0.465c0.021,2.735-0.43,4.568-1.355,5.498    c-0.489-0.114-0.862,0.072-1.113,0.56c-0.361,0.589-0.665,0.936-0.912,1.035l0.309,0.374c-0.283,0.239-0.74,0.339-1.368,0.292    c-0.983-0.053-1.505-0.078-1.575-0.078l-0.299-0.952l3.422-28.385c0.03-1.787,0.121-2.995,0.271-3.623    c-0.045-1.579,0.324-2.554,1.099-2.925c0.485,0.322,1.098,0.491,1.833,0.504c0.594,0.009,1.525-0.114,2.789-0.374    c1.268-0.258,2.144-0.384,2.635-0.376c1.714,0.029,2.463,1.269,2.249,3.718c-0.174,1.96,0.132,4.542,0.918,7.746    c0.817,3.447,1.213,6.03,1.183,7.748c-0.01,0.525,0.163,1.614,0.12,2.14c-0.742,0.406-1.691,0.653-2.85,0.738    c-1.017,0.053-2.05,0.106-3.103,0.158c-0.271-2.667-0.739-5.883-1.011-8.517c-0.332-3.159-0.744-5.759-1.232-7.799l-1.622,15.007    c-0.125,1.294,0.459,1.954,1.755,1.976c0.419,0.006,0.821-0.093,1.211-0.295c0.318-0.1,0.753,0.136,1.303,0.704    c-0.02,1.088,0.197,1.739,0.649,1.958c0.567-0.378,1.309-0.732,2.226-1.067c0.81-0.301,1.603-0.585,2.379-0.854    c0.442,0.604,0.728,1.502,0.848,2.696c0.146,1.685,0.25,2.668,0.316,2.949c0.058,0.668,0.332,2.11,0.82,4.327    c0.354,1.757,0.524,3.18,0.506,4.267C606.944,121.195,606.901,121.684,606.823,122.139"/>
		<path clip-path="url(#SVGID_6_)" d="M631.014,97.104c-0.039,0.104-0.047,0.717-0.032,1.839c-0.015,0.911-0.133,1.594-0.349,2.046    c-0.259,0.696-0.397,1.692-0.419,2.987c-0.007,0.282,0.004,0.72,0.028,1.317c-0.01,0.595-0.017,1.032-0.021,1.312    c-0.036,2.209-0.414,3.812-1.134,4.818c0.062,0.564,0.087,1.124,0.078,1.683c-0.029,1.753-0.63,4.109-1.8,7.067    c-0.318,0.101-0.583,0.148-0.792,0.145c-0.421-0.007-0.722-0.249-0.908-0.724c-0.186-0.477-0.359-0.927-0.525-1.352    c0.112-2.695,0.058-6.622-0.17-11.779l0.319-0.309c-0.229-0.915-0.334-1.933-0.315-3.054c0.014-0.806,0.113-1.978,0.296-3.517    c0.185-1.538,0.283-2.695,0.295-3.466c0.012-0.49-0.002-0.964-0.026-1.419c-1.206,2.889-2.061,7.781-2.562,14.677l-0.438,1.042    c-0.146,0.35-0.446,0.537-0.9,0.564c-0.139-0.245-0.275-0.372-0.415-0.375c-0.105-0.001-0.292,0.127-0.557,0.385    c-0.27,0.258-0.49,0.367-0.664,0.33l-0.695,0.619c0.311,0.393,0.974,0.437,1.995,0.141c0.809-0.232,1.224,0.072,1.247,0.914    c0.021,0.701-0.171,1.645-0.575,2.83c-0.406,1.183-0.612,2.075-0.622,2.67c-0.007,0.42,0.037,0.842,0.136,1.264l-3.636,0.57    c-0.337-0.709-0.588-1.894-0.753-3.563c-0.164-1.668-0.416-2.855-0.754-3.561c0.214-0.241,0.323-0.501,0.328-0.783    c0.003-0.245-0.094-0.614-0.295-1.108c-0.204-0.494-0.321-0.865-0.351-1.111c-0.029-0.385-0.152-1.317-0.374-2.792    c-0.155-1.195-0.228-2.127-0.216-2.791c0.007-0.35,0.031-0.665,0.071-0.944c0.003-0.246-0.133-0.606-0.403-1.087    c-0.273-0.478-0.406-0.821-0.401-1.033c0.003-0.173,0.074-0.329,0.218-0.465c-0.242-0.288-0.337-0.779-0.29-1.48    c0.045-0.7-0.052-1.192-0.29-1.476c-0.516,1.357-0.79,3.192-0.831,5.507c-0.019,3.223-0.052,5.082-0.094,5.569l0.362,0.323    l-0.372,0.308c0.259,1.267,0.371,2.881,0.337,4.843c-0.095,3.538-0.141,5.185-0.135,4.941c-0.498,0.446-1.187,0.662-2.061,0.647    c-1.085-0.018-1.822,0.077-2.211,0.278c-0.444-0.778-0.655-1.78-0.631-3.007c0.013-0.945,0.176-2.098,0.478-3.462    c-0.476-0.884-0.699-2.115-0.673-3.691c0.008-0.387,0.053-1.121,0.142-2.206c0.05-0.874,0.062-1.523,0.036-1.945    c0.352-0.168,0.528-0.358,0.532-0.568c0.004-0.141-0.106-0.379-0.329-0.717c-0.223-0.335-0.332-0.592-0.329-0.767    c0.004-0.21,0.148-0.417,0.431-0.625l-1.131-17c0.675-0.443,1.765-0.654,3.27-0.627c1.645,0.064,2.767-0.023,3.367-0.257    c0.106-0.07,0.228-0.103,0.369-0.101c0.14,0.002,0.305,0.086,0.495,0.245c0.19,0.162,0.32,0.241,0.389,0.243    c0.14,0.003,0.266-0.1,0.374-0.308l0.981,0.963c0.329,1.233,0.639,3.621,0.93,7.164c0.297,3.055,0.767,5.361,1.407,6.913    c0.858-3.104,1.565-5.704,2.129-7.798l1.139-8.319l8.144-0.177c0.028,0.455,0.129,2.891,0.35,4.298    c0.188,1.228,0.278,2.229,0.264,3c-0.014,0.877-0.15,1.662-0.407,2.358c0.274,0.392,0.405,0.882,0.395,1.478    C631.449,96.236,631.299,96.723,631.014,97.104"/>
		<path clip-path="url(#SVGID_6_)" d="M647.722,115.526l0.002-0.053c-0.219,0.453-0.351,0.976-0.396,1.57    c-0.041,0.385-0.051,0.928-0.027,1.629c0.021,0.807,0.029,1.369,0.024,1.682c-0.281-0.003-1.401-0.022-3.362-0.055    c-1.189-0.021-2.261,0.083-3.21,0.313l-0.98-1.068c-0.285,0.274-0.393,0.501-0.325,0.679c-0.175-0.042-0.982-0.052-2.415-0.043    c-1.123-0.019-1.962-0.139-2.517-0.359c-0.571,0.588-1.237,0.577-1.998-0.032c-0.276-0.214-0.303-0.576-0.086-1.08    c0.219-0.505,0.155-0.882-0.19-1.134c0.053-1.119,0.206-2.852,0.456-5.197c0.246-2.097,0.377-3.744,0.398-4.935    c0.027-1.611-0.085-3.155-0.34-4.631c0.392-0.38,0.83-0.566,1.32-0.557c0.562,0.009,1.222,0.284,1.983,0.821    c1.07,0.755,1.629,1.132,1.663,1.133l0.306,0.373c0.038-0.103,0.224-0.661,0.556-1.673c0.186-0.662,0.456-1.095,0.812-1.3    l0.31,0.322c0.14-0.068,0.6-0.394,1.382-0.976c0.6-0.41,1.092-1.383,1.44-1.377c0.386,0.007,0.749,0.224,1.093,0.65    c0.591,0.326,0.961,1.585,1.145,2.236c0.18,0.65,0.354,1.292,0.519,1.928c-1.577,0.043-2.873,0.002-3.885-0.119    c-0.253,0.381-0.604,0.435-1.055,0.165c-0.45-0.271-0.782-0.231-1,0.115c-0.011,0.632-0.03,1.77-0.059,3.415    c-0.061,1.473-0.079,2.628-0.058,3.471c0.012,1.296,0.099,2.49,0.255,3.579c0.278,0.005,1.608,0.027,3.988,0.067    C645.119,115.115,646.535,115.26,647.722,115.526 M647.835,90.345c-0.315,0.028-0.666,0.04-1.053,0.035    c-0.804-0.014-1.871-0.138-3.197-0.37c-1.645-0.239-2.641-0.377-2.989-0.418c-0.502,0.724-0.764,1.757-0.787,3.088    c-0.049,2.873-0.053,4.117-0.011,3.732c0.484,0.288,0.722,0.818,0.707,1.589c-0.052,1.05-0.061,1.594-0.026,1.629    c-0.247,0.102-0.375,0.449-0.385,1.046c-0.384-0.148-0.779-0.435-1.193-0.862c-0.553-0.536-0.846,1.281-0.804,0.826l-0.332,1.08    l-0.312-0.322c-0.281,0.029-0.76-0.118-1.437-0.445c-0.679-0.326-1.153-0.63-1.429-0.919c0.01-0.56,0.104-0.874,0.277-0.942    l-0.669-0.745l-0.323,0.467c-0.392-3.652-0.295-10.481,0.19-14.328c1.327,0.233,2.796,0.381,4.405,0.443    c1.085,0.052,2.606,0.078,4.568,0.077c2.241,0.003,3.855,0.012,4.834,0.028c0.413,0.395,0.615,0.906,0.605,1.535    c-0.008,0.389-0.115,1.006-0.322,1.863C647.947,89.288,647.841,89.923,647.835,90.345"/>
		<path clip-path="url(#SVGID_6_)" d="M588.8,147.31l-0.002-0.024c0.002,0.016-0.09,0.788-0.271,2.316    c-0.09,0.94-0.316,1.677-0.679,2.216l-0.228-0.187c-0.425,0.892-1.003,1.434-1.738,1.628c-0.35,0.37-0.857,0.574-1.518,0.612    c-0.394,0.024-1.3-0.091-2.724-0.342c-0.686-0.427-1.062-0.662-1.128-0.709c-0.432-0.326-0.638-0.656-0.615-0.99    c-0.418-0.426-1.007-1.188-1.227-2.141c-0.267-1.052-0.431-1.112-0.68-1.481c-0.396,0.291-0.539-0.329-0.769-0.701l0.208-0.162    c-0.129-0.093-0.196-0.196-0.204-0.313c-0.005-0.083,0.029-0.205,0.104-0.368s0.108-0.287,0.102-0.369    c-0.006-0.131-0.086-0.245-0.236-0.337c0.16-0.826,0.305-2.068,0.437-3.727c0.282-0.149,0.415-0.441,0.401-0.874    c-0.017-0.431,0.043-0.718,0.181-0.86c0.669-1.34,1.755-2.244,3.261-2.716c0.082,0.012,0.486,0.005,1.209-0.02    c0.498-0.012,0.872,0.032,1.126,0.134c0.451-0.076,0.904,0.032,1.354,0.323c0.392,0.294,0.782,0.588,1.171,0.882    c0.729,0.792,1.123,1.686,1.182,2.683c0.02,0.332-0.004,0.683-0.064,1.053c-0.539-0.018-0.922,0.338-1.149,1.069l-2.1,0.196    c-0.226-0.319-0.356-0.747-0.386-1.278c-0.011-0.183-0.009-0.45,0-0.801c0.011-0.35,0.012-0.617,0-0.799    c-0.031-0.549-0.16-0.984-0.386-1.304l-0.632,0.361c-0.254-0.102-0.386-0.252-0.397-0.452c-0.005-0.066,0.006-0.163,0.03-0.289    c0.023-0.127,0.034-0.215,0.03-0.264c-0.013-0.215-0.206-0.346-0.582-0.393c-0.256,2.367-0.333,4.798-0.229,7.292    c0.065,0.08,0.266,0.136,0.6,0.166c0.271,0.034,0.409,0.118,0.417,0.251c0.003,0.051-0.012,0.118-0.05,0.202l-0.208,0.163    c0.112,0.177,0.181,0.424,0.199,0.739c0.009,0.166,0.002,0.422-0.019,0.763c-0.021,0.344-0.028,0.599-0.019,0.764    c0.031,0.499,0.154,0.877,0.379,1.13c-0.023,0.367,0.128,0.618,0.444,0.75c0.204-0.08,0.386-0.123,0.553-0.132    c0.64-0.038,1.085,0.31,1.333,1.049c0.001,0.016-0.002,0.141-0.009,0.375c0.007,0.133,0.074,0.219,0.201,0.261    c0.281-0.165,0.42-0.466,0.414-0.897c-0.007-0.5,0.058-0.821,0.194-0.963c-0.035-0.23-0.173-0.563-0.416-1    c-0.244-0.436-0.372-0.778-0.387-1.028c-0.016-0.266,0.063-0.52,0.235-0.764c-0.147-0.042-0.215-0.138-0.203-0.287    c0.007-0.236,0.011-0.361,0.011-0.377C586.465,147.054,587.624,147.044,588.8,147.31"/>
		<path clip-path="url(#SVGID_6_)" d="M598.305,149.261l-0.027,0.001c-0.122,0.24-0.159,0.585-0.115,1.03    c0.056,0.635,0.086,0.957,0.087,0.973c-0.094,0.036-0.224-0.011-0.386-0.141c-0.244,0.092-0.36,0.246-0.348,0.463    c0.002,0.031,0.015,0.085,0.038,0.16c0.006,0.092,0.011,0.155,0.013,0.186c0.009,0.169-0.041,0.297-0.152,0.381    c-0.279-0.155-0.646-0.253-1.1-0.296c-0.457-0.045-0.888-0.085-1.295-0.122c-0.006-2.11-0.289-4.173-0.849-6.187    c0,0.016-0.012-0.192-0.036-0.626c0.001-0.309-0.068-0.53-0.212-0.662l-0.193,0.174c-0.002-0.032,0.062-0.092,0.192-0.186    c0.13-0.091,0.192-0.186,0.188-0.278c-0.006-0.046-0.018-0.091-0.039-0.137l-0.211-0.151c-0.359,0.114-0.524,0.403-0.498,0.867    c0.02,0.309-0.105,0.527-0.367,0.65c0.102,0.071,0.154,0.161,0.16,0.27c0.005,0.061-0.004,0.148-0.027,0.256    c-0.023,0.111-0.032,0.197-0.029,0.258c0.01,0.138,0.083,0.25,0.223,0.336c0.004,0.093,0.054,0.928,0.143,2.505    c0.062,1.005,0.032,1.859-0.079,2.563l0.021,0.394c-0.136-0.007-0.29-0.006-0.462,0.003c-0.192,0.012-0.471,0.04-0.834,0.084    c-0.362,0.045-0.631,0.073-0.804,0.082c-0.71,0.04-1.208-0.079-1.495-0.357l-0.298-8.658c-0.141-0.426-0.232-1.018-0.276-1.776    l-0.097-1.669c-0.067-0.818-0.171-1.449-0.312-1.889c0.059-0.299,0.32-0.461,0.782-0.487c0.286-0.017,0.673,0.022,1.16,0.118    c0.225-0.107,0.538-0.171,0.943-0.195c0.115-0.007,0.296-0.01,0.548-0.008c0.268-0.015,0.46-0.027,0.575-0.033    c0.748-0.045,1.246-0.274,1.492-0.692c0.348-0.004,0.723,0.105,1.131,0.329c0.406,0.225,0.766,0.345,1.075,0.356    c0.817,0.481,1.257,1.277,1.325,2.389c0.012,0.248-0.084,1.231-0.293,2.949l-1.403,1.222c0.237,0.436,0.524,1.388,0.86,2.857    C597.306,147.792,597.734,148.689,598.305,149.261 M595.713,139.409l0.026,0.021c0.027,0.106,0.015-0.272-0.036-1.138    c-0.023-0.417-0.176-0.717-0.455-0.904c-0.16,0.227,0.021,0.332-0.055,0.856c-0.076,0.524-0.386,0.377-0.565,0.605    c-0.482-0.003-0.593,0.288-0.696-0.171c-0.216-0.748-0.402-0.682-0.403-0.696l-0.204,0.123c-0.072,0.066-0.156,0.141-0.247,0.223    c-0.091,0.084-0.186,0.113-0.282,0.086c0.005,0.094-0.041,0.24-0.134,0.44c-0.097,0.199-0.141,0.337-0.136,0.414    c0.01,0.14,0.119,0.24,0.334,0.306c-0.038,0.314-0.047,0.64-0.027,0.98c0.009,0.184,0.055,0.609,0.131,1.271    c0.087,0.522,0.123,0.97,0.105,1.342c0.175,0.007,0.339,0.006,0.493-0.005c0.673-0.039,1.108-0.305,1.31-0.796    c0.068-0.144,0.146-0.661,0.229-1.55C595.177,140.145,595.38,139.676,595.713,139.409"/>
		<path clip-path="url(#SVGID_6_)" d="M609.211,152.625c-0.275-0.079-0.566-0.108-0.873-0.09c-0.27,0.015-0.631,0.083-1.086,0.202    c-0.514,0.123-0.865,0.197-1.056,0.224c-0.231-0.313-0.41-0.749-0.539-1.317c-0.222-0.825-0.355-1.29-0.397-1.397    c0.052-0.096,0.074-0.175,0.072-0.237c-0.012-0.169-0.188-0.31-0.531-0.422c-0.345-0.111-0.519-0.207-0.522-0.285    c-0.003-0.091,0.178-0.242,0.554-0.449c-0.103-0.088-0.187-0.272-0.249-0.556c-0.065-0.283-0.167-0.467-0.308-0.553    c-0.222,0.185-0.593,0.319-1.118,0.403c-0.523,0.084-0.87,0.179-1.037,0.282c0.107,1.203,0,3.316-0.476,3.763    c-0.271-0.032-0.468,0.064-0.59,0.289c-0.178,0.273-0.332,0.44-0.464,0.493l0.182,0.151c-0.147,0.118-0.394,0.178-0.739,0.184    c-0.539,0.016-0.825,0.024-0.865,0.027l-0.195-0.409l0.808-13.925c-0.044-0.787-0.038-1.323,0.024-1.605    c-0.081-0.693,0.088-1.138,0.499-1.332c0.277,0.123,0.616,0.172,1.021,0.149c0.324-0.02,0.831-0.109,1.516-0.274    c0.683-0.162,1.159-0.253,1.427-0.269c0.943-0.054,1.396,0.463,1.362,1.549c-0.027,0.871,0.23,1.995,0.773,3.375    c0.567,1.487,0.873,2.61,0.918,3.367c0.014,0.231,0.321,0.724,0.314,0.956c-0.392,0.209-0.904,0.355-1.533,0.438    c-0.557,0.064-1.119,0.129-1.695,0.192c-0.238-1.166-0.784-2.581-1.023-3.731c-0.292-1.378-0.609-2.506-0.948-3.387l-0.364,6.675    c-0.023,0.574,0.32,0.841,1.029,0.799c0.229-0.011,0.448-0.072,0.655-0.176c0.171-0.056,0.415,0.031,0.735,0.26    c0.029,0.479,0.17,0.759,0.426,0.835c0.297-0.187,0.69-0.372,1.18-0.557c0.434-0.164,0.858-0.321,1.274-0.469    c0.263,0.248,0.448,0.633,0.558,1.155c0.138,0.735,0.23,1.164,0.277,1.285c0.055,0.291,0.254,0.917,0.599,1.874    c0.256,0.76,0.397,1.379,0.427,1.859C609.243,152.202,609.234,152.419,609.211,152.625"/>
		<path clip-path="url(#SVGID_6_)" d="M617.16,136.83l0.03-0.001c-0.23,0.339-0.523,0.403-0.883,0.192    c-0.079-0.013-0.425,0.008-1.038,0.058c-0.518,0.031-0.893,0.006-1.13-0.074c-0.057,0.005-0.172,0.062-0.338,0.171    c-0.167,0.111-0.289,0.169-0.366,0.173c-0.112,0.007-0.179-0.09-0.188-0.291c-0.002-0.031-0.011-0.162-0.024-0.395    c-0.009-0.154-0.084-0.259-0.221-0.312l-0.358,0.276c-0.112,0.085-0.165,0.173-0.158,0.266c0.004,0.077,0.068,0.185,0.192,0.325    c0.123,0.142,0.195,0.241,0.219,0.302c0.005,0.046,0.043,0.743,0.121,2.088c0.03,0.851,0.186,1.53,0.464,2.042    c0.072-0.081,0.248-0.126,0.529-0.135c0.277-0.008,0.463-0.07,0.551-0.184c0.183,0.161,0.486,0.17,0.913,0.029    c0.425-0.141,0.73-0.093,0.919,0.144l-0.055,2.05c-0.175-0.019-0.431-0.105-0.767-0.256c-0.098,0.3-0.29,0.489-0.574,0.567    c-0.114,0.04-0.438,0.072-0.977,0.104c0.014-0.095-0.067-0.189-0.25-0.288c-0.521,0.248-0.719,0.841-0.588,1.779    c0.014-0.094,0.033,0.067,0.058,0.486c0.015,0.262-0.04,0.452-0.168,0.567c-0.327,0.05-0.74-0.023-1.241-0.218    c-0.502-0.197-0.86-0.289-1.07-0.275c-0.097,0.005-0.184,0.019-0.259,0.038l-0.539,0.171l-0.861-9.371l-0.102-1.784    c0.716-0.242,1.604-0.396,2.659-0.458c0.825-0.047,1.903-0.04,3.236,0.022c0.084-0.176,0.243,0.054,0.436,0.042    c0.096-0.005,0.241,0.005,0.436,0.034c0.193,0.026,0.338,0.038,0.436,0.033c0.116-0.009,0.22-0.029,0.314-0.066l0.136-0.148    c0.392,0.117,0.598,0.323,0.611,0.616c0.007,0.124-0.028,0.335-0.106,0.636c-0.078,0.298-0.113,0.525-0.105,0.68    C617.063,136.604,617.1,136.726,617.16,136.83 M613.794,152.465c-0.207,0.106-0.521,0.169-0.942,0.195    c-0.557,0.032-0.892,0.059-1.006,0.081c-0.062-0.058-0.135-0.01-0.261-0.5c-0.076-0.32-0.278-0.473-0.604-0.452    c-0.078,0.005-0.172,0.017-0.287,0.04l-0.519,0.029l-0.275-4.742c0.281-0.14,0.633-0.223,1.055-0.248    c0.404-0.023,0.763,0.019,1.077,0.124c-0.01,0.171,0.236,0.244,0.733,0.213l0.548-0.032    C613.64,148.504,613.838,150.912,613.794,152.465"/>
		<path clip-path="url(#SVGID_6_)" d="M628.678,137.234l0.03,0.022c-0.271-0.016-1.141,0.042-1.81,0.127    c-0.575,0.066-1.008,0.076-1.3,0.031c-0.278,0.185-0.378,0.44-0.301,0.761l0.178,0.106c-0.145,0.133-0.197,0.236-0.155,0.312    l0.154,0.153c-0.034,2.748-0.04,4.267-0.023,4.562c0.039,0.726,0.127,1.364,0.254,1.916c-0.114,0.349-0.159,0.746-0.132,1.194    c0.018,0.293,0.087,0.758,0.209,1.395c0.124,0.636,0.29,2.726,0.31,3.051c0.015,0.246,0.008,0.48-0.019,0.698    c-0.264,0.11-0.549,0.172-0.856,0.19c-0.518,0.03-1.072-0.077-1.664-0.32c-0.074,0.066-0.155,0.135-0.248,0.211    c-0.092,0.075-0.115,0.158-0.072,0.248c-0.189,0.057-0.454-0.02-0.793-0.231c-0.182-2.783-0.68-8.45-1.418-14.177    c-0.257,0.231-0.731,0.038-1.23,0.097c-0.594,0.066-1.174-0.025-1.4,0.082c-0.286-0.31-0.224-0.399-0.254-0.908    c-0.028-0.495-0.188-1.715-0.061-2.225c0.026-0.108,1.102-0.047,1.733-0.098c0.863-0.051,1.055,0.154,1.11,0.149    c0.07-0.113,0.493-0.056,0.799-0.074c0.198,0.098,0.412-0.089,0.422,0.051c0.006,0.092,0,0.678-0.066,0.845    c-0.067,0.165-0.1,0.288-0.096,0.366c0.011,0.184,0.144-0.087,0.459,0.019c0.345-0.005,0.701-0.017,1.065-0.038    c0.407,0.037,0.874-0.111,0.837,0.234c0.07-0.099,0.115,0.075,0.699-0.161c0.432-0.195,0.694-0.705,0.608-1.053    c-0.046-0.191,0.214-0.314,0.052-0.224c0.207-0.114,0.02-0.035,0.245-0.124c0.719,0.066,1.118-0.008,1.252-0.017    c0.29-0.018,1.002,0.169,1.209,0.065c0.149,0.27,0.225,1.116,0.232,1.581C628.662,136.793,628.673,137.188,628.678,137.234"/>
		<path clip-path="url(#SVGID_6_)" d="M638.009,146.912l-0.003-0.023c-0.104,0.209-0.157,0.445-0.16,0.708    c-0.011,0.172,0.003,0.411,0.041,0.719c0.039,0.354,0.063,0.602,0.071,0.74c-0.155,0.008-0.769,0.044-1.843,0.107    c-0.652,0.038-1.235,0.126-1.747,0.264l-0.572-0.433c-0.147,0.135-0.198,0.239-0.157,0.312c-0.096-0.009-0.538,0.016-1.323,0.078    c-0.615,0.036-1.078,0.016-1.392-0.059c-0.291,0.279-0.656,0.303-1.094,0.063c-0.158-0.083-0.187-0.241-0.084-0.47    c0.102-0.232,0.054-0.396-0.146-0.494c-0.007-0.494,0.015-1.264,0.07-2.307c0.062-0.932,0.077-1.663,0.047-2.189    c-0.043-0.712-0.159-1.386-0.348-2.028c0.199-0.182,0.434-0.28,0.701-0.296c0.308-0.018,0.679,0.078,1.118,0.285    c0.613,0.288,0.928,0.435,0.947,0.435l0.183,0.15c0.018-0.047,0.097-0.302,0.245-0.758c0.077-0.3,0.211-0.501,0.398-0.605    l0.179,0.128c0.078-0.034,0.318-0.195,0.725-0.484c0.314-0.204,0.532-0.956,0.725-0.967c0.21-0.012,0.418,0.069,0.621,0.243    c0.333,0.121,0.6,0.965,0.722,1.244c0.122,0.28,0.238,0.556,0.352,0.829c-0.863,0.082-1.573,0.115-2.132,0.1    c-0.124,0.179-0.316,0.217-0.57,0.114c-0.257-0.1-0.439-0.071-0.546,0.092c0.017,0.278,0.047,0.78,0.088,1.507    c0.019,0.649,0.049,1.158,0.088,1.53c0.052,0.571,0.143,1.092,0.266,1.566c0.154-0.009,0.884-0.051,2.188-0.126    C636.567,146.833,637.348,146.841,638.009,146.912 M637.117,136.003c-0.172,0.027-0.365,0.045-0.577,0.058    c-0.441,0.025-1.026,0.012-1.764-0.038c-0.907-0.041-1.458-0.063-1.651-0.066c-0.248,0.339-0.282,0.615-0.248,1.203    c0.073,1.266,0.116,1.816,0.124,1.645c0.276,0.108,0.425,0.333,0.444,0.673c0.007,0.464,0.021,0.703,0.042,0.718    c-0.132,0.054-0.19,0.212-0.175,0.475c-0.215-0.048-0.444-0.161-0.684-0.333c-0.322-0.213-0.423,0.545-0.414,0.342l-0.146,0.472    l-0.18-0.128c-0.154,0.023-0.421-0.022-0.803-0.14c-0.383-0.116-0.656-0.234-0.815-0.348c-0.015-0.247,0.023-0.39,0.12-0.426    l-0.394-0.303l-0.16,0.218c-0.344-1.591-0.573-4.4-0.44-6.112c0.735,0.049,1.594-0.079,2.477-0.115    c0.595-0.018,1.432-0.066,2.506-0.144c1.227-0.086,2.108-0.145,2.646-0.177c0.239,0.157,0.371,0.374,0.386,0.652    c0.01,0.17-0.027,0.447-0.112,0.832C637.214,135.345,637.105,135.818,637.117,136.003"/>
		<path clip-path="url(#SVGID_6_)" d="M647.587,145.264l-0.028,0.004c-0.121,0.238-0.16,0.582-0.114,1.029    c0.056,0.633,0.084,0.957,0.085,0.972c-0.096,0.037-0.222-0.009-0.384-0.14c-0.246,0.091-0.36,0.246-0.35,0.461    c0.003,0.031,0.016,0.084,0.038,0.162c0.006,0.092,0.01,0.155,0.012,0.184c0.012,0.171-0.039,0.298-0.15,0.382    c-0.28-0.156-0.647-0.254-1.102-0.297c-0.455-0.043-0.887-0.086-1.293-0.124c-0.008-2.106-0.291-4.168-0.849-6.183    c0,0.015-0.014-0.194-0.038-0.628c0.002-0.308-0.068-0.529-0.211-0.661l-0.191,0.174c-0.002-0.029,0.061-0.092,0.191-0.185    c0.128-0.094,0.191-0.186,0.186-0.278c-0.004-0.046-0.016-0.094-0.038-0.138l-0.21-0.152c-0.359,0.116-0.525,0.404-0.498,0.868    c0.018,0.31-0.105,0.527-0.368,0.649c0.1,0.072,0.155,0.163,0.163,0.27c0.002,0.061-0.01,0.147-0.029,0.257    c-0.022,0.11-0.034,0.196-0.03,0.258c0.009,0.139,0.082,0.251,0.222,0.337c0.006,0.092,0.054,0.926,0.145,2.503    c0.061,1.005,0.031,1.861-0.081,2.564l0.023,0.395c-0.137-0.009-0.29-0.009-0.462,0.003c-0.193,0.011-0.471,0.039-0.834,0.083    c-0.364,0.043-0.63,0.072-0.804,0.082c-0.71,0.041-1.207-0.078-1.493-0.356l-0.301-8.66c-0.14-0.426-0.232-1.018-0.277-1.775    l-0.098-1.669c-0.066-0.818-0.168-1.448-0.31-1.889c0.059-0.298,0.321-0.46,0.78-0.488c0.289-0.017,0.675,0.024,1.163,0.118    c0.225-0.106,0.537-0.172,0.939-0.194c0.117-0.006,0.298-0.009,0.55-0.009c0.268-0.015,0.462-0.027,0.575-0.034    c0.75-0.043,1.246-0.273,1.492-0.69c0.346-0.005,0.724,0.105,1.13,0.329c0.409,0.224,0.767,0.343,1.079,0.356    c0.815,0.481,1.255,1.277,1.321,2.39c0.014,0.247-0.084,1.23-0.293,2.949l-1.403,1.22c0.239,0.436,0.524,1.388,0.862,2.858    C646.585,143.796,647.014,144.693,647.587,145.264 M644.992,135.412l0.031,0.023c0.024,0.107,0.011-0.273-0.037-1.138    c-0.025-0.418-0.179-0.72-0.458-0.904c-0.159,0.226-0.189-0.301-0.265,0.224s-0.203,0.899-0.38,1.128    c-0.483-0.004-0.595-0.291-0.88-0.693c-0.18-0.256-0.268-0.034-0.268-0.049l-0.131,0.105c-0.073,0.068-0.155,0.142-0.248,0.225    c-0.09,0.083-0.187,0.111-0.283,0.086c0.006,0.092-0.039,0.239-0.135,0.438c-0.092,0.2-0.138,0.338-0.135,0.414    c0.011,0.139,0.12,0.242,0.338,0.308c-0.042,0.312-0.051,0.638-0.031,0.979c0.014,0.185,0.054,0.608,0.132,1.272    c0.088,0.522,0.125,0.968,0.107,1.342c0.175,0.005,0.336,0.003,0.492-0.004c0.671-0.041,1.106-0.306,1.31-0.798    c0.066-0.145,0.145-0.661,0.228-1.55C644.457,136.149,644.662,135.681,644.992,135.412"/>
		<path clip-path="url(#SVGID_6_)" d="M552.104,105.325l0.001,0.022c-0.085,0.802-0.115,1.358-0.085,1.667    c-0.123,0.047-0.283,0.055-0.482,0.023c-0.255-0.043-0.401-0.064-0.445-0.061c-0.11,0.005-0.199,0.045-0.266,0.118    c-0.159-0.103-0.266-0.148-0.323-0.132c-0.148,0.092-0.219,0.222-0.213,0.389c0.007,0.071,0.032,0.193,0.083,0.364    c0.052,0.177,0.079,0.302,0.082,0.386c0.006,0.112-0.016,0.289-0.066,0.53c-0.051,0.24-0.073,0.438-0.066,0.592    c0.011,0.181,0.05,0.468,0.119,0.857c0.068,0.388,0.105,0.683,0.118,0.877c-0.081,0.384-0.11,0.772-0.092,1.163    c0.024,0.476,0.155,1.114,0.392,1.917c0.043,0.012,0.086,0.016,0.127,0.013c0.097-0.005,0.214-0.075,0.349-0.207    c0.133-0.132,0.246-0.201,0.347-0.206c0.069-0.003,0.146,0.013,0.232,0.051c0.251,0.815,0.383,1.341,0.396,1.579    c0.006,0.113,0.004,0.231-0.003,0.357c-0.375,0.09-0.642-0.037-0.796-0.379c0.021-0.1-0.032-0.203-0.165-0.309l-0.418,0.442    c0.41,0.064,0.571,0.379,0.487,0.944c-0.034,0.115-0.123,0.175-0.263,0.181c-0.239-0.001-0.35-0.003-0.337-0.003l-0.346-0.613    l-0.14,0.175c-0.113-0.289-0.247-0.43-0.398-0.423c-0.085,0.006-0.231,0.076-0.444,0.211c-0.208,0.138-0.384,0.211-0.523,0.217    c-0.111,0.005-0.225-0.023-0.342-0.089c-0.007-0.168-0.025-0.341-0.057-0.522c-0.03-0.181-0.124-0.295-0.279-0.345    c-0.009-0.433,0.004-1.577,0.036-3.43c0.015-1.404,0-2.539-0.045-3.406c-0.02-0.363-0.043-0.721-0.074-1.07    c-0.074-0.108-0.147-0.161-0.218-0.158c-0.058,0.003-0.142,0.065-0.254,0.182c-0.113,0.118-0.213,0.172-0.299,0.162    c-0.006-0.139-0.068-0.365-0.189-0.674c-0.121-0.31-0.185-0.534-0.193-0.674c-0.011-0.238,0.076-0.446,0.265-0.625l0.49,0.124    c0.196-0.277,0.276-0.744,0.244-1.402c-0.007-0.124-0.023-0.325-0.052-0.596c-0.026-0.273-0.044-0.472-0.051-0.597    c-0.054-1.077,0.276-1.635,0.988-1.67c0.266-0.015,0.592,0.033,0.974,0.14l0.47,0.125c0.037,0.18,0.062,0.368,0.071,0.563    c0.013,0.267,0.002,0.656-0.035,1.169c-0.04,0.515-0.051,0.891-0.041,1.128c0.021,0.378,0.087,0.719,0.2,1.02    c0.112-0.004,0.287-0.065,0.527-0.183c0.24-0.117,0.415-0.179,0.527-0.184C551.823,105.044,551.982,105.136,552.104,105.325     M550.645,106.829l-0.024-0.483l-0.152-0.139L550.645,106.829z"/>
		<path clip-path="url(#SVGID_6_)" d="M557.873,103.813l0.021-0.002c-0.05,0.381-0.109,0.763-0.174,1.145    c-0.075,0.439-0.199,0.781-0.368,1.029c-0.03-0.012-0.202-0.094-0.517-0.248c-0.217-0.115-0.41-0.16-0.575-0.139    c-0.129,0.821-0.197,1.94-0.21,3.356c-0.009,1.811-0.023,2.905-0.044,3.285c-0.211-0.016-0.369,0.05-0.473,0.203    c-0.105,0.154-0.204,0.308-0.293,0.467c-0.038,0.085-0.055,0.164-0.052,0.233c0.004,0.112,0.103,0.222,0.29,0.322    c0.187,0.104,0.283,0.219,0.289,0.344c-0.081,0.299-0.258,0.455-0.524,0.468c-0.123,0.007-0.344-0.031-0.657-0.114    c-0.312-0.084-0.53-0.121-0.657-0.113l-0.302-6.003c0.118-0.16,0.169-0.268,0.153-0.323l-0.174-0.118    c0.014-0.252,0.028-1.509,0.04-3.768c0.008-1.53,0.064-2.768,0.171-3.712c-0.013,0.002,0.419-0.028,1.301-0.087    c0.544-0.027,0.896,0.123,1.052,0.452c0.003,0.309-0.027,0.828-0.091,1.562c-0.062,0.676-0.086,1.196-0.069,1.561    c0.024,0.447,0.095,0.849,0.21,1.209C556.694,104.183,557.244,103.845,557.873,103.813 M559.956,105.099    c0.042,0.559,0.076,1.103,0.104,1.635c0.118,2.323,0.082,4.807-0.108,7.454c-0.202,0.178-0.513,0.219-0.931,0.12    c-0.418-0.098-0.722-0.059-0.908,0.118c-0.24-0.31-0.381-0.871-0.421-1.682c-0.06-1.174-0.09-1.783-0.093-1.826    c-0.051-2.944,0.237-5.321,0.86-7.134C559.185,103.973,559.684,104.41,559.956,105.099"/>
		<path clip-path="url(#SVGID_6_)" d="M567.316,108.145c-0.091,0.188-0.128,0.387-0.117,0.596c0.009,0.21,0.019,0.411,0.029,0.61    c-0.021,0.167-0.066,0.338-0.142,0.51c-0.127-0.035-0.233-0.052-0.316-0.047c-0.101,0.005-0.2,0.042-0.301,0.111    c-0.101,0.069-0.182,0.105-0.237,0.106c-0.083,0.004-0.196-0.026-0.34-0.089l-0.977-1.423c0.035,0.419,0.132,0.786,0.288,1.102    c0.077,0.162,0.155,0.327,0.234,0.492c-0.571,0.099-0.893,0.115-0.966,0.048l-0.137,0.176l-0.339-0.446    c-0.265,0.323-0.325,0.794-0.181,1.419c0.176,0.678,0.186,1.169,0.033,1.471c0.211,0.312,0.463,0.46,0.757,0.445    c0.128-0.005,0.236-0.054,0.329-0.143c0.135-0.344,0.273-0.686,0.411-1.03c0.203-0.417,0.431-0.633,0.681-0.645    c0.197-0.009,0.427,0.092,0.69,0.303c0.313,0.109,0.475,0.257,0.485,0.437c0.003,0.114-0.067,0.295-0.217,0.547    c-0.147,0.254-0.216,0.449-0.211,0.592c0.002,0.055,0.012,0.103,0.028,0.145c-0.203,0.15-0.385,0.377-0.544,0.68    c-0.161,0.302-0.37,0.51-0.632,0.62c-0.228,0.222-0.438,0.337-0.632,0.348c-0.155,0.009-0.385-0.111-0.693-0.355    c-0.306-0.243-0.593-0.359-0.857-0.346c-0.11-0.247-0.383-0.52-0.818-0.822c-0.437-0.299-0.706-0.623-0.807-0.969    c0.002,0.029-0.005-0.083-0.016-0.335c-0.008-0.14-0.068-0.227-0.182-0.265l0.158-0.156c-0.211-0.002-0.321-0.122-0.333-0.361    c-0.003-0.028-0.003-0.085-0.007-0.168c0.008-0.072,0.015-0.127,0.012-0.168c-0.008-0.169-0.063-0.285-0.164-0.351l-0.037-0.735    c-0.019-0.378-0.097-0.646-0.231-0.808c0.138-0.89,0.275-1.782,0.414-2.671c0.226-1.036,0.564-1.566,1.013-1.588    c0.068-0.002,0.139,0.008,0.211,0.031c0.401-0.398,0.888-0.612,1.46-0.641c0.631-0.031,1.327,0.158,2.09,0.569    C566.805,105.92,567.173,106.989,567.316,108.145 M564.424,105.829l-0.138,0.175c-0.098,0.019-0.211-0.03-0.345-0.151l0.025,0.484    c-0.214,0.233-0.3,0.595-0.262,1.085c0.042,0.84,0.062,1.246,0.061,1.218l0.63-0.011c0.302-0.17,0.439-0.449,0.421-0.842    c-0.01-0.196-0.078-0.517-0.205-0.967C564.482,106.37,564.422,106.041,564.424,105.829"/>
		<polygon clip-path="url(#SVGID_6_)" fill-rule="evenodd" clip-rule="evenodd" points="572.244,129.322 572.869,129.682     574.986,124.114 574.281,123.878 572.161,129.446 572.779,129.839   "/>
		<polygon clip-path="url(#SVGID_6_)" fill-rule="evenodd" clip-rule="evenodd" points="573.17,128.55 572.914,128.651     572.244,129.322 572.779,129.839 573.461,129.132 573.193,129.267   "/>
		<polygon clip-path="url(#SVGID_6_)" fill-rule="evenodd" clip-rule="evenodd" points="578.3,128.506 578.603,128.272     573.17,128.55 573.193,129.267 578.626,128.99 578.973,128.732   "/>
		<polygon clip-path="url(#SVGID_6_)" fill-rule="evenodd" clip-rule="evenodd" points="580.753,123.388 580.383,122.927     578.3,128.506 578.973,128.732 581.089,123.162 580.721,122.704   "/>
		<polygon clip-path="url(#SVGID_6_)" fill-rule="evenodd" clip-rule="evenodd" points="575.58,123.565 575.312,123.699     580.753,123.388 580.721,122.704 575.301,122.949 575.03,123.081   "/>
		<polygon clip-path="url(#SVGID_6_)" fill-rule="evenodd" clip-rule="evenodd" points="574.986,124.114 574.908,124.236     575.58,123.565 575.03,123.081 574.358,123.755 574.281,123.877   "/>
		<polygon clip-path="url(#SVGID_6_)" fill-rule="evenodd" clip-rule="evenodd" points="579.498,129.168 579.98,128.956     578.817,128.306 578.445,128.966 579.644,129.628 580.169,129.393 579.463,129.158   "/>
		<polygon clip-path="url(#SVGID_6_)" fill-rule="evenodd" clip-rule="evenodd" points="581.772,124.027 581.582,123.589     579.463,129.158 580.169,129.392 582.288,123.824 582.097,123.388   "/>
		<polygon clip-path="url(#SVGID_6_)" fill-rule="evenodd" clip-rule="evenodd" points="581.089,123.163 580.563,123.398     581.773,124.026 582.097,123.389 580.933,122.739 580.383,122.927   "/>
		<polygon clip-path="url(#SVGID_6_)" points="574.649,124.001 574.616,123.989 575.289,123.317 580.332,123.071 580.383,122.927     580.754,123.051 581.089,123.163 581.066,123.225 581.951,123.713 582.288,123.825 582.15,124.187 584.616,130.055     582.531,135.634 579.834,129.279 579.487,129.426 579.463,129.158 579.491,129.09 578.641,128.621 578.445,128.967     578.34,128.632 573.17,128.888 572.499,129.559   "/>
		<polygon clip-path="url(#SVGID_6_)" fill-rule="evenodd" clip-rule="evenodd" points="582.194,135.521 582.879,135.489     580.181,129.135 579.487,129.425 582.185,135.779 582.867,135.746 582.162,135.51   "/>
		<polygon clip-path="url(#SVGID_6_)" fill-rule="evenodd" clip-rule="evenodd" points="584.303,130.213 584.279,129.942     582.162,135.51 582.867,135.746 584.986,130.179 584.964,129.911   "/>
		<polygon clip-path="url(#SVGID_6_)" fill-rule="evenodd" clip-rule="evenodd" points="582.288,123.824 581.604,123.859     584.303,130.213 584.964,129.91 582.264,123.556 581.582,123.589   "/>
		<polygon clip-path="url(#SVGID_6_)" fill-rule="evenodd" clip-rule="evenodd" fill="#FFFFFF" points="582.107,125.259     582.41,125.92 582.522,126.593 582.49,127.254 582.297,127.938 581.963,128.609 581.502,129.202 580.909,129.751 580.192,130.222     579.801,130.39 579.409,130.558 578.972,130.635 578.568,130.725 578.177,130.78 577.752,130.825 577.359,130.769     576.957,130.746 576.609,130.669 576.239,130.545 575.882,130.388 575.569,130.208 575.299,130.008 574.996,129.794     574.751,129.526 574.549,129.233 574.246,128.572 574.134,127.901 574.135,127.227 574.359,126.556 574.649,125.905     575.121,125.28 575.714,124.731 576.464,124.27 576.823,124.092 577.249,123.936 577.652,123.845 578.056,123.757     578.479,123.712 578.873,123.656 579.266,123.712 579.667,123.736 580.036,123.857 580.406,123.98 580.741,124.094     581.088,124.283 581.37,124.452 581.659,124.698 581.862,124.989   "/>
		<polygon clip-path="url(#SVGID_6_)" fill-rule="evenodd" clip-rule="evenodd" points="582.376,126.357 582.681,127.019     582.779,127.725 582.747,128.386 582.565,129.036 582.264,129.719 581.759,130.334 581.21,130.861 580.461,131.319     580.059,131.521 579.666,131.69 579.264,131.778 578.826,131.857 578.435,131.913 578.056,131.936 577.65,131.913     577.224,131.846 576.876,131.766 576.508,131.643 576.184,131.497 575.836,131.307 575.557,131.14 575.298,130.903     575.041,130.668 574.817,130.332 574.504,129.704 574.392,129.031 574.437,128.336 574.615,127.688 574.918,127.005     575.379,126.41 575.972,125.861 576.72,125.402 577.124,125.201 577.506,125.067 577.92,124.943 578.357,124.865 578.737,124.843     579.129,124.788 579.521,124.843 579.925,124.865 580.307,124.955 580.675,125.078 581,125.225 581.359,125.382 581.627,125.585     581.929,125.796 582.13,126.09 582.366,126.39   "/>
		<polygon clip-path="url(#SVGID_6_)" fill-rule="evenodd" clip-rule="evenodd" fill="#FFFFFF" points="582.565,127.13     582.881,127.758 582.98,128.464 582.946,129.126 582.768,129.774 582.432,130.446 581.961,131.073 581.413,131.599     580.663,132.06 580.293,132.272 579.868,132.429 579.463,132.517 579.027,132.596 578.636,132.651 578.255,132.674     577.851,132.651 577.426,132.585 577.079,132.506 576.709,132.384 576.385,132.237 576.038,132.047 575.757,131.877     575.466,131.63 575.255,131.375 575.019,131.071 574.705,130.444 574.593,129.771 574.626,129.111 574.817,128.427     575.119,127.743 575.591,127.116 576.205,126.612 576.924,126.142 577.326,125.941 577.719,125.772 578.121,125.683     578.559,125.606 578.949,125.549 579.33,125.526 579.768,125.56 580.127,125.606 580.507,125.696 580.876,125.817     581.235,125.975 581.55,126.155 581.828,126.323 582.131,126.537 582.332,126.828   "/>
		<polygon clip-path="url(#SVGID_6_)" fill-rule="evenodd" clip-rule="evenodd" points="582.836,128.228 583.137,128.891     583.251,129.562 583.251,130.234 583.025,130.906 582.732,131.557 582.229,132.17 581.672,132.732 580.92,133.19 580.562,133.371     580.136,133.525 579.731,133.616 579.329,133.706 578.904,133.75 578.511,133.808 578.119,133.75 577.718,133.728     577.336,133.639 576.965,133.515 576.643,133.368 576.296,133.179 576.025,132.977 575.76,132.774 575.512,132.504     575.275,132.203 575.007,131.553 574.862,130.869 574.895,130.208 575.086,129.525 575.411,128.888 575.882,128.259     576.474,127.709 577.191,127.239 577.584,127.072 577.977,126.904 578.412,126.826 578.816,126.737 579.207,126.681     579.621,126.669 580.023,126.692 580.394,126.705 580.773,126.793 581.145,126.917 581.503,127.073 581.815,127.252     582.119,127.465 582.388,127.667 582.633,127.937 582.823,128.263   "/>
		<polygon clip-path="url(#SVGID_6_)" fill-rule="evenodd" clip-rule="evenodd" fill="#FFFFFF" points="583.228,128.957     583.54,129.584 583.653,130.256 583.641,130.962 583.462,131.611 583.124,132.285 582.621,132.9 582.072,133.426 581.357,133.897     580.953,134.099 580.527,134.255 580.124,134.346 579.721,134.435 579.295,134.479 578.915,134.5 578.511,134.479     578.119,134.422 577.74,134.333 577.37,134.208 577.045,134.062 576.72,133.917 576.418,133.705 576.16,133.469 575.915,133.199     575.712,132.91 575.399,132.281 575.265,131.563 575.298,130.903 575.512,130.266 575.813,129.582 576.283,128.955     576.867,128.438 577.584,127.969 577.987,127.769 578.378,127.6 578.804,127.554 579.219,127.431 579.61,127.375 580.024,127.365     580.429,127.388 580.786,127.434 581.166,127.522 581.568,127.655 581.895,127.801 582.22,127.947 582.522,128.162     582.779,128.396 583.026,128.665   "/>
		<polygon clip-path="url(#SVGID_6_)" fill-rule="evenodd" clip-rule="evenodd" points="583.531,130.066 583.796,130.715     583.944,131.4 583.909,132.061 583.721,132.743 583.394,133.382 582.924,134.008 582.33,134.558 581.613,135.029 581.222,135.197     580.795,135.354 580.394,135.443 579.99,135.533 579.598,135.587 579.172,135.633 578.781,135.578 578.377,135.553     578.03,135.476 577.627,135.341 577.303,135.195 576.989,135.015 576.687,134.803 576.419,134.601 576.172,134.332 575.97,134.04     575.667,133.379 575.522,132.697 575.557,132.035 575.78,131.362 576.072,130.712 576.542,130.086 577.136,129.538     577.886,129.077 578.245,128.899 578.67,128.743 579.074,128.652 579.476,128.563 579.902,128.519 580.294,128.463     580.686,128.519 581.054,128.531 581.47,128.631 581.838,128.754 582.164,128.9 582.478,129.079 582.779,129.291 583.047,129.494     583.294,129.763   "/>
		<polygon clip-path="url(#SVGID_6_)" fill-rule="evenodd" clip-rule="evenodd" points="546.51,121.515 546.543,121.301     544.413,126.903 545.085,127.127 547.215,121.525 547.225,121.38   "/>
		<polygon clip-path="url(#SVGID_6_)" fill-rule="evenodd" clip-rule="evenodd" points="546.454,121.234 546.464,121.2     546.51,121.516 547.225,121.38 547.148,121.055 547.16,121.022   "/>
		<polygon clip-path="url(#SVGID_6_)" fill-rule="evenodd" clip-rule="evenodd" points="546.374,120.91 546.454,121.235     547.16,121.022 547.08,120.697   "/>
		
			<rect x="546.531" y="120.289" transform="matrix(-0.2882 -0.9576 0.9576 -0.2882 588.7159 678.9175)" clip-path="url(#SVGID_6_)" fill-rule="evenodd" clip-rule="evenodd" width="0.305" height="0.737"/>
		<polygon clip-path="url(#SVGID_6_)" fill-rule="evenodd" clip-rule="evenodd" points="546.207,120.293 546.207,120.293     546.286,120.619 546.991,120.405 546.912,120.08 546.902,120.114   "/>
		<polygon clip-path="url(#SVGID_6_)" fill-rule="evenodd" clip-rule="evenodd" points="546.118,119.889 546.118,120.002     546.207,120.293 546.902,120.114 546.812,119.821 546.847,119.946   "/>
		<polygon clip-path="url(#SVGID_6_)" fill-rule="evenodd" clip-rule="evenodd" points="546.835,119.756 546.129,119.631     546.118,119.889 546.846,119.946 546.856,119.689 546.151,119.564 546.823,119.789   "/>
		<polygon clip-path="url(#SVGID_6_)" fill-rule="evenodd" clip-rule="evenodd" fill="#4C4849" points="547.445,136.058     547.379,135.7 546.629,135.823 546.685,136.214   "/>
		<polygon clip-path="url(#SVGID_6_)" fill-rule="evenodd" clip-rule="evenodd" points="549.004,131.387 549.025,131.207     546.91,136.775 547.58,137 549.699,131.432 549.688,131.242   "/>
		<polygon clip-path="url(#SVGID_6_)" fill-rule="evenodd" clip-rule="evenodd" points="548.948,130.995 549.004,131.387     549.688,131.242 549.631,130.848 548.914,130.983   "/>
		<polygon clip-path="url(#SVGID_6_)" fill-rule="evenodd" clip-rule="evenodd" points="548.848,130.624 548.914,130.983     549.631,130.848 549.531,130.479   "/>
		<polygon clip-path="url(#SVGID_6_)" fill-rule="evenodd" clip-rule="evenodd" points="548.758,130.221 548.779,130.266     548.848,130.624 549.531,130.479 549.475,130.085 549.498,130.133   "/>
		<polygon clip-path="url(#SVGID_6_)" fill-rule="evenodd" clip-rule="evenodd" points="549.43,129.885 548.714,129.795     548.758,130.221 549.498,130.133 549.441,129.74 548.724,129.65   "/>
		<path clip-path="url(#SVGID_6_)" fill="#4C4849" d="M544.418,125.792l-0.34,0.103L544.418,125.792z"/>
		<polygon clip-path="url(#SVGID_6_)" fill="#4C4849" points="544.771,126.961 544.783,126.926 544.957,126.939 545.085,127.127     544.772,127.023   "/>
		<polygon clip-path="url(#SVGID_6_)" points="543.999,125.57 544.357,125.502 544.37,125.245 546.498,119.644 546.487,119.677     546.487,119.901 546.544,120.181 546.655,120.519 546.744,120.808 546.822,121.134 546.879,121.413 547.215,121.526     545.085,127.127 544.957,126.939 544.783,126.926 544.77,126.961 544.772,127.023 545.085,127.127 544.774,127.109     544.783,127.362 544.565,127.095 544.391,127.082 544.346,126.769 544.476,126.741 544.613,126.382 544.257,126.477     544.156,126.219 544.078,125.895 544.418,125.793 544.078,125.895 544.09,125.862   "/>
		<polygon clip-path="url(#SVGID_6_)" points="544.76,126.646 560.35,126.135 560.753,126.159 560.82,126.181 561.202,126.271     561.236,126.282 561.638,126.417 562.03,126.584 562.062,126.596 562.433,126.832 562.499,126.854 562.79,127.1 562.88,127.167     563.093,127.425 563.115,127.47 563.26,127.705 563.271,127.783 562.585,127.99 562.476,127.816 562.466,127.851 562.286,127.604     562.288,127.603 562.051,127.415 562.108,127.47 561.728,127.27 561.728,127.266 561.334,127.1 560.998,126.989 560.617,126.898     560.685,126.921 560.325,126.875 560.328,126.842 544.783,127.362   "/>
		<polygon clip-path="url(#SVGID_6_)" points="562.567,127.997 562.585,127.99 562.622,128.053   "/>
		<polygon clip-path="url(#SVGID_6_)" fill-rule="evenodd" clip-rule="evenodd" points="570.896,141.085 570.896,140.862     568.767,146.463 569.472,146.699 571.603,141.098 571.602,140.874   "/>
		<polygon clip-path="url(#SVGID_6_)" fill-rule="evenodd" clip-rule="evenodd" points="564.74,122.484 564.695,122.396     570.896,141.085 571.602,140.875 565.4,122.183 565.389,122.104   "/>
		<polygon clip-path="url(#SVGID_6_)" fill-rule="evenodd" clip-rule="evenodd" points="564.617,122.295 564.596,122.249     564.74,122.484 565.389,122.104 565.244,121.868 565.211,121.857 564.583,122.284   "/>
		<polygon clip-path="url(#SVGID_6_)" fill-rule="evenodd" clip-rule="evenodd" points="564.472,122.059 564.415,122.004     564.583,122.284 565.211,121.857 564.976,121.556 564.918,121.499   "/>
		<polygon clip-path="url(#SVGID_6_)" fill-rule="evenodd" clip-rule="evenodd" points="564.225,121.902 564.168,121.846     564.472,122.058 564.918,121.499 564.617,121.285 564.562,121.23   "/>
		<polygon clip-path="url(#SVGID_6_)" fill-rule="evenodd" clip-rule="evenodd" points="563.889,121.678 563.856,121.667     564.225,121.903 564.562,121.23 564.181,121.03 564.147,121.017   "/>
		<polygon clip-path="url(#SVGID_6_)" fill-rule="evenodd" clip-rule="evenodd" points="563.531,121.521 563.453,121.531     563.889,121.678 564.147,121.017 563.754,120.85 563.721,120.837 563.486,121.543   "/>
		<polygon clip-path="url(#SVGID_6_)" fill-rule="evenodd" clip-rule="evenodd" points="563.128,121.387 563.083,121.408     563.486,121.544 563.721,120.838 563.318,120.703 563.116,121.42   "/>
		<polygon clip-path="url(#SVGID_6_)" fill-rule="evenodd" clip-rule="evenodd" points="562.814,121.319 562.748,121.298     563.116,121.42 563.318,120.703 562.903,120.603 562.87,120.591   "/>
		<polygon clip-path="url(#SVGID_6_)" fill-rule="evenodd" clip-rule="evenodd" points="562.455,121.274 562.444,121.308     562.814,121.318 562.87,120.591 562.477,120.533 562.434,120.558   "/>
		<polygon clip-path="url(#SVGID_6_)" fill-rule="evenodd" clip-rule="evenodd" points="547.249,121.537 546.868,121.782     562.455,121.274 562.433,120.557 546.879,121.078 546.543,121.301 547.215,121.525   "/>
		<polygon clip-path="url(#SVGID_6_)" fill="#4C4849" points="551.164,138.567 551.109,138.542 551.144,138.524   "/>
		<path clip-path="url(#SVGID_6_)" fill="#4C4849" d="M559.583,141.089l-0.064,0.754L559.583,141.089z"/>
		<path clip-path="url(#SVGID_6_)" d="M546.685,136.214l0.067,0.359l0.135,0.381l0.168,0.28l0.953,0.504l0.95,0.507l0.918,0.492    l0.93,0.459l0.032,0.012l0.942,0.426l0.939,0.426l1.02,0.415l1.03,0.38l0.034,0.012l1.098,0.293l1.098,0.291l0.032,0.01l1.21,0.18    l1.243,0.191l0.034,0.011l1.354,0.08l0.046-0.023l1.444,0.035l1.546-0.045l1.635-0.088l0.338-0.225l2.115-5.567l-0.358-0.494    l0.021,0.718l-0.111-0.14l0.08-0.207l-0.234,0.012l-0.103-0.125l-0.05,0.137l-1.214,0.075h-1.568l-1.446-0.034l-1.32-0.068    l-1.286-0.169l-1.198-0.212l-1.1-0.292l-1.098-0.292l-1.029-0.381l-0.997-0.372l-0.94-0.425l-0.931-0.461l-0.962-0.47    l-0.917-0.492l-0.918-0.495l-0.638-0.336l0.021-0.055l-0.336-0.114l-0.09-0.402l-0.066-0.359l-0.027-0.123l0.25-0.549    l-0.353-0.117l-0.017-0.007l-0.337-0.111l-2.116,5.567l-0.023,0.178l0.057,0.394L546.685,136.214z M546.942,135.332l0.015,0.071    l-0.035-0.018L546.942,135.332z"/>
		<polygon clip-path="url(#SVGID_6_)" fill-rule="evenodd" clip-rule="evenodd" points="566.025,136.323 567.658,136.234     567.638,135.516 566.004,135.605   "/>
		
			<rect x="564.469" y="135.626" transform="matrix(-0.9996 0.0278 -0.0278 -0.9996 1134.0457 256.2027)" clip-path="url(#SVGID_6_)" fill-rule="evenodd" clip-rule="evenodd" width="1.546" height="0.719"/>
		<polygon clip-path="url(#SVGID_6_)" fill-rule="evenodd" clip-rule="evenodd" points="563.001,136.321 563.035,136.332     564.48,136.366 564.458,135.651 563.014,135.616 563.059,135.593 562.99,136.355   "/>
		<polygon clip-path="url(#SVGID_6_)" fill-rule="evenodd" clip-rule="evenodd" points="561.612,136.232 561.647,136.243     562.99,136.355 563.059,135.593 561.702,135.515 561.735,135.525   "/>
		<polygon clip-path="url(#SVGID_6_)" fill-rule="evenodd" clip-rule="evenodd" points="560.357,136.073 561.612,136.232     561.735,135.526 560.493,135.334   "/>
		<polygon clip-path="url(#SVGID_6_)" fill-rule="evenodd" clip-rule="evenodd" points="559.127,135.849 559.16,135.86     560.357,136.074 560.493,135.334 559.251,135.144 559.283,135.155   "/>
		<polygon clip-path="url(#SVGID_6_)" fill-rule="evenodd" clip-rule="evenodd" points="558.03,135.557 559.127,135.849     559.283,135.155 558.187,134.863 558.019,135.591   "/>
		<polygon clip-path="url(#SVGID_6_)" fill-rule="evenodd" clip-rule="evenodd" points="556.888,135.288 556.921,135.299     558.019,135.591 558.187,134.863 557.089,134.571 557.123,134.582   "/>
		<polygon clip-path="url(#SVGID_6_)" fill-rule="evenodd" clip-rule="evenodd" points="555.855,134.907 555.855,134.907     556.888,135.288 557.123,134.582 556.093,134.201 556.127,134.211 555.824,134.896   "/>
		<polygon clip-path="url(#SVGID_6_)" fill-rule="evenodd" clip-rule="evenodd" points="554.838,134.491 555.824,134.896     556.127,134.211 555.141,133.807   "/>
		<polygon clip-path="url(#SVGID_6_)" fill-rule="evenodd" clip-rule="evenodd" points="553.897,134.065 554.838,134.491     555.141,133.808 554.188,133.416   "/>
		<polygon clip-path="url(#SVGID_6_)" fill-rule="evenodd" clip-rule="evenodd" points="552.935,133.594 552.955,133.64     553.897,134.065 554.188,133.415 553.226,132.945 553.26,132.956 552.924,133.629   "/>
		<polygon clip-path="url(#SVGID_6_)" fill-rule="evenodd" clip-rule="evenodd" points="552.004,133.134 552.924,133.629     553.26,132.956 552.33,132.496 551.994,133.168   "/>
		<polygon clip-path="url(#SVGID_6_)" fill-rule="evenodd" clip-rule="evenodd" points="551.086,132.643 551.994,133.168     552.33,132.497 551.412,132.003 551.053,132.63   "/>
		<polygon clip-path="url(#SVGID_6_)" fill-rule="evenodd" clip-rule="evenodd" points="550.135,132.137 551.053,132.631     551.412,132.004 550.493,131.51   "/>
		<polygon clip-path="url(#SVGID_6_)" fill-rule="evenodd" clip-rule="evenodd" points="549.699,131.432 549.184,131.633     550.135,132.137 550.493,131.51 549.542,131.005 549.026,131.207   "/>
		<polygon clip-path="url(#SVGID_6_)" fill-rule="evenodd" clip-rule="evenodd" points="646.771,121.34 644.64,126.941     651.593,129.263 653.209,125.543 653.254,125.185 653.264,124.814 653.209,124.422 653.073,124.042 652.85,123.705     652.67,123.346 652.38,122.988 652.077,122.663 651.764,122.371 651.416,122.069 651.059,121.799 650.711,121.608     650.375,121.385 649.983,121.217 649.636,121.027 649.3,120.913 649,120.814 648.638,120.768 648.314,120.735 648,120.78     647.687,120.823 647.353,120.937 647.061,121.137   "/>
		<polygon clip-path="url(#SVGID_6_)" fill-rule="evenodd" clip-rule="evenodd" points="651.28,129.083 651.717,128.894     644.764,126.571 644.527,127.276 651.483,129.599 651.953,129.42   "/>
		<polygon clip-path="url(#SVGID_6_)" points="543.999,125.233 544.032,125.132 546.151,119.564 546.823,119.79 544.77,125.289     544.727,125.515 544.718,125.435 543.999,125.569 543.989,125.491   "/>
		<polygon clip-path="url(#SVGID_6_)" fill="#4C4849" points="578.097,138.411 577.972,138.487 577.963,138.478   "/>
		<path clip-path="url(#SVGID_6_)" d="M544.257,126.477l0.079,0.325l0.01-0.033l0.542-0.116l-0.138,0.361l15.587-0.508l0.37,0.011    l0.404,0.135l0.403,0.134l0.403,0.136l0.367,0.234l0.303,0.212l0.214,0.257l0.13,0.261l-0.364,0.111l6.199,18.69l0.362,0.006    l0.008,0.229h0.559l0.527-0.012l0.481,0.012l0.438-0.078l0.446-0.112l0.45-0.223l0.413-0.348l0.491-0.471l0.013-0.033l0.28-0.391    l0.324-0.415l0.37-0.438l0.258-0.437l0.323-0.525l0.337-0.449l0.28-0.504l0.359-0.515l0.29-0.424l0.415-0.461l0.336-0.448    l0.394-0.393l0.346-0.368l0.369-0.325l0.359-0.291l0.413-0.236l0.09-0.044l-0.265-0.255l0.265,0.255l0.415-0.461l0.381-0.357    l0.336-0.337l0.359-0.29l0.347-0.258l0.368-0.213l0.325-0.189l0.358-0.179l0.404-0.09l0.392-0.168l0.403-0.09l0.47-0.067    l0.516-0.089l0.569-0.033l0.618-0.056l0.604-0.021l0.034,0.009l67.27-5.027l0.394-0.055l0.356-0.069l0.325-0.077l0.336-0.112    l0.314-0.156l0.324-0.192l0.27-0.247l0.313-0.268l0.068-0.09l1.174-2.743l-0.612-0.393l0.271,0.262l-0.044,0.037l-0.296-0.209    l-0.295,0.687l-0.198,0.118l-0.259,0.101l-0.302,0.125l-0.281,0.054l-0.357,0.068l-0.356,0.066l-67.305,5.017l-0.427,0.045    l-0.414,0.012l-0.414,0.01l-0.437,0.078h-0.45l-0.391,0.056l-0.426,0.046l-0.392,0.056l-0.437,0.077l-0.392,0.055l-0.402,0.089    l-0.447,0.112l-0.404,0.091l-0.427,0.156l-0.425,0.157l-0.403,0.202l-0.795,0.482l-0.808,0.737l-0.85,0.875l-0.819,0.997    l-0.795,1.042l-0.683,0.93l-0.672,0.895l-0.561,0.672l-0.325,0.078l-0.279,0.057l-0.348,0.033h-0.336h-0.336l-0.292-0.021    l-0.369-0.013l-0.325-0.034l-6.177-18.646l-0.136-0.269l-0.211-0.257l-0.302-0.214L564,121.341l-0.391-0.167l-0.403-0.135    l-0.381-0.091l-0.37-0.01l-15.576,0.475l-1.872,4.928l-0.011-0.064L544.257,126.477z M656.188,126.996l0.021-0.05l0.257,0.245    L656.188,126.996z"/>
		<polygon clip-path="url(#SVGID_6_)" fill-rule="evenodd" clip-rule="evenodd" points="653.834,128.367 654.236,128.278     654.596,128.211 654.921,128.132 655.258,128.019 655.57,127.864 655.896,127.672 656.151,127.461 656.466,127.191     655.931,126.676 655.693,126.933 655.447,127.113 655.211,127.258 654.954,127.359 654.707,127.427 654.417,127.515     654.104,127.56 653.756,127.595   "/>
		<polygon clip-path="url(#SVGID_6_)" fill-rule="evenodd" clip-rule="evenodd" points="586.574,133.362 653.834,128.367     653.756,127.595 586.487,132.622   "/>
		<polygon clip-path="url(#SVGID_6_)" fill-rule="evenodd" clip-rule="evenodd" points="579.979,134.557 580.37,134.39     580.752,134.256 581.21,134.109 581.591,133.974 582.005,133.852 582.396,133.797 582.789,133.741 583.226,133.663     583.585,133.594 584,133.584 584.426,133.538 584.851,133.495 585.275,133.45 585.656,133.429 586.116,133.394 586.574,133.362     586.487,132.622 586.06,132.666 585.635,132.711 585.187,132.711 584.761,132.755 584.347,132.767 583.944,132.857     583.529,132.868 583.068,132.901 582.666,132.991 582.262,133.079 581.827,133.158 581.378,133.27 580.998,133.403     580.541,133.55 580.08,133.694 579.678,133.896   "/>
		<polygon clip-path="url(#SVGID_6_)" fill-rule="evenodd" clip-rule="evenodd" points="573.952,141.21 574.098,141.109     574.401,140.763 574.67,140.404 574.993,139.99 575.33,139.541 575.712,139.072 576.059,138.588 576.451,138.085 576.842,137.581     577.246,137.043 577.66,136.585 578.063,136.158 578.478,135.7 578.825,135.33 579.264,135.028 579.619,134.736 579.979,134.557     579.678,133.897 579.218,134.154 578.825,134.434 578.366,134.803 577.93,135.217 577.526,135.644 577.123,136.069     576.676,136.628 576.283,137.133 575.89,137.636 575.498,138.141 575.151,138.622 574.77,139.092 574.434,139.541     574.108,139.956 573.841,140.315 573.594,140.606 573.729,140.538   "/>
		<polygon clip-path="url(#SVGID_6_)" fill-rule="evenodd" clip-rule="evenodd" fill="#FFFFFF" points="561.066,120.961     562.455,120.939 562.568,120.939 550.643,116.957 550.038,117.315 561.056,120.994   "/>
		<polygon clip-path="url(#SVGID_6_)" fill-rule="evenodd" clip-rule="evenodd" fill="#FFFFFF" points="561.066,120.961     546.879,121.413 546.822,121.134 546.744,120.808 546.655,120.519 546.545,120.181 546.487,119.901 546.487,119.677     546.576,119.409 546.823,119.229 547.405,118.827 548.055,118.445 548.704,118.064 549.354,117.684 549.971,117.293     550.038,117.315 561.056,120.994   "/>
		<polygon clip-path="url(#SVGID_6_)" fill="#FFFFFF" points="552.442,129.584 562.107,129.039 565.892,130.564 567.224,134.52     567.627,135.887 566.026,135.986 564.458,135.986 563.012,135.952 561.691,135.884 560.405,135.715 559.207,135.503     558.107,135.211 557.01,134.919 555.98,134.538 554.983,134.166 554.043,133.741 553.112,133.28 552.15,132.81 551.233,132.318     550.315,131.823 549.363,131.318 549.273,130.916 549.207,130.557 549.117,130.155 549.061,129.761   "/>
		<polygon clip-path="url(#SVGID_6_)" fill-rule="evenodd" clip-rule="evenodd" fill="#FFFFFF" points="576.788,130.69     576.924,130.848 578.166,131.599 578.568,130.949 577.324,130.199 577.447,130.389 576.788,130.69 576.833,130.78     576.924,130.848   "/>
		<polygon clip-path="url(#SVGID_6_)" fill-rule="evenodd" clip-rule="evenodd" fill="#FFFFFF" points="565.734,130.922     565.521,130.664 567.29,135.998 567.996,135.786 566.229,130.451 566.038,130.239 566.229,130.451 566.172,130.284     566.038,130.239   "/>
		<polygon clip-path="url(#SVGID_6_)" fill-rule="evenodd" clip-rule="evenodd" fill="#FFFFFF" points="562.142,129.387     561.962,129.365 565.734,130.922 566.037,130.239 562.266,128.68 562.118,128.67 562.266,128.68 562.197,128.658 562.118,128.67       "/>
		<polygon clip-path="url(#SVGID_6_)" fill-rule="evenodd" clip-rule="evenodd" fill="#FFFFFF" points="549.441,129.74     549.083,130.143 562.142,129.387 562.118,128.67 549.062,129.426 548.713,129.795 549.062,129.426 548.646,129.436     548.713,129.795   "/>
		<polygon clip-path="url(#SVGID_6_)" fill-rule="evenodd" clip-rule="evenodd" fill="#FFFFFF" points="549.542,131.006     549.688,131.242 549.677,131.051 549.631,130.848 549.62,130.658 549.564,130.49 549.554,130.3 549.508,130.098 549.452,129.929     549.441,129.74 548.714,129.795 548.713,130.02 548.746,130.255 548.803,130.423 548.812,130.613 548.87,130.78 548.914,130.984     548.994,131.195 549.004,131.387 549.184,131.632 549.004,131.387 549.061,131.555 549.184,131.632   "/>
		<polygon clip-path="url(#SVGID_6_)" fill-rule="evenodd" clip-rule="evenodd" fill="#FFFFFF" points="567.303,135.964     567.604,135.505 566.003,135.605 564.458,135.65 563.059,135.593 561.701,135.515 560.492,135.334 559.282,135.154     558.187,134.862 557.123,134.583 556.093,134.2 555.141,133.808 554.188,133.416 553.26,132.957 552.33,132.497 551.412,132.004     550.492,131.509 549.542,131.006 549.184,131.632 550.135,132.136 551.053,132.631 551.994,133.168 552.924,133.629     553.897,134.065 554.838,134.491 555.855,134.906 556.888,135.289 558.019,135.591 559.127,135.849 560.357,136.073     561.647,136.243 562.989,136.355 564.48,136.365 566.025,136.322 567.692,136.246 567.996,135.785 567.692,136.246     568.154,136.211 567.996,135.785 567.29,135.998   "/>
		<polygon clip-path="url(#SVGID_6_)" fill-rule="evenodd" clip-rule="evenodd" fill="#FFFFFF" points="586.487,132.622     585.994,132.643 585.443,132.722 584.952,132.744 584.414,132.789 583.898,132.879 583.35,132.956 582.802,133.035     582.274,133.158 581.746,133.28 581.29,133.427 580.786,133.594 580.314,133.773 579.912,133.975 579.43,134.187 579.039,134.468     578.68,134.759 579.128,135.319 579.474,135.062 579.811,134.837 580.181,134.625 580.604,134.468 581.021,134.232     581.467,134.121 581.994,133.999 582.455,133.852 582.958,133.797 583.406,133.685 583.944,133.641 584.459,133.551     585.008,133.472 585.545,133.428 586.049,133.373 586.574,133.362   "/>
		<polygon clip-path="url(#SVGID_6_)" fill-rule="evenodd" clip-rule="evenodd" fill="#FFFFFF" points="653.756,127.595     586.487,132.622 586.574,133.362 653.834,128.367   "/>
		<polygon clip-path="url(#SVGID_6_)" fill-rule="evenodd" clip-rule="evenodd" fill="#FFFFFF" points="655.011,123.493     655.291,123.886 655.582,124.245 655.717,124.625 655.93,124.996 656.041,125.333 656.073,125.679 656.086,125.981     656.063,126.271 655.984,126.509 655.872,126.731 655.728,126.945 655.469,127.158 655.199,127.292 654.774,127.449     654.328,127.561 653.756,127.595 653.834,128.368 654.451,128.312 654.987,128.155 655.458,127.976 655.872,127.741     656.253,127.494 656.521,127.136 656.667,126.81 656.802,126.408 656.79,125.992 656.814,125.591 656.725,125.186     656.578,124.728 656.408,124.334 656.186,123.886 655.896,123.417 655.604,123.057   "/>
		<polygon clip-path="url(#SVGID_6_)" fill-rule="evenodd" clip-rule="evenodd" fill="#FFFFFF" points="646.993,119.66     647.599,119.639 648.215,119.694 648.841,119.829 649.446,119.919 650.018,120.108 650.588,120.3 651.137,120.557     651.651,120.805 652.189,121.095 652.683,121.41 653.209,121.734 653.591,122.048 653.99,122.406 654.385,122.799     654.709,123.169 655.012,123.493 655.604,123.057 655.258,122.642 654.865,122.25 654.474,121.858 654.037,121.488     653.557,121.142 653.074,120.793 652.583,120.478 652.022,120.142 651.441,119.874 650.847,119.639 650.24,119.436     649.604,119.223 648.977,119.089 648.338,118.987 647.608,118.931 646.971,118.942   "/>
		<polygon clip-path="url(#SVGID_6_)" fill-rule="evenodd" clip-rule="evenodd" fill="#FFFFFF" points="587.473,121.709     646.994,119.66 646.97,118.941 587.484,121.003   "/>
		<polygon clip-path="url(#SVGID_6_)" fill-rule="evenodd" clip-rule="evenodd" fill="#FFFFFF" points="578.076,120.215     578.639,120.441 579.231,120.564 579.803,120.754 580.396,120.877 581.021,121.013 581.604,121.17 582.244,121.27     582.814,121.349 583.409,121.474 584.023,121.529 584.628,121.618 585.223,121.63 585.794,121.708 586.398,121.687     586.946,121.72 587.473,121.71 587.484,121.004 586.924,121.004 586.376,120.97 585.86,120.947 585.278,120.903 584.696,120.857     584.114,120.811 583.544,120.733 582.938,120.644 582.346,120.52 581.774,120.441 581.191,120.284 580.586,120.194     580.004,120.037 579.389,119.869 578.873,119.735 578.301,119.544 578.067,120.25   "/>
		<polygon clip-path="url(#SVGID_6_)" fill-rule="evenodd" clip-rule="evenodd" fill="#FFFFFF" points="558,114.708 559.02,114.561     559.98,114.472 560.9,114.405 561.741,114.349 562.536,114.316 563.253,114.406 563.992,114.429 564.607,114.485 565.246,114.587     565.84,114.711 566.398,114.822 566.904,114.99 567.44,115.17 567.865,115.35 568.392,115.562 568.807,115.775 569.288,116.011     569.771,116.247 570.24,116.516 570.711,116.784 571.181,117.054 571.673,117.368 572.156,117.604 572.681,117.928     573.264,118.197 573.823,118.534 574.45,118.779 575.055,119.093 575.737,119.397 576.477,119.644 577.261,119.979     578.067,120.25 578.301,119.544 577.496,119.274 576.7,118.971 576.039,118.714 575.347,118.444 574.708,118.119 574.159,117.861     573.599,117.524 573.051,117.267 572.512,116.976 572.009,116.695 571.538,116.428 571.047,116.112 570.576,115.843     570.094,115.609 569.612,115.372 569.176,115.114 568.694,114.88 568.169,114.665 567.675,114.464 567.138,114.285     566.566,114.093 565.974,113.971 565.369,113.88 564.707,113.735 564.025,113.656 563.319,113.644 562.501,113.633     561.719,113.632 560.811,113.666 559.893,113.733 558.919,113.855 557.91,113.968 557.967,114.695   "/>
		<polygon clip-path="url(#SVGID_6_)" fill-rule="evenodd" clip-rule="evenodd" fill="#FFFFFF" points="547.013,119.554     547.596,119.151 548.245,118.771 548.896,118.39 549.556,117.976 550.16,117.617 550.843,117.248 551.482,116.901     552.143,116.599 552.849,116.273 553.555,115.949 554.248,115.658 554.965,115.411 555.739,115.222 556.442,115.009     557.216,114.819 557.967,114.696 557.91,113.969 557.07,114.136 556.276,114.281 555.492,114.504 554.752,114.706 554.014,115.02     553.252,115.288 552.558,115.579 551.85,115.905 551.136,116.261 550.452,116.631 549.813,116.978 549.164,117.358     548.513,117.739 547.864,118.119 547.249,118.513 546.633,118.905 546.979,119.543   "/>
		<polygon clip-path="url(#SVGID_6_)" fill-rule="evenodd" clip-rule="evenodd" fill="#FFFFFF" points="546.879,121.078     547.259,121.391 547.148,121.056 547.08,120.697 546.991,120.406 546.912,120.079 546.868,119.879 546.835,119.756     546.89,119.588 546.979,119.542 546.633,118.904 546.308,119.206 546.139,119.599 546.095,119.957 546.207,120.293     546.286,120.618 546.374,120.91 546.464,121.201 546.52,121.481 546.868,121.782 546.52,121.481 546.53,121.782 546.868,121.782       "/>
		<polygon clip-path="url(#SVGID_6_)" fill="#FFFFFF" points="574.371,123.722 574.362,123.757 574.358,123.755   "/>
		<polygon clip-path="url(#SVGID_6_)" fill="#FFFFFF" points="574.202,123.889 574.358,123.755 574.27,124.136   "/>
		<polygon clip-path="url(#SVGID_6_)" fill="#FFFFFF" points="584.224,128.169 596.496,132.267 595.164,132.346 595.153,132.377     584.501,128.822   "/>
		<path clip-path="url(#SVGID_6_)" fill="#FFFFFF" d="M546.868,121.782l15.587-0.508l0.326,0.033l0.302,0.101l0.403,0.135    l0.37,0.124l0.335,0.224l0.248,0.158l0.144,0.234l0.112,0.113l6.2,18.689l0.09,0.292l0.301-0.011l0.315-0.045l0.357,0.045    l0.438,0.034l0.414-0.011l0.403,0.021l0.37-0.102l0.414-0.122l0.335-0.223l0.403-0.426l0.337-0.448l0.312-0.38l0.313-0.38    l0.27-0.36l0.259-0.324l0.224-0.337l0.268-0.358l0.224-0.336l0.259-0.324l0.258-0.326l0.279-0.28l0.292-0.313l0.336-0.336    l0.336-0.337l0.426-0.38l-0.227-0.285l0.338-0.276l0.38-0.247l0.438-0.19l0.403-0.201l0.436-0.19l0.492-0.135l0.506-0.167    l0.492-0.134l0.471-0.068l0.514-0.088l0.549-0.08l0.516-0.089l0.538-0.045l0.538-0.043l0.504-0.056l0.493-0.023l8.645-0.625    l-10.652-3.556l-0.277-0.652l12.272,4.098l57.317-4.282l1.063-0.168l0.794-0.368l0.549-0.527l0.201-0.605l0.001-0.672l0.011-0.034    l-0.19-0.774l-0.379-0.76l-0.552-0.819l-0.323-0.369l-0.357-0.382l-0.393-0.391l-0.413-0.325l-0.438-0.37l-0.492-0.315    l-0.526-0.325l-0.526-0.325l-0.561-0.224l-0.55-0.259l-0.604-0.201l-0.636-0.213l-0.604-0.09l-0.63-0.135l-0.649-0.067    l-0.639,0.01l-8.654,0.324l-50.831,1.738h-0.561l-0.525,0.012l-0.594-0.013l-0.57-0.078l-0.583-0.045l-0.583-0.045l-0.57-0.079    l-0.605-0.09l-0.604-0.089l-0.595-0.124l-0.594-0.124l-0.592-0.122l-0.616-0.169l-0.582-0.158l-0.549-0.145l-0.572-0.19    l-0.806-0.271l-0.794-0.301l-0.695-0.27l-0.692-0.267l-0.606-0.316l-0.583-0.269l-0.604-0.314l-0.549-0.259l-0.525-0.323    l-0.47-0.271l-0.504-0.28l-0.471-0.268l-0.504-0.281l-0.47-0.27l-0.449-0.223l-0.471-0.27l-0.48-0.235l-0.493-0.203l-0.471-0.156    l-0.537-0.179l-0.572-0.191l-0.546-0.147l-0.605-0.089l-0.639-0.101l-0.648-0.067l-0.729-0.056l-0.773-0.035l-0.794,0.034    l-0.83,0.021l-0.927,0.101l-0.964,0.09l-1.052,0.134l-0.785,0.112l-0.771,0.189l-0.773,0.19l-0.719,0.246l-0.759,0.27l-0.729,0.28    l-0.694,0.29l-0.707,0.324l-0.67,0.338l-0.684,0.37l10.875,3.631l-14.639,0.49L546.868,121.782z M646.558,122.089l0.066-0.424    l0.146-0.325l0.267-0.247l0.404-0.202l0.47-0.068l0.257,0.013l0.293,0.022l0.279,0.055l0.279,0.057l0.337,0.112l0.303,0.101    l0.325,0.145l0.346,0.191l0.291,0.135l0.304,0.213l0.268,0.201l0.292,0.247l0.302,0.213l0.213,0.258l0.258,0.236l0.213,0.257    l0.392,0.506l0.201,0.515l0.1,0.258l0.057,0.167l-0.031,0.437l-0.081,0.346l-0.246,0.292l-0.359,0.179l-0.48,0.101l-0.269,0.024    l-0.28-0.058l-0.323-0.033l-0.348-0.078l-0.305-0.102l-0.335-0.113l-0.357-0.154l-0.313-0.182l-0.326-0.145l-0.348-0.191    l-0.303-0.211l-0.289-0.249l-0.27-0.201l-0.278-0.28l-0.247-0.27l-0.213-0.257l-0.346-0.526l-0.202-0.516l-0.056-0.168    L646.558,122.089z M584.597,130.01L584.597,130.01l-0.238-0.19L584.597,130.01z M575.057,124.087l0.396-0.396l5.11-0.292    l1.085,0.563l2.564,6.041l-0.398,0.509l-5.492,0.392l0.246,0.045l-0.188,0.299l-0.026,0.003l-1.22-0.705l-0.004-0.013l0.316-0.144    L575.057,124.087z"/>
		<polygon clip-path="url(#SVGID_6_)" fill-rule="evenodd" clip-rule="evenodd" points="643.096,125.976 642.783,125.798     642.725,125.518 643.174,125.405 643.263,125.697 642.994,125.495   "/>
		<polygon clip-path="url(#SVGID_6_)" fill-rule="evenodd" clip-rule="evenodd" points="643.701,125.619 643.633,125.708     643.521,125.819 643.386,125.886 643.253,125.954 643.096,125.975 642.994,125.494 643.062,125.517 643.162,125.438     643.286,125.404 643.297,125.371 643.274,125.438 643.688,125.652   "/>
		<polygon clip-path="url(#SVGID_6_)" fill-rule="evenodd" clip-rule="evenodd" points="642.437,122.805 642.469,122.816     642.683,123.075 642.962,123.354 643.229,123.668 643.487,124.015 643.699,124.385 643.823,124.8 643.824,125.248     643.688,125.652 643.274,125.438 643.365,125.169 643.343,124.901 643.263,124.576 643.062,124.285 642.84,123.949     642.594,123.68 642.312,123.399 642.099,123.143 642.132,123.154   "/>
		<polygon clip-path="url(#SVGID_6_)" fill-rule="evenodd" clip-rule="evenodd" points="638.315,121.617 638.28,121.604     638.874,121.617 639.435,121.617 639.961,121.718 640.465,121.772 640.979,121.909 641.461,122.145 641.964,122.425     642.437,122.805 642.132,123.154 641.675,122.85 641.236,122.593 640.823,122.381 640.374,122.266 639.882,122.176     639.379,122.121 638.863,122.099 638.336,122.11 638.348,122.075 638.269,121.639   "/>
		<polygon clip-path="url(#SVGID_6_)" fill-rule="evenodd" clip-rule="evenodd" points="594.617,123.908 594.808,123.785     638.269,121.639 638.348,122.075 594.874,124.255 595.065,124.133   "/>
		<polygon clip-path="url(#SVGID_6_)" fill-rule="evenodd" clip-rule="evenodd" points="593.585,125.432 593.116,125.274     593.149,124.949 593.239,124.682 593.374,124.391 593.553,124.188 593.789,124.042 594.091,123.919 594.427,123.807     594.808,123.786 594.874,124.254 594.517,124.322 594.192,124.4 594.034,124.423 593.878,124.557 593.801,124.682     593.677,124.828 593.61,125.028 593.619,125.33 593.149,125.173   "/>
		<polygon clip-path="url(#SVGID_6_)" points="642.816,125.248 642.693,125.058 642.535,124.856 642.412,124.666 642.245,124.497     642.088,124.295 641.92,124.127 641.764,123.925 641.314,123.59 640.856,123.287 640.397,123.096 639.915,122.973     639.412,122.916 638.886,122.816 638.369,122.793 637.811,122.792 594.338,124.972 594.695,124.297 594.83,124.276     594.874,124.254 638.348,122.075 639.075,122.132 639.682,122.109 640.254,122.188 640.777,122.29 641.261,122.524     641.696,122.781 642.099,123.143 642.56,123.668 642.963,124.14 643.254,124.609 643.398,124.957 643.398,125.181     643.297,125.371 643.017,125.54 642.979,125.549 642.963,125.482   "/>
		<path clip-path="url(#SVGID_6_)" d="M593.116,125.274l0.047,0.425l0.089,0.292l0.122,0.414l0.291,0.47l0.358,0.382l0.459,0.415    l0.549,0.37l0.615,0.281l0.648,0.177l0.785,0.001l44.66-2.267l0.851-0.09l0.604-0.134l0.438-0.303l0.246-0.403l-0.011-0.414    l-0.169-0.506l-0.324-0.481l-0.446-0.561l-0.46-0.527l-0.495-0.425l-0.522-0.324l-0.518-0.247l-0.56-0.113l-0.672-0.112h-0.671    l-0.764,0.044l-43.461,2.147l0.002,0.012l-0.461,0.021l-0.47,0.178l-0.312,0.27l-0.214,0.303l-0.146,0.323L593.116,125.274z     M593.619,125.33l0.058-0.279l0.021-0.046l0.035-0.009h0.224l0.382-0.023l0.361-0.678l0.131-0.018l0.044-0.022l43.474-2.179    l0.728,0.056l0.606-0.022l0.571,0.078l0.524,0.102l0.483,0.235l0.436,0.257l0.401,0.361l0.461,0.526l0.403,0.471l0.291,0.47    l0.146,0.347v0.224l-0.102,0.191l-0.281,0.169l-0.037,0.009l-0.487,0.113l-0.739,0.089l-44.672,2.303l-0.034-0.011l-0.626-0.023    l-0.616-0.169l-0.55-0.257l-0.471-0.269l-0.391-0.393l-0.279-0.392l-0.247-0.38l-0.189-0.325l-0.036-0.235L593.619,125.33z"/>
	</g>
	
	
</g>
<g id="tile_text">
	
</g>
</g></svg>