<svg version="1.1" xmlns="http://www.w3.org/2000/svg" xmlns:xlink="http://www.w3.org/1999/xlink" x="0px" y="0px" width="300" height="300" viewBox="0 0 300 300" enable-background="new 0 0 72 72" xml:space="preserve"><g transform="translate(0, 126.27301198031451) scale(4.971084856418499)">
<g id="Outlines">
	<polygon fill="#919395" points="0,0.016 0,72.016 72,72.016 72,0.016 0,0.016  "/>
	<path fill="#FFFFFF" stroke="#FF0000" stroke-width="0.5" stroke-miterlimit="10" d="M11.971,59.747h48.059   c2.654,0,3.729-1.863,2.402-4.162L38.403,13.977c-1.327-2.299-3.479-2.299-4.807,0L9.568,55.585   C8.241,57.884,9.316,59.747,11.971,59.747z"/>
	<polygon fill="#FFFFFF" stroke="#0064FF" stroke-width="0.5" stroke-miterlimit="10" stroke-dasharray="2" points="22.755,50.747    36,27.812 49.245,50.747  "/>
</g>
<g id="Text">
	<g>
		<rect x="1.44" y="0.72" fill="#E6E6E6" width="60.349" height="9.546"/>
		
		<g>
			<circle fill-rule="evenodd" clip-rule="evenodd" cx="6.608" cy="5.494" r="4.035"/>
			<circle fill-rule="evenodd" clip-rule="evenodd" fill="#B6D234" cx="6.61" cy="5.515" r="3.668"/>
			<g>
				<path d="M5.825,4.716C5.773,5.166,5.735,5.526,5.71,5.8L5.543,5.808c0.002-0.01,0.003-0.02,0.003-0.031      C5.547,5.756,5.54,5.73,5.524,5.695C5.508,5.663,5.501,5.642,5.498,5.632C5.455,5.639,5.413,5.668,5.374,5.722      c-0.04,0.055-0.076,0.081-0.107,0.08c-0.019,0-0.039-0.005-0.062-0.013c-0.028,0.02-0.068,0.027-0.116,0.024      C5.046,5.806,5.004,5.799,4.964,5.792C4.961,5.737,4.905,5.687,4.794,5.645c0-0.024-0.011-0.057-0.034-0.103      C4.738,5.498,4.726,5.466,4.727,5.448c0-0.02,0.008-0.037,0.024-0.051C4.749,5.39,4.73,5.349,4.696,5.27      C4.672,5.213,4.66,5.164,4.661,5.123c0-0.031,0.008-0.062,0.022-0.089c-0.02-0.193-0.028-0.36-0.026-0.499      C4.661,4.323,4.69,4.126,4.749,3.947C4.744,3.92,4.742,3.893,4.742,3.865c0.003-0.143,0.053-0.242,0.15-0.297V3.522      C4.987,3.401,5.114,3.314,5.268,3.26c0.095,0.022,0.188,0.043,0.28,0.062C5.652,3.358,5.724,3.42,5.763,3.507      c0.032,0.02,0.047,0.056,0.045,0.113c0,0.064,0.007,0.104,0.022,0.123L5.813,3.764C5.832,3.898,5.841,3.98,5.84,4.009      C5.838,4.096,5.815,4.158,5.771,4.192c-0.016,0-0.058-0.014-0.125-0.042C5.629,4.167,5.614,4.173,5.595,4.173      C5.585,4.172,5.569,4.168,5.545,4.159c-0.024-0.009-0.044-0.014-0.06-0.015c-0.01,0-0.022,0.002-0.034,0.006      C5.45,3.97,5.457,3.837,5.468,3.748C5.45,3.737,5.433,3.708,5.415,3.669c-0.021-0.042-0.043-0.065-0.073-0.07      C5.323,3.622,5.314,3.635,5.317,3.643L5.255,3.622c-0.054,0.061-0.092,0.165-0.11,0.315C5.127,4.109,5.103,4.224,5.074,4.28      C5.1,4.306,5.111,4.341,5.11,4.387c0,0.016-0.003,0.042-0.009,0.078C5.096,4.501,5.094,4.529,5.093,4.547      c0,0.021,0.002,0.039,0.007,0.054L5.058,4.643C5.074,4.72,5.085,4.818,5.086,4.937C5.085,5.036,5.085,5.136,5.085,5.237      c-0.002,0-0.021,0-0.057,0.001C5.006,5.238,4.987,5.246,4.979,5.262C4.993,5.26,5.006,5.258,5.016,5.259      c0.051,0,0.09,0.036,0.118,0.106c0.028,0.07,0.052,0.105,0.074,0.105c0.022,0,0.053-0.021,0.092-0.064      c0.066-0.072,0.103-0.169,0.105-0.294c0-0.063-0.007-0.128-0.021-0.199C5.368,4.922,5.359,4.946,5.359,4.982      c-0.036,0-0.06,0.007-0.068,0.022C5.274,4.999,5.268,4.986,5.272,4.967c0.001-0.03,0.002-0.045,0.002-0.048      c0.028-0.007,0.042-0.02,0.042-0.037c0-0.006-0.004-0.02-0.014-0.038c-0.01-0.019-0.014-0.033-0.014-0.045      c0-0.009,0.002-0.018,0.006-0.027L5.31,4.639c0.05,0.015,0.158,0.021,0.325,0.02c-0.005,0.01,0.001,0.026,0.019,0.044      C5.67,4.688,5.687,4.68,5.705,4.68C5.72,4.681,5.739,4.687,5.766,4.699C5.794,4.71,5.813,4.716,5.825,4.716z"/>
				<path d="M7.098,5.891C7.066,5.877,7.031,5.87,6.997,5.868c-0.033,0-0.077,0.006-0.131,0.02C6.803,5.9,6.762,5.907,6.74,5.909      C6.714,5.861,6.698,5.795,6.688,5.71C6.67,5.588,6.658,5.518,6.654,5.501c0.007-0.014,0.011-0.025,0.011-0.034      c0-0.025-0.019-0.047-0.06-0.067c-0.039-0.02-0.059-0.036-0.058-0.047c0-0.013,0.022-0.034,0.069-0.06      c-0.012-0.014-0.02-0.042-0.025-0.084c-0.004-0.043-0.016-0.07-0.03-0.084C6.534,5.15,6.488,5.165,6.424,5.172      C6.362,5.179,6.321,5.189,6.302,5.201C6.303,5.379,6.273,5.498,6.212,5.56C6.182,5.553,6.156,5.563,6.14,5.596      c-0.023,0.039-0.043,0.06-0.059,0.067l0.02,0.024C6.083,5.703,6.053,5.709,6.013,5.706C5.948,5.703,5.915,5.701,5.911,5.701      l-0.02-0.062l0.221-1.842c0.002-0.116,0.009-0.195,0.02-0.236c-0.004-0.102,0.02-0.165,0.071-0.189      c0.03,0.021,0.071,0.031,0.119,0.033c0.038,0,0.098-0.007,0.181-0.024c0.084-0.019,0.139-0.025,0.172-0.025      c0.11,0.002,0.159,0.083,0.145,0.241C6.809,3.723,6.828,3.891,6.878,4.099c0.054,0.224,0.079,0.392,0.077,0.504      C6.955,4.636,6.966,4.707,6.963,4.741C6.916,4.767,6.853,4.784,6.778,4.79c-0.066,0.004-0.132,0.008-0.202,0.01      C6.56,4.626,6.529,4.418,6.511,4.248C6.49,4.042,6.463,3.873,6.432,3.74L6.325,4.714C6.317,4.799,6.356,4.841,6.441,4.843      c0.026,0,0.052-0.005,0.077-0.02c0.021-0.005,0.05,0.009,0.086,0.046c-0.002,0.07,0.012,0.113,0.042,0.126      C6.682,4.972,6.73,4.95,6.789,4.926C6.842,4.908,6.895,4.89,6.945,4.872C6.974,4.912,6.991,4.969,7,5.047      c0.009,0.11,0.017,0.173,0.021,0.191c0.004,0.043,0.022,0.138,0.053,0.281c0.023,0.114,0.033,0.206,0.033,0.277      C7.107,5.83,7.103,5.862,7.098,5.891z"/>
				<path d="M8.669,4.266c-0.002,0.008-0.003,0.047-0.002,0.12c-0.001,0.06-0.008,0.103-0.022,0.132      c-0.018,0.045-0.026,0.11-0.028,0.195c0,0.018,0,0.046,0.002,0.084c0,0.04-0.002,0.068-0.002,0.086      C8.615,5.026,8.591,5.129,8.544,5.195C8.549,5.232,8.55,5.269,8.55,5.305C8.548,5.419,8.509,5.571,8.432,5.765      C8.412,5.77,8.396,5.774,8.381,5.774c-0.027-0.001-0.046-0.017-0.06-0.048C8.31,5.695,8.298,5.666,8.287,5.639      c0.007-0.176,0.004-0.43-0.009-0.764l0.02-0.021c-0.015-0.059-0.021-0.125-0.02-0.198c0-0.052,0.006-0.127,0.019-0.228      c0.012-0.1,0.018-0.175,0.019-0.226c0.001-0.031,0-0.061-0.002-0.091C8.235,4.297,8.18,4.615,8.147,5.063L8.119,5.129      c-0.01,0.023-0.03,0.035-0.059,0.038C8.052,5.151,8.043,5.144,8.033,5.144c-0.006-0.001-0.02,0.008-0.037,0.024      C7.979,5.185,7.965,5.192,7.955,5.189L7.909,5.23c0.02,0.025,0.062,0.028,0.13,0.009c0.052-0.016,0.078,0.004,0.08,0.06      c0.002,0.046-0.01,0.106-0.038,0.184c-0.025,0.076-0.038,0.134-0.04,0.173c0,0.027,0.003,0.054,0.009,0.081L7.814,5.774      C7.793,5.728,7.775,5.65,7.766,5.542c-0.011-0.107-0.027-0.184-0.05-0.23C7.73,5.296,7.737,5.279,7.737,5.261      C7.739,5.245,7.732,5.22,7.719,5.188C7.706,5.157,7.697,5.133,7.697,5.116c-0.002-0.024-0.01-0.085-0.024-0.181      c-0.011-0.077-0.016-0.138-0.015-0.18c0-0.024,0.001-0.044,0.004-0.063c0-0.015-0.008-0.039-0.026-0.069      C7.619,4.591,7.609,4.57,7.609,4.556c0-0.012,0.005-0.022,0.014-0.032C7.608,4.506,7.602,4.475,7.604,4.429      c0.004-0.045-0.004-0.077-0.018-0.095C7.552,4.421,7.535,4.541,7.533,4.69C7.53,4.9,7.529,5.021,7.525,5.053l0.024,0.021      l-0.024,0.02C7.542,5.176,7.549,5.28,7.547,5.407C7.542,5.636,7.538,5.745,7.538,5.729C7.506,5.757,7.462,5.771,7.404,5.77      c-0.07-0.001-0.117,0.004-0.143,0.019C7.233,5.739,7.219,5.674,7.22,5.593c0.001-0.061,0.012-0.135,0.03-0.225      C7.22,5.312,7.206,5.231,7.208,5.129c0-0.025,0.002-0.073,0.009-0.143C7.22,4.929,7.221,4.887,7.219,4.859      c0.022-0.011,0.035-0.023,0.035-0.037c0-0.008-0.007-0.025-0.022-0.046S7.21,4.738,7.21,4.727      c0.002-0.013,0.01-0.027,0.028-0.042L7.166,3.582C7.21,3.553,7.279,3.54,7.377,3.542c0.108,0.004,0.179-0.001,0.22-0.017      C7.602,3.52,7.611,3.518,7.62,3.518c0.01,0,0.02,0.005,0.034,0.016c0.011,0.011,0.02,0.016,0.023,0.016      c0.009,0,0.019-0.007,0.025-0.019l0.063,0.061c0.022,0.082,0.042,0.237,0.06,0.466c0.02,0.198,0.05,0.348,0.092,0.449      C7.974,4.305,8.019,4.137,8.056,4L8.13,3.459l0.529-0.011c0.002,0.029,0.008,0.187,0.021,0.279      c0.013,0.08,0.02,0.145,0.018,0.194c0,0.057-0.009,0.108-0.026,0.153C8.69,4.102,8.699,4.133,8.698,4.17      C8.697,4.211,8.687,4.241,8.669,4.266z"/>
				<path d="M9.755,5.462V5.459C9.741,5.487,9.731,5.522,9.729,5.561c-0.003,0.025-0.004,0.06-0.002,0.106      c0.002,0.051,0.002,0.089,0.002,0.108c-0.019,0-0.092,0-0.219-0.003C9.433,5.77,9.364,5.778,9.302,5.792L9.238,5.723      C9.219,5.74,9.213,5.756,9.218,5.768C9.206,5.765,9.153,5.765,9.061,5.765C8.986,5.763,8.932,5.756,8.897,5.741      C8.859,5.78,8.815,5.779,8.768,5.739c-0.019-0.014-0.021-0.037-0.006-0.07c0.015-0.033,0.01-0.057-0.012-0.073      c0.004-0.073,0.013-0.187,0.029-0.337c0.017-0.137,0.025-0.244,0.026-0.321c0.002-0.105-0.005-0.206-0.023-0.3      C8.808,4.612,8.836,4.6,8.868,4.601c0.038,0,0.079,0.019,0.128,0.053c0.069,0.048,0.107,0.073,0.107,0.073l0.021,0.025      c0.003-0.007,0.014-0.043,0.037-0.109C9.173,4.6,9.19,4.573,9.213,4.559L9.234,4.58c0.009-0.005,0.039-0.026,0.09-0.064      c0.038-0.027,0.071-0.089,0.094-0.089c0.025,0,0.047,0.013,0.071,0.042C9.526,4.49,9.552,4.573,9.562,4.613      C9.575,4.657,9.586,4.699,9.596,4.74c-0.102,0.001-0.186,0-0.252-0.008C9.328,4.757,9.305,4.76,9.275,4.742      C9.247,4.726,9.225,4.727,9.21,4.749C9.209,4.791,9.208,4.865,9.207,4.972c-0.004,0.095-0.005,0.17-0.002,0.225      c0,0.084,0.005,0.162,0.015,0.231c0.019,0.001,0.105,0.002,0.26,0.005C9.586,5.436,9.677,5.446,9.755,5.462z M9.762,3.828      C9.742,3.829,9.72,3.83,9.694,3.829c-0.053,0-0.121-0.009-0.209-0.023C9.379,3.79,9.315,3.781,9.292,3.779      c-0.032,0.047-0.048,0.114-0.051,0.2C9.237,4.167,9.237,4.247,9.24,4.22c0.031,0.021,0.046,0.056,0.046,0.104      C9.282,4.393,9.282,4.428,9.285,4.431C9.269,4.437,9.26,4.458,9.26,4.498C9.234,4.489,9.208,4.47,9.181,4.442      C9.146,4.408,9.127,4.524,9.13,4.496l-0.023,0.07L9.088,4.545C9.068,4.547,9.04,4.538,8.993,4.516      C8.949,4.495,8.92,4.476,8.9,4.456C8.901,4.419,8.907,4.4,8.92,4.396L8.876,4.347L8.855,4.378      c-0.026-0.237-0.02-0.681,0.012-0.93c0.086,0.015,0.182,0.025,0.286,0.029C9.223,3.479,9.323,3.481,9.45,3.481      c0.145,0,0.251,0,0.314,0.002c0.026,0.025,0.04,0.058,0.038,0.098c0,0.026-0.006,0.066-0.02,0.123      C9.769,3.759,9.763,3.8,9.762,3.828z"/>
			</g>
			<g>
				<path d="M5.927,7.525V7.523c0,0.002-0.005,0.052-0.017,0.151C5.903,7.736,5.889,7.783,5.865,7.818L5.85,7.806      C5.823,7.864,5.785,7.899,5.738,7.912C5.716,7.936,5.682,7.948,5.639,7.951C5.614,7.953,5.554,7.946,5.462,7.929      C5.417,7.902,5.393,7.886,5.389,7.883C5.36,7.862,5.347,7.841,5.349,7.819C5.321,7.792,5.284,7.741,5.268,7.68      C5.252,7.611,5.241,7.607,5.225,7.583C5.199,7.603,5.189,7.562,5.176,7.538l0.012-0.01C5.18,7.521,5.177,7.514,5.176,7.508      c-0.001-0.006,0-0.013,0.005-0.024c0.004-0.01,0.008-0.02,0.007-0.022c-0.001-0.01-0.006-0.017-0.015-0.023      c0.01-0.054,0.019-0.135,0.028-0.242c0.018-0.01,0.026-0.029,0.026-0.057C5.226,7.111,5.231,7.093,5.239,7.083      c0.044-0.087,0.115-0.146,0.212-0.176c0.006,0,0.032,0,0.078-0.002c0.032,0,0.056,0.002,0.074,0.009      c0.028-0.005,0.058,0.001,0.087,0.021c0.025,0.019,0.051,0.037,0.077,0.057c0.046,0.052,0.072,0.11,0.076,0.175      c0.001,0.021,0,0.045-0.003,0.068c-0.035,0-0.06,0.022-0.075,0.07L5.627,7.317C5.614,7.296,5.604,7.268,5.604,7.234      c0-0.013,0-0.03,0-0.052c0.001-0.022,0.001-0.04,0-0.052c-0.002-0.035-0.01-0.063-0.025-0.084L5.537,7.069      C5.521,7.062,5.512,7.052,5.51,7.041c0-0.006,0.002-0.012,0.002-0.02c0.002-0.008,0.003-0.014,0.003-0.017      C5.514,6.99,5.501,6.981,5.477,6.978C5.461,7.132,5.457,7.29,5.463,7.451c0.003,0.006,0.017,0.01,0.038,0.012      c0.018,0,0.026,0.006,0.027,0.015c0,0.004-0.001,0.008-0.003,0.014l-0.013,0.01C5.519,7.513,5.523,7.53,5.524,7.551      C5.525,7.56,5.525,7.579,5.523,7.599c0,0.022-0.001,0.039,0,0.051c0.002,0.032,0.01,0.057,0.024,0.074      c-0.001,0.022,0.009,0.04,0.03,0.047c0.013-0.004,0.024-0.008,0.035-0.008c0.042-0.003,0.07,0.02,0.086,0.067      c0,0.001,0,0.01,0,0.025c0,0.008,0.005,0.013,0.013,0.017c0.02-0.011,0.027-0.03,0.027-0.059c0-0.031,0.004-0.053,0.013-0.062      C5.748,7.737,5.739,7.715,5.724,7.687C5.709,7.659,5.7,7.636,5.698,7.62c0-0.017,0.005-0.035,0.016-0.048      C5.705,7.567,5.7,7.56,5.7,7.551c0-0.015,0-0.023,0-0.024C5.774,7.509,5.85,7.508,5.927,7.525z"/>
				<path d="M6.544,7.652L6.544,7.652C6.535,7.668,6.532,7.69,6.535,7.719C6.539,7.761,6.541,7.78,6.541,7.783      c-0.006,0.002-0.014,0-0.025-0.01C6.5,7.78,6.492,7.789,6.493,7.803c0,0.003,0,0.005,0.001,0.01      c0,0.006,0.001,0.011,0.001,0.013c0.001,0.01-0.002,0.02-0.009,0.024C6.469,7.841,6.445,7.833,6.416,7.831      c-0.03-0.002-0.058-0.005-0.085-0.007c0-0.137-0.018-0.271-0.055-0.403c0,0.001,0-0.012-0.002-0.041      c0-0.02-0.005-0.033-0.014-0.042L6.246,7.349c0-0.002,0.005-0.006,0.013-0.011c0.009-0.007,0.012-0.013,0.012-0.02      c0-0.002-0.001-0.006-0.003-0.009L6.255,7.3C6.232,7.308,6.221,7.327,6.224,7.356c0.001,0.021-0.007,0.035-0.025,0.043      c0.008,0.004,0.011,0.01,0.011,0.018c0,0.003,0,0.009-0.002,0.017C6.207,7.44,6.206,7.445,6.207,7.45      c0,0.009,0.005,0.016,0.014,0.021c0.001,0.006,0.004,0.06,0.01,0.163C6.233,7.7,6.232,7.754,6.225,7.801l0.001,0.025      c-0.009,0-0.019,0-0.031,0c-0.011,0.001-0.03,0.003-0.054,0.006C6.118,7.835,6.101,7.836,6.09,7.836      C6.043,7.84,6.012,7.832,5.993,7.814l-0.02-0.562C5.964,7.225,5.958,7.186,5.955,7.137L5.949,7.027      c-0.004-0.053-0.011-0.094-0.02-0.122C5.932,6.887,5.95,6.875,5.98,6.874c0.018,0,0.042,0.001,0.075,0.009      C6.07,6.875,6.09,6.871,6.117,6.868c0.007,0,0.019,0,0.034,0c0.018-0.001,0.031-0.002,0.038-0.002      c0.05-0.003,0.082-0.017,0.098-0.045c0.022,0,0.047,0.007,0.073,0.021c0.026,0.014,0.05,0.023,0.07,0.023      c0.053,0.031,0.081,0.083,0.086,0.155c0,0.016-0.005,0.08-0.02,0.192l-0.09,0.08C6.42,7.32,6.438,7.382,6.461,7.477      C6.48,7.558,6.507,7.615,6.544,7.652z M6.376,7.013l0.001,0C6.38,7.021,6.378,6.996,6.376,6.94      c-0.002-0.027-0.013-0.047-0.03-0.06c-0.01,0.016,0,0.023-0.004,0.056C6.337,6.97,6.317,6.962,6.306,6.976      c-0.031,0-0.038,0.019-0.044-0.011C6.246,6.917,6.235,6.92,6.233,6.919L6.22,6.928C6.216,6.931,6.211,6.937,6.204,6.942      C6.199,6.949,6.193,6.951,6.186,6.949c0.001,0.006-0.001,0.016-0.009,0.028C6.171,6.99,6.169,6.999,6.169,7.004      c0,0.009,0.008,0.016,0.021,0.02C6.188,7.044,6.188,7.065,6.188,7.086c0.001,0.013,0.003,0.04,0.009,0.083      c0.005,0.034,0.008,0.064,0.007,0.088c0.012,0,0.022,0,0.034,0C6.28,7.254,6.307,7.236,6.321,7.205      c0.004-0.01,0.009-0.043,0.016-0.101C6.341,7.061,6.355,7.03,6.376,7.013z"/>
				<path d="M7.254,7.87C7.236,7.866,7.217,7.864,7.196,7.864c-0.017,0.002-0.04,0.006-0.07,0.014      C7.091,7.885,7.069,7.89,7.058,7.893C7.043,7.872,7.03,7.844,7.022,7.807C7.008,7.754,6.999,7.724,6.997,7.715      C7,7.711,7.001,7.705,7,7.701c0-0.01-0.013-0.02-0.034-0.027C6.944,7.666,6.933,7.659,6.933,7.655      c0-0.006,0.011-0.017,0.036-0.029C6.962,7.62,6.957,7.607,6.952,7.588c-0.004-0.017-0.011-0.03-0.02-0.035      C6.917,7.565,6.895,7.574,6.859,7.58C6.827,7.585,6.802,7.59,6.793,7.598c0.006,0.078,0,0.215-0.032,0.245      c-0.017-0.001-0.03,0.003-0.039,0.019C6.711,7.879,6.701,7.89,6.693,7.894l0.013,0.009c-0.01,0.008-0.026,0.012-0.049,0.012      C6.622,7.916,6.604,7.917,6.601,7.917L6.588,7.89l0.052-0.904c-0.004-0.05-0.001-0.084,0-0.103      C6.637,6.837,6.647,6.809,6.674,6.796c0.018,0.007,0.04,0.01,0.065,0.009c0.021-0.001,0.056-0.007,0.1-0.018      c0.044-0.01,0.074-0.017,0.092-0.017c0.061-0.004,0.091,0.03,0.089,0.1C7.019,6.927,7.035,7,7.07,7.09      c0.037,0.096,0.058,0.169,0.06,0.218c0,0.015,0.021,0.047,0.021,0.062c-0.025,0.014-0.06,0.023-0.1,0.029      C7.016,7.403,6.978,7.406,6.941,7.411C6.926,7.335,6.889,7.244,6.875,7.169C6.855,7.08,6.835,7.006,6.812,6.949L6.789,7.382      C6.788,7.419,6.81,7.436,6.855,7.434c0.016,0,0.03-0.004,0.043-0.012C6.91,7.419,6.926,7.425,6.948,7.44      c0,0.03,0.01,0.049,0.026,0.054c0.02-0.013,0.046-0.025,0.077-0.038c0.028-0.01,0.056-0.021,0.082-0.03      c0.018,0.017,0.029,0.042,0.037,0.075c0.009,0.048,0.016,0.076,0.018,0.083c0.003,0.02,0.016,0.06,0.038,0.123      c0.017,0.049,0.026,0.089,0.028,0.121C7.255,7.844,7.254,7.857,7.254,7.87z"/>
				<path d="M7.769,6.845h0.003C7.757,6.866,7.737,6.871,7.715,6.857C7.708,6.856,7.687,6.858,7.646,6.862      c-0.034,0.001-0.058,0-0.073-0.005c-0.004,0-0.011,0.004-0.022,0.011c-0.011,0.007-0.018,0.01-0.024,0.012      c-0.007,0-0.011-0.005-0.013-0.02c0-0.001,0-0.01-0.001-0.025c0-0.01-0.006-0.017-0.014-0.021L7.475,6.832      c-0.007,0.005-0.01,0.01-0.01,0.017c0,0.005,0.005,0.013,0.013,0.021C7.485,6.879,7.49,6.887,7.492,6.889      c0,0.004,0.003,0.049,0.007,0.137C7.501,7.081,7.512,7.125,7.53,7.158c0.005-0.005,0.016-0.009,0.034-0.009      c0.019,0,0.031-0.004,0.036-0.012c0.012,0.011,0.032,0.012,0.059,0.002c0.03-0.009,0.047-0.006,0.06,0.009L7.715,7.282      C7.704,7.28,7.689,7.275,7.667,7.265c-0.007,0.02-0.019,0.032-0.038,0.038C7.622,7.305,7.601,7.307,7.565,7.308      C7.566,7.302,7.56,7.296,7.549,7.29C7.515,7.306,7.502,7.344,7.51,7.405c0.002-0.006,0.003,0.004,0.004,0.031      c0.001,0.019-0.002,0.03-0.012,0.037c-0.02,0.004-0.047,0-0.08-0.012c-0.034-0.014-0.056-0.02-0.07-0.02      C7.347,7.442,7.342,7.442,7.336,7.444L7.302,7.456L7.246,6.848L7.239,6.731c0.046-0.015,0.105-0.026,0.173-0.029      c0.053-0.004,0.125-0.003,0.21,0C7.628,6.691,7.638,6.705,7.65,6.705c0.006,0,0.016,0,0.029,0.002      C7.691,6.709,7.701,6.71,7.707,6.709c0.008,0,0.015-0.001,0.021-0.004l0.008-0.009c0.025,0.008,0.039,0.021,0.039,0.039      c0.001,0.009-0.001,0.022-0.007,0.042C7.764,6.796,7.762,6.811,7.762,6.821C7.762,6.831,7.766,6.838,7.769,6.845z M7.549,7.86      c-0.012,0.007-0.033,0.011-0.06,0.013C7.453,7.875,7.432,7.878,7.424,7.878c-0.004-0.004-0.009,0-0.018-0.032      C7.402,7.825,7.388,7.815,7.368,7.817c-0.006,0-0.011,0-0.019,0.002L7.315,7.821L7.298,7.513      c0.018-0.009,0.04-0.015,0.068-0.016c0.026-0.002,0.05,0.001,0.07,0.007C7.435,7.516,7.451,7.521,7.483,7.519L7.52,7.516      C7.541,7.603,7.554,7.76,7.549,7.86z"/>
				<path d="M8.518,6.871L8.52,6.874C8.5,6.871,8.446,6.875,8.402,6.88C8.365,6.885,8.336,6.887,8.318,6.884      C8.3,6.895,8.292,6.913,8.297,6.932L8.31,6.94C8.3,6.949,8.296,6.955,8.3,6.959L8.31,6.97C8.308,7.148,8.307,7.247,8.308,7.266      c0.002,0.047,0.009,0.088,0.017,0.124c-0.007,0.023-0.01,0.049-0.008,0.078c0,0.019,0.004,0.049,0.013,0.091      c0.009,0.041,0.018,0.177,0.02,0.198c0.001,0.015,0.001,0.031-0.002,0.045C8.332,7.808,8.312,7.813,8.292,7.814      C8.259,7.815,8.223,7.809,8.184,7.793C8.18,7.797,8.173,7.802,8.168,7.807c-0.005,0.005-0.008,0.01-0.004,0.017      c-0.013,0.002-0.03-0.002-0.052-0.016c-0.012-0.18-0.044-0.548-0.091-0.92C8.003,6.903,7.972,6.889,7.94,6.895      C7.902,6.898,7.864,6.892,7.85,6.898C7.831,6.879,7.833,6.874,7.833,6.84C7.831,6.809,7.82,6.728,7.828,6.695      C7.831,6.688,7.9,6.692,7.942,6.689c0.055-0.003,0.068,0.01,0.071,0.01c0.004-0.008,0.032-0.004,0.052-0.005      C8.079,6.7,8.092,6.688,8.092,6.698c0.001,0.006,0,0.043-0.003,0.055C8.084,6.763,8.081,6.771,8.083,6.776      c0,0.013,0.009-0.005,0.03,0.001c0.022,0,0.046-0.001,0.068-0.002c0.028,0.002,0.059-0.007,0.055,0.014      C8.24,6.784,8.243,6.795,8.28,6.779C8.31,6.767,8.326,6.733,8.321,6.711C8.318,6.699,8.334,6.69,8.323,6.697      c0.016-0.008,0.001-0.003,0.016-0.009c0.047,0.004,0.072,0,0.082-0.001C8.439,6.686,8.486,6.699,8.5,6.691      c0.009,0.018,0.015,0.073,0.015,0.103C8.517,6.842,8.517,6.868,8.518,6.871z"/>
				<path d="M9.124,7.499L9.124,7.499C9.117,7.512,9.113,7.527,9.113,7.543c0,0.012,0,0.028,0.004,0.047      C9.118,7.613,9.12,7.629,9.121,7.638C9.109,7.64,9.07,7.642,9,7.646C8.958,7.648,8.92,7.654,8.886,7.663L8.85,7.634      C8.839,7.645,8.837,7.65,8.839,7.655c-0.005-0.001-0.035,0-0.086,0.005c-0.041,0.002-0.069,0.001-0.09-0.005      c-0.018,0.02-0.042,0.021-0.071,0.005C8.583,7.655,8.58,7.645,8.587,7.629c0.007-0.015,0.002-0.025-0.01-0.032      c0-0.032,0.002-0.082,0.005-0.149C8.585,7.387,8.587,7.34,8.585,7.306c-0.002-0.047-0.01-0.09-0.023-0.133      c0.013-0.011,0.027-0.018,0.046-0.018C8.628,7.154,8.652,7.16,8.68,7.173c0.04,0.02,0.06,0.028,0.062,0.028l0.012,0.01      C8.755,7.208,8.76,7.192,8.77,7.161C8.775,7.143,8.783,7.13,8.795,7.123l0.013,0.009C8.812,7.13,8.827,7.119,8.854,7.101      c0.021-0.015,0.035-0.063,0.047-0.064c0.013,0,0.027,0.005,0.04,0.016C8.963,7.061,8.98,7.116,8.988,7.134      c0.008,0.018,0.017,0.036,0.023,0.054C8.956,7.193,8.91,7.195,8.872,7.195c-0.007,0.01-0.02,0.013-0.036,0.007      C8.819,7.195,8.808,7.197,8.8,7.207c0.001,0.019,0.003,0.051,0.006,0.098C8.808,7.347,8.809,7.38,8.812,7.404      c0.003,0.038,0.009,0.071,0.017,0.103c0.01-0.002,0.057-0.004,0.142-0.008C9.031,7.495,9.082,7.495,9.124,7.499z M9.066,6.792      C9.054,6.793,9.042,6.794,9.028,6.796c-0.029,0-0.066,0-0.116-0.003C8.854,6.789,8.818,6.789,8.807,6.789      C8.79,6.81,8.788,6.828,8.79,6.866c0.005,0.083,0.007,0.118,0.009,0.106C8.815,6.98,8.825,6.995,8.826,7.018      c0.001,0.03,0.002,0.044,0.004,0.044C8.821,7.066,8.817,7.078,8.818,7.095C8.804,7.091,8.79,7.083,8.774,7.073      C8.753,7.059,8.746,7.109,8.747,7.096l-0.009,0.03L8.726,7.118C8.717,7.119,8.699,7.116,8.673,7.109      C8.649,7.101,8.632,7.093,8.621,7.084c0-0.015,0.002-0.023,0.008-0.027L8.603,7.039L8.592,7.052      C8.57,6.949,8.556,6.767,8.563,6.655c0.048,0.003,0.104-0.004,0.162-0.007c0.037-0.002,0.092-0.004,0.162-0.009      c0.08-0.006,0.137-0.011,0.173-0.012c0.015,0.01,0.023,0.024,0.024,0.043c0,0.011-0.002,0.029-0.007,0.053      C9.073,6.747,9.064,6.779,9.066,6.792z"/>
				<path d="M9.746,7.392L9.746,7.392C9.737,7.408,9.733,7.431,9.737,7.461c0.004,0.041,0.005,0.06,0.005,0.062      c-0.006,0.003-0.014,0-0.024-0.009C9.702,7.52,9.694,7.529,9.694,7.543c0,0.002,0,0.005,0.002,0.011      c0.001,0.005,0.001,0.01,0.001,0.011c0.001,0.012-0.003,0.02-0.01,0.025C9.67,7.581,9.646,7.574,9.616,7.572      C9.587,7.569,9.558,7.565,9.531,7.563c0-0.137-0.017-0.271-0.053-0.402c0,0.001-0.002-0.013-0.004-0.04      c0-0.021-0.004-0.034-0.012-0.042L9.448,7.09c0-0.002,0.004-0.006,0.014-0.012c0.007-0.006,0.012-0.012,0.01-0.018      c0-0.002,0-0.006-0.001-0.009l-0.015-0.01C9.435,7.048,9.423,7.066,9.425,7.097c0,0.021-0.008,0.035-0.024,0.043      c0.006,0.004,0.01,0.01,0.01,0.017c0.001,0.004,0,0.01-0.002,0.017c0,0.008-0.001,0.013-0.001,0.017      C9.408,7.2,9.412,7.207,9.423,7.212c0,0.006,0.002,0.06,0.007,0.163c0.005,0.065,0.003,0.12-0.004,0.166l0.002,0.026      c-0.009-0.001-0.02-0.001-0.031,0.001c-0.012,0-0.03,0.002-0.055,0.005C9.32,7.576,9.302,7.577,9.291,7.579      C9.245,7.58,9.213,7.572,9.194,7.555l-0.02-0.562C9.166,6.965,9.159,6.927,9.157,6.877L9.149,6.768      C9.146,6.716,9.139,6.674,9.131,6.646c0.003-0.019,0.02-0.03,0.05-0.032c0.018-0.001,0.044,0.001,0.077,0.008      c0.013-0.007,0.034-0.011,0.06-0.013c0.008,0,0.02,0,0.036,0C9.37,6.607,9.383,6.607,9.39,6.607      c0.049-0.003,0.081-0.018,0.097-0.045c0.022,0,0.047,0.007,0.073,0.021c0.028,0.015,0.052,0.023,0.072,0.023      c0.053,0.03,0.081,0.083,0.085,0.155c0.001,0.016-0.004,0.08-0.019,0.191l-0.09,0.079c0.014,0.03,0.033,0.091,0.056,0.187      C9.681,7.297,9.709,7.355,9.746,7.392z M9.578,6.753l0.001,0c0.002,0.007,0-0.017-0.001-0.073      C9.575,6.653,9.565,6.634,9.547,6.622C9.538,6.636,9.534,6.602,9.53,6.636C9.524,6.67,9.517,6.695,9.505,6.709      c-0.031,0-0.038-0.02-0.058-0.044C9.437,6.648,9.43,6.663,9.43,6.662L9.423,6.668C9.417,6.673,9.412,6.677,9.406,6.683      C9.4,6.688,9.395,6.69,9.388,6.688c0,0.005-0.002,0.016-0.009,0.029C9.372,6.73,9.37,6.739,9.37,6.745      c0,0.009,0.009,0.016,0.022,0.019C9.39,6.784,9.388,6.806,9.39,6.828c0,0.011,0.003,0.038,0.008,0.082      c0.006,0.034,0.008,0.062,0.007,0.086c0.013,0.001,0.023,0.001,0.034,0c0.043-0.002,0.071-0.019,0.085-0.051      c0.004-0.01,0.008-0.044,0.014-0.101C9.542,6.8,9.556,6.771,9.578,6.753z"/>
			</g>
			<g>
				<path d="M3.543,4.8L3.543,4.8c-0.005,0.053-0.008,0.09-0.005,0.109C3.53,4.913,3.52,4.914,3.506,4.912      C3.489,4.908,3.48,4.908,3.478,4.908c-0.007,0-0.013,0.004-0.017,0.007C3.449,4.908,3.444,4.904,3.44,4.908      C3.429,4.913,3.425,4.921,3.425,4.933c0,0.004,0.002,0.012,0.006,0.022c0.004,0.012,0.005,0.02,0.005,0.025      c0,0.008-0.001,0.02-0.004,0.035C3.428,5.031,3.427,5.042,3.427,5.053c0.001,0.012,0.004,0.031,0.008,0.056      C3.44,5.134,3.442,5.153,3.442,5.165C3.438,5.191,3.435,5.216,3.438,5.241c0.001,0.031,0.01,0.071,0.025,0.124      C3.466,5.368,3.468,5.368,3.47,5.368c0.007-0.001,0.014-0.006,0.023-0.014C3.502,5.345,3.509,5.34,3.516,5.34      c0.004-0.001,0.01,0,0.015,0.001C3.548,5.395,3.556,5.43,3.556,5.446c0.001,0.006,0.001,0.015,0,0.022      C3.532,5.475,3.514,5.466,3.505,5.444c0-0.007-0.002-0.014-0.012-0.021L3.467,5.452c0.026,0.004,0.038,0.025,0.031,0.062      C3.496,5.521,3.491,5.525,3.481,5.525c-0.015,0-0.022,0-0.021,0L3.438,5.485L3.428,5.497C3.42,5.477,3.413,5.469,3.402,5.471      c-0.006,0-0.015,0.004-0.028,0.013C3.359,5.493,3.349,5.497,3.339,5.498c-0.007,0-0.014-0.002-0.022-0.006      C3.316,5.48,3.315,5.471,3.314,5.458C3.312,5.446,3.306,5.439,3.295,5.436c0-0.029,0.001-0.103,0.001-0.223      c0.002-0.091,0-0.166-0.001-0.222C3.293,4.968,3.292,4.944,3.29,4.921c-0.005-0.007-0.011-0.01-0.015-0.009      c-0.003,0-0.008,0.003-0.015,0.011c-0.008,0.009-0.014,0.011-0.02,0.01C3.239,4.926,3.235,4.912,3.228,4.891      C3.22,4.87,3.216,4.855,3.215,4.847c0-0.014,0.005-0.028,0.017-0.041l0.032,0.008c0.013-0.017,0.017-0.049,0.015-0.091      c0-0.008-0.001-0.021-0.002-0.038C3.275,4.667,3.273,4.654,3.273,4.646c-0.002-0.07,0.019-0.107,0.064-0.109      c0.017-0.001,0.039,0.002,0.065,0.01l0.029,0.007c0.002,0.013,0.004,0.024,0.004,0.038c0.001,0.017,0,0.042-0.001,0.076      C3.431,4.701,3.431,4.724,3.431,4.74c0.001,0.024,0.005,0.047,0.013,0.066c0.007,0,0.018-0.005,0.034-0.012      c0.015-0.007,0.026-0.012,0.034-0.012C3.524,4.781,3.535,4.787,3.543,4.8z M3.448,4.898l0-0.033l-0.01-0.009L3.448,4.898z"/>
				<path d="M3.918,4.702L3.918,4.702c-0.002,0.024-0.006,0.049-0.01,0.074c-0.005,0.028-0.012,0.05-0.022,0.066      C3.883,4.841,3.87,4.837,3.851,4.826c-0.014-0.008-0.027-0.01-0.039-0.008C3.805,4.872,3.8,4.944,3.8,5.036      c0,0.117-0.002,0.189-0.003,0.213c-0.014-0.001-0.024,0.003-0.03,0.013c-0.007,0.01-0.014,0.019-0.02,0.031      C3.745,5.298,3.743,5.302,3.744,5.307c0,0.009,0.007,0.014,0.019,0.021c0.013,0.007,0.019,0.014,0.019,0.022      c-0.005,0.02-0.017,0.03-0.034,0.03c-0.008,0-0.022-0.001-0.043-0.008C3.685,5.368,3.67,5.365,3.662,5.368l-0.02-0.391      c0.008-0.01,0.012-0.017,0.011-0.02L3.641,4.947C3.642,4.933,3.643,4.85,3.644,4.703c0-0.099,0.004-0.179,0.012-0.24      c-0.001,0,0.027-0.002,0.083-0.007c0.036-0.001,0.058,0.009,0.069,0.03c0,0.02-0.003,0.054-0.006,0.102      C3.797,4.631,3.794,4.666,3.797,4.689c0.002,0.029,0.007,0.055,0.014,0.078C3.841,4.726,3.876,4.705,3.918,4.702z M4.053,4.785      c0.003,0.037,0.004,0.071,0.006,0.106c0.009,0.151,0.005,0.312-0.006,0.484C4.041,5.387,4.02,5.389,3.992,5.382      C3.965,5.376,3.945,5.379,3.933,5.39C3.918,5.37,3.909,5.334,3.905,5.281C3.903,5.205,3.901,5.166,3.901,5.163      C3.897,4.972,3.915,4.818,3.956,4.699C4.003,4.711,4.035,4.741,4.053,4.785z"/>
				<path d="M4.531,4.982C4.525,4.995,4.523,5.008,4.524,5.021c0.001,0.014,0.001,0.026,0.001,0.04c0,0.012-0.004,0.021-0.008,0.033      C4.509,5.092,4.5,5.09,4.496,5.092c-0.006,0-0.013,0.003-0.021,0.006C4.47,5.104,4.465,5.104,4.461,5.104      C4.456,5.106,4.448,5.104,4.439,5.1L4.375,5.008c0.002,0.026,0.008,0.051,0.019,0.071C4.4,5.09,4.405,5.101,4.41,5.111      C4.373,5.118,4.352,5.119,4.347,5.114L4.337,5.125L4.315,5.097C4.3,5.118,4.294,5.148,4.305,5.188      c0.011,0.044,0.011,0.076,0.002,0.096c0.014,0.02,0.029,0.03,0.05,0.028c0.007,0,0.014-0.002,0.02-0.008      c0.009-0.023,0.018-0.045,0.027-0.067c0.013-0.028,0.028-0.042,0.044-0.042c0.013,0,0.028,0.005,0.044,0.019      c0.021,0.008,0.031,0.017,0.032,0.029c0,0.008-0.004,0.02-0.014,0.035C4.5,5.295,4.496,5.308,4.496,5.317      c0,0.003,0,0.006,0.001,0.009C4.485,5.336,4.474,5.351,4.463,5.37C4.452,5.389,4.438,5.403,4.422,5.411      C4.407,5.424,4.394,5.433,4.38,5.433c-0.009,0-0.023-0.007-0.044-0.024C4.315,5.394,4.297,5.387,4.28,5.388      C4.273,5.372,4.255,5.354,4.228,5.334C4.199,5.315,4.18,5.294,4.174,5.272c0,0,0-0.006-0.001-0.023      C4.172,5.241,4.169,5.235,4.162,5.232l0.01-0.01c-0.013,0-0.021-0.008-0.021-0.023c0-0.002,0-0.006,0-0.012      c0-0.004,0-0.008,0-0.01c0-0.011-0.004-0.018-0.01-0.022L4.137,5.107c0-0.025-0.004-0.043-0.014-0.053      C4.133,4.996,4.141,4.939,4.149,4.88c0.015-0.066,0.036-0.101,0.065-0.102c0.005,0,0.009,0,0.015,0      C4.255,4.753,4.287,4.74,4.323,4.738c0.042-0.002,0.087,0.01,0.136,0.038C4.499,4.838,4.522,4.908,4.531,4.982z M4.343,4.833      L4.335,4.844c-0.006,0.002-0.013-0.003-0.022-0.01l0.001,0.031C4.3,4.88,4.294,4.904,4.297,4.937      C4.3,4.991,4.301,5.018,4.301,5.015h0.041c0.02-0.011,0.03-0.03,0.027-0.054C4.368,4.947,4.365,4.926,4.357,4.896      C4.347,4.868,4.343,4.847,4.343,4.833z"/>
			</g>
			<g>
				<polygon fill-rule="evenodd" clip-rule="evenodd" points="4.852,6.358 4.893,6.381 5.029,6.019 4.983,6.005 4.847,6.366       4.886,6.392 4.852,6.358 4.852,6.358     "/>
				<polygon fill-rule="evenodd" clip-rule="evenodd" points="4.912,6.307 4.895,6.314 4.852,6.358 4.886,6.392 4.93,6.346       4.912,6.354 4.912,6.307 4.912,6.307     "/>
				<polygon fill-rule="evenodd" clip-rule="evenodd" points="5.244,6.305 5.265,6.289 4.912,6.307 4.912,6.354 5.266,6.335       5.29,6.319 5.244,6.305 5.244,6.305 5.244,6.305     "/>
				<polygon fill-rule="evenodd" clip-rule="evenodd" points="5.405,5.972 5.38,5.942 5.244,6.305 5.29,6.319 5.426,5.957       5.402,5.928 5.405,5.972 5.405,5.972 5.405,5.972     "/>
				<polygon fill-rule="evenodd" clip-rule="evenodd" points="5.068,5.984 5.051,5.993 5.405,5.972 5.402,5.928 5.05,5.943       5.032,5.953 5.068,5.984 5.068,5.984 5.068,5.984     "/>
				<polygon fill-rule="evenodd" clip-rule="evenodd" points="5.029,6.019 5.025,6.027 5.068,5.984 5.032,5.953 4.99,5.996       4.983,6.005 5.029,6.019 5.029,6.019 5.029,6.019     "/>
				<polygon fill-rule="evenodd" clip-rule="evenodd" points="5.323,6.348 5.354,6.333 5.279,6.292 5.254,6.333 5.333,6.377       5.366,6.362 5.321,6.346 5.321,6.346 5.323,6.348     "/>
				<polygon fill-rule="evenodd" clip-rule="evenodd" points="5.471,6.014 5.459,5.985 5.321,6.346 5.366,6.362 5.503,6       5.493,5.972 5.471,6.014 5.471,6.014     "/>
				<polygon fill-rule="evenodd" clip-rule="evenodd" points="5.426,5.957 5.391,5.973 5.471,6.014 5.493,5.972 5.415,5.93       5.38,5.942 5.426,5.957 5.426,5.957     "/>
				<polygon points="5.007,6.012 5.006,6.012 5.05,5.968 5.377,5.952 5.38,5.942 5.405,5.95 5.426,5.957 5.424,5.962 5.482,5.993       5.503,6 5.496,6.024 5.656,6.405 5.519,6.767 5.345,6.355 5.345,6.355 5.321,6.364 5.321,6.346 5.323,6.342 5.267,6.312       5.254,6.333 5.247,6.312 4.912,6.329 4.869,6.373     "/>
				<polygon fill-rule="evenodd" clip-rule="evenodd" points="5.498,6.76 5.542,6.758 5.367,6.346 5.321,6.364 5.497,6.777       5.542,6.775 5.497,6.76 5.497,6.76 5.498,6.76     "/>
				<polygon fill-rule="evenodd" clip-rule="evenodd" points="5.636,6.416 5.632,6.398 5.497,6.76 5.542,6.775 5.679,6.413       5.679,6.396 5.636,6.416 5.636,6.416     "/>
				<polygon fill-rule="evenodd" clip-rule="evenodd" points="5.503,6 5.459,6.003 5.636,6.416 5.679,6.396 5.503,5.984       5.459,5.985 5.503,6 5.503,6     "/>
				<polygon fill-rule="evenodd" clip-rule="evenodd" fill="#FFFFFF" points="5.493,6.094 5.512,6.136 5.519,6.181 5.518,6.224       5.504,6.268 5.483,6.312 5.454,6.35 5.415,6.385 5.367,6.416 5.342,6.427 5.317,6.438 5.29,6.442 5.263,6.449 5.237,6.453       5.21,6.455 5.184,6.452 5.158,6.45 5.135,6.445 5.111,6.437 5.088,6.427 5.067,6.415 5.05,6.402 5.029,6.389 5.015,6.371       5.001,6.352 4.981,6.309 4.973,6.266 4.973,6.221 4.99,6.178 5.007,6.136 5.039,6.094 5.078,6.059 5.125,6.029 5.149,6.018       5.177,6.007 5.202,6.003 5.23,5.997 5.257,5.993 5.281,5.99 5.307,5.993 5.334,5.995 5.358,6.003 5.382,6.012 5.404,6.018       5.426,6.03 5.444,6.041 5.464,6.057 5.477,6.076 5.493,6.094 5.493,6.094 5.493,6.094     "/>
				<polygon fill-rule="evenodd" clip-rule="evenodd" points="5.508,6.165 5.529,6.208 5.536,6.253 5.535,6.298 5.521,6.339       5.503,6.384 5.471,6.423 5.436,6.458 5.385,6.487 5.359,6.501 5.334,6.511 5.307,6.516 5.279,6.522 5.254,6.525 5.23,6.527       5.202,6.525 5.176,6.522 5.153,6.516 5.128,6.508 5.107,6.499 5.085,6.487 5.067,6.475 5.05,6.459 5.033,6.445 5.019,6.423       4.999,6.381 4.99,6.338 4.994,6.294 5.006,6.251 5.025,6.207 5.056,6.168 5.094,6.132 5.142,6.104 5.169,6.09 5.193,6.083       5.22,6.073 5.248,6.068 5.273,6.067 5.298,6.063 5.324,6.067 5.35,6.068 5.375,6.074 5.398,6.083 5.42,6.092 5.443,6.101       5.461,6.115 5.481,6.128 5.494,6.147 5.508,6.167 5.508,6.167 5.508,6.165     "/>
				<polygon fill-rule="evenodd" clip-rule="evenodd" fill="#FFFFFF" points="5.521,6.214 5.542,6.256 5.549,6.303 5.546,6.345       5.535,6.388 5.512,6.431 5.483,6.471 5.447,6.506 5.398,6.535 5.374,6.549 5.347,6.559 5.321,6.565 5.293,6.569 5.267,6.574       5.242,6.576 5.216,6.574 5.188,6.569 5.166,6.564 5.142,6.556 5.121,6.547 5.098,6.535 5.081,6.523 5.062,6.508 5.047,6.491       5.032,6.471 5.012,6.431 5.004,6.387 5.006,6.344 5.019,6.299 5.039,6.256 5.068,6.214 5.109,6.182 5.156,6.15 5.182,6.137       5.207,6.127 5.234,6.121 5.261,6.115 5.288,6.112 5.312,6.111 5.34,6.113 5.364,6.115 5.389,6.122 5.412,6.13 5.436,6.14       5.457,6.151 5.475,6.164 5.494,6.176 5.506,6.195 5.521,6.214 5.521,6.214     "/>
				<polygon fill-rule="evenodd" clip-rule="evenodd" points="5.54,6.286 5.56,6.329 5.567,6.373 5.567,6.417 5.553,6.459       5.533,6.502 5.5,6.543 5.464,6.579 5.415,6.609 5.391,6.621 5.364,6.63 5.338,6.636 5.312,6.642 5.284,6.646 5.259,6.648       5.234,6.646 5.207,6.644 5.182,6.637 5.158,6.629 5.137,6.621 5.115,6.607 5.098,6.594 5.081,6.582 5.064,6.564 5.047,6.545       5.032,6.502 5.021,6.459 5.024,6.415 5.036,6.371 5.057,6.329 5.088,6.289 5.127,6.252 5.174,6.222 5.199,6.211 5.224,6.2       5.253,6.195 5.279,6.188 5.303,6.186 5.331,6.186 5.356,6.186 5.382,6.188 5.406,6.193 5.429,6.202 5.454,6.211 5.473,6.224       5.494,6.238 5.51,6.25 5.527,6.268 5.539,6.289 5.539,6.289 5.54,6.286     "/>
				<polygon fill-rule="evenodd" clip-rule="evenodd" fill="#FFFFFF" points="5.565,6.333 5.585,6.375 5.592,6.417 5.592,6.463       5.581,6.506 5.558,6.55 5.525,6.59 5.49,6.624 5.443,6.655 5.417,6.667 5.389,6.677 5.364,6.683 5.338,6.689 5.31,6.692       5.285,6.694 5.259,6.692 5.234,6.688 5.209,6.683 5.184,6.675 5.163,6.665 5.142,6.656 5.123,6.642 5.106,6.627 5.09,6.609       5.078,6.59 5.057,6.55 5.047,6.502 5.05,6.459 5.064,6.417 5.085,6.375 5.114,6.333 5.153,6.3 5.199,6.27 5.225,6.256       5.25,6.246 5.277,6.243 5.305,6.234 5.33,6.23 5.356,6.23 5.383,6.232 5.407,6.234 5.432,6.241 5.458,6.25 5.479,6.26       5.5,6.268 5.519,6.282 5.536,6.298 5.553,6.314 5.565,6.333 5.565,6.333     "/>
				<polygon fill-rule="evenodd" clip-rule="evenodd" points="5.584,6.406 5.603,6.448 5.611,6.492 5.61,6.535 5.597,6.579       5.576,6.621 5.545,6.662 5.506,6.698 5.46,6.728 5.436,6.739 5.407,6.75 5.382,6.754 5.354,6.761 5.33,6.765 5.302,6.767       5.275,6.763 5.25,6.763 5.228,6.757 5.202,6.747 5.18,6.739 5.16,6.728 5.14,6.713 5.123,6.7 5.107,6.683 5.093,6.664       5.074,6.621 5.064,6.577 5.067,6.533 5.081,6.49 5.1,6.448 5.131,6.407 5.169,6.372 5.218,6.341 5.241,6.33 5.268,6.32       5.295,6.314 5.321,6.307 5.349,6.305 5.374,6.303 5.4,6.305 5.424,6.306 5.45,6.312 5.475,6.321 5.497,6.331 5.516,6.341       5.536,6.355 5.553,6.369 5.569,6.387 5.584,6.406 5.584,6.406 5.584,6.406     "/>
				<polygon fill-rule="evenodd" clip-rule="evenodd" points="3.18,5.851 3.182,5.837 3.042,6.2 3.087,6.214 3.225,5.851       3.226,5.842 3.18,5.851 3.18,5.851 3.18,5.851     "/>
				<polygon fill-rule="evenodd" clip-rule="evenodd" points="3.176,5.832 3.176,5.83 3.18,5.851 3.226,5.842 3.222,5.821       3.222,5.819 3.176,5.832 3.176,5.832 3.176,5.832     "/>
				<polygon fill-rule="evenodd" clip-rule="evenodd" points="3.171,5.812 3.176,5.832 3.222,5.819 3.217,5.798 3.171,5.812       3.171,5.812 3.171,5.812     "/>
				<polygon fill-rule="evenodd" clip-rule="evenodd" points="3.165,5.792 3.171,5.812 3.217,5.798 3.211,5.779 3.165,5.792       3.165,5.792     "/>
				<polygon fill-rule="evenodd" clip-rule="evenodd" points="3.16,5.771 3.16,5.771 3.165,5.792 3.211,5.779 3.206,5.757       3.205,5.76 3.16,5.771 3.16,5.771 3.16,5.771     "/>
				<polygon fill-rule="evenodd" clip-rule="evenodd" points="3.154,5.746 3.154,5.753 3.16,5.771 3.205,5.76 3.2,5.741 3.202,5.75       3.154,5.746 3.154,5.746     "/>
				<polygon fill-rule="evenodd" clip-rule="evenodd" points="3.201,5.737 3.155,5.729 3.154,5.746 3.202,5.75 3.202,5.731       3.157,5.725 3.2,5.739 3.2,5.739 3.201,5.737     "/>
				<polygon fill-rule="evenodd" clip-rule="evenodd" fill="#4C4849" points="3.24,6.795 3.237,6.772 3.187,6.779 3.191,6.806       3.24,6.795 3.24,6.795 3.24,6.795     "/>
				<polygon fill-rule="evenodd" clip-rule="evenodd" points="3.341,6.492 3.343,6.48 3.206,6.841 3.249,6.856 3.388,6.495       3.385,6.483 3.341,6.492 3.341,6.492 3.341,6.492     "/>
				<polygon fill-rule="evenodd" clip-rule="evenodd" points="3.338,6.466 3.341,6.492 3.385,6.483 3.383,6.457 3.336,6.466       3.336,6.466 3.338,6.466     "/>
				<polygon fill-rule="evenodd" clip-rule="evenodd" points="3.332,6.442 3.336,6.466 3.383,6.457 3.376,6.434 3.332,6.442       3.332,6.442 3.332,6.442     "/>
				<polygon fill-rule="evenodd" clip-rule="evenodd" points="3.326,6.416 3.328,6.417 3.332,6.442 3.376,6.434 3.372,6.407       3.375,6.41 3.326,6.416 3.326,6.416 3.326,6.416     "/>
				<polygon fill-rule="evenodd" clip-rule="evenodd" points="3.37,6.394 3.323,6.389 3.326,6.416 3.375,6.41 3.371,6.385       3.323,6.38 3.37,6.394 3.37,6.394     "/>
				<g>
					<polygon fill="#4C4849" points="3.044,6.128 3.022,6.134 3.044,6.128      "/>
					<polygon fill="#4C4849" points="3.066,6.204 3.067,6.203 3.079,6.203 3.087,6.214 3.066,6.208      "/>
					<polygon points="3.017,6.115 3.041,6.109 3.042,6.093 3.18,5.73 3.178,5.731 3.178,5.746 3.182,5.765 3.189,5.787 3.195,5.806        3.2,5.827 3.204,5.844 3.204,5.844 3.225,5.851 3.087,6.214 3.079,6.203 3.067,6.203 3.066,6.204 3.066,6.208 3.087,6.214        3.067,6.213 3.067,6.23 3.054,6.213 3.042,6.213 3.039,6.192 3.048,6.19 3.057,6.167 3.033,6.173 3.028,6.156 3.022,6.134        3.044,6.128 3.044,6.128 3.022,6.134 3.023,6.132      "/>
				</g>
				<g>
					<polygon fill="none" points="4.144,6.213 4.144,6.213 4.163,6.169      "/>
					<polygon points="3.066,6.185 4.08,6.15 4.105,6.151 4.11,6.153 4.134,6.16 4.137,6.16 4.163,6.169 4.188,6.179 4.189,6.181        4.213,6.195 4.219,6.197 4.236,6.213 4.244,6.217 4.257,6.234 4.258,6.238 4.269,6.252 4.269,6.257 4.224,6.271 4.216,6.26        4.216,6.263 4.205,6.247 4.205,6.247 4.189,6.234 4.193,6.238 4.169,6.224 4.169,6.224 4.144,6.213 4.144,6.213 4.12,6.207        4.095,6.2 4.099,6.203 4.077,6.199 4.077,6.196 3.067,6.23      "/>
					<polygon points="4.224,6.271 4.224,6.271 4.228,6.274      "/>
				</g>
				<polygon fill-rule="evenodd" clip-rule="evenodd" points="4.765,7.121 4.765,7.107 4.626,7.47 4.671,7.485 4.809,7.122       4.809,7.108 4.765,7.121 4.765,7.121 4.765,7.121     "/>
				<polygon fill-rule="evenodd" clip-rule="evenodd" points="4.365,5.914 4.361,5.908 4.765,7.121 4.809,7.108 4.407,5.894       4.407,5.889 4.365,5.914 4.365,5.914 4.365,5.914     "/>
				<polygon fill-rule="evenodd" clip-rule="evenodd" points="4.357,5.901 4.354,5.899 4.365,5.914 4.407,5.889 4.397,5.873       4.395,5.873 4.354,5.901 4.354,5.901 4.357,5.901     "/>
				<polygon fill-rule="evenodd" clip-rule="evenodd" points="4.347,5.886 4.343,5.882 4.354,5.901 4.395,5.873 4.379,5.854       4.375,5.849 4.347,5.886 4.347,5.886 4.347,5.886     "/>
				<polygon fill-rule="evenodd" clip-rule="evenodd" points="4.331,5.876 4.327,5.872 4.347,5.886 4.375,5.849 4.357,5.837       4.353,5.832 4.331,5.876 4.331,5.876     "/>
				<polygon fill-rule="evenodd" clip-rule="evenodd" points="4.309,5.861 4.307,5.861 4.331,5.876 4.353,5.832 4.327,5.82       4.325,5.819 4.309,5.861 4.309,5.861     "/>
				<polygon fill-rule="evenodd" clip-rule="evenodd" points="4.286,5.851 4.28,5.852 4.309,5.861 4.325,5.819 4.3,5.809       4.297,5.808 4.283,5.852 4.283,5.852 4.286,5.851     "/>
				<polygon fill-rule="evenodd" clip-rule="evenodd" points="4.259,5.843 4.255,5.844 4.283,5.852 4.297,5.808 4.271,5.799       4.271,5.799 4.258,5.845 4.258,5.845 4.259,5.843     "/>
				<polygon fill-rule="evenodd" clip-rule="evenodd" points="4.24,5.838 4.234,5.837 4.258,5.845 4.271,5.799 4.245,5.791       4.243,5.791 4.24,5.838 4.24,5.838 4.24,5.838     "/>
				<polygon fill-rule="evenodd" clip-rule="evenodd" points="4.215,5.835 4.215,5.837 4.24,5.838 4.243,5.791 4.216,5.788       4.213,5.789 4.215,5.835 4.215,5.835     "/>
				<polygon fill-rule="evenodd" clip-rule="evenodd" points="3.228,5.852 3.204,5.868 4.215,5.835 4.213,5.789 3.204,5.823       3.182,5.837 3.225,5.851 3.225,5.851 3.228,5.852     "/>
				<polygon fill="#4C4849" points="3.482,6.957 3.479,6.957 3.48,6.955     "/>
				<g>
					<polygon fill="#4C4849" points="4.029,7.121 4.024,7.171 4.029,7.121      "/>
					<g>
						<polygon fill="none" points="4.027,7.145 4.024,7.171 4.027,7.145       "/>
						<g>
							<polygon fill="none" points="3.206,6.751 3.208,6.747 3.209,6.752        "/>
							<path d="M3.191,6.806l0.004,0.022l0.009,0.025l0.011,0.018l0.062,0.032l0.062,0.033l0.059,0.032l0.061,0.03L3.46,7         l0.062,0.027l0.06,0.028l0.067,0.027l0.066,0.025h0.002L3.79,7.126l0.071,0.019l0.002,0.001l0.079,0.012l0.08,0.012         l0.002,0.001l0.089,0.004l0.003-0.001l0.093,0.003L4.31,7.173l0.107-0.005l0.021-0.015l0.137-0.361L4.552,6.76l0,0.046         L4.547,6.797l0.005-0.013l-0.017,0L4.53,6.776l-0.003,0.01L4.448,6.789H4.346l-0.094,0L4.167,6.784L4.083,6.772l-0.08-0.013         L3.933,6.74L3.862,6.721L3.794,6.696L3.729,6.671l-0.06-0.027l-0.06-0.03L3.545,6.585L3.487,6.552L3.427,6.52L3.385,6.499         l0.002-0.004L3.365,6.487l0,0L3.359,6.461L3.355,6.438L3.353,6.431L3.37,6.394L3.347,6.387H3.345l0,0L3.323,6.38L3.186,6.74         L3.185,6.752l0.003,0.025L3.191,6.806z M3.208,6.747l0.001,0.005L3.206,6.751L3.208,6.747z"/>
						</g>
					</g>
				</g>
				<polygon fill-rule="evenodd" clip-rule="evenodd" points="4.448,6.812 4.553,6.806 4.552,6.76 4.446,6.765 4.448,6.812       4.448,6.812 4.448,6.812     "/>
				<polygon fill-rule="evenodd" clip-rule="evenodd" points="4.347,6.816 4.448,6.812 4.446,6.765 4.346,6.768 4.347,6.816       4.347,6.816 4.347,6.816     "/>
				<polygon fill-rule="evenodd" clip-rule="evenodd" points="4.251,6.812 4.254,6.812 4.347,6.816 4.346,6.768 4.252,6.767       4.255,6.765 4.25,6.814 4.25,6.814 4.251,6.812     "/>
				<polygon fill-rule="evenodd" clip-rule="evenodd" points="4.162,6.806 4.163,6.806 4.25,6.814 4.255,6.765 4.167,6.76       4.169,6.76 4.162,6.806 4.162,6.806 4.162,6.806     "/>
				<polygon fill-rule="evenodd" clip-rule="evenodd" points="4.08,6.796 4.162,6.806 4.169,6.76 4.088,6.747 4.08,6.796       4.08,6.796     "/>
				<polygon fill-rule="evenodd" clip-rule="evenodd" points="4,6.781 4.001,6.782 4.08,6.796 4.088,6.747 4.007,6.735 4.01,6.737       4,6.781 4,6.781 4,6.781     "/>
				<polygon fill-rule="evenodd" clip-rule="evenodd" points="3.929,6.763 4,6.781 4.01,6.737 3.938,6.718 3.927,6.765 3.927,6.765       3.929,6.763     "/>
				<polygon fill-rule="evenodd" clip-rule="evenodd" points="3.854,6.745 3.856,6.746 3.927,6.765 3.938,6.718 3.867,6.698       3.87,6.699 3.854,6.745 3.854,6.745     "/>
				<polygon fill-rule="evenodd" clip-rule="evenodd" points="3.787,6.72 3.787,6.72 3.854,6.745 3.87,6.699 3.802,6.674       3.805,6.675 3.786,6.719 3.786,6.719 3.787,6.72     "/>
				<polygon fill-rule="evenodd" clip-rule="evenodd" points="3.721,6.693 3.786,6.719 3.805,6.675 3.741,6.648 3.721,6.693       3.721,6.693     "/>
				<polygon fill-rule="evenodd" clip-rule="evenodd" points="3.66,6.665 3.721,6.693 3.741,6.648 3.679,6.623 3.66,6.665       3.66,6.665     "/>
				<polygon fill-rule="evenodd" clip-rule="evenodd" points="3.596,6.635 3.599,6.638 3.66,6.665 3.679,6.623 3.616,6.593       3.619,6.593 3.596,6.637 3.596,6.637 3.596,6.635     "/>
				<polygon fill-rule="evenodd" clip-rule="evenodd" points="3.538,6.606 3.596,6.637 3.619,6.593 3.559,6.564 3.535,6.607       3.535,6.607 3.538,6.606     "/>
				<polygon fill-rule="evenodd" clip-rule="evenodd" points="3.478,6.572 3.535,6.607 3.559,6.564 3.499,6.532 3.475,6.572       3.475,6.572 3.478,6.572     "/>
				<polygon fill-rule="evenodd" clip-rule="evenodd" points="3.415,6.541 3.475,6.572 3.499,6.532 3.438,6.5 3.415,6.541       3.415,6.541     "/>
				<polygon fill-rule="evenodd" clip-rule="evenodd" points="3.388,6.495 3.353,6.508 3.415,6.541 3.438,6.5 3.376,6.467       3.343,6.48 3.388,6.495 3.388,6.495 3.388,6.495     "/>
				<polygon fill-rule="evenodd" clip-rule="evenodd" points="9.692,5.84 9.556,6.203 10.006,6.354 10.111,6.112 10.113,6.089       10.115,6.065 10.111,6.039 10.102,6.015 10.087,5.993 10.076,5.97 10.057,5.946 10.038,5.925 10.017,5.907 9.994,5.887       9.971,5.87 9.949,5.858 9.928,5.843 9.901,5.831 9.88,5.819 9.858,5.812 9.837,5.806 9.813,5.802 9.792,5.801 9.772,5.803       9.752,5.807 9.729,5.813 9.712,5.827 9.692,5.84 9.692,5.84 9.692,5.84     "/>
				<polygon fill-rule="evenodd" clip-rule="evenodd" points="9.985,6.342 10.014,6.33 9.562,6.178 9.547,6.225 9.999,6.376       10.029,6.364 9.985,6.342 9.985,6.342     "/>
				<g>
					<polygon fill="none" points="10.073,6.447 10.076,6.471 10.073,6.447      "/>
					<polygon fill="none" points="10.305,6.204 10.323,6.22 10.305,6.207      "/>
					<g>
						<polygon fill="none" points="10.323,6.22 10.305,6.207 10.305,6.204       "/>
						<g>
							<polygon fill="none" points="10.323,6.22 10.305,6.207 10.305,6.204        "/>
							<polygon points="3.017,6.092 3.019,6.085 3.157,5.725 3.2,5.739 3.066,6.095 3.065,6.11 3.063,6.105 3.017,6.115          3.017,6.108        "/>
							<g>
								<polygon fill="none" points="10.323,6.22 10.305,6.207 10.305,6.204         "/>
								<polygon fill="#4C4849" points="5.232,6.949 5.224,6.953 5.222,6.952         "/>
								<g>
									<polygon fill="none" points="5.24,6.969 5.257,6.985 5.24,6.969          "/>
									<polygon fill="none" points="10.323,6.22 10.305,6.207 10.305,6.204          "/>
									<polygon fill="none" points="4.648,7.478 4.649,7.478 4.649,7.478 4.626,7.47 4.646,7.47          "/>
									<path d="M3.033,6.173l0.006,0.021V6.192l0.037-0.008L3.066,6.208l1.012-0.033l0.024,0.001l0.026,0.009l0.026,0.008           l0.026,0.01l0.024,0.015l0.02,0.013l0.014,0.017l0.008,0.017L4.224,6.271l0.403,1.214h0.022v0.016h0.038L4.72,7.499           l0.031,0.002l0.028-0.006l0.03-0.008l0.028-0.014l0.027-0.022L4.896,7.42l0.001-0.002l0.018-0.025l0.022-0.028l0.024-0.026           L4.978,7.31L5,7.275l0.021-0.029l0.018-0.032L5.063,7.18l0.018-0.027l0.028-0.031L5.13,7.093l0.025-0.025l0.023-0.024           l0.024-0.021l0.024-0.019l0.026-0.017l0.005-0.002L5.24,6.969l0,0l0.017,0.017l0.028-0.03L5.31,6.932L5.331,6.91           l0.023-0.019l0.023-0.017L5.4,6.862l0.022-0.013l0.022-0.012l0.027-0.006L5.497,6.82l0.026-0.006L5.554,6.81l0.034-0.006           l0.037-0.002l0.04-0.003l0.039-0.002l0.003,0.001l4.369-0.328l0.026-0.003l0.022-0.004l0.022-0.004l0.021-0.007           l0.021-0.011l0.021-0.012l0.018-0.017l0.021-0.017l0.004-0.005l0.076-0.179l-0.04-0.026l0.018,0.017l-0.003,0.003           l-0.019-0.014l-0.02,0.045l-0.013,0.008L10.234,6.25L10.215,6.26l-0.019,0.003l-0.023,0.003L10.15,6.271L5.778,6.597           L5.751,6.6H5.724L5.696,6.601L5.668,6.606h-0.03L5.614,6.609L5.585,6.612L5.562,6.616L5.532,6.621L5.506,6.625L5.481,6.63           l-0.03,0.007L5.426,6.644l-0.029,0.01L5.37,6.665L5.344,6.677L5.293,6.708L5.239,6.756L5.184,6.813L5.131,6.877           l-0.05,0.068l-0.045,0.06l-0.044,0.06L4.955,7.108L4.934,7.113L4.916,7.117L4.894,7.119H4.872H4.851l-0.02-0.001           L4.808,7.116L4.786,7.114l-0.4-1.211l-0.01-0.017L4.362,5.87L4.341,5.856L4.315,5.84L4.29,5.828L4.265,5.82L4.24,5.813           H4.215L3.204,5.844l-0.121,0.32L3.082,6.16L3.033,6.173z M10.305,6.207l0-0.002l0.018,0.016L10.305,6.207z"/>
								</g>
							</g>
						</g>
					</g>
				</g>
				<polygon fill-rule="evenodd" clip-rule="evenodd" points="10.151,6.295 10.178,6.291 10.201,6.286 10.223,6.281 10.243,6.273       10.264,6.263 10.285,6.25 10.301,6.238 10.323,6.22 10.288,6.186 10.272,6.203 10.257,6.214 10.241,6.224 10.223,6.229       10.208,6.234 10.188,6.241 10.169,6.243 10.146,6.246 10.151,6.295 10.151,6.295     "/>
				<polygon fill-rule="evenodd" clip-rule="evenodd" points="5.782,6.621 10.151,6.295 10.146,6.246 5.777,6.571 5.782,6.621       5.782,6.621     "/>
				<polygon fill-rule="evenodd" clip-rule="evenodd" points="5.354,6.698 5.38,6.686 5.405,6.677 5.436,6.669 5.459,6.66       5.485,6.651 5.51,6.648 5.536,6.644 5.565,6.639 5.589,6.635 5.614,6.634 5.643,6.631 5.67,6.628 5.698,6.625 5.724,6.624       5.752,6.622 5.782,6.621 5.777,6.571 5.749,6.574 5.722,6.578 5.692,6.578 5.665,6.58 5.638,6.581 5.611,6.588 5.584,6.588       5.554,6.59 5.528,6.597 5.503,6.602 5.475,6.607 5.444,6.614 5.42,6.623 5.389,6.632 5.36,6.641 5.334,6.654 5.354,6.698       5.354,6.698 5.354,6.698     "/>
				<polygon fill-rule="evenodd" clip-rule="evenodd" points="4.964,7.13 4.973,7.123 4.992,7.101 5.008,7.077 5.029,7.051       5.052,7.021 5.078,6.991 5.1,6.959 5.125,6.927 5.15,6.895 5.177,6.858 5.204,6.829 5.23,6.802 5.256,6.772 5.279,6.747       5.307,6.728 5.331,6.709 5.354,6.698 5.334,6.654 5.305,6.67 5.279,6.689 5.249,6.713 5.221,6.74 5.195,6.768 5.169,6.796       5.14,6.832 5.114,6.864 5.089,6.897 5.064,6.931 5.041,6.962 5.015,6.992 4.994,7.021 4.973,7.048 4.955,7.072 4.939,7.09       4.947,7.084 4.964,7.13 4.964,7.13 4.964,7.13     "/>
				<polygon fill="none" points="9.684,5.861 9.692,5.84 9.709,5.823 9.737,5.81 9.767,5.807 9.784,5.808 9.803,5.809 9.82,5.812       9.84,5.816 9.861,5.823 9.88,5.83 9.901,5.839 9.924,5.851 9.941,5.86 9.963,5.873 9.98,5.887 9.999,5.903 10.019,5.917       10.032,5.933 10.05,5.949 10.063,5.965 10.089,5.998 10.102,6.031 10.108,6.048 10.111,6.059 10.109,6.087 10.104,6.11       10.089,6.129 10.065,6.14 10.034,6.146 10.016,6.149 9.998,6.146 9.977,6.143 9.955,6.137 9.935,6.131 9.913,6.125 9.889,6.113       9.87,6.101 9.849,6.092 9.824,6.08 9.807,6.067 9.788,6.051 9.77,6.036 9.751,6.019 9.735,6.001 9.721,5.984 9.699,5.95       9.686,5.917 9.682,5.907 9.678,5.889     "/>
				<polygon fill-rule="evenodd" clip-rule="evenodd" fill="#FFFFFF" points="4.126,5.815 4.215,5.813 4.224,5.813 3.448,5.555       3.409,5.579 4.124,5.817 4.124,5.817 4.126,5.815     "/>
				<polygon fill-rule="evenodd" clip-rule="evenodd" fill="#FFFFFF" points="4.126,5.815 3.204,5.844 3.2,5.827 3.195,5.806       3.189,5.787 3.182,5.765 3.178,5.746 3.178,5.731 3.184,5.714 3.2,5.703 3.239,5.675 3.279,5.652 3.323,5.627 3.365,5.603       3.404,5.578 3.409,5.579 4.124,5.817 4.124,5.817 4.126,5.815     "/>
				<polygon fill="#FFFFFF" points="3.565,6.375 4.193,6.339 4.438,6.438 4.525,6.695 4.552,6.784 4.448,6.789 4.346,6.789       4.251,6.789 4.167,6.784 4.083,6.772 4.004,6.759 3.933,6.74 3.862,6.721 3.794,6.696 3.729,6.671 3.669,6.644 3.609,6.614       3.545,6.585 3.487,6.552 3.427,6.52 3.365,6.487 3.359,6.461 3.355,6.438 3.349,6.412 3.345,6.387     "/>
				<polygon fill-rule="evenodd" clip-rule="evenodd" fill="#FFFFFF" points="5.146,6.446 5.156,6.457 5.237,6.506 5.263,6.463       5.181,6.415 5.189,6.427 5.146,6.446 5.149,6.453 5.156,6.457 5.146,6.446 5.146,6.446     "/>
				<polygon fill-rule="evenodd" clip-rule="evenodd" fill="#FFFFFF" points="4.429,6.462 4.415,6.445 4.53,6.792 4.575,6.777       4.461,6.431 4.448,6.417 4.461,6.431 4.457,6.42 4.448,6.417 4.429,6.462 4.429,6.462 4.429,6.462     "/>
				<polygon fill-rule="evenodd" clip-rule="evenodd" fill="#FFFFFF" points="4.197,6.362 4.184,6.359 4.429,6.462 4.448,6.417       4.204,6.316 4.194,6.314 4.204,6.316 4.199,6.314 4.194,6.314 4.197,6.362 4.197,6.362 4.197,6.362     "/>
				<polygon fill-rule="evenodd" clip-rule="evenodd" fill="#FFFFFF" points="3.371,6.385 3.347,6.411 4.197,6.362 4.194,6.314       3.345,6.364 3.323,6.389 3.345,6.364 3.319,6.364 3.323,6.389 3.371,6.385 3.371,6.385     "/>
				<polygon fill-rule="evenodd" clip-rule="evenodd" fill="#FFFFFF" points="3.376,6.467 3.385,6.483 3.385,6.47 3.383,6.457       3.381,6.445 3.378,6.434 3.377,6.422 3.375,6.408 3.371,6.397 3.371,6.385 3.323,6.389 3.323,6.403 3.325,6.417 3.329,6.429       3.331,6.441 3.332,6.453 3.336,6.466 3.341,6.48 3.341,6.492 3.353,6.508 3.341,6.492 3.345,6.502 3.353,6.508 3.376,6.467       3.376,6.467     "/>
				<polygon fill-rule="evenodd" clip-rule="evenodd" fill="#FFFFFF" points="4.53,6.789 4.551,6.759 4.446,6.765 4.346,6.768       4.255,6.765 4.167,6.76 4.088,6.747 4.01,6.737 3.938,6.718 3.87,6.699 3.802,6.674 3.741,6.648 3.679,6.623 3.619,6.593       3.559,6.564 3.499,6.532 3.438,6.5 3.376,6.467 3.353,6.508 3.415,6.541 3.475,6.572 3.535,6.607 3.596,6.637 3.66,6.665       3.721,6.693 3.787,6.72 3.854,6.745 3.927,6.765 4,6.781 4.08,6.796 4.163,6.806 4.25,6.814 4.347,6.816 4.448,6.812       4.555,6.806 4.575,6.777 4.555,6.806 4.586,6.806 4.575,6.777 4.53,6.792 4.53,6.792 4.53,6.789     "/>
				<g>
					<polygon fill="none" points="4.971,7.097 4.987,7.114 4.971,7.097      "/>
					<polygon fill="none" points="4.808,7.09 4.804,7.09 4.804,7.09      "/>
					<polygon fill="none" points="4.414,5.914 5.05,6.125 4.414,5.914      "/>
				</g>
				<polygon fill-rule="evenodd" clip-rule="evenodd" fill="#FFFFFF" points="5.777,6.571 5.745,6.573 5.709,6.578 5.678,6.579       5.643,6.583 5.609,6.588 5.574,6.593 5.537,6.599 5.503,6.607 5.468,6.614 5.439,6.624 5.407,6.635 5.375,6.646 5.349,6.66       5.318,6.674 5.293,6.691 5.27,6.71 5.298,6.747 5.321,6.73 5.343,6.716 5.367,6.702 5.394,6.691 5.422,6.677 5.45,6.669       5.484,6.662 5.514,6.651 5.547,6.648 5.576,6.641 5.611,6.638 5.646,6.633 5.681,6.627 5.716,6.624 5.749,6.621 5.782,6.621       5.777,6.571 5.777,6.571 5.777,6.571     "/>
				<polygon fill-rule="evenodd" clip-rule="evenodd" fill="#FFFFFF" points="10.146,6.246 5.777,6.571 5.782,6.621 10.151,6.295       10.146,6.246 10.146,6.246     "/>
				<polygon fill-rule="evenodd" clip-rule="evenodd" fill="#FFFFFF" points="10.227,5.979 10.246,6.005 10.266,6.028 10.274,6.054       10.288,6.076 10.295,6.098 10.297,6.121 10.297,6.14 10.296,6.16 10.292,6.174 10.284,6.188 10.274,6.204 10.258,6.217       10.241,6.227 10.212,6.235 10.184,6.243 10.146,6.246 10.151,6.295 10.191,6.292 10.227,6.281 10.257,6.27 10.284,6.256       10.31,6.238 10.326,6.214 10.335,6.195 10.344,6.168 10.344,6.142 10.344,6.115 10.338,6.089 10.331,6.059 10.318,6.033       10.305,6.005 10.285,5.974 10.267,5.951 10.227,5.979 10.227,5.979     "/>
				<polygon fill-rule="evenodd" clip-rule="evenodd" fill="#FFFFFF" points="9.707,5.731 9.746,5.73 9.787,5.732 9.827,5.742       9.866,5.747 9.904,5.76 9.941,5.771 9.977,5.789 10.01,5.805 10.045,5.823 10.076,5.844 10.111,5.865 10.136,5.885       10.162,5.908 10.188,5.934 10.208,5.958 10.227,5.979 10.267,5.951 10.243,5.924 10.218,5.899 10.193,5.873 10.167,5.849       10.133,5.827 10.103,5.805 10.071,5.784 10.034,5.762 9.996,5.745 9.957,5.73 9.918,5.716 9.876,5.703 9.836,5.693 9.794,5.687       9.748,5.683 9.706,5.683 9.707,5.731 9.707,5.731     "/>
				<polygon fill-rule="evenodd" clip-rule="evenodd" fill="#FFFFFF" points="5.841,5.864 9.707,5.731 9.706,5.683 5.841,5.818       5.841,5.864 5.841,5.864     "/>
				<polygon fill-rule="evenodd" clip-rule="evenodd" fill="#FFFFFF" points="5.231,5.767 5.267,5.781 5.305,5.789 5.343,5.802       5.382,5.809 5.422,5.819 5.459,5.828 5.501,5.835 5.539,5.84 5.576,5.849 5.618,5.851 5.656,5.858 5.695,5.858 5.731,5.864       5.771,5.862 5.808,5.865 5.841,5.864 5.841,5.818 5.805,5.818 5.77,5.816 5.735,5.813 5.698,5.811 5.661,5.809 5.623,5.806       5.585,5.801 5.545,5.795 5.507,5.787 5.471,5.781 5.433,5.771 5.393,5.766 5.356,5.756 5.316,5.745 5.281,5.735 5.244,5.723       5.23,5.769 5.23,5.769 5.231,5.767     "/>
				<polygon fill-rule="evenodd" clip-rule="evenodd" fill="#FFFFFF" points="3.927,5.409 3.992,5.4 4.055,5.394 4.114,5.389       4.169,5.385 4.22,5.383 4.268,5.389 4.315,5.39 4.357,5.394 4.397,5.401 4.436,5.409 4.472,5.416 4.505,5.427 4.54,5.439       4.567,5.451 4.601,5.464 4.628,5.477 4.659,5.494 4.69,5.508 4.721,5.526 4.752,5.543 4.782,5.562 4.815,5.582 4.847,5.597       4.879,5.618 4.917,5.636 4.955,5.658 4.994,5.674 5.033,5.693 5.079,5.713 5.127,5.73 5.178,5.751 5.23,5.769 5.244,5.723       5.193,5.706 5.142,5.686 5.098,5.668 5.054,5.652 5.012,5.631 4.976,5.614 4.939,5.593 4.904,5.575 4.869,5.557 4.836,5.539       4.806,5.521 4.774,5.5 4.742,5.482 4.712,5.466 4.681,5.452 4.652,5.436 4.622,5.42 4.587,5.407 4.554,5.394 4.52,5.381       4.483,5.369 4.444,5.361 4.405,5.354 4.362,5.346 4.318,5.34 4.271,5.34 4.219,5.339 4.168,5.339 4.108,5.341 4.049,5.346       3.986,5.354 3.921,5.361 3.924,5.408 3.924,5.408 3.927,5.409     "/>
				<polygon fill-rule="evenodd" clip-rule="evenodd" fill="#FFFFFF" points="3.213,5.725 3.25,5.697 3.292,5.674 3.334,5.647       3.378,5.621 3.417,5.599 3.461,5.574 3.502,5.55 3.545,5.532 3.591,5.511 3.637,5.489 3.683,5.472 3.729,5.454 3.78,5.442       3.826,5.428 3.876,5.416 3.924,5.408 3.921,5.361 3.866,5.372 3.814,5.381 3.764,5.395 3.714,5.409 3.668,5.428 3.617,5.446       3.573,5.465 3.526,5.486 3.48,5.511 3.435,5.533 3.395,5.557 3.353,5.58 3.31,5.606 3.267,5.631 3.228,5.656 3.187,5.681       3.211,5.723 3.211,5.723 3.213,5.725     "/>
				<polygon fill-rule="evenodd" clip-rule="evenodd" fill="#FFFFFF" points="3.204,5.823 3.229,5.843 3.222,5.821 3.217,5.798       3.211,5.779 3.206,5.757 3.204,5.745 3.201,5.737 3.204,5.726 3.211,5.723 3.187,5.681 3.167,5.701 3.155,5.727 3.152,5.75       3.16,5.771 3.165,5.792 3.171,5.812 3.176,5.83 3.18,5.849 3.204,5.868 3.18,5.849 3.181,5.868 3.204,5.868 3.204,5.823       3.204,5.823     "/>
				<g>
					<polygon fill="none" points="4.99,5.996 4.99,5.997 4.982,6.02      "/>
					<polygon fill="#FFFFFF" points="4.99,5.994 4.99,5.997 4.99,5.996      "/>
					<polygon fill="#FFFFFF" points="4.979,6.005 4.99,5.996 4.982,6.02      "/>
					<g>
						<polygon fill="none" points="9.692,5.84 9.709,5.823 9.737,5.81 9.767,5.807 9.784,5.808 9.803,5.809 9.82,5.812 9.84,5.816         9.861,5.823 9.88,5.83 9.901,5.839 9.924,5.851 9.941,5.86 9.963,5.873 9.98,5.887 9.999,5.903 10.019,5.917 10.032,5.933         10.05,5.949 10.063,5.965 10.089,5.998 10.102,6.031 10.108,6.048 10.111,6.059 10.109,6.087 10.104,6.11 10.089,6.129         10.065,6.14 10.034,6.146 10.016,6.149 9.998,6.146 9.977,6.143 9.955,6.137 9.935,6.131 9.913,6.125 9.889,6.113 9.87,6.101         9.849,6.092 9.824,6.08 9.807,6.067 9.788,6.051 9.77,6.036 9.751,6.019 9.735,6.001 9.721,5.984 9.699,5.95 9.686,5.917         9.682,5.907 9.678,5.889 9.684,5.861       "/>
						<polygon fill="none" points="5.481,5.993 5.481,5.993 5.459,6.003       "/>
						<polygon fill="none" points="5.639,6.39 5.653,6.402 5.656,6.405 5.614,6.457 5.248,6.483 5.169,6.437 5.169,6.437         5.189,6.427 5.033,6.018 5.06,5.992 5.391,5.973 5.463,6.01 5.636,6.416       "/>
						<polygon fill="none" points="4.393,5.87 4.393,5.87 5.003,6.074       "/>
						<g>
							<polygon fill="none" points="9.692,5.84 9.709,5.823 9.737,5.81 9.767,5.807 9.784,5.808 9.803,5.809 9.82,5.812 9.84,5.816          9.861,5.823 9.88,5.83 9.901,5.839 9.924,5.851 9.941,5.86 9.963,5.873 9.98,5.887 9.999,5.903 10.019,5.917 10.032,5.933          10.05,5.949 10.063,5.965 10.089,5.998 10.102,6.031 10.108,6.048 10.111,6.059 10.109,6.087 10.104,6.11 10.089,6.129          10.065,6.14 10.034,6.146 10.016,6.149 9.998,6.146 9.977,6.143 9.955,6.137 9.935,6.131 9.913,6.125 9.889,6.113          9.87,6.101 9.849,6.092 9.824,6.08 9.807,6.067 9.788,6.051 9.77,6.036 9.751,6.019 9.735,6.001 9.721,5.984 9.699,5.95          9.686,5.917 9.682,5.907 9.678,5.889 9.684,5.861        "/>
							<polygon fill="none" points="5.391,5.973 5.463,6.01 5.636,6.416 5.639,6.39 5.653,6.402 5.656,6.405 5.614,6.457          5.248,6.483 5.169,6.437 5.169,6.437 5.189,6.427 5.033,6.018 5.06,5.992        "/>
							<polygon fill="none" points="4.393,5.87 4.393,5.87 5.003,6.074        "/>
							<g>
								<polygon fill="none" points="9.692,5.84 9.709,5.823 9.737,5.81 9.767,5.807 9.784,5.808 9.803,5.809 9.82,5.812           9.84,5.816 9.861,5.823 9.88,5.83 9.901,5.839 9.924,5.851 9.941,5.86 9.963,5.873 9.98,5.887 9.999,5.903 10.019,5.917           10.032,5.933 10.05,5.949 10.063,5.965 10.089,5.998 10.102,6.031 10.108,6.048 10.111,6.059 10.109,6.087 10.104,6.11           10.089,6.129 10.065,6.14 10.034,6.146 10.016,6.149 9.998,6.146 9.977,6.143 9.955,6.137 9.935,6.131 9.913,6.125           9.889,6.113 9.87,6.101 9.849,6.092 9.824,6.08 9.807,6.067 9.788,6.051 9.77,6.036 9.751,6.019 9.735,6.001 9.721,5.984           9.699,5.95 9.686,5.917 9.682,5.907 9.678,5.889 9.684,5.861         "/>
								<polygon fill="none" points="5.391,5.973 5.463,6.01 5.636,6.416 5.639,6.39 5.653,6.402 5.656,6.405 5.614,6.456           5.611,6.435 5.246,6.459 5.263,6.463 5.25,6.483 5.248,6.483 5.169,6.437 5.169,6.437 5.189,6.427 5.033,6.018 5.06,5.992                   "/>
								<polygon fill="none" points="4.393,5.87 4.393,5.87 5.003,6.074         "/>
								<g>
									<polygon fill="none" points="5.648,6.325 6.339,6.556 5.648,6.325          "/>
									<polygon fill="none" points="5.629,6.282 6.427,6.549 5.629,6.282          "/>
									<polygon fill="none" points="9.692,5.84 9.709,5.823 9.737,5.81 9.767,5.807 9.784,5.808 9.803,5.809 9.82,5.812            9.84,5.816 9.861,5.823 9.88,5.83 9.901,5.839 9.924,5.851 9.941,5.86 9.963,5.873 9.98,5.887 9.999,5.903 10.019,5.917            10.032,5.933 10.05,5.949 10.063,5.965 10.089,5.998 10.102,6.031 10.108,6.048 10.111,6.059 10.109,6.087 10.104,6.11            10.089,6.129 10.065,6.14 10.034,6.146 10.016,6.149 9.998,6.146 9.977,6.143 9.955,6.137 9.935,6.131 9.913,6.125            9.889,6.113 9.87,6.101 9.849,6.092 9.824,6.08 9.807,6.067 9.788,6.051 9.77,6.036 9.751,6.019 9.735,6.001 9.721,5.984            9.699,5.95 9.686,5.917 9.682,5.907 9.678,5.889 9.684,5.861          "/>
									<polygon fill="none" points="5.391,5.973 5.463,6.01 5.636,6.416 5.639,6.39 5.653,6.402 5.656,6.405 5.614,6.456            5.614,6.457 5.25,6.483 5.248,6.483 5.169,6.437 5.169,6.437 5.189,6.427 5.033,6.018 5.06,5.992          "/>
									<polygon fill="none" points="4.393,5.87 4.393,5.87 5.003,6.074          "/>
									<polygon fill="#FFFFFF" points="5.629,6.282 6.427,6.549 6.341,6.553 6.339,6.556 5.648,6.325          "/>
									<g>
										<polygon fill="none" points="9.692,5.84 9.709,5.823 9.737,5.81 9.767,5.807 9.784,5.808 9.803,5.809 9.82,5.812             9.84,5.816 9.861,5.823 9.88,5.83 9.901,5.839 9.924,5.851 9.941,5.86 9.963,5.873 9.98,5.887 9.999,5.903 10.019,5.917             10.032,5.933 10.05,5.949 10.063,5.965 10.089,5.998 10.102,6.031 10.108,6.048 10.111,6.059 10.109,6.087 10.104,6.11             10.089,6.129 10.065,6.14 10.034,6.146 10.016,6.149 9.998,6.146 9.977,6.143 9.955,6.137 9.935,6.131 9.913,6.125             9.889,6.113 9.87,6.101 9.849,6.092 9.824,6.08 9.807,6.067 9.788,6.051 9.77,6.036 9.751,6.019 9.735,6.001 9.721,5.984             9.699,5.95 9.686,5.917 9.682,5.907 9.678,5.889 9.684,5.861           "/>
										<polygon fill="none" points="5.391,5.973 5.463,6.01 5.629,6.402 5.604,6.435 5.246,6.459 5.263,6.463 5.25,6.483             5.248,6.483 5.169,6.437 5.169,6.437 5.189,6.427 5.033,6.018 5.06,5.992           "/>
										<polygon fill="none" points="5.639,6.39 5.653,6.402 5.653,6.402           "/>
										<polygon fill="none" points="4.393,5.87 4.393,5.87 5.003,6.074           "/>
										<path fill="#FFFFFF" d="M3.204,5.868l1.011-0.033l0.021,0.002l0.019,0.007l0.027,0.008l0.024,0.009l0.022,0.013            l0.016,0.01l0.009,0.016l0.007,0.007l0.404,1.213L4.77,7.14h0.02l0.02-0.003L4.833,7.14l0.028,0.002h0.027h0.026            l0.024-0.006l0.027-0.008l0.022-0.014l0.026-0.029l0.022-0.027l0.02-0.026l0.02-0.025l0.017-0.022L5.11,6.962L5.125,6.94            l0.017-0.022l0.015-0.021l0.017-0.021l0.016-0.022l0.019-0.018l0.02-0.019l0.021-0.023l0.023-0.021l0.026-0.025            L5.284,6.728L5.305,6.71l0.026-0.015l0.028-0.012l0.026-0.014l0.03-0.012l0.03-0.009l0.034-0.011L5.51,6.628l0.031-0.004            l0.033-0.006L5.61,6.613l0.033-0.006l0.035-0.003l0.035-0.002l0.032-0.004l0.032,0l0.562-0.042L5.648,6.325L5.629,6.282            l0,0l0.797,0.267l3.723-0.278l0.069-0.011l0.052-0.024l0.035-0.033l0.014-0.041V6.119V6.117l-0.013-0.049l-0.024-0.05            l-0.036-0.055L10.227,5.94l-0.023-0.025L10.178,5.89l-0.027-0.022l-0.029-0.023l-0.031-0.021l-0.035-0.021l-0.034-0.021            L9.985,5.768L9.95,5.751L9.911,5.737L9.87,5.725L9.831,5.718L9.79,5.71L9.748,5.705l-0.042,0L9.144,5.727L5.841,5.84            H5.805H5.771H5.732L5.696,5.834L5.657,5.831L5.618,5.828L5.583,5.823L5.543,5.818l-0.04-0.006L5.464,5.804L5.426,5.796            L5.389,5.789l-0.04-0.012l-0.038-0.01l-0.037-0.01L5.237,5.746L5.186,5.727l-0.052-0.02L5.089,5.691L5.043,5.674            L5.004,5.653L4.967,5.635L4.928,5.614L4.891,5.597l-0.034-0.02L4.826,5.56L4.793,5.541l-0.03-0.017L4.73,5.505L4.7,5.487            L4.671,5.473L4.64,5.457L4.61,5.44L4.577,5.427l-0.03-0.01L4.511,5.405L4.475,5.394l-0.036-0.01L4.4,5.377L4.358,5.372            L4.315,5.368L4.27,5.363L4.219,5.361l-0.05,0.002L4.113,5.364l-0.06,0.007L3.991,5.376l-0.07,0.009L3.87,5.394            L3.821,5.405l-0.05,0.012L3.723,5.433L3.676,5.451L3.627,5.469L3.583,5.487L3.538,5.508L3.492,5.53L3.448,5.555            l0.706,0.236l-0.95,0.032V5.868z M9.678,5.889l0.005-0.027L9.692,5.84l0.017-0.017L9.737,5.81l0.03-0.003l0.017,0.001            l0.019,0.001L9.82,5.812l0.02,0.004l0.021,0.007L9.88,5.83l0.021,0.009l0.023,0.012L9.941,5.86l0.022,0.013L9.98,5.887            l0.019,0.016l0.02,0.014l0.013,0.016l0.018,0.016l0.013,0.017l0.026,0.033l0.013,0.033l0.006,0.017l0.003,0.011            l-0.001,0.028L10.104,6.11l-0.015,0.019L10.065,6.14l-0.031,0.006l-0.018,0.003L9.998,6.146L9.977,6.143L9.955,6.137            l-0.02-0.006L9.913,6.125L9.889,6.113L9.87,6.101L9.849,6.092L9.824,6.08L9.807,6.067L9.788,6.051L9.77,6.036L9.751,6.019            L9.735,6.001L9.721,5.984L9.699,5.95L9.686,5.917l-0.003-0.01L9.678,5.889z M5.653,6.402L5.653,6.402L5.639,6.39            L5.653,6.402z M5.033,6.018L5.06,5.992l0.332-0.019L5.463,6.01l0.167,0.392L5.604,6.435L5.246,6.459l0.018,0.004            L5.25,6.483H5.248L5.169,6.437l0,0l0.021-0.01L5.033,6.018z"/>
									</g>
								</g>
							</g>
						</g>
					</g>
				</g>
				<polygon fill-rule="evenodd" clip-rule="evenodd" points="9.454,6.14 9.435,6.129 9.43,6.11 9.459,6.104 9.465,6.122       9.447,6.109 9.454,6.14 9.454,6.14     "/>
				<polygon fill-rule="evenodd" clip-rule="evenodd" points="9.494,6.117 9.489,6.122 9.481,6.13 9.472,6.134 9.465,6.139       9.454,6.14 9.447,6.109 9.452,6.11 9.459,6.106 9.467,6.104 9.467,6.101 9.465,6.106 9.492,6.119 9.492,6.119 9.494,6.117           "/>
				<polygon fill-rule="evenodd" clip-rule="evenodd" points="9.411,5.935 9.414,5.935 9.428,5.952 9.445,5.97 9.463,5.991       9.48,6.012 9.493,6.036 9.5,6.064 9.5,6.093 9.492,6.119 9.465,6.106 9.471,6.087 9.47,6.071 9.465,6.05 9.452,6.031       9.438,6.009 9.421,5.991 9.404,5.973 9.39,5.956 9.391,5.957 9.411,5.935 9.411,5.935     "/>
				<polygon fill-rule="evenodd" clip-rule="evenodd" points="9.144,5.858 9.141,5.856 9.18,5.858 9.216,5.858 9.251,5.864       9.283,5.867 9.317,5.876 9.348,5.891 9.381,5.91 9.411,5.935 9.391,5.957 9.362,5.938 9.333,5.921 9.307,5.907 9.278,5.9       9.245,5.894 9.213,5.89 9.179,5.889 9.145,5.89 9.146,5.887 9.141,5.859 9.141,5.859 9.144,5.858     "/>
				<polygon fill-rule="evenodd" clip-rule="evenodd" points="6.305,6.006 6.317,5.998 9.141,5.859 9.146,5.887 6.321,6.029       6.334,6.02 6.305,6.006 6.305,6.006     "/>
				<polygon fill-rule="evenodd" clip-rule="evenodd" points="6.238,6.105 6.208,6.094 6.209,6.074 6.216,6.057 6.225,6.036       6.235,6.024 6.25,6.015 6.271,6.007 6.292,6 6.317,5.998 6.321,6.029 6.298,6.033 6.277,6.039 6.267,6.039 6.256,6.048       6.251,6.057 6.245,6.066 6.239,6.078 6.239,6.098 6.209,6.088 6.238,6.105 6.238,6.105     "/>
				<g>
					<polygon fill="none" points="6.317,5.998 6.321,6.029 6.317,5.998      "/>
					<g>
						<polygon fill="none" points="6.239,6.098 6.245,6.08 6.251,6.061 6.259,6.047 6.275,6.036 6.294,6.033 6.319,6.03         6.321,6.029 9.146,5.887 9.194,5.891 9.231,5.89 9.269,5.894 9.304,5.901 9.334,5.917 9.362,5.933 9.39,5.956 9.419,5.991         9.445,6.021 9.465,6.052 9.474,6.074 9.474,6.089 9.467,6.101 9.448,6.112 9.414,6.121 9.367,6.125 6.465,6.274 6.463,6.274         6.423,6.273 6.381,6.263 6.346,6.246 6.316,6.228 6.291,6.203 6.271,6.176 6.256,6.152 6.245,6.131 6.242,6.115       "/>
						<g>
							<path fill="none" d="M6.245,6.08L6.239,6.098l0.002,0.017l0.003,0.016l0.012,0.021l0.015,0.024l0.019,0.026l0.025,0.025         l0.03,0.018l0.036,0.017l0.042,0.01l0.04,0.001h0.002l2.902-0.149l0.047-0.005l0.034-0.008l0.02-0.011l0.007-0.012V6.074         L9.465,6.052l-0.02-0.03l-0.026-0.03L9.39,5.956L9.362,5.933L9.334,5.917l-0.03-0.016L9.269,5.894L9.231,5.89L9.194,5.891         L9.146,5.887L6.321,6.029L6.319,6.03L6.294,6.033L6.275,6.036L6.259,6.047L6.251,6.061L6.245,6.08z M6.284,6.062l2.824-0.141         l0.001-0.004L9.148,5.92h0.035l0.035,0.006l0.033,0.003l0.034,0.009l0.03,0.015l0.031,0.019l0.033,0.026L9.39,6.01         l0.012,0.011l0.01,0.013l0.009,0.009l0.012,0.015l0.01,0.015L9.45,6.085l0.009,0.013v0.005L9.43,6.11v0.005L9.423,6.101         L9.415,6.089L9.404,6.078L9.397,6.066L9.388,6.055L9.377,6.042l-0.01-0.012L9.353,6.02l0.002-0.001L9.329,6L9.302,5.98         L9.274,5.968l-0.03-0.007L9.213,5.955L9.18,5.952L9.145,5.949L9.109,5.95L6.286,6.09L6.284,6.062z"/>
							<g>
								<path fill="none" d="M6.245,6.08L6.239,6.098l0.002,0.017l0.003,0.016l0.012,0.021l0.015,0.024l0.019,0.026l0.025,0.025          l0.03,0.018l0.036,0.017l0.042,0.01l0.04,0.001h0.002l2.902-0.149l0.047-0.005l0.034-0.008l0.02-0.011l0.007-0.012V6.074          L9.465,6.052l-0.02-0.03l-0.026-0.03L9.39,5.956L9.362,5.933L9.334,5.917l-0.03-0.016L9.269,5.894L9.231,5.89L9.194,5.891          L9.146,5.887L6.321,6.029L6.319,6.03L6.294,6.033L6.275,6.036L6.259,6.047L6.251,6.061L6.245,6.08z"/>
								<g>
									<polygon fill="none" points="6.251,6.061 6.259,6.047 6.275,6.036 6.294,6.033 6.31,6.031 6.286,6.075 9.11,5.933            9.148,5.933 9.181,5.935 9.215,5.941 9.248,5.945 9.278,5.953 9.309,5.966 9.339,5.985 9.368,6.007 9.377,6.02            9.388,6.031 9.399,6.043 9.41,6.055 9.417,6.068 9.428,6.08 9.437,6.093 9.445,6.108 9.446,6.112 9.414,6.121 9.367,6.125            6.465,6.274 6.463,6.274 6.423,6.273 6.381,6.263 6.346,6.246 6.316,6.228 6.291,6.203 6.271,6.176 6.256,6.152            6.245,6.131 6.242,6.115 6.239,6.098 6.245,6.08          "/>
									<polygon points="9.437,6.093 9.428,6.08 9.417,6.068 9.41,6.055 9.399,6.043 9.388,6.031 9.377,6.02 9.368,6.007            9.339,5.985 9.309,5.966 9.278,5.953 9.248,5.945 9.215,5.941 9.181,5.935 9.148,5.933 9.11,5.933 6.286,6.075 6.31,6.031            6.319,6.03 6.321,6.029 9.146,5.887 9.194,5.891 9.231,5.89 9.269,5.894 9.304,5.901 9.334,5.917 9.362,5.933 9.39,5.956            9.419,5.991 9.445,6.021 9.465,6.052 9.474,6.074 9.474,6.089 9.467,6.101 9.448,6.112 9.446,6.112 9.445,6.108                     "/>
									<g>
										<polygon fill="none" points="6.246,6.078 6.246,6.076 6.263,6.076 6.286,6.075 6.311,6.031 6.319,6.03 6.321,6.029             9.146,5.887 9.194,5.891 9.231,5.89 9.269,5.894 9.304,5.901 9.334,5.917 9.362,5.933 9.39,5.956 9.419,5.991             9.445,6.021 9.465,6.052 9.474,6.074 9.474,6.089 9.467,6.101 9.448,6.112 9.446,6.112 9.414,6.121 9.367,6.125             6.465,6.274 6.463,6.274 6.423,6.273 6.381,6.263 6.346,6.246 6.316,6.228 6.291,6.203 6.271,6.176 6.256,6.152             6.245,6.131 6.242,6.115 6.239,6.098 6.245,6.08           "/>
										<path d="M6.208,6.094l0.002,0.028l0.007,0.02l0.008,0.027l0.018,0.031l0.024,0.024L6.295,6.25l0.036,0.024l0.041,0.018            l0.043,0.011l0.05,0.001l2.901-0.147l0.056-0.006L9.46,6.143l0.029-0.021l0.015-0.026V6.069L9.493,6.036l-0.021-0.03            L9.443,5.97L9.414,5.935L9.381,5.907l-0.034-0.02L9.314,5.87L9.278,5.864L9.234,5.856H9.19L9.141,5.859L6.317,5.998l0,0            L6.289,6L6.256,6.012L6.238,6.029l-0.016,0.02L6.213,6.071L6.208,6.094z M6.239,6.098L6.245,6.08l0.001-0.002V6.076h0.017            l0.023-0.001l0.024-0.044l0.008,0l0.002-0.001l2.824-0.142l0.048,0.004L9.231,5.89l0.038,0.004l0.035,0.007l0.03,0.016            l0.027,0.016L9.39,5.956l0.029,0.035l0.026,0.03l0.02,0.03l0.009,0.022v0.015L9.467,6.101l-0.02,0.011H9.446L9.414,6.121            L9.367,6.125L6.465,6.274H6.463l-0.04-0.001l-0.042-0.01L6.346,6.246l-0.03-0.018L6.291,6.203L6.271,6.176L6.256,6.152            L6.245,6.131L6.242,6.115L6.239,6.098z"/>
									</g>
								</g>
							</g>
						</g>
					</g>
				</g>
			</g>
		</g>
	</g>
</g>
</g></svg>