<svg id="Layer_1" data-name="Layer 1" xmlns="http://www.w3.org/2000/svg" version="1.1" viewBox="0 0 2475 1275" width="2475" height="1275">
  <defs>
    <style>
      .cls-1 {
        fill: red;
      }

      .cls-1, .cls-2, .cls-3, .cls-4, .cls-5, .cls-6 {
        font-family: Arial-BoldMT, Arial;
        font-weight: 700;
      }

      .cls-1, .cls-2, .cls-4, .cls-5, .cls-6 {
        font-size: 6px;
      }

      .cls-7 {
        stroke: #ec1c24;
      }

      .cls-7, .cls-8, .cls-9, .cls-10, .cls-11, .cls-12, .cls-13, .cls-14 {
        fill: none;
      }

      .cls-7, .cls-8, .cls-10, .cls-13, .cls-14 {
        stroke-miterlimit: 10;
      }

      .cls-8 {
        stroke-dasharray: 0 0 4.9 4.9;
      }

      .cls-8, .cls-13, .cls-14 {
        stroke: #26aae1;
      }

      .cls-15 {
        fill: #4c4849;
      }

      .cls-15, .cls-16, .cls-17, .cls-18, .cls-19, .cls-20, .cls-21, .cls-22, .cls-23, .cls-24, .cls-25 {
        stroke-width: 0px;
      }

      .cls-26 {
        fill: #ec1c24;
        font-size: 9.5px;
      }

      .cls-26, .cls-27, .cls-28 {
        font-family: Arial-Black, 'Arial Black';
        font-weight: 800;
      }

      .cls-9 {
        stroke: #2ba3dc;
        stroke-dasharray: 0 5;
      }

      .cls-2 {
        fill: #6f6f6f;
      }

      .cls-16 {
        fill: #e7242c;
      }

      .cls-27, .cls-3, .cls-25 {
        fill: #231f20;
      }

      .cls-27, .cls-20 {
        isolation: isolate;
      }

      .cls-27, .cls-28 {
        font-size: 7px;
      }

      .cls-17 {
        fill: #10ab4b;
      }

      .cls-18 {
        fill: #e6e5e5;
      }

      .cls-10 {
        stroke: #b9529f;
      }

      .cls-19, .cls-24 {
        fill: #000;
      }

      .cls-29 {
        font-size: 7.8px;
      }

      .cls-11 {
        stroke: #9b9b9b;
      }

      .cls-20 {
        opacity: .2;
      }

      .cls-20, .cls-5 {
        fill: #b9529f;
      }

      .cls-12 {
        stroke: red;
      }

      .cls-4 {
        fill: #2ca1da;
      }

      .cls-21 {
        fill: #b6d233;
      }

      .cls-21, .cls-22, .cls-24 {
        fill-rule: evenodd;
      }

      .cls-30 {
        opacity: .5;
      }

      .cls-22, .cls-23 {
        fill: #fff;
      }

      .cls-28 {
        fill: #221f1f;
      }

      .cls-6 {
        fill: #ed2224;
      }

      .cls-31 {
        font-size: 5.5px;
        letter-spacing: 0em;
      }

      .cls-14 {
        stroke-dasharray: 0 0 5 5;
      }
    </style>
  </defs>
  <g id="Interior_Bleed" data-name="Interior Bleed">
    <g class="cls-30">
      <path class="cls-25" d="M594,0v306s-594,0-594,0V0s594,0,594,0ZM9,9.3v279c0,5,4,9,9,9h558c5,0,9-4,9-9V18.3c0-5-4-9-9-9H9Z"></path>
    </g>
    <path class="cls-20" d="M585,18v270c0,5-4,9-9,9H18c-5,0-9-4-9-9V9s567,0,567,0c5,0,9,4,9,9ZM44.8,45v216s504,0,504,0V45s-504,0-504,0Z"></path>
    <g id="Safe_Zone" data-name="Safe Zone">
      <g>
        <polyline class="cls-13" points="548.8 258.5 548.8 261 546.3 261"></polyline>
        <line class="cls-14" x1="541.2" y1="261" x2="49.8" y2="261"></line>
        <polyline class="cls-13" points="47.3 261 44.8 261 44.8 258.5"></polyline>
        <line class="cls-8" x1="44.8" y1="253.6" x2="44.8" y2="49.9"></line>
        <polyline class="cls-13" points="44.8 47.5 44.8 45 47.3 45"></polyline>
        <line class="cls-14" x1="52.3" y1="45" x2="543.8" y2="45"></line>
        <polyline class="cls-13" points="546.3 45 548.8 45 548.8 47.5"></polyline>
        <line class="cls-8" x1="548.8" y1="52.4" x2="548.8" y2="256"></line>
      </g>
    </g>
    <g id="Trim_Line" data-name="Trim Line">
      <path class="cls-7" d="M576,9c5,0,9,4,9,9v270c0,4.9-4,9-9,9H18c-4.9,0-9-4-9-9V9.3c0-.2.1-.3.3-.3h566.7Z"></path>
    </g>
  </g>
  <g id="Interior_Info" data-name="Interior Info">
    <g>
      <line class="cls-12" x1="375.8" y1="87.4" x2="585" y2="87.4"></line>
      <path class="cls-16" d="M380.9,79.5c0,.4-.2.8-.5,1.1h0c0,0-3,3.3-3,3.3-.6.7-1.2,1.2-1.6,1.6-.5.4-.8.5-1,.5s-.4,0-.7-.3c-.3-.2-.5-.4-.6-.6,0-.2-.1-.5-.2-1,0-.5,0-1.1,0-1.7s.1-.7.4-.9c.3-.3.6-.4.9-.4s.5.3.6.9c0,0,0,.1,0,.2,0,.5.1.8.2,1,0,.2.2.3.3.3s.1,0,.3-.2c.1-.1.3-.3.5-.4l3.1-3.1c.3-.3.5-.5.7-.6.2-.1.4-.2.5-.2s.2,0,.2.1c0,0,0,.2,0,.4v.2Z"></path>
      
    </g>
    <g>
      <line class="cls-11" x1="375.8" y1="62.6" x2="590.4" y2="62.6"></line>
      <path class="cls-16" d="M380.9,54.7c0,.4-.2.8-.5,1.1h0c0,0-3,3.3-3,3.3-.6.7-1.2,1.2-1.6,1.6-.5.4-.8.5-1,.5s-.4,0-.7-.3c-.3-.2-.5-.4-.6-.6,0-.2-.1-.5-.2-1,0-.5,0-1.1,0-1.7s.1-.7.4-.9c.3-.3.6-.4.9-.4s.5.3.6.9c0,0,0,.1,0,.2,0,.5.1.8.2,1,0,.2.2.3.3.3s.1,0,.3-.2c.1-.1.3-.3.5-.4l3.1-3.1c.3-.3.5-.5.7-.6.2-.1.4-.2.5-.2s.2,0,.2.1c0,0,0,.2,0,.4v.2Z"></path>
      
    </g>
    <g>
      <g>
        <line class="cls-9" x1="549.3" y1="111.3" x2="547.2" y2="111.3"></line>
        <line class="cls-9" x1="543.1" y1="111.3" x2="380" y2="111.3"></line>
        <line class="cls-9" x1="377.9" y1="111.3" x2="375.8" y2="111.3"></line>
      </g>
      
      <path class="cls-16" d="M380.9,104.3c0,.4-.2.8-.5,1.1h0c0,0-3,3.3-3,3.3-.6.7-1.2,1.2-1.6,1.6-.5.4-.8.5-1,.5s-.4,0-.7-.3c-.3-.2-.5-.4-.6-.6,0-.2-.1-.5-.2-1,0-.5,0-1.1,0-1.7s.1-.7.4-.9c.3-.3.6-.4.9-.4s.5.3.6.9c0,0,0,.1,0,.2,0,.5.1.8.2,1,0,.2.2.3.3.3s.1,0,.3-.2c.1-.1.3-.3.5-.4l3.1-3.1c.3-.3.5-.5.7-.6.2-.1.4-.2.5-.2s.2,0,.2.1c0,0,0,.2,0,.4v.2Z"></path>
    </g>
    <g>
      <g>
        
        
      </g>
      <path class="cls-16" d="M380.9,157.2c0,.4-.2.8-.5,1.1h0c0,0-3,3.3-3,3.3-.6.7-1.2,1.2-1.6,1.6-.5.4-.8.5-1,.5s-.4,0-.7-.3c-.3-.2-.5-.4-.6-.6,0-.2-.1-.5-.2-1,0-.5,0-1.1,0-1.7s.1-.7.4-.9c.3-.3.6-.4.9-.4s.5.3.6.9c0,0,0,.1,0,.2,0,.5.1.8.2,1,0,.2.2.3.3.3s.1,0,.3-.2c.1-.1.3-.3.5-.4l3.1-3.1c.3-.3.5-.5.7-.6.2-.1.4-.2.5-.2s.2,0,.2.1c0,0,0,.2,0,.4v.2Z"></path>
      <line class="cls-10" x1="375.8" y1="165.7" x2="558" y2="165.7"></line>
    </g>
    <g>
      <path class="cls-17" d="M50,248.9v-3.6h-1.3v-.7h3.4v.7h-1.3v3.6h-.9Z"></path>
      <path class="cls-17" d="M53.5,244.6v1.6c.3-.3.6-.5,1-.5s.4,0,.5.1.3.2.3.3.1.2.2.4,0,.3,0,.6v1.8h-.8v-1.6c0-.3,0-.5,0-.6s0-.2-.2-.2-.2,0-.3,0-.3,0-.4,0-.2.2-.2.3c0,.1,0,.3,0,.6v1.6h-.8v-4.3h.8Z"></path>
      <path class="cls-17" d="M56.4,245.4v-.8h.8v.8h-.8ZM56.4,248.9v-3.1h.8v3.1h-.8Z"></path>
      <path class="cls-17" d="M57.7,248.1h.8s.1.2.2.2.3.1.5.1.4,0,.5-.1c0,0,.1-.1.1-.2s0-.1,0-.2c0,0-.1,0-.3-.1-.7-.1-1.1-.3-1.3-.4-.2-.2-.4-.4-.4-.7s.1-.5.3-.7c.2-.2.5-.3,1-.3s.7,0,.9.2.3.3.4.6h-.8s0,0-.2-.1-.2,0-.4,0-.4,0-.5,0c0,0,0,0,0,.2s0,.1,0,.1c0,0,.3.1.8.2s.7.2.9.4c.2.1.3.4.3.6s-.1.5-.4.7-.6.3-1.1.3-.8,0-1-.3-.4-.4-.5-.7Z"></path>
      <path class="cls-17" d="M62.7,248.1h.8s.1.2.2.2.3.1.5.1.4,0,.5-.1c0,0,.1-.1.1-.2s0-.1,0-.2c0,0-.1,0-.3-.1-.7-.1-1.1-.3-1.3-.4-.2-.2-.4-.4-.4-.7s.1-.5.3-.7c.2-.2.5-.3,1-.3s.7,0,.9.2.3.3.4.6h-.8s0,0-.2-.1-.2,0-.4,0-.4,0-.5,0c0,0,0,0,0,.2s0,.1,0,.1c0,0,.3.1.8.2s.7.2.9.4c.2.1.3.4.3.6s-.1.5-.4.7-.6.3-1.1.3-.8,0-1-.3-.4-.4-.5-.7Z"></path>
      <path class="cls-17" d="M66.4,245.4v-.8h.8v.8h-.8ZM66.4,248.9v-3.1h.8v3.1h-.8Z"></path>
      <path class="cls-17" d="M70.9,248.9h-.8v-.5c-.1.2-.3.3-.4.4s-.3.1-.5.1c-.4,0-.7-.1-.9-.4s-.4-.7-.4-1.2.1-.9.4-1.2c.2-.3.6-.4.9-.4s.6.1.9.4v-1.5h.8v4.3ZM68.7,247.3c0,.3,0,.6.1.7.1.2.3.3.6.3s.3,0,.5-.2.2-.4.2-.7,0-.6-.2-.8-.3-.2-.5-.2-.4,0-.5.2c-.1.2-.2.4-.2.7Z"></path>
      <path class="cls-17" d="M73.5,248h.8c-.1.4-.3.7-.5.8-.2.2-.5.2-.9.2-.5,0-.9-.2-1.2-.5-.2-.3-.3-.6-.3-1.1s.1-.9.4-1.2c.3-.3.6-.4,1-.4s.8.2,1.1.5.4.8.4,1.4h-2.1c0,.2,0,.4.2.6s.3.2.5.2.2,0,.3-.1c0,0,.2-.2.2-.3ZM73.5,247.1c0-.2,0-.4-.2-.5s-.3-.2-.4-.2-.3,0-.4.2-.2.3-.2.5h1.2Z"></path>
      <path class="cls-17" d="M76.7,245.4v-.8h.8v.8h-.8ZM76.7,248.9v-3.1h.8v3.1h-.8Z"></path>
      <path class="cls-17" d="M78.1,248.1h.8s.1.2.2.2.3.1.5.1.4,0,.5-.1c0,0,.1-.1.1-.2s0-.1,0-.2c0,0-.1,0-.3-.1-.7-.1-1.1-.3-1.3-.4-.2-.2-.4-.4-.4-.7s.1-.5.3-.7c.2-.2.5-.3,1-.3s.7,0,.9.2.3.3.4.6h-.8s0,0-.2-.1-.2,0-.4,0-.4,0-.5,0c0,0,0,0,0,.2s0,.1,0,.1c0,0,.3.1.8.2s.7.2.9.4c.2.1.3.4.3.6s-.1.5-.4.7-.6.3-1.1.3-.8,0-1-.3-.4-.4-.5-.7Z"></path>
      <path class="cls-17" d="M84.8,245.8v.7h-.6v1.3c0,.3,0,.4,0,.4s0,0,0,.1,0,0,.1,0,.2,0,.3,0v.6c-.1,0-.3.1-.6.1s-.3,0-.4,0-.2-.1-.3-.2,0-.2-.1-.3c0,0,0-.3,0-.6v-1.4h-.4v-.7h.4v-.6l.8-.5v1.1h.6Z"></path>
      <path class="cls-17" d="M86.2,244.6v1.6c.3-.3.6-.5,1-.5s.4,0,.5.1.3.2.3.3.1.2.2.4,0,.3,0,.6v1.8h-.8v-1.6c0-.3,0-.5,0-.6s0-.2-.2-.2-.2,0-.3,0-.3,0-.4,0-.2.2-.2.3c0,.1,0,.3,0,.6v1.6h-.8v-4.3h.8Z"></path>
      <path class="cls-17" d="M90.8,248h.8c-.1.4-.3.7-.5.8-.2.2-.5.2-.9.2-.5,0-.9-.2-1.2-.5-.2-.3-.3-.6-.3-1.1s.1-.9.4-1.2c.3-.3.6-.4,1-.4s.8.2,1.1.5.4.8.4,1.4h-2.1c0,.2,0,.4.2.6s.3.2.5.2.2,0,.3-.1c0,0,.2-.2.2-.3ZM90.9,247.1c0-.2,0-.4-.2-.5s-.3-.2-.4-.2-.3,0-.4.2-.2.3-.2.5h1.2Z"></path>
      <path class="cls-17" d="M94,248.9v-4.3h.9v4.3h-.9Z"></path>
      <path class="cls-17" d="M95.7,248.9v-4.3h.8l1.8,2.9v-2.9h.8v4.3h-.9l-1.7-2.8v2.8h-.8Z"></path>
      <path class="cls-17" d="M100,248.9v-4.3h.8l1.8,2.9v-2.9h.8v4.3h-.9l-1.7-2.8v2.8h-.8Z"></path>
      <path class="cls-17" d="M104.3,248.9v-4.3h3.2v.7h-2.3v1h2.2v.7h-2.2v1.2h2.4v.7h-3.3Z"></path>
      <path class="cls-17" d="M108.3,248.9v-4.3h1.8c.5,0,.8,0,1,.1s.4.2.5.4.2.4.2.7,0,.6-.3.8-.5.3-.8.4c.2.1.3.2.5.4s.3.4.5.7l.5.8h-1l-.6-.9c-.2-.3-.4-.5-.5-.6s-.2-.1-.3-.2c0,0-.2,0-.4,0h-.2v1.8h-.9ZM109.2,246.5h.6c.4,0,.7,0,.8,0s.2,0,.2-.2,0-.2,0-.3,0-.3-.1-.4-.2-.1-.3-.2c0,0-.3,0-.6,0h-.7v1.1Z"></path>
      <path class="cls-17" d="M114.3,248.9v-4.3h2.9v.7h-2.1v1h1.8v.7h-1.8v1.8h-.9Z"></path>
      <path class="cls-17" d="M121.5,248.9h-.9l-.4-1h-1.7l-.4,1h-.9l1.7-4.3h.9l1.7,4.3ZM119.9,247.2l-.6-1.6-.6,1.6h1.2Z"></path>
      <path class="cls-17" d="M124.7,247.4l.8.3c-.1.5-.3.8-.6,1s-.7.3-1.1.3-1-.2-1.4-.6c-.4-.4-.5-.9-.5-1.6s.2-1.3.6-1.7c.4-.4.9-.6,1.5-.6s1,.2,1.3.5c.2.2.3.4.4.8l-.9.2c0-.2-.2-.4-.3-.5s-.4-.2-.6-.2-.6.1-.8.3c-.2.2-.3.6-.3,1.1s0,.9.3,1.2.4.3.8.3.4,0,.6-.2.3-.4.4-.7Z"></path>
      <path class="cls-17" d="M126.3,248.9v-4.3h3.2v.7h-2.3v1h2.2v.7h-2.2v1.2h2.4v.7h-3.3Z"></path>
      <path class="cls-17" d="M132,245.8h.8v.5c0-.2.2-.3.4-.4s.4-.1.6-.1c.4,0,.7.1.9.4.3.3.4.7.4,1.2s-.1.9-.4,1.2c-.3.3-.6.4-.9.4s-.3,0-.5-.1-.3-.2-.4-.4v1.6h-.8v-4.3ZM132.8,247.3c0,.3,0,.6.2.8s.3.3.5.3.3,0,.5-.2.2-.4.2-.8,0-.6-.2-.7-.3-.2-.5-.2-.4,0-.5.2-.2.4-.2.7Z"></path>
      <path class="cls-17" d="M136.3,246.8h-.7c0-.4.2-.7.4-.8.2-.1.5-.2.9-.2s.6,0,.8.1.3.2.4.3.1.4.1.7v1c0,.3,0,.5,0,.6s0,.3.1.4h-.8c0,0,0-.1,0-.2,0,0,0,0,0,0-.1.1-.3.2-.5.3-.2,0-.3.1-.5.1-.3,0-.6,0-.8-.3s-.3-.4-.3-.7,0-.3.1-.5.2-.2.4-.3.4-.1.7-.2c.4,0,.7-.1.8-.2h0c0-.2,0-.4-.1-.4s-.2-.1-.4-.1-.3,0-.3,0-.1.2-.2.3ZM137.4,247.4c-.1,0-.3,0-.5.1s-.4,0-.4.1c-.1,0-.2.2-.2.3s0,.2.1.3.2.1.3.1.3,0,.4-.1c0,0,.2-.2.2-.3,0,0,0-.2,0-.4v-.2Z"></path>
      <path class="cls-17" d="M141.8,248.9h-.8v-1.6c0-.3,0-.6,0-.7s0-.2-.2-.2-.2,0-.3,0-.3,0-.4.1-.2.2-.2.3,0,.4,0,.7v1.4h-.8v-3.1h.8v.5c.3-.4.6-.5,1-.5s.3,0,.5,0,.3.1.3.3.1.2.2.3,0,.3,0,.6v1.9Z"></path>
      <path class="cls-17" d="M144.4,248h.8c-.1.4-.3.7-.5.8-.2.2-.5.2-.9.2-.5,0-.9-.2-1.2-.5-.2-.3-.3-.6-.3-1.1s.1-.9.4-1.2c.3-.3.6-.4,1-.4s.8.2,1.1.5.4.8.4,1.4h-2.1c0,.2,0,.4.2.6s.3.2.5.2.2,0,.3-.1c0,0,.2-.2.2-.3ZM144.5,247.1c0-.2,0-.4-.2-.5s-.3-.2-.4-.2-.3,0-.4.2-.2.3-.2.5h1.2Z"></path>
      <path class="cls-17" d="M146,248.9v-4.3h.8v4.3h-.8Z"></path>
      <path class="cls-17" d="M149.1,247.3c0-.3,0-.5.2-.8s.3-.5.6-.6.5-.2.8-.2c.5,0,.9.2,1.2.5.3.3.5.7.5,1.2s-.2.9-.5,1.2-.7.5-1.1.5-.6,0-.8-.2c-.3-.1-.5-.3-.6-.6s-.2-.6-.2-.9ZM150,247.4c0,.3,0,.5.2.7s.3.2.5.2.4,0,.5-.2.2-.4.2-.7,0-.5-.2-.7-.3-.2-.5-.2-.4,0-.5.2-.2.4-.2.7Z"></path>
      <path class="cls-17" d="M152.6,245.8h.5v-.2c0-.3,0-.5,0-.6s.2-.2.3-.3.3-.1.6-.1.5,0,.7.1v.6c-.2,0-.4,0-.5,0s-.2,0-.3,0,0,.2,0,.3v.2h.6v.6h-.6v2.5h-.8v-2.5h-.5v-.6Z"></path>
      <path class="cls-17" d="M158.1,245.8v.7h-.6v1.3c0,.3,0,.4,0,.4s0,0,0,.1,0,0,.1,0,.2,0,.3,0v.6c-.1,0-.3.1-.6.1s-.3,0-.4,0-.2-.1-.3-.2,0-.2-.1-.3c0,0,0-.3,0-.6v-1.4h-.4v-.7h.4v-.6l.8-.5v1.1h.6Z"></path>
      <path class="cls-17" d="M159.4,244.6v1.6c.3-.3.6-.5,1-.5s.4,0,.5.1.3.2.3.3.1.2.2.4,0,.3,0,.6v1.8h-.8v-1.6c0-.3,0-.5,0-.6s0-.2-.2-.2-.2,0-.3,0-.3,0-.4,0-.2.2-.2.3c0,.1,0,.3,0,.6v1.6h-.8v-4.3h.8Z"></path>
      <path class="cls-17" d="M164.1,248h.8c-.1.4-.3.7-.5.8-.2.2-.5.2-.9.2-.5,0-.9-.2-1.2-.5-.2-.3-.3-.6-.3-1.1s.1-.9.4-1.2c.3-.3.6-.4,1-.4s.8.2,1.1.5.4.8.4,1.4h-2.1c0,.2,0,.4.2.6s.3.2.5.2.2,0,.3-.1c0,0,.2-.2.2-.3ZM164.1,247.1c0-.2,0-.4-.2-.5s-.3-.2-.4-.2-.3,0-.4.2-.2.3-.2.5h1.2Z"></path>
      <path class="cls-17" d="M167.3,248.9v-4.3h.8v1.5c.3-.3.6-.4.9-.4s.7.1.9.4c.2.3.4.7.4,1.2s-.1.9-.4,1.2-.6.4-.9.4-.4,0-.5-.1-.3-.2-.4-.4v.5h-.8ZM168.1,247.3c0,.3,0,.6.2.7.1.2.3.3.6.3s.3,0,.5-.2.2-.4.2-.7,0-.6-.2-.8-.3-.2-.5-.2-.4,0-.5.2-.2.4-.2.7Z"></path>
      <path class="cls-17" d="M170.8,247.3c0-.3,0-.5.2-.8s.3-.5.6-.6.5-.2.8-.2c.5,0,.9.2,1.2.5.3.3.5.7.5,1.2s-.2.9-.5,1.2-.7.5-1.1.5-.6,0-.8-.2c-.3-.1-.5-.3-.6-.6s-.2-.6-.2-.9ZM171.6,247.4c0,.3,0,.5.2.7s.3.2.5.2.4,0,.5-.2.2-.4.2-.7,0-.5-.2-.7-.3-.2-.5-.2-.4,0-.5.2-.2.4-.2.7Z"></path>
      <path class="cls-17" d="M175.2,246.8h-.7c0-.4.2-.7.4-.8.2-.1.5-.2.9-.2s.6,0,.8.1.3.2.4.3.1.4.1.7v1c0,.3,0,.5,0,.6s0,.3.1.4h-.8c0,0,0-.1,0-.2,0,0,0,0,0,0-.1.1-.3.2-.5.3-.2,0-.3.1-.5.1-.3,0-.6,0-.8-.3s-.3-.4-.3-.7,0-.3.1-.5.2-.2.4-.3.4-.1.7-.2c.4,0,.7-.1.8-.2h0c0-.2,0-.4-.1-.4s-.2-.1-.4-.1-.3,0-.3,0-.1.2-.2.3ZM176.3,247.4c-.1,0-.3,0-.5.1s-.4,0-.4.1c-.1,0-.2.2-.2.3s0,.2.1.3.2.1.3.1.3,0,.4-.1c0,0,.2-.2.2-.3,0,0,0-.2,0-.4v-.2Z"></path>
      <path class="cls-17" d="M178.7,248.9h-.8v-3.1h.8v.4c.1-.2.2-.3.4-.4s.2,0,.4,0,.4,0,.5.2l-.3.7c-.1,0-.3-.1-.4-.1s-.2,0-.3,0-.1.2-.2.3c0,.2,0,.5,0,1v1Z"></path>
      <path class="cls-17" d="M183.1,248.9h-.8v-.5c-.1.2-.3.3-.4.4s-.3.1-.5.1c-.4,0-.7-.1-.9-.4s-.4-.7-.4-1.2.1-.9.4-1.2c.2-.3.6-.4.9-.4s.6.1.9.4v-1.5h.8v4.3ZM180.9,247.3c0,.3,0,.6.1.7.1.2.3.3.6.3s.3,0,.5-.2.2-.4.2-.7,0-.6-.2-.8-.3-.2-.5-.2-.4,0-.5.2c-.1.2-.2.4-.2.7Z"></path>
      <path class="cls-17" d="M183.9,248.9v-.8h.8v.8h-.8Z"></path>
      <path class="cls-17" d="M187.3,248.9v-4.3h1.4c.5,0,.9,0,1,0,.2,0,.5.2.6.4s.2.5.2.8,0,.5-.1.7-.2.3-.4.4-.3.2-.4.2c-.2,0-.5,0-.9,0h-.6v1.6h-.9ZM188.1,245.4v1.2h.5c.3,0,.6,0,.7,0s.2-.1.3-.2,0-.2,0-.3,0-.3-.1-.4-.2-.2-.3-.2c-.1,0-.3,0-.6,0h-.4Z"></path>
      <path class="cls-17" d="M191.3,248.9v-4.3h.8v4.3h-.8Z"></path>
      <path class="cls-17" d="M193.6,246.8h-.7c0-.4.2-.7.4-.8.2-.1.5-.2.9-.2s.6,0,.8.1.3.2.4.3.1.4.1.7v1c0,.3,0,.5,0,.6s0,.3.1.4h-.8c0,0,0-.1,0-.2,0,0,0,0,0,0-.1.1-.3.2-.5.3-.2,0-.3.1-.5.1-.3,0-.6,0-.8-.3s-.3-.4-.3-.7,0-.3.1-.5.2-.2.4-.3.4-.1.7-.2c.4,0,.7-.1.8-.2h0c0-.2,0-.4-.1-.4s-.2-.1-.4-.1-.3,0-.3,0-.1.2-.2.3ZM194.7,247.4c-.1,0-.3,0-.5.1s-.4,0-.4.1c-.1,0-.2.2-.2.3s0,.2.1.3.2.1.3.1.3,0,.4-.1c0,0,.2-.2.2-.3,0,0,0-.2,0-.4v-.2Z"></path>
      <path class="cls-17" d="M199,246.7h-.8s0-.1-.2-.2-.2-.1-.4-.1-.4,0-.5.2c-.1.1-.2.4-.2.7s0,.6.2.8c.1.2.3.2.5.2s.3,0,.4-.1.2-.2.2-.5h.8c0,.5-.2.8-.5,1s-.6.3-1,.3-.8-.1-1.1-.4-.4-.7-.4-1.2.1-.9.4-1.2c.3-.3.6-.4,1.1-.4s.7,0,.9.2c.2.2.4.4.5.7Z"></path>
      <path class="cls-17" d="M201.4,248h.8c-.1.4-.3.7-.5.8-.2.2-.5.2-.9.2-.5,0-.9-.2-1.2-.5-.2-.3-.3-.6-.3-1.1s.1-.9.4-1.2c.3-.3.6-.4,1-.4s.8.2,1.1.5.4.8.4,1.4h-2.1c0,.2,0,.4.2.6s.3.2.5.2.2,0,.3-.1c0,0,.2-.2.2-.3ZM201.5,247.1c0-.2,0-.4-.2-.5s-.3-.2-.4-.2-.3,0-.4.2-.2.3-.2.5h1.2Z"></path>
      <path class="cls-17" d="M204.2,245.8h.9l.7,2.2.7-2.2h.9l-1.1,3-.2.5c0,.2-.1.3-.2.4s-.1.2-.2.2-.2.1-.3.1c-.1,0-.3,0-.4,0s-.3,0-.5,0v-.6c0,0,.2,0,.3,0,.2,0,.3,0,.4-.2s.2-.3.2-.4l-1.2-3.1Z"></path>
      <path class="cls-17" d="M207.8,247.3c0-.3,0-.5.2-.8s.3-.5.6-.6.5-.2.8-.2c.5,0,.9.2,1.2.5.3.3.5.7.5,1.2s-.2.9-.5,1.2-.7.5-1.1.5-.6,0-.8-.2c-.3-.1-.5-.3-.6-.6s-.2-.6-.2-.9ZM208.6,247.4c0,.3,0,.5.2.7s.3.2.5.2.4,0,.5-.2.2-.4.2-.7,0-.5-.2-.7-.3-.2-.5-.2-.4,0-.5.2-.2.4-.2.7Z"></path>
      <path class="cls-17" d="M213.7,248.9v-.5c-.1.2-.3.3-.4.4s-.4.1-.6.1-.4,0-.6-.1-.3-.2-.4-.4-.1-.4-.1-.7v-2h.8v1.4c0,.4,0,.7,0,.8,0,0,0,.2.2.2s.2,0,.3,0,.3,0,.4-.1.2-.2.2-.3,0-.4,0-.8v-1.3h.8v3.1h-.8Z"></path>
      <path class="cls-17" d="M216.1,248.9h-.8v-3.1h.8v.4c.1-.2.2-.3.4-.4s.2,0,.4,0,.4,0,.5.2l-.3.7c-.1,0-.3-.1-.4-.1s-.2,0-.3,0-.1.2-.2.3c0,.2,0,.5,0,1v1Z"></path>
      <path class="cls-17" d="M219.9,246.8h-.7c0-.4.2-.7.4-.8.2-.1.5-.2.9-.2s.6,0,.8.1.3.2.4.3.1.4.1.7v1c0,.3,0,.5,0,.6s0,.3.1.4h-.8c0,0,0-.1,0-.2,0,0,0,0,0,0-.1.1-.3.2-.5.3-.2,0-.3.1-.5.1-.3,0-.6,0-.8-.3s-.3-.4-.3-.7,0-.3.1-.5.2-.2.4-.3.4-.1.7-.2c.4,0,.7-.1.8-.2h0c0-.2,0-.4-.1-.4s-.2-.1-.4-.1-.3,0-.3,0-.1.2-.2.3ZM221,247.4c-.1,0-.3,0-.5.1s-.4,0-.4.1c-.1,0-.2.2-.2.3s0,.2.1.3.2.1.3.1.3,0,.4-.1c0,0,.2-.2.2-.3,0,0,0-.2,0-.4v-.2Z"></path>
      <path class="cls-17" d="M223.4,248.9h-.8v-3.1h.8v.4c.1-.2.2-.3.4-.4s.2,0,.4,0,.4,0,.5.2l-.3.7c-.1,0-.3-.1-.4-.1s-.2,0-.3,0-.1.2-.2.3c0,.2,0,.5,0,1v1Z"></path>
      <path class="cls-17" d="M226.4,245.8v.7h-.6v1.3c0,.3,0,.4,0,.4s0,0,0,.1,0,0,.1,0,.2,0,.3,0v.6c-.1,0-.3.1-.6.1s-.3,0-.4,0-.2-.1-.3-.2,0-.2-.1-.3c0,0,0-.3,0-.6v-1.4h-.4v-.7h.4v-.6l.8-.5v1.1h.6Z"></path>
      <path class="cls-17" d="M50.5,253.8v.7h-.6v1.3c0,.3,0,.4,0,.4s0,0,0,.1,0,0,.1,0,.2,0,.3,0v.6c-.1,0-.3.1-.6.1s-.3,0-.4,0-.2-.1-.3-.2,0-.2-.1-.3c0,0,0-.3,0-.6v-1.4h-.4v-.7h.4v-.6l.8-.5v1.1h.6Z"></path>
      <path class="cls-17" d="M51.8,252.6v1.6c.3-.3.6-.5,1-.5s.4,0,.5.1.3.2.3.3.1.2.2.4,0,.3,0,.6v1.8h-.8v-1.6c0-.3,0-.5,0-.6s0-.2-.2-.2-.2,0-.3,0-.3,0-.4,0-.2.2-.2.3c0,.1,0,.3,0,.6v1.6h-.8v-4.3h.8Z"></path>
      <path class="cls-17" d="M55.3,254.8h-.7c0-.4.2-.7.4-.8.2-.1.5-.2.9-.2s.6,0,.8.1.3.2.4.3.1.4.1.7v1c0,.3,0,.5,0,.6s0,.3.1.4h-.8c0,0,0-.1,0-.2,0,0,0,0,0,0-.1.1-.3.2-.5.3-.2,0-.3.1-.5.1-.3,0-.6,0-.8-.3s-.3-.4-.3-.7,0-.3.1-.5.2-.2.4-.3.4-.1.7-.2c.4,0,.7-.1.8-.2h0c0-.2,0-.4-.1-.4s-.2-.1-.4-.1-.3,0-.3,0-.1.2-.2.3ZM56.4,255.4c-.1,0-.3,0-.5.1s-.4,0-.4.1c-.1,0-.2.2-.2.3s0,.2.1.3.2.1.3.1.3,0,.4-.1c0,0,.2-.2.2-.3,0,0,0-.2,0-.4v-.2Z"></path>
      <path class="cls-17" d="M59.4,253.8v.7h-.6v1.3c0,.3,0,.4,0,.4s0,0,0,.1,0,0,.1,0,.2,0,.3,0v.6c-.1,0-.3.1-.6.1s-.3,0-.4,0-.2-.1-.3-.2,0-.2-.1-.3c0,0,0-.3,0-.6v-1.4h-.4v-.7h.4v-.6l.8-.5v1.1h.6Z"></path>
      <path class="cls-17" d="M62.3,256.9l-1-3.1h.8l.6,2,.5-2h.8l.5,2,.6-2h.8l-1,3.1h-.8l-.5-2-.5,2h-.8Z"></path>
      <path class="cls-17" d="M66.4,253.4v-.8h.8v.8h-.8ZM66.4,256.9v-3.1h.8v3.1h-.8Z"></path>
      <path class="cls-17" d="M68,256.9v-4.3h.8v4.3h-.8Z"></path>
      <path class="cls-17" d="M69.7,256.9v-4.3h.8v4.3h-.8Z"></path>
      <path class="cls-17" d="M72.7,256.1h.8s.1.2.2.2.3.1.5.1.4,0,.5-.1c0,0,.1-.1.1-.2s0-.1,0-.2c0,0-.1,0-.3-.1-.7-.1-1.1-.3-1.3-.4-.2-.2-.4-.4-.4-.7s.1-.5.3-.7c.2-.2.5-.3,1-.3s.7,0,.9.2.3.3.4.6h-.8s0,0-.2-.1-.2,0-.4,0-.4,0-.5,0c0,0,0,0,0,.2s0,.1,0,.1c0,0,.3.1.8.2s.7.2.9.4c.2.1.3.4.3.6s-.1.5-.4.7-.6.3-1.1.3-.8,0-1-.3-.4-.4-.5-.7Z"></path>
      <path class="cls-17" d="M77.2,252.6v1.6c.3-.3.6-.5,1-.5s.4,0,.5.1.3.2.3.3.1.2.2.4,0,.3,0,.6v1.8h-.8v-1.6c0-.3,0-.5,0-.6s0-.2-.2-.2-.2,0-.3,0-.3,0-.4,0-.2.2-.2.3c0,.1,0,.3,0,.6v1.6h-.8v-4.3h.8Z"></path>
      <path class="cls-17" d="M79.8,255.3c0-.3,0-.5.2-.8s.3-.5.6-.6.5-.2.8-.2c.5,0,.9.2,1.2.5.3.3.5.7.5,1.2s-.2.9-.5,1.2-.7.5-1.1.5-.6,0-.8-.2c-.3-.1-.5-.3-.6-.6s-.2-.6-.2-.9ZM80.7,255.4c0,.3,0,.5.2.7s.3.2.5.2.4,0,.5-.2.2-.4.2-.7,0-.5-.2-.7-.3-.2-.5-.2-.4,0-.5.2-.2.4-.2.7Z"></path>
      <path class="cls-17" d="M84.3,256.9l-1-3.1h.8l.6,2,.5-2h.8l.5,2,.6-2h.8l-1,3.1h-.8l-.5-2-.5,2h-.8Z"></path>
      <path class="cls-17" d="M91.4,253.8v.7h-.6v1.3c0,.3,0,.4,0,.4s0,0,0,.1,0,0,.1,0,.2,0,.3,0v.6c-.1,0-.3.1-.6.1s-.3,0-.4,0-.2-.1-.3-.2,0-.2-.1-.3c0,0,0-.3,0-.6v-1.4h-.4v-.7h.4v-.6l.8-.5v1.1h.6Z"></path>
      <path class="cls-17" d="M92.8,252.6v1.6c.3-.3.6-.5,1-.5s.4,0,.5.1.3.2.3.3.1.2.2.4,0,.3,0,.6v1.8h-.8v-1.6c0-.3,0-.5,0-.6s0-.2-.2-.2-.2,0-.3,0-.3,0-.4,0-.2.2-.2.3c0,.1,0,.3,0,.6v1.6h-.8v-4.3h.8Z"></path>
      <path class="cls-17" d="M96.4,256.9h-.8v-3.1h.8v.4c.1-.2.2-.3.4-.4s.2,0,.4,0,.4,0,.5.2l-.3.7c-.1,0-.3-.1-.4-.1s-.2,0-.3,0-.1.2-.2.3c0,.2,0,.5,0,1v1Z"></path>
      <path class="cls-17" d="M97.8,255.3c0-.3,0-.5.2-.8s.3-.5.6-.6.5-.2.8-.2c.5,0,.9.2,1.2.5.3.3.5.7.5,1.2s-.2.9-.5,1.2-.7.5-1.1.5-.6,0-.8-.2c-.3-.1-.5-.3-.6-.6s-.2-.6-.2-.9ZM98.6,255.4c0,.3,0,.5.2.7s.3.2.5.2.4,0,.5-.2.2-.4.2-.7,0-.5-.2-.7-.3-.2-.5-.2-.4,0-.5.2-.2.4-.2.7Z"></path>
      <path class="cls-17" d="M103.7,256.9v-.5c-.1.2-.3.3-.4.4s-.4.1-.6.1-.4,0-.6-.1-.3-.2-.4-.4-.1-.4-.1-.7v-2h.8v1.4c0,.4,0,.7,0,.8,0,0,0,.2.2.2s.2,0,.3,0,.3,0,.4-.1.2-.2.2-.3,0-.4,0-.8v-1.3h.8v3.1h-.8Z"></path>
      <path class="cls-17" d="M105.2,257.1h.9c0,.2,0,.3.1.3,0,0,.2,0,.4,0s.4,0,.5,0c0,0,.1-.1.2-.2,0,0,0-.2,0-.4v-.5c-.2.3-.6.5-.9.5s-.7-.2-1-.5c-.2-.3-.3-.6-.3-1s.1-.9.4-1.2.6-.4.9-.4.7.2,1,.5v-.4h.8v2.8c0,.4,0,.6,0,.8,0,.2-.1.3-.3.4s-.3.2-.4.2c-.2,0-.4,0-.7,0-.5,0-.9,0-1.1-.3-.2-.2-.3-.4-.3-.7s0,0,0,0ZM106,255.3c0,.3,0,.6.2.7.1.2.3.2.5.2s.4,0,.5-.2.2-.4.2-.7,0-.6-.2-.7-.3-.2-.5-.2-.4,0-.5.2c-.1.2-.2.4-.2.7Z"></path>
      <path class="cls-17" d="M109.8,252.6v1.6c.3-.3.6-.5,1-.5s.4,0,.5.1.3.2.3.3.1.2.2.4,0,.3,0,.6v1.8h-.8v-1.6c0-.3,0-.5,0-.6s0-.2-.2-.2-.2,0-.3,0-.3,0-.4,0-.2.2-.2.3c0,.1,0,.3,0,.6v1.6h-.8v-4.3h.8Z"></path>
      <path class="cls-17" d="M115.7,253.8v.7h-.6v1.3c0,.3,0,.4,0,.4s0,0,0,.1,0,0,.1,0,.2,0,.3,0v.6c-.1,0-.3.1-.6.1s-.3,0-.4,0-.2-.1-.3-.2,0-.2-.1-.3c0,0,0-.3,0-.6v-1.4h-.4v-.7h.4v-.6l.8-.5v1.1h.6Z"></path>
      <path class="cls-17" d="M117.1,252.6v1.6c.3-.3.6-.5,1-.5s.4,0,.5.1.3.2.3.3.1.2.2.4,0,.3,0,.6v1.8h-.8v-1.6c0-.3,0-.5,0-.6s0-.2-.2-.2-.2,0-.3,0-.3,0-.4,0-.2.2-.2.3c0,.1,0,.3,0,.6v1.6h-.8v-4.3h.8Z"></path>
      <path class="cls-17" d="M121.8,256h.8c-.1.4-.3.7-.5.8-.2.2-.5.2-.9.2-.5,0-.9-.2-1.2-.5-.2-.3-.3-.6-.3-1.1s.1-.9.4-1.2c.3-.3.6-.4,1-.4s.8.2,1.1.5.4.8.4,1.4h-2.1c0,.2,0,.4.2.6s.3.2.5.2.2,0,.3-.1c0,0,.2-.2.2-.3ZM121.8,255.1c0-.2,0-.4-.2-.5s-.3-.2-.4-.2-.3,0-.4.2-.2.3-.2.5h1.2Z"></path>
      <path class="cls-17" d="M127.7,254.7h-.8s0-.1-.2-.2-.2-.1-.4-.1-.4,0-.5.2c-.1.1-.2.4-.2.7s0,.6.2.8c.1.2.3.2.5.2s.3,0,.4-.1.2-.2.2-.5h.8c0,.5-.2.8-.5,1s-.6.3-1,.3-.8-.1-1.1-.4-.4-.7-.4-1.2.1-.9.4-1.2c.3-.3.6-.4,1.1-.4s.7,0,.9.2c.2.2.4.4.5.7Z"></path>
      <path class="cls-17" d="M130.3,256.9v-.5c-.1.2-.3.3-.4.4s-.4.1-.6.1-.4,0-.6-.1-.3-.2-.4-.4-.1-.4-.1-.7v-2h.8v1.4c0,.4,0,.7,0,.8,0,0,0,.2.2.2s.2,0,.3,0,.3,0,.4-.1.2-.2.2-.3,0-.4,0-.8v-1.3h.8v3.1h-.8Z"></path>
      <path class="cls-17" d="M133.4,253.8v.7h-.6v1.3c0,.3,0,.4,0,.4s0,0,0,.1,0,0,.1,0,.2,0,.3,0v.6c-.1,0-.3.1-.6.1s-.3,0-.4,0-.2-.1-.3-.2,0-.2-.1-.3c0,0,0-.3,0-.6v-1.4h-.4v-.7h.4v-.6l.8-.5v1.1h.6Z"></path>
      <path class="cls-17" d="M133.7,256.1h.8s.1.2.2.2.3.1.5.1.4,0,.5-.1c0,0,.1-.1.1-.2s0-.1,0-.2c0,0-.1,0-.3-.1-.7-.1-1.1-.3-1.3-.4-.2-.2-.4-.4-.4-.7s.1-.5.3-.7c.2-.2.5-.3,1-.3s.7,0,.9.2.3.3.4.6h-.8s0,0-.2-.1-.2,0-.4,0-.4,0-.5,0c0,0,0,0,0,.2s0,.1,0,.1c0,0,.3.1.8.2s.7.2.9.4c.2.1.3.4.3.6s-.1.5-.4.7-.6.3-1.1.3-.8,0-1-.3-.4-.4-.5-.7Z"></path>
      <path class="cls-17" d="M138.8,255.3c0-.3,0-.5.2-.8s.3-.5.6-.6.5-.2.8-.2c.5,0,.9.2,1.2.5.3.3.5.7.5,1.2s-.2.9-.5,1.2-.7.5-1.1.5-.6,0-.8-.2c-.3-.1-.5-.3-.6-.6s-.2-.6-.2-.9ZM139.6,255.4c0,.3,0,.5.2.7s.3.2.5.2.4,0,.5-.2.2-.4.2-.7,0-.5-.2-.7-.3-.2-.5-.2-.4,0-.5.2-.2.4-.2.7Z"></path>
      <path class="cls-17" d="M145.4,256.9h-.8v-1.6c0-.3,0-.6,0-.7s0-.2-.2-.2-.2,0-.3,0-.3,0-.4.1-.2.2-.2.3,0,.4,0,.7v1.4h-.8v-3.1h.8v.5c.3-.4.6-.5,1-.5s.3,0,.5,0,.3.1.3.3.1.2.2.3,0,.3,0,.6v1.9Z"></path>
      <path class="cls-17" d="M149.4,253.8v.7h-.6v1.3c0,.3,0,.4,0,.4s0,0,0,.1,0,0,.1,0,.2,0,.3,0v.6c-.1,0-.3.1-.6.1s-.3,0-.4,0-.2-.1-.3-.2,0-.2-.1-.3c0,0,0-.3,0-.6v-1.4h-.4v-.7h.4v-.6l.8-.5v1.1h.6Z"></path>
      <path class="cls-17" d="M150.8,252.6v1.6c.3-.3.6-.5,1-.5s.4,0,.5.1.3.2.3.3.1.2.2.4,0,.3,0,.6v1.8h-.8v-1.6c0-.3,0-.5,0-.6s0-.2-.2-.2-.2,0-.3,0-.3,0-.4,0-.2.2-.2.3c0,.1,0,.3,0,.6v1.6h-.8v-4.3h.8Z"></path>
      <path class="cls-17" d="M155.4,256h.8c-.1.4-.3.7-.5.8-.2.2-.5.2-.9.2-.5,0-.9-.2-1.2-.5-.2-.3-.3-.6-.3-1.1s.1-.9.4-1.2c.3-.3.6-.4,1-.4s.8.2,1.1.5.4.8.4,1.4h-2.1c0,.2,0,.4.2.6s.3.2.5.2.2,0,.3-.1c0,0,.2-.2.2-.3ZM155.5,255.1c0-.2,0-.4-.2-.5s-.3-.2-.4-.2-.3,0-.4.2-.2.3-.2.5h1.2Z"></path>
      <path class="cls-17" d="M158.6,256.9v-4.3h3.2v.7h-2.3v1h2.2v.7h-2.2v1.2h2.4v.7h-3.3Z"></path>
      <path class="cls-17" d="M162.2,256.9l1.1-1.6-1.1-1.5h1l.6.9.6-.9h1l-1.1,1.5,1.2,1.6h-1l-.6-1-.6,1h-1Z"></path>
      <path class="cls-17" d="M167.4,253.8v.7h-.6v1.3c0,.3,0,.4,0,.4s0,0,0,.1,0,0,.1,0,.2,0,.3,0v.6c-.1,0-.3.1-.6.1s-.3,0-.4,0-.2-.1-.3-.2,0-.2-.1-.3c0,0,0-.3,0-.6v-1.4h-.4v-.7h.4v-.6l.8-.5v1.1h.6Z"></path>
      <path class="cls-17" d="M169.7,256h.8c-.1.4-.3.7-.5.8-.2.2-.5.2-.9.2-.5,0-.9-.2-1.2-.5-.2-.3-.3-.6-.3-1.1s.1-.9.4-1.2c.3-.3.6-.4,1-.4s.8.2,1.1.5.4.8.4,1.4h-2.1c0,.2,0,.4.2.6s.3.2.5.2.2,0,.3-.1c0,0,.2-.2.2-.3ZM169.8,255.1c0-.2,0-.4-.2-.5s-.3-.2-.4-.2-.3,0-.4.2-.2.3-.2.5h1.2Z"></path>
      <path class="cls-17" d="M172.1,256.9h-.8v-3.1h.8v.4c.1-.2.2-.3.4-.4s.2,0,.4,0,.4,0,.5.2l-.3.7c-.1,0-.3-.1-.4-.1s-.2,0-.3,0-.1.2-.2.3c0,.2,0,.5,0,1v1Z"></path>
      <path class="cls-17" d="M173.6,253.4v-.8h.8v.8h-.8ZM173.6,256.9v-3.1h.8v3.1h-.8Z"></path>
      <path class="cls-17" d="M175.1,255.3c0-.3,0-.5.2-.8s.3-.5.6-.6.5-.2.8-.2c.5,0,.9.2,1.2.5.3.3.5.7.5,1.2s-.2.9-.5,1.2-.7.5-1.1.5-.6,0-.8-.2c-.3-.1-.5-.3-.6-.6s-.2-.6-.2-.9ZM175.9,255.4c0,.3,0,.5.2.7s.3.2.5.2.4,0,.5-.2.2-.4.2-.7,0-.5-.2-.7-.3-.2-.5-.2-.4,0-.5.2-.2.4-.2.7Z"></path>
      <path class="cls-17" d="M179.7,256.9h-.8v-3.1h.8v.4c.1-.2.2-.3.4-.4s.2,0,.4,0,.4,0,.5.2l-.3.7c-.1,0-.3-.1-.4-.1s-.2,0-.3,0-.1.2-.2.3c0,.2,0,.5,0,1v1Z"></path>
      <path class="cls-17" d="M182.9,256.9v-4.3h2.9v.7h-2.1v1h1.8v.7h-1.8v1.8h-.9Z"></path>
      <path class="cls-17" d="M187.2,254.8h-.7c0-.4.2-.7.4-.8.2-.1.5-.2.9-.2s.6,0,.8.1.3.2.4.3.1.4.1.7v1c0,.3,0,.5,0,.6s0,.3.1.4h-.8c0,0,0-.1,0-.2,0,0,0,0,0,0-.1.1-.3.2-.5.3-.2,0-.3.1-.5.1-.3,0-.6,0-.8-.3s-.3-.4-.3-.7,0-.3.1-.5.2-.2.4-.3.4-.1.7-.2c.4,0,.7-.1.8-.2h0c0-.2,0-.4-.1-.4s-.2-.1-.4-.1-.3,0-.3,0-.1.2-.2.3ZM188.3,255.4c-.1,0-.3,0-.5.1s-.4,0-.4.1c-.1,0-.2.2-.2.3s0,.2.1.3.2.1.3.1.3,0,.4-.1c0,0,.2-.2.2-.3,0,0,0-.2,0-.4v-.2Z"></path>
      <path class="cls-17" d="M192.6,254.7h-.8s0-.1-.2-.2-.2-.1-.4-.1-.4,0-.5.2c-.1.1-.2.4-.2.7s0,.6.2.8c.1.2.3.2.5.2s.3,0,.4-.1.2-.2.2-.5h.8c0,.5-.2.8-.5,1s-.6.3-1,.3-.8-.1-1.1-.4-.4-.7-.4-1.2.1-.9.4-1.2c.3-.3.6-.4,1.1-.4s.7,0,.9.2c.2.2.4.4.5.7Z"></path>
      <path class="cls-17" d="M195.1,256h.8c-.1.4-.3.7-.5.8-.2.2-.5.2-.9.2-.5,0-.9-.2-1.2-.5-.2-.3-.3-.6-.3-1.1s.1-.9.4-1.2c.3-.3.6-.4,1-.4s.8.2,1.1.5.4.8.4,1.4h-2.1c0,.2,0,.4.2.6s.3.2.5.2.2,0,.3-.1c0,0,.2-.2.2-.3ZM195.1,255.1c0-.2,0-.4-.2-.5s-.3-.2-.4-.2-.3,0-.4.2-.2.3-.2.5h1.2Z"></path>
      <path class="cls-17" d="M198.2,253.8h.8v.5c0-.2.2-.3.4-.4s.4-.1.6-.1c.4,0,.7.1.9.4.3.3.4.7.4,1.2s-.1.9-.4,1.2c-.3.3-.6.4-.9.4s-.3,0-.5-.1-.3-.2-.4-.4v1.6h-.8v-4.3ZM199.1,255.3c0,.3,0,.6.2.8s.3.3.5.3.3,0,.5-.2.2-.4.2-.8,0-.6-.2-.7-.3-.2-.5-.2-.4,0-.5.2-.2.4-.2.7Z"></path>
      <path class="cls-17" d="M202.5,254.8h-.7c0-.4.2-.7.4-.8.2-.1.5-.2.9-.2s.6,0,.8.1.3.2.4.3.1.4.1.7v1c0,.3,0,.5,0,.6s0,.3.1.4h-.8c0,0,0-.1,0-.2,0,0,0,0,0,0-.1.1-.3.2-.5.3-.2,0-.3.1-.5.1-.3,0-.6,0-.8-.3s-.3-.4-.3-.7,0-.3.1-.5.2-.2.4-.3.4-.1.7-.2c.4,0,.7-.1.8-.2h0c0-.2,0-.4-.1-.4s-.2-.1-.4-.1-.3,0-.3,0-.1.2-.2.3ZM203.6,255.4c-.1,0-.3,0-.5.1s-.4,0-.4.1c-.1,0-.2.2-.2.3s0,.2.1.3.2.1.3.1.3,0,.4-.1c0,0,.2-.2.2-.3,0,0,0-.2,0-.4v-.2Z"></path>
      <path class="cls-17" d="M208.1,256.9h-.8v-1.6c0-.3,0-.6,0-.7s0-.2-.2-.2-.2,0-.3,0-.3,0-.4.1-.2.2-.2.3,0,.4,0,.7v1.4h-.8v-3.1h.8v.5c.3-.4.6-.5,1-.5s.3,0,.5,0,.3.1.3.3.1.2.2.3,0,.3,0,.6v1.9Z"></path>
      <path class="cls-17" d="M210.7,256h.8c-.1.4-.3.7-.5.8-.2.2-.5.2-.9.2-.5,0-.9-.2-1.2-.5-.2-.3-.3-.6-.3-1.1s.1-.9.4-1.2c.3-.3.6-.4,1-.4s.8.2,1.1.5.4.8.4,1.4h-2.1c0,.2,0,.4.2.6s.3.2.5.2.2,0,.3-.1c0,0,.2-.2.2-.3ZM210.8,255.1c0-.2,0-.4-.2-.5s-.3-.2-.4-.2-.3,0-.4.2-.2.3-.2.5h1.2Z"></path>
      <path class="cls-17" d="M212.3,256.9v-4.3h.8v4.3h-.8Z"></path>
      <path class="cls-17" d="M213.9,256.9v-.8h.8v.8h-.8Z"></path>
    </g>
    <g>
      
      <line class="cls-12" x1="378.7" y1="191" x2="532.8" y2="191"></line>
      
    </g>
  </g>
  <g>
    <rect class="cls-18" x="48.6" y="48.6" width="181.7" height="29.7"></rect>
    
    <g>
      <path class="cls-24" d="M79.5,63.4c0,7.4-6,13.4-13.5,13.4s-13.5-6-13.5-13.4,6-13.4,13.5-13.4,13.5,6,13.5,13.4"></path>
      <path class="cls-21" d="M78.3,63.5c0,6.7-5.5,12.2-12.2,12.2s-12.2-5.4-12.2-12.2,5.5-12.2,12.2-12.2,12.2,5.4,12.2,12.2"></path>
      <path class="cls-19" d="M63.4,60.8c-.2,1.5-.3,2.7-.4,3.6h-.6s0,0,0,0c0,0,0-.2,0-.3,0-.1,0-.2,0-.2-.1,0-.3.1-.4.3-.1.2-.2.3-.4.3,0,0-.1,0-.2,0-.1,0-.2,0-.4,0-.1,0-.3,0-.4,0,0-.2-.2-.4-.6-.5,0,0,0-.2-.1-.3,0-.1-.1-.3-.1-.3,0,0,0-.1,0-.2,0,0,0-.2-.2-.4,0-.2-.1-.4-.1-.5,0-.1,0-.2,0-.3,0-.6,0-1.2,0-1.7,0-.7.1-1.4.3-2,0,0,0-.2,0-.3,0-.5.2-.8.5-1h0c.3-.5.7-.8,1.3-1,.3,0,.6.1.9.2.3.1.6.3.7.6.1,0,.2.2.2.4,0,.2,0,.3,0,.4h0c0,.5,0,.8,0,.9,0,.3,0,.5-.2.6,0,0-.2,0-.4-.1,0,0-.1,0-.2,0,0,0,0,0-.2,0,0,0-.1,0-.2,0,0,0,0,0-.1,0,0-.6,0-1,0-1.3,0,0-.1-.1-.2-.3,0-.1-.1-.2-.2-.2,0,0,0,.1,0,.1h-.2c-.2.1-.3.5-.4,1,0,.6-.1,1-.2,1.1,0,0,.1.2.1.4,0,0,0,.1,0,.3,0,.1,0,.2,0,.3,0,0,0,.1,0,.2h-.1c0,.4,0,.7,0,1.1,0,.3,0,.7,0,1,0,0,0,0-.2,0,0,0-.1,0-.2,0,0,0,0,0,.1,0,.2,0,.3.1.4.4,0,.2.2.3.2.3,0,0,.2,0,.3-.2.2-.2.3-.6.3-1,0-.2,0-.4,0-.7,0,0,0,.1,0,.2-.1,0-.2,0-.2,0,0,0,0,0,0-.1,0,0,0-.2,0-.2,0,0,.1,0,.1-.1,0,0,0,0,0-.1,0,0,0-.1,0-.1,0,0,0,0,0,0v-.4c.2,0,.6,0,1.1,0,0,0,0,0,0,.1,0,0,.1,0,.2,0,0,0,.1,0,.2,0,0,0,.2,0,.2,0"></path>
      <path class="cls-19" d="M67.7,64.7c-.1,0-.2,0-.3,0-.1,0-.3,0-.4,0-.2,0-.3,0-.4,0,0-.2-.1-.4-.2-.7,0-.4,0-.6-.1-.7,0,0,0,0,0-.1,0,0,0-.2-.2-.2-.1,0-.2-.1-.2-.2,0,0,0-.1.2-.2,0,0,0-.1,0-.3,0-.1,0-.2-.1-.3,0,0-.2.1-.5.2-.2,0-.3,0-.4.1,0,.6,0,1-.3,1.2-.1,0-.2,0-.2.1,0,.1-.1.2-.2.2h0c0,.1-.2.2-.3.1-.2,0-.3,0-.3,0v-.2c0,0,.7-6.1.7-6.1,0-.4,0-.6,0-.8,0-.3,0-.6.2-.6.1,0,.2.1.4.1.1,0,.3,0,.6,0,.3,0,.5,0,.6,0,.4,0,.5.3.5.8,0,.4,0,1,.2,1.7.2.7.3,1.3.3,1.7,0,.1,0,.3,0,.5-.2,0-.4.1-.6.2-.2,0-.4,0-.7,0,0-.6-.2-1.3-.2-1.8,0-.7-.2-1.2-.3-1.7l-.4,3.2c0,.3,0,.4.4.4,0,0,.2,0,.3,0,0,0,.2,0,.3.2,0,.2,0,.4.1.4.1,0,.3-.2.5-.2.2,0,.3-.1.5-.2,0,.1.2.3.2.6,0,.4,0,.6,0,.6,0,.1,0,.5.2.9,0,.4.1.7.1.9,0,.1,0,.2,0,.3"></path>
      <path class="cls-19" d="M72.9,59.4s0,.2,0,.4c0,.2,0,.3,0,.4,0,.1,0,.4,0,.6,0,0,0,.2,0,.3,0,.1,0,.2,0,.3,0,.5,0,.8-.2,1,0,.1,0,.2,0,.4,0,.4-.1.9-.4,1.5,0,0-.1,0-.2,0,0,0-.2,0-.2-.2,0-.1,0-.2-.1-.3,0-.6,0-1.4,0-2.5h0c0-.3,0-.5,0-.7,0-.2,0-.4,0-.8,0-.3,0-.6,0-.7,0-.1,0-.2,0-.3-.3.6-.4,1.7-.6,3.2v.2c-.1,0-.2.1-.3.1,0,0,0,0,0,0s0,0-.1,0c0,0-.1,0-.1,0h-.2c0,.2.2.2.4.2.2,0,.3,0,.3.2,0,.2,0,.4-.1.6,0,.3-.1.4-.1.6,0,0,0,.2,0,.3h-.8c0,0-.1-.3-.2-.6,0-.4,0-.6-.2-.8,0,0,0-.1,0-.2,0,0,0-.1,0-.2,0-.1,0-.2,0-.2,0,0,0-.3,0-.6,0-.3,0-.5,0-.6,0,0,0-.1,0-.2,0,0,0-.1,0-.2,0-.1,0-.2,0-.2s0,0,0,0c0,0,0-.2,0-.3,0-.2,0-.3,0-.3-.1.3-.2.7-.2,1.2,0,.7,0,1.1,0,1.2h0c0,0,0,.1,0,.1,0,.3,0,.6,0,1,0,.8,0,1.1,0,1.1-.1,0-.3.1-.4.1-.2,0-.4,0-.5,0,0-.2-.1-.4-.1-.6,0-.2,0-.5.1-.7-.1-.2-.2-.5-.1-.8,0,0,0-.2,0-.5,0-.2,0-.3,0-.4,0,0,.1,0,.1-.1s0,0,0-.2c0,0,0-.1,0-.2,0,0,0,0,0-.1l-.2-3.7c.1,0,.4-.1.7-.1.4,0,.6,0,.7,0,0,0,0,0,0,0,0,0,0,0,.1,0,0,0,0,0,0,0,0,0,0,0,0,0l.2.2c0,.3.1.8.2,1.5,0,.7.2,1.2.3,1.5.2-.7.3-1.2.5-1.7l.2-1.8h1.8c0,0,0,.6,0,.9,0,.3,0,.5,0,.6,0,.2,0,.4,0,.5,0,0,0,.2,0,.3,0,.1,0,.2,0,.3"></path>
      <path class="cls-19" d="M76.6,63.3h0c0,0,0,.2,0,.3,0,0,0,.2,0,.4,0,.2,0,.3,0,.4,0,0-.3,0-.7,0-.3,0-.5,0-.7,0l-.2-.2c0,0,0,.1,0,.1,0,0-.2,0-.5,0-.2,0-.4,0-.5,0-.1.1-.3.1-.4,0,0,0,0-.1,0-.2,0-.1,0-.2,0-.2,0-.2,0-.6,0-1.1,0-.5,0-.8,0-1.1,0-.3,0-.7,0-1,0,0,.2-.1.3-.1.1,0,.3,0,.4.2.2.2.4.2.4.2h0c0,0,0,0,.1-.3,0-.1,0-.2.2-.3h0c0,0,.1,0,.3-.1.1,0,.2-.3.3-.3,0,0,.2,0,.2.1.1,0,.2.3.2.5,0,.1,0,.3.1.4-.3,0-.6,0-.8,0,0,0-.1,0-.2,0,0,0-.2,0-.2,0,0,.1,0,.4,0,.7,0,.3,0,.6,0,.7,0,.3,0,.5,0,.8,0,0,.3,0,.9,0,.4,0,.7,0,.9,0M76.6,57.9c0,0-.1,0-.2,0-.2,0-.4,0-.7,0-.4,0-.6,0-.6,0-.1.2-.2.4-.2.7,0,.6,0,.9,0,.8.1,0,.2.2.2.3,0,.2,0,.3,0,.4,0,0,0,0,0,.2,0,0-.2,0-.3-.2-.1-.1-.2.3-.2.2v.2c0,0-.1,0-.1,0,0,0-.2,0-.3,0-.1,0-.2-.1-.3-.2,0-.1,0-.2,0-.2v-.2c-.1,0-.2.1-.2.1,0-.8,0-2.3,0-3.1.3,0,.6,0,1,0,.2,0,.6,0,1,0s.8,0,1,0c0,0,.1.2.1.3,0,0,0,.2,0,.4,0,.2,0,.3,0,.4"></path>
      <path class="cls-19" d="M63.8,70.2h0s0,.2,0,.5c0,.2,0,.4-.1.5h0c0,.2-.2.3-.4.3,0,0-.2.1-.3.1,0,0-.3,0-.6,0-.2,0-.2-.1-.2-.2,0,0-.1-.1-.1-.2,0,0-.2-.3-.3-.5,0-.2,0-.2-.1-.3,0,0-.1,0-.2-.2h0c0,0,0,0,0-.1,0,0,0,0,0,0,0,0,0,0,0,0,0,0,0,0,0,0,0-.2,0-.4,0-.8,0,0,0,0,0-.2,0,0,0-.2,0-.2.1-.3.4-.5.7-.6,0,0,.1,0,.3,0,.1,0,.2,0,.2,0,0,0,.2,0,.3,0,0,0,.2.1.3.2.2.2.2.4.3.6,0,0,0,.1,0,.2-.1,0-.2,0-.2.2h-.5s0-.1,0-.2c0,0,0,0,0-.2,0,0,0-.1,0-.2,0-.1,0-.2,0-.3h-.1c0,0,0,0,0,0,0,0,0,0,0,0,0,0,0,0,0,0,0,0,0,0-.1,0,0,.5,0,1,0,1.6,0,0,0,0,.1,0,0,0,0,0,0,0,0,0,0,0,0,0h0c0,0,0,.1,0,.2,0,0,0,0,0,.2,0,0,0,.1,0,.2,0,.1,0,.2,0,.2,0,0,0,.1,0,.2,0,0,0,0,.1,0,.1,0,.2,0,.3.2,0,0,0,0,0,0,0,0,0,0,0,0,0,0,0,0,0-.2,0-.1,0-.2,0-.2,0,0,0-.1,0-.2,0,0,0-.2,0-.2,0,0,0-.1,0-.2,0,0,0,0,0,0,0,0,0,0,0,0,.2,0,.5,0,.8,0"></path>
      <path class="cls-19" d="M65.8,70.6h0c0,0,0,.1,0,.2,0,.1,0,.2,0,.2,0,0,0,0,0,0,0,0,0,0,0,.1,0,0,0,0,0,0h0c0,0,0,.1,0,.1,0,0-.1,0-.2,0,0,0-.2,0-.3,0,0-.5,0-.9-.2-1.3,0,0,0,0,0-.1,0,0,0-.1,0-.1h0s0,0,0,0c0,0,0,0,0,0,0,0,0,0,0,0h0c0,0-.1,0-.1.2,0,0,0,.1,0,.1,0,0,0,0,0,0,0,0,0,0,0,0,0,0,0,0,0,0,0,0,0,0,0,0,0,0,0,.2,0,.5,0,.2,0,.4,0,.6h0c0,0,0,0,0,0,0,0-.1,0-.2,0,0,0-.1,0-.2,0-.2,0-.3,0-.3,0v-1.9c0,0-.1-.2-.1-.4v-.4c0-.2,0-.3,0-.4,0,0,0,0,.2-.1,0,0,.1,0,.3,0,0,0,.1,0,.2,0,0,0,0,0,.1,0,0,0,0,0,.1,0,.2,0,.3,0,.3-.1,0,0,.2,0,.2,0,0,0,.2,0,.2,0,.2.1.3.3.3.5,0,0,0,.3,0,.6l-.3.3c0,0,.1.3.2.6,0,.3.2.5.3.6M65.3,68.5h0s0,0,0-.2c0,0,0-.2,0-.2,0,0,0,0,0,.2,0,.1,0,0-.1.1-.1,0-.1,0-.1,0,0-.2,0-.1,0-.1h0s0,0,0,0c0,0,0,0,0,0,0,0,0,0,0,0,0,0,0,0,0,0,0,0,0,0,0,0,0,0,0,.1,0,.2,0,0,0,.1,0,.3,0,.1,0,.2,0,.3,0,0,0,0,.1,0,.1,0,.2,0,.3-.2,0,0,0-.1,0-.3,0-.1,0-.2.1-.3"></path>
      <path class="cls-19" d="M68.2,71.3c0,0-.1,0-.2,0,0,0-.1,0-.2,0-.1,0-.2,0-.2,0,0,0,0-.2-.1-.3,0-.2,0-.3,0-.3,0,0,0,0,0,0,0,0,0,0-.1,0,0,0-.1,0-.1,0,0,0,0,0,.1,0,0,0,0,0,0-.1,0,0,0-.1,0-.1,0,0-.1,0-.2,0-.1,0-.2,0-.2,0,0,.3,0,.7-.1.8,0,0-.1,0-.1,0,0,0,0,0-.1.1h0c0,0,0,0-.2,0-.1,0-.2,0-.2,0h0c0,0,.2-3.1.2-3.1,0-.2,0-.3,0-.3,0-.1,0-.2.1-.3,0,0,.1,0,.2,0,0,0,.2,0,.3,0,.1,0,.2,0,.3,0,.2,0,.3,0,.3.3,0,.2,0,.4.2.7.1.3.2.6.2.7,0,0,0,.2,0,.2,0,0-.2,0-.3,0-.1,0-.2,0-.4,0,0-.3-.2-.6-.2-.8,0-.3-.1-.5-.2-.7v1.4c0,.1,0,.2.1.2,0,0,0,0,.1,0,0,0,0,0,.2,0,0,.1,0,.2,0,.2,0,0,.1,0,.3-.1,0,0,.2,0,.3-.1,0,0,0,.1.1.2,0,.2,0,.2,0,.3,0,0,0,.2.1.4,0,.2,0,.3,0,.4,0,0,0,0,0,.1"></path>
      <path class="cls-19" d="M69.9,67.9h0c0,0-.1,0-.2,0,0,0,0,0-.2,0-.1,0-.2,0-.2,0,0,0,0,0,0,0,0,0,0,0,0,0,0,0,0,0,0,0,0,0,0,0,0,0,0,0,0,0,0,0h0c0,0,0,0,0,.1,0,0,0,0,0,0,0,0,0,0,0,0,0,0,0,.2,0,.4,0,.2,0,.3.1.4,0,0,0,0,.1,0,0,0,.1,0,.1,0,0,0,.1,0,.2,0,0,0,.2,0,.2,0v.4s-.1,0-.2,0c0,0,0,.1-.1.1,0,0,0,0-.2,0,0,0,0,0,0,0-.1,0-.2.2-.1.4,0,0,0,0,0,.1,0,0,0,0,0,.1,0,0-.2,0-.3,0-.1,0-.2,0-.2,0,0,0,0,0,0,0h-.1s-.2-2-.2-2v-.4c.1,0,.3,0,.6,0,.2,0,.4,0,.7,0,0,0,0,0,0,0,0,0,0,0,0,0,0,0,0,0,0,0,0,0,0,0,0,0h0c0,0,.1,0,.1.1,0,0,0,0,0,.1,0,0,0,.1,0,.1,0,0,0,0,0,0M69.2,71.3s-.1,0-.2,0c-.1,0-.2,0-.2,0,0,0,0,0,0-.1,0,0,0-.1-.1,0,0,0,0,0,0,0h-.1s0-1,0-1c0,0,.1,0,.2,0,0,0,.2,0,.2,0,0,0,0,0,.2,0h.1c0,.3.1.8.1,1.1"></path>
      <path class="cls-19" d="M72.4,68h0c0,0-.2,0-.4,0-.1,0-.2,0-.3,0,0,0,0,0,0,.2h0c0,0,0,0,0,0h0c0,.6,0,1,0,1,0,.2,0,.3,0,.4,0,0,0,.2,0,.3,0,0,0,.2,0,.3,0,.1,0,.6,0,.7,0,0,0,.1,0,.2,0,0-.1,0-.2,0-.1,0-.2,0-.4,0,0,0,0,0,0,0,0,0,0,0,0,0,0,0,0,0-.2,0,0-.6-.1-1.8-.3-3.1,0,0-.2,0-.3,0-.1,0-.3,0-.3,0,0,0,0,0,0-.2,0-.1,0-.4,0-.5,0,0,.2,0,.4,0,.2,0,.2,0,.2,0,0,0,.1,0,.2,0,0,0,0,0,0,0,0,0,0,.1,0,.2,0,0,0,0,0,0,0,0,0,0,.1,0,0,0,.2,0,.2,0,0,0,.2,0,.2,0,0,0,0,0,.2,0,0,0,.1-.2.1-.2,0,0,0,0,0,0,0,0,0,0,0,0,.2,0,.2,0,.3,0,0,0,.2,0,.3,0,0,0,0,.2,0,.3,0,.2,0,.2,0,.3"></path>
      <path class="cls-19" d="M74.5,70.1h0s0,0,0,.1c0,0,0,0,0,.2,0,0,0,.1,0,.2,0,0-.2,0-.4,0-.1,0-.3,0-.4,0h-.1c0,0,0,0,0,0,0,0-.1,0-.3,0-.1,0-.2,0-.3,0,0,0-.1,0-.2,0,0,0,0,0,0-.1,0,0,0,0,0-.1,0-.1,0-.3,0-.5,0-.2,0-.4,0-.5,0-.2,0-.3,0-.4,0,0,0,0,.2,0,0,0,.1,0,.2,0,.1,0,.2,0,.2,0h0s0,0,0-.1c0,0,0-.1,0-.1h0s0,0,.2,0c0,0,.1-.2.2-.2,0,0,0,0,.1,0,0,0,.1.2.2.3,0,0,0,.1,0,.2-.2,0-.3,0-.5,0,0,0,0,0-.1,0,0,0,0,0-.1,0,0,0,0,.2,0,.3,0,.1,0,.2,0,.3,0,.1,0,.2,0,.3,0,0,.2,0,.5,0,.2,0,.4,0,.5,0M74.3,67.7s0,0-.1,0c0,0-.2,0-.4,0-.2,0-.3,0-.4,0,0,0,0,.1,0,.3,0,.3,0,.4,0,.4,0,0,0,0,0,.1,0,0,0,.1,0,.2,0,0,0,0,0,.1,0,0,0,0-.1,0,0,0,0,.1,0,0h0c0,.1,0,0,0,0,0,0,0,0-.2,0,0,0-.1,0-.2,0,0,0,0,0,0,0h0c0,0,0,0,0,0,0-.3-.1-.9,0-1.3.2,0,.3,0,.5,0,.1,0,.3,0,.5,0,.3,0,.5,0,.6,0,0,0,0,0,0,.1,0,0,0,0,0,.2,0,0,0,.2,0,.2"></path>
      <path class="cls-19" d="M76.5,69.7h0c0,0,0,.1,0,.2,0,.1,0,.2,0,.2,0,0,0,0,0,0,0,0,0,0,0,0,0,0,0,0,0,0,0,0,0,0,0,0,0,0,0,0,0,0,0,0-.1,0-.2,0,0,0-.2,0-.3,0,0-.5,0-.9-.2-1.3,0,0,0,0,0-.1,0,0,0-.1,0-.1h0s0,0,0,0c0,0,0,0,0,0,0,0,0,0,0,0h0c0,0-.1,0-.1.2,0,0,0,.1,0,.1,0,0,0,0,0,0,0,0,0,0,0,0,0,0,0,0,0,0,0,0,0,0,0,0,0,0,0,.2,0,.5,0,.2,0,.4,0,.6h0c0,0,0,0,0,0,0,0-.1,0-.2,0,0,0-.1,0-.2,0-.2,0-.3,0-.3,0v-1.9c0,0-.1-.2-.1-.4v-.4c0-.2,0-.3,0-.4,0,0,0,0,.2-.1,0,0,.1,0,.3,0,0,0,.1,0,.2,0h.1c0,0,0,0,.1,0,.2,0,.3,0,.3-.1,0,0,.2,0,.2,0,0,0,.2,0,.2,0,.2.1.3.3.3.5,0,0,0,.3,0,.6l-.3.3c0,0,.1.3.2.6,0,.3.2.5.3.6M76,67.6h0s0,0,0-.2c0,0,0-.2-.1-.2,0,0,0,0,0,0,0,.1,0,.2,0,.2-.1,0-.1,0-.2-.1,0,0,0,0,0,0h0s0,0,0,0c0,0,0,0,0,0,0,0,0,0,0,0,0,0,0,0,0,0,0,0,0,0,0,0,0,0,0,.1,0,.2,0,0,0,.1,0,.3,0,.1,0,.2,0,.3,0,0,0,0,.1,0,.1,0,.2,0,.3-.2,0,0,0-.1,0-.3,0-.1,0-.2.1-.3"></path>
      <path class="cls-19" d="M55.8,61.1h0c0,.2,0,.3,0,.4,0,0,0,0-.1,0,0,0,0,0,0,0,0,0,0,0,0,0,0,0,0,0,0,0,0,0,0,0,0,0,0,0,0,0,0,0,0,0,0,0,0,0,0,0,0,0,0,.1,0,0,0,0,0,.1,0,0,0,.1,0,.2,0,0,0,.1,0,.2,0,0,0,.2,0,.3,0,.1,0,.2,0,.4,0,0,0,0,0,0,0,0,0,0,0,0,0,0,0,0,0,0s0,0,0,0c0,.2,0,.3,0,.3,0,0,0,0,0,0,0,0-.1,0-.2,0,0,0,0,0,0,0h0c0,.1.1.2.1.3,0,0,0,0,0,0,0,0,0,0,0,0h0c0-.1,0,0,0,0,0,0,0,0,0,0,0,0,0,0,0,0,0,0,0,0-.1,0,0,0,0,0,0,0,0,0,0,0,0-.1,0,0,0,0,0,0,0,0,0-.3,0-.7,0-.3,0-.5,0-.7,0,0,0-.2,0-.2,0,0,0,0,0,0s0,0,0,0c0,0,0,0,0,0,0,0,0,0,0-.1,0,0,0-.1,0-.1,0,0,0,0,0-.1h.1s0-.1,0-.3c0,0,0,0,0-.1,0,0,0-.1,0-.1,0-.2,0-.4.2-.4,0,0,.1,0,.2,0h.1c0,0,0,.1,0,.1,0,0,0,.1,0,.2,0,.1,0,.2,0,.2,0,0,0,.2,0,.2,0,0,0,0,.1,0,0,0,0,0,.1,0,0,0,0,0,.1,0M55.5,61.4h0c0-.1,0-.1,0-.1h0Z"></path>
      <path class="cls-19" d="M57.1,60.8h0c0,0,0,.2,0,.2,0,0,0,.2,0,.2,0,0,0,0-.1,0,0,0,0,0-.1,0,0,.2,0,.4,0,.7,0,.4,0,.6,0,.7,0,0,0,0-.1,0,0,0,0,0,0,.1,0,0,0,0,0,0,0,0,0,0,0,0,0,0,0,0,0,0,0,0,0,0-.1.1,0,0,0,0-.1,0,0,0-.1,0-.1,0v-1.3s0,0,0,0h0c0,0,0-.4,0-.8,0-.3,0-.6,0-.8,0,0,0,0,.3,0,.1,0,.2,0,.2,0,0,0,0,.2,0,.3,0,.1,0,.3,0,.3,0,0,0,.2,0,.3.1-.1.2-.2.4-.2M57.5,61.1c0,.1,0,.2,0,.4,0,.5,0,1,0,1.6,0,0-.1,0-.2,0,0,0-.2,0-.2,0,0,0,0-.2,0-.4,0-.3,0-.4,0-.4,0-.6,0-1.1.2-1.5.2,0,.3.1.3.3"></path>
      <path class="cls-19" d="M59.1,61.7s0,0,0,.1c0,0,0,0,0,.1,0,0,0,0,0,.1,0,0,0,0,0,0s0,0,0,0c0,0,0,0,0,0,0,0,0,0,0,0l-.2-.3c0,0,0,.2,0,.2,0,0,0,0,0,.1-.1,0-.2,0-.2,0h0s0,0,0,0c0,0,0,.2,0,.3,0,.1,0,.2,0,.3,0,0,.1,0,.2,0,0,0,0,0,0,0,0,0,0-.1,0-.2,0,0,0-.1.1-.1,0,0,0,0,.2,0,0,0,.1,0,.1,0,0,0,0,0,0,.1,0,0,0,0,0,.1,0,0,0,0,0,0,0,0,0,0-.1.1,0,0,0,.1-.1.1,0,0,0,0-.1,0,0,0,0,0-.2,0,0,0-.1,0-.2,0,0,0,0-.1-.2-.2,0,0-.2-.1-.2-.2,0,0,0,0,0,0,0,0,0,0,0,0h0s0,0,0-.1c0,0,0,0,0,0,0,0,0,0,0,0,0,0,0,0,0,0v-.2c0,0,0-.1,0-.2,0-.2,0-.4,0-.6,0-.2.1-.3.2-.3,0,0,0,0,0,0,0,0,.2-.1.3-.1.1,0,.3,0,.5.1.1.2.2.4.2.7M58.5,61.2h0s0,0,0,0h0c0,.2,0,.2,0,.3,0,.2,0,.3,0,.3h.1c0,0,0,0,0-.2,0,0,0-.1,0-.2,0,0,0-.2,0-.2"></path>
      <polygon class="cls-24" points="60.2 66.3 60.3 66.4 60.8 65.2 60.6 65.1 60.2 66.3 60.3 66.4 60.2 66.3"></polygon>
      <polygon class="cls-24" points="60.4 66.1 60.3 66.1 60.2 66.3 60.3 66.4 60.5 66.2 60.4 66.3 60.4 66.1"></polygon>
      <polygon class="cls-24" points="61.5 66.1 61.6 66.1 60.4 66.1 60.4 66.3 61.6 66.2 61.7 66.2 61.5 66.1"></polygon>
      <polygon class="cls-24" points="62 65 62 64.9 61.5 66.1 61.7 66.2 62.1 65 62 64.9 62 65"></polygon>
      <polygon class="cls-24" points="60.9 65 60.9 65.1 62 65 62 64.9 60.9 64.9 60.8 64.9 60.9 65"></polygon>
      <polygon class="cls-24" points="60.8 65.2 60.8 65.2 60.9 65 60.8 64.9 60.7 65.1 60.6 65.1 60.8 65.2"></polygon>
      <polygon class="cls-24" points="61.8 66.3 61.9 66.2 61.6 66.1 61.5 66.2 61.8 66.4 61.9 66.3 61.8 66.3 61.8 66.3"></polygon>
      <polygon class="cls-24" points="62.3 65.1 62.2 65.1 61.8 66.3 61.9 66.3 62.4 65.1 62.3 65 62.3 65.1"></polygon>
      <polygon class="cls-24" points="62.1 65 62 65 62.3 65.1 62.3 65 62.1 64.9 62 64.9 62.1 65"></polygon>
      <polygon class="cls-19" points="60.7 65.1 60.7 65.1 60.9 65 62 64.9 62 64.9 62 64.9 62.1 65 62.1 65 62.3 65.1 62.4 65.1 62.3 65.2 62.9 66.4 62.4 67.6 61.8 66.3 61.8 66.3 61.8 66.3 61.8 66.2 61.6 66.1 61.5 66.2 61.5 66.1 60.4 66.2 60.3 66.3 60.7 65.1"></polygon>
      <polygon class="cls-24" points="62.4 67.6 62.5 67.6 61.9 66.2 61.8 66.3 62.4 67.7 62.5 67.7 62.3 67.6 62.4 67.6"></polygon>
      <polygon class="cls-24" points="62.8 66.5 62.8 66.4 62.3 67.6 62.5 67.7 63 66.5 63 66.4 62.8 66.5"></polygon>
      <polygon class="cls-24" points="62.4 65.1 62.2 65.1 62.8 66.5 63 66.4 62.4 65 62.2 65.1 62.4 65.1"></polygon>
      <polygon class="cls-22" points="62.3 65.4 62.4 65.6 62.4 65.7 62.4 65.8 62.4 66 62.3 66.1 62.2 66.3 62.1 66.4 61.9 66.5 61.8 66.5 61.8 66.6 61.7 66.6 61.6 66.6 61.5 66.6 61.4 66.6 61.3 66.6 61.2 66.6 61.1 66.6 61.1 66.6 61 66.5 60.9 66.5 60.9 66.4 60.8 66.4 60.7 66.3 60.7 66.3 60.6 66.1 60.6 66 60.6 65.8 60.7 65.7 60.7 65.6 60.8 65.4 60.9 65.3 61.1 65.2 61.2 65.2 61.3 65.1 61.4 65.1 61.5 65.1 61.5 65.1 61.6 65.1 61.7 65.1 61.8 65.1 61.9 65.1 62 65.1 62 65.2 62.1 65.2 62.2 65.2 62.2 65.3 62.3 65.4 62.3 65.4"></polygon>
      <polygon class="cls-24" points="62.4 65.6 62.5 65.8 62.5 65.9 62.5 66.1 62.4 66.2 62.4 66.4 62.3 66.5 62.1 66.6 62 66.7 61.9 66.8 61.8 66.8 61.7 66.8 61.6 66.8 61.5 66.8 61.5 66.9 61.4 66.8 61.3 66.8 61.2 66.8 61.1 66.8 61.1 66.8 61 66.7 60.9 66.7 60.9 66.6 60.8 66.6 60.8 66.5 60.7 66.4 60.7 66.2 60.7 66.1 60.7 65.9 60.8 65.8 60.9 65.7 61 65.5 61.2 65.4 61.3 65.4 61.3 65.4 61.4 65.3 61.5 65.3 61.6 65.3 61.7 65.3 61.8 65.3 61.9 65.3 61.9 65.3 62 65.4 62.1 65.4 62.2 65.4 62.2 65.5 62.3 65.5 62.3 65.6 62.4 65.7 62.4 65.6"></polygon>
      <polygon class="cls-22" points="62.4 65.8 62.5 66 62.5 66.1 62.5 66.2 62.5 66.4 62.4 66.5 62.3 66.7 62.2 66.8 62 66.9 61.9 66.9 61.8 67 61.8 67 61.7 67 61.6 67 61.5 67 61.4 67 61.3 67 61.2 67 61.2 66.9 61.1 66.9 61 66.9 61 66.8 60.9 66.8 60.9 66.7 60.8 66.7 60.7 66.5 60.7 66.4 60.7 66.2 60.8 66.1 60.8 65.9 60.9 65.8 61.1 65.7 61.2 65.6 61.3 65.6 61.4 65.5 61.5 65.5 61.6 65.5 61.7 65.5 61.7 65.5 61.8 65.5 61.9 65.5 62 65.5 62.1 65.5 62.1 65.6 62.2 65.6 62.3 65.6 62.3 65.7 62.4 65.8 62.4 65.8"></polygon>
      <polygon class="cls-24" points="62.5 66.1 62.6 66.2 62.6 66.3 62.6 66.5 62.5 66.6 62.5 66.8 62.4 66.9 62.2 67 62.1 67.1 62 67.2 61.9 67.2 61.8 67.2 61.7 67.2 61.6 67.2 61.6 67.3 61.5 67.2 61.4 67.2 61.3 67.2 61.2 67.2 61.2 67.2 61.1 67.1 61 67.1 61 67 60.9 67 60.9 66.9 60.8 66.8 60.8 66.6 60.8 66.5 60.8 66.3 60.9 66.2 61 66.1 61.1 65.9 61.3 65.8 61.4 65.8 61.4 65.8 61.5 65.8 61.6 65.7 61.7 65.7 61.8 65.7 61.9 65.7 62 65.7 62 65.7 62.1 65.8 62.2 65.8 62.3 65.8 62.3 65.9 62.4 65.9 62.4 66 62.5 66.1 62.5 66.1"></polygon>
      <polygon class="cls-22" points="62.6 66.2 62.6 66.3 62.7 66.5 62.7 66.6 62.6 66.8 62.6 66.9 62.4 67.1 62.3 67.2 62.2 67.3 62.1 67.3 62 67.3 61.9 67.4 61.8 67.4 61.7 67.4 61.6 67.4 61.6 67.4 61.5 67.4 61.4 67.4 61.3 67.3 61.2 67.3 61.2 67.3 61.1 67.2 61 67.2 61 67.1 60.9 67.1 60.9 66.9 60.9 66.8 60.9 66.6 60.9 66.5 61 66.3 61.1 66.2 61.2 66.1 61.4 66 61.4 66 61.5 65.9 61.6 65.9 61.7 65.9 61.8 65.9 61.9 65.9 62 65.9 62.1 65.9 62.1 65.9 62.2 65.9 62.3 66 62.4 66 62.4 66 62.5 66.1 62.5 66.1 62.6 66.2"></polygon>
      <polygon class="cls-24" points="62.6 66.4 62.7 66.6 62.7 66.7 62.7 66.9 62.7 67 62.6 67.2 62.5 67.3 62.4 67.4 62.2 67.5 62.1 67.6 62.1 67.6 62 67.6 61.9 67.6 61.8 67.6 61.7 67.6 61.6 67.6 61.5 67.6 61.5 67.6 61.4 67.6 61.3 67.6 61.2 67.5 61.2 67.5 61.1 67.4 61 67.4 61 67.3 60.9 67.2 60.9 67 60.9 66.9 61 66.7 61 66.6 61.1 66.5 61.3 66.3 61.4 66.2 61.5 66.2 61.6 66.2 61.7 66.1 61.8 66.1 61.9 66.1 61.9 66.1 62 66.1 62.1 66.1 62.2 66.1 62.3 66.2 62.3 66.2 62.4 66.2 62.5 66.3 62.5 66.3 62.6 66.4 62.6 66.4"></polygon>
      <polygon class="cls-24" points="54.6 64.6 54.6 64.6 54.2 65.8 54.3 65.8 54.8 64.6 54.8 64.6 54.6 64.6"></polygon>
      <polygon class="cls-24" points="54.6 64.5 54.6 64.5 54.6 64.6 54.8 64.6 54.8 64.5 54.8 64.5 54.6 64.5"></polygon>
      <polygon class="cls-24" points="54.6 64.5 54.6 64.5 54.8 64.5 54.7 64.4 54.6 64.5"></polygon>
      <rect class="cls-19" x="54.6" y="64.4" width=".2" height="0" transform="translate(-16 18.1) rotate(-16.4)"></rect>
      <polygon class="cls-24" points="54.6 64.3 54.6 64.3 54.6 64.4 54.7 64.4 54.7 64.3 54.7 64.3 54.6 64.3"></polygon>
      <polygon class="cls-24" points="54.5 64.3 54.5 64.3 54.6 64.3 54.7 64.3 54.7 64.2 54.7 64.3 54.5 64.3"></polygon>
      <polygon class="cls-24" points="54.7 64.2 54.5 64.2 54.5 64.3 54.7 64.3 54.7 64.2 54.5 64.2 54.7 64.2 54.7 64.2"></polygon>
      <rect class="cls-15" x="54.7" y="67.7" width=".2" height="0" transform="translate(-12.1 11.9) rotate(-11.2)"></rect>
      <polygon class="cls-24" points="55.2 66.7 55.2 66.7 54.7 67.9 54.9 67.9 55.3 66.7 55.3 66.7 55.2 66.7"></polygon>
      <polygon class="cls-24" points="55.1 66.6 55.2 66.7 55.3 66.7 55.3 66.6 55.1 66.6 55.1 66.6"></polygon>
      <polygon class="cls-24" points="55.1 66.6 55.1 66.6 55.3 66.6 55.3 66.5 55.1 66.6"></polygon>
      <polygon class="cls-24" points="55.1 66.5 55.1 66.5 55.1 66.6 55.3 66.5 55.3 66.5 55.3 66.5 55.1 66.5"></polygon>
      <polygon class="cls-24" points="55.3 66.4 55.1 66.4 55.1 66.5 55.3 66.5 55.3 66.4 55.1 66.4 55.3 66.4"></polygon>
      <path class="cls-15" d="M54.2,65.5h0s0,0,0,0Z"></path>
      <polygon class="cls-15" points="54.2 65.8 54.2 65.8 54.3 65.8 54.3 65.8 54.2 65.8 54.2 65.8"></polygon>
      <polygon class="cls-19" points="54.1 65.5 54.2 65.5 54.2 65.4 54.6 64.2 54.6 64.2 54.6 64.3 54.6 64.3 54.7 64.4 54.7 64.5 54.7 64.5 54.7 64.6 54.8 64.6 54.3 65.8 54.3 65.8 54.2 65.8 54.2 65.8 54.2 65.8 54.3 65.8 54.2 65.8 54.2 65.9 54.2 65.8 54.2 65.8 54.1 65.7 54.2 65.7 54.2 65.7 54.1 65.7 54.1 65.6 54.1 65.5 54.2 65.5 54.1 65.5 54.1 65.5 54.1 65.5"></polygon>
      <polygon class="cls-19" points="54.2 65.7 57.6 65.6 57.7 65.6 57.7 65.6 57.8 65.6 57.8 65.6 57.9 65.7 58 65.7 58 65.7 58.1 65.8 58.1 65.8 58.1 65.8 58.2 65.8 58.2 65.9 58.2 65.9 58.2 65.9 58.3 66 58.1 66 58.1 66 58.1 66 58 65.9 58 65.9 58 65.9 58 65.9 57.9 65.8 57.9 65.8 57.8 65.8 57.8 65.8 57.7 65.8 57.7 65.8 57.6 65.8 57.6 65.8 54.2 65.9 54.2 65.7"></polygon>
      <polygon class="cls-19" points="58.1 66 58.1 66 58.1 66 58.1 66"></polygon>
      <polygon class="cls-24" points="59.9 68.8 59.9 68.8 59.4 70 59.6 70 60.1 68.8 60.1 68.8 59.9 68.8"></polygon>
      <polygon class="cls-24" points="58.6 64.8 58.6 64.8 59.9 68.8 60.1 68.8 58.7 64.8 58.7 64.7 58.6 64.8"></polygon>
      <polygon class="cls-24" points="58.5 64.8 58.5 64.8 58.6 64.8 58.7 64.7 58.7 64.7 58.7 64.7 58.5 64.8 58.5 64.8"></polygon>
      <polygon class="cls-24" points="58.5 64.7 58.5 64.7 58.5 64.8 58.7 64.7 58.6 64.6 58.6 64.6 58.5 64.7"></polygon>
      <polygon class="cls-24" points="58.5 64.7 58.4 64.7 58.5 64.7 58.6 64.6 58.5 64.6 58.5 64.5 58.5 64.7"></polygon>
      <polygon class="cls-24" points="58.4 64.6 58.4 64.6 58.5 64.7 58.5 64.5 58.5 64.5 58.4 64.5 58.4 64.6"></polygon>
      <polygon class="cls-24" points="58.3 64.6 58.3 64.6 58.4 64.6 58.4 64.5 58.4 64.5 58.3 64.5 58.3 64.6 58.3 64.6"></polygon>
      <polygon class="cls-24" points="58.2 64.6 58.2 64.6 58.3 64.6 58.4 64.5 58.3 64.4 58.2 64.6 58.2 64.6"></polygon>
      <polygon class="cls-24" points="58.2 64.6 58.1 64.6 58.2 64.6 58.3 64.4 58.2 64.4 58.2 64.4 58.2 64.6"></polygon>
      <polygon class="cls-24" points="58.1 64.6 58.1 64.6 58.2 64.6 58.2 64.4 58.1 64.4 58.1 64.4 58.1 64.6"></polygon>
      <polygon class="cls-24" points="54.8 64.6 54.7 64.7 58.1 64.6 58.1 64.4 54.7 64.5 54.6 64.6 54.8 64.6 54.8 64.6"></polygon>
      <polygon class="cls-15" points="55.6 68.3 55.6 68.3 55.6 68.3 55.6 68.3"></polygon>
      <path class="cls-15" d="M57.5,68.8v.2s0-.2,0-.2Z"></path>
      <path class="cls-19" d="M54.7,67.8h0c0,0,0,.2,0,.2h0c0,0,.2.2.2.2h.2c0,.1.2.2.2.2h.2c0,0,0,.1,0,.1h.2c0,0,.2.2.2.2h.2c0,0,.2.2.2.2h0s.2,0,.2,0h.2c0,0,0,0,0,0h.3s.3,0,.3,0h.3s0,0,0,0h.3s.3,0,.3,0h.4s0,0,0,0l.5-1.2h0c0-.1,0,0,0,0h0s0,0,0,0h0s0,0,0,0h0s-.3,0-.3,0h-.7s-.3,0-.3,0h-.3s-.3,0-.3,0h-.2c0,0-.2-.1-.2-.1h-.2c0,0-.2-.2-.2-.2h-.2c0,0-.2-.2-.2-.2h-.2c0-.1-.2-.2-.2-.2h-.2c0-.1-.1-.2-.1-.2h0s0,0,0,0h0c0,0,0-.2,0-.2h0s0-.1,0-.1h0s0,0,0,0h0s-.5,1.2-.5,1.2h0s0,.1,0,.1h0ZM54.7,67.6h0s0,0,0,0h0Z"></path>
      <polygon class="cls-24" points="58.8 67.8 59.2 67.8 59.2 67.6 58.8 67.6 58.8 67.8"></polygon>
      <rect class="cls-19" x="58.5" y="67.6" width=".3" height=".2" transform="translate(-1.6 1.4) rotate(-1.3)"></rect>
      <polygon class="cls-24" points="58.2 67.8 58.2 67.8 58.5 67.8 58.5 67.7 58.2 67.6 58.2 67.6 58.2 67.8 58.2 67.8"></polygon>
      <polygon class="cls-24" points="57.9 67.8 57.9 67.8 58.2 67.8 58.2 67.6 57.9 67.6 57.9 67.6 57.9 67.8"></polygon>
      <polygon class="cls-24" points="57.6 67.7 57.9 67.8 57.9 67.6 57.7 67.6 57.6 67.7"></polygon>
      <polygon class="cls-24" points="57.4 67.7 57.4 67.7 57.6 67.7 57.7 67.6 57.4 67.5 57.4 67.5 57.4 67.7"></polygon>
      <polygon class="cls-24" points="57.1 67.6 57.4 67.7 57.4 67.5 57.2 67.5 57.1 67.6 57.1 67.6"></polygon>
      <polygon class="cls-24" points="56.9 67.6 56.9 67.6 57.1 67.6 57.2 67.5 56.9 67.4 56.9 67.4 56.9 67.6"></polygon>
      <polygon class="cls-24" points="56.6 67.5 56.6 67.5 56.9 67.6 56.9 67.4 56.7 67.3 56.7 67.3 56.6 67.5 56.6 67.5"></polygon>
      <polygon class="cls-24" points="56.4 67.4 56.6 67.5 56.7 67.3 56.5 67.3 56.4 67.4"></polygon>
      <polygon class="cls-24" points="56.2 67.3 56.4 67.4 56.5 67.3 56.3 67.2 56.2 67.3"></polygon>
      <polygon class="cls-24" points="56 67.2 56 67.2 56.2 67.3 56.3 67.2 56.1 67.1 56.1 67.1 56 67.2 56 67.2"></polygon>
      <polygon class="cls-24" points="55.8 67.1 56 67.2 56.1 67.1 55.9 67 55.8 67.1 55.8 67.1"></polygon>
      <polygon class="cls-24" points="55.6 67 55.8 67.1 55.9 67 55.7 66.9 55.6 67 55.6 67"></polygon>
      <polygon class="cls-24" points="55.4 66.9 55.6 67 55.7 66.9 55.5 66.8 55.4 66.9"></polygon>
      <polygon class="cls-24" points="55.3 66.7 55.2 66.8 55.4 66.9 55.5 66.8 55.3 66.7 55.2 66.7 55.3 66.7"></polygon>
      <polygon class="cls-24" points="76.4 64.6 75.9 65.8 77.4 66.3 77.7 65.5 77.8 65.4 77.8 65.3 77.7 65.2 77.7 65.2 77.7 65.1 77.6 65 77.6 64.9 77.5 64.9 77.4 64.8 77.4 64.7 77.3 64.7 77.2 64.6 77.1 64.6 77 64.5 77 64.5 76.9 64.5 76.8 64.5 76.8 64.4 76.7 64.4 76.6 64.4 76.6 64.5 76.5 64.5 76.4 64.5 76.4 64.6"></polygon>
      <polygon class="cls-24" points="77.3 66.2 77.4 66.2 75.9 65.7 75.9 65.8 77.4 66.3 77.5 66.3 77.3 66.2"></polygon>
      <polygon class="cls-19" points="54.1 65.4 54.1 65.4 54.5 64.2 54.7 64.2 54.2 65.4 54.2 65.5 54.2 65.5 54.1 65.5 54.1 65.5 54.1 65.4"></polygon>
      <polygon class="cls-15" points="61.5 68.2 61.4 68.3 61.4 68.3 61.5 68.2"></polygon>
      <path class="cls-19" d="M54.1,65.7h0c0,0,0,0,0,0h.1s0,0,0,0h3.4c0-.1,0-.1,0-.1h0s0,0,0,0h0s0,0,0,0h0s0,.1,0,.1h0c0,0,0,0,0,0l1.3,4h0s0,0,0,0h.2s.1,0,.1,0h0s0,0,0,0h0s0-.1,0-.1h.1c0-.1,0-.1,0-.1h0c0,0,0-.2,0-.2h0c0,0,0-.2,0-.2h0c0-.1,0-.2,0-.2h0c0-.1,0-.2,0-.2h0c0,0,0-.2,0-.2h0c0,0,0-.2,0-.2h0c0,0,0-.1,0-.1h0c0,0,0-.1,0-.1h0s0,0,0,0h0c0,0,0,0,0,0h0c0,0,0-.1,0-.1h0c0,0,0-.1,0-.1h0s0,0,0,0h0s0,0,0,0h0s0,0,0,0h.1s.1,0,.1,0h.1s.1,0,.1,0h.1s0,0,0,0l14.6-1.1h0s0,0,0,0h0s0,0,0,0h0s0,0,0,0h0c0,0,0-.1,0-.1h0s.3-.6.3-.6h-.1c0,0,0,0,0,0h0s0,0,0,0h0c0,.1,0,.2,0,.2h0s0,0,0,0h0s0,0,0,0h0s-14.6,1.1-14.6,1.1h0s0,0,0,0h0s0,0,0,0h-.2s0,0,0,0h0s0,0,0,0h0s0,0,0,0h0s0,0,0,0h0s0,0,0,0h0s-.2.1-.2.1l-.2.2-.2.2-.2.2-.2.2v.2c-.1,0-.3.2-.3.2h-.1c0,.1,0,.2,0,.2h0s0,0,0,0h-.2s0,0,0,0h0s-1.3-4-1.3-4h0c0,0,0-.1,0-.1h0s0,0,0,0h0s0,0,0,0h0s0,0,0,0h-3.4c0,.1-.4,1.2-.4,1.2h0s-.2,0-.2,0ZM78.4,65.8h0s0,0,0,0h0Z"></path>
      <polygon class="cls-24" points="77.9 66.1 78 66.1 78 66 78.1 66 78.2 66 78.3 66 78.3 65.9 78.4 65.9 78.5 65.8 78.3 65.7 78.3 65.8 78.2 65.8 78.2 65.8 78.1 65.9 78.1 65.9 78 65.9 77.9 65.9 77.9 65.9 77.9 66.1"></polygon>
      <polygon class="cls-24" points="63.3 67.2 77.9 66.1 77.9 65.9 63.3 67 63.3 67.2"></polygon>
      <polygon class="cls-24" points="61.9 67.4 62 67.4 62 67.3 62.1 67.3 62.2 67.3 62.3 67.3 62.4 67.2 62.5 67.2 62.6 67.2 62.7 67.2 62.7 67.2 62.8 67.2 62.9 67.2 63 67.2 63.1 67.2 63.2 67.2 63.3 67.2 63.3 67 63.2 67 63.1 67 63 67 62.9 67 62.8 67 62.7 67 62.6 67.1 62.5 67.1 62.5 67.1 62.4 67.1 62.3 67.1 62.2 67.1 62.1 67.2 62 67.2 61.9 67.2 61.8 67.3 61.9 67.4"></polygon>
      <polygon class="cls-24" points="60.6 68.8 60.6 68.8 60.7 68.8 60.7 68.7 60.8 68.6 60.9 68.5 60.9 68.4 61 68.3 61.1 68.2 61.2 68.1 61.3 68 61.4 67.9 61.5 67.8 61.5 67.7 61.6 67.6 61.7 67.5 61.8 67.5 61.9 67.4 61.8 67.3 61.7 67.3 61.6 67.4 61.5 67.5 61.4 67.6 61.3 67.6 61.3 67.7 61.2 67.9 61.1 68 61 68.1 60.9 68.2 60.8 68.3 60.7 68.4 60.7 68.5 60.6 68.6 60.5 68.7 60.5 68.7 60.5 68.7 60.6 68.8"></polygon>
      <polygon class="cls-22" points="57.8 64.5 58.1 64.5 58.1 64.5 55.5 63.6 55.4 63.7 57.8 64.5 57.8 64.5"></polygon>
      <polygon class="cls-22" points="57.8 64.5 54.7 64.6 54.7 64.5 54.7 64.5 54.7 64.4 54.6 64.3 54.6 64.3 54.6 64.2 54.6 64.2 54.7 64.1 54.8 64 55 63.9 55.1 63.9 55.2 63.8 55.4 63.7 55.4 63.7 57.8 64.5 57.8 64.5"></polygon>
      <polygon class="cls-23" points="55.9 66.3 58 66.2 58.8 66.6 59.1 67.4 59.2 67.7 58.9 67.7 58.5 67.7 58.2 67.7 57.9 67.7 57.6 67.7 57.4 67.6 57.1 67.6 56.9 67.5 56.7 67.4 56.5 67.3 56.3 67.2 56.1 67.1 55.8 67 55.6 66.9 55.4 66.8 55.2 66.7 55.2 66.6 55.2 66.6 55.2 66.5 55.2 66.4 55.9 66.3"></polygon>
      <polygon class="cls-22" points="61.2 66.6 61.2 66.6 61.5 66.8 61.6 66.6 61.3 66.5 61.3 66.5 61.2 66.6 61.2 66.6 61.2 66.6 61.2 66.6"></polygon>
      <polygon class="cls-22" points="58.8 66.6 58.7 66.6 59.1 67.7 59.3 67.7 58.9 66.5 58.9 66.5 58.9 66.5 58.9 66.5 58.9 66.5 58.8 66.6"></polygon>
      <polygon class="cls-22" points="58 66.3 58 66.3 58.8 66.6 58.9 66.5 58 66.1 58 66.1 58 66.1 58 66.1 58 66.1 58 66.3"></polygon>
      <polygon class="cls-22" points="55.3 66.4 55.2 66.5 58 66.3 58 66.1 55.2 66.3 55.1 66.4 55.2 66.3 55.1 66.3 55.1 66.4 55.3 66.4"></polygon>
      <polygon class="cls-22" points="55.3 66.7 55.3 66.7 55.3 66.7 55.3 66.6 55.3 66.6 55.3 66.5 55.3 66.5 55.3 66.5 55.3 66.4 55.3 66.4 55.1 66.4 55.1 66.4 55.1 66.5 55.1 66.5 55.1 66.6 55.1 66.6 55.1 66.6 55.2 66.7 55.2 66.7 55.2 66.8 55.2 66.7 55.2 66.8 55.2 66.8 55.3 66.7"></polygon>
      <polygon class="cls-22" points="59.1 67.7 59.2 67.6 58.8 67.6 58.5 67.7 58.2 67.6 57.9 67.6 57.7 67.6 57.4 67.5 57.2 67.5 56.9 67.4 56.7 67.3 56.5 67.3 56.3 67.2 56.1 67.1 55.9 67 55.7 66.9 55.5 66.8 55.3 66.7 55.2 66.8 55.4 66.9 55.6 67 55.8 67.1 56 67.2 56.2 67.3 56.4 67.4 56.6 67.5 56.9 67.6 57.1 67.6 57.4 67.7 57.6 67.7 57.9 67.8 58.2 67.8 58.5 67.8 58.8 67.8 59.2 67.8 59.3 67.7 59.2 67.8 59.3 67.8 59.3 67.7 59.1 67.7 59.1 67.7"></polygon>
      <polygon class="cls-22" points="63.3 67 63.2 67 63.1 67 63 67 62.8 67 62.7 67.1 62.6 67.1 62.5 67.1 62.4 67.1 62.3 67.1 62.2 67.2 62.1 67.2 61.9 67.2 61.9 67.3 61.8 67.3 61.7 67.4 61.6 67.5 61.7 67.6 61.8 67.5 61.8 67.5 61.9 67.4 62 67.4 62.1 67.3 62.2 67.3 62.3 67.3 62.4 67.3 62.5 67.2 62.6 67.2 62.7 67.2 62.8 67.2 63 67.2 63.1 67.2 63.2 67.2 63.3 67.2 63.3 67"></polygon>
      <polygon class="cls-22" points="77.9 65.9 63.3 67 63.3 67.2 77.9 66.1 77.9 65.9"></polygon>
      <polygon class="cls-22" points="78.1 65 78.2 65.1 78.3 65.2 78.3 65.3 78.3 65.4 78.4 65.4 78.4 65.5 78.4 65.6 78.4 65.6 78.3 65.7 78.3 65.7 78.3 65.8 78.2 65.8 78.2 65.9 78.1 65.9 78 65.9 77.9 65.9 77.9 66.1 78 66.1 78.1 66 78.2 66 78.3 65.9 78.4 65.9 78.5 65.8 78.5 65.7 78.5 65.7 78.5 65.6 78.5 65.5 78.5 65.4 78.5 65.3 78.4 65.2 78.4 65.1 78.3 65 78.3 64.9 78.1 65"></polygon>
      <polygon class="cls-22" points="76.4 64.2 76.5 64.2 76.7 64.2 76.8 64.2 76.9 64.3 77.1 64.3 77.2 64.3 77.3 64.4 77.4 64.5 77.5 64.5 77.6 64.6 77.7 64.7 77.8 64.7 77.9 64.8 78 64.9 78.1 65 78.1 65 78.3 64.9 78.2 64.8 78.1 64.8 78 64.7 77.9 64.6 77.8 64.5 77.7 64.5 77.6 64.4 77.5 64.3 77.4 64.3 77.2 64.2 77.1 64.2 77 64.1 76.8 64.1 76.7 64.1 76.5 64 76.4 64.1 76.4 64.2"></polygon>
      <polygon class="cls-22" points="63.5 64.6 76.4 64.2 76.4 64.1 63.5 64.5 63.5 64.6"></polygon>
      <polygon class="cls-22" points="61.5 64.3 61.6 64.4 61.7 64.4 61.8 64.4 62 64.5 62.1 64.5 62.2 64.5 62.4 64.6 62.5 64.6 62.6 64.6 62.8 64.6 62.9 64.6 63 64.6 63.1 64.6 63.3 64.6 63.4 64.7 63.5 64.6 63.5 64.5 63.4 64.5 63.3 64.5 63.1 64.5 63 64.5 62.9 64.5 62.8 64.5 62.6 64.4 62.5 64.4 62.4 64.4 62.3 64.4 62.1 64.3 62 64.3 61.9 64.3 61.7 64.3 61.6 64.2 61.5 64.2 61.5 64.3 61.5 64.3"></polygon>
      <polygon class="cls-22" points="57.1 63.1 57.3 63.1 57.5 63.1 57.7 63.1 57.9 63.1 58.1 63.1 58.2 63.1 58.4 63.1 58.5 63.1 58.7 63.1 58.8 63.1 58.9 63.2 59 63.2 59.2 63.2 59.2 63.3 59.4 63.3 59.5 63.4 59.6 63.4 59.7 63.5 59.8 63.5 59.9 63.6 60 63.6 60.1 63.7 60.2 63.8 60.3 63.8 60.4 63.9 60.5 64 60.7 64 60.8 64.1 61 64.2 61.1 64.2 61.3 64.3 61.5 64.3 61.5 64.2 61.3 64.1 61.2 64.1 61 64 60.9 63.9 60.7 63.9 60.6 63.8 60.5 63.7 60.4 63.7 60.3 63.6 60.1 63.6 60 63.5 59.9 63.4 59.8 63.4 59.7 63.3 59.6 63.3 59.5 63.2 59.4 63.2 59.3 63.1 59.2 63.1 59.1 63.1 59 63 58.8 63 58.7 63 58.6 62.9 58.4 62.9 58.3 62.9 58.1 62.9 57.9 62.9 57.7 62.9 57.5 62.9 57.3 63 57.1 63 57.1 63.1 57.1 63.1"></polygon>
      <polygon class="cls-22" points="54.7 64.2 54.9 64.1 55 64 55.1 63.9 55.3 63.8 55.4 63.8 55.6 63.7 55.7 63.6 55.8 63.5 56 63.5 56.1 63.4 56.3 63.3 56.5 63.3 56.6 63.3 56.8 63.2 56.9 63.2 57.1 63.1 57.1 63 56.9 63 56.7 63 56.6 63.1 56.4 63.1 56.2 63.2 56.1 63.3 55.9 63.3 55.8 63.4 55.6 63.5 55.5 63.6 55.3 63.6 55.2 63.7 55.1 63.8 54.9 63.9 54.8 64 54.6 64 54.7 64.2 54.7 64.2"></polygon>
      <polygon class="cls-22" points="54.7 64.5 54.8 64.6 54.8 64.5 54.7 64.4 54.7 64.4 54.7 64.3 54.7 64.3 54.7 64.2 54.7 64.2 54.7 64.2 54.6 64 54.6 64.1 54.5 64.2 54.5 64.3 54.6 64.3 54.6 64.4 54.6 64.5 54.6 64.5 54.6 64.6 54.7 64.7 54.6 64.6 54.6 64.7 54.7 64.7 54.7 64.5"></polygon>
      <polygon class="cls-23" points="60.7 65.1 60.7 65.1 60.7 65.1 60.7 65.1"></polygon>
      <polygon class="cls-23" points="60.6 65.1 60.7 65.1 60.6 65.2 60.6 65.1"></polygon>
      <polygon class="cls-23" points="62.8 66 65.5 66.9 65.2 66.9 65.2 66.9 62.9 66.2 62.8 66"></polygon>
      <path class="cls-23" d="M54.7,64.7h3.4c0-.1,0-.1,0-.1h0s0,0,0,0h0s0,0,0,0h0s0,0,0,0h0s1.3,4,1.3,4h0c0,0,0,0,0,0h0s0,0,0,0h0s0,0,0,0h0s0,0,0,0h0s0,0,0,0h0c0,0,0-.2,0-.2h0c0,0,0-.2,0-.2h0c0,0,0-.1,0-.1h0c0,0,0-.1,0-.1h0c0,0,0-.1,0-.1h0c0,0,0-.1,0-.1h0c0,0,0-.1,0-.1h0c0,0,0-.2,0-.2h0c0,0,0-.1,0-.1h0c0,0,0,0,0,0h0s0,0,0,0h.1s.1,0,.1,0h.1s.1,0,.1,0h.1s.1,0,.1,0h.1s.1,0,.1,0h.1s.1,0,.1,0h.1s1.9-.1,1.9-.1l-2.3-.8h0c0-.1,2.7.7,2.7.7l12.4-.9h.2s.2-.1.2-.1h.1c0-.1,0-.2,0-.2h0c0-.1,0-.2,0-.2v-.2s-.1-.2-.1-.2v-.2c-.1,0-.2,0-.2,0h0c0,0,0-.2,0-.2h0c0,0,0-.1,0-.1h-.1c0,0-.1-.1-.1-.1h-.1c0,0-.1-.1-.1-.1h-.1c0,0-.1,0-.1,0h-.1s-.1,0-.1,0h-.1s-.1,0-.1,0h-.1s-1.9,0-1.9,0l-11,.4h-.2s-.1,0-.1,0h-.1s-.1,0-.1,0h-.1s-.1,0-.1,0h-.1s-.1,0-.1,0h-.1s-.1,0-.1,0h-.1s-.1,0-.1,0h-.1s-.1,0-.1,0h-.1s-.2-.1-.2-.1h-.2c0,0-.1-.1-.1-.1h-.2c0,0-.1-.1-.1-.1h-.1c0,0-.1-.1-.1-.1h-.1c0,0-.1-.1-.1-.1h-.1c0,0-.1-.1-.1-.1h-.1c0,0-.1-.1-.1-.1h-.1c0,0,0-.1,0-.1h-.1c0,0-.1-.1-.1-.1h-.1s-.1,0-.1,0h-.1s-.1,0-.1,0h-.1s-.1,0-.1,0h-.1s-.1,0-.1,0h-.2s-.2,0-.2,0h-.2s-.2,0-.2,0h-.2s-.2,0-.2,0h-.2s-.2,0-.2,0h-.2s-.2,0-.2,0h-.2c0,0-.2.1-.2.1h-.2c0,0-.1.1-.1.1h-.2c0,0-.1.1-.1.1h-.1c0,0,2.4.9,2.4.9h-3.2c0,.1,0,.3,0,.3ZM76.3,64.7h0c0,0,0-.2,0-.2h0c0,0,0,0,0,0h.1s0,0,0,0h0s0,0,0,0h0s0,0,0,0h0s0,0,0,0h0s0,0,0,0h0s0,0,0,0h0c0,0,0,.1,0,.1h0c0,0,0,.1,0,.1h0c0,0,0,.2,0,.2h0c0,.1,0,.2,0,.2h0s0,.1,0,.1h0c0,0,0,.1,0,.1h0s-.1,0-.1,0h0s0,0,0,0h0s0,0,0,0h0s0,0,0,0h0s0,0,0,0h0s0,0,0,0h0s0,0,0,0h0s0-.1,0-.1h0c0,0,0-.1,0-.1h0c0-.1,0-.2,0-.2h0s0,0,0,0ZM62.9,66.4h0s0,0,0,0ZM60.8,65.2h0c0,0,1.1-.1,1.1-.1h.2c0,.1.6,1.4.6,1.4h0c0,.1-1.2.2-1.2.2h0s0,0,0,0h0l-.3-.2h0s0,0,0,0l-.5-1.4Z"></path>
      <polygon class="cls-24" points="75.6 65.6 75.5 65.5 75.5 65.5 75.6 65.4 75.6 65.5 75.5 65.5 75.6 65.6"></polygon>
      <polygon class="cls-24" points="75.7 65.5 75.7 65.5 75.6 65.5 75.6 65.5 75.6 65.6 75.6 65.6 75.5 65.5 75.5 65.5 75.6 65.5 75.6 65.4 75.6 65.4 75.6 65.5 75.7 65.5 75.7 65.5"></polygon>
      <polygon class="cls-24" points="75.4 64.9 75.4 64.9 75.5 64.9 75.5 65 75.6 65.1 75.6 65.1 75.7 65.2 75.7 65.3 75.7 65.4 75.7 65.5 75.6 65.5 75.6 65.4 75.6 65.3 75.6 65.3 75.5 65.2 75.5 65.1 75.4 65.1 75.4 65 75.3 65 75.3 65 75.4 64.9"></polygon>
      <polygon class="cls-24" points="74.5 64.6 74.5 64.6 74.6 64.6 74.8 64.6 74.9 64.7 75 64.7 75.1 64.7 75.2 64.7 75.3 64.8 75.4 64.9 75.3 65 75.2 64.9 75.2 64.8 75.1 64.8 75 64.8 74.9 64.7 74.8 64.7 74.6 64.7 74.5 64.7 74.5 64.7 74.5 64.6 74.5 64.6"></polygon>
      <polygon class="cls-24" points="65 65.1 65.1 65.1 74.5 64.6 74.5 64.7 65.1 65.2 65.1 65.2 65 65.1"></polygon>
      <polygon class="cls-24" points="64.8 65.4 64.7 65.4 64.7 65.3 64.7 65.3 64.8 65.2 64.8 65.2 64.9 65.2 64.9 65.1 65 65.1 65.1 65.1 65.1 65.2 65 65.2 65 65.2 64.9 65.2 64.9 65.3 64.9 65.3 64.8 65.3 64.8 65.4 64.8 65.4 64.7 65.4 64.8 65.4"></polygon>
      <polygon class="cls-19" points="75.5 65.4 75.5 65.4 75.4 65.3 75.4 65.3 75.4 65.2 75.3 65.2 75.3 65.2 75.3 65.1 75.2 65.1 75.1 65 75 64.9 74.9 64.9 74.8 64.9 74.6 64.9 74.5 64.9 74.4 64.9 65 65.4 65.1 65.2 65.1 65.2 65.1 65.2 74.5 64.7 74.7 64.7 74.8 64.7 74.9 64.8 75.1 64.8 75.2 64.8 75.3 64.9 75.3 65 75.4 65.1 75.5 65.2 75.6 65.3 75.6 65.3 75.6 65.4 75.6 65.4 75.5 65.5 75.5 65.5 75.5 65.5 75.5 65.4"></polygon>
      <path class="cls-19" d="M64.7,65.4h0c0,0,0,.2,0,.2h0c0,0,0,.2,0,.2h0c0,0,.1.2.1.2h.1c0,0,.1.1.1.1h.1s.2,0,.2,0l9.7-.5h.2s.1,0,.1,0h0c0,0,0-.2,0-.2h0c0,0,0-.2,0-.2h0c0-.1,0-.2,0-.2h0c0-.1-.1-.2-.1-.2h-.1c0,0-.1-.1-.1-.1h-.1s-.1,0-.1,0h-.3s-9.4.5-9.4.5h0s-.1,0-.1,0h-.1s0,0,0,0h0c0,0,0,.1,0,.1h0ZM64.8,65.4h0c0,0,0,0,0,0h0s0,0,0,0h0s0-.2,0-.2h0s0,0,0,0l9.4-.5h.2s.1,0,.1,0h.1s.1,0,.1,0h.1s0,.1,0,.1h0c0,0,0,.2,0,.2h0c0,.1,0,.2,0,.2h0c0,.1,0,.2,0,.2h0s0,0,0,0h-.1s-.2,0-.2,0l-9.7.5h0s-.1,0-.1,0h-.1s-.1,0-.1,0h-.1c0,0,0-.1,0-.1h0c0,0,0-.2,0-.2h0c0,0,0-.1,0-.1h0Z"></path>
    </g>
  </g>
</svg>