<?xml version="1.0" encoding="UTF-8" standalone="no"?>
<svg
     version="1.1"
     x="0px"
     y="0px"
     width="375"
     height="375"
     viewBox="0 0 375 375"
     enable-background="new 0 0 90 90"
     xml:space="preserve"
     id="svg176"
     sodipodi:docname="MediumRing.svg"
     inkscape:version="1.4 (e7c3feb1, 2024-10-09)"
     xmlns:inkscape="http://www.inkscape.org/namespaces/inkscape"
     xmlns:sodipodi="http://sodipodi.sourceforge.net/DTD/sodipodi-0.dtd"
     xmlns="http://www.w3.org/2000/svg"
     xmlns:svg="http://www.w3.org/2000/svg"><defs
     id="defs176">
	
	
</defs><sodipodi:namedview
     id="namedview176"
     pagecolor="#505050"
     bordercolor="#eeeeee"
     borderopacity="1"
     inkscape:showpageshadow="0"
     inkscape:pageopacity="0"
     inkscape:pagecheckerboard="0"
     inkscape:deskcolor="#d1d1d1"
     inkscape:zoom="0.84852814"
     inkscape:cx="137.88582"
     inkscape:cy="350.01786"
     inkscape:window-width="1872"
     inkscape:window-height="1027"
     inkscape:window-x="62"
     inkscape:window-y="25"
     inkscape:window-maximized="1"
     inkscape:current-layer="svg176" />

<polygon
     fill="#757a7a"
     points="90,90 90,0 0,0 0,90 "
     id="polygon1"
     transform="matrix(4.1666667,0,0,4.1666667,-1.5e-6,-1.5e-6)"
     style="fill:#121313;fill-opacity:1" /><path
     fill="#ffffff"
     stroke="#c92027"
     d="m 337.5,187.5 c 0,-82.84583 -67.15417,-150.000001 -150,-150.000001 -82.84167,0 -150.000001,67.154171 -150.000001,150.000001 0,82.84583 67.158331,150 150.000001,150 82.84167,0 150,-67.15417 150,-150 z m -262.500001,0 C 74.999999,125.36667 125.36667,74.999999 187.5,74.999999 249.63333,74.999999 300,125.36667 300,187.5 300,249.63333 249.63333,300 187.5,300 125.36667,300 74.999999,249.63333 74.999999,187.5 Z"
     id="clipping"
     style="stroke-width:4.16667;stroke:none;fill:#6c6c6c;fill-opacity:1" />
</svg>
