<svg version="1.1" xmlns="http://www.w3.org/2000/svg" xmlns:xlink="http://www.w3.org/1999/xlink" x="0px" y="0px" width="3300" height="4350" viewBox="0 0 3300 4350" enable-background="new 0 0 791.999 1044" xml:space="preserve">
<g id="background">
	<rect x="0" fill="#929497" width="792" height="1044"></rect>
</g>
<g id="cuts">
	<line fill="none" stroke="#EC1C24" stroke-miterlimit="10" x1="565.855" y1="227.114" x2="670.256" y2="227.114"></line>
	<line fill="none" stroke="#EC1C24" stroke-miterlimit="10" x1="565.957" y1="817.513" x2="670.358" y2="817.513"></line>
	<line fill="none" stroke="#EC1C24" stroke-miterlimit="10" x1="227.371" y1="227.015" x2="122.97" y2="227.015"></line>
	<line fill="none" stroke="#EC1C24" stroke-miterlimit="10" x1="227.424" y1="817.513" x2="123.024" y2="817.513"></line>
	<path fill="#FFFFFF" stroke="#EC1C24" stroke-miterlimit="10" d="M13.969,222.798c14.307,0.002,100.768,0.002,100.768,0.002
		l3.766-3.756v-28.598v-0.102h68.469v0.041l36,29.64l-0.035,2.774c0,0,0.002-178.512-0.012-205.304h346.553V222.8v-2.814l36-29.641
		h68.195l-0.166,0.102v28.754l3.6,3.6H778.03v598.499H677.229l-3.6,3.6c0,0,0,28.691,0.017,28.691h-68.195l-36-29.576v-2.715
		v205.205H223.033h-0.205V821.299v2.715l-36,29.576c0,0-68.352,0-68.326,0v-28.691l-3.643-3.6H14.061L13.969,222.798"></path>
</g>
<g id="creases">
	<line fill="none" stroke="#00A551" stroke-miterlimit="10" x1="569.477" y1="821.299" x2="569.477" y2="223.226"></line>
	<line fill="none" stroke="#00A551" stroke-miterlimit="10" x1="118.75" y1="223.226" x2="673" y2="223.226"></line>
	<line fill="none" stroke="#00A551" stroke-miterlimit="10" x1="118.502" y1="821.299" x2="673.63" y2="821.299"></line>
	<line fill="none" stroke="#00A551" stroke-miterlimit="10" x1="673.506" y1="821.299" x2="673.506" y2="223.226"></line>
	<line fill="none" stroke="#00A551" stroke-miterlimit="10" x1="118.502" y1="821.299" x2="118.502" y2="223.226"></line>
	<line fill="none" stroke="#00A551" stroke-miterlimit="10" x1="568.5" y1="925.7" x2="224.25" y2="925.7"></line>
	<line fill="none" stroke="#00A551" stroke-miterlimit="10" x1="223.75" y1="118.725" x2="568.625" y2="118.725"></line>
	<rect x="231.956" y="127.642" fill="none" stroke="#00ADEE" stroke-dasharray="12" width="329.808" height="87.535"></rect>
	<rect x="232.51" y="830.214" fill="none" stroke="#00ADEE" stroke-dasharray="12" width="328.314" height="86.572"></rect>
	<line fill="none" stroke="#00A551" stroke-miterlimit="10" x1="222.936" y1="821.299" x2="222.936" y2="223.226"></line>
	<rect x="127.339" y="232.225" fill="none" stroke="#00ADEE" stroke-dasharray="12" width="86.76" height="580.075"></rect>
	<rect x="231.935" y="232.225" fill="none" stroke="#00ADEE" stroke-dasharray="12" width="328.543" height="580.075"></rect>
	<rect x="578.291" y="232.225" fill="none" stroke="#00ADEE" stroke-dasharray="12" width="86.4" height="580.075"></rect>
</g>
<g id="text">
	<rect x="15.237" y="17.435" fill="#D0D2D3" width="112.451" height="107.162"></rect>
	
	
	<g>
		<defs>
			<rect id="SVGID_1_" x="18.773" y="-71.661" width="828.001" height="647.999"></rect>
		</defs>
		<clipPath id="SVGID_2_">
			<use xlink:href="#SVGID_1_" overflow="visible"></use>
		</clipPath>
		<path clip-path="url(#SVGID_2_)" fill-rule="evenodd" clip-rule="evenodd" d="M105.961,59.168
			c0,20.079-16.244,36.357-36.281,36.357c-20.039,0-36.283-16.278-36.283-36.357c0-20.08,16.244-36.358,36.283-36.358
			C89.717,22.811,105.961,39.088,105.961,59.168"></path>
		<path clip-path="url(#SVGID_2_)" fill-rule="evenodd" clip-rule="evenodd" fill="#B7D333" d="M102.688,59.37
			c0,18.254-14.766,33.053-32.983,33.053c-18.217,0-32.985-14.799-32.985-33.053c0-18.256,14.768-33.053,32.985-33.053
			C87.921,26.317,102.688,41.114,102.688,59.37"></path>
		<path clip-path="url(#SVGID_2_)" d="M62.643,52.161c-0.459,4.051-0.799,7.305-1.024,9.762l-1.506,0.066
			c0.022-0.082,0.033-0.174,0.036-0.276c0.002-0.184-0.065-0.427-0.203-0.727c-0.138-0.299-0.218-0.491-0.237-0.572
			c-0.388,0.054-0.762,0.326-1.117,0.81c-0.357,0.486-0.678,0.729-0.963,0.724c-0.165-0.003-0.347-0.049-0.551-0.133
			c-0.268,0.179-0.618,0.255-1.046,0.228c-0.389-0.068-0.766-0.126-1.134-0.174c-0.011-0.512-0.515-0.96-1.511-1.348
			c0.004-0.204-0.098-0.509-0.307-0.911c-0.207-0.405-0.31-0.687-0.308-0.851c0.003-0.185,0.079-0.337,0.224-0.458
			c-0.021-0.061-0.188-0.443-0.503-1.146c-0.216-0.515-0.321-0.959-0.314-1.327c0.004-0.287,0.07-0.553,0.197-0.796
			c-0.175-1.746-0.252-3.243-0.23-4.494c0.031-1.926,0.307-3.695,0.826-5.306c-0.037-0.246-0.054-0.491-0.05-0.738
			c0.023-1.291,0.468-2.185,1.333-2.683l0.009-0.4c0.857-1.092,1.985-1.882,3.384-2.372c0.835,0.199,1.671,0.389,2.506,0.566
			c0.936,0.323,1.582,0.877,1.936,1.663c0.283,0.169,0.422,0.51,0.412,1.021c-0.008,0.574,0.055,0.945,0.196,1.111l-0.156,0.182
			c0.163,1.212,0.243,1.952,0.239,2.218c-0.014,0.778-0.218,1.329-0.611,1.649c-0.144-0.002-0.52-0.131-1.13-0.388
			c-0.145,0.141-0.3,0.211-0.462,0.208c-0.083-0.002-0.23-0.046-0.444-0.131c-0.213-0.085-0.393-0.129-0.535-0.132
			c-0.103-0.002-0.205,0.017-0.308,0.055c-0.012-1.617,0.038-2.827,0.153-3.625c-0.16-0.105-0.325-0.344-0.492-0.715
			c-0.169-0.372-0.386-0.581-0.65-0.625c-0.166,0.201-0.241,0.333-0.222,0.395l-0.548-0.194c-0.501,0.546-0.834,1.493-1,2.843
			c-0.17,1.554-0.381,2.586-0.634,3.093c0.22,0.231,0.328,0.55,0.321,0.959c-0.003,0.144-0.028,0.381-0.074,0.707
			c-0.047,0.328-0.072,0.573-0.073,0.737c-0.005,0.185,0.012,0.349,0.052,0.494l-0.374,0.361c0.152,0.7,0.239,1.583,0.262,2.649
			c-0.015,0.902-0.022,1.804-0.015,2.706c-0.022,0-0.195,0.007-0.522,0.021c-0.205-0.004-0.35,0.066-0.435,0.209
			c0.125-0.019,0.237-0.028,0.338-0.026c0.451,0.007,0.805,0.326,1.059,0.955c0.254,0.631,0.474,0.948,0.659,0.952
			c0.203,0.002,0.484-0.188,0.839-0.572c0.602-0.646,0.916-1.532,0.935-2.658c0.008-0.554-0.052-1.149-0.185-1.787
			c-0.146,0.08-0.22,0.284-0.226,0.61c-0.327-0.006-0.533,0.064-0.618,0.205c-0.141-0.043-0.201-0.156-0.178-0.342
			c0.025-0.265,0.037-0.408,0.039-0.428c0.247-0.078,0.371-0.19,0.373-0.333c0.002-0.061-0.043-0.175-0.131-0.34
			c-0.09-0.166-0.133-0.299-0.132-0.402c0.002-0.082,0.022-0.164,0.065-0.246l0.144-1.195c0.448,0.13,1.417,0.187,2.912,0.172
			c-0.043,0.102,0.016,0.237,0.178,0.402c0.145-0.141,0.299-0.211,0.462-0.207c0.123,0.003,0.307,0.057,0.55,0.163
			C62.367,52.107,62.539,52.161,62.643,52.161"></path>
		<path clip-path="url(#SVGID_2_)" d="M74.093,62.75c-0.285-0.128-0.592-0.194-0.918-0.2c-0.287-0.005-0.678,0.05-1.17,0.165
			c-0.553,0.113-0.933,0.178-1.138,0.196c-0.218-0.434-0.37-1.033-0.46-1.792c-0.166-1.109-0.268-1.736-0.305-1.88
			c0.062-0.123,0.095-0.224,0.096-0.306c0.004-0.226-0.172-0.428-0.526-0.609c-0.357-0.18-0.531-0.322-0.53-0.424
			c0.001-0.122,0.209-0.304,0.623-0.544c-0.1-0.124-0.175-0.376-0.218-0.755c-0.044-0.38-0.138-0.634-0.278-0.76
			c-0.25,0.222-0.655,0.364-1.219,0.427c-0.564,0.062-0.939,0.153-1.124,0.272c0.012,1.599-0.25,2.671-0.792,3.215
			c-0.285-0.067-0.502,0.043-0.65,0.328c-0.211,0.345-0.389,0.547-0.532,0.605l0.18,0.219c-0.166,0.139-0.433,0.197-0.8,0.171
			c-0.572-0.032-0.879-0.046-0.92-0.046l-0.173-0.557l1.998-16.601c0.018-1.045,0.07-1.752,0.159-2.119
			c-0.027-0.923,0.187-1.493,0.641-1.711c0.284,0.189,0.641,0.288,1.07,0.295c0.347,0.005,0.892-0.067,1.63-0.218
			c0.74-0.152,1.252-0.225,1.539-0.221c1.001,0.017,1.438,0.743,1.312,2.176c-0.101,1.145,0.077,2.655,0.536,4.529
			c0.479,2.018,0.708,3.526,0.691,4.532c-0.004,0.307,0.095,0.944,0.071,1.252c-0.435,0.237-0.988,0.382-1.664,0.43
			c-0.594,0.033-1.198,0.062-1.812,0.094c-0.157-1.56-0.432-3.441-0.591-4.982c-0.193-1.847-0.433-3.368-0.72-4.562l-0.946,8.778
			c-0.075,0.756,0.268,1.142,1.024,1.156c0.245,0.003,0.48-0.055,0.708-0.173c0.185-0.059,0.439,0.079,0.76,0.412
			c-0.011,0.636,0.115,1.017,0.381,1.145c0.33-0.221,0.763-0.428,1.297-0.625c0.474-0.176,0.938-0.342,1.39-0.499
			c0.258,0.354,0.426,0.879,0.496,1.578c0.085,0.984,0.147,1.56,0.186,1.724c0.033,0.391,0.192,1.234,0.477,2.531
			c0.208,1.027,0.306,1.859,0.297,2.495C74.163,62.198,74.137,62.483,74.093,62.75"></path>
		<path clip-path="url(#SVGID_2_)" d="M88.22,48.108c-0.024,0.061-0.028,0.418-0.02,1.075c-0.008,0.533-0.077,0.932-0.203,1.197
			c-0.151,0.407-0.232,0.989-0.245,1.748c-0.004,0.164,0.002,0.42,0.018,0.77c-0.007,0.347-0.009,0.603-0.013,0.767
			c-0.023,1.292-0.242,2.229-0.662,2.818c0.035,0.329,0.05,0.657,0.045,0.983c-0.017,1.026-0.368,2.404-1.052,4.134
			c-0.185,0.059-0.339,0.087-0.462,0.085c-0.246-0.005-0.421-0.146-0.529-0.424c-0.109-0.279-0.211-0.542-0.309-0.79
			c0.067-1.576,0.035-3.873-0.099-6.889l0.188-0.182c-0.136-0.535-0.196-1.13-0.185-1.786c0.008-0.471,0.066-1.156,0.174-2.057
			c0.106-0.899,0.165-1.574,0.171-2.026c0.007-0.287-0.001-0.565-0.015-0.83c-0.703,1.689-1.204,4.55-1.496,8.584l-0.257,0.609
			c-0.084,0.204-0.26,0.314-0.527,0.33c-0.078-0.143-0.16-0.218-0.242-0.219c-0.06-0.002-0.17,0.074-0.324,0.225
			c-0.157,0.15-0.286,0.215-0.388,0.192l-0.406,0.362c0.181,0.23,0.568,0.256,1.166,0.082c0.471-0.135,0.714,0.043,0.727,0.536
			c0.012,0.41-0.098,0.961-0.335,1.655c-0.238,0.691-0.358,1.213-0.364,1.561c-0.003,0.246,0.022,0.493,0.08,0.739l-2.124,0.334
			c-0.198-0.415-0.343-1.107-0.439-2.083c-0.096-0.977-0.243-1.671-0.44-2.084c0.124-0.14,0.188-0.292,0.19-0.457
			c0.003-0.144-0.054-0.36-0.172-0.649c-0.118-0.289-0.187-0.505-0.205-0.649c-0.017-0.225-0.089-0.771-0.217-1.634
			c-0.091-0.697-0.133-1.243-0.126-1.631c0.003-0.206,0.018-0.39,0.042-0.553c0.001-0.143-0.079-0.354-0.237-0.635
			c-0.158-0.279-0.236-0.48-0.233-0.604c0.001-0.102,0.043-0.193,0.127-0.272c-0.142-0.168-0.198-0.456-0.17-0.867
			c0.027-0.408-0.031-0.696-0.169-0.862c-0.302,0.793-0.462,1.867-0.485,3.22c-0.011,1.885-0.031,2.972-0.056,3.258l0.212,0.188
			l-0.217,0.18c0.151,0.741,0.217,1.686,0.198,2.832c-0.056,2.07-0.083,3.033-0.081,2.89c-0.292,0.262-0.692,0.388-1.203,0.379
			c-0.632-0.011-1.066,0.045-1.291,0.162c-0.259-0.454-0.382-1.04-0.369-1.758c0.008-0.553,0.103-1.226,0.28-2.025
			c-0.278-0.517-0.41-1.237-0.393-2.159c0.004-0.225,0.03-0.655,0.081-1.29c0.031-0.511,0.038-0.891,0.021-1.137
			c0.206-0.099,0.31-0.209,0.313-0.332c0.001-0.082-0.063-0.221-0.194-0.419c-0.128-0.196-0.193-0.346-0.192-0.448
			c0.003-0.124,0.087-0.246,0.253-0.366l-0.661-9.944c0.393-0.258,1.03-0.381,1.909-0.366c0.961,0.037,1.616-0.013,1.968-0.15
			c0.062-0.042,0.132-0.06,0.215-0.059c0.082,0.001,0.178,0.049,0.289,0.143c0.111,0.094,0.187,0.141,0.227,0.142
			c0.081,0.002,0.155-0.058,0.219-0.181l0.571,0.564c0.193,0.721,0.374,2.118,0.544,4.19c0.174,1.787,0.446,3.135,0.823,4.043
			c0.5-1.815,0.913-3.336,1.243-4.561l0.664-4.865l4.758-0.103c0.016,0.266,0.074,1.691,0.204,2.513
			c0.109,0.719,0.162,1.304,0.152,1.754c-0.007,0.513-0.087,0.973-0.238,1.38c0.161,0.229,0.237,0.516,0.231,0.864
			C88.472,47.6,88.387,47.884,88.22,48.108"></path>
		<path clip-path="url(#SVGID_2_)" d="M97.978,58.882l0.002-0.03c-0.128,0.263-0.205,0.571-0.231,0.918
			c-0.024,0.224-0.031,0.542-0.017,0.952c0.012,0.472,0.018,0.801,0.015,0.985c-0.164-0.003-0.818-0.014-1.963-0.033
			c-0.695-0.012-1.32,0.049-1.876,0.183l-0.571-0.625c-0.169,0.16-0.231,0.294-0.192,0.397c-0.101-0.024-0.572-0.031-1.411-0.026
			c-0.655-0.01-1.144-0.08-1.467-0.209c-0.335,0.344-0.725,0.338-1.169-0.02c-0.161-0.125-0.177-0.336-0.049-0.631
			c0.127-0.296,0.089-0.516-0.112-0.663c0.03-0.655,0.121-1.668,0.266-3.04c0.144-1.227,0.221-2.188,0.233-2.886
			c0.017-0.942-0.05-1.845-0.198-2.708c0.229-0.222,0.484-0.331,0.771-0.326c0.328,0.005,0.714,0.166,1.158,0.48
			c0.626,0.442,0.951,0.662,0.971,0.662l0.18,0.219c0.021-0.06,0.13-0.387,0.324-0.979c0.109-0.386,0.266-0.64,0.474-0.76
			l0.181,0.188c0.081-0.04,0.351-0.23,0.807-0.57c0.35-0.241,0.637-0.809,0.841-0.806c0.227,0.004,0.438,0.131,0.639,0.381
			c0.344,0.19,0.561,0.926,0.667,1.306c0.105,0.381,0.208,0.757,0.304,1.128c-0.922,0.026-1.678,0.001-2.269-0.069
			c-0.149,0.223-0.353,0.255-0.616,0.098c-0.263-0.16-0.458-0.136-0.584,0.066c-0.006,0.369-0.019,1.035-0.034,1.998
			c-0.036,0.86-0.047,1.536-0.034,2.029c0.006,0.758,0.058,1.456,0.149,2.094c0.162,0.002,0.94,0.015,2.33,0.039
			C96.458,58.642,97.285,58.726,97.978,58.882 M98.042,44.155c-0.184,0.017-0.387,0.024-0.612,0.021
			c-0.471-0.009-1.094-0.081-1.868-0.217c-0.961-0.139-1.543-0.221-1.746-0.244c-0.294,0.423-0.447,1.027-0.461,1.805
			c-0.027,1.68-0.029,2.408-0.005,2.184c0.282,0.168,0.421,0.478,0.413,0.929c-0.03,0.615-0.035,0.933-0.016,0.952
			c-0.144,0.059-0.219,0.263-0.225,0.612c-0.225-0.086-0.456-0.254-0.696-0.503c-0.322-0.315-0.493,0.747-0.47,0.482l-0.194,0.631
			l-0.181-0.188c-0.166,0.017-0.445-0.069-0.839-0.26c-0.396-0.19-0.675-0.369-0.835-0.537c0.006-0.328,0.061-0.512,0.163-0.551
			l-0.391-0.436l-0.189,0.273c-0.23-2.135-0.172-6.129,0.11-8.38c0.776,0.136,1.633,0.223,2.575,0.26
			c0.633,0.03,1.521,0.045,2.667,0.044c1.309,0.003,2.251,0.007,2.823,0.017c0.241,0.231,0.36,0.53,0.353,0.898
			c-0.003,0.228-0.066,0.588-0.188,1.089C98.11,43.537,98.047,43.908,98.042,44.155"></path>
		<path clip-path="url(#SVGID_2_)" d="M63.565,77.47v-0.014c0,0.01-0.054,0.461-0.159,1.355c-0.054,0.549-0.185,0.981-0.397,1.295
			l-0.132-0.108c-0.25,0.522-0.586,0.838-1.015,0.951c-0.206,0.217-0.502,0.335-0.888,0.359c-0.229,0.014-0.759-0.054-1.59-0.2
			c-0.401-0.249-0.62-0.388-0.659-0.415c-0.252-0.19-0.373-0.383-0.36-0.579c-0.244-0.25-0.587-0.694-0.716-1.253
			c-0.156-0.615-0.251-0.65-0.397-0.866c-0.232,0.171-0.314-0.192-0.449-0.409l0.122-0.095c-0.074-0.054-0.115-0.115-0.119-0.183
			c-0.003-0.048,0.017-0.121,0.061-0.216c0.041-0.095,0.062-0.167,0.059-0.215c-0.004-0.077-0.051-0.144-0.138-0.198
			c0.093-0.482,0.178-1.209,0.255-2.178c0.164-0.089,0.241-0.259,0.234-0.512c-0.009-0.252,0.025-0.42,0.105-0.504
			c0.391-0.783,1.025-1.312,1.904-1.587c0.049,0.007,0.285,0.003,0.707-0.012c0.29-0.008,0.51,0.019,0.658,0.078
			c0.263-0.044,0.528,0.018,0.79,0.189c0.228,0.172,0.457,0.343,0.684,0.515c0.425,0.464,0.656,0.986,0.69,1.571
			c0.012,0.193-0.002,0.399-0.037,0.615c-0.315-0.011-0.54,0.198-0.671,0.625l-1.227,0.114c-0.131-0.186-0.207-0.436-0.225-0.748
			c-0.007-0.106-0.006-0.262,0-0.467c0.005-0.205,0.007-0.361,0-0.468c-0.018-0.321-0.094-0.575-0.225-0.762l-0.37,0.21
			c-0.147-0.059-0.225-0.147-0.232-0.263c-0.002-0.039,0.003-0.095,0.018-0.169c0.014-0.075,0.02-0.126,0.017-0.155
			c-0.007-0.126-0.12-0.203-0.339-0.229c-0.151,1.384-0.195,2.807-0.134,4.265c0.039,0.047,0.156,0.08,0.35,0.097
			c0.158,0.02,0.239,0.07,0.244,0.148c0.002,0.029-0.006,0.066-0.03,0.117l-0.12,0.095c0.066,0.104,0.105,0.248,0.116,0.433
			c0.004,0.096,0.001,0.246-0.011,0.446c-0.014,0.201-0.017,0.35-0.011,0.447c0.018,0.291,0.09,0.512,0.221,0.661
			c-0.013,0.214,0.074,0.36,0.26,0.438c0.119-0.047,0.225-0.072,0.322-0.078c0.373-0.021,0.634,0.182,0.779,0.615
			c0,0.009-0.001,0.081-0.005,0.219c0.004,0.077,0.043,0.129,0.118,0.153c0.163-0.097,0.244-0.273,0.242-0.525
			c-0.005-0.293,0.033-0.481,0.111-0.563c-0.019-0.135-0.1-0.331-0.241-0.585c-0.143-0.255-0.217-0.456-0.227-0.602
			c-0.008-0.156,0.037-0.305,0.138-0.447c-0.085-0.024-0.125-0.08-0.119-0.169c0.006-0.136,0.006-0.209,0.006-0.22
			C62.201,77.321,62.878,77.316,63.565,77.47"></path>
		<path clip-path="url(#SVGID_2_)" d="M69.116,78.613h-0.015c-0.071,0.141-0.093,0.343-0.068,0.603
			c0.033,0.37,0.051,0.559,0.051,0.569c-0.056,0.021-0.131-0.008-0.224-0.083c-0.144,0.055-0.212,0.145-0.203,0.271
			c0,0.018,0.008,0.049,0.02,0.094c0.003,0.053,0.006,0.09,0.007,0.109c0.006,0.098-0.023,0.173-0.088,0.221
			c-0.163-0.089-0.378-0.147-0.642-0.172c-0.267-0.026-0.519-0.049-0.756-0.072c-0.004-1.233-0.17-2.44-0.496-3.618
			c0,0.009-0.007-0.112-0.022-0.366c0.001-0.181-0.04-0.31-0.123-0.387l-0.113,0.101c-0.001-0.018,0.036-0.054,0.113-0.108
			c0.074-0.054,0.111-0.109,0.109-0.163c-0.003-0.026-0.01-0.054-0.022-0.08l-0.124-0.089c-0.209,0.068-0.306,0.237-0.291,0.507
			c0.011,0.181-0.062,0.309-0.213,0.381c0.058,0.04,0.088,0.094,0.093,0.157c0.003,0.036-0.003,0.087-0.017,0.151
			c-0.014,0.065-0.019,0.115-0.018,0.151c0.006,0.08,0.05,0.145,0.13,0.196c0.004,0.054,0.032,0.542,0.084,1.465
			c0.036,0.588,0.02,1.088-0.045,1.498l0.012,0.232c-0.08-0.005-0.17-0.004-0.269,0.001c-0.113,0.008-0.276,0.023-0.488,0.049
			c-0.212,0.026-0.368,0.043-0.469,0.049c-0.415,0.022-0.705-0.047-0.874-0.209l-0.174-5.065c-0.082-0.248-0.136-0.594-0.162-1.038
			l-0.055-0.976c-0.04-0.478-0.101-0.847-0.184-1.104c0.035-0.176,0.188-0.271,0.457-0.286c0.167-0.01,0.393,0.013,0.678,0.069
			c0.132-0.062,0.315-0.1,0.552-0.113c0.066-0.004,0.172-0.006,0.319-0.005c0.158-0.009,0.269-0.016,0.336-0.02
			c0.437-0.026,0.727-0.16,0.871-0.405c0.203-0.002,0.423,0.061,0.661,0.193c0.237,0.132,0.448,0.201,0.627,0.208
			c0.478,0.281,0.734,0.747,0.773,1.398c0.008,0.145-0.048,0.719-0.168,1.724l-0.82,0.714c0.138,0.257,0.307,0.813,0.502,1.672
			C68.534,77.752,68.781,78.278,69.116,78.613 M67.603,72.85l0.017,0.012c0.015,0.063,0.006-0.159-0.022-0.665
			c-0.016-0.244-0.104-0.419-0.267-0.529c-0.094,0.133,0.011,0.195-0.032,0.501c-0.044,0.306-0.224,0.221-0.331,0.353
			c-0.282-0.001-0.345,0.17-0.405-0.099c-0.127-0.438-0.235-0.399-0.236-0.407l-0.12,0.072c-0.042,0.038-0.091,0.083-0.144,0.13
			c-0.054,0.049-0.107,0.066-0.166,0.051c0.004,0.054-0.022,0.14-0.078,0.257c-0.055,0.117-0.081,0.197-0.078,0.242
			c0.006,0.082,0.069,0.14,0.195,0.179c-0.022,0.183-0.028,0.374-0.017,0.572c0.007,0.109,0.032,0.357,0.078,0.744
			c0.051,0.306,0.072,0.567,0.061,0.785c0.102,0.004,0.197,0.004,0.287-0.002c0.394-0.023,0.648-0.179,0.766-0.467
			c0.04-0.083,0.086-0.386,0.134-0.906C67.29,73.281,67.408,73.006,67.603,72.85"></path>
		<path clip-path="url(#SVGID_2_)" d="M75.486,80.578c-0.161-0.045-0.331-0.063-0.511-0.051c-0.156,0.009-0.367,0.047-0.633,0.118
			c-0.301,0.071-0.506,0.114-0.618,0.13c-0.134-0.182-0.238-0.438-0.314-0.77c-0.13-0.482-0.208-0.754-0.233-0.817
			c0.032-0.056,0.044-0.102,0.043-0.139c-0.007-0.098-0.111-0.18-0.31-0.245c-0.202-0.066-0.303-0.122-0.305-0.168
			c-0.003-0.054,0.103-0.141,0.323-0.263c-0.061-0.051-0.108-0.158-0.145-0.324c-0.039-0.167-0.098-0.274-0.18-0.324
			c-0.128,0.107-0.346,0.187-0.654,0.236c-0.305,0.049-0.507,0.103-0.605,0.164c0.063,0.704,0,1.94-0.278,2.201
			c-0.158-0.019-0.272,0.038-0.344,0.169c-0.103,0.16-0.194,0.257-0.27,0.289l0.105,0.088c-0.086,0.068-0.229,0.104-0.431,0.107
			c-0.315,0.01-0.483,0.015-0.505,0.016l-0.116-0.239l0.473-8.144c-0.026-0.461-0.022-0.774,0.014-0.939
			c-0.047-0.405,0.051-0.665,0.291-0.779c0.162,0.073,0.36,0.101,0.597,0.087c0.189-0.011,0.486-0.064,0.884-0.16
			c0.398-0.095,0.678-0.148,0.834-0.157c0.55-0.033,0.815,0.27,0.796,0.906c-0.016,0.509,0.134,1.166,0.452,1.974
			c0.33,0.869,0.509,1.526,0.535,1.969c0.008,0.135,0.188,0.423,0.186,0.559c-0.231,0.123-0.53,0.208-0.898,0.256
			c-0.324,0.038-0.652,0.075-0.99,0.113c-0.139-0.682-0.457-1.51-0.599-2.182c-0.168-0.806-0.354-1.466-0.552-1.982l-0.213,3.904
			c-0.014,0.336,0.186,0.493,0.601,0.467c0.135-0.006,0.261-0.041,0.383-0.102c0.1-0.033,0.242,0.018,0.43,0.152
			c0.016,0.28,0.098,0.444,0.248,0.488c0.174-0.109,0.404-0.217,0.689-0.326c0.253-0.095,0.502-0.187,0.744-0.273
			c0.155,0.145,0.263,0.369,0.326,0.675c0.081,0.429,0.135,0.68,0.162,0.752c0.032,0.17,0.148,0.536,0.35,1.095
			c0.149,0.445,0.232,0.806,0.249,1.087C75.505,80.332,75.501,80.459,75.486,80.578"></path>
		<path clip-path="url(#SVGID_2_)" d="M80.129,71.341l0.018-0.001c-0.135,0.199-0.307,0.236-0.517,0.112
			c-0.046-0.007-0.247,0.006-0.606,0.035c-0.302,0.018-0.522,0.003-0.66-0.044c-0.034,0.003-0.1,0.036-0.198,0.101
			c-0.097,0.065-0.167,0.098-0.213,0.101c-0.066,0.004-0.105-0.053-0.11-0.17c-0.002-0.019-0.006-0.095-0.014-0.231
			c-0.006-0.091-0.049-0.152-0.129-0.183l-0.208,0.161c-0.067,0.05-0.097,0.101-0.093,0.156c0.001,0.045,0.04,0.108,0.113,0.19
			c0.071,0.083,0.112,0.142,0.126,0.176c0.003,0.027,0.026,0.435,0.07,1.221c0.018,0.499,0.11,0.896,0.274,1.195
			c0.042-0.048,0.143-0.073,0.307-0.079c0.162-0.004,0.269-0.042,0.322-0.107c0.107,0.094,0.285,0.099,0.534,0.016
			c0.247-0.082,0.427-0.054,0.537,0.085l-0.033,1.199c-0.102-0.011-0.251-0.061-0.447-0.151c-0.057,0.177-0.169,0.286-0.335,0.333
			c-0.068,0.023-0.257,0.042-0.571,0.061c0.008-0.056-0.04-0.112-0.145-0.168c-0.305,0.145-0.421,0.491-0.344,1.039
			c0.006-0.054,0.019,0.04,0.033,0.285c0.008,0.153-0.024,0.264-0.098,0.331c-0.191,0.029-0.432-0.013-0.725-0.127
			c-0.293-0.115-0.503-0.169-0.626-0.161c-0.055,0.003-0.106,0.011-0.151,0.022l-0.314,0.1l-0.504-5.481l-0.06-1.042
			c0.419-0.143,0.938-0.233,1.554-0.268c0.483-0.027,1.113-0.024,1.89,0.013c0.051-0.103,0.143,0.03,0.256,0.024
			c0.056-0.003,0.14,0.003,0.253,0.019c0.113,0.015,0.199,0.022,0.254,0.019c0.07-0.005,0.131-0.016,0.184-0.038l0.08-0.086
			c0.228,0.068,0.349,0.189,0.357,0.36c0.005,0.073-0.017,0.196-0.064,0.372c-0.045,0.174-0.065,0.307-0.059,0.398
			C80.072,71.209,80.094,71.28,80.129,71.341 M78.163,80.485c-0.12,0.063-0.304,0.099-0.55,0.115
			c-0.325,0.018-0.522,0.034-0.588,0.048c-0.036-0.036-0.079-0.007-0.152-0.293c-0.045-0.188-0.163-0.277-0.353-0.265
			c-0.045,0.003-0.099,0.01-0.167,0.024l-0.302,0.016l-0.162-2.773c0.165-0.081,0.369-0.13,0.616-0.145
			c0.237-0.014,0.445,0.011,0.629,0.072c-0.005,0.1,0.138,0.143,0.429,0.125l0.319-0.019C78.073,78.169,78.188,79.577,78.163,80.485
			"></path>
		<path clip-path="url(#SVGID_2_)" d="M86.855,71.579l0.018,0.012c-0.159-0.009-0.666,0.025-1.058,0.075
			c-0.334,0.038-0.587,0.044-0.757,0.017c-0.163,0.109-0.222,0.258-0.177,0.446l0.103,0.062c-0.084,0.078-0.114,0.138-0.089,0.182
			l0.089,0.089c-0.019,1.609-0.023,2.496-0.014,2.669c0.024,0.424,0.075,0.798,0.149,1.12c-0.067,0.205-0.093,0.437-0.077,0.699
			c0.01,0.171,0.052,0.444,0.124,0.816c0.072,0.372,0.167,1.593,0.179,1.785c0.009,0.143,0.005,0.28-0.011,0.407
			c-0.154,0.065-0.32,0.1-0.5,0.112c-0.302,0.017-0.628-0.046-0.974-0.188c-0.041,0.038-0.089,0.08-0.142,0.124
			c-0.054,0.043-0.069,0.092-0.043,0.144c-0.11,0.034-0.265-0.011-0.463-0.134c-0.106-1.628-0.397-4.943-0.828-8.293
			c-0.151,0.136-0.428,0.023-0.719,0.058c-0.346,0.038-0.685-0.014-0.818,0.048c-0.168-0.182-0.13-0.233-0.148-0.532
			c-0.017-0.288-0.109-1.002-0.036-1.301c0.016-0.063,0.644-0.027,1.013-0.058c0.504-0.029,0.616,0.091,0.649,0.088
			c0.041-0.065,0.287-0.032,0.466-0.043c0.116,0.057,0.24-0.052,0.246,0.03c0.004,0.053,0,0.396-0.039,0.494
			c-0.039,0.096-0.058,0.168-0.055,0.214c0.007,0.108,0.084-0.051,0.267,0.011c0.203-0.003,0.41-0.01,0.622-0.022
			c0.239,0.021,0.511-0.066,0.49,0.137c0.04-0.058,0.067,0.044,0.408-0.094c0.251-0.114,0.405-0.413,0.355-0.616
			c-0.026-0.112,0.126-0.183,0.031-0.131c0.122-0.068,0.01-0.021,0.144-0.073c0.418,0.039,0.652-0.005,0.73-0.01
			c0.169-0.01,0.586,0.099,0.706,0.038c0.087,0.158,0.131,0.653,0.136,0.925C86.845,71.321,86.854,71.552,86.855,71.579"></path>
		<path clip-path="url(#SVGID_2_)" d="M92.305,77.238l-0.002-0.014c-0.061,0.122-0.091,0.26-0.092,0.414
			c-0.009,0.1,0.001,0.24,0.024,0.42c0.022,0.207,0.035,0.353,0.041,0.433c-0.09,0.005-0.45,0.026-1.077,0.062
			c-0.38,0.023-0.722,0.074-1.02,0.156l-0.334-0.253c-0.086,0.077-0.116,0.138-0.092,0.182c-0.055-0.006-0.314,0.009-0.774,0.045
			c-0.359,0.021-0.629,0.009-0.812-0.035c-0.17,0.163-0.383,0.178-0.638,0.038c-0.093-0.049-0.11-0.141-0.05-0.275
			c0.061-0.136,0.032-0.232-0.085-0.29c-0.006-0.289,0.009-0.738,0.04-1.349c0.038-0.545,0.045-0.972,0.027-1.28
			c-0.024-0.416-0.092-0.811-0.202-1.187c0.116-0.105,0.254-0.163,0.409-0.172c0.181-0.01,0.397,0.045,0.653,0.167
			c0.359,0.168,0.543,0.254,0.554,0.254l0.106,0.087c0.01-0.027,0.057-0.175,0.143-0.443c0.047-0.174,0.124-0.293,0.234-0.353
			l0.105,0.074c0.044-0.02,0.185-0.113,0.423-0.282c0.184-0.121,0.309-0.559,0.422-0.566c0.123-0.007,0.246,0.04,0.363,0.142
			c0.196,0.071,0.349,0.565,0.422,0.728c0.07,0.163,0.139,0.324,0.206,0.484c-0.505,0.048-0.92,0.068-1.246,0.059
			c-0.073,0.104-0.186,0.126-0.333,0.067c-0.151-0.059-0.256-0.041-0.319,0.053c0.009,0.163,0.027,0.457,0.052,0.88
			c0.011,0.381,0.028,0.679,0.051,0.896c0.03,0.334,0.083,0.64,0.154,0.916c0.091-0.005,0.517-0.029,1.278-0.074
			C91.463,77.192,91.919,77.197,92.305,77.238 M91.784,70.858c-0.101,0.015-0.213,0.025-0.336,0.033
			c-0.258,0.014-0.6,0.008-1.032-0.022c-0.529-0.023-0.851-0.036-0.962-0.039c-0.146,0.199-0.166,0.361-0.146,0.704
			c0.043,0.741,0.068,1.063,0.073,0.962c0.16,0.063,0.247,0.195,0.258,0.393c0.005,0.272,0.013,0.412,0.025,0.42
			c-0.077,0.032-0.111,0.124-0.102,0.278c-0.124-0.027-0.259-0.094-0.4-0.194c-0.188-0.125-0.245,0.319-0.241,0.2l-0.085,0.275
			l-0.106-0.074c-0.089,0.013-0.245-0.013-0.469-0.082c-0.224-0.068-0.381-0.137-0.475-0.204c-0.009-0.145,0.013-0.228,0.07-0.249
			l-0.231-0.177l-0.092,0.128c-0.201-0.932-0.335-2.574-0.257-3.575c0.428,0.029,0.93-0.046,1.445-0.068
			c0.348-0.011,0.837-0.038,1.465-0.083c0.714-0.051,1.231-0.084,1.544-0.104c0.141,0.091,0.217,0.219,0.225,0.381
			c0.006,0.1-0.015,0.262-0.065,0.486C91.841,70.473,91.777,70.75,91.784,70.858"></path>
		<path clip-path="url(#SVGID_2_)" d="M97.9,76.275l-0.017,0.001c-0.07,0.14-0.094,0.341-0.067,0.604
			c0.032,0.369,0.049,0.559,0.049,0.568c-0.055,0.021-0.13-0.006-0.224-0.083c-0.144,0.054-0.211,0.145-0.204,0.27
			c0.003,0.019,0.009,0.049,0.022,0.094c0.004,0.054,0.005,0.091,0.008,0.109c0.006,0.099-0.025,0.174-0.088,0.222
			c-0.163-0.09-0.379-0.147-0.644-0.172c-0.266-0.025-0.518-0.05-0.754-0.073c-0.006-1.232-0.172-2.438-0.496-3.616
			c0,0.009-0.009-0.114-0.022-0.368c0-0.18-0.04-0.31-0.125-0.386l-0.112,0.102c0-0.018,0.036-0.055,0.112-0.109
			c0.076-0.055,0.113-0.109,0.109-0.163c-0.002-0.027-0.009-0.054-0.022-0.08l-0.123-0.089c-0.21,0.068-0.307,0.236-0.29,0.507
			c0.01,0.182-0.063,0.309-0.214,0.38c0.056,0.042,0.089,0.095,0.094,0.158c0.001,0.036-0.006,0.086-0.018,0.151
			c-0.013,0.064-0.02,0.114-0.017,0.15c0.004,0.082,0.048,0.147,0.13,0.197c0.003,0.054,0.03,0.542,0.084,1.464
			c0.035,0.588,0.018,1.088-0.048,1.5l0.014,0.231c-0.079-0.005-0.169-0.005-0.27,0.001c-0.112,0.007-0.275,0.023-0.487,0.049
			c-0.212,0.025-0.367,0.042-0.47,0.049c-0.413,0.023-0.704-0.046-0.87-0.209l-0.178-5.065c-0.081-0.249-0.134-0.595-0.16-1.037
			l-0.058-0.977c-0.038-0.478-0.098-0.847-0.181-1.105c0.035-0.175,0.187-0.27,0.455-0.286c0.169-0.009,0.395,0.014,0.68,0.07
			c0.132-0.063,0.315-0.101,0.549-0.114c0.069-0.004,0.174-0.005,0.321-0.005c0.157-0.009,0.269-0.015,0.335-0.02
			c0.439-0.024,0.729-0.16,0.873-0.403c0.202-0.003,0.421,0.06,0.659,0.191c0.239,0.132,0.448,0.201,0.631,0.209
			c0.475,0.281,0.734,0.746,0.771,1.398c0.008,0.144-0.048,0.719-0.17,1.724l-0.821,0.714c0.141,0.256,0.307,0.813,0.503,1.672
			C97.314,75.416,97.565,75.939,97.9,76.275 M96.383,70.513l0.018,0.013c0.015,0.062,0.007-0.16-0.021-0.666
			c-0.015-0.244-0.105-0.42-0.268-0.528c-0.092,0.132-0.11-0.176-0.153,0.13c-0.045,0.307-0.12,0.527-0.223,0.659
			c-0.282-0.001-0.347-0.169-0.514-0.403c-0.105-0.15-0.156-0.02-0.156-0.03L94.99,69.75c-0.043,0.039-0.09,0.083-0.144,0.132
			c-0.054,0.048-0.109,0.065-0.166,0.05c0.002,0.053-0.024,0.14-0.079,0.257c-0.054,0.116-0.08,0.197-0.079,0.242
			c0.006,0.081,0.071,0.141,0.196,0.179c-0.023,0.183-0.028,0.374-0.018,0.572c0.008,0.108,0.033,0.357,0.079,0.745
			c0.05,0.305,0.072,0.565,0.062,0.784c0.102,0.004,0.196,0.002,0.287-0.002c0.393-0.023,0.648-0.179,0.764-0.467
			c0.04-0.084,0.086-0.386,0.135-0.906C96.07,70.944,96.191,70.668,96.383,70.513"></path>
		<path clip-path="url(#SVGID_2_)" d="M42.134,52.917v0.012c-0.05,0.47-0.068,0.795-0.05,0.974
			c-0.072,0.029-0.166,0.033-0.282,0.014c-0.148-0.025-0.234-0.037-0.26-0.035c-0.065,0.003-0.116,0.026-0.155,0.069
			c-0.094-0.061-0.156-0.087-0.188-0.077c-0.088,0.054-0.128,0.13-0.126,0.229c0.004,0.041,0.02,0.111,0.05,0.212
			c0.029,0.102,0.046,0.176,0.047,0.225c0.003,0.066-0.01,0.169-0.038,0.31c-0.031,0.14-0.043,0.256-0.039,0.346
			c0.007,0.106,0.027,0.273,0.069,0.502c0.04,0.226,0.062,0.399,0.069,0.513c-0.047,0.224-0.065,0.451-0.053,0.679
			c0.014,0.279,0.09,0.653,0.228,1.122c0.025,0.007,0.05,0.009,0.075,0.008c0.057-0.003,0.125-0.044,0.203-0.121
			c0.078-0.078,0.144-0.119,0.202-0.121c0.041-0.002,0.086,0.008,0.135,0.03c0.149,0.476,0.224,0.784,0.233,0.923
			c0.003,0.066,0.002,0.135-0.001,0.209c-0.221,0.053-0.375-0.022-0.466-0.222c0.012-0.058-0.02-0.119-0.096-0.18l-0.244,0.258
			c0.239,0.037,0.333,0.222,0.286,0.552c-0.022,0.067-0.074,0.103-0.155,0.106c-0.14-0.001-0.205-0.002-0.196-0.002l-0.202-0.358
			l-0.082,0.102c-0.067-0.17-0.145-0.252-0.234-0.247c-0.049,0.004-0.135,0.044-0.258,0.123c-0.121,0.081-0.225,0.124-0.307,0.126
			c-0.065,0.004-0.13-0.013-0.199-0.051c-0.004-0.098-0.015-0.2-0.033-0.306c-0.018-0.105-0.073-0.172-0.164-0.201
			c-0.005-0.254,0.003-0.922,0.022-2.006c0.008-0.821,0-1.484-0.027-1.991c-0.011-0.214-0.025-0.423-0.042-0.627
			c-0.045-0.064-0.088-0.095-0.128-0.093c-0.034,0.002-0.083,0.039-0.149,0.107c-0.065,0.069-0.125,0.1-0.173,0.096
			c-0.004-0.083-0.042-0.214-0.112-0.396c-0.071-0.181-0.108-0.311-0.112-0.394c-0.007-0.14,0.044-0.261,0.154-0.365l0.285,0.073
			c0.117-0.163,0.162-0.436,0.143-0.821c-0.003-0.072-0.014-0.189-0.029-0.348c-0.017-0.159-0.026-0.276-0.031-0.35
			c-0.03-0.63,0.162-0.955,0.578-0.976c0.155-0.008,0.345,0.019,0.568,0.082l0.276,0.073c0.021,0.105,0.034,0.215,0.04,0.329
			c0.008,0.156,0.001,0.384-0.019,0.684c-0.024,0.301-0.031,0.521-0.024,0.66c0.011,0.221,0.05,0.42,0.116,0.596
			c0.066-0.003,0.169-0.038,0.309-0.107c0.139-0.069,0.241-0.104,0.308-0.107C41.969,52.752,42.062,52.806,42.134,52.917
			 M41.281,53.795l-0.016-0.282l-0.088-0.082L41.281,53.795z"></path>
		<path clip-path="url(#SVGID_2_)" d="M45.501,52.032l0.013-0.001c-0.029,0.223-0.064,0.446-0.101,0.669
			c-0.045,0.257-0.116,0.458-0.215,0.602c-0.018-0.007-0.119-0.056-0.302-0.144c-0.126-0.068-0.24-0.095-0.336-0.083
			c-0.075,0.481-0.113,1.135-0.122,1.963c-0.005,1.059-0.014,1.699-0.026,1.921c-0.123-0.009-0.216,0.03-0.276,0.119
			c-0.063,0.09-0.12,0.181-0.17,0.273c-0.024,0.051-0.034,0.096-0.031,0.137c0.001,0.066,0.059,0.129,0.169,0.188
			c0.109,0.061,0.166,0.128,0.168,0.202c-0.047,0.174-0.149,0.265-0.305,0.273c-0.072,0.004-0.201-0.018-0.383-0.067
			c-0.182-0.048-0.311-0.07-0.386-0.066l-0.174-3.511c0.068-0.094,0.097-0.156,0.088-0.188l-0.101-0.07
			c0.007-0.146,0.016-0.882,0.024-2.203c0.003-0.894,0.037-1.619,0.1-2.172c-0.009,0.002,0.244-0.016,0.758-0.05
			c0.319-0.015,0.524,0.072,0.614,0.264c0.002,0.181-0.017,0.485-0.052,0.914c-0.036,0.395-0.05,0.699-0.04,0.913
			c0.013,0.261,0.054,0.497,0.121,0.707C44.813,52.248,45.135,52.05,45.501,52.032 M46.719,52.783
			c0.024,0.327,0.044,0.645,0.06,0.957c0.069,1.358,0.047,2.811-0.062,4.359c-0.118,0.104-0.301,0.127-0.545,0.07
			c-0.244-0.057-0.421-0.034-0.53,0.07c-0.141-0.182-0.222-0.509-0.246-0.984c-0.034-0.688-0.052-1.044-0.053-1.069
			c-0.031-1.721,0.138-3.112,0.502-4.172C46.267,52.124,46.559,52.381,46.719,52.783"></path>
		<path clip-path="url(#SVGID_2_)" d="M51.017,54.564c-0.052,0.111-0.076,0.227-0.069,0.35c0.006,0.122,0.013,0.239,0.02,0.356
			c-0.014,0.098-0.04,0.198-0.084,0.298c-0.075-0.02-0.138-0.03-0.186-0.027c-0.057,0.003-0.116,0.024-0.176,0.065
			c-0.059,0.04-0.105,0.061-0.138,0.061c-0.048,0.004-0.114-0.014-0.199-0.051l-0.568-0.833c0.02,0.245,0.075,0.46,0.166,0.644
			c0.045,0.096,0.091,0.193,0.137,0.288c-0.332,0.058-0.52,0.068-0.564,0.028l-0.081,0.104l-0.196-0.261
			c-0.154,0.189-0.189,0.465-0.106,0.83c0.104,0.397,0.108,0.684,0.019,0.86c0.123,0.183,0.271,0.268,0.442,0.26
			c0.075-0.003,0.139-0.032,0.193-0.083c0.08-0.201,0.16-0.402,0.24-0.602c0.119-0.244,0.252-0.37,0.399-0.378
			c0.114-0.005,0.248,0.054,0.402,0.177c0.184,0.064,0.278,0.151,0.283,0.256c0.003,0.066-0.039,0.173-0.125,0.32
			c-0.087,0.149-0.128,0.263-0.123,0.345c0,0.034,0.006,0.061,0.015,0.086c-0.119,0.088-0.224,0.221-0.317,0.396
			c-0.094,0.177-0.217,0.299-0.369,0.364c-0.133,0.13-0.257,0.196-0.371,0.202c-0.089,0.006-0.224-0.064-0.403-0.206
			c-0.179-0.142-0.346-0.211-0.502-0.203c-0.064-0.145-0.223-0.304-0.478-0.481c-0.255-0.175-0.411-0.364-0.471-0.567
			c0.002,0.017-0.002-0.048-0.008-0.196c-0.005-0.082-0.041-0.133-0.106-0.154l0.093-0.091c-0.125-0.002-0.188-0.073-0.196-0.212
			c-0.001-0.016-0.003-0.05-0.004-0.099c0.006-0.042,0.009-0.073,0.007-0.097c-0.006-0.099-0.037-0.167-0.097-0.207l-0.021-0.428
			c-0.011-0.222-0.056-0.379-0.135-0.473c0.08-0.521,0.162-1.042,0.242-1.562c0.132-0.606,0.329-0.916,0.592-0.929
			c0.04-0.002,0.081,0.005,0.123,0.018c0.233-0.233,0.518-0.358,0.853-0.375c0.367-0.019,0.774,0.093,1.22,0.333
			C50.718,53.263,50.935,53.89,51.017,54.564 M49.328,53.21l-0.08,0.103c-0.057,0.011-0.125-0.018-0.202-0.089l0.015,0.283
			c-0.126,0.137-0.175,0.349-0.153,0.636c0.024,0.49,0.037,0.728,0.036,0.712l0.367-0.007c0.176-0.098,0.258-0.263,0.246-0.492
			c-0.006-0.115-0.045-0.303-0.121-0.566C49.363,53.527,49.327,53.335,49.328,53.21"></path>
		<polygon clip-path="url(#SVGID_2_)" fill-rule="evenodd" clip-rule="evenodd" points="53.895,66.95 54.261,67.16 55.497,63.904 
			55.084,63.766 53.848,67.023 54.208,67.253 		"></polygon>
		<polygon clip-path="url(#SVGID_2_)" fill-rule="evenodd" clip-rule="evenodd" points="54.437,66.5 54.288,66.558 53.895,66.951 
			54.208,67.252 54.606,66.839 54.451,66.917 		"></polygon>
		<polygon clip-path="url(#SVGID_2_)" fill-rule="evenodd" clip-rule="evenodd" points="57.433,66.473 57.608,66.336 54.437,66.499 
			54.451,66.918 57.623,66.756 57.826,66.605 		"></polygon>
		<polygon clip-path="url(#SVGID_2_)" fill-rule="evenodd" clip-rule="evenodd" points="58.866,63.48 58.649,63.21 57.432,66.473 
			57.825,66.605 59.062,63.348 58.846,63.081 		"></polygon>
		<polygon clip-path="url(#SVGID_2_)" fill-rule="evenodd" clip-rule="evenodd" points="55.844,63.583 55.686,63.663 58.866,63.479 
			58.847,63.081 55.681,63.224 55.524,63.3 		"></polygon>
		<polygon clip-path="url(#SVGID_2_)" fill-rule="evenodd" clip-rule="evenodd" points="55.497,63.904 55.453,63.976 55.844,63.583 
			55.523,63.3 55.13,63.694 55.084,63.766 		"></polygon>
		<polygon clip-path="url(#SVGID_2_)" fill-rule="evenodd" clip-rule="evenodd" points="58.132,66.861 58.414,66.736 57.734,66.357 
			57.518,66.742 58.218,67.13 58.525,66.992 58.113,66.855 		"></polygon>
		<polygon clip-path="url(#SVGID_2_)" fill-rule="evenodd" clip-rule="evenodd" points="59.46,63.854 59.35,63.598 58.113,66.855 
			58.524,66.992 59.762,63.735 59.65,63.48 		"></polygon>
		<polygon clip-path="url(#SVGID_2_)" fill-rule="evenodd" clip-rule="evenodd" points="59.062,63.348 58.755,63.486 59.459,63.854 
			59.649,63.48 58.972,63.1 58.648,63.21 		"></polygon>
		<polygon clip-path="url(#SVGID_2_)" points="55.302,63.839 55.282,63.833 55.674,63.439 58.618,63.295 58.649,63.211 
			58.866,63.282 59.062,63.348 59.048,63.384 59.565,63.671 59.761,63.735 59.681,63.947 61.12,67.379 59.904,70.641 58.328,66.926 
			58.126,67.011 58.113,66.855 58.128,66.815 57.631,66.54 57.518,66.742 57.455,66.548 54.436,66.696 54.044,67.089 		"></polygon>
		<polygon clip-path="url(#SVGID_2_)" fill-rule="evenodd" clip-rule="evenodd" points="59.708,70.576 60.107,70.557 58.532,66.842 
			58.126,67.012 59.702,70.727 60.101,70.708 59.688,70.57 		"></polygon>
		<polygon clip-path="url(#SVGID_2_)" fill-rule="evenodd" clip-rule="evenodd" points="60.938,67.471 60.924,67.313 59.688,70.569 
			60.101,70.707 61.337,67.452 61.324,67.295 		"></polygon>
		<polygon clip-path="url(#SVGID_2_)" fill-rule="evenodd" clip-rule="evenodd" points="59.762,63.735 59.362,63.755 60.939,67.471 
			61.325,67.295 59.748,63.578 59.35,63.598 		"></polygon>
		<polygon clip-path="url(#SVGID_2_)" fill-rule="evenodd" clip-rule="evenodd" fill="#FFFFFF" points="59.657,64.574 
			59.833,64.961 59.899,65.354 59.88,65.741 59.768,66.14 59.573,66.533 59.303,66.88 58.957,67.201 58.537,67.477 58.309,67.575 
			58.081,67.673 57.824,67.718 57.59,67.771 57.361,67.803 57.114,67.829 56.882,67.797 56.647,67.783 56.446,67.738 56.229,67.665 
			56.02,67.574 55.837,67.468 55.679,67.35 55.504,67.226 55.361,67.07 55.242,66.898 55.064,66.512 54.999,66.119 54.999,65.726 
			55.131,65.333 55.303,64.952 55.576,64.586 55.923,64.265 56.361,63.996 56.57,63.892 56.819,63.799 57.053,63.747 57.29,63.696 
			57.538,63.669 57.767,63.636 57.995,63.669 58.231,63.683 58.448,63.754 58.663,63.826 58.858,63.893 59.061,64.003 
			59.226,64.102 59.396,64.246 59.513,64.417 		"></polygon>
		<polygon clip-path="url(#SVGID_2_)" fill-rule="evenodd" clip-rule="evenodd" points="59.813,65.216 59.991,65.604 60.049,66.016 
			60.03,66.403 59.925,66.782 59.748,67.182 59.454,67.542 59.133,67.851 58.695,68.118 58.459,68.237 58.23,68.335 57.995,68.387 
			57.739,68.434 57.511,68.465 57.29,68.479 57.053,68.465 56.805,68.426 56.602,68.379 56.386,68.307 56.196,68.222 55.993,68.111 
			55.83,68.013 55.679,67.875 55.529,67.737 55.398,67.542 55.215,67.174 55.15,66.779 55.176,66.375 55.281,65.995 55.457,65.595 
			55.726,65.248 56.072,64.926 56.51,64.657 56.746,64.541 56.968,64.461 57.211,64.389 57.467,64.343 57.688,64.332 57.917,64.299 
			58.147,64.332 58.38,64.343 58.605,64.397 58.819,64.468 59.01,64.554 59.219,64.646 59.375,64.764 59.552,64.888 59.669,65.061 
			59.808,65.236 		"></polygon>
		<polygon clip-path="url(#SVGID_2_)" fill-rule="evenodd" clip-rule="evenodd" fill="#FFFFFF" points="59.925,65.668 
			60.109,66.036 60.167,66.45 60.146,66.835 60.043,67.214 59.846,67.607 59.571,67.976 59.251,68.283 58.812,68.551 58.597,68.675 
			58.349,68.769 58.111,68.819 57.857,68.865 57.629,68.897 57.406,68.912 57.171,68.897 56.922,68.859 56.719,68.813 56.504,68.74 
			56.314,68.655 56.112,68.544 55.947,68.444 55.778,68.3 55.653,68.151 55.517,67.974 55.334,67.606 55.267,67.212 55.287,66.827 
			55.399,66.427 55.576,66.027 55.849,65.661 56.209,65.365 56.63,65.09 56.864,64.974 57.094,64.875 57.329,64.822 57.583,64.777 
			57.813,64.744 58.035,64.73 58.289,64.75 58.5,64.777 58.722,64.831 58.938,64.9 59.147,64.994 59.331,65.1 59.494,65.196 
			59.67,65.321 59.787,65.492 		"></polygon>
		<polygon clip-path="url(#SVGID_2_)" fill-rule="evenodd" clip-rule="evenodd" points="60.081,66.31 60.258,66.698 60.323,67.091 
			60.323,67.484 60.192,67.876 60.022,68.257 59.728,68.618 59.401,68.945 58.963,69.213 58.754,69.318 58.505,69.41 58.269,69.462 
			58.035,69.514 57.785,69.54 57.555,69.572 57.327,69.54 57.092,69.528 56.87,69.475 56.652,69.403 56.463,69.317 56.262,69.206 
			56.105,69.088 55.947,68.97 55.804,68.812 55.667,68.635 55.509,68.256 55.425,67.855 55.444,67.468 55.555,67.07 55.746,66.696 
			56.02,66.329 56.366,66.007 56.786,65.733 57.013,65.635 57.244,65.537 57.498,65.49 57.734,65.439 57.961,65.405 58.205,65.399 
			58.44,65.413 58.656,65.419 58.878,65.472 59.094,65.543 59.303,65.635 59.487,65.74 59.662,65.865 59.82,65.982 59.964,66.141 
			60.074,66.331 		"></polygon>
		<polygon clip-path="url(#SVGID_2_)" fill-rule="evenodd" clip-rule="evenodd" fill="#FFFFFF" points="60.311,66.736 
			60.493,67.104 60.559,67.498 60.553,67.91 60.447,68.29 60.251,68.683 59.957,69.043 59.637,69.352 59.216,69.626 58.981,69.743 
			58.732,69.836 58.499,69.889 58.262,69.94 58.015,69.967 57.792,69.98 57.556,69.967 57.328,69.935 57.105,69.882 56.889,69.808 
			56.7,69.723 56.511,69.638 56.333,69.513 56.183,69.375 56.04,69.218 55.921,69.048 55.739,68.681 55.66,68.261 55.68,67.875 
			55.804,67.502 55.98,67.103 56.254,66.736 56.597,66.435 57.014,66.158 57.25,66.042 57.478,65.943 57.728,65.917 57.969,65.844 
			58.199,65.812 58.44,65.806 58.674,65.819 58.886,65.845 59.107,65.898 59.341,65.977 59.533,66.062 59.722,66.147 59.898,66.271 
			60.049,66.408 60.193,66.565 		"></polygon>
		<polygon clip-path="url(#SVGID_2_)" fill-rule="evenodd" clip-rule="evenodd" points="60.488,67.386 60.644,67.765 60.73,68.165 
			60.709,68.553 60.598,68.951 60.407,69.325 60.133,69.692 59.787,70.013 59.368,70.288 59.14,70.386 58.891,70.478 58.655,70.53 
			58.42,70.583 58.19,70.615 57.943,70.641 57.713,70.609 57.478,70.595 57.275,70.55 57.04,70.471 56.851,70.386 56.667,70.28 
			56.491,70.157 56.333,70.038 56.19,69.881 56.072,69.71 55.895,69.324 55.809,68.925 55.83,68.538 55.962,68.144 56.132,67.764 
			56.407,67.397 56.753,67.077 57.191,66.808 57.401,66.704 57.65,66.612 57.884,66.558 58.12,66.507 58.368,66.481 58.597,66.448 
			58.826,66.481 59.042,66.488 59.284,66.547 59.499,66.619 59.689,66.704 59.873,66.808 60.05,66.933 60.206,67.052 60.35,67.208 
					"></polygon>
		<polygon clip-path="url(#SVGID_2_)" fill-rule="evenodd" clip-rule="evenodd" points="38.866,62.384 38.886,62.26 37.641,65.535 
			38.033,65.667 39.278,62.39 39.283,62.306 		"></polygon>
		<polygon clip-path="url(#SVGID_2_)" fill-rule="evenodd" clip-rule="evenodd" points="38.833,62.221 38.839,62.201 38.866,62.385 
			39.284,62.307 39.237,62.117 39.245,62.096 		"></polygon>
		<polygon clip-path="url(#SVGID_2_)" fill-rule="evenodd" clip-rule="evenodd" points="38.787,62.031 38.832,62.22 39.245,62.096 
			39.198,61.906 		"></polygon>
		
			<rect x="38.876" y="61.668" transform="matrix(-0.2949 -0.9555 0.9555 -0.2949 -8.6766 117.3627)" clip-path="url(#SVGID_2_)" fill-rule="evenodd" clip-rule="evenodd" width="0.179" height="0.429"></rect>
		<polygon clip-path="url(#SVGID_2_)" fill-rule="evenodd" clip-rule="evenodd" points="38.69,61.67 38.69,61.67 38.734,61.859 
			39.147,61.735 39.101,61.545 39.095,61.565 		"></polygon>
		<polygon clip-path="url(#SVGID_2_)" fill-rule="evenodd" clip-rule="evenodd" points="38.638,61.434 38.638,61.5 38.69,61.67 
			39.096,61.565 39.043,61.394 39.062,61.467 		"></polygon>
		<polygon clip-path="url(#SVGID_2_)" fill-rule="evenodd" clip-rule="evenodd" points="39.055,61.356 38.643,61.283 38.638,61.434 
			39.062,61.467 39.067,61.316 38.657,61.244 39.048,61.375 		"></polygon>
		<polygon clip-path="url(#SVGID_2_)" fill-rule="evenodd" clip-rule="evenodd" fill="#4C4849" points="39.412,70.89 39.373,70.681 
			38.934,70.752 38.966,70.981 		"></polygon>
		<polygon clip-path="url(#SVGID_2_)" fill-rule="evenodd" clip-rule="evenodd" points="40.323,68.158 40.336,68.053 39.1,71.31 
			39.49,71.44 40.728,68.185 40.721,68.073 		"></polygon>
		<polygon clip-path="url(#SVGID_2_)" fill-rule="evenodd" clip-rule="evenodd" points="40.291,67.929 40.323,68.158 40.721,68.074 
			40.689,67.844 40.27,67.922 		"></polygon>
		<polygon clip-path="url(#SVGID_2_)" fill-rule="evenodd" clip-rule="evenodd" points="40.231,67.711 40.271,67.921 40.689,67.843 
			40.629,67.627 		"></polygon>
		<polygon clip-path="url(#SVGID_2_)" fill-rule="evenodd" clip-rule="evenodd" points="40.179,67.477 40.191,67.502 40.231,67.711 
			40.63,67.627 40.598,67.396 40.61,67.424 		"></polygon>
		<polygon clip-path="url(#SVGID_2_)" fill-rule="evenodd" clip-rule="evenodd" points="40.572,67.28 40.153,67.227 40.179,67.476 
			40.611,67.424 40.577,67.195 40.158,67.143 		"></polygon>
		<path clip-path="url(#SVGID_2_)" fill="#4C4849" d="M37.644,64.886l-0.198,0.061L37.644,64.886z"></path>
		<polygon clip-path="url(#SVGID_2_)" fill="#4C4849" points="37.85,65.57 37.856,65.55 37.958,65.557 38.034,65.667 37.851,65.606 
					"></polygon>
		<polygon clip-path="url(#SVGID_2_)" points="37.399,64.756 37.609,64.716 37.616,64.566 38.859,61.291 38.852,61.309 
			38.852,61.441 38.885,61.604 38.951,61.802 39.003,61.971 39.048,62.162 39.082,62.324 39.278,62.39 38.033,65.667 37.959,65.556 
			37.857,65.549 37.85,65.569 37.851,65.606 38.033,65.667 37.853,65.655 37.857,65.804 37.731,65.648 37.628,65.64 37.602,65.457 
			37.677,65.441 37.758,65.231 37.549,65.288 37.49,65.135 37.446,64.946 37.644,64.885 37.446,64.946 37.451,64.926 		"></polygon>
		<polygon clip-path="url(#SVGID_2_)" points="37.844,65.385 46.949,65.086 47.184,65.101 47.223,65.113 47.447,65.167 
			47.467,65.173 47.701,65.251 47.93,65.35 47.95,65.356 48.166,65.494 48.205,65.507 48.375,65.651 48.427,65.69 48.55,65.84 
			48.564,65.867 48.65,66.004 48.656,66.051 48.254,66.172 48.191,66.07 48.185,66.09 48.08,65.945 48.082,65.945 47.943,65.834 
			47.976,65.867 47.754,65.75 47.754,65.748 47.523,65.651 47.328,65.586 47.104,65.532 47.145,65.546 46.936,65.519 46.936,65.5 
			37.857,65.804 		"></polygon>
		<polygon clip-path="url(#SVGID_2_)" points="48.245,66.176 48.253,66.172 48.277,66.208 		"></polygon>
		<polygon clip-path="url(#SVGID_2_)" fill-rule="evenodd" clip-rule="evenodd" points="53.108,73.83 53.108,73.7 51.865,76.975 
			52.277,77.113 53.52,73.838 53.52,73.706 		"></polygon>
		<polygon clip-path="url(#SVGID_2_)" fill-rule="evenodd" clip-rule="evenodd" points="49.512,62.952 49.486,62.9 53.108,73.83 
			53.52,73.707 49.9,62.776 49.892,62.729 		"></polygon>
		<polygon clip-path="url(#SVGID_2_)" fill-rule="evenodd" clip-rule="evenodd" points="49.441,62.841 49.429,62.814 49.511,62.951 
			49.893,62.729 49.809,62.591 49.789,62.585 49.42,62.834 		"></polygon>
		<polygon clip-path="url(#SVGID_2_)" fill-rule="evenodd" clip-rule="evenodd" points="49.356,62.702 49.323,62.67 49.421,62.834 
			49.789,62.585 49.65,62.408 49.617,62.374 		"></polygon>
		<polygon clip-path="url(#SVGID_2_)" fill-rule="evenodd" clip-rule="evenodd" points="49.212,62.612 49.179,62.579 49.356,62.702 
			49.618,62.375 49.441,62.252 49.408,62.218 		"></polygon>
		<polygon clip-path="url(#SVGID_2_)" fill-rule="evenodd" clip-rule="evenodd" points="49.016,62.479 48.997,62.474 49.212,62.611 
			49.409,62.217 49.186,62.101 49.167,62.093 		"></polygon>
		<polygon clip-path="url(#SVGID_2_)" fill-rule="evenodd" clip-rule="evenodd" points="48.807,62.388 48.76,62.394 49.015,62.479 
			49.166,62.094 48.937,61.995 48.917,61.989 48.781,62.401 		"></polygon>
		<polygon clip-path="url(#SVGID_2_)" fill-rule="evenodd" clip-rule="evenodd" points="48.571,62.31 48.545,62.323 48.781,62.4 
			48.918,61.989 48.683,61.91 48.564,62.33 		"></polygon>
		<polygon clip-path="url(#SVGID_2_)" fill-rule="evenodd" clip-rule="evenodd" points="48.388,62.271 48.349,62.258 48.564,62.33 
			48.682,61.91 48.439,61.851 48.42,61.845 		"></polygon>
		<polygon clip-path="url(#SVGID_2_)" fill-rule="evenodd" clip-rule="evenodd" points="48.178,62.243 48.172,62.263 48.388,62.27 
			48.42,61.845 48.192,61.81 48.165,61.825 		"></polygon>
		<polygon clip-path="url(#SVGID_2_)" fill-rule="evenodd" clip-rule="evenodd" points="39.297,62.397 39.075,62.542 48.178,62.243 
			48.166,61.825 39.082,62.128 38.885,62.26 39.278,62.391 		"></polygon>
		<polygon clip-path="url(#SVGID_2_)" fill="#4C4849" points="41.583,72.358 41.552,72.342 41.572,72.332 		"></polygon>
		<path clip-path="url(#SVGID_2_)" fill="#4C4849" d="M46.501,73.832l-0.039,0.442L46.501,73.832z"></path>
		<path clip-path="url(#SVGID_2_)" d="M38.967,70.981l0.04,0.211l0.079,0.222l0.098,0.164l0.556,0.295l0.556,0.296l0.536,0.287
			l0.543,0.269l0.02,0.007l0.55,0.249l0.549,0.249l0.594,0.243l0.601,0.222l0.021,0.007l0.64,0.171l0.642,0.171l0.019,0.006
			l0.707,0.105l0.725,0.112l0.02,0.007l0.79,0.046l0.028-0.015l0.843,0.021l0.903-0.025l0.956-0.052l0.196-0.132l1.236-3.256
			l-0.21-0.289l0.014,0.42l-0.067-0.082l0.047-0.12l-0.137,0.007l-0.059-0.074l-0.03,0.081l-0.708,0.044h-0.917l-0.843-0.021
			l-0.772-0.039L46.98,70.69l-0.699-0.125l-0.643-0.171l-0.64-0.171l-0.602-0.222l-0.583-0.218l-0.548-0.248l-0.544-0.27
			l-0.561-0.275l-0.537-0.287l-0.537-0.29l-0.371-0.197l0.012-0.031l-0.196-0.067l-0.053-0.235l-0.038-0.211l-0.016-0.071
			l0.147-0.321l-0.207-0.069l-0.009-0.004l-0.197-0.064l-1.236,3.255l-0.014,0.105l0.033,0.229L38.967,70.981z M39.119,70.466
			l0.008,0.04l-0.022-0.01L39.119,70.466z"></path>
		<polygon clip-path="url(#SVGID_2_)" fill-rule="evenodd" clip-rule="evenodd" points="50.263,71.045 51.219,70.993 51.205,70.573 
			50.25,70.625 		"></polygon>
		
			<rect x="49.355" y="70.637" transform="matrix(-0.9996 0.0287 -0.0287 -0.9996 101.6256 140.236)" clip-path="url(#SVGID_2_)" fill-rule="evenodd" clip-rule="evenodd" width="0.901" height="0.421"></rect>
		<polygon clip-path="url(#SVGID_2_)" fill-rule="evenodd" clip-rule="evenodd" points="48.497,71.043 48.517,71.05 49.361,71.07 
			49.348,70.65 48.504,70.631 48.53,70.619 48.492,71.064 		"></polygon>
		<polygon clip-path="url(#SVGID_2_)" fill-rule="evenodd" clip-rule="evenodd" points="47.686,70.992 47.707,70.999 48.492,71.063 
			48.53,70.618 47.739,70.573 47.758,70.579 		"></polygon>
		<polygon clip-path="url(#SVGID_2_)" fill-rule="evenodd" clip-rule="evenodd" points="46.953,70.899 47.686,70.992 47.758,70.579 
			47.032,70.467 		"></polygon>
		<polygon clip-path="url(#SVGID_2_)" fill-rule="evenodd" clip-rule="evenodd" points="46.234,70.768 46.253,70.774 46.953,70.899 
			47.031,70.467 46.306,70.355 46.325,70.361 		"></polygon>
		<polygon clip-path="url(#SVGID_2_)" fill-rule="evenodd" clip-rule="evenodd" points="45.594,70.597 46.234,70.768 46.325,70.361 
			45.685,70.191 45.586,70.617 		"></polygon>
		<polygon clip-path="url(#SVGID_2_)" fill-rule="evenodd" clip-rule="evenodd" points="44.926,70.44 44.947,70.447 45.586,70.617 
			45.685,70.191 45.044,70.02 45.064,70.027 		"></polygon>
		<polygon clip-path="url(#SVGID_2_)" fill-rule="evenodd" clip-rule="evenodd" points="44.324,70.217 44.324,70.217 44.927,70.44 
			45.065,70.027 44.462,69.804 44.483,69.81 44.306,70.211 		"></polygon>
		<polygon clip-path="url(#SVGID_2_)" fill-rule="evenodd" clip-rule="evenodd" points="43.729,69.974 44.306,70.21 44.482,69.809 
			43.908,69.573 		"></polygon>
		<polygon clip-path="url(#SVGID_2_)" fill-rule="evenodd" clip-rule="evenodd" points="43.18,69.725 43.729,69.975 43.908,69.574 
			43.35,69.346 		"></polygon>
		<polygon clip-path="url(#SVGID_2_)" fill-rule="evenodd" clip-rule="evenodd" points="42.618,69.449 42.632,69.476 43.181,69.724 
			43.351,69.345 42.788,69.069 42.807,69.076 42.611,69.469 		"></polygon>
		<polygon clip-path="url(#SVGID_2_)" fill-rule="evenodd" clip-rule="evenodd" points="42.075,69.181 42.611,69.47 42.807,69.077 
			42.265,68.807 42.069,69.201 		"></polygon>
		<polygon clip-path="url(#SVGID_2_)" fill-rule="evenodd" clip-rule="evenodd" points="41.538,68.893 42.069,69.201 42.265,68.807 
			41.729,68.519 41.518,68.886 		"></polygon>
		<polygon clip-path="url(#SVGID_2_)" fill-rule="evenodd" clip-rule="evenodd" points="40.982,68.597 41.519,68.886 41.729,68.519 
			41.192,68.23 		"></polygon>
		<polygon clip-path="url(#SVGID_2_)" fill-rule="evenodd" clip-rule="evenodd" points="40.728,68.185 40.427,68.301 40.982,68.597 
			41.192,68.23 40.637,67.935 40.335,68.053 		"></polygon>
		<polygon clip-path="url(#SVGID_2_)" fill-rule="evenodd" clip-rule="evenodd" points="97.423,62.283 96.179,65.558 
			100.239,66.916 101.182,64.741 101.209,64.532 101.215,64.315 101.182,64.085 101.103,63.864 100.973,63.666 100.868,63.455 
			100.698,63.247 100.523,63.057 100.339,62.886 100.137,62.708 99.927,62.551 99.724,62.439 99.527,62.309 99.298,62.211 
			99.096,62.099 98.9,62.033 98.724,61.975 98.513,61.949 98.325,61.929 98.142,61.955 97.958,61.981 97.763,62.047 97.592,62.164 
					"></polygon>
		<polygon clip-path="url(#SVGID_2_)" fill-rule="evenodd" clip-rule="evenodd" points="100.058,66.811 100.312,66.699 
			96.251,65.342 96.112,65.754 100.174,67.112 100.449,67.008 		"></polygon>
		<polygon clip-path="url(#SVGID_2_)" points="37.399,64.56 37.418,64.5 38.657,61.244 39.048,61.375 37.85,64.591 37.825,64.723 
			37.818,64.677 37.399,64.756 37.393,64.71 		"></polygon>
		<polygon clip-path="url(#SVGID_2_)" fill="#4C4849" points="57.314,72.267 57.241,72.311 57.236,72.306 		"></polygon>
		<path clip-path="url(#SVGID_2_)" d="M37.549,65.288l0.046,0.19l0.007-0.021l0.317-0.067l-0.082,0.212l9.105-0.298l0.215,0.007
			l0.236,0.078l0.235,0.079l0.236,0.08l0.216,0.136l0.176,0.125l0.124,0.15l0.077,0.153l-0.213,0.064l3.621,10.932l0.211,0.004
			l0.005,0.133h0.326l0.308-0.006l0.281,0.006l0.256-0.046l0.261-0.065l0.261-0.131l0.242-0.203l0.287-0.276l0.007-0.019
			l0.163-0.229l0.191-0.242l0.216-0.256l0.15-0.255l0.19-0.308l0.196-0.263l0.163-0.294l0.209-0.301l0.17-0.248l0.242-0.27
			l0.198-0.262l0.228-0.23l0.203-0.215l0.216-0.189l0.21-0.171l0.24-0.138l0.053-0.026l-0.155-0.149l0.155,0.149l0.243-0.269
			l0.223-0.209l0.197-0.197l0.208-0.17l0.203-0.151l0.216-0.125l0.189-0.11l0.209-0.105l0.237-0.052l0.228-0.099l0.236-0.052
			l0.274-0.04l0.301-0.052l0.333-0.019l0.361-0.033l0.353-0.013l0.019,0.006l39.29-2.94l0.228-0.032l0.209-0.041l0.19-0.045
			l0.197-0.065l0.182-0.092l0.19-0.111l0.159-0.145l0.181-0.156l0.04-0.054l0.687-1.604l-0.359-0.23l0.159,0.154l-0.025,0.021
			l-0.174-0.122l-0.172,0.401l-0.116,0.07l-0.151,0.06l-0.177,0.072l-0.164,0.032l-0.209,0.04l-0.207,0.039l-39.31,2.934
			l-0.25,0.026l-0.241,0.007l-0.241,0.006l-0.256,0.045h-0.261l-0.228,0.032l-0.251,0.028l-0.228,0.032l-0.256,0.046l-0.228,0.033
			l-0.235,0.051l-0.261,0.066l-0.236,0.053l-0.249,0.09l-0.249,0.093l-0.235,0.117l-0.465,0.283l-0.47,0.431l-0.498,0.512
			l-0.478,0.582l-0.464,0.609l-0.399,0.544l-0.392,0.524l-0.328,0.393l-0.189,0.047l-0.163,0.032l-0.203,0.02h-0.197h-0.196
			l-0.17-0.012l-0.216-0.008l-0.189-0.02l-3.609-10.904l-0.078-0.158l-0.123-0.151l-0.177-0.125l-0.236-0.144l-0.229-0.099
			l-0.235-0.078l-0.222-0.054l-0.217-0.005l-9.097,0.277l-1.094,2.882l-0.005-0.037L37.549,65.288z M102.922,65.59l0.013-0.029
			l0.15,0.143L102.922,65.59z"></path>
		<polygon clip-path="url(#SVGID_2_)" fill-rule="evenodd" clip-rule="evenodd" points="101.548,66.392 101.783,66.34 101.993,66.3 
			102.183,66.255 102.379,66.189 102.562,66.098 102.752,65.986 102.902,65.862 103.085,65.704 102.772,65.403 102.633,65.554 
			102.489,65.659 102.352,65.744 102.202,65.802 102.057,65.842 101.888,65.894 101.707,65.92 101.503,65.94 		"></polygon>
		<polygon clip-path="url(#SVGID_2_)" fill-rule="evenodd" clip-rule="evenodd" points="62.266,69.313 101.549,66.392 
			101.502,65.94 62.215,68.88 		"></polygon>
		<polygon clip-path="url(#SVGID_2_)" fill-rule="evenodd" clip-rule="evenodd" points="58.413,70.012 58.642,69.914 58.867,69.836 
			59.133,69.75 59.355,69.672 59.597,69.6 59.826,69.567 60.055,69.535 60.309,69.489 60.518,69.449 60.762,69.443 61.011,69.417 
			61.258,69.391 61.507,69.365 61.729,69.352 61.997,69.333 62.266,69.313 62.215,68.88 61.964,68.907 61.717,68.932 61.455,68.932 
			61.207,68.958 60.965,68.965 60.729,69.018 60.487,69.024 60.219,69.043 59.982,69.096 59.747,69.148 59.493,69.194 59.23,69.26 
			59.009,69.337 58.74,69.422 58.473,69.507 58.237,69.625 		"></polygon>
		<polygon clip-path="url(#SVGID_2_)" fill-rule="evenodd" clip-rule="evenodd" points="54.893,73.904 54.979,73.844 55.156,73.641 
			55.312,73.433 55.5,73.19 55.698,72.927 55.921,72.653 56.125,72.37 56.353,72.076 56.582,71.781 56.816,71.466 57.06,71.198 
			57.294,70.949 57.537,70.681 57.74,70.465 57.995,70.288 58.203,70.117 58.413,70.012 58.236,69.626 57.969,69.777 57.74,69.94 
			57.471,70.156 57.216,70.398 56.979,70.649 56.746,70.897 56.483,71.224 56.254,71.519 56.024,71.814 55.795,72.108 55.594,72.39 
			55.372,72.665 55.174,72.927 54.985,73.17 54.828,73.38 54.685,73.55 54.763,73.509 		"></polygon>
		<polygon clip-path="url(#SVGID_2_)" fill-rule="evenodd" clip-rule="evenodd" fill="#FFFFFF" points="47.368,62.06 48.178,62.047 
			48.244,62.047 41.279,59.718 40.927,59.928 47.361,62.08 		"></polygon>
		<polygon clip-path="url(#SVGID_2_)" fill-rule="evenodd" clip-rule="evenodd" fill="#FFFFFF" points="47.368,62.06 39.081,62.325 
			39.048,62.161 39.002,61.972 38.951,61.803 38.885,61.604 38.852,61.441 38.852,61.31 38.904,61.153 39.048,61.047 39.388,60.812 
			39.768,60.589 40.147,60.367 40.527,60.144 40.887,59.915 40.927,59.928 47.361,62.08 		"></polygon>
		<polygon clip-path="url(#SVGID_2_)" fill="#FFFFFF" points="42.33,67.103 47.975,66.785 50.185,67.677 50.964,69.991 
			51.199,70.791 50.264,70.848 49.348,70.848 48.504,70.828 47.733,70.789 46.98,70.69 46.281,70.565 45.638,70.395 44.998,70.224 
			44.397,70.001 43.813,69.784 43.266,69.535 42.722,69.266 42.16,68.991 41.623,68.703 41.087,68.414 40.532,68.118 40.479,67.883 
			40.44,67.672 40.388,67.438 40.356,67.207 		"></polygon>
		<polygon clip-path="url(#SVGID_2_)" fill-rule="evenodd" clip-rule="evenodd" fill="#FFFFFF" points="56.549,67.751 
			56.628,67.842 57.354,68.283 57.59,67.901 56.863,67.463 56.936,67.576 56.549,67.751 56.576,67.803 56.628,67.842 		"></polygon>
		<polygon clip-path="url(#SVGID_2_)" fill-rule="evenodd" clip-rule="evenodd" fill="#FFFFFF" points="50.093,67.886 49.97,67.735 
			51.003,70.855 51.415,70.73 50.382,67.611 50.271,67.487 50.382,67.611 50.348,67.512 50.271,67.487 		"></polygon>
		<polygon clip-path="url(#SVGID_2_)" fill-rule="evenodd" clip-rule="evenodd" fill="#FFFFFF" points="47.996,66.988 
			47.891,66.976 50.093,67.886 50.271,67.487 48.068,66.575 47.981,66.569 48.068,66.575 48.028,66.562 47.981,66.569 		"></polygon>
		<polygon clip-path="url(#SVGID_2_)" fill-rule="evenodd" clip-rule="evenodd" fill="#FFFFFF" points="40.577,67.195 
			40.369,67.431 47.995,66.988 47.982,66.569 40.356,67.011 40.153,67.228 40.356,67.011 40.112,67.017 40.153,67.228 		"></polygon>
		<polygon clip-path="url(#SVGID_2_)" fill-rule="evenodd" clip-rule="evenodd" fill="#FFFFFF" points="40.637,67.936 
			40.721,68.074 40.716,67.961 40.69,67.844 40.682,67.731 40.649,67.633 40.644,67.522 40.617,67.405 40.583,67.306 40.577,67.194 
			40.153,67.228 40.153,67.357 40.173,67.497 40.206,67.595 40.211,67.706 40.244,67.804 40.271,67.921 40.316,68.046 
			40.323,68.159 40.427,68.302 40.323,68.159 40.356,68.256 40.427,68.302 		"></polygon>
		<polygon clip-path="url(#SVGID_2_)" fill-rule="evenodd" clip-rule="evenodd" fill="#FFFFFF" points="51.009,70.835 
			51.184,70.566 50.25,70.625 49.347,70.65 48.53,70.619 47.738,70.572 47.031,70.466 46.325,70.361 45.685,70.191 45.064,70.026 
			44.462,69.803 43.907,69.573 43.35,69.345 42.807,69.077 42.265,68.807 41.729,68.52 41.192,68.23 40.636,67.936 40.426,68.301 
			40.982,68.598 41.518,68.886 42.069,69.201 42.611,69.469 43.18,69.725 43.729,69.975 44.323,70.216 44.926,70.439 45.586,70.618 
			46.234,70.769 46.953,70.898 47.706,70.999 48.491,71.064 49.361,71.07 50.262,71.044 51.237,71 51.414,70.73 51.237,71 
			51.507,70.979 51.414,70.73 51.002,70.855 		"></polygon>
		<polygon clip-path="url(#SVGID_2_)" fill-rule="evenodd" clip-rule="evenodd" fill="#FFFFFF" points="62.214,68.88 61.925,68.895 
			61.604,68.939 61.317,68.951 61.003,68.979 60.702,69.03 60.382,69.076 60.062,69.123 59.753,69.193 59.445,69.265 59.179,69.352 
			58.885,69.449 58.609,69.554 58.375,69.672 58.092,69.797 57.863,69.96 57.653,70.13 57.917,70.458 58.117,70.307 58.314,70.176 
			58.529,70.051 58.778,69.96 59.022,69.822 59.283,69.757 59.59,69.687 59.858,69.6 60.152,69.567 60.415,69.503 60.729,69.477 
			61.029,69.424 61.35,69.378 61.665,69.352 61.958,69.319 62.265,69.313 		"></polygon>
		<polygon clip-path="url(#SVGID_2_)" fill-rule="evenodd" clip-rule="evenodd" fill="#FFFFFF" points="101.503,65.94 62.214,68.88 
			62.266,69.313 101.548,66.393 		"></polygon>
		<polygon clip-path="url(#SVGID_2_)" fill-rule="evenodd" clip-rule="evenodd" fill="#FFFFFF" points="102.235,63.541 
			102.398,63.771 102.568,63.98 102.647,64.204 102.772,64.42 102.837,64.618 102.858,64.82 102.863,64.997 102.852,65.167 
			102.803,65.306 102.738,65.436 102.654,65.561 102.502,65.684 102.346,65.765 102.097,65.854 101.836,65.92 101.503,65.94 
			101.548,66.393 101.909,66.359 102.223,66.268 102.496,66.163 102.738,66.025 102.961,65.881 103.117,65.671 103.203,65.48 
			103.28,65.247 103.275,65.002 103.29,64.768 103.236,64.532 103.15,64.264 103.052,64.034 102.922,63.771 102.752,63.497 
			102.583,63.287 		"></polygon>
		<polygon clip-path="url(#SVGID_2_)" fill-rule="evenodd" clip-rule="evenodd" fill="#FFFFFF" points="97.553,61.3 97.907,61.287 
			98.265,61.32 98.631,61.398 98.985,61.451 99.318,61.561 99.652,61.674 99.972,61.825 100.274,61.969 100.587,62.139 
			100.875,62.323 101.183,62.512 101.405,62.696 101.639,62.906 101.869,63.136 102.058,63.351 102.235,63.541 102.582,63.287 
			102.379,63.044 102.15,62.815 101.921,62.586 101.667,62.369 101.385,62.166 101.104,61.963 100.817,61.779 100.489,61.582 
			100.149,61.425 99.802,61.287 99.449,61.17 99.076,61.045 98.71,60.966 98.337,60.906 97.912,60.873 97.539,60.88 		"></polygon>
		<polygon clip-path="url(#SVGID_2_)" fill-rule="evenodd" clip-rule="evenodd" fill="#FFFFFF" points="62.791,62.499 
			97.554,61.299 97.54,60.879 62.796,62.085 		"></polygon>
		<polygon clip-path="url(#SVGID_2_)" fill-rule="evenodd" clip-rule="evenodd" fill="#FFFFFF" points="57.302,61.624 57.63,61.756 
			57.975,61.828 58.31,61.939 58.657,62.011 59.022,62.091 59.364,62.182 59.735,62.241 60.07,62.288 60.417,62.36 60.775,62.392 
			61.128,62.444 61.476,62.453 61.809,62.498 62.163,62.485 62.482,62.505 62.79,62.499 62.796,62.086 62.469,62.086 62.149,62.066 
			61.848,62.053 61.508,62.026 61.168,62 60.827,61.973 60.494,61.927 60.142,61.874 59.795,61.803 59.462,61.756 59.121,61.665 
			58.767,61.611 58.427,61.52 58.068,61.421 57.767,61.343 57.433,61.232 57.297,61.645 		"></polygon>
		<polygon clip-path="url(#SVGID_2_)" fill-rule="evenodd" clip-rule="evenodd" fill="#FFFFFF" points="45.576,58.404 
			46.172,58.318 46.733,58.266 47.27,58.227 47.761,58.194 48.226,58.175 48.644,58.227 49.076,58.241 49.436,58.273 49.808,58.333 
			50.155,58.405 50.481,58.47 50.776,58.569 51.089,58.674 51.338,58.779 51.646,58.904 51.889,59.028 52.169,59.165 52.45,59.304 
			52.725,59.461 53,59.619 53.275,59.775 53.562,59.959 53.844,60.098 54.15,60.287 54.492,60.445 54.818,60.641 55.183,60.785 
			55.536,60.968 55.935,61.146 56.368,61.291 56.826,61.487 57.297,61.645 57.433,61.232 56.962,61.074 56.499,60.897 
			56.112,60.746 55.707,60.589 55.335,60.399 55.013,60.248 54.686,60.051 54.366,59.901 54.052,59.73 53.758,59.566 53.484,59.41 
			53.197,59.225 52.921,59.068 52.64,58.93 52.358,58.792 52.103,58.641 51.822,58.504 51.515,58.379 51.227,58.261 50.914,58.156 
			50.579,58.045 50.234,57.972 49.88,57.92 49.494,57.834 49.096,57.788 48.682,57.781 48.205,57.775 47.748,57.775 47.219,57.795 
			46.682,57.834 46.112,57.905 45.523,57.971 45.557,58.396 		"></polygon>
		<polygon clip-path="url(#SVGID_2_)" fill-rule="evenodd" clip-rule="evenodd" fill="#FFFFFF" points="39.159,61.238 
			39.501,61.003 39.879,60.78 40.26,60.557 40.645,60.314 40.998,60.105 41.397,59.889 41.769,59.686 42.156,59.51 42.569,59.32 
			42.979,59.13 43.385,58.958 43.804,58.815 44.256,58.705 44.667,58.579 45.119,58.468 45.557,58.396 45.524,57.971 45.033,58.069 
			44.57,58.154 44.111,58.284 43.68,58.403 43.248,58.586 42.803,58.743 42.398,58.913 41.985,59.103 41.567,59.312 41.168,59.528 
			40.796,59.731 40.416,59.954 40.035,60.176 39.657,60.399 39.297,60.629 38.938,60.858 39.14,61.231 		"></polygon>
		<polygon clip-path="url(#SVGID_2_)" fill-rule="evenodd" clip-rule="evenodd" fill="#FFFFFF" points="39.082,62.128 
			39.303,62.312 39.237,62.117 39.198,61.905 39.146,61.735 39.101,61.545 39.075,61.427 39.056,61.356 39.086,61.257 39.14,61.23 
			38.938,60.857 38.749,61.035 38.649,61.264 38.624,61.474 38.689,61.67 38.734,61.859 38.788,62.032 38.839,62.202 38.872,62.365 
			39.075,62.542 38.872,62.365 38.878,62.542 39.075,62.542 		"></polygon>
		<polygon clip-path="url(#SVGID_2_)" fill="#FFFFFF" points="55.137,63.675 55.132,63.696 55.131,63.695 		"></polygon>
		<polygon clip-path="url(#SVGID_2_)" fill="#FFFFFF" points="55.039,63.773 55.131,63.694 55.078,63.918 		"></polygon>
		<polygon clip-path="url(#SVGID_2_)" fill="#FFFFFF" points="60.893,66.276 68.06,68.673 67.283,68.719 67.276,68.738 
			61.055,66.659 		"></polygon>
		<path clip-path="url(#SVGID_2_)" fill="#FFFFFF" d="M39.075,62.541l9.104-0.298l0.19,0.02l0.176,0.059l0.236,0.079l0.216,0.072
			l0.196,0.132l0.144,0.092l0.084,0.137l0.065,0.065l3.622,10.931l0.053,0.171l0.177-0.006l0.182-0.026l0.209,0.026l0.256,0.019
			l0.242-0.006l0.235,0.012l0.217-0.058l0.242-0.072l0.195-0.131l0.236-0.25l0.196-0.261l0.183-0.222l0.183-0.222l0.158-0.211
			l0.15-0.189l0.131-0.198l0.156-0.209l0.132-0.196l0.15-0.19l0.151-0.19l0.163-0.164l0.17-0.183l0.196-0.197l0.196-0.196
			l0.25-0.223l-0.133-0.167l0.198-0.161l0.221-0.144l0.257-0.112l0.235-0.117l0.255-0.111l0.287-0.079l0.296-0.098l0.287-0.078
			l0.274-0.04l0.301-0.052l0.321-0.046l0.3-0.052l0.314-0.027l0.315-0.025l0.293-0.032l0.289-0.014l5.05-0.365l-6.222-2.079
			l-0.162-0.383l7.167,2.397l33.477-2.504l0.62-0.098l0.465-0.216l0.32-0.308l0.118-0.353V64.8l0.007-0.019l-0.112-0.453
			l-0.222-0.445l-0.321-0.478l-0.188-0.217l-0.211-0.223l-0.229-0.229l-0.241-0.19l-0.255-0.216L101,62.145l-0.307-0.189
			l-0.307-0.191l-0.327-0.131l-0.323-0.151l-0.352-0.117l-0.372-0.125l-0.352-0.053l-0.368-0.079l-0.379-0.04l-0.374,0.007
			l-5.054,0.189l-29.688,1.017H62.47l-0.306,0.007l-0.348-0.008l-0.333-0.045l-0.341-0.027l-0.34-0.027l-0.333-0.045l-0.354-0.053
			l-0.353-0.051l-0.346-0.073l-0.346-0.072l-0.347-0.073l-0.36-0.098l-0.34-0.093l-0.32-0.085l-0.334-0.11l-0.471-0.159
			l-0.463-0.176l-0.407-0.159l-0.404-0.156l-0.355-0.184l-0.34-0.157l-0.352-0.184l-0.323-0.151l-0.305-0.189l-0.275-0.159
			l-0.295-0.163l-0.275-0.158l-0.293-0.164l-0.275-0.157l-0.261-0.131l-0.276-0.157l-0.28-0.138l-0.289-0.118l-0.275-0.092
			l-0.313-0.105l-0.334-0.111l-0.32-0.085l-0.352-0.055l-0.373-0.058l-0.379-0.039l-0.427-0.032l-0.451-0.021l-0.464,0.02
			l-0.484,0.012l-0.542,0.059l-0.563,0.053l-0.615,0.078l-0.458,0.066l-0.45,0.11l-0.454,0.111l-0.417,0.144l-0.446,0.159
			l-0.424,0.163l-0.405,0.169l-0.413,0.19l-0.391,0.198l-0.4,0.215l6.352,2.125l-8.55,0.285L39.075,62.541z M97.296,62.721
			l0.041-0.249l0.085-0.189l0.157-0.145l0.235-0.118l0.275-0.039l0.149,0.007l0.172,0.013l0.163,0.032l0.163,0.033l0.196,0.065
			l0.177,0.059l0.19,0.086l0.203,0.111l0.168,0.079l0.178,0.125l0.157,0.117l0.17,0.144l0.177,0.125l0.123,0.151l0.151,0.137
			l0.124,0.151l0.229,0.296l0.118,0.302l0.06,0.15l0.031,0.099l-0.019,0.255l-0.047,0.202l-0.144,0.17l-0.209,0.105l-0.281,0.06
			l-0.157,0.014l-0.163-0.034l-0.189-0.02l-0.204-0.045L99.6,64.91l-0.197-0.065l-0.209-0.092l-0.182-0.105l-0.191-0.085
			l-0.203-0.112l-0.177-0.124l-0.169-0.145l-0.157-0.117l-0.163-0.164l-0.144-0.158l-0.125-0.15l-0.202-0.308l-0.118-0.302
			l-0.032-0.097L97.296,62.721z M61.109,67.353L61.109,67.353l-0.138-0.111L61.109,67.353z M55.539,63.889l0.232-0.231l2.985-0.172
			l0.632,0.329l1.5,3.533l-0.234,0.299l-3.208,0.228l0.144,0.027l-0.109,0.175l-0.017,0.002l-0.711-0.412l-0.003-0.008l0.186-0.084
			L55.539,63.889z"></path>
		<polygon clip-path="url(#SVGID_2_)" fill-rule="evenodd" clip-rule="evenodd" points="95.276,64.994 95.092,64.89 95.061,64.725 
			95.321,64.66 95.375,64.83 95.216,64.712 		"></polygon>
		<polygon clip-path="url(#SVGID_2_)" fill-rule="evenodd" clip-rule="evenodd" points="95.63,64.785 95.59,64.836 95.524,64.902 
			95.446,64.942 95.369,64.98 95.276,64.994 95.217,64.713 95.257,64.725 95.317,64.68 95.388,64.66 95.394,64.64 95.381,64.68 
			95.623,64.805 		"></polygon>
		<polygon clip-path="url(#SVGID_2_)" fill-rule="evenodd" clip-rule="evenodd" points="94.89,63.139 94.911,63.145 95.034,63.297 
			95.197,63.46 95.355,63.643 95.504,63.847 95.628,64.063 95.7,64.306 95.702,64.568 95.623,64.805 95.381,64.679 95.433,64.522 
			95.421,64.365 95.374,64.175 95.257,64.005 95.127,63.808 94.983,63.652 94.819,63.486 94.694,63.337 94.713,63.343 		"></polygon>
		<polygon clip-path="url(#SVGID_2_)" fill-rule="evenodd" clip-rule="evenodd" points="92.485,62.444 92.464,62.437 92.812,62.444 
			93.137,62.444 93.446,62.504 93.74,62.536 94.042,62.615 94.321,62.753 94.615,62.917 94.89,63.139 94.714,63.343 94.445,63.165 
			94.19,63.015 93.949,62.891 93.686,62.824 93.401,62.772 93.106,62.739 92.804,62.726 92.497,62.732 92.505,62.712 92.457,62.457 
					"></polygon>
		<polygon clip-path="url(#SVGID_2_)" fill-rule="evenodd" clip-rule="evenodd" points="66.963,63.784 67.075,63.712 92.458,62.457 
			92.504,62.712 67.112,63.987 67.224,63.915 		"></polygon>
		<polygon clip-path="url(#SVGID_2_)" fill-rule="evenodd" clip-rule="evenodd" points="66.36,64.675 66.087,64.583 66.106,64.393 
			66.157,64.237 66.237,64.066 66.341,63.947 66.479,63.863 66.654,63.792 66.852,63.725 67.075,63.712 67.112,63.987 
			66.903,64.026 66.714,64.071 66.624,64.084 66.531,64.163 66.486,64.237 66.412,64.321 66.375,64.439 66.381,64.615 
			66.106,64.524 		"></polygon>
		<polygon clip-path="url(#SVGID_2_)" points="95.114,64.568 95.041,64.458 94.948,64.338 94.878,64.228 94.78,64.128 94.687,64.01 
			94.589,63.914 94.499,63.794 94.237,63.598 93.968,63.42 93.7,63.31 93.419,63.237 93.125,63.205 92.818,63.146 92.517,63.132 
			92.189,63.131 66.8,64.407 67.008,64.011 67.087,64 67.112,63.986 92.504,62.712 92.927,62.746 93.282,62.732 93.615,62.778 
			93.922,62.838 94.204,62.975 94.457,63.125 94.694,63.337 94.964,63.644 95.197,63.919 95.368,64.194 95.453,64.397 
			95.453,64.528 95.393,64.64 95.23,64.738 95.208,64.743 95.197,64.705 		"></polygon>
		<path clip-path="url(#SVGID_2_)" d="M66.087,64.583l0.025,0.249l0.053,0.17l0.072,0.242l0.169,0.275l0.209,0.223l0.267,0.243
			l0.322,0.216l0.359,0.165l0.38,0.103l0.458,0.001l26.083-1.326l0.496-0.052l0.354-0.079l0.255-0.177l0.144-0.236l-0.005-0.242
			l-0.1-0.296l-0.187-0.281l-0.264-0.329l-0.266-0.307l-0.289-0.25l-0.307-0.189l-0.3-0.144l-0.329-0.066l-0.391-0.065h-0.393
			l-0.445,0.025l-25.382,1.256v0.007l-0.27,0.012l-0.274,0.104l-0.183,0.158l-0.125,0.178l-0.086,0.189L66.087,64.583z
			 M66.381,64.616l0.031-0.163l0.013-0.027l0.021-0.006h0.129l0.224-0.012l0.212-0.397L67.087,64l0.025-0.013l25.392-1.275
			l0.423,0.033l0.355-0.013l0.333,0.047l0.307,0.059l0.282,0.138l0.253,0.15l0.237,0.211l0.27,0.307l0.233,0.276l0.171,0.275
			l0.085,0.202v0.132l-0.06,0.111l-0.163,0.099l-0.022,0.005l-0.285,0.066l-0.431,0.052L68.401,66.21l-0.02-0.008l-0.366-0.012
			l-0.36-0.099l-0.32-0.15l-0.276-0.158l-0.227-0.23l-0.164-0.229l-0.143-0.222l-0.113-0.191l-0.019-0.137L66.381,64.616z"></path>
	</g>
	<line fill="none" stroke="#929497" x1="457.704" y1="420.365" x2="780.997" y2="420.365"></line>
	
	
	
	
	
	
	
	
	
	
	
	
	
	
	
	
	
	
	
	
	
	
	
	<path fill="#EC1E28" d="M471.686,266.018c0,0.655-0.294,1.295-0.89,1.919l-0.092,0.092l-5.191,5.481
		c-1.104,1.161-2.042,2.061-2.821,2.696c-0.775,0.632-1.325,0.951-1.643,0.951c-0.337,0-0.753-0.159-1.25-0.475
		c-0.499-0.319-0.823-0.646-0.97-0.984c-0.125-0.279-0.237-0.875-0.346-1.786c-0.111-0.909-0.166-1.893-0.166-2.955
		c0-0.577,0.242-1.114,0.725-1.603c0.482-0.491,1.015-0.737,1.595-0.737c0.556,0,0.887,0.507,0.993,1.522
		c0.011,0.119,0.02,0.207,0.022,0.262c0.094,0.783,0.194,1.326,0.312,1.635c0.121,0.311,0.275,0.461,0.478,0.461
		c0.085,0,0.242-0.087,0.471-0.273c0.229-0.182,0.507-0.429,0.823-0.745l5.339-5.296c0.446-0.449,0.847-0.789,1.2-1.018
		c0.352-0.231,0.654-0.346,0.899-0.346c0.188,0,0.317,0.071,0.394,0.211c0.078,0.14,0.117,0.375,0.117,0.707V266.018z"></path>
	<path fill="#EC1E28" d="M475.83,359.595c0,0.655-0.295,1.295-0.889,1.92l-0.096,0.091l-5.193,5.481
		c-1.102,1.163-2.043,2.062-2.815,2.696c-0.78,0.635-1.324,0.951-1.642,0.951c-0.338,0-0.756-0.158-1.256-0.476
		c-0.498-0.318-0.818-0.644-0.965-0.98c-0.125-0.281-0.242-0.877-0.35-1.786c-0.108-0.909-0.167-1.895-0.167-2.956
		c0-0.576,0.242-1.113,0.726-1.604c0.479-0.491,1.013-0.735,1.597-0.735c0.553,0,0.884,0.505,0.991,1.522
		c0.01,0.117,0.021,0.207,0.025,0.262c0.088,0.781,0.194,1.325,0.312,1.633c0.116,0.311,0.276,0.463,0.479,0.463
		c0.083,0,0.241-0.091,0.471-0.273c0.229-0.183,0.5-0.43,0.822-0.746l5.336-5.294c0.447-0.45,0.85-0.79,1.204-1.02
		c0.351-0.229,0.649-0.346,0.895-0.346c0.187,0,0.317,0.071,0.397,0.213c0.079,0.138,0.117,0.374,0.117,0.704V359.595z"></path>
	<path fill="#EC1E28" d="M463.082,408.138c0,0.657-0.295,1.297-0.89,1.921l-0.092,0.095l-5.196,5.479
		c-1.102,1.163-2.042,2.062-2.817,2.696c-0.777,0.632-1.324,0.953-1.645,0.953c-0.337,0-0.753-0.162-1.251-0.477
		c-0.499-0.317-0.819-0.645-0.966-0.981c-0.125-0.283-0.238-0.878-0.35-1.788c-0.106-0.908-0.161-1.893-0.161-2.954
		c0-0.578,0.242-1.112,0.72-1.604c0.482-0.492,1.015-0.737,1.599-0.737c0.557,0,0.887,0.508,0.99,1.524
		c0.014,0.118,0.019,0.204,0.025,0.261c0.089,0.781,0.195,1.324,0.312,1.632s0.275,0.464,0.476,0.464
		c0.087,0,0.241-0.089,0.473-0.273c0.229-0.183,0.503-0.432,0.823-0.743l5.335-5.299c0.448-0.45,0.853-0.787,1.203-1.018
		c0.354-0.231,0.653-0.346,0.899-0.346c0.185,0,0.313,0.071,0.395,0.211c0.08,0.14,0.117,0.377,0.117,0.708V408.138z"></path>
	<path fill="#EC1E28" d="M442.649,515.046c0,0.656-0.294,1.295-0.888,1.918l-0.092,0.092l-5.195,5.484
		c-1.104,1.16-2.043,2.06-2.819,2.694c-0.772,0.637-1.323,0.95-1.644,0.95c-0.334,0-0.753-0.155-1.253-0.474
		c-0.497-0.316-0.817-0.645-0.964-0.981c-0.124-0.279-0.238-0.872-0.35-1.785c-0.108-0.912-0.165-1.896-0.165-2.957
		c0-0.578,0.24-1.111,0.724-1.604c0.483-0.49,1.013-0.736,1.597-0.736c0.554,0,0.883,0.508,0.992,1.523
		c0.008,0.117,0.019,0.203,0.026,0.262c0.088,0.781,0.193,1.324,0.31,1.631c0.117,0.314,0.275,0.465,0.48,0.465
		c0.082,0,0.24-0.092,0.47-0.273c0.229-0.184,0.505-0.432,0.821-0.744l5.337-5.295c0.446-0.453,0.851-0.793,1.203-1.02
		c0.353-0.234,0.651-0.348,0.9-0.348c0.184,0,0.316,0.07,0.393,0.215c0.079,0.137,0.116,0.373,0.116,0.703V515.046z"></path>
	<line fill="none" stroke="#EC1E28" x1="475.906" y1="370.734" x2="778.03" y2="370.734"></line>
	<line fill="none" stroke="#2BA6DE" stroke-dasharray="12,9" x1="472.994" y1="277.59" x2="560.478" y2="277.59"></line>
</g>
</svg>