<svg version="1.1" id="Layer_1" xmlns="http://www.w3.org/2000/svg" xmlns:xlink="http://www.w3.org/1999/xlink" x="0px" y="0px" width="7275" height="4275" viewBox="0 0 7275 4275" enable-background="new 0 0 1746 1026" xml:space="preserve">
<path fill="#231F20" fill-opacity="0.5" d="M0,0v1026h1746V0H0z M1737,966.601c0,27.837-24.176,50.399-54,50.399H62.999
	c-29.824,0-54-22.562-54-50.399V59.4C9,31.565,33.175,9,62.999,9H1683c29.824,0,54,22.565,54,50.4V966.601z"></path>
<path fill="none" stroke="#EC2227" stroke-miterlimit="10" d="M9,59.4C9,31.565,33.175,9,62.999,9H1683c29.824,0,54,22.565,54,50.4
	v907.2c0,27.836-24.176,50.399-54,50.399H62.999c-29.824,0-54-22.563-54-50.399L9,59.4L9,59.4z"></path>
<path fill="none" stroke="#2BACE2" stroke-miterlimit="10" stroke-opacity="0.5" stroke-dasharray="11.6834" d="M62.999,1008
	c-24.812,0-45-18.571-45-41.399V59.4c0-22.828,20.187-41.4,45-41.4H1683c24.812,0,45,18.572,45,41.4v907.2
	c0,22.828-20.188,41.399-45,41.399L62.999,1008L62.999,1008z"></path>
<rect x="1718.107" y="457.655" fill="#F9A61C" width="27.893" height="47.819"></rect>
<g>
	
	
	
	
	
	
	
	
	
	
	
	
	
	
	
	
	
	
	
	
	
	
	
	
	
	
	
	
	
	
	
	<line fill="none" stroke="#F9A61C" stroke-width="1.4473" x1="1591.828" y1="458.07" x2="1746" y2="458.07"></line>
	<line fill="none" stroke="#E9262D" stroke-width="1.4473" x1="1615.801" y1="225.941" x2="1737" y2="225.941"></line>
	<line fill="none" stroke="#919396" stroke-width="1.4473" x1="1598.554" y1="287.156" x2="1746" y2="287.156"></line>
	
		<line fill="none" stroke="#2BACE2" stroke-width="1.4473" stroke-miterlimit="10" stroke-opacity="0.5" stroke-dasharray="11.5785" x1="1609.752" y1="111.828" x2="1728" y2="111.828"></line>
	<path fill="#E9262D" d="M1609.783,93.428c0,1.091-0.497,2.157-1.482,3.19l-0.154,0.156l-8.649,9.107
		c-1.834,1.933-3.398,3.421-4.693,4.476c-1.291,1.057-2.201,1.585-2.731,1.585c-0.561,0-1.252-0.265-2.088-0.79
		c-0.83-0.532-1.363-1.074-1.606-1.633c-0.206-0.466-0.398-1.453-0.579-2.965c-0.184-1.511-0.277-3.15-0.277-4.912
		c0-0.964,0.407-1.852,1.203-2.667c0.804-0.815,1.691-1.223,2.66-1.223c0.926,0,1.477,0.844,1.646,2.531
		c0.026,0.197,0.035,0.342,0.047,0.435c0.149,1.295,0.321,2.2,0.513,2.714c0.203,0.512,0.468,0.77,0.804,0.77
		c0.141,0,0.399-0.151,0.783-0.454c0.383-0.305,0.84-0.715,1.373-1.239l8.881-8.803c0.749-0.742,1.416-1.308,2.002-1.689
		c0.59-0.385,1.082-0.575,1.498-0.575c0.311,0,0.528,0.117,0.657,0.348c0.13,0.235,0.196,0.627,0.196,1.177v0.461H1609.783z"></path>
	<path fill="#E9262D" d="M1613.009,205.487c0,1.091-0.499,2.157-1.482,3.19l-0.156,0.156l-8.648,9.106
		c-1.834,1.932-3.399,3.423-4.688,4.479c-1.297,1.053-2.208,1.582-2.736,1.582c-0.559,0-1.254-0.264-2.09-0.791
		c-0.829-0.529-1.363-1.073-1.607-1.632c-0.204-0.464-0.396-1.455-0.578-2.966c-0.182-1.51-0.273-3.146-0.273-4.908
		c0-0.965,0.404-1.854,1.203-2.668c0.802-0.817,1.688-1.223,2.658-1.223c0.925,0,1.476,0.842,1.646,2.531
		c0.026,0.197,0.035,0.34,0.047,0.436c0.15,1.293,0.322,2.2,0.518,2.713c0.198,0.513,0.463,0.77,0.799,0.77
		c0.141,0,0.399-0.151,0.783-0.452c0.383-0.307,0.839-0.718,1.374-1.243l8.882-8.802c0.746-0.745,1.414-1.308,2.001-1.688
		c0.589-0.386,1.087-0.576,1.497-0.576c0.311,0,0.527,0.119,0.657,0.349c0.129,0.234,0.198,0.627,0.198,1.177v0.46H1613.009z"></path>
	<path fill="#E9262D" d="M1598.414,265.329c0,1.091-0.498,2.157-1.481,3.19l-0.154,0.155l-8.65,9.106
		c-1.835,1.931-3.399,3.423-4.688,4.479c-1.296,1.053-2.207,1.582-2.736,1.582c-0.562,0-1.255-0.264-2.088-0.792
		c-0.829-0.527-1.363-1.071-1.605-1.631c-0.209-0.463-0.399-1.451-0.581-2.967c-0.183-1.509-0.274-3.147-0.274-4.908
		c0-0.963,0.403-1.851,1.203-2.667c0.801-0.816,1.688-1.223,2.656-1.223c0.928,0,1.478,0.843,1.649,2.531
		c0.024,0.197,0.035,0.34,0.045,0.436c0.151,1.293,0.323,2.199,0.519,2.713c0.198,0.512,0.464,0.77,0.8,0.77
		c0.141,0,0.397-0.151,0.78-0.454c0.385-0.305,0.843-0.716,1.375-1.241l8.884-8.802c0.745-0.746,1.413-1.308,1.998-1.693
		c0.592-0.381,1.09-0.572,1.498-0.572c0.312,0,0.527,0.119,0.659,0.35c0.13,0.233,0.195,0.626,0.195,1.177v0.461H1598.414z"></path>
	<path fill="#E9262D" d="M1591.211,439.144c0,1.094-0.497,2.159-1.482,3.192l-0.154,0.158l-8.649,9.104
		c-1.834,1.931-3.399,3.424-4.694,4.477c-1.291,1.06-2.201,1.58-2.73,1.58c-0.561,0-1.254-0.267-2.089-0.789
		c-0.829-0.528-1.363-1.069-1.606-1.629c-0.207-0.469-0.396-1.456-0.58-2.964c-0.183-1.515-0.272-3.155-0.272-4.916
		c0-0.958,0.404-1.851,1.201-2.662c0.804-0.821,1.688-1.226,2.658-1.226c0.928,0,1.478,0.841,1.647,2.531
		c0.027,0.197,0.035,0.34,0.048,0.437c0.147,1.293,0.32,2.198,0.517,2.716c0.197,0.511,0.462,0.766,0.799,0.766
		c0.14,0,0.397-0.149,0.781-0.458c0.385-0.3,0.842-0.716,1.375-1.234l8.883-8.804c0.746-0.748,1.414-1.312,2.001-1.689
		c0.59-0.384,1.087-0.573,1.497-0.573c0.309,0,0.527,0.112,0.656,0.345c0.129,0.233,0.197,0.626,0.197,1.176v0.463H1591.211z"></path>
	
	
	
	
	
	
	
	
	
	
	
	
	
	
	
	
	
	<g>
		<path fill="#E9262D" d="M1564.43,548.604c0,1.089-0.492,2.154-1.481,3.187l-0.156,0.156l-8.643,9.112
			c-1.841,1.929-3.405,3.418-4.695,4.476c-1.292,1.052-2.202,1.58-2.737,1.58c-0.559,0-1.253-0.264-2.083-0.791
			c-0.83-0.526-1.366-1.069-1.609-1.631c-0.203-0.466-0.401-1.457-0.581-2.97c-0.179-1.504-0.271-3.143-0.271-4.903
			c0-0.968,0.398-1.853,1.203-2.668c0.803-0.814,1.688-1.226,2.657-1.226c0.923,0,1.472,0.842,1.647,2.533
			c0.021,0.191,0.035,0.342,0.046,0.436c0.146,1.298,0.323,2.198,0.516,2.711c0.194,0.515,0.466,0.771,0.796,0.771
			c0.142,0,0.405-0.152,0.789-0.455c0.377-0.306,0.839-0.713,1.366-1.238l8.889-8.806c0.747-0.737,1.409-1.31,2-1.688
			c0.586-0.385,1.083-0.579,1.498-0.579c0.307,0,0.522,0.122,0.659,0.354c0.129,0.237,0.19,0.628,0.19,1.179V548.604
			L1564.43,548.604z"></path>
	</g>
</g>
<g>
	<rect x="63" y="733.269" fill="#D1D2D2" width="225.565" height="228.962"></rect>
	
	
	<g>
		<path fill="#010101" d="M245.101,817.192c0,38.36-31.035,69.463-69.316,69.463c-38.287,0-69.32-31.103-69.32-69.463
			c0-38.367,31.033-69.468,69.32-69.468C214.065,747.726,245.101,778.825,245.101,817.192"></path>
		<path fill="#B7D334" d="M238.847,817.579c0,34.871-28.209,63.147-63.018,63.147c-34.803,0-63.016-28.276-63.016-63.147
			c0-34.883,28.213-63.154,63.016-63.154C210.638,754.425,238.847,782.696,238.847,817.579"></path>
		<path fill="#010101" d="M162.339,803.802c-0.875,7.744-1.525,13.957-1.955,18.654l-2.878,0.123
			c0.042-0.154,0.063-0.33,0.069-0.525c0.002-0.352-0.125-0.815-0.389-1.387c-0.262-0.576-0.418-0.941-0.449-1.096
			c-0.745,0.104-1.459,0.623-2.135,1.547c-0.682,0.932-1.298,1.396-1.842,1.385c-0.314-0.006-0.663-0.092-1.052-0.254
			c-0.513,0.342-1.181,0.49-2,0.438c-0.743-0.133-1.464-0.243-2.167-0.334c-0.021-0.979-0.982-1.836-2.885-2.575
			c0.005-0.39-0.19-0.974-0.587-1.744c-0.396-0.769-0.595-1.312-0.589-1.621c0.005-0.355,0.15-0.644,0.428-0.879
			c-0.039-0.113-0.359-0.845-0.962-2.189c-0.412-0.979-0.615-1.832-0.6-2.533c0.008-0.547,0.132-1.057,0.375-1.522
			c-0.333-3.336-0.479-6.193-0.438-8.586c0.059-3.679,0.587-7.06,1.58-10.134c-0.074-0.471-0.105-0.94-0.096-1.411
			c0.043-2.466,0.894-4.175,2.545-5.127l0.019-0.765c1.638-2.088,3.792-3.598,6.463-4.528c1.599,0.377,3.194,0.739,4.788,1.079
			c1.791,0.619,3.022,1.675,3.699,3.175c0.544,0.323,0.809,0.975,0.787,1.955c-0.014,1.094,0.105,1.803,0.375,2.12l-0.296,0.345
			c0.312,2.317,0.465,3.733,0.454,4.244c-0.026,1.483-0.414,2.534-1.165,3.147c-0.277-0.004-0.993-0.254-2.159-0.742
			c-0.277,0.269-0.575,0.402-0.882,0.396c-0.159,0-0.441-0.088-0.851-0.248c-0.407-0.16-0.748-0.246-1.021-0.252
			c-0.195-0.002-0.394,0.031-0.589,0.104c-0.023-3.092,0.071-5.401,0.291-6.926c-0.305-0.199-0.621-0.654-0.938-1.365
			c-0.322-0.711-0.739-1.11-1.241-1.192c-0.317,0.383-0.463,0.637-0.426,0.75l-1.044-0.367c-0.962,1.045-1.596,2.85-1.913,5.432
			c-0.327,2.972-0.729,4.939-1.21,5.908c0.417,0.441,0.624,1.051,0.613,1.834c-0.008,0.277-0.056,0.728-0.143,1.351
			c-0.09,0.627-0.138,1.098-0.141,1.405c-0.011,0.355,0.024,0.668,0.099,0.945l-0.714,0.688c0.29,1.337,0.457,3.025,0.502,5.064
			c-0.029,1.723-0.042,3.443-0.029,5.166c-0.042,0-0.372,0.014-0.996,0.045c-0.394-0.008-0.671,0.125-0.835,0.398
			c0.24-0.037,0.455-0.056,0.647-0.05c0.861,0.013,1.54,0.617,2.021,1.824c0.486,1.209,0.909,1.812,1.263,1.816
			c0.386,0.008,0.925-0.357,1.602-1.092c1.152-1.234,1.749-2.931,1.786-5.078c0.016-1.056-0.101-2.193-0.354-3.414
			c-0.274,0.149-0.417,0.541-0.431,1.166c-0.626-0.015-1.017,0.121-1.181,0.393c-0.27-0.084-0.383-0.299-0.341-0.654
			c0.05-0.508,0.071-0.778,0.076-0.819c0.471-0.15,0.708-0.361,0.714-0.633c0-0.123-0.085-0.336-0.251-0.65
			c-0.172-0.32-0.257-0.574-0.251-0.771c0-0.154,0.039-0.312,0.121-0.47l0.275-2.285c0.855,0.253,2.711,0.363,5.564,0.33
			c-0.082,0.193,0.031,0.453,0.34,0.771c0.278-0.271,0.571-0.404,0.883-0.396c0.235,0.009,0.584,0.109,1.049,0.31
			C161.812,803.696,162.141,803.802,162.339,803.802"></path>
		<path fill="#010101" d="M184.216,824.032c-0.544-0.242-1.131-0.369-1.754-0.383c-0.55-0.009-1.295,0.102-2.235,0.313
			c-1.058,0.221-1.781,0.344-2.178,0.375c-0.412-0.826-0.702-1.967-0.877-3.42c-0.317-2.117-0.513-3.316-0.581-3.592
			c0.116-0.234,0.18-0.43,0.185-0.586c0.006-0.433-0.333-0.82-1.007-1.164c-0.682-0.346-1.017-0.615-1.014-0.812
			c0.002-0.231,0.398-0.579,1.191-1.034c-0.193-0.244-0.333-0.726-0.415-1.447c-0.087-0.725-0.267-1.211-0.534-1.449
			c-0.478,0.424-1.25,0.693-2.327,0.814c-1.078,0.114-1.794,0.291-2.146,0.52c0.021,3.055-0.481,5.104-1.517,6.146
			c-0.545-0.131-0.957,0.082-1.242,0.625c-0.401,0.659-0.742,1.045-1.015,1.153l0.344,0.422c-0.317,0.265-0.827,0.375-1.53,0.326
			c-1.091-0.062-1.678-0.09-1.757-0.09l-0.333-1.062l3.821-31.72c0.034-1.998,0.132-3.348,0.301-4.051
			c-0.048-1.762,0.359-2.848,1.226-3.268c0.545,0.36,1.227,0.551,2.046,0.562c0.662,0.01,1.703-0.125,3.115-0.412
			c1.413-0.291,2.391-0.436,2.94-0.428c1.913,0.037,2.747,1.424,2.505,4.16c-0.193,2.188,0.147,5.074,1.025,8.654
			c0.914,3.852,1.353,6.733,1.32,8.657c-0.01,0.584,0.18,1.8,0.135,2.392c-0.832,0.453-1.889,0.727-3.178,0.819
			c-1.137,0.062-2.291,0.121-3.462,0.183c-0.302-2.982-0.829-6.576-1.131-9.519c-0.37-3.532-0.829-6.436-1.376-8.717l-1.805,16.773
			c-0.146,1.438,0.51,2.178,1.955,2.203c0.467,0.008,0.914-0.105,1.353-0.328c0.352-0.113,0.837,0.147,1.45,0.785
			c-0.021,1.215,0.223,1.946,0.727,2.188c0.635-0.418,1.459-0.812,2.479-1.197c0.909-0.334,1.794-0.647,2.658-0.951
			c0.491,0.679,0.814,1.685,0.946,3.021c0.163,1.879,0.282,2.977,0.356,3.295c0.061,0.742,0.367,2.354,0.911,4.832
			c0.396,1.963,0.584,3.551,0.568,4.766C184.349,822.979,184.301,823.521,184.216,824.032"></path>
		<path fill="#010101" d="M211.206,796.06c-0.047,0.117-0.056,0.8-0.037,2.054c-0.019,1.021-0.147,1.785-0.389,2.287
			c-0.29,0.78-0.443,1.891-0.47,3.34c-0.005,0.313,0.005,0.803,0.037,1.473c-0.014,0.664-0.021,1.152-0.026,1.465
			c-0.043,2.472-0.463,4.261-1.264,5.386c0.066,0.631,0.096,1.252,0.085,1.875c-0.032,1.967-0.702,4.596-2.008,7.899
			c-0.354,0.111-0.65,0.17-0.883,0.164c-0.47-0.01-0.809-0.277-1.012-0.811c-0.209-0.533-0.404-1.035-0.592-1.511
			c0.13-3.012,0.071-7.396-0.188-13.161l0.359-0.351c-0.259-1.02-0.376-2.156-0.354-3.414c0.016-0.897,0.124-2.205,0.333-3.928
			c0.201-1.715,0.314-3.004,0.327-3.869c0.014-0.547-0.002-1.08-0.031-1.586c-1.342,3.228-2.299,8.693-2.856,16.4l-0.488,1.164
			c-0.164,0.387-0.502,0.602-1.01,0.629c-0.15-0.271-0.307-0.416-0.462-0.416c-0.113-0.006-0.322,0.141-0.616,0.428
			c-0.301,0.285-0.55,0.41-0.742,0.367l-0.776,0.688c0.349,0.439,1.086,0.492,2.227,0.16c0.898-0.26,1.363,0.078,1.391,1.025
			c0.021,0.783-0.19,1.836-0.643,3.162c-0.457,1.319-0.685,2.313-0.695,2.979c-0.005,0.472,0.043,0.943,0.154,1.414l-4.059,0.639
			c-0.375-0.799-0.655-2.118-0.841-3.981c-0.183-1.867-0.465-3.189-0.84-3.979c0.237-0.27,0.359-0.559,0.364-0.881
			c0.006-0.271-0.105-0.684-0.327-1.235c-0.228-0.552-0.359-0.964-0.396-1.236c-0.029-0.43-0.167-1.475-0.412-3.129
			c-0.175-1.328-0.254-2.371-0.238-3.115c0.006-0.391,0.032-0.746,0.079-1.053c0-0.275-0.152-0.678-0.454-1.213
			c-0.301-0.533-0.449-0.92-0.444-1.154c0-0.193,0.08-0.367,0.241-0.523c-0.272-0.317-0.378-0.866-0.325-1.653
			c0.053-0.777-0.059-1.326-0.322-1.646c-0.576,1.515-0.883,3.57-0.925,6.15c-0.021,3.602-0.058,5.68-0.105,6.227l0.401,0.361
			l-0.412,0.342c0.288,1.416,0.412,3.221,0.378,5.41c-0.108,3.955-0.161,5.797-0.156,5.521c-0.558,0.502-1.321,0.744-2.296,0.726
			c-1.21-0.021-2.037,0.088-2.471,0.312c-0.491-0.869-0.727-1.987-0.703-3.358c0.017-1.06,0.196-2.345,0.534-3.871
			c-0.528-0.988-0.782-2.367-0.75-4.123c0.008-0.435,0.058-1.254,0.155-2.465c0.059-0.98,0.074-1.703,0.04-2.177
			c0.394-0.188,0.592-0.397,0.597-0.635c0.003-0.154-0.119-0.42-0.369-0.803c-0.243-0.373-0.367-0.658-0.365-0.85
			c0.006-0.24,0.164-0.476,0.48-0.703l-1.263-18.996c0.751-0.496,1.969-0.73,3.646-0.699c1.839,0.068,3.086-0.023,3.763-0.285
			c0.116-0.082,0.248-0.119,0.406-0.112c0.159,0,0.344,0.092,0.556,0.272c0.214,0.178,0.359,0.269,0.433,0.271
			c0.156,0.006,0.297-0.109,0.421-0.349l1.088,1.08c0.37,1.377,0.716,4.045,1.039,8.006c0.335,3.412,0.855,5.984,1.574,7.722
			c0.957-3.466,1.744-6.373,2.373-8.716l1.271-9.295l9.09-0.192c0.028,0.508,0.14,3.229,0.388,4.803
			c0.212,1.371,0.312,2.488,0.291,3.348c-0.011,0.984-0.164,1.859-0.454,2.638c0.307,0.438,0.454,0.987,0.443,1.653
			C211.689,795.091,211.526,795.634,211.206,796.06"></path>
		<path fill="#010101" d="M229.85,816.644l0.003-0.059c-0.24,0.504-0.389,1.094-0.441,1.758c-0.045,0.428-0.059,1.035-0.031,1.814
			c0.023,0.905,0.031,1.535,0.031,1.883c-0.317-0.004-1.566-0.025-3.755-0.062c-1.329-0.024-2.521,0.097-3.585,0.351l-1.089-1.197
			c-0.322,0.308-0.444,0.566-0.364,0.762c-0.195-0.045-1.097-0.059-2.698-0.051c-1.252-0.018-2.188-0.149-2.804-0.397
			c-0.639,0.657-1.387,0.645-2.234-0.041c-0.305-0.234-0.339-0.64-0.093-1.201c0.243-0.566,0.169-0.986-0.212-1.269
			c0.053-1.25,0.23-3.188,0.505-5.809c0.274-2.344,0.423-4.18,0.446-5.514c0.032-1.802-0.095-3.527-0.38-5.177
			c0.438-0.422,0.925-0.629,1.474-0.621c0.629,0.013,1.366,0.318,2.215,0.916c1.194,0.847,1.814,1.265,1.852,1.265l0.347,0.42
			c0.04-0.113,0.248-0.742,0.621-1.871c0.206-0.736,0.505-1.221,0.903-1.451l0.344,0.359c0.158-0.074,0.671-0.441,1.543-1.086
			c0.671-0.461,1.215-1.547,1.606-1.543c0.434,0.008,0.835,0.248,1.221,0.727c0.657,0.363,1.073,1.771,1.273,2.498
			c0.201,0.723,0.399,1.441,0.584,2.152c-1.763,0.051-3.208,0.004-4.336-0.131c-0.285,0.424-0.674,0.485-1.179,0.184
			c-0.502-0.301-0.871-0.258-1.115,0.131c-0.01,0.705-0.036,1.974-0.065,3.816c-0.066,1.643-0.087,2.936-0.063,3.875
			c0.014,1.446,0.108,2.784,0.283,4.006c0.312,0.002,1.796,0.024,4.454,0.072C226.946,816.183,228.523,816.345,229.85,816.644
			 M229.972,788.507c-0.35,0.033-0.735,0.041-1.168,0.041c-0.898-0.018-2.093-0.158-3.57-0.414
			c-1.836-0.268-2.945-0.424-3.334-0.469c-0.562,0.807-0.854,1.965-0.88,3.451c-0.053,3.207-0.059,4.598-0.011,4.17
			c0.539,0.322,0.803,0.914,0.79,1.774c-0.056,1.177-0.071,1.783-0.034,1.814c-0.275,0.119-0.418,0.508-0.428,1.174
			c-0.429-0.164-0.872-0.485-1.332-0.957c-0.61-0.604-0.94,1.424-0.896,0.918l-0.37,1.207l-0.344-0.36
			c-0.319,0.03-0.851-0.136-1.606-0.498c-0.756-0.361-1.289-0.703-1.596-1.025c0.016-0.625,0.116-0.977,0.312-1.051l-0.745-0.836
			l-0.364,0.522c-0.434-4.078-0.328-11.709,0.211-16.008c1.482,0.258,3.121,0.422,4.92,0.496c1.21,0.053,2.906,0.088,5.097,0.08
			c2.5,0.008,4.302,0.012,5.394,0.037c0.462,0.438,0.689,1.008,0.676,1.711c-0.008,0.436-0.127,1.125-0.356,2.082
			C230.104,787.323,229.981,788.032,229.972,788.507"></path>
		<path fill="#010101" d="M164.099,852.159v-0.025c0,0.019-0.101,0.879-0.305,2.588c-0.103,1.047-0.351,1.875-0.755,2.476
			l-0.251-0.205c-0.476,0.994-1.121,1.6-1.939,1.815c-0.396,0.414-0.959,0.638-1.696,0.685c-0.438,0.028-1.453-0.104-3.039-0.383
			c-0.766-0.474-1.184-0.74-1.257-0.789c-0.484-0.363-0.714-0.736-0.69-1.111c-0.465-0.475-1.123-1.322-1.368-2.389
			c-0.299-1.177-0.479-1.244-0.759-1.658c-0.443,0.328-0.597-0.365-0.858-0.783l0.235-0.18c-0.144-0.103-0.22-0.22-0.228-0.349
			c-0.008-0.09,0.031-0.229,0.116-0.412c0.077-0.186,0.116-0.317,0.111-0.411c-0.006-0.148-0.096-0.275-0.262-0.38
			c0.177-0.918,0.338-2.309,0.488-4.157c0.312-0.172,0.46-0.496,0.444-0.982c-0.016-0.479,0.047-0.801,0.201-0.963
			c0.747-1.498,1.96-2.506,3.638-3.033c0.093,0.014,0.544,0.008,1.353-0.018c0.553-0.021,0.976,0.03,1.256,0.145
			c0.502-0.082,1.009,0.037,1.508,0.363c0.437,0.33,0.875,0.656,1.309,0.984c0.811,0.885,1.252,1.885,1.318,3
			c0.023,0.368-0.003,0.766-0.071,1.178c-0.603-0.021-1.03,0.377-1.284,1.19l-2.341,0.22c-0.249-0.355-0.396-0.834-0.431-1.429
			c-0.014-0.205-0.011-0.504,0-0.895c0.01-0.392,0.013-0.687,0-0.894c-0.035-0.612-0.18-1.1-0.431-1.455l-0.706,0.4
			c-0.282-0.113-0.431-0.283-0.443-0.504c-0.003-0.072,0.005-0.18,0.034-0.32c0.026-0.145,0.037-0.242,0.032-0.299
			c-0.012-0.24-0.228-0.385-0.648-0.438c-0.287,2.643-0.372,5.36-0.256,8.145c0.074,0.09,0.299,0.154,0.668,0.188
			c0.302,0.036,0.458,0.135,0.466,0.282c0.005,0.058-0.008,0.127-0.056,0.226l-0.228,0.18c0.124,0.201,0.201,0.473,0.22,0.828
			c0.008,0.184,0.002,0.469-0.019,0.85c-0.029,0.388-0.034,0.672-0.021,0.857c0.032,0.555,0.169,0.977,0.421,1.262
			c-0.024,0.41,0.143,0.688,0.499,0.836c0.225-0.088,0.428-0.139,0.612-0.147c0.714-0.039,1.211,0.35,1.49,1.176
			c0,0.021-0.005,0.156-0.01,0.418c0.005,0.15,0.079,0.244,0.225,0.293c0.312-0.186,0.467-0.518,0.462-1.002
			c-0.011-0.561,0.063-0.92,0.212-1.074c-0.035-0.262-0.19-0.635-0.46-1.121c-0.274-0.485-0.415-0.871-0.434-1.149
			c-0.016-0.297,0.069-0.584,0.265-0.853c-0.164-0.049-0.24-0.151-0.228-0.326c0.011-0.258,0.011-0.397,0.011-0.418
			C161.496,851.874,162.788,851.866,164.099,852.159"></path>
		<path fill="#010101" d="M174.707,854.345h-0.029c-0.132,0.269-0.177,0.652-0.13,1.148c0.061,0.707,0.098,1.067,0.098,1.09
			c-0.107,0.037-0.248-0.016-0.428-0.162c-0.274,0.109-0.404,0.277-0.389,0.521c0,0.03,0.017,0.092,0.04,0.18
			c0.005,0.1,0.011,0.172,0.013,0.209c0.009,0.188-0.045,0.326-0.166,0.422c-0.314-0.172-0.724-0.283-1.229-0.33
			c-0.51-0.051-0.993-0.092-1.445-0.137c-0.006-2.359-0.325-4.662-0.945-6.912c0,0.016-0.017-0.217-0.045-0.701
			c0.002-0.346-0.077-0.592-0.233-0.742l-0.219,0.195c0-0.033,0.068-0.104,0.219-0.209c0.141-0.1,0.212-0.205,0.209-0.307
			c-0.008-0.05-0.021-0.107-0.042-0.156l-0.238-0.168c-0.398,0.129-0.586,0.455-0.555,0.967c0.021,0.35-0.121,0.59-0.406,0.732
			c0.11,0.069,0.166,0.176,0.174,0.295c0.008,0.071-0.006,0.17-0.031,0.291c-0.027,0.12-0.035,0.217-0.032,0.289
			c0.011,0.151,0.093,0.272,0.249,0.375c0.005,0.102,0.058,1.034,0.158,2.797c0.068,1.123,0.037,2.08-0.085,2.86l0.021,0.441
			c-0.153-0.004-0.325-0.004-0.513,0.006c-0.217,0.016-0.528,0.043-0.933,0.092c-0.404,0.051-0.706,0.086-0.896,0.097
			c-0.793,0.038-1.348-0.093-1.67-0.398l-0.336-9.68c-0.156-0.474-0.256-1.136-0.309-1.984l-0.106-1.861
			c-0.073-0.911-0.19-1.62-0.349-2.11c0.063-0.336,0.359-0.519,0.872-0.545c0.319-0.019,0.751,0.022,1.295,0.127
			c0.253-0.113,0.603-0.188,1.057-0.213c0.127-0.007,0.327-0.015,0.607-0.007c0.304-0.021,0.516-0.034,0.643-0.043
			c0.835-0.051,1.39-0.303,1.664-0.772c0.389-0.004,0.806,0.119,1.263,0.369c0.452,0.252,0.856,0.387,1.197,0.397
			c0.914,0.537,1.406,1.429,1.478,2.672c0.019,0.277-0.09,1.369-0.32,3.295l-1.566,1.363c0.262,0.488,0.587,1.555,0.959,3.191
			C173.595,852.698,174.067,853.702,174.707,854.345 M171.816,843.331l0.031,0.025c0.029,0.114,0.014-0.308-0.039-1.271
			c-0.032-0.465-0.201-0.801-0.513-1.012c-0.18,0.254,0.021,0.371-0.061,0.959c-0.082,0.584-0.429,0.418-0.632,0.674
			c-0.539-0.006-0.661,0.324-0.774-0.193c-0.243-0.832-0.449-0.758-0.451-0.772l-0.228,0.137c-0.082,0.072-0.175,0.158-0.274,0.246
			c-0.106,0.096-0.207,0.127-0.317,0.098c0.005,0.105-0.042,0.267-0.153,0.49c-0.104,0.225-0.153,0.381-0.148,0.463
			c0.014,0.158,0.133,0.271,0.375,0.344c-0.042,0.351-0.053,0.718-0.031,1.093c0.011,0.209,0.061,0.684,0.148,1.422
			c0.095,0.586,0.137,1.086,0.115,1.5c0.196,0.008,0.376,0.008,0.55-0.002c0.751-0.05,1.237-0.343,1.462-0.892
			c0.076-0.162,0.166-0.739,0.256-1.733C171.216,844.155,171.443,843.63,171.816,843.331"></path>
		<path fill="#010101" d="M186.88,858.097c-0.307-0.082-0.635-0.119-0.979-0.098c-0.298,0.018-0.702,0.092-1.21,0.225
			c-0.575,0.138-0.967,0.22-1.179,0.248c-0.258-0.344-0.454-0.834-0.602-1.467c-0.249-0.922-0.396-1.445-0.444-1.561
			c0.061-0.109,0.085-0.195,0.079-0.269c-0.01-0.188-0.211-0.344-0.592-0.467c-0.386-0.127-0.576-0.236-0.581-0.322
			c-0.005-0.104,0.195-0.272,0.618-0.502c-0.119-0.1-0.206-0.303-0.277-0.621c-0.074-0.317-0.188-0.522-0.344-0.619
			c-0.245,0.207-0.663,0.357-1.25,0.451c-0.584,0.094-0.967,0.199-1.156,0.314c0.121,1.346,0,3.707-0.529,4.207
			c-0.304-0.037-0.522,0.067-0.66,0.322c-0.195,0.305-0.37,0.487-0.513,0.549l0.198,0.17c-0.166,0.127-0.438,0.199-0.822,0.207
			c-0.602,0.016-0.924,0.024-0.967,0.024l-0.222-0.45l0.906-15.566c-0.05-0.879-0.042-1.477,0.024-1.791
			c-0.09-0.773,0.1-1.271,0.557-1.486c0.31,0.14,0.689,0.191,1.142,0.166c0.362-0.022,0.928-0.127,1.688-0.311
			c0.761-0.18,1.295-0.279,1.594-0.295c1.054-0.066,1.556,0.512,1.521,1.729c-0.031,0.972,0.256,2.23,0.864,3.771
			c0.628,1.658,0.972,2.916,1.02,3.764c0.016,0.254,0.359,0.805,0.356,1.064c-0.441,0.237-1.012,0.395-1.715,0.489
			c-0.621,0.07-1.247,0.146-1.892,0.213c-0.267-1.299-0.874-2.885-1.144-4.163c-0.325-1.544-0.68-2.804-1.055-3.789l-0.407,7.457
			c-0.028,0.645,0.354,0.942,1.147,0.893c0.259-0.01,0.496-0.076,0.731-0.195c0.19-0.062,0.462,0.037,0.821,0.293
			c0.029,0.537,0.186,0.851,0.477,0.931c0.327-0.205,0.771-0.412,1.315-0.623c0.48-0.181,0.956-0.354,1.421-0.519
			c0.297,0.275,0.502,0.703,0.621,1.287c0.156,0.822,0.26,1.299,0.31,1.438c0.058,0.323,0.282,1.024,0.669,2.096
			c0.287,0.844,0.443,1.537,0.478,2.074C186.911,857.628,186.905,857.87,186.88,858.097"></path>
		<path fill="#010101" d="M195.752,840.448l0.032-0.002c-0.26,0.381-0.587,0.45-0.988,0.215c-0.088-0.014-0.471,0.012-1.16,0.065
			c-0.573,0.033-0.996,0.009-1.255-0.08c-0.069,0-0.193,0.066-0.384,0.188c-0.182,0.127-0.319,0.189-0.404,0.195
			c-0.129,0.006-0.203-0.101-0.211-0.324c0-0.037-0.011-0.185-0.026-0.441c-0.011-0.176-0.093-0.291-0.249-0.352l-0.396,0.309
			c-0.127,0.099-0.186,0.191-0.18,0.3c0.005,0.088,0.079,0.207,0.219,0.364c0.135,0.158,0.214,0.271,0.241,0.334
			c0.005,0.052,0.047,0.83,0.135,2.334c0.034,0.951,0.208,1.713,0.522,2.281c0.082-0.09,0.272-0.141,0.587-0.152
			c0.309-0.01,0.513-0.077,0.615-0.202c0.201,0.18,0.545,0.188,1.02,0.034c0.471-0.157,0.814-0.108,1.025,0.156l-0.062,2.293
			c-0.196-0.021-0.481-0.119-0.856-0.289c-0.106,0.34-0.322,0.545-0.64,0.638c-0.127,0.043-0.488,0.08-1.089,0.116
			c0.014-0.106-0.076-0.215-0.28-0.321c-0.581,0.278-0.803,0.938-0.654,1.983c0.01-0.102,0.037,0.076,0.062,0.547
			c0.014,0.291-0.047,0.505-0.188,0.636c-0.364,0.053-0.824-0.029-1.387-0.246c-0.555-0.217-0.957-0.322-1.197-0.312
			c-0.103,0.011-0.2,0.021-0.282,0.045l-0.603,0.191l-0.962-10.471l-0.116-1.992c0.801-0.275,1.791-0.441,2.97-0.515
			c0.92-0.049,2.127-0.041,3.612,0.027c0.092-0.199,0.271,0.06,0.488,0.045c0.105-0.004,0.265,0.004,0.484,0.039
			c0.213,0.027,0.377,0.039,0.482,0.035c0.133-0.008,0.249-0.035,0.35-0.074l0.155-0.162c0.437,0.127,0.669,0.363,0.68,0.687
			c0.011,0.139-0.029,0.375-0.119,0.713c-0.087,0.33-0.124,0.586-0.111,0.76C195.641,840.198,195.678,840.333,195.752,840.448
			 M191.989,857.919c-0.227,0.121-0.578,0.191-1.046,0.223c-0.624,0.031-0.999,0.062-1.126,0.093
			c-0.068-0.074-0.147-0.017-0.291-0.562c-0.087-0.36-0.312-0.528-0.676-0.506c-0.085,0.004-0.188,0.019-0.317,0.041l-0.578,0.035
			l-0.31-5.297c0.317-0.16,0.705-0.25,1.179-0.281c0.452-0.025,0.851,0.021,1.202,0.139c-0.014,0.191,0.262,0.273,0.816,0.236
			l0.613-0.037C191.82,853.497,192.042,856.183,191.989,857.919"></path>
		<path fill="#010101" d="M208.599,840.901l0.034,0.022c-0.304-0.016-1.271,0.051-2.021,0.146c-0.637,0.073-1.12,0.082-1.442,0.028
			c-0.312,0.211-0.428,0.494-0.341,0.857l0.195,0.115c-0.161,0.147-0.214,0.264-0.167,0.35l0.167,0.172
			c-0.034,3.072-0.045,4.764-0.029,5.101c0.048,0.807,0.146,1.521,0.286,2.137c-0.127,0.395-0.178,0.834-0.144,1.334
			c0.017,0.328,0.096,0.848,0.233,1.562c0.137,0.711,0.319,3.043,0.343,3.41c0.017,0.271,0.011,0.533-0.021,0.773
			c-0.294,0.125-0.608,0.19-0.954,0.215c-0.579,0.035-1.2-0.088-1.86-0.357c-0.082,0.074-0.172,0.154-0.274,0.238
			c-0.101,0.08-0.13,0.174-0.082,0.275c-0.212,0.062-0.505-0.021-0.883-0.256c-0.2-3.113-0.759-9.447-1.583-15.845
			c-0.287,0.256-0.813,0.043-1.371,0.109c-0.66,0.074-1.311-0.029-1.564,0.092c-0.322-0.35-0.248-0.447-0.285-1.018
			c-0.029-0.554-0.206-1.916-0.065-2.486c0.028-0.119,1.233-0.053,1.937-0.111c0.962-0.055,1.176,0.172,1.242,0.17
			c0.073-0.125,0.544-0.063,0.887-0.084c0.22,0.109,0.458-0.102,0.469,0.058c0.01,0.104,0,0.756-0.074,0.942
			c-0.074,0.187-0.111,0.32-0.104,0.412c0.011,0.205,0.158-0.1,0.508,0.021c0.391-0.002,0.787-0.021,1.191-0.045
			c0.457,0.045,0.975-0.125,0.933,0.262c0.079-0.105,0.13,0.086,0.782-0.178c0.48-0.217,0.771-0.787,0.676-1.176
			c-0.047-0.214,0.244-0.349,0.059-0.248c0.232-0.134,0.021-0.039,0.277-0.142c0.798,0.074,1.247-0.008,1.396-0.021
			c0.319-0.021,1.117,0.19,1.345,0.073c0.169,0.304,0.254,1.248,0.264,1.767C208.577,840.409,208.599,840.849,208.599,840.901"></path>
		<path fill="#010101" d="M219.011,851.716l-0.002-0.026c-0.119,0.235-0.175,0.498-0.18,0.791c-0.016,0.192,0.005,0.459,0.047,0.805
			c0.043,0.393,0.069,0.674,0.08,0.826c-0.175,0.01-0.861,0.053-2.061,0.121c-0.725,0.041-1.377,0.139-1.945,0.295l-0.64-0.486
			c-0.163,0.154-0.222,0.268-0.174,0.35c-0.106-0.008-0.603,0.019-1.479,0.088c-0.688,0.041-1.205,0.019-1.552-0.065
			c-0.325,0.311-0.731,0.34-1.221,0.07c-0.177-0.095-0.208-0.271-0.098-0.523c0.119-0.262,0.063-0.443-0.158-0.551
			c-0.011-0.556,0.019-1.412,0.074-2.582c0.073-1.043,0.084-1.857,0.053-2.443c-0.045-0.793-0.175-1.551-0.386-2.268
			c0.222-0.201,0.486-0.312,0.782-0.33c0.343-0.021,0.761,0.084,1.247,0.317c0.684,0.324,1.035,0.486,1.057,0.486l0.206,0.164
			c0.019-0.049,0.108-0.332,0.274-0.846c0.085-0.334,0.232-0.56,0.444-0.676l0.2,0.145c0.085-0.041,0.354-0.219,0.809-0.541
			c0.352-0.23,0.59-1.066,0.809-1.08c0.232-0.012,0.468,0.076,0.688,0.271c0.378,0.135,0.671,1.079,0.809,1.395
			c0.135,0.31,0.264,0.615,0.396,0.922c-0.968,0.094-1.76,0.131-2.384,0.113c-0.138,0.199-0.354,0.238-0.634,0.127
			c-0.291-0.109-0.492-0.076-0.607,0.102c0.016,0.314,0.05,0.875,0.095,1.683c0.021,0.729,0.056,1.299,0.101,1.713
			c0.055,0.637,0.155,1.223,0.293,1.75c0.174-0.012,0.988-0.053,2.444-0.141C217.402,851.628,218.274,851.64,219.011,851.716
			 M218.015,839.526c-0.195,0.028-0.406,0.049-0.639,0.061c-0.497,0.027-1.149,0.021-1.974-0.039
			c-1.01-0.047-1.625-0.065-1.837-0.074c-0.282,0.384-0.316,0.689-0.282,1.341c0.084,1.422,0.129,2.034,0.14,1.844
			c0.307,0.117,0.476,0.373,0.494,0.748c0.011,0.522,0.026,0.787,0.045,0.805c-0.146,0.061-0.209,0.236-0.192,0.529
			c-0.235-0.049-0.494-0.183-0.764-0.369c-0.359-0.238-0.471,0.611-0.46,0.383l-0.164,0.523l-0.201-0.144
			c-0.168,0.027-0.47-0.022-0.893-0.151c-0.431-0.134-0.732-0.267-0.909-0.394c-0.016-0.272,0.021-0.436,0.132-0.479l-0.44-0.332
			l-0.177,0.239c-0.384-1.78-0.64-4.916-0.492-6.83c0.819,0.06,1.775-0.088,2.764-0.127c0.664-0.022,1.596-0.073,2.796-0.159
			c1.366-0.097,2.354-0.162,2.951-0.199c0.272,0.174,0.415,0.42,0.428,0.727c0.014,0.195-0.026,0.506-0.118,0.931
			C218.126,838.79,218.002,839.321,218.015,839.526"></path>
		<path fill="#010101" d="M229.702,849.876h-0.032c-0.132,0.268-0.18,0.652-0.127,1.152c0.059,0.709,0.09,1.069,0.09,1.086
			c-0.103,0.045-0.248-0.011-0.428-0.156c-0.27,0.104-0.401,0.277-0.389,0.516c0.008,0.037,0.019,0.093,0.04,0.181
			c0.01,0.102,0.016,0.172,0.016,0.209c0.011,0.188-0.045,0.332-0.166,0.422c-0.312-0.172-0.725-0.281-1.229-0.326
			c-0.511-0.049-0.994-0.096-1.443-0.139c-0.011-2.355-0.328-4.658-0.945-6.912c0,0.02-0.02-0.217-0.045-0.701
			c0-0.342-0.074-0.596-0.238-0.738l-0.211,0.199c0-0.037,0.065-0.109,0.211-0.213c0.146-0.105,0.217-0.209,0.209-0.312
			c-0.006-0.051-0.019-0.102-0.043-0.149l-0.232-0.172c-0.404,0.131-0.586,0.451-0.555,0.969c0.016,0.344-0.124,0.59-0.406,0.725
			c0.1,0.078,0.166,0.183,0.174,0.304c0.006,0.065-0.008,0.163-0.031,0.284c-0.027,0.125-0.043,0.218-0.032,0.289
			c0.005,0.158,0.09,0.279,0.246,0.377c0.008,0.103,0.061,1.037,0.161,2.797c0.068,1.123,0.031,2.082-0.09,2.863l0.026,0.443
			c-0.15-0.01-0.325-0.01-0.519,0c-0.211,0.018-0.522,0.049-0.93,0.094c-0.406,0.049-0.7,0.084-0.898,0.098
			c-0.787,0.039-1.342-0.088-1.662-0.397l-0.338-9.68c-0.156-0.479-0.259-1.138-0.307-1.984l-0.11-1.863
			c-0.074-0.916-0.186-1.621-0.349-2.108c0.068-0.336,0.359-0.517,0.874-0.547c0.319-0.019,0.753,0.022,1.295,0.131
			c0.253-0.121,0.603-0.189,1.052-0.22c0.132-0.006,0.33-0.006,0.612-0.006c0.302-0.016,0.513-0.028,0.64-0.039
			c0.84-0.047,1.396-0.307,1.67-0.77c0.383-0.004,0.803,0.112,1.258,0.362c0.454,0.257,0.855,0.386,1.207,0.4
			c0.904,0.537,1.4,1.424,1.473,2.672c0.016,0.271-0.09,1.371-0.328,3.293l-1.566,1.363c0.267,0.488,0.586,1.555,0.961,3.195
			C228.581,848.233,229.062,849.237,229.702,849.876 M226.801,838.864l0.037,0.024c0.028,0.123,0.011-0.307-0.037-1.272
			c-0.032-0.465-0.206-0.801-0.513-1.006c-0.18,0.25-0.211-0.336-0.296,0.25c-0.085,0.582-0.228,1.004-0.429,1.256
			c-0.533-0.002-0.66-0.324-0.979-0.771c-0.201-0.285-0.299-0.037-0.299-0.057l-0.143,0.121c-0.085,0.074-0.172,0.156-0.274,0.248
			c-0.106,0.092-0.209,0.127-0.32,0.1c0.003,0.103-0.045,0.269-0.15,0.49c-0.104,0.221-0.15,0.375-0.15,0.461
			c0.013,0.154,0.135,0.268,0.375,0.342c-0.045,0.348-0.053,0.713-0.034,1.094c0.016,0.205,0.061,0.683,0.153,1.418
			c0.092,0.584,0.137,1.084,0.116,1.505c0.195,0.006,0.375,0.002,0.55-0.009c0.75-0.039,1.236-0.338,1.458-0.891
			c0.074-0.16,0.164-0.736,0.257-1.73C226.206,839.688,226.436,839.163,226.801,838.864"></path>
		<path fill="#010101" d="M123.154,805.245v0.02c-0.095,0.902-0.126,1.523-0.095,1.863c-0.138,0.06-0.317,0.064-0.536,0.027
			c-0.283-0.045-0.446-0.068-0.5-0.066c-0.121,0.006-0.219,0.051-0.296,0.135c-0.177-0.12-0.296-0.17-0.359-0.147
			c-0.166,0.102-0.242,0.248-0.237,0.436c0.005,0.08,0.037,0.213,0.095,0.408c0.056,0.195,0.088,0.334,0.09,0.43
			c0.006,0.127-0.019,0.322-0.074,0.591c-0.058,0.266-0.079,0.487-0.073,0.661c0.013,0.201,0.053,0.523,0.132,0.959
			c0.076,0.431,0.116,0.765,0.132,0.979c-0.09,0.432-0.126,0.863-0.101,1.297c0.027,0.535,0.17,1.25,0.437,2.146
			c0.045,0.014,0.093,0.016,0.143,0.016c0.108-0.006,0.24-0.088,0.389-0.23c0.147-0.149,0.274-0.229,0.386-0.231
			c0.076-0.002,0.164,0.014,0.256,0.053c0.283,0.912,0.428,1.504,0.447,1.771c0.005,0.121,0.002,0.252-0.003,0.395
			c-0.423,0.103-0.716-0.039-0.891-0.422c0.021-0.111-0.04-0.227-0.183-0.346l-0.467,0.494c0.454,0.067,0.637,0.426,0.547,1.055
			c-0.043,0.125-0.141,0.197-0.299,0.205c-0.265-0.006-0.389-0.008-0.373-0.008l-0.389-0.685l-0.152,0.195
			c-0.127-0.322-0.28-0.484-0.447-0.471c-0.095,0.008-0.259,0.081-0.494,0.231c-0.232,0.156-0.428,0.238-0.586,0.242
			c-0.125,0.01-0.248-0.025-0.381-0.1c-0.008-0.188-0.026-0.382-0.063-0.582c-0.031-0.199-0.138-0.33-0.312-0.386
			c-0.011-0.485,0.005-1.76,0.042-3.832c0.017-1.565,0-2.838-0.053-3.807c-0.021-0.406-0.048-0.807-0.079-1.195
			c-0.087-0.123-0.169-0.184-0.248-0.18c-0.063,0-0.156,0.074-0.28,0.201c-0.127,0.135-0.243,0.195-0.333,0.186
			c-0.006-0.155-0.079-0.409-0.214-0.756c-0.135-0.346-0.209-0.594-0.214-0.752c-0.014-0.268,0.084-0.5,0.295-0.701l0.545,0.144
			c0.225-0.31,0.307-0.832,0.272-1.568c-0.009-0.135-0.026-0.363-0.056-0.664c-0.032-0.305-0.051-0.529-0.059-0.672
			c-0.058-1.199,0.307-1.822,1.104-1.861c0.296-0.014,0.658,0.037,1.083,0.158l0.529,0.137c0.039,0.203,0.065,0.416,0.074,0.63
			c0.018,0.297,0.002,0.731-0.035,1.309c-0.045,0.576-0.061,0.99-0.045,1.26c0.021,0.42,0.096,0.804,0.223,1.14
			c0.127-0.009,0.322-0.074,0.589-0.203c0.267-0.133,0.462-0.199,0.589-0.207C122.843,804.931,123.018,805.03,123.154,805.245
			 M121.527,806.925l-0.032-0.539l-0.166-0.155L121.527,806.925z"></path>
		<path fill="#010101" d="M129.586,803.556h0.026c-0.053,0.425-0.121,0.853-0.193,1.273c-0.084,0.498-0.219,0.877-0.409,1.152
			c-0.037-0.015-0.228-0.105-0.576-0.275c-0.243-0.129-0.46-0.18-0.645-0.16c-0.143,0.92-0.214,2.17-0.232,3.754
			c-0.011,2.023-0.026,3.244-0.048,3.674c-0.237-0.021-0.414,0.054-0.528,0.228c-0.121,0.17-0.229,0.344-0.325,0.518
			c-0.045,0.103-0.065,0.188-0.061,0.265c0.006,0.125,0.113,0.243,0.322,0.358c0.211,0.115,0.317,0.244,0.322,0.385
			c-0.09,0.332-0.285,0.507-0.581,0.521c-0.138,0.008-0.386-0.037-0.731-0.127c-0.347-0.092-0.595-0.137-0.737-0.125l-0.333-6.707
			c0.132-0.182,0.185-0.301,0.169-0.361l-0.192-0.135c0.013-0.277,0.031-1.686,0.045-4.209c0.005-1.711,0.07-3.092,0.189-4.148
			c-0.016,0,0.468-0.028,1.448-0.094c0.61-0.031,1.004,0.133,1.173,0.502c0.006,0.345-0.031,0.927-0.1,1.748
			c-0.069,0.752-0.096,1.336-0.074,1.738c0.023,0.502,0.103,0.951,0.229,1.352C128.275,803.968,128.888,803.591,129.586,803.556
			 M131.916,804.991c0.042,0.623,0.085,1.233,0.114,1.828c0.129,2.594,0.09,5.369-0.119,8.328c-0.228,0.2-0.576,0.245-1.041,0.133
			c-0.465-0.109-0.804-0.062-1.015,0.137c-0.27-0.35-0.423-0.973-0.471-1.881c-0.063-1.314-0.098-1.992-0.101-2.045
			c-0.058-3.283,0.265-5.945,0.959-7.969C131.052,803.729,131.609,804.222,131.916,804.991"></path>
		<path fill="#010101" d="M140.128,808.396c-0.1,0.207-0.145,0.433-0.132,0.669c0.011,0.231,0.023,0.456,0.037,0.676
			c-0.026,0.188-0.074,0.383-0.159,0.569c-0.145-0.036-0.264-0.053-0.354-0.049c-0.111,0.008-0.225,0.045-0.341,0.123
			c-0.108,0.076-0.198,0.113-0.262,0.113c-0.093,0.012-0.217-0.025-0.38-0.092l-1.084-1.594c0.037,0.465,0.143,0.877,0.317,1.231
			c0.085,0.182,0.172,0.367,0.259,0.549c-0.634,0.113-0.993,0.129-1.078,0.054l-0.153,0.2l-0.375-0.502
			c-0.291,0.361-0.359,0.892-0.201,1.588c0.201,0.759,0.206,1.31,0.037,1.642c0.232,0.35,0.519,0.512,0.846,0.496
			c0.143-0.002,0.265-0.062,0.364-0.158c0.153-0.383,0.307-0.767,0.46-1.148c0.228-0.465,0.483-0.709,0.761-0.725
			c0.223-0.006,0.477,0.104,0.77,0.344c0.352,0.121,0.533,0.287,0.541,0.488c0.006,0.127-0.073,0.328-0.237,0.611
			c-0.169,0.278-0.243,0.497-0.235,0.653c0,0.068,0.011,0.119,0.029,0.17c-0.228,0.166-0.428,0.422-0.607,0.758
			c-0.18,0.332-0.415,0.568-0.703,0.691c-0.256,0.252-0.492,0.377-0.711,0.387c-0.169,0.015-0.426-0.121-0.769-0.391
			c-0.344-0.273-0.661-0.404-0.962-0.391c-0.119-0.275-0.423-0.58-0.912-0.916c-0.486-0.339-0.784-0.697-0.9-1.087
			c0.005,0.035-0.003-0.092-0.016-0.375c-0.011-0.153-0.077-0.254-0.201-0.293l0.18-0.172c-0.24-0.008-0.362-0.145-0.375-0.405
			c-0.006-0.031-0.006-0.097-0.011-0.189c0.013-0.08,0.019-0.139,0.016-0.186c-0.011-0.191-0.073-0.32-0.185-0.396l-0.043-0.818
			c-0.021-0.426-0.105-0.725-0.259-0.903c0.153-0.996,0.312-1.992,0.466-2.982c0.253-1.16,0.629-1.752,1.131-1.774
			c0.073-0.009,0.155,0.006,0.237,0.028c0.441-0.446,0.985-0.68,1.628-0.715c0.7-0.039,1.479,0.178,2.33,0.637
			C139.558,805.907,139.97,807.104,140.128,808.396 M136.899,805.808l-0.15,0.195c-0.108,0.021-0.24-0.035-0.389-0.166l0.031,0.533
			c-0.242,0.27-0.338,0.672-0.293,1.221c0.045,0.937,0.071,1.392,0.066,1.361l0.703-0.014c0.338-0.188,0.494-0.503,0.47-0.941
			c-0.011-0.219-0.085-0.58-0.229-1.082C136.968,806.413,136.899,806.046,136.899,805.808"></path>
		<polygon fill="#010101" points="145.624,832.062 146.327,832.464 148.687,826.239 147.901,825.976 145.534,832.2 146.227,832.64 
					"></polygon>
		<polygon fill="#010101" points="146.659,831.196 146.377,831.31 145.624,832.062 146.227,832.64 146.984,831.847 146.687,831.997 
					"></polygon>
		<polygon fill="#010101" points="152.386,831.151 152.721,830.89 146.659,831.196 146.687,831.997 152.747,831.69 153.136,831.401 
					"></polygon>
		<polygon fill="#010101" points="155.126,825.429 154.708,824.913 152.383,831.151 153.133,831.401 155.501,825.177 
			155.089,824.665 		"></polygon>
		<polygon fill="#010101" points="149.35,825.626 149.048,825.776 155.126,825.425 155.089,824.665 149.038,824.938 
			148.736,825.085 		"></polygon>
		<polygon fill="#010101" points="148.687,826.239 148.602,826.376 149.35,825.626 148.736,825.085 147.986,825.837 
			147.901,825.976 		"></polygon>
		<polygon fill="#010101" points="153.72,831.888 154.259,831.653 152.959,830.927 152.547,831.659 153.884,832.403 154.476,832.14 
			153.683,831.878 		"></polygon>
		<polygon fill="#010101" points="156.257,826.144 156.05,825.653 153.683,831.878 154.47,832.14 156.837,825.915 156.621,825.429 
					"></polygon>
		<polygon fill="#010101" points="155.501,825.177 154.914,825.444 156.257,826.144 156.621,825.429 155.326,824.702 
			154.708,824.913 		"></polygon>
		<polygon fill="#010101" points="148.313,826.118 148.276,826.104 149.027,825.354 154.649,825.077 154.708,824.915 
			155.126,825.05 155.501,825.177 155.472,825.245 156.46,825.796 156.835,825.915 156.682,826.321 159.433,832.88 157.106,839.112 
			154.095,832.015 153.709,832.177 153.686,831.878 153.714,831.802 152.766,831.278 152.547,831.659 152.428,831.292 
			146.659,831.571 145.909,832.321 		"></polygon>
		<polygon fill="#010101" points="156.731,838.985 157.498,838.95 154.485,831.854 153.709,832.179 156.722,839.271 
			157.482,839.239 156.694,838.976 		"></polygon>
		<polygon fill="#010101" points="159.083,833.054 159.057,832.753 156.694,838.972 157.482,839.239 159.845,833.019 
			159.82,832.718 		"></polygon>
		<polygon fill="#010101" points="156.837,825.915 156.071,825.956 159.083,833.054 159.823,832.718 156.806,825.616 
			156.05,825.653 		"></polygon>
		<polygon fill="#FFFFFF" points="156.637,827.521 156.972,828.261 157.097,829.011 157.06,829.749 156.846,830.515 
			156.473,831.265 155.958,831.929 155.294,832.542 154.494,833.067 154.058,833.255 153.624,833.442 153.133,833.528 
			152.685,833.63 152.248,833.69 151.775,833.737 151.334,833.677 150.885,833.653 150.501,833.565 150.084,833.421 
			149.685,833.255 149.336,833.052 149.035,832.827 148.699,832.589 148.428,832.29 148.2,831.96 147.859,831.222 147.737,830.472 
			147.737,829.722 147.986,828.972 148.313,828.241 148.837,827.544 149.5,826.927 150.338,826.419 150.736,826.218 151.21,826.038 
			151.659,825.938 152.113,825.841 152.586,825.79 153.022,825.729 153.458,825.79 153.91,825.819 154.325,825.956 154.737,826.089 
			155.109,826.218 155.495,826.427 155.812,826.62 156.135,826.896 156.356,827.222 		"></polygon>
		<polygon fill="#010101" points="156.933,828.747 157.273,829.487 157.385,830.276 157.351,831.017 157.146,831.741 
			156.812,832.505 156.248,833.19 155.633,833.778 154.798,834.29 154.346,834.517 153.91,834.71 153.461,834.806 152.97,834.896 
			152.536,834.954 152.113,834.979 151.659,834.954 151.186,834.88 150.798,834.79 150.386,834.651 150.021,834.489 149.635,834.28 
			149.323,834.093 149.038,833.825 148.747,833.562 148.499,833.188 148.149,832.487 148.023,831.733 148.076,830.958 
			148.274,830.231 148.609,829.472 149.125,828.806 149.785,828.194 150.623,827.679 151.072,827.458 151.497,827.302 
			151.96,827.169 152.451,827.079 152.874,827.056 153.31,826.995 153.751,827.056 154.195,827.079 154.623,827.183 
			155.033,827.317 155.4,827.483 155.799,827.659 156.095,827.884 156.436,828.12 156.658,828.448 156.925,828.784 		"></polygon>
		<polygon fill="#FFFFFF" points="157.146,829.608 157.498,830.312 157.609,831.104 157.569,831.841 157.371,832.565 
			156.996,833.315 156.47,834.019 155.86,834.606 155.02,835.118 154.607,835.354 154.135,835.534 153.683,835.63 153.196,835.722 
			152.761,835.78 152.335,835.81 151.886,835.78 151.41,835.706 151.02,835.62 150.612,835.479 150.248,835.315 149.862,835.104 
			149.548,834.913 149.223,834.64 148.985,834.354 148.726,834.013 148.377,833.315 148.245,832.56 148.287,831.823 
			148.499,831.062 148.837,830.298 149.357,829.595 150.047,829.032 150.853,828.507 151.3,828.282 151.738,828.095 
			152.188,827.993 152.673,827.909 153.112,827.847 153.534,827.819 154.021,827.856 154.425,827.909 154.851,828.009 
			155.263,828.144 155.659,828.321 156.013,828.521 156.325,828.708 156.658,828.944 156.882,829.271 		"></polygon>
		<polygon fill="#010101" points="157.445,830.835 157.783,831.579 157.91,832.329 157.91,833.079 157.656,833.827 157.334,834.554 
			156.769,835.243 156.146,835.868 155.311,836.386 154.909,836.587 154.433,836.761 153.983,836.86 153.534,836.962 
			153.06,837.009 152.62,837.073 152.185,837.009 151.732,836.985 151.31,836.886 150.893,836.747 150.533,836.581 150.147,836.372 
			149.849,836.142 149.548,835.917 149.275,835.616 149.011,835.278 148.71,834.554 148.549,833.788 148.586,833.052 148.8,832.29 
			149.165,831.571 149.688,830.872 150.349,830.255 151.151,829.735 151.585,829.548 152.023,829.36 152.51,829.271 
			152.959,829.173 153.395,829.106 153.86,829.095 154.312,829.122 154.724,829.132 155.146,829.235 155.559,829.372 
			155.96,829.548 156.31,829.749 156.645,829.985 156.948,830.21 157.224,830.515 157.433,830.876 		"></polygon>
		<polygon fill="#FFFFFF" points="157.884,831.653 158.232,832.356 158.359,833.106 158.347,833.894 158.143,834.618 
			157.772,835.374 157.208,836.06 156.597,836.649 155.794,837.173 155.345,837.396 154.869,837.575 154.423,837.675 
			153.968,837.771 153.498,837.825 153.069,837.854 152.62,837.825 152.185,837.763 151.759,837.661 151.347,837.517 
			150.985,837.354 150.623,837.196 150.282,836.954 149.999,836.692 149.725,836.392 149.497,836.069 149.148,835.366 
			148.998,834.565 149.038,833.825 149.272,833.114 149.611,832.351 150.134,831.653 150.787,831.077 151.585,830.546 
			152.034,830.325 152.473,830.14 152.948,830.083 153.408,829.946 153.847,829.884 154.312,829.872 154.755,829.896 
			155.162,829.948 155.585,830.05 156.032,830.198 156.399,830.358 156.759,830.528 157.097,830.761 157.385,831.021 
			157.662,831.323 		"></polygon>
		<polygon fill="#010101" points="158.222,832.892 158.521,833.616 158.687,834.38 158.645,835.126 158.434,835.88 158.069,836.597 
			157.546,837.298 156.882,837.909 156.082,838.438 155.646,838.624 155.173,838.798 154.719,838.896 154.27,838.999 
			153.831,839.06 153.36,839.112 152.922,839.048 152.473,839.021 152.084,838.938 151.635,838.788 151.272,838.624 
			150.925,838.423 150.586,838.188 150.285,837.96 150.01,837.659 149.785,837.329 149.447,836.591 149.28,835.831 149.323,835.091 
			149.577,834.341 149.899,833.616 150.425,832.913 151.088,832.304 151.923,831.788 152.325,831.591 152.8,831.411 153.247,831.31 
			153.698,831.21 154.172,831.165 154.607,831.101 155.046,831.165 155.461,831.177 155.921,831.292 156.333,831.427 
			156.694,831.591 157.049,831.788 157.388,832.026 157.683,832.253 157.958,832.554 		"></polygon>
		<polygon fill="#010101" points="116.911,823.335 116.95,823.101 114.57,829.356 115.323,829.608 117.698,823.349 117.709,823.188 
					"></polygon>
		<polygon fill="#010101" points="116.848,823.026 116.86,822.987 116.911,823.339 117.712,823.188 117.622,822.825 
			117.638,822.786 		"></polygon>
		<polygon fill="#010101" points="116.761,822.665 116.848,823.021 117.638,822.786 117.548,822.425 		"></polygon>
		
			<rect x="116.942" y="821.976" transform="matrix(0.2971 0.9548 -0.9548 0.2971 867.5612 466.2126)" fill="#010101" width="0.339" height="0.821"></rect>
		<polygon fill="#010101" points="116.575,821.976 116.575,821.976 116.66,822.335 117.447,822.097 117.36,821.731 117.347,821.769 
					"></polygon>
		<polygon fill="#010101" points="116.476,821.519 116.476,821.646 116.575,821.976 117.353,821.769 117.249,821.444 
			117.286,821.587 		"></polygon>
		<polygon fill="#010101" points="117.273,821.372 116.485,821.229 116.478,821.519 117.286,821.587 117.297,821.298 
			116.515,821.155 117.26,821.407 		"></polygon>
		<polygon fill="#4E4A4B" points="117.955,839.587 117.881,839.188 117.04,839.323 117.104,839.763 		"></polygon>
		<polygon fill="#010101" points="119.693,834.366 119.72,834.165 117.357,840.388 118.103,840.638 120.47,834.419 120.454,834.206 
					"></polygon>
		<polygon fill="#010101" points="119.636,833.929 119.698,834.366 120.457,834.206 120.396,833.767 119.593,833.917 		"></polygon>
		<polygon fill="#010101" points="119.519,833.517 119.596,833.917 120.396,833.765 120.28,833.354 		"></polygon>
		<polygon fill="#010101" points="119.421,833.067 119.445,833.114 119.519,833.517 120.282,833.354 120.222,832.913 
			120.243,832.966 		"></polygon>
		<polygon fill="#010101" points="120.172,832.688 119.371,832.589 119.419,833.062 120.245,832.966 120.18,832.53 119.382,832.431 
					"></polygon>
		<path fill="#4E4A4B" d="M114.578,828.112l-0.381,0.121L114.578,828.112z"></path>
		<polygon fill="#4E4A4B" points="114.972,829.421 114.985,829.382 115.181,829.396 115.323,829.608 114.975,829.491 		"></polygon>
		<polygon fill="#010101" points="114.11,827.87 114.509,827.794 114.525,827.505 116.897,821.243 116.888,821.286 116.888,821.536 
			116.948,821.849 117.077,822.224 117.173,822.542 117.26,822.911 117.326,823.222 117.698,823.349 115.323,829.608 
			115.181,829.394 114.985,829.382 114.972,829.421 114.975,829.491 115.323,829.608 114.979,829.585 114.985,829.87 
			114.742,829.573 114.546,829.556 114.499,829.206 114.642,829.181 114.795,828.771 114.398,828.884 114.282,828.591 
			114.197,828.229 114.578,828.112 114.197,828.229 114.208,828.194 		"></polygon>
		<polygon fill="#010101" points="114.958,829.069 132.353,828.499 132.804,828.53 132.878,828.548 133.306,828.649 
			133.343,828.663 133.79,828.812 134.226,829.003 134.265,829.011 134.68,829.28 134.754,829.304 135.079,829.573 135.18,829.653 
			135.415,829.94 135.44,829.991 135.604,830.253 135.615,830.343 134.849,830.573 134.728,830.38 134.717,830.417 134.517,830.142 
			134.519,830.142 134.255,829.931 134.315,829.991 133.893,829.769 133.893,829.761 133.448,829.573 133.079,829.454 
			132.65,829.349 132.728,829.378 132.328,829.327 132.328,829.292 114.985,829.87 		"></polygon>
		<polygon fill="#010101" points="134.831,830.581 134.849,830.573 134.892,830.642 		"></polygon>
		<polygon fill="#010101" points="144.123,845.206 144.123,844.954 141.748,851.214 142.535,851.479 144.911,845.222 
			144.911,844.968 		"></polygon>
		<polygon fill="#010101" points="137.253,824.421 137.203,824.321 144.123,845.206 144.911,844.968 137.993,824.087 
			137.978,823.991 		"></polygon>
		<polygon fill="#010101" points="137.116,824.21 137.095,824.159 137.248,824.421 137.978,823.991 137.819,823.729 
			137.779,823.722 137.079,824.196 		"></polygon>
		<polygon fill="#010101" points="136.952,823.946 136.889,823.886 137.079,824.196 137.782,823.716 137.518,823.384 
			137.454,823.315 		"></polygon>
		<polygon fill="#010101" points="136.678,823.771 136.616,823.708 136.955,823.946 137.454,823.317 137.116,823.085 
			137.053,823.017 		"></polygon>
		<polygon fill="#010101" points="136.305,823.515 136.268,823.505 136.678,823.771 137.053,823.017 136.63,822.792 
			136.593,822.778 		"></polygon>
		<polygon fill="#010101" points="135.906,823.341 135.816,823.354 136.302,823.515 136.593,822.784 136.154,822.591 
			136.117,822.579 135.855,823.368 		"></polygon>
		<polygon fill="#010101" points="135.454,823.196 135.403,823.216 135.853,823.368 136.117,822.579 135.668,822.429 
			135.44,823.229 		"></polygon>
		<polygon fill="#010101" points="135.103,823.116 135.028,823.093 135.44,823.229 135.668,822.429 135.203,822.315 
			135.166,822.302 		"></polygon>
		<polygon fill="#010101" points="134.701,823.065 134.693,823.104 135.103,823.116 135.166,822.306 134.73,822.239 134.68,822.269 
					"></polygon>
		<polygon fill="#010101" points="117.735,823.362 117.31,823.638 134.701,823.065 134.68,822.269 117.326,822.847 116.948,823.101 
			117.698,823.349 		"></polygon>
		<polygon fill="#4E4A4B" points="122.103,842.394 122.045,842.362 122.082,842.343 		"></polygon>
		<path fill="#4E4A4B" d="M131.499,845.208l-0.074,0.846L131.499,845.208z"></path>
		<path fill="#010101" d="M117.104,839.763l0.076,0.4l0.15,0.426l0.19,0.312l1.062,0.562l1.062,0.568l1.021,0.549l1.041,0.514
			l0.036,0.013l1.053,0.477l1.046,0.475l1.136,0.464l1.146,0.426l0.04,0.014l1.224,0.33l1.226,0.324l0.037,0.008l1.353,0.203
			l1.385,0.215l0.037,0.014l1.512,0.091l0.053-0.029l1.611,0.039l1.723-0.051l1.826-0.099l0.378-0.25l2.359-6.221l-0.401-0.557
			l0.028,0.807l-0.129-0.156l0.09-0.229l-0.262,0.014l-0.111-0.146l-0.061,0.16l-1.351,0.084h-1.754l-1.611-0.039l-1.475-0.073
			l-1.438-0.188l-1.334-0.244l-1.229-0.317l-1.224-0.332l-1.149-0.425l-1.115-0.416l-1.044-0.473l-1.038-0.516l-1.072-0.531
			l-1.025-0.543l-1.028-0.555l-0.708-0.378l0.023-0.061l-0.375-0.129l-0.1-0.447l-0.074-0.404l-0.032-0.135l0.283-0.615
			l-0.396-0.131l-0.019-0.006l-0.375-0.121l-2.362,6.22l-0.026,0.198l0.063,0.438L117.104,839.763z M117.395,838.776l0.016,0.075
			l-0.042-0.016L117.395,838.776z"></path>
		<polygon fill="#010101" points="138.686,839.884 140.514,839.784 140.485,838.979 138.659,839.077 		"></polygon>
		<polygon fill="#010101" points="136.963,839.931 138.686,839.884 138.664,839.077 136.937,839.134 		"></polygon>
		<polygon fill="#010101" points="135.314,839.882 135.351,839.894 136.963,839.931 136.941,839.134 135.325,839.091 
			135.375,839.069 135.304,839.923 		"></polygon>
		<polygon fill="#010101" points="133.763,839.784 133.803,839.796 135.304,839.915 135.375,839.065 133.863,838.979 133.9,838.991 
					"></polygon>
		<polygon fill="#010101" points="132.362,839.606 133.763,839.784 133.9,838.991 132.514,838.776 		"></polygon>
		<polygon fill="#010101" points="130.989,839.354 131.023,839.366 132.362,839.606 132.511,838.776 131.126,838.562 
			131.161,838.575 		"></polygon>
		<polygon fill="#010101" points="129.766,839.028 130.989,839.354 131.161,838.575 129.94,838.251 129.749,839.065 		"></polygon>
		<polygon fill="#010101" points="128.489,838.726 128.528,838.739 129.749,839.065 129.94,838.251 128.717,837.927 
			128.753,837.938 		"></polygon>
		<polygon fill="#010101" points="127.34,838.302 127.34,838.302 128.489,838.726 128.756,837.938 127.602,837.511 127.642,837.524 
			127.303,838.288 		"></polygon>
		<polygon fill="#010101" points="126.204,837.839 127.303,838.288 127.642,837.524 126.545,837.073 		"></polygon>
		<polygon fill="#010101" points="125.155,837.362 126.204,837.839 126.545,837.073 125.479,836.64 		"></polygon>
		<polygon fill="#010101" points="124.079,836.835 124.106,836.888 125.155,837.36 125.479,836.636 124.404,836.104 
			124.441,836.124 124.069,836.874 		"></polygon>
		<polygon fill="#010101" points="123.044,836.321 124.069,836.874 124.441,836.124 123.405,835.606 123.033,836.358 		"></polygon>
		<polygon fill="#010101" points="122.019,835.771 123.033,836.362 123.405,835.606 122.383,835.056 121.981,835.763 		"></polygon>
		<polygon fill="#010101" points="120.956,835.204 121.981,835.763 122.383,835.056 121.358,834.505 		"></polygon>
		<polygon fill="#010101" points="120.47,834.419 119.895,834.642 120.956,835.204 121.355,834.505 120.296,833.942 119.72,834.165 
					"></polygon>
		<polygon fill="#010101" points="228.79,823.14 226.415,829.396 234.167,831.993 235.972,827.839 236.024,827.438 236.035,827.024 
			235.972,826.585 235.821,826.163 235.573,825.782 235.372,825.378 235.047,824.983 234.712,824.622 234.36,824.294 
			233.974,823.952 233.575,823.657 233.187,823.44 232.812,823.196 232.37,823.005 231.987,822.788 231.612,822.665 
			231.276,822.554 230.87,822.503 230.513,822.464 230.164,822.515 229.812,822.562 229.44,822.69 229.115,822.913 		"></polygon>
		<polygon fill="#010101" points="233.823,831.794 234.31,831.579 226.552,828.985 226.288,829.774 234.048,832.37 234.574,832.169 
					"></polygon>
		<polygon fill="#010101" points="114.11,827.495 114.145,827.38 116.513,821.155 117.26,821.407 114.972,827.55 114.922,827.806 
			114.911,827.72 114.11,827.87 114.097,827.78 		"></polygon>
		<polygon fill="#4E4A4B" points="152.161,842.218 152.019,842.304 152.011,842.288 		"></polygon>
		<path fill="#010101" d="M114.398,828.884l0.087,0.363l0.014-0.041l0.604-0.127l-0.155,0.401l17.394-0.569l0.409,0.018l0.452,0.146
			l0.449,0.149l0.452,0.156l0.412,0.256l0.338,0.24l0.235,0.287l0.147,0.295l-0.409,0.121l6.92,20.883l0.404,0.012l0.011,0.254
			h0.618l0.592-0.014l0.536,0.014l0.488-0.09l0.497-0.125l0.502-0.25l0.46-0.387l0.55-0.525l0.016-0.037l0.31-0.438l0.364-0.461
			l0.415-0.49l0.285-0.488l0.362-0.586l0.375-0.506l0.31-0.562l0.401-0.572l0.322-0.478l0.465-0.512l0.38-0.502l0.434-0.438
			l0.389-0.412l0.412-0.361l0.398-0.322l0.461-0.268l0.103-0.047l-0.296-0.285l0.296,0.285l0.462-0.517l0.429-0.397l0.375-0.377
			l0.396-0.324l0.391-0.285l0.409-0.242l0.362-0.209l0.399-0.199l0.454-0.104l0.437-0.188l0.449-0.096l0.522-0.082l0.576-0.098
			l0.634-0.037l0.692-0.062l0.677-0.022l0.034,0.01l75.065-5.615l0.434-0.061l0.404-0.078l0.361-0.088l0.375-0.127l0.344-0.174
			l0.367-0.211l0.301-0.277l0.35-0.295l0.074-0.104l1.312-3.064l-0.687-0.436l0.306,0.286l-0.047,0.041l-0.333-0.229l-0.327,0.764
			l-0.225,0.135l-0.286,0.113l-0.341,0.139l-0.312,0.062l-0.401,0.076l-0.395,0.073l-75.102,5.609l-0.48,0.047l-0.46,0.015
			l-0.46,0.014l-0.486,0.084h-0.502l-0.434,0.059l-0.48,0.06l-0.434,0.061l-0.491,0.084l-0.438,0.064l-0.446,0.094l-0.5,0.131
			l-0.449,0.1l-0.478,0.171l-0.474,0.182l-0.449,0.223l-0.888,0.541l-0.898,0.824l-0.951,0.977l-0.916,1.111l-0.886,1.162
			l-0.761,1.043l-0.75,1l-0.627,0.75l-0.361,0.09l-0.312,0.062l-0.386,0.039h-0.378h-0.372l-0.327-0.023l-0.413-0.016l-0.359-0.037
			l-6.896-20.834l-0.148-0.301l-0.237-0.289l-0.339-0.242l-0.449-0.271l-0.438-0.19l-0.449-0.148l-0.423-0.102l-0.417-0.013
			l-17.378,0.531l-2.09,5.51l-0.011-0.073L114.398,828.884z M239.296,829.46l0.026-0.053l0.285,0.271L239.296,829.46z"></path>
		<polygon fill="#010101" points="236.672,830.995 237.121,830.896 237.522,830.817 237.882,830.731 238.257,830.606 
			238.606,830.433 238.971,830.218 239.259,829.981 239.607,829.675 239.008,829.106 238.743,829.394 238.469,829.593 
			238.207,829.757 237.919,829.866 237.644,829.944 237.316,830.042 236.974,830.091 236.587,830.132 		"></polygon>
		<polygon fill="#010101" points="161.62,836.573 236.672,830.995 236.585,830.132 161.522,835.749 		"></polygon>
		<polygon fill="#010101" points="154.259,837.909 154.694,837.726 155.126,837.575 155.633,837.411 156.058,837.263 
			156.521,837.122 156.956,837.062 157.393,837.001 157.879,836.909 158.28,836.835 158.745,836.823 159.221,836.774 
			159.696,836.724 160.169,836.673 160.592,836.649 161.107,836.612 161.62,836.573 161.522,835.749 161.041,835.8 160.571,835.849 
			160.071,835.849 159.596,835.894 159.134,835.909 158.685,836.011 158.222,836.024 157.71,836.06 157.255,836.161 
			156.806,836.261 156.322,836.343 155.82,836.472 155.395,836.618 154.882,836.784 154.372,836.948 153.921,837.173 		"></polygon>
		<polygon fill="#010101" points="147.532,845.345 147.695,845.231 148.036,844.843 148.335,844.446 148.694,843.981 
			149.069,843.479 149.497,842.956 149.889,842.413 150.321,841.854 150.761,841.29 151.21,840.688 151.672,840.175 
			152.121,839.698 152.583,839.188 152.972,838.776 153.458,838.438 153.857,838.108 154.259,837.909 153.921,837.173 
			153.408,837.46 152.972,837.771 152.457,838.185 151.971,838.646 151.519,839.126 151.072,839.601 150.57,840.224 
			150.134,840.788 149.692,841.351 149.257,841.913 148.871,842.45 148.448,842.976 148.07,843.479 147.709,843.944 147.41,844.345 
			147.136,844.669 147.283,844.589 		"></polygon>
		<polygon fill="#FFFFFF" points="133.155,822.718 134.701,822.69 134.828,822.69 121.521,818.241 120.851,818.644 133.142,822.755 
					"></polygon>
		<polygon fill="#FFFFFF" points="133.155,822.718 117.323,823.222 117.26,822.911 117.173,822.552 117.077,822.226 116.95,821.849 
			116.888,821.53 116.888,821.286 116.985,820.981 117.26,820.78 117.91,820.331 118.637,819.903 119.36,819.481 120.087,819.056 
			120.774,818.616 120.851,818.644 133.142,822.755 		"></polygon>
		<polygon fill="#FFFFFF" points="123.53,832.351 134.315,831.745 138.538,833.45 140.028,837.87 140.478,839.399 138.69,839.509 
			136.941,839.509 135.325,839.47 133.851,839.396 132.413,839.208 131.079,838.964 129.851,838.646 128.627,838.312 
			127.479,837.886 126.362,837.474 125.321,837.001 124.28,836.485 123.208,835.954 122.18,835.411 121.157,834.856 120.095,834.29 
			119.995,833.843 119.921,833.438 119.82,832.993 119.757,832.552 		"></polygon>
		<polygon fill="#FFFFFF" points="150.697,833.591 150.848,833.765 152.235,834.606 152.685,833.878 151.297,833.04 
			151.437,833.255 150.697,833.591 150.747,833.69 150.848,833.765 		"></polygon>
		<polygon fill="#FFFFFF" points="138.36,833.849 138.126,833.558 140.102,839.521 140.887,839.284 138.913,833.321 
			138.701,833.083 138.913,833.321 138.85,833.134 138.701,833.083 		"></polygon>
		<polygon fill="#FFFFFF" points="134.354,832.132 134.151,832.108 138.36,833.843 138.701,833.083 134.495,831.345 
			134.326,831.331 134.495,831.345 134.416,831.317 134.326,831.331 		"></polygon>
		<polygon fill="#FFFFFF" points="120.183,832.528 119.783,832.979 134.353,832.132 134.326,831.331 119.757,832.177 
			119.371,832.591 119.757,832.177 119.294,832.19 119.371,832.591 		"></polygon>
		<polygon fill="#FFFFFF" points="120.296,833.944 120.454,834.206 120.446,833.991 120.396,833.767 120.38,833.55 120.319,833.366 
			120.31,833.153 120.259,832.927 120.195,832.739 120.18,832.524 119.371,832.589 119.371,832.839 119.408,833.104 
			119.472,833.288 119.481,833.503 119.546,833.69 119.596,833.917 119.683,834.153 119.693,834.366 119.895,834.642 
			119.693,834.366 119.757,834.554 119.895,834.642 		"></polygon>
		<polygon fill="#FFFFFF" points="140.112,839.481 140.445,838.972 138.664,839.077 136.937,839.134 135.375,839.069 
			133.86,838.979 132.511,838.776 131.161,838.575 129.94,838.253 128.753,837.938 127.604,837.511 126.542,837.073 
			125.479,836.636 124.441,836.124 123.405,835.606 122.383,835.056 121.358,834.507 120.296,833.944 119.895,834.642 
			120.956,835.208 121.981,835.763 123.033,836.358 124.069,836.874 125.155,837.362 126.204,837.839 127.337,838.302 
			128.489,838.726 129.749,839.065 130.989,839.354 132.362,839.606 133.8,839.796 135.301,839.923 136.963,839.931 
			138.686,839.884 140.551,839.796 140.887,839.284 140.551,839.796 141.063,839.757 140.887,839.284 140.102,839.521 		"></polygon>
		<polygon fill="#FFFFFF" points="161.52,835.749 160.97,835.774 160.356,835.862 159.808,835.88 159.208,835.938 158.634,836.032 
			158.021,836.124 157.411,836.212 156.819,836.343 156.229,836.485 155.723,836.649 155.162,836.835 154.634,837.036 
			154.185,837.263 153.646,837.497 153.207,837.812 152.806,838.134 153.31,838.763 153.693,838.474 154.068,838.222 
			154.48,837.987 154.956,837.812 155.421,837.548 155.921,837.425 156.507,837.286 157.02,837.122 157.583,837.062 
			158.085,836.938 158.685,836.888 159.255,836.786 159.871,836.7 160.471,836.649 161.03,836.587 161.62,836.573 		"></polygon>
		<polygon fill="#FFFFFF" points="236.585,830.132 161.52,835.749 161.62,836.573 236.672,830.995 		"></polygon>
		<polygon fill="#FFFFFF" points="237.985,825.548 238.294,825.983 238.619,826.384 238.77,826.812 239.008,827.226 
			239.134,827.604 239.171,827.993 239.182,828.329 239.161,828.649 239.068,828.919 238.944,829.167 238.783,829.407 
			238.495,829.642 238.196,829.796 237.718,829.966 237.224,830.091 236.587,830.132 236.672,830.995 237.361,830.933 
			237.958,830.755 238.481,830.554 238.944,830.292 239.37,830.019 239.668,829.616 239.832,829.255 239.979,828.806 
			239.97,828.337 239.995,827.888 239.896,827.438 239.731,826.927 239.544,826.485 239.296,825.983 238.971,825.46 
			238.646,825.058 		"></polygon>
		<polygon fill="#FFFFFF" points="229.036,821.265 229.715,821.237 230.399,821.304 231.097,821.452 231.776,821.552 
			232.413,821.763 233.05,821.979 233.659,822.269 234.238,822.542 234.835,822.866 235.385,823.216 235.975,823.579 
			236.399,823.933 236.847,824.335 237.285,824.771 237.644,825.183 237.985,825.548 238.646,825.058 238.257,824.597 
			237.821,824.159 237.383,823.724 236.899,823.31 236.36,822.921 235.823,822.53 235.274,822.179 234.647,821.804 234.001,821.501 
			233.337,821.237 232.661,821.017 231.95,820.778 231.25,820.628 230.536,820.515 229.723,820.444 229.01,820.46 		"></polygon>
		<polygon fill="#FFFFFF" points="162.621,823.556 229.041,821.265 229.01,820.46 162.635,822.765 		"></polygon>
		<polygon fill="#FFFFFF" points="152.134,821.88 152.763,822.136 153.421,822.276 154.063,822.485 154.724,822.624 
			155.421,822.778 156.077,822.95 156.784,823.062 157.424,823.153 158.087,823.288 158.771,823.351 159.448,823.448 
			160.111,823.47 160.748,823.556 161.425,823.528 162.032,823.565 162.621,823.556 162.635,822.765 162.006,822.765 
			161.397,822.726 160.822,822.704 160.172,822.651 159.522,822.604 158.872,822.552 158.235,822.464 157.562,822.36 
			156.901,822.226 156.262,822.136 155.611,821.962 154.935,821.86 154.285,821.688 153.599,821.493 153.022,821.343 
			152.386,821.132 152.126,821.925 		"></polygon>
		<polygon fill="#FFFFFF" points="129.731,815.731 130.87,815.567 131.942,815.468 132.968,815.394 133.908,815.333 
			134.796,815.292 135.595,815.394 136.419,815.419 137.108,815.479 137.819,815.595 138.479,815.733 139.103,815.856 
			139.669,816.046 140.266,816.247 140.741,816.444 141.33,816.685 141.793,816.923 142.329,817.183 142.865,817.452 
			143.392,817.753 143.917,818.054 144.44,818.351 144.989,818.704 145.528,818.968 146.115,819.327 146.766,819.628 
			147.389,820.003 148.087,820.278 148.763,820.628 149.524,820.968 150.351,821.249 151.226,821.618 152.126,821.925 
			152.386,821.132 151.484,820.831 150.602,820.493 149.862,820.204 149.088,819.903 148.377,819.542 147.765,819.257 
			147.138,818.878 146.527,818.591 145.925,818.265 145.365,817.954 144.842,817.651 144.292,817.298 143.764,817.003 
			143.23,816.735 142.688,816.472 142.205,816.183 141.666,815.921 141.079,815.685 140.53,815.456 139.933,815.259 139.29,815.044 
			138.633,814.905 137.956,814.81 137.217,814.644 136.456,814.556 135.668,814.542 134.754,814.528 133.882,814.528 
			132.873,814.569 131.845,814.644 130.754,814.774 129.628,814.905 129.694,815.716 		"></polygon>
		<polygon fill="#FFFFFF" points="117.474,821.142 118.126,820.694 118.848,820.271 119.577,819.843 120.312,819.38 
			120.988,818.981 121.749,818.569 122.457,818.181 123.197,817.845 123.987,817.483 124.771,817.116 125.546,816.794 
			126.347,816.519 127.208,816.304 127.992,816.062 128.859,815.854 129.694,815.716 129.631,814.905 128.692,815.093 
			127.808,815.253 126.933,815.499 126.108,815.729 125.284,816.081 124.434,816.378 123.662,816.704 122.872,817.065 
			122.071,817.464 121.311,817.88 120.6,818.269 119.873,818.69 119.144,819.118 118.423,819.542 117.735,819.983 117.049,820.419 
			117.437,821.132 		"></polygon>
		<polygon fill="#FFFFFF" points="117.323,822.847 117.749,823.2 117.622,822.825 117.548,822.419 117.447,822.097 117.36,821.731 
			117.31,821.511 117.275,821.372 117.334,821.183 117.437,821.132 117.049,820.419 116.689,820.757 116.496,821.198 
			116.448,821.595 116.575,821.976 116.66,822.335 116.766,822.665 116.86,822.987 116.925,823.298 117.31,823.638 116.925,823.298 
			116.935,823.638 117.31,823.638 		"></polygon>
		<polygon fill="#FFFFFF" points="148.002,825.8 147.991,825.841 147.986,825.841 		"></polygon>
		<polygon fill="#FFFFFF" points="147.812,825.989 147.986,825.837 147.886,826.269 		"></polygon>
		<polygon fill="#FFFFFF" points="158.996,830.771 172.69,835.351 171.206,835.44 171.19,835.474 159.306,831.503 		"></polygon>
		<path fill="#FFFFFF" d="M117.31,823.638l17.396-0.571l0.359,0.036l0.338,0.113l0.449,0.152l0.415,0.137l0.373,0.254l0.274,0.176
			l0.164,0.263l0.121,0.125l6.923,20.885l0.101,0.324l0.338-0.01l0.35-0.052l0.396,0.052l0.491,0.034l0.46-0.012l0.449,0.023
			l0.415-0.111l0.463-0.137l0.375-0.253l0.449-0.475l0.375-0.5l0.349-0.426l0.349-0.422l0.304-0.402l0.288-0.361l0.248-0.381
			l0.297-0.401l0.253-0.371l0.288-0.357l0.288-0.369l0.312-0.312l0.322-0.35l0.376-0.378l0.375-0.375l0.478-0.426l-0.253-0.319
			l0.378-0.308l0.423-0.271l0.491-0.218l0.446-0.221l0.489-0.215l0.547-0.148l0.568-0.188l0.544-0.15l0.525-0.076l0.573-0.102
			l0.616-0.086l0.573-0.098l0.598-0.052l0.604-0.051l0.56-0.061l0.553-0.025l9.645-0.695l-11.885-3.977l-0.31-0.732l13.694,4.582
			l63.96-4.785l1.182-0.188l0.89-0.412l0.611-0.586l0.225-0.678v-0.75l0.013-0.037l-0.214-0.869l-0.423-0.848l-0.613-0.914
			l-0.359-0.416l-0.401-0.422l-0.438-0.437l-0.46-0.371l-0.488-0.405l-0.55-0.357l-0.587-0.361l-0.586-0.36l-0.624-0.253
			l-0.616-0.291l-0.673-0.221l-0.711-0.24l-0.674-0.102l-0.706-0.148l-0.724-0.077l-0.713,0.016l-9.657,0.359l-56.718,1.94h-0.624
			l-0.586,0.014l-0.666-0.014l-0.635-0.086L159.473,823l-0.647-0.051l-0.64-0.084l-0.676-0.103l-0.672-0.1l-0.662-0.142
			l-0.664-0.135l-0.66-0.141l-0.688-0.188l-0.652-0.182l-0.61-0.156l-0.637-0.211l-0.901-0.307l-0.882-0.338l-0.782-0.302
			l-0.769-0.295l-0.68-0.354l-0.649-0.302l-0.672-0.35l-0.617-0.287l-0.582-0.362l-0.528-0.302l-0.56-0.313l-0.526-0.306
			l-0.562-0.311l-0.523-0.297l-0.499-0.256l-0.529-0.299l-0.533-0.265l-0.553-0.225l-0.525-0.178l-0.6-0.201l-0.635-0.207
			l-0.612-0.164l-0.671-0.104l-0.714-0.112l-0.724-0.074l-0.816-0.061l-0.861-0.039l-0.886,0.039l-0.93,0.022l-1.036,0.111
			l-1.072,0.1l-1.176,0.154l-0.875,0.121l-0.858,0.213l-0.869,0.207l-0.798,0.274l-0.849,0.31l-0.811,0.309l-0.774,0.326
			l-0.79,0.359l-0.745,0.379l-0.767,0.41l12.136,4.061l-16.334,0.545L117.31,823.638z M228.55,823.979l0.074-0.476l0.166-0.358
			l0.299-0.277l0.449-0.229l0.525-0.073l0.283,0.016l0.33,0.025l0.312,0.061l0.312,0.061l0.375,0.128l0.339,0.112l0.362,0.16
			l0.388,0.215l0.32,0.15l0.341,0.238l0.299,0.223l0.327,0.277l0.335,0.235l0.236,0.291l0.29,0.261l0.235,0.293l0.438,0.563
			l0.225,0.576l0.113,0.285l0.062,0.19l-0.037,0.486l-0.088,0.385l-0.277,0.326l-0.398,0.197l-0.537,0.117l-0.301,0.026
			l-0.309-0.063l-0.362-0.041l-0.392-0.086l-0.335-0.111l-0.378-0.121l-0.396-0.18l-0.349-0.201l-0.364-0.164l-0.392-0.211
			l-0.338-0.238l-0.322-0.274l-0.296-0.228l-0.312-0.312l-0.279-0.302l-0.238-0.284l-0.386-0.591l-0.228-0.575l-0.058-0.188
			L228.55,823.979z M159.411,832.829L159.411,832.829l-0.265-0.211L159.411,832.829z M148.769,826.21l0.438-0.44l5.707-0.324
			l1.205,0.625l2.869,6.75l-0.449,0.569l-6.13,0.438l0.275,0.051l-0.207,0.336l-0.031,0.002l-1.361-0.787l-0.005-0.014l0.356-0.16
			L148.769,826.21z"></path>
		<polygon fill="#010101" points="224.687,828.321 224.335,828.12 224.274,827.81 224.776,827.685 224.877,828.007 224.575,827.784 
					"></polygon>
		<polygon fill="#010101" points="225.363,827.919 225.289,828.021 225.159,828.146 225.015,828.222 224.866,828.296 
			224.687,828.321 224.575,827.784 224.649,827.81 224.767,827.722 224.903,827.685 224.914,827.646 224.888,827.722 
			225.353,827.96 		"></polygon>
		<polygon fill="#010101" points="223.952,824.776 223.989,824.788 224.228,825.077 224.539,825.394 224.84,825.739 
			225.126,826.132 225.358,826.546 225.501,827.009 225.501,827.511 225.353,827.96 224.888,827.72 224.988,827.421 
			224.967,827.122 224.877,826.761 224.649,826.433 224.401,826.058 224.127,825.761 223.815,825.444 223.577,825.159 
			223.614,825.169 		"></polygon>
		<polygon fill="#010101" points="219.357,823.448 219.312,823.438 219.979,823.448 220.6,823.448 221.188,823.565 221.754,823.624 
			222.333,823.776 222.861,824.038 223.424,824.354 223.952,824.776 223.614,825.163 223.099,824.825 222.615,824.54 
			222.15,824.302 221.653,824.177 221.104,824.075 220.538,824.013 219.962,823.987 219.376,823.999 219.395,823.962 
			219.302,823.476 		"></polygon>
		<polygon fill="#010101" points="170.593,826.009 170.807,825.874 219.302,823.476 219.395,823.964 170.878,826.396 
			171.093,826.259 		"></polygon>
		<polygon fill="#010101" points="169.44,827.712 168.921,827.536 168.957,827.175 169.053,826.874 169.208,826.552 
			169.403,826.323 169.668,826.163 170.001,826.021 170.382,825.899 170.807,825.874 170.878,826.396 170.481,826.472 
			170.117,826.56 169.942,826.585 169.769,826.733 169.684,826.874 169.541,827.034 169.468,827.263 169.483,827.597 
			168.957,827.423 		"></polygon>
		<polygon fill="#010101" points="224.38,827.511 224.237,827.296 224.061,827.069 223.926,826.858 223.741,826.667 223.562,826.44 
			223.376,826.259 223.202,826.028 222.705,825.653 222.188,825.315 221.68,825.104 221.141,824.964 220.575,824.903 
			219.994,824.788 219.415,824.765 218.789,824.763 170.281,827.2 170.678,826.446 170.831,826.425 170.878,826.396 
			219.395,823.964 220.2,824.024 220.877,824.001 221.517,824.087 222.101,824.202 222.642,824.464 223.122,824.751 
			223.577,825.159 224.09,825.739 224.539,826.271 224.866,826.794 225.024,827.183 225.024,827.431 224.914,827.646 
			224.603,827.833 224.558,827.843 224.539,827.769 		"></polygon>
		<path fill="#010101" d="M168.921,827.536l0.047,0.477l0.104,0.324l0.137,0.463l0.32,0.527l0.401,0.426l0.51,0.465l0.613,0.41
			l0.687,0.314l0.727,0.198l0.875,0.002l49.835-2.532l0.945-0.103l0.677-0.147l0.491-0.341l0.274-0.448l-0.01-0.463l-0.19-0.562
			l-0.359-0.539l-0.507-0.629l-0.508-0.59l-0.55-0.476l-0.587-0.36l-0.575-0.275l-0.624-0.127l-0.75-0.121h-0.75l-0.852,0.047
			l-48.495,2.398v0.014l-0.515,0.021l-0.523,0.2l-0.349,0.302l-0.243,0.342l-0.161,0.356L168.921,827.536z M169.483,827.597
			l0.058-0.309l0.024-0.053l0.039-0.011h0.248l0.429-0.024l0.404-0.761l0.146-0.02l0.047-0.023l48.517-2.436l0.806,0.062
			l0.677-0.025l0.64,0.09l0.584,0.113l0.541,0.262l0.48,0.287l0.455,0.402l0.513,0.586l0.449,0.53l0.327,0.523l0.158,0.389v0.252
			l-0.11,0.211l-0.312,0.188l-0.045,0.014l-0.542,0.123l-0.824,0.103l-49.851,2.571l-0.037-0.016l-0.7-0.021l-0.687-0.188
			l-0.611-0.285l-0.527-0.301l-0.434-0.439l-0.314-0.44l-0.272-0.42l-0.217-0.367l-0.037-0.264L169.483,827.597z"></path>
	</g>
	
</g>
</svg>