<svg xmlns="http://www.w3.org/2000/svg" viewBox="0 0 1575 2325" width="1575" height="2325"><defs><style>.cls-1{letter-spacing:.01em;}.cls-2{stroke-dasharray:0 0 .01 0;}.cls-2,.cls-3,.cls-4,.cls-5,.cls-6,.cls-7{stroke:#2ba4dd;}.cls-2,.cls-3,.cls-4,.cls-5,.cls-6,.cls-7,.cls-8,.cls-9,.cls-10,.cls-11{fill:none;}.cls-2,.cls-3,.cls-4,.cls-5,.cls-7{stroke-linejoin:round;}.cls-12{letter-spacing:.05em;}.cls-3{stroke-dasharray:0 0 0 0 5.04 5.03 .01 0;}.cls-13{letter-spacing:.05em;}.cls-14{letter-spacing:.05em;}.cls-15{letter-spacing:0em;}.cls-16{letter-spacing:0em;}.cls-5{stroke-dasharray:0 0 .01 0;}.cls-17{letter-spacing:.05em;}.cls-18,.cls-19{fill:#fff;}.cls-20,.cls-21{fill:red;}.cls-22{fill:#d1d2d2;}.cls-23{fill:#4e494b;}.cls-24{letter-spacing:.33em;}.cls-25{letter-spacing:0em;}.cls-26{letter-spacing:0em;}.cls-27{fill:#2ca4dd;}.cls-27,.cls-28,.cls-29,.cls-21,.cls-30{font-size:9.99px;}.cls-27,.cls-28,.cls-29,.cls-21,.cls-31{font-family:Arial-BoldMT, Arial;font-weight:700;}.cls-28{fill:#919395;}.cls-29,.cls-32{fill:#f0f;}.cls-6{stroke-dasharray:0 0 0 0 3 3 0 0;}.cls-33{letter-spacing:.25em;}.cls-34{letter-spacing:-.04em;}.cls-35{letter-spacing:-.04em;}.cls-7{stroke-dasharray:0 0 0 0 5.06 5.05 .01 0;}.cls-36{letter-spacing:-.02em;}.cls-37{letter-spacing:0em;}.cls-8{stroke:#f0f;}.cls-8,.cls-9{stroke-miterlimit:10;}.cls-9,.cls-11{stroke:red;}.cls-38,.cls-39{opacity:.5;}.cls-30{font-family:Arial-Black, 'Arial Black';font-weight:800;}.cls-30,.cls-31{fill:#221f1f;}.cls-40{letter-spacing:.24em;}.cls-41{fill:#b6d233;}.cls-41,.cls-19,.cls-42{fill-rule:evenodd;}.cls-31{font-size:8.16px;}.cls-10{stroke:#919395;}.cls-43{letter-spacing:0em;}.cls-44{letter-spacing:.28em;}.cls-45{letter-spacing:.28em;}.cls-46{letter-spacing:.28em;}.cls-47{letter-spacing:.28em;}.cls-48{letter-spacing:.28em;}.cls-39{fill:#929497;}.cls-49{letter-spacing:.28em;}.cls-50{letter-spacing:.28em;}.cls-51{letter-spacing:.28em;}.cls-32{opacity:.25;}.cls-52{letter-spacing:.28em;}.cls-53{letter-spacing:.28em;}</style></defs><g id="Bleed_Zone"><path class="cls-38" d="m0,0v558h378V0H0Zm368.55,549.55H9.45V8.45h359.1v541.09Z"></path></g><g id="Gutter_Zone"><rect class="cls-32" x="340.69" y="9" width="28.35" height="540.58"></rect><path class="cls-39" d="m360.53,27c0,3.13-2.54,5.67-5.67,5.67s-5.67-2.54-5.67-5.67,2.54-5.67,5.67-5.67,5.67,2.54,5.67,5.67"></path><path class="cls-39" d="m360.53,45c0,3.13-2.54,5.67-5.67,5.67s-5.67-2.54-5.67-5.67,2.54-5.67,5.67-5.67,5.67,2.54,5.67,5.67"></path><path class="cls-39" d="m360.53,63c0,3.13-2.54,5.67-5.67,5.67s-5.67-2.54-5.67-5.67,2.54-5.67,5.67-5.67,5.67,2.54,5.67,5.67"></path><path class="cls-39" d="m360.53,81c0,3.13-2.54,5.67-5.67,5.67s-5.67-2.54-5.67-5.67,2.54-5.67,5.67-5.67,5.67,2.54,5.67,5.67"></path><path class="cls-39" d="m360.53,99c0,3.13-2.54,5.67-5.67,5.67s-5.67-2.54-5.67-5.67,2.54-5.67,5.67-5.67,5.67,2.54,5.67,5.67"></path><path class="cls-39" d="m360.53,117c0,3.13-2.54,5.67-5.67,5.67s-5.67-2.54-5.67-5.67,2.54-5.67,5.67-5.67,5.67,2.54,5.67,5.67"></path><path class="cls-39" d="m360.53,135c0,3.13-2.54,5.67-5.67,5.67s-5.67-2.54-5.67-5.67,2.54-5.67,5.67-5.67,5.67,2.54,5.67,5.67"></path><path class="cls-39" d="m360.53,153c0,3.13-2.54,5.67-5.67,5.67s-5.67-2.54-5.67-5.67,2.54-5.67,5.67-5.67,5.67,2.54,5.67,5.67"></path><path class="cls-39" d="m360.53,171c0,3.13-2.54,5.67-5.67,5.67s-5.67-2.54-5.67-5.67,2.54-5.67,5.67-5.67,5.67,2.54,5.67,5.67"></path><path class="cls-39" d="m360.53,189c0,3.13-2.54,5.67-5.67,5.67s-5.67-2.54-5.67-5.67,2.54-5.67,5.67-5.67,5.67,2.54,5.67,5.67"></path><path class="cls-39" d="m360.54,207c0,3.13-2.54,5.67-5.67,5.67s-5.67-2.54-5.67-5.67,2.54-5.67,5.67-5.67,5.67,2.54,5.67,5.67"></path><path class="cls-39" d="m360.53,225c0,3.13-2.54,5.67-5.67,5.67s-5.67-2.54-5.67-5.67,2.54-5.67,5.67-5.67,5.67,2.54,5.67,5.67"></path><path class="cls-39" d="m360.53,243c0,3.13-2.54,5.67-5.67,5.67s-5.67-2.54-5.67-5.67,2.54-5.67,5.67-5.67,5.67,2.54,5.67,5.67"></path><path class="cls-39" d="m360.53,261c0,3.13-2.54,5.67-5.67,5.67s-5.67-2.54-5.67-5.67,2.54-5.67,5.67-5.67,5.67,2.54,5.67,5.67"></path><path class="cls-39" d="m360.53,279c0,3.13-2.54,5.67-5.67,5.67s-5.67-2.54-5.67-5.67,2.54-5.67,5.67-5.67,5.67,2.54,5.67,5.67"></path><path class="cls-39" d="m360.53,297c0,3.13-2.54,5.67-5.67,5.67s-5.67-2.54-5.67-5.67,2.54-5.67,5.67-5.67,5.67,2.54,5.67,5.67"></path><path class="cls-39" d="m360.53,315c0,3.13-2.54,5.67-5.67,5.67s-5.67-2.54-5.67-5.67,2.54-5.67,5.67-5.67,5.67,2.54,5.67,5.67"></path><path class="cls-39" d="m360.53,333c0,3.13-2.54,5.67-5.67,5.67s-5.67-2.54-5.67-5.67,2.54-5.67,5.67-5.67,5.67,2.54,5.67,5.67"></path><path class="cls-39" d="m360.53,351c0,3.13-2.54,5.67-5.67,5.67s-5.67-2.54-5.67-5.67,2.54-5.67,5.67-5.67,5.67,2.54,5.67,5.67"></path><path class="cls-39" d="m360.53,369c0,3.13-2.54,5.67-5.67,5.67s-5.67-2.54-5.67-5.67,2.54-5.67,5.67-5.67,5.67,2.54,5.67,5.67"></path><path class="cls-39" d="m360.53,387c0,3.13-2.54,5.67-5.67,5.67s-5.67-2.54-5.67-5.67,2.54-5.67,5.67-5.67,5.67,2.54,5.67,5.67"></path><path class="cls-39" d="m360.53,405c0,3.13-2.54,5.67-5.67,5.67s-5.67-2.54-5.67-5.67,2.54-5.67,5.67-5.67,5.67,2.54,5.67,5.67"></path><path class="cls-39" d="m360.53,423c0,3.13-2.54,5.67-5.67,5.67s-5.67-2.54-5.67-5.67,2.54-5.67,5.67-5.67,5.67,2.54,5.67,5.67"></path><path class="cls-39" d="m360.53,441c0,3.13-2.54,5.67-5.67,5.67s-5.67-2.54-5.67-5.67,2.54-5.67,5.67-5.67,5.67,2.54,5.67,5.67"></path><path class="cls-39" d="m360.53,459c0,3.13-2.54,5.67-5.67,5.67s-5.67-2.54-5.67-5.67,2.54-5.67,5.67-5.67,5.67,2.54,5.67,5.67"></path><path class="cls-39" d="m360.53,477c0,3.13-2.54,5.67-5.67,5.67s-5.67-2.54-5.67-5.67,2.54-5.67,5.67-5.67,5.67,2.54,5.67,5.67"></path><path class="cls-39" d="m360.53,495c0,3.13-2.54,5.67-5.67,5.67s-5.67-2.54-5.67-5.67,2.54-5.67,5.67-5.67,5.67,2.54,5.67,5.67"></path><path class="cls-39" d="m360.53,513c0,3.13-2.54,5.67-5.67,5.67s-5.67-2.54-5.67-5.67,2.54-5.67,5.67-5.67,5.67,2.54,5.67,5.67"></path><path class="cls-39" d="m360.53,531c0,3.13-2.54,5.67-5.67,5.67s-5.67-2.54-5.67-5.67,2.54-5.67,5.67-5.67,5.67,2.54,5.67,5.67"></path></g><g id="Trim_Line"><polyline class="cls-4" points="18 538.59 18 541.09 20.5 541.09"></polyline><line class="cls-2" x1="25.55" y1="541.09" x2="25.56" y2="541.09"></line><line class="cls-7" x1="25.56" y1="541.09" x2="329.19" y2="541.09"></line><polyline class="cls-4" points="329.19 541.09 331.69 541.09 331.69 538.59"></polyline><line class="cls-5" x1="331.69" y1="533.56" x2="331.69" y2="533.55"></line><line class="cls-3" x1="331.69" y1="533.55" x2="331.69" y2="19.41"></line><polyline class="cls-4" points="331.69 19.41 331.69 16.91 329.19 16.91"></polyline><line class="cls-2" x1="324.14" y1="16.91" x2="324.13" y2="16.91"></line><line class="cls-7" x1="324.13" y1="16.91" x2="20.5" y2="16.91"></line><polyline class="cls-4" points="20.5 16.91 18 16.91 18 19.41"></polyline><line class="cls-5" x1="18" y1="24.44" x2="18" y2="24.45"></line><line class="cls-3" x1="18" y1="24.45" x2="18" y2="538.59"></line><rect class="cls-9" x="9" y="9" width="360" height="540"></rect></g><g id="Text"><rect class="cls-22" x="188.71" y="382.96" width="133.94" height="148.04"></rect><path class="cls-42" d="m300.02,434.06c0,23.34-18.92,42.27-42.25,42.27s-42.25-18.92-42.25-42.27,18.92-42.27,42.25-42.27,42.25,18.93,42.25,42.27"></path><path class="cls-41" d="m296.21,434.29c0,21.22-17.2,38.42-38.41,38.42s-38.41-17.2-38.41-38.42,17.2-38.42,38.41-38.42,38.41,17.2,38.41,38.42"></path><path d="m249.57,425.91c-.53,4.71-.93,8.49-1.19,11.35l-1.75.08c.03-.09.04-.2.04-.32,0-.21-.07-.5-.24-.85-.16-.35-.25-.57-.28-.66-.45.06-.89.38-1.3.94-.41.56-.79.85-1.12.84-.19,0-.4-.06-.64-.16-.31.21-.72.3-1.22.26-.45-.08-.89-.15-1.32-.2-.02-.59-.6-1.12-1.76-1.57,0-.24-.11-.59-.36-1.06-.24-.47-.36-.8-.36-.99,0-.22.09-.39.26-.53-.02-.07-.22-.51-.58-1.33-.25-.6-.37-1.11-.37-1.54,0-.33.08-.64.23-.93-.2-2.03-.29-3.77-.27-5.22.04-2.24.36-4.3.96-6.17-.04-.29-.06-.57-.06-.86.02-1.5.54-2.54,1.55-3.12v-.47c1.01-1.27,2.32-2.19,3.95-2.76.97.23,1.95.45,2.92.66,1.09.38,1.84,1.02,2.25,1.93.33.2.49.59.48,1.19-.01.67.06,1.1.23,1.29l-.18.21c.19,1.41.28,2.27.28,2.58-.02.9-.25,1.54-.71,1.92-.17,0-.6-.15-1.31-.45-.17.16-.35.25-.54.24-.09,0-.27-.05-.52-.15-.25-.1-.46-.15-.62-.15-.12,0-.24.02-.36.07-.01-1.88.05-3.29.18-4.21-.19-.12-.38-.4-.57-.83-.2-.43-.45-.68-.76-.73-.19.24-.28.39-.26.46l-.64-.23c-.58.63-.97,1.73-1.16,3.3-.2,1.81-.44,3.01-.74,3.6.26.27.38.64.37,1.11,0,.17-.03.44-.09.82-.06.38-.08.67-.08.86,0,.21.02.4.06.57l-.44.42c.18.81.28,1.84.3,3.08-.02,1.05-.02,2.1-.02,3.14-.03,0-.23,0-.61.03-.24,0-.41.08-.51.24.14-.02.28-.03.39-.03.52,0,.93.38,1.23,1.11.3.73.55,1.1.77,1.1.24,0,.56-.22.98-.66.7-.75,1.07-1.78,1.09-3.09.01-.64-.06-1.33-.22-2.08-.17.09-.25.33-.26.71-.38,0-.62.07-.72.24-.17-.05-.24-.18-.21-.4.03-.31.04-.47.05-.5.29-.09.43-.22.43-.39,0-.07-.05-.2-.15-.4-.1-.19-.15-.35-.15-.47,0-.09.02-.19.07-.28l.17-1.39c.52.15,1.65.22,3.39.2-.05.12.02.28.21.47.17-.17.35-.25.54-.24.14,0,.36.07.64.19.28.12.49.19.6.19"></path><path d="m262.9,438.23c-.33-.15-.69-.23-1.07-.23-.33,0-.79.06-1.36.19-.64.13-1.09.21-1.33.23-.25-.51-.43-1.2-.54-2.08-.19-1.29-.31-2.02-.36-2.19.07-.14.11-.26.11-.36,0-.26-.2-.5-.61-.71-.42-.21-.62-.37-.62-.49,0-.14.24-.35.73-.63-.12-.14-.2-.44-.26-.88-.05-.44-.16-.74-.32-.88-.29.26-.76.42-1.42.49-.66.07-1.09.18-1.31.32.02,1.86-.29,3.1-.92,3.74-.33-.08-.59.05-.76.38-.25.4-.45.64-.62.7l.21.25c-.19.16-.5.23-.93.2-.67-.04-1.02-.05-1.07-.05l-.2-.65,2.33-19.3c.02-1.21.08-2.04.19-2.46-.03-1.07.22-1.74.75-1.99.33.22.75.33,1.25.34.4,0,1.04-.08,1.9-.26.86-.17,1.46-.26,1.79-.25,1.17.02,1.68.86,1.53,2.53-.12,1.33.09,3.09.63,5.27.55,2.34.82,4.1.8,5.27,0,.36.11,1.1.08,1.45-.51.28-1.15.44-1.94.5-.69.04-1.39.07-2.11.11-.18-1.81-.5-4-.69-5.79-.23-2.15-.51-3.92-.84-5.31l-1.1,10.2c-.08.88.31,1.33,1.19,1.34.29,0,.56-.06.82-.2.22-.07.51.09.89.48-.01.74.13,1.18.44,1.33.39-.26.89-.5,1.51-.73.55-.2,1.09-.4,1.62-.58.3.41.5,1.02.58,1.83.1,1.14.17,1.81.22,2,.04.45.23,1.44.56,2.94.24,1.2.36,2.16.34,2.9,0,.36-.04.69-.09,1"></path><path d="m279.36,421.2c-.03.07-.03.49-.02,1.25,0,.62-.09,1.08-.24,1.39-.18.47-.27,1.15-.28,2.03,0,.19,0,.49.02.89,0,.41-.01.7-.02.89-.03,1.5-.28,2.59-.77,3.27.04.38.06.76.05,1.15-.02,1.19-.43,2.79-1.22,4.8-.22.07-.4.1-.54.1-.29,0-.49-.17-.62-.49-.13-.33-.25-.63-.36-.92.08-1.83.04-4.5-.12-8.01l.22-.21c-.16-.62-.23-1.31-.22-2.08,0-.55.08-1.35.2-2.39.12-1.05.19-1.83.2-2.36,0-.33,0-.66-.02-.97-.82,1.96-1.4,5.29-1.74,9.98l-.3.71c-.1.24-.3.36-.61.38-.09-.17-.19-.25-.28-.25-.07,0-.2.09-.38.26-.18.17-.33.25-.45.22l-.47.42c.21.27.66.3,1.36.1.55-.16.83.05.85.62.01.48-.12,1.12-.39,1.92-.27.8-.42,1.41-.42,1.82,0,.29.03.57.09.86l-2.47.39c-.23-.48-.4-1.29-.51-2.42-.11-1.13-.28-1.94-.51-2.42.15-.16.22-.34.22-.53,0-.17-.06-.42-.2-.75-.14-.34-.22-.59-.24-.75-.02-.26-.1-.9-.25-1.9-.1-.81-.16-1.45-.15-1.9,0-.24.02-.45.05-.64,0-.17-.09-.41-.27-.74-.18-.33-.28-.56-.27-.7,0-.12.05-.22.15-.32-.16-.2-.23-.53-.2-1.01.03-.48-.03-.81-.2-1-.35.92-.54,2.17-.56,3.74-.01,2.19-.04,3.46-.06,3.79l.25.22-.25.21c.18.86.25,1.96.23,3.29-.07,2.4-.1,3.53-.09,3.36-.34.3-.81.45-1.4.44-.74-.01-1.24.05-1.5.19-.3-.53-.45-1.21-.43-2.04,0-.64.12-1.43.33-2.35-.32-.6-.48-1.44-.46-2.51,0-.26.03-.76.09-1.5.03-.59.04-1.03.03-1.32.24-.12.36-.24.36-.39,0-.1-.07-.26-.22-.49-.15-.23-.23-.4-.22-.52,0-.14.1-.29.29-.42l-.77-11.56c.46-.3,1.2-.45,2.22-.43,1.12.04,1.88-.01,2.29-.17.07-.05.16-.07.25-.07.09,0,.21.06.34.17.13.11.22.17.26.17.09,0,.18-.07.25-.21l.67.65c.22.84.43,2.46.63,4.87.2,2.08.52,3.64.96,4.7.58-2.11,1.07-3.88,1.45-5.3l.77-5.66,5.54-.12c.02.31.09,1.97.24,2.92.13.84.19,1.52.18,2.04,0,.6-.1,1.13-.28,1.6.19.27.28.6.27,1.01,0,.41-.11.74-.3,1"></path><path d="m290.72,433.73v-.04c-.15.31-.24.67-.27,1.07-.03.26-.03.63-.02,1.11.02.55.02.93.02,1.14-.19,0-.95-.02-2.29-.04-.81-.01-1.54.06-2.18.21l-.67-.73c-.2.19-.27.34-.22.46-.12-.03-.67-.04-1.64-.03-.76-.01-1.33-.09-1.71-.24-.39.4-.84.39-1.36-.02-.19-.15-.21-.39-.06-.74.15-.34.1-.6-.13-.77.04-.76.14-1.94.31-3.54.17-1.43.26-2.54.27-3.36.02-1.09-.06-2.14-.23-3.15.27-.26.57-.38.9-.38.38,0,.83.19,1.35.56.73.51,1.11.77,1.13.77l.21.25c.02-.07.15-.45.38-1.14.13-.45.31-.75.55-.89l.21.22c.1-.05.41-.27.94-.66.41-.28.74-.94.98-.94.26,0,.51.15.74.44.4.22.65,1.08.78,1.52.12.44.24.88.35,1.31-1.07.03-1.95,0-2.64-.08-.17.26-.41.3-.72.11-.31-.18-.53-.16-.68.08,0,.43-.02,1.2-.04,2.32-.04,1-.06,1.79-.04,2.36,0,.88.07,1.69.17,2.43.19,0,1.09.02,2.71.05,1.12.02,2.08.12,2.89.3m.08-17.12c-.21.02-.45.03-.71.02-.55,0-1.27-.09-2.17-.25-1.12-.16-1.8-.26-2.03-.28-.34.49-.52,1.2-.54,2.1-.03,1.95-.03,2.8,0,2.54.33.2.49.56.48,1.08-.04.71-.04,1.08-.02,1.11-.17.07-.25.31-.26.71-.26-.1-.53-.3-.81-.59-.38-.36-.58.87-.55.56l-.23.73-.21-.22c-.19.02-.52-.08-.98-.3-.46-.22-.79-.43-.97-.63,0-.38.07-.59.19-.64l-.46-.51-.22.32c-.27-2.48-.2-7.13.13-9.74.91.16,1.9.26,3,.3.74.04,1.77.05,3.11.05,1.53,0,2.62,0,3.29.02.28.27.42.62.41,1.04,0,.26-.08.68-.22,1.27-.14.58-.21,1.01-.22,1.3"></path><path d="m250.64,455.34v-.02s-.06.53-.19,1.57c-.06.64-.21,1.14-.46,1.51l-.16-.13c-.29.61-.68.97-1.18,1.11-.24.25-.58.39-1.03.42-.27.02-.88-.06-1.85-.23-.47-.29-.72-.45-.77-.48-.29-.22-.43-.44-.42-.67-.28-.29-.68-.81-.83-1.46-.18-.72-.29-.76-.46-1.01-.27.2-.37-.22-.52-.48l.14-.11c-.09-.06-.13-.13-.14-.21,0-.06.02-.14.07-.25.05-.11.07-.19.07-.25,0-.09-.06-.17-.16-.23.11-.56.21-1.41.3-2.53.19-.1.28-.3.27-.6,0-.29.03-.49.12-.58.46-.91,1.19-1.53,2.22-1.85.06,0,.33,0,.82-.01.34,0,.59.02.76.09.31-.05.61.02.92.22.27.2.53.4.8.6.5.54.76,1.15.8,1.83.01.23,0,.46-.04.72-.37-.01-.63.23-.78.73l-1.43.13c-.15-.22-.24-.51-.26-.87,0-.12,0-.3,0-.54,0-.24,0-.42,0-.54-.02-.37-.11-.67-.26-.88l-.43.24c-.17-.07-.26-.17-.27-.31,0-.04,0-.11.02-.2.02-.09.02-.15.02-.18,0-.15-.14-.24-.4-.27-.17,1.61-.23,3.26-.16,4.96.04.06.18.09.41.11.18.02.28.08.28.17,0,.03,0,.08-.03.14l-.14.11c.08.12.12.29.14.5,0,.11,0,.29-.01.52-.01.23-.02.41-.01.52.02.34.1.6.26.77-.02.25.09.42.3.51.14-.05.26-.08.38-.09.43-.02.74.21.91.71,0,0,0,.09,0,.25,0,.09.05.15.14.18.19-.11.28-.32.28-.61,0-.34.04-.56.13-.65-.02-.16-.12-.38-.28-.68-.17-.3-.25-.53-.26-.7,0-.18.04-.35.16-.52-.1-.03-.15-.09-.14-.2,0-.16,0-.25,0-.26.78-.19,1.56-.2,2.37-.02"></path><path d="m257.11,456.66h-.02c-.08.16-.11.4-.08.7.04.43.06.65.06.66-.07.03-.15,0-.26-.1-.17.06-.24.17-.24.31,0,.02.01.06.03.11,0,.06,0,.1,0,.12,0,.12-.03.2-.1.26-.19-.11-.44-.17-.75-.2-.31-.03-.6-.06-.88-.08,0-1.43-.2-2.84-.58-4.21,0,.01,0-.13-.03-.43,0-.21-.05-.36-.14-.45l-.13.12s.04-.06.13-.13c.09-.06.13-.13.13-.19,0-.03-.01-.06-.03-.09l-.14-.1c-.24.08-.36.27-.34.59.01.21-.07.36-.25.44.07.05.1.11.11.18,0,.04,0,.1-.02.17-.01.08-.02.13-.02.18,0,.09.06.17.15.23,0,.06.04.63.1,1.7.04.68.02,1.26-.05,1.74v.27c-.08,0-.18,0-.3,0-.13,0-.32.03-.57.06-.25.03-.43.05-.55.05-.48.03-.82-.05-1.02-.24l-.2-5.89c-.1-.29-.16-.69-.19-1.21l-.06-1.13c-.05-.56-.12-.99-.21-1.28.04-.2.22-.31.53-.33.2-.01.46.01.79.08.15-.07.37-.12.64-.13.08,0,.2,0,.37,0,.18-.01.32-.02.39-.02.51-.03.85-.19,1.02-.47.24,0,.49.07.77.23.28.15.52.23.73.24.55.33.85.87.9,1.62,0,.17-.06.84-.2,2l-.95.83c.16.3.36.94.59,1.94.19.83.48,1.44.87,1.83m-1.76-6.7h.02c.02.09,0-.17-.02-.76-.02-.28-.12-.49-.31-.61-.11.15.01.23-.04.58-.05.36-.26.25-.39.41-.33,0-.4.19-.47-.12-.15-.51-.27-.46-.27-.47l-.14.08c-.05.05-.11.1-.17.15-.06.06-.13.08-.19.06,0,.06-.03.16-.09.3-.07.14-.1.23-.09.28,0,.1.08.16.23.21-.03.21-.03.43-.02.67,0,.13.04.42.09.86.06.36.08.66.07.91.12,0,.23,0,.34,0,.46-.03.75-.21.89-.54.05-.1.1-.45.16-1.05.05-.46.19-.78.42-.96"></path><path d="m264.53,458.95c-.19-.05-.38-.07-.59-.06-.18.01-.43.06-.74.14-.35.08-.59.13-.72.15-.16-.21-.28-.51-.37-.9-.15-.56-.24-.88-.27-.95.03-.06.05-.12.05-.16,0-.11-.13-.21-.36-.29-.23-.08-.35-.14-.35-.19,0-.06.12-.16.37-.31-.07-.06-.13-.18-.17-.38-.05-.19-.11-.32-.21-.38-.15.13-.4.22-.76.27-.36.06-.59.12-.71.19.08.82,0,2.25-.32,2.56-.19-.02-.32.04-.4.2-.12.19-.23.3-.31.34l.12.1c-.1.08-.27.12-.5.12-.37.01-.56.02-.59.02l-.13-.28.55-9.47c-.03-.54-.02-.9.02-1.09-.06-.47.06-.77.34-.91.19.09.42.12.69.1.22-.02.57-.07,1.03-.19.46-.11.79-.17.97-.18.64-.04.95.31.93,1.05-.02.59.16,1.36.53,2.3.38,1.01.59,1.77.62,2.29,0,.16.22.49.21.65-.27.14-.62.24-1.04.3-.38.04-.76.09-1.15.13-.16-.79-.54-1.76-.7-2.54-.2-.94-.41-1.7-.64-2.3l-.25,4.54c-.02.39.22.57.7.54.16,0,.31-.05.45-.12.12-.04.28.02.5.18.02.33.11.52.29.57.2-.13.47-.25.8-.38.29-.11.58-.22.87-.32.18.17.31.43.38.79.09.5.16.79.19.87.04.2.17.62.41,1.27.18.52.27.94.29,1.26,0,.16,0,.31-.01.44"></path><path d="m269.93,448.21h.02c-.16.23-.36.27-.6.13-.05,0-.29,0-.7.04-.35.02-.61,0-.77-.05-.04,0-.12.04-.23.12-.11.08-.2.11-.25.12-.08,0-.12-.06-.13-.2,0-.02,0-.11-.01-.27,0-.11-.06-.18-.15-.21l-.24.19c-.08.06-.11.12-.11.18,0,.05.05.13.13.22.08.1.13.17.15.21,0,.03.03.51.08,1.42.02.58.13,1.04.32,1.39.05-.06.17-.08.36-.09.19,0,.31-.05.37-.13.12.11.33.12.62.02.29-.09.5-.06.63.1l-.04,1.39c-.12-.01-.29-.07-.52-.17-.07.2-.2.33-.39.39-.08.03-.3.05-.67.07,0-.06-.05-.13-.17-.2-.36.17-.49.57-.4,1.21,0-.06.02.05.04.33.01.18-.03.31-.11.39-.22.03-.5-.02-.85-.15-.34-.13-.58-.2-.73-.19-.07,0-.12.01-.17.03l-.37.12-.59-6.37-.07-1.21c.49-.17,1.09-.27,1.81-.31.56-.03,1.3-.03,2.2.02.06-.12.17.04.29.03.07,0,.17,0,.3.02.13.02.23.03.3.02.08,0,.15-.02.21-.04l.09-.1c.27.08.41.22.42.42,0,.08-.02.23-.07.43-.05.2-.08.36-.07.46,0,.09.03.18.07.25m-2.29,10.63c-.14.07-.36.11-.64.13-.38.02-.61.04-.68.06-.04-.04-.09,0-.18-.34-.05-.22-.19-.32-.41-.31-.05,0-.12.01-.2.03l-.35.02-.19-3.23c.19-.1.43-.15.72-.17.27-.01.52.01.73.08,0,.12.16.17.5.14l.37-.02c.22.9.36,2.54.33,3.6"></path><path d="m277.77,448.49h.02c-.18,0-.77.04-1.23.1-.39.04-.68.05-.88.02-.19.13-.26.3-.2.52l.12.07c-.1.09-.14.16-.11.21l.1.1c-.02,1.87-.03,2.9-.02,3.1.03.49.09.93.17,1.3-.08.24-.11.51-.09.81.01.2.06.52.14.95.08.43.2,1.86.21,2.08,0,.17,0,.33-.01.48-.18.07-.37.12-.58.13-.35.02-.73-.05-1.13-.22-.05.05-.11.09-.17.14-.06.05-.08.11-.05.17-.13.04-.31-.01-.54-.16-.12-1.89-.46-5.75-.96-9.64-.17.16-.5.03-.84.07-.4.05-.8-.02-.95.05-.19-.21-.15-.27-.17-.62-.02-.34-.13-1.17-.04-1.51.02-.07.75-.03,1.18-.07.59-.04.72.1.76.1.05-.08.33-.04.54-.05.13.07.28-.06.29.03,0,.06,0,.46-.04.57-.05.11-.07.2-.07.25,0,.13.1-.06.31.01.24,0,.48-.01.72-.03.28.02.6-.08.57.16.05-.07.08.05.47-.11.29-.13.47-.48.42-.72-.03-.13.15-.21.04-.15.14-.08.01-.02.17-.08.49.04.76,0,.85-.01.2-.01.68.11.82.05.1.18.15.76.16,1.07.02.51.02.77.03.81"></path><path d="m284.11,455.07v-.02c-.07.14-.11.3-.11.48,0,.12,0,.28.03.49.03.24.04.41.05.5-.11,0-.52.03-1.25.07-.44.03-.84.09-1.19.18l-.39-.3c-.1.09-.14.16-.11.21-.06,0-.36,0-.9.05-.42.03-.73,0-.95-.04-.2.19-.45.2-.74.04-.11-.06-.13-.16-.06-.32.07-.16.04-.27-.1-.34,0-.34,0-.86.05-1.57.04-.63.05-1.13.03-1.49-.03-.48-.11-.94-.24-1.38.14-.12.3-.19.48-.2.21-.01.46.05.76.19.42.2.63.3.64.3l.12.1s.07-.2.17-.52c.05-.2.14-.34.27-.41l.12.09c.05-.02.22-.13.49-.33.21-.14.36-.65.49-.66.14,0,.29.05.42.16.23.08.41.66.49.85.08.19.16.38.24.56-.59.06-1.07.08-1.45.07-.08.12-.22.15-.39.08-.17-.07-.3-.05-.37.06.01.19.03.53.06,1.02.01.44.03.79.06,1.04.04.39.1.74.18,1.07.11,0,.6-.04,1.49-.09.61-.03,1.15-.03,1.59.02m-.61-7.42c-.12.02-.25.03-.39.04-.3.02-.7,0-1.2-.03-.62-.03-.99-.04-1.12-.05-.17.23-.19.42-.17.82.05.86.08,1.23.08,1.12.19.08.29.23.3.46,0,.31.01.48.03.49-.09.04-.13.15-.12.32-.15-.03-.3-.11-.47-.23-.22-.14-.29.37-.28.23l-.1.32-.12-.09c-.1.02-.28-.01-.55-.09-.26-.08-.45-.16-.55-.24,0-.17.02-.26.08-.29l-.27-.21-.11.15c-.23-1.08-.39-2.99-.3-4.16.5.03,1.08-.05,1.68-.08.41-.01.97-.05,1.7-.1.83-.06,1.43-.1,1.8-.12.16.11.25.25.26.44,0,.12-.02.31-.07.57-.06.26-.13.58-.12.71"></path><path d="m290.63,453.95h-.02c-.08.16-.11.4-.08.7.04.43.06.65.06.66-.06.02-.15,0-.26-.1-.17.06-.25.17-.24.31,0,.02.01.06.03.11,0,.06,0,.1,0,.12,0,.12-.03.2-.1.26-.19-.11-.44-.17-.75-.2-.31-.03-.6-.06-.88-.09,0-1.43-.2-2.83-.58-4.2,0,0,0-.13-.02-.43,0-.21-.05-.36-.14-.45l-.13.12s.04-.06.13-.13c.09-.06.13-.13.13-.19,0-.03-.01-.06-.02-.09l-.14-.1c-.25.08-.36.28-.34.59.01.21-.07.36-.25.44.07.05.1.11.11.18,0,.04,0,.1-.02.17-.02.07-.02.13-.02.17,0,.1.06.17.15.23,0,.06.04.63.1,1.7.04.68.02,1.27-.06,1.74v.27c-.08,0-.18,0-.3,0-.13,0-.32.03-.57.06-.25.03-.43.05-.55.06-.48.03-.82-.05-1.02-.24l-.2-5.89c-.1-.29-.16-.69-.19-1.21l-.07-1.14c-.05-.56-.12-.98-.21-1.28.04-.2.22-.31.53-.33.2-.01.46.02.79.08.15-.07.36-.12.64-.13.08,0,.2,0,.37,0,.18-.01.31-.02.39-.02.51-.03.85-.19,1.01-.47.24,0,.49.07.77.22.28.15.52.23.73.24.55.33.85.87.9,1.63.01.17-.06.84-.2,2l-.95.83c.16.3.36.94.59,1.94.19.83.48,1.44.87,1.83m-1.77-6.7h.02c.02.09,0-.17-.02-.76-.02-.28-.12-.49-.31-.61-.11.15-.13-.2-.18.15-.05.36-.14.61-.26.77-.33,0-.4-.2-.6-.47-.12-.17-.18-.02-.18-.03l-.09.07s-.11.1-.17.15c-.06.06-.13.08-.19.06,0,.06-.03.16-.09.3-.06.14-.09.23-.09.28,0,.09.08.17.23.21-.03.21-.03.43-.02.67,0,.13.04.41.09.86.06.36.08.66.07.91.12,0,.23,0,.33,0,.46-.03.75-.21.89-.54.05-.1.1-.45.15-1.05.05-.46.19-.78.42-.96"></path><path d="m225.68,426.79h0c-.06.56-.08.94-.06,1.15-.08.03-.19.04-.33.01-.17-.03-.27-.04-.3-.04-.08,0-.14.03-.18.08-.11-.07-.18-.1-.22-.09-.1.06-.15.15-.15.26,0,.05.02.13.06.25.03.12.05.21.05.26,0,.08,0,.2-.04.36-.03.16-.05.3-.05.4,0,.12.03.32.08.58.05.26.07.46.08.6-.05.26-.07.52-.06.79.01.32.1.76.27,1.3.03,0,.06.01.09,0,.07,0,.14-.05.24-.14.09-.09.17-.14.24-.14.05,0,.1,0,.16.03.17.55.26.91.27,1.07,0,.08,0,.16,0,.24-.25.06-.44-.02-.54-.26.02-.07-.02-.14-.11-.21l-.29.3c.28.05.39.26.33.64-.02.08-.08.12-.18.12-.16,0-.24,0-.23,0l-.24-.42-.09.12c-.08-.19-.17-.29-.27-.29-.06,0-.16.05-.3.14-.14.09-.26.14-.36.15-.08,0-.15-.01-.23-.06,0-.11-.02-.23-.04-.35-.02-.12-.08-.2-.19-.23,0-.3,0-1.07.03-2.33,0-.95,0-1.73-.03-2.32-.01-.25-.03-.49-.05-.73-.05-.07-.1-.11-.15-.11-.04,0-.09.04-.17.12-.08.08-.14.12-.2.11,0-.1-.05-.25-.13-.46-.08-.21-.13-.36-.13-.46,0-.16.05-.3.18-.42l.33.08c.13-.19.19-.51.17-.95,0-.08-.02-.22-.03-.41-.02-.18-.03-.32-.03-.41-.04-.73.19-1.11.67-1.13.18-.01.4.02.66.1l.32.08c.03.12.04.25.05.38,0,.18,0,.45-.03.8-.02.35-.03.6-.03.76.01.26.06.49.13.69.08,0,.2-.04.36-.12.16-.08.28-.12.36-.13.13,0,.24.06.32.18m-.99,1.02l-.02-.33-.1-.1.12.42Z"></path><path d="m229.61,425.77h.01c-.03.26-.07.52-.12.78-.05.3-.14.53-.25.7-.02,0-.14-.06-.35-.17-.15-.08-.28-.11-.39-.1-.09.56-.13,1.32-.14,2.28,0,1.23-.02,1.97-.03,2.23-.14-.01-.25.03-.32.14-.07.1-.14.21-.2.32-.03.06-.04.11-.03.16,0,.08.07.15.2.22.13.07.19.15.2.23-.06.2-.17.31-.35.32-.08,0-.23-.02-.45-.08-.21-.06-.36-.08-.45-.08l-.2-4.08c.08-.11.11-.18.1-.22l-.12-.08c0-.17.02-1.02.03-2.56,0-1.04.04-1.88.12-2.52,0,0,.28-.02.88-.06.37-.02.61.08.71.31,0,.21-.02.56-.06,1.06-.04.46-.06.82-.05,1.06.02.3.06.58.14.82.32-.44.7-.67,1.12-.69m1.42.87c.03.38.05.75.07,1.11.08,1.58.05,3.27-.07,5.07-.14.12-.35.15-.63.08-.28-.07-.49-.04-.62.08-.16-.21-.26-.59-.29-1.14-.04-.8-.06-1.21-.06-1.24-.03-2,.16-3.62.59-4.85.49.13.83.43,1.02.89"></path><path d="m236.03,428.71c-.06.13-.09.26-.08.4,0,.14.01.28.02.42-.01.11-.05.23-.1.35-.09-.02-.16-.04-.22-.03-.07,0-.14.03-.2.08-.07.05-.12.07-.16.07-.06,0-.13-.02-.23-.06l-.66-.97c.02.29.09.53.2.75.05.11.11.22.16.34-.39.07-.61.08-.66.03l-.09.12-.23-.3c-.18.22-.22.54-.12.97.12.46.13.79.02,1,.14.21.32.31.52.3.09,0,.16-.04.22-.1.09-.24.19-.47.28-.7.14-.28.29-.43.46-.44.13,0,.29.06.47.21.21.08.32.18.33.3,0,.08-.05.2-.15.37-.1.17-.15.31-.14.4,0,.04,0,.07.02.1-.14.1-.26.26-.37.46-.11.2-.25.35-.43.42-.15.15-.3.23-.43.24-.1,0-.26-.08-.47-.24-.21-.16-.4-.24-.58-.23-.08-.17-.26-.35-.56-.56-.3-.2-.48-.42-.55-.66,0,.02,0-.06-.01-.23,0-.09-.05-.15-.12-.18l.11-.11c-.14,0-.22-.08-.23-.25,0-.02,0-.06,0-.11,0-.05,0-.09,0-.11,0-.11-.04-.19-.11-.24l-.03-.5c-.01-.26-.07-.44-.16-.55.09-.6.19-1.21.28-1.81.16-.71.39-1.07.69-1.08.05,0,.09,0,.14.02.27-.27.6-.42.99-.44.43-.02.9.11,1.42.39.41.67.66,1.39.76,2.18m-1.97-1.58l-.09.12c-.07.01-.15-.02-.24-.1l.02.33c-.15.16-.2.41-.18.74.03.57.04.85.04.83h.43c.2-.12.3-.31.28-.58,0-.13-.05-.35-.14-.66-.09-.31-.13-.53-.12-.68"></path><polygon class="cls-42" points="239.38 443.11 239.81 443.35 241.25 439.57 240.77 439.41 239.33 443.19 239.75 443.46 239.38 443.11"></polygon><polygon class="cls-42" points="240.01 442.58 239.84 442.65 239.38 443.11 239.75 443.46 240.21 442.98 240.03 443.07 240.01 442.58"></polygon><polygon class="cls-42" points="243.5 442.55 243.71 442.39 240.01 442.58 240.03 443.07 243.72 442.88 243.96 442.71 243.5 442.55"></polygon><polygon class="cls-42" points="245.17 439.07 244.92 438.76 243.5 442.55 243.96 442.71 245.4 438.92 245.15 438.61 245.17 439.07"></polygon><polygon class="cls-42" points="241.65 439.19 241.47 439.28 245.17 439.07 245.15 438.61 241.46 438.78 241.28 438.87 241.65 439.19"></polygon><polygon class="cls-42" points="241.25 439.57 241.2 439.65 241.65 439.19 241.28 438.87 240.82 439.32 240.77 439.41 241.25 439.57"></polygon><polygon class="cls-42" points="244.32 443 244.64 442.86 243.85 442.42 243.6 442.87 244.42 443.32 244.77 443.16 244.29 443 244.32 443"></polygon><polygon class="cls-42" points="245.86 439.51 245.73 439.21 244.29 443 244.77 443.16 246.21 439.37 246.08 439.07 245.86 439.51"></polygon><polygon class="cls-42" points="245.4 438.92 245.04 439.08 245.86 439.51 246.08 439.07 245.29 438.63 244.92 438.76 245.4 438.92"></polygon><polygon points="241.02 439.49 241 439.48 241.45 439.03 244.88 438.86 244.92 438.76 245.17 438.85 245.4 438.92 245.38 438.96 245.99 439.3 246.21 439.37 246.12 439.62 247.8 443.61 246.38 447.4 244.55 443.08 244.31 443.18 244.29 443 244.31 442.95 243.73 442.63 243.6 442.87 243.53 442.64 240.01 442.81 239.56 443.27 241.02 439.49"></polygon><polygon class="cls-42" points="246.15 447.32 246.61 447.3 244.78 442.98 244.31 443.18 246.14 447.5 246.61 447.48 246.13 447.31 246.15 447.32"></polygon><polygon class="cls-42" points="247.58 443.71 247.57 443.53 246.13 447.32 246.61 447.48 248.05 443.69 248.03 443.51 247.58 443.71"></polygon><polygon class="cls-42" points="246.21 439.37 245.75 439.39 247.59 443.71 248.03 443.51 246.2 439.19 245.73 439.21 246.21 439.37"></polygon><polygon class="cls-19" points="246.09 440.35 246.3 440.8 246.37 441.25 246.35 441.7 246.22 442.17 245.99 442.62 245.68 443.03 245.28 443.4 244.79 443.72 244.52 443.84 244.25 443.95 243.96 444 243.69 444.06 243.42 444.1 243.13 444.13 242.86 444.09 242.59 444.08 242.35 444.02 242.1 443.94 241.86 443.83 241.64 443.71 241.46 443.57 241.26 443.43 241.09 443.25 240.95 443.05 240.74 442.6 240.67 442.14 240.67 441.68 240.82 441.23 241.02 440.79 241.34 440.36 241.74 439.99 242.25 439.67 242.5 439.55 242.79 439.45 243.06 439.38 243.33 439.32 243.62 439.29 243.89 439.26 244.16 439.29 244.43 439.31 244.68 439.39 244.94 439.48 245.16 439.55 245.4 439.68 245.59 439.8 245.79 439.97 245.93 440.16 246.09 440.35"></polygon><polygon class="cls-42" points="246.27 441.09 246.48 441.54 246.55 442.02 246.53 442.47 246.4 442.91 246.2 443.38 245.86 443.8 245.48 444.15 244.97 444.47 244.7 444.6 244.43 444.72 244.16 444.78 243.86 444.83 243.59 444.87 243.34 444.88 243.06 444.87 242.77 444.82 242.53 444.77 242.28 444.69 242.06 444.59 241.83 444.46 241.63 444.34 241.46 444.18 241.28 444.02 241.13 443.79 240.92 443.37 240.84 442.91 240.87 442.44 241 442 241.2 441.53 241.51 441.13 241.92 440.75 242.43 440.44 242.7 440.31 242.96 440.21 243.24 440.13 243.54 440.08 243.8 440.06 244.07 440.02 244.33 440.06 244.61 440.08 244.87 440.14 245.12 440.22 245.34 440.32 245.58 440.43 245.76 440.57 245.97 440.71 246.11 440.91 246.27 441.11 246.27 441.09"></polygon><polygon class="cls-19" points="246.4 441.62 246.62 442.05 246.69 442.53 246.66 442.97 246.54 443.42 246.31 443.87 245.99 444.3 245.62 444.66 245.11 444.97 244.86 445.11 244.57 445.22 244.29 445.28 244 445.33 243.73 445.37 243.47 445.39 243.2 445.37 242.91 445.33 242.67 445.27 242.42 445.19 242.2 445.09 241.96 444.96 241.77 444.85 241.57 444.68 241.43 444.5 241.27 444.3 241.06 443.87 240.98 443.41 241 442.96 241.13 442.5 241.34 442.04 241.66 441.61 242.08 441.27 242.57 440.95 242.84 440.81 243.11 440.69 243.38 440.63 243.68 440.58 243.94 440.54 244.2 440.53 244.5 440.55 244.74 440.58 245 440.64 245.25 440.73 245.5 440.83 245.71 440.96 245.9 441.07 246.11 441.21 246.24 441.41 246.4 441.62"></polygon><polygon class="cls-42" points="246.59 442.36 246.79 442.81 246.87 443.27 246.87 443.73 246.72 444.18 246.52 444.63 246.17 445.05 245.79 445.43 245.28 445.74 245.04 445.86 244.75 445.97 244.48 446.03 244.2 446.09 243.91 446.12 243.65 446.16 243.38 446.12 243.11 446.1 242.85 446.04 242.59 445.96 242.37 445.86 242.14 445.73 241.95 445.59 241.77 445.46 241.61 445.27 241.44 445.07 241.26 444.63 241.16 444.16 241.19 443.71 241.32 443.25 241.54 442.81 241.86 442.39 242.26 442.01 242.75 441.69 243.01 441.58 243.28 441.46 243.58 441.41 243.85 441.35 244.12 441.31 244.4 441.31 244.67 441.32 244.93 441.33 245.18 441.39 245.43 441.47 245.68 441.58 245.89 441.7 246.1 441.85 246.28 441.98 246.45 442.17 246.58 442.39 246.59 442.36"></polygon><polygon class="cls-19" points="246.85 442.86 247.07 443.29 247.14 443.74 247.13 444.22 247.01 444.67 246.78 445.12 246.44 445.54 246.07 445.9 245.58 446.22 245.31 446.36 245.02 446.46 244.74 446.52 244.47 446.58 244.18 446.61 243.92 446.63 243.65 446.61 243.38 446.58 243.12 446.52 242.87 446.43 242.65 446.33 242.43 446.23 242.22 446.09 242.05 445.93 241.88 445.74 241.74 445.55 241.53 445.12 241.44 444.63 241.46 444.18 241.61 443.75 241.81 443.28 242.13 442.86 242.53 442.51 243.01 442.19 243.29 442.05 243.56 441.94 243.84 441.91 244.13 441.82 244.39 441.78 244.67 441.78 244.95 441.79 245.19 441.82 245.45 441.88 245.73 441.98 245.95 442.08 246.17 442.17 246.37 442.32 246.55 442.48 246.72 442.66 246.85 442.86"></polygon><polygon class="cls-42" points="247.06 443.61 247.24 444.05 247.34 444.52 247.32 444.97 247.19 445.43 246.97 445.87 246.65 446.3 246.24 446.67 245.76 446.99 245.49 447.1 245.2 447.21 244.92 447.27 244.65 447.33 244.38 447.37 244.1 447.4 243.83 447.36 243.56 447.34 243.32 447.29 243.04 447.2 242.82 447.1 242.61 446.98 242.4 446.83 242.22 446.7 242.05 446.51 241.92 446.32 241.71 445.87 241.61 445.4 241.63 444.95 241.79 444.5 241.99 444.05 242.31 443.63 242.71 443.25 243.22 442.94 243.46 442.82 243.75 442.71 244.03 442.65 244.3 442.59 244.59 442.56 244.86 442.53 245.13 442.56 245.37 442.57 245.66 442.64 245.91 442.72 246.13 442.82 246.34 442.94 246.55 443.09 246.73 443.23 246.9 443.41 247.06 443.61"></polygon><polygon class="cls-42" points="221.88 437.8 221.9 437.66 220.45 441.46 220.91 441.62 222.36 437.81 222.36 437.71 221.88 437.8"></polygon><polygon class="cls-42" points="221.84 437.61 221.85 437.59 221.88 437.8 222.36 437.71 222.31 437.49 222.32 437.46 221.84 437.61"></polygon><rect x="221.8" y="437.33" width=".5" height=".2" transform="translate(-95.03 63.12) rotate(-13.35)"></rect><rect x="221.75" y="437.11" width=".5" height=".21" transform="translate(-120.75 86.55) rotate(-17.43)"></rect><polygon class="cls-42" points="221.67 436.97 221.73 437.19 222.21 437.05 222.15 436.82 222.14 436.85 221.67 436.97"></polygon><polygon class="cls-42" points="221.61 436.69 221.61 436.77 221.67 436.97 222.14 436.85 222.09 436.65 222.11 436.73 221.61 436.69"></polygon><polygon class="cls-42" points="222.1 436.6 221.62 436.52 221.61 436.7 222.11 436.74 222.11 436.56 221.64 436.47 222.09 436.63 222.1 436.6"></polygon><rect class="cls-23" x="221.98" y="447.48" width=".52" height=".26" transform="translate(-76 46.61) rotate(-10.24)"></rect><polygon class="cls-42" points="223.58 444.51 223.59 444.39 222.15 448.18 222.61 448.33 224.05 444.54 224.04 444.41 223.58 444.51"></polygon><polygon class="cls-42" points="223.54 444.25 223.58 444.51 224.04 444.41 224 444.15 223.52 444.24 223.54 444.25"></polygon><rect x="223.49" y="443.95" width=".5" height=".25" transform="translate(-78.15 48.95) rotate(-10.64)"></rect><polygon class="cls-42" points="223.41 443.72 223.42 443.75 223.47 443.99 223.93 443.89 223.89 443.63 223.91 443.66 223.41 443.72"></polygon><polygon class="cls-42" points="223.86 443.49 223.38 443.43 223.41 443.72 223.91 443.66 223.87 443.39 223.38 443.33 223.86 443.49"></polygon><path class="cls-23" d="m220.46,440.71l-.23.07.23-.07Z"></path><polygon class="cls-23" points="220.7 441.5 220.7 441.48 220.82 441.49 220.91 441.62 220.7 441.55 220.7 441.5"></polygon><polygon points="220.17 440.56 220.42 440.51 220.42 440.34 221.87 436.53 221.86 436.55 221.86 436.7 221.9 436.89 221.98 437.12 222.04 437.32 222.09 437.54 222.13 437.73 222.36 437.81 220.91 441.62 220.82 441.49 220.7 441.48 220.7 441.5 220.7 441.55 220.91 441.62 220.7 441.6 220.7 441.78 220.56 441.59 220.44 441.58 220.41 441.37 220.49 441.35 220.59 441.11 220.35 441.17 220.28 441 220.22 440.78 220.46 440.71 220.22 440.78 220.23 440.76 220.17 440.56"></polygon><polygon points="220.69 441.29 231.29 440.94 231.57 440.96 231.61 440.97 231.87 441.04 231.89 441.04 232.17 441.13 232.43 441.25 232.46 441.25 232.71 441.41 232.75 441.43 232.95 441.6 233.01 441.64 233.16 441.82 233.17 441.85 233.27 442.01 233.28 442.06 232.81 442.2 232.74 442.08 232.73 442.11 232.61 441.94 232.61 441.94 232.45 441.81 232.49 441.85 232.23 441.71 232.23 441.71 231.96 441.6 231.73 441.52 231.48 441.46 231.52 441.48 231.28 441.44 231.28 441.42 220.7 441.78 220.69 441.29"></polygon><polygon points="232.8 442.21 232.81 442.2 232.84 442.25 232.8 442.21"></polygon><polygon class="cls-42" points="238.47 451.11 238.47 450.95 237.02 454.76 237.5 454.92 238.95 451.12 238.95 450.96 238.47 451.11"></polygon><polygon class="cls-42" points="234.28 438.46 234.25 438.4 238.47 451.11 238.95 450.96 234.73 438.26 234.72 438.2 234.28 438.46"></polygon><polygon class="cls-42" points="234.19 438.33 234.18 438.3 234.28 438.46 234.72 438.2 234.62 438.04 234.6 438.03 234.17 438.32 234.19 438.33"></polygon><polygon class="cls-42" points="234.1 438.17 234.06 438.13 234.17 438.32 234.6 438.03 234.44 437.83 234.4 437.79 234.1 438.17"></polygon><polygon class="cls-42" points="233.93 438.06 233.89 438.03 234.1 438.17 234.4 437.79 234.19 437.65 234.16 437.61 233.93 438.06"></polygon><polygon class="cls-42" points="233.7 437.91 233.68 437.9 233.93 438.06 234.16 437.61 233.9 437.47 233.88 437.46 233.7 437.91"></polygon><polygon class="cls-42" points="233.46 437.81 233.4 437.81 233.7 437.91 233.88 437.46 233.61 437.35 233.59 437.34 233.43 437.82 233.46 437.81"></polygon><polygon class="cls-42" points="233.18 437.71 233.15 437.73 233.43 437.82 233.59 437.34 233.31 437.25 233.17 437.74 233.18 437.71"></polygon><polygon class="cls-42" points="232.97 437.67 232.92 437.65 233.17 437.74 233.31 437.25 233.03 437.18 233.01 437.17 232.97 437.67"></polygon><polygon class="cls-42" points="232.72 437.64 232.72 437.66 232.97 437.67 233.01 437.17 232.74 437.13 232.71 437.15 232.72 437.64"></polygon><polygon class="cls-42" points="222.38 437.82 222.12 437.98 232.72 437.64 232.71 437.15 222.13 437.5 221.9 437.66 222.36 437.81 222.38 437.82"></polygon><polygon class="cls-23" points="225.04 449.39 225.01 449.38 225.03 449.36 225.04 449.39"></polygon><path class="cls-23" d="m230.77,451.11l-.04.51.04-.51Z"></path><path d="m222,447.8l.05.24.09.26.11.19.65.34.65.34.62.33.63.31h.02s.64.3.64.3l.64.29.69.28.7.26h.02s.75.21.75.21l.75.2h.02s.82.13.82.13l.85.13h.02s.92.06.92.06l.03-.02.98.02,1.05-.03,1.11-.06.23-.15,1.44-3.79-.24-.34v.49s-.06-.09-.06-.09l.06-.14h-.16s-.07-.08-.07-.08l-.03.09-.83.05h-1.07l-.98-.02-.9-.05-.88-.11-.82-.14-.75-.2-.75-.2-.7-.26-.68-.25-.64-.29-.63-.31-.65-.32-.62-.34-.62-.34-.43-.23v-.04s-.22-.08-.22-.08l-.06-.27-.04-.25-.02-.08.17-.37-.24-.08h-.01s-.23-.08-.23-.08l-1.44,3.79v.12s.02.27.02.27l.03.29Zm.18-.6v.05s-.01-.01-.01-.01v-.04Z"></path><rect x="235.14" y="447.35" width="1.13" height=".49" transform="translate(-24.67 13.89) rotate(-3.21)"></rect><rect x="234.1" y="447.39" width="1.05" height=".49" transform="translate(-11.72 6.34) rotate(-1.51)"></rect><polygon class="cls-42" points="233.1 447.87 233.12 447.88 234.1 447.9 234.09 447.41 233.1 447.39 233.14 447.37 233.09 447.89 233.1 447.87"></polygon><polygon class="cls-42" points="232.15 447.81 232.17 447.81 233.09 447.89 233.14 447.37 232.21 447.32 232.24 447.33 232.15 447.81"></polygon><rect x="231.52" y="447.07" width=".49" height=".88" transform="translate(-241.06 621.91) rotate(-82.87)"></rect><polygon class="cls-42" points="230.46 447.55 230.48 447.55 231.3 447.7 231.39 447.2 230.54 447.07 230.57 447.07 230.46 447.55"></polygon><polygon class="cls-42" points="229.71 447.35 230.46 447.55 230.57 447.07 229.82 446.88 229.71 447.37 229.71 447.35"></polygon><polygon class="cls-42" points="228.94 447.16 228.96 447.17 229.71 447.37 229.82 446.88 229.07 446.68 229.1 446.68 228.94 447.16"></polygon><polygon class="cls-42" points="228.24 446.91 228.94 447.16 229.1 446.68 228.4 446.42 228.42 446.43 228.21 446.9 228.24 446.91"></polygon><rect x="227.73" y="446.16" width=".51" height=".74" transform="translate(-271.7 487.54) rotate(-67.64)"></rect><rect x="227.07" y="445.9" width=".51" height=".7" transform="translate(-272.96 469.25) rotate(-65.64)"></rect><polygon class="cls-42" points="226.25 446.01 226.26 446.05 226.9 446.33 227.1 445.89 226.45 445.57 226.47 445.58 226.24 446.04 226.25 446.01"></polygon><polygon class="cls-42" points="225.62 445.7 226.24 446.04 226.47 445.58 225.84 445.27 225.61 445.72 225.62 445.7"></polygon><polygon class="cls-42" points="224.99 445.37 225.61 445.72 225.84 445.27 225.21 444.93 224.97 445.36 224.99 445.37"></polygon><rect x="224.53" y="444.62" width=".49" height=".72" transform="translate(-273.56 431.24) rotate(-61.62)"></rect><polygon class="cls-42" points="224.05 444.54 223.7 444.68 224.34 445.02 224.59 444.6 223.94 444.25 223.59 444.39 224.05 444.54"></polygon><polygon class="cls-42" points="290.07 437.68 288.62 441.49 293.35 443.07 294.45 440.54 294.48 440.3 294.49 440.04 294.45 439.78 294.36 439.52 294.21 439.29 294.09 439.04 293.89 438.8 293.68 438.58 293.47 438.38 293.23 438.18 292.99 437.99 292.75 437.86 292.53 437.71 292.26 437.6 292.02 437.47 291.79 437.39 291.59 437.32 291.34 437.29 291.12 437.27 290.91 437.3 290.7 437.33 290.47 437.41 290.27 437.54 290.07 437.68"></polygon><polygon class="cls-42" points="293.14 442.95 293.44 442.82 288.71 441.24 288.55 441.72 293.28 443.3 293.6 443.18 293.14 442.95"></polygon><polygon points="220.17 440.33 220.19 440.26 221.64 436.47 222.09 436.63 220.69 440.37 220.67 440.52 220.66 440.47 220.17 440.56 220.16 440.5 220.17 440.33"></polygon><polygon class="cls-23" points="243.36 449.29 243.28 449.34 243.27 449.33 243.36 449.29"></polygon><path d="m220.35,441.17l.05.22v-.02s.37-.08.37-.08l-.09.25,10.6-.35h.25s.27.1.27.1l.27.09.27.09.25.16.21.14.15.17.09.18-.25.08,4.22,12.71h.24s0,.16,0,.16h.74s.33,0,.33,0l.3-.05.3-.08.3-.15.28-.24.33-.32v-.02s.2-.27.2-.27l.22-.28.25-.3.18-.3.22-.36.23-.31.19-.34.25-.35.2-.29.28-.31.23-.3.27-.27.24-.25.25-.22.24-.2.28-.16.06-.03-.18-.17.18.17.28-.31.26-.24.23-.23.24-.2.24-.17.25-.14.22-.13.24-.12.27-.06.27-.11.27-.06.32-.05.35-.06.39-.02.42-.04.41-.02h.02s45.76-3.41,45.76-3.41l.27-.04.24-.05.22-.05.23-.08.21-.1.22-.13.18-.17.21-.18.05-.06.8-1.87-.42-.27.19.18-.03.02-.2-.14-.2.47-.13.08-.18.07-.21.09-.19.04-.24.05-.24.04-45.78,3.41-.29.03h-.28s-.28.01-.28.01l-.3.05h-.3l-.27.04-.29.03-.27.04-.3.05-.27.04-.27.06-.3.08-.28.06-.29.11-.29.11-.28.14-.54.33-.55.5-.58.6-.56.68-.54.71-.47.63-.46.61-.38.46-.22.05-.19.04-.24.02h-.65s-.25-.02-.25-.02l-.22-.02-4.2-12.68-.09-.18-.15-.18-.2-.15-.28-.17-.27-.11-.27-.09-.26-.06h-.25s-10.59.32-10.59.32l-1.27,3.35v-.04s-.51.14-.51.14Zm76.13.35v-.03s.19.17.19.17l-.19-.13Z"></path><polygon class="cls-42" points="294.88 442.46 295.15 442.4 295.4 442.35 295.62 442.3 295.85 442.22 296.06 442.12 296.28 441.99 296.46 441.84 296.67 441.66 296.3 441.31 296.14 441.48 295.97 441.61 295.82 441.71 295.64 441.77 295.47 441.82 295.28 441.88 295.06 441.91 294.83 441.93 294.88 442.46"></polygon><rect x="249.05" y="443.63" width="45.86" height=".53" transform="translate(-32.11 21.35) rotate(-4.25)"></rect><polygon class="cls-42" points="244.64 446.67 244.91 446.55 245.17 446.46 245.48 446.36 245.74 446.27 246.02 446.19 246.29 446.15 246.56 446.11 246.85 446.06 247.1 446.01 247.38 446.01 247.67 445.98 247.96 445.95 248.25 445.92 248.51 445.9 248.82 445.88 249.13 445.86 249.07 445.35 248.78 445.38 248.49 445.41 248.19 445.41 247.9 445.44 247.61 445.45 247.34 445.51 247.06 445.52 246.75 445.54 246.47 445.6 246.2 445.66 245.9 445.72 245.6 445.79 245.34 445.88 245.03 445.98 244.71 446.08 244.44 446.22 244.64 446.67"></polygon><polygon class="cls-42" points="240.54 451.19 240.64 451.12 240.85 450.89 241.03 450.64 241.25 450.36 241.48 450.06 241.74 449.74 241.98 449.41 242.24 449.06 242.51 448.72 242.79 448.36 243.07 448.05 243.34 447.76 243.62 447.44 243.86 447.19 244.16 446.99 244.4 446.79 244.64 446.67 244.44 446.22 244.13 446.39 243.86 446.58 243.55 446.83 243.25 447.12 242.98 447.41 242.7 447.69 242.4 448.08 241.6 449.1 241.36 449.43 241.1 449.75 240.87 450.06 240.65 450.34 240.47 450.58 240.3 450.78 240.39 450.73 240.54 451.19"></polygon><polygon class="cls-19" points="231.78 437.42 232.72 437.41 232.8 437.41 224.69 434.7 224.28 434.94 231.77 437.45 231.78 437.42"></polygon><polygon class="cls-19" points="231.78 437.42 222.13 437.73 222.09 437.54 222.04 437.32 221.98 437.12 221.9 436.89 221.86 436.7 221.86 436.55 221.92 436.37 222.09 436.25 222.49 435.97 222.93 435.71 223.37 435.45 223.81 435.2 224.23 434.93 224.28 434.94 231.77 437.45 231.78 437.42"></polygon><polygon class="cls-18" points="225.91 443.29 232.49 442.92 235.06 443.95 235.97 446.64 236.24 447.57 235.15 447.64 234.09 447.64 233.1 447.62 232.21 447.57 231.33 447.46 230.51 447.31 229.77 447.11 229.02 446.91 228.32 446.66 227.64 446.4 227 446.11 226.37 445.8 225.72 445.48 225.09 445.14 224.47 444.81 223.82 444.47 223.76 444.19 223.71 443.95 223.65 443.67 223.61 443.41 225.91 443.29"></polygon><polygon class="cls-19" points="242.47 444.04 242.56 444.15 243.41 444.66 243.68 444.21 242.84 443.7 242.92 443.83 242.47 444.04 242.5 444.1 242.56 444.15 242.47 444.04"></polygon><polygon class="cls-19" points="234.95 444.2 234.81 444.02 236.01 447.65 236.49 447.5 235.29 443.88 235.16 443.73 235.29 443.88 235.25 443.76 235.16 443.73 234.95 444.2"></polygon><polygon class="cls-19" points="232.51 443.15 232.39 443.14 234.95 444.2 235.16 443.73 232.59 442.67 232.5 442.67 232.59 442.67 232.55 442.66 232.5 442.67 232.51 443.15"></polygon><polygon class="cls-19" points="223.87 443.39 223.63 443.67 232.51 443.15 232.5 442.67 223.61 443.18 223.38 443.43 223.61 443.18 223.33 443.19 223.38 443.43 223.87 443.39"></polygon><polygon class="cls-19" points="223.94 444.25 224.04 444.41 224.03 444.28 224 444.15 223.99 444.02 223.96 443.9 223.95 443.77 223.92 443.64 223.88 443.52 223.87 443.39 223.38 443.43 223.38 443.58 223.4 443.74 223.44 443.86 223.45 443.99 223.48 444.1 223.51 444.24 223.57 444.38 223.58 444.51 223.7 444.68 223.58 444.51 223.61 444.63 223.7 444.68 223.94 444.25"></polygon><polygon class="cls-19" points="236.02 447.63 236.23 447.31 235.14 447.38 234.09 447.41 233.13 447.37 232.21 447.32 231.39 447.2 230.57 447.07 229.82 446.88 229.1 446.68 228.4 446.42 227.75 446.16 227.1 445.89 226.47 445.58 225.84 445.27 225.21 444.93 224.59 444.6 223.94 444.25 223.7 444.68 224.34 445.02 224.97 445.36 225.61 445.72 226.24 446.04 226.9 446.33 227.54 446.62 228.24 446.91 228.94 447.16 229.71 447.37 230.46 447.55 231.3 447.7 232.17 447.81 233.09 447.89 234.1 447.9 235.15 447.87 236.29 447.82 236.49 447.5 236.29 447.82 236.6 447.79 236.49 447.5 236.01 447.65 236.02 447.63"></polygon><polygon class="cls-19" points="249.07 445.35 248.73 445.37 248.36 445.42 248.03 445.44 247.66 445.47 247.31 445.53 246.94 445.58 246.56 445.63 246.2 445.72 245.85 445.8 245.54 445.9 245.19 446.01 244.87 446.13 244.6 446.27 244.27 446.42 244 446.61 243.76 446.81 244.06 447.19 244.3 447.01 244.53 446.86 244.78 446.71 245.07 446.61 245.35 446.45 245.66 446.37 246.01 446.29 246.33 446.19 246.67 446.15 246.97 446.07 247.34 446.05 247.69 445.98 248.06 445.93 248.43 445.9 248.77 445.86 249.13 445.86 249.07 445.35"></polygon><rect class="cls-18" x="249.05" y="443.64" width="45.86" height=".51" transform="translate(-32.32 21.5) rotate(-4.27)"></rect><polygon class="cls-19" points="295.68 439.14 295.87 439.41 296.07 439.66 296.16 439.91 296.3 440.17 296.38 440.4 296.4 440.63 296.41 440.84 296.4 441.03 296.34 441.19 296.26 441.35 296.17 441.49 295.99 441.64 295.81 441.73 295.52 441.83 295.21 441.91 294.83 441.93 294.88 442.46 295.3 442.42 295.66 442.32 295.98 442.19 296.26 442.03 296.52 441.86 296.71 441.62 296.8 441.4 296.9 441.13 296.89 440.84 296.91 440.57 296.84 440.3 296.75 439.98 296.63 439.72 296.48 439.41 296.28 439.09 296.08 438.85 295.68 439.14"></polygon><polygon class="cls-19" points="290.22 436.54 290.64 436.52 291.06 436.56 291.48 436.66 291.89 436.71 292.67 436.97 293.04 437.15 293.39 437.32 293.76 437.51 294.09 437.73 294.45 437.95 294.71 438.16 294.99 438.41 295.25 438.67 295.47 438.92 295.68 439.14 296.08 438.85 295.85 438.57 295.58 438.3 295.31 438.03 295.02 437.78 294.69 437.55 294.36 437.31 294.03 437.1 293.65 436.87 293.25 436.68 292.85 436.52 292.43 436.39 292 436.24 291.57 436.15 291.14 436.08 290.64 436.04 290.21 436.05 290.22 436.54"></polygon><rect class="cls-18" x="249.72" y="436.75" width="40.51" height=".49" transform="translate(-14.88 9.55) rotate(-1.97)"></rect><polygon class="cls-19" points="243.35 436.92 243.73 437.07 244.13 437.15 244.52 437.28 244.93 437.37 245.35 437.46 245.75 437.57 246.18 437.63 246.57 437.69 246.98 437.77 247.4 437.81 247.8 437.87 248.21 437.88 248.6 437.93 249.01 437.92 249.38 437.94 249.74 437.93 249.75 437.45 249.37 437.45 249 437.43 248.64 437.41 248.25 437.38 247.85 437.35 247.46 437.32 247.07 437.27 246.66 437.21 246.25 437.12 245.87 437.07 245.47 436.96 245.06 436.9 244.66 436.8 244.24 436.68 243.89 436.59 243.5 436.46 243.34 436.94 243.35 436.92"></polygon><polygon class="cls-19" points="229.69 433.17 230.39 433.07 231.04 433.01 231.67 432.97 232.24 432.93 232.78 432.91 233.27 432.97 233.77 432.98 234.19 433.02 234.62 433.09 235.03 433.17 235.41 433.25 235.75 433.36 236.12 433.49 236.4 433.61 236.76 433.75 237.04 433.9 237.37 434.06 237.7 434.22 238.02 434.4 238.34 434.58 238.66 434.77 238.99 434.98 239.32 435.14 239.68 435.36 240.08 435.55 240.46 435.77 240.88 435.94 241.29 436.15 241.76 436.36 242.26 436.53 242.79 436.76 243.34 436.94 243.5 436.46 242.95 436.28 242.41 436.07 241.96 435.9 241.49 435.71 241.06 435.49 240.69 435.31 240.3 435.09 239.93 434.91 239.57 434.71 239.22 434.52 238.9 434.34 238.57 434.13 238.25 433.94 237.92 433.78 237.59 433.62 237.3 433.45 236.97 433.29 236.61 433.14 236.28 433.01 235.91 432.88 235.52 432.75 235.12 432.67 234.71 432.61 234.26 432.51 233.79 432.46 233.31 432.45 232.76 432.44 232.22 432.44 231.61 432.46 230.98 432.51 230.32 432.59 229.63 432.67 229.67 433.16 229.69 433.17"></polygon><polygon class="cls-19" points="222.22 436.47 222.62 436.19 223.06 435.93 223.5 435.67 223.95 435.39 224.36 435.15 224.83 434.9 225.26 434.66 225.71 434.46 226.19 434.24 226.67 434.02 227.14 433.82 227.63 433.65 228.16 433.52 228.63 433.38 229.16 433.25 229.67 433.16 229.63 432.67 229.06 432.78 228.52 432.88 227.99 433.03 227.49 433.17 226.98 433.38 226.46 433.57 225.99 433.77 225.51 433.99 225.03 434.23 224.56 434.48 224.13 434.71 223.68 434.97 223.24 435.23 222.8 435.49 222.38 435.76 221.96 436.02 222.2 436.46 222.22 436.47"></polygon><polygon class="cls-19" points="222.13 437.5 222.39 437.72 222.31 437.49 222.27 437.25 222.21 437.05 222.15 436.82 222.12 436.69 222.1 436.6 222.14 436.49 222.2 436.46 221.96 436.02 221.74 436.23 221.63 436.5 221.6 436.74 221.67 436.97 221.73 437.19 221.79 437.39 221.85 437.59 221.89 437.78 222.12 437.98 221.89 437.78 221.89 437.98 222.12 437.98 222.13 437.5"></polygon><polygon class="cls-18" points="240.83 439.3 240.82 439.32 240.82 439.32 240.83 439.3"></polygon><polygon class="cls-18" points="240.71 439.42 240.82 439.32 240.76 439.58 240.71 439.42"></polygon><polygon class="cls-18" points="247.53 442.33 255.88 445.11 254.97 445.16 254.97 445.19 247.72 442.77 247.53 442.33"></polygon><path class="cls-18" d="m222.12,437.98l10.6-.34.22.02.2.07.27.09.25.08.23.15.17.11.1.16.08.08,4.22,12.71.06.2h.21s.21-.04.21-.04l.24.03.3.02h.28s.27,0,.27,0l.25-.07.28-.08.23-.15.27-.29.23-.3.21-.26.21-.26.18-.24.17-.22.15-.23.18-.24.15-.23.18-.22.18-.22.19-.19.2-.21.23-.23.23-.23.29-.26-.15-.19.23-.19.26-.17.3-.13.27-.14.3-.13.34-.09.34-.11.34-.09.32-.05.35-.06.37-.05.35-.06.36-.03.37-.03.34-.04h.34s5.88-.44,5.88-.44l-7.25-2.42-.19-.44,8.35,2.79,38.98-2.91.72-.11.54-.25.37-.36.14-.41v-.46s0-.02,0-.02l-.13-.53-.26-.52-.37-.56-.22-.25-.24-.26-.27-.27-.28-.22-.3-.25-.34-.21-.36-.22-.36-.22-.38-.15-.37-.18-.41-.14-.43-.14-.41-.06-.43-.09-.44-.05h-.43s-5.89.23-5.89.23l-34.57,1.18h-.74s-.4,0-.4,0l-.39-.05-.4-.03-.4-.03-.39-.05-.41-.06-.41-.06-.4-.08-.4-.09-.4-.08-.42-.11-.4-.11-.37-.1-.39-.13-.55-.18-.54-.21-.47-.18-.47-.18-.41-.21-.4-.18-.41-.21-.37-.17-.36-.22-.32-.18-.34-.19-.32-.18-.34-.19-.32-.18-.31-.15-.32-.18-.33-.16-.34-.14-.32-.11-.36-.12-.39-.13-.37-.1-.41-.06-.43-.07-.44-.05-.5-.04-.53-.02-.54.02-.56.02-.63.07-.65.06-.72.09-.53.08-.53.13-.52.13-.49.17-.52.18-.5.19-.47.2-.48.22-.45.23-.47.25,7.4,2.47-9.96.33v.48Zm67.81.21l.05-.29.1-.22.18-.17.27-.14.32-.05h.17s.2.02.2.02l.19.04.19.04.23.08.2.07.22.1.24.13.2.09.21.14.18.14.2.17.2.14.15.18.17.16.15.18.27.34.14.35.07.18.04.11-.02.3-.05.24-.17.2-.24.12-.33.07-.18.02-.19-.04-.22-.02-.24-.05-.21-.07-.23-.08-.24-.1-.21-.12-.22-.1-.24-.13-.21-.15-.2-.17-.18-.14-.19-.19-.17-.18-.14-.17-.24-.36-.14-.35-.04-.11-.04-.19Zm-42.14,5.39l-.16-.13.16.13Zm-6.49-4.03l.27-.27,3.48-.2.74.38,1.75,4.11-.27.34-3.74.27.17.03-.13.2h-.02s-.83-.48-.83-.48h0s.22-.11.22-.11l-1.63-4.28Z"></path><polygon class="cls-42" points="287.57 440.83 287.36 440.71 287.32 440.52 287.63 440.44 287.69 440.64 287.51 440.51 287.57 440.83"></polygon><polygon class="cls-42" points="287.99 440.59 287.94 440.65 287.86 440.73 287.77 440.77 287.68 440.82 287.57 440.83 287.51 440.51 287.55 440.52 287.62 440.47 287.7 440.45 287.71 440.42 287.7 440.47 287.98 440.61 287.99 440.59"></polygon><polygon class="cls-42" points="287.12 438.68 287.15 438.69 287.29 438.86 287.48 439.05 287.67 439.26 287.84 439.5 287.98 439.75 288.07 440.03 288.07 440.34 287.98 440.61 287.7 440.47 287.76 440.29 287.74 440.1 287.69 439.88 287.55 439.68 287.4 439.45 287.23 439.27 287.04 439.08 286.9 438.91 286.92 438.91 287.12 438.68"></polygon><polygon class="cls-42" points="284.32 437.87 284.3 437.86 284.7 437.87 285.08 437.87 285.44 437.94 285.78 437.98 286.14 438.07 286.46 438.23 286.8 438.42 287.12 438.68 286.92 438.91 286.61 438.71 286.31 438.53 286.03 438.39 285.72 438.31 285.39 438.25 285.05 438.21 284.69 438.2 284.34 438.2 284.35 438.18 284.29 437.88 284.32 437.87"></polygon><polygon class="cls-42" points="254.6 439.43 254.73 439.34 284.29 437.88 284.35 438.18 254.77 439.66 254.91 439.58 254.6 439.43"></polygon><polygon class="cls-42" points="253.9 440.46 253.58 440.36 253.6 440.13 253.66 439.95 253.75 439.76 253.88 439.62 254.04 439.52 254.24 439.44 254.47 439.36 254.73 439.34 254.77 439.66 254.53 439.71 254.31 439.76 254.2 439.78 254.1 439.87 254.04 439.95 253.96 440.05 253.92 440.19 253.92 440.39 253.6 440.29 253.9 440.46"></polygon><polygon points="287.38 440.34 287.3 440.21 287.19 440.07 287.11 439.94 287 439.83 286.89 439.69 286.78 439.58 286.67 439.44 286.36 439.21 286.05 439 285.74 438.88 285.41 438.79 285.07 438.75 284.71 438.69 284.36 438.67 283.98 438.67 254.41 440.15 254.65 439.69 254.75 439.68 254.77 439.66 284.35 438.18 284.84 438.22 285.25 438.2 285.64 438.26 286 438.33 286.33 438.49 286.62 438.66 286.9 438.91 287.21 439.26 287.48 439.58 287.68 439.9 287.78 440.14 287.78 440.29 287.71 440.42 287.52 440.54 287.5 440.54 287.48 440.5 287.38 440.34"></polygon><path d="m253.58,440.36l.03.29.06.2.08.28.2.32.24.26.31.28.37.25.42.19.44.12h.53l30.38-1.54.58-.06.41-.09.3-.2.17-.27v-.28s-.12-.34-.12-.34l-.22-.33-.3-.38-.31-.36-.34-.29-.36-.22-.35-.17-.38-.08-.46-.08h-.46l-.52.03-29.56,1.46h0s-.32.02-.32.02l-.32.12-.21.18-.15.21-.1.22-.06.26Zm.34.04l.04-.19v-.03s.04,0,.04,0h.15l.26-.02.25-.46h.09s.03-.03.03-.03l29.57-1.48.49.04.41-.02.39.05.36.07.33.16.3.17.28.25.31.36.27.32.2.32.1.24v.15l-.07.13-.19.12h-.03s-.33.08-.33.08l-.5.06-30.39,1.57h-.02s-.43-.02-.43-.02l-.42-.11-.37-.17-.32-.18-.27-.27-.19-.27-.17-.26-.13-.22-.02-.16v-.18Z"></path><line class="cls-8" x1="251" y1="167.81" x2="340.69" y2="167.81"></line><line class="cls-11" x1="260.52" y1="129.06" x2="369.04" y2="129.06"></line><line class="cls-6" x1="256.29" y1="56.28" x2="331.69" y2="56.28"></line><line class="cls-10" x1="251" y1="251.88" x2="369.55" y2="251.88"></line><path class="cls-20" d="m256.29,43.31c0,.68-.31,1.35-.93,2l-.1.1-5.43,5.72c-1.15,1.21-2.14,2.15-2.95,2.81s-1.38.99-1.72.99-.79-.17-1.31-.5c-.52-.33-.86-.67-1.01-1.03-.13-.29-.25-.91-.36-1.86-.11-.95-.17-1.98-.17-3.08,0-.6.25-1.16.75-1.68.51-.51,1.06-.77,1.67-.77s.93.53,1.03,1.59c.02.12.02.22.03.27.09.81.2,1.38.32,1.7.12.32.29.48.5.48.09,0,.25-.09.5-.28.24-.19.52-.45.86-.78l5.58-5.52c.47-.47.89-.82,1.26-1.06.37-.24.68-.36.94-.36.19,0,.33.07.41.22.08.15.12.39.12.74v.29Z"></path><path class="cls-20" d="m260.79,115.72c0,.68-.31,1.35-.93,2l-.1.1-5.43,5.71c-1.15,1.21-2.13,2.15-2.95,2.81-.81.66-1.38.99-1.72.99-.35,0-.79-.17-1.31-.5-.52-.33-.86-.67-1.01-1.02-.13-.29-.25-.91-.36-1.86-.11-.95-.17-1.98-.17-3.08,0-.6.25-1.16.76-1.67.5-.51,1.06-.77,1.67-.77s.93.53,1.03,1.59c.01.12.02.21.03.27.09.81.2,1.38.32,1.7.12.32.29.49.5.49.09,0,.25-.1.49-.29.24-.19.53-.45.86-.78l5.58-5.52c.47-.47.88-.82,1.25-1.06.37-.24.68-.36.94-.36.2,0,.33.08.42.22.08.15.12.39.12.74v.29Z"></path><path class="cls-20" d="m251.79,153.06c0,.68-.31,1.35-.93,2l-.1.1-5.43,5.71c-1.15,1.21-2.13,2.15-2.95,2.81-.81.66-1.38.99-1.72.99-.35,0-.79-.17-1.31-.5-.52-.33-.86-.67-1.01-1.02-.13-.29-.25-.91-.36-1.86-.11-.95-.17-1.98-.17-3.08,0-.61.25-1.16.76-1.68.5-.51,1.06-.77,1.67-.77s.93.53,1.03,1.59c.01.12.02.21.03.27.09.81.2,1.38.32,1.7.12.32.29.48.5.48.09,0,.25-.1.49-.28.24-.19.53-.45.86-.78l5.58-5.52c.47-.47.88-.82,1.25-1.06.37-.24.68-.36.94-.36.2,0,.33.07.42.22.08.15.12.39.12.74v.29Z"></path><path class="cls-20" d="m251.79,236.92c0,.69-.31,1.35-.93,2l-.1.1-5.43,5.71c-1.16,1.21-2.14,2.15-2.95,2.81-.81.66-1.39.99-1.72.99-.35,0-.79-.16-1.31-.49-.52-.33-.86-.67-1.01-1.02-.13-.29-.25-.91-.37-1.86-.11-.95-.17-1.97-.17-3.08,0-.6.25-1.16.75-1.67.51-.51,1.06-.77,1.67-.77s.93.53,1.04,1.59c.01.12.02.21.03.27.09.81.2,1.38.32,1.7.12.32.29.48.5.48.09,0,.25-.1.49-.28.24-.19.52-.45.86-.78l5.58-5.52c.47-.47.89-.82,1.26-1.06.37-.24.68-.36.94-.36.19,0,.33.07.41.22.08.14.12.39.12.74v.29Z"></path></g></svg>