<svg version="1.1" xmlns="http://www.w3.org/2000/svg" xmlns:xlink="http://www.w3.org/1999/xlink" x="0px" y="0px" width="3300" height="4350" viewBox="0 0 3300 4350" enable-background="new 0 0 792.015 1044" xml:space="preserve"><g transform="translate(-2.2737367544323206e-13, 0) scale(4.166666666666667)">
<g id="background">
	<rect x="0.007" y="0" fill="#929497" width="792" height="1044"/>
</g>
<g id="cuts">
	
		<line fill="none" stroke="#EC1C24" stroke-width="0.5616" stroke-miterlimit="10" x1="574.213" y1="218.067" x2="678.613" y2="218.067"/>
	
		<line fill="none" stroke="#EC1C24" stroke-width="0.5616" stroke-miterlimit="10" x1="574.213" y1="826.791" x2="678.613" y2="826.791"/>
	
		<line fill="none" stroke="#EC1C24" stroke-width="0.5616" stroke-miterlimit="10" x1="217.786" y1="218.067" x2="113.386" y2="218.067"/>
	
		<line fill="none" stroke="#EC1C24" stroke-width="0.5616" stroke-miterlimit="10" x1="217.786" y1="826.791" x2="113.386" y2="826.791"/>
	<path fill="#FFFFFF" stroke="#EC1C24" stroke-miterlimit="10" d="M574.196,829.96l35.667,33.25h68.412   c0.014,0,0.014-32.365,0.014-32.365l3.601-3.6H782.69V217.793H681.89l-3.6-3.6v-32.4h-68.4l-35.667,33.287v2.713V12.959   c-0.335,0-0.382,0-357.123,0c0,2.682,0,204.834,0,204.834l-0.001-2.713l-35.637-33.287h-68.398v32.4l-3.6,3.6   c0,0-79.054,0-100.801,0v609.452h100.801l3.6,3.6v-0.322v32.688h68.398l35.638-33.574v-2.391v204.514h357.097V827.245"/>
</g>
<g id="creases">
	<polyline fill="none" stroke="#00A551" stroke-miterlimit="10" points="217.785,826.935 217.785,295.591 217.785,217.769  "/>
	<line fill="none" stroke="#00A551" stroke-miterlimit="10" x1="574.213" y1="827.269" x2="574.213" y2="217.519"/>
	<line fill="none" stroke="#00A551" stroke-miterlimit="10" x1="678.586" y1="218.067" x2="112.452" y2="218.067"/>
	<line fill="none" stroke="#00A551" stroke-miterlimit="10" x1="111.68" y1="826.791" x2="679.199" y2="826.791"/>
	<line fill="none" stroke="#00A551" stroke-miterlimit="10" x1="678.613" y1="826.791" x2="678.613" y2="218.067"/>
	<line fill="none" stroke="#00A551" stroke-miterlimit="10" x1="113.386" y1="826.468" x2="113.386" y2="218.067"/>
	<line fill="none" stroke="#00A551" stroke-miterlimit="10" x1="574.2" y1="930.868" x2="217.799" y2="930.868"/>
	<line fill="none" stroke="#00A551" stroke-miterlimit="10" x1="217.785" y1="113.668" x2="574.186" y2="113.668"/>
	<line fill="none" stroke="#EC1C24" stroke-miterlimit="10" x1="574" y1="114.019" x2="574" y2="217.769"/>
	<line fill="none" stroke="#EC1C24" stroke-miterlimit="10" x1="574" y1="826.519" x2="574" y2="930.868"/>
	
		<rect x="226.975" y="122.683" fill="none" stroke="#00ADEE" stroke-miterlimit="10" stroke-dasharray="12" width="338.235" height="86.471"/>
	
		<rect x="226.759" y="227.053" fill="none" stroke="#00ADEE" stroke-miterlimit="10" stroke-dasharray="12" width="338.48" height="591.229"/>
	
		<rect x="226.76" y="835.85" fill="none" stroke="#00ADEE" stroke-miterlimit="10" stroke-dasharray="12" width="338.466" height="86.104"/>
	
		<rect x="122.301" y="227.051" fill="none" stroke="#00ADEE" stroke-miterlimit="10" stroke-dasharray="12" width="86.45" height="590.567"/>
	
		<rect x="582.921" y="226.755" fill="none" stroke="#00ADEE" stroke-miterlimit="10" stroke-dasharray="12" width="86.771" height="591.05"/>
</g>
<g id="text">
	<rect x="6.321" y="8.775" fill="#D0D2D3" width="99.118" height="103.828"/>
	
	
	<g>
		<defs>
			<rect id="SVGID_1_" x="1.85" y="-81.652" width="828" height="647.999"/>
		</defs>
		<clipPath id="SVGID_2_">
			<use xlink:href="#SVGID_1_" overflow="visible"/>
		</clipPath>
		<path clip-path="url(#SVGID_2_)" fill-rule="evenodd" clip-rule="evenodd" d="M89.038,49.177    c0,20.079-16.244,36.357-36.281,36.357c-20.039,0-36.283-16.278-36.283-36.357c0-20.08,16.244-36.358,36.283-36.358    C72.793,12.819,89.038,29.097,89.038,49.177"/>
		<path clip-path="url(#SVGID_2_)" fill-rule="evenodd" clip-rule="evenodd" fill="#B7D333" d="M85.764,49.378    c0,18.254-14.766,33.053-32.983,33.053c-18.217,0-32.985-14.799-32.985-33.053c0-18.256,14.768-33.053,32.985-33.053    C70.998,16.325,85.764,31.122,85.764,49.378"/>
		<path clip-path="url(#SVGID_2_)" d="M45.72,42.169c-0.459,4.051-0.799,7.305-1.024,9.762l-1.506,0.066    c0.022-0.082,0.033-0.174,0.036-0.276c0.002-0.184-0.065-0.427-0.203-0.727c-0.138-0.299-0.218-0.491-0.237-0.572    c-0.388,0.054-0.762,0.326-1.117,0.81c-0.357,0.486-0.678,0.729-0.963,0.724c-0.165-0.003-0.347-0.049-0.551-0.133    c-0.268,0.179-0.618,0.255-1.046,0.228c-0.389-0.068-0.766-0.126-1.134-0.174c-0.011-0.512-0.515-0.96-1.511-1.348    c0.004-0.204-0.098-0.509-0.307-0.911c-0.207-0.405-0.31-0.687-0.308-0.851c0.003-0.185,0.079-0.337,0.224-0.458    c-0.021-0.061-0.188-0.443-0.503-1.146c-0.216-0.515-0.321-0.959-0.314-1.327c0.004-0.287,0.07-0.553,0.197-0.796    c-0.175-1.746-0.252-3.243-0.23-4.494c0.031-1.926,0.307-3.695,0.826-5.306c-0.037-0.246-0.054-0.491-0.05-0.738    c0.023-1.291,0.468-2.185,1.333-2.683l0.009-0.4c0.857-1.092,1.985-1.882,3.384-2.372c0.835,0.199,1.671,0.389,2.506,0.566    c0.936,0.323,1.582,0.877,1.936,1.663c0.283,0.169,0.422,0.51,0.412,1.021c-0.008,0.574,0.055,0.945,0.196,1.111l-0.156,0.182    c0.163,1.212,0.243,1.952,0.239,2.218c-0.014,0.778-0.218,1.329-0.611,1.649c-0.144-0.002-0.52-0.131-1.13-0.388    c-0.145,0.141-0.3,0.211-0.462,0.208c-0.083-0.002-0.23-0.046-0.444-0.131c-0.213-0.085-0.393-0.129-0.535-0.132    c-0.103-0.002-0.205,0.017-0.308,0.055c-0.012-1.617,0.038-2.827,0.153-3.625c-0.16-0.105-0.325-0.344-0.492-0.715    c-0.169-0.372-0.386-0.581-0.65-0.625c-0.166,0.201-0.241,0.333-0.222,0.395l-0.548-0.194c-0.501,0.546-0.834,1.493-1,2.843    c-0.17,1.554-0.381,2.586-0.634,3.093c0.22,0.231,0.328,0.55,0.321,0.959c-0.003,0.144-0.028,0.381-0.074,0.707    c-0.047,0.328-0.072,0.573-0.073,0.737c-0.005,0.185,0.012,0.349,0.052,0.494L38.827,41.5c0.152,0.7,0.239,1.583,0.262,2.649    c-0.015,0.902-0.022,1.804-0.015,2.706c-0.022,0-0.195,0.007-0.522,0.021c-0.205-0.004-0.35,0.066-0.435,0.209    c0.125-0.019,0.237-0.028,0.338-0.026c0.451,0.007,0.805,0.326,1.059,0.955c0.254,0.631,0.474,0.948,0.659,0.952    c0.203,0.002,0.484-0.188,0.839-0.572c0.602-0.646,0.916-1.532,0.935-2.658c0.008-0.554-0.052-1.149-0.185-1.787    c-0.146,0.08-0.22,0.284-0.226,0.61c-0.327-0.006-0.533,0.064-0.618,0.205c-0.141-0.043-0.201-0.156-0.178-0.342    c0.025-0.265,0.037-0.408,0.039-0.428c0.247-0.078,0.371-0.19,0.373-0.333c0.002-0.061-0.043-0.175-0.131-0.34    c-0.09-0.166-0.133-0.299-0.132-0.402c0.002-0.082,0.022-0.164,0.065-0.246l0.144-1.195c0.448,0.13,1.417,0.187,2.912,0.172    c-0.043,0.102,0.016,0.237,0.178,0.402c0.145-0.141,0.299-0.211,0.462-0.207c0.123,0.003,0.307,0.057,0.55,0.163    C45.444,42.115,45.616,42.169,45.72,42.169"/>
		<path clip-path="url(#SVGID_2_)" d="M57.169,52.758c-0.285-0.128-0.592-0.194-0.918-0.2c-0.287-0.005-0.678,0.05-1.17,0.165    c-0.553,0.113-0.933,0.178-1.138,0.196c-0.218-0.434-0.37-1.033-0.46-1.792c-0.166-1.109-0.268-1.736-0.305-1.88    c0.062-0.123,0.095-0.224,0.096-0.306c0.004-0.226-0.172-0.428-0.526-0.609c-0.357-0.18-0.531-0.322-0.53-0.424    c0.001-0.122,0.209-0.304,0.623-0.544c-0.1-0.124-0.175-0.376-0.218-0.755c-0.044-0.38-0.138-0.634-0.278-0.76    c-0.25,0.222-0.655,0.364-1.219,0.427c-0.564,0.062-0.939,0.153-1.124,0.272c0.012,1.599-0.25,2.671-0.792,3.215    c-0.285-0.067-0.502,0.043-0.65,0.328c-0.211,0.345-0.389,0.547-0.532,0.605l0.18,0.219c-0.166,0.139-0.433,0.197-0.8,0.171    c-0.572-0.032-0.879-0.046-0.92-0.046l-0.173-0.557l1.998-16.601c0.018-1.045,0.07-1.752,0.159-2.119    c-0.027-0.923,0.187-1.493,0.641-1.711c0.284,0.189,0.641,0.288,1.07,0.295c0.347,0.005,0.892-0.067,1.63-0.218    c0.74-0.152,1.252-0.225,1.539-0.221c1.001,0.017,1.438,0.743,1.312,2.176c-0.101,1.145,0.077,2.655,0.536,4.529    c0.479,2.018,0.708,3.526,0.691,4.532c-0.004,0.307,0.095,0.944,0.071,1.252c-0.435,0.237-0.988,0.382-1.664,0.43    c-0.594,0.033-1.198,0.062-1.812,0.094c-0.157-1.56-0.432-3.441-0.591-4.982c-0.193-1.847-0.433-3.368-0.72-4.562l-0.946,8.778    c-0.075,0.756,0.268,1.142,1.024,1.156c0.245,0.003,0.48-0.055,0.708-0.173c0.185-0.059,0.439,0.079,0.76,0.412    c-0.011,0.636,0.115,1.017,0.381,1.145c0.33-0.221,0.763-0.428,1.297-0.625c0.474-0.176,0.938-0.342,1.39-0.499    c0.258,0.354,0.426,0.879,0.496,1.578c0.085,0.984,0.147,1.56,0.186,1.724c0.033,0.391,0.192,1.234,0.477,2.531    c0.208,1.027,0.306,1.859,0.297,2.495C57.239,52.206,57.213,52.492,57.169,52.758"/>
		<path clip-path="url(#SVGID_2_)" d="M71.297,38.117c-0.024,0.061-0.028,0.418-0.02,1.075c-0.008,0.533-0.077,0.932-0.203,1.197    c-0.151,0.407-0.232,0.989-0.245,1.748c-0.004,0.164,0.002,0.42,0.018,0.77c-0.007,0.347-0.009,0.603-0.013,0.767    c-0.023,1.292-0.242,2.229-0.662,2.818c0.035,0.329,0.05,0.657,0.045,0.983c-0.017,1.026-0.368,2.404-1.052,4.134    c-0.185,0.059-0.339,0.087-0.462,0.085c-0.246-0.005-0.421-0.146-0.529-0.424c-0.109-0.279-0.211-0.542-0.309-0.79    c0.067-1.576,0.035-3.873-0.099-6.889l0.188-0.182c-0.136-0.535-0.196-1.13-0.185-1.786c0.008-0.471,0.066-1.156,0.174-2.057    c0.106-0.899,0.165-1.574,0.171-2.026c0.007-0.287-0.001-0.565-0.015-0.83c-0.703,1.689-1.204,4.55-1.496,8.584l-0.257,0.609    c-0.084,0.204-0.26,0.314-0.527,0.33c-0.078-0.143-0.16-0.218-0.242-0.219c-0.06-0.002-0.17,0.074-0.324,0.225    c-0.157,0.15-0.286,0.215-0.388,0.192l-0.406,0.362c0.181,0.23,0.568,0.256,1.166,0.082c0.471-0.135,0.714,0.043,0.727,0.536    c0.012,0.41-0.098,0.961-0.335,1.655c-0.238,0.691-0.358,1.213-0.364,1.561c-0.003,0.246,0.022,0.493,0.08,0.739L63.609,51.7    c-0.198-0.415-0.343-1.107-0.439-2.083c-0.096-0.977-0.243-1.671-0.44-2.084c0.124-0.14,0.188-0.292,0.19-0.457    c0.003-0.144-0.054-0.36-0.172-0.649c-0.118-0.289-0.187-0.505-0.205-0.649c-0.017-0.225-0.089-0.771-0.217-1.634    c-0.091-0.697-0.133-1.243-0.126-1.631c0.003-0.206,0.018-0.39,0.042-0.553c0.001-0.143-0.079-0.354-0.237-0.635    c-0.158-0.279-0.236-0.48-0.233-0.604c0.001-0.102,0.043-0.193,0.127-0.272c-0.142-0.168-0.198-0.456-0.17-0.867    c0.027-0.408-0.031-0.696-0.169-0.862c-0.302,0.793-0.462,1.867-0.485,3.22c-0.011,1.885-0.031,2.972-0.056,3.258l0.212,0.188    l-0.217,0.18c0.151,0.741,0.217,1.686,0.198,2.832c-0.056,2.07-0.083,3.033-0.081,2.89c-0.292,0.262-0.692,0.388-1.203,0.379    c-0.632-0.011-1.066,0.045-1.291,0.162c-0.259-0.454-0.382-1.04-0.369-1.758c0.008-0.553,0.103-1.226,0.28-2.025    c-0.278-0.517-0.41-1.237-0.393-2.159c0.004-0.225,0.03-0.655,0.081-1.29c0.031-0.511,0.038-0.891,0.021-1.137    c0.206-0.099,0.31-0.209,0.313-0.332c0.001-0.082-0.063-0.221-0.194-0.419c-0.128-0.196-0.193-0.346-0.192-0.448    c0.003-0.124,0.087-0.246,0.253-0.366l-0.661-9.944c0.393-0.258,1.03-0.381,1.909-0.366c0.961,0.037,1.616-0.013,1.968-0.15    c0.062-0.042,0.132-0.06,0.215-0.059c0.082,0.001,0.178,0.049,0.289,0.143c0.111,0.094,0.187,0.141,0.227,0.142    c0.081,0.002,0.155-0.058,0.219-0.181l0.571,0.564c0.193,0.721,0.374,2.118,0.544,4.19c0.174,1.787,0.446,3.135,0.823,4.043    c0.5-1.815,0.913-3.336,1.243-4.561l0.664-4.865l4.758-0.103c0.016,0.266,0.074,1.691,0.204,2.513    c0.109,0.719,0.162,1.304,0.152,1.754c-0.007,0.513-0.087,0.973-0.238,1.38c0.161,0.229,0.237,0.516,0.231,0.864    C71.549,37.608,71.464,37.893,71.297,38.117"/>
		<path clip-path="url(#SVGID_2_)" d="M81.054,48.89l0.002-0.03c-0.128,0.263-0.205,0.571-0.231,0.918    c-0.024,0.224-0.031,0.542-0.017,0.952c0.012,0.472,0.018,0.801,0.015,0.985c-0.164-0.003-0.818-0.014-1.963-0.033    c-0.695-0.012-1.32,0.049-1.876,0.183l-0.571-0.625c-0.169,0.16-0.231,0.294-0.192,0.397c-0.101-0.024-0.572-0.031-1.411-0.026    c-0.655-0.01-1.144-0.08-1.467-0.209c-0.335,0.344-0.725,0.338-1.169-0.02c-0.161-0.125-0.177-0.336-0.049-0.631    c0.127-0.296,0.089-0.516-0.112-0.663c0.03-0.655,0.121-1.668,0.266-3.04c0.144-1.227,0.221-2.188,0.233-2.886    c0.017-0.942-0.05-1.845-0.198-2.708c0.229-0.222,0.484-0.331,0.771-0.326c0.328,0.005,0.714,0.166,1.158,0.48    c0.626,0.442,0.951,0.662,0.971,0.662l0.18,0.219c0.021-0.06,0.13-0.387,0.324-0.979c0.109-0.386,0.266-0.64,0.474-0.76    l0.181,0.188c0.081-0.04,0.351-0.23,0.807-0.57c0.35-0.241,0.637-0.809,0.841-0.806c0.227,0.004,0.438,0.131,0.639,0.381    c0.344,0.19,0.561,0.926,0.667,1.306c0.105,0.381,0.208,0.757,0.304,1.128c-0.922,0.026-1.678,0.001-2.269-0.069    c-0.149,0.223-0.353,0.255-0.616,0.098c-0.263-0.16-0.458-0.136-0.584,0.066c-0.006,0.369-0.019,1.035-0.034,1.998    c-0.036,0.86-0.047,1.536-0.034,2.029c0.006,0.758,0.058,1.456,0.149,2.094c0.162,0.002,0.94,0.015,2.33,0.039    C79.535,48.65,80.361,48.734,81.054,48.89 M81.119,34.163c-0.184,0.017-0.387,0.024-0.612,0.021    c-0.471-0.009-1.094-0.081-1.868-0.217c-0.961-0.139-1.543-0.221-1.746-0.244c-0.294,0.423-0.447,1.027-0.461,1.805    c-0.027,1.68-0.029,2.408-0.005,2.184c0.282,0.168,0.421,0.478,0.413,0.929c-0.03,0.615-0.035,0.933-0.016,0.952    c-0.144,0.059-0.219,0.263-0.225,0.612c-0.225-0.086-0.456-0.254-0.696-0.503c-0.322-0.315-0.493,0.747-0.47,0.482l-0.194,0.631    l-0.181-0.188c-0.166,0.017-0.445-0.069-0.839-0.26c-0.396-0.19-0.675-0.369-0.835-0.537c0.006-0.328,0.061-0.512,0.163-0.551    l-0.391-0.436l-0.189,0.273c-0.23-2.135-0.172-6.129,0.11-8.38c0.776,0.136,1.633,0.223,2.575,0.26    c0.633,0.03,1.521,0.045,2.667,0.044c1.309,0.003,2.251,0.007,2.823,0.017c0.241,0.231,0.36,0.53,0.353,0.898    c-0.003,0.228-0.066,0.588-0.188,1.089C81.187,33.545,81.124,33.916,81.119,34.163"/>
		<path clip-path="url(#SVGID_2_)" d="M46.642,67.479v-0.014c0,0.01-0.054,0.461-0.159,1.355c-0.054,0.549-0.185,0.981-0.397,1.295    l-0.132-0.108c-0.25,0.522-0.586,0.838-1.015,0.951c-0.206,0.217-0.502,0.335-0.888,0.359c-0.229,0.014-0.759-0.054-1.59-0.2    c-0.401-0.249-0.62-0.388-0.659-0.415c-0.252-0.19-0.373-0.383-0.36-0.579c-0.244-0.25-0.587-0.694-0.716-1.253    c-0.156-0.615-0.251-0.65-0.397-0.866c-0.232,0.171-0.314-0.192-0.449-0.409l0.122-0.095c-0.074-0.054-0.115-0.115-0.119-0.183    c-0.003-0.048,0.017-0.121,0.061-0.216c0.041-0.095,0.062-0.167,0.059-0.215c-0.004-0.077-0.051-0.144-0.138-0.198    c0.093-0.482,0.178-1.209,0.255-2.178c0.164-0.089,0.241-0.259,0.234-0.512c-0.009-0.252,0.025-0.42,0.105-0.504    c0.391-0.783,1.025-1.312,1.904-1.587c0.049,0.007,0.285,0.003,0.707-0.012c0.29-0.008,0.51,0.019,0.658,0.078    c0.263-0.044,0.528,0.018,0.79,0.189c0.228,0.172,0.457,0.343,0.684,0.515c0.425,0.464,0.656,0.986,0.69,1.571    c0.012,0.193-0.002,0.399-0.037,0.615c-0.315-0.011-0.54,0.198-0.671,0.625l-1.227,0.114c-0.131-0.186-0.207-0.436-0.225-0.748    c-0.007-0.106-0.006-0.262,0-0.467c0.005-0.205,0.007-0.361,0-0.468c-0.018-0.321-0.094-0.575-0.225-0.762l-0.37,0.21    c-0.147-0.059-0.225-0.147-0.232-0.263c-0.002-0.039,0.003-0.095,0.018-0.169c0.014-0.075,0.02-0.126,0.017-0.155    c-0.007-0.126-0.12-0.203-0.339-0.229c-0.151,1.384-0.195,2.807-0.134,4.265c0.039,0.047,0.156,0.08,0.35,0.097    c0.158,0.02,0.239,0.07,0.244,0.148c0.002,0.029-0.006,0.066-0.03,0.117l-0.12,0.095c0.066,0.104,0.105,0.248,0.116,0.433    c0.004,0.096,0.001,0.246-0.011,0.446c-0.014,0.201-0.017,0.35-0.011,0.447c0.018,0.291,0.09,0.512,0.221,0.661    c-0.013,0.214,0.074,0.36,0.26,0.438c0.119-0.047,0.225-0.072,0.322-0.078c0.373-0.021,0.634,0.182,0.779,0.615    c0,0.009-0.001,0.081-0.005,0.219c0.004,0.077,0.043,0.129,0.118,0.153c0.163-0.097,0.244-0.273,0.242-0.525    c-0.005-0.293,0.033-0.481,0.111-0.563c-0.019-0.135-0.1-0.331-0.241-0.585c-0.143-0.255-0.217-0.456-0.227-0.602    c-0.008-0.156,0.037-0.305,0.138-0.447c-0.085-0.024-0.125-0.08-0.119-0.169c0.006-0.136,0.006-0.209,0.006-0.22    C45.278,67.33,45.955,67.325,46.642,67.479"/>
		<path clip-path="url(#SVGID_2_)" d="M52.193,68.621h-0.015c-0.071,0.141-0.093,0.343-0.068,0.603    c0.033,0.37,0.051,0.559,0.051,0.569c-0.056,0.021-0.131-0.008-0.224-0.083c-0.144,0.055-0.212,0.145-0.203,0.271    c0,0.018,0.008,0.049,0.02,0.094c0.003,0.053,0.006,0.09,0.007,0.109c0.006,0.098-0.023,0.173-0.088,0.221    c-0.163-0.089-0.378-0.147-0.642-0.172c-0.267-0.026-0.519-0.049-0.756-0.072c-0.004-1.233-0.17-2.44-0.496-3.618    c0,0.009-0.007-0.112-0.022-0.366c0.001-0.181-0.04-0.31-0.123-0.387l-0.113,0.101c-0.001-0.018,0.036-0.054,0.113-0.108    c0.074-0.054,0.111-0.109,0.109-0.163c-0.003-0.026-0.01-0.054-0.022-0.08l-0.124-0.089c-0.209,0.068-0.306,0.237-0.291,0.507    c0.011,0.181-0.062,0.309-0.213,0.381c0.058,0.04,0.088,0.094,0.093,0.157c0.003,0.036-0.003,0.087-0.017,0.151    c-0.014,0.065-0.019,0.115-0.018,0.151c0.006,0.08,0.05,0.145,0.13,0.196c0.004,0.054,0.032,0.542,0.084,1.465    c0.036,0.588,0.02,1.088-0.045,1.498l0.012,0.232c-0.08-0.005-0.17-0.004-0.269,0.001c-0.113,0.008-0.276,0.023-0.488,0.049    c-0.212,0.026-0.368,0.043-0.469,0.049c-0.415,0.022-0.705-0.047-0.874-0.209l-0.174-5.065c-0.082-0.248-0.136-0.594-0.162-1.038    L46.841,63c-0.04-0.478-0.101-0.847-0.184-1.104c0.035-0.176,0.188-0.271,0.457-0.286c0.167-0.01,0.393,0.013,0.678,0.069    c0.132-0.062,0.315-0.1,0.552-0.113c0.066-0.004,0.172-0.006,0.319-0.005c0.158-0.009,0.269-0.016,0.336-0.02    c0.437-0.026,0.727-0.16,0.871-0.405c0.203-0.002,0.423,0.061,0.661,0.193c0.237,0.132,0.448,0.201,0.627,0.208    c0.478,0.281,0.734,0.747,0.773,1.398c0.008,0.145-0.048,0.719-0.168,1.724l-0.82,0.714c0.138,0.257,0.307,0.813,0.502,1.672    C51.611,67.761,51.858,68.286,52.193,68.621 M50.68,62.858l0.017,0.012c0.015,0.063,0.006-0.159-0.022-0.665    c-0.016-0.244-0.104-0.419-0.267-0.529c-0.094,0.133,0.011,0.195-0.032,0.501c-0.044,0.306-0.224,0.221-0.331,0.353    c-0.282-0.001-0.345,0.17-0.405-0.099c-0.127-0.438-0.235-0.399-0.236-0.407l-0.12,0.072c-0.042,0.038-0.091,0.083-0.144,0.13    c-0.054,0.049-0.107,0.066-0.166,0.051c0.004,0.054-0.022,0.14-0.078,0.257c-0.055,0.117-0.081,0.197-0.078,0.242    c0.006,0.082,0.069,0.14,0.195,0.179c-0.022,0.183-0.028,0.374-0.017,0.572c0.007,0.109,0.032,0.357,0.078,0.744    c0.051,0.306,0.072,0.567,0.061,0.785c0.102,0.004,0.197,0.004,0.287-0.002c0.394-0.023,0.648-0.179,0.766-0.467    c0.04-0.083,0.086-0.386,0.134-0.906C50.367,63.289,50.485,63.014,50.68,62.858"/>
		<path clip-path="url(#SVGID_2_)" d="M58.563,70.586c-0.161-0.045-0.331-0.063-0.511-0.051c-0.156,0.009-0.367,0.047-0.633,0.118    c-0.301,0.071-0.506,0.114-0.618,0.13c-0.134-0.182-0.238-0.438-0.314-0.77c-0.13-0.482-0.208-0.754-0.233-0.817    c0.032-0.056,0.044-0.102,0.043-0.139c-0.007-0.098-0.111-0.18-0.31-0.245c-0.202-0.066-0.303-0.122-0.305-0.168    c-0.003-0.054,0.103-0.141,0.323-0.263c-0.061-0.051-0.108-0.158-0.145-0.324c-0.039-0.167-0.098-0.274-0.18-0.324    c-0.128,0.107-0.346,0.187-0.654,0.236c-0.305,0.049-0.507,0.103-0.605,0.164c0.063,0.704,0,1.94-0.278,2.201    c-0.158-0.019-0.272,0.038-0.344,0.169c-0.103,0.16-0.194,0.257-0.27,0.289l0.105,0.088c-0.086,0.068-0.229,0.104-0.431,0.107    c-0.315,0.01-0.483,0.015-0.505,0.016l-0.116-0.239l0.473-8.144c-0.026-0.461-0.022-0.774,0.014-0.939    c-0.047-0.405,0.051-0.665,0.291-0.779c0.162,0.073,0.36,0.101,0.597,0.087c0.189-0.011,0.486-0.064,0.884-0.16    c0.398-0.095,0.678-0.148,0.834-0.157c0.55-0.033,0.815,0.27,0.796,0.906c-0.016,0.509,0.134,1.166,0.452,1.974    c0.33,0.869,0.509,1.526,0.535,1.969c0.008,0.135,0.188,0.423,0.186,0.559c-0.231,0.123-0.53,0.208-0.898,0.256    c-0.324,0.038-0.652,0.075-0.99,0.113c-0.139-0.682-0.457-1.51-0.599-2.182c-0.168-0.806-0.354-1.466-0.552-1.982l-0.213,3.904    c-0.014,0.336,0.186,0.493,0.601,0.467c0.135-0.006,0.261-0.041,0.383-0.102c0.1-0.033,0.242,0.018,0.43,0.152    c0.016,0.28,0.098,0.444,0.248,0.488c0.174-0.109,0.404-0.217,0.689-0.326c0.253-0.095,0.502-0.187,0.744-0.273    c0.155,0.145,0.263,0.369,0.326,0.675c0.081,0.429,0.135,0.68,0.162,0.752c0.032,0.17,0.148,0.536,0.35,1.095    c0.149,0.445,0.232,0.806,0.249,1.087C58.582,70.34,58.578,70.467,58.563,70.586"/>
		<path clip-path="url(#SVGID_2_)" d="M63.206,61.35l0.018-0.001c-0.135,0.199-0.307,0.236-0.517,0.112    c-0.046-0.007-0.247,0.006-0.606,0.035c-0.302,0.018-0.522,0.003-0.66-0.044c-0.034,0.003-0.1,0.036-0.198,0.101    c-0.097,0.065-0.167,0.098-0.213,0.101c-0.066,0.004-0.105-0.053-0.11-0.17c-0.002-0.019-0.006-0.095-0.014-0.231    c-0.006-0.091-0.049-0.152-0.129-0.183l-0.208,0.161c-0.067,0.05-0.097,0.101-0.093,0.156c0.001,0.045,0.04,0.108,0.113,0.19    c0.071,0.083,0.112,0.142,0.126,0.176c0.003,0.027,0.026,0.435,0.07,1.221c0.018,0.499,0.11,0.896,0.274,1.195    c0.042-0.048,0.143-0.073,0.307-0.079c0.162-0.004,0.269-0.042,0.322-0.107c0.107,0.094,0.285,0.099,0.534,0.016    c0.247-0.082,0.427-0.054,0.537,0.085l-0.033,1.199c-0.102-0.011-0.251-0.061-0.447-0.151c-0.057,0.177-0.169,0.286-0.335,0.333    c-0.068,0.023-0.257,0.042-0.571,0.061c0.008-0.056-0.04-0.112-0.145-0.168c-0.305,0.145-0.421,0.491-0.344,1.039    c0.006-0.054,0.019,0.04,0.033,0.285c0.008,0.153-0.024,0.264-0.098,0.331c-0.191,0.029-0.432-0.013-0.725-0.127    c-0.293-0.115-0.503-0.169-0.626-0.161c-0.055,0.003-0.106,0.011-0.151,0.022l-0.314,0.1L58.5,61.366l-0.06-1.042    c0.419-0.143,0.938-0.233,1.554-0.268c0.483-0.027,1.113-0.024,1.89,0.013c0.051-0.103,0.143,0.03,0.256,0.024    c0.056-0.003,0.14,0.003,0.253,0.019c0.113,0.015,0.199,0.022,0.254,0.019c0.07-0.005,0.131-0.016,0.184-0.038l0.08-0.086    c0.228,0.068,0.349,0.189,0.357,0.36c0.005,0.073-0.017,0.196-0.064,0.372c-0.045,0.174-0.065,0.307-0.059,0.398    C63.148,61.218,63.17,61.289,63.206,61.35 M61.239,70.494c-0.12,0.063-0.304,0.099-0.55,0.115    c-0.325,0.018-0.522,0.034-0.588,0.048c-0.036-0.036-0.079-0.007-0.152-0.293c-0.045-0.188-0.163-0.277-0.353-0.265    c-0.045,0.003-0.099,0.01-0.167,0.024l-0.302,0.016l-0.162-2.773c0.165-0.081,0.369-0.13,0.616-0.145    c0.237-0.014,0.445,0.011,0.629,0.072c-0.005,0.1,0.138,0.143,0.429,0.125l0.319-0.019C61.149,68.178,61.265,69.585,61.239,70.494    "/>
		<path clip-path="url(#SVGID_2_)" d="M69.932,61.587l0.018,0.012c-0.159-0.009-0.666,0.025-1.058,0.075    c-0.334,0.038-0.587,0.044-0.757,0.017c-0.163,0.109-0.222,0.258-0.177,0.446l0.103,0.062c-0.084,0.078-0.114,0.138-0.089,0.182    l0.089,0.089c-0.019,1.609-0.023,2.496-0.014,2.669c0.024,0.424,0.075,0.798,0.149,1.12c-0.067,0.205-0.093,0.437-0.077,0.699    c0.01,0.171,0.052,0.444,0.124,0.816c0.072,0.372,0.167,1.593,0.179,1.785c0.009,0.143,0.005,0.28-0.011,0.407    c-0.154,0.065-0.32,0.1-0.5,0.112c-0.302,0.017-0.628-0.046-0.974-0.188c-0.041,0.038-0.089,0.08-0.142,0.124    c-0.054,0.043-0.069,0.092-0.043,0.144c-0.11,0.034-0.265-0.011-0.463-0.134c-0.106-1.628-0.397-4.943-0.828-8.293    c-0.151,0.136-0.428,0.023-0.719,0.058c-0.346,0.038-0.685-0.014-0.818,0.048c-0.168-0.182-0.13-0.233-0.148-0.532    c-0.017-0.288-0.109-1.002-0.036-1.301c0.016-0.063,0.644-0.027,1.013-0.058c0.504-0.029,0.616,0.091,0.649,0.088    c0.041-0.065,0.287-0.032,0.466-0.043c0.116,0.057,0.24-0.052,0.246,0.03c0.004,0.053,0,0.396-0.039,0.494    c-0.039,0.096-0.058,0.168-0.055,0.214c0.007,0.108,0.084-0.051,0.267,0.011c0.203-0.003,0.41-0.01,0.622-0.022    c0.239,0.021,0.511-0.066,0.49,0.137c0.04-0.058,0.067,0.044,0.408-0.094c0.251-0.114,0.405-0.413,0.355-0.616    c-0.026-0.112,0.126-0.183,0.031-0.131c0.122-0.068,0.01-0.021,0.144-0.073c0.418,0.039,0.652-0.005,0.73-0.01    c0.169-0.01,0.586,0.099,0.706,0.038c0.087,0.158,0.131,0.653,0.136,0.925C69.922,61.329,69.931,61.56,69.932,61.587"/>
		<path clip-path="url(#SVGID_2_)" d="M75.382,67.247l-0.002-0.014c-0.061,0.122-0.091,0.26-0.092,0.414    c-0.009,0.1,0.001,0.24,0.024,0.42c0.022,0.207,0.035,0.353,0.041,0.433c-0.09,0.005-0.45,0.026-1.077,0.062    c-0.38,0.023-0.722,0.074-1.02,0.156l-0.334-0.253c-0.086,0.077-0.116,0.138-0.092,0.182c-0.055-0.006-0.314,0.009-0.774,0.045    c-0.359,0.021-0.629,0.009-0.812-0.035c-0.17,0.163-0.383,0.178-0.638,0.038c-0.093-0.049-0.11-0.141-0.05-0.275    c0.061-0.136,0.032-0.232-0.085-0.29c-0.006-0.289,0.009-0.738,0.04-1.349c0.038-0.545,0.045-0.972,0.027-1.28    c-0.024-0.416-0.092-0.811-0.202-1.187c0.116-0.105,0.254-0.163,0.409-0.172c0.181-0.01,0.397,0.045,0.653,0.167    c0.359,0.168,0.543,0.254,0.554,0.254l0.106,0.087c0.01-0.027,0.057-0.175,0.143-0.443c0.047-0.174,0.124-0.293,0.234-0.353    l0.105,0.074c0.044-0.02,0.185-0.113,0.423-0.282c0.184-0.121,0.309-0.559,0.422-0.566c0.123-0.007,0.246,0.04,0.363,0.142    c0.196,0.071,0.349,0.565,0.422,0.728c0.07,0.163,0.139,0.324,0.206,0.484c-0.505,0.048-0.92,0.068-1.246,0.059    c-0.073,0.104-0.186,0.126-0.333,0.067c-0.151-0.059-0.256-0.041-0.319,0.053c0.009,0.163,0.027,0.457,0.052,0.88    c0.011,0.381,0.028,0.679,0.051,0.896c0.03,0.334,0.083,0.64,0.154,0.916c0.091-0.005,0.517-0.029,1.278-0.074    C74.54,67.201,74.996,67.206,75.382,67.247 M74.861,60.867c-0.101,0.015-0.213,0.025-0.336,0.033    c-0.258,0.014-0.6,0.008-1.032-0.022c-0.529-0.023-0.851-0.036-0.962-0.039c-0.146,0.199-0.166,0.361-0.146,0.704    c0.043,0.741,0.068,1.063,0.073,0.962c0.16,0.063,0.247,0.195,0.258,0.393c0.005,0.272,0.013,0.412,0.025,0.42    c-0.077,0.032-0.111,0.124-0.102,0.278c-0.124-0.027-0.259-0.094-0.4-0.194c-0.188-0.125-0.245,0.319-0.241,0.2l-0.085,0.275    l-0.106-0.074c-0.089,0.013-0.245-0.013-0.469-0.082c-0.224-0.068-0.381-0.137-0.475-0.204c-0.009-0.145,0.013-0.228,0.07-0.249    l-0.231-0.177l-0.092,0.128c-0.201-0.932-0.335-2.574-0.257-3.575c0.428,0.029,0.93-0.046,1.445-0.068    c0.348-0.011,0.837-0.038,1.465-0.083c0.714-0.051,1.231-0.084,1.544-0.104c0.141,0.091,0.217,0.219,0.225,0.381    c0.006,0.1-0.015,0.262-0.065,0.486C74.918,60.481,74.854,60.758,74.861,60.867"/>
		<path clip-path="url(#SVGID_2_)" d="M80.977,66.283l-0.017,0.001c-0.07,0.14-0.094,0.341-0.067,0.604    c0.032,0.369,0.049,0.559,0.049,0.568c-0.055,0.021-0.13-0.006-0.224-0.083c-0.144,0.054-0.211,0.145-0.204,0.27    c0.003,0.019,0.009,0.049,0.022,0.094c0.004,0.054,0.005,0.091,0.008,0.109c0.006,0.099-0.025,0.174-0.088,0.222    c-0.163-0.09-0.379-0.147-0.644-0.172c-0.266-0.025-0.518-0.05-0.754-0.073c-0.006-1.232-0.172-2.438-0.496-3.616    c0,0.009-0.009-0.114-0.022-0.368c0-0.18-0.04-0.31-0.125-0.386l-0.112,0.102c0-0.018,0.036-0.055,0.112-0.109    c0.076-0.055,0.113-0.109,0.109-0.163c-0.002-0.027-0.009-0.054-0.022-0.08l-0.123-0.089c-0.21,0.068-0.307,0.236-0.29,0.507    c0.01,0.182-0.063,0.309-0.214,0.38c0.056,0.042,0.089,0.095,0.094,0.158c0.001,0.036-0.006,0.086-0.018,0.151    c-0.013,0.064-0.02,0.114-0.017,0.15c0.004,0.082,0.048,0.147,0.13,0.197c0.003,0.054,0.03,0.542,0.084,1.464    c0.035,0.588,0.018,1.088-0.048,1.5l0.014,0.231c-0.079-0.005-0.169-0.005-0.27,0.001c-0.112,0.007-0.275,0.023-0.487,0.049    c-0.212,0.025-0.367,0.042-0.47,0.049c-0.413,0.023-0.704-0.046-0.87-0.209l-0.178-5.065c-0.081-0.249-0.134-0.595-0.16-1.037    l-0.058-0.977c-0.038-0.478-0.098-0.847-0.181-1.105c0.035-0.175,0.187-0.27,0.455-0.286c0.169-0.009,0.395,0.014,0.68,0.07    c0.132-0.063,0.315-0.101,0.549-0.114c0.069-0.004,0.174-0.005,0.321-0.005c0.157-0.009,0.269-0.015,0.335-0.02    c0.439-0.024,0.729-0.16,0.873-0.403c0.202-0.003,0.421,0.06,0.659,0.191c0.239,0.132,0.448,0.201,0.631,0.209    c0.475,0.281,0.734,0.746,0.771,1.398c0.008,0.144-0.048,0.719-0.17,1.724l-0.821,0.714c0.141,0.256,0.307,0.813,0.503,1.672    C80.391,65.424,80.642,65.948,80.977,66.283 M79.46,60.521l0.018,0.013c0.015,0.062,0.007-0.16-0.021-0.666    c-0.015-0.244-0.105-0.42-0.268-0.528c-0.092,0.132-0.11-0.176-0.153,0.13c-0.045,0.307-0.12,0.527-0.223,0.659    c-0.282-0.001-0.347-0.169-0.514-0.403c-0.105-0.15-0.156-0.02-0.156-0.03l-0.076,0.062c-0.043,0.039-0.09,0.083-0.144,0.132    c-0.054,0.048-0.109,0.065-0.166,0.05c0.002,0.053-0.024,0.14-0.079,0.257c-0.054,0.116-0.08,0.197-0.079,0.242    c0.006,0.081,0.071,0.141,0.196,0.179c-0.023,0.183-0.028,0.374-0.018,0.572c0.008,0.108,0.033,0.357,0.079,0.745    c0.05,0.305,0.072,0.565,0.062,0.784c0.102,0.004,0.196,0.002,0.287-0.002c0.393-0.023,0.648-0.179,0.764-0.467    c0.04-0.084,0.086-0.386,0.135-0.906C79.147,60.952,79.268,60.677,79.46,60.521"/>
		<path clip-path="url(#SVGID_2_)" d="M25.211,42.925v0.012c-0.05,0.47-0.068,0.795-0.05,0.974    c-0.072,0.029-0.166,0.033-0.282,0.014c-0.148-0.025-0.234-0.037-0.26-0.035c-0.065,0.003-0.116,0.026-0.155,0.069    c-0.094-0.061-0.156-0.087-0.188-0.077c-0.088,0.054-0.128,0.13-0.126,0.229c0.004,0.041,0.02,0.111,0.05,0.212    c0.029,0.102,0.046,0.176,0.047,0.225c0.003,0.066-0.01,0.169-0.038,0.31c-0.031,0.14-0.043,0.256-0.039,0.346    c0.007,0.106,0.027,0.273,0.069,0.502c0.04,0.226,0.062,0.399,0.069,0.513c-0.047,0.224-0.065,0.451-0.053,0.679    c0.014,0.279,0.09,0.653,0.228,1.122c0.025,0.007,0.05,0.009,0.075,0.008c0.057-0.003,0.125-0.044,0.203-0.121    c0.078-0.078,0.144-0.119,0.202-0.121c0.041-0.002,0.086,0.008,0.135,0.03c0.149,0.476,0.224,0.784,0.233,0.923    c0.003,0.066,0.002,0.135-0.001,0.209c-0.221,0.053-0.375-0.022-0.466-0.222c0.012-0.058-0.02-0.119-0.096-0.18l-0.244,0.258    c0.239,0.037,0.333,0.222,0.286,0.552c-0.022,0.067-0.074,0.103-0.155,0.106c-0.14-0.001-0.205-0.002-0.196-0.002l-0.202-0.358    l-0.082,0.102c-0.067-0.17-0.145-0.252-0.234-0.247c-0.049,0.004-0.135,0.044-0.258,0.123c-0.121,0.081-0.225,0.124-0.307,0.126    c-0.065,0.004-0.13-0.013-0.199-0.051c-0.004-0.098-0.015-0.2-0.033-0.306c-0.018-0.105-0.073-0.172-0.164-0.201    c-0.005-0.254,0.003-0.922,0.022-2.006c0.008-0.821,0-1.484-0.027-1.991c-0.011-0.214-0.025-0.423-0.042-0.627    c-0.045-0.064-0.088-0.095-0.128-0.093c-0.034,0.002-0.083,0.039-0.149,0.107c-0.065,0.069-0.125,0.1-0.173,0.096    c-0.004-0.083-0.042-0.214-0.112-0.396c-0.071-0.181-0.108-0.311-0.112-0.394c-0.007-0.14,0.044-0.261,0.154-0.365l0.285,0.073    c0.117-0.163,0.162-0.436,0.143-0.821c-0.003-0.072-0.014-0.189-0.029-0.348c-0.017-0.159-0.026-0.276-0.031-0.35    c-0.03-0.63,0.162-0.955,0.578-0.976c0.155-0.008,0.345,0.019,0.568,0.082l0.276,0.073c0.021,0.105,0.034,0.215,0.04,0.329    c0.008,0.156,0.001,0.384-0.019,0.684c-0.024,0.301-0.031,0.521-0.024,0.66c0.011,0.221,0.05,0.42,0.116,0.596    c0.066-0.003,0.169-0.038,0.309-0.107c0.139-0.069,0.241-0.104,0.308-0.107C25.046,42.761,25.139,42.814,25.211,42.925     M24.358,43.804l-0.016-0.282l-0.088-0.082L24.358,43.804z"/>
		<path clip-path="url(#SVGID_2_)" d="M28.578,42.041l0.013-0.001c-0.029,0.223-0.064,0.446-0.101,0.669    c-0.045,0.257-0.116,0.458-0.215,0.602c-0.018-0.007-0.119-0.056-0.302-0.144c-0.126-0.068-0.24-0.095-0.336-0.083    c-0.075,0.481-0.113,1.135-0.122,1.963c-0.005,1.059-0.014,1.699-0.026,1.921c-0.123-0.009-0.216,0.03-0.276,0.119    c-0.063,0.09-0.12,0.181-0.17,0.273c-0.024,0.051-0.034,0.096-0.031,0.137c0.001,0.066,0.059,0.129,0.169,0.188    c0.109,0.061,0.166,0.128,0.168,0.202c-0.047,0.174-0.149,0.265-0.305,0.273c-0.072,0.004-0.201-0.018-0.383-0.067    c-0.182-0.048-0.311-0.07-0.386-0.066l-0.174-3.511c0.068-0.094,0.097-0.156,0.088-0.188l-0.101-0.07    c0.007-0.146,0.016-0.882,0.024-2.203c0.003-0.894,0.037-1.619,0.1-2.172c-0.009,0.002,0.244-0.016,0.758-0.05    c0.319-0.015,0.524,0.072,0.614,0.264c0.002,0.181-0.017,0.485-0.052,0.914c-0.036,0.395-0.05,0.699-0.04,0.913    c0.013,0.261,0.054,0.497,0.121,0.707C27.89,42.256,28.212,42.059,28.578,42.041 M29.796,42.792    c0.024,0.327,0.044,0.645,0.06,0.957c0.069,1.358,0.047,2.811-0.062,4.359c-0.118,0.104-0.301,0.127-0.545,0.07    c-0.244-0.057-0.421-0.034-0.53,0.07c-0.141-0.182-0.222-0.509-0.246-0.984c-0.034-0.688-0.052-1.044-0.053-1.069    c-0.031-1.721,0.138-3.112,0.502-4.172C29.344,42.132,29.636,42.39,29.796,42.792"/>
		<path clip-path="url(#SVGID_2_)" d="M34.094,44.573c-0.052,0.111-0.076,0.227-0.069,0.35c0.006,0.122,0.013,0.239,0.02,0.356    c-0.014,0.098-0.04,0.198-0.084,0.298c-0.075-0.02-0.138-0.03-0.186-0.027c-0.057,0.003-0.116,0.024-0.176,0.065    c-0.059,0.04-0.105,0.061-0.138,0.061c-0.048,0.004-0.114-0.014-0.199-0.051l-0.568-0.833c0.02,0.245,0.075,0.46,0.166,0.644    c0.045,0.096,0.091,0.193,0.137,0.288c-0.332,0.058-0.52,0.068-0.564,0.028l-0.081,0.104l-0.196-0.261    c-0.154,0.189-0.189,0.465-0.106,0.83c0.104,0.397,0.108,0.684,0.019,0.86c0.123,0.183,0.271,0.268,0.442,0.26    c0.075-0.003,0.139-0.032,0.193-0.083c0.08-0.201,0.16-0.402,0.24-0.602c0.119-0.244,0.252-0.37,0.399-0.378    c0.114-0.005,0.248,0.054,0.402,0.177c0.184,0.064,0.278,0.151,0.283,0.256c0.003,0.066-0.039,0.173-0.125,0.32    c-0.087,0.149-0.128,0.263-0.123,0.345c0,0.034,0.006,0.061,0.015,0.086c-0.119,0.088-0.224,0.221-0.317,0.396    c-0.094,0.177-0.217,0.299-0.369,0.364c-0.133,0.13-0.257,0.196-0.371,0.202c-0.089,0.006-0.224-0.064-0.403-0.206    c-0.179-0.142-0.346-0.211-0.502-0.203c-0.064-0.145-0.223-0.304-0.478-0.481c-0.255-0.175-0.411-0.364-0.471-0.567    c0.002,0.017-0.002-0.048-0.008-0.196c-0.005-0.082-0.041-0.133-0.106-0.154l0.093-0.091c-0.125-0.002-0.188-0.073-0.196-0.212    c-0.001-0.016-0.003-0.05-0.004-0.099c0.006-0.042,0.009-0.073,0.007-0.097c-0.006-0.099-0.037-0.167-0.097-0.207l-0.021-0.428    c-0.011-0.222-0.056-0.379-0.135-0.473c0.08-0.521,0.162-1.042,0.242-1.562c0.132-0.606,0.329-0.916,0.592-0.929    c0.04-0.002,0.081,0.005,0.123,0.018c0.233-0.233,0.518-0.358,0.853-0.375c0.367-0.019,0.774,0.093,1.22,0.333    C33.795,43.271,34.012,43.898,34.094,44.573 M32.405,43.219l-0.08,0.103c-0.057,0.011-0.125-0.018-0.202-0.089l0.015,0.283    c-0.126,0.137-0.175,0.349-0.153,0.636c0.024,0.49,0.037,0.728,0.036,0.712l0.367-0.007c0.176-0.098,0.258-0.263,0.246-0.492    c-0.006-0.115-0.045-0.303-0.121-0.566C32.44,43.536,32.404,43.344,32.405,43.219"/>
		<polygon clip-path="url(#SVGID_2_)" fill-rule="evenodd" clip-rule="evenodd" points="36.971,56.958 37.337,57.168 38.573,53.913     38.161,53.774 36.924,57.031 37.285,57.262   "/>
		<polygon clip-path="url(#SVGID_2_)" fill-rule="evenodd" clip-rule="evenodd" points="37.513,56.508 37.364,56.566 36.971,56.959     37.285,57.261 37.683,56.848 37.527,56.926   "/>
		<polygon clip-path="url(#SVGID_2_)" fill-rule="evenodd" clip-rule="evenodd" points="40.509,56.481 40.685,56.344 37.513,56.507     37.527,56.926 40.699,56.765 40.902,56.613   "/>
		<polygon clip-path="url(#SVGID_2_)" fill-rule="evenodd" clip-rule="evenodd" points="41.943,53.488 41.726,53.218 40.509,56.481     40.902,56.613 42.139,53.356 41.923,53.089   "/>
		<polygon clip-path="url(#SVGID_2_)" fill-rule="evenodd" clip-rule="evenodd" points="38.92,53.592 38.762,53.671 41.942,53.488     41.923,53.089 38.757,53.232 38.601,53.309   "/>
		<polygon clip-path="url(#SVGID_2_)" fill-rule="evenodd" clip-rule="evenodd" points="38.573,53.913 38.529,53.984 38.92,53.592     38.6,53.309 38.207,53.703 38.161,53.774   "/>
		<polygon clip-path="url(#SVGID_2_)" fill-rule="evenodd" clip-rule="evenodd" points="41.208,56.869 41.491,56.744 40.811,56.365     40.595,56.75 41.294,57.138 41.602,57 41.189,56.863   "/>
		<polygon clip-path="url(#SVGID_2_)" fill-rule="evenodd" clip-rule="evenodd" points="42.537,53.862 42.427,53.606 41.189,56.863     41.601,57 42.838,53.743 42.727,53.488   "/>
		<polygon clip-path="url(#SVGID_2_)" fill-rule="evenodd" clip-rule="evenodd" points="42.139,53.356 41.832,53.495 42.536,53.862     42.726,53.488 42.048,53.108 41.725,53.218   "/>
		<polygon clip-path="url(#SVGID_2_)" points="38.379,53.847 38.359,53.841 38.751,53.447 41.695,53.303 41.726,53.219     41.943,53.29 42.139,53.356 42.125,53.392 42.642,53.679 42.838,53.743 42.758,53.955 44.197,57.387 42.981,60.649 41.405,56.934     41.203,57.019 41.19,56.863 41.205,56.823 40.708,56.548 40.595,56.75 40.532,56.556 37.513,56.704 37.121,57.097   "/>
		<polygon clip-path="url(#SVGID_2_)" fill-rule="evenodd" clip-rule="evenodd" points="42.784,60.584 43.184,60.565 41.608,56.85     41.203,57.02 42.778,60.735 43.177,60.716 42.765,60.578   "/>
		<polygon clip-path="url(#SVGID_2_)" fill-rule="evenodd" clip-rule="evenodd" points="44.015,57.479 44.001,57.321 42.765,60.578     43.177,60.715 44.414,57.46 44.401,57.304   "/>
		<polygon clip-path="url(#SVGID_2_)" fill-rule="evenodd" clip-rule="evenodd" points="42.838,53.743 42.438,53.763 44.016,57.479     44.401,57.303 42.824,53.586 42.426,53.606   "/>
		<polygon clip-path="url(#SVGID_2_)" fill-rule="evenodd" clip-rule="evenodd" fill="#FFFFFF" points="42.733,54.583 42.91,54.97     42.976,55.362 42.957,55.75 42.844,56.148 42.649,56.542 42.379,56.889 42.033,57.209 41.613,57.485 41.385,57.583 41.157,57.682     40.9,57.727 40.667,57.779 40.438,57.812 40.19,57.837 39.958,57.806 39.724,57.792 39.522,57.747 39.306,57.673 39.096,57.583     38.914,57.477 38.755,57.358 38.581,57.234 38.438,57.079 38.318,56.907 38.141,56.521 38.075,56.127 38.075,55.734     38.208,55.342 38.379,54.96 38.652,54.595 39,54.273 39.438,54.004 39.646,53.9 39.896,53.808 40.129,53.755 40.366,53.705     40.614,53.678 40.843,53.645 41.071,53.678 41.308,53.691 41.524,53.763 41.739,53.834 41.935,53.901 42.137,54.012 42.302,54.11     42.472,54.254 42.589,54.426   "/>
		<polygon clip-path="url(#SVGID_2_)" fill-rule="evenodd" clip-rule="evenodd" points="42.89,55.225 43.068,55.612 43.125,56.024     43.107,56.412 43.001,56.791 42.825,57.19 42.531,57.551 42.209,57.859 41.771,58.126 41.536,58.246 41.307,58.344 41.072,58.396     40.816,58.442 40.588,58.474 40.367,58.488 40.13,58.474 39.882,58.435 39.679,58.388 39.463,58.315 39.272,58.23 39.07,58.12     38.907,58.021 38.756,57.883 38.605,57.746 38.475,57.55 38.292,57.183 38.227,56.788 38.253,56.383 38.358,56.003 38.534,55.604     38.803,55.256 39.149,54.935 39.587,54.666 39.823,54.549 40.045,54.47 40.288,54.397 40.543,54.352 40.765,54.34 40.994,54.308     41.224,54.34 41.457,54.352 41.682,54.406 41.896,54.477 42.087,54.562 42.296,54.655 42.452,54.772 42.629,54.896 42.746,55.069     42.885,55.245   "/>
		<polygon clip-path="url(#SVGID_2_)" fill-rule="evenodd" clip-rule="evenodd" fill="#FFFFFF" points="43.001,55.677     43.186,56.044 43.244,56.458 43.223,56.844 43.12,57.223 42.922,57.616 42.647,57.984 42.328,58.291 41.889,58.56 41.673,58.684     41.425,58.777 41.188,58.828 40.934,58.874 40.706,58.906 40.482,58.92 40.248,58.906 39.999,58.868 39.795,58.822 39.581,58.749     39.391,58.664 39.188,58.553 39.023,58.453 38.854,58.309 38.729,58.16 38.593,57.982 38.411,57.615 38.343,57.221 38.363,56.835     38.476,56.436 38.652,56.036 38.925,55.669 39.286,55.374 39.707,55.099 39.94,54.982 40.17,54.883 40.405,54.831 40.66,54.786     40.89,54.752 41.111,54.739 41.366,54.758 41.577,54.786 41.798,54.839 42.015,54.909 42.224,55.002 42.408,55.108 42.57,55.205     42.747,55.33 42.863,55.5   "/>
		<polygon clip-path="url(#SVGID_2_)" fill-rule="evenodd" clip-rule="evenodd" points="43.158,56.318 43.334,56.707 43.4,57.1     43.4,57.492 43.269,57.884 43.099,58.265 42.805,58.626 42.478,58.953 42.04,59.221 41.831,59.326 41.582,59.418 41.346,59.47     41.112,59.522 40.862,59.548 40.632,59.581 40.404,59.548 40.168,59.536 39.947,59.483 39.729,59.411 39.54,59.325 39.339,59.214     39.182,59.096 39.024,58.979 38.881,58.82 38.744,58.644 38.586,58.264 38.501,57.863 38.521,57.477 38.632,57.078 38.823,56.704     39.097,56.337 39.443,56.015 39.863,55.741 40.09,55.644 40.321,55.545 40.575,55.499 40.811,55.447 41.038,55.414 41.282,55.407     41.517,55.421 41.733,55.427 41.955,55.48 42.171,55.551 42.38,55.644 42.563,55.749 42.739,55.874 42.896,55.99 43.041,56.149     43.151,56.339   "/>
		<polygon clip-path="url(#SVGID_2_)" fill-rule="evenodd" clip-rule="evenodd" fill="#FFFFFF" points="43.387,56.745     43.569,57.112 43.635,57.506 43.629,57.918 43.523,58.298 43.328,58.691 43.033,59.052 42.713,59.36 42.293,59.635 42.058,59.751     41.809,59.845 41.575,59.897 41.338,59.949 41.091,59.976 40.868,59.989 40.632,59.976 40.404,59.943 40.182,59.891     39.965,59.816 39.776,59.731 39.587,59.646 39.409,59.521 39.259,59.384 39.116,59.227 38.998,59.057 38.815,58.689 38.736,58.27     38.756,57.883 38.88,57.511 39.057,57.111 39.331,56.745 39.673,56.443 40.09,56.167 40.326,56.05 40.554,55.952 40.804,55.925     41.045,55.853 41.275,55.82 41.517,55.814 41.751,55.828 41.962,55.854 42.184,55.907 42.418,55.985 42.609,56.07 42.798,56.156     42.975,56.28 43.126,56.417 43.27,56.574   "/>
		<polygon clip-path="url(#SVGID_2_)" fill-rule="evenodd" clip-rule="evenodd" points="43.564,57.394 43.721,57.773 43.807,58.173     43.786,58.561 43.674,58.959 43.483,59.333 43.209,59.7 42.863,60.021 42.444,60.296 42.216,60.394 41.967,60.486 41.731,60.538     41.497,60.591 41.267,60.623 41.02,60.649 40.79,60.617 40.555,60.603 40.352,60.558 40.117,60.479 39.928,60.394 39.744,60.288     39.567,60.165 39.41,60.046 39.267,59.889 39.148,59.718 38.972,59.332 38.885,58.933 38.907,58.546 39.039,58.152 39.208,57.772     39.483,57.405 39.83,57.085 40.268,56.816 40.478,56.712 40.727,56.62 40.96,56.566 41.196,56.515 41.444,56.489 41.673,56.456     41.902,56.489 42.119,56.496 42.36,56.555 42.576,56.627 42.766,56.712 42.95,56.816 43.126,56.941 43.283,57.06 43.426,57.217       "/>
		<polygon clip-path="url(#SVGID_2_)" fill-rule="evenodd" clip-rule="evenodd" points="21.942,52.393 21.962,52.269 20.717,55.543     21.109,55.675 22.354,52.398 22.359,52.314   "/>
		<polygon clip-path="url(#SVGID_2_)" fill-rule="evenodd" clip-rule="evenodd" points="21.909,52.229 21.916,52.209 21.942,52.393     22.36,52.315 22.314,52.125 22.321,52.104   "/>
		<polygon clip-path="url(#SVGID_2_)" fill-rule="evenodd" clip-rule="evenodd" points="21.864,52.04 21.909,52.229 22.322,52.104     22.275,51.915   "/>
		
			<rect x="21.953" y="51.677" transform="matrix(-0.2949 -0.9555 0.9555 -0.2949 -21.0424 88.2539)" clip-path="url(#SVGID_2_)" fill-rule="evenodd" clip-rule="evenodd" width="0.179" height="0.429"/>
		<polygon clip-path="url(#SVGID_2_)" fill-rule="evenodd" clip-rule="evenodd" points="21.767,51.679 21.767,51.679 21.811,51.868     22.224,51.744 22.178,51.554 22.171,51.574   "/>
		<polygon clip-path="url(#SVGID_2_)" fill-rule="evenodd" clip-rule="evenodd" points="21.714,51.442 21.714,51.508 21.767,51.678     22.172,51.573 22.12,51.402 22.138,51.476   "/>
		<polygon clip-path="url(#SVGID_2_)" fill-rule="evenodd" clip-rule="evenodd" points="22.132,51.364 21.72,51.291 21.715,51.442     22.139,51.475 22.144,51.324 21.734,51.252 22.125,51.383   "/>
		<polygon clip-path="url(#SVGID_2_)" fill-rule="evenodd" clip-rule="evenodd" fill="#4C4849" points="22.489,60.898 22.45,60.689     22.011,60.76 22.043,60.989   "/>
		<polygon clip-path="url(#SVGID_2_)" fill-rule="evenodd" clip-rule="evenodd" points="23.399,58.167 23.413,58.062 22.176,61.318     22.566,61.448 23.804,58.193 23.797,58.082   "/>
		<polygon clip-path="url(#SVGID_2_)" fill-rule="evenodd" clip-rule="evenodd" points="23.368,57.937 23.4,58.166 23.798,58.082     23.766,57.852 23.347,57.93   "/>
		<polygon clip-path="url(#SVGID_2_)" fill-rule="evenodd" clip-rule="evenodd" points="23.308,57.72 23.347,57.93 23.766,57.852     23.706,57.636   "/>
		<polygon clip-path="url(#SVGID_2_)" fill-rule="evenodd" clip-rule="evenodd" points="23.256,57.485 23.268,57.511 23.308,57.72     23.707,57.636 23.675,57.405 23.687,57.433   "/>
		<polygon clip-path="url(#SVGID_2_)" fill-rule="evenodd" clip-rule="evenodd" points="23.648,57.289 23.229,57.235 23.255,57.484     23.688,57.433 23.653,57.204 23.234,57.151   "/>
		<path clip-path="url(#SVGID_2_)" fill="#4C4849" d="M20.72,54.894l-0.198,0.061L20.72,54.894z"/>
		<polygon clip-path="url(#SVGID_2_)" fill="#4C4849" points="20.926,55.578 20.933,55.558 21.035,55.565 21.11,55.675     20.927,55.614   "/>
		<polygon clip-path="url(#SVGID_2_)" points="20.476,54.765 20.686,54.725 20.692,54.575 21.936,51.299 21.929,51.317     21.929,51.45 21.961,51.613 22.028,51.811 22.08,51.979 22.125,52.17 22.159,52.333 22.354,52.398 21.109,55.675 21.036,55.564     20.934,55.558 20.927,55.578 20.928,55.615 21.109,55.675 20.93,55.664 20.934,55.812 20.808,55.657 20.705,55.648 20.679,55.465     20.753,55.45 20.834,55.24 20.625,55.296 20.566,55.144 20.522,54.955 20.721,54.894 20.522,54.955 20.528,54.935   "/>
		<polygon clip-path="url(#SVGID_2_)" points="20.92,55.394 30.025,55.095 30.26,55.109 30.299,55.122 30.523,55.175 30.543,55.182     30.777,55.26 31.006,55.358 31.026,55.365 31.242,55.502 31.281,55.516 31.451,55.66 31.503,55.699 31.626,55.849 31.641,55.875     31.727,56.013 31.732,56.06 31.331,56.181 31.268,56.079 31.261,56.099 31.156,55.954 31.158,55.954 31.02,55.843 31.052,55.875     30.831,55.759 30.831,55.756 30.6,55.66 30.404,55.595 30.181,55.541 30.221,55.555 30.012,55.527 30.012,55.509 20.934,55.812       "/>
		<polygon clip-path="url(#SVGID_2_)" points="31.321,56.184 31.33,56.18 31.354,56.217   "/>
		<polygon clip-path="url(#SVGID_2_)" fill-rule="evenodd" clip-rule="evenodd" points="36.185,63.838 36.185,63.708 34.941,66.983     35.354,67.121 36.597,63.846 36.597,63.714   "/>
		<polygon clip-path="url(#SVGID_2_)" fill-rule="evenodd" clip-rule="evenodd" points="32.588,52.96 32.562,52.908 36.185,63.838     36.596,63.715 32.977,52.784 32.968,52.738   "/>
		<polygon clip-path="url(#SVGID_2_)" fill-rule="evenodd" clip-rule="evenodd" points="32.518,52.85 32.506,52.823 32.588,52.959     32.969,52.738 32.885,52.6 32.865,52.594 32.497,52.843   "/>
		<polygon clip-path="url(#SVGID_2_)" fill-rule="evenodd" clip-rule="evenodd" points="32.433,52.71 32.399,52.679 32.498,52.842     32.866,52.593 32.727,52.417 32.693,52.382   "/>
		<polygon clip-path="url(#SVGID_2_)" fill-rule="evenodd" clip-rule="evenodd" points="32.289,52.62 32.256,52.587 32.433,52.71     32.694,52.383 32.518,52.26 32.485,52.226   "/>
		<polygon clip-path="url(#SVGID_2_)" fill-rule="evenodd" clip-rule="evenodd" points="32.092,52.488 32.073,52.482 32.289,52.62     32.485,52.226 32.262,52.109 32.243,52.102   "/>
		<polygon clip-path="url(#SVGID_2_)" fill-rule="evenodd" clip-rule="evenodd" points="31.884,52.396 31.837,52.402 32.092,52.488     32.243,52.102 32.014,52.003 31.994,51.997 31.858,52.409   "/>
		<polygon clip-path="url(#SVGID_2_)" fill-rule="evenodd" clip-rule="evenodd" points="31.647,52.318 31.622,52.331 31.857,52.409     31.995,51.997 31.759,51.918 31.641,52.338   "/>
		<polygon clip-path="url(#SVGID_2_)" fill-rule="evenodd" clip-rule="evenodd" points="31.465,52.279 31.426,52.267 31.641,52.338     31.759,51.918 31.516,51.859 31.497,51.853   "/>
		<polygon clip-path="url(#SVGID_2_)" fill-rule="evenodd" clip-rule="evenodd" points="31.255,52.251 31.249,52.271 31.465,52.278     31.497,51.854 31.269,51.818 31.242,51.833   "/>
		<polygon clip-path="url(#SVGID_2_)" fill-rule="evenodd" clip-rule="evenodd" points="22.374,52.405 22.151,52.55 31.254,52.251     31.243,51.833 22.159,52.136 21.961,52.268 22.354,52.399   "/>
		<polygon clip-path="url(#SVGID_2_)" fill="#4C4849" points="24.66,62.366 24.628,62.35 24.648,62.34   "/>
		<path clip-path="url(#SVGID_2_)" fill="#4C4849" d="M29.578,63.84l-0.039,0.442L29.578,63.84z"/>
		<path clip-path="url(#SVGID_2_)" d="M22.043,60.99l0.04,0.211l0.079,0.222l0.098,0.164l0.556,0.295l0.556,0.296l0.536,0.287    l0.543,0.269l0.02,0.007l0.55,0.249l0.549,0.249l0.594,0.243l0.601,0.222l0.021,0.007l0.64,0.171l0.642,0.171l0.019,0.006    l0.707,0.105l0.725,0.112l0.02,0.007l0.79,0.046l0.028-0.015l0.843,0.021l0.903-0.025l0.956-0.052l0.196-0.132l1.236-3.256    l-0.21-0.289L34.295,61l-0.067-0.082l0.047-0.12l-0.137,0.007l-0.059-0.074l-0.03,0.081l-0.708,0.044h-0.917l-0.843-0.021    l-0.772-0.039l-0.752-0.098l-0.699-0.125l-0.643-0.171l-0.64-0.171l-0.602-0.222l-0.583-0.218l-0.548-0.248l-0.544-0.27    l-0.561-0.275L24.7,58.712l-0.537-0.29l-0.371-0.197l0.012-0.031l-0.196-0.067l-0.053-0.235l-0.038-0.211l-0.016-0.071    l0.147-0.321l-0.207-0.069l-0.009-0.004l-0.197-0.064L22,60.407l-0.014,0.105l0.033,0.229L22.043,60.99z M22.195,60.475    l0.008,0.04l-0.022-0.01L22.195,60.475z"/>
		<polygon clip-path="url(#SVGID_2_)" fill-rule="evenodd" clip-rule="evenodd" points="33.339,61.053 34.295,61.001 34.281,60.581     33.326,60.633   "/>
		
			<rect x="32.432" y="60.646" transform="matrix(-0.9996 0.0287 -0.0287 -0.9996 67.499 120.7426)" clip-path="url(#SVGID_2_)" fill-rule="evenodd" clip-rule="evenodd" width="0.901" height="0.421"/>
		<polygon clip-path="url(#SVGID_2_)" fill-rule="evenodd" clip-rule="evenodd" points="31.574,61.052 31.594,61.059 32.438,61.079     32.425,60.659 31.581,60.64 31.607,60.627 31.569,61.073   "/>
		<polygon clip-path="url(#SVGID_2_)" fill-rule="evenodd" clip-rule="evenodd" points="30.763,61 30.784,61.007 31.569,61.072     31.607,60.626 30.816,60.581 30.834,60.587   "/>
		<polygon clip-path="url(#SVGID_2_)" fill-rule="evenodd" clip-rule="evenodd" points="30.03,60.907 30.763,61 30.835,60.587     30.109,60.475   "/>
		<polygon clip-path="url(#SVGID_2_)" fill-rule="evenodd" clip-rule="evenodd" points="29.311,60.776 29.33,60.782 30.03,60.907     30.108,60.476 29.383,60.363 29.402,60.369   "/>
		<polygon clip-path="url(#SVGID_2_)" fill-rule="evenodd" clip-rule="evenodd" points="28.671,60.605 29.311,60.776 29.402,60.37     28.762,60.199 28.663,60.625   "/>
		<polygon clip-path="url(#SVGID_2_)" fill-rule="evenodd" clip-rule="evenodd" points="28.003,60.448 28.024,60.455 28.663,60.625     28.762,60.199 28.121,60.028 28.141,60.035   "/>
		<polygon clip-path="url(#SVGID_2_)" fill-rule="evenodd" clip-rule="evenodd" points="27.4,60.225 27.4,60.225 28.003,60.448     28.142,60.035 27.539,59.812 27.56,59.818 27.382,60.219   "/>
		<polygon clip-path="url(#SVGID_2_)" fill-rule="evenodd" clip-rule="evenodd" points="26.806,59.982 27.383,60.218 27.559,59.817     26.985,59.582   "/>
		<polygon clip-path="url(#SVGID_2_)" fill-rule="evenodd" clip-rule="evenodd" points="26.257,59.733 26.806,59.983 26.985,59.582     26.427,59.354   "/>
		<polygon clip-path="url(#SVGID_2_)" fill-rule="evenodd" clip-rule="evenodd" points="25.694,59.458 25.708,59.484 26.257,59.732     26.427,59.354 25.864,59.078 25.883,59.084 25.688,59.478   "/>
		<polygon clip-path="url(#SVGID_2_)" fill-rule="evenodd" clip-rule="evenodd" points="25.151,59.189 25.688,59.478 25.883,59.085     25.341,58.815 25.146,59.209   "/>
		<polygon clip-path="url(#SVGID_2_)" fill-rule="evenodd" clip-rule="evenodd" points="24.615,58.901 25.146,59.209 25.342,58.815     24.806,58.527 24.595,58.895   "/>
		<polygon clip-path="url(#SVGID_2_)" fill-rule="evenodd" clip-rule="evenodd" points="24.059,58.605 24.595,58.895 24.806,58.527     24.269,58.238   "/>
		<polygon clip-path="url(#SVGID_2_)" fill-rule="evenodd" clip-rule="evenodd" points="23.805,58.193 23.504,58.31 24.059,58.605     24.269,58.238 23.714,57.943 23.412,58.062   "/>
		<polygon clip-path="url(#SVGID_2_)" fill-rule="evenodd" clip-rule="evenodd" points="80.5,52.291 79.255,55.566 83.315,56.924     84.258,54.749 84.286,54.54 84.292,54.323 84.258,54.093 84.18,53.872 84.049,53.674 83.944,53.463 83.774,53.255 83.6,53.065     83.416,52.894 83.213,52.716 83.003,52.559 82.8,52.447 82.604,52.317 82.375,52.219 82.172,52.107 81.977,52.041 81.8,51.983     81.589,51.957 81.401,51.937 81.218,51.963 81.035,51.989 80.839,52.055 80.668,52.172   "/>
		<polygon clip-path="url(#SVGID_2_)" fill-rule="evenodd" clip-rule="evenodd" points="83.135,56.819 83.389,56.708 79.328,55.351     79.189,55.762 83.251,57.12 83.526,57.017   "/>
		<polygon clip-path="url(#SVGID_2_)" points="20.476,54.568 20.495,54.508 21.733,51.252 22.125,51.383 20.927,54.6 20.901,54.731     20.895,54.686 20.476,54.764 20.47,54.718   "/>
		<polygon clip-path="url(#SVGID_2_)" fill="#4C4849" points="40.391,62.275 40.318,62.319 40.313,62.314   "/>
		<path clip-path="url(#SVGID_2_)" d="M20.626,55.296l0.046,0.19l0.007-0.021l0.317-0.067l-0.082,0.212l9.105-0.298l0.215,0.007    l0.236,0.078l0.235,0.079l0.236,0.08l0.216,0.136l0.176,0.125l0.124,0.15l0.077,0.153l-0.213,0.064l3.621,10.932l0.211,0.004    l0.005,0.133h0.326l0.308-0.006l0.281,0.006l0.256-0.046l0.261-0.065l0.261-0.131l0.242-0.203l0.287-0.276l0.007-0.019    l0.163-0.229l0.191-0.242l0.216-0.256l0.15-0.255l0.19-0.308l0.196-0.263l0.163-0.294l0.209-0.301l0.17-0.248l0.242-0.27    l0.198-0.262l0.228-0.23l0.203-0.215l0.216-0.189l0.21-0.171l0.24-0.138l0.053-0.026l-0.155-0.149l0.155,0.149l0.243-0.269    l0.223-0.209l0.197-0.197l0.208-0.17l0.203-0.151l0.216-0.125l0.189-0.11l0.209-0.105l0.237-0.052l0.228-0.099l0.236-0.052    l0.274-0.04l0.301-0.052l0.333-0.019l0.361-0.033l0.353-0.013l0.019,0.006l39.29-2.94l0.228-0.032l0.209-0.041l0.19-0.045    l0.197-0.065l0.182-0.092l0.19-0.111l0.159-0.145l0.181-0.156l0.04-0.054l0.687-1.604l-0.359-0.23l0.159,0.154l-0.025,0.021    l-0.174-0.122l-0.172,0.401l-0.116,0.07l-0.151,0.06l-0.177,0.072l-0.164,0.032l-0.209,0.04l-0.207,0.039l-39.31,2.934    l-0.25,0.026l-0.241,0.007l-0.241,0.006l-0.256,0.045h-0.261l-0.228,0.032l-0.251,0.028l-0.228,0.032l-0.256,0.046l-0.228,0.033    l-0.235,0.051l-0.261,0.066l-0.236,0.053l-0.249,0.09l-0.249,0.093l-0.235,0.117l-0.465,0.283l-0.47,0.431l-0.498,0.512    l-0.478,0.582l-0.464,0.609l-0.399,0.544l-0.392,0.524l-0.328,0.393l-0.189,0.047l-0.163,0.032l-0.203,0.02h-0.197h-0.196    l-0.17-0.012l-0.216-0.008l-0.189-0.02L32.772,52.87l-0.078-0.158l-0.123-0.151l-0.177-0.125l-0.236-0.144l-0.229-0.099    l-0.235-0.078l-0.222-0.054l-0.217-0.005l-9.097,0.277l-1.094,2.882l-0.005-0.037L20.626,55.296z M85.999,55.599l0.013-0.029    l0.15,0.143L85.999,55.599z"/>
		<polygon clip-path="url(#SVGID_2_)" fill-rule="evenodd" clip-rule="evenodd" points="84.625,56.4 84.86,56.348 85.07,56.309     85.26,56.263 85.456,56.197 85.638,56.106 85.829,55.994 85.979,55.87 86.162,55.712 85.849,55.411 85.71,55.562 85.566,55.667     85.428,55.752 85.279,55.811 85.134,55.851 84.965,55.902 84.783,55.928 84.58,55.948   "/>
		<polygon clip-path="url(#SVGID_2_)" fill-rule="evenodd" clip-rule="evenodd" points="45.342,59.321 84.625,56.4 84.579,55.948     45.292,58.888   "/>
		<polygon clip-path="url(#SVGID_2_)" fill-rule="evenodd" clip-rule="evenodd" points="41.489,60.021 41.718,59.922 41.943,59.845     42.209,59.759 42.432,59.681 42.673,59.608 42.902,59.576 43.131,59.543 43.385,59.498 43.594,59.458 43.838,59.452     44.087,59.426 44.334,59.399 44.583,59.374 44.805,59.36 45.073,59.342 45.342,59.322 45.292,58.889 45.041,58.916 44.793,58.94     44.531,58.94 44.283,58.967 44.042,58.974 43.806,59.026 43.563,59.033 43.295,59.052 43.059,59.104 42.823,59.157 42.569,59.203     42.307,59.269 42.085,59.346 41.816,59.431 41.549,59.516 41.313,59.634   "/>
		<polygon clip-path="url(#SVGID_2_)" fill-rule="evenodd" clip-rule="evenodd" points="37.969,63.912 38.055,63.852 38.232,63.649     38.389,63.441 38.577,63.198 38.774,62.935 38.998,62.661 39.201,62.378 39.429,62.084 39.658,61.789 39.893,61.474     40.136,61.206 40.371,60.957 40.613,60.689 40.816,60.473 41.071,60.296 41.279,60.125 41.489,60.02 41.313,59.634 41.045,59.785     40.816,59.948 40.547,60.164 40.293,60.406 40.056,60.657 39.822,60.905 39.56,61.232 39.331,61.527 39.101,61.822 38.872,62.116     38.67,62.398 38.448,62.673 38.251,62.935 38.062,63.178 37.904,63.388 37.761,63.558 37.839,63.517   "/>
		<polygon clip-path="url(#SVGID_2_)" fill-rule="evenodd" clip-rule="evenodd" fill="#FFFFFF" points="30.445,52.068     31.255,52.055 31.321,52.055 24.356,49.727 24.004,49.937 30.438,52.088   "/>
		<polygon clip-path="url(#SVGID_2_)" fill-rule="evenodd" clip-rule="evenodd" fill="#FFFFFF" points="30.445,52.068     22.158,52.333 22.125,52.169 22.079,51.98 22.028,51.812 21.962,51.612 21.929,51.449 21.929,51.318 21.981,51.161 22.125,51.055     22.465,50.82 22.845,50.597 23.224,50.375 23.604,50.152 23.964,49.923 24.004,49.937 30.438,52.088   "/>
		<polygon clip-path="url(#SVGID_2_)" fill="#FFFFFF" points="25.407,57.111 31.052,56.793 33.262,57.686 34.041,60 34.276,60.799     33.341,60.856 32.425,60.856 31.581,60.836 30.81,60.797 30.057,60.698 29.358,60.573 28.715,60.403 28.075,60.232 27.474,60.009     26.89,59.792 26.343,59.543 25.799,59.274 25.237,59 24.7,58.711 24.164,58.422 23.609,58.126 23.556,57.892 23.517,57.68     23.465,57.446 23.433,57.215   "/>
		<polygon clip-path="url(#SVGID_2_)" fill-rule="evenodd" clip-rule="evenodd" fill="#FFFFFF" points="39.625,57.76 39.705,57.851     40.431,58.291 40.667,57.91 39.939,57.472 40.013,57.584 39.625,57.76 39.652,57.812 39.705,57.851   "/>
		<polygon clip-path="url(#SVGID_2_)" fill-rule="evenodd" clip-rule="evenodd" fill="#FFFFFF" points="33.169,57.895     33.046,57.744 34.08,60.864 34.491,60.739 33.458,57.62 33.347,57.496 33.458,57.62 33.424,57.521 33.347,57.496   "/>
		<polygon clip-path="url(#SVGID_2_)" fill-rule="evenodd" clip-rule="evenodd" fill="#FFFFFF" points="31.072,56.996     30.967,56.984 33.169,57.894 33.347,57.495 31.145,56.583 31.058,56.577 31.145,56.583 31.104,56.57 31.058,56.577   "/>
		<polygon clip-path="url(#SVGID_2_)" fill-rule="evenodd" clip-rule="evenodd" fill="#FFFFFF" points="23.654,57.203     23.446,57.439 31.072,56.996 31.059,56.577 23.433,57.019 23.23,57.236 23.433,57.019 23.189,57.025 23.23,57.236   "/>
		<polygon clip-path="url(#SVGID_2_)" fill-rule="evenodd" clip-rule="evenodd" fill="#FFFFFF" points="23.713,57.944     23.797,58.082 23.792,57.97 23.767,57.852 23.758,57.74 23.726,57.642 23.72,57.531 23.693,57.413 23.66,57.314 23.653,57.203     23.229,57.236 23.229,57.366 23.25,57.505 23.282,57.603 23.288,57.714 23.32,57.812 23.347,57.93 23.393,58.055 23.399,58.167     23.503,58.31 23.399,58.167 23.433,58.265 23.503,58.31   "/>
		<polygon clip-path="url(#SVGID_2_)" fill-rule="evenodd" clip-rule="evenodd" fill="#FFFFFF" points="34.086,60.844     34.261,60.575 33.327,60.633 32.424,60.659 31.607,60.627 30.815,60.581 30.108,60.475 29.402,60.37 28.762,60.2 28.141,60.035     27.539,59.812 26.984,59.582 26.427,59.354 25.884,59.085 25.342,58.815 24.806,58.528 24.269,58.239 23.713,57.944 23.503,58.31     24.059,58.606 24.595,58.895 25.146,59.209 25.688,59.478 26.257,59.733 26.806,59.983 27.4,60.225 28.003,60.448 28.663,60.626     29.311,60.777 30.03,60.907 30.783,61.007 31.568,61.073 32.438,61.079 33.339,61.053 34.314,61.008 34.491,60.739 34.314,61.008     34.584,60.988 34.491,60.739 34.079,60.864   "/>
		<polygon clip-path="url(#SVGID_2_)" fill-rule="evenodd" clip-rule="evenodd" fill="#FFFFFF" points="45.291,58.889     45.002,58.903 44.681,58.948 44.394,58.959 44.08,58.987 43.779,59.039 43.459,59.084 43.139,59.131 42.83,59.202 42.522,59.273     42.256,59.36 41.962,59.458 41.686,59.562 41.451,59.681 41.169,59.806 40.94,59.969 40.73,60.139 40.993,60.467 41.194,60.315     41.391,60.185 41.606,60.06 41.855,59.969 42.099,59.831 42.36,59.766 42.667,59.695 42.935,59.608 43.229,59.576 43.491,59.512     43.806,59.485 44.106,59.433 44.427,59.387 44.741,59.36 45.034,59.328 45.342,59.322   "/>
		<polygon clip-path="url(#SVGID_2_)" fill-rule="evenodd" clip-rule="evenodd" fill="#FFFFFF" points="84.58,55.949 45.291,58.889     45.343,59.322 84.625,56.401   "/>
		<polygon clip-path="url(#SVGID_2_)" fill-rule="evenodd" clip-rule="evenodd" fill="#FFFFFF" points="85.312,53.549     85.475,53.779 85.645,53.989 85.724,54.212 85.849,54.429 85.914,54.626 85.935,54.829 85.94,55.005 85.928,55.175 85.88,55.314     85.815,55.444 85.731,55.569 85.579,55.692 85.423,55.773 85.174,55.863 84.913,55.929 84.58,55.949 84.625,56.401 84.986,56.368     85.3,56.276 85.573,56.171 85.815,56.034 86.038,55.89 86.194,55.68 86.28,55.489 86.357,55.255 86.352,55.011 86.366,54.776     86.313,54.54 86.227,54.272 86.129,54.042 85.999,53.779 85.829,53.505 85.659,53.295   "/>
		<polygon clip-path="url(#SVGID_2_)" fill-rule="evenodd" clip-rule="evenodd" fill="#FFFFFF" points="80.63,51.308 80.984,51.295     81.342,51.328 81.708,51.406 82.062,51.459 82.395,51.569 82.729,51.682 83.049,51.833 83.351,51.977 83.664,52.147     83.952,52.331 84.26,52.52 84.482,52.704 84.716,52.914 84.946,53.144 85.135,53.359 85.312,53.549 85.659,53.295 85.456,53.052     85.227,52.823 84.998,52.594 84.744,52.377 84.462,52.174 84.181,51.971 83.894,51.787 83.566,51.59 83.226,51.433 82.879,51.295     82.526,51.178 82.153,51.053 81.787,50.974 81.414,50.914 80.989,50.881 80.616,50.888   "/>
		<polygon clip-path="url(#SVGID_2_)" fill-rule="evenodd" clip-rule="evenodd" fill="#FFFFFF" points="45.867,52.507 80.63,51.308     80.616,50.888 45.873,52.094   "/>
		<polygon clip-path="url(#SVGID_2_)" fill-rule="evenodd" clip-rule="evenodd" fill="#FFFFFF" points="40.379,51.632     40.707,51.765 41.052,51.836 41.387,51.947 41.734,52.02 42.099,52.1 42.441,52.19 42.812,52.25 43.147,52.296 43.494,52.368     43.852,52.4 44.205,52.452 44.553,52.461 44.886,52.506 45.24,52.493 45.559,52.513 45.867,52.507 45.873,52.094 45.546,52.094     45.226,52.074 44.925,52.062 44.585,52.034 44.245,52.008 43.904,51.981 43.571,51.936 43.219,51.882 42.872,51.812     42.539,51.765 42.198,51.673 41.844,51.619 41.504,51.528 41.145,51.429 40.844,51.352 40.51,51.24 40.374,51.653   "/>
		<polygon clip-path="url(#SVGID_2_)" fill-rule="evenodd" clip-rule="evenodd" fill="#FFFFFF" points="28.653,48.412     29.249,48.326 29.81,48.274 30.347,48.235 30.838,48.202 31.303,48.183 31.721,48.235 32.153,48.249 32.513,48.281 32.885,48.341     33.232,48.413 33.558,48.478 33.853,48.577 34.166,48.682 34.415,48.787 34.723,48.912 34.966,49.036 35.246,49.173     35.527,49.312 35.802,49.469 36.077,49.627 36.352,49.783 36.639,49.967 36.921,50.106 37.227,50.295 37.569,50.453     37.895,50.649 38.26,50.793 38.613,50.976 39.012,51.154 39.445,51.299 39.903,51.495 40.374,51.653 40.51,51.24 40.039,51.082     39.576,50.905 39.189,50.754 38.784,50.597 38.412,50.407 38.09,50.256 37.763,50.059 37.443,49.909 37.129,49.738 36.835,49.574     36.561,49.418 36.274,49.233 35.998,49.076 35.717,48.938 35.435,48.8 35.18,48.649 34.899,48.512 34.592,48.387 34.304,48.269     33.991,48.164 33.656,48.053 33.311,47.98 32.957,47.928 32.571,47.842 32.173,47.796 31.759,47.789 31.282,47.783 30.825,47.783     30.296,47.803 29.759,47.842 29.189,47.913 28.6,47.979 28.634,48.404   "/>
		<polygon clip-path="url(#SVGID_2_)" fill-rule="evenodd" clip-rule="evenodd" fill="#FFFFFF" points="22.235,51.246     22.578,51.011 22.956,50.788 23.336,50.565 23.721,50.322 24.074,50.113 24.474,49.897 24.845,49.694 25.232,49.518     25.646,49.328 26.056,49.138 26.461,48.967 26.88,48.823 27.333,48.713 27.743,48.587 28.195,48.476 28.633,48.404 28.601,47.979     28.109,48.077 27.646,48.162 27.188,48.292 26.756,48.411 26.324,48.594 25.879,48.751 25.475,48.921 25.062,49.111 24.644,49.32     24.245,49.536 23.873,49.739 23.492,49.962 23.111,50.184 22.733,50.407 22.374,50.637 22.014,50.866 22.216,51.239   "/>
		<polygon clip-path="url(#SVGID_2_)" fill-rule="evenodd" clip-rule="evenodd" fill="#FFFFFF" points="22.158,52.137     22.379,52.321 22.314,52.125 22.274,51.914 22.223,51.744 22.177,51.554 22.151,51.436 22.132,51.365 22.163,51.266     22.216,51.239 22.014,50.866 21.825,51.043 21.726,51.272 21.7,51.482 21.766,51.679 21.811,51.868 21.864,52.04 21.916,52.21     21.948,52.373 22.151,52.55 21.948,52.373 21.955,52.55 22.151,52.55   "/>
		<polygon clip-path="url(#SVGID_2_)" fill="#FFFFFF" points="38.214,53.683 38.209,53.704 38.208,53.703   "/>
		<polygon clip-path="url(#SVGID_2_)" fill="#FFFFFF" points="38.116,53.781 38.208,53.702 38.155,53.926   "/>
		<polygon clip-path="url(#SVGID_2_)" fill="#FFFFFF" points="43.969,56.284 51.136,58.681 50.359,58.727 50.353,58.746     44.131,56.667   "/>
		<path clip-path="url(#SVGID_2_)" fill="#FFFFFF" d="M22.151,52.549l9.104-0.298l0.19,0.02l0.176,0.059l0.236,0.079l0.216,0.072    l0.196,0.132l0.144,0.092l0.084,0.137l0.065,0.065l3.622,10.931l0.053,0.171l0.177-0.006l0.182-0.026l0.209,0.026l0.256,0.019    l0.242-0.006l0.235,0.012l0.217-0.058l0.242-0.072l0.195-0.131l0.236-0.25l0.196-0.261l0.183-0.222l0.183-0.222l0.158-0.211    l0.15-0.189l0.131-0.198l0.156-0.209l0.132-0.196l0.15-0.19l0.151-0.19l0.163-0.164l0.17-0.183l0.196-0.197l0.196-0.196    l0.25-0.223l-0.133-0.167l0.198-0.161l0.221-0.144l0.257-0.112l0.235-0.117l0.255-0.111l0.287-0.079l0.296-0.098l0.287-0.078    l0.274-0.04l0.301-0.052l0.321-0.046l0.3-0.052l0.314-0.027l0.315-0.025l0.293-0.032l0.289-0.014l5.05-0.365l-6.222-2.079    l-0.162-0.383l7.167,2.397l33.477-2.504l0.62-0.098l0.465-0.216l0.32-0.308l0.118-0.353v-0.394l0.007-0.019l-0.112-0.453    l-0.222-0.445l-0.321-0.478L85.3,53.196l-0.211-0.223l-0.229-0.229l-0.241-0.19l-0.255-0.216l-0.288-0.185l-0.307-0.189    l-0.307-0.191l-0.327-0.131l-0.323-0.151l-0.352-0.117l-0.372-0.125l-0.352-0.053l-0.368-0.079l-0.379-0.04l-0.374,0.007    l-5.054,0.189l-29.688,1.017h-0.327l-0.306,0.007l-0.348-0.008l-0.333-0.045l-0.341-0.027l-0.34-0.027l-0.333-0.045l-0.354-0.053    l-0.353-0.051l-0.346-0.073l-0.346-0.072l-0.347-0.073l-0.36-0.098l-0.34-0.093l-0.32-0.085l-0.334-0.11l-0.471-0.159    l-0.463-0.176l-0.407-0.159L38.7,50.788l-0.355-0.184l-0.34-0.157l-0.352-0.184l-0.323-0.151l-0.305-0.189l-0.275-0.159    l-0.295-0.163l-0.275-0.158l-0.293-0.164l-0.275-0.157l-0.261-0.131l-0.276-0.157l-0.28-0.138l-0.289-0.118l-0.275-0.092    l-0.313-0.105l-0.334-0.111l-0.32-0.085l-0.352-0.055l-0.373-0.058l-0.379-0.039L31.733,48l-0.451-0.021L30.818,48l-0.484,0.012    l-0.542,0.059l-0.563,0.053l-0.615,0.078l-0.458,0.066l-0.45,0.11l-0.454,0.111l-0.417,0.144l-0.446,0.159l-0.424,0.163    l-0.405,0.169l-0.413,0.19l-0.391,0.198l-0.4,0.215l6.352,2.125l-8.55,0.285L22.151,52.549z M80.373,52.729l0.041-0.249    l0.085-0.189l0.157-0.145l0.235-0.118l0.275-0.039l0.149,0.007l0.172,0.013l0.163,0.032l0.163,0.033l0.196,0.065l0.177,0.059    l0.19,0.086l0.203,0.111l0.168,0.079l0.178,0.125l0.157,0.117l0.17,0.144l0.177,0.125l0.123,0.151l0.151,0.137l0.124,0.151    l0.229,0.296l0.118,0.302l0.06,0.15l0.031,0.099l-0.019,0.255l-0.047,0.202l-0.144,0.17l-0.209,0.105l-0.281,0.06l-0.157,0.014    l-0.163-0.034l-0.189-0.02l-0.204-0.045l-0.176-0.06l-0.197-0.065l-0.209-0.092l-0.182-0.105l-0.191-0.085l-0.203-0.112    l-0.177-0.124l-0.169-0.145l-0.157-0.117l-0.163-0.164l-0.144-0.158l-0.125-0.15l-0.202-0.308l-0.118-0.302l-0.032-0.097    L80.373,52.729z M44.186,57.361L44.186,57.361l-0.138-0.111L44.186,57.361z M38.615,53.897l0.232-0.231l2.985-0.172l0.632,0.329    l1.5,3.533l-0.234,0.299l-3.208,0.228l0.144,0.027l-0.109,0.175l-0.017,0.002l-0.711-0.412l-0.003-0.008l0.186-0.084    L38.615,53.897z"/>
		<polygon clip-path="url(#SVGID_2_)" fill-rule="evenodd" clip-rule="evenodd" points="78.353,55.002 78.169,54.898 78.137,54.733     78.398,54.668 78.451,54.838 78.293,54.721   "/>
		<polygon clip-path="url(#SVGID_2_)" fill-rule="evenodd" clip-rule="evenodd" points="78.707,54.793 78.667,54.845 78.601,54.91     78.522,54.95 78.445,54.989 78.353,55.002 78.293,54.721 78.333,54.733 78.394,54.688 78.464,54.668 78.471,54.648 78.458,54.688     78.7,54.813   "/>
		<polygon clip-path="url(#SVGID_2_)" fill-rule="evenodd" clip-rule="evenodd" points="77.967,53.147 77.988,53.153 78.111,53.306     78.274,53.468 78.432,53.651 78.581,53.855 78.705,54.071 78.777,54.314 78.779,54.577 78.7,54.813 78.458,54.688 78.51,54.53     78.498,54.374 78.451,54.184 78.334,54.014 78.204,53.816 78.06,53.661 77.896,53.495 77.771,53.346 77.79,53.352   "/>
		<polygon clip-path="url(#SVGID_2_)" fill-rule="evenodd" clip-rule="evenodd" points="75.562,52.452 75.541,52.445 75.889,52.452     76.213,52.452 76.522,52.512 76.816,52.544 77.119,52.623 77.397,52.761 77.691,52.925 77.966,53.147 77.791,53.351     77.521,53.173 77.267,53.023 77.025,52.899 76.763,52.832 76.478,52.78 76.183,52.747 75.88,52.734 75.574,52.74 75.582,52.72     75.534,52.465   "/>
		<polygon clip-path="url(#SVGID_2_)" fill-rule="evenodd" clip-rule="evenodd" points="50.04,53.792 50.152,53.721 75.534,52.465     75.581,52.721 50.189,53.996 50.301,53.923   "/>
		<polygon clip-path="url(#SVGID_2_)" fill-rule="evenodd" clip-rule="evenodd" points="49.437,54.684 49.164,54.592 49.183,54.401     49.234,54.246 49.314,54.075 49.418,53.956 49.556,53.872 49.731,53.8 49.928,53.733 50.152,53.721 50.189,53.996 49.98,54.035     49.791,54.08 49.7,54.093 49.608,54.171 49.563,54.246 49.489,54.33 49.451,54.448 49.458,54.624 49.183,54.533   "/>
		<polygon clip-path="url(#SVGID_2_)" points="78.191,54.577 78.118,54.466 78.025,54.347 77.955,54.236 77.857,54.137     77.764,54.019 77.666,53.922 77.576,53.803 77.314,53.606 77.045,53.429 76.777,53.318 76.496,53.246 76.202,53.213     75.895,53.154 75.594,53.141 75.266,53.14 49.877,54.416 50.085,54.02 50.164,54.009 50.189,53.995 75.581,52.721 76.004,52.754     76.359,52.741 76.692,52.787 76.999,52.847 77.281,52.983 77.534,53.134 77.771,53.346 78.041,53.652 78.274,53.928     78.445,54.203 78.53,54.406 78.53,54.537 78.47,54.648 78.307,54.747 78.285,54.751 78.274,54.713   "/>
		<path clip-path="url(#SVGID_2_)" d="M49.164,54.592l0.025,0.249l0.053,0.17l0.072,0.242l0.169,0.275l0.209,0.223l0.267,0.243    l0.322,0.216l0.359,0.165l0.38,0.103l0.458,0.001l26.083-1.326l0.496-0.052l0.354-0.079l0.255-0.177l0.144-0.236l-0.005-0.242    l-0.1-0.296l-0.187-0.281l-0.264-0.329l-0.266-0.307l-0.289-0.25l-0.307-0.189l-0.3-0.144l-0.329-0.066l-0.391-0.065h-0.393    l-0.445,0.025l-25.382,1.256v0.007l-0.27,0.012l-0.274,0.104l-0.183,0.158L49.3,54.18l-0.086,0.189L49.164,54.592z M49.458,54.624    l0.031-0.163l0.013-0.027l0.021-0.006h0.129l0.224-0.012l0.212-0.397l0.076-0.011l0.025-0.013l25.392-1.275l0.423,0.033    l0.355-0.013l0.333,0.047l0.307,0.059l0.282,0.138l0.253,0.15l0.237,0.211l0.27,0.307l0.233,0.276l0.171,0.275l0.085,0.202v0.132    l-0.06,0.111l-0.163,0.099l-0.022,0.005L78,54.818l-0.431,0.052l-26.091,1.348l-0.02-0.008l-0.366-0.012l-0.36-0.099l-0.32-0.15    l-0.276-0.158l-0.227-0.23l-0.164-0.229l-0.143-0.222l-0.113-0.191l-0.019-0.137L49.458,54.624z"/>
	</g>
	<line fill="none" stroke="#929497" x1="467.203" y1="419.543" x2="782.333" y2="419.543"/>
	
	
	
	
	
	
	
	
	
	
	
	
	
	
	
	
	
	
	
	
	
	
	
	<path fill="#EC1E28" d="M481.184,265.196c0,0.655-0.295,1.295-0.89,1.919l-0.092,0.092l-5.192,5.481   c-1.103,1.161-2.042,2.061-2.82,2.696c-0.775,0.632-1.324,0.951-1.643,0.951c-0.336,0-0.752-0.159-1.251-0.475   c-0.498-0.319-0.822-0.646-0.969-0.984c-0.124-0.279-0.238-0.875-0.346-1.786c-0.111-0.909-0.166-1.893-0.166-2.955   c0-0.577,0.242-1.114,0.725-1.603c0.482-0.491,1.014-0.737,1.595-0.737c0.556,0,0.886,0.507,0.994,1.522   c0.009,0.119,0.019,0.207,0.021,0.262c0.093,0.783,0.194,1.326,0.312,1.635c0.121,0.311,0.276,0.461,0.479,0.461   c0.083,0,0.241-0.087,0.47-0.273c0.229-0.182,0.506-0.429,0.823-0.745l5.339-5.296c0.447-0.449,0.848-0.789,1.2-1.018   c0.353-0.231,0.654-0.346,0.899-0.346c0.187,0,0.317,0.071,0.394,0.211c0.079,0.14,0.117,0.375,0.117,0.707V265.196z"/>
	<path fill="#EC1E28" d="M485.328,358.773c0,0.655-0.295,1.295-0.889,1.92l-0.096,0.091l-5.192,5.481   c-1.103,1.163-2.043,2.062-2.817,2.696c-0.778,0.635-1.324,0.951-1.642,0.951c-0.337,0-0.756-0.158-1.255-0.476   c-0.499-0.318-0.819-0.644-0.966-0.98c-0.124-0.281-0.241-0.877-0.35-1.786c-0.107-0.909-0.165-1.895-0.165-2.956   c0-0.576,0.242-1.113,0.725-1.604c0.479-0.491,1.013-0.735,1.598-0.735c0.553,0,0.883,0.505,0.991,1.522   c0.009,0.117,0.019,0.207,0.025,0.262c0.088,0.781,0.193,1.325,0.311,1.633c0.117,0.311,0.276,0.463,0.479,0.463   c0.083,0,0.241-0.091,0.471-0.273c0.229-0.183,0.501-0.43,0.822-0.746l5.336-5.294c0.447-0.45,0.851-0.79,1.203-1.02   s0.651-0.346,0.896-0.346c0.188,0,0.318,0.071,0.397,0.213c0.079,0.138,0.117,0.374,0.117,0.704V358.773z"/>
	<path fill="#EC1E28" d="M472.58,407.316c0,0.657-0.296,1.297-0.89,1.921l-0.092,0.095l-5.196,5.479   c-1.102,1.163-2.042,2.062-2.816,2.696c-0.778,0.632-1.325,0.953-1.646,0.953c-0.337,0-0.753-0.162-1.251-0.477   c-0.499-0.317-0.819-0.645-0.966-0.981c-0.124-0.283-0.238-0.878-0.35-1.788c-0.107-0.908-0.162-1.893-0.162-2.954   c0-0.578,0.242-1.112,0.721-1.604c0.483-0.492,1.014-0.737,1.598-0.737c0.557,0,0.887,0.508,0.991,1.524   c0.013,0.118,0.02,0.204,0.025,0.261c0.089,0.781,0.194,1.324,0.312,1.632s0.276,0.464,0.477,0.464   c0.086,0,0.241-0.089,0.473-0.273c0.229-0.183,0.502-0.432,0.823-0.743l5.335-5.299c0.448-0.45,0.852-0.787,1.204-1.018   s0.651-0.346,0.898-0.346c0.185,0,0.314,0.071,0.394,0.211c0.08,0.14,0.118,0.377,0.118,0.708V407.316z"/>
	<path fill="#EC1E28" d="M452.148,514.224c0,0.657-0.295,1.296-0.889,1.918l-0.093,0.092l-5.195,5.485   c-1.103,1.159-2.042,2.058-2.817,2.693c-0.774,0.636-1.324,0.95-1.646,0.95c-0.333,0-0.752-0.156-1.251-0.474   s-0.819-0.645-0.966-0.981c-0.123-0.279-0.238-0.873-0.349-1.785c-0.108-0.911-0.165-1.896-0.165-2.957   c0-0.578,0.241-1.111,0.724-1.604c0.483-0.489,1.013-0.736,1.598-0.736c0.553,0,0.883,0.508,0.991,1.523   c0.009,0.118,0.019,0.204,0.025,0.262c0.089,0.781,0.193,1.324,0.311,1.632c0.118,0.313,0.276,0.464,0.48,0.464   c0.082,0,0.241-0.092,0.47-0.273c0.229-0.184,0.505-0.432,0.822-0.743l5.336-5.296c0.447-0.453,0.851-0.793,1.203-1.02   c0.353-0.233,0.651-0.348,0.899-0.348c0.184,0,0.317,0.07,0.394,0.215c0.079,0.137,0.117,0.373,0.117,0.703V514.224z"/>
	<line fill="none" stroke="#EC1E28" x1="485.404" y1="369.913" x2="781.666" y2="369.913"/>
	<line fill="none" stroke="#2BA6DE" stroke-dasharray="12,9" x1="482.493" y1="276.769" x2="565" y2="276.769"/>
</g>
</g></svg>