<svg version="1.1" id="Layer_1" xmlns="http://www.w3.org/2000/svg" xmlns:xlink="http://www.w3.org/1999/xlink" x="0px" y="0px" viewBox="0 0 3675 4575" style="enable-background:new 0 0 882 1098;" xml:space="preserve" width="3675" height="4575">
<style type="text/css">
	.st0{fill-opacity:1;}
	.st1{fill:none;stroke:#FF0000;stroke-linecap:round;stroke-linejoin:round;stroke-miterlimit:10;}
	.st2{fill:none;stroke:#00A551;stroke-miterlimit:10;}
	.st3{fill:none;stroke:#00ADEE;stroke-miterlimit:10;}
	.st4{fill:none;stroke:#00ADEE;stroke-miterlimit:10;stroke-dasharray:12.2082,12.2082;}
	.st5{fill:none;stroke:#00ADEE;stroke-miterlimit:10;stroke-dasharray:12.3291,12.3291;}
	.st6{fill:none;stroke:#00ADEE;stroke-miterlimit:10;stroke-dasharray:13.2268,13.2268;}
	.st7{fill:none;stroke:#00ADEE;stroke-miterlimit:10;stroke-dasharray:13.2275,13.2275;}
	.st8{fill:none;stroke:#00ADEE;stroke-miterlimit:10;stroke-dasharray:12.2431,12.2431;}
	.st9{fill:none;stroke:#00ADEE;stroke-miterlimit:10;stroke-dasharray:12.3235,12.3235;}
	.st10{fill:none;stroke:#00ADEE;stroke-miterlimit:10;stroke-dasharray:13.2274,13.2274;}
	.st11{fill:#231F20;}
	.st12{font-family:'Arial-Black';}
	.st13{font-size:11.4736px;}
	.st14{fill:#2BA6DE;}
	.st15{font-family:'Arial-BoldMT';}
	.st16{font-size:9.5613px;}
	.st17{fill:#EC1E28;}
	.st18{fill:#929497;}
	.st19{fill:none;stroke:#2BA6DE;}
	.st20{fill:none;stroke:#2BA6DE;stroke-dasharray:11.5871,8.6903;}
	.st21{fill:none;stroke:#929497;}
	.st22{fill:none;stroke:#EC1E28;}
	.st23{fill:#D0D1D2;}
	.st24{font-size:9.0915px;}
	.st25{fill-rule:evenodd;clip-rule:evenodd;}
	.st26{fill-rule:evenodd;clip-rule:evenodd;fill:#B7D333;}
	.st27{fill-rule:evenodd;clip-rule:evenodd;fill:#FFFFFF;}
	.st28{fill-rule:evenodd;clip-rule:evenodd;fill:#4D494A;}
	.st29{fill:#4D494A;}
	.st30{fill:#FFFFFF;}
</style>
<g>
	<g>
		<path class="st0" d="M0,0v1098h882V0H0z M873,857.4h-71.9l-5,5v84.8H732L647,865.2v-2.8l-1.4,153.7l-5,72.9H241.4l-5-72.9
			L235,862.4v2.8L150,947.2H86v-84.8l-5-5H9V240.6h71.9l5-5v-84.8H150l84.9,81.9v2.8l1.4-153.7l5-72.9h399.2l5,72.9l1.4,153.7v-2.8
			l84.9-81.9H796v84.8l5,5H873V857.4z"></path>
	</g>
	<polygon class="st1" points="796,235.6 796,150.8 732,150.8 647,232.8 647,235.6 645.6,81.9 640.6,9 241.4,9 236.4,81.9 235,235.6 
		235,232.8 150,150.8 86,150.8 86,235.6 80.9,240.6 9,240.6 9,857.4 80.9,857.4 86,862.4 86,947.2 150,947.2 235,865.2 235,862.4 
		236.4,1016.1 241.4,1089 640.6,1089 645.6,1016.1 647,862.4 647,865.2 732,947.2 796,947.2 796,862.4 801.1,857.4 873,857.4 
		873,240.6 801.1,240.6 	"></polygon>
	<rect x="234.9" y="234.9" class="st2" width="412.2" height="628.2"></rect>
	<g>
		<g>
			<polyline class="st3" points="249.9,854.1 243.9,854.1 243.9,848.1 			"></polyline>
			<line class="st4" x1="243.9" y1="835.9" x2="243.9" y2="256"></line>
			<polyline class="st3" points="243.9,249.9 243.9,243.9 249.9,243.9 			"></polyline>
			<line class="st5" x1="262.2" y1="243.9" x2="625.9" y2="243.9"></line>
			<polyline class="st3" points="632.1,243.9 638.1,243.9 638.1,249.9 			"></polyline>
			<line class="st4" x1="638.1" y1="262.1" x2="638.1" y2="842"></line>
			<polyline class="st3" points="638.1,848.1 638.1,854.1 632.1,854.1 			"></polyline>
			<line class="st5" x1="619.8" y1="854.1" x2="256.1" y2="854.1"></line>
		</g>
	</g>
	<rect x="647.1" y="234.9" class="st2" width="149" height="628.2"></rect>
	<g>
		<g>
			<polyline class="st3" points="662.1,854.1 656.1,854.1 656.1,848.1 			"></polyline>
			<line class="st4" x1="656.1" y1="835.9" x2="656.1" y2="256"></line>
			<polyline class="st3" points="656.1,249.9 656.1,243.9 662.1,243.9 			"></polyline>
			<line class="st6" x1="675.3" y1="243.9" x2="774.5" y2="243.9"></line>
			<polyline class="st3" points="781.1,243.9 787.1,243.9 787.1,249.9 			"></polyline>
			<line class="st4" x1="787.1" y1="262.1" x2="787.1" y2="842"></line>
			<polyline class="st3" points="787.1,848.1 787.1,854.1 781.1,854.1 			"></polyline>
			<line class="st6" x1="767.9" y1="854.1" x2="668.7" y2="854.1"></line>
		</g>
	</g>
	<rect x="85.9" y="234.9" class="st2" width="149" height="628.2"></rect>
	<g>
		<g>
			<polyline class="st3" points="100.9,854.1 94.9,854.1 94.9,848.1 			"></polyline>
			<line class="st4" x1="94.9" y1="835.9" x2="94.9" y2="256"></line>
			<polyline class="st3" points="94.9,249.9 94.9,243.9 100.9,243.9 			"></polyline>
			<line class="st6" x1="114.1" y1="243.9" x2="213.3" y2="243.9"></line>
			<polyline class="st3" points="219.9,243.9 225.9,243.9 225.9,249.9 			"></polyline>
			<line class="st4" x1="225.9" y1="262.1" x2="225.9" y2="842"></line>
			<polyline class="st3" points="225.9,848.1 225.9,854.1 219.9,854.1 			"></polyline>
			<line class="st6" x1="206.7" y1="854.1" x2="107.5" y2="854.1"></line>
		</g>
	</g>
	<polygon class="st2" points="234.9,234.9 236.3,85.9 645.7,85.9 647.1,234.9 	"></polygon>
	<g>
		<g>
			<polyline class="st3" points="250,225.9 244,225.9 244,219.9 			"></polyline>
			<line class="st7" x1="244.2" y1="206.7" x2="245.1" y2="107.5"></line>
			<polyline class="st3" points="245.2,100.9 245.2,94.9 251.2,94.9 			"></polyline>
			<line class="st8" x1="263.5" y1="94.9" x2="624.6" y2="94.9"></line>
			<polyline class="st3" points="630.8,94.9 636.8,94.9 636.8,100.9 			"></polyline>
			<line class="st7" x1="637" y1="114.1" x2="637.9" y2="213.3"></line>
			<polyline class="st3" points="638,219.9 638,225.9 632,225.9 			"></polyline>
			<line class="st9" x1="619.7" y1="225.9" x2="256.1" y2="225.9"></line>
		</g>
	</g>
	<polygon class="st2" points="647.1,863.1 645.7,1012.1 236.3,1012.1 234.9,863.1 	"></polygon>
	<g>
		<g>
			<polyline class="st3" points="251.2,1003.1 245.2,1003.1 245.2,997.1 			"></polyline>
			<line class="st10" x1="245.1" y1="983.9" x2="244.1" y2="884.7"></line>
			<polyline class="st3" points="244,878.1 244,872.1 250,872.1 			"></polyline>
			<line class="st9" x1="262.3" y1="872.1" x2="625.9" y2="872.1"></line>
			<polyline class="st3" points="632,872.1 638,872.1 638,878.1 			"></polyline>
			<line class="st10" x1="637.8" y1="891.3" x2="636.9" y2="990.5"></line>
			<polyline class="st3" points="636.8,997.1 636.8,1003.1 630.8,1003.1 			"></polyline>
			<line class="st8" x1="618.5" y1="1003.1" x2="257.4" y2="1003.1"></line>
		</g>
	</g>
	<g>
		
		
		
		
		
		
		
		
		
		
		
		
		
		
		
		
		
		
		
		
		
		
		
		<path class="st17" d="M555.2,277.5c0,0.7-0.3,1.3-0.9,1.9l-0.1,0.1L549,285c-1.1,1.2-2,2.1-2.8,2.7c-0.8,0.6-1.3,1-1.6,1
			c-0.3,0-0.8-0.2-1.3-0.5c-0.5-0.3-0.8-0.6-1-1c-0.1-0.3-0.2-0.9-0.3-1.8c-0.1-0.9-0.2-1.9-0.2-3c0-0.6,0.2-1.1,0.7-1.6
			c0.5-0.5,1-0.7,1.6-0.7c0.6,0,0.9,0.5,1,1.5c0,0.1,0,0.2,0,0.3c0.1,0.8,0.2,1.3,0.3,1.6c0.1,0.3,0.3,0.5,0.5,0.5
			c0.1,0,0.2-0.1,0.5-0.3c0.2-0.2,0.5-0.4,0.8-0.7l5.3-5.3c0.4-0.4,0.8-0.8,1.2-1c0.4-0.2,0.7-0.3,0.9-0.3c0.2,0,0.3,0.1,0.4,0.2
			c0.1,0.1,0.1,0.4,0.1,0.7V277.5z"></path>
		<path class="st17" d="M559.3,371.1c0,0.7-0.3,1.3-0.9,1.9l-0.1,0.1l-5.2,5.5c-1.1,1.2-2,2.1-2.8,2.7c-0.8,0.6-1.3,1-1.6,1
			c-0.3,0-0.8-0.2-1.3-0.5c-0.5-0.3-0.8-0.6-1-1c-0.1-0.3-0.2-0.9-0.3-1.8c-0.1-0.9-0.2-1.9-0.2-3c0-0.6,0.2-1.1,0.7-1.6
			c0.5-0.5,1-0.7,1.6-0.7c0.6,0,0.9,0.5,1,1.5c0,0.1,0,0.2,0,0.3c0.1,0.8,0.2,1.3,0.3,1.6c0.1,0.3,0.3,0.5,0.5,0.5
			c0.1,0,0.2-0.1,0.5-0.3c0.2-0.2,0.5-0.4,0.8-0.7l5.3-5.3c0.4-0.5,0.9-0.8,1.2-1c0.4-0.2,0.7-0.3,0.9-0.3c0.2,0,0.3,0.1,0.4,0.2
			c0.1,0.1,0.1,0.4,0.1,0.7V371.1z"></path>
		<path class="st17" d="M546.6,419.6c0,0.7-0.3,1.3-0.9,1.9l-0.1,0.1l-5.2,5.5c-1.1,1.2-2,2.1-2.8,2.7c-0.8,0.6-1.3,1-1.6,1
			c-0.3,0-0.8-0.2-1.3-0.5c-0.5-0.3-0.8-0.6-1-1c-0.1-0.3-0.2-0.9-0.3-1.8c-0.1-0.9-0.2-1.9-0.2-3c0-0.6,0.2-1.1,0.7-1.6
			c0.5-0.5,1-0.7,1.6-0.7c0.6,0,0.9,0.5,1,1.5c0,0.1,0,0.2,0,0.3c0.1,0.8,0.2,1.3,0.3,1.6c0.1,0.3,0.3,0.5,0.5,0.5
			c0.1,0,0.2-0.1,0.5-0.3c0.2-0.2,0.5-0.4,0.8-0.7l5.3-5.3c0.4-0.5,0.9-0.8,1.2-1c0.4-0.2,0.7-0.3,0.9-0.3c0.2,0,0.3,0.1,0.4,0.2
			c0.1,0.1,0.1,0.4,0.1,0.7V419.6z"></path>
		<path class="st17" d="M526.1,526.5c0,0.7-0.3,1.3-0.9,1.9l-0.1,0.1L520,534c-1.1,1.2-2,2.1-2.8,2.7c-0.8,0.6-1.3,1-1.6,1
			c-0.3,0-0.8-0.2-1.3-0.5c-0.5-0.3-0.8-0.6-1-1c-0.1-0.3-0.2-0.9-0.3-1.8c-0.1-0.9-0.2-1.9-0.2-3c0-0.6,0.2-1.1,0.7-1.6
			c0.5-0.5,1-0.7,1.6-0.7c0.6,0,0.9,0.5,1,1.5c0,0.1,0,0.2,0,0.3c0.1,0.8,0.2,1.3,0.3,1.6c0.1,0.3,0.3,0.5,0.5,0.5
			c0.1,0,0.2-0.1,0.5-0.3c0.2-0.2,0.5-0.4,0.8-0.7l5.3-5.3c0.4-0.5,0.9-0.8,1.2-1c0.4-0.2,0.7-0.3,0.9-0.3c0.2,0,0.3,0.1,0.4,0.2
			c0.1,0.1,0.1,0.4,0.1,0.7V526.5z"></path>
		<g>
			<g>
				<line class="st19" x1="556.5" y1="289.1" x2="562.5" y2="289.1"></line>
				<line class="st20" x1="571.2" y1="289.1" x2="627.7" y2="289.1"></line>
				<line class="st19" x1="632" y1="289.1" x2="638" y2="289.1"></line>
			</g>
		</g>
		<line class="st21" x1="541.2" y1="431.9" x2="873.1" y2="431.9"></line>
		<line class="st22" x1="559.4" y1="382.2" x2="873.1" y2="382.2"></line>
	</g>
	<g>
		<rect x="18" y="973.4" class="st23" width="118.7" height="115.6"></rect>
		
		<g>
			<path class="st25" d="M117.8,1018.4c0,22.3-18.1,40.5-40.4,40.5c-22.3,0-40.4-18.1-40.4-40.5c0-22.4,18.1-40.5,40.4-40.5
				C99.7,977.9,117.8,996.1,117.8,1018.4"></path>
			<path class="st26" d="M114.1,1018.6c0,20.3-16.4,36.8-36.7,36.8c-20.3,0-36.7-16.5-36.7-36.8c0-20.3,16.4-36.8,36.7-36.8
				C97.7,981.8,114.1,998.3,114.1,1018.6"></path>
			<path d="M69.5,1010.6c-0.5,4.5-0.9,8.1-1.1,10.9l-1.7,0.1c0-0.1,0-0.2,0-0.3c0-0.2-0.1-0.5-0.2-0.8c-0.2-0.3-0.2-0.5-0.3-0.6
				c-0.4,0.1-0.8,0.4-1.2,0.9c-0.4,0.5-0.8,0.8-1.1,0.8c-0.2,0-0.4-0.1-0.6-0.1c-0.3,0.2-0.7,0.3-1.2,0.3c-0.4-0.1-0.9-0.1-1.3-0.2
				c0-0.6-0.6-1.1-1.7-1.5c0-0.2-0.1-0.6-0.3-1c-0.2-0.4-0.3-0.8-0.3-0.9c0-0.2,0.1-0.4,0.2-0.5c0-0.1-0.2-0.5-0.6-1.3
				c-0.2-0.6-0.4-1.1-0.4-1.5c0-0.3,0.1-0.6,0.2-0.9c-0.2-1.9-0.3-3.6-0.3-5c0-2.1,0.3-4.1,0.9-5.9c0-0.3-0.1-0.5-0.1-0.8
				c0-1.4,0.5-2.4,1.5-3l0-0.4c1-1.2,2.2-2.1,3.8-2.6c0.9,0.2,1.9,0.4,2.8,0.6c1,0.4,1.8,1,2.2,1.8c0.3,0.2,0.5,0.6,0.5,1.1
				c0,0.6,0.1,1,0.2,1.2l-0.2,0.2c0.2,1.3,0.3,2.2,0.3,2.5c0,0.9-0.2,1.5-0.7,1.8c-0.2,0-0.6-0.1-1.3-0.4c-0.2,0.2-0.3,0.2-0.5,0.2
				c-0.1,0-0.3-0.1-0.5-0.1c-0.2-0.1-0.4-0.1-0.6-0.1c-0.1,0-0.2,0-0.3,0.1c0-1.8,0-3.1,0.2-4c-0.2-0.1-0.4-0.4-0.5-0.8
				c-0.2-0.4-0.4-0.6-0.7-0.7c-0.2,0.2-0.3,0.4-0.2,0.4l-0.6-0.2c-0.6,0.6-0.9,1.7-1.1,3.2c-0.2,1.7-0.4,2.9-0.7,3.4
				c0.2,0.3,0.4,0.6,0.4,1.1c0,0.2,0,0.4-0.1,0.8c-0.1,0.4-0.1,0.6-0.1,0.8c0,0.2,0,0.4,0.1,0.6l-0.4,0.4c0.2,0.8,0.3,1.8,0.3,3
				c0,1,0,2,0,3c0,0-0.2,0-0.6,0c-0.2,0-0.4,0.1-0.5,0.2c0.1,0,0.3,0,0.4,0c0.5,0,0.9,0.4,1.2,1.1c0.3,0.7,0.5,1.1,0.7,1.1
				c0.2,0,0.5-0.2,0.9-0.6c0.7-0.7,1-1.7,1-3c0-0.6-0.1-1.3-0.2-2c-0.2,0.1-0.2,0.3-0.3,0.7c-0.4,0-0.6,0.1-0.7,0.2
				c-0.2,0-0.2-0.2-0.2-0.4c0-0.3,0-0.5,0-0.5c0.3-0.1,0.4-0.2,0.4-0.4c0-0.1,0-0.2-0.1-0.4c-0.1-0.2-0.1-0.3-0.1-0.4
				c0-0.1,0-0.2,0.1-0.3l0.2-1.3c0.5,0.1,1.6,0.2,3.2,0.2c0,0.1,0,0.3,0.2,0.4c0.2-0.2,0.3-0.2,0.5-0.2c0.1,0,0.3,0.1,0.6,0.2
				C69.2,1010.5,69.4,1010.6,69.5,1010.6"></path>
			<path d="M82.3,1022.4c-0.3-0.1-0.7-0.2-1-0.2c-0.3,0-0.8,0.1-1.3,0.2c-0.6,0.1-1,0.2-1.3,0.2c-0.2-0.5-0.4-1.1-0.5-2
				c-0.2-1.2-0.3-1.9-0.3-2.1c0.1-0.1,0.1-0.2,0.1-0.3c0-0.2-0.2-0.5-0.6-0.7c-0.4-0.2-0.6-0.4-0.6-0.5c0-0.1,0.2-0.3,0.7-0.6
				c-0.1-0.1-0.2-0.4-0.2-0.8c0-0.4-0.2-0.7-0.3-0.8c-0.3,0.2-0.7,0.4-1.4,0.5c-0.6,0.1-1,0.2-1.3,0.3c0,1.8-0.3,3-0.9,3.6
				c-0.3-0.1-0.6,0-0.7,0.4c-0.2,0.4-0.4,0.6-0.6,0.7l0.2,0.2c-0.2,0.2-0.5,0.2-0.9,0.2c-0.6,0-1-0.1-1-0.1l-0.2-0.6l2.2-18.5
				c0-1.2,0.1-2,0.2-2.4c0-1,0.2-1.7,0.7-1.9c0.3,0.2,0.7,0.3,1.2,0.3c0.4,0,1-0.1,1.8-0.2c0.8-0.2,1.4-0.3,1.7-0.2
				c1.1,0,1.6,0.8,1.5,2.4c-0.1,1.3,0.1,3,0.6,5c0.5,2.2,0.8,3.9,0.8,5c0,0.3,0.1,1,0.1,1.4c-0.5,0.3-1.1,0.4-1.9,0.5
				c-0.7,0-1.3,0.1-2,0.1c-0.2-1.7-0.5-3.8-0.7-5.5c-0.2-2.1-0.5-3.8-0.8-5.1l-1.1,9.8c-0.1,0.8,0.3,1.3,1.1,1.3
				c0.3,0,0.5-0.1,0.8-0.2c0.2-0.1,0.5,0.1,0.8,0.5c0,0.7,0.1,1.1,0.4,1.3c0.4-0.2,0.8-0.5,1.4-0.7c0.5-0.2,1-0.4,1.5-0.6
				c0.3,0.4,0.5,1,0.6,1.8c0.1,1.1,0.2,1.7,0.2,1.9c0,0.4,0.2,1.4,0.5,2.8c0.2,1.1,0.3,2.1,0.3,2.8
				C82.4,1021.8,82.3,1022.1,82.3,1022.4"></path>
			<path d="M98,1006.1c0,0.1,0,0.5,0,1.2c0,0.6-0.1,1-0.2,1.3c-0.2,0.5-0.3,1.1-0.3,1.9c0,0.2,0,0.5,0,0.9c0,0.4,0,0.7,0,0.9
				c0,1.4-0.3,2.5-0.7,3.1c0,0.4,0.1,0.7,0,1.1c0,1.1-0.4,2.7-1.2,4.6c-0.2,0.1-0.4,0.1-0.5,0.1c-0.3,0-0.5-0.2-0.6-0.5
				c-0.1-0.3-0.2-0.6-0.3-0.9c0.1-1.8,0-4.3-0.1-7.7l0.2-0.2c-0.2-0.6-0.2-1.3-0.2-2c0-0.5,0.1-1.3,0.2-2.3c0.1-1,0.2-1.7,0.2-2.3
				c0-0.3,0-0.6,0-0.9c-0.8,1.9-1.3,5.1-1.7,9.6l-0.3,0.7c-0.1,0.2-0.3,0.4-0.6,0.4c-0.1-0.2-0.2-0.2-0.3-0.2
				c-0.1,0-0.2,0.1-0.4,0.2c-0.2,0.2-0.3,0.2-0.4,0.2l-0.5,0.4c0.2,0.3,0.6,0.3,1.3,0.1c0.5-0.2,0.8,0,0.8,0.6
				c0,0.5-0.1,1.1-0.4,1.8c-0.3,0.8-0.4,1.3-0.4,1.7c0,0.3,0,0.5,0.1,0.8l-2.4,0.4c-0.2-0.5-0.4-1.2-0.5-2.3
				c-0.1-1.1-0.3-1.9-0.5-2.3c0.1-0.2,0.2-0.3,0.2-0.5c0-0.2-0.1-0.4-0.2-0.7c-0.1-0.3-0.2-0.6-0.2-0.7c0-0.2-0.1-0.9-0.2-1.8
				c-0.1-0.8-0.2-1.4-0.1-1.8c0-0.2,0-0.4,0-0.6c0-0.2-0.1-0.4-0.3-0.7c-0.2-0.3-0.3-0.5-0.3-0.7c0-0.1,0-0.2,0.1-0.3
				c-0.2-0.2-0.2-0.5-0.2-1c0-0.5,0-0.8-0.2-1c-0.3,0.9-0.5,2.1-0.5,3.6c0,2.1,0,3.3-0.1,3.6l0.2,0.2l-0.2,0.2
				c0.2,0.8,0.2,1.9,0.2,3.2c-0.1,2.3-0.1,3.4-0.1,3.2c-0.3,0.3-0.8,0.4-1.3,0.4c-0.7,0-1.2,0-1.4,0.2c-0.3-0.5-0.4-1.2-0.4-2
				c0-0.6,0.1-1.4,0.3-2.3c-0.3-0.6-0.5-1.4-0.4-2.4c0-0.3,0-0.7,0.1-1.4c0-0.6,0-1,0-1.3c0.2-0.1,0.3-0.2,0.4-0.4
				c0-0.1-0.1-0.2-0.2-0.5c-0.1-0.2-0.2-0.4-0.2-0.5c0-0.1,0.1-0.3,0.3-0.4L83,999.2c0.4-0.3,1.1-0.4,2.1-0.4c1.1,0,1.8,0,2.2-0.2
				c0.1,0,0.1-0.1,0.2-0.1c0.1,0,0.2,0.1,0.3,0.2c0.1,0.1,0.2,0.2,0.3,0.2c0.1,0,0.2-0.1,0.2-0.2l0.6,0.6c0.2,0.8,0.4,2.4,0.6,4.7
				c0.2,2,0.5,3.5,0.9,4.5c0.6-2,1-3.7,1.4-5.1l0.7-5.4l5.3-0.1c0,0.3,0.1,1.9,0.2,2.8c0.1,0.8,0.2,1.5,0.2,2c0,0.6-0.1,1.1-0.3,1.5
				c0.2,0.3,0.3,0.6,0.3,1C98.3,1005.5,98.2,1005.9,98,1006.1"></path>
			<path d="M108.9,1018.1L108.9,1018.1c-0.1,0.3-0.2,0.6-0.3,1c0,0.2,0,0.6,0,1.1c0,0.5,0,0.9,0,1.1c-0.2,0-0.9,0-2.2,0
				c-0.8,0-1.5,0.1-2.1,0.2l-0.6-0.7c-0.2,0.2-0.3,0.3-0.2,0.4c-0.1,0-0.6,0-1.6,0c-0.7,0-1.3-0.1-1.6-0.2c-0.4,0.4-0.8,0.4-1.3,0
				c-0.2-0.1-0.2-0.4-0.1-0.7c0.1-0.3,0.1-0.6-0.1-0.7c0-0.7,0.1-1.9,0.3-3.4c0.2-1.4,0.2-2.4,0.3-3.2c0-1-0.1-2.1-0.2-3
				c0.3-0.2,0.5-0.4,0.9-0.4c0.4,0,0.8,0.2,1.3,0.5c0.7,0.5,1.1,0.7,1.1,0.7l0.2,0.2c0-0.1,0.1-0.4,0.4-1.1c0.1-0.4,0.3-0.7,0.5-0.8
				l0.2,0.2c0.1,0,0.4-0.3,0.9-0.6c0.4-0.3,0.7-0.9,0.9-0.9c0.3,0,0.5,0.1,0.7,0.4c0.4,0.2,0.6,1,0.7,1.5c0.1,0.4,0.2,0.8,0.3,1.3
				c-1,0-1.9,0-2.5-0.1c-0.2,0.2-0.4,0.3-0.7,0.1s-0.5-0.2-0.6,0.1c0,0.4,0,1.1,0,2.2c0,1,0,1.7,0,2.3c0,0.8,0.1,1.6,0.2,2.3
				c0.2,0,1,0,2.6,0C107.2,1017.8,108.1,1017.9,108.9,1018.1 M108.9,1001.7c-0.2,0-0.4,0-0.7,0c-0.5,0-1.2-0.1-2.1-0.2
				c-1.1-0.2-1.7-0.2-1.9-0.3c-0.3,0.5-0.5,1.1-0.5,2c0,1.9,0,2.7,0,2.4c0.3,0.2,0.5,0.5,0.5,1c0,0.7,0,1,0,1.1
				c-0.2,0.1-0.2,0.3-0.2,0.7c-0.2-0.1-0.5-0.3-0.8-0.6c-0.4-0.4-0.5,0.8-0.5,0.5l-0.2,0.7l-0.2-0.2c-0.2,0-0.5-0.1-0.9-0.3
				c-0.4-0.2-0.8-0.4-0.9-0.6c0-0.4,0.1-0.6,0.2-0.6l-0.4-0.5l-0.2,0.3c-0.3-2.4-0.2-6.8,0.1-9.3c0.9,0.2,1.8,0.2,2.9,0.3
				c0.7,0,1.7,0,3,0c1.5,0,2.5,0,3.1,0c0.3,0.3,0.4,0.6,0.4,1c0,0.3-0.1,0.7-0.2,1.2C109,1001,108.9,1001.4,108.9,1001.7"></path>
			<path d="M70.6,1038.8L70.6,1038.8c0,0-0.1,0.5-0.2,1.5c-0.1,0.6-0.2,1.1-0.4,1.4l-0.1-0.1c-0.3,0.6-0.6,0.9-1.1,1.1
				c-0.2,0.2-0.6,0.4-1,0.4c-0.3,0-0.8-0.1-1.8-0.2c-0.4-0.3-0.7-0.4-0.7-0.5c-0.3-0.2-0.4-0.4-0.4-0.6c-0.3-0.3-0.7-0.8-0.8-1.4
				c-0.2-0.7-0.3-0.7-0.4-1c-0.3,0.2-0.4-0.2-0.5-0.5l0.1-0.1c-0.1-0.1-0.1-0.1-0.1-0.2c0-0.1,0-0.1,0.1-0.2c0-0.1,0.1-0.2,0.1-0.2
				c0-0.1-0.1-0.2-0.2-0.2c0.1-0.5,0.2-1.3,0.3-2.4c0.2-0.1,0.3-0.3,0.3-0.6c0-0.3,0-0.5,0.1-0.6c0.4-0.9,1.1-1.5,2.1-1.8
				c0.1,0,0.3,0,0.8,0c0.3,0,0.6,0,0.7,0.1c0.3,0,0.6,0,0.9,0.2c0.3,0.2,0.5,0.4,0.8,0.6c0.5,0.5,0.7,1.1,0.8,1.7c0,0.2,0,0.4,0,0.7
				c-0.4,0-0.6,0.2-0.7,0.7l-1.4,0.1c-0.1-0.2-0.2-0.5-0.2-0.8c0-0.1,0-0.3,0-0.5c0-0.2,0-0.4,0-0.5c0-0.4-0.1-0.6-0.3-0.8l-0.4,0.2
				c-0.2-0.1-0.3-0.2-0.3-0.3c0,0,0-0.1,0-0.2c0-0.1,0-0.1,0-0.2c0-0.1-0.1-0.2-0.4-0.3c-0.2,1.5-0.2,3.1-0.1,4.7
				c0,0.1,0.2,0.1,0.4,0.1c0.2,0,0.3,0.1,0.3,0.2c0,0,0,0.1,0,0.1l-0.1,0.1c0.1,0.1,0.1,0.3,0.1,0.5c0,0.1,0,0.3,0,0.5
				c0,0.2,0,0.4,0,0.5c0,0.3,0.1,0.6,0.2,0.7c0,0.2,0.1,0.4,0.3,0.5c0.1,0,0.2-0.1,0.4-0.1c0.4,0,0.7,0.2,0.9,0.7c0,0,0,0.1,0,0.2
				c0,0.1,0,0.1,0.1,0.2c0.2-0.1,0.3-0.3,0.3-0.6c0-0.3,0-0.5,0.1-0.6c0-0.2-0.1-0.4-0.3-0.7c-0.2-0.3-0.2-0.5-0.3-0.7
				c0-0.2,0-0.3,0.2-0.5c-0.1,0-0.1-0.1-0.1-0.2c0-0.2,0-0.2,0-0.2C69,1038.6,69.8,1038.6,70.6,1038.8"></path>
			<path d="M76.7,1040L76.7,1040c-0.1,0.2-0.1,0.4-0.1,0.7c0,0.4,0.1,0.6,0.1,0.6c-0.1,0-0.1,0-0.2-0.1c-0.2,0.1-0.2,0.2-0.2,0.3
				c0,0,0,0.1,0,0.1c0,0.1,0,0.1,0,0.1c0,0.1,0,0.2-0.1,0.2c-0.2-0.1-0.4-0.2-0.7-0.2c-0.3,0-0.6-0.1-0.8-0.1c0-1.4-0.2-2.7-0.6-4
				c0,0,0-0.1,0-0.4c0-0.2,0-0.3-0.1-0.4l-0.1,0.1c0,0,0-0.1,0.1-0.1c0.1-0.1,0.1-0.1,0.1-0.2c0,0,0-0.1,0-0.1l-0.1-0.1
				c-0.2,0.1-0.3,0.3-0.3,0.6c0,0.2-0.1,0.3-0.2,0.4c0.1,0,0.1,0.1,0.1,0.2c0,0,0,0.1,0,0.2c0,0.1,0,0.1,0,0.2
				c0,0.1,0.1,0.2,0.1,0.2c0,0.1,0,0.6,0.1,1.6c0,0.7,0,1.2-0.1,1.7l0,0.3c-0.1,0-0.2,0-0.3,0c-0.1,0-0.3,0-0.5,0.1
				c-0.2,0-0.4,0-0.5,0.1c-0.5,0-0.8-0.1-1-0.2L71,1036c-0.1-0.3-0.2-0.7-0.2-1.2l-0.1-1.1c0-0.5-0.1-0.9-0.2-1.2
				c0-0.2,0.2-0.3,0.5-0.3c0.2,0,0.4,0,0.8,0.1c0.1-0.1,0.3-0.1,0.6-0.1c0.1,0,0.2,0,0.4,0c0.2,0,0.3,0,0.4,0c0.5,0,0.8-0.2,1-0.5
				c0.2,0,0.5,0.1,0.7,0.2c0.3,0.1,0.5,0.2,0.7,0.2c0.5,0.3,0.8,0.8,0.9,1.6c0,0.2-0.1,0.8-0.2,1.9l-0.9,0.8
				c0.2,0.3,0.3,0.9,0.6,1.9C76.1,1039.1,76.4,1039.7,76.7,1040 M75.1,1033.6L75.1,1033.6c0,0.1,0-0.2,0-0.7c0-0.3-0.1-0.5-0.3-0.6
				c-0.1,0.1,0,0.2,0,0.6c0,0.3-0.2,0.2-0.4,0.4c-0.3,0-0.4,0.2-0.4-0.1c-0.1-0.5-0.3-0.4-0.3-0.4l-0.1,0.1c0,0-0.1,0.1-0.2,0.1
				c-0.1,0.1-0.1,0.1-0.2,0.1c0,0.1,0,0.2-0.1,0.3c-0.1,0.1-0.1,0.2-0.1,0.3c0,0.1,0.1,0.2,0.2,0.2c0,0.2,0,0.4,0,0.6
				c0,0.1,0,0.4,0.1,0.8c0.1,0.3,0.1,0.6,0.1,0.9c0.1,0,0.2,0,0.3,0c0.4,0,0.7-0.2,0.9-0.5c0-0.1,0.1-0.4,0.1-1
				C74.7,1034.1,74.8,1033.8,75.1,1033.6"></path>
			<path d="M83.8,1042.2c-0.2,0-0.4-0.1-0.6-0.1c-0.2,0-0.4,0.1-0.7,0.1c-0.3,0.1-0.6,0.1-0.7,0.1c-0.1-0.2-0.3-0.5-0.3-0.9
				c-0.1-0.5-0.2-0.8-0.3-0.9c0-0.1,0-0.1,0-0.2c0-0.1-0.1-0.2-0.3-0.3c-0.2-0.1-0.3-0.1-0.3-0.2c0-0.1,0.1-0.2,0.4-0.3
				c-0.1-0.1-0.1-0.2-0.2-0.4c0-0.2-0.1-0.3-0.2-0.4c-0.1,0.1-0.4,0.2-0.7,0.3c-0.3,0.1-0.6,0.1-0.7,0.2c0.1,0.8,0,2.2-0.3,2.5
				c-0.2,0-0.3,0-0.4,0.2c-0.1,0.2-0.2,0.3-0.3,0.3l0.1,0.1c-0.1,0.1-0.3,0.1-0.5,0.1c-0.4,0-0.5,0-0.6,0l-0.1-0.3l0.5-9.1
				c0-0.5,0-0.9,0-1c-0.1-0.5,0.1-0.7,0.3-0.9c0.2,0.1,0.4,0.1,0.7,0.1c0.2,0,0.5-0.1,1-0.2c0.4-0.1,0.8-0.2,0.9-0.2
				c0.6,0,0.9,0.3,0.9,1c0,0.6,0.1,1.3,0.5,2.2c0.4,1,0.6,1.7,0.6,2.2c0,0.1,0.2,0.5,0.2,0.6c-0.3,0.1-0.6,0.2-1,0.3
				c-0.4,0-0.7,0.1-1.1,0.1c-0.2-0.8-0.5-1.7-0.7-2.4c-0.2-0.9-0.4-1.6-0.6-2.2l-0.2,4.3c0,0.4,0.2,0.6,0.7,0.5c0.2,0,0.3,0,0.4-0.1
				c0.1,0,0.3,0,0.5,0.2c0,0.3,0.1,0.5,0.3,0.5c0.2-0.1,0.4-0.2,0.8-0.4c0.3-0.1,0.6-0.2,0.8-0.3c0.2,0.2,0.3,0.4,0.4,0.7
				c0.1,0.5,0.2,0.8,0.2,0.8c0,0.2,0.2,0.6,0.4,1.2c0.2,0.5,0.3,0.9,0.3,1.2C83.9,1042,83.8,1042.1,83.8,1042.2"></path>
			<path d="M89,1032L89,1032c-0.1,0.2-0.3,0.3-0.6,0.1c0,0-0.3,0-0.7,0c-0.3,0-0.6,0-0.7,0c0,0-0.1,0-0.2,0.1
				c-0.1,0.1-0.2,0.1-0.2,0.1c-0.1,0-0.1-0.1-0.1-0.2c0,0,0-0.1,0-0.3c0-0.1-0.1-0.2-0.1-0.2l-0.2,0.2c-0.1,0.1-0.1,0.1-0.1,0.2
				c0,0.1,0,0.1,0.1,0.2c0.1,0.1,0.1,0.2,0.1,0.2c0,0,0,0.5,0.1,1.4c0,0.6,0.1,1,0.3,1.3c0-0.1,0.2-0.1,0.3-0.1c0.2,0,0.3,0,0.4-0.1
				c0.1,0.1,0.3,0.1,0.6,0c0.3-0.1,0.5-0.1,0.6,0.1l0,1.3c-0.1,0-0.3-0.1-0.5-0.2c-0.1,0.2-0.2,0.3-0.4,0.4c-0.1,0-0.3,0-0.6,0.1
				c0-0.1,0-0.1-0.2-0.2c-0.3,0.2-0.5,0.5-0.4,1.2c0-0.1,0,0,0,0.3c0,0.2,0,0.3-0.1,0.4c-0.2,0-0.5,0-0.8-0.1
				c-0.3-0.1-0.6-0.2-0.7-0.2c-0.1,0-0.1,0-0.2,0l-0.3,0.1l-0.6-6.1l-0.1-1.2c0.5-0.2,1-0.3,1.7-0.3c0.5,0,1.2,0,2.1,0
				c0.1-0.1,0.2,0,0.3,0c0.1,0,0.2,0,0.3,0c0.1,0,0.2,0,0.3,0c0.1,0,0.1,0,0.2,0l0.1-0.1c0.3,0.1,0.4,0.2,0.4,0.4
				c0,0.1,0,0.2-0.1,0.4c-0.1,0.2-0.1,0.3-0.1,0.4C88.9,1031.8,89,1031.9,89,1032 M86.8,1042.1c-0.1,0.1-0.3,0.1-0.6,0.1
				c-0.4,0-0.6,0-0.7,0.1c0,0-0.1,0-0.2-0.3c0-0.2-0.2-0.3-0.4-0.3c0,0-0.1,0-0.2,0l-0.3,0l-0.2-3.1c0.2-0.1,0.4-0.1,0.7-0.2
				c0.3,0,0.5,0,0.7,0.1c0,0.1,0.2,0.2,0.5,0.1l0.4,0C86.7,1039.6,86.8,1041.1,86.8,1042.1"></path>
			<path d="M96.5,1032.2L96.5,1032.2c-0.2,0-0.7,0-1.2,0.1c-0.4,0-0.7,0-0.8,0c-0.2,0.1-0.2,0.3-0.2,0.5l0.1,0.1
				c-0.1,0.1-0.1,0.2-0.1,0.2l0.1,0.1c0,1.8,0,2.8,0,3c0,0.5,0.1,0.9,0.2,1.2c-0.1,0.2-0.1,0.5-0.1,0.8c0,0.2,0.1,0.5,0.1,0.9
				c0.1,0.4,0.2,1.8,0.2,2c0,0.2,0,0.3,0,0.5c-0.2,0.1-0.4,0.1-0.6,0.1c-0.3,0-0.7,0-1.1-0.2c0,0-0.1,0.1-0.2,0.1
				c-0.1,0-0.1,0.1,0,0.2c-0.1,0-0.3,0-0.5-0.2c-0.1-1.8-0.4-5.5-0.9-9.2c-0.2,0.2-0.5,0-0.8,0.1c-0.4,0-0.8,0-0.9,0.1
				c-0.2-0.2-0.1-0.3-0.2-0.6c0-0.3-0.1-1.1,0-1.5c0-0.1,0.7,0,1.1-0.1c0.6,0,0.7,0.1,0.7,0.1c0-0.1,0.3,0,0.5,0
				c0.1,0.1,0.3-0.1,0.3,0c0,0.1,0,0.4,0,0.6c0,0.1-0.1,0.2-0.1,0.2c0,0.1,0.1-0.1,0.3,0c0.2,0,0.5,0,0.7,0c0.3,0,0.6-0.1,0.5,0.2
				c0-0.1,0.1,0.1,0.5-0.1c0.3-0.1,0.5-0.5,0.4-0.7c0-0.1,0.1-0.2,0-0.1c0.1-0.1,0,0,0.2-0.1c0.5,0,0.7,0,0.8,0c0.2,0,0.7,0.1,0.8,0
				c0.1,0.2,0.1,0.7,0.2,1C96.5,1031.9,96.5,1032.2,96.5,1032.2"></path>
			<path d="M102.6,1038.5L102.6,1038.5c-0.1,0.1-0.1,0.3-0.1,0.4c0,0.1,0,0.3,0,0.5c0,0.2,0,0.4,0,0.5c-0.1,0-0.5,0-1.2,0.1
				c-0.4,0-0.8,0.1-1.1,0.2l-0.4-0.3c-0.1,0.1-0.1,0.2-0.1,0.2c-0.1,0-0.3,0-0.9,0c-0.4,0-0.7,0-0.9,0c-0.2,0.2-0.4,0.2-0.7,0
				c-0.1-0.1-0.1-0.2-0.1-0.3c0.1-0.2,0-0.3-0.1-0.3c0-0.3,0-0.8,0-1.5c0-0.6,0-1.1,0-1.4c0-0.5-0.1-0.9-0.2-1.3
				c0.1-0.1,0.3-0.2,0.5-0.2c0.2,0,0.4,0,0.7,0.2c0.4,0.2,0.6,0.3,0.6,0.3l0.1,0.1c0,0,0.1-0.2,0.2-0.5c0.1-0.2,0.1-0.3,0.3-0.4
				l0.1,0.1c0,0,0.2-0.1,0.5-0.3c0.2-0.1,0.3-0.6,0.5-0.6c0.1,0,0.3,0,0.4,0.2c0.2,0.1,0.4,0.6,0.5,0.8c0.1,0.2,0.2,0.4,0.2,0.5
				c-0.6,0.1-1,0.1-1.4,0.1c-0.1,0.1-0.2,0.1-0.4,0.1c-0.2-0.1-0.3,0-0.4,0.1c0,0.2,0,0.5,0.1,1c0,0.4,0,0.8,0.1,1
				c0,0.4,0.1,0.7,0.2,1c0.1,0,0.6,0,1.4-0.1C101.6,1038.5,102.1,1038.5,102.6,1038.5 M102,1031.4c-0.1,0-0.2,0-0.4,0
				c-0.3,0-0.7,0-1.1,0c-0.6,0-0.9,0-1.1,0c-0.2,0.2-0.2,0.4-0.2,0.8c0,0.8,0.1,1.2,0.1,1.1c0.2,0.1,0.3,0.2,0.3,0.4
				c0,0.3,0,0.5,0,0.5c-0.1,0-0.1,0.1-0.1,0.3c-0.1,0-0.3-0.1-0.4-0.2c-0.2-0.1-0.3,0.4-0.3,0.2l-0.1,0.3l-0.1-0.1
				c-0.1,0-0.3,0-0.5-0.1c-0.2-0.1-0.4-0.2-0.5-0.2c0-0.2,0-0.3,0.1-0.3l-0.3-0.2l-0.1,0.1c-0.2-1-0.4-2.9-0.3-4
				c0.5,0,1-0.1,1.6-0.1c0.4,0,0.9,0,1.6-0.1c0.8-0.1,1.4-0.1,1.7-0.1c0.2,0.1,0.2,0.2,0.2,0.4c0,0.1,0,0.3-0.1,0.5
				C102,1031,102,1031.3,102,1031.4"></path>
			<path d="M108.8,1037.4L108.8,1037.4c-0.1,0.2-0.1,0.4-0.1,0.7c0,0.4,0.1,0.6,0.1,0.6c-0.1,0-0.1,0-0.2-0.1
				c-0.2,0.1-0.2,0.2-0.2,0.3c0,0,0,0.1,0,0.1c0,0.1,0,0.1,0,0.1c0,0.1,0,0.2-0.1,0.2c-0.2-0.1-0.4-0.2-0.7-0.2
				c-0.3,0-0.6-0.1-0.8-0.1c0-1.4-0.2-2.7-0.6-4c0,0,0-0.1,0-0.4c0-0.2,0-0.3-0.1-0.4l-0.1,0.1c0,0,0-0.1,0.1-0.1
				c0.1-0.1,0.1-0.1,0.1-0.2c0,0,0-0.1,0-0.1l-0.1-0.1c-0.2,0.1-0.3,0.3-0.3,0.6c0,0.2-0.1,0.3-0.2,0.4c0.1,0,0.1,0.1,0.1,0.2
				c0,0,0,0.1,0,0.2c0,0.1,0,0.1,0,0.2c0,0.1,0.1,0.2,0.1,0.2c0,0.1,0,0.6,0.1,1.6c0,0.7,0,1.2-0.1,1.7l0,0.3c-0.1,0-0.2,0-0.3,0
				c-0.1,0-0.3,0-0.5,0.1c-0.2,0-0.4,0-0.5,0.1c-0.5,0-0.8-0.1-1-0.2l-0.2-5.6c-0.1-0.3-0.2-0.7-0.2-1.2l-0.1-1.1
				c0-0.5-0.1-0.9-0.2-1.2c0-0.2,0.2-0.3,0.5-0.3c0.2,0,0.4,0,0.8,0.1c0.1-0.1,0.4-0.1,0.6-0.1c0.1,0,0.2,0,0.4,0c0.2,0,0.3,0,0.4,0
				c0.5,0,0.8-0.2,1-0.4c0.2,0,0.5,0.1,0.7,0.2c0.3,0.1,0.5,0.2,0.7,0.2c0.5,0.3,0.8,0.8,0.9,1.6c0,0.2-0.1,0.8-0.2,1.9l-0.9,0.8
				c0.2,0.3,0.3,0.9,0.6,1.9C108.1,1036.5,108.4,1037.1,108.8,1037.4 M107.1,1031L107.1,1031c0,0.1,0-0.2,0-0.7
				c0-0.3-0.1-0.5-0.3-0.6c-0.1,0.1-0.1-0.2-0.2,0.1c0,0.3-0.1,0.6-0.2,0.7c-0.3,0-0.4-0.2-0.6-0.4c-0.1-0.2-0.2,0-0.2,0l-0.1,0.1
				c0,0-0.1,0.1-0.2,0.1c-0.1,0.1-0.1,0.1-0.2,0.1c0,0.1,0,0.2-0.1,0.3c-0.1,0.1-0.1,0.2-0.1,0.3c0,0.1,0.1,0.2,0.2,0.2
				c0,0.2,0,0.4,0,0.6c0,0.1,0,0.4,0.1,0.8c0.1,0.3,0.1,0.6,0.1,0.9c0.1,0,0.2,0,0.3,0c0.4,0,0.7-0.2,0.8-0.5c0-0.1,0.1-0.4,0.1-1
				C106.7,1031.5,106.9,1031.2,107.1,1031"></path>
			<path d="M46.7,1011.5L46.7,1011.5c-0.1,0.5-0.1,0.9-0.1,1.1c-0.1,0-0.2,0-0.3,0c-0.2,0-0.3,0-0.3,0c-0.1,0-0.1,0-0.2,0.1
				c-0.1-0.1-0.2-0.1-0.2-0.1c-0.1,0.1-0.1,0.1-0.1,0.3c0,0,0,0.1,0.1,0.2c0,0.1,0.1,0.2,0.1,0.2c0,0.1,0,0.2,0,0.3
				c0,0.2,0,0.3,0,0.4c0,0.1,0,0.3,0.1,0.6c0,0.2,0.1,0.4,0.1,0.6c-0.1,0.2-0.1,0.5-0.1,0.8c0,0.3,0.1,0.7,0.3,1.2c0,0,0.1,0,0.1,0
				c0.1,0,0.1,0,0.2-0.1c0.1-0.1,0.2-0.1,0.2-0.1c0,0,0.1,0,0.2,0c0.2,0.5,0.2,0.9,0.3,1c0,0.1,0,0.1,0,0.2c-0.2,0.1-0.4,0-0.5-0.2
				c0-0.1,0-0.1-0.1-0.2L46,1018c0.3,0,0.4,0.2,0.3,0.6c0,0.1-0.1,0.1-0.2,0.1c-0.2,0-0.2,0-0.2,0l-0.2-0.4l-0.1,0.1
				c-0.1-0.2-0.2-0.3-0.3-0.3c-0.1,0-0.2,0-0.3,0.1c-0.1,0.1-0.2,0.1-0.3,0.1c-0.1,0-0.1,0-0.2-0.1c0-0.1,0-0.2,0-0.3
				c0-0.1-0.1-0.2-0.2-0.2c0-0.3,0-1,0-2.2c0-0.9,0-1.7,0-2.2c0-0.2,0-0.5,0-0.7c0-0.1-0.1-0.1-0.1-0.1c0,0-0.1,0-0.2,0.1
				c-0.1,0.1-0.1,0.1-0.2,0.1c0-0.1,0-0.2-0.1-0.4c-0.1-0.2-0.1-0.3-0.1-0.4c0-0.2,0-0.3,0.2-0.4l0.3,0.1c0.1-0.2,0.2-0.5,0.2-0.9
				c0-0.1,0-0.2,0-0.4c0-0.2,0-0.3,0-0.4c0-0.7,0.2-1.1,0.6-1.1c0.2,0,0.4,0,0.6,0.1l0.3,0.1c0,0.1,0,0.2,0,0.4c0,0.2,0,0.4,0,0.8
				c0,0.3,0,0.6,0,0.7c0,0.2,0.1,0.5,0.1,0.7c0.1,0,0.2,0,0.3-0.1c0.2-0.1,0.3-0.1,0.3-0.1C46.5,1011.3,46.6,1011.3,46.7,1011.5
				 M45.8,1012.4l0-0.3l-0.1-0.1L45.8,1012.4z"></path>
			<path d="M50.5,1010.5L50.5,1010.5c0,0.2-0.1,0.5-0.1,0.7c0,0.3-0.1,0.5-0.2,0.7c0,0-0.1-0.1-0.3-0.2c-0.1-0.1-0.3-0.1-0.4-0.1
				c-0.1,0.5-0.1,1.3-0.1,2.2c0,1.2,0,1.9,0,2.1c-0.1,0-0.2,0-0.3,0.1c-0.1,0.1-0.1,0.2-0.2,0.3c0,0.1,0,0.1,0,0.2
				c0,0.1,0.1,0.1,0.2,0.2c0.1,0.1,0.2,0.1,0.2,0.2c-0.1,0.2-0.2,0.3-0.3,0.3c-0.1,0-0.2,0-0.4-0.1c-0.2-0.1-0.3-0.1-0.4-0.1
				l-0.2-3.9c0.1-0.1,0.1-0.2,0.1-0.2l-0.1-0.1c0-0.2,0-1,0-2.5c0-1,0-1.8,0.1-2.4c0,0,0.3,0,0.8-0.1c0.4,0,0.6,0.1,0.7,0.3
				c0,0.2,0,0.5-0.1,1c0,0.4-0.1,0.8,0,1c0,0.3,0.1,0.6,0.1,0.8C49.7,1010.7,50.1,1010.5,50.5,1010.5 M51.8,1011.3
				c0,0.4,0,0.7,0.1,1.1c0.1,1.5,0.1,3.1-0.1,4.9c-0.1,0.1-0.3,0.1-0.6,0.1c-0.3-0.1-0.5,0-0.6,0.1c-0.2-0.2-0.2-0.6-0.3-1.1
				c0-0.8-0.1-1.2-0.1-1.2c0-1.9,0.2-3.5,0.6-4.6C51.3,1010.6,51.6,1010.9,51.8,1011.3"></path>
			<path d="M56.6,1013.3c-0.1,0.1-0.1,0.3-0.1,0.4c0,0.1,0,0.3,0,0.4c0,0.1,0,0.2-0.1,0.3c-0.1,0-0.2,0-0.2,0c-0.1,0-0.1,0-0.2,0.1
				c-0.1,0-0.1,0.1-0.2,0.1c-0.1,0-0.1,0-0.2-0.1l-0.6-0.9c0,0.3,0.1,0.5,0.2,0.7c0,0.1,0.1,0.2,0.2,0.3c-0.4,0.1-0.6,0.1-0.6,0
				l-0.1,0.1l-0.2-0.3c-0.2,0.2-0.2,0.5-0.1,0.9c0.1,0.4,0.1,0.8,0,1c0.1,0.2,0.3,0.3,0.5,0.3c0.1,0,0.2,0,0.2-0.1
				c0.1-0.2,0.2-0.4,0.3-0.7c0.1-0.3,0.3-0.4,0.4-0.4c0.1,0,0.3,0.1,0.4,0.2c0.2,0.1,0.3,0.2,0.3,0.3c0,0.1,0,0.2-0.1,0.4
				c-0.1,0.2-0.1,0.3-0.1,0.4c0,0,0,0.1,0,0.1c-0.1,0.1-0.2,0.2-0.4,0.4c-0.1,0.2-0.2,0.3-0.4,0.4c-0.1,0.1-0.3,0.2-0.4,0.2
				c-0.1,0-0.2-0.1-0.4-0.2c-0.2-0.2-0.4-0.2-0.6-0.2c-0.1-0.2-0.2-0.3-0.5-0.5c-0.3-0.2-0.5-0.4-0.5-0.6c0,0,0-0.1,0-0.2
				c0-0.1,0-0.1-0.1-0.2l0.1-0.1c-0.1,0-0.2-0.1-0.2-0.2c0,0,0-0.1,0-0.1c0,0,0-0.1,0-0.1c0-0.1,0-0.2-0.1-0.2l0-0.5
				c0-0.2-0.1-0.4-0.1-0.5c0.1-0.6,0.2-1.2,0.3-1.7c0.1-0.7,0.4-1,0.7-1c0,0,0.1,0,0.1,0c0.3-0.3,0.6-0.4,0.9-0.4
				c0.4,0,0.9,0.1,1.4,0.4C56.3,1011.8,56.5,1012.5,56.6,1013.3 M54.7,1011.8l-0.1,0.1c-0.1,0-0.1,0-0.2-0.1l0,0.3
				c-0.1,0.2-0.2,0.4-0.2,0.7c0,0.5,0,0.8,0,0.8l0.4,0c0.2-0.1,0.3-0.3,0.3-0.5c0-0.1,0-0.3-0.1-0.6
				C54.8,1012.1,54.7,1011.9,54.7,1011.8"></path>
			<polygon class="st25" points="59.8,1027.1 60.2,1027.3 61.6,1023.7 61.1,1023.5 59.8,1027.2 60.2,1027.4 			"></polygon>
			<polygon class="st25" points="60.4,1026.6 60.2,1026.6 59.8,1027.1 60.2,1027.4 60.6,1026.9 60.4,1027 			"></polygon>
			<polygon class="st25" points="63.7,1026.5 63.9,1026.4 60.4,1026.6 60.4,1027 64,1026.9 64.2,1026.7 			"></polygon>
			<polygon class="st25" points="65.3,1023.2 65.1,1022.9 63.7,1026.5 64.2,1026.7 65.6,1023.1 65.3,1022.8 			"></polygon>
			<polygon class="st25" points="62,1023.3 61.8,1023.4 65.3,1023.2 65.3,1022.8 61.8,1022.9 61.6,1023 			"></polygon>
			<polygon class="st25" points="61.6,1023.7 61.5,1023.8 62,1023.3 61.6,1023 61.2,1023.4 61.1,1023.5 			"></polygon>
			<polygon class="st25" points="64.5,1027 64.8,1026.8 64.1,1026.4 63.8,1026.8 64.6,1027.3 65,1027.1 64.5,1027 			"></polygon>
			<polygon class="st25" points="66,1023.6 65.9,1023.3 64.5,1027 65,1027.1 66.3,1023.5 66.2,1023.2 			"></polygon>
			<polygon class="st25" points="65.6,1023.1 65.2,1023.2 66,1023.6 66.2,1023.2 65.5,1022.8 65.1,1022.9 			"></polygon>
			<polygon points="61.4,1023.6 61.3,1023.6 61.8,1023.2 65.1,1023 65.1,1022.9 65.3,1023 65.6,1023.1 65.5,1023.1 66.1,1023.4 
				66.3,1023.5 66.2,1023.7 67.8,1027.5 66.5,1031.2 64.7,1027 64.5,1027.1 64.5,1027 64.5,1026.9 64,1026.6 63.8,1026.8 
				63.8,1026.6 60.4,1026.8 60,1027.2 			"></polygon>
			<polygon class="st25" points="66.3,1031.1 66.7,1031.1 65,1026.9 64.5,1027.1 66.3,1031.3 66.7,1031.3 66.3,1031.1 			"></polygon>
			<polygon class="st25" points="67.6,1027.6 67.6,1027.5 66.3,1031.1 66.7,1031.3 68.1,1027.6 68.1,1027.5 			"></polygon>
			<polygon class="st25" points="66.3,1023.5 65.9,1023.5 67.6,1027.6 68.1,1027.5 66.3,1023.3 65.9,1023.3 			"></polygon>
			<polygon class="st27" points="66.2,1024.4 66.4,1024.9 66.5,1025.3 66.5,1025.7 66.3,1026.2 66.1,1026.6 65.8,1027 65.4,1027.3 
				65,1027.7 64.7,1027.8 64.5,1027.9 64.2,1027.9 63.9,1028 63.7,1028 63.4,1028 63.1,1028 62.9,1028 62.6,1027.9 62.4,1027.9 
				62.2,1027.8 62,1027.6 61.8,1027.5 61.6,1027.4 61.4,1027.2 61.3,1027 61.1,1026.6 61,1026.1 61,1025.7 61.2,1025.3 61.4,1024.8 
				61.7,1024.4 62.1,1024.1 62.5,1023.8 62.8,1023.7 63.1,1023.6 63.3,1023.5 63.6,1023.4 63.9,1023.4 64.1,1023.4 64.4,1023.4 
				64.6,1023.4 64.9,1023.5 65.1,1023.6 65.3,1023.7 65.6,1023.8 65.7,1023.9 65.9,1024.1 66.1,1024.3 			"></polygon>
			<polygon class="st25" points="66.4,1025.1 66.6,1025.6 66.7,1026 66.6,1026.5 66.5,1026.9 66.3,1027.3 66,1027.7 65.6,1028.1 
				65.1,1028.4 64.9,1028.5 64.6,1028.6 64.4,1028.7 64.1,1028.7 63.8,1028.8 63.6,1028.8 63.3,1028.8 63,1028.7 62.8,1028.7 
				62.6,1028.6 62.4,1028.5 62.1,1028.4 62,1028.3 61.8,1028.1 61.6,1027.9 61.5,1027.7 61.3,1027.3 61.2,1026.9 61.2,1026.4 
				61.3,1026 61.5,1025.6 61.8,1025.2 62.2,1024.8 62.7,1024.5 63,1024.4 63.2,1024.3 63.5,1024.2 63.8,1024.2 64,1024.2 
				64.3,1024.1 64.5,1024.2 64.8,1024.2 65,1024.2 65.3,1024.3 65.5,1024.4 65.7,1024.5 65.9,1024.6 66.1,1024.8 66.2,1025 
				66.4,1025.2 			"></polygon>
			<polygon class="st27" points="66.5,1025.6 66.7,1026 66.8,1026.5 66.8,1026.9 66.6,1027.4 66.4,1027.8 66.1,1028.2 65.8,1028.6 
				65.3,1028.9 65,1029 64.8,1029.1 64.5,1029.1 64.2,1029.2 64,1029.2 63.7,1029.3 63.5,1029.2 63.2,1029.2 62.9,1029.1 
				62.7,1029.1 62.5,1029 62.3,1028.8 62.1,1028.7 61.9,1028.6 61.8,1028.4 61.6,1028.2 61.4,1027.8 61.3,1027.4 61.4,1026.9 
				61.5,1026.5 61.7,1026 62,1025.6 62.4,1025.3 62.9,1025 63.1,1024.9 63.4,1024.8 63.6,1024.7 63.9,1024.7 64.2,1024.6 
				64.4,1024.6 64.7,1024.6 64.9,1024.7 65.2,1024.7 65.4,1024.8 65.7,1024.9 65.9,1025 66,1025.1 66.2,1025.3 66.4,1025.4 			"></polygon>
			<polygon class="st25" points="66.7,1026.4 66.9,1026.8 67,1027.2 67,1027.7 66.8,1028.1 66.6,1028.5 66.3,1028.9 65.9,1029.3 
				65.4,1029.6 65.2,1029.7 64.9,1029.8 64.7,1029.9 64.4,1029.9 64.1,1030 63.9,1030 63.6,1030 63.4,1029.9 63.1,1029.9 
				62.9,1029.8 62.7,1029.7 62.4,1029.6 62.3,1029.4 62.1,1029.3 61.9,1029.1 61.8,1028.9 61.6,1028.5 61.5,1028.1 61.5,1027.6 
				61.7,1027.2 61.9,1026.8 62.2,1026.4 62.6,1026 63,1025.7 63.3,1025.6 63.5,1025.5 63.8,1025.4 64.1,1025.4 64.3,1025.3 
				64.6,1025.3 64.9,1025.4 65.1,1025.4 65.3,1025.4 65.6,1025.5 65.8,1025.6 66,1025.7 66.2,1025.9 66.4,1026 66.6,1026.2 
				66.7,1026.4 			"></polygon>
			<polygon class="st27" points="66.9,1026.8 67.1,1027.2 67.2,1027.7 67.2,1028.1 67.1,1028.6 66.9,1029 66.6,1029.4 66.2,1029.7 
				65.7,1030 65.5,1030.2 65.2,1030.3 64.9,1030.3 64.7,1030.4 64.4,1030.4 64.1,1030.4 63.9,1030.4 63.6,1030.4 63.4,1030.3 
				63.1,1030.2 62.9,1030.2 62.7,1030.1 62.5,1029.9 62.4,1029.8 62.2,1029.6 62.1,1029.4 61.9,1029 61.8,1028.5 61.8,1028.1 
				61.9,1027.7 62.1,1027.2 62.4,1026.8 62.8,1026.5 63.3,1026.2 63.5,1026.1 63.8,1026 64.1,1025.9 64.3,1025.8 64.6,1025.8 
				64.9,1025.8 65.1,1025.8 65.4,1025.8 65.6,1025.9 65.9,1026 66.1,1026.1 66.3,1026.2 66.5,1026.3 66.7,1026.5 66.8,1026.6 			"></polygon>
			<polygon class="st25" points="67.1,1027.6 67.3,1028 67.4,1028.4 67.4,1028.9 67.3,1029.3 67.1,1029.7 66.7,1030.1 66.4,1030.5 
				65.9,1030.8 65.6,1030.9 65.4,1031 65.1,1031.1 64.8,1031.1 64.6,1031.1 64.3,1031.2 64.1,1031.1 63.8,1031.1 63.6,1031.1 
				63.3,1031 63.1,1030.9 62.9,1030.8 62.7,1030.6 62.5,1030.5 62.4,1030.3 62.2,1030.1 62,1029.7 61.9,1029.3 62,1028.8 
				62.1,1028.4 62.3,1028 62.6,1027.6 63,1027.2 63.5,1026.9 63.7,1026.8 64,1026.7 64.2,1026.6 64.5,1026.6 64.8,1026.5 65,1026.5 
				65.3,1026.5 65.5,1026.6 65.8,1026.6 66,1026.7 66.3,1026.8 66.5,1026.9 66.7,1027.1 66.8,1027.2 67,1027.4 			"></polygon>
			<polygon class="st25" points="43.1,1022 43.1,1021.9 41.7,1025.5 42.2,1025.6 43.5,1022 43.5,1021.9 			"></polygon>
			<polygon class="st25" points="43,1021.8 43,1021.8 43.1,1022 43.5,1021.9 43.5,1021.7 43.5,1021.7 			"></polygon>
			<polygon class="st25" points="43,1021.6 43,1021.8 43.5,1021.7 43.4,1021.5 			"></polygon>
			
				<rect x="43" y="1021.3" transform="matrix(0.9545 -0.2983 0.2983 0.9545 -302.7303 59.3886)" class="st25" width="0.5" height="0.2"></rect>
			<polygon class="st25" points="42.9,1021.2 42.9,1021.2 42.9,1021.4 43.4,1021.3 43.3,1021.1 43.3,1021.1 			"></polygon>
			<polygon class="st25" points="42.8,1020.9 42.8,1021 42.9,1021.2 43.3,1021.1 43.3,1020.9 43.3,1021 			"></polygon>
			<polygon class="st25" points="43.3,1020.8 42.8,1020.8 42.8,1020.9 43.3,1021 43.3,1020.8 42.8,1020.7 43.3,1020.9 			"></polygon>
			<polygon class="st28" points="43.7,1031.5 43.6,1031.2 43.2,1031.3 43.2,1031.6 			"></polygon>
			<polygon class="st25" points="44.7,1028.4 44.7,1028.3 43.3,1031.9 43.8,1032.1 45.2,1028.4 45.1,1028.3 			"></polygon>
			<polygon class="st25" points="44.7,1028.2 44.7,1028.4 45.1,1028.3 45.1,1028.1 44.6,1028.2 			"></polygon>
			<polygon class="st25" points="44.6,1027.9 44.6,1028.2 45.1,1028.1 45,1027.8 			"></polygon>
			<polygon class="st25" points="44.5,1027.7 44.6,1027.7 44.6,1027.9 45,1027.8 45,1027.6 45,1027.6 			"></polygon>
			<polygon class="st25" points="45,1027.4 44.5,1027.4 44.5,1027.7 45,1027.6 45,1027.3 44.5,1027.3 			"></polygon>
			<path class="st29" d="M41.7,1024.8l-0.2,0.1L41.7,1024.8z"></path>
			<polygon class="st29" points="41.9,1025.5 42,1025.5 42.1,1025.5 42.2,1025.6 41.9,1025.6 			"></polygon>
			<polygon points="41.4,1024.6 41.7,1024.6 41.7,1024.4 43.1,1020.8 43.1,1020.8 43.1,1020.9 43.1,1021.1 43.2,1021.3 43.2,1021.5 
				43.3,1021.7 43.3,1021.9 43.5,1022 42.2,1025.6 42.1,1025.5 42,1025.5 41.9,1025.5 41.9,1025.6 42.2,1025.6 42,1025.6 42,1025.8 
				41.8,1025.6 41.7,1025.6 41.7,1025.4 41.8,1025.4 41.8,1025.2 41.6,1025.2 41.5,1025 41.5,1024.8 41.7,1024.8 41.5,1024.8 
				41.5,1024.8 			"></polygon>
			<polygon points="41.9,1025.3 52.1,1025 52.3,1025 52.4,1025 52.6,1025.1 52.7,1025.1 52.9,1025.2 53.2,1025.3 53.2,1025.3 
				53.4,1025.4 53.5,1025.5 53.7,1025.6 53.7,1025.7 53.9,1025.8 53.9,1025.9 54,1026 54,1026.1 53.5,1026.2 53.5,1026.1 
				53.4,1026.1 53.3,1026 53.3,1026 53.2,1025.8 53.2,1025.9 53,1025.7 53,1025.7 52.7,1025.6 52.5,1025.6 52.2,1025.5 52.3,1025.5 
				52.1,1025.5 52.1,1025.5 42,1025.8 			"></polygon>
			<polygon points="53.5,1026.2 53.5,1026.2 53.6,1026.2 			"></polygon>
			<polygon class="st25" points="58.9,1034.7 58.9,1034.6 57.5,1038.2 58,1038.4 59.4,1034.7 59.4,1034.6 			"></polygon>
			<polygon class="st25" points="54.9,1022.6 54.9,1022.6 58.9,1034.7 59.4,1034.6 55.4,1022.4 55.3,1022.4 			"></polygon>
			<polygon class="st25" points="54.8,1022.5 54.8,1022.5 54.9,1022.6 55.4,1022.4 55.3,1022.2 55.2,1022.2 54.8,1022.5 			"></polygon>
			<polygon class="st25" points="54.8,1022.3 54.7,1022.3 54.8,1022.5 55.2,1022.2 55.1,1022 55,1022 			"></polygon>
			<polygon class="st25" points="54.6,1022.2 54.6,1022.2 54.8,1022.3 55,1022 54.8,1021.8 54.8,1021.8 			"></polygon>
			<polygon class="st25" points="54.4,1022.1 54.4,1022.1 54.6,1022.2 54.8,1021.8 54.6,1021.7 54.5,1021.7 			"></polygon>
			<polygon class="st25" points="54.1,1022 54.1,1022 54.4,1022.1 54.5,1021.7 54.3,1021.6 54.3,1021.5 54.1,1022 			"></polygon>
			<polygon class="st25" points="53.9,1021.9 53.9,1021.9 54.1,1022 54.3,1021.5 54,1021.5 53.9,1021.9 			"></polygon>
			<polygon class="st25" points="53.7,1021.9 53.6,1021.8 53.9,1021.9 54,1021.5 53.7,1021.4 53.7,1021.4 			"></polygon>
			<polygon class="st25" points="53.4,1021.8 53.4,1021.9 53.7,1021.9 53.7,1021.4 53.5,1021.3 53.4,1021.4 			"></polygon>
			<polygon class="st25" points="43.6,1022 43.3,1022.2 53.4,1021.8 53.4,1021.4 43.3,1021.7 43.1,1021.9 43.5,1022 			"></polygon>
			<polygon class="st29" points="46.1,1033.1 46.1,1033.1 46.1,1033.1 			"></polygon>
			<path class="st29" d="M51.6,1034.7l0,0.5L51.6,1034.7z"></path>
			<path d="M43.2,1031.6l0,0.2l0.1,0.2l0.1,0.2l0.6,0.3l0.6,0.3l0.6,0.3l0.6,0.3l0,0l0.6,0.3l0.6,0.3l0.7,0.3l0.7,0.2l0,0l0.7,0.2
				l0.7,0.2l0,0l0.8,0.1l0.8,0.1l0,0l0.9,0.1l0,0l0.9,0l1,0l1.1-0.1l0.2-0.1l1.4-3.6l-0.2-0.3l0,0.5l-0.1-0.1l0.1-0.1l-0.2,0
				l-0.1-0.1l0,0.1l-0.8,0h-1l-0.9,0l-0.9,0l-0.8-0.1l-0.8-0.1l-0.7-0.2l-0.7-0.2l-0.7-0.2l-0.6-0.2l-0.6-0.3l-0.6-0.3l-0.6-0.3
				l-0.6-0.3l-0.6-0.3l-0.4-0.2l0,0l-0.2-0.1l-0.1-0.3l0-0.2l0-0.1l0.2-0.4l-0.2-0.1l0,0l-0.2-0.1l-1.4,3.6l0,0.1l0,0.3L43.2,1031.6
				z M43.4,1031L43.4,1031L43.4,1031L43.4,1031z"></path>
			<polygon class="st25" points="55.8,1031.6 56.8,1031.6 56.8,1031.1 55.7,1031.2 			"></polygon>
			
				<rect x="54.7" y="1031.2" transform="matrix(0.9996 -2.728339e-02 2.728339e-02 0.9996 -28.1197 1.8914)" class="st25" width="1" height="0.5"></rect>
			<polygon class="st25" points="53.8,1031.6 53.8,1031.6 54.8,1031.7 54.7,1031.2 53.8,1031.2 53.8,1031.2 53.8,1031.6 			"></polygon>
			<polygon class="st25" points="52.9,1031.6 52.9,1031.6 53.8,1031.6 53.8,1031.2 53,1031.1 53,1031.1 			"></polygon>
			<polygon class="st25" points="52.1,1031.5 52.9,1031.6 53,1031.1 52.2,1031 			"></polygon>
			<polygon class="st25" points="51.3,1031.3 51.3,1031.3 52.1,1031.5 52.2,1031 51.4,1030.9 51.4,1030.9 			"></polygon>
			<polygon class="st25" points="50.6,1031.1 51.3,1031.3 51.4,1030.9 50.7,1030.7 50.6,1031.2 			"></polygon>
			<polygon class="st25" points="49.8,1031 49.8,1031 50.6,1031.2 50.7,1030.7 50,1030.5 50,1030.5 			"></polygon>
			<polygon class="st25" points="49.2,1030.7 49.2,1030.7 49.8,1031 50,1030.5 49.3,1030.2 49.3,1030.3 49.1,1030.7 			"></polygon>
			<polygon class="st25" points="48.5,1030.4 49.1,1030.7 49.3,1030.3 48.7,1030 			"></polygon>
			<polygon class="st25" points="47.9,1030.2 48.5,1030.4 48.7,1030 48.1,1029.7 			"></polygon>
			<polygon class="st25" points="47.3,1029.9 47.3,1029.9 47.9,1030.2 48.1,1029.7 47.4,1029.4 47.5,1029.4 47.2,1029.9 			"></polygon>
			<polygon class="st25" points="46.7,1029.6 47.2,1029.9 47.5,1029.4 46.9,1029.1 46.6,1029.6 			"></polygon>
			<polygon class="st25" points="46.1,1029.2 46.6,1029.6 46.9,1029.1 46.3,1028.8 46,1029.2 			"></polygon>
			<polygon class="st25" points="45.4,1028.9 46,1029.2 46.3,1028.8 45.7,1028.5 			"></polygon>
			<polygon class="st25" points="45.2,1028.4 44.8,1028.6 45.4,1028.9 45.7,1028.5 45,1028.2 44.7,1028.3 			"></polygon>
			<polygon class="st25" points="108.2,1021.9 106.9,1025.5 111.4,1027 112.4,1024.6 112.5,1024.4 112.5,1024.1 112.4,1023.9 
				112.3,1023.6 112.2,1023.4 112.1,1023.2 111.9,1022.9 111.7,1022.7 111.5,1022.5 111.3,1022.3 111,1022.2 110.8,1022 
				110.6,1021.9 110.3,1021.8 110.1,1021.7 109.9,1021.6 109.7,1021.5 109.5,1021.5 109.3,1021.5 109,1021.5 108.8,1021.5 
				108.6,1021.6 108.4,1021.7 			"></polygon>
			<polygon class="st25" points="111.2,1026.9 111.5,1026.8 106.9,1025.3 106.8,1025.7 111.3,1027.2 111.6,1027.1 			"></polygon>
			<polygon points="41.4,1024.4 41.5,1024.3 42.8,1020.7 43.3,1020.9 41.9,1024.4 41.9,1024.6 41.9,1024.5 41.4,1024.6 41.4,1024.6 
							"></polygon>
			<polygon class="st29" points="63.6,1033 63.5,1033 63.5,1033 			"></polygon>
			<path d="M41.6,1025.2l0.1,0.2l0,0l0.4-0.1l-0.1,0.2l10.1-0.3l0.2,0l0.3,0.1l0.3,0.1l0.3,0.1l0.2,0.2l0.2,0.1l0.1,0.2l0.1,0.2
				l-0.2,0.1l4,12.2l0.2,0l0,0.1h0.4l0.3,0l0.3,0l0.3-0.1l0.3-0.1l0.3-0.1l0.3-0.2l0.3-0.3l0,0l0.2-0.3l0.2-0.3l0.2-0.3l0.2-0.3
				l0.2-0.3l0.2-0.3l0.2-0.3l0.2-0.3l0.2-0.3l0.3-0.3l0.2-0.3l0.3-0.3l0.2-0.2l0.2-0.2l0.2-0.2l0.3-0.2l0.1,0l-0.2-0.2l0.2,0.2
				l0.3-0.3l0.2-0.2l0.2-0.2l0.2-0.2l0.2-0.2l0.2-0.1l0.2-0.1l0.2-0.1l0.3-0.1l0.3-0.1l0.3-0.1l0.3,0l0.3-0.1l0.4,0l0.4,0l0.4,0l0,0
				l43.7-3.3l0.3,0l0.2,0l0.2,0l0.2-0.1l0.2-0.1l0.2-0.1l0.2-0.2l0.2-0.2l0-0.1l0.8-1.8l-0.4-0.3l0.2,0.2l0,0l-0.2-0.1l-0.2,0.4
				l-0.1,0.1l-0.2,0.1l-0.2,0.1l-0.2,0l-0.2,0l-0.2,0l-43.7,3.3l-0.3,0l-0.3,0l-0.3,0l-0.3,0h-0.3l-0.3,0l-0.3,0l-0.3,0l-0.3,0
				l-0.3,0l-0.3,0.1l-0.3,0.1l-0.3,0.1l-0.3,0.1l-0.3,0.1l-0.3,0.1l-0.5,0.3l-0.5,0.5l-0.6,0.6l-0.5,0.6l-0.5,0.7l-0.4,0.6l-0.4,0.6
				l-0.4,0.4l-0.2,0.1l-0.2,0l-0.2,0H60h-0.2l-0.2,0l-0.2,0l-0.2,0l-4-12.1l-0.1-0.2l-0.1-0.2l-0.2-0.1l-0.3-0.2l-0.3-0.1l-0.3-0.1
				l-0.2-0.1l-0.2,0l-10.1,0.3l-1.2,3.2l0,0L41.6,1025.2z M114.4,1025.6L114.4,1025.6l0.2,0.1L114.4,1025.6z"></path>
			<polygon class="st25" points="112.8,1026.5 113.1,1026.4 113.3,1026.3 113.5,1026.3 113.8,1026.2 114,1026.1 114.2,1026 
				114.3,1025.9 114.5,1025.7 114.2,1025.3 114,1025.5 113.9,1025.6 113.7,1025.7 113.6,1025.8 113.4,1025.8 113.2,1025.9 
				113,1025.9 112.8,1025.9 			"></polygon>
			<polygon class="st25" points="69.1,1029.7 112.8,1026.5 112.8,1025.9 69.1,1029.2 			"></polygon>
			<polygon class="st25" points="64.8,1030.5 65.1,1030.4 65.3,1030.3 65.6,1030.2 65.9,1030.1 66.2,1030 66.4,1030 66.7,1029.9 
				66.9,1029.9 67.2,1029.9 67.4,1029.8 67.7,1029.8 68,1029.8 68.3,1029.8 68.5,1029.7 68.8,1029.7 69.1,1029.7 69.1,1029.2 
				68.8,1029.2 68.5,1029.3 68.2,1029.3 67.9,1029.3 67.7,1029.3 67.4,1029.4 67.1,1029.4 66.8,1029.4 66.6,1029.5 66.3,1029.5 
				66,1029.6 65.7,1029.6 65.5,1029.7 65.2,1029.8 64.9,1029.9 64.6,1030 			"></polygon>
			<polygon class="st25" points="60.9,1034.8 61,1034.7 61.2,1034.5 61.4,1034.3 61.6,1034 61.8,1033.7 62.1,1033.4 62.3,1033.1 
				62.5,1032.8 62.8,1032.4 63.1,1032.1 63.3,1031.8 63.6,1031.5 63.9,1031.2 64.1,1031 64.4,1030.8 64.6,1030.6 64.8,1030.5 
				64.6,1030 64.3,1030.2 64.1,1030.4 63.8,1030.6 63.5,1030.9 63.2,1031.2 63,1031.5 62.7,1031.8 62.4,1032.2 62.2,1032.5 
				61.9,1032.8 61.7,1033.1 61.4,1033.4 61.2,1033.7 61,1034 60.8,1034.2 60.7,1034.4 60.8,1034.4 			"></polygon>
			<polygon class="st27" points="52.5,1021.6 53.4,1021.6 53.5,1021.6 45.8,1019 45.4,1019.3 52.5,1021.6 			"></polygon>
			<polygon class="st27" points="52.5,1021.6 43.3,1021.9 43.3,1021.7 43.2,1021.5 43.2,1021.3 43.1,1021.1 43.1,1020.9 
				43.1,1020.8 43.1,1020.6 43.3,1020.5 43.7,1020.2 44.1,1020 44.5,1019.7 44.9,1019.5 45.3,1019.2 45.4,1019.3 52.5,1021.6 			"></polygon>
			<polygon class="st30" points="46.9,1027.2 53.2,1026.9 55.7,1027.9 56.5,1030.5 56.8,1031.3 55.8,1031.4 54.7,1031.4 
				53.8,1031.4 52.9,1031.3 52.1,1031.2 51.3,1031.1 50.6,1030.9 49.9,1030.7 49.2,1030.5 48.6,1030.2 48,1029.9 47.4,1029.6 
				46.7,1029.3 46.1,1029 45.6,1028.7 44.9,1028.4 44.9,1028.1 44.8,1027.9 44.8,1027.6 44.7,1027.4 			"></polygon>
			<polygon class="st27" points="62.8,1028 62.8,1028.1 63.7,1028.6 63.9,1028.1 63.1,1027.6 63.2,1027.8 62.8,1028 62.8,1028 
				62.8,1028.1 			"></polygon>
			<polygon class="st27" points="55.6,1028.1 55.4,1027.9 56.6,1031.4 57,1031.3 55.9,1027.8 55.8,1027.7 55.9,1027.8 55.9,1027.7 
				55.8,1027.7 			"></polygon>
			<polygon class="st27" points="53.2,1027.1 53.1,1027.1 55.6,1028.1 55.8,1027.7 53.3,1026.7 53.2,1026.6 53.3,1026.7 
				53.3,1026.6 53.2,1026.6 			"></polygon>
			<polygon class="st27" points="45,1027.3 44.8,1027.6 53.2,1027.1 53.2,1026.6 44.7,1027.1 44.5,1027.4 44.7,1027.1 44.5,1027.1 
				44.5,1027.4 			"></polygon>
			<polygon class="st27" points="45,1028.2 45.1,1028.3 45.1,1028.2 45.1,1028.1 45.1,1027.9 45.1,1027.8 45.1,1027.7 45,1027.6 
				45,1027.5 45,1027.3 44.5,1027.4 44.5,1027.5 44.5,1027.7 44.6,1027.8 44.6,1027.9 44.6,1028 44.6,1028.2 44.7,1028.3 
				44.7,1028.4 44.8,1028.6 44.7,1028.4 44.7,1028.5 44.8,1028.6 			"></polygon>
			<polygon class="st27" points="56.6,1031.4 56.8,1031.1 55.7,1031.2 54.7,1031.2 53.8,1031.2 53,1031.1 52.2,1031 51.4,1030.9 
				50.7,1030.7 50,1030.5 49.3,1030.2 48.7,1030 48.1,1029.7 47.5,1029.4 46.9,1029.1 46.3,1028.8 45.7,1028.5 45,1028.2 
				44.8,1028.6 45.4,1028.9 46,1029.2 46.6,1029.6 47.2,1029.9 47.9,1030.2 48.5,1030.4 49.2,1030.7 49.8,1031 50.6,1031.2 
				51.3,1031.3 52.1,1031.5 52.9,1031.6 53.8,1031.6 54.8,1031.7 55.8,1031.6 56.8,1031.6 57,1031.3 56.8,1031.6 57.1,1031.6 
				57,1031.3 56.6,1031.4 			"></polygon>
			<polygon class="st27" points="69.1,1029.2 68.7,1029.2 68.4,1029.3 68.1,1029.3 67.7,1029.3 67.4,1029.4 67,1029.4 66.7,1029.5 
				66.3,1029.6 66,1029.6 65.7,1029.7 65.4,1029.9 65.1,1030 64.8,1030.1 64.5,1030.2 64.2,1030.4 64,1030.6 64.3,1031 64.5,1030.8 
				64.7,1030.7 65,1030.5 65.2,1030.4 65.5,1030.3 65.8,1030.2 66.1,1030.1 66.4,1030 66.8,1030 67.1,1029.9 67.4,1029.9 
				67.7,1029.8 68.1,1029.8 68.5,1029.7 68.8,1029.7 69.1,1029.7 			"></polygon>
			<polygon class="st27" points="112.8,1025.9 69.1,1029.2 69.1,1029.7 112.8,1026.5 			"></polygon>
			<polygon class="st27" points="113.6,1023.3 113.8,1023.5 114,1023.8 114.1,1024 114.2,1024.3 114.3,1024.5 114.3,1024.7 
				114.3,1024.9 114.3,1025.1 114.2,1025.2 114.2,1025.4 114.1,1025.5 113.9,1025.7 113.7,1025.8 113.5,1025.8 113.2,1025.9 
				112.8,1025.9 112.8,1026.5 113.2,1026.4 113.6,1026.3 113.9,1026.2 114.2,1026 114.4,1025.9 114.6,1025.6 114.7,1025.4 
				114.8,1025.2 114.8,1024.9 114.8,1024.6 114.7,1024.4 114.6,1024.1 114.5,1023.8 114.4,1023.5 114.2,1023.2 114,1023 			"></polygon>
			<polygon class="st27" points="108.4,1020.8 108.8,1020.8 109.2,1020.8 109.6,1020.9 110,1020.9 110.4,1021.1 110.7,1021.2 
				111.1,1021.4 111.4,1021.5 111.8,1021.7 112.1,1021.9 112.4,1022.1 112.7,1022.3 112.9,1022.6 113.2,1022.8 113.4,1023.1 
				113.6,1023.3 114,1023 113.8,1022.7 113.5,1022.5 113.3,1022.2 113,1022 112.7,1021.7 112.3,1021.5 112,1021.3 111.7,1021.1 
				111.3,1020.9 110.9,1020.8 110.5,1020.6 110.1,1020.5 109.7,1020.4 109.3,1020.3 108.8,1020.3 108.4,1020.3 			"></polygon>
			<polygon class="st27" points="69.7,1022.1 108.4,1020.8 108.4,1020.3 69.7,1021.7 			"></polygon>
			<polygon class="st27" points="63.6,1021.1 64,1021.3 64.3,1021.4 64.7,1021.5 65.1,1021.6 65.5,1021.7 65.9,1021.8 66.3,1021.8 
				66.7,1021.9 67.1,1022 67.5,1022 67.9,1022.1 68.2,1022.1 68.6,1022.1 69,1022.1 69.4,1022.1 69.7,1022.1 69.7,1021.7 
				69.3,1021.7 69,1021.6 68.7,1021.6 68.3,1021.6 67.9,1021.6 67.5,1021.5 67.2,1021.5 66.8,1021.4 66.4,1021.3 66,1021.3 
				65.6,1021.2 65.2,1021.1 64.8,1021 64.4,1020.9 64.1,1020.8 63.7,1020.7 63.6,1021.2 			"></polygon>
			<polygon class="st27" points="50.5,1017.6 51.2,1017.5 51.8,1017.4 52.4,1017.4 53,1017.3 53.5,1017.3 54,1017.4 54.4,1017.4 
				54.8,1017.4 55.3,1017.5 55.6,1017.6 56,1017.6 56.3,1017.7 56.7,1017.9 57,1018 57.3,1018.1 57.6,1018.3 57.9,1018.4 
				58.2,1018.6 58.5,1018.7 58.8,1018.9 59.1,1019.1 59.4,1019.3 59.7,1019.4 60.1,1019.7 60.5,1019.8 60.8,1020 61.2,1020.2 
				61.6,1020.4 62.1,1020.6 62.6,1020.8 63.1,1021 63.6,1021.2 63.7,1020.7 63.2,1020.5 62.7,1020.3 62.3,1020.2 61.8,1020 
				61.4,1019.8 61,1019.6 60.7,1019.4 60.3,1019.2 60,1019 59.7,1018.9 59.3,1018.7 59,1018.5 58.7,1018.3 58.4,1018.1 58.1,1018 
				57.8,1017.8 57.5,1017.7 57.2,1017.5 56.8,1017.4 56.5,1017.3 56.1,1017.2 55.7,1017.1 55.3,1017 54.9,1016.9 54.5,1016.9 
				54,1016.9 53.5,1016.9 53,1016.9 52.4,1016.9 51.8,1016.9 51.1,1017 50.5,1017.1 50.5,1017.5 			"></polygon>
			<polygon class="st27" points="43.4,1020.7 43.8,1020.4 44.2,1020.2 44.6,1020 45.1,1019.7 45.5,1019.5 45.9,1019.2 46.3,1019 
				46.7,1018.8 47.2,1018.6 47.7,1018.4 48.1,1018.2 48.6,1018 49.1,1017.9 49.5,1017.8 50,1017.6 50.5,1017.5 50.5,1017.1 
				49.9,1017.2 49.4,1017.3 48.9,1017.4 48.4,1017.6 48,1017.8 47.5,1017.9 47,1018.1 46.6,1018.3 46.1,1018.6 45.6,1018.8 
				45.2,1019 44.8,1019.3 44.4,1019.5 44,1019.8 43.6,1020 43.2,1020.3 43.4,1020.7 			"></polygon>
			<polygon class="st27" points="43.3,1021.7 43.6,1021.9 43.5,1021.7 43.4,1021.5 43.4,1021.3 43.3,1021.1 43.3,1020.9 
				43.3,1020.8 43.3,1020.7 43.4,1020.7 43.2,1020.3 42.9,1020.5 42.8,1020.7 42.8,1021 42.9,1021.2 42.9,1021.4 43,1021.6 
				43,1021.8 43.1,1022 43.3,1022.2 43.1,1022 43.1,1022.2 43.3,1022.2 			"></polygon>
			<polygon class="st30" points="61.2,1023.4 61.2,1023.4 61.2,1023.4 			"></polygon>
			<polygon class="st30" points="61.1,1023.5 61.2,1023.4 61.1,1023.7 			"></polygon>
			<polygon class="st30" points="67.6,1026.3 75.6,1029 74.7,1029 74.7,1029.1 67.8,1026.7 			"></polygon>
			<path class="st30" d="M43.3,1022.2l10.1-0.3l0.2,0l0.2,0.1l0.3,0.1l0.2,0.1l0.2,0.1l0.2,0.1l0.1,0.2l0.1,0.1l4,12.2l0.1,0.2
				l0.2,0l0.2,0l0.2,0l0.3,0l0.3,0l0.3,0l0.2-0.1l0.3-0.1l0.2-0.1l0.3-0.3l0.2-0.3l0.2-0.2l0.2-0.2l0.2-0.2l0.2-0.2l0.1-0.2l0.2-0.2
				l0.1-0.2l0.2-0.2l0.2-0.2l0.2-0.2l0.2-0.2l0.2-0.2l0.2-0.2l0.3-0.2l-0.1-0.2l0.2-0.2l0.2-0.2l0.3-0.1l0.3-0.1l0.3-0.1l0.3-0.1
				l0.3-0.1l0.3-0.1l0.3,0l0.3-0.1l0.4,0l0.3-0.1l0.3,0l0.4,0l0.3,0l0.3,0l5.6-0.4l-6.9-2.3l-0.2-0.4l8,2.7l37.3-2.8l0.7-0.1
				l0.5-0.2l0.4-0.3l0.1-0.4l0-0.4l0,0l-0.1-0.5l-0.2-0.5l-0.4-0.5l-0.2-0.2l-0.2-0.2l-0.3-0.3l-0.3-0.2l-0.3-0.2l-0.3-0.2l-0.3-0.2
				l-0.3-0.2l-0.4-0.1l-0.4-0.2l-0.4-0.1l-0.4-0.1l-0.4-0.1l-0.4-0.1l-0.4,0l-0.4,0l-5.6,0.2l-33,1.1h-0.4l-0.3,0l-0.4,0l-0.4,0
				l-0.4,0l-0.4,0l-0.4,0l-0.4-0.1l-0.4-0.1l-0.4-0.1l-0.4-0.1l-0.4-0.1l-0.4-0.1l-0.4-0.1L64,1021l-0.4-0.1l-0.5-0.2l-0.5-0.2
				l-0.5-0.2l-0.4-0.2l-0.4-0.2l-0.4-0.2l-0.4-0.2l-0.4-0.2l-0.3-0.2l-0.3-0.2l-0.3-0.2l-0.3-0.2l-0.3-0.2l-0.3-0.2l-0.3-0.1
				l-0.3-0.2l-0.3-0.2l-0.3-0.1l-0.3-0.1l-0.3-0.1l-0.4-0.1l-0.4-0.1l-0.4-0.1l-0.4-0.1l-0.4,0l-0.5,0l-0.5,0l-0.5,0l-0.5,0
				l-0.6,0.1l-0.6,0.1l-0.7,0.1l-0.5,0.1l-0.5,0.1l-0.5,0.1l-0.5,0.2L48,1018l-0.5,0.2l-0.4,0.2l-0.5,0.2l-0.4,0.2l-0.4,0.2l7.1,2.4
				l-9.5,0.3L43.3,1022.2z M108.1,1022.4l0-0.3l0.1-0.2l0.2-0.2l0.3-0.1l0.3,0l0.2,0l0.2,0l0.2,0l0.2,0l0.2,0.1l0.2,0.1l0.2,0.1
				l0.2,0.1l0.2,0.1l0.2,0.1l0.2,0.1l0.2,0.2l0.2,0.1l0.1,0.2l0.2,0.2l0.1,0.2l0.3,0.3l0.1,0.3l0.1,0.2l0,0.1l0,0.3l-0.1,0.2
				l-0.2,0.2l-0.2,0.1l-0.3,0.1l-0.2,0l-0.2,0l-0.2,0l-0.2,0l-0.2-0.1l-0.2-0.1l-0.2-0.1l-0.2-0.1l-0.2-0.1l-0.2-0.1l-0.2-0.1
				l-0.2-0.2l-0.2-0.1l-0.2-0.2l-0.2-0.2l-0.1-0.2l-0.2-0.3l-0.1-0.3l0-0.1L108.1,1022.4z M67.8,1027.5L67.8,1027.5l-0.2-0.1
				L67.8,1027.5z M61.6,1023.7l0.3-0.3l3.3-0.2l0.7,0.4l1.7,3.9l-0.3,0.3l-3.6,0.3l0.2,0l-0.1,0.2h0l-0.8-0.5l0,0l0.2-0.1
				L61.6,1023.7z"></path>
			<polygon class="st25" points="105.9,1024.9 105.7,1024.8 105.6,1024.6 105.9,1024.5 106,1024.7 105.8,1024.6 			"></polygon>
			<polygon class="st25" points="106.3,1024.7 106.2,1024.7 106.1,1024.8 106.1,1024.8 106,1024.9 105.9,1024.9 105.8,1024.6 
				105.8,1024.6 105.9,1024.5 106,1024.5 106,1024.5 106,1024.5 106.2,1024.7 			"></polygon>
			<polygon class="st25" points="105.4,1022.8 105.5,1022.8 105.6,1023 105.8,1023.2 105.9,1023.4 106.1,1023.6 106.2,1023.9 
				106.3,1024.1 106.3,1024.4 106.2,1024.7 106,1024.5 106,1024.4 106,1024.2 106,1024 105.8,1023.8 105.7,1023.6 105.5,1023.4 
				105.4,1023.2 105.2,1023 105.2,1023.1 			"></polygon>
			<polygon class="st25" points="102.8,1022.1 102.7,1022 103.1,1022.1 103.5,1022.1 103.8,1022.1 104.2,1022.2 104.5,1022.2 
				104.8,1022.4 105.1,1022.6 105.4,1022.8 105.2,1023.1 104.9,1022.9 104.7,1022.7 104.4,1022.5 104.1,1022.5 103.8,1022.4 
				103.4,1022.4 103.1,1022.4 102.8,1022.4 102.8,1022.4 102.7,1022.1 			"></polygon>
			<polygon class="st25" points="74.4,1023.5 74.5,1023.5 102.7,1022.1 102.8,1022.4 74.5,1023.8 74.6,1023.7 			"></polygon>
			<polygon class="st25" points="73.7,1024.5 73.4,1024.4 73.4,1024.2 73.5,1024 73.5,1023.9 73.7,1023.7 73.8,1023.6 74,1023.6 
				74.2,1023.5 74.5,1023.5 74.5,1023.8 74.3,1023.8 74.1,1023.9 74,1023.9 73.9,1024 73.8,1024 73.7,1024.1 73.7,1024.3 
				73.7,1024.5 73.4,1024.4 			"></polygon>
			<polygon points="105.7,1024.4 105.6,1024.3 105.5,1024.2 105.4,1024 105.3,1023.9 105.2,1023.8 105.1,1023.7 105,1023.6 
				104.7,1023.3 104.4,1023.1 104.1,1023 103.8,1022.9 103.5,1022.9 103.1,1022.8 102.8,1022.8 102.4,1022.8 74.2,1024.2 
				74.4,1023.8 74.5,1023.8 74.5,1023.8 102.8,1022.4 103.2,1022.4 103.6,1022.4 104,1022.4 104.4,1022.5 104.7,1022.6 
				104.9,1022.8 105.2,1023 105.5,1023.4 105.8,1023.7 106,1024 106.1,1024.2 106.1,1024.4 106,1024.5 105.8,1024.6 105.8,1024.6 
				105.8,1024.6 			"></polygon>
			<path d="M73.4,1024.4l0,0.3l0.1,0.2l0.1,0.3l0.2,0.3l0.2,0.2l0.3,0.3l0.4,0.2l0.4,0.2l0.4,0.1l0.5,0l29-1.5l0.6-0.1l0.4-0.1
				l0.3-0.2l0.2-0.3l0-0.3l-0.1-0.3l-0.2-0.3l-0.3-0.4l-0.3-0.3l-0.3-0.3l-0.3-0.2l-0.3-0.2l-0.4-0.1l-0.4-0.1h-0.4l-0.5,0
				l-28.2,1.4v0l-0.3,0l-0.3,0.1l-0.2,0.2l-0.1,0.2l-0.1,0.2L73.4,1024.4z M73.7,1024.5l0-0.2l0,0l0,0h0.1l0.2,0l0.2-0.4l0.1,0l0,0
				l28.3-1.4l0.5,0l0.4,0l0.4,0.1l0.3,0.1l0.3,0.2l0.3,0.2l0.3,0.2l0.3,0.3l0.3,0.3l0.2,0.3l0.1,0.2v0.1l-0.1,0.1l-0.2,0.1l0,0
				l-0.3,0.1l-0.5,0.1l-29,1.5l0,0l-0.4,0l-0.4-0.1l-0.4-0.2l-0.3-0.2l-0.3-0.3l-0.2-0.3l-0.2-0.2l-0.1-0.2l0-0.2L73.7,1024.5z"></path>
		</g>
		<g>
			<g>
				<path class="st11" d="M32,1078.9l0.6,1.9c0.1,0.4,0.2,0.8,0.3,1.2h0c0.1-0.4,0.2-0.8,0.4-1.2l0.7-1.9h0.6l0.6,1.9
					c0.1,0.5,0.3,0.9,0.4,1.2h0c0.1-0.4,0.2-0.8,0.3-1.2l0.6-1.9h0.7l-1.3,3.8h-0.7l-0.6-1.8c-0.2-0.4-0.3-0.8-0.4-1.3h0
					c-0.1,0.5-0.2,0.9-0.4,1.3l-0.7,1.8h-0.7l-1.2-3.8H32z"></path>
				<path class="st11" d="M38.2,1078.9l0.6,1.9c0.1,0.4,0.2,0.8,0.3,1.2h0c0.1-0.4,0.2-0.8,0.4-1.2l0.7-1.9h0.6l0.6,1.9
					c0.1,0.5,0.3,0.9,0.4,1.2h0c0.1-0.4,0.2-0.8,0.3-1.2l0.6-1.9h0.7l-1.3,3.8h-0.7l-0.6-1.8c-0.2-0.4-0.3-0.8-0.4-1.3h0
					c-0.1,0.5-0.2,0.9-0.4,1.3l-0.7,1.8h-0.7l-1.2-3.8H38.2z"></path>
				<path class="st11" d="M44.4,1078.9l0.6,1.9c0.1,0.4,0.2,0.8,0.3,1.2h0c0.1-0.4,0.2-0.8,0.4-1.2l0.7-1.9h0.6l0.6,1.9
					c0.1,0.5,0.3,0.9,0.4,1.2h0c0.1-0.4,0.2-0.8,0.3-1.2l0.6-1.9h0.7l-1.3,3.8h-0.7l-0.6-1.8c-0.2-0.4-0.3-0.8-0.4-1.3h0
					c-0.1,0.5-0.2,0.9-0.4,1.3l-0.7,1.8h-0.7l-1.2-3.8H44.4z"></path>
				<path class="st11" d="M50.1,1082.3c0-0.3,0.2-0.5,0.5-0.5c0.3,0,0.5,0.2,0.5,0.5c0,0.3-0.2,0.5-0.5,0.5
					C50.3,1082.8,50.1,1082.6,50.1,1082.3z"></path>
				<path class="st11" d="M52.8,1077.8v1.1h1.1v0.5h-1.1v2c0,0.5,0.1,0.8,0.6,0.8c0.2,0,0.4,0,0.4-0.1l0,0.5
					c-0.1,0.1-0.4,0.1-0.7,0.1c-0.3,0-0.6-0.1-0.8-0.3c-0.2-0.2-0.3-0.6-0.3-1v-2h-0.6v-0.5h0.6v-0.9L52.8,1077.8z"></path>
				<path class="st11" d="M54.8,1077.1h0.7v2.5h0c0.1-0.2,0.3-0.4,0.6-0.5c0.2-0.1,0.5-0.2,0.8-0.2c0.5,0,1.5,0.3,1.5,1.7v2.2h-0.7
					v-2.1c0-0.7-0.3-1.2-1-1.2c-0.5,0-0.9,0.4-1,0.7c0,0.1-0.1,0.2-0.1,0.3v2.2h-0.7V1077.1z"></path>
				<path class="st11" d="M59.9,1081c0,0.8,0.6,1.3,1.4,1.3c0.6,0,0.9-0.1,1.2-0.2l0.1,0.5c-0.2,0.1-0.7,0.3-1.4,0.3
					c-1.2,0-2-0.8-2-1.9c0-1.1,0.7-2.1,1.9-2.1c1.4,0,1.7,1.2,1.7,1.8c0,0.1,0,0.2,0,0.3H59.9z M62.1,1080.4c0-0.3-0.1-1.1-1.1-1.1
					c-0.8,0-1.1,0.7-1.2,1.1H62.1z"></path>
				<path class="st11" d="M67.3,1078.9c0,0.3,0,0.6,0,1v2.2c0,0.8-0.2,1.4-0.6,1.8c-0.4,0.4-1,0.5-1.5,0.5c-0.5,0-1.1-0.1-1.4-0.4
					l0.2-0.5c0.3,0.2,0.7,0.3,1.2,0.3c0.8,0,1.4-0.4,1.4-1.4v-0.4h0c-0.2,0.4-0.7,0.7-1.4,0.7c-1,0-1.8-0.8-1.8-1.8
					c0-1.2,0.9-2,1.9-2c0.7,0,1.1,0.4,1.3,0.7h0l0-0.6H67.3z M66.6,1080.5c0-0.1,0-0.2,0-0.3c-0.1-0.4-0.5-0.8-1.1-0.8
					c-0.7,0-1.3,0.5-1.3,1.4c0,0.7,0.4,1.3,1.3,1.3c0.5,0,0.9-0.3,1.1-0.8c0-0.1,0.1-0.2,0.1-0.4V1080.5z"></path>
				<path class="st11" d="M70.8,1082.7l-0.1-0.5h0c-0.2,0.3-0.7,0.6-1.3,0.6c-0.8,0-1.2-0.6-1.2-1.1c0-0.9,0.8-1.4,2.5-1.4v-0.1
					c0-0.2-0.1-0.9-0.9-0.9c-0.4,0-0.8,0.1-1.1,0.3l-0.2-0.5c0.4-0.2,0.9-0.4,1.4-0.4c1.3,0,1.6,0.9,1.6,1.6v1.3
					c0,0.3,0,0.7,0.1,0.9H70.8z M70.7,1080.8c-0.9,0-1.8,0.1-1.8,0.8c0,0.4,0.3,0.7,0.7,0.7c0.6,0,0.9-0.4,1-0.7c0-0.1,0-0.2,0-0.2
					V1080.8z"></path>
				<path class="st11" d="M72.6,1080c0-0.4,0-0.7,0-1h0.6l0,0.7h0c0.2-0.4,0.6-0.7,1.3-0.7c0.6,0,1,0.4,1.2,0.8h0
					c0.1-0.2,0.3-0.4,0.4-0.5c0.3-0.2,0.5-0.3,0.9-0.3c0.5,0,1.4,0.3,1.4,1.7v2.1h-0.7v-2.1c0-0.8-0.3-1.2-0.9-1.2
					c-0.4,0-0.8,0.3-0.9,0.6c0,0.1-0.1,0.2-0.1,0.3v2.3h-0.7v-2.2c0-0.7-0.3-1.1-0.9-1.1c-0.5,0-0.8,0.4-1,0.7
					c0,0.1-0.1,0.2-0.1,0.3v2.2h-0.7V1080z"></path>
				<path class="st11" d="M80,1081c0,0.8,0.6,1.3,1.4,1.3c0.6,0,0.9-0.1,1.2-0.2l0.1,0.5c-0.2,0.1-0.7,0.3-1.4,0.3
					c-1.2,0-2-0.8-2-1.9c0-1.1,0.7-2.1,1.9-2.1c1.4,0,1.7,1.2,1.7,1.8c0,0.1,0,0.2,0,0.3H80z M82.3,1080.4c0-0.3-0.1-1.1-1.1-1.1
					c-0.8,0-1.1,0.7-1.2,1.1H82.3z"></path>
				<path class="st11" d="M86.9,1082.5c-0.2,0.1-0.6,0.2-1.2,0.2c-1.2,0-2-0.8-2-1.9c0-1.2,0.9-2,2.2-2c0.5,0,0.9,0.1,1.1,0.2
					l-0.2,0.5c-0.2-0.1-0.5-0.2-0.9-0.2c-0.9,0-1.5,0.6-1.5,1.4c0,0.9,0.6,1.4,1.5,1.4c0.5,0,0.8-0.1,1-0.2L86.9,1082.5z"></path>
				<path class="st11" d="M87.8,1080.2c0-0.5,0-0.9,0-1.2h0.6l0,0.8h0c0.2-0.6,0.6-0.9,1.1-0.9c0.1,0,0.1,0,0.2,0v0.7
					c-0.1,0-0.2,0-0.3,0c-0.5,0-0.9,0.4-1,0.9c0,0.1,0,0.2,0,0.3v2h-0.7V1080.2z"></path>
				<path class="st11" d="M92.9,1082.7l-0.1-0.5h0c-0.2,0.3-0.7,0.6-1.3,0.6c-0.8,0-1.2-0.6-1.2-1.1c0-0.9,0.8-1.4,2.5-1.4v-0.1
					c0-0.2-0.1-0.9-0.9-0.9c-0.4,0-0.8,0.1-1.1,0.3l-0.2-0.5c0.4-0.2,0.9-0.4,1.4-0.4c1.3,0,1.6,0.9,1.6,1.6v1.3
					c0,0.3,0,0.7,0.1,0.9H92.9z M92.8,1080.8c-0.9,0-1.8,0.1-1.8,0.8c0,0.4,0.3,0.7,0.7,0.7c0.6,0,0.9-0.4,1-0.7c0-0.1,0-0.2,0-0.2
					V1080.8z"></path>
				<path class="st11" d="M94.7,1082.7v-3.2h-0.5v-0.5h0.5v-0.2c0-0.6,0.1-1.1,0.5-1.4c0.3-0.2,0.6-0.4,1-0.4c0.3,0,0.5,0.1,0.6,0.1
					l-0.1,0.5c-0.1-0.1-0.3-0.1-0.5-0.1c-0.6,0-0.8,0.5-0.8,1.1v0.2h1v0.5h-1v3.2H94.7z"></path>
				<path class="st11" d="M97.9,1077.8v1.1H99v0.5h-1.1v2c0,0.5,0.1,0.8,0.6,0.8c0.2,0,0.4,0,0.4-0.1l0,0.5
					c-0.1,0.1-0.4,0.1-0.7,0.1c-0.3,0-0.6-0.1-0.8-0.3c-0.2-0.2-0.3-0.6-0.3-1v-2h-0.6v-0.5h0.6v-0.9L97.9,1077.8z"></path>
				<path class="st11" d="M100.2,1081c0,0.8,0.6,1.3,1.4,1.3c0.6,0,0.9-0.1,1.2-0.2l0.1,0.5c-0.2,0.1-0.7,0.3-1.4,0.3
					c-1.2,0-2-0.8-2-1.9c0-1.1,0.7-2.1,1.9-2.1c1.4,0,1.7,1.2,1.7,1.8c0,0.1,0,0.2,0,0.3H100.2z M102.5,1080.4
					c0-0.3-0.1-1.1-1.1-1.1c-0.8,0-1.1,0.7-1.2,1.1H102.5z"></path>
				<path class="st11" d="M104.1,1080.2c0-0.5,0-0.9,0-1.2h0.6l0,0.8h0c0.2-0.6,0.6-0.9,1.1-0.9c0.1,0,0.1,0,0.2,0v0.7
					c-0.1,0-0.2,0-0.3,0c-0.5,0-0.9,0.4-1,0.9c0,0.1,0,0.2,0,0.3v2h-0.7V1080.2z"></path>
				<path class="st11" d="M106.7,1082.3c0-0.3,0.2-0.5,0.5-0.5c0.3,0,0.5,0.2,0.5,0.5c0,0.3-0.2,0.5-0.5,0.5
					C106.9,1082.8,106.7,1082.6,106.7,1082.3z"></path>
				<path class="st11" d="M111.5,1082.5c-0.2,0.1-0.6,0.2-1.2,0.2c-1.2,0-2-0.8-2-1.9c0-1.2,0.9-2,2.2-2c0.5,0,0.9,0.1,1.1,0.2
					l-0.2,0.5c-0.2-0.1-0.5-0.2-0.9-0.2c-0.9,0-1.5,0.6-1.5,1.4c0,0.9,0.6,1.4,1.5,1.4c0.5,0,0.8-0.1,1-0.2L111.5,1082.5z"></path>
				<path class="st11" d="M116.2,1080.8c0,1.4-1.1,2-2.1,2c-1.1,0-2-0.8-2-1.9c0-1.2,0.9-2,2.1-2
					C115.4,1078.8,116.2,1079.7,116.2,1080.8z M112.8,1080.8c0,0.9,0.6,1.4,1.3,1.4c0.7,0,1.3-0.5,1.3-1.5c0-0.7-0.4-1.4-1.3-1.4
					C113.3,1079.3,112.8,1080.1,112.8,1080.8z"></path>
				<path class="st11" d="M117.1,1080c0-0.4,0-0.7,0-1h0.6l0,0.7h0c0.2-0.4,0.6-0.7,1.3-0.7c0.6,0,1,0.4,1.2,0.8h0
					c0.1-0.2,0.3-0.4,0.4-0.5c0.3-0.2,0.5-0.3,0.9-0.3c0.5,0,1.4,0.3,1.4,1.7v2.1h-0.7v-2.1c0-0.8-0.3-1.2-0.9-1.2
					c-0.4,0-0.8,0.3-0.9,0.6c0,0.1-0.1,0.2-0.1,0.3v2.3h-0.7v-2.2c0-0.7-0.3-1.1-0.9-1.1c-0.5,0-0.8,0.4-1,0.7
					c0,0.1-0.1,0.2-0.1,0.3v2.2h-0.7V1080z"></path>
			</g>
		</g>
	</g>
</g>
</svg>