<svg version="1.1" xmlns="http://www.w3.org/2000/svg" xmlns:xlink="http://www.w3.org/1999/xlink" x="0px" y="0px" width="4875" height="1425" viewBox="0 0 4875 1425" enable-background="new 0 0 1170 342" xml:space="preserve"><g transform="translate(0, 0) scale(4.166666666666667)">
<g id="cut">
	<rect x="0.281" y="-0.281" fill="#929497" width="1170" height="342"/>
	<path fill="#FFFFFF" stroke="#BE1E2D" stroke-miterlimit="10" d="M9.785,316.8V41.327h288.006h-0.047   C305.625,41.327,426.667,9,585.701,9c159.036,0,278.922,32.327,287.958,32.327h288l0.127,275.473L873.955,333h-0.17H297.791h0.002   L9.785,316.8z"/>
	<path fill="none" stroke="#00AEEF" stroke-miterlimit="10" stroke-dasharray="1.44,1.44" d="M18.277,309.278V47.54h283.509h-0.046   c7.758,0,126.911-30.715,283.462-30.715c156.552,0,274.568,30.715,283.462,30.715h283.505l0.124,261.739L868.956,324.67h-0.168   H301.786h0.002L18.277,309.278z"/>
</g>
<g id="text">
	
	
	
	
	
	
	
	
	
	
	
	
	
	
	
	
	
	
	
	
	
	
	<line fill="none" stroke="#F9A61C" x1="1097.857" y1="217.057" x2="1169.521" y2="217.057"/>
	<line fill="none" stroke="#EB242B" x1="1106.248" y1="143.296" x2="1161.781" y2="143.296"/>
	<line fill="none" stroke="#929497" x1="1100.212" y1="161.793" x2="1164.5" y2="161.793"/>
	<line fill="none" stroke="#2DA6DE" stroke-dasharray="1.44,1.44" x1="1104.132" y1="106.38" x2="1152.289" y2="106.38"/>
	<path fill="#EB242B" d="M1104.143,99.939c0,0.382-0.174,0.755-0.52,1.116l-0.054,0.055l-3.026,3.188   c-0.643,0.676-1.191,1.198-1.644,1.567c-0.451,0.37-0.771,0.555-0.957,0.555c-0.195,0-0.438-0.093-0.73-0.276   c-0.289-0.186-0.478-0.375-0.562-0.572c-0.072-0.163-0.14-0.508-0.203-1.038s-0.096-1.103-0.096-1.719   c0-0.337,0.142-0.648,0.42-0.934c0.282-0.285,0.593-0.428,0.932-0.428c0.324,0,0.517,0.295,0.576,0.886   c0.009,0.069,0.014,0.12,0.017,0.152c0.053,0.453,0.112,0.77,0.181,0.95c0.069,0.179,0.163,0.27,0.279,0.27   c0.049,0,0.141-0.053,0.276-0.159c0.133-0.107,0.292-0.251,0.479-0.434l3.109-3.081c0.262-0.26,0.495-0.458,0.7-0.591   c0.206-0.135,0.38-0.201,0.524-0.201c0.108,0,0.185,0.041,0.23,0.122c0.045,0.082,0.068,0.22,0.068,0.412V99.939z"/>
	<path fill="#EB242B" d="M1105.271,136.136c0,0.382-0.173,0.755-0.519,1.117l-0.055,0.055l-3.026,3.187   c-0.643,0.676-1.19,1.198-1.643,1.568c-0.453,0.368-0.771,0.554-0.957,0.554c-0.196,0-0.439-0.093-0.73-0.277   c-0.29-0.186-0.479-0.375-0.563-0.571c-0.071-0.162-0.14-0.509-0.203-1.038c-0.062-0.529-0.096-1.102-0.096-1.718   c0-0.337,0.141-0.648,0.422-0.934c0.28-0.285,0.591-0.428,0.931-0.428c0.323,0,0.516,0.295,0.576,0.886   c0.008,0.069,0.012,0.119,0.017,0.152c0.052,0.453,0.112,0.771,0.181,0.95c0.068,0.179,0.162,0.27,0.278,0.27   c0.05,0,0.141-0.053,0.275-0.159c0.133-0.107,0.294-0.251,0.479-0.435l3.11-3.08c0.261-0.261,0.494-0.458,0.7-0.591   c0.206-0.135,0.379-0.202,0.523-0.202c0.108,0,0.185,0.042,0.231,0.123c0.045,0.082,0.067,0.22,0.067,0.412V136.136z"/>
	<path fill="#EB242B" d="M1100.163,154.153c0,0.382-0.174,0.755-0.519,1.116l-0.055,0.055l-3.025,3.187   c-0.645,0.677-1.192,1.198-1.644,1.568c-0.452,0.368-0.772,0.553-0.958,0.553c-0.196,0-0.439-0.091-0.73-0.276   c-0.29-0.186-0.478-0.375-0.562-0.571c-0.072-0.162-0.139-0.508-0.204-1.039c-0.062-0.529-0.095-1.102-0.095-1.718   c0-0.337,0.141-0.648,0.421-0.933c0.281-0.286,0.591-0.428,0.931-0.428c0.324,0,0.516,0.295,0.577,0.886   c0.008,0.069,0.013,0.119,0.016,0.153c0.052,0.452,0.113,0.77,0.181,0.95c0.068,0.179,0.162,0.269,0.28,0.269   c0.048,0,0.14-0.053,0.274-0.158c0.133-0.107,0.293-0.252,0.479-0.436l3.109-3.081c0.262-0.261,0.495-0.458,0.701-0.592   c0.205-0.134,0.38-0.201,0.523-0.201c0.108,0,0.185,0.042,0.23,0.123c0.045,0.081,0.068,0.22,0.068,0.412V154.153z"/>
	<path fill="#EB242B" d="M1097.641,210.433c0,0.382-0.173,0.755-0.518,1.118l-0.055,0.054l-3.026,3.187   c-0.644,0.677-1.191,1.199-1.644,1.567c-0.451,0.37-0.771,0.554-0.956,0.554c-0.196,0-0.439-0.094-0.73-0.275   c-0.29-0.186-0.479-0.376-0.562-0.572c-0.073-0.162-0.141-0.51-0.204-1.037c-0.063-0.529-0.095-1.103-0.095-1.719   c0-0.336,0.141-0.648,0.419-0.934c0.283-0.285,0.593-0.428,0.932-0.428c0.323,0,0.517,0.294,0.576,0.885   c0.008,0.069,0.014,0.121,0.018,0.152c0.051,0.453,0.111,0.771,0.181,0.951c0.068,0.18,0.162,0.268,0.278,0.268   c0.05,0,0.141-0.051,0.275-0.158c0.133-0.105,0.294-0.251,0.479-0.432l3.11-3.082c0.261-0.262,0.493-0.46,0.699-0.592   c0.206-0.135,0.381-0.201,0.524-0.201c0.107,0,0.184,0.04,0.231,0.121c0.045,0.082,0.066,0.22,0.066,0.412V210.433z"/>
	<rect x="979.249" y="61.792" fill="none" width="183.883" height="250.749"/>
	
	
	
	
	
	
	<g>
		<defs>
			<rect id="SVGID_1_" x="979.249" y="61.792" width="183.883" height="250.749"/>
		</defs>
		<clipPath id="SVGID_2_">
			<use xlink:href="#SVGID_1_" overflow="visible"/>
		</clipPath>
		<path clip-path="url(#SVGID_2_)" fill="#EB242B" d="M1088.269,248.745c0,0.382-0.174,0.755-0.52,1.116l-0.054,0.054l-3.027,3.188    c-0.643,0.676-1.189,1.197-1.642,1.568c-0.452,0.367-0.772,0.553-0.958,0.553c-0.196,0-0.439-0.093-0.729-0.277    c-0.291-0.184-0.479-0.374-0.563-0.569c-0.072-0.163-0.141-0.51-0.202-1.04c-0.063-0.527-0.097-1.101-0.097-1.717    c0-0.338,0.141-0.648,0.421-0.936c0.281-0.283,0.591-0.428,0.93-0.428c0.325,0,0.518,0.296,0.579,0.888    c0.007,0.066,0.012,0.12,0.016,0.151c0.051,0.454,0.112,0.77,0.18,0.949c0.068,0.18,0.163,0.27,0.28,0.27    c0.048,0,0.14-0.053,0.274-0.158c0.133-0.107,0.294-0.251,0.479-0.434l3.11-3.082c0.261-0.26,0.494-0.457,0.7-0.592    c0.205-0.135,0.38-0.201,0.523-0.201c0.108,0,0.185,0.042,0.23,0.123c0.045,0.082,0.068,0.22,0.068,0.412V248.745z"/>
		<path clip-path="url(#SVGID_2_)" fill-rule="evenodd" clip-rule="evenodd" fill="#010101" d="M1045.727,268.318    c0,12.301-9.973,22.27-22.271,22.27c-12.3,0-22.271-9.969-22.271-22.27s9.972-22.271,22.271-22.271    C1035.754,246.047,1045.727,256.018,1045.727,268.318"/>
		<path clip-path="url(#SVGID_2_)" fill-rule="evenodd" clip-rule="evenodd" fill="#B7D334" d="M1043.717,268.441    c0,11.182-9.063,20.245-20.245,20.245s-20.246-9.063-20.246-20.245c0-11.184,9.064-20.248,20.246-20.248    S1043.717,257.258,1043.717,268.441"/>
		<path clip-path="url(#SVGID_2_)" fill="#010101" d="M1019.137,264.027c-0.282,2.48-0.489,4.475-0.63,5.979l-0.922,0.039    c0.014-0.049,0.021-0.107,0.021-0.168c0-0.111-0.039-0.261-0.125-0.445c-0.085-0.184-0.133-0.301-0.145-0.352    c-0.238,0.035-0.468,0.201-0.686,0.496c-0.22,0.299-0.418,0.447-0.591,0.444c-0.101-0.004-0.214-0.03-0.339-0.083    c-0.164,0.111-0.379,0.159-0.644,0.142c-0.237-0.042-0.469-0.077-0.694-0.106c-0.008-0.314-0.316-0.589-0.928-0.824    c0.003-0.127-0.061-0.312-0.188-0.562c-0.129-0.246-0.191-0.419-0.189-0.521c0-0.113,0.046-0.205,0.137-0.278    c-0.013-0.039-0.117-0.272-0.309-0.704c-0.133-0.315-0.197-0.586-0.193-0.811c0.003-0.176,0.043-0.34,0.122-0.488    c-0.108-1.07-0.155-1.988-0.143-2.752c0.021-1.182,0.188-2.264,0.508-3.252c-0.022-0.15-0.032-0.301-0.031-0.452    c0.015-0.79,0.288-1.339,0.819-1.644l0.004-0.244c0.526-0.672,1.218-1.154,2.077-1.453c0.515,0.123,1.026,0.237,1.538,0.348    c0.575,0.197,0.971,0.538,1.189,1.016c0.173,0.105,0.258,0.314,0.254,0.627c-0.006,0.354,0.033,0.58,0.119,0.682l-0.097,0.11    c0.101,0.742,0.15,1.194,0.147,1.358c-0.008,0.477-0.135,0.814-0.375,1.012c-0.088,0-0.318-0.08-0.694-0.238    c-0.088,0.087-0.184,0.128-0.282,0.127c-0.052-0.002-0.143-0.029-0.272-0.08c-0.132-0.053-0.241-0.077-0.331-0.08    c-0.061-0.002-0.124,0.01-0.186,0.033c-0.009-0.99,0.021-1.732,0.093-2.221c-0.101-0.063-0.199-0.213-0.302-0.438    c-0.104-0.229-0.236-0.356-0.398-0.385c-0.104,0.127-0.149,0.206-0.138,0.243l-0.337-0.116c-0.307,0.333-0.511,0.914-0.611,1.738    c-0.105,0.955-0.234,1.584-0.391,1.896c0.135,0.142,0.201,0.337,0.195,0.588c0,0.087-0.016,0.232-0.045,0.432    c-0.029,0.202-0.043,0.353-0.043,0.451c-0.004,0.114,0.008,0.214,0.029,0.304l-0.228,0.221c0.093,0.428,0.147,0.972,0.161,1.623    c-0.011,0.553-0.014,1.105-0.011,1.657c-0.011,0-0.12,0.003-0.319,0.015c-0.125-0.004-0.215,0.037-0.264,0.127    c0.072-0.012,0.142-0.02,0.205-0.016c0.275,0.004,0.492,0.199,0.648,0.584c0.158,0.387,0.292,0.582,0.405,0.582    c0.126,0.002,0.296-0.114,0.514-0.352c0.37-0.395,0.562-0.938,0.573-1.627c0.008-0.339-0.03-0.703-0.112-1.094    c-0.089,0.047-0.136,0.174-0.138,0.374c-0.201-0.001-0.328,0.04-0.379,0.124c-0.087-0.026-0.125-0.098-0.109-0.205    c0.016-0.164,0.022-0.253,0.022-0.266c0.151-0.047,0.228-0.117,0.23-0.203c0-0.037-0.026-0.109-0.081-0.209    c-0.056-0.102-0.08-0.183-0.08-0.246c0-0.051,0.014-0.1,0.039-0.15l0.088-0.732c0.275,0.082,0.869,0.115,1.788,0.106    c-0.026,0.062,0.009,0.144,0.108,0.245c0.09-0.086,0.184-0.129,0.284-0.126c0.076,0.003,0.188,0.035,0.337,0.1    C1018.968,263.992,1019.073,264.025,1019.137,264.027"/>
		<path clip-path="url(#SVGID_2_)" fill="#010101" d="M1026.165,270.513c-0.174-0.079-0.363-0.119-0.562-0.124    c-0.178-0.002-0.418,0.031-0.72,0.104c-0.339,0.066-0.573,0.107-0.698,0.118c-0.133-0.265-0.227-0.632-0.281-1.099    c-0.102-0.678-0.165-1.062-0.189-1.15c0.04-0.074,0.061-0.139,0.061-0.188c0.004-0.139-0.105-0.264-0.323-0.374    c-0.218-0.108-0.326-0.197-0.324-0.259c0-0.074,0.128-0.185,0.38-0.331c-0.059-0.077-0.106-0.233-0.133-0.464    c-0.025-0.234-0.084-0.388-0.169-0.467c-0.154,0.137-0.403,0.225-0.75,0.263s-0.574,0.093-0.688,0.166    c0.008,0.979-0.154,1.636-0.486,1.968c-0.174-0.039-0.309,0.027-0.398,0.201c-0.131,0.213-0.238,0.336-0.326,0.373l0.108,0.132    c-0.101,0.087-0.265,0.122-0.491,0.104c-0.352-0.018-0.538-0.026-0.565-0.026l-0.104-0.343l1.227-10.166    c0.011-0.641,0.043-1.077,0.096-1.3c-0.014-0.565,0.117-0.914,0.396-1.048c0.174,0.115,0.393,0.176,0.656,0.181    c0.214,0.004,0.548-0.04,0.999-0.134c0.456-0.092,0.771-0.137,0.945-0.137c0.615,0.014,0.883,0.456,0.807,1.334    c-0.062,0.701,0.047,1.628,0.329,2.775c0.294,1.234,0.435,2.16,0.425,2.776c-0.004,0.185,0.059,0.578,0.043,0.767    c-0.268,0.144-0.607,0.233-1.021,0.264c-0.366,0.018-0.736,0.039-1.114,0.055c-0.096-0.955-0.266-2.105-0.361-3.049    c-0.119-1.132-0.267-2.062-0.443-2.796l-0.582,5.376c-0.043,0.465,0.166,0.701,0.63,0.71c0.15,0.003,0.296-0.032,0.436-0.107    c0.114-0.034,0.271,0.05,0.466,0.254c-0.008,0.389,0.071,0.622,0.234,0.7c0.201-0.134,0.468-0.261,0.797-0.383    c0.289-0.106,0.576-0.208,0.854-0.305c0.156,0.217,0.26,0.539,0.304,0.966c0.052,0.604,0.091,0.955,0.112,1.058    c0.021,0.238,0.119,0.754,0.293,1.549c0.128,0.63,0.189,1.139,0.184,1.529C1026.207,270.175,1026.19,270.35,1026.165,270.513"/>
		<path clip-path="url(#SVGID_2_)" fill="#010101" d="M1034.837,261.543c-0.014,0.037-0.019,0.258-0.013,0.66    c-0.006,0.324-0.048,0.568-0.123,0.73c-0.095,0.25-0.144,0.609-0.153,1.071c0,0.103,0.003,0.258,0.013,0.472    c-0.005,0.215-0.006,0.371-0.008,0.471c-0.013,0.791-0.148,1.365-0.408,1.725c0.022,0.203,0.032,0.404,0.03,0.604    c-0.011,0.629-0.227,1.473-0.646,2.533c-0.114,0.036-0.209,0.052-0.284,0.052c-0.15-0.003-0.258-0.091-0.325-0.261    c-0.066-0.171-0.128-0.332-0.189-0.482c0.041-0.965,0.021-2.373-0.06-4.221l0.113-0.111c-0.082-0.326-0.118-0.69-0.112-1.094    c0.005-0.288,0.042-0.709,0.106-1.26c0.066-0.553,0.101-0.965,0.104-1.24c0.005-0.178,0-0.346-0.007-0.51    c-0.434,1.034-0.74,2.787-0.921,5.258l-0.156,0.373c-0.053,0.125-0.161,0.192-0.323,0.202c-0.048-0.087-0.099-0.134-0.147-0.134    c-0.038-0.002-0.104,0.045-0.2,0.139c-0.097,0.091-0.177,0.131-0.237,0.118l-0.25,0.22c0.111,0.141,0.348,0.158,0.716,0.053    c0.289-0.086,0.438,0.025,0.445,0.326c0.01,0.252-0.06,0.589-0.205,1.014c-0.146,0.426-0.22,0.742-0.224,0.956    c-0.001,0.151,0.015,0.303,0.047,0.452l-1.301,0.205c-0.121-0.253-0.212-0.679-0.271-1.276c-0.059-0.597-0.147-1.022-0.271-1.274    c0.076-0.088,0.115-0.18,0.117-0.281c0.002-0.088-0.032-0.222-0.104-0.396c-0.073-0.178-0.115-0.312-0.126-0.4    c-0.011-0.136-0.055-0.473-0.133-0.999c-0.056-0.426-0.082-0.763-0.078-0.997c0.002-0.127,0.012-0.24,0.025-0.342    c0.002-0.086-0.049-0.217-0.146-0.387c-0.097-0.172-0.144-0.295-0.142-0.371c0-0.062,0.025-0.119,0.076-0.168    c-0.087-0.103-0.121-0.277-0.105-0.529c0.019-0.251-0.018-0.428-0.104-0.527c-0.183,0.484-0.282,1.143-0.297,1.971    c-0.006,1.154-0.018,1.822-0.033,1.996l0.13,0.116l-0.134,0.108c0.093,0.453,0.134,1.033,0.121,1.734    c-0.033,1.269-0.051,1.859-0.049,1.771c-0.178,0.16-0.424,0.238-0.74,0.231c-0.388-0.005-0.651,0.028-0.791,0.101    c-0.159-0.279-0.235-0.638-0.226-1.076c0.005-0.34,0.062-0.753,0.172-1.24c-0.172-0.318-0.252-0.76-0.243-1.325    c0.002-0.138,0.021-0.399,0.053-0.788c0.019-0.314,0.021-0.547,0.013-0.697c0.126-0.059,0.189-0.127,0.189-0.203    c0.003-0.051-0.037-0.137-0.117-0.258c-0.08-0.117-0.12-0.21-0.118-0.273c0.002-0.077,0.055-0.15,0.154-0.226l-0.404-6.089    c0.241-0.159,0.631-0.234,1.171-0.225c0.589,0.023,0.993-0.01,1.206-0.094c0.04-0.023,0.082-0.035,0.134-0.035    c0.051,0.002,0.109,0.031,0.177,0.089c0.07,0.056,0.115,0.087,0.14,0.087c0.051,0,0.095-0.039,0.135-0.113l0.351,0.348    c0.119,0.441,0.23,1.297,0.335,2.566c0.106,1.094,0.273,1.92,0.505,2.476c0.307-1.111,0.561-2.042,0.762-2.791l0.409-2.982    l2.92-0.062c0.01,0.163,0.046,1.035,0.124,1.538c0.066,0.439,0.101,0.799,0.096,1.075c-0.006,0.315-0.055,0.597-0.148,0.845    c0.099,0.142,0.146,0.318,0.143,0.53C1034.993,261.232,1034.938,261.406,1034.837,261.543"/>
		<path clip-path="url(#SVGID_2_)" fill="#010101" d="M1040.827,268.144v-0.019c-0.078,0.162-0.126,0.348-0.142,0.562    c-0.015,0.139-0.02,0.331-0.011,0.582c0.008,0.289,0.011,0.49,0.011,0.604c-0.104-0.003-0.502-0.01-1.206-0.021    c-0.429-0.008-0.81,0.029-1.15,0.113l-0.353-0.385c-0.104,0.1-0.141,0.178-0.118,0.242c-0.062-0.012-0.349-0.018-0.865-0.014    c-0.402-0.006-0.702-0.051-0.9-0.129c-0.205,0.213-0.444,0.207-0.716-0.014c-0.101-0.074-0.11-0.205-0.032-0.383    c0.078-0.183,0.056-0.318-0.068-0.408c0.02-0.4,0.074-1.023,0.164-1.861c0.088-0.752,0.136-1.342,0.143-1.768    c0.009-0.578-0.031-1.132-0.121-1.66c0.141-0.137,0.297-0.203,0.473-0.199c0.201,0.002,0.438,0.102,0.712,0.296    c0.382,0.267,0.583,0.405,0.596,0.405l0.109,0.131c0.014-0.035,0.079-0.236,0.199-0.599c0.066-0.237,0.163-0.391,0.29-0.466    l0.11,0.117c0.052-0.024,0.217-0.142,0.497-0.351c0.215-0.147,0.39-0.496,0.517-0.491c0.139,0,0.268,0.079,0.391,0.232    c0.212,0.113,0.346,0.567,0.409,0.797c0.066,0.236,0.128,0.465,0.189,0.693c-0.567,0.016-1.033,0-1.395-0.043    c-0.091,0.137-0.217,0.157-0.379,0.059c-0.159-0.096-0.278-0.08-0.356,0.041c-0.006,0.227-0.012,0.637-0.022,1.227    c-0.021,0.523-0.028,0.939-0.019,1.241c0.004,0.466,0.032,0.892,0.089,1.282c0.101,0,0.576,0.01,1.432,0.023    C1039.893,267.996,1040.4,268.047,1040.827,268.144 M1040.866,259.123c-0.113,0.01-0.237,0.014-0.375,0.012    c-0.291-0.006-0.673-0.05-1.148-0.135c-0.59-0.082-0.945-0.133-1.071-0.148c-0.179,0.261-0.273,0.631-0.284,1.107    c-0.016,1.027-0.016,1.475-0.002,1.338c0.175,0.1,0.26,0.292,0.255,0.568c-0.021,0.375-0.024,0.571-0.011,0.584    c-0.088,0.035-0.135,0.159-0.137,0.373c-0.138-0.052-0.28-0.156-0.428-0.31c-0.199-0.19-0.303,0.458-0.289,0.298l-0.12,0.387    l-0.11-0.115c-0.102,0.009-0.273-0.043-0.517-0.162c-0.242-0.115-0.412-0.223-0.512-0.327c0.005-0.2,0.039-0.312,0.101-0.337    l-0.239-0.268l-0.116,0.167c-0.141-1.308-0.106-3.755,0.066-5.133c0.477,0.083,1.004,0.138,1.581,0.159    c0.39,0.02,0.934,0.029,1.638,0.029c0.803,0,1.382,0.004,1.733,0.009c0.146,0.14,0.22,0.323,0.215,0.55    c0,0.141-0.04,0.361-0.114,0.668S1040.87,258.971,1040.866,259.123"/>
		<path clip-path="url(#SVGID_2_)" fill="#010101" d="M1019.702,279.53v-0.011c0,0.008-0.032,0.285-0.096,0.832    c-0.035,0.334-0.114,0.6-0.244,0.792l-0.082-0.065c-0.153,0.319-0.36,0.513-0.623,0.582c-0.127,0.133-0.308,0.205-0.545,0.22    c-0.141,0.009-0.465-0.033-0.975-0.122c-0.246-0.154-0.381-0.24-0.404-0.256c-0.154-0.117-0.229-0.234-0.222-0.354    c-0.151-0.152-0.359-0.426-0.44-0.768c-0.097-0.377-0.153-0.396-0.243-0.531c-0.142,0.104-0.192-0.116-0.275-0.251l0.073-0.056    c-0.045-0.035-0.068-0.072-0.072-0.113c-0.002-0.029,0.012-0.075,0.037-0.133c0.028-0.059,0.04-0.104,0.038-0.131    c-0.005-0.047-0.032-0.09-0.086-0.119c0.058-0.298,0.11-0.744,0.155-1.338c0.102-0.054,0.149-0.158,0.146-0.313    c-0.006-0.153,0.015-0.257,0.063-0.306c0.24-0.481,0.629-0.807,1.169-0.975c0.03,0.004,0.174,0.002,0.435-0.008    c0.178-0.002,0.312,0.012,0.404,0.049c0.16-0.029,0.322,0.012,0.485,0.115c0.139,0.107,0.278,0.21,0.419,0.316    c0.261,0.283,0.402,0.604,0.424,0.963c0.006,0.117-0.002,0.244-0.023,0.375c-0.194-0.006-0.331,0.12-0.413,0.384l-0.752,0.07    c-0.079-0.114-0.128-0.269-0.137-0.458c-0.005-0.066-0.005-0.162,0-0.287c0.001-0.127,0.003-0.221,0-0.286    c-0.013-0.196-0.059-0.353-0.141-0.468l-0.225,0.131c-0.093-0.037-0.138-0.092-0.144-0.162c-0.002-0.023,0.002-0.06,0.011-0.104    c0.009-0.047,0.013-0.078,0.011-0.096c-0.004-0.076-0.074-0.123-0.208-0.141c-0.092,0.849-0.12,1.719-0.083,2.611    c0.025,0.031,0.098,0.049,0.215,0.061c0.098,0.012,0.147,0.043,0.15,0.09c0,0.018-0.004,0.041-0.019,0.072l-0.074,0.059    c0.04,0.062,0.064,0.152,0.071,0.264c0.003,0.061,0,0.15-0.007,0.273c-0.007,0.124-0.009,0.217-0.005,0.273    c0.01,0.18,0.055,0.314,0.135,0.406c-0.008,0.13,0.045,0.221,0.159,0.269c0.073-0.03,0.138-0.044,0.198-0.048    c0.229-0.014,0.389,0.113,0.479,0.375c0.001,0.006,0,0.051-0.002,0.135c0.002,0.049,0.023,0.079,0.071,0.094    c0.099-0.059,0.148-0.166,0.147-0.322c-0.002-0.178,0.02-0.295,0.068-0.343c-0.012-0.083-0.062-0.202-0.148-0.358    c-0.086-0.158-0.133-0.28-0.137-0.369c-0.006-0.097,0.021-0.188,0.082-0.274c-0.053-0.015-0.076-0.048-0.072-0.103    c0.004-0.086,0.004-0.129,0.004-0.134C1018.866,279.438,1019.28,279.435,1019.702,279.53"/>
		<path clip-path="url(#SVGID_2_)" fill="#010101" d="M1023.11,280.229h-0.01c-0.045,0.086-0.057,0.209-0.042,0.369    c0.021,0.227,0.032,0.342,0.032,0.349c-0.035,0.015-0.08-0.005-0.138-0.051c-0.087,0.034-0.131,0.088-0.126,0.165    c0,0.013,0.005,0.032,0.015,0.059c0.001,0.032,0.003,0.055,0.003,0.066c0.004,0.061-0.014,0.106-0.054,0.137    c-0.101-0.057-0.232-0.091-0.394-0.107c-0.162-0.014-0.318-0.029-0.465-0.043c-0.002-0.754-0.104-1.496-0.305-2.217    c0,0.008-0.005-0.066-0.012-0.225c0-0.109-0.025-0.188-0.076-0.235l-0.07,0.062c0-0.011,0.022-0.033,0.07-0.065    c0.047-0.034,0.068-0.067,0.064-0.103c0-0.016-0.005-0.031-0.013-0.046l-0.075-0.056c-0.129,0.043-0.188,0.146-0.178,0.31    c0.006,0.112-0.039,0.189-0.131,0.233c0.034,0.025,0.055,0.061,0.057,0.096c0,0.023-0.002,0.055-0.011,0.096    c-0.008,0.038-0.012,0.068-0.011,0.092c0.004,0.047,0.029,0.09,0.08,0.117c0.002,0.035,0.02,0.334,0.053,0.898    c0.021,0.361,0.012,0.666-0.028,0.918l0.005,0.141c-0.047-0.001-0.104-0.001-0.164,0.002c-0.07,0.004-0.17,0.016-0.3,0.031    c-0.127,0.017-0.226,0.025-0.286,0.03c-0.257,0.015-0.435-0.03-0.535-0.13l-0.109-3.102c-0.05-0.152-0.082-0.364-0.1-0.637    l-0.032-0.598c-0.026-0.293-0.065-0.518-0.114-0.676c0.021-0.109,0.116-0.167,0.281-0.176c0.103-0.006,0.24,0.008,0.416,0.043    c0.08-0.037,0.193-0.061,0.338-0.07c0.041-0.004,0.105-0.004,0.197-0.004c0.094-0.005,0.165-0.01,0.206-0.011    c0.271-0.014,0.446-0.099,0.534-0.248c0.126-0.001,0.26,0.037,0.406,0.118c0.145,0.08,0.273,0.125,0.385,0.129    c0.293,0.17,0.451,0.457,0.475,0.855c0.006,0.088-0.029,0.441-0.105,1.056l-0.504,0.437c0.088,0.156,0.19,0.497,0.311,1.025    C1022.751,279.7,1022.903,280.024,1023.11,280.229 M1022.181,276.699l0.012,0.008c0.008,0.037,0.004-0.099-0.014-0.407    c-0.01-0.151-0.063-0.257-0.166-0.325c-0.056,0.081,0.01,0.119-0.019,0.305c-0.026,0.189-0.138,0.137-0.202,0.219    c-0.173,0-0.211,0.104-0.249-0.061c-0.078-0.268-0.144-0.244-0.145-0.25l-0.073,0.043c-0.026,0.023-0.056,0.053-0.089,0.082    c-0.032,0.029-0.065,0.039-0.101,0.031c0.002,0.032-0.016,0.086-0.05,0.156c-0.034,0.072-0.048,0.119-0.048,0.148    c0.002,0.051,0.042,0.087,0.121,0.109c-0.015,0.111-0.018,0.23-0.012,0.35c0.006,0.066,0.02,0.219,0.047,0.457    c0.033,0.187,0.044,0.347,0.039,0.48c0.062,0.001,0.119,0.001,0.176-0.002c0.243-0.014,0.398-0.109,0.471-0.285    c0.023-0.051,0.051-0.236,0.082-0.555C1021.988,276.964,1022.061,276.793,1022.181,276.699"/>
		<path clip-path="url(#SVGID_2_)" fill="#010101" d="M1027.021,281.434c-0.098-0.029-0.202-0.039-0.312-0.033    c-0.097,0.006-0.227,0.031-0.39,0.073c-0.185,0.043-0.311,0.069-0.378,0.079c-0.084-0.111-0.146-0.268-0.193-0.473    c-0.08-0.295-0.129-0.461-0.145-0.5c0.021-0.031,0.029-0.061,0.027-0.085c-0.006-0.06-0.067-0.11-0.189-0.151    c-0.125-0.039-0.186-0.072-0.188-0.1c-0.002-0.034,0.062-0.088,0.197-0.162c-0.036-0.031-0.067-0.098-0.09-0.199    s-0.059-0.168-0.109-0.199c-0.078,0.068-0.213,0.115-0.4,0.146c-0.188,0.029-0.311,0.062-0.372,0.102    c0.04,0.43,0,1.186-0.171,1.346c-0.096-0.012-0.167,0.023-0.211,0.105c-0.063,0.098-0.119,0.156-0.166,0.176l0.064,0.054    c-0.052,0.044-0.141,0.063-0.264,0.065c-0.193,0.006-0.297,0.01-0.312,0.01l-0.07-0.146l0.29-4.987    c-0.014-0.282-0.013-0.476,0.008-0.575c-0.029-0.248,0.031-0.408,0.18-0.479c0.1,0.045,0.221,0.061,0.365,0.055    c0.117-0.008,0.298-0.038,0.543-0.098c0.247-0.059,0.415-0.092,0.513-0.096c0.337-0.021,0.5,0.164,0.487,0.555    c-0.01,0.309,0.083,0.713,0.278,1.207c0.204,0.532,0.312,0.934,0.329,1.207c0.004,0.084,0.116,0.259,0.113,0.343    c-0.141,0.075-0.326,0.127-0.551,0.155c-0.199,0.023-0.4,0.048-0.607,0.068c-0.084-0.416-0.283-0.922-0.367-1.336    c-0.104-0.492-0.219-0.896-0.338-1.213l-0.133,2.393c-0.01,0.205,0.115,0.3,0.371,0.285c0.08-0.004,0.158-0.027,0.232-0.062    c0.062-0.02,0.15,0.011,0.265,0.092c0.01,0.173,0.061,0.273,0.152,0.3c0.106-0.066,0.247-0.134,0.423-0.199    c0.155-0.058,0.309-0.115,0.457-0.167c0.095,0.088,0.16,0.227,0.201,0.412c0.05,0.264,0.082,0.416,0.098,0.461    c0.02,0.105,0.091,0.329,0.215,0.672c0.093,0.272,0.144,0.494,0.152,0.666C1027.032,281.281,1027.03,281.358,1027.021,281.434"/>
		<path clip-path="url(#SVGID_2_)" fill="#010101" d="M1029.87,275.773h0.012c-0.083,0.123-0.189,0.146-0.317,0.068    c-0.029-0.004-0.151,0.005-0.372,0.023c-0.186,0.01-0.319,0-0.405-0.027c-0.021,0.002-0.063,0.021-0.121,0.062    c-0.06,0.04-0.101,0.06-0.132,0.062c-0.04,0.004-0.062-0.033-0.068-0.105c0-0.009-0.002-0.059-0.007-0.141    c-0.003-0.055-0.03-0.094-0.079-0.111l-0.129,0.1c-0.04,0.029-0.059,0.061-0.057,0.094c0.002,0.027,0.024,0.066,0.068,0.116    c0.045,0.052,0.072,0.087,0.079,0.106c0,0.02,0.017,0.268,0.044,0.75c0.01,0.307,0.066,0.55,0.166,0.732    c0.025-0.03,0.09-0.047,0.189-0.049c0.1-0.003,0.166-0.025,0.198-0.064c0.065,0.056,0.173,0.059,0.325,0.008    c0.154-0.051,0.265-0.033,0.331,0.054l-0.021,0.733c-0.062-0.008-0.154-0.038-0.273-0.092c-0.037,0.107-0.105,0.176-0.205,0.203    c-0.041,0.015-0.16,0.025-0.352,0.035c0.006-0.031-0.023-0.064-0.09-0.1c-0.188,0.088-0.258,0.301-0.209,0.637    c0.004-0.035,0.01,0.023,0.02,0.173c0.006,0.093-0.016,0.163-0.061,0.204c-0.115,0.016-0.266-0.01-0.445-0.078    c-0.18-0.07-0.309-0.104-0.384-0.1c-0.034,0-0.065,0.008-0.093,0.014l-0.195,0.061l-0.307-3.357l-0.037-0.639    c0.256-0.085,0.575-0.141,0.953-0.162c0.297-0.018,0.684-0.016,1.161,0.006c0.032-0.061,0.087,0.021,0.157,0.018    c0.033-0.002,0.086,0,0.156,0.01c0.068,0.012,0.122,0.015,0.156,0.012c0.041,0,0.078-0.01,0.111-0.021l0.049-0.055    c0.141,0.043,0.215,0.117,0.221,0.221c0.002,0.046-0.011,0.121-0.04,0.227c-0.028,0.109-0.04,0.189-0.037,0.245    C1029.837,275.693,1029.848,275.738,1029.87,275.773 M1028.663,281.375c-0.073,0.039-0.186,0.06-0.338,0.07    c-0.199,0.011-0.319,0.021-0.361,0.029c-0.021-0.021-0.049-0.004-0.093-0.179c-0.027-0.115-0.099-0.169-0.216-0.161    c-0.028,0.001-0.061,0.004-0.104,0.012l-0.186,0.013l-0.1-1.699c0.102-0.05,0.229-0.081,0.379-0.089    c0.145-0.007,0.273,0.008,0.385,0.044c-0.003,0.063,0.085,0.089,0.265,0.076l0.195-0.012    C1028.607,279.957,1028.681,280.819,1028.663,281.375"/>
		<path clip-path="url(#SVGID_2_)" fill="#010101" d="M1033.999,275.92l0.011,0.008c-0.098-0.008-0.41,0.015-0.649,0.046    c-0.205,0.024-0.359,0.026-0.464,0.011c-0.1,0.066-0.137,0.158-0.108,0.271l0.062,0.039c-0.053,0.049-0.07,0.084-0.054,0.111    l0.054,0.055c-0.011,0.985-0.015,1.529-0.008,1.635c0.016,0.26,0.047,0.488,0.092,0.688c-0.042,0.123-0.058,0.267-0.048,0.426    c0.006,0.105,0.031,0.271,0.074,0.501c0.046,0.228,0.104,0.976,0.111,1.095c0.005,0.086,0.003,0.172-0.006,0.248    c-0.096,0.04-0.198,0.062-0.307,0.068c-0.187,0.01-0.387-0.027-0.599-0.115c-0.026,0.023-0.055,0.048-0.088,0.074    c-0.034,0.029-0.042,0.059-0.026,0.092c-0.067,0.018-0.163-0.007-0.285-0.084c-0.064-0.999-0.242-3.028-0.507-5.08    c-0.093,0.083-0.264,0.016-0.442,0.036c-0.212,0.024-0.42-0.009-0.501,0.03c-0.104-0.111-0.082-0.145-0.091-0.328    c-0.011-0.176-0.068-0.611-0.024-0.796c0.012-0.04,0.396-0.016,0.623-0.036c0.311-0.018,0.379,0.056,0.398,0.055    c0.026-0.041,0.176-0.02,0.285-0.027c0.073,0.034,0.151-0.031,0.152,0.02c0.002,0.033,0,0.242-0.023,0.302    c-0.024,0.062-0.036,0.104-0.034,0.133c0.004,0.063,0.052-0.031,0.164,0.007c0.124-0.004,0.251-0.007,0.383-0.014    c0.146,0.012,0.312-0.041,0.3,0.083c0.026-0.034,0.04,0.026,0.251-0.058c0.154-0.072,0.248-0.253,0.218-0.377    c-0.017-0.068,0.077-0.113,0.019-0.08c0.075-0.043,0.007-0.014,0.088-0.047c0.258,0.025,0.4-0.002,0.448-0.004    c0.103-0.007,0.36,0.061,0.434,0.021c0.053,0.1,0.079,0.402,0.083,0.568C1033.994,275.762,1033.998,275.902,1033.999,275.92"/>
		<path clip-path="url(#SVGID_2_)" fill="#010101" d="M1037.346,279.387l-0.002-0.008c-0.037,0.074-0.057,0.158-0.059,0.254    c-0.005,0.059,0.002,0.146,0.016,0.256c0.014,0.129,0.022,0.215,0.026,0.266c-0.056,0.005-0.277,0.014-0.662,0.041    c-0.233,0.012-0.442,0.042-0.628,0.094l-0.204-0.156c-0.052,0.049-0.069,0.084-0.055,0.111c-0.034-0.002-0.194,0.007-0.475,0.027    c-0.221,0.014-0.388,0.007-0.501-0.021c-0.103,0.101-0.233,0.108-0.39,0.022c-0.056-0.029-0.067-0.086-0.031-0.17    c0.036-0.081,0.02-0.142-0.053-0.176c-0.001-0.176,0.006-0.451,0.025-0.824c0.021-0.337,0.027-0.598,0.016-0.787    c-0.013-0.253-0.056-0.495-0.122-0.725c0.07-0.065,0.156-0.1,0.25-0.105c0.11-0.009,0.243,0.027,0.402,0.101    c0.219,0.104,0.33,0.157,0.339,0.157l0.064,0.053c0.007-0.018,0.036-0.107,0.088-0.273c0.028-0.107,0.077-0.179,0.144-0.215    l0.063,0.045c0.027-0.01,0.114-0.068,0.261-0.172c0.112-0.074,0.19-0.344,0.26-0.348c0.074-0.004,0.149,0.024,0.223,0.086    c0.119,0.044,0.213,0.348,0.257,0.445c0.045,0.101,0.087,0.201,0.128,0.299c-0.31,0.029-0.565,0.042-0.766,0.036    c-0.043,0.063-0.114,0.077-0.204,0.042c-0.091-0.036-0.157-0.025-0.194,0.033c0.006,0.097,0.014,0.279,0.03,0.538    c0.007,0.232,0.018,0.415,0.031,0.548c0.019,0.205,0.051,0.391,0.096,0.562c0.055-0.006,0.317-0.021,0.784-0.045    C1036.828,279.358,1037.107,279.359,1037.346,279.387 M1037.023,275.48c-0.061,0.008-0.131,0.016-0.207,0.02    c-0.156,0.009-0.366,0.003-0.631-0.014c-0.326-0.015-0.523-0.021-0.593-0.024c-0.088,0.122-0.102,0.222-0.088,0.431    c0.027,0.455,0.042,0.651,0.044,0.589c0.099,0.04,0.152,0.12,0.159,0.243c0.003,0.164,0.007,0.25,0.017,0.256    c-0.05,0.018-0.069,0.076-0.063,0.17c-0.077-0.018-0.161-0.059-0.246-0.119c-0.116-0.076-0.151,0.195-0.148,0.123l-0.053,0.17    l-0.064-0.049c-0.054,0.01-0.15-0.007-0.287-0.049c-0.137-0.041-0.235-0.084-0.292-0.125c-0.004-0.087,0.008-0.138,0.041-0.152    l-0.14-0.108l-0.058,0.079c-0.122-0.571-0.205-1.578-0.157-2.19c0.263,0.018,0.571-0.028,0.888-0.04    c0.213-0.01,0.512-0.023,0.899-0.053c0.438-0.031,0.755-0.053,0.947-0.062c0.087,0.056,0.133,0.133,0.138,0.233    c0.005,0.062-0.008,0.159-0.038,0.298C1037.059,275.242,1037.021,275.41,1037.023,275.48"/>
		<path clip-path="url(#SVGID_2_)" fill="#010101" d="M1040.777,278.796l-0.01,0.003c-0.043,0.084-0.057,0.207-0.041,0.367    c0.022,0.227,0.03,0.342,0.03,0.35c-0.034,0.014-0.079-0.004-0.138-0.051c-0.089,0.033-0.131,0.088-0.124,0.166    c0,0.011,0.005,0.028,0.013,0.055c0.002,0.034,0.003,0.057,0.005,0.068c0.003,0.062-0.016,0.107-0.054,0.138    c-0.101-0.057-0.233-0.093-0.396-0.107c-0.161-0.016-0.315-0.03-0.464-0.045c-0.002-0.755-0.104-1.493-0.303-2.216    c0,0.008-0.005-0.068-0.014-0.224c0-0.11-0.025-0.188-0.076-0.237l-0.068,0.062c0-0.01,0.021-0.033,0.068-0.064    c0.046-0.035,0.069-0.068,0.066-0.103c-0.002-0.017-0.005-0.031-0.013-0.049l-0.076-0.054c-0.129,0.041-0.188,0.143-0.177,0.311    c0.006,0.109-0.039,0.189-0.134,0.233c0.036,0.024,0.056,0.058,0.058,0.096c0.002,0.021-0.002,0.053-0.011,0.092    c-0.006,0.038-0.011,0.069-0.01,0.093c0.004,0.049,0.028,0.09,0.08,0.122c0.002,0.032,0.019,0.33,0.052,0.896    c0.021,0.358,0.013,0.666-0.029,0.917l0.009,0.143c-0.047-0.004-0.104-0.004-0.167,0.001c-0.067,0.003-0.168,0.013-0.3,0.03    c-0.128,0.016-0.224,0.026-0.286,0.027c-0.254,0.016-0.433-0.026-0.535-0.127l-0.108-3.102c-0.049-0.151-0.083-0.363-0.099-0.637    l-0.036-0.596c-0.022-0.295-0.06-0.521-0.11-0.678c0.021-0.105,0.114-0.166,0.279-0.176c0.105-0.006,0.241,0.008,0.418,0.043    c0.081-0.039,0.192-0.062,0.337-0.07c0.04-0.001,0.106-0.003,0.195-0.003c0.097-0.005,0.168-0.01,0.207-0.013    c0.269-0.014,0.447-0.099,0.535-0.246c0.125,0,0.26,0.037,0.405,0.117c0.146,0.081,0.275,0.123,0.388,0.127    c0.291,0.173,0.45,0.457,0.472,0.857c0.006,0.09-0.029,0.441-0.104,1.057l-0.504,0.436c0.087,0.157,0.188,0.498,0.31,1.024    C1040.418,278.27,1040.573,278.592,1040.777,278.796 M1039.848,275.269l0.012,0.007c0.007,0.038,0.004-0.099-0.015-0.406    c-0.01-0.153-0.063-0.26-0.165-0.325c-0.055,0.079-0.067-0.108-0.092,0.079c-0.029,0.189-0.072,0.322-0.138,0.404    c-0.173,0-0.213-0.104-0.315-0.247c-0.064-0.093-0.096-0.014-0.096-0.019l-0.047,0.039c-0.027,0.022-0.057,0.049-0.088,0.078    c-0.032,0.031-0.068,0.041-0.104,0.031c0.003,0.033-0.014,0.088-0.048,0.158c-0.032,0.07-0.049,0.119-0.047,0.149    c0.002,0.048,0.042,0.085,0.119,0.107c-0.012,0.112-0.017,0.229-0.01,0.353c0.005,0.066,0.019,0.219,0.047,0.455    c0.032,0.188,0.044,0.348,0.037,0.481c0.065,0.001,0.122,0.001,0.178-0.002c0.24-0.015,0.397-0.11,0.469-0.284    c0.024-0.055,0.053-0.238,0.084-0.557C1039.656,275.529,1039.729,275.364,1039.848,275.269"/>
		<path clip-path="url(#SVGID_2_)" fill="#010101" d="M1006.548,264.488v0.007c-0.03,0.289-0.041,0.489-0.029,0.597    c-0.045,0.02-0.104,0.022-0.172,0.01c-0.094-0.016-0.146-0.021-0.16-0.021c-0.041,0.002-0.072,0.016-0.098,0.041    c-0.057-0.035-0.094-0.051-0.113-0.046c-0.055,0.033-0.08,0.077-0.078,0.138c0.002,0.028,0.012,0.069,0.03,0.131    c0.019,0.064,0.028,0.109,0.03,0.138c0,0.042-0.006,0.103-0.025,0.19c-0.018,0.088-0.025,0.156-0.023,0.213    c0.004,0.064,0.019,0.168,0.043,0.309c0.023,0.137,0.037,0.242,0.043,0.314c-0.029,0.135-0.041,0.275-0.033,0.414    c0.007,0.172,0.057,0.4,0.141,0.688c0.015,0.003,0.029,0.005,0.045,0.003c0.033,0,0.076-0.027,0.125-0.074    c0.047-0.045,0.09-0.07,0.123-0.072c0.025-0.003,0.055,0.004,0.084,0.018c0.092,0.291,0.138,0.481,0.143,0.566    c0.002,0.039,0.002,0.084,0,0.127c-0.137,0.032-0.23-0.013-0.285-0.136c0.006-0.034-0.014-0.073-0.061-0.11l-0.151,0.158    c0.148,0.021,0.206,0.135,0.177,0.339c-0.014,0.041-0.044,0.063-0.095,0.064c-0.087-0.001-0.126-0.001-0.122-0.001l-0.123-0.221    l-0.049,0.062c-0.042-0.103-0.088-0.152-0.144-0.147c-0.03,0.002-0.084,0.024-0.159,0.072c-0.074,0.05-0.139,0.075-0.188,0.079    c-0.039,0.003-0.079-0.009-0.12-0.03c-0.005-0.062-0.013-0.123-0.022-0.189c-0.012-0.065-0.046-0.105-0.102-0.123    c-0.002-0.158,0.003-0.564,0.013-1.229c0.005-0.503,0-0.909-0.015-1.222c-0.008-0.13-0.017-0.257-0.027-0.381    c-0.027-0.037-0.053-0.058-0.078-0.058c-0.021,0.003-0.051,0.024-0.091,0.065c-0.04,0.043-0.075,0.062-0.104,0.058    c-0.005-0.048-0.028-0.13-0.07-0.24c-0.043-0.11-0.066-0.19-0.07-0.242c-0.002-0.085,0.029-0.158,0.096-0.224l0.175,0.045    c0.07-0.098,0.102-0.268,0.09-0.503c-0.004-0.044-0.01-0.116-0.02-0.214c-0.011-0.096-0.017-0.166-0.019-0.213    c-0.019-0.385,0.1-0.586,0.354-0.6c0.095-0.004,0.211,0.013,0.349,0.053l0.168,0.043c0.014,0.064,0.023,0.131,0.025,0.201    c0.006,0.097,0.002,0.236-0.012,0.42c-0.015,0.185-0.019,0.319-0.015,0.402c0.007,0.138,0.03,0.26,0.072,0.367    c0.04-0.002,0.103-0.025,0.188-0.064c0.085-0.043,0.148-0.064,0.189-0.066C1006.447,264.389,1006.505,264.42,1006.548,264.488     M1006.024,265.025l-0.009-0.17l-0.054-0.053L1006.024,265.025z"/>
		<path clip-path="url(#SVGID_2_)" fill="#010101" d="M1008.616,263.947l0.007-0.001c-0.017,0.138-0.038,0.272-0.062,0.411    c-0.027,0.156-0.07,0.279-0.133,0.368c-0.011-0.005-0.072-0.032-0.186-0.089c-0.078-0.043-0.146-0.057-0.205-0.05    c-0.046,0.295-0.071,0.694-0.075,1.202c-0.004,0.648-0.01,1.041-0.015,1.176c-0.078-0.004-0.133,0.019-0.17,0.074    c-0.038,0.055-0.074,0.107-0.105,0.166c-0.014,0.031-0.02,0.061-0.019,0.083c0.001,0.042,0.036,0.08,0.103,0.116    c0.068,0.037,0.104,0.076,0.104,0.123c-0.027,0.107-0.092,0.164-0.186,0.168c-0.046,0.002-0.125-0.013-0.236-0.039    c-0.11-0.031-0.19-0.045-0.237-0.043l-0.106-2.148c0.043-0.057,0.061-0.098,0.055-0.117l-0.062-0.041    c0.005-0.091,0.01-0.543,0.015-1.352c0.001-0.549,0.022-0.991,0.062-1.33c-0.004,0.002,0.149-0.01,0.465-0.031    c0.195-0.008,0.322,0.046,0.379,0.165c0,0.107-0.012,0.295-0.033,0.558c-0.023,0.241-0.031,0.428-0.025,0.559    c0.01,0.162,0.034,0.305,0.076,0.434C1008.194,264.08,1008.39,263.958,1008.616,263.947 M1009.363,264.406    c0.015,0.2,0.025,0.396,0.036,0.588c0.043,0.831,0.029,1.721-0.037,2.668c-0.074,0.065-0.184,0.08-0.335,0.043    c-0.149-0.035-0.259-0.02-0.325,0.043c-0.086-0.111-0.135-0.311-0.152-0.604c-0.02-0.42-0.03-0.637-0.032-0.652    c-0.019-1.054,0.085-1.905,0.31-2.556C1009.087,264.004,1009.265,264.16,1009.363,264.406"/>
		<path clip-path="url(#SVGID_2_)" fill="#010101" d="M1012.001,265.501c-0.033,0.064-0.046,0.134-0.043,0.21    c0.004,0.075,0.008,0.148,0.013,0.219c-0.009,0.061-0.024,0.12-0.052,0.186c-0.047-0.015-0.084-0.02-0.115-0.018    c-0.033,0.001-0.07,0.014-0.105,0.037c-0.036,0.025-0.066,0.039-0.086,0.039c-0.031,0.002-0.07-0.01-0.122-0.031l-0.35-0.51    c0.013,0.15,0.048,0.281,0.103,0.396c0.029,0.058,0.057,0.116,0.084,0.175c-0.204,0.037-0.319,0.042-0.345,0.018l-0.05,0.062    l-0.121-0.159c-0.095,0.116-0.115,0.284-0.064,0.508c0.062,0.243,0.064,0.419,0.012,0.527c0.075,0.113,0.164,0.163,0.271,0.161    c0.046-0.004,0.085-0.02,0.119-0.051c0.048-0.125,0.098-0.248,0.146-0.371c0.075-0.15,0.154-0.227,0.246-0.23    c0.068-0.006,0.152,0.033,0.246,0.109c0.113,0.039,0.171,0.09,0.174,0.155c0.002,0.04-0.023,0.106-0.078,0.196    c-0.051,0.092-0.078,0.162-0.074,0.213c0.001,0.018,0.004,0.036,0.01,0.052c-0.072,0.054-0.136,0.134-0.195,0.241    c-0.057,0.111-0.133,0.185-0.227,0.226c-0.08,0.079-0.156,0.12-0.226,0.123c-0.056,0.001-0.141-0.04-0.249-0.127    c-0.109-0.089-0.212-0.129-0.308-0.126c-0.038-0.086-0.138-0.186-0.294-0.293c-0.155-0.107-0.252-0.223-0.289-0.348    c0,0.01,0-0.03-0.006-0.119c-0.002-0.051-0.023-0.082-0.064-0.096l0.055-0.055c-0.074-0.002-0.112-0.043-0.117-0.131    c0-0.008-0.002-0.027-0.002-0.062c0.002-0.022,0.005-0.042,0.005-0.06c-0.005-0.061-0.024-0.1-0.061-0.125l-0.013-0.262    c-0.007-0.135-0.035-0.234-0.083-0.29c0.048-0.319,0.099-0.639,0.148-0.958c0.081-0.369,0.203-0.559,0.363-0.568    c0.024,0,0.05,0.003,0.073,0.01c0.146-0.141,0.32-0.219,0.525-0.229c0.226-0.011,0.477,0.059,0.75,0.205    C1011.818,264.701,1011.95,265.084,1012.001,265.501 M1010.966,264.668l-0.053,0.062c-0.033,0.008-0.074-0.01-0.123-0.053    l0.011,0.173c-0.077,0.083-0.107,0.214-0.093,0.391c0.014,0.301,0.021,0.443,0.021,0.436l0.225-0.005    c0.107-0.061,0.158-0.16,0.15-0.301c-0.004-0.07-0.026-0.187-0.075-0.348C1010.985,264.863,1010.963,264.745,1010.966,264.668"/>
		<polygon clip-path="url(#SVGID_2_)" fill-rule="evenodd" clip-rule="evenodd" fill="#010101" points="1013.769,273.084     1013.991,273.213 1014.752,271.22 1014.497,271.134 1013.737,273.129 1013.96,273.271   "/>
		<polygon clip-path="url(#SVGID_2_)" fill-rule="evenodd" clip-rule="evenodd" fill="#010101" points="1014.1,272.809     1014.008,272.844 1013.769,273.084 1013.96,273.271 1014.204,273.017 1014.11,273.065   "/>
		<polygon clip-path="url(#SVGID_2_)" fill-rule="evenodd" clip-rule="evenodd" fill="#010101" points="1015.939,272.794     1016.048,272.709 1014.101,272.809 1014.108,273.065 1016.056,272.966 1016.18,272.873   "/>
		<polygon clip-path="url(#SVGID_2_)" fill-rule="evenodd" clip-rule="evenodd" fill="#010101" points="1016.819,270.959     1016.686,270.795 1015.94,272.794 1016.18,272.875 1016.938,270.879 1016.807,270.713   "/>
		<polygon clip-path="url(#SVGID_2_)" fill-rule="evenodd" clip-rule="evenodd" fill="#010101" points="1014.964,271.023     1014.866,271.071 1016.819,270.959 1016.807,270.713 1014.864,270.801 1014.768,270.85   "/>
		<polygon clip-path="url(#SVGID_2_)" fill-rule="evenodd" clip-rule="evenodd" fill="#010101" points="1014.752,271.22     1014.723,271.264 1014.964,271.023 1014.769,270.85 1014.524,271.09 1014.498,271.134   "/>
		<polygon clip-path="url(#SVGID_2_)" fill-rule="evenodd" clip-rule="evenodd" fill="#010101" points="1016.368,273.029     1016.543,272.953 1016.124,272.722 1015.992,272.957 1016.421,273.194 1016.609,273.111 1016.355,273.026   "/>
		<polygon clip-path="url(#SVGID_2_)" fill-rule="evenodd" clip-rule="evenodd" fill="#010101" points="1017.185,271.188     1017.116,271.031 1016.355,273.026 1016.609,273.111 1017.368,271.115 1017.3,270.959   "/>
		<polygon clip-path="url(#SVGID_2_)" fill-rule="evenodd" clip-rule="evenodd" fill="#010101" points="1016.938,270.879     1016.751,270.963 1017.185,271.188 1017.301,270.959 1016.884,270.727 1016.686,270.795   "/>
		<polygon clip-path="url(#SVGID_2_)" fill="#010101" points="1014.63,271.179 1014.617,271.176 1014.86,270.935 1016.665,270.846     1016.686,270.795 1016.818,270.838 1016.938,270.879 1016.933,270.9 1017.248,271.076 1017.368,271.115 1017.319,271.244     1018.203,273.348 1017.456,275.346 1016.488,273.071 1016.365,273.122 1016.355,273.026 1016.366,273.002 1016.062,272.834     1015.991,272.957 1015.954,272.839 1014.101,272.928 1013.858,273.17   "/>
		<polygon clip-path="url(#SVGID_2_)" fill-rule="evenodd" clip-rule="evenodd" fill="#010101" points="1017.335,275.306     1017.579,275.293 1016.613,273.02 1016.365,273.122 1017.331,275.398 1017.577,275.386 1017.323,275.303   "/>
		<polygon clip-path="url(#SVGID_2_)" fill-rule="evenodd" clip-rule="evenodd" fill="#010101" points="1018.091,273.404     1018.082,273.307 1017.323,275.303 1017.577,275.386 1018.337,273.393 1018.329,273.297   "/>
		<polygon clip-path="url(#SVGID_2_)" fill-rule="evenodd" clip-rule="evenodd" fill="#010101" points="1017.368,271.115     1017.123,271.127 1018.091,273.404 1018.329,273.297 1017.361,271.021 1017.116,271.031   "/>
		<polygon clip-path="url(#SVGID_2_)" fill-rule="evenodd" clip-rule="evenodd" fill="#FFFFFF" points="1017.304,271.63     1017.412,271.867 1017.452,272.106 1017.44,272.344 1017.372,272.589 1017.251,272.828 1017.089,273.041 1016.874,273.238     1016.616,273.406 1016.478,273.469 1016.337,273.527 1016.18,273.555 1016.034,273.589 1015.895,273.605 1015.743,273.623     1015.601,273.604 1015.458,273.596 1015.332,273.568 1015.2,273.523 1015.073,273.469 1014.961,273.404 1014.864,273.331     1014.755,273.253 1014.667,273.158 1014.595,273.053 1014.484,272.817 1014.446,272.574 1014.446,272.335 1014.526,272.093     1014.63,271.861 1014.8,271.637 1015.013,271.439 1015.28,271.275 1015.409,271.213 1015.563,271.154 1015.706,271.123     1015.851,271.093 1016.003,271.074 1016.144,271.057 1016.284,271.074 1016.431,271.083 1016.562,271.127 1016.694,271.172     1016.813,271.213 1016.938,271.281 1017.038,271.34 1017.144,271.428 1017.216,271.533   "/>
		<polygon clip-path="url(#SVGID_2_)" fill-rule="evenodd" clip-rule="evenodd" fill="#010101" points="1017.401,272.022     1017.508,272.26 1017.543,272.513 1017.534,272.75 1017.468,272.982 1017.36,273.227 1017.179,273.446 1016.983,273.637     1016.714,273.801 1016.569,273.873 1016.429,273.934 1016.284,273.965 1016.128,273.994 1015.987,274.014 1015.85,274.021     1015.706,274.014 1015.554,273.989 1015.429,273.96 1015.296,273.916 1015.181,273.864 1015.057,273.797 1014.956,273.735     1014.863,273.652 1014.771,273.566 1014.688,273.446 1014.577,273.223 1014.538,272.98 1014.554,272.732 1014.619,272.5     1014.728,272.256 1014.892,272.041 1015.104,271.845 1015.372,271.682 1015.518,271.609 1015.655,271.561 1015.802,271.518     1015.96,271.49 1016.097,271.48 1016.237,271.461 1016.377,271.48 1016.521,271.49 1016.657,271.52 1016.792,271.564     1016.907,271.617 1017.036,271.676 1017.132,271.746 1017.24,271.822 1017.312,271.928 1017.396,272.036   "/>
		<polygon clip-path="url(#SVGID_2_)" fill-rule="evenodd" clip-rule="evenodd" fill="#FFFFFF" points="1017.468,272.301     1017.581,272.524 1017.616,272.777 1017.604,273.015 1017.542,273.248 1017.421,273.488 1017.251,273.711 1017.056,273.9     1016.787,274.064 1016.654,274.141 1016.501,274.198 1016.357,274.23 1016.199,274.258 1016.058,274.279 1015.923,274.287     1015.778,274.279 1015.626,274.254 1015.502,274.225 1015.368,274.182 1015.253,274.129 1015.128,274.061 1015.027,274     1014.924,273.914 1014.847,273.821 1014.763,273.711 1014.651,273.488 1014.609,273.246 1014.622,273.01 1014.688,272.766     1014.799,272.52 1014.968,272.295 1015.188,272.115 1015.446,271.945 1015.59,271.873 1015.729,271.812 1015.876,271.781     1016.032,271.752 1016.17,271.734 1016.309,271.726 1016.466,271.737 1016.595,271.752 1016.729,271.787 1016.863,271.832     1016.991,271.885 1017.103,271.951 1017.203,272.01 1017.312,272.086 1017.384,272.192   "/>
		<polygon clip-path="url(#SVGID_2_)" fill-rule="evenodd" clip-rule="evenodd" fill="#010101" points="1017.565,272.691     1017.673,272.93 1017.714,273.17 1017.714,273.411 1017.632,273.652 1017.528,273.887 1017.347,274.105 1017.147,274.309     1016.88,274.472 1016.749,274.535 1016.597,274.592 1016.452,274.623 1016.309,274.654 1016.153,274.671 1016.015,274.691     1015.875,274.671 1015.729,274.664 1015.595,274.631 1015.46,274.586 1015.343,274.535 1015.22,274.467 1015.124,274.395     1015.027,274.322 1014.939,274.225 1014.854,274.118 1014.759,273.884 1014.706,273.639 1014.72,273.404 1014.786,273.156     1014.903,272.928 1015.071,272.705 1015.284,272.508 1015.542,272.341 1015.683,272.277 1015.822,272.219 1015.979,272.192     1016.124,272.158 1016.265,272.139 1016.413,272.135 1016.558,272.143 1016.691,272.146 1016.827,272.178 1016.96,272.225     1017.087,272.277 1017.198,272.344 1017.31,272.42 1017.403,272.492 1017.493,272.589 1017.562,272.705   "/>
		<polygon clip-path="url(#SVGID_2_)" fill-rule="evenodd" clip-rule="evenodd" fill="#FFFFFF" points="1017.706,272.953     1017.818,273.18 1017.858,273.42 1017.854,273.672 1017.79,273.906 1017.669,274.146 1017.489,274.366 1017.294,274.555     1017.034,274.723 1016.89,274.797 1016.737,274.853 1016.594,274.887 1016.448,274.916 1016.296,274.933 1016.159,274.941     1016.015,274.933 1015.875,274.913 1015.737,274.879 1015.604,274.836 1015.488,274.783 1015.372,274.73 1015.265,274.654     1015.171,274.572 1015.083,274.474 1015.012,274.369 1014.899,274.145 1014.85,273.89 1014.863,273.652 1014.939,273.424     1015.048,273.178 1015.214,272.953 1015.425,272.768 1015.681,272.602 1015.825,272.529 1015.966,272.469 1016.119,272.453     1016.267,272.407 1016.408,272.387 1016.558,272.383 1016.702,272.393 1016.831,272.407 1016.968,272.441 1017.11,272.489     1017.226,272.539 1017.345,272.592 1017.452,272.668 1017.544,272.754 1017.634,272.85   "/>
		<polygon clip-path="url(#SVGID_2_)" fill-rule="evenodd" clip-rule="evenodd" fill="#010101" points="1017.813,273.354     1017.91,273.585 1017.963,273.83 1017.95,274.064 1017.882,274.311 1017.765,274.541 1017.596,274.766 1017.384,274.961     1017.126,275.129 1016.986,275.191 1016.833,275.246 1016.69,275.277 1016.545,275.311 1016.405,275.33 1016.253,275.346     1016.111,275.325 1015.968,275.316 1015.843,275.29 1015.698,275.24 1015.581,275.191 1015.47,275.125 1015.36,275.049     1015.265,274.976 1015.177,274.879 1015.104,274.776 1014.996,274.538 1014.942,274.294 1014.956,274.057 1015.035,273.814     1015.14,273.58 1015.31,273.357 1015.521,273.16 1015.79,272.996 1015.92,272.934 1016.071,272.877 1016.216,272.844     1016.36,272.814 1016.514,272.797 1016.654,272.777 1016.792,272.797 1016.927,272.802 1017.075,272.837 1017.208,272.883     1017.323,272.936 1017.437,273 1017.544,273.075 1017.64,273.147 1017.728,273.243   "/>
		<polygon clip-path="url(#SVGID_2_)" fill-rule="evenodd" clip-rule="evenodd" fill="#010101" points="1004.542,270.289     1004.554,270.213 1003.791,272.219 1004.032,272.299 1004.794,270.291 1004.798,270.24   "/>
		<polygon clip-path="url(#SVGID_2_)" fill-rule="evenodd" clip-rule="evenodd" fill="#010101" points="1004.522,270.186     1004.526,270.175 1004.542,270.289 1004.8,270.24 1004.771,270.123 1004.776,270.111   "/>
		<polygon clip-path="url(#SVGID_2_)" fill-rule="evenodd" clip-rule="evenodd" fill="#010101" points="1004.495,270.072     1004.522,270.186 1004.776,270.111 1004.747,269.994   "/>
		
			<rect x="1004.549" y="269.849" transform="matrix(-0.3003 -0.9538 0.9538 -0.3003 1048.7524 1309.2931)" clip-path="url(#SVGID_2_)" fill-rule="evenodd" clip-rule="evenodd" fill="#010101" width="0.111" height="0.264"/>
		<polygon clip-path="url(#SVGID_2_)" fill-rule="evenodd" clip-rule="evenodd" fill="#010101" points="1004.435,269.85     1004.435,269.85 1004.462,269.967 1004.716,269.891 1004.686,269.774 1004.684,269.787   "/>
		<polygon clip-path="url(#SVGID_2_)" fill-rule="evenodd" clip-rule="evenodd" fill="#010101" points="1004.401,269.707     1004.401,269.747 1004.435,269.85 1004.684,269.787 1004.65,269.682 1004.664,269.727   "/>
		<polygon clip-path="url(#SVGID_2_)" fill-rule="evenodd" clip-rule="evenodd" fill="#010101" points="1004.657,269.658     1004.405,269.613 1004.401,269.707 1004.664,269.727 1004.665,269.633 1004.413,269.59 1004.654,269.668   "/>
		<polygon clip-path="url(#SVGID_2_)" fill-rule="evenodd" clip-rule="evenodd" fill="#4D494A" points="1004.877,275.498     1004.854,275.369 1004.585,275.414 1004.604,275.555   "/>
		<polygon clip-path="url(#SVGID_2_)" fill-rule="evenodd" clip-rule="evenodd" fill="#010101" points="1005.437,273.826     1005.444,273.76 1004.686,275.756 1004.927,275.834 1005.686,273.84 1005.681,273.771   "/>
		<polygon clip-path="url(#SVGID_2_)" fill-rule="evenodd" clip-rule="evenodd" fill="#010101" points="1005.415,273.685     1005.437,273.826 1005.681,273.771 1005.663,273.631 1005.403,273.681   "/>
		<polygon clip-path="url(#SVGID_2_)" fill-rule="evenodd" clip-rule="evenodd" fill="#010101" points="1005.38,273.553     1005.403,273.681 1005.663,273.631 1005.627,273.499   "/>
		<polygon clip-path="url(#SVGID_2_)" fill-rule="evenodd" clip-rule="evenodd" fill="#010101" points="1005.349,273.406     1005.356,273.424 1005.38,273.553 1005.626,273.499 1005.604,273.357 1005.613,273.376   "/>
		<polygon clip-path="url(#SVGID_2_)" fill-rule="evenodd" clip-rule="evenodd" fill="#010101" points="1005.589,273.287     1005.333,273.253 1005.349,273.406 1005.612,273.376 1005.593,273.236 1005.337,273.204   "/>
		<path clip-path="url(#SVGID_2_)" fill="#4D494A" d="M1003.792,271.819l-0.123,0.036L1003.792,271.819z"/>
		<polygon clip-path="url(#SVGID_2_)" fill="#4D494A" points="1003.919,272.239 1003.923,272.227 1003.985,272.232     1004.032,272.297 1003.92,272.264   "/>
		<polygon clip-path="url(#SVGID_2_)" fill="#010101" points="1003.642,271.742 1003.772,271.717 1003.774,271.624     1004.538,269.619 1004.534,269.631 1004.534,269.711 1004.554,269.812 1004.594,269.932 1004.628,270.037 1004.654,270.15     1004.675,270.252 1004.795,270.291 1004.032,272.299 1003.985,272.232 1003.923,272.227 1003.919,272.239 1003.92,272.264     1004.032,272.299 1003.92,272.291 1003.923,272.383 1003.847,272.287 1003.782,272.283 1003.767,272.17 1003.813,272.16     1003.862,272.031 1003.735,272.066 1003.698,271.973 1003.669,271.855 1003.792,271.819 1003.669,271.855 1003.674,271.845   "/>
		<polygon clip-path="url(#SVGID_2_)" fill="#010101" points="1003.915,272.127 1009.505,271.943 1009.647,271.951     1009.673,271.961 1009.81,271.99 1009.82,271.997 1009.967,272.045 1010.106,272.105 1010.118,272.107 1010.251,272.193     1010.276,272.2 1010.378,272.29 1010.412,272.312 1010.488,272.404 1010.495,272.422 1010.547,272.506 1010.552,272.532     1010.306,272.609 1010.267,272.547 1010.263,272.559 1010.2,272.469 1010.2,272.469 1010.113,272.4 1010.134,272.422     1009.997,272.35 1009.998,272.348 1009.856,272.29 1009.737,272.248 1009.599,272.217 1009.624,272.225 1009.495,272.208     1009.495,272.197 1003.923,272.383   "/>
		<polygon clip-path="url(#SVGID_2_)" fill="#010101" points="1010.3,272.609 1010.306,272.609 1010.319,272.631   "/>
		<polygon clip-path="url(#SVGID_2_)" fill-rule="evenodd" clip-rule="evenodd" fill="#010101" points="1013.284,277.3     1013.284,277.219 1012.521,279.226 1012.773,279.311 1013.536,277.303 1013.536,277.225   "/>
		<polygon clip-path="url(#SVGID_2_)" fill-rule="evenodd" clip-rule="evenodd" fill="#010101" points="1011.078,270.635     1011.062,270.604 1013.284,277.3 1013.536,277.225 1011.315,270.525 1011.311,270.5   "/>
		<polygon clip-path="url(#SVGID_2_)" fill-rule="evenodd" clip-rule="evenodd" fill="#010101" points="1011.034,270.568     1011.026,270.553 1011.078,270.635 1011.311,270.5 1011.259,270.416 1011.246,270.411 1011.021,270.564   "/>
		<polygon clip-path="url(#SVGID_2_)" fill-rule="evenodd" clip-rule="evenodd" fill="#010101" points="1010.981,270.483     1010.961,270.465 1011.021,270.564 1011.247,270.411 1011.163,270.303 1011.142,270.281   "/>
		<polygon clip-path="url(#SVGID_2_)" fill-rule="evenodd" clip-rule="evenodd" fill="#010101" points="1010.894,270.428     1010.874,270.406 1010.982,270.483 1011.144,270.281 1011.034,270.207 1011.014,270.186   "/>
		<polygon clip-path="url(#SVGID_2_)" fill-rule="evenodd" clip-rule="evenodd" fill="#010101" points="1010.772,270.347     1010.76,270.343 1010.894,270.428 1011.014,270.186 1010.876,270.115 1010.865,270.111   "/>
		<polygon clip-path="url(#SVGID_2_)" fill-rule="evenodd" clip-rule="evenodd" fill="#010101" points="1010.646,270.291     1010.616,270.295 1010.772,270.347 1010.865,270.111 1010.724,270.049 1010.712,270.045 1010.63,270.299   "/>
		<polygon clip-path="url(#SVGID_2_)" fill-rule="evenodd" clip-rule="evenodd" fill="#010101" points="1010.499,270.242     1010.483,270.25 1010.63,270.299 1010.712,270.045 1010.567,269.998 1010.495,270.254   "/>
		<polygon clip-path="url(#SVGID_2_)" fill-rule="evenodd" clip-rule="evenodd" fill="#010101" points="1010.388,270.219     1010.364,270.211 1010.495,270.254 1010.567,269.998 1010.42,269.963 1010.407,269.957   "/>
		<polygon clip-path="url(#SVGID_2_)" fill-rule="evenodd" clip-rule="evenodd" fill="#010101" points="1010.258,270.201     1010.255,270.213 1010.388,270.219 1010.407,269.957 1010.267,269.936 1010.251,269.945   "/>
		<polygon clip-path="url(#SVGID_2_)" fill-rule="evenodd" clip-rule="evenodd" fill="#010101" points="1004.806,270.296     1004.671,270.383 1010.258,270.201 1010.25,269.945 1004.675,270.133 1004.554,270.213 1004.794,270.291   "/>
		<polygon clip-path="url(#SVGID_2_)" fill="#4D494A" points="1006.21,276.398 1006.19,276.387 1006.202,276.381   "/>
		<path clip-path="url(#SVGID_2_)" fill="#4D494A" d="M1009.228,277.3l-0.02,0.272L1009.228,277.3z"/>
		<path clip-path="url(#SVGID_2_)" fill="#010101" d="M1004.604,275.555l0.024,0.129l0.051,0.137l0.059,0.1l0.342,0.181l0.341,0.179    l0.329,0.18l0.332,0.164l0.014,0.004l0.337,0.152l0.337,0.154l0.365,0.146l0.369,0.138l0.013,0.004l0.393,0.103l0.394,0.106    l0.012,0.003l0.435,0.064l0.444,0.069l0.014,0.005l0.484,0.025l0.018-0.006l0.518,0.013l0.554-0.018l0.587-0.032l0.121-0.08    l0.758-1.994l-0.129-0.177l0.008,0.257l-0.04-0.051l0.029-0.072l-0.085,0.004l-0.035-0.045l-0.02,0.049l-0.436,0.026h-0.562    l-0.518-0.013l-0.474-0.021l-0.463-0.062l-0.43-0.074l-0.395-0.105l-0.391-0.104l-0.37-0.137l-0.358-0.134l-0.336-0.152    l-0.334-0.164l-0.346-0.168l-0.33-0.179l-0.326-0.175l-0.229-0.12l0.006-0.022l-0.119-0.039l-0.033-0.143l-0.024-0.131    l-0.011-0.045l0.092-0.195l-0.127-0.041l-0.006-0.003l-0.119-0.039l-0.76,1.993l-0.008,0.065l0.02,0.14L1004.604,275.555z     M1004.698,275.237l0.004,0.025l-0.014-0.007L1004.698,275.237z"/>
		<polygon clip-path="url(#SVGID_2_)" fill-rule="evenodd" clip-rule="evenodd" fill="#010101" points="1011.54,275.593     1012.124,275.561 1012.116,275.303 1011.53,275.338   "/>
		
			<rect x="1010.98" y="275.346" transform="matrix(-0.9996 0.0282 -0.0282 -0.9996 2029.8715 522.3621)" clip-path="url(#SVGID_2_)" fill-rule="evenodd" clip-rule="evenodd" fill="#010101" width="0.555" height="0.255"/>
		<polygon clip-path="url(#SVGID_2_)" fill-rule="evenodd" clip-rule="evenodd" fill="#010101" points="1010.455,275.593     1010.468,275.594 1010.985,275.608 1010.978,275.352 1010.46,275.34 1010.476,275.332 1010.45,275.604   "/>
		<polygon clip-path="url(#SVGID_2_)" fill-rule="evenodd" clip-rule="evenodd" fill="#010101" points="1009.956,275.561     1009.969,275.564 1010.45,275.604 1010.476,275.332 1009.988,275.303 1010.001,275.309   "/>
		<polygon clip-path="url(#SVGID_2_)" fill-rule="evenodd" clip-rule="evenodd" fill="#010101" points="1009.506,275.503     1009.956,275.561 1010.001,275.309 1009.555,275.239   "/>
		<polygon clip-path="url(#SVGID_2_)" fill-rule="evenodd" clip-rule="evenodd" fill="#010101" points="1009.065,275.424     1009.079,275.43 1009.506,275.503 1009.555,275.239 1009.108,275.17 1009.122,275.174   "/>
		<polygon clip-path="url(#SVGID_2_)" fill-rule="evenodd" clip-rule="evenodd" fill="#010101" points="1008.672,275.318     1009.065,275.424 1009.122,275.174 1008.729,275.07 1008.668,275.332   "/>
		<polygon clip-path="url(#SVGID_2_)" fill-rule="evenodd" clip-rule="evenodd" fill="#010101" points="1008.263,275.223     1008.274,275.227 1008.669,275.332 1008.729,275.07 1008.335,274.965 1008.348,274.97   "/>
		<polygon clip-path="url(#SVGID_2_)" fill-rule="evenodd" clip-rule="evenodd" fill="#010101" points="1007.893,275.085     1007.893,275.085 1008.263,275.223 1008.348,274.97 1007.978,274.834 1007.989,274.836 1007.882,275.081   "/>
		<polygon clip-path="url(#SVGID_2_)" fill-rule="evenodd" clip-rule="evenodd" fill="#010101" points="1007.528,274.938     1007.882,275.081 1007.991,274.836 1007.638,274.691   "/>
		<polygon clip-path="url(#SVGID_2_)" fill-rule="evenodd" clip-rule="evenodd" fill="#010101" points="1007.19,274.783     1007.528,274.938 1007.636,274.691 1007.296,274.551   "/>
		<polygon clip-path="url(#SVGID_2_)" fill-rule="evenodd" clip-rule="evenodd" fill="#010101" points="1006.846,274.615     1006.853,274.633 1007.19,274.783 1007.296,274.551 1006.95,274.385 1006.962,274.389 1006.841,274.627   "/>
		<polygon clip-path="url(#SVGID_2_)" fill-rule="evenodd" clip-rule="evenodd" fill="#010101" points="1006.513,274.451     1006.842,274.627 1006.962,274.389 1006.628,274.223 1006.509,274.462   "/>
		<polygon clip-path="url(#SVGID_2_)" fill-rule="evenodd" clip-rule="evenodd" fill="#010101" points="1006.183,274.273     1006.509,274.462 1006.628,274.223 1006.3,274.047 1006.171,274.271   "/>
		<polygon clip-path="url(#SVGID_2_)" fill-rule="evenodd" clip-rule="evenodd" fill="#010101" points="1005.841,274.094     1006.171,274.271 1006.3,274.047 1005.972,273.867   "/>
		<polygon clip-path="url(#SVGID_2_)" fill-rule="evenodd" clip-rule="evenodd" fill="#010101" points="1005.685,273.84     1005.501,273.914 1005.841,274.092 1005.972,273.867 1005.63,273.688 1005.444,273.76   "/>
		<polygon clip-path="url(#SVGID_2_)" fill-rule="evenodd" clip-rule="evenodd" fill="#010101" points="1040.485,270.226     1039.723,272.233 1042.214,273.064 1042.792,271.731 1042.81,271.604 1042.812,271.469 1042.792,271.328 1042.746,271.193     1042.666,271.074 1042.601,270.944 1042.495,270.816 1042.388,270.701 1042.275,270.596 1042.15,270.486 1042.022,270.391     1041.898,270.321 1041.777,270.242 1041.636,270.182 1041.512,270.113 1041.393,270.072 1041.283,270.037 1041.154,270.021     1041.039,270.01 1040.927,270.025 1040.814,270.042 1040.693,270.079 1040.589,270.152   "/>
		<polygon clip-path="url(#SVGID_2_)" fill-rule="evenodd" clip-rule="evenodd" fill="#010101" points="1042.103,273     1042.259,272.932 1039.765,272.1 1039.682,272.354 1042.175,273.184 1042.343,273.121   "/>
		<polygon clip-path="url(#SVGID_2_)" fill="#010101" points="1003.642,271.62 1003.655,271.584 1004.415,269.59 1004.654,269.668     1003.918,271.641 1003.903,271.719 1003.899,271.692 1003.642,271.742 1003.639,271.713   "/>
		<polygon clip-path="url(#SVGID_2_)" fill="#4D494A" points="1015.865,276.342 1015.821,276.369 1015.817,276.365   "/>
		<path clip-path="url(#SVGID_2_)" fill="#010101" d="M1003.735,272.066l0.026,0.116l0.005-0.013l0.195-0.041l-0.051,0.13    l5.589-0.183l0.132,0.005l0.145,0.048l0.146,0.046l0.144,0.052l0.133,0.082l0.107,0.077l0.078,0.093l0.046,0.092l-0.13,0.039    l2.22,6.698h0.132l0.002,0.083h0.201l0.188-0.004l0.173,0.004l0.156-0.026l0.16-0.042l0.16-0.078l0.148-0.125l0.177-0.17    l0.004-0.014l0.103-0.137l0.115-0.149l0.133-0.155l0.094-0.159l0.115-0.188l0.121-0.159l0.098-0.181l0.13-0.186l0.104-0.152    l0.15-0.164l0.12-0.162l0.14-0.141l0.125-0.131l0.133-0.117l0.128-0.104l0.148-0.084l0.033-0.016l-0.096-0.092l0.096,0.092    l0.148-0.165l0.137-0.13l0.12-0.119l0.129-0.105l0.126-0.09l0.129-0.078l0.118-0.067l0.129-0.063l0.143-0.032l0.142-0.061    l0.146-0.032l0.167-0.023l0.185-0.033l0.204-0.014l0.223-0.018l0.217-0.01l0.012,0.007l24.117-1.804l0.14-0.018l0.129-0.025    l0.115-0.026l0.122-0.042l0.112-0.055l0.116-0.069l0.096-0.089l0.112-0.096l0.024-0.031l0.422-0.984l-0.221-0.141l0.099,0.097    l-0.017,0.011l-0.106-0.074l-0.105,0.247l-0.071,0.042l-0.092,0.035l-0.109,0.044l-0.1,0.021l-0.128,0.024l-0.129,0.024    l-24.127,1.797l-0.155,0.014l-0.148,0.006l-0.146,0.004l-0.158,0.025h-0.162l-0.138,0.021l-0.153,0.018l-0.14,0.02l-0.158,0.029    l-0.14,0.018l-0.144,0.033l-0.161,0.041l-0.146,0.031l-0.152,0.057l-0.152,0.056l-0.145,0.072l-0.285,0.172l-0.29,0.267    l-0.305,0.312l-0.293,0.355l-0.284,0.374l-0.246,0.334l-0.241,0.32l-0.199,0.241l-0.117,0.027l-0.1,0.021l-0.125,0.013h-0.121    h-0.12l-0.103-0.01l-0.133-0.003l-0.119-0.013l-2.213-6.681l-0.047-0.096l-0.078-0.093l-0.107-0.076l-0.146-0.088l-0.14-0.062    l-0.146-0.048l-0.135-0.031l-0.135-0.004l-5.582,0.17l-0.672,1.766l-0.004-0.023L1003.735,272.066z M1043.862,272.251l0.007-0.017    l0.092,0.088L1043.862,272.251z"/>
		<polygon clip-path="url(#SVGID_2_)" fill-rule="evenodd" clip-rule="evenodd" fill="#010101" points="1043.019,272.744     1043.162,272.71 1043.289,272.688 1043.408,272.658 1043.528,272.617 1043.64,272.561 1043.756,272.494 1043.848,272.418     1043.961,272.322 1043.77,272.137 1043.685,272.229 1043.597,272.295 1043.512,272.346 1043.42,272.383 1043.33,272.404     1043.226,272.438 1043.114,272.455 1042.99,272.465   "/>
		<polygon clip-path="url(#SVGID_2_)" fill-rule="evenodd" clip-rule="evenodd" fill="#010101" points="1018.904,274.533     1043.019,272.744 1042.99,272.465 1018.874,274.268   "/>
		<polygon clip-path="url(#SVGID_2_)" fill-rule="evenodd" clip-rule="evenodd" fill="#010101" points="1016.54,274.961     1016.68,274.9 1016.818,274.853 1016.983,274.801 1017.118,274.752 1017.267,274.709 1017.407,274.689 1017.55,274.668     1017.706,274.641 1017.833,274.615 1017.981,274.613 1018.136,274.596 1018.288,274.582 1018.44,274.564 1018.575,274.558     1018.741,274.544 1018.904,274.533 1018.876,274.268 1018.721,274.284 1018.571,274.299 1018.409,274.299 1018.257,274.315     1018.106,274.318 1017.963,274.352 1017.812,274.355 1017.649,274.366 1017.503,274.398 1017.36,274.432 1017.203,274.459     1017.042,274.499 1016.907,274.548 1016.742,274.599 1016.578,274.652 1016.432,274.723   "/>
		<polygon clip-path="url(#SVGID_2_)" fill-rule="evenodd" clip-rule="evenodd" fill="#010101" points="1014.381,277.344     1014.433,277.309 1014.54,277.184 1014.636,277.055 1014.752,276.907 1014.874,276.746 1015.012,276.578 1015.134,276.405     1015.274,276.225 1015.417,276.044 1015.561,275.852 1015.71,275.688 1015.854,275.534 1016.003,275.369 1016.127,275.237     1016.284,275.129 1016.411,275.025 1016.54,274.961 1016.432,274.723 1016.267,274.816 1016.127,274.916 1015.962,275.049     1015.807,275.197 1015.661,275.35 1015.518,275.502 1015.356,275.703 1015.214,275.883 1015.075,276.064 1014.935,276.244     1014.812,276.417 1014.673,276.584 1014.552,276.746 1014.437,276.895 1014.341,277.023 1014.251,277.127 1014.3,277.102   "/>
		<polygon clip-path="url(#SVGID_2_)" fill-rule="evenodd" clip-rule="evenodd" fill="#FFFFFF" points="1009.761,270.089     1010.258,270.082 1010.3,270.082 1006.024,268.656 1005.807,268.783 1009.757,270.102   "/>
		<polygon clip-path="url(#SVGID_2_)" fill-rule="evenodd" clip-rule="evenodd" fill="#FFFFFF" points="1009.761,270.089     1004.675,270.252 1004.654,270.15 1004.628,270.037 1004.594,269.932 1004.554,269.812 1004.534,269.711 1004.534,269.631     1004.566,269.534 1004.654,269.469 1004.864,269.326 1005.097,269.189 1005.329,269.053 1005.563,268.916 1005.784,268.774     1005.807,268.783 1009.757,270.102   "/>
		<polygon clip-path="url(#SVGID_2_)" fill="#FFFFFF" points="1006.669,273.178 1010.134,272.984 1011.489,273.531     1011.968,274.947 1012.113,275.438 1011.54,275.472 1010.978,275.472 1010.459,275.459 1009.985,275.438 1009.524,275.375     1009.093,275.301 1008.698,275.195 1008.308,275.091 1007.938,274.954 1007.579,274.82 1007.243,274.668 1006.909,274.504     1006.563,274.336 1006.235,274.157 1005.907,273.982 1005.565,273.801 1005.532,273.658 1005.508,273.527 1005.478,273.383     1005.456,273.242   "/>
		<polygon clip-path="url(#SVGID_2_)" fill-rule="evenodd" clip-rule="evenodd" fill="#FFFFFF" points="1015.396,273.575     1015.446,273.631 1015.892,273.9 1016.034,273.67 1015.589,273.4 1015.634,273.467 1015.396,273.575 1015.415,273.605     1015.446,273.631   "/>
		<polygon clip-path="url(#SVGID_2_)" fill-rule="evenodd" clip-rule="evenodd" fill="#FFFFFF" points="1011.435,273.66     1011.358,273.566 1011.993,275.477 1012.245,275.398 1011.61,273.488 1011.542,273.412 1011.61,273.488 1011.591,273.428     1011.542,273.412   "/>
		<polygon clip-path="url(#SVGID_2_)" fill-rule="evenodd" clip-rule="evenodd" fill="#FFFFFF" points="1010.146,273.109     1010.081,273.1 1011.435,273.66 1011.542,273.412 1010.191,272.855 1010.138,272.852 1010.191,272.855 1010.166,272.849     1010.138,272.852   "/>
		<polygon clip-path="url(#SVGID_2_)" fill-rule="evenodd" clip-rule="evenodd" fill="#FFFFFF" points="1005.593,273.236     1005.466,273.38 1010.146,273.109 1010.138,272.852 1005.457,273.122 1005.333,273.253 1005.457,273.122 1005.308,273.126     1005.333,273.253   "/>
		<polygon clip-path="url(#SVGID_2_)" fill-rule="evenodd" clip-rule="evenodd" fill="#FFFFFF" points="1005.63,273.688     1005.681,273.771 1005.678,273.705 1005.661,273.631 1005.657,273.564 1005.638,273.504 1005.634,273.436 1005.618,273.363     1005.598,273.305 1005.593,273.236 1005.333,273.253 1005.333,273.334 1005.344,273.42 1005.364,273.478 1005.369,273.547     1005.388,273.605 1005.404,273.681 1005.433,273.757 1005.437,273.826 1005.499,273.914 1005.437,273.826 1005.456,273.884     1005.499,273.914   "/>
		<polygon clip-path="url(#SVGID_2_)" fill-rule="evenodd" clip-rule="evenodd" fill="#FFFFFF" points="1011.995,275.465     1012.104,275.301 1011.53,275.338 1010.976,275.352 1010.476,275.332 1009.988,275.303 1009.555,275.239 1009.122,275.174     1008.729,275.07 1008.348,274.97 1007.978,274.832 1007.638,274.691 1007.296,274.551 1006.962,274.389 1006.63,274.223     1006.3,274.047 1005.972,273.867 1005.63,273.688 1005.501,273.914 1005.841,274.094 1006.171,274.271 1006.509,274.462     1006.841,274.627 1007.19,274.783 1007.528,274.938 1007.893,275.085 1008.263,275.223 1008.668,275.332 1009.065,275.424     1009.506,275.503 1009.969,275.564 1010.45,275.604 1010.985,275.608 1011.54,275.593 1012.136,275.566 1012.245,275.398     1012.136,275.566 1012.302,275.553 1012.245,275.398 1011.993,275.477   "/>
		<polygon clip-path="url(#SVGID_2_)" fill-rule="evenodd" clip-rule="evenodd" fill="#FFFFFF" points="1018.874,274.268     1018.698,274.275 1018.499,274.304 1018.323,274.311 1018.132,274.326 1017.946,274.359 1017.749,274.389 1017.553,274.416     1017.362,274.459 1017.175,274.504 1017.011,274.555 1016.829,274.615 1016.661,274.68 1016.515,274.752 1016.345,274.828     1016.204,274.928 1016.075,275.033 1016.235,275.234 1016.36,275.141 1016.479,275.06 1016.613,274.984 1016.766,274.928     1016.914,274.846 1017.073,274.805 1017.265,274.76 1017.428,274.709 1017.608,274.689 1017.771,274.646 1017.963,274.633     1018.146,274.602 1018.344,274.572 1018.536,274.555 1018.716,274.537 1018.904,274.533   "/>
		<polygon clip-path="url(#SVGID_2_)" fill-rule="evenodd" clip-rule="evenodd" fill="#FFFFFF" points="1042.99,272.465     1018.874,274.268 1018.904,274.533 1043.019,272.744   "/>
		<polygon clip-path="url(#SVGID_2_)" fill-rule="evenodd" clip-rule="evenodd" fill="#FFFFFF" points="1043.439,270.996     1043.54,271.138 1043.645,271.267 1043.692,271.402 1043.769,271.535 1043.809,271.656 1043.82,271.781 1043.824,271.887     1043.816,271.992 1043.788,272.078 1043.748,272.157 1043.695,272.233 1043.604,272.31 1043.508,272.359 1043.354,272.414     1043.194,272.455 1042.99,272.465 1043.019,272.744 1043.238,272.723 1043.431,272.667 1043.6,272.602 1043.748,272.52     1043.885,272.43 1043.981,272.301 1044.033,272.185 1044.081,272.041 1044.079,271.893 1044.086,271.75 1044.054,271.604     1044.001,271.439 1043.94,271.297 1043.861,271.138 1043.756,270.969 1043.652,270.84   "/>
		<polygon clip-path="url(#SVGID_2_)" fill-rule="evenodd" clip-rule="evenodd" fill="#FFFFFF" points="1040.564,269.623     1040.781,269.616 1041.003,269.636 1041.228,269.686 1041.443,269.718 1041.649,269.784 1041.855,269.854 1042.051,269.945     1042.235,270.035 1042.429,270.138 1042.604,270.25 1042.792,270.367 1042.93,270.479 1043.074,270.607 1043.216,270.747     1043.331,270.881 1043.44,270.996 1043.652,270.84 1043.527,270.691 1043.388,270.553 1043.245,270.411 1043.09,270.277     1042.918,270.154 1042.746,270.031 1042.568,269.916 1042.368,269.795 1042.16,269.701 1041.946,269.616 1041.729,269.543     1041.502,269.467 1041.276,269.418 1041.046,269.382 1040.785,269.362 1040.559,269.363   "/>
		<polygon clip-path="url(#SVGID_2_)" fill-rule="evenodd" clip-rule="evenodd" fill="#FFFFFF" points="1019.228,270.357     1040.565,269.623 1040.559,269.363 1019.231,270.105   "/>
		<polygon clip-path="url(#SVGID_2_)" fill-rule="evenodd" clip-rule="evenodd" fill="#FFFFFF" points="1015.859,269.822     1016.061,269.904 1016.272,269.947 1016.478,270.016 1016.691,270.061 1016.914,270.109 1017.123,270.165 1017.352,270.2     1017.558,270.229 1017.771,270.274 1017.99,270.291 1018.208,270.325 1018.421,270.328 1018.624,270.357 1018.843,270.35     1019.039,270.363 1019.228,270.357 1019.231,270.105 1019.03,270.105 1018.833,270.094 1018.648,270.086 1018.44,270.07     1018.231,270.053 1018.024,270.037 1017.817,270.008 1017.603,269.977 1017.39,269.932 1017.185,269.904 1016.976,269.848     1016.761,269.816 1016.552,269.758 1016.329,269.699 1016.144,269.65 1015.94,269.582 1015.856,269.836   "/>
		<polygon clip-path="url(#SVGID_2_)" fill-rule="evenodd" clip-rule="evenodd" fill="#FFFFFF" points="1008.661,267.851     1009.027,267.799 1009.372,267.766 1009.702,267.74 1010.001,267.721 1010.287,267.709 1010.544,267.742 1010.81,267.749     1011.029,267.769 1011.26,267.805 1011.473,267.851 1011.673,267.891 1011.854,267.951 1012.046,268.014 1012.198,268.08     1012.387,268.155 1012.536,268.231 1012.708,268.316 1012.881,268.4 1013.051,268.499 1013.218,268.595 1013.388,268.689     1013.564,268.804 1013.737,268.887 1013.924,269.002 1014.134,269.102 1014.333,269.221 1014.56,269.309 1014.776,269.422     1015.021,269.528 1015.285,269.619 1015.568,269.737 1015.856,269.836 1015.94,269.582 1015.65,269.484 1015.367,269.377     1015.128,269.285 1014.879,269.188 1014.651,269.072 1014.454,268.98 1014.254,268.857 1014.058,268.768 1013.864,268.662     1013.685,268.562 1013.515,268.467 1013.339,268.352 1013.17,268.256 1012.997,268.172 1012.823,268.088 1012.667,267.994     1012.495,267.91 1012.307,267.834 1012.129,267.762 1011.937,267.698 1011.733,267.629 1011.52,267.586 1011.304,267.553     1011.064,267.5 1010.821,267.471 1010.569,267.471 1010.273,267.464 1009.993,267.464 1009.668,267.476 1009.339,267.5     1008.991,267.545 1008.629,267.584 1008.647,267.844   "/>
		<polygon clip-path="url(#SVGID_2_)" fill-rule="evenodd" clip-rule="evenodd" fill="#FFFFFF" points="1004.724,269.586     1004.933,269.441 1005.163,269.305 1005.397,269.17 1005.634,269.021 1005.852,268.892 1006.096,268.76 1006.325,268.635     1006.562,268.527 1006.815,268.412 1007.067,268.293 1007.315,268.189 1007.572,268.102 1007.852,268.034 1008.104,267.958     1008.38,267.891 1008.649,267.844 1008.629,267.584 1008.329,267.645 1008.044,267.697 1007.763,267.775 1007.497,267.85     1007.232,267.961 1006.959,268.059 1006.712,268.162 1006.458,268.279 1006.201,268.406 1005.955,268.539 1005.727,268.662     1005.493,268.799 1005.26,268.936 1005.028,269.072 1004.808,269.213 1004.587,269.354 1004.71,269.582   "/>
		<polygon clip-path="url(#SVGID_2_)" fill-rule="evenodd" clip-rule="evenodd" fill="#FFFFFF" points="1004.675,270.133     1004.811,270.242 1004.771,270.123 1004.747,269.994 1004.715,269.891 1004.687,269.774 1004.671,269.701 1004.657,269.658     1004.679,269.597 1004.71,269.582 1004.585,269.354 1004.471,269.46 1004.409,269.602 1004.394,269.73 1004.435,269.85     1004.462,269.967 1004.495,270.072 1004.526,270.175 1004.546,270.276 1004.671,270.383 1004.546,270.276 1004.55,270.383     1004.671,270.383   "/>
		<polygon clip-path="url(#SVGID_2_)" fill="#FFFFFF" points="1014.53,271.08 1014.526,271.093 1014.524,271.09   "/>
		<polygon clip-path="url(#SVGID_2_)" fill="#FFFFFF" points="1014.47,271.14 1014.524,271.09 1014.495,271.227   "/>
		<polygon clip-path="url(#SVGID_2_)" fill="#FFFFFF" points="1018.062,272.672 1022.461,274.141 1021.985,274.169 1021.982,274.18     1018.159,272.906   "/>
		<path clip-path="url(#SVGID_2_)" fill="#FFFFFF" d="M1004.671,270.383l5.588-0.182l0.117,0.012l0.107,0.037l0.146,0.049    l0.13,0.044l0.121,0.08l0.087,0.057l0.054,0.085l0.04,0.039l2.223,6.696l0.033,0.103l0.107-0.003l0.113-0.015l0.128,0.015    l0.157,0.013l0.147-0.003l0.146,0.007l0.131-0.035l0.149-0.043l0.12-0.082l0.145-0.154l0.121-0.16l0.112-0.135l0.112-0.135    l0.098-0.131l0.092-0.116l0.078-0.12l0.098-0.128l0.08-0.12l0.092-0.115l0.093-0.119l0.101-0.1l0.105-0.111l0.119-0.12    l0.121-0.122l0.152-0.135l-0.082-0.102l0.121-0.1l0.139-0.088l0.156-0.068l0.145-0.072l0.156-0.068l0.177-0.049l0.181-0.061    l0.176-0.045l0.169-0.027l0.185-0.031l0.197-0.027l0.185-0.031l0.191-0.018l0.194-0.016l0.181-0.021l0.177-0.007l3.1-0.225    l-3.819-1.273l-0.101-0.234l4.399,1.469l20.548-1.533l0.382-0.061l0.286-0.133l0.197-0.188l0.07-0.219v-0.239l0.005-0.012    l-0.068-0.278l-0.136-0.273l-0.198-0.293l-0.116-0.131l-0.128-0.137l-0.141-0.14l-0.147-0.118l-0.157-0.133l-0.175-0.111    l-0.188-0.117l-0.189-0.117l-0.202-0.08l-0.197-0.092l-0.216-0.074l-0.23-0.072l-0.215-0.034l-0.225-0.048l-0.234-0.023    l-0.227,0.002l-3.104,0.115l-18.223,0.624h-0.201l-0.188,0.003l-0.215-0.003l-0.203-0.026l-0.209-0.018l-0.207-0.017l-0.206-0.028    l-0.218-0.033l-0.217-0.031l-0.213-0.045l-0.212-0.045l-0.212-0.045l-0.221-0.057l-0.209-0.059l-0.198-0.053l-0.204-0.066    l-0.289-0.099l-0.284-0.108l-0.25-0.094l-0.247-0.098l-0.219-0.111l-0.208-0.096l-0.217-0.115l-0.196-0.092l-0.189-0.116    l-0.169-0.097l-0.181-0.1l-0.166-0.096l-0.183-0.1l-0.167-0.098l-0.162-0.08l-0.17-0.098l-0.17-0.084l-0.18-0.072l-0.168-0.057    l-0.191-0.063l-0.205-0.069l-0.195-0.053l-0.218-0.03l-0.229-0.037l-0.234-0.024l-0.26-0.02l-0.278-0.014l-0.282,0.014    l-0.298,0.006l-0.333,0.037l-0.346,0.032l-0.377,0.048l-0.281,0.041l-0.277,0.068l-0.277,0.065l-0.258,0.089l-0.271,0.099    l-0.26,0.098l-0.249,0.106l-0.255,0.115l-0.24,0.119l-0.244,0.135l3.898,1.301l-5.248,0.176L1004.671,270.383z M1040.409,270.496    l0.023-0.154l0.053-0.116l0.096-0.088l0.144-0.073l0.17-0.022l0.092,0.003l0.105,0.008l0.099,0.02l0.102,0.021l0.121,0.041    l0.108,0.037l0.115,0.049l0.126,0.07l0.104,0.047l0.108,0.078l0.096,0.07l0.105,0.09l0.107,0.075l0.076,0.093l0.093,0.084    l0.077,0.092l0.14,0.182l0.071,0.185l0.036,0.093l0.021,0.06l-0.012,0.157l-0.029,0.123l-0.089,0.104l-0.127,0.066l-0.173,0.033    l-0.098,0.01l-0.098-0.021l-0.117-0.01l-0.125-0.027l-0.108-0.037l-0.12-0.041l-0.128-0.055l-0.114-0.064l-0.115-0.053    l-0.126-0.068l-0.108-0.076l-0.104-0.088l-0.096-0.072l-0.101-0.102l-0.088-0.095l-0.077-0.095l-0.122-0.189l-0.073-0.184    l-0.021-0.059L1040.409,270.496z M1018.196,273.332L1018.196,273.332l-0.086-0.068L1018.196,273.332z M1014.776,271.21    l0.141-0.142l1.834-0.105l0.389,0.201l0.92,2.165l-0.143,0.183l-1.969,0.141l0.086,0.018l-0.065,0.105l-0.011,0.002l-0.438-0.254    l-0.002-0.004l0.115-0.053L1014.776,271.21z"/>
		<polygon clip-path="url(#SVGID_2_)" fill-rule="evenodd" clip-rule="evenodd" fill="#010101" points="1039.167,271.887     1039.056,271.822 1039.034,271.723 1039.196,271.682 1039.229,271.787 1039.132,271.713   "/>
		<polygon clip-path="url(#SVGID_2_)" fill-rule="evenodd" clip-rule="evenodd" fill="#010101" points="1039.386,271.758     1039.361,271.791 1039.32,271.832 1039.271,271.854 1039.225,271.878 1039.167,271.887 1039.133,271.715 1039.155,271.723     1039.191,271.695 1039.235,271.682 1039.241,271.671 1039.232,271.695 1039.381,271.771   "/>
		<polygon clip-path="url(#SVGID_2_)" fill-rule="evenodd" clip-rule="evenodd" fill="#010101" points="1038.931,270.752     1038.943,270.754 1039.021,270.848 1039.12,270.947 1039.216,271.059 1039.308,271.186 1039.384,271.318 1039.428,271.467     1039.429,271.625 1039.381,271.771 1039.232,271.695 1039.263,271.596 1039.257,271.503 1039.229,271.385 1039.155,271.281     1039.076,271.162 1038.989,271.063 1038.886,270.963 1038.811,270.871 1038.822,270.874   "/>
		<polygon clip-path="url(#SVGID_2_)" fill-rule="evenodd" clip-rule="evenodd" fill="#010101" points="1037.454,270.325     1037.441,270.32 1037.654,270.325 1037.855,270.325 1038.044,270.359 1038.225,270.381 1038.409,270.428 1038.581,270.514     1038.762,270.613 1038.931,270.752 1038.822,270.874 1038.658,270.767 1038.501,270.674 1038.354,270.6 1038.192,270.557     1038.015,270.525 1037.836,270.505 1037.65,270.498 1037.461,270.5 1037.468,270.49 1037.437,270.332   "/>
		<polygon clip-path="url(#SVGID_2_)" fill-rule="evenodd" clip-rule="evenodd" fill="#010101" points="1021.79,271.147     1021.856,271.102 1037.438,270.332 1037.466,270.49 1021.881,271.271 1021.949,271.227   "/>
		<polygon clip-path="url(#SVGID_2_)" fill-rule="evenodd" clip-rule="evenodd" fill="#010101" points="1021.419,271.691     1021.249,271.635 1021.263,271.52 1021.294,271.422 1021.343,271.318 1021.407,271.246 1021.491,271.193 1021.599,271.15     1021.72,271.109 1021.856,271.102 1021.881,271.271 1021.753,271.293 1021.636,271.322 1021.579,271.33 1021.522,271.379     1021.496,271.422 1021.451,271.477 1021.427,271.548 1021.433,271.654 1021.263,271.599   "/>
		<polygon clip-path="url(#SVGID_2_)" fill="#010101" points="1039.068,271.625 1039.024,271.557 1038.968,271.483     1038.923,271.418 1038.862,271.355 1038.806,271.284 1038.745,271.225 1038.69,271.152 1038.529,271.032 1038.365,270.924     1038.199,270.854 1038.028,270.811 1037.848,270.789 1037.658,270.754 1037.474,270.746 1037.272,270.746 1021.688,271.527     1021.816,271.284 1021.866,271.277 1021.881,271.271 1037.466,270.49 1037.727,270.51 1037.944,270.5 1038.148,270.53     1038.336,270.566 1038.511,270.65 1038.664,270.742 1038.812,270.871 1038.975,271.059 1039.12,271.229 1039.225,271.397     1039.275,271.52 1039.275,271.602 1039.241,271.671 1039.141,271.731 1039.127,271.734 1039.12,271.709   "/>
		<path clip-path="url(#SVGID_2_)" fill="#010101" d="M1021.251,271.635l0.014,0.152l0.034,0.105l0.044,0.146l0.104,0.17    l0.127,0.137l0.165,0.148l0.198,0.133l0.22,0.1l0.231,0.064l0.282,0.001l16.011-0.812l0.305-0.033l0.217-0.046l0.158-0.109    l0.086-0.145l-0.003-0.149l-0.061-0.179l-0.114-0.174l-0.162-0.203l-0.164-0.188l-0.178-0.153l-0.188-0.114l-0.185-0.088    l-0.201-0.041l-0.241-0.039h-0.241l-0.273,0.014l-15.58,0.77v0.004l-0.164,0.009l-0.17,0.063l-0.109,0.096l-0.078,0.109    l-0.052,0.115L1021.251,271.635z M1021.432,271.654l0.019-0.1l0.008-0.016l0.012-0.004h0.082l0.137-0.008l0.129-0.243l0.049-0.007    l0.015-0.007l15.587-0.78l0.259,0.02l0.218-0.01l0.204,0.03l0.188,0.036l0.175,0.084l0.155,0.092l0.145,0.129l0.166,0.188    l0.144,0.17l0.104,0.169l0.051,0.122v0.082l-0.034,0.069l-0.102,0.061l-0.013,0.003l-0.176,0.039l-0.265,0.031l-16.016,0.826    l-0.012-0.004l-0.225-0.008l-0.221-0.061l-0.197-0.094l-0.168-0.096l-0.141-0.14l-0.1-0.142l-0.088-0.137l-0.07-0.115    l-0.011-0.085L1021.432,271.654z"/>
	</g>
	<rect x="1142.524" y="216.912" fill="#F9A61C" width="27" height="23.387"/>
</g>
<g id="fold">
	<line fill="none" stroke="#00A651" stroke-miterlimit="10" x1="297.287" y1="0" x2="297.287" y2="342.062"/>
	<line fill="none" stroke="#00A651" stroke-miterlimit="10" x1="873.281" y1="0" x2="873.281" y2="342.562"/>
</g>
</g></svg>