<svg xmlns="http://www.w3.org/2000/svg" viewBox="0 0 1575 2325" width="1575" height="2325"><g transform="translate(12.5, 0) scale(4.305555555555555)"><defs><style>.cls-1{letter-spacing:.01em;}.cls-2{letter-spacing:.05em;}.cls-3{stroke-dasharray:0 0 0 0 5.04 5.03 .01 0;}.cls-3,.cls-4,.cls-5,.cls-6,.cls-7,.cls-8{stroke:#00adee;}.cls-3,.cls-4,.cls-5,.cls-6,.cls-7,.cls-8,.cls-9,.cls-10,.cls-11,.cls-12{fill:none;}.cls-3,.cls-4,.cls-5,.cls-6,.cls-8{stroke-linejoin:round;}.cls-13{letter-spacing:.05em;}.cls-14{letter-spacing:.05em;}.cls-4{stroke-dasharray:0 0 .01 0;}.cls-15{letter-spacing:0em;}.cls-16{letter-spacing:0em;}.cls-6{stroke-dasharray:0 0 .01 0;}.cls-17{letter-spacing:.05em;}.cls-18,.cls-19{fill:#fff;}.cls-20,.cls-21{fill:red;}.cls-22{fill:#d1d2d2;}.cls-23{fill:#4e494b;}.cls-24{letter-spacing:.33em;}.cls-25{fill:#00adee;}.cls-25,.cls-26,.cls-27,.cls-21,.cls-28{font-size:9.99px;}.cls-25,.cls-26,.cls-27,.cls-21,.cls-29{font-family:Arial-BoldMT, Arial;font-weight:700;}.cls-30{letter-spacing:0em;}.cls-31{letter-spacing:0em;}.cls-26{fill:#919395;}.cls-27,.cls-32{fill:#f0f;}.cls-7{stroke-dasharray:0 0 0 0 3 3 0 0;}.cls-33{letter-spacing:.25em;}.cls-34{letter-spacing:-.04em;}.cls-35{letter-spacing:-.04em;}.cls-8{stroke-dasharray:0 0 0 0 5.06 5.05 .01 0;}.cls-36{letter-spacing:-.02em;}.cls-37{letter-spacing:0em;}.cls-9{stroke:#f0f;}.cls-9,.cls-10{stroke-miterlimit:10;}.cls-10{stroke:#ec1e24;}.cls-38,.cls-39{opacity:.5;}.cls-28{font-family:Arial-Black, 'Arial Black';font-weight:800;}.cls-28,.cls-29{fill:#221f1f;}.cls-40{letter-spacing:.24em;}.cls-41{fill:#b6d233;}.cls-41,.cls-19,.cls-42{fill-rule:evenodd;}.cls-29{font-size:8.16px;}.cls-11{stroke:#919395;}.cls-12{stroke:red;}.cls-43{letter-spacing:.28em;}.cls-44{letter-spacing:.28em;}.cls-45{letter-spacing:.28em;}.cls-46{letter-spacing:.28em;}.cls-39{fill:#929497;}.cls-47{letter-spacing:.28em;}.cls-48{letter-spacing:.28em;}.cls-49{letter-spacing:.28em;}.cls-32{opacity:.25;}.cls-50{letter-spacing:.28em;}.cls-51{letter-spacing:.28em;}</style></defs><g id="Bleed_Zone"><path class="cls-38" d="m0,0v558h378V0H0Zm369,549.55H9V8.45h360v541.09Z"/></g><g id="Gutter_Zone"><rect class="cls-32" x="9" y="9" width="28.35" height="540.17"/><path class="cls-39" d="m28.84,27c0,3.13-2.54,5.67-5.67,5.67s-5.67-2.54-5.67-5.67,2.54-5.67,5.67-5.67,5.67,2.54,5.67,5.67"/><path class="cls-39" d="m28.84,45c0,3.13-2.54,5.67-5.67,5.67s-5.67-2.54-5.67-5.67,2.54-5.67,5.67-5.67,5.67,2.54,5.67,5.67"/><path class="cls-39" d="m28.84,63c0,3.13-2.54,5.67-5.67,5.67s-5.67-2.54-5.67-5.67,2.54-5.67,5.67-5.67,5.67,2.54,5.67,5.67"/><path class="cls-39" d="m28.84,81c0,3.13-2.54,5.67-5.67,5.67s-5.67-2.54-5.67-5.67,2.54-5.67,5.67-5.67,5.67,2.54,5.67,5.67"/><path class="cls-39" d="m28.84,99c0,3.13-2.54,5.67-5.67,5.67s-5.67-2.54-5.67-5.67,2.54-5.67,5.67-5.67,5.67,2.54,5.67,5.67"/><path class="cls-39" d="m28.84,117c0,3.13-2.54,5.67-5.67,5.67s-5.67-2.54-5.67-5.67,2.54-5.67,5.67-5.67,5.67,2.54,5.67,5.67"/><path class="cls-39" d="m28.84,135c0,3.13-2.54,5.67-5.67,5.67s-5.67-2.54-5.67-5.67,2.54-5.67,5.67-5.67,5.67,2.54,5.67,5.67"/><path class="cls-39" d="m28.84,153c0,3.13-2.54,5.67-5.67,5.67s-5.67-2.54-5.67-5.67,2.54-5.67,5.67-5.67,5.67,2.54,5.67,5.67"/><path class="cls-39" d="m28.84,171c0,3.13-2.54,5.67-5.67,5.67s-5.67-2.54-5.67-5.67,2.54-5.67,5.67-5.67,5.67,2.54,5.67,5.67"/><path class="cls-39" d="m28.84,189c0,3.13-2.54,5.67-5.67,5.67s-5.67-2.54-5.67-5.67,2.54-5.67,5.67-5.67,5.67,2.54,5.67,5.67"/><path class="cls-39" d="m28.84,207c0,3.13-2.54,5.67-5.67,5.67s-5.67-2.54-5.67-5.67,2.54-5.67,5.67-5.67,5.67,2.54,5.67,5.67"/><path class="cls-39" d="m28.84,225c0,3.13-2.54,5.67-5.67,5.67s-5.67-2.54-5.67-5.67,2.54-5.67,5.67-5.67,5.67,2.54,5.67,5.67"/><path class="cls-39" d="m28.84,243c0,3.13-2.54,5.67-5.67,5.67s-5.67-2.54-5.67-5.67,2.54-5.67,5.67-5.67,5.67,2.54,5.67,5.67"/><path class="cls-39" d="m28.84,261c0,3.13-2.54,5.67-5.67,5.67s-5.67-2.54-5.67-5.67,2.54-5.67,5.67-5.67,5.67,2.54,5.67,5.67"/><path class="cls-39" d="m28.84,279c0,3.13-2.54,5.67-5.67,5.67s-5.67-2.54-5.67-5.67,2.54-5.67,5.67-5.67,5.67,2.54,5.67,5.67"/><path class="cls-39" d="m28.84,297c0,3.13-2.54,5.67-5.67,5.67s-5.67-2.54-5.67-5.67,2.54-5.67,5.67-5.67,5.67,2.54,5.67,5.67"/><path class="cls-39" d="m28.84,315c0,3.13-2.54,5.67-5.67,5.67s-5.67-2.54-5.67-5.67,2.54-5.67,5.67-5.67,5.67,2.54,5.67,5.67"/><path class="cls-39" d="m28.84,333c0,3.13-2.54,5.67-5.67,5.67s-5.67-2.54-5.67-5.67,2.54-5.67,5.67-5.67,5.67,2.54,5.67,5.67"/><path class="cls-39" d="m28.84,351c0,3.13-2.54,5.67-5.67,5.67s-5.67-2.54-5.67-5.67,2.54-5.67,5.67-5.67,5.67,2.54,5.67,5.67"/><path class="cls-39" d="m28.84,369c0,3.13-2.54,5.67-5.67,5.67s-5.67-2.54-5.67-5.67,2.54-5.67,5.67-5.67,5.67,2.54,5.67,5.67"/><path class="cls-39" d="m28.84,387c0,3.13-2.54,5.67-5.67,5.67s-5.67-2.54-5.67-5.67,2.54-5.67,5.67-5.67,5.67,2.54,5.67,5.67"/><path class="cls-39" d="m28.84,405c0,3.13-2.54,5.67-5.67,5.67s-5.67-2.54-5.67-5.67,2.54-5.67,5.67-5.67,5.67,2.54,5.67,5.67"/><path class="cls-39" d="m28.84,423c0,3.13-2.54,5.67-5.67,5.67s-5.67-2.54-5.67-5.67,2.54-5.67,5.67-5.67,5.67,2.54,5.67,5.67"/><path class="cls-39" d="m28.84,441c0,3.13-2.54,5.67-5.67,5.67s-5.67-2.54-5.67-5.67,2.54-5.67,5.67-5.67,5.67,2.54,5.67,5.67"/><path class="cls-39" d="m28.84,459c0,3.13-2.54,5.67-5.67,5.67s-5.67-2.54-5.67-5.67,2.54-5.67,5.67-5.67,5.67,2.54,5.67,5.67"/><path class="cls-39" d="m28.84,477c0,3.13-2.54,5.67-5.67,5.67s-5.67-2.54-5.67-5.67,2.54-5.67,5.67-5.67,5.67,2.54,5.67,5.67"/><path class="cls-39" d="m28.84,495c0,3.13-2.54,5.67-5.67,5.67s-5.67-2.54-5.67-5.67,2.54-5.67,5.67-5.67,5.67,2.54,5.67,5.67"/><path class="cls-39" d="m28.84,513c0,3.13-2.54,5.67-5.67,5.67s-5.67-2.54-5.67-5.67,2.54-5.67,5.67-5.67,5.67,2.54,5.67,5.67"/><path class="cls-39" d="m28.84,531c0,3.13-2.54,5.67-5.67,5.67s-5.67-2.54-5.67-5.67,2.54-5.67,5.67-5.67,5.67,2.54,5.67,5.67"/></g><g id="Safe_Zone"><polyline class="cls-5" points="46.35 538.59 46.35 541.09 48.85 541.09"/><line class="cls-4" x1="53.9" y1="541.09" x2="53.91" y2="541.09"/><line class="cls-8" x1="53.91" y1="541.09" x2="357.5" y2="541.09"/><polyline class="cls-5" points="357.5 541.09 360 541.09 360 538.59"/><line class="cls-6" x1="360" y1="533.56" x2="360" y2="533.55"/><line class="cls-3" x1="360" y1="533.55" x2="360" y2="19.41"/><polyline class="cls-5" points="360 19.41 360 16.91 357.5 16.91"/><line class="cls-4" x1="352.45" y1="16.91" x2="352.44" y2="16.91"/><line class="cls-8" x1="352.44" y1="16.91" x2="48.85" y2="16.91"/><polyline class="cls-5" points="48.85 16.91 46.35 16.91 46.35 19.41"/><line class="cls-6" x1="46.35" y1="24.44" x2="46.35" y2="24.45"/><line class="cls-3" x1="46.35" y1="24.45" x2="46.35" y2="538.59"/></g><g id="Cut_Line"><rect class="cls-10" x="9" y="9" width="360" height="540"/></g><g id="Text"><rect class="cls-22" x="55.35" y="382.96" width="133.94" height="148.04"/><path class="cls-42" d="m166.65,434.06c0,23.34-18.92,42.27-42.25,42.27s-42.25-18.92-42.25-42.27,18.92-42.27,42.25-42.27,42.25,18.93,42.25,42.27"/><path class="cls-41" d="m162.84,434.29c0,21.22-17.2,38.42-38.41,38.42s-38.41-17.2-38.41-38.42,17.2-38.42,38.41-38.42,38.41,17.2,38.41,38.42"/><path d="m116.2,425.91c-.53,4.71-.93,8.49-1.19,11.35l-1.75.08c.03-.09.04-.2.04-.32,0-.21-.07-.5-.24-.85-.16-.35-.25-.57-.28-.66-.45.06-.89.38-1.3.94-.41.56-.79.85-1.12.84-.19,0-.4-.06-.64-.16-.31.21-.72.3-1.22.26-.45-.08-.89-.15-1.32-.2-.02-.59-.6-1.12-1.76-1.57,0-.24-.11-.59-.36-1.06-.24-.47-.36-.8-.36-.99,0-.22.09-.39.26-.53-.02-.07-.22-.51-.58-1.33-.25-.6-.37-1.11-.37-1.54,0-.33.08-.64.23-.93-.2-2.03-.29-3.77-.27-5.22.04-2.24.36-4.3.96-6.17-.04-.29-.06-.57-.06-.86.02-1.5.54-2.54,1.55-3.12v-.47c1.01-1.27,2.32-2.19,3.95-2.76.97.23,1.95.45,2.92.66,1.09.38,1.84,1.02,2.25,1.93.33.2.49.59.48,1.19-.01.67.06,1.1.23,1.29l-.18.21c.19,1.41.28,2.27.28,2.58-.02.9-.25,1.54-.71,1.92-.17,0-.6-.15-1.31-.45-.17.16-.35.25-.54.24-.09,0-.27-.05-.52-.15-.25-.1-.46-.15-.62-.15-.12,0-.24.02-.36.07-.01-1.88.05-3.29.18-4.21-.19-.12-.38-.4-.57-.83-.2-.43-.45-.68-.76-.73-.19.24-.28.39-.26.46l-.64-.23c-.58.63-.97,1.73-1.16,3.3-.2,1.81-.44,3.01-.74,3.6.26.27.38.64.37,1.11,0,.17-.03.44-.09.82-.06.38-.08.67-.08.86,0,.21.02.4.06.57l-.44.42c.18.81.28,1.84.3,3.08-.02,1.05-.02,2.1-.02,3.14-.03,0-.23,0-.61.03-.24,0-.41.08-.51.24.14-.02.28-.03.39-.03.52,0,.93.38,1.23,1.11.3.73.55,1.1.77,1.1.24,0,.56-.22.98-.66.7-.75,1.07-1.78,1.09-3.09.01-.64-.06-1.33-.22-2.08-.17.09-.25.33-.26.71-.38,0-.62.07-.72.24-.17-.05-.24-.18-.21-.4.03-.31.04-.47.05-.5.29-.09.43-.22.43-.39,0-.07-.05-.2-.15-.4-.1-.19-.15-.35-.15-.47,0-.09.02-.19.07-.28l.17-1.39c.52.15,1.65.22,3.39.2-.05.12.02.28.21.47.17-.17.35-.25.54-.24.14,0,.36.07.64.19.28.12.49.19.6.19"/><path d="m129.54,438.23c-.33-.15-.69-.23-1.07-.23-.33,0-.79.06-1.36.19-.64.13-1.09.21-1.33.23-.25-.51-.43-1.2-.54-2.08-.19-1.29-.31-2.02-.36-2.19.07-.14.11-.26.11-.36,0-.26-.2-.5-.61-.71-.42-.21-.62-.37-.62-.49,0-.14.24-.35.73-.63-.12-.14-.2-.44-.26-.88-.05-.44-.16-.74-.32-.88-.29.26-.76.42-1.42.49-.66.07-1.09.18-1.31.32.02,1.86-.29,3.1-.92,3.74-.33-.08-.59.05-.76.38-.25.4-.45.64-.62.7l.21.25c-.19.16-.5.23-.93.2-.67-.04-1.02-.05-1.07-.05l-.2-.65,2.33-19.3c.02-1.21.08-2.04.19-2.46-.03-1.07.22-1.74.75-1.99.33.22.75.33,1.25.34.4,0,1.04-.08,1.9-.26.86-.17,1.46-.26,1.79-.25,1.17.02,1.68.86,1.53,2.53-.12,1.33.09,3.09.63,5.27.55,2.34.82,4.1.8,5.27,0,.36.11,1.1.08,1.45-.51.28-1.15.44-1.94.5-.69.04-1.39.07-2.11.11-.18-1.81-.5-4-.69-5.79-.23-2.15-.51-3.92-.84-5.31l-1.1,10.2c-.08.88.31,1.33,1.19,1.34.29,0,.56-.06.82-.2.22-.07.51.09.89.48-.01.74.13,1.18.44,1.33.39-.26.89-.5,1.51-.73.55-.2,1.09-.4,1.62-.58.3.41.5,1.02.58,1.83.1,1.14.17,1.81.22,2,.04.45.23,1.44.56,2.94.24,1.2.36,2.16.34,2.9,0,.36-.04.69-.09,1"/><path d="m145.99,421.2c-.03.07-.03.49-.02,1.25,0,.62-.09,1.08-.24,1.39-.18.47-.27,1.15-.28,2.03,0,.19,0,.49.02.89,0,.41-.01.7-.02.89-.03,1.5-.28,2.59-.77,3.27.04.38.06.76.05,1.15-.02,1.19-.43,2.79-1.22,4.8-.22.07-.4.1-.54.1-.29,0-.49-.17-.62-.49-.13-.33-.25-.63-.36-.92.08-1.83.04-4.5-.12-8.01l.22-.21c-.16-.62-.23-1.31-.22-2.08,0-.55.08-1.35.2-2.39.12-1.05.19-1.83.2-2.36,0-.33,0-.66-.02-.97-.82,1.96-1.4,5.29-1.74,9.98l-.3.71c-.1.24-.3.36-.61.38-.09-.17-.19-.25-.28-.25-.07,0-.2.09-.38.26-.18.17-.33.25-.45.22l-.47.42c.21.27.66.3,1.36.1.55-.16.83.05.85.62.01.48-.12,1.12-.39,1.92-.27.8-.42,1.41-.42,1.82,0,.29.03.57.09.86l-2.47.39c-.23-.48-.4-1.29-.51-2.42-.11-1.13-.28-1.94-.51-2.42.15-.16.22-.34.22-.53,0-.17-.06-.42-.2-.75-.14-.34-.22-.59-.24-.75-.02-.26-.1-.9-.25-1.9-.1-.81-.16-1.45-.15-1.9,0-.24.02-.45.05-.64,0-.17-.09-.41-.27-.74-.18-.33-.28-.56-.27-.7,0-.12.05-.22.15-.32-.16-.2-.23-.53-.2-1.01.03-.48-.03-.81-.2-1-.35.92-.54,2.17-.56,3.74-.01,2.19-.04,3.46-.06,3.79l.25.22-.25.21c.18.86.25,1.96.23,3.29-.07,2.4-.1,3.53-.09,3.36-.34.3-.81.45-1.4.44-.74-.01-1.24.05-1.5.19-.3-.53-.45-1.21-.43-2.04,0-.64.12-1.43.33-2.35-.32-.6-.48-1.44-.46-2.51,0-.26.03-.76.09-1.5.03-.59.04-1.03.03-1.32.24-.12.36-.24.36-.39,0-.1-.07-.26-.22-.49-.15-.23-.23-.4-.22-.52,0-.14.1-.29.29-.42l-.77-11.56c.46-.3,1.2-.45,2.22-.43,1.12.04,1.88-.01,2.29-.17.07-.05.16-.07.25-.07.09,0,.21.06.34.17.13.11.22.17.26.17.09,0,.18-.07.25-.21l.67.65c.22.84.43,2.46.63,4.87.2,2.08.52,3.64.96,4.7.58-2.11,1.07-3.88,1.45-5.3l.77-5.66,5.54-.12c.02.31.09,1.97.24,2.92.13.84.19,1.52.18,2.04,0,.6-.1,1.13-.28,1.6.19.27.28.6.27,1.01,0,.41-.11.74-.3,1"/><path d="m157.35,433.73v-.04c-.15.31-.24.67-.27,1.07-.03.26-.03.63-.02,1.11.02.55.02.93.02,1.14-.19,0-.95-.02-2.29-.04-.81-.01-1.54.06-2.18.21l-.67-.73c-.2.19-.27.34-.22.46-.12-.03-.67-.04-1.64-.03-.76-.01-1.33-.09-1.71-.24-.39.4-.84.39-1.36-.02-.19-.15-.21-.39-.06-.74.15-.34.1-.6-.13-.77.04-.76.14-1.94.31-3.54.17-1.43.26-2.54.27-3.36.02-1.09-.06-2.14-.23-3.15.27-.26.57-.38.9-.38.38,0,.83.19,1.35.56.73.51,1.11.77,1.13.77l.21.25c.02-.07.15-.45.38-1.14.13-.45.31-.75.55-.89l.21.22c.1-.05.41-.27.94-.66.41-.28.74-.94.98-.94.26,0,.51.15.74.44.4.22.65,1.08.78,1.52.12.44.24.88.35,1.31-1.07.03-1.95,0-2.64-.08-.17.26-.41.3-.72.11-.31-.18-.53-.16-.68.08,0,.43-.02,1.2-.04,2.32-.04,1-.06,1.79-.04,2.36,0,.88.07,1.69.17,2.43.19,0,1.09.02,2.71.05,1.12.02,2.08.12,2.89.3m.08-17.12c-.21.02-.45.03-.71.02-.55,0-1.27-.09-2.17-.25-1.12-.16-1.8-.26-2.03-.28-.34.49-.52,1.2-.54,2.1-.03,1.95-.03,2.8,0,2.54.33.2.49.56.48,1.08-.04.71-.04,1.08-.02,1.11-.17.07-.25.31-.26.71-.26-.1-.53-.3-.81-.59-.38-.36-.58.87-.55.56l-.23.73-.21-.22c-.19.02-.52-.08-.98-.3-.46-.22-.79-.43-.97-.63,0-.38.07-.59.19-.64l-.46-.51-.22.32c-.27-2.48-.2-7.13.13-9.74.91.16,1.9.26,3,.3.74.04,1.77.05,3.11.05,1.53,0,2.62,0,3.29.02.28.27.42.62.41,1.04,0,.26-.08.68-.22,1.27-.14.58-.21,1.01-.22,1.3"/><path d="m117.28,455.34v-.02s-.06.53-.19,1.57c-.06.64-.21,1.14-.46,1.51l-.16-.13c-.29.61-.68.97-1.18,1.11-.24.25-.58.39-1.03.42-.27.02-.88-.06-1.85-.23-.47-.29-.72-.45-.77-.48-.29-.22-.43-.44-.42-.67-.28-.29-.68-.81-.83-1.46-.18-.72-.29-.76-.46-1.01-.27.2-.37-.22-.52-.48l.14-.11c-.09-.06-.13-.13-.14-.21,0-.06.02-.14.07-.25.05-.11.07-.19.07-.25,0-.09-.06-.17-.16-.23.11-.56.21-1.41.3-2.53.19-.1.28-.3.27-.6,0-.29.03-.49.12-.58.46-.91,1.19-1.53,2.22-1.85.06,0,.33,0,.82-.01.34,0,.59.02.76.09.31-.05.61.02.92.22.27.2.53.4.8.6.5.54.76,1.15.8,1.83.01.23,0,.46-.04.72-.37-.01-.63.23-.78.73l-1.43.13c-.15-.22-.24-.51-.26-.87,0-.12,0-.3,0-.54,0-.24,0-.42,0-.54-.02-.37-.11-.67-.26-.88l-.43.24c-.17-.07-.26-.17-.27-.31,0-.04,0-.11.02-.2.02-.09.02-.15.02-.18,0-.15-.14-.24-.4-.27-.17,1.61-.23,3.26-.16,4.96.04.06.18.09.41.11.18.02.28.08.28.17,0,.03,0,.08-.03.14l-.14.11c.08.12.12.29.14.5,0,.11,0,.29-.01.52-.01.23-.02.41-.01.52.02.34.1.6.26.77-.02.25.09.42.3.51.14-.05.26-.08.38-.09.43-.02.74.21.91.71,0,0,0,.09,0,.25,0,.09.05.15.14.18.19-.11.28-.32.28-.61,0-.34.04-.56.13-.65-.02-.16-.12-.38-.28-.68-.17-.3-.25-.53-.26-.7,0-.18.04-.35.16-.52-.1-.03-.15-.09-.14-.2,0-.16,0-.25,0-.26.78-.19,1.56-.2,2.37-.02"/><path d="m123.74,456.66h-.02c-.08.16-.11.4-.08.7.04.43.06.65.06.66-.07.03-.15,0-.26-.1-.17.06-.24.17-.24.31,0,.02.01.06.03.11,0,.06,0,.1,0,.12,0,.12-.03.2-.1.26-.19-.11-.44-.17-.75-.2-.31-.03-.6-.06-.88-.08,0-1.43-.2-2.84-.58-4.21,0,.01,0-.13-.03-.43,0-.21-.05-.36-.14-.45l-.13.12s.04-.06.13-.13c.09-.06.13-.13.13-.19,0-.03-.01-.06-.03-.09l-.14-.1c-.24.08-.36.27-.34.59.01.21-.07.36-.25.44.07.05.1.11.11.18,0,.04,0,.1-.02.17-.01.08-.02.13-.02.18,0,.09.06.17.15.23,0,.06.04.63.1,1.7.04.68.02,1.26-.05,1.74v.27c-.08,0-.18,0-.3,0-.13,0-.32.03-.57.06-.25.03-.43.05-.55.05-.48.03-.82-.05-1.02-.24l-.2-5.89c-.1-.29-.16-.69-.19-1.21l-.06-1.13c-.05-.56-.12-.99-.21-1.28.04-.2.22-.31.53-.33.2-.01.46.01.79.08.15-.07.37-.12.64-.13.08,0,.2,0,.37,0,.18-.01.32-.02.39-.02.51-.03.85-.19,1.02-.47.24,0,.49.07.77.23.28.15.52.23.73.24.55.33.85.87.9,1.62,0,.17-.06.84-.2,2l-.95.83c.16.3.36.94.59,1.94.19.83.48,1.44.87,1.83m-1.76-6.7h.02c.02.09,0-.17-.02-.76-.02-.28-.12-.49-.31-.61-.11.15.01.23-.04.58-.05.36-.26.25-.39.41-.33,0-.4.19-.47-.12-.15-.51-.27-.46-.27-.47l-.14.08c-.05.05-.11.1-.17.15-.06.06-.13.08-.19.06,0,.06-.03.16-.09.3-.07.14-.1.23-.09.28,0,.1.08.16.23.21-.03.21-.03.43-.02.67,0,.13.04.42.09.86.06.36.08.66.07.91.12,0,.23,0,.34,0,.46-.03.75-.21.89-.54.05-.1.1-.45.16-1.05.05-.46.19-.78.42-.96"/><path d="m131.16,458.95c-.19-.05-.38-.07-.59-.06-.18.01-.43.06-.74.14-.35.08-.59.13-.72.15-.16-.21-.28-.51-.37-.9-.15-.56-.24-.88-.27-.95.03-.06.05-.12.05-.16,0-.11-.13-.21-.36-.29-.23-.08-.35-.14-.35-.19,0-.06.12-.16.37-.31-.07-.06-.13-.18-.17-.38-.05-.19-.11-.32-.21-.38-.15.13-.4.22-.76.27-.36.06-.59.12-.71.19.08.82,0,2.25-.32,2.56-.19-.02-.32.04-.4.2-.12.19-.23.3-.31.34l.12.1c-.1.08-.27.12-.5.12-.37.01-.56.02-.59.02l-.13-.28.55-9.47c-.03-.54-.02-.9.02-1.09-.06-.47.06-.77.34-.91.19.09.42.12.69.1.22-.02.57-.07,1.03-.19.46-.11.79-.17.97-.18.64-.04.95.31.93,1.05-.02.59.16,1.36.53,2.3.38,1.01.59,1.77.62,2.29,0,.16.22.49.21.65-.27.14-.62.24-1.04.3-.38.04-.76.09-1.15.13-.16-.79-.54-1.76-.7-2.54-.2-.94-.41-1.7-.64-2.3l-.25,4.54c-.02.39.22.57.7.54.16,0,.31-.05.45-.12.12-.04.28.02.5.18.02.33.11.52.29.57.2-.13.47-.25.8-.38.29-.11.58-.22.87-.32.18.17.31.43.38.79.09.5.16.79.19.87.04.2.17.62.41,1.27.18.52.27.94.29,1.26,0,.16,0,.31-.01.44"/><path d="m136.57,448.21h.02c-.16.23-.36.27-.6.13-.05,0-.29,0-.7.04-.35.02-.61,0-.77-.05-.04,0-.12.04-.23.12-.11.08-.2.11-.25.12-.08,0-.12-.06-.13-.2,0-.02,0-.11-.01-.27,0-.11-.06-.18-.15-.21l-.24.19c-.08.06-.11.12-.11.18,0,.05.05.13.13.22.08.1.13.17.15.21,0,.03.03.51.08,1.42.02.58.13,1.04.32,1.39.05-.06.17-.08.36-.09.19,0,.31-.05.37-.13.12.11.33.12.62.02.29-.09.5-.06.63.1l-.04,1.39c-.12-.01-.29-.07-.52-.17-.07.2-.2.33-.39.39-.08.03-.3.05-.67.07,0-.06-.05-.13-.17-.2-.36.17-.49.57-.4,1.21,0-.06.02.05.04.33.01.18-.03.31-.11.39-.22.03-.5-.02-.85-.15-.34-.13-.58-.2-.73-.19-.07,0-.12.01-.17.03l-.37.12-.59-6.37-.07-1.21c.49-.17,1.09-.27,1.81-.31.56-.03,1.3-.03,2.2.02.06-.12.17.04.29.03.07,0,.17,0,.3.02.13.02.23.03.3.02.08,0,.15-.02.21-.04l.09-.1c.27.08.41.22.42.42,0,.08-.02.23-.07.43-.05.2-.08.36-.07.46,0,.09.03.18.07.25m-2.29,10.63c-.14.07-.36.11-.64.13-.38.02-.61.04-.68.06-.04-.04-.09,0-.18-.34-.05-.22-.19-.32-.41-.31-.05,0-.12.01-.2.03l-.35.02-.19-3.23c.19-.1.43-.15.72-.17.27-.01.52.01.73.08,0,.12.16.17.5.14l.37-.02c.22.9.36,2.54.33,3.6"/><path d="m144.4,448.49h.02c-.18,0-.77.04-1.23.1-.39.04-.68.05-.88.02-.19.13-.26.3-.2.52l.12.07c-.1.09-.14.16-.11.21l.1.1c-.02,1.87-.03,2.9-.02,3.1.03.49.09.93.17,1.3-.08.24-.11.51-.09.81.01.2.06.52.14.95.08.43.2,1.86.21,2.08,0,.17,0,.33-.01.48-.18.07-.37.12-.58.13-.35.02-.73-.05-1.13-.22-.05.05-.11.09-.17.14-.06.05-.08.11-.05.17-.13.04-.31-.01-.54-.16-.12-1.89-.46-5.75-.96-9.64-.17.16-.5.03-.84.07-.4.05-.8-.02-.95.05-.19-.21-.15-.27-.17-.62-.02-.34-.13-1.17-.04-1.51.02-.07.75-.03,1.18-.07.59-.04.72.1.76.1.05-.08.33-.04.54-.05.13.07.28-.06.29.03,0,.06,0,.46-.04.57-.05.11-.07.2-.07.25,0,.13.1-.06.31.01.24,0,.48-.01.72-.03.28.02.6-.08.57.16.05-.07.08.05.47-.11.29-.13.47-.48.42-.72-.03-.13.15-.21.04-.15.14-.08.01-.02.17-.08.49.04.76,0,.85-.01.2-.01.68.11.82.05.1.18.15.76.16,1.07.02.51.02.77.03.81"/><path d="m150.75,455.07v-.02c-.07.14-.11.3-.11.48,0,.12,0,.28.03.49.03.24.04.41.05.5-.11,0-.52.03-1.25.07-.44.03-.84.09-1.19.18l-.39-.3c-.1.09-.14.16-.11.21-.06,0-.36,0-.9.05-.42.03-.73,0-.95-.04-.2.19-.45.2-.74.04-.11-.06-.13-.16-.06-.32.07-.16.04-.27-.1-.34,0-.34,0-.86.05-1.57.04-.63.05-1.13.03-1.49-.03-.48-.11-.94-.24-1.38.14-.12.3-.19.48-.2.21-.01.46.05.76.19.42.2.63.3.64.3l.12.1s.07-.2.17-.52c.05-.2.14-.34.27-.41l.12.09c.05-.02.22-.13.49-.33.21-.14.36-.65.49-.66.14,0,.29.05.42.16.23.08.41.66.49.85.08.19.16.38.24.56-.59.06-1.07.08-1.45.07-.08.12-.22.15-.39.08-.17-.07-.3-.05-.37.06.01.19.03.53.06,1.02.01.44.03.79.06,1.04.04.39.1.74.18,1.07.11,0,.6-.04,1.49-.09.61-.03,1.15-.03,1.59.02m-.61-7.42c-.12.02-.25.03-.39.04-.3.02-.7,0-1.2-.03-.62-.03-.99-.04-1.12-.05-.17.23-.19.42-.17.82.05.86.08,1.23.08,1.12.19.08.29.23.3.46,0,.31.01.48.03.49-.09.04-.13.15-.12.32-.15-.03-.3-.11-.47-.23-.22-.14-.29.37-.28.23l-.1.32-.12-.09c-.1.02-.28-.01-.55-.09-.26-.08-.45-.16-.55-.24,0-.17.02-.26.08-.29l-.27-.21-.11.15c-.23-1.08-.39-2.99-.3-4.16.5.03,1.08-.05,1.68-.08.41-.01.97-.05,1.7-.1.83-.06,1.43-.1,1.8-.12.16.11.25.25.26.44,0,.12-.02.31-.07.57-.06.26-.13.58-.12.71"/><path d="m157.26,453.95h-.02c-.08.16-.11.4-.08.7.04.43.06.65.06.66-.06.02-.15,0-.26-.1-.17.06-.25.17-.24.31,0,.02.01.06.03.11,0,.06,0,.1,0,.12,0,.12-.03.2-.1.26-.19-.11-.44-.17-.75-.2-.31-.03-.6-.06-.88-.09,0-1.43-.2-2.83-.58-4.2,0,0,0-.13-.02-.43,0-.21-.05-.36-.14-.45l-.13.12s.04-.06.13-.13c.09-.06.13-.13.13-.19,0-.03-.01-.06-.02-.09l-.14-.1c-.25.08-.36.28-.34.59.01.21-.07.36-.25.44.07.05.1.11.11.18,0,.04,0,.1-.02.17-.02.07-.02.13-.02.17,0,.1.06.17.15.23,0,.06.04.63.1,1.7.04.68.02,1.27-.06,1.74v.27c-.08,0-.18,0-.3,0-.13,0-.32.03-.57.06-.25.03-.43.05-.55.06-.48.03-.82-.05-1.02-.24l-.2-5.89c-.1-.29-.16-.69-.19-1.21l-.07-1.14c-.05-.56-.12-.98-.21-1.28.04-.2.22-.31.53-.33.2-.01.46.02.79.08.15-.07.36-.12.64-.13.08,0,.2,0,.37,0,.18-.01.31-.02.39-.02.51-.03.85-.19,1.01-.47.24,0,.49.07.77.22.28.15.52.23.73.24.55.33.85.87.9,1.63.01.17-.06.84-.2,2l-.95.83c.16.3.36.94.59,1.94.19.83.48,1.44.87,1.83m-1.77-6.7h.02c.02.09,0-.17-.02-.76-.02-.28-.12-.49-.31-.61-.11.15-.13-.2-.18.15-.05.36-.14.61-.26.77-.33,0-.4-.2-.6-.47-.12-.17-.18-.02-.18-.03l-.09.07s-.11.1-.17.15c-.06.06-.13.08-.19.06,0,.06-.03.16-.09.3-.06.14-.09.23-.09.28,0,.09.08.17.23.21-.03.21-.03.43-.02.67,0,.13.04.41.09.86.06.36.08.66.07.91.12,0,.23,0,.33,0,.46-.03.75-.21.89-.54.05-.1.1-.45.15-1.05.05-.46.19-.78.42-.96"/><path d="m92.32,426.79h0c-.06.56-.08.94-.06,1.15-.08.03-.19.04-.33.01-.17-.03-.27-.04-.3-.04-.08,0-.14.03-.18.08-.11-.07-.18-.1-.22-.09-.1.06-.15.15-.15.26,0,.05.02.13.06.25.03.12.05.21.05.26,0,.08,0,.2-.04.36-.03.16-.05.3-.05.4,0,.12.03.32.08.58.05.26.07.46.08.6-.05.26-.07.52-.06.79.01.32.1.76.27,1.3.03,0,.06.01.09,0,.07,0,.14-.05.24-.14.09-.09.17-.14.24-.14.05,0,.1,0,.16.03.17.55.26.91.27,1.07,0,.08,0,.16,0,.24-.25.06-.44-.02-.54-.26.02-.07-.02-.14-.11-.21l-.29.3c.28.05.39.26.33.64-.02.08-.08.12-.18.12-.16,0-.24,0-.23,0l-.24-.42-.09.12c-.08-.19-.17-.29-.27-.29-.06,0-.16.05-.3.14-.14.09-.26.14-.36.15-.08,0-.15-.01-.23-.06,0-.11-.02-.23-.04-.35-.02-.12-.08-.2-.19-.23,0-.3,0-1.07.03-2.33,0-.95,0-1.73-.03-2.32-.01-.25-.03-.49-.05-.73-.05-.07-.1-.11-.15-.11-.04,0-.09.04-.17.12-.08.08-.14.12-.2.11,0-.1-.05-.25-.13-.46-.08-.21-.13-.36-.13-.46,0-.16.05-.3.18-.42l.33.08c.13-.19.19-.51.17-.95,0-.08-.02-.22-.03-.41-.02-.18-.03-.32-.03-.41-.04-.73.19-1.11.67-1.13.18-.01.4.02.66.1l.32.08c.03.12.04.25.05.38,0,.18,0,.45-.03.8-.02.35-.03.6-.03.76.01.26.06.49.13.69.08,0,.2-.04.36-.12.16-.08.28-.12.36-.13.13,0,.24.06.32.18m-.99,1.02l-.02-.33-.1-.1.12.42Z"/><path d="m96.24,425.77h.01c-.03.26-.07.52-.12.78-.05.3-.14.53-.25.7-.02,0-.14-.06-.35-.17-.15-.08-.28-.11-.39-.1-.09.56-.13,1.32-.14,2.28,0,1.23-.02,1.97-.03,2.23-.14-.01-.25.03-.32.14-.07.1-.14.21-.2.32-.03.06-.04.11-.03.16,0,.08.07.15.2.22.13.07.19.15.2.23-.06.2-.17.31-.35.32-.08,0-.23-.02-.45-.08-.21-.06-.36-.08-.45-.08l-.2-4.08c.08-.11.11-.18.1-.22l-.12-.08c0-.17.02-1.02.03-2.56,0-1.04.04-1.88.12-2.52,0,0,.28-.02.88-.06.37-.02.61.08.71.31,0,.21-.02.56-.06,1.06-.04.46-.06.82-.05,1.06.02.3.06.58.14.82.32-.44.7-.67,1.12-.69m1.42.87c.03.38.05.75.07,1.11.08,1.58.05,3.27-.07,5.07-.14.12-.35.15-.63.08-.28-.07-.49-.04-.62.08-.16-.21-.26-.59-.29-1.14-.04-.8-.06-1.21-.06-1.24-.03-2,.16-3.62.59-4.85.49.13.83.43,1.02.89"/><path d="m102.67,428.71c-.06.13-.09.26-.08.4,0,.14.01.28.02.42-.01.11-.05.23-.1.35-.09-.02-.16-.04-.22-.03-.07,0-.14.03-.2.08-.07.05-.12.07-.16.07-.06,0-.13-.02-.23-.06l-.66-.97c.02.29.09.53.2.75.05.11.11.22.16.34-.39.07-.61.08-.66.03l-.09.12-.23-.3c-.18.22-.22.54-.12.97.12.46.13.79.02,1,.14.21.32.31.52.3.09,0,.16-.04.22-.1.09-.24.19-.47.28-.7.14-.28.29-.43.46-.44.13,0,.29.06.47.21.21.08.32.18.33.3,0,.08-.05.2-.15.37-.1.17-.15.31-.14.4,0,.04,0,.07.02.1-.14.1-.26.26-.37.46-.11.2-.25.35-.43.42-.15.15-.3.23-.43.24-.1,0-.26-.08-.47-.24-.21-.16-.4-.24-.58-.23-.08-.17-.26-.35-.56-.56-.3-.2-.48-.42-.55-.66,0,.02,0-.06-.01-.23,0-.09-.05-.15-.12-.18l.11-.11c-.14,0-.22-.08-.23-.25,0-.02,0-.06,0-.11,0-.05,0-.09,0-.11,0-.11-.04-.19-.11-.24l-.03-.5c-.01-.26-.07-.44-.16-.55.09-.6.19-1.21.28-1.81.16-.71.39-1.07.69-1.08.05,0,.09,0,.14.02.27-.27.6-.42.99-.44.43-.02.9.11,1.42.39.41.67.66,1.39.76,2.18m-1.97-1.58l-.09.12c-.07.01-.15-.02-.24-.1l.02.33c-.15.16-.2.41-.18.74.03.57.04.85.04.83h.43c.2-.12.3-.31.28-.58,0-.13-.05-.35-.14-.66-.09-.31-.13-.53-.12-.68"/><polygon class="cls-42" points="106.02 443.11 106.44 443.35 107.88 439.57 107.4 439.41 105.96 443.19 106.38 443.46 106.02 443.11"/><polygon class="cls-42" points="106.65 442.58 106.47 442.65 106.02 443.11 106.38 443.46 106.84 442.98 106.66 443.07 106.65 442.58"/><polygon class="cls-42" points="110.14 442.55 110.34 442.39 106.65 442.58 106.66 443.07 110.36 442.88 110.59 442.71 110.14 442.55"/><polygon class="cls-42" points="111.8 439.07 111.55 438.76 110.14 442.55 110.59 442.71 112.03 438.92 111.78 438.61 111.8 439.07"/><polygon class="cls-42" points="108.28 439.19 108.1 439.28 111.8 439.07 111.78 438.61 108.09 438.78 107.91 438.87 108.28 439.19"/><polygon class="cls-42" points="107.88 439.57 107.83 439.65 108.28 439.19 107.91 438.87 107.45 439.32 107.4 439.41 107.88 439.57"/><polygon class="cls-42" points="110.95 443 111.28 442.86 110.49 442.42 110.23 442.87 111.05 443.32 111.41 443.16 110.93 443 110.95 443"/><polygon class="cls-42" points="112.5 439.51 112.37 439.21 110.93 443 111.41 443.16 112.85 439.37 112.72 439.07 112.5 439.51"/><polygon class="cls-42" points="112.03 438.92 111.68 439.08 112.5 439.51 112.72 439.07 111.93 438.63 111.55 438.76 112.03 438.92"/><polygon points="107.65 439.49 107.63 439.48 108.09 439.03 111.52 438.86 111.55 438.76 111.8 438.85 112.03 438.92 112.02 438.96 112.62 439.3 112.85 439.37 112.75 439.62 114.43 443.61 113.01 447.4 111.18 443.08 110.94 443.18 110.93 443 110.94 442.95 110.37 442.63 110.23 442.87 110.16 442.64 106.65 442.81 106.19 443.27 107.65 439.49"/><polygon class="cls-42" points="112.78 447.32 113.25 447.3 111.42 442.98 110.94 443.18 112.78 447.5 113.24 447.48 112.76 447.31 112.78 447.32"/><polygon class="cls-42" points="114.22 443.71 114.2 443.53 112.76 447.32 113.24 447.48 114.68 443.69 114.67 443.51 114.22 443.71"/><polygon class="cls-42" points="112.85 439.37 112.38 439.39 114.22 443.71 114.67 443.51 112.83 439.19 112.37 439.21 112.85 439.37"/><polygon class="cls-19" points="112.73 440.35 112.93 440.8 113.01 441.25 112.98 441.7 112.85 442.17 112.63 442.62 112.31 443.03 111.91 443.4 111.42 443.72 111.16 443.84 110.89 443.95 110.59 444 110.32 444.06 110.05 444.1 109.76 444.13 109.5 444.09 109.22 444.08 108.98 444.02 108.73 443.94 108.49 443.83 108.28 443.71 108.09 443.57 107.89 443.43 107.72 443.25 107.58 443.05 107.38 442.6 107.3 442.14 107.3 441.68 107.46 441.23 107.65 440.79 107.97 440.36 108.38 439.99 108.89 439.67 109.13 439.55 109.42 439.45 109.69 439.38 109.97 439.32 110.26 439.29 110.52 439.26 110.79 439.29 111.07 439.31 111.32 439.39 111.57 439.48 111.8 439.55 112.03 439.68 112.22 439.8 112.42 439.97 112.56 440.16 112.73 440.35"/><polygon class="cls-42" points="112.91 441.09 113.11 441.54 113.18 442.02 113.16 442.47 113.04 442.91 112.83 443.38 112.49 443.8 112.11 444.15 111.6 444.47 111.33 444.6 111.06 444.72 110.79 444.78 110.49 444.83 110.23 444.87 109.97 444.88 109.69 444.87 109.4 444.82 109.17 444.77 108.92 444.69 108.7 444.59 108.46 444.46 108.27 444.34 108.09 444.18 107.92 444.02 107.77 443.79 107.55 443.37 107.48 442.91 107.51 442.44 107.63 442 107.84 441.53 108.15 441.13 108.55 440.75 109.06 440.44 109.34 440.31 109.6 440.21 109.88 440.13 110.17 440.08 110.43 440.06 110.7 440.02 110.97 440.06 111.24 440.08 111.5 440.14 111.75 440.22 111.97 440.32 112.22 440.43 112.4 440.57 112.6 440.71 112.74 440.91 112.9 441.11 112.91 441.09"/><polygon class="cls-19" points="113.04 441.62 113.25 442.05 113.32 442.53 113.3 442.97 113.17 443.42 112.95 443.87 112.63 444.3 112.25 444.66 111.74 444.97 111.49 445.11 111.2 445.22 110.93 445.28 110.63 445.33 110.36 445.37 110.1 445.39 109.83 445.37 109.54 445.33 109.3 445.27 109.05 445.19 108.83 445.09 108.6 444.96 108.41 444.85 108.21 444.68 108.06 444.5 107.9 444.3 107.69 443.87 107.61 443.41 107.64 442.96 107.77 442.5 107.97 442.04 108.29 441.61 108.71 441.27 109.2 440.95 109.47 440.81 109.74 440.69 110.01 440.63 110.31 440.58 110.58 440.54 110.84 440.53 111.13 440.55 111.38 440.58 111.64 440.64 111.89 440.73 112.13 440.83 112.34 440.96 112.54 441.07 112.74 441.21 112.88 441.41 113.04 441.62"/><polygon class="cls-42" points="113.22 442.36 113.43 442.81 113.5 443.27 113.5 443.73 113.35 444.18 113.15 444.63 112.81 445.05 112.43 445.43 111.92 445.74 111.67 445.86 111.38 445.97 111.11 446.03 110.84 446.09 110.55 446.12 110.28 446.16 110.01 446.12 109.74 446.1 109.48 446.04 109.23 445.96 109.01 445.86 108.77 445.73 108.59 445.59 108.41 445.46 108.24 445.27 108.08 445.07 107.9 444.63 107.8 444.16 107.82 443.71 107.95 443.25 108.17 442.81 108.49 442.39 108.9 442.01 109.38 441.69 109.65 441.58 109.92 441.46 110.21 441.41 110.49 441.35 110.75 441.31 111.04 441.31 111.31 441.32 111.56 441.33 111.82 441.39 112.07 441.47 112.31 441.58 112.53 441.7 112.73 441.85 112.91 441.98 113.08 442.17 113.21 442.39 113.22 442.36"/><polygon class="cls-19" points="113.49 442.86 113.7 443.29 113.78 443.74 113.77 444.22 113.65 444.67 113.42 445.12 113.07 445.54 112.7 445.9 112.21 446.22 111.94 446.36 111.65 446.46 111.38 446.52 111.1 446.58 110.81 446.61 110.55 446.63 110.28 446.61 110.01 446.58 109.75 446.52 109.5 446.43 109.28 446.33 109.06 446.23 108.85 446.09 108.68 445.93 108.51 445.74 108.37 445.55 108.16 445.12 108.07 444.63 108.09 444.18 108.24 443.75 108.44 443.28 108.76 442.86 109.16 442.51 109.65 442.19 109.92 442.05 110.19 441.94 110.48 441.91 110.76 441.82 111.03 441.78 111.31 441.78 111.58 441.79 111.83 441.82 112.09 441.88 112.36 441.98 112.58 442.08 112.8 442.17 113.01 442.32 113.18 442.48 113.35 442.66 113.49 442.86"/><polygon class="cls-42" points="113.69 443.61 113.87 444.05 113.97 444.52 113.95 444.97 113.82 445.43 113.6 445.87 113.28 446.3 112.88 446.67 112.39 446.99 112.12 447.1 111.83 447.21 111.56 447.27 111.28 447.33 111.02 447.37 110.73 447.4 110.46 447.36 110.19 447.34 109.95 447.29 109.68 447.2 109.46 447.1 109.24 446.98 109.04 446.83 108.85 446.7 108.69 446.51 108.55 446.32 108.34 445.87 108.25 445.4 108.27 444.95 108.42 444.5 108.62 444.05 108.94 443.63 109.34 443.25 109.85 442.94 110.1 442.82 110.39 442.71 110.66 442.65 110.93 442.59 111.22 442.56 111.49 442.53 111.76 442.56 112.01 442.57 112.29 442.64 112.54 442.72 112.76 442.82 112.98 442.94 113.18 443.09 113.36 443.23 113.53 443.41 113.69 443.61"/><polygon class="cls-42" points="88.51 437.8 88.53 437.66 87.09 441.46 87.54 441.62 88.99 437.81 89 437.71 88.51 437.8"/><polygon class="cls-42" points="88.47 437.61 88.48 437.59 88.51 437.8 89 437.71 88.95 437.49 88.96 437.46 88.47 437.61"/><rect x="88.44" y="437.33" width=".5" height=".2" transform="translate(-98.64 32.31) rotate(-13.35)"/><rect x="88.38" y="437.11" width=".5" height=".21" transform="translate(-126.87 46.61) rotate(-17.43)"/><polygon class="cls-42" points="88.31 436.97 88.36 437.19 88.84 437.05 88.79 436.82 88.78 436.85 88.31 436.97"/><polygon class="cls-42" points="88.25 436.69 88.25 436.77 88.31 436.97 88.78 436.85 88.72 436.65 88.74 436.73 88.25 436.69"/><polygon class="cls-42" points="88.73 436.6 88.25 436.52 88.25 436.7 88.74 436.74 88.75 436.56 88.27 436.47 88.72 436.63 88.73 436.6"/><rect class="cls-23" x="88.61" y="447.48" width=".52" height=".26" transform="translate(-78.12 22.91) rotate(-10.24)"/><polygon class="cls-42" points="90.21 444.51 90.22 444.39 88.78 448.18 89.24 448.33 90.68 444.54 90.67 444.41 90.21 444.51"/><polygon class="cls-42" points="90.17 444.25 90.21 444.51 90.67 444.41 90.63 444.15 90.15 444.24 90.17 444.25"/><rect x="90.12" y="443.95" width=".5" height=".25" transform="translate(-80.44 24.32) rotate(-10.64)"/><polygon class="cls-42" points="90.04 443.72 90.06 443.75 90.1 443.99 90.57 443.89 90.53 443.63 90.54 443.66 90.04 443.72"/><polygon class="cls-42" points="90.5 443.49 90.01 443.43 90.04 443.72 90.54 443.66 90.51 443.39 90.02 443.33 90.5 443.49"/><path class="cls-23" d="m87.09,440.71l-.23.07.23-.07Z"/><polygon class="cls-23" points="87.33 441.5 87.34 441.48 87.46 441.49 87.54 441.62 87.33 441.55 87.33 441.5"/><polygon points="86.8 440.56 87.05 440.51 87.06 440.34 88.5 436.53 88.5 436.55 88.5 436.7 88.54 436.89 88.61 437.12 88.67 437.32 88.72 437.54 88.76 437.73 88.99 437.81 87.54 441.62 87.46 441.49 87.34 441.48 87.33 441.5 87.33 441.55 87.54 441.62 87.33 441.6 87.34 441.78 87.19 441.59 87.07 441.58 87.04 441.37 87.13 441.35 87.22 441.11 86.98 441.17 86.91 441 86.86 440.78 87.09 440.71 86.86 440.78 86.87 440.76 86.8 440.56"/><polygon points="87.32 441.29 97.93 440.94 98.2 440.96 98.25 440.97 98.51 441.04 98.53 441.04 98.8 441.13 99.07 441.25 99.09 441.25 99.34 441.41 99.39 441.43 99.59 441.6 99.65 441.64 99.79 441.82 99.81 441.85 99.9 442.01 99.91 442.06 99.45 442.2 99.37 442.08 99.37 442.11 99.24 441.94 99.24 441.94 99.08 441.81 99.12 441.85 98.86 441.71 98.86 441.71 98.6 441.6 98.37 441.52 98.11 441.46 98.15 441.48 97.91 441.44 97.91 441.42 87.34 441.78 87.32 441.29"/><polygon points="99.43 442.21 99.45 442.2 99.47 442.25 99.43 442.21"/><polygon class="cls-42" points="105.1 451.11 105.1 450.95 103.65 454.76 104.13 454.92 105.58 451.12 105.58 450.96 105.1 451.11"/><polygon class="cls-42" points="100.91 438.46 100.88 438.4 105.1 451.11 105.58 450.96 101.36 438.26 101.35 438.2 100.91 438.46"/><polygon class="cls-42" points="100.83 438.33 100.81 438.3 100.91 438.46 101.35 438.2 101.26 438.04 101.23 438.03 100.81 438.32 100.83 438.33"/><polygon class="cls-42" points="100.73 438.17 100.69 438.13 100.8 438.32 101.23 438.03 101.07 437.83 101.03 437.79 100.73 438.17"/><polygon class="cls-42" points="100.56 438.06 100.52 438.03 100.73 438.17 101.03 437.79 100.83 437.65 100.79 437.61 100.56 438.06"/><polygon class="cls-42" points="100.33 437.91 100.31 437.9 100.56 438.06 100.79 437.61 100.53 437.47 100.51 437.46 100.33 437.91"/><polygon class="cls-42" points="100.09 437.81 100.04 437.81 100.33 437.91 100.51 437.46 100.24 437.35 100.22 437.34 100.06 437.82 100.09 437.81"/><polygon class="cls-42" points="99.81 437.71 99.79 437.73 100.06 437.82 100.22 437.34 99.95 437.25 99.81 437.74 99.81 437.71"/><polygon class="cls-42" points="99.6 437.67 99.56 437.65 99.81 437.74 99.95 437.25 99.66 437.18 99.64 437.17 99.6 437.67"/><polygon class="cls-42" points="99.36 437.64 99.35 437.66 99.6 437.67 99.64 437.17 99.37 437.13 99.34 437.15 99.36 437.64"/><polygon class="cls-42" points="89.01 437.82 88.76 437.98 99.36 437.64 99.34 437.15 88.76 437.5 88.53 437.66 88.99 437.81 89.01 437.82"/><polygon class="cls-23" points="91.68 449.39 91.64 449.38 91.66 449.36 91.68 449.39"/><path class="cls-23" d="m97.4,451.11l-.04.51.04-.51Z"/><path d="m88.63,447.8l.05.24.09.26.11.19.65.34.65.34.62.33.63.31h.02s.64.3.64.3l.64.29.69.28.7.26h.02s.75.21.75.21l.75.2h.02s.82.13.82.13l.85.13h.02s.92.06.92.06l.03-.02.98.02,1.05-.03,1.11-.06.23-.15,1.44-3.79-.24-.34v.49s-.06-.09-.06-.09l.06-.14h-.16s-.07-.08-.07-.08l-.03.09-.83.05h-1.07l-.98-.02-.9-.05-.88-.11-.82-.14-.75-.2-.75-.2-.7-.26-.68-.25-.64-.29-.63-.31-.65-.32-.62-.34-.62-.34-.43-.23v-.04s-.22-.08-.22-.08l-.06-.27-.04-.25-.02-.08.17-.37-.24-.08h-.01s-.23-.08-.23-.08l-1.44,3.79v.12s.02.27.02.27l.03.29Zm.18-.6v.05s-.01-.01-.01-.01v-.04Z"/><rect x="101.77" y="447.35" width="1.13" height=".49" transform="translate(-24.88 6.43) rotate(-3.21)"/><rect x="100.73" y="447.39" width="1.05" height=".49" transform="translate(-11.77 2.83) rotate(-1.51)"/><polygon class="cls-42" points="99.73 447.87 99.75 447.88 100.74 447.9 100.72 447.41 99.74 447.39 99.77 447.37 99.72 447.89 99.73 447.87"/><polygon class="cls-42" points="98.78 447.81 98.81 447.81 99.72 447.89 99.77 447.37 98.85 447.32 98.87 447.33 98.78 447.81"/><rect x="98.16" y="447.07" width=".49" height=".88" transform="translate(-357.87 489.58) rotate(-82.87)"/><polygon class="cls-42" points="97.09 447.55 97.12 447.55 97.93 447.7 98.02 447.2 97.18 447.07 97.2 447.07 97.09 447.55"/><polygon class="cls-42" points="96.35 447.35 97.09 447.55 97.2 447.07 96.45 446.88 96.34 447.37 96.35 447.35"/><polygon class="cls-42" points="95.57 447.16 95.59 447.17 96.34 447.37 96.45 446.88 95.71 446.68 95.73 446.68 95.57 447.16"/><polygon class="cls-42" points="94.87 446.91 95.57 447.16 95.73 446.68 95.03 446.42 95.05 446.43 94.85 446.9 94.87 446.91"/><rect x="94.36" y="446.16" width=".51" height=".74" transform="translate(-354.34 364.19) rotate(-67.64)"/><rect x="93.71" y="445.9" width=".51" height=".7" transform="translate(-351.31 347.76) rotate(-65.64)"/><polygon class="cls-42" points="92.88 446.01 92.9 446.05 93.54 446.33 93.74 445.89 93.08 445.57 93.1 445.58 92.87 446.04 92.88 446.01"/><polygon class="cls-42" points="92.25 445.7 92.87 446.04 93.1 445.58 92.47 445.27 92.24 445.72 92.25 445.7"/><polygon class="cls-42" points="91.63 445.37 92.24 445.72 92.47 445.27 91.85 444.93 91.6 445.36 91.63 445.37"/><rect x="91.17" y="444.62" width=".49" height=".72" transform="translate(-343.54 313.9) rotate(-61.62)"/><polygon class="cls-42" points="90.68 444.54 90.33 444.68 90.98 445.02 91.22 444.6 90.57 444.25 90.22 444.39 90.68 444.54"/><polygon class="cls-42" points="156.71 437.68 155.26 441.49 159.99 443.07 161.09 440.54 161.12 440.3 161.12 440.04 161.09 439.78 160.99 439.52 160.84 439.29 160.72 439.04 160.52 438.8 160.32 438.58 160.1 438.38 159.87 438.18 159.62 437.99 159.39 437.86 159.16 437.71 158.89 437.6 158.66 437.47 158.43 437.39 158.22 437.32 157.98 437.29 157.76 437.27 157.54 437.3 157.33 437.33 157.1 437.41 156.9 437.54 156.71 437.68"/><polygon class="cls-42" points="159.78 442.95 160.07 442.82 155.34 441.24 155.18 441.72 159.91 443.3 160.23 443.18 159.78 442.95"/><polygon points="86.8 440.33 86.83 440.26 88.27 436.47 88.72 436.63 87.33 440.37 87.3 440.52 87.29 440.47 86.8 440.56 86.8 440.5 86.8 440.33"/><polygon class="cls-23" points="110 449.29 109.91 449.34 109.91 449.33 110 449.29"/><path d="m86.98,441.17l.05.22v-.02s.37-.08.37-.08l-.09.25,10.6-.35h.25s.27.1.27.1l.27.09.27.09.25.16.21.14.15.17.09.18-.25.08,4.22,12.71h.24s0,.16,0,.16h.74s.33,0,.33,0l.3-.05.3-.08.3-.15.28-.24.33-.32v-.02s.2-.27.2-.27l.22-.28.25-.3.18-.3.22-.36.23-.31.19-.34.25-.35.2-.29.28-.31.23-.3.27-.27.24-.25.25-.22.24-.2.28-.16.06-.03-.18-.17.18.17.28-.31.26-.24.23-.23.24-.2.24-.17.25-.14.22-.13.24-.12.27-.06.27-.11.27-.06.32-.05.35-.06.39-.02.42-.04.41-.02h.02s45.76-3.41,45.76-3.41l.27-.04.24-.05.22-.05.23-.08.21-.1.22-.13.18-.17.21-.18.05-.06.8-1.87-.42-.27.19.18-.03.02-.2-.14-.2.47-.13.08-.18.07-.21.09-.19.04-.24.05-.24.04-45.78,3.41-.29.03h-.28s-.28.01-.28.01l-.3.05h-.3l-.27.04-.29.03-.27.04-.3.05-.27.04-.27.06-.3.08-.28.06-.29.11-.29.11-.28.14-.54.33-.55.5-.58.6-.56.68-.54.71-.47.63-.46.61-.38.46-.22.05-.19.04-.24.02h-.65s-.25-.02-.25-.02l-.22-.02-4.2-12.68-.09-.18-.15-.18-.2-.15-.28-.17-.27-.11-.27-.09-.26-.06h-.25s-10.59.32-10.59.32l-1.27,3.35v-.04s-.51.14-.51.14Zm76.13.35v-.03s.19.17.19.17l-.19-.13Z"/><polygon class="cls-42" points="161.51 442.46 161.79 442.4 162.03 442.35 162.25 442.3 162.48 442.22 162.69 442.12 162.91 441.99 163.09 441.84 163.3 441.66 162.94 441.31 162.78 441.48 162.61 441.61 162.45 441.71 162.27 441.77 162.11 441.82 161.91 441.88 161.7 441.91 161.46 441.93 161.51 442.46"/><rect x="115.68" y="443.63" width="45.86" height=".53" transform="translate(-32.48 11.48) rotate(-4.25)"/><polygon class="cls-42" points="111.28 446.67 111.54 446.55 111.8 446.46 112.12 446.36 112.38 446.27 112.65 446.19 112.92 446.15 113.19 446.11 113.49 446.06 113.73 446.01 114.01 446.01 114.3 445.98 114.59 445.95 114.88 445.92 115.14 445.9 115.45 445.88 115.76 445.86 115.7 445.35 115.41 445.38 115.12 445.41 114.82 445.41 114.53 445.44 114.25 445.45 113.98 445.51 113.69 445.52 113.38 445.54 113.1 445.6 112.83 445.66 112.53 445.72 112.23 445.79 111.97 445.88 111.66 445.98 111.35 446.08 111.07 446.22 111.28 446.67"/><polygon class="cls-42" points="107.18 451.19 107.28 451.12 107.48 450.89 107.67 450.64 107.89 450.36 108.11 450.06 108.37 449.74 108.61 449.41 108.88 449.06 109.14 448.72 109.42 448.36 109.7 448.05 109.98 447.76 110.26 447.44 110.49 447.19 110.79 446.99 111.03 446.79 111.28 446.67 111.07 446.22 110.76 446.39 110.49 446.58 110.18 446.83 109.88 447.12 109.61 447.41 109.33 447.69 109.03 448.08 108.23 449.1 107.99 449.43 107.73 449.75 107.51 450.06 107.28 450.34 107.1 450.58 106.93 450.78 107.03 450.73 107.18 451.19"/><polygon class="cls-19" points="98.41 437.42 99.36 437.41 99.43 437.41 91.32 434.7 90.91 434.94 98.41 437.45 98.41 437.42"/><polygon class="cls-19" points="98.41 437.42 88.76 437.73 88.72 437.54 88.67 437.32 88.61 437.12 88.54 436.89 88.5 436.7 88.5 436.55 88.56 436.37 88.72 436.25 89.12 435.97 89.56 435.71 90.01 435.45 90.45 435.2 90.87 434.93 90.91 434.94 98.41 437.45 98.41 437.42"/><polygon class="cls-18" points="92.55 443.29 99.12 442.92 101.69 443.95 102.6 446.64 102.88 447.57 101.79 447.64 100.72 447.64 99.74 447.62 98.84 447.57 97.96 447.46 97.15 447.31 96.4 447.11 95.65 446.91 94.95 446.66 94.28 446.4 93.64 446.11 93 445.8 92.35 445.48 91.72 445.14 91.1 444.81 90.45 444.47 90.39 444.19 90.35 443.95 90.29 443.67 90.25 443.41 92.55 443.29"/><polygon class="cls-19" points="109.11 444.04 109.2 444.15 110.04 444.66 110.32 444.21 109.47 443.7 109.56 443.83 109.11 444.04 109.14 444.1 109.2 444.15 109.11 444.04"/><polygon class="cls-19" points="101.59 444.2 101.45 444.02 102.65 447.65 103.13 447.5 101.92 443.88 101.79 443.73 101.92 443.88 101.89 443.76 101.79 443.73 101.59 444.2"/><polygon class="cls-19" points="99.14 443.15 99.02 443.14 101.59 444.2 101.79 443.73 99.23 442.67 99.13 442.67 99.23 442.67 99.18 442.66 99.13 442.67 99.14 443.15"/><polygon class="cls-19" points="90.5 443.39 90.26 443.67 99.14 443.15 99.13 442.67 90.25 443.18 90.01 443.43 90.25 443.18 89.96 443.19 90.01 443.43 90.5 443.39"/><polygon class="cls-19" points="90.57 444.25 90.67 444.41 90.67 444.28 90.64 444.15 90.63 444.02 90.59 443.9 90.58 443.77 90.55 443.64 90.51 443.52 90.5 443.39 90.01 443.43 90.01 443.58 90.03 443.74 90.07 443.86 90.08 443.99 90.12 444.1 90.15 444.24 90.2 444.38 90.21 444.51 90.33 444.68 90.21 444.51 90.25 444.63 90.33 444.68 90.57 444.25"/><polygon class="cls-19" points="102.66 447.63 102.86 447.31 101.77 447.38 100.72 447.41 99.77 447.37 98.85 447.32 98.02 447.2 97.2 447.07 96.45 446.88 95.73 446.68 95.03 446.42 94.38 446.16 93.74 445.89 93.1 445.58 92.47 445.27 91.85 444.93 91.22 444.6 90.57 444.25 90.33 444.68 90.98 445.02 91.6 445.36 92.24 445.72 92.87 446.04 93.54 446.33 94.18 446.62 94.87 446.91 95.57 447.16 96.34 447.37 97.09 447.55 97.93 447.7 98.81 447.81 99.72 447.89 100.74 447.9 101.79 447.87 102.92 447.82 103.13 447.5 102.92 447.82 103.23 447.79 103.13 447.5 102.65 447.65 102.66 447.63"/><polygon class="cls-19" points="115.7 445.35 115.37 445.37 114.99 445.42 114.66 445.44 114.29 445.47 113.94 445.53 113.57 445.58 113.2 445.63 112.84 445.72 112.48 445.8 112.17 445.9 111.83 446.01 111.51 446.13 111.23 446.27 110.91 446.42 110.64 446.61 110.39 446.81 110.7 447.19 110.93 447.01 111.16 446.86 111.41 446.71 111.7 446.61 111.99 446.45 112.29 446.37 112.65 446.29 112.96 446.19 113.3 446.15 113.61 446.07 113.97 446.05 114.33 445.98 114.7 445.93 115.06 445.9 115.4 445.86 115.76 445.86 115.7 445.35"/><rect class="cls-18" x="115.68" y="443.64" width="45.86" height=".51" transform="translate(-32.69 11.56) rotate(-4.27)"/><polygon class="cls-19" points="162.31 439.14 162.5 439.41 162.7 439.66 162.79 439.91 162.94 440.17 163.01 440.4 163.04 440.63 163.04 440.84 163.03 441.03 162.98 441.19 162.9 441.35 162.8 441.49 162.62 441.64 162.44 441.73 162.15 441.83 161.85 441.91 161.46 441.93 161.51 442.46 161.93 442.42 162.3 442.32 162.62 442.19 162.9 442.03 163.16 441.86 163.34 441.62 163.44 441.4 163.53 441.13 163.52 440.84 163.54 440.57 163.48 440.3 163.38 439.98 163.26 439.72 163.11 439.41 162.91 439.09 162.72 438.85 162.31 439.14"/><polygon class="cls-19" points="156.86 436.54 157.27 436.52 157.69 436.56 158.12 436.66 158.53 436.71 159.3 436.97 159.68 437.15 160.03 437.32 160.39 437.51 160.73 437.73 161.09 437.95 161.35 438.16 161.62 438.41 161.89 438.67 162.11 438.92 162.31 439.14 162.72 438.85 162.48 438.57 162.21 438.3 161.95 438.03 161.65 437.78 161.32 437.55 161 437.31 160.66 437.1 160.28 436.87 159.88 436.68 159.48 436.52 159.07 436.39 158.63 436.24 158.21 436.15 157.77 436.08 157.28 436.04 156.84 436.05 156.86 436.54"/><rect class="cls-18" x="116.35" y="436.75" width="40.51" height=".49" transform="translate(-14.96 4.96) rotate(-1.97)"/><polygon class="cls-19" points="109.98 436.92 110.36 437.07 110.77 437.15 111.16 437.28 111.56 437.37 111.99 437.46 112.38 437.57 112.82 437.63 113.21 437.69 113.61 437.77 114.03 437.81 114.44 437.87 114.84 437.88 115.23 437.93 115.64 437.92 116.02 437.94 116.37 437.93 116.38 437.45 116 437.45 115.63 437.43 115.28 437.41 114.88 437.38 114.48 437.35 114.09 437.32 113.7 437.27 113.29 437.21 112.89 437.12 112.5 437.07 112.1 436.96 111.69 436.9 111.29 436.8 110.87 436.68 110.52 436.59 110.14 436.46 109.98 436.94 109.98 436.92"/><polygon class="cls-19" points="96.33 433.17 97.02 433.07 97.67 433.01 98.3 432.97 98.87 432.93 99.41 432.91 99.9 432.97 100.4 432.98 100.82 433.02 101.26 433.09 101.66 433.17 102.04 433.25 102.38 433.36 102.75 433.49 103.04 433.61 103.4 433.75 103.68 433.9 104 434.06 104.33 434.22 104.65 434.4 104.97 434.58 105.29 434.77 105.63 434.98 105.96 435.14 106.31 435.36 106.71 435.55 107.09 435.77 107.52 435.94 107.93 436.15 108.39 436.36 108.89 436.53 109.43 436.76 109.98 436.94 110.14 436.46 109.59 436.28 109.05 436.07 108.6 435.9 108.13 435.71 107.69 435.49 107.32 435.31 106.94 435.09 106.56 434.91 106.2 434.71 105.86 434.52 105.54 434.34 105.2 434.13 104.88 433.94 104.55 433.78 104.23 433.62 103.93 433.45 103.6 433.29 103.25 433.14 102.91 433.01 102.54 432.88 102.15 432.75 101.75 432.67 101.34 432.61 100.89 432.51 100.43 432.46 99.95 432.45 99.39 432.44 98.86 432.44 98.24 432.46 97.61 432.51 96.95 432.59 96.27 432.67 96.3 433.16 96.33 433.17"/><polygon class="cls-19" points="88.85 436.47 89.25 436.19 89.69 435.93 90.14 435.67 90.58 435.39 90.99 435.15 91.46 434.9 91.89 434.66 92.34 434.46 92.82 434.24 93.3 434.02 93.78 433.82 94.26 433.65 94.79 433.52 95.27 433.38 95.79 433.25 96.3 433.16 96.27 432.67 95.69 432.78 95.15 432.88 94.62 433.03 94.12 433.17 93.62 433.38 93.1 433.57 92.63 433.77 92.15 433.99 91.66 434.23 91.19 434.48 90.76 434.71 90.32 434.97 89.87 435.23 89.43 435.49 89.02 435.76 88.6 436.02 88.83 436.46 88.85 436.47"/><polygon class="cls-19" points="88.76 437.5 89.02 437.72 88.95 437.49 88.9 437.25 88.84 437.05 88.79 436.82 88.75 436.69 88.73 436.6 88.77 436.49 88.83 436.46 88.6 436.02 88.38 436.23 88.26 436.5 88.23 436.74 88.31 436.97 88.36 437.19 88.42 437.39 88.48 437.59 88.52 437.78 88.75 437.98 88.52 437.78 88.53 437.98 88.75 437.98 88.76 437.5"/><polygon class="cls-18" points="107.46 439.3 107.46 439.32 107.45 439.32 107.46 439.3"/><polygon class="cls-18" points="107.35 439.42 107.45 439.32 107.39 439.58 107.35 439.42"/><polygon class="cls-18" points="114.16 442.33 122.51 445.11 121.61 445.16 121.6 445.19 114.35 442.77 114.16 442.33"/><path class="cls-18" d="m88.76,437.98l10.6-.34.22.02.2.07.27.09.25.08.23.15.17.11.1.16.08.08,4.22,12.71.06.2h.21s.21-.04.21-.04l.24.03.3.02h.28s.27,0,.27,0l.25-.07.28-.08.23-.15.27-.29.23-.3.21-.26.21-.26.18-.24.17-.22.15-.23.18-.24.15-.23.18-.22.18-.22.19-.19.2-.21.23-.23.23-.23.29-.26-.15-.19.23-.19.26-.17.3-.13.27-.14.3-.13.34-.09.34-.11.34-.09.32-.05.35-.06.37-.05.35-.06.36-.03.37-.03.34-.04h.34s5.88-.44,5.88-.44l-7.25-2.42-.19-.44,8.35,2.79,38.98-2.91.72-.11.54-.25.37-.36.14-.41v-.46s0-.02,0-.02l-.13-.53-.26-.52-.37-.56-.22-.25-.24-.26-.27-.27-.28-.22-.3-.25-.34-.21-.36-.22-.36-.22-.38-.15-.37-.18-.41-.14-.43-.14-.41-.06-.43-.09-.44-.05h-.43s-5.89.23-5.89.23l-34.57,1.18h-.74s-.4,0-.4,0l-.39-.05-.4-.03-.4-.03-.39-.05-.41-.06-.41-.06-.4-.08-.4-.09-.4-.08-.42-.11-.4-.11-.37-.1-.39-.13-.55-.18-.54-.21-.47-.18-.47-.18-.41-.21-.4-.18-.41-.21-.37-.17-.36-.22-.32-.18-.34-.19-.32-.18-.34-.19-.32-.18-.31-.15-.32-.18-.33-.16-.34-.14-.32-.11-.36-.12-.39-.13-.37-.1-.41-.06-.43-.07-.44-.05-.5-.04-.53-.02-.54.02-.56.02-.63.07-.65.06-.72.09-.53.08-.53.13-.52.13-.49.17-.52.18-.5.19-.47.2-.48.22-.45.23-.47.25,7.4,2.47-9.96.33v.48Zm67.81.21l.05-.29.1-.22.18-.17.27-.14.32-.05h.17s.2.02.2.02l.19.04.19.04.23.08.2.07.22.1.24.13.2.09.21.14.18.14.2.17.2.14.15.18.17.16.15.18.27.34.14.35.07.18.04.11-.02.3-.05.24-.17.2-.24.12-.33.07-.18.02-.19-.04-.22-.02-.24-.05-.21-.07-.23-.08-.24-.1-.21-.12-.22-.1-.24-.13-.21-.15-.2-.17-.18-.14-.19-.19-.17-.18-.14-.17-.24-.36-.14-.35-.04-.11-.04-.19Zm-42.14,5.39l-.16-.13.16.13Zm-6.49-4.03l.27-.27,3.48-.2.74.38,1.75,4.11-.27.34-3.74.27.17.03-.13.2h-.02s-.83-.48-.83-.48h0s.22-.11.22-.11l-1.63-4.28Z"/><polygon class="cls-42" points="154.21 440.83 153.99 440.71 153.96 440.52 154.26 440.44 154.32 440.64 154.14 440.51 154.21 440.83"/><polygon class="cls-42" points="154.62 440.59 154.57 440.65 154.5 440.73 154.4 440.77 154.32 440.82 154.21 440.83 154.14 440.51 154.19 440.52 154.25 440.47 154.34 440.45 154.34 440.42 154.33 440.47 154.61 440.61 154.62 440.59"/><polygon class="cls-42" points="153.76 438.68 153.78 438.69 153.93 438.86 154.12 439.05 154.3 439.26 154.47 439.5 154.62 439.75 154.7 440.03 154.7 440.34 154.61 440.61 154.33 440.47 154.39 440.29 154.38 440.1 154.32 439.88 154.19 439.68 154.03 439.45 153.87 439.27 153.67 439.08 153.53 438.91 153.55 438.91 153.76 438.68"/><polygon class="cls-42" points="150.96 437.87 150.93 437.86 151.34 437.87 151.72 437.87 152.07 437.94 152.42 437.98 152.77 438.07 153.1 438.23 153.44 438.42 153.76 438.68 153.55 438.91 153.24 438.71 152.94 438.53 152.66 438.39 152.36 438.31 152.02 438.25 151.68 438.21 151.33 438.2 150.97 438.2 150.98 438.18 150.92 437.88 150.96 437.87"/><polygon class="cls-42" points="121.23 439.43 121.37 439.34 150.92 437.88 150.98 438.18 121.41 439.66 121.54 439.58 121.23 439.43"/><polygon class="cls-42" points="120.53 440.46 120.21 440.36 120.23 440.13 120.3 439.95 120.39 439.76 120.51 439.62 120.67 439.52 120.87 439.44 121.11 439.36 121.37 439.34 121.41 439.66 121.16 439.71 120.94 439.76 120.84 439.78 120.73 439.87 120.68 439.95 120.59 440.05 120.55 440.19 120.56 440.39 120.23 440.29 120.53 440.46"/><polygon points="154.02 440.34 153.93 440.21 153.83 440.07 153.74 439.94 153.63 439.83 153.52 439.69 153.41 439.58 153.3 439.44 153 439.21 152.68 439 152.37 438.88 152.05 438.79 151.7 438.75 151.34 438.69 150.99 438.67 150.61 438.67 121.04 440.15 121.29 439.69 121.38 439.68 121.41 439.66 150.98 438.18 151.47 438.22 151.89 438.2 152.28 438.26 152.63 438.33 152.96 438.49 153.26 438.66 153.53 438.91 153.84 439.26 154.12 439.58 154.32 439.9 154.41 440.14 154.41 440.29 154.34 440.42 154.15 440.54 154.13 440.54 154.12 440.5 154.02 440.34"/><path d="m120.21,440.36l.03.29.06.2.08.28.2.32.24.26.31.28.37.25.42.19.44.12h.53l30.38-1.54.58-.06.41-.09.3-.2.17-.27v-.28s-.12-.34-.12-.34l-.22-.33-.3-.38-.31-.36-.34-.29-.36-.22-.35-.17-.38-.08-.46-.08h-.46l-.52.03-29.56,1.46h0s-.32.02-.32.02l-.32.12-.21.18-.15.21-.1.22-.06.26Zm.34.04l.04-.19v-.03s.04,0,.04,0h.15l.26-.02.25-.46h.09s.03-.03.03-.03l29.57-1.48.49.04.41-.02.39.05.36.07.33.16.3.17.28.25.31.36.27.32.2.32.1.24v.15l-.07.13-.19.12h-.03s-.33.08-.33.08l-.5.06-30.39,1.57h-.02s-.43-.02-.43-.02l-.42-.11-.37-.17-.32-.18-.27-.27-.19-.27-.17-.26-.13-.22-.02-.16v-.18Z"/><line class="cls-9" x1="129.47" y1="167.81" x2="37.12" y2="167.81"/><line class="cls-12" x1="118.65" y1="129.06" x2="8.77" y2="129.06"/><line class="cls-7" x1="114.15" y1="56.28" x2="46.2" y2="56.28"/><line class="cls-11" x1="129.47" y1="251.44" x2="8.17" y2="251.44"/><path class="cls-20" d="m139.01,43.31c0,.68-.31,1.35-.93,2l-.1.1-5.43,5.72c-1.15,1.21-2.14,2.15-2.95,2.81-.81.66-1.38.99-1.72.99s-.79-.17-1.31-.5c-.52-.33-.86-.67-1.01-1.02-.13-.29-.25-.91-.36-1.86s-.17-1.98-.17-3.08c0-.6.25-1.16.75-1.68.51-.51,1.06-.77,1.67-.77s.93.53,1.03,1.59c.02.12.02.22.03.27.09.81.2,1.38.32,1.7.12.32.29.48.5.48.09,0,.25-.09.5-.28.24-.19.52-.45.86-.78l5.58-5.52c.47-.47.89-.82,1.25-1.06.37-.24.68-.36.94-.36.19,0,.33.07.41.22.08.15.12.39.12.74v.29Z"/><path class="cls-20" d="m134.37,115.72c0,.68-.31,1.35-.93,2l-.1.1-5.43,5.71c-1.15,1.21-2.14,2.15-2.94,2.81-.81.66-1.38.99-1.72.99-.35,0-.79-.17-1.31-.5-.52-.33-.86-.67-1.01-1.02-.13-.29-.25-.91-.36-1.86-.11-.95-.17-1.97-.17-3.08,0-.6.25-1.16.76-1.67.5-.51,1.06-.77,1.67-.77s.93.53,1.03,1.59c.01.12.02.21.03.27.09.81.2,1.38.32,1.7.12.32.29.48.5.48.09,0,.25-.1.49-.29.24-.19.53-.45.86-.78l5.58-5.52c.47-.47.89-.82,1.25-1.06.37-.24.68-.36.94-.36.19,0,.33.08.42.22.08.15.12.39.12.74v.29Z"/><path class="cls-20" d="m142.14,153.06c0,.68-.31,1.35-.93,2l-.1.1-5.43,5.71c-1.15,1.21-2.14,2.15-2.94,2.81-.81.66-1.38.99-1.72.99-.35,0-.79-.17-1.31-.5-.52-.33-.86-.67-1.01-1.02-.13-.29-.25-.91-.36-1.86-.11-.95-.17-1.98-.17-3.08,0-.61.25-1.16.76-1.68.5-.51,1.06-.77,1.67-.77s.93.53,1.03,1.59c.01.12.02.21.03.27.09.81.2,1.38.32,1.7.12.32.29.48.5.48.09,0,.25-.1.49-.28.24-.19.53-.45.86-.78l5.58-5.52c.47-.47.88-.82,1.25-1.06.37-.24.68-.36.94-.36.19,0,.33.07.42.22.08.15.12.39.12.74v.29Z"/><path class="cls-20" d="m143.53,236.48c0,.69-.31,1.35-.93,2l-.1.1-5.43,5.71c-1.16,1.21-2.14,2.15-2.95,2.81-.81.66-1.39.99-1.72.99-.35,0-.79-.16-1.31-.49-.52-.33-.86-.67-1.01-1.02-.13-.29-.25-.91-.37-1.86-.11-.95-.17-1.97-.17-3.08,0-.61.25-1.16.75-1.67.51-.51,1.06-.77,1.67-.77s.92.53,1.03,1.59c.01.12.02.21.03.27.09.81.2,1.38.32,1.7.12.32.29.48.5.48.09,0,.25-.1.49-.28.24-.19.52-.45.86-.78l5.58-5.52c.47-.47.89-.82,1.26-1.06.37-.24.68-.36.94-.36.19,0,.33.07.41.22.08.15.12.39.12.74v.29Z"/></g></g></svg>