<svg version="1.1" xmlns="http://www.w3.org/2000/svg" xmlns:xlink="http://www.w3.org/1999/xlink" x="0px" y="0px" width="300" height="750" viewBox="0 0 300 750" enable-background="new 0 0 72 180" xml:space="preserve"><g transform="translate(0, 330.69049523671003) scale(10.908297578357939)">
<g id="Guidelines">
	<polygon fill="#929497" points="0,0 0,180 72,180 72,0 0,0  "/>
	<path fill="#FFFFFF" stroke="#EB242B" stroke-width="0.5" d="M38.31,145.86v13.395h-4.68v-13.391   c-13.801,1.201-24.629,12.775-24.629,26.889v0.002h53.997v-0.002C62.998,158.62,52.139,147.032,38.31,145.86z"/>
	<path fill="#FFFFFF" stroke="#EB242B" stroke-width="0.5" d="M36.027,7.154c14.899,0.016,26.971,12.008,26.971,26.8v93.801H38.31   v-13.5h-4.68v13.5H9c0,0,0-93.801,0-93.802C9,19.162,21.071,7.169,35.97,7.154"/>
	<path fill="none" stroke="#2DA6DE" stroke-dasharray="0.533" d="M35.98,16.154c-9.914,0.01-17.979,7.995-17.979,17.799v84.802h6.63   v-4.5v-9h9h4.68h9v9v4.5h6.688V33.954c0-9.804-8.066-17.79-17.98-17.8"/>
</g>
<g id="Delete_This_Layer">
	<rect x="54" y="28.392" fill="#F9A61C" stroke="#F9A61C" stroke-miterlimit="10" width="18" height="9.311"/>
	
	<rect fill="#E7E6E6" width="27.502" height="8.124"/>
	
	<g>
		<g>
			<g>
				<line fill="none" stroke="#2DA6DE" stroke-dasharray="0.533" x1="53.879" y1="85.123" x2="53.505" y2="85.123"/>
				<line fill="none" stroke="#2DA6DE" stroke-dasharray="0.533" x1="52.78" y1="85.123" x2="24.123" y2="85.123"/>
				<line fill="none" stroke="#2DA6DE" stroke-dasharray="0.533" x1="23.76" y1="85.123" x2="23.388" y2="85.123"/>
			</g>
		</g>
	</g>
	<g>
		<path fill="#E9262D" d="M36.616,81.447c0,0.141-0.064,0.277-0.191,0.41l-0.02,0.02l-1.115,1.176    c-0.236,0.248-0.438,0.441-0.604,0.576c-0.168,0.137-0.285,0.205-0.354,0.205c-0.072,0-0.162-0.035-0.27-0.104    c-0.107-0.066-0.176-0.137-0.205-0.209c-0.027-0.061-0.055-0.188-0.076-0.383c-0.025-0.195-0.035-0.406-0.035-0.633    c0-0.123,0.051-0.24,0.154-0.344c0.104-0.105,0.219-0.158,0.344-0.158c0.119,0,0.189,0.107,0.213,0.326    c0.002,0.025,0.004,0.045,0.006,0.055c0.018,0.17,0.039,0.285,0.066,0.352c0.023,0.066,0.059,0.1,0.102,0.1    c0.018,0,0.053-0.02,0.102-0.059s0.107-0.094,0.178-0.16l1.145-1.135c0.096-0.096,0.182-0.168,0.258-0.217    c0.074-0.051,0.141-0.074,0.191-0.074c0.041,0,0.068,0.014,0.086,0.045c0.018,0.029,0.025,0.078,0.025,0.15V81.447z"/>
	</g>
	
	
	<line fill="#919396" stroke="#919396" stroke-width="0.5" stroke-miterlimit="10" x1="70.083" y1="61.52" x2="23.388" y2="61.52"/>
	<line fill="none" stroke="#E92629" stroke-width="0.5" x1="34.032" y1="48.877" x2="63" y2="48.877"/>
	
	
	
	
	
	
	
	
	
	
	
		<line fill="#F9A61C" stroke="#F9A61C" stroke-width="0.5" stroke-miterlimit="10" x1="29.087" y1="29.925" x2="59.655" y2="29.925"/>
	<g>
		<path fill="#E9262D" d="M35.536,58.109c0,0.147-0.066,0.291-0.199,0.432l-0.021,0.021l-1.168,1.231    c-0.248,0.261-0.461,0.463-0.635,0.605c-0.176,0.143-0.299,0.214-0.371,0.214c-0.074,0-0.17-0.036-0.281-0.107    c-0.111-0.071-0.186-0.144-0.217-0.219c-0.029-0.063-0.055-0.197-0.078-0.402c-0.025-0.205-0.037-0.426-0.037-0.665    c0-0.129,0.055-0.249,0.162-0.359c0.107-0.111,0.229-0.166,0.359-0.166c0.125,0,0.199,0.114,0.223,0.342    c0.004,0.027,0.004,0.046,0.006,0.059c0.02,0.175,0.043,0.298,0.07,0.368c0.025,0.069,0.062,0.104,0.107,0.104    c0.018,0,0.055-0.021,0.105-0.061c0.051-0.042,0.113-0.098,0.186-0.168l1.201-1.189c0.1-0.101,0.191-0.178,0.27-0.229    c0.08-0.051,0.148-0.079,0.203-0.079c0.043,0,0.072,0.018,0.09,0.048c0.018,0.031,0.025,0.085,0.025,0.159V58.109z"/>
	</g>
	<g>
		<path fill="#E9262D" d="M35.217,45.391c0,0.147-0.067,0.292-0.201,0.431l-0.02,0.022l-1.169,1.231    c-0.249,0.259-0.46,0.462-0.635,0.605c-0.175,0.141-0.299,0.212-0.369,0.212c-0.076,0-0.171-0.035-0.283-0.106    c-0.11-0.071-0.185-0.145-0.218-0.22c-0.026-0.062-0.054-0.197-0.077-0.402c-0.025-0.202-0.038-0.425-0.038-0.662    c0-0.13,0.054-0.251,0.164-0.361c0.108-0.11,0.228-0.166,0.358-0.166c0.125,0,0.199,0.114,0.223,0.343    c0.004,0.026,0.006,0.046,0.007,0.059c0.019,0.176,0.044,0.298,0.069,0.367c0.027,0.069,0.062,0.104,0.108,0.104    c0.019,0,0.055-0.021,0.104-0.062c0.053-0.041,0.114-0.098,0.186-0.169l1.201-1.188c0.101-0.102,0.19-0.177,0.271-0.229    c0.079-0.052,0.146-0.078,0.202-0.078c0.041,0,0.07,0.016,0.09,0.047c0.017,0.032,0.025,0.085,0.025,0.159V45.391z"/>
	</g>
	
</g>
</g></svg>