<?xml version="1.0" encoding="UTF-8" standalone="no"?>
<svg
     viewBox="0 0 1575 2325"
     width="1575"
     height="2325"
     version="1.1"
     id="svg146"
     sodipodi:docname="MediumCoilBookOdd.svg"
     inkscape:version="1.4 (e7c3feb1, 2024-10-09)"
     xmlns:inkscape="http://www.inkscape.org/namespaces/inkscape"
     xmlns:sodipodi="http://sodipodi.sourceforge.net/DTD/sodipodi-0.dtd"
     xmlns="http://www.w3.org/2000/svg"
     xmlns:svg="http://www.w3.org/2000/svg">
    <defs
         id="defs146">
        <defs
             id="defs1">
            <style
                 id="style1">.cls-1{letter-spacing:.01em;}.cls-2{letter-spacing:.05em;}.cls-3{stroke-dasharray:0 0 0 0 5.04 5.03 .01 0;}.cls-3,.cls-4,.cls-5,.cls-6,.cls-7,.cls-8{stroke:#00adee;}.cls-3,.cls-4,.cls-5,.cls-6,.cls-7,.cls-8,.cls-9,.cls-10,.cls-11,.cls-12{fill:none;}.cls-3,.cls-4,.cls-5,.cls-6,.cls-8{stroke-linejoin:round;}.cls-13{letter-spacing:.05em;}.cls-14{letter-spacing:.05em;}.cls-4{stroke-dasharray:0 0 .01 0;}.cls-15{letter-spacing:0em;}.cls-16{letter-spacing:0em;}.cls-6{stroke-dasharray:0 0 .01 0;}.cls-17{letter-spacing:.05em;}.cls-18,.cls-19{fill:#fff;}.cls-20,.cls-21{fill:red;}.cls-22{fill:#d1d2d2;}.cls-23{fill:#4e494b;}.cls-24{letter-spacing:.33em;}.cls-25{fill:#00adee;}.cls-25,.cls-26,.cls-27,.cls-21,.cls-28{font-size:9.99px;}.cls-25,.cls-26,.cls-27,.cls-21,.cls-29{font-family:Arial-BoldMT, Arial;font-weight:700;}.cls-30{letter-spacing:0em;}.cls-31{letter-spacing:0em;}.cls-26{fill:#919395;}.cls-27,.cls-32{fill:#f0f;}.cls-7{stroke-dasharray:0 0 0 0 3 3 0 0;}.cls-33{letter-spacing:.25em;}.cls-34{letter-spacing:-.04em;}.cls-35{letter-spacing:-.04em;}.cls-8{stroke-dasharray:0 0 0 0 5.06 5.05 .01 0;}.cls-36{letter-spacing:-.02em;}.cls-37{letter-spacing:0em;}.cls-9{stroke:#f0f;}.cls-9,.cls-10{stroke-miterlimit:10;}.cls-10{stroke:#ec1e24;}.cls-38,.cls-39{opacity:.5;}.cls-28{font-family:Arial-Black, 'Arial Black';font-weight:800;}.cls-28,.cls-29{fill:#221f1f;}.cls-40{letter-spacing:.24em;}.cls-41{fill:#b6d233;}.cls-41,.cls-19,.cls-42{fill-rule:evenodd;}.cls-29{font-size:8.16px;}.cls-11{stroke:#919395;}.cls-12{stroke:red;}.cls-43{letter-spacing:.28em;}.cls-44{letter-spacing:.28em;}.cls-45{letter-spacing:.28em;}.cls-46{letter-spacing:.28em;}.cls-39{fill:#929497;}.cls-47{letter-spacing:.28em;}.cls-48{letter-spacing:.28em;}.cls-49{letter-spacing:.28em;}.cls-32{opacity:.25;}.cls-50{letter-spacing:.28em;}.cls-51{letter-spacing:.28em;}</style>
        </defs>
    </defs>
    <sodipodi:namedview
         id="namedview146"
         pagecolor="#505050"
         bordercolor="#eeeeee"
         borderopacity="1"
         inkscape:showpageshadow="0"
         inkscape:pageopacity="0"
         inkscape:pagecheckerboard="0"
         inkscape:deskcolor="#d1d1d1"
         inkscape:zoom="0.27371875"
         inkscape:cx="551.66114"
         inkscape:cy="1264.0712"
         inkscape:window-width="1872"
         inkscape:window-height="1027"
         inkscape:window-x="62"
         inkscape:window-y="25"
         inkscape:window-maximized="1"
         inkscape:current-layer="svg146" />
    <path
         class="cls-38"
         d="M -6.3000001e-6,-9.3000001e-6 V 2325 H 1575 V -9.3000001e-6 Z"
         id="path1"
         style="fill:#171717;fill-opacity:1;stroke:none;stroke-width:4.16667"
         sodipodi:nodetypes="ccccc" />
    <rect
         class="cls-10"
         x="37.499992"
         y="37.499992"
         width="1500"
         height="2250"
         id="clipping"
         style="fill:#747474;fill-opacity:1;stroke:none;stroke-width:4.16667" />
    <path
         id="rect1"
         style="stroke-width:4.16667;fill:#ffa3ff;fill-opacity:1;opacity:0.46603261"
         class="cls-32"
         d="M 37.5 37.5 L 37.5 2288.209 L 155.625 2288.209 L 155.625 37.5 L 37.5 37.5 z M 96.541016 88.875 C 109.58268 88.875 120.16602 99.458335 120.16602 112.5 C 120.16602 125.54167 109.58268 136.125 96.541016 136.125 C 83.499349 136.125 72.916016 125.54167 72.916016 112.5 C 72.916016 99.458335 83.499349 88.875 96.541016 88.875 z M 96.541016 163.875 C 109.58268 163.875 120.16602 174.45834 120.16602 187.5 C 120.16602 200.54167 109.58268 211.125 96.541016 211.125 C 83.499349 211.125 72.916016 200.54167 72.916016 187.5 C 72.916016 174.45834 83.499349 163.875 96.541016 163.875 z M 96.541016 238.875 C 109.58268 238.875 120.16602 249.45834 120.16602 262.5 C 120.16602 275.54167 109.58268 286.125 96.541016 286.125 C 83.499349 286.125 72.916016 275.54167 72.916016 262.5 C 72.916016 249.45834 83.499349 238.875 96.541016 238.875 z M 96.541016 313.875 C 109.58268 313.875 120.16602 324.45834 120.16602 337.5 C 120.16602 350.54167 109.58268 361.125 96.541016 361.125 C 83.499349 361.125 72.916016 350.54167 72.916016 337.5 C 72.916016 324.45834 83.499349 313.875 96.541016 313.875 z M 96.541016 388.875 C 109.58268 388.875 120.16602 399.45834 120.16602 412.5 C 120.16602 425.54167 109.58268 436.125 96.541016 436.125 C 83.499349 436.125 72.916016 425.54167 72.916016 412.5 C 72.916016 399.45834 83.499349 388.875 96.541016 388.875 z M 96.541016 463.875 C 109.58268 463.875 120.16602 474.45834 120.16602 487.5 C 120.16602 500.54167 109.58268 511.125 96.541016 511.125 C 83.499349 511.125 72.916016 500.54167 72.916016 487.5 C 72.916016 474.45834 83.499349 463.875 96.541016 463.875 z M 96.541016 538.875 C 109.58268 538.875 120.16602 549.45833 120.16602 562.5 C 120.16602 575.54166 109.58268 586.125 96.541016 586.125 C 83.499349 586.125 72.916016 575.54166 72.916016 562.5 C 72.916016 549.45833 83.499349 538.875 96.541016 538.875 z M 96.541016 613.875 C 109.58268 613.875 120.16602 624.45833 120.16602 637.5 C 120.16602 650.54166 109.58268 661.125 96.541016 661.125 C 83.499349 661.125 72.916016 650.54166 72.916016 637.5 C 72.916016 624.45833 83.499349 613.875 96.541016 613.875 z M 96.541016 688.875 C 109.58268 688.875 120.16602 699.45833 120.16602 712.5 C 120.16602 725.54166 109.58268 736.125 96.541016 736.125 C 83.499349 736.125 72.916016 725.54166 72.916016 712.5 C 72.916016 699.45833 83.499349 688.875 96.541016 688.875 z M 96.541016 763.875 C 109.58268 763.875 120.16602 774.45833 120.16602 787.5 C 120.16602 800.54166 109.58268 811.125 96.541016 811.125 C 83.499349 811.125 72.916016 800.54166 72.916016 787.5 C 72.916016 774.45833 83.499349 763.875 96.541016 763.875 z M 96.541016 838.875 C 109.58268 838.875 120.16602 849.45833 120.16602 862.5 C 120.16602 875.54166 109.58268 886.125 96.541016 886.125 C 83.499349 886.125 72.916016 875.54166 72.916016 862.5 C 72.916016 849.45833 83.499349 838.875 96.541016 838.875 z M 96.541016 913.875 C 109.58268 913.875 120.16602 924.45833 120.16602 937.5 C 120.16602 950.54166 109.58268 961.125 96.541016 961.125 C 83.499349 961.125 72.916016 950.54166 72.916016 937.5 C 72.916016 924.45833 83.499349 913.875 96.541016 913.875 z M 96.541016 988.875 C 109.58268 988.875 120.16602 999.45833 120.16602 1012.5 C 120.16602 1025.5417 109.58268 1036.125 96.541016 1036.125 C 83.499349 1036.125 72.916016 1025.5417 72.916016 1012.5 C 72.916016 999.45833 83.499349 988.875 96.541016 988.875 z M 96.541016 1063.875 C 109.58268 1063.875 120.16602 1074.4583 120.16602 1087.5 C 120.16602 1100.5417 109.58268 1111.125 96.541016 1111.125 C 83.499349 1111.125 72.916016 1100.5417 72.916016 1087.5 C 72.916016 1074.4583 83.499349 1063.875 96.541016 1063.875 z M 96.541016 1138.875 C 109.58268 1138.875 120.16602 1149.4583 120.16602 1162.5 C 120.16602 1175.5417 109.58268 1186.125 96.541016 1186.125 C 83.499349 1186.125 72.916016 1175.5417 72.916016 1162.5 C 72.916016 1149.4583 83.499349 1138.875 96.541016 1138.875 z M 96.541016 1213.875 C 109.58268 1213.875 120.16602 1224.4583 120.16602 1237.5 C 120.16602 1250.5417 109.58268 1261.125 96.541016 1261.125 C 83.499349 1261.125 72.916016 1250.5417 72.916016 1237.5 C 72.916016 1224.4583 83.499349 1213.875 96.541016 1213.875 z M 96.541016 1288.875 C 109.58268 1288.875 120.16602 1299.4583 120.16602 1312.5 C 120.16602 1325.5417 109.58268 1336.125 96.541016 1336.125 C 83.499349 1336.125 72.916016 1325.5417 72.916016 1312.5 C 72.916016 1299.4583 83.499349 1288.875 96.541016 1288.875 z M 96.541016 1363.875 C 109.58268 1363.875 120.16602 1374.4583 120.16602 1387.5 C 120.16602 1400.5417 109.58268 1411.125 96.541016 1411.125 C 83.499349 1411.125 72.916016 1400.5417 72.916016 1387.5 C 72.916016 1374.4583 83.499349 1363.875 96.541016 1363.875 z M 96.541016 1438.875 C 109.58268 1438.875 120.16602 1449.4583 120.16602 1462.5 C 120.16602 1475.5417 109.58268 1486.125 96.541016 1486.125 C 83.499349 1486.125 72.916016 1475.5417 72.916016 1462.5 C 72.916016 1449.4583 83.499349 1438.875 96.541016 1438.875 z M 96.541016 1513.875 C 109.58268 1513.875 120.16602 1524.4583 120.16602 1537.5 C 120.16602 1550.5417 109.58268 1561.125 96.541016 1561.125 C 83.499349 1561.125 72.916016 1550.5417 72.916016 1537.5 C 72.916016 1524.4583 83.499349 1513.875 96.541016 1513.875 z M 96.541016 1588.875 C 109.58268 1588.875 120.16602 1599.4583 120.16602 1612.5 C 120.16602 1625.5417 109.58268 1636.125 96.541016 1636.125 C 83.499349 1636.125 72.916016 1625.5417 72.916016 1612.5 C 72.916016 1599.4583 83.499349 1588.875 96.541016 1588.875 z M 96.541016 1663.875 C 109.58268 1663.875 120.16602 1674.4583 120.16602 1687.5 C 120.16602 1700.5417 109.58268 1711.125 96.541016 1711.125 C 83.499349 1711.125 72.916016 1700.5417 72.916016 1687.5 C 72.916016 1674.4583 83.499349 1663.875 96.541016 1663.875 z M 96.541016 1738.875 C 109.58268 1738.875 120.16602 1749.4583 120.16602 1762.5 C 120.16602 1775.5417 109.58268 1786.125 96.541016 1786.125 C 83.499349 1786.125 72.916016 1775.5417 72.916016 1762.5 C 72.916016 1749.4583 83.499349 1738.875 96.541016 1738.875 z M 96.541016 1813.875 C 109.58268 1813.875 120.16602 1824.4583 120.16602 1837.5 C 120.16602 1850.5417 109.58268 1861.125 96.541016 1861.125 C 83.499349 1861.125 72.916016 1850.5417 72.916016 1837.5 C 72.916016 1824.4583 83.499349 1813.875 96.541016 1813.875 z M 96.541016 1888.875 C 109.58268 1888.875 120.16602 1899.4583 120.16602 1912.5 C 120.16602 1925.5417 109.58268 1936.125 96.541016 1936.125 C 83.499349 1936.125 72.916016 1925.5417 72.916016 1912.5 C 72.916016 1899.4583 83.499349 1888.875 96.541016 1888.875 z M 96.541016 1963.875 C 109.58268 1963.875 120.16602 1974.4583 120.16602 1987.5 C 120.16602 2000.5417 109.58268 2011.125 96.541016 2011.125 C 83.499349 2011.125 72.916016 2000.5417 72.916016 1987.5 C 72.916016 1974.4583 83.499349 1963.875 96.541016 1963.875 z M 96.541016 2038.875 C 109.58268 2038.875 120.16602 2049.4583 120.16602 2062.5 C 120.16602 2075.5417 109.58268 2086.125 96.541016 2086.125 C 83.499349 2086.125 72.916016 2075.5417 72.916016 2062.5 C 72.916016 2049.4583 83.499349 2038.875 96.541016 2038.875 z M 96.541016 2113.875 C 109.58268 2113.875 120.16602 2124.4583 120.16602 2137.5 C 120.16602 2150.5417 109.58268 2161.125 96.541016 2161.125 C 83.499349 2161.125 72.916016 2150.5417 72.916016 2137.5 C 72.916016 2124.4583 83.499349 2113.875 96.541016 2113.875 z M 96.541016 2188.875 C 109.58268 2188.875 120.16602 2199.4583 120.16602 2212.5 C 120.16602 2225.5417 109.58268 2236.125 96.541016 2236.125 C 83.499349 2236.125 72.916016 2225.5417 72.916016 2212.5 C 72.916016 2199.4583 83.499349 2188.875 96.541016 2188.875 z " />
    <rect
         class="cls-10"
         x="193.14583"
         y="69.791656"
         width="1306.9396"
         height="2185.4167"
         id="rect147"
         style="fill:#e1e1e1;fill-opacity:1;stroke:none;stroke-width:3.83307" />
</svg>
