<?xml version="1.0" encoding="UTF-8" standalone="no"?>
<svg
     viewBox="0 0 1575 2325"
     width="1575"
     height="2325"
     version="1.1"
     id="svg146"
     sodipodi:docname="MediumCoilBookEven.svg"
     inkscape:version="1.4 (e7c3feb1, 2024-10-09)"
     xmlns:inkscape="http://www.inkscape.org/namespaces/inkscape"
     xmlns:sodipodi="http://sodipodi.sourceforge.net/DTD/sodipodi-0.dtd"
     xmlns="http://www.w3.org/2000/svg"
     xmlns:svg="http://www.w3.org/2000/svg">
    <defs
         id="defs146">
        <defs
             id="defs1">
            <style
                 id="style1">.cls-1{letter-spacing:.01em;}.cls-2{stroke-dasharray:0 0 .01 0;}.cls-2,.cls-3,.cls-4,.cls-5,.cls-6,.cls-7{stroke:#2ba4dd;}.cls-2,.cls-3,.cls-4,.cls-5,.cls-6,.cls-7,.cls-8,.cls-9,.cls-10,.cls-11{fill:none;}.cls-2,.cls-3,.cls-4,.cls-5,.cls-7{stroke-linejoin:round;}.cls-12{letter-spacing:.05em;}.cls-3{stroke-dasharray:0 0 0 0 5.04 5.03 .01 0;}.cls-13{letter-spacing:.05em;}.cls-14{letter-spacing:.05em;}.cls-15{letter-spacing:0em;}.cls-16{letter-spacing:0em;}.cls-5{stroke-dasharray:0 0 .01 0;}.cls-17{letter-spacing:.05em;}.cls-18,.cls-19{fill:#fff;}.cls-20,.cls-21{fill:red;}.cls-22{fill:#d1d2d2;}.cls-23{fill:#4e494b;}.cls-24{letter-spacing:.33em;}.cls-25{letter-spacing:0em;}.cls-26{letter-spacing:0em;}.cls-27{fill:#2ca4dd;}.cls-27,.cls-28,.cls-29,.cls-21,.cls-30{font-size:9.99px;}.cls-27,.cls-28,.cls-29,.cls-21,.cls-31{font-family:Arial-BoldMT, Arial;font-weight:700;}.cls-28{fill:#919395;}.cls-29,.cls-32{fill:#f0f;}.cls-6{stroke-dasharray:0 0 0 0 3 3 0 0;}.cls-33{letter-spacing:.25em;}.cls-34{letter-spacing:-.04em;}.cls-35{letter-spacing:-.04em;}.cls-7{stroke-dasharray:0 0 0 0 5.06 5.05 .01 0;}.cls-36{letter-spacing:-.02em;}.cls-37{letter-spacing:0em;}.cls-8{stroke:#f0f;}.cls-8,.cls-9{stroke-miterlimit:10;}.cls-9,.cls-11{stroke:red;}.cls-38,.cls-39{opacity:.5;}.cls-30{font-family:Arial-Black, 'Arial Black';font-weight:800;}.cls-30,.cls-31{fill:#221f1f;}.cls-40{letter-spacing:.24em;}.cls-41{fill:#b6d233;}.cls-41,.cls-19,.cls-42{fill-rule:evenodd;}.cls-31{font-size:8.16px;}.cls-10{stroke:#919395;}.cls-43{letter-spacing:0em;}.cls-44{letter-spacing:.28em;}.cls-45{letter-spacing:.28em;}.cls-46{letter-spacing:.28em;}.cls-47{letter-spacing:.28em;}.cls-48{letter-spacing:.28em;}.cls-39{fill:#929497;}.cls-49{letter-spacing:.28em;}.cls-50{letter-spacing:.28em;}.cls-51{letter-spacing:.28em;}.cls-32{opacity:.25;}.cls-52{letter-spacing:.28em;}.cls-53{letter-spacing:.28em;}</style>
        </defs>
    </defs>
    <sodipodi:namedview
         id="namedview146"
         pagecolor="#505050"
         bordercolor="#eeeeee"
         borderopacity="1"
         inkscape:showpageshadow="0"
         inkscape:pageopacity="0"
         inkscape:pagecheckerboard="0"
         inkscape:deskcolor="#d1d1d1"
         inkscape:zoom="0.13685938"
         inkscape:cx="-182.66925"
         inkscape:cy="1775.5451"
         inkscape:window-width="1872"
         inkscape:window-height="1027"
         inkscape:window-x="62"
         inkscape:window-y="25"
         inkscape:window-maximized="1"
         inkscape:current-layer="svg146" />
    <path
         class="cls-38"
         d="M -6.3000001e-6,-9.3000001e-6 V 2325 H 1575 V -9.3000001e-6 Z"
         id="path1"
         sodipodi:nodetypes="ccccc"
         style="stroke-width:4.16667" />
    <rect
         class="cls-9"
         x="37.499992"
         y="37.499992"
         width="1500"
         height="2250"
         id="clipping"
         style="stroke-width:4.16667;fill:#737373;fill-opacity:1;stroke:none" />
    <path
         id="rect1"
         style="stroke-width:4.16667;fill:#ff69ff;fill-opacity:1;opacity:0.42119565"
         class="cls-32"
         d="M 1419.541 37.5 L 1419.541 2289.916 L 1537.666 2289.916 L 1537.666 37.5 L 1419.541 37.5 z M 1478.584 88.875 C 1491.6257 88.875 1502.209 99.458335 1502.209 112.5 C 1502.209 125.54167 1491.6257 136.125 1478.584 136.125 C 1465.5424 136.125 1454.959 125.54167 1454.959 112.5 C 1454.959 99.458335 1465.5424 88.875 1478.584 88.875 z M 1478.584 163.875 C 1491.6257 163.875 1502.209 174.45834 1502.209 187.5 C 1502.209 200.54167 1491.6257 211.125 1478.584 211.125 C 1465.5424 211.125 1454.959 200.54167 1454.959 187.5 C 1454.959 174.45834 1465.5424 163.875 1478.584 163.875 z M 1478.584 238.875 C 1491.6257 238.875 1502.209 249.45834 1502.209 262.5 C 1502.209 275.54167 1491.6257 286.125 1478.584 286.125 C 1465.5424 286.125 1454.959 275.54167 1454.959 262.5 C 1454.959 249.45834 1465.5424 238.875 1478.584 238.875 z M 1478.584 313.875 C 1491.6257 313.875 1502.209 324.45834 1502.209 337.5 C 1502.209 350.54167 1491.6257 361.125 1478.584 361.125 C 1465.5424 361.125 1454.959 350.54167 1454.959 337.5 C 1454.959 324.45834 1465.5424 313.875 1478.584 313.875 z M 1478.584 388.875 C 1491.6257 388.875 1502.209 399.45834 1502.209 412.5 C 1502.209 425.54167 1491.6257 436.125 1478.584 436.125 C 1465.5424 436.125 1454.959 425.54167 1454.959 412.5 C 1454.959 399.45834 1465.5424 388.875 1478.584 388.875 z M 1478.584 463.875 C 1491.6257 463.875 1502.209 474.45834 1502.209 487.5 C 1502.209 500.54167 1491.6257 511.125 1478.584 511.125 C 1465.5424 511.125 1454.959 500.54167 1454.959 487.5 C 1454.959 474.45834 1465.5424 463.875 1478.584 463.875 z M 1478.584 538.875 C 1491.6257 538.875 1502.209 549.45833 1502.209 562.5 C 1502.209 575.54166 1491.6257 586.125 1478.584 586.125 C 1465.5424 586.125 1454.959 575.54166 1454.959 562.5 C 1454.959 549.45833 1465.5424 538.875 1478.584 538.875 z M 1478.584 613.875 C 1491.6257 613.875 1502.209 624.45833 1502.209 637.5 C 1502.209 650.54166 1491.6257 661.125 1478.584 661.125 C 1465.5424 661.125 1454.959 650.54166 1454.959 637.5 C 1454.959 624.45833 1465.5424 613.875 1478.584 613.875 z M 1478.584 688.875 C 1491.6257 688.875 1502.209 699.45833 1502.209 712.5 C 1502.209 725.54166 1491.6257 736.125 1478.584 736.125 C 1465.5424 736.125 1454.959 725.54166 1454.959 712.5 C 1454.959 699.45833 1465.5424 688.875 1478.584 688.875 z M 1478.584 763.875 C 1491.6257 763.875 1502.209 774.45833 1502.209 787.5 C 1502.209 800.54166 1491.6257 811.125 1478.584 811.125 C 1465.5424 811.125 1454.959 800.54166 1454.959 787.5 C 1454.959 774.45833 1465.5424 763.875 1478.584 763.875 z M 1478.625 838.875 C 1491.6667 838.875 1502.25 849.45833 1502.25 862.5 C 1502.25 875.54166 1491.6667 886.125 1478.625 886.125 C 1465.5833 886.125 1455 875.54166 1455 862.5 C 1455 849.45833 1465.5833 838.875 1478.625 838.875 z M 1478.584 913.875 C 1491.6257 913.875 1502.209 924.45833 1502.209 937.5 C 1502.209 950.54166 1491.6257 961.125 1478.584 961.125 C 1465.5424 961.125 1454.959 950.54166 1454.959 937.5 C 1454.959 924.45833 1465.5424 913.875 1478.584 913.875 z M 1478.584 988.875 C 1491.6257 988.875 1502.209 999.45833 1502.209 1012.5 C 1502.209 1025.5417 1491.6257 1036.125 1478.584 1036.125 C 1465.5424 1036.125 1454.959 1025.5417 1454.959 1012.5 C 1454.959 999.45833 1465.5424 988.875 1478.584 988.875 z M 1478.584 1063.875 C 1491.6257 1063.875 1502.209 1074.4583 1502.209 1087.5 C 1502.209 1100.5417 1491.6257 1111.125 1478.584 1111.125 C 1465.5424 1111.125 1454.959 1100.5417 1454.959 1087.5 C 1454.959 1074.4583 1465.5424 1063.875 1478.584 1063.875 z M 1478.584 1138.875 C 1491.6257 1138.875 1502.209 1149.4583 1502.209 1162.5 C 1502.209 1175.5417 1491.6257 1186.125 1478.584 1186.125 C 1465.5424 1186.125 1454.959 1175.5417 1454.959 1162.5 C 1454.959 1149.4583 1465.5424 1138.875 1478.584 1138.875 z M 1478.584 1213.875 C 1491.6257 1213.875 1502.209 1224.4583 1502.209 1237.5 C 1502.209 1250.5417 1491.6257 1261.125 1478.584 1261.125 C 1465.5424 1261.125 1454.959 1250.5417 1454.959 1237.5 C 1454.959 1224.4583 1465.5424 1213.875 1478.584 1213.875 z M 1478.584 1288.875 C 1491.6257 1288.875 1502.209 1299.4583 1502.209 1312.5 C 1502.209 1325.5417 1491.6257 1336.125 1478.584 1336.125 C 1465.5424 1336.125 1454.959 1325.5417 1454.959 1312.5 C 1454.959 1299.4583 1465.5424 1288.875 1478.584 1288.875 z M 1478.584 1363.875 C 1491.6257 1363.875 1502.209 1374.4583 1502.209 1387.5 C 1502.209 1400.5417 1491.6257 1411.125 1478.584 1411.125 C 1465.5424 1411.125 1454.959 1400.5417 1454.959 1387.5 C 1454.959 1374.4583 1465.5424 1363.875 1478.584 1363.875 z M 1478.584 1438.875 C 1491.6257 1438.875 1502.209 1449.4583 1502.209 1462.5 C 1502.209 1475.5417 1491.6257 1486.125 1478.584 1486.125 C 1465.5424 1486.125 1454.959 1475.5417 1454.959 1462.5 C 1454.959 1449.4583 1465.5424 1438.875 1478.584 1438.875 z M 1478.584 1513.875 C 1491.6257 1513.875 1502.209 1524.4583 1502.209 1537.5 C 1502.209 1550.5417 1491.6257 1561.125 1478.584 1561.125 C 1465.5424 1561.125 1454.959 1550.5417 1454.959 1537.5 C 1454.959 1524.4583 1465.5424 1513.875 1478.584 1513.875 z M 1478.584 1588.875 C 1491.6257 1588.875 1502.209 1599.4583 1502.209 1612.5 C 1502.209 1625.5417 1491.6257 1636.125 1478.584 1636.125 C 1465.5424 1636.125 1454.959 1625.5417 1454.959 1612.5 C 1454.959 1599.4583 1465.5424 1588.875 1478.584 1588.875 z M 1478.584 1663.875 C 1491.6257 1663.875 1502.209 1674.4583 1502.209 1687.5 C 1502.209 1700.5417 1491.6257 1711.125 1478.584 1711.125 C 1465.5424 1711.125 1454.959 1700.5417 1454.959 1687.5 C 1454.959 1674.4583 1465.5424 1663.875 1478.584 1663.875 z M 1478.584 1738.875 C 1491.6257 1738.875 1502.209 1749.4583 1502.209 1762.5 C 1502.209 1775.5417 1491.6257 1786.125 1478.584 1786.125 C 1465.5424 1786.125 1454.959 1775.5417 1454.959 1762.5 C 1454.959 1749.4583 1465.5424 1738.875 1478.584 1738.875 z M 1478.584 1813.875 C 1491.6257 1813.875 1502.209 1824.4583 1502.209 1837.5 C 1502.209 1850.5417 1491.6257 1861.125 1478.584 1861.125 C 1465.5424 1861.125 1454.959 1850.5417 1454.959 1837.5 C 1454.959 1824.4583 1465.5424 1813.875 1478.584 1813.875 z M 1478.584 1888.875 C 1491.6257 1888.875 1502.209 1899.4583 1502.209 1912.5 C 1502.209 1925.5417 1491.6257 1936.125 1478.584 1936.125 C 1465.5424 1936.125 1454.959 1925.5417 1454.959 1912.5 C 1454.959 1899.4583 1465.5424 1888.875 1478.584 1888.875 z M 1478.584 1963.875 C 1491.6257 1963.875 1502.209 1974.4583 1502.209 1987.5 C 1502.209 2000.5417 1491.6257 2011.125 1478.584 2011.125 C 1465.5424 2011.125 1454.959 2000.5417 1454.959 1987.5 C 1454.959 1974.4583 1465.5424 1963.875 1478.584 1963.875 z M 1478.584 2038.875 C 1491.6257 2038.875 1502.209 2049.4583 1502.209 2062.5 C 1502.209 2075.5417 1491.6257 2086.125 1478.584 2086.125 C 1465.5424 2086.125 1454.959 2075.5417 1454.959 2062.5 C 1454.959 2049.4583 1465.5424 2038.875 1478.584 2038.875 z M 1478.584 2113.875 C 1491.6257 2113.875 1502.209 2124.4583 1502.209 2137.5 C 1502.209 2150.5417 1491.6257 2161.125 1478.584 2161.125 C 1465.5424 2161.125 1454.959 2150.5417 1454.959 2137.5 C 1454.959 2124.4583 1465.5424 2113.875 1478.584 2113.875 z M 1478.584 2188.875 C 1491.6257 2188.875 1502.209 2199.4583 1502.209 2212.5 C 1502.209 2225.5417 1491.6257 2236.125 1478.584 2236.125 C 1465.5424 2236.125 1454.959 2225.5417 1454.959 2212.5 C 1454.959 2199.4583 1465.5424 2188.875 1478.584 2188.875 z " />
    <rect
         class="cls-9"
         x="73.666656"
         y="70.380455"
         width="1308.1875"
         height="2184.2393"
         id="rect146"
         style="fill:#c3c3c3;fill-opacity:1;stroke:none;stroke-width:3.83386" />
</svg>
