<svg version="1.1" id="YOUR_ARTWORK_HERE" xmlns="http://www.w3.org/2000/svg" xmlns:xlink="http://www.w3.org/1999/xlink" x="0px" y="0px" width="225" height="225" viewBox="0 0 225 225" enable-background="new 0 0 53.999 54" xml:space="preserve"><g transform="translate(-1.4210854715202004e-14, -1.4210854715202004e-14) scale(4.166666666666667)">
<rect y="0" fill="#929496" width="53.999" height="53.999"/>
<g>
	<defs>
		<rect id="SVGID_1_" y="0" width="54" height="54"/>
	</defs>
	<clipPath id="SVGID_2_">
		<use xlink:href="#SVGID_1_" overflow="visible"/>
	</clipPath>
	<path clip-path="url(#SVGID_2_)" fill="#FFFFFF" d="M27.01,36.264c1.659,2.857,4.284,7.751,5.817,10.736   c4.145,0,7.106,0,11.53,0.001c-0.104-5.858-6.026-14.557-8.071-19.532c1.976-2.002,7.709-1.226,8.713-4.205   c-0.774-5.691-7.844-6.049-12.886-7.441c0.164-5.776-1.969-8.731-5.104-8.826h-0.019c-3.136,0.095-5.271,3.05-5.103,8.826   C16.843,17.215,9.773,17.573,9,23.264c1.002,2.979,6.739,2.203,8.712,4.205c-2.044,4.976-7.966,13.674-8.069,19.532   C14.066,47,17.027,47,21.169,47c1.533-2.985,4.16-7.879,5.822-10.736H27.01z"/>
	
		<path clip-path="url(#SVGID_2_)" fill="none" stroke="#ED2224" stroke-width="0.5" stroke-linecap="round" stroke-linejoin="round" d="   M27.01,36.264c1.659,2.857,4.284,7.751,5.817,10.736c4.145,0,7.106,0,11.53,0.001c-0.104-5.858-6.026-14.557-8.071-19.532   c1.976-2.002,7.709-1.226,8.713-4.205c-0.774-5.691-7.844-6.049-12.886-7.441c0.164-5.776-1.969-8.731-5.104-8.826h-0.019   c-3.136,0.095-5.271,3.05-5.103,8.826C16.843,17.215,9.773,17.573,9,23.264c1.002,2.979,6.739,2.203,8.712,4.205   c-2.044,4.976-7.966,13.674-8.069,19.532C14.066,47,17.027,47,21.169,47c1.533-2.985,4.16-7.879,5.822-10.736H27.01z"/>
</g>
<g>
	
	
</g>
<g>
	<defs>
		<rect id="SVGID_3_" y="0" width="54" height="54"/>
	</defs>
	<clipPath id="SVGID_4_">
		<use xlink:href="#SVGID_3_" overflow="visible"/>
	</clipPath>
	<path clip-path="url(#SVGID_4_)" fill-rule="evenodd" clip-rule="evenodd" fill="#010101" d="M30.461,12.298   c0,1.902-1.543,3.444-3.444,3.444c-1.902,0-3.445-1.542-3.445-3.444s1.543-3.444,3.445-3.444   C28.918,8.854,30.461,10.396,30.461,12.298"/>
	<path clip-path="url(#SVGID_4_)" fill-rule="evenodd" clip-rule="evenodd" fill="#B7D334" d="M30.149,12.317   c0,1.729-1.4,3.132-3.131,3.132c-1.729,0-3.132-1.403-3.132-3.132s1.402-3.131,3.132-3.131   C28.749,9.186,30.149,10.588,30.149,12.317"/>
	<path clip-path="url(#SVGID_4_)" fill="#010101" d="M26.349,11.634c-0.043,0.384-0.076,0.692-0.098,0.925l-0.143,0.006   c0.002-0.008,0.003-0.016,0.003-0.026c0-0.017-0.006-0.041-0.019-0.069c-0.013-0.028-0.021-0.046-0.022-0.054   c-0.037,0.005-0.073,0.03-0.107,0.077c-0.033,0.046-0.064,0.069-0.092,0.068c-0.015-0.001-0.032-0.005-0.051-0.012   c-0.026,0.016-0.059,0.024-0.099,0.021c-0.038-0.006-0.073-0.012-0.108-0.016c-0.001-0.049-0.049-0.091-0.144-0.128   c0.001-0.02-0.009-0.048-0.029-0.086c-0.019-0.039-0.029-0.065-0.029-0.081c0-0.017,0.007-0.031,0.021-0.043   c-0.002-0.006-0.018-0.042-0.047-0.109c-0.021-0.049-0.031-0.091-0.03-0.125c0-0.028,0.006-0.053,0.018-0.076   c-0.017-0.165-0.024-0.308-0.022-0.425c0.004-0.183,0.03-0.35,0.079-0.504c-0.004-0.023-0.005-0.046-0.004-0.07   c0.001-0.122,0.044-0.207,0.126-0.253v-0.039c0.082-0.103,0.189-0.178,0.322-0.224c0.079,0.018,0.159,0.036,0.238,0.053   c0.088,0.032,0.15,0.084,0.184,0.158c0.027,0.017,0.04,0.048,0.039,0.097c0,0.054,0.006,0.09,0.019,0.105l-0.014,0.018   c0.014,0.114,0.021,0.184,0.021,0.209c-0.001,0.075-0.021,0.126-0.058,0.156c-0.014,0-0.049-0.011-0.107-0.037   c-0.014,0.014-0.028,0.021-0.044,0.02c-0.009,0-0.021-0.004-0.042-0.012c-0.021-0.008-0.037-0.012-0.052-0.012   c-0.009,0-0.019,0.001-0.028,0.004c-0.001-0.152,0.004-0.267,0.015-0.343c-0.016-0.01-0.03-0.032-0.047-0.067   c-0.016-0.036-0.036-0.055-0.061-0.06c-0.016,0.02-0.023,0.032-0.022,0.038L25.863,10.7c-0.047,0.051-0.078,0.141-0.095,0.268   c-0.015,0.148-0.035,0.245-0.059,0.294c0.02,0.022,0.031,0.052,0.03,0.09c0,0.014-0.003,0.036-0.007,0.068   c-0.005,0.031-0.007,0.054-0.008,0.069c0,0.018,0.002,0.033,0.006,0.047l-0.035,0.034c0.014,0.067,0.022,0.15,0.024,0.251   c-0.001,0.086-0.001,0.171-0.001,0.256c-0.002,0-0.018,0.001-0.049,0.003c-0.02-0.001-0.034,0.006-0.042,0.019   c0.012-0.001,0.023-0.002,0.032-0.002c0.043,0.001,0.077,0.031,0.1,0.091c0.025,0.059,0.046,0.089,0.063,0.09   c0.02,0,0.046-0.018,0.079-0.055c0.058-0.061,0.088-0.145,0.089-0.252c0.001-0.051-0.004-0.108-0.017-0.169   c-0.013,0.008-0.021,0.028-0.021,0.059c-0.031,0-0.051,0.005-0.059,0.019c-0.014-0.005-0.019-0.015-0.017-0.032   c0.003-0.026,0.003-0.04,0.003-0.041c0.025-0.008,0.036-0.018,0.036-0.031c0-0.007-0.004-0.018-0.013-0.033   c-0.008-0.015-0.011-0.029-0.011-0.038c0-0.008,0.002-0.016,0.006-0.023l0.013-0.113c0.043,0.011,0.135,0.017,0.276,0.016   c-0.004,0.009,0.002,0.022,0.017,0.038c0.016-0.013,0.029-0.021,0.045-0.02c0.012,0,0.028,0.006,0.052,0.016   C26.321,11.629,26.339,11.634,26.349,11.634"/>
	<path clip-path="url(#SVGID_4_)" fill="#010101" d="M27.436,12.638c-0.027-0.012-0.056-0.019-0.087-0.02   c-0.027,0-0.065,0.006-0.111,0.016c-0.053,0.011-0.089,0.017-0.107,0.019c-0.021-0.041-0.035-0.098-0.044-0.17   c-0.017-0.105-0.025-0.164-0.029-0.178c0.006-0.011,0.009-0.021,0.009-0.029c0.001-0.022-0.016-0.041-0.049-0.058   c-0.034-0.017-0.051-0.031-0.051-0.04c0-0.011,0.02-0.028,0.058-0.051c-0.008-0.012-0.015-0.036-0.02-0.072   s-0.013-0.06-0.026-0.071c-0.023,0.02-0.062,0.034-0.116,0.04c-0.053,0.005-0.088,0.014-0.106,0.025   c0.001,0.152-0.023,0.253-0.075,0.304c-0.027-0.005-0.047,0.005-0.062,0.032c-0.02,0.033-0.037,0.052-0.051,0.057l0.019,0.021   c-0.018,0.013-0.042,0.018-0.077,0.016c-0.055-0.003-0.083-0.004-0.087-0.004l-0.017-0.053l0.189-1.572   c0.002-0.099,0.007-0.166,0.015-0.202c-0.002-0.087,0.019-0.141,0.062-0.162c0.026,0.019,0.061,0.028,0.102,0.028   c0.033,0.001,0.085-0.005,0.154-0.021c0.07-0.014,0.119-0.021,0.146-0.02c0.096,0.001,0.138,0.07,0.125,0.206   c-0.009,0.108,0.008,0.251,0.051,0.429c0.046,0.192,0.067,0.335,0.066,0.43c-0.001,0.028,0.008,0.089,0.006,0.118   c-0.041,0.023-0.093,0.037-0.158,0.042c-0.056,0.002-0.112,0.005-0.171,0.007c-0.015-0.148-0.042-0.325-0.056-0.471   c-0.02-0.176-0.042-0.319-0.069-0.433l-0.09,0.832c-0.008,0.071,0.025,0.109,0.097,0.11c0.024,0,0.047-0.005,0.068-0.017   c0.018-0.006,0.041,0.008,0.072,0.039c-0.001,0.061,0.01,0.097,0.036,0.109c0.03-0.021,0.071-0.041,0.123-0.059   c0.045-0.017,0.089-0.032,0.132-0.048c0.024,0.034,0.04,0.084,0.048,0.15c0.007,0.093,0.013,0.148,0.017,0.163   c0.003,0.037,0.019,0.117,0.045,0.24c0.021,0.097,0.029,0.175,0.029,0.237C27.442,12.584,27.439,12.613,27.436,12.638"/>
	<path clip-path="url(#SVGID_4_)" fill="#010101" d="M28.777,11.25c-0.003,0.006-0.004,0.04-0.003,0.103   c-0.001,0.05-0.008,0.087-0.019,0.113c-0.014,0.039-0.021,0.094-0.024,0.165c0,0.016,0.001,0.04,0.003,0.074   c0,0.033-0.002,0.057-0.002,0.072c-0.002,0.123-0.022,0.211-0.062,0.266c0.002,0.032,0.003,0.063,0.003,0.094   c-0.001,0.097-0.035,0.228-0.1,0.392c-0.018,0.005-0.032,0.009-0.043,0.009c-0.024-0.001-0.04-0.015-0.051-0.041   c-0.012-0.026-0.02-0.052-0.029-0.075c0.006-0.149,0.004-0.366-0.009-0.653l0.018-0.017c-0.013-0.05-0.02-0.107-0.018-0.169   c0.001-0.044,0.007-0.109,0.017-0.195c0.009-0.085,0.015-0.15,0.016-0.192c0-0.027,0-0.053-0.003-0.079   c-0.065,0.161-0.112,0.432-0.14,0.813l-0.026,0.058c-0.008,0.019-0.023,0.031-0.049,0.032c-0.007-0.014-0.015-0.021-0.022-0.021   c-0.007,0-0.017,0.007-0.031,0.022c-0.016,0.013-0.028,0.02-0.037,0.018l-0.038,0.034c0.016,0.021,0.053,0.023,0.11,0.008   c0.045-0.013,0.067,0.003,0.069,0.05c0,0.039-0.01,0.091-0.031,0.157c-0.022,0.066-0.034,0.115-0.034,0.148   c-0.001,0.023,0.002,0.047,0.007,0.07l-0.201,0.032c-0.019-0.04-0.034-0.106-0.042-0.198c-0.01-0.092-0.024-0.158-0.043-0.197   c0.013-0.014,0.018-0.028,0.019-0.043c0-0.014-0.006-0.035-0.017-0.062s-0.018-0.048-0.019-0.062   c-0.001-0.02-0.01-0.073-0.021-0.154c-0.008-0.066-0.012-0.118-0.011-0.154c0-0.02,0-0.037,0.003-0.054   c0-0.013-0.007-0.033-0.023-0.059c-0.013-0.027-0.021-0.045-0.021-0.058c0-0.009,0.004-0.017,0.011-0.026   c-0.013-0.015-0.017-0.042-0.015-0.082c0.002-0.039-0.003-0.066-0.018-0.08c-0.027,0.074-0.043,0.176-0.046,0.304   c-0.001,0.178-0.003,0.282-0.005,0.309l0.021,0.018L27.8,11.957c0.014,0.069,0.022,0.159,0.021,0.268   c-0.007,0.196-0.01,0.287-0.009,0.274c-0.026,0.024-0.065,0.036-0.112,0.035c-0.062,0-0.103,0.005-0.124,0.016   c-0.025-0.043-0.036-0.099-0.035-0.167c0.001-0.052,0.009-0.116,0.027-0.192c-0.027-0.048-0.04-0.117-0.037-0.204   c0-0.022,0.002-0.062,0.007-0.122c0.003-0.049,0.004-0.085,0.002-0.108c0.019-0.009,0.03-0.019,0.03-0.032   c0-0.007-0.007-0.02-0.02-0.039c-0.012-0.018-0.018-0.032-0.018-0.042c0-0.013,0.008-0.024,0.023-0.035l-0.062-0.942   c0.037-0.025,0.098-0.037,0.181-0.035c0.091,0.003,0.154-0.002,0.188-0.014c0.006-0.004,0.013-0.006,0.02-0.006   c0.008,0,0.017,0.005,0.028,0.014c0.011,0.008,0.018,0.013,0.021,0.013c0.007,0,0.015-0.005,0.021-0.017l0.055,0.053   c0.019,0.069,0.035,0.201,0.052,0.397c0.017,0.17,0.042,0.298,0.077,0.384c0.048-0.173,0.087-0.317,0.119-0.433l0.063-0.46   l0.45-0.01c0.002,0.025,0.007,0.159,0.021,0.238c0.01,0.068,0.015,0.124,0.014,0.166c-0.001,0.048-0.008,0.093-0.021,0.13   c0.016,0.022,0.021,0.05,0.021,0.082C28.8,11.203,28.793,11.229,28.777,11.25"/>
	<path clip-path="url(#SVGID_4_)" fill="#010101" d="M29.703,12.271v-0.003c-0.013,0.025-0.019,0.054-0.021,0.087   c-0.002,0.021-0.003,0.051-0.001,0.09c0.001,0.045,0.001,0.076,0.001,0.094c-0.017,0-0.078-0.002-0.188-0.003   c-0.064-0.001-0.125,0.004-0.178,0.017l-0.054-0.059c-0.017,0.015-0.022,0.028-0.02,0.037c-0.009-0.002-0.053-0.003-0.133-0.003   c-0.062,0-0.108-0.007-0.139-0.019c-0.033,0.033-0.07,0.032-0.112-0.003c-0.014-0.011-0.016-0.031-0.004-0.059   c0.012-0.028,0.008-0.049-0.01-0.063c0.003-0.062,0.01-0.157,0.024-0.288c0.014-0.116,0.021-0.207,0.022-0.273   c0.001-0.089-0.004-0.175-0.021-0.257c0.023-0.021,0.048-0.031,0.074-0.03c0.032,0,0.068,0.016,0.11,0.046   c0.059,0.041,0.09,0.062,0.092,0.062l0.017,0.02c0.003-0.005,0.014-0.036,0.03-0.093c0.012-0.036,0.026-0.059,0.045-0.071   l0.019,0.018c0.008-0.004,0.034-0.022,0.077-0.055c0.032-0.022,0.061-0.076,0.079-0.076c0.022,0,0.041,0.013,0.061,0.036   c0.033,0.018,0.053,0.089,0.062,0.124c0.012,0.036,0.021,0.072,0.029,0.107c-0.087,0.003-0.159,0-0.214-0.007   c-0.014,0.022-0.034,0.025-0.059,0.01c-0.025-0.015-0.043-0.013-0.057,0.006c-0.001,0.035-0.002,0.099-0.003,0.189   c-0.004,0.082-0.004,0.147-0.004,0.193c0.001,0.071,0.006,0.137,0.015,0.198c0.016,0,0.09,0.002,0.222,0.004   C29.56,12.249,29.638,12.256,29.703,12.271 M29.709,10.876c-0.018,0.002-0.036,0.002-0.058,0.002   c-0.045-0.001-0.104-0.008-0.177-0.021c-0.092-0.013-0.147-0.02-0.166-0.023c-0.029,0.04-0.042,0.097-0.044,0.171   c-0.003,0.159-0.003,0.228,0,0.207c0.025,0.016,0.04,0.045,0.039,0.088c-0.003,0.058-0.003,0.088-0.002,0.091   c-0.014,0.005-0.022,0.024-0.022,0.057c-0.02-0.008-0.043-0.025-0.064-0.047c-0.031-0.03-0.047,0.07-0.045,0.045l-0.02,0.06   l-0.016-0.018c-0.017,0.002-0.043-0.007-0.08-0.025c-0.038-0.018-0.065-0.035-0.08-0.05c0.001-0.031,0.006-0.049,0.015-0.053   l-0.037-0.041l-0.017,0.026c-0.022-0.203-0.016-0.581,0.01-0.794c0.074,0.013,0.156,0.021,0.245,0.025   c0.061,0.002,0.145,0.004,0.252,0.004c0.124,0.001,0.214,0.001,0.27,0.001c0.022,0.022,0.033,0.05,0.032,0.086   c0,0.021-0.006,0.056-0.017,0.103S29.71,10.853,29.709,10.876"/>
	<path clip-path="url(#SVGID_4_)" fill="#010101" d="M26.436,14.032L26.436,14.032c0,0-0.005,0.042-0.015,0.127   c-0.005,0.053-0.017,0.093-0.038,0.123l-0.012-0.011c-0.024,0.05-0.056,0.08-0.097,0.091c-0.02,0.02-0.048,0.032-0.084,0.034   c-0.022,0.001-0.072-0.005-0.15-0.019c-0.039-0.024-0.06-0.037-0.063-0.04c-0.024-0.018-0.036-0.036-0.034-0.054   c-0.024-0.023-0.056-0.066-0.069-0.119c-0.015-0.059-0.023-0.062-0.038-0.082c-0.022,0.016-0.029-0.018-0.042-0.039l0.012-0.009   c-0.008-0.005-0.011-0.01-0.012-0.018c0-0.004,0.002-0.01,0.006-0.02c0.004-0.008,0.007-0.015,0.006-0.02   c-0.001-0.007-0.005-0.014-0.014-0.019c0.009-0.045,0.018-0.114,0.025-0.206c0.015-0.009,0.023-0.025,0.022-0.049   c-0.001-0.023,0.002-0.04,0.01-0.047c0.037-0.074,0.097-0.125,0.181-0.15c0.005,0,0.026,0,0.066-0.002   c0.027-0.001,0.048,0.002,0.062,0.007c0.024-0.004,0.05,0.002,0.075,0.018c0.021,0.017,0.044,0.033,0.064,0.05   c0.041,0.043,0.062,0.093,0.066,0.148c0.001,0.018-0.001,0.038-0.004,0.058c-0.03,0-0.052,0.019-0.064,0.06l-0.116,0.01   c-0.013-0.018-0.019-0.04-0.021-0.07c-0.001-0.01-0.001-0.025,0-0.044c0.001-0.02,0.001-0.035,0-0.045   c-0.002-0.03-0.009-0.055-0.021-0.073l-0.036,0.021c-0.014-0.006-0.021-0.014-0.021-0.025c0-0.004,0.001-0.01,0.001-0.016   c0.002-0.008,0.003-0.012,0.002-0.015c0-0.012-0.011-0.019-0.032-0.022c-0.014,0.132-0.018,0.266-0.012,0.405   c0.003,0.004,0.014,0.006,0.033,0.009c0.014,0.001,0.022,0.006,0.022,0.013c0,0.003-0.001,0.006-0.002,0.012l-0.012,0.008   c0.005,0.011,0.01,0.024,0.011,0.041c0.001,0.01,0,0.024-0.001,0.043s-0.002,0.034-0.001,0.041   c0.001,0.029,0.008,0.049,0.021,0.063c-0.002,0.021,0.007,0.035,0.023,0.043c0.013-0.005,0.022-0.007,0.031-0.008   c0.035-0.002,0.061,0.017,0.074,0.058v0.021c0,0.007,0.004,0.011,0.011,0.015c0.016-0.01,0.022-0.026,0.022-0.05   c0-0.028,0.004-0.045,0.011-0.053c-0.002-0.013-0.01-0.032-0.023-0.056c-0.013-0.025-0.02-0.043-0.021-0.057   c-0.001-0.015,0.004-0.029,0.013-0.042c-0.008-0.002-0.012-0.008-0.012-0.016c0.001-0.013,0.001-0.02,0.001-0.021   C26.307,14.018,26.371,14.018,26.436,14.032"/>
	<path clip-path="url(#SVGID_4_)" fill="#010101" d="M26.964,14.141h-0.002c-0.007,0.013-0.009,0.031-0.007,0.057   c0.003,0.034,0.005,0.053,0.005,0.053c-0.005,0.003-0.012,0-0.021-0.007c-0.014,0.004-0.02,0.013-0.019,0.025   c0,0.001,0.001,0.005,0.002,0.01v0.009c0.001,0.01-0.002,0.017-0.009,0.022c-0.015-0.009-0.035-0.014-0.061-0.017   c-0.024-0.002-0.05-0.005-0.071-0.007c0-0.116-0.017-0.231-0.048-0.343c0,0.001-0.001-0.01-0.002-0.034   c0-0.017-0.004-0.029-0.012-0.036l-0.01,0.009c0-0.001,0.003-0.005,0.01-0.01c0.008-0.005,0.011-0.011,0.01-0.016   c0-0.002,0-0.006-0.002-0.007l-0.011-0.009c-0.02,0.007-0.029,0.023-0.028,0.048c0.001,0.018-0.006,0.029-0.02,0.037   c0.005,0.003,0.008,0.009,0.008,0.014c0,0.004,0,0.009-0.001,0.014c-0.001,0.006-0.002,0.012-0.002,0.015   c0.001,0.007,0.006,0.014,0.013,0.019c0,0.004,0.003,0.051,0.008,0.138c0.004,0.056,0.003,0.103-0.004,0.141l0.001,0.022   c-0.007,0-0.017,0-0.025,0.001c-0.011,0.001-0.026,0.002-0.046,0.005c-0.021,0.003-0.035,0.004-0.045,0.005   c-0.039,0.002-0.067-0.005-0.082-0.02l-0.019-0.48c-0.007-0.024-0.012-0.057-0.014-0.099l-0.006-0.092   c-0.004-0.045-0.011-0.081-0.018-0.104c0.003-0.017,0.019-0.026,0.043-0.028c0.017-0.001,0.037,0.001,0.064,0.007   c0.013-0.006,0.031-0.01,0.053-0.011c0.006-0.001,0.017-0.001,0.03-0.001c0.015,0,0.025-0.001,0.032-0.001   c0.042-0.002,0.068-0.016,0.083-0.039c0.018-0.001,0.04,0.007,0.062,0.018c0.022,0.013,0.042,0.02,0.06,0.02   c0.045,0.027,0.069,0.072,0.073,0.133c0,0.013-0.005,0.069-0.017,0.163l-0.078,0.067c0.014,0.025,0.029,0.077,0.048,0.159   C26.908,14.059,26.931,14.109,26.964,14.141 M26.819,13.594l0.001,0.002c0.003,0.005,0-0.015-0.002-0.063   c-0.001-0.024-0.01-0.04-0.024-0.05c-0.01,0.012,0.001,0.018-0.003,0.047c-0.004,0.029-0.022,0.021-0.032,0.034   c-0.026,0-0.032,0.015-0.038-0.01c-0.012-0.042-0.021-0.038-0.022-0.039l-0.012,0.007c-0.004,0.004-0.009,0.008-0.013,0.012   c-0.006,0.005-0.011,0.007-0.016,0.005c0,0.006-0.003,0.013-0.008,0.025c-0.006,0.011-0.008,0.018-0.008,0.022   c0.001,0.008,0.006,0.014,0.02,0.018c-0.003,0.017-0.004,0.036-0.002,0.054c0,0.01,0.002,0.034,0.007,0.071   c0.005,0.028,0.007,0.053,0.006,0.073c0.01,0.001,0.019,0.001,0.027,0c0.036-0.002,0.061-0.017,0.073-0.043   c0.003-0.008,0.008-0.038,0.013-0.086C26.79,13.636,26.801,13.609,26.819,13.594"/>
	<path clip-path="url(#SVGID_4_)" fill="#010101" d="M27.567,14.327c-0.015-0.004-0.031-0.006-0.049-0.005   c-0.014,0.001-0.034,0.005-0.06,0.011c-0.028,0.007-0.048,0.011-0.059,0.012c-0.013-0.017-0.022-0.041-0.029-0.072   c-0.013-0.047-0.021-0.072-0.022-0.078c0.004-0.005,0.005-0.009,0.005-0.014c-0.001-0.009-0.011-0.017-0.031-0.022   c-0.018-0.006-0.028-0.012-0.028-0.017c0-0.004,0.011-0.012,0.031-0.024c-0.006-0.005-0.01-0.016-0.014-0.031   c-0.003-0.015-0.009-0.026-0.018-0.031c-0.012,0.011-0.033,0.019-0.062,0.022c-0.029,0.005-0.048,0.01-0.058,0.017   c0.006,0.066,0,0.184-0.026,0.208c-0.015-0.002-0.026,0.003-0.033,0.016c-0.009,0.015-0.018,0.024-0.024,0.028l0.01,0.008   c-0.009,0.007-0.022,0.009-0.042,0.01c-0.03,0.001-0.045,0.002-0.048,0.002l-0.012-0.023l0.046-0.772   c-0.002-0.044-0.002-0.073,0.002-0.089c-0.006-0.038,0.004-0.063,0.026-0.073c0.017,0.006,0.035,0.009,0.058,0.008   c0.018-0.002,0.046-0.006,0.084-0.016c0.038-0.008,0.063-0.014,0.079-0.014c0.052-0.004,0.077,0.025,0.075,0.085   c-0.002,0.049,0.013,0.11,0.042,0.187c0.032,0.082,0.049,0.145,0.053,0.188c0,0.012,0.018,0.039,0.018,0.052   c-0.022,0.012-0.052,0.02-0.086,0.024c-0.031,0.004-0.062,0.007-0.095,0.011c-0.013-0.065-0.043-0.143-0.057-0.207   c-0.016-0.076-0.034-0.139-0.052-0.187l-0.021,0.369c0,0.032,0.019,0.047,0.058,0.044c0.012-0.001,0.025-0.003,0.036-0.009   c0.01-0.003,0.022,0.002,0.04,0.014c0.003,0.027,0.01,0.043,0.024,0.047c0.016-0.012,0.037-0.022,0.065-0.032   c0.023-0.008,0.048-0.017,0.07-0.025c0.015,0.013,0.024,0.035,0.03,0.064c0.009,0.041,0.015,0.064,0.017,0.07   c0.003,0.017,0.013,0.052,0.032,0.104c0.015,0.043,0.022,0.078,0.023,0.103C27.569,14.304,27.568,14.314,27.567,14.327"/>
	<path clip-path="url(#SVGID_4_)" fill="#010101" d="M28.009,13.452L28.009,13.452c-0.011,0.018-0.028,0.022-0.047,0.011   c-0.005-0.001-0.024,0-0.059,0.002c-0.028,0.003-0.049,0-0.062-0.003c-0.004,0.001-0.01,0.003-0.02,0.01   c-0.01,0.005-0.017,0.009-0.021,0.009c-0.006,0-0.009-0.005-0.01-0.016c0-0.002-0.001-0.01-0.001-0.022   c0-0.009-0.006-0.014-0.013-0.018l-0.021,0.016c-0.005,0.004-0.008,0.009-0.008,0.014c0,0.005,0.004,0.01,0.01,0.018   c0.007,0.008,0.011,0.014,0.012,0.017s0.003,0.042,0.007,0.117c0.003,0.046,0.011,0.084,0.026,0.112   c0.004-0.004,0.013-0.007,0.029-0.007c0.015-0.001,0.024-0.004,0.031-0.011c0.01,0.009,0.026,0.01,0.051,0.002   c0.022-0.008,0.041-0.006,0.051,0.008l-0.004,0.114c-0.009-0.002-0.024-0.007-0.042-0.014c-0.005,0.015-0.018,0.027-0.032,0.03   c-0.006,0.003-0.024,0.004-0.053,0.007c0-0.006-0.006-0.011-0.016-0.017c-0.028,0.014-0.039,0.048-0.032,0.099   c0.001-0.005,0.003,0.004,0.004,0.027c0.001,0.014-0.003,0.025-0.009,0.031c-0.02,0.003-0.042-0.001-0.07-0.011   c-0.028-0.012-0.047-0.017-0.06-0.016c-0.006,0.001-0.01,0.002-0.015,0.003l-0.029,0.009l-0.048-0.519l-0.006-0.099   c0.04-0.014,0.088-0.022,0.148-0.025c0.046-0.004,0.105-0.003,0.18,0c0.004-0.009,0.013,0.004,0.024,0.004   c0.005-0.001,0.013,0,0.022,0c0.012,0.003,0.021,0.003,0.026,0.003s0.011-0.002,0.016-0.003l0.007-0.009   c0.023,0.006,0.034,0.017,0.035,0.034c0,0.007-0.002,0.019-0.007,0.035c-0.004,0.017-0.005,0.029-0.005,0.038   C28.004,13.438,28.006,13.445,28.009,13.452 M27.822,14.317c-0.013,0.006-0.029,0.009-0.054,0.011   c-0.029,0.002-0.049,0.004-0.054,0.005c-0.004-0.004-0.008-0.001-0.015-0.029c-0.005-0.017-0.017-0.026-0.034-0.024   c-0.004,0-0.01,0.001-0.017,0.002l-0.028,0.002l-0.016-0.263c0.017-0.008,0.036-0.012,0.059-0.014   c0.022-0.001,0.043,0.001,0.06,0.006c0,0.011,0.015,0.014,0.041,0.013l0.031-0.001C27.812,14.099,27.825,14.231,27.822,14.317"/>
	<path clip-path="url(#SVGID_4_)" fill="#010101" d="M28.647,13.474l0.002,0.001c-0.016-0.001-0.064,0.003-0.101,0.008   c-0.032,0.004-0.056,0.004-0.073,0.001c-0.015,0.011-0.021,0.025-0.016,0.043l0.009,0.005c-0.008,0.007-0.01,0.013-0.008,0.018   l0.008,0.008c-0.001,0.152-0.002,0.236-0.001,0.252c0.002,0.04,0.007,0.077,0.015,0.107c-0.007,0.019-0.009,0.041-0.008,0.066   c0.001,0.016,0.006,0.042,0.013,0.077s0.015,0.152,0.017,0.17c0,0.013,0,0.026-0.002,0.038c-0.014,0.006-0.03,0.01-0.047,0.011   c-0.028,0.001-0.059-0.005-0.092-0.018c-0.004,0.004-0.008,0.007-0.015,0.012c-0.006,0.003-0.006,0.009-0.004,0.013   c-0.01,0.003-0.024-0.001-0.044-0.012c-0.01-0.154-0.038-0.469-0.079-0.786c-0.013,0.013-0.039,0.002-0.066,0.006   c-0.032,0.003-0.066-0.002-0.077,0.003c-0.019-0.017-0.014-0.022-0.015-0.05c-0.002-0.027-0.012-0.095-0.004-0.122   c0-0.008,0.062-0.003,0.097-0.006c0.047-0.003,0.058,0.008,0.06,0.008c0.005-0.006,0.029-0.003,0.045-0.005   c0.012,0.006,0.024-0.005,0.024,0.004c0,0.005,0,0.037-0.003,0.046c-0.004,0.01-0.006,0.017-0.006,0.021   c0.001,0.01,0.008-0.005,0.024,0.001c0.021,0,0.039-0.001,0.061-0.003c0.021,0.003,0.047-0.005,0.046,0.014   c0.004-0.006,0.007,0.004,0.038-0.01c0.023-0.01,0.039-0.038,0.035-0.058c-0.005-0.01,0.012-0.017,0.002-0.011   c0.012-0.007,0.002-0.003,0.014-0.009c0.04,0.005,0.061,0,0.069,0c0.017,0,0.056,0.01,0.066,0.004   c0.008,0.015,0.013,0.062,0.013,0.088C28.646,13.45,28.647,13.472,28.647,13.474"/>
	<path clip-path="url(#SVGID_4_)" fill="#010101" d="M29.165,14.01L29.165,14.01c-0.006,0.01-0.01,0.024-0.01,0.038   c-0.001,0.009,0,0.023,0.002,0.04c0.003,0.02,0.005,0.033,0.006,0.041c-0.01,0.001-0.044,0.002-0.104,0.006   c-0.036,0.002-0.068,0.006-0.095,0.015l-0.033-0.024c-0.008,0.007-0.01,0.013-0.008,0.017c-0.006-0.001-0.031,0.001-0.075,0.004   c-0.033,0.002-0.059,0.001-0.077-0.003c-0.015,0.015-0.035,0.017-0.06,0.003c-0.008-0.004-0.01-0.012-0.004-0.026   c0.005-0.012,0.003-0.021-0.009-0.028c-0.001-0.026,0-0.069,0.005-0.127c0.004-0.052,0.004-0.092,0.002-0.121   c-0.002-0.039-0.01-0.077-0.02-0.112c0.011-0.011,0.024-0.016,0.038-0.017c0.019-0.001,0.038,0.005,0.063,0.016   c0.032,0.016,0.051,0.024,0.053,0.024l0.008,0.008c0.002-0.003,0.007-0.016,0.015-0.042c0.006-0.016,0.013-0.027,0.022-0.033   l0.01,0.007c0.004-0.002,0.019-0.011,0.04-0.026c0.019-0.012,0.03-0.054,0.04-0.055c0.011-0.001,0.023,0.004,0.035,0.014   c0.018,0.007,0.033,0.053,0.041,0.069c0.005,0.016,0.011,0.031,0.019,0.045c-0.049,0.005-0.089,0.007-0.118,0.006   c-0.008,0.011-0.019,0.012-0.031,0.007c-0.016-0.006-0.025-0.005-0.031,0.005c0.001,0.015,0.003,0.043,0.005,0.083   c0.001,0.037,0.003,0.065,0.005,0.085c0.002,0.032,0.008,0.06,0.016,0.087c0.008,0,0.049-0.004,0.121-0.007   C29.085,14.006,29.128,14.006,29.165,14.01 M29.114,13.406c-0.009,0.001-0.021,0.002-0.031,0.002   c-0.025,0.002-0.058,0.001-0.098-0.002c-0.051-0.001-0.081-0.002-0.092-0.003c-0.013,0.019-0.016,0.035-0.013,0.067   c0.004,0.071,0.005,0.101,0.006,0.091c0.015,0.006,0.024,0.018,0.025,0.037c0.001,0.026,0.001,0.039,0.002,0.04   c-0.008,0.002-0.012,0.012-0.01,0.027c-0.013-0.003-0.023-0.009-0.039-0.019c-0.018-0.012-0.021,0.03-0.021,0.019l-0.008,0.027   l-0.01-0.008c-0.01,0.001-0.023-0.002-0.046-0.008c-0.021-0.006-0.035-0.013-0.045-0.019c-0.001-0.014,0.001-0.021,0.008-0.023   l-0.023-0.018l-0.008,0.013c-0.02-0.088-0.033-0.244-0.025-0.339c0.04,0.002,0.088-0.004,0.138-0.007   c0.032-0.001,0.08-0.002,0.14-0.007c0.066-0.005,0.117-0.009,0.146-0.011c0.014,0.01,0.021,0.022,0.022,0.037   c0,0.009-0.001,0.025-0.006,0.046S29.114,13.395,29.114,13.406"/>
	<path clip-path="url(#SVGID_4_)" fill="#010101" d="M29.696,13.919h-0.002c-0.006,0.013-0.009,0.032-0.006,0.057   c0.003,0.035,0.004,0.053,0.004,0.054c-0.004,0.002-0.012-0.001-0.021-0.008c-0.015,0.005-0.019,0.014-0.019,0.026   c0,0.001,0.001,0.004,0.002,0.008c0,0.005,0,0.009,0.001,0.01c0.001,0.01-0.003,0.017-0.009,0.022   c-0.016-0.008-0.036-0.014-0.062-0.017c-0.023-0.002-0.048-0.005-0.07-0.006c0-0.117-0.017-0.231-0.048-0.343   c0,0.001,0-0.011-0.002-0.036c0-0.016-0.004-0.028-0.012-0.036l-0.01,0.01c0-0.001,0.004-0.005,0.01-0.01   c0.007-0.005,0.011-0.01,0.01-0.015c0-0.003,0-0.006-0.002-0.008l-0.012-0.009c-0.019,0.007-0.028,0.022-0.027,0.048   c0.001,0.018-0.006,0.03-0.02,0.037c0.005,0.003,0.008,0.009,0.008,0.014c0,0.004,0,0.009-0.001,0.014   c-0.002,0.006-0.002,0.012-0.002,0.015c0,0.007,0.005,0.014,0.013,0.019c0,0.005,0.002,0.051,0.007,0.139   c0.005,0.055,0.004,0.103-0.004,0.141l0.002,0.022c-0.008-0.001-0.016-0.001-0.025,0c-0.012,0.001-0.026,0.003-0.046,0.005   c-0.021,0.002-0.035,0.004-0.044,0.005c-0.04,0.001-0.068-0.005-0.083-0.02l-0.019-0.479c-0.007-0.024-0.012-0.057-0.014-0.099   l-0.006-0.093c-0.004-0.045-0.01-0.08-0.018-0.104c0.003-0.017,0.019-0.026,0.043-0.027c0.017-0.002,0.038,0.001,0.065,0.006   c0.012-0.006,0.03-0.009,0.051-0.011c0.007,0,0.018-0.001,0.032-0.001c0.014,0,0.024-0.001,0.031-0.001   c0.042-0.002,0.068-0.016,0.083-0.038c0.019,0,0.04,0.006,0.062,0.017c0.023,0.014,0.042,0.02,0.061,0.02   c0.046,0.027,0.069,0.072,0.073,0.133c0,0.014-0.005,0.068-0.016,0.163l-0.079,0.068c0.014,0.025,0.03,0.076,0.048,0.158   C29.64,13.838,29.663,13.887,29.696,13.919 M29.552,13.373h0.003c0.001,0.007,0-0.014-0.004-0.062   c-0.001-0.024-0.01-0.04-0.024-0.05c-0.008,0.013-0.011-0.017-0.016,0.013c-0.004,0.028-0.011,0.049-0.021,0.062   c-0.027,0-0.033-0.017-0.048-0.039c-0.011-0.014-0.017-0.001-0.017-0.003l-0.007,0.007c-0.004,0.004-0.009,0.008-0.013,0.012   c-0.005,0.004-0.01,0.006-0.017,0.004c0.001,0.006-0.003,0.014-0.008,0.024c-0.005,0.012-0.008,0.019-0.007,0.024   c0.001,0.008,0.006,0.013,0.02,0.017c-0.002,0.018-0.003,0.036-0.002,0.054c0.001,0.011,0.003,0.034,0.007,0.071   c0.006,0.029,0.007,0.054,0.007,0.074c0.009,0,0.018,0,0.027,0c0.036-0.003,0.061-0.017,0.071-0.044   c0.004-0.008,0.009-0.038,0.014-0.085C29.523,13.413,29.533,13.388,29.552,13.373"/>
	<path clip-path="url(#SVGID_4_)" fill="#010101" d="M24.401,11.706L24.401,11.706c-0.005,0.045-0.006,0.076-0.005,0.092   c-0.006,0.004-0.015,0.005-0.026,0.003c-0.014-0.003-0.023-0.004-0.026-0.004c-0.005,0-0.01,0.002-0.014,0.006   c-0.009-0.005-0.014-0.007-0.018-0.007c-0.008,0.006-0.013,0.013-0.012,0.022c0.001,0.004,0.002,0.011,0.005,0.02   c0.002,0.01,0.005,0.017,0.005,0.022c0,0.005-0.001,0.015-0.004,0.028c-0.003,0.014-0.004,0.025-0.004,0.034   c0.001,0.01,0.003,0.025,0.007,0.047c0.003,0.021,0.006,0.038,0.007,0.049c-0.004,0.021-0.007,0.042-0.006,0.064   c0.002,0.026,0.01,0.062,0.022,0.106c0.002,0,0.005,0.001,0.007,0c0.005,0,0.012-0.003,0.02-0.01   c0.007-0.008,0.014-0.012,0.019-0.012c0.004,0,0.008,0,0.013,0.003c0.014,0.045,0.02,0.075,0.022,0.087c0,0.007,0,0.013-0.001,0.02   c-0.02,0.005-0.035-0.002-0.044-0.021c0.001-0.005-0.002-0.011-0.009-0.017l-0.023,0.025c0.023,0.004,0.031,0.021,0.027,0.052   c-0.002,0.007-0.007,0.01-0.015,0.011c-0.013-0.001-0.019-0.001-0.018-0.001l-0.02-0.034L24.303,12.3   c-0.006-0.016-0.014-0.023-0.023-0.023c-0.004,0-0.013,0.004-0.024,0.012c-0.011,0.007-0.021,0.011-0.029,0.012   c-0.006,0-0.012-0.002-0.018-0.005c-0.001-0.009-0.003-0.019-0.004-0.029c-0.002-0.01-0.007-0.016-0.015-0.02   c-0.001-0.024,0-0.087,0.001-0.189c0.002-0.078,0-0.141-0.002-0.189c-0.001-0.02-0.003-0.04-0.004-0.059   c-0.004-0.006-0.009-0.009-0.012-0.009c-0.004,0.001-0.008,0.003-0.014,0.01c-0.007,0.007-0.012,0.01-0.017,0.01   c0-0.009-0.004-0.022-0.01-0.038c-0.007-0.017-0.011-0.029-0.011-0.037c-0.001-0.014,0.004-0.025,0.014-0.035l0.028,0.007   c0.011-0.015,0.015-0.041,0.013-0.078c0-0.007-0.001-0.018-0.002-0.033c-0.002-0.015-0.003-0.026-0.003-0.033   c-0.003-0.059,0.015-0.09,0.055-0.093c0.014,0,0.032,0.002,0.053,0.009l0.026,0.006c0.002,0.01,0.004,0.02,0.004,0.031   c0.001,0.015,0,0.036-0.002,0.065c-0.002,0.029-0.003,0.05-0.002,0.063c0.002,0.02,0.005,0.04,0.011,0.056   c0.006,0,0.016-0.004,0.03-0.01c0.013-0.006,0.022-0.01,0.028-0.01C24.385,11.69,24.395,11.695,24.401,11.706 M24.32,11.789   l-0.001-0.027l-0.009-0.008L24.32,11.789z"/>
	<path clip-path="url(#SVGID_4_)" fill="#010101" d="M24.721,11.623L24.721,11.623c-0.001,0.021-0.004,0.042-0.008,0.063   c-0.004,0.025-0.011,0.043-0.021,0.057c-0.001,0-0.011-0.005-0.029-0.014c-0.012-0.006-0.022-0.009-0.031-0.008   c-0.007,0.046-0.011,0.108-0.012,0.187c-0.001,0.099-0.001,0.161-0.002,0.182c-0.012-0.001-0.021,0.002-0.026,0.01   c-0.006,0.009-0.011,0.018-0.017,0.026c-0.001,0.005-0.003,0.01-0.003,0.014c0,0.006,0.007,0.012,0.016,0.018   c0.011,0.005,0.017,0.012,0.017,0.019c-0.005,0.016-0.015,0.025-0.03,0.026c-0.006,0-0.019-0.003-0.036-0.008   c-0.017-0.003-0.029-0.006-0.037-0.006l-0.017-0.331c0.008-0.009,0.01-0.016,0.009-0.018l-0.009-0.007   c0-0.014,0.001-0.084,0.002-0.209c0-0.085,0.003-0.154,0.01-0.206c-0.001,0.001,0.023-0.001,0.072-0.005   c0.03-0.001,0.05,0.008,0.058,0.025c0,0.018-0.001,0.047-0.005,0.087c-0.003,0.038-0.005,0.066-0.003,0.086   c0,0.025,0.004,0.047,0.011,0.068C24.655,11.644,24.686,11.625,24.721,11.623 M24.837,11.693c0.002,0.03,0.004,0.061,0.006,0.09   c0.006,0.129,0.004,0.267-0.006,0.413c-0.012,0.01-0.029,0.013-0.053,0.007c-0.022-0.006-0.039-0.004-0.049,0.007   c-0.014-0.018-0.021-0.048-0.023-0.093c-0.004-0.067-0.006-0.099-0.006-0.102c-0.002-0.162,0.013-0.295,0.048-0.395   C24.794,11.63,24.821,11.654,24.837,11.693"/>
	<path clip-path="url(#SVGID_4_)" fill="#010101" d="M25.245,11.862c-0.005,0.01-0.008,0.02-0.007,0.032   c0.001,0.012,0.001,0.023,0.002,0.035c-0.001,0.009-0.003,0.018-0.008,0.028c-0.007-0.002-0.013-0.003-0.018-0.003   c-0.005,0.001-0.01,0.002-0.016,0.006c-0.006,0.004-0.01,0.006-0.013,0.006c-0.005,0-0.011-0.002-0.019-0.005l-0.054-0.079   c0.002,0.023,0.007,0.043,0.016,0.061c0.004,0.009,0.008,0.018,0.013,0.027c-0.032,0.006-0.05,0.007-0.054,0.004l-0.007,0.009   l-0.019-0.024c-0.015,0.017-0.018,0.044-0.01,0.078c0.01,0.037,0.01,0.065,0.002,0.081c0.011,0.018,0.026,0.026,0.042,0.026   c0.007-0.001,0.012-0.003,0.018-0.009c0.007-0.019,0.015-0.038,0.023-0.057c0.011-0.023,0.024-0.035,0.038-0.035   c0.01-0.002,0.023,0.004,0.037,0.016c0.018,0.007,0.027,0.014,0.028,0.025c0,0.006-0.004,0.016-0.012,0.029   c-0.009,0.015-0.013,0.026-0.013,0.034c0,0.002,0.002,0.005,0.002,0.007c-0.011,0.009-0.021,0.022-0.03,0.038   c-0.008,0.017-0.02,0.028-0.034,0.035c-0.014,0.011-0.025,0.019-0.036,0.019c-0.009,0.001-0.021-0.006-0.038-0.02   c-0.017-0.014-0.033-0.02-0.047-0.019c-0.007-0.013-0.022-0.029-0.046-0.045c-0.024-0.017-0.039-0.035-0.045-0.054   c0,0.001,0-0.005-0.001-0.019c0-0.007-0.003-0.013-0.01-0.015l0.009-0.008c-0.012,0-0.018-0.007-0.019-0.02v-0.01v-0.009   c0-0.009-0.003-0.016-0.009-0.019l-0.001-0.041c-0.001-0.021-0.006-0.036-0.013-0.045c0.007-0.049,0.015-0.099,0.022-0.148   c0.013-0.057,0.032-0.087,0.057-0.087c0.004,0,0.007,0,0.011,0.001c0.023-0.022,0.05-0.034,0.081-0.035   c0.036-0.003,0.074,0.008,0.117,0.031C25.217,11.738,25.237,11.797,25.245,11.862 M25.084,11.733l-0.007,0.01   c-0.006,0.001-0.012-0.001-0.019-0.009l0.001,0.027c-0.011,0.013-0.016,0.034-0.014,0.061c0.002,0.046,0.003,0.068,0.003,0.067   l0.035-0.001c0.017-0.009,0.024-0.025,0.023-0.046c-0.001-0.011-0.004-0.029-0.011-0.054   C25.088,11.765,25.084,11.747,25.084,11.733"/>
	<polygon clip-path="url(#SVGID_4_)" fill-rule="evenodd" clip-rule="evenodd" fill="#010101" points="25.518,13.035 25.553,13.056    25.67,12.747 25.631,12.734 25.513,13.042 25.548,13.063  "/>
	<polygon clip-path="url(#SVGID_4_)" fill-rule="evenodd" clip-rule="evenodd" fill="#010101" points="25.569,12.992 25.555,12.998    25.518,13.034 25.548,13.064 25.586,13.024 25.57,13.032  "/>
	<polygon clip-path="url(#SVGID_4_)" fill-rule="evenodd" clip-rule="evenodd" fill="#010101" points="25.854,12.99 25.871,12.978    25.569,12.992 25.571,13.032 25.872,13.017 25.891,13.003  "/>
	<polygon clip-path="url(#SVGID_4_)" fill-rule="evenodd" clip-rule="evenodd" fill="#010101" points="25.99,12.707 25.97,12.681    25.854,12.99 25.891,13.002 26.008,12.693 25.989,12.668  "/>
	<polygon clip-path="url(#SVGID_4_)" fill-rule="evenodd" clip-rule="evenodd" fill="#010101" points="25.703,12.716 25.688,12.723    25.99,12.708 25.988,12.668 25.687,12.681 25.672,12.689  "/>
	<polygon clip-path="url(#SVGID_4_)" fill-rule="evenodd" clip-rule="evenodd" fill="#010101" points="25.67,12.747 25.666,12.753    25.703,12.716 25.672,12.689 25.635,12.727 25.631,12.733  "/>
	<polygon clip-path="url(#SVGID_4_)" fill-rule="evenodd" clip-rule="evenodd" fill="#010101" points="25.921,13.027 25.947,13.015    25.882,12.979 25.862,13.015 25.929,13.052 25.958,13.04 25.919,13.027  "/>
	<polygon clip-path="url(#SVGID_4_)" fill-rule="evenodd" clip-rule="evenodd" fill="#010101" points="26.047,12.742 26.035,12.718    25.918,13.026 25.958,13.039 26.074,12.73 26.064,12.707  "/>
	<polygon clip-path="url(#SVGID_4_)" fill-rule="evenodd" clip-rule="evenodd" fill="#010101" points="26.008,12.693 25.98,12.708    26.047,12.742 26.064,12.708 26,12.671 25.97,12.681  "/>
	<polygon clip-path="url(#SVGID_4_)" fill="#010101" points="25.652,12.741 25.65,12.74 25.687,12.703 25.966,12.688 25.97,12.681    25.99,12.688 26.008,12.694 26.007,12.698 26.057,12.725 26.075,12.731 26.067,12.75 26.205,13.076 26.089,13.385 25.939,13.033    25.92,13.041 25.919,13.027 25.92,13.023 25.873,12.997 25.862,13.015 25.857,12.997 25.569,13.011 25.531,13.049  "/>
	<polygon clip-path="url(#SVGID_4_)" fill-rule="evenodd" clip-rule="evenodd" fill="#010101" points="26.069,13.378 26.107,13.377    25.958,13.024 25.92,13.042 26.069,13.394 26.107,13.392 26.068,13.378  "/>
	<polygon clip-path="url(#SVGID_4_)" fill-rule="evenodd" clip-rule="evenodd" fill="#010101" points="26.187,13.084 26.186,13.069    26.067,13.378 26.106,13.392 26.226,13.083 26.224,13.067  "/>
	<polygon clip-path="url(#SVGID_4_)" fill-rule="evenodd" clip-rule="evenodd" fill="#010101" points="26.074,12.73 26.037,12.732    26.187,13.084 26.224,13.067 26.074,12.716 26.036,12.717  "/>
	<polygon clip-path="url(#SVGID_4_)" fill-rule="evenodd" clip-rule="evenodd" fill="#FFFFFF" points="26.064,12.81 26.082,12.847    26.088,12.884 26.087,12.921 26.075,12.958 26.057,12.996 26.031,13.028 25.999,13.059 25.958,13.085 25.938,13.095 25.916,13.103    25.892,13.108 25.869,13.113 25.847,13.116 25.825,13.118 25.803,13.116 25.779,13.114 25.761,13.109 25.739,13.103 25.721,13.095    25.704,13.084 25.688,13.073 25.67,13.061 25.658,13.046 25.646,13.03 25.628,12.994 25.623,12.956 25.623,12.919 25.636,12.881    25.651,12.846 25.678,12.811 25.71,12.781 25.752,12.756 25.772,12.746 25.795,12.737 25.817,12.732 25.839,12.727 25.864,12.725    25.886,12.722 25.908,12.725 25.93,12.726 25.95,12.733 25.971,12.74 25.989,12.746 26.008,12.756 26.023,12.765 26.04,12.779    26.052,12.795  "/>
	<polygon clip-path="url(#SVGID_4_)" fill-rule="evenodd" clip-rule="evenodd" fill="#010101" points="26.08,12.871 26.097,12.908    26.103,12.947 26.101,12.984 26.09,13.019 26.074,13.058 26.046,13.091 26.016,13.121 25.974,13.145 25.952,13.158 25.93,13.166    25.908,13.171 25.883,13.176 25.862,13.179 25.839,13.18 25.817,13.179 25.793,13.176 25.775,13.171 25.754,13.163 25.737,13.156    25.718,13.145 25.702,13.136 25.687,13.123 25.672,13.109 25.661,13.091 25.643,13.057 25.637,13.019 25.64,12.98 25.649,12.945    25.667,12.907 25.691,12.873 25.726,12.844 25.766,12.818 25.789,12.807 25.81,12.8 25.833,12.792 25.856,12.788 25.878,12.787    25.899,12.784 25.921,12.787 25.943,12.788 25.966,12.793 25.986,12.8 26.004,12.808 26.023,12.817 26.037,12.829 26.056,12.84    26.066,12.856 26.08,12.873  "/>
	<polygon clip-path="url(#SVGID_4_)" fill-rule="evenodd" clip-rule="evenodd" fill="#FFFFFF" points="26.09,12.914 26.107,12.95    26.113,12.988 26.111,13.024 26.102,13.06 26.083,13.098 26.057,13.133 26.026,13.162 25.986,13.188 25.964,13.199 25.941,13.207    25.919,13.212 25.894,13.217 25.872,13.221 25.852,13.222 25.829,13.221 25.805,13.216 25.786,13.211 25.766,13.205 25.748,13.197    25.728,13.187 25.714,13.178 25.697,13.164 25.685,13.148 25.672,13.133 25.654,13.098 25.649,13.06 25.651,13.023 25.661,12.986    25.677,12.949 25.704,12.914 25.737,12.886 25.778,12.859 25.8,12.849 25.822,12.838 25.844,12.834 25.868,12.83 25.89,12.827    25.911,12.825 25.936,12.828 25.956,12.83 25.976,12.834 25.997,12.842 26.016,12.851 26.034,12.859 26.05,12.87 26.066,12.88    26.077,12.896  "/>
	<polygon clip-path="url(#SVGID_4_)" fill-rule="evenodd" clip-rule="evenodd" fill="#010101" points="26.105,12.974 26.122,13.011    26.128,13.049 26.128,13.086 26.116,13.123 26.099,13.16 26.072,13.193 26.041,13.224 26,13.249 25.98,13.26 25.956,13.268    25.933,13.274 25.911,13.279 25.887,13.281 25.866,13.284 25.844,13.281 25.822,13.279 25.8,13.274 25.78,13.267 25.762,13.26    25.743,13.249 25.728,13.238 25.713,13.226 25.699,13.212 25.687,13.195 25.671,13.159 25.664,13.121 25.665,13.084 25.676,13.046    25.693,13.01 25.72,12.976 25.752,12.946 25.793,12.92 25.814,12.911 25.836,12.901 25.86,12.897 25.882,12.891 25.904,12.889    25.928,12.889 25.949,12.889 25.97,12.89 25.991,12.895 26.012,12.902 26.032,12.911 26.049,12.921 26.066,12.932 26.081,12.943    26.094,12.958 26.105,12.976  "/>
	<polygon clip-path="url(#SVGID_4_)" fill-rule="evenodd" clip-rule="evenodd" fill="#FFFFFF" points="26.127,13.015 26.144,13.05    26.151,13.087 26.15,13.126 26.14,13.162 26.121,13.2 26.094,13.233 26.063,13.263 26.023,13.288 26.001,13.3 25.978,13.308    25.956,13.314 25.933,13.319 25.909,13.321 25.889,13.322 25.866,13.321 25.844,13.318 25.822,13.313 25.802,13.306 25.785,13.298    25.766,13.289 25.75,13.279 25.735,13.265 25.722,13.25 25.711,13.234 25.693,13.199 25.686,13.16 25.687,13.123 25.699,13.087    25.716,13.05 25.741,13.015 25.774,12.987 25.815,12.96 25.836,12.949 25.858,12.939 25.881,12.938 25.904,12.93 25.926,12.928    25.949,12.926 25.972,12.929 25.992,12.93 26.013,12.935 26.035,12.943 26.053,12.951 26.072,12.959 26.087,12.971 26.103,12.984    26.116,12.999  "/>
	<polygon clip-path="url(#SVGID_4_)" fill-rule="evenodd" clip-rule="evenodd" fill="#010101" points="26.144,13.077 26.158,13.113    26.167,13.15 26.165,13.188 26.154,13.225 26.136,13.261 26.11,13.294 26.077,13.326 26.038,13.352 26.016,13.362 25.992,13.37    25.97,13.375 25.947,13.379 25.926,13.383 25.902,13.385 25.881,13.383 25.858,13.38 25.839,13.375 25.817,13.369 25.798,13.361    25.781,13.351 25.764,13.34 25.75,13.328 25.736,13.312 25.724,13.296 25.708,13.261 25.7,13.223 25.701,13.186 25.714,13.147    25.73,13.112 25.756,13.077 25.79,13.048 25.831,13.022 25.851,13.013 25.874,13.003 25.896,12.998 25.919,12.994 25.943,12.991    25.964,12.988 25.986,12.991 26.007,12.991 26.03,12.997 26.05,13.003 26.068,13.013 26.085,13.022 26.102,13.035 26.117,13.044    26.131,13.06  "/>
	<polygon clip-path="url(#SVGID_4_)" fill-rule="evenodd" clip-rule="evenodd" fill="#010101" points="24.092,12.603 24.093,12.591    23.975,12.901 24.012,12.914 24.13,12.604 24.131,12.595  "/>
	<polygon clip-path="url(#SVGID_4_)" fill-rule="evenodd" clip-rule="evenodd" fill="#010101" points="24.088,12.587 24.089,12.585    24.092,12.604 24.131,12.595 24.126,12.578 24.127,12.575  "/>
	
		<rect x="24.085" y="12.563" clip-path="url(#SVGID_4_)" fill-rule="evenodd" clip-rule="evenodd" fill="#010101" width="0.041" height="0.018"/>
	
		<rect x="24.08" y="12.547" clip-path="url(#SVGID_4_)" fill-rule="evenodd" clip-rule="evenodd" fill="#010101" width="0.041" height="0.017"/>
	<polygon clip-path="url(#SVGID_4_)" fill-rule="evenodd" clip-rule="evenodd" fill="#010101" points="24.074,12.535 24.074,12.535    24.079,12.554 24.117,12.541 24.114,12.524 24.114,12.526  "/>
	<polygon clip-path="url(#SVGID_4_)" fill-rule="evenodd" clip-rule="evenodd" fill="#010101" points="24.069,12.513 24.069,12.519    24.074,12.535 24.113,12.526 24.108,12.509 24.11,12.516  "/>
	<polygon clip-path="url(#SVGID_4_)" fill-rule="evenodd" clip-rule="evenodd" fill="#010101" points="24.109,12.505 24.07,12.499    24.069,12.512 24.11,12.516 24.11,12.501 24.071,12.495 24.109,12.506  "/>
	
		<rect x="24.099" y="13.391" clip-path="url(#SVGID_4_)" fill-rule="evenodd" clip-rule="evenodd" fill="#4D494A" width="0.043" height="0.02"/>
	<polygon clip-path="url(#SVGID_4_)" fill-rule="evenodd" clip-rule="evenodd" fill="#010101" points="24.23,13.15 24.231,13.141    24.114,13.448 24.15,13.46 24.268,13.151 24.268,13.142  "/>
	<polygon clip-path="url(#SVGID_4_)" fill-rule="evenodd" clip-rule="evenodd" fill="#010101" points="24.226,13.128 24.23,13.15    24.268,13.142 24.265,13.121 24.225,13.127  "/>
	
		<rect x="24.222" y="13.104" clip-path="url(#SVGID_4_)" fill-rule="evenodd" clip-rule="evenodd" fill="#010101" width="0.041" height="0.02"/>
	<polygon clip-path="url(#SVGID_4_)" fill-rule="evenodd" clip-rule="evenodd" fill="#010101" points="24.216,13.085 24.217,13.087    24.221,13.108 24.258,13.099 24.256,13.077 24.257,13.081  "/>
	<polygon clip-path="url(#SVGID_4_)" fill-rule="evenodd" clip-rule="evenodd" fill="#010101" points="24.253,13.067 24.213,13.062    24.216,13.085 24.257,13.081 24.253,13.059 24.214,13.054  "/>
	<path clip-path="url(#SVGID_4_)" fill="#4D494A" d="M23.975,12.84l-0.019,0.005L23.975,12.84z"/>
	<polygon clip-path="url(#SVGID_4_)" fill="#4D494A" points="23.995,12.904 23.996,12.903 24.004,12.903 24.013,12.913    23.995,12.908  "/>
	<polygon clip-path="url(#SVGID_4_)" fill="#010101" points="23.952,12.827 23.973,12.824 23.973,12.809 24.091,12.499    24.09,12.501 24.09,12.513 24.094,12.529 24.1,12.548 24.104,12.564 24.109,12.582 24.112,12.598 24.13,12.604 24.013,12.913    24.005,12.903 23.996,12.903 23.995,12.904 23.995,12.908 24.013,12.913 23.995,12.913 23.996,12.926 23.983,12.912 23.974,12.911    23.972,12.894 23.979,12.892 23.987,12.872 23.967,12.878 23.961,12.863 23.957,12.845 23.975,12.84 23.957,12.845 23.957,12.844     "/>
	<polygon clip-path="url(#SVGID_4_)" fill="#010101" points="23.994,12.887 24.858,12.859 24.881,12.86 24.885,12.862    24.905,12.867 24.908,12.867 24.93,12.875 24.952,12.884 24.953,12.885 24.974,12.898 24.978,12.899 24.994,12.913 24.999,12.916    25.011,12.93 25.012,12.933 25.019,12.946 25.02,12.95 24.982,12.962 24.976,12.952 24.976,12.954 24.966,12.941 24.952,12.929    24.956,12.933 24.934,12.922 24.935,12.921 24.913,12.913 24.894,12.906 24.873,12.901 24.877,12.902 24.857,12.9 24.857,12.898    23.995,12.927  "/>
	<polygon clip-path="url(#SVGID_4_)" fill="#010101" points="24.982,12.962 24.982,12.961 24.985,12.964  "/>
	<polygon clip-path="url(#SVGID_4_)" fill-rule="evenodd" clip-rule="evenodd" fill="#010101" points="25.443,13.687 25.443,13.674    25.325,13.985 25.364,13.999 25.482,13.688 25.482,13.675  "/>
	<polygon clip-path="url(#SVGID_4_)" fill-rule="evenodd" clip-rule="evenodd" fill="#010101" points="25.102,12.657 25.1,12.652    25.443,13.687 25.482,13.676 25.138,12.639 25.138,12.636  "/>
	<polygon clip-path="url(#SVGID_4_)" fill-rule="evenodd" clip-rule="evenodd" fill="#010101" points="25.095,12.646 25.094,12.644    25.102,12.657 25.138,12.637 25.129,12.623 25.128,12.623 25.093,12.646  "/>
	<polygon clip-path="url(#SVGID_4_)" fill-rule="evenodd" clip-rule="evenodd" fill="#010101" points="25.087,12.633 25.084,12.63    25.093,12.646 25.128,12.622 25.115,12.605 25.112,12.602  "/>
	<polygon clip-path="url(#SVGID_4_)" fill-rule="evenodd" clip-rule="evenodd" fill="#010101" points="25.074,12.625 25.071,12.622    25.088,12.632 25.113,12.602 25.095,12.589 25.093,12.587  "/>
	<polygon clip-path="url(#SVGID_4_)" fill-rule="evenodd" clip-rule="evenodd" fill="#010101" points="25.055,12.612 25.054,12.612    25.074,12.625 25.093,12.588 25.071,12.576 25.069,12.576  "/>
	<polygon clip-path="url(#SVGID_4_)" fill-rule="evenodd" clip-rule="evenodd" fill="#010101" points="25.035,12.603 25.031,12.604    25.055,12.612 25.069,12.576 25.048,12.565 25.046,12.565 25.033,12.604  "/>
	<polygon clip-path="url(#SVGID_4_)" fill-rule="evenodd" clip-rule="evenodd" fill="#010101" points="25.013,12.595 25.011,12.596    25.033,12.604 25.046,12.565 25.024,12.558 25.012,12.597  "/>
	<polygon clip-path="url(#SVGID_4_)" fill-rule="evenodd" clip-rule="evenodd" fill="#010101" points="24.995,12.592 24.991,12.591    25.012,12.597 25.023,12.558 25,12.552 24.998,12.551  "/>
	<polygon clip-path="url(#SVGID_4_)" fill-rule="evenodd" clip-rule="evenodd" fill="#010101" points="24.976,12.59 24.975,12.591    24.996,12.592 24.999,12.552 24.976,12.548 24.975,12.55  "/>
	<polygon clip-path="url(#SVGID_4_)" fill-rule="evenodd" clip-rule="evenodd" fill="#010101" points="24.132,12.604 24.111,12.617    24.976,12.59 24.974,12.55 24.111,12.579 24.093,12.591 24.13,12.604  "/>
	<polygon clip-path="url(#SVGID_4_)" fill="#4D494A" points="24.35,13.547 24.347,13.546 24.349,13.545  "/>
	<path clip-path="url(#SVGID_4_)" fill="#4D494A" d="M24.816,13.687l-0.003,0.042L24.816,13.687z"/>
	<path clip-path="url(#SVGID_4_)" fill="#010101" d="M24.1,13.418l0.005,0.019l0.007,0.021l0.009,0.015l0.053,0.029l0.053,0.027   l0.051,0.028l0.051,0.026h0.002l0.052,0.023l0.052,0.025l0.056,0.022l0.058,0.022h0.002l0.06,0.016l0.062,0.016l0.002,0.001   l0.066,0.009l0.069,0.012h0.002l0.075,0.004l0.003-0.001l0.08,0.003l0.085-0.004l0.092-0.004l0.018-0.013l0.117-0.308l-0.02-0.028   l0.002,0.04l-0.006-0.008l0.003-0.011L25.249,13.4l-0.006-0.008L25.24,13.4l-0.067,0.004h-0.087l-0.08-0.001l-0.073-0.004   l-0.072-0.01l-0.067-0.011l-0.06-0.017l-0.061-0.016l-0.057-0.021l-0.055-0.02l-0.052-0.024l-0.052-0.025l-0.053-0.026   l-0.051-0.028l-0.051-0.027l-0.035-0.019v-0.003l-0.018-0.007l-0.005-0.022l-0.004-0.02l-0.001-0.006l0.014-0.03l-0.02-0.007   l-0.001-0.001l-0.018-0.005l-0.118,0.308l-0.001,0.01l0.003,0.021L24.1,13.418z M24.115,13.368v0.004l-0.001-0.001L24.115,13.368z"/>
	
		<rect x="25.172" y="13.381" clip-path="url(#SVGID_4_)" fill-rule="evenodd" clip-rule="evenodd" fill="#010101" width="0.091" height="0.04"/>
	
		<rect x="25.087" y="13.385" clip-path="url(#SVGID_4_)" fill-rule="evenodd" clip-rule="evenodd" fill="#010101" width="0.085" height="0.04"/>
	<polygon clip-path="url(#SVGID_4_)" fill-rule="evenodd" clip-rule="evenodd" fill="#010101" points="25.006,13.423 25.006,13.423    25.088,13.425 25.086,13.386 25.006,13.383 25.008,13.383 25.004,13.424  "/>
	<polygon clip-path="url(#SVGID_4_)" fill-rule="evenodd" clip-rule="evenodd" fill="#010101" points="24.928,13.418 24.93,13.418    25.004,13.424 25.008,13.383 24.933,13.378 24.935,13.379  "/>
	
		<rect x="24.863" y="13.374" transform="matrix(-0.991 -0.1335 0.1335 -0.991 47.7832 29.9935)" clip-path="url(#SVGID_4_)" fill-rule="evenodd" clip-rule="evenodd" fill="#010101" width="0.069" height="0.04"/>
	<polygon clip-path="url(#SVGID_4_)" fill-rule="evenodd" clip-rule="evenodd" fill="#010101" points="24.791,13.397 24.792,13.397    24.858,13.409 24.867,13.369 24.797,13.357 24.799,13.358  "/>
	<polygon clip-path="url(#SVGID_4_)" fill-rule="evenodd" clip-rule="evenodd" fill="#010101" points="24.73,13.381 24.791,13.398    24.799,13.359 24.739,13.342 24.73,13.383  "/>
	<polygon clip-path="url(#SVGID_4_)" fill-rule="evenodd" clip-rule="evenodd" fill="#010101" points="24.667,13.366 24.668,13.367    24.729,13.384 24.738,13.343 24.679,13.326 24.68,13.327  "/>
	<polygon clip-path="url(#SVGID_4_)" fill-rule="evenodd" clip-rule="evenodd" fill="#010101" points="24.609,13.345 24.609,13.345    24.667,13.366 24.68,13.327 24.623,13.305 24.625,13.306 24.609,13.344  "/>
	
		<rect x="24.558" y="13.293" transform="matrix(-0.9312 -0.3644 0.3644 -0.9312 42.6351 34.6721)" clip-path="url(#SVGID_4_)" fill-rule="evenodd" clip-rule="evenodd" fill="#010101" width="0.06" height="0.042"/>
	
		<rect x="24.506" y="13.271" transform="matrix(-0.9156 -0.4022 0.4022 -0.9156 41.653 35.3274)" clip-path="url(#SVGID_4_)" fill-rule="evenodd" clip-rule="evenodd" fill="#010101" width="0.057" height="0.041"/>
	<polygon clip-path="url(#SVGID_4_)" fill-rule="evenodd" clip-rule="evenodd" fill="#010101" points="24.448,13.271 24.449,13.274    24.501,13.298 24.517,13.263 24.464,13.236 24.466,13.236 24.447,13.273  "/>
	<polygon clip-path="url(#SVGID_4_)" fill-rule="evenodd" clip-rule="evenodd" fill="#010101" points="24.396,13.247 24.446,13.273    24.465,13.237 24.414,13.211 24.395,13.248  "/>
	<polygon clip-path="url(#SVGID_4_)" fill-rule="evenodd" clip-rule="evenodd" fill="#010101" points="24.345,13.22 24.395,13.248    24.414,13.212 24.363,13.184 24.344,13.219  "/>
	
		<rect x="24.299" y="13.168" transform="matrix(-0.884 -0.4675 0.4675 -0.884 39.6673 36.2191)" clip-path="url(#SVGID_4_)" fill-rule="evenodd" clip-rule="evenodd" fill="#010101" width="0.057" height="0.039"/>
	<polygon clip-path="url(#SVGID_4_)" fill-rule="evenodd" clip-rule="evenodd" fill="#010101" points="24.268,13.152 24.24,13.163    24.292,13.192 24.312,13.157 24.26,13.129 24.23,13.14  "/>
	<polygon clip-path="url(#SVGID_4_)" fill-rule="evenodd" clip-rule="evenodd" fill="#010101" points="29.651,12.593 29.533,12.904    29.919,13.032 30.007,12.826 30.01,12.806 30.01,12.786 30.007,12.764 30,12.743 29.987,12.725 29.978,12.704 29.963,12.684    29.945,12.667 29.927,12.651 29.908,12.634 29.888,12.619 29.87,12.608 29.849,12.595 29.829,12.587 29.809,12.576 29.791,12.57    29.773,12.564 29.755,12.562 29.736,12.56 29.718,12.562 29.701,12.565 29.683,12.57 29.667,12.582  "/>
	<polygon clip-path="url(#SVGID_4_)" fill-rule="evenodd" clip-rule="evenodd" fill="#010101" points="29.901,13.022 29.925,13.012    29.539,12.882 29.526,12.921 29.912,13.05 29.938,13.041  "/>
	<polygon clip-path="url(#SVGID_4_)" fill="#010101" points="23.952,12.809 23.954,12.803 24.072,12.495 24.109,12.506    23.995,12.811 23.993,12.824 23.992,12.82 23.952,12.827 23.952,12.822  "/>
	<polygon clip-path="url(#SVGID_4_)" fill="#4D494A" points="25.842,13.539 25.836,13.543 25.835,13.543  "/>
	<path clip-path="url(#SVGID_4_)" fill="#010101" d="M23.966,12.879l0.004,0.017l0.001-0.002l0.03-0.007l-0.008,0.02l0.865-0.028   l0.02,0.001l0.023,0.007l0.021,0.008l0.023,0.007l0.02,0.013l0.017,0.013l0.012,0.014l0.007,0.014l-0.019,0.007l0.343,1.035h0.02   v0.013h0.031l0.03-0.001l0.026,0.001l0.024-0.004L25.481,14l0.025-0.013l0.023-0.019l0.027-0.026l0.001-0.003l0.016-0.021   l0.017-0.023l0.021-0.023l0.015-0.026l0.018-0.029l0.018-0.024l0.015-0.029l0.021-0.028l0.016-0.023l0.022-0.026l0.019-0.025   l0.022-0.022l0.019-0.02l0.021-0.018l0.019-0.016l0.024-0.013l0.004-0.002l-0.014-0.015l0.014,0.015l0.024-0.026l0.021-0.019   l0.018-0.019l0.02-0.017l0.019-0.014l0.021-0.012l0.019-0.01l0.02-0.01l0.022-0.005l0.021-0.01l0.022-0.004l0.025-0.004   l0.029-0.005l0.031-0.002l0.034-0.003l0.033-0.001l0.003,0.001l3.73-0.279l0.02-0.003l0.021-0.004l0.017-0.005l0.02-0.005   l0.017-0.009l0.02-0.011l0.015-0.014l0.017-0.015l0.004-0.004l0.066-0.152l-0.035-0.022l0.015,0.015l-0.001,0.002l-0.018-0.012   l-0.016,0.039l-0.012,0.005l-0.015,0.006l-0.016,0.007l-0.017,0.003l-0.019,0.004l-0.021,0.003l-3.73,0.279l-0.025,0.002h-0.021   l-0.023,0.001l-0.023,0.004H26.19l-0.022,0.004l-0.022,0.002l-0.022,0.003L26.1,13.261l-0.022,0.003l-0.021,0.005l-0.025,0.006   l-0.022,0.005l-0.023,0.009l-0.023,0.008l-0.023,0.012l-0.044,0.026l-0.045,0.041l-0.047,0.048l-0.046,0.055l-0.043,0.058   l-0.039,0.052l-0.037,0.049l-0.03,0.038l-0.019,0.004l-0.015,0.003l-0.02,0.002h-0.018h-0.019l-0.015-0.001l-0.022-0.001   l-0.018-0.002l-0.342-1.033l-0.007-0.015L25.1,12.619l-0.016-0.012l-0.022-0.014l-0.022-0.009l-0.022-0.008l-0.021-0.004   l-0.021-0.001l-0.864,0.027l-0.104,0.273v-0.004L23.966,12.879z M30.173,12.907l0.002-0.002l0.014,0.013L30.173,12.907z"/>
	<polygon clip-path="url(#SVGID_4_)" fill-rule="evenodd" clip-rule="evenodd" fill="#010101" points="30.043,12.983 30.063,12.978    30.084,12.974 30.104,12.97 30.12,12.963 30.139,12.955 30.156,12.943 30.171,12.933 30.188,12.918 30.158,12.889 30.146,12.903    30.132,12.913 30.118,12.921 30.104,12.926 30.092,12.93 30.074,12.935 30.058,12.938 30.037,12.94  "/>
	
		<rect x="26.304" y="13.078" transform="matrix(-0.9973 0.074 -0.074 -0.9973 57.2419 24.0785)" clip-path="url(#SVGID_4_)" fill-rule="evenodd" clip-rule="evenodd" fill="#010101" width="3.741" height="0.043"/>
	<polygon clip-path="url(#SVGID_4_)" fill-rule="evenodd" clip-rule="evenodd" fill="#010101" points="25.947,13.326 25.969,13.317    25.99,13.309 26.015,13.301 26.036,13.294 26.059,13.287 26.081,13.284 26.103,13.281 26.127,13.277 26.146,13.271 26.17,13.271    26.193,13.269 26.218,13.267 26.241,13.265 26.262,13.264 26.287,13.262 26.312,13.26 26.309,13.219 26.284,13.221 26.26,13.223    26.236,13.223 26.213,13.226 26.188,13.227 26.167,13.232 26.144,13.233 26.118,13.233 26.096,13.239 26.074,13.244 26.05,13.248    26.024,13.255 26.004,13.262 25.978,13.269 25.953,13.277 25.93,13.289  "/>
	<polygon clip-path="url(#SVGID_4_)" fill-rule="evenodd" clip-rule="evenodd" fill="#010101" points="25.612,13.694 25.62,13.689    25.637,13.67 25.653,13.65 25.67,13.627 25.689,13.602 25.711,13.576 25.729,13.549 25.751,13.521 25.773,13.493 25.796,13.464    25.818,13.438 25.841,13.415 25.864,13.389 25.883,13.368 25.907,13.352 25.927,13.336 25.946,13.326 25.93,13.289 25.904,13.303    25.883,13.319 25.857,13.34 25.833,13.362 25.81,13.386 25.788,13.409 25.763,13.44 25.741,13.468 25.72,13.497 25.698,13.524    25.679,13.551 25.658,13.577 25.639,13.602 25.622,13.625 25.607,13.645 25.592,13.661 25.6,13.657  "/>
	<polygon clip-path="url(#SVGID_4_)" fill-rule="evenodd" clip-rule="evenodd" fill="#FFFFFF" points="24.898,12.572 24.976,12.571    24.981,12.571 24.32,12.35 24.287,12.37 24.897,12.573  "/>
	<polygon clip-path="url(#SVGID_4_)" fill-rule="evenodd" clip-rule="evenodd" fill="#FFFFFF" points="24.898,12.572 24.111,12.597    24.108,12.583 24.104,12.564 24.1,12.548 24.093,12.529 24.089,12.513 24.089,12.501 24.094,12.486 24.108,12.475 24.142,12.453    24.176,12.433 24.212,12.411 24.25,12.39 24.282,12.368 24.287,12.37 24.897,12.573  "/>
	<polygon clip-path="url(#SVGID_4_)" fill="#FFFFFF" points="24.42,13.05 24.957,13.02 25.167,13.104 25.239,13.323 25.261,13.399    25.172,13.404 25.086,13.404 25.006,13.403 24.934,13.399 24.861,13.39 24.794,13.379 24.733,13.362 24.673,13.345 24.616,13.324    24.562,13.304 24.509,13.28 24.458,13.255 24.403,13.229 24.354,13.202 24.302,13.174 24.25,13.146 24.245,13.124 24.24,13.103    24.235,13.081 24.232,13.059  "/>
	<polygon clip-path="url(#SVGID_4_)" fill-rule="evenodd" clip-rule="evenodd" fill="#FFFFFF" points="25.77,13.111 25.777,13.121    25.847,13.162 25.869,13.126 25.799,13.084 25.807,13.095 25.77,13.111 25.772,13.116 25.777,13.121  "/>
	<polygon clip-path="url(#SVGID_4_)" fill-rule="evenodd" clip-rule="evenodd" fill="#FFFFFF" points="25.157,13.124 25.145,13.109    25.243,13.405 25.282,13.394 25.184,13.098 25.174,13.085 25.184,13.098 25.181,13.088 25.174,13.085  "/>
	<polygon clip-path="url(#SVGID_4_)" fill-rule="evenodd" clip-rule="evenodd" fill="#FFFFFF" points="24.958,13.039 24.948,13.039    25.157,13.124 25.174,13.085 24.964,13 24.957,13 24.964,13 24.961,12.999 24.957,13  "/>
	<polygon clip-path="url(#SVGID_4_)" fill-rule="evenodd" clip-rule="evenodd" fill="#FFFFFF" points="24.253,13.059 24.233,13.081    24.958,13.039 24.957,13 24.232,13.041 24.213,13.062 24.232,13.041 24.209,13.042 24.213,13.062  "/>
	<polygon clip-path="url(#SVGID_4_)" fill-rule="evenodd" clip-rule="evenodd" fill="#FFFFFF" points="24.26,13.128 24.268,13.142    24.267,13.131 24.265,13.121 24.264,13.109 24.261,13.101 24.26,13.088 24.258,13.079 24.255,13.069 24.254,13.059 24.214,13.062    24.214,13.074 24.215,13.086 24.218,13.096 24.219,13.106 24.221,13.115 24.225,13.127 24.229,13.14 24.23,13.15 24.239,13.164    24.23,13.15 24.233,13.159 24.239,13.164  "/>
	<polygon clip-path="url(#SVGID_4_)" fill-rule="evenodd" clip-rule="evenodd" fill="#FFFFFF" points="25.244,13.404 25.261,13.379    25.172,13.384 25.087,13.386 25.009,13.383 24.933,13.379 24.867,13.368 24.8,13.359 24.739,13.342 24.68,13.327 24.623,13.305    24.57,13.284 24.517,13.262 24.466,13.237 24.414,13.212 24.363,13.184 24.312,13.157 24.26,13.129 24.24,13.163 24.292,13.192    24.344,13.219 24.395,13.248 24.447,13.274 24.5,13.299 24.553,13.322 24.609,13.345 24.667,13.366 24.729,13.383 24.791,13.398    24.859,13.409 24.931,13.419 25.005,13.425 25.088,13.426 25.173,13.424 25.266,13.42 25.283,13.394 25.266,13.42 25.292,13.417    25.283,13.394 25.244,13.405  "/>
	<polygon clip-path="url(#SVGID_4_)" fill-rule="evenodd" clip-rule="evenodd" fill="#FFFFFF" points="26.309,13.218 26.28,13.219    26.251,13.224 26.223,13.225 26.192,13.227 26.164,13.232 26.134,13.237 26.103,13.24 26.074,13.248 26.045,13.255 26.02,13.262    25.992,13.271 25.966,13.281 25.943,13.293 25.917,13.305 25.895,13.32 25.875,13.336 25.899,13.368 25.918,13.353 25.938,13.341    25.958,13.329 25.981,13.32 26.005,13.307 26.029,13.301 26.059,13.294 26.085,13.286 26.111,13.283 26.138,13.277 26.167,13.274    26.195,13.27 26.226,13.265 26.256,13.262 26.284,13.26 26.312,13.26  "/>
	
		<rect x="26.305" y="13.079" transform="matrix(0.9972 -0.0745 0.0745 0.9972 -0.8982 2.1369)" clip-path="url(#SVGID_4_)" fill-rule="evenodd" clip-rule="evenodd" fill="#FFFFFF" width="3.74" height="0.041"/>
	<polygon clip-path="url(#SVGID_4_)" fill-rule="evenodd" clip-rule="evenodd" fill="#FFFFFF" points="30.107,12.712 30.123,12.733    30.139,12.754 30.146,12.775 30.159,12.795 30.165,12.814 30.167,12.833 30.168,12.851 30.166,12.866 30.161,12.879 30.156,12.892    30.146,12.903 30.132,12.916 30.118,12.923 30.094,12.932 30.069,12.938 30.038,12.939 30.043,12.983 30.076,12.98 30.105,12.97    30.132,12.96 30.156,12.948 30.176,12.935 30.19,12.914 30.2,12.896 30.207,12.874 30.207,12.851 30.208,12.829 30.202,12.807    30.194,12.78 30.185,12.758 30.172,12.733 30.157,12.708 30.14,12.688  "/>
	<polygon clip-path="url(#SVGID_4_)" fill-rule="evenodd" clip-rule="evenodd" fill="#FFFFFF" points="29.663,12.5 29.695,12.499    29.729,12.502 29.766,12.509 29.799,12.514 29.83,12.525 29.861,12.536 29.893,12.55 29.922,12.564 29.95,12.58 29.978,12.597    30.008,12.615 30.028,12.632 30.052,12.652 30.071,12.674 30.092,12.694 30.107,12.712 30.141,12.688 30.12,12.665 30.1,12.643    30.076,12.622 30.054,12.602 30.026,12.582 30,12.563 29.974,12.545 29.941,12.526 29.909,12.512 29.877,12.499 29.844,12.487    29.808,12.476 29.772,12.469 29.736,12.463 29.695,12.459 29.661,12.46  "/>
	
		<rect x="26.362" y="12.517" transform="matrix(-0.9994 0.0342 -0.0342 -0.9994 56.4373 24.1095)" clip-path="url(#SVGID_4_)" fill-rule="evenodd" clip-rule="evenodd" fill="#FFFFFF" width="3.302" height="0.04"/>
	<polygon clip-path="url(#SVGID_4_)" fill-rule="evenodd" clip-rule="evenodd" fill="#FFFFFF" points="25.841,12.531 25.872,12.544    25.905,12.551 25.938,12.561 25.97,12.568 26.005,12.575 26.037,12.583 26.072,12.589 26.104,12.594 26.138,12.601 26.171,12.604    26.204,12.609 26.237,12.61 26.27,12.614 26.303,12.613 26.333,12.614 26.362,12.614 26.363,12.575 26.332,12.575 26.302,12.573    26.273,12.572 26.24,12.57 26.208,12.567 26.177,12.563 26.145,12.559 26.111,12.554 26.078,12.548 26.046,12.544 26.015,12.535    25.98,12.53 25.948,12.521 25.914,12.511 25.885,12.504 25.854,12.494 25.841,12.533  "/>
	<polygon clip-path="url(#SVGID_4_)" fill-rule="evenodd" clip-rule="evenodd" fill="#FFFFFF" points="24.729,12.226 24.785,12.218    24.837,12.212 24.89,12.208 24.936,12.206 24.979,12.204 25.02,12.208 25.061,12.21 25.096,12.212 25.13,12.219 25.163,12.226    25.194,12.231 25.222,12.242 25.251,12.25 25.274,12.262 25.306,12.272 25.328,12.285 25.354,12.298 25.38,12.311 25.408,12.327    25.434,12.341 25.458,12.355 25.486,12.373 25.514,12.387 25.542,12.405 25.575,12.418 25.605,12.437 25.641,12.452 25.673,12.469    25.711,12.486 25.752,12.499 25.796,12.518 25.841,12.534 25.854,12.494 25.81,12.479 25.766,12.461 25.729,12.448 25.689,12.434    25.654,12.415 25.625,12.4 25.592,12.382 25.562,12.368 25.534,12.352 25.505,12.335 25.479,12.321 25.453,12.304 25.425,12.289    25.399,12.275 25.373,12.263 25.349,12.248 25.321,12.234 25.292,12.224 25.266,12.212 25.234,12.203 25.203,12.191 25.17,12.185    25.138,12.181 25.1,12.173 25.062,12.167 25.023,12.167 24.979,12.167 24.935,12.167 24.883,12.167 24.833,12.173 24.778,12.179    24.724,12.185 24.727,12.225  "/>
	<polygon clip-path="url(#SVGID_4_)" fill-rule="evenodd" clip-rule="evenodd" fill="#FFFFFF" points="24.119,12.495 24.151,12.472    24.186,12.451 24.223,12.431 24.26,12.407 24.293,12.387 24.331,12.367 24.367,12.347 24.404,12.33 24.443,12.312 24.481,12.294    24.52,12.279 24.56,12.265 24.602,12.253 24.642,12.243 24.684,12.231 24.726,12.225 24.723,12.185 24.677,12.195 24.633,12.203    24.589,12.213 24.548,12.226 24.508,12.243 24.465,12.258 24.427,12.273 24.387,12.292 24.347,12.312 24.309,12.332 24.274,12.352    24.238,12.373 24.202,12.394 24.166,12.415 24.132,12.437 24.098,12.458 24.117,12.494  "/>
	<polygon clip-path="url(#SVGID_4_)" fill-rule="evenodd" clip-rule="evenodd" fill="#FFFFFF" points="24.111,12.579 24.133,12.596    24.126,12.578 24.122,12.558 24.117,12.541 24.113,12.523 24.111,12.512 24.109,12.505 24.111,12.496 24.116,12.494 24.097,12.458    24.079,12.475 24.07,12.496 24.068,12.517 24.074,12.535 24.079,12.554 24.083,12.57 24.089,12.584 24.091,12.602 24.111,12.618    24.091,12.602 24.092,12.618 24.111,12.618  "/>
	<path clip-path="url(#SVGID_4_)" fill="#FFFFFF" d="M25.636,12.725l-0.001,0.002L25.636,12.725z"/>
	<polygon clip-path="url(#SVGID_4_)" fill="#FFFFFF" points="25.626,12.734 25.636,12.728 25.63,12.748  "/>
	<polygon clip-path="url(#SVGID_4_)" fill="#FFFFFF" points="26.183,12.971 26.862,13.198 26.789,13.203 26.789,13.204    26.197,13.008  "/>
	<path clip-path="url(#SVGID_4_)" fill="#FFFFFF" d="M24.112,12.618l0.864-0.028l0.018,0.002l0.016,0.005l0.022,0.007l0.021,0.008   l0.018,0.012l0.015,0.009l0.007,0.013l0.007,0.006l0.344,1.035l0.004,0.017l0.017-0.001l0.017-0.002l0.021,0.002l0.023,0.002   l0.024-0.001l0.022,0.002l0.02-0.005l0.023-0.008l0.019-0.012l0.023-0.024l0.018-0.025l0.017-0.02l0.017-0.022l0.015-0.019   l0.015-0.018l0.012-0.019l0.015-0.02l0.012-0.019l0.015-0.018l0.015-0.018l0.014-0.016l0.017-0.017l0.018-0.018l0.019-0.019   l0.024-0.02l-0.013-0.017l0.019-0.016l0.021-0.012l0.025-0.011l0.022-0.011l0.024-0.011l0.028-0.008l0.027-0.009l0.028-0.007   l0.025-0.004l0.028-0.005l0.031-0.004l0.027-0.005l0.03-0.002l0.031-0.002l0.027-0.004l0.026-0.001l0.48-0.035l-0.591-0.196   l-0.016-0.037l0.681,0.227l3.178-0.238l0.059-0.008l0.044-0.021l0.03-0.03l0.011-0.033v-0.037l0.001-0.002l-0.011-0.042   l-0.02-0.043l-0.03-0.045l-0.02-0.021l-0.019-0.02l-0.023-0.022l-0.021-0.018l-0.025-0.021l-0.025-0.018l-0.03-0.018l-0.029-0.018   L29.9,12.532l-0.03-0.014l-0.033-0.012l-0.036-0.011l-0.033-0.005l-0.035-0.008l-0.037-0.004l-0.033,0.001l-0.48,0.017   l-2.818,0.097h-0.031l-0.029,0.001l-0.033-0.001l-0.031-0.004l-0.032-0.002l-0.032-0.003l-0.032-0.004l-0.033-0.006l-0.033-0.004   l-0.033-0.008l-0.032-0.006l-0.034-0.007l-0.033-0.009l-0.032-0.009l-0.032-0.008l-0.031-0.01l-0.045-0.015l-0.044-0.017   l-0.038-0.015l-0.039-0.015l-0.033-0.017l-0.033-0.015L25.583,12.4l-0.03-0.014l-0.03-0.018l-0.026-0.015l-0.028-0.016   l-0.025-0.014l-0.029-0.015l-0.026-0.016l-0.025-0.012l-0.026-0.015l-0.026-0.013l-0.028-0.011l-0.026-0.009l-0.03-0.01   l-0.032-0.01l-0.029-0.009l-0.034-0.005l-0.036-0.005l-0.036-0.004l-0.04-0.004l-0.043-0.001l-0.044,0.001l-0.046,0.002   l-0.051,0.006l-0.054,0.005l-0.058,0.007l-0.044,0.006l-0.043,0.011l-0.042,0.01l-0.04,0.014l-0.043,0.015l-0.04,0.015   l-0.038,0.017l-0.039,0.018l-0.037,0.018l-0.039,0.021l0.604,0.201l-0.812,0.027V12.618z M29.639,12.635l0.003-0.024l0.009-0.018   l0.016-0.013l0.021-0.011l0.026-0.004l0.014,0.001l0.018,0.001l0.015,0.003l0.015,0.003l0.02,0.006l0.017,0.005l0.019,0.009   l0.018,0.01l0.018,0.008l0.018,0.012l0.013,0.011l0.018,0.013l0.016,0.012l0.012,0.014l0.016,0.014l0.011,0.014l0.022,0.027   l0.011,0.03l0.006,0.014l0.002,0.009v0.025l-0.005,0.019l-0.014,0.015l-0.021,0.01l-0.026,0.006l-0.016,0.001l-0.015-0.003   l-0.019-0.002l-0.019-0.003l-0.018-0.006l-0.018-0.007l-0.021-0.008l-0.018-0.011l-0.018-0.008l-0.021-0.01l-0.015-0.011   l-0.018-0.015l-0.015-0.011l-0.015-0.015l-0.015-0.015l-0.011-0.014l-0.02-0.03l-0.013-0.028l-0.002-0.009L29.639,12.635z    M26.203,13.074L26.203,13.074l-0.014-0.011L26.203,13.074z M25.674,12.746l0.022-0.022l0.284-0.016l0.06,0.031l0.142,0.335   l-0.021,0.028l-0.304,0.021l0.013,0.003l-0.01,0.017h-0.002l-0.067-0.04l0.017-0.008L25.674,12.746z"/>
	<polygon clip-path="url(#SVGID_4_)" fill-rule="evenodd" clip-rule="evenodd" fill="#010101" points="29.445,12.85 29.429,12.84    29.426,12.825 29.451,12.818 29.456,12.834 29.44,12.823  "/>
	<polygon clip-path="url(#SVGID_4_)" fill-rule="evenodd" clip-rule="evenodd" fill="#010101" points="29.48,12.831 29.476,12.834    29.47,12.842 29.462,12.846 29.456,12.849 29.446,12.851 29.441,12.824 29.445,12.825 29.45,12.821 29.458,12.817 29.458,12.816    29.457,12.821 29.48,12.832  "/>
	<polygon clip-path="url(#SVGID_4_)" fill-rule="evenodd" clip-rule="evenodd" fill="#010101" points="29.41,12.674 29.412,12.675    29.424,12.689 29.438,12.705 29.454,12.722 29.469,12.742 29.479,12.762 29.485,12.785 29.486,12.81 29.479,12.832 29.457,12.82    29.462,12.805 29.461,12.79 29.456,12.772 29.444,12.757 29.433,12.737 29.419,12.723 29.403,12.708 29.391,12.693 29.393,12.694     "/>
	<polygon clip-path="url(#SVGID_4_)" fill-rule="evenodd" clip-rule="evenodd" fill="#010101" points="29.182,12.608 29.179,12.608    29.212,12.608 29.244,12.608 29.272,12.614 29.3,12.617 29.328,12.625 29.357,12.637 29.384,12.653 29.41,12.673 29.394,12.693    29.368,12.676 29.344,12.663 29.321,12.65 29.296,12.645 29.269,12.64 29.241,12.636 29.211,12.634 29.183,12.636 29.183,12.633    29.179,12.609  "/>
	<polygon clip-path="url(#SVGID_4_)" fill-rule="evenodd" clip-rule="evenodd" fill="#010101" points="26.76,12.736 26.77,12.728    29.18,12.61 29.184,12.634 26.773,12.755 26.783,12.748  "/>
	<polygon clip-path="url(#SVGID_4_)" fill-rule="evenodd" clip-rule="evenodd" fill="#010101" points="26.702,12.82 26.676,12.812    26.678,12.792 26.682,12.778 26.689,12.761 26.699,12.751 26.713,12.743 26.729,12.736 26.748,12.73 26.769,12.729 26.773,12.755    26.753,12.758 26.735,12.762 26.726,12.763 26.718,12.771 26.714,12.778 26.707,12.786 26.703,12.797 26.704,12.814 26.678,12.805     "/>
	<polygon clip-path="url(#SVGID_4_)" fill="#010101" points="29.432,12.81 29.424,12.799 29.415,12.788 29.41,12.778 29.4,12.768    29.391,12.757 29.381,12.748 29.372,12.736 29.349,12.718 29.323,12.701 29.296,12.69 29.271,12.683 29.243,12.68 29.213,12.675    29.185,12.674 29.154,12.674 26.743,12.795 26.764,12.757 26.771,12.756 26.773,12.755 29.184,12.634 29.224,12.637 29.257,12.636    29.288,12.641 29.318,12.646 29.345,12.659 29.369,12.673 29.392,12.693 29.417,12.722 29.439,12.748 29.455,12.774 29.463,12.793    29.463,12.806 29.457,12.817 29.443,12.826 29.441,12.826 29.439,12.822  "/>
	<path clip-path="url(#SVGID_4_)" fill="#010101" d="M26.676,12.812l0.002,0.023l0.005,0.016l0.008,0.023l0.015,0.027l0.021,0.02   l0.025,0.023l0.03,0.021l0.035,0.016l0.035,0.009h0.044l2.476-0.125l0.047-0.005l0.034-0.008l0.024-0.016l0.014-0.023V12.79   l-0.01-0.028l-0.019-0.026l-0.023-0.032l-0.026-0.028l-0.028-0.025l-0.027-0.017l-0.029-0.014l-0.031-0.006l-0.038-0.007h-0.037   l-0.042,0.003l-2.409,0.119v0.001l-0.025,0.001l-0.027,0.01L26.7,12.755l-0.012,0.017l-0.009,0.018L26.676,12.812z M26.704,12.814   l0.002-0.016l0.001-0.002l0.002-0.001h0.013l0.021-0.001l0.021-0.037l0.008-0.002l0.002-0.001l2.409-0.121l0.04,0.003h0.034   l0.031,0.004l0.03,0.006l0.026,0.012l0.024,0.014l0.021,0.02l0.026,0.029l0.022,0.026l0.016,0.027l0.008,0.019v0.013l-0.006,0.01   l-0.014,0.009l-0.002,0.001l-0.028,0.006l-0.041,0.005l-2.477,0.127h-0.002l-0.034-0.001l-0.035-0.01l-0.031-0.014l-0.024-0.015   l-0.022-0.021l-0.015-0.022l-0.015-0.021l-0.011-0.018l-0.002-0.014V12.814z"/>
</g>

<rect x="25.498" y="0" fill="#E7E7E7" width="28.19" height="5.411"/>
<rect x="35.331" y="5" fill="#E7E7E7" width="18.548" height="5.411"/>
<rect x="0.18" y="0" fill="#E7E7E7" width="4.943" height="54"/>



<path fill="#EB242B" d="M9.4,4.501c0,0.11-0.05,0.216-0.149,0.321L9.235,4.838l-0.87,0.915c-0.184,0.194-0.341,0.344-0.471,0.45  c-0.131,0.106-0.222,0.16-0.275,0.16c-0.056,0-0.126-0.026-0.21-0.08C7.326,6.229,7.271,6.176,7.248,6.119  C7.227,6.071,7.207,5.973,7.189,5.82C7.17,5.669,7.162,5.504,7.162,5.327c0-0.096,0.041-0.186,0.121-0.268  c0.081-0.083,0.17-0.124,0.268-0.124c0.093,0,0.149,0.085,0.166,0.255C7.718,5.21,7.719,5.225,7.72,5.234  c0.016,0.13,0.033,0.221,0.053,0.273c0.02,0.052,0.046,0.077,0.08,0.077c0.014,0,0.041-0.015,0.079-0.045  C7.97,5.508,8.016,5.466,8.069,5.415l0.893-0.885c0.075-0.075,0.142-0.131,0.201-0.17c0.06-0.039,0.11-0.058,0.151-0.058  c0.031,0,0.053,0.012,0.066,0.035C9.393,4.36,9.4,4.399,9.4,4.455V4.501z"/>

<path fill="#EB242B" d="M9.4,10.47c0,0.11-0.05,0.216-0.149,0.321l-0.016,0.016l-0.87,0.915c-0.184,0.194-0.341,0.344-0.471,0.45  c-0.131,0.106-0.222,0.16-0.275,0.16c-0.056,0-0.126-0.026-0.21-0.08c-0.083-0.053-0.137-0.107-0.161-0.164  c-0.021-0.048-0.041-0.146-0.059-0.299c-0.019-0.151-0.027-0.316-0.027-0.494c0-0.096,0.041-0.186,0.121-0.268  c0.081-0.083,0.17-0.124,0.268-0.124c0.093,0,0.149,0.085,0.166,0.255c0.002,0.02,0.003,0.034,0.004,0.043  c0.016,0.13,0.033,0.221,0.053,0.273c0.02,0.052,0.046,0.077,0.08,0.077c0.014,0,0.041-0.015,0.079-0.045  c0.039-0.031,0.085-0.072,0.139-0.124l0.893-0.885c0.075-0.075,0.142-0.131,0.201-0.17c0.06-0.039,0.11-0.058,0.151-0.058  c0.031,0,0.053,0.012,0.066,0.035c0.013,0.023,0.02,0.062,0.02,0.118V10.47z"/>
<line fill="none" stroke="#EB242B" stroke-width="0.5" x1="9.75" y1="13.47" x2="22.045" y2="13.47"/>
<g>
	
</g>
</g></svg>