<svg id="Layer_1" data-name="Layer 1" xmlns="http://www.w3.org/2000/svg" viewBox="0 0 450 600" width="450" height="600">
  <defs>
    <style>
      .cls-1, .cls-2, .cls-3, .cls-4, .cls-5, .cls-6, .cls-7, .cls-8 {
        fill: none;
      }

      .cls-9 {
        letter-spacing: .024em;
      }

      .cls-10 {
        font-size: 1.973px;
      }

      .cls-10, .cls-11, .cls-12, .cls-13, .cls-14, .cls-15, .cls-16 {
        fill: #231f20;
      }

      .cls-10, .cls-17, .cls-18, .cls-19, .cls-20, .cls-21, .cls-16 {
        font-family: Arial-BoldMT, Arial;
        font-weight: 700;
      }

      .cls-22 {
        letter-spacing: .05em;
      }

      .cls-23 {
        letter-spacing: .05em;
      }

      .cls-2 {
        stroke: #26aae1;
        stroke-dasharray: 0 0 4.006 4.006;
      }

      .cls-2, .cls-8 {
        stroke-miterlimit: 10;
      }

      .cls-24 {
        letter-spacing: -.005em;
      }

      .cls-25 {
        letter-spacing: -.043em;
      }

      .cls-11, .cls-12, .cls-13, .cls-14, .cls-15 {
        font-family: ArialMT, Arial;
      }

      .cls-26 {
        letter-spacing: 0em;
      }

      .cls-27 {
        letter-spacing: 0em;
      }

      .cls-28 {
        letter-spacing: .016em;
      }

      .cls-29 {
        letter-spacing: .013em;
      }

      .cls-12 {
        letter-spacing: -.018em;
      }

      .cls-30, .cls-19 {
        fill: #f7a31a;
      }

      .cls-31 {
        fill: #eb1d27;
      }

      .cls-32, .cls-33 {
        fill: #fff;
      }

      .cls-34 {
        fill: #cecfd0;
      }

      .cls-35, .cls-36 {
        fill: #4e494b;
      }

      .cls-17 {
        fill: #ec1e28;
      }

      .cls-17, .cls-18, .cls-19 {
        font-size: 1.94px;
      }

      .cls-18 {
        fill: #2ba6de;
      }

      .cls-37 {
        font-size: 2.286px;
      }

      .cls-37, .cls-38 {
        fill: #000100;
        font-family: Arial-Black, 'Arial Black';
        font-weight: 800;
      }

      .cls-39 {
        font-size: 2.063px;
      }

      .cls-40 {
        letter-spacing: -.055em;
      }

      .cls-13 {
        letter-spacing: -.037em;
      }

      .cls-3, .cls-7 {
        stroke: #2da6de;
        stroke-width: .5px;
      }

      .cls-14 {
        letter-spacing: -.074em;
      }

      .cls-4, .cls-5, .cls-8 {
        stroke-width: .492px;
      }

      .cls-4, .cls-6 {
        stroke: red;
      }

      .cls-5 {
        stroke: #929497;
      }

      .cls-20 {
        fill: #929497;
        font-size: 1.94px;
      }

      .cls-21 {
        fill: #ea1c24;
      }

      .cls-38 {
        font-size: 2.315px;
      }

      .cls-41 {
        opacity: .5;
      }

      .cls-36, .cls-42, .cls-33, .cls-43 {
        fill-rule: evenodd;
      }

      .cls-42 {
        fill: #b5d133;
      }

      .cls-15 {
        letter-spacing: 0em;
      }

      .cls-44 {
        letter-spacing: -.017em;
      }

      .cls-7 {
        stroke-dasharray: 0 0 2.234 2.234;
      }

      .cls-16 {
        font-size: 1.916px;
      }

      .cls-8 {
        stroke: #f7a31a;
      }

      .cls-45 {
        letter-spacing: -.026em;
      }
    </style>
  </defs>
  <path id="Bleed_Zone" data-name="Bleed Zone" class="cls-41" d="m0,0v144h108V0H0Zm99,126c0,4.971-4.029,9-9,9H18c-4.971,0-9-4.029-9-9V18c0-4.971,4.029-9,9-9h72c4.971,0,9,4.029,9,9v108Z"></path>
  <rect id="Trim_Line" data-name="Trim Line" class="cls-6" x="9" y="9" width="90" height="126" rx="9" ry="9"></rect>
  <g id="Safe_Zone" data-name="Safe Zone">
    <rect class="cls-2" x="18" y="18" width="72" height="108" rx="9" ry="9"></rect>
  </g>
  <g id="Info">
    <g>
      <g>
        
        
        <path class="cls-31" d="m63.511,108.368v-.505c.072-.232.261-.429.509-.456.424-.072.143,1.017.51.87.678-.528,1.19-1.284,1.902-1.753h.132c.179.284-.006.62-.234.821-.285.307-.579.606-.862.915-.313.281-.985,1.142-1.385,1.128-.536-.128-.508-.579-.573-1.021Z"></path>
      </g>
      <g>
        
        <path class="cls-31" d="m64.275,24.375v-.511c.073-.235.264-.435.516-.461.429-.073.145,1.029.516.881.686-.535,1.205-1.3,1.926-1.775h.133c.181.288-.006.628-.237.832-.289.311-.586.613-.872.926-.317.284-.997,1.156-1.402,1.142-.542-.129-.515-.586-.58-1.033Z"></path>
        <g>
          <line class="cls-3" x1="90.004" y1="25.47" x2="88.774" y2="25.47"></line>
          <line class="cls-7" x1="86.54" y1="25.47" x2="69.785" y2="25.47"></line>
          <line class="cls-3" x1="68.668" y1="25.47" x2="67.439" y2="25.47"></line>
        </g>
        
      </g>
      <g>
        
        
        <path class="cls-31" d="m61.771,68.317v-.511c.073-.235.264-.435.516-.461.429-.073.145,1.029.516.881.686-.535,1.205-1.3,1.926-1.775h.133c.181.288-.006.628-.237.832-.289.311-.586.613-.872.926-.317.284-.997,1.156-1.402,1.142-.542-.129-.515-.586-.58-1.033Z"></path>
        <polyline class="cls-8" points="64.965 69.412 85.504 69.412 85.504 81.236"></polyline>
        <rect class="cls-30" x="81.004" y="81.236" width="26.996" height="12.201"></rect>
      </g>
      <g>
        
        
        <path class="cls-31" d="m62.758,48.873v-.511c.073-.235.264-.435.516-.461.429-.073.145,1.029.516.881.686-.535,1.205-1.3,1.926-1.775h.133c.181.288-.006.628-.237.832-.289.311-.586.613-.872.926-.317.284-.997,1.156-1.402,1.142-.542-.129-.515-.586-.58-1.033Z"></path>
        <line class="cls-5" x1="108" y1="49.968" x2="65.951" y2="49.968"></line>
      </g>
      <g>
        
        
        <path class="cls-31" d="m65.058,39.117v-.511c.073-.235.264-.435.516-.461.429-.073.145,1.029.516.881.686-.535,1.205-1.3,1.926-1.775h.133c.181.288-.006.628-.237.832-.289.311-.586.613-.872.926-.317.284-.997,1.156-1.402,1.142-.542-.129-.515-.586-.58-1.033Z"></path>
        <line class="cls-4" x1="99" y1="40.212" x2="68.222" y2="40.212"></line>
      </g>
    </g>
    <g>
      <rect class="cls-34" x="22.496" y="89.252" width="28.924" height="31.968"></rect>
      
      <path class="cls-43" d="m46.531,100.287c0,5.041-4.085,9.127-9.125,9.127s-9.125-4.086-9.125-9.127,4.085-9.128,9.125-9.128,9.125,4.087,9.125,9.128Z"></path>
      <path class="cls-42" d="m45.708,100.337c0,4.583-3.714,8.297-8.295,8.297s-8.295-3.715-8.295-8.297,3.714-8.298,8.295-8.298,8.295,3.715,8.295,8.298Z"></path>
      <g>
        <path d="m35.637,98.528c-.115,1.017-.201,1.834-.258,2.451l-.378.017c.006-.02.008-.043.009-.069,0-.046-.016-.107-.051-.183-.035-.075-.055-.123-.06-.143-.098.013-.192.082-.281.203-.09.122-.171.183-.242.182-.042-.001-.087-.013-.139-.034-.067.045-.155.064-.263.057-.097-.017-.192-.032-.285-.044-.003-.128-.13-.241-.38-.339,0-.051-.025-.128-.077-.229-.052-.101-.078-.172-.077-.213,0-.047.019-.085.056-.115-.005-.016-.047-.111-.126-.288-.055-.129-.081-.241-.079-.333.001-.072.018-.139.05-.2-.044-.438-.063-.814-.058-1.128.008-.484.077-.927.208-1.332-.009-.062-.013-.123-.012-.186.005-.324.118-.548.335-.673l.002-.101c.216-.274.499-.473.851-.595.21.05.42.098.63.142.235.081.398.22.487.418.071.043.106.128.104.256-.002.144.014.237.049.279l-.039.046c.041.304.061.49.06.557-.004.195-.055.334-.154.414-.036,0-.13-.032-.284-.097-.037.035-.076.053-.117.052-.02,0-.058-.012-.111-.033-.054-.022-.099-.033-.134-.033-.026,0-.052.004-.078.014-.003-.406.01-.71.039-.91-.041-.026-.082-.087-.124-.18-.042-.093-.097-.146-.163-.157-.042.051-.061.084-.056.099l-.138-.049c-.126.137-.209.375-.251.713-.043.391-.096.649-.16.777.056.058.082.138.081.241,0,.036-.006.095-.018.177-.012.082-.017.144-.018.185,0,.046.003.087.013.124l-.094.091c.038.176.06.398.066.665-.003.226-.005.453-.003.679-.005,0-.049.002-.132.006-.051,0-.088.016-.109.052.031-.004.059-.007.085-.006.113.002.202.082.266.24.064.158.119.238.166.239.051,0,.122-.047.211-.143.152-.162.23-.385.235-.668.002-.139-.013-.288-.047-.448-.036.02-.055.071-.057.153-.082-.002-.134.016-.155.051-.036-.011-.051-.039-.045-.086.007-.067.009-.103.01-.108.062-.02.093-.048.094-.084,0-.015-.011-.044-.033-.085-.022-.041-.033-.075-.033-.101,0-.021.005-.041.016-.062l.036-.301c.113.033.357.047.732.043-.011.026.004.06.045.101.037-.036.076-.053.117-.052.031,0,.077.015.138.041.062.027.105.04.131.04Z"></path>
        <path d="m38.516,101.186c-.072-.033-.148-.049-.23-.05-.072-.001-.17.012-.294.042-.139.028-.235.045-.286.049-.055-.109-.093-.259-.116-.45-.042-.278-.067-.436-.077-.472.016-.031.024-.056.024-.077,0-.057-.043-.107-.132-.152-.09-.045-.134-.081-.134-.107,0-.03.053-.076.157-.136-.025-.031-.044-.094-.055-.19-.011-.095-.035-.159-.07-.191-.063.056-.165.091-.307.107-.142.016-.236.039-.283.069.004.401-.063.67-.199.807-.072-.017-.126.011-.163.083-.053.086-.098.137-.134.152l.045.055c-.041.035-.109.05-.201.043-.145-.008-.221-.011-.232-.011l-.044-.14.503-4.167c.004-.262.018-.44.04-.532-.006-.232.048-.375.161-.429.071.047.161.072.269.074.087.001.224-.017.41-.055.186-.038.315-.056.387-.055.252.004.362.186.33.546-.026.287.019.667.135,1.137.12.506.178.885.174,1.137-.001.077.024.237.018.314-.109.06-.248.096-.419.108-.149.008-.301.015-.456.023-.04-.391-.109-.864-.149-1.25-.049-.464-.109-.846-.181-1.145l-.238,2.204c-.019.19.067.287.258.29.062.001.121-.013.178-.043.047-.015.11.02.191.103-.003.159.029.255.095.288.083-.056.192-.108.327-.157.119-.044.236-.086.349-.126.065.089.107.221.125.396.021.247.037.392.047.433.008.098.049.31.12.635.053.258.077.467.074.626-.001.077-.008.149-.019.216Z"></path>
        <path d="m42.07,97.51c-.006.015-.007.105-.005.27-.002.134-.019.234-.051.3-.038.102-.058.248-.061.439-.001.041,0,.105.004.193-.002.088-.003.152-.003.193-.006.324-.061.56-.167.707.009.083.013.165.011.247-.004.257-.093.603-.264,1.037-.047.015-.085.022-.116.021-.062-.001-.106-.037-.133-.106-.027-.071-.053-.136-.077-.199.017-.396.008-.972-.025-1.729l.047-.045c-.034-.135-.049-.284-.047-.448.002-.118.017-.291.044-.517.027-.226.041-.395.043-.509.001-.072,0-.141-.004-.208-.177.424-.303,1.142-.377,2.155l-.064.153c-.022.051-.066.079-.132.083-.02-.036-.04-.055-.061-.055-.016,0-.043.019-.082.057-.039.038-.072.054-.097.048l-.102.091c.045.057.143.064.293.021.119-.034.179.011.183.134.003.103-.025.241-.084.415-.059.174-.09.305-.091.392,0,.062.006.123.02.185l-.534.084c-.05-.104-.086-.278-.111-.523-.024-.245-.061-.419-.111-.523.032-.035.048-.073.048-.115,0-.036-.014-.09-.044-.163-.03-.073-.047-.127-.051-.163-.004-.057-.023-.194-.055-.41-.023-.175-.033-.312-.032-.41,0-.051.005-.098.01-.139,0-.036-.019-.089-.059-.159-.04-.07-.059-.121-.059-.152,0-.025.011-.048.032-.068-.035-.042-.05-.114-.043-.217.007-.103-.007-.175-.043-.216-.075.199-.116.469-.121.808-.003.473-.008.746-.014.818l.053.047-.055.046c.038.186.055.423.05.711-.014.519-.021.761-.02.725-.073.066-.174.097-.302.095-.16-.003-.268.011-.325.041-.065-.114-.096-.261-.093-.441.002-.139.026-.308.07-.508-.07-.13-.103-.311-.099-.542,0-.057.008-.164.021-.324.007-.128.009-.223.006-.285.052-.025.078-.053.078-.083,0-.021-.016-.056-.049-.105-.033-.049-.049-.087-.048-.113,0-.031.022-.062.063-.092l-.166-2.496c.099-.066.259-.096.48-.093.241.009.406-.003.494-.038.016-.01.034-.015.054-.015.02,0,.045.013.072.036.028.024.047.036.057.036.021,0,.039-.015.055-.045l.144.141c.049.181.094.532.137,1.052.044.449.113.787.207,1.015.126-.456.23-.838.313-1.145l.167-1.222,1.196-.026c.004.067.019.425.051.631.027.18.041.327.039.44-.002.129-.022.244-.06.346.041.058.06.13.058.217-.001.088-.023.159-.065.215Z"></path>
        <path d="m44.524,100.215v-.008c-.032.066-.051.144-.058.23-.006.056-.007.136-.004.24.003.118.004.201.004.247-.041,0-.206-.003-.494-.008-.175-.003-.332.012-.472.046l-.144-.157c-.042.04-.058.074-.048.1-.025-.006-.144-.008-.354-.006-.165-.003-.288-.02-.369-.053-.084.087-.182.085-.293-.005-.041-.031-.045-.085-.013-.159.032-.074.023-.13-.028-.166.008-.164.03-.419.067-.763.036-.308.056-.55.059-.725.004-.236-.013-.463-.05-.68.058-.056.122-.083.194-.082.083.001.18.042.291.121.157.11.239.166.244.166l.045.055c.005-.015.033-.097.081-.246.028-.098.067-.161.119-.191l.045.047c.021-.01.088-.058.203-.143.088-.06.161-.203.212-.202.057,0,.11.032.161.095.086.048.141.232.168.328.026.096.052.19.076.283-.232.006-.422,0-.571-.017-.037.056-.089.064-.155.024-.066-.04-.115-.034-.147.017-.002.093-.005.26-.009.501-.009.216-.012.386-.008.51.001.19.014.365.037.526.041,0,.236.004.586.01.242.004.45.025.624.065Zm.017-3.698c-.046.004-.098.006-.154.005-.118-.002-.275-.02-.47-.055-.242-.035-.388-.055-.439-.061-.074.107-.112.258-.116.454-.007.422-.007.604-.001.548.071.042.106.12.104.233-.008.154-.009.234-.004.239-.036.015-.055.066-.056.153-.057-.022-.115-.064-.175-.126-.081-.079-.124.188-.118.121l-.049.158-.046-.047c-.042.004-.112-.017-.211-.065-.099-.048-.17-.093-.21-.135.001-.082.015-.129.041-.139l-.098-.109-.047.068c-.058-.536-.044-1.539.027-2.104.195.034.411.056.648.065.159.008.383.011.67.011.33,0,.567.002.71.004.06.058.09.133.089.225,0,.057-.017.148-.047.273-.03.126-.046.219-.047.281Z"></path>
      </g>
      <g>
        <path d="m35.869,104.882v-.004s-.014.116-.04.34c-.013.138-.046.246-.099.325l-.034-.027c-.063.131-.148.211-.255.239-.051.054-.126.084-.223.09-.058.004-.191-.013-.4-.05-.101-.063-.156-.097-.166-.104-.064-.048-.094-.096-.091-.145-.062-.063-.148-.174-.18-.314-.039-.155-.063-.163-.1-.217-.058.043-.079-.048-.113-.103l.031-.024c-.019-.014-.029-.029-.03-.046,0-.012.004-.03.015-.054.011-.024.016-.042.015-.054,0-.019-.013-.036-.035-.05.023-.121.045-.304.064-.547.041-.022.061-.065.059-.129-.002-.063.006-.105.027-.126.098-.197.258-.329.479-.399.013.002.072,0,.178-.003.073-.002.128.005.165.02.066-.011.133.004.199.047.058.043.115.086.172.129.107.117.165.248.173.394.003.049,0,.1-.009.154-.079-.002-.135.05-.169.157l-.308.029c-.033-.047-.052-.11-.057-.188-.002-.026-.001-.066,0-.117.002-.052.002-.091,0-.118-.005-.081-.024-.144-.057-.191l-.093.053c-.038-.015-.057-.037-.059-.066,0-.01,0-.024.004-.042.004-.019.005-.032.005-.039-.002-.032-.03-.051-.085-.058-.038.347-.049.704-.034,1.071.01.012.039.02.088.025.04.005.06.017.061.037,0,.007-.002.017-.008.03l-.03.024c.017.026.027.063.029.109.001.024,0,.062-.003.112-.003.051-.004.088-.002.112.004.073.022.129.055.166-.003.054.019.091.065.11.03-.012.057-.018.081-.02.094-.005.159.046.196.154,0,.002,0,.021-.001.055.001.02.011.032.03.039.041-.024.062-.069.061-.132,0-.073.009-.12.028-.141-.005-.034-.025-.083-.061-.147s-.054-.114-.057-.151c-.002-.039.009-.076.035-.112-.022-.006-.032-.02-.03-.042.001-.034.002-.053.002-.055.168-.041.338-.043.511-.004Z"></path>
        <path d="m37.265,105.168h-.004c-.018.035-.023.086-.017.151.008.093.013.14.013.143-.014.006-.033-.001-.057-.021-.036.013-.053.036-.051.068,0,.005.002.012.006.024,0,.013.001.022.001.027.002.025-.006.044-.022.056-.041-.023-.095-.037-.162-.043-.067-.007-.13-.012-.19-.018,0-.31-.043-.613-.125-.908,0,.002-.002-.028-.006-.092,0-.045-.01-.078-.031-.097l-.028.025s.009-.013.028-.027c.019-.013.028-.028.027-.041,0-.007-.002-.014-.006-.02l-.031-.022c-.053.017-.077.059-.073.127.002.045-.015.077-.054.096.015.01.023.023.023.039,0,.009,0,.022-.004.038-.003.017-.004.029-.004.038.001.02.012.037.032.049,0,.014.008.136.021.368.009.147.005.273-.012.376l.003.058c-.02,0-.043,0-.068,0-.029.002-.069.006-.122.012-.054.007-.093.011-.118.012-.104.006-.177-.012-.22-.052l-.044-1.271c-.021-.062-.034-.15-.041-.261l-.014-.245c-.01-.12-.025-.213-.046-.277.009-.044.047-.068.115-.071.042-.003.099.003.171.017.033-.016.079-.025.138-.029.017,0,.044-.001.08,0,.04-.002.068-.004.085-.005.11-.007.183-.04.219-.102.051,0,.106.016.166.049.06.033.112.05.158.052.12.071.184.187.194.351.002.037-.012.18-.043.433l-.206.179c.035.064.077.204.126.42.042.18.104.312.188.395Zm-.381-1.446l.004.003c.004.015.002-.04-.005-.167-.004-.061-.026-.106-.067-.133-.024.033.003.049-.008.126-.011.077-.056.055-.083.089-.071,0-.087.042-.102-.025-.031-.11-.059-.1-.059-.102l-.03.018c-.011.01-.023.021-.036.033-.013.012-.027.016-.042.012,0,.014-.006.035-.019.065-.014.03-.021.05-.02.061.001.021.018.035.049.045-.006.046-.007.094-.005.144.001.027.008.09.019.186.013.077.018.143.015.197.026,0,.05,0,.073,0,.098-.005.163-.045.192-.117.01-.021.021-.097.034-.228.011-.098.041-.167.09-.206Z"></path>
        <path d="m38.867,105.662c-.04-.011-.083-.016-.128-.013-.039.002-.092.012-.159.03-.075.018-.127.029-.155.033-.034-.046-.06-.11-.079-.194-.032-.121-.052-.189-.058-.205.008-.014.011-.025.01-.035-.001-.025-.027-.045-.078-.062-.051-.016-.076-.03-.076-.042,0-.013.026-.036.081-.066-.015-.013-.027-.04-.036-.082-.01-.041-.024-.068-.045-.081-.033.027-.087.047-.164.059-.077.012-.128.026-.153.041.016.177,0,.487-.07.552-.04-.005-.069.01-.087.042-.026.04-.049.065-.068.073l.027.022c-.021.017-.058.026-.109.027-.079.002-.121.003-.127.004l-.029-.06.119-2.044c-.006-.116-.005-.194.003-.236-.012-.102.013-.167.073-.196.041.018.091.025.15.022.048-.003.122-.016.222-.04.1-.024.171-.037.21-.04.138-.008.205.068.2.227-.004.128.034.293.114.496.083.218.128.383.135.494.002.034.047.106.047.14-.058.031-.133.053-.226.065-.082.009-.164.019-.249.028-.035-.171-.116-.379-.15-.547-.043-.203-.09-.368-.139-.498l-.053.98c-.004.084.047.123.151.117.034-.002.066-.011.096-.026.025-.008.061.004.108.038.004.071.025.112.062.123.044-.028.101-.055.173-.082.064-.024.126-.047.187-.069.039.036.066.093.082.17.02.108.034.171.041.188.008.043.037.134.088.275.038.111.059.202.063.273.002.034,0,.066-.003.096Z"></path>
        <path d="m40.035,103.343h.005c-.034.05-.077.059-.13.028-.011-.002-.062.001-.152.009-.076.004-.131,0-.166-.011-.009,0-.025.009-.05.025-.024.016-.042.025-.054.026-.017.001-.027-.013-.028-.043,0-.005-.001-.024-.003-.058-.001-.023-.012-.039-.033-.046l-.053.041c-.016.013-.024.026-.023.039,0,.011.01.027.028.048.018.021.029.036.032.045,0,.007.006.109.018.306.005.125.027.225.069.3.01-.012.036-.019.077-.02.041-.001.068-.011.081-.027.027.023.071.025.134.004.062-.021.108-.014.135.021l-.008.301c-.025-.003-.063-.015-.113-.038-.015.044-.043.072-.084.084-.017.006-.065.01-.144.015.002-.014-.01-.028-.036-.042-.077.036-.106.123-.087.261.002-.014.005.01.008.071.002.039-.006.066-.025.083-.048.007-.109-.003-.182-.032-.074-.029-.126-.042-.157-.041-.014,0-.027.003-.038.005l-.079.025-.127-1.376-.015-.262c.105-.036.235-.058.391-.067.121-.007.28-.006.476.003.012-.026.036.008.063.006.015,0,.036,0,.064.005.029.004.05.006.064.005.017-.001.032-.004.046-.01l.02-.021c.058.017.088.047.09.09,0,.018-.004.049-.016.094-.012.044-.016.077-.015.1.002.02.007.038.016.054Zm-.494,2.295c-.031.016-.077.025-.139.029-.082.005-.131.008-.148.012-.009-.009-.02-.002-.038-.073-.011-.047-.041-.07-.089-.067-.012,0-.025.003-.042.006l-.076.004-.041-.697c.042-.02.093-.033.155-.036.059-.003.112.003.158.018-.001.025.035.036.108.031l.08-.005c.048.195.077.549.071.777Z"></path>
        <path d="m41.727,103.403l.004.003c-.04-.002-.167.006-.266.019-.084.01-.148.011-.191.005-.041.027-.056.065-.044.112l.026.016c-.021.019-.029.035-.023.046l.022.022c-.005.403-.006.626-.004.67.006.107.019.2.037.281-.017.051-.023.11-.019.175.003.043.013.112.031.205.018.094.043.4.045.448.002.036.001.071-.003.103-.039.016-.081.025-.126.028-.076.005-.158-.011-.244-.047-.011.01-.023.02-.036.031-.013.011-.017.023-.011.037-.028.009-.067-.003-.116-.034-.027-.409-.1-1.241-.208-2.082-.038.034-.108.006-.181.015-.087.01-.172-.004-.206.012-.042-.046-.033-.059-.037-.133-.004-.072-.028-.252-.009-.327.004-.016.162-.007.255-.014.127-.008.155.023.163.022.01-.016.072-.008.117-.011.029.014.06-.013.062.007,0,.013,0,.1-.01.124-.01.024-.015.042-.014.054.002.027.021-.013.067.003.051,0,.103-.002.157-.006.06.005.129-.017.123.035.01-.015.017.011.102-.024.064-.029.102-.104.09-.155-.007-.028.031-.046.008-.033.03-.017.003-.005.036-.018.106.009.164,0,.184-.003.043-.003.147.025.177.01.022.04.033.164.034.232.004.109.005.167.006.174Z"></path>
        <path d="m43.097,104.823v-.003c-.016.03-.023.065-.024.104-.002.025,0,.06.006.106.006.052.009.088.011.109-.023.001-.113.006-.271.015-.096.006-.181.019-.256.039l-.084-.064c-.022.02-.029.035-.023.046-.014-.002-.079.002-.194.011-.09.005-.158.002-.205-.009-.043.041-.096.044-.16.009-.023-.012-.027-.035-.012-.069.015-.034.008-.058-.021-.073-.001-.072.002-.185.01-.338.009-.137.011-.244.007-.322-.006-.104-.023-.203-.051-.297.03-.027.064-.041.103-.044.045-.003.1.011.164.042.09.042.136.064.139.064l.027.022c.003-.007.014-.044.036-.112.012-.044.031-.073.059-.089l.026.019c.011-.005.047-.028.106-.071.046-.03.078-.14.106-.142.031-.002.062.01.091.035.049.018.088.142.106.183.018.041.035.082.052.122-.127.012-.231.017-.313.015-.018.027-.047.032-.084.017-.038-.015-.064-.01-.08.014.003.04.007.114.013.221.003.095.007.17.013.224.008.084.021.16.039.23.023-.001.13-.008.322-.019.132-.008.247-.006.344.004Zm-.131-1.602c-.025.004-.053.007-.085.009-.065.003-.151.001-.259-.006-.133-.006-.214-.009-.243-.01-.036.05-.041.091-.036.177.011.186.017.267.018.241.041.016.062.049.065.099.001.068.003.103.006.105-.019.008-.028.031-.026.07-.032-.007-.065-.023-.1-.049-.048-.031-.062.08-.061.05l-.021.07-.027-.019c-.022.003-.061-.003-.118-.02-.056-.017-.096-.034-.12-.051-.002-.036.004-.057.018-.062l-.058-.045-.024.032c-.05-.234-.084-.646-.064-.898.108.008.234-.011.364-.017.088-.003.21-.01.368-.021.18-.013.309-.021.388-.026.035.023.055.055.057.095.002.026-.004.066-.016.123s-.028.126-.027.153Z"></path>
        <path d="m44.504,104.581h-.004c-.018.036-.024.086-.017.152.008.093.012.141.012.143-.014.005-.032-.001-.056-.021-.036.013-.053.036-.051.068,0,.005.002.013.006.024,0,.013.001.023.001.027.002.025-.006.044-.022.056-.041-.023-.095-.037-.162-.043-.067-.007-.13-.013-.19-.018,0-.31-.043-.612-.125-.908,0,.002-.002-.028-.005-.092,0-.045-.01-.078-.031-.097l-.028.025s.009-.013.028-.027c.019-.014.028-.027.027-.041,0-.007-.002-.014-.005-.02l-.031-.022c-.053.017-.077.059-.073.127.003.045-.015.077-.054.095.014.011.022.024.024.04,0,.009-.001.022-.004.038-.004.016-.005.029-.004.038.001.02.012.037.033.049,0,.014.008.136.021.367.009.148.005.273-.012.377l.003.058c-.02-.001-.042-.001-.068,0-.028.002-.069.006-.122.012-.053.006-.092.01-.118.012-.104.006-.177-.012-.219-.053l-.044-1.272c-.021-.063-.034-.149-.041-.26l-.014-.245c-.01-.12-.025-.213-.046-.277.009-.044.047-.067.114-.072.043-.002.099.004.171.018.033-.016.079-.025.138-.029.017,0,.044-.001.081-.001.039-.003.068-.004.085-.005.11-.006.183-.04.219-.101.051,0,.106.015.166.048.06.033.113.05.158.052.12.071.184.188.194.351.002.036-.012.181-.043.433l-.206.179c.035.064.077.204.127.42.041.18.104.312.188.395Zm-.381-1.446l.004.003c.004.015.002-.04-.005-.167-.003-.061-.026-.106-.067-.133-.023.033-.028-.044-.039.033-.011.077-.03.132-.056.166-.071,0-.087-.043-.129-.102-.026-.037-.039-.005-.039-.007l-.019.015c-.011.01-.023.021-.036.033-.013.012-.027.016-.042.013,0,.013-.006.035-.02.064-.013.029-.02.049-.02.061.001.02.018.035.049.045-.006.046-.007.094-.004.144.002.027.008.089.019.187.013.077.018.142.016.197.025,0,.049,0,.072,0,.099-.006.162-.045.192-.117.01-.021.021-.097.033-.227.011-.099.041-.167.09-.207Z"></path>
      </g>
      <g>
        <path d="m30.48,98.717v.003c-.012.118-.017.2-.012.245-.018.007-.042.008-.07.003-.038-.006-.059-.009-.066-.009-.016,0-.029.006-.039.017-.024-.015-.04-.022-.048-.019-.022.013-.033.033-.031.057,0,.01.004.028.012.053.007.026.011.045.011.057,0,.017-.002.043-.009.078-.007.035-.011.065-.01.087.002.027.007.069.018.126.01.057.016.1.017.129-.012.056-.016.113-.013.171.003.07.022.164.057.281.006.002.013.003.019.002.014,0,.031-.011.051-.03.019-.02.036-.03.051-.03.01,0,.022.002.034.007.037.12.056.197.058.232,0,.017,0,.034,0,.053-.055.013-.094-.005-.117-.056.003-.015-.004-.03-.024-.045l-.062.065c.06.01.084.056.072.139-.005.017-.018.026-.039.027-.035,0-.052,0-.049,0l-.051-.09-.02.025c-.017-.042-.036-.063-.059-.062-.012,0-.034.011-.065.031-.031.02-.057.031-.077.031-.017.001-.033-.003-.05-.013-.001-.025-.004-.05-.009-.077-.004-.027-.018-.043-.041-.051,0-.064,0-.231.005-.504.002-.206,0-.373-.007-.5-.003-.053-.006-.106-.011-.157-.011-.016-.021-.023-.032-.023-.008,0-.021.01-.037.027-.017.017-.031.025-.044.024,0-.021-.01-.053-.028-.099-.018-.045-.027-.078-.028-.099-.002-.035.011-.066.039-.092l.072.018c.029-.041.041-.11.036-.206,0-.018-.004-.048-.008-.088-.004-.04-.007-.069-.007-.088-.008-.158.04-.24.145-.245.039-.002.087.005.143.021l.069.018c.006.027.009.054.01.083.002.039,0,.096-.005.172-.005.075-.007.131-.006.165.003.056.012.106.029.15.017,0,.042-.009.078-.027.035-.017.061-.026.077-.027.029-.001.052.012.07.04Zm-.214.221l-.004-.071-.022-.021.026.091Z"></path>
        <path d="m31.327,98.495h.003c-.007.056-.016.112-.025.168-.011.064-.029.115-.054.151-.004-.002-.029-.013-.076-.036-.032-.017-.06-.024-.085-.021-.019.121-.029.285-.03.493-.001.266-.004.427-.007.482-.031-.002-.054.008-.069.03-.016.022-.03.045-.043.068-.006.013-.008.024-.007.035,0,.016.015.032.042.047.028.015.042.032.042.051-.012.044-.038.067-.077.069-.018,0-.05-.004-.097-.017-.046-.012-.078-.018-.097-.017l-.044-.881c.017-.024.025-.04.023-.048l-.026-.017c.002-.037.005-.221.006-.553.001-.224.01-.406.025-.545-.002,0,.061-.004.191-.013.08-.004.132.018.155.066,0,.045-.004.122-.013.229-.01.099-.013.176-.01.229.004.065.014.125.031.178.07-.094.151-.144.243-.148Zm.306.189c.006.082.011.162.015.24.017.341.012.706-.016,1.094-.029.026-.075.032-.137.018-.061-.014-.106-.009-.133.017-.035-.045-.056-.128-.062-.247-.009-.172-.014-.262-.014-.268-.008-.433.035-.781.127-1.048.106.028.179.092.22.193Z"></path>
        <path d="m32.714,99.131c-.013.027-.019.057-.018.087.002.031.003.061.005.09-.003.024-.01.049-.021.075-.019-.005-.035-.008-.047-.007-.015,0-.03.006-.044.016-.015.01-.027.015-.035.015-.012,0-.029-.004-.05-.013l-.143-.209c.005.062.019.115.042.162.011.024.023.048.035.072-.084.015-.131.017-.142.007l-.02.026-.05-.066c-.039.048-.048.117-.027.209.026.1.027.171.005.216.031.046.068.067.111.065.019,0,.035-.008.048-.021.02-.051.04-.101.061-.152.03-.061.063-.093.1-.095.029-.001.063.013.101.044.046.016.07.038.071.064.001.017-.01.044-.031.08-.022.038-.032.066-.031.087,0,.008.001.015.004.021-.03.022-.056.055-.08.1-.024.044-.054.075-.093.091-.033.033-.064.049-.093.051-.023.001-.057-.016-.102-.052-.045-.036-.087-.053-.126-.051-.016-.036-.056-.076-.12-.121-.064-.044-.104-.091-.118-.142,0,.004,0-.012-.002-.049-.001-.02-.01-.033-.027-.039l.023-.023c-.031,0-.047-.018-.049-.053,0-.004,0-.012-.001-.025.001-.01.002-.018.002-.024-.001-.025-.009-.042-.024-.052l-.006-.108c-.003-.056-.014-.095-.034-.119.02-.131.041-.262.061-.392.034-.152.083-.23.149-.234.01,0,.02.002.031.005.059-.059.131-.09.214-.094.092-.004.195.023.307.084.088.144.142.3.163.47Zm-.425-.34l-.02.026c-.014.003-.031-.005-.051-.022l.003.071c-.031.034-.044.088-.038.16.006.123.009.183.009.179l.092-.002c.044-.025.064-.066.061-.123,0-.029-.011-.076-.03-.142-.018-.066-.027-.114-.027-.146Z"></path>
      </g>
      <g>
        <polygon class="cls-43" points="33.437 102.241 33.529 102.293 33.841 101.476 33.737 101.441 33.426 102.259 33.516 102.316 33.437 102.241 33.437 102.241 33.437 102.241"></polygon>
        <polygon class="cls-43" points="33.574 102.127 33.536 102.142 33.437 102.241 33.516 102.316 33.616 102.212 33.577 102.232 33.574 102.127 33.574 102.127 33.574 102.127"></polygon>
        <polygon class="cls-43" points="34.327 102.121 34.372 102.086 33.574 102.127 33.577 102.232 34.375 102.192 34.426 102.154 34.327 102.121 34.327 102.121 34.327 102.121 34.327 102.121"></polygon>
        <polygon class="cls-43" points="34.688 101.369 34.633 101.302 34.327 102.121 34.426 102.154 34.737 101.336 34.683 101.269 34.688 101.369 34.688 101.369 34.688 101.369 34.688 101.369"></polygon>
        <polygon class="cls-43" points="33.927 101.395 33.888 101.415 34.688 101.369 34.683 101.269 33.887 101.305 33.847 101.324 33.927 101.395 33.927 101.395 33.927 101.395 33.927 101.395"></polygon>
        <polygon class="cls-43" points="33.841 101.476 33.829 101.494 33.927 101.395 33.847 101.324 33.748 101.423 33.737 101.441 33.841 101.476 33.841 101.476 33.841 101.476 33.841 101.476"></polygon>
        <polygon class="cls-43" points="34.503 102.218 34.574 102.187 34.403 102.091 34.348 102.188 34.525 102.286 34.602 102.251 34.498 102.217 34.498 102.217 34.503 102.218 34.503 102.218"></polygon>
        <polygon class="cls-43" points="34.837 101.463 34.809 101.399 34.498 102.217 34.602 102.251 34.913 101.433 34.885 101.369 34.837 101.463 34.837 101.463 34.837 101.463"></polygon>
        <polygon class="cls-43" points="34.737 101.336 34.66 101.371 34.837 101.463 34.885 101.369 34.714 101.274 34.633 101.302 34.737 101.336 34.737 101.336 34.737 101.336"></polygon>
        <polygon points="33.791 101.459 33.786 101.458 33.885 101.359 34.625 101.323 34.633 101.302 34.688 101.32 34.737 101.336 34.733 101.345 34.864 101.417 34.913 101.433 34.893 101.487 35.255 102.348 34.949 103.167 34.552 102.234 34.552 102.234 34.501 102.255 34.498 102.217 34.502 102.207 34.377 102.137 34.348 102.188 34.333 102.139 33.574 102.177 33.475 102.275 33.791 101.459"></polygon>
        <polygon class="cls-43" points="34.899 103.15 34.999 103.146 34.604 102.213 34.501 102.255 34.898 103.189 34.998 103.184 34.894 103.149 34.894 103.149 34.899 103.15 34.899 103.15"></polygon>
        <polygon class="cls-43" points="35.209 102.372 35.205 102.332 34.894 103.149 34.998 103.184 35.309 102.367 35.306 102.327 35.209 102.372 35.209 102.372 35.209 102.372"></polygon>
        <polygon class="cls-43" points="34.913 101.433 34.812 101.439 35.209 102.372 35.306 102.327 34.909 101.394 34.809 101.399 34.913 101.433 34.913 101.433 34.913 101.433"></polygon>
        <polygon class="cls-33" points="34.886 101.644 34.931 101.741 34.947 101.84 34.942 101.937 34.914 102.037 34.865 102.136 34.797 102.223 34.71 102.304 34.605 102.373 34.547 102.397 34.49 102.422 34.426 102.433 34.367 102.446 34.309 102.455 34.246 102.461 34.189 102.453 34.13 102.449 34.078 102.438 34.024 102.42 33.972 102.397 33.926 102.371 33.886 102.341 33.842 102.309 33.806 102.27 33.776 102.227 33.731 102.131 33.715 102.032 33.715 101.933 33.748 101.834 33.791 101.739 33.86 101.647 33.947 101.566 34.057 101.499 34.11 101.473 34.173 101.449 34.232 101.436 34.291 101.423 34.353 101.417 34.411 101.409 34.469 101.417 34.528 101.42 34.582 101.438 34.637 101.456 34.686 101.473 34.737 101.501 34.778 101.526 34.821 101.562 34.85 101.604 34.886 101.644 34.886 101.644 34.886 101.644 34.886 101.644"></polygon>
        <polygon class="cls-43" points="34.926 101.805 34.97 101.902 34.985 102.006 34.98 102.103 34.954 102.199 34.909 102.299 34.835 102.389 34.755 102.467 34.644 102.534 34.585 102.563 34.528 102.588 34.468 102.601 34.404 102.613 34.347 102.621 34.291 102.624 34.232 102.621 34.169 102.611 34.118 102.6 34.064 102.581 34.016 102.56 33.965 102.532 33.924 102.507 33.886 102.473 33.848 102.438 33.816 102.389 33.769 102.296 33.753 102.198 33.76 102.096 33.786 102.001 33.83 101.9 33.898 101.813 33.985 101.732 34.095 101.665 34.154 101.635 34.211 101.616 34.271 101.597 34.336 101.586 34.391 101.583 34.449 101.575 34.507 101.583 34.566 101.586 34.622 101.599 34.676 101.617 34.724 101.639 34.776 101.662 34.816 101.692 34.86 101.723 34.89 101.766 34.924 101.81 34.924 101.81 34.926 101.805 34.926 101.805"></polygon>
        <polygon class="cls-33" points="34.954 101.919 35 102.011 35.015 102.115 35.01 102.212 34.983 102.307 34.934 102.405 34.865 102.498 34.784 102.574 34.674 102.643 34.62 102.674 34.557 102.697 34.498 102.71 34.434 102.721 34.376 102.729 34.32 102.733 34.261 102.729 34.199 102.719 34.148 102.708 34.093 102.69 34.046 102.669 33.995 102.641 33.954 102.616 33.911 102.579 33.88 102.542 33.845 102.497 33.799 102.405 33.782 102.306 33.787 102.209 33.816 102.109 33.86 102.009 33.929 101.917 34.019 101.843 34.125 101.774 34.184 101.744 34.242 101.719 34.301 101.706 34.365 101.695 34.423 101.687 34.478 101.683 34.543 101.688 34.595 101.695 34.651 101.708 34.705 101.726 34.758 101.749 34.804 101.776 34.845 101.8 34.89 101.832 34.919 101.874 34.954 101.919 34.954 101.919 34.954 101.919"></polygon>
        <polygon class="cls-43" points="34.993 102.08 35.038 102.177 35.054 102.276 35.054 102.374 35.021 102.473 34.978 102.569 34.904 102.659 34.822 102.742 34.712 102.808 34.659 102.835 34.597 102.858 34.538 102.871 34.478 102.884 34.416 102.891 34.358 102.899 34.301 102.891 34.241 102.887 34.186 102.874 34.131 102.856 34.083 102.835 34.033 102.807 33.993 102.777 33.954 102.747 33.918 102.708 33.883 102.663 33.844 102.568 33.822 102.468 33.827 102.371 33.855 102.27 33.903 102.177 33.972 102.085 34.059 102.004 34.164 101.935 34.222 101.91 34.28 101.886 34.344 101.874 34.403 101.861 34.46 101.853 34.521 101.851 34.58 101.854 34.635 101.856 34.69 101.87 34.745 101.887 34.797 101.91 34.843 101.937 34.888 101.968 34.927 101.997 34.964 102.037 34.992 102.085 34.992 102.085 34.993 102.08 34.993 102.08"></polygon>
        <polygon class="cls-33" points="35.051 102.187 35.097 102.279 35.113 102.378 35.112 102.481 35.085 102.577 35.036 102.675 34.962 102.766 34.881 102.843 34.776 102.912 34.717 102.942 34.654 102.965 34.595 102.978 34.536 102.991 34.473 102.998 34.417 103.001 34.358 102.998 34.301 102.989 34.245 102.976 34.19 102.958 34.143 102.937 34.095 102.915 34.05 102.884 34.013 102.849 33.977 102.81 33.947 102.767 33.901 102.675 33.881 102.57 33.886 102.473 33.918 102.379 33.962 102.279 34.031 102.186 34.117 102.111 34.222 102.042 34.281 102.012 34.339 101.988 34.401 101.981 34.462 101.963 34.52 101.955 34.58 101.953 34.64 101.957 34.693 101.963 34.748 101.976 34.807 101.996 34.855 102.017 34.903 102.039 34.947 102.07 34.985 102.105 35.021 102.144 35.051 102.187 35.051 102.187 35.051 102.187"></polygon>
        <polygon class="cls-43" points="35.095 102.35 35.135 102.445 35.156 102.546 35.151 102.643 35.123 102.743 35.075 102.837 35.006 102.929 34.919 103.009 34.814 103.079 34.756 103.103 34.693 103.126 34.634 103.139 34.575 103.152 34.518 103.161 34.455 103.167 34.398 103.159 34.338 103.155 34.287 103.144 34.228 103.124 34.18 103.103 34.135 103.077 34.09 103.045 34.05 103.016 34.014 102.976 33.985 102.933 33.94 102.836 33.919 102.736 33.924 102.639 33.957 102.54 34 102.445 34.069 102.353 34.156 102.272 34.266 102.205 34.319 102.178 34.382 102.155 34.441 102.142 34.5 102.129 34.562 102.123 34.62 102.115 34.678 102.123 34.731 102.124 34.793 102.139 34.847 102.157 34.895 102.179 34.941 102.205 34.985 102.236 35.024 102.266 35.061 102.306 35.095 102.35 35.095 102.35 35.095 102.35 35.095 102.35"></polygon>
        <polygon class="cls-43" points="29.657 101.094 29.663 101.063 29.35 101.885 29.448 101.918 29.761 101.096 29.763 101.075 29.657 101.094 29.657 101.094 29.657 101.094 29.657 101.094"></polygon>
        <polygon class="cls-43" points="29.649 101.053 29.651 101.048 29.657 101.094 29.763 101.075 29.751 101.027 29.753 101.022 29.649 101.053 29.649 101.053 29.649 101.053 29.649 101.053"></polygon>
        <polygon class="cls-43" points="29.638 101.005 29.649 101.053 29.753 101.022 29.741 100.974 29.638 101.005 29.638 101.005 29.638 101.005 29.638 101.005"></polygon>
        <polygon class="cls-43" points="29.625 100.962 29.638 101.005 29.741 100.974 29.728 100.931 29.625 100.962 29.625 100.962 29.625 100.962"></polygon>
        <polygon class="cls-43" points="29.613 100.915 29.613 100.915 29.625 100.962 29.728 100.931 29.717 100.883 29.715 100.888 29.613 100.915 29.613 100.915 29.613 100.915 29.613 100.915"></polygon>
        <polygon class="cls-43" points="29.6 100.856 29.6 100.872 29.613 100.915 29.715 100.888 29.702 100.846 29.707 100.864 29.6 100.856 29.6 100.856 29.6 100.856"></polygon>
        <polygon class="cls-43" points="29.706 100.836 29.602 100.818 29.6 100.856 29.707 100.864 29.709 100.826 29.605 100.808 29.704 100.841 29.704 100.841 29.706 100.836 29.706 100.836"></polygon>
        <polygon class="cls-36" points="29.795 103.23 29.786 103.177 29.675 103.195 29.683 103.253 29.795 103.23 29.795 103.23 29.795 103.23 29.795 103.23"></polygon>
        <polygon class="cls-43" points="30.024 102.544 30.027 102.517 29.716 103.335 29.815 103.367 30.126 102.55 30.124 102.522 30.024 102.544 30.024 102.544 30.024 102.544 30.024 102.544"></polygon>
        <polygon class="cls-43" points="30.016 102.486 30.024 102.544 30.124 102.522 30.116 102.465 30.011 102.485 30.011 102.485 30.016 102.486 30.016 102.486"></polygon>
        <polygon class="cls-43" points="30.001 102.432 30.011 102.485 30.116 102.465 30.101 102.41 30.001 102.432 30.001 102.432 30.001 102.432 30.001 102.432"></polygon>
        <polygon class="cls-43" points="29.988 102.373 29.991 102.379 30.001 102.432 30.101 102.41 30.093 102.353 30.096 102.359 29.988 102.373 29.988 102.373 29.988 102.373 29.988 102.373"></polygon>
        <polygon class="cls-43" points="30.087 102.323 29.981 102.31 29.988 102.373 30.096 102.359 30.088 102.302 29.983 102.289 30.087 102.323 30.087 102.323 30.087 102.323"></polygon>
        <g>
          <polygon class="cls-35" points="29.35 101.722 29.3 101.737 29.35 101.722 29.35 101.722"></polygon>
          <polygon class="cls-35" points="29.402 101.894 29.404 101.889 29.43 101.891 29.448 101.918 29.403 101.903 29.402 101.894"></polygon>
          <polygon points="29.289 101.69 29.342 101.68 29.343 101.642 29.656 100.819 29.654 100.824 29.654 100.857 29.663 100.899 29.679 100.948 29.692 100.991 29.704 101.038 29.712 101.079 29.712 101.079 29.761 101.096 29.448 101.918 29.43 101.891 29.404 101.889 29.402 101.894 29.403 101.903 29.448 101.918 29.403 101.916 29.404 101.953 29.372 101.913 29.347 101.911 29.34 101.866 29.359 101.862 29.379 101.809 29.327 101.823 29.312 101.785 29.3 101.737 29.35 101.722 29.35 101.722 29.3 101.737 29.302 101.732 29.289 101.69"></polygon>
        </g>
        <g>
          <polygon class="cls-1" points="31.835 101.914 31.835 101.914 31.88 101.814 31.835 101.914"></polygon>
          <polygon points="29.401 101.848 31.69 101.773 31.75 101.776 31.76 101.779 31.816 101.793 31.82 101.794 31.88 101.814 31.937 101.839 31.942 101.84 31.997 101.875 32.006 101.878 32.049 101.914 32.062 101.924 32.093 101.962 32.097 101.969 32.118 102.003 32.12 102.015 32.019 102.045 32.003 102.02 32.001 102.024 31.975 101.988 31.975 101.988 31.94 101.96 31.948 101.969 31.893 101.939 31.893 101.939 31.835 101.914 31.835 101.914 31.786 101.898 31.73 101.884 31.74 101.888 31.687 101.881 31.687 101.876 29.404 101.953 29.401 101.848"></polygon>
          <polygon points="32.016 102.046 32.019 102.045 32.024 102.054 32.016 102.046"></polygon>
        </g>
        <polygon class="cls-43" points="33.239 103.967 33.239 103.935 32.927 104.757 33.03 104.792 33.343 103.97 33.343 103.937 33.239 103.967 33.239 103.967 33.239 103.967 33.239 103.967"></polygon>
        <polygon class="cls-43" points="32.335 101.237 32.329 101.224 33.239 103.967 33.343 103.937 32.432 101.192 32.431 101.181 32.335 101.237 32.335 101.237 32.335 101.237 32.335 101.237"></polygon>
        <polygon class="cls-43" points="32.317 101.209 32.314 101.202 32.335 101.237 32.431 101.181 32.409 101.146 32.404 101.145 32.312 101.207 32.312 101.207 32.317 101.209 32.317 101.209"></polygon>
        <polygon class="cls-43" points="32.296 101.174 32.288 101.166 32.312 101.207 32.404 101.145 32.37 101.1 32.362 101.092 32.296 101.174 32.296 101.174 32.296 101.174 32.296 101.174"></polygon>
        <polygon class="cls-43" points="32.26 101.151 32.252 101.143 32.296 101.174 32.362 101.092 32.317 101.061 32.309 101.052 32.26 101.151 32.26 101.151 32.26 101.151"></polygon>
        <polygon class="cls-43" points="32.21 101.118 32.205 101.117 32.26 101.151 32.309 101.052 32.253 101.023 32.249 101.021 32.21 101.118 32.21 101.118 32.21 101.118"></polygon>
        <polygon class="cls-43" points="32.157 101.095 32.146 101.097 32.21 101.118 32.249 101.021 32.191 100.997 32.186 100.995 32.151 101.099 32.151 101.099 32.157 101.095 32.157 101.095"></polygon>
        <polygon class="cls-43" points="32.098 101.076 32.092 101.079 32.151 101.099 32.186 100.995 32.127 100.975 32.127 100.975 32.097 101.08 32.097 101.08 32.098 101.076 32.098 101.076"></polygon>
        <polygon class="cls-43" points="32.053 101.066 32.043 101.062 32.097 101.08 32.127 100.975 32.066 100.96 32.061 100.959 32.053 101.066 32.053 101.066 32.053 101.066 32.053 101.066"></polygon>
        <polygon class="cls-43" points="32 101.059 31.998 101.064 32.053 101.066 32.061 100.959 32.003 100.95 31.997 100.954 32 101.059 32 101.059 32 101.059"></polygon>
        <polygon class="cls-43" points="29.766 101.097 29.71 101.134 32 101.059 31.997 100.954 29.712 101.03 29.663 101.063 29.761 101.096 29.761 101.096 29.766 101.097 29.766 101.097"></polygon>
        <polygon class="cls-35" points="30.341 103.598 30.333 103.594 30.338 103.592 30.341 103.598"></polygon>
        <g>
          <polygon class="cls-35" points="31.578 103.968 31.568 104.079 31.578 103.968 31.578 103.968"></polygon>
          <g>
            <polygon class="cls-1" points="31.573 104.021 31.568 104.079 31.573 104.021 31.573 104.021"></polygon>
            <g>
              <polygon class="cls-1" points="29.718 103.131 29.721 103.123 29.723 103.133 29.718 103.131"></polygon>
              <path d="m29.683,103.253l.01.053.02.056.025.042.14.073.139.075.135.072.136.068h.005s.138.064.138.064l.138.063.149.061.152.056.005.002.161.043.162.042.005.002.178.026.183.028h.005s.199.013.199.013l.007-.003.212.005.227-.006.24-.013.05-.033.311-.817-.053-.073.003.105-.016-.02.012-.03-.035.002-.015-.019-.007.02-.179.011h-.23l-.212-.005-.194-.01-.189-.025-.176-.031-.161-.043-.161-.043-.151-.056-.147-.055-.138-.062-.137-.068-.141-.069-.135-.073-.135-.073-.094-.049.003-.008-.049-.016h0l-.013-.06-.01-.053-.004-.018.037-.08-.052-.017h-.002s-.049-.017-.049-.017l-.311.817-.003.026.008.058.006.063Zm.038-.13l.002.01-.005-.003.003-.008Z"></path>
            </g>
          </g>
        </g>
        <polygon class="cls-43" points="32.524 103.269 32.764 103.255 32.761 103.15 32.521 103.163 32.524 103.269 32.524 103.269 32.524 103.269 32.524 103.269"></polygon>
        <polygon class="cls-43" points="32.297 103.275 32.524 103.269 32.521 103.163 32.294 103.17 32.297 103.275 32.297 103.275 32.297 103.275 32.297 103.275"></polygon>
        <polygon class="cls-43" points="32.08 103.268 32.085 103.27 32.297 103.275 32.294 103.17 32.082 103.165 32.088 103.161 32.078 103.273 32.078 103.273 32.08 103.268 32.08 103.268"></polygon>
        <polygon class="cls-43" points="31.876 103.255 31.881 103.257 32.078 103.273 32.088 103.161 31.889 103.15 31.894 103.151 31.876 103.255 31.876 103.255 31.876 103.255 31.876 103.255"></polygon>
        <polygon class="cls-43" points="31.692 103.232 31.876 103.255 31.894 103.151 31.711 103.123 31.692 103.232 31.692 103.232 31.692 103.232"></polygon>
        <polygon class="cls-43" points="31.511 103.199 31.516 103.201 31.692 103.232 31.711 103.123 31.529 103.095 31.534 103.097 31.511 103.199 31.511 103.199 31.511 103.199 31.511 103.199"></polygon>
        <polygon class="cls-43" points="31.35 103.156 31.511 103.199 31.534 103.097 31.373 103.054 31.348 103.161 31.348 103.161 31.35 103.156 31.35 103.156"></polygon>
        <polygon class="cls-43" points="31.182 103.116 31.187 103.118 31.348 103.161 31.373 103.054 31.212 103.011 31.217 103.013 31.182 103.116 31.182 103.116 31.182 103.116"></polygon>
        <polygon class="cls-43" points="31.03 103.061 31.03 103.061 31.182 103.116 31.217 103.013 31.065 102.957 31.07 102.958 31.026 103.059 31.026 103.059 31.03 103.061 31.03 103.061"></polygon>
        <polygon class="cls-43" points="30.881 102.999 31.026 103.059 31.07 102.958 30.925 102.899 30.881 102.999 30.881 102.999 30.881 102.999"></polygon>
        <polygon class="cls-43" points="30.743 102.937 30.881 102.999 30.925 102.899 30.785 102.842 30.743 102.937 30.743 102.937 30.743 102.937"></polygon>
        <polygon class="cls-43" points="30.601 102.868 30.605 102.875 30.743 102.937 30.785 102.842 30.644 102.772 30.649 102.774 30.6 102.873 30.6 102.873 30.601 102.868 30.601 102.868"></polygon>
        <polygon class="cls-43" points="30.465 102.8 30.6 102.873 30.649 102.774 30.513 102.706 30.463 102.805 30.463 102.805 30.465 102.8 30.465 102.8"></polygon>
        <polygon class="cls-43" points="30.33 102.728 30.463 102.805 30.513 102.706 30.378 102.634 30.325 102.727 30.325 102.727 30.33 102.728 30.33 102.728"></polygon>
        <polygon class="cls-43" points="30.19 102.654 30.325 102.727 30.378 102.634 30.242 102.562 30.19 102.654 30.19 102.654 30.19 102.654"></polygon>
        <polygon class="cls-43" points="30.126 102.55 30.05 102.58 30.19 102.654 30.242 102.562 30.103 102.488 30.027 102.517 30.126 102.55 30.126 102.55 30.126 102.55 30.126 102.55"></polygon>
        <polygon class="cls-43" points="44.384 101.069 44.071 101.891 45.093 102.232 45.33 101.686 45.336 101.633 45.338 101.579 45.33 101.521 45.31 101.465 45.277 101.416 45.251 101.363 45.208 101.311 45.164 101.263 45.117 101.22 45.067 101.176 45.014 101.136 44.963 101.108 44.914 101.076 44.856 101.051 44.805 101.023 44.756 101.006 44.712 100.992 44.658 100.985 44.611 100.98 44.565 100.986 44.519 100.993 44.47 101.009 44.426 101.039 44.384 101.069 44.384 101.069 44.384 101.069 44.384 101.069"></polygon>
        <polygon class="cls-43" points="45.047 102.206 45.111 102.178 44.089 101.837 44.055 101.94 45.076 102.281 45.145 102.255 45.047 102.206 45.047 102.206 45.047 102.206"></polygon>
        <g>
          <polygon class="cls-1" points="45.244 102.443 45.251 102.498 45.244 102.443 45.244 102.443"></polygon>
          <polygon class="cls-1" points="45.771 101.892 45.808 101.928 45.768 101.899 45.771 101.892"></polygon>
          <g>
            <polygon class="cls-1" points="45.808 101.928 45.768 101.899 45.771 101.892 45.808 101.928"></polygon>
            <g>
              <polygon class="cls-1" points="45.808 101.928 45.768 101.899 45.771 101.892 45.808 101.928"></polygon>
              <polygon points="29.289 101.64 29.294 101.625 29.605 100.808 29.704 100.841 29.402 101.648 29.396 101.681 29.394 101.67 29.289 101.69 29.287 101.678 29.289 101.64"></polygon>
              <g>
                <polygon class="cls-1" points="45.808 101.928 45.768 101.899 45.771 101.892 45.808 101.928"></polygon>
                <polygon class="cls-35" points="34.297 103.575 34.279 103.586 34.277 103.585 34.297 103.575"></polygon>
                <g>
                  <polygon class="cls-1" points="34.317 103.623 34.356 103.66 34.317 103.623 34.317 103.623"></polygon>
                  <polygon class="cls-1" points="45.808 101.928 45.768 101.899 45.771 101.892 45.808 101.928"></polygon>
                  <polygon class="cls-1" points="32.976 104.774 32.979 104.774 32.979 104.775 32.927 104.757 32.971 104.758 32.976 104.774"></polygon>
                  <path d="m29.327,101.823l.011.048.002-.005.079-.017-.02.053,2.29-.075.055.002.059.02.059.02.059.02.054.035.045.031.032.038.019.038-.054.016.911,2.744h.053s.001.035.001.035h.082l.077-.002.071.002.065-.011.066-.017.066-.033.061-.051.072-.069.002-.005.041-.058.048-.061.054-.064.038-.064.047-.077.05-.066.041-.074.053-.076.043-.062.061-.068.049-.066.058-.058.051-.054.054-.047.053-.043.061-.035.013-.007-.039-.037h0l.039.037.061-.067.056-.053.049-.049.053-.043.051-.038.054-.031.048-.028.053-.026.059-.013.058-.024.059-.013.069-.01.076-.013.084-.005.091-.008.089-.003.005.002,9.881-.738.058-.008.053-.01.048-.012.049-.017.046-.023.048-.028.04-.036.046-.039.01-.013.173-.403-.09-.058.04.039-.007.005-.044-.031-.043.101-.029.018-.038.015-.045.018-.041.008-.053.01-.053.01-9.886.737-.063.006-.061.002-.061.002-.065.011h-.066l-.058.008-.063.007-.058.008-.064.012-.058.008-.059.013-.066.017-.06.013-.062.023-.062.023-.06.03-.117.071-.118.108-.125.129-.12.146-.117.153-.1.137-.099.131-.082.099-.047.011-.041.008-.051.005h-.098l-.043-.003-.054-.002-.048-.005-.907-2.738-.02-.039-.031-.038-.044-.031-.06-.036-.057-.025-.059-.02-.056-.013h-.054s-2.288.068-2.288.068l-.275.724-.002-.01-.108.029Zm16.441.076l.003-.007.038.036-.04-.029Z"></path>
                </g>
              </g>
            </g>
          </g>
        </g>
        <polygon class="cls-43" points="45.422 102.101 45.481 102.087 45.534 102.077 45.581 102.066 45.631 102.049 45.677 102.026 45.724 101.998 45.762 101.967 45.808 101.928 45.729 101.852 45.695 101.89 45.658 101.916 45.624 101.938 45.586 101.952 45.55 101.962 45.507 101.975 45.461 101.982 45.41 101.987 45.422 102.101 45.422 102.101 45.422 102.101"></polygon>
        <polygon class="cls-43" points="35.542 102.834 45.422 102.101 45.41 101.987 35.53 102.725 35.542 102.834 35.542 102.834 35.542 102.834"></polygon>
        <polygon class="cls-43" points="34.573 103.009 34.631 102.984 34.688 102.965 34.755 102.943 34.811 102.924 34.871 102.906 34.929 102.898 34.986 102.889 35.051 102.878 35.103 102.868 35.164 102.867 35.227 102.86 35.289 102.853 35.352 102.847 35.408 102.843 35.475 102.838 35.542 102.834 35.53 102.725 35.467 102.732 35.404 102.738 35.339 102.738 35.276 102.745 35.215 102.746 35.156 102.76 35.095 102.761 35.027 102.766 34.968 102.779 34.909 102.792 34.845 102.804 34.779 102.82 34.723 102.84 34.656 102.861 34.588 102.883 34.529 102.912 34.573 103.009 34.573 103.009 34.573 103.009 34.573 103.009"></polygon>
        <polygon class="cls-43" points="33.688 103.986 33.71 103.971 33.754 103.92 33.794 103.868 33.841 103.807 33.891 103.741 33.947 103.672 33.998 103.601 34.055 103.527 34.113 103.453 34.172 103.375 34.233 103.307 34.293 103.244 34.353 103.177 34.404 103.122 34.468 103.079 34.521 103.036 34.573 103.009 34.529 102.912 34.462 102.95 34.404 102.991 34.337 103.045 34.273 103.106 34.213 103.169 34.154 103.231 34.088 103.313 34.031 103.387 33.973 103.461 33.915 103.535 33.865 103.606 33.809 103.675 33.759 103.741 33.711 103.802 33.672 103.854 33.636 103.897 33.656 103.887 33.688 103.986 33.688 103.986 33.688 103.986 33.688 103.986"></polygon>
        <polygon class="cls-1" points="44.363 101.116 44.384 101.069 44.423 101.032 44.482 101.003 44.552 100.993 44.589 100.995 44.632 100.998 44.673 101.006 44.715 101.014 44.764 101.031 44.808 101.046 44.856 101.067 44.907 101.095 44.95 101.115 44.994 101.146 45.034 101.176 45.077 101.212 45.121 101.243 45.152 101.281 45.19 101.315 45.221 101.353 45.279 101.428 45.309 101.503 45.323 101.541 45.331 101.566 45.326 101.63 45.315 101.681 45.278 101.724 45.226 101.75 45.155 101.764 45.116 101.768 45.075 101.76 45.027 101.755 44.976 101.743 44.932 101.728 44.882 101.712 44.83 101.689 44.784 101.663 44.736 101.641 44.685 101.613 44.64 101.582 44.598 101.546 44.558 101.516 44.517 101.475 44.481 101.435 44.45 101.398 44.399 101.32 44.369 101.245 44.361 101.22 44.353 101.179 44.363 101.116"></polygon>
        <polygon class="cls-33" points="31.796 101.013 32 101.01 32.016 101.01 30.264 100.425 30.176 100.477 31.794 101.018 31.794 101.018 31.796 101.013 31.796 101.013"></polygon>
        <polygon class="cls-33" points="31.796 101.013 29.712 101.079 29.704 101.038 29.692 100.991 29.679 100.948 29.663 100.899 29.654 100.857 29.654 100.824 29.667 100.785 29.704 100.758 29.789 100.7 29.884 100.644 29.98 100.588 30.075 100.532 30.166 100.474 30.176 100.477 31.794 101.018 31.794 101.018 31.796 101.013 31.796 101.013"></polygon>
        <polygon class="cls-32" points="30.529 102.279 31.948 102.199 32.504 102.423 32.7 103.004 32.76 103.205 32.524 103.219 32.294 103.219 32.082 103.214 31.888 103.204 31.699 103.179 31.523 103.148 31.361 103.105 31.2 103.062 31.049 103.007 30.902 102.952 30.764 102.889 30.628 102.822 30.486 102.753 30.351 102.68 30.217 102.608 30.077 102.534 30.063 102.474 30.054 102.422 30.041 102.363 30.032 102.305 30.529 102.279"></polygon>
        <polygon class="cls-33" points="34.105 102.442 34.125 102.465 34.307 102.574 34.367 102.479 34.184 102.369 34.202 102.397 34.105 102.442 34.112 102.455 34.125 102.465 34.105 102.442 34.105 102.442 34.105 102.442"></polygon>
        <polygon class="cls-33" points="32.481 102.475 32.45 102.438 32.71 103.221 32.814 103.19 32.554 102.406 32.526 102.375 32.554 102.406 32.546 102.382 32.526 102.375 32.481 102.475 32.481 102.475 32.481 102.475 32.481 102.475"></polygon>
        <polygon class="cls-33" points="31.953 102.25 31.927 102.247 32.481 102.475 32.526 102.375 31.972 102.146 31.95 102.145 31.972 102.146 31.962 102.143 31.95 102.145 31.953 102.25 31.953 102.25 31.953 102.25 31.953 102.25"></polygon>
        <polygon class="cls-33" points="30.088 102.302 30.035 102.361 31.953 102.25 31.95 102.145 30.032 102.255 29.981 102.31 30.032 102.255 29.971 102.257 29.981 102.31 30.088 102.302 30.088 102.302 30.088 102.302"></polygon>
        <polygon class="cls-33" points="30.103 102.488 30.124 102.522 30.123 102.494 30.116 102.465 30.114 102.437 30.106 102.412 30.105 102.384 30.098 102.354 30.09 102.33 30.088 102.302 29.981 102.31 29.981 102.343 29.986 102.377 29.994 102.402 29.996 102.43 30.004 102.455 30.011 102.485 30.023 102.516 30.024 102.544 30.05 102.58 30.024 102.544 30.032 102.569 30.05 102.58 30.103 102.488 30.103 102.488 30.103 102.488"></polygon>
        <polygon class="cls-33" points="32.712 103.216 32.756 103.148 32.521 103.163 32.294 103.17 32.088 103.161 31.889 103.15 31.711 103.123 31.534 103.097 31.373 103.054 31.217 103.013 31.065 102.957 30.925 102.899 30.785 102.842 30.649 102.774 30.513 102.706 30.378 102.634 30.242 102.562 30.103 102.488 30.05 102.58 30.19 102.654 30.325 102.727 30.463 102.805 30.6 102.873 30.743 102.937 30.881 102.999 31.03 103.061 31.182 103.116 31.348 103.161 31.511 103.199 31.692 103.232 31.881 103.257 32.078 103.273 32.297 103.275 32.524 103.269 32.769 103.257 32.814 103.19 32.769 103.257 32.837 103.252 32.814 103.19 32.71 103.221 32.71 103.221 32.712 103.216 32.712 103.216"></polygon>
        <g>
          <polygon class="cls-1" points="33.704 103.911 33.744 103.95 33.704 103.911 33.704 103.911"></polygon>
          <polygon class="cls-1" points="33.34 103.897 33.33 103.898 33.33 103.898 33.34 103.897"></polygon>
          <polygon class="cls-1" points="32.447 101.236 33.886 101.716 32.447 101.236 32.447 101.236"></polygon>
        </g>
        <polygon class="cls-33" points="35.53 102.725 35.457 102.728 35.376 102.74 35.304 102.743 35.225 102.749 35.149 102.763 35.069 102.774 34.988 102.786 34.911 102.804 34.833 102.822 34.766 102.843 34.692 102.868 34.623 102.894 34.564 102.924 34.493 102.955 34.436 102.996 34.383 103.039 34.448 103.121 34.499 103.083 34.549 103.05 34.603 103.019 34.666 102.996 34.727 102.961 34.792 102.945 34.87 102.927 34.937 102.906 35.011 102.898 35.077 102.881 35.156 102.875 35.232 102.862 35.312 102.85 35.391 102.843 35.465 102.835 35.542 102.834 35.53 102.725 35.53 102.725 35.53 102.725 35.53 102.725"></polygon>
        <polygon class="cls-33" points="45.41 101.987 35.53 102.725 35.542 102.834 45.422 102.101 45.41 101.987 45.41 101.987 45.41 101.987"></polygon>
        <polygon class="cls-33" points="45.595 101.384 45.636 101.442 45.679 101.495 45.698 101.551 45.729 101.605 45.746 101.655 45.751 101.705 45.753 101.75 45.749 101.793 45.737 101.827 45.721 101.86 45.7 101.892 45.662 101.923 45.622 101.942 45.56 101.965 45.494 101.982 45.41 101.987 45.422 102.101 45.512 102.092 45.591 102.069 45.66 102.043 45.721 102.008 45.777 101.972 45.816 101.92 45.838 101.872 45.858 101.813 45.856 101.752 45.86 101.693 45.846 101.633 45.825 101.566 45.8 101.508 45.767 101.442 45.724 101.374 45.682 101.321 45.595 101.384 45.595 101.384 45.595 101.384"></polygon>
        <polygon class="cls-33" points="44.417 100.822 44.506 100.819 44.596 100.827 44.688 100.847 44.777 100.86 44.861 100.888 44.945 100.916 45.025 100.954 45.101 100.99 45.18 101.032 45.253 101.079 45.33 101.126 45.386 101.172 45.445 101.225 45.502 101.283 45.55 101.337 45.595 101.384 45.682 101.321 45.631 101.26 45.573 101.202 45.516 101.145 45.451 101.09 45.381 101.04 45.31 100.988 45.238 100.942 45.156 100.893 45.07 100.853 44.983 100.819 44.894 100.789 44.8 100.758 44.708 100.738 44.614 100.723 44.507 100.715 44.413 100.716 44.417 100.822 44.417 100.822 44.417 100.822"></polygon>
        <polygon class="cls-33" points="35.674 101.123 44.417 100.822 44.413 100.716 35.676 101.019 35.674 101.123 35.674 101.123 35.674 101.123"></polygon>
        <polygon class="cls-33" points="34.294 100.903 34.376 100.937 34.464 100.955 34.548 100.983 34.635 101 34.727 101.021 34.813 101.044 34.906 101.058 34.99 101.069 35.078 101.088 35.168 101.096 35.256 101.109 35.344 101.111 35.428 101.123 35.516 101.12 35.597 101.124 35.674 101.123 35.676 101.019 35.594 101.019 35.513 101.014 35.437 101.011 35.352 101.004 35.266 100.998 35.181 100.991 35.097 100.98 35.008 100.966 34.921 100.948 34.837 100.937 34.752 100.913 34.663 100.9 34.577 100.877 34.487 100.853 34.411 100.833 34.327 100.805 34.293 100.908 34.293 100.908 34.294 100.903 34.294 100.903"></polygon>
        <polygon class="cls-33" points="31.345 100.095 31.495 100.073 31.636 100.06 31.771 100.05 31.895 100.042 32.011 100.037 32.117 100.05 32.225 100.054 32.316 100.062 32.41 100.077 32.497 100.095 32.579 100.112 32.653 100.136 32.732 100.163 32.794 100.189 32.872 100.221 32.933 100.251 33.003 100.286 33.074 100.321 33.143 100.36 33.212 100.4 33.281 100.439 33.354 100.485 33.425 100.52 33.502 100.568 33.587 100.607 33.67 100.657 33.762 100.693 33.85 100.739 33.95 100.783 34.059 100.819 34.174 100.869 34.293 100.908 34.327 100.805 34.209 100.765 34.092 100.721 33.995 100.683 33.893 100.644 33.799 100.596 33.719 100.558 33.637 100.508 33.556 100.471 33.477 100.428 33.403 100.387 33.334 100.347 33.262 100.301 33.192 100.261 33.122 100.227 33.051 100.192 32.987 100.154 32.916 100.12 32.839 100.089 32.767 100.059 32.688 100.033 32.604 100.005 32.516 99.987 32.428 99.973 32.33 99.952 32.231 99.94 32.127 99.939 32.006 99.937 31.892 99.937 31.758 99.942 31.623 99.952 31.48 99.97 31.332 99.986 31.34 100.093 31.34 100.093 31.345 100.095 31.345 100.095"></polygon>
        <polygon class="cls-33" points="29.731 100.806 29.817 100.747 29.912 100.691 30.008 100.635 30.105 100.575 30.194 100.522 30.294 100.468 30.388 100.417 30.485 100.373 30.588 100.325 30.693 100.277 30.795 100.234 30.9 100.198 31.013 100.17 31.117 100.139 31.23 100.111 31.34 100.093 31.332 99.986 31.209 100.011 31.092 100.032 30.977 100.065 30.868 100.095 30.76 100.141 30.648 100.18 30.546 100.223 30.442 100.271 30.337 100.323 30.236 100.377 30.143 100.428 30.048 100.484 29.952 100.54 29.856 100.596 29.766 100.654 29.676 100.711 29.726 100.805 29.726 100.805 29.731 100.806 29.731 100.806"></polygon>
        <polygon class="cls-33" points="29.712 101.03 29.768 101.076 29.751 101.027 29.741 100.974 29.728 100.931 29.717 100.883 29.71 100.854 29.706 100.836 29.714 100.811 29.726 100.805 29.676 100.711 29.628 100.755 29.603 100.813 29.597 100.866 29.613 100.915 29.625 100.962 29.638 101.005 29.651 101.048 29.659 101.089 29.71 101.134 29.659 101.089 29.661 101.134 29.71 101.134 29.712 101.03 29.712 101.03 29.712 101.03"></polygon>
        <g>
          <polygon class="cls-1" points="33.748 101.423 33.749 101.423 33.735 101.479 33.748 101.423"></polygon>
          <polygon class="cls-32" points="33.75 101.418 33.749 101.423 33.748 101.423 33.75 101.418"></polygon>
          <polygon class="cls-32" points="33.725 101.443 33.748 101.423 33.735 101.479 33.725 101.443"></polygon>
          <g>
            <polygon class="cls-1" points="44.384 101.069 44.423 101.032 44.482 101.003 44.552 100.993 44.589 100.995 44.632 100.998 44.673 101.006 44.715 101.014 44.764 101.031 44.808 101.046 44.856 101.067 44.907 101.095 44.95 101.115 44.994 101.146 45.034 101.176 45.077 101.212 45.121 101.243 45.152 101.281 45.19 101.315 45.221 101.353 45.279 101.428 45.309 101.503 45.323 101.541 45.331 101.566 45.326 101.63 45.315 101.681 45.278 101.724 45.226 101.75 45.155 101.764 45.116 101.768 45.075 101.76 45.027 101.755 44.976 101.743 44.932 101.728 44.882 101.712 44.83 101.689 44.784 101.663 44.736 101.641 44.685 101.613 44.64 101.582 44.598 101.546 44.558 101.516 44.517 101.475 44.481 101.435 44.45 101.398 44.399 101.32 44.369 101.245 44.361 101.22 44.353 101.179 44.363 101.116 44.384 101.069"></polygon>
            <polygon class="cls-1" points="34.861 101.416 34.861 101.416 34.812 101.439 34.861 101.416"></polygon>
            <polygon class="cls-1" points="35.217 102.314 35.252 102.342 35.255 102.348 35.161 102.465 34.335 102.524 34.156 102.42 34.155 102.418 34.202 102.397 33.85 101.472 33.909 101.414 34.66 101.371 34.819 101.454 35.209 102.372 35.217 102.314"></polygon>
            <polygon class="cls-1" points="32.399 101.137 32.399 101.137 33.781 101.599 32.399 101.137"></polygon>
            <g>
              <polygon class="cls-1" points="44.384 101.069 44.423 101.032 44.482 101.003 44.552 100.993 44.589 100.995 44.632 100.998 44.673 101.006 44.715 101.014 44.764 101.031 44.808 101.046 44.856 101.067 44.907 101.095 44.95 101.115 44.994 101.146 45.034 101.176 45.077 101.212 45.121 101.243 45.152 101.281 45.19 101.315 45.221 101.353 45.279 101.428 45.309 101.503 45.323 101.541 45.331 101.566 45.326 101.63 45.315 101.681 45.278 101.724 45.226 101.75 45.155 101.764 45.116 101.768 45.075 101.76 45.027 101.755 44.976 101.743 44.932 101.728 44.882 101.712 44.83 101.689 44.784 101.663 44.736 101.641 44.685 101.613 44.64 101.582 44.598 101.546 44.558 101.516 44.517 101.475 44.481 101.435 44.45 101.398 44.399 101.32 44.369 101.245 44.361 101.22 44.353 101.179 44.363 101.116 44.384 101.069"></polygon>
              <polygon class="cls-1" points="34.66 101.371 34.819 101.454 35.209 102.372 35.217 102.314 35.252 102.342 35.255 102.348 35.161 102.465 34.335 102.524 34.156 102.42 34.155 102.418 34.202 102.397 33.85 101.472 33.909 101.414 34.66 101.371"></polygon>
              <polygon class="cls-1" points="32.399 101.137 32.399 101.137 33.781 101.599 32.399 101.137"></polygon>
              <g>
                <polygon class="cls-1" points="44.384 101.069 44.423 101.032 44.482 101.003 44.552 100.993 44.589 100.995 44.632 100.998 44.673 101.006 44.715 101.014 44.764 101.031 44.808 101.046 44.856 101.067 44.907 101.095 44.95 101.115 44.994 101.146 45.034 101.176 45.077 101.212 45.121 101.243 45.152 101.281 45.19 101.315 45.221 101.353 45.279 101.428 45.309 101.503 45.323 101.541 45.331 101.566 45.326 101.63 45.315 101.681 45.278 101.724 45.226 101.75 45.155 101.764 45.116 101.768 45.075 101.76 45.027 101.755 44.976 101.743 44.932 101.728 44.882 101.712 44.83 101.689 44.784 101.663 44.736 101.641 44.685 101.613 44.64 101.582 44.598 101.546 44.558 101.516 44.517 101.475 44.481 101.435 44.45 101.398 44.399 101.32 44.369 101.245 44.361 101.22 44.353 101.179 44.363 101.116 44.384 101.069"></polygon>
                <polygon class="cls-1" points="34.66 101.371 34.819 101.454 35.209 102.372 35.217 102.314 35.252 102.342 35.255 102.348 35.162 102.464 35.156 102.414 34.33 102.473 34.367 102.479 34.339 102.523 34.335 102.524 34.156 102.42 34.155 102.418 34.202 102.397 33.85 101.472 33.909 101.414 34.66 101.371"></polygon>
                <polygon class="cls-1" points="32.399 101.137 32.399 101.137 33.781 101.599 32.399 101.137"></polygon>
                <g>
                  <polygon class="cls-1" points="35.238 102.167 36.803 102.689 35.238 102.167 35.238 102.167"></polygon>
                  <polygon class="cls-1" points="35.197 102.071 37 102.673 35.197 102.071 35.197 102.071"></polygon>
                  <polygon class="cls-1" points="44.384 101.069 44.423 101.032 44.482 101.003 44.552 100.993 44.589 100.995 44.632 100.998 44.673 101.006 44.715 101.014 44.764 101.031 44.808 101.046 44.856 101.067 44.907 101.095 44.95 101.115 44.994 101.146 45.034 101.176 45.077 101.212 45.121 101.243 45.152 101.281 45.19 101.315 45.221 101.353 45.279 101.428 45.309 101.503 45.323 101.541 45.331 101.566 45.326 101.63 45.315 101.681 45.278 101.724 45.226 101.75 45.155 101.764 45.116 101.768 45.075 101.76 45.027 101.755 44.976 101.743 44.932 101.728 44.882 101.712 44.83 101.689 44.784 101.663 44.736 101.641 44.685 101.613 44.64 101.582 44.598 101.546 44.558 101.516 44.517 101.475 44.481 101.435 44.45 101.398 44.399 101.32 44.369 101.245 44.361 101.22 44.353 101.179 44.363 101.116 44.384 101.069"></polygon>
                  <polygon class="cls-1" points="34.66 101.371 34.819 101.454 35.209 102.372 35.217 102.314 35.252 102.342 35.255 102.348 35.162 102.464 35.161 102.465 34.339 102.523 34.335 102.524 34.156 102.42 34.155 102.418 34.202 102.397 33.85 101.472 33.909 101.414 34.66 101.371"></polygon>
                  <polygon class="cls-1" points="32.399 101.137 32.399 101.137 33.781 101.599 32.399 101.137"></polygon>
                  <polygon class="cls-32" points="35.197 102.071 37 102.673 36.804 102.684 36.803 102.689 35.238 102.167 35.197 102.071"></polygon>
                  <g>
                    <polygon class="cls-1" points="44.384 101.069 44.423 101.032 44.482 101.003 44.552 100.993 44.589 100.995 44.632 100.998 44.673 101.006 44.715 101.014 44.764 101.031 44.808 101.046 44.856 101.067 44.907 101.095 44.95 101.115 44.994 101.146 45.034 101.176 45.077 101.212 45.121 101.243 45.152 101.281 45.19 101.315 45.221 101.353 45.279 101.428 45.309 101.503 45.323 101.541 45.331 101.566 45.326 101.63 45.315 101.681 45.278 101.724 45.226 101.75 45.155 101.764 45.116 101.768 45.075 101.76 45.027 101.755 44.976 101.743 44.932 101.728 44.882 101.712 44.83 101.689 44.784 101.663 44.736 101.641 44.685 101.613 44.64 101.582 44.598 101.546 44.558 101.516 44.517 101.475 44.481 101.435 44.45 101.398 44.399 101.32 44.369 101.245 44.361 101.22 44.353 101.179 44.363 101.116 44.384 101.069"></polygon>
                    <polygon class="cls-1" points="34.66 101.371 34.819 101.454 35.196 102.341 35.137 102.415 34.33 102.473 34.367 102.479 34.339 102.523 34.335 102.524 34.156 102.42 34.155 102.418 34.202 102.397 33.85 101.472 33.909 101.414 34.66 101.371"></polygon>
                    <polygon class="cls-1" points="35.217 102.314 35.252 102.342 35.252 102.342 35.217 102.314"></polygon>
                    <polygon class="cls-1" points="32.399 101.137 32.399 101.137 33.781 101.599 32.399 101.137"></polygon>
                    <path class="cls-32" d="m29.71,101.134l2.29-.075.048.005.044.015.059.02.054.018.049.033.036.023.021.034.016.017.911,2.744.013.043.044-.002.046-.006.053.006.064.005h.061s.059.002.059.002l.054-.015.061-.018.049-.033.059-.063.049-.066.046-.056.046-.056.04-.053.038-.048.033-.05.039-.053.033-.049.038-.047.038-.048.041-.041.043-.046.049-.049.049-.049.062-.056-.033-.042.05-.04.056-.037.065-.028.059-.029.064-.028.073-.019.074-.025.072-.02.069-.01.076-.013.081-.012.076-.013.079-.007.079-.006.074-.008.073-.003,1.27-.092-1.565-.522-.041-.096h0l1.803.602,8.419-.629.156-.025.117-.054.081-.078.029-.089v-.099s.002-.005.002-.005l-.028-.113-.056-.112-.081-.12-.047-.054-.053-.056-.058-.057-.061-.048-.064-.054-.072-.046-.077-.048-.078-.048-.082-.033-.081-.038-.089-.03-.094-.031-.089-.013-.092-.02-.096-.01h-.094s-1.271.049-1.271.049l-7.466.255h-.082l-.078.002-.087-.002-.084-.012-.086-.006-.085-.007-.084-.012-.089-.013-.088-.013-.087-.018-.087-.018-.087-.018-.09-.025-.085-.023-.08-.021-.084-.028-.119-.04-.117-.045-.102-.039-.102-.039-.089-.046-.085-.039-.089-.046-.08-.038-.077-.048-.069-.04-.074-.041-.069-.04-.074-.041-.069-.039-.066-.033-.069-.04-.071-.034-.072-.03-.069-.023-.079-.026-.084-.028-.08-.022-.089-.013-.094-.015-.095-.01-.107-.008-.114-.005-.117.005-.122.003-.137.015-.141.013-.155.02-.115.016-.114.028-.113.028-.105.036-.111.04-.107.041-.102.043-.104.048-.098.05-.101.054,1.598.533-2.15.072-.002.104Zm14.643.045l.01-.063.022-.047.039-.036.059-.03.069-.01.038.002.043.003.041.008.041.009.05.016.044.015.048.021.051.028.043.02.044.031.039.03.043.036.044.031.031.038.038.034.031.038.058.074.03.076.015.038.008.025-.005.064-.012.051-.036.043-.053.026-.071.015-.039.004-.041-.008-.048-.005-.051-.012-.045-.015-.049-.017-.053-.023-.046-.027-.048-.022-.051-.028-.045-.031-.042-.036-.039-.03-.041-.041-.036-.04-.031-.037-.051-.077-.03-.076-.008-.025-.008-.041Zm-9.101,1.163h0l-.035-.028.035.028Zm-1.401-.87l.059-.058.751-.043.159.083.377.887-.059.074-.807.058.036.007-.028.044h-.004s-.179-.103-.179-.103v-.002s.046-.021.046-.021l-.352-.925Z"></path>
                  </g>
                </g>
              </g>
            </g>
          </g>
        </g>
        <polygon class="cls-43" points="43.844 101.749 43.798 101.723 43.79 101.682 43.856 101.665 43.869 101.708 43.829 101.678 43.844 101.749 43.844 101.749 43.844 101.749"></polygon>
        <polygon class="cls-43" points="43.933 101.697 43.923 101.71 43.907 101.726 43.887 101.736 43.868 101.746 43.844 101.749 43.829 101.678 43.84 101.682 43.854 101.671 43.872 101.665 43.874 101.66 43.871 101.671 43.932 101.702 43.932 101.702 43.933 101.697 43.933 101.697"></polygon>
        <polygon class="cls-43" points="43.747 101.283 43.752 101.285 43.784 101.323 43.825 101.364 43.864 101.41 43.902 101.461 43.933 101.516 43.951 101.576 43.952 101.643 43.932 101.702 43.871 101.671 43.884 101.631 43.881 101.592 43.869 101.544 43.84 101.501 43.807 101.451 43.771 101.412 43.729 101.371 43.698 101.333 43.703 101.335 43.747 101.283 43.747 101.283 43.747 101.283"></polygon>
        <polygon class="cls-43" points="43.142 101.109 43.137 101.107 43.224 101.109 43.306 101.109 43.384 101.124 43.458 101.132 43.534 101.152 43.604 101.187 43.678 101.228 43.747 101.283 43.703 101.335 43.636 101.29 43.571 101.252 43.511 101.221 43.445 101.205 43.372 101.192 43.298 101.183 43.223 101.18 43.145 101.181 43.147 101.177 43.135 101.112 43.135 101.112 43.142 101.109 43.142 101.109"></polygon>
        <polygon class="cls-43" points="36.724 101.446 36.752 101.428 43.135 101.112 43.147 101.177 36.761 101.497 36.79 101.479 36.724 101.446 36.724 101.446 36.724 101.446"></polygon>
        <polygon class="cls-43" points="36.572 101.67 36.503 101.646 36.508 101.599 36.521 101.559 36.541 101.517 36.567 101.487 36.602 101.465 36.646 101.447 36.696 101.431 36.752 101.428 36.761 101.497 36.709 101.506 36.661 101.518 36.638 101.521 36.615 101.541 36.604 101.559 36.586 101.581 36.576 101.61 36.577 101.655 36.508 101.631 36.572 101.67 36.572 101.67 36.572 101.67"></polygon>
        <g>
          <polygon class="cls-1" points="36.752 101.429 36.761 101.497 36.752 101.429 36.752 101.429"></polygon>
          <g>
            <polygon class="cls-1" points="36.577 101.655 36.586 101.613 36.605 101.571 36.622 101.538 36.656 101.517 36.697 101.508 36.755 101.5 36.761 101.497 43.147 101.177 43.254 101.185 43.343 101.181 43.427 101.193 43.504 101.208 43.575 101.242 43.639 101.28 43.698 101.333 43.766 101.41 43.825 101.479 43.868 101.548 43.889 101.6 43.889 101.632 43.874 101.66 43.833 101.685 43.756 101.703 43.647 101.716 37.086 102.055 37.081 102.053 36.988 102.05 36.898 102.025 36.817 101.987 36.748 101.947 36.691 101.89 36.65 101.832 36.613 101.776 36.586 101.729 36.581 101.694 36.577 101.655"></polygon>
            <g>
              <path class="cls-1" d="m36.586,101.613l-.008.041.003.04.005.035.028.048.036.056.041.057.057.058.069.04.081.038.09.025.092.003.005.002,6.562-.338.109-.013.077-.018.041-.025.015-.028v-.033l-.021-.051-.043-.069-.059-.069-.068-.077-.06-.053-.064-.038-.071-.034-.077-.015-.084-.012-.089.004-.107-.008-6.386.32-.006.003-.058.008-.041.009-.034.021-.016.033-.02.043Zm.09-.041l6.386-.32.003-.01.086.007h.082s.077.015.077.015l.074.008.076.02.071.034.069.04.074.057.028.032.025.025.023.03.02.023.028.031.021.035.018.028.018.028.002.011-.066.016.002.012-.016-.033-.018-.028-.025-.025-.018-.028-.019-.023-.023-.03-.025-.025-.03-.026.002-.002-.059-.044-.062-.043-.063-.026-.066-.016-.073-.014-.074-.008-.081-.005-.077.002-6.383.315-.007-.062Z"></path>
              <g>
                <path class="cls-1" d="m36.586,101.613l-.008.041.003.04.005.035.028.048.036.056.041.057.057.058.069.04.081.038.09.025.092.003.005.002,6.562-.338.109-.013.077-.018.041-.025.015-.028v-.033l-.021-.051-.043-.069-.059-.069-.068-.077-.06-.053-.064-.038-.071-.034-.077-.015-.084-.012-.089.004-.107-.008-6.386.32-.006.003-.058.008-.041.009-.034.021-.016.033-.02.043Z"></path>
                <g>
                  <polygon class="cls-1" points="36.605 101.571 36.622 101.538 36.656 101.517 36.697 101.508 36.735 101.503 36.683 101.602 43.068 101.282 43.15 101.282 43.226 101.285 43.303 101.3 43.377 101.308 43.448 101.326 43.515 101.354 43.583 101.399 43.649 101.448 43.672 101.478 43.696 101.502 43.72 101.532 43.744 101.557 43.762 101.585 43.785 101.615 43.803 101.643 43.825 101.677 43.827 101.687 43.756 101.703 43.647 101.716 37.086 102.055 37.081 102.053 36.988 102.05 36.898 102.025 36.817 101.987 36.748 101.947 36.691 101.89 36.65 101.832 36.613 101.776 36.586 101.729 36.581 101.694 36.577 101.655 36.586 101.613 36.605 101.571"></polygon>
                  <polygon points="43.803 101.643 43.785 101.615 43.762 101.585 43.744 101.557 43.72 101.532 43.696 101.502 43.672 101.478 43.649 101.448 43.583 101.399 43.515 101.354 43.448 101.326 43.377 101.308 43.303 101.3 43.226 101.285 43.15 101.282 43.068 101.282 36.683 101.602 36.735 101.503 36.755 101.5 36.761 101.497 43.147 101.177 43.254 101.185 43.343 101.181 43.427 101.193 43.504 101.208 43.575 101.242 43.639 101.28 43.698 101.333 43.766 101.41 43.825 101.479 43.868 101.548 43.889 101.6 43.889 101.632 43.874 101.66 43.833 101.685 43.827 101.687 43.825 101.677 43.803 101.643"></polygon>
                  <g>
                    <polygon class="cls-1" points="36.588 101.607 36.594 101.605 36.627 101.605 36.683 101.602 36.736 101.502 36.755 101.5 36.761 101.497 43.147 101.177 43.254 101.185 43.343 101.181 43.427 101.193 43.504 101.208 43.575 101.242 43.639 101.28 43.698 101.333 43.766 101.41 43.825 101.479 43.868 101.548 43.889 101.6 43.889 101.632 43.874 101.66 43.833 101.685 43.827 101.687 43.756 101.703 43.647 101.716 37.086 102.055 37.081 102.053 36.988 102.05 36.898 102.025 36.817 101.987 36.748 101.947 36.691 101.89 36.65 101.832 36.613 101.776 36.586 101.729 36.581 101.694 36.577 101.655 36.586 101.613 36.588 101.607"></polygon>
                    <path d="m36.503,101.646l.007.063.013.043.018.061.043.069.052.056.068.061.081.055.09.041.095.026h.115l6.56-.333.125-.013.089-.02.064-.045.036-.059v-.061s-.026-.075-.026-.075l-.048-.071-.066-.082-.067-.077-.073-.063-.077-.048-.076-.036-.082-.017-.099-.016h-.098l-.112.006-6.383.315v.002l-.068.003-.069.026-.046.04-.031.045-.021.048-.013.056Zm.074.008l.008-.041.003-.007h.006s.033-.001.033-.001l.056-.003.053-.1.019-.003.006-.003,6.386-.32.107.008.089-.004.084.012.077.015.071.034.064.038.06.053.068.077.059.069.043.069.021.051v.033l-.015.028-.041.025h-.005s-.072.018-.072.018l-.109.013-6.562.338-.005-.002-.092-.003-.09-.025-.081-.038-.069-.04-.057-.058-.041-.057-.036-.056-.028-.048-.005-.035-.003-.04Z"></path>
                  </g>
                </g>
              </g>
            </g>
          </g>
        </g>
      </g>
    </g>
    
  </g>
</svg>