<svg id="Template" xmlns="http://www.w3.org/2000/svg" viewBox="0 0 750 1125" width="750" height="1125"><g transform="translate(0, 148.03193436222784) scale(15.25041176111755)">
  <defs>
    <style>
      .cls-1 {
        letter-spacing: -.018em;
      }

      .cls-2, .cls-3, .cls-4, .cls-5, .cls-6, .cls-7, .cls-8, .cls-9 {
        fill: none;
      }

      .cls-10 {
        font-size: 4.648px;
      }

      .cls-10, .cls-11 {
        fill: #000100;
        font-family: Arial-Black, 'Arial Black';
        font-weight: 800;
      }

      .cls-12 {
        letter-spacing: .025em;
      }

      .cls-13 {
        font-size: 3.501px;
      }

      .cls-14 {
        letter-spacing: -.043em;
      }

      .cls-15, .cls-16, .cls-17, .cls-18, .cls-19, .cls-20, .cls-21, .cls-22, .cls-23 {
        fill: #231f20;
      }

      .cls-15, .cls-16, .cls-17, .cls-19, .cls-20, .cls-22, .cls-23 {
        font-family: ArialMT, Arial;
      }

      .cls-24 {
        letter-spacing: .05em;
      }

      .cls-25 {
        letter-spacing: -.005em;
      }

      .cls-26 {
        letter-spacing: .016em;
      }

      .cls-27 {
        letter-spacing: -.017em;
      }

      .cls-16 {
        letter-spacing: -.018em;
      }

      .cls-28, .cls-29 {
        fill: #f7a31a;
      }

      .cls-30 {
        fill: #eb1d27;
      }

      .cls-31, .cls-32 {
        fill: #fff;
      }

      .cls-33 {
        fill: #cecfd0;
      }

      .cls-34, .cls-35 {
        fill: #4e494b;
      }

      .cls-3 {
        stroke: #26aae1;
        stroke-dasharray: 0 0 3.924 3.924;
      }

      .cls-3, .cls-5, .cls-6 {
        stroke-miterlimit: 10;
      }

      .cls-36 {
        fill: #929497;
        font-size: 3.944px;
      }

      .cls-36, .cls-18, .cls-21, .cls-37, .cls-29, .cls-38, .cls-39 {
        font-family: Arial-BoldMT, Arial;
        font-weight: 700;
      }

      .cls-17 {
        letter-spacing: 0em;
      }

      .cls-18 {
        font-size: 3.895px;
      }

      .cls-19 {
        letter-spacing: -.074em;
      }

      .cls-20 {
        letter-spacing: -.037em;
      }

      .cls-11 {
        font-size: 4.706px;
      }

      .cls-21 {
        font-size: 3.355px;
      }

      .cls-37 {
        fill: #ea1c24;
      }

      .cls-40 {
        letter-spacing: -.026em;
      }

      .cls-41 {
        letter-spacing: -.055em;
      }

      .cls-22 {
        letter-spacing: 0em;
      }

      .cls-4 {
        stroke-dasharray: 0 0 4.941 4.941;
      }

      .cls-4, .cls-7 {
        stroke: #2da6de;
      }

      .cls-5, .cls-9 {
        stroke: red;
      }

      .cls-6 {
        stroke: #f7a31a;
      }

      .cls-29, .cls-38, .cls-39 {
        font-size: 3.943px;
      }

      .cls-38 {
        fill: #2ba6de;
      }

      .cls-39 {
        fill: #ec1e28;
      }

      .cls-35, .cls-42, .cls-32, .cls-43 {
        fill-rule: evenodd;
      }

      .cls-42 {
        fill: #b5d133;
      }

      .cls-8 {
        stroke: #929497;
      }

      .cls-44 {
        letter-spacing: .013em;
      }

      .cls-45 {
        letter-spacing: 0em;
      }

      .cls-23 {
        letter-spacing: -.018em;
      }
    </style>
  </defs>
  <path id="Bleed_Zone" data-name="Bleed Zone" d="m0,0v270h180V0H0Zm163.701,225.463c0,18.11-14.576,32.845-32.492,32.845H48.792c-17.917,0-32.493-14.734-32.493-32.845V44.537c0-18.109,14.576-32.844,32.493-32.844h82.417c17.916,0,32.492,14.734,32.492,32.844v180.926Z"/>
  <path id="Safe_Zone" data-name="Safe Zone" class="cls-3" d="m57.792,249.308c-17.917,0-32.493-14.734-32.493-32.845V53.537c0-18.109,14.576-32.844,32.493-32.844h64.417c17.916,0,32.492,14.734,32.492,32.844v162.926c0,18.11-14.576,32.845-32.492,32.845H57.792Z"/>
  <path id="clipping" data-name="Trim Line" class="cls-5" d="m48.792,258.307c-17.917,0-32.493-14.734-32.493-32.845V44.537c0-18.109,14.576-32.844,32.493-32.844h82.417c17.916,0,32.492,14.734,32.492,32.844v180.926c0,18.11-14.576,32.845-32.492,32.845H48.792Z"/>
  <g id="Info">
    <g>
      <g>
        
        
        <path class="cls-30" d="m102.064,210.277v-1.026c.146-.471.531-.873,1.035-.926.862-.146.291,2.067,1.036,1.768,1.378-1.074,2.419-2.61,3.867-3.564h.268c.364.578-.011,1.26-.476,1.67-.58.624-1.177,1.231-1.752,1.86-.636.571-2.002,2.322-2.815,2.293-1.089-.259-1.034-1.177-1.164-2.075Z"/>
      </g>
      <g>
        
        <path class="cls-30" d="m103.602,33.709v-1.039c.148-.477.538-.884,1.048-.938.873-.148.294,2.093,1.049,1.79,1.395-1.087,2.449-2.643,3.915-3.608h.271c.369.585-.012,1.276-.482,1.691-.587.631-1.192,1.247-1.773,1.883-.644.578-2.026,2.35-2.85,2.322-1.102-.263-1.047-1.192-1.178-2.1Z"/>
        <g>
          <line class="cls-7" x1="149.619" y1="35.934" x2="147.119" y2="35.934"/>
          <line class="cls-4" x1="142.178" y1="35.934" x2="115.004" y2="35.934"/>
          <line class="cls-7" x1="112.533" y1="35.934" x2="110.033" y2="35.934"/>
        </g>
        
      </g>
      <g>
        
        
        <path class="cls-30" d="m98.512,130.647v-1.039c.148-.477.538-.884,1.048-.938.873-.148.294,2.093,1.049,1.79,1.395-1.087,2.449-2.643,3.915-3.608h.271c.369.585-.012,1.276-.482,1.691-.587.631-1.192,1.247-1.773,1.883-.644.578-2.026,2.35-2.85,2.322-1.102-.263-1.046-1.192-1.178-2.1Z"/>
        <line class="cls-6" x1="148.527" y1="132.872" x2="105.005" y2="132.872"/>
        <rect class="cls-28" x="146.202" y="126.852" width="33.798" height="24.802"/>
      </g>
      <g>
        
        
        <path class="cls-30" d="m100.518,87.315v-1.039c.148-.477.538-.884,1.048-.938.873-.148.294,2.093,1.049,1.79,1.395-1.087,2.449-2.643,3.915-3.608h.271c.369.585-.012,1.276-.482,1.691-.587.631-1.192,1.247-1.773,1.883-.644.578-2.026,2.35-2.85,2.322-1.102-.263-1.046-1.192-1.178-2.1Z"/>
        <line class="cls-8" x1="180" y1="89.54" x2="107.01" y2="89.54"/>
      </g>
      <g>
        
        
        <path class="cls-30" d="m105.193,67.483v-1.039c.148-.477.538-.884,1.048-.938.873-.148.294,2.093,1.049,1.79,1.395-1.087,2.449-2.642,3.915-3.608h.271c.369.585-.012,1.276-.482,1.691-.587.631-1.192,1.246-1.773,1.883-.644.578-2.026,2.35-2.85,2.322-1.102-.263-1.046-1.192-1.178-2.1Z"/>
        <line class="cls-9" x1="164.202" y1="69.708" x2="111.625" y2="69.708"/>
      </g>
    </g>
    <g>
      <rect class="cls-33" x="34.299" y="181.621" width="49.179" height="54.355"/>
      
      <path class="cls-43" d="m75.167,200.383c0,8.571-6.946,15.519-15.514,15.519s-15.514-6.948-15.514-15.519,6.946-15.519,15.514-15.519,15.514,6.949,15.514,15.519Z"/>
      <path class="cls-42" d="m73.767,200.469c0,7.792-6.314,14.108-14.103,14.108s-14.104-6.316-14.104-14.108,6.314-14.108,14.104-14.108,14.103,6.316,14.103,14.108Z"/>
      <g>
        <path d="m56.644,197.392c-.196,1.73-.341,3.118-.438,4.167l-.643.028c.01-.035.014-.074.015-.118.001-.078-.027-.182-.086-.31-.059-.127-.093-.209-.102-.244-.166.023-.326.139-.478.346-.152.207-.29.31-.412.309-.071-.002-.149-.021-.236-.057-.115.077-.264.108-.447.097-.165-.029-.327-.054-.484-.074-.005-.218-.221-.411-.646-.576.001-.088-.042-.217-.132-.389-.089-.172-.133-.293-.132-.363.001-.079.033-.144.095-.195-.009-.027-.08-.189-.214-.489-.093-.22-.138-.41-.135-.567.002-.122.03-.236.085-.34-.075-.745-.108-1.384-.099-1.918.014-.823.132-1.577.353-2.264-.016-.105-.022-.21-.021-.316.009-.551.2-.932.57-1.145l.003-.171c.367-.466.849-.804,1.447-1.012.357.085.714.166,1.072.242.4.138.676.375.828.71.122.073.18.218.176.436-.004.245.024.403.084.474l-.067.078c.07.517.104.833.102.947-.006.332-.093.567-.262.703-.061,0-.221-.055-.482-.165-.062.06-.129.09-.199.089-.035,0-.098-.02-.189-.056-.091-.037-.168-.055-.228-.057-.044,0-.088.007-.132.024-.005-.691.017-1.207.065-1.547-.069-.045-.139-.148-.211-.305-.072-.159-.165-.248-.278-.267-.071.086-.103.143-.094.169l-.235-.083c-.214.232-.356.637-.427,1.213-.073.664-.163,1.104-.272,1.321.094.098.14.235.137.409,0,.062-.011.162-.031.301-.02.14-.03.244-.031.315-.002.079.006.149.022.21l-.16.154c.065.299.103.676.112,1.131-.006.385-.009.77-.006,1.154-.009,0-.084.003-.224.01-.087-.002-.149.028-.185.088.053-.007.101-.011.145-.011.192.003.343.139.453.408.109.269.203.404.281.406.087.001.207-.08.359-.243.258-.276.391-.654.4-1.135.004-.236-.023-.49-.079-.762-.061.034-.094.121-.096.261-.14-.003-.228.027-.264.087-.061-.019-.087-.067-.077-.146.011-.113.016-.174.017-.183.106-.034.158-.081.16-.142,0-.026-.019-.075-.057-.145-.038-.071-.056-.128-.055-.172,0-.035.009-.07.027-.105l.061-.511c.192.056.606.08,1.245.074-.018.044.007.101.076.172.062-.061.129-.09.199-.089.052.001.131.025.234.07.105.046.178.068.222.069Z"/>
        <path d="m61.539,201.912c-.122-.055-.252-.083-.392-.086-.123-.002-.289.021-.5.071-.236.048-.399.076-.487.084-.093-.185-.158-.441-.197-.765-.071-.473-.115-.741-.131-.802.027-.053.041-.096.041-.131.002-.096-.073-.182-.225-.259-.152-.077-.228-.138-.227-.182.001-.052.089-.13.267-.232-.043-.053-.075-.161-.094-.323-.019-.162-.059-.27-.118-.324-.106.095-.28.155-.522.181-.241.027-.401.066-.481.117.006.682-.107,1.14-.339,1.372-.122-.028-.215.018-.278.14-.09.147-.166.233-.228.258l.077.093c-.07.06-.185.084-.341.073-.246-.013-.376-.019-.394-.019l-.075-.238.855-7.086c.007-.446.03-.748.068-.905-.011-.394.081-.637.274-.73.121.08.274.122.458.126.148.002.381-.029.696-.094.316-.064.535-.096.658-.093.428.007.615.316.562.929-.044.489.033,1.134.229,1.934.203.86.303,1.505.295,1.934-.002.132.041.402.03.534-.185.102-.422.163-.712.184-.253.013-.512.026-.775.039-.067-.665-.185-1.468-.252-2.126-.083-.789-.185-1.438-.308-1.948l-.405,3.747c-.031.323.114.487.438.493.105.002.205-.023.303-.073.079-.026.188.034.325.176-.004.271.049.434.162.489.142-.095.327-.183.556-.267.203-.075.401-.146.594-.214.111.151.182.376.212.674.036.42.062.666.079.736.014.167.083.527.205,1.08.09.439.131.794.127,1.065-.002.132-.014.253-.033.367Z"/>
        <path d="m67.581,195.662c-.01.026-.012.179-.009.459-.003.227-.033.398-.087.511-.065.174-.099.422-.104.746-.002.07,0,.179.007.328-.003.149-.005.258-.005.328-.009.551-.104.952-.283,1.202.015.141.022.281.019.421-.007.438-.157,1.025-.449,1.764-.079.026-.145.037-.197.036-.105-.002-.18-.062-.226-.18-.046-.12-.091-.232-.132-.338.028-.673.014-1.653-.043-2.94l.08-.077c-.057-.229-.084-.483-.079-.763.004-.201.028-.494.074-.878.046-.384.07-.672.074-.865.002-.122,0-.24-.006-.354-.301.721-.515,1.943-.64,3.664l-.109.26c-.037.087-.111.134-.225.141-.034-.061-.069-.093-.103-.094-.026,0-.073.032-.139.096-.067.064-.122.092-.166.082l-.174.154c.077.097.243.109.498.035.202-.058.305.018.311.228.005.175-.043.411-.144.706-.101.296-.153.518-.155.667-.001.105.01.21.034.315l-.908.142c-.084-.177-.147-.472-.188-.889-.04-.416-.104-.713-.188-.889.054-.06.081-.125.082-.195,0-.061-.023-.154-.074-.277-.051-.123-.079-.216-.087-.277-.007-.097-.038-.329-.093-.697-.038-.298-.057-.531-.054-.697.001-.087.008-.166.017-.236,0-.061-.033-.151-.101-.271-.067-.119-.101-.205-.1-.258,0-.043.019-.082.054-.116-.06-.072-.084-.195-.072-.37.012-.174-.012-.298-.073-.368-.128.339-.196.797-.206,1.374-.005.804-.013,1.269-.024,1.39l.09.081-.093.077c.065.316.093.719.085,1.209-.024.883-.036,1.294-.035,1.233-.124.111-.296.165-.514.161-.271-.005-.456.019-.552.069-.111-.194-.164-.444-.158-.751.004-.236.044-.524.12-.864-.119-.221-.175-.528-.168-.922.002-.097.013-.28.035-.551.013-.218.016-.38.009-.485.088-.042.132-.09.133-.142,0-.036-.027-.095-.082-.179-.055-.084-.082-.148-.082-.191,0-.052.037-.105.107-.156l-.282-4.243c.168-.111.44-.164.817-.157.41.016.691-.006.84-.064.027-.017.057-.025.092-.025.035,0,.076.021.123.061.048.04.08.061.097.061.035,0,.066-.025.094-.077l.245.24c.083.308.16.904.233,1.789.074.763.191,1.338.351,1.726.214-.775.391-1.424.532-1.947l.284-2.077,2.034-.045c.007.114.032.723.087,1.073.047.307.069.556.066.749-.003.219-.038.415-.103.589.069.098.102.22.099.369-.002.149-.039.27-.111.366Z"/>
        <path d="m71.753,200.261v-.014c-.054.113-.087.244-.098.392-.01.096-.012.232-.007.407.006.201.007.342.007.419-.07,0-.35-.006-.84-.014-.297-.005-.565.02-.802.078l-.244-.266c-.072.068-.099.125-.082.169-.043-.01-.245-.013-.603-.011-.28-.004-.489-.034-.628-.089-.143.147-.309.144-.499-.008-.069-.053-.076-.144-.022-.27.054-.126.038-.22-.047-.283.013-.279.051-.712.113-1.298.061-.524.094-.935.1-1.232.007-.401-.021-.787-.085-1.156.098-.094.208-.141.33-.139.14.002.305.072.495.205.267.188.406.283.415.283l.077.093c.009-.025.055-.165.138-.417.047-.166.114-.274.203-.325l.077.081c.035-.017.15-.098.345-.244.15-.102.273-.345.36-.343.096.002.187.055.273.162.147.081.24.395.285.558.045.163.089.322.13.481-.394.011-.717,0-.97-.029-.063.095-.151.108-.263.041-.113-.067-.195-.058-.25.028-.003.158-.008.442-.014.853-.015.368-.02.656-.014.866.002.324.024.621.063.894.07,0,.402.006.996.017.411.007.765.043,1.061.11Zm.028-6.287c-.078.007-.166.011-.262.009-.201-.004-.468-.035-.798-.093-.411-.059-.659-.094-.747-.104-.126.181-.191.439-.197.771-.011.717-.013,1.028-.002.932.121.072.18.205.177.396-.013.262-.015.398-.007.407-.062.025-.093.112-.096.261-.096-.037-.195-.108-.298-.215-.138-.134-.211.319-.201.207l-.083.269-.078-.08c-.071.007-.19-.029-.359-.111-.169-.081-.288-.158-.357-.229.002-.14.026-.219.069-.235l-.167-.186-.081.116c-.099-.912-.074-2.616.047-3.577.332.058.699.095,1.101.111.27.013.651.019,1.14.019.561.001.963.003,1.208.007.103.098.153.226.15.383-.001.097-.028.251-.08.465-.051.214-.078.373-.08.478Z"/>
      </g>
      <g>
        <path d="m57.038,208.195v-.006s-.023.196-.069.578c-.022.235-.079.419-.169.553l-.057-.047c-.107.222-.251.358-.434.407-.087.092-.214.143-.379.153-.098.007-.324-.023-.68-.085-.171-.106-.265-.165-.281-.177-.108-.082-.159-.163-.154-.247-.105-.106-.251-.296-.306-.534-.067-.263-.107-.277-.17-.37-.099.073-.135-.082-.192-.174l.052-.041c-.033-.023-.049-.049-.051-.079,0-.02.008-.051.026-.092.019-.04.027-.071.025-.092-.001-.033-.022-.061-.059-.084.039-.206.076-.516.108-.93.07-.038.103-.111.1-.219-.004-.107.011-.179.045-.214.167-.335.438-.56.814-.678.021.004.122.001.303-.004.124-.004.217.008.281.033.113-.019.226.007.338.08.098.073.195.147.293.22.182.198.28.421.294.67.005.083,0,.17-.016.262-.135-.004-.23.084-.287.267l-.524.049c-.056-.079-.089-.186-.097-.32-.003-.045-.002-.112,0-.199.003-.088.003-.154,0-.2-.009-.137-.041-.245-.097-.325l-.157.09c-.064-.026-.097-.063-.1-.113,0-.016.002-.041.008-.072.006-.032.008-.054.008-.066-.003-.054-.052-.087-.145-.098-.064.591-.083,1.198-.057,1.82.016.02.066.034.149.042.067.008.103.029.104.062,0,.013-.003.029-.013.05l-.052.04c.028.044.045.106.05.185.002.041,0,.106-.005.19-.005.086-.007.15-.004.191.008.125.038.219.094.282-.006.092.032.154.111.187.051-.02.097-.03.138-.034.16-.009.271.078.333.262,0,.004,0,.035-.002.094.002.033.018.055.05.066.07-.041.105-.117.103-.225-.001-.125.014-.204.048-.24-.008-.057-.043-.14-.104-.25s-.092-.194-.096-.256c-.003-.066.016-.13.059-.191-.037-.011-.054-.035-.05-.072.002-.058.003-.09.003-.094.285-.07.574-.072.869-.006Z"/>
        <path d="m59.412,208.682h-.006c-.031.06-.04.146-.029.257.014.158.022.238.022.243-.024.01-.056-.002-.097-.035-.061.023-.09.062-.087.115,0,.008.004.021.01.041.001.023.002.038.002.046.003.042-.01.074-.037.095-.07-.039-.162-.063-.275-.074-.114-.012-.222-.021-.324-.031,0-.526-.072-1.041-.212-1.544,0,.003-.003-.048-.01-.157.001-.077-.017-.132-.052-.165l-.048.043c0-.008.015-.023.048-.046.032-.023.048-.047.047-.07,0-.011-.004-.023-.009-.034l-.053-.037c-.09.028-.131.101-.124.216.004.077-.026.132-.091.163.025.017.038.039.04.067.001.015-.001.037-.007.064-.005.028-.007.049-.007.065.002.034.02.062.055.084.002.023.013.231.036.625.015.251.008.464-.02.639l.005.098c-.034-.001-.073-.001-.115.001-.048.003-.117.01-.208.021-.092.011-.158.018-.201.02-.177.01-.301-.02-.373-.089l-.074-2.161c-.035-.106-.058-.254-.069-.443l-.024-.416c-.017-.205-.043-.362-.079-.472.015-.075.08-.115.195-.121.072-.004.169.005.29.029.056-.027.135-.043.235-.049.028-.001.074-.002.137-.001.067-.004.116-.007.144-.008.187-.012.311-.069.373-.173.086,0,.18.027.282.083.101.056.191.086.269.089.203.12.314.318.33.596.003.062-.02.307-.073.736l-.35.305c.059.109.131.347.215.714.071.306.177.53.32.672Zm-.647-2.459l.006.005c.007.026.003-.068-.009-.284-.006-.104-.044-.179-.114-.226-.04.057.005.083-.013.214-.019.131-.096.093-.141.151-.12-.001-.147.072-.174-.043-.054-.187-.101-.17-.101-.173l-.051.031c-.019.017-.039.036-.062.056-.022.02-.046.028-.071.021.002.024-.01.06-.033.11-.024.051-.035.085-.034.104.002.035.03.06.084.077-.01.078-.013.16-.008.244.002.046.013.152.033.317.022.131.031.243.026.335.044.002.085.002.124,0,.167-.009.277-.076.327-.199.017-.036.036-.165.057-.387.018-.167.07-.285.153-.351Z"/>
        <path d="m62.136,209.522c-.069-.019-.141-.027-.218-.022-.066.004-.157.021-.271.051-.128.031-.216.049-.264.056-.058-.078-.103-.187-.135-.329-.055-.206-.088-.322-.099-.349.013-.023.018-.043.018-.059-.002-.042-.046-.077-.133-.105-.086-.028-.129-.052-.13-.071-.001-.023.044-.061.138-.112-.025-.022-.047-.068-.062-.139-.017-.07-.042-.116-.077-.138-.055.046-.148.08-.279.101-.131.021-.217.044-.259.07.027.3,0,.828-.118.939-.068-.008-.117.016-.147.072-.044.069-.083.11-.115.123l.045.038c-.036.029-.098.044-.185.046-.135.004-.206.006-.216.007l-.049-.102.202-3.475c-.011-.197-.009-.33.006-.401-.02-.173.022-.284.124-.333.07.031.154.043.255.038.081-.006.208-.027.378-.068.171-.041.29-.064.357-.068.235-.013.349.115.34.387-.007.218.058.499.194.843.141.37.218.651.229.84.003.058.08.18.079.238-.099.052-.226.089-.383.11-.139.016-.279.032-.423.048-.06-.291-.196-.644-.256-.931-.073-.345-.152-.626-.237-.846l-.091,1.667c-.006.143.079.209.256.199.057-.003.112-.018.164-.044.043-.014.104.007.184.064.007.121.042.19.106.209.074-.047.172-.093.295-.139.108-.041.215-.08.318-.117.066.062.112.158.14.289.035.183.057.291.069.321.014.073.063.229.149.468.064.19.1.344.107.464.003.058.001.112-.005.163Z"/>
        <path d="m64.121,205.579h.008c-.058.084-.131.1-.221.048-.019-.003-.106.002-.259.015-.129.007-.223.001-.282-.018-.015.001-.043.015-.084.042-.042.028-.072.042-.091.044-.029.002-.045-.023-.048-.073,0-.008-.002-.041-.005-.098-.002-.04-.021-.066-.055-.079l-.09.069c-.028.021-.041.044-.039.067.001.019.017.046.048.081.031.035.048.06.054.076,0,.011.011.185.03.521.008.212.047.382.117.51.018-.02.061-.032.131-.034.069-.002.115-.018.138-.046.046.04.121.042.227.007.106-.035.183-.023.23.036l-.014.512c-.043-.005-.107-.026-.191-.064-.025.075-.073.122-.143.142-.029.01-.11.017-.244.026.004-.024-.017-.047-.062-.072-.131.062-.18.21-.147.444.003-.023.008.017.014.121.004.066-.01.113-.042.142-.081.012-.185-.006-.31-.054-.125-.049-.215-.072-.267-.069-.024.002-.046.005-.064.009l-.135.043-.215-2.34-.026-.445c.179-.061.4-.099.664-.115.207-.011.476-.01.809.006.021-.044.061.013.108.01.025-.001.061.001.109.008.049.006.085.01.109.008.029-.002.055-.007.078-.016l.034-.036c.098.029.149.08.153.153.001.031-.007.084-.028.159-.02.074-.028.131-.026.169.003.035.012.065.027.091Zm-.84,3.903c-.052.027-.131.043-.236.049-.139.008-.222.014-.251.02-.015-.015-.033-.003-.065-.125-.019-.08-.069-.118-.151-.113-.02.001-.043.005-.072.01l-.129.007-.069-1.184c.071-.035.158-.056.264-.062.101-.005.19.005.269.031-.002.042.059.061.183.053l.137-.008c.082.332.131.933.121,1.321Z"/>
        <path d="m66.998,205.681l.007.005c-.068-.004-.285.011-.452.032-.143.016-.251.019-.324.008-.069.046-.095.11-.075.19l.045.026c-.036.033-.05.059-.039.078l.038.038c-.009.686-.01,1.065-.006,1.139.01.181.032.34.063.478-.028.087-.039.186-.033.298.005.073.022.19.052.348.031.159.073.681.077.762.004.062.002.121-.004.175-.066.027-.137.043-.214.047-.129.008-.268-.019-.415-.081-.019.017-.039.034-.062.053-.023.019-.03.04-.019.062-.047.015-.113-.005-.198-.058-.045-.695-.17-2.11-.353-3.539-.064.058-.184.01-.308.025-.148.017-.293-.006-.35.02-.071-.078-.056-.1-.063-.227-.007-.123-.047-.428-.015-.555.006-.027.275-.012.433-.025.215-.013.263.039.278.037.017-.028.123-.013.2-.018.049.024.102-.022.105.013.002.023,0,.169-.016.211-.017.042-.025.072-.024.091.003.046.036-.021.114.005.087-.001.175-.004.266-.01.102.009.219-.028.209.059.017-.025.029.019.174-.04.108-.049.174-.176.152-.263-.012-.048.053-.078.013-.055.051-.029.005-.009.061-.031.18.016.279-.002.313-.005.073-.005.251.042.302.016.038.067.056.279.058.395.006.186.009.284.01.296Z"/>
        <path d="m69.328,208.096v-.006c-.026.052-.04.111-.041.177-.003.043,0,.103.01.18.01.088.016.15.018.185-.039.002-.192.011-.461.026-.163.01-.308.032-.436.066l-.143-.108c-.037.033-.05.059-.04.078-.023-.003-.134.003-.33.019-.154.009-.269.004-.348-.015-.073.07-.164.075-.273.016-.04-.021-.047-.06-.021-.117.025-.058.013-.099-.036-.124-.002-.123.003-.315.017-.575.016-.233.019-.415.011-.547-.01-.177-.04-.346-.087-.506.05-.046.109-.07.176-.074.077-.005.17.019.28.071.152.072.232.109.236.109l.045.037c.004-.011.024-.075.061-.19.02-.074.053-.124.1-.151l.045.032c.019-.008.079-.048.181-.12.078-.051.133-.238.18-.241.053-.004.105.017.155.06.083.03.149.241.18.311.031.07.06.139.088.207-.216.021-.393.029-.532.025-.031.045-.079.054-.143.029-.064-.025-.109-.018-.136.023.005.069.012.194.022.376.005.162.012.289.022.382.013.143.035.273.066.391.039-.002.221-.013.547-.032.225-.013.42-.011.585.006Zm-.223-2.723c-.043.007-.091.011-.144.015-.11.006-.257.002-.441-.01-.226-.01-.364-.015-.413-.017-.062.085-.07.154-.062.301.018.316.029.453.031.41.069.027.106.083.111.168.002.116.005.175.01.179-.033.013-.048.053-.043.119-.054-.012-.111-.04-.171-.083-.081-.053-.105.136-.104.086l-.036.118-.046-.033c-.038.006-.104-.005-.2-.035-.096-.029-.164-.058-.204-.087-.003-.062.006-.097.03-.106l-.098-.076-.04.055c-.086-.398-.142-1.099-.109-1.526.183.013.398-.019.618-.028.149-.005.358-.017.626-.036.306-.022.526-.036.66-.044.06.039.093.093.096.162.003.044-.006.112-.027.208s-.048.214-.045.26Z"/>
        <path d="m71.72,207.684h-.007c-.031.061-.04.146-.029.258.014.158.021.239.021.243-.023.009-.055-.002-.096-.035-.061.022-.09.061-.087.115,0,.008.004.021.01.041.001.023.002.039.002.046.003.043-.009.074-.038.095-.069-.038-.162-.063-.275-.074-.114-.011-.221-.022-.322-.031-.002-.526-.073-1.041-.212-1.544,0,.004-.003-.048-.009-.156,0-.077-.017-.132-.053-.165l-.048.043c0-.008.015-.023.048-.046.032-.023.048-.046.046-.07,0-.011-.004-.023-.009-.035l-.053-.037c-.09.028-.131.101-.124.217.005.077-.026.131-.091.162.024.018.038.041.04.068,0,.015-.002.037-.007.064-.006.027-.008.049-.007.064.002.035.02.063.056.084,0,.023.013.232.036.625.015.252.008.465-.02.641l.005.098c-.034-.002-.072-.002-.115,0-.048.003-.117.01-.208.021-.091.011-.157.018-.201.021-.177.01-.302-.02-.373-.09l-.075-2.162c-.035-.106-.057-.254-.069-.443l-.024-.417c-.017-.204-.042-.362-.078-.471.015-.074.08-.115.194-.122.072-.004.169.006.291.03.056-.027.134-.043.235-.049.03-.001.075-.002.138-.002.067-.004.115-.007.144-.009.187-.01.311-.068.372-.172.086-.001.181.026.282.082.102.056.191.086.269.089.204.121.313.319.329.597.004.061-.02.307-.073.736l-.35.305c.06.109.131.347.215.714.07.305.178.53.32.672Zm-.648-2.459l.008.006c.006.026.003-.068-.009-.285-.006-.104-.044-.179-.114-.225-.04.056-.047-.075-.066.056-.019.132-.051.225-.096.282-.121,0-.148-.073-.219-.173-.045-.064-.067-.008-.067-.012l-.032.026c-.018.017-.039.035-.062.056-.022.021-.046.028-.071.022.001.022-.01.059-.033.109-.023.05-.035.084-.033.103.002.035.03.06.084.077-.01.078-.012.16-.007.245.003.046.013.152.033.318.022.131.031.242.027.335.043.002.084.001.123,0,.168-.01.276-.077.327-.199.017-.036.036-.165.057-.386.019-.168.07-.284.153-.352Z"/>
      </g>
      <g>
        <path d="m47.874,197.714v.005c-.021.201-.029.34-.021.417-.031.011-.071.013-.12.005-.064-.011-.101-.016-.112-.015-.028,0-.05.011-.066.029-.04-.026-.067-.037-.081-.033-.038.023-.055.056-.053.097.002.017.007.048.021.09.012.044.019.076.019.096.002.028-.004.072-.016.132-.013.06-.018.11-.017.148.003.045.012.117.03.214.017.097.027.171.029.22-.02.096-.027.193-.022.29.005.119.038.278.097.478.011.003.022.004.032.003.024,0,.053-.018.087-.051.033-.033.062-.05.086-.051.018,0,.037.003.058.013.063.203.095.335.099.394.002.028,0,.058-.001.089-.093.022-.16-.009-.199-.095.006-.025-.008-.05-.04-.077l-.105.11c.103.017.143.095.122.236-.009.029-.031.044-.066.045-.06,0-.088,0-.084,0l-.086-.153-.035.043c-.028-.072-.061-.107-.1-.105-.021.001-.058.019-.111.053-.052.034-.096.052-.13.053-.028.002-.056-.005-.086-.022-.002-.042-.007-.085-.015-.13-.008-.045-.031-.074-.07-.086-.002-.108.001-.393.009-.857.003-.35,0-.634-.011-.85-.004-.091-.01-.18-.019-.267-.019-.027-.036-.04-.055-.039-.014.001-.035.016-.063.045-.028.029-.053.043-.074.04-.001-.035-.017-.091-.047-.168-.031-.077-.046-.133-.048-.168-.003-.06.019-.112.066-.156l.122.031c.049-.07.069-.186.061-.35-.001-.031-.006-.081-.013-.149-.007-.068-.012-.118-.012-.149-.014-.269.068-.408.246-.417.066-.004.148.008.243.035l.117.031c.01.045.015.091.018.141.003.067,0,.164-.009.293-.009.128-.013.222-.009.28.004.095.021.18.049.255.028,0,.072-.016.132-.046.06-.029.103-.045.131-.046.049-.002.089.021.119.068Zm-.365.376l-.006-.12-.038-.035.044.155Z"/>
        <path d="m49.315,197.337h.005c-.012.095-.027.19-.043.286-.019.109-.049.195-.092.256-.007-.003-.05-.023-.128-.061-.055-.029-.102-.04-.144-.035-.031.205-.048.484-.052.838-.002.452-.006.725-.011.82-.053-.004-.092.013-.118.051-.027.038-.051.077-.073.116-.009.022-.014.041-.013.059,0,.028.025.055.072.08.047.026.071.055.072.086-.02.075-.064.113-.13.117-.031.001-.086-.007-.164-.028-.078-.021-.133-.03-.165-.029l-.075-1.498c.029-.04.042-.067.038-.081l-.044-.029c.003-.062.008-.377.01-.941.002-.381.016-.691.043-.926-.004,0,.104-.007.324-.022.136-.007.224.031.263.113.001.076-.007.207-.022.39-.016.168-.022.299-.018.39.006.111.023.213.052.302.118-.16.256-.245.413-.252Zm.52.321c.01.14.019.275.026.408.03.58.02,1.2-.027,1.861-.05.045-.128.055-.232.03-.104-.024-.18-.015-.227.029-.06-.076-.095-.217-.105-.42-.015-.293-.023-.445-.023-.456-.013-.735.059-1.329.215-1.781.181.047.305.156.374.328Z"/>
        <path d="m51.673,198.418c-.023.046-.032.096-.03.148.003.053.005.103.008.153-.005.041-.017.083-.035.127-.033-.008-.059-.013-.079-.011-.025.001-.05.01-.075.028-.025.017-.045.026-.059.026-.021.001-.049-.007-.085-.022l-.244-.356c.009.105.033.196.072.275.019.041.039.082.059.123-.142.025-.223.029-.242.012l-.034.044-.084-.112c-.067.081-.082.198-.045.355.044.169.046.291.008.367.053.078.116.115.189.111.032-.002.059-.014.082-.035.034-.086.068-.172.103-.258.05-.104.107-.157.17-.161.049-.002.107.023.172.075.078.027.119.065.121.109.002.029-.017.074-.053.137-.037.064-.054.113-.053.148,0,.014.002.026.006.036-.051.038-.096.094-.135.17-.04.075-.093.127-.158.155-.056.055-.109.084-.158.087-.038.002-.096-.027-.173-.089-.076-.06-.148-.09-.214-.086-.028-.061-.095-.13-.204-.205-.109-.075-.176-.155-.201-.242,0,.007-.001-.02-.004-.084-.002-.035-.017-.057-.046-.066l.04-.039c-.052,0-.08-.03-.083-.091,0-.006-.001-.02-.002-.042.002-.018.003-.031.003-.042-.002-.042-.016-.071-.041-.088l-.009-.183c-.004-.095-.024-.162-.057-.202.035-.222.069-.445.103-.667.057-.259.142-.391.253-.397.018,0,.035.003.053.008.1-.1.222-.153.365-.16.157-.007.331.04.522.143.149.244.241.51.277.8Zm-.722-.579l-.035.044c-.024.005-.053-.008-.086-.038l.006.121c-.053.059-.074.149-.065.271.011.21.015.31.015.304l.157-.003c.075-.042.109-.112.104-.21-.002-.049-.019-.129-.051-.242-.031-.112-.047-.195-.046-.248Z"/>
      </g>
      <g>
        <polygon class="cls-43" points="52.904 203.705 53.06 203.794 53.589 202.405 53.412 202.346 52.883 203.735 53.037 203.834 52.904 203.705 52.904 203.705 52.904 203.705"/>
        <polygon class="cls-43" points="53.135 203.512 53.071 203.537 52.904 203.705 53.037 203.834 53.208 203.657 53.141 203.691 53.135 203.512 53.135 203.512 53.135 203.512"/>
        <polygon class="cls-43" points="54.416 203.501 54.492 203.442 53.135 203.512 53.141 203.691 54.498 203.622 54.584 203.557 54.416 203.501 54.416 203.501 54.416 203.501 54.416 203.501"/>
        <polygon class="cls-43" points="55.029 202.223 54.936 202.108 54.416 203.501 54.584 203.557 55.113 202.167 55.021 202.053 55.029 202.223 55.029 202.223 55.029 202.223 55.029 202.223"/>
        <polygon class="cls-43" points="53.737 202.267 53.67 202.301 55.029 202.223 55.021 202.053 53.667 202.114 53.6 202.147 53.737 202.267 53.737 202.267 53.737 202.267 53.737 202.267"/>
        <polygon class="cls-43" points="53.589 202.405 53.569 202.435 53.737 202.267 53.6 202.147 53.432 202.315 53.412 202.346 53.589 202.405 53.589 202.405 53.589 202.405 53.589 202.405"/>
        <polygon class="cls-43" points="54.715 203.666 54.835 203.613 54.545 203.451 54.452 203.616 54.752 203.781 54.883 203.722 54.707 203.664 54.707 203.664 54.715 203.666 54.715 203.666"/>
        <polygon class="cls-43" points="55.283 202.383 55.236 202.274 54.707 203.664 54.883 203.722 55.412 202.332 55.364 202.223 55.283 202.383 55.283 202.383 55.283 202.383"/>
        <polygon class="cls-43" points="55.113 202.167 54.982 202.226 55.283 202.383 55.364 202.223 55.073 202.061 54.936 202.108 55.113 202.167 55.113 202.167 55.113 202.167"/>
        <polygon points="53.504 202.377 53.496 202.374 53.664 202.206 54.923 202.144 54.936 202.108 55.029 202.139 55.113 202.167 55.107 202.182 55.328 202.305 55.412 202.332 55.378 202.423 55.993 203.887 55.473 205.28 54.799 203.694 54.799 203.694 54.713 203.73 54.707 203.664 54.713 203.647 54.501 203.529 54.452 203.616 54.426 203.533 53.135 203.596 52.967 203.763 53.504 202.377"/>
        <polygon class="cls-43" points="55.389 205.252 55.559 205.244 54.886 203.658 54.713 203.73 55.386 205.317 55.556 205.308 55.381 205.249 55.381 205.249 55.389 205.252 55.389 205.252"/>
        <polygon class="cls-43" points="55.915 203.927 55.909 203.86 55.381 205.249 55.556 205.308 56.085 203.919 56.08 203.851 55.915 203.927 55.915 203.927 55.915 203.927"/>
        <polygon class="cls-43" points="55.412 202.332 55.241 202.341 55.915 203.927 56.08 203.851 55.406 202.266 55.236 202.274 55.412 202.332 55.412 202.332 55.412 202.332"/>
        <polygon class="cls-32" points="55.367 202.69 55.442 202.856 55.471 203.024 55.462 203.189 55.414 203.359 55.331 203.527 55.216 203.675 55.068 203.812 54.889 203.93 54.791 203.971 54.692 204.013 54.584 204.032 54.483 204.055 54.385 204.069 54.279 204.08 54.181 204.066 54.081 204.06 53.993 204.041 53.901 204.01 53.812 203.971 53.734 203.926 53.666 203.876 53.591 203.822 53.53 203.755 53.479 203.682 53.403 203.518 53.375 203.35 53.376 203.182 53.432 203.014 53.504 202.852 53.622 202.696 53.77 202.558 53.958 202.444 54.048 202.4 54.154 202.36 54.254 202.337 54.355 202.315 54.461 202.304 54.559 202.29 54.657 202.304 54.758 202.31 54.85 202.34 54.942 202.371 55.026 202.4 55.113 202.447 55.183 202.489 55.255 202.551 55.306 202.623 55.367 202.69 55.367 202.69 55.367 202.69 55.367 202.69"/>
        <polygon class="cls-43" points="55.434 202.965 55.509 203.13 55.535 203.306 55.526 203.471 55.481 203.633 55.406 203.804 55.28 203.957 55.143 204.089 54.955 204.203 54.855 204.253 54.757 204.296 54.657 204.318 54.547 204.337 54.45 204.352 54.355 204.357 54.254 204.352 54.148 204.335 54.061 204.315 53.968 204.284 53.887 204.247 53.801 204.201 53.731 204.158 53.666 204.099 53.602 204.041 53.547 203.957 53.468 203.8 53.44 203.632 53.451 203.459 53.496 203.297 53.571 203.126 53.686 202.978 53.835 202.841 54.022 202.726 54.123 202.676 54.218 202.642 54.321 202.611 54.43 202.592 54.526 202.586 54.623 202.573 54.722 202.586 54.822 202.592 54.917 202.614 55.01 202.645 55.09 202.682 55.18 202.72 55.247 202.771 55.322 202.825 55.373 202.897 55.431 202.973 55.431 202.973 55.434 202.965 55.434 202.965"/>
        <polygon class="cls-32" points="55.481 203.157 55.56 203.314 55.585 203.491 55.577 203.655 55.532 203.817 55.448 203.985 55.331 204.142 55.193 204.272 55.006 204.389 54.914 204.441 54.808 204.48 54.706 204.502 54.597 204.522 54.5 204.536 54.404 204.541 54.304 204.536 54.198 204.519 54.111 204.499 54.019 204.469 53.938 204.432 53.851 204.385 53.782 204.342 53.708 204.281 53.655 204.217 53.596 204.141 53.518 203.985 53.49 203.817 53.498 203.652 53.547 203.481 53.622 203.311 53.739 203.154 53.893 203.028 54.072 202.911 54.173 202.861 54.271 202.818 54.372 202.796 54.481 202.776 54.579 202.763 54.673 202.757 54.782 202.765 54.872 202.776 54.967 202.8 55.059 202.83 55.149 202.869 55.227 202.914 55.297 202.956 55.373 203.009 55.423 203.082 55.481 203.157 55.481 203.157 55.481 203.157"/>
        <polygon class="cls-43" points="55.549 203.431 55.624 203.596 55.652 203.764 55.652 203.932 55.596 204.1 55.524 204.262 55.397 204.416 55.258 204.557 55.07 204.67 54.981 204.715 54.875 204.754 54.774 204.776 54.673 204.799 54.567 204.81 54.469 204.824 54.371 204.81 54.27 204.804 54.176 204.782 54.083 204.751 54.002 204.715 53.915 204.667 53.848 204.617 53.782 204.567 53.72 204.499 53.66 204.424 53.594 204.261 53.558 204.091 53.566 203.926 53.613 203.755 53.694 203.596 53.812 203.44 53.961 203.302 54.139 203.185 54.237 203.143 54.336 203.101 54.444 203.082 54.545 203.059 54.643 203.045 54.747 203.042 54.846 203.048 54.94 203.051 55.034 203.074 55.126 203.104 55.216 203.143 55.294 203.188 55.37 203.242 55.437 203.291 55.498 203.359 55.546 203.44 55.546 203.44 55.549 203.431 55.549 203.431"/>
        <polygon class="cls-32" points="55.647 203.614 55.725 203.77 55.753 203.938 55.75 204.114 55.705 204.276 55.621 204.444 55.495 204.598 55.358 204.729 55.179 204.847 55.079 204.898 54.972 204.936 54.872 204.959 54.771 204.98 54.665 204.992 54.57 204.997 54.469 204.992 54.371 204.978 54.276 204.956 54.184 204.925 54.102 204.889 54.021 204.852 53.946 204.799 53.882 204.74 53.82 204.673 53.77 204.601 53.691 204.443 53.658 204.264 53.666 204.099 53.72 203.94 53.795 203.77 53.913 203.613 54.058 203.484 54.237 203.367 54.338 203.317 54.436 203.275 54.542 203.263 54.646 203.232 54.743 203.219 54.846 203.216 54.948 203.222 55.038 203.233 55.132 203.255 55.233 203.289 55.314 203.325 55.395 203.362 55.471 203.415 55.535 203.474 55.596 203.54 55.647 203.614 55.647 203.614 55.647 203.614"/>
        <polygon class="cls-43" points="55.722 203.891 55.789 204.052 55.826 204.224 55.817 204.389 55.769 204.559 55.688 204.718 55.571 204.875 55.423 205.012 55.243 205.13 55.145 205.171 55.039 205.21 54.939 205.233 54.838 205.255 54.74 205.269 54.634 205.28 54.536 205.266 54.435 205.26 54.349 205.241 54.248 205.207 54.166 205.17 54.089 205.126 54.013 205.073 53.946 205.022 53.884 204.955 53.834 204.883 53.758 204.717 53.722 204.547 53.731 204.382 53.787 204.214 53.86 204.052 53.977 203.895 54.125 203.759 54.313 203.644 54.402 203.599 54.509 203.56 54.609 203.537 54.71 203.515 54.816 203.504 54.914 203.491 55.012 203.504 55.103 203.507 55.208 203.532 55.3 203.563 55.381 203.6 55.459 203.644 55.535 203.697 55.602 203.748 55.663 203.815 55.722 203.891 55.722 203.891 55.722 203.891 55.722 203.891"/>
        <polygon class="cls-43" points="46.476 201.756 46.485 201.703 45.953 203.101 46.121 203.157 46.653 201.758 46.655 201.722 46.476 201.756 46.476 201.756 46.476 201.756 46.476 201.756"/>
        <polygon class="cls-43" points="46.463 201.686 46.465 201.677 46.476 201.756 46.655 201.722 46.636 201.641 46.639 201.632 46.463 201.686 46.463 201.686 46.463 201.686 46.463 201.686"/>
        <polygon class="cls-43" points="46.443 201.605 46.463 201.686 46.639 201.632 46.619 201.552 46.443 201.605 46.443 201.605 46.443 201.605 46.443 201.605"/>
        <polygon class="cls-43" points="46.421 201.532 46.443 201.605 46.619 201.552 46.597 201.479 46.421 201.532 46.421 201.532 46.421 201.532"/>
        <polygon class="cls-43" points="46.401 201.451 46.401 201.451 46.421 201.532 46.597 201.479 46.577 201.397 46.574 201.406 46.401 201.451 46.401 201.451 46.401 201.451 46.401 201.451"/>
        <polygon class="cls-43" points="46.379 201.35 46.379 201.378 46.401 201.451 46.574 201.406 46.553 201.333 46.561 201.364 46.379 201.35 46.379 201.35 46.379 201.35"/>
        <polygon class="cls-43" points="46.558 201.316 46.382 201.286 46.379 201.35 46.561 201.364 46.563 201.3 46.387 201.269 46.555 201.325 46.555 201.325 46.558 201.316 46.558 201.316"/>
        <polygon class="cls-35" points="46.71 205.386 46.694 205.297 46.507 205.328 46.52 205.426 46.71 205.386 46.71 205.386 46.71 205.386 46.71 205.386"/>
        <polygon class="cls-43" points="47.1 204.221 47.105 204.175 46.577 205.565 46.744 205.621 47.273 204.231 47.27 204.184 47.1 204.221 47.1 204.221 47.1 204.221 47.1 204.221"/>
        <polygon class="cls-43" points="47.086 204.122 47.1 204.221 47.27 204.184 47.256 204.086 47.077 204.12 47.077 204.12 47.086 204.122 47.086 204.122"/>
        <polygon class="cls-43" points="47.061 204.03 47.077 204.12 47.256 204.086 47.231 203.994 47.061 204.03 47.061 204.03 47.061 204.03 47.061 204.03"/>
        <polygon class="cls-43" points="47.038 203.93 47.044 203.94 47.061 204.03 47.231 203.994 47.217 203.895 47.223 203.907 47.038 203.93 47.038 203.93 47.038 203.93 47.038 203.93"/>
        <polygon class="cls-43" points="47.206 203.845 47.027 203.823 47.038 203.93 47.223 203.907 47.209 203.809 47.03 203.787 47.206 203.845 47.206 203.845 47.206 203.845"/>
        <g>
          <polygon class="cls-34" points="45.954 202.823 45.869 202.849 45.954 202.823 45.954 202.823"/>
          <polygon class="cls-34" points="46.043 203.115 46.045 203.106 46.089 203.11 46.121 203.157 46.043 203.131 46.043 203.115"/>
          <polygon points="45.85 202.768 45.939 202.751 45.943 202.686 46.474 201.288 46.471 201.297 46.471 201.353 46.486 201.423 46.514 201.507 46.535 201.579 46.555 201.66 46.569 201.73 46.569 201.73 46.653 201.758 46.121 203.157 46.089 203.11 46.045 203.106 46.043 203.115 46.043 203.131 46.121 203.157 46.043 203.152 46.045 203.216 45.991 203.148 45.948 203.145 45.937 203.068 45.969 203.06 46.003 202.97 45.915 202.994 45.889 202.93 45.869 202.849 45.954 202.823 45.954 202.823 45.869 202.849 45.872 202.841 45.85 202.768"/>
        </g>
        <g>
          <polygon class="cls-2" points="50.179 203.15 50.179 203.15 50.255 202.979 50.179 203.15"/>
          <polygon points="46.04 203.037 49.933 202.909 50.034 202.915 50.051 202.92 50.146 202.943 50.154 202.946 50.255 202.979 50.352 203.021 50.361 203.024 50.454 203.083 50.47 203.089 50.543 203.15 50.565 203.167 50.618 203.231 50.624 203.243 50.66 203.301 50.663 203.32 50.491 203.373 50.464 203.329 50.462 203.337 50.416 203.276 50.417 203.275 50.358 203.228 50.372 203.243 50.277 203.193 50.277 203.192 50.179 203.15 50.179 203.15 50.095 203.122 50 203.099 50.017 203.105 49.927 203.094 49.927 203.085 46.045 203.216 46.04 203.037"/>
          <polygon points="50.487 203.373 50.491 203.373 50.501 203.388 50.487 203.373"/>
        </g>
        <polygon class="cls-43" points="52.567 206.641 52.567 206.586 52.036 207.984 52.211 208.043 52.743 206.644 52.743 206.589 52.567 206.641 52.567 206.641 52.567 206.641 52.567 206.641"/>
        <polygon class="cls-43" points="51.03 201.998 51.018 201.976 52.567 206.641 52.743 206.589 51.195 201.923 51.192 201.903 51.03 201.998 51.03 201.998 51.03 201.998 51.03 201.998"/>
        <polygon class="cls-43" points="50.999 201.951 50.993 201.939 51.03 201.998 51.192 201.903 51.155 201.844 51.147 201.841 50.991 201.947 50.991 201.947 50.999 201.951 50.999 201.951"/>
        <polygon class="cls-43" points="50.962 201.891 50.948 201.878 50.991 201.947 51.147 201.841 51.088 201.766 51.075 201.752 50.962 201.891 50.962 201.891 50.962 201.891 50.962 201.891"/>
        <polygon class="cls-43" points="50.901 201.852 50.887 201.839 50.962 201.891 51.075 201.752 50.999 201.699 50.985 201.684 50.901 201.852 50.901 201.852 50.901 201.852"/>
        <polygon class="cls-43" points="50.817 201.797 50.809 201.794 50.901 201.852 50.985 201.684 50.89 201.634 50.882 201.631 50.817 201.797 50.817 201.797 50.817 201.797"/>
        <polygon class="cls-43" points="50.727 201.757 50.708 201.76 50.817 201.797 50.882 201.631 50.783 201.59 50.775 201.587 50.716 201.764 50.716 201.764 50.727 201.757 50.727 201.757"/>
        <polygon class="cls-43" points="50.627 201.724 50.616 201.729 50.716 201.764 50.775 201.587 50.675 201.553 50.675 201.553 50.624 201.732 50.624 201.732 50.627 201.724 50.627 201.724"/>
        <polygon class="cls-43" points="50.549 201.707 50.532 201.702 50.624 201.732 50.675 201.553 50.571 201.528 50.563 201.525 50.549 201.707 50.549 201.707 50.549 201.707 50.549 201.707"/>
        <polygon class="cls-43" points="50.459 201.696 50.456 201.704 50.549 201.707 50.563 201.525 50.464 201.511 50.454 201.517 50.459 201.696 50.459 201.696 50.459 201.696"/>
        <polygon class="cls-43" points="46.661 201.761 46.566 201.823 50.459 201.696 50.454 201.517 46.569 201.646 46.485 201.703 46.653 201.758 46.653 201.758 46.661 201.761 46.661 201.761"/>
        <polygon class="cls-34" points="47.639 206.013 47.626 206.006 47.634 206.002 47.639 206.013"/>
        <g>
          <polygon class="cls-34" points="49.742 206.642 49.725 206.831 49.742 206.642 49.742 206.642"/>
          <g>
            <polygon class="cls-2" points="49.734 206.732 49.725 206.831 49.734 206.732 49.734 206.732"/>
            <g>
              <polygon class="cls-2" points="46.579 205.218 46.585 205.205 46.588 205.222 46.579 205.218"/>
              <path d="m46.52,205.426l.017.09.034.095.042.071.238.125.237.127.23.122.232.115.008.002.235.106.235.106.254.104.258.095.008.003.274.073.275.072.008.003.302.045.311.048.008.002.338.02.012-.006.361.008.386-.011.408-.022.084-.056.529-1.39-.09-.123.005.179-.028-.035.02-.051-.059.004-.025-.032-.013.034-.304.019h-.391l-.361-.009-.329-.017-.322-.042-.299-.053-.274-.073-.274-.073-.257-.094-.249-.093-.235-.106-.232-.115-.24-.117-.229-.123-.229-.124-.159-.084.005-.014-.084-.028h0l-.022-.101-.016-.09-.007-.03.063-.137-.088-.029-.004-.002h0l-.084-.028-.529,1.39-.005.044.014.099.01.106Zm.065-.22l.003.017-.009-.004.006-.013Z"/>
            </g>
          </g>
        </g>
        <polygon class="cls-43" points="51.35 205.453 51.759 205.43 51.754 205.251 51.345 205.273 51.35 205.453 51.35 205.453 51.35 205.453 51.35 205.453"/>
        <polygon class="cls-43" points="50.965 205.463 51.35 205.453 51.345 205.273 50.959 205.284 50.965 205.463 50.965 205.463 50.965 205.463 50.965 205.463"/>
        <polygon class="cls-43" points="50.595 205.452 50.604 205.455 50.965 205.463 50.959 205.284 50.599 205.276 50.61 205.27 50.593 205.46 50.593 205.46 50.595 205.452 50.595 205.452"/>
        <polygon class="cls-43" points="50.248 205.429 50.257 205.432 50.593 205.46 50.61 205.27 50.271 205.251 50.279 205.253 50.248 205.429 50.248 205.429 50.248 205.429 50.248 205.429"/>
        <polygon class="cls-43" points="49.935 205.39 50.248 205.429 50.279 205.253 49.969 205.206 49.935 205.39 49.935 205.39 49.935 205.39"/>
        <polygon class="cls-43" points="49.627 205.334 49.636 205.337 49.935 205.39 49.969 205.206 49.659 205.158 49.667 205.161 49.627 205.334 49.627 205.334 49.627 205.334 49.627 205.334"/>
        <polygon class="cls-43" points="49.354 205.262 49.627 205.334 49.667 205.161 49.393 205.088 49.35 205.27 49.35 205.27 49.354 205.262 49.354 205.262"/>
        <polygon class="cls-43" points="49.068 205.194 49.077 205.197 49.35 205.27 49.393 205.088 49.119 205.015 49.127 205.018 49.068 205.194 49.068 205.194 49.068 205.194"/>
        <polygon class="cls-43" points="48.811 205.099 48.811 205.099 49.068 205.194 49.127 205.018 48.87 204.922 48.878 204.925 48.803 205.096 48.803 205.096 48.811 205.099 48.811 205.099"/>
        <polygon class="cls-43" points="48.556 204.995 48.803 205.096 48.878 204.925 48.632 204.824 48.556 204.995 48.556 204.995 48.556 204.995"/>
        <polygon class="cls-43" points="48.322 204.889 48.556 204.995 48.632 204.824 48.394 204.727 48.322 204.889 48.322 204.889 48.322 204.889"/>
        <polygon class="cls-43" points="48.081 204.771 48.087 204.783 48.322 204.889 48.394 204.727 48.154 204.609 48.162 204.612 48.078 204.78 48.078 204.78 48.081 204.771 48.081 204.771"/>
        <polygon class="cls-43" points="47.849 204.656 48.078 204.78 48.162 204.612 47.931 204.497 47.846 204.665 47.846 204.665 47.849 204.656 47.849 204.656"/>
        <polygon class="cls-43" points="47.62 204.534 47.846 204.665 47.931 204.497 47.701 204.374 47.611 204.531 47.611 204.531 47.62 204.534 47.62 204.534"/>
        <polygon class="cls-43" points="47.382 204.407 47.611 204.531 47.701 204.374 47.471 204.251 47.382 204.407 47.382 204.407 47.382 204.407"/>
        <polygon class="cls-43" points="47.273 204.231 47.145 204.281 47.382 204.407 47.471 204.251 47.234 204.125 47.105 204.175 47.273 204.231 47.273 204.231 47.273 204.231 47.273 204.231"/>
        <polygon class="cls-43" points="71.516 201.712 70.984 203.11 72.721 203.69 73.124 202.762 73.135 202.672 73.138 202.579 73.124 202.482 73.09 202.387 73.035 202.302 72.99 202.213 72.917 202.123 72.841 202.042 72.763 201.97 72.677 201.894 72.587 201.827 72.5 201.779 72.416 201.724 72.318 201.681 72.231 201.634 72.148 201.605 72.073 201.581 71.982 201.57 71.902 201.561 71.823 201.572 71.745 201.583 71.661 201.611 71.588 201.662 71.516 201.712 71.516 201.712 71.516 201.712 71.516 201.712"/>
        <polygon class="cls-43" points="72.643 203.645 72.751 203.598 71.015 203.018 70.956 203.194 72.693 203.774 72.81 203.729 72.643 203.645 72.643 203.645 72.643 203.645"/>
        <g>
          <polygon class="cls-2" points="72.978 204.048 72.989 204.143 72.978 204.048 72.978 204.048"/>
          <polygon class="cls-2" points="73.873 203.111 73.937 203.173 73.868 203.124 73.873 203.111"/>
          <g>
            <polygon class="cls-2" points="73.937 203.173 73.868 203.124 73.873 203.111 73.937 203.173"/>
            <g>
              <polygon class="cls-2" points="73.937 203.173 73.868 203.124 73.873 203.111 73.937 203.173"/>
              <polygon points="45.85 202.684 45.858 202.659 46.387 201.269 46.555 201.325 46.042 202.697 46.031 202.754 46.029 202.735 45.85 202.768 45.847 202.748 45.85 202.684"/>
              <g>
                <polygon class="cls-2" points="73.937 203.173 73.868 203.124 73.873 203.111 73.937 203.173"/>
                <polygon class="cls-34" points="54.366 205.974 54.334 205.993 54.332 205.991 54.366 205.974"/>
                <g>
                  <polygon class="cls-2" points="54.399 206.055 54.466 206.119 54.399 206.055 54.399 206.055"/>
                  <polygon class="cls-2" points="73.937 203.173 73.868 203.124 73.873 203.111 73.937 203.173"/>
                  <polygon class="cls-2" points="52.119 208.012 52.125 208.012 52.125 208.014 52.036 207.984 52.11 207.985 52.119 208.012"/>
                  <path d="m45.915,202.994l.019.081.003-.008.135-.029-.034.09,3.893-.127.093.003.1.033.101.034.1.034.092.059.076.053.054.064.032.065-.091.028,1.549,4.666h.09s.002.059.002.059h.14l.131-.003.12.003.11-.019.111-.028.112-.055.104-.087.122-.117.004-.008.07-.098.081-.104.092-.109.065-.109.08-.131.085-.112.069-.125.09-.13.072-.106.104-.115.084-.111.098-.098.086-.092.092-.081.089-.073.104-.059.022-.011-.067-.064h0l.067.064.103-.115.096-.09.083-.084.09-.073.087-.064.092-.053.081-.047.09-.045.1-.023.098-.041.1-.023.117-.017.129-.022.142-.008.155-.014.151-.006.009.003,16.8-1.255.098-.014.09-.017.081-.02.083-.028.079-.039.081-.048.068-.062.078-.067.018-.022.293-.685-.154-.098.068.066-.011.009-.074-.052-.073.171-.049.03-.064.025-.076.031-.07.014-.089.017-.089.016-16.808,1.252-.107.011-.103.003-.103.003-.11.019h-.112l-.098.014-.107.012-.098.014-.109.02-.098.014-.1.022-.112.028-.101.023-.106.039-.106.039-.101.05-.198.12-.201.184-.213.218-.205.248-.198.26-.171.232-.168.223-.14.168-.081.019-.07.014-.087.008h-.167l-.073-.005-.093-.003-.081-.008-1.543-4.655-.033-.067-.053-.065-.075-.053-.101-.061-.097-.042-.1-.034-.096-.023-.092-.002-3.89.118-.468,1.231-.003-.016-.184.05Zm27.954.13l.005-.012.064.061-.069-.049Z"/>
                </g>
              </g>
            </g>
          </g>
        </g>
        <polygon class="cls-43" points="73.28 203.467 73.381 203.444 73.47 203.427 73.552 203.408 73.636 203.38 73.714 203.341 73.795 203.292 73.859 203.24 73.937 203.173 73.803 203.044 73.744 203.108 73.683 203.153 73.624 203.19 73.56 203.215 73.498 203.232 73.426 203.254 73.347 203.265 73.261 203.274 73.28 203.467 73.28 203.467 73.28 203.467"/>
        <polygon class="cls-43" points="56.483 204.713 73.28 203.467 73.261 203.274 56.461 204.529 56.483 204.713 56.483 204.713 56.483 204.713"/>
        <polygon class="cls-43" points="54.835 205.012 54.933 204.97 55.029 204.936 55.143 204.9 55.238 204.866 55.341 204.836 55.439 204.822 55.537 204.808 55.646 204.788 55.736 204.771 55.839 204.769 55.946 204.757 56.052 204.747 56.158 204.735 56.254 204.73 56.368 204.721 56.483 204.713 56.461 204.529 56.354 204.539 56.248 204.551 56.136 204.551 56.03 204.562 55.926 204.565 55.826 204.587 55.721 204.59 55.607 204.598 55.506 204.621 55.406 204.643 55.297 204.662 55.185 204.69 55.09 204.724 54.976 204.76 54.86 204.797 54.76 204.847 54.835 205.012 54.835 205.012 54.835 205.012 54.835 205.012"/>
        <polygon class="cls-43" points="53.33 206.672 53.367 206.647 53.442 206.561 53.51 206.471 53.59 206.368 53.674 206.256 53.77 206.139 53.857 206.018 53.954 205.892 54.052 205.766 54.153 205.633 54.256 205.518 54.357 205.411 54.46 205.297 54.547 205.204 54.657 205.13 54.745 205.056 54.835 205.012 54.76 204.847 54.645 204.911 54.547 204.98 54.433 205.073 54.324 205.176 54.223 205.283 54.122 205.389 54.01 205.529 53.913 205.654 53.814 205.78 53.716 205.906 53.63 206.026 53.535 206.144 53.451 206.256 53.369 206.359 53.302 206.449 53.241 206.522 53.275 206.505 53.33 206.672 53.33 206.672 53.33 206.672 53.33 206.672"/>
        <polygon class="cls-2" points="71.48 201.793 71.516 201.712 71.582 201.65 71.683 201.6 71.801 201.583 71.865 201.586 71.938 201.592 72.008 201.605 72.078 201.62 72.162 201.647 72.237 201.673 72.318 201.709 72.405 201.757 72.478 201.791 72.553 201.843 72.62 201.894 72.693 201.956 72.769 202.009 72.822 202.073 72.886 202.132 72.939 202.196 73.037 202.322 73.088 202.451 73.113 202.515 73.126 202.557 73.118 202.666 73.098 202.753 73.036 202.826 72.947 202.87 72.827 202.895 72.76 202.901 72.691 202.887 72.609 202.879 72.523 202.859 72.447 202.834 72.363 202.806 72.274 202.767 72.195 202.722 72.114 202.685 72.027 202.638 71.951 202.585 71.879 202.523 71.812 202.473 71.742 202.403 71.681 202.335 71.627 202.271 71.541 202.14 71.491 202.011 71.476 201.97 71.463 201.899 71.48 201.793"/>
        <polygon class="cls-32" points="50.112 201.617 50.459 201.612 50.487 201.612 47.509 200.618 47.358 200.707 50.11 201.626 50.11 201.626 50.112 201.617 50.112 201.617"/>
        <polygon class="cls-32" points="50.112 201.617 46.569 201.73 46.555 201.66 46.535 201.579 46.514 201.507 46.486 201.423 46.471 201.353 46.471 201.297 46.493 201.23 46.555 201.185 46.7 201.084 46.862 200.989 47.025 200.894 47.187 200.8 47.341 200.702 47.358 200.707 50.11 201.626 50.11 201.626 50.112 201.617 50.112 201.617"/>
        <polygon class="cls-31" points="47.959 203.77 50.372 203.634 51.317 204.015 51.649 205.002 51.751 205.344 51.35 205.368 50.959 205.368 50.598 205.36 50.269 205.343 49.947 205.301 49.648 205.248 49.373 205.175 49.099 205.102 48.842 205.007 48.593 204.914 48.358 204.808 48.126 204.693 47.886 204.576 47.656 204.452 47.427 204.329 47.189 204.203 47.167 204.102 47.15 204.012 47.128 203.913 47.114 203.814 47.959 203.77"/>
        <polygon class="cls-32" points="54.039 204.047 54.072 204.086 54.383 204.272 54.483 204.111 54.172 203.924 54.203 203.971 54.039 204.047 54.05 204.069 54.072 204.086 54.039 204.047 54.039 204.047 54.039 204.047"/>
        <polygon class="cls-32" points="51.278 204.104 51.225 204.04 51.667 205.371 51.843 205.318 51.401 203.986 51.354 203.934 51.401 203.986 51.387 203.945 51.354 203.934 51.278 204.104 51.278 204.104 51.278 204.104 51.278 204.104"/>
        <polygon class="cls-32" points="50.38 203.721 50.336 203.715 51.278 204.104 51.354 203.934 50.411 203.544 50.375 203.542 50.411 203.544 50.394 203.539 50.375 203.542 50.38 203.721 50.38 203.721 50.38 203.721 50.38 203.721"/>
        <polygon class="cls-32" points="47.209 203.809 47.119 203.909 50.38 203.721 50.375 203.542 47.114 203.73 47.027 203.823 47.114 203.73 47.01 203.733 47.027 203.823 47.209 203.809 47.209 203.809 47.209 203.809"/>
        <polygon class="cls-32" points="47.234 204.125 47.27 204.184 47.268 204.136 47.256 204.086 47.253 204.038 47.239 203.997 47.237 203.949 47.226 203.898 47.212 203.856 47.209 203.809 47.027 203.823 47.027 203.879 47.035 203.937 47.049 203.979 47.052 204.027 47.066 204.069 47.077 204.12 47.097 204.173 47.1 204.221 47.145 204.281 47.1 204.221 47.114 204.262 47.145 204.281 47.234 204.125 47.234 204.125 47.234 204.125"/>
        <polygon class="cls-32" points="51.67 205.363 51.745 205.248 51.345 205.273 50.959 205.284 50.61 205.27 50.271 205.251 49.969 205.206 49.667 205.161 49.393 205.088 49.127 205.018 48.87 204.922 48.632 204.824 48.394 204.727 48.162 204.612 47.931 204.497 47.701 204.374 47.471 204.251 47.234 204.125 47.145 204.281 47.382 204.407 47.611 204.531 47.846 204.665 48.078 204.78 48.322 204.889 48.556 204.995 48.811 205.099 49.068 205.194 49.35 205.27 49.627 205.334 49.935 205.39 50.257 205.432 50.593 205.46 50.965 205.463 51.35 205.453 51.767 205.433 51.843 205.318 51.767 205.433 51.882 205.425 51.843 205.318 51.667 205.371 51.667 205.371 51.67 205.363 51.67 205.363"/>
        <g>
          <polygon class="cls-2" points="53.357 206.545 53.425 206.611 53.357 206.545 53.357 206.545"/>
          <polygon class="cls-2" points="52.737 206.522 52.721 206.522 52.721 206.522 52.737 206.522"/>
          <polygon class="cls-2" points="51.219 201.996 53.666 202.812 51.219 201.996 51.219 201.996"/>
        </g>
        <polygon class="cls-32" points="56.461 204.529 56.337 204.534 56.2 204.553 56.077 204.559 55.943 204.57 55.814 204.593 55.677 204.612 55.54 204.632 55.408 204.662 55.277 204.693 55.163 204.729 55.037 204.771 54.919 204.816 54.819 204.866 54.699 204.919 54.601 204.989 54.51 205.062 54.623 205.202 54.709 205.138 54.793 205.081 54.885 205.029 54.992 204.989 55.095 204.93 55.207 204.903 55.339 204.872 55.454 204.836 55.579 204.822 55.691 204.794 55.825 204.783 55.954 204.761 56.091 204.741 56.225 204.73 56.351 204.716 56.483 204.713 56.461 204.529 56.461 204.529 56.461 204.529 56.461 204.529"/>
        <polygon class="cls-32" points="73.261 203.274 56.461 204.529 56.483 204.713 73.28 203.467 73.261 203.274 73.261 203.274 73.261 203.274"/>
        <polygon class="cls-32" points="73.574 202.249 73.644 202.348 73.717 202.438 73.75 202.532 73.803 202.625 73.831 202.709 73.839 202.795 73.843 202.87 73.837 202.943 73.817 203.002 73.789 203.058 73.753 203.111 73.688 203.164 73.621 203.198 73.515 203.236 73.403 203.265 73.261 203.274 73.28 203.467 73.434 203.453 73.568 203.413 73.686 203.369 73.789 203.31 73.884 203.248 73.951 203.159 73.987 203.078 74.021 202.977 74.019 202.873 74.025 202.773 74.002 202.672 73.965 202.558 73.923 202.46 73.867 202.348 73.795 202.23 73.722 202.141 73.574 202.249 73.574 202.249 73.574 202.249"/>
        <polygon class="cls-32" points="71.571 201.292 71.723 201.287 71.877 201.301 72.033 201.335 72.184 201.357 72.327 201.405 72.469 201.452 72.606 201.517 72.735 201.578 72.869 201.65 72.992 201.73 73.124 201.81 73.219 201.888 73.319 201.978 73.417 202.076 73.498 202.168 73.574 202.249 73.722 202.141 73.636 202.037 73.537 201.939 73.44 201.841 73.331 201.748 73.21 201.663 73.09 201.575 72.967 201.497 72.828 201.413 72.682 201.346 72.534 201.287 72.383 201.237 72.223 201.184 72.067 201.15 71.907 201.125 71.725 201.11 71.566 201.113 71.571 201.292 71.571 201.292 71.571 201.292"/>
        <polygon class="cls-32" points="56.707 201.804 71.571 201.292 71.566 201.113 56.71 201.628 56.707 201.804 56.707 201.804 56.707 201.804"/>
        <polygon class="cls-32" points="54.36 201.431 54.5 201.488 54.648 201.518 54.792 201.566 54.94 201.596 55.095 201.63 55.242 201.67 55.401 201.695 55.544 201.713 55.692 201.745 55.846 201.759 55.996 201.781 56.145 201.784 56.288 201.804 56.438 201.799 56.576 201.807 56.707 201.804 56.71 201.628 56.571 201.628 56.433 201.62 56.304 201.614 56.159 201.603 56.013 201.592 55.869 201.58 55.726 201.561 55.574 201.538 55.426 201.508 55.284 201.488 55.138 201.448 54.987 201.426 54.841 201.387 54.688 201.345 54.559 201.312 54.416 201.264 54.358 201.44 54.358 201.44 54.36 201.431 54.36 201.431"/>
        <polygon class="cls-32" points="49.346 200.056 49.601 200.02 49.841 199.998 50.071 199.981 50.28 199.967 50.479 199.958 50.658 199.981 50.843 199.987 50.997 200 51.156 200.026 51.304 200.057 51.444 200.085 51.57 200.127 51.704 200.172 51.81 200.216 51.942 200.27 52.045 200.323 52.165 200.382 52.286 200.441 52.403 200.508 52.52 200.575 52.638 200.642 52.761 200.721 52.882 200.78 53.013 200.86 53.158 200.927 53.298 201.011 53.455 201.073 53.605 201.151 53.776 201.227 53.961 201.288 54.156 201.372 54.358 201.44 54.416 201.264 54.215 201.196 54.017 201.12 53.851 201.056 53.678 200.989 53.519 200.908 53.382 200.843 53.242 200.759 53.105 200.695 52.971 200.622 52.845 200.553 52.727 200.485 52.605 200.407 52.487 200.339 52.367 200.281 52.247 200.222 52.137 200.157 52.017 200.099 51.886 200.046 51.763 199.996 51.629 199.95 51.486 199.903 51.338 199.873 51.187 199.85 51.021 199.814 50.851 199.794 50.675 199.791 50.47 199.788 50.275 199.788 50.048 199.797 49.819 199.813 49.576 199.844 49.324 199.872 49.338 200.053 49.338 200.053 49.346 200.056 49.346 200.056"/>
        <polygon class="cls-32" points="46.602 201.266 46.748 201.166 46.91 201.071 47.073 200.975 47.237 200.872 47.388 200.783 47.559 200.691 47.719 200.604 47.883 200.529 48.059 200.448 48.237 200.366 48.41 200.293 48.589 200.232 48.781 200.184 48.957 200.131 49.15 200.084 49.338 200.053 49.324 199.872 49.114 199.914 48.916 199.95 48.72 200.005 48.535 200.056 48.351 200.134 48.16 200.201 47.987 200.274 47.811 200.355 47.632 200.444 47.461 200.536 47.302 200.623 47.14 200.718 46.977 200.813 46.815 200.908 46.661 201.006 46.507 201.104 46.594 201.263 46.594 201.263 46.602 201.266 46.602 201.266"/>
        <polygon class="cls-32" points="46.569 201.646 46.664 201.725 46.636 201.641 46.619 201.552 46.597 201.479 46.577 201.397 46.566 201.347 46.558 201.316 46.572 201.275 46.594 201.263 46.507 201.104 46.426 201.179 46.384 201.278 46.373 201.367 46.401 201.451 46.421 201.532 46.443 201.605 46.465 201.677 46.48 201.747 46.566 201.823 46.48 201.747 46.482 201.823 46.566 201.823 46.569 201.646 46.569 201.646 46.569 201.646"/>
        <g>
          <polygon class="cls-2" points="53.432 202.315 53.433 202.315 53.41 202.41 53.432 202.315"/>
          <polygon class="cls-31" points="53.435 202.306 53.433 202.315 53.432 202.315 53.435 202.306"/>
          <polygon class="cls-31" points="53.393 202.349 53.432 202.315 53.41 202.41 53.393 202.349"/>
          <g>
            <polygon class="cls-2" points="71.516 201.712 71.582 201.65 71.683 201.6 71.801 201.583 71.865 201.586 71.938 201.592 72.008 201.605 72.078 201.62 72.162 201.647 72.237 201.673 72.318 201.709 72.405 201.757 72.478 201.791 72.553 201.843 72.62 201.894 72.693 201.956 72.769 202.009 72.822 202.073 72.886 202.132 72.939 202.196 73.037 202.322 73.088 202.451 73.113 202.515 73.126 202.557 73.118 202.666 73.098 202.753 73.036 202.826 72.947 202.87 72.827 202.895 72.76 202.901 72.691 202.887 72.609 202.879 72.523 202.859 72.447 202.834 72.363 202.806 72.274 202.767 72.195 202.722 72.114 202.685 72.027 202.638 71.951 202.585 71.879 202.523 71.812 202.473 71.742 202.403 71.681 202.335 71.627 202.271 71.541 202.14 71.491 202.011 71.476 201.97 71.463 201.899 71.48 201.793 71.516 201.712"/>
            <polygon class="cls-2" points="55.324 202.302 55.324 202.302 55.241 202.341 55.324 202.302"/>
            <polygon class="cls-2" points="55.929 203.829 55.988 203.877 55.993 203.887 55.834 204.087 54.43 204.186 54.125 204.01 54.124 204.007 54.203 203.971 53.605 202.398 53.705 202.299 54.982 202.226 55.252 202.367 55.915 203.927 55.929 203.829"/>
            <polygon class="cls-2" points="51.138 201.828 51.138 201.828 53.488 202.613 51.138 201.828"/>
            <g>
              <polygon class="cls-2" points="71.516 201.712 71.582 201.65 71.683 201.6 71.801 201.583 71.865 201.586 71.938 201.592 72.008 201.605 72.078 201.62 72.162 201.647 72.237 201.673 72.318 201.709 72.405 201.757 72.478 201.791 72.553 201.843 72.62 201.894 72.693 201.956 72.769 202.009 72.822 202.073 72.886 202.132 72.939 202.196 73.037 202.322 73.088 202.451 73.113 202.515 73.126 202.557 73.118 202.666 73.098 202.753 73.036 202.826 72.947 202.87 72.827 202.895 72.76 202.901 72.691 202.887 72.609 202.879 72.523 202.859 72.447 202.834 72.363 202.806 72.274 202.767 72.195 202.722 72.114 202.685 72.027 202.638 71.951 202.585 71.879 202.523 71.812 202.473 71.742 202.403 71.681 202.335 71.627 202.271 71.541 202.14 71.491 202.011 71.476 201.97 71.463 201.899 71.48 201.793 71.516 201.712"/>
              <polygon class="cls-2" points="54.982 202.226 55.252 202.367 55.915 203.927 55.929 203.829 55.988 203.877 55.993 203.887 55.834 204.087 54.43 204.186 54.125 204.01 54.124 204.007 54.203 203.971 53.605 202.398 53.705 202.299 54.982 202.226"/>
              <polygon class="cls-2" points="51.138 201.828 51.138 201.828 53.488 202.613 51.138 201.828"/>
              <g>
                <polygon class="cls-2" points="71.516 201.712 71.582 201.65 71.683 201.6 71.801 201.583 71.865 201.586 71.938 201.592 72.008 201.605 72.078 201.62 72.162 201.647 72.237 201.673 72.318 201.709 72.405 201.757 72.478 201.791 72.553 201.843 72.62 201.894 72.693 201.956 72.769 202.009 72.822 202.073 72.886 202.132 72.939 202.196 73.037 202.322 73.088 202.451 73.113 202.515 73.126 202.557 73.118 202.666 73.098 202.753 73.036 202.826 72.947 202.87 72.827 202.895 72.76 202.901 72.691 202.887 72.609 202.879 72.523 202.859 72.447 202.834 72.363 202.806 72.274 202.767 72.195 202.722 72.114 202.685 72.027 202.638 71.951 202.585 71.879 202.523 71.812 202.473 71.742 202.403 71.681 202.335 71.627 202.271 71.541 202.14 71.491 202.011 71.476 201.97 71.463 201.899 71.48 201.793 71.516 201.712"/>
                <polygon class="cls-2" points="54.982 202.226 55.252 202.367 55.915 203.927 55.929 203.829 55.988 203.877 55.993 203.887 55.836 204.084 55.826 203.999 54.422 204.1 54.483 204.111 54.436 204.185 54.43 204.186 54.125 204.01 54.124 204.007 54.203 203.971 53.605 202.398 53.705 202.299 54.982 202.226"/>
                <polygon class="cls-2" points="51.138 201.828 51.138 201.828 53.488 202.613 51.138 201.828"/>
                <g>
                  <polygon class="cls-2" points="55.965 203.58 58.625 204.467 55.965 203.58 55.965 203.58"/>
                  <polygon class="cls-2" points="55.895 203.417 58.961 204.44 55.895 203.417 55.895 203.417"/>
                  <polygon class="cls-2" points="71.516 201.712 71.582 201.65 71.683 201.6 71.801 201.583 71.865 201.586 71.938 201.592 72.008 201.605 72.078 201.62 72.162 201.647 72.237 201.673 72.318 201.709 72.405 201.757 72.478 201.791 72.553 201.843 72.62 201.894 72.693 201.956 72.769 202.009 72.822 202.073 72.886 202.132 72.939 202.196 73.037 202.322 73.088 202.451 73.113 202.515 73.126 202.557 73.118 202.666 73.098 202.753 73.036 202.826 72.947 202.87 72.827 202.895 72.76 202.901 72.691 202.887 72.609 202.879 72.523 202.859 72.447 202.834 72.363 202.806 72.274 202.767 72.195 202.722 72.114 202.685 72.027 202.638 71.951 202.585 71.879 202.523 71.812 202.473 71.742 202.403 71.681 202.335 71.627 202.271 71.541 202.14 71.491 202.011 71.476 201.97 71.463 201.899 71.48 201.793 71.516 201.712"/>
                  <polygon class="cls-2" points="54.982 202.226 55.252 202.367 55.915 203.927 55.929 203.829 55.988 203.877 55.993 203.887 55.836 204.084 55.834 204.087 54.436 204.185 54.43 204.186 54.125 204.01 54.124 204.007 54.203 203.971 53.605 202.398 53.705 202.299 54.982 202.226"/>
                  <polygon class="cls-2" points="51.138 201.828 51.138 201.828 53.488 202.613 51.138 201.828"/>
                  <polygon class="cls-31" points="55.895 203.417 58.961 204.44 58.628 204.459 58.625 204.467 55.965 203.58 55.895 203.417"/>
                  <g>
                    <polygon class="cls-2" points="71.516 201.712 71.582 201.65 71.683 201.6 71.801 201.583 71.865 201.586 71.938 201.592 72.008 201.605 72.078 201.62 72.162 201.647 72.237 201.673 72.318 201.709 72.405 201.757 72.478 201.791 72.553 201.843 72.62 201.894 72.693 201.956 72.769 202.009 72.822 202.073 72.886 202.132 72.939 202.196 73.037 202.322 73.088 202.451 73.113 202.515 73.126 202.557 73.118 202.666 73.098 202.753 73.036 202.826 72.947 202.87 72.827 202.895 72.76 202.901 72.691 202.887 72.609 202.879 72.523 202.859 72.447 202.834 72.363 202.806 72.274 202.767 72.195 202.722 72.114 202.685 72.027 202.638 71.951 202.585 71.879 202.523 71.812 202.473 71.742 202.403 71.681 202.335 71.627 202.271 71.541 202.14 71.491 202.011 71.476 201.97 71.463 201.899 71.48 201.793 71.516 201.712"/>
                    <polygon class="cls-2" points="54.982 202.226 55.252 202.367 55.893 203.875 55.793 204.002 54.422 204.1 54.483 204.111 54.436 204.185 54.43 204.186 54.125 204.01 54.124 204.007 54.203 203.971 53.605 202.398 53.705 202.299 54.982 202.226"/>
                    <polygon class="cls-2" points="55.929 203.829 55.988 203.877 55.988 203.877 55.929 203.829"/>
                    <polygon class="cls-2" points="51.138 201.828 51.138 201.828 53.488 202.613 51.138 201.828"/>
                    <path class="cls-31" d="m46.566,201.823l3.893-.127.082.008.075.025.1.034.092.03.084.056.062.039.036.059.027.029,1.549,4.665.022.073.076-.003.078-.011.089.011.109.008.103-.002.101.005.092-.025.103-.03.084-.056.101-.106.084-.112.078-.095.078-.095.067-.09.065-.081.056-.084.067-.089.056-.084.064-.081.065-.082.069-.07.073-.078.084-.084.084-.084.106-.095-.056-.071.084-.069.095-.062.11-.048.1-.05.109-.048.123-.033.126-.043.123-.033.117-.017.128-.022.137-.02.129-.022.134-.011.135-.011.125-.014.124-.006,2.159-.156-2.66-.888-.069-.163h0l3.065,1.023,14.314-1.069.265-.042.199-.092.137-.132.05-.151v-.168s.003-.008.003-.008l-.047-.193-.095-.19-.137-.204-.081-.092-.09-.095-.098-.098-.103-.082-.11-.091-.123-.079-.131-.081-.132-.081-.139-.056-.137-.064-.151-.05-.159-.053-.151-.022-.157-.034-.163-.017-.16.002-2.161.081-12.695.434h-.139l-.132.003-.148-.003-.142-.02-.146-.011-.145-.011-.142-.02-.151-.022-.15-.022-.148-.031-.149-.031-.148-.031-.154-.042-.145-.04-.137-.036-.143-.047-.202-.067-.199-.076-.173-.067-.173-.067-.151-.079-.145-.067-.151-.079-.137-.064-.131-.081-.118-.068-.125-.07-.118-.067-.126-.07-.117-.066-.112-.056-.117-.068-.121-.058-.123-.05-.118-.039-.134-.045-.143-.048-.136-.037-.151-.023-.16-.025-.162-.017-.182-.014-.193-.009-.198.009-.207.006-.232.025-.24.022-.263.034-.195.027-.194.047-.193.048-.179.061-.189.067-.182.07-.173.073-.177.081-.167.084-.171.092,2.717.907-3.656.122-.003.176Zm24.897.077l.017-.106.037-.081.066-.062.101-.05.118-.017.064.003.073.005.07.014.07.015.084.027.075.025.081.036.087.048.073.034.075.053.067.051.073.062.075.053.053.065.064.058.053.065.098.126.05.128.025.065.014.042-.008.109-.02.087-.062.073-.089.044-.12.025-.067.006-.07-.014-.081-.008-.086-.02-.076-.025-.084-.028-.09-.038-.078-.045-.081-.037-.087-.048-.076-.053-.072-.062-.067-.051-.07-.07-.062-.068-.053-.064-.086-.132-.05-.129-.014-.042-.014-.07Zm-15.474,1.977h0l-.059-.048.059.048Zm-2.383-1.479l.1-.099,1.276-.073.27.141.641,1.509-.1.126-1.372.098.062.011-.047.074h-.006s-.305-.175-.305-.175v-.003s.078-.036.078-.036l-.598-1.573Z"/>
                  </g>
                </g>
              </g>
            </g>
          </g>
        </g>
        <polygon class="cls-43" points="70.598 202.869 70.52 202.825 70.506 202.755 70.618 202.727 70.64 202.8 70.573 202.749 70.598 202.869 70.598 202.869 70.598 202.869"/>
        <polygon class="cls-43" points="70.75 202.78 70.732 202.802 70.704 202.831 70.671 202.847 70.638 202.864 70.598 202.869 70.573 202.749 70.59 202.755 70.615 202.736 70.646 202.727 70.648 202.718 70.643 202.736 70.747 202.789 70.747 202.789 70.75 202.78 70.75 202.78"/>
        <polygon class="cls-43" points="70.433 202.077 70.442 202.081 70.495 202.145 70.565 202.215 70.632 202.293 70.696 202.38 70.749 202.472 70.78 202.575 70.78 202.688 70.747 202.789 70.643 202.736 70.666 202.668 70.66 202.601 70.64 202.52 70.59 202.447 70.534 202.363 70.473 202.297 70.402 202.226 70.35 202.162 70.358 202.165 70.433 202.077 70.433 202.077 70.433 202.077"/>
        <polygon class="cls-43" points="69.404 201.781 69.396 201.778 69.544 201.781 69.684 201.781 69.815 201.807 69.941 201.821 70.07 201.854 70.19 201.913 70.316 201.983 70.433 202.077 70.358 202.165 70.243 202.089 70.134 202.024 70.031 201.972 69.919 201.943 69.796 201.921 69.67 201.907 69.541 201.901 69.409 201.904 69.413 201.896 69.393 201.786 69.393 201.786 69.404 201.781 69.404 201.781"/>
        <polygon class="cls-43" points="58.491 202.353 58.539 202.322 69.393 201.786 69.413 201.896 58.555 202.44 58.603 202.409 58.491 202.353 58.491 202.353 58.491 202.353"/>
        <polygon class="cls-43" points="58.233 202.734 58.116 202.694 58.124 202.613 58.147 202.546 58.181 202.474 58.225 202.423 58.284 202.387 58.359 202.356 58.444 202.328 58.539 202.322 58.555 202.44 58.466 202.456 58.385 202.476 58.345 202.482 58.307 202.515 58.287 202.546 58.256 202.583 58.24 202.633 58.242 202.708 58.124 202.669 58.233 202.734 58.233 202.734 58.233 202.734"/>
        <g>
          <polygon class="cls-2" points="58.539 202.325 58.555 202.44 58.539 202.325 58.539 202.325"/>
          <g>
            <polygon class="cls-2" points="58.242 202.708 58.256 202.638 58.29 202.566 58.318 202.51 58.376 202.474 58.446 202.459 58.544 202.445 58.555 202.44 69.413 201.896 69.594 201.91 69.746 201.904 69.888 201.924 70.019 201.949 70.14 202.008 70.248 202.072 70.35 202.162 70.465 202.293 70.565 202.411 70.638 202.528 70.673 202.615 70.673 202.671 70.648 202.718 70.578 202.761 70.447 202.791 70.263 202.813 59.106 203.388 59.098 203.386 58.941 203.38 58.788 203.338 58.65 203.274 58.533 203.206 58.435 203.108 58.365 203.011 58.304 202.915 58.256 202.834 58.248 202.776 58.242 202.708"/>
            <g>
              <path class="cls-2" d="m58.256,202.638l-.014.07.006.068.008.059.047.081.061.095.07.097.097.098.117.068.138.064.153.042.157.006.008.003,11.156-.575.185-.022.131-.03.07-.043.025-.047v-.056l-.036-.087-.073-.117-.1-.117-.115-.131-.101-.09-.108-.064-.12-.058-.131-.025-.143-.02-.152.006-.181-.014-10.857.544-.011.005-.098.014-.07.015-.058.036-.028.056-.034.073Zm.153-.07l10.857-.545.005-.017.146.011h.14s.131.025.131.025l.125.014.129.034.12.059.117.068.126.097.048.054.042.042.039.051.034.039.048.053.036.059.031.048.03.048.003.019-.112.028.003.02-.028-.057-.03-.047-.042-.042-.031-.047-.033-.039-.039-.05-.042-.043-.05-.044.004-.003-.1-.075-.105-.073-.106-.044-.111-.028-.123-.023-.126-.014-.137-.009-.131.003-10.854.535-.012-.105Z"/>
              <g>
                <path class="cls-2" d="m58.256,202.638l-.014.07.006.068.008.059.047.081.061.095.07.097.097.098.117.068.138.064.153.042.157.006.008.003,11.156-.575.185-.022.131-.03.07-.043.025-.047v-.056l-.036-.087-.073-.117-.1-.117-.115-.131-.101-.09-.108-.064-.12-.058-.131-.025-.143-.02-.152.006-.181-.014-10.857.544-.011.005-.098.014-.07.015-.058.036-.028.056-.034.073Z"/>
                <g>
                  <polygon class="cls-2" points="58.29 202.566 58.318 202.51 58.376 202.474 58.446 202.459 58.51 202.45 58.422 202.619 69.278 202.075 69.418 202.075 69.547 202.081 69.678 202.105 69.804 202.12 69.924 202.15 70.039 202.198 70.154 202.274 70.265 202.357 70.305 202.408 70.347 202.449 70.386 202.501 70.428 202.542 70.458 202.59 70.498 202.64 70.529 202.688 70.565 202.746 70.569 202.763 70.447 202.791 70.263 202.813 59.106 203.388 59.098 203.386 58.941 203.38 58.788 203.338 58.65 203.274 58.533 203.206 58.435 203.108 58.365 203.011 58.304 202.915 58.256 202.834 58.248 202.776 58.242 202.708 58.256 202.638 58.29 202.566"/>
                  <polygon points="70.529 202.688 70.498 202.64 70.458 202.59 70.428 202.542 70.386 202.501 70.347 202.449 70.305 202.408 70.265 202.357 70.154 202.274 70.039 202.198 69.924 202.15 69.804 202.12 69.678 202.105 69.547 202.081 69.418 202.075 69.278 202.075 58.422 202.619 58.51 202.45 58.544 202.445 58.555 202.44 69.413 201.896 69.594 201.91 69.746 201.904 69.888 201.924 70.019 201.949 70.14 202.008 70.248 202.072 70.35 202.162 70.465 202.293 70.565 202.411 70.638 202.528 70.673 202.615 70.673 202.671 70.648 202.718 70.578 202.761 70.569 202.763 70.565 202.746 70.529 202.688"/>
                  <g>
                    <polygon class="cls-2" points="58.261 202.627 58.271 202.625 58.326 202.625 58.422 202.619 58.512 202.449 58.544 202.445 58.555 202.44 69.413 201.896 69.594 201.91 69.746 201.904 69.888 201.924 70.019 201.949 70.14 202.008 70.248 202.072 70.35 202.162 70.465 202.293 70.565 202.411 70.638 202.528 70.673 202.615 70.673 202.671 70.648 202.718 70.578 202.761 70.569 202.763 70.447 202.791 70.263 202.813 59.106 203.388 59.098 203.386 58.941 203.38 58.788 203.338 58.65 203.274 58.533 203.206 58.435 203.108 58.365 203.011 58.304 202.915 58.256 202.834 58.248 202.776 58.242 202.708 58.256 202.638 58.261 202.627"/>
                    <path d="m58.116,202.694l.012.106.022.073.031.103.073.117.089.096.115.103.137.093.153.071.162.044h.196l11.154-.566.212-.022.151-.034.109-.076.061-.101-.002-.103-.042-.127-.081-.12-.112-.14-.115-.131-.123-.106-.131-.081-.129-.062-.14-.028-.168-.028h-.167l-.19.011-10.854.536v.003l-.116.005-.117.045-.078.067-.053.076-.036.081-.023.095Zm.126.014l.014-.07.005-.012.009-.002h.055l.096-.006.09-.169.033-.004.011-.005,10.857-.544.181.014.152-.006.143.02.131.025.12.058.108.064.101.09.115.131.1.117.073.117.036.087v.056l-.025.047-.07.043-.009.002-.122.028-.185.022-11.156.575-.008-.003-.157-.006-.153-.042-.138-.064-.117-.068-.097-.098-.07-.097-.061-.095-.047-.081-.008-.059-.006-.068Z"/>
                  </g>
                </g>
              </g>
            </g>
          </g>
        </g>
      </g>
    </g>
    
  </g>
</g></svg>