<svg version="1.1" id="Layer_1" xmlns="http://www.w3.org/2000/svg" xmlns:xlink="http://www.w3.org/1999/xlink" x="0px" y="0px" width="750" height="1125" viewBox="0 0 750 1125" enable-background="new 0 0 180 270" xml:space="preserve"><g transform="translate(0, 431.4091468373965) scale(7.820483410147859)">
<g>
	<path fill="#231F20" d="M180,270H0V0h180V270z M135.691,259.725c15.444,0,28.01-12.676,28.01-28.258V38.531   c0-15.58-12.565-28.256-28.01-28.256H44.306c-15.442,0-28.007,12.676-28.007,28.256v192.936c0,15.582,12.564,28.258,28.007,28.258   H135.691z"/>
	
		<path fill="none" stroke="#ED1C24" stroke-width="0.9776" stroke-linecap="round" stroke-linejoin="round" stroke-miterlimit="10" d="   M44.306,259.725c-15.442,0-28.007-12.676-28.007-28.258V38.531c0-15.58,12.564-28.256,28.007-28.256h91.386   c15.444,0,28.01,12.676,28.01,28.256v192.936c0,15.582-12.565,28.258-28.01,28.258H44.306z"/>
	<path fill="none" stroke="#26AAE1" stroke-width="1.127" stroke-miterlimit="10" stroke-dasharray="3.4936,3.4936" d="   M44.306,250.725c-10.48,0-19.007-8.639-19.007-19.258V38.531c0-10.617,8.526-19.256,19.007-19.256h91.386   c10.482,0,19.01,8.639,19.01,19.256v192.936c0,10.619-8.527,19.258-19.01,19.258H44.306z"/>
	<g>
		<g>
			<rect x="36.434" y="27.149" fill="#E7E7E7" width="107.133" height="21.753"/>
			
		</g>
		<g>
			<rect x="43.828" y="211.811" fill="#E7E7E7" width="95.902" height="33.525"/>
			
			<g>
				<path fill="#EB242B" d="M103.244,215.246c0,0.252-0.113,0.502-0.344,0.74l-0.037,0.037l-2.008,2.119      c-0.426,0.447-0.791,0.795-1.09,1.041c-0.301,0.244-0.512,0.367-0.635,0.367c-0.131,0-0.291-0.061-0.486-0.186      c-0.191-0.121-0.316-0.248-0.373-0.377c-0.047-0.109-0.092-0.338-0.135-0.691c-0.041-0.35-0.062-0.73-0.062-1.141      c0-0.225,0.094-0.43,0.277-0.621c0.189-0.188,0.395-0.285,0.619-0.285c0.215,0,0.342,0.197,0.383,0.59      c0.004,0.045,0.008,0.078,0.012,0.102c0.033,0.303,0.072,0.512,0.119,0.631c0.045,0.119,0.107,0.18,0.186,0.18      c0.031,0,0.094-0.035,0.182-0.107c0.088-0.07,0.195-0.164,0.318-0.287l2.064-2.047c0.174-0.174,0.328-0.305,0.465-0.395      c0.137-0.088,0.252-0.133,0.348-0.133c0.07,0,0.123,0.027,0.152,0.082c0.031,0.055,0.045,0.145,0.045,0.273V215.246z"/>
			</g>
			<g>
				<ellipse fill-rule="evenodd" clip-rule="evenodd" fill="#010101" cx="60.226" cy="228.25" rx="14.782" ry="14.795"/>
				<ellipse fill-rule="evenodd" clip-rule="evenodd" fill="#B7D334" cx="60.235" cy="228.33" rx="13.438" ry="13.453"/>
				<g>
					<path fill="#010101" d="M57.359,225.398c-0.188,1.648-0.324,2.973-0.418,3.971l-0.613,0.027       c0.008-0.031,0.014-0.07,0.016-0.111c0.002-0.074-0.027-0.174-0.082-0.297c-0.059-0.121-0.09-0.199-0.098-0.232       c-0.158,0.023-0.311,0.133-0.455,0.33s-0.277,0.297-0.393,0.295c-0.066-0.004-0.141-0.021-0.225-0.055       c-0.109,0.072-0.25,0.105-0.426,0.094c-0.158-0.029-0.312-0.051-0.461-0.07c-0.006-0.209-0.211-0.393-0.617-0.549       c0.004-0.084-0.041-0.207-0.123-0.373c-0.086-0.164-0.127-0.277-0.127-0.346c0-0.074,0.031-0.137,0.09-0.186       c-0.008-0.023-0.076-0.18-0.203-0.467c-0.088-0.209-0.131-0.391-0.129-0.539c0.002-0.117,0.029-0.225,0.08-0.324       c-0.07-0.711-0.102-1.32-0.092-1.828c0.012-0.785,0.123-1.504,0.336-2.16c-0.016-0.102-0.021-0.201-0.021-0.301       c0.01-0.525,0.191-0.889,0.545-1.092l0.002-0.162c0.35-0.445,0.809-0.768,1.379-0.965c0.342,0.08,0.68,0.158,1.021,0.23       c0.381,0.131,0.643,0.355,0.789,0.676c0.115,0.068,0.172,0.207,0.168,0.414c-0.006,0.234,0.021,0.387,0.078,0.453l-0.064,0.074       c0.068,0.494,0.1,0.793,0.098,0.902c-0.004,0.316-0.088,0.541-0.248,0.672c-0.059-0.002-0.213-0.053-0.459-0.158       c-0.061,0.057-0.123,0.086-0.189,0.084c-0.033,0-0.094-0.018-0.182-0.053c-0.086-0.035-0.16-0.053-0.217-0.053       c-0.041-0.002-0.084,0.006-0.125,0.021c-0.006-0.658,0.016-1.148,0.062-1.475c-0.066-0.043-0.133-0.143-0.201-0.291       c-0.07-0.152-0.156-0.236-0.264-0.256c-0.07,0.084-0.1,0.137-0.092,0.162l-0.223-0.078c-0.205,0.221-0.34,0.607-0.408,1.156       c-0.068,0.633-0.154,1.051-0.258,1.258c0.09,0.096,0.133,0.225,0.131,0.391c0,0.059-0.01,0.154-0.029,0.287       c-0.021,0.135-0.029,0.234-0.031,0.301c-0.002,0.076,0.006,0.143,0.021,0.201l-0.15,0.146c0.061,0.283,0.096,0.645,0.105,1.08       c-0.006,0.365-0.008,0.732-0.006,1.098c-0.01,0-0.08,0.004-0.213,0.01c-0.084-0.002-0.143,0.027-0.178,0.086       c0.051-0.008,0.098-0.014,0.137-0.01c0.184,0.002,0.328,0.131,0.432,0.387c0.105,0.258,0.193,0.387,0.27,0.389       c0.084,0,0.195-0.076,0.34-0.234c0.246-0.262,0.375-0.623,0.381-1.08c0.006-0.227-0.02-0.469-0.072-0.727       c-0.061,0.029-0.092,0.113-0.092,0.246c-0.135,0-0.219,0.027-0.252,0.084c-0.059-0.018-0.082-0.064-0.074-0.139       c0.01-0.107,0.016-0.166,0.016-0.174c0.102-0.033,0.15-0.078,0.152-0.135c0-0.025-0.018-0.072-0.055-0.141       c-0.035-0.066-0.053-0.121-0.053-0.164c0.002-0.031,0.012-0.066,0.027-0.1l0.059-0.486c0.182,0.055,0.578,0.076,1.186,0.072       c-0.018,0.041,0.008,0.094,0.074,0.162c0.057-0.059,0.119-0.086,0.188-0.084c0.049,0.002,0.125,0.023,0.223,0.066       C57.246,225.375,57.316,225.398,57.359,225.398z"/>
					<path fill="#010101" d="M62.023,229.707c-0.115-0.053-0.24-0.078-0.373-0.082c-0.117-0.002-0.275,0.021-0.477,0.068       c-0.225,0.045-0.381,0.072-0.463,0.078c-0.09-0.176-0.152-0.42-0.188-0.729c-0.068-0.451-0.109-0.707-0.127-0.766       c0.027-0.051,0.041-0.092,0.041-0.123c0.002-0.092-0.07-0.176-0.215-0.25c-0.145-0.072-0.217-0.131-0.217-0.172       c0.002-0.049,0.086-0.121,0.254-0.221c-0.039-0.049-0.07-0.154-0.088-0.307c-0.018-0.156-0.057-0.258-0.113-0.311       c-0.102,0.09-0.268,0.148-0.496,0.174c-0.23,0.025-0.383,0.062-0.459,0.111c0.006,0.65-0.102,1.088-0.32,1.309       c-0.117-0.027-0.207,0.018-0.266,0.133c-0.088,0.141-0.16,0.223-0.217,0.248l0.072,0.088c-0.068,0.057-0.178,0.08-0.326,0.068       c-0.232-0.012-0.357-0.018-0.375-0.018l-0.07-0.229l0.814-6.754c0.008-0.424,0.029-0.713,0.064-0.863       c-0.012-0.375,0.076-0.607,0.262-0.695c0.115,0.076,0.26,0.117,0.436,0.121c0.141,0,0.363-0.027,0.664-0.09       s0.51-0.092,0.627-0.09c0.408,0.008,0.586,0.301,0.535,0.885c-0.041,0.467,0.031,1.08,0.217,1.844       c0.195,0.822,0.289,1.436,0.283,1.846c-0.002,0.123,0.039,0.383,0.027,0.508c-0.176,0.096-0.402,0.154-0.678,0.176       c-0.24,0.014-0.486,0.025-0.738,0.037c-0.064-0.635-0.176-1.4-0.24-2.025c-0.078-0.752-0.176-1.371-0.295-1.857l-0.385,3.57       c-0.029,0.309,0.111,0.467,0.418,0.471c0.102,0.002,0.195-0.02,0.289-0.07c0.076-0.021,0.178,0.033,0.311,0.17       c-0.006,0.258,0.047,0.412,0.154,0.463c0.135-0.088,0.311-0.172,0.527-0.254c0.193-0.07,0.383-0.137,0.568-0.201       c0.104,0.145,0.172,0.355,0.201,0.641c0.035,0.402,0.061,0.637,0.074,0.701c0.016,0.16,0.08,0.504,0.195,1.031       c0.084,0.418,0.125,0.756,0.121,1.016C62.053,229.482,62.041,229.598,62.023,229.707z"/>
					<path fill="#010101" d="M67.779,223.748c-0.008,0.025-0.012,0.172-0.008,0.438c-0.004,0.217-0.031,0.381-0.082,0.486       c-0.062,0.166-0.096,0.404-0.1,0.711c-0.002,0.068,0,0.172,0.008,0.314c-0.004,0.143-0.006,0.246-0.006,0.312       c-0.01,0.525-0.1,0.906-0.271,1.146c0.016,0.135,0.021,0.268,0.02,0.4c-0.006,0.416-0.148,0.979-0.43,1.684       c-0.074,0.023-0.137,0.035-0.188,0.033c-0.102-0.002-0.172-0.059-0.217-0.174c-0.043-0.111-0.084-0.221-0.123-0.32       c0.025-0.641,0.012-1.576-0.043-2.803l0.078-0.074c-0.055-0.217-0.078-0.459-0.076-0.727c0.004-0.193,0.027-0.471,0.07-0.836       c0.045-0.369,0.068-0.643,0.07-0.826c0.002-0.117,0-0.229-0.006-0.338c-0.287,0.688-0.49,1.852-0.607,3.492l-0.107,0.248       c-0.033,0.084-0.105,0.129-0.213,0.135c-0.033-0.057-0.066-0.088-0.098-0.088c-0.027-0.002-0.072,0.029-0.135,0.092       c-0.064,0.059-0.117,0.086-0.156,0.078l-0.166,0.146c0.074,0.094,0.23,0.105,0.477,0.033c0.189-0.055,0.289,0.018,0.295,0.217       c0.004,0.168-0.041,0.393-0.137,0.674c-0.096,0.283-0.146,0.494-0.148,0.637c-0.002,0.102,0.008,0.201,0.033,0.301       l-0.865,0.135c-0.082-0.168-0.141-0.451-0.18-0.848s-0.1-0.68-0.18-0.846c0.051-0.059,0.076-0.119,0.078-0.189       c0-0.057-0.021-0.145-0.07-0.262c-0.049-0.119-0.076-0.207-0.084-0.266c-0.006-0.09-0.035-0.314-0.088-0.664       c-0.037-0.283-0.055-0.506-0.051-0.664c0-0.084,0.008-0.158,0.016-0.225c0.002-0.059-0.033-0.145-0.096-0.258       c-0.064-0.115-0.096-0.197-0.096-0.246c0.002-0.043,0.018-0.08,0.051-0.111c-0.057-0.068-0.08-0.186-0.068-0.352       c0.012-0.168-0.012-0.285-0.068-0.35c-0.123,0.32-0.188,0.758-0.197,1.307c-0.004,0.768-0.012,1.211-0.021,1.328l0.084,0.076       l-0.088,0.072c0.061,0.303,0.088,0.686,0.08,1.152c-0.021,0.844-0.033,1.236-0.031,1.178c-0.119,0.105-0.281,0.158-0.49,0.152       c-0.26-0.002-0.434,0.02-0.527,0.066c-0.105-0.186-0.156-0.422-0.15-0.715c0.004-0.225,0.043-0.5,0.115-0.824       c-0.115-0.211-0.168-0.504-0.16-0.879c0-0.092,0.012-0.266,0.033-0.523c0.012-0.207,0.014-0.363,0.01-0.463       c0.082-0.041,0.125-0.086,0.125-0.135c0.002-0.035-0.023-0.092-0.078-0.172c-0.053-0.08-0.08-0.141-0.078-0.182       c0.002-0.053,0.035-0.1,0.104-0.15l-0.27-4.045c0.16-0.107,0.418-0.156,0.777-0.15c0.391,0.016,0.658-0.004,0.801-0.061       c0.025-0.016,0.055-0.023,0.088-0.023c0.035,0,0.074,0.02,0.119,0.059c0.045,0.037,0.074,0.059,0.092,0.059       c0.033,0,0.062-0.027,0.09-0.076l0.232,0.23c0.078,0.293,0.152,0.861,0.221,1.705c0.072,0.727,0.182,1.275,0.336,1.646       c0.205-0.74,0.371-1.359,0.506-1.857l0.271-1.98l1.939-0.041c0.006,0.107,0.029,0.688,0.082,1.023       c0.045,0.291,0.064,0.529,0.062,0.713c-0.004,0.209-0.035,0.395-0.098,0.561c0.064,0.096,0.098,0.211,0.094,0.352       C67.883,223.543,67.848,223.658,67.779,223.748z"/>
					<path fill="#010101" d="M71.756,228.133v-0.012c-0.053,0.105-0.084,0.232-0.094,0.373c-0.01,0.092-0.014,0.221-0.008,0.387       c0.004,0.191,0.008,0.326,0.006,0.402c-0.066-0.002-0.332-0.006-0.799-0.014c-0.283-0.006-0.537,0.018-0.764,0.074       l-0.232-0.254c-0.07,0.064-0.096,0.117-0.08,0.16c-0.039-0.008-0.232-0.012-0.574-0.008c-0.268-0.006-0.467-0.035-0.598-0.088       c-0.137,0.141-0.295,0.139-0.477-0.008c-0.064-0.051-0.072-0.137-0.021-0.256c0.055-0.121,0.039-0.211-0.043-0.27       c0.012-0.268,0.049-0.68,0.107-1.236c0.059-0.5,0.09-0.893,0.096-1.176c0.006-0.383-0.021-0.752-0.082-1.102       c0.094-0.09,0.197-0.135,0.314-0.133c0.135,0,0.291,0.068,0.473,0.197c0.254,0.176,0.387,0.268,0.395,0.268l0.072,0.088       c0.01-0.023,0.055-0.156,0.135-0.398c0.043-0.156,0.107-0.26,0.191-0.309l0.074,0.076c0.035-0.014,0.143-0.094,0.33-0.23       c0.141-0.1,0.258-0.33,0.342-0.328c0.092,0.002,0.178,0.053,0.26,0.154c0.141,0.076,0.229,0.377,0.271,0.531       c0.045,0.156,0.086,0.309,0.125,0.459c-0.377,0.012-0.686,0-0.926-0.029c-0.059,0.092-0.143,0.105-0.25,0.041       s-0.186-0.055-0.236,0.025c-0.004,0.152-0.008,0.424-0.016,0.814c-0.014,0.35-0.02,0.625-0.014,0.826       c0.004,0.309,0.023,0.592,0.061,0.852c0.066,0,0.383,0.006,0.949,0.016C71.137,228.035,71.473,228.07,71.756,228.133z        M71.783,222.139c-0.076,0.008-0.16,0.01-0.252,0.01c-0.189-0.004-0.445-0.033-0.762-0.09       c-0.389-0.055-0.627-0.088-0.709-0.098c-0.121,0.172-0.182,0.418-0.188,0.734c-0.012,0.684-0.012,0.98-0.002,0.889       c0.115,0.066,0.172,0.193,0.168,0.377c-0.014,0.252-0.016,0.381-0.008,0.389c-0.059,0.023-0.088,0.107-0.092,0.248       c-0.09-0.033-0.184-0.104-0.283-0.205c-0.131-0.127-0.201,0.305-0.191,0.197l-0.08,0.258l-0.072-0.076       c-0.068,0.006-0.182-0.029-0.342-0.107c-0.162-0.078-0.275-0.148-0.34-0.219c0.002-0.133,0.023-0.207,0.064-0.223l-0.158-0.178       l-0.078,0.111c-0.092-0.869-0.07-2.496,0.047-3.412c0.316,0.057,0.664,0.092,1.049,0.107c0.256,0.012,0.617,0.018,1.086,0.018       c0.533,0,0.918,0.002,1.15,0.008c0.098,0.092,0.146,0.213,0.143,0.363c0,0.094-0.025,0.24-0.076,0.445       C71.809,221.889,71.785,222.039,71.783,222.139z"/>
				</g>
				<g>
					<path fill="#010101" d="M57.734,235.697v-0.006c0,0.006-0.02,0.188-0.064,0.553c-0.021,0.223-0.074,0.398-0.162,0.525       l-0.055-0.043c-0.102,0.211-0.238,0.342-0.412,0.387c-0.084,0.088-0.205,0.137-0.361,0.146       c-0.094,0.006-0.309-0.021-0.648-0.082c-0.164-0.102-0.252-0.158-0.268-0.168c-0.104-0.078-0.152-0.156-0.146-0.236       c-0.1-0.102-0.24-0.283-0.293-0.51c-0.064-0.25-0.102-0.264-0.16-0.352c-0.096,0.068-0.129-0.078-0.184-0.168l0.049-0.037       c-0.031-0.021-0.047-0.047-0.049-0.074c-0.002-0.021,0.008-0.051,0.023-0.09c0.02-0.037,0.027-0.066,0.027-0.088       c-0.002-0.029-0.021-0.057-0.057-0.078c0.037-0.197,0.072-0.494,0.104-0.887c0.066-0.037,0.098-0.107,0.096-0.209       c-0.006-0.104,0.01-0.172,0.041-0.205c0.16-0.32,0.418-0.535,0.777-0.646c0.018,0.002,0.115,0,0.289-0.004       c0.117-0.004,0.205,0.006,0.266,0.031c0.107-0.02,0.215,0.006,0.322,0.076c0.094,0.07,0.186,0.139,0.279,0.211       c0.174,0.188,0.266,0.402,0.281,0.639c0.004,0.078-0.002,0.162-0.016,0.25c-0.127-0.004-0.219,0.08-0.273,0.254l-0.5,0.049       c-0.053-0.078-0.086-0.18-0.092-0.307c-0.004-0.043-0.002-0.107,0-0.189c0.002-0.084,0.004-0.146,0-0.191       c-0.008-0.129-0.039-0.232-0.092-0.311l-0.148,0.086c-0.062-0.023-0.094-0.059-0.096-0.105c-0.002-0.016,0-0.041,0.006-0.068       c0.006-0.033,0.01-0.053,0.01-0.064c-0.004-0.051-0.051-0.082-0.141-0.096c-0.059,0.566-0.078,1.145-0.055,1.736       c0.016,0.02,0.064,0.033,0.143,0.043c0.064,0.006,0.098,0.027,0.1,0.057c0,0.014-0.002,0.029-0.012,0.049l-0.049,0.039       c0.027,0.041,0.043,0.102,0.047,0.176c0.002,0.039,0.002,0.1-0.004,0.182s-0.006,0.143-0.004,0.182       c0.008,0.119,0.037,0.209,0.09,0.27c-0.008,0.088,0.029,0.146,0.105,0.178c0.049-0.018,0.092-0.027,0.131-0.031       c0.152-0.01,0.258,0.074,0.318,0.25c0,0.004,0,0.033-0.002,0.09c0.002,0.031,0.018,0.051,0.047,0.061       c0.066-0.039,0.1-0.111,0.1-0.213c-0.002-0.119,0.012-0.195,0.045-0.229c-0.008-0.055-0.041-0.135-0.1-0.238       c-0.057-0.104-0.088-0.184-0.09-0.246c-0.006-0.062,0.014-0.121,0.055-0.18c-0.035-0.012-0.051-0.033-0.049-0.07       c0.004-0.057,0.004-0.086,0.004-0.088C57.18,235.637,57.455,235.635,57.734,235.697z"/>
					<path fill="#010101" d="M59.998,236.162H59.99c-0.029,0.057-0.039,0.139-0.029,0.246c0.014,0.15,0.021,0.227,0.021,0.23       c-0.021,0.01-0.053-0.002-0.09-0.033c-0.059,0.021-0.086,0.059-0.084,0.109c0,0.008,0.004,0.021,0.01,0.039       c0,0.021,0.002,0.037,0.002,0.045c0.002,0.039-0.01,0.068-0.035,0.09c-0.066-0.037-0.154-0.059-0.262-0.07       c-0.109-0.01-0.213-0.02-0.309-0.029c-0.002-0.502-0.068-0.992-0.203-1.473c0,0.004-0.002-0.045-0.008-0.148       c0-0.074-0.016-0.127-0.049-0.158l-0.047,0.041c0-0.006,0.014-0.021,0.045-0.043s0.047-0.045,0.045-0.066       c0-0.012-0.004-0.023-0.01-0.033l-0.051-0.035c-0.084,0.027-0.123,0.096-0.117,0.205c0.004,0.074-0.025,0.127-0.086,0.156       c0.021,0.018,0.035,0.037,0.037,0.064c0.002,0.014-0.002,0.035-0.006,0.061c-0.008,0.025-0.01,0.047-0.008,0.062       c0.002,0.031,0.02,0.059,0.053,0.078c0,0.023,0.012,0.221,0.035,0.596c0.014,0.24,0.006,0.443-0.02,0.609l0.004,0.096       c-0.031-0.002-0.068-0.002-0.109,0c-0.047,0.002-0.111,0.01-0.199,0.02c-0.084,0.012-0.148,0.018-0.191,0.02       c-0.168,0.01-0.287-0.02-0.354-0.084l-0.072-2.062c-0.033-0.1-0.055-0.24-0.066-0.42l-0.021-0.398       c-0.016-0.195-0.041-0.346-0.076-0.449c0.016-0.072,0.078-0.111,0.188-0.115c0.066-0.006,0.158,0.004,0.275,0.025       c0.055-0.023,0.129-0.039,0.225-0.045c0.029-0.002,0.07-0.002,0.131-0.002c0.062-0.004,0.109-0.006,0.137-0.008       c0.178-0.01,0.297-0.064,0.355-0.164c0.082-0.002,0.172,0.023,0.268,0.076c0.098,0.055,0.184,0.084,0.256,0.086       c0.195,0.113,0.301,0.303,0.314,0.57c0.006,0.059-0.018,0.291-0.068,0.701l-0.334,0.289c0.057,0.105,0.125,0.332,0.205,0.682       C59.76,235.812,59.861,236.025,59.998,236.162z M59.381,233.816l0.006,0.006c0.006,0.025,0.004-0.066-0.01-0.27       c-0.006-0.1-0.041-0.172-0.107-0.217c-0.039,0.055,0.004,0.08-0.016,0.203c-0.016,0.125-0.09,0.09-0.133,0.145       c-0.113,0-0.139,0.07-0.166-0.039c-0.051-0.18-0.094-0.162-0.096-0.166l-0.049,0.029c-0.018,0.014-0.037,0.031-0.057,0.053       c-0.023,0.02-0.045,0.025-0.068,0.021c0,0.021-0.01,0.055-0.031,0.104c-0.023,0.047-0.035,0.078-0.033,0.098       c0.002,0.033,0.027,0.057,0.08,0.074c-0.008,0.072-0.012,0.152-0.008,0.232c0.004,0.043,0.014,0.145,0.033,0.303       c0.02,0.123,0.027,0.23,0.023,0.318c0.043,0.002,0.08,0.002,0.117,0c0.16-0.01,0.264-0.074,0.312-0.191       c0.016-0.033,0.035-0.156,0.055-0.367C59.252,233.994,59.299,233.881,59.381,233.816z"/>
					<path fill="#010101" d="M62.592,236.963c-0.066-0.02-0.135-0.025-0.209-0.021c-0.062,0.004-0.148,0.02-0.256,0.047       c-0.125,0.031-0.207,0.049-0.252,0.055c-0.057-0.074-0.1-0.18-0.129-0.312c-0.055-0.197-0.084-0.309-0.096-0.334       c0.014-0.021,0.02-0.041,0.018-0.057c-0.002-0.041-0.045-0.072-0.125-0.1c-0.084-0.027-0.123-0.051-0.123-0.068       c-0.002-0.021,0.039-0.059,0.129-0.107c-0.023-0.021-0.043-0.064-0.059-0.131c-0.016-0.068-0.039-0.111-0.072-0.133       c-0.053,0.045-0.143,0.078-0.266,0.096c-0.125,0.02-0.207,0.043-0.25,0.068c0.027,0.285,0,0.789-0.111,0.895       c-0.064-0.008-0.111,0.016-0.141,0.07c-0.041,0.062-0.078,0.104-0.109,0.117l0.043,0.035c-0.035,0.029-0.094,0.043-0.176,0.045       c-0.129,0.002-0.197,0.004-0.205,0.004l-0.047-0.098l0.191-3.312c-0.01-0.188-0.008-0.314,0.004-0.383       c-0.018-0.164,0.023-0.271,0.121-0.318c0.066,0.031,0.146,0.043,0.242,0.037c0.078-0.004,0.197-0.025,0.361-0.064       c0.162-0.039,0.275-0.061,0.34-0.064c0.223-0.014,0.33,0.109,0.322,0.369c-0.006,0.205,0.055,0.475,0.186,0.803       c0.135,0.354,0.207,0.621,0.217,0.801c0.004,0.055,0.076,0.172,0.076,0.229c-0.094,0.051-0.217,0.084-0.365,0.104       c-0.133,0.016-0.266,0.031-0.404,0.045c-0.055-0.277-0.186-0.613-0.242-0.887c-0.07-0.328-0.146-0.596-0.227-0.809l-0.086,1.59       c-0.006,0.137,0.076,0.201,0.246,0.191c0.055-0.002,0.105-0.018,0.154-0.043c0.041-0.014,0.1,0.008,0.176,0.062       c0.006,0.115,0.041,0.182,0.102,0.199c0.07-0.045,0.164-0.09,0.281-0.133c0.104-0.039,0.203-0.076,0.303-0.111       c0.062,0.061,0.105,0.15,0.133,0.275c0.031,0.174,0.055,0.275,0.066,0.305c0.012,0.07,0.059,0.219,0.141,0.447       c0.062,0.18,0.096,0.328,0.104,0.441C62.598,236.861,62.598,236.914,62.592,236.963z"/>
					<path fill="#010101" d="M64.482,233.203h0.008c-0.055,0.08-0.125,0.096-0.209,0.045c-0.02-0.002-0.102,0.002-0.248,0.016       c-0.121,0.006-0.213,0-0.268-0.018c-0.016,0-0.043,0.014-0.08,0.039c-0.041,0.027-0.07,0.041-0.09,0.043       c-0.025,0-0.041-0.023-0.045-0.072c0-0.006-0.002-0.037-0.004-0.092c-0.002-0.037-0.02-0.062-0.053-0.074l-0.086,0.066       c-0.027,0.018-0.039,0.039-0.037,0.062c0,0.018,0.016,0.043,0.045,0.076s0.047,0.059,0.053,0.072       c0,0.012,0.01,0.178,0.029,0.498c0.006,0.201,0.043,0.363,0.111,0.484c0.016-0.02,0.057-0.029,0.123-0.029       c0.068-0.004,0.111-0.018,0.133-0.045c0.043,0.037,0.115,0.041,0.217,0.008c0.102-0.035,0.174-0.025,0.219,0.033l-0.014,0.488       c-0.041-0.006-0.104-0.025-0.182-0.061c-0.023,0.07-0.068,0.115-0.137,0.133c-0.027,0.01-0.104,0.018-0.232,0.025       c0.004-0.021-0.016-0.045-0.061-0.068c-0.123,0.059-0.17,0.201-0.139,0.424c0.002-0.023,0.008,0.016,0.014,0.115       c0.004,0.061-0.01,0.107-0.039,0.135c-0.08,0.012-0.178-0.006-0.297-0.053c-0.119-0.045-0.205-0.066-0.254-0.064       c-0.021,0-0.045,0.004-0.062,0.008l-0.129,0.041l-0.203-2.229l-0.023-0.428c0.168-0.055,0.381-0.092,0.631-0.107       c0.197-0.01,0.455-0.01,0.771,0.006c0.02-0.043,0.057,0.012,0.104,0.01c0.023,0,0.057,0.002,0.104,0.008s0.08,0.01,0.104,0.008       c0.027-0.002,0.053-0.006,0.074-0.016l0.033-0.033c0.092,0.025,0.141,0.076,0.146,0.145c0,0.029-0.01,0.082-0.027,0.15       c-0.018,0.072-0.027,0.127-0.025,0.164C64.461,233.148,64.469,233.178,64.482,233.203z M63.684,236.924       c-0.051,0.025-0.125,0.041-0.225,0.047c-0.135,0.008-0.213,0.014-0.242,0.02c-0.014-0.014-0.029-0.002-0.059-0.119       c-0.02-0.076-0.068-0.113-0.145-0.105c-0.02,0-0.041,0-0.07,0.008l-0.123,0.008l-0.064-1.129       c0.068-0.033,0.15-0.055,0.25-0.059c0.098-0.006,0.182,0.004,0.256,0.027c-0.002,0.041,0.057,0.059,0.176,0.051l0.129-0.008       C63.646,235.982,63.693,236.555,63.684,236.924z"/>
					<path fill="#010101" d="M67.225,233.301l0.006,0.004c-0.064-0.004-0.271,0.01-0.43,0.031c-0.137,0.016-0.24,0.018-0.309,0.006       c-0.066,0.045-0.09,0.105-0.072,0.182l0.041,0.025c-0.033,0.033-0.047,0.055-0.035,0.074l0.035,0.037       c-0.008,0.652-0.01,1.014-0.004,1.086c0.01,0.172,0.029,0.324,0.059,0.455c-0.025,0.084-0.037,0.178-0.031,0.285       c0.006,0.068,0.021,0.18,0.051,0.33c0.029,0.152,0.068,0.65,0.074,0.729c0.002,0.059,0.002,0.113-0.006,0.166       c-0.062,0.025-0.129,0.039-0.201,0.045c-0.125,0.006-0.258-0.018-0.398-0.078c-0.018,0.016-0.035,0.035-0.059,0.053       c-0.021,0.018-0.027,0.035-0.018,0.059c-0.045,0.014-0.107-0.004-0.189-0.057c-0.041-0.662-0.16-2.012-0.336-3.375       c-0.061,0.057-0.176,0.01-0.293,0.025c-0.141,0.016-0.279-0.008-0.334,0.018c-0.066-0.072-0.053-0.094-0.059-0.217       c-0.008-0.117-0.045-0.406-0.016-0.527c0.008-0.025,0.262-0.012,0.414-0.025c0.203-0.01,0.25,0.037,0.264,0.037       c0.016-0.027,0.117-0.014,0.189-0.02c0.047,0.025,0.098-0.02,0.1,0.014c0.002,0.021,0,0.16-0.016,0.201       c-0.016,0.039-0.023,0.068-0.021,0.088c0.002,0.043,0.033-0.021,0.107,0.006c0.084-0.004,0.168-0.006,0.254-0.01       c0.098,0.008,0.209-0.027,0.201,0.055c0.016-0.023,0.025,0.018,0.164-0.039c0.104-0.047,0.166-0.168,0.145-0.25       c-0.01-0.045,0.053-0.074,0.014-0.055c0.049-0.027,0.004-0.008,0.059-0.027c0.17,0.016,0.264-0.002,0.297-0.004       c0.068-0.006,0.238,0.039,0.287,0.014c0.035,0.064,0.055,0.268,0.057,0.379C67.219,233.193,67.223,233.289,67.225,233.301z"/>
					<path fill="#010101" d="M69.445,235.604l-0.002-0.006c-0.023,0.049-0.037,0.105-0.039,0.168       c-0.002,0.041,0.002,0.098,0.01,0.172c0.01,0.084,0.016,0.143,0.018,0.176c-0.037,0.002-0.184,0.01-0.438,0.027       c-0.156,0.008-0.295,0.027-0.416,0.062l-0.137-0.105c-0.035,0.033-0.047,0.059-0.035,0.076       c-0.025-0.004-0.129,0.004-0.318,0.018c-0.145,0.01-0.254,0.004-0.33-0.014c-0.068,0.066-0.156,0.072-0.258,0.016       c-0.039-0.02-0.045-0.059-0.021-0.113c0.023-0.057,0.012-0.094-0.035-0.117c-0.002-0.117,0.002-0.301,0.018-0.549       c0.014-0.223,0.018-0.396,0.01-0.523c-0.01-0.168-0.037-0.328-0.082-0.48c0.047-0.045,0.102-0.066,0.166-0.07       c0.072-0.004,0.162,0.018,0.268,0.066c0.145,0.07,0.221,0.104,0.225,0.104l0.043,0.037c0.004-0.01,0.023-0.072,0.059-0.182       c0.02-0.07,0.051-0.117,0.094-0.143l0.045,0.031c0.018-0.008,0.074-0.047,0.172-0.115c0.074-0.049,0.127-0.229,0.174-0.23       c0.047-0.006,0.098,0.016,0.145,0.057c0.08,0.029,0.145,0.23,0.172,0.297c0.029,0.066,0.057,0.131,0.084,0.195       c-0.205,0.02-0.373,0.029-0.508,0.025c-0.029,0.043-0.074,0.053-0.135,0.027s-0.104-0.018-0.131,0.021       c0.006,0.066,0.012,0.186,0.021,0.359c0.006,0.154,0.012,0.275,0.021,0.363c0.012,0.135,0.033,0.26,0.062,0.373       c0.037-0.002,0.213-0.012,0.521-0.029C69.102,235.584,69.287,235.586,69.445,235.604z M69.23,233.008       c-0.039,0.004-0.086,0.012-0.137,0.012c-0.104,0.008-0.244,0.004-0.418-0.01c-0.217-0.008-0.348-0.014-0.395-0.016       c-0.057,0.082-0.066,0.148-0.057,0.289c0.016,0.299,0.027,0.432,0.027,0.389c0.066,0.027,0.102,0.082,0.107,0.162       c0,0.111,0.004,0.166,0.01,0.17c-0.033,0.014-0.045,0.053-0.043,0.115c-0.049-0.014-0.105-0.039-0.162-0.08       c-0.076-0.051-0.102,0.129-0.1,0.082l-0.033,0.111l-0.043-0.031c-0.035,0.006-0.1-0.006-0.191-0.033       c-0.09-0.029-0.156-0.057-0.193-0.084c-0.004-0.057,0.004-0.09,0.027-0.1l-0.094-0.072l-0.037,0.053       c-0.082-0.381-0.137-1.049-0.105-1.457c0.176,0.014,0.379-0.018,0.59-0.025c0.141-0.006,0.34-0.016,0.596-0.035       c0.293-0.02,0.502-0.035,0.631-0.043c0.055,0.037,0.088,0.09,0.092,0.156c0,0.041-0.008,0.105-0.027,0.197       S69.23,232.963,69.23,233.008z"/>
					<path fill="#010101" d="M71.723,235.211h-0.006c-0.029,0.059-0.039,0.141-0.027,0.244c0.014,0.152,0.02,0.23,0.021,0.232       c-0.025,0.01-0.053,0-0.092-0.033c-0.061,0.023-0.088,0.061-0.084,0.111c0,0.006,0.004,0.02,0.01,0.037       c0,0.021,0.002,0.037,0.002,0.045c0.002,0.039-0.01,0.07-0.035,0.09c-0.068-0.037-0.154-0.059-0.262-0.07       c-0.107-0.01-0.211-0.021-0.309-0.031c-0.002-0.5-0.07-0.99-0.201-1.471c0,0.004-0.004-0.045-0.01-0.148       c0-0.074-0.016-0.125-0.051-0.158l-0.045,0.043c0-0.008,0.014-0.023,0.045-0.045s0.045-0.045,0.045-0.066       c0-0.012-0.004-0.021-0.008-0.033l-0.053-0.035c-0.084,0.027-0.123,0.096-0.117,0.205c0.004,0.074-0.025,0.127-0.088,0.156       c0.023,0.016,0.037,0.037,0.039,0.064c0,0.014-0.002,0.035-0.008,0.059c-0.004,0.027-0.008,0.049-0.006,0.062       c0.002,0.033,0.018,0.059,0.051,0.08c0.002,0.023,0.014,0.221,0.035,0.596c0.016,0.24,0.01,0.443-0.018,0.609l0.004,0.096       c-0.031-0.002-0.068-0.002-0.109,0.002c-0.047,0.002-0.111,0.008-0.199,0.018c-0.084,0.01-0.148,0.018-0.191,0.02       c-0.166,0.01-0.287-0.018-0.355-0.084l-0.07-2.061c-0.033-0.102-0.057-0.244-0.066-0.424l-0.023-0.396       c-0.016-0.193-0.039-0.346-0.074-0.449c0.016-0.07,0.078-0.111,0.186-0.117c0.07-0.004,0.162,0.006,0.277,0.029       c0.053-0.027,0.129-0.041,0.225-0.047c0.027,0,0.072-0.002,0.129-0.002c0.064-0.004,0.111-0.006,0.139-0.008       c0.178-0.01,0.297-0.066,0.355-0.164c0.082,0,0.172,0.023,0.268,0.076c0.098,0.055,0.184,0.082,0.258,0.086       c0.193,0.113,0.299,0.303,0.312,0.57c0.004,0.059-0.02,0.293-0.068,0.701l-0.334,0.289c0.057,0.105,0.125,0.332,0.205,0.682       C71.484,234.861,71.588,235.074,71.723,235.211z M71.105,232.865l0.008,0.006c0.006,0.025,0.002-0.064-0.008-0.27       c-0.008-0.102-0.045-0.172-0.109-0.217c-0.037,0.055-0.045-0.072-0.062,0.055c-0.018,0.125-0.049,0.213-0.09,0.268       c-0.117,0-0.143-0.068-0.211-0.166c-0.043-0.061-0.062-0.008-0.062-0.01l-0.033,0.025c-0.018,0.014-0.037,0.033-0.057,0.053       c-0.023,0.02-0.045,0.025-0.07,0.021c0.004,0.02-0.008,0.055-0.029,0.104c-0.023,0.047-0.035,0.078-0.033,0.098       c0.002,0.033,0.029,0.057,0.08,0.072c-0.01,0.076-0.012,0.152-0.008,0.234c0.004,0.045,0.014,0.145,0.033,0.303       c0.02,0.123,0.027,0.23,0.025,0.32c0.041,0,0.078,0,0.115-0.002c0.16-0.01,0.264-0.072,0.312-0.189       c0.016-0.033,0.035-0.158,0.055-0.369C70.979,233.039,71.027,232.93,71.105,232.865z"/>
				</g>
				<g>
					<path fill="#010101" d="M49.004,225.705v0.004c-0.021,0.191-0.027,0.324-0.02,0.396c-0.031,0.012-0.068,0.016-0.115,0.008       c-0.062-0.012-0.098-0.016-0.107-0.016c-0.025,0-0.047,0.01-0.062,0.027c-0.037-0.023-0.064-0.033-0.076-0.029       c-0.037,0.02-0.053,0.051-0.051,0.092c0,0.018,0.008,0.045,0.02,0.086s0.018,0.072,0.02,0.092c0,0.027-0.004,0.068-0.016,0.127       c-0.014,0.059-0.018,0.104-0.016,0.141c0,0.043,0.01,0.111,0.027,0.205c0.018,0.092,0.025,0.16,0.027,0.209       c-0.018,0.09-0.025,0.184-0.021,0.273c0.006,0.115,0.039,0.268,0.094,0.459c0.01,0.002,0.02,0.004,0.031,0.002       c0.021,0,0.051-0.018,0.082-0.049c0.033-0.031,0.059-0.049,0.082-0.049c0.016,0,0.035,0.002,0.057,0.012       c0.059,0.193,0.09,0.32,0.094,0.377c0,0.027,0,0.055,0,0.084c-0.092,0.021-0.154-0.01-0.191-0.092       c0.006-0.021-0.008-0.047-0.037-0.072l-0.1,0.105c0.096,0.016,0.135,0.09,0.115,0.225c-0.008,0.027-0.029,0.041-0.062,0.043       c-0.059-0.002-0.084-0.002-0.08-0.002l-0.082-0.146l-0.035,0.043c-0.027-0.07-0.057-0.102-0.094-0.1       c-0.02,0.002-0.055,0.018-0.105,0.049c-0.051,0.035-0.092,0.051-0.125,0.053c-0.027,0.002-0.053-0.006-0.08-0.02       c-0.002-0.043-0.008-0.082-0.014-0.125c-0.008-0.045-0.029-0.072-0.068-0.082c-0.002-0.105,0.002-0.377,0.01-0.818       c0.004-0.332,0-0.604-0.012-0.811c-0.004-0.086-0.01-0.172-0.018-0.254c-0.018-0.025-0.035-0.037-0.051-0.037       c-0.014,0-0.033,0.016-0.061,0.043c-0.027,0.029-0.051,0.041-0.07,0.039c-0.002-0.033-0.018-0.088-0.045-0.162       c-0.029-0.072-0.045-0.127-0.047-0.158c-0.002-0.059,0.02-0.105,0.064-0.15l0.115,0.029c0.047-0.064,0.066-0.176,0.059-0.332       c-0.002-0.031-0.006-0.078-0.012-0.143c-0.008-0.064-0.012-0.111-0.014-0.143c-0.014-0.256,0.066-0.389,0.236-0.398       c0.062-0.002,0.141,0.008,0.23,0.035l0.111,0.029c0.008,0.043,0.016,0.088,0.018,0.133c0.004,0.064,0,0.156-0.01,0.279       c-0.008,0.123-0.01,0.211-0.008,0.268c0.004,0.092,0.02,0.172,0.047,0.244c0.027-0.002,0.068-0.016,0.125-0.043       c0.059-0.029,0.098-0.043,0.125-0.045C48.936,225.639,48.975,225.658,49.004,225.705z M48.654,226.062l-0.004-0.115       l-0.037-0.031L48.654,226.062z"/>
					<path fill="#010101" d="M50.375,225.346h0.006c-0.012,0.09-0.025,0.182-0.043,0.271c-0.016,0.104-0.045,0.186-0.086,0.244       c-0.006-0.002-0.049-0.02-0.123-0.059c-0.053-0.027-0.098-0.037-0.137-0.031c-0.031,0.195-0.047,0.461-0.051,0.797       c-0.002,0.432-0.004,0.691-0.01,0.781c-0.051-0.002-0.088,0.014-0.111,0.051c-0.025,0.035-0.051,0.072-0.07,0.109       c-0.01,0.02-0.014,0.039-0.012,0.055c0,0.027,0.021,0.055,0.068,0.078c0.043,0.023,0.066,0.051,0.068,0.082       c-0.02,0.07-0.062,0.107-0.125,0.111c-0.029,0.002-0.082-0.008-0.156-0.027c-0.072-0.02-0.125-0.029-0.156-0.027l-0.072-1.43       c0.029-0.037,0.041-0.062,0.037-0.074l-0.043-0.029c0.006-0.061,0.008-0.359,0.01-0.896c0.002-0.365,0.018-0.658,0.043-0.885       c-0.004,0,0.1-0.006,0.309-0.02c0.129-0.008,0.213,0.029,0.25,0.107c0,0.074-0.006,0.197-0.021,0.371       c-0.016,0.16-0.02,0.283-0.018,0.371c0.008,0.107,0.023,0.203,0.053,0.289C50.094,225.434,50.227,225.354,50.375,225.346z        M50.873,225.65c0.01,0.133,0.018,0.264,0.023,0.391c0.027,0.553,0.02,1.145-0.025,1.773c-0.049,0.043-0.123,0.051-0.223,0.027       s-0.172-0.014-0.215,0.029c-0.059-0.074-0.092-0.207-0.102-0.4c-0.014-0.279-0.021-0.424-0.021-0.434       c-0.012-0.701,0.057-1.268,0.205-1.699C50.688,225.383,50.807,225.486,50.873,225.65z"/>
					<path fill="#010101" d="M52.623,226.377c-0.021,0.045-0.031,0.092-0.029,0.139c0.002,0.053,0.006,0.1,0.01,0.146       c-0.008,0.041-0.018,0.08-0.035,0.123c-0.029-0.008-0.055-0.012-0.076-0.012c-0.023,0.002-0.047,0.01-0.07,0.025       c-0.025,0.018-0.045,0.025-0.057,0.025c-0.021,0.002-0.047-0.006-0.08-0.02l-0.234-0.34c0.01,0.1,0.031,0.188,0.07,0.264       c0.018,0.039,0.037,0.076,0.055,0.115c-0.135,0.023-0.213,0.029-0.23,0.012l-0.031,0.043l-0.08-0.105       c-0.064,0.074-0.078,0.188-0.045,0.338c0.043,0.16,0.045,0.277,0.008,0.35c0.051,0.074,0.109,0.107,0.182,0.105       c0.029-0.002,0.055-0.012,0.078-0.033c0.031-0.084,0.064-0.164,0.098-0.246c0.049-0.1,0.104-0.15,0.162-0.154       c0.047-0.004,0.102,0.023,0.164,0.072c0.074,0.027,0.113,0.061,0.115,0.105c0,0.027-0.016,0.07-0.051,0.129       c-0.035,0.061-0.053,0.107-0.051,0.143c0,0.01,0.002,0.023,0.006,0.033c-0.049,0.035-0.09,0.09-0.129,0.16       c-0.039,0.072-0.088,0.123-0.15,0.15c-0.053,0.051-0.105,0.08-0.15,0.082c-0.037,0-0.092-0.027-0.164-0.084       c-0.072-0.061-0.141-0.086-0.205-0.084c-0.025-0.059-0.092-0.123-0.193-0.195c-0.104-0.072-0.168-0.148-0.193-0.23       c0.002,0.006,0-0.02-0.002-0.078c-0.004-0.035-0.018-0.057-0.045-0.064l0.037-0.037c-0.051,0-0.074-0.029-0.078-0.088       c0-0.004,0-0.018,0-0.039c0-0.016,0-0.029,0-0.041c0-0.037-0.014-0.064-0.037-0.082l-0.01-0.174       c-0.006-0.09-0.023-0.154-0.055-0.193c0.033-0.213,0.064-0.424,0.098-0.635c0.055-0.248,0.135-0.373,0.24-0.379       c0.018,0,0.035,0.002,0.051,0.008c0.096-0.096,0.211-0.146,0.348-0.152c0.15-0.008,0.316,0.039,0.498,0.135       C52.502,225.846,52.588,226.102,52.623,226.377z M51.934,225.824l-0.031,0.043c-0.023,0.004-0.051-0.008-0.082-0.035       l0.004,0.113c-0.049,0.057-0.07,0.143-0.061,0.26c0.01,0.201,0.016,0.295,0.016,0.289l0.148-0.002       c0.07-0.041,0.105-0.107,0.1-0.201c-0.002-0.047-0.018-0.123-0.049-0.23C51.949,225.953,51.934,225.877,51.934,225.824z"/>
				</g>
				<g>
					<polygon fill-rule="evenodd" clip-rule="evenodd" fill="#010101" points="53.795,231.416 53.945,231.502 54.449,230.176        54.279,230.121 53.775,231.445 53.922,231.539 53.795,231.416 53.795,231.416      "/>
					<polygon fill-rule="evenodd" clip-rule="evenodd" fill="#010101" points="54.016,231.232 53.955,231.256 53.795,231.416        53.922,231.539 54.086,231.371 54.021,231.404 54.016,231.232 54.016,231.232      "/>
					<polygon fill-rule="evenodd" clip-rule="evenodd" fill="#010101" points="55.236,231.223 55.309,231.166 54.016,231.232        54.021,231.404 55.314,231.338 55.396,231.275 55.236,231.223 55.236,231.223 55.236,231.223      "/>
					<polygon fill-rule="evenodd" clip-rule="evenodd" fill="#010101" points="55.82,230.004 55.732,229.895 55.236,231.223        55.396,231.275 55.9,229.949 55.812,229.84 55.82,230.004 55.82,230.004 55.82,230.004      "/>
					<polygon fill-rule="evenodd" clip-rule="evenodd" fill="#010101" points="54.588,230.047 54.525,230.078 55.82,230.004        55.812,229.84 54.523,229.898 54.459,229.93 54.588,230.047 54.588,230.047 54.588,230.047      "/>
					<polygon fill-rule="evenodd" clip-rule="evenodd" fill="#010101" points="54.449,230.176 54.43,230.205 54.588,230.047        54.459,229.93 54.299,230.092 54.279,230.121 54.449,230.176 54.449,230.176 54.449,230.176      "/>
					<polygon fill-rule="evenodd" clip-rule="evenodd" fill="#010101" points="55.521,231.379 55.637,231.328 55.359,231.174        55.271,231.332 55.557,231.488 55.682,231.434 55.514,231.377 55.514,231.377 55.521,231.379      "/>
					<polygon fill-rule="evenodd" clip-rule="evenodd" fill="#010101" points="56.064,230.156 56.018,230.051 55.514,231.377        55.682,231.434 56.186,230.107 56.139,230.004 56.064,230.156 56.064,230.156      "/>
					<polygon fill-rule="evenodd" clip-rule="evenodd" fill="#010101" points="55.9,229.949 55.775,230.006 56.064,230.156        56.139,230.004 55.863,229.848 55.732,229.895 55.9,229.949 55.9,229.949      "/>
					<polygon fill="#010101" points="54.369,230.15 54.361,230.148 54.52,229.986 55.721,229.93 55.732,229.895 55.82,229.924        55.9,229.949 55.895,229.965 56.105,230.082 56.186,230.107 56.152,230.193 56.74,231.59 56.244,232.92 55.602,231.406        55.602,231.406 55.52,231.441 55.514,231.377 55.52,231.361 55.316,231.25 55.271,231.332 55.246,231.252 54.016,231.312        53.855,231.471      "/>
					<polygon fill-rule="evenodd" clip-rule="evenodd" fill="#010101" points="56.164,232.893 56.326,232.885 55.684,231.371        55.52,231.441 56.16,232.953 56.322,232.945 56.156,232.889 56.156,232.889 56.164,232.893      "/>
					<polygon fill-rule="evenodd" clip-rule="evenodd" fill="#010101" points="56.664,231.629 56.66,231.562 56.156,232.889        56.322,232.945 56.826,231.621 56.822,231.557 56.664,231.629 56.664,231.629      "/>
					<polygon fill-rule="evenodd" clip-rule="evenodd" fill="#010101" points="56.186,230.107 56.023,230.115 56.664,231.629        56.822,231.557 56.182,230.045 56.018,230.051 56.186,230.107 56.186,230.107      "/>
					<polygon fill-rule="evenodd" clip-rule="evenodd" fill="#FFFFFF" points="56.143,230.449 56.215,230.607 56.242,230.766        56.234,230.924 56.188,231.088 56.107,231.246 56,231.389 55.857,231.518 55.686,231.631 55.594,231.67 55.5,231.709        55.396,231.729 55.301,231.752 55.207,231.762 55.105,231.773 55.014,231.76 54.916,231.756 54.834,231.736 54.746,231.707        54.66,231.67 54.588,231.627 54.523,231.578 54.451,231.527 54.393,231.463 54.344,231.395 54.271,231.238 54.244,231.078        54.244,230.918 54.299,230.758 54.369,230.604 54.479,230.455 54.621,230.324 54.799,230.215 54.887,230.172 54.986,230.133        55.082,230.113 55.178,230.094 55.279,230.08 55.373,230.068 55.467,230.08 55.562,230.086 55.648,230.115 55.738,230.146        55.818,230.172 55.9,230.219 55.965,230.256 56.037,230.316 56.084,230.385 56.143,230.449 56.143,230.449 56.143,230.449             "/>
					<polygon fill-rule="evenodd" clip-rule="evenodd" fill="#010101" points="56.207,230.711 56.277,230.869 56.301,231.035        56.295,231.193 56.252,231.348 56.18,231.512 56.059,231.656 55.93,231.783 55.75,231.893 55.656,231.939 55.562,231.979        55.467,232 55.361,232.021 55.268,232.031 55.178,232.039 55.082,232.031 54.98,232.018 54.896,231.998 54.811,231.969        54.732,231.934 54.65,231.889 54.584,231.85 54.523,231.793 54.461,231.736 54.406,231.656 54.334,231.506 54.307,231.348        54.316,231.182 54.361,231.027 54.432,230.863 54.543,230.723 54.684,230.592 54.859,230.482 54.957,230.436 55.049,230.402        55.146,230.373 55.25,230.355 55.34,230.35 55.434,230.338 55.527,230.35 55.621,230.355 55.713,230.377 55.803,230.406        55.879,230.441 55.965,230.48 56.029,230.527 56.102,230.576 56.146,230.646 56.203,230.719 56.203,230.719 56.207,230.711             "/>
					<polygon fill-rule="evenodd" clip-rule="evenodd" fill="#FFFFFF" points="56.252,230.895 56.328,231.045 56.35,231.213        56.342,231.371 56.301,231.525 56.219,231.684 56.107,231.832 55.977,231.959 55.799,232.068 55.711,232.119 55.609,232.156        55.514,232.178 55.41,232.195 55.316,232.209 55.225,232.213 55.131,232.209 55.029,232.193 54.945,232.174 54.859,232.145        54.781,232.109 54.697,232.064 54.633,232.023 54.562,231.967 54.512,231.904 54.455,231.832 54.381,231.684 54.354,231.523        54.361,231.365 54.406,231.203 54.479,231.041 54.592,230.891 54.738,230.773 54.908,230.658 55.004,230.611 55.098,230.572        55.195,230.551 55.297,230.531 55.391,230.52 55.482,230.512 55.586,230.521 55.672,230.531 55.762,230.555 55.85,230.582        55.934,230.619 56.01,230.662 56.076,230.703 56.146,230.754 56.195,230.822 56.252,230.895 56.252,230.895      "/>
					<polygon fill-rule="evenodd" clip-rule="evenodd" fill="#010101" points="56.316,231.154 56.389,231.312 56.414,231.473        56.414,231.633 56.361,231.793 56.291,231.949 56.172,232.096 56.037,232.229 55.859,232.338 55.775,232.379 55.674,232.416        55.576,232.439 55.482,232.459 55.379,232.471 55.285,232.484 55.195,232.471 55.098,232.465 55.006,232.443 54.92,232.412        54.842,232.379 54.76,232.334 54.695,232.285 54.633,232.238 54.572,232.174 54.516,232.104 54.451,231.947 54.418,231.785        54.426,231.627 54.471,231.463 54.549,231.312 54.66,231.162 54.803,231.033 54.973,230.922 55.066,230.881 55.158,230.842        55.264,230.822 55.359,230.801 55.453,230.787 55.551,230.785 55.646,230.791 55.734,230.791 55.826,230.814 55.912,230.846        56,230.881 56.074,230.924 56.146,230.975 56.209,231.023 56.268,231.088 56.312,231.164 56.312,231.164 56.316,231.154             "/>
					<polygon fill-rule="evenodd" clip-rule="evenodd" fill="#FFFFFF" points="56.41,231.328 56.484,231.479 56.51,231.639        56.508,231.805 56.465,231.961 56.385,232.123 56.264,232.268 56.135,232.395 55.965,232.504 55.867,232.553 55.766,232.59        55.67,232.611 55.574,232.633 55.473,232.643 55.383,232.648 55.285,232.643 55.195,232.631 55.104,232.609 55.014,232.58        54.938,232.545 54.859,232.51 54.789,232.459 54.727,232.404 54.67,232.34 54.621,232.27 54.545,232.121 54.514,231.951        54.523,231.793 54.572,231.641 54.645,231.479 54.756,231.328 54.896,231.207 55.066,231.096 55.16,231.047 55.254,231.006        55.357,230.996 55.455,230.967 55.549,230.953 55.646,230.951 55.742,230.955 55.828,230.967 55.92,230.988 56.014,231.02        56.092,231.053 56.17,231.09 56.242,231.141 56.301,231.197 56.361,231.262 56.41,231.328 56.41,231.328      "/>
					<polygon fill-rule="evenodd" clip-rule="evenodd" fill="#010101" points="56.482,231.594 56.545,231.748 56.58,231.91        56.57,232.068 56.527,232.23 56.447,232.383 56.336,232.531 56.195,232.664 56.025,232.775 55.932,232.814 55.83,232.852        55.734,232.873 55.639,232.895 55.545,232.908 55.443,232.918 55.35,232.904 55.254,232.9 55.172,232.881 55.078,232.848        54.998,232.812 54.924,232.771 54.852,232.721 54.789,232.674 54.73,232.609 54.682,232.539 54.611,232.383 54.576,232.221        54.584,232.061 54.637,231.902 54.705,231.746 54.816,231.598 54.959,231.467 55.139,231.357 55.223,231.316 55.324,231.279        55.422,231.256 55.516,231.234 55.617,231.227 55.711,231.211 55.803,231.227 55.893,231.227 55.992,231.252 56.078,231.281        56.156,231.316 56.23,231.359 56.301,231.408 56.365,231.457 56.424,231.521 56.482,231.594 56.482,231.594 56.482,231.594             "/>
					<polygon fill-rule="evenodd" clip-rule="evenodd" fill="#010101" points="47.672,229.559 47.68,229.508 47.174,230.84        47.332,230.893 47.84,229.561 47.842,229.525 47.672,229.559 47.672,229.559 47.672,229.559      "/>
					<polygon fill-rule="evenodd" clip-rule="evenodd" fill="#010101" points="47.658,229.49 47.662,229.482 47.672,229.559        47.842,229.525 47.824,229.449 47.828,229.441 47.658,229.49 47.658,229.49 47.658,229.49      "/>
					<polygon fill-rule="evenodd" clip-rule="evenodd" fill="#010101" points="47.639,229.414 47.658,229.49 47.828,229.441        47.809,229.363 47.639,229.414 47.639,229.414 47.639,229.414      "/>
					<polygon fill-rule="evenodd" clip-rule="evenodd" fill="#010101" points="47.619,229.346 47.639,229.414 47.809,229.363        47.787,229.295 47.619,229.346 47.619,229.346      "/>
					<polygon fill-rule="evenodd" clip-rule="evenodd" fill="#010101" points="47.6,229.268 47.6,229.268 47.619,229.346        47.787,229.295 47.768,229.217 47.766,229.225 47.6,229.268 47.6,229.268 47.6,229.268      "/>
					<polygon fill-rule="evenodd" clip-rule="evenodd" fill="#010101" points="47.578,229.172 47.578,229.197 47.6,229.268        47.766,229.225 47.744,229.154 47.752,229.186 47.578,229.172 47.578,229.172      "/>
					<polygon fill-rule="evenodd" clip-rule="evenodd" fill="#010101" points="47.748,229.139 47.582,229.109 47.578,229.172        47.752,229.186 47.754,229.123 47.586,229.094 47.746,229.146 47.746,229.146 47.748,229.139      "/>
					<polygon fill-rule="evenodd" clip-rule="evenodd" fill="#4D494A" points="47.895,233.02 47.879,232.934 47.701,232.963        47.713,233.057 47.895,233.02 47.895,233.02 47.895,233.02      "/>
					<polygon fill-rule="evenodd" clip-rule="evenodd" fill="#010101" points="48.266,231.908 48.271,231.865 47.766,233.191        47.928,233.242 48.43,231.918 48.428,231.873 48.266,231.908 48.266,231.908 48.266,231.908      "/>
					<polygon fill-rule="evenodd" clip-rule="evenodd" fill="#010101" points="48.252,231.814 48.266,231.908 48.428,231.873        48.416,231.779 48.244,231.812 48.244,231.812 48.252,231.814      "/>
					<polygon fill-rule="evenodd" clip-rule="evenodd" fill="#010101" points="48.229,231.727 48.244,231.812 48.416,231.779        48.391,231.691 48.229,231.727 48.229,231.727 48.229,231.727      "/>
					<polygon fill-rule="evenodd" clip-rule="evenodd" fill="#010101" points="48.207,231.631 48.211,231.641 48.229,231.727        48.391,231.691 48.377,231.598 48.381,231.609 48.207,231.631 48.207,231.631 48.207,231.631      "/>
					<polygon fill-rule="evenodd" clip-rule="evenodd" fill="#010101" points="48.367,231.551 48.197,231.527 48.207,231.631        48.381,231.609 48.369,231.516 48.199,231.496 48.367,231.551 48.367,231.551      "/>
					<g>
						<polygon fill="#4D494A" points="47.174,230.576 47.094,230.6 47.174,230.576       "/>
						<polygon fill="#4D494A" points="47.258,230.854 47.26,230.846 47.303,230.85 47.332,230.893 47.258,230.869       "/>
						<polygon fill="#010101" points="47.074,230.523 47.16,230.508 47.162,230.447 47.67,229.115 47.666,229.121 47.666,229.174         47.68,229.242 47.707,229.322 47.729,229.391 47.746,229.469 47.76,229.533 47.76,229.533 47.84,229.561 47.332,230.893         47.303,230.85 47.26,230.846 47.258,230.854 47.258,230.869 47.332,230.893 47.258,230.891 47.26,230.951 47.211,230.887         47.168,230.883 47.158,230.809 47.188,230.801 47.221,230.717 47.137,230.74 47.113,230.678 47.094,230.6 47.174,230.576         47.174,230.576 47.094,230.6 47.096,230.592       "/>
					</g>
					<g>
						<polygon fill="none" points="51.199,230.889 51.199,230.889 51.271,230.725       "/>
						<polygon fill="#010101" points="47.256,230.779 50.965,230.658 51.061,230.662 51.076,230.67 51.168,230.691 51.176,230.693         51.271,230.725 51.363,230.764 51.371,230.768 51.461,230.824 51.477,230.828 51.545,230.889 51.568,230.904 51.617,230.963         51.623,230.975 51.658,231.031 51.66,231.051 51.498,231.1 51.471,231.059 51.469,231.066 51.426,231.008 51.426,231.008         51.369,230.963 51.383,230.975 51.293,230.928 51.293,230.926 51.199,230.889 51.199,230.889 51.119,230.861 51.027,230.84         51.045,230.846 50.959,230.834 50.959,230.826 47.26,230.951       "/>
						<polygon fill="#010101" points="51.492,231.102 51.498,231.1 51.508,231.115       "/>
					</g>
					<polygon fill-rule="evenodd" clip-rule="evenodd" fill="#010101" points="53.473,234.217 53.473,234.164 52.967,235.498        53.137,235.553 53.643,234.221 53.643,234.166 53.473,234.217 53.473,234.217 53.473,234.217      "/>
					<polygon fill-rule="evenodd" clip-rule="evenodd" fill="#010101" points="52.01,229.789 51.998,229.768 53.473,234.217        53.643,234.166 52.168,229.717 52.164,229.699 52.01,229.789 52.01,229.789 52.01,229.789      "/>
					<polygon fill-rule="evenodd" clip-rule="evenodd" fill="#010101" points="51.98,229.744 51.977,229.732 52.01,229.789        52.164,229.699 52.131,229.643 52.123,229.641 51.973,229.74 51.973,229.74 51.98,229.744      "/>
					<polygon fill-rule="evenodd" clip-rule="evenodd" fill="#010101" points="51.945,229.688 51.934,229.676 51.973,229.74        52.123,229.641 52.066,229.568 52.051,229.555 51.945,229.688 51.945,229.688 51.945,229.688      "/>
					<polygon fill-rule="evenodd" clip-rule="evenodd" fill="#010101" points="51.889,229.65 51.873,229.637 51.945,229.688        52.051,229.555 51.98,229.504 51.969,229.49 51.889,229.65 51.889,229.65      "/>
					<polygon fill-rule="evenodd" clip-rule="evenodd" fill="#010101" points="51.807,229.596 51.799,229.596 51.889,229.65        51.969,229.49 51.877,229.441 51.869,229.441 51.807,229.596 51.807,229.596      "/>
					<polygon fill-rule="evenodd" clip-rule="evenodd" fill="#010101" points="51.723,229.559 51.703,229.562 51.807,229.596        51.869,229.441 51.775,229.4 51.768,229.396 51.713,229.564 51.713,229.564 51.723,229.559      "/>
					<polygon fill-rule="evenodd" clip-rule="evenodd" fill="#010101" points="51.625,229.529 51.615,229.533 51.713,229.564        51.768,229.396 51.67,229.365 51.67,229.365 51.623,229.535 51.623,229.535 51.625,229.529      "/>
					<polygon fill-rule="evenodd" clip-rule="evenodd" fill="#010101" points="51.553,229.512 51.535,229.506 51.623,229.535        51.67,229.365 51.572,229.342 51.564,229.338 51.553,229.512 51.553,229.512 51.553,229.512      "/>
					<polygon fill-rule="evenodd" clip-rule="evenodd" fill="#010101" points="51.465,229.5 51.463,229.508 51.553,229.512        51.564,229.338 51.471,229.322 51.461,229.332 51.465,229.5 51.465,229.5      "/>
					<polygon fill-rule="evenodd" clip-rule="evenodd" fill="#010101" points="47.848,229.564 47.756,229.621 51.465,229.5        51.461,229.332 47.76,229.455 47.68,229.508 47.84,229.561 47.84,229.561 47.848,229.564      "/>
					<polygon fill="#4D494A" points="48.779,233.617 48.766,233.609 48.773,233.607      "/>
					<g>
						<polygon fill="#4D494A" points="50.783,234.217 50.768,234.396 50.783,234.217       "/>
						<g>
							<polygon fill="none" points="50.775,234.303 50.768,234.396 50.775,234.303        "/>
							<g>
								<polygon fill="none" points="47.77,232.859 47.775,232.846 47.777,232.863         "/>
								<path fill="#010101" d="M47.713,233.057l0.016,0.086l0.033,0.09l0.039,0.068l0.227,0.117l0.227,0.121l0.219,0.117          l0.221,0.109l0.008,0.004l0.225,0.1l0.225,0.104l0.242,0.098l0.246,0.092l0.006,0.002l0.262,0.07l0.26,0.068l0.01,0.004          l0.289,0.041l0.295,0.047l0.008,0.002l0.322,0.018l0.01-0.004l0.344,0.01l0.367-0.014l0.391-0.021l0.08-0.053l0.504-1.324          l-0.086-0.117l0.004,0.172l-0.025-0.033l0.02-0.051l-0.057,0.004l-0.023-0.031l-0.014,0.033l-0.289,0.018h-0.373          l-0.344-0.008l-0.312-0.016l-0.307-0.041l-0.287-0.049l-0.262-0.07l-0.26-0.07l-0.244-0.09l-0.238-0.09l-0.223-0.102          l-0.223-0.109l-0.229-0.109l-0.219-0.119l-0.217-0.117l-0.152-0.08l0.004-0.014l-0.078-0.027l0,0l-0.023-0.094l-0.016-0.088          l-0.006-0.029l0.061-0.129l-0.086-0.027l-0.002-0.002l0,0l-0.08-0.025l-0.506,1.324l-0.004,0.043l0.012,0.094          L47.713,233.057z M47.775,232.846l0.002,0.018l-0.008-0.004L47.775,232.846z"/>
							</g>
						</g>
					</g>
					<polygon fill-rule="evenodd" clip-rule="evenodd" fill="#010101" points="52.314,233.084 52.703,233.062 52.699,232.891        52.311,232.912 52.314,233.084 52.314,233.084 52.314,233.084      "/>
					<polygon fill-rule="evenodd" clip-rule="evenodd" fill="#010101" points="51.949,233.092 52.314,233.084 52.311,232.912        51.941,232.922 51.949,233.092 51.949,233.092 51.949,233.092      "/>
					<polygon fill-rule="evenodd" clip-rule="evenodd" fill="#010101" points="51.598,233.084 51.605,233.084 51.949,233.092        51.941,232.922 51.6,232.914 51.609,232.91 51.594,233.09 51.594,233.09 51.598,233.084      "/>
					<polygon fill-rule="evenodd" clip-rule="evenodd" fill="#010101" points="51.266,233.062 51.273,233.064 51.594,233.09        51.609,232.91 51.287,232.889 51.295,232.893 51.266,233.062 51.266,233.062 51.266,233.062      "/>
					<polygon fill-rule="evenodd" clip-rule="evenodd" fill="#010101" points="50.967,233.023 51.266,233.062 51.295,232.893        51,232.848 50.967,233.023 50.967,233.023      "/>
					<polygon fill-rule="evenodd" clip-rule="evenodd" fill="#010101" points="50.674,232.971 50.684,232.975 50.967,233.023        51,232.848 50.703,232.803 50.711,232.803 50.674,232.971 50.674,232.971 50.674,232.971      "/>
					<polygon fill-rule="evenodd" clip-rule="evenodd" fill="#010101" points="50.412,232.9 50.674,232.971 50.711,232.803        50.451,232.734 50.41,232.908 50.41,232.908 50.412,232.9      "/>
					<polygon fill-rule="evenodd" clip-rule="evenodd" fill="#010101" points="50.141,232.838 50.148,232.838 50.41,232.908        50.451,232.734 50.189,232.666 50.197,232.668 50.141,232.838 50.141,232.838      "/>
					<polygon fill-rule="evenodd" clip-rule="evenodd" fill="#010101" points="49.895,232.746 49.895,232.746 50.141,232.838        50.197,232.668 49.951,232.576 49.961,232.58 49.889,232.742 49.889,232.742 49.895,232.746      "/>
					<polygon fill-rule="evenodd" clip-rule="evenodd" fill="#010101" points="49.652,232.648 49.889,232.742 49.961,232.58        49.727,232.484 49.652,232.648 49.652,232.648      "/>
					<polygon fill-rule="evenodd" clip-rule="evenodd" fill="#010101" points="49.43,232.545 49.652,232.648 49.727,232.484        49.498,232.389 49.43,232.545 49.43,232.545      "/>
					<polygon fill-rule="evenodd" clip-rule="evenodd" fill="#010101" points="49.201,232.432 49.205,232.445 49.43,232.545        49.498,232.389 49.27,232.279 49.279,232.281 49.197,232.439 49.197,232.439 49.201,232.432      "/>
					<polygon fill-rule="evenodd" clip-rule="evenodd" fill="#010101" points="48.98,232.324 49.197,232.439 49.279,232.281        49.057,232.172 48.979,232.332 48.979,232.332 48.98,232.324      "/>
					<polygon fill-rule="evenodd" clip-rule="evenodd" fill="#010101" points="48.762,232.205 48.979,232.332 49.057,232.172        48.838,232.055 48.754,232.205 48.754,232.205 48.762,232.205      "/>
					<polygon fill-rule="evenodd" clip-rule="evenodd" fill="#010101" points="48.535,232.086 48.754,232.205 48.838,232.055        48.619,231.936 48.535,232.086 48.535,232.086      "/>
					<polygon fill-rule="evenodd" clip-rule="evenodd" fill="#010101" points="48.43,231.918 48.309,231.967 48.535,232.086        48.619,231.936 48.395,231.816 48.271,231.865 48.43,231.918 48.43,231.918 48.43,231.918      "/>
					<polygon fill-rule="evenodd" clip-rule="evenodd" fill="#010101" points="71.529,229.516 71.023,230.85 72.678,231.402        73.062,230.518 73.072,230.432 73.074,230.344 73.062,230.25 73.027,230.16 72.975,230.08 72.934,229.994 72.863,229.91        72.791,229.832 72.719,229.762 72.635,229.689 72.549,229.625 72.467,229.58 72.387,229.527 72.293,229.486 72.211,229.441        72.131,229.414 72.059,229.391 71.973,229.381 71.896,229.373 71.822,229.385 71.748,229.395 71.668,229.42 71.598,229.469        71.529,229.516 71.529,229.516 71.529,229.516      "/>
					<polygon fill-rule="evenodd" clip-rule="evenodd" fill="#010101" points="72.602,231.361 72.707,231.314 71.051,230.764        70.996,230.93 72.65,231.48 72.762,231.439 72.602,231.361 72.602,231.361      "/>
					<g>
						<polygon fill="none" points="72.922,231.742 72.932,231.832 72.922,231.742       "/>
						<polygon fill="none" points="73.775,230.852 73.836,230.908 73.77,230.863       "/>
						<g>
							<polygon fill="none" points="73.836,230.908 73.77,230.863 73.775,230.852        "/>
							<g>
								<polygon fill="none" points="73.836,230.908 73.77,230.863 73.775,230.852         "/>
								<polygon fill="#010101" points="47.074,230.443 47.082,230.42 47.586,229.094 47.746,229.146 47.258,230.455 47.248,230.51           47.246,230.492 47.074,230.523 47.072,230.504         "/>
								<g>
									<polygon fill="none" points="73.836,230.908 73.77,230.863 73.775,230.852          "/>
									<polygon fill="#4D494A" points="55.188,233.58 55.158,233.598 55.156,233.596          "/>
									<g>
										<polygon fill="none" points="55.221,233.656 55.283,233.717 55.221,233.656           "/>
										<polygon fill="none" points="73.836,230.908 73.77,230.863 73.775,230.852           "/>
										<polygon fill="none" points="53.047,235.523 53.055,235.523 53.055,235.525 52.967,235.498 53.039,235.498           "/>
										<path fill="#010101" d="M47.137,230.74l0.018,0.078l0.004-0.01l0.127-0.027l-0.031,0.086l3.709-0.121l0.088,0.002            l0.094,0.033l0.098,0.031l0.096,0.033l0.088,0.055l0.072,0.051l0.051,0.062l0.031,0.061l-0.088,0.027l1.475,4.449h0.088            l0.002,0.055h0.133l0.125-0.002l0.113,0.002l0.105-0.018l0.105-0.027l0.107-0.053l0.1-0.082l0.117-0.113v-0.008            l0.068-0.094l0.076-0.098l0.09-0.105l0.061-0.104l0.076-0.125l0.082-0.105l0.064-0.119l0.086-0.127l0.068-0.1l0.1-0.107            l0.08-0.107l0.094-0.094l0.082-0.088l0.088-0.078l0.086-0.068l0.098-0.057l0.021-0.012l-0.062-0.061l0,0l0.062,0.061            l0.1-0.107l0.09-0.086l0.08-0.078l0.086-0.072l0.082-0.061l0.088-0.051l0.076-0.045l0.088-0.043l0.094-0.02l0.094-0.041            l0.096-0.021l0.111-0.016l0.123-0.021l0.137-0.008l0.146-0.014l0.143-0.004l0.01,0.002l16.006-1.199l0.096-0.01            l0.084-0.018l0.078-0.018l0.08-0.027l0.074-0.037l0.076-0.045l0.064-0.061l0.074-0.064l0.016-0.02l0.279-0.652            l-0.145-0.094l0.064,0.062l-0.01,0.008l-0.072-0.049l-0.068,0.164L73.574,231l-0.061,0.025l-0.072,0.027l-0.066,0.014            l-0.086,0.016l-0.084,0.018l-16.016,1.193l-0.102,0.01l-0.1,0.002l-0.098,0.004l-0.104,0.016h-0.105l-0.094,0.016            l-0.102,0.01l-0.094,0.014l-0.104,0.02l-0.094,0.012l-0.094,0.021l-0.109,0.027l-0.096,0.021l-0.102,0.039l-0.102,0.035            l-0.096,0.049l-0.188,0.115l-0.193,0.176l-0.203,0.207l-0.193,0.238l-0.189,0.248l-0.162,0.221l-0.16,0.213l-0.133,0.16            l-0.078,0.018l-0.066,0.016l-0.084,0.008h-0.078h-0.08l-0.07-0.006l-0.088-0.004l-0.076-0.008l-1.469-4.438l-0.035-0.064            l-0.049-0.062l-0.07-0.049l-0.098-0.059l-0.094-0.041l-0.096-0.033l-0.092-0.021h-0.088l-3.705,0.111l-0.447,1.174v-0.016            L47.137,230.74z M73.77,230.863l0.006-0.012l0.061,0.057L73.77,230.863z"/>
									</g>
								</g>
							</g>
						</g>
					</g>
					<polygon fill-rule="evenodd" clip-rule="evenodd" fill="#010101" points="73.209,231.189 73.307,231.168 73.391,231.152        73.469,231.133 73.549,231.107 73.623,231.068 73.701,231.025 73.76,230.973 73.836,230.908 73.709,230.787 73.652,230.848        73.594,230.891 73.537,230.926 73.477,230.949 73.416,230.965 73.348,230.986 73.273,230.998 73.191,231.006 73.209,231.189        73.209,231.189      "/>
					<polygon fill-rule="evenodd" clip-rule="evenodd" fill="#010101" points="57.205,232.377 73.209,231.189 73.191,231.006        57.186,232.201 57.205,232.377 57.205,232.377      "/>
					<polygon fill-rule="evenodd" clip-rule="evenodd" fill="#010101" points="55.637,232.662 55.73,232.623 55.82,232.59        55.93,232.557 56.02,232.523 56.119,232.494 56.211,232.482 56.305,232.467 56.41,232.449 56.494,232.432 56.592,232.432        56.693,232.422 56.795,232.41 56.896,232.398 56.986,232.395 57.098,232.385 57.205,232.377 57.186,232.201 57.082,232.213        56.982,232.223 56.875,232.223 56.773,232.232 56.674,232.236 56.58,232.258 56.48,232.26 56.371,232.268 56.275,232.289        56.18,232.311 56.076,232.33 55.969,232.355 55.879,232.387 55.77,232.422 55.66,232.457 55.564,232.504 55.637,232.662        55.637,232.662 55.637,232.662      "/>
					<polygon fill-rule="evenodd" clip-rule="evenodd" fill="#010101" points="54.201,234.246 54.236,234.221 54.309,234.139        54.371,234.055 54.449,233.957 54.529,233.85 54.621,233.736 54.703,233.621 54.797,233.5 54.889,233.383 54.986,233.256        55.084,233.145 55.18,233.043 55.277,232.934 55.361,232.846 55.467,232.775 55.551,232.705 55.637,232.662 55.564,232.504        55.455,232.566 55.361,232.633 55.252,232.721 55.15,232.82 55.053,232.92 54.957,233.021 54.852,233.156 54.756,233.275        54.662,233.395 54.57,233.516 54.488,233.631 54.396,233.742 54.316,233.85 54.238,233.947 54.176,234.033 54.117,234.102        54.148,234.084 54.201,234.246 54.201,234.246 54.201,234.246      "/>
					<polygon fill="none" points="71.494,229.594 71.529,229.516 71.594,229.459 71.688,229.41 71.801,229.395 71.861,229.396        71.932,229.402 71.998,229.414 72.064,229.43 72.145,229.457 72.217,229.48 72.293,229.514 72.375,229.559 72.445,229.592        72.518,229.643 72.582,229.689 72.652,229.748 72.723,229.799 72.773,229.861 72.836,229.916 72.885,229.979 72.979,230.098        73.027,230.221 73.051,230.283 73.062,230.322 73.055,230.428 73.035,230.51 72.979,230.578 72.893,230.619 72.779,230.645        72.715,230.65 72.648,230.637 72.57,230.629 72.488,230.609 72.416,230.586 72.338,230.559 72.25,230.523 72.176,230.48        72.1,230.445 72.016,230.4 71.943,230.35 71.875,230.291 71.812,230.242 71.744,230.176 71.686,230.111 71.635,230.049        71.553,229.924 71.504,229.803 71.492,229.762 71.477,229.695      "/>
					<polygon fill-rule="evenodd" clip-rule="evenodd" fill="#FFFFFF" points="51.137,229.426 51.465,229.422 51.492,229.422        48.654,228.473 48.512,228.559 51.133,229.434 51.133,229.434 51.137,229.426      "/>
					<polygon fill-rule="evenodd" clip-rule="evenodd" fill="#FFFFFF" points="51.137,229.426 47.76,229.533 47.746,229.469        47.729,229.391 47.707,229.322 47.68,229.242 47.666,229.174 47.666,229.121 47.688,229.057 47.746,229.014 47.885,228.918        48.039,228.828 48.193,228.736 48.348,228.646 48.496,228.553 48.512,228.559 51.133,229.434 51.133,229.434 51.137,229.426             "/>
					<polygon fill="#FFFFFF" points="49.084,231.479 51.383,231.35 52.283,231.713 52.602,232.652 52.697,232.979 52.314,233.002        51.941,233.002 51.598,232.994 51.285,232.979 50.979,232.938 50.691,232.889 50.43,232.818 50.17,232.748 49.926,232.658        49.688,232.568 49.465,232.467 49.242,232.357 49.014,232.248 48.795,232.129 48.578,232.012 48.352,231.891 48.328,231.797        48.312,231.709 48.291,231.615 48.279,231.521      "/>
					<polygon fill-rule="evenodd" clip-rule="evenodd" fill="#FFFFFF" points="54.877,231.742 54.908,231.779 55.205,231.959        55.301,231.805 55.004,231.625 55.033,231.67 54.877,231.742 54.887,231.762 54.908,231.779 54.877,231.742 54.877,231.742             "/>
					<polygon fill-rule="evenodd" clip-rule="evenodd" fill="#FFFFFF" points="52.246,231.797 52.195,231.736 52.617,233.004        52.785,232.953 52.363,231.684 52.318,231.633 52.363,231.684 52.35,231.645 52.318,231.633 52.246,231.797 52.246,231.797        52.246,231.797      "/>
					<polygon fill-rule="evenodd" clip-rule="evenodd" fill="#FFFFFF" points="51.391,231.434 51.348,231.426 52.246,231.797        52.318,231.633 51.422,231.264 51.387,231.262 51.422,231.264 51.404,231.26 51.387,231.262 51.391,231.434 51.391,231.434        51.391,231.434      "/>
					<polygon fill-rule="evenodd" clip-rule="evenodd" fill="#FFFFFF" points="48.369,231.516 48.283,231.611 51.391,231.434        51.387,231.262 48.279,231.441 48.197,231.527 48.279,231.441 48.182,231.443 48.197,231.527 48.369,231.516 48.369,231.516             "/>
					<polygon fill-rule="evenodd" clip-rule="evenodd" fill="#FFFFFF" points="48.395,231.816 48.428,231.873 48.426,231.828        48.416,231.779 48.412,231.734 48.4,231.695 48.396,231.65 48.385,231.602 48.373,231.561 48.369,231.516 48.197,231.527        48.195,231.582 48.205,231.639 48.219,231.678 48.221,231.723 48.234,231.762 48.244,231.812 48.264,231.861 48.266,231.908        48.309,231.967 48.266,231.908 48.279,231.947 48.309,231.967 48.395,231.816 48.395,231.816      "/>
					<polygon fill-rule="evenodd" clip-rule="evenodd" fill="#FFFFFF" points="52.619,232.996 52.691,232.889 52.311,232.912        51.941,232.922 51.609,232.91 51.287,232.889 51,232.848 50.711,232.803 50.451,232.734 50.197,232.668 49.951,232.576        49.727,232.484 49.498,232.389 49.279,232.281 49.057,232.172 48.838,232.055 48.619,231.936 48.395,231.816 48.309,231.967        48.535,232.086 48.754,232.205 48.979,232.332 49.197,232.439 49.43,232.545 49.652,232.648 49.895,232.746 50.141,232.838        50.41,232.908 50.674,232.971 50.967,233.023 51.273,233.064 51.594,233.09 51.949,233.092 52.314,233.084 52.713,233.064        52.785,232.953 52.713,233.064 52.822,233.057 52.785,232.953 52.617,233.004 52.617,233.004 52.619,232.996      "/>
					<g>
						<polygon fill="none" points="54.227,234.125 54.291,234.188 54.227,234.125       "/>
						<polygon fill="none" points="53.637,234.102 53.621,234.102 53.621,234.102       "/>
						<polygon fill="none" points="52.191,229.787 54.523,230.566 52.191,229.787       "/>
					</g>
					<polygon fill-rule="evenodd" clip-rule="evenodd" fill="#FFFFFF" points="57.186,232.201 57.068,232.207 56.936,232.225        56.818,232.23 56.691,232.24 56.568,232.262 56.438,232.281 56.309,232.301 56.182,232.33 56.057,232.357 55.947,232.395        55.828,232.432 55.715,232.477 55.621,232.523 55.506,232.576 55.412,232.641 55.326,232.711 55.434,232.846 55.516,232.783        55.596,232.73 55.684,232.678 55.785,232.641 55.883,232.584 55.99,232.559 56.115,232.529 56.225,232.494 56.346,232.482        56.451,232.455 56.58,232.445 56.701,232.422 56.832,232.404 56.961,232.395 57.08,232.381 57.205,232.377 57.186,232.201        57.186,232.201 57.186,232.201      "/>
					<polygon fill-rule="evenodd" clip-rule="evenodd" fill="#FFFFFF" points="73.191,231.006 57.186,232.201 57.205,232.377        73.209,231.189 73.191,231.006 73.191,231.006      "/>
					<polygon fill-rule="evenodd" clip-rule="evenodd" fill="#FFFFFF" points="73.488,230.029 73.557,230.121 73.625,230.209        73.658,230.299 73.709,230.387 73.734,230.467 73.742,230.549 73.744,230.619 73.74,230.691 73.723,230.746 73.695,230.801        73.66,230.852 73.598,230.9 73.535,230.934 73.434,230.971 73.326,230.998 73.191,231.006 73.209,231.189 73.355,231.176        73.484,231.139 73.596,231.096 73.695,231.041 73.787,230.98 73.85,230.895 73.885,230.818 73.916,230.723 73.914,230.623        73.92,230.527 73.896,230.432 73.861,230.324 73.824,230.229 73.77,230.121 73.701,230.012 73.631,229.926 73.488,230.029        73.488,230.029      "/>
					<polygon fill-rule="evenodd" clip-rule="evenodd" fill="#FFFFFF" points="71.582,229.115 71.727,229.111 71.873,229.125        72.021,229.158 72.166,229.178 72.301,229.223 72.438,229.27 72.566,229.332 72.691,229.389 72.818,229.459 72.936,229.533        73.062,229.611 73.152,229.686 73.246,229.77 73.342,229.863 73.418,229.951 73.488,230.029 73.631,229.926 73.549,229.826        73.455,229.732 73.361,229.641 73.258,229.551 73.145,229.469 73.029,229.387 72.912,229.312 72.779,229.232 72.641,229.168        72.498,229.111 72.355,229.062 72.203,229.014 72.053,228.979 71.902,228.957 71.729,228.943 71.576,228.943 71.582,229.115        71.582,229.115      "/>
					<polygon fill-rule="evenodd" clip-rule="evenodd" fill="#FFFFFF" points="57.42,229.604 71.582,229.115 71.576,228.943        57.422,229.438 57.42,229.604 57.42,229.604      "/>
					<polygon fill-rule="evenodd" clip-rule="evenodd" fill="#FFFFFF" points="55.184,229.25 55.316,229.303 55.457,229.332        55.594,229.377 55.734,229.406 55.883,229.439 56.023,229.477 56.174,229.5 56.311,229.52 56.453,229.549 56.6,229.561        56.742,229.584 56.883,229.586 57.02,229.604 57.162,229.598 57.293,229.607 57.42,229.604 57.422,229.438 57.289,229.438        57.158,229.43 57.035,229.422 56.898,229.414 56.758,229.402 56.619,229.391 56.484,229.371 56.34,229.35 56.199,229.322        56.064,229.303 55.924,229.266 55.781,229.244 55.643,229.205 55.494,229.168 55.373,229.135 55.238,229.09 55.182,229.258        55.182,229.258 55.184,229.25      "/>
					<polygon fill-rule="evenodd" clip-rule="evenodd" fill="#FFFFFF" points="50.406,227.938 50.648,227.904 50.877,227.883        51.096,227.865 51.297,227.854 51.484,227.846 51.656,227.865 51.832,227.873 51.979,227.885 52.131,227.91 52.271,227.939        52.404,227.965 52.523,228.006 52.652,228.047 52.754,228.09 52.879,228.141 52.977,228.191 53.092,228.248 53.207,228.305        53.32,228.369 53.43,228.434 53.543,228.496 53.66,228.57 53.773,228.627 53.9,228.705 54.037,228.77 54.172,228.85        54.32,228.906 54.465,228.982 54.625,229.053 54.803,229.115 54.99,229.193 55.182,229.258 55.238,229.09 55.045,229.023        54.855,228.953 54.697,228.891 54.533,228.826 54.381,228.75 54.252,228.689 54.117,228.607 53.986,228.547 53.859,228.479        53.738,228.41 53.627,228.348 53.51,228.271 53.398,228.209 53.283,228.152 53.17,228.098 53.066,228.035 52.951,227.979        52.826,227.928 52.709,227.881 52.58,227.838 52.445,227.791 52.305,227.764 52.16,227.74 52.002,227.707 51.84,227.688        51.672,227.686 51.477,227.684 51.289,227.684 51.074,227.689 50.855,227.707 50.625,227.736 50.385,227.762 50.398,227.936        50.398,227.936 50.406,227.938      "/>
					<polygon fill-rule="evenodd" clip-rule="evenodd" fill="#FFFFFF" points="47.793,229.092 47.93,228.996 48.084,228.904        48.238,228.816 48.396,228.717 48.541,228.631 48.703,228.543 48.855,228.461 49.012,228.389 49.18,228.311 49.348,228.234        49.514,228.164 49.684,228.105 49.867,228.061 50.035,228.01 50.221,227.965 50.398,227.936 50.385,227.762 50.184,227.801        49.996,227.838 49.809,227.889 49.633,227.938 49.459,228.012 49.275,228.076 49.111,228.145 48.943,228.223 48.771,228.309        48.609,228.396 48.457,228.479 48.303,228.57 48.148,228.66 47.994,228.75 47.848,228.844 47.701,228.936 47.783,229.09        47.783,229.09 47.793,229.092      "/>
					<polygon fill-rule="evenodd" clip-rule="evenodd" fill="#FFFFFF" points="47.76,229.455 47.85,229.529 47.824,229.449        47.809,229.363 47.787,229.295 47.768,229.217 47.756,229.168 47.748,229.139 47.764,229.1 47.783,229.09 47.701,228.936        47.623,229.008 47.584,229.102 47.574,229.188 47.6,229.268 47.619,229.346 47.639,229.414 47.662,229.482 47.674,229.549        47.756,229.621 47.674,229.549 47.676,229.621 47.756,229.621 47.76,229.455 47.76,229.455      "/>
					<g>
						<polygon fill="none" points="54.299,230.092 54.299,230.094 54.277,230.182       "/>
						<polygon fill="#FFFFFF" points="54.301,230.084 54.299,230.094 54.299,230.092       "/>
						<polygon fill="#FFFFFF" points="54.262,230.123 54.299,230.092 54.277,230.182       "/>
						<g>
							<polygon fill="none" points="71.529,229.516 71.594,229.459 71.688,229.41 71.801,229.395 71.861,229.396 71.932,229.402          71.998,229.414 72.064,229.43 72.145,229.457 72.217,229.48 72.293,229.514 72.375,229.559 72.445,229.592 72.518,229.643          72.582,229.689 72.652,229.748 72.723,229.799 72.773,229.861 72.836,229.916 72.885,229.979 72.979,230.098 73.027,230.221          73.051,230.283 73.062,230.322 73.055,230.428 73.035,230.51 72.979,230.578 72.893,230.619 72.779,230.645 72.715,230.65          72.648,230.637 72.57,230.629 72.488,230.609 72.416,230.586 72.338,230.559 72.25,230.523 72.176,230.48 72.1,230.445          72.016,230.4 71.943,230.35 71.875,230.291 71.812,230.242 71.744,230.176 71.686,230.111 71.635,230.049 71.553,229.924          71.504,229.803 71.492,229.762 71.477,229.695 71.494,229.594        "/>
							<polygon fill="none" points="56.102,230.08 56.102,230.08 56.023,230.115        "/>
							<polygon fill="none" points="56.678,231.533 56.734,231.58 56.74,231.59 56.588,231.779 55.25,231.877 54.959,231.707          54.959,231.705 55.033,231.67 54.465,230.172 54.559,230.076 55.775,230.006 56.033,230.141 56.664,231.629        "/>
							<polygon fill="none" points="52.115,229.629 52.115,229.629 54.352,230.375        "/>
							<g>
								<polygon fill="none" points="71.529,229.516 71.594,229.459 71.688,229.41 71.801,229.395 71.861,229.396 71.932,229.402           71.998,229.414 72.064,229.43 72.145,229.457 72.217,229.48 72.293,229.514 72.375,229.559 72.445,229.592 72.518,229.643           72.582,229.689 72.652,229.748 72.723,229.799 72.773,229.861 72.836,229.916 72.885,229.979 72.979,230.098           73.027,230.221 73.051,230.283 73.062,230.322 73.055,230.428 73.035,230.51 72.979,230.578 72.893,230.619 72.779,230.645           72.715,230.65 72.648,230.637 72.57,230.629 72.488,230.609 72.416,230.586 72.338,230.559 72.25,230.523 72.176,230.48           72.1,230.445 72.016,230.4 71.943,230.35 71.875,230.291 71.812,230.242 71.744,230.176 71.686,230.111 71.635,230.049           71.553,229.924 71.504,229.803 71.492,229.762 71.477,229.695 71.494,229.594         "/>
								<polygon fill="none" points="55.775,230.006 56.033,230.141 56.664,231.629 56.678,231.533 56.734,231.58 56.74,231.59           56.588,231.779 55.25,231.877 54.959,231.707 54.959,231.705 55.033,231.67 54.465,230.172 54.559,230.076         "/>
								<polygon fill="none" points="52.115,229.629 52.115,229.629 54.352,230.375         "/>
								<g>
									<polygon fill="none" points="71.529,229.516 71.594,229.459 71.688,229.41 71.801,229.395 71.861,229.396 71.932,229.402            71.998,229.414 72.064,229.43 72.145,229.457 72.217,229.48 72.293,229.514 72.375,229.559 72.445,229.592 72.518,229.643            72.582,229.689 72.652,229.748 72.723,229.799 72.773,229.861 72.836,229.916 72.885,229.979 72.979,230.098            73.027,230.221 73.051,230.283 73.062,230.322 73.055,230.428 73.035,230.51 72.979,230.578 72.893,230.619            72.779,230.645 72.715,230.65 72.648,230.637 72.57,230.629 72.488,230.609 72.416,230.586 72.338,230.559 72.25,230.523            72.176,230.48 72.1,230.445 72.016,230.4 71.943,230.35 71.875,230.291 71.812,230.242 71.744,230.176 71.686,230.111            71.635,230.049 71.553,229.924 71.504,229.803 71.492,229.762 71.477,229.695 71.494,229.594          "/>
									<polygon fill="none" points="55.775,230.006 56.033,230.141 56.664,231.629 56.678,231.533 56.734,231.58 56.74,231.59            56.59,231.779 56.58,231.697 55.242,231.793 55.301,231.805 55.256,231.875 55.25,231.877 54.959,231.707 54.959,231.705            55.033,231.67 54.465,230.172 54.559,230.076          "/>
									<polygon fill="none" points="52.115,229.629 52.115,229.629 54.352,230.375          "/>
									<g>
										<polygon fill="none" points="56.711,231.299 59.246,232.143 56.711,231.299           "/>
										<polygon fill="none" points="56.645,231.143 59.566,232.117 56.645,231.143           "/>
										<polygon fill="none" points="71.529,229.516 71.594,229.459 71.688,229.41 71.801,229.395 71.861,229.396 71.932,229.402             71.998,229.414 72.064,229.43 72.145,229.457 72.217,229.48 72.293,229.514 72.375,229.559 72.445,229.592             72.518,229.643 72.582,229.689 72.652,229.748 72.723,229.799 72.773,229.861 72.836,229.916 72.885,229.979             72.979,230.098 73.027,230.221 73.051,230.283 73.062,230.322 73.055,230.428 73.035,230.51 72.979,230.578             72.893,230.619 72.779,230.645 72.715,230.65 72.648,230.637 72.57,230.629 72.488,230.609 72.416,230.586             72.338,230.559 72.25,230.523 72.176,230.48 72.1,230.445 72.016,230.4 71.943,230.35 71.875,230.291 71.812,230.242             71.744,230.176 71.686,230.111 71.635,230.049 71.553,229.924 71.504,229.803 71.492,229.762 71.477,229.695             71.494,229.594           "/>
										<polygon fill="none" points="55.775,230.006 56.033,230.141 56.664,231.629 56.678,231.533 56.734,231.58 56.74,231.59             56.59,231.779 56.588,231.779 55.256,231.875 55.25,231.877 54.959,231.707 54.959,231.705 55.033,231.67 54.465,230.172             54.559,230.076           "/>
										<polygon fill="none" points="52.115,229.629 52.115,229.629 54.352,230.375           "/>
										<polygon fill="#FFFFFF" points="56.645,231.143 59.566,232.117 59.25,232.137 59.246,232.143 56.711,231.299                       "/>
										<g>
											<polygon fill="none" points="71.529,229.516 71.594,229.459 71.688,229.41 71.801,229.395 71.861,229.396              71.932,229.402 71.998,229.414 72.064,229.43 72.145,229.457 72.217,229.48 72.293,229.514 72.375,229.559              72.445,229.592 72.518,229.643 72.582,229.689 72.652,229.748 72.723,229.799 72.773,229.861 72.836,229.916              72.885,229.979 72.979,230.098 73.027,230.221 73.051,230.283 73.062,230.322 73.055,230.428 73.035,230.51              72.979,230.578 72.893,230.619 72.779,230.645 72.715,230.65 72.648,230.637 72.57,230.629 72.488,230.609              72.416,230.586 72.338,230.559 72.25,230.523 72.176,230.48 72.1,230.445 72.016,230.4 71.943,230.35 71.875,230.291              71.812,230.242 71.744,230.176 71.686,230.111 71.635,230.049 71.553,229.924 71.504,229.803 71.492,229.762              71.477,229.695 71.494,229.594            "/>
											<polygon fill="none" points="55.775,230.006 56.033,230.141 56.645,231.578 56.549,231.699 55.242,231.793              55.301,231.805 55.256,231.875 55.25,231.877 54.959,231.707 54.959,231.705 55.033,231.67 54.465,230.172              54.559,230.076            "/>
											<polygon fill="none" points="56.678,231.533 56.734,231.58 56.734,231.58            "/>
											<polygon fill="none" points="52.115,229.629 52.115,229.629 54.352,230.375            "/>
											<path fill="#FFFFFF" d="M47.756,229.621l3.709-0.121l0.078,0.008l0.072,0.025l0.098,0.031l0.086,0.031l0.08,0.053             l0.059,0.037l0.035,0.055l0.025,0.027l1.475,4.449l0.023,0.068l0.072-0.002l0.074-0.01l0.084,0.01l0.105,0.01             l0.098-0.004l0.096,0.004l0.09-0.023l0.098-0.029l0.078-0.053l0.098-0.104l0.08-0.105l0.074-0.09l0.074-0.09l0.064-0.086             l0.061-0.076l0.055-0.082l0.062-0.084l0.055-0.08l0.061-0.078l0.061-0.076l0.068-0.068l0.068-0.074l0.08-0.08l0.08-0.08             l0.102-0.088l-0.055-0.07l0.08-0.064l0.092-0.059l0.105-0.047l0.094-0.047l0.105-0.045l0.117-0.033l0.119-0.041             l0.117-0.029l0.111-0.016l0.123-0.023l0.129-0.018l0.125-0.021l0.127-0.01l0.129-0.012l0.119-0.014l0.117-0.004             l2.057-0.15l-2.535-0.844l-0.066-0.156l0,0l2.922,0.975l13.639-1.018l0.254-0.041l0.189-0.088l0.131-0.125l0.045-0.145             v-0.16l0.004-0.008l-0.045-0.184l-0.09-0.184l-0.133-0.193l-0.076-0.088l-0.086-0.09l-0.092-0.092l-0.1-0.08             l-0.104-0.088l-0.115-0.074l-0.125-0.076l-0.127-0.08l-0.135-0.053l-0.129-0.061l-0.145-0.049l-0.152-0.049l-0.143-0.021             l-0.15-0.033l-0.154-0.016l-0.152,0.002l-2.059,0.076l-12.096,0.414h-0.133l-0.127,0.004l-0.141-0.004l-0.135-0.018             l-0.139-0.012l-0.139-0.01l-0.137-0.02l-0.145-0.021l-0.143-0.021l-0.141-0.027l-0.143-0.031l-0.141-0.029l-0.146-0.039             l-0.139-0.037l-0.131-0.035l-0.135-0.047l-0.193-0.062l-0.188-0.072l-0.166-0.064l-0.166-0.064l-0.145-0.074             l-0.137-0.062l-0.145-0.078l-0.131-0.061l-0.125-0.076l-0.111-0.064l-0.121-0.066l-0.111-0.064l-0.119-0.066             l-0.111-0.064l-0.107-0.053l-0.113-0.064l-0.113-0.055l-0.117-0.049l-0.113-0.039l-0.127-0.041l-0.137-0.045             l-0.129-0.035l-0.145-0.021l-0.152-0.023l-0.154-0.018l-0.172-0.012l-0.186-0.01l-0.188,0.01l-0.199,0.004l-0.219,0.023             l-0.23,0.021l-0.25,0.033l-0.188,0.025l-0.184,0.045l-0.186,0.045l-0.17,0.059l-0.18,0.064l-0.174,0.066l-0.164,0.068             l-0.168,0.078l-0.162,0.08l-0.162,0.088l2.59,0.865l-3.484,0.117L47.756,229.621z M71.477,229.695l0.018-0.102             l0.035-0.078l0.064-0.057l0.094-0.049l0.113-0.016l0.061,0.002l0.07,0.006l0.066,0.012l0.066,0.016l0.08,0.027             l0.072,0.023l0.076,0.033l0.082,0.045l0.07,0.033l0.072,0.051l0.064,0.047l0.07,0.059l0.07,0.051l0.051,0.062             l0.062,0.055l0.049,0.062l0.094,0.119l0.049,0.123l0.023,0.062l0.012,0.039l-0.008,0.105l-0.02,0.082l-0.057,0.068             l-0.086,0.041l-0.113,0.025l-0.064,0.006l-0.066-0.014l-0.078-0.008l-0.082-0.02l-0.072-0.023l-0.078-0.027l-0.088-0.035             l-0.074-0.043l-0.076-0.035l-0.084-0.045l-0.072-0.051l-0.068-0.059l-0.062-0.049l-0.068-0.066l-0.059-0.064             l-0.051-0.062l-0.082-0.125l-0.049-0.121l-0.012-0.041L71.477,229.695z M56.734,231.58L56.734,231.58l-0.057-0.047             L56.734,231.58z M54.465,230.172l0.094-0.096l1.217-0.07l0.258,0.135l0.611,1.438l-0.096,0.121l-1.307,0.094l0.059,0.012             l-0.045,0.07l-0.006,0.002l-0.291-0.17v-0.002l0.074-0.035L54.465,230.172z"/>
										</g>
									</g>
								</g>
							</g>
						</g>
					</g>
					<polygon fill-rule="evenodd" clip-rule="evenodd" fill="#010101" points="70.652,230.619 70.58,230.578 70.566,230.51        70.672,230.482 70.695,230.555 70.631,230.506 70.652,230.619 70.652,230.619      "/>
					<polygon fill-rule="evenodd" clip-rule="evenodd" fill="#010101" points="70.799,230.535 70.783,230.557 70.756,230.582        70.725,230.6 70.691,230.615 70.652,230.619 70.631,230.506 70.646,230.51 70.67,230.492 70.699,230.482 70.703,230.477        70.697,230.492 70.797,230.543 70.797,230.543 70.799,230.535      "/>
					<polygon fill-rule="evenodd" clip-rule="evenodd" fill="#010101" points="70.498,229.867 70.506,229.867 70.557,229.93        70.623,229.996 70.688,230.07 70.748,230.154 70.797,230.242 70.826,230.34 70.828,230.447 70.797,230.543 70.697,230.492        70.719,230.428 70.715,230.365 70.695,230.287 70.646,230.219 70.594,230.139 70.535,230.074 70.469,230.006 70.418,229.945        70.426,229.947 70.498,229.867 70.498,229.867      "/>
					<polygon fill-rule="evenodd" clip-rule="evenodd" fill="#010101" points="69.518,229.582 69.51,229.578 69.65,229.582        69.783,229.582 69.91,229.605 70.027,229.621 70.15,229.65 70.266,229.709 70.385,229.775 70.498,229.867 70.426,229.947        70.316,229.875 70.211,229.814 70.113,229.766 70.008,229.736 69.891,229.717 69.77,229.703 69.646,229.697 69.521,229.699        69.525,229.693 69.506,229.588 69.506,229.588 69.518,229.582      "/>
					<polygon fill-rule="evenodd" clip-rule="evenodd" fill="#010101" points="59.119,230.129 59.164,230.098 69.506,229.588        69.525,229.693 59.182,230.211 59.227,230.182 59.119,230.129 59.119,230.129      "/>
					<polygon fill-rule="evenodd" clip-rule="evenodd" fill="#010101" points="58.873,230.49 58.762,230.453 58.77,230.375        58.793,230.311 58.822,230.242 58.865,230.193 58.92,230.16 58.992,230.131 59.072,230.104 59.164,230.098 59.182,230.211        59.094,230.227 59.02,230.246 58.98,230.25 58.943,230.283 58.926,230.311 58.895,230.348 58.879,230.395 58.883,230.465        58.77,230.428 58.873,230.49 58.873,230.49      "/>
					<g>
						<polygon fill="none" points="59.164,230.102 59.182,230.211 59.164,230.102       "/>
						<g>
							<polygon fill="none" points="58.883,230.465 58.895,230.4 58.928,230.33 58.955,230.277 59.01,230.242 59.076,230.229          59.17,230.215 59.182,230.211 69.525,229.693 69.697,229.705 69.842,229.699 69.979,229.719 70.102,229.742 70.217,229.799          70.32,229.859 70.418,229.945 70.525,230.07 70.623,230.184 70.691,230.295 70.725,230.377 70.725,230.43 70.703,230.477          70.637,230.518 70.51,230.547 70.336,230.566 59.705,231.115 59.697,231.111 59.547,231.107 59.4,231.066 59.271,231.006          59.158,230.941 59.064,230.848 59,230.754 58.939,230.664 58.895,230.586 58.887,230.529        "/>
							<g>
								<path fill="none" d="M58.895,230.4l-0.012,0.064l0.004,0.064l0.008,0.057l0.045,0.078l0.061,0.09l0.064,0.094l0.094,0.094          l0.113,0.064l0.129,0.061l0.146,0.041l0.15,0.004l0.008,0.004l10.631-0.549l0.174-0.02l0.127-0.029l0.066-0.041l0.021-0.047          v-0.053l-0.033-0.082l-0.068-0.111l-0.098-0.113l-0.107-0.125l-0.098-0.086l-0.104-0.061l-0.115-0.057l-0.123-0.023          l-0.137-0.02l-0.145,0.006l-0.172-0.012l-10.344,0.518l-0.012,0.004l-0.094,0.014l-0.066,0.014l-0.055,0.035l-0.027,0.053          L58.895,230.4z M59.041,230.334l10.346-0.52l0.006-0.016l0.137,0.012h0.135l0.125,0.021l0.121,0.016l0.121,0.031          l0.113,0.057l0.113,0.062l0.119,0.096l0.045,0.047l0.041,0.043l0.037,0.047l0.031,0.035l0.045,0.055l0.035,0.053          l0.031,0.047l0.027,0.045l0.002,0.018l-0.105,0.027l0.004,0.02l-0.027-0.053l-0.029-0.047l-0.041-0.039l-0.029-0.045          l-0.031-0.037l-0.037-0.049l-0.039-0.039l-0.049-0.043l0.004-0.004l-0.096-0.072l-0.102-0.068l-0.102-0.043l-0.105-0.027          l-0.117-0.021l-0.119-0.012l-0.131-0.008l-0.127,0.002l-10.34,0.512L59.041,230.334z"/>
								<g>
									<path fill="none" d="M58.895,230.4l-0.012,0.064l0.004,0.064l0.008,0.057l0.045,0.078l0.061,0.09l0.064,0.094l0.094,0.094           l0.113,0.064l0.129,0.061l0.146,0.041l0.15,0.004l0.008,0.004l10.631-0.549l0.174-0.02l0.127-0.029l0.066-0.041           l0.021-0.047v-0.053l-0.033-0.082l-0.068-0.111l-0.098-0.113l-0.107-0.125l-0.098-0.086l-0.104-0.061l-0.115-0.057           l-0.123-0.023l-0.137-0.02l-0.145,0.006l-0.172-0.012l-10.344,0.518l-0.012,0.004l-0.094,0.014l-0.066,0.014l-0.055,0.035           l-0.027,0.053L58.895,230.4z"/>
									<g>
										<polygon fill="none" points="58.928,230.33 58.955,230.277 59.01,230.242 59.076,230.229 59.137,230.221 59.053,230.383             69.396,229.861 69.529,229.861 69.652,229.867 69.779,229.893 69.898,229.904 70.012,229.936 70.121,229.98             70.23,230.053 70.338,230.133 70.375,230.18 70.414,230.221 70.453,230.266 70.492,230.309 70.521,230.354 70.561,230.4             70.59,230.447 70.623,230.502 70.627,230.52 70.51,230.547 70.336,230.566 59.705,231.115 59.697,231.111 59.547,231.107             59.4,231.066 59.271,231.006 59.158,230.941 59.064,230.848 59,230.754 58.939,230.664 58.895,230.586 58.887,230.529             58.883,230.465 58.895,230.4           "/>
										<polygon fill="#010101" points="70.59,230.447 70.561,230.4 70.521,230.354 70.492,230.309 70.453,230.266             70.414,230.221 70.375,230.18 70.338,230.133 70.23,230.053 70.121,229.98 70.012,229.936 69.898,229.904 69.779,229.893             69.652,229.867 69.529,229.861 69.396,229.861 59.053,230.383 59.137,230.221 59.17,230.215 59.182,230.211             69.525,229.693 69.697,229.705 69.842,229.699 69.979,229.719 70.102,229.742 70.217,229.799 70.32,229.859             70.418,229.945 70.525,230.07 70.623,230.184 70.691,230.295 70.725,230.377 70.725,230.43 70.703,230.477             70.637,230.518 70.627,230.52 70.623,230.502           "/>
										<g>
											<polygon fill="none" points="58.9,230.389 58.908,230.387 58.963,230.387 59.053,230.383 59.139,230.221 59.17,230.215              59.182,230.211 69.525,229.693 69.697,229.705 69.842,229.699 69.979,229.719 70.102,229.742 70.217,229.799              70.32,229.859 70.418,229.945 70.525,230.07 70.623,230.184 70.691,230.295 70.725,230.377 70.725,230.43              70.703,230.477 70.637,230.518 70.627,230.52 70.51,230.547 70.336,230.566 59.705,231.115 59.697,231.111              59.547,231.107 59.4,231.066 59.271,231.006 59.158,230.941 59.064,230.848 59,230.754 58.939,230.664 58.895,230.586              58.887,230.529 58.883,230.465 58.895,230.4            "/>
											<path fill="#010101" d="M58.762,230.453l0.012,0.102l0.02,0.068l0.029,0.098l0.07,0.115l0.084,0.09l0.109,0.1             l0.133,0.086l0.145,0.068l0.154,0.041h0.188l10.627-0.539l0.203-0.021l0.143-0.033l0.105-0.07l0.059-0.098l-0.004-0.098             l-0.041-0.119l-0.076-0.115l-0.105-0.133l-0.109-0.127l-0.117-0.1l-0.125-0.078l-0.123-0.059l-0.133-0.027l-0.162-0.027             h-0.158l-0.182,0.012l-10.342,0.51v0.004l-0.109,0.006l-0.111,0.041l-0.074,0.064l-0.051,0.072l-0.035,0.078             L58.762,230.453z M58.883,230.465l0.012-0.064l0.006-0.012l0.008-0.002h0.055l0.09-0.004l0.086-0.162l0.031-0.006             l0.012-0.004l10.344-0.518l0.172,0.012l0.145-0.006l0.137,0.02l0.123,0.023l0.115,0.057l0.104,0.061l0.098,0.086             l0.107,0.125l0.098,0.113l0.068,0.111l0.033,0.082v0.053l-0.021,0.047l-0.066,0.041l-0.01,0.002l-0.117,0.027             l-0.174,0.02l-10.631,0.549l-0.008-0.004l-0.15-0.004l-0.146-0.041l-0.129-0.061l-0.113-0.064l-0.094-0.094L59,230.754             l-0.061-0.09l-0.045-0.078l-0.008-0.057L58.883,230.465z"/>
										</g>
									</g>
								</g>
							</g>
						</g>
					</g>
				</g>
			</g>
		</g>
		<g>
			
			<path fill="none" stroke="#F8A51C" stroke-width="0.7497" d="M169.471,148.541"/>
			<path fill="none" stroke="#F8A51C" stroke-width="0.7497" d="M121.305,148.541"/>
			<line fill="none" stroke="#EC2024" stroke-miterlimit="10" x1="127.074" y1="88.973" x2="163.824" y2="88.973"/>
			<line fill="none" stroke="#919395" stroke-width="0.7497" x1="123.205" y1="103.91" x2="174.199" y2="103.91"/>
			
				<line fill="none" stroke="#2FA4DD" stroke-width="0.7497" stroke-dasharray="5" x1="122.365" y1="59.16" x2="154.297" y2="59.16"/>
			<g>
				<path fill="#E9262D" d="M126.377,53.959c0,0.309-0.141,0.609-0.42,0.902l-0.043,0.043l-2.441,2.576      c-0.52,0.545-0.961,0.967-1.326,1.264c-0.365,0.299-0.623,0.447-0.771,0.447c-0.158,0-0.355-0.074-0.59-0.223      s-0.385-0.303-0.455-0.461c-0.057-0.133-0.111-0.412-0.164-0.838c-0.051-0.428-0.076-0.891-0.076-1.389      c0-0.271,0.113-0.523,0.34-0.754s0.477-0.346,0.75-0.346c0.262,0,0.416,0.238,0.467,0.715c0.006,0.057,0.01,0.098,0.012,0.123      c0.043,0.367,0.092,0.623,0.146,0.768s0.131,0.217,0.225,0.217c0.039,0,0.113-0.041,0.223-0.127      c0.107-0.086,0.236-0.203,0.387-0.352l2.51-2.486c0.211-0.211,0.398-0.371,0.564-0.479c0.166-0.109,0.307-0.162,0.422-0.162      c0.088,0,0.148,0.033,0.188,0.098c0.035,0.066,0.055,0.178,0.055,0.332V53.959z"/>
			</g>
			<g>
				<path fill="#E9262D" d="M127.287,83.191c0,0.309-0.141,0.609-0.42,0.9l-0.043,0.045l-2.441,2.574      c-0.52,0.545-0.961,0.967-1.326,1.266s-0.623,0.447-0.771,0.447c-0.158,0-0.355-0.074-0.59-0.225      c-0.234-0.148-0.385-0.303-0.455-0.461c-0.057-0.131-0.111-0.41-0.164-0.838C121.025,86.473,121,86.01,121,85.512      c0-0.271,0.113-0.521,0.34-0.752c0.227-0.232,0.477-0.346,0.75-0.346c0.262,0,0.418,0.236,0.467,0.715      c0.006,0.055,0.01,0.096,0.012,0.123c0.043,0.365,0.092,0.621,0.146,0.768c0.055,0.145,0.131,0.217,0.225,0.217      c0.041,0,0.113-0.043,0.223-0.129c0.107-0.086,0.236-0.201,0.387-0.35l2.51-2.488c0.211-0.211,0.398-0.369,0.564-0.479      c0.166-0.107,0.307-0.162,0.422-0.162c0.088,0,0.15,0.033,0.188,0.1c0.035,0.064,0.055,0.176,0.055,0.332V83.191z"/>
			</g>
			<g>
				<path fill="#E9262D" d="M123.166,97.74c0,0.309-0.141,0.609-0.42,0.902l-0.043,0.045l-2.441,2.574      c-0.52,0.545-0.961,0.967-1.326,1.266c-0.365,0.297-0.623,0.445-0.771,0.445c-0.158,0-0.355-0.072-0.59-0.223      c-0.234-0.148-0.385-0.303-0.455-0.461c-0.057-0.131-0.111-0.41-0.164-0.838c-0.051-0.428-0.076-0.891-0.076-1.389      c0-0.271,0.113-0.523,0.34-0.754s0.477-0.346,0.75-0.346c0.262,0,0.416,0.24,0.467,0.717c0.006,0.055,0.01,0.096,0.012,0.123      c0.043,0.365,0.092,0.621,0.146,0.766c0.055,0.146,0.131,0.219,0.225,0.219c0.041,0,0.113-0.043,0.223-0.129      c0.107-0.086,0.236-0.201,0.387-0.352l2.51-2.486c0.211-0.211,0.398-0.369,0.564-0.479c0.166-0.107,0.307-0.162,0.422-0.162      c0.088,0,0.148,0.033,0.188,0.098c0.035,0.066,0.055,0.178,0.055,0.334V97.74z"/>
			</g>
		</g>
		<g>
			
			<line fill="none" stroke="#636466" stroke-miterlimit="10" x1="129.75" y1="188.287" x2="177.166" y2="188.287"/>
			<g>
				<path fill="#E9262D" d="M128.979,182.076c0,0.309-0.141,0.609-0.42,0.902l-0.043,0.043l-2.441,2.576      c-0.52,0.545-0.961,0.967-1.326,1.264c-0.365,0.299-0.623,0.447-0.771,0.447c-0.158,0-0.355-0.074-0.59-0.223      s-0.385-0.303-0.455-0.461c-0.057-0.133-0.111-0.412-0.164-0.838c-0.051-0.428-0.076-0.891-0.076-1.389      c0-0.271,0.113-0.523,0.34-0.754s0.477-0.346,0.75-0.346c0.262,0,0.416,0.238,0.467,0.715c0.006,0.057,0.01,0.098,0.012,0.123      c0.043,0.367,0.092,0.623,0.146,0.768s0.131,0.217,0.225,0.217c0.039,0,0.113-0.041,0.223-0.127      c0.107-0.086,0.236-0.203,0.387-0.352l2.51-2.486c0.211-0.211,0.398-0.371,0.564-0.479c0.166-0.109,0.307-0.162,0.422-0.162      c0.088,0,0.148,0.033,0.188,0.098c0.035,0.066,0.055,0.178,0.055,0.332V182.076z"/>
			</g>
		</g>
	</g>
	<g>
		<linearGradient id="SVGID_1_" gradientUnits="userSpaceOnUse" x1="177.166" y1="197.3623" x2="180" y2="197.3623">
			<stop offset="0" style="stop-color:#B3B3B3"/>
			<stop offset="0.4331" style="stop-color:#737373"/>
			<stop offset="0.8902" style="stop-color:#B3B3B3"/>
		</linearGradient>
		
			<rect x="177.166" y="183.189" fill="url(#SVGID_1_)" stroke="#231F20" stroke-width="0.5" stroke-miterlimit="10" width="2.834" height="28.346"/>
		<linearGradient id="SVGID_2_" gradientUnits="userSpaceOnUse" x1="177.166" y1="72.6387" x2="180" y2="72.6387">
			<stop offset="0" style="stop-color:#B3B3B3"/>
			<stop offset="0.4331" style="stop-color:#737373"/>
			<stop offset="0.8902" style="stop-color:#B3B3B3"/>
		</linearGradient>
		
			<rect x="177.166" y="58.465" fill="url(#SVGID_2_)" stroke="#231F20" stroke-width="0.5" stroke-miterlimit="10" width="2.834" height="28.348"/>
	</g>
</g>
</g></svg>