<svg version="1.1" id="Layer_1" xmlns="http://www.w3.org/2000/svg" xmlns:xlink="http://www.w3.org/1999/xlink" x="0px" y="0px" width="750" height="1125" viewBox="0 0 750 1125" enable-background="new 0 0 180 270" xml:space="preserve">
<g>
	<path opacity="0.5" fill="#231F20" d="M180,270H0V0h180V270z M136.569,261.142c15.742,0,28.549-12.82,28.549-28.577V37.436
		c0-15.757-12.807-28.577-28.549-28.577H43.428c-15.74,0-28.546,12.82-28.546,28.577v195.129c0,15.757,12.806,28.577,28.546,28.577
		H136.569z"></path>
	
		<path fill="none" stroke="#ED1C24" stroke-width="0.9926" stroke-linecap="round" stroke-linejoin="round" stroke-miterlimit="10" d="
		M43.428,261.142c-15.74,0-28.546-12.82-28.546-28.577V37.436c0-15.757,12.806-28.577,28.546-28.577h93.142
		c15.742,0,28.549,12.82,28.549,28.577v195.129c0,15.757-12.807,28.577-28.549,28.577H43.428z"></path>
	<path fill="none" stroke="#26AAE1" stroke-width="1.127" stroke-miterlimit="10" stroke-dasharray="3.4936,3.4936" d="
		M43.428,252.142c-10.777,0-19.546-8.782-19.546-19.577V37.436c0-10.795,8.769-19.577,19.546-19.577h93.142
		c10.779,0,19.549,8.782,19.549,19.577v195.129c0,10.795-8.77,19.577-19.549,19.577H43.428z"></path>
	<g>
		<g>
			<rect x="32.394" y="27.858" fill="#E7E7E7" width="117" height="21.753"></rect>
			
		</g>
		<g>
			<rect x="42.942" y="212.521" fill="#E7E7E7" width="95.902" height="33.524"></rect>
			
			<g>
				<path fill="#EB242B" d="M102.358,215.956c0,0.252-0.114,0.501-0.344,0.74l-0.037,0.037l-2.008,2.118
					c-0.426,0.448-0.791,0.795-1.09,1.041c-0.301,0.244-0.513,0.368-0.636,0.368c-0.131,0-0.291-0.062-0.485-0.186
					c-0.191-0.122-0.316-0.249-0.373-0.377c-0.048-0.109-0.093-0.339-0.135-0.691c-0.042-0.35-0.062-0.73-0.062-1.141
					c0-0.225,0.093-0.431,0.277-0.622c0.188-0.188,0.394-0.284,0.619-0.284c0.215,0,0.342,0.196,0.382,0.59
					c0.005,0.045,0.009,0.078,0.012,0.102c0.033,0.302,0.073,0.511,0.119,0.63c0.046,0.12,0.107,0.18,0.186,0.18
					c0.032,0,0.094-0.035,0.182-0.106c0.089-0.07,0.196-0.165,0.318-0.287l2.064-2.047c0.174-0.174,0.328-0.306,0.465-0.395
					c0.137-0.088,0.252-0.133,0.349-0.133c0.07,0,0.122,0.027,0.152,0.082c0.031,0.055,0.045,0.145,0.045,0.272V215.956z"></path>
			</g>
			<g>
				<ellipse fill-rule="evenodd" clip-rule="evenodd" fill="#010101" cx="59.339" cy="228.959" rx="14.782" ry="14.796"></ellipse>
				<ellipse fill-rule="evenodd" clip-rule="evenodd" fill="#B7D334" cx="59.35" cy="229.04" rx="13.438" ry="13.452"></ellipse>
				<g>
					<path fill="#010101" d="M56.473,226.107c-0.187,1.648-0.324,2.974-0.418,3.972l-0.612,0.027
						c0.008-0.032,0.013-0.07,0.015-0.112c0.002-0.074-0.027-0.174-0.082-0.296c-0.058-0.122-0.09-0.199-0.097-0.232
						c-0.158,0.022-0.312,0.133-0.456,0.329c-0.145,0.197-0.276,0.297-0.392,0.296c-0.067-0.004-0.142-0.021-0.226-0.055
						c-0.108,0.072-0.25,0.104-0.426,0.093c-0.157-0.028-0.312-0.051-0.461-0.07c-0.006-0.209-0.21-0.393-0.617-0.548
						c0.004-0.085-0.04-0.208-0.123-0.373c-0.086-0.164-0.127-0.278-0.126-0.346c0-0.075,0.031-0.137,0.09-0.187
						c-0.008-0.023-0.076-0.18-0.203-0.467c-0.089-0.209-0.132-0.39-0.129-0.539c0.002-0.117,0.029-0.225,0.08-0.324
						c-0.07-0.71-0.103-1.32-0.093-1.828c0.013-0.784,0.123-1.504,0.336-2.16c-0.015-0.101-0.021-0.2-0.021-0.3
						c0.01-0.525,0.191-0.889,0.545-1.093l0.003-0.162c0.349-0.445,0.809-0.767,1.379-0.965c0.341,0.081,0.68,0.158,1.021,0.23
						c0.382,0.132,0.644,0.356,0.789,0.676c0.115,0.069,0.172,0.208,0.168,0.415c-0.005,0.234,0.022,0.386,0.079,0.453l-0.064,0.074
						c0.067,0.493,0.1,0.793,0.098,0.902c-0.004,0.316-0.088,0.54-0.248,0.672c-0.059-0.002-0.213-0.053-0.46-0.159
						c-0.06,0.058-0.122,0.087-0.189,0.085c-0.032,0-0.094-0.019-0.181-0.053c-0.086-0.035-0.16-0.053-0.218-0.053
						c-0.04-0.002-0.084,0.006-0.124,0.021c-0.007-0.657,0.015-1.148,0.062-1.475c-0.066-0.042-0.132-0.142-0.201-0.291
						c-0.069-0.151-0.156-0.236-0.264-0.256c-0.069,0.084-0.1,0.137-0.092,0.163l-0.223-0.079c-0.204,0.222-0.34,0.607-0.407,1.157
						c-0.068,0.633-0.155,1.051-0.259,1.258c0.091,0.095,0.134,0.225,0.131,0.391c0,0.058-0.01,0.154-0.029,0.287
						c-0.021,0.134-0.029,0.233-0.03,0.301c-0.002,0.075,0.005,0.142,0.021,0.2l-0.15,0.146c0.061,0.284,0.096,0.645,0.105,1.08
						c-0.006,0.366-0.008,0.732-0.006,1.099c-0.009,0-0.079,0.004-0.213,0.01c-0.083-0.002-0.143,0.027-0.177,0.085
						c0.05-0.008,0.097-0.013,0.137-0.01c0.184,0.002,0.328,0.132,0.431,0.388c0.106,0.257,0.194,0.386,0.271,0.388
						c0.083,0.001,0.195-0.076,0.34-0.233c0.246-0.262,0.375-0.623,0.381-1.081c0.005-0.226-0.021-0.468-0.073-0.727
						c-0.06,0.03-0.091,0.114-0.092,0.247c-0.135-0.001-0.219,0.026-0.252,0.084c-0.059-0.018-0.082-0.064-0.073-0.139
						c0.01-0.107,0.015-0.167,0.015-0.175c0.102-0.032,0.151-0.077,0.153-0.135c0-0.025-0.018-0.072-0.055-0.14
						c-0.035-0.066-0.054-0.121-0.054-0.164c0.002-0.032,0.012-0.066,0.027-0.1l0.059-0.487c0.183,0.055,0.578,0.077,1.187,0.072
						c-0.018,0.041,0.007,0.095,0.073,0.163c0.058-0.059,0.12-0.087,0.188-0.084c0.05,0.002,0.125,0.022,0.224,0.065
						C56.36,226.085,56.431,226.107,56.473,226.107z"></path>
					<path fill="#010101" d="M61.137,230.417c-0.115-0.054-0.239-0.079-0.372-0.082c-0.117-0.002-0.276,0.021-0.478,0.067
						c-0.225,0.045-0.381,0.072-0.463,0.079c-0.09-0.176-0.151-0.42-0.188-0.729c-0.067-0.451-0.109-0.707-0.126-0.767
						c0.027-0.05,0.04-0.091,0.04-0.123c0.002-0.092-0.07-0.176-0.215-0.249c-0.145-0.072-0.216-0.131-0.216-0.172
						c0.002-0.05,0.086-0.122,0.254-0.221c-0.04-0.05-0.07-0.154-0.088-0.307c-0.018-0.156-0.057-0.259-0.114-0.311
						c-0.102,0.09-0.267,0.148-0.496,0.174c-0.23,0.025-0.383,0.062-0.458,0.111c0.005,0.65-0.102,1.087-0.321,1.308
						c-0.117-0.027-0.206,0.018-0.266,0.133c-0.087,0.142-0.159,0.224-0.217,0.248l0.072,0.088
						c-0.067,0.057-0.177,0.081-0.326,0.069c-0.232-0.013-0.356-0.018-0.374-0.018l-0.071-0.229l0.815-6.755
						c0.008-0.424,0.028-0.713,0.063-0.862c-0.011-0.376,0.077-0.607,0.263-0.696c0.115,0.077,0.26,0.118,0.435,0.121
						c0.142,0.001,0.363-0.027,0.664-0.09c0.302-0.062,0.511-0.092,0.627-0.09c0.408,0.008,0.586,0.302,0.535,0.885
						c-0.041,0.468,0.031,1.081,0.218,1.845c0.194,0.821,0.289,1.435,0.283,1.845c-0.003,0.123,0.038,0.384,0.027,0.508
						c-0.177,0.096-0.402,0.155-0.678,0.177c-0.241,0.013-0.487,0.025-0.738,0.037c-0.064-0.635-0.177-1.4-0.24-2.026
						c-0.079-0.752-0.176-1.371-0.295-1.857l-0.385,3.571c-0.029,0.309,0.11,0.466,0.417,0.471c0.102,0.002,0.196-0.021,0.29-0.07
						c0.075-0.022,0.178,0.032,0.31,0.169c-0.005,0.259,0.047,0.413,0.154,0.464c0.135-0.088,0.312-0.173,0.528-0.254
						c0.193-0.07,0.383-0.138,0.567-0.202c0.104,0.145,0.172,0.356,0.201,0.641c0.035,0.402,0.061,0.637,0.075,0.702
						c0.015,0.159,0.079,0.503,0.194,1.03c0.085,0.418,0.126,0.757,0.122,1.016C61.166,230.191,61.154,230.308,61.137,230.417z"></path>
					<path fill="#010101" d="M66.893,224.457c-0.008,0.025-0.012,0.172-0.007,0.438c-0.005,0.216-0.032,0.38-0.083,0.485
						c-0.062,0.167-0.095,0.405-0.1,0.712c-0.002,0.067,0.001,0.172,0.008,0.313c-0.003,0.143-0.005,0.247-0.005,0.313
						c-0.01,0.525-0.1,0.906-0.271,1.146c0.015,0.135,0.021,0.269,0.02,0.401c-0.007,0.416-0.149,0.979-0.43,1.683
						c-0.075,0.024-0.138,0.035-0.188,0.033c-0.102-0.001-0.172-0.059-0.217-0.173c-0.044-0.112-0.085-0.221-0.124-0.32
						c0.025-0.641,0.013-1.576-0.042-2.804l0.077-0.073c-0.055-0.218-0.078-0.46-0.075-0.727c0.003-0.193,0.027-0.471,0.07-0.837
						c0.044-0.368,0.068-0.643,0.069-0.826c0.003-0.116,0-0.229-0.005-0.338c-0.287,0.688-0.49,1.852-0.608,3.493l-0.106,0.248
						c-0.034,0.083-0.106,0.128-0.214,0.135c-0.032-0.058-0.065-0.089-0.098-0.089c-0.026-0.001-0.071,0.029-0.134,0.092
						c-0.064,0.06-0.117,0.087-0.157,0.079l-0.165,0.146c0.073,0.093,0.23,0.104,0.476,0.033c0.19-0.055,0.29,0.018,0.295,0.217
						c0.005,0.167-0.04,0.393-0.137,0.674c-0.096,0.282-0.146,0.494-0.147,0.636c-0.002,0.102,0.008,0.201,0.032,0.301l-0.864,0.135
						c-0.082-0.167-0.142-0.45-0.18-0.847c-0.039-0.396-0.1-0.68-0.181-0.847c0.052-0.058,0.077-0.119,0.079-0.188
						c0-0.058-0.022-0.146-0.071-0.263c-0.048-0.118-0.075-0.206-0.083-0.266c-0.007-0.09-0.035-0.313-0.089-0.663
						c-0.036-0.283-0.054-0.507-0.051-0.664c0.001-0.084,0.008-0.159,0.016-0.225c0.002-0.06-0.032-0.145-0.095-0.259
						c-0.064-0.114-0.097-0.196-0.097-0.246c0.002-0.042,0.019-0.079,0.052-0.11c-0.057-0.069-0.08-0.186-0.069-0.353
						c0.012-0.167-0.011-0.284-0.067-0.35c-0.123,0.321-0.188,0.758-0.197,1.308c-0.005,0.768-0.013,1.211-0.022,1.327l0.085,0.077
						l-0.088,0.072c0.061,0.302,0.088,0.686,0.08,1.152c-0.022,0.843-0.034,1.235-0.032,1.178c-0.119,0.105-0.281,0.157-0.49,0.152
						c-0.259-0.003-0.434,0.02-0.527,0.065c-0.104-0.185-0.155-0.422-0.149-0.715c0.004-0.225,0.042-0.499,0.114-0.824
						c-0.114-0.21-0.167-0.503-0.16-0.879c0.001-0.092,0.013-0.265,0.033-0.523c0.013-0.207,0.015-0.363,0.01-0.463
						c0.082-0.04,0.125-0.085,0.125-0.135c0.002-0.034-0.023-0.092-0.077-0.172c-0.053-0.079-0.08-0.14-0.078-0.182
						c0.001-0.052,0.035-0.1,0.103-0.149l-0.27-4.046c0.16-0.106,0.419-0.156,0.777-0.149c0.391,0.016,0.659-0.005,0.802-0.062
						c0.025-0.016,0.055-0.023,0.087-0.023c0.035,0.001,0.074,0.021,0.119,0.059c0.045,0.037,0.075,0.059,0.093,0.059
						c0.032,0,0.062-0.026,0.089-0.076l0.232,0.231c0.079,0.293,0.153,0.861,0.222,1.705c0.071,0.727,0.182,1.275,0.336,1.646
						c0.204-0.739,0.371-1.358,0.506-1.856l0.271-1.98l1.938-0.042c0.006,0.107,0.03,0.688,0.082,1.023
						c0.045,0.292,0.065,0.53,0.062,0.714c-0.003,0.208-0.035,0.395-0.097,0.561c0.064,0.095,0.097,0.21,0.094,0.352
						C66.997,224.252,66.962,224.367,66.893,224.457z"></path>
					<path fill="#010101" d="M70.869,228.842v-0.011c-0.052,0.105-0.083,0.231-0.093,0.372c-0.01,0.092-0.014,0.221-0.009,0.388
						c0.005,0.191,0.009,0.326,0.007,0.401c-0.067-0.001-0.333-0.006-0.799-0.014c-0.284-0.005-0.538,0.019-0.765,0.075
						l-0.232-0.254c-0.069,0.064-0.096,0.117-0.079,0.16c-0.04-0.009-0.233-0.013-0.575-0.009c-0.267-0.005-0.466-0.034-0.598-0.087
						c-0.137,0.141-0.294,0.138-0.476-0.009c-0.064-0.05-0.072-0.136-0.021-0.255c0.054-0.121,0.039-0.211-0.043-0.271
						c0.012-0.267,0.048-0.68,0.107-1.236c0.058-0.5,0.09-0.893,0.095-1.175c0.007-0.384-0.021-0.752-0.082-1.103
						c0.095-0.09,0.198-0.135,0.315-0.132c0.135,0,0.291,0.067,0.473,0.196c0.254,0.177,0.387,0.269,0.395,0.269l0.072,0.088
						c0.01-0.023,0.054-0.157,0.134-0.398c0.043-0.157,0.107-0.26,0.192-0.31l0.074,0.077c0.034-0.015,0.143-0.094,0.329-0.231
						c0.142-0.099,0.259-0.33,0.343-0.328c0.092,0.002,0.177,0.053,0.259,0.154c0.142,0.077,0.229,0.378,0.272,0.532
						c0.044,0.155,0.086,0.308,0.124,0.459c-0.376,0.012-0.685,0-0.926-0.029c-0.059,0.092-0.143,0.104-0.25,0.041
						c-0.106-0.064-0.185-0.055-0.236,0.025c-0.003,0.151-0.008,0.423-0.015,0.814c-0.015,0.349-0.02,0.625-0.015,0.826
						c0.004,0.309,0.024,0.591,0.062,0.852c0.065,0,0.382,0.006,0.949,0.016C70.251,228.744,70.587,228.779,70.869,228.842z
						 M70.896,222.849c-0.075,0.008-0.159,0.01-0.251,0.01c-0.19-0.005-0.446-0.033-0.762-0.09c-0.39-0.055-0.628-0.089-0.71-0.098
						c-0.12,0.172-0.182,0.417-0.188,0.733c-0.012,0.685-0.012,0.98-0.002,0.889c0.116,0.067,0.172,0.194,0.169,0.378
						c-0.015,0.251-0.017,0.381-0.008,0.389c-0.059,0.022-0.089,0.106-0.092,0.248c-0.09-0.034-0.185-0.104-0.283-0.206
						c-0.132-0.127-0.202,0.306-0.192,0.197l-0.079,0.258l-0.073-0.076c-0.068,0.007-0.181-0.028-0.341-0.107
						c-0.162-0.077-0.275-0.147-0.341-0.219c0.002-0.132,0.024-0.207,0.065-0.223l-0.158-0.177l-0.078,0.11
						c-0.093-0.869-0.07-2.495,0.046-3.411c0.316,0.057,0.665,0.092,1.049,0.106c0.257,0.013,0.618,0.019,1.086,0.019
						c0.534,0,0.918,0.002,1.15,0.007c0.099,0.093,0.146,0.214,0.144,0.364c0,0.094-0.026,0.24-0.076,0.444
						S70.898,222.749,70.896,222.849z"></path>
				</g>
				<g>
					<path fill="#010101" d="M56.849,236.407v-0.006c0,0.005-0.021,0.188-0.064,0.553c-0.022,0.222-0.075,0.398-0.162,0.525
						l-0.055-0.044c-0.102,0.212-0.238,0.343-0.413,0.388c-0.083,0.088-0.204,0.137-0.361,0.146
						c-0.093,0.006-0.309-0.022-0.647-0.082c-0.164-0.102-0.252-0.158-0.269-0.169c-0.103-0.077-0.152-0.156-0.146-0.236
						c-0.1-0.102-0.239-0.283-0.292-0.51c-0.064-0.25-0.103-0.263-0.161-0.352c-0.095,0.069-0.128-0.078-0.183-0.167l0.048-0.038
						c-0.03-0.021-0.046-0.047-0.048-0.074c-0.002-0.021,0.008-0.05,0.023-0.089c0.02-0.038,0.027-0.067,0.026-0.088
						c-0.002-0.03-0.021-0.058-0.057-0.079c0.037-0.197,0.072-0.493,0.104-0.887c0.067-0.037,0.098-0.106,0.096-0.209
						c-0.005-0.103,0.01-0.172,0.042-0.204c0.159-0.32,0.418-0.536,0.776-0.646c0.019,0.002,0.115,0,0.289-0.005
						c0.117-0.003,0.206,0.007,0.267,0.032c0.107-0.02,0.215,0.006,0.321,0.075c0.094,0.071,0.187,0.14,0.279,0.211
						c0.174,0.188,0.267,0.402,0.281,0.639c0.004,0.078-0.001,0.162-0.016,0.25c-0.127-0.003-0.219,0.081-0.273,0.254l-0.5,0.049
						c-0.053-0.077-0.085-0.179-0.091-0.306c-0.004-0.043-0.002-0.107,0-0.189c0.001-0.085,0.003-0.147,0-0.191
						c-0.009-0.13-0.039-0.232-0.092-0.312l-0.149,0.087c-0.062-0.024-0.094-0.06-0.095-0.106c-0.002-0.016,0-0.04,0.006-0.068
						c0.005-0.032,0.009-0.053,0.009-0.063c-0.004-0.052-0.05-0.082-0.14-0.096c-0.06,0.565-0.079,1.144-0.055,1.736
						c0.016,0.02,0.063,0.032,0.143,0.042c0.064,0.007,0.098,0.027,0.1,0.058c0,0.013-0.003,0.029-0.013,0.049l-0.049,0.038
						c0.027,0.042,0.044,0.102,0.047,0.177c0.002,0.039,0.002,0.1-0.003,0.182c-0.007,0.082-0.007,0.143-0.005,0.182
						c0.008,0.119,0.037,0.209,0.09,0.27c-0.007,0.087,0.03,0.146,0.106,0.177c0.048-0.018,0.091-0.027,0.13-0.03
						c0.152-0.01,0.259,0.074,0.318,0.249c0,0.005,0,0.034-0.002,0.09c0.002,0.032,0.018,0.052,0.048,0.062
						c0.066-0.039,0.099-0.111,0.099-0.214c-0.002-0.119,0.013-0.194,0.045-0.229c-0.008-0.055-0.04-0.135-0.099-0.237
						c-0.058-0.104-0.088-0.185-0.091-0.246c-0.005-0.062,0.015-0.122,0.055-0.18c-0.034-0.012-0.05-0.034-0.049-0.071
						c0.004-0.056,0.004-0.085,0.004-0.088C56.293,236.347,56.569,236.345,56.849,236.407z"></path>
					<path fill="#010101" d="M59.111,236.872h-0.007c-0.029,0.056-0.039,0.138-0.029,0.246c0.014,0.149,0.021,0.227,0.021,0.23
						c-0.021,0.009-0.054-0.003-0.09-0.033c-0.06,0.021-0.087,0.058-0.084,0.109c0,0.008,0.003,0.021,0.01,0.038
						c0,0.022,0.002,0.037,0.002,0.045c0.001,0.04-0.01,0.069-0.036,0.09c-0.065-0.036-0.154-0.059-0.262-0.07
						c-0.109-0.01-0.212-0.02-0.309-0.029c-0.001-0.501-0.068-0.992-0.202-1.472c0,0.004-0.002-0.045-0.008-0.149
						c0-0.073-0.017-0.127-0.05-0.157l-0.047,0.04c0-0.006,0.015-0.021,0.045-0.043c0.032-0.021,0.047-0.044,0.045-0.066
						c0-0.011-0.003-0.022-0.01-0.032l-0.05-0.036c-0.085,0.028-0.123,0.096-0.117,0.205c0.004,0.074-0.025,0.127-0.087,0.156
						c0.022,0.018,0.036,0.038,0.037,0.064c0.002,0.014-0.001,0.035-0.006,0.061c-0.007,0.025-0.009,0.047-0.007,0.062
						c0.002,0.032,0.02,0.059,0.052,0.079c0.001,0.022,0.013,0.22,0.035,0.596c0.015,0.24,0.006,0.442-0.02,0.609l0.005,0.095
						c-0.032-0.002-0.069-0.002-0.109,0c-0.047,0.003-0.112,0.01-0.199,0.021c-0.085,0.012-0.149,0.018-0.191,0.02
						c-0.168,0.01-0.287-0.02-0.354-0.085l-0.072-2.062c-0.032-0.1-0.055-0.241-0.066-0.421l-0.021-0.398
						c-0.017-0.195-0.042-0.345-0.076-0.449c0.015-0.072,0.078-0.111,0.187-0.115c0.067-0.005,0.159,0.004,0.276,0.026
						c0.054-0.023,0.129-0.04,0.224-0.046c0.029-0.002,0.071-0.002,0.132-0.002c0.062-0.003,0.109-0.006,0.137-0.008
						c0.178-0.01,0.296-0.064,0.354-0.164c0.082-0.002,0.173,0.024,0.269,0.077c0.097,0.055,0.184,0.084,0.256,0.085
						c0.194,0.114,0.301,0.304,0.314,0.57c0.005,0.059-0.019,0.292-0.068,0.702L58.6,235.55c0.057,0.104,0.126,0.331,0.206,0.681
						C58.873,236.521,58.975,236.735,59.111,236.872z M58.494,234.526l0.006,0.005c0.007,0.025,0.004-0.065-0.01-0.27
						c-0.005-0.1-0.041-0.172-0.107-0.216c-0.038,0.054,0.005,0.079-0.015,0.203c-0.016,0.125-0.09,0.09-0.133,0.145
						c-0.114,0-0.14,0.069-0.166-0.04c-0.051-0.179-0.095-0.162-0.096-0.166l-0.049,0.029c-0.018,0.015-0.037,0.032-0.058,0.053
						c-0.022,0.02-0.045,0.026-0.067,0.021c0,0.022-0.01,0.056-0.032,0.104c-0.022,0.046-0.034,0.078-0.032,0.098
						c0.002,0.033,0.027,0.057,0.08,0.073c-0.009,0.073-0.013,0.152-0.008,0.232c0.004,0.044,0.013,0.145,0.032,0.303
						c0.02,0.123,0.027,0.231,0.024,0.319c0.042,0.002,0.08,0.002,0.117,0c0.16-0.01,0.264-0.074,0.312-0.191
						c0.017-0.033,0.035-0.157,0.055-0.368C58.365,234.703,58.413,234.59,58.494,234.526z"></path>
					<path fill="#010101" d="M61.706,237.672c-0.066-0.02-0.135-0.025-0.209-0.021c-0.062,0.003-0.149,0.02-0.257,0.047
						c-0.124,0.03-0.206,0.048-0.251,0.054c-0.057-0.073-0.1-0.18-0.129-0.312c-0.055-0.196-0.085-0.308-0.096-0.333
						c0.013-0.022,0.019-0.042,0.018-0.057c-0.002-0.041-0.045-0.073-0.126-0.101c-0.083-0.026-0.123-0.05-0.123-0.067
						c-0.002-0.022,0.04-0.059,0.13-0.108c-0.024-0.021-0.043-0.063-0.06-0.131c-0.015-0.068-0.038-0.111-0.072-0.132
						c-0.053,0.045-0.142,0.077-0.265,0.096c-0.126,0.02-0.208,0.042-0.25,0.067c0.027,0.286,0,0.789-0.112,0.896
						c-0.063-0.008-0.11,0.015-0.14,0.069c-0.042,0.063-0.078,0.104-0.11,0.117l0.043,0.035c-0.035,0.029-0.093,0.043-0.175,0.045
						c-0.129,0.003-0.198,0.005-0.206,0.005l-0.047-0.098l0.191-3.312c-0.01-0.188-0.008-0.315,0.005-0.383
						c-0.018-0.165,0.022-0.271,0.121-0.318c0.065,0.031,0.146,0.042,0.242,0.037c0.077-0.005,0.197-0.025,0.36-0.065
						c0.163-0.039,0.276-0.06,0.34-0.064c0.224-0.013,0.331,0.11,0.323,0.369c-0.006,0.206,0.055,0.475,0.185,0.803
						c0.136,0.354,0.208,0.622,0.217,0.802c0.005,0.055,0.077,0.172,0.077,0.229c-0.095,0.05-0.217,0.083-0.366,0.103
						c-0.132,0.017-0.265,0.032-0.403,0.045c-0.056-0.276-0.187-0.612-0.242-0.887c-0.071-0.328-0.146-0.596-0.227-0.808
						l-0.087,1.59c-0.005,0.137,0.077,0.201,0.246,0.191c0.055-0.003,0.105-0.018,0.155-0.043c0.041-0.014,0.099,0.008,0.176,0.062
						c0.006,0.114,0.04,0.182,0.101,0.199c0.071-0.045,0.164-0.09,0.281-0.134c0.104-0.038,0.204-0.075,0.303-0.11
						c0.062,0.06,0.105,0.15,0.133,0.274c0.032,0.175,0.055,0.276,0.066,0.306c0.013,0.07,0.06,0.218,0.141,0.446
						c0.063,0.18,0.097,0.328,0.104,0.442C61.712,237.571,61.711,237.624,61.706,237.672z"></path>
					<path fill="#010101" d="M63.597,233.913h0.007c-0.055,0.08-0.124,0.095-0.209,0.045c-0.02-0.003-0.102,0.002-0.247,0.015
						c-0.122,0.006-0.213,0-0.269-0.018c-0.015,0.001-0.042,0.015-0.08,0.04c-0.041,0.027-0.069,0.04-0.089,0.042
						c-0.025,0.001-0.042-0.022-0.045-0.071c0-0.006-0.002-0.038-0.005-0.093c-0.002-0.037-0.02-0.062-0.053-0.074l-0.085,0.066
						c-0.027,0.019-0.039,0.04-0.037,0.062c0,0.018,0.016,0.043,0.045,0.077c0.028,0.033,0.047,0.058,0.053,0.072
						c0,0.011,0.01,0.177,0.029,0.497c0.006,0.202,0.043,0.364,0.11,0.485c0.017-0.02,0.058-0.029,0.124-0.03
						c0.067-0.004,0.111-0.018,0.132-0.045c0.043,0.038,0.115,0.041,0.217,0.008c0.103-0.035,0.175-0.024,0.22,0.033l-0.014,0.489
						c-0.041-0.007-0.104-0.026-0.182-0.062c-0.024,0.07-0.069,0.115-0.137,0.134c-0.027,0.009-0.104,0.018-0.233,0.025
						c0.005-0.022-0.016-0.045-0.06-0.069c-0.123,0.06-0.17,0.201-0.14,0.424c0.003-0.023,0.008,0.017,0.015,0.116
						c0.003,0.061-0.01,0.106-0.04,0.135c-0.079,0.012-0.177-0.006-0.296-0.053c-0.119-0.045-0.205-0.067-0.255-0.064
						c-0.021,0-0.044,0.003-0.062,0.008l-0.129,0.04l-0.204-2.229l-0.023-0.427c0.169-0.056,0.381-0.093,0.631-0.107
						c0.198-0.011,0.455-0.01,0.771,0.005c0.021-0.042,0.058,0.013,0.104,0.01c0.022,0,0.057,0.002,0.103,0.008
						c0.047,0.007,0.081,0.01,0.104,0.009c0.026-0.002,0.052-0.007,0.074-0.017l0.032-0.033c0.093,0.026,0.142,0.076,0.146,0.145
						c0.001,0.03-0.009,0.082-0.026,0.15c-0.019,0.072-0.027,0.127-0.025,0.164C63.574,233.858,63.583,233.888,63.597,233.913z
						 M62.797,237.634c-0.05,0.025-0.125,0.04-0.225,0.046c-0.134,0.009-0.213,0.015-0.241,0.02c-0.015-0.013-0.03-0.001-0.06-0.119
						c-0.02-0.075-0.067-0.112-0.145-0.105c-0.02,0-0.04,0.001-0.069,0.008l-0.124,0.008l-0.063-1.129
						c0.067-0.032,0.149-0.054,0.25-0.059c0.097-0.006,0.182,0.004,0.256,0.027c-0.002,0.042,0.056,0.06,0.175,0.052l0.13-0.008
						C62.76,236.692,62.807,237.264,62.797,237.634z"></path>
					<path fill="#010101" d="M66.338,234.01l0.007,0.005c-0.064-0.005-0.271,0.009-0.431,0.03c-0.137,0.016-0.239,0.018-0.309,0.006
						c-0.065,0.045-0.09,0.106-0.072,0.182l0.042,0.026c-0.034,0.032-0.047,0.055-0.035,0.073l0.035,0.037
						c-0.008,0.653-0.01,1.015-0.005,1.086c0.01,0.173,0.03,0.324,0.06,0.456c-0.026,0.083-0.037,0.177-0.031,0.284
						c0.005,0.069,0.021,0.18,0.05,0.331c0.029,0.152,0.069,0.649,0.074,0.728c0.003,0.059,0.002,0.114-0.005,0.166
						c-0.062,0.025-0.13,0.04-0.202,0.045c-0.124,0.007-0.257-0.018-0.398-0.077c-0.017,0.016-0.035,0.034-0.058,0.052
						s-0.027,0.036-0.018,0.059c-0.046,0.014-0.108-0.004-0.19-0.056c-0.041-0.662-0.16-2.012-0.336-3.375
						c-0.061,0.056-0.175,0.01-0.292,0.024c-0.142,0.016-0.279-0.007-0.334,0.019c-0.067-0.073-0.053-0.095-0.06-0.217
						c-0.008-0.117-0.045-0.406-0.015-0.528c0.007-0.025,0.262-0.012,0.413-0.024c0.204-0.011,0.251,0.037,0.264,0.037
						c0.016-0.027,0.117-0.015,0.189-0.02c0.048,0.024,0.098-0.021,0.1,0.013c0.002,0.022,0,0.161-0.015,0.201
						c-0.016,0.04-0.024,0.069-0.022,0.089c0.002,0.043,0.034-0.021,0.107,0.005c0.084-0.004,0.169-0.005,0.254-0.01
						c0.099,0.008,0.209-0.027,0.201,0.055c0.016-0.022,0.025,0.018,0.165-0.039c0.104-0.047,0.166-0.167,0.145-0.249
						c-0.011-0.045,0.052-0.075,0.014-0.055c0.048-0.027,0.003-0.008,0.058-0.028c0.17,0.016,0.265-0.002,0.297-0.004
						c0.069-0.005,0.239,0.04,0.288,0.015c0.035,0.064,0.055,0.267,0.056,0.378C66.333,233.903,66.337,233.998,66.338,234.01z"></path>
					<path fill="#010101" d="M68.559,236.312l-0.002-0.005c-0.023,0.049-0.036,0.104-0.038,0.167
						c-0.002,0.041,0.002,0.099,0.01,0.172c0.01,0.084,0.016,0.144,0.018,0.177c-0.037,0.002-0.184,0.01-0.438,0.026
						c-0.156,0.008-0.294,0.028-0.416,0.062l-0.137-0.104c-0.034,0.032-0.047,0.058-0.035,0.075
						c-0.024-0.003-0.129,0.004-0.317,0.018c-0.146,0.01-0.255,0.004-0.33-0.014c-0.069,0.067-0.156,0.072-0.259,0.016
						c-0.039-0.02-0.045-0.058-0.021-0.112c0.024-0.057,0.013-0.095-0.035-0.117c-0.002-0.117,0.003-0.301,0.018-0.55
						c0.015-0.222,0.018-0.396,0.01-0.522c-0.01-0.168-0.037-0.329-0.082-0.481c0.048-0.044,0.103-0.066,0.167-0.069
						c0.072-0.005,0.162,0.018,0.267,0.065c0.145,0.071,0.221,0.104,0.226,0.104l0.043,0.036c0.003-0.01,0.022-0.071,0.058-0.181
						c0.02-0.07,0.052-0.118,0.095-0.143l0.044,0.03c0.018-0.008,0.075-0.047,0.172-0.115c0.075-0.049,0.127-0.229,0.174-0.23
						c0.048-0.005,0.098,0.017,0.146,0.057c0.079,0.029,0.144,0.231,0.172,0.297c0.029,0.066,0.057,0.132,0.084,0.196
						c-0.206,0.02-0.374,0.029-0.508,0.024c-0.029,0.043-0.075,0.053-0.135,0.028c-0.062-0.025-0.104-0.018-0.131,0.021
						c0.005,0.065,0.012,0.185,0.021,0.358c0.005,0.154,0.011,0.276,0.021,0.363c0.013,0.136,0.034,0.26,0.062,0.374
						c0.037-0.003,0.213-0.013,0.521-0.03C68.215,236.293,68.401,236.295,68.559,236.312z M68.345,233.717
						c-0.04,0.005-0.087,0.012-0.137,0.013c-0.104,0.007-0.244,0.004-0.419-0.01c-0.217-0.009-0.347-0.014-0.394-0.016
						c-0.058,0.082-0.067,0.147-0.058,0.288c0.016,0.3,0.027,0.432,0.028,0.39c0.066,0.026,0.102,0.081,0.106,0.161
						c0.001,0.111,0.005,0.166,0.01,0.171c-0.032,0.013-0.045,0.052-0.042,0.114c-0.05-0.013-0.106-0.039-0.162-0.08
						c-0.077-0.05-0.102,0.13-0.1,0.082l-0.034,0.112l-0.043-0.032c-0.035,0.006-0.1-0.005-0.191-0.032
						c-0.09-0.029-0.156-0.057-0.192-0.084c-0.004-0.058,0.004-0.091,0.027-0.101l-0.094-0.072l-0.038,0.053
						c-0.081-0.38-0.136-1.049-0.104-1.456c0.175,0.013,0.379-0.019,0.59-0.026c0.141-0.006,0.34-0.016,0.596-0.035
						c0.292-0.02,0.501-0.035,0.63-0.042c0.056,0.037,0.088,0.09,0.092,0.156c0.001,0.04-0.007,0.105-0.026,0.197
						C68.369,233.56,68.344,233.672,68.345,233.717z"></path>
					<path fill="#010101" d="M70.837,235.921h-0.006c-0.029,0.058-0.039,0.14-0.027,0.244c0.013,0.152,0.019,0.229,0.021,0.232
						c-0.024,0.009-0.053-0.001-0.092-0.033c-0.06,0.022-0.087,0.06-0.083,0.11c0,0.007,0.003,0.02,0.01,0.037
						c0,0.022,0.001,0.037,0.001,0.045c0.003,0.04-0.01,0.071-0.035,0.09c-0.067-0.036-0.154-0.059-0.262-0.07
						c-0.107-0.01-0.211-0.021-0.309-0.03c-0.002-0.5-0.069-0.991-0.201-1.471c0,0.004-0.003-0.046-0.01-0.149
						c0-0.073-0.016-0.125-0.05-0.157l-0.046,0.042c0-0.007,0.014-0.022,0.046-0.044c0.031-0.022,0.045-0.045,0.044-0.067
						c0-0.011-0.003-0.021-0.008-0.033l-0.052-0.035c-0.085,0.027-0.124,0.096-0.117,0.205c0.003,0.074-0.025,0.127-0.089,0.156
						c0.024,0.016,0.037,0.038,0.039,0.064c0.001,0.014-0.002,0.035-0.007,0.059c-0.005,0.027-0.008,0.049-0.006,0.063
						c0.001,0.032,0.018,0.059,0.051,0.08c0.002,0.022,0.013,0.22,0.035,0.596c0.015,0.239,0.009,0.443-0.019,0.609l0.005,0.095
						c-0.031-0.002-0.069-0.002-0.109,0.002c-0.047,0.003-0.112,0.008-0.199,0.019c-0.085,0.01-0.149,0.018-0.191,0.02
						c-0.167,0.01-0.288-0.018-0.355-0.085l-0.07-2.061c-0.034-0.102-0.057-0.243-0.066-0.423l-0.023-0.396
						c-0.017-0.194-0.04-0.346-0.074-0.45c0.015-0.07,0.077-0.111,0.185-0.116c0.071-0.004,0.163,0.005,0.278,0.029
						c0.053-0.027,0.129-0.042,0.224-0.047c0.027-0.001,0.072-0.003,0.13-0.003c0.064-0.003,0.111-0.006,0.138-0.008
						c0.179-0.01,0.298-0.066,0.355-0.164c0.082,0,0.172,0.024,0.269,0.077c0.098,0.055,0.183,0.082,0.257,0.085
						c0.194,0.114,0.299,0.304,0.313,0.57c0.003,0.059-0.02,0.293-0.069,0.701l-0.334,0.29c0.058,0.104,0.125,0.331,0.206,0.681
						C70.598,235.57,70.702,235.784,70.837,235.921z M70.22,233.575l0.007,0.005c0.007,0.026,0.003-0.063-0.008-0.27
						c-0.007-0.102-0.044-0.172-0.109-0.216c-0.037,0.054-0.045-0.072-0.062,0.054c-0.018,0.125-0.049,0.214-0.09,0.269
						c-0.116,0-0.142-0.069-0.211-0.166c-0.043-0.061-0.062-0.008-0.062-0.011l-0.032,0.025c-0.018,0.015-0.037,0.033-0.058,0.053
						c-0.022,0.02-0.045,0.025-0.069,0.021c0.003,0.021-0.008,0.056-0.03,0.104c-0.022,0.047-0.034,0.079-0.032,0.099
						c0.001,0.033,0.028,0.056,0.08,0.072c-0.01,0.075-0.013,0.152-0.008,0.234c0.003,0.044,0.013,0.145,0.032,0.302
						c0.021,0.124,0.028,0.23,0.025,0.32c0.042,0.001,0.079,0,0.116-0.002c0.16-0.01,0.263-0.072,0.312-0.189
						c0.016-0.033,0.035-0.157,0.055-0.368C70.092,233.749,70.142,233.639,70.22,233.575z"></path>
				</g>
				<g>
					<path fill="#010101" d="M48.117,226.414v0.005c-0.021,0.191-0.027,0.324-0.02,0.396c-0.03,0.012-0.068,0.015-0.115,0.007
						c-0.062-0.011-0.097-0.016-0.106-0.015c-0.025,0-0.048,0.01-0.062,0.027c-0.038-0.023-0.064-0.033-0.077-0.03
						c-0.037,0.021-0.053,0.052-0.051,0.092c0.001,0.018,0.008,0.045,0.021,0.087c0.012,0.041,0.018,0.072,0.02,0.091
						c0,0.027-0.005,0.069-0.017,0.127c-0.013,0.059-0.018,0.104-0.016,0.142c0.001,0.042,0.011,0.111,0.028,0.204
						c0.017,0.092,0.024,0.161,0.027,0.209c-0.019,0.09-0.025,0.184-0.022,0.274c0.007,0.114,0.039,0.268,0.095,0.458
						c0.01,0.002,0.02,0.004,0.031,0.002c0.021,0,0.05-0.018,0.082-0.048c0.032-0.031,0.059-0.049,0.082-0.05
						c0.016,0,0.035,0.003,0.056,0.013c0.06,0.192,0.09,0.319,0.094,0.376c0.001,0.027,0.001,0.055,0,0.085
						c-0.091,0.021-0.153-0.01-0.19-0.092c0.005-0.022-0.008-0.048-0.038-0.072l-0.1,0.104c0.097,0.017,0.135,0.09,0.115,0.225
						c-0.008,0.027-0.028,0.042-0.062,0.044c-0.058-0.002-0.083-0.002-0.08-0.002l-0.082-0.146l-0.034,0.042
						c-0.027-0.069-0.058-0.101-0.095-0.1c-0.019,0.002-0.054,0.018-0.105,0.05c-0.05,0.034-0.092,0.05-0.124,0.052
						c-0.027,0.002-0.053-0.005-0.08-0.02c-0.003-0.042-0.008-0.082-0.015-0.125c-0.008-0.044-0.029-0.071-0.067-0.082
						c-0.002-0.104,0.002-0.376,0.01-0.818c0.003-0.332,0-0.604-0.012-0.81c-0.005-0.087-0.01-0.172-0.018-0.254
						c-0.018-0.025-0.035-0.038-0.051-0.038c-0.015,0.001-0.034,0.016-0.062,0.043c-0.027,0.029-0.05,0.042-0.07,0.039
						c-0.002-0.032-0.017-0.087-0.045-0.161c-0.029-0.072-0.044-0.127-0.047-0.159c-0.002-0.058,0.02-0.105,0.064-0.149l0.115,0.029
						c0.047-0.064,0.066-0.177,0.06-0.333c-0.003-0.03-0.007-0.078-0.013-0.143c-0.007-0.064-0.012-0.111-0.013-0.142
						c-0.014-0.257,0.065-0.389,0.236-0.398c0.062-0.003,0.14,0.008,0.23,0.035l0.111,0.029c0.008,0.042,0.015,0.087,0.018,0.133
						c0.003,0.064,0,0.156-0.01,0.278c-0.008,0.124-0.011,0.212-0.008,0.269c0.003,0.092,0.02,0.172,0.047,0.244
						c0.027-0.002,0.068-0.017,0.125-0.044c0.058-0.028,0.098-0.043,0.125-0.045C48.05,226.349,48.089,226.367,48.117,226.414z
						 M47.769,226.772l-0.005-0.115l-0.037-0.032L47.769,226.772z"></path>
					<path fill="#010101" d="M49.489,226.055h0.005c-0.011,0.091-0.025,0.182-0.042,0.272c-0.016,0.104-0.046,0.186-0.086,0.244
						c-0.007-0.003-0.049-0.021-0.124-0.059c-0.052-0.027-0.097-0.037-0.137-0.032c-0.03,0.195-0.047,0.461-0.05,0.798
						c-0.002,0.431-0.005,0.691-0.01,0.781c-0.051-0.003-0.088,0.013-0.112,0.05c-0.025,0.035-0.05,0.072-0.07,0.109
						c-0.009,0.021-0.013,0.04-0.012,0.056c0,0.027,0.022,0.054,0.069,0.077c0.043,0.024,0.065,0.052,0.067,0.082
						c-0.02,0.071-0.062,0.108-0.124,0.111c-0.03,0.002-0.082-0.008-0.157-0.027c-0.072-0.02-0.125-0.029-0.156-0.027l-0.072-1.429
						c0.029-0.037,0.041-0.062,0.037-0.075l-0.042-0.029c0.005-0.06,0.007-0.359,0.01-0.896c0.002-0.364,0.017-0.658,0.042-0.884
						c-0.003,0,0.1-0.006,0.309-0.021c0.129-0.007,0.214,0.03,0.251,0.107c0,0.074-0.007,0.197-0.022,0.371
						c-0.015,0.161-0.02,0.284-0.017,0.371c0.007,0.107,0.022,0.203,0.052,0.289C49.208,226.143,49.34,226.062,49.489,226.055z
						 M49.986,226.359c0.01,0.134,0.018,0.264,0.023,0.391c0.027,0.553,0.02,1.145-0.025,1.773
						c-0.048,0.044-0.122,0.052-0.222,0.027c-0.1-0.022-0.172-0.013-0.215,0.029c-0.059-0.074-0.092-0.206-0.102-0.4
						c-0.015-0.279-0.021-0.424-0.022-0.434c-0.012-0.7,0.058-1.268,0.205-1.698C49.802,226.093,49.92,226.195,49.986,226.359z"></path>
					<path fill="#010101" d="M51.737,227.086c-0.022,0.045-0.032,0.092-0.029,0.14c0.002,0.052,0.005,0.1,0.009,0.146
						c-0.007,0.04-0.017,0.08-0.034,0.123c-0.03-0.009-0.056-0.013-0.077-0.013c-0.022,0.002-0.046,0.01-0.07,0.026
						c-0.024,0.018-0.044,0.025-0.057,0.025c-0.021,0.002-0.046-0.007-0.08-0.021l-0.233-0.34c0.009,0.1,0.031,0.188,0.069,0.264
						c0.018,0.039,0.037,0.077,0.055,0.116c-0.135,0.023-0.212,0.028-0.229,0.011l-0.032,0.044l-0.08-0.106
						c-0.063,0.075-0.077,0.188-0.044,0.338c0.042,0.16,0.044,0.277,0.008,0.35c0.05,0.074,0.109,0.108,0.181,0.106
						c0.03-0.003,0.056-0.013,0.078-0.034c0.032-0.083,0.064-0.164,0.099-0.245c0.048-0.1,0.103-0.151,0.162-0.154
						c0.047-0.004,0.102,0.022,0.164,0.072c0.073,0.027,0.112,0.061,0.115,0.104c0,0.027-0.016,0.07-0.051,0.13
						c-0.036,0.06-0.054,0.107-0.052,0.142c0.001,0.011,0.003,0.023,0.006,0.033c-0.048,0.035-0.09,0.09-0.128,0.161
						c-0.039,0.072-0.089,0.122-0.151,0.149c-0.053,0.051-0.104,0.08-0.149,0.082c-0.037,0.001-0.092-0.026-0.165-0.084
						c-0.072-0.06-0.14-0.085-0.204-0.083c-0.026-0.059-0.092-0.124-0.194-0.195c-0.104-0.072-0.167-0.149-0.193-0.23
						c0.002,0.006,0-0.02-0.001-0.079c-0.004-0.034-0.019-0.057-0.045-0.064l0.036-0.037c-0.05,0-0.073-0.028-0.077-0.087
						c-0.001-0.005-0.001-0.019-0.001-0.04c0.001-0.016,0.001-0.028,0.001-0.04c-0.001-0.038-0.014-0.065-0.038-0.082l-0.01-0.175
						c-0.005-0.09-0.022-0.154-0.055-0.193c0.034-0.212,0.065-0.424,0.098-0.634c0.055-0.248,0.136-0.373,0.241-0.38
						c0.018,0,0.034,0.002,0.05,0.008c0.097-0.095,0.212-0.146,0.349-0.152c0.149-0.008,0.315,0.039,0.497,0.135
						C51.615,226.556,51.702,226.812,51.737,227.086z M51.048,226.533l-0.032,0.043c-0.023,0.004-0.051-0.008-0.081-0.035
						l0.004,0.114c-0.05,0.057-0.07,0.142-0.061,0.259c0.01,0.201,0.015,0.296,0.015,0.289l0.149-0.002
						c0.07-0.041,0.104-0.107,0.1-0.2c-0.002-0.047-0.018-0.124-0.049-0.231C51.062,226.663,51.048,226.586,51.048,226.533z"></path>
				</g>
				<g>
					<polygon fill-rule="evenodd" clip-rule="evenodd" fill="#010101" points="52.909,232.125 53.059,232.212 53.562,230.886 
						53.394,230.83 52.89,232.155 53.036,232.248 52.909,232.125 52.909,232.125 					"></polygon>
					<polygon fill-rule="evenodd" clip-rule="evenodd" fill="#010101" points="53.129,231.941 53.069,231.966 52.909,232.125 
						53.036,232.248 53.199,232.081 53.136,232.113 53.129,231.941 53.129,231.941 					"></polygon>
					<polygon fill-rule="evenodd" clip-rule="evenodd" fill="#010101" points="54.35,231.932 54.423,231.876 53.129,231.941 
						53.136,232.113 54.429,232.048 54.511,231.985 54.35,231.932 54.35,231.932 54.35,231.932 					"></polygon>
					<polygon fill-rule="evenodd" clip-rule="evenodd" fill="#010101" points="54.935,230.714 54.847,230.604 54.35,231.932 
						54.511,231.985 55.014,230.659 54.927,230.55 54.935,230.714 54.935,230.714 54.935,230.714 					"></polygon>
					<polygon fill-rule="evenodd" clip-rule="evenodd" fill="#010101" points="53.702,230.756 53.639,230.788 54.935,230.714 
						54.927,230.55 53.637,230.607 53.572,230.64 53.702,230.756 53.702,230.756 53.702,230.756 					"></polygon>
					<polygon fill-rule="evenodd" clip-rule="evenodd" fill="#010101" points="53.562,230.886 53.544,230.915 53.702,230.756 
						53.572,230.64 53.412,230.801 53.394,230.83 53.562,230.886 53.562,230.886 53.562,230.886 					"></polygon>
					<polygon fill-rule="evenodd" clip-rule="evenodd" fill="#010101" points="54.635,232.089 54.75,232.038 54.474,231.884 
						54.386,232.041 54.67,232.198 54.795,232.143 54.628,232.086 54.628,232.086 54.635,232.089 					"></polygon>
					<polygon fill-rule="evenodd" clip-rule="evenodd" fill="#010101" points="55.178,230.866 55.131,230.761 54.628,232.086 
						54.795,232.143 55.3,230.816 55.253,230.714 55.178,230.866 55.178,230.866 					"></polygon>
					<polygon fill-rule="evenodd" clip-rule="evenodd" fill="#010101" points="55.014,230.659 54.89,230.716 55.178,230.866 
						55.253,230.714 54.977,230.558 54.847,230.604 55.014,230.659 55.014,230.659 					"></polygon>
					<polygon fill="#010101" points="53.482,230.86 53.475,230.857 53.634,230.696 54.834,230.639 54.847,230.604 54.935,230.634 
						55.014,230.659 55.009,230.674 55.22,230.791 55.3,230.816 55.266,230.903 55.854,232.3 55.357,233.629 54.715,232.116 
						54.715,232.116 54.633,232.15 54.628,232.086 54.633,232.07 54.431,231.959 54.386,232.041 54.359,231.962 53.129,232.021 
						52.97,232.181 					"></polygon>
					<polygon fill-rule="evenodd" clip-rule="evenodd" fill="#010101" points="55.277,233.602 55.439,233.594 54.798,232.081 
						54.633,232.15 55.274,233.662 55.437,233.654 55.27,233.598 55.27,233.598 55.277,233.602 					"></polygon>
					<polygon fill-rule="evenodd" clip-rule="evenodd" fill="#010101" points="55.778,232.339 55.773,232.272 55.27,233.598 
						55.437,233.654 55.94,232.33 55.936,232.266 55.778,232.339 55.778,232.339 					"></polygon>
					<polygon fill-rule="evenodd" clip-rule="evenodd" fill="#010101" points="55.3,230.816 55.138,230.825 55.778,232.339 
						55.936,232.266 55.295,230.754 55.131,230.761 55.3,230.816 55.3,230.816 					"></polygon>
					<polygon fill-rule="evenodd" clip-rule="evenodd" fill="#FFFFFF" points="55.256,231.159 55.328,231.316 55.355,231.476 
						55.348,231.633 55.302,231.797 55.221,231.956 55.113,232.098 54.972,232.228 54.8,232.34 54.707,232.38 54.613,232.419 
						54.511,232.438 54.414,232.461 54.321,232.472 54.22,232.483 54.127,232.47 54.03,232.465 53.948,232.446 53.86,232.417 
						53.774,232.38 53.701,232.337 53.637,232.288 53.564,232.237 53.507,232.173 53.458,232.104 53.385,231.948 53.358,231.787 
						53.358,231.627 53.413,231.468 53.482,231.313 53.593,231.164 53.734,231.033 53.913,230.925 54,230.881 54.101,230.843 
						54.196,230.823 54.292,230.803 54.394,230.789 54.486,230.778 54.58,230.789 54.676,230.796 54.763,230.825 54.852,230.855 
						54.932,230.881 55.014,230.928 55.079,230.966 55.15,231.025 55.198,231.095 55.256,231.159 55.256,231.159 55.256,231.159 
											"></polygon>
					<polygon fill-rule="evenodd" clip-rule="evenodd" fill="#010101" points="55.32,231.421 55.392,231.578 55.415,231.745 
						55.409,231.903 55.365,232.058 55.293,232.221 55.173,232.365 55.043,232.492 54.864,232.602 54.77,232.648 54.676,232.688 
						54.58,232.71 54.476,232.73 54.382,232.741 54.292,232.748 54.196,232.741 54.095,232.728 54.011,232.708 53.924,232.679 
						53.847,232.644 53.764,232.599 53.697,232.559 53.637,232.502 53.575,232.446 53.521,232.365 53.447,232.216 53.42,232.058 
						53.431,231.892 53.475,231.737 53.545,231.573 53.656,231.433 53.797,231.302 53.974,231.192 54.07,231.145 54.162,231.112 
						54.26,231.083 54.364,231.065 54.454,231.06 54.548,231.047 54.641,231.06 54.735,231.065 54.827,231.087 54.916,231.115 
						54.993,231.151 55.078,231.189 55.143,231.236 55.215,231.286 55.261,231.356 55.317,231.429 55.317,231.429 55.32,231.421 
											"></polygon>
					<polygon fill-rule="evenodd" clip-rule="evenodd" fill="#FFFFFF" points="55.365,231.604 55.441,231.754 55.464,231.922 
						55.455,232.08 55.414,232.234 55.333,232.393 55.221,232.542 55.091,232.668 54.912,232.777 54.824,232.828 54.723,232.865 
						54.628,232.887 54.523,232.904 54.431,232.918 54.339,232.923 54.244,232.918 54.143,232.902 54.06,232.883 53.973,232.854 
						53.896,232.818 53.812,232.773 53.746,232.733 53.677,232.676 53.625,232.614 53.569,232.542 53.495,232.393 53.468,232.232 
						53.476,232.075 53.521,231.912 53.593,231.75 53.706,231.601 53.852,231.482 54.022,231.368 54.118,231.321 54.212,231.281 
						54.309,231.26 54.411,231.241 54.504,231.229 54.596,231.222 54.7,231.231 54.785,231.241 54.876,231.264 54.964,231.292 
						55.048,231.329 55.123,231.371 55.19,231.413 55.261,231.463 55.31,231.532 55.365,231.604 55.365,231.604 					"></polygon>
					<polygon fill-rule="evenodd" clip-rule="evenodd" fill="#010101" points="55.43,231.864 55.502,232.021 55.528,232.183 
						55.528,232.342 55.475,232.502 55.405,232.658 55.285,232.805 55.151,232.938 54.974,233.047 54.889,233.089 54.787,233.126 
						54.69,233.148 54.596,233.169 54.493,233.181 54.399,233.193 54.309,233.181 54.212,233.174 54.12,233.153 54.033,233.122 
						53.955,233.089 53.873,233.044 53.809,232.995 53.746,232.947 53.687,232.883 53.63,232.812 53.565,232.656 53.532,232.494 
						53.54,232.337 53.585,232.173 53.662,232.021 53.774,231.872 53.916,231.742 54.087,231.632 54.18,231.59 54.272,231.551 
						54.377,231.532 54.474,231.511 54.567,231.496 54.665,231.495 54.76,231.5 54.849,231.501 54.939,231.523 55.026,231.555 
						55.113,231.59 55.188,231.633 55.26,231.685 55.322,231.732 55.382,231.797 55.427,231.874 55.427,231.874 55.43,231.864 					
						"></polygon>
					<polygon fill-rule="evenodd" clip-rule="evenodd" fill="#FFFFFF" points="55.523,232.038 55.599,232.188 55.624,232.348 
						55.621,232.515 55.579,232.671 55.499,232.832 55.378,232.978 55.248,233.104 55.078,233.214 54.981,233.263 54.88,233.299 
						54.784,233.321 54.688,233.343 54.586,233.353 54.496,233.358 54.399,233.353 54.309,233.34 54.217,233.318 54.128,233.29 
						54.051,233.254 53.974,233.219 53.903,233.169 53.841,233.113 53.783,233.049 53.734,232.979 53.659,232.83 53.627,232.66 
						53.637,232.502 53.687,232.35 53.759,232.188 53.87,232.038 54.01,231.916 54.18,231.805 54.274,231.757 54.368,231.715 
						54.471,231.705 54.568,231.677 54.662,231.662 54.76,231.66 54.856,231.665 54.941,231.677 55.033,231.697 55.128,231.729 
						55.205,231.763 55.283,231.799 55.355,231.85 55.415,231.906 55.475,231.971 55.523,232.038 55.523,232.038 					"></polygon>
					<polygon fill-rule="evenodd" clip-rule="evenodd" fill="#010101" points="55.596,232.303 55.658,232.457 55.693,232.619 
						55.684,232.777 55.641,232.939 55.562,233.092 55.45,233.241 55.31,233.373 55.139,233.484 55.046,233.524 54.944,233.562 
						54.849,233.582 54.753,233.604 54.658,233.617 54.558,233.627 54.464,233.614 54.368,233.609 54.286,233.59 54.191,233.558 
						54.112,233.522 54.038,233.48 53.966,233.431 53.903,233.383 53.844,233.318 53.796,233.249 53.725,233.092 53.689,232.93 
						53.697,232.771 53.751,232.611 53.819,232.456 53.931,232.308 54.073,232.176 54.252,232.066 54.337,232.025 54.438,231.988 
						54.535,231.966 54.63,231.944 54.73,231.936 54.824,231.921 54.917,231.936 55.006,231.937 55.105,231.961 55.192,231.991 
						55.27,232.026 55.345,232.068 55.415,232.118 55.479,232.166 55.537,232.23 55.596,232.303 55.596,232.303 55.596,232.303 
											"></polygon>
					<polygon fill-rule="evenodd" clip-rule="evenodd" fill="#010101" points="46.785,230.268 46.793,230.218 46.287,231.55 
						46.446,231.603 46.954,230.271 46.956,230.235 46.785,230.268 46.785,230.268 46.785,230.268 					"></polygon>
					<polygon fill-rule="evenodd" clip-rule="evenodd" fill="#010101" points="46.772,230.2 46.775,230.191 46.785,230.268 
						46.956,230.235 46.938,230.158 46.941,230.15 46.772,230.2 46.772,230.2 46.772,230.2 					"></polygon>
					<polygon fill-rule="evenodd" clip-rule="evenodd" fill="#010101" points="46.753,230.124 46.772,230.2 46.941,230.15 
						46.922,230.073 46.753,230.124 46.753,230.124 46.753,230.124 					"></polygon>
					<polygon fill-rule="evenodd" clip-rule="evenodd" fill="#010101" points="46.732,230.055 46.753,230.124 46.922,230.073 
						46.901,230.004 46.732,230.055 46.732,230.055 					"></polygon>
					<polygon fill-rule="evenodd" clip-rule="evenodd" fill="#010101" points="46.713,229.977 46.713,229.977 46.732,230.055 
						46.901,230.004 46.882,229.927 46.879,229.935 46.713,229.977 46.713,229.977 46.713,229.977 					"></polygon>
					<polygon fill-rule="evenodd" clip-rule="evenodd" fill="#010101" points="46.692,229.882 46.692,229.907 46.713,229.977 
						46.879,229.935 46.857,229.864 46.866,229.895 46.692,229.882 46.692,229.882 					"></polygon>
					<polygon fill-rule="evenodd" clip-rule="evenodd" fill="#010101" points="46.862,229.848 46.695,229.819 46.692,229.882 
						46.866,229.895 46.867,229.833 46.7,229.803 46.859,229.855 46.859,229.855 46.862,229.848 					"></polygon>
					<polygon fill-rule="evenodd" clip-rule="evenodd" fill="#4D494A" points="47.009,233.729 46.993,233.644 46.814,233.672 
						46.827,233.767 47.009,233.729 47.009,233.729 47.009,233.729 					"></polygon>
					<polygon fill-rule="evenodd" clip-rule="evenodd" fill="#010101" points="47.38,232.618 47.385,232.574 46.88,233.9 
						47.041,233.951 47.544,232.628 47.542,232.583 47.38,232.618 47.38,232.618 47.38,232.618 					"></polygon>
					<polygon fill-rule="evenodd" clip-rule="evenodd" fill="#010101" points="47.365,232.523 47.38,232.618 47.542,232.583 
						47.529,232.489 47.357,232.521 47.357,232.521 47.365,232.523 					"></polygon>
					<polygon fill-rule="evenodd" clip-rule="evenodd" fill="#010101" points="47.343,232.437 47.357,232.521 47.529,232.489 
						47.505,232.401 47.343,232.437 47.343,232.437 47.343,232.437 					"></polygon>
					<polygon fill-rule="evenodd" clip-rule="evenodd" fill="#010101" points="47.32,232.34 47.325,232.35 47.343,232.437 
						47.505,232.401 47.491,232.308 47.495,232.319 47.32,232.34 47.32,232.34 47.32,232.34 					"></polygon>
					<polygon fill-rule="evenodd" clip-rule="evenodd" fill="#010101" points="47.481,232.26 47.311,232.237 47.32,232.34 
						47.495,232.319 47.482,232.226 47.312,232.205 47.481,232.26 47.481,232.26 					"></polygon>
					<g>
						<polygon fill="#4D494A" points="46.287,231.286 46.207,231.31 46.287,231.286 						"></polygon>
						<polygon fill="#4D494A" points="46.372,231.563 46.374,231.556 46.416,231.56 46.446,231.603 46.372,231.578 						"></polygon>
						<polygon fill="#010101" points="46.188,231.233 46.274,231.217 46.276,231.156 46.784,229.824 46.78,229.83 46.78,229.883 
							46.793,229.951 46.82,230.031 46.842,230.101 46.859,230.178 46.874,230.243 46.874,230.243 46.954,230.271 46.446,231.603 
							46.416,231.56 46.374,231.556 46.372,231.563 46.372,231.578 46.446,231.603 46.372,231.6 46.374,231.66 46.324,231.596 
							46.281,231.593 46.271,231.518 46.302,231.511 46.334,231.426 46.25,231.45 46.227,231.387 46.207,231.31 46.287,231.286 
							46.287,231.286 46.207,231.31 46.209,231.302 						"></polygon>
					</g>
					<g>
						<polygon fill="none" points="50.312,231.598 50.312,231.598 50.386,231.434 						"></polygon>
						<polygon fill="#010101" points="46.369,231.488 50.079,231.368 50.174,231.371 50.19,231.379 50.282,231.4 50.29,231.403 
							50.386,231.434 50.478,231.474 50.485,231.478 50.574,231.533 50.59,231.538 50.659,231.598 50.682,231.613 50.731,231.673 
							50.736,231.685 50.771,231.74 50.773,231.76 50.611,231.81 50.585,231.768 50.582,231.776 50.54,231.717 50.54,231.717 
							50.482,231.672 50.497,231.685 50.407,231.638 50.407,231.636 50.312,231.598 50.312,231.598 50.233,231.57 50.142,231.55 
							50.159,231.555 50.073,231.543 50.073,231.535 46.374,231.66 						"></polygon>
						<polygon fill="#010101" points="50.606,231.812 50.611,231.81 50.621,231.824 						"></polygon>
					</g>
					<polygon fill-rule="evenodd" clip-rule="evenodd" fill="#010101" points="52.587,234.926 52.587,234.873 52.081,236.207 
						52.25,236.262 52.756,234.93 52.756,234.876 52.587,234.926 52.587,234.926 52.587,234.926 					"></polygon>
					<polygon fill-rule="evenodd" clip-rule="evenodd" fill="#010101" points="51.124,230.499 51.112,230.478 52.587,234.926 
						52.756,234.876 51.281,230.427 51.278,230.408 51.124,230.499 51.124,230.499 51.124,230.499 					"></polygon>
					<polygon fill-rule="evenodd" clip-rule="evenodd" fill="#010101" points="51.095,230.454 51.09,230.442 51.124,230.499 
						51.278,230.408 51.244,230.353 51.236,230.35 51.087,230.45 51.087,230.45 51.095,230.454 					"></polygon>
					<polygon fill-rule="evenodd" clip-rule="evenodd" fill="#010101" points="51.06,230.397 51.047,230.385 51.087,230.45 
						51.236,230.35 51.18,230.278 51.165,230.264 51.06,230.397 51.06,230.397 51.06,230.397 					"></polygon>
					<polygon fill-rule="evenodd" clip-rule="evenodd" fill="#010101" points="51.002,230.36 50.987,230.346 51.06,230.397 
						51.165,230.264 51.095,230.214 51.082,230.2 51.002,230.36 51.002,230.36 					"></polygon>
					<polygon fill-rule="evenodd" clip-rule="evenodd" fill="#010101" points="50.921,230.306 50.913,230.305 51.002,230.36 
						51.082,230.2 50.99,230.151 50.982,230.15 50.921,230.306 50.921,230.306 					"></polygon>
					<polygon fill-rule="evenodd" clip-rule="evenodd" fill="#010101" points="50.836,230.269 50.816,230.272 50.921,230.306 
						50.982,230.15 50.889,230.109 50.881,230.106 50.826,230.273 50.826,230.273 50.836,230.269 					"></polygon>
					<polygon fill-rule="evenodd" clip-rule="evenodd" fill="#010101" points="50.739,230.238 50.729,230.243 50.826,230.273 
						50.881,230.106 50.784,230.074 50.784,230.074 50.736,230.245 50.736,230.245 50.739,230.238 					"></polygon>
					<polygon fill-rule="evenodd" clip-rule="evenodd" fill="#010101" points="50.666,230.221 50.649,230.216 50.736,230.245 
						50.784,230.074 50.687,230.051 50.679,230.047 50.666,230.221 50.666,230.221 50.666,230.221 					"></polygon>
					<polygon fill-rule="evenodd" clip-rule="evenodd" fill="#010101" points="50.579,230.209 50.577,230.218 50.666,230.221 
						50.679,230.047 50.585,230.032 50.574,230.041 50.579,230.209 50.579,230.209 					"></polygon>
					<polygon fill-rule="evenodd" clip-rule="evenodd" fill="#010101" points="46.961,230.273 46.87,230.33 50.579,230.209 
						50.574,230.041 46.874,230.164 46.793,230.218 46.954,230.271 46.954,230.271 46.961,230.273 					"></polygon>
					<polygon fill="#4D494A" points="47.893,234.326 47.88,234.319 47.888,234.316 					"></polygon>
					<g>
						<polygon fill="#4D494A" points="49.896,234.926 49.882,235.106 49.896,234.926 						"></polygon>
						<g>
							<polygon fill="none" points="49.89,235.013 49.882,235.106 49.89,235.013 							"></polygon>
							<g>
								<polygon fill="none" points="46.884,233.569 46.889,233.555 46.892,233.572 								"></polygon>
								<path fill="#010101" d="M46.827,233.767l0.016,0.085l0.032,0.091l0.04,0.067l0.227,0.118l0.227,0.121l0.219,0.117
									l0.221,0.109l0.008,0.003l0.225,0.101l0.224,0.103l0.242,0.099l0.246,0.091l0.007,0.002l0.262,0.07l0.26,0.069l0.01,0.003
									l0.288,0.042l0.296,0.047l0.008,0.002l0.321,0.018l0.011-0.005l0.344,0.01l0.367-0.014l0.39-0.021l0.081-0.053l0.503-1.325
									l-0.085-0.117l0.004,0.172l-0.025-0.033l0.02-0.05l-0.057,0.003l-0.023-0.03l-0.014,0.033l-0.289,0.017h-0.373l-0.344-0.007
									l-0.312-0.016l-0.308-0.041l-0.286-0.05l-0.262-0.07l-0.26-0.069l-0.244-0.091l-0.238-0.089l-0.224-0.102l-0.222-0.109
									l-0.229-0.11l-0.219-0.119l-0.217-0.117l-0.152-0.08l0.005-0.013l-0.079-0.027l0,0l-0.022-0.095l-0.016-0.087l-0.007-0.029
									l0.062-0.13l-0.086-0.027l-0.003-0.002l0,0l-0.08-0.025l-0.505,1.324l-0.005,0.043l0.013,0.094L46.827,233.767z
									 M46.889,233.555l0.003,0.018l-0.008-0.003L46.889,233.555z"></path>
							</g>
						</g>
					</g>
					<polygon fill-rule="evenodd" clip-rule="evenodd" fill="#010101" points="51.429,233.793 51.817,233.771 51.813,233.6 
						51.424,233.622 51.429,233.793 51.429,233.793 51.429,233.793 					"></polygon>
					<polygon fill-rule="evenodd" clip-rule="evenodd" fill="#010101" points="51.062,233.802 51.429,233.793 51.424,233.622 
						51.056,233.632 51.062,233.802 51.062,233.802 51.062,233.802 					"></polygon>
					<polygon fill-rule="evenodd" clip-rule="evenodd" fill="#010101" points="50.711,233.793 50.719,233.793 51.062,233.802 
						51.056,233.632 50.714,233.624 50.724,233.619 50.708,233.799 50.708,233.799 50.711,233.793 					"></polygon>
					<polygon fill-rule="evenodd" clip-rule="evenodd" fill="#010101" points="50.38,233.771 50.388,233.773 50.708,233.799 
						50.724,233.619 50.4,233.598 50.408,233.603 50.38,233.771 50.38,233.771 50.38,233.771 					"></polygon>
					<polygon fill-rule="evenodd" clip-rule="evenodd" fill="#010101" points="50.081,233.733 50.38,233.771 50.408,233.603 
						50.113,233.557 50.081,233.733 50.081,233.733 					"></polygon>
					<polygon fill-rule="evenodd" clip-rule="evenodd" fill="#010101" points="49.787,233.68 49.797,233.684 50.081,233.733 
						50.113,233.557 49.817,233.512 49.825,233.513 49.787,233.68 49.787,233.68 49.787,233.68 					"></polygon>
					<polygon fill-rule="evenodd" clip-rule="evenodd" fill="#010101" points="49.526,233.609 49.787,233.68 49.825,233.513 
						49.565,233.443 49.523,233.617 49.523,233.617 49.526,233.609 					"></polygon>
					<polygon fill-rule="evenodd" clip-rule="evenodd" fill="#010101" points="49.255,233.547 49.263,233.548 49.523,233.617 
						49.565,233.443 49.303,233.375 49.312,233.378 49.255,233.547 49.255,233.547 					"></polygon>
					<polygon fill-rule="evenodd" clip-rule="evenodd" fill="#010101" points="49.009,233.455 49.009,233.455 49.255,233.547 
						49.312,233.378 49.065,233.286 49.075,233.29 49.003,233.452 49.003,233.452 49.009,233.455 					"></polygon>
					<polygon fill-rule="evenodd" clip-rule="evenodd" fill="#010101" points="48.767,233.357 49.003,233.452 49.075,233.29 
						48.841,233.193 48.767,233.357 48.767,233.357 					"></polygon>
					<polygon fill-rule="evenodd" clip-rule="evenodd" fill="#010101" points="48.543,233.254 48.767,233.357 48.841,233.193 
						48.612,233.099 48.543,233.254 48.543,233.254 					"></polygon>
					<polygon fill-rule="evenodd" clip-rule="evenodd" fill="#010101" points="48.315,233.142 48.319,233.154 48.543,233.254 
						48.612,233.099 48.384,232.989 48.393,232.991 48.312,233.149 48.312,233.149 48.315,233.142 					"></polygon>
					<polygon fill-rule="evenodd" clip-rule="evenodd" fill="#010101" points="48.094,233.034 48.312,233.149 48.393,232.991 
						48.171,232.882 48.092,233.041 48.092,233.041 48.094,233.034 					"></polygon>
					<polygon fill-rule="evenodd" clip-rule="evenodd" fill="#010101" points="47.875,232.915 48.092,233.041 48.171,232.882 
						47.952,232.765 47.867,232.914 47.867,232.914 47.875,232.915 					"></polygon>
					<polygon fill-rule="evenodd" clip-rule="evenodd" fill="#010101" points="47.648,232.796 47.867,232.914 47.952,232.765 
						47.733,232.646 47.648,232.796 47.648,232.796 					"></polygon>
					<polygon fill-rule="evenodd" clip-rule="evenodd" fill="#010101" points="47.544,232.628 47.422,232.676 47.648,232.796 
						47.733,232.646 47.509,232.526 47.385,232.574 47.544,232.628 47.544,232.628 47.544,232.628 					"></polygon>
					<polygon fill-rule="evenodd" clip-rule="evenodd" fill="#010101" points="70.643,230.226 70.137,231.56 71.792,232.112 
						72.176,231.227 72.186,231.142 72.188,231.053 72.176,230.96 72.142,230.87 72.089,230.789 72.047,230.703 71.978,230.619 
						71.905,230.542 71.832,230.472 71.748,230.399 71.663,230.335 71.581,230.29 71.501,230.236 71.407,230.196 71.325,230.151 
						71.245,230.124 71.173,230.101 71.086,230.091 71.011,230.082 70.936,230.094 70.861,230.104 70.781,230.129 70.712,230.178 
						70.643,230.226 70.643,230.226 70.643,230.226 					"></polygon>
					<polygon fill-rule="evenodd" clip-rule="evenodd" fill="#010101" points="71.716,232.07 71.82,232.023 70.165,231.473 
						70.109,231.64 71.765,232.19 71.875,232.148 71.716,232.07 71.716,232.07 					"></polygon>
					<g>
						<polygon fill="none" points="72.036,232.452 72.046,232.542 72.036,232.452 						"></polygon>
						<polygon fill="none" points="72.889,231.561 72.95,231.618 72.884,231.572 						"></polygon>
						<g>
							<polygon fill="none" points="72.95,231.618 72.884,231.572 72.889,231.561 							"></polygon>
							<g>
								<polygon fill="none" points="72.95,231.618 72.884,231.572 72.889,231.561 								"></polygon>
								<polygon fill="#010101" points="46.188,231.152 46.195,231.129 46.7,229.803 46.859,229.855 46.371,231.165 46.361,231.219 
									46.359,231.201 46.188,231.233 46.187,231.214 								"></polygon>
								<g>
									<polygon fill="none" points="72.95,231.618 72.884,231.572 72.889,231.561 									"></polygon>
									<polygon fill="#4D494A" points="54.302,234.289 54.272,234.307 54.27,234.305 									"></polygon>
									<g>
										<polygon fill="none" points="54.334,234.366 54.396,234.427 54.334,234.366 										"></polygon>
										<polygon fill="none" points="72.95,231.618 72.884,231.572 72.889,231.561 										"></polygon>
										<polygon fill="none" points="52.161,236.232 52.168,236.232 52.168,236.235 52.081,236.207 52.153,236.207 										"></polygon>
										<path fill="#010101" d="M46.25,231.45l0.018,0.077l0.004-0.01l0.128-0.026l-0.032,0.086l3.709-0.122l0.088,0.003
											l0.095,0.033l0.097,0.031l0.097,0.032l0.088,0.055l0.071,0.051l0.051,0.062l0.031,0.062l-0.087,0.027l1.475,4.448h0.087
											l0.002,0.055h0.133l0.126-0.002l0.113,0.002l0.104-0.018l0.106-0.027l0.106-0.052l0.1-0.083l0.117-0.113l0.001-0.008
											l0.067-0.093l0.077-0.099l0.089-0.104l0.061-0.104l0.077-0.126l0.081-0.105l0.065-0.119l0.085-0.126l0.069-0.1l0.1-0.108
											l0.08-0.106l0.094-0.095l0.082-0.087l0.088-0.079l0.085-0.067l0.099-0.057l0.021-0.012l-0.062-0.061l0,0l0.062,0.061
											l0.1-0.108l0.09-0.086l0.081-0.078l0.086-0.071l0.082-0.061l0.087-0.052l0.077-0.045l0.087-0.042l0.095-0.021l0.094-0.04
											l0.096-0.022l0.111-0.015l0.123-0.022l0.137-0.008l0.146-0.013l0.143-0.005l0.01,0.003l16.006-1.199l0.095-0.011
											l0.085-0.018l0.077-0.018l0.08-0.026l0.074-0.038l0.077-0.045l0.063-0.06l0.074-0.064l0.017-0.02l0.279-0.653
											l-0.145-0.094l0.064,0.063l-0.01,0.008l-0.072-0.05l-0.069,0.164l-0.048,0.027l-0.062,0.025l-0.072,0.028l-0.065,0.014
											l-0.086,0.016l-0.085,0.017l-16.015,1.193l-0.103,0.01l-0.099,0.003l-0.098,0.003l-0.104,0.017h-0.105l-0.094,0.016
											l-0.101,0.01l-0.094,0.013l-0.104,0.02l-0.093,0.013l-0.095,0.021l-0.108,0.027l-0.096,0.021l-0.102,0.039l-0.102,0.036
											l-0.096,0.049l-0.188,0.114l-0.192,0.177l-0.203,0.207l-0.194,0.237l-0.189,0.248l-0.162,0.222l-0.159,0.213l-0.133,0.16
											l-0.079,0.018l-0.066,0.015l-0.083,0.008h-0.079h-0.08l-0.069-0.006l-0.088-0.003l-0.077-0.009l-1.469-4.437l-0.034-0.064
											l-0.05-0.062l-0.07-0.05l-0.098-0.058l-0.094-0.041l-0.095-0.033l-0.092-0.021l-0.088-0.001l-3.705,0.112l-0.447,1.173
											l-0.001-0.016L46.25,231.45z M72.884,231.572l0.005-0.012l0.062,0.058L72.884,231.572z"></path>
									</g>
								</g>
							</g>
						</g>
					</g>
					<polygon fill-rule="evenodd" clip-rule="evenodd" fill="#010101" points="72.323,231.899 72.42,231.877 72.505,231.861 
						72.582,231.842 72.662,231.816 72.736,231.777 72.815,231.734 72.874,231.683 72.95,231.618 72.823,231.496 72.767,231.558 
						72.707,231.601 72.651,231.635 72.59,231.659 72.53,231.675 72.462,231.695 72.388,231.707 72.306,231.715 72.323,231.899 
						72.323,231.899 					"></polygon>
					<polygon fill-rule="evenodd" clip-rule="evenodd" fill="#010101" points="56.318,233.087 72.323,231.899 72.306,231.715 
						56.299,232.91 56.318,233.087 56.318,233.087 					"></polygon>
					<polygon fill-rule="evenodd" clip-rule="evenodd" fill="#010101" points="54.75,233.371 54.844,233.333 54.934,233.299 
						55.043,233.266 55.134,233.233 55.232,233.204 55.325,233.191 55.419,233.177 55.523,233.159 55.608,233.142 55.706,233.141 
						55.808,233.131 55.908,233.119 56.01,233.108 56.1,233.104 56.211,233.095 56.318,233.087 56.299,232.91 56.196,232.922 
						56.097,232.933 55.989,232.933 55.888,232.942 55.788,232.945 55.693,232.967 55.594,232.97 55.484,232.978 55.39,232.999 
						55.293,233.02 55.19,233.039 55.083,233.064 54.993,233.097 54.884,233.132 54.774,233.166 54.678,233.214 54.75,233.371 
						54.75,233.371 54.75,233.371 					"></polygon>
					<polygon fill-rule="evenodd" clip-rule="evenodd" fill="#010101" points="53.315,234.955 53.351,234.931 53.423,234.849 
						53.485,234.764 53.562,234.666 53.644,234.559 53.734,234.446 53.816,234.331 53.91,234.21 54.003,234.092 54.1,233.965 
						54.197,233.854 54.294,233.752 54.392,233.644 54.476,233.555 54.58,233.484 54.665,233.415 54.75,233.371 54.678,233.214 
						54.568,233.276 54.476,233.343 54.366,233.431 54.264,233.529 54.167,233.63 54.07,233.731 53.965,233.865 53.87,233.985 
						53.776,234.104 53.684,234.225 53.602,234.341 53.51,234.451 53.43,234.559 53.353,234.656 53.29,234.743 53.23,234.812 
						53.263,234.794 53.315,234.955 53.315,234.955 53.315,234.955 					"></polygon>
					<polygon fill="none" points="70.607,230.303 70.643,230.226 70.707,230.168 70.802,230.119 70.914,230.104 70.976,230.106 
						71.046,230.111 71.112,230.124 71.178,230.139 71.258,230.166 71.33,230.19 71.407,230.224 71.489,230.269 71.559,230.301 
						71.631,230.353 71.695,230.399 71.766,230.458 71.837,230.508 71.887,230.571 71.949,230.626 71.999,230.688 72.092,230.808 
						72.141,230.931 72.164,230.992 72.177,231.032 72.169,231.137 72.149,231.219 72.092,231.287 72.007,231.329 71.893,231.354 
						71.828,231.36 71.763,231.346 71.684,231.339 71.602,231.319 71.529,231.296 71.451,231.269 71.364,231.233 71.29,231.189 
						71.213,231.154 71.13,231.109 71.058,231.06 70.989,231 70.926,230.952 70.858,230.886 70.8,230.821 70.749,230.759 
						70.667,230.634 70.618,230.512 70.605,230.472 70.591,230.404 					"></polygon>
					<polygon fill-rule="evenodd" clip-rule="evenodd" fill="#FFFFFF" points="50.25,230.136 50.579,230.131 50.606,230.131 
						47.769,229.183 47.626,229.268 50.246,230.144 50.246,230.144 50.25,230.136 					"></polygon>
					<polygon fill-rule="evenodd" clip-rule="evenodd" fill="#FFFFFF" points="50.25,230.136 46.874,230.243 46.859,230.178 
						46.842,230.101 46.82,230.031 46.793,229.951 46.78,229.883 46.78,229.83 46.802,229.766 46.859,229.723 46.999,229.628 
						47.153,229.538 47.308,229.446 47.462,229.356 47.609,229.262 47.626,229.268 50.246,230.144 50.246,230.144 50.25,230.136 
											"></polygon>
					<polygon fill="#FFFFFF" points="48.198,232.188 50.497,232.059 51.396,232.422 51.715,233.362 51.812,233.688 51.429,233.711 
						51.056,233.711 50.712,233.704 50.399,233.688 50.092,233.647 49.806,233.598 49.544,233.527 49.284,233.458 49.04,233.367 
						48.802,233.278 48.578,233.177 48.356,233.067 48.127,232.957 47.908,232.838 47.691,232.721 47.465,232.601 47.442,232.506 
						47.427,232.419 47.405,232.324 47.393,232.23 					"></polygon>
					<polygon fill-rule="evenodd" clip-rule="evenodd" fill="#FFFFFF" points="53.99,232.451 54.022,232.489 54.318,232.668 
						54.414,232.514 54.118,232.335 54.147,232.38 53.99,232.451 54.001,232.472 54.022,232.489 53.99,232.451 53.99,232.451 					
						"></polygon>
					<polygon fill-rule="evenodd" clip-rule="evenodd" fill="#FFFFFF" points="51.36,232.507 51.31,232.446 51.731,233.714 
						51.898,233.662 51.478,232.393 51.433,232.343 51.478,232.393 51.464,232.354 51.433,232.343 51.36,232.507 51.36,232.507 
						51.36,232.507 					"></polygon>
					<polygon fill-rule="evenodd" clip-rule="evenodd" fill="#FFFFFF" points="50.505,232.143 50.462,232.136 51.36,232.507 
						51.433,232.343 50.535,231.974 50.5,231.971 50.535,231.974 50.518,231.969 50.5,231.971 50.505,232.143 50.505,232.143 
						50.505,232.143 					"></polygon>
					<polygon fill-rule="evenodd" clip-rule="evenodd" fill="#FFFFFF" points="47.482,232.226 47.397,232.32 50.505,232.143 
						50.5,231.971 47.393,232.15 47.311,232.237 47.393,232.15 47.295,232.152 47.311,232.237 47.482,232.226 47.482,232.226 					
						"></polygon>
					<polygon fill-rule="evenodd" clip-rule="evenodd" fill="#FFFFFF" points="47.509,232.526 47.542,232.583 47.539,232.538 
						47.529,232.489 47.526,232.444 47.514,232.404 47.51,232.359 47.499,232.312 47.486,232.271 47.482,232.226 47.311,232.237 
						47.31,232.292 47.319,232.348 47.332,232.387 47.335,232.432 47.348,232.472 47.357,232.521 47.377,232.571 47.38,232.618 
						47.422,232.676 47.38,232.618 47.393,232.656 47.422,232.676 47.509,232.526 47.509,232.526 					"></polygon>
					<polygon fill-rule="evenodd" clip-rule="evenodd" fill="#FFFFFF" points="51.732,233.706 51.805,233.598 51.424,233.622 
						51.056,233.632 50.724,233.619 50.4,233.598 50.113,233.557 49.825,233.513 49.565,233.443 49.312,233.378 49.065,233.286 
						48.841,233.193 48.612,233.099 48.393,232.991 48.171,232.882 47.952,232.765 47.733,232.646 47.509,232.526 47.422,232.676 
						47.648,232.796 47.867,232.914 48.092,233.041 48.312,233.149 48.543,233.254 48.767,233.357 49.009,233.455 49.255,233.547 
						49.523,233.617 49.787,233.68 50.081,233.733 50.388,233.773 50.708,233.799 51.062,233.802 51.429,233.793 51.826,233.773 
						51.898,233.662 51.826,233.773 51.937,233.766 51.898,233.662 51.731,233.714 51.731,233.714 51.732,233.706 					"></polygon>
					<g>
						<polygon fill="none" points="53.341,234.835 53.405,234.897 53.341,234.835 						"></polygon>
						<polygon fill="none" points="52.751,234.812 52.735,234.812 52.735,234.812 						"></polygon>
						<polygon fill="none" points="51.306,230.497 53.637,231.276 51.306,230.497 						"></polygon>
					</g>
					<polygon fill-rule="evenodd" clip-rule="evenodd" fill="#FFFFFF" points="56.299,232.91 56.182,232.917 56.05,232.935 
						55.933,232.939 55.806,232.95 55.682,232.972 55.552,232.991 55.422,233.01 55.295,233.039 55.171,233.067 55.062,233.104 
						54.941,233.142 54.829,233.186 54.734,233.233 54.62,233.285 54.525,233.351 54.44,233.42 54.548,233.555 54.63,233.492 
						54.71,233.439 54.798,233.388 54.899,233.351 54.997,233.294 55.104,233.268 55.229,233.238 55.338,233.204 55.459,233.191 
						55.564,233.164 55.693,233.154 55.815,233.132 55.945,233.113 56.074,233.104 56.193,233.091 56.318,233.087 56.299,232.91 
						56.299,232.91 56.299,232.91 					"></polygon>
					<polygon fill-rule="evenodd" clip-rule="evenodd" fill="#FFFFFF" points="72.306,231.715 56.299,232.91 56.318,233.087 
						72.323,231.899 72.306,231.715 72.306,231.715 					"></polygon>
					<polygon fill-rule="evenodd" clip-rule="evenodd" fill="#FFFFFF" points="72.603,230.738 72.671,230.831 72.739,230.918 
						72.771,231.008 72.823,231.097 72.849,231.177 72.856,231.259 72.858,231.329 72.854,231.4 72.836,231.456 72.809,231.51 
						72.773,231.561 72.712,231.61 72.649,231.643 72.547,231.68 72.44,231.707 72.306,231.715 72.323,231.899 72.47,231.886 
						72.598,231.849 72.709,231.805 72.809,231.75 72.9,231.69 72.963,231.604 72.998,231.527 73.03,231.433 73.028,231.333 
						73.033,231.237 73.011,231.142 72.976,231.033 72.938,230.938 72.883,230.831 72.815,230.721 72.744,230.635 72.603,230.738 
						72.603,230.738 					"></polygon>
					<polygon fill-rule="evenodd" clip-rule="evenodd" fill="#FFFFFF" points="70.695,229.825 70.841,229.82 70.986,229.835 
						71.136,229.867 71.279,229.888 71.415,229.933 71.552,229.979 71.681,230.041 71.805,230.099 71.933,230.168 72.049,230.243 
						72.176,230.32 72.266,230.395 72.36,230.479 72.455,230.572 72.532,230.661 72.603,230.738 72.744,230.635 72.662,230.535 
						72.569,230.442 72.476,230.35 72.372,230.261 72.258,230.179 72.144,230.096 72.026,230.021 71.893,229.941 71.755,229.877 
						71.611,229.82 71.469,229.772 71.317,229.723 71.167,229.688 71.016,229.666 70.842,229.652 70.69,229.653 70.695,229.825 
						70.695,229.825 					"></polygon>
					<polygon fill-rule="evenodd" clip-rule="evenodd" fill="#FFFFFF" points="56.533,230.313 70.695,229.825 70.69,229.653 
						56.535,230.146 56.533,230.313 56.533,230.313 					"></polygon>
					<polygon fill-rule="evenodd" clip-rule="evenodd" fill="#FFFFFF" points="54.297,229.959 54.431,230.012 54.571,230.041 
						54.708,230.086 54.849,230.116 54.997,230.148 55.138,230.186 55.288,230.209 55.425,230.229 55.566,230.258 55.713,230.271 
						55.855,230.293 55.997,230.295 56.134,230.313 56.276,230.308 56.407,230.317 56.533,230.313 56.535,230.146 56.402,230.146 
						56.271,230.139 56.149,230.132 56.012,230.123 55.872,230.111 55.733,230.101 55.599,230.081 55.454,230.06 55.312,230.031 
						55.178,230.012 55.038,229.975 54.895,229.954 54.757,229.915 54.608,229.877 54.486,229.845 54.352,229.8 54.296,229.967 
						54.296,229.967 54.297,229.959 					"></polygon>
					<polygon fill-rule="evenodd" clip-rule="evenodd" fill="#FFFFFF" points="49.521,228.647 49.763,228.614 49.991,228.592 
						50.209,228.575 50.41,228.562 50.599,228.555 50.771,228.575 50.945,228.582 51.092,228.595 51.244,228.619 51.386,228.649 
						51.519,228.675 51.638,228.715 51.767,228.757 51.867,228.8 51.993,228.85 52.091,228.901 52.205,228.958 52.32,229.014 
						52.434,229.078 52.544,229.143 52.656,229.205 52.773,229.28 52.888,229.337 53.014,229.414 53.151,229.479 53.285,229.559 
						53.435,229.616 53.579,229.692 53.739,229.763 53.916,229.824 54.104,229.902 54.296,229.967 54.352,229.8 54.159,229.733 
						53.97,229.663 53.812,229.601 53.647,229.536 53.495,229.459 53.365,229.398 53.231,229.317 53.1,229.257 52.973,229.188 
						52.853,229.12 52.741,229.058 52.624,228.981 52.512,228.918 52.397,228.861 52.284,228.807 52.18,228.744 52.065,228.688 
						51.939,228.638 51.822,228.59 51.694,228.547 51.56,228.501 51.418,228.473 51.273,228.45 51.115,228.416 50.953,228.397 
						50.786,228.396 50.59,228.393 50.403,228.393 50.188,228.398 49.97,228.416 49.738,228.445 49.499,228.471 49.512,228.645 
						49.512,228.645 49.521,228.647 					"></polygon>
					<polygon fill-rule="evenodd" clip-rule="evenodd" fill="#FFFFFF" points="46.906,229.802 47.044,229.705 47.198,229.613 
						47.353,229.525 47.51,229.426 47.654,229.34 47.817,229.252 47.97,229.17 48.125,229.098 48.294,229.021 48.461,228.943 
						48.627,228.874 48.797,228.814 48.981,228.77 49.149,228.72 49.334,228.675 49.512,228.645 49.499,228.471 49.298,228.511 
						49.11,228.547 48.923,228.598 48.747,228.647 48.572,228.722 48.389,228.786 48.225,228.854 48.057,228.932 47.886,229.018 
						47.724,229.105 47.571,229.188 47.417,229.279 47.263,229.369 47.108,229.459 46.962,229.554 46.814,229.646 46.897,229.8 
						46.897,229.8 46.906,229.802 					"></polygon>
					<polygon fill-rule="evenodd" clip-rule="evenodd" fill="#FFFFFF" points="46.874,230.164 46.964,230.238 46.938,230.158 
						46.922,230.073 46.901,230.004 46.882,229.927 46.87,229.878 46.862,229.848 46.877,229.81 46.897,229.8 46.814,229.646 
						46.737,229.718 46.697,229.811 46.688,229.897 46.713,229.977 46.732,230.055 46.753,230.124 46.775,230.191 46.787,230.259 
						46.87,230.33 46.787,230.259 46.79,230.33 46.87,230.33 46.874,230.164 46.874,230.164 					"></polygon>
					<g>
						<polygon fill="none" points="53.412,230.801 53.413,230.803 53.391,230.891 						"></polygon>
						<polygon fill="#FFFFFF" points="53.415,230.793 53.413,230.803 53.412,230.801 						"></polygon>
						<polygon fill="#FFFFFF" points="53.375,230.833 53.412,230.801 53.391,230.891 						"></polygon>
						<g>
							<polygon fill="none" points="70.643,230.226 70.707,230.168 70.802,230.119 70.914,230.104 70.976,230.106 71.046,230.111 
								71.112,230.124 71.178,230.139 71.258,230.166 71.33,230.19 71.407,230.224 71.489,230.269 71.559,230.301 71.631,230.353 
								71.695,230.399 71.766,230.458 71.837,230.508 71.887,230.571 71.949,230.626 71.999,230.688 72.092,230.808 72.141,230.931 
								72.164,230.992 72.177,231.032 72.169,231.137 72.149,231.219 72.092,231.287 72.007,231.329 71.893,231.354 71.828,231.36 
								71.763,231.346 71.684,231.339 71.602,231.319 71.529,231.296 71.451,231.269 71.364,231.233 71.29,231.189 71.213,231.154 
								71.13,231.109 71.058,231.06 70.989,231 70.926,230.952 70.858,230.886 70.8,230.821 70.749,230.759 70.667,230.634 
								70.618,230.512 70.605,230.472 70.591,230.404 70.607,230.303 							"></polygon>
							<polygon fill="none" points="55.216,230.789 55.216,230.789 55.138,230.825 							"></polygon>
							<polygon fill="none" points="55.791,232.243 55.848,232.29 55.854,232.3 55.701,232.489 54.363,232.586 54.073,232.417 
								54.072,232.414 54.147,232.38 53.579,230.881 53.672,230.786 54.89,230.716 55.147,230.851 55.778,232.339 							"></polygon>
							<polygon fill="none" points="51.229,230.338 51.229,230.338 53.466,231.085 							"></polygon>
							<g>
								<polygon fill="none" points="70.643,230.226 70.707,230.168 70.802,230.119 70.914,230.104 70.976,230.106 71.046,230.111 
									71.112,230.124 71.178,230.139 71.258,230.166 71.33,230.19 71.407,230.224 71.489,230.269 71.559,230.301 71.631,230.353 
									71.695,230.399 71.766,230.458 71.837,230.508 71.887,230.571 71.949,230.626 71.999,230.688 72.092,230.808 
									72.141,230.931 72.164,230.992 72.177,231.032 72.169,231.137 72.149,231.219 72.092,231.287 72.007,231.329 
									71.893,231.354 71.828,231.36 71.763,231.346 71.684,231.339 71.602,231.319 71.529,231.296 71.451,231.269 71.364,231.233 
									71.29,231.189 71.213,231.154 71.13,231.109 71.058,231.06 70.989,231 70.926,230.952 70.858,230.886 70.8,230.821 
									70.749,230.759 70.667,230.634 70.618,230.512 70.605,230.472 70.591,230.404 70.607,230.303 								"></polygon>
								<polygon fill="none" points="54.89,230.716 55.147,230.851 55.778,232.339 55.791,232.243 55.848,232.29 55.854,232.3 
									55.701,232.489 54.363,232.586 54.073,232.417 54.072,232.414 54.147,232.38 53.579,230.881 53.672,230.786 								"></polygon>
								<polygon fill="none" points="51.229,230.338 51.229,230.338 53.466,231.085 								"></polygon>
								<g>
									<polygon fill="none" points="70.643,230.226 70.707,230.168 70.802,230.119 70.914,230.104 70.976,230.106 71.046,230.111 
										71.112,230.124 71.178,230.139 71.258,230.166 71.33,230.19 71.407,230.224 71.489,230.269 71.559,230.301 71.631,230.353 
										71.695,230.399 71.766,230.458 71.837,230.508 71.887,230.571 71.949,230.626 71.999,230.688 72.092,230.808 
										72.141,230.931 72.164,230.992 72.177,231.032 72.169,231.137 72.149,231.219 72.092,231.287 72.007,231.329 
										71.893,231.354 71.828,231.36 71.763,231.346 71.684,231.339 71.602,231.319 71.529,231.296 71.451,231.269 
										71.364,231.233 71.29,231.189 71.213,231.154 71.13,231.109 71.058,231.06 70.989,231 70.926,230.952 70.858,230.886 
										70.8,230.821 70.749,230.759 70.667,230.634 70.618,230.512 70.605,230.472 70.591,230.404 70.607,230.303 									"></polygon>
									<polygon fill="none" points="54.89,230.716 55.147,230.851 55.778,232.339 55.791,232.243 55.848,232.29 55.854,232.3 
										55.703,232.488 55.693,232.407 54.356,232.502 54.414,232.514 54.369,232.584 54.363,232.586 54.073,232.417 
										54.072,232.414 54.147,232.38 53.579,230.881 53.672,230.786 									"></polygon>
									<polygon fill="none" points="51.229,230.338 51.229,230.338 53.466,231.085 									"></polygon>
									<g>
										<polygon fill="none" points="55.825,232.008 58.36,232.853 55.825,232.008 										"></polygon>
										<polygon fill="none" points="55.759,231.852 58.681,232.827 55.759,231.852 										"></polygon>
										<polygon fill="none" points="70.643,230.226 70.707,230.168 70.802,230.119 70.914,230.104 70.976,230.106 
											71.046,230.111 71.112,230.124 71.178,230.139 71.258,230.166 71.33,230.19 71.407,230.224 71.489,230.269 
											71.559,230.301 71.631,230.353 71.695,230.399 71.766,230.458 71.837,230.508 71.887,230.571 71.949,230.626 
											71.999,230.688 72.092,230.808 72.141,230.931 72.164,230.992 72.177,231.032 72.169,231.137 72.149,231.219 
											72.092,231.287 72.007,231.329 71.893,231.354 71.828,231.36 71.763,231.346 71.684,231.339 71.602,231.319 
											71.529,231.296 71.451,231.269 71.364,231.233 71.29,231.189 71.213,231.154 71.13,231.109 71.058,231.06 70.989,231 
											70.926,230.952 70.858,230.886 70.8,230.821 70.749,230.759 70.667,230.634 70.618,230.512 70.605,230.472 
											70.591,230.404 70.607,230.303 										"></polygon>
										<polygon fill="none" points="54.89,230.716 55.147,230.851 55.778,232.339 55.791,232.243 55.848,232.29 55.854,232.3 
											55.703,232.488 55.701,232.489 54.369,232.584 54.363,232.586 54.073,232.417 54.072,232.414 54.147,232.38 
											53.579,230.881 53.672,230.786 										"></polygon>
										<polygon fill="none" points="51.229,230.338 51.229,230.338 53.466,231.085 										"></polygon>
										<polygon fill="#FFFFFF" points="55.759,231.852 58.681,232.827 58.364,232.846 58.36,232.853 55.825,232.008 										
											"></polygon>
										<g>
											<polygon fill="none" points="70.643,230.226 70.707,230.168 70.802,230.119 70.914,230.104 70.976,230.106 
												71.046,230.111 71.112,230.124 71.178,230.139 71.258,230.166 71.33,230.19 71.407,230.224 71.489,230.269 
												71.559,230.301 71.631,230.353 71.695,230.399 71.766,230.458 71.837,230.508 71.887,230.571 71.949,230.626 
												71.999,230.688 72.092,230.808 72.141,230.931 72.164,230.992 72.177,231.032 72.169,231.137 72.149,231.219 
												72.092,231.287 72.007,231.329 71.893,231.354 71.828,231.36 71.763,231.346 71.684,231.339 71.602,231.319 
												71.529,231.296 71.451,231.269 71.364,231.233 71.29,231.189 71.213,231.154 71.13,231.109 71.058,231.06 70.989,231 
												70.926,230.952 70.858,230.886 70.8,230.821 70.749,230.759 70.667,230.634 70.618,230.512 70.605,230.472 
												70.591,230.404 70.607,230.303 											"></polygon>
											<polygon fill="none" points="54.89,230.716 55.147,230.851 55.758,232.288 55.663,232.409 54.356,232.502 
												54.414,232.514 54.369,232.584 54.363,232.586 54.073,232.417 54.072,232.414 54.147,232.38 53.579,230.881 
												53.672,230.786 											"></polygon>
											<polygon fill="none" points="55.791,232.243 55.848,232.29 55.848,232.29 											"></polygon>
											<polygon fill="none" points="51.229,230.338 51.229,230.338 53.466,231.085 											"></polygon>
											<path fill="#FFFFFF" d="M46.87,230.33l3.709-0.121l0.078,0.009l0.071,0.025l0.098,0.03l0.087,0.031l0.079,0.053
												l0.06,0.037l0.035,0.056l0.025,0.027l1.475,4.448l0.023,0.069l0.072-0.003l0.073-0.01l0.085,0.01l0.104,0.01l0.099-0.004
												l0.096,0.005l0.089-0.023l0.098-0.029l0.079-0.053l0.097-0.104l0.08-0.105l0.075-0.09l0.074-0.09l0.064-0.086
												l0.061-0.077l0.054-0.081l0.063-0.085l0.054-0.08l0.061-0.077l0.062-0.077l0.067-0.067l0.069-0.074l0.08-0.08l0.08-0.08
												l0.102-0.089l-0.055-0.069l0.08-0.065l0.092-0.058l0.104-0.047l0.095-0.048l0.104-0.044l0.117-0.033l0.119-0.041
												l0.117-0.03l0.112-0.016l0.122-0.022l0.13-0.018l0.124-0.021l0.127-0.011l0.129-0.012l0.12-0.013l0.117-0.005
												l2.057-0.149l-2.535-0.845l-0.066-0.156l0,0l2.922,0.976l13.638-1.019l0.254-0.041l0.189-0.088l0.131-0.125l0.046-0.144
												v-0.16l0.004-0.009l-0.045-0.183l-0.091-0.184l-0.132-0.194l-0.077-0.087l-0.085-0.091l-0.093-0.092l-0.099-0.079
												l-0.104-0.088l-0.116-0.074l-0.125-0.077l-0.127-0.079l-0.134-0.053l-0.13-0.061l-0.145-0.049l-0.151-0.05l-0.143-0.021
												l-0.151-0.034l-0.154-0.016l-0.151,0.003l-2.06,0.075l-12.096,0.415h-0.133l-0.126,0.003l-0.142-0.003L56,230.208
												l-0.138-0.012l-0.14-0.011l-0.136-0.02l-0.145-0.021l-0.143-0.021l-0.142-0.028l-0.142-0.031l-0.141-0.028l-0.146-0.039
												l-0.139-0.038l-0.132-0.035l-0.135-0.046l-0.192-0.063l-0.188-0.072l-0.165-0.063l-0.166-0.065l-0.145-0.074
												l-0.138-0.062l-0.144-0.077l-0.132-0.061l-0.125-0.077l-0.111-0.064l-0.12-0.066l-0.111-0.063l-0.12-0.066l-0.11-0.064
												l-0.108-0.053l-0.112-0.065l-0.114-0.055l-0.117-0.049l-0.112-0.038l-0.127-0.042l-0.137-0.045l-0.13-0.035l-0.145-0.021
												l-0.151-0.023l-0.154-0.017l-0.173-0.013l-0.186-0.01l-0.188,0.01l-0.198,0.005l-0.22,0.022l-0.229,0.022l-0.251,0.032
												l-0.187,0.025l-0.185,0.045l-0.185,0.045l-0.171,0.06l-0.18,0.064l-0.173,0.066l-0.164,0.068l-0.169,0.077l-0.161,0.081
												l-0.162,0.088l2.589,0.864l-3.483,0.117L46.87,230.33z M70.591,230.404l0.017-0.102l0.035-0.077l0.064-0.058l0.095-0.049
												l0.112-0.016l0.062,0.003l0.07,0.005l0.066,0.013l0.065,0.015l0.08,0.027l0.072,0.024l0.077,0.033l0.082,0.045
												l0.069,0.032l0.072,0.052l0.064,0.047l0.07,0.059l0.071,0.05l0.05,0.063l0.062,0.055l0.05,0.062l0.093,0.119l0.049,0.123
												l0.023,0.062l0.013,0.04l-0.008,0.104l-0.02,0.082l-0.058,0.068l-0.085,0.042l-0.114,0.024l-0.064,0.007l-0.065-0.015
												l-0.079-0.007l-0.082-0.02l-0.072-0.023l-0.078-0.027l-0.087-0.035l-0.074-0.044l-0.077-0.035l-0.083-0.045l-0.072-0.05
												L70.989,231l-0.063-0.048l-0.067-0.066l-0.059-0.064l-0.051-0.062l-0.082-0.125l-0.049-0.122l-0.013-0.04L70.591,230.404
												z M55.848,232.29L55.848,232.29l-0.057-0.047L55.848,232.29z M53.579,230.881l0.093-0.095l1.218-0.07l0.258,0.135
												l0.61,1.438l-0.095,0.121l-1.307,0.093l0.058,0.012l-0.045,0.07l-0.006,0.002l-0.29-0.169l-0.001-0.003l0.075-0.034
												L53.579,230.881z"></path>
										</g>
									</g>
								</g>
							</g>
						</g>
					</g>
					<polygon fill-rule="evenodd" clip-rule="evenodd" fill="#010101" points="69.767,231.329 69.693,231.287 69.681,231.22 
						69.786,231.192 69.809,231.264 69.744,231.215 69.767,231.329 69.767,231.329 					"></polygon>
					<polygon fill-rule="evenodd" clip-rule="evenodd" fill="#010101" points="69.913,231.244 69.897,231.267 69.87,231.292 
						69.838,231.309 69.806,231.324 69.767,231.329 69.744,231.215 69.761,231.22 69.784,231.202 69.813,231.192 69.816,231.187 
						69.811,231.202 69.91,231.252 69.91,231.252 69.913,231.244 					"></polygon>
					<polygon fill-rule="evenodd" clip-rule="evenodd" fill="#010101" points="69.611,230.576 69.619,230.577 69.671,230.639 
						69.736,230.706 69.801,230.78 69.862,230.863 69.911,230.952 69.94,231.05 69.942,231.156 69.91,231.252 69.811,231.202 
						69.833,231.137 69.828,231.074 69.809,230.997 69.761,230.928 69.708,230.848 69.649,230.783 69.582,230.716 69.531,230.654 
						69.539,230.657 69.611,230.576 69.611,230.576 					"></polygon>
					<polygon fill-rule="evenodd" clip-rule="evenodd" fill="#010101" points="68.631,230.291 68.623,230.288 68.765,230.291 
						68.897,230.291 69.023,230.315 69.142,230.33 69.264,230.36 69.38,230.418 69.499,230.484 69.611,230.576 69.539,230.657 
						69.43,230.585 69.325,230.524 69.228,230.475 69.121,230.445 69.004,230.427 68.883,230.412 68.761,230.407 68.636,230.408 
						68.639,230.402 68.62,230.298 68.62,230.298 68.631,230.291 					"></polygon>
					<polygon fill-rule="evenodd" clip-rule="evenodd" fill="#010101" points="58.233,230.838 58.278,230.808 68.62,230.298 
						68.639,230.402 58.295,230.92 58.34,230.891 58.233,230.838 58.233,230.838 					"></polygon>
					<polygon fill-rule="evenodd" clip-rule="evenodd" fill="#010101" points="57.987,231.199 57.875,231.162 57.884,231.085 
						57.906,231.021 57.937,230.952 57.979,230.903 58.034,230.87 58.106,230.841 58.187,230.813 58.278,230.808 58.295,230.92 
						58.208,230.936 58.133,230.955 58.094,230.96 58.057,230.992 58.039,231.021 58.009,231.057 57.992,231.104 57.996,231.175 
						57.884,231.138 57.987,231.199 57.987,231.199 					"></polygon>
					<g>
						<polygon fill="none" points="58.278,230.811 58.295,230.92 58.278,230.811 						"></polygon>
						<g>
							<polygon fill="none" points="57.996,231.175 58.009,231.109 58.041,231.04 58.068,230.987 58.124,230.952 58.19,230.938 
								58.283,230.925 58.295,230.92 68.639,230.402 68.811,230.415 68.956,230.408 69.092,230.428 69.216,230.452 69.331,230.508 
								69.435,230.569 69.531,230.654 69.64,230.78 69.736,230.893 69.806,231.005 69.839,231.087 69.839,231.14 69.816,231.187 
								69.751,231.227 69.624,231.256 69.449,231.276 58.818,231.824 58.811,231.821 58.661,231.816 58.515,231.776 58.385,231.715 
								58.272,231.65 58.179,231.558 58.113,231.463 58.054,231.373 58.009,231.296 58.001,231.239 							"></polygon>
							<g>
								<path fill="none" d="M58.009,231.109l-0.013,0.065l0.005,0.064l0.008,0.057l0.045,0.077l0.06,0.09l0.065,0.095l0.094,0.093
									l0.112,0.064l0.13,0.062l0.146,0.04l0.149,0.005l0.008,0.003l10.631-0.548l0.175-0.021l0.127-0.029l0.065-0.04l0.022-0.047
									v-0.053l-0.033-0.082l-0.069-0.112l-0.097-0.112l-0.108-0.126l-0.097-0.085l-0.104-0.062l-0.115-0.056l-0.124-0.024
									l-0.136-0.02l-0.146,0.007l-0.172-0.013l-10.344,0.518l-0.012,0.005l-0.093,0.013l-0.066,0.015l-0.056,0.035l-0.027,0.053
									L58.009,231.109z M58.155,231.043l10.346-0.519l0.005-0.017l0.138,0.012h0.134l0.125,0.022l0.121,0.015l0.122,0.032
									l0.113,0.056l0.113,0.062l0.118,0.096l0.045,0.048l0.042,0.042l0.037,0.048l0.03,0.035l0.045,0.054l0.036,0.054l0.03,0.046
									l0.028,0.046l0.002,0.018l-0.105,0.027l0.003,0.02l-0.027-0.053l-0.029-0.047l-0.04-0.04l-0.029-0.045l-0.031-0.037
									l-0.037-0.048l-0.04-0.04l-0.049-0.042l0.004-0.004l-0.095-0.072l-0.102-0.068l-0.102-0.044l-0.105-0.027l-0.118-0.021
									l-0.118-0.013l-0.132-0.008l-0.126,0.003l-10.341,0.511L58.155,231.043z"></path>
								<g>
									<path fill="none" d="M58.009,231.109l-0.013,0.065l0.005,0.064l0.008,0.057l0.045,0.077l0.06,0.09l0.065,0.095l0.094,0.093
										l0.112,0.064l0.13,0.062l0.146,0.04l0.149,0.005l0.008,0.003l10.631-0.548l0.175-0.021l0.127-0.029l0.065-0.04l0.022-0.047
										v-0.053l-0.033-0.082l-0.069-0.112l-0.097-0.112l-0.108-0.126l-0.097-0.085l-0.104-0.062l-0.115-0.056l-0.124-0.024
										l-0.136-0.02l-0.146,0.007l-0.172-0.013l-10.344,0.518l-0.012,0.005l-0.093,0.013l-0.066,0.015l-0.056,0.035l-0.027,0.053
										L58.009,231.109z"></path>
									<g>
										<polygon fill="none" points="58.041,231.04 58.068,230.987 58.124,230.952 58.19,230.938 58.251,230.93 58.166,231.092 
											68.511,230.571 68.644,230.571 68.766,230.577 68.893,230.602 69.012,230.614 69.126,230.645 69.235,230.689 
											69.345,230.762 69.452,230.843 69.489,230.889 69.527,230.93 69.566,230.976 69.606,231.018 69.636,231.062 
											69.674,231.11 69.703,231.156 69.736,231.212 69.741,231.229 69.624,231.256 69.449,231.276 58.818,231.824 
											58.811,231.821 58.661,231.816 58.515,231.776 58.385,231.715 58.272,231.65 58.179,231.558 58.113,231.463 
											58.054,231.373 58.009,231.296 58.001,231.239 57.996,231.175 58.009,231.109 										"></polygon>
										<polygon fill="#010101" points="69.703,231.156 69.674,231.11 69.636,231.062 69.606,231.018 69.566,230.976 
											69.527,230.93 69.489,230.889 69.452,230.843 69.345,230.762 69.235,230.689 69.126,230.645 69.012,230.614 
											68.893,230.602 68.766,230.577 68.644,230.571 68.511,230.571 58.166,231.092 58.251,230.93 58.283,230.925 
											58.295,230.92 68.639,230.402 68.811,230.415 68.956,230.408 69.092,230.428 69.216,230.452 69.331,230.508 
											69.435,230.569 69.531,230.654 69.64,230.78 69.736,230.893 69.806,231.005 69.839,231.087 69.839,231.14 69.816,231.187 
											69.751,231.227 69.741,231.229 69.736,231.212 										"></polygon>
										<g>
											<polygon fill="none" points="58.014,231.098 58.021,231.097 58.076,231.097 58.166,231.092 58.253,230.93 
												58.283,230.925 58.295,230.92 68.639,230.402 68.811,230.415 68.956,230.408 69.092,230.428 69.216,230.452 
												69.331,230.508 69.435,230.569 69.531,230.654 69.64,230.78 69.736,230.893 69.806,231.005 69.839,231.087 
												69.839,231.14 69.816,231.187 69.751,231.227 69.741,231.229 69.624,231.256 69.449,231.276 58.818,231.824 
												58.811,231.821 58.661,231.816 58.515,231.776 58.385,231.715 58.272,231.65 58.179,231.558 58.113,231.463 
												58.054,231.373 58.009,231.296 58.001,231.239 57.996,231.175 58.009,231.109 											"></polygon>
											<path fill="#010101" d="M57.875,231.162l0.012,0.102l0.021,0.069l0.029,0.098l0.069,0.114l0.085,0.09l0.109,0.1
												l0.132,0.087l0.146,0.067l0.154,0.042h0.187l10.627-0.54l0.203-0.021l0.143-0.032l0.106-0.07l0.058-0.098l-0.003-0.099
												l-0.041-0.118l-0.076-0.116l-0.106-0.133l-0.109-0.126l-0.117-0.101l-0.125-0.077l-0.122-0.06l-0.134-0.026l-0.161-0.027
												h-0.158l-0.182,0.012l-10.342,0.51v0.003l-0.109,0.006l-0.112,0.042l-0.073,0.064l-0.052,0.072l-0.034,0.077
												L57.875,231.162z M57.996,231.175l0.013-0.065l0.005-0.012l0.008-0.001h0.055l0.09-0.005l0.087-0.162l0.03-0.005
												l0.012-0.005l10.344-0.518l0.172,0.013l0.146-0.007l0.136,0.02l0.124,0.024l0.115,0.056l0.104,0.062l0.097,0.085
												l0.108,0.126l0.097,0.112l0.069,0.112l0.033,0.082v0.053l-0.022,0.047l-0.065,0.04l-0.01,0.002l-0.117,0.027
												l-0.175,0.021l-10.631,0.548l-0.008-0.003l-0.149-0.005l-0.146-0.04l-0.13-0.062l-0.112-0.064l-0.094-0.093l-0.065-0.095
												l-0.06-0.09l-0.045-0.077l-0.008-0.057L57.996,231.175z"></path>
										</g>
									</g>
								</g>
							</g>
						</g>
					</g>
				</g>
			</g>
		</g>
		<g>
			
			<path fill="none" stroke="#F8A51C" stroke-width="0.7497" d="M170.665,149.25"></path>
			<path fill="none" stroke="#F8A51C" stroke-width="0.7497" d="M122.499,149.25"></path>
			<line fill="none" stroke="#EC2024" stroke-miterlimit="10" x1="128.269" y1="89.682" x2="165.019" y2="89.682"></line>
			<line fill="none" stroke="#919395" stroke-width="0.7497" x1="124.399" y1="104.62" x2="175.394" y2="104.62"></line>
			
				<line fill="none" stroke="#2FA4DD" stroke-width="0.7497" stroke-dasharray="5" x1="123.56" y1="59.869" x2="155.491" y2="59.869"></line>
			<g>
				<path fill="#E9262D" d="M127.571,54.669c0,0.308-0.141,0.609-0.42,0.901l-0.043,0.044l-2.441,2.575
					c-0.52,0.546-0.961,0.967-1.326,1.265c-0.365,0.299-0.623,0.447-0.771,0.447c-0.158,0-0.355-0.074-0.59-0.223
					c-0.234-0.149-0.385-0.303-0.455-0.461c-0.057-0.133-0.111-0.412-0.164-0.839c-0.051-0.427-0.076-0.891-0.076-1.389
					c0-0.271,0.113-0.522,0.34-0.754c0.227-0.23,0.477-0.346,0.75-0.346c0.262,0,0.416,0.239,0.467,0.716
					c0.006,0.056,0.01,0.097,0.012,0.123c0.043,0.366,0.092,0.622,0.146,0.768c0.055,0.145,0.131,0.217,0.225,0.217
					c0.039,0,0.113-0.042,0.223-0.128c0.107-0.086,0.236-0.202,0.387-0.351l2.51-2.487c0.211-0.211,0.398-0.37,0.564-0.479
					s0.307-0.162,0.422-0.162c0.088,0,0.148,0.033,0.188,0.099c0.035,0.065,0.055,0.177,0.055,0.332V54.669z"></path>
			</g>
			<g>
				<path fill="#E9262D" d="M128.481,83.9c0,0.309-0.141,0.609-0.42,0.901l-0.043,0.044l-2.441,2.574
					c-0.52,0.546-0.961,0.968-1.326,1.266c-0.365,0.299-0.623,0.447-0.771,0.447c-0.158,0-0.355-0.074-0.59-0.224
					c-0.234-0.148-0.385-0.303-0.455-0.461c-0.057-0.132-0.111-0.411-0.164-0.838c-0.051-0.428-0.076-0.891-0.076-1.389
					c0-0.271,0.113-0.522,0.34-0.753c0.227-0.231,0.477-0.346,0.75-0.346c0.262,0,0.418,0.237,0.467,0.715
					c0.006,0.056,0.01,0.097,0.012,0.123c0.043,0.366,0.092,0.622,0.146,0.768c0.055,0.145,0.131,0.217,0.225,0.217
					c0.041,0,0.113-0.042,0.223-0.128c0.107-0.086,0.236-0.202,0.387-0.351l2.51-2.487c0.211-0.211,0.398-0.37,0.564-0.479
					s0.307-0.162,0.422-0.162c0.088,0,0.15,0.033,0.188,0.099c0.035,0.065,0.055,0.177,0.055,0.332V83.9z"></path>
			</g>
			<g>
				<path fill="#E9262D" d="M124.36,98.45c0,0.309-0.141,0.609-0.42,0.902l-0.043,0.044l-2.441,2.574
					c-0.52,0.546-0.961,0.968-1.326,1.266s-0.623,0.446-0.771,0.446c-0.158,0-0.355-0.073-0.59-0.223s-0.385-0.303-0.455-0.461
					c-0.057-0.132-0.111-0.411-0.164-0.839c-0.051-0.427-0.076-0.89-0.076-1.388c0-0.271,0.113-0.523,0.34-0.754
					s0.477-0.346,0.75-0.346c0.262,0,0.416,0.239,0.467,0.716c0.006,0.056,0.01,0.096,0.012,0.123
					c0.043,0.366,0.092,0.622,0.146,0.767c0.055,0.146,0.131,0.218,0.225,0.218c0.041,0,0.113-0.043,0.223-0.128
					c0.107-0.086,0.236-0.202,0.387-0.352l2.51-2.487c0.211-0.211,0.398-0.369,0.564-0.479c0.166-0.107,0.307-0.162,0.422-0.162
					c0.088,0,0.148,0.034,0.188,0.099c0.035,0.066,0.055,0.178,0.055,0.333V98.45z"></path>
			</g>
		</g>
		<g>
			
			<line fill="none" stroke="#636466" stroke-miterlimit="10" x1="2.834" y1="188.996" x2="50.25" y2="188.996"></line>
			<g>
				<path fill="#E9262D" d="M57.706,181.93c0,0.308-0.141,0.609-0.42,0.901l-0.043,0.044l-2.441,2.575
					c-0.52,0.546-0.961,0.967-1.326,1.265c-0.365,0.299-0.623,0.447-0.771,0.447c-0.158,0-0.355-0.074-0.59-0.223
					c-0.234-0.149-0.385-0.303-0.455-0.461c-0.057-0.133-0.111-0.412-0.164-0.839c-0.051-0.427-0.076-0.891-0.076-1.389
					c0-0.271,0.113-0.522,0.34-0.754c0.227-0.23,0.477-0.346,0.75-0.346c0.262,0,0.416,0.239,0.467,0.716
					c0.006,0.056,0.01,0.097,0.012,0.123c0.043,0.366,0.092,0.622,0.146,0.768c0.055,0.145,0.131,0.217,0.225,0.217
					c0.039,0,0.113-0.042,0.223-0.128c0.107-0.086,0.236-0.202,0.387-0.351l2.51-2.487c0.211-0.211,0.398-0.37,0.564-0.479
					s0.307-0.162,0.422-0.162c0.088,0,0.148,0.033,0.188,0.099c0.035,0.065,0.055,0.177,0.055,0.332V181.93z"></path>
			</g>
		</g>
	</g>
	<g>
		<linearGradient id="SVGID_1_" gradientUnits="userSpaceOnUse" x1="0" y1="197.3623" x2="2.834" y2="197.3623">
			<stop offset="0" style="stop-color:#B3B3B3"></stop>
			<stop offset="0.4331" style="stop-color:#737373"></stop>
			<stop offset="0.8902" style="stop-color:#B3B3B3"></stop>
		</linearGradient>
		
			<rect y="183.189" fill="url(#SVGID_1_)" stroke="#231F20" stroke-width="0.5" stroke-miterlimit="10" width="2.834" height="28.346"></rect>
		<linearGradient id="SVGID_2_" gradientUnits="userSpaceOnUse" x1="0" y1="72.6387" x2="2.834" y2="72.6387">
			<stop offset="0" style="stop-color:#B3B3B3"></stop>
			<stop offset="0.4331" style="stop-color:#737373"></stop>
			<stop offset="0.8902" style="stop-color:#B3B3B3"></stop>
		</linearGradient>
		
			<rect y="58.465" fill="url(#SVGID_2_)" stroke="#231F20" stroke-width="0.5" stroke-miterlimit="10" width="2.834" height="28.348"></rect>
	</g>
</g>
</svg>