<svg version="1.1" xmlns="http://www.w3.org/2000/svg" xmlns:xlink="http://www.w3.org/1999/xlink" x="0px" y="0px" width="1275" height="975" viewBox="0 0 1275 975" enable-background="new 0 0 306 234" xml:space="preserve">
<g id="Outlines">
	<polygon fill="#929497" points="0,233.999 306.001,233.999 306.001,-0.001 0,-0.001 0,233.999 	"></polygon>
	<rect x="9" y="9" fill="#FFFFFF" stroke="#ED1C24" stroke-miterlimit="10" width="288" height="216"></rect>
	<rect x="18" y="17.999" fill="none" stroke="#2DA6DE" stroke-dasharray="1.44" width="270" height="198"></rect>
</g>
<g id="Text">
	<g>
		<rect x="92.846" y="23.315" fill="#E7E7E7" width="185.545" height="18.41"></rect>
		
	</g>
	
	<rect x="278.999" y="178.09" fill="#F9A61C" width="27.001" height="26.084"></rect>
	<line fill="none" stroke="#F9A61C" x1="235.714" y1="178.589" x2="299.993" y2="178.589"></line>
	<line fill="none" stroke="#EB242B" x1="244.749" y1="99.164" x2="297.22" y2="99.164"></line>
	<line fill="none" stroke="#929497" x1="238.249" y1="119.082" x2="300.749" y2="119.082"></line>
	<line fill="none" stroke="#2DA6DE" stroke-dasharray="1.44" x1="242.47" y1="59.414" x2="288" y2="59.414"></line>
	<g>
		<path fill="#EB242B" d="M242.481,52.479c0,0.411-0.187,0.812-0.559,1.202l-0.059,0.059l-3.259,3.434
			c-0.692,0.728-1.282,1.289-1.769,1.687c-0.487,0.398-0.831,0.597-1.031,0.597c-0.211,0-0.473-0.1-0.786-0.298
			c-0.312-0.199-0.515-0.403-0.606-0.614c-0.077-0.177-0.15-0.549-0.219-1.118s-0.103-1.188-0.103-1.852
			c0-0.362,0.151-0.697,0.453-1.005c0.303-0.308,0.637-0.461,1.002-0.461c0.349,0,0.556,0.318,0.622,0.954
			c0.008,0.074,0.013,0.129,0.017,0.164c0.056,0.488,0.121,0.829,0.194,1.023c0.074,0.192,0.175,0.289,0.301,0.289
			c0.053,0,0.151-0.057,0.296-0.171c0.144-0.114,0.316-0.27,0.517-0.467l3.349-3.317c0.281-0.28,0.532-0.493,0.754-0.638
			s0.409-0.216,0.564-0.216c0.116,0,0.198,0.044,0.248,0.131c0.049,0.088,0.073,0.236,0.073,0.443V52.479z"></path>
	</g>
	<g>
		<path fill="#EB242B" d="M243.696,91.455c0,0.411-0.187,0.812-0.559,1.202l-0.059,0.059l-3.259,3.433
			c-0.692,0.728-1.282,1.29-1.769,1.688c-0.487,0.397-0.831,0.596-1.031,0.596c-0.211,0-0.473-0.099-0.786-0.298
			c-0.312-0.198-0.515-0.403-0.606-0.614c-0.077-0.176-0.15-0.549-0.219-1.118s-0.103-1.187-0.103-1.851
			c0-0.362,0.151-0.697,0.453-1.005c0.303-0.308,0.637-0.461,1.002-0.461c0.349,0,0.556,0.317,0.622,0.954
			c0.008,0.074,0.013,0.128,0.017,0.164c0.056,0.488,0.121,0.829,0.194,1.022c0.074,0.193,0.175,0.29,0.301,0.29
			c0.053,0,0.151-0.057,0.296-0.171c0.144-0.114,0.316-0.27,0.517-0.468l3.349-3.316c0.281-0.281,0.532-0.493,0.754-0.638
			s0.409-0.217,0.564-0.217c0.116,0,0.198,0.045,0.248,0.132c0.049,0.088,0.073,0.236,0.073,0.443V91.455z"></path>
	</g>
	<g>
		<path fill="#EB242B" d="M238.196,110.855c0,0.411-0.187,0.812-0.559,1.202l-0.059,0.059l-3.259,3.433
			c-0.692,0.728-1.282,1.29-1.769,1.688c-0.487,0.397-0.831,0.596-1.031,0.596c-0.211,0-0.473-0.099-0.786-0.298
			c-0.312-0.198-0.515-0.403-0.606-0.614c-0.077-0.176-0.15-0.548-0.219-1.118c-0.068-0.569-0.103-1.187-0.103-1.851
			c0-0.362,0.151-0.697,0.453-1.005c0.303-0.308,0.637-0.461,1.002-0.461c0.349,0,0.556,0.318,0.622,0.954
			c0.008,0.074,0.013,0.128,0.017,0.164c0.056,0.488,0.121,0.829,0.194,1.022c0.074,0.193,0.175,0.29,0.301,0.29
			c0.053,0,0.151-0.057,0.296-0.171c0.144-0.114,0.316-0.27,0.517-0.468l3.349-3.316c0.281-0.281,0.532-0.493,0.754-0.639
			c0.222-0.144,0.409-0.216,0.564-0.216c0.116,0,0.198,0.045,0.248,0.132c0.049,0.088,0.073,0.236,0.073,0.443V110.855z"></path>
	</g>
	<g>
		<path fill="#EB242B" d="M235.481,171.455c0,0.412-0.187,0.812-0.559,1.203l-0.059,0.06l-3.259,3.432
			c-0.692,0.728-1.282,1.29-1.769,1.688c-0.487,0.398-0.831,0.595-1.031,0.595c-0.211,0-0.473-0.1-0.786-0.297
			c-0.312-0.199-0.515-0.403-0.606-0.614c-0.077-0.176-0.15-0.549-0.219-1.117c-0.068-0.57-0.103-1.188-0.103-1.853
			c0-0.361,0.151-0.697,0.453-1.003c0.303-0.31,0.637-0.462,1.002-0.462c0.349,0,0.556,0.317,0.622,0.954
			c0.008,0.074,0.013,0.128,0.017,0.164c0.056,0.487,0.121,0.829,0.194,1.023c0.074,0.192,0.175,0.288,0.301,0.288
			c0.053,0,0.151-0.056,0.296-0.172c0.144-0.112,0.316-0.27,0.517-0.465l3.349-3.318c0.281-0.281,0.532-0.494,0.754-0.637
			c0.222-0.145,0.409-0.216,0.564-0.216c0.116,0,0.198,0.042,0.248,0.13c0.049,0.088,0.073,0.236,0.073,0.443V171.455z"></path>
	</g>
	
	<g>
		<circle fill-rule="evenodd" clip-rule="evenodd" fill="#010101" cx="49.341" cy="136.306" r="23.98"></circle>
		<circle fill-rule="evenodd" clip-rule="evenodd" fill="#B7D334" cx="49.358" cy="136.438" r="21.8"></circle>
		<g>
			<path fill="#010101" d="M44.69,131.685c-0.302,2.671-0.527,4.818-0.677,6.438l-0.994,0.044c0.015-0.054,0.021-0.115,0.023-0.183
				c0.002-0.121-0.043-0.281-0.134-0.479c-0.092-0.197-0.144-0.323-0.156-0.377c-0.257,0.037-0.504,0.216-0.738,0.533
				c-0.236,0.321-0.449,0.481-0.638,0.479c-0.107-0.005-0.229-0.033-0.363-0.088c-0.178,0.118-0.408,0.169-0.692,0.151
				c-0.256-0.046-0.506-0.083-0.748-0.114c-0.009-0.34-0.341-0.635-0.999-0.89c0.003-0.136-0.065-0.336-0.203-0.603
				c-0.138-0.266-0.205-0.452-0.202-0.561c0.001-0.121,0.05-0.222,0.146-0.302c-0.014-0.04-0.125-0.293-0.332-0.757
				c-0.143-0.341-0.212-0.632-0.209-0.874c0.004-0.189,0.047-0.364,0.132-0.525c-0.116-1.151-0.167-2.14-0.152-2.963
				c0.021-1.271,0.202-2.438,0.546-3.501c-0.024-0.163-0.035-0.325-0.033-0.486c0.016-0.852,0.31-1.441,0.882-1.771l0.005-0.263
				c0.566-0.722,1.312-1.242,2.236-1.564c0.554,0.132,1.104,0.255,1.657,0.374c0.618,0.212,1.045,0.578,1.278,1.096
				c0.188,0.112,0.279,0.337,0.273,0.673c-0.006,0.38,0.037,0.624,0.129,0.733l-0.104,0.119c0.108,0.8,0.161,1.287,0.158,1.463
				c-0.009,0.515-0.144,0.877-0.403,1.089c-0.095-0.001-0.344-0.086-0.746-0.256c-0.097,0.093-0.199,0.139-0.307,0.137
				c-0.055-0.001-0.152-0.031-0.293-0.087c-0.141-0.057-0.26-0.084-0.354-0.086c-0.067-0.001-0.137,0.011-0.203,0.036
				c-0.009-1.067,0.024-1.864,0.101-2.392c-0.106-0.068-0.215-0.229-0.325-0.471c-0.112-0.246-0.255-0.384-0.429-0.414
				c-0.111,0.135-0.16,0.222-0.147,0.263l-0.363-0.128c-0.33,0.359-0.55,0.984-0.659,1.874c-0.112,1.026-0.252,1.705-0.42,2.041
				c0.146,0.151,0.217,0.362,0.211,0.632c-0.001,0.095-0.017,0.251-0.048,0.465c-0.032,0.217-0.047,0.379-0.048,0.487
				c-0.003,0.122,0.008,0.23,0.034,0.325l-0.247,0.239c0.1,0.461,0.157,1.044,0.173,1.748c-0.01,0.594-0.014,1.188-0.01,1.783
				c-0.014,0-0.129,0.004-0.345,0.016c-0.135-0.004-0.231,0.042-0.286,0.136c0.081-0.012,0.155-0.019,0.223-0.016
				c0.297,0.004,0.53,0.215,0.698,0.63c0.17,0.415,0.314,0.624,0.437,0.627c0.135,0.001,0.319-0.124,0.554-0.379
				c0.398-0.425,0.605-1.01,0.618-1.752c0.007-0.365-0.034-0.758-0.122-1.178c-0.096,0.051-0.146,0.187-0.148,0.402
				c-0.217-0.003-0.354,0.042-0.409,0.134c-0.093-0.028-0.133-0.104-0.117-0.223c0.017-0.176,0.024-0.271,0.024-0.285
				c0.164-0.05,0.245-0.124,0.248-0.219c0-0.04-0.028-0.116-0.088-0.225c-0.059-0.108-0.087-0.196-0.087-0.266
				c0.001-0.054,0.017-0.106,0.044-0.161l0.095-0.79c0.296,0.088,0.937,0.125,1.925,0.116c-0.029,0.065,0.011,0.155,0.117,0.264
				c0.096-0.093,0.197-0.14,0.306-0.136c0.081,0.002,0.202,0.037,0.362,0.107C44.508,131.647,44.622,131.683,44.69,131.685z"></path>
			<path fill="#010101" d="M52.258,138.667c-0.188-0.084-0.391-0.127-0.606-0.132c-0.189-0.003-0.448,0.033-0.773,0.109
				c-0.366,0.074-0.617,0.116-0.752,0.129c-0.145-0.286-0.245-0.68-0.304-1.182c-0.109-0.731-0.178-1.145-0.203-1.241
				c0.043-0.08,0.064-0.147,0.064-0.2c0.003-0.149-0.114-0.283-0.348-0.403c-0.235-0.117-0.352-0.212-0.35-0.279
				c0.001-0.08,0.138-0.199,0.41-0.357c-0.065-0.081-0.114-0.249-0.144-0.498c-0.028-0.251-0.091-0.418-0.184-0.501
				c-0.165,0.146-0.434,0.24-0.806,0.28c-0.373,0.042-0.62,0.102-0.743,0.18c0.009,1.055-0.165,1.763-0.522,2.12
				c-0.188-0.043-0.333,0.029-0.43,0.217c-0.14,0.228-0.257,0.36-0.352,0.399l0.118,0.144c-0.109,0.093-0.286,0.131-0.528,0.113
				c-0.379-0.021-0.581-0.03-0.608-0.03l-0.114-0.368l1.32-10.947c0.013-0.689,0.047-1.158,0.104-1.399
				c-0.017-0.609,0.126-0.984,0.425-1.128c0.188,0.124,0.424,0.189,0.707,0.194c0.23,0.005,0.589-0.043,1.076-0.145
				c0.49-0.099,0.828-0.148,1.018-0.146c0.662,0.013,0.95,0.489,0.868,1.436c-0.066,0.756,0.051,1.752,0.354,2.987
				c0.315,1.331,0.468,2.327,0.457,2.99c-0.004,0.2,0.062,0.622,0.046,0.824c-0.287,0.156-0.652,0.253-1.1,0.285
				c-0.393,0.021-0.792,0.042-1.197,0.06c-0.104-1.028-0.286-2.269-0.391-3.284c-0.128-1.219-0.286-2.221-0.477-3.01l-0.626,5.79
				c-0.048,0.5,0.178,0.754,0.678,0.763c0.162,0.002,0.317-0.035,0.468-0.114c0.123-0.038,0.291,0.052,0.503,0.272
				c-0.008,0.419,0.076,0.67,0.251,0.754c0.219-0.145,0.505-0.281,0.858-0.412c0.312-0.115,0.62-0.225,0.919-0.328
				c0.17,0.233,0.28,0.579,0.327,1.04c0.056,0.65,0.098,1.029,0.122,1.138c0.022,0.258,0.128,0.813,0.315,1.669
				c0.138,0.677,0.203,1.226,0.196,1.646C52.304,138.304,52.287,138.492,52.258,138.667z"></path>
			<path fill="#010101" d="M61.595,129.01c-0.015,0.041-0.019,0.277-0.012,0.71c-0.007,0.351-0.051,0.614-0.135,0.788
				c-0.101,0.27-0.153,0.655-0.162,1.153c-0.003,0.109,0.002,0.278,0.012,0.508c-0.005,0.23-0.007,0.399-0.008,0.507
				c-0.016,0.851-0.161,1.47-0.439,1.857c0.024,0.219,0.034,0.435,0.032,0.65c-0.012,0.676-0.244,1.585-0.696,2.727
				c-0.122,0.039-0.225,0.057-0.307,0.056c-0.162-0.004-0.277-0.098-0.35-0.281c-0.071-0.183-0.139-0.356-0.203-0.52
				c0.044-1.039,0.022-2.555-0.065-4.544l0.123-0.12c-0.089-0.352-0.128-0.744-0.121-1.177c0.005-0.312,0.045-0.764,0.114-1.357
				c0.071-0.595,0.108-1.04,0.113-1.337c0.005-0.189,0-0.371-0.009-0.547c-0.467,1.114-0.796,3-0.989,5.66l-0.17,0.402
				c-0.057,0.136-0.173,0.208-0.348,0.219c-0.053-0.095-0.106-0.144-0.159-0.145c-0.041-0.003-0.113,0.047-0.216,0.148
				c-0.104,0.098-0.189,0.142-0.256,0.127l-0.269,0.237c0.119,0.152,0.375,0.17,0.771,0.057c0.312-0.091,0.472,0.027,0.48,0.352
				c0.009,0.271-0.065,0.634-0.222,1.091c-0.157,0.457-0.236,0.801-0.24,1.03c-0.003,0.163,0.015,0.325,0.052,0.486l-1.402,0.221
				c-0.131-0.272-0.228-0.73-0.292-1.374c-0.062-0.642-0.159-1.101-0.29-1.373c0.082-0.093,0.124-0.192,0.126-0.303
				c0.002-0.094-0.035-0.237-0.114-0.427c-0.077-0.191-0.122-0.334-0.135-0.43c-0.011-0.147-0.058-0.508-0.144-1.076
				c-0.06-0.46-0.088-0.821-0.083-1.075c0.002-0.137,0.012-0.258,0.026-0.366c0.002-0.095-0.052-0.233-0.155-0.419
				c-0.104-0.184-0.156-0.316-0.154-0.397c0.001-0.067,0.028-0.127,0.083-0.181c-0.093-0.111-0.13-0.3-0.112-0.569
				c0.019-0.271-0.02-0.461-0.111-0.569c-0.198,0.522-0.305,1.23-0.32,2.122c-0.007,1.243-0.02,1.962-0.036,2.149l0.14,0.125
				l-0.144,0.118c0.099,0.488,0.144,1.111,0.13,1.867c-0.036,1.366-0.054,2.001-0.053,1.908c-0.191,0.171-0.457,0.255-0.795,0.248
				c-0.419-0.006-0.704,0.03-0.854,0.107c-0.171-0.3-0.253-0.687-0.244-1.159c0.006-0.365,0.068-0.81,0.186-1.336
				c-0.185-0.342-0.271-0.815-0.26-1.425c0.002-0.148,0.021-0.431,0.055-0.851c0.02-0.336,0.023-0.588,0.014-0.749
				c0.135-0.065,0.205-0.138,0.205-0.22c0.002-0.054-0.04-0.146-0.127-0.276c-0.086-0.128-0.128-0.228-0.127-0.296
				c0.002-0.082,0.057-0.161,0.166-0.241l-0.437-6.558c0.261-0.171,0.681-0.252,1.263-0.241c0.634,0.024,1.068-0.01,1.299-0.1
				c0.042-0.027,0.089-0.039,0.143-0.039c0.056,0.002,0.118,0.032,0.191,0.095c0.074,0.062,0.124,0.094,0.15,0.094
				c0.054,0,0.103-0.04,0.145-0.12l0.379,0.373c0.127,0.476,0.247,1.396,0.359,2.763c0.114,1.179,0.295,2.068,0.543,2.667
				c0.331-1.197,0.604-2.2,0.821-3.007l0.44-3.21l3.144-0.068c0.011,0.175,0.05,1.115,0.134,1.658
				c0.072,0.474,0.107,0.859,0.103,1.156c-0.005,0.339-0.058,0.642-0.158,0.91c0.105,0.151,0.157,0.341,0.153,0.569
				C61.764,128.676,61.706,128.862,61.595,129.01z"></path>
			<path fill="#010101" d="M68.045,136.117v-0.021c-0.084,0.174-0.136,0.376-0.152,0.605c-0.016,0.148-0.02,0.357-0.011,0.628
				c0.008,0.311,0.011,0.527,0.01,0.649c-0.109-0.002-0.541-0.01-1.297-0.021c-0.461-0.008-0.873,0.031-1.24,0.121l-0.378-0.412
				c-0.111,0.105-0.152,0.192-0.127,0.261c-0.066-0.015-0.378-0.02-0.933-0.016c-0.433-0.007-0.756-0.055-0.97-0.139
				c-0.222,0.228-0.478,0.222-0.771-0.014c-0.106-0.081-0.117-0.221-0.034-0.415c0.085-0.195,0.061-0.341-0.072-0.438
				c0.021-0.432,0.079-1.101,0.176-2.005c0.095-0.809,0.146-1.444,0.153-1.903c0.01-0.623-0.032-1.218-0.132-1.787
				c0.153-0.146,0.321-0.218,0.511-0.214c0.218,0.002,0.472,0.109,0.766,0.317c0.413,0.288,0.629,0.437,0.642,0.437l0.118,0.143
				c0.016-0.04,0.086-0.255,0.215-0.645c0.071-0.256,0.176-0.422,0.312-0.503l0.12,0.125c0.055-0.025,0.231-0.151,0.534-0.376
				c0.23-0.159,0.421-0.534,0.555-0.53c0.15,0.001,0.289,0.086,0.422,0.25c0.229,0.124,0.371,0.611,0.442,0.86
				c0.069,0.253,0.137,0.5,0.201,0.746c-0.609,0.017-1.11,0-1.501-0.047c-0.097,0.147-0.232,0.169-0.407,0.064
				c-0.173-0.104-0.301-0.089-0.385,0.042c-0.005,0.245-0.013,0.686-0.023,1.32c-0.023,0.565-0.029,1.013-0.021,1.338
				c0.004,0.5,0.037,0.96,0.098,1.38c0.107,0.002,0.621,0.012,1.54,0.027C67.041,135.958,67.586,136.014,68.045,136.117z
				 M68.088,126.403c-0.122,0.012-0.257,0.016-0.405,0.014c-0.312-0.006-0.724-0.055-1.235-0.144
				c-0.635-0.091-1.019-0.146-1.153-0.161c-0.193,0.28-0.295,0.678-0.305,1.191c-0.019,1.108-0.019,1.588-0.003,1.439
				c0.188,0.11,0.279,0.316,0.273,0.613c-0.021,0.405-0.024,0.616-0.011,0.629c-0.095,0.038-0.146,0.173-0.148,0.402
				c-0.148-0.056-0.302-0.168-0.461-0.333c-0.213-0.206-0.326,0.493-0.311,0.319l-0.128,0.416l-0.12-0.123
				c-0.109,0.011-0.294-0.046-0.555-0.173c-0.263-0.126-0.445-0.241-0.552-0.354c0.004-0.216,0.04-0.337,0.107-0.363l-0.258-0.287
				l-0.125,0.18c-0.151-1.409-0.114-4.043,0.072-5.527c0.513,0.09,1.08,0.147,1.701,0.171c0.419,0.021,1.006,0.031,1.764,0.031
				c0.865,0.001,1.488,0.004,1.866,0.01c0.158,0.151,0.237,0.349,0.232,0.593c-0.001,0.149-0.043,0.389-0.123,0.718
				C68.132,125.995,68.091,126.24,68.088,126.403z"></path>
		</g>
		<g>
			<path fill="#010101" d="M45.299,148.378v-0.011c0,0.007-0.034,0.306-0.104,0.895c-0.035,0.361-0.122,0.646-0.262,0.854
				l-0.088-0.071c-0.165,0.344-0.388,0.554-0.671,0.628c-0.136,0.143-0.332,0.221-0.587,0.236c-0.151,0.01-0.501-0.035-1.05-0.132
				c-0.266-0.165-0.41-0.257-0.436-0.274c-0.167-0.125-0.247-0.252-0.238-0.382c-0.161-0.164-0.388-0.458-0.474-0.825
				c-0.104-0.407-0.166-0.429-0.262-0.572c-0.153,0.113-0.208-0.126-0.297-0.271l0.08-0.061c-0.05-0.036-0.076-0.077-0.079-0.122
				c-0.002-0.032,0.013-0.079,0.04-0.143c0.029-0.062,0.043-0.109,0.04-0.142c-0.003-0.051-0.033-0.095-0.091-0.129
				c0.061-0.32,0.117-0.8,0.168-1.438c0.108-0.059,0.159-0.17,0.154-0.338c-0.006-0.166,0.018-0.277,0.069-0.331
				c0.259-0.518,0.678-0.866,1.259-1.048c0.032,0.004,0.188,0.001,0.468-0.008c0.191-0.005,0.336,0.012,0.435,0.052
				c0.173-0.031,0.349,0.013,0.521,0.123c0.151,0.115,0.303,0.228,0.452,0.342c0.281,0.305,0.434,0.651,0.456,1.035
				c0.007,0.127-0.001,0.264-0.024,0.405c-0.208-0.006-0.356,0.13-0.444,0.413l-0.811,0.076c-0.086-0.124-0.137-0.289-0.147-0.494
				c-0.005-0.07-0.004-0.174,0-0.308c0.003-0.137,0.004-0.238,0-0.309c-0.013-0.212-0.062-0.379-0.15-0.505l-0.242,0.141
				c-0.1-0.039-0.149-0.097-0.154-0.174c-0.002-0.025,0.002-0.063,0.011-0.111c0.01-0.05,0.014-0.083,0.013-0.103
				c-0.005-0.083-0.08-0.133-0.225-0.152c-0.099,0.913-0.129,1.852-0.089,2.812c0.025,0.032,0.104,0.053,0.231,0.066
				c0.104,0.012,0.158,0.045,0.161,0.095c0.001,0.021-0.005,0.046-0.02,0.079l-0.08,0.062c0.044,0.067,0.07,0.164,0.077,0.285
				c0.003,0.063,0.001,0.162-0.007,0.295c-0.009,0.133-0.011,0.231-0.007,0.293c0.012,0.193,0.06,0.339,0.146,0.438
				c-0.009,0.141,0.05,0.238,0.172,0.288c0.078-0.03,0.148-0.046,0.213-0.05c0.247-0.016,0.419,0.12,0.515,0.403
				c0.001,0.007-0.001,0.055-0.003,0.146c0.003,0.052,0.028,0.084,0.078,0.101c0.107-0.064,0.16-0.18,0.159-0.347
				c-0.002-0.192,0.022-0.316,0.074-0.37c-0.014-0.09-0.066-0.219-0.16-0.386c-0.094-0.17-0.143-0.301-0.149-0.397
				c-0.006-0.103,0.025-0.2,0.091-0.294c-0.057-0.018-0.082-0.054-0.078-0.112c0.003-0.092,0.004-0.139,0.004-0.145
				C44.398,148.278,44.846,148.275,45.299,148.378z"></path>
			<path fill="#010101" d="M48.969,149.13h-0.01c-0.048,0.092-0.062,0.225-0.046,0.397c0.021,0.244,0.034,0.369,0.034,0.375
				c-0.036,0.015-0.087-0.004-0.147-0.054c-0.095,0.035-0.141,0.095-0.135,0.178c0,0.013,0.005,0.033,0.015,0.062
				c0.001,0.035,0.003,0.06,0.004,0.071c0.003,0.065-0.016,0.114-0.059,0.147c-0.107-0.06-0.25-0.098-0.424-0.115
				c-0.177-0.016-0.344-0.032-0.5-0.046c-0.003-0.813-0.112-1.61-0.328-2.387c0,0.006-0.005-0.073-0.015-0.242
				c0.001-0.12-0.026-0.204-0.081-0.255l-0.074,0.066c-0.001-0.012,0.023-0.034,0.073-0.07c0.052-0.036,0.075-0.072,0.072-0.108
				c-0.001-0.018-0.006-0.035-0.015-0.052l-0.081-0.059c-0.139,0.045-0.202,0.156-0.192,0.333c0.007,0.12-0.041,0.204-0.141,0.251
				c0.038,0.028,0.059,0.064,0.061,0.104c0.002,0.024-0.001,0.059-0.011,0.101c-0.009,0.041-0.013,0.074-0.011,0.1
				c0.003,0.052,0.032,0.096,0.085,0.128c0.003,0.036,0.021,0.358,0.057,0.967c0.022,0.388,0.012,0.717-0.031,0.987l0.008,0.152
				c-0.053-0.002-0.112-0.001-0.178,0.002c-0.074,0.004-0.183,0.016-0.322,0.033c-0.139,0.018-0.243,0.027-0.31,0.031
				c-0.274,0.016-0.467-0.031-0.577-0.138l-0.116-3.341c-0.054-0.163-0.089-0.393-0.106-0.685l-0.036-0.645
				c-0.026-0.315-0.067-0.558-0.122-0.728c0.023-0.116,0.125-0.18,0.302-0.188c0.111-0.007,0.26,0.008,0.449,0.046
				c0.086-0.04,0.208-0.066,0.363-0.075c0.045-0.004,0.114-0.004,0.212-0.004c0.104-0.006,0.178-0.01,0.222-0.013
				c0.29-0.016,0.481-0.105,0.576-0.267c0.134-0.002,0.279,0.041,0.438,0.127c0.156,0.087,0.295,0.134,0.414,0.138
				c0.315,0.185,0.485,0.492,0.511,0.922c0.006,0.096-0.032,0.475-0.112,1.138l-0.542,0.469c0.092,0.17,0.203,0.537,0.332,1.104
				C48.583,148.562,48.748,148.909,48.969,149.13z M47.968,145.329l0.012,0.008c0.01,0.041,0.005-0.105-0.015-0.438
				c-0.009-0.161-0.068-0.277-0.177-0.35c-0.062,0.087,0.009,0.128-0.021,0.329c-0.028,0.203-0.147,0.146-0.218,0.233
				c-0.186,0-0.228,0.112-0.268-0.064c-0.083-0.289-0.155-0.264-0.156-0.269l-0.079,0.047c-0.028,0.025-0.061,0.054-0.095,0.087
				c-0.035,0.032-0.071,0.042-0.109,0.033c0.002,0.036-0.016,0.092-0.052,0.169c-0.037,0.077-0.055,0.129-0.053,0.159
				c0.004,0.055,0.046,0.094,0.131,0.119c-0.016,0.12-0.02,0.246-0.013,0.376c0.005,0.071,0.021,0.236,0.052,0.491
				c0.033,0.201,0.046,0.374,0.04,0.518c0.067,0.002,0.13,0.002,0.189-0.001c0.261-0.016,0.429-0.118,0.507-0.308
				c0.026-0.055,0.057-0.256,0.089-0.598C47.761,145.614,47.839,145.432,47.968,145.329z"></path>
			<path fill="#010101" d="M53.18,150.428c-0.106-0.031-0.219-0.042-0.338-0.035c-0.104,0.006-0.243,0.032-0.418,0.077
				c-0.2,0.048-0.335,0.077-0.408,0.087c-0.09-0.12-0.159-0.29-0.208-0.508c-0.087-0.318-0.139-0.498-0.155-0.539
				c0.021-0.036,0.03-0.067,0.028-0.092c-0.004-0.065-0.072-0.119-0.204-0.163c-0.134-0.042-0.2-0.08-0.201-0.109
				c-0.002-0.036,0.067-0.093,0.213-0.174c-0.04-0.033-0.071-0.104-0.097-0.215c-0.024-0.108-0.062-0.179-0.118-0.212
				c-0.085,0.071-0.229,0.123-0.431,0.156c-0.203,0.031-0.336,0.067-0.402,0.108c0.043,0.463,0,1.278-0.183,1.45
				c-0.104-0.012-0.18,0.024-0.228,0.113c-0.068,0.104-0.128,0.168-0.179,0.189l0.07,0.058c-0.058,0.047-0.152,0.069-0.285,0.071
				c-0.208,0.006-0.319,0.009-0.334,0.01l-0.076-0.159l0.312-5.369c-0.017-0.305-0.015-0.511,0.008-0.619
				c-0.03-0.268,0.034-0.439,0.193-0.515c0.107,0.048,0.237,0.066,0.395,0.058c0.125-0.007,0.321-0.041,0.584-0.105
				c0.265-0.062,0.448-0.097,0.553-0.104c0.362-0.021,0.537,0.178,0.524,0.598c-0.011,0.335,0.089,0.769,0.299,1.302
				c0.22,0.572,0.337,1.006,0.354,1.299c0.006,0.089,0.125,0.279,0.123,0.369c-0.152,0.08-0.351,0.136-0.593,0.168
				c-0.215,0.025-0.432,0.051-0.654,0.073c-0.093-0.448-0.304-0.993-0.396-1.438c-0.112-0.531-0.235-0.966-0.365-1.308l-0.142,2.576
				c-0.009,0.222,0.124,0.324,0.397,0.309c0.089-0.005,0.174-0.028,0.253-0.068c0.066-0.021,0.16,0.012,0.284,0.1
				c0.011,0.186,0.065,0.294,0.164,0.323c0.115-0.072,0.267-0.145,0.456-0.215c0.167-0.063,0.331-0.124,0.491-0.181
				c0.103,0.096,0.173,0.244,0.217,0.444c0.053,0.285,0.088,0.449,0.105,0.497c0.021,0.112,0.099,0.354,0.231,0.723
				c0.1,0.293,0.154,0.532,0.165,0.717C53.191,150.264,53.189,150.348,53.18,150.428z"></path>
			<path fill="#010101" d="M56.249,144.334h0.011c-0.089,0.131-0.202,0.155-0.341,0.074c-0.03-0.006-0.163,0.003-0.4,0.022
				c-0.199,0.012-0.345,0.001-0.437-0.029c-0.021,0.003-0.066,0.024-0.13,0.066c-0.064,0.044-0.11,0.064-0.142,0.066
				c-0.043,0.004-0.068-0.035-0.073-0.112c-0.001-0.011-0.004-0.062-0.008-0.152c-0.004-0.059-0.033-0.1-0.086-0.12l-0.139,0.107
				c-0.043,0.032-0.063,0.065-0.061,0.102c0.001,0.029,0.026,0.071,0.074,0.126c0.047,0.054,0.075,0.093,0.084,0.115
				c0.001,0.019,0.018,0.287,0.047,0.806c0.011,0.33,0.072,0.592,0.181,0.787c0.026-0.03,0.095-0.048,0.202-0.05
				c0.107-0.004,0.179-0.028,0.214-0.071c0.07,0.061,0.188,0.065,0.352,0.011c0.165-0.056,0.283-0.037,0.355,0.056l-0.021,0.791
				c-0.067-0.009-0.167-0.042-0.296-0.099c-0.038,0.114-0.112,0.188-0.221,0.218c-0.045,0.016-0.171,0.027-0.378,0.04
				c0.006-0.036-0.026-0.073-0.097-0.11c-0.201,0.096-0.277,0.324-0.228,0.686c0.006-0.037,0.014,0.026,0.023,0.188
				c0.006,0.101-0.016,0.174-0.065,0.219c-0.126,0.019-0.285-0.009-0.479-0.084c-0.192-0.075-0.332-0.111-0.413-0.106
				c-0.036,0.002-0.07,0.007-0.1,0.015l-0.208,0.064l-0.333-3.613l-0.039-0.688c0.275-0.093,0.619-0.152,1.026-0.176
				c0.319-0.019,0.736-0.016,1.25,0.008c0.033-0.067,0.094,0.021,0.169,0.017c0.036-0.002,0.092,0.003,0.167,0.013
				c0.075,0.011,0.132,0.015,0.169,0.013c0.044-0.002,0.084-0.011,0.12-0.025l0.053-0.057c0.151,0.045,0.23,0.125,0.237,0.236
				c0.003,0.049-0.012,0.131-0.043,0.245c-0.029,0.116-0.043,0.205-0.04,0.264C56.21,144.246,56.224,144.294,56.249,144.334z
				 M54.949,150.365c-0.079,0.041-0.201,0.064-0.364,0.075c-0.215,0.013-0.344,0.023-0.389,0.031
				c-0.023-0.022-0.052-0.004-0.1-0.192c-0.03-0.124-0.108-0.183-0.233-0.174c-0.03,0.001-0.066,0.005-0.111,0.014l-0.2,0.013
				l-0.106-1.83c0.109-0.053,0.245-0.085,0.407-0.095c0.156-0.009,0.295,0.007,0.415,0.046c-0.002,0.068,0.092,0.097,0.284,0.083
				l0.212-0.013C54.889,148.838,54.966,149.766,54.949,150.365z"></path>
			<path fill="#010101" d="M60.694,144.491l0.012,0.008c-0.105-0.007-0.44,0.016-0.698,0.049c-0.222,0.025-0.389,0.029-0.501,0.012
				c-0.107,0.072-0.147,0.17-0.117,0.293l0.068,0.041c-0.057,0.053-0.076,0.091-0.059,0.121l0.059,0.059
				c-0.013,1.061-0.016,1.646-0.009,1.76c0.016,0.28,0.049,0.526,0.098,0.74c-0.044,0.134-0.061,0.287-0.051,0.46
				c0.007,0.112,0.033,0.291,0.081,0.538c0.048,0.245,0.111,1.052,0.119,1.178c0.005,0.094,0.004,0.186-0.007,0.269
				c-0.103,0.042-0.212,0.066-0.33,0.074c-0.2,0.011-0.415-0.03-0.645-0.125c-0.027,0.025-0.059,0.053-0.095,0.082
				c-0.035,0.029-0.045,0.062-0.027,0.097c-0.073,0.021-0.176-0.009-0.308-0.091c-0.069-1.074-0.261-3.26-0.545-5.47
				c-0.101,0.091-0.284,0.016-0.477,0.04c-0.229,0.024-0.453-0.011-0.54,0.03c-0.111-0.119-0.087-0.154-0.098-0.351
				c-0.012-0.19-0.073-0.661-0.024-0.857c0.011-0.043,0.426-0.019,0.67-0.039c0.333-0.02,0.407,0.061,0.429,0.059
				c0.027-0.043,0.189-0.021,0.308-0.029c0.077,0.037,0.16-0.034,0.162,0.021c0.003,0.035,0,0.261-0.024,0.325
				c-0.026,0.065-0.039,0.112-0.037,0.142c0.005,0.071,0.056-0.033,0.177,0.008c0.134-0.004,0.271-0.008,0.411-0.016
				c0.158,0.015,0.338-0.042,0.324,0.091c0.026-0.038,0.044,0.028,0.269-0.062c0.167-0.076,0.269-0.271,0.236-0.405
				c-0.019-0.073,0.083-0.122,0.02-0.087c0.08-0.045,0.007-0.015,0.095-0.049c0.277,0.026,0.431-0.003,0.482-0.005
				c0.111-0.007,0.389,0.064,0.467,0.024c0.058,0.104,0.087,0.431,0.091,0.61C60.688,144.32,60.693,144.473,60.694,144.491z"></path>
			<path fill="#010101" d="M64.296,148.224l-0.002-0.009c-0.039,0.079-0.061,0.171-0.062,0.272
				c-0.005,0.065,0.001,0.158,0.016,0.278c0.016,0.136,0.024,0.23,0.028,0.285c-0.061,0.003-0.298,0.016-0.713,0.042
				c-0.251,0.014-0.476,0.047-0.674,0.102l-0.222-0.168c-0.056,0.052-0.075,0.093-0.059,0.121c-0.037-0.004-0.209,0.006-0.512,0.029
				c-0.237,0.015-0.416,0.006-0.538-0.022c-0.111,0.107-0.252,0.116-0.421,0.024c-0.061-0.031-0.072-0.093-0.033-0.183
				c0.039-0.089,0.021-0.152-0.057-0.189c-0.002-0.19,0.006-0.487,0.027-0.89c0.024-0.36,0.029-0.643,0.018-0.846
				c-0.016-0.273-0.062-0.534-0.134-0.781c0.077-0.07,0.168-0.107,0.271-0.113c0.118-0.009,0.262,0.029,0.432,0.107
				c0.236,0.113,0.357,0.169,0.365,0.169l0.07,0.058c0.007-0.017,0.037-0.115,0.094-0.293c0.031-0.114,0.083-0.192,0.155-0.231
				l0.068,0.049c0.029-0.013,0.123-0.075,0.28-0.186c0.121-0.08,0.205-0.37,0.28-0.374c0.08-0.006,0.16,0.026,0.238,0.093
				c0.129,0.047,0.231,0.373,0.278,0.48s0.093,0.215,0.137,0.319c-0.333,0.031-0.608,0.045-0.823,0.039
				c-0.048,0.069-0.123,0.084-0.221,0.045c-0.099-0.04-0.169-0.027-0.21,0.035c0.007,0.106,0.018,0.3,0.033,0.58
				c0.008,0.251,0.019,0.447,0.034,0.59c0.02,0.221,0.056,0.422,0.103,0.605c0.06-0.005,0.342-0.021,0.845-0.049
				C63.74,148.193,64.041,148.195,64.296,148.224z M63.951,144.017c-0.065,0.008-0.141,0.018-0.223,0.021
				c-0.169,0.011-0.395,0.006-0.681-0.014c-0.35-0.016-0.562-0.024-0.637-0.026c-0.096,0.132-0.109,0.238-0.096,0.465
				c0.028,0.488,0.045,0.7,0.048,0.634c0.106,0.042,0.164,0.129,0.171,0.261c0.004,0.179,0.008,0.27,0.017,0.275
				c-0.051,0.021-0.073,0.083-0.067,0.185c-0.082-0.02-0.171-0.062-0.264-0.129c-0.125-0.082-0.164,0.21-0.16,0.133l-0.057,0.183
				l-0.069-0.052c-0.059,0.01-0.162-0.008-0.31-0.054c-0.147-0.045-0.253-0.09-0.314-0.134c-0.005-0.095,0.009-0.149,0.046-0.165
				l-0.152-0.116l-0.062,0.085c-0.132-0.615-0.221-1.698-0.17-2.359c0.283,0.02,0.615-0.028,0.956-0.043
				c0.229-0.009,0.553-0.025,0.968-0.056c0.474-0.033,0.813-0.058,1.021-0.069c0.093,0.062,0.144,0.146,0.148,0.252
				c0.005,0.066-0.01,0.173-0.041,0.321C63.989,143.762,63.947,143.943,63.951,144.017z"></path>
			<path fill="#010101" d="M67.993,147.588l-0.011,0.001c-0.045,0.093-0.062,0.226-0.044,0.396c0.022,0.245,0.032,0.37,0.033,0.376
				c-0.037,0.015-0.086-0.003-0.148-0.054c-0.096,0.035-0.14,0.095-0.135,0.179c0.001,0.012,0.006,0.031,0.015,0.061
				c0.002,0.035,0.003,0.06,0.005,0.072c0.004,0.065-0.017,0.114-0.059,0.147c-0.108-0.061-0.25-0.099-0.426-0.115
				c-0.175-0.017-0.341-0.033-0.499-0.049c-0.003-0.812-0.112-1.607-0.327-2.385c0,0.007-0.005-0.074-0.014-0.241
				c0-0.12-0.027-0.204-0.083-0.255l-0.073,0.067c0-0.012,0.023-0.036,0.073-0.071c0.05-0.036,0.075-0.072,0.072-0.108
				c-0.002-0.018-0.006-0.035-0.015-0.054l-0.082-0.059c-0.138,0.045-0.202,0.155-0.19,0.334c0.006,0.12-0.042,0.205-0.143,0.252
				c0.038,0.027,0.06,0.062,0.062,0.104c0.002,0.024-0.002,0.058-0.012,0.098c-0.007,0.044-0.012,0.077-0.01,0.102
				c0.003,0.053,0.03,0.097,0.085,0.13c0.002,0.036,0.021,0.357,0.056,0.966c0.023,0.388,0.013,0.718-0.031,0.988l0.01,0.152
				c-0.052-0.003-0.112-0.003-0.18,0.002c-0.073,0.005-0.182,0.015-0.321,0.031c-0.14,0.018-0.243,0.028-0.311,0.032
				c-0.272,0.016-0.466-0.029-0.576-0.138l-0.116-3.34c-0.054-0.164-0.09-0.393-0.106-0.685l-0.038-0.644
				c-0.025-0.316-0.064-0.56-0.119-0.729c0.022-0.114,0.123-0.179,0.3-0.188c0.113-0.008,0.262,0.008,0.45,0.046
				c0.087-0.042,0.207-0.067,0.363-0.075c0.044-0.003,0.115-0.004,0.211-0.004c0.104-0.006,0.179-0.011,0.223-0.014
				c0.289-0.016,0.481-0.105,0.576-0.266c0.134-0.001,0.279,0.04,0.436,0.126c0.158,0.088,0.297,0.133,0.418,0.137
				c0.313,0.187,0.484,0.493,0.509,0.924c0.005,0.096-0.032,0.475-0.112,1.138l-0.543,0.47c0.093,0.169,0.204,0.535,0.334,1.103
				C67.606,147.021,67.773,147.367,67.993,147.588z M66.992,143.788l0.012,0.008c0.01,0.041,0.005-0.105-0.015-0.438
				c-0.01-0.163-0.069-0.278-0.177-0.349c-0.061,0.085-0.073-0.117-0.102,0.085c-0.029,0.203-0.078,0.347-0.146,0.436
				c-0.187-0.001-0.229-0.112-0.341-0.268c-0.069-0.099-0.103-0.013-0.103-0.02l-0.051,0.041c-0.028,0.025-0.06,0.055-0.095,0.087
				s-0.072,0.043-0.111,0.033c0.004,0.034-0.014,0.093-0.051,0.169c-0.035,0.076-0.053,0.13-0.052,0.16
				c0.004,0.054,0.047,0.092,0.131,0.118c-0.016,0.12-0.021,0.246-0.013,0.379c0.005,0.07,0.021,0.233,0.051,0.489
				c0.034,0.201,0.048,0.374,0.042,0.518c0.067,0.003,0.13,0.002,0.189-0.002c0.259-0.015,0.428-0.117,0.506-0.307
				c0.025-0.056,0.056-0.256,0.088-0.598C66.785,144.07,66.865,143.891,66.992,143.788z"></path>
		</g>
		<g>
			<path fill="#010101" d="M31.135,132.181v0.009c-0.032,0.311-0.044,0.525-0.031,0.643c-0.048,0.02-0.111,0.022-0.187,0.01
				c-0.1-0.017-0.156-0.024-0.172-0.023c-0.043,0.002-0.078,0.018-0.104,0.045c-0.062-0.039-0.103-0.056-0.124-0.05
				c-0.059,0.035-0.086,0.085-0.083,0.149c0.002,0.028,0.013,0.073,0.033,0.141c0.019,0.068,0.03,0.116,0.031,0.148
				c0.001,0.043-0.007,0.111-0.026,0.205c-0.02,0.093-0.028,0.168-0.025,0.229c0.004,0.069,0.019,0.181,0.046,0.331
				c0.026,0.149,0.041,0.262,0.045,0.338c-0.03,0.147-0.042,0.297-0.035,0.447c0.01,0.185,0.062,0.431,0.152,0.74
				c0.017,0.005,0.032,0.007,0.049,0.005c0.036-0.001,0.082-0.029,0.134-0.08c0.052-0.05,0.097-0.076,0.134-0.079
				c0.026-0.001,0.058,0.004,0.09,0.02c0.098,0.313,0.147,0.518,0.153,0.609c0.002,0.044,0.001,0.09-0.001,0.138
				c-0.146,0.035-0.248-0.015-0.308-0.147c0.008-0.037-0.014-0.077-0.063-0.118l-0.162,0.171c0.158,0.024,0.221,0.146,0.188,0.363
				c-0.014,0.045-0.047,0.068-0.102,0.07c-0.093-0.001-0.136-0.001-0.13-0.001l-0.134-0.237l-0.053,0.067
				c-0.045-0.112-0.096-0.165-0.155-0.161c-0.032,0.002-0.089,0.028-0.171,0.08c-0.081,0.054-0.148,0.081-0.202,0.083
				c-0.043,0.004-0.086-0.008-0.131-0.032c-0.004-0.065-0.012-0.132-0.022-0.202c-0.012-0.07-0.048-0.114-0.108-0.133
				c-0.003-0.17,0.002-0.608,0.014-1.324c0.006-0.541,0-0.979-0.017-1.314c-0.008-0.141-0.017-0.277-0.029-0.411
				c-0.028-0.042-0.057-0.062-0.084-0.062c-0.022,0.002-0.055,0.024-0.098,0.07c-0.044,0.046-0.082,0.066-0.114,0.062
				c-0.004-0.054-0.028-0.142-0.074-0.26c-0.047-0.119-0.071-0.206-0.075-0.26c-0.004-0.092,0.03-0.172,0.103-0.24l0.189,0.046
				c0.075-0.105,0.107-0.286,0.095-0.54c-0.003-0.048-0.01-0.126-0.02-0.23c-0.012-0.104-0.019-0.181-0.021-0.23
				c-0.021-0.415,0.106-0.63,0.382-0.645c0.102-0.005,0.228,0.014,0.375,0.056l0.182,0.047c0.014,0.069,0.023,0.142,0.027,0.217
				c0.005,0.104,0.001,0.254-0.014,0.452c-0.015,0.199-0.02,0.344-0.015,0.434c0.007,0.147,0.031,0.279,0.076,0.396
				c0.043-0.003,0.111-0.027,0.204-0.071c0.092-0.046,0.159-0.069,0.203-0.071C31.027,132.073,31.088,132.106,31.135,132.181z
				 M30.571,132.762l-0.009-0.187l-0.059-0.054L30.571,132.762z"></path>
			<path fill="#010101" d="M33.362,131.599l0.008-0.001c-0.019,0.147-0.041,0.295-0.066,0.442c-0.028,0.168-0.077,0.301-0.143,0.396
				c-0.011-0.005-0.078-0.035-0.199-0.096c-0.084-0.044-0.158-0.062-0.222-0.054c-0.05,0.317-0.076,0.748-0.081,1.295
				c-0.003,0.698-0.009,1.12-0.017,1.266c-0.083-0.005-0.143,0.021-0.183,0.08c-0.041,0.059-0.079,0.117-0.113,0.179
				c-0.015,0.034-0.021,0.064-0.02,0.09c0.001,0.045,0.038,0.087,0.111,0.125c0.072,0.04,0.109,0.083,0.111,0.133
				c-0.031,0.115-0.1,0.176-0.202,0.18c-0.048,0.003-0.133-0.013-0.254-0.043c-0.119-0.032-0.204-0.047-0.254-0.044l-0.116-2.315
				c0.046-0.061,0.065-0.104,0.06-0.124l-0.067-0.045c0.006-0.098,0.011-0.584,0.016-1.455c0.003-0.59,0.025-1.067,0.066-1.432
				c-0.005,0.001,0.161-0.011,0.501-0.033c0.21-0.011,0.347,0.048,0.407,0.175c0,0.118-0.012,0.318-0.036,0.602
				c-0.023,0.261-0.033,0.461-0.026,0.602c0.01,0.174,0.036,0.328,0.082,0.467C32.907,131.741,33.119,131.611,33.362,131.599z
				 M34.167,132.094c0.016,0.215,0.028,0.426,0.04,0.632c0.045,0.896,0.031,1.854-0.042,2.874c-0.078,0.07-0.197,0.085-0.36,0.046
				c-0.16-0.038-0.277-0.021-0.35,0.046c-0.093-0.119-0.146-0.334-0.163-0.648c-0.022-0.453-0.034-0.688-0.035-0.704
				c-0.02-1.135,0.092-2.053,0.333-2.752C33.869,131.659,34.06,131.828,34.167,132.094z"></path>
			<path fill="#010101" d="M37.007,133.27c-0.035,0.072-0.05,0.148-0.045,0.228c0.003,0.083,0.007,0.161,0.012,0.237
				c-0.009,0.064-0.026,0.129-0.055,0.198c-0.05-0.015-0.091-0.021-0.124-0.02c-0.037,0.002-0.076,0.016-0.114,0.042
				c-0.039,0.027-0.071,0.041-0.092,0.041c-0.033,0.003-0.076-0.01-0.132-0.033l-0.376-0.549c0.013,0.161,0.05,0.303,0.11,0.425
				c0.03,0.062,0.061,0.126,0.09,0.188c-0.22,0.04-0.345,0.047-0.372,0.02l-0.053,0.068l-0.131-0.172
				c-0.102,0.124-0.125,0.306-0.069,0.547c0.066,0.262,0.07,0.45,0.012,0.567c0.082,0.121,0.179,0.177,0.293,0.172
				c0.049-0.003,0.09-0.02,0.127-0.055c0.053-0.134,0.105-0.266,0.159-0.398c0.078-0.161,0.166-0.244,0.263-0.248
				c0.075-0.005,0.164,0.035,0.266,0.117c0.121,0.043,0.184,0.099,0.188,0.168c0.001,0.044-0.025,0.115-0.083,0.211
				c-0.057,0.098-0.085,0.174-0.082,0.229c0.002,0.021,0.005,0.039,0.011,0.057c-0.078,0.057-0.147,0.145-0.21,0.261
				c-0.062,0.117-0.143,0.197-0.244,0.241c-0.087,0.083-0.169,0.129-0.244,0.133c-0.06,0.003-0.148-0.043-0.267-0.137
				c-0.118-0.095-0.229-0.138-0.331-0.134c-0.042-0.095-0.148-0.201-0.315-0.316c-0.168-0.115-0.272-0.241-0.312-0.374
				c0.001,0.01-0.001-0.032-0.005-0.129c-0.004-0.055-0.027-0.09-0.071-0.103l0.061-0.06c-0.081-0.002-0.122-0.048-0.127-0.141
				c-0.001-0.01-0.002-0.032-0.003-0.065c0.003-0.026,0.005-0.048,0.004-0.064c-0.003-0.064-0.024-0.108-0.063-0.135l-0.014-0.282
				c-0.008-0.146-0.037-0.251-0.09-0.312c0.054-0.344,0.106-0.688,0.159-1.03c0.088-0.399,0.22-0.604,0.392-0.613
				c0.027-0.001,0.054,0.003,0.081,0.012c0.156-0.153,0.343-0.236,0.564-0.247c0.243-0.012,0.512,0.062,0.807,0.22
				C36.81,132.411,36.952,132.823,37.007,133.27z M35.891,132.375l-0.054,0.068c-0.037,0.007-0.083-0.012-0.133-0.058l0.01,0.186
				c-0.083,0.091-0.115,0.23-0.102,0.42c0.017,0.324,0.024,0.479,0.024,0.469l0.243-0.003c0.115-0.066,0.17-0.174,0.161-0.325
				c-0.003-0.076-0.028-0.2-0.079-0.374C35.914,132.585,35.889,132.459,35.891,132.375z"></path>
		</g>
		<g>
			<polygon fill-rule="evenodd" clip-rule="evenodd" fill="#010101" points="38.91,141.438 39.151,141.576 39.969,139.429 
				39.695,139.338 38.877,141.486 39.116,141.638 38.91,141.438 38.91,141.438 			"></polygon>
			<polygon fill-rule="evenodd" clip-rule="evenodd" fill="#010101" points="39.267,141.141 39.168,141.18 38.91,141.438 
				39.116,141.638 39.379,141.365 39.277,141.417 39.267,141.141 39.267,141.141 			"></polygon>
			<polygon fill-rule="evenodd" clip-rule="evenodd" fill="#010101" points="41.248,141.124 41.364,141.032 39.267,141.141 
				39.277,141.417 41.374,141.311 41.506,141.211 41.248,141.124 41.248,141.124 41.248,141.124 			"></polygon>
			<polygon fill-rule="evenodd" clip-rule="evenodd" fill="#010101" points="42.195,139.149 42.051,138.972 41.248,141.124 
				41.506,141.211 42.324,139.062 42.182,138.885 42.195,139.149 42.195,139.149 42.195,139.149 			"></polygon>
			<polygon fill-rule="evenodd" clip-rule="evenodd" fill="#010101" points="40.197,139.218 40.093,139.27 42.195,139.149 
				42.182,138.885 40.089,138.978 39.986,139.031 40.197,139.218 40.197,139.218 40.197,139.218 			"></polygon>
			<polygon fill-rule="evenodd" clip-rule="evenodd" fill="#010101" points="39.969,139.429 39.938,139.476 40.197,139.218 
				39.986,139.031 39.725,139.291 39.695,139.338 39.969,139.429 39.969,139.429 39.969,139.429 			"></polygon>
			<polygon fill-rule="evenodd" clip-rule="evenodd" fill="#010101" points="41.709,141.378 41.896,141.296 41.447,141.046 
				41.304,141.301 41.766,141.556 41.969,141.466 41.697,141.374 41.697,141.374 41.709,141.378 			"></polygon>
			<polygon fill-rule="evenodd" clip-rule="evenodd" fill="#010101" points="42.588,139.396 42.514,139.227 41.697,141.374 
				41.969,141.466 42.787,139.317 42.712,139.149 42.588,139.396 42.588,139.396 			"></polygon>
			<polygon fill-rule="evenodd" clip-rule="evenodd" fill="#010101" points="42.324,139.062 42.122,139.153 42.588,139.396 
				42.712,139.149 42.264,138.898 42.051,138.972 42.324,139.062 42.324,139.062 			"></polygon>
			<polygon fill="#010101" points="39.838,139.387 39.826,139.382 40.085,139.122 42.031,139.027 42.051,138.972 42.195,139.019 
				42.324,139.062 42.316,139.086 42.657,139.274 42.787,139.317 42.733,139.457 43.686,141.721 42.88,143.873 41.839,141.423 
				41.839,141.423 41.706,141.478 41.697,141.374 41.707,141.349 41.378,141.168 41.304,141.301 41.263,141.173 39.267,141.27 
				39.007,141.528 			"></polygon>
			<polygon fill-rule="evenodd" clip-rule="evenodd" fill="#010101" points="42.75,143.829 43.014,143.816 41.973,141.366 
				41.706,141.478 42.747,143.929 43.01,143.916 42.738,143.825 42.738,143.825 42.75,143.829 			"></polygon>
			<polygon fill-rule="evenodd" clip-rule="evenodd" fill="#010101" points="43.565,141.782 43.555,141.677 42.738,143.825 
				43.01,143.916 43.829,141.77 43.82,141.666 43.565,141.782 43.565,141.782 			"></polygon>
			<polygon fill-rule="evenodd" clip-rule="evenodd" fill="#010101" points="42.787,139.317 42.523,139.33 43.565,141.782 
				43.82,141.666 42.779,139.214 42.514,139.227 42.787,139.317 42.787,139.317 			"></polygon>
			<polygon fill-rule="evenodd" clip-rule="evenodd" fill="#FFFFFF" points="42.717,139.871 42.833,140.127 42.877,140.385 
				42.865,140.64 42.791,140.904 42.661,141.162 42.484,141.393 42.254,141.603 41.977,141.785 41.827,141.851 41.675,141.914 
				41.506,141.945 41.35,141.979 41.2,142 41.036,142.018 40.884,141.997 40.728,141.988 40.594,141.958 40.453,141.909 
				40.314,141.85 40.193,141.78 40.089,141.702 39.972,141.619 39.877,141.516 39.799,141.403 39.681,141.149 39.639,140.889 
				39.639,140.63 39.726,140.371 39.838,140.12 40.02,139.879 40.25,139.667 40.539,139.49 40.678,139.421 40.842,139.359 
				40.997,139.326 41.152,139.292 41.317,139.273 41.467,139.253 41.62,139.273 41.775,139.283 41.917,139.329 42.06,139.378 
				42.19,139.421 42.323,139.495 42.431,139.559 42.544,139.654 42.623,139.767 42.717,139.871 42.717,139.871 42.717,139.871 			
				"></polygon>
			<polygon fill-rule="evenodd" clip-rule="evenodd" fill="#010101" points="42.821,140.295 42.937,140.551 42.976,140.821 
				42.964,141.077 42.893,141.328 42.778,141.592 42.583,141.828 42.372,142.032 42.082,142.209 41.926,142.286 41.775,142.351 
				41.619,142.384 41.451,142.417 41.299,142.438 41.152,142.447 40.996,142.438 40.832,142.412 40.698,142.381 40.555,142.334 
				40.43,142.277 40.296,142.204 40.188,142.139 40.088,142.048 39.99,141.957 39.902,141.828 39.782,141.586 39.739,141.326 
				39.755,141.058 39.826,140.808 39.942,140.544 40.12,140.314 40.349,140.103 40.637,139.927 40.793,139.849 40.941,139.796 
				41.1,139.749 41.27,139.72 41.417,139.71 41.568,139.689 41.719,139.71 41.874,139.72 42.022,139.754 42.165,139.801 
				42.29,139.857 42.428,139.92 42.532,139.995 42.649,140.077 42.725,140.19 42.817,140.308 42.817,140.308 42.821,140.295 			"></polygon>
			<polygon fill-rule="evenodd" clip-rule="evenodd" fill="#FFFFFF" points="42.893,140.593 43.016,140.835 43.054,141.107 
				43.041,141.363 42.972,141.612 42.842,141.872 42.66,142.113 42.449,142.316 42.16,142.493 42.017,142.576 41.852,142.637 
				41.697,142.671 41.528,142.7 41.376,142.724 41.23,142.731 41.074,142.724 40.91,142.697 40.776,142.666 40.633,142.619 
				40.508,142.562 40.374,142.489 40.266,142.424 40.154,142.329 40.071,142.229 39.98,142.113 39.86,141.872 39.816,141.61 
				39.829,141.356 39.902,141.093 40.019,140.83 40.201,140.588 40.438,140.394 40.716,140.211 40.872,140.135 41.022,140.068 
				41.179,140.034 41.347,140.003 41.498,139.983 41.645,139.974 41.814,139.987 41.953,140.003 42.099,140.04 42.242,140.087 
				42.379,140.146 42.5,140.216 42.609,140.282 42.725,140.363 42.803,140.477 42.893,140.593 42.893,140.593 			"></polygon>
			<polygon fill-rule="evenodd" clip-rule="evenodd" fill="#010101" points="42.998,141.016 43.115,141.271 43.159,141.531 
				43.159,141.789 43.071,142.049 42.958,142.3 42.764,142.537 42.548,142.755 42.259,142.931 42.121,142.999 41.956,143.06 
				41.8,143.095 41.645,143.128 41.479,143.146 41.329,143.167 41.178,143.146 41.022,143.138 40.875,143.104 40.733,143.055 
				40.607,142.999 40.473,142.926 40.37,142.847 40.266,142.771 40.17,142.666 40.08,142.55 39.976,142.299 39.919,142.034 
				39.933,141.78 40.006,141.516 40.131,141.27 40.314,141.028 40.542,140.816 40.82,140.636 40.97,140.57 41.122,140.506 
				41.291,140.476 41.447,140.44 41.598,140.419 41.758,140.415 41.913,140.424 42.056,140.427 42.204,140.463 42.345,140.511 
				42.484,140.57 42.604,140.64 42.722,140.722 42.825,140.801 42.92,140.904 42.994,141.029 42.994,141.029 42.998,141.016 			"></polygon>
			<polygon fill-rule="evenodd" clip-rule="evenodd" fill="#FFFFFF" points="43.149,141.296 43.271,141.54 43.314,141.798 
				43.309,142.07 43.24,142.321 43.11,142.581 42.916,142.818 42.705,143.021 42.427,143.203 42.271,143.28 42.107,143.341 
				41.952,143.376 41.795,143.409 41.631,143.427 41.485,143.437 41.329,143.427 41.178,143.405 41.031,143.371 40.888,143.323 
				40.762,143.267 40.637,143.211 40.521,143.128 40.42,143.038 40.327,142.934 40.249,142.822 40.126,142.58 40.075,142.304 
				40.088,142.048 40.17,141.802 40.288,141.539 40.468,141.296 40.694,141.098 40.97,140.917 41.125,140.839 41.277,140.773 
				41.442,140.757 41.601,140.709 41.753,140.688 41.913,140.684 42.069,140.692 42.207,140.709 42.354,140.743 42.509,140.796 
				42.634,140.852 42.761,140.908 42.877,140.99 42.976,141.082 43.072,141.186 43.149,141.296 43.149,141.296 			"></polygon>
			<polygon fill-rule="evenodd" clip-rule="evenodd" fill="#010101" points="43.266,141.726 43.37,141.976 43.426,142.239 
				43.412,142.494 43.339,142.757 43.213,143.005 43.032,143.247 42.802,143.459 42.526,143.64 42.375,143.704 42.21,143.765 
				42.056,143.799 41.9,143.834 41.749,143.855 41.584,143.871 41.432,143.852 41.277,143.842 41.143,143.812 40.988,143.76 
				40.862,143.703 40.742,143.635 40.625,143.553 40.521,143.475 40.425,143.37 40.348,143.259 40.232,143.004 40.175,142.74 
				40.188,142.484 40.274,142.225 40.386,141.973 40.568,141.732 40.797,141.52 41.087,141.344 41.226,141.274 41.39,141.215 
				41.545,141.18 41.702,141.146 41.866,141.128 42.017,141.106 42.167,141.128 42.311,141.133 42.471,141.172 42.613,141.22 
				42.739,141.276 42.86,141.345 42.976,141.427 43.08,141.505 43.174,141.608 43.266,141.726 43.266,141.726 43.266,141.726 			"></polygon>
			<polygon fill-rule="evenodd" clip-rule="evenodd" fill="#010101" points="28.975,138.427 28.989,138.345 28.167,140.505 
				28.426,140.591 29.248,138.431 29.251,138.375 28.975,138.427 28.975,138.427 28.975,138.427 			"></polygon>
			<polygon fill-rule="evenodd" clip-rule="evenodd" fill="#010101" points="28.954,138.316 28.958,138.305 28.975,138.427 
				29.251,138.375 29.222,138.249 29.227,138.236 28.954,138.316 28.954,138.316 28.954,138.316 			"></polygon>
			<polygon fill-rule="evenodd" clip-rule="evenodd" fill="#010101" points="28.923,138.193 28.954,138.316 29.227,138.236 
				29.196,138.11 28.923,138.193 28.923,138.193 28.923,138.193 			"></polygon>
			<polygon fill-rule="evenodd" clip-rule="evenodd" fill="#010101" points="28.889,138.081 28.923,138.193 29.196,138.11 
				29.162,137.999 28.889,138.081 28.889,138.081 			"></polygon>
			<polygon fill-rule="evenodd" clip-rule="evenodd" fill="#010101" points="28.859,137.955 28.859,137.955 28.889,138.081 
				29.162,137.999 29.13,137.874 29.127,137.887 28.859,137.955 28.859,137.955 28.859,137.955 			"></polygon>
			<polygon fill-rule="evenodd" clip-rule="evenodd" fill="#010101" points="28.825,137.8 28.825,137.844 28.859,137.955 
				29.127,137.887 29.092,137.773 29.106,137.821 28.825,137.8 28.825,137.8 			"></polygon>
			<polygon fill-rule="evenodd" clip-rule="evenodd" fill="#010101" points="29.1,137.747 28.829,137.7 28.825,137.8 
				29.106,137.821 29.109,137.723 28.837,137.673 29.096,137.76 29.096,137.76 29.1,137.747 			"></polygon>
			<polygon fill-rule="evenodd" clip-rule="evenodd" fill="#4D494A" points="29.336,144.036 29.311,143.897 29.022,143.945 
				29.042,144.097 29.336,144.036 29.336,144.036 29.336,144.036 			"></polygon>
			<polygon fill-rule="evenodd" clip-rule="evenodd" fill="#010101" points="29.939,142.235 29.947,142.166 29.129,144.313 
				29.389,144.398 30.207,142.251 30.202,142.178 29.939,142.235 29.939,142.235 29.939,142.235 			"></polygon>
			<polygon fill-rule="evenodd" clip-rule="evenodd" fill="#010101" points="29.917,142.083 29.939,142.235 30.202,142.178 
				30.181,142.027 29.904,142.079 29.904,142.079 29.917,142.083 			"></polygon>
			<polygon fill-rule="evenodd" clip-rule="evenodd" fill="#010101" points="29.878,141.941 29.904,142.079 30.181,142.027 
				30.142,141.885 29.878,141.941 29.878,141.941 29.878,141.941 			"></polygon>
			<polygon fill-rule="evenodd" clip-rule="evenodd" fill="#010101" points="29.843,141.785 29.852,141.802 29.878,141.941 
				30.142,141.885 30.121,141.732 30.128,141.751 29.843,141.785 29.843,141.785 29.843,141.785 			"></polygon>
			<polygon fill-rule="evenodd" clip-rule="evenodd" fill="#010101" points="30.103,141.655 29.827,141.619 29.843,141.785 
				30.128,141.751 30.107,141.601 29.831,141.565 30.103,141.655 30.103,141.655 			"></polygon>
			<g>
				<polygon fill="#4D494A" points="28.167,140.076 28.036,140.115 28.167,140.076 				"></polygon>
				<polygon fill="#4D494A" points="28.304,140.526 28.309,140.515 28.376,140.52 28.426,140.591 28.305,140.552 				"></polygon>
				<polygon fill="#010101" points="28.005,139.991 28.146,139.964 28.149,139.865 28.971,137.706 28.966,137.718 28.966,137.805 
					28.989,137.913 29.032,138.043 29.066,138.155 29.096,138.279 29.118,138.388 29.118,138.388 29.248,138.431 28.426,140.591 
					28.376,140.52 28.309,140.515 28.304,140.526 28.305,140.552 28.426,140.591 28.306,140.584 28.309,140.683 28.226,140.579 
					28.158,140.574 28.14,140.453 28.19,140.442 28.244,140.303 28.106,140.342 28.067,140.241 28.036,140.115 28.167,140.076 
					28.167,140.076 28.036,140.115 28.041,140.103 				"></polygon>
			</g>
			<g>
				<polygon fill="none" points="34.698,140.581 34.698,140.581 34.816,140.317 				"></polygon>
				<polygon fill="#010101" points="28.3,140.406 34.318,140.209 34.473,140.216 34.5,140.228 34.646,140.261 34.66,140.267 
					34.816,140.317 34.966,140.383 34.979,140.387 35.123,140.478 35.148,140.485 35.26,140.581 35.295,140.607 35.377,140.705 
					35.385,140.724 35.442,140.813 35.446,140.845 35.181,140.925 35.139,140.858 35.135,140.871 35.066,140.775 35.067,140.775 
					34.974,140.701 34.997,140.724 34.849,140.646 34.85,140.645 34.698,140.581 34.698,140.581 34.568,140.537 34.421,140.504 
					34.448,140.512 34.309,140.494 34.309,140.481 28.309,140.683 				"></polygon>
				<polygon fill="#010101" points="35.174,140.928 35.181,140.925 35.196,140.948 				"></polygon>
			</g>
			<polygon fill-rule="evenodd" clip-rule="evenodd" fill="#010101" points="38.388,145.976 38.388,145.891 37.566,148.051 
				37.839,148.142 38.662,145.98 38.662,145.896 38.388,145.976 38.388,145.976 38.388,145.976 			"></polygon>
			<polygon fill-rule="evenodd" clip-rule="evenodd" fill="#010101" points="36.014,138.8 35.996,138.767 38.388,145.976 
				38.662,145.896 36.268,138.684 36.263,138.655 36.014,138.8 36.014,138.8 36.014,138.8 			"></polygon>
			<polygon fill-rule="evenodd" clip-rule="evenodd" fill="#010101" points="35.965,138.728 35.958,138.711 36.014,138.8 
				36.263,138.655 36.208,138.563 36.195,138.558 35.952,138.724 35.952,138.724 35.965,138.728 			"></polygon>
			<polygon fill-rule="evenodd" clip-rule="evenodd" fill="#010101" points="35.91,138.637 35.887,138.615 35.952,138.724 
				36.195,138.558 36.104,138.443 36.082,138.42 35.91,138.637 35.91,138.637 35.91,138.637 			"></polygon>
			<polygon fill-rule="evenodd" clip-rule="evenodd" fill="#010101" points="35.814,138.576 35.792,138.555 35.91,138.637 
				36.082,138.42 35.965,138.339 35.944,138.316 35.814,138.576 35.814,138.576 			"></polygon>
			<polygon fill-rule="evenodd" clip-rule="evenodd" fill="#010101" points="35.684,138.489 35.671,138.485 35.814,138.576 
				35.944,138.316 35.796,138.239 35.784,138.235 35.684,138.489 35.684,138.489 			"></polygon>
			<polygon fill-rule="evenodd" clip-rule="evenodd" fill="#010101" points="35.546,138.43 35.516,138.433 35.684,138.489 
				35.784,138.235 35.632,138.17 35.62,138.166 35.53,138.437 35.53,138.437 35.546,138.43 			"></polygon>
			<polygon fill-rule="evenodd" clip-rule="evenodd" fill="#010101" points="35.39,138.378 35.373,138.386 35.53,138.437 
				35.62,138.166 35.463,138.114 35.463,138.114 35.385,138.39 35.385,138.39 35.39,138.378 			"></polygon>
			<polygon fill-rule="evenodd" clip-rule="evenodd" fill="#010101" points="35.27,138.351 35.244,138.343 35.385,138.39 
				35.463,138.114 35.304,138.075 35.292,138.07 35.27,138.351 35.27,138.351 35.27,138.351 			"></polygon>
			<polygon fill-rule="evenodd" clip-rule="evenodd" fill="#010101" points="35.13,138.333 35.126,138.346 35.27,138.351 
				35.292,138.07 35.139,138.047 35.123,138.058 35.13,138.333 35.13,138.333 			"></polygon>
			<polygon fill-rule="evenodd" clip-rule="evenodd" fill="#010101" points="29.26,138.436 29.114,138.528 35.13,138.333 
				35.123,138.058 29.118,138.259 28.989,138.345 29.248,138.431 29.248,138.431 29.26,138.436 			"></polygon>
			<polygon fill="#4D494A" points="30.772,145.005 30.751,144.993 30.764,144.987 			"></polygon>
			<g>
				<polygon fill="#4D494A" points="34.022,145.977 33.998,146.269 34.022,145.977 				"></polygon>
				<g>
					<polygon fill="none" points="34.01,146.116 33.998,146.269 34.01,146.116 					"></polygon>
					<g>
						<polygon fill="none" points="29.133,143.777 29.143,143.755 29.148,143.783 						"></polygon>
						<path fill="#010101" d="M29.042,144.097l0.026,0.139l0.052,0.147l0.065,0.108l0.367,0.193l0.367,0.194l0.354,0.191
							l0.358,0.177l0.014,0.005l0.363,0.163l0.362,0.166l0.394,0.159l0.398,0.147l0.013,0.004l0.423,0.112l0.424,0.112l0.014,0.005
							l0.467,0.069l0.479,0.074l0.014,0.004l0.521,0.028l0.019-0.007l0.558,0.014l0.596-0.02l0.632-0.033l0.13-0.086l0.816-2.147
							l-0.138-0.19l0.009,0.277l-0.044-0.055l0.032-0.08l-0.092,0.006l-0.038-0.049l-0.021,0.054l-0.469,0.027h-0.605l-0.558-0.012
							l-0.51-0.026l-0.497-0.065l-0.463-0.081l-0.425-0.113l-0.423-0.112l-0.396-0.147l-0.386-0.144l-0.362-0.164l-0.359-0.177
							l-0.372-0.182l-0.354-0.19l-0.354-0.19l-0.246-0.13l0.008-0.022l-0.13-0.043l0,0l-0.034-0.154l-0.026-0.14l-0.011-0.047
							l0.098-0.212l-0.137-0.045l-0.007-0.003l0,0l-0.129-0.042l-0.818,2.147l-0.008,0.069l0.021,0.15L29.042,144.097z
							 M29.143,143.755l0.005,0.028l-0.015-0.006L29.143,143.755z"></path>
					</g>
				</g>
			</g>
			<polygon fill-rule="evenodd" clip-rule="evenodd" fill="#010101" points="36.509,144.139 37.14,144.104 37.131,143.827 
				36.5,143.862 36.509,144.139 36.509,144.139 36.509,144.139 			"></polygon>
			<polygon fill-rule="evenodd" clip-rule="evenodd" fill="#010101" points="35.913,144.156 36.509,144.139 36.5,143.862 
				35.904,143.88 35.913,144.156 35.913,144.156 35.913,144.156 			"></polygon>
			<polygon fill-rule="evenodd" clip-rule="evenodd" fill="#010101" points="35.342,144.139 35.355,144.141 35.913,144.156 
				35.904,143.88 35.347,143.866 35.364,143.857 35.337,144.15 35.337,144.15 35.342,144.139 			"></polygon>
			<polygon fill-rule="evenodd" clip-rule="evenodd" fill="#010101" points="34.805,144.104 34.819,144.107 35.337,144.15 
				35.364,143.857 34.84,143.825 34.853,143.831 34.805,144.104 34.805,144.104 34.805,144.104 			"></polygon>
			<polygon fill-rule="evenodd" clip-rule="evenodd" fill="#010101" points="34.321,144.043 34.805,144.104 34.853,143.831 
				34.374,143.757 34.321,144.043 34.321,144.043 			"></polygon>
			<polygon fill-rule="evenodd" clip-rule="evenodd" fill="#010101" points="33.845,143.956 33.859,143.962 34.321,144.043 
				34.374,143.757 33.893,143.684 33.907,143.688 33.845,143.956 33.845,143.956 33.845,143.956 			"></polygon>
			<polygon fill-rule="evenodd" clip-rule="evenodd" fill="#010101" points="33.422,143.843 33.845,143.956 33.907,143.688 
				33.484,143.575 33.417,143.856 33.417,143.856 33.422,143.843 			"></polygon>
			<polygon fill-rule="evenodd" clip-rule="evenodd" fill="#010101" points="32.981,143.74 32.995,143.744 33.417,143.856 
				33.484,143.575 33.06,143.463 33.073,143.468 32.981,143.74 32.981,143.74 			"></polygon>
			<polygon fill-rule="evenodd" clip-rule="evenodd" fill="#010101" points="32.583,143.592 32.583,143.592 32.981,143.74 
				33.073,143.468 32.674,143.32 32.689,143.324 32.572,143.588 32.572,143.588 32.583,143.592 			"></polygon>
			<polygon fill-rule="evenodd" clip-rule="evenodd" fill="#010101" points="32.19,143.433 32.572,143.588 32.689,143.324 
				32.308,143.168 32.19,143.433 32.19,143.433 			"></polygon>
			<polygon fill-rule="evenodd" clip-rule="evenodd" fill="#010101" points="31.828,143.268 32.19,143.433 32.308,143.168 
				31.94,143.016 31.828,143.268 31.828,143.268 			"></polygon>
			<polygon fill-rule="evenodd" clip-rule="evenodd" fill="#010101" points="31.456,143.085 31.463,143.104 31.828,143.268 
				31.94,143.016 31.569,142.837 31.582,142.841 31.451,143.099 31.451,143.099 31.456,143.085 			"></polygon>
			<polygon fill-rule="evenodd" clip-rule="evenodd" fill="#010101" points="31.097,142.909 31.451,143.099 31.582,142.841 
				31.222,142.663 31.093,142.922 31.093,142.922 31.097,142.909 			"></polygon>
			<polygon fill-rule="evenodd" clip-rule="evenodd" fill="#010101" points="30.743,142.719 31.093,142.922 31.222,142.663 
				30.869,142.474 30.729,142.716 30.729,142.716 30.743,142.719 			"></polygon>
			<polygon fill-rule="evenodd" clip-rule="evenodd" fill="#010101" points="30.375,142.524 30.729,142.716 30.869,142.474 
				30.513,142.281 30.375,142.524 30.375,142.524 			"></polygon>
			<polygon fill-rule="evenodd" clip-rule="evenodd" fill="#010101" points="30.207,142.251 30.007,142.329 30.375,142.524 
				30.513,142.281 30.147,142.088 29.947,142.166 30.207,142.251 30.207,142.251 30.207,142.251 			"></polygon>
			<polygon fill-rule="evenodd" clip-rule="evenodd" fill="#010101" points="67.678,138.359 66.856,140.521 69.541,141.415 
				70.164,139.98 70.18,139.843 70.185,139.699 70.164,139.548 70.111,139.401 70.025,139.272 69.956,139.133 69.843,138.995 
				69.727,138.87 69.606,138.758 69.471,138.641 69.333,138.536 69.199,138.462 69.069,138.377 68.917,138.312 68.785,138.237 
				68.655,138.195 68.539,138.156 68.398,138.139 68.274,138.127 68.153,138.144 68.032,138.161 67.903,138.203 67.79,138.281 
				67.678,138.359 67.678,138.359 67.678,138.359 			"></polygon>
			<polygon fill-rule="evenodd" clip-rule="evenodd" fill="#010101" points="69.419,141.347 69.587,141.273 66.904,140.378 
				66.812,140.65 69.498,141.544 69.678,141.476 69.419,141.347 69.419,141.347 			"></polygon>
			<g>
				<polygon fill="none" points="69.937,141.969 69.955,142.114 69.937,141.969 				"></polygon>
				<polygon fill="none" points="71.322,140.522 71.42,140.617 71.314,140.541 				"></polygon>
				<g>
					<polygon fill="none" points="71.42,140.617 71.314,140.541 71.322,140.522 					"></polygon>
					<g>
						<polygon fill="none" points="71.42,140.617 71.314,140.541 71.322,140.522 						"></polygon>
						<polygon fill="#010101" points="28.005,139.861 28.019,139.821 28.837,137.673 29.096,137.76 28.303,139.883 28.288,139.969 
							28.284,139.938 28.005,139.991 28.002,139.961 						"></polygon>
						<g>
							<polygon fill="none" points="71.42,140.617 71.314,140.541 71.322,140.522 							"></polygon>
							<polygon fill="#4D494A" points="41.168,144.945 41.121,144.974 41.117,144.97 							"></polygon>
							<g>
								<polygon fill="none" points="41.221,145.07 41.324,145.169 41.221,145.07 								"></polygon>
								<polygon fill="none" points="71.42,140.617 71.314,140.541 71.322,140.522 								"></polygon>
								<polygon fill="none" points="37.697,148.094 37.707,148.094 37.707,148.098 37.566,148.051 37.684,148.052 								"></polygon>
								<path fill="#010101" d="M28.106,140.342l0.029,0.125l0.005-0.014l0.21-0.043l-0.054,0.138l6.018-0.196l0.142,0.005
									l0.156,0.053l0.156,0.05l0.154,0.054l0.144,0.089l0.116,0.083l0.083,0.101l0.05,0.099l-0.141,0.044l2.392,7.21l0.142,0.001
									l0.003,0.089h0.216l0.203-0.004l0.186,0.004l0.169-0.029l0.172-0.045l0.173-0.084l0.16-0.135l0.19-0.182l0.004-0.015
									l0.109-0.149l0.124-0.16l0.144-0.168l0.1-0.169l0.126-0.203l0.13-0.173l0.106-0.193l0.139-0.201l0.112-0.163l0.16-0.177
									l0.131-0.173l0.15-0.152l0.134-0.142l0.144-0.126l0.138-0.111l0.16-0.09l0.034-0.019l-0.103-0.099l0,0l0.103,0.099
									l0.161-0.177l0.146-0.14l0.13-0.128l0.139-0.114l0.135-0.098l0.141-0.083l0.126-0.073l0.139-0.068l0.155-0.035l0.151-0.063
									l0.156-0.036l0.18-0.025l0.199-0.035l0.222-0.013l0.238-0.021l0.232-0.01l0.014,0.006l25.967-1.941l0.151-0.019l0.139-0.028
									l0.125-0.029l0.131-0.043l0.12-0.061l0.126-0.074l0.104-0.095l0.121-0.104l0.025-0.033l0.454-1.059l-0.236-0.152
									l0.104,0.103l-0.017,0.014l-0.115-0.081l-0.113,0.266l-0.077,0.045l-0.099,0.04l-0.117,0.047l-0.108,0.021l-0.138,0.026
									l-0.139,0.025l-25.98,1.936l-0.165,0.016l-0.159,0.006l-0.159,0.004l-0.169,0.027h-0.174l-0.15,0.024l-0.165,0.017
									l-0.15,0.021l-0.17,0.031l-0.15,0.021l-0.154,0.034l-0.174,0.044l-0.156,0.034l-0.165,0.061l-0.164,0.062l-0.155,0.077
									l-0.307,0.186l-0.312,0.285l-0.328,0.337l-0.316,0.385l-0.307,0.401l-0.264,0.359l-0.26,0.346l-0.215,0.26l-0.127,0.029
									l-0.107,0.022l-0.135,0.013h-0.13h-0.13l-0.111-0.009l-0.143-0.005l-0.126-0.014l-2.384-7.192l-0.053-0.104L36,138.536
									l-0.115-0.081l-0.157-0.095l-0.151-0.065l-0.155-0.053l-0.147-0.034l-0.143-0.004l-6.013,0.184l-0.723,1.9l-0.004-0.025
									L28.106,140.342z M71.314,140.541l0.008-0.019l0.099,0.095L71.314,140.541z"></path>
							</g>
						</g>
					</g>
				</g>
			</g>
			<polygon fill-rule="evenodd" clip-rule="evenodd" fill="#010101" points="70.405,141.071 70.56,141.035 70.698,141.01 
				70.825,140.979 70.955,140.936 71.075,140.875 71.201,140.803 71.299,140.721 71.42,140.617 71.214,140.417 71.123,140.517 
				71.028,140.587 70.936,140.643 70.837,140.681 70.742,140.707 70.629,140.741 70.509,140.759 70.375,140.771 70.405,141.071 
				70.405,141.071 			"></polygon>
			<polygon fill-rule="evenodd" clip-rule="evenodd" fill="#010101" points="44.441,142.997 70.405,141.071 70.375,140.771 
				44.408,142.711 44.441,142.997 44.441,142.997 			"></polygon>
			<polygon fill-rule="evenodd" clip-rule="evenodd" fill="#010101" points="41.895,143.458 42.046,143.394 42.194,143.341 
				42.372,143.285 42.518,143.233 42.677,143.187 42.829,143.165 42.981,143.143 43.149,143.113 43.288,143.085 43.447,143.083 
				43.612,143.065 43.776,143.048 43.94,143.031 44.086,143.022 44.264,143.01 44.441,142.997 44.408,142.711 44.242,142.729 
				44.08,142.745 43.906,142.745 43.742,142.763 43.581,142.768 43.426,142.802 43.265,142.806 43.088,142.818 42.932,142.853 
				42.778,142.888 42.609,142.918 42.435,142.961 42.289,143.013 42.112,143.068 41.935,143.125 41.778,143.202 41.895,143.458 
				41.895,143.458 41.895,143.458 			"></polygon>
			<polygon fill-rule="evenodd" clip-rule="evenodd" fill="#010101" points="39.569,146.023 39.625,145.985 39.742,145.851 
				39.845,145.713 39.97,145.554 40.101,145.38 40.249,145.199 40.382,145.013 40.533,144.817 40.685,144.625 40.84,144.417 
				41,144.239 41.157,144.075 41.316,143.897 41.45,143.755 41.619,143.64 41.757,143.527 41.895,143.458 41.778,143.202 
				41.601,143.303 41.45,143.409 41.273,143.553 41.105,143.713 40.949,143.877 40.792,144.041 40.621,144.257 40.468,144.451 
				40.317,144.646 40.166,144.84 40.033,145.026 39.884,145.207 39.754,145.38 39.629,145.54 39.527,145.679 39.431,145.791 
				39.483,145.764 39.569,146.023 39.569,146.023 39.569,146.023 			"></polygon>
			<polygon fill="none" points="67.622,138.484 67.678,138.359 67.781,138.265 67.937,138.187 68.119,138.161 68.217,138.165 
				68.332,138.174 68.438,138.195 68.546,138.217 68.676,138.261 68.793,138.3 68.918,138.355 69.052,138.429 69.165,138.48 
				69.282,138.563 69.385,138.641 69.499,138.736 69.615,138.817 69.696,138.917 69.796,139.008 69.878,139.107 70.029,139.302 
				70.107,139.501 70.146,139.601 70.167,139.666 70.155,139.835 70.124,139.968 70.028,140.08 69.89,140.148 69.705,140.188 
				69.601,140.197 69.494,140.174 69.368,140.162 69.234,140.132 69.117,140.093 68.988,140.049 68.849,139.99 68.727,139.92 
				68.603,139.863 68.467,139.79 68.351,139.709 68.24,139.612 68.135,139.534 68.028,139.428 67.932,139.323 67.851,139.223 
				67.717,139.019 67.638,138.822 67.617,138.757 67.595,138.648 			"></polygon>
			<polygon fill-rule="evenodd" clip-rule="evenodd" fill="#FFFFFF" points="34.595,138.213 35.13,138.204 35.174,138.204 
				30.571,136.669 30.337,136.807 34.59,138.226 34.59,138.226 34.595,138.213 			"></polygon>
			<polygon fill-rule="evenodd" clip-rule="evenodd" fill="#FFFFFF" points="34.595,138.213 29.118,138.388 29.096,138.279 
				29.066,138.155 29.032,138.043 28.989,137.913 28.966,137.805 28.966,137.718 29.001,137.614 29.096,137.544 29.322,137.39 
				29.572,137.243 29.823,137.096 30.074,136.949 30.312,136.797 30.337,136.807 34.59,138.226 34.59,138.226 34.595,138.213 			"></polygon>
			<polygon fill="#FFFFFF" points="31.265,141.539 34.997,141.329 36.457,141.917 36.971,143.442 37.128,143.97 36.509,144.008 
				35.904,144.008 35.346,143.996 34.836,143.97 34.339,143.904 33.876,143.823 33.452,143.71 33.029,143.598 32.632,143.45 
				32.247,143.307 31.884,143.143 31.525,142.966 31.153,142.784 30.798,142.594 30.445,142.403 30.077,142.208 30.042,142.054 
				30.016,141.914 29.982,141.76 29.959,141.607 			"></polygon>
			<polygon fill-rule="evenodd" clip-rule="evenodd" fill="#FFFFFF" points="40.664,141.966 40.716,142.027 41.196,142.316 
				41.35,142.067 40.871,141.776 40.918,141.85 40.664,141.966 40.681,142 40.716,142.027 40.664,141.966 40.664,141.966 			"></polygon>
			<polygon fill-rule="evenodd" clip-rule="evenodd" fill="#FFFFFF" points="36.397,142.056 36.315,141.956 36.999,144.013 
				37.269,143.93 36.587,141.872 36.513,141.791 36.587,141.872 36.566,141.809 36.513,141.791 36.397,142.056 36.397,142.056 
				36.397,142.056 			"></polygon>
			<polygon fill-rule="evenodd" clip-rule="evenodd" fill="#FFFFFF" points="35.01,141.464 34.94,141.454 36.397,142.056 
				36.513,141.791 35.058,141.19 35,141.187 35.058,141.19 35.031,141.183 35,141.187 35.01,141.464 35.01,141.464 35.01,141.464 
							"></polygon>
			<polygon fill-rule="evenodd" clip-rule="evenodd" fill="#FFFFFF" points="30.107,141.601 29.969,141.755 35.01,141.464 
				35,141.187 29.96,141.478 29.827,141.619 29.96,141.478 29.8,141.481 29.827,141.619 30.107,141.601 30.107,141.601 			"></polygon>
			<polygon fill-rule="evenodd" clip-rule="evenodd" fill="#FFFFFF" points="30.147,142.088 30.202,142.178 30.198,142.104 
				30.181,142.027 30.176,141.954 30.155,141.889 30.15,141.815 30.133,141.738 30.112,141.673 30.107,141.601 29.827,141.619 
				29.826,141.707 29.839,141.798 29.861,141.86 29.866,141.935 29.886,142 29.904,142.079 29.934,142.161 29.939,142.235 
				30.007,142.329 29.939,142.235 29.959,142.299 30.007,142.329 30.147,142.088 30.147,142.088 			"></polygon>
			<polygon fill-rule="evenodd" clip-rule="evenodd" fill="#FFFFFF" points="37,143.999 37.118,143.823 36.5,143.862 35.904,143.88 
				35.364,143.857 34.84,143.825 34.374,143.757 33.907,143.688 33.484,143.575 33.073,143.468 32.674,143.32 32.308,143.168 
				31.94,143.016 31.582,142.841 31.222,142.663 30.869,142.474 30.513,142.281 30.147,142.088 30.007,142.329 30.375,142.524 
				30.729,142.716 31.093,142.922 31.451,143.099 31.828,143.268 32.19,143.433 32.583,143.592 32.981,143.74 33.417,143.856 
				33.845,143.956 34.321,144.043 34.819,144.107 35.337,144.15 35.913,144.156 36.509,144.139 37.153,144.108 37.269,143.93 
				37.153,144.108 37.331,144.095 37.269,143.93 36.999,144.013 36.999,144.013 37,143.999 			"></polygon>
			<g>
				<polygon fill="none" points="39.61,145.827 39.715,145.93 39.61,145.827 				"></polygon>
				<polygon fill="none" points="38.653,145.791 38.627,145.792 38.627,145.792 				"></polygon>
				<polygon fill="none" points="36.306,138.798 40.089,140.061 36.306,138.798 				"></polygon>
			</g>
			<polygon fill-rule="evenodd" clip-rule="evenodd" fill="#FFFFFF" points="44.408,142.711 44.217,142.72 44.004,142.75 
				43.815,142.757 43.608,142.774 43.409,142.81 43.197,142.841 42.985,142.871 42.781,142.918 42.578,142.966 42.401,143.021 
				42.206,143.085 42.025,143.155 41.869,143.233 41.684,143.315 41.532,143.424 41.393,143.535 41.567,143.753 41.701,143.652 
				41.831,143.565 41.973,143.483 42.137,143.424 42.297,143.333 42.47,143.289 42.673,143.242 42.851,143.187 43.045,143.165 
				43.218,143.121 43.426,143.104 43.625,143.07 43.836,143.039 44.043,143.021 44.238,143.001 44.441,142.997 44.408,142.711 
				44.408,142.711 44.408,142.711 			"></polygon>
			<polygon fill-rule="evenodd" clip-rule="evenodd" fill="#FFFFFF" points="70.375,140.771 44.408,142.711 44.441,142.997 
				70.405,141.071 70.375,140.771 70.375,140.771 			"></polygon>
			<polygon fill-rule="evenodd" clip-rule="evenodd" fill="#FFFFFF" points="70.859,139.188 70.967,139.341 71.08,139.48 
				71.132,139.627 71.214,139.77 71.256,139.899 71.27,140.032 71.273,140.148 71.265,140.261 71.235,140.353 71.192,140.439 
				71.135,140.521 71.035,140.604 70.932,140.656 70.767,140.716 70.595,140.759 70.375,140.771 70.405,141.071 70.642,141.048 
				70.85,140.987 71.031,140.917 71.192,140.829 71.339,140.732 71.442,140.594 71.499,140.469 71.55,140.313 71.547,140.153 
				71.555,139.999 71.52,139.843 71.463,139.667 71.399,139.513 71.312,139.341 71.201,139.16 71.088,139.021 70.859,139.188 
				70.859,139.188 			"></polygon>
			<polygon fill-rule="evenodd" clip-rule="evenodd" fill="#FFFFFF" points="67.763,137.711 67.998,137.702 68.235,137.725 
				68.477,137.776 68.709,137.812 68.931,137.885 69.152,137.958 69.363,138.058 69.563,138.153 69.77,138.265 69.959,138.386 
				70.164,138.512 70.31,138.632 70.465,138.771 70.618,138.922 70.743,139.064 70.859,139.188 71.088,139.021 70.955,138.861 
				70.802,138.711 70.651,138.558 70.483,138.416 70.297,138.282 70.112,138.148 69.921,138.026 69.706,137.896 69.481,137.794 
				69.25,137.702 69.017,137.625 68.772,137.542 68.529,137.489 68.282,137.451 68,137.43 67.756,137.432 67.763,137.711 
				67.763,137.711 			"></polygon>
			<polygon fill-rule="evenodd" clip-rule="evenodd" fill="#FFFFFF" points="44.789,138.502 67.763,137.711 67.756,137.432 
				44.792,138.229 44.789,138.502 44.789,138.502 			"></polygon>
			<polygon fill-rule="evenodd" clip-rule="evenodd" fill="#FFFFFF" points="41.162,137.925 41.377,138.013 41.607,138.06 
				41.828,138.133 42.056,138.181 42.297,138.233 42.523,138.294 42.769,138.332 42.99,138.362 43.219,138.411 43.457,138.432 
				43.69,138.467 43.919,138.47 44.139,138.501 44.374,138.492 44.584,138.507 44.789,138.502 44.792,138.229 44.576,138.229 
				44.364,138.217 44.166,138.208 43.941,138.191 43.715,138.173 43.492,138.155 43.271,138.125 43.039,138.091 42.809,138.043 
				42.588,138.013 42.364,137.953 42.13,137.918 41.906,137.855 41.667,137.792 41.467,137.74 41.249,137.667 41.158,137.938 
				41.158,137.938 41.162,137.925 			"></polygon>
			<polygon fill-rule="evenodd" clip-rule="evenodd" fill="#FFFFFF" points="33.412,135.802 33.804,135.745 34.175,135.71 
				34.531,135.684 34.855,135.662 35.162,135.649 35.439,135.685 35.723,135.693 35.961,135.715 36.208,135.753 36.438,135.803 
				36.653,135.845 36.848,135.91 37.055,135.979 37.219,136.048 37.422,136.13 37.583,136.212 37.768,136.305 37.955,136.394 
				38.136,136.499 38.318,136.603 38.5,136.705 38.69,136.828 38.875,136.918 39.078,137.043 39.302,137.147 39.519,137.277 
				39.761,137.372 39.995,137.493 40.257,137.609 40.543,137.706 40.847,137.834 41.158,137.938 41.249,137.667 40.937,137.562 
				40.63,137.446 40.374,137.345 40.107,137.242 39.861,137.116 39.649,137.017 39.433,136.887 39.22,136.788 39.013,136.676 
				38.819,136.567 38.637,136.464 38.448,136.342 38.265,136.238 38.08,136.147 37.894,136.058 37.725,135.957 37.54,135.867 
				37.336,135.784 37.146,135.707 36.938,135.638 36.718,135.563 36.489,135.517 36.256,135.481 36,135.426 35.737,135.395 
				35.464,135.392 35.148,135.387 34.846,135.386 34.496,135.398 34.141,135.425 33.766,135.472 33.376,135.516 33.398,135.795 
				33.398,135.795 33.412,135.802 			"></polygon>
			<polygon fill-rule="evenodd" clip-rule="evenodd" fill="#FFFFFF" points="29.17,137.672 29.394,137.515 29.645,137.367 
				29.896,137.222 30.151,137.062 30.385,136.924 30.649,136.78 30.895,136.646 31.15,136.53 31.423,136.405 31.695,136.279 
				31.962,136.168 32.24,136.072 32.539,136 32.81,135.917 33.109,135.845 33.398,135.795 33.376,135.516 33.052,135.579 
				32.746,135.637 32.443,135.721 32.157,135.8 31.873,135.92 31.578,136.024 31.311,136.138 31.038,136.263 30.761,136.4 
				30.498,136.543 30.25,136.676 30,136.823 29.749,136.971 29.499,137.116 29.261,137.269 29.023,137.419 29.157,137.667 
				29.157,137.667 29.17,137.672 			"></polygon>
			<polygon fill-rule="evenodd" clip-rule="evenodd" fill="#FFFFFF" points="29.118,138.259 29.265,138.379 29.222,138.249 
				29.196,138.11 29.162,137.999 29.13,137.874 29.114,137.795 29.1,137.747 29.123,137.684 29.157,137.667 29.023,137.419 
				28.898,137.535 28.833,137.688 28.815,137.826 28.859,137.955 28.889,138.081 28.923,138.193 28.958,138.305 28.979,138.414 
				29.114,138.528 28.979,138.414 28.984,138.528 29.114,138.528 29.118,138.259 29.118,138.259 			"></polygon>
			<g>
				<polygon fill="none" points="39.725,139.291 39.727,139.292 39.692,139.438 				"></polygon>
				<polygon fill="#FFFFFF" points="39.731,139.278 39.727,139.292 39.725,139.291 				"></polygon>
				<polygon fill="#FFFFFF" points="39.666,139.343 39.725,139.291 39.692,139.438 				"></polygon>
				<g>
					<polygon fill="none" points="67.678,138.359 67.781,138.265 67.937,138.187 68.119,138.161 68.217,138.165 68.332,138.174 
						68.438,138.195 68.546,138.217 68.676,138.261 68.793,138.3 68.918,138.355 69.052,138.429 69.165,138.48 69.282,138.563 
						69.385,138.641 69.499,138.736 69.615,138.817 69.696,138.917 69.796,139.008 69.878,139.107 70.029,139.302 70.107,139.501 
						70.146,139.601 70.167,139.666 70.155,139.835 70.124,139.968 70.028,140.08 69.89,140.148 69.705,140.188 69.601,140.197 
						69.494,140.174 69.368,140.162 69.234,140.132 69.117,140.093 68.988,140.049 68.849,139.99 68.727,139.92 68.603,139.863 
						68.467,139.79 68.351,139.709 68.24,139.612 68.135,139.534 68.028,139.428 67.932,139.323 67.851,139.223 67.717,139.019 
						67.638,138.822 67.617,138.757 67.595,138.648 67.622,138.484 					"></polygon>
					<polygon fill="none" points="42.652,139.272 42.652,139.272 42.523,139.33 					"></polygon>
					<polygon fill="none" points="43.585,141.63 43.677,141.704 43.686,141.721 43.439,142.028 41.269,142.183 40.797,141.911 
						40.795,141.906 40.918,141.85 39.996,139.42 40.148,139.267 42.122,139.153 42.54,139.371 43.565,141.782 					"></polygon>
					<polygon fill="none" points="36.181,138.54 36.181,138.54 39.812,139.751 					"></polygon>
					<g>
						<polygon fill="none" points="67.678,138.359 67.781,138.265 67.937,138.187 68.119,138.161 68.217,138.165 68.332,138.174 
							68.438,138.195 68.546,138.217 68.676,138.261 68.793,138.3 68.918,138.355 69.052,138.429 69.165,138.48 69.282,138.563 
							69.385,138.641 69.499,138.736 69.615,138.817 69.696,138.917 69.796,139.008 69.878,139.107 70.029,139.302 70.107,139.501 
							70.146,139.601 70.167,139.666 70.155,139.835 70.124,139.968 70.028,140.08 69.89,140.148 69.705,140.188 69.601,140.197 
							69.494,140.174 69.368,140.162 69.234,140.132 69.117,140.093 68.988,140.049 68.849,139.99 68.727,139.92 68.603,139.863 
							68.467,139.79 68.351,139.709 68.24,139.612 68.135,139.534 68.028,139.428 67.932,139.323 67.851,139.223 67.717,139.019 
							67.638,138.822 67.617,138.757 67.595,138.648 67.622,138.484 						"></polygon>
						<polygon fill="none" points="42.122,139.153 42.54,139.371 43.565,141.782 43.585,141.63 43.677,141.704 43.686,141.721 
							43.439,142.028 41.269,142.183 40.797,141.911 40.795,141.906 40.918,141.85 39.996,139.42 40.148,139.267 						"></polygon>
						<polygon fill="none" points="36.181,138.54 36.181,138.54 39.812,139.751 						"></polygon>
						<g>
							<polygon fill="none" points="67.678,138.359 67.781,138.265 67.937,138.187 68.119,138.161 68.217,138.165 68.332,138.174 
								68.438,138.195 68.546,138.217 68.676,138.261 68.793,138.3 68.918,138.355 69.052,138.429 69.165,138.48 69.282,138.563 
								69.385,138.641 69.499,138.736 69.615,138.817 69.696,138.917 69.796,139.008 69.878,139.107 70.029,139.302 70.107,139.501 
								70.146,139.601 70.167,139.666 70.155,139.835 70.124,139.968 70.028,140.08 69.89,140.148 69.705,140.188 69.601,140.197 
								69.494,140.174 69.368,140.162 69.234,140.132 69.117,140.093 68.988,140.049 68.849,139.99 68.727,139.92 68.603,139.863 
								68.467,139.79 68.351,139.709 68.24,139.612 68.135,139.534 68.028,139.428 67.932,139.323 67.851,139.223 67.717,139.019 
								67.638,138.822 67.617,138.757 67.595,138.648 67.622,138.484 							"></polygon>
							<polygon fill="none" points="42.122,139.153 42.54,139.371 43.565,141.782 43.585,141.63 43.677,141.704 43.686,141.721 
								43.442,142.024 43.426,141.894 41.256,142.049 41.35,142.067 41.279,142.182 41.269,142.183 40.797,141.911 40.795,141.906 
								40.918,141.85 39.996,139.42 40.148,139.267 							"></polygon>
							<polygon fill="none" points="36.181,138.54 36.181,138.54 39.812,139.751 							"></polygon>
							<g>
								<polygon fill="none" points="43.64,141.245 47.753,142.616 43.64,141.245 								"></polygon>
								<polygon fill="none" points="43.534,140.993 48.271,142.574 43.534,140.993 								"></polygon>
								<polygon fill="none" points="67.678,138.359 67.781,138.265 67.937,138.187 68.119,138.161 68.217,138.165 68.332,138.174 
									68.438,138.195 68.546,138.217 68.676,138.261 68.793,138.3 68.918,138.355 69.052,138.429 69.165,138.48 69.282,138.563 
									69.385,138.641 69.499,138.736 69.615,138.817 69.696,138.917 69.796,139.008 69.878,139.107 70.029,139.302 
									70.107,139.501 70.146,139.601 70.167,139.666 70.155,139.835 70.124,139.968 70.028,140.08 69.89,140.148 69.705,140.188 
									69.601,140.197 69.494,140.174 69.368,140.162 69.234,140.132 69.117,140.093 68.988,140.049 68.849,139.99 68.727,139.92 
									68.603,139.863 68.467,139.79 68.351,139.709 68.24,139.612 68.135,139.534 68.028,139.428 67.932,139.323 67.851,139.223 
									67.717,139.019 67.638,138.822 67.617,138.757 67.595,138.648 67.622,138.484 								"></polygon>
								<polygon fill="none" points="42.122,139.153 42.54,139.371 43.565,141.782 43.585,141.63 43.677,141.704 43.686,141.721 
									43.442,142.024 43.439,142.028 41.279,142.182 41.269,142.183 40.797,141.911 40.795,141.906 40.918,141.85 39.996,139.42 
									40.148,139.267 								"></polygon>
								<polygon fill="none" points="36.181,138.54 36.181,138.54 39.812,139.751 								"></polygon>
								<polygon fill="#FFFFFF" points="43.534,140.993 48.271,142.574 47.757,142.604 47.753,142.616 43.64,141.245 								"></polygon>
								<g>
									<polygon fill="none" points="67.678,138.359 67.781,138.265 67.937,138.187 68.119,138.161 68.217,138.165 68.332,138.174 
										68.438,138.195 68.546,138.217 68.676,138.261 68.793,138.3 68.918,138.355 69.052,138.429 69.165,138.48 69.282,138.563 
										69.385,138.641 69.499,138.736 69.615,138.817 69.696,138.917 69.796,139.008 69.878,139.107 70.029,139.302 
										70.107,139.501 70.146,139.601 70.167,139.666 70.155,139.835 70.124,139.968 70.028,140.08 69.89,140.148 69.705,140.188 
										69.601,140.197 69.494,140.174 69.368,140.162 69.234,140.132 69.117,140.093 68.988,140.049 68.849,139.99 68.727,139.92 
										68.603,139.863 68.467,139.79 68.351,139.709 68.24,139.612 68.135,139.534 68.028,139.428 67.932,139.323 67.851,139.223 
										67.717,139.019 67.638,138.822 67.617,138.757 67.595,138.648 67.622,138.484 									"></polygon>
									<polygon fill="none" points="42.122,139.153 42.54,139.371 43.53,141.701 43.376,141.897 41.256,142.049 41.35,142.067 
										41.279,142.182 41.269,142.183 40.797,141.911 40.795,141.906 40.918,141.85 39.996,139.42 40.148,139.267 									"></polygon>
									<polygon fill="none" points="43.585,141.63 43.677,141.704 43.677,141.704 									"></polygon>
									<polygon fill="none" points="36.181,138.54 36.181,138.54 39.812,139.751 									"></polygon>
									<path fill="#FFFFFF" d="M29.114,138.528l6.017-0.195l0.126,0.013l0.116,0.04l0.157,0.051l0.142,0.049l0.129,0.087
										l0.096,0.06l0.056,0.092l0.044,0.043l2.393,7.209l0.035,0.112l0.117-0.004l0.121-0.017l0.138,0.017l0.169,0.014
										l0.159-0.005l0.156,0.01l0.143-0.039l0.159-0.047l0.13-0.087l0.156-0.166l0.13-0.172l0.121-0.146l0.121-0.146l0.104-0.14
										l0.1-0.126l0.086-0.128l0.104-0.14l0.086-0.129l0.1-0.125l0.1-0.127l0.107-0.107l0.113-0.121l0.13-0.129l0.13-0.131
										l0.164-0.145l-0.088-0.11l0.13-0.107l0.148-0.095l0.169-0.073l0.155-0.078l0.168-0.072l0.19-0.053l0.194-0.065l0.19-0.051
										l0.182-0.026l0.199-0.036l0.211-0.028l0.199-0.034l0.207-0.018l0.208-0.018l0.194-0.021l0.19-0.008l3.338-0.242
										l-4.113-1.371l-0.106-0.252l0,0l4.737,1.581l22.125-1.651l0.411-0.064l0.308-0.143l0.212-0.203l0.076-0.233v-0.259
										l0.005-0.014l-0.073-0.298l-0.146-0.295l-0.213-0.315l-0.125-0.142l-0.138-0.147l-0.151-0.15l-0.159-0.127l-0.169-0.143
										l-0.189-0.12l-0.203-0.126l-0.204-0.126l-0.217-0.087l-0.212-0.099l-0.233-0.078l-0.246-0.081l-0.232-0.034l-0.243-0.053
										L68,137.56l-0.244,0.005l-3.342,0.123l-19.622,0.672h-0.217l-0.202,0.003l-0.229-0.003l-0.22-0.03l-0.226-0.018
										l-0.225-0.018l-0.22-0.031l-0.234-0.034l-0.233-0.034l-0.229-0.048l-0.229-0.049l-0.229-0.047l-0.236-0.063l-0.225-0.062
										l-0.214-0.056l-0.22-0.072l-0.312-0.105l-0.306-0.117l-0.269-0.103l-0.268-0.104l-0.234-0.12l-0.225-0.104l-0.232-0.123
										l-0.213-0.099l-0.203-0.125l-0.182-0.104l-0.194-0.107l-0.182-0.104l-0.194-0.107l-0.181-0.105l-0.174-0.086l-0.182-0.104
										l-0.186-0.09l-0.191-0.078l-0.181-0.062l-0.207-0.068l-0.221-0.073l-0.211-0.058l-0.234-0.033l-0.246-0.039l-0.251-0.027
										l-0.281-0.021l-0.299-0.014l-0.306,0.014l-0.32,0.008l-0.358,0.038l-0.372,0.035l-0.406,0.052l-0.303,0.043l-0.299,0.073
										l-0.299,0.073l-0.276,0.096l-0.293,0.104l-0.281,0.106l-0.267,0.112l-0.273,0.125l-0.26,0.13l-0.264,0.144l4.199,1.4
										l-5.652,0.189L29.114,138.528z M67.595,138.648l0.026-0.164l0.057-0.125l0.103-0.095l0.156-0.078l0.182-0.025l0.099,0.004
										l0.114,0.009l0.106,0.021l0.108,0.021l0.13,0.044l0.117,0.039l0.125,0.056l0.134,0.073l0.112,0.052l0.117,0.083
										l0.104,0.077l0.113,0.096l0.116,0.081l0.081,0.1l0.101,0.091l0.082,0.1l0.15,0.194l0.078,0.199l0.039,0.1l0.021,0.065
										l-0.013,0.169l-0.031,0.133l-0.096,0.112l-0.138,0.068l-0.186,0.039l-0.104,0.01l-0.107-0.023l-0.126-0.012l-0.134-0.03
										l-0.117-0.039l-0.129-0.044l-0.139-0.059l-0.122-0.07l-0.124-0.057l-0.136-0.073l-0.116-0.081l-0.111-0.097l-0.104-0.078
										l-0.107-0.106l-0.096-0.104l-0.081-0.101l-0.134-0.204l-0.079-0.196l-0.021-0.065L67.595,138.648z M43.677,141.704
										L43.677,141.704l-0.092-0.074L43.677,141.704z M39.996,139.42l0.152-0.153l1.974-0.113l0.418,0.218l0.99,2.33l-0.153,0.196
										l-2.12,0.151l0.094,0.019l-0.071,0.114l-0.01,0.001l-0.472-0.271l-0.002-0.005l0.123-0.057L39.996,139.42z"></path>
								</g>
							</g>
						</g>
					</g>
				</g>
			</g>
			<polygon fill-rule="evenodd" clip-rule="evenodd" fill="#010101" points="66.258,140.147 66.138,140.079 66.117,139.97 
				66.29,139.927 66.325,140.04 66.22,139.962 66.258,140.147 66.258,140.147 			"></polygon>
			<polygon fill-rule="evenodd" clip-rule="evenodd" fill="#010101" points="66.494,140.01 66.467,140.045 66.423,140.087 
				66.371,140.113 66.321,140.139 66.258,140.147 66.22,139.962 66.247,139.97 66.286,139.94 66.333,139.927 66.337,139.915 
				66.329,139.94 66.489,140.022 66.489,140.022 66.494,140.01 			"></polygon>
			<polygon fill-rule="evenodd" clip-rule="evenodd" fill="#010101" points="66.004,138.925 66.018,138.929 66.1,139.028 
				66.208,139.137 66.311,139.258 66.411,139.392 66.493,139.534 66.54,139.694 66.541,139.867 66.489,140.022 66.329,139.94 
				66.363,139.836 66.355,139.733 66.325,139.607 66.247,139.496 66.161,139.366 66.067,139.262 65.957,139.153 65.875,139.055 
				65.887,139.059 66.004,138.925 66.004,138.925 			"></polygon>
			<polygon fill-rule="evenodd" clip-rule="evenodd" fill="#010101" points="64.415,138.466 64.401,138.461 64.63,138.466 
				64.846,138.466 65.049,138.504 65.244,138.526 65.442,138.578 65.628,138.67 65.823,138.777 66.004,138.925 65.887,139.059 
				65.71,138.941 65.542,138.842 65.382,138.761 65.209,138.716 65.019,138.683 64.825,138.66 64.625,138.652 64.422,138.656 
				64.427,138.644 64.396,138.475 64.396,138.475 64.415,138.466 			"></polygon>
			<polygon fill-rule="evenodd" clip-rule="evenodd" fill="#010101" points="47.546,139.351 47.62,139.302 64.396,138.475 
				64.427,138.644 47.645,139.484 47.719,139.437 47.546,139.351 47.546,139.351 			"></polygon>
			<polygon fill-rule="evenodd" clip-rule="evenodd" fill="#010101" points="47.148,139.938 46.966,139.877 46.98,139.751 
				47.014,139.648 47.066,139.536 47.135,139.457 47.225,139.401 47.342,139.354 47.472,139.312 47.62,139.302 47.645,139.484 
				47.506,139.51 47.382,139.54 47.321,139.548 47.26,139.601 47.231,139.648 47.183,139.704 47.157,139.782 47.162,139.898 
				46.98,139.837 47.148,139.938 47.148,139.938 			"></polygon>
			<g>
				<polygon fill="none" points="47.62,139.307 47.645,139.484 47.62,139.307 				"></polygon>
				<g>
					<polygon fill="none" points="47.162,139.898 47.183,139.79 47.234,139.679 47.278,139.592 47.369,139.536 47.477,139.513 
						47.628,139.492 47.645,139.484 64.427,138.644 64.708,138.665 64.942,138.656 65.162,138.687 65.364,138.726 65.551,138.816 
						65.718,138.915 65.875,139.055 66.052,139.258 66.208,139.439 66.321,139.62 66.375,139.754 66.375,139.841 66.337,139.915 
						66.23,139.979 66.026,140.027 65.741,140.061 48.497,140.949 48.484,140.945 48.242,140.937 48.004,140.871 47.792,140.771 
						47.611,140.668 47.459,140.517 47.352,140.364 47.256,140.219 47.183,140.094 47.169,140.002 					"></polygon>
					<g>
						<path fill="none" d="M47.183,139.79l-0.021,0.108l0.008,0.104l0.014,0.092l0.073,0.125l0.096,0.146l0.107,0.152l0.151,0.151
							l0.181,0.104l0.213,0.1l0.237,0.065l0.242,0.009l0.013,0.004l17.244-0.889l0.285-0.033l0.204-0.048l0.107-0.064l0.038-0.074
							v-0.087l-0.055-0.134l-0.113-0.181l-0.155-0.182l-0.178-0.203l-0.156-0.14l-0.167-0.099l-0.188-0.091l-0.202-0.039l-0.22-0.03
							l-0.234,0.009l-0.28-0.021l-16.782,0.841l-0.017,0.008l-0.151,0.021l-0.108,0.023l-0.091,0.056l-0.044,0.087L47.183,139.79z
							 M47.42,139.683l16.782-0.841l0.008-0.025l0.225,0.018h0.217l0.203,0.038l0.194,0.021l0.199,0.053l0.186,0.091l0.182,0.104
							l0.194,0.151l0.072,0.08l0.066,0.066l0.061,0.078l0.051,0.059l0.073,0.085l0.057,0.09l0.048,0.072l0.048,0.074l0.004,0.03
							l-0.173,0.043l0.005,0.031l-0.045-0.086l-0.046-0.074l-0.065-0.065l-0.047-0.073l-0.053-0.061l-0.061-0.077l-0.064-0.064
							l-0.077-0.069l0.005-0.006l-0.153-0.115l-0.164-0.113l-0.164-0.069l-0.173-0.044l-0.189-0.035l-0.195-0.02l-0.212-0.015
							l-0.203,0.005l-16.776,0.829L47.42,139.683z"></path>
						<g>
							<path fill="none" d="M47.183,139.79l-0.021,0.108l0.008,0.104l0.014,0.092l0.073,0.125l0.096,0.146l0.107,0.152l0.151,0.151
								l0.181,0.104l0.213,0.1l0.237,0.065l0.242,0.009l0.013,0.004l17.244-0.889l0.285-0.033l0.204-0.048l0.107-0.064l0.038-0.074
								v-0.087l-0.055-0.134l-0.113-0.181l-0.155-0.182l-0.178-0.203l-0.156-0.14l-0.167-0.099l-0.188-0.091l-0.202-0.039
								l-0.22-0.03l-0.234,0.009l-0.28-0.021l-16.782,0.841l-0.017,0.008l-0.151,0.021l-0.108,0.023l-0.091,0.056l-0.044,0.087
								L47.183,139.79z"></path>
							<g>
								<polygon fill="none" points="47.234,139.679 47.278,139.592 47.369,139.536 47.477,139.513 47.576,139.5 47.438,139.761 
									64.219,138.919 64.435,138.919 64.634,138.929 64.838,138.967 65.032,138.989 65.217,139.037 65.395,139.11 65.572,139.228 
									65.746,139.357 65.805,139.435 65.87,139.5 65.931,139.575 65.996,139.642 66.043,139.715 66.105,139.793 66.152,139.867 
									66.208,139.957 66.214,139.983 66.026,140.027 65.741,140.061 48.497,140.949 48.484,140.945 48.242,140.937 
									48.004,140.871 47.792,140.771 47.611,140.668 47.459,140.517 47.352,140.364 47.256,140.219 47.183,140.094 
									47.169,140.002 47.162,139.898 47.183,139.79 								"></polygon>
								<polygon fill="#010101" points="66.152,139.867 66.105,139.793 66.043,139.715 65.996,139.642 65.931,139.575 65.87,139.5 
									65.805,139.435 65.746,139.357 65.572,139.228 65.395,139.11 65.217,139.037 65.032,138.989 64.838,138.967 64.634,138.929 
									64.435,138.919 64.219,138.919 47.438,139.761 47.576,139.5 47.628,139.492 47.645,139.484 64.427,138.644 64.708,138.665 
									64.942,138.656 65.162,138.687 65.364,138.726 65.551,138.816 65.718,138.915 65.875,139.055 66.052,139.258 
									66.208,139.439 66.321,139.62 66.375,139.754 66.375,139.841 66.337,139.915 66.23,139.979 66.214,139.983 66.208,139.957 
																	"></polygon>
								<g>
									<polygon fill="none" points="47.19,139.773 47.204,139.77 47.291,139.77 47.438,139.761 47.578,139.5 47.628,139.492 
										47.645,139.484 64.427,138.644 64.708,138.665 64.942,138.656 65.162,138.687 65.364,138.726 65.551,138.816 
										65.718,138.915 65.875,139.055 66.052,139.258 66.208,139.439 66.321,139.62 66.375,139.754 66.375,139.841 
										66.337,139.915 66.23,139.979 66.214,139.983 66.026,140.027 65.741,140.061 48.497,140.949 48.484,140.945 
										48.242,140.937 48.004,140.871 47.792,140.771 47.611,140.668 47.459,140.517 47.352,140.364 47.256,140.219 
										47.183,140.094 47.169,140.002 47.162,139.898 47.183,139.79 									"></polygon>
									<path fill="#010101" d="M46.966,139.877l0.018,0.163l0.034,0.113l0.048,0.159l0.112,0.183l0.138,0.146l0.177,0.161
										l0.213,0.143l0.238,0.107l0.249,0.067l0.304,0.002l17.239-0.875l0.329-0.034l0.232-0.052l0.17-0.116l0.095-0.157
										l-0.005-0.159l-0.064-0.194l-0.125-0.186l-0.173-0.218l-0.177-0.202l-0.191-0.165l-0.202-0.124l-0.199-0.096l-0.216-0.043
										l-0.26-0.043h-0.259l-0.295,0.017l-16.776,0.827v0.005l-0.178,0.009l-0.182,0.068l-0.12,0.104l-0.083,0.116l-0.056,0.126
										L46.966,139.877z M47.162,139.898l0.021-0.108l0.007-0.017l0.014-0.004h0.087l0.147-0.009l0.14-0.261l0.051-0.008
										l0.017-0.008l16.782-0.841l0.28,0.021l0.234-0.009l0.22,0.03l0.202,0.039l0.188,0.091l0.167,0.099l0.156,0.14l0.178,0.203
										l0.155,0.182l0.113,0.181l0.055,0.134v0.087l-0.038,0.074l-0.107,0.064l-0.016,0.004l-0.188,0.044l-0.285,0.033
										l-17.244,0.889l-0.013-0.004l-0.242-0.009l-0.237-0.065l-0.213-0.1l-0.181-0.104l-0.151-0.151l-0.107-0.152l-0.096-0.146
										l-0.073-0.125l-0.014-0.092L47.162,139.898z"></path>
								</g>
							</g>
						</g>
					</g>
				</g>
			</g>
		</g>
	</g>
</g>
</svg>