<?xml version="1.0" encoding="UTF-8" standalone="no"?>
<svg
     viewBox="0 0 2700 3150"
     width="2700"
     height="3150"
     version="1.1"
     id="svg183"
     sodipodi:docname="PokerHookBox36Outside.svg"
     inkscape:version="1.4 (e7c3feb1, 2024-10-09)"
     xmlns:inkscape="http://www.inkscape.org/namespaces/inkscape"
     xmlns:sodipodi="http://sodipodi.sourceforge.net/DTD/sodipodi-0.dtd"
     xmlns="http://www.w3.org/2000/svg"
     xmlns:svg="http://www.w3.org/2000/svg">
    <defs
         id="defs183">
        <defs
             id="defs1">
            <style
                 id="style1">.cls-1,.cls-2,.cls-3,.cls-4,.cls-5,.cls-6,.cls-7,.cls-8,.cls-9,.cls-10,.cls-11,.cls-12,.cls-13,.cls-14,.cls-15,.cls-16,.cls-17,.cls-18,.cls-19,.cls-20,.cls-21,.cls-22,.cls-23,.cls-24{fill:none;}.cls-2{stroke-dasharray:4.86 4.86;}.cls-2,.cls-3,.cls-4,.cls-5,.cls-6,.cls-7,.cls-8,.cls-9,.cls-11,.cls-13,.cls-14,.cls-15,.cls-16,.cls-17,.cls-18,.cls-19,.cls-20,.cls-21,.cls-22,.cls-24{stroke-miterlimit:10;}.cls-2,.cls-3,.cls-5,.cls-6,.cls-7,.cls-8,.cls-9,.cls-11,.cls-13,.cls-14,.cls-17,.cls-18,.cls-19,.cls-20,.cls-21,.cls-24{stroke:#26aae1;}.cls-3{stroke-dasharray:4.86 4.86;}.cls-4{stroke:#0baa4b;}.cls-25,.cls-26,.cls-27,.cls-28{fill-rule:evenodd;}.cls-25,.cls-29{fill:#fff;}.cls-30,.cls-31,.cls-32,.cls-33{font-family:Arial-Black, 'Arial Black';font-weight:800;}.cls-30,.cls-32,.cls-33,.cls-34{fill:#231f20;}.cls-5{stroke-dasharray:5 5;}.cls-6{stroke-dasharray:5.01 5.01;}.cls-7{stroke-dasharray:4.92 4.92;}.cls-8{stroke-dasharray:5 5;}.cls-9{stroke-dasharray:5.02 5.02;}.cls-10,.cls-12,.cls-15,.cls-22,.cls-23{stroke-width:2px;}.cls-10,.cls-23{stroke:#2ba4dd;}.cls-12{stroke:#ec2224;}.cls-31{fill:#020202;}.cls-31,.cls-32{font-size:12.75px;}.cls-13{stroke-dasharray:4.95 4.95;}.cls-14{stroke-dasharray:4.91 4.91;}.cls-26{fill:#b7d333;}.cls-35{fill:#919396;}.cls-35,.cls-36,.cls-37,.cls-34,.cls-38{font-family:Arial-BoldMT, Arial;font-weight:700;}.cls-35,.cls-36,.cls-37,.cls-38{font-size:9px;}.cls-39{fill:#d0d1d2;}.cls-15{stroke:#0ea94b;}.cls-40{letter-spacing:0em;}.cls-16{stroke:red;}.cls-41{font-size:12.36px;}.cls-42{font-size:14.83px;}.cls-33{font-size:30px;}.cls-43{letter-spacing:0em;}.cls-17{stroke-dasharray:4.94 4.94;}.cls-18{stroke-dasharray:4.94 4.94;}.cls-19{stroke-dasharray:4.94 4.94;}.cls-44{opacity:.5;}.cls-36{fill:#2ba4dd;}.cls-20{stroke-dasharray:4.94 4.94;}.cls-21{stroke-dasharray:4.94 4.94;}.cls-22{stroke:#929395;}.cls-37{fill:#0baa4b;}.cls-23{stroke-dasharray:4.99 4.99;}.cls-45{letter-spacing:-.02em;}.cls-46{letter-spacing:-.02em;}.cls-47{letter-spacing:-.02em;}.cls-48{letter-spacing:-.02em;}.cls-49{letter-spacing:-.02em;}.cls-50{letter-spacing:-.02em;}.cls-51{letter-spacing:-.04em;}.cls-52{letter-spacing:-.04em;}.cls-53{letter-spacing:-.03em;}.cls-54{letter-spacing:-.03em;}.cls-55{letter-spacing:-.03em;}.cls-56{letter-spacing:-.03em;}.cls-57{letter-spacing:0em;}.cls-58,.cls-28{fill:#4e494b;}.cls-34{font-size:10px;}.cls-24{stroke-dasharray:5;}.cls-59{letter-spacing:.03em;}.cls-60{letter-spacing:.02em;}.cls-61{letter-spacing:.05em;}.cls-38{fill:#eb222a;}.cls-62{letter-spacing:.01em;}</style>
        </defs>
    </defs>
    <sodipodi:namedview
         id="namedview183"
         pagecolor="#505050"
         bordercolor="#eeeeee"
         borderopacity="1"
         inkscape:showpageshadow="0"
         inkscape:pageopacity="0"
         inkscape:pagecheckerboard="0"
         inkscape:deskcolor="#d1d1d1"
         inkscape:zoom="0.20203051"
         inkscape:cx="1289.4092"
         inkscape:cy="1475.0247"
         inkscape:window-width="1872"
         inkscape:window-height="1027"
         inkscape:window-x="62"
         inkscape:window-y="25"
         inkscape:window-maximized="1"
         inkscape:current-layer="svg183" />
    <path
         class="cls-44"
         d="M -1.08e-5,-1.26e-5 V 3150 H 2700 V -1.26e-5 Z"
         id="path1"
         style="stroke-width:4.16667"
         sodipodi:nodetypes="ccccc" />
    <path
         class="cls-16"
         d="M 1733,680.70833 V 277.95832 c 0,-67.08333 -54.375,-121.45833 -121.4583,-121.45833 h -76.875 c -22.9167,0 -41.6667,0 -41.6667,0 v 0 c 0,0 -1.9583,-0.25 -4.375,-0.5 l -1.8333,-1.04167 c -1.0834,-0.625 -2.125,-1.41666 -3.0834,-2.375 -7.8333,-7.79166 -12.3333,-26.20833 -23.125,-46 C 1443.25,74.791655 1409.7083,39.583321 1320,39.624988 c -172.375,0.125 -138.2083,104.958332 -113.25,92.708332 17.5833,-8.66666 30.5417,15.875 14.5833,22.25 -0.9583,0.375 -2.0416,0.70834 -3.25,0.95834 l -1.6666,0.33333 c -2.1667,0.0833 -22.7084,-0.0833 -45.625,-0.41667 0,0 -58.7084,-0.83333 -88.375,1.16667 -29.2917,1.95833 -65.625,14.25 -89.58337,44.04167 -11.41667,14.16666 -20,32.29166 -23.75,55.125 l -1.25,7.625 c -0.41667,9.25 -0.75,35.58333 -0.70833,58.5 l 0.79166,520.58333 c 0,0.83334 -0.66666,1.45834 -1.45833,1.45834 H 851 c -22.91667,0 -60.41667,0.95833 -83.29167,2.125 L 74.916656,881.37499 c -0.791666,0 -1.416666,0.66667 -1.416666,1.45834 v 987.20837 c 0,0.7916 0.625,1.4166 1.416666,1.4583 l 692.000004,35.2917 c 22.875,1.1666 60.375,2.125 83.29167,2.125 h 115.83333 c 0.79167,0 1.45834,0.6666 1.45834,1.4583 l 0.70833,1111.5417 c 0,22.9166 0,41.3333 0,40.9166 0,-0.4166 0.16667,2.1667 0.33333,5.7084 l 0.625,3.0833 c 1.875,9.2917 6.41667,17.5833 12.75,24.125 4.16667,4.25 9.08334,7.75 14.54167,10.25 3.87497,1.75 7.99997,3.0417 12.33337,3.7083 l 2.5,0.4167 c 2.8333,0.125 23.9166,0.2083 46.8333,0.2083 h 583.7083 c 22.9167,0 43.4584,-0.042 45.625,-0.125 l 1.9167,-0.25 c 1.9167,-0.25 3.7917,-0.5833 5.6667,-1.0416 9.5416,-2.3334 18,-7.5417 24.375,-14.625 4.0416,-4.5 7.25,-9.75 9.375,-15.5417 0.8333,-2.2917 1.5,-4.6667 2,-7.0833 l 0.625,-3.125 c 0.1666,-3.5834 0.3333,-6.1667 0.3333,-5.75 0,0.4166 0,-18 0,-40.9167 l 0.7083,-1111.5417 c 0,-0.7916 0.6667,-1.4583 1.4584,-1.4583 h 118.875 c 22.9166,0 60.4166,-0.9583 83.2916,-2.125 l 688.2917,-35.25 c 1.1667,-0.042 2.0833,-1 2.0833,-2.1667 V 882.79166 c 0,-0.79167 -0.625,-1.41667 -1.4166,-1.45833 l -688.9584,-35.29167 c -22.875,-1.16667 -60.375,-2.125 -83.2916,-2.125 H 1734.375 c -0.8333,0 -1.4583,-0.66667 -1.4583,-1.45833 V 680.66666"
         id="clipping"
         style="stroke-width:4.16667;fill:#6f6f6f;fill-opacity:1;stroke:none" />
    <line
         class="cls-4"
         x1="805.91663"
         y1="1907.375"
         x2="805.91663"
         y2="842.375"
         id="line157"
         style="stroke-width:4.16667" />
    <line
         class="cls-4"
         x1="968.375"
         y1="680.70831"
         x2="1732.5416"
         y2="680.70831"
         id="line158"
         style="stroke-width:4.16667" />
    <polyline
         class="cls-4"
         points="232.41 202.17 416.03 202.17 416.03 457.77 232.41 457.77 232.41 203.01"
         id="polyline158"
         transform="matrix(4.1666667,0,0,4.1666667,-1.08e-5,-1.26e-5)" />
    <line
         class="cls-4"
         x1="1731.9584"
         y1="2068.3333"
         x2="967.58331"
         y2="2068.3333"
         id="line159"
         style="stroke-width:4.16667" />
    <line
         class="cls-4"
         x1="1895.4584"
         y1="1907.375"
         x2="1895.4584"
         y2="842.375"
         id="line160"
         style="stroke-width:4.16667" />
    <path
         id="Curved_slice"
         class="cls-16"
         d="m 1224.7917,2601.7917 c 0,0 27.25,-24.9167 150,-24.9167 122.75,0 150,24.9167 150,24.9167"
         style="stroke-width:4.16667" />
    <polyline
         class="cls-11"
         points="404.11 212.78 406.61 212.78 406.61 215.28"
         id="polyline160"
         transform="matrix(4.1666667,0,0,4.1666667,-1.08e-5,-1.26e-5)" />
    <line
         class="cls-17"
         x1="1694.2083"
         y1="917.58331"
         x2="1694.2083"
         y2="1854.3334"
         id="line161"
         style="stroke-width:4.16667" />
    <polyline
         class="cls-11"
         points="406.61 447.52 406.61 450.02 404.11 450.02"
         id="polyline161"
         transform="matrix(4.1666667,0,0,4.1666667,-1.08e-5,-1.26e-5)" />
    <line
         class="cls-3"
         x1="1663.5416"
         y1="1875.0833"
         x2="1025.625"
         y2="1875.0833"
         id="line162"
         style="stroke-width:4.16667" />
    <polyline
         class="cls-11"
         points="243.72 450.02 241.22 450.02 241.22 447.52"
         id="polyline162"
         transform="matrix(4.1666667,0,0,4.1666667,-1.08e-5,-1.26e-5)" />
    <line
         class="cls-18"
         x1="1005.0833"
         y1="1844.0833"
         x2="1005.0833"
         y2="907.29169"
         id="line163"
         style="stroke-width:4.16667" />
    <polyline
         class="cls-11"
         points="241.22 215.28 241.22 212.78 243.72 212.78"
         id="polyline163"
         transform="matrix(4.1666667,0,0,4.1666667,-1.08e-5,-1.26e-5)" />
    <line
         class="cls-3"
         x1="1035.75"
         y1="886.58331"
         x2="1673.6666"
         y2="886.58331"
         id="line164"
         style="stroke-width:4.16667" />
    <polyline
         class="cls-11"
         points="181.14 212.91 183.64 212.78 183.64 215.28"
         id="polyline164"
         transform="matrix(4.1666667,0,0,4.1666667,-1.08e-5,-1.26e-5)" />
    <line
         class="cls-13"
         x1="765.16669"
         y1="917.58331"
         x2="765.16669"
         y2="1855.5416"
         id="line165"
         style="stroke-width:4.16667" />
    <polyline
         class="cls-11"
         points="183.64 447.81 183.64 450.31 181.14 450.17"
         id="polyline165"
         transform="matrix(4.1666667,0,0,4.1666667,-1.08e-5,-1.26e-5)" />
    <line
         class="cls-20"
         x1="734.25"
         y1="1874.5833"
         x2="128.41666"
         y2="1841.5"
         id="line166"
         style="stroke-width:4.16667" />
    <polyline
         class="cls-11"
         points="28.36 441.82 25.86 441.69 25.86 439.19"
         id="polyline166"
         transform="matrix(4.1666667,0,0,4.1666667,-1.08e-5,-1.26e-5)" />
    <line
         class="cls-6"
         x1="107.74999"
         y1="1809.0833"
         x2="107.74999"
         y2="943.04169"
         id="line167"
         style="stroke-width:4.16667" />
    <polyline
         class="cls-11"
         points="25.86 223.83 25.86 221.33 28.36 221.19"
         id="polyline167"
         transform="matrix(4.1666667,0,0,4.1666667,-1.08e-5,-1.26e-5)" />
    <line
         class="cls-21"
         x1="138.66666"
         y1="920.54163"
         x2="744.49994"
         y2="887.66663"
         id="line168"
         style="stroke-width:4.16667" />
    <polyline
         class="cls-11"
         points="466.16 212.85 463.66 212.71 463.66 215.21"
         id="polyline168"
         transform="matrix(4.1666667,0,0,4.1666667,-1.08e-5,-1.26e-5)" />
    <line
         class="cls-19"
         x1="1931.9166"
         y1="917.33331"
         x2="1931.9166"
         y2="1854.375"
         id="line169"
         style="stroke-width:4.16667" />
    <polyline
         class="cls-11"
         points="463.66 447.52 463.66 450.02 466.16 449.89"
         id="polyline169"
         transform="matrix(4.1666667,0,0,4.1666667,-1.08e-5,-1.26e-5)" />
    <line
         class="cls-7"
         x1="1962.7917"
         y1="1873.5001"
         x2="2566.2085"
         y2="1842.5416"
         id="line170"
         style="stroke-width:4.16667" />
    <polyline
         class="cls-11"
         points="618.35 442.08 620.85 441.95 620.84 439.45"
         id="polyline170"
         transform="matrix(4.1666667,0,0,4.1666667,-1.08e-5,-1.26e-5)" />
    <line
         class="cls-9"
         x1="2586.8335"
         y1="1810.125"
         x2="2585.9167"
         y2="941.91663"
         id="line171"
         style="stroke-width:4.16667" />
    <polyline
         class="cls-11"
         points="620.62 223.55 620.62 221.05 618.12 220.92"
         id="polyline171"
         transform="matrix(4.1666667,0,0,4.1666667,-1.08e-5,-1.26e-5)" />
    <line
         class="cls-14"
         x1="2555.0833"
         y1="919.41669"
         x2="1952.5416"
         y2="887.41663"
         id="line172"
         style="stroke-width:4.16667" />
    <polyline
         class="cls-11"
         points="241.88 150.82 241.88 153.32 244.38 153.32"
         id="polyline172"
         transform="matrix(4.1666667,0,0,4.1666667,-1.08e-5,-1.26e-5)" />
    <line
         class="cls-2"
         x1="1038.5"
         y1="638.83337"
         x2="1676.8334"
         y2="638.83337"
         id="line173"
         style="stroke-width:4.16667" />
    <polyline
         class="cls-11"
         points="404.87 153.32 407.37 153.32 407.37 150.82"
         id="polyline173"
         transform="matrix(4.1666667,0,0,4.1666667,-1.08e-5,-1.26e-5)" />
    <path
         class="cls-5"
         d="M 1697.375,607.62499 V 284.33332 c -2.0833,-41.04166 -46.875,-101.70833 -121.4167,-94.625 h -450.25 c -82.375,-2.54166 -119.25,55.70834 -118.4166,96.125 l 0.5416,332.20834"
         id="path173"
         style="stroke-width:4.16667" />
    <path
         class="cls-8"
         d="m 1196.6667,2620.9167 c 19.25,23.5416 68.2083,-5.9584 167.4583,-5.9584 112.0417,0 169.1667,33.4584 191.5,4.9584 23.7083,-30.2917 -10.9583,-84.5 -181.7083,-84.5 -170.75,0 -205.75,50.625 -177.25,85.4583 z"
         id="path174"
         style="stroke-width:4.16667" />
    <path
         class="cls-24"
         d="m 1004.25,2104.7917 h 689.125 v 919.3333 c 0,26.3333 -21.375,47.75 -47.75,47.75 h -593.6667 c -26.3333,0 -47.75,-21.375 -47.75,-47.75 v -919.3333 0 z"
         id="path175"
         style="stroke-width:4.16667" />
    <rect
         class="cls-24"
         x="1002.2917"
         y="1942.9166"
         width="690.04169"
         height="86"
         id="rect175"
         style="stroke-width:4.16667" />
    <rect
         class="cls-24"
         x="1002.4583"
         y="714.83331"
         width="690.04169"
         height="86"
         id="rect176"
         style="stroke-width:4.16667" />
    <rect
         class="cls-24"
         x="-1873.7083"
         y="841.08337"
         width="991.58331"
         height="85.125"
         transform="rotate(-90)"
         id="rect177"
         style="stroke-width:4.16667" />
    <rect
         class="cls-24"
         x="-1873.7084"
         y="1770.5417"
         width="991.58331"
         height="85.125"
         transform="rotate(-90)"
         id="rect178"
         style="stroke-width:4.16667" />
</svg>
