<?xml version="1.0" encoding="UTF-8" standalone="no"?>
<svg
     version="1.1"
     x="0px"
     y="0px"
     width="2325"
     height="1950"
     viewBox="0 0 2325 1950"
     enable-background="new 0 0 558 468"
     xml:space="preserve"
     id="svg223"
     sodipodi:docname="PokerTuckbox54.svg"
     inkscape:version="1.4 (e7c3feb1, 2024-10-09)"
     xmlns:inkscape="http://www.inkscape.org/namespaces/inkscape"
     xmlns:sodipodi="http://sodipodi.sourceforge.net/DTD/sodipodi-0.dtd"
     xmlns="http://www.w3.org/2000/svg"
     xmlns:svg="http://www.w3.org/2000/svg"><defs
         id="defs223">






	

		
		
	
			
			
			
			
			
			
			
			
			
			
			
			
			
			
			
			
		
			
		</defs><sodipodi:namedview
         id="namedview223"
         pagecolor="#505050"
         bordercolor="#eeeeee"
         borderopacity="1"
         inkscape:showpageshadow="0"
         inkscape:pageopacity="0"
         inkscape:pagecheckerboard="0"
         inkscape:deskcolor="#d1d1d1"
         inkscape:zoom="0.32602945"
         inkscape:cx="1326.5673"
         inkscape:cy="895.62461"
         inkscape:window-width="1872"
         inkscape:window-height="1027"
         inkscape:window-x="62"
         inkscape:window-y="25"
         inkscape:window-maximized="1"
         inkscape:current-layer="svg223" /><g
         id="Guides_For_Artboard"
         display="none"
         transform="matrix(4.1666667,0,0,4.1666667,-9.3000001e-6,-7.8e-6)">
</g><g
         id="Background"
         transform="matrix(4.1666667,0,0,4.1666667,-9.3000001e-6,-7.8e-6)">
	<polygon
     fill="#929497"
     points="558,468 558,0 0,0 0,468 "
     id="polygon1" />
</g><path
         fill="#ffffff"
         d="m 1037.7917,1637.7917 v 92.9958 c 0,82.8333 -67.1667,150 -150.00004,150 H 429.45833 c -82.83334,0 -150,-67.1667 -150,-150 v -92.9958 h -93 c -82.83334,0 -150.000006,-67.1667 -150.000006,-150 V 429.45833 c 0,-82.83334 67.166666,-150 150.000006,-150 h 93 v -93 c 0,-82.83334 67.16666,-150.000004 150,-150.000004 h 458.33333 c 82.83334,0 150.00004,67.166664 150.00004,150.000004 v 93 h 93 c 82.8333,0 150,67.16666 150,150 h 304.1666 c 0,91.66667 150,91.66667 150,0 h 304.1667 213 V 1487.7917 h -213 -758.3333 c 0,82.8333 -67.1667,150 -150,150 z"
         id="clipping"
         style="stroke-width:4.16667;fill:#6d6d6d;fill-opacity:1" /><line
         fill="none"
         stroke="#ec1c24"
         stroke-miterlimit="10"
         x1="36.458324"
         y1="1487.7917"
         x2="36.458324"
         y2="429.45831"
         id="line1"
         style="stroke-width:4.16667" /><path
         fill="none"
         stroke="#ec1c24"
         stroke-miterlimit="10"
         d="m 2039.125,429.45833 h -304.1667 c 0,91.66667 -150,91.66667 -150,0 h -304.1666"
         id="path2"
         style="stroke-width:4.16667" /><polyline
         fill="none"
         stroke="#ec1c24"
         stroke-miterlimit="10"
         points="489.39,357.07 540.51,357.07 540.51,103.07      489.39,103.07    "
         id="polyline2"
         transform="matrix(4.1666667,0,0,4.1666667,-9.3000001e-6,-7.8e-6)" /><path
         fill="none"
         stroke="#ec1c24"
         stroke-miterlimit="10"
         d="m 36.458324,429.45833 c 0,-82.83334 67.166666,-150 150.000006,-150 h 93"
         id="path3"
         style="stroke-width:4.16667" /><path
         fill="none"
         stroke="#ec1c24"
         stroke-miterlimit="10"
         d="m 1280.7917,429.45833 c 0,-82.83334 -67.1667,-150 -150,-150 h -93"
         id="path4"
         style="stroke-width:4.16667" /><polyline
         fill="none"
         stroke="#ec1c24"
         stroke-miterlimit="10"
         points="67.07,131.87 67.07,67.07 67.07,44.75 95.87,44.75    "
         id="polyline4"
         transform="matrix(4.1666667,0,0,4.1666667,-9.3000001e-6,-7.8e-6)" /><polyline
         fill="none"
         stroke="#ec1c24"
         stroke-miterlimit="10"
         points="249.07,131.87 249.07,67.07 249.07,44.75 220.27,44.75         "
         id="polyline5"
         transform="matrix(4.1666667,0,0,4.1666667,-9.3000001e-6,-7.8e-6)" /><path
         fill="none"
         stroke="#ec1c24"
         stroke-miterlimit="10"
         d="m 279.45833,186.45833 c 0,-82.83334 67.16666,-150.000004 150,-150.000004 h 458.33333"
         id="path5"
         style="stroke-width:4.16667" /><path
         fill="none"
         stroke="#ec1c24"
         stroke-miterlimit="10"
         d="m 1037.7917,186.45833 c 0,-82.83334 -67.1667,-150.000004 -150.00004,-150.000004"
         id="path6"
         style="stroke-width:4.16667" /><line
         fill="none"
         stroke="#ec1c24"
         stroke-miterlimit="10"
         x1="1280.7917"
         y1="1487.7917"
         x2="2039.1251"
         y2="1487.7917"
         id="line6"
         style="stroke-width:4.16667" /><path
         fill="none"
         stroke="#ec1c24"
         stroke-miterlimit="10"
         d="m 36.458324,1487.7917 c 0,82.8333 67.166666,150 150.000006,150 h 93"
         id="path7"
         style="stroke-width:4.16667" /><path
         fill="none"
         stroke="#ec1c24"
         stroke-miterlimit="10"
         d="m 1280.7917,1487.7917 c 0,82.8333 -67.1667,150 -150,150 h -93"
         id="path8"
         style="stroke-width:4.16667" /><polyline
         fill="none"
         stroke="#ec1c24"
         stroke-miterlimit="10"
         points="67.07,357.07 67.07,393.07 67.07,415.39 95.87,415.39         "
         id="polyline8"
         transform="matrix(4.1666667,0,0,4.1666667,-9.3000001e-6,-7.8e-6)" /><polyline
         fill="none"
         stroke="#ec1c24"
         stroke-miterlimit="10"
         points="249.07,357.07 249.07,393.07 249.07,415.39      220.27,415.39    "
         id="polyline9"
         transform="matrix(4.1666667,0,0,4.1666667,-9.3000001e-6,-7.8e-6)" /><path
         fill="none"
         stroke="#ec1c24"
         stroke-miterlimit="10"
         d="m 279.45833,1730.7917 c 0,82.8333 67.16666,150 150,150 h 458.33333"
         id="path9"
         style="stroke-width:4.16667" /><path
         fill="none"
         stroke="#ec1c24"
         stroke-miterlimit="10"
         d="m 887.79166,1880.7917 c 82.83334,0 150.00004,-67.1667 150.00004,-150"
         id="path10"
         style="stroke-width:4.16667" /><g
         id="folds"
         transform="matrix(4.1666667,0,0,4.1666667,-9.3000001e-6,-7.8e-6)">
	<rect
     x="67.088997"
     y="131.85001"
     fill="none"
     stroke="#8bc53f"
     stroke-miterlimit="10"
     width="182"
     height="225.19901"
     id="rect10" />
	
		<line
     fill="none"
     stroke="#8bc53f"
     stroke-width="1.0332"
     stroke-miterlimit="10"
     x1="67.088997"
     y1="357.04901"
     x2="8.7480001"
     y2="357.04901"
     id="line10" />
	<line
     fill="none"
     stroke="#8bc53f"
     stroke-miterlimit="10"
     x1="67.088997"
     y1="103.05"
     x2="12.439"
     y2="103.05"
     id="line11" />
	<polyline
     fill="none"
     stroke="#8bc53f"
     stroke-width="1.0315"
     stroke-miterlimit="10"
     points="249.089,357.049 307.388,357.049    307.388,103.05 249.089,103.05  "
     id="polyline11" />
	<line
     fill="none"
     stroke="#8bc53f"
     stroke-miterlimit="10"
     x1="489.388"
     y1="357.04901"
     x2="489.388"
     y2="103.05"
     id="line12" />
	<line
     fill="none"
     stroke="#8bc53f"
     stroke-miterlimit="10"
     x1="95.889"
     y1="44.75"
     x2="220.289"
     y2="44.75"
     id="line13" />
	<line
     fill="none"
     stroke="#8bc53f"
     stroke-miterlimit="10"
     x1="67.088997"
     y1="103.05"
     x2="249.089"
     y2="103.05"
     id="line14" />
	<line
     fill="none"
     stroke="#8bc53f"
     stroke-miterlimit="10"
     x1="95.889"
     y1="415.39099"
     x2="220.289"
     y2="415.39099"
     id="line15" />
</g></svg>
