<svg id="Layer_1" data-name="Layer 1" xmlns="http://www.w3.org/2000/svg" viewBox="0 0 3375 5175" width="3375" height="5175"><g transform="translate(13.2352941176473, 0) scale(4.227941176470588)">
  <defs>
    <style>
      .cls-1 {
        letter-spacing: -.02em;
      }

      .cls-2 {
        letter-spacing: .02em;
      }

      .cls-3 {
        letter-spacing: 0em;
      }

      .cls-4, .cls-5, .cls-6, .cls-7, .cls-8, .cls-9, .cls-10, .cls-11, .cls-12, .cls-13, .cls-14 {
        stroke-width: 0px;
      }

      .cls-4, .cls-15 {
        fill: #f9a51a;
      }

      .cls-16 {
        letter-spacing: .05em;
      }

      .cls-17 {
        fill: #221f1f;
        isolation: isolate;
        opacity: .5;
        stroke: #fff;
      }

      .cls-17, .cls-18, .cls-19, .cls-20 {
        stroke-miterlimit: 10;
      }

      .cls-21 {
        letter-spacing: -.04em;
      }

      .cls-5, .cls-22, .cls-23, .cls-24, .cls-18, .cls-25, .cls-19, .cls-20 {
        fill: none;
      }

      .cls-26 {
        letter-spacing: -.03em;
      }

      .cls-27 {
        letter-spacing: -.03em;
      }

      .cls-28 {
        letter-spacing: .01em;
      }

      .cls-6 {
        fill: #d0d2d3;
      }

      .cls-29 {
        letter-spacing: -.02em;
      }

      .cls-30 {
        letter-spacing: -.02em;
      }

      .cls-7, .cls-11 {
        fill: #4c4849;
      }

      .cls-31, .cls-15, .cls-32, .cls-33, .cls-34, .cls-35 {
        font-family: Arial-BoldMT, Arial;
        font-weight: 700;
      }

      .cls-31, .cls-15, .cls-33, .cls-35, .cls-36 {
        font-size: 9.99px;
      }

      .cls-31, .cls-8 {
        fill: #ec1e28;
      }

      .cls-32, .cls-37, .cls-38 {
        font-size: 11.99px;
      }

      .cls-32, .cls-38, .cls-36 {
        fill: #231f20;
      }

      .cls-39 {
        letter-spacing: -.02em;
      }

      .cls-33 {
        fill: #2ba6de;
      }

      .cls-22 {
        stroke: #2ba6de;
        stroke-dasharray: 0 1.44;
      }

      .cls-9 {
        fill: #b7d333;
      }

      .cls-9, .cls-11, .cls-12, .cls-14 {
        fill-rule: evenodd;
      }

      .cls-23 {
        stroke: #929497;
      }

      .cls-40 {
        letter-spacing: 0em;
      }

      .cls-24 {
        stroke: #f9a51a;
      }

      .cls-34 {
        fill: #0a0;
        font-size: 9.99px;
      }

      .cls-18 {
        stroke: #29a9e1;
        stroke-dasharray: 0 0 4.92 4.92;
      }

      .cls-41 {
        letter-spacing: .03em;
      }

      .cls-42 {
        letter-spacing: -.04em;
      }

      .cls-10, .cls-37, .cls-14 {
        fill: #000;
      }

      .cls-43 {
        letter-spacing: -.07em;
      }

      .cls-44 {
        letter-spacing: 0em;
      }

      .cls-37, .cls-38, .cls-36 {
        font-family: Arial-Black, 'Arial Black';
        font-weight: 800;
      }

      .cls-45 {
        letter-spacing: -.06em;
      }

      .cls-46 {
        letter-spacing: 0em;
      }

      .cls-25 {
        stroke: #ec1e28;
      }

      .cls-47 {
        letter-spacing: -.02em;
      }

      .cls-48 {
        letter-spacing: 0em;
      }

      .cls-12, .cls-13 {
        fill: #fff;
      }

      .cls-19 {
        stroke: #6ebd45;
      }

      .cls-20 {
        stroke: #ec2024;
      }

      .cls-35 {
        fill: #929497;
      }

      .cls-49 {
        letter-spacing: -.03em;
      }

      .cls-50 {
        letter-spacing: -.03em;
      }

      .cls-51 {
        letter-spacing: .02em;
      }

      .cls-52 {
        letter-spacing: .02em;
      }
    </style>
  </defs>
  <g>
    <g id="Cut_1" data-name="Cut 1">
      <line class="cls-19" x1="404.5" y1="-.5" x2="404.5" y2="1241.5"/>
    </g>
    <path class="cls-17" d="M809.5-.5H-.5v1242h810V-.5ZM800.5,8.5v1224H8.5V8.5h792Z"/>
    <rect class="cls-18" x="17.5" y="17.5" width="774" height="1206"/>
    <g>
      <rect class="cls-20" x="8.5" y="8.5" width="792" height="1224"/>
      <line class="cls-20" x1="800.5" y1="620.5" x2="404.5" y2="620.5"/>
      <line class="cls-19" x1="8.5" y1="620.5" x2="404.5" y2="620.5"/>
    </g>
  </g>
  
  <g>
    <rect class="cls-4" x="783.02" y="646.36" width="26.98" height="54.64"/>
    <line class="cls-24" x1="689.1" y1="646.2" x2="810" y2="646.2"/>
    <g>
      <line class="cls-25" x1="706.75" y1="436.18" x2="801.01" y2="436.18"/>
      <line class="cls-23" x1="694.85" y1="521.76" x2="807.75" y2="521.76"/>
      <line class="cls-22" x1="703.09" y1="337.73" x2="791.02" y2="337.73"/>
      <path class="cls-8" d="M701.71,327.13c0,.69-.31,1.35-.93,2l-.1.1-5.43,5.72c-1.15,1.21-2.13,2.15-2.95,2.81-.81.66-1.38.99-1.72.99-.35,0-.79-.16-1.31-.5-.52-.33-.86-.67-1.01-1.02-.13-.29-.25-.91-.36-1.86-.11-.95-.17-1.98-.17-3.08,0-.6.25-1.16.75-1.67.5-.51,1.06-.77,1.67-.77s.92.53,1.04,1.59c.01.12.02.21.03.27.09.81.2,1.38.33,1.7.12.32.29.48.5.48.09,0,.25-.1.49-.29.24-.19.53-.45.86-.78l5.58-5.53c.47-.47.89-.82,1.26-1.06.37-.24.68-.36.94-.36.19,0,.33.07.41.22.08.15.12.39.12.74v.29Z"/>
      <path class="cls-8" d="M706.04,425.47c0,.69-.31,1.35-.93,2l-.1.1-5.43,5.72c-1.15,1.21-2.14,2.15-2.95,2.81-.81.66-1.38.99-1.72.99-.35,0-.79-.16-1.31-.5-.52-.33-.86-.67-1.01-1.02-.13-.29-.25-.91-.37-1.86-.11-.95-.17-1.98-.17-3.08,0-.6.25-1.16.76-1.67.5-.51,1.06-.77,1.67-.77s.92.53,1.04,1.59c.01.12.02.21.03.27.09.81.2,1.38.33,1.7.12.32.29.48.5.48.09,0,.25-.09.49-.29.24-.19.53-.45.86-.78l5.58-5.53c.47-.47.89-.82,1.26-1.06.37-.24.68-.36.94-.36.19,0,.33.07.41.22.08.15.12.39.12.74v.29Z"/>
      <path class="cls-8" d="M692.71,509.01c0,.69-.31,1.35-.93,2l-.1.1-5.43,5.72c-1.15,1.21-2.13,2.15-2.95,2.81-.81.66-1.38.99-1.72.99-.35,0-.79-.17-1.31-.5-.52-.33-.86-.67-1.01-1.02-.13-.29-.25-.91-.36-1.86-.12-.95-.17-1.97-.17-3.08,0-.6.25-1.16.76-1.67.5-.51,1.06-.77,1.67-.77s.92.53,1.04,1.59c.01.12.02.21.03.27.09.81.2,1.38.33,1.7.12.32.29.48.5.48.09,0,.25-.09.49-.28.24-.19.53-.45.86-.78l5.58-5.53c.47-.47.89-.82,1.26-1.06.37-.24.68-.36.94-.36.19,0,.33.07.41.22.08.15.12.39.12.74v.29Z"/>
    </g>
    <path class="cls-8" d="M688.38,633.28c0,.69-.31,1.35-.93,2l-.1.1-5.43,5.72c-1.15,1.21-2.14,2.15-2.95,2.81-.81.66-1.38.99-1.72.99-.35,0-.79-.16-1.31-.49-.52-.33-.86-.67-1.01-1.02-.13-.29-.25-.91-.36-1.86-.11-.95-.17-1.98-.17-3.08,0-.6.25-1.16.75-1.67.5-.51,1.06-.77,1.67-.77s.92.53,1.04,1.59c.01.12.02.21.03.27.09.82.2,1.38.33,1.7.12.32.29.48.5.48.09,0,.25-.1.49-.29.24-.19.53-.45.86-.78l5.58-5.53c.47-.47.89-.82,1.26-1.06.37-.24.68-.36.94-.36.19,0,.33.07.41.22.08.15.12.39.12.74v.29Z"/>
    <path class="cls-8" d="M670.73,720.23c0,.69-.31,1.35-.93,2l-.1.1-5.43,5.72c-1.15,1.21-2.14,2.15-2.95,2.81-.81.66-1.38.99-1.72.99-.35,0-.79-.17-1.31-.5-.52-.33-.86-.67-1.01-1.02-.13-.29-.25-.91-.36-1.86-.12-.95-.17-1.98-.17-3.08,0-.6.25-1.16.75-1.67.5-.51,1.06-.77,1.67-.77s.92.53,1.04,1.59c.01.12.02.21.03.27.09.81.2,1.38.33,1.7.12.32.29.48.5.48.09,0,.25-.09.49-.29.24-.19.53-.45.86-.78l5.58-5.53c.47-.47.89-.82,1.25-1.06.37-.24.68-.36.94-.36.19,0,.33.07.41.22s.12.39.12.74v.29Z"/>
  </g>
  <g>
    <rect class="cls-6" x="574.2" y="809.28" width="196.84" height="217.55"/>
    
    <path class="cls-14" d="M737.77,884.37c0,34.3-27.8,62.11-62.09,62.11s-62.1-27.81-62.1-62.11,27.8-62.12,62.1-62.12,62.09,27.81,62.09,62.12Z"/>
    <path class="cls-9" d="M732.17,884.72c0,31.19-25.27,56.47-56.45,56.47s-56.45-25.28-56.45-56.47,25.27-56.47,56.45-56.47,56.45,25.28,56.45,56.47Z"/>
    <g>
      <path class="cls-10" d="M663.63,872.4c-.78,6.92-1.37,12.48-1.75,16.68l-2.58.12c.04-.14.06-.3.06-.47,0-.31-.11-.73-.35-1.24-.24-.51-.37-.84-.4-.98-.67.09-1.3.56-1.91,1.38-.61.83-1.16,1.24-1.65,1.24-.28,0-.59-.08-.94-.23-.46.31-1.06.44-1.79.39-.66-.12-1.31-.21-1.94-.29-.02-.87-.88-1.64-2.59-2.3,0-.35-.17-.87-.53-1.56-.36-.69-.53-1.17-.53-1.45,0-.32.13-.58.38-.78-.04-.11-.32-.76-.86-1.96-.37-.88-.55-1.64-.54-2.27,0-.49.12-.95.34-1.36-.3-2.98-.43-5.54-.39-7.68.05-3.29.53-6.31,1.41-9.06-.06-.42-.09-.84-.08-1.26.04-2.2.8-3.73,2.28-4.58v-.68c1.48-1.87,3.41-3.22,5.81-4.05,1.43.34,2.86.66,4.29.97,1.6.55,2.71,1.5,3.31,2.84.49.29.72.87.71,1.74-.02.98.1,1.61.34,1.9l-.27.31c.28,2.07.42,3.33.41,3.79-.02,1.33-.37,2.27-1.05,2.82-.25,0-.89-.22-1.93-.66-.25.24-.51.36-.79.36-.14,0-.39-.08-.76-.22-.36-.15-.67-.22-.91-.22-.18,0-.35.03-.53.09-.02-2.76.07-4.83.26-6.19-.28-.18-.56-.59-.84-1.22-.29-.64-.66-.99-1.11-1.07-.28.35-.41.57-.38.68l-.94-.33c-.86.93-1.43,2.55-1.71,4.86-.29,2.66-.65,4.42-1.09,5.29.38.39.56.94.55,1.64,0,.25-.04.65-.13,1.21-.08.56-.12.98-.12,1.26,0,.31.02.6.09.84l-.64.62c.26,1.2.41,2.71.45,4.53-.03,1.54-.04,3.08-.03,4.62-.04,0-.33.01-.9.04-.35,0-.6.11-.74.36.21-.03.4-.05.58-.04.77.01,1.37.56,1.81,1.63.44,1.08.81,1.62,1.13,1.62.35,0,.83-.32,1.44-.97,1.03-1.1,1.57-2.62,1.6-4.54.02-.95-.09-1.96-.32-3.05-.25.14-.38.48-.39,1.04-.56,0-.91.11-1.06.35-.24-.07-.35-.27-.31-.58.04-.45.06-.7.07-.73.42-.13.63-.32.64-.57,0-.1-.07-.3-.23-.58-.15-.28-.23-.51-.22-.69,0-.14.04-.28.11-.42l.25-2.04c.77.22,2.43.32,4.98.3-.07.17.03.4.3.69.25-.24.51-.36.79-.35.21,0,.52.1.94.28.42.18.71.27.89.28Z"/>
      <path class="cls-10" d="M683.22,890.49c-.49-.22-1.01-.33-1.57-.34-.49,0-1.16.09-2,.28-.95.19-1.6.3-1.95.34-.37-.74-.63-1.76-.79-3.06-.28-1.89-.46-2.96-.52-3.21.11-.21.16-.38.17-.52,0-.39-.29-.73-.9-1.04-.61-.31-.91-.55-.91-.73,0-.21.36-.52,1.07-.93-.17-.21-.3-.64-.37-1.29-.08-.65-.24-1.08-.48-1.3-.43.38-1.12.62-2.09.73-.97.11-1.61.26-1.92.46.02,2.73-.43,4.56-1.35,5.49-.49-.11-.86.07-1.11.56-.36.59-.67.93-.91,1.03l.31.37c-.28.24-.74.34-1.37.29-.98-.05-1.5-.08-1.58-.08l-.3-.95,3.42-28.36c.03-1.79.12-2.99.27-3.62-.04-1.58.32-2.55,1.1-2.92.49.32,1.1.49,1.83.5.59,0,1.52-.12,2.79-.38,1.27-.26,2.14-.38,2.63-.38,1.71.03,2.46,1.27,2.25,3.72-.17,1.96.13,4.54.92,7.74.82,3.44,1.21,6.02,1.18,7.74,0,.53.16,1.61.12,2.14-.74.41-1.69.65-2.85.74-1.02.05-2.05.11-3.1.16-.27-2.66-.74-5.88-1.01-8.51-.33-3.16-.74-5.76-1.23-7.79l-1.62,15c-.13,1.29.46,1.95,1.75,1.97.42,0,.82-.09,1.21-.3.32-.1.75.14,1.3.7-.02,1.09.2,1.74.65,1.96.57-.38,1.31-.73,2.22-1.07.81-.3,1.6-.59,2.38-.86.44.61.73,1.5.85,2.7.15,1.68.25,2.66.32,2.95.06.67.33,2.11.82,4.32.36,1.76.52,3.18.51,4.26,0,.53-.05,1.01-.13,1.47Z"/>
      <path class="cls-10" d="M707.4,865.48c-.04.11-.05.72-.03,1.84-.01.91-.13,1.59-.35,2.04-.26.7-.4,1.69-.42,2.99,0,.28,0,.72.03,1.31-.01.6-.02,1.03-.02,1.31-.04,2.2-.41,3.81-1.13,4.81.06.56.09,1.12.08,1.68-.03,1.75-.63,4.11-1.8,7.06-.32.1-.58.15-.79.15-.42,0-.72-.25-.91-.72-.19-.48-.36-.93-.53-1.35.11-2.69.06-6.62-.17-11.77l.32-.31c-.23-.91-.33-1.93-.32-3.05.01-.8.11-1.98.3-3.51.18-1.54.28-2.69.3-3.46,0-.49,0-.96-.03-1.42-1.21,2.89-2.06,7.77-2.56,14.67l-.44,1.04c-.15.35-.45.54-.9.56-.14-.24-.28-.37-.42-.38-.11,0-.29.13-.56.38-.27.26-.49.37-.66.33l-.69.62c.31.39.97.44,1.99.14.81-.23,1.22.07,1.25.91.02.7-.17,1.64-.57,2.83-.41,1.18-.61,2.07-.62,2.67,0,.42.04.84.14,1.26l-3.63.57c-.34-.71-.59-1.89-.75-3.56-.16-1.67-.42-2.85-.75-3.56.21-.24.32-.5.33-.78,0-.24-.09-.61-.3-1.11-.2-.49-.32-.87-.35-1.11-.03-.38-.15-1.32-.37-2.79-.16-1.19-.23-2.12-.22-2.79,0-.35.03-.67.07-.95,0-.24-.13-.61-.4-1.08-.27-.48-.41-.82-.4-1.03,0-.17.07-.33.22-.47-.24-.29-.34-.78-.29-1.48.05-.7-.05-1.19-.29-1.47-.51,1.36-.79,3.19-.83,5.5-.02,3.22-.05,5.08-.09,5.56l.36.32-.37.31c.26,1.26.37,2.88.34,4.84-.09,3.53-.14,5.18-.14,4.94-.5.45-1.18.66-2.06.65-1.09-.02-1.82.07-2.21.28-.44-.78-.65-1.78-.63-3.01.01-.94.18-2.1.48-3.46-.48-.88-.7-2.11-.67-3.69,0-.39.05-1.12.14-2.21.05-.87.06-1.52.04-1.94.35-.17.53-.36.53-.57,0-.14-.11-.38-.33-.72-.22-.33-.33-.59-.33-.77,0-.21.15-.42.43-.62l-1.13-16.98c.67-.45,1.76-.65,3.27-.63,1.64.06,2.77-.02,3.36-.26.11-.07.23-.1.37-.1.14,0,.3.09.49.24.19.16.32.24.39.24.14,0,.27-.1.37-.31l.98.96c.33,1.23.64,3.62.93,7.16.3,3.05.77,5.36,1.41,6.91.86-3.1,1.57-5.7,2.13-7.79l1.14-8.31,8.14-.18c.03.46.13,2.89.35,4.29.19,1.23.28,2.23.26,3-.01.88-.15,1.66-.41,2.36.27.39.41.88.39,1.48,0,.6-.16,1.08-.44,1.46Z"/>
      <path class="cls-10" d="M724.1,883.88v-.05c-.22.45-.35.97-.39,1.57-.04.38-.05.93-.03,1.63.02.81.03,1.37.02,1.68-.28,0-1.4-.02-3.36-.05-1.19-.02-2.26.08-3.21.31l-.98-1.07c-.29.28-.39.5-.33.68-.17-.04-.98-.05-2.41-.04-1.12-.02-1.96-.14-2.51-.36-.57.59-1.24.58-2-.03-.28-.21-.3-.58-.09-1.08.22-.5.16-.88-.19-1.13.05-1.12.21-2.85.45-5.2.25-2.1.38-3.74.4-4.93.03-1.61-.08-3.15-.34-4.63.39-.38.83-.56,1.32-.55.56,0,1.22.29,1.98.82,1.07.75,1.63,1.13,1.66,1.13l.31.37c.04-.1.22-.66.55-1.67.19-.66.46-1.09.81-1.3l.31.32c.14-.07.6-.39,1.38-.97.6-.41,1.09-1.38,1.44-1.38.39,0,.75.22,1.09.65.59.32.96,1.58,1.14,2.23.18.65.35,1.29.52,1.93-1.58.04-2.87,0-3.88-.12-.25.38-.6.44-1.05.17-.45-.27-.78-.23-1,.11-.01.63-.03,1.77-.06,3.41-.06,1.47-.08,2.62-.06,3.47.01,1.29.1,2.49.25,3.58.28,0,1.61.03,3.99.07,1.65.03,3.06.17,4.25.44ZM724.22,858.72c-.32.03-.66.04-1.05.04-.8-.01-1.87-.14-3.2-.37-1.64-.24-2.64-.38-2.99-.42-.5.72-.76,1.76-.79,3.09-.05,2.87-.05,4.11,0,3.73.48.29.72.82.71,1.59-.05,1.05-.06,1.59-.03,1.63-.25.1-.37.45-.38,1.04-.38-.15-.78-.44-1.19-.86-.55-.54-.84,1.28-.8.83l-.33,1.08-.31-.32c-.28.03-.76-.12-1.44-.44-.68-.33-1.15-.63-1.43-.92,0-.56.1-.87.28-.94l-.67-.75-.32.47c-.39-3.65-.29-10.47.19-14.32,1.33.23,2.8.38,4.41.44,1.08.05,2.6.08,4.57.08,2.24,0,3.85.01,4.83.03.41.39.61.9.6,1.53,0,.39-.11,1.01-.32,1.86-.21.86-.31,1.49-.32,1.91Z"/>
    </g>
    <g>
      <path class="cls-10" d="M665.21,915.64v-.02s-.09.79-.27,2.31c-.09.94-.32,1.68-.68,2.21l-.23-.19c-.43.89-1,1.43-1.74,1.63-.35.37-.86.57-1.52.61-.39.02-1.3-.09-2.72-.34-.69-.43-1.06-.66-1.13-.71-.43-.32-.64-.65-.62-.99-.42-.43-1.01-1.19-1.23-2.14-.27-1.05-.43-1.11-.68-1.48-.4.29-.54-.33-.77-.7l.21-.16c-.13-.09-.2-.2-.21-.31,0-.08.03-.21.1-.37.07-.16.11-.29.1-.37,0-.13-.09-.25-.24-.34.16-.82.3-2.07.43-3.72.28-.15.42-.44.4-.88-.02-.43.04-.72.18-.86.67-1.34,1.75-2.24,3.26-2.71.08.01.49,0,1.21-.02.5-.01.87.03,1.12.13.45-.08.9.03,1.35.32.39.29.78.59,1.17.88.73.79,1.12,1.69,1.18,2.68.02.33,0,.68-.06,1.05-.54-.02-.92.34-1.15,1.07l-2.1.2c-.23-.32-.36-.75-.39-1.28-.01-.18,0-.45,0-.8.01-.35.01-.62,0-.8-.03-.55-.16-.98-.39-1.3l-.63.36c-.25-.1-.39-.25-.4-.45,0-.07,0-.16.03-.29.02-.13.03-.22.03-.27-.01-.21-.21-.35-.58-.39-.26,2.37-.33,4.79-.23,7.29.07.08.27.13.6.17.27.03.41.12.42.25,0,.05-.01.12-.05.2l-.21.16c.11.18.18.42.2.74,0,.17,0,.42-.02.76-.02.34-.03.6-.02.76.03.5.15.88.38,1.13-.02.37.13.62.44.75.2-.08.39-.12.55-.13.64-.04,1.08.31,1.33,1.05,0,.02,0,.14,0,.38,0,.13.07.22.2.26.28-.17.42-.47.41-.9,0-.5.06-.82.19-.96-.04-.23-.17-.56-.41-1-.24-.44-.37-.78-.39-1.03-.01-.26.06-.52.24-.76-.15-.04-.21-.14-.2-.29,0-.23,0-.36,0-.38,1.14-.28,2.3-.29,3.48-.03Z"/>
      <path class="cls-10" d="M674.71,917.59h-.03c-.12.24-.16.59-.12,1.03.06.63.09.95.09.97-.09.04-.22-.01-.38-.14-.25.09-.36.25-.35.46,0,.03.01.08.04.16,0,.09,0,.15.01.19.01.17-.04.29-.15.38-.28-.15-.65-.25-1.1-.29-.46-.04-.89-.08-1.29-.12,0-2.11-.29-4.17-.85-6.18,0,.02-.01-.19-.04-.62,0-.31-.07-.53-.21-.66l-.19.17s.06-.09.19-.18c.13-.09.19-.19.19-.28,0-.04-.02-.09-.04-.14l-.21-.15c-.36.11-.52.4-.5.87.02.31-.11.53-.37.65.1.07.15.16.16.27,0,.06,0,.15-.03.26-.02.11-.03.2-.03.26,0,.14.08.25.22.34,0,.09.05.93.14,2.5.06,1,.03,1.86-.08,2.56l.02.39c-.14,0-.29,0-.46,0-.19.01-.47.04-.83.08-.36.05-.63.07-.8.08-.71.04-1.21-.08-1.5-.36l-.3-8.65c-.14-.42-.23-1.02-.28-1.77l-.1-1.67c-.07-.82-.17-1.45-.31-1.89.06-.3.32-.46.78-.48.29-.02.67.02,1.16.12.23-.11.54-.17.94-.2.12,0,.3,0,.55,0,.27-.02.46-.03.58-.03.75-.05,1.25-.27,1.49-.69.35,0,.72.11,1.13.33.41.22.77.34,1.08.36.82.48,1.26,1.28,1.32,2.39.01.25-.08,1.23-.29,2.95l-1.4,1.22c.24.44.52,1.39.86,2.85.28,1.22.71,2.12,1.28,2.69ZM672.12,907.75l.03.02c.03.11.01-.27-.04-1.14-.02-.42-.18-.72-.46-.9-.16.23.02.33-.05.86-.08.52-.38.38-.57.6-.48,0-.59.29-.7-.17-.22-.75-.4-.68-.4-.7l-.2.12c-.07.07-.16.14-.25.22-.09.08-.19.11-.28.09,0,.09-.04.24-.13.44-.1.2-.14.34-.14.41,0,.14.12.24.33.3-.04.31-.05.64-.03.98,0,.19.05.61.13,1.27.09.52.12.97.11,1.34.17,0,.34,0,.49,0,.67-.04,1.11-.3,1.31-.8.07-.14.15-.66.23-1.55.08-.67.28-1.14.61-1.41Z"/>
      <path class="cls-10" d="M685.61,920.95c-.28-.08-.57-.11-.87-.09-.27.02-.63.08-1.08.2-.51.12-.87.2-1.06.22-.23-.31-.41-.75-.54-1.32-.22-.82-.35-1.29-.4-1.39.05-.1.08-.18.07-.24-.01-.17-.19-.31-.53-.42-.34-.11-.52-.21-.52-.29,0-.09.18-.24.55-.45-.1-.09-.19-.27-.25-.56-.07-.28-.17-.47-.31-.55-.22.19-.59.32-1.12.4-.52.08-.87.18-1.04.28.11,1.2,0,3.31-.47,3.76-.27-.03-.47.06-.59.29-.18.28-.33.44-.46.49l.18.15c-.15.12-.39.18-.74.18-.54.02-.83.02-.86.03l-.2-.41.81-13.91c-.04-.79-.04-1.32.02-1.6-.08-.69.09-1.14.5-1.33.28.12.62.17,1.02.15.33-.02.83-.11,1.51-.27.68-.16,1.16-.25,1.43-.27.94-.05,1.39.46,1.36,1.55-.03.87.23,1.99.77,3.37.57,1.48.87,2.61.92,3.36.01.23.32.72.32.95-.39.21-.9.36-1.54.44-.55.06-1.12.13-1.69.19-.24-1.16-.79-2.58-1.02-3.73-.29-1.38-.61-2.51-.95-3.39l-.36,6.67c-.02.57.32.84,1.03.8.23,0,.45-.07.65-.18.17-.06.42.03.74.26.03.48.17.76.42.83.3-.19.69-.37,1.18-.56.43-.16.86-.32,1.27-.47.26.25.45.63.56,1.15.14.74.23,1.16.28,1.29.05.29.25.92.6,1.87.26.76.4,1.38.43,1.86.01.23,0,.45-.02.65Z"/>
      <path class="cls-10" d="M693.56,905.17h.03c-.23.34-.52.4-.88.19-.08-.01-.42,0-1.04.06-.52.03-.89,0-1.13-.07-.06,0-.17.06-.34.17-.17.11-.29.17-.37.17-.11,0-.18-.09-.19-.29,0-.03,0-.16-.02-.39,0-.15-.08-.26-.22-.31l-.36.28c-.11.08-.16.17-.16.27,0,.08.07.19.19.32.12.14.2.24.22.3,0,.04.04.74.12,2.09.03.85.19,1.53.47,2.04.07-.08.25-.13.53-.13.28,0,.46-.07.55-.18.18.16.49.17.91.03.42-.14.73-.09.92.14l-.05,2.05c-.17-.02-.43-.11-.77-.26-.1.3-.29.49-.57.57-.11.04-.44.07-.98.1.01-.09-.07-.19-.25-.29-.52.25-.72.84-.59,1.78.01-.09.03.07.06.49.02.26-.04.45-.17.57-.33.05-.74-.02-1.24-.22-.5-.2-.86-.29-1.07-.28-.1,0-.18.02-.26.04l-.54.17-.86-9.36-.1-1.78c.72-.24,1.6-.39,2.66-.46.83-.05,1.9-.04,3.24.02.08-.18.24.05.43.04.1,0,.24,0,.44.03.19.03.34.04.44.03.12,0,.22-.03.31-.07l.14-.15c.39.12.6.32.61.62,0,.12-.03.33-.11.63-.08.3-.11.53-.1.68,0,.14.04.26.11.37ZM690.19,920.79c-.21.11-.52.17-.94.2-.56.03-.89.06-1,.08-.06-.06-.14-.01-.26-.5-.08-.32-.28-.47-.6-.45-.08,0-.17.02-.29.04l-.52.03-.28-4.74c.28-.14.63-.22,1.05-.25.4-.02.76.02,1.08.12,0,.17.24.24.73.21l.55-.03c.33,1.33.52,3.74.48,5.29Z"/>
      <path class="cls-10" d="M705.07,905.58l.03.02c-.27-.02-1.14.04-1.81.13-.57.07-1.01.08-1.3.03-.28.19-.38.44-.3.76l.18.11c-.15.13-.2.24-.16.31l.15.15c-.03,2.75-.04,4.26-.02,4.56.04.72.13,1.36.25,1.91-.11.35-.16.75-.13,1.19.02.29.09.76.21,1.39.12.64.29,2.72.31,3.05.01.25,0,.48-.02.7-.26.11-.55.17-.86.19-.52.03-1.07-.08-1.67-.32-.07.07-.16.13-.25.21-.09.08-.12.16-.07.25-.19.06-.45-.02-.79-.23-.18-2.78-.68-8.44-1.42-14.16-.26.23-.73.04-1.23.1-.59.07-1.17-.03-1.4.08-.29-.31-.22-.4-.25-.91-.03-.49-.19-1.71-.06-2.22.03-.11,1.1-.05,1.73-.1.86-.05,1.05.15,1.11.15.07-.11.49-.05.8-.07.2.1.41-.09.42.05,0,.09,0,.68-.07.84-.07.17-.1.29-.1.37.01.18.14-.09.46.02.35,0,.7-.02,1.06-.04.41.04.88-.11.84.23.07-.1.11.07.7-.16.43-.2.69-.71.61-1.05-.05-.19.21-.31.05-.22.21-.11.02-.04.24-.12.72.06,1.12,0,1.25-.02.29-.02,1,.17,1.21.06.15.27.23,1.12.23,1.58.02.74.04,1.14.04,1.18Z"/>
      <path class="cls-10" d="M714.4,915.24v-.02c-.11.21-.16.44-.16.71-.01.17,0,.41.04.72.04.35.06.6.07.74-.15,0-.77.05-1.84.11-.65.04-1.23.12-1.75.26l-.57-.43c-.15.13-.2.24-.16.31-.1,0-.54.02-1.32.08-.62.04-1.08.02-1.39-.06-.29.28-.66.3-1.09.06-.16-.08-.19-.24-.08-.47.1-.23.05-.39-.14-.49,0-.49.01-1.26.07-2.3.06-.93.08-1.66.05-2.19-.04-.71-.16-1.38-.35-2.03.2-.18.43-.28.7-.3.31-.02.68.08,1.12.28.61.29.93.44.95.44l.18.15s.1-.3.25-.76c.08-.3.21-.5.4-.6l.18.13c.08-.03.32-.2.72-.48.31-.21.53-.96.72-.97.21-.01.42.07.62.24.33.12.6.96.72,1.24s.24.56.35.83c-.86.08-1.57.12-2.13.1-.12.18-.32.22-.57.11-.26-.1-.44-.07-.55.09.02.28.05.78.09,1.5.02.65.05,1.16.09,1.53.05.57.14,1.09.26,1.56.15,0,.88-.05,2.19-.13.9-.05,1.68-.04,2.34.03ZM713.5,904.34c-.17.03-.36.04-.58.06-.44.02-1.03.01-1.76-.04-.91-.04-1.46-.06-1.65-.07-.25.34-.28.62-.25,1.2.07,1.27.12,1.81.12,1.64.28.11.42.33.44.67,0,.46.02.7.04.72-.13.05-.19.21-.17.47-.21-.05-.44-.16-.68-.33-.32-.21-.42.54-.42.34l-.15.47-.18-.13c-.15.02-.42-.02-.8-.14s-.65-.23-.81-.35c-.01-.25.02-.39.12-.42l-.39-.3-.16.22c-.34-1.59-.57-4.4-.44-6.11.73.05,1.59-.08,2.48-.11.59-.02,1.43-.07,2.5-.14,1.23-.09,2.11-.15,2.64-.18.24.16.37.38.39.65,0,.17-.03.45-.11.83-.08.39-.19.86-.18,1.04Z"/>
      <path class="cls-10" d="M723.97,913.6h-.03c-.12.24-.16.58-.11,1.03.06.63.08.96.08.97-.09.04-.22,0-.38-.14-.24.09-.36.25-.35.46,0,.03.01.09.04.16,0,.09,0,.16.01.19,0,.17-.04.3-.15.38-.28-.16-.65-.25-1.1-.3-.46-.04-.89-.09-1.29-.12,0-2.11-.29-4.17-.85-6.18,0,.01-.01-.2-.04-.63,0-.31-.07-.53-.21-.66l-.19.17s.06-.09.19-.19c.13-.09.19-.19.19-.28,0-.05-.02-.09-.04-.14l-.21-.15c-.36.12-.53.4-.5.87.02.31-.11.53-.37.65.1.07.15.16.16.27,0,.06,0,.15-.03.26-.02.11-.03.2-.03.26,0,.14.08.25.22.34,0,.09.05.93.14,2.5.06,1.01.03,1.86-.08,2.56l.02.39c-.14,0-.29,0-.46,0-.19.01-.47.04-.83.08-.36.04-.63.07-.8.08-.71.04-1.21-.08-1.49-.36l-.3-8.65c-.14-.42-.23-1.02-.28-1.77l-.1-1.67c-.07-.82-.17-1.45-.31-1.89.06-.3.32-.46.78-.49.29-.02.68.02,1.16.12.22-.11.54-.17.94-.19.12,0,.3,0,.55,0,.27-.02.46-.03.58-.04.75-.04,1.24-.27,1.49-.69.35,0,.72.1,1.13.33.41.22.77.34,1.08.36.82.48,1.26,1.28,1.32,2.39.01.25-.08,1.23-.29,2.95l-1.4,1.22c.24.44.52,1.39.86,2.86.28,1.22.71,2.12,1.28,2.69ZM721.38,903.75l.03.02c.02.11.01-.27-.04-1.14-.03-.42-.18-.72-.46-.9-.16.23-.19-.3-.26.22-.07.53-.2.9-.38,1.13-.48,0-.59-.29-.88-.69-.18-.26-.27-.04-.27-.05l-.13.11c-.07.07-.16.14-.25.22-.09.08-.19.11-.28.09,0,.09-.04.24-.13.44-.09.2-.14.34-.13.41,0,.14.12.24.34.31-.04.31-.05.64-.03.98.01.18.05.61.13,1.27.09.52.12.97.11,1.34.17,0,.34,0,.49,0,.67-.04,1.11-.31,1.31-.8.07-.14.14-.66.23-1.55.08-.67.28-1.14.61-1.41Z"/>
    </g>
    <g>
      <path class="cls-10" d="M628.53,873.69v.02c-.08.8-.11,1.36-.08,1.67-.12.05-.28.05-.48.02-.25-.04-.4-.06-.45-.06-.11,0-.2.04-.27.12-.16-.1-.27-.15-.32-.13-.15.09-.22.22-.21.39,0,.07.03.19.08.36.05.18.08.3.08.38,0,.11-.02.29-.07.53-.05.24-.07.44-.07.59.01.18.05.47.12.86.07.39.11.68.12.88-.08.38-.11.77-.09,1.16.02.47.16,1.11.39,1.91.04.01.08.02.13.01.1,0,.21-.07.35-.21.13-.13.25-.2.35-.21.07,0,.15.01.23.05.25.81.38,1.34.4,1.58,0,.11,0,.23,0,.36-.37.09-.64-.04-.8-.38.02-.1-.03-.2-.16-.31l-.42.44c.41.06.57.38.49.94-.04.11-.12.18-.26.18-.24,0-.35,0-.34,0l-.35-.61-.14.17c-.11-.29-.25-.43-.4-.42-.08,0-.23.07-.44.21-.21.13-.38.21-.52.21-.11,0-.22-.02-.34-.09,0-.17-.03-.34-.06-.52-.03-.18-.12-.3-.28-.34,0-.43,0-1.58.04-3.43.01-1.4,0-2.54-.05-3.4-.02-.36-.04-.72-.07-1.07-.08-.11-.15-.16-.22-.16-.06,0-.14.06-.25.18-.11.12-.21.17-.3.16,0-.14-.07-.36-.19-.67-.12-.31-.18-.53-.19-.67-.01-.24.08-.45.26-.62l.49.12c.2-.28.28-.74.24-1.4,0-.12-.03-.32-.05-.6-.03-.27-.05-.47-.05-.6-.05-1.08.28-1.63.99-1.67.26-.02.59.03.97.14l.47.12c.04.18.06.37.07.56.01.27,0,.65-.04,1.17-.04.52-.05.89-.04,1.12.02.38.08.72.2,1.02.11,0,.29-.06.53-.18.24-.12.41-.18.53-.18.19,0,.35.08.48.27ZM627.07,875.2l-.03-.48-.15-.14.18.62Z"/>
      <path class="cls-10" d="M634.29,872.18h.02c-.05.38-.11.76-.17,1.14-.08.44-.2.78-.37,1.03-.03-.01-.2-.09-.52-.25-.22-.12-.41-.16-.58-.14-.13.82-.2,1.94-.21,3.35,0,1.81-.02,2.9-.04,3.28-.21-.02-.37.05-.47.2-.11.15-.2.31-.29.47-.04.09-.06.16-.05.23,0,.11.1.22.29.32.19.1.28.22.29.34-.08.3-.26.45-.52.47-.12,0-.34-.03-.66-.11-.31-.08-.53-.12-.66-.11l-.3-6c.12-.16.17-.27.15-.32l-.17-.12c.01-.25.03-1.51.04-3.76,0-1.53.06-2.77.17-3.71-.01,0,.42-.03,1.3-.09.54-.03.9.12,1.05.45,0,.31-.03.83-.09,1.56-.06.67-.09,1.2-.07,1.56.02.45.09.85.21,1.21.47-.64,1.02-.98,1.65-1.01ZM636.38,873.46c.04.56.08,1.1.1,1.63.12,2.32.08,4.8-.11,7.45-.2.18-.51.22-.93.12-.42-.1-.72-.06-.91.12-.24-.31-.38-.87-.42-1.68-.06-1.17-.09-1.78-.09-1.82-.05-2.94.24-5.32.86-7.13.72.19,1.22.63,1.49,1.31Z"/>
      <path class="cls-10" d="M643.73,876.51c-.09.19-.13.39-.12.6,0,.21.02.41.03.61-.02.17-.07.34-.14.51-.13-.04-.23-.05-.32-.05-.1,0-.2.04-.3.11-.1.07-.18.11-.24.11-.08,0-.2-.03-.34-.09l-.97-1.42c.03.42.13.79.29,1.1.08.16.16.33.23.49-.57.1-.89.12-.97.05l-.14.18-.34-.45c-.26.32-.33.79-.18,1.42.17.68.18,1.17.03,1.47.21.31.46.46.76.44.13,0,.24-.05.33-.14.14-.34.27-.69.41-1.03.2-.42.43-.63.68-.64.2,0,.43.09.69.3.31.11.48.26.49.44,0,.12-.07.3-.21.55-.15.25-.22.45-.21.59,0,.05.01.1.03.15-.2.15-.38.38-.54.68-.16.3-.37.51-.63.62-.23.22-.44.34-.63.35-.15,0-.38-.11-.69-.35-.31-.24-.59-.36-.86-.35-.11-.25-.38-.52-.82-.82-.44-.3-.7-.62-.8-.97,0,.03,0-.08-.02-.34,0-.14-.07-.23-.18-.26l.16-.16c-.21,0-.32-.12-.33-.36,0-.03,0-.08,0-.17,0-.07.01-.13.01-.17,0-.17-.06-.28-.16-.35l-.04-.73c-.02-.38-.1-.65-.23-.81.14-.89.28-1.78.41-2.67.23-1.04.57-1.56,1.01-1.59.07,0,.14,0,.21.03.4-.4.89-.61,1.46-.64.63-.03,1.33.16,2.09.57.6.98.96,2.04,1.11,3.2ZM640.84,874.2l-.14.18c-.1.02-.21-.03-.34-.15l.02.48c-.21.23-.3.59-.26,1.08.04.84.06,1.24.06,1.22h.63c.3-.18.44-.46.42-.85,0-.2-.08-.52-.21-.97-.13-.45-.19-.78-.18-.99Z"/>
    </g>
    <g>
      <polygon class="cls-14" points="648.66 897.67 649.28 898.03 651.4 892.46 650.69 892.23 648.58 897.79 649.19 898.18 648.66 897.67 648.66 897.67 648.66 897.67"/>
      <polygon class="cls-14" points="649.58 896.9 649.33 897 648.66 897.67 649.19 898.18 649.88 897.48 649.61 897.61 649.58 896.9 649.58 896.9 649.58 896.9"/>
      <polygon class="cls-14" points="654.71 896.85 655.01 896.62 649.58 896.9 649.61 897.61 655.04 897.34 655.38 897.08 654.71 896.85 654.71 896.85 654.71 896.85 654.71 896.85"/>
      <polygon class="cls-14" points="657.17 891.74 656.79 891.28 654.71 896.85 655.38 897.08 657.5 891.51 657.13 891.06 657.17 891.74 657.17 891.74 657.17 891.74 657.17 891.74"/>
      <polygon class="cls-14" points="651.99 891.92 651.72 892.05 657.17 891.74 657.13 891.06 651.71 891.3 651.44 891.43 651.99 891.92 651.99 891.92 651.99 891.92 651.99 891.92"/>
      <polygon class="cls-14" points="651.4 892.46 651.32 892.59 651.99 891.92 651.44 891.43 650.77 892.11 650.69 892.23 651.4 892.46 651.4 892.46 651.4 892.46 651.4 892.46"/>
      <polygon class="cls-14" points="655.91 897.52 656.39 897.3 655.23 896.65 654.86 897.31 656.06 897.98 656.58 897.74 655.88 897.5 655.88 897.5 655.91 897.52 655.91 897.52"/>
      <polygon class="cls-14" points="658.18 892.38 657.99 891.94 655.88 897.5 656.58 897.74 658.7 892.18 658.51 891.74 658.18 892.38 658.18 892.38 658.18 892.38"/>
      <polygon class="cls-14" points="657.5 891.51 656.98 891.75 658.18 892.38 658.51 891.74 657.34 891.09 656.79 891.28 657.5 891.51 657.5 891.51 657.5 891.51"/>
      <polygon class="cls-10" points="651.06 892.35 651.03 892.34 651.7 891.67 656.74 891.42 656.79 891.28 657.17 891.4 657.5 891.51 657.48 891.58 658.36 892.06 658.7 892.18 658.56 892.54 661.03 898.4 658.94 903.97 656.25 897.63 656.25 897.63 655.9 897.77 655.88 897.5 655.9 897.44 655.05 896.97 654.86 897.31 654.75 896.98 649.58 897.23 648.91 897.91 651.06 892.35"/>
      <polygon class="cls-14" points="658.61 903.86 659.29 903.83 656.59 897.48 655.9 897.77 658.6 904.12 659.28 904.09 658.57 903.85 658.57 903.85 658.61 903.86 658.61 903.86"/>
      <polygon class="cls-14" points="660.71 898.56 660.69 898.29 658.57 903.85 659.28 904.09 661.4 898.53 661.37 898.26 660.71 898.56 660.71 898.56 660.71 898.56"/>
      <polygon class="cls-14" points="658.7 892.18 658.02 892.21 660.71 898.56 661.37 898.26 658.67 891.91 657.99 891.94 658.7 892.18 658.7 892.18 658.7 892.18"/>
      <polygon class="cls-12" points="658.52 893.61 658.82 894.27 658.93 894.94 658.9 895.6 658.71 896.29 658.37 896.96 657.91 897.55 657.32 898.1 656.6 898.57 656.21 898.74 655.82 898.9 655.38 898.98 654.98 899.07 654.59 899.13 654.16 899.17 653.77 899.11 653.37 899.09 653.02 899.01 652.65 898.89 652.29 898.74 651.98 898.55 651.71 898.35 651.41 898.14 651.17 897.87 650.96 897.58 650.66 896.92 650.55 896.25 650.55 895.58 650.77 894.9 651.06 894.25 651.53 893.63 652.13 893.08 652.88 892.62 653.24 892.44 653.66 892.29 654.06 892.2 654.47 892.11 654.89 892.06 655.28 892.01 655.68 892.06 656.08 892.09 656.45 892.21 656.82 892.33 657.15 892.45 657.5 892.63 657.78 892.8 658.07 893.05 658.27 893.34 658.52 893.61 658.52 893.61 658.52 893.61 658.52 893.61"/>
      <polygon class="cls-14" points="658.79 894.71 659.09 895.37 659.19 896.07 659.16 896.73 658.98 897.38 658.67 898.07 658.17 898.68 657.62 899.21 656.87 899.67 656.47 899.87 656.08 900.03 655.67 900.12 655.24 900.2 654.85 900.26 654.47 900.28 654.06 900.26 653.64 900.19 653.29 900.11 652.92 899.99 652.6 899.84 652.25 899.65 651.97 899.49 651.71 899.25 651.45 899.01 651.23 898.68 650.92 898.05 650.81 897.38 650.85 896.68 651.03 896.04 651.33 895.35 651.79 894.76 652.39 894.21 653.13 893.75 653.54 893.55 653.92 893.42 654.33 893.29 654.77 893.21 655.15 893.19 655.54 893.14 655.93 893.19 656.34 893.21 656.72 893.3 657.09 893.43 657.41 893.58 657.77 893.73 658.04 893.93 658.34 894.15 658.54 894.44 658.78 894.74 658.78 894.74 658.79 894.71 658.79 894.71"/>
      <polygon class="cls-12" points="658.98 895.48 659.29 896.1 659.39 896.81 659.36 897.47 659.18 898.12 658.84 898.79 658.37 899.42 657.82 899.94 657.07 900.41 656.7 900.62 656.28 900.77 655.88 900.86 655.44 900.94 655.05 901 654.67 901.02 654.26 901 653.84 900.93 653.49 900.85 653.12 900.73 652.8 900.58 652.45 900.39 652.17 900.22 651.88 899.98 651.67 899.72 651.43 899.42 651.12 898.79 651.01 898.12 651.04 897.46 651.23 896.77 651.53 896.09 652 895.46 652.62 894.96 653.34 894.49 653.74 894.29 654.13 894.12 654.53 894.03 654.97 893.96 655.36 893.9 655.74 893.88 656.18 893.91 656.54 893.96 656.92 894.04 657.29 894.17 657.65 894.32 657.96 894.51 658.24 894.67 658.54 894.88 658.74 895.18 658.98 895.48 658.98 895.48 658.98 895.48"/>
      <polygon class="cls-14" points="659.25 896.58 659.55 897.24 659.66 897.91 659.66 898.58 659.44 899.25 659.14 899.9 658.64 900.52 658.08 901.08 657.33 901.53 656.97 901.71 656.55 901.87 656.14 901.96 655.74 902.05 655.32 902.09 654.92 902.15 654.53 902.09 654.13 902.07 653.75 901.98 653.38 901.86 653.05 901.71 652.71 901.52 652.44 901.32 652.17 901.12 651.92 900.85 651.69 900.55 651.42 899.9 651.28 899.21 651.31 898.55 651.5 897.87 651.82 897.23 652.3 896.61 652.89 896.06 653.61 895.59 654 895.42 654.39 895.25 654.83 895.17 655.23 895.09 655.62 895.03 656.03 895.02 656.44 895.04 656.81 895.05 657.19 895.14 657.55 895.27 657.91 895.42 658.23 895.6 658.53 895.81 658.8 896.01 659.04 896.28 659.23 896.61 659.23 896.61 659.25 896.58 659.25 896.58"/>
      <polygon class="cls-12" points="659.64 897.3 659.95 897.93 660.06 898.6 660.05 899.31 659.87 899.96 659.54 900.63 659.03 901.25 658.48 901.77 657.77 902.24 657.36 902.44 656.94 902.6 656.54 902.69 656.13 902.78 655.71 902.82 655.33 902.84 654.92 902.82 654.53 902.77 654.15 902.67 653.78 902.55 653.46 902.41 653.13 902.26 652.83 902.05 652.57 901.81 652.33 901.54 652.12 901.25 651.81 900.63 651.68 899.91 651.71 899.25 651.92 898.61 652.23 897.93 652.7 897.3 653.28 896.79 654 896.32 654.4 896.12 654.79 895.95 655.22 895.9 655.63 895.78 656.02 895.72 656.44 895.71 656.84 895.74 657.2 895.78 657.58 895.87 657.98 896 658.31 896.15 658.63 896.3 658.93 896.51 659.19 896.74 659.44 897.01 659.64 897.3 659.64 897.3 659.64 897.3"/>
      <polygon class="cls-14" points="659.94 898.41 660.21 899.06 660.35 899.75 660.32 900.41 660.13 901.09 659.8 901.73 659.33 902.35 658.74 902.9 658.02 903.37 657.63 903.54 657.21 903.7 656.8 903.78 656.4 903.87 656.01 903.93 655.58 903.97 655.19 903.92 654.79 903.9 654.44 903.82 654.04 903.68 653.71 903.54 653.4 903.36 653.1 903.15 652.83 902.94 652.58 902.67 652.38 902.38 652.08 901.72 651.94 901.04 651.97 900.38 652.19 899.71 652.49 899.06 652.96 898.43 653.55 897.88 654.3 897.42 654.66 897.25 655.08 897.09 655.49 897 655.89 896.91 656.31 896.87 656.71 896.81 657.1 896.87 657.46 896.88 657.88 896.98 658.25 897.1 658.57 897.25 658.89 897.43 659.19 897.64 659.46 897.84 659.7 898.11 659.94 898.41 659.94 898.41 659.94 898.41 659.94 898.41"/>
      <polygon class="cls-14" points="622.94 889.87 622.97 889.66 620.84 895.25 621.51 895.48 623.64 889.88 623.65 889.73 622.94 889.87 622.94 889.87 622.94 889.87 622.94 889.87"/>
      <polygon class="cls-14" points="622.88 889.59 622.89 889.55 622.94 889.87 623.65 889.73 623.57 889.41 623.58 889.38 622.88 889.59 622.88 889.59 622.88 889.59 622.88 889.59"/>
      <polygon class="cls-14" points="622.8 889.26 622.88 889.59 623.58 889.38 623.5 889.05 622.8 889.26 622.8 889.26 622.8 889.26 622.8 889.26"/>
      <polygon class="cls-14" points="622.71 888.97 622.8 889.26 623.5 889.05 623.42 888.76 622.71 888.97 622.71 888.97 622.71 888.97"/>
      <polygon class="cls-14" points="622.63 888.65 622.63 888.65 622.71 888.97 623.42 888.76 623.34 888.43 623.33 888.47 622.63 888.65 622.63 888.65 622.63 888.65 622.63 888.65"/>
      <polygon class="cls-14" points="622.54 888.24 622.54 888.36 622.63 888.65 623.33 888.47 623.24 888.18 623.27 888.3 622.54 888.24 622.54 888.24 622.54 888.24"/>
      <polygon class="cls-14" points="623.26 888.11 622.55 887.99 622.54 888.24 623.27 888.3 623.28 888.04 622.58 887.92 623.25 888.14 623.25 888.14 623.26 888.11 623.26 888.11"/>
      <polygon class="cls-11" points="623.87 904.4 623.8 904.04 623.05 904.17 623.11 904.56 623.87 904.4 623.87 904.4 623.87 904.4 623.87 904.4"/>
      <polygon class="cls-14" points="625.43 899.73 625.45 899.55 623.33 905.12 624.01 905.34 626.12 899.78 626.11 899.58 625.43 899.73 625.43 899.73 625.43 899.73 625.43 899.73"/>
      <polygon class="cls-14" points="625.37 899.34 625.43 899.73 626.11 899.58 626.06 899.19 625.34 899.33 625.34 899.33 625.37 899.34 625.37 899.34"/>
      <polygon class="cls-14" points="625.27 898.97 625.34 899.33 626.06 899.19 625.96 898.83 625.27 898.97 625.27 898.97 625.27 898.97 625.27 898.97"/>
      <polygon class="cls-14" points="625.18 898.57 625.21 898.61 625.27 898.97 625.96 898.83 625.9 898.43 625.92 898.48 625.18 898.57 625.18 898.57 625.18 898.57 625.18 898.57"/>
      <polygon class="cls-14" points="625.85 898.23 625.14 898.14 625.18 898.57 625.92 898.48 625.87 898.09 625.15 898 625.85 898.23 625.85 898.23 625.85 898.23"/>
      <g>
        <polygon class="cls-7" points="620.84 894.14 620.5 894.24 620.84 894.14 620.84 894.14"/>
        <polygon class="cls-7" points="621.2 895.31 621.21 895.28 621.38 895.29 621.51 895.48 621.2 895.37 621.2 895.31"/>
        <polygon class="cls-10" points="620.43 893.92 620.79 893.85 620.8 893.59 622.92 888 622.91 888.03 622.91 888.26 622.97 888.54 623.08 888.87 623.17 889.16 623.25 889.49 623.3 889.77 623.3 889.77 623.64 889.88 621.51 895.48 621.38 895.29 621.21 895.28 621.2 895.31 621.2 895.37 621.51 895.48 621.2 895.46 621.21 895.71 620.99 895.44 620.82 895.43 620.77 895.12 620.9 895.09 621.04 894.73 620.68 894.83 620.58 894.57 620.5 894.24 620.84 894.14 620.84 894.14 620.5 894.24 620.52 894.21 620.43 893.92"/>
      </g>
      <g>
        <polygon class="cls-5" points="637.75 895.45 637.75 895.45 638.06 894.77 637.75 895.45"/>
        <polygon class="cls-10" points="621.19 894.99 636.77 894.48 637.17 894.51 637.24 894.53 637.62 894.62 637.65 894.63 638.06 894.77 638.45 894.93 638.48 894.95 638.85 895.18 638.92 895.2 639.21 895.45 639.3 895.52 639.51 895.77 639.53 895.82 639.68 896.05 639.69 896.13 639 896.34 638.89 896.17 638.88 896.2 638.71 895.95 638.71 895.95 638.47 895.76 638.53 895.82 638.15 895.62 638.15 895.62 637.75 895.45 637.75 895.45 637.42 895.34 637.04 895.25 637.11 895.27 636.75 895.22 636.75 895.19 621.21 895.71 621.19 894.99"/>
        <polygon class="cls-10" points="638.99 896.34 639 896.34 639.04 896.4 638.99 896.34"/>
      </g>
      <polygon class="cls-14" points="647.31 909.42 647.31 909.2 645.18 914.8 645.89 915.03 648.02 909.43 648.02 909.21 647.31 909.42 647.31 909.42 647.31 909.42 647.31 909.42"/>
      <polygon class="cls-14" points="641.16 890.84 641.11 890.75 647.31 909.42 648.02 909.21 641.82 890.54 641.81 890.46 641.16 890.84 641.16 890.84 641.16 890.84 641.16 890.84"/>
      <polygon class="cls-14" points="641.04 890.65 641.01 890.6 641.16 890.84 641.81 890.46 641.66 890.22 641.63 890.21 641 890.63 641 890.63 641.04 890.65 641.04 890.65"/>
      <polygon class="cls-14" points="640.89 890.41 640.83 890.36 641 890.63 641.63 890.21 641.39 889.91 641.34 889.85 640.89 890.41 640.89 890.41 640.89 890.41 640.89 890.41"/>
      <polygon class="cls-14" points="640.64 890.25 640.59 890.2 640.89 890.41 641.34 889.85 641.04 889.64 640.98 889.58 640.64 890.25 640.64 890.25 640.64 890.25"/>
      <polygon class="cls-14" points="640.31 890.03 640.27 890.02 640.64 890.25 640.98 889.58 640.6 889.38 640.57 889.37 640.31 890.03 640.31 890.03 640.31 890.03"/>
      <polygon class="cls-14" points="639.95 889.88 639.87 889.88 640.31 890.03 640.57 889.37 640.17 889.2 640.14 889.19 639.91 889.9 639.91 889.9 639.95 889.88 639.95 889.88"/>
      <polygon class="cls-14" points="639.55 889.74 639.5 889.76 639.91 889.9 640.14 889.19 639.74 889.06 639.74 889.06 639.54 889.77 639.54 889.77 639.55 889.74 639.55 889.74"/>
      <polygon class="cls-14" points="639.23 889.67 639.17 889.65 639.54 889.77 639.74 889.06 639.32 888.96 639.29 888.95 639.23 889.67 639.23 889.67 639.23 889.67 639.23 889.67"/>
      <polygon class="cls-14" points="638.87 889.63 638.86 889.66 639.23 889.67 639.29 888.95 638.9 888.89 638.85 888.91 638.87 889.63 638.87 889.63 638.87 889.63"/>
      <polygon class="cls-14" points="623.67 889.89 623.29 890.13 638.87 889.63 638.85 888.91 623.3 889.43 622.97 889.66 623.64 889.88 623.64 889.88 623.67 889.89 623.67 889.89"/>
      <polygon class="cls-7" points="627.59 906.91 627.53 906.88 627.57 906.86 627.59 906.91"/>
      <g>
        <polygon class="cls-7" points="636 909.43 635.94 910.18 636 909.43 636 909.43"/>
        <g>
          <polygon class="cls-5" points="635.97 909.79 635.94 910.18 635.97 909.79 635.97 909.79"/>
          <g>
            <polygon class="cls-5" points="623.35 903.73 623.37 903.67 623.38 903.74 623.35 903.73"/>
            <path class="cls-10" d="M623.11,904.56l.07.36.13.38.17.28.95.5.95.51.92.49.93.46h.03s.94.44.94.44l.94.43,1.02.42,1.03.38h.03s1.1.3,1.1.3l1.1.29h.03s1.21.19,1.21.19l1.24.19h.03s1.35.09,1.35.09l.04-.02,1.44.04,1.54-.04,1.63-.09.34-.22,2.12-5.56-.36-.49.02.72-.11-.14.08-.21h-.24s-.1-.11-.1-.11l-.05.14-1.21.08h-1.57l-1.45-.04-1.32-.07-1.29-.17-1.2-.21-1.1-.29-1.1-.29-1.03-.38-1-.37-.94-.42-.93-.46-.96-.47-.92-.49-.92-.49-.64-.34.02-.05-.34-.11h0l-.09-.4-.07-.36-.03-.12.25-.55-.35-.12h-.02s-.34-.12-.34-.12l-2.12,5.56-.02.18.06.39.04.43ZM623.37,903.67v.07s-.02-.02-.02-.02l.02-.05Z"/>
          </g>
        </g>
      </g>
      <polygon class="cls-14" points="642.44 904.67 644.08 904.58 644.05 903.86 642.42 903.95 642.44 904.67 642.44 904.67 642.44 904.67 642.44 904.67"/>
      <polygon class="cls-14" points="640.9 904.71 642.44 904.67 642.42 903.95 640.88 903.99 640.9 904.71 640.9 904.71 640.9 904.71 640.9 904.71"/>
      <polygon class="cls-14" points="639.42 904.66 639.46 904.67 640.9 904.71 640.88 903.99 639.43 903.96 639.48 903.93 639.41 904.7 639.41 904.7 639.42 904.66 639.42 904.66"/>
      <polygon class="cls-14" points="638.03 904.57 638.07 904.58 639.41 904.7 639.48 903.93 638.12 903.85 638.16 903.87 638.03 904.57 638.03 904.57 638.03 904.57 638.03 904.57"/>
      <polygon class="cls-14" points="636.78 904.42 638.03 904.57 638.16 903.87 636.91 903.68 636.78 904.42 636.78 904.42 636.78 904.42"/>
      <polygon class="cls-14" points="635.55 904.19 635.58 904.2 636.78 904.42 636.91 903.68 635.67 903.49 635.7 903.5 635.55 904.19 635.55 904.19 635.55 904.19 635.55 904.19"/>
      <polygon class="cls-14" points="634.45 903.9 635.55 904.19 635.7 903.5 634.61 903.21 634.44 903.93 634.44 903.93 634.45 903.9 634.45 903.9"/>
      <polygon class="cls-14" points="633.31 903.63 633.34 903.64 634.44 903.93 634.61 903.21 633.51 902.91 633.54 902.92 633.31 903.63 633.31 903.63 633.31 903.63"/>
      <polygon class="cls-14" points="632.28 903.25 632.28 903.25 633.31 903.63 633.54 902.92 632.51 902.54 632.55 902.55 632.25 903.24 632.25 903.24 632.28 903.25 632.28 903.25"/>
      <polygon class="cls-14" points="631.26 902.83 632.25 903.24 632.55 902.55 631.56 902.15 631.26 902.83 631.26 902.83 631.26 902.83"/>
      <polygon class="cls-14" points="630.32 902.41 631.26 902.83 631.56 902.15 630.61 901.76 630.32 902.41 630.32 902.41 630.32 902.41"/>
      <polygon class="cls-14" points="629.36 901.94 629.38 901.98 630.32 902.41 630.61 901.76 629.65 901.29 629.68 901.3 629.35 901.97 629.35 901.97 629.36 901.94 629.36 901.94"/>
      <polygon class="cls-14" points="628.43 901.48 629.35 901.97 629.68 901.3 628.75 900.84 628.42 901.51 628.42 901.51 628.43 901.48 628.43 901.48"/>
      <polygon class="cls-14" points="627.51 900.99 628.42 901.51 628.75 900.84 627.83 900.35 627.48 900.98 627.48 900.98 627.51 900.99 627.51 900.99"/>
      <polygon class="cls-14" points="626.56 900.48 627.48 900.98 627.83 900.35 626.92 899.85 626.56 900.48 626.56 900.48 626.56 900.48"/>
      <polygon class="cls-14" points="626.12 899.78 625.61 899.98 626.56 900.48 626.92 899.85 625.97 899.35 625.45 899.55 626.12 899.78 626.12 899.78 626.12 899.78 626.12 899.78"/>
      <polygon class="cls-14" points="723.15 889.69 721.02 895.29 727.98 897.61 729.59 893.89 729.63 893.54 729.64 893.16 729.59 892.77 729.45 892.39 729.23 892.05 729.05 891.7 728.76 891.34 728.46 891.02 728.14 890.72 727.8 890.42 727.44 890.15 727.09 889.96 726.76 889.74 726.37 889.57 726.02 889.38 725.68 889.27 725.38 889.17 725.02 889.12 724.7 889.09 724.38 889.13 724.07 889.18 723.74 889.29 723.44 889.49 723.15 889.69 723.15 889.69 723.15 889.69 723.15 889.69"/>
      <polygon class="cls-14" points="727.66 897.43 728.1 897.24 721.15 894.92 720.91 895.62 727.87 897.94 728.33 897.77 727.66 897.43 727.66 897.43 727.66 897.43"/>
      <g>
        <polygon class="cls-5" points="729 899.04 729.05 899.42 729 899.04 729 899.04"/>
        <polygon class="cls-5" points="732.59 895.29 732.84 895.54 732.57 895.34 732.59 895.29"/>
        <g>
          <polygon class="cls-5" points="732.84 895.54 732.57 895.34 732.59 895.29 732.84 895.54"/>
          <g>
            <polygon class="cls-5" points="732.84 895.54 732.57 895.34 732.59 895.29 732.84 895.54"/>
            <polygon class="cls-10" points="620.43 893.58 620.46 893.48 622.58 887.92 623.25 888.14 621.2 893.64 621.15 893.86 621.14 893.79 620.43 893.92 620.42 893.84 620.43 893.58"/>
            <g>
              <polygon class="cls-5" points="732.84 895.54 732.57 895.34 732.59 895.29 732.84 895.54"/>
              <polygon class="cls-7" points="654.51 906.75 654.38 906.83 654.38 906.82 654.51 906.75"/>
              <g>
                <polygon class="cls-5" points="654.65 907.08 654.91 907.33 654.65 907.08 654.65 907.08"/>
                <polygon class="cls-5" points="732.84 895.54 732.57 895.34 732.59 895.29 732.84 895.54"/>
                <polygon class="cls-5" points="645.52 914.91 645.54 914.91 645.54 914.92 645.18 914.8 645.48 914.8 645.52 914.91"/>
                <path class="cls-10" d="M620.68,894.83l.08.32v-.03s.55-.12.55-.12l-.14.36,15.58-.51h.37s.4.14.4.14l.4.13.4.13.37.24.3.21.21.26.13.26-.37.11,6.2,18.67h.36s0,.24,0,.24h1.08s.48,0,.48,0l.44-.08.45-.11.45-.22.41-.35.49-.47v-.03s.29-.39.29-.39l.33-.42.37-.44.26-.44.32-.52.34-.45.28-.5.36-.52.29-.42.41-.46.34-.45.39-.39.35-.37.37-.32.36-.29.41-.23.09-.05-.27-.25h0l.27.25.41-.46.38-.36.33-.34.36-.29.35-.26.37-.21.33-.19.36-.18.4-.09.39-.17.4-.09.47-.07.51-.09.57-.03.62-.05.6-.02h.03s67.24-5.01,67.24-5.01l.39-.05.36-.07.32-.08.34-.11.31-.16.32-.19.27-.25.31-.27.07-.09,1.17-2.74-.61-.39.27.26-.04.04-.3-.21-.29.68-.2.12-.26.1-.3.12-.28.05-.36.07-.36.07-67.28,5.01-.43.04h-.41s-.41.02-.41.02l-.44.08h-.45l-.39.06-.43.04-.39.06-.44.08-.39.05-.4.09-.45.11-.4.09-.42.16-.43.16-.4.2-.79.48-.81.74-.85.88-.82.99-.79,1.04-.68.93-.67.89-.56.67-.33.08-.28.05-.35.04h-.67l-.29-.02h-.37s-.33-.04-.33-.04l-6.17-18.63-.13-.27-.21-.26-.3-.21-.4-.25-.39-.17-.4-.13-.38-.09h-.37s-15.57.47-15.57.47l-1.87,4.92v-.07s-.75.2-.75.2ZM732.57,895.34l.02-.05.25.24-.28-.2Z"/>
              </g>
            </g>
          </g>
        </g>
      </g>
      <polygon class="cls-14" points="730.21 896.72 730.62 896.63 730.98 896.56 731.3 896.48 731.64 896.37 731.95 896.21 732.27 896.02 732.53 895.81 732.84 895.54 732.31 895.03 732.07 895.28 731.83 895.46 731.59 895.61 731.33 895.71 731.09 895.77 730.8 895.86 730.48 895.91 730.14 895.94 730.21 896.72 730.21 896.72 730.21 896.72"/>
      <polygon class="cls-14" points="662.98 901.71 730.21 896.72 730.14 895.94 662.9 900.97 662.98 901.71 662.98 901.71 662.98 901.71"/>
      <polygon class="cls-14" points="656.39 902.9 656.78 902.73 657.16 902.6 657.62 902.45 658 902.32 658.42 902.2 658.81 902.14 659.2 902.08 659.64 902.01 659.99 901.94 660.41 901.93 660.84 901.88 661.26 901.84 661.69 901.79 662.07 901.77 662.52 901.74 662.98 901.71 662.9 900.97 662.47 901.01 662.04 901.06 661.6 901.06 661.17 901.1 660.76 901.11 660.35 901.2 659.94 901.21 659.48 901.25 659.08 901.33 658.67 901.42 658.24 901.5 657.79 901.61 657.41 901.75 656.95 901.89 656.49 902.04 656.09 902.24 656.39 902.9 656.39 902.9 656.39 902.9 656.39 902.9"/>
      <polygon class="cls-14" points="650.37 909.55 650.51 909.45 650.81 909.1 651.08 908.74 651.41 908.33 651.74 907.88 652.12 907.41 652.47 906.93 652.86 906.42 653.26 905.92 653.66 905.39 654.07 904.92 654.48 904.5 654.89 904.04 655.24 903.67 655.67 903.37 656.03 903.08 656.39 902.9 656.09 902.24 655.63 902.5 655.24 902.78 654.78 903.15 654.34 903.56 653.94 903.99 653.54 904.41 653.09 904.97 652.7 905.47 652.3 905.98 651.91 906.48 651.57 906.96 651.18 907.43 650.85 907.88 650.52 908.29 650.26 908.65 650.01 908.94 650.14 908.88 650.37 909.55 650.37 909.55 650.37 909.55 650.37 909.55"/>
      <polygon class="cls-5" points="723.01 890.02 723.15 889.69 723.42 889.45 723.82 889.24 724.29 889.18 724.55 889.19 724.84 889.21 725.12 889.27 725.4 889.32 725.74 889.44 726.04 889.54 726.37 889.68 726.71 889.87 727 890.01 727.31 890.22 727.57 890.42 727.87 890.67 728.17 890.88 728.38 891.14 728.64 891.37 728.85 891.63 729.24 892.14 729.44 892.65 729.54 892.91 729.6 893.08 729.57 893.51 729.49 893.86 729.24 894.15 728.88 894.33 728.4 894.43 728.13 894.45 727.85 894.4 727.53 894.36 727.18 894.29 726.88 894.18 726.54 894.07 726.19 893.92 725.87 893.73 725.55 893.59 725.2 893.4 724.9 893.19 724.61 892.94 724.34 892.74 724.06 892.46 723.81 892.19 723.6 891.93 723.25 891.41 723.05 890.89 723 890.72 722.94 890.44 723.01 890.02"/>
      <polygon class="cls-12" points="637.49 889.31 638.87 889.29 638.99 889.29 627.07 885.31 626.46 885.67 637.48 889.35 637.48 889.35 637.49 889.31 637.49 889.31"/>
      <polygon class="cls-12" points="637.49 889.31 623.3 889.77 623.25 889.49 623.17 889.16 623.08 888.87 622.97 888.54 622.91 888.26 622.91 888.03 623 887.76 623.25 887.58 623.83 887.18 624.48 886.8 625.13 886.42 625.78 886.04 626.4 885.65 626.46 885.67 637.48 889.35 637.48 889.35 637.49 889.31 637.49 889.31"/>
      <polygon class="cls-13" points="628.87 897.93 638.53 897.39 642.31 898.91 643.64 902.86 644.04 904.23 642.44 904.33 640.88 904.33 639.43 904.29 638.11 904.23 636.82 904.06 635.63 903.84 634.53 903.55 633.43 903.26 632.4 902.88 631.41 902.51 630.47 902.08 629.54 901.62 628.57 901.15 627.66 900.66 626.74 900.17 625.79 899.67 625.7 899.26 625.63 898.9 625.54 898.5 625.49 898.11 628.87 897.93"/>
      <polygon class="cls-12" points="653.2 899.04 653.34 899.19 654.58 899.94 654.98 899.3 653.74 898.55 653.86 898.74 653.2 899.04 653.25 899.13 653.34 899.19 653.2 899.04 653.2 899.04 653.2 899.04"/>
      <polygon class="cls-12" points="642.15 899.27 641.94 899.01 643.71 904.34 644.41 904.13 642.65 898.8 642.46 898.58 642.65 898.8 642.59 898.63 642.46 898.58 642.15 899.27 642.15 899.27 642.15 899.27 642.15 899.27"/>
      <polygon class="cls-12" points="638.56 897.73 638.38 897.71 642.15 899.27 642.46 898.58 638.68 897.03 638.54 897.02 638.68 897.03 638.62 897 638.54 897.02 638.56 897.73 638.56 897.73 638.56 897.73 638.56 897.73"/>
      <polygon class="cls-12" points="625.87 898.09 625.51 898.49 638.56 897.73 638.54 897.02 625.49 897.77 625.14 898.14 625.49 897.77 625.07 897.78 625.14 898.14 625.87 898.09 625.87 898.09 625.87 898.09"/>
      <polygon class="cls-12" points="625.97 899.35 626.11 899.58 626.1 899.4 626.06 899.19 626.04 899 625.99 898.84 625.98 898.65 625.93 898.44 625.88 898.28 625.87 898.09 625.14 898.14 625.14 898.37 625.17 898.6 625.23 898.77 625.24 898.96 625.29 899.13 625.34 899.33 625.42 899.54 625.43 899.73 625.61 899.98 625.43 899.73 625.49 899.9 625.61 899.98 625.97 899.35 625.97 899.35 625.97 899.35"/>
      <polygon class="cls-12" points="643.72 904.31 644.02 903.85 642.42 903.95 640.88 903.99 639.48 903.93 638.12 903.85 636.91 903.68 635.7 903.5 634.61 903.21 633.54 902.92 632.51 902.54 631.56 902.15 630.61 901.76 629.68 901.3 628.75 900.84 627.83 900.35 626.92 899.85 625.97 899.35 625.61 899.98 626.56 900.48 627.48 900.98 628.42 901.51 629.35 901.97 630.32 902.41 631.26 902.83 632.28 903.25 633.31 903.63 634.44 903.93 635.55 904.19 636.78 904.42 638.07 904.58 639.41 904.7 640.9 904.71 642.44 904.67 644.11 904.58 644.41 904.13 644.11 904.58 644.57 904.55 644.41 904.13 643.71 904.34 643.71 904.34 643.72 904.31 643.72 904.31"/>
      <g>
        <polygon class="cls-5" points="650.47 909.04 650.75 909.3 650.47 909.04 650.47 909.04"/>
        <polygon class="cls-5" points="647.99 908.94 647.93 908.95 647.93 908.95 647.99 908.94"/>
        <polygon class="cls-5" points="641.92 890.83 651.71 894.1 641.92 890.83 641.92 890.83"/>
      </g>
      <polygon class="cls-12" points="662.9 900.97 662.4 900.99 661.85 901.07 661.36 901.09 660.82 901.13 660.31 901.22 659.76 901.3 659.21 901.38 658.68 901.5 658.16 901.62 657.7 901.77 657.2 901.94 656.73 902.12 656.32 902.32 655.84 902.53 655.45 902.81 655.09 903.1 655.54 903.66 655.89 903.4 656.22 903.18 656.59 902.97 657.02 902.81 657.43 902.58 657.88 902.46 658.41 902.34 658.86 902.2 659.37 902.14 659.82 902.03 660.35 901.98 660.87 901.9 661.42 901.82 661.95 901.77 662.46 901.72 662.98 901.71 662.9 900.97 662.9 900.97 662.9 900.97 662.9 900.97"/>
      <polygon class="cls-12" points="730.14 895.94 662.9 900.97 662.98 901.71 730.21 896.72 730.14 895.94 730.14 895.94 730.14 895.94"/>
      <polygon class="cls-12" points="731.39 891.84 731.67 892.24 731.96 892.6 732.1 892.97 732.31 893.35 732.42 893.68 732.45 894.03 732.47 894.33 732.44 894.62 732.36 894.86 732.25 895.08 732.11 895.29 731.85 895.51 731.58 895.64 731.15 895.79 730.71 895.91 730.14 895.94 730.21 896.72 730.83 896.66 731.37 896.5 731.84 896.32 732.25 896.09 732.63 895.84 732.9 895.48 733.05 895.16 733.18 894.76 733.17 894.34 733.19 893.94 733.1 893.54 732.96 893.08 732.79 892.69 732.57 892.24 732.27 891.77 731.98 891.41 731.39 891.84 731.39 891.84 731.39 891.84"/>
      <polygon class="cls-12" points="723.38 888.01 723.98 887.99 724.6 888.05 725.22 888.18 725.83 888.27 726.4 888.46 726.97 888.65 727.52 888.91 728.03 889.16 728.57 889.45 729.06 889.76 729.59 890.09 729.97 890.4 730.37 890.76 730.76 891.15 731.09 891.52 731.39 891.84 731.98 891.41 731.64 890.99 731.25 890.6 730.85 890.21 730.42 889.84 729.94 889.49 729.46 889.15 728.96 888.83 728.4 888.5 727.82 888.23 727.23 887.99 726.62 887.79 725.99 887.58 725.36 887.44 724.72 887.34 723.99 887.29 723.35 887.3 723.38 888.01 723.38 888.01 723.38 888.01"/>
      <polygon class="cls-12" points="663.88 890.06 723.38 888.01 723.35 887.3 663.89 889.36 663.88 890.06 663.88 890.06 663.88 890.06"/>
      <polygon class="cls-12" points="654.49 888.57 655.05 888.79 655.64 888.92 656.21 889.11 656.81 889.23 657.43 889.37 658.02 889.52 658.66 889.62 659.23 889.7 659.82 889.83 660.43 889.88 661.04 889.97 661.63 889.98 662.2 890.06 662.81 890.04 663.35 890.07 663.88 890.06 663.89 889.36 663.33 889.36 662.79 889.32 662.27 889.3 661.69 889.26 661.11 889.21 660.52 889.16 659.95 889.09 659.35 889 658.76 888.88 658.19 888.79 657.6 888.64 657 888.55 656.42 888.39 655.8 888.22 655.28 888.09 654.71 887.9 654.48 888.6 654.48 888.6 654.49 888.57 654.49 888.57"/>
      <polygon class="cls-12" points="634.42 883.07 635.44 882.92 636.4 882.83 637.32 882.76 638.16 882.71 638.96 882.68 639.67 882.76 640.41 882.79 641.03 882.84 641.66 882.95 642.26 883.07 642.82 883.18 643.32 883.35 643.86 883.53 644.28 883.71 644.81 883.92 645.22 884.13 645.7 884.37 646.19 884.6 646.66 884.87 647.13 885.14 647.6 885.41 648.09 885.72 648.57 885.96 649.1 886.29 649.68 886.55 650.24 886.89 650.86 887.13 651.47 887.45 652.15 887.75 652.89 888 653.67 888.33 654.48 888.6 654.71 887.9 653.91 887.63 653.11 887.33 652.45 887.07 651.76 886.8 651.12 886.47 650.57 886.22 650.01 885.88 649.46 885.62 648.93 885.33 648.42 885.05 647.95 884.79 647.46 884.47 646.99 884.2 646.51 883.97 646.03 883.73 645.59 883.47 645.11 883.24 644.58 883.02 644.09 882.82 643.55 882.64 642.98 882.45 642.39 882.33 641.79 882.24 641.12 882.09 640.44 882.02 639.74 882 638.92 881.99 638.14 881.99 637.23 882.03 636.31 882.09 635.34 882.21 634.33 882.33 634.39 883.05 634.39 883.05 634.42 883.07 634.42 883.07"/>
      <polygon class="cls-12" points="623.44 887.91 624.02 887.51 624.67 887.13 625.32 886.75 625.98 886.33 626.58 885.97 627.27 885.61 627.91 885.26 628.57 884.96 629.27 884.63 629.98 884.3 630.67 884.02 631.39 883.77 632.16 883.58 632.86 883.37 633.64 883.18 634.39 883.05 634.33 882.33 633.49 882.49 632.7 882.64 631.91 882.86 631.17 883.06 630.44 883.38 629.67 883.65 628.98 883.94 628.27 884.26 627.56 884.62 626.88 884.99 626.24 885.33 625.59 885.71 624.94 886.1 624.29 886.47 623.67 886.87 623.06 887.26 623.4 887.9 623.4 887.9 623.44 887.91 623.44 887.91"/>
      <polygon class="cls-12" points="623.3 889.43 623.68 889.75 623.57 889.41 623.5 889.05 623.42 888.76 623.34 888.43 623.29 888.23 623.26 888.11 623.32 887.94 623.4 887.9 623.06 887.26 622.73 887.56 622.57 887.96 622.52 888.31 622.63 888.65 622.71 888.97 622.8 889.26 622.89 889.55 622.95 889.83 623.29 890.13 622.95 889.83 622.96 890.13 623.29 890.13 623.3 889.43 623.3 889.43 623.3 889.43"/>
      <g>
        <polygon class="cls-5" points="650.77 892.11 650.78 892.11 650.68 892.49 650.77 892.11"/>
        <polygon class="cls-13" points="650.79 892.07 650.78 892.11 650.77 892.11 650.79 892.07"/>
        <polygon class="cls-13" points="650.62 892.24 650.77 892.11 650.68 892.49 650.62 892.24"/>
        <g>
          <polygon class="cls-5" points="723.15 889.69 723.42 889.45 723.82 889.24 724.29 889.18 724.55 889.19 724.84 889.21 725.12 889.27 725.4 889.32 725.74 889.44 726.04 889.54 726.37 889.68 726.71 889.87 727 890.01 727.31 890.22 727.57 890.42 727.87 890.67 728.17 890.88 728.38 891.14 728.64 891.37 728.85 891.63 729.24 892.14 729.44 892.65 729.54 892.91 729.6 893.08 729.57 893.51 729.49 893.86 729.24 894.15 728.88 894.33 728.4 894.43 728.13 894.45 727.85 894.4 727.53 894.36 727.18 894.29 726.88 894.18 726.54 894.07 726.19 893.92 725.87 893.73 725.55 893.59 725.2 893.4 724.9 893.19 724.61 892.94 724.34 892.74 724.06 892.46 723.81 892.19 723.6 891.93 723.25 891.41 723.05 890.89 723 890.72 722.94 890.44 723.01 890.02 723.15 889.69"/>
          <polygon class="cls-5" points="658.35 892.05 658.35 892.05 658.02 892.21 658.35 892.05"/>
          <polygon class="cls-5" points="660.77 898.17 661.01 898.36 661.03 898.4 660.39 899.2 654.77 899.6 653.55 898.89 653.54 898.88 653.86 898.74 651.47 892.44 651.87 892.04 656.98 891.75 658.06 892.31 660.71 898.56 660.77 898.17"/>
          <polygon class="cls-5" points="641.59 890.16 641.59 890.16 651 893.3 641.59 890.16"/>
          <g>
            <polygon class="cls-5" points="723.15 889.69 723.42 889.45 723.82 889.24 724.29 889.18 724.55 889.19 724.84 889.21 725.12 889.27 725.4 889.32 725.74 889.44 726.04 889.54 726.37 889.68 726.71 889.87 727 890.01 727.31 890.22 727.57 890.42 727.87 890.67 728.17 890.88 728.38 891.14 728.64 891.37 728.85 891.63 729.24 892.14 729.44 892.65 729.54 892.91 729.6 893.08 729.57 893.51 729.49 893.86 729.24 894.15 728.88 894.33 728.4 894.43 728.13 894.45 727.85 894.4 727.53 894.36 727.18 894.29 726.88 894.18 726.54 894.07 726.19 893.92 725.87 893.73 725.55 893.59 725.2 893.4 724.9 893.19 724.61 892.94 724.34 892.74 724.06 892.46 723.81 892.19 723.6 891.93 723.25 891.41 723.05 890.89 723 890.72 722.94 890.44 723.01 890.02 723.15 889.69"/>
            <polygon class="cls-5" points="656.98 891.75 658.06 892.31 660.71 898.56 660.77 898.17 661.01 898.36 661.03 898.4 660.39 899.2 654.77 899.6 653.55 898.89 653.54 898.88 653.86 898.74 651.47 892.44 651.87 892.04 656.98 891.75"/>
            <polygon class="cls-5" points="641.59 890.16 641.59 890.16 651 893.3 641.59 890.16"/>
            <g>
              <polygon class="cls-5" points="723.15 889.69 723.42 889.45 723.82 889.24 724.29 889.18 724.55 889.19 724.84 889.21 725.12 889.27 725.4 889.32 725.74 889.44 726.04 889.54 726.37 889.68 726.71 889.87 727 890.01 727.31 890.22 727.57 890.42 727.87 890.67 728.17 890.88 728.38 891.14 728.64 891.37 728.85 891.63 729.24 892.14 729.44 892.65 729.54 892.91 729.6 893.08 729.57 893.51 729.49 893.86 729.24 894.15 728.88 894.33 728.4 894.43 728.13 894.45 727.85 894.4 727.53 894.36 727.18 894.29 726.88 894.18 726.54 894.07 726.19 893.92 725.87 893.73 725.55 893.59 725.2 893.4 724.9 893.19 724.61 892.94 724.34 892.74 724.06 892.46 723.81 892.19 723.6 891.93 723.25 891.41 723.05 890.89 723 890.72 722.94 890.44 723.01 890.02 723.15 889.69"/>
              <polygon class="cls-5" points="656.98 891.75 658.06 892.31 660.71 898.56 660.77 898.17 661.01 898.36 661.03 898.4 660.39 899.19 660.35 898.85 654.74 899.25 654.98 899.3 654.79 899.59 654.77 899.6 653.55 898.89 653.54 898.88 653.86 898.74 651.47 892.44 651.87 892.04 656.98 891.75"/>
              <polygon class="cls-5" points="641.59 890.16 641.59 890.16 651 893.3 641.59 890.16"/>
              <g>
                <polygon class="cls-5" points="660.91 897.17 671.56 900.72 660.91 897.17 660.91 897.17"/>
                <polygon class="cls-5" points="660.63 896.52 672.9 900.61 660.63 896.52 660.63 896.52"/>
                <polygon class="cls-5" points="723.15 889.69 723.42 889.45 723.82 889.24 724.29 889.18 724.55 889.19 724.84 889.21 725.12 889.27 725.4 889.32 725.74 889.44 726.04 889.54 726.37 889.68 726.71 889.87 727 890.01 727.31 890.22 727.57 890.42 727.87 890.67 728.17 890.88 728.38 891.14 728.64 891.37 728.85 891.63 729.24 892.14 729.44 892.65 729.54 892.91 729.6 893.08 729.57 893.51 729.49 893.86 729.24 894.15 728.88 894.33 728.4 894.43 728.13 894.45 727.85 894.4 727.53 894.36 727.18 894.29 726.88 894.18 726.54 894.07 726.19 893.92 725.87 893.73 725.55 893.59 725.2 893.4 724.9 893.19 724.61 892.94 724.34 892.74 724.06 892.46 723.81 892.19 723.6 891.93 723.25 891.41 723.05 890.89 723 890.72 722.94 890.44 723.01 890.02 723.15 889.69"/>
                <polygon class="cls-5" points="656.98 891.75 658.06 892.31 660.71 898.56 660.77 898.17 661.01 898.36 661.03 898.4 660.39 899.19 660.39 899.2 654.79 899.59 654.77 899.6 653.55 898.89 653.54 898.88 653.86 898.74 651.47 892.44 651.87 892.04 656.98 891.75"/>
                <polygon class="cls-5" points="641.59 890.16 641.59 890.16 651 893.3 641.59 890.16"/>
                <polygon class="cls-13" points="660.63 896.52 672.9 900.61 671.57 900.69 671.56 900.72 660.91 897.17 660.63 896.52"/>
                <g>
                  <polygon class="cls-5" points="723.15 889.69 723.42 889.45 723.82 889.24 724.29 889.18 724.55 889.19 724.84 889.21 725.12 889.27 725.4 889.32 725.74 889.44 726.04 889.54 726.37 889.68 726.71 889.87 727 890.01 727.31 890.22 727.57 890.42 727.87 890.67 728.17 890.88 728.38 891.14 728.64 891.37 728.85 891.63 729.24 892.14 729.44 892.65 729.54 892.91 729.6 893.08 729.57 893.51 729.49 893.86 729.24 894.15 728.88 894.33 728.4 894.43 728.13 894.45 727.85 894.4 727.53 894.36 727.18 894.29 726.88 894.18 726.54 894.07 726.19 893.92 725.87 893.73 725.55 893.59 725.2 893.4 724.9 893.19 724.61 892.94 724.34 892.74 724.06 892.46 723.81 892.19 723.6 891.93 723.25 891.41 723.05 890.89 723 890.72 722.94 890.44 723.01 890.02 723.15 889.69"/>
                  <polygon class="cls-5" points="656.98 891.75 658.06 892.31 660.62 898.35 660.23 898.86 654.74 899.25 654.98 899.3 654.79 899.59 654.77 899.6 653.55 898.89 653.54 898.88 653.86 898.74 651.47 892.44 651.87 892.04 656.98 891.75"/>
                  <polygon class="cls-5" points="660.77 898.17 661.01 898.36 661.01 898.36 660.77 898.17"/>
                  <polygon class="cls-5" points="641.59 890.16 641.59 890.16 651 893.3 641.59 890.16"/>
                  <path class="cls-13" d="M623.29,890.13l15.58-.51.33.03.3.1.4.14.37.12.33.22.25.16.14.23.11.11,6.2,18.67.09.29h.3s.31-.05.31-.05l.36.04.44.04h.41s.4.01.4.01l.37-.1.41-.12.34-.22.4-.43.33-.45.31-.38.31-.38.27-.36.26-.32.22-.34.27-.36.22-.33.26-.32.26-.33.28-.28.29-.31.34-.34.34-.34.43-.38-.23-.29.34-.27.38-.25.44-.19.4-.2.44-.19.49-.13.51-.17.49-.13.47-.07.51-.09.55-.08.51-.09.54-.04.54-.04.5-.06.49-.02,8.64-.62-10.65-3.55-.28-.65h0l12.27,4.1,57.29-4.28,1.06-.17.79-.37.55-.53.2-.6v-.67s.01-.03.01-.03l-.19-.77-.38-.76-.55-.82-.32-.37-.36-.38-.39-.39-.41-.33-.44-.37-.49-.32-.52-.32-.53-.32-.56-.22-.55-.26-.6-.2-.64-.21-.6-.09-.63-.13-.65-.07h-.64s-8.65.33-8.65.33l-50.81,1.74h-1.08s-.59,0-.59,0l-.57-.08-.58-.04-.58-.05-.57-.08-.61-.09-.6-.09-.59-.12-.59-.12-.59-.12-.62-.17-.58-.16-.55-.14-.57-.19-.81-.27-.79-.3-.69-.27-.69-.27-.61-.32-.58-.27-.6-.32-.55-.26-.53-.32-.47-.27-.5-.28-.47-.27-.5-.28-.47-.27-.45-.22-.47-.27-.48-.23-.49-.2-.47-.16-.54-.18-.57-.19-.55-.15-.6-.09-.64-.1-.65-.07-.73-.05-.77-.04-.79.03-.83.02-.93.1-.96.09-1.05.13-.78.11-.77.19-.77.19-.72.25-.76.27-.73.28-.69.29-.71.32-.67.34-.68.37,10.87,3.63-14.63.49v.7ZM722.94,890.44l.07-.43.15-.32.27-.25.4-.2.47-.07h.26s.29.03.29.03l.28.06.28.06.34.11.3.1.33.14.35.19.29.13.3.21.27.2.29.25.3.21.21.26.26.23.21.26.39.51.2.51.1.26.06.17-.03.44-.08.35-.25.29-.36.18-.48.1-.27.02-.28-.06-.33-.03-.35-.08-.3-.1-.33-.11-.36-.15-.31-.18-.33-.14-.35-.19-.3-.21-.29-.25-.27-.2-.28-.28-.25-.27-.21-.26-.35-.53-.2-.52-.06-.17-.06-.28ZM661.01,898.36h0l-.24-.19.24.19ZM651.47,892.44l.4-.4,5.11-.29,1.08.56,2.57,6.04-.4.51-5.49.39.25.05-.19.3h-.03s-1.22-.7-1.22-.7h0s.32-.16.32-.16l-2.39-6.3Z"/>
                </g>
              </g>
            </g>
          </g>
        </g>
      </g>
      <polygon class="cls-14" points="719.48 894.32 719.17 894.15 719.11 893.87 719.56 893.75 719.65 894.05 719.38 893.84 719.48 894.32 719.48 894.32 719.48 894.32"/>
      <polygon class="cls-14" points="720.09 893.97 720.02 894.06 719.91 894.17 719.77 894.24 719.64 894.3 719.48 894.32 719.38 893.84 719.45 893.87 719.55 893.79 719.67 893.75 719.68 893.72 719.66 893.79 720.07 894 720.07 894 720.09 893.97 720.09 893.97"/>
      <polygon class="cls-14" points="718.82 891.16 718.85 891.17 719.07 891.43 719.35 891.71 719.62 892.02 719.87 892.37 720.08 892.73 720.21 893.15 720.21 893.6 720.07 894 719.66 893.79 719.75 893.52 719.73 893.25 719.65 892.93 719.45 892.64 719.22 892.3 718.98 892.03 718.7 891.75 718.49 891.49 718.52 891.51 718.82 891.16 718.82 891.16 718.82 891.16"/>
      <polygon class="cls-14" points="714.7 889.97 714.67 889.96 715.26 889.97 715.82 889.97 716.35 890.07 716.85 890.13 717.37 890.26 717.85 890.5 718.35 890.78 718.82 891.16 718.52 891.51 718.06 891.2 717.62 890.94 717.21 890.73 716.76 890.62 716.27 890.53 715.76 890.47 715.25 890.45 714.72 890.46 714.74 890.43 714.66 889.99 714.66 889.99 714.7 889.97 714.7 889.97"/>
      <polygon class="cls-14" points="671.02 892.26 671.21 892.14 714.66 889.99 714.74 890.43 671.28 892.61 671.47 892.48 671.02 892.26 671.02 892.26 671.02 892.26"/>
      <polygon class="cls-14" points="669.99 893.78 669.52 893.62 669.56 893.3 669.65 893.03 669.78 892.74 669.96 892.54 670.19 892.39 670.5 892.27 670.83 892.16 671.21 892.14 671.28 892.61 670.92 892.67 670.6 892.75 670.44 892.77 670.28 892.91 670.21 893.03 670.08 893.18 670.02 893.38 670.03 893.68 669.56 893.52 669.99 893.78 669.99 893.78 669.99 893.78"/>
      <g>
        <polygon class="cls-5" points="671.22 892.15 671.28 892.61 671.22 892.15 671.22 892.15"/>
        <g>
          <polygon class="cls-5" points="670.03 893.68 670.08 893.4 670.22 893.11 670.33 892.89 670.56 892.74 670.84 892.68 671.24 892.63 671.28 892.61 714.74 890.43 715.46 890.48 716.07 890.46 716.64 890.54 717.16 890.64 717.65 890.88 718.08 891.13 718.49 891.49 718.94 892.02 719.35 892.49 719.64 892.96 719.78 893.31 719.78 893.53 719.68 893.72 719.4 893.89 718.88 894.01 718.14 894.1 673.49 896.4 673.45 896.39 672.82 896.37 672.21 896.2 671.66 895.94 671.19 895.67 670.8 895.28 670.52 894.89 670.27 894.51 670.08 894.19 670.05 893.95 670.03 893.68"/>
          <g>
            <path class="cls-5" d="M670.08,893.4l-.06.28.02.27.03.23.19.32.25.38.28.39.39.39.47.27.55.26.62.17.63.02h.03s44.65-2.29,44.65-2.29l.74-.09.53-.12.28-.17.1-.19v-.22l-.14-.35-.29-.47-.4-.47-.46-.53-.4-.36-.44-.26-.48-.23-.53-.1-.57-.08-.61.02-.73-.06-43.46,2.18-.04.02-.39.06-.28.06-.24.14-.11.22-.13.29ZM670.7,893.12l43.45-2.18.02-.07.58.04h.56l.53.1.5.05.52.14.48.23.47.27.5.39.19.21.17.17.16.2.13.16.19.21.15.24.12.19.12.19v.08s-.44.11-.44.11v.08s-.1-.23-.1-.23l-.12-.19-.17-.17-.12-.19-.13-.16-.16-.2-.17-.17-.2-.18h.01s-.4-.31-.4-.31l-.42-.29-.42-.18-.45-.11-.49-.09-.5-.05-.55-.04h-.53s-43.44,2.15-43.44,2.15l-.04-.42Z"/>
            <g>
              <path class="cls-5" d="M670.08,893.4l-.06.28.02.27.03.23.19.32.25.38.28.39.39.39.47.27.55.26.62.17.63.02h.03s44.65-2.29,44.65-2.29l.74-.09.53-.12.28-.17.1-.19v-.22l-.14-.35-.29-.47-.4-.47-.46-.53-.4-.36-.44-.26-.48-.23-.53-.1-.57-.08-.61.02-.73-.06-43.46,2.18-.04.02-.39.06-.28.06-.24.14-.11.22-.13.29Z"/>
              <g>
                <polygon class="cls-5" points="670.22 893.11 670.33 892.89 670.56 892.74 670.84 892.68 671.1 892.65 670.74 893.32 714.2 891.14 714.76 891.14 715.27 891.17 715.8 891.27 716.3 891.33 716.78 891.45 717.24 891.64 717.7 891.94 718.15 892.28 718.31 892.48 718.47 892.65 718.63 892.85 718.8 893.02 718.92 893.21 719.08 893.41 719.2 893.6 719.35 893.83 719.36 893.9 718.88 894.01 718.14 894.1 673.49 896.4 673.45 896.39 672.82 896.37 672.21 896.2 671.66 895.94 671.19 895.67 670.8 895.28 670.52 894.89 670.27 894.51 670.08 894.19 670.05 893.95 670.03 893.68 670.08 893.4 670.22 893.11"/>
                <polygon class="cls-10" points="719.2 893.6 719.08 893.41 718.92 893.21 718.8 893.02 718.63 892.85 718.47 892.65 718.31 892.48 718.15 892.28 717.7 891.94 717.24 891.64 716.78 891.45 716.3 891.33 715.8 891.27 715.27 891.17 714.76 891.14 714.2 891.14 670.74 893.32 671.1 892.65 671.24 892.63 671.28 892.61 714.74 890.43 715.46 890.48 716.07 890.46 716.64 890.54 717.16 890.64 717.65 890.88 718.08 891.13 718.49 891.49 718.94 892.02 719.35 892.49 719.64 892.96 719.78 893.31 719.78 893.53 719.68 893.72 719.4 893.89 719.36 893.9 719.35 893.83 719.2 893.6"/>
                <g>
                  <polygon class="cls-5" points="670.1 893.36 670.14 893.35 670.36 893.35 670.74 893.32 671.11 892.65 671.24 892.63 671.28 892.61 714.74 890.43 715.46 890.48 716.07 890.46 716.64 890.54 717.16 890.64 717.65 890.88 718.08 891.13 718.49 891.49 718.94 892.02 719.35 892.49 719.64 892.96 719.78 893.31 719.78 893.53 719.68 893.72 719.4 893.89 719.36 893.9 718.88 894.01 718.14 894.1 673.49 896.4 673.45 896.39 672.82 896.37 672.21 896.2 671.66 895.94 671.19 895.67 670.8 895.28 670.52 894.89 670.27 894.51 670.08 894.19 670.05 893.95 670.03 893.68 670.08 893.4 670.1 893.36"/>
                  <path class="cls-10" d="M669.52,893.62l.05.42.09.29.12.41.29.47.36.38.46.41.55.37.61.28.65.18h.79s44.64-2.26,44.64-2.26l.85-.09.6-.13.44-.3.25-.4v-.41s-.18-.51-.18-.51l-.32-.48-.45-.56-.46-.53-.49-.43-.52-.32-.51-.25-.56-.11-.67-.11h-.67l-.76.04-43.44,2.14h0s-.46.03-.46.03l-.47.18-.31.27-.21.3-.15.32-.09.38ZM670.03,893.68l.06-.28.02-.04h.04s.22,0,.22,0l.38-.02.36-.68.13-.02.04-.02,43.46-2.18.73.06.61-.02.57.08.53.1.48.23.44.26.4.36.46.53.4.47.29.47.14.35v.22l-.1.19-.28.17h-.04s-.49.12-.49.12l-.74.09-44.65,2.3h-.03s-.63-.04-.63-.04l-.62-.17-.55-.26-.47-.27-.39-.39-.28-.39-.25-.38-.19-.32-.03-.23-.02-.27Z"/>
                </g>
              </g>
            </g>
          </g>
        </g>
      </g>
    </g>
  </g>
  <g>
    
    <path class="cls-8" d="M118.53,520.53c0,.69-.31,1.35-.93,2l-.1.1-5.43,5.72c-1.15,1.21-2.14,2.15-2.95,2.81-.81.66-1.38.99-1.72.99-.35,0-.79-.16-1.31-.5-.52-.33-.86-.67-1.01-1.02-.13-.29-.25-.91-.36-1.86-.11-.95-.17-1.98-.17-3.08,0-.6.25-1.16.76-1.67.5-.51,1.06-.77,1.67-.77s.93.53,1.04,1.59c.01.12.02.21.03.27.09.81.2,1.38.33,1.7.12.32.29.48.5.48.09,0,.25-.1.49-.28.24-.19.53-.45.86-.78l5.58-5.53c.47-.47.89-.82,1.26-1.06.37-.24.68-.36.94-.36.19,0,.33.07.41.22.08.15.12.39.12.74v.29Z"/>
    
  </g>
</g></svg>