<svg version="1.1" id="RULERS_x2F_GUIDES" xmlns="http://www.w3.org/2000/svg" xmlns:xlink="http://www.w3.org/1999/xlink" x="0px" y="0px" width="1275" height="3075" viewBox="0 0 1275 3075" enable-background="new 0 0 306 738" xml:space="preserve">
<rect x="0.32" fill="#929497" width="305.36" height="738"></rect>
<rect x="9.301" y="9.176" fill="#FFFFFF" stroke="#EC1E28" width="287.398" height="719.648"></rect>

<rect x="65.882" y="41.121" fill="#D0D2D3" width="196.588" height="200.666"></rect>


<rect x="17.95" y="18.175" fill="none" stroke="#2BA6DE" stroke-dasharray="1.4416" width="270.1" height="701.649"></rect>
<rect x="278.751" y="536.002" fill="#F9A51A" width="26.943" height="54.668"></rect>

<line fill="none" stroke="#F9A51A" x1="184.947" y1="535.833" x2="305.694" y2="535.833"></line>
<line fill="none" stroke="#EC1E28" x1="202.574" y1="361.751" x2="296.713" y2="361.751"></line>
<line fill="none" stroke="#929497" x1="190.686" y1="411.334" x2="303.449" y2="411.334"></line>
<line fill="none" stroke="#2BA6DE" stroke-dasharray="1.4416" x1="198.918" y1="263.25" x2="286.734" y2="263.25"></line>
<g>
	<path fill="#EC1E28" d="M197.532,250.241c0,0.685-0.31,1.354-0.93,2.003l-0.096,0.097l-5.42,5.722
		c-1.151,1.212-2.133,2.15-2.943,2.812c-0.81,0.663-1.382,0.994-1.715,0.994c-0.351,0-0.785-0.166-1.306-0.497
		s-0.857-0.672-1.01-1.024c-0.129-0.293-0.249-0.914-0.363-1.864c-0.114-0.949-0.171-1.977-0.171-3.084
		c0-0.604,0.252-1.162,0.755-1.674s1.058-0.769,1.666-0.769c0.579,0,0.924,0.53,1.035,1.59c0.012,0.123,0.02,0.214,0.025,0.272
		c0.094,0.815,0.202,1.382,0.325,1.706c0.123,0.322,0.288,0.482,0.499,0.482c0.088,0,0.251-0.094,0.491-0.285
		c0.239-0.191,0.526-0.45,0.859-0.778l5.57-5.528c0.468-0.468,0.885-0.823,1.253-1.063c0.369-0.241,0.683-0.361,0.939-0.361
		c0.193,0,0.33,0.073,0.411,0.22c0.082,0.147,0.123,0.392,0.123,0.738V250.241z"></path>
</g>
<g>
	<path fill="#EC1E28" d="M297.781,366.432l0.263-5.056l-1.554,0.956l0.074-1.143l1.591-0.949c0.03-0.413,0.062-0.796,0.104-1.148
		c0.043-0.352,0.09-0.685,0.144-1l0.042-0.235c-0.123,0.042-0.24,0.07-0.354,0.083c-0.112,0.015-0.216,0.013-0.312-0.002
		c-0.31-0.054-0.55-0.208-0.716-0.462c-0.171-0.254-0.228-0.544-0.17-0.87c0.062-0.368,0.243-0.663,0.54-0.883
		c0.295-0.221,0.615-0.302,0.958-0.243c0.298,0.051,0.522,0.196,0.673,0.434c0.151,0.236,0.196,0.518,0.141,0.848
		c-0.028,0.158-0.104,0.387-0.235,0.688c-0.128,0.302-0.205,0.53-0.233,0.688c-0.043,0.253-0.026,0.512,0.047,0.781
		c0.074,0.267,0.209,0.552,0.411,0.85c0.389-0.155,0.728-0.368,1.016-0.646c0.286-0.274,0.517-0.606,0.689-0.995
		c0.06-0.128,0.135-0.307,0.229-0.535c0.095-0.229,0.165-0.375,0.206-0.438c0.146-0.212,0.322-0.365,0.526-0.462
		c0.203-0.097,0.419-0.125,0.649-0.085c0.297,0.051,0.525,0.202,0.683,0.452c0.158,0.251,0.208,0.545,0.151,0.881
		c-0.061,0.348-0.231,0.623-0.515,0.822c-0.284,0.201-0.598,0.271-0.946,0.21c-0.15-0.026-0.283-0.081-0.406-0.166
		c-0.121-0.084-0.231-0.202-0.331-0.353c-0.223,0.466-0.479,0.867-0.772,1.202c-0.291,0.333-0.615,0.6-0.972,0.799
		c-0.129,1.269-0.218,2.136-0.273,2.604c-0.053,0.467-0.098,0.81-0.135,1.024c-0.092,0.541-0.236,0.996-0.43,1.367
		C298.369,365.823,298.108,366.149,297.781,366.432z M297.836,357.545c0.237,0.042,0.454-0.015,0.65-0.168
		c0.199-0.153,0.32-0.362,0.367-0.627c0.04-0.229,0.007-0.429-0.097-0.6c-0.103-0.169-0.253-0.271-0.45-0.305
		c-0.245-0.042-0.473,0.015-0.684,0.175c-0.21,0.158-0.339,0.371-0.385,0.635c-0.038,0.221-0.001,0.416,0.11,0.584
		C297.459,357.405,297.62,357.509,297.836,357.545z M301.982,358.601c0.249,0.043,0.47-0.005,0.664-0.146
		c0.192-0.141,0.312-0.339,0.355-0.595c0.038-0.222,0.007-0.414-0.096-0.578c-0.101-0.16-0.253-0.258-0.451-0.292
		c-0.228-0.041-0.447,0.024-0.652,0.191c-0.207,0.167-0.332,0.383-0.378,0.647c-0.034,0.203-0.003,0.374,0.097,0.512
		C301.623,358.479,301.777,358.565,301.982,358.601z"></path>
</g>
<g>
	<path fill="#EC1E28" d="M201.857,347.909c0,0.685-0.31,1.353-0.93,2.003l-0.098,0.096l-5.42,5.722
		c-1.152,1.212-2.133,2.15-2.942,2.812s-1.381,0.993-1.714,0.993c-0.351,0-0.787-0.166-1.308-0.497
		c-0.521-0.331-0.856-0.672-1.008-1.024c-0.129-0.293-0.251-0.914-0.364-1.863c-0.114-0.949-0.172-1.977-0.172-3.085
		c0-0.603,0.251-1.161,0.754-1.674s1.059-0.769,1.667-0.769c0.579,0,0.924,0.53,1.035,1.59c0.012,0.124,0.021,0.214,0.026,0.273
		c0.094,0.814,0.201,1.383,0.324,1.705c0.123,0.323,0.29,0.484,0.501,0.484c0.087,0,0.251-0.096,0.491-0.286
		c0.239-0.191,0.525-0.45,0.859-0.778l5.568-5.528c0.468-0.469,0.887-0.823,1.255-1.063c0.368-0.24,0.681-0.36,0.938-0.36
		c0.193,0,0.331,0.073,0.413,0.22c0.082,0.146,0.123,0.392,0.123,0.738V347.909z"></path>
</g>
<g>
	<path fill="#EC1E28" d="M188.552,398.574c0,0.686-0.311,1.354-0.93,2.004l-0.096,0.099l-5.421,5.721
		c-1.151,1.212-2.133,2.15-2.942,2.812c-0.811,0.661-1.382,0.993-1.716,0.993c-0.351,0-0.785-0.166-1.306-0.497
		s-0.857-0.672-1.01-1.023c-0.129-0.294-0.249-0.915-0.363-1.865c-0.114-0.948-0.171-1.976-0.171-3.082
		c0-0.604,0.252-1.162,0.755-1.675s1.058-0.771,1.666-0.771c0.579,0,0.924,0.53,1.035,1.592c0.012,0.122,0.02,0.214,0.025,0.272
		c0.094,0.814,0.203,1.383,0.325,1.705c0.123,0.321,0.289,0.482,0.499,0.482c0.088,0,0.252-0.094,0.491-0.285
		c0.24-0.19,0.526-0.449,0.859-0.776l5.57-5.53c0.468-0.469,0.886-0.821,1.254-1.062c0.368-0.24,0.682-0.361,0.939-0.361
		c0.192,0,0.329,0.074,0.411,0.221s0.123,0.394,0.123,0.738V398.574z"></path>
</g>
<g>
	<path fill="#EC1E28" d="M184.229,522.908c0,0.686-0.311,1.354-0.93,2.004l-0.098,0.096l-5.42,5.723
		c-1.152,1.212-2.133,2.15-2.942,2.812s-1.381,0.991-1.715,0.991c-0.351,0-0.787-0.164-1.308-0.494
		c-0.52-0.332-0.855-0.673-1.007-1.024c-0.129-0.293-0.251-0.913-0.365-1.863s-0.171-1.979-0.171-3.086
		c0-0.604,0.251-1.161,0.754-1.675c0.503-0.511,1.059-0.769,1.666-0.769c0.579,0,0.924,0.531,1.035,1.593
		c0.012,0.121,0.021,0.212,0.027,0.271c0.094,0.814,0.201,1.383,0.323,1.704c0.123,0.323,0.291,0.485,0.501,0.485
		c0.088,0,0.252-0.097,0.492-0.285c0.239-0.192,0.525-0.451,0.858-0.778l5.569-5.528c0.468-0.47,0.887-0.824,1.255-1.063
		c0.368-0.241,0.681-0.361,0.938-0.361c0.193,0,0.331,0.072,0.413,0.221c0.082,0.146,0.123,0.392,0.123,0.736V522.908z"></path>
</g>
<g>
	<path fill="#EC1E28" d="M166.597,609.909c0,0.686-0.31,1.353-0.929,2.003l-0.096,0.098l-5.421,5.721
		c-1.151,1.213-2.133,2.151-2.942,2.812c-0.811,0.664-1.382,0.994-1.716,0.994c-0.351,0-0.785-0.165-1.306-0.496
		c-0.521-0.33-0.857-0.673-1.009-1.023c-0.129-0.294-0.25-0.914-0.364-1.863c-0.114-0.95-0.171-1.978-0.171-3.085
		c0-0.604,0.251-1.162,0.754-1.674c0.503-0.513,1.059-0.769,1.667-0.769c0.579,0,0.924,0.528,1.035,1.59
		c0.012,0.122,0.02,0.214,0.025,0.272c0.094,0.815,0.203,1.383,0.325,1.705c0.123,0.323,0.289,0.482,0.499,0.482
		c0.088,0,0.252-0.095,0.491-0.284c0.24-0.191,0.526-0.45,0.859-0.777l5.57-5.53c0.468-0.468,0.886-0.822,1.254-1.062
		c0.368-0.24,0.682-0.361,0.939-0.361c0.192,0,0.329,0.074,0.411,0.222c0.082,0.146,0.122,0.391,0.122,0.736V609.909z"></path>
</g>
<g>
	<ellipse fill-rule="evenodd" clip-rule="evenodd" cx="167.23" cy="116.254" rx="62.017" ry="62.146"></ellipse>
	<ellipse fill-rule="evenodd" clip-rule="evenodd" fill="#B7D333" cx="167.273" cy="116.598" rx="56.379" ry="56.497"></ellipse>
	<g>
		<path d="M155.202,104.277c-0.782,6.925-1.365,12.487-1.751,16.686l-2.572,0.113c0.037-0.14,0.056-0.296,0.061-0.471
			c0.005-0.314-0.111-0.729-0.347-1.243c-0.236-0.511-0.37-0.838-0.403-0.977c-0.666,0.092-1.303,0.557-1.911,1.384
			c-0.608,0.831-1.159,1.244-1.646,1.237c-0.282-0.005-0.595-0.084-0.941-0.227c-0.459,0.307-1.055,0.435-1.789,0.389
			c-0.663-0.116-1.308-0.215-1.937-0.297c-0.02-0.874-0.881-1.642-2.583-2.303c0.006-0.35-0.168-0.871-0.525-1.558
			c-0.354-0.692-0.53-1.174-0.525-1.455c0.004-0.317,0.132-0.576,0.381-0.782c-0.035-0.106-0.322-0.758-0.86-1.96
			c-0.369-0.88-0.548-1.639-0.538-2.268c0.008-0.49,0.121-0.945,0.338-1.361c-0.299-2.984-0.431-5.542-0.394-7.679
			c0.055-3.294,0.525-6.316,1.412-9.071c-0.063-0.421-0.092-0.841-0.084-1.261c0.037-2.208,0.798-3.734,2.279-4.586l0.013-0.683
			c1.465-1.868,3.393-3.219,5.786-4.054c1.428,0.339,2.855,0.663,4.284,0.967c1.599,0.552,2.703,1.5,3.309,2.842
			c0.483,0.289,0.72,0.872,0.704,1.745c-0.015,0.982,0.095,1.615,0.336,1.899l-0.268,0.311c0.279,2.072,0.416,3.336,0.407,3.79
			c-0.022,1.332-0.373,2.272-1.044,2.82c-0.245-0.004-0.889-0.225-1.929-0.662c-0.249,0.239-0.514,0.359-0.793,0.354
			c-0.14-0.002-0.393-0.077-0.757-0.224c-0.363-0.146-0.67-0.221-0.914-0.225c-0.176-0.003-0.351,0.029-0.526,0.095
			c-0.021-2.767,0.065-4.833,0.262-6.198c-0.277-0.179-0.558-0.588-0.843-1.222c-0.289-0.635-0.659-0.993-1.11-1.069
			c-0.285,0.345-0.412,0.57-0.379,0.676l-0.938-0.332c-0.855,0.932-1.424,2.552-1.708,4.858c-0.291,2.657-0.652,4.421-1.085,5.289
			c0.376,0.394,0.561,0.939,0.548,1.639c-0.004,0.247-0.046,0.65-0.126,1.207c-0.08,0.561-0.12,0.981-0.124,1.261
			c-0.007,0.315,0.021,0.596,0.089,0.843l-0.639,0.618c0.259,1.196,0.409,2.706,0.448,4.528c-0.025,1.542-0.036,3.083-0.025,4.624
			c-0.037,0-0.334,0.013-0.894,0.037c-0.349-0.005-0.598,0.114-0.741,0.357c0.211-0.032,0.403-0.047,0.577-0.043
			c0.77,0.012,1.374,0.557,1.81,1.633c0.436,1.079,0.811,1.619,1.125,1.625c0.349,0.004,0.827-0.319,1.435-0.977
			c1.03-1.103,1.564-2.619,1.597-4.543c0.017-0.948-0.09-1.964-0.316-3.054c-0.249,0.136-0.375,0.484-0.385,1.042
			c-0.56-0.01-0.911,0.109-1.056,0.35c-0.242-0.074-0.346-0.267-0.305-0.583c0.042-0.454,0.064-0.699,0.065-0.734
			c0.422-0.133,0.633-0.322,0.639-0.567c0.002-0.105-0.073-0.299-0.225-0.582c-0.153-0.282-0.227-0.511-0.224-0.687
			c0.001-0.14,0.039-0.279,0.111-0.42l0.245-2.044c0.766,0.225,2.424,0.321,4.978,0.295c-0.074,0.174,0.028,0.405,0.304,0.688
			c0.248-0.241,0.511-0.359,0.792-0.354c0.209,0.005,0.523,0.098,0.939,0.28C154.731,104.185,155.025,104.276,155.202,104.277z"></path>
		<path d="M174.773,122.376c-0.487-0.219-1.01-0.333-1.568-0.342c-0.489-0.007-1.157,0.085-1.998,0.282
			c-0.947,0.193-1.597,0.304-1.946,0.335c-0.373-0.742-0.634-1.765-0.786-3.064c-0.283-1.896-0.458-2.967-0.522-3.213
			c0.107-0.21,0.164-0.383,0.165-0.523c0.008-0.387-0.294-0.731-0.899-1.04c-0.61-0.309-0.909-0.55-0.906-0.726
			c0.002-0.208,0.358-0.519,1.065-0.929c-0.172-0.212-0.299-0.643-0.373-1.291c-0.076-0.649-0.235-1.083-0.475-1.298
			c-0.427,0.38-1.12,0.622-2.084,0.728c-0.965,0.107-1.604,0.262-1.922,0.466c0.021,2.733-0.428,4.566-1.354,5.496
			c-0.487-0.114-0.858,0.072-1.11,0.561c-0.361,0.588-0.663,0.935-0.911,1.034l0.309,0.373c-0.283,0.239-0.74,0.338-1.365,0.292
			c-0.98-0.053-1.504-0.078-1.574-0.079l-0.297-0.952l3.415-28.376c0.031-1.786,0.122-2.994,0.272-3.622
			c-0.045-1.579,0.322-2.553,1.097-2.924c0.485,0.322,1.096,0.492,1.829,0.503c0.593,0.009,1.523-0.114,2.785-0.373
			c1.264-0.258,2.141-0.384,2.631-0.376c1.71,0.029,2.458,1.268,2.243,3.718c-0.173,1.958,0.132,4.539,0.917,7.743
			c0.815,3.447,1.21,6.027,1.182,7.745c-0.009,0.525,0.162,1.613,0.119,2.139c-0.742,0.406-1.688,0.653-2.844,0.737
			c-1.015,0.055-2.048,0.107-3.098,0.159c-0.27-2.666-0.738-5.881-1.01-8.514c-0.33-3.158-0.74-5.757-1.23-7.798l-1.617,15.004
			c-0.128,1.293,0.457,1.952,1.75,1.976c0.42,0.006,0.82-0.094,1.21-0.296c0.316-0.1,0.752,0.136,1.3,0.705
			c-0.02,1.086,0.197,1.738,0.649,1.957c0.566-0.377,1.306-0.731,2.22-1.067c0.809-0.301,1.602-0.585,2.375-0.853
			c0.442,0.604,0.727,1.502,0.848,2.696c0.146,1.683,0.25,2.667,0.316,2.947c0.058,0.668,0.33,2.109,0.816,4.325
			c0.356,1.757,0.523,3.18,0.507,4.266C174.895,121.433,174.85,121.921,174.773,122.376z"></path>
		<path d="M198.922,97.35c-0.04,0.105-0.048,0.717-0.032,1.838c-0.016,0.911-0.132,1.593-0.349,2.046
			c-0.258,0.696-0.396,1.691-0.418,2.987c-0.006,0.282,0.004,0.719,0.031,1.316c-0.013,0.595-0.018,1.032-0.023,1.312
			c-0.037,2.208-0.413,3.811-1.133,4.816c0.062,0.563,0.088,1.124,0.079,1.683c-0.029,1.752-0.629,4.107-1.798,7.064
			c-0.317,0.102-0.581,0.149-0.791,0.146c-0.419-0.008-0.721-0.25-0.904-0.726c-0.187-0.477-0.361-0.925-0.527-1.351
			c0.114-2.694,0.059-6.62-0.169-11.775l0.32-0.31c-0.23-0.915-0.335-1.932-0.316-3.052c0.015-0.806,0.114-1.978,0.297-3.516
			c0.184-1.538,0.281-2.693,0.294-3.465c0.011-0.49-0.002-0.964-0.026-1.418c-1.203,2.889-2.058,7.778-2.558,14.671l-0.438,1.043
			c-0.146,0.349-0.446,0.537-0.9,0.564c-0.137-0.246-0.274-0.373-0.413-0.375c-0.105-0.002-0.291,0.127-0.557,0.385
			c-0.268,0.256-0.487,0.367-0.661,0.329l-0.694,0.619c0.309,0.393,0.971,0.437,1.992,0.14c0.806-0.231,1.221,0.073,1.242,0.915
			c0.021,0.701-0.169,1.644-0.572,2.829c-0.405,1.183-0.612,2.074-0.621,2.669c-0.008,0.42,0.038,0.842,0.135,1.263l-3.63,0.57
			c-0.337-0.708-0.587-1.893-0.752-3.561c-0.162-1.668-0.414-2.855-0.752-3.561c0.214-0.239,0.322-0.5,0.327-0.781
			c0.004-0.246-0.093-0.615-0.295-1.109c-0.201-0.494-0.318-0.864-0.35-1.11c-0.029-0.385-0.151-1.317-0.371-2.792
			c-0.155-1.193-0.228-2.125-0.216-2.789c0.006-0.351,0.03-0.665,0.07-0.944c0.004-0.246-0.133-0.605-0.402-1.086
			c-0.271-0.478-0.405-0.821-0.4-1.033c0.003-0.174,0.074-0.33,0.217-0.466c-0.241-0.287-0.337-0.778-0.29-1.479
			c0.047-0.699-0.052-1.191-0.289-1.475c-0.515,1.357-0.789,3.191-0.829,5.505c-0.018,3.223-0.052,5.081-0.094,5.568l0.362,0.322
			l-0.373,0.309c0.258,1.266,0.372,2.88,0.338,4.841c-0.095,3.538-0.14,5.184-0.136,4.939c-0.498,0.446-1.185,0.662-2.057,0.648
			c-1.083-0.019-1.82,0.076-2.206,0.277c-0.444-0.778-0.655-1.779-0.632-3.006c0.014-0.945,0.176-2.098,0.479-3.461
			c-0.477-0.884-0.699-2.115-0.673-3.691c0.008-0.386,0.053-1.12,0.142-2.205c0.05-0.874,0.062-1.523,0.034-1.944
			c0.352-0.168,0.53-0.357,0.533-0.568c0.003-0.141-0.106-0.378-0.329-0.716c-0.222-0.335-0.331-0.592-0.329-0.767
			c0.004-0.21,0.148-0.418,0.432-0.625l-1.13-16.996c0.673-0.442,1.762-0.653,3.265-0.626c1.642,0.064,2.763-0.022,3.361-0.257
			c0.106-0.07,0.229-0.103,0.369-0.101c0.14,0.002,0.304,0.084,0.493,0.245c0.19,0.161,0.319,0.241,0.388,0.243
			c0.14,0.003,0.265-0.1,0.374-0.309l0.979,0.963c0.328,1.232,0.638,3.62,0.928,7.162c0.298,3.053,0.765,5.358,1.405,6.91
			c0.856-3.103,1.563-5.703,2.125-7.795l1.138-8.317l8.13-0.176c0.029,0.456,0.128,2.89,0.35,4.296
			c0.187,1.229,0.276,2.229,0.262,2.999c-0.014,0.877-0.149,1.663-0.407,2.358c0.274,0.392,0.404,0.883,0.395,1.478
			C199.355,96.482,199.207,96.968,198.922,97.35z"></path>
		<path d="M215.601,115.766l0.003-0.052c-0.218,0.452-0.351,0.976-0.395,1.569c-0.041,0.383-0.052,0.928-0.028,1.627
			c0.021,0.807,0.029,1.37,0.025,1.684c-0.281-0.004-1.398-0.024-3.356-0.057c-1.188-0.021-2.257,0.083-3.205,0.312l-0.978-1.067
			c-0.286,0.273-0.395,0.501-0.327,0.678c-0.174-0.042-0.979-0.053-2.411-0.043c-1.119-0.018-1.956-0.138-2.51-0.358
			c-0.571,0.588-1.237,0.576-1.995-0.032c-0.277-0.213-0.303-0.576-0.087-1.08c0.218-0.504,0.155-0.881-0.19-1.132
			c0.053-1.119,0.207-2.852,0.457-5.196c0.245-2.096,0.377-3.743,0.396-4.934c0.027-1.609-0.085-3.153-0.339-4.628
			c0.392-0.38,0.828-0.565,1.318-0.557c0.562,0.009,1.22,0.285,1.979,0.822c1.068,0.754,1.626,1.131,1.66,1.132l0.307,0.373
			c0.037-0.103,0.222-0.661,0.553-1.672c0.188-0.661,0.457-1.095,0.811-1.3l0.31,0.322c0.14-0.068,0.601-0.393,1.38-0.975
			c0.599-0.411,1.09-1.383,1.438-1.376c0.387,0.006,0.748,0.223,1.093,0.65c0.588,0.325,0.958,1.583,1.142,2.234
			c0.18,0.65,0.354,1.292,0.519,1.927c-1.575,0.044-2.868,0.002-3.88-0.119c-0.253,0.381-0.603,0.436-1.052,0.167
			c-0.449-0.271-0.781-0.232-0.998,0.114c-0.012,0.632-0.032,1.77-0.059,3.414c-0.062,1.471-0.079,2.627-0.058,3.47
			c0.012,1.296,0.098,2.489,0.254,3.578c0.277,0.004,1.606,0.027,3.982,0.067C213.003,115.354,214.417,115.499,215.601,115.766z
			 M215.713,90.592c-0.314,0.029-0.663,0.041-1.049,0.035c-0.803-0.015-1.869-0.138-3.192-0.37
			c-1.641-0.239-2.636-0.377-2.984-0.418c-0.5,0.725-0.762,1.756-0.786,3.087c-0.048,2.871-0.05,4.115-0.01,3.731
			c0.483,0.288,0.721,0.818,0.707,1.588c-0.053,1.051-0.062,1.594-0.028,1.628c-0.246,0.102-0.374,0.45-0.383,1.046
			c-0.385-0.147-0.78-0.434-1.192-0.861c-0.55-0.537-0.844,1.279-0.802,0.825l-0.331,1.079l-0.311-0.322
			c-0.282,0.03-0.76-0.118-1.435-0.444c-0.678-0.326-1.152-0.631-1.426-0.919c0.009-0.56,0.103-0.874,0.277-0.94l-0.669-0.746
			l-0.323,0.467c-0.392-3.65-0.293-10.477,0.188-14.324c1.327,0.233,2.793,0.382,4.4,0.443c1.082,0.052,2.603,0.078,4.561,0.077
			c2.238,0.003,3.848,0.012,4.825,0.028c0.411,0.396,0.615,0.906,0.604,1.534c-0.006,0.389-0.113,1.006-0.321,1.862
			C215.828,89.535,215.721,90.171,215.713,90.592z"></path>
	</g>
	<g>
		<path d="M156.778,147.539v-0.025c0,0.017-0.091,0.789-0.271,2.316c-0.091,0.939-0.315,1.677-0.677,2.215l-0.229-0.186
			c-0.425,0.892-1.002,1.434-1.735,1.627c-0.35,0.37-0.856,0.574-1.516,0.612c-0.392,0.024-1.297-0.091-2.718-0.341
			c-0.686-0.427-1.061-0.663-1.126-0.709c-0.432-0.324-0.637-0.655-0.615-0.989c-0.417-0.427-1.004-1.188-1.224-2.141
			c-0.268-1.052-0.43-1.111-0.678-1.48c-0.397,0.292-0.539-0.329-0.767-0.7l0.208-0.162c-0.129-0.094-0.197-0.196-0.205-0.314
			c-0.004-0.082,0.03-0.205,0.104-0.368c0.074-0.162,0.108-0.286,0.102-0.368c-0.007-0.132-0.086-0.246-0.236-0.337
			c0.159-0.826,0.304-2.067,0.435-3.725c0.282-0.15,0.414-0.442,0.401-0.875c-0.016-0.431,0.043-0.719,0.181-0.861
			c0.667-1.339,1.752-2.243,3.254-2.714c0.083,0.012,0.486,0.005,1.208-0.02c0.496-0.013,0.87,0.032,1.124,0.133
			c0.45-0.076,0.902,0.031,1.352,0.323c0.391,0.294,0.78,0.587,1.168,0.882c0.728,0.792,1.121,1.685,1.18,2.683
			c0.02,0.332-0.004,0.683-0.063,1.053c-0.538-0.019-0.922,0.337-1.148,1.068l-2.096,0.195c-0.225-0.318-0.354-0.746-0.385-1.277
			c-0.011-0.183-0.01-0.45,0-0.8c0.011-0.352,0.012-0.618,0.001-0.8c-0.032-0.548-0.161-0.983-0.386-1.303l-0.63,0.359
			c-0.254-0.101-0.386-0.251-0.397-0.451c-0.004-0.066,0.006-0.163,0.03-0.289c0.023-0.127,0.034-0.214,0.03-0.265
			c-0.013-0.214-0.206-0.346-0.581-0.393c-0.255,2.366-0.332,4.797-0.228,7.291c0.065,0.08,0.266,0.135,0.598,0.166
			c0.27,0.034,0.41,0.119,0.417,0.251c0.004,0.051-0.012,0.117-0.05,0.202l-0.208,0.162c0.113,0.177,0.18,0.425,0.199,0.739
			c0.009,0.166,0.003,0.422-0.019,0.764c-0.021,0.343-0.027,0.598-0.018,0.764c0.03,0.498,0.154,0.875,0.377,1.129
			c-0.022,0.367,0.128,0.617,0.445,0.75c0.203-0.08,0.386-0.123,0.551-0.133c0.638-0.037,1.083,0.311,1.331,1.049
			c0.001,0.016-0.002,0.14-0.008,0.374c0.007,0.134,0.074,0.22,0.201,0.262c0.28-0.165,0.418-0.466,0.413-0.898
			c-0.008-0.5,0.057-0.82,0.193-0.962c-0.035-0.231-0.172-0.564-0.415-1c-0.243-0.437-0.371-0.779-0.386-1.028
			c-0.014-0.266,0.064-0.521,0.235-0.764c-0.146-0.042-0.213-0.138-0.202-0.288c0.007-0.235,0.01-0.359,0.01-0.377
			C154.447,147.283,155.605,147.274,156.778,147.539z"></path>
		<path d="M166.268,149.491l-0.026,0.001c-0.121,0.239-0.158,0.585-0.115,1.03c0.056,0.634,0.086,0.956,0.087,0.972
			c-0.095,0.036-0.224-0.011-0.384-0.14c-0.244,0.091-0.36,0.245-0.348,0.462c0.001,0.03,0.015,0.084,0.037,0.161
			c0.005,0.091,0.01,0.155,0.012,0.186c0.009,0.169-0.041,0.297-0.151,0.381c-0.278-0.155-0.645-0.253-1.098-0.296
			c-0.455-0.045-0.887-0.085-1.292-0.123c-0.007-2.109-0.29-4.171-0.848-6.185c0,0.016-0.012-0.191-0.037-0.626
			c0.001-0.31-0.069-0.53-0.211-0.662l-0.192,0.174c-0.003-0.031,0.062-0.092,0.191-0.186c0.129-0.092,0.191-0.186,0.187-0.278
			c-0.004-0.046-0.017-0.092-0.037-0.137l-0.212-0.152c-0.357,0.115-0.523,0.404-0.497,0.867c0.02,0.309-0.105,0.527-0.364,0.65
			c0.099,0.07,0.151,0.161,0.158,0.269c0.005,0.062-0.005,0.148-0.028,0.257c-0.023,0.11-0.033,0.197-0.029,0.258
			c0.009,0.138,0.083,0.25,0.222,0.336c0.007,0.093,0.054,0.926,0.145,2.503c0.06,1.005,0.031,1.859-0.079,2.561l0.021,0.396
			c-0.136-0.007-0.29-0.006-0.461,0.003c-0.191,0.012-0.47,0.039-0.832,0.083c-0.362,0.045-0.63,0.074-0.803,0.083
			c-0.708,0.04-1.205-0.079-1.492-0.356l-0.299-8.656c-0.139-0.425-0.23-1.017-0.275-1.775l-0.096-1.668
			c-0.067-0.818-0.171-1.447-0.312-1.888c0.059-0.299,0.32-0.461,0.779-0.486c0.286-0.018,0.673,0.021,1.159,0.117
			c0.226-0.106,0.539-0.17,0.942-0.194c0.114-0.007,0.296-0.01,0.546-0.008c0.27-0.016,0.461-0.027,0.575-0.034
			c0.747-0.044,1.243-0.273,1.489-0.692c0.347-0.003,0.722,0.105,1.129,0.33s0.766,0.344,1.073,0.356
			c0.815,0.48,1.255,1.276,1.321,2.388c0.013,0.248-0.083,1.229-0.29,2.947l-1.401,1.223c0.237,0.437,0.524,1.388,0.859,2.856
			C165.271,148.021,165.696,148.918,166.268,149.491z M163.681,139.641l0.028,0.021c0.026,0.106,0.014-0.272-0.037-1.138
			c-0.024-0.417-0.176-0.717-0.456-0.904c-0.159,0.227,0.021,0.333-0.055,0.857c-0.075,0.522-0.383,0.376-0.563,0.604
			c-0.481-0.003-0.592,0.289-0.693-0.17c-0.217-0.749-0.402-0.682-0.403-0.696l-0.205,0.124c-0.072,0.066-0.156,0.142-0.247,0.223
			c-0.091,0.084-0.184,0.112-0.282,0.086c0.007,0.094-0.039,0.239-0.133,0.44c-0.096,0.2-0.141,0.336-0.135,0.414
			c0.01,0.14,0.118,0.24,0.334,0.306c-0.038,0.313-0.048,0.64-0.029,0.979c0.011,0.185,0.055,0.609,0.133,1.271
			c0.086,0.523,0.121,0.97,0.104,1.343c0.175,0.006,0.338,0.005,0.491-0.005c0.673-0.039,1.108-0.305,1.31-0.797
			c0.067-0.143,0.146-0.66,0.229-1.549C163.145,140.377,163.348,139.908,163.681,139.641z"></path>
		<path d="M177.156,152.852c-0.274-0.078-0.565-0.108-0.872-0.089c-0.268,0.015-0.629,0.082-1.083,0.202
			c-0.514,0.123-0.864,0.197-1.056,0.224c-0.229-0.312-0.409-0.75-0.536-1.316c-0.223-0.825-0.356-1.29-0.399-1.397
			c0.054-0.097,0.075-0.175,0.072-0.237c-0.01-0.169-0.188-0.31-0.529-0.421c-0.344-0.112-0.517-0.208-0.521-0.286
			c-0.005-0.091,0.177-0.242,0.551-0.449c-0.102-0.088-0.184-0.272-0.247-0.556c-0.065-0.283-0.167-0.467-0.308-0.553
			c-0.22,0.185-0.591,0.319-1.116,0.403c-0.523,0.084-0.869,0.178-1.037,0.282c0.109,1.203,0,3.315-0.474,3.762
			c-0.271-0.032-0.466,0.064-0.588,0.289c-0.177,0.273-0.331,0.439-0.462,0.493l0.181,0.151c-0.147,0.117-0.394,0.179-0.738,0.183
			c-0.538,0.017-0.825,0.025-0.863,0.028l-0.197-0.409l0.809-13.921c-0.045-0.787-0.038-1.322,0.022-1.604
			c-0.08-0.693,0.088-1.137,0.499-1.332c0.277,0.124,0.615,0.172,1.019,0.149c0.324-0.019,0.831-0.109,1.512-0.273
			c0.683-0.163,1.159-0.254,1.427-0.27c0.939-0.055,1.393,0.462,1.359,1.549c-0.027,0.871,0.23,1.994,0.773,3.375
			c0.565,1.486,0.87,2.608,0.915,3.365c0.013,0.232,0.32,0.724,0.315,0.956c-0.394,0.209-0.904,0.355-1.534,0.439
			c-0.553,0.062-1.114,0.128-1.69,0.191c-0.238-1.166-0.782-2.581-1.022-3.729c-0.29-1.377-0.607-2.506-0.945-3.387l-0.364,6.673
			c-0.023,0.574,0.318,0.841,1.027,0.799c0.23-0.012,0.447-0.072,0.654-0.177c0.17-0.056,0.414,0.032,0.735,0.26
			c0.027,0.479,0.168,0.758,0.424,0.834c0.296-0.186,0.688-0.372,1.179-0.557c0.433-0.164,0.856-0.32,1.271-0.468
			c0.263,0.248,0.447,0.633,0.558,1.154c0.137,0.735,0.229,1.164,0.275,1.285c0.055,0.291,0.254,0.916,0.598,1.873
			c0.257,0.76,0.398,1.379,0.426,1.858C177.188,152.43,177.182,152.647,177.156,152.852z"></path>
		<path d="M185.094,137.062l0.029-0.001c-0.23,0.339-0.523,0.403-0.884,0.191c-0.076-0.013-0.421,0.009-1.034,0.059
			c-0.518,0.031-0.893,0.006-1.129-0.074c-0.056,0.005-0.171,0.062-0.338,0.171c-0.165,0.111-0.286,0.169-0.364,0.173
			c-0.113,0.006-0.179-0.09-0.188-0.292c-0.002-0.031-0.01-0.162-0.024-0.394c-0.009-0.154-0.082-0.259-0.22-0.313l-0.357,0.276
			c-0.112,0.084-0.164,0.172-0.158,0.266c0.004,0.077,0.069,0.185,0.193,0.325c0.121,0.142,0.193,0.241,0.217,0.301
			c0.005,0.046,0.044,0.743,0.121,2.087c0.03,0.852,0.187,1.531,0.466,2.042c0.071-0.081,0.245-0.125,0.525-0.134
			c0.277-0.008,0.462-0.071,0.552-0.183c0.182,0.16,0.485,0.168,0.91,0.028s0.73-0.093,0.918,0.144l-0.056,2.05
			c-0.175-0.02-0.43-0.105-0.766-0.257c-0.097,0.3-0.288,0.489-0.571,0.568c-0.114,0.039-0.439,0.071-0.976,0.104
			c0.015-0.095-0.067-0.189-0.248-0.288c-0.522,0.248-0.719,0.84-0.588,1.778c0.013-0.093,0.032,0.068,0.057,0.486
			c0.015,0.262-0.041,0.451-0.169,0.566c-0.324,0.05-0.737-0.023-1.238-0.217c-0.501-0.196-0.858-0.289-1.069-0.275
			c-0.096,0.005-0.183,0.018-0.258,0.038l-0.537,0.17l-0.861-9.368l-0.103-1.782c0.716-0.243,1.602-0.397,2.656-0.458
			c0.824-0.046,1.901-0.041,3.231,0.022c0.086-0.175,0.243,0.053,0.436,0.042c0.096-0.005,0.24,0.004,0.434,0.033
			c0.193,0.026,0.34,0.039,0.436,0.033c0.116-0.009,0.22-0.028,0.312-0.065l0.137-0.147c0.391,0.116,0.596,0.322,0.611,0.615
			c0.008,0.125-0.029,0.335-0.108,0.637c-0.078,0.297-0.112,0.524-0.104,0.679C184.994,136.836,185.031,136.958,185.094,137.062z
			 M181.731,152.692c-0.205,0.107-0.521,0.169-0.941,0.195c-0.556,0.032-0.89,0.06-1.004,0.082c-0.062-0.059-0.135-0.011-0.26-0.5
			c-0.077-0.32-0.278-0.473-0.603-0.452c-0.079,0.005-0.171,0.017-0.287,0.04l-0.517,0.029l-0.276-4.741
			c0.282-0.14,0.632-0.223,1.054-0.247c0.403-0.024,0.762,0.018,1.074,0.124c-0.009,0.171,0.236,0.243,0.733,0.213l0.547-0.033
			C181.577,148.733,181.775,151.141,181.731,152.692z"></path>
		<path d="M196.591,137.467l0.029,0.022c-0.271-0.015-1.139,0.042-1.808,0.127c-0.572,0.065-1.004,0.075-1.295,0.03
			c-0.278,0.186-0.378,0.44-0.303,0.762l0.179,0.106c-0.146,0.132-0.197,0.235-0.154,0.312l0.154,0.153
			c-0.034,2.748-0.042,4.266-0.025,4.562c0.042,0.724,0.128,1.363,0.255,1.915c-0.115,0.349-0.159,0.746-0.131,1.193
			c0.016,0.294,0.086,0.759,0.209,1.394c0.124,0.637,0.287,2.726,0.308,3.051c0.014,0.246,0.009,0.48-0.018,0.698
			c-0.265,0.11-0.548,0.172-0.855,0.19c-0.516,0.029-1.072-0.077-1.663-0.321c-0.072,0.065-0.154,0.136-0.245,0.211
			c-0.092,0.075-0.117,0.157-0.072,0.247c-0.19,0.058-0.455-0.02-0.793-0.231c-0.182-2.783-0.678-8.448-1.414-14.173
			c-0.258,0.233-0.732,0.039-1.23,0.099c-0.591,0.065-1.172-0.025-1.397,0.081c-0.286-0.31-0.224-0.398-0.253-0.908
			c-0.029-0.494-0.188-1.713-0.062-2.223c0.027-0.108,1.101-0.047,1.731-0.099c0.861-0.05,1.053,0.154,1.108,0.149
			c0.072-0.112,0.491-0.055,0.797-0.073c0.199,0.098,0.412-0.089,0.421,0.05c0.007,0.091,0,0.678-0.066,0.845
			c-0.066,0.166-0.099,0.287-0.095,0.366c0.012,0.185,0.144-0.087,0.458,0.019c0.346-0.005,0.7-0.017,1.062-0.038
			c0.407,0.037,0.874-0.112,0.837,0.233c0.07-0.098,0.114,0.075,0.697-0.16c0.432-0.195,0.694-0.705,0.608-1.054
			c-0.046-0.19,0.214-0.313,0.053-0.224c0.207-0.114,0.019-0.034,0.244-0.124c0.717,0.066,1.115-0.008,1.249-0.017
			c0.289-0.018,1.001,0.169,1.206,0.065c0.15,0.27,0.225,1.116,0.231,1.58C196.574,137.026,196.587,137.421,196.591,137.467z"></path>
		<path d="M205.904,147.142l-0.003-0.023c-0.103,0.208-0.155,0.444-0.158,0.707c-0.012,0.172,0.003,0.412,0.041,0.719
			c0.038,0.354,0.062,0.602,0.07,0.74c-0.153,0.008-0.768,0.044-1.841,0.106c-0.649,0.038-1.231,0.126-1.743,0.265l-0.571-0.433
			c-0.147,0.134-0.197,0.238-0.156,0.312c-0.096-0.009-0.537,0.016-1.322,0.078c-0.612,0.036-1.076,0.016-1.389-0.06
			c-0.291,0.279-0.654,0.303-1.091,0.063c-0.158-0.083-0.188-0.242-0.086-0.471c0.104-0.231,0.055-0.395-0.145-0.493
			c-0.009-0.494,0.015-1.264,0.069-2.307c0.062-0.932,0.076-1.662,0.046-2.188c-0.041-0.711-0.158-1.386-0.346-2.027
			c0.199-0.181,0.434-0.28,0.7-0.296c0.308-0.018,0.677,0.077,1.115,0.284c0.612,0.289,0.927,0.435,0.946,0.435l0.182,0.149
			c0.018-0.046,0.098-0.3,0.244-0.757c0.08-0.3,0.212-0.5,0.398-0.604l0.181,0.127c0.076-0.034,0.316-0.195,0.722-0.483
			c0.314-0.205,0.531-0.956,0.724-0.967c0.21-0.013,0.418,0.068,0.619,0.243c0.335,0.121,0.599,0.965,0.721,1.244
			c0.122,0.279,0.239,0.556,0.352,0.828c-0.86,0.082-1.57,0.115-2.129,0.101c-0.124,0.179-0.316,0.216-0.569,0.115
			c-0.256-0.102-0.437-0.071-0.545,0.091c0.017,0.278,0.047,0.78,0.089,1.506c0.02,0.649,0.049,1.159,0.088,1.529
			c0.052,0.572,0.142,1.093,0.264,1.565c0.154-0.009,0.884-0.051,2.186-0.126C204.466,147.063,205.245,147.071,205.904,147.142z
			 M205.015,136.236c-0.172,0.026-0.364,0.044-0.575,0.058c-0.44,0.024-1.025,0.012-1.762-0.038
			c-0.905-0.04-1.455-0.062-1.646-0.066c-0.249,0.339-0.283,0.616-0.249,1.203c0.073,1.267,0.116,1.816,0.124,1.643
			c0.274,0.108,0.424,0.333,0.442,0.673c0.007,0.464,0.021,0.703,0.043,0.717c-0.132,0.054-0.19,0.213-0.176,0.475
			c-0.213-0.048-0.442-0.161-0.682-0.333c-0.322-0.214-0.421,0.545-0.413,0.342l-0.146,0.471l-0.181-0.128
			c-0.152,0.024-0.419-0.021-0.801-0.139c-0.383-0.118-0.652-0.234-0.814-0.349c-0.013-0.247,0.024-0.389,0.12-0.425l-0.394-0.304
			l-0.159,0.22c-0.342-1.592-0.57-4.4-0.439-6.111c0.733,0.049,1.591-0.079,2.472-0.115c0.595-0.019,1.43-0.066,2.503-0.143
			c1.223-0.087,2.104-0.145,2.641-0.177c0.24,0.156,0.37,0.373,0.384,0.65c0.011,0.171-0.025,0.447-0.109,0.832
			C205.112,135.579,205.003,136.051,205.015,136.236z"></path>
		<path d="M215.468,145.494l-0.028,0.004c-0.121,0.239-0.16,0.582-0.114,1.029c0.056,0.632,0.084,0.956,0.085,0.972
			c-0.096,0.036-0.222-0.01-0.383-0.14c-0.246,0.09-0.362,0.247-0.35,0.46c0.003,0.032,0.016,0.084,0.037,0.162
			c0.006,0.092,0.01,0.155,0.013,0.185c0.011,0.169-0.04,0.297-0.15,0.38c-0.279-0.155-0.646-0.253-1.1-0.297
			c-0.454-0.042-0.885-0.084-1.29-0.123c-0.008-2.106-0.292-4.168-0.848-6.182c0,0.016-0.013-0.194-0.038-0.628
			c0.001-0.308-0.067-0.529-0.212-0.661l-0.191,0.173c-0.001-0.029,0.062-0.092,0.191-0.184c0.129-0.095,0.192-0.187,0.188-0.279
			c-0.005-0.046-0.017-0.093-0.038-0.138l-0.212-0.152c-0.357,0.116-0.524,0.403-0.496,0.867c0.018,0.31-0.105,0.526-0.366,0.649
			c0.099,0.072,0.153,0.163,0.161,0.27c0.003,0.062-0.009,0.148-0.029,0.257c-0.022,0.111-0.033,0.196-0.029,0.258
			c0.008,0.139,0.082,0.251,0.222,0.336c0.005,0.093,0.052,0.926,0.144,2.502c0.06,1.006,0.032,1.86-0.081,2.563l0.022,0.395
			c-0.135-0.007-0.287-0.007-0.461,0.003c-0.191,0.012-0.47,0.039-0.832,0.083c-0.362,0.044-0.629,0.072-0.803,0.083
			c-0.707,0.041-1.206-0.078-1.489-0.356l-0.303-8.657c-0.139-0.426-0.229-1.018-0.274-1.774l-0.098-1.669
			c-0.066-0.817-0.168-1.447-0.31-1.888c0.058-0.298,0.318-0.46,0.777-0.487c0.291-0.017,0.675,0.023,1.163,0.119
			c0.224-0.107,0.537-0.173,0.938-0.195c0.117-0.006,0.298-0.009,0.549-0.009c0.269-0.015,0.461-0.026,0.574-0.034
			c0.748-0.042,1.245-0.272,1.489-0.689c0.346-0.004,0.723,0.104,1.129,0.328c0.407,0.225,0.765,0.344,1.076,0.356
			c0.814,0.481,1.255,1.276,1.319,2.39c0.014,0.247-0.084,1.229-0.292,2.947l-1.401,1.22c0.239,0.437,0.524,1.389,0.86,2.857
			C214.467,144.026,214.896,144.923,215.468,145.494z M212.877,135.646l0.03,0.022c0.024,0.107,0.012-0.272-0.037-1.137
			c-0.025-0.418-0.178-0.72-0.457-0.903c-0.159,0.225-0.188-0.301-0.263,0.223c-0.075,0.524-0.204,0.9-0.38,1.127
			c-0.482-0.003-0.594-0.29-0.88-0.692c-0.179-0.256-0.267-0.033-0.267-0.049l-0.13,0.105c-0.072,0.067-0.154,0.142-0.246,0.225
			c-0.091,0.083-0.187,0.112-0.284,0.087c0.007,0.09-0.039,0.238-0.134,0.438c-0.092,0.199-0.138,0.337-0.134,0.415
			c0.009,0.138,0.12,0.24,0.336,0.306c-0.041,0.312-0.051,0.639-0.032,0.978c0.013,0.186,0.055,0.609,0.133,1.272
			c0.088,0.522,0.125,0.967,0.107,1.341c0.175,0.006,0.335,0.004,0.491-0.004c0.669-0.039,1.106-0.305,1.307-0.798
			c0.067-0.144,0.146-0.66,0.228-1.549C212.342,136.382,212.548,135.913,212.877,135.646z"></path>
	</g>
	<g>
		<path d="M120.146,105.568l0.001,0.021c-0.086,0.803-0.115,1.358-0.085,1.666c-0.123,0.049-0.284,0.056-0.481,0.023
			c-0.254-0.043-0.401-0.063-0.444-0.061c-0.111,0.005-0.2,0.045-0.265,0.119c-0.161-0.104-0.267-0.149-0.323-0.132
			c-0.15,0.092-0.22,0.223-0.212,0.391c0.006,0.07,0.031,0.191,0.083,0.363c0.05,0.176,0.078,0.301,0.081,0.385
			c0.006,0.113-0.017,0.289-0.067,0.53c-0.051,0.24-0.072,0.438-0.065,0.592c0.011,0.181,0.049,0.467,0.118,0.857
			c0.068,0.387,0.106,0.682,0.118,0.877c-0.08,0.383-0.109,0.771-0.089,1.162c0.023,0.476,0.155,1.115,0.391,1.917
			c0.043,0.012,0.085,0.016,0.126,0.013c0.097-0.005,0.213-0.076,0.347-0.207c0.132-0.133,0.248-0.202,0.346-0.207
			c0.07-0.003,0.147,0.014,0.233,0.05c0.251,0.816,0.382,1.341,0.395,1.579c0.006,0.113,0.004,0.23-0.003,0.356
			c-0.375,0.09-0.639-0.037-0.795-0.378c0.021-0.1-0.032-0.204-0.164-0.309l-0.418,0.441c0.409,0.064,0.571,0.379,0.488,0.944
			c-0.036,0.114-0.125,0.175-0.264,0.181c-0.238-0.001-0.349-0.003-0.335-0.003l-0.346-0.614l-0.139,0.175
			c-0.114-0.29-0.247-0.43-0.398-0.421c-0.085,0.005-0.231,0.075-0.442,0.21c-0.208,0.137-0.384,0.21-0.523,0.216
			c-0.112,0.006-0.224-0.022-0.34-0.087c-0.009-0.168-0.027-0.342-0.057-0.523c-0.03-0.18-0.125-0.295-0.281-0.345
			c-0.007-0.434,0.006-1.576,0.038-3.429c0.013-1.403-0.001-2.538-0.046-3.404c-0.019-0.364-0.043-0.722-0.074-1.07
			c-0.075-0.108-0.148-0.161-0.217-0.158c-0.058,0.003-0.141,0.064-0.253,0.181c-0.113,0.119-0.212,0.172-0.297,0.163
			c-0.006-0.14-0.069-0.365-0.19-0.675c-0.121-0.309-0.184-0.533-0.193-0.673c-0.011-0.238,0.077-0.446,0.264-0.624l0.489,0.124
			c0.196-0.277,0.277-0.744,0.244-1.401c-0.006-0.124-0.024-0.325-0.051-0.596c-0.028-0.272-0.046-0.472-0.052-0.597
			c-0.053-1.077,0.276-1.634,0.987-1.669c0.264-0.015,0.589,0.033,0.972,0.141l0.469,0.124c0.038,0.181,0.061,0.368,0.071,0.563
			c0.013,0.267,0.002,0.656-0.035,1.169c-0.039,0.515-0.051,0.891-0.04,1.127c0.02,0.377,0.085,0.718,0.199,1.02
			c0.112-0.005,0.288-0.065,0.526-0.184c0.24-0.117,0.414-0.178,0.527-0.183C119.866,105.287,120.024,105.378,120.146,105.568z
			 M118.689,107.072l-0.025-0.482l-0.152-0.14L118.689,107.072z"></path>
		<path d="M125.905,104.057l0.021-0.002c-0.05,0.381-0.108,0.763-0.173,1.145c-0.075,0.439-0.199,0.781-0.368,1.029
			c-0.029-0.012-0.201-0.095-0.516-0.248c-0.216-0.116-0.408-0.161-0.574-0.14c-0.128,0.821-0.196,1.939-0.209,3.355
			c-0.008,1.81-0.022,2.903-0.045,3.284c-0.21-0.017-0.369,0.05-0.472,0.203c-0.105,0.153-0.203,0.309-0.292,0.466
			c-0.039,0.086-0.056,0.165-0.052,0.233c0.004,0.112,0.102,0.221,0.289,0.321c0.188,0.104,0.284,0.219,0.29,0.346
			c-0.082,0.298-0.257,0.453-0.522,0.467c-0.124,0.006-0.344-0.031-0.657-0.115c-0.311-0.082-0.53-0.119-0.657-0.113l-0.3-6.001
			c0.118-0.16,0.167-0.267,0.152-0.322l-0.173-0.119c0.014-0.25,0.028-1.508,0.041-3.767c0.007-1.528,0.064-2.766,0.17-3.711
			c-0.014,0.002,0.418-0.027,1.297-0.086c0.543-0.027,0.896,0.122,1.05,0.451c0.003,0.309-0.028,0.829-0.089,1.562
			c-0.063,0.676-0.087,1.196-0.069,1.561c0.023,0.447,0.093,0.85,0.208,1.209C124.728,104.426,125.277,104.088,125.905,104.057z
			 M127.984,105.341c0.042,0.558,0.076,1.102,0.104,1.634c0.118,2.322,0.081,4.806-0.108,7.452c-0.201,0.178-0.511,0.218-0.929,0.12
			c-0.417-0.099-0.72-0.059-0.906,0.118c-0.24-0.31-0.38-0.87-0.421-1.682c-0.059-1.174-0.09-1.783-0.092-1.825
			c-0.051-2.942,0.237-5.32,0.859-7.132C127.213,104.215,127.711,104.653,127.984,105.341z"></path>
		<path d="M135.332,108.387c-0.089,0.188-0.128,0.387-0.118,0.596c0.01,0.21,0.02,0.411,0.031,0.609
			c-0.021,0.167-0.067,0.337-0.143,0.51c-0.127-0.035-0.234-0.052-0.316-0.047c-0.1,0.005-0.199,0.042-0.299,0.11
			c-0.102,0.068-0.181,0.105-0.237,0.106c-0.084,0.005-0.197-0.026-0.34-0.088l-0.973-1.423c0.034,0.419,0.129,0.785,0.286,1.101
			c0.078,0.164,0.155,0.328,0.234,0.493c-0.569,0.1-0.891,0.115-0.964,0.047l-0.137,0.177l-0.337-0.446
			c-0.264,0.324-0.325,0.795-0.181,1.419c0.175,0.678,0.184,1.168,0.032,1.471c0.21,0.312,0.463,0.459,0.756,0.445
			c0.126-0.006,0.236-0.055,0.329-0.143c0.136-0.344,0.273-0.687,0.411-1.029c0.202-0.417,0.43-0.633,0.68-0.646
			c0.196-0.009,0.425,0.092,0.687,0.302c0.314,0.109,0.476,0.257,0.484,0.438c0.005,0.114-0.066,0.295-0.214,0.547
			c-0.148,0.253-0.217,0.449-0.211,0.59c0.003,0.057,0.012,0.104,0.027,0.146c-0.202,0.15-0.383,0.377-0.542,0.679
			c-0.161,0.302-0.371,0.51-0.631,0.621c-0.226,0.222-0.437,0.336-0.632,0.346c-0.154,0.009-0.384-0.109-0.691-0.354
			c-0.305-0.243-0.59-0.359-0.856-0.346c-0.11-0.247-0.382-0.52-0.818-0.822c-0.435-0.299-0.703-0.623-0.804-0.969
			c0.002,0.028-0.005-0.083-0.016-0.335c-0.009-0.14-0.069-0.227-0.182-0.264l0.159-0.155c-0.21-0.003-0.321-0.124-0.332-0.362
			c-0.002-0.027-0.004-0.084-0.008-0.168c0.009-0.071,0.015-0.126,0.012-0.167c-0.008-0.169-0.063-0.284-0.164-0.352l-0.037-0.733
			c-0.019-0.378-0.095-0.647-0.231-0.809c0.138-0.889,0.276-1.78,0.414-2.67c0.226-1.035,0.564-1.564,1.011-1.587
			c0.069-0.002,0.14,0.008,0.21,0.031c0.401-0.398,0.886-0.612,1.458-0.64c0.628-0.032,1.323,0.158,2.086,0.568
			C134.82,106.163,135.189,107.231,135.332,108.387z M132.445,106.071l-0.138,0.175c-0.097,0.02-0.212-0.03-0.344-0.151l0.024,0.484
			c-0.213,0.233-0.299,0.595-0.261,1.085c0.043,0.84,0.062,1.246,0.062,1.218l0.628-0.012c0.3-0.168,0.438-0.449,0.419-0.84
			c-0.009-0.197-0.077-0.518-0.206-0.967C132.503,106.613,132.442,106.284,132.445,106.071z"></path>
	</g>
	<g>
		<polygon fill-rule="evenodd" clip-rule="evenodd" points="140.251,129.557 140.875,129.917 142.989,124.351 142.285,124.115 
			140.169,129.681 140.786,130.073 140.251,129.557 140.251,129.557 		"></polygon>
		<polygon fill-rule="evenodd" clip-rule="evenodd" points="141.176,128.786 140.92,128.886 140.251,129.557 140.786,130.073 
			141.467,129.367 141.2,129.502 141.176,128.786 141.176,128.786 		"></polygon>
		<polygon fill-rule="evenodd" clip-rule="evenodd" points="146.297,128.741 146.6,128.507 141.176,128.786 141.2,129.502 
			146.622,129.225 146.968,128.967 146.297,128.741 146.297,128.741 146.297,128.741 		"></polygon>
		<polygon fill-rule="evenodd" clip-rule="evenodd" points="148.747,123.625 148.377,123.165 146.297,128.741 146.968,128.967 
			149.082,123.399 148.714,122.942 148.747,123.625 148.747,123.625 148.747,123.625 		"></polygon>
		<polygon fill-rule="evenodd" clip-rule="evenodd" points="143.582,123.802 143.313,123.937 148.747,123.625 148.714,122.942 
			143.303,123.186 143.034,123.318 143.582,123.802 143.582,123.802 143.582,123.802 		"></polygon>
		<polygon fill-rule="evenodd" clip-rule="evenodd" points="142.989,124.351 142.912,124.473 143.582,123.802 143.034,123.318 
			142.362,123.992 142.285,124.115 142.989,124.351 142.989,124.351 142.989,124.351 		"></polygon>
		<polygon fill-rule="evenodd" clip-rule="evenodd" points="147.493,129.404 147.975,129.19 146.813,128.542 146.443,129.201 
			147.64,129.863 148.164,129.627 147.459,129.393 147.459,129.393 147.493,129.404 		"></polygon>
		<polygon fill-rule="evenodd" clip-rule="evenodd" points="149.764,124.264 149.574,123.827 147.459,129.393 148.164,129.627 
			150.278,124.062 150.087,123.625 149.764,124.264 149.764,124.264 		"></polygon>
		<polygon fill-rule="evenodd" clip-rule="evenodd" points="149.082,123.399 148.558,123.636 149.764,124.264 150.087,123.625 
			148.926,122.976 148.377,123.165 149.082,123.399 149.082,123.399 		"></polygon>
		<polygon points="142.654,124.238 142.621,124.227 143.291,123.555 148.325,123.309 148.377,123.165 148.748,123.288 
			149.082,123.399 149.059,123.462 149.943,123.95 150.278,124.062 150.141,124.423 152.603,130.289 150.521,135.866 
			147.829,129.515 147.829,129.515 147.482,129.661 147.459,129.393 147.485,129.325 146.637,128.855 146.443,129.201 
			146.337,128.868 141.176,129.122 140.506,129.793 		"></polygon>
		<polygon fill-rule="evenodd" clip-rule="evenodd" points="150.186,135.754 150.868,135.722 148.175,129.371 147.482,129.661 
			150.175,136.012 150.857,135.979 150.153,135.743 150.153,135.743 150.186,135.754 		"></polygon>
		<polygon fill-rule="evenodd" clip-rule="evenodd" points="152.29,130.447 152.267,130.178 150.153,135.743 150.857,135.979 
			152.972,130.415 152.95,130.146 152.29,130.447 152.29,130.447 		"></polygon>
		<polygon fill-rule="evenodd" clip-rule="evenodd" points="150.278,124.062 149.596,124.096 152.29,130.447 152.95,130.146 
			150.255,123.792 149.574,123.827 150.278,124.062 150.278,124.062 		"></polygon>
		<polygon fill-rule="evenodd" clip-rule="evenodd" fill="#FFFFFF" points="150.099,125.495 150.4,126.157 150.512,126.83 
			150.479,127.49 150.288,128.173 149.954,128.844 149.494,129.437 148.902,129.986 148.186,130.458 147.795,130.625 
			147.404,130.792 146.967,130.87 146.565,130.959 146.174,131.015 145.75,131.06 145.358,131.004 144.956,130.981 144.609,130.904 
			144.24,130.779 143.883,130.623 143.57,130.442 143.301,130.242 143,130.029 142.754,129.761 142.552,129.468 142.25,128.808 
			142.138,128.136 142.139,127.463 142.363,126.792 142.654,126.142 143.124,125.516 143.716,124.967 144.464,124.507 
			144.823,124.33 145.248,124.171 145.65,124.082 146.052,123.994 146.477,123.948 146.869,123.893 147.26,123.948 147.662,123.972 
			148.03,124.094 148.4,124.217 148.735,124.331 149.081,124.52 149.361,124.688 149.652,124.935 149.854,125.226 150.099,125.495 
			150.099,125.495 150.099,125.495 		"></polygon>
		<polygon fill-rule="evenodd" clip-rule="evenodd" points="150.366,126.593 150.669,127.254 150.77,127.96 150.736,128.622 
			150.556,129.271 150.254,129.954 149.751,130.568 149.203,131.096 148.454,131.554 148.053,131.756 147.661,131.924 
			147.258,132.013 146.823,132.091 146.431,132.146 146.052,132.17 145.648,132.146 145.224,132.081 144.876,132 144.508,131.877 
			144.185,131.731 143.838,131.542 143.558,131.374 143.3,131.137 143.043,130.902 142.82,130.566 142.507,129.939 142.396,129.266 
			142.439,128.572 142.62,127.923 142.921,127.241 143.381,126.646 143.973,126.098 144.721,125.639 145.123,125.438 
			145.504,125.303 145.917,125.18 146.355,125.102 146.734,125.08 147.125,125.025 147.518,125.08 147.919,125.102 148.3,125.191 
			148.668,125.315 148.993,125.461 149.351,125.619 149.618,125.821 149.92,126.032 150.121,126.326 150.356,126.626 
			150.356,126.626 150.366,126.593 		"></polygon>
		<polygon fill-rule="evenodd" clip-rule="evenodd" fill="#FFFFFF" points="150.556,127.365 150.871,127.993 150.97,128.699 
			150.936,129.36 150.758,130.009 150.423,130.681 149.952,131.309 149.405,131.833 148.656,132.294 148.287,132.506 
			147.863,132.664 147.458,132.751 147.022,132.831 146.633,132.886 146.253,132.908 145.849,132.886 145.424,132.819 
			145.079,132.741 144.709,132.617 144.385,132.472 144.039,132.282 143.759,132.111 143.469,131.865 143.257,131.609 
			143.021,131.306 142.708,130.679 142.596,130.006 142.629,129.346 142.82,128.662 143.123,127.979 143.592,127.352 
			144.206,126.847 144.923,126.378 145.326,126.177 145.717,126.008 146.119,125.919 146.555,125.842 146.947,125.785 
			147.327,125.762 147.762,125.796 148.121,125.842 148.501,125.932 148.869,126.054 149.227,126.211 149.541,126.393 
			149.819,126.559 150.122,126.772 150.322,127.063 150.556,127.365 150.556,127.365 		"></polygon>
		<polygon fill-rule="evenodd" clip-rule="evenodd" points="150.825,128.463 151.126,129.125 151.239,129.797 151.239,130.47 
			151.014,131.14 150.724,131.791 150.22,132.406 149.663,132.967 148.912,133.424 148.556,133.604 148.13,133.76 147.727,133.851 
			147.326,133.939 146.9,133.985 146.508,134.04 146.117,133.985 145.716,133.962 145.335,133.872 144.965,133.749 144.642,133.602 
			144.296,133.412 144.027,133.21 143.76,133.009 143.513,132.74 143.278,132.437 143.009,131.788 142.865,131.104 142.898,130.442 
			143.088,129.761 143.413,129.122 143.884,128.494 144.475,127.945 145.191,127.476 145.582,127.308 145.974,127.141 
			146.41,127.062 146.813,126.973 147.204,126.916 147.617,126.906 148.019,126.929 148.388,126.94 148.768,127.029 
			149.136,127.152 149.495,127.309 149.808,127.489 150.11,127.702 150.378,127.903 150.624,128.172 150.813,128.497 
			150.813,128.497 150.825,128.463 		"></polygon>
		<polygon fill-rule="evenodd" clip-rule="evenodd" fill="#FFFFFF" points="151.217,129.191 151.53,129.819 151.641,130.491 
			151.63,131.198 151.45,131.846 151.115,132.519 150.612,133.135 150.064,133.661 149.349,134.131 148.946,134.332 
			148.521,134.489 148.119,134.58 147.715,134.667 147.292,134.713 146.913,134.735 146.508,134.713 146.117,134.657 
			145.738,134.567 145.369,134.443 145.044,134.297 144.72,134.152 144.419,133.938 144.161,133.703 143.916,133.434 
			143.713,133.144 143.401,132.516 143.267,131.798 143.3,131.137 143.513,130.5 143.815,129.816 144.284,129.19 144.867,128.674 
			145.582,128.204 145.985,128.004 146.375,127.835 146.8,127.79 147.213,127.667 147.605,127.611 148.019,127.601 148.422,127.623 
			148.78,127.668 149.16,127.758 149.561,127.892 149.886,128.038 150.21,128.184 150.512,128.396 150.77,128.631 151.015,128.9 
			151.217,129.191 151.217,129.191 		"></polygon>
		<polygon fill-rule="evenodd" clip-rule="evenodd" points="151.519,130.301 151.785,130.95 151.932,131.634 151.897,132.295 
			151.708,132.977 151.383,133.617 150.913,134.242 150.32,134.792 149.605,135.262 149.214,135.43 148.789,135.587 
			148.387,135.676 147.984,135.766 147.593,135.82 147.169,135.865 146.777,135.811 146.375,135.787 146.028,135.709 
			145.625,135.575 145.301,135.429 144.989,135.248 144.687,135.037 144.419,134.834 144.173,134.566 143.971,134.273 
			143.669,133.614 143.524,132.931 143.558,132.27 143.782,131.597 144.073,130.947 144.542,130.32 145.135,129.772 
			145.883,129.312 146.242,129.135 146.667,128.978 147.069,128.887 147.471,128.798 147.896,128.754 148.288,128.698 
			148.679,128.754 149.047,128.766 149.462,128.866 149.829,128.99 150.155,129.136 150.467,129.314 150.77,129.527 
			151.037,129.729 151.283,129.999 151.519,130.301 151.519,130.301 151.519,130.301 		"></polygon>
		<polygon fill-rule="evenodd" clip-rule="evenodd" points="114.56,121.752 114.593,121.54 112.468,127.139 113.139,127.362 
			115.265,121.763 115.274,121.619 114.56,121.752 114.56,121.752 114.56,121.752 		"></polygon>
		<polygon fill-rule="evenodd" clip-rule="evenodd" points="114.505,121.472 114.516,121.439 114.56,121.752 115.274,121.619 
			115.198,121.293 115.209,121.26 114.505,121.472 114.505,121.472 114.505,121.472 		"></polygon>
		<polygon fill-rule="evenodd" clip-rule="evenodd" points="114.426,121.148 114.505,121.472 115.209,121.26 115.129,120.935 
			114.426,121.148 114.426,121.148 114.426,121.148 		"></polygon>
		<polygon fill-rule="evenodd" clip-rule="evenodd" points="114.336,120.856 114.426,121.148 115.129,120.935 115.041,120.644 
			114.336,120.856 114.336,120.856 		"></polygon>
		<polygon fill-rule="evenodd" clip-rule="evenodd" points="114.259,120.531 114.259,120.531 114.336,120.856 115.041,120.644 
			114.963,120.318 114.952,120.352 114.259,120.531 114.259,120.531 114.259,120.531 		"></polygon>
		<polygon fill-rule="evenodd" clip-rule="evenodd" points="114.169,120.127 114.169,120.241 114.259,120.531 114.952,120.352 
			114.863,120.06 114.896,120.185 114.169,120.127 114.169,120.127 		"></polygon>
		<polygon fill-rule="evenodd" clip-rule="evenodd" points="114.885,119.994 114.18,119.869 114.169,120.127 114.896,120.185 
			114.906,119.927 114.204,119.803 114.873,120.027 114.873,120.027 114.885,119.994 		"></polygon>
		<polygon fill-rule="evenodd" clip-rule="evenodd" fill="#4C4849" points="115.495,136.291 115.429,135.933 114.679,136.056 
			114.735,136.447 115.495,136.291 115.495,136.291 115.495,136.291 		"></polygon>
		<polygon fill-rule="evenodd" clip-rule="evenodd" points="117.051,131.621 117.073,131.441 114.96,137.008 115.629,137.232 
			117.744,131.666 117.732,131.476 117.051,131.621 117.051,131.621 117.051,131.621 		"></polygon>
		<polygon fill-rule="evenodd" clip-rule="evenodd" points="116.996,131.23 117.051,131.621 117.732,131.476 117.677,131.083 
			116.961,131.218 116.961,131.218 116.996,131.23 		"></polygon>
		<polygon fill-rule="evenodd" clip-rule="evenodd" points="116.896,130.858 116.961,131.218 117.677,131.083 117.577,130.714 
			116.896,130.858 116.896,130.858 116.896,130.858 		"></polygon>
		<polygon fill-rule="evenodd" clip-rule="evenodd" points="116.806,130.457 116.828,130.501 116.896,130.858 117.577,130.714 
			117.521,130.32 117.543,130.367 116.806,130.457 116.806,130.457 116.806,130.457 		"></polygon>
		<polygon fill-rule="evenodd" clip-rule="evenodd" points="117.476,130.121 116.761,130.03 116.806,130.457 117.543,130.367 
			117.487,129.975 116.771,129.886 117.476,130.121 117.476,130.121 		"></polygon>
		<g>
			<polygon fill="#4C4849" points="112.472,126.028 112.133,126.132 112.472,126.028 			"></polygon>
			<polygon fill="#4C4849" points="112.825,127.197 112.837,127.163 113.011,127.174 113.139,127.362 112.827,127.259 			"></polygon>
			<polygon points="112.055,125.806 112.413,125.739 112.424,125.481 114.55,119.882 114.538,119.915 114.538,120.139 
				114.594,120.418 114.707,120.757 114.795,121.046 114.872,121.371 114.93,121.651 114.93,121.651 115.265,121.763 
				113.139,127.362 113.011,127.174 112.837,127.163 112.825,127.197 112.827,127.259 113.139,127.362 112.829,127.344 
				112.837,127.598 112.621,127.33 112.445,127.317 112.401,127.005 112.529,126.977 112.667,126.618 112.312,126.713 
				112.211,126.455 112.133,126.132 112.472,126.028 112.472,126.028 112.133,126.132 112.145,126.098 			"></polygon>
		</g>
		<g>
			<polygon fill="none" points="129.359,127.336 129.359,127.336 129.664,126.653 			"></polygon>
			<polygon points="112.815,126.881 128.377,126.372 128.779,126.396 128.846,126.417 129.228,126.507 129.261,126.519 
				129.664,126.653 130.054,126.821 130.087,126.833 130.457,127.068 130.524,127.09 130.814,127.336 130.904,127.402 
				131.115,127.66 131.138,127.706 131.283,127.94 131.294,128.019 130.609,128.226 130.5,128.052 130.49,128.086 130.311,127.84 
				130.313,127.838 130.076,127.649 130.132,127.706 129.752,127.505 129.753,127.502 129.359,127.336 129.359,127.336 
				129.025,127.225 128.645,127.134 128.712,127.156 128.354,127.11 128.354,127.077 112.837,127.598 			"></polygon>
			<polygon points="130.591,128.232 130.609,128.226 130.646,128.289 			"></polygon>
		</g>
		<polygon fill-rule="evenodd" clip-rule="evenodd" points="138.905,141.316 138.905,141.094 136.78,146.693 137.484,146.929 
			139.61,141.33 139.609,141.106 138.905,141.316 138.905,141.316 138.905,141.316 		"></polygon>
		<polygon fill-rule="evenodd" clip-rule="evenodd" points="132.76,122.722 132.715,122.633 138.905,141.316 139.609,141.106 
			133.42,122.42 133.409,122.341 132.76,122.722 132.76,122.722 132.76,122.722 		"></polygon>
		<polygon fill-rule="evenodd" clip-rule="evenodd" points="132.638,122.533 132.616,122.487 132.76,122.722 133.409,122.341 
			133.264,122.106 133.23,122.096 132.604,122.521 132.604,122.521 132.638,122.533 		"></polygon>
		<polygon fill-rule="evenodd" clip-rule="evenodd" points="132.491,122.296 132.436,122.241 132.604,122.521 133.23,122.096 
			132.995,121.792 132.939,121.736 132.491,122.296 132.491,122.296 132.491,122.296 		"></polygon>
		<polygon fill-rule="evenodd" clip-rule="evenodd" points="132.246,122.141 132.189,122.084 132.491,122.296 132.939,121.736 
			132.638,121.524 132.582,121.468 132.246,122.141 132.246,122.141 		"></polygon>
		<polygon fill-rule="evenodd" clip-rule="evenodd" points="131.911,121.916 131.877,121.905 132.246,122.141 132.582,121.468 
			132.202,121.267 132.169,121.255 131.911,121.916 131.911,121.916 		"></polygon>
		<polygon fill-rule="evenodd" clip-rule="evenodd" points="131.553,121.758 131.475,121.769 131.911,121.916 132.169,121.255 
			131.776,121.087 131.743,121.076 131.509,121.781 131.509,121.781 131.553,121.758 		"></polygon>
		<polygon fill-rule="evenodd" clip-rule="evenodd" points="131.15,121.625 131.106,121.646 131.509,121.781 131.743,121.076 
			131.34,120.94 131.34,120.94 131.139,121.658 131.139,121.658 131.15,121.625 		"></polygon>
		<polygon fill-rule="evenodd" clip-rule="evenodd" points="130.838,121.557 130.771,121.536 131.139,121.658 131.34,120.94 
			130.926,120.84 130.893,120.829 130.838,121.557 130.838,121.557 130.838,121.557 		"></polygon>
		<polygon fill-rule="evenodd" clip-rule="evenodd" points="130.479,121.512 130.469,121.545 130.838,121.557 130.893,120.829 
			130.502,120.772 130.458,120.795 130.479,121.512 130.479,121.512 		"></polygon>
		<polygon fill-rule="evenodd" clip-rule="evenodd" points="115.298,121.774 114.918,122.02 130.479,121.512 130.458,120.795 
			114.93,121.315 114.593,121.54 115.265,121.763 115.265,121.763 115.298,121.774 		"></polygon>
		<polygon fill="#4C4849" points="119.207,138.8 119.153,138.773 119.187,138.756 		"></polygon>
		<g>
			<polygon fill="#4C4849" points="127.612,141.32 127.547,142.075 127.612,141.32 			"></polygon>
			<g>
				<polygon fill="none" points="127.582,141.68 127.547,142.075 127.582,141.68 				"></polygon>
				<g>
					<polygon fill="none" points="114.971,135.618 114.993,135.566 115.007,135.636 					"></polygon>
					<path d="M114.735,136.447l0.067,0.358l0.135,0.381l0.168,0.28l0.95,0.504l0.949,0.506l0.917,0.491l0.928,0.459l0.033,0.012
						l0.939,0.426l0.939,0.425l1.017,0.416l1.029,0.38l0.034,0.012l1.094,0.292l1.097,0.292l0.033,0.011l1.208,0.179l1.241,0.192
						l0.034,0.011l1.352,0.08l0.046-0.023l1.442,0.034l1.542-0.044l1.632-0.087l0.336-0.226l2.113-5.566l-0.357-0.493l0.021,0.718
						l-0.111-0.141l0.08-0.206l-0.235,0.012l-0.103-0.126l-0.05,0.137l-1.211,0.075h-1.565l-1.444-0.034l-1.318-0.067l-1.285-0.169
						l-1.196-0.212l-1.097-0.292l-1.095-0.292l-1.028-0.381l-0.995-0.372l-0.938-0.424l-0.929-0.461l-0.961-0.47l-0.916-0.492
						l-0.916-0.495l-0.636-0.337l0.021-0.055l-0.335-0.113l0,0l-0.089-0.403l-0.066-0.359l-0.027-0.122l0.25-0.548l-0.353-0.118
						l-0.017-0.006l0,0l-0.335-0.111l-2.114,5.564l-0.022,0.179l0.057,0.393L114.735,136.447z M114.993,135.566l0.014,0.069
						l-0.036-0.018L114.993,135.566z"></path>
				</g>
			</g>
		</g>
		<polygon fill-rule="evenodd" clip-rule="evenodd" points="134.043,136.556 135.674,136.467 135.653,135.749 134.021,135.838 
			134.043,136.556 134.043,136.556 134.043,136.556 		"></polygon>
		<polygon fill-rule="evenodd" clip-rule="evenodd" points="132.501,136.599 134.043,136.556 134.021,135.838 132.479,135.883 
			132.501,136.599 132.501,136.599 132.501,136.599 		"></polygon>
		<polygon fill-rule="evenodd" clip-rule="evenodd" points="131.025,136.554 131.059,136.565 132.501,136.599 132.479,135.883 
			131.037,135.849 131.082,135.826 131.013,136.588 131.013,136.588 131.025,136.554 		"></polygon>
		<polygon fill-rule="evenodd" clip-rule="evenodd" points="129.637,136.465 129.672,136.476 131.013,136.588 131.082,135.826 
			129.728,135.747 129.761,135.76 129.637,136.465 129.637,136.465 129.637,136.465 		"></polygon>
		<polygon fill-rule="evenodd" clip-rule="evenodd" points="128.385,136.306 129.637,136.465 129.761,135.76 128.521,135.568 
			128.385,136.306 128.385,136.306 		"></polygon>
		<polygon fill-rule="evenodd" clip-rule="evenodd" points="127.156,136.082 127.19,136.094 128.385,136.306 128.521,135.568 
			127.28,135.377 127.313,135.388 127.156,136.082 127.156,136.082 127.156,136.082 		"></polygon>
		<polygon fill-rule="evenodd" clip-rule="evenodd" points="126.062,135.791 127.156,136.082 127.313,135.388 126.218,135.096 
			126.049,135.825 126.049,135.825 126.062,135.791 		"></polygon>
		<polygon fill-rule="evenodd" clip-rule="evenodd" points="124.92,135.522 124.955,135.533 126.049,135.825 126.218,135.096 
			125.122,134.805 125.156,134.815 124.92,135.522 124.92,135.522 		"></polygon>
		<polygon fill-rule="evenodd" clip-rule="evenodd" points="123.891,135.14 123.891,135.14 124.92,135.522 125.156,134.815 
			124.127,134.434 124.161,134.445 123.859,135.129 123.859,135.129 123.891,135.14 		"></polygon>
		<polygon fill-rule="evenodd" clip-rule="evenodd" points="122.875,134.725 123.859,135.129 124.161,134.445 123.177,134.041 
			122.875,134.725 122.875,134.725 		"></polygon>
		<polygon fill-rule="evenodd" clip-rule="evenodd" points="121.936,134.299 122.875,134.725 123.177,134.041 122.226,133.65 
			121.936,134.299 121.936,134.299 		"></polygon>
		<polygon fill-rule="evenodd" clip-rule="evenodd" points="120.975,133.828 120.997,133.874 121.936,134.299 122.226,133.65 
			121.266,133.179 121.299,133.191 120.963,133.863 120.963,133.863 120.975,133.828 		"></polygon>
		<polygon fill-rule="evenodd" clip-rule="evenodd" points="120.046,133.369 120.963,133.863 121.299,133.191 120.372,132.73 
			120.036,133.403 120.036,133.403 120.046,133.369 		"></polygon>
		<polygon fill-rule="evenodd" clip-rule="evenodd" points="119.13,132.877 120.036,133.403 120.372,132.73 119.455,132.238 
			119.097,132.866 119.097,132.866 119.13,132.877 		"></polygon>
		<polygon fill-rule="evenodd" clip-rule="evenodd" points="118.18,132.372 119.097,132.866 119.455,132.238 118.537,131.744 
			118.18,132.372 118.18,132.372 		"></polygon>
		<polygon fill-rule="evenodd" clip-rule="evenodd" points="117.744,131.666 117.229,131.867 118.18,132.372 118.537,131.744 
			117.587,131.241 117.073,131.441 117.744,131.666 117.744,131.666 117.744,131.666 		"></polygon>
		<polygon fill-rule="evenodd" clip-rule="evenodd" points="214.652,121.579 212.525,127.177 219.468,129.499 221.079,125.779 
			221.123,125.422 221.135,125.051 221.079,124.659 220.944,124.28 220.722,123.942 220.542,123.583 220.252,123.226 
			219.95,122.901 219.638,122.609 219.291,122.306 218.933,122.037 218.586,121.846 218.251,121.624 217.858,121.455 
			217.513,121.265 217.178,121.151 216.877,121.053 216.516,121.006 216.194,120.973 215.881,121.019 215.567,121.062 
			215.233,121.174 214.94,121.375 214.652,121.579 214.652,121.579 214.652,121.579 		"></polygon>
		<polygon fill-rule="evenodd" clip-rule="evenodd" points="219.156,129.318 219.592,129.128 212.649,126.808 212.412,127.513 
			219.356,129.833 219.825,129.656 219.156,129.318 219.156,129.318 		"></polygon>
		<g>
			<polygon fill="none" points="220.495,130.934 220.541,131.312 220.495,130.934 			"></polygon>
			<polygon fill="none" points="224.075,127.182 224.332,127.427 224.054,127.232 			"></polygon>
			<g>
				<polygon fill="none" points="224.332,127.427 224.054,127.232 224.075,127.182 				"></polygon>
				<g>
					<polygon fill="none" points="224.332,127.427 224.054,127.232 224.075,127.182 					"></polygon>
					<polygon points="112.055,125.47 112.088,125.37 114.204,119.803 114.873,120.027 112.823,125.524 112.781,125.75 
						112.771,125.671 112.055,125.806 112.044,125.728 					"></polygon>
					<g>
						<polygon fill="none" points="224.332,127.427 224.054,127.232 224.075,127.182 						"></polygon>
						<polygon fill="#4C4849" points="146.095,138.644 145.97,138.719 145.96,138.71 						"></polygon>
						<g>
							<polygon fill="none" points="146.231,138.971 146.497,139.226 146.231,138.971 							"></polygon>
							<polygon fill="none" points="224.332,127.427 224.054,127.232 224.075,127.182 							"></polygon>
							<polygon fill="none" points="137.115,146.805 137.138,146.805 137.138,146.813 136.78,146.693 137.08,146.699 							"></polygon>
							<path d="M112.312,126.713l0.078,0.325l0.011-0.033l0.541-0.116l-0.137,0.362l15.561-0.509l0.37,0.012l0.402,0.134
								l0.402,0.135l0.402,0.135l0.368,0.234l0.303,0.213l0.212,0.258l0.13,0.26l-0.364,0.111l6.189,18.684l0.361,0.007l0.008,0.229
								h0.558l0.525-0.011l0.48,0.011l0.437-0.079l0.446-0.111l0.448-0.224l0.413-0.348l0.49-0.471l0.013-0.033l0.28-0.392
								l0.325-0.414l0.368-0.437l0.258-0.437l0.324-0.526l0.335-0.448l0.28-0.504l0.358-0.515l0.29-0.424l0.414-0.46l0.336-0.447
								l0.392-0.393l0.346-0.369l0.369-0.323l0.358-0.292l0.413-0.235l0.09-0.045l-0.265-0.255l0,0l0.265,0.255l0.414-0.459
								l0.381-0.358l0.334-0.337l0.358-0.29l0.347-0.258l0.367-0.213l0.325-0.188l0.357-0.18l0.403-0.089l0.391-0.168l0.402-0.09
								l0.47-0.068l0.515-0.088l0.569-0.033l0.616-0.056l0.603-0.022l0.034,0.01l67.157-5.026l0.392-0.055l0.356-0.069l0.325-0.077
								L221.95,131l0.312-0.156l0.324-0.191l0.271-0.247l0.312-0.267l0.068-0.091l1.173-2.742l-0.612-0.392l0.271,0.262
								l-0.042,0.036l-0.298-0.208l-0.293,0.686l-0.198,0.119l-0.258,0.102l-0.302,0.125l-0.281,0.055l-0.357,0.067l-0.354,0.066
								l-67.191,5.016l-0.427,0.045l-0.413,0.012l-0.412,0.009l-0.437,0.078h-0.448l-0.391,0.056l-0.425,0.046l-0.391,0.055
								l-0.437,0.079l-0.391,0.055l-0.401,0.089l-0.447,0.112l-0.404,0.091l-0.425,0.155l-0.425,0.157l-0.402,0.202l-0.794,0.482
								l-0.805,0.737l-0.849,0.875l-0.817,0.996l-0.793,1.041l-0.682,0.93l-0.671,0.895l-0.559,0.672l-0.325,0.078l-0.279,0.056
								l-0.347,0.033h-0.335h-0.335l-0.29-0.021l-0.37-0.013l-0.324-0.034l-6.167-18.639l-0.134-0.269l-0.211-0.258l-0.302-0.213
								l-0.403-0.246l-0.391-0.168l-0.401-0.135l-0.38-0.091l-0.371-0.009l-15.549,0.475l-1.869,4.926l-0.011-0.065L112.312,126.713
								z M224.054,127.232l0.021-0.05l0.257,0.245L224.054,127.232z"></path>
						</g>
					</g>
				</g>
			</g>
		</g>
		<polygon fill-rule="evenodd" clip-rule="evenodd" points="221.704,128.603 222.106,128.513 222.465,128.446 222.789,128.368 
			223.125,128.255 223.438,128.099 223.762,127.908 224.018,127.696 224.332,127.427 223.797,126.913 223.559,127.17 
			223.314,127.349 223.078,127.494 222.823,127.595 222.574,127.662 222.286,127.751 221.974,127.796 221.626,127.831 
			221.704,128.603 221.704,128.603 		"></polygon>
		<polygon fill-rule="evenodd" clip-rule="evenodd" points="154.559,133.596 221.704,128.603 221.626,127.831 154.471,132.856 
			154.559,133.596 154.559,133.596 		"></polygon>
		<polygon fill-rule="evenodd" clip-rule="evenodd" points="147.973,134.791 148.365,134.624 148.746,134.489 149.203,134.343 
			149.583,134.209 149.997,134.086 150.388,134.03 150.779,133.975 151.215,133.896 151.573,133.828 151.987,133.818 
			152.413,133.773 152.836,133.73 153.261,133.684 153.642,133.663 154.1,133.629 154.559,133.596 154.471,132.856 154.043,132.901 
			153.619,132.945 153.173,132.945 152.747,132.989 152.334,133.001 151.932,133.091 151.517,133.102 151.058,133.135 
			150.656,133.225 150.253,133.313 149.818,133.392 149.371,133.504 148.991,133.637 148.533,133.783 148.074,133.928 
			147.672,134.13 147.973,134.791 147.973,134.791 147.973,134.791 		"></polygon>
		<polygon fill-rule="evenodd" clip-rule="evenodd" points="141.957,141.441 142.102,141.341 142.404,140.994 142.673,140.637 
			142.996,140.222 143.332,139.772 143.713,139.304 144.06,138.821 144.451,138.317 144.843,137.814 145.245,137.276 
			145.658,136.816 146.062,136.391 146.475,135.933 146.822,135.563 147.258,135.261 147.614,134.97 147.973,134.791 
			147.672,134.13 147.212,134.388 146.822,134.667 146.363,135.037 145.928,135.45 145.525,135.877 145.122,136.302 
			144.676,136.862 144.284,137.365 143.892,137.869 143.5,138.373 143.155,138.855 142.773,139.325 142.438,139.772 
			142.113,140.188 141.846,140.545 141.599,140.837 141.734,140.77 141.957,141.441 141.957,141.441 141.957,141.441 		"></polygon>
		<polygon fill="none" points="214.507,121.903 214.652,121.579 214.92,121.332 215.322,121.129 215.792,121.062 216.047,121.075 
			216.341,121.096 216.619,121.151 216.898,121.208 217.234,121.32 217.535,121.421 217.86,121.567 218.206,121.757 
			218.496,121.892 218.799,122.105 219.067,122.306 219.358,122.553 219.66,122.766 219.871,123.024 220.129,123.259 
			220.341,123.517 220.732,124.021 220.935,124.538 221.035,124.795 221.089,124.962 221.058,125.399 220.978,125.745 
			220.731,126.037 220.374,126.215 219.893,126.317 219.626,126.34 219.347,126.283 219.022,126.25 218.676,126.172 
			218.373,126.069 218.037,125.958 217.68,125.802 217.368,125.622 217.043,125.476 216.695,125.286 216.393,125.074 
			216.104,124.826 215.835,124.624 215.556,124.344 215.31,124.075 215.099,123.818 214.753,123.291 214.55,122.775 
			214.495,122.608 214.438,122.328 		"></polygon>
		<polygon fill-rule="evenodd" clip-rule="evenodd" fill="#FFFFFF" points="129.093,121.198 130.479,121.176 130.592,121.176 
			118.687,117.195 118.083,117.554 129.082,121.231 129.082,121.231 129.093,121.198 		"></polygon>
		<polygon fill-rule="evenodd" clip-rule="evenodd" fill="#FFFFFF" points="129.093,121.198 114.93,121.651 114.872,121.371 
			114.795,121.046 114.707,120.757 114.594,120.418 114.538,120.139 114.538,119.915 114.626,119.648 114.873,119.467 
			115.455,119.064 116.103,118.684 116.752,118.304 117.4,117.923 118.016,117.532 118.083,117.554 129.082,121.231 
			129.082,121.231 129.093,121.198 		"></polygon>
		<polygon fill="#FFFFFF" points="120.482,129.818 130.131,129.274 133.909,130.799 135.24,134.753 135.643,136.121 
			134.044,136.219 132.479,136.219 131.035,136.185 129.717,136.118 128.432,135.948 127.236,135.736 126.139,135.444 
			125.043,135.152 124.015,134.771 123.02,134.399 122.082,133.975 121.153,133.514 120.192,133.044 119.276,132.552 
			118.36,132.058 117.409,131.553 117.319,131.15 117.253,130.791 117.163,130.391 117.107,129.997 		"></polygon>
		<polygon fill-rule="evenodd" clip-rule="evenodd" fill="#FFFFFF" points="144.788,130.925 144.922,131.082 146.163,131.833 
			146.565,131.184 145.324,130.435 145.447,130.624 144.788,130.925 144.833,131.015 144.922,131.082 144.788,130.925 
			144.788,130.925 		"></polygon>
		<polygon fill-rule="evenodd" clip-rule="evenodd" fill="#FFFFFF" points="133.752,131.156 133.541,130.898 135.306,136.231 
			136.01,136.019 134.247,130.686 134.056,130.474 134.247,130.686 134.19,130.519 134.056,130.474 133.752,131.156 
			133.752,131.156 133.752,131.156 		"></polygon>
		<polygon fill-rule="evenodd" clip-rule="evenodd" fill="#FFFFFF" points="130.166,129.622 129.987,129.6 133.752,131.156 
			134.056,130.474 130.289,128.915 130.143,128.904 130.289,128.915 130.221,128.893 130.143,128.904 130.166,129.622 
			130.166,129.622 130.166,129.622 		"></polygon>
		<polygon fill-rule="evenodd" clip-rule="evenodd" fill="#FFFFFF" points="117.487,129.975 117.129,130.378 130.166,129.622 
			130.143,128.904 117.108,129.661 116.761,130.03 117.108,129.661 116.693,129.671 116.761,130.03 117.487,129.975 
			117.487,129.975 		"></polygon>
		<polygon fill-rule="evenodd" clip-rule="evenodd" fill="#FFFFFF" points="117.587,131.241 117.732,131.476 117.723,131.286 
			117.677,131.083 117.666,130.893 117.609,130.725 117.599,130.536 117.554,130.333 117.499,130.164 117.487,129.975 
			116.761,130.03 116.76,130.254 116.794,130.489 116.85,130.658 116.861,130.848 116.917,131.015 116.961,131.218 117.041,131.43 
			117.051,131.621 117.229,131.867 117.051,131.621 117.107,131.79 117.229,131.867 117.587,131.241 117.587,131.241 		"></polygon>
		<polygon fill-rule="evenodd" clip-rule="evenodd" fill="#FFFFFF" points="135.318,136.198 135.619,135.738 134.021,135.838 
			132.479,135.883 131.082,135.826 129.728,135.747 128.521,135.568 127.313,135.388 126.218,135.096 125.156,134.815 
			124.127,134.434 123.177,134.041 122.226,133.65 121.299,133.191 120.372,132.73 119.455,132.238 118.537,131.744 
			117.587,131.241 117.229,131.867 118.18,132.372 119.097,132.866 120.036,133.403 120.963,133.863 121.936,134.299 
			122.875,134.725 123.891,135.14 124.92,135.522 126.049,135.825 127.156,136.082 128.385,136.306 129.672,136.476 
			131.013,136.588 132.501,136.599 134.043,136.556 135.708,136.478 136.01,136.019 135.708,136.478 136.168,136.444 
			136.01,136.019 135.306,136.231 135.306,136.231 135.318,136.198 		"></polygon>
		<g>
			<polygon fill="none" points="142.062,140.931 142.337,141.196 142.062,140.931 			"></polygon>
			<polygon fill="none" points="139.587,140.837 139.522,140.84 139.522,140.84 			"></polygon>
			<polygon fill="none" points="133.518,122.715 143.302,125.985 133.518,122.715 			"></polygon>
		</g>
		<polygon fill-rule="evenodd" clip-rule="evenodd" fill="#FFFFFF" points="154.471,132.856 153.978,132.878 153.428,132.956 
			152.938,132.978 152.401,133.022 151.886,133.113 151.339,133.191 150.791,133.269 150.265,133.392 149.739,133.514 
			149.283,133.661 148.779,133.828 148.309,134.007 147.906,134.209 147.426,134.421 147.034,134.702 146.676,134.993 
			147.124,135.553 147.469,135.295 147.805,135.071 148.174,134.858 148.599,134.702 149.014,134.466 149.46,134.354 
			149.985,134.232 150.444,134.086 150.947,134.03 151.395,133.919 151.931,133.874 152.446,133.786 152.994,133.706 
			153.529,133.662 154.032,133.606 154.559,133.596 154.471,132.856 154.471,132.856 154.471,132.856 		"></polygon>
		<polygon fill-rule="evenodd" clip-rule="evenodd" fill="#FFFFFF" points="221.626,127.831 154.471,132.856 154.559,133.596 
			221.704,128.603 221.626,127.831 221.626,127.831 		"></polygon>
		<polygon fill-rule="evenodd" clip-rule="evenodd" fill="#FFFFFF" points="222.879,123.729 223.157,124.123 223.449,124.482 
			223.584,124.861 223.796,125.233 223.906,125.568 223.941,125.916 223.952,126.218 223.93,126.508 223.851,126.745 
			223.738,126.968 223.594,127.181 223.335,127.392 223.068,127.529 222.642,127.684 222.196,127.796 221.626,127.831 
			221.704,128.603 222.32,128.547 222.856,128.389 223.326,128.211 223.738,127.976 224.12,127.729 224.387,127.371 
			224.532,127.046 224.666,126.644 224.656,126.228 224.679,125.827 224.59,125.422 224.442,124.964 224.275,124.572 
			224.053,124.123 223.762,123.653 223.472,123.294 222.879,123.729 222.879,123.729 		"></polygon>
		<polygon fill-rule="evenodd" clip-rule="evenodd" fill="#FFFFFF" points="214.874,119.898 215.479,119.876 216.093,119.933 
			216.719,120.066 217.323,120.156 217.893,120.346 218.463,120.537 219.011,120.795 219.525,121.042 220.062,121.333 
			220.555,121.647 221.081,121.971 221.46,122.285 221.86,122.643 222.254,123.037 222.577,123.406 222.879,123.729 
			223.472,123.294 223.125,122.879 222.732,122.488 222.342,122.096 221.907,121.725 221.427,121.379 220.945,121.031 
			220.454,120.716 219.896,120.379 219.313,120.112 218.721,119.876 218.116,119.675 217.48,119.461 216.854,119.326 
			216.216,119.225 215.489,119.169 214.853,119.18 214.874,119.898 214.874,119.898 		"></polygon>
		<polygon fill-rule="evenodd" clip-rule="evenodd" fill="#FFFFFF" points="155.455,121.947 214.874,119.898 214.853,119.18 
			155.466,121.242 155.455,121.947 155.455,121.947 		"></polygon>
		<polygon fill-rule="evenodd" clip-rule="evenodd" fill="#FFFFFF" points="146.074,120.453 146.635,120.679 147.226,120.801 
			147.797,120.992 148.39,121.114 149.015,121.251 149.597,121.407 150.234,121.508 150.805,121.586 151.397,121.711 
			152.012,121.766 152.614,121.855 153.209,121.868 153.778,121.946 154.383,121.924 154.929,121.958 155.455,121.947 
			155.466,121.242 154.907,121.242 154.359,121.208 153.844,121.185 153.264,121.14 152.683,121.095 152.102,121.05 
			151.532,120.971 150.927,120.881 150.336,120.758 149.766,120.679 149.184,120.522 148.58,120.432 147.999,120.275 
			147.383,120.107 146.869,119.972 146.298,119.783 146.064,120.488 146.064,120.488 146.074,120.453 		"></polygon>
		<polygon fill-rule="evenodd" clip-rule="evenodd" fill="#FFFFFF" points="126.031,114.948 127.05,114.801 128.009,114.712 
			128.927,114.645 129.766,114.59 130.56,114.557 131.275,114.646 132.013,114.668 132.628,114.725 133.265,114.827 
			133.858,114.951 134.416,115.062 134.92,115.23 135.456,115.41 135.88,115.589 136.406,115.802 136.82,116.014 137.3,116.25 
			137.781,116.486 138.251,116.755 138.721,117.024 139.19,117.292 139.682,117.607 140.163,117.844 140.687,118.166 
			141.269,118.436 141.828,118.772 142.453,119.018 143.057,119.331 143.738,119.635 144.477,119.882 145.26,120.217 
			146.064,120.488 146.298,119.783 145.495,119.512 144.701,119.209 144.041,118.952 143.349,118.683 142.71,118.358 142.163,118.1 
			141.604,117.764 141.057,117.506 140.52,117.214 140.017,116.934 139.547,116.667 139.056,116.352 138.586,116.082 
			138.105,115.848 137.625,115.611 137.188,115.354 136.708,115.12 136.183,114.905 135.691,114.705 135.154,114.525 
			134.584,114.333 133.991,114.211 133.388,114.121 132.728,113.975 132.047,113.896 131.341,113.884 130.526,113.874 
			129.744,113.873 128.838,113.907 127.921,113.973 126.948,114.096 125.942,114.208 125.998,114.935 125.998,114.935 
			126.031,114.948 		"></polygon>
		<polygon fill-rule="evenodd" clip-rule="evenodd" fill="#FFFFFF" points="115.063,119.792 115.645,119.389 116.293,119.009 
			116.943,118.628 117.602,118.214 118.205,117.856 118.887,117.486 119.524,117.14 120.185,116.838 120.889,116.513 
			121.593,116.188 122.286,115.898 123.001,115.651 123.774,115.461 124.477,115.248 125.249,115.058 125.998,114.935 
			125.942,114.208 125.104,114.375 124.311,114.52 123.527,114.744 122.789,114.946 122.052,115.259 121.292,115.528 
			120.599,115.818 119.893,116.144 119.179,116.5 118.497,116.87 117.859,117.216 117.21,117.597 116.561,117.978 115.913,118.358 
			115.299,118.751 114.683,119.143 115.029,119.781 115.029,119.781 115.063,119.792 		"></polygon>
		<polygon fill-rule="evenodd" clip-rule="evenodd" fill="#FFFFFF" points="114.93,121.315 115.309,121.629 115.198,121.293 
			115.129,120.935 115.041,120.644 114.963,120.318 114.918,120.117 114.885,119.994 114.939,119.827 115.029,119.781 
			114.683,119.143 114.359,119.445 114.191,119.837 114.146,120.195 114.259,120.531 114.336,120.856 114.426,121.148 
			114.516,121.439 114.571,121.719 114.918,122.02 114.571,121.719 114.582,122.02 114.918,122.02 114.93,121.315 114.93,121.315 		
			"></polygon>
		<g>
			<polygon fill="none" points="142.362,123.992 142.365,123.994 142.274,124.373 			"></polygon>
			<polygon fill="#FFFFFF" points="142.375,123.958 142.365,123.994 142.362,123.992 			"></polygon>
			<polygon fill="#FFFFFF" points="142.207,124.126 142.362,123.992 142.274,124.373 			"></polygon>
			<g>
				<polygon fill="none" points="214.652,121.579 214.92,121.332 215.322,121.129 215.792,121.062 216.047,121.075 216.341,121.096 
					216.619,121.151 216.898,121.208 217.234,121.32 217.535,121.421 217.86,121.567 218.206,121.757 218.496,121.892 
					218.799,122.105 219.067,122.306 219.358,122.553 219.66,122.766 219.871,123.024 220.129,123.259 220.341,123.517 
					220.732,124.021 220.935,124.538 221.035,124.795 221.089,124.962 221.058,125.399 220.978,125.745 220.731,126.037 
					220.374,126.215 219.893,126.317 219.626,126.34 219.347,126.283 219.022,126.25 218.676,126.172 218.373,126.069 
					218.037,125.958 217.68,125.802 217.368,125.622 217.043,125.476 216.695,125.286 216.393,125.074 216.104,124.826 
					215.835,124.624 215.556,124.344 215.31,124.075 215.099,123.818 214.753,123.291 214.55,122.775 214.495,122.608 
					214.438,122.328 214.507,121.903 				"></polygon>
				<polygon fill="none" points="149.93,123.942 149.93,123.942 149.596,124.096 				"></polygon>
				<polygon fill="none" points="152.345,130.055 152.583,130.245 152.603,130.289 151.965,131.085 146.352,131.487 
					145.135,130.781 145.13,130.769 145.447,130.624 143.059,124.325 143.456,123.929 148.558,123.636 149.639,124.198 
					152.29,130.447 				"></polygon>
				<polygon fill="none" points="133.193,122.045 133.193,122.045 142.586,125.186 				"></polygon>
				<g>
					<polygon fill="none" points="214.652,121.579 214.92,121.332 215.322,121.129 215.792,121.062 216.047,121.075 
						216.341,121.096 216.619,121.151 216.898,121.208 217.234,121.32 217.535,121.421 217.86,121.567 218.206,121.757 
						218.496,121.892 218.799,122.105 219.067,122.306 219.358,122.553 219.66,122.766 219.871,123.024 220.129,123.259 
						220.341,123.517 220.732,124.021 220.935,124.538 221.035,124.795 221.089,124.962 221.058,125.399 220.978,125.745 
						220.731,126.037 220.374,126.215 219.893,126.317 219.626,126.34 219.347,126.283 219.022,126.25 218.676,126.172 
						218.373,126.069 218.037,125.958 217.68,125.802 217.368,125.622 217.043,125.476 216.695,125.286 216.393,125.074 
						216.104,124.826 215.835,124.624 215.556,124.344 215.31,124.075 215.099,123.818 214.753,123.291 214.55,122.775 
						214.495,122.608 214.438,122.328 214.507,121.903 					"></polygon>
					<polygon fill="none" points="148.558,123.636 149.639,124.198 152.29,130.447 152.345,130.055 152.583,130.245 
						152.603,130.289 151.965,131.085 146.352,131.487 145.135,130.781 145.13,130.769 145.447,130.624 143.059,124.325 
						143.456,123.929 					"></polygon>
					<polygon fill="none" points="133.193,122.045 133.193,122.045 142.586,125.186 					"></polygon>
					<g>
						<polygon fill="none" points="214.652,121.579 214.92,121.332 215.322,121.129 215.792,121.062 216.047,121.075 
							216.341,121.096 216.619,121.151 216.898,121.208 217.234,121.32 217.535,121.421 217.86,121.567 218.206,121.757 
							218.496,121.892 218.799,122.105 219.067,122.306 219.358,122.553 219.66,122.766 219.871,123.024 220.129,123.259 
							220.341,123.517 220.732,124.021 220.935,124.538 221.035,124.795 221.089,124.962 221.058,125.399 220.978,125.745 
							220.731,126.037 220.374,126.215 219.893,126.317 219.626,126.34 219.347,126.283 219.022,126.25 218.676,126.172 
							218.373,126.069 218.037,125.958 217.68,125.802 217.368,125.622 217.043,125.476 216.695,125.286 216.393,125.074 
							216.104,124.826 215.835,124.624 215.556,124.344 215.31,124.075 215.099,123.818 214.753,123.291 214.55,122.775 
							214.495,122.608 214.438,122.328 214.507,121.903 						"></polygon>
						<polygon fill="none" points="148.558,123.636 149.639,124.198 152.29,130.447 152.345,130.055 152.583,130.245 
							152.603,130.289 151.972,131.076 151.932,130.737 146.32,131.139 146.565,131.184 146.378,131.484 146.352,131.487 
							145.135,130.781 145.13,130.769 145.447,130.624 143.059,124.325 143.456,123.929 						"></polygon>
						<polygon fill="none" points="133.193,122.045 133.193,122.045 142.586,125.186 						"></polygon>
						<g>
							<polygon fill="none" points="152.488,129.057 163.123,132.611 152.488,129.057 							"></polygon>
							<polygon fill="none" points="152.211,128.404 164.463,132.5 152.211,128.404 							"></polygon>
							<polygon fill="none" points="214.652,121.579 214.92,121.332 215.322,121.129 215.792,121.062 216.047,121.075 
								216.341,121.096 216.619,121.151 216.898,121.208 217.234,121.32 217.535,121.421 217.86,121.567 218.206,121.757 
								218.496,121.892 218.799,122.105 219.067,122.306 219.358,122.553 219.66,122.766 219.871,123.024 220.129,123.259 
								220.341,123.517 220.732,124.021 220.935,124.538 221.035,124.795 221.089,124.962 221.058,125.399 220.978,125.745 
								220.731,126.037 220.374,126.215 219.893,126.317 219.626,126.34 219.347,126.283 219.022,126.25 218.676,126.172 
								218.373,126.069 218.037,125.958 217.68,125.802 217.368,125.622 217.043,125.476 216.695,125.286 216.393,125.074 
								216.104,124.826 215.835,124.624 215.556,124.344 215.31,124.075 215.099,123.818 214.753,123.291 214.55,122.775 
								214.495,122.608 214.438,122.328 214.507,121.903 							"></polygon>
							<polygon fill="none" points="148.558,123.636 149.639,124.198 152.29,130.447 152.345,130.055 152.583,130.245 
								152.603,130.289 151.972,131.076 151.965,131.085 146.378,131.484 146.352,131.487 145.135,130.781 145.13,130.769 
								145.447,130.624 143.059,124.325 143.456,123.929 							"></polygon>
							<polygon fill="none" points="133.193,122.045 133.193,122.045 142.586,125.186 							"></polygon>
							<polygon fill="#FFFFFF" points="152.211,128.404 164.463,132.5 163.133,132.58 163.123,132.611 152.488,129.057 							"></polygon>
							<g>
								<polygon fill="none" points="214.652,121.579 214.92,121.332 215.322,121.129 215.792,121.062 216.047,121.075 
									216.341,121.096 216.619,121.151 216.898,121.208 217.234,121.32 217.535,121.421 217.86,121.567 218.206,121.757 
									218.496,121.892 218.799,122.105 219.067,122.306 219.358,122.553 219.66,122.766 219.871,123.024 220.129,123.259 
									220.341,123.517 220.732,124.021 220.935,124.538 221.035,124.795 221.089,124.962 221.058,125.399 220.978,125.745 
									220.731,126.037 220.374,126.215 219.893,126.317 219.626,126.34 219.347,126.283 219.022,126.25 218.676,126.172 
									218.373,126.069 218.037,125.958 217.68,125.802 217.368,125.622 217.043,125.476 216.695,125.286 216.393,125.074 
									216.104,124.826 215.835,124.624 215.556,124.344 215.31,124.075 215.099,123.818 214.753,123.291 214.55,122.775 
									214.495,122.608 214.438,122.328 214.507,121.903 								"></polygon>
								<polygon fill="none" points="148.558,123.636 149.639,124.198 152.201,130.238 151.804,130.747 146.32,131.139 
									146.565,131.184 146.378,131.484 146.352,131.487 145.135,130.781 145.13,130.769 145.447,130.624 143.059,124.325 
									143.456,123.929 								"></polygon>
								<polygon fill="none" points="152.345,130.055 152.583,130.245 152.583,130.245 								"></polygon>
								<polygon fill="none" points="133.193,122.045 133.193,122.045 142.586,125.186 								"></polygon>
								<path fill="#FFFFFF" d="M114.918,122.02l15.561-0.508l0.326,0.034l0.301,0.101l0.403,0.135l0.368,0.124l0.334,0.225
									l0.248,0.157l0.144,0.234l0.111,0.112l6.19,18.684l0.09,0.292l0.302-0.011l0.313-0.044l0.358,0.044l0.436,0.033l0.414-0.01
									l0.402,0.021l0.37-0.101l0.413-0.123l0.335-0.223l0.404-0.426l0.335-0.447l0.313-0.381l0.312-0.38l0.27-0.359l0.257-0.324
									l0.223-0.337l0.268-0.357l0.224-0.336l0.257-0.324l0.257-0.326l0.279-0.28l0.292-0.312l0.335-0.337l0.336-0.336l0.425-0.379
									l-0.227-0.285l0.338-0.275l0.379-0.248l0.438-0.19l0.402-0.202l0.436-0.189l0.491-0.135l0.505-0.168l0.491-0.132l0.47-0.068
									l0.514-0.089l0.548-0.08l0.514-0.088l0.537-0.045l0.537-0.043l0.503-0.056l0.493-0.023l8.631-0.625l-10.635-3.554
									l-0.277-0.653l0,0l12.252,4.096l57.221-4.28l1.061-0.167l0.793-0.369l0.55-0.526l0.2-0.604v-0.671l0.012-0.034l-0.19-0.774
									l-0.379-0.761l-0.55-0.818l-0.323-0.37l-0.357-0.381l-0.392-0.391l-0.411-0.325l-0.438-0.369l-0.493-0.316l-0.524-0.324
									l-0.524-0.325l-0.56-0.224l-0.55-0.259l-0.604-0.201l-0.635-0.213l-0.604-0.089l-0.629-0.136l-0.647-0.067l-0.637,0.011
									l-8.641,0.323l-50.746,1.739h-0.559l-0.524,0.012l-0.594-0.013l-0.569-0.078l-0.582-0.045l-0.582-0.046l-0.569-0.078
									l-0.605-0.091l-0.603-0.088l-0.592-0.123l-0.594-0.125l-0.591-0.122l-0.615-0.169l-0.581-0.157l-0.549-0.146l-0.57-0.189
									l-0.805-0.271l-0.793-0.302l-0.693-0.27l-0.692-0.267l-0.605-0.315l-0.582-0.269l-0.604-0.314l-0.549-0.258l-0.524-0.323
									l-0.47-0.271l-0.503-0.28l-0.47-0.269l-0.503-0.28l-0.469-0.27l-0.447-0.224l-0.47-0.269l-0.481-0.235l-0.492-0.202
									l-0.47-0.157l-0.536-0.178l-0.571-0.191l-0.546-0.146l-0.604-0.091l-0.637-0.1l-0.648-0.067l-0.728-0.056l-0.771-0.035
									l-0.793,0.034l-0.828,0.021l-0.927,0.101l-0.962,0.09l-1.05,0.135l-0.783,0.11l-0.771,0.189l-0.773,0.191l-0.716,0.246
									l-0.758,0.27l-0.728,0.279l-0.692,0.291l-0.706,0.324l-0.67,0.337l-0.682,0.369l10.858,3.631l-14.615,0.489L114.918,122.02z
									 M214.438,122.328l0.068-0.425l0.146-0.324l0.268-0.247l0.402-0.202l0.47-0.067l0.255,0.013l0.294,0.021l0.278,0.055
									l0.279,0.057l0.336,0.111l0.301,0.101l0.325,0.146l0.346,0.19l0.29,0.135l0.303,0.213l0.269,0.201l0.291,0.247l0.302,0.213
									l0.211,0.258l0.258,0.235l0.212,0.257l0.392,0.505l0.202,0.516l0.101,0.258l0.054,0.167l-0.031,0.437l-0.08,0.346
									l-0.246,0.292l-0.357,0.179l-0.481,0.102l-0.267,0.023l-0.279-0.057l-0.324-0.033l-0.347-0.078l-0.303-0.103l-0.336-0.112
									l-0.357-0.156l-0.312-0.18l-0.325-0.146l-0.348-0.19l-0.303-0.211l-0.289-0.249l-0.269-0.202l-0.279-0.28l-0.246-0.27
									l-0.211-0.257l-0.346-0.527l-0.203-0.515l-0.055-0.167L214.438,122.328z M152.583,130.245L152.583,130.245l-0.238-0.19
									L152.583,130.245z M143.059,124.325l0.397-0.396l5.102-0.293l1.082,0.562l2.562,6.041l-0.397,0.509l-5.484,0.392
									l0.246,0.045l-0.187,0.3l-0.026,0.003l-1.217-0.706l-0.005-0.013l0.317-0.145L143.059,124.325z"></path>
							</g>
						</g>
					</g>
				</g>
			</g>
		</g>
		<polygon fill-rule="evenodd" clip-rule="evenodd" points="210.982,126.212 210.67,126.034 210.614,125.753 211.061,125.641 
			211.151,125.933 210.883,125.731 210.982,126.212 210.982,126.212 		"></polygon>
		<polygon fill-rule="evenodd" clip-rule="evenodd" points="211.589,125.855 211.521,125.945 211.407,126.056 211.273,126.123 
			211.141,126.19 210.982,126.212 210.883,125.731 210.949,125.753 211.051,125.675 211.174,125.641 211.185,125.607 
			211.163,125.675 211.576,125.889 211.576,125.889 211.589,125.855 		"></polygon>
		<polygon fill-rule="evenodd" clip-rule="evenodd" points="210.325,123.042 210.358,123.053 210.57,123.312 210.849,123.592 
			211.118,123.905 211.373,124.252 211.587,124.621 211.71,125.037 211.712,125.484 211.576,125.889 211.163,125.675 
			211.252,125.407 211.231,125.138 211.151,124.813 210.949,124.523 210.728,124.186 210.482,123.917 210.201,123.636 
			209.988,123.38 210.021,123.391 210.325,123.042 210.325,123.042 		"></polygon>
		<polygon fill-rule="evenodd" clip-rule="evenodd" points="206.212,121.854 206.177,121.842 206.77,121.854 207.327,121.854 
			207.854,121.956 208.357,122.011 208.872,122.146 209.352,122.382 209.854,122.662 210.325,123.042 210.021,123.391 
			209.563,123.087 209.127,122.83 208.715,122.618 208.267,122.503 207.775,122.414 207.272,122.358 206.758,122.336 
			206.233,122.347 206.245,122.312 206.166,121.876 206.166,121.876 206.212,121.854 		"></polygon>
		<polygon fill-rule="evenodd" clip-rule="evenodd" points="162.587,124.145 162.778,124.021 206.166,121.876 206.245,122.312 
			162.844,124.491 163.035,124.37 162.587,124.145 162.587,124.145 		"></polygon>
		<polygon fill-rule="evenodd" clip-rule="evenodd" points="161.557,125.668 161.089,125.511 161.122,125.186 161.211,124.918 
			161.347,124.627 161.523,124.424 161.76,124.28 162.062,124.157 162.397,124.044 162.778,124.021 162.844,124.491 
			162.486,124.559 162.163,124.637 162.006,124.659 161.85,124.793 161.772,124.918 161.647,125.064 161.581,125.264 
			161.592,125.566 161.122,125.409 161.557,125.668 161.557,125.668 		"></polygon>
		<g>
			<polygon fill="none" points="162.779,124.035 162.844,124.491 162.779,124.035 			"></polygon>
			<g>
				<polygon fill="none" points="161.592,125.566 161.647,125.288 161.781,124.996 161.894,124.772 162.129,124.627 
					162.409,124.568 162.8,124.513 162.844,124.491 206.245,122.312 206.97,122.37 207.576,122.347 208.146,122.426 
					208.669,122.528 209.151,122.762 209.585,123.019 209.988,123.38 210.448,123.905 210.849,124.377 211.141,124.846 
					211.285,125.193 211.285,125.417 211.185,125.607 210.906,125.776 210.38,125.899 209.643,125.987 165.046,128.291 
					165.012,128.278 164.387,128.256 163.772,128.087 163.224,127.831 162.754,127.561 162.363,127.169 162.084,126.777 
					161.838,126.397 161.647,126.071 161.613,125.836 				"></polygon>
				<g>
					<path fill="none" d="M161.647,125.288l-0.056,0.278l0.021,0.27l0.034,0.234l0.19,0.326l0.246,0.38l0.279,0.392l0.391,0.392
						l0.47,0.27l0.549,0.257l0.614,0.169l0.625,0.022l0.034,0.012l44.597-2.303l0.737-0.088l0.526-0.123l0.278-0.169l0.101-0.19
						v-0.224l-0.145-0.347l-0.292-0.469l-0.4-0.472l-0.46-0.525l-0.403-0.361l-0.434-0.257l-0.482-0.234l-0.523-0.102l-0.569-0.079
						l-0.606,0.022l-0.725-0.057l-43.401,2.179l-0.044,0.022l-0.391,0.055l-0.28,0.059l-0.235,0.146l-0.112,0.223L161.647,125.288z
						 M162.263,125.008l43.4-2.179l0.021-0.067l0.581,0.044l0.559,0.001l0.527,0.102l0.503,0.055l0.515,0.135l0.479,0.235
						l0.469,0.27l0.504,0.391l0.188,0.214l0.169,0.167l0.157,0.202l0.134,0.156l0.189,0.213l0.146,0.236l0.121,0.189l0.124,0.191
						l0.01,0.077l-0.446,0.112l0.011,0.079l-0.112-0.225l-0.121-0.189l-0.169-0.167l-0.123-0.191l-0.133-0.157l-0.157-0.202
						l-0.167-0.168l-0.199-0.179l0.012-0.014l-0.396-0.299l-0.426-0.292l-0.423-0.178l-0.446-0.113l-0.492-0.091l-0.504-0.056
						l-0.548-0.034l-0.524,0.012l-43.388,2.145L162.263,125.008z"></path>
					<g>
						<path fill="none" d="M161.647,125.288l-0.056,0.278l0.021,0.27l0.034,0.234l0.19,0.326l0.246,0.38l0.279,0.392l0.391,0.392
							l0.47,0.27l0.549,0.257l0.614,0.169l0.625,0.022l0.034,0.012l44.597-2.303l0.737-0.088l0.526-0.123l0.278-0.169l0.101-0.19
							v-0.224l-0.145-0.347l-0.292-0.469l-0.4-0.472l-0.46-0.525l-0.403-0.361l-0.434-0.257l-0.482-0.234l-0.523-0.102l-0.569-0.079
							l-0.606,0.022l-0.725-0.057l-43.401,2.179l-0.044,0.022l-0.391,0.055l-0.28,0.059l-0.235,0.146l-0.112,0.223L161.647,125.288z
							"></path>
						<g>
							<polygon fill="none" points="161.781,124.996 161.894,124.772 162.129,124.627 162.409,124.568 162.665,124.534 
								162.309,125.209 205.707,123.03 206.266,123.031 206.781,123.053 207.306,123.154 207.809,123.21 208.289,123.333 
								208.748,123.523 209.206,123.828 209.654,124.162 209.81,124.365 209.977,124.532 210.134,124.733 210.303,124.902 
								210.424,125.093 210.582,125.294 210.706,125.484 210.849,125.719 210.867,125.785 210.38,125.899 209.643,125.987 
								165.046,128.291 165.012,128.278 164.387,128.256 163.772,128.087 163.224,127.831 162.754,127.561 162.363,127.169 
								162.084,126.777 161.838,126.397 161.647,126.071 161.613,125.836 161.592,125.566 161.647,125.288 							"></polygon>
							<polygon points="210.706,125.484 210.582,125.294 210.424,125.093 210.303,124.902 210.134,124.733 209.977,124.532 
								209.81,124.365 209.654,124.162 209.206,123.828 208.748,123.523 208.289,123.333 207.809,123.21 207.306,123.154 
								206.781,123.053 206.266,123.031 205.707,123.03 162.309,125.209 162.665,124.534 162.8,124.513 162.844,124.491 
								206.245,122.312 206.97,122.37 207.576,122.347 208.146,122.426 208.669,122.528 209.151,122.762 209.585,123.019 
								209.988,123.38 210.448,123.905 210.849,124.377 211.141,124.846 211.285,125.193 211.285,125.417 211.185,125.607 
								210.906,125.776 210.867,125.785 210.849,125.719 							"></polygon>
							<g>
								<polygon fill="none" points="161.668,125.242 161.703,125.232 161.927,125.232 162.309,125.209 162.67,124.532 
									162.8,124.513 162.844,124.491 206.245,122.312 206.97,122.37 207.576,122.347 208.146,122.426 208.669,122.528 
									209.151,122.762 209.585,123.019 209.988,123.38 210.448,123.905 210.849,124.377 211.141,124.846 211.285,125.193 
									211.285,125.417 211.185,125.607 210.906,125.776 210.867,125.785 210.38,125.899 209.643,125.987 165.046,128.291 
									165.012,128.278 164.387,128.256 163.772,128.087 163.224,127.831 162.754,127.561 162.363,127.169 162.084,126.777 
									161.838,126.397 161.647,126.071 161.613,125.836 161.592,125.566 161.647,125.288 								"></polygon>
								<path d="M161.089,125.511l0.046,0.425l0.089,0.292l0.123,0.415l0.289,0.469l0.358,0.382l0.457,0.415l0.55,0.369l0.613,0.282
									l0.648,0.177l0.783,0.001l44.584-2.266l0.849-0.09l0.604-0.134l0.438-0.302l0.246-0.404l-0.012-0.414l-0.168-0.506
									l-0.323-0.48l-0.447-0.562l-0.458-0.526l-0.492-0.426l-0.524-0.323l-0.515-0.246l-0.561-0.112l-0.669-0.113h-0.671
									l-0.761,0.044l-43.388,2.145l0.001,0.013l-0.462,0.02l-0.468,0.179l-0.312,0.27l-0.214,0.303l-0.146,0.323L161.089,125.511z
									 M161.592,125.566l0.056-0.278l0.021-0.046l0.035-0.01h0.224l0.382-0.022l0.361-0.678l0.13-0.019l0.044-0.022l43.401-2.179
									l0.725,0.057l0.606-0.022l0.569,0.079l0.523,0.102l0.482,0.234l0.434,0.257l0.403,0.361l0.46,0.525l0.4,0.472l0.292,0.469
									l0.145,0.347v0.224l-0.101,0.19l-0.278,0.169l-0.039,0.009l-0.487,0.114l-0.737,0.088l-44.597,2.303l-0.034-0.012
									l-0.625-0.022l-0.614-0.169l-0.549-0.257l-0.47-0.27l-0.391-0.392l-0.279-0.392l-0.246-0.38l-0.19-0.326l-0.034-0.234
									L161.592,125.566z"></path>
							</g>
						</g>
					</g>
				</g>
			</g>
		</g>
	</g>
</g>
</svg>