<svg version="1.1" id="cuts" xmlns="http://www.w3.org/2000/svg" xmlns:xlink="http://www.w3.org/1999/xlink" x="0px" y="0px" width="675" height="2475" viewBox="0 0 675 2475" enable-background="new 0 0 162 594" xml:space="preserve">
<rect fill="#919396" width="162" height="594"></rect>
<rect x="9" y="9" fill="#FFFFFF" stroke="#EC1C24" stroke-miterlimit="10" width="144" height="576"></rect>
<g id="Layer_2">
	<rect x="20.332" y="188.407" fill="#E7E6E6" width="121" height="54.333"></rect>
	<rect x="20.665" y="20.74" fill="#E7E6E6" width="121" height="23.666"></rect>
</g>
<rect x="18" y="18" fill="none" stroke="#00ADEE" stroke-miterlimit="10" stroke-dasharray="1.44,1.44" width="126" height="558"></rect>






















<g>
	<defs>
		<rect id="SVGID_1_" x="6.439" y="9.668" width="146.458" height="244.665"></rect>
	</defs>
	<clipPath id="SVGID_2_">
		<use xlink:href="#SVGID_1_" overflow="visible"></use>
	</clipPath>
	<rect x="132.925" y="160.714" clip-path="url(#SVGID_2_)" fill="#F9A51B" width="19.973" height="23.637"></rect>
	<line clip-path="url(#SVGID_2_)" fill="none" stroke="#F9A51B" x1="100.907" y1="161.166" x2="148.455" y2="161.166"></line>
	<line clip-path="url(#SVGID_2_)" fill="none" stroke="#EA222A" x1="107.591" y1="89.194" x2="153.336" y2="89.194"></line>
	<line clip-path="url(#SVGID_2_)" fill="none" stroke="#919396" x1="102.783" y1="107.243" x2="155.336" y2="107.243"></line>
	
		<line clip-path="url(#SVGID_2_)" fill="none" stroke="#2BA4DD" stroke-dasharray="1.44,1.44" x1="105.905" y1="53.174" x2="142.669" y2="53.174"></line>
	<path clip-path="url(#SVGID_2_)" fill="#EA222A" d="M105.914,46.89c0,0.372-0.139,0.736-0.414,1.089l-0.043,0.054l-2.41,3.111
		c-0.513,0.659-0.949,1.168-1.31,1.528c-0.359,0.361-0.613,0.541-0.761,0.541c-0.156,0-0.351-0.091-0.582-0.27
		c-0.231-0.182-0.382-0.366-0.448-0.558c-0.06-0.159-0.113-0.497-0.162-1.013c-0.052-0.516-0.075-1.076-0.075-1.677
		c0-0.329,0.11-0.633,0.334-0.911c0.226-0.279,0.473-0.417,0.741-0.417c0.257,0,0.411,0.289,0.461,0.865
		c0.004,0.067,0.01,0.117,0.012,0.148c0.042,0.442,0.089,0.751,0.143,0.927c0.056,0.175,0.13,0.263,0.224,0.263
		c0.039,0,0.112-0.052,0.219-0.155c0.105-0.104,0.233-0.245,0.382-0.423l2.478-3.007c0.208-0.253,0.394-0.447,0.558-0.577
		c0.164-0.132,0.303-0.196,0.418-0.196c0.085,0,0.146,0.04,0.184,0.119c0.035,0.08,0.054,0.214,0.054,0.402V46.89z"></path>
	<path clip-path="url(#SVGID_2_)" fill="#EA222A" d="M106.812,82.208c0,0.372-0.137,0.736-0.413,1.089l-0.044,0.054l-2.408,3.109
		c-0.515,0.66-0.949,1.169-1.31,1.53c-0.359,0.36-0.614,0.54-0.763,0.54c-0.156,0-0.351-0.089-0.581-0.27
		c-0.231-0.181-0.38-0.367-0.449-0.558c-0.056-0.158-0.111-0.497-0.162-1.013c-0.05-0.516-0.075-1.075-0.075-1.677
		c0-0.329,0.112-0.633,0.336-0.911s0.471-0.417,0.741-0.417c0.258,0,0.41,0.288,0.459,0.864c0.006,0.067,0.01,0.116,0.014,0.149
		c0.04,0.442,0.089,0.751,0.143,0.927c0.056,0.175,0.131,0.263,0.222,0.263c0.039,0,0.112-0.052,0.22-0.155
		c0.106-0.104,0.235-0.245,0.381-0.425l2.479-3.005c0.209-0.254,0.394-0.447,0.558-0.577c0.164-0.132,0.302-0.197,0.419-0.197
		c0.085,0,0.145,0.041,0.182,0.119c0.038,0.08,0.054,0.214,0.054,0.402V82.208z"></path>
	<path clip-path="url(#SVGID_2_)" fill="#EA222A" d="M102.744,99.788c0,0.373-0.137,0.737-0.413,1.09l-0.044,0.053l-2.41,3.11
		c-0.513,0.659-0.949,1.168-1.31,1.529c-0.357,0.359-0.612,0.541-0.761,0.541c-0.156,0-0.351-0.09-0.582-0.271
		c-0.23-0.18-0.381-0.366-0.448-0.557c-0.058-0.159-0.113-0.496-0.162-1.013c-0.05-0.516-0.075-1.075-0.075-1.676
		c0-0.329,0.11-0.632,0.334-0.911c0.226-0.279,0.473-0.418,0.741-0.418c0.258,0,0.411,0.288,0.461,0.865
		c0.004,0.067,0.01,0.116,0.012,0.148c0.042,0.442,0.089,0.751,0.143,0.927c0.056,0.174,0.131,0.262,0.224,0.262
		c0.039,0,0.112-0.051,0.22-0.154c0.104-0.104,0.233-0.245,0.381-0.424l2.479-3.005c0.207-0.255,0.393-0.447,0.558-0.579
		c0.164-0.13,0.302-0.196,0.417-0.196c0.085,0,0.146,0.041,0.184,0.12c0.036,0.08,0.054,0.214,0.054,0.401V99.788z"></path>
	<path clip-path="url(#SVGID_2_)" fill="#EA222A" d="M100.734,154.702c0,0.374-0.138,0.737-0.413,1.09l-0.043,0.054l-2.408,3.11
		c-0.515,0.659-0.949,1.168-1.31,1.529c-0.359,0.361-0.615,0.539-0.763,0.539c-0.156,0-0.351-0.09-0.582-0.269
		c-0.229-0.18-0.38-0.365-0.448-0.557c-0.058-0.159-0.111-0.497-0.162-1.012c-0.05-0.517-0.075-1.077-0.075-1.679
		c0-0.328,0.112-0.632,0.334-0.909c0.226-0.28,0.473-0.419,0.743-0.419c0.257,0,0.409,0.288,0.459,0.865
		c0.006,0.067,0.01,0.116,0.014,0.149c0.04,0.441,0.089,0.751,0.143,0.927c0.056,0.174,0.131,0.262,0.222,0.262
		c0.039,0,0.112-0.051,0.219-0.156c0.107-0.102,0.235-0.244,0.382-0.421l2.478-3.007c0.21-0.255,0.394-0.448,0.558-0.577
		c0.164-0.131,0.303-0.196,0.42-0.196c0.085,0,0.144,0.038,0.182,0.118c0.037,0.08,0.053,0.214,0.053,0.402V154.702z"></path>
</g>






<g>
	<defs>
		<rect id="SVGID_3_" x="6.439" y="9.668" width="146.458" height="244.665"></rect>
	</defs>
	<clipPath id="SVGID_4_">
		<use xlink:href="#SVGID_3_" overflow="visible"></use>
	</clipPath>
	<path clip-path="url(#SVGID_4_)" fill-rule="evenodd" clip-rule="evenodd" d="M59.386,211.183c0,9.796-7.941,17.736-17.737,17.736
		c-9.796,0-17.738-7.94-17.738-17.736c0-9.797,7.941-17.738,17.738-17.738C51.444,193.444,59.386,201.386,59.386,211.183"></path>
	<path clip-path="url(#SVGID_4_)" fill-rule="evenodd" clip-rule="evenodd" fill="#B7D333" d="M57.786,211.28
		c0,8.905-7.219,16.125-16.125,16.125s-16.125-7.22-16.125-16.125c0-8.906,7.219-16.125,16.125-16.125S57.786,202.374,57.786,211.28
		"></path>
	<path clip-path="url(#SVGID_4_)" d="M38.208,207.765c-0.224,1.976-0.39,3.564-0.501,4.762l-0.734,0.032
		c0.011-0.04,0.016-0.085,0.017-0.135c0-0.089-0.032-0.208-0.099-0.354c-0.068-0.146-0.106-0.24-0.116-0.279
		c-0.189,0.027-0.372,0.16-0.545,0.395c-0.175,0.238-0.333,0.356-0.471,0.354c-0.08-0.003-0.17-0.024-0.27-0.064
		c-0.131,0.087-0.301,0.125-0.511,0.112c-0.19-0.034-0.375-0.062-0.554-0.085c-0.006-0.252-0.251-0.47-0.739-0.658
		c0.003-0.1-0.048-0.248-0.149-0.445c-0.102-0.197-0.151-0.334-0.149-0.415c0-0.09,0.036-0.164,0.107-0.223
		c-0.01-0.03-0.092-0.216-0.245-0.56c-0.106-0.252-0.157-0.467-0.154-0.646c0.003-0.14,0.035-0.27,0.098-0.389
		c-0.086-0.852-0.124-1.583-0.113-2.191c0.016-0.94,0.15-1.803,0.404-2.59c-0.018-0.121-0.026-0.24-0.024-0.36
		c0.011-0.629,0.229-1.066,0.652-1.309l0.004-0.194c0.418-0.535,0.969-0.919,1.654-1.157c0.41,0.098,0.818,0.188,1.225,0.277
		c0.458,0.157,0.773,0.427,0.946,0.81c0.139,0.083,0.207,0.25,0.202,0.498c-0.005,0.281,0.027,0.462,0.096,0.543l-0.076,0.088
		c0.08,0.592,0.119,0.952,0.117,1.082c-0.007,0.38-0.107,0.648-0.299,0.805c-0.07,0-0.254-0.063-0.552-0.189
		c-0.071,0.069-0.147,0.103-0.226,0.101c-0.041-0.001-0.113-0.022-0.217-0.063c-0.104-0.042-0.192-0.062-0.262-0.064
		c-0.05,0-0.101,0.008-0.149,0.027c-0.007-0.79,0.018-1.38,0.075-1.769c-0.08-0.051-0.16-0.169-0.241-0.348
		c-0.083-0.182-0.188-0.284-0.317-0.306c-0.083,0.1-0.119,0.164-0.109,0.194l-0.269-0.094c-0.244,0.265-0.408,0.728-0.488,1.386
		c-0.083,0.759-0.187,1.261-0.311,1.509c0.107,0.112,0.161,0.268,0.156,0.468c-0.001,0.07-0.013,0.186-0.035,0.344
		c-0.024,0.16-0.035,0.28-0.036,0.36c-0.003,0.09,0.005,0.17,0.025,0.241l-0.183,0.177c0.074,0.341,0.117,0.772,0.128,1.293
		c-0.008,0.439-0.011,0.879-0.008,1.319c-0.009,0-0.095,0.003-0.253,0.01c-0.1-0.002-0.172,0.032-0.212,0.101
		c0.06-0.008,0.114-0.013,0.165-0.011c0.219,0.003,0.392,0.158,0.516,0.465c0.126,0.308,0.234,0.462,0.324,0.464
		c0.1,0.001,0.235-0.091,0.41-0.28c0.294-0.314,0.447-0.747,0.457-1.296c0.005-0.27-0.025-0.561-0.09-0.871
		c-0.071,0.037-0.108,0.138-0.111,0.297c-0.159-0.002-0.261,0.031-0.301,0.099c-0.069-0.021-0.1-0.077-0.087-0.165
		c0.013-0.13,0.018-0.201,0.018-0.211c0.121-0.037,0.181-0.092,0.184-0.162c0-0.029-0.021-0.086-0.065-0.166
		c-0.043-0.081-0.064-0.146-0.064-0.197c0.001-0.041,0.012-0.079,0.032-0.119l0.07-0.584c0.219,0.065,0.692,0.092,1.424,0.085
		c-0.022,0.049,0.008,0.114,0.086,0.195c0.071-0.069,0.146-0.103,0.227-0.101c0.06,0.002,0.149,0.028,0.268,0.08
		C38.073,207.737,38.158,207.763,38.208,207.765"></path>
	<path clip-path="url(#SVGID_4_)" d="M43.806,212.929c-0.139-0.062-0.289-0.094-0.448-0.098c-0.141-0.002-0.332,0.025-0.572,0.083
		c-0.271,0.054-0.457,0.084-0.556,0.094c-0.107-0.211-0.182-0.503-0.225-0.874c-0.081-0.542-0.131-0.847-0.15-0.918
		c0.032-0.058,0.048-0.109,0.048-0.148c0.002-0.11-0.083-0.209-0.257-0.298c-0.174-0.086-0.259-0.157-0.259-0.207
		c0-0.059,0.102-0.147,0.303-0.264c-0.048-0.06-0.084-0.184-0.105-0.368c-0.021-0.186-0.068-0.309-0.136-0.371
		c-0.123,0.108-0.321,0.178-0.597,0.208c-0.276,0.031-0.458,0.075-0.549,0.133c0.006,0.78-0.122,1.304-0.387,1.568
		c-0.14-0.032-0.247,0.021-0.318,0.16c-0.103,0.168-0.189,0.266-0.26,0.295l0.087,0.106c-0.08,0.069-0.211,0.097-0.39,0.084
		c-0.281-0.015-0.43-0.022-0.451-0.022l-0.084-0.272l0.977-8.098c0.009-0.51,0.035-0.856,0.078-1.035
		c-0.013-0.451,0.093-0.728,0.314-0.834c0.138,0.092,0.313,0.14,0.523,0.144c0.17,0.003,0.436-0.032,0.796-0.107
		c0.363-0.073,0.613-0.11,0.753-0.108c0.489,0.009,0.703,0.362,0.642,1.062c-0.05,0.559,0.038,1.296,0.262,2.209
		c0.234,0.984,0.346,1.721,0.338,2.212c-0.003,0.148,0.047,0.46,0.034,0.61c-0.213,0.115-0.483,0.187-0.813,0.21
		c-0.291,0.016-0.586,0.031-0.886,0.044c-0.077-0.76-0.211-1.678-0.288-2.429c-0.095-0.901-0.212-1.643-0.353-2.227l-0.463,4.283
		c-0.036,0.37,0.131,0.558,0.501,0.564c0.12,0.001,0.235-0.026,0.347-0.085c0.091-0.028,0.215,0.038,0.372,0.202
		c-0.005,0.31,0.056,0.496,0.186,0.558c0.161-0.107,0.373-0.208,0.634-0.304c0.231-0.086,0.459-0.167,0.68-0.244
		c0.126,0.173,0.208,0.429,0.242,0.77c0.042,0.481,0.073,0.761,0.09,0.841c0.017,0.191,0.095,0.601,0.234,1.234
		c0.101,0.501,0.15,0.907,0.145,1.217C43.84,212.661,43.826,212.8,43.806,212.929"></path>
	<path clip-path="url(#SVGID_4_)" d="M50.712,205.786c-0.011,0.03-0.015,0.206-0.009,0.525c-0.006,0.259-0.038,0.454-0.099,0.583
		c-0.075,0.2-0.114,0.485-0.121,0.854c-0.001,0.081,0.002,0.206,0.01,0.375c-0.004,0.171-0.005,0.295-0.007,0.375
		c-0.011,0.629-0.118,1.087-0.325,1.374c0.018,0.162,0.026,0.322,0.024,0.481c-0.009,0.5-0.181,1.172-0.514,2.017
		c-0.09,0.028-0.167,0.042-0.228,0.041c-0.12-0.003-0.205-0.072-0.258-0.208c-0.053-0.135-0.103-0.263-0.151-0.384
		c0.033-0.769,0.017-1.89-0.048-3.361l0.091-0.089c-0.065-0.26-0.094-0.55-0.089-0.872c0.003-0.229,0.032-0.563,0.084-1.003
		c0.052-0.439,0.081-0.77,0.083-0.989c0.003-0.14,0-0.275-0.006-0.405c-0.346,0.824-0.59,2.219-0.733,4.187l-0.125,0.298
		c-0.042,0.1-0.128,0.154-0.258,0.161c-0.038-0.069-0.079-0.105-0.117-0.106c-0.03-0.002-0.085,0.035-0.16,0.109
		c-0.077,0.073-0.141,0.105-0.19,0.094l-0.198,0.175c0.088,0.113,0.277,0.125,0.57,0.042c0.23-0.068,0.35,0.02,0.355,0.26
		c0.006,0.2-0.048,0.468-0.164,0.807c-0.116,0.338-0.176,0.591-0.177,0.762c-0.002,0.121,0.01,0.241,0.038,0.36l-1.037,0.164
		c-0.097-0.202-0.169-0.541-0.216-1.017c-0.045-0.475-0.117-0.814-0.214-1.016c0.06-0.068,0.091-0.142,0.093-0.224
		c0.001-0.07-0.026-0.176-0.084-0.316c-0.059-0.142-0.09-0.247-0.101-0.318c-0.008-0.109-0.042-0.375-0.106-0.796
		c-0.043-0.34-0.065-0.607-0.062-0.795c0.002-0.102,0.009-0.191,0.021-0.271c0.001-0.07-0.04-0.172-0.116-0.31
		c-0.077-0.136-0.115-0.234-0.113-0.295c0-0.049,0.02-0.093,0.062-0.133c-0.069-0.082-0.097-0.222-0.084-0.421
		c0.014-0.2-0.014-0.341-0.083-0.421c-0.146,0.386-0.225,0.911-0.236,1.569c-0.005,0.92-0.014,1.452-0.027,1.59l0.104,0.093
		l-0.106,0.087c0.072,0.361,0.106,0.822,0.096,1.381c-0.027,1.01-0.04,1.48-0.04,1.411c-0.141,0.127-0.337,0.189-0.588,0.185
		c-0.31-0.004-0.521,0.022-0.631,0.079c-0.126-0.222-0.188-0.507-0.18-0.857c0.004-0.27,0.05-0.599,0.136-0.988
		c-0.136-0.253-0.199-0.603-0.191-1.054c0.001-0.11,0.015-0.318,0.04-0.629c0.015-0.25,0.018-0.436,0.011-0.554
		c0.1-0.048,0.151-0.102,0.151-0.163c0.002-0.04-0.029-0.108-0.094-0.205c-0.063-0.094-0.095-0.168-0.094-0.218
		c0.001-0.061,0.042-0.119,0.123-0.178l-0.323-4.851c0.193-0.126,0.503-0.187,0.934-0.179c0.469,0.019,0.791-0.007,0.961-0.073
		c0.031-0.021,0.066-0.029,0.106-0.029c0.04,0.002,0.087,0.024,0.141,0.07c0.055,0.045,0.092,0.069,0.111,0.069
		c0.04,0,0.076-0.029,0.107-0.088l0.281,0.276c0.094,0.352,0.182,1.033,0.266,2.043c0.083,0.871,0.218,1.53,0.401,1.973
		c0.245-0.886,0.447-1.627,0.606-2.224l0.327-2.375l2.325-0.05c0.008,0.129,0.037,0.825,0.099,1.227
		c0.053,0.35,0.08,0.636,0.077,0.855c-0.004,0.25-0.043,0.474-0.117,0.673c0.078,0.112,0.116,0.252,0.113,0.421
		C50.838,205.539,50.793,205.677,50.712,205.786"></path>
	<path clip-path="url(#SVGID_4_)" d="M55.484,211.043v-0.015c-0.062,0.128-0.101,0.278-0.113,0.447
		c-0.012,0.11-0.015,0.265-0.008,0.465c0.007,0.23,0.008,0.39,0.008,0.48c-0.082-0.001-0.4-0.007-0.96-0.016
		c-0.34-0.005-0.645,0.023-0.917,0.09l-0.279-0.305c-0.083,0.078-0.114,0.143-0.094,0.193c-0.049-0.011-0.28-0.014-0.69-0.011
		c-0.321-0.005-0.559-0.041-0.717-0.103c-0.164,0.168-0.354,0.164-0.571-0.01c-0.079-0.061-0.085-0.164-0.024-0.308
		c0.063-0.144,0.044-0.252-0.055-0.324c0.016-0.319,0.06-0.813,0.13-1.483c0.07-0.598,0.108-1.068,0.114-1.408
		c0.007-0.46-0.024-0.901-0.097-1.322c0.112-0.108,0.237-0.161,0.377-0.158c0.161,0.002,0.349,0.081,0.567,0.235
		c0.306,0.213,0.465,0.323,0.475,0.323l0.087,0.105c0.011-0.03,0.064-0.188,0.159-0.477c0.053-0.189,0.13-0.312,0.231-0.372
		l0.088,0.092c0.041-0.019,0.172-0.112,0.396-0.278c0.17-0.118,0.311-0.395,0.41-0.392c0.112,0,0.214,0.062,0.312,0.185
		c0.169,0.091,0.274,0.452,0.327,0.636c0.052,0.187,0.102,0.37,0.149,0.551c-0.451,0.013-0.821,0-1.11-0.035
		c-0.071,0.109-0.172,0.125-0.301,0.048c-0.127-0.077-0.222-0.065-0.284,0.032c-0.004,0.18-0.01,0.506-0.018,0.976
		c-0.017,0.418-0.021,0.749-0.015,0.99c0.002,0.37,0.026,0.71,0.071,1.021c0.08,0.001,0.459,0.009,1.139,0.02
		C54.74,210.926,55.144,210.967,55.484,211.043 M55.516,203.858c-0.09,0.008-0.19,0.011-0.3,0.01
		c-0.231-0.004-0.536-0.04-0.915-0.106c-0.469-0.067-0.752-0.107-0.853-0.119c-0.143,0.208-0.218,0.501-0.226,0.881
		c-0.013,0.82-0.013,1.175-0.002,1.064c0.139,0.082,0.207,0.234,0.203,0.454c-0.017,0.3-0.019,0.456-0.008,0.466
		c-0.071,0.028-0.108,0.127-0.11,0.297c-0.11-0.042-0.224-0.125-0.341-0.247c-0.157-0.152-0.241,0.365-0.23,0.236l-0.094,0.308
		l-0.089-0.091c-0.081,0.008-0.217-0.034-0.411-0.128c-0.193-0.093-0.329-0.178-0.408-0.261c0.004-0.16,0.03-0.249,0.079-0.268
		l-0.19-0.213l-0.093,0.133c-0.111-1.042-0.085-2.99,0.054-4.088c0.379,0.067,0.799,0.109,1.259,0.127
		c0.31,0.015,0.744,0.022,1.303,0.022c0.641,0.001,1.103,0.003,1.381,0.008c0.116,0.111,0.175,0.257,0.171,0.438
		c0,0.11-0.032,0.287-0.091,0.53C55.548,203.557,55.518,203.738,55.516,203.858"></path>
	<path clip-path="url(#SVGID_4_)" d="M38.659,220.112v-0.008c0,0.004-0.025,0.226-0.077,0.661c-0.026,0.268-0.091,0.479-0.194,0.632
		l-0.064-0.053c-0.122,0.254-0.287,0.41-0.497,0.464c-0.101,0.105-0.245,0.163-0.434,0.175c-0.111,0.007-0.371-0.026-0.777-0.098
		c-0.195-0.122-0.303-0.19-0.321-0.203c-0.124-0.092-0.183-0.186-0.178-0.282c-0.119-0.122-0.286-0.339-0.35-0.61
		c-0.077-0.301-0.123-0.317-0.194-0.423c-0.113,0.084-0.153-0.093-0.219-0.2l0.059-0.045c-0.037-0.026-0.056-0.057-0.059-0.09
		c-0.001-0.024,0.009-0.06,0.03-0.105c0.022-0.046,0.032-0.081,0.029-0.105c-0.002-0.038-0.024-0.07-0.067-0.095
		c0.045-0.237,0.087-0.592,0.125-1.064c0.08-0.043,0.118-0.125,0.115-0.25c-0.005-0.123,0.012-0.205,0.05-0.245
		c0.192-0.382,0.502-0.64,0.932-0.775c0.023,0.003,0.138,0.001,0.346-0.006c0.141-0.003,0.249,0.009,0.321,0.038
		c0.128-0.023,0.259,0.01,0.387,0.091c0.111,0.085,0.223,0.168,0.333,0.253c0.208,0.225,0.321,0.482,0.337,0.766
		c0.005,0.094,0,0.195-0.018,0.3c-0.154-0.004-0.264,0.096-0.329,0.305l-0.599,0.057c-0.063-0.092-0.102-0.214-0.109-0.365
		c-0.004-0.052-0.003-0.129,0-0.228c0.002-0.101,0.003-0.177,0-0.229c-0.009-0.157-0.046-0.28-0.11-0.374l-0.18,0.104
		c-0.074-0.029-0.111-0.071-0.115-0.128c-0.002-0.019,0.002-0.047,0.008-0.083c0.008-0.037,0.01-0.062,0.01-0.076
		c-0.004-0.062-0.06-0.098-0.167-0.113c-0.073,0.676-0.096,1.37-0.066,2.08c0.02,0.024,0.077,0.039,0.171,0.049
		c0.077,0.009,0.117,0.033,0.12,0.07c0,0.015-0.004,0.034-0.015,0.059l-0.06,0.046c0.033,0.05,0.052,0.122,0.057,0.211
		c0.002,0.047,0.001,0.12-0.005,0.218c-0.006,0.098-0.008,0.171-0.004,0.217c0.008,0.143,0.044,0.251,0.107,0.324
		c-0.007,0.104,0.037,0.176,0.127,0.213c0.058-0.022,0.109-0.034,0.157-0.037c0.183-0.01,0.31,0.089,0.382,0.298
		c0,0.005-0.001,0.041-0.002,0.107c0.002,0.039,0.02,0.062,0.057,0.075c0.079-0.047,0.118-0.133,0.118-0.256
		c-0.002-0.142,0.016-0.234,0.055-0.273c-0.011-0.067-0.049-0.162-0.118-0.286c-0.07-0.126-0.106-0.223-0.111-0.294
		c-0.004-0.076,0.019-0.148,0.067-0.218c-0.042-0.013-0.061-0.04-0.058-0.083c0.002-0.067,0.003-0.102,0.003-0.107
		C37.992,220.039,38.324,220.037,38.659,220.112"></path>
	<path clip-path="url(#SVGID_4_)" d="M41.373,220.668h-0.008c-0.035,0.068-0.045,0.167-0.034,0.294
		c0.017,0.181,0.026,0.273,0.026,0.277c-0.028,0.011-0.064-0.003-0.11-0.039c-0.07,0.025-0.104,0.069-0.1,0.131
		c0,0.009,0.004,0.024,0.011,0.046c0,0.025,0.002,0.043,0.003,0.053c0.002,0.048-0.012,0.084-0.044,0.109
		c-0.079-0.044-0.185-0.073-0.313-0.086c-0.13-0.012-0.253-0.023-0.37-0.034c-0.002-0.602-0.083-1.191-0.243-1.765
		c0,0.004-0.003-0.055-0.01-0.179c0-0.089-0.021-0.151-0.061-0.189l-0.055,0.049c-0.001-0.008,0.018-0.025,0.055-0.052
		c0.038-0.026,0.056-0.053,0.052-0.08c0-0.013-0.004-0.026-0.01-0.038l-0.06-0.044c-0.103,0.034-0.149,0.116-0.143,0.247
		c0.006,0.089-0.03,0.151-0.104,0.186c0.028,0.021,0.043,0.048,0.045,0.077c0.001,0.018-0.001,0.043-0.008,0.075
		c-0.006,0.03-0.01,0.055-0.008,0.073c0.003,0.039,0.024,0.071,0.063,0.095c0.002,0.027,0.016,0.265,0.042,0.715
		c0.016,0.287,0.009,0.53-0.023,0.73l0.005,0.113c-0.038-0.001-0.083-0.001-0.13,0.001c-0.056,0.003-0.135,0.011-0.239,0.024
		c-0.102,0.013-0.18,0.021-0.229,0.023c-0.204,0.012-0.345-0.023-0.427-0.102l-0.086-2.471c-0.04-0.121-0.065-0.291-0.079-0.507
		l-0.026-0.476c-0.02-0.233-0.051-0.413-0.091-0.539c0.017-0.085,0.093-0.133,0.224-0.139c0.082-0.005,0.192,0.006,0.332,0.034
		c0.064-0.03,0.154-0.049,0.269-0.056c0.034-0.002,0.084-0.002,0.157-0.002c0.077-0.004,0.132-0.007,0.165-0.009
		c0.214-0.012,0.356-0.078,0.426-0.197c0.1-0.001,0.207,0.03,0.323,0.094s0.218,0.099,0.307,0.102
		c0.233,0.136,0.36,0.364,0.378,0.682c0.004,0.071-0.024,0.351-0.083,0.842l-0.401,0.347c0.068,0.125,0.15,0.397,0.246,0.817
		C41.088,220.249,41.209,220.505,41.373,220.668 M40.633,217.857l0.008,0.005c0.007,0.03,0.004-0.078-0.011-0.324
		c-0.006-0.119-0.05-0.205-0.131-0.259c-0.045,0.064,0.008,0.095-0.015,0.244c-0.021,0.15-0.11,0.108-0.161,0.172
		c-0.137,0-0.168,0.083-0.198-0.048c-0.062-0.213-0.115-0.194-0.116-0.198l-0.058,0.035c-0.021,0.019-0.044,0.041-0.07,0.064
		c-0.026,0.024-0.052,0.031-0.081,0.025c0.002,0.027-0.011,0.068-0.038,0.125c-0.027,0.057-0.04,0.095-0.038,0.118
		c0.002,0.041,0.033,0.069,0.096,0.087c-0.011,0.089-0.014,0.183-0.008,0.278c0.003,0.053,0.015,0.175,0.037,0.364
		c0.026,0.149,0.035,0.276,0.03,0.383c0.05,0.001,0.096,0.001,0.14,0c0.194-0.012,0.318-0.088,0.375-0.228
		c0.02-0.041,0.042-0.189,0.066-0.442C40.48,218.068,40.538,217.933,40.633,217.857"></path>
	<path clip-path="url(#SVGID_4_)" d="M44.488,221.628c-0.078-0.023-0.162-0.031-0.25-0.026c-0.077,0.004-0.179,0.024-0.309,0.057
		c-0.148,0.036-0.248,0.057-0.302,0.065c-0.066-0.089-0.117-0.215-0.154-0.376c-0.064-0.235-0.102-0.368-0.114-0.399
		c0.016-0.027,0.022-0.05,0.021-0.068c-0.003-0.048-0.053-0.088-0.151-0.121c-0.099-0.031-0.147-0.06-0.148-0.081
		c-0.001-0.027,0.049-0.069,0.157-0.129c-0.03-0.024-0.053-0.078-0.072-0.159c-0.018-0.08-0.047-0.132-0.087-0.157
		c-0.063,0.053-0.169,0.091-0.319,0.115c-0.151,0.023-0.249,0.05-0.297,0.081c0.032,0.343,0,0.945-0.136,1.072
		c-0.077-0.008-0.133,0.018-0.168,0.084c-0.05,0.077-0.095,0.124-0.132,0.14l0.052,0.042c-0.042,0.035-0.113,0.052-0.211,0.053
		c-0.153,0.004-0.235,0.007-0.247,0.007l-0.056-0.118l0.231-3.971c-0.011-0.226-0.01-0.378,0.006-0.458
		c-0.022-0.198,0.025-0.325,0.144-0.381c0.079,0.036,0.175,0.05,0.292,0.043c0.092-0.005,0.237-0.03,0.432-0.079
		c0.196-0.046,0.331-0.071,0.409-0.076c0.268-0.015,0.397,0.131,0.388,0.442c-0.008,0.248,0.066,0.568,0.221,0.962
		c0.164,0.424,0.25,0.744,0.263,0.961c0.003,0.066,0.092,0.206,0.091,0.273c-0.113,0.059-0.26,0.1-0.439,0.124
		c-0.159,0.019-0.319,0.038-0.483,0.054c-0.069-0.332-0.226-0.734-0.293-1.064c-0.083-0.393-0.174-0.714-0.271-0.967l-0.104,1.906
		c-0.007,0.164,0.091,0.24,0.294,0.228c0.065-0.003,0.128-0.021,0.187-0.051c0.048-0.015,0.118,0.009,0.21,0.074
		c0.007,0.137,0.048,0.217,0.121,0.239c0.085-0.053,0.197-0.107,0.336-0.159c0.124-0.047,0.245-0.091,0.364-0.133
		c0.076,0.071,0.128,0.181,0.16,0.329c0.04,0.21,0.066,0.332,0.078,0.368c0.017,0.083,0.073,0.261,0.172,0.535
		c0.073,0.217,0.114,0.393,0.122,0.53C44.497,221.507,44.495,221.569,44.488,221.628"></path>
	<path clip-path="url(#SVGID_4_)" d="M46.758,217.121h0.008c-0.065,0.097-0.15,0.115-0.252,0.055
		c-0.022-0.004-0.121,0.002-0.296,0.017c-0.148,0.009-0.255,0.001-0.323-0.021c-0.017,0.002-0.049,0.018-0.096,0.049
		c-0.049,0.032-0.082,0.048-0.105,0.05c-0.032,0.002-0.05-0.026-0.054-0.083c-0.001-0.008-0.003-0.046-0.007-0.112
		c-0.003-0.044-0.024-0.074-0.063-0.089l-0.102,0.08c-0.032,0.023-0.047,0.048-0.045,0.075c0,0.021,0.019,0.052,0.054,0.093
		c0.036,0.04,0.057,0.069,0.063,0.085c0,0.014,0.013,0.212,0.035,0.596c0.008,0.245,0.053,0.438,0.133,0.583
		c0.021-0.022,0.071-0.036,0.15-0.037c0.079-0.002,0.132-0.021,0.158-0.052c0.052,0.044,0.138,0.047,0.26,0.008
		c0.122-0.041,0.21-0.027,0.264,0.041l-0.016,0.585c-0.05-0.006-0.124-0.032-0.218-0.073c-0.029,0.084-0.084,0.139-0.164,0.161
		c-0.033,0.011-0.126,0.021-0.279,0.03c0.004-0.027-0.019-0.054-0.072-0.082c-0.149,0.071-0.205,0.24-0.167,0.507
		c0.004-0.028,0.009,0.02,0.016,0.139c0.005,0.074-0.011,0.128-0.048,0.162c-0.093,0.014-0.21-0.006-0.354-0.062
		c-0.143-0.056-0.246-0.082-0.305-0.079c-0.027,0.001-0.053,0.005-0.074,0.011l-0.154,0.048l-0.247-2.674l-0.029-0.508
		c0.204-0.069,0.459-0.113,0.76-0.13c0.236-0.014,0.545-0.012,0.925,0.006c0.024-0.05,0.069,0.015,0.125,0.012
		c0.026-0.001,0.068,0.002,0.124,0.009c0.055,0.009,0.097,0.011,0.125,0.01c0.032-0.001,0.062-0.008,0.088-0.019l0.039-0.042
		c0.112,0.033,0.17,0.092,0.175,0.175c0.001,0.036-0.009,0.097-0.031,0.182c-0.022,0.086-0.032,0.152-0.03,0.195
		C46.73,217.056,46.739,217.092,46.758,217.121 M45.796,221.582c-0.059,0.03-0.148,0.048-0.27,0.056
		c-0.159,0.009-0.255,0.018-0.288,0.023c-0.017-0.017-0.039-0.003-0.074-0.143c-0.021-0.091-0.08-0.135-0.172-0.129
		c-0.022,0.001-0.048,0.004-0.082,0.011l-0.148,0.009l-0.079-1.354c0.081-0.039,0.181-0.062,0.301-0.07
		c0.117-0.006,0.218,0.005,0.308,0.034c-0.002,0.051,0.067,0.071,0.211,0.062l0.156-0.009
		C45.752,220.453,45.81,221.139,45.796,221.582"></path>
	<path clip-path="url(#SVGID_4_)" d="M50.046,217.237l0.009,0.006c-0.079-0.005-0.327,0.011-0.518,0.036
		c-0.163,0.019-0.287,0.022-0.37,0.008c-0.08,0.054-0.109,0.126-0.087,0.217l0.052,0.031c-0.042,0.039-0.058,0.067-0.044,0.09
		l0.044,0.043c-0.01,0.784-0.012,1.219-0.007,1.302c0.012,0.207,0.037,0.389,0.073,0.547c-0.033,0.099-0.045,0.212-0.038,0.34
		c0.005,0.083,0.025,0.215,0.06,0.398c0.036,0.181,0.083,0.778,0.089,0.871c0.003,0.07,0.002,0.138-0.006,0.199
		c-0.075,0.03-0.157,0.049-0.244,0.055c-0.148,0.008-0.307-0.022-0.476-0.093c-0.021,0.019-0.044,0.04-0.071,0.061
		c-0.025,0.021-0.033,0.045-0.02,0.071c-0.054,0.015-0.129-0.005-0.228-0.067c-0.051-0.794-0.192-2.411-0.403-4.045
		c-0.075,0.067-0.21,0.012-0.353,0.03c-0.169,0.018-0.334-0.008-0.4,0.022c-0.082-0.088-0.064-0.114-0.071-0.259
		c-0.009-0.141-0.055-0.49-0.019-0.634c0.008-0.032,0.316-0.014,0.497-0.029c0.247-0.015,0.3,0.044,0.316,0.043
		c0.021-0.032,0.141-0.016,0.228-0.021c0.058,0.028,0.12-0.025,0.121,0.015c0.002,0.026,0,0.193-0.019,0.241
		c-0.019,0.048-0.029,0.083-0.027,0.104c0.003,0.053,0.042-0.024,0.13,0.006c0.099-0.003,0.2-0.006,0.304-0.012
		c0.117,0.011,0.25-0.031,0.24,0.067c0.02-0.027,0.033,0.021,0.199-0.047c0.123-0.056,0.198-0.2,0.174-0.299
		c-0.014-0.055,0.062-0.091,0.016-0.065c0.059-0.033,0.004-0.011,0.069-0.036c0.206,0.02,0.319-0.002,0.357-0.004
		c0.082-0.005,0.287,0.048,0.345,0.018c0.042,0.078,0.064,0.319,0.066,0.452C50.042,217.111,50.045,217.224,50.046,217.237"></path>
	<path clip-path="url(#SVGID_4_)" d="M52.71,219.998l-0.001-0.007c-0.029,0.059-0.045,0.126-0.045,0.202
		c-0.005,0.048,0,0.117,0.011,0.206c0.011,0.1,0.019,0.17,0.021,0.211c-0.045,0.001-0.221,0.012-0.528,0.031
		c-0.186,0.01-0.351,0.035-0.498,0.075l-0.164-0.124c-0.041,0.039-0.056,0.068-0.043,0.09c-0.028-0.003-0.155,0.004-0.379,0.021
		c-0.175,0.011-0.308,0.004-0.398-0.017c-0.081,0.079-0.186,0.086-0.311,0.018c-0.044-0.023-0.053-0.069-0.024-0.135
		c0.028-0.066,0.015-0.112-0.041-0.14c-0.002-0.141,0.003-0.361,0.019-0.658c0.019-0.267,0.022-0.476,0.014-0.626
		c-0.012-0.202-0.046-0.395-0.099-0.578c0.056-0.052,0.125-0.08,0.2-0.083c0.087-0.007,0.194,0.021,0.319,0.08
		c0.175,0.083,0.265,0.125,0.271,0.125l0.051,0.042c0.005-0.013,0.028-0.085,0.07-0.217c0.022-0.085,0.061-0.143,0.114-0.171
		l0.051,0.036c0.021-0.009,0.091-0.056,0.207-0.137c0.09-0.06,0.152-0.274,0.208-0.276c0.059-0.005,0.119,0.02,0.177,0.068
		c0.095,0.035,0.171,0.276,0.206,0.355c0.035,0.08,0.069,0.159,0.102,0.236c-0.247,0.023-0.451,0.033-0.61,0.029
		c-0.034,0.051-0.091,0.062-0.162,0.033c-0.073-0.029-0.125-0.02-0.155,0.026c0.005,0.079,0.013,0.222,0.024,0.429
		c0.006,0.186,0.014,0.331,0.026,0.437c0.014,0.163,0.041,0.312,0.076,0.447c0.044-0.003,0.252-0.016,0.624-0.036
		C52.299,219.976,52.521,219.977,52.71,219.998 M52.455,216.886c-0.048,0.005-0.104,0.013-0.165,0.016
		c-0.125,0.007-0.292,0.004-0.502-0.01c-0.259-0.012-0.417-0.019-0.472-0.02c-0.07,0.098-0.081,0.176-0.07,0.344
		c0.021,0.361,0.033,0.519,0.035,0.469c0.08,0.031,0.122,0.095,0.127,0.192c0.003,0.133,0.006,0.2,0.013,0.204
		c-0.039,0.015-0.056,0.061-0.051,0.136c-0.06-0.015-0.126-0.045-0.194-0.095c-0.093-0.061-0.123,0.156-0.119,0.098l-0.041,0.135
		l-0.052-0.038c-0.043,0.007-0.12-0.006-0.229-0.04s-0.187-0.067-0.232-0.099c-0.003-0.07,0.006-0.111,0.033-0.122l-0.112-0.086
		l-0.046,0.063c-0.097-0.455-0.162-1.256-0.125-1.745c0.209,0.015,0.455-0.021,0.707-0.032c0.169-0.006,0.408-0.018,0.715-0.041
		c0.351-0.024,0.603-0.042,0.755-0.051c0.069,0.045,0.106,0.107,0.11,0.186c0.003,0.049-0.007,0.128-0.031,0.238
		C52.482,216.698,52.452,216.832,52.455,216.886"></path>
	<path clip-path="url(#SVGID_4_)" d="M55.444,219.528l-0.008,0c-0.033,0.068-0.045,0.167-0.032,0.293
		c0.017,0.181,0.024,0.274,0.024,0.278c-0.027,0.011-0.063-0.002-0.109-0.039c-0.072,0.025-0.104,0.069-0.101,0.131
		c0.001,0.009,0.005,0.023,0.011,0.044c0.002,0.026,0.002,0.044,0.004,0.054c0.003,0.048-0.013,0.084-0.044,0.109
		c-0.08-0.045-0.185-0.074-0.315-0.086c-0.129-0.013-0.251-0.024-0.369-0.036c-0.002-0.6-0.083-1.189-0.242-1.764
		c0,0.005-0.004-0.055-0.01-0.179c0-0.089-0.021-0.151-0.062-0.188l-0.055,0.05c0-0.009,0.018-0.027,0.055-0.052
		c0.037-0.027,0.055-0.054,0.053-0.081c-0.001-0.013-0.004-0.026-0.011-0.04l-0.06-0.043c-0.102,0.033-0.15,0.115-0.141,0.247
		c0.004,0.089-0.031,0.152-0.105,0.187c0.028,0.02,0.044,0.046,0.046,0.077c0.001,0.019-0.002,0.043-0.009,0.073
		c-0.005,0.032-0.009,0.056-0.007,0.075c0.002,0.039,0.022,0.071,0.062,0.097c0.002,0.026,0.016,0.264,0.042,0.714
		c0.017,0.287,0.009,0.531-0.023,0.73l0.007,0.113c-0.038-0.002-0.084-0.002-0.133,0.001c-0.055,0.003-0.135,0.011-0.239,0.023
		c-0.102,0.013-0.179,0.021-0.229,0.023c-0.202,0.012-0.345-0.021-0.425-0.102l-0.087-2.47c-0.039-0.122-0.066-0.291-0.078-0.506
		l-0.029-0.476c-0.019-0.234-0.048-0.414-0.088-0.54c0.016-0.084,0.091-0.132,0.222-0.139c0.084-0.006,0.193,0.006,0.333,0.034
		c0.064-0.031,0.153-0.049,0.268-0.056c0.033-0.001,0.086-0.003,0.156-0.003c0.077-0.004,0.133-0.007,0.166-0.01
		c0.213-0.012,0.355-0.078,0.425-0.197c0.099,0,0.206,0.03,0.322,0.093c0.117,0.065,0.22,0.099,0.309,0.102
		c0.232,0.138,0.359,0.365,0.377,0.683c0.003,0.071-0.024,0.351-0.083,0.842l-0.402,0.347c0.069,0.125,0.151,0.396,0.247,0.816
		C55.159,219.108,55.282,219.364,55.444,219.528 M54.704,216.717l0.009,0.005c0.006,0.031,0.003-0.078-0.011-0.323
		c-0.007-0.121-0.051-0.206-0.131-0.258c-0.043,0.062-0.054-0.087-0.075,0.062c-0.022,0.151-0.058,0.257-0.108,0.323
		c-0.137-0.001-0.169-0.083-0.252-0.198c-0.051-0.073-0.076-0.009-0.076-0.015l-0.037,0.03c-0.021,0.019-0.044,0.041-0.071,0.064
		c-0.025,0.024-0.053,0.032-0.082,0.025c0.003,0.025-0.01,0.068-0.038,0.125c-0.025,0.057-0.038,0.096-0.038,0.119
		c0.002,0.04,0.034,0.068,0.096,0.087c-0.011,0.089-0.015,0.183-0.009,0.281c0.004,0.052,0.015,0.172,0.037,0.362
		c0.026,0.149,0.035,0.277,0.031,0.383c0.05,0.002,0.097,0.001,0.141-0.001c0.192-0.012,0.317-0.087,0.374-0.227
		c0.019-0.042,0.041-0.189,0.066-0.442C54.551,216.926,54.61,216.794,54.704,216.717"></path>
	<path clip-path="url(#SVGID_4_)" d="M28.182,208.132v0.006c-0.024,0.229-0.032,0.389-0.022,0.475
		c-0.036,0.015-0.083,0.017-0.138,0.008c-0.074-0.013-0.116-0.019-0.127-0.018c-0.032,0.001-0.058,0.013-0.077,0.033
		c-0.045-0.028-0.075-0.041-0.092-0.037c-0.043,0.026-0.064,0.063-0.062,0.11c0.002,0.021,0.01,0.055,0.024,0.104
		c0.014,0.05,0.023,0.086,0.023,0.11c0.001,0.032-0.005,0.082-0.02,0.152c-0.015,0.068-0.021,0.124-0.019,0.169
		c0.002,0.051,0.014,0.133,0.033,0.244c0.021,0.111,0.031,0.194,0.034,0.25c-0.024,0.109-0.032,0.219-0.026,0.331
		c0.007,0.137,0.045,0.318,0.113,0.547c0.012,0.004,0.024,0.005,0.036,0.004c0.026,0,0.061-0.022,0.1-0.059
		c0.037-0.037,0.07-0.057,0.098-0.059c0.02,0,0.042,0.003,0.067,0.015c0.072,0.231,0.109,0.382,0.114,0.45
		c0,0.033,0,0.066-0.001,0.102c-0.107,0.026-0.183-0.011-0.228-0.109c0.007-0.028-0.009-0.057-0.046-0.087l-0.12,0.126
		c0.118,0.018,0.164,0.107,0.14,0.269c-0.011,0.033-0.035,0.05-0.075,0.052c-0.069,0-0.101,0-0.096,0l-0.099-0.176l-0.04,0.05
		c-0.033-0.083-0.071-0.122-0.114-0.12c-0.024,0.001-0.065,0.021-0.126,0.059c-0.06,0.04-0.11,0.061-0.149,0.062
		c-0.032,0.002-0.064-0.006-0.097-0.025c-0.003-0.048-0.009-0.097-0.017-0.149c-0.009-0.052-0.036-0.084-0.08-0.098
		c-0.002-0.125,0.002-0.45,0.01-0.979c0.004-0.4,0-0.725-0.012-0.973c-0.005-0.104-0.013-0.205-0.021-0.303
		c-0.021-0.031-0.042-0.046-0.062-0.046c-0.018,0.001-0.041,0.018-0.073,0.052c-0.032,0.034-0.061,0.05-0.083,0.047
		c-0.003-0.041-0.022-0.105-0.056-0.192c-0.034-0.088-0.052-0.152-0.055-0.192c-0.003-0.068,0.023-0.127,0.076-0.178l0.14,0.034
		c0.056-0.078,0.08-0.212,0.07-0.399c-0.002-0.036-0.007-0.093-0.015-0.171c-0.008-0.077-0.014-0.133-0.016-0.17
		c-0.015-0.307,0.079-0.466,0.283-0.477c0.075-0.003,0.168,0.01,0.277,0.041l0.134,0.035c0.01,0.052,0.017,0.105,0.02,0.161
		c0.004,0.077,0.001,0.188-0.01,0.334c-0.011,0.147-0.014,0.254-0.011,0.32c0.005,0.11,0.023,0.208,0.057,0.294
		c0.032-0.002,0.082-0.02,0.151-0.052c0.068-0.034,0.118-0.052,0.15-0.053C28.102,208.052,28.147,208.077,28.182,208.132
		 M27.765,208.562l-0.008-0.138l-0.042-0.04L27.765,208.562z"></path>
	<path clip-path="url(#SVGID_4_)" d="M29.829,207.701l0.007-0.001c-0.014,0.109-0.031,0.218-0.049,0.327
		c-0.021,0.125-0.057,0.223-0.105,0.293c-0.008-0.003-0.058-0.025-0.148-0.071c-0.062-0.032-0.117-0.045-0.164-0.04
		c-0.037,0.235-0.057,0.553-0.06,0.958c-0.002,0.517-0.007,0.829-0.012,0.937c-0.061-0.004-0.106,0.015-0.135,0.059
		c-0.031,0.044-0.059,0.087-0.084,0.133c-0.011,0.025-0.016,0.048-0.015,0.066c0,0.033,0.028,0.064,0.082,0.092
		c0.054,0.03,0.081,0.062,0.083,0.098c-0.022,0.086-0.073,0.13-0.149,0.133c-0.036,0.002-0.099-0.009-0.188-0.032
		c-0.088-0.024-0.151-0.035-0.188-0.032l-0.085-1.712c0.034-0.045,0.048-0.077,0.043-0.092l-0.049-0.033
		c0.004-0.073,0.008-0.432,0.011-1.076c0.001-0.437,0.02-0.79,0.049-1.059c-0.003,0,0.12-0.008,0.372-0.025
		c0.155-0.008,0.256,0.036,0.301,0.129c0,0.087-0.009,0.235-0.027,0.445c-0.018,0.193-0.024,0.341-0.019,0.445
		c0.006,0.129,0.027,0.243,0.061,0.345C29.492,207.807,29.649,207.71,29.829,207.701 M30.424,208.068
		c0.012,0.158,0.021,0.314,0.03,0.467c0.033,0.662,0.023,1.372-0.032,2.125c-0.057,0.052-0.146,0.063-0.266,0.034
		c-0.118-0.028-0.207-0.016-0.259,0.034c-0.069-0.087-0.108-0.247-0.121-0.479c-0.016-0.335-0.024-0.509-0.025-0.521
		c-0.015-0.839,0.068-1.519,0.246-2.036C30.204,207.746,30.345,207.871,30.424,208.068"></path>
	<path clip-path="url(#SVGID_4_)" d="M32.525,208.938c-0.026,0.053-0.038,0.109-0.033,0.167c0.002,0.062,0.005,0.119,0.009,0.176
		c-0.006,0.047-0.019,0.095-0.041,0.146c-0.037-0.01-0.066-0.015-0.092-0.014c-0.027,0.001-0.056,0.011-0.083,0.031
		c-0.029,0.021-0.053,0.03-0.068,0.03c-0.024,0.002-0.056-0.007-0.098-0.025l-0.277-0.406c0.009,0.119,0.037,0.224,0.082,0.314
		c0.022,0.046,0.043,0.094,0.067,0.14c-0.164,0.029-0.256,0.035-0.276,0.015l-0.04,0.05l-0.096-0.127
		c-0.076,0.091-0.093,0.226-0.051,0.404c0.048,0.193,0.051,0.333,0.008,0.42c0.06,0.09,0.133,0.131,0.216,0.127
		c0.037-0.002,0.066-0.014,0.094-0.041c0.039-0.099,0.078-0.196,0.118-0.294c0.059-0.119,0.123-0.181,0.194-0.184
		c0.056-0.004,0.122,0.026,0.197,0.087c0.09,0.031,0.135,0.072,0.138,0.124c0,0.033-0.019,0.085-0.061,0.156
		c-0.041,0.072-0.063,0.128-0.061,0.169c0.002,0.015,0.003,0.028,0.008,0.042c-0.058,0.042-0.109,0.107-0.155,0.193
		c-0.047,0.087-0.106,0.146-0.181,0.179c-0.064,0.061-0.125,0.095-0.181,0.098c-0.045,0.002-0.111-0.032-0.197-0.101
		c-0.087-0.07-0.169-0.102-0.246-0.099c-0.03-0.07-0.108-0.149-0.232-0.234c-0.125-0.085-0.202-0.179-0.231-0.277
		c0,0.008,0-0.023-0.004-0.095c-0.002-0.041-0.02-0.066-0.053-0.076l0.046-0.044c-0.061-0.001-0.091-0.034-0.094-0.104
		c0-0.008-0.001-0.023-0.002-0.049c0.002-0.019,0.004-0.035,0.003-0.047c-0.001-0.048-0.018-0.081-0.046-0.1l-0.011-0.208
		c-0.005-0.108-0.027-0.186-0.066-0.231c0.039-0.254,0.079-0.509,0.118-0.762c0.065-0.296,0.162-0.448,0.289-0.454
		c0.021,0,0.04,0.002,0.06,0.009c0.117-0.114,0.253-0.175,0.418-0.183c0.18-0.009,0.378,0.046,0.596,0.163
		C32.38,208.302,32.484,208.607,32.525,208.938 M31.7,208.275l-0.041,0.05c-0.026,0.005-0.061-0.008-0.097-0.042l0.007,0.137
		c-0.061,0.068-0.085,0.171-0.075,0.311c0.012,0.239,0.018,0.354,0.018,0.347l0.18-0.002c0.085-0.05,0.126-0.129,0.119-0.241
		c-0.002-0.056-0.02-0.147-0.059-0.276C31.716,208.431,31.698,208.337,31.7,208.275"></path>
	<polygon clip-path="url(#SVGID_4_)" fill-rule="evenodd" clip-rule="evenodd" points="33.933,214.979 34.111,215.081 
		34.717,213.493 34.513,213.426 33.909,215.015 34.085,215.126 	"></polygon>
	<polygon clip-path="url(#SVGID_4_)" fill-rule="evenodd" clip-rule="evenodd" points="34.197,214.759 34.124,214.788 
		33.933,214.979 34.085,215.126 34.279,214.925 34.204,214.964 	"></polygon>
	<polygon clip-path="url(#SVGID_4_)" fill-rule="evenodd" clip-rule="evenodd" points="35.662,214.747 35.748,214.679 
		34.197,214.759 34.204,214.964 35.755,214.885 35.854,214.811 	"></polygon>
	<polygon clip-path="url(#SVGID_4_)" fill-rule="evenodd" clip-rule="evenodd" points="36.362,213.286 36.256,213.154 
		35.663,214.747 35.854,214.812 36.458,213.222 36.353,213.09 	"></polygon>
	<polygon clip-path="url(#SVGID_4_)" fill-rule="evenodd" clip-rule="evenodd" points="34.884,213.337 34.808,213.375 
		36.362,213.286 36.353,213.09 34.805,213.159 34.729,213.198 	"></polygon>
	<polygon clip-path="url(#SVGID_4_)" fill-rule="evenodd" clip-rule="evenodd" points="34.717,213.493 34.693,213.527 
		34.885,213.337 34.729,213.198 34.536,213.391 34.514,213.426 	"></polygon>
	<polygon clip-path="url(#SVGID_4_)" fill-rule="evenodd" clip-rule="evenodd" points="36.004,214.935 36.142,214.874 
		35.809,214.689 35.704,214.877 36.046,215.066 36.196,215 35.994,214.932 	"></polygon>
	<polygon clip-path="url(#SVGID_4_)" fill-rule="evenodd" clip-rule="evenodd" points="36.654,213.469 36.599,213.343 
		35.994,214.933 36.195,215 36.8,213.41 36.745,213.286 	"></polygon>
	<polygon clip-path="url(#SVGID_4_)" fill-rule="evenodd" clip-rule="evenodd" points="36.458,213.222 36.309,213.289 
		36.654,213.469 36.746,213.286 36.414,213.101 36.257,213.154 	"></polygon>
	<polygon clip-path="url(#SVGID_4_)" points="34.62,213.461 34.61,213.458 34.802,213.266 36.241,213.195 36.256,213.154 
		36.362,213.189 36.458,213.222 36.453,213.239 36.704,213.378 36.8,213.41 36.761,213.514 37.466,215.188 36.87,216.78 
		36.1,214.968 36,215.008 35.994,214.932 36.001,214.913 35.759,214.779 35.704,214.877 35.673,214.783 34.197,214.854 
		34.005,215.046 	"></polygon>
	<polygon clip-path="url(#SVGID_4_)" fill-rule="evenodd" clip-rule="evenodd" points="36.773,216.748 36.97,216.738 
		36.199,214.926 36,215.008 36.771,216.821 36.966,216.812 36.764,216.745 	"></polygon>
	<polygon clip-path="url(#SVGID_4_)" fill-rule="evenodd" clip-rule="evenodd" points="37.376,215.233 37.369,215.156 
		36.764,216.745 36.965,216.812 37.571,215.224 37.564,215.147 	"></polygon>
	<polygon clip-path="url(#SVGID_4_)" fill-rule="evenodd" clip-rule="evenodd" points="36.8,213.41 36.605,213.419 37.375,215.233 
		37.564,215.147 36.795,213.334 36.599,213.343 	"></polygon>
	<polygon clip-path="url(#SVGID_4_)" fill-rule="evenodd" clip-rule="evenodd" fill="#FFFFFF" points="36.75,213.82 36.834,214.009 
		36.867,214.2 36.857,214.389 36.803,214.584 36.707,214.775 36.577,214.945 36.407,215.101 36.202,215.236 36.09,215.284 
		35.979,215.331 35.854,215.354 35.738,215.379 35.626,215.395 35.505,215.408 35.393,215.393 35.278,215.386 35.179,215.364 
		35.073,215.328 34.972,215.284 34.882,215.232 34.805,215.174 34.719,215.113 34.648,215.037 34.59,214.954 34.504,214.766 
		34.473,214.573 34.473,214.381 34.537,214.19 34.62,214.004 34.754,213.826 34.924,213.669 35.137,213.538 35.241,213.487 
		35.362,213.441 35.476,213.417 35.591,213.391 35.713,213.378 35.825,213.362 35.937,213.378 36.052,213.385 36.157,213.419 
		36.264,213.455 36.359,213.487 36.458,213.542 36.537,213.589 36.621,213.66 36.679,213.743 	"></polygon>
	<polygon clip-path="url(#SVGID_4_)" fill-rule="evenodd" clip-rule="evenodd" points="36.825,214.133 36.912,214.323 
		36.94,214.523 36.933,214.712 36.879,214.898 36.793,215.093 36.65,215.268 36.493,215.419 36.279,215.549 36.163,215.606 
		36.052,215.654 35.937,215.679 35.812,215.703 35.701,215.718 35.591,215.725 35.475,215.718 35.354,215.699 35.256,215.677 
		35.15,215.642 35.057,215.6 34.958,215.546 34.878,215.497 34.805,215.43 34.731,215.363 34.667,215.268 34.578,215.089 
		34.546,214.896 34.558,214.698 34.61,214.513 34.696,214.318 34.828,214.148 34.997,213.991 35.21,213.861 35.326,213.803 
		35.435,213.764 35.552,213.729 35.679,213.708 35.788,213.701 35.899,213.686 36.011,213.701 36.125,213.708 36.234,213.733 
		36.34,213.768 36.433,213.809 36.535,213.856 36.612,213.911 36.698,213.973 36.755,214.057 36.823,214.143 	"></polygon>
	<polygon clip-path="url(#SVGID_4_)" fill-rule="evenodd" clip-rule="evenodd" fill="#FFFFFF" points="36.879,214.354 
		36.97,214.533 36.998,214.734 36.988,214.923 36.938,215.108 36.841,215.3 36.707,215.479 36.55,215.628 36.337,215.759 
		36.231,215.821 36.109,215.866 35.995,215.891 35.87,215.913 35.757,215.93 35.649,215.936 35.534,215.93 35.413,215.91 
		35.313,215.887 35.207,215.853 35.115,215.811 35.015,215.756 34.936,215.708 34.853,215.638 34.792,215.564 34.725,215.479 
		34.635,215.3 34.603,215.106 34.613,214.918 34.667,214.724 34.753,214.529 34.888,214.35 35.063,214.207 35.269,214.071 
		35.384,214.015 35.496,213.966 35.612,213.94 35.735,213.918 35.847,213.903 35.956,213.896 36.081,213.906 36.184,213.918 
		36.292,213.945 36.397,213.979 36.499,214.024 36.588,214.075 36.668,214.124 36.755,214.184 36.812,214.268 	"></polygon>
	<polygon clip-path="url(#SVGID_4_)" fill-rule="evenodd" clip-rule="evenodd" points="36.956,214.667 37.043,214.855 
		37.075,215.048 37.075,215.239 37.01,215.431 36.928,215.616 36.784,215.792 36.625,215.953 36.411,216.083 36.308,216.134 
		36.186,216.178 36.07,216.204 35.955,216.229 35.833,216.243 35.722,216.258 35.611,216.243 35.495,216.236 35.387,216.211 
		35.281,216.175 35.188,216.134 35.089,216.08 35.013,216.021 34.937,215.964 34.866,215.887 34.798,215.801 34.722,215.616 
		34.68,215.42 34.69,215.232 34.744,215.037 34.836,214.854 34.972,214.676 35.14,214.519 35.345,214.386 35.457,214.337 
		35.569,214.29 35.694,214.267 35.809,214.241 35.921,214.225 36.04,214.222 36.153,214.229 36.261,214.231 36.37,214.258 
		36.474,214.293 36.577,214.337 36.665,214.389 36.753,214.449 36.828,214.508 36.899,214.584 36.953,214.677 	"></polygon>
	<polygon clip-path="url(#SVGID_4_)" fill-rule="evenodd" clip-rule="evenodd" fill="#FFFFFF" points="37.068,214.874 
		37.159,215.054 37.19,215.245 37.187,215.447 37.135,215.632 37.039,215.824 36.896,216 36.74,216.15 36.534,216.284 
		36.419,216.341 36.298,216.386 36.184,216.412 36.067,216.437 35.945,216.45 35.837,216.458 35.722,216.45 35.61,216.434 
		35.501,216.409 35.396,216.373 35.302,216.332 35.21,216.291 35.124,216.229 35.05,216.163 34.981,216.085 34.923,216.003 
		34.833,215.824 34.794,215.619 34.804,215.43 34.865,215.248 34.953,215.054 35.085,214.874 35.253,214.728 35.457,214.593 
		35.572,214.536 35.684,214.488 35.806,214.476 35.923,214.44 36.036,214.424 36.154,214.421 36.269,214.428 36.372,214.44 
		36.481,214.465 36.595,214.504 36.688,214.545 36.782,214.587 36.868,214.648 36.941,214.716 37.011,214.792 	"></polygon>
	<polygon clip-path="url(#SVGID_4_)" fill-rule="evenodd" clip-rule="evenodd" points="37.155,215.192 37.231,215.377 
		37.273,215.571 37.263,215.76 37.209,215.955 37.115,216.138 36.982,216.317 36.812,216.474 36.607,216.607 36.496,216.656 
		36.374,216.7 36.26,216.725 36.145,216.751 36.032,216.767 35.911,216.779 35.798,216.764 35.684,216.757 35.584,216.734 
		35.47,216.696 35.377,216.655 35.288,216.604 35.2,216.543 35.124,216.486 35.054,216.409 34.997,216.326 34.911,216.137 
		34.869,215.942 34.878,215.753 34.942,215.561 35.025,215.374 35.159,215.197 35.329,215.039 35.543,214.909 35.646,214.858 
		35.768,214.813 35.881,214.788 35.998,214.763 36.12,214.75 36.231,214.733 36.342,214.75 36.449,214.753 36.567,214.782 
		36.672,214.817 36.766,214.859 36.855,214.91 36.941,214.971 37.017,215.028 37.087,215.105 	"></polygon>
	<polygon clip-path="url(#SVGID_4_)" fill-rule="evenodd" clip-rule="evenodd" points="26.584,212.751 26.595,212.691 
		25.986,214.289 26.179,214.352 26.786,212.755 26.789,212.714 	"></polygon>
	<polygon clip-path="url(#SVGID_4_)" fill-rule="evenodd" clip-rule="evenodd" points="26.569,212.67 26.572,212.662 
		26.584,212.751 26.789,212.714 26.768,212.621 26.771,212.61 	"></polygon>
	<polygon clip-path="url(#SVGID_4_)" fill-rule="evenodd" clip-rule="evenodd" points="26.546,212.579 26.568,212.67 26.771,212.61 
		26.748,212.518 	"></polygon>
	
		<rect x="26.591" y="212.401" transform="matrix(-0.2976 -0.9547 0.9547 -0.2976 -168.3144 301.1836)" clip-path="url(#SVGID_4_)" fill-rule="evenodd" clip-rule="evenodd" width="0.087" height="0.211"></rect>
	<polygon clip-path="url(#SVGID_4_)" fill-rule="evenodd" clip-rule="evenodd" points="26.499,212.403 26.499,212.403 
		26.521,212.496 26.723,212.435 26.699,212.343 26.698,212.352 	"></polygon>
	<polygon clip-path="url(#SVGID_4_)" fill-rule="evenodd" clip-rule="evenodd" points="26.473,212.288 26.473,212.321 
		26.499,212.403 26.698,212.352 26.671,212.269 26.681,212.304 	"></polygon>
	<polygon clip-path="url(#SVGID_4_)" fill-rule="evenodd" clip-rule="evenodd" points="26.677,212.249 26.476,212.214 
		26.474,212.288 26.681,212.304 26.683,212.231 26.481,212.194 26.674,212.259 	"></polygon>
	<polygon clip-path="url(#SVGID_4_)" fill-rule="evenodd" clip-rule="evenodd" fill="#4D494A" points="26.852,216.9 26.833,216.798 
		26.62,216.833 26.634,216.946 	"></polygon>
	<polygon clip-path="url(#SVGID_4_)" fill-rule="evenodd" clip-rule="evenodd" points="27.297,215.568 27.303,215.518 
		26.698,217.106 26.892,217.169 27.496,215.58 27.492,215.526 	"></polygon>
	<polygon clip-path="url(#SVGID_4_)" fill-rule="evenodd" clip-rule="evenodd" points="27.281,215.456 27.297,215.568 
		27.492,215.526 27.477,215.415 27.271,215.454 	"></polygon>
	<polygon clip-path="url(#SVGID_4_)" fill-rule="evenodd" clip-rule="evenodd" points="27.252,215.352 27.271,215.454 
		27.477,215.415 27.448,215.309 	"></polygon>
	<polygon clip-path="url(#SVGID_4_)" fill-rule="evenodd" clip-rule="evenodd" points="27.227,215.236 27.233,215.248 
		27.252,215.352 27.448,215.309 27.431,215.197 27.438,215.21 	"></polygon>
	<polygon clip-path="url(#SVGID_4_)" fill-rule="evenodd" clip-rule="evenodd" points="27.419,215.14 27.215,215.113 
		27.227,215.236 27.437,215.21 27.422,215.099 27.218,215.073 	"></polygon>
	<path clip-path="url(#SVGID_4_)" fill="#4D494A" d="M25.987,213.972L25.89,214L25.987,213.972z"></path>
	<polygon clip-path="url(#SVGID_4_)" fill="#4D494A" points="26.088,214.305 26.092,214.296 26.142,214.3 26.179,214.352 
		26.089,214.323 	"></polygon>
	<polygon clip-path="url(#SVGID_4_)" points="25.867,213.909 25.971,213.889 25.974,213.815 26.582,212.218 26.578,212.228 
		26.578,212.291 26.594,212.372 26.626,212.468 26.652,212.551 26.674,212.643 26.69,212.723 26.786,212.755 26.179,214.352 
		26.142,214.3 26.092,214.296 26.088,214.305 26.089,214.323 26.179,214.352 26.089,214.348 26.092,214.42 26.031,214.344 
		25.979,214.34 25.967,214.25 26.004,214.243 26.043,214.14 25.942,214.168 25.913,214.094 25.89,214 25.987,213.972 25.89,214 
		25.894,213.991 	"></polygon>
	<polygon clip-path="url(#SVGID_4_)" points="26.085,214.216 30.537,214.069 30.651,214.075 30.671,214.084 30.779,214.107 
		30.789,214.113 30.904,214.15 31.016,214.198 31.026,214.201 31.131,214.269 31.15,214.274 31.233,214.346 31.259,214.365 
		31.32,214.437 31.326,214.451 31.368,214.517 31.371,214.54 31.174,214.6 31.143,214.55 31.141,214.56 31.089,214.489 
		31.091,214.489 31.021,214.434 31.038,214.451 30.929,214.393 30.93,214.392 30.816,214.346 30.722,214.312 30.613,214.288 
		30.632,214.293 30.529,214.281 30.529,214.271 26.092,214.42 	"></polygon>
	<polygon clip-path="url(#SVGID_4_)" points="31.169,214.602 31.174,214.6 31.185,214.616 	"></polygon>
	<polygon clip-path="url(#SVGID_4_)" fill-rule="evenodd" clip-rule="evenodd" points="33.547,218.335 33.547,218.272 
		32.939,219.87 33.141,219.938 33.749,218.339 33.749,218.276 	"></polygon>
	<polygon clip-path="url(#SVGID_4_)" fill-rule="evenodd" clip-rule="evenodd" points="31.791,213.027 31.777,213.003 
		33.547,218.335 33.749,218.276 31.979,212.941 31.975,212.92 	"></polygon>
	<polygon clip-path="url(#SVGID_4_)" fill-rule="evenodd" clip-rule="evenodd" points="31.755,212.975 31.749,212.961 
		31.791,213.027 31.975,212.92 31.934,212.853 31.924,212.849 31.744,212.971 	"></polygon>
	<polygon clip-path="url(#SVGID_4_)" fill-rule="evenodd" clip-rule="evenodd" points="31.714,212.907 31.697,212.892 
		31.745,212.971 31.924,212.849 31.857,212.764 31.841,212.747 	"></polygon>
	<polygon clip-path="url(#SVGID_4_)" fill-rule="evenodd" clip-rule="evenodd" points="31.643,212.862 31.628,212.847 
		31.714,212.907 31.841,212.747 31.754,212.687 31.738,212.67 	"></polygon>
	<polygon clip-path="url(#SVGID_4_)" fill-rule="evenodd" clip-rule="evenodd" points="31.547,212.798 31.537,212.795 
		31.643,212.862 31.739,212.67 31.629,212.613 31.621,212.61 	"></polygon>
	<polygon clip-path="url(#SVGID_4_)" fill-rule="evenodd" clip-rule="evenodd" points="31.445,212.754 31.422,212.756 
		31.547,212.798 31.62,212.61 31.509,212.562 31.499,212.559 31.433,212.759 	"></polygon>
	<polygon clip-path="url(#SVGID_4_)" fill-rule="evenodd" clip-rule="evenodd" points="31.329,212.716 31.316,212.721 
		31.433,212.759 31.499,212.559 31.383,212.521 31.326,212.724 	"></polygon>
	<polygon clip-path="url(#SVGID_4_)" fill-rule="evenodd" clip-rule="evenodd" points="31.241,212.695 31.221,212.689 
		31.326,212.724 31.383,212.521 31.266,212.492 31.256,212.488 	"></polygon>
	<polygon clip-path="url(#SVGID_4_)" fill-rule="evenodd" clip-rule="evenodd" points="31.137,212.683 31.134,212.692 
		31.241,212.695 31.256,212.488 31.143,212.471 31.131,212.479 	"></polygon>
	<polygon clip-path="url(#SVGID_4_)" fill-rule="evenodd" clip-rule="evenodd" points="26.796,212.758 26.688,212.827 
		31.137,212.683 31.131,212.479 26.69,212.627 26.595,212.691 26.786,212.755 	"></polygon>
	<polygon clip-path="url(#SVGID_4_)" fill="#4D494A" points="27.914,217.617 27.898,217.608 27.908,217.604 	"></polygon>
	<path clip-path="url(#SVGID_4_)" fill="#4D494A" d="M30.318,218.336l-0.018,0.216L30.318,218.336z"></path>
	<path clip-path="url(#SVGID_4_)" d="M26.634,216.946l0.02,0.102l0.039,0.109l0.048,0.081l0.271,0.143l0.271,0.144l0.262,0.142
		l0.264,0.13l0.011,0.004l0.269,0.12l0.269,0.123l0.291,0.118l0.294,0.109l0.009,0.003l0.313,0.083l0.313,0.083l0.011,0.003
		l0.344,0.052l0.356,0.054l0.009,0.003l0.386,0.021l0.014-0.005l0.413,0.01l0.44-0.014l0.468-0.025l0.096-0.063l0.604-1.588
		l-0.102-0.141l0.006,0.205l-0.032-0.04l0.023-0.06l-0.067,0.004l-0.029-0.036l-0.015,0.04l-0.347,0.021h-0.448l-0.413-0.008
		l-0.377-0.02l-0.367-0.049l-0.343-0.06l-0.313-0.083l-0.313-0.083l-0.293-0.109l-0.285-0.106l-0.27-0.122l-0.266-0.131
		l-0.274-0.134l-0.263-0.141l-0.261-0.141l-0.181-0.095l0.005-0.018l-0.096-0.031l-0.026-0.114l-0.019-0.104l-0.008-0.035
		l0.073-0.157l-0.103-0.033l-0.004-0.001l-0.094-0.031l-0.606,1.587l-0.006,0.052l0.016,0.111L26.634,216.946z M26.708,216.692
		l0.004,0.021l-0.011-0.005L26.708,216.692z"></path>
	<polygon clip-path="url(#SVGID_4_)" fill-rule="evenodd" clip-rule="evenodd" points="32.158,216.977 32.624,216.951 
		32.617,216.746 32.15,216.772 	"></polygon>
	
		<rect x="31.712" y="216.778" transform="matrix(-0.9996 0.0287 -0.0287 -0.9996 70.0882 432.7535)" clip-path="url(#SVGID_4_)" fill-rule="evenodd" clip-rule="evenodd" width="0.442" height="0.205"></rect>
	<polygon clip-path="url(#SVGID_4_)" fill-rule="evenodd" clip-rule="evenodd" points="31.294,216.977 31.304,216.978 
		31.716,216.989 31.709,216.785 31.297,216.775 31.31,216.769 31.291,216.985 	"></polygon>
	<polygon clip-path="url(#SVGID_4_)" fill-rule="evenodd" clip-rule="evenodd" points="30.897,216.951 30.908,216.954 
		31.291,216.985 31.31,216.769 30.922,216.745 30.932,216.749 	"></polygon>
	<polygon clip-path="url(#SVGID_4_)" fill-rule="evenodd" clip-rule="evenodd" points="30.539,216.906 30.896,216.951 
		30.932,216.749 30.577,216.694 	"></polygon>
	<polygon clip-path="url(#SVGID_4_)" fill-rule="evenodd" clip-rule="evenodd" points="30.186,216.841 30.197,216.846 
		30.539,216.906 30.577,216.694 30.222,216.64 30.233,216.643 	"></polygon>
	<polygon clip-path="url(#SVGID_4_)" fill-rule="evenodd" clip-rule="evenodd" points="29.874,216.758 30.186,216.841 
		30.232,216.643 29.92,216.56 29.87,216.768 	"></polygon>
	<polygon clip-path="url(#SVGID_4_)" fill-rule="evenodd" clip-rule="evenodd" points="29.547,216.682 29.558,216.685 
		29.87,216.768 29.92,216.56 29.606,216.477 29.615,216.48 	"></polygon>
	<polygon clip-path="url(#SVGID_4_)" fill-rule="evenodd" clip-rule="evenodd" points="29.253,216.572 29.253,216.572 
		29.547,216.682 29.615,216.48 29.32,216.372 29.331,216.374 29.245,216.569 	"></polygon>
	<polygon clip-path="url(#SVGID_4_)" fill-rule="evenodd" clip-rule="evenodd" points="28.962,216.455 29.245,216.569 
		29.332,216.374 29.05,216.259 	"></polygon>
	<polygon clip-path="url(#SVGID_4_)" fill-rule="evenodd" clip-rule="evenodd" points="28.694,216.332 28.962,216.455 
		29.049,216.259 28.777,216.146 	"></polygon>
	<polygon clip-path="url(#SVGID_4_)" fill-rule="evenodd" clip-rule="evenodd" points="28.419,216.197 28.424,216.211 
		28.694,216.332 28.777,216.146 28.502,216.014 28.512,216.017 28.416,216.207 	"></polygon>
	<polygon clip-path="url(#SVGID_4_)" fill-rule="evenodd" clip-rule="evenodd" points="28.153,216.067 28.416,216.207 
		28.512,216.017 28.246,215.885 28.15,216.076 	"></polygon>
	<polygon clip-path="url(#SVGID_4_)" fill-rule="evenodd" clip-rule="evenodd" points="27.892,215.926 28.151,216.076 
		28.246,215.885 27.985,215.745 27.881,215.924 	"></polygon>
	<polygon clip-path="url(#SVGID_4_)" fill-rule="evenodd" clip-rule="evenodd" points="27.619,215.783 27.881,215.924 
		27.985,215.745 27.723,215.603 	"></polygon>
	<polygon clip-path="url(#SVGID_4_)" fill-rule="evenodd" clip-rule="evenodd" points="27.496,215.58 27.348,215.638 
		27.619,215.782 27.723,215.603 27.451,215.46 27.303,215.518 	"></polygon>
	<polygon clip-path="url(#SVGID_4_)" fill-rule="evenodd" clip-rule="evenodd" points="55.212,212.702 54.604,214.3 56.589,214.962 
		57.05,213.9 57.062,213.799 57.066,213.693 57.05,213.58 57.011,213.473 56.947,213.377 56.896,213.274 56.813,213.172 
		56.728,213.08 56.638,212.996 56.538,212.91 56.436,212.833 56.337,212.777 56.241,212.715 56.128,212.666 56.03,212.611 
		55.935,212.581 55.848,212.552 55.745,212.538 55.653,212.53 55.563,212.542 55.474,212.556 55.378,212.586 55.294,212.644 	"></polygon>
	<polygon clip-path="url(#SVGID_4_)" fill-rule="evenodd" clip-rule="evenodd" points="56.5,214.911 56.624,214.857 54.639,214.195 
		54.571,214.396 56.558,215.057 56.691,215.007 	"></polygon>
	<polygon clip-path="url(#SVGID_4_)" points="25.867,213.812 25.877,213.783 26.482,212.194 26.674,212.259 26.087,213.829 
		26.075,213.892 26.072,213.87 25.867,213.909 25.865,213.887 	"></polygon>
	<polygon clip-path="url(#SVGID_4_)" fill="#4D494A" points="35.603,217.573 35.568,217.594 35.564,217.591 	"></polygon>
	<path clip-path="url(#SVGID_4_)" d="M25.942,214.168l0.021,0.093l0.004-0.01l0.155-0.032l-0.04,0.102l4.452-0.145l0.104,0.003
		l0.116,0.039l0.115,0.037l0.114,0.04l0.106,0.066l0.086,0.061l0.062,0.075l0.036,0.073l-0.104,0.033l1.77,5.333l0.104,0.001
		l0.002,0.066h0.159l0.151-0.004l0.137,0.004l0.125-0.023l0.127-0.033l0.128-0.062l0.118-0.1l0.141-0.134l0.002-0.011l0.082-0.111
		l0.091-0.118l0.106-0.124l0.074-0.125l0.094-0.15l0.096-0.128l0.079-0.143l0.103-0.149l0.083-0.12l0.119-0.131l0.097-0.128
		l0.111-0.113l0.099-0.105l0.106-0.093l0.102-0.082l0.119-0.066l0.025-0.014l-0.077-0.072l0.077,0.072l0.119-0.131l0.108-0.102
		l0.096-0.095l0.104-0.085l0.1-0.072l0.104-0.062l0.092-0.054l0.104-0.051l0.114-0.026l0.113-0.046l0.115-0.027l0.133-0.019
		l0.147-0.026l0.163-0.01l0.177-0.015l0.172-0.007l0.01,0.004l19.207-1.436l0.111-0.014l0.104-0.021l0.092-0.022l0.097-0.032
		l0.088-0.045l0.094-0.055l0.076-0.069l0.088-0.078l0.02-0.024l0.336-0.783l-0.175-0.113l0.077,0.076l-0.012,0.01l-0.085-0.06
		l-0.083,0.196l-0.057,0.033l-0.073,0.03l-0.087,0.035l-0.081,0.016l-0.101,0.02l-0.104,0.019l-19.216,1.432l-0.122,0.012
		l-0.118,0.004l-0.117,0.002l-0.125,0.021h-0.129l-0.111,0.018l-0.121,0.013l-0.112,0.016l-0.125,0.023l-0.113,0.015l-0.114,0.025
		l-0.128,0.033l-0.115,0.025l-0.122,0.044l-0.122,0.046l-0.115,0.057l-0.227,0.137l-0.231,0.211l-0.243,0.25l-0.234,0.284
		l-0.227,0.297l-0.195,0.266l-0.192,0.256l-0.158,0.192l-0.094,0.022l-0.079,0.017l-0.101,0.009h-0.096h-0.096l-0.082-0.006
		l-0.106-0.004l-0.093-0.01l-1.764-5.32l-0.038-0.077l-0.061-0.074l-0.085-0.06l-0.116-0.07l-0.112-0.048l-0.115-0.04l-0.108-0.024
		l-0.106-0.003l-4.447,0.136l-0.535,1.405l-0.003-0.019L25.942,214.168z M57.901,214.315l0.006-0.014l0.073,0.07L57.901,214.315z"></path>
	<polygon clip-path="url(#SVGID_4_)" fill-rule="evenodd" clip-rule="evenodd" points="57.229,214.708 57.343,214.681 
		57.445,214.662 57.539,214.639 57.635,214.607 57.724,214.562 57.816,214.509 57.891,214.449 57.98,214.372 57.828,214.224 
		57.76,214.297 57.689,214.35 57.621,214.391 57.549,214.419 57.478,214.438 57.395,214.463 57.305,214.477 57.207,214.486 	"></polygon>
	<polygon clip-path="url(#SVGID_4_)" fill-rule="evenodd" clip-rule="evenodd" points="38.024,216.132 57.229,214.708 
		57.207,214.486 38,215.92 	"></polygon>
	<polygon clip-path="url(#SVGID_4_)" fill-rule="evenodd" clip-rule="evenodd" points="36.141,216.473 36.253,216.426 
		36.362,216.386 36.494,216.345 36.602,216.307 36.72,216.273 36.832,216.256 36.944,216.24 37.068,216.218 37.172,216.197 
		37.289,216.196 37.411,216.183 37.532,216.17 37.653,216.157 37.762,216.151 37.893,216.142 38.024,216.132 38,215.92 
		37.877,215.935 37.757,215.946 37.629,215.946 37.507,215.959 37.388,215.963 37.273,215.987 37.154,215.99 37.023,216 
		36.908,216.026 36.793,216.051 36.668,216.074 36.54,216.105 36.432,216.144 36.301,216.185 36.17,216.227 36.054,216.284 	"></polygon>
	<polygon clip-path="url(#SVGID_4_)" fill-rule="evenodd" clip-rule="evenodd" points="34.42,218.371 34.462,218.343 
		34.548,218.243 34.624,218.141 34.717,218.023 34.813,217.895 34.923,217.761 35.022,217.623 35.134,217.479 35.246,217.336 
		35.36,217.183 35.479,217.051 35.595,216.929 35.713,216.798 35.812,216.692 35.937,216.607 36.038,216.524 36.141,216.473 
		36.054,216.284 35.923,216.358 35.812,216.437 35.68,216.543 35.557,216.662 35.44,216.783 35.326,216.904 35.198,217.064 
		35.085,217.208 34.974,217.352 34.862,217.495 34.763,217.633 34.653,217.767 34.558,217.895 34.465,218.014 34.39,218.116 
		34.318,218.199 34.356,218.179 	"></polygon>
	<polygon clip-path="url(#SVGID_4_)" fill-rule="evenodd" clip-rule="evenodd" fill="#FFFFFF" points="30.741,212.593 
		31.137,212.587 31.169,212.587 27.765,211.452 27.592,211.554 30.738,212.603 	"></polygon>
	<polygon clip-path="url(#SVGID_4_)" fill-rule="evenodd" clip-rule="evenodd" fill="#FFFFFF" points="30.741,212.593 
		26.69,212.723 26.674,212.643 26.652,212.551 26.627,212.468 26.595,212.372 26.578,212.291 26.578,212.228 26.604,212.15 
		26.674,212.099 26.841,211.984 27.026,211.876 27.212,211.767 27.397,211.659 27.573,211.546 27.592,211.554 30.738,212.603 	"></polygon>
	<polygon clip-path="url(#SVGID_4_)" fill="#FFFFFF" points="28.278,215.054 31.038,214.898 32.118,215.333 32.499,216.461 
		32.615,216.852 32.158,216.88 31.709,216.88 31.297,216.872 30.919,216.852 30.553,216.803 30.209,216.743 29.896,216.66 
		29.583,216.576 29.29,216.467 29.003,216.361 28.736,216.24 28.47,216.109 28.195,215.975 27.933,215.833 27.672,215.693 
		27.399,215.549 27.374,215.435 27.354,215.331 27.329,215.217 27.312,215.104 	"></polygon>
	<polygon clip-path="url(#SVGID_4_)" fill-rule="evenodd" clip-rule="evenodd" fill="#FFFFFF" points="35.23,215.369 35.27,215.415 
		35.624,215.628 35.738,215.445 35.383,215.229 35.418,215.284 35.23,215.369 35.243,215.395 35.27,215.415 	"></polygon>
	<polygon clip-path="url(#SVGID_4_)" fill-rule="evenodd" clip-rule="evenodd" fill="#FFFFFF" points="32.074,215.436 
		32.014,215.362 32.519,216.883 32.719,216.822 32.214,215.3 32.16,215.24 32.214,215.3 32.199,215.253 32.16,215.24 	"></polygon>
	<polygon clip-path="url(#SVGID_4_)" fill-rule="evenodd" clip-rule="evenodd" fill="#FFFFFF" points="31.048,214.998 
		30.997,214.991 32.075,215.436 32.16,215.24 31.084,214.796 31.041,214.792 31.084,214.796 31.063,214.79 31.041,214.792 	"></polygon>
	<polygon clip-path="url(#SVGID_4_)" fill-rule="evenodd" clip-rule="evenodd" fill="#FFFFFF" points="27.422,215.099 
		27.319,215.213 31.048,214.998 31.042,214.792 27.313,215.008 27.215,215.113 27.313,215.008 27.194,215.011 27.215,215.113 	"></polygon>
	<polygon clip-path="url(#SVGID_4_)" fill-rule="evenodd" clip-rule="evenodd" fill="#FFFFFF" points="27.452,215.46 
		27.492,215.526 27.489,215.472 27.477,215.415 27.473,215.36 27.457,215.312 27.454,215.259 27.44,215.201 27.425,215.153 
		27.422,215.099 27.215,215.113 27.214,215.178 27.223,215.245 27.239,215.291 27.244,215.346 27.258,215.395 27.271,215.454 
		27.294,215.514 27.297,215.568 27.348,215.638 27.297,215.568 27.312,215.616 27.348,215.638 	"></polygon>
	<polygon clip-path="url(#SVGID_4_)" fill-rule="evenodd" clip-rule="evenodd" fill="#FFFFFF" points="32.52,216.873 
		32.607,216.743 32.15,216.772 31.709,216.785 31.31,216.769 30.922,216.745 30.577,216.694 30.232,216.643 29.919,216.56 
		29.615,216.48 29.32,216.371 29.05,216.259 28.777,216.146 28.512,216.017 28.247,215.885 27.985,215.745 27.723,215.603 
		27.451,215.46 27.348,215.638 27.619,215.783 27.882,215.924 28.151,216.076 28.416,216.207 28.694,216.332 28.962,216.455 
		29.253,216.572 29.547,216.682 29.87,216.768 30.187,216.841 30.538,216.906 30.906,216.954 31.291,216.985 31.716,216.989 
		32.158,216.977 32.633,216.954 32.719,216.822 32.633,216.954 32.764,216.944 32.719,216.822 32.519,216.883 	"></polygon>
	<polygon clip-path="url(#SVGID_4_)" fill-rule="evenodd" clip-rule="evenodd" fill="#FFFFFF" points="38,215.92 37.859,215.927 
		37.701,215.949 37.561,215.955 37.408,215.968 37.26,215.993 37.104,216.017 36.947,216.039 36.796,216.074 36.646,216.109 
		36.515,216.15 36.371,216.197 36.237,216.249 36.121,216.307 35.984,216.367 35.873,216.447 35.769,216.53 35.898,216.691 
		35.997,216.617 36.093,216.552 36.198,216.492 36.319,216.447 36.439,216.38 36.566,216.348 36.717,216.313 36.848,216.272 
		36.992,216.256 37.12,216.224 37.273,216.211 37.42,216.186 37.577,216.163 37.73,216.15 37.874,216.135 38.024,216.132 	"></polygon>
	<polygon clip-path="url(#SVGID_4_)" fill-rule="evenodd" clip-rule="evenodd" fill="#FFFFFF" points="57.206,214.486 38,215.92 
		38.023,216.132 57.228,214.708 	"></polygon>
	<polygon clip-path="url(#SVGID_4_)" fill-rule="evenodd" clip-rule="evenodd" fill="#FFFFFF" points="57.564,213.315 
		57.645,213.428 57.728,213.531 57.767,213.639 57.827,213.745 57.858,213.841 57.869,213.939 57.871,214.025 57.864,214.108 
		57.843,214.176 57.811,214.24 57.769,214.301 57.694,214.362 57.619,214.4 57.497,214.445 57.369,214.477 57.207,214.486 
		57.229,214.708 57.404,214.69 57.558,214.646 57.691,214.593 57.811,214.528 57.919,214.457 57.996,214.354 58.038,214.262 
		58.076,214.147 58.073,214.028 58.079,213.914 58.053,213.799 58.011,213.669 57.964,213.555 57.899,213.428 57.816,213.294 
		57.734,213.191 	"></polygon>
	<polygon clip-path="url(#SVGID_4_)" fill-rule="evenodd" clip-rule="evenodd" fill="#FFFFFF" points="55.274,212.222 
		55.448,212.215 55.624,212.232 55.803,212.271 55.974,212.297 56.139,212.351 56.302,212.405 56.458,212.479 56.606,212.549 
		56.759,212.632 56.899,212.721 57.05,212.814 57.159,212.903 57.273,213.006 57.385,213.118 57.478,213.223 57.565,213.315 
		57.734,213.191 57.635,213.073 57.522,212.961 57.411,212.849 57.287,212.744 57.149,212.645 57.012,212.546 56.871,212.456 
		56.711,212.359 56.545,212.283 56.375,212.215 56.202,212.159 56.021,212.098 55.841,212.058 55.659,212.03 55.45,212.014 
		55.27,212.016 	"></polygon>
	<polygon clip-path="url(#SVGID_4_)" fill-rule="evenodd" clip-rule="evenodd" fill="#FFFFFF" points="38.281,212.807 
		55.275,212.222 55.27,212.016 38.284,212.605 	"></polygon>
	<polygon clip-path="url(#SVGID_4_)" fill-rule="evenodd" clip-rule="evenodd" fill="#FFFFFF" points="35.599,212.38 
		35.758,212.445 35.927,212.479 36.091,212.534 36.261,212.569 36.439,212.608 36.605,212.653 36.787,212.682 36.95,212.705 
		37.121,212.74 37.296,212.755 37.468,212.781 37.638,212.783 37.802,212.806 37.975,212.8 38.13,212.811 38.281,212.807 
		38.284,212.605 38.124,212.605 37.967,212.597 37.821,212.59 37.654,212.577 37.488,212.564 37.322,212.551 37.159,212.528 
		36.986,212.503 36.816,212.468 36.654,212.445 36.488,212.401 36.315,212.375 36.149,212.329 35.972,212.282 35.825,212.244 
		35.663,212.189 35.596,212.391 	"></polygon>
	<polygon clip-path="url(#SVGID_4_)" fill-rule="evenodd" clip-rule="evenodd" fill="#FFFFFF" points="29.866,210.81 
		30.157,210.769 30.431,210.742 30.693,210.723 30.933,210.707 31.161,210.697 31.365,210.723 31.576,210.729 31.752,210.746 
		31.935,210.774 32.104,210.811 32.264,210.842 32.408,210.89 32.562,210.941 32.682,210.992 32.833,211.053 32.951,211.113 
		33.088,211.182 33.226,211.248 33.361,211.326 33.494,211.402 33.63,211.478 33.77,211.569 33.907,211.636 34.057,211.728 
		34.223,211.806 34.383,211.901 34.562,211.972 34.735,212.061 34.93,212.147 35.142,212.218 35.366,212.313 35.596,212.391 
		35.663,212.189 35.432,212.112 35.206,212.026 35.016,211.951 34.818,211.875 34.636,211.782 34.479,211.709 34.319,211.613 
		34.163,211.54 34.01,211.457 33.866,211.376 33.731,211.3 33.591,211.209 33.457,211.133 33.319,211.065 33.181,211 
		33.056,210.925 32.919,210.859 32.769,210.797 32.628,210.74 32.474,210.688 32.312,210.634 32.142,210.599 31.971,210.573 
		31.78,210.532 31.586,210.509 31.385,210.507 31.15,210.503 30.927,210.502 30.667,210.512 30.405,210.531 30.127,210.566 
		29.84,210.598 29.855,210.805 	"></polygon>
	<polygon clip-path="url(#SVGID_4_)" fill-rule="evenodd" clip-rule="evenodd" fill="#FFFFFF" points="26.729,212.193 
		26.895,212.077 27.08,211.968 27.266,211.86 27.454,211.742 27.627,211.64 27.823,211.534 28.005,211.435 28.192,211.349 
		28.395,211.257 28.596,211.163 28.793,211.081 28.999,211.01 29.22,210.957 29.421,210.896 29.642,210.842 29.856,210.805 
		29.84,210.598 29.601,210.645 29.373,210.688 29.149,210.75 28.937,210.809 28.728,210.897 28.509,210.975 28.312,211.059 
		28.11,211.151 27.906,211.253 27.71,211.358 27.528,211.457 27.342,211.565 27.156,211.675 26.972,211.782 26.796,211.895 
		26.62,212.006 26.718,212.189 	"></polygon>
	<polygon clip-path="url(#SVGID_4_)" fill-rule="evenodd" clip-rule="evenodd" fill="#FFFFFF" points="26.69,212.627 
		26.798,212.716 26.767,212.621 26.748,212.518 26.722,212.435 26.7,212.343 26.688,212.284 26.676,212.249 26.694,212.202 
		26.718,212.189 26.62,212.006 26.528,212.092 26.479,212.205 26.466,212.308 26.499,212.403 26.521,212.496 26.546,212.579 
		26.572,212.662 26.587,212.742 26.688,212.827 26.587,212.742 26.591,212.827 26.688,212.827 	"></polygon>
	<polygon clip-path="url(#SVGID_4_)" fill="#FFFFFF" points="34.54,213.382 34.537,213.391 34.536,213.391 	"></polygon>
	<polygon clip-path="url(#SVGID_4_)" fill="#FFFFFF" points="34.491,213.43 34.536,213.391 34.511,213.499 	"></polygon>
	<polygon clip-path="url(#SVGID_4_)" fill="#FFFFFF" points="37.353,214.65 40.856,215.819 40.478,215.842 40.475,215.851 
		37.431,214.836 	"></polygon>
	<path clip-path="url(#SVGID_4_)" fill="#FFFFFF" d="M26.688,212.827l4.45-0.145l0.093,0.009l0.086,0.029l0.116,0.038l0.105,0.036
		l0.096,0.064l0.07,0.044l0.042,0.068l0.032,0.032l1.771,5.332l0.025,0.083l0.086-0.003l0.09-0.012l0.102,0.012l0.125,0.01
		l0.118-0.004l0.115,0.007l0.106-0.029l0.117-0.035l0.096-0.063l0.115-0.123l0.097-0.127l0.089-0.108l0.089-0.108l0.077-0.103
		l0.074-0.093l0.064-0.094l0.077-0.104l0.063-0.095l0.073-0.093l0.074-0.094l0.079-0.079l0.083-0.09l0.096-0.096l0.097-0.096
		l0.121-0.107l-0.064-0.082l0.096-0.08l0.11-0.069l0.126-0.055l0.113-0.058l0.125-0.053l0.14-0.04l0.145-0.048l0.14-0.037
		l0.135-0.02l0.146-0.026l0.156-0.021l0.148-0.025l0.153-0.013l0.154-0.013l0.143-0.016l0.142-0.005l2.469-0.179l-3.042-1.014
		l-0.079-0.187l3.503,1.169l16.365-1.221l0.305-0.048l0.228-0.105l0.157-0.15l0.056-0.172v-0.191l0.003-0.01l-0.054-0.22
		l-0.109-0.218l-0.158-0.233l-0.092-0.105l-0.102-0.109l-0.113-0.111l-0.117-0.094l-0.125-0.105l-0.14-0.089l-0.15-0.093
		l-0.151-0.093l-0.161-0.064l-0.157-0.073l-0.172-0.058l-0.183-0.06l-0.171-0.025l-0.18-0.039l-0.186-0.02l-0.181,0.003
		l-2.472,0.091l-14.513,0.497h-0.161l-0.149,0.002l-0.17-0.002l-0.162-0.022l-0.167-0.014l-0.166-0.013l-0.163-0.023l-0.173-0.025
		L36.8,212.58l-0.169-0.035l-0.169-0.037l-0.169-0.034l-0.175-0.047l-0.166-0.047l-0.158-0.041l-0.163-0.053l-0.231-0.078
		l-0.226-0.086l-0.199-0.076l-0.197-0.078l-0.175-0.089l-0.165-0.076l-0.172-0.091l-0.157-0.073l-0.151-0.092l-0.133-0.078
		l-0.145-0.08l-0.134-0.076l-0.145-0.08l-0.133-0.078l-0.128-0.063l-0.135-0.078l-0.137-0.066l-0.142-0.059l-0.133-0.045
		l-0.153-0.05l-0.163-0.054l-0.156-0.043l-0.173-0.024l-0.183-0.029l-0.186-0.021l-0.208-0.015l-0.221-0.01l-0.226,0.01
		l-0.238,0.006l-0.265,0.028l-0.276,0.026l-0.299,0.038l-0.225,0.032l-0.221,0.054l-0.221,0.054l-0.205,0.071l-0.217,0.078
		l-0.208,0.079l-0.198,0.083l-0.202,0.093l-0.193,0.096l-0.194,0.106l3.105,1.036l-4.181,0.14L26.688,212.827z M55.15,212.917
		l0.019-0.123l0.043-0.092l0.075-0.07l0.115-0.058l0.135-0.018l0.074,0.002l0.083,0.006l0.079,0.016l0.081,0.016l0.096,0.032
		l0.087,0.029l0.092,0.041l0.099,0.054l0.083,0.039l0.087,0.061l0.077,0.057l0.083,0.071l0.085,0.06l0.06,0.074l0.074,0.067
		l0.061,0.072l0.111,0.145l0.058,0.147l0.029,0.073l0.016,0.049l-0.009,0.125l-0.023,0.098l-0.071,0.083l-0.102,0.051l-0.138,0.028
		l-0.077,0.007l-0.079-0.018l-0.093-0.009l-0.1-0.022l-0.086-0.029l-0.096-0.032l-0.101-0.044l-0.092-0.051l-0.091-0.042
		l-0.101-0.054l-0.086-0.06l-0.083-0.071l-0.076-0.058l-0.081-0.079l-0.07-0.077l-0.061-0.075l-0.098-0.151l-0.059-0.145
		l-0.016-0.048L55.15,212.917z M37.459,215.176L37.459,215.176l-0.068-0.055L37.459,215.176z M34.736,213.486l0.112-0.113
		l1.461-0.084l0.309,0.161l0.732,1.724l-0.114,0.145l-1.568,0.112l0.069,0.014l-0.053,0.084h-0.007l-0.348-0.2l-0.001-0.003
		l0.091-0.042L34.736,213.486z"></path>
	<polygon clip-path="url(#SVGID_4_)" fill-rule="evenodd" clip-rule="evenodd" points="54.162,214.024 54.073,213.974 
		54.057,213.893 54.185,213.861 54.211,213.945 54.134,213.887 	"></polygon>
	<polygon clip-path="url(#SVGID_4_)" fill-rule="evenodd" clip-rule="evenodd" points="54.336,213.922 54.316,213.948 
		54.284,213.979 54.245,213.999 54.208,214.018 54.162,214.024 54.134,213.887 54.153,213.893 54.182,213.871 54.216,213.861 
		54.22,213.853 54.214,213.871 54.332,213.932 	"></polygon>
	<polygon clip-path="url(#SVGID_4_)" fill-rule="evenodd" clip-rule="evenodd" points="53.974,213.12 53.984,213.123 
		54.045,213.197 54.124,213.277 54.201,213.367 54.274,213.465 54.334,213.571 54.37,213.69 54.371,213.817 54.332,213.932 
		54.214,213.871 54.238,213.794 54.233,213.718 54.211,213.625 54.153,213.543 54.089,213.447 54.021,213.369 53.938,213.29 
		53.877,213.216 53.887,213.219 	"></polygon>
	<polygon clip-path="url(#SVGID_4_)" fill-rule="evenodd" clip-rule="evenodd" points="52.797,212.781 52.787,212.777 
		52.957,212.781 53.117,212.781 53.268,212.809 53.411,212.825 53.557,212.864 53.696,212.931 53.839,213.011 53.974,213.12 
		53.888,213.219 53.756,213.132 53.631,213.059 53.513,212.999 53.386,212.965 53.244,212.941 53.101,212.924 52.954,212.918 
		52.803,212.921 52.808,212.912 52.784,212.787 	"></polygon>
	<polygon clip-path="url(#SVGID_4_)" fill-rule="evenodd" clip-rule="evenodd" points="40.321,213.435 40.375,213.399 
		52.784,212.787 52.808,212.912 40.395,213.534 40.448,213.499 	"></polygon>
	<polygon clip-path="url(#SVGID_4_)" fill-rule="evenodd" clip-rule="evenodd" points="40.026,213.869 39.892,213.824 
		39.902,213.731 39.927,213.655 39.965,213.572 40.016,213.515 40.083,213.473 40.17,213.438 40.266,213.406 40.375,213.399 
		40.394,213.534 40.291,213.553 40.199,213.576 40.154,213.581 40.109,213.62 40.087,213.655 40.053,213.696 40.033,213.754 
		40.037,213.84 39.902,213.794 	"></polygon>
	<polygon clip-path="url(#SVGID_4_)" points="54.083,213.817 54.049,213.762 54.002,213.705 53.967,213.65 53.919,213.602 
		53.874,213.545 53.826,213.497 53.782,213.44 53.654,213.344 53.522,213.257 53.391,213.203 53.254,213.168 53.111,213.151 
		52.959,213.124 52.813,213.116 52.653,213.116 40.241,213.739 40.342,213.545 40.382,213.54 40.394,213.534 52.808,212.912 
		53.015,212.928 53.188,212.921 53.35,212.944 53.5,212.973 53.638,213.04 53.762,213.113 53.878,213.216 54.009,213.367 
		54.125,213.501 54.208,213.634 54.249,213.733 54.249,213.797 54.22,213.853 54.141,213.9 54.129,213.903 54.125,213.884 	"></polygon>
	<path clip-path="url(#SVGID_4_)" d="M39.892,213.824l0.012,0.121l0.025,0.083l0.036,0.118l0.083,0.135l0.102,0.108l0.13,0.12
		l0.158,0.105l0.176,0.08l0.184,0.05l0.225,0.001l12.751-0.647l0.243-0.025l0.172-0.038l0.126-0.087l0.07-0.116l-0.003-0.118
		l-0.048-0.144l-0.092-0.137l-0.128-0.161l-0.131-0.149L53.842,213l-0.149-0.091l-0.146-0.071l-0.161-0.032l-0.192-0.032h-0.191
		l-0.218,0.013l-12.409,0.612v0.003l-0.132,0.007l-0.133,0.051l-0.089,0.077l-0.061,0.086l-0.042,0.093L39.892,213.824z
		 M40.037,213.84l0.015-0.08l0.005-0.013l0.011-0.003h0.064l0.108-0.006l0.104-0.193l0.038-0.005l0.012-0.006l12.414-0.622
		l0.208,0.016l0.172-0.006l0.163,0.023l0.15,0.028l0.139,0.067l0.124,0.073l0.115,0.103l0.132,0.15l0.114,0.134l0.084,0.133
		l0.04,0.099v0.064l-0.028,0.055l-0.08,0.048l-0.011,0.002l-0.14,0.033l-0.21,0.024l-12.755,0.657l-0.01-0.003l-0.178-0.006
		l-0.176-0.048l-0.158-0.074l-0.133-0.076l-0.113-0.112l-0.08-0.113l-0.07-0.108l-0.055-0.092l-0.01-0.068L40.037,213.84z"></path>
</g>
</svg>