<svg xmlns="http://www.w3.org/2000/svg" viewBox="0 0 3600 3000" width="3600" height="3000">
  <defs>
    <style>
      .cls-1, .cls-2, .cls-3, .cls-4, .cls-5, .cls-6, .cls-7, .cls-8, .cls-9, .cls-10, .cls-11, .cls-12, .cls-13, .cls-14, .cls-15 {
        fill: none;
      }

      .cls-16 {
        letter-spacing: -.018em;
      }

      .cls-17 {
        font-size: 10.147px;
      }

      .cls-17, .cls-18, .cls-19 {
        font-family: Arial-Black, Arial Black;
      }

      .cls-17, .cls-18, .cls-19, .cls-20, .cls-21, .cls-22, .cls-23, .cls-24 {
        isolation: isolate;
      }

      .cls-17, .cls-18, .cls-19, .cls-24 {
        fill: #231f20;
      }

      .cls-18 {
        font-size: 12.177px;
      }

      .cls-2 {
        stroke-dasharray: 0 0 4.952 4.952;
      }

      .cls-2, .cls-3, .cls-4, .cls-5, .cls-6, .cls-7, .cls-8, .cls-9, .cls-10, .cls-11, .cls-12, .cls-13 {
        stroke-miterlimit: 10;
      }

      .cls-2, .cls-3, .cls-4, .cls-5, .cls-6, .cls-7, .cls-8, .cls-9, .cls-10, .cls-13 {
        stroke: #2ba8e0;
      }

      .cls-25 {
        letter-spacing: -.043em;
      }

      .cls-26 {
        letter-spacing: -.034em;
      }

      .cls-27 {
        letter-spacing: -.034em;
      }

      .cls-28 {
        fill: #020202;
      }

      .cls-29, .cls-22 {
        fill: #e9292f;
      }

      .cls-30 {
        fill: #fff;
      }

      .cls-31 {
        fill: #b7d335;
      }

      .cls-32 {
        fill: #d1d2d2;
      }

      .cls-33 {
        fill: #4f4b4c;
      }

      .cls-3 {
        stroke-dasharray: 0 0 4.974 4.974;
      }

      .cls-4 {
        stroke-dasharray: 0 0 4.974 4.974;
      }

      .cls-34 {
        letter-spacing: 0em;
      }

      .cls-19 {
        font-size: 9.001px;
      }

      .cls-20 {
        fill: #919395;
      }

      .cls-20, .cls-21, .cls-22 {
        font-size: 7.501px;
      }

      .cls-20, .cls-21, .cls-22, .cls-24 {
        font-family: Arial-BoldMT, Arial;
      }

      .cls-21 {
        fill: #30a2db;
      }

      .cls-5 {
        stroke-dasharray: 0 0 4.952 4.952;
      }

      .cls-6 {
        stroke-dasharray: 0 0 4.952 4.952;
      }

      .cls-7 {
        stroke-dasharray: 0 0 5.015 5.015;
      }

      .cls-8 {
        stroke-dasharray: 0 0 5.015 5.015;
      }

      .cls-9 {
        stroke-dasharray: 0 0 5.015 5.015;
      }

      .cls-35 {
        letter-spacing: -.025em;
      }

      .cls-36 {
        letter-spacing: -.018em;
      }

      .cls-37 {
        letter-spacing: -.037em;
      }

      .cls-38 {
        letter-spacing: -.037em;
      }

      .cls-10 {
        stroke-dasharray: 0 0 5.042 5.042;
      }

      .cls-39 {
        letter-spacing: .027em;
      }

      .cls-40 {
        letter-spacing: 0em;
      }

      .cls-41 {
        letter-spacing: -.055em;
      }

      .cls-42 {
        letter-spacing: .016em;
      }

      .cls-43 {
        letter-spacing: -.026em;
      }

      .cls-44 {
        letter-spacing: 0em;
      }

      .cls-11 {
        stroke: #00a54e;
      }

      .cls-12 {
        stroke: red;
      }

      .cls-45 {
        opacity: .5;
      }

      .cls-46 {
        letter-spacing: 0em;
      }

      .cls-14 {
        stroke: #919395;
      }

      .cls-15 {
        stroke: #e9292f;
      }

      .cls-47 {
        letter-spacing: -.017em;
      }

      .cls-48 {
        letter-spacing: -.017em;
      }

      .cls-24 {
        font-size: 7.528px;
      }

      .cls-49 {
        letter-spacing: -.026em;
      }
    </style>
  </defs>
  <g id="Bleed_Zone" data-name="Bleed Zone">
    <path class="cls-45" d="M0,0V720H864V0H0ZM833.964,490.849h-45.36v4.252l-149.502-.721,64.295,70.121v77.222h-49.963l-4.252,4.252h-10.08l-4.252,41.979H229.151l-4.252-41.979h-10.08l-4.252-4.252h-49.963v-77.222l64.295-70.121-149.502,.721v-4.252H30.036V229.151h45.36v-4.252l149.502,.721-64.295-70.121V78.277h49.963l4.252-4.252h10.08l4.252-41.979h405.699l4.252,41.979h10.08l4.252,4.252h49.963v77.222l-64.295,70.121,149.502-.721v4.252h45.36V490.849Z"></path>
  </g>
  <g id="Info">
    <g>
      <g>
        <rect class="cls-32" x="17.978" y="596.307" width="108.433" height="105.57"></rect>
        <g class="cls-23" transform="matrix(0.9979 0 0 1 29.6016 117.0215)">
          
          
        </g>
        <g>
          <ellipse class="cls-28" cx="72.762" cy="639.043" rx="38.907" ry="38.988"></ellipse>
          <ellipse class="cls-31" cx="72.788" cy="639.26" rx="35.37" ry="35.443"></ellipse>
          <g>
            <path class="cls-28" d="M65.216,631.529c-.491,4.344-.856,7.834-1.097,10.468l-1.616,.071c.024-.088,.037-.187,.039-.295,.003-.198-.069-.459-.218-.779s-.232-.527-.253-.613c-.417,.057-.818,.35-1.199,.867-.382,.521-.728,.781-1.032,.776-.176-.004-.373-.053-.591-.143-.288,.192-.663,.272-1.122,.243-.415-.072-.82-.135-1.215-.186-.012-.549-.553-1.029-1.621-1.445,.006-.22-.104-.546-.328-.976-.223-.435-.334-.738-.332-.913,.004-.2,.086-.361,.241-.492-.022-.065-.202-.475-.54-1.229-.23-.553-.343-1.029-.336-1.423,.005-.308,.076-.593,.212-.854-.188-1.871-.271-3.477-.247-4.817,.033-2.065,.328-3.964,.885-5.69-.039-.264-.057-.527-.053-.792,.025-1.385,.502-2.343,1.43-2.876l.009-.43c.919-1.172,2.129-2.02,3.629-2.542,.896,.212,1.792,.415,2.688,.605,1.004,.347,1.696,.939,2.075,1.783,.303,.182,.453,.547,.442,1.095-.009,.615,.059,1.013,.21,1.191l-.166,.194c.175,1.3,.26,2.095,.256,2.38-.016,.832-.234,1.424-.655,1.768-.154-.003-.558-.141-1.211-.416-.155,.15-.322,.227-.497,.223-.09-.001-.248-.047-.475-.141-.23-.091-.422-.138-.575-.141-.11-.002-.219,.019-.329,.059-.014-1.734,.04-3.033,.163-3.887-.173-.113-.35-.37-.528-.768-.181-.397-.413-.623-.696-.67-.179,.216-.258,.357-.237,.424l-.588-.208c-.537,.585-.895,1.6-1.072,3.048-.183,1.666-.409,2.773-.681,3.317,.235,.247,.353,.591,.344,1.028-.002,.155-.028,.409-.078,.758-.051,.353-.077,.613-.078,.79-.006,.199,.013,.376,.057,.53l-.402,.387c.164,.75,.257,1.697,.281,2.842-.018,.967-.023,1.934-.018,2.9-.022,0-.208,.01-.56,.022-.219-.003-.375,.072-.465,.226,.134-.021,.254-.031,.363-.029,.481,.008,.861,.35,1.135,1.025,.272,.676,.508,1.015,.706,1.02,.219,.004,.52-.201,.899-.613,.645-.692,.981-1.641,1.004-2.85,.009-.595-.058-1.232-.199-1.916-.156,.085-.236,.303-.243,.654-.35-.007-.571,.068-.662,.219-.151-.046-.215-.166-.192-.365,.028-.285,.041-.438,.044-.461,.264-.083,.397-.202,.399-.356,.002-.064-.047-.188-.142-.364-.095-.178-.142-.32-.14-.432,.001-.088,.023-.175,.068-.263l.156-1.282c.479,.14,1.518,.201,3.121,.185-.047,.11,.018,.255,.191,.431,.154-.15,.319-.225,.496-.221,.131,.004,.328,.061,.59,.174,.26,.117,.446,.175,.556,.175Z"></path>
            <path class="cls-28" d="M77.495,642.884c-.306-.137-.634-.208-.985-.215-.307-.005-.727,.054-1.255,.178-.591,.12-1,.19-1.219,.21-.233-.465-.397-1.107-.493-1.923-.178-1.188-.288-1.861-.328-2.014,.065-.134,.102-.241,.104-.329,.006-.244-.186-.459-.564-.652-.383-.194-.569-.346-.567-.455,0-.133,.224-.326,.667-.583-.107-.135-.188-.403-.232-.81-.049-.408-.148-.682-.299-.816-.27,.238-.702,.391-1.308,.459-.605,.066-1.008,.162-1.206,.289,.015,1.717-.268,2.866-.85,3.449-.305-.07-.537,.046-.695,.352-.228,.37-.416,.588-.57,.65l.191,.234c-.178,.148-.463,.21-.855,.182-.613-.033-.944-.048-.988-.049l-.186-.597,2.143-17.802c.02-1.121,.075-1.88,.172-2.273-.029-.988,.2-1.6,.686-1.832,.305,.201,.688,.308,1.147,.313,.373,.007,.957-.07,1.749-.233,.791-.162,1.342-.24,1.65-.236,1.072,.018,1.54,.797,1.405,2.333-.107,1.229,.083,2.848,.576,4.856,.513,2.164,.759,3.782,.74,4.859-.003,.331,.103,1.014,.077,1.343-.467,.254-1.061,.409-1.784,.461-.639,.036-1.285,.067-1.944,.102-.169-1.673-.463-3.688-.634-5.343-.206-1.98-.464-3.612-.772-4.891l-1.014,9.412c-.08,.811,.287,1.225,1.098,1.239,.263,.004,.515-.059,.76-.185,.198-.062,.471,.085,.815,.442-.012,.681,.123,1.089,.407,1.227,.354-.237,.819-.458,1.392-.671,.509-.188,1.006-.366,1.49-.534,.277,.38,.456,.942,.533,1.692,.091,1.056,.156,1.672,.198,1.848,.035,.42,.205,1.323,.512,2.713,.224,1.104,.329,1.996,.318,2.678-.006,.329-.036,.638-.082,.922Z"></path>
            <path class="cls-28" d="M92.645,627.184c-.025,.064-.029,.449-.021,1.151-.009,.573-.084,1.002-.219,1.284-.162,.438-.249,1.061-.263,1.875-.004,.176,.002,.451,.019,.825-.007,.372-.009,.647-.014,.823-.024,1.385-.259,2.389-.71,3.021,.037,.354,.054,.703,.049,1.056-.018,1.099-.396,2.577-1.129,4.433-.197,.062-.362,.093-.495,.09-.263-.006-.451-.156-.567-.454-.117-.3-.227-.581-.33-.848,.071-1.69,.035-4.152-.107-7.388l.202-.193c-.146-.575-.21-1.213-.198-1.915,.009-.506,.071-1.241,.187-2.207,.115-.964,.176-1.688,.183-2.173,.008-.309,0-.605-.016-.891-.754,1.812-1.291,4.88-1.604,9.205l-.275,.652c-.09,.221-.278,.338-.563,.355-.084-.152-.173-.233-.262-.236-.064,0-.182,.08-.348,.244-.168,.158-.305,.229-.416,.204l-.436,.389c.195,.245,.611,.274,1.25,.088,.506-.146,.767,.046,.78,.574,.014,.44-.104,1.03-.358,1.774-.254,.742-.384,1.301-.39,1.674-.005,.265,.024,.529,.085,.793l-2.276,.358c-.214-.444-.37-1.188-.472-2.233-.104-1.049-.261-1.791-.473-2.234,.134-.149,.201-.315,.205-.49,.002-.154-.059-.387-.187-.696-.126-.31-.2-.542-.219-.694-.017-.244-.096-.829-.232-1.754-.098-.748-.143-1.332-.136-1.75,.005-.219,.02-.416,.046-.592,0-.152-.086-.38-.254-.682-.169-.301-.255-.515-.25-.646,.001-.109,.045-.207,.136-.293-.152-.18-.212-.489-.182-.929,.028-.438-.035-.747-.182-.925-.324,.851-.496,2.002-.521,3.453-.012,2.021-.032,3.188-.06,3.492l.227,.202-.231,.194c.159,.795,.231,1.807,.21,3.037-.06,2.219-.088,3.251-.085,3.099-.312,.28-.743,.415-1.289,.406-.681-.013-1.144,.049-1.385,.173-.28-.486-.411-1.115-.396-1.884,.009-.593,.11-1.315,.3-2.173-.299-.553-.439-1.325-.421-2.314,.005-.242,.032-.703,.087-1.383,.033-.548,.039-.955,.022-1.22,.222-.105,.333-.224,.335-.355,.002-.088-.066-.238-.207-.45-.139-.211-.207-.371-.207-.48,.003-.133,.094-.263,.272-.393l-.71-10.664c.421-.276,1.105-.408,2.049-.391,1.029,.039,1.733-.016,2.109-.162,.065-.045,.142-.063,.23-.062,.087,0,.189,.052,.311,.152,.119,.102,.199,.152,.242,.153,.088,.003,.166-.062,.235-.194l.613,.605c.206,.771,.399,2.271,.583,4.492,.187,1.916,.478,3.363,.883,4.336,.535-1.947,.979-3.578,1.332-4.891l.712-5.219,5.102-.109c.017,.285,.08,1.812,.219,2.695,.118,.771,.173,1.398,.163,1.881-.007,.551-.092,1.043-.254,1.48,.174,.245,.254,.553,.247,.926-.005,.378-.096,.681-.275,.923Z"></path>
            <path class="cls-28" d="M103.108,638.736v-.033c-.135,.283-.218,.613-.246,.984-.025,.241-.033,.582-.019,1.021,.015,.506,.02,.859,.017,1.057-.176-.003-.878-.016-2.104-.036-.745-.013-1.416,.053-2.013,.196l-.611-.67c-.18,.172-.248,.315-.207,.427-.106-.026-.613-.034-1.511-.028-.703-.011-1.228-.086-1.576-.225-.357,.369-.776,.361-1.251-.021-.175-.133-.191-.36-.053-.677,.136-.316,.096-.553-.122-.712,.033-.701,.132-1.787,.286-3.259,.154-1.314,.237-2.348,.249-3.094,.019-1.011-.053-1.979-.21-2.904,.243-.238,.518-.355,.826-.35,.351,.005,.764,.178,1.24,.515,.672,.474,1.02,.71,1.042,.71l.193,.235c.022-.064,.14-.415,.347-1.051,.117-.415,.286-.687,.508-.814l.195,.2c.086-.041,.376-.246,.865-.611,.375-.258,.684-.867,.901-.862,.244,.003,.471,.14,.687,.407,.367,.205,.601,.994,.715,1.4,.111,.41,.223,.812,.325,1.211-.987,.027-1.799,.001-2.434-.074-.158,.238-.377,.273-.658,.104-.284-.17-.492-.145-.627,.071-.009,.397-.021,1.11-.036,2.143-.039,.923-.052,1.648-.038,2.177,.009,.812,.062,1.561,.16,2.244,.174,.003,1.007,.016,2.498,.042,1.033,.018,1.918,.109,2.662,.277Zm.068-15.793c-.195,.02-.414,.026-.655,.022-.505-.009-1.172-.085-2.003-.233-1.029-.148-1.655-.235-1.871-.262-.316,.455-.48,1.102-.495,1.938-.029,1.802-.031,2.582-.005,2.342,.302,.18,.451,.512,.441,.994-.031,.66-.037,1.002-.018,1.023-.154,.062-.232,.281-.24,.654-.241-.092-.488-.271-.746-.538-.346-.338-.529,.8-.504,.517l-.208,.677-.194-.202c-.178,.019-.478-.073-.9-.277-.426-.205-.723-.395-.896-.576,.007-.353,.064-.549,.175-.591l-.418-.468-.204,.291c-.245-2.287-.183-6.57,.12-8.984,.83,.146,1.75,.239,2.761,.277,.678,.033,1.63,.049,2.86,.049,1.402,.002,2.412,.008,3.025,.018,.26,.248,.387,.568,.378,.963-.002,.244-.071,.632-.2,1.168-.128,.536-.195,.934-.203,1.198Z"></path>
          </g>
          <g>
            <path class="cls-28" d="M66.206,658.67v-.016c0,.011-.059,.495-.171,1.453-.057,.589-.199,1.053-.427,1.389l-.142-.115c-.267,.559-.628,.898-1.088,1.02-.222,.233-.537,.36-.951,.383-.246,.016-.814-.057-1.705-.213-.432-.268-.666-.416-.708-.445-.269-.203-.4-.41-.386-.62-.261-.269-.629-.745-.766-1.343-.168-.66-.272-.699-.428-.93-.248,.184-.336-.206-.48-.439l.13-.102c-.079-.057-.124-.122-.128-.195-.002-.053,.019-.13,.065-.232,.045-.101,.068-.179,.063-.23-.005-.082-.055-.154-.147-.212,.101-.518,.191-1.296,.271-2.335,.178-.096,.261-.277,.253-.551-.011-.27,.027-.45,.113-.539,.418-.839,1.098-1.407,2.041-1.703,.053,.008,.305,.004,.757-.012,.312-.008,.547,.02,.707,.084,.282-.049,.565,.02,.847,.201,.244,.186,.489,.368,.733,.553,.456,.498,.704,1.059,.739,1.684,.014,.207-.002,.43-.039,.661-.338-.013-.58,.212-.72,.671l-1.315,.121c-.141-.199-.223-.467-.242-.801-.006-.115-.006-.282,0-.502s.008-.387,0-.502c-.02-.344-.101-.615-.24-.816l-.396,.225c-.159-.062-.242-.158-.249-.281-.003-.043,.002-.103,.02-.184,.015-.08,.021-.134,.018-.164-.007-.135-.128-.219-.364-.247-.161,1.483-.208,3.011-.143,4.573,.043,.051,.168,.086,.375,.105,.17,.021,.256,.074,.263,.157,.001,.031-.008,.071-.032,.126l-.129,.102c.07,.111,.111,.266,.124,.464,.005,.104,0,.265-.013,.479-.015,.216-.017,.376-.012,.479,.02,.312,.096,.55,.237,.709-.015,.23,.081,.386,.278,.469,.129-.049,.242-.075,.346-.083,.399-.022,.681,.196,.837,.66,0,.009-.002,.087-.006,.234,.004,.083,.045,.139,.126,.165,.175-.104,.262-.293,.26-.565-.005-.313,.034-.515,.119-.603-.021-.146-.107-.355-.26-.627-.152-.273-.232-.489-.242-.646-.01-.166,.04-.326,.148-.479-.093-.024-.137-.085-.128-.181,.005-.146,.005-.223,.005-.236,.719-.178,1.445-.183,2.182-.018Z"></path>
            <path class="cls-28" d="M72.158,659.894h-.017c-.075,.15-.101,.367-.072,.646,.036,.396,.054,.6,.054,.609-.06,.023-.142-.008-.239-.088-.154,.059-.228,.155-.219,.29,0,.02,.009,.053,.022,.101,.004,.057,.007,.098,.008,.117,.006,.105-.026,.186-.095,.238-.175-.097-.405-.158-.689-.185-.285-.028-.556-.054-.81-.077-.005-1.323-.183-2.617-.532-3.881,0,.01-.007-.121-.024-.393,.002-.195-.043-.332-.131-.415l-.12,.108c-.003-.02,.038-.059,.12-.117,.079-.057,.119-.115,.116-.173-.004-.028-.009-.057-.024-.085l-.133-.096c-.223,.072-.328,.254-.311,.543,.012,.194-.066,.33-.228,.408,.062,.043,.095,.102,.099,.168,.003,.039-.003,.095-.02,.162-.014,.069-.02,.124-.018,.162,.005,.086,.054,.156,.139,.211,.005,.059,.034,.58,.09,1.57,.039,.63,.021,1.166-.047,1.605l.012,.249c-.086-.005-.182-.005-.289,.002-.12,.009-.295,.024-.523,.052-.227,.029-.395,.047-.502,.053-.443,.023-.757-.05-.937-.224l-.187-5.431c-.088-.267-.147-.637-.174-1.113l-.06-1.047c-.043-.514-.109-.909-.196-1.185,.037-.188,.199-.29,.488-.306,.179-.011,.423,.014,.728,.074,.142-.067,.339-.107,.592-.123,.071-.003,.186-.006,.342-.006,.169-.009,.289-.016,.361-.021,.469-.028,.78-.171,.933-.434,.22-.001,.455,.065,.71,.207s.479,.216,.671,.223c.514,.302,.789,.802,.83,1.499,.01,.156-.052,.771-.181,1.85l-.88,.766c.15,.275,.33,.871,.539,1.792,.179,.774,.445,1.336,.804,1.695Zm-1.623-6.179l.018,.014c.018,.066,.009-.171-.022-.715-.017-.262-.111-.447-.286-.566-.102,.143,.011,.209-.035,.537-.047,.328-.239,.236-.354,.379-.303-.002-.37,.182-.435-.105-.136-.471-.252-.428-.252-.438l-.13,.076c-.045,.042-.098,.088-.154,.141-.059,.052-.115,.07-.178,.055,.005,.059-.024,.15-.084,.274-.06,.126-.088,.212-.084,.26,.006,.089,.074,.151,.208,.192-.022,.196-.029,.4-.019,.614,.009,.116,.036,.382,.086,.797,.054,.329,.076,.608,.064,.841,.109,.006,.211,.006,.309-.002,.422-.023,.693-.191,.819-.499,.044-.089,.093-.415,.145-.972,.049-.422,.175-.715,.384-.883Z"></path>
            <path class="cls-28" d="M78.99,662.002c-.173-.049-.354-.067-.548-.055-.167,.008-.394,.051-.678,.127-.324,.075-.543,.121-.663,.141-.145-.197-.257-.472-.338-.826-.139-.518-.223-.809-.251-.878,.036-.06,.049-.108,.048-.147-.009-.105-.119-.194-.333-.264-.217-.07-.324-.13-.327-.18-.003-.059,.11-.152,.347-.281-.065-.057-.115-.171-.155-.35-.042-.179-.104-.293-.193-.348-.137,.117-.369,.203-.701,.254-.328,.053-.544,.11-.649,.177,.068,.755,0,2.081-.298,2.359-.169-.02-.292,.042-.369,.183-.109,.171-.207,.274-.289,.308l.112,.097c-.092,.072-.246,.111-.461,.113-.339,.011-.518,.016-.542,.018l-.124-.256,.506-8.734c-.027-.494-.023-.828,.016-1.006-.05-.436,.055-.713,.312-.835,.174,.077,.386,.108,.639,.093,.203-.012,.522-.069,.948-.172,.429-.102,.728-.159,.896-.17,.59-.033,.874,.291,.854,.975-.018,.545,.144,1.25,.484,2.115,.354,.932,.547,1.637,.574,2.112,.008,.144,.2,.452,.199,.598-.249,.132-.568,.224-.964,.276-.347,.039-.698,.08-1.061,.119-.148-.73-.491-1.617-.643-2.338-.181-.864-.38-1.572-.593-2.125l-.228,4.187c-.016,.36,.2,.528,.645,.499,.145-.006,.279-.044,.411-.108,.105-.036,.26,.019,.46,.163,.019,.301,.106,.477,.266,.523,.188-.117,.433-.233,.74-.35,.271-.104,.538-.201,.798-.293,.167,.155,.281,.395,.35,.725,.086,.459,.145,.729,.173,.806,.034,.181,.159,.574,.375,1.174,.161,.478,.25,.864,.269,1.166,.006,.144,.001,.279-.014,.408Z"></path>
            <path class="cls-28" d="M83.969,652.098h.02c-.146,.212-.33,.251-.554,.119-.05-.008-.267,.006-.65,.035-.325,.021-.561,.006-.708-.045-.037,.002-.108,.038-.212,.107-.106,.07-.18,.105-.23,.107-.069,.004-.112-.056-.117-.182-.001-.021-.005-.102-.017-.246-.004-.099-.05-.164-.137-.197l-.223,.174c-.072,.052-.104,.107-.101,.166,.001,.049,.044,.115,.122,.203,.076,.089,.119,.154,.135,.189,.004,.029,.029,.467,.076,1.311,.02,.533,.116,.961,.292,1.279,.046-.05,.154-.078,.329-.084,.174-.005,.29-.045,.346-.115,.115,.104,.307,.108,.574,.018,.264-.088,.458-.057,.574,.091l-.033,1.286c-.11-.012-.271-.064-.481-.162-.06,.191-.181,.307-.358,.357-.073,.025-.277,.046-.611,.064,.008-.061-.043-.119-.157-.18-.325,.156-.45,.527-.369,1.115,.008-.059,.021,.042,.036,.305,.008,.165-.025,.284-.105,.356-.205,.031-.463-.017-.776-.138-.314-.124-.54-.182-.673-.173-.059,.003-.113,.013-.162,.024l-.338,.11-.541-5.878-.063-1.117c.449-.153,1.005-.249,1.666-.288,.518-.029,1.194-.025,2.028,.014,.054-.109,.151,.033,.273,.025,.06-.002,.149,.003,.271,.021,.121,.016,.215,.023,.272,.021,.074-.005,.141-.019,.198-.042l.085-.09c.245,.07,.375,.201,.384,.385,.005,.078-.018,.211-.068,.399-.05,.187-.07,.329-.064,.426,.005,.087,.028,.165,.067,.23Zm-2.11,9.804c-.128,.067-.325,.105-.591,.123-.348,.02-.557,.036-.628,.051-.039-.038-.085-.007-.163-.313-.05-.2-.176-.296-.38-.284-.048,.004-.106,.011-.179,.026l-.323,.016-.175-2.973c.177-.088,.396-.141,.661-.156,.253-.016,.477,.011,.675,.078-.006,.106,.147,.153,.459,.134l.344-.021c.204,.835,.328,2.346,.3,3.319Z"></path>
            <path class="cls-28" d="M91.181,652.351l.02,.013c-.172-.011-.715,.026-1.134,.081-.359,.04-.631,.049-.812,.018-.175,.115-.237,.276-.189,.479l.109,.067c-.09,.083-.123,.147-.095,.194l.095,.096c-.02,1.725-.023,2.677-.015,2.861,.025,.455,.081,.855,.16,1.201-.072,.219-.101,.471-.083,.75,.011,.184,.056,.477,.134,.875,.077,.398,.179,1.708,.192,1.913,.008,.155,.004,.3-.013,.438-.166,.069-.343,.108-.535,.119-.325,.018-.675-.048-1.046-.201-.043,.04-.095,.086-.151,.134-.058,.047-.075,.098-.046,.153-.117,.038-.285-.011-.496-.144-.115-1.746-.428-5.3-.889-8.893-.162,.146-.459,.025-.771,.062-.371,.041-.735-.016-.878,.051-.181-.193-.139-.25-.158-.57-.02-.309-.117-1.075-.04-1.394,.018-.068,.692-.03,1.088-.063,.539-.031,.658,.098,.695,.095,.044-.069,.308-.034,.499-.047,.125,.062,.258-.056,.264,.031,.006,.058,0,.426-.041,.53-.043,.104-.062,.181-.06,.23,.008,.115,.09-.055,.288,.012,.217-.004,.438-.012,.665-.024,.257,.023,.549-.069,.526,.147,.043-.062,.07,.047,.437-.101,.271-.123,.437-.442,.382-.66-.028-.12,.137-.196,.033-.142,.131-.072,.011-.021,.154-.077,.448,.04,.699-.007,.782-.012,.182-.011,.628,.106,.757,.042,.093,.168,.141,.699,.146,.99,.015,.469,.025,.717,.026,.746Z"></path>
            <path class="cls-28" d="M97.026,658.421l-.004-.015c-.064,.129-.096,.279-.098,.442-.009,.108,.002,.259,.025,.45,.023,.224,.038,.38,.044,.467-.096,.004-.481,.025-1.153,.065-.408,.024-.774,.079-1.095,.167l-.36-.271c-.091,.083-.122,.147-.097,.195-.06-.007-.337,.009-.831,.048-.385,.023-.674,.011-.87-.037-.182,.175-.409,.19-.684,.04-.101-.053-.118-.15-.053-.294,.064-.146,.033-.249-.091-.311-.007-.31,.008-.791,.042-1.448,.04-.583,.049-1.041,.028-1.373-.025-.445-.098-.867-.216-1.271,.124-.114,.271-.176,.438-.185,.195-.012,.425,.047,.699,.178,.385,.181,.582,.273,.595,.273l.112,.094c.012-.03,.062-.189,.153-.476,.051-.188,.134-.314,.251-.38l.113,.081c.048-.022,.199-.122,.454-.304,.197-.129,.332-.6,.454-.605,.131-.009,.262,.042,.388,.15,.21,.078,.375,.607,.452,.781,.076,.174,.149,.348,.221,.519-.541,.052-.984,.073-1.336,.064-.077,.112-.199,.135-.357,.073-.162-.064-.274-.047-.342,.055,.01,.176,.028,.49,.056,.944,.012,.409,.03,.729,.054,.962,.034,.358,.09,.684,.166,.98,.098-.005,.555-.031,1.371-.079,.566-.029,1.057-.023,1.471,.021Zm-.56-6.841c-.109,.016-.228,.027-.36,.035-.277,.016-.644,.008-1.105-.023-.568-.025-.913-.039-1.033-.043-.156,.215-.177,.389-.156,.756,.045,.795,.072,1.139,.079,1.03,.171,.067,.264,.21,.276,.422,.006,.292,.014,.442,.026,.45-.083,.033-.118,.133-.109,.298-.132-.028-.278-.1-.429-.207-.2-.135-.263,.342-.26,.215l-.09,.295-.114-.08c-.095,.015-.263-.013-.502-.088-.241-.072-.409-.147-.51-.218-.01-.156,.015-.246,.074-.27l-.246-.188-.101,.138c-.215-1-.357-2.76-.274-3.834,.459,.03,.997-.049,1.55-.073,.372-.011,.897-.042,1.57-.089,.766-.055,1.32-.09,1.655-.11,.151,.098,.235,.233,.243,.407,.004,.107-.018,.281-.07,.522-.054,.241-.122,.538-.114,.655Z"></path>
            <path class="cls-28" d="M103.025,657.386l-.018,.003c-.075,.15-.1,.365-.073,.647,.035,.396,.054,.599,.054,.608-.06,.023-.139-.005-.24-.088-.153,.057-.227,.155-.22,.29,.004,.019,.01,.052,.025,.101,.003,.057,.004,.098,.008,.116,.006,.106-.026,.187-.096,.238-.175-.097-.405-.157-.689-.187-.286-.025-.556-.052-.809-.078-.006-1.32-.185-2.613-.532-3.876,0,.009-.009-.122-.022-.396,0-.193-.044-.332-.134-.413l-.121,.108c0-.018,.039-.057,.121-.115,.08-.06,.119-.117,.117-.174-.005-.029-.012-.06-.025-.086l-.131-.098c-.226,.074-.331,.254-.312,.545,.011,.194-.065,.33-.229,.406,.06,.047,.097,.104,.101,.17,0,.038-.007,.092-.021,.162-.013,.068-.021,.121-.017,.16,.004,.088,.051,.159,.139,.213,.002,.058,.032,.58,.09,1.568,.037,.632,.02,1.168-.051,1.609l.014,.246c-.084-.005-.181-.005-.287,.004-.121,.007-.296,.022-.523,.051-.228,.027-.393,.046-.504,.053-.443,.025-.756-.051-.934-.225l-.189-5.432c-.089-.266-.144-.638-.173-1.111l-.062-1.049c-.042-.512-.105-.907-.193-1.184,.036-.187,.2-.289,.487-.306,.183-.011,.423,.014,.728,.073,.142-.067,.34-.107,.59-.121,.073-.006,.186-.006,.345-.006,.168-.01,.288-.016,.359-.021,.47-.026,.78-.172,.936-.432,.217-.002,.452,.065,.707,.205,.257,.141,.479,.215,.677,.224,.51,.302,.787,.8,.826,1.499,.008,.154-.051,.771-.182,1.85l-.881,.764c.151,.274,.328,.872,.539,1.795,.177,.77,.445,1.333,.805,1.69Zm-1.628-6.178l.02,.015c.018,.066,.009-.172-.021-.715-.016-.262-.113-.45-.288-.564-.099,.141-.117-.19-.163,.137-.049,.33-.129,.568-.238,.707-.303,0-.372-.18-.554-.432-.11-.161-.166-.021-.166-.031l-.083,.066c-.045,.042-.096,.089-.152,.141-.059,.052-.116,.069-.178,.055,.002,.057-.026,.149-.084,.275-.059,.124-.087,.211-.086,.26,.007,.086,.077,.15,.212,.19-.025,.196-.034,.401-.02,.615,.007,.115,.033,.382,.083,.797,.055,.327,.076,.608,.066,.842,.109,.005,.209,.003,.309-.003,.42-.023,.695-.191,.819-.5,.042-.09,.092-.414,.143-.971,.047-.422,.176-.717,.381-.884Z"></path>
          </g>
          <g>
            <path class="cls-28" d="M43.224,632.34v.013c-.054,.503-.071,.853-.054,1.045-.076,.03-.178,.035-.302,.015-.159-.027-.251-.039-.278-.038-.069,.004-.125,.028-.166,.073-.102-.064-.167-.093-.203-.082-.094,.059-.137,.14-.134,.246,.005,.044,.021,.119,.054,.228,.03,.108,.049,.188,.05,.24,.003,.07-.011,.182-.04,.331-.034,.152-.047,.277-.043,.373,.008,.114,.029,.293,.074,.539,.042,.24,.067,.428,.075,.549-.051,.24-.07,.484-.058,.73,.016,.297,.098,.698,.245,1.201,.025,.007,.054,.01,.081,.01,.06-.004,.132-.049,.216-.131,.083-.084,.154-.128,.217-.131,.046,0,.092,.011,.146,.033,.158,.511,.24,.841,.249,.99,.004,.07,.001,.145-.001,.224-.237,.057-.402-.024-.5-.237,.014-.062-.021-.129-.102-.193l-.263,.276c.257,.038,.356,.238,.306,.593-.022,.07-.078,.109-.164,.113-.15-.002-.221-.002-.212-.002l-.216-.385-.088,.11c-.071-.183-.155-.271-.25-.265-.053,.003-.145,.047-.277,.131-.131,.088-.242,.134-.329,.135-.069,.004-.14-.014-.214-.055-.003-.104-.017-.213-.035-.327-.021-.114-.079-.185-.177-.216-.005-.273,.005-.989,.024-2.151,.008-.882,0-1.593-.029-2.134-.012-.23-.025-.455-.045-.674-.048-.067-.093-.101-.137-.099-.037,.002-.089,.04-.16,.114-.07,.074-.134,.107-.186,.103-.003-.089-.045-.229-.122-.423-.073-.195-.114-.336-.118-.424-.008-.15,.049-.281,.166-.393l.305,.078c.124-.174,.175-.466,.153-.879-.003-.076-.014-.203-.031-.375-.017-.17-.027-.294-.032-.373-.032-.678,.174-1.024,.62-1.047,.166-.01,.368,.021,.608,.088l.295,.078c.023,.113,.037,.229,.044,.352,.01,.168,0,.412-.021,.734-.025,.322-.033,.561-.025,.707,.012,.237,.053,.451,.125,.64,.069-.003,.18-.042,.33-.115,.148-.073,.259-.11,.33-.115,.123-.006,.222,.053,.299,.172Zm-.914,.942l-.017-.303-.094-.087,.111,.39Z"></path>
            <path class="cls-28" d="M46.834,631.39h.016c-.031,.238-.069,.479-.109,.718-.049,.276-.124,.491-.23,.646-.019-.007-.127-.06-.323-.154-.136-.072-.257-.101-.361-.089-.079,.516-.121,1.218-.129,2.105-.007,1.135-.017,1.821-.028,2.06-.133-.011-.233,.032-.298,.128s-.128,.194-.182,.293c-.025,.054-.036,.104-.032,.145,.001,.072,.063,.141,.181,.202,.116,.067,.178,.138,.181,.218-.051,.187-.161,.284-.328,.292-.077,.005-.215-.019-.41-.071-.195-.051-.334-.074-.415-.071l-.187-3.765c.075-.1,.104-.167,.096-.201l-.107-.074c.006-.158,.016-.947,.024-2.364,.004-.958,.04-1.734,.106-2.327-.008,0,.262-.019,.813-.055,.342-.016,.563,.078,.659,.283,.002,.193-.018,.52-.057,.98-.037,.424-.054,.748-.043,.979,.016,.279,.059,.533,.131,.758,.295-.403,.642-.616,1.032-.636Zm1.307,.806c.027,.351,.048,.69,.064,1.026,.074,1.456,.051,3.014-.066,4.675-.125,.112-.321,.137-.584,.075-.262-.062-.452-.039-.568,.072-.152-.193-.238-.543-.265-1.053-.036-.738-.056-1.119-.057-1.146-.033-1.847,.147-3.339,.539-4.476,.453,.121,.766,.397,.937,.827Z"></path>
            <path class="cls-28" d="M52.751,634.107c-.058,.119-.082,.241-.074,.373,.006,.133,.013,.258,.021,.383-.015,.105-.043,.213-.09,.32-.081-.021-.149-.032-.198-.029-.062,.002-.124,.025-.19,.07-.062,.043-.111,.064-.147,.064-.053,.004-.122-.016-.213-.054l-.61-.895c.021,.265,.081,.493,.179,.691,.049,.104,.097,.207,.146,.31-.355,.062-.558,.07-.605,.029l-.085,.111-.211-.279c-.166,.202-.203,.498-.115,.891,.111,.424,.117,.732,.021,.922,.132,.196,.292,.287,.475,.277,.081-.002,.148-.033,.206-.089,.088-.214,.173-.43,.258-.646,.128-.26,.27-.398,.427-.405,.123-.005,.267,.06,.432,.19,.198,.068,.299,.161,.305,.275,.003,.07-.042,.184-.135,.342-.094,.16-.136,.281-.133,.37,.002,.036,.008,.065,.018,.092-.129,.095-.24,.237-.341,.426-.102,.192-.231,.321-.396,.392-.143,.139-.275,.209-.397,.217-.095,.006-.239-.069-.432-.223-.192-.152-.372-.225-.54-.218-.066-.155-.238-.325-.511-.515-.274-.188-.442-.391-.505-.608,0,.019-.004-.052-.009-.21-.006-.088-.045-.143-.115-.166l.101-.098c-.135-.002-.201-.078-.21-.227-.001-.018-.002-.053-.005-.106,.006-.046,.009-.079,.008-.104-.005-.106-.041-.18-.104-.221l-.022-.459c-.013-.238-.061-.406-.146-.509,.086-.558,.175-1.116,.261-1.675,.141-.649,.353-.98,.633-.994,.043-.002,.088,.004,.133,.018,.251-.249,.556-.384,.915-.4,.394-.021,.83,.098,1.309,.355,.37,.618,.601,1.288,.691,2.012Zm-1.813-1.453l-.085,.109c-.061,.014-.134-.018-.216-.094l.016,.305c-.135,.146-.188,.372-.164,.681,.027,.525,.041,.781,.039,.764l.394-.009c.189-.105,.276-.281,.265-.527-.008-.123-.05-.324-.131-.605-.08-.283-.119-.491-.118-.624Z"></path>
          </g>
          <g>
            <polygon class="cls-28" points="55.836 647.389 56.228 647.613 57.554 644.121 57.112 643.974 55.786 647.466 56.173 647.713 55.836 647.389 55.836 647.389"></polygon>
            <polygon class="cls-28" points="56.418 646.904 56.257 646.967 55.836 647.389 56.173 647.713 56.6 647.269 56.432 647.353 56.418 646.904 56.418 646.904"></polygon>
            <polygon class="cls-28" points="59.631 646.877 59.82 646.73 56.418 646.904 56.432 647.353 59.834 647.182 60.051 647.017 59.631 646.877 59.631 646.877 59.631 646.877"></polygon>
            <polygon class="cls-28" points="61.167 643.667 60.935 643.379 59.631 646.877 60.051 647.017 61.377 643.526 61.147 643.238 61.167 643.667 61.167 643.667 61.167 643.667"></polygon>
            <polygon class="cls-28" points="57.927 643.777 57.756 643.863 61.167 643.667 61.147 643.238 57.751 643.392 57.582 643.475 57.927 643.777 57.927 643.777 57.927 643.777"></polygon>
            <polygon class="cls-28" points="57.554 644.121 57.507 644.199 57.927 643.777 57.582 643.475 57.16 643.896 57.112 643.974 57.554 644.121 57.554 644.121 57.554 644.121"></polygon>
            <polygon class="cls-28" points="60.38 647.293 60.683 647.158 59.953 646.752 59.72 647.166 60.472 647.58 60.8 647.433 60.36 647.285 60.36 647.285 60.38 647.293"></polygon>
            <polygon class="cls-28" points="61.805 644.068 61.685 643.794 60.36 647.285 60.8 647.433 62.127 643.939 62.007 643.667 61.805 644.068 61.805 644.068"></polygon>
            <polygon class="cls-28" points="61.377 643.526 61.047 643.674 61.805 644.068 62.007 643.667 61.279 643.26 60.935 643.379 61.377 643.526 61.377 643.526"></polygon>
            <polygon class="cls-28" points="57.346 644.052 57.324 644.045 57.744 643.621 60.901 643.469 60.935 643.379 61.167 643.455 61.377 643.526 61.362 643.564 61.917 643.87 62.127 643.939 62.042 644.168 63.584 647.848 62.28 651.347 60.59 647.362 60.59 647.362 60.374 647.453 60.36 647.285 60.375 647.243 59.842 646.948 59.72 647.166 59.655 646.956 56.418 647.115 55.995 647.536 57.346 644.052"></polygon>
            <polygon class="cls-28" points="62.069 651.277 62.498 651.256 60.808 647.271 60.374 647.453 62.063 651.438 62.49 651.417 62.047 651.269 62.047 651.269 62.069 651.277"></polygon>
            <polygon class="cls-28" points="63.389 647.947 63.373 647.777 62.047 651.269 62.49 651.417 63.818 647.927 63.802 647.758 63.389 647.947 63.389 647.947"></polygon>
            <polygon class="cls-28" points="62.127 643.939 61.699 643.963 63.389 647.947 63.802 647.758 62.114 643.771 61.685 643.794 62.127 643.939 62.127 643.939"></polygon>
            <polygon class="cls-30" points="62.014 644.842 62.205 645.256 62.274 645.678 62.254 646.092 62.134 646.519 61.924 646.94 61.635 647.313 61.264 647.658 60.813 647.954 60.57 648.059 60.324 648.164 60.048 648.212 59.799 648.269 59.552 648.303 59.287 648.331 59.039 648.297 58.787 648.281 58.572 648.232 58.34 648.154 58.115 648.057 57.919 647.943 57.75 647.818 57.563 647.684 57.408 647.517 57.282 647.332 57.09 646.92 57.019 646.498 57.019 646.076 57.16 645.654 57.346 645.246 57.638 644.853 58.01 644.51 58.481 644.22 58.703 644.108 58.971 644.01 59.224 643.953 59.477 643.898 59.741 643.87 59.989 643.835 60.234 643.87 60.486 643.886 60.718 643.961 60.949 644.038 61.158 644.111 61.377 644.227 61.553 644.334 61.735 644.488 61.86 644.672 62.014 644.842 62.014 644.842 62.014 644.842"></polygon>
            <polygon class="cls-28" points="62.182 645.529 62.373 645.943 62.437 646.387 62.416 646.802 62.302 647.209 62.114 647.637 61.797 648.022 61.452 648.353 60.983 648.641 60.73 648.768 60.485 648.874 60.234 648.929 59.958 648.978 59.715 649.014 59.477 649.027 59.224 649.014 58.956 648.973 58.739 648.921 58.508 648.844 58.303 648.753 58.086 648.634 57.91 648.527 57.75 648.38 57.587 648.232 57.448 648.022 57.251 647.629 57.182 647.206 57.211 646.769 57.323 646.363 57.509 645.936 57.799 645.563 58.171 645.219 58.639 644.93 58.894 644.804 59.13 644.719 59.393 644.642 59.666 644.593 59.904 644.58 60.15 644.546 60.396 644.58 60.647 644.593 60.886 644.649 61.116 644.726 61.321 644.819 61.546 644.918 61.713 645.045 61.902 645.178 62.028 645.361 62.176 645.551 62.176 645.551 62.182 645.529"></polygon>
            <polygon class="cls-30" points="62.302 646.014 62.5 646.407 62.563 646.851 62.54 647.264 62.429 647.67 62.218 648.094 61.922 648.487 61.579 648.817 61.109 649.104 60.878 649.238 60.613 649.338 60.358 649.392 60.085 649.441 59.84 649.477 59.601 649.49 59.349 649.477 59.081 649.435 58.864 649.386 58.634 649.309 58.43 649.217 58.213 649.098 58.036 648.991 57.855 648.836 57.721 648.676 57.576 648.486 57.379 648.093 57.308 647.67 57.328 647.256 57.448 646.826 57.638 646.399 57.932 646.005 58.317 645.687 58.768 645.394 59.02 645.267 59.267 645.162 59.519 645.106 59.79 645.059 60.037 645.022 60.276 645.007 60.548 645.029 60.774 645.059 61.013 645.115 61.244 645.19 61.469 645.289 61.664 645.402 61.839 645.508 62.028 645.641 62.155 645.824 62.302 646.014 62.302 646.014"></polygon>
            <polygon class="cls-28" points="62.47 646.702 62.658 647.117 62.729 647.539 62.729 647.961 62.59 648.383 62.407 648.79 62.092 649.177 61.741 649.527 61.271 649.814 61.046 649.928 60.78 650.026 60.528 650.08 60.276 650.138 60.008 650.166 59.76 650.199 59.517 650.166 59.266 650.152 59.026 650.096 58.792 650.018 58.591 649.926 58.375 649.807 58.207 649.682 58.036 649.555 57.882 649.385 57.737 649.195 57.567 648.789 57.477 648.359 57.498 647.943 57.616 647.517 57.821 647.115 58.116 646.722 58.486 646.378 58.937 646.084 59.18 645.977 59.427 645.873 59.7 645.822 59.953 645.767 60.197 645.731 60.458 645.725 60.711 645.739 60.942 645.747 61.181 645.803 61.411 645.879 61.635 645.977 61.833 646.092 62.019 646.224 62.19 646.35 62.344 646.519 62.462 646.725 62.462 646.725 62.47 646.702"></polygon>
            <polygon class="cls-30" points="62.716 647.158 62.912 647.553 62.981 647.975 62.974 648.418 62.862 648.825 62.652 649.247 62.336 649.633 61.992 649.963 61.543 650.258 61.291 650.384 61.025 650.482 60.774 650.539 60.518 650.594 60.254 650.625 60.015 650.638 59.76 650.625 59.517 650.588 59.28 650.531 59.047 650.453 58.844 650.361 58.639 650.271 58.45 650.137 58.289 649.989 58.137 649.822 58.01 649.638 57.813 649.244 57.729 648.795 57.75 648.38 57.882 647.98 58.074 647.552 58.366 647.158 58.732 646.834 59.18 646.539 59.434 646.414 59.678 646.309 59.946 646.28 60.205 646.203 60.451 646.166 60.711 646.161 60.962 646.176 61.188 646.203 61.427 646.26 61.676 646.344 61.881 646.435 62.084 646.527 62.274 646.661 62.437 646.809 62.59 646.975 62.716 647.158 62.716 647.158"></polygon>
            <polygon class="cls-28" points="62.907 647.854 63.074 648.262 63.165 648.69 63.143 649.107 63.024 649.534 62.821 649.935 62.524 650.328 62.155 650.674 61.704 650.967 61.461 651.072 61.194 651.17 60.941 651.227 60.688 651.285 60.442 651.318 60.176 651.347 59.931 651.311 59.678 651.296 59.46 651.248 59.209 651.164 59.006 651.072 58.808 650.958 58.621 650.826 58.45 650.699 58.296 650.531 58.171 650.348 57.981 649.934 57.889 649.505 57.91 649.091 58.053 648.669 58.235 648.261 58.531 647.867 58.9 647.523 59.369 647.236 59.595 647.124 59.864 647.025 60.114 646.968 60.366 646.912 60.633 646.885 60.878 646.85 61.123 646.885 61.356 646.891 61.614 646.956 61.846 647.033 62.047 647.124 62.246 647.236 62.437 647.371 62.604 647.497 62.758 647.666 62.907 647.854 62.907 647.854 62.907 647.854"></polygon>
            <polygon class="cls-28" points="39.719 642.492 39.741 642.358 38.407 645.871 38.826 646.012 40.161 642.498 40.168 642.409 39.719 642.492 39.719 642.492 39.719 642.492"></polygon>
            <polygon class="cls-28" points="39.684 642.316 39.692 642.297 39.719 642.492 40.168 642.409 40.118 642.206 40.127 642.182 39.684 642.316 39.684 642.316 39.684 642.316"></polygon>
            <polygon class="cls-28" points="39.637 642.113 39.684 642.316 40.127 642.182 40.076 641.978 39.637 642.113 39.637 642.113 39.637 642.113"></polygon>
            <polygon class="cls-28" points="39.578 641.929 39.637 642.113 40.076 641.978 40.021 641.797 39.578 641.929 39.578 641.929"></polygon>
            <polygon class="cls-28" points="39.531 641.726 39.531 641.726 39.578 641.929 40.021 641.797 39.971 641.592 39.965 641.614 39.531 641.726 39.531 641.726 39.531 641.726"></polygon>
            <polygon class="cls-28" points="39.475 641.473 39.475 641.544 39.531 641.726 39.965 641.614 39.909 641.43 39.931 641.51 39.475 641.473 39.475 641.473"></polygon>
            <polygon class="cls-28" points="39.923 641.389 39.48 641.31 39.475 641.473 39.931 641.51 39.936 641.346 39.496 641.268 39.915 641.409 39.915 641.409 39.923 641.389"></polygon>
            <polygon class="cls-33" points="40.306 651.613 40.264 651.389 39.793 651.466 39.827 651.711 40.306 651.613 40.306 651.613 40.306 651.613"></polygon>
            <polygon class="cls-28" points="41.283 648.684 41.296 648.571 39.971 652.063 40.389 652.203 41.717 648.713 41.709 648.592 41.283 648.684 41.283 648.684 41.283 648.684"></polygon>
            <polygon class="cls-28" points="41.248 648.437 41.283 648.684 41.709 648.592 41.676 648.346 41.227 648.431 41.227 648.431 41.248 648.437"></polygon>
            <polygon class="cls-28" points="41.186 648.203 41.227 648.431 41.676 648.346 41.613 648.115 41.186 648.203 41.186 648.203 41.186 648.203"></polygon>
            <polygon class="cls-28" points="41.128 647.953 41.141 647.98 41.186 648.203 41.613 648.115 41.576 647.867 41.591 647.896 41.128 647.953 41.128 647.953 41.128 647.953"></polygon>
            <polygon class="cls-28" points="41.551 647.742 41.1 647.685 41.128 647.953 41.591 647.896 41.555 647.649 41.106 647.596 41.551 647.742 41.551 647.742"></polygon>
            <g>
              <path class="cls-33" d="M38.408,645.175l-.21,.065,.21-.065Z"></path>
              <polygon class="cls-33" points="38.63 645.908 38.637 645.887 38.746 645.894 38.826 646.012 38.631 645.947 38.63 645.908"></polygon>
              <polygon class="cls-28" points="38.146 645.035 38.371 644.994 38.379 644.83 39.712 641.318 39.705 641.34 39.705 641.48 39.741 641.656 39.811 641.869 39.866 642.051 39.915 642.252 39.951 642.428 39.951 642.428 40.161 642.498 38.826 646.012 38.746 645.894 38.637 645.887 38.63 645.908 38.631 645.947 38.826 646.012 38.634 646 38.637 646.16 38.504 645.992 38.393 645.982 38.365 645.786 38.446 645.77 38.533 645.545 38.308 645.605 38.243 645.441 38.198 645.24 38.408 645.175 38.408 645.175 38.198 645.24 38.202 645.219 38.146 645.035"></polygon>
            </g>
            <g>
              <polygon class="cls-1" points="49.003 645.996 49.003 645.996 49.194 645.566 49.003 645.996"></polygon>
              <polygon class="cls-28" points="38.623 645.711 48.387 645.391 48.64 645.405 48.681 645.418 48.92 645.475 48.943 645.482 49.194 645.566 49.44 645.672 49.461 645.68 49.693 645.828 49.735 645.84 49.916 645.996 49.973 646.037 50.105 646.197 50.119 646.227 50.211 646.373 50.217 646.423 49.785 646.553 49.719 646.443 49.712 646.467 49.602 646.311 49.602 646.31 49.453 646.192 49.491 646.227 49.25 646.101 49.25 646.1 49.003 645.996 49.003 645.996 48.795 645.926 48.555 645.869 48.598 645.883 48.372 645.853 48.372 645.832 38.637 646.16 38.623 645.711"></polygon>
              <polygon class="cls-28" points="49.777 646.557 49.785 646.553 49.811 646.594 49.777 646.557"></polygon>
            </g>
            <polygon class="cls-28" points="54.992 654.766 54.992 654.627 53.659 658.139 54.102 658.287 55.434 654.774 55.434 654.633 54.992 654.766 54.992 654.766 54.992 654.766"></polygon>
            <polygon class="cls-28" points="51.136 643.101 51.108 643.045 54.992 654.766 55.434 654.633 51.551 642.912 51.545 642.861 51.136 643.101 51.136 643.101 51.136 643.101"></polygon>
            <polygon class="cls-28" points="51.06 642.982 51.047 642.954 51.136 643.101 51.545 642.861 51.453 642.713 51.433 642.707 51.038 642.975 51.038 642.975 51.06 642.982"></polygon>
            <polygon class="cls-28" points="50.968 642.832 50.934 642.799 51.038 642.975 51.433 642.707 51.284 642.516 51.248 642.481 50.968 642.832 50.968 642.832 50.968 642.832"></polygon>
            <polygon class="cls-28" points="50.815 642.736 50.78 642.7 50.968 642.832 51.248 642.481 51.06 642.35 51.025 642.314 50.815 642.736 50.815 642.736"></polygon>
            <polygon class="cls-28" points="50.604 642.594 50.583 642.588 50.815 642.736 51.025 642.314 50.787 642.187 50.767 642.18 50.604 642.594 50.604 642.594"></polygon>
            <polygon class="cls-28" points="50.38 642.496 50.329 642.504 50.604 642.594 50.767 642.18 50.52 642.074 50.499 642.068 50.352 642.51 50.352 642.51 50.38 642.496"></polygon>
            <polygon class="cls-28" points="50.127 642.412 50.098 642.426 50.352 642.51 50.499 642.068 50.247 641.983 50.247 641.983 50.119 642.434 50.119 642.434 50.127 642.412"></polygon>
            <polygon class="cls-28" points="49.931 642.37 49.89 642.357 50.119 642.434 50.247 641.983 49.987 641.92 49.965 641.913 49.931 642.37 49.931 642.37 49.931 642.37"></polygon>
            <polygon class="cls-28" points="49.705 642.34 49.699 642.362 49.931 642.37 49.965 641.913 49.721 641.877 49.693 641.892 49.705 642.34 49.705 642.34"></polygon>
            <polygon class="cls-28" points="40.182 642.506 39.944 642.661 49.705 642.34 49.693 641.892 39.951 642.217 39.741 642.358 40.161 642.498 40.161 642.498 40.182 642.506"></polygon>
            <polygon class="cls-33" points="42.633 653.187 42.6 653.17 42.622 653.158 42.633 653.187"></polygon>
            <g>
              <path class="cls-33" d="M47.907,654.766l-.041,.476,.041-.476Z"></path>
              <g>
                <path class="cls-1" d="M47.887,654.994l-.021,.248,.021-.248Z"></path>
                <g>
                  <polygon class="cls-1" points="39.976 651.191 39.991 651.158 40 651.201 39.976 651.191"></polygon>
                  <path class="cls-28" d="M39.827,651.711l.044,.227,.084,.238,.104,.176,.598,.315,.595,.317,.574,.309,.584,.287,.021,.009,.591,.267,.588,.266,.638,.262,.645,.238,.022,.008,.687,.184,.687,.183,.022,.007,.758,.112,.778,.12,.02,.008,.848,.049,.03-.015,.904,.022,.968-.027,1.025-.056,.21-.142,1.326-3.492-.226-.309,.015,.449-.072-.087,.052-.128-.147,.006-.064-.079-.031,.085-.76,.049h-.983l-.904-.022-.826-.042-.808-.105-.749-.135-.689-.182-.687-.184-.646-.238-.625-.232-.586-.267-.586-.29-.601-.295-.576-.309-.575-.311-.399-.211,.015-.033-.211-.072h0l-.056-.254-.043-.225-.015-.076,.158-.344-.225-.074-.01-.004h0l-.211-.068-1.325,3.49-.015,.111,.035,.246,.025,.268Zm.164-.553l.01,.043-.024-.01,.014-.033Z"></path>
                </g>
              </g>
            </g>
            <polygon class="cls-28" points="51.942 651.779 52.966 651.723 52.951 651.273 51.927 651.328 51.942 651.779 51.942 651.779 51.942 651.779"></polygon>
            <polygon class="cls-28" points="50.975 651.808 51.942 651.779 51.927 651.328 50.959 651.357 50.975 651.808 50.975 651.808 50.975 651.808"></polygon>
            <polygon class="cls-28" points="50.048 651.777 50.069 651.785 50.975 651.808 50.959 651.357 50.055 651.336 50.084 651.32 50.041 651.799 50.041 651.799 50.048 651.777"></polygon>
            <polygon class="cls-28" points="49.178 651.722 49.2 651.73 50.041 651.799 50.084 651.32 49.235 651.271 49.255 651.279 49.178 651.722 49.178 651.722 49.178 651.722"></polygon>
            <polygon class="cls-28" points="48.392 651.623 49.178 651.722 49.255 651.279 48.476 651.16 48.392 651.623 48.392 651.623"></polygon>
            <polygon class="cls-28" points="47.622 651.482 47.642 651.488 48.392 651.623 48.476 651.16 47.698 651.039 47.719 651.047 47.622 651.482 47.622 651.482 47.622 651.482"></polygon>
            <polygon class="cls-28" points="46.935 651.3 47.622 651.482 47.719 651.047 47.033 650.863 46.926 651.32 46.926 651.32 46.935 651.3"></polygon>
            <polygon class="cls-28" points="46.219 651.131 46.241 651.137 46.926 651.32 47.033 650.863 46.344 650.68 46.366 650.686 46.219 651.131 46.219 651.131"></polygon>
            <polygon class="cls-28" points="45.574 650.891 45.574 650.891 46.219 651.131 46.366 650.686 45.721 650.448 45.742 650.453 45.553 650.885 45.553 650.885 45.574 650.891"></polygon>
            <polygon class="cls-28" points="44.936 650.631 45.553 650.885 45.742 650.453 45.127 650.201 44.936 650.631 44.936 650.631"></polygon>
            <polygon class="cls-28" points="44.346 650.363 44.936 650.631 45.127 650.201 44.531 649.956 44.346 650.363 44.346 650.363"></polygon>
            <polygon class="cls-28" points="43.743 650.068 43.758 650.096 44.346 650.363 44.531 649.956 43.925 649.662 43.946 649.669 43.735 650.09 43.735 650.09 43.743 650.068"></polygon>
            <polygon class="cls-28" points="43.162 649.781 43.735 650.09 43.946 649.669 43.365 649.379 43.155 649.801 43.155 649.801 43.162 649.781"></polygon>
            <polygon class="cls-28" points="42.585 649.473 43.155 649.801 43.365 649.379 42.79 649.071 42.565 649.465 42.565 649.465 42.585 649.473"></polygon>
            <polygon class="cls-28" points="41.989 649.154 42.565 649.465 42.79 649.071 42.215 648.76 41.989 649.154 41.989 649.154"></polygon>
            <polygon class="cls-28" points="41.717 648.713 41.393 648.838 41.989 649.154 42.215 648.76 41.618 648.444 41.296 648.571 41.717 648.713 41.717 648.713 41.717 648.713"></polygon>
            <polygon class="cls-28" points="102.514 642.383 101.181 645.894 105.533 647.351 106.544 645.018 106.573 644.795 106.578 644.561 106.544 644.316 106.459 644.078 106.321 643.865 106.207 643.641 106.026 643.418 105.838 643.213 105.641 643.029 105.423 642.84 105.198 642.672 104.981 642.55 104.77 642.411 104.524 642.307 104.306 642.186 104.096 642.115 103.908 642.053 103.681 642.024 103.481 642.004 103.284 642.032 103.086 642.059 102.878 642.131 102.695 642.256 102.514 642.383 102.514 642.383 102.514 642.383"></polygon>
            <polygon class="cls-28" points="105.338 647.238 105.612 647.119 101.256 645.664 101.107 646.105 105.462 647.562 105.758 647.451 105.338 647.238 105.338 647.238"></polygon>
            <g>
              <path class="cls-1" d="M106.177,648.254l.03,.234-.03-.234Z"></path>
              <polygon class="cls-1" points="108.423 645.9 108.585 646.053 108.41 645.932 108.423 645.9"></polygon>
              <g>
                <polygon class="cls-1" points="108.585 646.053 108.41 645.932 108.423 645.9 108.585 646.053"></polygon>
                <g>
                  <polygon class="cls-1" points="108.585 646.053 108.41 645.932 108.423 645.9 108.585 646.053"></polygon>
                  <polygon class="cls-28" points="38.146 644.826 38.168 644.761 39.496 641.268 39.915 641.409 38.63 644.859 38.604 645 38.596 644.951 38.146 645.035 38.14 644.986 38.146 644.826"></polygon>
                  <g>
                    <polygon class="cls-1" points="108.585 646.053 108.41 645.932 108.423 645.9 108.585 646.053"></polygon>
                    <polygon class="cls-33" points="59.502 653.089 59.424 653.135 59.418 653.13 59.502 653.089"></polygon>
                    <g>
                      <path class="cls-1" d="M59.589,653.295l.165,.159-.165-.159Z"></path>
                      <polygon class="cls-1" points="108.585 646.053 108.41 645.932 108.423 645.9 108.585 646.053"></polygon>
                      <polygon class="cls-1" points="53.869 658.209 53.883 658.209 53.883 658.215 53.659 658.139 53.848 658.143 53.869 658.209"></polygon>
                      <path class="cls-28" d="M38.308,645.605l.051,.203,.006-.022,.341-.071-.09,.227,9.766-.318,.23,.008,.251,.082,.253,.086,.254,.086,.232,.145,.188,.135,.134,.16,.08,.164-.228,.068,3.883,11.723,.227,.005,.005,.144h.35l.331-.007,.301,.007,.274-.051,.28-.068,.28-.141,.259-.217,.308-.297,.009-.021,.174-.245,.206-.261,.23-.273,.162-.273,.202-.33,.211-.283,.175-.312,.223-.323,.183-.267,.26-.29,.212-.28,.246-.247,.217-.231,.232-.201,.225-.184,.258-.148,.057-.028-.165-.159h0l.165,.159,.261-.288,.239-.225,.211-.209,.223-.185,.219-.162,.23-.134,.203-.118,.225-.111,.253-.058,.245-.105,.253-.056,.292-.043,.325-.055,.356-.021,.387-.036,.378-.013,.021,.005,42.133-3.153,.245-.033,.224-.043,.204-.049,.21-.07,.197-.099,.201-.118,.171-.154,.194-.169,.044-.057,.737-1.722-.386-.246,.17,.166-.026,.022-.187-.131-.185,.429-.124,.076-.162,.062-.19,.08-.176,.033-.225,.041-.222,.042-42.153,3.147-.268,.027-.258,.01-.26,.005-.275,.049h-.279l-.244,.034-.268,.027-.246,.037-.273,.049-.244,.033-.253,.058-.28,.069-.253,.057-.267,.097-.266,.1-.254,.126-.497,.303-.504,.463-.534,.549-.514,.624-.497,.653-.429,.584-.421,.562-.35,.42-.204,.051-.176,.035-.217,.021h-.421l-.183-.013-.231-.01-.203-.02-3.869-11.694-.085-.168-.132-.163-.188-.135-.254-.152-.244-.106-.253-.085-.238-.058-.233-.005-9.754,.297-1.173,3.092-.007-.042-.464,.125Zm70.102,.327l.013-.031,.162,.152-.175-.121Z"></path>
                    </g>
                  </g>
                </g>
              </g>
            </g>
            <polygon class="cls-28" points="106.938 646.791 107.189 646.733 107.413 646.691 107.617 646.642 107.828 646.572 108.024 646.475 108.229 646.353 108.388 646.221 108.585 646.053 108.249 645.728 108.1 645.891 107.948 646.004 107.798 646.094 107.638 646.157 107.483 646.199 107.302 646.256 107.106 646.283 106.889 646.307 106.938 646.791 106.938 646.791"></polygon>
            <polygon class="cls-28" points="64.811 649.923 106.938 646.791 106.889 646.307 64.757 649.458 64.811 649.923 64.811 649.923"></polygon>
            <polygon class="cls-28" points="60.682 650.671 60.925 650.567 61.167 650.482 61.452 650.391 61.692 650.307 61.949 650.23 62.196 650.194 62.442 650.161 62.714 650.111 62.939 650.068 63.199 650.062 63.465 650.033 63.731 650.006 63.998 649.976 64.237 649.965 64.525 649.943 64.811 649.923 64.757 649.458 64.489 649.488 64.224 649.514 63.944 649.514 63.676 649.543 63.417 649.55 63.165 649.605 62.905 649.612 62.617 649.633 62.365 649.689 62.11 649.744 61.838 649.793 61.557 649.865 61.319 649.949 61.032 650.039 60.744 650.13 60.492 650.257 60.682 650.671 60.682 650.671 60.682 650.671"></polygon>
            <polygon class="cls-28" points="56.907 654.844 56.998 654.781 57.187 654.562 57.358 654.34 57.558 654.08 57.77 653.797 58.01 653.503 58.228 653.2 58.471 652.885 58.718 652.568 58.97 652.232 59.229 651.943 59.482 651.676 59.74 651.389 59.958 651.158 60.234 650.967 60.454 650.785 60.682 650.671 60.492 650.257 60.205 650.42 59.958 650.594 59.671 650.826 59.398 651.086 59.145 651.354 58.894 651.621 58.614 651.971 58.366 652.287 58.119 652.604 57.873 652.92 57.657 653.221 57.419 653.516 57.207 653.797 57.005 654.057 56.837 654.282 56.683 654.465 56.767 654.422 56.907 654.844 56.907 654.844 56.907 654.844"></polygon>
            <polygon class="cls-1" points="102.421 642.586 102.514 642.383 102.68 642.228 102.933 642.102 103.227 642.059 103.389 642.068 103.571 642.082 103.747 642.115 103.921 642.151 104.132 642.222 104.323 642.283 104.525 642.377 104.743 642.496 104.924 642.58 105.114 642.713 105.282 642.84 105.465 642.994 105.655 643.129 105.787 643.29 105.949 643.437 106.08 643.599 106.328 643.917 106.453 644.239 106.517 644.4 106.551 644.508 106.531 644.78 106.479 644.996 106.326 645.18 106.102 645.292 105.8 645.356 105.633 645.371 105.457 645.334 105.255 645.312 105.036 645.266 104.846 645.201 104.636 645.131 104.412 645.033 104.217 644.92 104.012 644.828 103.795 644.709 103.605 644.577 103.423 644.42 103.254 644.295 103.078 644.119 102.924 643.95 102.792 643.787 102.575 643.457 102.449 643.135 102.413 643.029 102.377 642.852 102.421 642.586"></polygon>
            <polygon class="cls-30" points="48.838 642.143 49.705 642.131 49.777 642.131 42.307 639.633 41.93 639.857 48.829 642.164 48.829 642.164 48.838 642.143"></polygon>
            <polygon class="cls-30" points="48.838 642.143 39.951 642.428 39.915 642.252 39.866 642.051 39.811 641.869 39.741 641.656 39.705 641.48 39.705 641.34 39.761 641.173 39.915 641.059 40.282 640.807 40.689 640.566 41.095 640.328 41.502 640.091 41.887 639.845 41.93 639.857 48.829 642.164 48.829 642.164 48.838 642.143"></polygon>
            <polygon class="cls-30" points="43.435 647.552 49.487 647.211 51.859 648.168 52.694 650.648 52.946 651.508 51.943 651.568 50.959 651.568 50.055 651.546 49.229 651.504 48.421 651.398 47.672 651.264 46.983 651.082 46.296 650.898 45.651 650.66 45.026 650.428 44.44 650.161 43.854 649.871 43.253 649.576 42.677 649.267 42.102 648.957 41.506 648.641 41.45 648.387 41.407 648.162 41.352 647.912 41.317 647.664 43.435 647.552"></polygon>
            <polygon class="cls-30" points="58.684 648.248 58.766 648.346 59.544 648.817 59.799 648.408 59.02 647.939 59.096 648.059 58.684 648.248 58.711 648.303 58.766 648.346 58.684 648.248 58.684 648.248"></polygon>
            <polygon class="cls-30" points="51.759 648.392 51.627 648.229 52.734 651.576 53.177 651.442 52.069 648.098 51.949 647.963 52.069 648.098 52.033 647.991 51.949 647.963 51.759 648.392 51.759 648.392 51.759 648.392"></polygon>
            <polygon class="cls-30" points="49.511 647.429 49.397 647.417 51.759 648.392 51.949 647.963 49.587 646.986 49.494 646.978 49.587 646.986 49.544 646.972 49.494 646.978 49.511 647.429 49.511 647.429 49.511 647.429"></polygon>
            <polygon class="cls-30" points="41.555 647.649 41.33 647.903 49.511 647.429 49.494 646.978 41.317 647.453 41.1 647.685 41.317 647.453 41.057 647.461 41.1 647.685 41.555 647.649 41.555 647.649"></polygon>
            <polygon class="cls-30" points="41.618 648.444 41.709 648.592 41.702 648.473 41.676 648.346 41.668 648.227 41.632 648.121 41.626 648.002 41.598 647.875 41.562 647.768 41.555 647.649 41.1 647.685 41.1 647.826 41.12 647.974 41.157 648.08 41.161 648.199 41.199 648.303 41.227 648.431 41.276 648.563 41.283 648.684 41.393 648.838 41.283 648.684 41.317 648.789 41.393 648.838 41.618 648.444 41.618 648.444"></polygon>
            <polygon class="cls-30" points="52.741 651.554 52.93 651.267 51.927 651.328 50.959 651.357 50.084 651.32 49.235 651.271 48.476 651.16 47.719 651.047 47.033 650.863 46.366 650.686 45.721 650.448 45.127 650.201 44.531 649.956 43.946 649.669 43.365 649.379 42.79 649.071 42.215 648.76 41.618 648.444 41.393 648.838 41.989 649.154 42.565 649.465 43.155 649.801 43.735 650.09 44.346 650.363 44.936 650.631 45.574 650.891 46.219 651.131 46.926 651.32 47.622 651.482 48.392 651.623 49.2 651.73 50.041 651.799 50.975 651.808 51.942 651.779 52.986 651.73 53.177 651.442 52.986 651.73 53.275 651.709 53.177 651.442 52.734 651.576 52.734 651.576 52.741 651.554"></polygon>
            <g>
              <path class="cls-1" d="M56.973,654.524l.173,.166-.173-.166Z"></path>
              <polygon class="cls-1" points="55.421 654.465 55.38 654.466 55.38 654.466 55.421 654.465"></polygon>
              <path class="cls-1" d="M51.612,643.096l6.139,2.052-6.139-2.052Z"></path>
            </g>
            <polygon class="cls-30" points="64.757 649.458 64.448 649.473 64.104 649.521 63.796 649.534 63.459 649.562 63.137 649.62 62.792 649.669 62.449 649.719 62.117 649.793 61.787 649.871 61.503 649.963 61.188 650.068 60.891 650.182 60.639 650.307 60.337 650.441 60.091 650.617 59.866 650.798 60.15 651.15 60.364 650.989 60.575 650.848 60.807 650.713 61.073 650.617 61.335 650.469 61.614 650.399 61.943 650.322 62.232 650.23 62.546 650.194 62.826 650.126 63.165 650.096 63.488 650.042 63.83 649.991 64.166 649.963 64.482 649.93 64.811 649.923 64.757 649.458 64.757 649.458 64.757 649.458"></polygon>
            <polygon class="cls-30" points="106.889 646.307 64.757 649.458 64.811 649.923 106.938 646.791 106.889 646.307 106.889 646.307"></polygon>
            <polygon class="cls-30" points="107.674 643.731 107.848 643.978 108.032 644.204 108.116 644.442 108.249 644.676 108.32 644.887 108.342 645.105 108.347 645.294 108.334 645.475 108.283 645.625 108.213 645.764 108.123 645.896 107.96 646.029 107.792 646.115 107.526 646.213 107.245 646.283 106.889 646.307 106.938 646.791 107.323 646.756 107.659 646.656 107.953 646.545 108.213 646.396 108.451 646.241 108.621 646.016 108.711 645.812 108.795 645.56 108.789 645.301 108.804 645.049 108.747 644.795 108.656 644.508 108.549 644.262 108.41 643.978 108.229 643.685 108.045 643.46 107.674 643.731 107.674 643.731"></polygon>
            <polygon class="cls-30" points="102.653 641.328 103.033 641.314 103.416 641.351 103.81 641.434 104.188 641.491 104.545 641.61 104.903 641.729 105.247 641.892 105.571 642.048 105.906 642.228 106.214 642.426 106.545 642.629 106.782 642.826 107.034 643.053 107.282 643.299 107.484 643.528 107.674 643.731 108.045 643.46 107.828 643.199 107.582 642.954 107.337 642.707 107.065 642.475 106.761 642.258 106.461 642.04 106.152 641.844 105.801 641.631 105.436 641.463 105.065 641.314 104.687 641.188 104.286 641.057 103.893 640.971 103.493 640.908 103.037 640.873 102.638 640.877 102.653 641.328 102.653 641.328"></polygon>
            <polygon class="cls-30" points="65.375 642.614 102.653 641.328 102.638 640.877 65.381 642.172 65.375 642.614 65.375 642.614"></polygon>
            <polygon class="cls-30" points="59.491 641.678 59.841 641.818 60.211 641.894 60.571 642.014 60.943 642.092 61.335 642.178 61.701 642.275 62.098 642.338 62.457 642.389 62.829 642.467 63.213 642.5 63.592 642.557 63.965 642.565 64.324 642.614 64.701 642.6 65.045 642.621 65.375 642.614 65.381 642.172 65.033 642.172 64.69 642.151 64.365 642.136 64 642.108 63.635 642.08 63.27 642.051 62.912 642.001 62.535 641.945 62.164 641.869 61.806 641.818 61.442 641.721 61.061 641.663 60.697 641.566 60.311 641.46 59.989 641.375 59.631 641.256 59.485 641.698 59.485 641.698 59.491 641.678"></polygon>
            <polygon class="cls-30" points="46.915 638.225 47.555 638.131 48.157 638.076 48.733 638.034 49.259 637.999 49.758 637.978 50.206 638.034 50.668 638.048 51.055 638.083 51.453 638.146 51.825 638.225 52.176 638.295 52.492 638.4 52.828 638.514 53.095 638.625 53.426 638.76 53.686 638.892 53.985 639.039 54.286 639.188 54.582 639.357 54.877 639.526 55.17 639.694 55.48 639.891 55.781 640.04 56.111 640.244 56.476 640.412 56.826 640.621 57.217 640.777 57.597 640.973 58.024 641.164 58.489 641.318 58.979 641.53 59.485 641.698 59.631 641.256 59.125 641.087 58.628 640.897 58.213 640.735 57.779 640.566 57.38 640.363 57.035 640.202 56.684 639.99 56.341 639.829 56.005 639.645 55.688 639.469 55.395 639.303 55.087 639.104 54.791 638.935 54.491 638.789 54.189 638.641 53.913 638.477 53.615 638.33 53.283 638.197 52.975 638.071 52.639 637.957 52.281 637.838 51.91 637.761 51.532 637.703 51.116 637.613 50.69 637.564 50.247 637.557 49.736 637.549 49.244 637.549 48.676 637.572 48.102 637.611 47.491 637.687 46.858 637.76 46.896 638.215 46.896 638.215 46.915 638.225"></polygon>
            <polygon class="cls-30" points="40.034 641.264 40.401 641.01 40.806 640.771 41.215 640.531 41.627 640.271 42.005 640.048 42.435 639.816 42.832 639.599 43.248 639.41 43.69 639.205 44.131 639.001 44.567 638.82 45.015 638.664 45.5 638.545 45.941 638.41 46.425 638.293 46.896 638.215 46.858 637.76 46.333 637.864 45.837 637.955 45.344 638.095 44.881 638.222 44.42 638.418 43.942 638.586 43.507 638.769 43.064 638.973 42.616 639.197 42.188 639.43 41.789 639.648 41.381 639.887 40.974 640.125 40.569 640.363 40.182 640.609 39.796 640.853 40.014 641.256 40.014 641.256 40.034 641.264"></polygon>
            <polygon class="cls-30" points="39.951 642.217 40.189 642.416 40.118 642.206 40.076 641.978 40.021 641.797 39.971 641.592 39.944 641.465 39.923 641.389 39.956 641.284 40.014 641.256 39.796 640.853 39.595 641.045 39.488 641.29 39.461 641.515 39.531 641.726 39.578 641.929 39.637 642.113 39.692 642.297 39.725 642.471 39.944 642.661 39.725 642.471 39.735 642.661 39.944 642.661 39.951 642.217 39.951 642.217"></polygon>
            <g>
              <polygon class="cls-1" points="57.16 643.896 57.162 643.898 57.104 644.137 57.16 643.896"></polygon>
              <polygon class="cls-30" points="57.168 643.875 57.162 643.898 57.16 643.896 57.168 643.875"></polygon>
              <polygon class="cls-30" points="57.064 643.981 57.16 643.896 57.104 644.137 57.064 643.981"></polygon>
              <g>
                <polygon class="cls-1" points="102.514 642.383 102.68 642.228 102.933 642.102 103.227 642.059 103.389 642.068 103.571 642.082 103.747 642.115 103.921 642.151 104.132 642.222 104.323 642.283 104.525 642.377 104.743 642.496 104.924 642.58 105.114 642.713 105.282 642.84 105.465 642.994 105.655 643.129 105.787 643.29 105.949 643.437 106.08 643.599 106.328 643.917 106.453 644.239 106.517 644.4 106.551 644.508 106.531 644.78 106.479 644.996 106.326 645.18 106.102 645.292 105.8 645.356 105.633 645.371 105.457 645.334 105.255 645.312 105.036 645.266 104.846 645.201 104.636 645.131 104.412 645.033 104.217 644.92 104.012 644.828 103.795 644.709 103.605 644.577 103.423 644.42 103.254 644.295 103.078 644.119 102.924 643.95 102.792 643.787 102.575 643.457 102.449 643.135 102.413 643.029 102.377 642.852 102.421 642.586 102.514 642.383"></polygon>
                <polygon class="cls-1" points="61.908 643.865 61.908 643.865 61.699 643.963 61.908 643.865"></polygon>
                <polygon class="cls-1" points="63.425 647.701 63.573 647.82 63.584 647.848 63.186 648.346 59.664 648.6 58.9 648.157 58.897 648.148 59.096 648.059 57.599 644.105 57.848 643.857 61.047 643.674 61.725 644.025 63.389 647.947 63.425 647.701"></polygon>
                <polygon class="cls-1" points="51.408 642.677 51.408 642.677 57.302 644.646 51.408 642.677"></polygon>
                <g>
                  <polygon class="cls-1" points="102.514 642.383 102.68 642.228 102.933 642.102 103.227 642.059 103.389 642.068 103.571 642.082 103.747 642.115 103.921 642.151 104.132 642.222 104.323 642.283 104.525 642.377 104.743 642.496 104.924 642.58 105.114 642.713 105.282 642.84 105.465 642.994 105.655 643.129 105.787 643.29 105.949 643.437 106.08 643.599 106.328 643.917 106.453 644.239 106.517 644.4 106.551 644.508 106.531 644.78 106.479 644.996 106.326 645.18 106.102 645.292 105.8 645.356 105.633 645.371 105.457 645.334 105.255 645.312 105.036 645.266 104.846 645.201 104.636 645.131 104.412 645.033 104.217 644.92 104.012 644.828 103.795 644.709 103.605 644.577 103.423 644.42 103.254 644.295 103.078 644.119 102.924 643.95 102.792 643.787 102.575 643.457 102.449 643.135 102.413 643.029 102.377 642.852 102.421 642.586 102.514 642.383"></polygon>
                  <polygon class="cls-1" points="61.047 643.674 61.725 644.025 63.389 647.947 63.425 647.701 63.573 647.82 63.584 647.848 63.186 648.346 59.664 648.6 58.9 648.157 58.897 648.148 59.096 648.059 57.599 644.105 57.848 643.857 61.047 643.674"></polygon>
                  <polygon class="cls-1" points="51.408 642.677 51.408 642.677 57.302 644.646 51.408 642.677"></polygon>
                  <g>
                    <polygon class="cls-1" points="102.514 642.383 102.68 642.228 102.933 642.102 103.227 642.059 103.389 642.068 103.571 642.082 103.747 642.115 103.921 642.151 104.132 642.222 104.323 642.283 104.525 642.377 104.743 642.496 104.924 642.58 105.114 642.713 105.282 642.84 105.465 642.994 105.655 643.129 105.787 643.29 105.949 643.437 106.08 643.599 106.328 643.917 106.453 644.239 106.517 644.4 106.551 644.508 106.531 644.78 106.479 644.996 106.326 645.18 106.102 645.292 105.8 645.356 105.633 645.371 105.457 645.334 105.255 645.312 105.036 645.266 104.846 645.201 104.636 645.131 104.412 645.033 104.217 644.92 104.012 644.828 103.795 644.709 103.605 644.577 103.423 644.42 103.254 644.295 103.078 644.119 102.924 643.95 102.792 643.787 102.575 643.457 102.449 643.135 102.413 643.029 102.377 642.852 102.421 642.586 102.514 642.383"></polygon>
                    <polygon class="cls-1" points="61.047 643.674 61.725 644.025 63.389 647.947 63.425 647.701 63.573 647.82 63.584 647.848 63.19 648.342 63.165 648.129 59.645 648.38 59.799 648.408 59.682 648.598 59.664 648.6 58.9 648.157 58.897 648.148 59.096 648.059 57.599 644.105 57.848 643.857 61.047 643.674"></polygon>
                    <polygon class="cls-1" points="51.408 642.677 51.408 642.677 57.302 644.646 51.408 642.677"></polygon>
                    <g>
                      <path class="cls-1" d="M63.513,647.075l6.673,2.23-6.673-2.23Z"></path>
                      <path class="cls-1" d="M63.34,646.666l7.685,2.57-7.685-2.57Z"></path>
                      <polygon class="cls-1" points="102.514 642.383 102.68 642.228 102.933 642.102 103.227 642.059 103.389 642.068 103.571 642.082 103.747 642.115 103.921 642.151 104.132 642.222 104.323 642.283 104.525 642.377 104.743 642.496 104.924 642.58 105.114 642.713 105.282 642.84 105.465 642.994 105.655 643.129 105.787 643.29 105.949 643.437 106.08 643.599 106.328 643.917 106.453 644.239 106.517 644.4 106.551 644.508 106.531 644.78 106.479 644.996 106.326 645.18 106.102 645.292 105.8 645.356 105.633 645.371 105.457 645.334 105.255 645.312 105.036 645.266 104.846 645.201 104.636 645.131 104.412 645.033 104.217 644.92 104.012 644.828 103.795 644.709 103.605 644.577 103.423 644.42 103.254 644.295 103.078 644.119 102.924 643.95 102.792 643.787 102.575 643.457 102.449 643.135 102.413 643.029 102.377 642.852 102.421 642.586 102.514 642.383"></polygon>
                      <polygon class="cls-1" points="61.047 643.674 61.725 644.025 63.389 647.947 63.425 647.701 63.573 647.82 63.584 647.848 63.19 648.342 63.186 648.346 59.682 648.598 59.664 648.6 58.9 648.157 58.897 648.148 59.096 648.059 57.599 644.105 57.848 643.857 61.047 643.674"></polygon>
                      <polygon class="cls-1" points="51.408 642.677 51.408 642.677 57.302 644.646 51.408 642.677"></polygon>
                      <polygon class="cls-30" points="63.34 646.666 71.025 649.236 70.192 649.285 70.186 649.305 63.513 647.075 63.34 646.666"></polygon>
                      <g>
                        <polygon class="cls-1" points="102.514 642.383 102.68 642.228 102.933 642.102 103.227 642.059 103.389 642.068 103.571 642.082 103.747 642.115 103.921 642.151 104.132 642.222 104.323 642.283 104.525 642.377 104.743 642.496 104.924 642.58 105.114 642.713 105.282 642.84 105.465 642.994 105.655 643.129 105.787 643.29 105.949 643.437 106.08 643.599 106.328 643.917 106.453 644.239 106.517 644.4 106.551 644.508 106.531 644.78 106.479 644.996 106.326 645.18 106.102 645.292 105.8 645.356 105.633 645.371 105.457 645.334 105.255 645.312 105.036 645.266 104.846 645.201 104.636 645.131 104.412 645.033 104.217 644.92 104.012 644.828 103.795 644.709 103.605 644.577 103.423 644.42 103.254 644.295 103.078 644.119 102.924 643.95 102.792 643.787 102.575 643.457 102.449 643.135 102.413 643.029 102.377 642.852 102.421 642.586 102.514 642.383"></polygon>
                        <polygon class="cls-1" points="61.047 643.674 61.725 644.025 63.334 647.815 63.083 648.137 59.645 648.38 59.799 648.408 59.682 648.598 59.664 648.6 58.9 648.157 58.897 648.148 59.096 648.059 57.599 644.105 57.848 643.857 61.047 643.674"></polygon>
                        <polygon class="cls-1" points="63.425 647.701 63.573 647.82 63.573 647.82 63.425 647.701"></polygon>
                        <polygon class="cls-1" points="51.408 642.677 51.408 642.677 57.302 644.646 51.408 642.677"></polygon>
                        <path class="cls-30" d="M39.944,642.661l9.762-.321,.205,.022,.188,.063,.254,.084,.231,.078,.211,.141,.153,.098,.091,.148,.069,.07,3.885,11.721,.057,.185,.189-.008,.195-.028,.224,.028,.274,.021,.261-.006,.251,.012,.232-.062,.26-.076,.21-.14,.253-.269,.209-.279,.197-.238,.195-.238,.171-.227,.16-.203,.14-.212,.168-.224,.141-.211,.162-.204,.162-.203,.175-.176,.182-.196,.211-.211,.21-.211,.269-.238-.144-.18,.213-.173,.235-.155,.275-.119,.253-.126,.273-.117,.309-.086,.316-.104,.309-.084,.293-.043,.323-.056,.346-.049,.319-.058,.338-.028,.337-.026,.315-.035,.309-.014,5.416-.393-6.673-2.229-.173-.409h0l7.685,2.57,35.898-2.687,.665-.104,.498-.233,.345-.328,.128-.379v-.424l.006-.021-.121-.483-.236-.478-.346-.514-.202-.232-.226-.238-.245-.246-.258-.203-.273-.232-.309-.197-.331-.204-.327-.204-.353-.141-.346-.162-.377-.125-.398-.135-.379-.057-.395-.084-.406-.043-.399,.008-5.42,.202-31.837,1.091h-.349l-.331,.007-.371-.009-.357-.049-.365-.027-.365-.029-.357-.049-.378-.057-.38-.055-.371-.078-.373-.078-.37-.077-.387-.106-.364-.098-.343-.09-.357-.119-.507-.172-.496-.189-.436-.169-.432-.167-.381-.199-.365-.167-.379-.198-.347-.162-.327-.201-.293-.17-.318-.176-.293-.17-.314-.175-.296-.169-.28-.142-.295-.168-.302-.147-.309-.127-.296-.099-.334-.111-.359-.119-.342-.093-.379-.057-.399-.062-.406-.041-.458-.037-.483-.021-.497,.021-.521,.014-.58,.062-.604,.056-.659,.085-.492,.07-.482,.118-.486,.118-.449,.155-.477,.171-.454,.174-.435,.182-.443,.203-.42,.213-.43,.23,6.812,2.277-9.168,.307-.008,.443Zm62.433,.191l.044-.267,.093-.203,.166-.154,.253-.126,.294-.044,.162,.01,.182,.014,.177,.033,.174,.036,.211,.07,.19,.062,.202,.094,.219,.119,.181,.084,.189,.133,.168,.127,.184,.154,.189,.135,.133,.161,.161,.147,.132,.161,.248,.318,.125,.322,.063,.161,.034,.107-.021,.272-.052,.216-.152,.184-.225,.112-.302,.064-.167,.015-.176-.037-.202-.021-.219-.047-.19-.064-.21-.07-.224-.098-.195-.113-.205-.092-.217-.119-.19-.132-.182-.157-.169-.125-.176-.176-.154-.169-.132-.163-.217-.33-.126-.322-.036-.105-.035-.177Zm-38.804,4.968h0l-.147-.119,.147,.119Zm-5.974-3.715l.249-.248,3.199-.184,.678,.352,1.609,3.79-.251,.321-3.438,.243,.154,.028-.117,.189-.018,.002-.765-.442-.003-.009,.199-.09-1.496-3.952Z"></path>
                      </g>
                    </g>
                  </g>
                </g>
              </g>
            </g>
            <polygon class="cls-28" points="100.21 645.29 100.014 645.179 99.981 645.002 100.26 644.932 100.315 645.115 100.147 644.988 100.21 645.29 100.21 645.29"></polygon>
            <polygon class="cls-28" points="100.589 645.066 100.547 645.122 100.477 645.191 100.393 645.234 100.311 645.276 100.21 645.29 100.147 644.988 100.19 645.002 100.254 644.952 100.331 644.932 100.336 644.91 100.324 644.952 100.582 645.087 100.582 645.087 100.589 645.066"></polygon>
            <polygon class="cls-28" points="99.796 643.301 99.821 643.309 99.951 643.472 100.126 643.644 100.295 643.842 100.455 644.06 100.589 644.292 100.666 644.554 100.667 644.833 100.582 645.087 100.324 644.952 100.379 644.784 100.366 644.615 100.315 644.412 100.19 644.23 100.051 644.019 99.897 643.852 99.72 643.674 99.586 643.513 99.608 643.521 99.796 643.301 99.796 643.301"></polygon>
            <polygon class="cls-28" points="97.218 642.555 97.196 642.549 97.568 642.555 97.916 642.555 98.248 642.619 98.563 642.654 98.888 642.738 99.188 642.887 99.502 643.062 99.796 643.301 99.608 643.521 99.32 643.329 99.045 643.169 98.787 643.034 98.506 642.965 98.199 642.907 97.883 642.873 97.561 642.857 97.231 642.864 97.239 642.844 97.188 642.57 97.188 642.57 97.218 642.555"></polygon>
            <polygon class="cls-28" points="69.85 643.993 69.97 643.917 97.188 642.57 97.239 642.844 70.009 644.211 70.13 644.135 69.85 643.993 69.85 643.993"></polygon>
            <polygon class="cls-28" points="69.203 644.949 68.91 644.851 68.931 644.646 68.986 644.478 69.071 644.296 69.183 644.168 69.33 644.078 69.519 644 69.729 643.93 69.97 643.917 70.009 644.211 69.785 644.254 69.583 644.301 69.486 644.316 69.388 644.4 69.338 644.478 69.259 644.569 69.217 644.696 69.225 644.885 68.931 644.787 69.203 644.949 69.203 644.949"></polygon>
            <g>
              <path class="cls-1" d="M69.97,643.924l.039,.287-.039-.287Z"></path>
              <g>
                <polygon class="cls-1" points="69.225 644.885 69.259 644.711 69.344 644.526 69.414 644.389 69.563 644.296 69.737 644.259 69.983 644.225 70.009 644.211 97.239 642.844 97.692 642.879 98.072 642.864 98.431 642.915 98.759 642.978 99.061 643.126 99.332 643.288 99.586 643.513 99.875 643.842 100.126 644.139 100.311 644.434 100.401 644.649 100.401 644.791 100.336 644.91 100.16 645.017 99.834 645.094 99.37 645.148 71.391 646.594 71.369 646.586 70.979 646.572 70.593 646.467 70.25 646.307 69.952 646.137 69.71 645.89 69.533 645.644 69.379 645.406 69.259 645.201 69.239 645.055 69.225 644.885"></polygon>
                <g>
                  <path class="cls-1" d="M69.259,644.711l-.034,.174,.014,.17,.021,.146,.12,.205,.154,.238,.177,.245,.242,.247,.298,.17,.343,.16,.386,.105,.391,.014,.021,.008,27.979-1.445,.464-.055,.326-.076,.176-.107,.064-.119v-.142l-.09-.216-.185-.295-.251-.297-.289-.329-.254-.225-.271-.162-.302-.147-.328-.063-.359-.051-.38,.015-.453-.035-27.229,1.367-.026,.014-.246,.034-.174,.037-.148,.093-.07,.138-.087,.184Zm.387-.177l27.228-1.366,.014-.043,.366,.028h.348l.332,.064,.315,.034,.322,.085,.301,.147,.295,.168,.314,.246,.118,.135,.106,.104,.099,.127,.085,.099,.117,.135,.093,.147,.077,.119,.078,.119,.006,.049-.279,.07,.005,.05-.069-.142-.075-.119-.107-.104-.077-.121-.084-.098-.099-.127-.104-.106-.126-.111,.008-.008-.248-.188-.268-.184-.266-.112-.278-.071-.31-.055-.316-.037-.343-.021-.329,.007-27.221,1.346-.028-.266Z"></path>
                  <g>
                    <path class="cls-1" d="M69.259,644.711l-.034,.174,.014,.17,.021,.146,.12,.205,.154,.238,.177,.245,.242,.247,.298,.17,.343,.16,.386,.105,.391,.014,.021,.008,27.979-1.445,.464-.055,.326-.076,.176-.107,.064-.119v-.142l-.09-.216-.185-.295-.251-.297-.289-.329-.254-.225-.271-.162-.302-.147-.328-.063-.359-.051-.38,.015-.453-.035-27.229,1.367-.026,.014-.246,.034-.174,.037-.148,.093-.07,.138-.087,.184Z"></path>
                    <g>
                      <polygon class="cls-1" points="69.344 644.526 69.414 644.389 69.563 644.296 69.737 644.259 69.898 644.236 69.674 644.661 96.899 643.293 97.253 643.294 97.575 643.309 97.904 643.371 98.22 643.407 98.522 643.484 98.809 643.603 99.096 643.794 99.378 644.004 99.474 644.131 99.58 644.235 99.679 644.362 99.783 644.469 99.86 644.588 99.959 644.714 100.036 644.833 100.126 644.98 100.138 645.022 99.834 645.094 99.37 645.148 71.391 646.594 71.369 646.586 70.979 646.572 70.593 646.467 70.25 646.307 69.952 646.137 69.71 645.89 69.533 645.644 69.379 645.406 69.259 645.201 69.239 645.055 69.225 644.885 69.259 644.711 69.344 644.526"></polygon>
                      <polygon class="cls-28" points="100.036 644.833 99.959 644.714 99.86 644.588 99.783 644.469 99.679 644.362 99.58 644.235 99.474 644.131 99.378 644.004 99.096 643.794 98.809 643.603 98.522 643.484 98.22 643.407 97.904 643.371 97.575 643.309 97.253 643.294 96.899 643.293 69.674 644.661 69.898 644.236 69.983 644.225 70.009 644.211 97.239 642.844 97.692 642.879 98.072 642.864 98.431 642.915 98.759 642.978 99.061 643.126 99.332 643.288 99.586 643.513 99.875 643.842 100.126 644.139 100.311 644.434 100.401 644.649 100.401 644.791 100.336 644.91 100.16 645.017 100.138 645.022 100.126 644.98 100.036 644.833"></polygon>
                      <g>
                        <polygon class="cls-1" points="69.273 644.681 69.295 644.676 69.434 644.676 69.674 644.661 69.901 644.235 69.983 644.225 70.009 644.211 97.239 642.844 97.692 642.879 98.072 642.864 98.431 642.915 98.759 642.978 99.061 643.126 99.332 643.288 99.586 643.513 99.875 643.842 100.126 644.139 100.311 644.434 100.401 644.649 100.401 644.791 100.336 644.91 100.16 645.017 100.138 645.022 99.834 645.094 99.37 645.148 71.391 646.594 71.369 646.586 70.979 646.572 70.593 646.467 70.25 646.307 69.952 646.137 69.71 645.89 69.533 645.644 69.379 645.406 69.259 645.201 69.239 645.055 69.225 644.885 69.259 644.711 69.273 644.681"></polygon>
                        <path class="cls-28" d="M68.91,644.851l.028,.267,.056,.183,.076,.26,.183,.294,.224,.239,.286,.26,.345,.232,.385,.176,.408,.111,.49,.002,27.971-1.424,.532-.055,.379-.084,.274-.19,.153-.253-.005-.258-.106-.319-.201-.302-.282-.354-.285-.328-.311-.267-.33-.204-.32-.153-.354-.071-.419-.071h-.423l-.477,.028-27.218,1.347v.007l-.29,.014-.292,.111-.197,.168-.135,.192-.092,.202-.053,.24Zm.315,.034l.034-.174,.014-.03,.022-.005h.139l.24-.015,.227-.426,.082-.011,.026-.014,27.229-1.367,.453,.035,.38-.015,.359,.051,.328,.063,.302,.147,.271,.162,.254,.225,.289,.329,.251,.297,.185,.295,.09,.216v.142l-.064,.119-.176,.107-.022,.005-.304,.071-.464,.055-27.979,1.445-.021-.008-.391-.014-.386-.105-.343-.16-.298-.17-.242-.247-.177-.245-.154-.238-.12-.205-.021-.146-.013-.169Z"></path>
                      </g>
                    </g>
                  </g>
                </g>
              </g>
            </g>
          </g>
        </g>
      </g>
      <line class="cls-14" x1="538.931" y1="114.795" x2="702.857" y2="114.795"></line>
      <g class="cls-23" transform="matrix(0.9979 0 0 1 538.5371 112.6084)">
        
        
        
        
        
        
        
        
      </g>
      <g>
        <path class="cls-29" d="M422.68,341.735c0,.694-.312,1.371-.943,2.031l-.098,.096-5.501,5.81c-1.168,1.229-2.164,2.18-2.985,2.854-.819,.671-1.4,1.004-1.741,1.004-.354,0-.798-.163-1.327-.499-.525-.338-.866-.685-1.02-1.041-.132-.296-.254-.925-.372-1.89-.114-.967-.175-2.008-.175-3.131,0-.612,.256-1.178,.767-1.698,.513-.519,1.075-.782,1.693-.782,.584,0,.936,.539,1.049,1.614,.011,.127,.021,.217,.026,.277,.096,.827,.207,1.403,.33,1.728,.125,.331,.294,.492,.508,.492,.087,0,.256-.098,.5-.288,.24-.195,.533-.46,.869-.787l5.65-5.612c.477-.479,.902-.835,1.277-1.081,.372-.243,.689-.364,.951-.364,.195,0,.335,.074,.417,.225,.082,.146,.124,.398,.124,.748v.294h0Z"></path>
        <g class="cls-23" transform="matrix(0.9979 0 0 1 425.4775 353.3184)">
          
          
          
          
          
        </g>
      </g>
      <path class="cls-29" d="M536.461,104.466c0,.513-.23,1.015-.697,1.501l-.072,.074-4.064,4.291c-.863,.909-1.6,1.613-2.209,2.109-.605,.497-1.035,.745-1.285,.745-.264,0-.588-.124-.979-.371-.391-.249-.645-.505-.758-.77-.098-.22-.188-.686-.271-1.397-.086-.713-.131-1.482-.131-2.314,0-.451,.189-.871,.568-1.255,.377-.384,.793-.577,1.248-.577,.436,0,.693,.398,.777,1.191,.008,.094,.016,.162,.018,.206,.072,.612,.152,1.036,.244,1.278,.094,.244,.217,.363,.375,.363,.064,0,.189-.07,.369-.215,.178-.143,.395-.336,.643-.583l4.18-4.147c.352-.35,.664-.615,.941-.797,.275-.18,.512-.271,.703-.271,.146,0,.248,.056,.309,.165,.062,.111,.092,.295,.092,.555v.219h-.001Z"></path>
      <g>
        <g class="cls-23" transform="matrix(0.9979 0 0 1 540.0312 524.375)">
          
          
          
          
          
          
          
          
          
          
        </g>
        <g>
          <line class="cls-13" x1="539.384" y1="525.21" x2="541.884" y2="525.21"></line>
          <line class="cls-10" x1="546.926" y1="525.21" x2="625.08" y2="525.21"></line>
          <line class="cls-13" x1="627.601" y1="525.21" x2="630.101" y2="525.21"></line>
        </g>
        <path class="cls-29" d="M541.006,513.727c0,.513-.23,1.015-.697,1.501l-.072,.074-4.064,4.291c-.863,.909-1.6,1.613-2.209,2.109-.605,.497-1.035,.745-1.285,.745-.264,0-.588-.124-.979-.371-.391-.249-.645-.505-.758-.77-.098-.22-.188-.686-.271-1.397-.086-.713-.131-1.482-.131-2.314,0-.451,.189-.871,.568-1.255,.377-.384,.793-.577,1.248-.577,.436,0,.693,.398,.777,1.191,.008,.094,.016,.162,.018,.206,.072,.612,.152,1.036,.244,1.278,.094,.244,.217,.363,.375,.363,.064,0,.189-.07,.369-.215,.178-.143,.395-.336,.643-.583l4.18-4.147c.352-.35,.664-.615,.941-.797,.275-.18,.512-.271,.703-.271,.146,0,.248,.056,.309,.165,.062,.111,.092,.295,.092,.555v.219h-.001Z"></path>
        <path class="cls-29" d="M544.25,586.985c0,.514-.232,1.016-.695,1.504l-.074,.071-4.066,4.292c-.863,.91-1.598,1.613-2.205,2.109-.609,.498-1.037,.744-1.285,.744-.264,0-.592-.123-.982-.373-.391-.246-.643-.503-.756-.766-.098-.221-.189-.688-.273-1.398-.086-.712-.129-1.482-.129-2.314,0-.451,.188-.87,.566-1.256,.375-.384,.793-.575,1.25-.575,.434,0,.691,.396,.777,1.192,.008,.092,.014,.161,.02,.205,.068,.609,.15,1.036,.242,1.277,.094,.242,.217,.363,.375,.363,.066,0,.191-.072,.369-.213,.18-.145,.393-.339,.645-.585l4.178-4.146c.35-.353,.666-.619,.941-.799,.275-.18,.51-.271,.701-.271,.146,0,.248,.057,.311,.168,.062,.108,.092,.293,.092,.551v.22h-.002Z"></path>
        <line class="cls-15" x1="540.519" y1="600.321" x2="703.395" y2="600.321"></line>
      </g>
    </g>
  </g>
  <g id="Safe_Zone" data-name="Safe Zone">
    <g>
      <g>
        <polyline class="cls-13" points="236.399 485.379 233.899 485.379 233.899 482.879"></polyline>
        <line class="cls-8" x1="233.899" y1="477.864" x2="233.9" y2="239.628"></line>
        <polyline class="cls-13" points="233.9 237.12 233.9 234.62 236.4 234.62"></polyline>
        <line class="cls-2" x1="241.352" y1="234.62" x2="625.124" y2="234.62"></line>
        <polyline class="cls-13" points="627.6 234.62 630.1 234.62 630.1 237.12"></polyline>
        <line class="cls-8" x1="630.1" y1="242.136" x2="630.101" y2="480.372"></line>
        <polyline class="cls-13" points="630.101 482.879 630.101 485.379 627.601 485.379"></polyline>
        <line class="cls-6" x1="622.649" y1="485.379" x2="238.875" y2="485.379"></line>
      </g>
      <g>
        <polyline class="cls-13" points="236.4 216.62 233.9 216.62 233.9 214.12"></polyline>
        <line class="cls-4" x1="233.9" y1="209.147" x2="233.9" y2="92.267"></line>
        <polyline class="cls-13" points="233.9 89.78 233.9 87.28 236.4 87.28"></polyline>
        <line class="cls-2" x1="241.352" y1="87.28" x2="625.124" y2="87.28"></line>
        <polyline class="cls-13" points="627.6 87.28 630.1 87.28 630.1 89.78"></polyline>
        <line class="cls-4" x1="630.1" y1="94.753" x2="630.101" y2="211.634"></line>
        <polyline class="cls-13" points="630.101 214.12 630.101 216.62 627.601 216.62"></polyline>
        <line class="cls-5" x1="622.649" y1="216.62" x2="238.876" y2="216.62"></line>
      </g>
      <g>
        <polyline class="cls-13" points="236.4 503.38 233.9 503.38 233.9 505.88"></polyline>
        <line class="cls-4" x1="233.9" y1="510.853" x2="233.9" y2="627.733"></line>
        <polyline class="cls-13" points="233.9 630.22 233.9 632.72 236.4 632.72"></polyline>
        <line class="cls-2" x1="241.352" y1="632.72" x2="625.124" y2="632.72"></line>
        <polyline class="cls-13" points="627.6 632.72 630.1 632.72 630.1 630.22"></polyline>
        <line class="cls-4" x1="630.1" y1="625.247" x2="630.101" y2="508.366"></line>
        <polyline class="cls-13" points="630.101 505.88 630.101 503.38 627.601 503.38"></polyline>
        <line class="cls-5" x1="622.649" y1="503.38" x2="238.876" y2="503.38"></line>
      </g>
    </g>
    <g>
      <polyline class="cls-13" points="648.101 482.88 648.101 485.38 650.601 485.38"></polyline>
      <line class="cls-4" x1="655.575" y1="485.38" x2="772.455" y2="485.38"></line>
      <polyline class="cls-13" points="774.942 485.38 777.442 485.379 777.442 482.879"></polyline>
      <line class="cls-9" x1="777.442" y1="477.864" x2="777.442" y2="239.629"></line>
      <polyline class="cls-13" points="777.442 237.121 777.442 234.621 774.942 234.621"></polyline>
      <line class="cls-4" x1="769.968" y1="234.621" x2="653.088" y2="234.62"></line>
      <polyline class="cls-13" points="650.601 234.62 648.101 234.62 648.101 237.12"></polyline>
      <line class="cls-7" x1="648.101" y1="242.136" x2="648.101" y2="480.372"></line>
    </g>
    <g>
      <polyline class="cls-13" points="215.899 237.12 215.899 234.62 213.399 234.62"></polyline>
      <line class="cls-3" x1="208.425" y1="234.62" x2="91.545" y2="234.62"></line>
      <polyline class="cls-13" points="89.058 234.62 86.558 234.62 86.558 237.12"></polyline>
      <line class="cls-9" x1="86.558" y1="242.136" x2="86.558" y2="480.371"></line>
      <polyline class="cls-13" points="86.558 482.879 86.558 485.379 89.058 485.379"></polyline>
      <line class="cls-3" x1="94.032" y1="485.379" x2="210.912" y2="485.38"></line>
      <polyline class="cls-13" points="213.399 485.38 215.899 485.38 215.899 482.88"></polyline>
      <line class="cls-7" x1="215.899" y1="477.864" x2="215.899" y2="239.628"></line>
    </g>
  </g>
  <g id="Fold_Line" data-name="Fold Line">
    <rect class="cls-11" x="224.899" y="225.62" width="414.201" height="268.759"></rect>
    <polyline class="cls-11" points="639.101 225.62 639.1 78.28 224.9 78.28 224.9 225.62"></polyline>
    <polyline class="cls-11" points="639.101 494.38 639.1 641.72 224.9 641.72 224.9 494.38"></polyline>
    <line class="cls-11" x1="786.442" y1="225.621" x2="786.442" y2="494.38"></line>
    <line class="cls-11" x1="77.558" y1="494.379" x2="77.558" y2="225.62"></line>
  </g>
  <g id="Trim_Line" data-name="Trim Line">
    <polygon id="Trim_Line-2" data-name="Trim Line" class="cls-12" points="833.963 229.151 788.604 229.151 788.604 224.9 639.1 225.62 639.101 225.62 703.397 155.499 703.397 78.278 653.434 78.278 649.182 74.025 639.102 74.025 634.849 32.047 229.151 32.047 224.899 74.025 214.819 74.025 210.567 78.278 160.604 78.278 160.604 155.499 224.899 225.62 224.9 225.62 75.397 224.9 75.397 229.151 30.037 229.151 30.037 490.849 75.397 490.849 75.397 495.101 224.9 494.38 224.899 494.38 160.604 564.5 160.604 641.722 210.567 641.722 214.819 645.975 224.899 645.975 229.151 687.953 634.849 687.953 639.102 645.975 649.182 645.975 653.434 641.722 703.397 641.722 703.397 564.5 639.101 494.38 639.1 494.38 788.604 495.101 788.604 490.849 833.963 490.849 833.963 229.151"></polygon>
  </g>
</svg>