<?xml version="1.0" encoding="UTF-8" standalone="no"?>
<svg
     viewBox="0 0 3600 3000"
     width="3600"
     height="3000"
     version="1.1"
     id="svg192"
     sodipodi:docname="SmallStoutBoxBottom.svg"
     inkscape:version="1.4 (e7c3feb1, 2024-10-09)"
     xmlns:inkscape="http://www.inkscape.org/namespaces/inkscape"
     xmlns:sodipodi="http://sodipodi.sourceforge.net/DTD/sodipodi-0.dtd"
     xmlns="http://www.w3.org/2000/svg"
     xmlns:svg="http://www.w3.org/2000/svg">
    <defs
         id="defs192">
        <defs
             id="defs1">
            <style
                 id="style1">
      .cls-1, .cls-2, .cls-3, .cls-4, .cls-5, .cls-6, .cls-7, .cls-8, .cls-9, .cls-10, .cls-11, .cls-12, .cls-13, .cls-14, .cls-15 {
        fill: none;
      }

      .cls-16 {
        letter-spacing: -.018em;
      }

      .cls-17 {
        font-size: 10.147px;
      }

      .cls-17, .cls-18, .cls-19 {
        font-family: Arial-Black, Arial Black;
      }

      .cls-17, .cls-18, .cls-19, .cls-20, .cls-21, .cls-22, .cls-23, .cls-24 {
        isolation: isolate;
      }

      .cls-17, .cls-18, .cls-19, .cls-24 {
        fill: #231f20;
      }

      .cls-18 {
        font-size: 12.177px;
      }

      .cls-2 {
        stroke-dasharray: 0 0 4.952 4.952;
      }

      .cls-2, .cls-3, .cls-4, .cls-5, .cls-6, .cls-7, .cls-8, .cls-9, .cls-10, .cls-11, .cls-12, .cls-13 {
        stroke-miterlimit: 10;
      }

      .cls-2, .cls-3, .cls-4, .cls-5, .cls-6, .cls-7, .cls-8, .cls-9, .cls-10, .cls-13 {
        stroke: #2ba8e0;
      }

      .cls-25 {
        letter-spacing: -.043em;
      }

      .cls-26 {
        letter-spacing: -.034em;
      }

      .cls-27 {
        letter-spacing: -.034em;
      }

      .cls-28 {
        fill: #020202;
      }

      .cls-29, .cls-22 {
        fill: #e9292f;
      }

      .cls-30 {
        fill: #fff;
      }

      .cls-31 {
        fill: #b7d335;
      }

      .cls-32 {
        fill: #d1d2d2;
      }

      .cls-33 {
        fill: #4f4b4c;
      }

      .cls-3 {
        stroke-dasharray: 0 0 4.974 4.974;
      }

      .cls-4 {
        stroke-dasharray: 0 0 4.974 4.974;
      }

      .cls-34 {
        letter-spacing: 0em;
      }

      .cls-19 {
        font-size: 9.001px;
      }

      .cls-20 {
        fill: #919395;
      }

      .cls-20, .cls-21, .cls-22 {
        font-size: 7.501px;
      }

      .cls-20, .cls-21, .cls-22, .cls-24 {
        font-family: Arial-BoldMT, Arial;
      }

      .cls-21 {
        fill: #30a2db;
      }

      .cls-5 {
        stroke-dasharray: 0 0 4.952 4.952;
      }

      .cls-6 {
        stroke-dasharray: 0 0 4.952 4.952;
      }

      .cls-7 {
        stroke-dasharray: 0 0 5.015 5.015;
      }

      .cls-8 {
        stroke-dasharray: 0 0 5.015 5.015;
      }

      .cls-9 {
        stroke-dasharray: 0 0 5.015 5.015;
      }

      .cls-35 {
        letter-spacing: -.025em;
      }

      .cls-36 {
        letter-spacing: -.018em;
      }

      .cls-37 {
        letter-spacing: -.037em;
      }

      .cls-38 {
        letter-spacing: -.037em;
      }

      .cls-10 {
        stroke-dasharray: 0 0 5.042 5.042;
      }

      .cls-39 {
        letter-spacing: .027em;
      }

      .cls-40 {
        letter-spacing: 0em;
      }

      .cls-41 {
        letter-spacing: -.055em;
      }

      .cls-42 {
        letter-spacing: .016em;
      }

      .cls-43 {
        letter-spacing: -.026em;
      }

      .cls-44 {
        letter-spacing: 0em;
      }

      .cls-11 {
        stroke: #00a54e;
      }

      .cls-12 {
        stroke: red;
      }

      .cls-45 {
        opacity: .5;
      }

      .cls-46 {
        letter-spacing: 0em;
      }

      .cls-14 {
        stroke: #919395;
      }

      .cls-15 {
        stroke: #e9292f;
      }

      .cls-47 {
        letter-spacing: -.017em;
      }

      .cls-48 {
        letter-spacing: -.017em;
      }

      .cls-24 {
        font-size: 7.528px;
      }

      .cls-49 {
        letter-spacing: -.026em;
      }
    </style>
        </defs>
    </defs>
    <sodipodi:namedview
         id="namedview192"
         pagecolor="#505050"
         bordercolor="#eeeeee"
         borderopacity="1"
         inkscape:showpageshadow="0"
         inkscape:pageopacity="0"
         inkscape:pagecheckerboard="0"
         inkscape:deskcolor="#d1d1d1"
         inkscape:zoom="0.14888889"
         inkscape:cx="1883.9552"
         inkscape:cy="1961.194"
         inkscape:window-width="1872"
         inkscape:window-height="1027"
         inkscape:window-x="62"
         inkscape:window-y="25"
         inkscape:window-maximized="1"
         inkscape:current-layer="svg192" />
    <path
         class="cls-45"
         d="M -1.44e-5,-1.2e-5 V 3000 H 3600 V -1.2e-5 Z"
         id="path1"
         style="stroke-width:4.16667"
         sodipodi:nodetypes="ccccc" />
    <polygon
         id="clipping"
         data-name="Trim Line"
         class="cls-12"
         points="653.434,78.278 649.182,74.025 639.102,74.025 634.849,32.047 229.151,32.047 224.899,74.025 214.819,74.025 210.567,78.278 160.604,78.278 160.604,155.499 224.899,225.62 224.9,225.62 75.397,224.9 75.397,229.151 30.037,229.151 30.037,490.849 75.397,490.849 75.397,495.101 224.9,494.38 224.899,494.38 160.604,564.5 160.604,641.722 210.567,641.722 214.819,645.975 224.899,645.975 229.151,687.953 634.849,687.953 639.102,645.975 649.182,645.975 653.434,641.722 703.397,641.722 703.397,564.5 639.101,494.38 639.1,494.38 788.604,495.101 788.604,490.849 833.963,490.849 833.963,229.151 788.604,229.151 788.604,224.9 639.1,225.62 639.101,225.62 703.397,155.499 703.397,78.278 "
         transform="matrix(4.1666667,0,0,4.1666667,-1.44e-5,-1.2e-5)"
         style="stroke:none;fill:#565656;fill-opacity:1" />
    <polyline
         class="cls-13"
         points="236.399 485.379 233.899 485.379 233.899 482.879"
         id="polyline170"
         transform="matrix(4.1666667,0,0,4.1666667,-1.44e-5,-1.2e-5)" />
    <line
         class="cls-8"
         x1="974.57916"
         y1="1991.1001"
         x2="974.58331"
         y2="998.45001"
         id="line170"
         style="stroke-width:4.16667" />
    <polyline
         class="cls-13"
         points="233.9 237.12 233.9 234.62 236.4 234.62"
         id="polyline171"
         transform="matrix(4.1666667,0,0,4.1666667,-1.44e-5,-1.2e-5)" />
    <line
         class="cls-2"
         x1="1005.6334"
         y1="977.58331"
         x2="2604.6833"
         y2="977.58331"
         id="line171"
         style="stroke-width:4.16667" />
    <polyline
         class="cls-13"
         points="627.6 234.62 630.1 234.62 630.1 237.12"
         id="polyline172"
         transform="matrix(4.1666667,0,0,4.1666667,-1.44e-5,-1.2e-5)" />
    <line
         class="cls-8"
         x1="2625.4165"
         y1="1008.9"
         x2="2625.4209"
         y2="2001.55"
         id="line172"
         style="stroke-width:4.16667" />
    <polyline
         class="cls-13"
         points="630.101 482.879 630.101 485.379 627.601 485.379"
         id="polyline173"
         transform="matrix(4.1666667,0,0,4.1666667,-1.44e-5,-1.2e-5)" />
    <line
         class="cls-6"
         x1="2594.3708"
         y1="2022.4125"
         x2="995.3125"
         y2="2022.4125"
         id="line173"
         style="stroke-width:4.16667" />
    <polyline
         class="cls-13"
         points="236.4 216.62 233.9 216.62 233.9 214.12"
         id="polyline174"
         transform="matrix(4.1666667,0,0,4.1666667,-1.44e-5,-1.2e-5)" />
    <line
         class="cls-4"
         x1="974.58331"
         y1="871.44586"
         x2="974.58331"
         y2="384.44583"
         id="line174"
         style="stroke-width:4.16667" />
    <polyline
         class="cls-13"
         points="233.9 89.78 233.9 87.28 236.4 87.28"
         id="polyline175"
         transform="matrix(4.1666667,0,0,4.1666667,-1.44e-5,-1.2e-5)" />
    <line
         class="cls-2"
         x1="1005.6334"
         y1="363.66666"
         x2="2604.6833"
         y2="363.66666"
         id="line175"
         style="stroke-width:4.16667" />
    <polyline
         class="cls-13"
         points="627.6 87.28 630.1 87.28 630.1 89.78"
         id="polyline176"
         transform="matrix(4.1666667,0,0,4.1666667,-1.44e-5,-1.2e-5)" />
    <line
         class="cls-4"
         x1="2625.4165"
         y1="394.80414"
         x2="2625.4209"
         y2="881.80835"
         id="line176"
         style="stroke-width:4.16667" />
    <polyline
         class="cls-13"
         points="630.101 214.12 630.101 216.62 627.601 216.62"
         id="polyline177"
         transform="matrix(4.1666667,0,0,4.1666667,-1.44e-5,-1.2e-5)" />
    <line
         class="cls-5"
         x1="2594.3708"
         y1="902.58331"
         x2="995.31671"
         y2="902.58331"
         id="line177"
         style="stroke-width:4.16667" />
    <polyline
         class="cls-13"
         points="236.4 503.38 233.9 503.38 233.9 505.88"
         id="polyline178"
         transform="matrix(4.1666667,0,0,4.1666667,-1.44e-5,-1.2e-5)" />
    <line
         class="cls-4"
         x1="974.58331"
         y1="2128.5542"
         x2="974.58331"
         y2="2615.554"
         id="line178"
         style="stroke-width:4.16667" />
    <polyline
         class="cls-13"
         points="233.9 630.22 233.9 632.72 236.4 632.72"
         id="polyline179"
         transform="matrix(4.1666667,0,0,4.1666667,-1.44e-5,-1.2e-5)" />
    <line
         class="cls-2"
         x1="1005.6334"
         y1="2636.3333"
         x2="2604.6833"
         y2="2636.3333"
         id="line179"
         style="stroke-width:4.16667" />
    <polyline
         class="cls-13"
         points="627.6 632.72 630.1 632.72 630.1 630.22"
         id="polyline180"
         transform="matrix(4.1666667,0,0,4.1666667,-1.44e-5,-1.2e-5)" />
    <line
         class="cls-4"
         x1="2625.4165"
         y1="2605.1958"
         x2="2625.4209"
         y2="2118.1917"
         id="line180"
         style="stroke-width:4.16667" />
    <polyline
         class="cls-13"
         points="630.101 505.88 630.101 503.38 627.601 503.38"
         id="polyline181"
         transform="matrix(4.1666667,0,0,4.1666667,-1.44e-5,-1.2e-5)" />
    <line
         class="cls-5"
         x1="2594.3708"
         y1="2097.4167"
         x2="995.31671"
         y2="2097.4167"
         id="line181"
         style="stroke-width:4.16667" />
    <polyline
         class="cls-13"
         points="648.101 482.88 648.101 485.38 650.601 485.38"
         id="polyline182"
         transform="matrix(4.1666667,0,0,4.1666667,-1.44e-5,-1.2e-5)" />
    <line
         class="cls-4"
         x1="2731.5625"
         y1="2022.4167"
         x2="3218.5625"
         y2="2022.4167"
         id="line182"
         style="stroke-width:4.16667" />
    <polyline
         class="cls-13"
         points="774.942 485.38 777.442 485.379 777.442 482.879"
         id="polyline183"
         transform="matrix(4.1666667,0,0,4.1666667,-1.44e-5,-1.2e-5)" />
    <line
         class="cls-9"
         x1="3239.3418"
         y1="1991.1001"
         x2="3239.3418"
         y2="998.45416"
         id="line183"
         style="stroke-width:4.16667" />
    <polyline
         class="cls-13"
         points="777.442 237.121 777.442 234.621 774.942 234.621"
         id="polyline184"
         transform="matrix(4.1666667,0,0,4.1666667,-1.44e-5,-1.2e-5)" />
    <line
         class="cls-4"
         x1="3208.2002"
         y1="977.58752"
         x2="2721.2"
         y2="977.58331"
         id="line184"
         style="stroke-width:4.16667" />
    <polyline
         class="cls-13"
         points="650.601 234.62 648.101 234.62 648.101 237.12"
         id="polyline185"
         transform="matrix(4.1666667,0,0,4.1666667,-1.44e-5,-1.2e-5)" />
    <line
         class="cls-7"
         x1="2700.4209"
         y1="1008.9"
         x2="2700.4209"
         y2="2001.55"
         id="line185"
         style="stroke-width:4.16667" />
    <polyline
         class="cls-13"
         points="215.899 237.12 215.899 234.62 213.399 234.62"
         id="polyline186"
         transform="matrix(4.1666667,0,0,4.1666667,-1.44e-5,-1.2e-5)" />
    <line
         class="cls-3"
         x1="868.4375"
         y1="977.58331"
         x2="381.43747"
         y2="977.58331"
         id="line186"
         style="stroke-width:4.16667" />
    <polyline
         class="cls-13"
         points="89.058 234.62 86.558 234.62 86.558 237.12"
         id="polyline187"
         transform="matrix(4.1666667,0,0,4.1666667,-1.44e-5,-1.2e-5)" />
    <line
         class="cls-9"
         x1="360.65833"
         y1="1008.9"
         x2="360.65833"
         y2="2001.5459"
         id="line187"
         style="stroke-width:4.16667" />
    <polyline
         class="cls-13"
         points="86.558 482.879 86.558 485.379 89.058 485.379"
         id="polyline188"
         transform="matrix(4.1666667,0,0,4.1666667,-1.44e-5,-1.2e-5)" />
    <line
         class="cls-3"
         x1="391.79999"
         y1="2022.4125"
         x2="878.79999"
         y2="2022.4167"
         id="line188"
         style="stroke-width:4.16667" />
    <polyline
         class="cls-13"
         points="213.399 485.38 215.899 485.38 215.899 482.88"
         id="polyline189"
         transform="matrix(4.1666667,0,0,4.1666667,-1.44e-5,-1.2e-5)" />
    <line
         class="cls-7"
         x1="899.57916"
         y1="1991.1001"
         x2="899.57916"
         y2="998.45001"
         id="line189"
         style="stroke-width:4.16667" />
    <rect
         class="cls-11"
         x="937.07916"
         y="940.08331"
         width="1725.8375"
         height="1119.8292"
         id="rect189"
         style="stroke-width:4.16667" />
    <polyline
         class="cls-11"
         points="639.101 225.62 639.1 78.28 224.9 78.28 224.9 225.62"
         id="polyline190"
         transform="matrix(4.1666667,0,0,4.1666667,-1.44e-5,-1.2e-5)" />
    <polyline
         class="cls-11"
         points="639.101 494.38 639.1 641.72 224.9 641.72 224.9 494.38"
         id="polyline191"
         transform="matrix(4.1666667,0,0,4.1666667,-1.44e-5,-1.2e-5)" />
    <line
         class="cls-11"
         x1="3276.8418"
         y1="940.08752"
         x2="3276.8418"
         y2="2059.9167"
         id="line191"
         style="stroke-width:4.16667" />
    <line
         class="cls-11"
         x1="323.15833"
         y1="2059.9126"
         x2="323.15833"
         y2="940.08331"
         id="line192"
         style="stroke-width:4.16667" />
</svg>
