<svg xmlns="http://www.w3.org/2000/svg" version="1.1" viewBox="0 0 1125 1725" width="1125" height="1725">
  <defs>
    <style>
      .cls-1 {
        fill: red;
      }

      .cls-1, .cls-2, .cls-3, .cls-4, .cls-5, .cls-6 {
        font-family: Arial-BoldMT, Arial;
        font-weight: 700;
      }

      .cls-1, .cls-2, .cls-4, .cls-5, .cls-6 {
        font-size: 6px;
      }

      .cls-7 {
        stroke-dasharray: 0 0 5 5;
      }

      .cls-7, .cls-8, .cls-9, .cls-10, .cls-11, .cls-12, .cls-13, .cls-14 {
        fill: none;
      }

      .cls-7, .cls-8, .cls-10, .cls-11, .cls-14 {
        stroke-miterlimit: 10;
      }

      .cls-7, .cls-11, .cls-14 {
        stroke: #26aae1;
      }

      .cls-8 {
        stroke: #ec1c24;
      }

      .cls-15 {
        fill: #4c4849;
      }

      .cls-15, .cls-16, .cls-17, .cls-18, .cls-19, .cls-20, .cls-21, .cls-22, .cls-23, .cls-24, .cls-25 {
        stroke-width: 0px;
      }

      .cls-26 {
        fill: #ec1c24;
        font-size: 9.5px;
      }

      .cls-26, .cls-27, .cls-28 {
        font-family: Arial-Black, 'Arial Black';
        font-weight: 800;
      }

      .cls-9 {
        stroke: #2ba3dc;
        stroke-dasharray: 0 5;
      }

      .cls-2 {
        fill: #6f6f6f;
      }

      .cls-16 {
        fill: #e7242c;
      }

      .cls-27, .cls-3, .cls-25 {
        fill: #231f20;
      }

      .cls-27, .cls-20 {
        isolation: isolate;
      }

      .cls-27, .cls-28 {
        font-size: 7px;
      }

      .cls-17 {
        fill: #10ab4b;
      }

      .cls-18 {
        fill: #e6e5e5;
      }

      .cls-10 {
        stroke: #b9529f;
      }

      .cls-11 {
        stroke-dasharray: 0 0 5.1 5.1;
      }

      .cls-19, .cls-24 {
        fill: #000;
      }

      .cls-29 {
        font-size: 7.8px;
      }

      .cls-12 {
        stroke: #9b9b9b;
      }

      .cls-20 {
        opacity: .2;
      }

      .cls-20, .cls-5 {
        fill: #b9529f;
      }

      .cls-13 {
        stroke: red;
      }

      .cls-4 {
        fill: #2ca1da;
      }

      .cls-21 {
        fill: #b6d233;
      }

      .cls-21, .cls-22, .cls-24 {
        fill-rule: evenodd;
      }

      .cls-30 {
        opacity: .5;
      }

      .cls-22, .cls-23 {
        fill: #fff;
      }

      .cls-28 {
        fill: #221f1f;
      }

      .cls-6 {
        fill: #ed2224;
      }

      .cls-31 {
        font-size: 5.5px;
        letter-spacing: 0em;
      }
    </style>
  </defs>
  <g id="Guide_lines" data-name="Guide lines">
    <g>
      <g id="Safe_Zone" data-name="Safe Zone">
        <g>
          <polyline class="cls-14" points="47.5 369 45 369 45 366.5"></polyline>
          <line class="cls-11" x1="45" y1="361.4" x2="45" y2="50"></line>
          <polyline class="cls-14" points="45 47.5 45 45 47.5 45"></polyline>
          <line class="cls-7" x1="52.5" y1="45" x2="220" y2="45"></line>
          <polyline class="cls-14" points="222.5 45 225 45 225 47.5"></polyline>
          <line class="cls-11" x1="225" y1="52.6" x2="225" y2="364"></line>
          <polyline class="cls-14" points="225 366.5 225 369 222.5 369"></polyline>
          <line class="cls-7" x1="217.5" y1="369" x2="50" y2="369"></line>
        </g>
      </g>
      <g class="cls-30">
        <path class="cls-25" d="M270,414H0S0,0,0,0h270s0,414,0,414ZM261,9H17.7c-5,0-9,4-9,9v378c0,5,4,9,9,9h234.3c5,0,9-4,9-9V9Z"></path>
      </g>
      <path class="cls-20" d="M252,405H18c-5,0-9-4-9-9V18c0-5,4-9,9-9h243s0,387,0,387c0,5-4,9-9,9ZM225,44.8H45s0,324,0,324h180s0-324,0-324Z"></path>
      <g id="Trim_Line" data-name="Trim Line">
        <path class="cls-8" d="M261,396c0,4.9-4,9-9,9H18c-4.9,0-9-4-9-9V18c0-5,4-9,9-9h243s0,0,0,0v387Z"></path>
      </g>
    </g>
  </g>
  <g id="Notes">
    <g>
      <g>
        <line class="cls-13" x1="51.8" y1="118.1" x2="261" y2="118.1"></line>
        <path class="cls-16" d="M56.9,110.1c0,.4-.2.8-.5,1.1h0c0,0-3,3.3-3,3.3-.6.7-1.2,1.2-1.6,1.6-.5.4-.8.5-1,.5s-.4,0-.7-.3c-.3-.2-.5-.4-.6-.6,0-.2-.1-.5-.2-1,0-.5,0-1.1,0-1.7s.1-.7.4-.9c.3-.3.6-.4.9-.4s.5.3.6.9c0,0,0,.1,0,.2,0,.5.1.8.2,1,0,.2.2.3.3.3s.1,0,.3-.2c.1-.1.3-.3.5-.4l3.1-3.1c.3-.3.5-.5.7-.6.2-.1.4-.2.5-.2s.2,0,.2.1c0,0,0,.2,0,.4v.2Z"></path>
        
      </g>
      <g>
        <line class="cls-12" x1="51.8" y1="93.3" x2="266.5" y2="93.3"></line>
        <path class="cls-16" d="M56.9,85.4c0,.4-.2.8-.5,1.1h0c0,0-3,3.3-3,3.3-.6.7-1.2,1.2-1.6,1.6-.5.4-.8.5-1,.5s-.4,0-.7-.3c-.3-.2-.5-.4-.6-.6,0-.2-.1-.5-.2-1,0-.5,0-1.1,0-1.7s.1-.7.4-.9c.3-.3.6-.4.9-.4s.5.3.6.9c0,0,0,.1,0,.2,0,.5.1.8.2,1,0,.2.2.3.3.3s.1,0,.3-.2c.1-.1.3-.3.5-.4l3.1-3.1c.3-.3.5-.5.7-.6.2-.1.4-.2.5-.2s.2,0,.2.1c0,0,0,.2,0,.4v.2Z"></path>
        
      </g>
      <g>
        <g>
          <line class="cls-9" x1="225.4" y1="142" x2="223.2" y2="142"></line>
          <line class="cls-9" x1="219.1" y1="142" x2="56" y2="142"></line>
          <line class="cls-9" x1="53.9" y1="142" x2="51.8" y2="142"></line>
        </g>
        
        <path class="cls-16" d="M56.9,134.9c0,.4-.2.8-.5,1.1h0c0,0-3,3.3-3,3.3-.6.7-1.2,1.2-1.6,1.6-.5.4-.8.5-1,.5s-.4,0-.7-.3c-.3-.2-.5-.4-.6-.6,0-.2-.1-.5-.2-1,0-.5,0-1.1,0-1.7s.1-.7.4-.9c.3-.3.6-.4.9-.4s.5.3.6.9c0,0,0,.1,0,.2,0,.5.1.8.2,1,0,.2.2.3.3.3s.1,0,.3-.2c.1-.1.3-.3.5-.4l3.1-3.1c.3-.3.5-.5.7-.6.2-.1.4-.2.5-.2s.2,0,.2.1c0,0,0,.2,0,.4v.2Z"></path>
      </g>
      <g>
        <rect class="cls-18" x="50.8" y="48.8" width="170.3" height="29.7"></rect>
        
        <g>
          <path class="cls-24" d="M81.7,63.7c0,7.4-6,13.4-13.5,13.4s-13.5-6-13.5-13.4,6-13.4,13.5-13.4,13.5,6,13.5,13.4"></path>
          <path class="cls-21" d="M80.5,63.7c0,6.7-5.5,12.2-12.2,12.2s-12.2-5.4-12.2-12.2,5.5-12.2,12.2-12.2,12.2,5.4,12.2,12.2"></path>
          <path class="cls-19" d="M65.7,61.1c-.2,1.5-.3,2.7-.4,3.6h-.6s0,0,0,0c0,0,0-.2,0-.3,0-.1,0-.2,0-.2-.1,0-.3.1-.4.3-.1.2-.2.3-.4.3,0,0-.1,0-.2,0-.1,0-.2,0-.4,0-.1,0-.3,0-.4,0,0-.2-.2-.4-.6-.5,0,0,0-.2-.1-.3,0-.1-.1-.3-.1-.3,0,0,0-.1,0-.2,0,0,0-.2-.2-.4,0-.2-.1-.4-.1-.5,0-.1,0-.2,0-.3,0-.6,0-1.2,0-1.7,0-.7.1-1.4.3-2,0,0,0-.2,0-.3,0-.5.2-.8.5-1h0c.3-.5.7-.8,1.3-1,.3,0,.6.1.9.2.3.1.6.3.7.6.1,0,.2.2.2.4,0,.2,0,.3,0,.4h0c0,.5,0,.8,0,.9,0,.3,0,.5-.2.6,0,0-.2,0-.4-.1,0,0-.1,0-.2,0,0,0,0,0-.2,0,0,0-.1,0-.2,0,0,0,0,0-.1,0,0-.6,0-1,0-1.3,0,0-.1-.1-.2-.3,0-.1-.1-.2-.2-.2,0,0,0,.1,0,.1h-.2c-.2.1-.3.5-.4,1,0,.6-.1,1-.2,1.1,0,0,.1.2.1.4,0,0,0,.1,0,.3,0,.1,0,.2,0,.3,0,0,0,.1,0,.2h-.1c0,.4,0,.7,0,1.1,0,.3,0,.7,0,1,0,0,0,0-.2,0,0,0-.1,0-.2,0,0,0,0,0,.1,0,.2,0,.3.1.4.4,0,.2.2.3.2.3,0,0,.2,0,.3-.2.2-.2.3-.6.3-1,0-.2,0-.4,0-.7,0,0,0,.1,0,.2-.1,0-.2,0-.2,0,0,0,0,0,0-.1,0,0,0-.2,0-.2,0,0,.1,0,.1-.1,0,0,0,0,0-.1,0,0,0-.1,0-.1,0,0,0,0,0,0v-.4c.2,0,.6,0,1.1,0,0,0,0,0,0,.1,0,0,.1,0,.2,0,0,0,.1,0,.2,0,0,0,.2,0,.2,0"></path>
          <path class="cls-19" d="M69.9,65c-.1,0-.2,0-.3,0-.1,0-.3,0-.4,0-.2,0-.3,0-.4,0,0-.2-.1-.4-.2-.7,0-.4,0-.6-.1-.7,0,0,0,0,0-.1,0,0,0-.2-.2-.2-.1,0-.2-.1-.2-.2,0,0,0-.1.2-.2,0,0,0-.1,0-.3,0-.1,0-.2-.1-.3,0,0-.2.1-.5.2-.2,0-.3,0-.4.1,0,.6,0,1-.3,1.2-.1,0-.2,0-.2.1,0,.1-.1.2-.2.2h0c0,.1-.2.2-.3.1-.2,0-.3,0-.3,0v-.2c0,0,.7-6.1.7-6.1,0-.4,0-.6,0-.8,0-.3,0-.6.2-.6.1,0,.2.1.4.1.1,0,.3,0,.6,0,.3,0,.5,0,.6,0,.4,0,.5.3.5.8,0,.4,0,1,.2,1.7.2.7.3,1.3.3,1.7,0,.1,0,.3,0,.5-.2,0-.4.1-.6.2-.2,0-.4,0-.7,0,0-.6-.2-1.3-.2-1.8,0-.7-.2-1.2-.3-1.7l-.4,3.2c0,.3,0,.4.4.4,0,0,.2,0,.3,0,0,0,.2,0,.3.2,0,.2,0,.4.1.4.1,0,.3-.2.5-.2.2,0,.3-.1.5-.2,0,.1.2.3.2.6,0,.4,0,.6,0,.6,0,.1,0,.5.2.9,0,.4.1.7.1.9,0,.1,0,.2,0,.3"></path>
          <path class="cls-19" d="M75.2,59.6s0,.2,0,.4c0,.2,0,.3,0,.4,0,.1,0,.4,0,.6,0,0,0,.2,0,.3,0,.1,0,.2,0,.3,0,.5,0,.8-.2,1,0,.1,0,.2,0,.4,0,.4-.1.9-.4,1.5,0,0-.1,0-.2,0,0,0-.2,0-.2-.2,0-.1,0-.2-.1-.3,0-.6,0-1.4,0-2.5h0c0-.3,0-.5,0-.7,0-.2,0-.4,0-.8,0-.3,0-.6,0-.7,0-.1,0-.2,0-.3-.3.6-.4,1.7-.6,3.2v.2c-.1,0-.2.1-.3.1,0,0,0,0,0,0s0,0-.1,0c0,0-.1,0-.1,0h-.2c0,.2.2.2.4.2.2,0,.3,0,.3.2,0,.2,0,.4-.1.6,0,.3-.1.4-.1.6,0,0,0,.2,0,.3h-.8c0,0-.1-.3-.2-.6,0-.4,0-.6-.2-.8,0,0,0-.1,0-.2,0,0,0-.1,0-.2,0-.1,0-.2,0-.2,0,0,0-.3,0-.6,0-.3,0-.5,0-.6,0,0,0-.1,0-.2,0,0,0-.1,0-.2,0-.1,0-.2,0-.2s0,0,0,0c0,0,0-.2,0-.3,0-.2,0-.3,0-.3-.1.3-.2.7-.2,1.2,0,.7,0,1.1,0,1.2h0c0,0,0,.1,0,.1,0,.3,0,.6,0,1,0,.8,0,1.1,0,1.1-.1,0-.3.1-.4.1-.2,0-.4,0-.5,0,0-.2-.1-.4-.1-.6,0-.2,0-.5.1-.7-.1-.2-.2-.5-.1-.8,0,0,0-.2,0-.5,0-.2,0-.3,0-.4,0,0,.1,0,.1-.1s0,0,0-.2c0,0,0-.1,0-.2,0,0,0,0,0-.1l-.2-3.7c.1,0,.4-.1.7-.1.4,0,.6,0,.7,0,0,0,0,0,0,0,0,0,0,0,.1,0,0,0,0,0,0,0,0,0,0,0,0,0l.2.2c0,.3.1.8.2,1.5,0,.7.2,1.2.3,1.5.2-.7.3-1.2.5-1.7l.2-1.8h1.8c0,0,0,.6,0,.9,0,.3,0,.5,0,.6,0,.2,0,.4,0,.5,0,0,0,.2,0,.3,0,.1,0,.2,0,.3"></path>
          <path class="cls-19" d="M78.8,63.6h0c0,0,0,.2,0,.3,0,0,0,.2,0,.4,0,.2,0,.3,0,.4,0,0-.3,0-.7,0-.3,0-.5,0-.7,0l-.2-.2c0,0,0,.1,0,.1,0,0-.2,0-.5,0-.2,0-.4,0-.5,0-.1.1-.3.1-.4,0,0,0,0-.1,0-.2,0-.1,0-.2,0-.2,0-.2,0-.6,0-1.1,0-.5,0-.8,0-1.1,0-.3,0-.7,0-1,0,0,.2-.1.3-.1.1,0,.3,0,.4.2.2.2.4.2.4.2h0c0,0,0,0,.1-.3,0-.1,0-.2.2-.3h0c0,0,.1,0,.3-.1.1,0,.2-.3.3-.3,0,0,.2,0,.2.1.1,0,.2.3.2.5,0,.1,0,.3.1.4-.3,0-.6,0-.8,0,0,0-.1,0-.2,0,0,0-.2,0-.2,0,0,.1,0,.4,0,.7,0,.3,0,.6,0,.7,0,.3,0,.5,0,.8,0,0,.3,0,.9,0,.4,0,.7,0,.9,0M78.8,58.1c0,0-.1,0-.2,0-.2,0-.4,0-.7,0-.4,0-.6,0-.6,0-.1.2-.2.4-.2.7,0,.6,0,.9,0,.8.1,0,.2.2.2.3,0,.2,0,.3,0,.4,0,0,0,0,0,.2,0,0-.2,0-.3-.2-.1-.1-.2.3-.2.2v.2c0,0-.1,0-.1,0,0,0-.2,0-.3,0-.1,0-.2-.1-.3-.2,0-.1,0-.2,0-.2v-.2c-.1,0-.2.1-.2.1,0-.8,0-2.3,0-3.1.3,0,.6,0,1,0,.2,0,.6,0,1,0s.8,0,1,0c0,0,.1.2.1.3,0,0,0,.2,0,.4,0,.2,0,.3,0,.4"></path>
          <path class="cls-19" d="M66,70.4h0s0,.2,0,.5c0,.2,0,.4-.1.5h0c0,.2-.2.3-.4.3,0,0-.2.1-.3.1,0,0-.3,0-.6,0-.2,0-.2-.1-.2-.2,0,0-.1-.1-.1-.2,0,0-.2-.3-.3-.5,0-.2,0-.2-.1-.3,0,0-.1,0-.2-.2h0c0,0,0,0,0-.1,0,0,0,0,0,0,0,0,0,0,0,0,0,0,0,0,0,0,0-.2,0-.4,0-.8,0,0,0,0,0-.2,0,0,0-.2,0-.2.1-.3.4-.5.7-.6,0,0,.1,0,.3,0,.1,0,.2,0,.2,0,0,0,.2,0,.3,0,0,0,.2.1.3.2.2.2.2.4.3.6,0,0,0,.1,0,.2-.1,0-.2,0-.2.2h-.5s0-.1,0-.2c0,0,0,0,0-.2,0,0,0-.1,0-.2,0-.1,0-.2,0-.3h-.1c0,0,0,0,0,0,0,0,0,0,0,0,0,0,0,0,0,0,0,0,0,0-.1,0,0,.5,0,1,0,1.6,0,0,0,0,.1,0,0,0,0,0,0,0,0,0,0,0,0,0h0c0,0,0,.1,0,.2,0,0,0,0,0,.2,0,0,0,.1,0,.2,0,.1,0,.2,0,.2,0,0,0,.1,0,.2,0,0,0,0,.1,0,.1,0,.2,0,.3.2,0,0,0,0,0,0,0,0,0,0,0,0,0,0,0,0,0-.2,0-.1,0-.2,0-.2,0,0,0-.1,0-.2,0,0,0-.2,0-.2,0,0,0-.1,0-.2,0,0,0,0,0,0,0,0,0,0,0,0,.2,0,.5,0,.8,0"></path>
          <path class="cls-19" d="M68.1,70.8h0c0,0,0,.1,0,.2,0,.1,0,.2,0,.2,0,0,0,0,0,0,0,0,0,0,0,.1,0,0,0,0,0,0h0c0,0,0,.1,0,.1,0,0-.1,0-.2,0,0,0-.2,0-.3,0,0-.5,0-.9-.2-1.3,0,0,0,0,0-.1,0,0,0-.1,0-.1h0s0,0,0,0c0,0,0,0,0,0,0,0,0,0,0,0h0c0,0-.1,0-.1.2,0,0,0,.1,0,.1,0,0,0,0,0,0,0,0,0,0,0,0,0,0,0,0,0,0,0,0,0,0,0,0,0,0,0,.2,0,.5,0,.2,0,.4,0,.6h0c0,0,0,0,0,0,0,0-.1,0-.2,0,0,0-.1,0-.2,0-.2,0-.3,0-.3,0v-1.9c0,0-.1-.2-.1-.4v-.4c0-.2,0-.3,0-.4,0,0,0,0,.2-.1,0,0,.1,0,.3,0,0,0,.1,0,.2,0,0,0,0,0,.1,0,0,0,0,0,.1,0,.2,0,.3,0,.3-.1,0,0,.2,0,.2,0,0,0,.2,0,.2,0,.2.1.3.3.3.5,0,0,0,.3,0,.6l-.3.3c0,0,.1.3.2.6,0,.3.2.5.3.6M67.5,68.7h0s0,0,0-.2c0,0,0-.2,0-.2,0,0,0,0,0,.2,0,.1,0,0-.1.1-.1,0-.1,0-.1,0,0-.2,0-.1,0-.1h0s0,0,0,0c0,0,0,0,0,0,0,0,0,0,0,0,0,0,0,0,0,0,0,0,0,0,0,0,0,0,0,.1,0,.2,0,0,0,.1,0,.3,0,.1,0,.2,0,.3,0,0,0,0,.1,0,.1,0,.2,0,.3-.2,0,0,0-.1,0-.3,0-.1,0-.2.1-.3"></path>
          <path class="cls-19" d="M70.4,71.5c0,0-.1,0-.2,0,0,0-.1,0-.2,0-.1,0-.2,0-.2,0,0,0,0-.2-.1-.3,0-.2,0-.3,0-.3,0,0,0,0,0,0,0,0,0,0-.1,0,0,0-.1,0-.1,0,0,0,0,0,.1,0,0,0,0,0,0-.1,0,0,0-.1,0-.1,0,0-.1,0-.2,0-.1,0-.2,0-.2,0,0,.3,0,.7-.1.8,0,0-.1,0-.1,0,0,0,0,0-.1.1h0c0,0,0,0-.2,0-.1,0-.2,0-.2,0h0c0,0,.2-3.1.2-3.1,0-.2,0-.3,0-.3,0-.1,0-.2.1-.3,0,0,.1,0,.2,0,0,0,.2,0,.3,0,.1,0,.2,0,.3,0,.2,0,.3,0,.3.3,0,.2,0,.4.2.7.1.3.2.6.2.7,0,0,0,.2,0,.2,0,0-.2,0-.3,0-.1,0-.2,0-.4,0,0-.3-.2-.6-.2-.8,0-.3-.1-.5-.2-.7v1.4c0,.1,0,.2.1.2,0,0,0,0,.1,0,0,0,0,0,.2,0,0,.1,0,.2,0,.2,0,0,.1,0,.3-.1,0,0,.2,0,.3-.1,0,0,0,.1.1.2,0,.2,0,.2,0,.3,0,0,0,.2.1.4,0,.2,0,.3,0,.4,0,0,0,0,0,.1"></path>
          <path class="cls-19" d="M72.2,68.1h0c0,0-.1,0-.2,0,0,0,0,0-.2,0-.1,0-.2,0-.2,0,0,0,0,0,0,0,0,0,0,0,0,0,0,0,0,0,0,0,0,0,0,0,0,0,0,0,0,0,0,0h0c0,0,0,0,0,.1,0,0,0,0,0,0,0,0,0,0,0,0,0,0,0,.2,0,.4,0,.2,0,.3.1.4,0,0,0,0,.1,0,0,0,.1,0,.1,0,0,0,.1,0,.2,0,0,0,.2,0,.2,0v.4s-.1,0-.2,0c0,0,0,.1-.1.1,0,0,0,0-.2,0,0,0,0,0,0,0-.1,0-.2.2-.1.4,0,0,0,0,0,.1,0,0,0,0,0,.1,0,0-.2,0-.3,0-.1,0-.2,0-.2,0,0,0,0,0,0,0h-.1s-.2-2-.2-2v-.4c.1,0,.3,0,.6,0,.2,0,.4,0,.7,0,0,0,0,0,0,0,0,0,0,0,0,0,0,0,0,0,0,0,0,0,0,0,0,0h0c0,0,.1,0,.1.1,0,0,0,0,0,.1,0,0,0,.1,0,.1,0,0,0,0,0,0M71.4,71.5s-.1,0-.2,0c-.1,0-.2,0-.2,0,0,0,0,0,0-.1,0,0,0-.1-.1,0,0,0,0,0,0,0h-.1s0-1,0-1c0,0,.1,0,.2,0,0,0,.2,0,.2,0,0,0,0,0,.2,0h.1c0,.3.1.8.1,1.1"></path>
          <path class="cls-19" d="M74.7,68.2h0c0,0-.2,0-.4,0-.1,0-.2,0-.3,0,0,0,0,0,0,.2h0c0,0,0,0,0,0h0c0,.6,0,1,0,1,0,.2,0,.3,0,.4,0,0,0,.2,0,.3,0,0,0,.2,0,.3,0,.1,0,.6,0,.7,0,0,0,.1,0,.2,0,0-.1,0-.2,0-.1,0-.2,0-.4,0,0,0,0,0,0,0,0,0,0,0,0,0,0,0,0,0-.2,0,0-.6-.1-1.8-.3-3.1,0,0-.2,0-.3,0-.1,0-.3,0-.3,0,0,0,0,0,0-.2,0-.1,0-.4,0-.5,0,0,.2,0,.4,0,.2,0,.2,0,.2,0,0,0,.1,0,.2,0,0,0,0,0,0,0,0,0,0,.1,0,.2,0,0,0,0,0,0,0,0,0,0,.1,0,0,0,.2,0,.2,0,0,0,.2,0,.2,0,0,0,0,0,.2,0,0,0,.1-.2.1-.2,0,0,0,0,0,0,0,0,0,0,0,0,.2,0,.2,0,.3,0,0,0,.2,0,.3,0,0,0,0,.2,0,.3,0,.2,0,.2,0,.3"></path>
          <path class="cls-19" d="M76.7,70.3h0s0,0,0,.1c0,0,0,0,0,.2,0,0,0,.1,0,.2,0,0-.2,0-.4,0-.1,0-.3,0-.4,0h-.1c0,0,0,0,0,0,0,0-.1,0-.3,0-.1,0-.2,0-.3,0,0,0-.1,0-.2,0,0,0,0,0,0-.1,0,0,0,0,0-.1,0-.1,0-.3,0-.5,0-.2,0-.4,0-.5,0-.2,0-.3,0-.4,0,0,0,0,.2,0,0,0,.1,0,.2,0,.1,0,.2,0,.2,0h0s0,0,0-.1c0,0,0-.1,0-.1h0s0,0,.2,0c0,0,.1-.2.2-.2,0,0,0,0,.1,0,0,0,.1.2.2.3,0,0,0,.1,0,.2-.2,0-.3,0-.5,0,0,0,0,0-.1,0,0,0,0,0-.1,0,0,0,0,.2,0,.3,0,.1,0,.2,0,.3,0,.1,0,.2,0,.3,0,0,.2,0,.5,0,.2,0,.4,0,.5,0M76.5,68s0,0-.1,0c0,0-.2,0-.4,0-.2,0-.3,0-.4,0,0,0,0,.1,0,.3,0,.3,0,.4,0,.4,0,0,0,0,0,.1,0,0,0,.1,0,.2,0,0,0,0,0,.1,0,0,0,0-.1,0,0,0,0,.1,0,0h0c0,.1,0,0,0,0,0,0,0,0-.2,0,0,0-.1,0-.2,0,0,0,0,0,0,0h0c0,0,0,0,0,0,0-.3-.1-.9,0-1.3.2,0,.3,0,.5,0,.1,0,.3,0,.5,0,.3,0,.5,0,.6,0,0,0,0,0,0,.1,0,0,0,0,0,.2,0,0,0,.2,0,.2"></path>
          <path class="cls-19" d="M78.8,70h0c0,0,0,.1,0,.2,0,.1,0,.2,0,.2,0,0,0,0,0,0,0,0,0,0,0,0,0,0,0,0,0,0,0,0,0,0,0,0,0,0,0,0,0,0,0,0-.1,0-.2,0,0,0-.2,0-.3,0,0-.5,0-.9-.2-1.3,0,0,0,0,0-.1,0,0,0-.1,0-.1h0s0,0,0,0c0,0,0,0,0,0,0,0,0,0,0,0h0c0,0-.1,0-.1.2,0,0,0,.1,0,.1,0,0,0,0,0,0,0,0,0,0,0,0,0,0,0,0,0,0,0,0,0,0,0,0,0,0,0,.2,0,.5,0,.2,0,.4,0,.6h0c0,0,0,0,0,0,0,0-.1,0-.2,0,0,0-.1,0-.2,0-.2,0-.3,0-.3,0v-1.9c0,0-.1-.2-.1-.4v-.4c0-.2,0-.3,0-.4,0,0,0,0,.2-.1,0,0,.1,0,.3,0,0,0,.1,0,.2,0h.1c0,0,0,0,.1,0,.2,0,.3,0,.3-.1,0,0,.2,0,.2,0,0,0,.2,0,.2,0,.2.1.3.3.3.5,0,0,0,.3,0,.6l-.3.3c0,0,.1.3.2.6,0,.3.2.5.3.6M78.2,67.8h0s0,0,0-.2c0,0,0-.2-.1-.2,0,0,0,0,0,0,0,.1,0,.2,0,.2-.1,0-.1,0-.2-.1,0,0,0,0,0,0h0s0,0,0,0c0,0,0,0,0,0,0,0,0,0,0,0,0,0,0,0,0,0,0,0,0,0,0,0,0,0,0,.1,0,.2,0,0,0,.1,0,.3,0,.1,0,.2,0,.3,0,0,0,0,.1,0,.1,0,.2,0,.3-.2,0,0,0-.1,0-.3,0-.1,0-.2.1-.3"></path>
          <path class="cls-19" d="M58.1,61.4h0c0,.2,0,.3,0,.4,0,0,0,0-.1,0,0,0,0,0,0,0,0,0,0,0,0,0,0,0,0,0,0,0,0,0,0,0,0,0,0,0,0,0,0,0,0,0,0,0,0,0,0,0,0,0,0,.1,0,0,0,0,0,.1,0,0,0,.1,0,.2,0,0,0,.1,0,.2,0,0,0,.2,0,.3,0,.1,0,.2,0,.4,0,0,0,0,0,0,0,0,0,0,0,0,0,0,0,0,0,0s0,0,0,0c0,.2,0,.3,0,.3,0,0,0,0,0,0,0,0-.1,0-.2,0,0,0,0,0,0,0h0c0,.1.1.2.1.3,0,0,0,0,0,0,0,0,0,0,0,0h0c0-.1,0,0,0,0,0,0,0,0,0,0,0,0,0,0,0,0,0,0,0,0-.1,0,0,0,0,0,0,0,0,0,0,0,0-.1,0,0,0,0,0,0,0,0,0-.3,0-.7,0-.3,0-.5,0-.7,0,0,0-.2,0-.2,0,0,0,0,0,0s0,0,0,0c0,0,0,0,0,0,0,0,0,0,0-.1,0,0,0-.1,0-.1,0,0,0,0,0-.1h.1s0-.1,0-.3c0,0,0,0,0-.1,0,0,0-.1,0-.1,0-.2,0-.4.2-.4,0,0,.1,0,.2,0h.1c0,0,0,.1,0,.1,0,0,0,.1,0,.2,0,.1,0,.2,0,.2,0,0,0,.2,0,.2,0,0,0,0,.1,0,0,0,0,0,.1,0,0,0,0,0,.1,0M57.7,61.7h0c0-.1,0-.1,0-.1h0Z"></path>
          <path class="cls-19" d="M59.3,61h0c0,0,0,.2,0,.2,0,0,0,.2,0,.2,0,0,0,0-.1,0,0,0,0,0-.1,0,0,.2,0,.4,0,.7,0,.4,0,.6,0,.7,0,0,0,0-.1,0,0,0,0,0,0,.1,0,0,0,0,0,0,0,0,0,0,0,0,0,0,0,0,0,0,0,0,0,0-.1.1,0,0,0,0-.1,0,0,0-.1,0-.1,0v-1.3s0,0,0,0h0c0,0,0-.4,0-.8,0-.3,0-.6,0-.8,0,0,0,0,.3,0,.1,0,.2,0,.2,0,0,0,0,.2,0,.3,0,.1,0,.3,0,.3,0,0,0,.2,0,.3.1-.1.2-.2.4-.2M59.8,61.3c0,.1,0,.2,0,.4,0,.5,0,1,0,1.6,0,0-.1,0-.2,0,0,0-.2,0-.2,0,0,0,0-.2,0-.4,0-.3,0-.4,0-.4,0-.6,0-1.1.2-1.5.2,0,.3.1.3.3"></path>
          <path class="cls-19" d="M61.4,62s0,0,0,.1c0,0,0,0,0,.1,0,0,0,0,0,.1,0,0,0,0,0,0s0,0,0,0c0,0,0,0,0,0,0,0,0,0,0,0l-.2-.3c0,0,0,.2,0,.2,0,0,0,0,0,.1-.1,0-.2,0-.2,0h0s0,0,0,0c0,0,0,.2,0,.3,0,.1,0,.2,0,.3,0,0,.1,0,.2,0,0,0,0,0,0,0,0,0,0-.1,0-.2,0,0,0-.1.1-.1,0,0,0,0,.2,0,0,0,.1,0,.1,0,0,0,0,0,0,.1,0,0,0,0,0,.1,0,0,0,0,0,0,0,0,0,0-.1.1,0,0,0,.1-.1.1,0,0,0,0-.1,0,0,0,0,0-.2,0,0,0-.1,0-.2,0,0,0,0-.1-.2-.2,0,0-.2-.1-.2-.2,0,0,0,0,0,0,0,0,0,0,0,0h0s0,0,0-.1c0,0,0,0,0,0,0,0,0,0,0,0,0,0,0,0,0,0v-.2c0,0,0-.1,0-.2,0-.2,0-.4,0-.6,0-.2.1-.3.2-.3,0,0,0,0,0,0,0,0,.2-.1.3-.1.1,0,.3,0,.5.1.1.2.2.4.2.7M60.7,61.5h0s0,0,0,0h0c0,.2,0,.2,0,.3,0,.2,0,.3,0,.3h.1c0,0,0,0,0-.2,0,0,0-.1,0-.2,0,0,0-.2,0-.2"></path>
          <polygon class="cls-24" points="62.4 66.5 62.6 66.6 63 65.4 62.9 65.4 62.4 66.6 62.5 66.6 62.4 66.5"></polygon>
          <polygon class="cls-24" points="62.6 66.4 62.6 66.4 62.4 66.5 62.5 66.6 62.7 66.5 62.6 66.5 62.6 66.4"></polygon>
          <polygon class="cls-24" points="63.7 66.4 63.8 66.3 62.6 66.4 62.6 66.5 63.8 66.5 63.9 66.4 63.7 66.4"></polygon>
          <polygon class="cls-24" points="64.3 65.3 64.2 65.2 63.7 66.4 63.9 66.4 64.3 65.2 64.3 65.1 64.3 65.3"></polygon>
          <polygon class="cls-24" points="63.2 65.3 63.1 65.3 64.3 65.3 64.3 65.1 63.1 65.2 63 65.2 63.2 65.3"></polygon>
          <polygon class="cls-24" points="63 65.4 63 65.4 63.2 65.3 63 65.2 62.9 65.3 62.9 65.4 63 65.4"></polygon>
          <polygon class="cls-24" points="64 66.5 64.1 66.5 63.9 66.3 63.8 66.5 64 66.6 64.1 66.5 64 66.5 64 66.5"></polygon>
          <polygon class="cls-24" points="64.5 65.4 64.5 65.3 64 66.5 64.1 66.5 64.6 65.3 64.6 65.3 64.5 65.4"></polygon>
          <polygon class="cls-24" points="64.3 65.2 64.2 65.3 64.5 65.4 64.6 65.3 64.3 65.1 64.2 65.2 64.3 65.2"></polygon>
          <polygon class="cls-19" points="63 65.4 62.9 65.4 63.1 65.2 64.2 65.2 64.2 65.2 64.3 65.2 64.3 65.2 64.3 65.2 64.5 65.3 64.6 65.3 64.6 65.4 65.1 66.7 64.7 67.9 64.1 66.5 64 66.6 64 66.5 64 66.5 63.8 66.4 63.8 66.5 63.8 66.4 62.6 66.4 62.5 66.6 63 65.4"></polygon>
          <polygon class="cls-24" points="64.6 67.9 64.7 67.9 64.2 66.5 64 66.6 64.6 67.9 64.7 67.9 64.6 67.9 64.6 67.9"></polygon>
          <polygon class="cls-24" points="65 66.7 65 66.7 64.6 67.9 64.7 67.9 65.2 66.7 65.2 66.7 65 66.7"></polygon>
          <polygon class="cls-24" points="64.6 65.3 64.5 65.4 65 66.7 65.2 66.7 64.6 65.3 64.5 65.3 64.6 65.3"></polygon>
          <polygon class="cls-22" points="64.6 65.7 64.6 65.8 64.7 65.9 64.7 66.1 64.6 66.2 64.5 66.4 64.4 66.5 64.3 66.6 64.2 66.7 64.1 66.8 64 66.8 63.9 66.8 63.8 66.8 63.7 66.8 63.6 66.9 63.5 66.8 63.5 66.8 63.4 66.8 63.3 66.8 63.2 66.8 63.2 66.7 63.1 66.7 63 66.6 63 66.6 62.9 66.5 62.9 66.4 62.8 66.2 62.8 66.1 62.9 65.9 63 65.8 63.1 65.7 63.2 65.5 63.3 65.4 63.4 65.4 63.5 65.4 63.6 65.4 63.7 65.3 63.8 65.3 63.9 65.3 64 65.3 64 65.3 64.1 65.4 64.2 65.4 64.3 65.4 64.3 65.4 64.4 65.5 64.5 65.5 64.5 65.6 64.6 65.7"></polygon>
          <polygon class="cls-24" points="64.6 65.9 64.7 66 64.7 66.2 64.7 66.3 64.7 66.5 64.6 66.6 64.5 66.7 64.4 66.9 64.2 67 64.1 67 64 67 64 67.1 63.9 67.1 63.8 67.1 63.7 67.1 63.6 67.1 63.5 67.1 63.4 67.1 63.4 67 63.3 67 63.2 67 63.1 66.9 63.1 66.9 63 66.8 63 66.7 62.9 66.6 62.9 66.5 62.9 66.3 62.9 66.2 63 66 63.1 65.9 63.2 65.8 63.4 65.7 63.5 65.6 63.6 65.6 63.7 65.6 63.8 65.6 63.8 65.6 63.9 65.6 64 65.6 64.1 65.6 64.2 65.6 64.3 65.6 64.3 65.6 64.4 65.7 64.5 65.7 64.5 65.8 64.6 65.8 64.6 65.9 64.6 65.9"></polygon>
          <polygon class="cls-22" points="64.7 66.1 64.7 66.2 64.8 66.3 64.8 66.5 64.7 66.6 64.6 66.8 64.5 66.9 64.4 67 64.3 67.1 64.2 67.2 64.1 67.2 64 67.2 63.9 67.2 63.8 67.2 63.7 67.3 63.6 67.2 63.6 67.2 63.5 67.2 63.4 67.2 63.3 67.2 63.3 67.1 63.2 67.1 63.1 67 63.1 67 63 66.9 63 66.8 62.9 66.6 62.9 66.5 63 66.3 63.1 66.2 63.2 66.1 63.3 65.9 63.4 65.8 63.5 65.8 63.6 65.8 63.7 65.7 63.8 65.7 63.9 65.7 64 65.7 64.1 65.7 64.1 65.7 64.2 65.7 64.3 65.8 64.4 65.8 64.4 65.8 64.5 65.9 64.6 65.9 64.6 66 64.7 66.1"></polygon>
          <polygon class="cls-24" points="64.7 66.3 64.8 66.4 64.8 66.6 64.8 66.7 64.8 66.9 64.7 67 64.6 67.1 64.5 67.3 64.3 67.4 64.2 67.4 64.1 67.4 64.1 67.5 64 67.5 63.9 67.5 63.8 67.5 63.7 67.5 63.6 67.5 63.5 67.5 63.5 67.4 63.4 67.4 63.3 67.4 63.2 67.3 63.2 67.3 63.1 67.2 63.1 67.2 63 67 63 66.9 63 66.7 63 66.6 63.1 66.4 63.2 66.3 63.3 66.2 63.5 66.1 63.6 66 63.7 66 63.8 66 63.9 66 63.9 66 64 66 64.1 66 64.2 66 64.3 66 64.4 66 64.4 66 64.5 66.1 64.6 66.1 64.6 66.2 64.7 66.2 64.7 66.3 64.7 66.3"></polygon>
          <polygon class="cls-22" points="64.8 66.5 64.9 66.6 64.9 66.7 64.9 66.9 64.9 67 64.8 67.2 64.7 67.3 64.6 67.4 64.4 67.5 64.3 67.6 64.2 67.6 64.1 67.6 64.1 67.6 64 67.6 63.9 67.6 63.8 67.6 63.7 67.6 63.6 67.6 63.5 67.6 63.5 67.6 63.4 67.5 63.3 67.5 63.3 67.4 63.2 67.4 63.2 67.3 63.1 67.2 63.1 67 63.1 66.9 63.1 66.7 63.2 66.6 63.3 66.5 63.4 66.3 63.6 66.2 63.7 66.2 63.8 66.2 63.9 66.1 63.9 66.1 64 66.1 64.1 66.1 64.2 66.1 64.3 66.1 64.4 66.1 64.5 66.2 64.5 66.2 64.6 66.2 64.7 66.3 64.7 66.3 64.8 66.4 64.8 66.5"></polygon>
          <polygon class="cls-24" points="64.9 66.7 64.9 66.8 65 67 65 67.1 64.9 67.3 64.8 67.4 64.7 67.5 64.6 67.7 64.5 67.8 64.4 67.8 64.3 67.8 64.2 67.8 64.1 67.9 64 67.9 63.9 67.9 63.8 67.9 63.8 67.9 63.7 67.9 63.6 67.8 63.5 67.8 63.5 67.8 63.4 67.7 63.3 67.7 63.3 67.6 63.2 67.5 63.2 67.4 63.1 67.3 63.1 67.1 63.2 67 63.3 66.8 63.4 66.7 63.5 66.6 63.7 66.5 63.7 66.4 63.8 66.4 63.9 66.4 64 66.4 64.1 66.4 64.2 66.3 64.3 66.4 64.3 66.4 64.4 66.4 64.5 66.4 64.6 66.4 64.6 66.5 64.7 66.5 64.8 66.6 64.8 66.6 64.9 66.7"></polygon>
          <polygon class="cls-24" points="56.9 64.8 56.9 64.8 56.4 66 56.5 66.1 57 64.9 57 64.8 56.9 64.8"></polygon>
          <polygon class="cls-24" points="56.8 64.8 56.8 64.8 56.9 64.8 57 64.8 57 64.8 57 64.7 56.8 64.8"></polygon>
          <polygon class="cls-24" points="56.8 64.7 56.8 64.8 57 64.7 57 64.7 56.8 64.7"></polygon>
          <rect class="cls-19" x="56.8" y="64.6" width=".2" height="0" transform="translate(-16 18.7) rotate(-16.4)"></rect>
          <polygon class="cls-24" points="56.8 64.6 56.8 64.6 56.8 64.7 57 64.6 56.9 64.5 56.9 64.5 56.8 64.6"></polygon>
          <polygon class="cls-24" points="56.8 64.5 56.8 64.5 56.8 64.6 56.9 64.5 56.9 64.5 56.9 64.5 56.8 64.5"></polygon>
          <polygon class="cls-24" points="56.9 64.5 56.8 64.4 56.8 64.5 56.9 64.5 56.9 64.5 56.8 64.4 56.9 64.5 56.9 64.5"></polygon>
          <rect class="cls-15" x="56.9" y="67.9" width=".2" height="0" transform="translate(-12.1 12.4) rotate(-11.2)"></rect>
          <polygon class="cls-24" points="57.4 67 57.4 66.9 56.9 68.1 57.1 68.2 57.5 67 57.5 66.9 57.4 67"></polygon>
          <polygon class="cls-24" points="57.4 66.9 57.4 67 57.5 66.9 57.5 66.9 57.4 66.9 57.4 66.9"></polygon>
          <polygon class="cls-24" points="57.4 66.8 57.4 66.9 57.5 66.9 57.5 66.8 57.4 66.8"></polygon>
          <polygon class="cls-24" points="57.3 66.7 57.3 66.7 57.4 66.8 57.5 66.8 57.5 66.7 57.5 66.7 57.3 66.7"></polygon>
          <polygon class="cls-24" points="57.5 66.7 57.3 66.6 57.3 66.7 57.5 66.7 57.5 66.6 57.3 66.6 57.5 66.7"></polygon>
          <path class="cls-15" d="M56.4,65.8h0s0,0,0,0Z"></path>
          <polygon class="cls-15" points="56.5 66 56.5 66 56.5 66 56.5 66.1 56.5 66 56.5 66"></polygon>
          <polygon class="cls-19" points="56.3 65.7 56.4 65.7 56.4 65.7 56.8 64.4 56.8 64.5 56.8 64.5 56.9 64.6 56.9 64.6 56.9 64.7 56.9 64.8 56.9 64.8 57 64.9 56.5 66.1 56.5 66 56.5 66 56.5 66 56.5 66 56.5 66.1 56.5 66.1 56.5 66.1 56.4 66.1 56.4 66 56.4 66 56.4 66 56.4 65.9 56.4 65.9 56.3 65.9 56.3 65.8 56.4 65.8 56.3 65.8 56.3 65.8 56.3 65.7"></polygon>
          <polygon class="cls-19" points="56.5 66 59.9 65.8 59.9 65.9 60 65.9 60 65.9 60 65.9 60.1 65.9 60.2 65.9 60.2 65.9 60.3 66 60.3 66 60.4 66.1 60.4 66.1 60.4 66.1 60.5 66.1 60.5 66.2 60.5 66.2 60.3 66.2 60.3 66.2 60.3 66.2 60.3 66.2 60.3 66.2 60.2 66.1 60.2 66.1 60.2 66.1 60.2 66.1 60.1 66.1 60 66 59.9 66 59.9 66 59.8 66 59.8 66 56.5 66.1 56.5 66"></polygon>
          <polygon class="cls-19" points="60.3 66.2 60.3 66.2 60.3 66.3 60.3 66.2"></polygon>
          <polygon class="cls-24" points="62.1 69.1 62.1 69 61.7 70.2 61.8 70.3 62.3 69.1 62.3 69 62.1 69.1"></polygon>
          <polygon class="cls-24" points="60.8 65.1 60.8 65 62.1 69.1 62.3 69 60.9 65 60.9 65 60.8 65.1"></polygon>
          <polygon class="cls-24" points="60.8 65 60.8 65 60.8 65.1 60.9 65 60.9 64.9 60.9 64.9 60.8 65 60.8 65"></polygon>
          <polygon class="cls-24" points="60.7 65 60.7 65 60.8 65 60.9 64.9 60.9 64.9 60.8 64.8 60.7 65"></polygon>
          <polygon class="cls-24" points="60.7 64.9 60.7 64.9 60.7 65 60.8 64.8 60.8 64.8 60.8 64.8 60.7 64.9"></polygon>
          <polygon class="cls-24" points="60.6 64.9 60.6 64.9 60.7 64.9 60.8 64.8 60.7 64.7 60.7 64.7 60.6 64.9"></polygon>
          <polygon class="cls-24" points="60.5 64.9 60.5 64.9 60.6 64.9 60.7 64.7 60.6 64.7 60.6 64.7 60.5 64.9 60.5 64.9"></polygon>
          <polygon class="cls-24" points="60.5 64.8 60.4 64.8 60.5 64.9 60.6 64.7 60.5 64.7 60.5 64.8 60.5 64.8"></polygon>
          <polygon class="cls-24" points="60.4 64.8 60.4 64.8 60.5 64.8 60.5 64.7 60.4 64.7 60.4 64.7 60.4 64.8"></polygon>
          <polygon class="cls-24" points="60.3 64.8 60.3 64.8 60.4 64.8 60.4 64.7 60.3 64.6 60.3 64.6 60.3 64.8"></polygon>
          <polygon class="cls-24" points="57 64.9 56.9 64.9 60.3 64.8 60.3 64.6 56.9 64.8 56.9 64.8 57 64.9 57 64.9"></polygon>
          <polygon class="cls-15" points="57.9 68.5 57.8 68.5 57.9 68.5 57.9 68.5"></polygon>
          <path class="cls-15" d="M59.7,69.1v.2s0-.2,0-.2Z"></path>
          <path class="cls-19" d="M56.9,68h0c0,0,0,.2,0,.2h0c0,0,.2.2.2.2h.2c0,.1.2.2.2.2h.2c0,0,0,.1,0,.1h.2c0,0,.2.2.2.2h.2c0,0,.2.2.2.2h0s.2,0,.2,0h.2c0,0,0,0,0,0h.3s.3,0,.3,0h.3s0,0,0,0h.3s.3,0,.3,0h.4s0,0,0,0l.5-1.2h0c0-.1,0,0,0,0h0s0,0,0,0h0s0,0,0,0h0s-.3,0-.3,0h-.7s-.3,0-.3,0h-.3s-.3,0-.3,0h-.2c0,0-.2-.1-.2-.1h-.2c0,0-.2-.2-.2-.2h-.2c0,0-.2-.2-.2-.2h-.2c0-.1-.2-.2-.2-.2h-.2c0-.1-.1-.2-.1-.2h0s0,0,0,0h0c0,0,0-.2,0-.2h0s0-.1,0-.1h0s0,0,0,0h0s-.5,1.2-.5,1.2h0s0,.1,0,.1h0ZM56.9,67.8h0s0,0,0,0h0Z"></path>
          <polygon class="cls-24" points="61.1 68 61.4 68 61.4 67.9 61.1 67.9 61.1 68"></polygon>
          <rect class="cls-19" x="60.7" y="67.9" width=".3" height=".2" transform="translate(-1.6 1.4) rotate(-1.3)"></rect>
          <polygon class="cls-24" points="60.4 68 60.4 68 60.7 68 60.7 67.9 60.4 67.9 60.4 67.9 60.4 68 60.4 68"></polygon>
          <polygon class="cls-24" points="60.1 68 60.1 68 60.4 68 60.4 67.9 60.1 67.9 60.2 67.9 60.1 68"></polygon>
          <polygon class="cls-24" points="59.9 68 60.1 68 60.2 67.9 59.9 67.8 59.9 68"></polygon>
          <polygon class="cls-24" points="59.6 67.9 59.6 67.9 59.9 68 59.9 67.8 59.6 67.8 59.6 67.8 59.6 67.9"></polygon>
          <polygon class="cls-24" points="59.4 67.9 59.6 67.9 59.6 67.8 59.4 67.7 59.3 67.9 59.4 67.9"></polygon>
          <polygon class="cls-24" points="59.1 67.8 59.1 67.8 59.3 67.9 59.4 67.7 59.1 67.7 59.2 67.7 59.1 67.8"></polygon>
          <polygon class="cls-24" points="58.9 67.7 58.9 67.7 59.1 67.8 59.2 67.7 58.9 67.6 58.9 67.6 58.9 67.7 58.9 67.7"></polygon>
          <polygon class="cls-24" points="58.7 67.6 58.9 67.7 58.9 67.6 58.7 67.5 58.7 67.6"></polygon>
          <polygon class="cls-24" points="58.5 67.6 58.7 67.6 58.7 67.5 58.5 67.4 58.5 67.6"></polygon>
          <polygon class="cls-24" points="58.2 67.5 58.2 67.5 58.5 67.6 58.5 67.4 58.3 67.3 58.3 67.3 58.2 67.5 58.2 67.5"></polygon>
          <polygon class="cls-24" points="58 67.4 58.2 67.5 58.3 67.3 58.1 67.2 58 67.4 58 67.4"></polygon>
          <polygon class="cls-24" points="57.8 67.2 58 67.4 58.1 67.2 57.9 67.1 57.8 67.2 57.8 67.2"></polygon>
          <polygon class="cls-24" points="57.6 67.1 57.8 67.2 57.9 67.1 57.7 67 57.6 67.1"></polygon>
          <polygon class="cls-24" points="57.5 67 57.4 67 57.6 67.1 57.7 67 57.5 66.9 57.4 66.9 57.5 67"></polygon>
          <polygon class="cls-24" points="78.6 64.8 78.1 66 79.6 66.5 80 65.7 80 65.6 80 65.6 80 65.5 79.9 65.4 79.9 65.3 79.9 65.2 79.8 65.2 79.7 65.1 79.7 65 79.6 65 79.5 64.9 79.4 64.9 79.4 64.8 79.3 64.8 79.2 64.7 79.1 64.7 79.1 64.7 79 64.7 78.9 64.7 78.8 64.7 78.8 64.7 78.7 64.7 78.6 64.8 78.6 64.8"></polygon>
          <polygon class="cls-24" points="79.6 66.5 79.7 66.4 78.1 65.9 78.1 66.1 79.6 66.6 79.7 66.6 79.6 66.5"></polygon>
          <polygon class="cls-19" points="56.3 65.7 56.3 65.6 56.8 64.4 56.9 64.5 56.5 65.7 56.5 65.7 56.5 65.7 56.3 65.7 56.3 65.7 56.3 65.7"></polygon>
          <polygon class="cls-15" points="63.7 68.5 63.7 68.5 63.7 68.5 63.7 68.5"></polygon>
          <path class="cls-19" d="M56.4,65.9h0c0,0,0,0,0,0h.1s0,0,0,0h3.4c0-.1,0-.1,0-.1h0s0,0,0,0h0s0,0,0,0h0s0,.1,0,.1h0c0,0,0,0,0,0l1.3,4h0s0,0,0,0h.2s.1,0,.1,0h0s0,0,0,0h0s0-.1,0-.1h.1c0-.1,0-.1,0-.1h0c0,0,0-.2,0-.2h0c0,0,0-.2,0-.2h0c0-.1,0-.2,0-.2h0c0-.1,0-.2,0-.2h0c0,0,0-.2,0-.2h0c0,0,0-.2,0-.2h0c0,0,0-.1,0-.1h0c0,0,0-.1,0-.1h0s0,0,0,0h0c0,0,0,0,0,0h0c0,0,0-.1,0-.1h0c0,0,0-.1,0-.1h0s0,0,0,0h0s0,0,0,0h0s0,0,0,0h.1s.1,0,.1,0h.1s.1,0,.1,0h.1s0,0,0,0l14.6-1.1h0s0,0,0,0h0s0,0,0,0h0s0,0,0,0h0c0,0,0-.1,0-.1h0s.3-.6.3-.6h-.1c0,0,0,0,0,0h0s0,0,0,0h0c0,.1,0,.2,0,.2h0s0,0,0,0h0s0,0,0,0h0s-14.6,1.1-14.6,1.1h0s0,0,0,0h0s0,0,0,0h-.2s0,0,0,0h0s0,0,0,0h0s0,0,0,0h0s0,0,0,0h0s0,0,0,0h0s-.2.1-.2.1l-.2.2-.2.2-.2.2-.2.2v.2c-.1,0-.3.2-.3.2h-.1c0,.1,0,.2,0,.2h0s0,0,0,0h-.2s0,0,0,0h0s-1.3-4-1.3-4h0c0,0,0-.1,0-.1h0s0,0,0,0h0s0,0,0,0h0s0,0,0,0h-3.4c0,.1-.4,1.2-.4,1.2h0s-.2,0-.2,0ZM80.6,66h0s0,0,0,0h0Z"></path>
          <polygon class="cls-24" points="80.1 66.3 80.2 66.3 80.3 66.3 80.3 66.3 80.4 66.2 80.5 66.2 80.6 66.2 80.6 66.1 80.7 66.1 80.6 66 80.5 66 80.5 66.1 80.4 66.1 80.4 66.1 80.3 66.1 80.2 66.1 80.2 66.2 80.1 66.2 80.1 66.3"></polygon>
          <polygon class="cls-24" points="65.5 67.4 80.1 66.3 80.1 66.2 65.5 67.2 65.5 67.4"></polygon>
          <polygon class="cls-24" points="64.1 67.7 64.2 67.6 64.3 67.6 64.4 67.6 64.5 67.5 64.5 67.5 64.6 67.5 64.7 67.5 64.8 67.5 64.9 67.5 65 67.4 65.1 67.4 65.2 67.4 65.3 67.4 65.3 67.4 65.4 67.4 65.5 67.4 65.5 67.2 65.4 67.2 65.3 67.3 65.2 67.3 65.1 67.3 65.1 67.3 65 67.3 64.9 67.3 64.8 67.3 64.7 67.3 64.6 67.3 64.5 67.4 64.4 67.4 64.3 67.4 64.2 67.4 64.1 67.5 64 67.5 64.1 67.7"></polygon>
          <polygon class="cls-24" points="62.8 69.1 62.8 69.1 62.9 69 63 68.9 63 68.8 63.1 68.7 63.2 68.6 63.3 68.5 63.3 68.4 63.4 68.3 63.5 68.2 63.6 68.1 63.7 68 63.8 67.9 63.9 67.8 64 67.8 64 67.7 64.1 67.7 64 67.5 63.9 67.6 63.9 67.6 63.8 67.7 63.7 67.8 63.6 67.9 63.5 68 63.4 68.1 63.3 68.2 63.2 68.3 63.1 68.4 63.1 68.5 63 68.6 62.9 68.7 62.8 68.8 62.8 68.9 62.7 69 62.8 68.9 62.8 69.1"></polygon>
          <polygon class="cls-22" points="60 64.7 60.3 64.7 60.3 64.7 57.7 63.9 57.6 63.9 60 64.7 60 64.7"></polygon>
          <polygon class="cls-22" points="60 64.7 56.9 64.8 56.9 64.8 56.9 64.7 56.9 64.6 56.9 64.6 56.8 64.5 56.8 64.5 56.9 64.4 56.9 64.4 57 64.3 57.2 64.2 57.3 64.1 57.5 64 57.6 63.9 57.6 63.9 60 64.7 60 64.7"></polygon>
          <polygon class="cls-23" points="58.1 66.6 60.2 66.5 61.1 66.8 61.3 67.7 61.4 67.9 61.1 68 60.7 68 60.4 68 60.1 67.9 59.9 67.9 59.6 67.9 59.4 67.8 59.1 67.7 58.9 67.7 58.7 67.6 58.5 67.5 58.3 67.4 58.1 67.3 57.9 67.2 57.7 67.1 57.5 67 57.5 66.9 57.4 66.8 57.4 66.7 57.4 66.6 58.1 66.6"></polygon>
          <polygon class="cls-22" points="63.4 66.8 63.4 66.9 63.7 67 63.8 66.9 63.5 66.7 63.6 66.8 63.4 66.8 63.4 66.8 63.4 66.9 63.4 66.8"></polygon>
          <polygon class="cls-22" points="61 66.9 61 66.8 61.4 68 61.5 67.9 61.1 66.8 61.1 66.7 61.1 66.8 61.1 66.7 61.1 66.7 61 66.9"></polygon>
          <polygon class="cls-22" points="60.2 66.5 60.2 66.5 61 66.9 61.1 66.7 60.3 66.4 60.2 66.4 60.3 66.4 60.3 66.4 60.2 66.4 60.2 66.5"></polygon>
          <polygon class="cls-22" points="57.5 66.6 57.4 66.7 60.2 66.5 60.2 66.4 57.4 66.6 57.3 66.6 57.4 66.6 57.3 66.6 57.3 66.6 57.5 66.6"></polygon>
          <polygon class="cls-22" points="57.5 66.9 57.5 66.9 57.5 66.9 57.5 66.9 57.5 66.8 57.5 66.8 57.5 66.7 57.5 66.7 57.5 66.7 57.5 66.6 57.3 66.6 57.3 66.7 57.3 66.7 57.3 66.8 57.4 66.8 57.4 66.8 57.4 66.9 57.4 66.9 57.4 67 57.4 67 57.4 67 57.4 67 57.4 67 57.5 66.9"></polygon>
          <polygon class="cls-22" points="61.4 68 61.4 67.9 61.1 67.9 60.7 67.9 60.4 67.9 60.1 67.9 59.9 67.8 59.6 67.8 59.4 67.7 59.2 67.7 58.9 67.6 58.7 67.5 58.5 67.4 58.3 67.3 58.1 67.2 57.9 67.1 57.7 67 57.5 66.9 57.4 67 57.6 67.1 57.8 67.2 58 67.4 58.2 67.5 58.5 67.6 58.7 67.6 58.9 67.7 59.1 67.8 59.3 67.9 59.6 67.9 59.9 68 60.1 68 60.4 68 60.7 68 61.1 68 61.4 68 61.5 67.9 61.4 68 61.5 68 61.5 67.9 61.4 68 61.4 68"></polygon>
          <polygon class="cls-22" points="65.5 67.2 65.4 67.2 65.3 67.3 65.2 67.3 65.1 67.3 65 67.3 64.8 67.3 64.7 67.3 64.6 67.4 64.5 67.4 64.4 67.4 64.3 67.5 64.2 67.5 64.1 67.5 64 67.6 63.9 67.6 63.8 67.7 63.9 67.8 64 67.8 64.1 67.7 64.2 67.7 64.2 67.6 64.3 67.6 64.4 67.6 64.5 67.5 64.6 67.5 64.8 67.5 64.8 67.5 65 67.5 65.1 67.4 65.2 67.4 65.3 67.4 65.4 67.4 65.5 67.4 65.5 67.2"></polygon>
          <polygon class="cls-22" points="80.1 66.2 65.5 67.2 65.5 67.4 80.1 66.3 80.1 66.2"></polygon>
          <polygon class="cls-22" points="80.4 65.3 80.4 65.4 80.5 65.4 80.5 65.5 80.6 65.6 80.6 65.7 80.6 65.7 80.6 65.8 80.6 65.9 80.6 65.9 80.6 66 80.5 66 80.5 66.1 80.4 66.1 80.3 66.1 80.2 66.2 80.1 66.2 80.1 66.3 80.2 66.3 80.4 66.3 80.5 66.2 80.6 66.2 80.6 66.1 80.7 66.1 80.7 66 80.8 65.9 80.8 65.8 80.8 65.7 80.7 65.6 80.7 65.5 80.7 65.5 80.6 65.4 80.6 65.3 80.5 65.2 80.4 65.3"></polygon>
          <polygon class="cls-22" points="78.6 64.5 78.8 64.4 78.9 64.5 79 64.5 79.2 64.5 79.3 64.5 79.4 64.6 79.5 64.6 79.6 64.7 79.8 64.8 79.9 64.8 80 64.9 80.1 65 80.1 65 80.2 65.1 80.3 65.2 80.4 65.3 80.5 65.2 80.4 65.1 80.3 65 80.3 64.9 80.2 64.8 80.1 64.8 80 64.7 79.8 64.6 79.7 64.6 79.6 64.5 79.5 64.4 79.3 64.4 79.2 64.4 79.1 64.3 78.9 64.3 78.8 64.3 78.6 64.3 78.6 64.5"></polygon>
          <polygon class="cls-22" points="65.7 64.9 78.6 64.5 78.6 64.3 65.7 64.7 65.7 64.9"></polygon>
          <polygon class="cls-22" points="63.7 64.6 63.8 64.6 63.9 64.6 64.1 64.7 64.2 64.7 64.3 64.7 64.5 64.8 64.6 64.8 64.7 64.8 64.8 64.8 65 64.9 65.1 64.9 65.2 64.9 65.4 64.9 65.5 64.9 65.6 64.9 65.7 64.9 65.7 64.7 65.6 64.7 65.5 64.7 65.4 64.7 65.3 64.7 65.1 64.7 65 64.7 64.9 64.7 64.7 64.7 64.6 64.6 64.5 64.6 64.4 64.6 64.2 64.6 64.1 64.5 64 64.5 63.9 64.5 63.7 64.4 63.7 64.6 63.7 64.6"></polygon>
          <polygon class="cls-22" points="59.3 63.4 59.6 63.4 59.8 63.3 60 63.3 60.2 63.3 60.3 63.3 60.5 63.3 60.6 63.3 60.8 63.3 60.9 63.4 61 63.4 61.2 63.4 61.3 63.4 61.4 63.5 61.5 63.5 61.6 63.6 61.7 63.6 61.8 63.7 61.9 63.7 62 63.8 62.1 63.8 62.2 63.9 62.3 64 62.4 64 62.5 64.1 62.7 64.1 62.8 64.2 62.9 64.3 63 64.3 63.2 64.4 63.3 64.4 63.5 64.5 63.7 64.6 63.7 64.4 63.6 64.4 63.4 64.3 63.3 64.2 63.1 64.2 63 64.1 62.8 64.1 62.7 64 62.6 63.9 62.5 63.9 62.4 63.8 62.3 63.8 62.2 63.7 62.1 63.6 62 63.6 61.9 63.5 61.8 63.5 61.7 63.4 61.5 63.4 61.4 63.3 61.3 63.3 61.2 63.3 61.1 63.2 60.9 63.2 60.8 63.2 60.6 63.2 60.5 63.2 60.3 63.2 60.1 63.2 60 63.2 59.8 63.2 59.5 63.2 59.3 63.2 59.3 63.4 59.3 63.4"></polygon>
          <polygon class="cls-22" points="57 64.4 57.1 64.3 57.2 64.3 57.4 64.2 57.5 64.1 57.6 64 57.8 63.9 57.9 63.9 58.1 63.8 58.2 63.7 58.4 63.7 58.5 63.6 58.7 63.5 58.9 63.5 59 63.5 59.2 63.4 59.3 63.4 59.3 63.2 59.1 63.3 59 63.3 58.8 63.3 58.6 63.4 58.5 63.5 58.3 63.5 58.2 63.6 58 63.6 57.9 63.7 57.7 63.8 57.6 63.9 57.4 64 57.3 64 57.1 64.1 57 64.2 56.9 64.3 57 64.4 57 64.4"></polygon>
          <polygon class="cls-22" points="56.9 64.8 57 64.8 57 64.8 57 64.7 57 64.6 56.9 64.5 56.9 64.5 56.9 64.5 56.9 64.4 57 64.4 56.9 64.3 56.8 64.4 56.8 64.4 56.8 64.5 56.8 64.6 56.8 64.7 56.8 64.7 56.8 64.8 56.9 64.8 56.9 64.9 56.9 64.8 56.9 64.9 56.9 64.9 56.9 64.8"></polygon>
          <polygon class="cls-23" points="62.9 65.3 62.9 65.3 62.9 65.3 62.9 65.3"></polygon>
          <polygon class="cls-23" points="62.9 65.4 62.9 65.3 62.9 65.4 62.9 65.4"></polygon>
          <polygon class="cls-23" points="65 66.3 67.7 67.2 67.4 67.2 67.4 67.2 65.1 66.4 65 66.3"></polygon>
          <path class="cls-23" d="M56.9,64.9h3.4c0-.1,0-.1,0-.1h0s0,0,0,0h0s0,0,0,0h0s0,0,0,0h0s1.3,4,1.3,4h0c0,0,0,0,0,0h0s0,0,0,0h0s0,0,0,0h0s0,0,0,0h0s0,0,0,0h0c0,0,0-.2,0-.2h0c0,0,0-.2,0-.2h0c0,0,0-.1,0-.1h0c0,0,0-.1,0-.1h0c0,0,0-.1,0-.1h0c0,0,0-.1,0-.1h0c0,0,0-.1,0-.1h0c0,0,0-.2,0-.2h0c0,0,0-.1,0-.1h0c0,0,0,0,0,0h0s0,0,0,0h.1s.1,0,.1,0h.1s.1,0,.1,0h.1s.1,0,.1,0h.1s.1,0,.1,0h.1s.1,0,.1,0h.1s1.9-.1,1.9-.1l-2.3-.8h0c0-.1,2.7.7,2.7.7l12.4-.9h.2s.2-.1.2-.1h.1c0-.1,0-.2,0-.2h0c0-.1,0-.2,0-.2v-.2s-.1-.2-.1-.2v-.2c-.1,0-.2,0-.2,0h0c0,0,0-.2,0-.2h0c0,0,0-.1,0-.1h-.1c0,0-.1-.1-.1-.1h-.1c0,0-.1-.1-.1-.1h-.1c0,0-.1,0-.1,0h-.1s-.1,0-.1,0h-.1s-.1,0-.1,0h-.1s-1.9,0-1.9,0l-11,.4h-.2s-.1,0-.1,0h-.1s-.1,0-.1,0h-.1s-.1,0-.1,0h-.1s-.1,0-.1,0h-.1s-.1,0-.1,0h-.1s-.1,0-.1,0h-.1s-.1,0-.1,0h-.1s-.2-.1-.2-.1h-.2c0,0-.1-.1-.1-.1h-.2c0,0-.1-.1-.1-.1h-.1c0,0-.1-.1-.1-.1h-.1c0,0-.1-.1-.1-.1h-.1c0,0-.1-.1-.1-.1h-.1c0,0-.1-.1-.1-.1h-.1c0,0,0-.1,0-.1h-.1c0,0-.1-.1-.1-.1h-.1s-.1,0-.1,0h-.1s-.1,0-.1,0h-.1s-.1,0-.1,0h-.1s-.1,0-.1,0h-.2s-.2,0-.2,0h-.2s-.2,0-.2,0h-.2s-.2,0-.2,0h-.2s-.2,0-.2,0h-.2s-.2,0-.2,0h-.2c0,0-.2.1-.2.1h-.2c0,0-.1.1-.1.1h-.2c0,0-.1.1-.1.1h-.1c0,0,2.4.9,2.4.9h-3.2c0,.1,0,.3,0,.3ZM78.5,65h0c0,0,0-.2,0-.2h0c0,0,0,0,0,0h.1s0,0,0,0h0s0,0,0,0h0s0,0,0,0h0s0,0,0,0h0s0,0,0,0h0s0,0,0,0h0c0,0,0,.1,0,.1h0c0,0,0,.1,0,.1h0c0,0,0,.2,0,.2h0c0,.1,0,.2,0,.2h0s0,.1,0,.1h0c0,0,0,.1,0,.1h0s-.1,0-.1,0h0s0,0,0,0h0s0,0,0,0h0s0,0,0,0h0s0,0,0,0h0s0,0,0,0h0s0,0,0,0h0s0-.1,0-.1h0c0,0,0-.1,0-.1h0c0-.1,0-.2,0-.2h0s0,0,0,0ZM65.1,66.7h0s0,0,0,0ZM63,65.4h0c0,0,1.1-.1,1.1-.1h.2c0,.1.6,1.4.6,1.4h0c0,.1-1.2.2-1.2.2h0s0,0,0,0h0l-.3-.2h0s0,0,0,0l-.5-1.4Z"></path>
          <polygon class="cls-24" points="77.8 65.8 77.7 65.8 77.7 65.7 77.8 65.7 77.8 65.7 77.8 65.7 77.8 65.8"></polygon>
          <polygon class="cls-24" points="77.9 65.7 77.9 65.8 77.9 65.8 77.9 65.8 77.8 65.8 77.8 65.8 77.8 65.7 77.8 65.7 77.8 65.7 77.8 65.7 77.8 65.7 77.8 65.7 77.9 65.7 77.9 65.7"></polygon>
          <polygon class="cls-24" points="77.6 65.1 77.7 65.1 77.7 65.2 77.8 65.2 77.8 65.3 77.9 65.4 77.9 65.5 77.9 65.6 77.9 65.7 77.9 65.7 77.8 65.7 77.8 65.6 77.8 65.6 77.8 65.5 77.8 65.4 77.7 65.4 77.7 65.3 77.6 65.3 77.6 65.2 77.6 65.2 77.6 65.1"></polygon>
          <polygon class="cls-24" points="76.8 64.9 76.7 64.9 76.9 64.9 77 64.9 77.1 64.9 77.2 64.9 77.3 64.9 77.4 65 77.5 65 77.6 65.1 77.6 65.2 77.5 65.1 77.4 65.1 77.3 65 77.2 65 77.1 65 77 65 76.9 65 76.8 65 76.8 65 76.7 64.9 76.8 64.9"></polygon>
          <polygon class="cls-24" points="67.3 65.4 67.3 65.3 76.7 64.9 76.8 65 67.3 65.4 67.4 65.4 67.3 65.4"></polygon>
          <polygon class="cls-24" points="67.1 65.7 67 65.7 67 65.6 67 65.5 67 65.5 67 65.4 67.1 65.4 67.2 65.4 67.2 65.3 67.3 65.3 67.3 65.4 67.3 65.5 67.2 65.5 67.2 65.5 67.1 65.5 67.1 65.5 67.1 65.6 67.1 65.6 67.1 65.7 67 65.6 67.1 65.7"></polygon>
          <polygon class="cls-19" points="77.7 65.7 77.7 65.6 77.7 65.6 77.6 65.5 77.6 65.5 77.6 65.4 77.5 65.4 77.5 65.4 77.4 65.3 77.3 65.2 77.2 65.2 77.1 65.2 77 65.2 76.9 65.1 76.8 65.1 76.6 65.1 67.2 65.6 67.3 65.4 67.3 65.4 67.3 65.4 76.8 65 76.9 65 77 65 77.2 65 77.3 65 77.4 65.1 77.5 65.1 77.6 65.2 77.7 65.3 77.8 65.4 77.8 65.5 77.9 65.6 77.9 65.6 77.8 65.7 77.8 65.7 77.8 65.7 77.8 65.7 77.7 65.7"></polygon>
          <path class="cls-19" d="M67,65.7h0c0,0,0,.2,0,.2h0c0,0,0,.2,0,.2h0c0,0,.1.2.1.2h.1c0,0,.1.1.1.1h.1s.2,0,.2,0l9.7-.5h.2s.1,0,.1,0h0c0,0,0-.2,0-.2h0c0,0,0-.2,0-.2h0c0-.1,0-.2,0-.2h0c0-.1-.1-.2-.1-.2h-.1c0,0-.1-.1-.1-.1h-.1s-.1,0-.1,0h-.3s-9.4.5-9.4.5h0s-.1,0-.1,0h-.1s0,0,0,0h0c0,0,0,.1,0,.1h0ZM67.1,65.7h0c0,0,0,0,0,0h0s0,0,0,0h0s0-.2,0-.2h0s0,0,0,0l9.4-.5h.2s.1,0,.1,0h.1s.1,0,.1,0h.1s0,.1,0,.1h0c0,0,0,.2,0,.2h0c0,.1,0,.2,0,.2h0c0,.1,0,.2,0,.2h0s0,0,0,0h-.1s-.2,0-.2,0l-9.7.5h0s-.1,0-.1,0h-.1s-.1,0-.1,0h-.1c0,0,0-.1,0-.1h0c0,0,0-.2,0-.2h0c0,0,0-.1,0-.1h0Z"></path>
        </g>
      </g>
      <g>
        <g>
          
          
        </g>
        <path class="cls-16" d="M56.9,187.8c0,.4-.2.8-.5,1.1h0c0,0-3,3.3-3,3.3-.6.7-1.2,1.2-1.6,1.6-.5.4-.8.5-1,.5s-.4,0-.7-.3c-.3-.2-.5-.4-.6-.6,0-.2-.1-.5-.2-1,0-.5,0-1.1,0-1.7s.1-.7.4-.9c.3-.3.6-.4.9-.4s.5.3.6.9c0,0,0,.1,0,.2,0,.5.1.8.2,1,0,.2.2.3.3.3s.1,0,.3-.2c.1-.1.3-.3.5-.4l3.1-3.1c.3-.3.5-.5.7-.6.2-.1.4-.2.5-.2s.2,0,.2.1c0,0,0,.2,0,.4v.2Z"></path>
        <line class="cls-10" x1="51.8" y1="196.4" x2="234" y2="196.4"></line>
      </g>
      <g>
        <path class="cls-17" d="M61.8,351.3v-3.6h-1.3v-.7h3.4v.7h-1.3v3.6h-.9Z"></path>
        <path class="cls-17" d="M65.3,347v1.6c.3-.3.6-.5,1-.5s.4,0,.5.1.3.2.3.3.1.2.2.4,0,.3,0,.6v1.8h-.8v-1.6c0-.3,0-.5,0-.6s0-.2-.2-.2-.2,0-.3,0-.3,0-.4,0-.2.2-.2.3c0,.1,0,.3,0,.6v1.6h-.8v-4.3h.8Z"></path>
        <path class="cls-17" d="M68.2,347.8v-.8h.8v.8h-.8ZM68.2,351.3v-3.1h.8v3.1h-.8Z"></path>
        <path class="cls-17" d="M69.6,350.4h.8s.1.2.2.2.3.1.5.1.4,0,.5-.1c0,0,.1-.1.1-.2s0-.1,0-.2c0,0-.1,0-.3-.1-.7-.1-1.1-.3-1.3-.4-.2-.2-.4-.4-.4-.7s.1-.5.3-.7c.2-.2.5-.3,1-.3s.7,0,.9.2.3.3.4.6h-.8s0,0-.2-.1-.2,0-.4,0-.4,0-.5,0c0,0,0,0,0,.2s0,.1,0,.1c0,0,.3.1.8.2s.7.2.9.4c.2.1.3.4.3.6s-.1.5-.4.7-.6.3-1.1.3-.8,0-1-.3-.4-.4-.5-.7Z"></path>
        <path class="cls-17" d="M74.6,350.4h.8s.1.2.2.2.3.1.5.1.4,0,.5-.1c0,0,.1-.1.1-.2s0-.1,0-.2c0,0-.1,0-.3-.1-.7-.1-1.1-.3-1.3-.4-.2-.2-.4-.4-.4-.7s.1-.5.3-.7c.2-.2.5-.3,1-.3s.7,0,.9.2.3.3.4.6h-.8s0,0-.2-.1-.2,0-.4,0-.4,0-.5,0c0,0,0,0,0,.2s0,.1,0,.1c0,0,.3.1.8.2s.7.2.9.4c.2.1.3.4.3.6s-.1.5-.4.7-.6.3-1.1.3-.8,0-1-.3-.4-.4-.5-.7Z"></path>
        <path class="cls-17" d="M78.2,347.8v-.8h.8v.8h-.8ZM78.2,351.3v-3.1h.8v3.1h-.8Z"></path>
        <path class="cls-17" d="M82.7,351.3h-.8v-.5c-.1.2-.3.3-.4.4s-.3.1-.5.1c-.4,0-.7-.1-.9-.4s-.4-.7-.4-1.2.1-.9.4-1.2c.2-.3.6-.4.9-.4s.6.1.9.4v-1.5h.8v4.3ZM80.5,349.7c0,.3,0,.6.1.7.1.2.3.3.6.3s.3,0,.5-.2.2-.4.2-.7,0-.6-.2-.8-.3-.2-.5-.2-.4,0-.5.2c-.1.2-.2.4-.2.7Z"></path>
        <path class="cls-17" d="M85.3,350.3h.8c-.1.4-.3.7-.5.8-.2.2-.5.2-.9.2-.5,0-.9-.2-1.2-.5-.2-.3-.3-.6-.3-1.1s.1-.9.4-1.2c.3-.3.6-.4,1-.4s.8.2,1.1.5.4.8.4,1.4h-2.1c0,.2,0,.4.2.6s.3.2.5.2.2,0,.3-.1c0,0,.2-.2.2-.3ZM85.4,349.5c0-.2,0-.4-.2-.5s-.3-.2-.4-.2-.3,0-.4.2-.2.3-.2.5h1.2Z"></path>
        <path class="cls-17" d="M88.5,347.8v-.8h.8v.8h-.8ZM88.5,351.3v-3.1h.8v3.1h-.8Z"></path>
        <path class="cls-17" d="M89.9,350.4h.8s.1.2.2.2.3.1.5.1.4,0,.5-.1c0,0,.1-.1.1-.2s0-.1,0-.2c0,0-.1,0-.3-.1-.7-.1-1.1-.3-1.3-.4-.2-.2-.4-.4-.4-.7s.1-.5.3-.7c.2-.2.5-.3,1-.3s.7,0,.9.2.3.3.4.6h-.8s0,0-.2-.1-.2,0-.4,0-.4,0-.5,0c0,0,0,0,0,.2s0,.1,0,.1c0,0,.3.1.8.2s.7.2.9.4c.2.1.3.4.3.6s-.1.5-.4.7-.6.3-1.1.3-.8,0-1-.3-.4-.4-.5-.7Z"></path>
        <path class="cls-17" d="M96.6,348.2v.7h-.6v1.3c0,.3,0,.4,0,.4s0,0,0,.1,0,0,.1,0,.2,0,.3,0v.6c-.1,0-.3.1-.6.1s-.3,0-.4,0-.2-.1-.3-.2,0-.2-.1-.3c0,0,0-.3,0-.6v-1.4h-.4v-.7h.4v-.6l.8-.5v1.1h.6Z"></path>
        <path class="cls-17" d="M98,347v1.6c.3-.3.6-.5,1-.5s.4,0,.5.1.3.2.3.3.1.2.2.4,0,.3,0,.6v1.8h-.8v-1.6c0-.3,0-.5,0-.6s0-.2-.2-.2-.2,0-.3,0-.3,0-.4,0-.2.2-.2.3c0,.1,0,.3,0,.6v1.6h-.8v-4.3h.8Z"></path>
        <path class="cls-17" d="M102.6,350.3h.8c-.1.4-.3.7-.5.8-.2.2-.5.2-.9.2-.5,0-.9-.2-1.2-.5-.2-.3-.3-.6-.3-1.1s.1-.9.4-1.2c.3-.3.6-.4,1-.4s.8.2,1.1.5.4.8.4,1.4h-2.1c0,.2,0,.4.2.6s.3.2.5.2.2,0,.3-.1c0,0,.2-.2.2-.3ZM102.7,349.5c0-.2,0-.4-.2-.5s-.3-.2-.4-.2-.3,0-.4.2-.2.3-.2.5h1.2Z"></path>
        <path class="cls-17" d="M105.8,351.3v-4.3h.9v4.3h-.9Z"></path>
        <path class="cls-17" d="M107.5,351.3v-4.3h.8l1.8,2.9v-2.9h.8v4.3h-.9l-1.7-2.8v2.8h-.8Z"></path>
        <path class="cls-17" d="M111.8,351.3v-4.3h.8l1.8,2.9v-2.9h.8v4.3h-.9l-1.7-2.8v2.8h-.8Z"></path>
        <path class="cls-17" d="M116.2,351.3v-4.3h3.2v.7h-2.3v1h2.2v.7h-2.2v1.2h2.4v.7h-3.3Z"></path>
        <path class="cls-17" d="M120.2,351.3v-4.3h1.8c.5,0,.8,0,1,.1s.4.2.5.4.2.4.2.7,0,.6-.3.8-.5.3-.8.4c.2.1.3.2.5.4s.3.4.5.7l.5.8h-1l-.6-.9c-.2-.3-.4-.5-.5-.6s-.2-.1-.3-.2c0,0-.2,0-.4,0h-.2v1.8h-.9ZM121,348.8h.6c.4,0,.7,0,.8,0s.2,0,.2-.2,0-.2,0-.3,0-.3-.1-.4-.2-.1-.3-.2c0,0-.3,0-.6,0h-.7v1.1Z"></path>
        <path class="cls-17" d="M126.2,351.3v-4.3h2.9v.7h-2.1v1h1.8v.7h-1.8v1.8h-.9Z"></path>
        <path class="cls-17" d="M133.4,351.3h-.9l-.4-1h-1.7l-.4,1h-.9l1.7-4.3h.9l1.7,4.3ZM131.8,349.6l-.6-1.6-.6,1.6h1.2Z"></path>
        <path class="cls-17" d="M136.6,349.7l.8.3c-.1.5-.3.8-.6,1s-.7.3-1.1.3-1-.2-1.4-.6c-.4-.4-.5-.9-.5-1.6s.2-1.3.6-1.7c.4-.4.9-.6,1.5-.6s1,.2,1.3.5c.2.2.3.4.4.8l-.9.2c0-.2-.2-.4-.3-.5s-.4-.2-.6-.2-.6.1-.8.3c-.2.2-.3.6-.3,1.1s0,.9.3,1.2.4.3.8.3.4,0,.6-.2.3-.4.4-.7Z"></path>
        <path class="cls-17" d="M138.2,351.3v-4.3h3.2v.7h-2.3v1h2.2v.7h-2.2v1.2h2.4v.7h-3.3Z"></path>
        <path class="cls-17" d="M143.8,348.2h.8v.5c0-.2.2-.3.4-.4s.4-.1.6-.1c.4,0,.7.1.9.4.3.3.4.7.4,1.2s-.1.9-.4,1.2c-.3.3-.6.4-.9.4s-.3,0-.5-.1-.3-.2-.4-.4v1.6h-.8v-4.3ZM144.6,349.7c0,.3,0,.6.2.8s.3.3.5.3.3,0,.5-.2.2-.4.2-.8,0-.6-.2-.7-.3-.2-.5-.2-.4,0-.5.2-.2.4-.2.7Z"></path>
        <path class="cls-17" d="M148.1,349.1h-.7c0-.4.2-.7.4-.8.2-.1.5-.2.9-.2s.6,0,.8.1.3.2.4.3.1.4.1.7v1c0,.3,0,.5,0,.6s0,.3.1.4h-.8c0,0,0-.1,0-.2,0,0,0,0,0,0-.1.1-.3.2-.5.3-.2,0-.3.1-.5.1-.3,0-.6,0-.8-.3s-.3-.4-.3-.7,0-.3.1-.5.2-.2.4-.3.4-.1.7-.2c.4,0,.7-.1.8-.2h0c0-.2,0-.4-.1-.4s-.2-.1-.4-.1-.3,0-.3,0-.1.2-.2.3ZM149.2,349.8c-.1,0-.3,0-.5.1s-.4,0-.4.1c-.1,0-.2.2-.2.3s0,.2.1.3.2.1.3.1.3,0,.4-.1c0,0,.2-.2.2-.3,0,0,0-.2,0-.4v-.2Z"></path>
        <path class="cls-17" d="M153.6,351.3h-.8v-1.6c0-.3,0-.6,0-.7s0-.2-.2-.2-.2,0-.3,0-.3,0-.4.1-.2.2-.2.3,0,.4,0,.7v1.4h-.8v-3.1h.8v.5c.3-.4.6-.5,1-.5s.3,0,.5,0,.3.1.3.3.1.2.2.3,0,.3,0,.6v1.9Z"></path>
        <path class="cls-17" d="M156.3,350.3h.8c-.1.4-.3.7-.5.8-.2.2-.5.2-.9.2-.5,0-.9-.2-1.2-.5-.2-.3-.3-.6-.3-1.1s.1-.9.4-1.2c.3-.3.6-.4,1-.4s.8.2,1.1.5.4.8.4,1.4h-2.1c0,.2,0,.4.2.6s.3.2.5.2.2,0,.3-.1c0,0,.2-.2.2-.3ZM156.3,349.5c0-.2,0-.4-.2-.5s-.3-.2-.4-.2-.3,0-.4.2-.2.3-.2.5h1.2Z"></path>
        <path class="cls-17" d="M157.8,351.3v-4.3h.8v4.3h-.8Z"></path>
        <path class="cls-17" d="M160.9,349.7c0-.3,0-.5.2-.8s.3-.5.6-.6.5-.2.8-.2c.5,0,.9.2,1.2.5.3.3.5.7.5,1.2s-.2.9-.5,1.2-.7.5-1.1.5-.6,0-.8-.2c-.3-.1-.5-.3-.6-.6s-.2-.6-.2-.9ZM161.8,349.8c0,.3,0,.5.2.7s.3.2.5.2.4,0,.5-.2.2-.4.2-.7,0-.5-.2-.7-.3-.2-.5-.2-.4,0-.5.2-.2.4-.2.7Z"></path>
        <path class="cls-17" d="M164.4,348.2h.5v-.2c0-.3,0-.5,0-.6s.2-.2.3-.3.3-.1.6-.1.5,0,.7.1v.6c-.2,0-.4,0-.5,0s-.2,0-.3,0,0,.2,0,.3v.2h.6v.6h-.6v2.5h-.8v-2.5h-.5v-.6Z"></path>
        <path class="cls-17" d="M169.9,348.2v.7h-.6v1.3c0,.3,0,.4,0,.4s0,0,0,.1,0,0,.1,0,.2,0,.3,0v.6c-.1,0-.3.1-.6.1s-.3,0-.4,0-.2-.1-.3-.2,0-.2-.1-.3c0,0,0-.3,0-.6v-1.4h-.4v-.7h.4v-.6l.8-.5v1.1h.6Z"></path>
        <path class="cls-17" d="M171.3,347v1.6c.3-.3.6-.5,1-.5s.4,0,.5.1.3.2.3.3.1.2.2.4,0,.3,0,.6v1.8h-.8v-1.6c0-.3,0-.5,0-.6s0-.2-.2-.2-.2,0-.3,0-.3,0-.4,0-.2.2-.2.3c0,.1,0,.3,0,.6v1.6h-.8v-4.3h.8Z"></path>
        <path class="cls-17" d="M175.9,350.3h.8c-.1.4-.3.7-.5.8-.2.2-.5.2-.9.2-.5,0-.9-.2-1.2-.5-.2-.3-.3-.6-.3-1.1s.1-.9.4-1.2c.3-.3.6-.4,1-.4s.8.2,1.1.5.4.8.4,1.4h-2.1c0,.2,0,.4.2.6s.3.2.5.2.2,0,.3-.1c0,0,.2-.2.2-.3ZM176,349.5c0-.2,0-.4-.2-.5s-.3-.2-.4-.2-.3,0-.4.2-.2.3-.2.5h1.2Z"></path>
        <path class="cls-17" d="M179.1,351.3v-4.3h.8v1.5c.3-.3.6-.4.9-.4s.7.1.9.4c.2.3.4.7.4,1.2s-.1.9-.4,1.2-.6.4-.9.4-.4,0-.5-.1-.3-.2-.4-.4v.5h-.8ZM179.9,349.7c0,.3,0,.6.2.7.1.2.3.3.6.3s.3,0,.5-.2.2-.4.2-.7,0-.6-.2-.8-.3-.2-.5-.2-.4,0-.5.2-.2.4-.2.7Z"></path>
        <path class="cls-17" d="M182.6,349.7c0-.3,0-.5.2-.8s.3-.5.6-.6.5-.2.8-.2c.5,0,.9.2,1.2.5.3.3.5.7.5,1.2s-.2.9-.5,1.2-.7.5-1.1.5-.6,0-.8-.2c-.3-.1-.5-.3-.6-.6s-.2-.6-.2-.9ZM183.4,349.8c0,.3,0,.5.2.7s.3.2.5.2.4,0,.5-.2.2-.4.2-.7,0-.5-.2-.7-.3-.2-.5-.2-.4,0-.5.2-.2.4-.2.7Z"></path>
        <path class="cls-17" d="M187.1,349.1h-.7c0-.4.2-.7.4-.8.2-.1.5-.2.9-.2s.6,0,.8.1.3.2.4.3.1.4.1.7v1c0,.3,0,.5,0,.6s0,.3.1.4h-.8c0,0,0-.1,0-.2,0,0,0,0,0,0-.1.1-.3.2-.5.3-.2,0-.3.1-.5.1-.3,0-.6,0-.8-.3s-.3-.4-.3-.7,0-.3.1-.5.2-.2.4-.3.4-.1.7-.2c.4,0,.7-.1.8-.2h0c0-.2,0-.4-.1-.4s-.2-.1-.4-.1-.3,0-.3,0-.1.2-.2.3ZM188.2,349.8c-.1,0-.3,0-.5.1s-.4,0-.4.1c-.1,0-.2.2-.2.3s0,.2.1.3.2.1.3.1.3,0,.4-.1c0,0,.2-.2.2-.3,0,0,0-.2,0-.4v-.2Z"></path>
        <path class="cls-17" d="M190.6,351.3h-.8v-3.1h.8v.4c.1-.2.2-.3.4-.4s.2,0,.4,0,.4,0,.5.2l-.3.7c-.1,0-.3-.1-.4-.1s-.2,0-.3,0-.1.2-.2.3c0,.2,0,.5,0,1v1Z"></path>
        <path class="cls-17" d="M195,351.3h-.8v-.5c-.1.2-.3.3-.4.4s-.3.1-.5.1c-.4,0-.7-.1-.9-.4s-.4-.7-.4-1.2.1-.9.4-1.2c.2-.3.6-.4.9-.4s.6.1.9.4v-1.5h.8v4.3ZM192.8,349.7c0,.3,0,.6.1.7.1.2.3.3.6.3s.3,0,.5-.2.2-.4.2-.7,0-.6-.2-.8-.3-.2-.5-.2-.4,0-.5.2c-.1.2-.2.4-.2.7Z"></path>
        <path class="cls-17" d="M195.8,351.3v-.8h.8v.8h-.8Z"></path>
        <path class="cls-17" d="M60.9,359.3v-4.3h1.4c.5,0,.9,0,1,0,.2,0,.5.2.6.4s.2.5.2.8,0,.5-.1.7-.2.3-.4.4-.3.2-.4.2c-.2,0-.5,0-.9,0h-.6v1.6h-.9ZM61.7,355.7v1.2h.5c.3,0,.6,0,.7,0s.2-.1.3-.2,0-.2,0-.3,0-.3-.1-.4-.2-.2-.3-.2c-.1,0-.3,0-.6,0h-.4Z"></path>
        <path class="cls-17" d="M64.9,359.3v-4.3h.8v4.3h-.8Z"></path>
        <path class="cls-17" d="M67.1,357.1h-.7c0-.4.2-.7.4-.8.2-.1.5-.2.9-.2s.6,0,.8.1.3.2.4.3.1.4.1.7v1c0,.3,0,.5,0,.6s0,.3.1.4h-.8c0,0,0-.1,0-.2,0,0,0,0,0,0-.1.1-.3.2-.5.3-.2,0-.3.1-.5.1-.3,0-.6,0-.8-.3s-.3-.4-.3-.7,0-.3.1-.5.2-.2.4-.3.4-.1.7-.2c.4,0,.7-.1.8-.2h0c0-.2,0-.4-.1-.4s-.2-.1-.4-.1-.3,0-.3,0-.1.2-.2.3ZM68.2,357.8c-.1,0-.3,0-.5.1s-.4,0-.4.1c-.1,0-.2.2-.2.3s0,.2.1.3.2.1.3.1.3,0,.4-.1c0,0,.2-.2.2-.3,0,0,0-.2,0-.4v-.2Z"></path>
        <path class="cls-17" d="M72.6,357.1h-.8s0-.1-.2-.2-.2-.1-.4-.1-.4,0-.5.2c-.1.1-.2.4-.2.7s0,.6.2.8c.1.2.3.2.5.2s.3,0,.4-.1.2-.2.2-.5h.8c0,.5-.2.8-.5,1s-.6.3-1,.3-.8-.1-1.1-.4-.4-.7-.4-1.2.1-.9.4-1.2c.3-.3.6-.4,1.1-.4s.7,0,.9.2c.2.2.4.4.5.7Z"></path>
        <path class="cls-17" d="M75,358.3h.8c-.1.4-.3.7-.5.8-.2.2-.5.2-.9.2-.5,0-.9-.2-1.2-.5-.2-.3-.3-.6-.3-1.1s.1-.9.4-1.2c.3-.3.6-.4,1-.4s.8.2,1.1.5.4.8.4,1.4h-2.1c0,.2,0,.4.2.6s.3.2.5.2.2,0,.3-.1c0,0,.2-.2.2-.3ZM75,357.5c0-.2,0-.4-.2-.5s-.3-.2-.4-.2-.3,0-.4.2-.2.3-.2.5h1.2Z"></path>
        <path class="cls-17" d="M77.8,356.2h.9l.7,2.2.7-2.2h.9l-1.1,3-.2.5c0,.2-.1.3-.2.4s-.1.2-.2.2-.2.1-.3.1c-.1,0-.3,0-.4,0s-.3,0-.5,0v-.6c0,0,.2,0,.3,0,.2,0,.3,0,.4-.2s.2-.3.2-.4l-1.2-3.1Z"></path>
        <path class="cls-17" d="M81.3,357.7c0-.3,0-.5.2-.8s.3-.5.6-.6.5-.2.8-.2c.5,0,.9.2,1.2.5.3.3.5.7.5,1.2s-.2.9-.5,1.2-.7.5-1.1.5-.6,0-.8-.2c-.3-.1-.5-.3-.6-.6s-.2-.6-.2-.9ZM82.2,357.8c0,.3,0,.5.2.7s.3.2.5.2.4,0,.5-.2.2-.4.2-.7,0-.5-.2-.7-.3-.2-.5-.2-.4,0-.5.2-.2.4-.2.7Z"></path>
        <path class="cls-17" d="M87.2,359.3v-.5c-.1.2-.3.3-.4.4s-.4.1-.6.1-.4,0-.6-.1-.3-.2-.4-.4-.1-.4-.1-.7v-2h.8v1.4c0,.4,0,.7,0,.8,0,0,0,.2.2.2s.2,0,.3,0,.3,0,.4-.1.2-.2.2-.3,0-.4,0-.8v-1.3h.8v3.1h-.8Z"></path>
        <path class="cls-17" d="M89.6,359.3h-.8v-3.1h.8v.4c.1-.2.2-.3.4-.4s.2,0,.4,0,.4,0,.5.2l-.3.7c-.1,0-.3-.1-.4-.1s-.2,0-.3,0-.1.2-.2.3c0,.2,0,.5,0,1v1Z"></path>
        <path class="cls-17" d="M93.5,357.1h-.7c0-.4.2-.7.4-.8.2-.1.5-.2.9-.2s.6,0,.8.1.3.2.4.3.1.4.1.7v1c0,.3,0,.5,0,.6s0,.3.1.4h-.8c0,0,0-.1,0-.2,0,0,0,0,0,0-.1.1-.3.2-.5.3-.2,0-.3.1-.5.1-.3,0-.6,0-.8-.3s-.3-.4-.3-.7,0-.3.1-.5.2-.2.4-.3.4-.1.7-.2c.4,0,.7-.1.8-.2h0c0-.2,0-.4-.1-.4s-.2-.1-.4-.1-.3,0-.3,0-.1.2-.2.3ZM94.6,357.8c-.1,0-.3,0-.5.1s-.4,0-.4.1c-.1,0-.2.2-.2.3s0,.2.1.3.2.1.3.1.3,0,.4-.1c0,0,.2-.2.2-.3,0,0,0-.2,0-.4v-.2Z"></path>
        <path class="cls-17" d="M97,359.3h-.8v-3.1h.8v.4c.1-.2.2-.3.4-.4s.2,0,.4,0,.4,0,.5.2l-.3.7c-.1,0-.3-.1-.4-.1s-.2,0-.3,0-.1.2-.2.3c0,.2,0,.5,0,1v1Z"></path>
        <path class="cls-17" d="M99.9,356.2v.7h-.6v1.3c0,.3,0,.4,0,.4s0,0,0,.1,0,0,.1,0,.2,0,.3,0v.6c-.1,0-.3.1-.6.1s-.3,0-.4,0-.2-.1-.3-.2,0-.2-.1-.3c0,0,0-.3,0-.6v-1.4h-.4v-.7h.4v-.6l.8-.5v1.1h.6Z"></path>
        <path class="cls-17" d="M103.6,356.2v.7h-.6v1.3c0,.3,0,.4,0,.4s0,0,0,.1,0,0,.1,0,.2,0,.3,0v.6c-.1,0-.3.1-.6.1s-.3,0-.4,0-.2-.1-.3-.2,0-.2-.1-.3c0,0,0-.3,0-.6v-1.4h-.4v-.7h.4v-.6l.8-.5v1.1h.6Z"></path>
        <path class="cls-17" d="M105,355v1.6c.3-.3.6-.5,1-.5s.4,0,.5.1.3.2.3.3.1.2.2.4,0,.3,0,.6v1.8h-.8v-1.6c0-.3,0-.5,0-.6s0-.2-.2-.2-.2,0-.3,0-.3,0-.4,0-.2.2-.2.3c0,.1,0,.3,0,.6v1.6h-.8v-4.3h.8Z"></path>
        <path class="cls-17" d="M108.5,357.1h-.7c0-.4.2-.7.4-.8.2-.1.5-.2.9-.2s.6,0,.8.1.3.2.4.3.1.4.1.7v1c0,.3,0,.5,0,.6s0,.3.1.4h-.8c0,0,0-.1,0-.2,0,0,0,0,0,0-.1.1-.3.2-.5.3-.2,0-.3.1-.5.1-.3,0-.6,0-.8-.3s-.3-.4-.3-.7,0-.3.1-.5.2-.2.4-.3.4-.1.7-.2c.4,0,.7-.1.8-.2h0c0-.2,0-.4-.1-.4s-.2-.1-.4-.1-.3,0-.3,0-.1.2-.2.3ZM109.6,357.8c-.1,0-.3,0-.5.1s-.4,0-.4.1c-.1,0-.2.2-.2.3s0,.2.1.3.2.1.3.1.3,0,.4-.1c0,0,.2-.2.2-.3,0,0,0-.2,0-.4v-.2Z"></path>
        <path class="cls-17" d="M112.6,356.2v.7h-.6v1.3c0,.3,0,.4,0,.4s0,0,0,.1,0,0,.1,0,.2,0,.3,0v.6c-.1,0-.3.1-.6.1s-.3,0-.4,0-.2-.1-.3-.2,0-.2-.1-.3c0,0,0-.3,0-.6v-1.4h-.4v-.7h.4v-.6l.8-.5v1.1h.6Z"></path>
        <path class="cls-17" d="M115.4,359.3l-1-3.1h.8l.6,2,.5-2h.8l.5,2,.6-2h.8l-1,3.1h-.8l-.5-2-.5,2h-.8Z"></path>
        <path class="cls-17" d="M119.5,355.8v-.8h.8v.8h-.8ZM119.5,359.3v-3.1h.8v3.1h-.8Z"></path>
        <path class="cls-17" d="M121.2,359.3v-4.3h.8v4.3h-.8Z"></path>
        <path class="cls-17" d="M122.8,359.3v-4.3h.8v4.3h-.8Z"></path>
        <path class="cls-17" d="M125.9,358.4h.8s.1.2.2.2.3.1.5.1.4,0,.5-.1c0,0,.1-.1.1-.2s0-.1,0-.2c0,0-.1,0-.3-.1-.7-.1-1.1-.3-1.3-.4-.2-.2-.4-.4-.4-.7s.1-.5.3-.7c.2-.2.5-.3,1-.3s.7,0,.9.2.3.3.4.6h-.8s0,0-.2-.1-.2,0-.4,0-.4,0-.5,0c0,0,0,0,0,.2s0,.1,0,.1c0,0,.3.1.8.2s.7.2.9.4c.2.1.3.4.3.6s-.1.5-.4.7-.6.3-1.1.3-.8,0-1-.3-.4-.4-.5-.7Z"></path>
        <path class="cls-17" d="M130.3,355v1.6c.3-.3.6-.5,1-.5s.4,0,.5.1.3.2.3.3.1.2.2.4,0,.3,0,.6v1.8h-.8v-1.6c0-.3,0-.5,0-.6s0-.2-.2-.2-.2,0-.3,0-.3,0-.4,0-.2.2-.2.3c0,.1,0,.3,0,.6v1.6h-.8v-4.3h.8Z"></path>
        <path class="cls-17" d="M133,357.7c0-.3,0-.5.2-.8s.3-.5.6-.6.5-.2.8-.2c.5,0,.9.2,1.2.5.3.3.5.7.5,1.2s-.2.9-.5,1.2-.7.5-1.1.5-.6,0-.8-.2c-.3-.1-.5-.3-.6-.6s-.2-.6-.2-.9ZM133.8,357.8c0,.3,0,.5.2.7s.3.2.5.2.4,0,.5-.2.2-.4.2-.7,0-.5-.2-.7-.3-.2-.5-.2-.4,0-.5.2-.2.4-.2.7Z"></path>
        <path class="cls-17" d="M137.4,359.3l-1-3.1h.8l.6,2,.5-2h.8l.5,2,.6-2h.8l-1,3.1h-.8l-.5-2-.5,2h-.8Z"></path>
        <path class="cls-17" d="M144.6,356.2v.7h-.6v1.3c0,.3,0,.4,0,.4s0,0,0,.1,0,0,.1,0,.2,0,.3,0v.6c-.1,0-.3.1-.6.1s-.3,0-.4,0-.2-.1-.3-.2,0-.2-.1-.3c0,0,0-.3,0-.6v-1.4h-.4v-.7h.4v-.6l.8-.5v1.1h.6Z"></path>
        <path class="cls-17" d="M146,355v1.6c.3-.3.6-.5,1-.5s.4,0,.5.1.3.2.3.3.1.2.2.4,0,.3,0,.6v1.8h-.8v-1.6c0-.3,0-.5,0-.6s0-.2-.2-.2-.2,0-.3,0-.3,0-.4,0-.2.2-.2.3c0,.1,0,.3,0,.6v1.6h-.8v-4.3h.8Z"></path>
        <path class="cls-17" d="M149.6,359.3h-.8v-3.1h.8v.4c.1-.2.2-.3.4-.4s.2,0,.4,0,.4,0,.5.2l-.3.7c-.1,0-.3-.1-.4-.1s-.2,0-.3,0-.1.2-.2.3c0,.2,0,.5,0,1v1Z"></path>
        <path class="cls-17" d="M151,357.7c0-.3,0-.5.2-.8s.3-.5.6-.6.5-.2.8-.2c.5,0,.9.2,1.2.5.3.3.5.7.5,1.2s-.2.9-.5,1.2-.7.5-1.1.5-.6,0-.8-.2c-.3-.1-.5-.3-.6-.6s-.2-.6-.2-.9ZM151.8,357.8c0,.3,0,.5.2.7s.3.2.5.2.4,0,.5-.2.2-.4.2-.7,0-.5-.2-.7-.3-.2-.5-.2-.4,0-.5.2-.2.4-.2.7Z"></path>
        <path class="cls-17" d="M156.8,359.3v-.5c-.1.2-.3.3-.4.4s-.4.1-.6.1-.4,0-.6-.1-.3-.2-.4-.4-.1-.4-.1-.7v-2h.8v1.4c0,.4,0,.7,0,.8,0,0,0,.2.2.2s.2,0,.3,0,.3,0,.4-.1.2-.2.2-.3,0-.4,0-.8v-1.3h.8v3.1h-.8Z"></path>
        <path class="cls-17" d="M158.4,359.5h.9c0,.2,0,.3.1.3,0,0,.2,0,.4,0s.4,0,.5,0c0,0,.1-.1.2-.2,0,0,0-.2,0-.4v-.5c-.2.3-.6.5-.9.5s-.7-.2-1-.5c-.2-.3-.3-.6-.3-1s.1-.9.4-1.2.6-.4.9-.4.7.2,1,.5v-.4h.8v2.8c0,.4,0,.6,0,.8,0,.2-.1.3-.3.4s-.3.2-.4.2c-.2,0-.4,0-.7,0-.5,0-.9,0-1.1-.3-.2-.2-.3-.4-.3-.7s0,0,0,0ZM159.1,357.7c0,.3,0,.6.2.7.1.2.3.2.5.2s.4,0,.5-.2.2-.4.2-.7,0-.6-.2-.7-.3-.2-.5-.2-.4,0-.5.2c-.1.2-.2.4-.2.7Z"></path>
        <path class="cls-17" d="M162.9,355v1.6c.3-.3.6-.5,1-.5s.4,0,.5.1.3.2.3.3.1.2.2.4,0,.3,0,.6v1.8h-.8v-1.6c0-.3,0-.5,0-.6s0-.2-.2-.2-.2,0-.3,0-.3,0-.4,0-.2.2-.2.3c0,.1,0,.3,0,.6v1.6h-.8v-4.3h.8Z"></path>
        <path class="cls-17" d="M168.9,356.2v.7h-.6v1.3c0,.3,0,.4,0,.4s0,0,0,.1,0,0,.1,0,.2,0,.3,0v.6c-.1,0-.3.1-.6.1s-.3,0-.4,0-.2-.1-.3-.2,0-.2-.1-.3c0,0,0-.3,0-.6v-1.4h-.4v-.7h.4v-.6l.8-.5v1.1h.6Z"></path>
        <path class="cls-17" d="M170.3,355v1.6c.3-.3.6-.5,1-.5s.4,0,.5.1.3.2.3.3.1.2.2.4,0,.3,0,.6v1.8h-.8v-1.6c0-.3,0-.5,0-.6s0-.2-.2-.2-.2,0-.3,0-.3,0-.4,0-.2.2-.2.3c0,.1,0,.3,0,.6v1.6h-.8v-4.3h.8Z"></path>
        <path class="cls-17" d="M174.9,358.3h.8c-.1.4-.3.7-.5.8-.2.2-.5.2-.9.2-.5,0-.9-.2-1.2-.5-.2-.3-.3-.6-.3-1.1s.1-.9.4-1.2c.3-.3.6-.4,1-.4s.8.2,1.1.5.4.8.4,1.4h-2.1c0,.2,0,.4.2.6s.3.2.5.2.2,0,.3-.1c0,0,.2-.2.2-.3ZM175,357.5c0-.2,0-.4-.2-.5s-.3-.2-.4-.2-.3,0-.4.2-.2.3-.2.5h1.2Z"></path>
        <path class="cls-17" d="M180.8,357.1h-.8s0-.1-.2-.2-.2-.1-.4-.1-.4,0-.5.2c-.1.1-.2.4-.2.7s0,.6.2.8c.1.2.3.2.5.2s.3,0,.4-.1.2-.2.2-.5h.8c0,.5-.2.8-.5,1s-.6.3-1,.3-.8-.1-1.1-.4-.4-.7-.4-1.2.1-.9.4-1.2c.3-.3.6-.4,1.1-.4s.7,0,.9.2c.2.2.4.4.5.7Z"></path>
        <path class="cls-17" d="M183.5,359.3v-.5c-.1.2-.3.3-.4.4s-.4.1-.6.1-.4,0-.6-.1-.3-.2-.4-.4-.1-.4-.1-.7v-2h.8v1.4c0,.4,0,.7,0,.8,0,0,0,.2.2.2s.2,0,.3,0,.3,0,.4-.1.2-.2.2-.3,0-.4,0-.8v-1.3h.8v3.1h-.8Z"></path>
        <path class="cls-17" d="M186.5,356.2v.7h-.6v1.3c0,.3,0,.4,0,.4s0,0,0,.1,0,0,.1,0,.2,0,.3,0v.6c-.1,0-.3.1-.6.1s-.3,0-.4,0-.2-.1-.3-.2,0-.2-.1-.3c0,0,0-.3,0-.6v-1.4h-.4v-.7h.4v-.6l.8-.5v1.1h.6Z"></path>
        <path class="cls-17" d="M186.8,358.4h.8s.1.2.2.2.3.1.5.1.4,0,.5-.1c0,0,.1-.1.1-.2s0-.1,0-.2c0,0-.1,0-.3-.1-.7-.1-1.1-.3-1.3-.4-.2-.2-.4-.4-.4-.7s.1-.5.3-.7c.2-.2.5-.3,1-.3s.7,0,.9.2.3.3.4.6h-.8s0,0-.2-.1-.2,0-.4,0-.4,0-.5,0c0,0,0,0,0,.2s0,.1,0,.1c0,0,.3.1.8.2s.7.2.9.4c.2.1.3.4.3.6s-.1.5-.4.7-.6.3-1.1.3-.8,0-1-.3-.4-.4-.5-.7Z"></path>
        <path class="cls-17" d="M60.7,365.7c0-.3,0-.5.2-.8s.3-.5.6-.6.5-.2.8-.2c.5,0,.9.2,1.2.5.3.3.5.7.5,1.2s-.2.9-.5,1.2-.7.5-1.1.5-.6,0-.8-.2c-.3-.1-.5-.3-.6-.6s-.2-.6-.2-.9ZM61.5,365.8c0,.3,0,.5.2.7s.3.2.5.2.4,0,.5-.2.2-.4.2-.7,0-.5-.2-.7-.3-.2-.5-.2-.4,0-.5.2-.2.4-.2.7Z"></path>
        <path class="cls-17" d="M67.3,367.3h-.8v-1.6c0-.3,0-.6,0-.7s0-.2-.2-.2-.2,0-.3,0-.3,0-.4.1-.2.2-.2.3,0,.4,0,.7v1.4h-.8v-3.1h.8v.5c.3-.4.6-.5,1-.5s.3,0,.5,0,.3.1.3.3.1.2.2.3,0,.3,0,.6v1.9Z"></path>
        <path class="cls-17" d="M71.3,364.2v.7h-.6v1.3c0,.3,0,.4,0,.4s0,0,0,.1,0,0,.1,0,.2,0,.3,0v.6c-.1,0-.3.1-.6.1s-.3,0-.4,0-.2-.1-.3-.2,0-.2-.1-.3c0,0,0-.3,0-.6v-1.4h-.4v-.7h.4v-.6l.8-.5v1.1h.6Z"></path>
        <path class="cls-17" d="M72.7,363v1.6c.3-.3.6-.5,1-.5s.4,0,.5.1.3.2.3.3.1.2.2.4,0,.3,0,.6v1.8h-.8v-1.6c0-.3,0-.5,0-.6s0-.2-.2-.2-.2,0-.3,0-.3,0-.4,0-.2.2-.2.3c0,.1,0,.3,0,.6v1.6h-.8v-4.3h.8Z"></path>
        <path class="cls-17" d="M77.3,366.3h.8c-.1.4-.3.7-.5.8-.2.2-.5.2-.9.2-.5,0-.9-.2-1.2-.5-.2-.3-.3-.6-.3-1.1s.1-.9.4-1.2c.3-.3.6-.4,1-.4s.8.2,1.1.5.4.8.4,1.4h-2.1c0,.2,0,.4.2.6s.3.2.5.2.2,0,.3-.1c0,0,.2-.2.2-.3ZM77.4,365.5c0-.2,0-.4-.2-.5s-.3-.2-.4-.2-.3,0-.4.2-.2.3-.2.5h1.2Z"></path>
        <path class="cls-17" d="M80.5,367.3v-4.3h3.2v.7h-2.3v1h2.2v.7h-2.2v1.2h2.4v.7h-3.3Z"></path>
        <path class="cls-17" d="M84.1,367.3l1.1-1.6-1.1-1.5h1l.6.9.6-.9h1l-1.1,1.5,1.2,1.6h-1l-.6-1-.6,1h-1Z"></path>
        <path class="cls-17" d="M89.3,364.2v.7h-.6v1.3c0,.3,0,.4,0,.4s0,0,0,.1,0,0,.1,0,.2,0,.3,0v.6c-.1,0-.3.1-.6.1s-.3,0-.4,0-.2-.1-.3-.2,0-.2-.1-.3c0,0,0-.3,0-.6v-1.4h-.4v-.7h.4v-.6l.8-.5v1.1h.6Z"></path>
        <path class="cls-17" d="M91.6,366.3h.8c-.1.4-.3.7-.5.8-.2.2-.5.2-.9.2-.5,0-.9-.2-1.2-.5-.2-.3-.3-.6-.3-1.1s.1-.9.4-1.2c.3-.3.6-.4,1-.4s.8.2,1.1.5.4.8.4,1.4h-2.1c0,.2,0,.4.2.6s.3.2.5.2.2,0,.3-.1c0,0,.2-.2.2-.3ZM91.7,365.5c0-.2,0-.4-.2-.5s-.3-.2-.4-.2-.3,0-.4.2-.2.3-.2.5h1.2Z"></path>
        <path class="cls-17" d="M94,367.3h-.8v-3.1h.8v.4c.1-.2.2-.3.4-.4s.2,0,.4,0,.4,0,.5.2l-.3.7c-.1,0-.3-.1-.4-.1s-.2,0-.3,0-.1.2-.2.3c0,.2,0,.5,0,1v1Z"></path>
        <path class="cls-17" d="M95.5,363.8v-.8h.8v.8h-.8ZM95.5,367.3v-3.1h.8v3.1h-.8Z"></path>
        <path class="cls-17" d="M97,365.7c0-.3,0-.5.2-.8s.3-.5.6-.6.5-.2.8-.2c.5,0,.9.2,1.2.5.3.3.5.7.5,1.2s-.2.9-.5,1.2-.7.5-1.1.5-.6,0-.8-.2c-.3-.1-.5-.3-.6-.6s-.2-.6-.2-.9ZM97.8,365.8c0,.3,0,.5.2.7s.3.2.5.2.4,0,.5-.2.2-.4.2-.7,0-.5-.2-.7-.3-.2-.5-.2-.4,0-.5.2-.2.4-.2.7Z"></path>
        <path class="cls-17" d="M101.6,367.3h-.8v-3.1h.8v.4c.1-.2.2-.3.4-.4s.2,0,.4,0,.4,0,.5.2l-.3.7c-.1,0-.3-.1-.4-.1s-.2,0-.3,0-.1.2-.2.3c0,.2,0,.5,0,1v1Z"></path>
        <path class="cls-17" d="M104.8,367.3v-4.3h2.9v.7h-2.1v1h1.8v.7h-1.8v1.8h-.9Z"></path>
        <path class="cls-17" d="M109.1,365.1h-.7c0-.4.2-.7.4-.8.2-.1.5-.2.9-.2s.6,0,.8.1.3.2.4.3.1.4.1.7v1c0,.3,0,.5,0,.6s0,.3.1.4h-.8c0,0,0-.1,0-.2,0,0,0,0,0,0-.1.1-.3.2-.5.3-.2,0-.3.1-.5.1-.3,0-.6,0-.8-.3s-.3-.4-.3-.7,0-.3.1-.5.2-.2.4-.3.4-.1.7-.2c.4,0,.7-.1.8-.2h0c0-.2,0-.4-.1-.4s-.2-.1-.4-.1-.3,0-.3,0-.1.2-.2.3ZM110.2,365.8c-.1,0-.3,0-.5.1s-.4,0-.4.1c-.1,0-.2.2-.2.3s0,.2.1.3.2.1.3.1.3,0,.4-.1c0,0,.2-.2.2-.3,0,0,0-.2,0-.4v-.2Z"></path>
        <path class="cls-17" d="M114.5,365.1h-.8s0-.1-.2-.2-.2-.1-.4-.1-.4,0-.5.2c-.1.1-.2.4-.2.7s0,.6.2.8c.1.2.3.2.5.2s.3,0,.4-.1.2-.2.2-.5h.8c0,.5-.2.8-.5,1s-.6.3-1,.3-.8-.1-1.1-.4-.4-.7-.4-1.2.1-.9.4-1.2c.3-.3.6-.4,1.1-.4s.7,0,.9.2c.2.2.4.4.5.7Z"></path>
        <path class="cls-17" d="M117,366.3h.8c-.1.4-.3.7-.5.8-.2.2-.5.2-.9.2-.5,0-.9-.2-1.2-.5-.2-.3-.3-.6-.3-1.1s.1-.9.4-1.2c.3-.3.6-.4,1-.4s.8.2,1.1.5.4.8.4,1.4h-2.1c0,.2,0,.4.2.6s.3.2.5.2.2,0,.3-.1c0,0,.2-.2.2-.3ZM117,365.5c0-.2,0-.4-.2-.5s-.3-.2-.4-.2-.3,0-.4.2-.2.3-.2.5h1.2Z"></path>
        <path class="cls-17" d="M120.1,364.2h.8v.5c0-.2.2-.3.4-.4s.4-.1.6-.1c.4,0,.7.1.9.4.3.3.4.7.4,1.2s-.1.9-.4,1.2c-.3.3-.6.4-.9.4s-.3,0-.5-.1-.3-.2-.4-.4v1.6h-.8v-4.3ZM121,365.7c0,.3,0,.6.2.8s.3.3.5.3.3,0,.5-.2.2-.4.2-.8,0-.6-.2-.7-.3-.2-.5-.2-.4,0-.5.2-.2.4-.2.7Z"></path>
        <path class="cls-17" d="M124.4,365.1h-.7c0-.4.2-.7.4-.8.2-.1.5-.2.9-.2s.6,0,.8.1.3.2.4.3.1.4.1.7v1c0,.3,0,.5,0,.6s0,.3.1.4h-.8c0,0,0-.1,0-.2,0,0,0,0,0,0-.1.1-.3.2-.5.3-.2,0-.3.1-.5.1-.3,0-.6,0-.8-.3s-.3-.4-.3-.7,0-.3.1-.5.2-.2.4-.3.4-.1.7-.2c.4,0,.7-.1.8-.2h0c0-.2,0-.4-.1-.4s-.2-.1-.4-.1-.3,0-.3,0-.1.2-.2.3ZM125.5,365.8c-.1,0-.3,0-.5.1s-.4,0-.4.1c-.1,0-.2.2-.2.3s0,.2.1.3.2.1.3.1.3,0,.4-.1c0,0,.2-.2.2-.3,0,0,0-.2,0-.4v-.2Z"></path>
        <path class="cls-17" d="M130,367.3h-.8v-1.6c0-.3,0-.6,0-.7s0-.2-.2-.2-.2,0-.3,0-.3,0-.4.1-.2.2-.2.3,0,.4,0,.7v1.4h-.8v-3.1h.8v.5c.3-.4.6-.5,1-.5s.3,0,.5,0,.3.1.3.3.1.2.2.3,0,.3,0,.6v1.9Z"></path>
        <path class="cls-17" d="M132.6,366.3h.8c-.1.4-.3.7-.5.8-.2.2-.5.2-.9.2-.5,0-.9-.2-1.2-.5-.2-.3-.3-.6-.3-1.1s.1-.9.4-1.2c.3-.3.6-.4,1-.4s.8.2,1.1.5.4.8.4,1.4h-2.1c0,.2,0,.4.2.6s.3.2.5.2.2,0,.3-.1c0,0,.2-.2.2-.3ZM132.7,365.5c0-.2,0-.4-.2-.5s-.3-.2-.4-.2-.3,0-.4.2-.2.3-.2.5h1.2Z"></path>
        <path class="cls-17" d="M134.2,367.3v-4.3h.8v4.3h-.8Z"></path>
        <path class="cls-17" d="M135.8,367.3v-.8h.8v.8h-.8Z"></path>
      </g>
      <g>
        
        <line class="cls-13" x1="54.7" y1="221.6" x2="208.9" y2="221.6"></line>
        
      </g>
    </g>
  </g>
</svg>