<svg id="YOUR_ARTWORK_HERE" data-name="YOUR ARTWORK HERE" xmlns="http://www.w3.org/2000/svg" viewBox="0 0 825 825" width="825" height="825">
  <defs>
    <style>
      .cls-1, .cls-2, .cls-3, .cls-4, .cls-5, .cls-6, .cls-7, .cls-8 {
        fill: none;
      }

      .cls-9 {
        font-size: 4.515px;
      }

      .cls-9, .cls-10 {
        fill: #000100;
        font-family: Arial-Black, 'Arial Black';
        font-weight: 800;
      }

      .cls-11 {
        letter-spacing: .025em;
      }

      .cls-12 {
        letter-spacing: -.005em;
      }

      .cls-13 {
        letter-spacing: -.018em;
      }

      .cls-13, .cls-14, .cls-15, .cls-16, .cls-17, .cls-18, .cls-19, .cls-20, .cls-21 {
        fill: #231f20;
      }

      .cls-13, .cls-14, .cls-17, .cls-18, .cls-19, .cls-20, .cls-21 {
        font-family: ArialMT, Arial;
      }

      .cls-22 {
        letter-spacing: .05em;
      }

      .cls-23 {
        letter-spacing: -.043em;
      }

      .cls-24 {
        letter-spacing: .013em;
      }

      .cls-25 {
        letter-spacing: -.017em;
      }

      .cls-26, .cls-27 {
        fill: #f7a31a;
      }

      .cls-28 {
        fill: #eb1d27;
      }

      .cls-29, .cls-30 {
        fill: #fff;
      }

      .cls-31 {
        fill: #cecfd0;
      }

      .cls-32, .cls-33 {
        fill: #4e494b;
      }

      .cls-27, .cls-34, .cls-35 {
        font-size: 3.783px;
      }

      .cls-27, .cls-34, .cls-35, .cls-15, .cls-16, .cls-36, .cls-37 {
        font-family: Arial-BoldMT, Arial;
        font-weight: 700;
      }

      .cls-34 {
        fill: #2ba6de;
      }

      .cls-35 {
        fill: #ec1e28;
      }

      .cls-15 {
        font-size: 3.737px;
      }

      .cls-2 {
        stroke-dasharray: 0 0 4.407 4.407;
      }

      .cls-2, .cls-3, .cls-4, .cls-5, .cls-8 {
        stroke-width: .959px;
      }

      .cls-2, .cls-3, .cls-6 {
        stroke: #2da6de;
      }

      .cls-16 {
        font-size: 3.313px;
      }

      .cls-17 {
        letter-spacing: -.037em;
      }

      .cls-4 {
        stroke: #929497;
      }

      .cls-5, .cls-7 {
        stroke: red;
      }

      .cls-18 {
        letter-spacing: -.074em;
      }

      .cls-19 {
        letter-spacing: -.074em;
      }

      .cls-38 {
        letter-spacing: -.037em;
      }

      .cls-36 {
        fill: #ea1c24;
      }

      .cls-39 {
        letter-spacing: -.055em;
      }

      .cls-40 {
        letter-spacing: -.026em;
      }

      .cls-6 {
        stroke-dasharray: 0 0 5.02 5.02;
      }

      .cls-41 {
        opacity: .5;
      }

      .cls-20 {
        letter-spacing: 0em;
      }

      .cls-10 {
        font-size: 4.459px;
      }

      .cls-33, .cls-42, .cls-30, .cls-43 {
        fill-rule: evenodd;
      }

      .cls-42 {
        fill: #b5d133;
      }

      .cls-37 {
        fill: #929497;
        font-size: 3.784px;
      }

      .cls-44 {
        font-size: 3.678px;
      }

      .cls-45 {
        letter-spacing: 0em;
      }

      .cls-46 {
        letter-spacing: 0em;
      }

      .cls-21 {
        letter-spacing: -.018em;
      }

      .cls-47 {
        letter-spacing: .016em;
      }

      .cls-8 {
        stroke: #f7a31a;
        stroke-miterlimit: 10;
      }
    </style>
  </defs>
  <path id="Bleed_Zone" data-name="Bleed Zone" class="cls-41" d="m.026,0v198h198V0H.026Zm188.974,180c0,4.971-4.029,9-9,9H18c-4.971,0-9-4.029-9-9V18c0-4.971,4.029-9,9-9h162c4.971,0,9,4.029,9,9v162Z"></path>
  <rect id="Trim_Line" data-name="Trim Line" class="cls-7" x="9" y="9" width="180" height="180" rx="9" ry="9"></rect>
  <g id="Safe_Zone" data-name="Safe Zone">
    <rect class="cls-6" x="18" y="18" width="162" height="162" rx="9" ry="9"></rect>
  </g>
  <g id="Info">
    <g>
      <g>
        
        
        <path class="cls-28" d="m128.259,154.385c0-.328,0-.656,0-.985.14-.452.509-.837.993-.889.827-.14.279,1.983.994,1.697,1.322-1.03,2.321-2.504,3.71-3.419.086,0,.171,0,.257,0,.349.554-.011,1.209-.456,1.602-.556.598-1.129,1.181-1.681,1.784-.61.547-1.92,2.227-2.701,2.2-1.045-.249-.992-1.13-1.117-1.99Z"></path>
      </g>
      <g>
        
        <path class="cls-28" d="m129.37,30.612c0-.332,0-.665,0-.997.142-.458.516-.848,1.006-.9.837-.142.282,2.008,1.007,1.718,1.339-1.043,2.349-2.535,3.756-3.462.087,0,.173,0,.26,0,.354.561-.011,1.224-.462,1.622-.563.606-1.143,1.196-1.702,1.806-.618.554-1.944,2.255-2.735,2.227-1.058-.252-1.004-1.144-1.131-2.015Z"></path>
        <g>
          <line class="cls-3" x1="180" y1="32.748" x2="177.601" y2="32.748"></line>
          <line class="cls-2" x1="173.194" y1="32.748" x2="140.143" y2="32.748"></line>
          <line class="cls-3" x1="137.939" y1="32.748" x2="135.541" y2="32.748"></line>
        </g>
        
      </g>
      <g>
        
        
        <path class="cls-28" d="m124.487,123.62c0-.332,0-.665,0-.997.142-.458.516-.848,1.006-.9.837-.142.282,2.008,1.007,1.718,1.339-1.043,2.349-2.535,3.756-3.462.087,0,.173,0,.26,0,.354.561-.011,1.224-.462,1.622-.563.606-1.143,1.196-1.702,1.806-.618.554-1.944,2.255-2.735,2.227-1.058-.252-1.004-1.144-1.131-2.015Z"></path>
        <line class="cls-8" x1="172.473" y1="125.755" x2="130.716" y2="125.755"></line>
        <rect class="cls-26" x="171" y="119.979" width="27.026" height="23.797"></rect>
      </g>
      <g>
        
        
        <path class="cls-28" d="m126.411,82.045c0-.332,0-.665,0-.997.142-.458.516-.848,1.006-.9.837-.142.282,2.008,1.007,1.718,1.339-1.043,2.349-2.535,3.756-3.462.087,0,.173,0,.26,0,.354.561-.011,1.224-.462,1.622-.563.606-1.143,1.196-1.702,1.806-.618.554-1.944,2.255-2.735,2.227-1.058-.252-1.004-1.144-1.131-2.015Z"></path>
        <line class="cls-4" x1="198.026" y1="84.18" x2="132.64" y2="84.18"></line>
      </g>
      <g>
        
        
        <path class="cls-28" d="m130.897,63.017c0-.332,0-.665,0-.997.142-.458.516-.848,1.006-.9.837-.142.282,2.008,1.007,1.718,1.339-1.043,2.349-2.535,3.756-3.462.087,0,.173,0,.26,0,.354.561-.011,1.224-.462,1.622-.563.606-1.143,1.196-1.702,1.806-.618.554-1.944,2.255-2.735,2.227-1.058-.252-1.004-1.144-1.131-2.015Z"></path>
        <line class="cls-5" x1="189" y1="65.152" x2="137.068" y2="65.152"></line>
      </g>
    </g>
    <g>
      <rect class="cls-31" x="27.348" y="115.949" width="49.179" height="54.355"></rect>
      
      <path class="cls-43" d="m68.216,134.711c0,8.571-6.946,15.519-15.514,15.519s-15.514-6.948-15.514-15.519,6.946-15.519,15.514-15.519,15.514,6.949,15.514,15.519Z"></path>
      <path class="cls-42" d="m66.816,134.797c0,7.792-6.314,14.108-14.103,14.108s-14.104-6.317-14.104-14.108,6.314-14.108,14.104-14.108,14.103,6.317,14.103,14.108Z"></path>
      <g>
        <path d="m49.693,131.72c-.196,1.73-.341,3.118-.438,4.167l-.643.028c.01-.035.014-.074.015-.118.001-.078-.027-.182-.086-.31-.059-.127-.093-.209-.102-.244-.166.023-.326.139-.478.346-.152.207-.29.31-.412.309-.071-.002-.149-.021-.236-.057-.115.077-.264.108-.447.097-.166-.029-.327-.054-.484-.074-.005-.218-.221-.411-.646-.576.001-.087-.042-.217-.132-.389-.089-.172-.133-.293-.132-.363.001-.079.033-.144.095-.195-.009-.027-.08-.189-.214-.489-.093-.22-.138-.41-.135-.567.002-.122.03-.236.085-.34-.075-.745-.108-1.384-.099-1.918.014-.823.132-1.577.353-2.264-.016-.105-.022-.21-.021-.315.009-.551.2-.933.57-1.145l.003-.171c.367-.466.849-.804,1.447-1.012.357.085.714.166,1.072.242.4.138.676.375.828.71.121.073.18.218.176.436-.004.245.024.403.084.474l-.067.078c.07.517.104.833.102.947-.006.332-.093.567-.262.704-.061,0-.222-.055-.482-.165-.062.06-.129.09-.199.089-.035,0-.098-.02-.189-.056-.091-.037-.168-.055-.228-.057-.044,0-.088.007-.132.024-.005-.691.017-1.207.066-1.547-.069-.045-.139-.148-.211-.305-.072-.159-.165-.248-.278-.267-.071.086-.103.143-.094.169l-.235-.083c-.214.232-.356.637-.427,1.213-.073.664-.163,1.104-.272,1.321.094.098.14.235.137.409,0,.062-.011.162-.031.301-.02.14-.03.244-.031.315-.002.079.006.149.022.21l-.16.154c.065.299.103.676.112,1.131-.006.385-.009.77-.006,1.155-.009,0-.084.003-.224.01-.087-.002-.149.028-.185.089.053-.007.101-.011.145-.011.193.003.343.139.453.408.109.269.203.404.281.406.087.001.207-.08.359-.243.258-.276.391-.654.4-1.135.004-.236-.023-.49-.079-.762-.062.034-.094.121-.096.261-.14-.003-.228.027-.264.087-.061-.019-.087-.067-.077-.146.011-.113.016-.174.017-.183.106-.034.158-.081.16-.142,0-.026-.019-.075-.057-.145-.038-.07-.056-.128-.055-.171,0-.035.009-.07.027-.105l.061-.511c.192.056.606.08,1.245.074-.018.044.007.101.076.172.062-.061.129-.09.199-.089.052.001.131.025.235.07.105.046.178.068.222.069Z"></path>
        <path d="m54.588,136.24c-.122-.056-.252-.083-.392-.086-.123-.002-.289.021-.5.071-.237.048-.399.076-.487.084-.093-.185-.158-.441-.197-.765-.071-.473-.115-.741-.131-.802.027-.053.041-.096.041-.131.002-.096-.073-.183-.225-.259-.153-.077-.228-.138-.227-.182.001-.052.09-.13.267-.232-.043-.053-.075-.161-.094-.323-.019-.162-.059-.27-.118-.324-.106.095-.28.155-.522.182-.241.027-.401.066-.481.117.006.682-.107,1.14-.338,1.372-.122-.028-.215.018-.278.14-.09.147-.166.233-.228.258l.077.093c-.07.06-.185.085-.341.073-.246-.013-.376-.019-.394-.019l-.075-.238.855-7.086c.007-.446.03-.748.068-.905-.011-.394.081-.637.275-.73.121.08.274.123.458.126.148.002.381-.029.697-.094.316-.064.535-.096.658-.094.428.007.615.317.562.929-.044.489.033,1.134.229,1.933.204.86.303,1.505.295,1.934-.002.132.041.402.03.534-.185.102-.422.163-.712.184-.254.013-.512.026-.775.039-.067-.665-.185-1.468-.252-2.126-.083-.789-.185-1.438-.308-1.948l-.405,3.747c-.031.323.114.487.438.493.105.002.205-.023.303-.073.079-.026.188.034.325.176-.005.271.049.434.162.489.142-.095.327-.183.556-.267.203-.075.401-.146.594-.214.111.151.182.376.212.674.036.42.062.666.079.736.014.167.083.527.205,1.08.09.439.131.794.127,1.065-.002.132-.014.253-.033.367Z"></path>
        <path d="m60.63,129.99c-.01.026-.012.179-.009.46-.003.227-.033.398-.087.511-.065.174-.099.422-.104.746-.002.07,0,.179.007.328-.003.149-.005.258-.005.328-.009.551-.104.952-.284,1.202.015.141.022.281.019.421-.007.437-.157,1.025-.449,1.764-.079.026-.145.037-.197.036-.105-.002-.18-.062-.226-.18-.046-.12-.091-.232-.132-.338.028-.673.014-1.653-.043-2.94l.08-.077c-.057-.229-.084-.483-.079-.763.004-.201.028-.494.074-.878.046-.384.07-.672.074-.865.002-.122,0-.241-.007-.354-.302.721-.515,1.943-.64,3.664l-.109.26c-.037.087-.111.134-.225.141-.034-.061-.069-.093-.104-.094-.026,0-.073.032-.139.096-.067.064-.122.091-.166.082l-.174.154c.077.098.243.109.498.035.202-.058.305.018.311.228.005.175-.043.411-.144.706-.101.296-.153.518-.155.667-.001.105.01.21.034.315l-.908.142c-.084-.177-.147-.472-.188-.889-.04-.416-.104-.713-.188-.889.054-.06.081-.125.082-.195,0-.061-.023-.154-.074-.277-.051-.123-.079-.216-.087-.277-.008-.096-.038-.329-.094-.697-.039-.298-.057-.531-.054-.697.001-.087.008-.166.017-.236,0-.061-.033-.151-.101-.271-.067-.119-.101-.205-.1-.258,0-.043.019-.082.054-.116-.06-.072-.084-.195-.073-.37.012-.174-.012-.298-.073-.368-.128.339-.197.797-.207,1.375-.005.804-.013,1.269-.024,1.39l.09.081-.093.077c.065.316.093.719.085,1.209-.024.883-.036,1.294-.035,1.233-.124.111-.296.165-.514.161-.271-.005-.456.019-.552.069-.111-.194-.164-.444-.158-.751.004-.236.044-.524.12-.864-.119-.221-.175-.528-.168-.922.002-.096.013-.28.035-.551.013-.218.016-.38.01-.485.088-.043.132-.09.133-.142,0-.036-.027-.095-.083-.179-.056-.084-.083-.148-.082-.191,0-.052.037-.105.108-.156l-.282-4.243c.168-.111.44-.164.817-.157.41.016.691-.006.84-.064.027-.017.057-.026.092-.025.035,0,.076.021.123.061.048.04.08.061.097.061.035,0,.066-.025.094-.077l.245.24c.083.308.16.904.233,1.789.074.763.191,1.338.351,1.726.214-.775.391-1.424.532-1.947l.284-2.077,2.034-.045c.007.115.032.723.087,1.073.047.307.069.557.066.749-.003.219-.038.415-.103.589.069.098.102.22.099.369-.002.149-.039.27-.111.366Z"></path>
        <path d="m64.802,134.589v-.014c-.054.113-.087.244-.098.392-.01.096-.012.232-.007.407.006.201.007.342.007.419-.07,0-.35-.006-.84-.014-.298-.005-.565.02-.802.078l-.244-.266c-.072.068-.099.125-.082.169-.043-.01-.245-.013-.603-.011-.281-.004-.489-.034-.628-.089-.143.147-.309.144-.499-.008-.069-.053-.076-.144-.022-.27.054-.126.039-.22-.047-.283.013-.279.051-.712.113-1.298.061-.524.094-.935.1-1.232.007-.401-.022-.787-.085-1.156.098-.094.208-.141.33-.139.14.002.305.071.495.205.267.188.406.283.415.283l.077.093c.009-.026.055-.165.138-.418.047-.166.114-.274.203-.325l.077.081c.035-.017.15-.098.345-.243.15-.102.273-.345.36-.343.096.002.187.055.273.162.147.081.24.395.285.558.045.163.089.322.13.481-.394.011-.717,0-.97-.03-.063.095-.151.108-.263.041-.113-.068-.195-.058-.25.028-.003.158-.008.442-.014.853-.015.368-.02.656-.014.866.002.324.024.621.063.894.07,0,.402.006.996.016.411.007.765.043,1.061.11Zm.028-6.287c-.078.007-.166.011-.262.009-.201-.003-.468-.035-.798-.093-.411-.059-.659-.094-.747-.104-.126.181-.191.439-.197.771-.012.717-.013,1.027-.002.932.121.072.18.205.177.396-.013.263-.016.398-.007.407-.062.025-.093.112-.096.261-.096-.037-.195-.108-.298-.214-.138-.134-.211.319-.201.207l-.083.269-.078-.08c-.071.007-.19-.03-.359-.111-.169-.081-.288-.158-.357-.229.002-.14.026-.219.069-.235l-.167-.185-.081.116c-.099-.912-.074-2.616.047-3.577.332.058.699.095,1.101.111.27.013.651.019,1.14.019.561.001.963.003,1.208.007.103.098.153.226.151.383-.001.097-.028.251-.08.465-.051.214-.079.373-.08.478Z"></path>
      </g>
      <g>
        <path d="m50.087,142.524v-.006s-.023.196-.069.578c-.022.235-.079.419-.169.553l-.057-.047c-.107.222-.251.358-.434.407-.087.092-.214.143-.379.153-.098.007-.324-.023-.68-.085-.172-.106-.265-.165-.282-.177-.108-.082-.159-.163-.154-.247-.105-.106-.251-.296-.306-.534-.067-.263-.107-.277-.17-.37-.099.073-.135-.082-.192-.174l.052-.041c-.033-.023-.049-.049-.051-.079,0-.02.008-.051.026-.092.019-.04.027-.071.026-.092-.001-.033-.022-.061-.059-.085.039-.206.076-.516.109-.93.07-.037.103-.111.1-.219-.004-.107.011-.179.045-.214.167-.335.438-.56.814-.678.021.004.122.001.303-.004.124-.004.218.008.281.033.113-.019.226.007.338.08.098.073.195.147.293.22.182.199.28.422.294.671.005.083,0,.17-.016.262-.135-.004-.23.084-.287.267l-.524.049c-.056-.079-.089-.186-.097-.32-.003-.045-.002-.112,0-.199.003-.088.003-.154,0-.2-.009-.137-.041-.245-.097-.325l-.157.09c-.064-.026-.097-.063-.1-.113-.001-.016.002-.041.008-.072.006-.032.008-.054.008-.066-.004-.054-.052-.087-.145-.098-.064.591-.083,1.198-.057,1.82.016.02.066.034.149.042.068.009.103.029.104.062,0,.013-.003.029-.013.051l-.052.04c.028.044.045.106.05.185.002.041,0,.106-.005.191-.005.086-.007.15-.004.191.008.125.038.219.094.282-.006.092.032.154.111.187.051-.02.097-.031.138-.033.16-.009.271.078.333.262,0,.004,0,.035-.002.094.002.033.018.055.05.066.07-.041.105-.117.103-.225-.001-.125.014-.204.048-.241-.008-.057-.043-.14-.104-.25-.061-.109-.092-.194-.096-.256-.003-.066.016-.13.059-.191-.037-.011-.054-.035-.051-.072.002-.058.003-.09.003-.094.285-.07.574-.072.869-.006Z"></path>
        <path d="m52.461,143.011h-.007c-.031.06-.04.146-.029.257.014.158.022.238.022.243-.024.01-.056-.002-.097-.035-.061.023-.09.062-.087.115,0,.008.004.021.01.041.001.023.002.038.003.046.003.042-.01.074-.037.095-.07-.039-.162-.063-.275-.074-.114-.012-.222-.021-.324-.031,0-.526-.072-1.042-.212-1.544,0,.003-.003-.048-.01-.157.001-.077-.017-.132-.052-.165l-.048.043c0-.008.015-.023.048-.046.033-.023.048-.047.047-.07-.001-.011-.004-.023-.01-.035l-.053-.037c-.09.028-.131.101-.124.216.004.077-.026.132-.092.163.025.018.038.039.04.067.001.015-.001.037-.007.064-.005.028-.007.049-.007.065.002.034.02.062.055.084.002.023.013.231.036.625.015.251.008.464-.02.639l.005.098c-.034-.001-.073-.001-.115.001-.048.003-.117.01-.208.021-.092.011-.158.018-.201.02-.177.01-.301-.02-.373-.089l-.074-2.161c-.035-.106-.058-.254-.069-.443l-.024-.416c-.017-.205-.043-.362-.079-.472.015-.075.08-.115.195-.121.072-.004.169.005.29.029.056-.027.135-.043.235-.049.028-.001.074-.002.137-.001.068-.004.116-.007.144-.009.187-.012.311-.069.373-.173.086,0,.18.027.282.083.101.056.191.086.269.089.203.12.314.318.33.596.003.062-.02.307-.073.736l-.35.305c.059.109.131.347.215.714.071.306.177.53.32.672Zm-.647-2.459l.007.005c.007.026.003-.068-.009-.284-.006-.104-.044-.179-.114-.226-.04.057.005.083-.013.214-.019.131-.096.094-.141.151-.121-.001-.148.071-.174-.043-.054-.187-.101-.17-.101-.174l-.051.031c-.019.016-.039.036-.062.056-.022.02-.046.028-.071.021.002.024-.01.06-.033.11-.024.05-.035.085-.034.104.003.035.03.06.084.077-.01.078-.013.159-.008.244.003.046.014.152.033.317.022.131.031.243.026.335.044.002.085.002.124,0,.167-.009.277-.076.327-.199.017-.036.036-.165.057-.387.018-.167.07-.285.153-.351Z"></path>
        <path d="m55.185,143.85c-.069-.019-.142-.027-.218-.022-.067.004-.157.021-.271.051-.128.031-.216.049-.264.056-.058-.078-.103-.187-.135-.33-.055-.206-.088-.322-.099-.348.013-.023.018-.043.018-.059-.003-.042-.047-.077-.133-.106-.086-.028-.129-.052-.13-.071-.001-.023.044-.061.138-.112-.025-.022-.047-.067-.062-.139-.017-.07-.041-.116-.077-.138-.055.046-.148.079-.279.101-.131.021-.217.044-.26.07.027.3,0,.828-.118.939-.068-.008-.117.016-.147.072-.044.069-.083.11-.115.123l.045.038c-.036.029-.098.044-.185.046-.135.004-.206.006-.216.007l-.049-.102.202-3.475c-.011-.197-.009-.33.006-.401-.02-.173.022-.284.124-.333.07.031.154.043.255.038.082-.006.208-.027.378-.068.171-.041.29-.064.357-.068.235-.013.349.115.34.387-.007.218.058.499.194.843.141.37.218.651.229.84.003.058.08.18.079.238-.099.052-.226.089-.384.11-.139.016-.279.032-.423.048-.06-.291-.196-.644-.256-.931-.073-.345-.152-.626-.237-.846l-.091,1.667c-.006.143.079.209.256.199.057-.003.112-.018.164-.044.043-.014.104.007.184.064.007.121.042.19.106.209.074-.047.172-.093.295-.139.108-.041.215-.08.318-.117.066.062.112.158.14.289.035.183.057.29.069.321.014.073.064.229.149.468.064.189.1.344.107.464.003.058.001.112-.005.163Z"></path>
        <path d="m57.17,139.907h.008c-.058.085-.131.1-.221.048-.019-.003-.106.002-.259.015-.129.007-.223.001-.282-.018-.015.001-.043.015-.084.042-.042.028-.072.042-.091.044-.029.002-.045-.023-.048-.073,0-.008-.002-.041-.005-.098-.003-.04-.021-.066-.055-.079l-.09.069c-.028.021-.041.044-.039.066.001.019.017.047.048.081.031.035.048.06.054.076.001.011.011.185.03.521.008.212.047.382.117.51.017-.02.061-.032.131-.034.07-.002.115-.018.138-.046.046.04.121.042.227.007.106-.035.183-.023.23.036l-.014.512c-.043-.005-.107-.026-.191-.064-.025.075-.073.122-.143.142-.029.01-.11.018-.244.026.004-.024-.017-.047-.062-.072-.131.062-.18.21-.147.444.003-.023.008.017.014.121.004.066-.01.113-.042.142-.081.012-.185-.006-.31-.054-.125-.049-.215-.072-.267-.069-.024.002-.046.005-.064.009l-.135.043-.215-2.34-.026-.445c.179-.061.4-.099.664-.115.207-.011.476-.01.809.006.021-.044.061.013.108.01.025-.001.061.001.109.009.049.006.085.01.109.008.029-.002.055-.007.079-.016l.034-.036c.098.029.149.08.153.153.001.031-.007.084-.027.159-.02.074-.028.131-.026.169.003.035.012.065.027.091Zm-.84,3.903c-.052.027-.131.043-.236.049-.139.008-.222.014-.251.02-.015-.015-.034-.003-.065-.125-.019-.08-.07-.118-.151-.113-.02.001-.043.005-.072.01l-.129.007-.069-1.184c.071-.035.158-.056.264-.062.101-.005.19.005.269.031-.002.043.059.061.183.053l.137-.008c.082.332.131.933.121,1.321Z"></path>
        <path d="m60.047,140.009l.007.005c-.068-.004-.285.011-.452.032-.143.016-.251.019-.324.008-.069.046-.095.11-.075.19l.045.026c-.036.033-.05.059-.039.078l.038.038c-.009.686-.011,1.065-.006,1.139.01.181.032.34.063.478-.028.087-.039.186-.033.298.005.073.022.19.052.348.031.159.073.681.077.762.004.062.002.121-.005.175-.066.027-.137.043-.214.047-.129.008-.268-.019-.415-.081-.019.017-.039.035-.062.053-.023.019-.03.04-.018.062-.047.015-.113-.005-.198-.058-.045-.695-.17-2.11-.353-3.539-.064.058-.184.01-.308.025-.148.016-.293-.006-.35.02-.071-.078-.056-.1-.063-.227-.007-.123-.047-.428-.015-.555.006-.027.275-.012.433-.024.215-.013.263.039.278.037.017-.028.123-.013.199-.018.049.024.102-.022.105.013.002.023,0,.169-.016.211-.017.041-.025.072-.024.091.003.047.036-.022.114.005.087-.001.175-.004.266-.01.102.009.219-.028.209.059.017-.025.029.019.174-.04.108-.049.174-.176.152-.263-.012-.048.053-.078.013-.055.051-.029.005-.009.061-.031.18.016.279-.002.313-.005.073-.005.251.042.302.016.038.067.056.279.058.395.006.186.009.284.011.296Z"></path>
        <path d="m62.377,142.424v-.006c-.027.052-.04.111-.041.176-.003.043,0,.103.01.18.01.088.016.15.018.185-.039.002-.192.011-.461.026-.163.01-.308.032-.436.066l-.143-.108c-.037.033-.05.059-.04.078-.024-.003-.134.003-.33.019-.154.009-.269.004-.348-.015-.073.07-.164.075-.273.016-.04-.02-.047-.06-.021-.117.025-.058.013-.099-.036-.124-.002-.123.003-.315.017-.575.016-.233.019-.415.011-.547-.01-.177-.04-.346-.087-.506.05-.046.109-.07.176-.074.077-.005.17.019.28.071.152.072.232.109.237.109l.045.037c.004-.011.024-.075.061-.19.02-.074.053-.124.1-.151l.045.032c.019-.008.079-.048.181-.12.078-.051.133-.238.18-.241.053-.004.105.017.155.06.083.03.149.241.18.311.031.07.06.139.088.207-.216.021-.393.029-.532.025-.031.045-.079.054-.143.029-.064-.025-.109-.018-.136.023.005.069.012.194.022.376.005.162.012.289.022.382.013.143.035.273.066.391.039-.002.221-.013.547-.032.225-.013.42-.011.585.006Zm-.223-2.723c-.043.007-.091.011-.144.015-.11.006-.257.002-.441-.01-.226-.01-.364-.015-.413-.017-.062.085-.07.154-.062.301.018.316.029.453.031.41.069.027.106.083.111.168.002.116.005.175.01.179-.033.013-.048.053-.043.119-.054-.012-.111-.04-.171-.083-.081-.053-.106.136-.104.086l-.036.118-.046-.033c-.038.006-.104-.005-.2-.035-.096-.029-.164-.058-.204-.087-.003-.062.006-.097.03-.106l-.098-.076-.04.054c-.086-.398-.142-1.099-.109-1.526.183.013.398-.019.618-.028.149-.005.358-.017.626-.036.306-.022.526-.036.66-.044.06.039.093.093.096.162.003.044-.006.112-.027.208-.021.096-.048.214-.045.26Z"></path>
        <path d="m64.769,142.013h-.007c-.031.061-.04.146-.029.258.014.158.021.239.021.243-.023.009-.055-.002-.096-.035-.061.022-.09.061-.087.115,0,.008.004.021.01.041.001.023.002.039.002.046.003.043-.01.074-.038.095-.069-.039-.162-.064-.275-.074-.114-.011-.221-.022-.322-.031-.002-.526-.073-1.041-.212-1.544,0,.004-.003-.048-.009-.156,0-.077-.017-.132-.053-.165l-.048.043c0-.008.015-.023.048-.046.032-.023.048-.046.046-.07,0-.011-.004-.023-.009-.035l-.053-.037c-.09.028-.131.101-.124.217.005.077-.026.131-.091.162.024.018.038.041.04.068,0,.015-.002.037-.007.064-.006.027-.008.049-.007.064.002.035.02.063.056.084,0,.023.013.232.036.625.015.251.008.465-.02.641l.006.098c-.034-.002-.072-.002-.115,0-.048.003-.117.01-.208.021-.091.011-.157.018-.201.021-.177.01-.302-.02-.373-.09l-.075-2.162c-.035-.106-.058-.254-.069-.443l-.024-.417c-.017-.204-.042-.362-.078-.471.015-.074.08-.115.195-.122.072-.004.169.006.291.03.056-.027.134-.043.235-.049.03-.001.075-.002.138-.002.067-.004.115-.007.144-.009.187-.01.311-.068.372-.172.086-.001.181.026.282.082.102.056.191.086.269.089.204.121.313.319.329.597.004.061-.02.307-.073.736l-.35.305c.06.109.131.347.215.714.07.305.178.53.32.672Zm-.648-2.459l.008.006c.007.026.004-.068-.009-.285-.006-.104-.044-.179-.114-.225-.04.056-.047-.075-.066.056-.019.132-.051.225-.096.282-.121,0-.148-.073-.219-.173-.045-.064-.067-.008-.067-.012l-.033.026c-.018.017-.039.035-.062.056-.022.021-.046.028-.071.022.001.022-.01.059-.034.109-.023.05-.035.084-.033.103.002.035.03.06.084.077-.01.078-.012.16-.007.245.003.046.013.152.033.318.022.13.031.242.027.335.043.002.084.001.123,0,.168-.01.276-.077.327-.199.017-.036.036-.165.057-.386.019-.168.07-.284.153-.352Z"></path>
      </g>
      <g>
        <path d="m40.923,132.043v.005c-.021.201-.029.34-.021.417-.031.011-.071.013-.12.005-.064-.011-.101-.016-.112-.015-.028,0-.05.011-.066.03-.04-.026-.068-.037-.081-.033-.038.023-.056.056-.053.097.002.018.007.048.021.09.012.044.019.076.02.096.002.028-.004.072-.016.132-.013.06-.018.11-.017.148.003.045.012.117.03.214.017.096.027.171.029.22-.02.096-.027.193-.022.29.005.119.038.278.097.478.011.003.022.004.032.003.024-.001.053-.018.087-.051.033-.033.062-.05.086-.051.018,0,.037.003.058.012.063.203.096.335.099.394.002.028,0,.058-.001.089-.093.022-.16-.009-.199-.095.006-.025-.008-.05-.041-.077l-.105.11c.103.016.143.095.122.236-.009.029-.031.044-.066.045-.06,0-.088,0-.084,0l-.086-.153-.035.043c-.028-.072-.061-.107-.1-.105-.021.001-.058.019-.111.053-.052.034-.096.052-.13.053-.028.002-.056-.005-.086-.022-.002-.042-.007-.085-.014-.13-.008-.045-.031-.074-.07-.086-.002-.108.001-.393.009-.857.003-.35,0-.634-.011-.85-.004-.091-.011-.18-.019-.267-.019-.027-.037-.04-.055-.039-.014.001-.035.016-.063.045-.028.03-.053.043-.074.04-.001-.035-.017-.091-.047-.168-.031-.077-.047-.133-.048-.168-.003-.06.019-.112.066-.156l.122.031c.049-.07.069-.186.061-.35-.001-.031-.006-.081-.013-.149-.007-.068-.012-.118-.012-.149-.014-.269.068-.408.247-.417.066-.004.148.008.243.035l.117.031c.01.045.015.091.018.141.003.067,0,.164-.009.293-.009.128-.013.222-.01.28.005.095.021.18.049.255.028,0,.072-.016.132-.046.06-.029.103-.045.131-.046.049-.002.089.021.119.067Zm-.365.376l-.006-.12-.038-.035.044.155Z"></path>
        <path d="m42.364,131.665h.005c-.012.095-.027.19-.043.286-.019.109-.05.195-.092.256-.007-.003-.05-.023-.128-.061-.055-.029-.102-.04-.144-.035-.031.205-.048.485-.052.838-.002.452-.006.725-.012.82-.053-.004-.092.013-.118.051-.027.038-.051.077-.073.116-.009.022-.014.041-.013.059,0,.028.025.055.072.08.047.026.071.055.072.086-.02.075-.064.113-.13.117-.031.001-.086-.007-.164-.028-.078-.021-.133-.03-.165-.029l-.075-1.498c.029-.04.042-.067.038-.081l-.044-.03c.003-.062.008-.377.01-.941.002-.381.016-.691.043-.926-.004,0,.104-.007.324-.022.136-.007.224.031.263.113.001.077-.007.207-.022.39-.016.168-.022.299-.018.39.006.111.024.213.052.302.118-.16.256-.245.413-.252Zm.52.321c.011.14.019.275.026.408.03.58.02,1.2-.027,1.861-.05.045-.128.054-.232.03-.104-.024-.18-.015-.227.029-.06-.076-.095-.217-.105-.42-.015-.293-.023-.445-.023-.456-.013-.735.059-1.329.215-1.781.18.047.305.156.374.328Z"></path>
        <path d="m44.722,132.747c-.023.046-.032.096-.03.148.003.053.005.103.008.153-.005.041-.017.083-.035.127-.032-.008-.059-.013-.079-.011-.025.001-.05.01-.075.028-.025.017-.045.026-.059.026-.021.001-.049-.007-.085-.022l-.244-.356c.009.105.033.196.072.275.02.041.039.082.059.123-.142.025-.223.029-.242.012l-.034.044-.084-.112c-.067.081-.082.199-.045.355.044.169.046.291.008.367.053.078.116.115.189.111.032-.002.059-.014.082-.035.034-.086.069-.172.103-.258.05-.104.107-.157.17-.161.049-.002.107.023.172.075.079.027.119.065.121.109.002.029-.017.074-.053.137-.037.064-.054.113-.053.148,0,.014.003.026.006.036-.051.037-.096.094-.135.17-.04.075-.093.127-.158.155-.056.056-.109.084-.158.087-.038.002-.096-.027-.173-.089-.076-.06-.148-.09-.214-.086-.028-.061-.096-.13-.204-.205-.109-.075-.176-.155-.201-.242,0,.007-.001-.02-.004-.084-.003-.035-.017-.057-.046-.066l.04-.039c-.052,0-.08-.03-.083-.091-.001-.006-.001-.02-.002-.042.002-.018.003-.031.003-.041-.002-.042-.016-.071-.041-.088l-.009-.183c-.004-.095-.024-.162-.058-.202.035-.222.069-.445.103-.667.057-.259.142-.391.253-.397.018,0,.035.003.053.008.1-.1.222-.153.365-.16.157-.007.331.04.522.143.149.244.241.51.277.8Zm-.722-.579l-.035.044c-.024.005-.053-.008-.086-.038l.006.121c-.053.058-.074.149-.065.271.011.21.015.31.015.304l.157-.003c.075-.042.109-.112.105-.21-.002-.049-.019-.129-.051-.242-.031-.112-.047-.195-.046-.248Z"></path>
      </g>
      <g>
        <polygon class="cls-43" points="45.952 138.033 46.109 138.123 46.638 136.733 46.461 136.674 45.932 138.064 46.086 138.162 45.952 138.033 45.952 138.033 45.952 138.033"></polygon>
        <polygon class="cls-43" points="46.184 137.84 46.12 137.866 45.952 138.033 46.086 138.162 46.257 137.985 46.19 138.019 46.184 137.84 46.184 137.84 46.184 137.84"></polygon>
        <polygon class="cls-43" points="47.465 137.829 47.541 137.771 46.184 137.84 46.19 138.019 47.546 137.95 47.633 137.886 47.465 137.829 47.465 137.829 47.465 137.829 47.465 137.829"></polygon>
        <polygon class="cls-43" points="48.078 136.552 47.985 136.437 47.465 137.829 47.633 137.886 48.162 136.495 48.07 136.381 48.078 136.552 48.078 136.552 48.078 136.552 48.078 136.552"></polygon>
        <polygon class="cls-43" points="46.786 136.596 46.718 136.629 48.078 136.552 48.07 136.381 46.716 136.442 46.649 136.476 46.786 136.596 46.786 136.596 46.786 136.596 46.786 136.596"></polygon>
        <polygon class="cls-43" points="46.638 136.733 46.618 136.763 46.786 136.596 46.649 136.476 46.481 136.644 46.461 136.674 46.638 136.733 46.638 136.733 46.638 136.733 46.638 136.733"></polygon>
        <polygon class="cls-43" points="47.764 137.995 47.884 137.942 47.594 137.78 47.501 137.944 47.801 138.11 47.932 138.051 47.756 137.992 47.756 137.992 47.764 137.995 47.764 137.995"></polygon>
        <polygon class="cls-43" points="48.332 136.711 48.285 136.602 47.756 137.992 47.932 138.051 48.461 136.661 48.413 136.552 48.332 136.711 48.332 136.711 48.332 136.711"></polygon>
        <polygon class="cls-43" points="48.162 136.495 48.031 136.554 48.332 136.711 48.413 136.552 48.122 136.39 47.985 136.437 48.162 136.495 48.162 136.495 48.162 136.495"></polygon>
        <polygon points="46.553 136.705 46.545 136.702 46.713 136.534 47.972 136.473 47.985 136.437 48.078 136.468 48.162 136.495 48.156 136.511 48.377 136.633 48.461 136.661 48.427 136.751 49.042 138.216 48.522 139.608 47.848 138.023 47.848 138.023 47.761 138.059 47.756 137.992 47.762 137.976 47.55 137.858 47.501 137.944 47.475 137.861 46.184 137.925 46.016 138.092 46.553 136.705"></polygon>
        <polygon class="cls-43" points="48.438 139.58 48.608 139.573 47.935 137.987 47.761 138.059 48.435 139.645 48.605 139.637 48.43 139.578 48.43 139.578 48.438 139.58 48.438 139.58"></polygon>
        <polygon class="cls-43" points="48.964 138.256 48.958 138.188 48.43 139.578 48.605 139.637 49.134 138.247 49.129 138.18 48.964 138.256 48.964 138.256 48.964 138.256"></polygon>
        <polygon class="cls-43" points="48.461 136.661 48.29 136.67 48.964 138.256 49.129 138.18 48.455 136.594 48.285 136.602 48.461 136.661 48.461 136.661 48.461 136.661"></polygon>
        <polygon class="cls-30" points="48.416 137.019 48.491 137.184 48.52 137.352 48.511 137.517 48.463 137.687 48.38 137.855 48.265 138.003 48.117 138.14 47.938 138.258 47.839 138.3 47.741 138.342 47.633 138.361 47.532 138.383 47.434 138.397 47.328 138.409 47.23 138.394 47.129 138.388 47.042 138.369 46.95 138.338 46.861 138.3 46.782 138.254 46.715 138.204 46.64 138.15 46.579 138.084 46.528 138.011 46.452 137.846 46.424 137.678 46.425 137.51 46.481 137.343 46.553 137.18 46.671 137.024 46.819 136.887 47.007 136.772 47.097 136.728 47.203 136.688 47.303 136.665 47.404 136.644 47.51 136.632 47.608 136.619 47.706 136.632 47.806 136.638 47.898 136.669 47.991 136.7 48.075 136.728 48.162 136.775 48.232 136.818 48.304 136.879 48.355 136.952 48.416 137.019 48.416 137.019 48.416 137.019 48.416 137.019"></polygon>
        <polygon class="cls-43" points="48.483 137.293 48.558 137.458 48.584 137.635 48.575 137.799 48.53 137.962 48.455 138.132 48.329 138.286 48.192 138.418 48.004 138.532 47.904 138.582 47.806 138.624 47.705 138.646 47.596 138.666 47.499 138.68 47.404 138.686 47.303 138.68 47.197 138.663 47.11 138.644 47.017 138.613 46.936 138.576 46.849 138.529 46.779 138.487 46.715 138.428 46.651 138.369 46.596 138.285 46.517 138.128 46.489 137.961 46.5 137.787 46.545 137.625 46.62 137.455 46.735 137.306 46.884 137.169 47.071 137.054 47.172 137.004 47.267 136.971 47.37 136.94 47.479 136.92 47.574 136.915 47.672 136.901 47.77 136.915 47.871 136.92 47.966 136.943 48.059 136.974 48.139 137.011 48.229 137.049 48.296 137.1 48.371 137.154 48.422 137.226 48.48 137.301 48.48 137.301 48.483 137.293 48.483 137.293"></polygon>
        <polygon class="cls-30" points="48.53 137.486 48.609 137.643 48.634 137.819 48.626 137.984 48.581 138.146 48.497 138.314 48.38 138.47 48.242 138.601 48.055 138.717 47.963 138.769 47.857 138.809 47.755 138.831 47.646 138.85 47.549 138.864 47.453 138.87 47.353 138.864 47.247 138.848 47.16 138.828 47.068 138.797 46.987 138.761 46.9 138.713 46.83 138.671 46.757 138.609 46.704 138.546 46.645 138.47 46.567 138.313 46.539 138.145 46.547 137.98 46.596 137.81 46.671 137.639 46.788 137.483 46.942 137.357 47.121 137.24 47.222 137.189 47.32 137.147 47.421 137.125 47.53 137.105 47.628 137.091 47.722 137.085 47.831 137.094 47.921 137.105 48.016 137.128 48.108 137.158 48.198 137.198 48.276 137.243 48.346 137.285 48.422 137.338 48.472 137.41 48.53 137.486 48.53 137.486 48.53 137.486"></polygon>
        <polygon class="cls-43" points="48.598 137.76 48.673 137.925 48.701 138.093 48.701 138.261 48.645 138.428 48.572 138.591 48.446 138.744 48.307 138.885 48.119 138.999 48.029 139.043 47.923 139.083 47.823 139.105 47.722 139.127 47.616 139.139 47.518 139.153 47.42 139.139 47.319 139.133 47.224 139.111 47.132 139.08 47.051 139.043 46.964 138.996 46.897 138.945 46.83 138.895 46.769 138.828 46.709 138.752 46.643 138.59 46.606 138.419 46.615 138.254 46.662 138.084 46.743 137.925 46.861 137.768 47.009 137.631 47.188 137.514 47.286 137.471 47.385 137.43 47.493 137.41 47.594 137.387 47.692 137.374 47.795 137.371 47.895 137.377 47.988 137.379 48.083 137.403 48.175 137.433 48.265 137.471 48.343 137.517 48.419 137.57 48.486 137.62 48.547 137.687 48.595 137.768 48.595 137.768 48.598 137.76 48.598 137.76"></polygon>
        <polygon class="cls-30" points="48.696 137.942 48.774 138.099 48.802 138.267 48.799 138.443 48.754 138.605 48.67 138.773 48.544 138.926 48.407 139.058 48.228 139.176 48.128 139.226 48.021 139.265 47.921 139.287 47.82 139.309 47.714 139.32 47.619 139.326 47.518 139.32 47.42 139.307 47.325 139.284 47.232 139.253 47.151 139.217 47.07 139.181 46.995 139.127 46.931 139.068 46.869 139.001 46.819 138.929 46.74 138.772 46.707 138.593 46.715 138.428 46.769 138.269 46.844 138.098 46.961 137.941 47.107 137.812 47.286 137.695 47.387 137.645 47.485 137.603 47.591 137.592 47.694 137.561 47.792 137.547 47.895 137.544 47.997 137.55 48.086 137.562 48.181 137.583 48.282 137.617 48.363 137.654 48.443 137.69 48.52 137.744 48.584 137.802 48.645 137.869 48.696 137.942 48.696 137.942 48.696 137.942"></polygon>
        <polygon class="cls-43" points="48.771 138.219 48.838 138.381 48.875 138.552 48.866 138.717 48.818 138.887 48.737 139.047 48.62 139.203 48.471 139.34 48.292 139.458 48.194 139.5 48.088 139.539 47.987 139.561 47.887 139.583 47.789 139.598 47.683 139.608 47.585 139.595 47.484 139.589 47.397 139.569 47.296 139.536 47.215 139.499 47.138 139.455 47.062 139.402 46.995 139.351 46.933 139.283 46.883 139.211 46.807 139.046 46.771 138.875 46.779 138.71 46.836 138.542 46.909 138.381 47.026 138.224 47.174 138.087 47.362 137.972 47.451 137.927 47.558 137.888 47.658 137.866 47.759 137.844 47.865 137.833 47.963 137.819 48.061 137.833 48.152 137.836 48.257 137.86 48.349 137.891 48.43 137.928 48.508 137.973 48.584 138.026 48.651 138.076 48.712 138.144 48.771 138.219 48.771 138.219 48.771 138.219 48.771 138.219"></polygon>
        <polygon class="cls-43" points="39.525 136.085 39.534 136.031 39.002 137.429 39.17 137.485 39.702 136.087 39.704 136.051 39.525 136.085 39.525 136.085 39.525 136.085 39.525 136.085"></polygon>
        <polygon class="cls-43" points="39.512 136.014 39.514 136.006 39.525 136.085 39.704 136.051 39.685 135.97 39.688 135.961 39.512 136.014 39.512 136.014 39.512 136.014 39.512 136.014"></polygon>
        <polygon class="cls-43" points="39.492 135.933 39.512 136.014 39.688 135.961 39.668 135.88 39.492 135.933 39.492 135.933 39.492 135.933 39.492 135.933"></polygon>
        <polygon class="cls-43" points="39.47 135.86 39.492 135.933 39.668 135.88 39.646 135.807 39.47 135.86 39.47 135.86 39.47 135.86"></polygon>
        <polygon class="cls-43" points="39.45 135.779 39.45 135.779 39.47 135.86 39.646 135.807 39.626 135.726 39.623 135.734 39.45 135.779 39.45 135.779 39.45 135.779 39.45 135.779"></polygon>
        <polygon class="cls-43" points="39.428 135.679 39.428 135.706 39.45 135.779 39.623 135.734 39.602 135.662 39.61 135.693 39.428 135.679 39.428 135.679 39.428 135.679"></polygon>
        <polygon class="cls-43" points="39.607 135.645 39.43 135.614 39.428 135.679 39.61 135.693 39.612 135.628 39.436 135.597 39.604 135.654 39.604 135.654 39.607 135.645 39.607 135.645"></polygon>
        <polygon class="cls-33" points="39.759 139.715 39.743 139.625 39.556 139.656 39.569 139.754 39.759 139.715 39.759 139.715 39.759 139.715 39.759 139.715"></polygon>
        <polygon class="cls-43" points="40.149 138.549 40.154 138.504 39.626 139.894 39.793 139.949 40.322 138.56 40.319 138.512 40.149 138.549 40.149 138.549 40.149 138.549 40.149 138.549"></polygon>
        <polygon class="cls-43" points="40.135 138.451 40.149 138.549 40.319 138.512 40.305 138.414 40.126 138.448 40.126 138.448 40.135 138.451 40.135 138.451"></polygon>
        <polygon class="cls-43" points="40.11 138.358 40.126 138.448 40.305 138.414 40.28 138.322 40.11 138.358 40.11 138.358 40.11 138.358 40.11 138.358"></polygon>
        <polygon class="cls-43" points="40.087 138.258 40.093 138.269 40.11 138.358 40.28 138.322 40.266 138.224 40.272 138.236 40.087 138.258 40.087 138.258 40.087 138.258 40.087 138.258"></polygon>
        <polygon class="cls-43" points="40.255 138.174 40.076 138.151 40.087 138.258 40.272 138.236 40.258 138.138 40.079 138.115 40.255 138.174 40.255 138.174 40.255 138.174"></polygon>
        <g>
          <polygon class="cls-32" points="39.003 137.152 38.918 137.178 39.003 137.152 39.003 137.152"></polygon>
          <polygon class="cls-32" points="39.092 137.444 39.094 137.435 39.138 137.438 39.17 137.485 39.092 137.459 39.092 137.444"></polygon>
          <polygon points="38.899 137.096 38.988 137.079 38.991 137.015 39.523 135.617 39.52 135.625 39.52 135.681 39.535 135.752 39.563 135.835 39.584 135.908 39.604 135.989 39.618 136.059 39.618 136.059 39.702 136.087 39.17 137.485 39.138 137.438 39.094 137.435 39.092 137.444 39.092 137.459 39.17 137.485 39.092 137.481 39.094 137.544 39.04 137.477 38.997 137.474 38.985 137.396 39.017 137.389 39.052 137.299 38.964 137.323 38.938 137.259 38.918 137.178 39.003 137.152 39.003 137.152 38.918 137.178 38.921 137.169 38.899 137.096"></polygon>
        </g>
        <g>
          <polygon class="cls-1" points="43.228 137.478 43.228 137.478 43.304 137.308 43.228 137.478"></polygon>
          <polygon points="39.089 137.365 42.982 137.238 43.082 137.244 43.099 137.249 43.195 137.272 43.203 137.274 43.304 137.308 43.401 137.35 43.41 137.352 43.503 137.411 43.519 137.417 43.592 137.478 43.614 137.495 43.667 137.559 43.673 137.571 43.709 137.63 43.712 137.649 43.54 137.701 43.513 137.657 43.51 137.666 43.465 137.605 43.466 137.604 43.407 137.557 43.421 137.571 43.326 137.521 43.326 137.52 43.228 137.478 43.228 137.478 43.144 137.451 43.049 137.428 43.066 137.434 42.976 137.422 42.976 137.414 39.094 137.544 39.089 137.365"></polygon>
          <polygon points="43.535 137.702 43.54 137.701 43.55 137.716 43.535 137.702"></polygon>
        </g>
        <polygon class="cls-43" points="45.616 140.969 45.616 140.914 45.084 142.313 45.26 142.371 45.792 140.973 45.792 140.917 45.616 140.969 45.616 140.969 45.616 140.969 45.616 140.969"></polygon>
        <polygon class="cls-43" points="44.079 136.326 44.067 136.304 45.616 140.969 45.792 140.917 44.244 136.251 44.241 136.231 44.079 136.326 44.079 136.326 44.079 136.326 44.079 136.326"></polygon>
        <polygon class="cls-43" points="44.048 136.279 44.042 136.268 44.079 136.326 44.241 136.231 44.204 136.173 44.196 136.17 44.039 136.276 44.039 136.276 44.048 136.279 44.048 136.279"></polygon>
        <polygon class="cls-43" points="44.011 136.22 43.997 136.207 44.039 136.276 44.196 136.17 44.137 136.094 44.123 136.08 44.011 136.22 44.011 136.22 44.011 136.22 44.011 136.22"></polygon>
        <polygon class="cls-43" points="43.95 136.181 43.936 136.168 44.011 136.22 44.123 136.08 44.048 136.027 44.034 136.013 43.95 136.181 43.95 136.181 43.95 136.181"></polygon>
        <polygon class="cls-43" points="43.866 136.125 43.858 136.122 43.95 136.181 44.034 136.013 43.939 135.963 43.931 135.959 43.866 136.125 43.866 136.125 43.866 136.125"></polygon>
        <polygon class="cls-43" points="43.776 136.086 43.757 136.089 43.866 136.125 43.931 135.959 43.832 135.919 43.824 135.915 43.765 136.092 43.765 136.092 43.776 136.086 43.776 136.086"></polygon>
        <polygon class="cls-43" points="43.675 136.052 43.665 136.058 43.765 136.092 43.824 135.915 43.724 135.882 43.724 135.882 43.673 136.06 43.673 136.06 43.675 136.052 43.675 136.052"></polygon>
        <polygon class="cls-43" points="43.598 136.035 43.581 136.03 43.673 136.06 43.724 135.882 43.62 135.856 43.611 135.854 43.598 136.035 43.598 136.035 43.598 136.035 43.598 136.035"></polygon>
        <polygon class="cls-43" points="43.508 136.025 43.505 136.033 43.598 136.035 43.611 135.854 43.513 135.84 43.503 135.845 43.508 136.025 43.508 136.025 43.508 136.025"></polygon>
        <polygon class="cls-43" points="39.71 136.09 39.615 136.151 43.508 136.025 43.503 135.845 39.618 135.975 39.534 136.031 39.702 136.087 39.702 136.087 39.71 136.09 39.71 136.09"></polygon>
        <polygon class="cls-32" points="40.688 140.341 40.675 140.335 40.683 140.33 40.688 140.341"></polygon>
        <g>
          <polygon class="cls-32" points="42.79 140.971 42.774 141.159 42.79 140.971 42.79 140.971"></polygon>
          <g>
            <polygon class="cls-1" points="42.783 141.06 42.774 141.159 42.783 141.06 42.783 141.06"></polygon>
            <g>
              <polygon class="cls-1" points="39.628 139.547 39.634 139.534 39.637 139.551 39.628 139.547"></polygon>
              <path d="m39.569,139.754l.017.09.034.095.042.071.238.125.237.127.23.122.232.115.008.002.235.107.235.106.254.104.258.095.008.003.274.073.275.072.009.003.302.045.311.048.008.002.338.02.012-.006.361.008.386-.011.408-.022.084-.056.529-1.39-.09-.123.005.179-.028-.035.02-.052-.059.004-.025-.032-.013.034-.304.019h-.391l-.361-.009-.329-.017-.322-.042-.299-.053-.274-.073-.274-.073-.257-.094-.249-.093-.235-.106-.232-.115-.24-.117-.229-.123-.229-.124-.159-.084.005-.014-.084-.028h0l-.022-.101-.016-.09-.007-.03.063-.137-.088-.029-.004-.002h0l-.084-.028-.529,1.39-.005.044.014.099.011.106Zm.065-.22l.003.017-.009-.004.006-.013Z"></path>
            </g>
          </g>
        </g>
        <polygon class="cls-43" points="44.399 139.781 44.808 139.758 44.803 139.579 44.394 139.602 44.399 139.781 44.399 139.781 44.399 139.781 44.399 139.781"></polygon>
        <polygon class="cls-43" points="44.014 139.791 44.399 139.781 44.394 139.602 44.008 139.613 44.014 139.791 44.014 139.791 44.014 139.791 44.014 139.791"></polygon>
        <polygon class="cls-43" points="43.644 139.78 43.653 139.783 44.014 139.791 44.008 139.613 43.647 139.604 43.658 139.599 43.641 139.789 43.641 139.789 43.644 139.78 43.644 139.78"></polygon>
        <polygon class="cls-43" points="43.297 139.758 43.306 139.761 43.641 139.789 43.658 139.599 43.32 139.579 43.328 139.582 43.297 139.758 43.297 139.758 43.297 139.758 43.297 139.758"></polygon>
        <polygon class="cls-43" points="42.984 139.719 43.297 139.758 43.328 139.582 43.018 139.534 42.984 139.719 42.984 139.719 42.984 139.719"></polygon>
        <polygon class="cls-43" points="42.676 139.662 42.685 139.666 42.984 139.719 43.018 139.534 42.708 139.487 42.716 139.489 42.676 139.662 42.676 139.662 42.676 139.662 42.676 139.662"></polygon>
        <polygon class="cls-43" points="42.403 139.59 42.676 139.662 42.716 139.489 42.442 139.417 42.399 139.598 42.399 139.598 42.403 139.59 42.403 139.59"></polygon>
        <polygon class="cls-43" points="42.117 139.522 42.126 139.525 42.399 139.598 42.442 139.417 42.168 139.344 42.176 139.346 42.117 139.522 42.117 139.522 42.117 139.522"></polygon>
        <polygon class="cls-43" points="41.86 139.427 41.86 139.427 42.117 139.522 42.176 139.346 41.919 139.251 41.927 139.253 41.852 139.425 41.852 139.425 41.86 139.427 41.86 139.427"></polygon>
        <polygon class="cls-43" points="41.605 139.323 41.852 139.425 41.927 139.253 41.681 139.153 41.605 139.323 41.605 139.323 41.605 139.323"></polygon>
        <polygon class="cls-43" points="41.371 139.217 41.605 139.323 41.681 139.153 41.443 139.055 41.371 139.217 41.371 139.217 41.371 139.217"></polygon>
        <polygon class="cls-43" points="41.13 139.1 41.136 139.111 41.371 139.217 41.443 139.055 41.203 138.937 41.211 138.941 41.127 139.109 41.127 139.109 41.13 139.1 41.13 139.1"></polygon>
        <polygon class="cls-43" points="40.898 138.985 41.127 139.109 41.211 138.941 40.98 138.825 40.895 138.994 40.895 138.994 40.898 138.985 40.898 138.985"></polygon>
        <polygon class="cls-43" points="40.669 138.862 40.895 138.994 40.98 138.825 40.75 138.703 40.66 138.86 40.66 138.86 40.669 138.862 40.669 138.862"></polygon>
        <polygon class="cls-43" points="40.431 138.736 40.66 138.86 40.75 138.703 40.52 138.579 40.431 138.736 40.431 138.736 40.431 138.736"></polygon>
        <polygon class="cls-43" points="40.322 138.56 40.194 138.61 40.431 138.736 40.52 138.579 40.283 138.453 40.154 138.504 40.322 138.56 40.322 138.56 40.322 138.56 40.322 138.56"></polygon>
        <polygon class="cls-43" points="64.565 136.041 64.033 137.439 65.77 138.019 66.173 137.09 66.184 137.001 66.187 136.908 66.173 136.81 66.139 136.715 66.084 136.631 66.039 136.541 65.966 136.452 65.89 136.371 65.812 136.298 65.726 136.223 65.636 136.155 65.549 136.107 65.465 136.052 65.367 136.01 65.28 135.962 65.197 135.934 65.122 135.91 65.031 135.898 64.951 135.889 64.872 135.901 64.794 135.912 64.71 135.94 64.637 135.99 64.565 136.041 64.565 136.041 64.565 136.041 64.565 136.041"></polygon>
        <polygon class="cls-43" points="65.692 137.974 65.8 137.926 64.064 137.347 64.005 137.522 65.742 138.102 65.859 138.058 65.692 137.974 65.692 137.974 65.692 137.974"></polygon>
        <g>
          <polygon class="cls-1" points="66.027 138.377 66.038 138.472 66.027 138.377 66.027 138.377"></polygon>
          <polygon class="cls-1" points="66.922 137.44 66.986 137.501 66.917 137.453 66.922 137.44"></polygon>
          <g>
            <polygon class="cls-1" points="66.986 137.501 66.917 137.453 66.922 137.44 66.986 137.501"></polygon>
            <g>
              <polygon class="cls-1" points="66.986 137.501 66.917 137.453 66.922 137.44 66.986 137.501"></polygon>
              <polygon points="38.899 137.013 38.907 136.987 39.436 135.597 39.604 135.654 39.091 137.026 39.08 137.082 39.078 137.063 38.899 137.096 38.896 137.077 38.899 137.013"></polygon>
              <g>
                <polygon class="cls-1" points="66.986 137.501 66.917 137.453 66.922 137.44 66.986 137.501"></polygon>
                <polygon class="cls-32" points="47.414 140.302 47.383 140.321 47.381 140.319 47.414 140.302"></polygon>
                <g>
                  <polygon class="cls-1" points="47.448 140.384 47.515 140.448 47.448 140.384 47.448 140.384"></polygon>
                  <polygon class="cls-1" points="66.986 137.501 66.917 137.453 66.922 137.44 66.986 137.501"></polygon>
                  <polygon class="cls-1" points="45.168 142.34 45.174 142.34 45.174 142.343 45.084 142.313 45.159 142.314 45.168 142.34"></polygon>
                  <path d="m38.964,137.323l.019.081.003-.008.135-.029-.034.09,3.893-.127.093.003.1.033.101.034.1.034.092.059.076.053.054.064.032.065-.092.028,1.549,4.666h.09s.002.059.002.059h.14l.131-.003.12.003.11-.019.111-.028.112-.055.104-.087.122-.117.004-.008.07-.098.081-.104.092-.109.065-.109.081-.131.085-.112.069-.125.09-.129.073-.106.104-.115.084-.111.098-.098.086-.092.092-.081.089-.073.104-.059.022-.011-.067-.064h0l.067.064.103-.115.096-.09.083-.084.09-.073.087-.064.092-.053.081-.047.09-.045.1-.023.098-.041.1-.023.118-.017.129-.022.142-.009.155-.014.151-.006.009.003,16.8-1.255.098-.014.09-.017.081-.02.083-.028.079-.039.081-.048.068-.062.078-.067.018-.022.293-.685-.154-.098.068.066-.011.009-.074-.052-.073.171-.049.03-.065.025-.076.031-.07.014-.089.017-.089.016-16.808,1.252-.107.011-.103.003-.103.003-.11.019h-.112l-.098.014-.107.012-.098.014-.109.02-.098.014-.1.022-.112.028-.101.023-.106.039-.106.039-.101.05-.199.12-.201.184-.213.218-.205.248-.198.26-.171.232-.168.223-.14.168-.081.019-.07.014-.087.008h-.167l-.073-.005-.093-.003-.081-.008-1.543-4.655-.033-.067-.053-.065-.075-.053-.101-.061-.098-.042-.1-.034-.096-.023-.093-.002-3.89.118-.468,1.231-.003-.016-.184.05Zm27.954.13l.005-.012.064.061-.069-.049Z"></path>
                </g>
              </g>
            </g>
          </g>
        </g>
        <polygon class="cls-43" points="66.329 137.795 66.43 137.773 66.519 137.756 66.6 137.736 66.684 137.708 66.763 137.669 66.844 137.621 66.908 137.569 66.986 137.501 66.852 137.373 66.793 137.437 66.731 137.482 66.673 137.518 66.609 137.543 66.547 137.56 66.475 137.582 66.396 137.594 66.31 137.602 66.329 137.795 66.329 137.795 66.329 137.795"></polygon>
        <polygon class="cls-43" points="49.531 139.042 66.329 137.795 66.31 137.602 49.51 138.857 49.531 139.042 49.531 139.042 49.531 139.042"></polygon>
        <polygon class="cls-43" points="47.884 139.34 47.982 139.298 48.078 139.265 48.192 139.228 48.287 139.195 48.39 139.164 48.488 139.151 48.586 139.136 48.695 139.117 48.785 139.1 48.888 139.098 48.995 139.086 49.101 139.075 49.207 139.064 49.303 139.058 49.417 139.05 49.531 139.042 49.51 138.857 49.403 138.868 49.297 138.879 49.185 138.879 49.079 138.891 48.975 138.893 48.875 138.916 48.77 138.919 48.656 138.926 48.555 138.949 48.455 138.971 48.346 138.991 48.234 139.019 48.139 139.052 48.024 139.089 47.909 139.125 47.809 139.175 47.884 139.34 47.884 139.34 47.884 139.34 47.884 139.34"></polygon>
        <polygon class="cls-43" points="46.379 141.001 46.416 140.976 46.491 140.889 46.559 140.8 46.639 140.696 46.723 140.584 46.819 140.467 46.906 140.347 47.003 140.22 47.101 140.095 47.202 139.961 47.305 139.846 47.406 139.739 47.509 139.625 47.596 139.533 47.705 139.458 47.794 139.385 47.884 139.34 47.809 139.175 47.694 139.24 47.596 139.309 47.481 139.402 47.373 139.505 47.272 139.611 47.171 139.717 47.059 139.857 46.961 139.983 46.863 140.109 46.765 140.235 46.679 140.354 46.584 140.472 46.5 140.584 46.418 140.687 46.351 140.777 46.29 140.85 46.324 140.833 46.379 141.001 46.379 141.001 46.379 141.001 46.379 141.001"></polygon>
        <polygon class="cls-1" points="64.529 136.122 64.565 136.041 64.631 135.979 64.732 135.929 64.85 135.912 64.914 135.915 64.987 135.92 65.057 135.934 65.127 135.949 65.211 135.976 65.286 136.001 65.367 136.038 65.454 136.086 65.527 136.119 65.602 136.172 65.669 136.223 65.742 136.284 65.817 136.337 65.871 136.402 65.935 136.46 65.988 136.525 66.086 136.651 66.137 136.779 66.162 136.844 66.175 136.886 66.167 136.995 66.147 137.082 66.085 137.155 65.996 137.198 65.876 137.224 65.809 137.23 65.739 137.215 65.658 137.207 65.572 137.188 65.496 137.162 65.412 137.134 65.323 137.096 65.244 137.051 65.163 137.014 65.076 136.966 65 136.913 64.928 136.852 64.861 136.801 64.791 136.731 64.73 136.663 64.676 136.6 64.59 136.468 64.54 136.34 64.525 136.298 64.512 136.228 64.529 136.122"></polygon>
        <polygon class="cls-30" points="43.161 135.946 43.508 135.94 43.536 135.94 40.557 134.946 40.407 135.035 43.159 135.954 43.159 135.954 43.161 135.946 43.161 135.946"></polygon>
        <polygon class="cls-30" points="43.161 135.946 39.618 136.059 39.604 135.989 39.584 135.908 39.563 135.835 39.535 135.752 39.52 135.681 39.52 135.625 39.542 135.558 39.604 135.513 39.749 135.413 39.911 135.318 40.074 135.223 40.236 135.128 40.39 135.03 40.407 135.035 43.159 135.954 43.159 135.954 43.161 135.946 43.161 135.946"></polygon>
        <polygon class="cls-29" points="41.007 138.099 43.421 137.963 44.365 138.343 44.698 139.331 44.8 139.672 44.399 139.697 44.008 139.697 43.647 139.688 43.318 139.671 42.996 139.629 42.697 139.576 42.422 139.503 42.148 139.43 41.891 139.336 41.642 139.243 41.407 139.136 41.175 139.021 40.934 138.904 40.705 138.781 40.476 138.657 40.238 138.532 40.216 138.431 40.199 138.341 40.177 138.241 40.163 138.143 41.007 138.099"></polygon>
        <polygon class="cls-30" points="47.088 138.375 47.121 138.414 47.431 138.601 47.532 138.439 47.221 138.252 47.252 138.3 47.088 138.375 47.099 138.397 47.121 138.414 47.088 138.375 47.088 138.375 47.088 138.375"></polygon>
        <polygon class="cls-30" points="44.327 138.432 44.274 138.368 44.715 139.7 44.892 139.647 44.45 138.315 44.403 138.262 44.45 138.315 44.436 138.274 44.403 138.262 44.327 138.432 44.327 138.432 44.327 138.432 44.327 138.432"></polygon>
        <polygon class="cls-30" points="43.429 138.049 43.385 138.044 44.327 138.432 44.403 138.262 43.46 137.873 43.424 137.87 43.46 137.873 43.443 137.867 43.424 137.87 43.429 138.049 43.429 138.049 43.429 138.049 43.429 138.049"></polygon>
        <polygon class="cls-30" points="40.258 138.138 40.168 138.238 43.429 138.049 43.424 137.87 40.163 138.059 40.076 138.151 40.163 138.059 40.059 138.061 40.076 138.151 40.258 138.138 40.258 138.138 40.258 138.138"></polygon>
        <polygon class="cls-30" points="40.283 138.453 40.319 138.512 40.316 138.465 40.305 138.414 40.302 138.367 40.288 138.325 40.286 138.277 40.274 138.227 40.261 138.185 40.258 138.138 40.076 138.151 40.076 138.207 40.084 138.266 40.098 138.308 40.101 138.355 40.115 138.397 40.126 138.448 40.146 138.501 40.149 138.549 40.194 138.61 40.149 138.549 40.163 138.591 40.194 138.61 40.283 138.453 40.283 138.453 40.283 138.453"></polygon>
        <polygon class="cls-30" points="44.719 139.692 44.794 139.577 44.394 139.602 44.008 139.613 43.658 139.599 43.32 139.579 43.018 139.534 42.716 139.489 42.442 139.417 42.176 139.346 41.919 139.251 41.681 139.153 41.443 139.055 41.211 138.941 40.98 138.825 40.75 138.703 40.52 138.579 40.283 138.453 40.194 138.61 40.431 138.736 40.66 138.86 40.895 138.994 41.127 139.109 41.371 139.217 41.605 139.323 41.86 139.427 42.117 139.522 42.399 139.598 42.676 139.662 42.984 139.719 43.306 139.761 43.641 139.789 44.014 139.791 44.399 139.781 44.816 139.761 44.892 139.647 44.816 139.761 44.931 139.753 44.892 139.647 44.715 139.7 44.715 139.7 44.719 139.692 44.719 139.692"></polygon>
        <g>
          <polygon class="cls-1" points="46.406 140.874 46.474 140.939 46.406 140.874 46.406 140.874"></polygon>
          <polygon class="cls-1" points="45.786 140.85 45.77 140.851 45.77 140.851 45.786 140.85"></polygon>
          <polygon class="cls-1" points="44.268 136.325 46.715 137.141 44.268 136.325 44.268 136.325"></polygon>
        </g>
        <polygon class="cls-30" points="49.51 138.857 49.386 138.863 49.249 138.882 49.126 138.888 48.992 138.899 48.863 138.921 48.726 138.941 48.589 138.96 48.457 138.991 48.326 139.021 48.212 139.058 48.086 139.1 47.968 139.144 47.868 139.195 47.748 139.248 47.65 139.318 47.559 139.391 47.671 139.531 47.758 139.466 47.842 139.41 47.934 139.357 48.041 139.318 48.144 139.259 48.256 139.231 48.388 139.201 48.503 139.164 48.628 139.151 48.74 139.122 48.874 139.111 49.003 139.089 49.14 139.069 49.274 139.058 49.4 139.044 49.531 139.042 49.51 138.857 49.51 138.857 49.51 138.857 49.51 138.857"></polygon>
        <polygon class="cls-30" points="66.31 137.602 49.51 138.857 49.531 139.042 66.329 137.795 66.31 137.602 66.31 137.602 66.31 137.602"></polygon>
        <polygon class="cls-30" points="66.623 136.578 66.693 136.676 66.766 136.766 66.799 136.86 66.852 136.953 66.88 137.037 66.888 137.124 66.892 137.199 66.886 137.272 66.866 137.331 66.838 137.387 66.802 137.44 66.737 137.493 66.67 137.526 66.564 137.565 66.452 137.594 66.31 137.602 66.329 137.795 66.483 137.781 66.617 137.742 66.735 137.697 66.838 137.638 66.933 137.577 67 137.488 67.036 137.406 67.07 137.306 67.068 137.202 67.074 137.102 67.051 137.001 67.014 136.886 66.972 136.788 66.916 136.676 66.844 136.559 66.771 136.469 66.623 136.578 66.623 136.578 66.623 136.578"></polygon>
        <polygon class="cls-30" points="64.62 135.621 64.772 135.616 64.926 135.63 65.082 135.664 65.233 135.686 65.376 135.733 65.518 135.781 65.655 135.845 65.784 135.907 65.918 135.979 66.041 136.058 66.173 136.139 66.268 136.217 66.368 136.307 66.466 136.405 66.547 136.497 66.623 136.578 66.771 136.469 66.684 136.366 66.586 136.268 66.489 136.17 66.379 136.077 66.259 135.991 66.139 135.904 66.016 135.825 65.876 135.741 65.731 135.674 65.583 135.616 65.431 135.565 65.272 135.512 65.116 135.478 64.956 135.453 64.774 135.439 64.615 135.441 64.62 135.621 64.62 135.621 64.62 135.621"></polygon>
        <polygon class="cls-30" points="49.756 136.132 64.62 135.621 64.615 135.441 49.759 135.957 49.756 136.132 49.756 136.132 49.756 136.132"></polygon>
        <polygon class="cls-30" points="47.409 135.76 47.549 135.816 47.697 135.847 47.841 135.894 47.988 135.925 48.144 135.959 48.291 135.998 48.45 136.023 48.593 136.042 48.741 136.074 48.895 136.088 49.045 136.11 49.194 136.113 49.337 136.132 49.487 136.127 49.625 136.135 49.756 136.132 49.759 135.957 49.619 135.957 49.482 135.949 49.353 135.942 49.208 135.931 49.062 135.92 48.918 135.908 48.775 135.889 48.623 135.866 48.475 135.836 48.333 135.816 48.187 135.777 48.036 135.754 47.89 135.715 47.736 135.673 47.608 135.64 47.465 135.592 47.407 135.768 47.407 135.768 47.409 135.76 47.409 135.76"></polygon>
        <polygon class="cls-30" points="42.395 134.385 42.65 134.349 42.89 134.326 43.12 134.309 43.329 134.295 43.528 134.287 43.707 134.309 43.892 134.315 44.046 134.329 44.205 134.354 44.353 134.386 44.492 134.414 44.619 134.456 44.753 134.5 44.859 134.545 44.991 134.599 45.094 134.651 45.214 134.71 45.334 134.769 45.452 134.837 45.569 134.904 45.687 134.971 45.81 135.049 45.93 135.108 46.062 135.189 46.207 135.256 46.347 135.34 46.503 135.401 46.654 135.48 46.825 135.556 47.009 135.617 47.205 135.701 47.407 135.768 47.465 135.592 47.264 135.525 47.066 135.449 46.9 135.385 46.727 135.318 46.567 135.236 46.431 135.172 46.291 135.088 46.154 135.024 46.02 134.951 45.894 134.881 45.776 134.814 45.654 134.735 45.536 134.668 45.416 134.61 45.296 134.551 45.186 134.486 45.066 134.428 44.935 134.374 44.812 134.324 44.678 134.279 44.535 134.231 44.386 134.201 44.236 134.178 44.07 134.142 43.9 134.122 43.724 134.12 43.519 134.117 43.324 134.117 43.097 134.125 42.868 134.142 42.625 134.172 42.373 134.2 42.387 134.382 42.387 134.382 42.395 134.385 42.395 134.385"></polygon>
        <polygon class="cls-30" points="39.651 135.595 39.797 135.494 39.959 135.399 40.122 135.304 40.286 135.201 40.437 135.111 40.608 135.019 40.768 134.932 40.932 134.857 41.108 134.776 41.286 134.694 41.459 134.622 41.637 134.561 41.83 134.513 42.006 134.46 42.199 134.412 42.387 134.382 42.373 134.2 42.163 134.242 41.964 134.278 41.769 134.334 41.584 134.384 41.4 134.463 41.209 134.53 41.036 134.603 40.86 134.684 40.681 134.773 40.51 134.865 40.351 134.952 40.189 135.047 40.026 135.142 39.864 135.236 39.71 135.335 39.556 135.432 39.643 135.592 39.643 135.592 39.651 135.595 39.651 135.595"></polygon>
        <polygon class="cls-30" points="39.618 135.975 39.713 136.054 39.685 135.97 39.668 135.88 39.646 135.807 39.626 135.726 39.615 135.676 39.607 135.645 39.621 135.603 39.643 135.592 39.556 135.432 39.475 135.508 39.433 135.606 39.422 135.696 39.45 135.779 39.47 135.86 39.492 135.933 39.514 136.006 39.529 136.076 39.615 136.151 39.529 136.076 39.531 136.151 39.615 136.151 39.618 135.975 39.618 135.975 39.618 135.975"></polygon>
        <g>
          <polygon class="cls-1" points="46.481 136.644 46.482 136.644 46.459 136.739 46.481 136.644"></polygon>
          <polygon class="cls-29" points="46.484 136.635 46.482 136.644 46.481 136.644 46.484 136.635"></polygon>
          <polygon class="cls-29" points="46.442 136.677 46.481 136.644 46.459 136.739 46.442 136.677"></polygon>
          <g>
            <polygon class="cls-1" points="64.565 136.041 64.631 135.979 64.732 135.929 64.85 135.912 64.914 135.915 64.987 135.92 65.057 135.934 65.127 135.949 65.211 135.976 65.286 136.001 65.367 136.038 65.454 136.086 65.527 136.119 65.602 136.172 65.669 136.223 65.742 136.284 65.817 136.337 65.871 136.402 65.935 136.46 65.988 136.525 66.086 136.651 66.137 136.779 66.162 136.844 66.175 136.886 66.167 136.995 66.147 137.082 66.085 137.155 65.996 137.198 65.876 137.224 65.809 137.23 65.739 137.215 65.658 137.207 65.572 137.188 65.496 137.162 65.412 137.134 65.323 137.096 65.244 137.051 65.163 137.014 65.076 136.966 65 136.913 64.928 136.852 64.861 136.801 64.791 136.731 64.73 136.663 64.676 136.6 64.59 136.468 64.54 136.34 64.525 136.298 64.512 136.228 64.529 136.122 64.565 136.041"></polygon>
            <polygon class="cls-1" points="48.373 136.631 48.373 136.631 48.29 136.67 48.373 136.631"></polygon>
            <polygon class="cls-1" points="48.978 138.157 49.037 138.205 49.042 138.216 48.883 138.415 47.479 138.515 47.174 138.339 47.173 138.336 47.252 138.3 46.654 136.726 46.754 136.628 48.031 136.554 48.301 136.695 48.964 138.256 48.978 138.157"></polygon>
            <polygon class="cls-1" points="44.187 136.157 44.187 136.157 46.537 136.942 44.187 136.157"></polygon>
            <g>
              <polygon class="cls-1" points="64.565 136.041 64.631 135.979 64.732 135.929 64.85 135.912 64.914 135.915 64.987 135.92 65.057 135.934 65.127 135.949 65.211 135.976 65.286 136.001 65.367 136.038 65.454 136.086 65.527 136.119 65.602 136.172 65.669 136.223 65.742 136.284 65.817 136.337 65.871 136.402 65.935 136.46 65.988 136.525 66.086 136.651 66.137 136.779 66.162 136.844 66.175 136.886 66.167 136.995 66.147 137.082 66.085 137.155 65.996 137.198 65.876 137.224 65.809 137.23 65.739 137.215 65.658 137.207 65.572 137.188 65.496 137.162 65.412 137.134 65.323 137.096 65.244 137.051 65.163 137.014 65.076 136.966 65 136.913 64.928 136.852 64.861 136.801 64.791 136.731 64.73 136.663 64.676 136.6 64.59 136.468 64.54 136.34 64.525 136.298 64.512 136.228 64.529 136.122 64.565 136.041"></polygon>
              <polygon class="cls-1" points="48.031 136.554 48.301 136.695 48.964 138.256 48.978 138.157 49.037 138.205 49.042 138.216 48.883 138.415 47.479 138.515 47.174 138.339 47.173 138.336 47.252 138.3 46.654 136.726 46.754 136.628 48.031 136.554"></polygon>
              <polygon class="cls-1" points="44.187 136.157 44.187 136.157 46.537 136.942 44.187 136.157"></polygon>
              <g>
                <polygon class="cls-1" points="64.565 136.041 64.631 135.979 64.732 135.929 64.85 135.912 64.914 135.915 64.987 135.92 65.057 135.934 65.127 135.949 65.211 135.976 65.286 136.001 65.367 136.038 65.454 136.086 65.527 136.119 65.602 136.172 65.669 136.223 65.742 136.284 65.817 136.337 65.871 136.402 65.935 136.46 65.988 136.525 66.086 136.651 66.137 136.779 66.162 136.844 66.175 136.886 66.167 136.995 66.147 137.082 66.085 137.155 65.996 137.198 65.876 137.224 65.809 137.23 65.739 137.215 65.658 137.207 65.572 137.188 65.496 137.162 65.412 137.134 65.323 137.096 65.244 137.051 65.163 137.014 65.076 136.966 65 136.913 64.928 136.852 64.861 136.801 64.791 136.731 64.73 136.663 64.676 136.6 64.59 136.468 64.54 136.34 64.525 136.298 64.512 136.228 64.529 136.122 64.565 136.041"></polygon>
                <polygon class="cls-1" points="48.031 136.554 48.301 136.695 48.964 138.256 48.978 138.157 49.037 138.205 49.042 138.216 48.884 138.413 48.875 138.328 47.47 138.428 47.532 138.439 47.485 138.514 47.479 138.515 47.174 138.339 47.173 138.336 47.252 138.3 46.654 136.726 46.754 136.628 48.031 136.554"></polygon>
                <polygon class="cls-1" points="44.187 136.157 44.187 136.157 46.537 136.942 44.187 136.157"></polygon>
                <g>
                  <polygon class="cls-1" points="49.014 137.908 51.674 138.796 49.014 137.908 49.014 137.908"></polygon>
                  <polygon class="cls-1" points="48.944 137.746 52.01 138.769 48.944 137.746 48.944 137.746"></polygon>
                  <polygon class="cls-1" points="64.565 136.041 64.631 135.979 64.732 135.929 64.85 135.912 64.914 135.915 64.987 135.92 65.057 135.934 65.127 135.949 65.211 135.976 65.286 136.001 65.367 136.038 65.454 136.086 65.527 136.119 65.602 136.172 65.669 136.223 65.742 136.284 65.817 136.337 65.871 136.402 65.935 136.46 65.988 136.525 66.086 136.651 66.137 136.779 66.162 136.844 66.175 136.886 66.167 136.995 66.147 137.082 66.085 137.155 65.996 137.198 65.876 137.224 65.809 137.23 65.739 137.215 65.658 137.207 65.572 137.188 65.496 137.162 65.412 137.134 65.323 137.096 65.244 137.051 65.163 137.014 65.076 136.966 65 136.913 64.928 136.852 64.861 136.801 64.791 136.731 64.73 136.663 64.676 136.6 64.59 136.468 64.54 136.34 64.525 136.298 64.512 136.228 64.529 136.122 64.565 136.041"></polygon>
                  <polygon class="cls-1" points="48.031 136.554 48.301 136.695 48.964 138.256 48.978 138.157 49.037 138.205 49.042 138.216 48.884 138.413 48.883 138.415 47.485 138.514 47.479 138.515 47.174 138.339 47.173 138.336 47.252 138.3 46.654 136.726 46.754 136.628 48.031 136.554"></polygon>
                  <polygon class="cls-1" points="44.187 136.157 44.187 136.157 46.537 136.942 44.187 136.157"></polygon>
                  <polygon class="cls-29" points="48.944 137.746 52.01 138.769 51.677 138.788 51.674 138.796 49.014 137.908 48.944 137.746"></polygon>
                  <g>
                    <polygon class="cls-1" points="64.565 136.041 64.631 135.979 64.732 135.929 64.85 135.912 64.914 135.915 64.987 135.92 65.057 135.934 65.127 135.949 65.211 135.976 65.286 136.001 65.367 136.038 65.454 136.086 65.527 136.119 65.602 136.172 65.669 136.223 65.742 136.284 65.817 136.337 65.871 136.402 65.935 136.46 65.988 136.525 66.086 136.651 66.137 136.779 66.162 136.844 66.175 136.886 66.167 136.995 66.147 137.082 66.085 137.155 65.996 137.198 65.876 137.224 65.809 137.23 65.739 137.215 65.658 137.207 65.572 137.188 65.496 137.162 65.412 137.134 65.323 137.096 65.244 137.051 65.163 137.014 65.076 136.966 65 136.913 64.928 136.852 64.861 136.801 64.791 136.731 64.73 136.663 64.676 136.6 64.59 136.468 64.54 136.34 64.525 136.298 64.512 136.228 64.529 136.122 64.565 136.041"></polygon>
                    <polygon class="cls-1" points="48.031 136.554 48.301 136.695 48.942 138.204 48.842 138.33 47.47 138.428 47.532 138.439 47.485 138.514 47.479 138.515 47.174 138.339 47.173 138.336 47.252 138.3 46.654 136.726 46.754 136.628 48.031 136.554"></polygon>
                    <polygon class="cls-1" points="48.978 138.157 49.037 138.205 49.037 138.205 48.978 138.157"></polygon>
                    <polygon class="cls-1" points="44.187 136.157 44.187 136.157 46.537 136.942 44.187 136.157"></polygon>
                    <path class="cls-29" d="m39.615,136.151l3.893-.127.082.008.075.025.1.034.092.03.084.056.062.039.036.058.028.028,1.549,4.665.022.073.076-.003.078-.011.089.011.109.008.103-.002.101.005.092-.025.103-.03.084-.056.101-.106.084-.112.078-.095.078-.095.067-.09.064-.081.056-.084.067-.089.056-.084.065-.081.065-.082.069-.07.073-.078.084-.084.084-.084.106-.095-.056-.071.084-.069.095-.062.11-.048.1-.05.109-.048.123-.033.126-.043.123-.033.117-.017.128-.022.137-.02.129-.022.134-.011.135-.011.125-.014.124-.006,2.159-.156-2.66-.888-.07-.163h0l3.065,1.023,14.314-1.069.265-.042.199-.092.137-.132.05-.151v-.168s.003-.009.003-.009l-.047-.193-.096-.19-.137-.204-.081-.092-.09-.095-.098-.098-.103-.082-.11-.091-.123-.079-.131-.081-.132-.081-.139-.056-.137-.064-.151-.05-.159-.053-.151-.022-.157-.034-.163-.017-.16.002-2.161.081-12.695.434h-.139l-.132.003-.148-.003-.142-.02-.146-.011-.145-.011-.142-.02-.152-.022-.15-.022-.148-.031-.149-.031-.148-.031-.154-.042-.145-.04-.137-.036-.143-.047-.202-.067-.199-.076-.173-.067-.173-.067-.151-.079-.145-.067-.151-.079-.137-.064-.131-.081-.118-.067-.125-.07-.118-.067-.126-.07-.117-.066-.112-.056-.117-.068-.121-.058-.123-.05-.118-.039-.134-.045-.143-.048-.136-.037-.151-.023-.16-.025-.162-.018-.182-.014-.193-.009-.199.009-.207.006-.232.025-.24.022-.263.034-.195.027-.194.048-.193.048-.179.061-.189.067-.182.07-.173.073-.177.081-.167.084-.171.092,2.717.907-3.656.122-.003.176Zm24.897.077l.017-.106.037-.081.066-.062.101-.05.118-.017.064.003.073.005.07.014.07.015.085.027.075.026.081.036.087.048.073.034.075.053.067.051.073.062.075.053.053.065.064.058.053.065.098.126.05.128.025.065.014.042-.008.109-.02.087-.062.073-.089.044-.12.025-.067.006-.07-.014-.081-.008-.086-.02-.076-.025-.084-.028-.09-.038-.078-.045-.081-.037-.087-.048-.076-.053-.072-.062-.067-.05-.07-.07-.062-.068-.053-.064-.086-.132-.05-.129-.014-.042-.014-.07Zm-15.474,1.977h0l-.059-.048.059.048Zm-2.383-1.479l.1-.099,1.276-.073.27.141.641,1.509-.1.126-1.372.098.062.011-.047.074h-.006s-.305-.175-.305-.175v-.003s.078-.036.078-.036l-.598-1.573Z"></path>
                  </g>
                </g>
              </g>
            </g>
          </g>
        </g>
        <polygon class="cls-43" points="63.647 137.198 63.569 137.154 63.554 137.083 63.667 137.055 63.689 137.128 63.622 137.078 63.647 137.198 63.647 137.198 63.647 137.198"></polygon>
        <polygon class="cls-43" points="63.798 137.108 63.781 137.131 63.753 137.159 63.719 137.176 63.687 137.192 63.647 137.198 63.622 137.078 63.639 137.083 63.664 137.064 63.695 137.055 63.697 137.047 63.692 137.064 63.796 137.117 63.796 137.117 63.798 137.108 63.798 137.108"></polygon>
        <polygon class="cls-43" points="63.482 136.406 63.491 136.409 63.544 136.474 63.614 136.544 63.681 136.622 63.745 136.708 63.798 136.801 63.829 136.904 63.829 137.016 63.796 137.117 63.692 137.064 63.714 136.996 63.709 136.93 63.689 136.848 63.639 136.776 63.583 136.691 63.522 136.625 63.451 136.554 63.399 136.49 63.407 136.493 63.482 136.406 63.482 136.406 63.482 136.406"></polygon>
        <polygon class="cls-43" points="62.453 136.11 62.445 136.107 62.593 136.11 62.732 136.11 62.864 136.135 62.99 136.149 63.119 136.182 63.239 136.241 63.365 136.312 63.482 136.406 63.407 136.493 63.292 136.417 63.183 136.353 63.08 136.3 62.968 136.272 62.845 136.25 62.719 136.235 62.59 136.23 62.458 136.232 62.462 136.224 62.442 136.115 62.442 136.115 62.453 136.11 62.453 136.11"></polygon>
        <polygon class="cls-43" points="51.54 136.682 51.588 136.651 62.442 136.115 62.462 136.224 51.604 136.768 51.652 136.738 51.54 136.682 51.54 136.682 51.54 136.682"></polygon>
        <polygon class="cls-43" points="51.282 137.062 51.165 137.023 51.173 136.942 51.196 136.875 51.23 136.802 51.274 136.751 51.333 136.715 51.408 136.684 51.493 136.657 51.588 136.651 51.604 136.768 51.515 136.785 51.434 136.805 51.394 136.81 51.356 136.844 51.336 136.875 51.305 136.911 51.289 136.962 51.291 137.037 51.173 136.997 51.282 137.062 51.282 137.062 51.282 137.062"></polygon>
        <g>
          <polygon class="cls-1" points="51.588 136.654 51.604 136.768 51.588 136.654 51.588 136.654"></polygon>
          <g>
            <polygon class="cls-1" points="51.291 137.037 51.305 136.967 51.339 136.894 51.367 136.838 51.425 136.802 51.495 136.788 51.593 136.774 51.604 136.768 62.462 136.224 62.643 136.239 62.795 136.232 62.937 136.252 63.068 136.278 63.189 136.336 63.297 136.4 63.399 136.49 63.514 136.622 63.614 136.739 63.687 136.856 63.722 136.943 63.722 136.999 63.697 137.047 63.627 137.089 63.496 137.12 63.312 137.142 52.155 137.717 52.147 137.714 51.99 137.708 51.836 137.666 51.699 137.602 51.582 137.534 51.484 137.437 51.414 137.339 51.353 137.244 51.305 137.163 51.297 137.104 51.291 137.037"></polygon>
            <g>
              <path class="cls-1" d="m51.305,136.967l-.014.07.006.067.009.059.047.081.061.095.07.098.097.098.117.068.138.064.153.042.157.006.008.003,11.157-.575.185-.022.131-.031.07-.043.025-.048v-.056l-.036-.087-.073-.117-.101-.117-.115-.131-.101-.09-.108-.064-.121-.058-.131-.026-.143-.02-.152.006-.181-.014-10.858.544-.011.005-.098.014-.07.015-.058.036-.028.056-.033.073Zm.153-.07l10.857-.545.006-.017.146.011h.14s.131.025.131.025l.125.014.129.034.12.058.117.067.126.097.048.054.042.042.039.051.034.039.048.053.036.059.031.048.03.048.003.019-.112.028.003.02-.028-.057-.03-.047-.042-.042-.031-.047-.033-.039-.039-.05-.042-.043-.05-.044.004-.003-.1-.075-.105-.073-.107-.044-.111-.028-.123-.023-.126-.014-.137-.009-.131.003-10.854.535-.012-.106Z"></path>
              <g>
                <path class="cls-1" d="m51.305,136.967l-.014.07.006.067.009.059.047.081.061.095.07.098.097.098.117.068.138.064.153.042.157.006.008.003,11.157-.575.185-.022.131-.031.07-.043.025-.048v-.056l-.036-.087-.073-.117-.101-.117-.115-.131-.101-.09-.108-.064-.121-.058-.131-.026-.143-.02-.152.006-.181-.014-10.858.544-.011.005-.098.014-.07.015-.058.036-.028.056-.033.073Z"></path>
                <g>
                  <polygon class="cls-1" points="51.339 136.894 51.367 136.838 51.425 136.802 51.495 136.788 51.559 136.779 51.471 136.948 62.327 136.403 62.467 136.403 62.596 136.409 62.727 136.434 62.853 136.448 62.973 136.479 63.088 136.526 63.203 136.602 63.314 136.686 63.354 136.736 63.396 136.778 63.435 136.829 63.477 136.871 63.507 136.918 63.546 136.969 63.578 137.016 63.614 137.074 63.618 137.091 63.496 137.12 63.312 137.142 52.155 137.717 52.147 137.714 51.99 137.708 51.836 137.666 51.699 137.602 51.582 137.534 51.484 137.437 51.414 137.339 51.353 137.244 51.305 137.163 51.297 137.104 51.291 137.037 51.305 136.967 51.339 136.894"></polygon>
                  <polygon points="63.578 137.016 63.546 136.969 63.507 136.918 63.477 136.871 63.435 136.829 63.396 136.778 63.354 136.736 63.314 136.686 63.203 136.602 63.088 136.526 62.973 136.479 62.853 136.448 62.727 136.434 62.596 136.409 62.467 136.403 62.327 136.403 51.471 136.948 51.559 136.779 51.593 136.774 51.604 136.768 62.462 136.224 62.643 136.239 62.795 136.232 62.937 136.252 63.068 136.278 63.189 136.336 63.297 136.4 63.399 136.49 63.514 136.622 63.614 136.739 63.687 136.856 63.722 136.943 63.722 136.999 63.697 137.047 63.627 137.089 63.618 137.091 63.614 137.074 63.578 137.016"></polygon>
                  <g>
                    <polygon class="cls-1" points="51.31 136.955 51.32 136.953 51.375 136.953 51.471 136.948 51.561 136.778 51.593 136.774 51.604 136.768 62.462 136.224 62.643 136.239 62.795 136.232 62.937 136.252 63.068 136.278 63.189 136.336 63.297 136.4 63.399 136.49 63.514 136.622 63.614 136.739 63.687 136.856 63.722 136.943 63.722 136.999 63.697 137.047 63.627 137.089 63.618 137.091 63.496 137.12 63.312 137.142 52.155 137.717 52.147 137.714 51.99 137.708 51.836 137.666 51.699 137.602 51.582 137.534 51.484 137.437 51.414 137.339 51.353 137.244 51.305 137.163 51.297 137.104 51.291 137.037 51.305 136.967 51.31 136.955"></polygon>
                    <path d="m51.165,137.023l.012.106.022.073.031.103.073.117.089.096.115.103.137.093.153.07.162.044h.196l11.154-.566.212-.022.151-.033.109-.076.062-.101-.002-.103-.042-.127-.081-.12-.112-.14-.115-.132-.123-.106-.131-.081-.129-.062-.14-.028-.168-.028h-.167l-.19.011-10.854.536v.003l-.116.005-.117.045-.078.067-.053.076-.036.081-.023.095Zm.126.014l.014-.07.005-.012.01-.002h.055l.096-.006.09-.17.033-.004.011-.005,10.858-.544.181.014.152-.006.143.02.131.026.121.058.108.064.101.09.115.131.101.117.073.117.036.087v.056l-.025.048-.07.043-.009.002-.122.028-.185.022-11.157.575-.008-.003-.157-.006-.153-.042-.138-.064-.117-.068-.097-.098-.07-.098-.061-.095-.047-.081-.009-.059-.006-.067Z"></path>
                  </g>
                </g>
              </g>
            </g>
          </g>
        </g>
      </g>
    </g>
    
  </g>
</svg>