<svg xmlns="http://www.w3.org/2000/svg" version="1.1" viewBox="0 0 1125 1725" width="1125" height="1725"><g transform="translate(0, 765.4834494773519) scale(6.533101045296168)">
  <defs>
    <style>
      .cls-1 {
        fill: red;
      }

      .cls-1, .cls-2, .cls-3, .cls-4, .cls-5, .cls-6, .cls-7 {
        font-family: Arial-BoldMT, Arial;
        font-weight: 700;
      }

      .cls-1, .cls-3, .cls-5, .cls-6, .cls-7 {
        font-size: 6px;
      }

      .cls-2 {
        fill: #10ab4b;
      }

      .cls-2, .cls-8, .cls-9 {
        font-size: 7px;
      }

      .cls-10 {
        stroke-dasharray: 0 0 5 5;
      }

      .cls-10, .cls-11, .cls-12, .cls-13, .cls-14, .cls-15, .cls-16, .cls-17 {
        fill: none;
      }

      .cls-10, .cls-11, .cls-13, .cls-17 {
        stroke-miterlimit: 10;
      }

      .cls-10, .cls-13, .cls-17 {
        stroke: #26aae1;
      }

      .cls-11 {
        stroke: #ec1c24;
      }

      .cls-18 {
        fill: #4c4849;
      }

      .cls-18, .cls-19, .cls-20, .cls-21, .cls-22, .cls-23, .cls-24, .cls-25, .cls-26, .cls-27 {
        stroke-width: 0px;
      }

      .cls-28 {
        fill: #ec1c24;
        font-size: 9.5px;
      }

      .cls-28, .cls-8, .cls-9 {
        font-family: Arial-Black, 'Arial Black';
        font-weight: 800;
      }

      .cls-12 {
        stroke: #2ba3dc;
        stroke-dasharray: 0 5;
      }

      .cls-3 {
        fill: #6f6f6f;
      }

      .cls-19 {
        fill: #e7242c;
      }

      .cls-20 {
        fill: #e6e5e5;
      }

      .cls-13 {
        stroke-dasharray: 0 0 5.1 5.1;
      }

      .cls-14 {
        stroke: #f9a61c;
      }

      .cls-21, .cls-26 {
        fill: #000;
      }

      .cls-4, .cls-8, .cls-27 {
        fill: #231f20;
      }

      .cls-29 {
        font-size: 7.8px;
      }

      .cls-22, .cls-7 {
        fill: #f9a61c;
      }

      .cls-15 {
        stroke: #9b9b9b;
      }

      .cls-16 {
        stroke: red;
      }

      .cls-5 {
        fill: #2ca1da;
      }

      .cls-23 {
        fill: #b6d233;
      }

      .cls-23, .cls-24, .cls-26 {
        fill-rule: evenodd;
      }

      .cls-30 {
        opacity: .5;
      }

      .cls-24, .cls-25 {
        fill: #fff;
      }

      .cls-9 {
        fill: #221f1f;
      }

      .cls-6 {
        fill: #ed2224;
      }

      .cls-31 {
        font-size: 5.5px;
        letter-spacing: 0em;
      }
    </style>
  </defs>
  <g id="Guide_lines" data-name="Guide lines">
    <g>
      <g class="cls-30">
        <path class="cls-27" d="M270,414H0S0,0,0,0h270s0,414,0,414ZM252,9H8.7s0,387,0,387c0,5,4,9,9,9h234.3c5,0,9-4,9-9V18c0-5-4-9-9-9Z"/>
      </g>
      <g id="Safe_Zone" data-name="Safe Zone">
        <g>
          <polyline class="cls-17" points="20.5 396 18 396 18 393.5"/>
          <line class="cls-10" x1="18" y1="388.5" x2="18" y2="23"/>
          <polyline class="cls-17" points="18 20.5 18 18 20.5 18"/>
          <line class="cls-13" x1="25.6" y1="18" x2="247" y2="18"/>
          <polyline class="cls-17" points="249.5 18 252 18 252 20.5"/>
          <line class="cls-10" x1="252" y1="25.5" x2="252" y2="391"/>
          <polyline class="cls-17" points="252 393.5 252 396 249.5 396"/>
          <line class="cls-13" x1="244.4" y1="396" x2="23" y2="396"/>
        </g>
      </g>
      <g id="clipping" data-name="Trim Line">
        <path class="cls-11" d="M252,405H18c-5,0-9-4-9-9V9.1s0,0,0,0h242.9c4.9,0,9,4,9,9v378c0,5-4,9-9,9Z"/>
      </g>
    </g>
  </g>
  <g id="Notes">
    <g>
      <rect class="cls-22" x="243" y="180" width="27" height="54.6"/>
      <g>
        <line class="cls-16" x1="51.8" y1="118.1" x2="261" y2="118.1"/>
        <path class="cls-19" d="M56.9,110.1c0,.4-.2.8-.5,1.1h0c0,0-3,3.3-3,3.3-.6.7-1.2,1.2-1.6,1.6-.5.4-.8.5-1,.5s-.4,0-.7-.3c-.3-.2-.5-.4-.6-.6,0-.2-.1-.5-.2-1,0-.5,0-1.1,0-1.7s.1-.7.4-.9c.3-.3.6-.4.9-.4s.5.3.6.9c0,0,0,.1,0,.2,0,.5.1.8.2,1,0,.2.2.3.3.3s.1,0,.3-.2c.1-.1.3-.3.5-.4l3.1-3.1c.3-.3.5-.5.7-.6.2-.1.4-.2.5-.2s.2,0,.2.1c0,0,0,.2,0,.4v.2Z"/>
        
      </g>
      <g>
        <line class="cls-15" x1="51.8" y1="93.3" x2="266.5" y2="93.3"/>
        <path class="cls-19" d="M56.9,85.4c0,.4-.2.8-.5,1.1h0c0,0-3,3.3-3,3.3-.6.7-1.2,1.2-1.6,1.6-.5.4-.8.5-1,.5s-.4,0-.7-.3c-.3-.2-.5-.4-.6-.6,0-.2-.1-.5-.2-1,0-.5,0-1.1,0-1.7s.1-.7.4-.9c.3-.3.6-.4.9-.4s.5.3.6.9c0,0,0,.1,0,.2,0,.5.1.8.2,1,0,.2.2.3.3.3s.1,0,.3-.2c.1-.1.3-.3.5-.4l3.1-3.1c.3-.3.5-.5.7-.6.2-.1.4-.2.5-.2s.2,0,.2.1c0,0,0,.2,0,.4v.2Z"/>
        
      </g>
      <g>
        <g>
          <line class="cls-12" x1="252" y1="142" x2="249.6" y2="142"/>
          <line class="cls-12" x1="244.8" y1="142" x2="56.7" y2="142"/>
          <line class="cls-12" x1="54.3" y1="142" x2="51.8" y2="142"/>
        </g>
        
        <path class="cls-19" d="M56.9,134.9c0,.4-.2.8-.5,1.1h0c0,0-3,3.3-3,3.3-.6.7-1.2,1.2-1.6,1.6-.5.4-.8.5-1,.5s-.4,0-.7-.3c-.3-.2-.5-.4-.6-.6,0-.2-.1-.5-.2-1,0-.5,0-1.1,0-1.7s.1-.7.4-.9c.3-.3.6-.4.9-.4s.5.3.6.9c0,0,0,.1,0,.2,0,.5.1.8.2,1,0,.2.2.3.3.3s.1,0,.3-.2c.1-.1.3-.3.5-.4l3.1-3.1c.3-.3.5-.5.7-.6.2-.1.4-.2.5-.2s.2,0,.2.1c0,0,0,.2,0,.4v.2Z"/>
      </g>
      <g>
        <rect class="cls-20" x="50.8" y="41.6" width="172.2" height="29.7"/>
        
        <g>
          <path class="cls-26" d="M81.7,56.5c0,7.4-6,13.4-13.5,13.4s-13.5-6-13.5-13.4,6-13.4,13.5-13.4,13.5,6,13.5,13.4"/>
          <path class="cls-23" d="M80.5,56.5c0,6.7-5.5,12.2-12.2,12.2s-12.2-5.4-12.2-12.2,5.5-12.2,12.2-12.2,12.2,5.4,12.2,12.2"/>
          <path class="cls-21" d="M65.7,53.9c-.2,1.5-.3,2.7-.4,3.6h-.6s0,0,0,0c0,0,0-.2,0-.3,0-.1,0-.2,0-.2-.1,0-.3.1-.4.3-.1.2-.2.3-.4.3,0,0-.1,0-.2,0-.1,0-.2,0-.4,0-.1,0-.3,0-.4,0,0-.2-.2-.4-.6-.5,0,0,0-.2-.1-.3,0-.1-.1-.3-.1-.3,0,0,0-.1,0-.2,0,0,0-.2-.2-.4,0-.2-.1-.4-.1-.5,0-.1,0-.2,0-.3,0-.6,0-1.2,0-1.7,0-.7.1-1.4.3-2,0,0,0-.2,0-.3,0-.5.2-.8.5-1h0c.3-.5.7-.8,1.3-1,.3,0,.6.1.9.2.3.1.6.3.7.6.1,0,.2.2.2.4,0,.2,0,.3,0,.4h0c0,.5,0,.8,0,.9,0,.3,0,.5-.2.6,0,0-.2,0-.4-.1,0,0-.1,0-.2,0,0,0,0,0-.2,0,0,0-.1,0-.2,0,0,0,0,0-.1,0,0-.6,0-1,0-1.3,0,0-.1-.1-.2-.3,0-.1-.1-.2-.2-.2,0,0,0,.1,0,.1h-.2c-.2.1-.3.5-.4,1,0,.6-.1,1-.2,1.1,0,0,.1.2.1.4,0,0,0,.1,0,.3,0,.1,0,.2,0,.3,0,0,0,.1,0,.2h-.1c0,.4,0,.7,0,1.1,0,.3,0,.7,0,1,0,0,0,0-.2,0,0,0-.1,0-.2,0,0,0,0,0,.1,0,.2,0,.3.1.4.4,0,.2.2.3.2.3,0,0,.2,0,.3-.2.2-.2.3-.6.3-1,0-.2,0-.4,0-.7,0,0,0,.1,0,.2-.1,0-.2,0-.2,0,0,0,0,0,0-.1,0,0,0-.2,0-.2,0,0,.1,0,.1-.1,0,0,0,0,0-.1,0,0,0-.1,0-.1,0,0,0,0,0,0v-.4c.2,0,.6,0,1.1,0,0,0,0,0,0,.1,0,0,.1,0,.2,0,0,0,.1,0,.2,0,0,0,.2,0,.2,0"/>
          <path class="cls-21" d="M69.9,57.8c-.1,0-.2,0-.3,0-.1,0-.3,0-.4,0-.2,0-.3,0-.4,0,0-.2-.1-.4-.2-.7,0-.4,0-.6-.1-.7,0,0,0,0,0-.1,0,0,0-.2-.2-.2-.1,0-.2-.1-.2-.2,0,0,0-.1.2-.2,0,0,0-.1,0-.3,0-.1,0-.2-.1-.3,0,0-.2.1-.5.2-.2,0-.3,0-.4.1,0,.6,0,1-.3,1.2-.1,0-.2,0-.2.1,0,.1-.1.2-.2.2h0c0,.1-.2.2-.3.1-.2,0-.3,0-.3,0v-.2c0,0,.7-6.1.7-6.1,0-.4,0-.6,0-.8,0-.3,0-.6.2-.6.1,0,.2.1.4.1.1,0,.3,0,.6,0,.3,0,.5,0,.6,0,.4,0,.5.3.5.8,0,.4,0,1,.2,1.7.2.7.3,1.3.3,1.7,0,.1,0,.3,0,.5-.2,0-.4.1-.6.2-.2,0-.4,0-.7,0,0-.6-.2-1.3-.2-1.8,0-.7-.2-1.2-.3-1.7l-.4,3.2c0,.3,0,.4.4.4,0,0,.2,0,.3,0,0,0,.2,0,.3.2,0,.2,0,.4.1.4.1,0,.3-.2.5-.2.2,0,.3-.1.5-.2,0,.1.2.3.2.6,0,.4,0,.6,0,.6,0,.1,0,.5.2.9,0,.4.1.7.1.9,0,.1,0,.2,0,.3"/>
          <path class="cls-21" d="M75.2,52.4s0,.2,0,.4c0,.2,0,.3,0,.4,0,.1,0,.4,0,.6,0,0,0,.2,0,.3,0,.1,0,.2,0,.3,0,.5,0,.8-.2,1,0,.1,0,.2,0,.4,0,.4-.1.9-.4,1.5,0,0-.1,0-.2,0,0,0-.2,0-.2-.2,0-.1,0-.2-.1-.3,0-.6,0-1.4,0-2.5h0c0-.3,0-.5,0-.7,0-.2,0-.4,0-.8,0-.3,0-.6,0-.7,0-.1,0-.2,0-.3-.3.6-.4,1.7-.6,3.2v.2c-.1,0-.2.1-.3.1,0,0,0,0,0,0s0,0-.1,0c0,0-.1,0-.1,0h-.2c0,.2.2.2.4.2.2,0,.3,0,.3.2,0,.2,0,.4-.1.6,0,.3-.1.4-.1.6,0,0,0,.2,0,.3h-.8c0,0-.1-.3-.2-.6,0-.4,0-.6-.2-.8,0,0,0-.1,0-.2,0,0,0-.1,0-.2,0-.1,0-.2,0-.2,0,0,0-.3,0-.6,0-.3,0-.5,0-.6,0,0,0-.1,0-.2,0,0,0-.1,0-.2,0-.1,0-.2,0-.2s0,0,0,0c0,0,0-.2,0-.3,0-.2,0-.3,0-.3-.1.3-.2.7-.2,1.2,0,.7,0,1.1,0,1.2h0c0,0,0,.1,0,.1,0,.3,0,.6,0,1,0,.8,0,1.1,0,1.1-.1,0-.3.1-.4.1-.2,0-.4,0-.5,0,0-.2-.1-.4-.1-.6,0-.2,0-.5.1-.7-.1-.2-.2-.5-.1-.8,0,0,0-.2,0-.5,0-.2,0-.3,0-.4,0,0,.1,0,.1-.1s0,0,0-.2c0,0,0-.1,0-.2,0,0,0,0,0-.1l-.2-3.7c.1,0,.4-.1.7-.1.4,0,.6,0,.7,0,0,0,0,0,0,0,0,0,0,0,.1,0,0,0,0,0,0,0,0,0,0,0,0,0l.2.2c0,.3.1.8.2,1.5,0,.7.2,1.2.3,1.5.2-.7.3-1.2.5-1.7l.2-1.8h1.8c0,0,0,.6,0,.9,0,.3,0,.5,0,.6,0,.2,0,.4,0,.5,0,0,0,.2,0,.3,0,.1,0,.2,0,.3"/>
          <path class="cls-21" d="M78.8,56.4h0c0,0,0,.2,0,.3,0,0,0,.2,0,.4,0,.2,0,.3,0,.4,0,0-.3,0-.7,0-.3,0-.5,0-.7,0l-.2-.2c0,0,0,.1,0,.1,0,0-.2,0-.5,0-.2,0-.4,0-.5,0-.1.1-.3.1-.4,0,0,0,0-.1,0-.2,0-.1,0-.2,0-.2,0-.2,0-.6,0-1.1,0-.5,0-.8,0-1.1,0-.3,0-.7,0-1,0,0,.2-.1.3-.1.1,0,.3,0,.4.2.2.2.4.2.4.2h0c0,0,0,0,.1-.3,0-.1,0-.2.2-.3h0c0,0,.1,0,.3-.1.1,0,.2-.3.3-.3,0,0,.2,0,.2.1.1,0,.2.3.2.5,0,.1,0,.3.1.4-.3,0-.6,0-.8,0,0,0-.1,0-.2,0,0,0-.2,0-.2,0,0,.1,0,.4,0,.7,0,.3,0,.6,0,.7,0,.3,0,.5,0,.8,0,0,.3,0,.9,0,.4,0,.7,0,.9,0M78.8,50.9c0,0-.1,0-.2,0-.2,0-.4,0-.7,0-.4,0-.6,0-.6,0-.1.2-.2.4-.2.7,0,.6,0,.9,0,.8.1,0,.2.2.2.3,0,.2,0,.3,0,.4,0,0,0,0,0,.2,0,0-.2,0-.3-.2-.1-.1-.2.3-.2.2v.2c0,0-.1,0-.1,0,0,0-.2,0-.3,0-.1,0-.2-.1-.3-.2,0-.1,0-.2,0-.2v-.2c-.1,0-.2.1-.2.1,0-.8,0-2.3,0-3.1.3,0,.6,0,1,0,.2,0,.6,0,1,0s.8,0,1,0c0,0,.1.2.1.3,0,0,0,.2,0,.4,0,.2,0,.3,0,.4"/>
          <path class="cls-21" d="M66,63.2h0s0,.2,0,.5c0,.2,0,.4-.1.5h0c0,.2-.2.3-.4.3,0,0-.2.1-.3.1,0,0-.3,0-.6,0-.2,0-.2-.1-.2-.2,0,0-.1-.1-.1-.2,0,0-.2-.3-.3-.5,0-.2,0-.2-.1-.3,0,0-.1,0-.2-.2h0c0,0,0,0,0-.1,0,0,0,0,0,0,0,0,0,0,0,0,0,0,0,0,0,0,0-.2,0-.4,0-.8,0,0,0,0,0-.2,0,0,0-.2,0-.2.1-.3.4-.5.7-.6,0,0,.1,0,.3,0,.1,0,.2,0,.2,0,0,0,.2,0,.3,0,0,0,.2.1.3.2.2.2.2.4.3.6,0,0,0,.1,0,.2-.1,0-.2,0-.2.2h-.5s0-.1,0-.2c0,0,0,0,0-.2,0,0,0-.1,0-.2,0-.1,0-.2,0-.3h-.1c0,0,0,0,0,0,0,0,0,0,0,0,0,0,0,0,0,0,0,0,0,0-.1,0,0,.5,0,1,0,1.6,0,0,0,0,.1,0,0,0,0,0,0,0,0,0,0,0,0,0h0c0,0,0,.1,0,.2,0,0,0,0,0,.2,0,0,0,.1,0,.2,0,.1,0,.2,0,.2,0,0,0,.1,0,.2,0,0,0,0,.1,0,.1,0,.2,0,.3.2,0,0,0,0,0,0,0,0,0,0,0,0,0,0,0,0,0-.2,0-.1,0-.2,0-.2,0,0,0-.1,0-.2,0,0,0-.2,0-.2,0,0,0-.1,0-.2,0,0,0,0,0,0,0,0,0,0,0,0,.2,0,.5,0,.8,0"/>
          <path class="cls-21" d="M68.1,63.6h0c0,0,0,.1,0,.2,0,.1,0,.2,0,.2,0,0,0,0,0,0,0,0,0,0,0,.1,0,0,0,0,0,0h0c0,0,0,.1,0,.1,0,0-.1,0-.2,0,0,0-.2,0-.3,0,0-.5,0-.9-.2-1.3,0,0,0,0,0-.1,0,0,0-.1,0-.1h0s0,0,0,0c0,0,0,0,0,0,0,0,0,0,0,0h0c0,0-.1,0-.1.2,0,0,0,.1,0,.1,0,0,0,0,0,0,0,0,0,0,0,0,0,0,0,0,0,0,0,0,0,0,0,0,0,0,0,.2,0,.5,0,.2,0,.4,0,.6h0c0,0,0,0,0,0,0,0-.1,0-.2,0,0,0-.1,0-.2,0-.2,0-.3,0-.3,0v-1.9c0,0-.1-.2-.1-.4v-.4c0-.2,0-.3,0-.4,0,0,0,0,.2-.1,0,0,.1,0,.3,0,0,0,.1,0,.2,0,0,0,0,0,.1,0,0,0,0,0,.1,0,.2,0,.3,0,.3-.1,0,0,.2,0,.2,0,0,0,.2,0,.2,0,.2.1.3.3.3.5,0,0,0,.3,0,.6l-.3.3c0,0,.1.3.2.6,0,.3.2.5.3.6M67.5,61.5h0s0,0,0-.2c0,0,0-.2,0-.2,0,0,0,0,0,.2,0,.1,0,0-.1.1-.1,0-.1,0-.1,0,0-.2,0-.1,0-.1h0s0,0,0,0c0,0,0,0,0,0,0,0,0,0,0,0,0,0,0,0,0,0,0,0,0,0,0,0,0,0,0,.1,0,.2,0,0,0,.1,0,.3,0,.1,0,.2,0,.3,0,0,0,0,.1,0,.1,0,.2,0,.3-.2,0,0,0-.1,0-.3,0-.1,0-.2.1-.3"/>
          <path class="cls-21" d="M70.4,64.3c0,0-.1,0-.2,0,0,0-.1,0-.2,0-.1,0-.2,0-.2,0,0,0,0-.2-.1-.3,0-.2,0-.3,0-.3,0,0,0,0,0,0,0,0,0,0-.1,0,0,0-.1,0-.1,0,0,0,0,0,.1,0,0,0,0,0,0-.1,0,0,0-.1,0-.1,0,0-.1,0-.2,0-.1,0-.2,0-.2,0,0,.3,0,.7-.1.8,0,0-.1,0-.1,0,0,0,0,0-.1.1h0c0,0,0,0-.2,0-.1,0-.2,0-.2,0h0c0,0,.2-3.1.2-3.1,0-.2,0-.3,0-.3,0-.1,0-.2.1-.3,0,0,.1,0,.2,0,0,0,.2,0,.3,0,.1,0,.2,0,.3,0,.2,0,.3,0,.3.3,0,.2,0,.4.2.7.1.3.2.6.2.7,0,0,0,.2,0,.2,0,0-.2,0-.3,0-.1,0-.2,0-.4,0,0-.3-.2-.6-.2-.8,0-.3-.1-.5-.2-.7v1.4c0,.1,0,.2.1.2,0,0,0,0,.1,0,0,0,0,0,.2,0,0,.1,0,.2,0,.2,0,0,.1,0,.3-.1,0,0,.2,0,.3-.1,0,0,0,.1.1.2,0,.2,0,.2,0,.3,0,0,0,.2.1.4,0,.2,0,.3,0,.4,0,0,0,0,0,.1"/>
          <path class="cls-21" d="M72.2,60.9h0c0,0-.1,0-.2,0,0,0,0,0-.2,0-.1,0-.2,0-.2,0,0,0,0,0,0,0,0,0,0,0,0,0,0,0,0,0,0,0,0,0,0,0,0,0,0,0,0,0,0,0h0c0,0,0,0,0,.1,0,0,0,0,0,0,0,0,0,0,0,0,0,0,0,.2,0,.4,0,.2,0,.3.1.4,0,0,0,0,.1,0,0,0,.1,0,.1,0,0,0,.1,0,.2,0,0,0,.2,0,.2,0v.4s-.1,0-.2,0c0,0,0,.1-.1.1,0,0,0,0-.2,0,0,0,0,0,0,0-.1,0-.2.2-.1.4,0,0,0,0,0,.1,0,0,0,0,0,.1,0,0-.2,0-.3,0-.1,0-.2,0-.2,0,0,0,0,0,0,0h-.1s-.2-2-.2-2v-.4c.1,0,.3,0,.6,0,.2,0,.4,0,.7,0,0,0,0,0,0,0,0,0,0,0,0,0,0,0,0,0,0,0,0,0,0,0,0,0h0c0,0,.1,0,.1.1,0,0,0,0,0,.1,0,0,0,.1,0,.1,0,0,0,0,0,0M71.4,64.3s-.1,0-.2,0c-.1,0-.2,0-.2,0,0,0,0,0,0-.1,0,0,0-.1-.1,0,0,0,0,0,0,0h-.1s0-1,0-1c0,0,.1,0,.2,0,0,0,.2,0,.2,0,0,0,0,0,.2,0h.1c0,.3.1.8.1,1.1"/>
          <path class="cls-21" d="M74.7,61h0c0,0-.2,0-.4,0-.1,0-.2,0-.3,0,0,0,0,0,0,.2h0c0,0,0,0,0,0h0c0,.6,0,1,0,1,0,.2,0,.3,0,.4,0,0,0,.2,0,.3,0,0,0,.2,0,.3,0,.1,0,.6,0,.7,0,0,0,.1,0,.2,0,0-.1,0-.2,0-.1,0-.2,0-.4,0,0,0,0,0,0,0,0,0,0,0,0,0,0,0,0,0-.2,0,0-.6-.1-1.8-.3-3.1,0,0-.2,0-.3,0-.1,0-.3,0-.3,0,0,0,0,0,0-.2,0-.1,0-.4,0-.5,0,0,.2,0,.4,0,.2,0,.2,0,.2,0,0,0,.1,0,.2,0,0,0,0,0,0,0,0,0,0,.1,0,.2,0,0,0,0,0,0,0,0,0,0,.1,0,0,0,.2,0,.2,0,0,0,.2,0,.2,0,0,0,0,0,.2,0,0,0,.1-.2.1-.2,0,0,0,0,0,0,0,0,0,0,0,0,.2,0,.2,0,.3,0,0,0,.2,0,.3,0,0,0,0,.2,0,.3,0,.2,0,.2,0,.3"/>
          <path class="cls-21" d="M76.7,63.1h0s0,0,0,.1c0,0,0,0,0,.2,0,0,0,.1,0,.2,0,0-.2,0-.4,0-.1,0-.3,0-.4,0h-.1c0,0,0,0,0,0,0,0-.1,0-.3,0-.1,0-.2,0-.3,0,0,0-.1,0-.2,0,0,0,0,0,0-.1,0,0,0,0,0-.1,0-.1,0-.3,0-.5,0-.2,0-.4,0-.5,0-.2,0-.3,0-.4,0,0,0,0,.2,0,0,0,.1,0,.2,0,.1,0,.2,0,.2,0h0s0,0,0-.1c0,0,0-.1,0-.1h0s0,0,.2,0c0,0,.1-.2.2-.2,0,0,0,0,.1,0,0,0,.1.2.2.3,0,0,0,.1,0,.2-.2,0-.3,0-.5,0,0,0,0,0-.1,0,0,0,0,0-.1,0,0,0,0,.2,0,.3,0,.1,0,.2,0,.3,0,.1,0,.2,0,.3,0,0,.2,0,.5,0,.2,0,.4,0,.5,0M76.5,60.8s0,0-.1,0c0,0-.2,0-.4,0-.2,0-.3,0-.4,0,0,0,0,.1,0,.3,0,.3,0,.4,0,.4,0,0,0,0,0,.1,0,0,0,.1,0,.2,0,0,0,0,0,.1,0,0,0,0-.1,0,0,0,0,.1,0,0h0c0,.1,0,0,0,0,0,0,0,0-.2,0,0,0-.1,0-.2,0,0,0,0,0,0,0h0c0,0,0,0,0,0,0-.3-.1-.9,0-1.3.2,0,.3,0,.5,0,.1,0,.3,0,.5,0,.3,0,.5,0,.6,0,0,0,0,0,0,.1,0,0,0,0,0,.2,0,0,0,.2,0,.2"/>
          <path class="cls-21" d="M78.8,62.8h0c0,0,0,.1,0,.2,0,.1,0,.2,0,.2,0,0,0,0,0,0,0,0,0,0,0,0,0,0,0,0,0,0,0,0,0,0,0,0,0,0,0,0,0,0,0,0-.1,0-.2,0,0,0-.2,0-.3,0,0-.5,0-.9-.2-1.3,0,0,0,0,0-.1,0,0,0-.1,0-.1h0s0,0,0,0c0,0,0,0,0,0,0,0,0,0,0,0h0c0,0-.1,0-.1.2,0,0,0,.1,0,.1,0,0,0,0,0,0,0,0,0,0,0,0,0,0,0,0,0,0,0,0,0,0,0,0,0,0,0,.2,0,.5,0,.2,0,.4,0,.6h0c0,0,0,0,0,0,0,0-.1,0-.2,0,0,0-.1,0-.2,0-.2,0-.3,0-.3,0v-1.9c0,0-.1-.2-.1-.4v-.4c0-.2,0-.3,0-.4,0,0,0,0,.2-.1,0,0,.1,0,.3,0,0,0,.1,0,.2,0h.1c0,0,0,0,.1,0,.2,0,.3,0,.3-.1,0,0,.2,0,.2,0,0,0,.2,0,.2,0,.2.1.3.3.3.5,0,0,0,.3,0,.6l-.3.3c0,0,.1.3.2.6,0,.3.2.5.3.6M78.2,60.6h0s0,0,0-.2c0,0,0-.2-.1-.2,0,0,0,0,0,0,0,.1,0,.2,0,.2-.1,0-.1,0-.2-.1,0,0,0,0,0,0h0s0,0,0,0c0,0,0,0,0,0,0,0,0,0,0,0,0,0,0,0,0,0,0,0,0,0,0,0,0,0,0,.1,0,.2,0,0,0,.1,0,.3,0,.1,0,.2,0,.3,0,0,0,0,.1,0,.1,0,.2,0,.3-.2,0,0,0-.1,0-.3,0-.1,0-.2.1-.3"/>
          <path class="cls-21" d="M58.1,54.2h0c0,.2,0,.3,0,.4,0,0,0,0-.1,0,0,0,0,0,0,0,0,0,0,0,0,0,0,0,0,0,0,0,0,0,0,0,0,0,0,0,0,0,0,0,0,0,0,0,0,0,0,0,0,0,0,.1,0,0,0,0,0,.1,0,0,0,.1,0,.2,0,0,0,.1,0,.2,0,0,0,.2,0,.3,0,.1,0,.2,0,.4,0,0,0,0,0,0,0,0,0,0,0,0,0,0,0,0,0,0s0,0,0,0c0,.2,0,.3,0,.3,0,0,0,0,0,0,0,0-.1,0-.2,0,0,0,0,0,0,0h0c0,.1.1.2.1.3,0,0,0,0,0,0,0,0,0,0,0,0h0c0-.1,0,0,0,0,0,0,0,0,0,0,0,0,0,0,0,0,0,0,0,0-.1,0,0,0,0,0,0,0,0,0,0,0,0-.1,0,0,0,0,0,0,0,0,0-.3,0-.7,0-.3,0-.5,0-.7,0,0,0-.2,0-.2,0,0,0,0,0,0s0,0,0,0c0,0,0,0,0,0,0,0,0,0,0-.1,0,0,0-.1,0-.1,0,0,0,0,0-.1h.1s0-.1,0-.3c0,0,0,0,0-.1,0,0,0-.1,0-.1,0-.2,0-.4.2-.4,0,0,.1,0,.2,0h.1c0,0,0,.1,0,.1,0,0,0,.1,0,.2,0,.1,0,.2,0,.2,0,0,0,.2,0,.2,0,0,0,0,.1,0,0,0,0,0,.1,0,0,0,0,0,.1,0M57.7,54.5h0c0-.1,0-.1,0-.1h0Z"/>
          <path class="cls-21" d="M59.3,53.8h0c0,0,0,.2,0,.2,0,0,0,.2,0,.2,0,0,0,0-.1,0,0,0,0,0-.1,0,0,.2,0,.4,0,.7,0,.4,0,.6,0,.7,0,0,0,0-.1,0,0,0,0,0,0,.1,0,0,0,0,0,0,0,0,0,0,0,0,0,0,0,0,0,0,0,0,0,0-.1.1,0,0,0,0-.1,0,0,0-.1,0-.1,0v-1.3s0,0,0,0h0c0,0,0-.4,0-.8,0-.3,0-.6,0-.8,0,0,0,0,.3,0,.1,0,.2,0,.2,0,0,0,0,.2,0,.3,0,.1,0,.3,0,.3,0,0,0,.2,0,.3.1-.1.2-.2.4-.2M59.8,54.1c0,.1,0,.2,0,.4,0,.5,0,1,0,1.6,0,0-.1,0-.2,0,0,0-.2,0-.2,0,0,0,0-.2,0-.4,0-.3,0-.4,0-.4,0-.6,0-1.1.2-1.5.2,0,.3.1.3.3"/>
          <path class="cls-21" d="M61.4,54.8s0,0,0,.1c0,0,0,0,0,.1,0,0,0,0,0,.1,0,0,0,0,0,0s0,0,0,0c0,0,0,0,0,0,0,0,0,0,0,0l-.2-.3c0,0,0,.2,0,.2,0,0,0,0,0,.1-.1,0-.2,0-.2,0h0s0,0,0,0c0,0,0,.2,0,.3,0,.1,0,.2,0,.3,0,0,.1,0,.2,0,0,0,0,0,0,0,0,0,0-.1,0-.2,0,0,0-.1.1-.1,0,0,0,0,.2,0,0,0,.1,0,.1,0,0,0,0,0,0,.1,0,0,0,0,0,.1,0,0,0,0,0,0,0,0,0,0-.1.1,0,0,0,.1-.1.1,0,0,0,0-.1,0,0,0,0,0-.2,0,0,0-.1,0-.2,0,0,0,0-.1-.2-.2,0,0-.2-.1-.2-.2,0,0,0,0,0,0,0,0,0,0,0,0h0s0,0,0-.1c0,0,0,0,0,0,0,0,0,0,0,0,0,0,0,0,0,0v-.2c0,0,0-.1,0-.2,0-.2,0-.4,0-.6,0-.2.1-.3.2-.3,0,0,0,0,0,0,0,0,.2-.1.3-.1.1,0,.3,0,.5.1.1.2.2.4.2.7M60.7,54.3h0s0,0,0,0h0c0,.2,0,.2,0,.3,0,.2,0,.3,0,.3h.1c0,0,0,0,0-.2,0,0,0-.1,0-.2,0,0,0-.2,0-.2"/>
          <polygon class="cls-26" points="62.4 59.3 62.6 59.4 63 58.2 62.9 58.2 62.4 59.4 62.5 59.4 62.4 59.3"/>
          <polygon class="cls-26" points="62.6 59.2 62.6 59.2 62.4 59.3 62.5 59.4 62.7 59.3 62.6 59.3 62.6 59.2"/>
          <polygon class="cls-26" points="63.7 59.2 63.8 59.1 62.6 59.2 62.6 59.3 63.8 59.3 63.9 59.2 63.7 59.2"/>
          <polygon class="cls-26" points="64.3 58.1 64.2 58 63.7 59.2 63.9 59.2 64.3 58 64.3 57.9 64.3 58.1"/>
          <polygon class="cls-26" points="63.2 58.1 63.1 58.1 64.3 58.1 64.3 57.9 63.1 58 63 58 63.2 58.1"/>
          <polygon class="cls-26" points="63 58.2 63 58.2 63.2 58.1 63 58 62.9 58.1 62.9 58.2 63 58.2"/>
          <polygon class="cls-26" points="64 59.3 64.1 59.3 63.9 59.1 63.8 59.3 64 59.4 64.1 59.3 64 59.3 64 59.3"/>
          <polygon class="cls-26" points="64.5 58.2 64.5 58.1 64 59.3 64.1 59.3 64.6 58.1 64.6 58.1 64.5 58.2"/>
          <polygon class="cls-26" points="64.3 58 64.2 58.1 64.5 58.2 64.6 58.1 64.3 57.9 64.2 58 64.3 58"/>
          <polygon class="cls-21" points="63 58.2 62.9 58.2 63.1 58 64.2 58 64.2 58 64.3 58 64.3 58 64.3 58 64.5 58.1 64.6 58.1 64.6 58.2 65.1 59.5 64.7 60.7 64.1 59.3 64 59.4 64 59.3 64 59.3 63.8 59.2 63.8 59.3 63.8 59.2 62.6 59.2 62.5 59.4 63 58.2"/>
          <polygon class="cls-26" points="64.6 60.7 64.7 60.7 64.2 59.3 64 59.4 64.6 60.7 64.7 60.7 64.6 60.7 64.6 60.7"/>
          <polygon class="cls-26" points="65 59.5 65 59.5 64.6 60.7 64.7 60.7 65.2 59.5 65.2 59.5 65 59.5"/>
          <polygon class="cls-26" points="64.6 58.1 64.5 58.2 65 59.5 65.2 59.5 64.6 58.1 64.5 58.1 64.6 58.1"/>
          <polygon class="cls-24" points="64.6 58.5 64.6 58.6 64.7 58.7 64.7 58.9 64.6 59 64.5 59.2 64.4 59.3 64.3 59.4 64.2 59.5 64.1 59.6 64 59.6 63.9 59.6 63.8 59.6 63.7 59.6 63.6 59.7 63.5 59.6 63.5 59.6 63.4 59.6 63.3 59.6 63.2 59.6 63.2 59.5 63.1 59.5 63 59.4 63 59.4 62.9 59.3 62.9 59.2 62.8 59 62.8 58.9 62.9 58.7 63 58.6 63.1 58.5 63.2 58.3 63.3 58.2 63.4 58.2 63.5 58.2 63.6 58.2 63.7 58.1 63.8 58.1 63.9 58.1 64 58.1 64 58.1 64.1 58.2 64.2 58.2 64.3 58.2 64.3 58.2 64.4 58.3 64.5 58.3 64.5 58.4 64.6 58.5"/>
          <polygon class="cls-26" points="64.6 58.7 64.7 58.8 64.7 59 64.7 59.1 64.7 59.3 64.6 59.4 64.5 59.5 64.4 59.7 64.2 59.8 64.1 59.8 64 59.8 64 59.9 63.9 59.9 63.8 59.9 63.7 59.9 63.6 59.9 63.5 59.9 63.4 59.9 63.4 59.8 63.3 59.8 63.2 59.8 63.1 59.7 63.1 59.7 63 59.6 63 59.5 62.9 59.4 62.9 59.3 62.9 59.1 62.9 59 63 58.8 63.1 58.7 63.2 58.6 63.4 58.5 63.5 58.4 63.6 58.4 63.7 58.4 63.8 58.4 63.8 58.4 63.9 58.4 64 58.4 64.1 58.4 64.2 58.4 64.3 58.4 64.3 58.4 64.4 58.5 64.5 58.5 64.5 58.6 64.6 58.6 64.6 58.7 64.6 58.7"/>
          <polygon class="cls-24" points="64.7 58.9 64.7 59 64.8 59.1 64.8 59.3 64.7 59.4 64.6 59.6 64.5 59.7 64.4 59.8 64.3 59.9 64.2 60 64.1 60 64 60 63.9 60 63.8 60 63.7 60.1 63.6 60 63.6 60 63.5 60 63.4 60 63.3 60 63.3 59.9 63.2 59.9 63.1 59.8 63.1 59.8 63 59.7 63 59.6 62.9 59.4 62.9 59.3 63 59.1 63.1 59 63.2 58.9 63.3 58.7 63.4 58.6 63.5 58.6 63.6 58.6 63.7 58.5 63.8 58.5 63.9 58.5 64 58.5 64.1 58.5 64.1 58.5 64.2 58.5 64.3 58.6 64.4 58.6 64.4 58.6 64.5 58.7 64.6 58.7 64.6 58.8 64.7 58.9"/>
          <polygon class="cls-26" points="64.7 59.1 64.8 59.2 64.8 59.4 64.8 59.5 64.8 59.7 64.7 59.8 64.6 59.9 64.5 60.1 64.3 60.2 64.2 60.2 64.1 60.2 64.1 60.3 64 60.3 63.9 60.3 63.8 60.3 63.7 60.3 63.6 60.3 63.5 60.3 63.5 60.2 63.4 60.2 63.3 60.2 63.2 60.1 63.2 60.1 63.1 60 63.1 60 63 59.8 63 59.7 63 59.5 63 59.4 63.1 59.2 63.2 59.1 63.3 59 63.5 58.9 63.6 58.8 63.7 58.8 63.8 58.8 63.9 58.8 63.9 58.8 64 58.8 64.1 58.8 64.2 58.8 64.3 58.8 64.4 58.8 64.4 58.8 64.5 58.9 64.6 58.9 64.6 59 64.7 59 64.7 59.1 64.7 59.1"/>
          <polygon class="cls-24" points="64.8 59.3 64.9 59.4 64.9 59.5 64.9 59.7 64.9 59.8 64.8 60 64.7 60.1 64.6 60.2 64.4 60.3 64.3 60.4 64.2 60.4 64.1 60.4 64.1 60.4 64 60.4 63.9 60.4 63.8 60.4 63.7 60.4 63.6 60.4 63.5 60.4 63.5 60.4 63.4 60.3 63.3 60.3 63.3 60.2 63.2 60.2 63.2 60.1 63.1 60 63.1 59.8 63.1 59.7 63.1 59.5 63.2 59.4 63.3 59.3 63.4 59.1 63.6 59 63.7 59 63.8 59 63.9 58.9 63.9 58.9 64 58.9 64.1 58.9 64.2 58.9 64.3 58.9 64.4 58.9 64.5 59 64.5 59 64.6 59 64.7 59.1 64.7 59.1 64.8 59.2 64.8 59.3"/>
          <polygon class="cls-26" points="64.9 59.5 64.9 59.6 65 59.8 65 59.9 64.9 60.1 64.8 60.2 64.7 60.3 64.6 60.5 64.5 60.6 64.4 60.6 64.3 60.6 64.2 60.6 64.1 60.7 64 60.7 63.9 60.7 63.8 60.7 63.8 60.7 63.7 60.7 63.6 60.6 63.5 60.6 63.5 60.6 63.4 60.5 63.3 60.5 63.3 60.4 63.2 60.3 63.2 60.2 63.1 60.1 63.1 59.9 63.2 59.8 63.3 59.6 63.4 59.5 63.5 59.4 63.7 59.3 63.7 59.2 63.8 59.2 63.9 59.2 64 59.2 64.1 59.2 64.2 59.1 64.3 59.2 64.3 59.2 64.4 59.2 64.5 59.2 64.6 59.2 64.6 59.3 64.7 59.3 64.8 59.4 64.8 59.4 64.9 59.5"/>
          <polygon class="cls-26" points="56.9 57.6 56.9 57.6 56.4 58.8 56.5 58.9 57 57.7 57 57.6 56.9 57.6"/>
          <polygon class="cls-26" points="56.8 57.6 56.8 57.6 56.9 57.6 57 57.6 57 57.6 57 57.5 56.8 57.6"/>
          <polygon class="cls-26" points="56.8 57.5 56.8 57.6 57 57.5 57 57.5 56.8 57.5"/>
          <rect class="cls-21" x="56.8" y="57.4" width=".2" height="0" transform="translate(-13.9 18.4) rotate(-16.4)"/>
          <polygon class="cls-26" points="56.8 57.4 56.8 57.4 56.8 57.5 57 57.4 56.9 57.3 56.9 57.3 56.8 57.4"/>
          <polygon class="cls-26" points="56.8 57.3 56.8 57.3 56.8 57.4 56.9 57.3 56.9 57.3 56.9 57.3 56.8 57.3"/>
          <polygon class="cls-26" points="56.9 57.3 56.8 57.2 56.8 57.3 56.9 57.3 56.9 57.3 56.8 57.2 56.9 57.3 56.9 57.3"/>
          <rect class="cls-18" x="56.9" y="60.7" width=".2" height="0" transform="translate(-10.7 12.2) rotate(-11.2)"/>
          <polygon class="cls-26" points="57.4 59.8 57.4 59.7 56.9 60.9 57.1 61 57.5 59.8 57.5 59.7 57.4 59.8"/>
          <polygon class="cls-26" points="57.4 59.7 57.4 59.8 57.5 59.7 57.5 59.7 57.4 59.7 57.4 59.7"/>
          <polygon class="cls-26" points="57.4 59.6 57.4 59.7 57.5 59.7 57.5 59.6 57.4 59.6"/>
          <polygon class="cls-26" points="57.3 59.5 57.3 59.5 57.4 59.6 57.5 59.6 57.5 59.5 57.5 59.5 57.3 59.5"/>
          <polygon class="cls-26" points="57.5 59.5 57.3 59.4 57.3 59.5 57.5 59.5 57.5 59.4 57.3 59.4 57.5 59.5"/>
          <path class="cls-18" d="M56.4,58.6h0s0,0,0,0Z"/>
          <polygon class="cls-18" points="56.5 58.8 56.5 58.8 56.5 58.8 56.5 58.9 56.5 58.8 56.5 58.8"/>
          <polygon class="cls-21" points="56.3 58.5 56.4 58.5 56.4 58.5 56.8 57.2 56.8 57.3 56.8 57.3 56.9 57.4 56.9 57.4 56.9 57.5 56.9 57.6 56.9 57.6 57 57.7 56.5 58.9 56.5 58.8 56.5 58.8 56.5 58.8 56.5 58.8 56.5 58.9 56.5 58.9 56.5 58.9 56.4 58.9 56.4 58.8 56.4 58.8 56.4 58.8 56.4 58.7 56.4 58.7 56.3 58.7 56.3 58.6 56.4 58.6 56.3 58.6 56.3 58.6 56.3 58.5"/>
          <polygon class="cls-21" points="56.5 58.8 59.9 58.6 59.9 58.7 60 58.7 60 58.7 60 58.7 60.1 58.7 60.2 58.7 60.2 58.7 60.3 58.8 60.3 58.8 60.4 58.9 60.4 58.9 60.4 58.9 60.5 58.9 60.5 59 60.5 59 60.3 59 60.3 59 60.3 59 60.3 59 60.3 59 60.2 58.9 60.2 58.9 60.2 58.9 60.2 58.9 60.1 58.9 60 58.8 59.9 58.8 59.9 58.8 59.8 58.8 59.8 58.8 56.5 58.9 56.5 58.8"/>
          <polygon class="cls-21" points="60.3 59 60.3 59 60.3 59.1 60.3 59"/>
          <polygon class="cls-26" points="62.1 61.9 62.1 61.8 61.7 63 61.8 63.1 62.3 61.9 62.3 61.8 62.1 61.9"/>
          <polygon class="cls-26" points="60.8 57.9 60.8 57.8 62.1 61.9 62.3 61.8 60.9 57.8 60.9 57.8 60.8 57.9"/>
          <polygon class="cls-26" points="60.8 57.8 60.8 57.8 60.8 57.9 60.9 57.8 60.9 57.7 60.9 57.7 60.8 57.8 60.8 57.8"/>
          <polygon class="cls-26" points="60.7 57.8 60.7 57.8 60.8 57.8 60.9 57.7 60.9 57.7 60.8 57.6 60.7 57.8"/>
          <polygon class="cls-26" points="60.7 57.7 60.7 57.7 60.7 57.8 60.8 57.6 60.8 57.6 60.8 57.6 60.7 57.7"/>
          <polygon class="cls-26" points="60.6 57.7 60.6 57.7 60.7 57.7 60.8 57.6 60.7 57.5 60.7 57.5 60.6 57.7"/>
          <polygon class="cls-26" points="60.5 57.7 60.5 57.7 60.6 57.7 60.7 57.5 60.6 57.5 60.6 57.5 60.5 57.7 60.5 57.7"/>
          <polygon class="cls-26" points="60.5 57.6 60.4 57.6 60.5 57.7 60.6 57.5 60.5 57.5 60.5 57.6 60.5 57.6"/>
          <polygon class="cls-26" points="60.4 57.6 60.4 57.6 60.5 57.6 60.5 57.5 60.4 57.5 60.4 57.5 60.4 57.6"/>
          <polygon class="cls-26" points="60.3 57.6 60.3 57.6 60.4 57.6 60.4 57.5 60.3 57.4 60.3 57.4 60.3 57.6"/>
          <polygon class="cls-26" points="57 57.7 56.9 57.7 60.3 57.6 60.3 57.4 56.9 57.6 56.9 57.6 57 57.7 57 57.7"/>
          <polygon class="cls-18" points="57.9 61.3 57.8 61.3 57.9 61.3 57.9 61.3"/>
          <path class="cls-18" d="M59.7,61.9v.2s0-.2,0-.2Z"/>
          <path class="cls-21" d="M56.9,60.8h0c0,0,0,.2,0,.2h0c0,0,.2.2.2.2h.2c0,.1.2.2.2.2h.2c0,0,0,.1,0,.1h.2c0,0,.2.2.2.2h.2c0,0,.2.2.2.2h0s.2,0,.2,0h.2c0,0,0,0,0,0h.3s.3,0,.3,0h.3s0,0,0,0h.3s.3,0,.3,0h.4s0,0,0,0l.5-1.2h0c0-.1,0,0,0,0h0s0,0,0,0h0s0,0,0,0h0s-.3,0-.3,0h-.7s-.3,0-.3,0h-.3s-.3,0-.3,0h-.2c0,0-.2-.1-.2-.1h-.2c0,0-.2-.2-.2-.2h-.2c0,0-.2-.2-.2-.2h-.2c0-.1-.2-.2-.2-.2h-.2c0-.1-.1-.2-.1-.2h0s0,0,0,0h0c0,0,0-.2,0-.2h0s0-.1,0-.1h0s0,0,0,0h0s-.5,1.2-.5,1.2h0s0,.1,0,.1h0ZM56.9,60.6h0s0,0,0,0h0Z"/>
          <polygon class="cls-26" points="61.1 60.8 61.4 60.8 61.4 60.7 61.1 60.7 61.1 60.8"/>
          <rect class="cls-21" x="60.7" y="60.7" width=".3" height=".2" transform="translate(-1.4 1.4) rotate(-1.3)"/>
          <polygon class="cls-26" points="60.4 60.8 60.4 60.8 60.7 60.8 60.7 60.7 60.4 60.7 60.4 60.7 60.4 60.8 60.4 60.8"/>
          <polygon class="cls-26" points="60.1 60.8 60.1 60.8 60.4 60.8 60.4 60.7 60.1 60.7 60.2 60.7 60.1 60.8"/>
          <polygon class="cls-26" points="59.9 60.8 60.1 60.8 60.2 60.7 59.9 60.6 59.9 60.8"/>
          <polygon class="cls-26" points="59.6 60.7 59.6 60.7 59.9 60.8 59.9 60.6 59.6 60.6 59.6 60.6 59.6 60.7"/>
          <polygon class="cls-26" points="59.4 60.7 59.6 60.7 59.6 60.6 59.4 60.5 59.3 60.7 59.4 60.7"/>
          <polygon class="cls-26" points="59.1 60.6 59.1 60.6 59.3 60.7 59.4 60.5 59.1 60.5 59.2 60.5 59.1 60.6"/>
          <polygon class="cls-26" points="58.9 60.5 58.9 60.5 59.1 60.6 59.2 60.5 58.9 60.4 58.9 60.4 58.9 60.5 58.9 60.5"/>
          <polygon class="cls-26" points="58.7 60.4 58.9 60.5 58.9 60.4 58.7 60.3 58.7 60.4"/>
          <polygon class="cls-26" points="58.5 60.4 58.7 60.4 58.7 60.3 58.5 60.2 58.5 60.4"/>
          <polygon class="cls-26" points="58.2 60.3 58.2 60.3 58.5 60.4 58.5 60.2 58.3 60.1 58.3 60.1 58.2 60.3 58.2 60.3"/>
          <polygon class="cls-26" points="58 60.2 58.2 60.3 58.3 60.1 58.1 60 58 60.2 58 60.2"/>
          <polygon class="cls-26" points="57.8 60 58 60.2 58.1 60 57.9 59.9 57.8 60 57.8 60"/>
          <polygon class="cls-26" points="57.6 59.9 57.8 60 57.9 59.9 57.7 59.8 57.6 59.9"/>
          <polygon class="cls-26" points="57.5 59.8 57.4 59.8 57.6 59.9 57.7 59.8 57.5 59.7 57.4 59.7 57.5 59.8"/>
          <polygon class="cls-26" points="78.6 57.6 78.1 58.8 79.6 59.3 80 58.5 80 58.4 80 58.4 80 58.3 79.9 58.2 79.9 58.1 79.9 58 79.8 58 79.7 57.9 79.7 57.8 79.6 57.8 79.5 57.7 79.4 57.7 79.4 57.6 79.3 57.6 79.2 57.5 79.1 57.5 79.1 57.5 79 57.5 78.9 57.5 78.8 57.5 78.8 57.5 78.7 57.5 78.6 57.6 78.6 57.6"/>
          <polygon class="cls-26" points="79.6 59.3 79.7 59.2 78.1 58.7 78.1 58.9 79.6 59.4 79.7 59.4 79.6 59.3"/>
          <polygon class="cls-21" points="56.3 58.5 56.3 58.4 56.8 57.2 56.9 57.3 56.5 58.5 56.5 58.5 56.5 58.5 56.3 58.5 56.3 58.5 56.3 58.5"/>
          <polygon class="cls-18" points="63.7 61.3 63.7 61.3 63.7 61.3 63.7 61.3"/>
          <path class="cls-21" d="M56.4,58.7h0c0,0,0,0,0,0h.1s0,0,0,0h3.4c0-.1,0-.1,0-.1h0s0,0,0,0h0s0,0,0,0h0s0,.1,0,.1h0c0,0,0,0,0,0l1.3,4h0s0,0,0,0h.2s.1,0,.1,0h0s0,0,0,0h0s0-.1,0-.1h.1c0-.1,0-.1,0-.1h0c0,0,0-.2,0-.2h0c0,0,0-.2,0-.2h0c0-.1,0-.2,0-.2h0c0-.1,0-.2,0-.2h0c0,0,0-.2,0-.2h0c0,0,0-.2,0-.2h0c0,0,0-.1,0-.1h0c0,0,0-.1,0-.1h0s0,0,0,0h0c0,0,0,0,0,0h0c0,0,0-.1,0-.1h0c0,0,0-.1,0-.1h0s0,0,0,0h0s0,0,0,0h0s0,0,0,0h.1s.1,0,.1,0h.1s.1,0,.1,0h.1s0,0,0,0l14.6-1.1h0s0,0,0,0h0s0,0,0,0h0s0,0,0,0h0c0,0,0-.1,0-.1h0s.3-.6.3-.6h-.1c0,0,0,0,0,0h0s0,0,0,0h0c0,.1,0,.2,0,.2h0s0,0,0,0h0s0,0,0,0h0s-14.6,1.1-14.6,1.1h0s0,0,0,0h0s0,0,0,0h-.2s0,0,0,0h0s0,0,0,0h0s0,0,0,0h0s0,0,0,0h0s0,0,0,0h0s-.2.1-.2.1l-.2.2-.2.2-.2.2-.2.2v.2c-.1,0-.3.2-.3.2h-.1c0,.1,0,.2,0,.2h0s0,0,0,0h-.2s0,0,0,0h0s-1.3-4-1.3-4h0c0,0,0-.1,0-.1h0s0,0,0,0h0s0,0,0,0h0s0,0,0,0h-3.4c0,.1-.4,1.2-.4,1.2h0s-.2,0-.2,0ZM80.6,58.8h0s0,0,0,0h0Z"/>
          <polygon class="cls-26" points="80.1 59.1 80.2 59.1 80.3 59.1 80.3 59.1 80.4 59 80.5 59 80.6 59 80.6 58.9 80.7 58.9 80.6 58.8 80.5 58.8 80.5 58.9 80.4 58.9 80.4 58.9 80.3 58.9 80.2 58.9 80.2 59 80.1 59 80.1 59.1"/>
          <polygon class="cls-26" points="65.5 60.2 80.1 59.1 80.1 59 65.5 60 65.5 60.2"/>
          <polygon class="cls-26" points="64.1 60.5 64.2 60.4 64.3 60.4 64.4 60.4 64.5 60.3 64.5 60.3 64.6 60.3 64.7 60.3 64.8 60.3 64.9 60.3 65 60.2 65.1 60.2 65.2 60.2 65.3 60.2 65.3 60.2 65.4 60.2 65.5 60.2 65.5 60 65.4 60 65.3 60.1 65.2 60.1 65.1 60.1 65.1 60.1 65 60.1 64.9 60.1 64.8 60.1 64.7 60.1 64.6 60.1 64.5 60.2 64.4 60.2 64.3 60.2 64.2 60.2 64.1 60.3 64 60.3 64.1 60.5"/>
          <polygon class="cls-26" points="62.8 61.9 62.8 61.9 62.9 61.8 63 61.7 63 61.6 63.1 61.5 63.2 61.4 63.3 61.3 63.3 61.2 63.4 61.1 63.5 61 63.6 60.9 63.7 60.8 63.8 60.7 63.9 60.6 64 60.6 64 60.5 64.1 60.5 64 60.3 63.9 60.4 63.9 60.4 63.8 60.5 63.7 60.6 63.6 60.7 63.5 60.8 63.4 60.9 63.3 61 63.2 61.1 63.1 61.2 63.1 61.3 63 61.4 62.9 61.5 62.8 61.6 62.8 61.7 62.7 61.8 62.8 61.7 62.8 61.9"/>
          <polygon class="cls-24" points="60 57.5 60.3 57.5 60.3 57.5 57.7 56.7 57.6 56.7 60 57.5 60 57.5"/>
          <polygon class="cls-24" points="60 57.5 56.9 57.6 56.9 57.6 56.9 57.5 56.9 57.4 56.9 57.4 56.8 57.3 56.8 57.3 56.9 57.2 56.9 57.2 57 57.1 57.2 57 57.3 56.9 57.5 56.8 57.6 56.7 57.6 56.7 60 57.5 60 57.5"/>
          <polygon class="cls-25" points="58.1 59.4 60.2 59.3 61.1 59.6 61.3 60.5 61.4 60.7 61.1 60.8 60.7 60.8 60.4 60.8 60.1 60.7 59.9 60.7 59.6 60.7 59.4 60.6 59.1 60.5 58.9 60.5 58.7 60.4 58.5 60.3 58.3 60.2 58.1 60.1 57.9 60 57.7 59.9 57.5 59.8 57.5 59.7 57.4 59.6 57.4 59.5 57.4 59.4 58.1 59.4"/>
          <polygon class="cls-24" points="63.4 59.6 63.4 59.7 63.7 59.8 63.8 59.7 63.5 59.5 63.6 59.6 63.4 59.6 63.4 59.6 63.4 59.7 63.4 59.6"/>
          <polygon class="cls-24" points="61 59.7 61 59.6 61.4 60.8 61.5 60.7 61.1 59.6 61.1 59.5 61.1 59.6 61.1 59.5 61.1 59.5 61 59.7"/>
          <polygon class="cls-24" points="60.2 59.3 60.2 59.3 61 59.7 61.1 59.5 60.3 59.2 60.2 59.2 60.3 59.2 60.3 59.2 60.2 59.2 60.2 59.3"/>
          <polygon class="cls-24" points="57.5 59.4 57.4 59.5 60.2 59.3 60.2 59.2 57.4 59.4 57.3 59.4 57.4 59.4 57.3 59.4 57.3 59.4 57.5 59.4"/>
          <polygon class="cls-24" points="57.5 59.7 57.5 59.7 57.5 59.7 57.5 59.7 57.5 59.6 57.5 59.6 57.5 59.5 57.5 59.5 57.5 59.5 57.5 59.4 57.3 59.4 57.3 59.5 57.3 59.5 57.3 59.6 57.4 59.6 57.4 59.6 57.4 59.7 57.4 59.7 57.4 59.8 57.4 59.8 57.4 59.8 57.4 59.8 57.4 59.8 57.5 59.7"/>
          <polygon class="cls-24" points="61.4 60.8 61.4 60.7 61.1 60.7 60.7 60.7 60.4 60.7 60.1 60.7 59.9 60.6 59.6 60.6 59.4 60.5 59.2 60.5 58.9 60.4 58.7 60.3 58.5 60.2 58.3 60.1 58.1 60 57.9 59.9 57.7 59.8 57.5 59.7 57.4 59.8 57.6 59.9 57.8 60 58 60.2 58.2 60.3 58.5 60.4 58.7 60.4 58.9 60.5 59.1 60.6 59.3 60.7 59.6 60.7 59.9 60.8 60.1 60.8 60.4 60.8 60.7 60.8 61.1 60.8 61.4 60.8 61.5 60.7 61.4 60.8 61.5 60.8 61.5 60.7 61.4 60.8 61.4 60.8"/>
          <polygon class="cls-24" points="65.5 60 65.4 60 65.3 60.1 65.2 60.1 65.1 60.1 65 60.1 64.8 60.1 64.7 60.1 64.6 60.2 64.5 60.2 64.4 60.2 64.3 60.3 64.2 60.3 64.1 60.3 64 60.4 63.9 60.4 63.8 60.5 63.9 60.6 64 60.6 64.1 60.5 64.2 60.5 64.2 60.4 64.3 60.4 64.4 60.4 64.5 60.3 64.6 60.3 64.8 60.3 64.8 60.3 65 60.3 65.1 60.2 65.2 60.2 65.3 60.2 65.4 60.2 65.5 60.2 65.5 60"/>
          <polygon class="cls-24" points="80.1 59 65.5 60 65.5 60.2 80.1 59.1 80.1 59"/>
          <polygon class="cls-24" points="80.4 58.1 80.4 58.2 80.5 58.2 80.5 58.3 80.6 58.4 80.6 58.5 80.6 58.5 80.6 58.6 80.6 58.7 80.6 58.7 80.6 58.8 80.5 58.8 80.5 58.9 80.4 58.9 80.3 58.9 80.2 59 80.1 59 80.1 59.1 80.2 59.1 80.4 59.1 80.5 59 80.6 59 80.6 58.9 80.7 58.9 80.7 58.8 80.8 58.7 80.8 58.6 80.8 58.5 80.7 58.4 80.7 58.3 80.7 58.3 80.6 58.2 80.6 58.1 80.5 58 80.4 58.1"/>
          <polygon class="cls-24" points="78.6 57.3 78.8 57.2 78.9 57.3 79 57.3 79.2 57.3 79.3 57.3 79.4 57.4 79.5 57.4 79.6 57.5 79.8 57.6 79.9 57.6 80 57.7 80.1 57.8 80.1 57.8 80.2 57.9 80.3 58 80.4 58.1 80.5 58 80.4 57.9 80.3 57.8 80.3 57.7 80.2 57.6 80.1 57.6 80 57.5 79.8 57.4 79.7 57.4 79.6 57.3 79.5 57.2 79.3 57.2 79.2 57.2 79.1 57.1 78.9 57.1 78.8 57.1 78.6 57.1 78.6 57.3"/>
          <polygon class="cls-24" points="65.7 57.7 78.6 57.3 78.6 57.1 65.7 57.5 65.7 57.7"/>
          <polygon class="cls-24" points="63.7 57.4 63.8 57.4 63.9 57.4 64.1 57.5 64.2 57.5 64.3 57.5 64.5 57.6 64.6 57.6 64.7 57.6 64.8 57.6 65 57.7 65.1 57.7 65.2 57.7 65.4 57.7 65.5 57.7 65.6 57.7 65.7 57.7 65.7 57.5 65.6 57.5 65.5 57.5 65.4 57.5 65.3 57.5 65.1 57.5 65 57.5 64.9 57.5 64.7 57.5 64.6 57.4 64.5 57.4 64.4 57.4 64.2 57.4 64.1 57.3 64 57.3 63.9 57.3 63.7 57.2 63.7 57.4 63.7 57.4"/>
          <polygon class="cls-24" points="59.3 56.2 59.6 56.2 59.8 56.1 60 56.1 60.2 56.1 60.3 56.1 60.5 56.1 60.6 56.1 60.8 56.1 60.9 56.2 61 56.2 61.2 56.2 61.3 56.2 61.4 56.3 61.5 56.3 61.6 56.4 61.7 56.4 61.8 56.5 61.9 56.5 62 56.6 62.1 56.6 62.2 56.7 62.3 56.8 62.4 56.8 62.5 56.9 62.7 56.9 62.8 57 62.9 57.1 63 57.1 63.2 57.2 63.3 57.2 63.5 57.3 63.7 57.4 63.7 57.2 63.6 57.2 63.4 57.1 63.3 57 63.1 57 63 56.9 62.8 56.9 62.7 56.8 62.6 56.7 62.5 56.7 62.4 56.6 62.3 56.6 62.2 56.5 62.1 56.4 62 56.4 61.9 56.3 61.8 56.3 61.7 56.2 61.5 56.2 61.4 56.1 61.3 56.1 61.2 56.1 61.1 56 60.9 56 60.8 56 60.6 56 60.5 56 60.3 56 60.1 56 60 56 59.8 56 59.5 56 59.3 56 59.3 56.2 59.3 56.2"/>
          <polygon class="cls-24" points="57 57.2 57.1 57.1 57.2 57.1 57.4 57 57.5 56.9 57.6 56.8 57.8 56.7 57.9 56.7 58.1 56.6 58.2 56.5 58.4 56.5 58.5 56.4 58.7 56.3 58.9 56.3 59 56.3 59.2 56.2 59.3 56.2 59.3 56 59.1 56.1 59 56.1 58.8 56.1 58.6 56.2 58.5 56.3 58.3 56.3 58.2 56.4 58 56.4 57.9 56.5 57.7 56.6 57.6 56.7 57.4 56.8 57.3 56.8 57.1 56.9 57 57 56.9 57.1 57 57.2 57 57.2"/>
          <polygon class="cls-24" points="56.9 57.6 57 57.6 57 57.6 57 57.5 57 57.4 56.9 57.3 56.9 57.3 56.9 57.3 56.9 57.2 57 57.2 56.9 57.1 56.8 57.2 56.8 57.2 56.8 57.3 56.8 57.4 56.8 57.5 56.8 57.5 56.8 57.6 56.9 57.6 56.9 57.7 56.9 57.6 56.9 57.7 56.9 57.7 56.9 57.6"/>
          <polygon class="cls-25" points="62.9 58.1 62.9 58.1 62.9 58.1 62.9 58.1"/>
          <polygon class="cls-25" points="62.9 58.2 62.9 58.1 62.9 58.2 62.9 58.2"/>
          <polygon class="cls-25" points="65 59.1 67.7 60 67.4 60 67.4 60 65.1 59.2 65 59.1"/>
          <path class="cls-25" d="M56.9,57.7h3.4c0-.1,0-.1,0-.1h0s0,0,0,0h0s0,0,0,0h0s0,0,0,0h0s1.3,4,1.3,4h0c0,0,0,0,0,0h0s0,0,0,0h0s0,0,0,0h0s0,0,0,0h0s0,0,0,0h0c0,0,0-.2,0-.2h0c0,0,0-.2,0-.2h0c0,0,0-.1,0-.1h0c0,0,0-.1,0-.1h0c0,0,0-.1,0-.1h0c0,0,0-.1,0-.1h0c0,0,0-.1,0-.1h0c0,0,0-.2,0-.2h0c0,0,0-.1,0-.1h0c0,0,0,0,0,0h0s0,0,0,0h.1s.1,0,.1,0h.1s.1,0,.1,0h.1s.1,0,.1,0h.1s.1,0,.1,0h.1s.1,0,.1,0h.1s1.9-.1,1.9-.1l-2.3-.8h0c0-.1,2.7.7,2.7.7l12.4-.9h.2s.2-.1.2-.1h.1c0-.1,0-.2,0-.2h0c0-.1,0-.2,0-.2v-.2s-.1-.2-.1-.2v-.2c-.1,0-.2,0-.2,0h0c0,0,0-.2,0-.2h0c0,0,0-.1,0-.1h-.1c0,0-.1-.1-.1-.1h-.1c0,0-.1-.1-.1-.1h-.1c0,0-.1,0-.1,0h-.1s-.1,0-.1,0h-.1s-.1,0-.1,0h-.1s-1.9,0-1.9,0l-11,.4h-.2s-.1,0-.1,0h-.1s-.1,0-.1,0h-.1s-.1,0-.1,0h-.1s-.1,0-.1,0h-.1s-.1,0-.1,0h-.1s-.1,0-.1,0h-.1s-.1,0-.1,0h-.1s-.2-.1-.2-.1h-.2c0,0-.1-.1-.1-.1h-.2c0,0-.1-.1-.1-.1h-.1c0,0-.1-.1-.1-.1h-.1c0,0-.1-.1-.1-.1h-.1c0,0-.1-.1-.1-.1h-.1c0,0-.1-.1-.1-.1h-.1c0,0,0-.1,0-.1h-.1c0,0-.1-.1-.1-.1h-.1s-.1,0-.1,0h-.1s-.1,0-.1,0h-.1s-.1,0-.1,0h-.1s-.1,0-.1,0h-.2s-.2,0-.2,0h-.2s-.2,0-.2,0h-.2s-.2,0-.2,0h-.2s-.2,0-.2,0h-.2s-.2,0-.2,0h-.2c0,0-.2.1-.2.1h-.2c0,0-.1.1-.1.1h-.2c0,0-.1.1-.1.1h-.1c0,0,2.4.9,2.4.9h-3.2c0,.1,0,.3,0,.3ZM78.5,57.8h0c0,0,0-.2,0-.2h0c0,0,0,0,0,0h.1s0,0,0,0h0s0,0,0,0h0s0,0,0,0h0s0,0,0,0h0s0,0,0,0h0s0,0,0,0h0c0,0,0,.1,0,.1h0c0,0,0,.1,0,.1h0c0,0,0,.2,0,.2h0c0,.1,0,.2,0,.2h0s0,.1,0,.1h0c0,0,0,.1,0,.1h0s-.1,0-.1,0h0s0,0,0,0h0s0,0,0,0h0s0,0,0,0h0s0,0,0,0h0s0,0,0,0h0s0,0,0,0h0s0-.1,0-.1h0c0,0,0-.1,0-.1h0c0-.1,0-.2,0-.2h0s0,0,0,0ZM65.1,59.5h0s0,0,0,0ZM63,58.2h0c0,0,1.1-.1,1.1-.1h.2c0,.1.6,1.4.6,1.4h0c0,.1-1.2.2-1.2.2h0s0,0,0,0h0l-.3-.2h0s0,0,0,0l-.5-1.4Z"/>
          <polygon class="cls-26" points="77.8 58.6 77.7 58.6 77.7 58.5 77.8 58.5 77.8 58.5 77.8 58.5 77.8 58.6"/>
          <polygon class="cls-26" points="77.9 58.5 77.9 58.6 77.9 58.6 77.9 58.6 77.8 58.6 77.8 58.6 77.8 58.5 77.8 58.5 77.8 58.5 77.8 58.5 77.8 58.5 77.8 58.5 77.9 58.5 77.9 58.5"/>
          <polygon class="cls-26" points="77.6 57.9 77.7 57.9 77.7 58 77.8 58 77.8 58.1 77.9 58.2 77.9 58.3 77.9 58.4 77.9 58.5 77.9 58.5 77.8 58.5 77.8 58.4 77.8 58.4 77.8 58.3 77.8 58.2 77.7 58.2 77.7 58.1 77.6 58.1 77.6 58 77.6 58 77.6 57.9"/>
          <polygon class="cls-26" points="76.8 57.7 76.7 57.7 76.9 57.7 77 57.7 77.1 57.7 77.2 57.7 77.3 57.7 77.4 57.8 77.5 57.8 77.6 57.9 77.6 58 77.5 57.9 77.4 57.9 77.3 57.8 77.2 57.8 77.1 57.8 77 57.8 76.9 57.8 76.8 57.8 76.8 57.8 76.7 57.7 76.8 57.7"/>
          <polygon class="cls-26" points="67.3 58.2 67.3 58.1 76.7 57.7 76.8 57.8 67.3 58.2 67.4 58.2 67.3 58.2"/>
          <polygon class="cls-26" points="67.1 58.5 67 58.5 67 58.4 67 58.3 67 58.3 67 58.2 67.1 58.2 67.2 58.2 67.2 58.1 67.3 58.1 67.3 58.2 67.3 58.3 67.2 58.3 67.2 58.3 67.1 58.3 67.1 58.3 67.1 58.4 67.1 58.4 67.1 58.5 67 58.4 67.1 58.5"/>
          <polygon class="cls-21" points="77.7 58.5 77.7 58.4 77.7 58.4 77.6 58.3 77.6 58.3 77.6 58.2 77.5 58.2 77.5 58.2 77.4 58.1 77.3 58 77.2 58 77.1 58 77 58 76.9 57.9 76.8 57.9 76.6 57.9 67.2 58.4 67.3 58.2 67.3 58.2 67.3 58.2 76.8 57.8 76.9 57.8 77 57.8 77.2 57.8 77.3 57.8 77.4 57.9 77.5 57.9 77.6 58 77.7 58.1 77.8 58.2 77.8 58.3 77.9 58.4 77.9 58.4 77.8 58.5 77.8 58.5 77.8 58.5 77.8 58.5 77.7 58.5"/>
          <path class="cls-21" d="M67,58.5h0c0,0,0,.2,0,.2h0c0,0,0,.2,0,.2h0c0,0,.1.2.1.2h.1c0,0,.1.1.1.1h.1s.2,0,.2,0l9.7-.5h.2s.1,0,.1,0h0c0,0,0-.2,0-.2h0c0,0,0-.2,0-.2h0c0-.1,0-.2,0-.2h0c0-.1-.1-.2-.1-.2h-.1c0,0-.1-.1-.1-.1h-.1s-.1,0-.1,0h-.3s-9.4.5-9.4.5h0s-.1,0-.1,0h-.1s0,0,0,0h0c0,0,0,.1,0,.1h0ZM67.1,58.5h0c0,0,0,0,0,0h0s0,0,0,0h0s0-.2,0-.2h0s0,0,0,0l9.4-.5h.2s.1,0,.1,0h.1s.1,0,.1,0h.1s0,.1,0,.1h0c0,0,0,.2,0,.2h0c0,.1,0,.2,0,.2h0c0,.1,0,.2,0,.2h0s0,0,0,0h-.1s-.2,0-.2,0l-9.7.5h0s-.1,0-.1,0h-.1s-.1,0-.1,0h-.1c0,0,0-.1,0-.1h0c0,0,0-.2,0-.2h0c0,0,0-.1,0-.1h0Z"/>
        </g>
      </g>
      <g>
        <path class="cls-19" d="M56.9,181.7c0,.4-.2.8-.5,1.1h0c0,0-3,3.3-3,3.3-.6.7-1.2,1.2-1.6,1.6-.5.4-.8.5-1,.5s-.4,0-.7-.3c-.3-.2-.5-.4-.6-.6,0-.2-.1-.5-.2-1,0-.5,0-1.1,0-1.7s.1-.7.4-.9c.3-.3.6-.4.9-.4s.5.3.6.9c0,0,0,.1,0,.2,0,.5.1.8.2,1,0,.2.2.3.3.3s.1,0,.3-.2c.1-.1.3-.3.5-.4l3.1-3.1c.3-.3.5-.5.7-.6.2-.1.4-.2.5-.2s.2,0,.2.1c0,0,0,.2,0,.4v.2Z"/>
        
        
        <line class="cls-14" x1="51.8" y1="190.2" x2="252.1" y2="190.2"/>
      </g>
      
      <g>
        
        <line class="cls-16" x1="54.7" y1="238.2" x2="224.7" y2="238.2"/>
        
      </g>
    </g>
  </g>
</g></svg>