<svg xmlns="http://www.w3.org/2000/svg" viewBox="0 0 3600 3000" width="3600" height="3000">
  <defs>
    <style>
      .cls-1, .cls-2, .cls-3, .cls-4, .cls-5, .cls-6, .cls-7, .cls-8, .cls-9, .cls-10, .cls-11, .cls-12, .cls-13, .cls-14, .cls-15, .cls-16, .cls-17, .cls-18 {
        fill: none;
      }

      .cls-19 {
        letter-spacing: -.018em;
      }

      .cls-20 {
        font-size: 10.147px;
      }

      .cls-20, .cls-21, .cls-22 {
        font-family: Arial-Black, Arial Black;
      }

      .cls-20, .cls-21, .cls-22, .cls-23, .cls-24, .cls-25, .cls-26, .cls-27 {
        isolation: isolate;
      }

      .cls-20, .cls-21, .cls-22, .cls-27 {
        fill: #231f20;
      }

      .cls-21 {
        font-size: 12.177px;
      }

      .cls-28 {
        letter-spacing: -.043em;
      }

      .cls-2 {
        stroke-dasharray: 0 0 4.938 4.938;
      }

      .cls-2, .cls-3, .cls-4, .cls-5, .cls-6, .cls-7, .cls-8, .cls-9, .cls-10, .cls-11, .cls-12, .cls-13, .cls-14, .cls-17, .cls-18 {
        stroke-miterlimit: 10;
      }

      .cls-2, .cls-4, .cls-5, .cls-6, .cls-7, .cls-8, .cls-9, .cls-10, .cls-13, .cls-14 {
        stroke: #2ba8e0;
      }

      .cls-29 {
        letter-spacing: -.034em;
      }

      .cls-30 {
        letter-spacing: -.034em;
      }

      .cls-3 {
        stroke-width: .846px;
      }

      .cls-3, .cls-11, .cls-17, .cls-18 {
        stroke: #00a54e;
      }

      .cls-31 {
        fill: #020202;
      }

      .cls-32, .cls-25 {
        fill: #e9292f;
      }

      .cls-33 {
        fill: #fff;
      }

      .cls-34 {
        fill: #b7d335;
      }

      .cls-35 {
        fill: #d1d2d2;
      }

      .cls-36 {
        fill: #4f4b4c;
      }

      .cls-37 {
        letter-spacing: 0em;
      }

      .cls-22 {
        font-size: 9.001px;
      }

      .cls-23 {
        fill: #919395;
      }

      .cls-23, .cls-24, .cls-25 {
        font-size: 7.501px;
      }

      .cls-23, .cls-24, .cls-25, .cls-27 {
        font-family: Arial-BoldMT, Arial;
      }

      .cls-24 {
        fill: #30a2db;
      }

      .cls-4 {
        stroke-dasharray: 0 0 4.954 4.954;
      }

      .cls-38 {
        letter-spacing: -.025em;
      }

      .cls-39 {
        letter-spacing: -.018em;
      }

      .cls-5 {
        stroke-dasharray: 0 0 4.954 4.954;
      }

      .cls-6 {
        stroke-dasharray: 0 0 4.963 4.963;
      }

      .cls-7 {
        stroke-dasharray: 0 0 4.963 4.963;
      }

      .cls-40 {
        letter-spacing: -.037em;
      }

      .cls-8 {
        stroke-dasharray: 0 0 5.161 5.161;
      }

      .cls-41 {
        letter-spacing: -.037em;
      }

      .cls-42 {
        letter-spacing: .027em;
      }

      .cls-43 {
        letter-spacing: 0em;
      }

      .cls-44 {
        letter-spacing: -.055em;
      }

      .cls-45 {
        letter-spacing: .016em;
      }

      .cls-46 {
        letter-spacing: -.026em;
      }

      .cls-47 {
        letter-spacing: 0em;
      }

      .cls-9 {
        stroke-dasharray: 0 0 4.944 4.944;
      }

      .cls-48 {
        letter-spacing: 0em;
      }

      .cls-10 {
        stroke-dasharray: 0 0 5.058 5.058;
      }

      .cls-12 {
        stroke: red;
      }

      .cls-14 {
        stroke-dasharray: 0 0 4.943 4.943;
      }

      .cls-49 {
        opacity: .5;
      }

      .cls-50 {
        letter-spacing: 0em;
      }

      .cls-15 {
        stroke: #919395;
      }

      .cls-16 {
        stroke: #e9292f;
      }

      .cls-51 {
        letter-spacing: -.017em;
      }

      .cls-52 {
        letter-spacing: -.017em;
      }

      .cls-27 {
        font-size: 7.528px;
      }

      .cls-17 {
        stroke-width: .999px;
      }

      .cls-18 {
        stroke-width: .999px;
      }

      .cls-53 {
        letter-spacing: -.026em;
      }
    </style>
  </defs>
  <g id="Bleed_Zone" data-name="Bleed Zone">
    <path class="cls-49" d="M0,0V720H864V0H0ZM851,496.271h-46.799v4.252l-154.745,2.159,64.296,62.103v84.724h-52.843l-4.252,4.252h-7.2l-4.252,49.179H218.797l-4.252-49.179h-7.2l-4.252-4.252h-52.844v-84.724l64.297-62.103-154.745-2.159v-4.252H13.002V224.087H59.801v-4.252l154.745-2.159-64.296-62.103V70.849h52.843l4.252-4.252h7.2l4.252-49.179h426.408l4.252,49.179h7.2l4.252,4.252h52.844v84.724l-64.297,62.103,154.745,2.159v4.252h46.799V496.271Z"></path>
  </g>
  <g id="Safe_Zone" data-name="Safe Zone">
    <g>
      <polyline class="cls-13" points="226.045 493.503 223.545 493.503 223.545 491.003"></polyline>
      <line class="cls-9" x1="223.545" y1="486.059" x2="223.545" y2="231.468"></line>
      <polyline class="cls-13" points="223.545 228.997 223.545 226.497 226.045 226.497"></polyline>
      <line class="cls-6" x1="231.008" y1="226.497" x2="635.474" y2="226.497"></line>
      <polyline class="cls-13" points="637.955 226.497 640.455 226.497 640.455 228.997"></polyline>
      <line class="cls-9" x1="640.455" y1="233.94" x2="640.455" y2="488.531"></line>
      <polyline class="cls-13" points="640.455 491.003 640.455 493.503 637.955 493.503"></polyline>
      <line class="cls-6" x1="632.992" y1="493.503" x2="228.526" y2="493.503"></line>
    </g>
    <g>
      <polyline class="cls-13" points="226.046 208.497 223.546 208.497 223.546 205.997"></polyline>
      <line class="cls-14" x1="223.546" y1="201.054" x2="223.546" y2="84.9"></line>
      <polyline class="cls-13" points="223.546 82.428 223.546 79.928 226.046 79.928"></polyline>
      <line class="cls-7" x1="231.008" y1="79.928" x2="635.473" y2="79.928"></line>
      <polyline class="cls-13" points="637.954 79.928 640.454 79.928 640.454 82.428"></polyline>
      <line class="cls-14" x1="640.454" y1="87.371" x2="640.454" y2="203.525"></line>
      <polyline class="cls-13" points="640.454 205.997 640.454 208.497 637.954 208.497"></polyline>
      <line class="cls-7" x1="632.992" y1="208.497" x2="228.527" y2="208.497"></line>
    </g>
    <g>
      <polyline class="cls-13" points="226.046 640.073 223.546 640.073 223.546 637.573"></polyline>
      <line class="cls-14" x1="223.546" y1="632.63" x2="223.546" y2="516.476"></line>
      <polyline class="cls-13" points="223.546 514.004 223.546 511.504 226.046 511.504"></polyline>
      <line class="cls-7" x1="231.008" y1="511.504" x2="635.473" y2="511.504"></line>
      <polyline class="cls-13" points="637.954 511.504 640.454 511.504 640.454 514.004"></polyline>
      <line class="cls-14" x1="640.454" y1="518.947" x2="640.454" y2="635.101"></line>
      <polyline class="cls-13" points="640.454 637.573 640.454 640.073 637.954 640.073"></polyline>
      <line class="cls-7" x1="632.992" y1="640.073" x2="228.527" y2="640.073"></line>
    </g>
    <g>
      <polyline class="cls-13" points="79.219 491.392 76.719 491.354 76.719 488.854"></polyline>
      <line class="cls-10" x1="76.719" y1="483.796" x2="76.719" y2="233.431"></line>
      <polyline class="cls-13" points="76.719 230.902 76.719 228.402 79.219 228.367"></polyline>
      <line class="cls-5" x1="84.172" y1="228.299" x2="200.569" y2="226.69"></line>
      <polyline class="cls-13" points="203.045 226.656 205.545 226.622 205.545 229.122"></polyline>
      <line class="cls-2" x1="205.545" y1="234.06" x2="205.545" y2="488.392"></line>
      <polyline class="cls-13" points="205.545 490.861 205.545 493.361 203.045 493.322"></polyline>
      <line class="cls-4" x1="198.092" y1="493.245" x2="81.695" y2="491.431"></line>
    </g>
    <g>
      <polyline class="cls-13" points="784.948 228.59 787.447 228.629 787.447 231.129"></polyline>
      <line class="cls-10" x1="787.447" y1="236.187" x2="787.447" y2="486.552"></line>
      <polyline class="cls-13" points="787.447 489.081 787.447 491.581 784.948 491.616"></polyline>
      <line class="cls-5" x1="779.995" y1="491.684" x2="663.598" y2="493.293"></line>
      <polyline class="cls-13" points="661.122 493.327 658.622 493.361 658.622 490.861"></polyline>
      <line class="cls-2" x1="658.622" y1="485.923" x2="658.622" y2="231.591"></line>
      <polyline class="cls-13" points="658.622 229.122 658.622 226.622 661.121 226.661"></polyline>
      <line class="cls-4" x1="666.075" y1="226.738" x2="782.471" y2="228.552"></line>
    </g>
  </g>
  <g id="Fold_Line" data-name="Fold Line">
    <rect class="cls-3" x="214.545" y="217.497" width="434.91" height="285.007"></rect>
    <rect class="cls-17" x="214.546" y="502.503" width="434.909" height="146.57"></rect>
    <rect class="cls-18" x="214.546" y="70.928" width="434.909" height="146.569"></rect>
    <g>
      <line class="cls-11" x1="796.281" y1="219.787" x2="796.281" y2="500.475"></line>
      <line class="cls-11" x1="67.719" y1="219.525" x2="67.719" y2="500.213"></line>
    </g>
  </g>
  <g id="Info">
    <g id="Info-2" data-name="Info">
      <line class="cls-15" x1="555.739" y1="112.167" x2="719.666" y2="112.167"></line>
      <g>
        <rect class="cls-35" x="18" y="596.43" width="108.433" height="105.57"></rect>
        <g class="cls-26" transform="matrix(0.9979 0 0 1 12.3643 98.5596)">
          
          
        </g>
        <g>
          <ellipse class="cls-31" cx="72.783" cy="639.166" rx="38.907" ry="38.988"></ellipse>
          <ellipse class="cls-34" cx="72.81" cy="639.383" rx="35.37" ry="35.443"></ellipse>
          <g>
            <path class="cls-31" d="M65.238,631.653c-.491,4.344-.856,7.833-1.097,10.467l-1.616,.071c.024-.088,.037-.187,.039-.295,.003-.198-.069-.458-.218-.779s-.232-.528-.253-.614c-.417,.057-.818,.35-1.199,.867-.382,.522-.728,.782-1.032,.777-.176-.004-.373-.053-.591-.143-.288,.192-.663,.272-1.122,.244-.415-.073-.82-.135-1.215-.187-.012-.548-.553-1.029-1.621-1.445,.006-.22-.104-.546-.328-.976-.223-.435-.334-.738-.332-.914,.004-.2,.086-.361,.241-.492-.022-.065-.202-.474-.54-1.229-.23-.553-.343-1.029-.336-1.422,.005-.308,.076-.593,.212-.854-.188-1.872-.271-3.477-.247-4.817,.033-2.066,.328-3.963,.885-5.69-.039-.264-.057-.528-.053-.792,.025-1.385,.502-2.343,1.43-2.876l.009-.43c.919-1.172,2.129-2.02,3.629-2.542,.896,.212,1.792,.416,2.688,.605,1.004,.347,1.696,.939,2.075,1.783,.303,.182,.453,.547,.442,1.095-.009,.615,.059,1.012,.21,1.191l-.166,.194c.175,1.3,.26,2.094,.256,2.379-.016,.833-.234,1.425-.655,1.768-.154-.002-.558-.14-1.211-.416-.155,.15-.322,.227-.497,.223-.09,0-.248-.047-.475-.141-.23-.091-.422-.138-.575-.14-.11-.003-.219,.018-.329,.058-.014-1.734,.04-3.033,.163-3.887-.173-.113-.35-.37-.528-.768-.181-.397-.413-.623-.696-.669-.179,.215-.258,.357-.237,.423l-.588-.208c-.537,.584-.895,1.6-1.072,3.048-.183,1.666-.409,2.774-.681,3.317,.235,.248,.353,.591,.344,1.028-.002,.155-.028,.409-.078,.758-.051,.352-.077,.613-.078,.79-.006,.199,.013,.375,.057,.531l-.402,.387c.164,.75,.257,1.697,.281,2.841-.018,.967-.023,1.934-.018,2.901-.022,0-.208,.009-.56,.022-.219-.003-.375,.072-.465,.225,.134-.021,.254-.031,.363-.028,.481,.007,.861,.349,1.135,1.025,.272,.676,.508,1.015,.706,1.02,.219,.003,.52-.202,.899-.614,.645-.692,.981-1.641,1.004-2.85,.009-.595-.058-1.233-.199-1.916-.156,.085-.236,.303-.243,.654-.35-.006-.571,.068-.662,.22-.151-.046-.215-.167-.192-.366,.028-.285,.041-.438,.044-.461,.264-.083,.397-.202,.399-.356,.002-.064-.047-.188-.142-.365s-.142-.319-.14-.431c.001-.088,.023-.175,.068-.263l.156-1.283c.479,.14,1.518,.202,3.121,.185-.047,.11,.018,.255,.191,.431,.154-.15,.319-.225,.496-.221,.131,.003,.328,.061,.59,.174,.26,.119,.445,.178,.556,.178Z"></path>
            <path class="cls-31" d="M77.517,643.007c-.306-.137-.634-.208-.985-.215-.307-.005-.727,.053-1.255,.178-.591,.12-1,.19-1.219,.21-.233-.466-.397-1.108-.493-1.923-.178-1.188-.288-1.861-.328-2.014,.065-.134,.102-.241,.104-.329,.006-.244-.186-.459-.564-.652-.383-.194-.569-.346-.567-.456,0-.132,.224-.326,.667-.583-.107-.135-.188-.404-.232-.81-.049-.408-.148-.681-.299-.816-.27,.238-.702,.391-1.308,.458-.605,.067-1.008,.163-1.206,.29,.015,1.716-.268,2.866-.85,3.449-.305-.071-.537,.045-.695,.351-.228,.37-.416,.588-.57,.65l.191,.234c-.178,.148-.463,.21-.855,.182-.613-.034-.944-.048-.988-.049l-.186-.596,2.143-17.802c.02-1.121,.075-1.879,.172-2.272-.029-.989,.2-1.6,.686-1.833,.305,.202,.688,.308,1.147,.314,.373,.007,.957-.07,1.749-.234,.791-.162,1.342-.24,1.65-.235,1.072,.018,1.54,.796,1.405,2.333-.107,1.229,.083,2.848,.576,4.856,.513,2.164,.759,3.782,.74,4.859-.003,.332,.103,1.014,.077,1.343-.467,.254-1.061,.409-1.784,.461-.639,.037-1.285,.067-1.944,.102-.169-1.672-.463-3.689-.634-5.342-.206-1.98-.464-3.613-.772-4.892l-1.014,9.413c-.08,.811,.287,1.224,1.098,1.239,.263,.004,.515-.059,.76-.185,.198-.062,.471,.085,.815,.443-.012,.681,.123,1.089,.407,1.227,.354-.237,.819-.458,1.392-.67,.509-.189,1.006-.367,1.49-.535,.277,.379,.456,.942,.533,1.692,.091,1.056,.156,1.671,.198,1.848,.035,.419,.205,1.323,.512,2.713,.224,1.104,.329,1.997,.318,2.677-.007,.328-.036,.636-.082,.921Z"></path>
            <path class="cls-31" d="M92.666,627.306c-.025,.065-.029,.449-.021,1.152-.009,.573-.084,1.002-.219,1.284-.162,.438-.249,1.061-.263,1.875-.004,.176,.002,.452,.019,.826-.007,.373-.009,.647-.014,.823-.024,1.385-.259,2.39-.71,3.021,.037,.354,.054,.704,.049,1.056-.018,1.099-.396,2.577-1.129,4.432-.197,.062-.362,.093-.495,.09-.263-.005-.451-.157-.567-.454-.117-.299-.227-.582-.33-.848,.071-1.691,.035-4.152-.107-7.387l.202-.194c-.146-.575-.21-1.213-.198-1.915,.009-.506,.071-1.241,.187-2.207,.115-.964,.176-1.689,.183-2.173,.008-.308-.001-.606-.016-.891-.754,1.812-1.291,4.88-1.604,9.206l-.275,.652c-.09,.22-.278,.338-.563,.354-.084-.152-.173-.233-.262-.235-.064-.001-.182,.08-.348,.244-.168,.159-.305,.229-.416,.204l-.436,.389c.195,.246,.611,.274,1.25,.088,.506-.145,.767,.046,.78,.574,.014,.44-.104,1.031-.358,1.775-.254,.742-.384,1.301-.39,1.674-.005,.264,.024,.528,.085,.792l-2.276,.358c-.214-.444-.37-1.188-.472-2.233-.104-1.049-.261-1.792-.473-2.235,.134-.149,.201-.315,.205-.49,.002-.154-.059-.387-.187-.696-.126-.309-.2-.542-.219-.695-.017-.243-.096-.829-.232-1.753-.098-.748-.143-1.333-.136-1.75,.005-.22,.02-.417,.046-.593,0-.152-.086-.379-.254-.681-.169-.301-.255-.515-.25-.647,.001-.11,.045-.207,.136-.293-.152-.18-.212-.489-.182-.929,.028-.438-.035-.747-.182-.924-.324,.85-.496,2.001-.521,3.453-.012,2.021-.032,3.188-.06,3.492l.227,.202-.231,.194c.159,.795,.231,1.807,.21,3.037-.06,2.22-.088,3.251-.085,3.099-.312,.28-.743,.416-1.289,.406-.681-.013-1.144,.049-1.385,.173-.28-.486-.411-1.115-.396-1.884,.009-.593,.11-1.315,.3-2.172-.299-.554-.439-1.326-.421-2.314,.005-.242,.032-.704,.087-1.383,.033-.548,.039-.956,.022-1.22,.222-.105,.333-.224,.335-.355,.002-.088-.066-.238-.207-.451-.139-.21-.207-.37-.207-.48,.003-.133,.094-.262,.272-.392l-.71-10.664c.421-.277,1.105-.408,2.049-.392,1.029,.04,1.733-.015,2.109-.162,.065-.044,.142-.063,.23-.062,.087,0,.189,.052,.311,.153,.119,.101,.199,.151,.242,.153,.088,.002,.166-.062,.235-.194l.613,.606c.206,.771,.399,2.271,.583,4.491,.187,1.916,.478,3.363,.883,4.336,.535-1.947,.979-3.578,1.332-4.89l.712-5.219,5.102-.109c.017,.285,.08,1.812,.219,2.695,.118,.77,.173,1.398,.163,1.881-.007,.55-.092,1.042-.254,1.479,.174,.246,.254,.554,.247,.926-.004,.377-.096,.68-.275,.921Z"></path>
            <path class="cls-31" d="M103.129,638.86v-.034c-.135,.284-.218,.614-.246,.985-.025,.241-.033,.582-.019,1.021,.015,.506,.02,.859,.017,1.056-.176-.003-.878-.016-2.104-.036-.745-.013-1.416,.053-2.013,.197l-.611-.67c-.18,.172-.248,.315-.207,.427-.106-.026-.613-.034-1.511-.029-.703-.01-1.228-.085-1.576-.224-.357,.369-.776,.361-1.251-.021-.175-.133-.191-.361-.053-.677,.136-.317,.096-.552-.122-.712,.033-.701,.132-1.787,.286-3.259,.154-1.315,.237-2.348,.249-3.094,.019-1.011-.053-1.979-.21-2.905,.243-.238,.518-.354,.826-.349,.351,.005,.764,.178,1.24,.515,.672,.474,1.02,.71,1.042,.71l.193,.235c.022-.064,.14-.416,.347-1.051,.117-.415,.286-.686,.508-.814l.195,.201c.086-.042,.376-.246,.865-.611,.375-.259,.684-.867,.901-.863,.244,.003,.471,.14,.687,.407,.367,.205,.601,.995,.715,1.401,.111,.409,.223,.812,.325,1.21-.987,.027-1.799,.001-2.434-.073-.158,.237-.377,.272-.658,.103-.284-.17-.492-.145-.627,.071-.009,.397-.021,1.11-.036,2.143-.039,.922-.052,1.648-.038,2.177,.009,.813,.062,1.561,.16,2.245,.174,.002,1.007,.016,2.498,.042,1.033,.017,1.918,.107,2.662,.276Zm.069-15.793c-.195,.019-.414,.026-.655,.022-.505-.009-1.172-.085-2.003-.233-1.029-.148-1.655-.235-1.871-.261-.316,.455-.48,1.102-.495,1.937-.029,1.802-.031,2.583-.005,2.342,.302,.18,.451,.512,.441,.995-.031,.66-.037,1.002-.018,1.023-.154,.062-.232,.282-.24,.655-.241-.092-.488-.272-.746-.539-.346-.338-.529,.8-.504,.517l-.208,.677-.194-.202c-.178,.019-.478-.073-.9-.278-.426-.205-.723-.395-.896-.576,.007-.352,.064-.549,.175-.59l-.418-.468-.204,.289c-.245-2.288-.183-6.571,.12-8.985,.83,.146,1.75,.24,2.761,.278,.678,.033,1.63,.048,2.86,.048,1.402,.002,2.412,.007,3.025,.018,.26,.249,.387,.568,.378,.963-.002,.244-.071,.632-.2,1.168-.128,.537-.195,.935-.203,1.2Z"></path>
          </g>
          <g>
            <path class="cls-31" d="M66.228,658.793v-.016c0,.01-.059,.495-.171,1.452-.057,.589-.199,1.053-.427,1.389l-.142-.116c-.267,.56-.628,.898-1.088,1.021-.222,.233-.537,.36-.951,.383-.246,.016-.814-.057-1.705-.213-.432-.268-.666-.416-.708-.445-.269-.203-.4-.41-.386-.62-.261-.269-.629-.745-.766-1.343-.168-.66-.272-.698-.428-.929-.248,.183-.336-.206-.48-.439l.13-.102c-.079-.057-.124-.122-.128-.196-.002-.052,.019-.129,.065-.232,.045-.101,.068-.179,.063-.23-.005-.083-.055-.154-.147-.212,.101-.518,.191-1.296,.271-2.335,.178-.096,.261-.277,.253-.55-.011-.271,.027-.451,.113-.54,.418-.838,1.098-1.407,2.041-1.702,.053,.007,.305,.004,.757-.013,.312-.008,.547,.02,.707,.084,.282-.048,.565,.02,.847,.202,.244,.185,.489,.368,.733,.552,.456,.498,.704,1.058,.739,1.684,.014,.207-.002,.429-.039,.661-.338-.012-.58,.212-.72,.67l-1.315,.122c-.141-.199-.223-.466-.242-.801-.006-.115-.006-.282,0-.501,.006-.22,.008-.387,0-.502-.02-.345-.101-.616-.24-.817l-.396,.225c-.159-.063-.242-.158-.249-.282-.003-.043,.002-.103,.02-.183,.015-.08,.021-.134,.018-.165-.007-.135-.128-.218-.364-.247-.161,1.484-.208,3.011-.143,4.573,.043,.05,.168,.085,.375,.105,.17,.021,.256,.075,.263,.158,.001,.031-.008,.071-.032,.125l-.129,.103c.07,.111,.111,.265,.124,.463,.005,.104,0,.264-.013,.479-.015,.215-.017,.375-.012,.479,.02,.313,.096,.55,.237,.709-.015,.23,.081,.386,.278,.469,.129-.049,.242-.075,.346-.083,.399-.022,.681,.196,.837,.66,0,.009-.002,.087-.006,.234,.004,.083,.045,.139,.126,.165,.175-.104,.262-.292,.26-.565-.005-.313,.034-.515,.119-.603-.021-.145-.107-.354-.26-.626-.152-.274-.232-.49-.242-.646-.01-.167,.04-.327,.148-.48-.093-.024-.137-.085-.128-.18,.005-.146,.005-.224,.005-.236,.719-.177,1.445-.182,2.182-.017Z"></path>
            <path class="cls-31" d="M72.18,660.018h-.016c-.075,.15-.101,.368-.072,.646,.036,.397,.054,.599,.054,.609-.06,.023-.142-.007-.239-.088-.154,.058-.228,.155-.219,.29,0,.02,.009,.053,.022,.101,.004,.057,.007,.097,.008,.117,.006,.106-.026,.187-.095,.238-.175-.096-.405-.158-.689-.184-.285-.028-.556-.054-.81-.078-.005-1.323-.183-2.617-.532-3.881,0,.01-.007-.12-.024-.392,.002-.196-.043-.333-.131-.416l-.12,.108c-.003-.02,.038-.058,.12-.117,.079-.057,.119-.116,.116-.173-.004-.029-.009-.057-.024-.085l-.133-.096c-.223,.073-.328,.254-.311,.544,.012,.194-.066,.33-.228,.407,.062,.043,.095,.102,.099,.169,.003,.039-.003,.094-.02,.162-.014,.069-.02,.124-.018,.163,.005,.086,.054,.156,.139,.21,.005,.058,.034,.58,.09,1.57,.039,.63,.021,1.167-.047,1.606l.012,.249c-.086-.005-.182-.004-.289,.002-.12,.008-.295,.025-.523,.052-.227,.029-.395,.047-.502,.052-.443,.024-.757-.049-.937-.223l-.187-5.431c-.088-.267-.147-.637-.174-1.113l-.06-1.047c-.043-.514-.109-.909-.196-1.184,.037-.189,.199-.291,.488-.306,.179-.011,.423,.013,.728,.074,.142-.067,.339-.108,.592-.124,.071-.002,.186-.005,.342-.005,.169-.009,.289-.016,.361-.021,.469-.028,.78-.171,.933-.434,.22-.001,.455,.066,.71,.207s.479,.216,.671,.223c.514,.302,.789,.801,.83,1.499,.01,.157-.052,.771-.181,1.85l-.88,.765c.15,.276,.33,.871,.539,1.792,.178,.77,.444,1.333,.803,1.693Zm-1.623-6.18l.018,.013c.018,.066,.009-.17-.022-.714-.017-.261-.111-.448-.286-.567-.102,.143,.011,.209-.035,.538-.047,.328-.239,.236-.354,.378-.303-.001-.37,.181-.435-.106-.136-.47-.252-.427-.252-.438l-.13,.077c-.045,.042-.098,.088-.154,.14-.059,.052-.115,.07-.178,.055,.005,.058-.024,.15-.084,.274-.06,.126-.088,.212-.084,.26,.006,.088,.074,.151,.208,.193-.022,.196-.029,.4-.019,.614,.009,.116,.036,.382,.086,.797,.054,.329,.076,.609,.064,.841,.109,.005,.211,.005,.309-.002,.422-.024,.693-.192,.819-.5,.044-.089,.093-.415,.145-.972,.049-.42,.175-.714,.384-.881Z"></path>
            <path class="cls-31" d="M79.011,662.125c-.173-.049-.354-.067-.548-.055-.167,.008-.394,.051-.678,.127-.324,.075-.543,.121-.663,.14-.145-.197-.257-.471-.338-.826-.139-.518-.223-.809-.251-.878,.036-.06,.049-.108,.048-.147-.009-.106-.119-.195-.333-.264-.217-.07-.324-.13-.327-.18-.003-.058,.11-.151,.347-.281-.065-.056-.115-.171-.155-.35-.042-.179-.104-.293-.193-.347-.137,.117-.369,.202-.701,.254-.328,.052-.544,.11-.649,.176,.068,.754,0,2.081-.298,2.359-.169-.02-.292,.042-.369,.183-.109,.171-.207,.274-.289,.308l.112,.096c-.092,.073-.246,.111-.461,.114-.339,.01-.518,.015-.542,.018l-.124-.256,.506-8.734c-.027-.495-.023-.829,.016-1.006-.05-.435,.055-.713,.312-.835,.174,.078,.386,.109,.639,.093,.203-.013,.522-.07,.948-.172,.429-.103,.728-.16,.896-.17,.59-.033,.874,.29,.854,.974-.018,.545,.144,1.25,.484,2.116,.354,.931,.547,1.636,.574,2.112,.008,.144,.2,.453,.199,.598-.249,.132-.568,.224-.964,.277-.347,.039-.698,.08-1.061,.119-.148-.73-.491-1.618-.643-2.339-.181-.864-.38-1.572-.593-2.124l-.228,4.186c-.016,.36,.2,.528,.645,.5,.145-.007,.279-.044,.411-.109,.105-.036,.26,.018,.46,.163,.019,.3,.106,.477,.266,.523,.188-.117,.433-.233,.74-.349,.271-.104,.538-.201,.798-.293,.167,.155,.281,.395,.35,.724,.086,.459,.145,.729,.173,.806,.034,.181,.159,.574,.375,1.174,.161,.478,.25,.865,.269,1.166,.007,.145,.002,.281-.014,.409Z"></path>
            <path class="cls-31" d="M83.991,652.22h.02c-.146,.212-.33,.251-.554,.119-.05-.007-.267,.007-.65,.036-.325,.021-.561,.005-.708-.045-.037,.001-.108,.038-.212,.107-.106,.07-.18,.105-.23,.108-.069,.004-.112-.056-.117-.183,0-.021-.005-.101-.017-.246-.004-.099-.05-.164-.137-.197l-.223,.173c-.072,.052-.104,.107-.101,.166,.001,.049,.044,.116,.122,.204,.076,.088,.119,.153,.135,.189,.004,.028,.029,.466,.076,1.31,.02,.533,.116,.96,.292,1.28,.046-.05,.154-.079,.329-.084,.174-.005,.29-.045,.346-.115,.115,.103,.307,.108,.574,.017,.264-.087,.458-.057,.574,.091l-.033,1.286c-.11-.012-.271-.064-.481-.162-.06,.19-.181,.307-.358,.357-.073,.024-.277,.045-.611,.064,.008-.061-.043-.119-.157-.18-.325,.155-.45,.526-.369,1.114,.008-.058,.021,.042,.036,.305,.008,.165-.025,.284-.105,.356-.205,.031-.463-.016-.776-.138-.314-.124-.54-.181-.673-.173-.059,.003-.113,.013-.162,.024l-.336,.108-.541-5.878-.063-1.117c.449-.154,1.005-.25,1.666-.288,.518-.029,1.194-.026,2.028,.013,.054-.11,.151,.034,.273,.026,.06-.003,.149,.002,.271,.021,.121,.016,.215,.023,.272,.021,.074-.005,.141-.019,.198-.042l.085-.09c.245,.071,.375,.202,.384,.385,.005,.079-.018,.21-.068,.399-.05,.186-.07,.329-.064,.426,.002,.091,.026,.169,.065,.233Zm-2.111,9.805c-.128,.067-.325,.106-.591,.123-.348,.02-.557,.037-.628,.052-.039-.039-.085-.007-.163-.314-.05-.201-.176-.296-.38-.284-.048,.003-.106,.01-.179,.026l-.323,.017-.175-2.973c.177-.088,.396-.14,.661-.155,.253-.016,.477,.01,.675,.078-.006,.106,.147,.153,.459,.134l.344-.021c.205,.833,.329,2.344,.3,3.317Z"></path>
            <path class="cls-31" d="M91.203,652.474l.02,.013c-.172-.011-.715,.027-1.134,.082-.359,.04-.631,.048-.812,.017-.175,.116-.237,.277-.189,.479l.109,.067c-.09,.083-.123,.147-.095,.194l.095,.096c-.02,1.724-.023,2.677-.015,2.862,.025,.454,.081,.855,.16,1.201-.072,.219-.101,.47-.083,.75,.011,.184,.056,.476,.134,.875,.077,.399,.179,1.708,.192,1.914,.008,.155,.004,.3-.013,.438-.166,.069-.343,.108-.535,.119-.325,.018-.675-.048-1.046-.201-.043,.041-.095,.086-.151,.134-.058,.046-.075,.098-.046,.153-.117,.038-.285-.011-.496-.143-.115-1.746-.428-5.3-.889-8.893-.162,.145-.459,.025-.771,.062-.371,.042-.735-.016-.878,.051-.181-.194-.139-.25-.158-.571-.02-.308-.117-1.075-.04-1.393,.018-.068,.692-.03,1.088-.063,.539-.031,.658,.097,.695,.094,.044-.07,.308-.034,.499-.047,.125,.062,.258-.056,.264,.031,.006,.058,0,.426-.041,.531-.043,.104-.062,.18-.06,.23,.008,.116,.09-.055,.288,.012,.217-.004,.438-.012,.665-.025,.257,.023,.549-.07,.526,.147,.043-.062,.07,.047,.437-.101,.271-.123,.437-.442,.382-.66-.028-.12,.137-.197,.033-.141,.131-.072,.011-.022,.154-.078,.448,.041,.699-.006,.782-.012,.182-.01,.628,.106,.757,.042,.093,.168,.141,.7,.146,.991,.015,.466,.025,.715,.026,.743Z"></path>
            <path class="cls-31" d="M97.047,658.544l-.004-.015c-.064,.129-.096,.28-.098,.442-.009,.109,.002,.259,.025,.451,.023,.223,.038,.379,.044,.466-.096,.004-.481,.026-1.153,.066-.408,.025-.774,.079-1.095,.167l-.36-.271c-.091,.083-.122,.147-.097,.196-.06-.007-.337,.008-.831,.047-.385,.023-.674,.011-.87-.037-.182,.174-.409,.19-.684,.04-.101-.052-.118-.15-.053-.293,.064-.146,.033-.249-.091-.311-.007-.31,.008-.791,.042-1.448,.04-.583,.049-1.042,.028-1.373-.025-.445-.098-.868-.216-1.271,.124-.114,.271-.176,.438-.185,.195-.011,.425,.048,.699,.179,.385,.18,.582,.273,.595,.273l.112,.093c.012-.03,.062-.189,.153-.475,.051-.188,.134-.314,.251-.379l.113,.081c.048-.022,.199-.122,.454-.303,.197-.129,.332-.6,.454-.605,.131-.009,.262,.042,.388,.15,.21,.078,.375,.607,.452,.781,.076,.174,.149,.347,.221,.518-.541,.052-.984,.074-1.336,.064-.077,.112-.199,.135-.357,.073-.162-.064-.274-.046-.342,.056,.01,.175,.028,.49,.056,.944,.012,.409,.03,.729,.054,.961,.034,.359,.09,.685,.166,.981,.098-.005,.555-.031,1.371-.08,.567-.033,1.057-.028,1.471,.017Zm-.559-6.841c-.109,.016-.228,.027-.36,.035-.277,.016-.644,.009-1.105-.023-.568-.025-.913-.039-1.033-.042-.156,.214-.177,.388-.156,.755,.045,.795,.072,1.14,.079,1.031,.171,.067,.264,.209,.276,.422,.006,.292,.014,.442,.026,.451-.083,.033-.118,.133-.109,.297-.132-.029-.278-.1-.429-.207-.2-.135-.263,.342-.26,.215l-.09,.295-.114-.08c-.095,.015-.263-.013-.502-.088-.241-.072-.409-.148-.51-.218-.01-.156,.015-.246,.074-.269l-.246-.189-.101,.137c-.215-.999-.357-2.76-.274-3.834,.459,.031,.997-.049,1.55-.073,.372-.01,.897-.042,1.57-.089,.766-.054,1.32-.089,1.655-.11,.151,.098,.235,.233,.243,.407,.004,.108-.018,.282-.07,.523-.055,.24-.122,.537-.114,.654Z"></path>
            <path class="cls-31" d="M103.046,657.509l-.018,.003c-.075,.15-.1,.365-.073,.647,.035,.396,.054,.599,.054,.608-.06,.023-.139-.005-.24-.088-.153,.057-.227,.155-.22,.29,.004,.019,.01,.052,.025,.101,.003,.057,.004,.097,.008,.116,.006,.106-.026,.187-.096,.238-.175-.097-.405-.158-.689-.187-.286-.026-.556-.052-.809-.078-.006-1.32-.185-2.614-.532-3.876,0,.009-.009-.123-.022-.395,0-.194-.044-.333-.134-.414l-.121,.108c0-.018,.039-.057,.121-.115,.08-.06,.119-.118,.117-.174-.005-.029-.012-.059-.025-.086l-.131-.097c-.226,.074-.331,.254-.312,.545,.011,.194-.065,.33-.229,.407,.06,.047,.097,.104,.101,.169,0,.038-.007,.092-.021,.162-.013,.069-.021,.122-.017,.161,.004,.088,.051,.159,.139,.212,.002,.058,.032,.58,.09,1.569,.037,.632,.02,1.167-.051,1.609l.014,.247c-.084-.005-.181-.005-.287,.003-.121,.007-.296,.023-.523,.052-.228,.027-.393,.045-.504,.052-.443,.026-.756-.05-.934-.224l-.189-5.432c-.089-.266-.144-.638-.173-1.112l-.062-1.048c-.042-.512-.105-.907-.193-1.184,.036-.186,.2-.289,.487-.305,.183-.011,.423,.014,.728,.073,.142-.067,.34-.107,.59-.121,.073-.005,.186-.005,.345-.005,.168-.01,.288-.016,.359-.022,.47-.026,.78-.171,.936-.431,.217-.002,.452,.065,.707,.205,.257,.141,.479,.215,.677,.224,.51,.302,.787,.8,.826,1.499,.008,.154-.051,.771-.182,1.85l-.881,.764c.151,.274,.328,.872,.539,1.794,.177,.766,.446,1.329,.805,1.686Zm-1.628-6.178l.02,.014c.018,.067,.009-.171-.021-.714-.016-.262-.113-.451-.288-.565-.099,.14-.117-.19-.163,.137-.049,.329-.129,.567-.238,.707-.303,0-.372-.18-.554-.432-.11-.161-.166-.021-.166-.031l-.083,.066c-.045,.042-.096,.089-.152,.141-.059,.052-.116,.069-.178,.055,.002,.056-.026,.149-.084,.275-.059,.124-.087,.211-.086,.26,.007,.085,.077,.15,.212,.19-.025,.197-.034,.402-.02,.615,.007,.115,.033,.381,.083,.797,.055,.328,.076,.608,.066,.842,.109,.005,.209,.002,.309-.002,.42-.024,.695-.192,.819-.5,.042-.09,.092-.414,.143-.971,.047-.422,.176-.717,.381-.884Z"></path>
          </g>
          <g>
            <path class="cls-31" d="M43.246,632.463v.013c-.054,.502-.071,.852-.054,1.045-.076,.03-.178,.035-.302,.014-.159-.027-.251-.039-.278-.038-.069,.004-.125,.028-.166,.074-.102-.065-.167-.093-.203-.083-.094,.058-.137,.14-.134,.246,.005,.044,.021,.119,.054,.228,.03,.108,.049,.188,.05,.24,.003,.07-.011,.182-.04,.332-.034,.151-.047,.277-.043,.373,.008,.114,.029,.292,.074,.539,.042,.241,.067,.427,.075,.548-.051,.241-.07,.484-.058,.73,.016,.297,.098,.699,.245,1.201,.025,.007,.054,.01,.081,.01,.06-.004,.132-.049,.216-.131,.083-.084,.154-.128,.217-.13,.046,0,.092,.01,.146,.033,.158,.51,.24,.84,.249,.989,.004,.071,.001,.145,0,.224-.237,.057-.402-.025-.5-.237,.014-.062-.021-.128-.102-.194l-.263,.277c.257,.039,.356,.238,.306,.593-.022,.07-.078,.109-.164,.114-.15-.003-.221-.003-.212-.003l-.216-.384-.088,.11c-.071-.182-.155-.271-.25-.265-.053,.003-.145,.048-.277,.131-.131,.088-.242,.134-.329,.136-.069,.004-.14-.015-.214-.055-.003-.105-.017-.213-.035-.328-.021-.114-.079-.185-.177-.216-.005-.273,.005-.989,.024-2.151,.008-.881,0-1.592-.029-2.134-.012-.23-.025-.455-.045-.673-.048-.067-.093-.101-.137-.099-.037,.002-.089,.041-.16,.114-.07,.074-.134,.107-.186,.103-.003-.089-.045-.229-.122-.423-.073-.194-.114-.335-.118-.423-.008-.15,.049-.281,.166-.392l.305,.078c.124-.174,.175-.466,.153-.879-.003-.076-.014-.203-.031-.374-.017-.17-.027-.294-.032-.374-.032-.677,.174-1.024,.62-1.047,.166-.009,.368,.021,.608,.088l.295,.078c.023,.114,.037,.23,.044,.352,.01,.168,0,.413-.021,.735-.025,.322-.033,.56-.025,.707,.012,.237,.053,.451,.125,.64,.069-.002,.18-.042,.33-.115,.148-.074,.259-.111,.33-.115,.123-.009,.221,.049,.299,.168Zm-.914,.942l-.017-.303-.095-.088,.112,.391Z"></path>
            <path class="cls-31" d="M46.856,631.513h.016c-.031,.238-.069,.479-.109,.718-.049,.276-.124,.491-.23,.645-.019-.006-.127-.06-.323-.154-.136-.072-.257-.101-.361-.088-.079,.516-.121,1.217-.129,2.105-.007,1.135-.017,1.821-.028,2.059-.133-.01-.233,.032-.298,.128-.065,.095-.128,.194-.182,.292-.025,.054-.036,.104-.032,.145,.001,.073,.063,.14,.181,.202,.116,.067,.178,.138,.181,.218-.051,.187-.161,.284-.328,.292-.077,.005-.215-.018-.41-.071-.195-.05-.334-.074-.415-.071l-.187-3.765c.075-.1,.104-.167,.096-.201l-.107-.075c.006-.158,.016-.946,.024-2.364,.004-.958,.04-1.734,.106-2.327-.008,0,.262-.019,.813-.055,.342-.016,.563,.078,.659,.283,.002,.194-.018,.52-.057,.98-.037,.424-.054,.748-.043,.979,.016,.28,.059,.533,.131,.758,.295-.4,.641-.612,1.032-.633Zm1.307,.806c.027,.351,.048,.691,.064,1.026,.074,1.456,.051,3.014-.066,4.675-.125,.112-.321,.137-.584,.076-.262-.062-.452-.039-.568,.072-.152-.194-.238-.543-.265-1.054-.036-.738-.056-1.119-.057-1.145-.033-1.846,.147-3.338,.539-4.475,.452,.12,.766,.394,.937,.825Z"></path>
            <path class="cls-31" d="M52.773,634.231c-.058,.118-.082,.241-.074,.373,.006,.132,.013,.257,.021,.383-.015,.105-.043,.212-.09,.32-.081-.022-.149-.032-.198-.03-.062,.003-.124,.026-.19,.07-.062,.043-.111,.064-.147,.064-.053,.005-.122-.015-.213-.053l-.61-.895c.021,.265,.081,.494,.179,.691,.049,.104,.097,.207,.146,.309-.355,.062-.558,.071-.605,.03l-.085,.112-.211-.28c-.166,.202-.203,.499-.115,.89,.111,.425,.117,.733,.021,.922,.132,.196,.292,.287,.475,.278,.081-.002,.148-.033,.206-.089,.088-.214,.173-.43,.258-.646,.128-.26,.27-.398,.427-.405,.123-.005,.267,.059,.432,.19,.198,.068,.299,.162,.305,.276,.003,.07-.042,.184-.135,.342-.094,.16-.136,.282-.133,.37,.002,.036,.008,.066,.018,.092-.129,.094-.24,.237-.341,.426-.102,.192-.231,.321-.396,.391-.143,.14-.275,.21-.397,.217-.095,.005-.239-.069-.432-.223-.192-.152-.372-.225-.54-.218-.066-.155-.238-.326-.511-.515-.274-.188-.442-.391-.505-.608,0,.019-.004-.052-.009-.209-.006-.088-.045-.143-.115-.166l.101-.098c-.135-.001-.201-.078-.21-.227-.001-.017-.002-.053-.005-.106,.006-.045,.009-.079,.008-.104-.005-.106-.041-.179-.104-.22l-.022-.459c-.013-.238-.061-.406-.146-.509,.086-.558,.175-1.116,.261-1.675,.141-.649,.353-.981,.633-.994,.043-.002,.088,.004,.133,.018,.251-.25,.556-.384,.915-.401,.394-.021,.83,.098,1.309,.356,.37,.614,.601,1.285,.691,2.01Zm-1.814-1.454l-.085,.11c-.061,.013-.134-.018-.216-.094l.016,.304c-.135,.146-.188,.373-.164,.681,.027,.525,.041,.781,.039,.764l.394-.008c.189-.106,.276-.282,.265-.528-.008-.123-.05-.324-.131-.606-.079-.282-.119-.489-.118-.623Z"></path>
          </g>
          <g>
            <polygon class="cls-31" points="55.858 647.511 56.25 647.737 57.576 644.244 57.133 644.097 55.808 647.589 56.195 647.836 55.858 647.511 55.858 647.511"></polygon>
            <polygon class="cls-31" points="56.44 647.027 56.279 647.089 55.858 647.511 56.195 647.836 56.622 647.392 56.454 647.476 56.44 647.027 56.44 647.027"></polygon>
            <polygon class="cls-31" points="59.653 647 59.841 646.854 56.44 647.027 56.454 647.476 59.856 647.304 60.073 647.141 59.653 647 59.653 647 59.653 647"></polygon>
            <polygon class="cls-31" points="61.189 643.79 60.957 643.501 59.653 647 60.073 647.141 61.399 643.649 61.168 643.361 61.189 643.79 61.189 643.79 61.189 643.79"></polygon>
            <polygon class="cls-31" points="57.949 643.9 57.778 643.986 61.189 643.79 61.168 643.361 57.773 643.515 57.604 643.597 57.949 643.9 57.949 643.9 57.949 643.9"></polygon>
            <polygon class="cls-31" points="57.576 644.244 57.529 644.322 57.949 643.9 57.604 643.597 57.182 644.019 57.133 644.097 57.576 644.244 57.576 644.244 57.576 644.244"></polygon>
            <polygon class="cls-31" points="60.402 647.416 60.705 647.281 59.975 646.875 59.742 647.289 60.494 647.703 60.822 647.556 60.381 647.409 60.381 647.409 60.402 647.416"></polygon>
            <polygon class="cls-31" points="61.827 644.191 61.707 643.917 60.381 647.409 60.822 647.556 62.149 644.063 62.029 643.79 61.827 644.191 61.827 644.191"></polygon>
            <polygon class="cls-31" points="61.399 643.649 61.069 643.796 61.827 644.191 62.029 643.79 61.3 643.382 60.957 643.501 61.399 643.649 61.399 643.649"></polygon>
            <polygon class="cls-31" points="57.368 644.175 57.346 644.168 57.766 643.745 60.922 643.592 60.957 643.501 61.189 643.578 61.399 643.649 61.383 643.687 61.939 643.993 62.149 644.063 62.064 644.291 63.606 647.971 62.301 651.47 60.612 647.485 60.612 647.485 60.396 647.576 60.381 647.409 60.397 647.366 59.864 647.071 59.742 647.289 59.676 647.079 56.44 647.239 56.017 647.659 57.368 644.175"></polygon>
            <polygon class="cls-31" points="62.09 651.4 62.52 651.379 60.83 647.395 60.396 647.576 62.084 651.561 62.511 651.54 62.069 651.392 62.069 651.392 62.09 651.4"></polygon>
            <polygon class="cls-31" points="63.411 648.071 63.395 647.901 62.069 651.392 62.511 651.54 63.839 648.05 63.824 647.881 63.411 648.071 63.411 648.071"></polygon>
            <polygon class="cls-31" points="62.149 644.063 61.721 644.085 63.411 648.071 63.824 647.881 62.135 643.895 61.707 643.917 62.149 644.063 62.149 644.063"></polygon>
            <polygon class="cls-33" points="62.036 644.964 62.227 645.378 62.295 645.8 62.276 646.214 62.156 646.643 61.946 647.063 61.657 647.436 61.286 647.781 60.834 648.077 60.591 648.182 60.346 648.287 60.07 648.335 59.821 648.392 59.574 648.426 59.309 648.454 59.061 648.42 58.809 648.404 58.593 648.355 58.362 648.278 58.136 648.18 57.941 648.067 57.772 647.941 57.584 647.808 57.43 647.64 57.303 647.455 57.112 647.043 57.041 646.621 57.041 646.199 57.182 645.777 57.368 645.369 57.66 644.977 58.032 644.633 58.502 644.343 58.725 644.231 58.993 644.133 59.246 644.076 59.499 644.021 59.762 643.993 60.01 643.958 60.255 643.993 60.507 644.009 60.74 644.083 60.97 644.161 61.18 644.234 61.399 644.351 61.575 644.456 61.756 644.612 61.881 644.794 62.036 644.964 62.036 644.964 62.036 644.964"></polygon>
            <polygon class="cls-31" points="62.204 645.652 62.395 646.067 62.458 646.509 62.438 646.925 62.324 647.332 62.135 647.76 61.819 648.145 61.474 648.477 61.004 648.764 60.751 648.892 60.506 648.997 60.255 649.052 59.98 649.101 59.737 649.136 59.499 649.15 59.246 649.136 58.978 649.096 58.76 649.044 58.53 648.966 58.325 648.876 58.108 648.757 57.932 648.65 57.772 648.503 57.609 648.355 57.469 648.145 57.273 647.752 57.204 647.329 57.233 646.893 57.344 646.486 57.531 646.06 57.821 645.686 58.193 645.342 58.661 645.053 58.916 644.927 59.152 644.842 59.415 644.765 59.688 644.716 59.925 644.703 60.171 644.669 60.417 644.703 60.668 644.716 60.908 644.772 61.138 644.85 61.342 644.942 61.568 645.04 61.735 645.167 61.923 645.301 62.049 645.484 62.198 645.673 62.198 645.673 62.204 645.652"></polygon>
            <polygon class="cls-33" points="62.324 646.137 62.522 646.53 62.584 646.975 62.562 647.387 62.451 647.793 62.24 648.217 61.944 648.61 61.601 648.94 61.13 649.227 60.9 649.361 60.634 649.46 60.379 649.515 60.107 649.564 59.862 649.601 59.623 649.614 59.371 649.601 59.103 649.559 58.885 649.509 58.656 649.433 58.452 649.34 58.235 649.22 58.058 649.114 57.876 648.959 57.743 648.799 57.598 648.609 57.401 648.216 57.33 647.793 57.35 647.379 57.469 646.95 57.66 646.522 57.954 646.128 58.338 645.81 58.79 645.518 59.042 645.391 59.289 645.285 59.541 645.229 59.812 645.182 60.059 645.145 60.297 645.13 60.57 645.152 60.795 645.182 61.035 645.239 61.266 645.313 61.491 645.412 61.686 645.526 61.861 645.631 62.049 645.764 62.176 645.948 62.324 646.137 62.324 646.137"></polygon>
            <polygon class="cls-31" points="62.492 646.825 62.68 647.241 62.75 647.663 62.75 648.083 62.612 648.506 62.428 648.913 62.114 649.3 61.762 649.65 61.292 649.937 61.068 650.051 60.801 650.149 60.549 650.204 60.297 650.261 60.03 650.289 59.782 650.323 59.539 650.289 59.288 650.276 59.047 650.219 58.814 650.142 58.613 650.048 58.397 649.93 58.229 649.805 58.058 649.678 57.904 649.507 57.758 649.318 57.588 648.912 57.499 648.482 57.52 648.067 57.638 647.64 57.842 647.239 58.137 646.845 58.507 646.501 58.958 646.206 59.202 646.101 59.449 645.996 59.722 645.945 59.975 645.891 60.218 645.854 60.48 645.848 60.733 645.862 60.963 645.87 61.203 645.926 61.433 646.002 61.657 646.101 61.855 646.214 62.041 646.347 62.211 646.473 62.366 646.643 62.484 646.847 62.484 646.847 62.492 646.825"></polygon>
            <polygon class="cls-33" points="62.738 647.281 62.934 647.676 63.002 648.098 62.996 648.54 62.883 648.948 62.673 649.37 62.358 649.756 62.014 650.086 61.565 650.381 61.313 650.507 61.046 650.605 60.795 650.662 60.54 650.717 60.276 650.748 60.037 650.761 59.782 650.748 59.539 650.711 59.301 650.654 59.069 650.577 58.866 650.484 58.661 650.394 58.472 650.259 58.311 650.112 58.159 649.945 58.032 649.761 57.834 649.367 57.75 648.917 57.772 648.503 57.904 648.104 58.095 647.675 58.387 647.281 58.753 646.957 59.202 646.663 59.456 646.537 59.7 646.432 59.967 646.403 60.227 646.326 60.473 646.289 60.733 646.284 60.984 646.299 61.209 646.326 61.449 646.383 61.698 646.467 61.903 646.559 62.106 646.65 62.295 646.784 62.458 646.932 62.612 647.099 62.738 647.281 62.738 647.281"></polygon>
            <polygon class="cls-31" points="62.928 647.977 63.095 648.385 63.187 648.813 63.165 649.23 63.045 649.657 62.842 650.059 62.545 650.451 62.176 650.796 61.726 651.09 61.483 651.195 61.215 651.293 60.962 651.351 60.709 651.408 60.463 651.441 60.198 651.47 59.953 651.435 59.7 651.419 59.482 651.371 59.231 651.287 59.028 651.195 58.83 651.081 58.643 650.949 58.472 650.822 58.318 650.654 58.193 650.471 58.002 650.056 57.911 649.628 57.932 649.214 58.075 648.792 58.256 648.384 58.552 647.99 58.921 647.646 59.391 647.359 59.617 647.247 59.885 647.149 60.135 647.091 60.387 647.035 60.655 647.008 60.9 646.973 61.145 647.008 61.377 647.014 61.635 647.079 61.868 647.157 62.069 647.247 62.268 647.359 62.458 647.494 62.625 647.62 62.78 647.789 62.928 647.977 62.928 647.977 62.928 647.977"></polygon>
            <polygon class="cls-31" points="39.741 642.615 39.762 642.481 38.428 645.994 38.848 646.134 40.183 642.621 40.19 642.532 39.741 642.615 39.741 642.615 39.741 642.615"></polygon>
            <polygon class="cls-31" points="39.706 642.44 39.713 642.419 39.741 642.615 40.19 642.532 40.14 642.329 40.149 642.305 39.706 642.44 39.706 642.44 39.706 642.44"></polygon>
            <polygon class="cls-31" points="39.659 642.237 39.706 642.44 40.149 642.305 40.098 642.102 39.659 642.237 39.659 642.237 39.659 642.237"></polygon>
            <polygon class="cls-31" points="39.6 642.052 39.659 642.237 40.098 642.102 40.042 641.92 39.6 642.052 39.6 642.052"></polygon>
            <polygon class="cls-31" points="39.552 641.85 39.552 641.85 39.6 642.052 40.042 641.92 39.993 641.715 39.987 641.737 39.552 641.85 39.552 641.85 39.552 641.85"></polygon>
            <polygon class="cls-31" points="39.497 641.596 39.497 641.667 39.552 641.85 39.987 641.737 39.931 641.553 39.953 641.633 39.497 641.596 39.497 641.596"></polygon>
            <polygon class="cls-31" points="39.945 641.512 39.501 641.433 39.497 641.596 39.953 641.633 39.958 641.469 39.518 641.392 39.937 641.532 39.937 641.532 39.945 641.512"></polygon>
            <polygon class="cls-36" points="40.328 651.736 40.286 651.511 39.815 651.589 39.849 651.834 40.328 651.736 40.328 651.736 40.328 651.736"></polygon>
            <polygon class="cls-31" points="41.304 648.808 41.318 648.694 39.993 652.186 40.411 652.327 41.739 648.835 41.731 648.715 41.304 648.808 41.304 648.808 41.304 648.808"></polygon>
            <polygon class="cls-31" points="41.27 648.56 41.304 648.808 41.731 648.715 41.698 648.469 41.249 648.554 41.249 648.554 41.27 648.56"></polygon>
            <polygon class="cls-31" points="41.208 648.327 41.249 648.554 41.698 648.469 41.634 648.238 41.208 648.327 41.208 648.327 41.208 648.327"></polygon>
            <polygon class="cls-31" points="41.15 648.076 41.163 648.104 41.208 648.327 41.634 648.238 41.598 647.99 41.613 648.019 41.15 648.076 41.15 648.076 41.15 648.076"></polygon>
            <polygon class="cls-31" points="41.573 647.866 41.122 647.809 41.15 648.076 41.613 648.019 41.577 647.772 41.127 647.719 41.573 647.866 41.573 647.866"></polygon>
            <g>
              <path class="cls-36" d="M38.43,645.298l-.211,.065,.211-.065Z"></path>
              <polygon class="cls-36" points="38.652 646.031 38.659 646.01 38.768 646.018 38.848 646.134 38.653 646.07 38.652 646.031"></polygon>
              <polygon class="cls-31" points="38.167 645.158 38.393 645.117 38.401 644.954 39.734 641.442 39.727 641.463 39.727 641.604 39.762 641.779 39.833 641.992 39.888 642.173 39.937 642.375 39.973 642.551 39.973 642.551 40.183 642.621 38.848 646.134 38.768 646.018 38.659 646.01 38.652 646.031 38.653 646.07 38.848 646.134 38.656 646.123 38.659 646.283 38.526 646.115 38.415 646.106 38.386 645.909 38.467 645.894 38.554 645.668 38.33 645.728 38.265 645.564 38.219 645.363 38.43 645.298 38.43 645.298 38.219 645.363 38.224 645.342 38.167 645.158"></polygon>
            </g>
            <g>
              <polygon class="cls-1" points="49.025 646.119 49.025 646.119 49.215 645.689 49.025 646.119"></polygon>
              <polygon class="cls-31" points="38.645 645.834 48.409 645.513 48.662 645.528 48.703 645.541 48.942 645.599 48.964 645.606 49.215 645.689 49.461 645.795 49.483 645.803 49.714 645.951 49.756 645.963 49.938 646.119 49.995 646.16 50.126 646.321 50.141 646.351 50.233 646.497 50.239 646.546 49.807 646.676 49.741 646.566 49.734 646.59 49.624 646.435 49.624 646.434 49.475 646.315 49.512 646.351 49.272 646.225 49.272 646.222 49.025 646.119 49.025 646.119 48.817 646.049 48.577 645.992 48.62 646.006 48.394 645.977 48.394 645.956 38.659 646.283 38.645 645.834"></polygon>
              <polygon class="cls-31" points="49.798 646.68 49.807 646.676 49.833 646.717 49.798 646.68"></polygon>
            </g>
            <polygon class="cls-31" points="55.014 654.889 55.014 654.749 53.681 658.261 54.124 658.41 55.456 654.897 55.456 654.756 55.014 654.889 55.014 654.889 55.014 654.889"></polygon>
            <polygon class="cls-31" points="51.158 643.225 51.129 643.167 55.014 654.889 55.456 654.756 51.573 643.036 51.567 642.985 51.158 643.225 51.158 643.225 51.158 643.225"></polygon>
            <polygon class="cls-31" points="51.082 643.105 51.069 643.077 51.158 643.225 51.567 642.985 51.475 642.836 51.455 642.831 51.06 643.098 51.06 643.098 51.082 643.105"></polygon>
            <polygon class="cls-31" points="50.99 642.955 50.956 642.922 51.06 643.098 51.455 642.831 51.306 642.639 51.27 642.604 50.99 642.955 50.99 642.955 50.99 642.955"></polygon>
            <polygon class="cls-31" points="50.836 642.859 50.801 642.823 50.99 642.955 51.27 642.604 51.082 642.472 51.046 642.437 50.836 642.859 50.836 642.859"></polygon>
            <polygon class="cls-31" points="50.625 642.717 50.605 642.71 50.836 642.859 51.046 642.437 50.809 642.31 50.789 642.303 50.625 642.717 50.625 642.717"></polygon>
            <polygon class="cls-31" points="50.402 642.619 50.351 642.626 50.625 642.717 50.789 642.303 50.542 642.198 50.521 642.191 50.374 642.633 50.374 642.633 50.402 642.619"></polygon>
            <polygon class="cls-31" points="50.149 642.536 50.12 642.549 50.374 642.633 50.521 642.191 50.269 642.106 50.269 642.106 50.141 642.556 50.141 642.556 50.149 642.536"></polygon>
            <polygon class="cls-31" points="49.953 642.493 49.912 642.48 50.141 642.556 50.269 642.106 50.008 642.043 49.987 642.036 49.953 642.493 49.953 642.493 49.953 642.493"></polygon>
            <polygon class="cls-31" points="49.727 642.463 49.721 642.485 49.953 642.493 49.987 642.036 49.743 642 49.714 642.015 49.727 642.463 49.727 642.463"></polygon>
            <polygon class="cls-31" points="40.204 642.629 39.965 642.784 49.727 642.463 49.714 642.015 39.973 642.34 39.762 642.481 40.183 642.621 40.183 642.621 40.204 642.629"></polygon>
            <polygon class="cls-36" points="42.655 653.31 42.622 653.293 42.644 653.282 42.655 653.31"></polygon>
            <g>
              <path class="cls-36" d="M47.929,654.889l-.042,.477,.042-.477Z"></path>
              <g>
                <path class="cls-1" d="M47.909,655.117l-.022,.249,.022-.249Z"></path>
                <g>
                  <polygon class="cls-1" points="39.998 651.314 40.012 651.281 40.022 651.325 39.998 651.314"></polygon>
                  <path class="cls-31" d="M39.849,651.834l.044,.226,.084,.238,.104,.176,.598,.316,.595,.318,.574,.309,.584,.287,.021,.008,.591,.267,.588,.266,.638,.261,.645,.238,.022,.008,.687,.184,.687,.182,.022,.007,.758,.112,.778,.121,.02,.008,.848,.049,.03-.015,.904,.022,.968-.028,1.025-.055,.21-.141,1.326-3.493-.226-.309,.015,.45-.072-.087,.052-.128-.147,.006-.064-.079-.031,.085-.76,.048h-.983l-.904-.022-.826-.042-.808-.106-.752-.134-.689-.181-.687-.184-.646-.238-.625-.233-.586-.267-.586-.29-.601-.295-.576-.308-.575-.311-.399-.21,.015-.034-.211-.071h0l-.056-.254-.043-.225-.015-.076,.158-.343-.225-.075-.01-.004h0l-.211-.068-1.325,3.49-.015,.112,.035,.246,.028,.266Zm.163-.553l.01,.044-.024-.01,.014-.034Z"></path>
                </g>
              </g>
            </g>
            <polygon class="cls-31" points="51.963 651.902 52.988 651.846 52.973 651.396 51.949 651.452 51.963 651.902 51.963 651.902 51.963 651.902"></polygon>
            <polygon class="cls-31" points="50.997 651.931 51.963 651.902 51.949 651.452 50.981 651.48 50.997 651.931 50.997 651.931 50.997 651.931"></polygon>
            <polygon class="cls-31" points="50.07 651.901 50.09 651.908 50.997 651.931 50.981 651.48 50.077 651.459 50.106 651.444 50.063 651.922 50.063 651.922 50.07 651.901"></polygon>
            <polygon class="cls-31" points="49.2 651.845 49.222 651.853 50.063 651.922 50.106 651.444 49.256 651.395 49.277 651.402 49.2 651.845 49.2 651.845 49.2 651.845"></polygon>
            <polygon class="cls-31" points="48.414 651.747 49.2 651.845 49.277 651.402 48.498 651.283 48.414 651.747 48.414 651.747"></polygon>
            <polygon class="cls-31" points="47.644 651.605 47.664 651.612 48.414 651.747 48.498 651.283 47.719 651.162 47.741 651.169 47.644 651.605 47.644 651.605 47.644 651.605"></polygon>
            <polygon class="cls-31" points="46.957 651.423 47.644 651.605 47.741 651.169 47.054 650.987 46.948 651.444 46.948 651.444 46.957 651.423"></polygon>
            <polygon class="cls-31" points="46.241 651.253 46.262 651.26 46.948 651.444 47.054 650.987 46.366 650.803 46.388 650.81 46.241 651.253 46.241 651.253"></polygon>
            <polygon class="cls-31" points="45.595 651.014 45.595 651.014 46.241 651.253 46.388 650.81 45.743 650.571 45.764 650.577 45.575 651.007 45.575 651.007 45.595 651.014"></polygon>
            <polygon class="cls-31" points="44.958 650.754 45.575 651.007 45.764 650.577 45.149 650.324 44.958 650.754 44.958 650.754"></polygon>
            <polygon class="cls-31" points="44.368 650.486 44.958 650.754 45.149 650.324 44.552 650.079 44.368 650.486 44.368 650.486"></polygon>
            <polygon class="cls-31" points="43.765 650.191 43.78 650.219 44.368 650.486 44.552 650.079 43.947 649.785 43.967 649.792 43.756 650.213 43.756 650.213 43.765 650.191"></polygon>
            <polygon class="cls-31" points="43.184 649.904 43.756 650.213 43.967 649.792 43.386 649.502 43.176 649.924 43.176 649.924 43.184 649.904"></polygon>
            <polygon class="cls-31" points="42.607 649.595 43.176 649.924 43.386 649.502 42.812 649.194 42.586 649.588 42.586 649.588 42.607 649.595"></polygon>
            <polygon class="cls-31" points="42.01 649.277 42.586 649.588 42.812 649.194 42.237 648.883 42.01 649.277 42.01 649.277"></polygon>
            <polygon class="cls-31" points="41.739 648.835 41.415 648.961 42.01 649.277 42.237 648.883 41.64 648.567 41.318 648.694 41.739 648.835 41.739 648.835 41.739 648.835"></polygon>
            <polygon class="cls-31" points="102.536 642.506 101.203 646.018 105.554 647.475 106.566 645.142 106.594 644.917 106.6 644.685 106.566 644.439 106.481 644.201 106.342 643.988 106.229 643.763 106.047 643.54 105.86 643.335 105.663 643.152 105.445 642.963 105.219 642.794 105.002 642.673 104.792 642.534 104.545 642.43 104.328 642.31 104.118 642.238 103.93 642.176 103.703 642.147 103.502 642.127 103.306 642.155 103.108 642.182 102.9 642.253 102.716 642.379 102.536 642.506 102.536 642.506 102.536 642.506"></polygon>
            <polygon class="cls-31" points="105.36 647.361 105.633 647.242 101.278 645.787 101.128 646.228 105.484 647.685 105.78 647.574 105.36 647.361 105.36 647.361"></polygon>
            <g>
              <path class="cls-1" d="M106.199,648.376l.03,.236-.03-.236Z"></path>
              <polygon class="cls-1" points="108.445 646.023 108.607 646.176 108.432 646.054 108.445 646.023"></polygon>
              <g>
                <polygon class="cls-1" points="108.607 646.176 108.432 646.054 108.445 646.023 108.607 646.176"></polygon>
                <g>
                  <polygon class="cls-1" points="108.607 646.176 108.432 646.054 108.445 646.023 108.607 646.176"></polygon>
                  <polygon class="cls-31" points="38.167 644.949 38.19 644.884 39.518 641.392 39.937 641.532 38.652 644.982 38.625 645.123 38.618 645.074 38.167 645.158 38.162 645.109 38.167 644.949"></polygon>
                  <g>
                    <polygon class="cls-1" points="108.607 646.176 108.432 646.054 108.445 646.023 108.607 646.176"></polygon>
                    <polygon class="cls-36" points="59.524 653.212 59.446 653.258 59.44 653.253 59.524 653.212"></polygon>
                    <g>
                      <path class="cls-1" d="M59.611,653.418l.165,.159-.165-.159Z"></path>
                      <polygon class="cls-1" points="108.607 646.176 108.432 646.054 108.445 646.023 108.607 646.176"></polygon>
                      <polygon class="cls-1" points="53.891 658.332 53.905 658.332 53.905 658.338 53.681 658.261 53.87 658.267 53.891 658.332"></polygon>
                      <path class="cls-31" d="M38.33,645.728l.051,.204,.006-.023,.341-.071-.09,.227,9.766-.319,.23,.008,.251,.083,.253,.085,.254,.086,.232,.145,.188,.134,.134,.161,.08,.164-.228,.069,3.883,11.722,.227,.005,.005,.143h.35l.331-.006,.301,.006,.274-.05,.28-.069,.28-.14,.259-.217,.308-.296,.009-.021,.174-.246,.206-.26,.23-.274,.162-.273,.202-.33,.211-.283,.175-.313,.223-.323,.183-.267,.26-.29,.212-.28,.246-.248,.217-.231,.232-.202,.225-.184,.258-.148,.057-.028-.165-.159h0l.165,.159,.261-.288,.239-.225,.211-.209,.223-.184,.219-.162,.23-.133,.203-.119,.225-.111,.253-.057,.245-.106,.253-.056,.292-.043,.325-.055,.356-.021,.387-.036,.378-.013,.021,.005,42.133-3.153,.245-.034,.224-.042,.204-.049,.21-.07,.197-.099,.201-.119,.171-.154,.194-.169,.044-.057,.737-1.721-.386-.246,.17,.166-.026,.022-.187-.131-.185,.429-.124,.076-.164,.063-.19,.079-.176,.034-.225,.042-.222,.042-42.153,3.148-.268,.027-.258,.009-.26,.005-.275,.049h-.279l-.244,.034-.268,.028-.246,.037-.273,.049-.244,.034-.253,.057-.28,.07-.253,.057-.267,.096-.266,.1-.253,.123-.497,.303-.504,.464-.534,.548-.514,.624-.497,.654-.429,.584-.421,.562-.35,.421-.204,.05-.176,.035-.217,.021h-.421l-.183-.013-.231-.009-.203-.021-3.869-11.694-.085-.168-.132-.164-.188-.135-.254-.152-.244-.106-.253-.085-.238-.057-.233-.005-9.754,.298-1.173,3.091-.007-.042-.463,.127Zm70.102,.326l.013-.031,.162,.153-.175-.122Z"></path>
                    </g>
                  </g>
                </g>
              </g>
            </g>
            <polygon class="cls-31" points="106.959 646.914 107.21 646.856 107.435 646.815 107.639 646.766 107.85 646.695 108.045 646.598 108.25 646.477 108.41 646.344 108.607 646.176 108.271 645.852 108.122 646.014 107.969 646.127 107.82 646.217 107.66 646.28 107.504 646.323 107.324 646.379 107.127 646.406 106.911 646.429 106.959 646.914 106.959 646.914"></polygon>
            <polygon class="cls-31" points="64.833 650.046 106.959 646.914 106.911 646.429 64.779 649.581 64.833 650.046 64.833 650.046"></polygon>
            <polygon class="cls-31" points="60.704 650.794 60.947 650.69 61.189 650.605 61.474 650.514 61.713 650.43 61.971 650.353 62.217 650.317 62.463 650.284 62.736 650.235 62.96 650.191 63.22 650.185 63.487 650.157 63.752 650.129 64.02 650.1 64.258 650.087 64.546 650.066 64.833 650.046 64.779 649.581 64.51 649.611 64.246 649.637 63.965 649.637 63.698 649.665 63.439 649.673 63.187 649.728 62.926 649.735 62.639 649.756 62.386 649.813 62.131 649.868 61.86 649.916 61.579 649.988 61.34 650.072 61.053 650.162 60.766 650.253 60.514 650.38 60.704 650.794 60.704 650.794 60.704 650.794"></polygon>
            <polygon class="cls-31" points="56.928 654.967 57.02 654.905 57.208 654.686 57.379 654.462 57.58 654.203 57.792 653.92 58.032 653.626 58.25 653.323 58.493 653.007 58.74 652.691 58.992 652.355 59.25 652.066 59.503 651.798 59.761 651.511 59.98 651.281 60.255 651.09 60.476 650.908 60.704 650.794 60.514 650.38 60.227 650.543 59.98 650.717 59.693 650.949 59.419 651.208 59.166 651.477 58.916 651.744 58.635 652.094 58.387 652.41 58.141 652.727 57.895 653.042 57.679 653.344 57.441 653.639 57.229 653.92 57.027 654.18 56.859 654.405 56.705 654.588 56.789 654.545 56.928 654.967 56.928 654.967 56.928 654.967"></polygon>
            <polygon class="cls-1" points="102.443 642.709 102.536 642.506 102.702 642.352 102.955 642.226 103.249 642.182 103.411 642.191 103.592 642.205 103.769 642.238 103.943 642.274 104.154 642.345 104.344 642.407 104.546 642.5 104.765 642.619 104.946 642.703 105.135 642.836 105.303 642.963 105.487 643.117 105.676 643.251 105.809 643.413 105.97 643.561 106.102 643.722 106.35 644.04 106.475 644.362 106.539 644.524 106.573 644.63 106.552 644.903 106.5 645.12 106.348 645.303 106.124 645.415 105.822 645.479 105.655 645.494 105.479 645.457 105.277 645.435 105.058 645.389 104.868 645.324 104.658 645.254 104.434 645.156 104.239 645.043 104.034 644.951 103.817 644.832 103.626 644.7 103.445 644.543 103.276 644.418 103.1 644.242 102.946 644.073 102.814 643.911 102.597 643.581 102.471 643.258 102.435 643.152 102.399 642.976 102.443 642.709"></polygon>
            <polygon class="cls-33" points="48.86 642.267 49.727 642.253 49.798 642.253 42.329 639.755 41.952 639.981 48.851 642.288 48.851 642.288 48.86 642.267"></polygon>
            <polygon class="cls-33" points="48.86 642.267 39.973 642.551 39.937 642.375 39.888 642.173 39.833 641.992 39.762 641.779 39.727 641.604 39.727 641.463 39.783 641.296 39.937 641.182 40.303 640.929 40.71 640.69 41.117 640.452 41.524 640.214 41.909 639.968 41.952 639.981 48.851 642.288 48.851 642.288 48.86 642.267"></polygon>
            <polygon class="cls-33" points="43.457 647.675 49.508 647.334 51.88 648.29 52.715 650.771 52.967 651.63 51.964 651.691 50.981 651.691 50.077 651.669 49.25 651.627 48.443 651.521 47.694 651.387 47.004 651.206 46.318 651.022 45.672 650.784 45.047 650.551 44.461 650.284 43.875 649.994 43.275 649.699 42.699 649.391 42.124 649.08 41.528 648.764 41.472 648.51 41.429 648.285 41.374 648.035 41.338 647.787 43.457 647.675"></polygon>
            <polygon class="cls-33" points="58.706 648.371 58.788 648.469 59.566 648.94 59.821 648.531 59.042 648.062 59.118 648.182 58.706 648.371 58.733 648.426 58.788 648.469 58.706 648.371 58.706 648.371"></polygon>
            <polygon class="cls-33" points="51.781 648.516 51.649 648.352 52.755 651.699 53.199 651.565 52.09 648.221 51.971 648.086 52.09 648.221 52.054 648.114 51.971 648.086 51.781 648.516 51.781 648.516 51.781 648.516"></polygon>
            <polygon class="cls-33" points="49.533 647.552 49.418 647.54 51.781 648.516 51.971 648.086 49.609 647.109 49.516 647.102 49.609 647.109 49.566 647.095 49.516 647.102 49.533 647.552 49.533 647.552 49.533 647.552"></polygon>
            <polygon class="cls-33" points="41.577 647.772 41.352 648.026 49.533 647.552 49.516 647.102 41.338 647.576 41.122 647.809 41.338 647.576 41.079 647.584 41.122 647.809 41.577 647.772 41.577 647.772"></polygon>
            <polygon class="cls-33" points="41.64 648.567 41.731 648.715 41.724 648.596 41.698 648.469 41.69 648.351 41.654 648.244 41.648 648.125 41.62 647.998 41.583 647.892 41.577 647.772 41.122 647.809 41.122 647.949 41.142 648.097 41.178 648.203 41.183 648.322 41.22 648.426 41.249 648.554 41.297 648.686 41.304 648.808 41.415 648.961 41.304 648.808 41.338 648.912 41.415 648.961 41.64 648.567 41.64 648.567"></polygon>
            <polygon class="cls-33" points="52.763 651.677 52.952 651.39 51.949 651.452 50.981 651.48 50.106 651.444 49.256 651.395 48.498 651.283 47.741 651.169 47.054 650.987 46.388 650.81 45.743 650.571 45.149 650.324 44.552 650.079 43.967 649.792 43.386 649.502 42.812 649.194 42.237 648.883 41.64 648.567 41.415 648.961 42.01 649.277 42.586 649.588 43.176 649.924 43.756 650.213 44.368 650.486 44.958 650.754 45.595 651.014 46.241 651.253 46.948 651.444 47.644 651.605 48.414 651.747 49.222 651.853 50.063 651.922 50.997 651.931 51.963 651.902 53.007 651.853 53.199 651.565 53.007 651.853 53.296 651.832 53.199 651.565 52.755 651.699 52.755 651.699 52.763 651.677"></polygon>
            <g>
              <path class="cls-1" d="M56.995,654.647l.172,.166-.172-.166Z"></path>
              <polygon class="cls-1" points="55.443 654.588 55.402 654.589 55.402 654.589 55.443 654.588"></polygon>
              <path class="cls-1" d="M51.633,643.219l6.14,2.052-6.14-2.052Z"></path>
            </g>
            <polygon class="cls-33" points="64.779 649.581 64.469 649.595 64.125 649.644 63.818 649.657 63.481 649.686 63.159 649.743 62.814 649.792 62.471 649.842 62.139 649.916 61.809 649.994 61.525 650.086 61.209 650.191 60.913 650.305 60.661 650.43 60.359 650.564 60.113 650.74 59.887 650.921 60.171 651.273 60.385 651.112 60.597 650.97 60.829 650.836 61.094 650.74 61.357 650.592 61.635 650.522 61.964 650.445 62.253 650.353 62.568 650.317 62.848 650.249 63.187 650.219 63.509 650.165 63.852 650.114 64.188 650.086 64.503 650.052 64.833 650.046 64.779 649.581 64.779 649.581 64.779 649.581"></polygon>
            <polygon class="cls-33" points="106.911 646.429 64.779 649.581 64.833 650.046 106.959 646.914 106.911 646.429 106.911 646.429"></polygon>
            <polygon class="cls-33" points="107.696 643.854 107.87 644.102 108.053 644.327 108.137 644.565 108.271 644.798 108.341 645.01 108.364 645.228 108.369 645.417 108.356 645.599 108.305 645.748 108.235 645.887 108.145 646.02 107.982 646.152 107.814 646.239 107.547 646.336 107.267 646.406 106.911 646.429 106.959 646.914 107.344 646.878 107.681 646.779 107.975 646.667 108.235 646.519 108.473 646.364 108.643 646.139 108.733 645.935 108.817 645.684 108.811 645.423 108.826 645.171 108.769 644.917 108.677 644.63 108.571 644.384 108.432 644.102 108.25 643.808 108.067 643.583 107.696 643.854 107.696 643.854"></polygon>
            <polygon class="cls-33" points="102.674 641.451 103.054 641.438 103.438 641.474 103.832 641.557 104.209 641.614 104.567 641.733 104.924 641.852 105.269 642.015 105.592 642.171 105.927 642.352 106.236 642.549 106.567 642.752 106.803 642.95 107.056 643.175 107.303 643.421 107.505 643.651 107.696 643.854 108.067 643.583 107.85 643.323 107.604 643.077 107.359 642.831 107.086 642.598 106.783 642.381 106.483 642.163 106.173 641.966 105.823 641.754 105.458 641.586 105.086 641.438 104.708 641.311 104.308 641.179 103.915 641.094 103.515 641.031 103.059 640.996 102.66 641 102.674 641.451 102.674 641.451"></polygon>
            <polygon class="cls-33" points="65.397 642.737 102.674 641.451 102.66 641 65.403 642.295 65.397 642.737 65.397 642.737"></polygon>
            <polygon class="cls-33" points="59.512 641.801 59.863 641.941 60.233 642.018 60.592 642.137 60.964 642.215 61.357 642.3 61.723 642.398 62.12 642.461 62.479 642.511 62.851 642.59 63.235 642.623 63.614 642.68 63.987 642.688 64.345 642.737 64.723 642.722 65.067 642.745 65.397 642.737 65.403 642.295 65.054 642.295 64.711 642.274 64.386 642.259 64.022 642.231 63.657 642.203 63.292 642.173 62.934 642.124 62.557 642.068 62.186 641.992 61.828 641.941 61.463 641.843 61.083 641.786 60.718 641.689 60.333 641.583 60.01 641.498 59.653 641.379 59.506 641.821 59.506 641.821 59.512 641.801"></polygon>
            <polygon class="cls-33" points="46.937 638.347 47.577 638.254 48.178 638.2 48.754 638.157 49.281 638.122 49.78 638.102 50.228 638.157 50.69 638.171 51.077 638.206 51.475 638.269 51.847 638.347 52.198 638.417 52.514 638.523 52.85 638.637 53.117 638.748 53.448 638.883 53.708 639.015 54.006 639.163 54.308 639.311 54.604 639.481 54.899 639.649 55.192 639.817 55.501 640.014 55.802 640.163 56.132 640.367 56.498 640.535 56.848 640.745 57.239 640.9 57.619 641.096 58.045 641.287 58.51 641.442 59 641.653 59.506 641.821 59.653 641.379 59.147 641.21 58.65 641.02 58.235 640.858 57.8 640.69 57.402 640.486 57.057 640.325 56.706 640.113 56.363 639.952 56.027 639.769 55.709 639.592 55.416 639.426 55.109 639.227 54.813 639.059 54.513 638.912 54.21 638.764 53.935 638.601 53.636 638.454 53.305 638.32 52.997 638.194 52.661 638.081 52.302 637.961 51.932 637.884 51.553 637.827 51.138 637.736 50.711 637.687 50.269 637.68 49.757 637.671 49.266 637.671 48.698 637.695 48.124 637.735 47.512 637.811 46.879 637.883 46.917 638.338 46.917 638.338 46.937 638.347"></polygon>
            <polygon class="cls-33" points="40.056 641.386 40.422 641.132 40.828 640.895 41.237 640.655 41.649 640.394 42.027 640.171 42.457 639.939 42.854 639.722 43.27 639.533 43.711 639.328 44.153 639.124 44.588 638.943 45.037 638.787 45.522 638.668 45.962 638.534 46.447 638.415 46.917 638.338 46.879 637.883 46.355 637.987 45.859 638.078 45.366 638.218 44.903 638.345 44.442 638.541 43.963 638.709 43.529 638.893 43.085 639.096 42.638 639.321 42.209 639.552 41.811 639.771 41.403 640.009 40.996 640.248 40.59 640.486 40.204 640.732 39.818 640.977 40.036 641.379 40.036 641.379 40.056 641.386"></polygon>
            <polygon class="cls-33" points="39.973 642.34 40.21 642.539 40.14 642.329 40.098 642.102 40.042 641.92 39.993 641.715 39.965 641.588 39.945 641.512 39.978 641.407 40.036 641.379 39.818 640.977 39.617 641.167 39.509 641.413 39.483 641.638 39.552 641.85 39.6 642.052 39.659 642.237 39.713 642.419 39.747 642.594 39.965 642.784 39.747 642.594 39.756 642.784 39.965 642.784 39.973 642.34 39.973 642.34"></polygon>
            <g>
              <polygon class="cls-1" points="57.182 644.019 57.184 644.021 57.125 644.26 57.182 644.019"></polygon>
              <polygon class="cls-33" points="57.19 643.998 57.184 644.021 57.182 644.019 57.19 643.998"></polygon>
              <polygon class="cls-33" points="57.085 644.104 57.182 644.019 57.125 644.26 57.085 644.104"></polygon>
              <g>
                <polygon class="cls-1" points="102.536 642.506 102.702 642.352 102.955 642.226 103.249 642.182 103.411 642.191 103.592 642.205 103.769 642.238 103.943 642.274 104.154 642.345 104.344 642.407 104.546 642.5 104.765 642.619 104.946 642.703 105.135 642.836 105.303 642.963 105.487 643.117 105.676 643.251 105.809 643.413 105.97 643.561 106.102 643.722 106.35 644.04 106.475 644.362 106.539 644.524 106.573 644.63 106.552 644.903 106.5 645.12 106.348 645.303 106.124 645.415 105.822 645.479 105.655 645.494 105.479 645.457 105.277 645.435 105.058 645.389 104.868 645.324 104.658 645.254 104.434 645.156 104.239 645.043 104.034 644.951 103.817 644.832 103.626 644.7 103.445 644.543 103.276 644.418 103.1 644.242 102.946 644.073 102.814 643.911 102.597 643.581 102.471 643.258 102.435 643.152 102.399 642.976 102.443 642.709 102.536 642.506"></polygon>
                <polygon class="cls-1" points="61.93 643.988 61.93 643.988 61.721 644.085 61.93 643.988"></polygon>
                <polygon class="cls-1" points="63.447 647.824 63.594 647.943 63.606 647.971 63.208 648.469 59.686 648.723 58.921 648.28 58.918 648.271 59.118 648.182 57.621 644.228 57.87 643.98 61.069 643.796 61.747 644.148 63.411 648.071 63.447 647.824"></polygon>
                <polygon class="cls-1" points="51.43 642.8 51.43 642.8 57.324 644.769 51.43 642.8"></polygon>
                <g>
                  <polygon class="cls-1" points="102.536 642.506 102.702 642.352 102.955 642.226 103.249 642.182 103.411 642.191 103.592 642.205 103.769 642.238 103.943 642.274 104.154 642.345 104.344 642.407 104.546 642.5 104.765 642.619 104.946 642.703 105.135 642.836 105.303 642.963 105.487 643.117 105.676 643.251 105.809 643.413 105.97 643.561 106.102 643.722 106.35 644.04 106.475 644.362 106.539 644.524 106.573 644.63 106.552 644.903 106.5 645.12 106.348 645.303 106.124 645.415 105.822 645.479 105.655 645.494 105.479 645.457 105.277 645.435 105.058 645.389 104.868 645.324 104.658 645.254 104.434 645.156 104.239 645.043 104.034 644.951 103.817 644.832 103.626 644.7 103.445 644.543 103.276 644.418 103.1 644.242 102.946 644.073 102.814 643.911 102.597 643.581 102.471 643.258 102.435 643.152 102.399 642.976 102.443 642.709 102.536 642.506"></polygon>
                  <polygon class="cls-1" points="61.069 643.796 61.747 644.148 63.411 648.071 63.447 647.824 63.594 647.943 63.606 647.971 63.208 648.469 59.686 648.723 58.921 648.28 58.918 648.271 59.118 648.182 57.621 644.228 57.87 643.98 61.069 643.796"></polygon>
                  <polygon class="cls-1" points="51.43 642.8 51.43 642.8 57.324 644.769 51.43 642.8"></polygon>
                  <g>
                    <polygon class="cls-1" points="102.536 642.506 102.702 642.352 102.955 642.226 103.249 642.182 103.411 642.191 103.592 642.205 103.769 642.238 103.943 642.274 104.154 642.345 104.344 642.407 104.546 642.5 104.765 642.619 104.946 642.703 105.135 642.836 105.303 642.963 105.487 643.117 105.676 643.251 105.809 643.413 105.97 643.561 106.102 643.722 106.35 644.04 106.475 644.362 106.539 644.524 106.573 644.63 106.552 644.903 106.5 645.12 106.348 645.303 106.124 645.415 105.822 645.479 105.655 645.494 105.479 645.457 105.277 645.435 105.058 645.389 104.868 645.324 104.658 645.254 104.434 645.156 104.239 645.043 104.034 644.951 103.817 644.832 103.626 644.7 103.445 644.543 103.276 644.418 103.1 644.242 102.946 644.073 102.814 643.911 102.597 643.581 102.471 643.258 102.435 643.152 102.399 642.976 102.443 642.709 102.536 642.506"></polygon>
                    <polygon class="cls-1" points="61.069 643.796 61.747 644.148 63.411 648.071 63.447 647.824 63.594 647.943 63.606 647.971 63.211 648.464 63.187 648.252 59.666 648.503 59.821 648.531 59.704 648.721 59.686 648.723 58.921 648.28 58.918 648.271 59.118 648.182 57.621 644.228 57.87 643.98 61.069 643.796"></polygon>
                    <polygon class="cls-1" points="51.43 642.8 51.43 642.8 57.324 644.769 51.43 642.8"></polygon>
                    <g>
                      <path class="cls-1" d="M63.535,647.198l6.673,2.23-6.673-2.23Z"></path>
                      <path class="cls-1" d="M63.362,646.789l7.684,2.57-7.684-2.57Z"></path>
                      <polygon class="cls-1" points="102.536 642.506 102.702 642.352 102.955 642.226 103.249 642.182 103.411 642.191 103.592 642.205 103.769 642.238 103.943 642.274 104.154 642.345 104.344 642.407 104.546 642.5 104.765 642.619 104.946 642.703 105.135 642.836 105.303 642.963 105.487 643.117 105.676 643.251 105.809 643.413 105.97 643.561 106.102 643.722 106.35 644.04 106.475 644.362 106.539 644.524 106.573 644.63 106.552 644.903 106.5 645.12 106.348 645.303 106.124 645.415 105.822 645.479 105.655 645.494 105.479 645.457 105.277 645.435 105.058 645.389 104.868 645.324 104.658 645.254 104.434 645.156 104.239 645.043 104.034 644.951 103.817 644.832 103.626 644.7 103.445 644.543 103.276 644.418 103.1 644.242 102.946 644.073 102.814 643.911 102.597 643.581 102.471 643.258 102.435 643.152 102.399 642.976 102.443 642.709 102.536 642.506"></polygon>
                      <polygon class="cls-1" points="61.069 643.796 61.747 644.148 63.411 648.071 63.447 647.824 63.594 647.943 63.606 647.971 63.211 648.464 63.208 648.469 59.704 648.721 59.686 648.723 58.921 648.28 58.918 648.271 59.118 648.182 57.621 644.228 57.87 643.98 61.069 643.796"></polygon>
                      <polygon class="cls-1" points="51.43 642.8 51.43 642.8 57.324 644.769 51.43 642.8"></polygon>
                      <polygon class="cls-33" points="63.362 646.789 71.046 649.359 70.213 649.409 70.208 649.428 63.535 647.198 63.362 646.789"></polygon>
                      <g>
                        <polygon class="cls-1" points="102.536 642.506 102.702 642.352 102.955 642.226 103.249 642.182 103.411 642.191 103.592 642.205 103.769 642.238 103.943 642.274 104.154 642.345 104.344 642.407 104.546 642.5 104.765 642.619 104.946 642.703 105.135 642.836 105.303 642.963 105.487 643.117 105.676 643.251 105.809 643.413 105.97 643.561 106.102 643.722 106.35 644.04 106.475 644.362 106.539 644.524 106.573 644.63 106.552 644.903 106.5 645.12 106.348 645.303 106.124 645.415 105.822 645.479 105.655 645.494 105.479 645.457 105.277 645.435 105.058 645.389 104.868 645.324 104.658 645.254 104.434 645.156 104.239 645.043 104.034 644.951 103.817 644.832 103.626 644.7 103.445 644.543 103.276 644.418 103.1 644.242 102.946 644.073 102.814 643.911 102.597 643.581 102.471 643.258 102.435 643.152 102.399 642.976 102.443 642.709 102.536 642.506"></polygon>
                        <polygon class="cls-1" points="61.069 643.796 61.747 644.148 63.356 647.938 63.105 648.26 59.666 648.503 59.821 648.531 59.704 648.721 59.686 648.723 58.921 648.28 58.918 648.271 59.118 648.182 57.621 644.228 57.87 643.98 61.069 643.796"></polygon>
                        <polygon class="cls-1" points="63.447 647.824 63.594 647.943 63.594 647.943 63.447 647.824"></polygon>
                        <polygon class="cls-1" points="51.43 642.8 51.43 642.8 57.324 644.769 51.43 642.8"></polygon>
                        <path class="cls-33" d="M39.965,642.784l9.762-.321,.205,.022,.188,.063,.254,.084,.231,.078,.211,.141,.153,.098,.091,.148,.069,.07,3.885,11.722,.057,.184,.189-.008,.195-.028,.224,.028,.274,.021,.261-.006,.251,.013,.232-.063,.26-.077,.21-.139,.253-.269,.209-.279,.197-.238,.195-.238,.171-.226,.16-.204,.14-.212,.168-.223,.141-.212,.162-.204,.162-.203,.175-.176,.182-.197,.211-.211,.21-.211,.269-.238-.144-.179,.213-.173,.235-.156,.275-.119,.253-.126,.273-.117,.309-.086,.316-.104,.309-.084,.293-.043,.323-.056,.346-.049,.319-.057,.338-.029,.337-.026,.315-.036,.309-.013,5.416-.393-6.673-2.23-.173-.409h0l7.685,2.57,35.898-2.686,.665-.104,.498-.233,.345-.328,.128-.379v-.424l.006-.021-.121-.484-.236-.478-.346-.513-.202-.231-.226-.239-.245-.245-.258-.203-.273-.233-.309-.196-.331-.205-.327-.205-.353-.14-.346-.163-.377-.124-.398-.135-.379-.057-.395-.084-.406-.043-.399,.008-5.42,.202-31.837,1.091h-.348l-.331,.006-.371-.008-.357-.049-.365-.028-.365-.029-.357-.049-.378-.057-.38-.054-.371-.078-.373-.078-.37-.078-.387-.106-.364-.098-.343-.09-.357-.119-.507-.171-.496-.189-.436-.169-.432-.167-.381-.2-.365-.167-.379-.198-.347-.162-.327-.202-.293-.169-.318-.176-.293-.169-.314-.175-.296-.169-.28-.141-.295-.168-.302-.148-.309-.127-.296-.098-.334-.111-.359-.119-.342-.093-.379-.057-.399-.062-.406-.042-.458-.037-.483-.021-.497,.021-.521,.014-.58,.063-.604,.055-.659,.085-.492,.07-.482,.118-.486,.118-.449,.155-.477,.17-.454,.174-.435,.182-.443,.203-.42,.212-.43,.23,6.812,2.278-9.168,.307-.009,.445Zm62.434,.192l.044-.266,.093-.203,.166-.154,.253-.126,.294-.043,.162,.009,.182,.013,.177,.034,.174,.036,.211,.07,.19,.062,.202,.093,.219,.119,.181,.084,.189,.133,.168,.127,.184,.153,.189,.135,.133,.162,.161,.148,.132,.161,.248,.318,.125,.322,.063,.162,.034,.106-.021,.273-.052,.216-.152,.184-.225,.112-.302,.064-.167,.014-.176-.036-.202-.022-.219-.046-.19-.065-.21-.069-.224-.099-.195-.113-.205-.092-.217-.119-.19-.132-.182-.157-.169-.125-.176-.176-.154-.168-.132-.163-.217-.33-.126-.322-.036-.106-.035-.178Zm-38.805,4.967h0l-.147-.119,.147,.119Zm-5.973-3.715l.249-.249,3.199-.184,.678,.352,1.609,3.79-.251,.321-3.438,.243,.154,.028-.117,.189-.018,.002-.765-.442-.003-.009,.199-.089-1.496-3.952Z"></path>
                      </g>
                    </g>
                  </g>
                </g>
              </g>
            </g>
            <polygon class="cls-31" points="100.232 645.413 100.036 645.302 100.002 645.125 100.282 645.055 100.336 645.239 100.168 645.111 100.232 645.413 100.232 645.413"></polygon>
            <polygon class="cls-31" points="100.611 645.189 100.569 645.245 100.499 645.314 100.415 645.358 100.333 645.399 100.232 645.413 100.168 645.111 100.211 645.125 100.276 645.075 100.353 645.055 100.358 645.034 100.345 645.075 100.604 645.21 100.604 645.21 100.611 645.189"></polygon>
            <polygon class="cls-31" points="99.818 643.423 99.842 643.432 99.973 643.595 100.148 643.768 100.317 643.965 100.477 644.184 100.611 644.415 100.688 644.677 100.689 644.956 100.604 645.21 100.345 645.075 100.401 644.907 100.387 644.739 100.336 644.536 100.211 644.353 100.073 644.143 99.918 643.976 99.742 643.796 99.608 643.636 99.629 643.644 99.818 643.423 99.818 643.423"></polygon>
            <polygon class="cls-31" points="97.24 642.678 97.217 642.672 97.589 642.678 97.938 642.678 98.27 642.743 98.584 642.777 98.91 642.862 99.209 643.01 99.524 643.186 99.818 643.423 99.629 643.644 99.341 643.452 99.067 643.292 98.809 643.157 98.528 643.087 98.221 643.03 97.905 642.997 97.583 642.981 97.252 642.987 97.26 642.967 97.209 642.694 97.209 642.694 97.24 642.678"></polygon>
            <polygon class="cls-31" points="69.872 644.116 69.992 644.04 97.209 642.694 97.26 642.967 70.031 644.333 70.152 644.257 69.872 644.116 69.872 644.116"></polygon>
            <polygon class="cls-31" points="69.225 645.073 68.932 644.975 68.953 644.769 69.007 644.602 69.092 644.419 69.205 644.291 69.352 644.201 69.541 644.123 69.75 644.053 69.992 644.04 70.031 644.333 69.807 644.376 69.605 644.424 69.507 644.439 69.41 644.523 69.36 644.602 69.281 644.692 69.239 644.819 69.247 645.008 68.953 644.91 69.225 645.073 69.225 645.073"></polygon>
            <g>
              <path class="cls-1" d="M69.992,644.047l.039,.286-.039-.286Z"></path>
              <g>
                <polygon class="cls-1" points="69.247 645.008 69.281 644.834 69.366 644.649 69.436 644.511 69.584 644.419 69.758 644.382 70.004 644.348 70.031 644.333 97.26 642.967 97.713 643.002 98.093 642.987 98.453 643.038 98.781 643.101 99.083 643.249 99.354 643.411 99.608 643.636 99.897 643.965 100.148 644.262 100.333 644.556 100.422 644.772 100.422 644.915 100.358 645.034 100.182 645.14 99.856 645.216 99.392 645.272 71.413 646.717 71.391 646.709 71 646.696 70.615 646.59 70.272 646.429 69.974 646.26 69.732 646.013 69.555 645.768 69.401 645.53 69.281 645.324 69.26 645.178 69.247 645.008"></polygon>
                <g>
                  <path class="cls-1" d="M69.281,644.834l-.034,.173,.014,.17,.021,.146,.12,.206,.154,.238,.177,.245,.242,.247,.298,.169,.343,.161,.386,.106,.391,.013,.021,.008,27.979-1.445,.464-.056,.326-.076,.176-.106,.064-.119v-.142l-.09-.216-.185-.294-.251-.296-.289-.33-.254-.225-.271-.162-.302-.148-.328-.063-.359-.051-.38,.015-.453-.035-27.229,1.367-.026,.014-.246,.034-.174,.037-.148,.092-.07,.138-.087,.185Zm.386-.177l27.228-1.367,.014-.042,.366,.028h.348l.332,.064,.315,.034,.322,.085,.301,.148,.295,.168,.314,.246,.118,.135,.106,.104,.099,.127,.085,.099,.117,.135,.093,.147,.077,.119,.078,.119,.006,.049-.279,.07,.005,.05-.069-.142-.075-.118-.107-.104-.077-.121-.084-.098-.099-.126-.104-.106-.126-.111,.008-.008-.248-.189-.268-.184-.266-.112-.278-.071-.31-.055-.316-.036-.343-.021-.329,.006-27.221,1.346-.028-.268Z"></path>
                  <g>
                    <path class="cls-1" d="M69.281,644.834l-.034,.173,.014,.17,.021,.146,.12,.206,.154,.238,.177,.245,.242,.247,.298,.169,.343,.161,.386,.106,.391,.013,.021,.008,27.979-1.445,.464-.056,.326-.076,.176-.106,.064-.119v-.142l-.09-.216-.185-.294-.251-.296-.289-.33-.254-.225-.271-.162-.302-.148-.328-.063-.359-.051-.38,.015-.453-.035-27.229,1.367-.026,.014-.246,.034-.174,.037-.148,.092-.07,.138-.087,.185Z"></path>
                    <g>
                      <polygon class="cls-1" points="69.366 644.649 69.436 644.511 69.584 644.419 69.758 644.382 69.919 644.36 69.696 644.784 96.92 643.416 97.275 643.417 97.597 643.432 97.925 643.494 98.242 643.53 98.543 643.608 98.831 643.727 99.118 643.917 99.4 644.127 99.496 644.254 99.602 644.358 99.701 644.485 99.805 644.591 99.881 644.71 99.981 644.837 100.058 644.956 100.148 645.104 100.16 645.145 99.856 645.216 99.392 645.272 71.413 646.717 71.391 646.709 71 646.696 70.615 646.59 70.272 646.429 69.974 646.26 69.732 646.013 69.555 645.768 69.401 645.53 69.281 645.324 69.26 645.178 69.247 645.008 69.281 644.834 69.366 644.649"></polygon>
                      <polygon class="cls-31" points="100.058 644.956 99.981 644.837 99.881 644.71 99.805 644.591 99.701 644.485 99.602 644.358 99.496 644.254 99.4 644.127 99.118 643.917 98.831 643.727 98.543 643.608 98.242 643.53 97.925 643.494 97.597 643.432 97.275 643.417 96.92 643.416 69.696 644.784 69.919 644.36 70.004 644.348 70.031 644.333 97.26 642.967 97.713 643.002 98.093 642.987 98.453 643.038 98.781 643.101 99.083 643.249 99.354 643.411 99.608 643.636 99.897 643.965 100.148 644.262 100.333 644.556 100.422 644.772 100.422 644.915 100.358 645.034 100.182 645.14 100.16 645.145 100.148 645.104 100.058 644.956"></polygon>
                      <g>
                        <polygon class="cls-1" points="69.294 644.804 69.317 644.798 69.456 644.798 69.696 644.784 69.922 644.358 70.004 644.348 70.031 644.333 97.26 642.967 97.713 643.002 98.093 642.987 98.453 643.038 98.781 643.101 99.083 643.249 99.354 643.411 99.608 643.636 99.897 643.965 100.148 644.262 100.333 644.556 100.422 644.772 100.422 644.915 100.358 645.034 100.182 645.14 100.16 645.145 99.856 645.216 99.392 645.272 71.413 646.717 71.391 646.709 71 646.696 70.615 646.59 70.272 646.429 69.974 646.26 69.732 646.013 69.555 645.768 69.401 645.53 69.281 645.324 69.26 645.178 69.247 645.008 69.281 644.834 69.294 644.804"></polygon>
                        <path class="cls-31" d="M68.932,644.975l.028,.267,.056,.182,.076,.26,.183,.293,.224,.239,.286,.26,.345,.232,.385,.176,.408,.111h.49l27.971-1.422,.532-.055,.379-.084,.274-.19,.153-.253-.005-.258-.106-.319-.201-.301-.282-.354-.285-.329-.311-.267-.33-.205-.32-.153-.354-.071-.419-.071h-.423l-.477,.029-27.218,1.346v.007l-.29,.013-.292,.111-.197,.168-.135,.192-.092,.202-.053,.244Zm.315,.033l.034-.173,.014-.031,.022-.005h.139l.24-.014,.227-.426,.082-.011,.026-.014,27.229-1.367,.453,.035,.38-.015,.359,.051,.328,.063,.302,.148,.271,.162,.254,.225,.289,.33,.251,.296,.185,.294,.09,.216v.142l-.064,.119-.176,.106-.022,.005-.304,.071-.464,.056-27.979,1.446-.021-.008-.391-.013-.386-.106-.343-.161-.298-.169-.242-.247-.177-.245-.154-.238-.12-.206-.021-.146-.013-.17Z"></path>
                      </g>
                    </g>
                  </g>
                </g>
              </g>
            </g>
          </g>
        </g>
      </g>
      <g class="cls-26" transform="matrix(0.9979 0 0 1 555.3457 109.9795)">
        
        
        
        
        
        
        
        
      </g>
      <g>
        <path class="cls-32" d="M423.236,341.267c0,.694-.312,1.371-.943,2.031l-.098,.096-5.501,5.81c-1.168,1.229-2.164,2.18-2.985,2.854-.819,.671-1.4,1.004-1.741,1.004-.354,0-.798-.163-1.327-.499-.525-.338-.866-.685-1.02-1.041-.132-.296-.254-.925-.372-1.89-.114-.967-.175-2.008-.175-3.131,0-.612,.256-1.178,.767-1.698,.513-.519,1.075-.782,1.693-.782,.584,0,.936,.539,1.049,1.614,.011,.127,.021,.217,.026,.277,.096,.827,.207,1.403,.33,1.728,.125,.331,.294,.492,.508,.492,.087,0,.256-.098,.5-.288,.24-.195,.533-.46,.869-.787l5.65-5.612c.477-.479,.902-.835,1.277-1.081,.372-.243,.689-.364,.951-.364,.195,0,.335,.074,.417,.225,.082,.146,.124,.398,.124,.748v.294h0Z"></path>
        <g class="cls-26" transform="matrix(0.9979 0 0 1 425.4775 353.3184)">
          
          
          
          
          
        </g>
      </g>
      <path class="cls-32" d="M553.27,101.837c0,.513-.23,1.015-.697,1.501l-.072,.074-4.064,4.291c-.863,.909-1.6,1.613-2.209,2.109-.605,.497-1.035,.745-1.285,.745-.264,0-.588-.124-.979-.371-.391-.249-.645-.505-.758-.77-.098-.22-.188-.686-.271-1.397-.086-.713-.131-1.482-.131-2.314,0-.451,.189-.871,.568-1.255,.377-.384,.793-.577,1.248-.577,.436,0,.693,.398,.777,1.191,.008,.094,.016,.162,.018,.206,.072,.612,.152,1.036,.244,1.278,.094,.244,.217,.363,.375,.363,.064,0,.189-.07,.369-.215,.178-.143,.395-.336,.643-.583l4.18-4.147c.352-.35,.664-.615,.941-.797,.275-.18,.512-.271,.703-.271,.146,0,.248,.056,.309,.165,.062,.111,.092,.295,.092,.555v.219h-.001Z"></path>
      <g>
        <g class="cls-26" transform="matrix(0.9979 0 0 1 548.3633 527.0254)">
          
          
          
          
          
          
          
          
          
          
        </g>
        <g>
          <line class="cls-13" x1="547.715" y1="527.86" x2="550.215" y2="527.86"></line>
          <line class="cls-8" x1="555.376" y1="527.86" x2="635.376" y2="527.86"></line>
          <line class="cls-13" x1="637.957" y1="527.86" x2="640.457" y2="527.86"></line>
        </g>
        <path class="cls-32" d="M549.337,516.377c0,.513-.23,1.015-.697,1.501l-.072,.074-4.064,4.291c-.863,.909-1.6,1.613-2.209,2.109-.605,.497-1.035,.745-1.285,.745-.264,0-.588-.124-.979-.371-.391-.249-.645-.505-.758-.77-.098-.22-.188-.686-.271-1.397-.086-.713-.131-1.482-.131-2.314,0-.451,.189-.871,.568-1.255,.377-.384,.793-.577,1.248-.577,.436,0,.693,.398,.777,1.191,.008,.094,.016,.162,.018,.206,.072,.612,.152,1.036,.244,1.278,.094,.244,.217,.363,.375,.363,.064,0,.189-.07,.369-.215,.178-.143,.395-.336,.643-.583l4.18-4.147c.352-.35,.664-.615,.941-.797,.275-.18,.512-.271,.703-.271,.146,0,.248,.056,.309,.165,.062,.111,.092,.295,.092,.555v.219h-.001Z"></path>
        <path class="cls-32" d="M552.581,589.636c0,.514-.232,1.016-.695,1.504l-.074,.071-4.066,4.292c-.863,.91-1.598,1.613-2.205,2.109-.609,.498-1.037,.744-1.285,.744-.264,0-.592-.123-.982-.373-.391-.246-.643-.503-.756-.766-.098-.221-.189-.688-.273-1.398-.086-.712-.129-1.482-.129-2.314,0-.451,.188-.87,.566-1.256,.375-.384,.793-.575,1.25-.575,.434,0,.691,.396,.777,1.192,.008,.092,.014,.161,.02,.205,.068,.609,.15,1.036,.242,1.277,.094,.242,.217,.363,.375,.363,.066,0,.191-.072,.369-.213,.18-.145,.393-.339,.645-.585l4.178-4.146c.35-.353,.666-.619,.941-.799,.275-.18,.51-.271,.701-.271,.146,0,.248,.057,.311,.168,.062,.108,.092,.293,.092,.551v.22h-.002Z"></path>
        <line class="cls-16" x1="548.85" y1="602.972" x2="713.752" y2="602.972"></line>
      </g>
    </g>
  </g>
  <g id="Trim_Line" data-name="Trim Line">
    <polygon class="cls-12" points="13.168 496.092 59.967 496.092 59.967 500.344 214.712 502.503 150.416 564.606 150.415 649.33 203.259 649.33 207.511 653.582 214.711 653.582 218.963 702.761 645.371 702.761 649.623 653.582 656.823 653.582 661.075 649.33 713.919 649.33 713.918 564.606 649.622 502.503 804.367 500.344 804.367 496.092 851.166 496.092 851.166 223.908 804.367 223.908 804.367 219.656 649.622 217.497 713.918 155.394 713.919 70.67 661.075 70.67 656.823 66.418 649.623 66.418 645.371 17.239 218.963 17.239 214.711 66.418 207.511 66.418 203.259 70.67 150.415 70.67 150.416 155.394 214.712 217.497 59.967 219.656 59.967 223.908 13.168 223.908 13.168 496.092"></polygon>
    <polygon class="cls-12" points="13.001 496.092 59.8 496.092 59.8 500.344 214.545 502.503 150.249 564.606 150.248 649.33 203.092 649.33 207.344 653.582 214.544 653.582 218.796 702.761 645.204 702.761 649.456 653.582 656.656 653.582 660.908 649.33 713.752 649.33 713.751 564.606 649.455 502.503 804.2 500.344 804.2 496.092 850.999 496.092 850.999 223.908 804.2 223.908 804.2 219.656 649.455 217.497 713.751 155.394 713.752 70.67 660.908 70.67 656.656 66.418 649.456 66.418 645.204 17.239 218.796 17.239 214.544 66.418 207.344 66.418 203.092 70.67 150.248 70.67 150.249 155.394 214.545 217.497 59.8 219.656 59.8 223.908 13.001 223.908 13.001 496.092"></polygon>
  </g>
</svg>