<svg xmlns="http://www.w3.org/2000/svg" version="1.1" viewBox="0 0 1125 1725" width="1125" height="1725"><g transform="translate(0, 766.8717801946193) scale(6.439610761305095)">
  <defs>
    <style>
      .cls-1 {
        fill: red;
      }

      .cls-1, .cls-2, .cls-3, .cls-4, .cls-5, .cls-6, .cls-7, .cls-8, .cls-9 {
        font-family: Arial-BoldMT, Arial;
        font-weight: 700;
      }

      .cls-1, .cls-3, .cls-5, .cls-6, .cls-7, .cls-8, .cls-9 {
        font-size: 6px;
      }

      .cls-10 {
        stroke-width: .5px;
      }

      .cls-10, .cls-11, .cls-12, .cls-13, .cls-14, .cls-15, .cls-16, .cls-17, .cls-18, .cls-19 {
        fill: none;
      }

      .cls-10, .cls-18 {
        stroke: red;
      }

      .cls-2 {
        fill: #10ab4b;
      }

      .cls-2, .cls-20, .cls-21, .cls-22 {
        font-size: 7px;
      }

      .cls-11 {
        stroke-dasharray: 0 0 5 5;
      }

      .cls-11, .cls-12, .cls-14, .cls-16, .cls-19 {
        stroke-miterlimit: 10;
      }

      .cls-11, .cls-14, .cls-19 {
        stroke: #26aae1;
      }

      .cls-12 {
        stroke: #ec1c24;
      }

      .cls-23 {
        fill: #4c4849;
      }

      .cls-23, .cls-24, .cls-25, .cls-26, .cls-27, .cls-28, .cls-29, .cls-30, .cls-31, .cls-32, .cls-33 {
        stroke-width: 0px;
      }

      .cls-13 {
        stroke: #2ba3dc;
        stroke-dasharray: 0 5;
      }

      .cls-3 {
        fill: #6f6f6f;
      }

      .cls-24 {
        fill: #e7242c;
      }

      .cls-20, .cls-4, .cls-21, .cls-6, .cls-33 {
        fill: #231f20;
      }

      .cls-20, .cls-21, .cls-22 {
        font-family: Arial-Black, 'Arial Black';
        font-weight: 800;
      }

      .cls-20, .cls-28 {
        isolation: isolate;
      }

      .cls-25 {
        fill: #e6e5e5;
      }

      .cls-14 {
        stroke-dasharray: 0 0 5.1 5.1;
      }

      .cls-15 {
        stroke: #f9a61c;
      }

      .cls-16 {
        stroke: #b9529f;
      }

      .cls-26, .cls-32 {
        fill: #000;
      }

      .cls-34 {
        font-size: 7.8px;
      }

      .cls-27, .cls-9 {
        fill: #f9a61c;
      }

      .cls-17 {
        stroke: #9b9b9b;
      }

      .cls-28 {
        opacity: .2;
      }

      .cls-28, .cls-7 {
        fill: #b9529f;
      }

      .cls-5 {
        fill: #2ca1da;
      }

      .cls-29 {
        fill: #b6d233;
      }

      .cls-29, .cls-30, .cls-32 {
        fill-rule: evenodd;
      }

      .cls-35 {
        opacity: .5;
      }

      .cls-30, .cls-31 {
        fill: #fff;
      }

      .cls-22 {
        fill: #221f1f;
      }

      .cls-8 {
        fill: #ed2224;
      }

      .cls-36 {
        font-size: 5.5px;
        letter-spacing: 0em;
      }
    </style>
  </defs>
  <g id="Guide_lines" data-name="Guide lines">
    <g>
      <g class="cls-35">
        <path class="cls-33" d="M270,414H0S0,0,0,0h270s0,414,0,414ZM260.9,9H17.7c-5,0-9,4-9,9v378c0,5,4,9,9,9h234.3c5,0,9-4,9-9V9.1c0,0,0-.1-.1-.1Z"/>
      </g>
      <path class="cls-28" d="M251.9,405H18.1c-5,0-9.1-4.1-9.1-9.1V18.1c0-5,4.1-9.1,9.1-9.1h242.8c0,0,.1,0,.1.1v386.8c0,5-4.1,9.1-9.1,9.1ZM224.9,44.8H45.1s0,0,0,0v323.8s0,0,0,0h179.8s0,0,0,0V44.9s0,0,0,0Z"/>
      <g id="Safe_Zone" data-name="Safe Zone">
        <g>
          <polyline class="cls-19" points="20.5 396 18 396 18 393.5"/>
          <line class="cls-11" x1="18" y1="388.5" x2="18" y2="23"/>
          <polyline class="cls-19" points="18 20.5 18 18 20.5 18"/>
          <line class="cls-14" x1="25.6" y1="18" x2="247" y2="18"/>
          <polyline class="cls-19" points="249.5 18 252 18 252 20.5"/>
          <line class="cls-11" x1="252" y1="25.5" x2="252" y2="391"/>
          <polyline class="cls-19" points="252 393.5 252 396 249.5 396"/>
          <line class="cls-14" x1="244.4" y1="396" x2="23" y2="396"/>
        </g>
      </g>
      <g id="clipping" data-name="Trim Line">
        <path class="cls-12" d="M252,405H18c-5,0-9-4-9-9V18c0-5,4-9,9-9h243s0,0,0,0v387c0,5-4,9-9,9Z"/>
      </g>
    </g>
  </g>
  <g id="Notes">
    <g>
      <rect class="cls-27" x="243" y="180" width="27" height="54.6"/>
      <g>
        <line class="cls-18" x1="51.8" y1="115.2" x2="261" y2="115.2"/>
        <path class="cls-24" d="M56.9,107.3c0,.4-.2.8-.5,1.1h0c0,0-3,3.3-3,3.3-.6.7-1.2,1.2-1.6,1.6-.5.4-.8.5-1,.5s-.4,0-.7-.3c-.3-.2-.5-.4-.6-.6,0-.2-.1-.5-.2-1,0-.5,0-1.1,0-1.7s.1-.7.4-.9c.3-.3.6-.4.9-.4s.5.3.6.9c0,0,0,.1,0,.2,0,.5.1.8.2,1,0,.2.2.3.3.3s.1,0,.3-.2c.1-.1.3-.3.5-.4l3.1-3.1c.3-.3.5-.5.7-.6.2-.1.4-.2.5-.2s.2,0,.2.1c0,0,0,.2,0,.4v.2Z"/>
        
      </g>
      <g>
        <line class="cls-17" x1="51.8" y1="94.7" x2="266.5" y2="94.7"/>
        <path class="cls-24" d="M56.9,86.8c0,.4-.2.8-.5,1.1h0c0,0-3,3.3-3,3.3-.6.7-1.2,1.2-1.6,1.6-.5.4-.8.5-1,.5s-.4,0-.7-.3c-.3-.2-.5-.4-.6-.6,0-.2-.1-.5-.2-1,0-.5,0-1.1,0-1.7s.1-.7.4-.9c.3-.3.6-.4.9-.4s.5.3.6.9c0,0,0,.1,0,.2,0,.5.1.8.2,1,0,.2.2.3.3.3s.1,0,.3-.2c.1-.1.3-.3.5-.4l3.1-3.1c.3-.3.5-.5.7-.6.2-.1.4-.2.5-.2s.2,0,.2.1c0,0,0,.2,0,.4v.2Z"/>
        
      </g>
      <g>
        <g>
          <line class="cls-13" x1="252" y1="136.9" x2="249.6" y2="136.9"/>
          <line class="cls-13" x1="244.8" y1="136.9" x2="56.7" y2="136.9"/>
          <line class="cls-13" x1="54.3" y1="136.9" x2="51.8" y2="136.9"/>
        </g>
        
        <path class="cls-24" d="M56.9,129.9c0,.4-.2.8-.5,1.1h0c0,0-3,3.3-3,3.3-.6.7-1.2,1.2-1.6,1.6-.5.4-.8.5-1,.5s-.4,0-.7-.3c-.3-.2-.5-.4-.6-.6,0-.2-.1-.5-.2-1,0-.5,0-1.1,0-1.7s.1-.7.4-.9c.3-.3.6-.4.9-.4s.5.3.6.9c0,0,0,.1,0,.2,0,.5.1.8.2,1,0,.2.2.3.3.3s.1,0,.3-.2c.1-.1.3-.3.5-.4l3.1-3.1c.3-.3.5-.5.7-.6.2-.1.4-.2.5-.2s.2,0,.2.1c0,0,0,.2,0,.4v.2Z"/>
      </g>
      <g>
        
        
      </g>
      <g>
        <rect class="cls-25" x="48" y="48.1" width="174.7" height="29.7"/>
        
        <g>
          <path class="cls-32" d="M78.9,62.9c0,7.4-6,13.4-13.5,13.4s-13.5-6-13.5-13.4,6-13.4,13.5-13.4,13.5,6,13.5,13.4"/>
          <path class="cls-29" d="M77.7,63c0,6.7-5.5,12.2-12.2,12.2s-12.2-5.4-12.2-12.2,5.5-12.2,12.2-12.2,12.2,5.4,12.2,12.2"/>
          <path class="cls-26" d="M62.8,60.4c-.2,1.5-.3,2.7-.4,3.6h-.6s0,0,0,0c0,0,0-.2,0-.3,0-.1,0-.2,0-.2-.1,0-.3.1-.4.3-.1.2-.2.3-.4.3,0,0-.1,0-.2,0-.1,0-.2,0-.4,0-.1,0-.3,0-.4,0,0-.2-.2-.4-.6-.5,0,0,0-.2-.1-.3,0-.1-.1-.3-.1-.3,0,0,0-.1,0-.2,0,0,0-.2-.2-.4,0-.2-.1-.4-.1-.5,0-.1,0-.2,0-.3,0-.6,0-1.2,0-1.7,0-.7.1-1.4.3-2,0,0,0-.2,0-.3,0-.5.2-.8.5-1h0c.3-.5.7-.8,1.3-1,.3,0,.6.1.9.2.3.1.6.3.7.6.1,0,.2.2.2.4,0,.2,0,.3,0,.4h0c0,.5,0,.8,0,.9,0,.3,0,.5-.2.6,0,0-.2,0-.4-.1,0,0-.1,0-.2,0,0,0,0,0-.2,0,0,0-.1,0-.2,0,0,0,0,0-.1,0,0-.6,0-1,0-1.3,0,0-.1-.1-.2-.3,0-.1-.1-.2-.2-.2,0,0,0,.1,0,.1h-.2c-.2.1-.3.5-.4,1,0,.6-.1,1-.2,1.1,0,0,.1.2.1.4,0,0,0,.1,0,.3,0,.1,0,.2,0,.3,0,0,0,.1,0,.2h-.1c0,.4,0,.7,0,1.1,0,.3,0,.7,0,1,0,0,0,0-.2,0,0,0-.1,0-.2,0,0,0,0,0,.1,0,.2,0,.3.1.4.4,0,.2.2.3.2.3,0,0,.2,0,.3-.2.2-.2.3-.6.3-1,0-.2,0-.4,0-.7,0,0,0,.1,0,.2-.1,0-.2,0-.2,0,0,0,0,0,0-.1,0,0,0-.2,0-.2,0,0,.1,0,.1-.1,0,0,0,0,0-.1,0,0,0-.1,0-.1,0,0,0,0,0,0v-.4c.2,0,.6,0,1.1,0,0,0,0,0,0,.1,0,0,.1,0,.2,0,0,0,.1,0,.2,0,0,0,.2,0,.2,0"/>
          <path class="cls-26" d="M67,64.3c-.1,0-.2,0-.3,0-.1,0-.3,0-.4,0-.2,0-.3,0-.4,0,0-.2-.1-.4-.2-.7,0-.4,0-.6-.1-.7,0,0,0,0,0-.1,0,0,0-.2-.2-.2-.1,0-.2-.1-.2-.2,0,0,0-.1.2-.2,0,0,0-.1,0-.3,0-.1,0-.2-.1-.3,0,0-.2.1-.5.2-.2,0-.3,0-.4.1,0,.6,0,1-.3,1.2-.1,0-.2,0-.2.1,0,.1-.1.2-.2.2h0c0,.1-.2.2-.3.1-.2,0-.3,0-.3,0v-.2c0,0,.7-6.1.7-6.1,0-.4,0-.6,0-.8,0-.3,0-.6.2-.6.1,0,.2.1.4.1.1,0,.3,0,.6,0,.3,0,.5,0,.6,0,.4,0,.5.3.5.8,0,.4,0,1,.2,1.7.2.7.3,1.3.3,1.7,0,.1,0,.3,0,.5-.2,0-.4.1-.6.2-.2,0-.4,0-.7,0,0-.6-.2-1.3-.2-1.8,0-.7-.2-1.2-.3-1.7l-.4,3.2c0,.3,0,.4.4.4,0,0,.2,0,.3,0,0,0,.2,0,.3.2,0,.2,0,.4.1.4.1,0,.3-.2.5-.2.2,0,.3-.1.5-.2,0,.1.2.3.2.6,0,.4,0,.6,0,.6,0,.1,0,.5.2.9,0,.4.1.7.1.9,0,.1,0,.2,0,.3"/>
          <path class="cls-26" d="M72.3,58.9s0,.2,0,.4c0,.2,0,.3,0,.4,0,.1,0,.4,0,.6,0,0,0,.2,0,.3,0,.1,0,.2,0,.3,0,.5,0,.8-.2,1,0,.1,0,.2,0,.4,0,.4-.1.9-.4,1.5,0,0-.1,0-.2,0,0,0-.2,0-.2-.2,0-.1,0-.2-.1-.3,0-.6,0-1.4,0-2.5h0c0-.3,0-.5,0-.7,0-.2,0-.4,0-.8,0-.3,0-.6,0-.7,0-.1,0-.2,0-.3-.3.6-.4,1.7-.6,3.2v.2c-.1,0-.2.1-.3.1,0,0,0,0,0,0s0,0-.1,0c0,0-.1,0-.1,0h-.2c0,.2.2.2.4.2.2,0,.3,0,.3.2,0,.2,0,.4-.1.6,0,.3-.1.4-.1.6,0,0,0,.2,0,.3h-.8c0,0-.1-.3-.2-.6,0-.4,0-.6-.2-.8,0,0,0-.1,0-.2,0,0,0-.1,0-.2,0-.1,0-.2,0-.2,0,0,0-.3,0-.6,0-.3,0-.5,0-.6,0,0,0-.1,0-.2,0,0,0-.1,0-.2,0-.1,0-.2,0-.2s0,0,0,0c0,0,0-.2,0-.3,0-.2,0-.3,0-.3-.1.3-.2.7-.2,1.2,0,.7,0,1.1,0,1.2h0c0,0,0,.1,0,.1,0,.3,0,.6,0,1,0,.8,0,1.1,0,1.1-.1,0-.3.1-.4.1-.2,0-.4,0-.5,0,0-.2-.1-.4-.1-.6,0-.2,0-.5.1-.7-.1-.2-.2-.5-.1-.8,0,0,0-.2,0-.5,0-.2,0-.3,0-.4,0,0,.1,0,.1-.1s0,0,0-.2c0,0,0-.1,0-.2,0,0,0,0,0-.1l-.2-3.7c.1,0,.4-.1.7-.1.4,0,.6,0,.7,0,0,0,0,0,0,0,0,0,0,0,.1,0,0,0,0,0,0,0,0,0,0,0,0,0l.2.2c0,.3.1.8.2,1.5,0,.7.2,1.2.3,1.5.2-.7.3-1.2.5-1.7l.2-1.8h1.8c0,0,0,.6,0,.9,0,.3,0,.5,0,.6,0,.2,0,.4,0,.5,0,0,0,.2,0,.3,0,.1,0,.2,0,.3"/>
          <path class="cls-26" d="M75.9,62.8h0c0,0,0,.2,0,.3,0,0,0,.2,0,.4,0,.2,0,.3,0,.4,0,0-.3,0-.7,0-.3,0-.5,0-.7,0l-.2-.2c0,0,0,.1,0,.1,0,0-.2,0-.5,0-.2,0-.4,0-.5,0-.1.1-.3.1-.4,0,0,0,0-.1,0-.2,0-.1,0-.2,0-.2,0-.2,0-.6,0-1.1,0-.5,0-.8,0-1.1,0-.3,0-.7,0-1,0,0,.2-.1.3-.1.1,0,.3,0,.4.2.2.2.4.2.4.2h0c0,0,0,0,.1-.3,0-.1,0-.2.2-.3h0c0,0,.1,0,.3-.1.1,0,.2-.3.3-.3,0,0,.2,0,.2.1.1,0,.2.3.2.5,0,.1,0,.3.1.4-.3,0-.6,0-.8,0,0,0-.1,0-.2,0,0,0-.2,0-.2,0,0,.1,0,.4,0,.7,0,.3,0,.6,0,.7,0,.3,0,.5,0,.8,0,0,.3,0,.9,0,.4,0,.7,0,.9,0M75.9,57.4c0,0-.1,0-.2,0-.2,0-.4,0-.7,0-.4,0-.6,0-.6,0-.1.2-.2.4-.2.7,0,.6,0,.9,0,.8.1,0,.2.2.2.3,0,.2,0,.3,0,.4,0,0,0,0,0,.2,0,0-.2,0-.3-.2-.1-.1-.2.3-.2.2v.2c0,0-.1,0-.1,0,0,0-.2,0-.3,0-.1,0-.2-.1-.3-.2,0-.1,0-.2,0-.2v-.2c-.1,0-.2.1-.2.1,0-.8,0-2.3,0-3.1.3,0,.6,0,1,0,.2,0,.6,0,1,0s.8,0,1,0c0,0,.1.2.1.3,0,0,0,.2,0,.4,0,.2,0,.3,0,.4"/>
          <path class="cls-26" d="M63.1,69.7h0s0,.2,0,.5c0,.2,0,.4-.1.5h0c0,.2-.2.3-.4.3,0,0-.2.1-.3.1,0,0-.3,0-.6,0-.2,0-.2-.1-.2-.2,0,0-.1-.1-.1-.2,0,0-.2-.3-.3-.5,0-.2,0-.2-.1-.3,0,0-.1,0-.2-.2h0c0,0,0,0,0-.1,0,0,0,0,0,0,0,0,0,0,0,0,0,0,0,0,0,0,0-.2,0-.4,0-.8,0,0,0,0,0-.2,0,0,0-.2,0-.2.1-.3.4-.5.7-.6,0,0,.1,0,.3,0,.1,0,.2,0,.2,0,0,0,.2,0,.3,0,0,0,.2.1.3.2.2.2.2.4.3.6,0,0,0,.1,0,.2-.1,0-.2,0-.2.2h-.5s0-.1,0-.2c0,0,0,0,0-.2,0,0,0-.1,0-.2,0-.1,0-.2,0-.3h-.1c0,0,0,0,0,0,0,0,0,0,0,0,0,0,0,0,0,0,0,0,0,0-.1,0,0,.5,0,1,0,1.6,0,0,0,0,.1,0,0,0,0,0,0,0,0,0,0,0,0,0h0c0,0,0,.1,0,.2,0,0,0,0,0,.2,0,0,0,.1,0,.2,0,.1,0,.2,0,.2,0,0,0,.1,0,.2,0,0,0,0,.1,0,.1,0,.2,0,.3.2,0,0,0,0,0,0,0,0,0,0,0,0,0,0,0,0,0-.2,0-.1,0-.2,0-.2,0,0,0-.1,0-.2,0,0,0-.2,0-.2,0,0,0-.1,0-.2,0,0,0,0,0,0,0,0,0,0,0,0,.2,0,.5,0,.8,0"/>
          <path class="cls-26" d="M65.2,70.1h0c0,0,0,.1,0,.2,0,.1,0,.2,0,.2,0,0,0,0,0,0,0,0,0,0,0,.1,0,0,0,0,0,0h0c0,0,0,.1,0,.1,0,0-.1,0-.2,0,0,0-.2,0-.3,0,0-.5,0-.9-.2-1.3,0,0,0,0,0-.1,0,0,0-.1,0-.1h0s0,0,0,0c0,0,0,0,0,0,0,0,0,0,0,0h0c0,0-.1,0-.1.2,0,0,0,.1,0,.1,0,0,0,0,0,0,0,0,0,0,0,0,0,0,0,0,0,0,0,0,0,0,0,0,0,0,0,.2,0,.5,0,.2,0,.4,0,.6h0c0,0,0,0,0,0,0,0-.1,0-.2,0,0,0-.1,0-.2,0-.2,0-.3,0-.3,0v-1.9c0,0-.1-.2-.1-.4v-.4c0-.2,0-.3,0-.4,0,0,0,0,.2-.1,0,0,.1,0,.3,0,0,0,.1,0,.2,0,0,0,0,0,.1,0,0,0,0,0,.1,0,.2,0,.3,0,.3-.1,0,0,.2,0,.2,0,0,0,.2,0,.2,0,.2.1.3.3.3.5,0,0,0,.3,0,.6l-.3.3c0,0,.1.3.2.6,0,.3.2.5.3.6M64.6,68h0s0,0,0-.2c0,0,0-.2,0-.2,0,0,0,0,0,.2,0,.1,0,0-.1.1-.1,0-.1,0-.1,0,0-.2,0-.1,0-.1h0s0,0,0,0c0,0,0,0,0,0,0,0,0,0,0,0,0,0,0,0,0,0,0,0,0,0,0,0,0,0,0,.1,0,.2,0,0,0,.1,0,.3,0,.1,0,.2,0,.3,0,0,0,0,.1,0,.1,0,.2,0,.3-.2,0,0,0-.1,0-.3,0-.1,0-.2.1-.3"/>
          <path class="cls-26" d="M67.6,70.8c0,0-.1,0-.2,0,0,0-.1,0-.2,0-.1,0-.2,0-.2,0,0,0,0-.2-.1-.3,0-.2,0-.3,0-.3,0,0,0,0,0,0,0,0,0,0-.1,0,0,0-.1,0-.1,0,0,0,0,0,.1,0,0,0,0,0,0-.1,0,0,0-.1,0-.1,0,0-.1,0-.2,0-.1,0-.2,0-.2,0,0,.3,0,.7-.1.8,0,0-.1,0-.1,0,0,0,0,0-.1.1h0c0,0,0,0-.2,0-.1,0-.2,0-.2,0h0c0,0,.2-3.1.2-3.1,0-.2,0-.3,0-.3,0-.1,0-.2.1-.3,0,0,.1,0,.2,0,0,0,.2,0,.3,0,.1,0,.2,0,.3,0,.2,0,.3,0,.3.3,0,.2,0,.4.2.7.1.3.2.6.2.7,0,0,0,.2,0,.2,0,0-.2,0-.3,0-.1,0-.2,0-.4,0,0-.3-.2-.6-.2-.8,0-.3-.1-.5-.2-.7v1.4c0,.1,0,.2.1.2,0,0,0,0,.1,0,0,0,0,0,.2,0,0,.1,0,.2,0,.2,0,0,.1,0,.3-.1,0,0,.2,0,.3-.1,0,0,0,.1.1.2,0,.2,0,.2,0,.3,0,0,0,.2.1.4,0,.2,0,.3,0,.4,0,0,0,0,0,.1"/>
          <path class="cls-26" d="M69.3,67.4h0c0,0-.1,0-.2,0,0,0,0,0-.2,0-.1,0-.2,0-.2,0,0,0,0,0,0,0,0,0,0,0,0,0,0,0,0,0,0,0,0,0,0,0,0,0,0,0,0,0,0,0h0c0,0,0,0,0,.1,0,0,0,0,0,0,0,0,0,0,0,0,0,0,0,.2,0,.4,0,.2,0,.3.1.4,0,0,0,0,.1,0,0,0,.1,0,.1,0,0,0,.1,0,.2,0,0,0,.2,0,.2,0v.4s-.1,0-.2,0c0,0,0,.1-.1.1,0,0,0,0-.2,0,0,0,0,0,0,0-.1,0-.2.2-.1.4,0,0,0,0,0,.1,0,0,0,0,0,.1,0,0-.2,0-.3,0-.1,0-.2,0-.2,0,0,0,0,0,0,0h-.1s-.2-2-.2-2v-.4c.1,0,.3,0,.6,0,.2,0,.4,0,.7,0,0,0,0,0,0,0,0,0,0,0,0,0,0,0,0,0,0,0,0,0,0,0,0,0h0c0,0,.1,0,.1.1,0,0,0,0,0,.1,0,0,0,.1,0,.1,0,0,0,0,0,0M68.6,70.8s-.1,0-.2,0c-.1,0-.2,0-.2,0,0,0,0,0,0-.1,0,0,0-.1-.1,0,0,0,0,0,0,0h-.1s0-1,0-1c0,0,.1,0,.2,0,0,0,.2,0,.2,0,0,0,0,0,.2,0h.1c0,.3.1.8.1,1.1"/>
          <path class="cls-26" d="M71.8,67.5h0c0,0-.2,0-.4,0-.1,0-.2,0-.3,0,0,0,0,0,0,.2h0c0,0,0,0,0,0h0c0,.6,0,1,0,1,0,.2,0,.3,0,.4,0,0,0,.2,0,.3,0,0,0,.2,0,.3,0,.1,0,.6,0,.7,0,0,0,.1,0,.2,0,0-.1,0-.2,0-.1,0-.2,0-.4,0,0,0,0,0,0,0,0,0,0,0,0,0,0,0,0,0-.2,0,0-.6-.1-1.8-.3-3.1,0,0-.2,0-.3,0-.1,0-.3,0-.3,0,0,0,0,0,0-.2,0-.1,0-.4,0-.5,0,0,.2,0,.4,0,.2,0,.2,0,.2,0,0,0,.1,0,.2,0,0,0,0,0,0,0,0,0,0,.1,0,.2,0,0,0,0,0,0,0,0,0,0,.1,0,0,0,.2,0,.2,0,0,0,.2,0,.2,0,0,0,0,0,.2,0,0,0,.1-.2.1-.2,0,0,0,0,0,0,0,0,0,0,0,0,.2,0,.2,0,.3,0,0,0,.2,0,.3,0,0,0,0,.2,0,.3,0,.2,0,.2,0,.3"/>
          <path class="cls-26" d="M73.8,69.6h0s0,0,0,.1c0,0,0,0,0,.2,0,0,0,.1,0,.2,0,0-.2,0-.4,0-.1,0-.3,0-.4,0h-.1c0,0,0,0,0,0,0,0-.1,0-.3,0-.1,0-.2,0-.3,0,0,0-.1,0-.2,0,0,0,0,0,0-.1,0,0,0,0,0-.1,0-.1,0-.3,0-.5,0-.2,0-.4,0-.5,0-.2,0-.3,0-.4,0,0,0,0,.2,0,0,0,.1,0,.2,0,.1,0,.2,0,.2,0h0s0,0,0-.1c0,0,0-.1,0-.1h0s0,0,.2,0c0,0,.1-.2.2-.2,0,0,0,0,.1,0,0,0,.1.2.2.3,0,0,0,.1,0,.2-.2,0-.3,0-.5,0,0,0,0,0-.1,0,0,0,0,0-.1,0,0,0,0,.2,0,.3,0,.1,0,.2,0,.3,0,.1,0,.2,0,.3,0,0,.2,0,.5,0,.2,0,.4,0,.5,0M73.6,67.3s0,0-.1,0c0,0-.2,0-.4,0-.2,0-.3,0-.4,0,0,0,0,.1,0,.3,0,.3,0,.4,0,.4,0,0,0,0,0,.1,0,0,0,.1,0,.2,0,0,0,0,0,.1,0,0,0,0-.1,0,0,0,0,.1,0,0h0c0,.1,0,0,0,0,0,0,0,0-.2,0,0,0-.1,0-.2,0,0,0,0,0,0,0h0c0,0,0,0,0,0,0-.3-.1-.9,0-1.3.2,0,.3,0,.5,0,.1,0,.3,0,.5,0,.3,0,.5,0,.6,0,0,0,0,0,0,.1,0,0,0,0,0,.2,0,0,0,.2,0,.2"/>
          <path class="cls-26" d="M75.9,69.2h0c0,0,0,.1,0,.2,0,.1,0,.2,0,.2,0,0,0,0,0,0,0,0,0,0,0,0,0,0,0,0,0,0,0,0,0,0,0,0,0,0,0,0,0,0,0,0-.1,0-.2,0,0,0-.2,0-.3,0,0-.5,0-.9-.2-1.3,0,0,0,0,0-.1,0,0,0-.1,0-.1h0s0,0,0,0c0,0,0,0,0,0,0,0,0,0,0,0h0c0,0-.1,0-.1.2,0,0,0,.1,0,.1,0,0,0,0,0,0,0,0,0,0,0,0,0,0,0,0,0,0,0,0,0,0,0,0,0,0,0,.2,0,.5,0,.2,0,.4,0,.6h0c0,0,0,0,0,0,0,0-.1,0-.2,0,0,0-.1,0-.2,0-.2,0-.3,0-.3,0v-1.9c0,0-.1-.2-.1-.4v-.4c0-.2,0-.3,0-.4,0,0,0,0,.2-.1,0,0,.1,0,.3,0,0,0,.1,0,.2,0h.1c0,0,0,0,.1,0,.2,0,.3,0,.3-.1,0,0,.2,0,.2,0,0,0,.2,0,.2,0,.2.1.3.3.3.5,0,0,0,.3,0,.6l-.3.3c0,0,.1.3.2.6,0,.3.2.5.3.6M75.3,67.1h0s0,0,0-.2c0,0,0-.2-.1-.2,0,0,0,0,0,0,0,.1,0,.2,0,.2-.1,0-.1,0-.2-.1,0,0,0,0,0,0h0s0,0,0,0c0,0,0,0,0,0,0,0,0,0,0,0,0,0,0,0,0,0,0,0,0,0,0,0,0,0,0,.1,0,.2,0,0,0,.1,0,.3,0,.1,0,.2,0,.3,0,0,0,0,.1,0,.1,0,.2,0,.3-.2,0,0,0-.1,0-.3,0-.1,0-.2.1-.3"/>
          <path class="cls-26" d="M55.2,60.6h0c0,.2,0,.3,0,.4,0,0,0,0-.1,0,0,0,0,0,0,0,0,0,0,0,0,0,0,0,0,0,0,0,0,0,0,0,0,0,0,0,0,0,0,0,0,0,0,0,0,0,0,0,0,0,0,.1,0,0,0,0,0,.1,0,0,0,.1,0,.2,0,0,0,.1,0,.2,0,0,0,.2,0,.3,0,.1,0,.2,0,.4,0,0,0,0,0,0,0,0,0,0,0,0,0,0,0,0,0,0s0,0,0,0c0,.2,0,.3,0,.3,0,0,0,0,0,0,0,0-.1,0-.2,0,0,0,0,0,0,0h0c0,.1.1.2.1.3,0,0,0,0,0,0,0,0,0,0,0,0h0c0-.1,0,0,0,0,0,0,0,0,0,0,0,0,0,0,0,0,0,0,0,0-.1,0,0,0,0,0,0,0,0,0,0,0,0-.1,0,0,0,0,0,0,0,0,0-.3,0-.7,0-.3,0-.5,0-.7,0,0,0-.2,0-.2,0,0,0,0,0,0s0,0,0,0c0,0,0,0,0,0,0,0,0,0,0-.1,0,0,0-.1,0-.1,0,0,0,0,0-.1h.1s0-.1,0-.3c0,0,0,0,0-.1,0,0,0-.1,0-.1,0-.2,0-.4.2-.4,0,0,.1,0,.2,0h.1c0,0,0,.1,0,.1,0,0,0,.1,0,.2,0,.1,0,.2,0,.2,0,0,0,.2,0,.2,0,0,0,0,.1,0,0,0,0,0,.1,0,0,0,0,0,.1,0M54.9,61h0c0-.1,0-.1,0-.1h0Z"/>
          <path class="cls-26" d="M56.4,60.3h0c0,0,0,.2,0,.2,0,0,0,.2,0,.2,0,0,0,0-.1,0,0,0,0,0-.1,0,0,.2,0,.4,0,.7,0,.4,0,.6,0,.7,0,0,0,0-.1,0,0,0,0,0,0,.1,0,0,0,0,0,0,0,0,0,0,0,0,0,0,0,0,0,0,0,0,0,0-.1.1,0,0,0,0-.1,0,0,0-.1,0-.1,0v-1.3s0,0,0,0h0c0,0,0-.4,0-.8,0-.3,0-.6,0-.8,0,0,0,0,.3,0,.1,0,.2,0,.2,0,0,0,0,.2,0,.3,0,.1,0,.3,0,.3,0,0,0,.2,0,.3.1-.1.2-.2.4-.2M56.9,60.6c0,.1,0,.2,0,.4,0,.5,0,1,0,1.6,0,0-.1,0-.2,0,0,0-.2,0-.2,0,0,0,0-.2,0-.4,0-.3,0-.4,0-.4,0-.6,0-1.1.2-1.5.2,0,.3.1.3.3"/>
          <path class="cls-26" d="M58.5,61.3s0,0,0,.1c0,0,0,0,0,.1,0,0,0,0,0,.1,0,0,0,0,0,0s0,0,0,0c0,0,0,0,0,0,0,0,0,0,0,0l-.2-.3c0,0,0,.2,0,.2,0,0,0,0,0,.1-.1,0-.2,0-.2,0h0s0,0,0,0c0,0,0,.2,0,.3,0,.1,0,.2,0,.3,0,0,.1,0,.2,0,0,0,0,0,0,0,0,0,0-.1,0-.2,0,0,0-.1.1-.1,0,0,0,0,.2,0,0,0,.1,0,.1,0,0,0,0,0,0,.1,0,0,0,0,0,.1,0,0,0,0,0,0,0,0,0,0-.1.1,0,0,0,.1-.1.1,0,0,0,0-.1,0,0,0,0,0-.2,0,0,0-.1,0-.2,0,0,0,0-.1-.2-.2,0,0-.2-.1-.2-.2,0,0,0,0,0,0,0,0,0,0,0,0h0s0,0,0-.1c0,0,0,0,0,0,0,0,0,0,0,0,0,0,0,0,0,0v-.2c0,0,0-.1,0-.2,0-.2,0-.4,0-.6,0-.2.1-.3.2-.3,0,0,0,0,0,0,0,0,.2-.1.3-.1.1,0,.3,0,.5.1.1.2.2.4.2.7M57.9,60.8h0s0,0,0,0h0c0,.2,0,.2,0,.3,0,.2,0,.3,0,.3h.1c0,0,0,0,0-.2,0,0,0-.1,0-.2,0,0,0-.2,0-.2"/>
          <polygon class="cls-32" points="59.5 65.8 59.7 65.9 60.1 64.7 60 64.6 59.5 65.8 59.7 65.9 59.5 65.8"/>
          <polygon class="cls-32" points="59.8 65.6 59.7 65.7 59.5 65.8 59.7 65.9 59.8 65.8 59.8 65.8 59.8 65.6"/>
          <polygon class="cls-32" points="60.9 65.6 60.9 65.6 59.8 65.6 59.8 65.8 60.9 65.7 61 65.7 60.9 65.6"/>
          <polygon class="cls-32" points="61.4 64.5 61.3 64.4 60.9 65.6 61 65.7 61.5 64.5 61.4 64.4 61.4 64.5"/>
          <polygon class="cls-32" points="60.3 64.6 60.2 64.6 61.4 64.5 61.4 64.4 60.2 64.4 60.2 64.5 60.3 64.6"/>
          <polygon class="cls-32" points="60.1 64.7 60.1 64.7 60.3 64.6 60.2 64.5 60 64.6 60 64.6 60.1 64.7"/>
          <polygon class="cls-32" points="61.1 65.8 61.2 65.7 61 65.6 60.9 65.7 61.2 65.9 61.3 65.8 61.1 65.8 61.1 65.8"/>
          <polygon class="cls-32" points="61.6 64.7 61.6 64.6 61.1 65.8 61.3 65.8 61.7 64.6 61.7 64.5 61.6 64.7"/>
          <polygon class="cls-32" points="61.5 64.5 61.4 64.5 61.6 64.7 61.7 64.5 61.4 64.4 61.3 64.4 61.5 64.5"/>
          <polygon class="cls-26" points="60.1 64.7 60.1 64.7 60.2 64.5 61.3 64.5 61.3 64.4 61.4 64.5 61.5 64.5 61.5 64.5 61.7 64.6 61.7 64.6 61.7 64.7 62.2 66 61.8 67.2 61.2 65.8 61.1 65.8 61.1 65.8 61.1 65.8 60.9 65.7 60.9 65.7 60.9 65.7 59.8 65.7 59.6 65.9 60.1 64.7"/>
          <polygon class="cls-32" points="61.7 67.1 61.9 67.1 61.3 65.8 61.1 65.8 61.7 67.2 61.9 67.2 61.7 67.1 61.7 67.1"/>
          <polygon class="cls-32" points="62.2 66 62.2 65.9 61.7 67.1 61.9 67.2 62.3 66 62.3 65.9 62.2 66"/>
          <polygon class="cls-32" points="61.7 64.6 61.6 64.6 62.2 66 62.3 65.9 61.7 64.6 61.6 64.6 61.7 64.6"/>
          <polygon class="cls-30" points="61.7 64.9 61.8 65.1 61.8 65.2 61.8 65.4 61.7 65.5 61.7 65.7 61.6 65.8 61.4 65.9 61.3 66 61.2 66 61.1 66.1 61 66.1 60.9 66.1 60.8 66.1 60.7 66.1 60.7 66.1 60.6 66.1 60.5 66.1 60.4 66.1 60.3 66 60.3 66 60.2 66 60.1 65.9 60.1 65.9 60 65.8 60 65.6 60 65.5 60 65.4 60 65.2 60.1 65.1 60.2 64.9 60.3 64.8 60.5 64.7 60.5 64.7 60.6 64.7 60.7 64.6 60.8 64.6 60.9 64.6 61 64.6 61.1 64.6 61.2 64.6 61.2 64.6 61.3 64.7 61.4 64.7 61.5 64.7 61.5 64.8 61.6 64.8 61.6 64.9 61.7 64.9"/>
          <polygon class="cls-32" points="61.7 65.2 61.8 65.3 61.8 65.5 61.8 65.6 61.8 65.7 61.7 65.9 61.6 66 61.5 66.1 61.3 66.2 61.2 66.3 61.2 66.3 61.1 66.3 61 66.4 60.9 66.4 60.8 66.4 60.7 66.4 60.6 66.4 60.6 66.3 60.5 66.3 60.4 66.3 60.3 66.2 60.3 66.2 60.2 66.2 60.2 66.1 60.1 66 60 65.9 60 65.7 60 65.6 60.1 65.5 60.1 65.3 60.2 65.2 60.4 65.1 60.5 65 60.6 64.9 60.7 64.9 60.8 64.9 60.9 64.9 61 64.8 61 64.8 61.1 64.8 61.2 64.9 61.3 64.9 61.4 64.9 61.4 64.9 61.5 65 61.6 65 61.6 65.1 61.7 65.1 61.7 65.2 61.7 65.2"/>
          <polygon class="cls-30" points="61.8 65.3 61.9 65.5 61.9 65.6 61.9 65.8 61.8 65.9 61.8 66.1 61.7 66.2 61.5 66.3 61.4 66.4 61.3 66.4 61.2 66.5 61.1 66.5 61 66.5 60.9 66.5 60.9 66.5 60.8 66.5 60.7 66.5 60.6 66.5 60.5 66.5 60.4 66.4 60.4 66.4 60.3 66.4 60.2 66.3 60.2 66.3 60.1 66.2 60.1 66.1 60.1 65.9 60.1 65.8 60.1 65.6 60.2 65.5 60.3 65.3 60.4 65.2 60.6 65.1 60.7 65.1 60.7 65 60.8 65 60.9 65 61 65 61.1 65 61.2 65 61.3 65 61.3 65 61.4 65.1 61.5 65.1 61.6 65.1 61.6 65.2 61.7 65.2 61.7 65.3 61.8 65.3"/>
          <polygon class="cls-32" points="61.8 65.6 61.9 65.7 61.9 65.9 61.9 66 61.9 66.2 61.8 66.3 61.7 66.4 61.6 66.5 61.4 66.6 61.4 66.7 61.3 66.7 61.2 66.7 61.1 66.8 61 66.8 60.9 66.8 60.8 66.8 60.7 66.8 60.7 66.7 60.6 66.7 60.5 66.7 60.4 66.6 60.4 66.6 60.3 66.6 60.3 66.5 60.2 66.4 60.1 66.3 60.1 66.1 60.1 66 60.2 65.9 60.2 65.7 60.3 65.6 60.5 65.5 60.6 65.4 60.7 65.3 60.8 65.3 60.9 65.3 61 65.3 61.1 65.2 61.2 65.2 61.2 65.2 61.3 65.2 61.4 65.3 61.5 65.3 61.6 65.3 61.6 65.4 61.7 65.4 61.7 65.5 61.8 65.5 61.8 65.6 61.8 65.6"/>
          <polygon class="cls-30" points="61.9 65.7 62 65.9 62 66 62 66.2 62 66.3 61.9 66.4 61.8 66.6 61.7 66.7 61.5 66.8 61.4 66.8 61.3 66.9 61.3 66.9 61.2 66.9 61.1 66.9 61 66.9 60.9 66.9 60.8 66.9 60.7 66.9 60.7 66.9 60.6 66.8 60.5 66.8 60.5 66.8 60.4 66.7 60.3 66.6 60.3 66.6 60.2 66.4 60.2 66.3 60.2 66.2 60.3 66 60.3 65.9 60.4 65.7 60.6 65.6 60.7 65.5 60.8 65.5 60.9 65.4 61 65.4 61.1 65.4 61.1 65.4 61.2 65.4 61.3 65.4 61.4 65.4 61.5 65.4 61.6 65.5 61.6 65.5 61.7 65.5 61.8 65.6 61.8 65.6 61.9 65.7 61.9 65.7"/>
          <polygon class="cls-32" points="62 66 62.1 66.1 62.1 66.3 62.1 66.4 62 66.5 62 66.7 61.9 66.8 61.7 66.9 61.6 67 61.5 67.1 61.4 67.1 61.3 67.1 61.2 67.1 61.1 67.2 61.1 67.2 61 67.2 60.9 67.2 60.8 67.1 60.7 67.1 60.6 67.1 60.6 67 60.5 67 60.5 66.9 60.4 66.9 60.4 66.8 60.3 66.7 60.3 66.5 60.3 66.4 60.3 66.2 60.4 66.1 60.5 66 60.6 65.9 60.8 65.8 60.9 65.7 60.9 65.7 61 65.7 61.1 65.6 61.2 65.6 61.3 65.6 61.4 65.6 61.5 65.6 61.5 65.7 61.6 65.7 61.7 65.7 61.8 65.8 61.8 65.8 61.9 65.8 61.9 65.9 62 66"/>
          <polygon class="cls-32" points="54 64.1 54 64.1 53.5 65.3 53.7 65.3 54.1 64.1 54.1 64.1 54 64.1"/>
          <polygon class="cls-32" points="54 64.1 54 64.1 54 64.1 54.1 64.1 54.1 64 54.1 64 54 64.1"/>
          <polygon class="cls-32" points="53.9 64 54 64.1 54.1 64 54.1 64 53.9 64"/>
          <rect class="cls-26" x="53.9" y="63.9" width=".2" height="0" transform="translate(-15.9 17.9) rotate(-16.4)"/>
          <polygon class="cls-32" points="53.9 63.9 53.9 63.9 53.9 63.9 54.1 63.9 54.1 63.8 54.1 63.8 53.9 63.9"/>
          <polygon class="cls-32" points="53.9 63.8 53.9 63.8 53.9 63.9 54.1 63.8 54 63.8 54 63.8 53.9 63.8"/>
          <polygon class="cls-32" points="54 63.8 53.9 63.7 53.9 63.8 54 63.8 54 63.7 53.9 63.7 54 63.8 54 63.8"/>
          <rect class="cls-23" x="54" y="67.2" width=".2" height="0" transform="translate(-12 11.8) rotate(-11.2)"/>
          <polygon class="cls-32" points="54.5 66.3 54.5 66.2 54.1 67.4 54.2 67.5 54.7 66.3 54.7 66.2 54.5 66.3"/>
          <polygon class="cls-32" points="54.5 66.2 54.5 66.3 54.7 66.2 54.6 66.1 54.5 66.2 54.5 66.2"/>
          <polygon class="cls-32" points="54.5 66.1 54.5 66.2 54.6 66.1 54.6 66.1 54.5 66.1"/>
          <polygon class="cls-32" points="54.5 66 54.5 66 54.5 66.1 54.6 66.1 54.6 66 54.6 66 54.5 66"/>
          <polygon class="cls-32" points="54.6 65.9 54.4 65.9 54.5 66 54.6 66 54.6 65.9 54.5 65.9 54.6 65.9"/>
          <path class="cls-23" d="M53.5,65.1h0s0,0,0,0Z"/>
          <polygon class="cls-23" points="53.6 65.3 53.6 65.3 53.6 65.3 53.7 65.3 53.6 65.3 53.6 65.3"/>
          <polygon class="cls-26" points="53.4 65 53.5 65 53.5 64.9 54 63.7 54 63.7 54 63.8 54 63.8 54 63.9 54 64 54 64 54.1 64.1 54.1 64.1 53.7 65.3 53.6 65.3 53.6 65.3 53.6 65.3 53.6 65.3 53.7 65.3 53.6 65.3 53.6 65.4 53.6 65.3 53.5 65.3 53.5 65.3 53.5 65.3 53.6 65.2 53.5 65.2 53.5 65.1 53.4 65.1 53.5 65.1 53.4 65.1 53.4 65.1 53.4 65"/>
          <polygon class="cls-26" points="53.6 65.2 57 65.1 57.1 65.1 57.1 65.1 57.2 65.2 57.2 65.2 57.3 65.2 57.3 65.2 57.3 65.2 57.4 65.3 57.4 65.3 57.5 65.3 57.5 65.3 57.6 65.4 57.6 65.4 57.6 65.5 57.6 65.5 57.5 65.5 57.4 65.5 57.4 65.5 57.4 65.4 57.4 65.4 57.3 65.4 57.4 65.4 57.3 65.4 57.3 65.4 57.2 65.3 57.1 65.3 57 65.3 57 65.3 57 65.3 57 65.3 53.6 65.4 53.6 65.2"/>
          <polygon class="cls-26" points="57.5 65.5 57.5 65.5 57.5 65.5 57.5 65.5"/>
          <polygon class="cls-32" points="59.3 68.3 59.3 68.3 58.8 69.5 58.9 69.6 59.4 68.3 59.4 68.3 59.3 68.3"/>
          <polygon class="cls-32" points="57.9 64.3 57.9 64.3 59.3 68.3 59.4 68.3 58.1 64.3 58.1 64.3 57.9 64.3"/>
          <polygon class="cls-32" points="57.9 64.3 57.9 64.3 57.9 64.3 58.1 64.3 58 64.2 58 64.2 57.9 64.3 57.9 64.3"/>
          <polygon class="cls-32" points="57.9 64.2 57.9 64.2 57.9 64.3 58 64.2 58 64.1 58 64.1 57.9 64.2"/>
          <polygon class="cls-32" points="57.8 64.2 57.8 64.2 57.9 64.2 58 64.1 57.9 64.1 57.9 64.1 57.8 64.2"/>
          <polygon class="cls-32" points="57.7 64.2 57.7 64.2 57.8 64.2 57.9 64.1 57.8 64 57.8 64 57.7 64.2"/>
          <polygon class="cls-32" points="57.7 64.1 57.6 64.1 57.7 64.2 57.8 64 57.7 64 57.7 64 57.7 64.1 57.7 64.1"/>
          <polygon class="cls-32" points="57.6 64.1 57.6 64.1 57.7 64.1 57.7 64 57.6 64 57.6 64.1 57.6 64.1"/>
          <polygon class="cls-32" points="57.5 64.1 57.5 64.1 57.6 64.1 57.6 64 57.5 63.9 57.5 63.9 57.5 64.1"/>
          <polygon class="cls-32" points="57.4 64.1 57.4 64.1 57.5 64.1 57.5 63.9 57.4 63.9 57.4 63.9 57.4 64.1"/>
          <polygon class="cls-32" points="54.1 64.1 54 64.2 57.4 64.1 57.4 63.9 54.1 64 54 64.1 54.1 64.1 54.1 64.1"/>
          <polygon class="cls-23" points="55 67.8 55 67.8 55 67.8 55 67.8"/>
          <path class="cls-23" d="M56.8,68.3v.2s0-.2,0-.2Z"/>
          <path class="cls-26" d="M54,67.3h0c0,0,0,.2,0,.2h0c0,0,.2.2.2.2h.2c0,.1.2.2.2.2h.2c0,0,0,.1,0,.1h.2c0,0,.2.2.2.2h.2c0,0,.2.2.2.2h0s.2,0,.2,0h.2c0,0,0,0,0,0h.3s.3,0,.3,0h.3s0,0,0,0h.3s.3,0,.3,0h.4s0,0,0,0l.5-1.2h0c0-.1,0,0,0,0h0s0,0,0,0h0s0,0,0,0h0s-.3,0-.3,0h-.7s-.3,0-.3,0h-.3s-.3,0-.3,0h-.2c0,0-.2-.1-.2-.1h-.2c0,0-.2-.2-.2-.2h-.2c0,0-.2-.2-.2-.2h-.2c0-.1-.2-.2-.2-.2h-.2c0-.1-.1-.2-.1-.2h0s0,0,0,0h0c0,0,0-.2,0-.2h0s0-.1,0-.1h0s0,0,0,0h0s-.5,1.2-.5,1.2h0s0,.1,0,.1h0ZM54.1,67.1h0s0,0,0,0h0Z"/>
          <polygon class="cls-32" points="58.2 67.3 58.6 67.3 58.6 67.1 58.2 67.2 58.2 67.3"/>
          <rect class="cls-26" x="57.9" y="67.2" width=".3" height=".2" transform="translate(-1.6 1.4) rotate(-1.3)"/>
          <polygon class="cls-32" points="57.5 67.3 57.6 67.3 57.9 67.3 57.9 67.2 57.5 67.2 57.6 67.2 57.5 67.3 57.5 67.3"/>
          <polygon class="cls-32" points="57.2 67.3 57.3 67.3 57.5 67.3 57.6 67.2 57.3 67.1 57.3 67.1 57.2 67.3"/>
          <polygon class="cls-32" points="57 67.3 57.2 67.3 57.3 67.1 57 67.1 57 67.3"/>
          <polygon class="cls-32" points="56.7 67.2 56.7 67.2 57 67.3 57 67.1 56.7 67.1 56.7 67.1 56.7 67.2"/>
          <polygon class="cls-32" points="56.5 67.2 56.7 67.2 56.7 67.1 56.5 67 56.5 67.2 56.5 67.2"/>
          <polygon class="cls-32" points="56.2 67.1 56.2 67.1 56.5 67.2 56.5 67 56.3 66.9 56.3 66.9 56.2 67.1"/>
          <polygon class="cls-32" points="56 67 56 67 56.2 67.1 56.3 66.9 56 66.9 56.1 66.9 56 67 56 67"/>
          <polygon class="cls-32" points="55.8 66.9 56 67 56.1 66.9 55.8 66.8 55.8 66.9"/>
          <polygon class="cls-32" points="55.6 66.8 55.8 66.9 55.8 66.8 55.6 66.7 55.6 66.8"/>
          <polygon class="cls-32" points="55.4 66.7 55.4 66.7 55.6 66.8 55.6 66.7 55.4 66.6 55.4 66.6 55.4 66.7 55.4 66.7"/>
          <polygon class="cls-32" points="55.2 66.6 55.4 66.7 55.4 66.6 55.2 66.5 55.2 66.6 55.2 66.6"/>
          <polygon class="cls-32" points="55 66.5 55.2 66.6 55.2 66.5 55 66.4 55 66.5 55 66.5"/>
          <polygon class="cls-32" points="54.8 66.4 55 66.5 55 66.4 54.8 66.3 54.8 66.4"/>
          <polygon class="cls-32" points="54.7 66.3 54.6 66.3 54.8 66.4 54.8 66.3 54.6 66.2 54.5 66.2 54.7 66.3"/>
          <polygon class="cls-32" points="75.7 64.1 75.2 65.3 76.7 65.8 77.1 65 77.1 64.9 77.1 64.8 77.1 64.8 77.1 64.7 77 64.6 77 64.5 76.9 64.4 76.9 64.4 76.8 64.3 76.7 64.2 76.6 64.2 76.6 64.1 76.5 64.1 76.4 64.1 76.3 64 76.3 64 76.2 64 76.1 64 76 64 76 64 75.9 64 75.8 64 75.8 64 75.7 64.1"/>
          <polygon class="cls-32" points="76.7 65.8 76.8 65.7 75.3 65.2 75.2 65.4 76.7 65.9 76.8 65.8 76.7 65.8"/>
          <polygon class="cls-26" points="53.4 64.9 53.4 64.9 53.9 63.7 54 63.8 53.6 64.9 53.6 65 53.6 65 53.4 65 53.4 65 53.4 64.9"/>
          <polygon class="cls-23" points="60.8 67.8 60.8 67.8 60.8 67.8 60.8 67.8"/>
          <path class="cls-26" d="M53.5,65.2h0c0,0,0,0,0,0h.1s0,0,0,0h3.4c0-.1,0-.1,0-.1h0s0,0,0,0h0s0,0,0,0h0s0,.1,0,.1h0c0,0,0,0,0,0l1.3,4h0s0,0,0,0h.2s.1,0,.1,0h0s0,0,0,0h0s0-.1,0-.1h.1c0-.1,0-.1,0-.1h0c0,0,0-.2,0-.2h0c0,0,0-.2,0-.2h0c0-.1,0-.2,0-.2h0c0-.1,0-.2,0-.2h0c0,0,0-.2,0-.2h0c0,0,0-.2,0-.2h0c0,0,0-.1,0-.1h0c0,0,0-.1,0-.1h0s0,0,0,0h0c0,0,0,0,0,0h0c0,0,0-.1,0-.1h0c0,0,0-.1,0-.1h0s0,0,0,0h0s0,0,0,0h0s0,0,0,0h.1s.1,0,.1,0h.1s.1,0,.1,0h.1s0,0,0,0l14.6-1.1h0s0,0,0,0h0s0,0,0,0h0s0,0,0,0h0c0,0,0-.1,0-.1h0s.3-.6.3-.6h-.1c0,0,0,0,0,0h0s0,0,0,0h0c0,.1,0,.2,0,.2h0s0,0,0,0h0s0,0,0,0h0s-14.6,1.1-14.6,1.1h0s0,0,0,0h0s0,0,0,0h-.2s0,0,0,0h0s0,0,0,0h0s0,0,0,0h0s0,0,0,0h0s0,0,0,0h0s-.2.1-.2.1l-.2.2-.2.2-.2.2-.2.2v.2c-.1,0-.3.2-.3.2h-.1c0,.1,0,.2,0,.2h0s0,0,0,0h-.2s0,0,0,0h0s-1.3-4-1.3-4h0c0,0,0-.1,0-.1h0s0,0,0,0h0s0,0,0,0h0s0,0,0,0h-3.4c0,.1-.4,1.2-.4,1.2h0s-.2,0-.2,0ZM77.7,65.3h0s0,0,0,0h0Z"/>
          <polygon class="cls-32" points="77.2 65.6 77.3 65.6 77.4 65.6 77.5 65.6 77.5 65.5 77.6 65.5 77.7 65.5 77.7 65.4 77.8 65.4 77.7 65.2 77.6 65.3 77.6 65.3 77.5 65.4 77.5 65.4 77.4 65.4 77.4 65.4 77.3 65.4 77.2 65.4 77.2 65.6"/>
          <polygon class="cls-32" points="62.7 66.7 77.2 65.6 77.2 65.4 62.6 66.5 62.7 66.7"/>
          <polygon class="cls-32" points="61.2 66.9 61.3 66.9 61.4 66.9 61.5 66.8 61.6 66.8 61.7 66.8 61.8 66.8 61.8 66.8 61.9 66.7 62 66.7 62.1 66.7 62.2 66.7 62.3 66.7 62.4 66.7 62.5 66.7 62.6 66.7 62.7 66.7 62.6 66.5 62.5 66.5 62.5 66.5 62.4 66.5 62.3 66.5 62.2 66.6 62.1 66.6 62 66.6 61.9 66.6 61.8 66.6 61.7 66.6 61.6 66.6 61.5 66.7 61.4 66.7 61.3 66.7 61.2 66.8 61.2 66.8 61.2 66.9"/>
          <polygon class="cls-32" points="59.9 68.4 60 68.3 60 68.3 60.1 68.2 60.1 68.1 60.2 68 60.3 67.9 60.4 67.8 60.5 67.7 60.5 67.6 60.6 67.5 60.7 67.4 60.8 67.3 60.9 67.2 61 67.1 61.1 67 61.2 67 61.2 66.9 61.2 66.8 61.1 66.9 61 66.9 60.9 67 60.8 67.1 60.7 67.2 60.6 67.3 60.5 67.4 60.4 67.5 60.3 67.6 60.3 67.7 60.2 67.8 60.1 67.9 60 68 60 68.1 59.9 68.2 59.8 68.2 59.9 68.2 59.9 68.4"/>
          <polygon class="cls-30" points="57.1 64 57.4 64 57.5 64 54.9 63.1 54.7 63.2 57.1 64 57.1 64"/>
          <polygon class="cls-30" points="57.1 64 54.1 64.1 54 64 54 64 54 63.9 54 63.8 54 63.8 54 63.7 54 63.7 54 63.6 54.2 63.6 54.3 63.5 54.4 63.4 54.6 63.3 54.7 63.2 54.7 63.2 57.1 64 57.1 64"/>
          <polygon class="cls-31" points="55.3 65.9 57.4 65.7 58.2 66.1 58.5 66.9 58.5 67.2 58.2 67.2 57.9 67.2 57.5 67.2 57.3 67.2 57 67.2 56.7 67.1 56.5 67.1 56.2 67 56 66.9 55.8 66.9 55.6 66.8 55.4 66.7 55.2 66.6 55 66.5 54.8 66.3 54.6 66.2 54.6 66.2 54.6 66.1 54.5 66 54.5 65.9 55.3 65.9"/>
          <polygon class="cls-30" points="60.5 66.1 60.6 66.1 60.8 66.3 60.9 66.2 60.6 66 60.7 66 60.5 66.1 60.5 66.1 60.6 66.1 60.5 66.1"/>
          <polygon class="cls-30" points="58.1 66.2 58.1 66.1 58.5 67.2 58.6 67.2 58.2 66.1 58.2 66 58.2 66.1 58.2 66 58.2 66 58.1 66.2"/>
          <polygon class="cls-30" points="57.4 65.8 57.3 65.8 58.1 66.2 58.2 66 57.4 65.7 57.4 65.7 57.4 65.7 57.4 65.7 57.4 65.7 57.4 65.8"/>
          <polygon class="cls-30" points="54.6 65.9 54.5 66 57.4 65.8 57.4 65.7 54.5 65.8 54.4 65.9 54.5 65.8 54.4 65.8 54.4 65.9 54.6 65.9"/>
          <polygon class="cls-30" points="54.6 66.2 54.7 66.2 54.7 66.2 54.6 66.1 54.6 66.1 54.6 66.1 54.6 66 54.6 66 54.6 65.9 54.6 65.9 54.4 65.9 54.4 66 54.5 66 54.5 66 54.5 66.1 54.5 66.1 54.5 66.2 54.5 66.2 54.5 66.3 54.6 66.3 54.5 66.3 54.5 66.3 54.6 66.3 54.6 66.2"/>
          <polygon class="cls-30" points="58.5 67.2 58.5 67.1 58.2 67.2 57.9 67.2 57.6 67.2 57.3 67.1 57 67.1 56.7 67.1 56.5 67 56.3 66.9 56 66.9 55.8 66.8 55.6 66.7 55.4 66.6 55.2 66.5 55 66.4 54.8 66.3 54.6 66.2 54.6 66.3 54.8 66.4 55 66.5 55.2 66.6 55.4 66.7 55.6 66.8 55.8 66.9 56 67 56.2 67.1 56.5 67.2 56.7 67.2 57 67.3 57.3 67.3 57.5 67.3 57.9 67.3 58.2 67.3 58.6 67.3 58.6 67.2 58.6 67.3 58.7 67.3 58.6 67.2 58.5 67.2 58.5 67.2"/>
          <polygon class="cls-30" points="62.6 66.5 62.5 66.5 62.4 66.5 62.3 66.5 62.2 66.6 62.1 66.6 62 66.6 61.8 66.6 61.7 66.6 61.6 66.7 61.5 66.7 61.4 66.7 61.3 66.8 61.2 66.8 61.1 66.9 61 66.9 60.9 67 61 67.1 61.1 67 61.2 67 61.3 67 61.4 66.9 61.5 66.9 61.5 66.8 61.7 66.8 61.8 66.8 61.9 66.8 62 66.8 62.1 66.7 62.2 66.7 62.3 66.7 62.4 66.7 62.5 66.7 62.7 66.7 62.6 66.5"/>
          <polygon class="cls-30" points="77.2 65.4 62.6 66.5 62.7 66.7 77.2 65.6 77.2 65.4"/>
          <polygon class="cls-30" points="77.5 64.6 77.6 64.6 77.6 64.7 77.6 64.8 77.7 64.9 77.7 65 77.7 65 77.7 65.1 77.7 65.2 77.7 65.2 77.7 65.3 77.6 65.3 77.6 65.3 77.5 65.4 77.4 65.4 77.3 65.4 77.2 65.4 77.2 65.6 77.4 65.6 77.5 65.6 77.6 65.5 77.7 65.5 77.8 65.4 77.8 65.3 77.8 65.3 77.9 65.2 77.9 65.1 77.9 65 77.9 64.9 77.8 64.8 77.8 64.7 77.7 64.6 77.7 64.5 77.6 64.5 77.5 64.6"/>
          <polygon class="cls-30" points="75.8 63.7 75.9 63.7 76 63.7 76.2 63.8 76.3 63.8 76.4 63.8 76.5 63.9 76.6 63.9 76.8 64 76.9 64 77 64.1 77.1 64.2 77.2 64.2 77.3 64.3 77.4 64.4 77.4 64.5 77.5 64.6 77.6 64.5 77.5 64.4 77.5 64.3 77.4 64.2 77.3 64.1 77.2 64.1 77.1 64 77 63.9 76.8 63.8 76.7 63.8 76.6 63.7 76.5 63.7 76.3 63.6 76.2 63.6 76 63.6 75.9 63.6 75.7 63.6 75.8 63.7"/>
          <polygon class="cls-30" points="62.9 64.2 75.8 63.7 75.7 63.6 62.9 64 62.9 64.2"/>
          <polygon class="cls-30" points="60.8 63.8 60.9 63.9 61.1 63.9 61.2 64 61.3 64 61.5 64 61.6 64.1 61.7 64.1 61.8 64.1 62 64.1 62.1 64.1 62.2 64.2 62.4 64.2 62.5 64.2 62.6 64.2 62.7 64.2 62.9 64.2 62.9 64 62.7 64 62.6 64 62.5 64 62.4 64 62.3 64 62.1 64 62 64 61.9 63.9 61.7 63.9 61.6 63.9 61.5 63.9 61.4 63.8 61.2 63.8 61.1 63.8 61 63.7 60.9 63.7 60.8 63.9 60.8 63.8"/>
          <polygon class="cls-30" points="56.5 62.7 56.7 62.6 56.9 62.6 57.1 62.6 57.3 62.6 57.4 62.6 57.6 62.6 57.8 62.6 57.9 62.6 58 62.6 58.2 62.7 58.3 62.7 58.4 62.7 58.5 62.8 58.6 62.8 58.7 62.8 58.8 62.9 58.9 62.9 59 63 59.1 63.1 59.2 63.1 59.3 63.2 59.4 63.2 59.5 63.3 59.6 63.4 59.8 63.4 59.9 63.5 60 63.5 60.2 63.6 60.3 63.7 60.5 63.7 60.6 63.8 60.8 63.9 60.9 63.7 60.7 63.6 60.5 63.6 60.4 63.5 60.2 63.5 60.1 63.4 60 63.3 59.8 63.3 59.7 63.2 59.6 63.2 59.5 63.1 59.4 63 59.3 63 59.2 62.9 59.1 62.9 59 62.8 58.9 62.8 58.8 62.7 58.7 62.7 58.6 62.6 58.4 62.6 58.3 62.5 58.2 62.5 58.1 62.5 57.9 62.5 57.8 62.4 57.6 62.4 57.4 62.4 57.3 62.4 57.1 62.4 56.9 62.5 56.7 62.5 56.4 62.5 56.5 62.7 56.5 62.7"/>
          <polygon class="cls-30" points="54.1 63.7 54.2 63.6 54.3 63.5 54.5 63.5 54.6 63.4 54.8 63.3 54.9 63.2 55.1 63.1 55.2 63.1 55.3 63 55.5 62.9 55.7 62.9 55.8 62.8 56 62.8 56.1 62.7 56.3 62.7 56.5 62.7 56.4 62.5 56.3 62.5 56.1 62.6 55.9 62.6 55.8 62.7 55.6 62.7 55.4 62.8 55.3 62.9 55.1 62.9 55 63 54.8 63.1 54.7 63.2 54.5 63.2 54.4 63.3 54.3 63.4 54.1 63.5 54 63.6 54.1 63.7 54.1 63.7"/>
          <polygon class="cls-30" points="54.1 64 54.1 64.1 54.1 64 54.1 64 54.1 63.9 54.1 63.8 54 63.8 54 63.8 54.1 63.7 54.1 63.7 54 63.6 53.9 63.6 53.9 63.7 53.9 63.8 53.9 63.9 53.9 63.9 53.9 64 54 64.1 54 64.1 54 64.2 54 64.1 54 64.2 54 64.2 54.1 64"/>
          <polygon class="cls-31" points="60 64.6 60 64.6 60 64.6 60 64.6"/>
          <polygon class="cls-31" points="60 64.6 60 64.6 60 64.7 60 64.6"/>
          <polygon class="cls-31" points="62.1 65.6 64.8 66.4 64.5 66.5 64.5 66.5 62.2 65.7 62.1 65.6"/>
          <path class="cls-31" d="M54,64.2h3.4c0-.1,0-.1,0-.1h0s0,0,0,0h0s0,0,0,0h0s0,0,0,0h0s1.3,4,1.3,4h0c0,0,0,0,0,0h0s0,0,0,0h0s0,0,0,0h0s0,0,0,0h0s0,0,0,0h0c0,0,0-.2,0-.2h0c0,0,0-.2,0-.2h0c0,0,0-.1,0-.1h0c0,0,0-.1,0-.1h0c0,0,0-.1,0-.1h0c0,0,0-.1,0-.1h0c0,0,0-.1,0-.1h0c0,0,0-.2,0-.2h0c0,0,0-.1,0-.1h0c0,0,0,0,0,0h0s0,0,0,0h.1s.1,0,.1,0h.1s.1,0,.1,0h.1s.1,0,.1,0h.1s.1,0,.1,0h.1s.1,0,.1,0h.1s1.9-.1,1.9-.1l-2.3-.8h0c0-.1,2.7.7,2.7.7l12.4-.9h.2s.2-.1.2-.1h.1c0-.1,0-.2,0-.2h0c0-.1,0-.2,0-.2v-.2s-.1-.2-.1-.2v-.2c-.1,0-.2,0-.2,0h0c0,0,0-.2,0-.2h0c0,0,0-.1,0-.1h-.1c0,0-.1-.1-.1-.1h-.1c0,0-.1-.1-.1-.1h-.1c0,0-.1,0-.1,0h-.1s-.1,0-.1,0h-.1s-.1,0-.1,0h-.1s-1.9,0-1.9,0l-11,.4h-.2s-.1,0-.1,0h-.1s-.1,0-.1,0h-.1s-.1,0-.1,0h-.1s-.1,0-.1,0h-.1s-.1,0-.1,0h-.1s-.1,0-.1,0h-.1s-.1,0-.1,0h-.1s-.2-.1-.2-.1h-.2c0,0-.1-.1-.1-.1h-.2c0,0-.1-.1-.1-.1h-.1c0,0-.1-.1-.1-.1h-.1c0,0-.1-.1-.1-.1h-.1c0,0-.1-.1-.1-.1h-.1c0,0-.1-.1-.1-.1h-.1c0,0,0-.1,0-.1h-.1c0,0-.1-.1-.1-.1h-.1s-.1,0-.1,0h-.1s-.1,0-.1,0h-.1s-.1,0-.1,0h-.1s-.1,0-.1,0h-.2s-.2,0-.2,0h-.2s-.2,0-.2,0h-.2s-.2,0-.2,0h-.2s-.2,0-.2,0h-.2s-.2,0-.2,0h-.2c0,0-.2.1-.2.1h-.2c0,0-.1.1-.1.1h-.2c0,0-.1.1-.1.1h-.1c0,0,2.4.9,2.4.9h-3.2c0,.1,0,.3,0,.3ZM75.7,64.3h0c0,0,0-.2,0-.2h0c0,0,0,0,0,0h.1s0,0,0,0h0s0,0,0,0h0s0,0,0,0h0s0,0,0,0h0s0,0,0,0h0s0,0,0,0h0c0,0,0,.1,0,.1h0c0,0,0,.1,0,.1h0c0,0,0,.2,0,.2h0c0,.1,0,.2,0,.2h0s0,.1,0,.1h0c0,0,0,.1,0,.1h0s-.1,0-.1,0h0s0,0,0,0h0s0,0,0,0h0s0,0,0,0h0s0,0,0,0h0s0,0,0,0h0s0,0,0,0h0s0-.1,0-.1h0c0,0,0-.1,0-.1h0c0-.1,0-.2,0-.2h0s0,0,0,0ZM62.2,66h0s0,0,0,0ZM60.2,64.7h0c0,0,1.1-.1,1.1-.1h.2c0,.1.6,1.4.6,1.4h0c0,.1-1.2.2-1.2.2h0s0,0,0,0h0l-.3-.2h0s0,0,0,0l-.5-1.4Z"/>
          <polygon class="cls-32" points="74.9 65.1 74.8 65.1 74.8 65 74.9 65 74.9 65 74.9 65 74.9 65.1"/>
          <polygon class="cls-32" points="75 65 75 65 75 65.1 75 65.1 74.9 65.1 74.9 65.1 74.9 65 74.9 65 74.9 65 74.9 65 75 65 74.9 65 75 65 75 65"/>
          <polygon class="cls-32" points="74.8 64.4 74.8 64.4 74.8 64.5 74.9 64.5 74.9 64.6 75 64.7 75 64.7 75.1 64.8 75.1 64.9 75 65 74.9 65 75 64.9 75 64.9 74.9 64.8 74.9 64.7 74.9 64.7 74.8 64.6 74.7 64.5 74.7 64.5 74.7 64.5 74.8 64.4"/>
          <polygon class="cls-32" points="73.9 64.2 73.9 64.1 74 64.2 74.1 64.2 74.2 64.2 74.3 64.2 74.4 64.2 74.6 64.3 74.7 64.3 74.8 64.4 74.7 64.5 74.6 64.4 74.5 64.4 74.4 64.3 74.3 64.3 74.2 64.3 74.1 64.3 74 64.3 73.9 64.3 73.9 64.3 73.9 64.2 73.9 64.2"/>
          <polygon class="cls-32" points="64.4 64.6 64.4 64.6 73.9 64.2 73.9 64.3 64.5 64.7 64.5 64.7 64.4 64.6"/>
          <polygon class="cls-32" points="64.2 65 64.1 64.9 64.1 64.9 64.1 64.8 64.1 64.7 64.2 64.7 64.2 64.7 64.3 64.6 64.4 64.6 64.4 64.6 64.5 64.7 64.4 64.7 64.3 64.8 64.3 64.8 64.2 64.8 64.2 64.8 64.2 64.8 64.2 64.9 64.2 65 64.1 64.9 64.2 65"/>
          <polygon class="cls-26" points="74.8 64.9 74.8 64.9 74.8 64.8 74.8 64.8 74.7 64.8 74.7 64.7 74.7 64.7 74.6 64.6 74.5 64.6 74.4 64.5 74.3 64.5 74.2 64.4 74.1 64.4 74 64.4 73.9 64.4 73.8 64.4 64.3 64.9 64.4 64.7 64.4 64.7 64.5 64.7 73.9 64.3 74 64.3 74.2 64.3 74.3 64.3 74.4 64.3 74.5 64.3 74.6 64.4 74.7 64.5 74.8 64.6 74.9 64.7 74.9 64.8 75 64.9 75 64.9 75 65 74.9 65 74.9 65 74.9 65 74.8 64.9"/>
          <path class="cls-26" d="M64.1,64.9h0c0,0,0,.2,0,.2h0c0,0,0,.2,0,.2h0c0,0,.1.2.1.2h.1c0,0,.1.1.1.1h.1s.2,0,.2,0l9.7-.5h.2s.1,0,.1,0h0c0,0,0-.2,0-.2h0c0,0,0-.2,0-.2h0c0-.1,0-.2,0-.2h0c0-.1-.1-.2-.1-.2h-.1c0,0-.1-.1-.1-.1h-.1s-.1,0-.1,0h-.3s-9.4.5-9.4.5h0s-.1,0-.1,0h-.1s0,0,0,0h0c0,0,0,.1,0,.1h0ZM64.2,65h0c0,0,0,0,0,0h0s0,0,0,0h0s0-.2,0-.2h0s0,0,0,0l9.4-.5h.2s.1,0,.1,0h.1s.1,0,.1,0h.1s0,.1,0,.1h0c0,0,0,.2,0,.2h0c0,.1,0,.2,0,.2h0c0,.1,0,.2,0,.2h0s0,0,0,0h-.1s-.2,0-.2,0l-9.7.5h0s-.1,0-.1,0h-.1s-.1,0-.1,0h-.1c0,0,0-.1,0-.1h0c0,0,0-.2,0-.2h0c0,0,0-.1,0-.1h0Z"/>
        </g>
      </g>
      <g>
        <path class="cls-24" d="M56.9,176.6c0,.4-.2.8-.5,1.1h0c0,0-3,3.3-3,3.3-.6.7-1.2,1.2-1.6,1.6-.5.4-.8.5-1,.5s-.4,0-.7-.3c-.3-.2-.5-.4-.6-.6,0-.2-.1-.5-.2-1,0-.5,0-1.1,0-1.7s.1-.7.4-.9c.3-.3.6-.4.9-.4s.5.3.6.9c0,0,0,.1,0,.2,0,.5.1.8.2,1,0,.2.2.3.3.3s.1,0,.3-.2c.1-.1.3-.3.5-.4l3.1-3.1c.3-.3.5-.5.7-.6.2-.1.4-.2.5-.2s.2,0,.2.1c0,0,0,.2,0,.4v.2Z"/>
        
        
        <line class="cls-15" x1="51.8" y1="185.1" x2="252.1" y2="185.1"/>
      </g>
      <g>
        <g>
          
          
        </g>
        <path class="cls-24" d="M56.9,225.3c0,.4-.2.8-.5,1.1h0c0,0-3,3.3-3,3.3-.6.7-1.2,1.2-1.6,1.6-.5.4-.8.5-1,.5s-.4,0-.7-.3c-.3-.2-.5-.4-.6-.6,0-.2-.1-.5-.2-1,0-.5,0-1.1,0-1.7s.1-.7.4-.9c.3-.3.6-.4.9-.4s.5.3.6.9c0,0,0,.1,0,.2,0,.5.1.8.2,1,0,.2.2.3.3.3s.1,0,.3-.2c.1-.1.3-.3.5-.4l3.1-3.1c.3-.3.5-.5.7-.6.2-.1.4-.2.5-.2s.2,0,.2.1c0,0,0,.2,0,.4v.2Z"/>
        <line class="cls-16" x1="51.8" y1="233.8" x2="234" y2="233.8"/>
      </g>
      
      <g>
        <path class="cls-24" d="M55.6,249.8c0,.4-.2.8-.5,1.1h0c0,0-3,3.3-3,3.3-.6.7-1.2,1.2-1.6,1.6-.5.4-.8.5-1,.5s-.4,0-.7-.3c-.3-.2-.5-.4-.6-.6,0-.2-.1-.5-.2-1,0-.5,0-1.1,0-1.7s.1-.7.4-.9c.3-.3.6-.4.9-.4s.5.3.6.9c0,0,0,.1,0,.2,0,.5.1.8.2,1,0,.2.2.3.3.3s.1,0,.3-.2c.1-.1.3-.3.5-.4l3.1-3.1c.3-.3.5-.5.7-.6.2-.1.4-.2.5-.2s.2,0,.2.1c0,0,0,.2,0,.4v.2Z"/>
        
        <line class="cls-18" x1="51.8" y1="257.7" x2="160.8" y2="257.7"/>
        <path class="cls-10" d="M169.1,265.6c4.2-.2,7.5-3.6,7.5-7.9s-3.5-7.9-7.9-7.9-7.9,3.5-7.9,7.9,3.3,7.7,7.5,7.9h.7Z"/>
      </g>
    </g>
  </g>
</g></svg>