<svg version="1.1" xmlns="http://www.w3.org/2000/svg" xmlns:xlink="http://www.w3.org/1999/xlink" x="0px" y="0px" width="825" height="2400" viewBox="0 0 825 2400" enable-background="new 0 0 198 576" xml:space="preserve">
<g id="cut">
	<rect fill="#939598" width="198" height="576"></rect>
	<circle fill="#FFFFFF" stroke="#ED1C24" stroke-width="0.8125" cx="99" cy="99.334" r="87.75"></circle>
	<path fill="#FFFFFF" stroke="#ED1C24" stroke-width="0.8333" d="M81,377.119c-27.374-5.557-50.221-23.547-62.43-47.809
		c1.245-13.26,1.906-27.082,1.906-41.291c0-13.676-0.613-26.991-1.769-39.793C33.565,218.969,63.94,198.92,99,198.92
		c35.061,0,65.436,20.049,80.293,49.306c-1.156,12.803-1.77,26.118-1.77,39.793c0,14.209,0.661,28.031,1.906,41.291
		c-12.209,24.262-35.056,42.252-62.43,47.809v0.036v8.244v-0.063v-0.106v0.035c27.374,5.557,50.221,23.546,62.43,47.809
		c-1.245,13.259-1.906,27.081-1.906,41.29c0,13.676,0.613,26.991,1.77,39.794c-14.857,29.257-45.232,49.306-80.293,49.306
		c-35.06,0-65.435-20.049-80.292-49.306c1.155-12.803,1.769-26.118,1.769-39.794c0-14.209-0.661-28.031-1.906-41.29
		c12.209-24.263,35.056-42.252,62.43-47.809v-0.035v0.106v-8.335"></path>
	<circle fill="#6D6E71" stroke="#ED1C24" stroke-width="1" cx="99" cy="99.337" r="10.08"></circle>
	<circle fill="#939598" stroke="#ED1C24" stroke-width="1" cx="99.001" cy="473.465" r="10.08"></circle>
	<path fill="none" stroke="#ED1C24" stroke-width="0.8333" d="M100.217,208.379"></path>
	<path fill="none" stroke="#ED1C24" stroke-width="0.8333" d="M128.488,204.037"></path>
	<path fill="none" stroke="#ED1C24" stroke-width="0.8333" d="M70.699,203.632"></path>
	<circle fill="#939598" stroke="#ED1C24" stroke-width="1" cx="99.386" cy="288.883" r="10.08"></circle>
	<path fill="none" stroke="#ED1C24" stroke-width="0.8333" d="M99.001,244.753"></path>
	<path fill="#939598" stroke="#ED1C24" stroke-width="0.8536" d="M114,231.821c0-7.416-6.715-13.426-14.999-13.426
		S84,224.405,84,231.821l11.251,37.768c0.506,1.679,1.679,2.75,3.75,2.75s3.095-0.855,3.749-2.75L114,231.821z"></path>
</g>
<g id="fold">
	<line fill="none" stroke="#00A651" stroke-width="0.8333" x1="117" y1="381.253" x2="81" y2="381.253"></line>
</g>
<g id="safe_zone">
	<g>
		<path fill="none" stroke="#00AEEF" stroke-dasharray="5.1378,5.1378" d="M52.422,137.969c-4.359,6.002-2.461,14.81,4.243,19.68
			c6.702,4.869,15.669,3.955,20.027-2.045l13.097-37.167c0.578-1.656,0.259-3.212-1.417-4.429c-1.677-1.219-3.007-1.129-4.649,0.02
			L52.422,137.969z"></path>
	</g>
	<g>
		<path fill="none" stroke="#00AEEF" stroke-dasharray="5.1378,5.1378" d="M145.508,60.889c4.359-6.001,2.46-14.811-4.244-19.679
			c-6.701-4.87-15.67-3.955-20.026,2.044L108.141,80.42c-0.58,1.657-0.258,3.212,1.416,4.432c1.678,1.218,3.008,1.126,4.651-0.022
			L145.508,60.889z"></path>
	</g>
	<g>
		<path fill="none" stroke="#00AEEF" stroke-dasharray="5.1377,5.1377" d="M38.693,103.201c-7.053,2.291-10.695,10.533-8.135,18.414
			c2.561,7.878,10.353,12.409,17.404,10.117l32.441-22.37c1.441-1,2.098-2.446,1.458-4.417c-0.641-1.97-1.771-2.68-3.774-2.716
			L38.693,103.201z"></path>
	</g>
	<g>
		<path fill="none" stroke="#00AEEF" stroke-dasharray="5.1378,5.1378" d="M159.308,95.557c7.054-2.293,10.694-10.537,8.136-18.417
			c-2.562-7.878-10.354-12.409-17.406-10.117l-32.441,22.37c-1.441,1.001-2.098,2.447-1.457,4.417
			c0.642,1.97,1.771,2.68,3.774,2.717L159.308,95.557z"></path>
	</g>
	<g>
		<path fill="none" stroke="#00AEEF" stroke-dasharray="5.1378,5.1378" d="M47.963,67.023c-7.051-2.292-14.844,2.237-17.404,10.116
			C28,85.019,31.641,93.264,38.693,95.555l39.396,0.97c1.754,0.039,3.134-0.747,3.773-2.716c0.641-1.971,0.144-3.208-1.456-4.416
			L47.963,67.023z"></path>
	</g>
	<g>
		<path fill="none" stroke="#00AEEF" stroke-dasharray="5.1378,5.1378" d="M150.039,131.734c7.051,2.291,14.844-2.238,17.404-10.117
			c2.559-7.879-1.082-16.124-8.135-18.416l-39.396-0.97c-1.753-0.037-3.133,0.745-3.772,2.716c-0.642,1.971-0.143,3.209,1.456,4.416
			L150.039,131.734z"></path>
	</g>
	<g>
		<path fill="none" stroke="#00AEEF" stroke-dasharray="5.1377,5.1377" d="M76.729,43.204c-4.358-5.999-13.324-6.915-20.026-2.045
			c-6.702,4.869-8.604,13.68-4.244,19.679L83.76,84.779c1.396,1.061,2.975,1.237,4.65,0.021c1.676-1.218,2.001-2.512,1.417-4.429
			L76.729,43.204z"></path>
	</g>
	<g>
		<path fill="none" stroke="#00AEEF" stroke-dasharray="5.1378,5.1378" d="M121.273,155.555c4.357,5.998,13.324,6.915,20.027,2.045
			c6.701-4.869,8.602-13.682,4.244-19.68l-31.302-23.941c-1.396-1.061-2.974-1.237-4.649-0.02c-1.678,1.218-2.002,2.512-1.418,4.428
			L121.273,155.555z"></path>
	</g>
	<g>
		<path fill="none" stroke="#00AEEF" stroke-dasharray="5.1378,5.1378" d="M114.001,40.8c0-7.416-6.715-13.426-15-13.426
			C90.717,27.374,84,33.385,84,40.8l11.251,37.768c0.506,1.679,1.679,2.75,3.75,2.75c2.072,0,3.095-0.855,3.75-2.75L114.001,40.8z"></path>
	</g>
	<g>
		<path fill="none" stroke="#00AEEF" stroke-dasharray="5.1378,5.1378" d="M84,157.876c0,7.415,6.715,13.426,15,13.426
			c8.284,0,15.001-6.011,15.001-13.426l-11.251-37.768c-0.506-1.68-1.679-2.75-3.75-2.75c-2.072,0-3.096,0.855-3.75,2.75L84,157.876
			z"></path>
	</g>
	<g>
		<g>
			<path fill="none" stroke="#00AEEF" stroke-width="0.8333" d="M82.661,369.025c-0.819-0.166-1.633-0.345-2.442-0.535"></path>
			<path fill="none" stroke="#00AEEF" stroke-width="0.8333" stroke-dasharray="5.0026,5.0026" d="M75.387,367.191
				c-21.343-6.458-38.948-21.509-48.817-41.12c1.119-11.913,1.712-24.332,1.712-37.099c0-12.287-0.551-24.25-1.589-35.752
				c13.349-26.286,40.64-44.299,72.14-44.299c31.5,0,58.791,18.013,72.14,44.299c-1.039,11.503-1.59,23.465-1.59,35.752
				c0,12.767,0.594,25.186,1.712,37.099c-10.236,20.343-28.799,35.779-51.221,41.807"></path>
			<path fill="none" stroke="#00AEEF" stroke-width="0.8333" d="M117.448,368.49c-0.81,0.19-1.624,0.369-2.442,0.535"></path>
		</g>
	</g>
	<g>
		<g>
			<line fill="none" stroke="#00AEEF" stroke-width="0.8536" x1="107.317" y1="274.788" x2="108.031" y2="272.392"></line>
			<path fill="none" stroke="#00AEEF" stroke-width="0.8536" stroke-dasharray="5.0729,5.0729" d="M109.479,267.53l11.467-38.5
				c0-10.951-9.916-19.828-22.149-19.828c-12.234,0-22.153,8.876-22.153,19.828l12.421,41.696"></path>
			<line fill="none" stroke="#00AEEF" stroke-width="0.8536" x1="89.789" y1="273.157" x2="90.503" y2="275.553"></line>
		</g>
	</g>
	<path fill="none" stroke="#00AEEF" stroke-width="0.8536" d="M99.54,272.805"></path>
	<g>
		<g>
			<path fill="none" stroke="#00AEEF" stroke-width="1" d="M90.651,275.463c-0.699,0.458-1.36,0.969-1.979,1.526"></path>
			<path fill="none" stroke="#00AEEF" stroke-width="1" stroke-dasharray="5.2841,5.2841" d="M85.384,281.094
				c-1.322,2.346-2.077,5.055-2.077,7.941c0,8.965,7.27,16.235,16.234,16.235c8.964,0,16.233-7.271,16.233-16.235
				c0-4.237-1.626-8.091-4.287-10.979"></path>
			<path fill="none" stroke="#00AEEF" stroke-width="1" d="M109.546,276.264c-0.655-0.513-1.351-0.977-2.08-1.386"></path>
		</g>
	</g>
	<path fill="none" stroke="#00AEEF" stroke-width="0.8333" stroke-dasharray="5" d="M83.283,393.344
		c-25.034,5.082-45.929,21.533-57.094,43.723c1.139,12.125,1.743,24.766,1.743,37.761c0,12.507-0.561,24.685-1.617,36.393
		c13.587,26.756,41.366,45.091,73.429,45.091c32.064,0,59.843-18.335,73.43-45.091c-1.058-11.708-1.618-23.886-1.618-36.393
		c0-12.995,0.604-25.636,1.743-37.761c-11.165-22.189-32.06-38.641-57.093-43.723"></path>
	
		<line fill="none" stroke="#00AEEF" stroke-width="0.8333" stroke-dasharray="5" x1="83.283" y1="393.344" x2="116.206" y2="393.344"></line>
	<g>
		<g>
			<line fill="none" stroke="#00AEEF" stroke-width="0.8333" x1="115.006" y1="369.025" x2="112.506" y2="369.025"></line>
			
				<line fill="none" stroke="#00AEEF" stroke-width="0.8333" stroke-dasharray="5.4689,5.4689" x1="107.037" y1="369.025" x2="87.896" y2="369.025"></line>
			<line fill="none" stroke="#00AEEF" stroke-width="0.8333" x1="85.161" y1="369.025" x2="82.661" y2="369.025"></line>
		</g>
	</g>
	<path fill="none" stroke="#00AEEF" stroke-width="1" stroke-dasharray="5" d="M82.591,473.996c0-8.939,7.248-16.191,16.189-16.191
		c8.938,0,16.188,7.252,16.188,16.191c0,8.94-7.25,16.188-16.188,16.188C89.839,490.184,82.591,482.937,82.591,473.996z"></path>
</g>
<g id="labels">
	
	
	
	
	
	
	
	
	
	
	<g>
		<path fill="#EB242B" d="M74.945,536.627c0-0.236,0.098-0.467,0.289-0.69l0.031-0.034l1.684-1.972
			c0.358-0.418,0.664-0.741,0.916-0.97c0.251-0.228,0.429-0.342,0.533-0.342c0.108,0,0.243,0.057,0.405,0.171
			c0.161,0.114,0.268,0.232,0.314,0.354c0.04,0.101,0.077,0.314,0.113,0.642c0.034,0.327,0.052,0.682,0.052,1.063
			c0,0.208-0.077,0.4-0.234,0.577c-0.156,0.177-0.328,0.265-0.517,0.265c-0.182,0-0.288-0.183-0.323-0.548
			c-0.004-0.043-0.005-0.073-0.009-0.095c-0.028-0.28-0.062-0.476-0.099-0.587c-0.039-0.111-0.091-0.167-0.156-0.167
			c-0.027,0-0.078,0.033-0.153,0.099c-0.074,0.065-0.163,0.154-0.267,0.269l-1.732,1.905c-0.145,0.161-0.275,0.283-0.389,0.366
			c-0.115,0.083-0.211,0.125-0.293,0.125c-0.06,0-0.102-0.026-0.128-0.076c-0.024-0.051-0.038-0.136-0.038-0.255V536.627z"></path>
	</g>
	<g>
		<path fill="#EB242B" d="M73.945,503.427c0-0.236,0.098-0.467,0.289-0.69l0.031-0.034l1.684-1.972
			c0.358-0.418,0.664-0.741,0.916-0.97c0.251-0.228,0.429-0.342,0.533-0.342c0.108,0,0.243,0.057,0.405,0.171
			c0.161,0.114,0.268,0.232,0.314,0.354c0.04,0.101,0.077,0.314,0.113,0.642c0.034,0.327,0.052,0.682,0.052,1.063
			c0,0.208-0.077,0.4-0.234,0.577c-0.156,0.177-0.328,0.265-0.517,0.265c-0.182,0-0.288-0.183-0.323-0.548
			c-0.004-0.043-0.005-0.073-0.009-0.095c-0.028-0.28-0.062-0.476-0.099-0.587c-0.039-0.111-0.091-0.167-0.156-0.167
			c-0.027,0-0.078,0.033-0.153,0.099c-0.074,0.065-0.163,0.154-0.267,0.269l-1.732,1.905c-0.145,0.161-0.275,0.283-0.389,0.366
			c-0.115,0.083-0.211,0.125-0.293,0.125c-0.06,0-0.102-0.026-0.128-0.076c-0.024-0.051-0.038-0.136-0.038-0.255V503.427z"></path>
	</g>
	<g>
		<path fill="#EB242B" d="M78.945,454.627c0-0.236,0.098-0.467,0.289-0.69l0.031-0.034l1.684-1.972
			c0.358-0.418,0.664-0.741,0.916-0.97c0.251-0.228,0.429-0.342,0.533-0.342c0.108,0,0.243,0.057,0.405,0.171
			c0.161,0.114,0.268,0.232,0.314,0.354c0.04,0.101,0.077,0.314,0.113,0.642c0.034,0.327,0.052,0.682,0.052,1.063
			c0,0.208-0.077,0.4-0.234,0.577c-0.156,0.177-0.328,0.265-0.517,0.265c-0.182,0-0.288-0.183-0.323-0.548
			c-0.004-0.043-0.005-0.073-0.009-0.095c-0.028-0.28-0.062-0.476-0.099-0.587c-0.039-0.111-0.091-0.167-0.156-0.167
			c-0.027,0-0.078,0.033-0.153,0.099c-0.074,0.065-0.163,0.154-0.267,0.269l-1.732,1.905c-0.145,0.161-0.275,0.283-0.389,0.366
			c-0.115,0.083-0.211,0.125-0.293,0.125c-0.06,0-0.102-0.026-0.128-0.076c-0.024-0.051-0.038-0.136-0.038-0.255V454.627z"></path>
	</g>
	<line fill="none" stroke="#EB242B" x1="72.351" y1="498.647" x2="20.004" y2="498.647"></line>
	<line fill="none" stroke="#929497" x1="78.817" y1="450.647" x2="13.476" y2="450.647"></line>
	<line fill="none" stroke="#2DA6DE" stroke-dasharray="1.3662" x1="74.945" y1="531.397" x2="41.828" y2="531.397"></line>
	
	<rect x="51.989" y="310.5" fill="#E7E7E7" width="100.511" height="20.5"></rect>
	
	<g>
		<circle fill-rule="evenodd" clip-rule="evenodd" fill="#010101" cx="59.4" cy="272.806" r="21.6"></circle>
		<circle fill-rule="evenodd" clip-rule="evenodd" fill="#B7D334" cx="59.416" cy="272.924" r="19.636"></circle>
		<g>
			<path fill="#010101" d="M55.212,268.644c-0.271,2.405-0.476,4.34-0.61,5.798l-0.895,0.04c0.013-0.049,0.019-0.104,0.02-0.165
				c0.003-0.108-0.038-0.253-0.12-0.432c-0.082-0.178-0.128-0.291-0.141-0.34c-0.231,0.034-0.454,0.194-0.665,0.48
				c-0.213,0.29-0.405,0.434-0.573,0.432c-0.099-0.005-0.208-0.03-0.329-0.08c-0.16,0.107-0.367,0.152-0.623,0.137
				c-0.229-0.041-0.456-0.074-0.674-0.103c-0.008-0.307-0.308-0.572-0.899-0.802c0.003-0.122-0.059-0.303-0.184-0.543
				c-0.124-0.239-0.185-0.407-0.182-0.505c0.001-0.108,0.044-0.199,0.132-0.271c-0.012-0.036-0.113-0.264-0.299-0.682
				c-0.129-0.307-0.191-0.569-0.189-0.787c0.005-0.171,0.044-0.328,0.119-0.474c-0.104-1.037-0.15-1.927-0.137-2.669
				c0.018-1.144,0.182-2.195,0.491-3.153c-0.021-0.146-0.031-0.293-0.029-0.438c0.014-0.768,0.279-1.299,0.793-1.595l0.006-0.237
				c0.51-0.649,1.182-1.118,2.015-1.409c0.499,0.119,0.995,0.23,1.492,0.337c0.557,0.191,0.941,0.521,1.152,0.987
				c0.169,0.102,0.251,0.304,0.246,0.606c-0.005,0.342,0.034,0.562,0.116,0.66l-0.094,0.107c0.098,0.721,0.145,1.159,0.143,1.317
				c-0.008,0.464-0.13,0.79-0.363,0.981c-0.085-0.001-0.31-0.078-0.673-0.23c-0.086,0.083-0.179,0.125-0.275,0.123
				c-0.049-0.001-0.138-0.028-0.264-0.078c-0.127-0.052-0.233-0.076-0.319-0.078c-0.061-0.001-0.123,0.01-0.184,0.033
				c-0.008-0.962,0.022-1.68,0.092-2.154c-0.096-0.062-0.193-0.206-0.293-0.424c-0.102-0.222-0.229-0.346-0.387-0.373
				c-0.1,0.121-0.144,0.199-0.132,0.236l-0.327-0.115c-0.298,0.323-0.495,0.887-0.595,1.688c-0.102,0.925-0.227,1.536-0.378,1.839
				c0.132,0.137,0.195,0.326,0.19,0.569c-0.002,0.085-0.016,0.226-0.043,0.418c-0.029,0.195-0.043,0.342-0.043,0.439
				c-0.003,0.11,0.007,0.208,0.029,0.293l-0.221,0.216c0.089,0.415,0.141,0.939,0.154,1.574c-0.009,0.535-0.012,1.07-0.009,1.606
				c-0.011,0-0.115,0.003-0.311,0.014c-0.121-0.004-0.209,0.038-0.258,0.122c0.073-0.011,0.141-0.017,0.202-0.014
				c0.267,0.003,0.477,0.193,0.628,0.567c0.153,0.374,0.283,0.562,0.393,0.564c0.122,0.001,0.289-0.111,0.5-0.341
				c0.358-0.383,0.545-0.91,0.556-1.578c0.007-0.329-0.03-0.683-0.109-1.062c-0.087,0.046-0.13,0.168-0.134,0.363
				c-0.195-0.003-0.318,0.037-0.368,0.12c-0.083-0.025-0.12-0.094-0.105-0.2c0.015-0.159,0.022-0.245,0.022-0.257
				c0.146-0.045,0.221-0.112,0.223-0.197c0-0.036-0.025-0.104-0.079-0.202c-0.052-0.098-0.078-0.177-0.078-0.239
				c0.001-0.049,0.015-0.097,0.04-0.146l0.085-0.712c0.266,0.079,0.843,0.113,1.733,0.104c-0.026,0.06,0.01,0.141,0.105,0.238
				c0.086-0.084,0.177-0.126,0.274-0.123c0.074,0.002,0.182,0.034,0.327,0.098C55.048,268.609,55.149,268.642,55.212,268.644z"></path>
			<path fill="#010101" d="M62.027,274.933c-0.169-0.076-0.352-0.114-0.545-0.119c-0.171-0.002-0.405,0.03-0.697,0.099
				c-0.329,0.067-0.556,0.104-0.677,0.116c-0.132-0.258-0.222-0.612-0.274-1.064c-0.099-0.659-0.16-1.03-0.183-1.118
				c0.038-0.072,0.058-0.133,0.058-0.18c0.002-0.135-0.104-0.256-0.312-0.363c-0.213-0.105-0.316-0.191-0.314-0.252
				c0-0.072,0.123-0.18,0.368-0.322c-0.058-0.072-0.103-0.224-0.128-0.448c-0.025-0.226-0.082-0.376-0.166-0.451
				c-0.148,0.132-0.391,0.217-0.726,0.252c-0.336,0.038-0.559,0.092-0.669,0.162c0.007,0.95-0.149,1.588-0.471,1.91
				c-0.17-0.039-0.301,0.026-0.388,0.195c-0.126,0.205-0.231,0.324-0.316,0.359l0.106,0.129c-0.099,0.084-0.258,0.118-0.476,0.103
				c-0.342-0.019-0.524-0.027-0.549-0.027l-0.104-0.332l1.19-9.86c0.012-0.621,0.042-1.043,0.094-1.261
				c-0.016-0.549,0.113-0.886,0.383-1.016c0.168,0.112,0.382,0.171,0.637,0.175c0.208,0.005,0.53-0.038,0.971-0.13
				c0.44-0.089,0.745-0.134,0.914-0.131c0.598,0.012,0.856,0.44,0.784,1.293c-0.061,0.681,0.045,1.578,0.318,2.69
				c0.283,1.199,0.422,2.097,0.411,2.693c-0.003,0.181,0.056,0.561,0.042,0.743c-0.258,0.141-0.588,0.228-0.99,0.257
				c-0.354,0.018-0.714,0.037-1.078,0.054c-0.095-0.927-0.258-2.044-0.353-2.959c-0.115-1.098-0.258-2-0.43-2.711l-0.563,5.216
				c-0.043,0.45,0.16,0.679,0.61,0.687c0.146,0.002,0.286-0.031,0.422-0.103c0.111-0.034,0.262,0.047,0.453,0.245
				c-0.008,0.378,0.068,0.604,0.225,0.679c0.197-0.13,0.456-0.253,0.774-0.371c0.281-0.104,0.559-0.202,0.827-0.295
				c0.153,0.21,0.254,0.521,0.295,0.937c0.051,0.586,0.088,0.927,0.11,1.024c0.021,0.232,0.115,0.733,0.284,1.504
				c0.123,0.609,0.184,1.104,0.176,1.481C62.07,274.605,62.054,274.775,62.027,274.933z"></path>
			<path fill="#010101" d="M70.438,266.234c-0.014,0.036-0.016,0.249-0.01,0.639c-0.006,0.316-0.046,0.554-0.122,0.71
				c-0.091,0.243-0.138,0.591-0.146,1.039c-0.003,0.099,0.002,0.251,0.01,0.457c-0.004,0.208-0.005,0.36-0.006,0.457
				c-0.014,0.766-0.146,1.323-0.396,1.673c0.021,0.197,0.031,0.392,0.029,0.586c-0.01,0.608-0.22,1.428-0.627,2.456
				c-0.11,0.035-0.203,0.051-0.276,0.05c-0.146-0.003-0.25-0.088-0.314-0.253s-0.125-0.321-0.184-0.468
				c0.039-0.937,0.02-2.302-0.059-4.094l0.111-0.107c-0.08-0.317-0.116-0.671-0.109-1.061c0.004-0.28,0.041-0.688,0.103-1.223
				c0.064-0.535,0.098-0.937,0.103-1.204c0.004-0.171,0-0.334-0.008-0.492c-0.422,1.003-0.718,2.702-0.892,5.098l-0.152,0.362
				c-0.052,0.123-0.156,0.188-0.314,0.197c-0.047-0.085-0.096-0.129-0.143-0.13c-0.037-0.003-0.102,0.042-0.194,0.134
				c-0.094,0.088-0.17,0.127-0.231,0.114l-0.241,0.214c0.107,0.137,0.339,0.153,0.694,0.051c0.28-0.082,0.424,0.024,0.432,0.316
				c0.009,0.244-0.059,0.571-0.198,0.982c-0.142,0.412-0.214,0.722-0.217,0.929c-0.003,0.146,0.014,0.293,0.046,0.438l-1.263,0.199
				c-0.117-0.245-0.205-0.658-0.264-1.237c-0.054-0.578-0.143-0.992-0.26-1.237c0.074-0.083,0.111-0.173,0.113-0.272
				c0.002-0.085-0.031-0.214-0.103-0.385c-0.07-0.172-0.111-0.301-0.123-0.387c-0.01-0.133-0.051-0.457-0.129-0.97
				c-0.053-0.414-0.079-0.739-0.074-0.968c0.002-0.123,0.01-0.232,0.023-0.33c0.001-0.086-0.047-0.21-0.141-0.378
				c-0.093-0.165-0.14-0.284-0.139-0.357c0.001-0.061,0.025-0.114,0.075-0.163c-0.083-0.1-0.117-0.27-0.101-0.513
				c0.016-0.244-0.019-0.415-0.102-0.513c-0.178,0.471-0.273,1.108-0.287,1.911c-0.007,1.12-0.018,1.768-0.032,1.937l0.125,0.112
				l-0.13,0.106c0.09,0.439,0.13,1.001,0.117,1.682c-0.031,1.23-0.048,1.803-0.047,1.719c-0.172,0.154-0.412,0.229-0.716,0.224
				c-0.378-0.005-0.635,0.027-0.769,0.097c-0.154-0.27-0.229-0.618-0.222-1.044c0.006-0.329,0.063-0.729,0.168-1.203
				c-0.167-0.309-0.244-0.734-0.234-1.283c0.002-0.134,0.018-0.389,0.05-0.767c0.017-0.303,0.022-0.529,0.012-0.675
				c0.122-0.059,0.185-0.124,0.185-0.198c0.002-0.048-0.035-0.132-0.113-0.248c-0.078-0.115-0.116-0.205-0.115-0.267
				c0.001-0.074,0.053-0.146,0.15-0.218l-0.394-5.906c0.234-0.154,0.612-0.228,1.138-0.218c0.571,0.022,0.962-0.009,1.169-0.09
				c0.038-0.024,0.08-0.035,0.129-0.035c0.05,0.002,0.106,0.029,0.172,0.086c0.066,0.056,0.112,0.084,0.137,0.084
				c0.047,0,0.092-0.036,0.129-0.108l0.343,0.336c0.113,0.429,0.222,1.259,0.323,2.489c0.103,1.062,0.267,1.862,0.488,2.402
				c0.299-1.079,0.545-1.982,0.74-2.709l0.396-2.891l2.831-0.062c0.011,0.158,0.046,1.005,0.12,1.494
				c0.065,0.427,0.099,0.774,0.093,1.041c-0.004,0.306-0.052,0.578-0.142,0.82c0.095,0.136,0.142,0.307,0.138,0.513
				C70.591,265.933,70.537,266.102,70.438,266.234z"></path>
			<path fill="#010101" d="M76.249,272.636v-0.019c-0.076,0.156-0.123,0.339-0.139,0.546c-0.014,0.134-0.017,0.321-0.009,0.565
				c0.007,0.279,0.009,0.475,0.009,0.585c-0.099-0.002-0.487-0.009-1.169-0.02c-0.415-0.007-0.786,0.028-1.116,0.109l-0.34-0.372
				c-0.102,0.096-0.138,0.174-0.115,0.235c-0.06-0.013-0.341-0.018-0.84-0.014c-0.39-0.007-0.682-0.05-0.875-0.125
				c-0.198,0.205-0.429,0.199-0.693-0.013c-0.096-0.073-0.105-0.198-0.031-0.374c0.076-0.176,0.055-0.307-0.064-0.394
				c0.018-0.389,0.07-0.991,0.158-1.806c0.085-0.729,0.131-1.302,0.139-1.715c0.008-0.562-0.029-1.097-0.119-1.609
				c0.139-0.132,0.289-0.196,0.459-0.193c0.196,0.002,0.426,0.099,0.689,0.286c0.373,0.26,0.566,0.394,0.579,0.394l0.105,0.128
				c0.015-0.036,0.077-0.229,0.193-0.58c0.064-0.23,0.159-0.38,0.282-0.453l0.107,0.112c0.051-0.022,0.209-0.136,0.482-0.339
				c0.207-0.143,0.378-0.48,0.498-0.478c0.137,0.001,0.263,0.078,0.382,0.226c0.205,0.111,0.334,0.551,0.398,0.774
				c0.062,0.229,0.122,0.451,0.18,0.673c-0.548,0.015-1,0-1.352-0.043c-0.087,0.133-0.209,0.152-0.366,0.059
				c-0.156-0.094-0.271-0.08-0.346,0.038c-0.006,0.221-0.012,0.617-0.021,1.188c-0.021,0.51-0.027,0.912-0.02,1.205
				c0.004,0.451,0.033,0.865,0.088,1.243c0.097,0.002,0.559,0.011,1.387,0.024C75.343,272.492,75.834,272.543,76.249,272.636z
				 M76.287,263.886c-0.11,0.011-0.231,0.015-0.364,0.013c-0.282-0.005-0.653-0.049-1.112-0.129
				c-0.573-0.082-0.919-0.132-1.04-0.146c-0.175,0.253-0.266,0.61-0.274,1.073c-0.017,0.998-0.017,1.431-0.003,1.297
				c0.17,0.099,0.252,0.284,0.246,0.552c-0.02,0.365-0.021,0.556-0.01,0.566c-0.086,0.034-0.131,0.156-0.134,0.362
				c-0.134-0.05-0.271-0.15-0.416-0.3c-0.191-0.186-0.293,0.444-0.279,0.288l-0.114,0.375l-0.108-0.111
				c-0.098,0.01-0.265-0.041-0.499-0.155c-0.237-0.114-0.402-0.218-0.498-0.318c0.004-0.194,0.036-0.304,0.097-0.327l-0.231-0.259
				l-0.112,0.161c-0.138-1.269-0.104-3.642,0.064-4.979c0.463,0.081,0.973,0.133,1.531,0.154c0.378,0.02,0.907,0.028,1.59,0.028
				c0.779,0.001,1.341,0.003,1.681,0.009c0.143,0.136,0.213,0.313,0.209,0.533c0,0.135-0.038,0.351-0.11,0.646
				C76.327,263.519,76.29,263.739,76.287,263.886z"></path>
		</g>
		<g>
			<path fill="#010101" d="M55.759,283.68v-0.01c0,0.006-0.029,0.275-0.093,0.806c-0.032,0.325-0.11,0.582-0.236,0.769l-0.078-0.064
				c-0.149,0.31-0.35,0.499-0.605,0.566c-0.122,0.128-0.299,0.198-0.527,0.213c-0.137,0.009-0.451-0.032-0.946-0.119
				c-0.239-0.148-0.369-0.231-0.393-0.247c-0.15-0.112-0.223-0.228-0.215-0.344c-0.145-0.148-0.349-0.413-0.426-0.743
				c-0.095-0.367-0.15-0.387-0.237-0.516c-0.138,0.102-0.188-0.113-0.266-0.244l0.071-0.055c-0.045-0.032-0.069-0.069-0.071-0.109
				c-0.002-0.029,0.012-0.071,0.036-0.129c0.026-0.056,0.038-0.099,0.036-0.127c-0.003-0.046-0.03-0.086-0.082-0.116
				c0.055-0.289,0.105-0.721,0.152-1.296c0.097-0.053,0.143-0.153,0.138-0.305c-0.005-0.149,0.017-0.249,0.062-0.298
				c0.234-0.466,0.611-0.78,1.135-0.944c0.028,0.004,0.168,0.001,0.421-0.007c0.173-0.004,0.303,0.011,0.391,0.047
				c0.156-0.028,0.314,0.012,0.471,0.111c0.135,0.104,0.271,0.204,0.407,0.308c0.254,0.274,0.391,0.587,0.411,0.933
				c0.006,0.114-0.001,0.237-0.022,0.364c-0.188-0.005-0.321,0.117-0.399,0.372l-0.73,0.069c-0.078-0.112-0.123-0.261-0.133-0.445
				c-0.005-0.063-0.004-0.156,0-0.277c0.002-0.123,0.003-0.215,0-0.277c-0.013-0.191-0.057-0.342-0.136-0.455l-0.218,0.127
				c-0.09-0.035-0.135-0.088-0.139-0.157c-0.002-0.022,0.002-0.057,0.01-0.101s0.012-0.074,0.01-0.092
				c-0.004-0.075-0.071-0.12-0.202-0.138c-0.088,0.823-0.116,1.668-0.08,2.534c0.023,0.028,0.094,0.047,0.21,0.06
				c0.094,0.011,0.142,0.04,0.145,0.085c0.001,0.019-0.004,0.041-0.018,0.071l-0.072,0.057c0.039,0.061,0.063,0.147,0.07,0.257
				c0.002,0.057,0,0.146-0.007,0.266c-0.009,0.119-0.009,0.208-0.007,0.264c0.011,0.174,0.055,0.306,0.131,0.395
				c-0.007,0.126,0.045,0.214,0.155,0.259c0.07-0.027,0.134-0.041,0.192-0.045c0.222-0.014,0.377,0.108,0.463,0.363
				c0,0.007-0.002,0.05-0.003,0.132c0.003,0.046,0.025,0.075,0.071,0.09c0.096-0.058,0.143-0.161,0.143-0.312
				c-0.002-0.174,0.02-0.285,0.067-0.334c-0.012-0.081-0.061-0.197-0.146-0.348c-0.084-0.152-0.127-0.271-0.135-0.357
				c-0.004-0.093,0.023-0.181,0.082-0.265c-0.051-0.017-0.073-0.049-0.07-0.102c0.003-0.083,0.004-0.125,0.004-0.13
				C54.948,283.59,55.353,283.587,55.759,283.68z"></path>
			<path fill="#010101" d="M59.066,284.356h-0.01c-0.043,0.083-0.057,0.202-0.041,0.358c0.02,0.22,0.031,0.332,0.031,0.338
				c-0.033,0.013-0.078-0.004-0.133-0.049c-0.086,0.032-0.126,0.086-0.122,0.16c0,0.012,0.005,0.03,0.014,0.057
				c0.001,0.031,0.003,0.054,0.003,0.064c0.003,0.059-0.014,0.103-0.052,0.133c-0.098-0.054-0.227-0.088-0.383-0.104
				c-0.159-0.014-0.31-0.028-0.45-0.041c-0.003-0.732-0.101-1.45-0.295-2.149c0,0.005-0.005-0.066-0.013-0.219
				c0-0.108-0.024-0.184-0.073-0.229l-0.067,0.06c-0.001-0.01,0.021-0.03,0.066-0.062c0.046-0.033,0.067-0.065,0.064-0.098
				c0-0.017-0.005-0.032-0.014-0.047l-0.072-0.053c-0.126,0.04-0.183,0.141-0.175,0.3c0.007,0.108-0.036,0.184-0.127,0.226
				c0.035,0.025,0.053,0.059,0.056,0.095c0.002,0.021-0.001,0.053-0.011,0.091c-0.008,0.036-0.011,0.066-0.009,0.089
				c0.003,0.047,0.029,0.087,0.076,0.115c0.003,0.033,0.019,0.323,0.052,0.871c0.02,0.35,0.01,0.646-0.029,0.89l0.008,0.137
				c-0.047-0.002-0.102-0.001-0.16,0.002c-0.066,0.004-0.164,0.014-0.29,0.03c-0.125,0.016-0.22,0.024-0.278,0.028
				c-0.247,0.014-0.42-0.028-0.52-0.124l-0.106-3.01c-0.047-0.146-0.08-0.354-0.096-0.616l-0.032-0.581
				c-0.023-0.284-0.061-0.502-0.11-0.655c0.021-0.104,0.113-0.162,0.272-0.17c0.102-0.006,0.234,0.008,0.405,0.042
				c0.077-0.036,0.188-0.061,0.327-0.068c0.039-0.003,0.103-0.003,0.19-0.003c0.093-0.006,0.159-0.009,0.2-0.012
				c0.261-0.014,0.434-0.095,0.519-0.24c0.121-0.002,0.252,0.037,0.395,0.114c0.14,0.078,0.266,0.121,0.373,0.124
				c0.283,0.166,0.437,0.443,0.46,0.83c0.006,0.087-0.029,0.428-0.102,1.025l-0.488,0.422c0.083,0.153,0.183,0.484,0.299,0.995
				C58.718,283.846,58.865,284.158,59.066,284.356z M58.163,280.934l0.012,0.007c0.008,0.037,0.004-0.095-0.014-0.395
				c-0.008-0.145-0.061-0.249-0.158-0.314c-0.057,0.078,0.008,0.115-0.02,0.296c-0.025,0.184-0.133,0.133-0.197,0.211
				c-0.166,0-0.204,0.101-0.24-0.059c-0.074-0.26-0.142-0.237-0.142-0.241l-0.071,0.042c-0.025,0.022-0.055,0.048-0.085,0.078
				c-0.031,0.029-0.064,0.038-0.099,0.03c0.002,0.032-0.015,0.082-0.046,0.151c-0.034,0.07-0.05,0.116-0.049,0.144
				c0.004,0.05,0.042,0.085,0.118,0.107c-0.014,0.108-0.017,0.222-0.011,0.339c0.004,0.064,0.019,0.213,0.047,0.442
				c0.029,0.182,0.041,0.337,0.035,0.466c0.061,0.002,0.117,0.002,0.17-0.001c0.236-0.014,0.388-0.106,0.458-0.276
				c0.023-0.05,0.051-0.23,0.08-0.539C57.978,281.19,58.048,281.025,58.163,280.934z"></path>
			<path fill="#010101" d="M62.858,285.525c-0.096-0.027-0.197-0.037-0.304-0.031c-0.094,0.005-0.22,0.029-0.377,0.069
				c-0.181,0.043-0.302,0.069-0.368,0.078c-0.08-0.108-0.143-0.261-0.187-0.457c-0.078-0.287-0.125-0.448-0.14-0.485
				c0.019-0.033,0.027-0.061,0.024-0.083c-0.002-0.059-0.064-0.107-0.185-0.146c-0.119-0.038-0.18-0.072-0.181-0.099
				c-0.001-0.033,0.062-0.084,0.192-0.157c-0.037-0.029-0.064-0.094-0.088-0.193c-0.021-0.098-0.057-0.161-0.105-0.19
				c-0.076,0.064-0.207,0.11-0.389,0.141c-0.182,0.028-0.302,0.061-0.361,0.098c0.038,0.417,0,1.151-0.164,1.306
				c-0.095-0.01-0.162,0.022-0.206,0.103c-0.062,0.094-0.115,0.151-0.161,0.171l0.063,0.052c-0.053,0.042-0.138,0.062-0.257,0.064
				c-0.187,0.005-0.287,0.008-0.301,0.009l-0.067-0.144l0.28-4.836c-0.015-0.274-0.013-0.461,0.007-0.559
				c-0.027-0.24,0.031-0.396,0.174-0.463c0.098,0.043,0.214,0.06,0.356,0.052c0.113-0.006,0.289-0.037,0.525-0.095
				c0.238-0.057,0.404-0.088,0.498-0.094c0.327-0.019,0.484,0.16,0.473,0.538c-0.009,0.302,0.08,0.692,0.269,1.173
				c0.199,0.516,0.304,0.906,0.318,1.17c0.006,0.08,0.113,0.252,0.111,0.333c-0.137,0.071-0.316,0.122-0.533,0.151
				c-0.193,0.022-0.389,0.045-0.591,0.065c-0.083-0.403-0.273-0.895-0.355-1.296c-0.102-0.479-0.213-0.87-0.329-1.178l-0.128,2.32
				c-0.008,0.2,0.112,0.292,0.357,0.278c0.081-0.005,0.157-0.025,0.229-0.062c0.06-0.02,0.145,0.011,0.256,0.09
				c0.01,0.167,0.059,0.265,0.148,0.291c0.104-0.065,0.24-0.13,0.411-0.193c0.15-0.058,0.297-0.112,0.441-0.163
				c0.092,0.086,0.156,0.22,0.195,0.4c0.047,0.257,0.079,0.404,0.095,0.447c0.02,0.102,0.089,0.319,0.209,0.651
				c0.09,0.264,0.141,0.479,0.15,0.646C62.868,285.378,62.866,285.454,62.858,285.525z"></path>
			<path fill="#010101" d="M65.622,280.037h0.01c-0.079,0.118-0.182,0.14-0.307,0.066c-0.028-0.005-0.147,0.003-0.36,0.021
				c-0.18,0.011-0.311,0.001-0.394-0.026c-0.02,0.003-0.06,0.021-0.117,0.06c-0.058,0.04-0.099,0.059-0.128,0.06
				c-0.038,0.004-0.061-0.031-0.064-0.101c-0.002-0.01-0.004-0.057-0.008-0.138c-0.004-0.053-0.029-0.09-0.077-0.107l-0.126,0.097
				c-0.038,0.028-0.058,0.059-0.055,0.091c0.001,0.026,0.025,0.064,0.068,0.114c0.041,0.048,0.067,0.083,0.075,0.104
				c0.001,0.017,0.017,0.259,0.042,0.726c0.01,0.297,0.065,0.533,0.163,0.709c0.023-0.027,0.085-0.043,0.182-0.045
				c0.097-0.004,0.161-0.025,0.192-0.064c0.063,0.055,0.169,0.06,0.316,0.01c0.148-0.05,0.255-0.033,0.321,0.05l-0.02,0.713
				c-0.062-0.008-0.151-0.038-0.267-0.089c-0.035,0.103-0.102,0.17-0.199,0.196c-0.041,0.014-0.154,0.024-0.341,0.036
				c0.006-0.032-0.024-0.066-0.087-0.1c-0.181,0.086-0.25,0.292-0.204,0.617c0.006-0.033,0.012,0.024,0.021,0.169
				c0.006,0.091-0.014,0.157-0.059,0.197c-0.113,0.017-0.257-0.008-0.433-0.075c-0.172-0.068-0.299-0.101-0.371-0.097
				c-0.033,0.002-0.064,0.007-0.091,0.014l-0.187,0.058l-0.3-3.254l-0.036-0.62c0.248-0.084,0.559-0.138,0.924-0.158
				c0.288-0.018,0.665-0.015,1.126,0.007c0.031-0.061,0.085,0.019,0.152,0.015c0.033-0.002,0.084,0.003,0.15,0.012
				c0.068,0.01,0.119,0.013,0.152,0.012c0.04-0.002,0.077-0.01,0.109-0.023l0.048-0.051c0.136,0.04,0.207,0.112,0.213,0.213
				c0.003,0.044-0.01,0.118-0.039,0.221c-0.025,0.104-0.038,0.185-0.035,0.237C65.589,279.958,65.601,280.001,65.622,280.037z
				 M64.451,285.47c-0.07,0.037-0.181,0.058-0.327,0.067c-0.194,0.012-0.311,0.021-0.352,0.028c-0.021-0.021-0.047-0.004-0.09-0.174
				c-0.026-0.111-0.098-0.164-0.209-0.156c-0.027,0.001-0.061,0.005-0.1,0.013l-0.181,0.011l-0.096-1.647
				c0.099-0.048,0.22-0.077,0.366-0.086c0.141-0.008,0.266,0.006,0.373,0.041c-0.002,0.062,0.083,0.088,0.257,0.075l0.191-0.012
				C64.398,284.094,64.467,284.93,64.451,285.47z"></path>
			<path fill="#010101" d="M69.626,280.179l0.011,0.007c-0.096-0.006-0.397,0.014-0.629,0.044c-0.2,0.022-0.351,0.026-0.451,0.011
				c-0.097,0.065-0.133,0.153-0.105,0.264l0.062,0.037c-0.051,0.048-0.068,0.082-0.053,0.109l0.053,0.053
				c-0.012,0.955-0.014,1.482-0.008,1.585c0.015,0.252,0.044,0.474,0.088,0.667c-0.039,0.12-0.055,0.258-0.046,0.414
				c0.007,0.101,0.03,0.262,0.073,0.484c0.043,0.221,0.1,0.947,0.107,1.061c0.004,0.085,0.003,0.168-0.006,0.242
				c-0.093,0.038-0.191,0.06-0.298,0.067c-0.181,0.009-0.373-0.027-0.581-0.113c-0.024,0.023-0.053,0.048-0.085,0.074
				c-0.031,0.026-0.04,0.056-0.025,0.087c-0.065,0.019-0.157-0.008-0.276-0.082c-0.062-0.967-0.233-2.936-0.49-4.927
				c-0.091,0.082-0.257,0.015-0.43,0.036c-0.206,0.022-0.408-0.01-0.486,0.027c-0.1-0.107-0.078-0.139-0.089-0.315
				c-0.009-0.172-0.065-0.596-0.021-0.772c0.01-0.039,0.383-0.017,0.602-0.035c0.302-0.018,0.368,0.055,0.388,0.053
				c0.023-0.039,0.171-0.02,0.277-0.026c0.068,0.033,0.144-0.031,0.146,0.019c0.003,0.031,0,0.234-0.021,0.293
				c-0.024,0.059-0.035,0.101-0.034,0.127c0.004,0.064,0.051-0.029,0.159,0.008c0.12-0.004,0.244-0.008,0.37-0.015
				c0.144,0.014,0.306-0.038,0.294,0.082c0.023-0.034,0.039,0.025,0.24-0.057c0.15-0.068,0.242-0.244,0.213-0.364
				c-0.017-0.066,0.074-0.11,0.018-0.079c0.072-0.04,0.006-0.013,0.086-0.044c0.249,0.024,0.387-0.002,0.434-0.004
				c0.101-0.006,0.351,0.058,0.422,0.021c0.052,0.095,0.077,0.389,0.081,0.55C69.621,280.024,69.625,280.162,69.626,280.179z"></path>
			<path fill="#010101" d="M72.871,283.54l-0.002-0.008c-0.035,0.071-0.055,0.154-0.055,0.246c-0.006,0.059,0,0.143,0.014,0.25
				c0.014,0.123,0.022,0.208,0.025,0.257c-0.055,0.003-0.269,0.015-0.641,0.038c-0.227,0.013-0.431,0.042-0.608,0.092l-0.199-0.151
				c-0.051,0.047-0.068,0.083-0.053,0.109c-0.034-0.004-0.189,0.005-0.461,0.026c-0.214,0.013-0.376,0.005-0.485-0.021
				c-0.101,0.097-0.227,0.104-0.379,0.021c-0.055-0.027-0.064-0.083-0.03-0.164c0.036-0.08,0.019-0.138-0.05-0.171
				c-0.002-0.171,0.004-0.438,0.023-0.801c0.022-0.325,0.026-0.579,0.016-0.762c-0.014-0.247-0.055-0.481-0.121-0.704
				c0.07-0.063,0.152-0.097,0.246-0.102c0.105-0.009,0.235,0.026,0.388,0.097c0.213,0.102,0.323,0.151,0.33,0.151l0.062,0.053
				c0.007-0.016,0.033-0.104,0.086-0.265c0.027-0.103,0.074-0.173,0.139-0.208l0.062,0.044c0.025-0.012,0.11-0.067,0.252-0.167
				c0.109-0.072,0.185-0.334,0.252-0.337c0.072-0.006,0.145,0.023,0.215,0.083c0.117,0.043,0.208,0.336,0.251,0.434
				c0.042,0.097,0.084,0.193,0.123,0.287c-0.3,0.028-0.548,0.04-0.741,0.035c-0.043,0.062-0.111,0.076-0.199,0.041
				c-0.089-0.036-0.152-0.025-0.189,0.031c0.006,0.096,0.016,0.27,0.03,0.522c0.007,0.226,0.017,0.403,0.03,0.531
				c0.018,0.199,0.051,0.38,0.092,0.545c0.055-0.004,0.309-0.019,0.763-0.044C72.37,283.514,72.641,283.515,72.871,283.54z
				 M72.561,279.751c-0.06,0.007-0.127,0.016-0.201,0.019c-0.152,0.01-0.354,0.005-0.613-0.013
				c-0.314-0.014-0.507-0.021-0.573-0.023c-0.086,0.119-0.099,0.215-0.086,0.419c0.025,0.439,0.04,0.631,0.043,0.57
				c0.096,0.038,0.147,0.116,0.153,0.235c0.004,0.161,0.008,0.243,0.016,0.248c-0.046,0.019-0.066,0.074-0.061,0.166
				c-0.075-0.018-0.153-0.056-0.237-0.116c-0.113-0.073-0.148,0.189-0.145,0.12l-0.051,0.164l-0.062-0.047
				c-0.053,0.009-0.146-0.007-0.28-0.048c-0.133-0.041-0.228-0.081-0.283-0.121c-0.004-0.085,0.01-0.134,0.042-0.148l-0.138-0.104
				l-0.055,0.076c-0.119-0.554-0.199-1.529-0.153-2.125c0.255,0.018,0.554-0.025,0.861-0.038c0.207-0.008,0.498-0.023,0.871-0.051
				c0.427-0.029,0.733-0.052,0.919-0.062c0.084,0.056,0.13,0.132,0.135,0.228c0.004,0.06-0.01,0.155-0.037,0.289
				C72.594,279.521,72.557,279.686,72.561,279.751z"></path>
			<path fill="#010101" d="M76.2,282.968l-0.009,0.001c-0.041,0.084-0.056,0.203-0.04,0.357c0.021,0.221,0.029,0.333,0.03,0.338
				c-0.034,0.014-0.077-0.002-0.134-0.048c-0.086,0.031-0.125,0.085-0.121,0.161c0.001,0.011,0.005,0.028,0.013,0.055
				c0.003,0.031,0.003,0.054,0.005,0.064c0.004,0.06-0.016,0.104-0.053,0.133c-0.099-0.055-0.226-0.089-0.385-0.104
				c-0.157-0.015-0.306-0.03-0.448-0.044c-0.003-0.731-0.102-1.448-0.295-2.148c0,0.007-0.005-0.066-0.012-0.217
				c0-0.108-0.025-0.184-0.075-0.229l-0.065,0.061c0-0.011,0.02-0.032,0.065-0.064c0.044-0.032,0.067-0.064,0.065-0.098
				c-0.002-0.016-0.006-0.031-0.014-0.048l-0.074-0.053c-0.124,0.04-0.183,0.14-0.172,0.301c0.005,0.107-0.038,0.185-0.128,0.227
				c0.034,0.024,0.053,0.057,0.055,0.093c0.002,0.022-0.002,0.053-0.01,0.089c-0.007,0.039-0.011,0.069-0.01,0.091
				c0.003,0.048,0.027,0.087,0.076,0.117c0.002,0.032,0.02,0.322,0.051,0.87c0.021,0.349,0.012,0.646-0.028,0.89l0.009,0.138
				c-0.047-0.003-0.101-0.003-0.162,0.002c-0.065,0.004-0.163,0.013-0.289,0.028c-0.125,0.016-0.219,0.025-0.279,0.028
				c-0.245,0.015-0.419-0.026-0.519-0.124l-0.105-3.008c-0.049-0.148-0.081-0.354-0.096-0.617l-0.034-0.579
				c-0.022-0.285-0.059-0.504-0.107-0.657c0.021-0.103,0.11-0.161,0.271-0.169c0.103-0.007,0.236,0.007,0.405,0.041
				c0.078-0.037,0.188-0.061,0.327-0.067c0.04-0.003,0.104-0.004,0.19-0.004c0.094-0.005,0.16-0.01,0.199-0.012
				c0.262-0.015,0.436-0.096,0.521-0.239c0.121-0.001,0.251,0.036,0.393,0.113c0.142,0.079,0.267,0.119,0.375,0.123
				c0.284,0.168,0.438,0.444,0.46,0.832c0.004,0.086-0.029,0.428-0.102,1.024l-0.49,0.424c0.083,0.152,0.185,0.481,0.301,0.993
				C75.853,282.458,76.003,282.77,76.2,282.968z M75.299,279.545l0.011,0.008c0.009,0.036,0.004-0.096-0.013-0.395
				c-0.01-0.146-0.063-0.251-0.16-0.314c-0.055,0.077-0.064-0.105-0.091,0.077s-0.071,0.312-0.132,0.393
				c-0.168-0.001-0.207-0.102-0.307-0.241c-0.063-0.089-0.093-0.012-0.093-0.018l-0.047,0.037c-0.025,0.022-0.053,0.049-0.085,0.078
				c-0.032,0.028-0.065,0.038-0.101,0.029c0.004,0.031-0.012,0.084-0.045,0.152c-0.032,0.068-0.048,0.117-0.047,0.145
				c0.004,0.048,0.043,0.083,0.117,0.106c-0.014,0.108-0.018,0.222-0.011,0.341c0.005,0.063,0.019,0.211,0.046,0.441
				c0.031,0.181,0.043,0.337,0.037,0.466c0.061,0.003,0.117,0.002,0.172-0.002c0.233-0.013,0.385-0.105,0.455-0.276
				c0.022-0.05,0.05-0.23,0.079-0.538C75.113,279.8,75.185,279.638,75.299,279.545z"></path>
		</g>
		<g>
			<path fill="#010101" d="M43.002,269.09v0.008c-0.029,0.28-0.039,0.474-0.027,0.579c-0.044,0.018-0.102,0.021-0.169,0.009
				c-0.091-0.015-0.141-0.022-0.154-0.021c-0.039,0.002-0.071,0.017-0.094,0.041c-0.056-0.035-0.093-0.051-0.111-0.045
				c-0.053,0.031-0.078,0.076-0.075,0.135c0.002,0.025,0.011,0.065,0.029,0.126c0.018,0.062,0.028,0.105,0.029,0.134
				c0.001,0.039-0.007,0.101-0.024,0.185s-0.025,0.151-0.023,0.206c0.004,0.062,0.018,0.163,0.042,0.299
				c0.024,0.134,0.036,0.235,0.04,0.304c-0.027,0.133-0.037,0.268-0.031,0.403c0.009,0.166,0.055,0.388,0.137,0.667
				c0.016,0.004,0.029,0.006,0.045,0.004c0.032-0.001,0.073-0.026,0.12-0.072c0.046-0.045,0.087-0.068,0.12-0.071
				c0.023-0.001,0.053,0.004,0.082,0.018c0.088,0.282,0.132,0.467,0.138,0.549c0.002,0.04,0.001,0.081,0,0.124
				c-0.132,0.032-0.225-0.013-0.278-0.133c0.007-0.033-0.013-0.069-0.058-0.106l-0.146,0.154c0.143,0.021,0.199,0.131,0.17,0.327
				c-0.013,0.04-0.043,0.062-0.092,0.063c-0.084-0.001-0.122-0.001-0.117-0.001l-0.12-0.214l-0.048,0.061
				c-0.041-0.101-0.086-0.148-0.14-0.145c-0.029,0.001-0.079,0.025-0.153,0.071c-0.073,0.049-0.135,0.073-0.182,0.075
				c-0.039,0.004-0.078-0.007-0.119-0.029c-0.002-0.059-0.01-0.118-0.02-0.182s-0.043-0.104-0.098-0.12
				c-0.003-0.152,0.002-0.548,0.012-1.192c0.006-0.487,0-0.883-0.015-1.184c-0.007-0.127-0.015-0.25-0.026-0.371
				c-0.025-0.037-0.052-0.056-0.076-0.055c-0.021,0.001-0.05,0.021-0.089,0.062c-0.039,0.042-0.073,0.061-0.102,0.057
				c-0.004-0.048-0.025-0.127-0.066-0.234c-0.043-0.106-0.064-0.186-0.068-0.233c-0.004-0.083,0.027-0.155,0.092-0.217l0.171,0.042
				c0.067-0.096,0.097-0.258,0.086-0.486c-0.004-0.044-0.009-0.114-0.019-0.208s-0.016-0.163-0.018-0.208
				c-0.02-0.373,0.097-0.567,0.345-0.58c0.091-0.005,0.205,0.013,0.336,0.05l0.164,0.042c0.014,0.062,0.021,0.128,0.025,0.195
				c0.004,0.094,0,0.229-0.012,0.408c-0.015,0.179-0.019,0.31-0.015,0.39c0.007,0.133,0.029,0.252,0.069,0.357
				c0.038-0.003,0.1-0.024,0.184-0.064c0.082-0.041,0.143-0.062,0.182-0.063C42.903,268.993,42.961,269.023,43.002,269.09z
				 M42.493,269.613l-0.008-0.168l-0.053-0.048L42.493,269.613z"></path>
			<path fill="#010101" d="M45.008,268.565l0.007-0.001c-0.018,0.133-0.037,0.266-0.061,0.398c-0.025,0.151-0.068,0.271-0.128,0.357
				c-0.01-0.004-0.069-0.031-0.18-0.086c-0.075-0.04-0.142-0.056-0.198-0.049c-0.045,0.286-0.068,0.674-0.074,1.167
				c-0.002,0.629-0.008,1.009-0.015,1.14c-0.075-0.004-0.129,0.019-0.165,0.072c-0.037,0.053-0.071,0.105-0.103,0.161
				c-0.013,0.03-0.019,0.058-0.018,0.081c0.002,0.04,0.035,0.078,0.101,0.112c0.064,0.036,0.1,0.075,0.102,0.119
				c-0.029,0.104-0.091,0.159-0.183,0.162c-0.043,0.003-0.121-0.012-0.229-0.038c-0.106-0.029-0.184-0.043-0.229-0.04l-0.104-2.086
				c0.041-0.054,0.059-0.093,0.054-0.111l-0.061-0.04c0.005-0.088,0.01-0.526,0.013-1.312c0.004-0.531,0.023-0.961,0.061-1.289
				c-0.004,0.001,0.145-0.01,0.451-0.03c0.189-0.01,0.313,0.043,0.368,0.158c0,0.106-0.012,0.286-0.033,0.541
				c-0.021,0.235-0.029,0.416-0.023,0.542c0.01,0.157,0.032,0.296,0.074,0.421C44.597,268.694,44.789,268.577,45.008,268.565z
				 M45.732,269.012c0.014,0.193,0.025,0.384,0.036,0.569c0.04,0.807,0.028,1.67-0.038,2.589c-0.07,0.063-0.179,0.076-0.325,0.041
				c-0.145-0.034-0.25-0.02-0.314,0.041c-0.083-0.107-0.132-0.301-0.146-0.584c-0.021-0.408-0.031-0.619-0.032-0.634
				c-0.017-1.022,0.083-1.85,0.3-2.479C45.464,268.62,45.637,268.772,45.732,269.012z"></path>
			<path fill="#010101" d="M48.291,270.07c-0.031,0.065-0.045,0.134-0.04,0.205c0.003,0.075,0.005,0.146,0.011,0.214
				c-0.008,0.059-0.023,0.116-0.049,0.179c-0.046-0.013-0.083-0.019-0.114-0.018c-0.033,0.002-0.067,0.014-0.102,0.038
				c-0.035,0.024-0.064,0.037-0.082,0.037c-0.03,0.002-0.07-0.009-0.12-0.03l-0.339-0.494c0.013,0.145,0.046,0.272,0.101,0.383
				c0.027,0.056,0.055,0.113,0.081,0.169c-0.197,0.036-0.311,0.043-0.336,0.019l-0.047,0.062l-0.117-0.155
				c-0.092,0.111-0.113,0.275-0.062,0.492c0.06,0.236,0.062,0.406,0.01,0.512c0.074,0.108,0.162,0.159,0.264,0.154
				c0.045-0.002,0.082-0.018,0.115-0.049c0.047-0.121,0.095-0.239,0.143-0.359c0.07-0.145,0.15-0.22,0.236-0.223
				c0.068-0.005,0.148,0.031,0.238,0.105c0.11,0.038,0.167,0.089,0.171,0.151c0.001,0.039-0.023,0.104-0.075,0.189
				c-0.051,0.088-0.078,0.156-0.074,0.206c0.002,0.019,0.004,0.035,0.01,0.051c-0.07,0.051-0.133,0.13-0.189,0.235
				c-0.056,0.105-0.129,0.178-0.22,0.217c-0.077,0.075-0.151,0.116-0.22,0.12c-0.053,0.002-0.134-0.039-0.24-0.123
				c-0.105-0.086-0.205-0.124-0.297-0.121c-0.039-0.085-0.135-0.181-0.286-0.285c-0.15-0.104-0.244-0.217-0.281-0.337
				c0.002,0.009,0-0.028-0.004-0.116c-0.003-0.049-0.024-0.08-0.064-0.092l0.055-0.054c-0.072-0.002-0.109-0.043-0.113-0.127
				c-0.002-0.009-0.003-0.029-0.004-0.059c0.004-0.024,0.005-0.043,0.004-0.059c-0.003-0.058-0.021-0.098-0.057-0.121l-0.013-0.254
				c-0.007-0.132-0.034-0.227-0.081-0.281c0.049-0.311,0.096-0.62,0.144-0.929c0.079-0.359,0.198-0.544,0.353-0.552
				c0.024-0.001,0.049,0.002,0.072,0.01c0.142-0.138,0.31-0.213,0.509-0.222c0.22-0.011,0.461,0.056,0.727,0.197
				C48.112,269.298,48.241,269.669,48.291,270.07z M47.286,269.265l-0.049,0.062c-0.033,0.007-0.074-0.01-0.119-0.052l0.009,0.167
				c-0.075,0.082-0.104,0.208-0.092,0.379c0.016,0.292,0.022,0.432,0.022,0.422l0.219-0.003c0.104-0.06,0.152-0.156,0.145-0.292
				c-0.002-0.069-0.025-0.181-0.071-0.337C47.306,269.454,47.284,269.341,47.286,269.265z"></path>
		</g>
		<g>
			<polygon fill-rule="evenodd" clip-rule="evenodd" fill="#010101" points="50.005,277.428 50.222,277.553 50.959,275.618 
				50.712,275.537 49.976,277.472 50.19,277.608 50.005,277.428 50.005,277.428 			"></polygon>
			<polygon fill-rule="evenodd" clip-rule="evenodd" fill="#010101" points="50.325,277.16 50.237,277.195 50.005,277.428 
				50.19,277.608 50.428,277.363 50.335,277.409 50.325,277.16 50.325,277.16 			"></polygon>
			<polygon fill-rule="evenodd" clip-rule="evenodd" fill="#010101" points="52.109,277.146 52.216,277.062 50.325,277.16 
				50.335,277.409 52.224,277.313 52.344,277.224 52.109,277.146 52.109,277.146 52.109,277.146 			"></polygon>
			<polygon fill-rule="evenodd" clip-rule="evenodd" fill="#010101" points="52.964,275.367 52.835,275.207 52.109,277.146 
				52.344,277.224 53.079,275.289 52.952,275.129 52.964,275.367 52.964,275.367 52.964,275.367 			"></polygon>
			<polygon fill-rule="evenodd" clip-rule="evenodd" fill="#010101" points="51.164,275.429 51.071,275.476 52.964,275.367 
				52.952,275.129 51.067,275.212 50.974,275.261 51.164,275.429 51.164,275.429 51.164,275.429 			"></polygon>
			<polygon fill-rule="evenodd" clip-rule="evenodd" fill="#010101" points="50.959,275.618 50.931,275.661 51.164,275.429 
				50.974,275.261 50.738,275.494 50.712,275.537 50.959,275.618 50.959,275.618 50.959,275.618 			"></polygon>
			<polygon fill-rule="evenodd" clip-rule="evenodd" fill="#010101" points="52.526,277.374 52.694,277.301 52.29,277.075 
				52.162,277.305 52.577,277.534 52.761,277.453 52.515,277.371 52.515,277.371 52.526,277.374 			"></polygon>
			<polygon fill-rule="evenodd" clip-rule="evenodd" fill="#010101" points="53.317,275.59 53.251,275.437 52.515,277.371 
				52.761,277.453 53.496,275.519 53.43,275.367 53.317,275.59 53.317,275.59 			"></polygon>
			<polygon fill-rule="evenodd" clip-rule="evenodd" fill="#010101" points="53.079,275.289 52.897,275.37 53.317,275.59 
				53.43,275.367 53.026,275.141 52.835,275.207 53.079,275.289 53.079,275.289 			"></polygon>
			<polygon fill="#010101" points="50.842,275.581 50.829,275.576 51.064,275.343 52.815,275.257 52.835,275.207 52.964,275.249 
				53.079,275.289 53.072,275.31 53.38,275.479 53.496,275.519 53.448,275.645 54.307,277.683 53.582,279.622 52.644,277.415 
				52.644,277.415 52.522,277.464 52.515,277.371 52.524,277.348 52.229,277.186 52.162,277.305 52.124,277.189 50.325,277.276 
				50.093,277.51 			"></polygon>
			<polygon fill-rule="evenodd" clip-rule="evenodd" fill="#010101" points="53.464,279.582 53.701,279.57 52.764,277.363 
				52.522,277.464 53.46,279.672 53.698,279.66 53.452,279.579 53.452,279.579 53.464,279.582 			"></polygon>
			<polygon fill-rule="evenodd" clip-rule="evenodd" fill="#010101" points="54.197,277.738 54.189,277.644 53.452,279.579 
				53.698,279.66 54.436,277.727 54.427,277.634 54.197,277.738 54.197,277.738 			"></polygon>
			<polygon fill-rule="evenodd" clip-rule="evenodd" fill="#010101" points="53.496,275.519 53.259,275.529 54.197,277.738 
				54.427,277.634 53.49,275.425 53.251,275.437 53.496,275.519 53.496,275.519 			"></polygon>
			<polygon fill-rule="evenodd" clip-rule="evenodd" fill="#FFFFFF" points="53.434,276.017 53.539,276.247 53.578,276.479 
				53.567,276.709 53.5,276.947 53.382,277.18 53.224,277.388 53.018,277.576 52.768,277.741 52.632,277.8 52.496,277.857 
				52.344,277.886 52.203,277.916 52.066,277.935 51.919,277.95 51.783,277.932 51.643,277.924 51.521,277.896 51.395,277.853 
				51.27,277.799 51.16,277.736 51.067,277.666 50.963,277.592 50.877,277.498 50.806,277.397 50.699,277.169 50.661,276.934 
				50.661,276.7 50.739,276.468 50.842,276.241 51.005,276.024 51.211,275.833 51.472,275.674 51.598,275.611 51.745,275.557 
				51.884,275.526 52.023,275.495 52.174,275.479 52.309,275.46 52.446,275.479 52.585,275.487 52.714,275.529 52.842,275.573 
				52.959,275.611 53.079,275.679 53.177,275.735 53.278,275.822 53.349,275.923 53.434,276.017 53.434,276.017 53.434,276.017 			
				"></polygon>
			<polygon fill-rule="evenodd" clip-rule="evenodd" fill="#010101" points="53.528,276.398 53.633,276.629 53.668,276.873 
				53.658,277.104 53.594,277.329 53.489,277.567 53.312,277.78 53.122,277.964 52.861,278.123 52.722,278.192 52.585,278.25 
				52.444,278.28 52.294,278.311 52.157,278.329 52.023,278.338 51.883,278.329 51.736,278.306 51.615,278.277 51.486,278.235 
				51.374,278.185 51.254,278.118 51.156,278.06 51.066,277.978 50.978,277.896 50.898,277.78 50.79,277.562 50.751,277.328 
				50.767,277.086 50.829,276.86 50.936,276.623 51.095,276.416 51.301,276.226 51.561,276.067 51.701,275.997 51.834,275.949 
				51.978,275.907 52.13,275.881 52.263,275.872 52.399,275.854 52.536,275.872 52.674,275.881 52.808,275.911 52.937,275.954 
				53.05,276.005 53.174,276.061 53.267,276.129 53.372,276.203 53.44,276.305 53.524,276.41 53.524,276.41 53.528,276.398 			"></polygon>
			<polygon fill-rule="evenodd" clip-rule="evenodd" fill="#FFFFFF" points="53.594,276.667 53.703,276.885 53.737,277.131 
				53.726,277.361 53.664,277.585 53.548,277.819 53.382,278.037 53.192,278.22 52.933,278.379 52.804,278.453 52.655,278.508 
				52.515,278.539 52.363,278.565 52.228,278.586 52.094,278.594 51.953,278.586 51.806,278.562 51.686,278.534 51.557,278.492 
				51.444,278.441 51.323,278.375 51.227,278.316 51.125,278.231 51.051,278.142 50.969,278.037 50.861,277.819 50.82,277.584 
				50.833,277.355 50.898,277.117 51.004,276.881 51.168,276.663 51.381,276.487 51.631,276.323 51.771,276.255 51.907,276.194 
				52.049,276.164 52.2,276.136 52.336,276.118 52.469,276.109 52.62,276.122 52.745,276.136 52.878,276.169 53.005,276.212 
				53.13,276.265 53.238,276.327 53.336,276.388 53.44,276.46 53.512,276.562 53.594,276.667 53.594,276.667 			"></polygon>
			<polygon fill-rule="evenodd" clip-rule="evenodd" fill="#010101" points="53.688,277.048 53.793,277.277 53.832,277.513 
				53.832,277.744 53.753,277.979 53.652,278.205 53.477,278.418 53.282,278.614 53.021,278.772 52.897,278.835 52.749,278.889 
				52.608,278.921 52.469,278.95 52.319,278.968 52.184,278.985 52.047,278.968 51.907,278.959 51.775,278.929 51.646,278.885 
				51.533,278.835 51.412,278.769 51.32,278.697 51.227,278.629 51.141,278.534 51.059,278.43 50.965,278.204 50.914,277.966 
				50.927,277.736 50.992,277.498 51.105,277.276 51.27,277.06 51.475,276.868 51.725,276.706 51.86,276.646 51.996,276.589 
				52.149,276.562 52.29,276.53 52.427,276.511 52.57,276.507 52.71,276.515 52.839,276.518 52.972,276.55 53.099,276.593 
				53.224,276.646 53.332,276.709 53.438,276.783 53.531,276.854 53.617,276.947 53.684,277.061 53.684,277.061 53.688,277.048 			
				"></polygon>
			<polygon fill-rule="evenodd" clip-rule="evenodd" fill="#FFFFFF" points="53.823,277.301 53.934,277.521 53.972,277.753 
				53.967,277.998 53.905,278.224 53.788,278.458 53.613,278.672 53.422,278.854 53.173,279.019 53.032,279.088 52.885,279.143 
				52.744,279.174 52.604,279.204 52.456,279.22 52.324,279.229 52.184,279.22 52.047,279.2 51.915,279.17 51.786,279.127 
				51.674,279.075 51.561,279.025 51.457,278.95 51.365,278.87 51.281,278.775 51.211,278.676 51.101,278.457 51.055,278.208 
				51.066,277.978 51.141,277.756 51.245,277.52 51.408,277.301 51.611,277.122 51.86,276.959 52,276.889 52.137,276.83 
				52.286,276.814 52.429,276.771 52.565,276.752 52.71,276.749 52.851,276.757 52.974,276.771 53.106,276.803 53.247,276.85 
				53.358,276.9 53.474,276.951 53.578,277.025 53.668,277.107 53.754,277.201 53.823,277.301 53.823,277.301 			"></polygon>
			<polygon fill-rule="evenodd" clip-rule="evenodd" fill="#010101" points="53.929,277.688 54.021,277.913 54.072,278.15 
				54.06,278.38 53.994,278.616 53.881,278.84 53.718,279.058 53.512,279.249 53.261,279.411 53.126,279.47 52.978,279.524 
				52.839,279.555 52.698,279.587 52.562,279.605 52.414,279.62 52.277,279.603 52.137,279.594 52.016,279.566 51.876,279.52 
				51.763,279.469 51.654,279.407 51.549,279.333 51.457,279.263 51.37,279.169 51.301,279.068 51.195,278.839 51.145,278.602 
				51.156,278.371 51.233,278.137 51.335,277.91 51.498,277.693 51.705,277.502 51.966,277.344 52.09,277.281 52.239,277.228 
				52.379,277.195 52.521,277.165 52.667,277.149 52.804,277.13 52.938,277.149 53.068,277.153 53.212,277.188 53.339,277.231 
				53.453,277.283 53.562,277.345 53.668,277.418 53.76,277.488 53.846,277.582 53.929,277.688 53.929,277.688 53.929,277.688 			
				"></polygon>
			<polygon fill-rule="evenodd" clip-rule="evenodd" fill="#010101" points="41.056,274.716 41.068,274.643 40.328,276.588 
				40.562,276.665 41.301,274.72 41.305,274.67 41.056,274.716 41.056,274.716 41.056,274.716 			"></polygon>
			<polygon fill-rule="evenodd" clip-rule="evenodd" fill="#010101" points="41.037,274.617 41.041,274.606 41.056,274.716 
				41.305,274.67 41.278,274.556 41.283,274.545 41.037,274.617 41.037,274.617 41.037,274.617 			"></polygon>
			<polygon fill-rule="evenodd" clip-rule="evenodd" fill="#010101" points="41.01,274.506 41.037,274.617 41.283,274.545 
				41.255,274.431 41.01,274.506 41.01,274.506 41.01,274.506 			"></polygon>
			<polygon fill-rule="evenodd" clip-rule="evenodd" fill="#010101" points="40.979,274.404 41.01,274.506 41.255,274.431 
				41.225,274.331 40.979,274.404 40.979,274.404 			"></polygon>
			<polygon fill-rule="evenodd" clip-rule="evenodd" fill="#010101" points="40.951,274.291 40.951,274.291 40.979,274.404 
				41.225,274.331 41.196,274.218 41.193,274.229 40.951,274.291 40.951,274.291 40.951,274.291 			"></polygon>
			<polygon fill-rule="evenodd" clip-rule="evenodd" fill="#010101" points="40.92,274.151 40.92,274.191 40.951,274.291 
				41.193,274.229 41.162,274.128 41.174,274.171 40.92,274.151 40.92,274.151 			"></polygon>
			<polygon fill-rule="evenodd" clip-rule="evenodd" fill="#010101" points="41.168,274.104 40.924,274.062 40.92,274.151 
				41.174,274.171 41.176,274.082 40.932,274.037 41.165,274.115 41.165,274.115 41.168,274.104 			"></polygon>
			<polygon fill-rule="evenodd" clip-rule="evenodd" fill="#4D494A" points="41.381,279.769 41.358,279.644 41.099,279.687 
				41.117,279.823 41.381,279.769 41.381,279.769 41.381,279.769 			"></polygon>
			<polygon fill-rule="evenodd" clip-rule="evenodd" fill="#010101" points="41.925,278.146 41.933,278.084 41.195,280.019 
				41.429,280.095 42.165,278.161 42.161,278.095 41.925,278.146 41.925,278.146 41.925,278.146 			"></polygon>
			<polygon fill-rule="evenodd" clip-rule="evenodd" fill="#010101" points="41.904,278.01 41.925,278.146 42.161,278.095 
				42.143,277.959 41.893,278.006 41.893,278.006 41.904,278.01 			"></polygon>
			<polygon fill-rule="evenodd" clip-rule="evenodd" fill="#010101" points="41.87,277.882 41.893,278.006 42.143,277.959 
				42.106,277.831 41.87,277.882 41.87,277.882 41.87,277.882 			"></polygon>
			<polygon fill-rule="evenodd" clip-rule="evenodd" fill="#010101" points="41.839,277.741 41.847,277.756 41.87,277.882 
				42.106,277.831 42.088,277.693 42.095,277.71 41.839,277.741 41.839,277.741 41.839,277.741 			"></polygon>
			<polygon fill-rule="evenodd" clip-rule="evenodd" fill="#010101" points="42.071,277.624 41.823,277.592 41.839,277.741 
				42.095,277.71 42.076,277.575 41.827,277.543 42.071,277.624 42.071,277.624 			"></polygon>
			<g>
				<polygon fill="#4D494A" points="40.329,276.202 40.21,276.237 40.329,276.202 				"></polygon>
				<polygon fill="#4D494A" points="40.451,276.607 40.457,276.597 40.518,276.602 40.562,276.665 40.453,276.63 				"></polygon>
				<polygon fill="#010101" points="40.183,276.125 40.311,276.101 40.312,276.012 41.053,274.067 41.049,274.077 41.049,274.156 
					41.068,274.254 41.107,274.37 41.138,274.472 41.165,274.583 41.185,274.681 41.185,274.681 41.301,274.72 40.562,276.665 
					40.518,276.602 40.457,276.597 40.451,276.607 40.453,276.63 40.562,276.665 40.453,276.659 40.457,276.748 40.382,276.654 
					40.32,276.65 40.304,276.541 40.35,276.531 40.397,276.406 40.272,276.441 40.237,276.351 40.21,276.237 40.329,276.202 
					40.329,276.202 40.21,276.237 40.214,276.226 				"></polygon>
			</g>
			<g>
				<polygon fill="none" points="46.211,276.656 46.211,276.656 46.317,276.419 				"></polygon>
				<polygon fill="#010101" points="40.449,276.499 45.869,276.321 46.009,276.327 46.032,276.338 46.164,276.368 46.176,276.373 
					46.317,276.419 46.452,276.478 46.464,276.481 46.594,276.563 46.616,276.57 46.717,276.656 46.749,276.681 46.822,276.769 
					46.829,276.785 46.882,276.866 46.886,276.895 46.646,276.966 46.608,276.906 46.605,276.918 46.542,276.832 46.543,276.832 
					46.459,276.765 46.479,276.785 46.348,276.716 46.348,276.714 46.211,276.656 46.211,276.656 46.094,276.617 45.961,276.587 
					45.986,276.594 45.861,276.578 45.861,276.566 40.457,276.748 				"></polygon>
				<polygon fill="#010101" points="46.64,276.969 46.646,276.966 46.658,276.987 				"></polygon>
			</g>
			<polygon fill-rule="evenodd" clip-rule="evenodd" fill="#010101" points="49.535,281.516 49.535,281.439 48.795,283.385 
				49.041,283.467 49.781,281.52 49.781,281.443 49.535,281.516 49.535,281.516 49.535,281.516 			"></polygon>
			<polygon fill-rule="evenodd" clip-rule="evenodd" fill="#010101" points="47.396,275.052 47.38,275.022 49.535,281.516 
				49.781,281.443 47.626,274.947 47.621,274.922 47.396,275.052 47.396,275.052 47.396,275.052 			"></polygon>
			<polygon fill-rule="evenodd" clip-rule="evenodd" fill="#010101" points="47.353,274.987 47.346,274.972 47.396,275.052 
				47.621,274.922 47.571,274.839 47.56,274.834 47.341,274.983 47.341,274.983 47.353,274.987 			"></polygon>
			<polygon fill-rule="evenodd" clip-rule="evenodd" fill="#010101" points="47.302,274.905 47.282,274.886 47.341,274.983 
				47.56,274.834 47.478,274.731 47.456,274.71 47.302,274.905 47.302,274.905 47.302,274.905 			"></polygon>
			<polygon fill-rule="evenodd" clip-rule="evenodd" fill="#010101" points="47.216,274.851 47.197,274.831 47.302,274.905 
				47.456,274.71 47.353,274.637 47.333,274.617 47.216,274.851 47.216,274.851 			"></polygon>
			<polygon fill-rule="evenodd" clip-rule="evenodd" fill="#010101" points="47.1,274.772 47.088,274.769 47.216,274.851 
				47.333,274.617 47.2,274.547 47.189,274.544 47.1,274.772 47.1,274.772 			"></polygon>
			<polygon fill-rule="evenodd" clip-rule="evenodd" fill="#010101" points="46.976,274.719 46.948,274.722 47.1,274.772 
				47.189,274.544 47.054,274.484 47.042,274.481 46.96,274.725 46.96,274.725 46.976,274.719 			"></polygon>
			<polygon fill-rule="evenodd" clip-rule="evenodd" fill="#010101" points="46.834,274.672 46.817,274.679 46.96,274.725 
				47.042,274.481 46.9,274.435 46.9,274.435 46.829,274.683 46.829,274.683 46.834,274.672 			"></polygon>
			<polygon fill-rule="evenodd" clip-rule="evenodd" fill="#010101" points="46.726,274.647 46.701,274.641 46.829,274.683 
				46.9,274.435 46.756,274.399 46.744,274.396 46.726,274.647 46.726,274.647 46.726,274.647 			"></polygon>
			<polygon fill-rule="evenodd" clip-rule="evenodd" fill="#010101" points="46.6,274.632 46.597,274.644 46.726,274.647 
				46.744,274.396 46.608,274.374 46.594,274.384 46.6,274.632 46.6,274.632 			"></polygon>
			<polygon fill-rule="evenodd" clip-rule="evenodd" fill="#010101" points="41.312,274.724 41.182,274.808 46.6,274.632 
				46.594,274.384 41.185,274.564 41.068,274.643 41.301,274.72 41.301,274.72 41.312,274.724 			"></polygon>
			<polygon fill="#4D494A" points="42.675,280.642 42.656,280.631 42.667,280.625 			"></polygon>
			<g>
				<polygon fill="#4D494A" points="45.604,281.517 45.58,281.779 45.604,281.517 				"></polygon>
				<g>
					<polygon fill="none" points="45.592,281.643 45.58,281.779 45.592,281.643 					"></polygon>
					<g>
						<polygon fill="none" points="41.198,279.535 41.207,279.516 41.211,279.541 						"></polygon>
						<path fill="#010101" d="M41.117,279.823l0.023,0.125l0.046,0.133l0.06,0.098l0.33,0.174l0.331,0.175l0.319,0.173l0.323,0.159
							l0.012,0.004l0.328,0.147l0.326,0.149l0.354,0.144l0.358,0.133l0.011,0.003l0.382,0.102l0.383,0.102l0.012,0.004l0.42,0.062
							l0.432,0.067l0.013,0.003l0.47,0.025l0.017-0.006l0.502,0.013l0.537-0.018l0.568-0.03l0.117-0.077l0.736-1.935l-0.125-0.172
							l0.008,0.25l-0.039-0.049l0.029-0.072l-0.082,0.005l-0.034-0.044l-0.02,0.049l-0.422,0.024h-0.546l-0.502-0.011l-0.459-0.023
							l-0.447-0.059l-0.418-0.073l-0.382-0.103l-0.381-0.101l-0.357-0.133l-0.349-0.13l-0.326-0.147l-0.322-0.159l-0.336-0.164
							l-0.319-0.171l-0.318-0.172l-0.221-0.117l0.006-0.02l-0.117-0.039l0,0l-0.029-0.139l-0.023-0.126l-0.011-0.042l0.087-0.191
							l-0.122-0.04l-0.006-0.003l0,0l-0.116-0.038l-0.737,1.935l-0.008,0.062l0.02,0.136L41.117,279.823z M41.207,279.516
							l0.004,0.025l-0.013-0.006L41.207,279.516z"></path>
					</g>
				</g>
			</g>
			<polygon fill-rule="evenodd" clip-rule="evenodd" fill="#010101" points="47.843,279.861 48.41,279.83 48.402,279.58 
				47.833,279.612 47.843,279.861 47.843,279.861 47.843,279.861 			"></polygon>
			<polygon fill-rule="evenodd" clip-rule="evenodd" fill="#010101" points="47.306,279.877 47.843,279.861 47.833,279.612 
				47.297,279.628 47.306,279.877 47.306,279.877 47.306,279.877 			"></polygon>
			<polygon fill-rule="evenodd" clip-rule="evenodd" fill="#010101" points="46.791,279.861 46.803,279.862 47.306,279.877 
				47.297,279.628 46.795,279.615 46.811,279.607 46.787,279.871 46.787,279.871 46.791,279.861 			"></polygon>
			<polygon fill-rule="evenodd" clip-rule="evenodd" fill="#010101" points="46.307,279.83 46.319,279.833 46.787,279.871 
				46.811,279.607 46.339,279.579 46.351,279.584 46.307,279.83 46.307,279.83 46.307,279.83 			"></polygon>
			<polygon fill-rule="evenodd" clip-rule="evenodd" fill="#010101" points="45.871,279.774 46.307,279.83 46.351,279.584 
				45.918,279.518 45.871,279.774 45.871,279.774 			"></polygon>
			<polygon fill-rule="evenodd" clip-rule="evenodd" fill="#010101" points="45.442,279.696 45.454,279.702 45.871,279.774 
				45.918,279.518 45.485,279.451 45.497,279.455 45.442,279.696 45.442,279.696 45.442,279.696 			"></polygon>
			<polygon fill-rule="evenodd" clip-rule="evenodd" fill="#010101" points="45.062,279.595 45.442,279.696 45.497,279.455 
				45.117,279.354 45.058,279.606 45.058,279.606 45.062,279.595 			"></polygon>
			<polygon fill-rule="evenodd" clip-rule="evenodd" fill="#010101" points="44.664,279.502 44.677,279.506 45.058,279.606 
				45.117,279.354 44.735,279.252 44.747,279.257 44.664,279.502 44.664,279.502 			"></polygon>
			<polygon fill-rule="evenodd" clip-rule="evenodd" fill="#010101" points="44.307,279.368 44.307,279.368 44.664,279.502 
				44.747,279.257 44.39,279.124 44.402,279.127 44.296,279.365 44.296,279.365 44.307,279.368 			"></polygon>
			<polygon fill-rule="evenodd" clip-rule="evenodd" fill="#010101" points="43.951,279.225 44.296,279.365 44.402,279.127 
				44.058,278.986 43.951,279.225 43.951,279.225 			"></polygon>
			<polygon fill-rule="evenodd" clip-rule="evenodd" fill="#010101" points="43.625,279.076 43.951,279.225 44.058,278.986 
				43.727,278.85 43.625,279.076 43.625,279.076 			"></polygon>
			<polygon fill-rule="evenodd" clip-rule="evenodd" fill="#010101" points="43.291,278.912 43.297,278.93 43.625,279.076 
				43.727,278.85 43.393,278.688 43.404,278.692 43.287,278.924 43.287,278.924 43.291,278.912 			"></polygon>
			<polygon fill-rule="evenodd" clip-rule="evenodd" fill="#010101" points="42.968,278.754 43.287,278.924 43.404,278.692 
				43.081,278.532 42.965,278.765 42.965,278.765 42.968,278.754 			"></polygon>
			<polygon fill-rule="evenodd" clip-rule="evenodd" fill="#010101" points="42.647,278.582 42.965,278.765 43.081,278.532 
				42.761,278.361 42.636,278.579 42.636,278.579 42.647,278.582 			"></polygon>
			<polygon fill-rule="evenodd" clip-rule="evenodd" fill="#010101" points="42.316,278.407 42.636,278.579 42.761,278.361 
				42.441,278.188 42.316,278.407 42.316,278.407 			"></polygon>
			<polygon fill-rule="evenodd" clip-rule="evenodd" fill="#010101" points="42.165,278.161 41.986,278.231 42.316,278.407 
				42.441,278.188 42.111,278.014 41.933,278.084 42.165,278.161 42.165,278.161 42.165,278.161 			"></polygon>
			<polygon fill-rule="evenodd" clip-rule="evenodd" fill="#010101" points="75.918,274.655 75.178,276.602 77.596,277.408 
				78.156,276.115 78.17,275.991 78.176,275.862 78.156,275.726 78.108,275.594 78.031,275.478 77.969,275.352 77.867,275.229 
				77.763,275.115 77.654,275.015 77.533,274.909 77.408,274.814 77.287,274.748 77.171,274.671 77.032,274.612 76.914,274.546 
				76.797,274.508 76.692,274.473 76.565,274.457 76.454,274.446 76.345,274.461 76.236,274.477 76.12,274.515 76.019,274.585 
				75.918,274.655 75.918,274.655 75.918,274.655 			"></polygon>
			<polygon fill-rule="evenodd" clip-rule="evenodd" fill="#010101" points="77.485,277.346 77.637,277.28 75.221,276.474 
				75.137,276.719 77.557,277.523 77.719,277.462 77.485,277.346 77.485,277.346 			"></polygon>
			<g>
				<polygon fill="none" points="77.951,277.906 77.968,278.037 77.951,277.906 				"></polygon>
				<polygon fill="none" points="79.198,276.604 79.288,276.689 79.192,276.62 				"></polygon>
				<g>
					<polygon fill="none" points="79.288,276.689 79.192,276.62 79.198,276.604 					"></polygon>
					<g>
						<polygon fill="none" points="79.288,276.689 79.192,276.62 79.198,276.604 						"></polygon>
						<polygon fill="#010101" points="40.183,276.008 40.194,275.973 40.932,274.037 41.165,274.115 40.451,276.027 40.438,276.105 
							40.434,276.078 40.183,276.125 40.18,276.098 						"></polygon>
						<g>
							<polygon fill="none" points="79.288,276.689 79.192,276.62 79.198,276.604 							"></polygon>
							<polygon fill="#4D494A" points="52.039,280.588 51.995,280.613 51.992,280.609 							"></polygon>
							<g>
								<polygon fill="none" points="52.086,280.7 52.179,280.789 52.086,280.7 								"></polygon>
								<polygon fill="none" points="79.288,276.689 79.192,276.62 79.198,276.604 								"></polygon>
								<polygon fill="none" points="48.912,283.424 48.92,283.424 48.92,283.427 48.795,283.385 48.9,283.386 								"></polygon>
								<path fill="#010101" d="M40.272,276.441l0.027,0.112l0.004-0.013l0.19-0.038l-0.049,0.124l5.42-0.177l0.127,0.004
									l0.142,0.048l0.14,0.045l0.14,0.048l0.129,0.08l0.104,0.075l0.074,0.091l0.045,0.089l-0.126,0.039l2.155,6.494l0.127,0.001
									l0.003,0.08h0.194l0.183-0.004l0.167,0.004l0.152-0.026l0.155-0.04l0.155-0.076l0.144-0.121l0.172-0.164l0.004-0.013
									l0.098-0.135l0.111-0.145l0.13-0.151l0.09-0.151l0.113-0.184l0.118-0.155l0.096-0.175l0.125-0.181l0.101-0.147l0.145-0.159
									l0.117-0.155l0.137-0.138l0.12-0.127l0.128-0.113l0.125-0.101l0.146-0.081l0.029-0.017l-0.093-0.089l0,0l0.093,0.089
									l0.146-0.159l0.132-0.126l0.117-0.115l0.125-0.103l0.121-0.088l0.127-0.075l0.113-0.065l0.125-0.062l0.139-0.032
									l0.137-0.058l0.142-0.032l0.162-0.022l0.179-0.032l0.2-0.011l0.214-0.019l0.21-0.009l0.012,0.005l23.39-1.749l0.136-0.017
									l0.125-0.025l0.113-0.026l0.117-0.038l0.109-0.055l0.113-0.067l0.093-0.085l0.109-0.095l0.022-0.029l0.409-0.953
									l-0.213-0.138l0.094,0.093l-0.014,0.012l-0.105-0.073l-0.102,0.239l-0.069,0.041l-0.089,0.036l-0.105,0.042l-0.098,0.02
									l-0.123,0.023l-0.126,0.023l-23.4,1.743l-0.149,0.014l-0.144,0.006l-0.143,0.003l-0.153,0.024h-0.155l-0.137,0.022
									l-0.148,0.015l-0.136,0.02l-0.153,0.028l-0.135,0.019l-0.14,0.03l-0.156,0.04l-0.141,0.03l-0.148,0.055l-0.148,0.056
									l-0.139,0.069l-0.276,0.167l-0.281,0.257l-0.296,0.304l-0.284,0.347l-0.276,0.361l-0.237,0.324l-0.234,0.311l-0.193,0.234
									l-0.114,0.026l-0.098,0.021l-0.121,0.012h-0.116h-0.117l-0.101-0.009l-0.128-0.004l-0.113-0.013l-2.147-6.479l-0.049-0.093
									l-0.072-0.091l-0.104-0.073l-0.143-0.085l-0.136-0.059l-0.141-0.048l-0.133-0.03l-0.129-0.004l-5.415,0.165l-0.651,1.712
									l-0.003-0.022L40.272,276.441z M79.192,276.62l0.006-0.017l0.09,0.086L79.192,276.62z"></path>
							</g>
						</g>
					</g>
				</g>
			</g>
			<polygon fill-rule="evenodd" clip-rule="evenodd" fill="#010101" points="78.373,277.098 78.514,277.065 78.638,277.043 
				78.752,277.015 78.869,276.976 78.978,276.921 79.091,276.856 79.179,276.782 79.288,276.689 79.103,276.509 79.021,276.599 
				78.935,276.662 78.853,276.712 78.763,276.746 78.677,276.77 78.576,276.801 78.467,276.816 78.346,276.828 78.373,277.098 
				78.373,277.098 			"></polygon>
			<polygon fill-rule="evenodd" clip-rule="evenodd" fill="#010101" points="54.987,278.833 78.373,277.098 78.346,276.828 
				54.957,278.575 54.987,278.833 54.987,278.833 			"></polygon>
			<polygon fill-rule="evenodd" clip-rule="evenodd" fill="#010101" points="52.694,279.248 52.83,279.189 52.962,279.143 
				53.122,279.092 53.255,279.046 53.397,279.003 53.535,278.984 53.672,278.964 53.823,278.938 53.948,278.912 54.091,278.91 
				54.24,278.895 54.387,278.879 54.535,278.863 54.666,278.855 54.827,278.844 54.987,278.833 54.957,278.575 54.808,278.591 
				54.661,278.605 54.505,278.605 54.356,278.622 54.211,278.626 54.072,278.657 53.928,278.66 53.769,278.672 53.628,278.702 
				53.489,278.734 53.336,278.762 53.179,278.8 53.048,278.847 52.889,278.896 52.729,278.948 52.588,279.018 52.694,279.248 
				52.694,279.248 52.694,279.248 			"></polygon>
			<polygon fill-rule="evenodd" clip-rule="evenodd" fill="#010101" points="50.598,281.559 50.649,281.524 50.754,281.403 
				50.848,281.279 50.96,281.136 51.078,280.979 51.211,280.816 51.33,280.648 51.467,280.473 51.604,280.299 51.743,280.111 
				51.887,279.951 52.027,279.804 52.173,279.644 52.294,279.516 52.444,279.411 52.569,279.311 52.694,279.248 52.588,279.018 
				52.429,279.108 52.294,279.204 52.133,279.333 51.981,279.478 51.842,279.625 51.699,279.773 51.546,279.968 51.408,280.143 
				51.272,280.317 51.136,280.492 51.017,280.66 50.883,280.823 50.766,280.979 50.652,281.123 50.561,281.248 50.475,281.35 
				50.521,281.324 50.598,281.559 50.598,281.559 50.598,281.559 			"></polygon>
			<polygon fill="none" points="75.866,274.768 75.918,274.655 76.011,274.57 76.15,274.5 76.314,274.477 76.403,274.48 
				76.506,274.488 76.602,274.508 76.699,274.527 76.816,274.566 76.922,274.602 77.034,274.652 77.155,274.718 77.257,274.765 
				77.362,274.839 77.455,274.909 77.558,274.995 77.662,275.068 77.734,275.157 77.825,275.239 77.898,275.329 78.034,275.504 
				78.104,275.684 78.14,275.773 78.159,275.832 78.148,275.984 78.119,276.104 78.033,276.205 77.91,276.267 77.742,276.302 
				77.649,276.311 77.553,276.29 77.439,276.279 77.318,276.252 77.213,276.217 77.097,276.177 76.972,276.124 76.862,276.061 
				76.75,276.01 76.628,275.944 76.522,275.871 76.423,275.784 76.329,275.714 76.232,275.618 76.146,275.523 76.073,275.433 
				75.952,275.249 75.882,275.072 75.862,275.014 75.842,274.916 			"></polygon>
			<polygon fill-rule="evenodd" clip-rule="evenodd" fill="#FFFFFF" points="46.119,274.523 46.6,274.516 46.64,274.516 
				42.493,273.133 42.283,273.257 46.113,274.535 46.113,274.535 46.119,274.523 			"></polygon>
			<polygon fill-rule="evenodd" clip-rule="evenodd" fill="#FFFFFF" points="46.119,274.523 41.185,274.681 41.165,274.583 
				41.138,274.472 41.107,274.37 41.068,274.254 41.049,274.156 41.049,274.077 41.08,273.984 41.165,273.921 41.369,273.782 
				41.594,273.65 41.819,273.518 42.046,273.385 42.261,273.248 42.283,273.257 46.113,274.535 46.113,274.535 46.119,274.523 			
				"></polygon>
			<polygon fill="#FFFFFF" points="43.119,277.52 46.479,277.33 47.794,277.859 48.259,279.233 48.4,279.709 47.843,279.743 
				47.297,279.743 46.795,279.732 46.336,279.709 45.889,279.65 45.471,279.577 45.089,279.475 44.708,279.374 44.351,279.241 
				44.002,279.111 43.676,278.964 43.354,278.805 43.018,278.641 42.698,278.47 42.38,278.298 42.048,278.122 42.019,277.983 
				41.995,277.857 41.964,277.719 41.943,277.581 			"></polygon>
			<polygon fill-rule="evenodd" clip-rule="evenodd" fill="#FFFFFF" points="51.584,277.904 51.631,277.959 52.063,278.22 
				52.203,277.995 51.771,277.733 51.813,277.799 51.584,277.904 51.6,277.935 51.631,277.959 51.584,277.904 51.584,277.904 			"></polygon>
			<polygon fill-rule="evenodd" clip-rule="evenodd" fill="#FFFFFF" points="47.741,277.984 47.667,277.896 48.284,279.747 
				48.527,279.673 47.913,277.819 47.845,277.746 47.913,277.819 47.893,277.763 47.845,277.746 47.741,277.984 47.741,277.984 
				47.741,277.984 			"></polygon>
			<polygon fill-rule="evenodd" clip-rule="evenodd" fill="#FFFFFF" points="46.492,277.452 46.428,277.443 47.741,277.984 
				47.845,277.746 46.535,277.205 46.483,277.202 46.535,277.205 46.511,277.198 46.483,277.202 46.492,277.452 46.492,277.452 
				46.492,277.452 			"></polygon>
			<polygon fill-rule="evenodd" clip-rule="evenodd" fill="#FFFFFF" points="42.076,277.575 41.951,277.714 46.492,277.452 
				46.483,277.202 41.944,277.464 41.823,277.592 41.944,277.464 41.8,277.468 41.823,277.592 42.076,277.575 42.076,277.575 			"></polygon>
			<polygon fill-rule="evenodd" clip-rule="evenodd" fill="#FFFFFF" points="42.111,278.014 42.161,278.095 42.157,278.028 
				42.143,277.959 42.139,277.894 42.118,277.834 42.114,277.769 42.099,277.699 42.08,277.64 42.076,277.575 41.823,277.592 
				41.823,277.671 41.835,277.753 41.854,277.809 41.858,277.876 41.877,277.935 41.893,278.006 41.921,278.08 41.925,278.146 
				41.986,278.231 41.925,278.146 41.943,278.204 41.986,278.231 42.111,278.014 42.111,278.014 			"></polygon>
			<polygon fill-rule="evenodd" clip-rule="evenodd" fill="#FFFFFF" points="48.285,279.735 48.391,279.577 47.833,279.612 
				47.297,279.628 46.811,279.607 46.339,279.579 45.918,279.518 45.497,279.455 45.117,279.354 44.747,279.257 44.39,279.124 
				44.058,278.986 43.727,278.85 43.404,278.692 43.081,278.532 42.761,278.361 42.441,278.188 42.111,278.014 41.986,278.231 
				42.316,278.407 42.636,278.579 42.965,278.765 43.287,278.924 43.625,279.076 43.951,279.225 44.307,279.368 44.664,279.502 
				45.058,279.606 45.442,279.696 45.871,279.774 46.319,279.833 46.787,279.871 47.306,279.877 47.843,279.861 48.422,279.834 
				48.527,279.673 48.422,279.834 48.582,279.821 48.527,279.673 48.284,279.747 48.284,279.747 48.285,279.735 			"></polygon>
			<g>
				<polygon fill="none" points="50.635,281.382 50.729,281.475 50.635,281.382 				"></polygon>
				<polygon fill="none" points="49.773,281.35 49.751,281.351 49.751,281.351 				"></polygon>
				<polygon fill="none" points="47.659,275.051 51.067,276.188 47.659,275.051 				"></polygon>
			</g>
			<polygon fill-rule="evenodd" clip-rule="evenodd" fill="#FFFFFF" points="54.957,278.575 54.786,278.583 54.593,278.61 
				54.424,278.616 54.236,278.632 54.057,278.664 53.866,278.692 53.676,278.72 53.492,278.762 53.308,278.805 53.149,278.854 
				52.974,278.912 52.812,278.976 52.67,279.046 52.503,279.119 52.367,279.217 52.241,279.317 52.398,279.514 52.519,279.423 
				52.636,279.345 52.764,279.271 52.911,279.217 53.056,279.136 53.212,279.096 53.395,279.054 53.555,279.003 53.73,278.984 
				53.886,278.944 54.072,278.93 54.252,278.898 54.442,278.87 54.629,278.854 54.804,278.836 54.987,278.833 54.957,278.575 
				54.957,278.575 54.957,278.575 			"></polygon>
			<polygon fill-rule="evenodd" clip-rule="evenodd" fill="#FFFFFF" points="78.346,276.828 54.957,278.575 54.987,278.833 
				78.373,277.098 78.346,276.828 78.346,276.828 			"></polygon>
			<polygon fill-rule="evenodd" clip-rule="evenodd" fill="#FFFFFF" points="78.782,275.402 78.88,275.539 78.98,275.665 
				79.028,275.797 79.103,275.926 79.141,276.043 79.152,276.162 79.155,276.267 79.148,276.368 79.12,276.451 79.083,276.529 
				79.031,276.603 78.94,276.677 78.849,276.725 78.7,276.778 78.546,276.816 78.346,276.828 78.373,277.098 78.587,277.077 
				78.774,277.022 78.937,276.959 79.083,276.88 79.216,276.793 79.308,276.668 79.358,276.556 79.405,276.416 79.401,276.271 
				79.409,276.132 79.378,275.991 79.326,275.833 79.269,275.694 79.19,275.539 79.091,275.377 78.989,275.252 78.782,275.402 
				78.782,275.402 			"></polygon>
			<polygon fill-rule="evenodd" clip-rule="evenodd" fill="#FFFFFF" points="75.995,274.071 76.206,274.063 76.419,274.084 
				76.638,274.13 76.847,274.162 77.045,274.228 77.245,274.294 77.436,274.384 77.615,274.47 77.801,274.57 77.973,274.679 
				78.156,274.793 78.287,274.9 78.428,275.025 78.565,275.162 78.677,275.29 78.782,275.402 78.989,275.252 78.869,275.107 
				78.731,274.972 78.595,274.834 78.443,274.706 78.275,274.586 78.109,274.466 77.938,274.355 77.744,274.238 77.541,274.146 
				77.334,274.063 77.122,273.994 76.901,273.919 76.684,273.872 76.461,273.837 76.208,273.818 75.988,273.819 75.995,274.071 
				75.995,274.071 			"></polygon>
			<polygon fill-rule="evenodd" clip-rule="evenodd" fill="#FFFFFF" points="55.3,274.784 75.995,274.071 75.988,273.819 
				55.304,274.538 55.3,274.784 55.3,274.784 			"></polygon>
			<polygon fill-rule="evenodd" clip-rule="evenodd" fill="#FFFFFF" points="52.033,274.264 52.228,274.343 52.435,274.386 
				52.634,274.451 52.839,274.494 53.056,274.542 53.259,274.597 53.48,274.631 53.68,274.658 53.887,274.702 54.1,274.721 
				54.311,274.752 54.517,274.755 54.715,274.783 54.927,274.775 55.116,274.788 55.3,274.784 55.304,274.538 55.108,274.538 
				54.917,274.527 54.738,274.52 54.535,274.504 54.333,274.487 54.132,274.472 53.934,274.444 53.724,274.413 53.518,274.37 
				53.317,274.343 53.116,274.289 52.905,274.258 52.703,274.201 52.488,274.145 52.309,274.098 52.11,274.031 52.029,274.276 
				52.029,274.276 52.033,274.264 			"></polygon>
			<polygon fill-rule="evenodd" clip-rule="evenodd" fill="#FFFFFF" points="45.052,272.352 45.405,272.301 45.74,272.269 
				46.061,272.245 46.353,272.226 46.629,272.215 46.878,272.246 47.135,272.254 47.349,272.273 47.571,272.308 47.778,272.353 
				47.972,272.391 48.147,272.449 48.334,272.511 48.482,272.573 48.665,272.647 48.809,272.721 48.977,272.805 49.145,272.885 
				49.307,272.979 49.471,273.073 49.636,273.165 49.807,273.276 49.974,273.357 50.156,273.47 50.358,273.563 50.553,273.681 
				50.771,273.766 50.982,273.875 51.219,273.979 51.477,274.067 51.75,274.183 52.029,274.276 52.11,274.031 51.83,273.938 
				51.555,273.833 51.323,273.741 51.083,273.649 50.861,273.535 50.67,273.446 50.476,273.329 50.284,273.24 50.098,273.139 
				49.923,273.041 49.76,272.948 49.589,272.838 49.424,272.745 49.256,272.663 49.09,272.582 48.938,272.491 48.771,272.41 
				48.588,272.336 48.416,272.267 48.229,272.204 48.03,272.137 47.824,272.095 47.614,272.063 47.384,272.013 47.147,271.984 
				46.901,271.982 46.616,271.978 46.344,271.977 46.028,271.988 45.711,272.012 45.37,272.055 45.021,272.094 45.04,272.346 
				45.04,272.346 45.052,272.352 			"></polygon>
			<polygon fill-rule="evenodd" clip-rule="evenodd" fill="#FFFFFF" points="41.232,274.036 41.433,273.895 41.66,273.762 
				41.886,273.631 42.116,273.486 42.326,273.362 42.563,273.233 42.785,273.112 43.016,273.008 43.262,272.896 43.506,272.782 
				43.747,272.682 43.996,272.596 44.267,272.53 44.511,272.455 44.78,272.391 45.04,272.346 45.021,272.094 44.729,272.151 
				44.452,272.203 44.179,272.278 43.922,272.35 43.666,272.458 43.4,272.552 43.16,272.654 42.913,272.767 42.665,272.891 
				42.427,273.02 42.204,273.139 41.979,273.271 41.753,273.404 41.527,273.535 41.314,273.673 41.1,273.809 41.219,274.031 
				41.219,274.031 41.232,274.036 			"></polygon>
			<polygon fill-rule="evenodd" clip-rule="evenodd" fill="#FFFFFF" points="41.185,274.564 41.316,274.673 41.278,274.556 
				41.255,274.431 41.225,274.331 41.196,274.218 41.182,274.146 41.168,274.104 41.188,274.047 41.219,274.031 41.1,273.809 
				40.986,273.913 40.928,274.05 40.912,274.175 40.951,274.291 40.979,274.404 41.01,274.506 41.041,274.606 41.06,274.705 
				41.182,274.808 41.06,274.705 41.064,274.808 41.182,274.808 41.185,274.564 41.185,274.564 			"></polygon>
			<g>
				<polygon fill="none" points="50.738,275.494 50.741,275.495 50.709,275.627 				"></polygon>
				<polygon fill="#FFFFFF" points="50.744,275.483 50.741,275.495 50.738,275.494 				"></polygon>
				<polygon fill="#FFFFFF" points="50.685,275.541 50.738,275.494 50.709,275.627 				"></polygon>
				<g>
					<polygon fill="none" points="75.918,274.655 76.011,274.57 76.15,274.5 76.314,274.477 76.403,274.48 76.506,274.488 
						76.602,274.508 76.699,274.527 76.816,274.566 76.922,274.602 77.034,274.652 77.155,274.718 77.257,274.765 77.362,274.839 
						77.455,274.909 77.558,274.995 77.662,275.068 77.734,275.157 77.825,275.239 77.898,275.329 78.034,275.504 78.104,275.684 
						78.14,275.773 78.159,275.832 78.148,275.984 78.119,276.104 78.033,276.205 77.91,276.267 77.742,276.302 77.649,276.311 
						77.553,276.29 77.439,276.279 77.318,276.252 77.213,276.217 77.097,276.177 76.972,276.124 76.862,276.061 76.75,276.01 
						76.628,275.944 76.522,275.871 76.423,275.784 76.329,275.714 76.232,275.618 76.146,275.523 76.073,275.433 75.952,275.249 
						75.882,275.072 75.862,275.014 75.842,274.916 75.866,274.768 					"></polygon>
					<polygon fill="none" points="53.374,275.478 53.374,275.478 53.259,275.529 					"></polygon>
					<polygon fill="none" points="54.217,277.602 54.299,277.668 54.307,277.683 54.084,277.96 52.129,278.1 51.705,277.854 
						51.703,277.851 51.813,277.799 50.983,275.61 51.12,275.473 52.897,275.37 53.274,275.566 54.197,277.738 					"></polygon>
					<polygon fill="none" points="47.547,274.818 47.547,274.818 50.817,275.909 					"></polygon>
					<g>
						<polygon fill="none" points="75.918,274.655 76.011,274.57 76.15,274.5 76.314,274.477 76.403,274.48 76.506,274.488 
							76.602,274.508 76.699,274.527 76.816,274.566 76.922,274.602 77.034,274.652 77.155,274.718 77.257,274.765 77.362,274.839 
							77.455,274.909 77.558,274.995 77.662,275.068 77.734,275.157 77.825,275.239 77.898,275.329 78.034,275.504 78.104,275.684 
							78.14,275.773 78.159,275.832 78.148,275.984 78.119,276.104 78.033,276.205 77.91,276.267 77.742,276.302 77.649,276.311 
							77.553,276.29 77.439,276.279 77.318,276.252 77.213,276.217 77.097,276.177 76.972,276.124 76.862,276.061 76.75,276.01 
							76.628,275.944 76.522,275.871 76.423,275.784 76.329,275.714 76.232,275.618 76.146,275.523 76.073,275.433 75.952,275.249 
							75.882,275.072 75.862,275.014 75.842,274.916 75.866,274.768 						"></polygon>
						<polygon fill="none" points="52.897,275.37 53.274,275.566 54.197,277.738 54.217,277.602 54.299,277.668 54.307,277.683 
							54.084,277.96 52.129,278.1 51.705,277.854 51.703,277.851 51.813,277.799 50.983,275.61 51.12,275.473 						"></polygon>
						<polygon fill="none" points="47.547,274.818 47.547,274.818 50.817,275.909 						"></polygon>
						<g>
							<polygon fill="none" points="75.918,274.655 76.011,274.57 76.15,274.5 76.314,274.477 76.403,274.48 76.506,274.488 
								76.602,274.508 76.699,274.527 76.816,274.566 76.922,274.602 77.034,274.652 77.155,274.718 77.257,274.765 77.362,274.839 
								77.455,274.909 77.558,274.995 77.662,275.068 77.734,275.157 77.825,275.239 77.898,275.329 78.034,275.504 78.104,275.684 
								78.14,275.773 78.159,275.832 78.148,275.984 78.119,276.104 78.033,276.205 77.91,276.267 77.742,276.302 77.649,276.311 
								77.553,276.29 77.439,276.279 77.318,276.252 77.213,276.217 77.097,276.177 76.972,276.124 76.862,276.061 76.75,276.01 
								76.628,275.944 76.522,275.871 76.423,275.784 76.329,275.714 76.232,275.618 76.146,275.523 76.073,275.433 75.952,275.249 
								75.882,275.072 75.862,275.014 75.842,274.916 75.866,274.768 							"></polygon>
							<polygon fill="none" points="52.897,275.37 53.274,275.566 54.197,277.738 54.217,277.602 54.299,277.668 54.307,277.683 
								54.087,277.957 54.072,277.839 52.117,277.979 52.203,277.995 52.139,278.099 52.129,278.1 51.705,277.854 51.703,277.851 
								51.813,277.799 50.983,275.61 51.12,275.473 							"></polygon>
							<polygon fill="none" points="47.547,274.818 47.547,274.818 50.817,275.909 							"></polygon>
							<g>
								<polygon fill="none" points="54.266,277.255 57.97,278.489 54.266,277.255 								"></polygon>
								<polygon fill="none" points="54.17,277.027 58.437,278.452 54.17,277.027 								"></polygon>
								<polygon fill="none" points="75.918,274.655 76.011,274.57 76.15,274.5 76.314,274.477 76.403,274.48 76.506,274.488 
									76.602,274.508 76.699,274.527 76.816,274.566 76.922,274.602 77.034,274.652 77.155,274.718 77.257,274.765 
									77.362,274.839 77.455,274.909 77.558,274.995 77.662,275.068 77.734,275.157 77.825,275.239 77.898,275.329 
									78.034,275.504 78.104,275.684 78.14,275.773 78.159,275.832 78.148,275.984 78.119,276.104 78.033,276.205 77.91,276.267 
									77.742,276.302 77.649,276.311 77.553,276.29 77.439,276.279 77.318,276.252 77.213,276.217 77.097,276.177 76.972,276.124 
									76.862,276.061 76.75,276.01 76.628,275.944 76.522,275.871 76.423,275.784 76.329,275.714 76.232,275.618 76.146,275.523 
									76.073,275.433 75.952,275.249 75.882,275.072 75.862,275.014 75.842,274.916 75.866,274.768 								"></polygon>
								<polygon fill="none" points="52.897,275.37 53.274,275.566 54.197,277.738 54.217,277.602 54.299,277.668 54.307,277.683 
									54.087,277.957 54.084,277.96 52.139,278.099 52.129,278.1 51.705,277.854 51.703,277.851 51.813,277.799 50.983,275.61 
									51.12,275.473 								"></polygon>
								<polygon fill="none" points="47.547,274.818 47.547,274.818 50.817,275.909 								"></polygon>
								<polygon fill="#FFFFFF" points="54.17,277.027 58.437,278.452 57.974,278.479 57.97,278.489 54.266,277.255 								"></polygon>
								<g>
									<polygon fill="none" points="75.918,274.655 76.011,274.57 76.15,274.5 76.314,274.477 76.403,274.48 76.506,274.488 
										76.602,274.508 76.699,274.527 76.816,274.566 76.922,274.602 77.034,274.652 77.155,274.718 77.257,274.765 
										77.362,274.839 77.455,274.909 77.558,274.995 77.662,275.068 77.734,275.157 77.825,275.239 77.898,275.329 
										78.034,275.504 78.104,275.684 78.14,275.773 78.159,275.832 78.148,275.984 78.119,276.104 78.033,276.205 77.91,276.267 
										77.742,276.302 77.649,276.311 77.553,276.29 77.439,276.279 77.318,276.252 77.213,276.217 77.097,276.177 
										76.972,276.124 76.862,276.061 76.75,276.01 76.628,275.944 76.522,275.871 76.423,275.784 76.329,275.714 76.232,275.618 
										76.146,275.523 76.073,275.433 75.952,275.249 75.882,275.072 75.862,275.014 75.842,274.916 75.866,274.768 									"></polygon>
									<polygon fill="none" points="52.897,275.37 53.274,275.566 54.166,277.665 54.027,277.842 52.117,277.979 52.203,277.995 
										52.139,278.099 52.129,278.1 51.705,277.854 51.703,277.851 51.813,277.799 50.983,275.61 51.12,275.473 									"></polygon>
									<polygon fill="none" points="54.217,277.602 54.299,277.668 54.299,277.668 									"></polygon>
									<polygon fill="none" points="47.547,274.818 47.547,274.818 50.817,275.909 									"></polygon>
									<path fill="#FFFFFF" d="M41.182,274.808l5.418-0.176l0.114,0.012l0.104,0.035l0.143,0.046l0.128,0.044l0.116,0.079
										l0.086,0.053l0.051,0.083l0.039,0.039l2.155,6.493l0.032,0.102l0.105-0.004l0.108-0.015l0.124,0.015l0.152,0.013
										l0.143-0.005l0.141,0.009l0.129-0.035l0.143-0.042l0.117-0.078l0.142-0.15l0.117-0.154l0.109-0.132l0.108-0.131
										l0.093-0.126l0.09-0.113l0.078-0.115l0.094-0.126l0.077-0.116l0.091-0.112l0.089-0.114l0.097-0.098l0.102-0.108
										l0.117-0.116l0.117-0.118l0.148-0.13l-0.079-0.1l0.117-0.097l0.133-0.085l0.152-0.066l0.14-0.07l0.151-0.065l0.172-0.047
										l0.174-0.06l0.173-0.045l0.164-0.024l0.18-0.032l0.189-0.025l0.179-0.031l0.187-0.016l0.188-0.016l0.176-0.02l0.172-0.007
										l3.005-0.219l-3.704-1.234l-0.096-0.228l0,0l4.267,1.425l19.929-1.487l0.37-0.059l0.277-0.128l0.191-0.184l0.068-0.21
										v-0.233l0.004-0.012l-0.066-0.269l-0.132-0.266l-0.19-0.284l-0.113-0.128l-0.123-0.133l-0.137-0.135l-0.144-0.114
										l-0.152-0.129l-0.171-0.108l-0.183-0.113l-0.185-0.113l-0.195-0.078l-0.19-0.089l-0.21-0.07l-0.223-0.073l-0.209-0.031
										l-0.219-0.047l-0.227-0.024l-0.22,0.005l-3.012,0.11l-17.673,0.605h-0.195l-0.182,0.003l-0.208-0.003l-0.197-0.027
										l-0.203-0.016l-0.203-0.016l-0.197-0.028l-0.211-0.031l-0.211-0.03l-0.206-0.043l-0.206-0.044l-0.206-0.043l-0.213-0.057
										l-0.203-0.057l-0.191-0.05l-0.198-0.065l-0.281-0.095l-0.275-0.105l-0.241-0.093l-0.241-0.094l-0.212-0.108l-0.202-0.093
										l-0.21-0.111l-0.191-0.089l-0.183-0.112l-0.163-0.094l-0.176-0.098l-0.163-0.093l-0.176-0.097l-0.162-0.095l-0.156-0.078
										l-0.164-0.094l-0.166-0.081l-0.174-0.07l-0.162-0.056l-0.187-0.062l-0.199-0.065l-0.189-0.052l-0.211-0.03l-0.223-0.035
										l-0.226-0.024l-0.253-0.019l-0.27-0.013l-0.276,0.013l-0.287,0.007l-0.323,0.034l-0.336,0.032l-0.365,0.046l-0.271,0.039
										l-0.27,0.065l-0.271,0.066l-0.248,0.086l-0.264,0.095l-0.254,0.096l-0.24,0.101l-0.246,0.113l-0.234,0.117l-0.237,0.129
										l3.783,1.262l-5.092,0.17L41.182,274.808z M75.842,274.916l0.024-0.148l0.052-0.112l0.093-0.085l0.14-0.07l0.164-0.023
										l0.089,0.004l0.103,0.008l0.096,0.02l0.098,0.02l0.117,0.039l0.105,0.035l0.112,0.051l0.121,0.065l0.102,0.047l0.105,0.074
										l0.093,0.07l0.103,0.086l0.104,0.073l0.072,0.089l0.091,0.082l0.073,0.09l0.136,0.175l0.07,0.18l0.035,0.09l0.02,0.059
										l-0.011,0.152l-0.029,0.12l-0.086,0.101l-0.123,0.062l-0.168,0.035l-0.093,0.009l-0.097-0.021l-0.113-0.011l-0.121-0.027
										l-0.105-0.035l-0.116-0.04l-0.125-0.053l-0.109-0.063l-0.112-0.051l-0.122-0.065l-0.105-0.073l-0.1-0.087l-0.094-0.07
										l-0.097-0.096l-0.087-0.095l-0.072-0.091l-0.121-0.184l-0.07-0.177l-0.02-0.059L75.842,274.916z M54.299,277.668
										L54.299,277.668l-0.082-0.066L54.299,277.668z M50.983,275.61l0.137-0.138l1.777-0.103l0.377,0.196l0.892,2.099
										l-0.139,0.177l-1.91,0.137l0.086,0.017l-0.064,0.104l-0.01,0.001l-0.424-0.245l-0.002-0.004l0.11-0.052L50.983,275.61z"></path>
								</g>
							</g>
						</g>
					</g>
				</g>
			</g>
			<polygon fill-rule="evenodd" clip-rule="evenodd" fill="#010101" points="74.639,276.266 74.53,276.204 74.51,276.105 
				74.667,276.067 74.698,276.169 74.605,276.099 74.639,276.266 74.639,276.266 			"></polygon>
			<polygon fill-rule="evenodd" clip-rule="evenodd" fill="#010101" points="74.851,276.142 74.826,276.174 74.787,276.212 
				74.74,276.235 74.695,276.258 74.639,276.266 74.605,276.099 74.629,276.105 74.664,276.079 74.705,276.067 74.71,276.057 
				74.703,276.079 74.846,276.153 74.846,276.153 74.851,276.142 			"></polygon>
			<polygon fill-rule="evenodd" clip-rule="evenodd" fill="#010101" points="74.409,275.165 74.422,275.168 74.495,275.258 
				74.593,275.355 74.686,275.465 74.776,275.585 74.85,275.714 74.893,275.857 74.893,276.014 74.846,276.153 74.703,276.079 
				74.733,275.985 74.727,275.893 74.698,275.779 74.629,275.68 74.55,275.562 74.466,275.468 74.366,275.37 74.292,275.281 
				74.304,275.285 74.409,275.165 74.409,275.165 			"></polygon>
			<polygon fill-rule="evenodd" clip-rule="evenodd" fill="#010101" points="72.977,274.751 72.965,274.747 73.172,274.751 
				73.366,274.751 73.55,274.785 73.725,274.806 73.903,274.853 74.071,274.936 74.245,275.032 74.409,275.165 74.304,275.285 
				74.146,275.18 73.992,275.09 73.849,275.017 73.693,274.977 73.522,274.946 73.348,274.927 73.167,274.919 72.984,274.923 
				72.988,274.911 72.961,274.759 72.961,274.759 72.977,274.751 			"></polygon>
			<polygon fill-rule="evenodd" clip-rule="evenodd" fill="#010101" points="57.784,275.548 57.851,275.504 72.961,274.759 
				72.988,274.911 57.872,275.669 57.94,275.626 57.784,275.548 57.784,275.548 			"></polygon>
			<polygon fill-rule="evenodd" clip-rule="evenodd" fill="#010101" points="57.425,276.077 57.262,276.022 57.273,275.909 
				57.305,275.816 57.351,275.716 57.414,275.645 57.495,275.594 57.601,275.552 57.718,275.513 57.851,275.504 57.872,275.669 
				57.748,275.691 57.636,275.719 57.581,275.726 57.526,275.773 57.501,275.816 57.458,275.866 57.434,275.938 57.437,276.042 
				57.273,275.986 57.425,276.077 57.425,276.077 			"></polygon>
			<g>
				<polygon fill="none" points="57.851,275.509 57.872,275.669 57.851,275.509 				"></polygon>
				<g>
					<polygon fill="none" points="57.437,276.042 57.458,275.944 57.503,275.844 57.543,275.766 57.624,275.716 57.722,275.694 
						57.858,275.676 57.872,275.669 72.988,274.911 73.242,274.931 73.453,274.923 73.651,274.95 73.833,274.985 74.002,275.067 
						74.151,275.156 74.292,275.281 74.452,275.465 74.593,275.628 74.695,275.791 74.744,275.911 74.744,275.99 74.71,276.057 
						74.613,276.114 74.429,276.158 74.172,276.188 58.64,276.988 58.628,276.984 58.41,276.977 58.196,276.918 58.005,276.828 
						57.843,276.734 57.706,276.599 57.609,276.461 57.522,276.33 57.458,276.218 57.444,276.135 					"></polygon>
					<g>
						<path fill="none" d="M57.458,275.944l-0.021,0.098l0.008,0.093l0.014,0.083l0.064,0.112l0.087,0.131l0.097,0.138l0.137,0.136
							l0.162,0.094l0.191,0.09l0.214,0.059l0.218,0.008l0.012,0.004l15.532-0.801l0.257-0.029l0.185-0.044l0.097-0.058l0.034-0.066
							v-0.079l-0.049-0.12l-0.103-0.163l-0.141-0.163l-0.16-0.184l-0.141-0.125l-0.149-0.089l-0.169-0.082l-0.182-0.035
							l-0.198-0.027l-0.211,0.008l-0.254-0.02l-15.116,0.758l-0.014,0.007l-0.137,0.019l-0.098,0.021l-0.081,0.05l-0.04,0.078
							L57.458,275.944z M57.671,275.848l15.116-0.758l0.007-0.022l0.202,0.016h0.195l0.183,0.034l0.176,0.02l0.18,0.047l0.166,0.082
							l0.164,0.094l0.175,0.136l0.065,0.072l0.059,0.06l0.055,0.07l0.047,0.054l0.064,0.076l0.053,0.081l0.044,0.064l0.043,0.067
							l0.003,0.027l-0.157,0.038l0.005,0.028l-0.04-0.077l-0.042-0.066l-0.059-0.06l-0.042-0.065l-0.048-0.055l-0.055-0.069
							l-0.058-0.059l-0.069-0.062l0.005-0.005l-0.139-0.104l-0.147-0.103l-0.147-0.062l-0.155-0.039l-0.171-0.032l-0.178-0.018
							l-0.189-0.013l-0.184,0.004l-15.11,0.747L57.671,275.848z"></path>
						<g>
							<path fill="none" d="M57.458,275.944l-0.021,0.098l0.008,0.093l0.014,0.083l0.064,0.112l0.087,0.131l0.097,0.138l0.137,0.136
								l0.162,0.094l0.191,0.09l0.214,0.059l0.218,0.008l0.012,0.004l15.532-0.801l0.257-0.029l0.185-0.044l0.097-0.058l0.034-0.066
								v-0.079l-0.049-0.12l-0.103-0.163l-0.141-0.163l-0.16-0.184l-0.141-0.125l-0.149-0.089l-0.169-0.082l-0.182-0.035
								l-0.198-0.027l-0.211,0.008l-0.254-0.02l-15.116,0.758l-0.014,0.007l-0.137,0.019l-0.098,0.021l-0.081,0.05l-0.04,0.078
								L57.458,275.944z"></path>
							<g>
								<polygon fill="none" points="57.503,275.844 57.543,275.766 57.624,275.716 57.722,275.694 57.811,275.683 57.687,275.918 
									72.802,275.159 72.996,275.159 73.176,275.168 73.36,275.202 73.534,275.223 73.7,275.266 73.86,275.332 74.021,275.438 
									74.176,275.555 74.229,275.624 74.288,275.683 74.343,275.751 74.401,275.811 74.444,275.876 74.5,275.946 74.542,276.014 
									74.593,276.095 74.6,276.118 74.429,276.158 74.172,276.188 58.64,276.988 58.628,276.984 58.41,276.977 58.196,276.918 
									58.005,276.828 57.843,276.734 57.706,276.599 57.609,276.461 57.522,276.33 57.458,276.218 57.444,276.135 57.437,276.042 
									57.458,275.944 								"></polygon>
								<polygon fill="#010101" points="74.542,276.014 74.5,275.946 74.444,275.876 74.401,275.811 74.343,275.751 74.288,275.683 
									74.229,275.624 74.176,275.555 74.021,275.438 73.86,275.332 73.7,275.266 73.534,275.223 73.36,275.202 73.176,275.168 
									72.996,275.159 72.802,275.159 57.687,275.918 57.811,275.683 57.858,275.676 57.872,275.669 72.988,274.911 
									73.242,274.931 73.453,274.923 73.651,274.95 73.833,274.985 74.002,275.067 74.151,275.156 74.292,275.281 74.452,275.465 
									74.593,275.628 74.695,275.791 74.744,275.911 74.744,275.99 74.71,276.057 74.613,276.114 74.6,276.118 74.593,276.095 
																	"></polygon>
								<g>
									<polygon fill="none" points="57.463,275.929 57.476,275.926 57.554,275.926 57.687,275.918 57.812,275.683 57.858,275.676 
										57.872,275.669 72.988,274.911 73.242,274.931 73.453,274.923 73.651,274.95 73.833,274.985 74.002,275.067 
										74.151,275.156 74.292,275.281 74.452,275.465 74.593,275.628 74.695,275.791 74.744,275.911 74.744,275.99 74.71,276.057 
										74.613,276.114 74.6,276.118 74.429,276.158 74.172,276.188 58.64,276.988 58.628,276.984 58.41,276.977 58.196,276.918 
										58.005,276.828 57.843,276.734 57.706,276.599 57.609,276.461 57.522,276.33 57.458,276.218 57.444,276.135 
										57.437,276.042 57.458,275.944 									"></polygon>
									<path fill="#010101" d="M57.262,276.022l0.016,0.146l0.03,0.103l0.043,0.144l0.102,0.164l0.125,0.132l0.159,0.146
										l0.191,0.128l0.214,0.097l0.225,0.062l0.273,0.001l15.528-0.788l0.296-0.03l0.21-0.047l0.152-0.104l0.086-0.142
										l-0.004-0.144l-0.059-0.175l-0.112-0.167l-0.155-0.196l-0.16-0.183l-0.173-0.148l-0.182-0.111l-0.179-0.087l-0.195-0.038
										l-0.233-0.039h-0.232l-0.267,0.015l-15.11,0.745v0.005l-0.16,0.008l-0.164,0.062l-0.109,0.094l-0.074,0.105l-0.05,0.113
										L57.262,276.022z M57.437,276.042l0.021-0.098l0.005-0.016l0.013-0.003h0.078l0.133-0.008l0.126-0.235l0.046-0.007
										l0.014-0.007l15.116-0.758l0.254,0.02l0.211-0.008l0.198,0.027l0.182,0.035l0.169,0.082l0.149,0.089l0.141,0.125
										l0.16,0.184l0.141,0.163l0.103,0.163l0.049,0.12v0.079l-0.034,0.066l-0.097,0.058l-0.014,0.004l-0.171,0.04l-0.257,0.029
										l-15.532,0.801l-0.012-0.004l-0.218-0.008l-0.214-0.059l-0.191-0.09l-0.162-0.094l-0.137-0.136l-0.097-0.138l-0.087-0.131
										l-0.064-0.112l-0.014-0.083L57.437,276.042z"></path>
								</g>
							</g>
						</g>
					</g>
				</g>
			</g>
		</g>
	</g>
	
	<g>
		<path fill="#EB242B" d="M138.421,247.253c0,0.273-0.111,0.54-0.335,0.8l-0.034,0.039l-1.954,2.287
			c-0.415,0.483-0.769,0.858-1.06,1.123c-0.294,0.264-0.498,0.396-0.618,0.396c-0.128,0-0.283-0.065-0.471-0.198
			c-0.188-0.132-0.31-0.269-0.365-0.409c-0.047-0.117-0.09-0.365-0.131-0.745c-0.04-0.378-0.062-0.789-0.062-1.231
			c0-0.242,0.091-0.464,0.271-0.67c0.182-0.204,0.382-0.307,0.601-0.307c0.208,0,0.334,0.211,0.374,0.636
			c0.005,0.048,0.007,0.085,0.009,0.108c0.033,0.326,0.073,0.553,0.117,0.681c0.044,0.129,0.104,0.193,0.181,0.193
			c0.03,0,0.09-0.038,0.177-0.113c0.086-0.077,0.189-0.18,0.311-0.312l2.007-2.209c0.168-0.187,0.318-0.329,0.451-0.424
			c0.133-0.097,0.245-0.146,0.339-0.146c0.069,0,0.119,0.03,0.147,0.089c0.029,0.059,0.045,0.157,0.045,0.296V247.253z"></path>
	</g>
</g>
</svg>