<?xml version="1.0" encoding="UTF-8" standalone="no"?>
<svg
     version="1.1"
     x="0px"
     y="0px"
     viewBox="0 0 4350 4500"
     style="enable-background:new 0 0 1044 1080;"
     xml:space="preserve"
     width="4350"
     height="4500"
     id="svg364"
     sodipodi:docname="SmallPrototypeBox.svg"
     inkscape:version="1.4 (e7c3feb1, 2024-10-09)"
     xmlns:inkscape="http://www.inkscape.org/namespaces/inkscape"
     xmlns:sodipodi="http://sodipodi.sourceforge.net/DTD/sodipodi-0.dtd"
     xmlns:xlink="http://www.w3.org/1999/xlink"
     xmlns="http://www.w3.org/2000/svg"
     xmlns:svg="http://www.w3.org/2000/svg"><defs
     id="defs364">
<style
     type="text/css"
     id="style1">
	.st0{display:none;}
	.st1{display:inline;opacity:1;fill-rule:evenodd;clip-rule:evenodd;fill:#ED1C24;}
	.st2{display:inline;opacity:1;fill:#ED1C24;}
	.st3{opacity:1;fill-rule:evenodd;clip-rule:evenodd;fill:#010101;}
	.st4{display:inline;opacity:1;fill-rule:evenodd;clip-rule:evenodd;fill:#010101;}
	.st5{fill:none;stroke:#11AD4B;stroke-linecap:round;stroke-linejoin:round;stroke-miterlimit:10;}
	.st6{clip-path:url(#SVGID_00000164477209131184020750000017834372480051351689_);}
	.st7{fill:none;stroke:#ED1C24;stroke-linecap:round;stroke-linejoin:round;stroke-miterlimit:10;}
	.st8{fill:none;stroke:#ED1C24;stroke-linejoin:round;stroke-miterlimit:10;}
	.st9{display:inline;fill:#231F20;}
	.st10{display:inline;}
	.st11{clip-path:url(#SVGID_00000121973416306075075180000008588957632279763892_);fill:#FFFFFF;}
	.st12{fill:none;stroke:#00ADE7;stroke-linecap:round;stroke-linejoin:round;stroke-miterlimit:10;stroke-dasharray:5,5,0,0;}
	.st13{fill:none;stroke:#00ADE7;stroke-linejoin:round;stroke-miterlimit:10;stroke-dasharray:5,5,0,0;}
	.st14{fill:#231F20;}
	.st15{fill:#E9272A;}
	.st16{fill:none;stroke:#2EA5DE;stroke-width:2;}
	.st17{fill-rule:evenodd;clip-rule:evenodd;fill:#231F20;}
	.st18{fill:#040505;}
	.st19{font-family:'Arial-Black';}
	.st20{font-size:11.5632px;}
	.st21{letter-spacing:3;}
	.st22{fill:#1CAB4B;}
	.st23{font-family:'Arial-BoldMT';}
	.st24{font-size:7.079px;}
	.st25{letter-spacing:1;}
	.st26{fill:none;stroke:#1CAB4B;stroke-miterlimit:10;}
	.st27{font-size:10.0283px;}
	.st28{fill:#929396;}
	.st29{font-size:7.0789px;}
	.st30{fill:#E9272D;}
	.st31{fill:#2EA5DE;}
	.st32{fill:none;stroke:#949496;stroke-miterlimit:10;}
	.st33{fill:none;stroke:#EC2727;}
	.st34{fill:none;stroke:#2EA5DE;stroke-dasharray:2.52,2.52;}
	.st35{font-size:11.627px;}
	.st36{font-size:9.6891px;}
	.st37{fill-rule:evenodd;clip-rule:evenodd;fill:#D1D2D3;}
	.st38{fill-rule:evenodd;clip-rule:evenodd;fill:#010101;}
	.st39{fill-rule:evenodd;clip-rule:evenodd;fill:#B7D336;}
	.st40{fill:#010101;}
	.st41{fill-rule:evenodd;clip-rule:evenodd;fill:#FFFFFF;}
	.st42{fill-rule:evenodd;clip-rule:evenodd;fill:#504B4C;}
	.st43{fill:#504B4C;}
	.st44{fill:#FFFFFF;}
	.st45{font-size:10px;}
	.st46{letter-spacing:2;}
	.st47{fill-rule:evenodd;clip-rule:evenodd;fill:none;}
	.st48{display:inline;fill:none;stroke:#3A53A4;stroke-width:0.4018;stroke-miterlimit:11.3386;}
</style>











	
	
	
	
	
	
	
	
	
	
	
	
	
	
	
	
	
	
	
	
	
	
	
	
	
	
	
	
	
	
	
	
	
	
	
	
	
	
	
	
	
	
	
	
	
	
	
	
	
	
	
	
	
	
	
	
	
	
	
	
	
	
	
	
	
	
	
	
	
	
	
	
	
	
	
	
	
	
	
	
	
	
	
	
	
	
	
	
	
	
	
	
	
	
	
	
	
	
	
	
	
	
	
	
	
	
	
	
	
	
	
	
	
	
	
	
	
	
	
	
	
	
	
	
	
	
	
	
	
	
	
	
	
	
	
	
	
	
	
	
	
	
	
	
	
	
	
	
	
	
	
	
	
	
	
	
	
	
	
	
	
	
	
	
	
	
	
	
	
	
	
	
	
	
	
	
	
	
	
	
	
	
	
	
	
	
	
	
	
	
	
	
	
	
	
	
	
	
	
	
	
	
	
	
	
	
	
	
	
	
		
	
		
	
	
	
	
		
	
	
	
		
	
	
	
	
	
	
	
	
	
	
	
	
	
	
	
	
	
	
	
	
	
	
		
	
		
	
	
	
		
	
	
	
	
	
		
	
		
	
	
	
	
		
	
	
	
	
	
	
	
	
		
	
	
	
	
	
	
	
	
	
	
	
	
	
		
	
	
	
		
	
	
	
	
	
	
	
	
	
	
	
	
	
	
	
	
	
	

		
		
		
		
		
	
		<defs
     id="defs178">
			<rect
     id="SVGID_00000067947762515951539820000003039073469228635832_"
     x="769.09998"
     y="513"
     width="13.6"
     height="12.6" />
		</defs>
		
		
	
		<defs
     id="defs181">
			<rect
     id="SVGID_00000110433920009972996930000014046281370684191872_"
     x="779.70001"
     y="476.39999"
     width="13.6"
     height="12.6" />
		</defs>
		
		
	
		<defs
     id="defs183">
			<rect
     id="SVGID_00000029016206922873959800000003561634475725491890_"
     x="775.90002"
     y="412.39999"
     width="13.6"
     height="12.6" />
		</defs>
		
		
	
		<defs
     id="defs177">
			<rect
     id="SVGID_00000074421801411489500420000012280816755225718969_"
     x="331.20001"
     y="591.59998"
     width="15.1"
     height="14" />
		</defs>
		
		
	
			
				
		<clipPath
     clipPathUnits="userSpaceOnUse"
     id="clipPath364"><use
         xlink:href="#SVGID_00000029016206922873959800000003561634475725491890_"
         style="overflow:visible"
         id="use364"
         transform="matrix(4.1666667,0,0,4.1666667,-1.74e-5,-1.8e-5)" /></clipPath>
			<defs
     id="defs184">
				<rect
     id="SVGID_00000056429263375981372780000001324101137805684126_"
     x="747.09998"
     y="958.90002"
     width="13.6"
     height="12.6" />
			</defs>
			
			
				
		
			
				
		<clipPath
     clipPathUnits="userSpaceOnUse"
     id="clipPath365"><use
         xlink:href="#SVGID_00000067947762515951539820000003039073469228635832_"
         style="overflow:visible"
         id="use365"
         transform="matrix(4.1666667,0,0,4.1666667,-1.74e-5,-1.8e-5)" /></clipPath>
			
				
		<clipPath
     clipPathUnits="userSpaceOnUse"
     id="clipPath366"><use
         xlink:href="#SVGID_00000110433920009972996930000014046281370684191872_"
         style="overflow:visible"
         id="use366"
         transform="matrix(4.1666667,0,0,4.1666667,-1.74e-5,-1.8e-5)" /></clipPath>
			
				
		<clipPath
     clipPathUnits="userSpaceOnUse"
     id="clipPath367"><use
         xlink:href="#SVGID_00000074421801411489500420000012280816755225718969_"
         style="overflow:visible"
         id="use367"
         transform="matrix(4.1666667,0,0,4.1666667,-1.74e-5,-1.8e-5)" /></clipPath>
				
					
			<clipPath
     clipPathUnits="userSpaceOnUse"
     id="clipPath368"><use
         xlink:href="#SVGID_00000056429263375981372780000001324101137805684126_"
         style="overflow:visible"
         id="use368"
         transform="matrix(4.1666667,0,0,4.1666667,-2.7171317e-4,-1.8e-5)" /></clipPath></defs><sodipodi:namedview
     id="namedview364"
     pagecolor="#505050"
     bordercolor="#eeeeee"
     borderopacity="1"
     inkscape:showpageshadow="0"
     inkscape:pageopacity="0"
     inkscape:pagecheckerboard="0"
     inkscape:deskcolor="#d1d1d1"
     inkscape:zoom="0.14142136"
     inkscape:cx="2619.8306"
     inkscape:cy="2821.3561"
     inkscape:window-width="1872"
     inkscape:window-height="1027"
     inkscape:window-x="62"
     inkscape:window-y="25"
     inkscape:window-maximized="1"
     inkscape:current-layer="svg364" /><rect
     style="fill:#090909;fill-opacity:1;stroke:none;stroke-width:4.16881;stroke-linecap:round;stroke-linejoin:round;paint-order:markers fill stroke"
     id="rect368"
     width="4350"
     height="4500"
     x="0"
     y="0" /><g
     id="Overlay_Zone"
     class="st0"
     transform="matrix(4.1666667,0,0,4.1666667,-1.74e-5,-1.8e-5)">
	<path
     class="st1"
     d="m 1035,576 v 134.6 l -9,9 v 126 H 882 v 36 l -7.2,18 v 153 H 783 l -8.5,18 h -72.9 l -8.4,-18 h -92 v -153 l -7.2,-18 v -36 H 450 v -126 L 432,733 H 162 V 710.5 H 63 60.7 C 26.5,710.1 10.7,698.1 9,662.9 v -240.2 0.2 C 9,382.5 24.5,369 60.8,368.6 H 63 162 V 346 h 270 l 18,14.4 v -126 h 144 v -36 l 7.2,-18 V 27.4 H 693 l 8.6,-18 h 73.1 l 8.5,18 h 91.6 v 153 l 7.2,18 v 36 h 144 v 126 l 9,9 V 504 c -19.9,0 -36,16.1 -36,36 0,19.9 16.1,36 36,36 z M 0,1080 H 1044 V 0 H 0 Z"
     id="path1" />
	<path
     class="st2"
     d="m 702,709.7 h 72 c 5.8,3.7 8.8,7.5 8.8,11.6 0,4 -2.9,8.2 -8.8,12.6 v 0 H 773.8 702 c -0.1,0 -0.2,-0.1 -0.3,-0.3 v 0.3 c -5.8,-4.4 -8.7,-8.6 -8.7,-12.6 0,-4 2.9,-7.9 8.7,-11.6 v 0.1 c 0.1,0 0.2,-0.1 0.3,-0.1 z"
     id="path2" />
	<path
     class="st2"
     d="m 702.1,345.5 h 72 c 5.8,3.7 8.8,7.5 8.8,11.6 0,4 -2.9,8.2 -8.8,12.6 v 0 h -0.2 -71.7 c -0.1,0 -0.2,-0.1 -0.3,-0.3 v 0.3 c -5.8,-4.4 -8.7,-8.6 -8.7,-12.6 0,-4 2.9,-7.9 8.7,-11.6 v 0.1 c 0,0 0.1,-0.1 0.2,-0.1 z"
     id="path3" />
</g><path
     style="fill:#787878;fill-opacity:1;stroke-width:20.835;stroke-linecap:round;stroke-linejoin:round;paint-order:markers fill stroke"
     d="m 3075.6446,39.980449 c -50.2654,0.133668 -100.6214,-0.04547 -150.8301,0.283203 -11.3325,24.849033 -22.6589,49.697838 -34.0039,74.541018 -127.808,0.13093 -255.8323,-0.26016 -383.5059,0.19531 0,212.85482 0,425.70965 0,638.56445 -22.5113,43.3797 -34.5737,90.94825 -29.9809,139.9707 -3.6312,26.8342 7.026,67.88045 -5.0191,86.26955 -198.2771,0.1302 -396.7698,-0.26035 -594.9121,0.1953 -0.8565,174.80152 -1.7191,349.60292 -2.5879,524.40432 -27.097,-18.4328 -50.8205,-46.4569 -79.8047,-59.5315 -372.538,0.1129 -745.2919,-0.3006 -1117.6953,0.1272 0,31.4323 0,62.8646 0,94.2969 -167.4607,1.0226 -334.9231,2.0198 -502.3828,3.0566 -65.6346,17.6511 -121.749,72.4702 -127.5977,142.168 -14.0624,118.4826 -6.1176,238.4634 -9.3426,357.5583 0.2012,249.3033 -2.5561,498.741 4.4598,747.9495 2.0945,77.9357 62.0529,153.4349 141.7434,160.871 156.693,16.3211 314.7909,6.3621 472.0652,9.2911 39.5733,-9.2795 13.7144,46.8611 21.0547,69.8086 -8.628,38.839 47.7238,12.5964 70.1953,20.1953 351.1177,-0.026 702.2523,0.052 1053.3594,-0.039 24.6458,-18.4443 49.2942,-36.8851 73.9453,-55.3223 0.9989,175.0933 1.4738,350.4026 2.7832,525.3613 199.9056,0 399.8112,0 599.7168,0 3.4226,71.1818 -12.6243,147.7843 24.5391,212.9954 12.2961,50.6734 2.1468,105.7925 5.4609,158.2449 0.1302,164.5596 -0.2604,329.3349 0.1953,493.7597 127.7702,0 255.5404,0 383.3106,0 11.443,24.851 22.6072,49.9344 34.1894,74.6582 100.2815,0.03 200.6536,0.379 300.8789,0.2246 13.8866,-23.0388 19.0135,-59.5068 37.9102,-74.8828 126.2748,-0.1309 252.7659,0.2603 378.9062,-0.1953 0,-212.8548 0,-425.7096 0,-638.5644 22.5113,-43.3797 34.5737,-90.9483 29.9809,-139.9707 3.6313,-26.8342 -7.026,-67.8805 5.0191,-86.2696 198.3064,-0.1301 396.8285,0.2604 594.9997,-0.1953 0,-174.2936 0,-348.5872 0,-522.8808 18.881,-20.7004 50.482,-36.0723 40,-69.1504 -0.13,-176.0277 0.261,-352.2712 -0.195,-528.1641 -62.485,3.8495 -123.033,-38.7661 -142.432,-98.0859 -25.298,-71.5912 7.948,-163.3257 81.875,-190.3028 18.931,-9.0128 39.97,-12.8734 60.752,-11.416 -0.04,-186.0346 0.08,-372.0994 -0.06,-558.1152 -21.931,-21.039 -50.021,-39.483 -39.942,-74.0039 -0.13,-162.6649 0.261,-325.5459 -0.195,-488.07622 -199.9349,0 -399.8698,0 -599.8047,0 -3.4226,-71.18175 12.6244,-147.78425 -24.5391,-212.9954 -12.2961,-50.6734 -2.1467,-105.79245 -5.4609,-158.24485 -0.1301,-164.55963 0.2605,-329.33497 -0.1953,-493.75976 -127.4544,-0.008 -254.9088,-0.0116 -382.3633,-0.01 -11.3158,-24.96869 -22.3753,-50.162065 -33.8574,-74.990233 -50.2116,0.05859 -100.4232,0.117188 -150.6347,0.175782 z M 3231.3672,1435.1953 c 22.4438,18.9162 45.3882,55.1888 19.7949,81.2696 -19.1089,35.3515 -59.8804,20.4351 -92.7441,23.3398 -79.0495,0 -158.099,0 -237.1484,0 -20.9378,-17.3855 -45.5082,-46.9589 -26.1231,-74.6582 14.5234,-38.1209 64.2556,-25.9025 95.7217,-29.6286 80.1632,-0.6312 160.3336,-0.1869 240.499,-0.3226 z m -157.2266,1520 c 52.5098,0 105.0196,0 157.5293,0 16.5434,18.9409 43.9582,47.3175 22.0411,73.0957 -9.0247,18.2409 -24.2337,35.3276 -46.9724,29.3735 -96.0976,3.287 -192.2744,1.6612 -288.4085,2.1402 -23.3842,-20.7786 -45.1814,-60.262 -17.9883,-87.1289 18.9572,-32.1155 60.759,-11.8583 91.2598,-17.4805 27.513,0 55.026,0 82.539,0 z"
     id="clipping" /><g
     id="Layer_7"
     class="st0"
     transform="matrix(4.1666667,0,0,4.1666667,-1.74e-5,-1.8e-5)">
	<path
     class="st4"
     d="m 1035,576 v 134.6 l -9,9 v 126 H 882 v 36 l -7.2,18 v 153 H 783 l -8.5,18 h -72.9 l -8.4,-18 h -92 v -153 l -7.2,-18 v -36 H 450 v -126 L 432,733 H 162 V 710.5 H 63 60.7 C 26.5,710.1 10.7,698.1 9,662.9 v -240.2 0.2 C 9,382.5 24.5,369 60.8,368.6 H 63 162 V 346 h 270 l 18,14.4 v -126 h 144 v -36 l 7.2,-18 V 27.4 H 693 l 8.6,-18 h 73.1 l 8.5,18 h 91.6 v 153 l 7.2,18 v 36 h 144 v 126 l 9,9 V 504 c -19.9,0 -36,16.1 -36,36 0,19.9 16.1,36 36,36 z M 0,1080 H 1044 V 0 H 0 Z"
     id="path7" />
	<path
     class="st4"
     d="m 784.3,1071 4.4,-9.5 h 95.1 V 901.3 l 7.2,-18 v -28.7 h 144 V 1071 Z M 9,1071 V 697.7 c 9.3,14.7 25.9,21.6 51.5,21.9 H 63 152.9 V 742 h 282 l 6,-4.5 v 117 h 144 v 28.7 l 7.2,18 v 160.3 h 95.3 l 4.4,9.5 z M 1035,567 c -14.9,0 -27,-12.1 -27,-27 0,-14.9 12.1,-27 27,-27 z M 9,9 h 682.9 l -4.5,9.5 h -95.1 v 160.3 l -7.2,18 v 28.7 H 441 v 116.3 l -5.8,-4.7 H 153 v 22.5 H 63 60.7 C 35,359.9 18.2,366.9 9,382 Z m 882,216.5 v -28.7 l -7.2,-18 V 18.5 H 788.9 L 784.5,9 H 1035 v 216.5 z"
     id="path8" />
</g><g
     id="Fold_Lines"
     transform="matrix(4.1666667,0,0,4.1666667,-1.74e-5,-1.8e-5)">
	<line
     class="st5"
     x1="594.5"
     y1="195.39999"
     x2="882.5"
     y2="195.39999"
     id="line8" />
	<line
     class="st5"
     x1="702.20001"
     y1="345.10001"
     x2="594.20001"
     y2="345.10001"
     id="line9" />
	<line
     class="st5"
     x1="877"
     y1="369.5"
     x2="877"
     y2="710.59998"
     id="line10" />
	<line
     class="st5"
     x1="432"
     y1="733"
     x2="432"
     y2="346"
     id="line11" />
	<line
     class="st5"
     x1="875.29999"
     y1="177"
     x2="601.70001"
     y2="177"
     id="line12" />
	<line
     class="st5"
     x1="450"
     y1="356.5"
     x2="595.40002"
     y2="356.5"
     id="line13" />
	<line
     class="st5"
     x1="1026"
     y1="357.20001"
     x2="880.40002"
     y2="357.20001"
     id="line14" />
	<line
     class="st5"
     x1="599"
     y1="369.60001"
     x2="599"
     y2="710.59998"
     id="line15" />
	<line
     class="st5"
     x1="882.20001"
     y1="345.10001"
     x2="774.5"
     y2="345.10001"
     id="line16" />
	<line
     class="st5"
     x1="702.5"
     y1="733.79999"
     x2="594.5"
     y2="733.79999"
     id="line17" />
	<line
     class="st5"
     x1="882.20001"
     y1="733.79999"
     x2="774.5"
     y2="733.79999"
     id="line18" />
	<line
     class="st5"
     x1="594"
     y1="885.5"
     x2="882"
     y2="885.5"
     id="line19" />
	<line
     class="st5"
     x1="874.79999"
     y1="903.5"
     x2="601.20001"
     y2="903.5"
     id="line20" />
	<line
     class="st5"
     x1="450"
     y1="723.5"
     x2="595.40002"
     y2="723.5"
     id="line21" />
	<line
     class="st5"
     x1="162"
     y1="368.5"
     x2="162"
     y2="710.5"
     id="line22" />
	<line
     class="st5"
     x1="1026"
     y1="722.79999"
     x2="880.40002"
     y2="722.79999"
     id="line23" />
</g><g
     id="clippings"
     transform="matrix(4.1666667,0,0,4.1666667,-1.74e-5,-1.8e-5)">
	<g
     id="g73">
		<defs
     id="defs23">
			<rect
     id="SVGID_1_"
     width="1044"
     height="1080"
     x="0"
     y="0" />
		</defs>
		<clipPath
     id="SVGID_00000106130622631645679860000004188662181345481140_">
			<use
     xlink:href="#SVGID_1_"
     style="overflow:visible"
     id="use23" />
		</clipPath>
		<g
     clip-path="url(#SVGID_00000106130622631645679860000004188662181345481140_)"
     id="g72">
			<line
     class="st7"
     x1="701.59998"
     y1="1070.6"
     x2="774.70001"
     y2="1070.6"
     id="line24" />
			<line
     class="st7"
     x1="693"
     y1="1052.6"
     x2="693"
     y2="1052.6"
     id="line25" />
			<line
     class="st7"
     x1="601.20001"
     y1="27.4"
     x2="693"
     y2="27.4"
     id="line26" />
			<line
     class="st7"
     x1="783.20001"
     y1="27.4"
     x2="874.79999"
     y2="27.4"
     id="line27" />
			<line
     class="st7"
     x1="601.20001"
     y1="1052.6"
     x2="693"
     y2="1052.6"
     id="line28" />
			<line
     class="st7"
     x1="783"
     y1="1052.6"
     x2="875"
     y2="1052.6"
     id="line29" />
			<line
     class="st7"
     x1="601.20001"
     y1="899.5"
     x2="601.20001"
     y2="1052.6"
     id="line30" />
			<line
     class="st7"
     x1="874.79999"
     y1="899.5"
     x2="874.79999"
     y2="1052.6"
     id="line31" />
			<line
     class="st7"
     x1="601.20001"
     y1="27.4"
     x2="601.20001"
     y2="180.5"
     id="line32" />
			<line
     class="st7"
     x1="874.79999"
     y1="27.4"
     x2="874.79999"
     y2="180.5"
     id="line33" />
			<line
     class="st7"
     x1="594"
     y1="198.5"
     x2="601.20001"
     y2="180.5"
     id="line34" />
			<line
     class="st7"
     x1="882"
     y1="198.5"
     x2="874.79999"
     y2="180.5"
     id="line35" />
			<line
     class="st7"
     x1="594"
     y1="881.5"
     x2="601.20001"
     y2="899.5"
     id="line36" />
			<line
     class="st7"
     x1="882"
     y1="881.5"
     x2="874.79999"
     y2="899.5"
     id="line37" />
			<line
     class="st7"
     x1="594"
     y1="198.5"
     x2="594"
     y2="351.39999"
     id="line38" />
			<line
     class="st7"
     x1="882"
     y1="728.59998"
     x2="882"
     y2="881.5"
     id="line39" />
			<line
     class="st7"
     x1="594"
     y1="728.59998"
     x2="594"
     y2="881.5"
     id="line40" />
			<line
     class="st7"
     x1="882"
     y1="234.5"
     x2="882"
     y2="351.5"
     id="line41" />
			<line
     class="st7"
     x1="1026"
     y1="234.5"
     x2="1026"
     y2="360.5"
     id="line42" />
			<line
     class="st7"
     x1="450"
     y1="234.5"
     x2="450"
     y2="360.5"
     id="line43" />
			<line
     class="st7"
     x1="1026"
     y1="719.5"
     x2="1026"
     y2="845.5"
     id="line44" />
			<line
     class="st7"
     x1="450"
     y1="719.5"
     x2="450"
     y2="845.5"
     id="line45" />
			<line
     class="st7"
     x1="594"
     y1="234.5"
     x2="594"
     y2="351.5"
     id="line46" />
			<line
     class="st7"
     x1="882"
     y1="728.59998"
     x2="882"
     y2="845.5"
     id="line47" />
			<line
     class="st7"
     x1="594"
     y1="728.59998"
     x2="594"
     y2="845.5"
     id="line48" />
			<line
     class="st7"
     x1="882"
     y1="234.5"
     x2="1026"
     y2="234.5"
     id="line49" />
			<line
     class="st7"
     x1="450"
     y1="234.5"
     x2="594"
     y2="234.5"
     id="line50" />
			<line
     class="st7"
     x1="882"
     y1="845.5"
     x2="1026"
     y2="845.5"
     id="line51" />
			<line
     class="st7"
     x1="450"
     y1="845.5"
     x2="594"
     y2="845.5"
     id="line52" />
			<line
     class="st7"
     x1="1035"
     y1="369.5"
     x2="1035"
     y2="504"
     id="line53" />
			<line
     class="st7"
     x1="1035"
     y1="576"
     x2="1035"
     y2="710.59998"
     id="line54" />
			<path
     class="st7"
     d="m 1035,576 c -19.9,0 -36,-16.1 -36,-36 0,-19.9 16.1,-36 36,-36"
     id="path54" />
			<line
     class="st7"
     x1="162"
     y1="346"
     x2="432"
     y2="346"
     id="line55" />
			<polyline
     class="st7"
     points="162,710.5 162,733 432,733    "
     id="polyline55" />
			<polyline
     class="st7"
     points="162,346 162,368.5 63,368.5    "
     id="polyline56" />
			<path
     class="st7"
     d="m 63,368.5 c -0.7,0 -1.5,0 -2.2,0"
     id="path56" />
			<path
     class="st7"
     d="M 60.8,368.5 C 24.5,369 9,382.4 9,422.9"
     id="path57" />
			<path
     class="st7"
     d="m 9,422.9 v 234.2 -0.9 c 0,41.3 16.1,54.4 54,54.4 h 99"
     id="path58" />
			<line
     class="st7"
     x1="1026"
     y1="360.5"
     x2="1035"
     y2="369.5"
     id="line58" />
			<line
     class="st7"
     x1="1026"
     y1="719.5"
     x2="1035"
     y2="710.5"
     id="line59" />
			<line
     class="st7"
     x1="877"
     y1="710.59998"
     x2="882"
     y2="728.59998"
     id="line60" />
			<line
     class="st7"
     x1="877"
     y1="369.5"
     x2="882"
     y2="351.39999"
     id="line61" />
			<line
     class="st7"
     x1="599"
     y1="710.5"
     x2="594"
     y2="728.5"
     id="line62" />
			<line
     class="st7"
     x1="599"
     y1="369.60001"
     x2="594"
     y2="351.5"
     id="line63" />
			<path
     class="st7"
     d="m 702.3,345.1 h 72 c 5.8,3.7 8.8,7.5 8.8,11.6 0,4.1 -2.9,8.2 -8.8,12.6 v 0 h -0.2 -71.7 c -0.1,0 -0.2,-0.1 -0.3,-0.3 v 0.3 c -5.8,-4.4 -8.7,-8.5 -8.7,-12.6 0,-4 2.9,-7.9 8.7,-11.6 v 0.1 c 0,-0.1 0.1,-0.1 0.2,-0.1 z"
     id="path63" />
			<line
     class="st7"
     x1="432"
     y1="733"
     x2="450"
     y2="719.5"
     id="line64" />
			<line
     class="st7"
     x1="432"
     y1="346"
     x2="450"
     y2="360.5"
     id="line65" />
			<line
     class="st7"
     x1="882"
     y1="198.5"
     x2="882"
     y2="234.5"
     id="line66" />
			<line
     class="st7"
     x1="594"
     y1="198.5"
     x2="594"
     y2="234.5"
     id="line67" />
			<line
     class="st8"
     x1="701.59998"
     y1="1070.6"
     x2="693"
     y2="1052.6"
     id="line68" />
			<line
     class="st8"
     x1="774.5"
     y1="1070.6"
     x2="783"
     y2="1052.6"
     id="line69" />
			<line
     class="st7"
     x1="701.59998"
     y1="9.3999996"
     x2="774.70001"
     y2="9.3999996"
     id="line70" />
			<line
     class="st8"
     x1="701.59998"
     y1="9.3999996"
     x2="693"
     y2="27.4"
     id="line71" />
			<line
     class="st8"
     x1="774.5"
     y1="9.3999996"
     x2="783.20001"
     y2="27.4"
     id="line72" />
		</g>
	</g>
	<path
     class="st7"
     d="m 702,709.7 h 72 c 5.8,3.7 8.8,7.5 8.8,11.6 0,4 -2.9,8.2 -8.8,12.6 v 0 H 773.8 702 c -0.1,0 -0.2,-0.1 -0.3,-0.3 v 0.3 c -5.8,-4.4 -8.7,-8.6 -8.7,-12.6 0,-4 2.9,-7.9 8.7,-11.6 v 0.1 c 0.1,0 0.2,-0.1 0.3,-0.1 z"
     id="path73" />
</g><g
     id="Layer_8"
     class="st0"
     transform="matrix(4.1666667,0,0,4.1666667,-1.74e-5,-1.8e-5)">
	<rect
     x="-134.5"
     y="-127.4"
     class="st9"
     width="1205.6"
     height="1275.9"
     id="rect73" />
	<g
     class="st10"
     id="g74">
		<defs
     id="defs73">
			<rect
     id="SVGID_00000067942660919999992740000015782860714063234231_"
     width="1044"
     height="1080"
     x="0"
     y="0" />
		</defs>
		<clipPath
     id="SVGID_00000165236144497471576560000010384132342044443522_">
			<use
     xlink:href="#SVGID_00000067942660919999992740000015782860714063234231_"
     style="overflow:visible"
     id="use73" />
		</clipPath>
		<path
     style="fill:#ffffff"
     d="M 1035,723.3 V 854.6 H 891 v 28.7 l -7.2,18 v 151.3 l 0.3,8.9 -9,0.1 h -86.3 l -8.5,18 H 696 l -8.6,-18 H 592.3 V 901.3 l -7.2,-18 V 854.6 H 441 v -117 l -6,4.5 H 153 V 719.6 H 62.8 C 40.6,719.6 25.6,715.1 15.5,705.4 5.1,695.3 0.1,679.9 0,657.1 V 422.9 c 0,-43.8 18.1,-62.8 60.7,-63.3 0.7,0 1.4,0 2.1,0 H 153 V 337 h 282.2 l 5.8,4.7 V 225.5 h 144 v -28.7 l 7.2,-18 V 18.5 h 95.1 l 8.6,-18 h 84.2 l 8.7,18 h 94.9 v 160.3 l 7.2,18 v 28.7 h 144 v 131.3 l 9,9 V 513 h -9 c -14.9,0 -27,12.1 -27,27 0,14.9 12.1,27 27,27 h 9 v 143.6"
     clip-path="url(#SVGID_00000165236144497471576560000010384132342044443522_)"
     id="path74" />
	</g>
</g><g
     id="Safe_Zone"
     transform="matrix(4.1666667,0,0,4.1666667,-1.74e-5,-1.8e-5)"
     style="stroke:none;fill:#e1e1e1;fill-opacity:1">
	<rect
     x="610.20001"
     y="36.400002"
     class="st12"
     width="255.60001"
     height="131.60001"
     id="rect74"
     style="stroke:none;fill:#e1e1e1;fill-opacity:1" />
	<rect
     x="610.20001"
     y="912.5"
     class="st12"
     width="255.60001"
     height="131.60001"
     id="rect75"
     style="stroke:none;fill:#e1e1e1;fill-opacity:1" />
	<rect
     x="603"
     y="204.39999"
     class="st12"
     width="270"
     height="131.7"
     id="rect76"
     style="stroke:none;fill:#e1e1e1;fill-opacity:1" />
	<rect
     x="171"
     y="355"
     class="st12"
     width="252"
     height="369"
     id="rect77"
     style="stroke:none;fill:#e1e1e1;fill-opacity:1" />
	<rect
     x="603"
     y="742.90002"
     class="st12"
     width="270"
     height="131.7"
     id="rect78"
     style="stroke:none;fill:#e1e1e1;fill-opacity:1" />
	<path
     class="st13"
     d="m 792,354.2 h 78.1 l -1.9,6.9 c -0.2,0.8 -0.3,1.7 -0.3,2.5 v 352 c 0,0.8 0.1,1.7 0.3,2.5 l 1.8,6.7 h -78 v -6.2 c 0,-6 -1.9,-10.5 -4.8,-13.5 C 784.3,702 780,700 774,700 c 0,0 -69.8,0 -71.9,0 -6,-0.1 -10.3,2 -13.2,5.1 -2.9,3.1 -4.8,7.5 -4.8,13.5 v 6.2 H 606 l 1.8,-6.7 c 0.2,-0.8 0.3,-1.7 0.3,-2.5 V 363.7 c 0,-0.8 -0.1,-1.7 -0.3,-2.5 l -1.9,-6.9 h 78.2 v 6.3 c 0,6 1.9,10.5 4.8,13.5 2.9,3.1 7.2,5.1 13.3,5.1 2.1,0 72.4,0 72.4,0 0,0 0.1,0 0.1,0 5.8,-0.1 10,-2.2 12.9,-5.4 2.7,-3 4.5,-7.4 4.5,-13.2 v -6.4 z"
     id="path78"
     style="stroke:none;fill:#e1e1e1;fill-opacity:1" />
	<path
     class="st13"
     d="m 1026,706.8 -3.7,3.7 h -136 L 886,709.3 V 370.8 l 0.4,-1.3 c 0,0 113.8,0 135.9,0 l 3.7,3.7 v 122.7 c -20.5,4.2 -36,22.3 -36,44.1 0,21.8 15.5,39.9 36,44.1 0,28.5 0,122.7 0,122.7 z"
     id="path79"
     style="stroke:none;fill:#e1e1e1;fill-opacity:1" />
	<path
     class="st13"
     d="m 441,364.8 3.4,2.7 c 1.6,1.3 3.6,2 5.6,2 h 139.7 l 0.4,1.4 v 338.4 l -0.4,1.3 c 0,0 -139.7,0 -139.7,0 -1.9,0 -3.8,0.6 -5.4,1.8 l -3.6,2.7 z"
     id="path80"
     style="stroke:none;fill:#e1e1e1;fill-opacity:1" />
	<path
     class="st13"
     d="M 60.9,386.5 H 153 v 306 H 60.7 C 46.3,692.3 35.7,690.2 28.6,684 21.7,677.9 18.7,677 18,662.7 v -239.9 0 c 0,-17.1 2.5,-19.7 9.6,-26.8 7.1,-7 18.1,-9.3 33.3,-9.5"
     id="path81"
     style="stroke:none;fill:#e1e1e1;fill-opacity:1" />
</g>
			
		
			
		
			
		
			
		
				
			<polygon
     class="st43"
     points=""
     id="polygon245"
     transform="matrix(4.1666667,0,0,4.1666667,-1.74e-5,-1.8e-5)" /><polygon
     class="st44"
     points=""
     id="polygon280"
     transform="matrix(4.1666667,0,0,4.1666667,-1.74e-5,-1.8e-5)" /><rect
     class="st47"
     width="4350"
     height="4500"
     id="rect289"
     x="-1.74e-05"
     y="-1.8000001e-05"
     style="stroke-width:4.16667" /><g
     id="Layer_9"
     class="st0"
     transform="matrix(4.1666667,0,0,4.1666667,-1.74e-5,-1.8e-5)">
	<rect
     x="477.79999"
     y="197.89999"
     class="st48"
     width="16.4"
     height="36"
     id="rect290" />
	<rect
     x="551"
     y="197.89999"
     class="st48"
     width="16.4"
     height="36"
     id="rect291" />
	<rect
     x="913.90002"
     y="197.89999"
     class="st48"
     width="16.4"
     height="36"
     id="rect292" />
	<rect
     x="987.09998"
     y="197.89999"
     class="st48"
     width="16.4"
     height="36"
     id="rect293" />
	<rect
     x="11.7"
     y="327.5"
     class="st48"
     width="16.4"
     height="36"
     id="rect294" />
	<rect
     x="84.900002"
     y="327.5"
     class="st48"
     width="16.4"
     height="36"
     id="rect295" />
	<rect
     x="8.8999996"
     y="715"
     class="st48"
     width="16.4"
     height="36"
     id="rect296" />
	<rect
     x="82.199997"
     y="715"
     class="st48"
     width="16.4"
     height="36"
     id="rect297" />
	<rect
     x="694"
     y="-27.1"
     class="st48"
     width="16.4"
     height="36"
     id="rect298" />
	<rect
     x="767.20001"
     y="-27.1"
     class="st48"
     width="16.4"
     height="36"
     id="rect299" />
	<rect
     x="473.89999"
     y="844.90002"
     class="st48"
     width="16.4"
     height="36"
     id="rect300" />
	<rect
     x="547.09998"
     y="845"
     class="st48"
     width="16.4"
     height="36"
     id="rect301" />
	<rect
     x="909.90002"
     y="845"
     class="st48"
     width="16.4"
     height="36"
     id="rect302" />
	<rect
     x="983.20001"
     y="845"
     class="st48"
     width="16.4"
     height="36"
     id="rect303" />
	<rect
     x="693.90002"
     y="1070"
     class="st48"
     width="16.4"
     height="36"
     id="rect304" />
	<rect
     x="767.20001"
     y="1070"
     class="st48"
     width="16.4"
     height="36"
     id="rect305" />
	<g
     class="st10"
     id="g353">
		<line
     class="st7"
     x1="701.70001"
     y1="1070"
     x2="774.79999"
     y2="1070"
     id="line305" />
		<line
     class="st7"
     x1="693.09998"
     y1="1052"
     x2="693.09998"
     y2="1052"
     id="line306" />
		<line
     class="st7"
     x1="601.29999"
     y1="26.9"
     x2="693.09998"
     y2="26.9"
     id="line307" />
		<line
     class="st7"
     x1="783.29999"
     y1="26.9"
     x2="874.90002"
     y2="26.9"
     id="line308" />
		<line
     class="st7"
     x1="601.29999"
     y1="1052"
     x2="693.09998"
     y2="1052"
     id="line309" />
		<line
     class="st7"
     x1="783.09998"
     y1="1052"
     x2="875.09998"
     y2="1052"
     id="line310" />
		<line
     class="st7"
     x1="601.29999"
     y1="899"
     x2="601.29999"
     y2="1052"
     id="line311" />
		<line
     class="st7"
     x1="874.90002"
     y1="899"
     x2="874.90002"
     y2="1052"
     id="line312" />
		<line
     class="st7"
     x1="601.29999"
     y1="26.9"
     x2="601.29999"
     y2="179.89999"
     id="line313" />
		<line
     class="st7"
     x1="874.90002"
     y1="26.9"
     x2="874.90002"
     y2="179.89999"
     id="line314" />
		<line
     class="st7"
     x1="594.09998"
     y1="197.89999"
     x2="601.29999"
     y2="179.89999"
     id="line315" />
		<line
     class="st7"
     x1="882.09998"
     y1="197.89999"
     x2="874.90002"
     y2="179.89999"
     id="line316" />
		<line
     class="st7"
     x1="594.09998"
     y1="881"
     x2="601.29999"
     y2="899"
     id="line317" />
		<line
     class="st7"
     x1="882.09998"
     y1="881"
     x2="874.90002"
     y2="899"
     id="line318" />
		<line
     class="st7"
     x1="594.09998"
     y1="197.89999"
     x2="594.09998"
     y2="350.89999"
     id="line319" />
		<line
     class="st7"
     x1="882.09998"
     y1="728"
     x2="882.09998"
     y2="881"
     id="line320" />
		<line
     class="st7"
     x1="594.09998"
     y1="728"
     x2="594.09998"
     y2="881"
     id="line321" />
		<line
     class="st7"
     x1="882.09998"
     y1="233.89999"
     x2="882.09998"
     y2="350.89999"
     id="line322" />
		<line
     class="st7"
     x1="1026.1"
     y1="233.89999"
     x2="1026.1"
     y2="359.89999"
     id="line323" />
		<line
     class="st7"
     x1="450.10001"
     y1="233.89999"
     x2="450.10001"
     y2="359.89999"
     id="line324" />
		<line
     class="st7"
     x1="1026.1"
     y1="719"
     x2="1026.1"
     y2="845"
     id="line325" />
		<line
     class="st7"
     x1="450.10001"
     y1="719"
     x2="450.10001"
     y2="845"
     id="line326" />
		<line
     class="st7"
     x1="594.09998"
     y1="233.89999"
     x2="594.09998"
     y2="350.89999"
     id="line327" />
		<line
     class="st7"
     x1="882.09998"
     y1="728"
     x2="882.09998"
     y2="845"
     id="line328" />
		<line
     class="st7"
     x1="594.09998"
     y1="728"
     x2="594.09998"
     y2="845"
     id="line329" />
		<line
     class="st7"
     x1="882.09998"
     y1="233.89999"
     x2="1026.1"
     y2="233.89999"
     id="line330" />
		<line
     class="st7"
     x1="450.10001"
     y1="233.89999"
     x2="594.09998"
     y2="233.89999"
     id="line331" />
		<line
     class="st7"
     x1="882.09998"
     y1="845"
     x2="1026.1"
     y2="845"
     id="line332" />
		<line
     class="st7"
     x1="450.10001"
     y1="845"
     x2="594.09998"
     y2="845"
     id="line333" />
		<line
     class="st7"
     x1="1035.1"
     y1="368.89999"
     x2="1035.1"
     y2="503.5"
     id="line334" />
		<line
     class="st7"
     x1="1035.1"
     y1="575.5"
     x2="1035.1"
     y2="710"
     id="line335" />
		<path
     class="st7"
     d="m 1035.1,575.5 c -19.9,0 -36,-16.1 -36,-36 0,-19.9 16.1,-36 36,-36"
     id="path335" />
		<line
     class="st7"
     x1="162.10001"
     y1="343.20001"
     x2="432.10001"
     y2="343.20001"
     id="line336" />
		<polyline
     class="st7"
     points="162.1,712 162.1,734.7 432.1,734.7   "
     id="polyline336" />
		<polyline
     class="st7"
     points="162.1,345.5 162.1,368 63.1,368   "
     id="polyline337" />
		<path
     class="st7"
     d="m 63.1,368 c -0.7,0 -1.5,0 -2.2,0"
     id="path337" />
		<path
     class="st7"
     d="M 60.9,368 C 24.5,368.4 9,381.9 9.1,422.3"
     id="path338" />
		<path
     class="st7"
     d="m 9.1,422.3 v 234.2 -0.9 c 0,41.3 16.1,54.4 54,54.4 h 99"
     id="path339" />
		<line
     class="st7"
     x1="1026.1"
     y1="359.89999"
     x2="1035.1"
     y2="368.89999"
     id="line339" />
		<line
     class="st7"
     x1="1026.1"
     y1="719"
     x2="1035.1"
     y2="710"
     id="line340" />
		<line
     class="st7"
     x1="877"
     y1="710"
     x2="882.09998"
     y2="728"
     id="line341" />
		<line
     class="st7"
     x1="877"
     y1="369"
     x2="882.09998"
     y2="350.89999"
     id="line342" />
		<line
     class="st7"
     x1="599.09998"
     y1="710"
     x2="594.09998"
     y2="727.90002"
     id="line343" />
		<line
     class="st7"
     x1="599.09998"
     y1="369"
     x2="594.09998"
     y2="350.89999"
     id="line344" />
		<line
     class="st7"
     x1="432.10001"
     y1="732.5"
     x2="450.10001"
     y2="719"
     id="line345" />
		<line
     class="st7"
     x1="432.10001"
     y1="345.5"
     x2="450.10001"
     y2="359.89999"
     id="line346" />
		<line
     class="st7"
     x1="882.09998"
     y1="197.89999"
     x2="882.09998"
     y2="233.89999"
     id="line347" />
		<line
     class="st7"
     x1="594.09998"
     y1="197.89999"
     x2="594.09998"
     y2="233.89999"
     id="line348" />
		<line
     class="st8"
     x1="701.70001"
     y1="1070"
     x2="693.09998"
     y2="1052"
     id="line349" />
		<line
     class="st8"
     x1="774.59998"
     y1="1070"
     x2="783.09998"
     y2="1052"
     id="line350" />
		<line
     class="st7"
     x1="701.70001"
     y1="8.8999996"
     x2="774.79999"
     y2="8.8999996"
     id="line351" />
		<line
     class="st8"
     x1="701.70001"
     y1="8.8999996"
     x2="693.09998"
     y2="26.9"
     id="line352" />
		<line
     class="st8"
     x1="774.59998"
     y1="8.8999996"
     x2="783.29999"
     y2="26.9"
     id="line353" />
	</g>
</g></svg>
