<svg version="1.1" id="YOUR_ARTWORK_HERE" xmlns="http://www.w3.org/2000/svg" xmlns:xlink="http://www.w3.org/1999/xlink" x="0px" y="0px" width="1275" height="1275" viewBox="0 0 1275 1275" enable-background="new 0 0 306 306" xml:space="preserve">
<rect y="-0.665" fill="#929497" width="306" height="306.665"></rect>
<rect x="9" y="8.696" fill="#FFFFFF" stroke="#EC1E28" width="288" height="288.941"></rect>

<rect x="-206.292" y="14.578" display="none" fill="#D0D2D3" width="197" height="200.666"></rect>

<rect x="17" y="18" display="none" fill="none" stroke="#2BA6DE" stroke-dasharray="6" width="270.667" height="270.315"></rect>
<rect x="279" y="233.673" fill="#F9A51A" width="27" height="54.786"></rect>
<line fill="none" stroke="#F9A51A" x1="195.5" y1="233.504" x2="306" y2="233.504"></line>
<line fill="none" stroke="#EC1E28" x1="213" y1="103.967" x2="297" y2="103.967"></line>
<line fill="none" stroke="#929497" x1="200.5" y1="140.964" x2="303.75" y2="140.964"></line>
<line fill="none" stroke="#2BA6DE" stroke-dasharray="1.4416" x1="208" y1="34.315" x2="287" y2="34.315"></line>
<g>
	<path fill="#EC1E28" d="M207.618,21.278c0,0.688-0.311,1.356-0.932,2.008l-0.097,0.097l-5.432,5.734
		c-1.154,1.216-2.137,2.155-2.949,2.819c-0.811,0.664-1.384,0.995-1.718,0.995c-0.352,0-0.788-0.166-1.31-0.498
		s-0.858-0.674-1.011-1.026c-0.129-0.293-0.251-0.916-0.364-1.867c-0.115-0.951-0.172-1.982-0.172-3.092
		c0-0.604,0.252-1.164,0.756-1.678S195.451,24,196.061,24c0.58,0,0.926,0.531,1.037,1.594c0.012,0.123,0.021,0.214,0.026,0.273
		c0.094,0.816,0.202,1.386,0.325,1.708c0.123,0.323,0.29,0.485,0.501,0.485c0.088,0,0.252-0.096,0.492-0.287
		s0.527-0.451,0.861-0.779l5.581-5.541c0.469-0.47,0.888-0.825,1.257-1.066c0.369-0.241,0.683-0.361,0.94-0.361
		c0.193,0,0.331,0.073,0.413,0.22s0.123,0.394,0.123,0.74V21.278z"></path>
</g>
<g>
	<path fill="#EC1E28" d="M298.07,108.658l0.264-5.067l-1.558,0.958l0.074-1.145l1.595-0.951c0.03-0.414,0.062-0.798,0.104-1.15
		c0.043-0.353,0.09-0.687,0.144-1.002l0.042-0.236c-0.123,0.043-0.24,0.071-0.354,0.084c-0.113,0.015-0.217,0.014-0.312-0.003
		c-0.311-0.054-0.551-0.208-0.718-0.463c-0.171-0.254-0.228-0.545-0.17-0.872c0.062-0.368,0.243-0.663,0.541-0.885
		c0.296-0.222,0.616-0.303,0.96-0.243c0.299,0.052,0.523,0.197,0.675,0.435c0.151,0.237,0.196,0.519,0.141,0.851
		c-0.028,0.158-0.104,0.387-0.235,0.689c-0.129,0.302-0.206,0.53-0.234,0.688c-0.043,0.254-0.026,0.515,0.047,0.783
		c0.074,0.267,0.21,0.552,0.412,0.851c0.39-0.155,0.729-0.369,1.018-0.646c0.287-0.275,0.518-0.608,0.691-0.998
		c0.06-0.128,0.135-0.308,0.229-0.537c0.095-0.229,0.165-0.375,0.206-0.438c0.146-0.212,0.323-0.366,0.528-0.463
		c0.203-0.098,0.42-0.126,0.65-0.086c0.298,0.052,0.526,0.203,0.685,0.453c0.158,0.251,0.208,0.546,0.151,0.884
		c-0.061,0.349-0.232,0.624-0.516,0.824c-0.285,0.2-0.599,0.271-0.948,0.21c-0.15-0.026-0.284-0.081-0.407-0.165
		c-0.121-0.085-0.232-0.202-0.332-0.354c-0.223,0.467-0.48,0.869-0.773,1.204c-0.292,0.334-0.617,0.602-0.975,0.801
		c-0.129,1.271-0.218,2.14-0.273,2.61c-0.053,0.468-0.098,0.811-0.135,1.026c-0.093,0.542-0.237,0.998-0.431,1.369
		C298.659,108.048,298.398,108.375,298.07,108.658z M298.125,99.753c0.238,0.041,0.455-0.016,0.651-0.169
		c0.2-0.153,0.321-0.363,0.368-0.628c0.04-0.23,0.007-0.43-0.097-0.601c-0.103-0.169-0.254-0.271-0.451-0.306
		c-0.245-0.042-0.474,0.016-0.685,0.176c-0.211,0.158-0.34,0.371-0.386,0.636c-0.038,0.223-0.001,0.417,0.11,0.586
		C297.747,99.612,297.909,99.716,298.125,99.753z M302.28,100.811c0.25,0.042,0.471-0.006,0.665-0.146
		c0.193-0.141,0.312-0.341,0.356-0.597c0.038-0.222,0.007-0.415-0.096-0.578c-0.101-0.162-0.254-0.259-0.452-0.293
		c-0.229-0.041-0.448,0.023-0.654,0.192c-0.207,0.167-0.332,0.383-0.378,0.648c-0.034,0.204-0.003,0.375,0.097,0.513
		C301.92,100.688,302.074,100.774,302.28,100.811z"></path>
</g>
<g>
	<path fill="#EC1E28" d="M211.951,90.763c0,0.687-0.311,1.356-0.932,2.008l-0.097,0.097l-5.432,5.734
		c-1.154,1.215-2.138,2.155-2.948,2.818c-0.812,0.664-1.385,0.996-1.719,0.996c-0.352,0-0.788-0.167-1.31-0.498
		c-0.521-0.333-0.858-0.674-1.011-1.026c-0.129-0.293-0.25-0.916-0.365-1.867c-0.113-0.951-0.171-1.982-0.171-3.092
		c0-0.605,0.252-1.165,0.756-1.678c0.504-0.515,1.061-0.771,1.67-0.771c0.58,0,0.926,0.532,1.037,1.594
		c0.012,0.124,0.021,0.214,0.026,0.273c0.094,0.816,0.202,1.386,0.325,1.709s0.29,0.484,0.501,0.484
		c0.088,0,0.252-0.095,0.492-0.287c0.24-0.19,0.527-0.45,0.861-0.779l5.581-5.54c0.469-0.47,0.888-0.825,1.257-1.066
		s0.683-0.361,0.94-0.361c0.193,0,0.331,0.073,0.413,0.22c0.082,0.147,0.123,0.394,0.123,0.74V90.763z"></path>
</g>
<g>
	<path fill="#EC1E28" d="M198.618,128.178c0,0.687-0.311,1.356-0.932,2.008l-0.097,0.097l-5.432,5.734
		c-1.154,1.215-2.137,2.155-2.949,2.819c-0.811,0.663-1.384,0.995-1.718,0.995c-0.352,0-0.788-0.166-1.31-0.498
		c-0.521-0.332-0.858-0.674-1.011-1.026c-0.129-0.293-0.251-0.916-0.364-1.867c-0.115-0.951-0.172-1.982-0.172-3.092
		c0-0.605,0.252-1.164,0.756-1.678c0.504-0.514,1.061-0.771,1.67-0.771c0.58,0,0.926,0.532,1.037,1.594
		c0.012,0.124,0.021,0.214,0.026,0.273c0.094,0.816,0.202,1.386,0.325,1.708c0.123,0.323,0.29,0.484,0.501,0.484
		c0.088,0,0.252-0.095,0.492-0.286c0.24-0.191,0.527-0.451,0.861-0.78l5.581-5.541c0.469-0.47,0.888-0.825,1.257-1.066
		s0.683-0.361,0.94-0.361c0.193,0,0.331,0.073,0.413,0.22c0.082,0.146,0.123,0.393,0.123,0.74V128.178z"></path>
</g>
<g>
	<path fill="#EC1E28" d="M194.285,220.551c0,0.688-0.311,1.356-0.932,2.009l-0.097,0.097l-5.432,5.734
		c-1.154,1.215-2.138,2.154-2.948,2.818c-0.812,0.663-1.385,0.995-1.719,0.995c-0.352,0-0.788-0.166-1.31-0.497
		c-0.521-0.333-0.858-0.674-1.011-1.026c-0.129-0.294-0.25-0.916-0.365-1.867c-0.113-0.952-0.171-1.982-0.171-3.092
		c0-0.605,0.252-1.165,0.756-1.678c0.504-0.515,1.061-0.771,1.67-0.771c0.58,0,0.926,0.531,1.037,1.595
		c0.012,0.123,0.021,0.214,0.026,0.272c0.094,0.816,0.202,1.386,0.325,1.709s0.29,0.484,0.501,0.484
		c0.088,0,0.252-0.095,0.492-0.286c0.24-0.19,0.527-0.45,0.861-0.779l5.581-5.54c0.469-0.47,0.888-0.825,1.257-1.066
		c0.369-0.24,0.683-0.361,0.94-0.361c0.193,0,0.331,0.074,0.413,0.221s0.123,0.394,0.123,0.74V220.551z"></path>
</g>
<g display="none">
	<path display="inline" fill="#EC1E28" d="M-113.39,223.908c0,0.686-0.311,1.354-0.932,2.004l-0.097,0.098l-5.432,5.721
		c-1.154,1.213-2.137,2.15-2.949,2.812s-1.384,0.994-1.718,0.994c-0.352,0-0.788-0.166-1.31-0.497s-0.858-0.673-1.011-1.024
		c-0.129-0.293-0.25-0.914-0.365-1.863s-0.171-1.977-0.171-3.084c0-0.604,0.252-1.162,0.756-1.675s1.061-0.769,1.67-0.769
		c0.58,0,0.926,0.529,1.037,1.59c0.012,0.123,0.021,0.215,0.026,0.273c0.094,0.814,0.202,1.383,0.325,1.705s0.29,0.482,0.501,0.482
		c0.088,0,0.252-0.095,0.492-0.285s0.527-0.449,0.861-0.777l5.581-5.529c0.469-0.469,0.888-0.822,1.257-1.062
		s0.683-0.361,0.94-0.361c0.193,0,0.331,0.074,0.413,0.221s0.123,0.393,0.123,0.738V223.908z"></path>
</g>
<g display="none">
	<circle display="inline" fill-rule="evenodd" clip-rule="evenodd" cx="-104.732" cy="89.711" r="62.147"></circle>
	<circle display="inline" fill-rule="evenodd" clip-rule="evenodd" fill="#B7D333" cx="-104.689" cy="90.055" r="56.497"></circle>
	<g display="inline">
		<path d="M-116.785,77.734c-0.784,6.925-1.368,12.486-1.755,16.686l-2.577,0.113c0.037-0.14,0.057-0.297,0.062-0.472
			c0.005-0.314-0.111-0.729-0.348-1.242c-0.236-0.512-0.371-0.838-0.404-0.978c-0.667,0.093-1.306,0.557-1.915,1.385
			c-0.609,0.831-1.161,1.243-1.649,1.236c-0.282-0.006-0.596-0.084-0.943-0.228c-0.46,0.308-1.057,0.436-1.793,0.39
			c-0.664-0.116-1.311-0.215-1.94-0.297c-0.02-0.874-0.883-1.643-2.588-2.304c0.006-0.35-0.169-0.87-0.526-1.558
			c-0.355-0.691-0.531-1.174-0.526-1.455c0.004-0.316,0.132-0.576,0.382-0.781c-0.035-0.106-0.322-0.759-0.861-1.961
			c-0.37-0.88-0.55-1.639-0.539-2.268c0.008-0.49,0.121-0.945,0.339-1.361c-0.3-2.984-0.432-5.542-0.395-7.68
			c0.055-3.293,0.526-6.315,1.415-9.07c-0.063-0.421-0.092-0.84-0.084-1.262c0.037-2.207,0.8-3.734,2.283-4.586l0.013-0.683
			c1.469-1.868,3.4-3.219,5.798-4.055c1.431,0.34,2.861,0.663,4.293,0.968c1.603,0.552,2.708,1.499,3.316,2.842
			c0.484,0.289,0.721,0.871,0.705,1.745c-0.015,0.981,0.096,1.615,0.337,1.898l-0.268,0.312c0.279,2.071,0.416,3.336,0.408,3.79
			c-0.023,1.331-0.374,2.272-1.047,2.82c-0.245-0.004-0.89-0.225-1.933-0.662c-0.249,0.239-0.515,0.358-0.795,0.354
			c-0.141-0.002-0.394-0.077-0.759-0.224c-0.364-0.146-0.672-0.222-0.916-0.226c-0.176-0.003-0.352,0.029-0.527,0.096
			c-0.021-2.768,0.065-4.834,0.263-6.198c-0.277-0.179-0.559-0.588-0.845-1.222c-0.289-0.636-0.66-0.993-1.112-1.069
			c-0.285,0.345-0.413,0.57-0.38,0.677l-0.94-0.332c-0.856,0.933-1.427,2.552-1.711,4.858c-0.291,2.657-0.653,4.422-1.088,5.289
			c0.377,0.394,0.562,0.939,0.55,1.639c-0.004,0.247-0.046,0.649-0.127,1.207c-0.08,0.561-0.12,0.98-0.124,1.261
			c-0.007,0.315,0.021,0.597,0.089,0.843l-0.641,0.618c0.26,1.196,0.41,2.706,0.449,4.528c-0.025,1.542-0.036,3.083-0.025,4.624
			c-0.037,0-0.335,0.013-0.896,0.037c-0.35-0.006-0.599,0.113-0.742,0.356c0.212-0.031,0.404-0.047,0.578-0.043
			c0.771,0.012,1.376,0.557,1.813,1.633c0.437,1.078,0.812,1.618,1.128,1.624c0.35,0.004,0.829-0.318,1.438-0.976
			c1.032-1.104,1.567-2.619,1.601-4.544c0.017-0.947-0.09-1.964-0.316-3.054c-0.249,0.137-0.376,0.484-0.386,1.043
			c-0.561-0.01-0.913,0.108-1.058,0.35c-0.243-0.074-0.347-0.268-0.306-0.583c0.042-0.453,0.064-0.698,0.065-0.734
			c0.423-0.133,0.634-0.322,0.64-0.567c0.002-0.104-0.073-0.299-0.226-0.582c-0.153-0.282-0.228-0.511-0.225-0.687
			c0.002-0.141,0.039-0.279,0.111-0.42l0.245-2.045c0.768,0.225,2.429,0.321,4.988,0.296c-0.074,0.174,0.028,0.404,0.305,0.688
			c0.248-0.241,0.512-0.359,0.793-0.354c0.21,0.005,0.524,0.098,0.941,0.279C-117.257,77.642-116.962,77.732-116.785,77.734z"></path>
		<path d="M-97.173,95.833c-0.488-0.219-1.012-0.332-1.571-0.342c-0.49-0.008-1.16,0.085-2.003,0.282
			c-0.949,0.193-1.6,0.304-1.95,0.335c-0.374-0.742-0.635-1.765-0.788-3.063c-0.283-1.896-0.459-2.967-0.523-3.214
			c0.108-0.209,0.165-0.383,0.166-0.522c0.008-0.387-0.295-0.731-0.901-1.04c-0.611-0.309-0.911-0.55-0.908-0.727
			c0.002-0.208,0.359-0.519,1.067-0.929c-0.172-0.212-0.299-0.643-0.374-1.291c-0.076-0.649-0.235-1.083-0.476-1.298
			c-0.428,0.38-1.122,0.622-2.088,0.728c-0.967,0.107-1.608,0.263-1.926,0.466c0.021,2.733-0.429,4.566-1.356,5.496
			c-0.488-0.114-0.86,0.072-1.113,0.561c-0.361,0.589-0.664,0.935-0.912,1.034l0.309,0.373c-0.283,0.239-0.741,0.339-1.368,0.293
			c-0.982-0.054-1.507-0.078-1.577-0.079l-0.298-0.951l3.423-28.376c0.031-1.786,0.122-2.994,0.272-3.622
			c-0.045-1.578,0.323-2.553,1.1-2.924c0.485,0.322,1.098,0.491,1.832,0.504c0.595,0.009,1.527-0.114,2.791-0.374
			c1.267-0.258,2.146-0.384,2.637-0.376c1.714,0.029,2.463,1.269,2.248,3.718c-0.173,1.959,0.132,4.54,0.919,7.743
			c0.817,3.446,1.213,6.027,1.184,7.745c-0.009,0.525,0.163,1.613,0.12,2.14c-0.744,0.406-1.692,0.652-2.851,0.737
			c-1.017,0.054-2.052,0.106-3.104,0.158c-0.271-2.666-0.74-5.881-1.012-8.514c-0.331-3.158-0.742-5.758-1.233-7.798l-1.621,15.003
			c-0.128,1.294,0.458,1.953,1.754,1.976c0.421,0.006,0.822-0.093,1.213-0.295c0.317-0.101,0.753,0.137,1.303,0.704
			c-0.02,1.087,0.197,1.738,0.65,1.957c0.567-0.378,1.309-0.731,2.225-1.067c0.811-0.301,1.604-0.585,2.38-0.854
			c0.443,0.604,0.729,1.502,0.85,2.696c0.146,1.684,0.25,2.667,0.316,2.947c0.059,0.668,0.331,2.109,0.818,4.325
			c0.357,1.757,0.525,3.18,0.508,4.266C-97.052,94.89-97.097,95.379-97.173,95.833z"></path>
		<path d="M-72.974,70.807c-0.04,0.104-0.048,0.717-0.032,1.838c-0.016,0.911-0.133,1.594-0.35,2.046
			c-0.259,0.695-0.396,1.691-0.419,2.986c-0.006,0.282,0.004,0.72,0.031,1.316c-0.013,0.595-0.018,1.032-0.023,1.312
			c-0.037,2.208-0.414,3.812-1.135,4.816c0.062,0.563,0.088,1.124,0.079,1.683c-0.029,1.752-0.63,4.107-1.802,7.064
			c-0.318,0.102-0.582,0.148-0.793,0.146c-0.42-0.008-0.722-0.249-0.906-0.725c-0.187-0.477-0.361-0.926-0.528-1.351
			c0.114-2.694,0.059-6.62-0.169-11.775l0.32-0.31c-0.23-0.915-0.335-1.933-0.316-3.053c0.015-0.806,0.114-1.978,0.297-3.516
			c0.185-1.538,0.282-2.694,0.295-3.466c0.011-0.489-0.002-0.964-0.026-1.418c-1.206,2.889-2.062,7.778-2.562,14.672l-0.438,1.043
			c-0.146,0.349-0.447,0.536-0.902,0.563c-0.138-0.245-0.275-0.372-0.414-0.375c-0.105-0.002-0.292,0.127-0.558,0.385
			c-0.269,0.257-0.489,0.367-0.663,0.33l-0.695,0.618c0.309,0.393,0.973,0.437,1.996,0.141c0.808-0.231,1.224,0.072,1.245,0.914
			c0.021,0.701-0.17,1.645-0.574,2.829c-0.405,1.183-0.613,2.074-0.622,2.669c-0.008,0.42,0.038,0.843,0.135,1.264l-3.637,0.569
			c-0.338-0.708-0.589-1.893-0.754-3.561c-0.163-1.668-0.415-2.854-0.754-3.561c0.215-0.24,0.323-0.501,0.328-0.782
			c0.004-0.245-0.093-0.614-0.296-1.108c-0.201-0.494-0.318-0.864-0.35-1.11c-0.029-0.385-0.152-1.317-0.372-2.792
			c-0.155-1.193-0.229-2.125-0.217-2.789c0.006-0.351,0.03-0.665,0.07-0.944c0.004-0.245-0.133-0.605-0.403-1.086
			c-0.271-0.478-0.405-0.821-0.4-1.032c0.003-0.174,0.074-0.33,0.217-0.466c-0.241-0.287-0.337-0.778-0.29-1.479
			c0.047-0.699-0.052-1.191-0.29-1.476c-0.516,1.357-0.791,3.191-0.831,5.505c-0.018,3.223-0.052,5.081-0.094,5.568l0.363,0.322
			l-0.374,0.309c0.259,1.266,0.373,2.88,0.339,4.841c-0.095,3.537-0.141,5.184-0.137,4.939c-0.499,0.446-1.187,0.662-2.061,0.647
			c-1.085-0.019-1.824,0.076-2.211,0.277c-0.444-0.777-0.656-1.779-0.633-3.006c0.014-0.945,0.176-2.098,0.479-3.461
			c-0.478-0.884-0.7-2.115-0.674-3.69c0.007-0.386,0.053-1.12,0.142-2.205c0.05-0.874,0.062-1.522,0.034-1.944
			c0.353-0.168,0.531-0.357,0.534-0.567c0.003-0.142-0.106-0.379-0.33-0.717c-0.222-0.335-0.331-0.592-0.329-0.767
			c0.004-0.21,0.148-0.418,0.433-0.625l-1.133-16.995c0.675-0.443,1.766-0.653,3.271-0.627c1.645,0.064,2.769-0.022,3.368-0.257
			c0.106-0.07,0.229-0.103,0.37-0.101c0.14,0.002,0.305,0.085,0.494,0.244c0.191,0.162,0.32,0.242,0.389,0.244
			c0.14,0.003,0.266-0.101,0.375-0.309l0.981,0.963c0.329,1.232,0.639,3.62,0.93,7.162c0.299,3.054,0.767,5.358,1.408,6.91
			c0.858-3.103,1.566-5.702,2.129-7.795l1.141-8.317l8.146-0.177c0.029,0.456,0.129,2.891,0.351,4.297
			c0.188,1.229,0.277,2.229,0.263,2.999c-0.014,0.877-0.15,1.662-0.408,2.357c0.274,0.393,0.405,0.883,0.396,1.478
			C-72.539,69.938-72.688,70.425-72.974,70.807z"></path>
		<path d="M-56.26,89.223l0.003-0.053c-0.219,0.452-0.352,0.976-0.396,1.569c-0.041,0.384-0.052,0.928-0.028,1.628
			c0.021,0.807,0.029,1.369,0.025,1.683c-0.282-0.004-1.401-0.023-3.363-0.056c-1.191-0.021-2.262,0.083-3.212,0.312l-0.979-1.067
			c-0.287,0.273-0.396,0.501-0.328,0.679c-0.175-0.041-0.98-0.053-2.416-0.043c-1.122-0.019-1.961-0.139-2.516-0.358
			c-0.572,0.588-1.239,0.576-1.999-0.032c-0.277-0.214-0.304-0.576-0.087-1.08c0.218-0.504,0.155-0.881-0.19-1.133
			c0.053-1.119,0.207-2.852,0.457-5.196c0.246-2.097,0.378-3.743,0.397-4.934c0.027-1.609-0.085-3.153-0.34-4.629
			c0.393-0.38,0.83-0.565,1.321-0.557c0.562,0.009,1.223,0.284,1.984,0.821c1.07,0.754,1.629,1.131,1.663,1.132l0.308,0.373
			c0.037-0.104,0.222-0.661,0.554-1.673c0.188-0.661,0.458-1.095,0.812-1.3l0.31,0.322c0.141-0.068,0.603-0.394,1.383-0.976
			c0.601-0.41,1.093-1.383,1.441-1.376c0.387,0.006,0.749,0.223,1.095,0.649c0.589,0.325,0.96,1.584,1.144,2.234
			c0.181,0.65,0.354,1.292,0.52,1.928c-1.578,0.043-2.874,0.002-3.888-0.119c-0.253,0.381-0.604,0.436-1.054,0.166
			c-0.45-0.271-0.783-0.231-1,0.114c-0.012,0.632-0.032,1.77-0.059,3.414c-0.062,1.472-0.08,2.627-0.059,3.47
			c0.012,1.296,0.099,2.489,0.255,3.578c0.278,0.005,1.609,0.027,3.991,0.067C-58.863,88.812-57.446,88.956-56.26,89.223z
			 M-56.147,64.049c-0.315,0.029-0.665,0.041-1.051,0.035c-0.805-0.014-1.873-0.138-3.199-0.37
			c-1.645-0.238-2.642-0.377-2.991-0.418c-0.501,0.725-0.763,1.757-0.787,3.088c-0.048,2.871-0.051,4.115-0.01,3.73
			c0.484,0.288,0.722,0.818,0.708,1.589c-0.053,1.05-0.062,1.594-0.028,1.628c-0.246,0.102-0.375,0.449-0.384,1.046
			c-0.386-0.147-0.782-0.435-1.194-0.861c-0.552-0.536-0.846,1.279-0.804,0.825l-0.332,1.079l-0.311-0.321
			c-0.283,0.029-0.762-0.118-1.438-0.444c-0.68-0.326-1.155-0.631-1.43-0.919c0.009-0.56,0.104-0.874,0.278-0.941l-0.67-0.745
			l-0.324,0.467c-0.393-3.65-0.294-10.478,0.188-14.324c1.33,0.233,2.799,0.382,4.41,0.443c1.084,0.053,2.607,0.078,4.57,0.077
			c2.242,0.003,3.855,0.012,4.835,0.028c0.412,0.395,0.616,0.905,0.604,1.534c-0.006,0.389-0.113,1.006-0.321,1.862
			C-56.032,62.992-56.14,63.628-56.147,64.049z"></path>
	</g>
	<g display="inline">
		<path d="M-115.206,120.996v-0.024c0,0.017-0.091,0.788-0.271,2.315c-0.091,0.939-0.316,1.677-0.679,2.215l-0.229-0.187
			c-0.426,0.892-1.004,1.434-1.739,1.627c-0.351,0.37-0.857,0.574-1.519,0.612c-0.393,0.024-1.3-0.091-2.724-0.342
			c-0.688-0.427-1.062-0.662-1.129-0.709c-0.433-0.325-0.639-0.655-0.616-0.989c-0.418-0.427-1.007-1.188-1.227-2.141
			c-0.269-1.052-0.431-1.111-0.68-1.48c-0.397,0.291-0.54-0.329-0.769-0.7l0.208-0.162c-0.13-0.093-0.197-0.196-0.205-0.313
			c-0.004-0.083,0.03-0.205,0.104-0.368c0.074-0.162,0.108-0.286,0.103-0.368c-0.007-0.132-0.086-0.245-0.236-0.337
			c0.159-0.826,0.305-2.067,0.436-3.726c0.282-0.149,0.415-0.441,0.401-0.874c-0.016-0.432,0.044-0.719,0.182-0.86
			c0.668-1.339,1.756-2.243,3.261-2.715c0.084,0.013,0.487,0.005,1.211-0.02c0.497-0.013,0.872,0.032,1.126,0.134
			c0.451-0.076,0.904,0.031,1.354,0.322c0.392,0.294,0.781,0.588,1.17,0.882c0.729,0.792,1.124,1.686,1.183,2.683
			c0.02,0.332-0.004,0.683-0.064,1.053c-0.539-0.019-0.923,0.338-1.15,1.068l-2.1,0.195c-0.226-0.318-0.355-0.746-0.386-1.277
			c-0.011-0.183-0.01-0.449,0-0.8c0.011-0.351,0.012-0.617,0.001-0.8c-0.032-0.548-0.161-0.982-0.387-1.303l-0.632,0.36
			c-0.255-0.102-0.387-0.252-0.398-0.451c-0.004-0.066,0.006-0.163,0.03-0.289c0.023-0.127,0.034-0.215,0.03-0.265
			c-0.013-0.215-0.206-0.346-0.582-0.393c-0.256,2.366-0.333,4.797-0.229,7.29c0.065,0.08,0.267,0.136,0.6,0.166
			c0.271,0.034,0.41,0.118,0.417,0.251c0.004,0.051-0.012,0.117-0.05,0.202l-0.208,0.162c0.113,0.177,0.181,0.424,0.199,0.739
			c0.009,0.166,0.003,0.422-0.019,0.763c-0.021,0.344-0.027,0.599-0.018,0.764c0.03,0.499,0.154,0.876,0.378,1.13
			c-0.022,0.367,0.128,0.617,0.445,0.749c0.203-0.079,0.387-0.122,0.553-0.132c0.64-0.037,1.085,0.311,1.334,1.049
			c0.001,0.016-0.002,0.141-0.009,0.375c0.008,0.133,0.074,0.22,0.201,0.262c0.28-0.166,0.419-0.467,0.414-0.898
			c-0.008-0.5,0.057-0.82,0.193-0.962c-0.035-0.23-0.172-0.563-0.416-1s-0.371-0.778-0.387-1.028
			c-0.015-0.266,0.064-0.521,0.235-0.764c-0.146-0.042-0.214-0.138-0.202-0.287c0.007-0.235,0.01-0.36,0.01-0.377
			C-117.542,120.74-116.381,120.731-115.206,120.996z"></path>
		<path d="M-105.696,122.947l-0.026,0.001c-0.122,0.239-0.159,0.585-0.116,1.029c0.057,0.635,0.087,0.957,0.088,0.973
			c-0.096,0.036-0.225-0.011-0.385-0.141c-0.245,0.092-0.361,0.246-0.349,0.463c0.001,0.03,0.015,0.084,0.037,0.16
			c0.005,0.092,0.01,0.154,0.012,0.186c0.009,0.169-0.041,0.297-0.151,0.381c-0.279-0.154-0.646-0.253-1.101-0.296
			c-0.456-0.045-0.888-0.085-1.294-0.122c-0.007-2.109-0.291-4.171-0.85-6.185c0,0.016-0.012-0.192-0.037-0.626
			c0.001-0.31-0.069-0.53-0.212-0.662l-0.192,0.174c-0.003-0.031,0.062-0.092,0.191-0.186c0.13-0.092,0.192-0.186,0.188-0.278
			c-0.004-0.046-0.017-0.091-0.037-0.137l-0.213-0.151c-0.358,0.114-0.524,0.403-0.498,0.866c0.02,0.31-0.105,0.527-0.365,0.65
			c0.1,0.071,0.152,0.161,0.159,0.27c0.005,0.062-0.005,0.148-0.028,0.257c-0.023,0.11-0.033,0.196-0.029,0.258
			c0.009,0.138,0.083,0.25,0.222,0.336c0.007,0.093,0.054,0.927,0.145,2.504c0.06,1.005,0.032,1.858-0.079,2.562l0.021,0.395
			c-0.136-0.007-0.29-0.006-0.462,0.003c-0.191,0.013-0.471,0.04-0.834,0.084c-0.362,0.045-0.631,0.073-0.804,0.082
			c-0.71,0.04-1.208-0.079-1.496-0.356l-0.299-8.656c-0.14-0.425-0.231-1.017-0.276-1.775l-0.096-1.668
			c-0.067-0.818-0.171-1.448-0.312-1.889c0.059-0.299,0.32-0.461,0.78-0.486c0.287-0.018,0.675,0.021,1.162,0.117
			c0.226-0.106,0.54-0.17,0.944-0.194c0.114-0.007,0.296-0.01,0.547-0.008c0.27-0.016,0.462-0.027,0.576-0.034
			c0.749-0.044,1.246-0.273,1.492-0.691c0.348-0.004,0.724,0.105,1.132,0.33s0.767,0.344,1.075,0.355
			c0.817,0.48,1.258,1.276,1.324,2.389c0.013,0.248-0.083,1.229-0.291,2.947l-1.404,1.222c0.238,0.437,0.525,1.388,0.861,2.856
			C-106.694,121.479-106.269,122.375-105.696,122.947z M-108.289,113.098l0.028,0.021c0.026,0.106,0.014-0.272-0.037-1.138
			c-0.024-0.417-0.176-0.718-0.457-0.904c-0.159,0.227,0.021,0.332-0.055,0.856c-0.075,0.523-0.384,0.377-0.564,0.604
			c-0.482-0.003-0.593,0.288-0.695-0.171c-0.217-0.748-0.403-0.682-0.404-0.696l-0.205,0.124c-0.072,0.065-0.156,0.141-0.247,0.223
			c-0.092,0.084-0.185,0.112-0.283,0.086c0.007,0.094-0.039,0.239-0.133,0.439c-0.097,0.199-0.142,0.337-0.136,0.414
			c0.01,0.14,0.119,0.24,0.335,0.306c-0.038,0.313-0.048,0.64-0.029,0.979c0.011,0.185,0.055,0.609,0.133,1.271
			c0.087,0.522,0.122,0.97,0.104,1.342c0.175,0.007,0.338,0.006,0.492-0.004c0.674-0.039,1.11-0.306,1.312-0.797
			c0.068-0.144,0.146-0.66,0.229-1.549C-108.826,113.834-108.622,113.364-108.289,113.098z"></path>
		<path d="M-94.785,126.309c-0.275-0.078-0.566-0.108-0.874-0.09c-0.268,0.016-0.63,0.083-1.085,0.202
			c-0.515,0.123-0.866,0.197-1.058,0.225c-0.23-0.312-0.41-0.75-0.538-1.317c-0.223-0.824-0.356-1.289-0.399-1.396
			c0.054-0.096,0.075-0.175,0.072-0.236c-0.01-0.169-0.188-0.311-0.53-0.422c-0.345-0.111-0.518-0.207-0.521-0.285
			c-0.005-0.091,0.177-0.242,0.552-0.449c-0.102-0.088-0.185-0.271-0.248-0.556c-0.065-0.283-0.167-0.467-0.308-0.553
			c-0.221,0.185-0.593,0.319-1.119,0.403c-0.524,0.084-0.871,0.178-1.039,0.281c0.109,1.203,0,3.315-0.475,3.762
			c-0.271-0.031-0.467,0.064-0.589,0.289c-0.178,0.273-0.332,0.439-0.463,0.493l0.181,0.151c-0.147,0.117-0.395,0.178-0.74,0.183
			c-0.539,0.017-0.826,0.024-0.864,0.027l-0.198-0.408l0.811-13.921c-0.045-0.787-0.038-1.322,0.022-1.604
			c-0.08-0.693,0.088-1.138,0.5-1.332c0.278,0.123,0.616,0.173,1.021,0.149c0.325-0.02,0.833-0.109,1.516-0.273
			c0.684-0.163,1.161-0.254,1.43-0.27c0.941-0.055,1.396,0.462,1.362,1.549c-0.028,0.87,0.23,1.994,0.774,3.374
			c0.566,1.486,0.872,2.608,0.917,3.365c0.013,0.231,0.321,0.724,0.316,0.956c-0.395,0.209-0.906,0.355-1.537,0.438
			c-0.555,0.063-1.117,0.128-1.694,0.191c-0.239-1.165-0.784-2.58-1.024-3.729c-0.291-1.378-0.609-2.506-0.947-3.387l-0.365,6.673
			c-0.023,0.574,0.319,0.842,1.029,0.8c0.23-0.012,0.448-0.072,0.655-0.177c0.171-0.056,0.415,0.031,0.737,0.26
			c0.027,0.479,0.168,0.759,0.425,0.835c0.297-0.187,0.69-0.372,1.181-0.557c0.434-0.164,0.858-0.32,1.274-0.469
			c0.264,0.248,0.448,0.633,0.559,1.154c0.138,0.735,0.229,1.164,0.276,1.285c0.055,0.291,0.254,0.916,0.599,1.873
			c0.258,0.76,0.399,1.379,0.427,1.858C-94.753,125.887-94.76,126.104-94.785,126.309z"></path>
		<path d="M-86.831,110.52l0.029-0.001c-0.23,0.339-0.524,0.402-0.886,0.191c-0.076-0.013-0.422,0.009-1.036,0.059
			c-0.519,0.03-0.895,0.006-1.131-0.074c-0.057,0.005-0.172,0.062-0.339,0.171c-0.166,0.111-0.287,0.169-0.365,0.173
			c-0.113,0.007-0.179-0.09-0.188-0.291c-0.002-0.031-0.01-0.162-0.024-0.395c-0.009-0.153-0.083-0.259-0.221-0.312l-0.358,0.276
			c-0.112,0.085-0.164,0.173-0.158,0.266c0.004,0.077,0.069,0.186,0.193,0.325c0.122,0.142,0.194,0.241,0.218,0.302
			c0.005,0.046,0.044,0.743,0.121,2.087c0.03,0.852,0.187,1.53,0.467,2.042c0.071-0.081,0.246-0.126,0.526-0.135
			c0.278-0.008,0.463-0.07,0.553-0.184c0.183,0.16,0.486,0.169,0.912,0.028s0.732-0.093,0.92,0.144l-0.056,2.051
			c-0.175-0.02-0.431-0.105-0.767-0.257c-0.098,0.3-0.289,0.488-0.573,0.567c-0.114,0.039-0.44,0.071-0.978,0.104
			c0.015-0.095-0.067-0.189-0.248-0.288c-0.523,0.248-0.721,0.841-0.59,1.778c0.013-0.094,0.033,0.067,0.058,0.486
			c0.015,0.262-0.041,0.451-0.17,0.566c-0.325,0.05-0.738-0.023-1.241-0.218c-0.501-0.196-0.859-0.289-1.071-0.275
			c-0.096,0.005-0.183,0.019-0.258,0.038l-0.538,0.171l-0.863-9.368l-0.103-1.782c0.717-0.243,1.604-0.396,2.661-0.458
			c0.826-0.047,1.905-0.041,3.238,0.021c0.086-0.176,0.244,0.054,0.437,0.042c0.096-0.005,0.241,0.005,0.435,0.033
			c0.194,0.026,0.341,0.038,0.437,0.033c0.116-0.009,0.22-0.028,0.313-0.065l0.137-0.147c0.392,0.116,0.597,0.322,0.612,0.615
			c0.008,0.124-0.029,0.335-0.108,0.636c-0.078,0.298-0.112,0.525-0.104,0.68C-86.931,110.293-86.894,110.415-86.831,110.52z
			 M-90.2,126.149c-0.206,0.106-0.521,0.169-0.943,0.195c-0.557,0.032-0.892,0.059-1.006,0.081c-0.062-0.059-0.136-0.011-0.261-0.5
			c-0.077-0.32-0.278-0.473-0.604-0.452c-0.079,0.005-0.172,0.018-0.288,0.04l-0.518,0.029l-0.277-4.741
			c0.283-0.14,0.634-0.223,1.057-0.247c0.404-0.023,0.763,0.019,1.076,0.124c-0.009,0.171,0.237,0.243,0.734,0.213l0.549-0.032
			C-90.354,122.189-90.156,124.598-90.2,126.149z"></path>
		<path d="M-75.31,110.924l0.029,0.022c-0.271-0.016-1.142,0.042-1.812,0.127c-0.573,0.065-1.006,0.075-1.298,0.03
			c-0.278,0.186-0.379,0.44-0.303,0.762l0.179,0.105c-0.146,0.133-0.198,0.235-0.154,0.312l0.154,0.153
			c-0.034,2.747-0.042,4.266-0.025,4.561c0.042,0.726,0.128,1.363,0.255,1.915c-0.115,0.349-0.159,0.746-0.131,1.193
			c0.016,0.294,0.086,0.759,0.209,1.395c0.125,0.637,0.288,2.726,0.309,3.051c0.014,0.246,0.009,0.48-0.018,0.698
			c-0.265,0.109-0.549,0.172-0.857,0.189c-0.517,0.03-1.074-0.077-1.666-0.32c-0.072,0.065-0.154,0.136-0.246,0.211
			s-0.117,0.158-0.072,0.248c-0.19,0.058-0.456-0.021-0.795-0.231c-0.182-2.782-0.679-8.447-1.417-14.173
			c-0.258,0.232-0.733,0.039-1.232,0.098c-0.593,0.066-1.175-0.024-1.4,0.082c-0.287-0.31-0.225-0.398-0.254-0.908
			c-0.029-0.494-0.188-1.714-0.062-2.224c0.027-0.108,1.103-0.047,1.735-0.099c0.863-0.051,1.055,0.154,1.11,0.149
			c0.072-0.112,0.492-0.056,0.799-0.073c0.199,0.098,0.413-0.09,0.422,0.05c0.007,0.092,0,0.679-0.066,0.846
			c-0.067,0.165-0.1,0.287-0.096,0.365c0.012,0.185,0.145-0.087,0.459,0.02c0.347-0.005,0.702-0.018,1.065-0.038
			c0.408,0.037,0.876-0.111,0.838,0.233c0.071-0.099,0.115,0.075,0.699-0.16c0.433-0.195,0.695-0.705,0.609-1.054
			c-0.046-0.19,0.215-0.313,0.053-0.224c0.208-0.114,0.019-0.034,0.245-0.124c0.718,0.066,1.117-0.008,1.251-0.017
			c0.29-0.018,1.004,0.169,1.209,0.065c0.15,0.27,0.226,1.115,0.232,1.58C-75.326,110.483-75.313,110.878-75.31,110.924z"></path>
		<path d="M-65.977,120.598l-0.003-0.022c-0.103,0.208-0.156,0.444-0.159,0.707c-0.012,0.172,0.003,0.411,0.041,0.719
			c0.039,0.354,0.062,0.602,0.071,0.74c-0.154,0.008-0.77,0.044-1.845,0.106c-0.651,0.038-1.234,0.126-1.747,0.265l-0.572-0.433
			c-0.147,0.134-0.198,0.237-0.157,0.312c-0.096-0.009-0.538,0.016-1.324,0.078c-0.614,0.036-1.079,0.016-1.392-0.06
			c-0.292,0.279-0.656,0.303-1.094,0.063c-0.158-0.083-0.188-0.241-0.086-0.471c0.104-0.231,0.055-0.396-0.145-0.493
			c-0.009-0.494,0.015-1.264,0.069-2.307c0.062-0.932,0.076-1.662,0.046-2.188c-0.041-0.711-0.158-1.386-0.347-2.026
			c0.2-0.182,0.435-0.28,0.702-0.296c0.308-0.019,0.678,0.077,1.117,0.284c0.614,0.289,0.929,0.435,0.948,0.435l0.183,0.15
			c0.018-0.047,0.098-0.301,0.244-0.758c0.08-0.3,0.212-0.501,0.399-0.604l0.181,0.128c0.076-0.034,0.317-0.195,0.724-0.483
			c0.315-0.205,0.532-0.956,0.725-0.967c0.211-0.013,0.419,0.068,0.621,0.242c0.335,0.121,0.6,0.965,0.722,1.244
			c0.123,0.279,0.24,0.556,0.353,0.828c-0.862,0.082-1.573,0.115-2.133,0.101c-0.125,0.179-0.317,0.216-0.571,0.114
			c-0.256-0.101-0.438-0.071-0.546,0.092c0.017,0.277,0.047,0.779,0.089,1.506c0.02,0.649,0.049,1.158,0.088,1.529
			c0.053,0.571,0.143,1.093,0.265,1.565c0.154-0.009,0.886-0.051,2.19-0.126C-67.418,120.52-66.638,120.528-65.977,120.598z
			 M-66.868,109.693c-0.172,0.026-0.365,0.045-0.576,0.058c-0.441,0.024-1.028,0.012-1.766-0.038
			c-0.907-0.04-1.458-0.062-1.65-0.066c-0.249,0.34-0.283,0.616-0.249,1.203c0.073,1.267,0.116,1.816,0.124,1.644
			c0.275,0.108,0.425,0.333,0.443,0.673c0.007,0.464,0.021,0.703,0.043,0.718c-0.132,0.054-0.19,0.212-0.176,0.475
			c-0.214-0.048-0.443-0.16-0.684-0.332c-0.322-0.214-0.422,0.545-0.414,0.342l-0.146,0.472l-0.181-0.129
			c-0.153,0.024-0.42-0.021-0.803-0.139c-0.384-0.117-0.654-0.234-0.816-0.349c-0.013-0.247,0.024-0.39,0.12-0.426l-0.394-0.303
			l-0.16,0.219c-0.343-1.592-0.571-4.399-0.44-6.111c0.735,0.05,1.595-0.078,2.478-0.114c0.596-0.019,1.433-0.066,2.508-0.144
			c1.226-0.087,2.109-0.146,2.646-0.177c0.24,0.156,0.371,0.373,0.385,0.65c0.011,0.171-0.026,0.447-0.11,0.832
			C-66.771,109.035-66.88,109.508-66.868,109.693z"></path>
		<path d="M-56.394,118.951l-0.028,0.004c-0.121,0.238-0.16,0.582-0.114,1.029c0.056,0.632,0.084,0.956,0.085,0.972
			c-0.096,0.036-0.222-0.01-0.384-0.141c-0.246,0.091-0.362,0.246-0.35,0.461c0.003,0.031,0.016,0.084,0.037,0.162
			c0.006,0.092,0.01,0.154,0.013,0.185c0.011,0.17-0.04,0.297-0.151,0.381c-0.279-0.155-0.647-0.253-1.102-0.297
			c-0.455-0.043-0.887-0.085-1.293-0.123c-0.008-2.106-0.292-4.168-0.85-6.182c0,0.016-0.013-0.194-0.038-0.628
			c0.001-0.308-0.067-0.529-0.212-0.661l-0.191,0.174c-0.001-0.029,0.062-0.092,0.191-0.185c0.129-0.094,0.192-0.186,0.188-0.278
			c-0.005-0.046-0.017-0.093-0.038-0.138l-0.212-0.151c-0.358,0.115-0.525,0.403-0.497,0.867c0.018,0.31-0.106,0.526-0.367,0.648
			c0.099,0.072,0.153,0.163,0.161,0.271c0.003,0.062-0.009,0.147-0.029,0.257c-0.022,0.11-0.033,0.196-0.029,0.258
			c0.008,0.139,0.082,0.251,0.223,0.337c0.005,0.092,0.052,0.926,0.144,2.502c0.06,1.005,0.032,1.86-0.081,2.563l0.022,0.395
			c-0.135-0.008-0.288-0.008-0.462,0.003c-0.192,0.012-0.471,0.039-0.834,0.083s-0.63,0.072-0.805,0.083
			c-0.708,0.04-1.208-0.078-1.492-0.356l-0.303-8.657c-0.14-0.426-0.23-1.018-0.275-1.774l-0.098-1.669
			c-0.066-0.817-0.169-1.447-0.311-1.889c0.058-0.298,0.319-0.46,0.779-0.487c0.291-0.017,0.676,0.023,1.165,0.118
			c0.225-0.106,0.538-0.172,0.939-0.194c0.118-0.006,0.299-0.009,0.55-0.009c0.27-0.015,0.462-0.026,0.576-0.034
			c0.749-0.042,1.247-0.272,1.492-0.689c0.347-0.005,0.724,0.104,1.131,0.328c0.408,0.225,0.767,0.344,1.079,0.356
			c0.815,0.481,1.257,1.276,1.321,2.39c0.014,0.247-0.084,1.229-0.292,2.947l-1.404,1.22c0.239,0.437,0.525,1.389,0.862,2.857
			C-57.396,117.483-56.967,118.38-56.394,118.951z M-58.989,109.103l0.03,0.022c0.024,0.106,0.012-0.272-0.037-1.138
			c-0.025-0.418-0.179-0.72-0.458-0.903c-0.159,0.226-0.189-0.301-0.264,0.224c-0.075,0.524-0.204,0.899-0.381,1.127
			c-0.483-0.003-0.595-0.29-0.881-0.692c-0.18-0.256-0.268-0.033-0.268-0.049l-0.13,0.105c-0.073,0.067-0.155,0.142-0.247,0.225
			c-0.091,0.083-0.187,0.111-0.285,0.087c0.008,0.091-0.038,0.238-0.134,0.438c-0.092,0.199-0.138,0.338-0.134,0.414
			c0.009,0.139,0.12,0.241,0.337,0.307c-0.041,0.312-0.052,0.639-0.032,0.979c0.013,0.186,0.055,0.608,0.133,1.272
			c0.088,0.521,0.125,0.967,0.107,1.341c0.175,0.006,0.336,0.004,0.492-0.004c0.671-0.04,1.108-0.306,1.31-0.798
			c0.067-0.145,0.146-0.66,0.229-1.549C-59.525,109.839-59.319,109.37-58.989,109.103z"></path>
	</g>
	<g display="inline">
		<path d="M-151.915,79.024l0.001,0.021c-0.086,0.803-0.115,1.358-0.085,1.666c-0.123,0.049-0.284,0.056-0.482,0.023
			c-0.255-0.043-0.402-0.063-0.445-0.061c-0.111,0.005-0.2,0.045-0.266,0.118c-0.161-0.104-0.268-0.148-0.323-0.132
			c-0.15,0.092-0.221,0.223-0.213,0.39c0.006,0.07,0.031,0.192,0.083,0.363c0.05,0.176,0.078,0.302,0.081,0.386
			c0.006,0.112-0.017,0.288-0.067,0.529c-0.051,0.24-0.072,0.438-0.065,0.592c0.011,0.182,0.049,0.468,0.118,0.857
			c0.068,0.388,0.106,0.682,0.118,0.877c-0.08,0.384-0.109,0.771-0.09,1.162c0.023,0.476,0.155,1.114,0.392,1.916
			c0.043,0.013,0.085,0.017,0.127,0.014c0.097-0.005,0.213-0.075,0.348-0.207c0.133-0.132,0.248-0.201,0.347-0.206
			c0.07-0.003,0.147,0.014,0.233,0.051c0.252,0.815,0.383,1.341,0.396,1.579c0.006,0.112,0.004,0.23-0.003,0.356
			c-0.375,0.09-0.641-0.037-0.797-0.379c0.021-0.1-0.032-0.203-0.164-0.309l-0.419,0.441c0.41,0.064,0.572,0.379,0.489,0.944
			c-0.036,0.114-0.125,0.175-0.265,0.181c-0.238-0.001-0.35-0.003-0.336-0.003l-0.347-0.613l-0.139,0.175
			c-0.114-0.289-0.247-0.43-0.399-0.422c-0.085,0.005-0.231,0.075-0.443,0.211c-0.209,0.137-0.385,0.21-0.524,0.216
			c-0.112,0.006-0.225-0.022-0.341-0.088c-0.009-0.168-0.027-0.342-0.058-0.522s-0.125-0.296-0.281-0.345
			c-0.007-0.434,0.006-1.576,0.038-3.43c0.014-1.402-0.001-2.537-0.046-3.404c-0.019-0.363-0.043-0.721-0.074-1.069
			c-0.075-0.108-0.148-0.161-0.218-0.158c-0.058,0.003-0.142,0.064-0.254,0.182c-0.113,0.118-0.213,0.172-0.298,0.162
			c-0.007-0.139-0.069-0.364-0.19-0.674s-0.185-0.533-0.193-0.674c-0.011-0.238,0.077-0.446,0.265-0.624l0.49,0.123
			c0.196-0.276,0.277-0.743,0.244-1.401c-0.006-0.124-0.024-0.324-0.051-0.596c-0.028-0.272-0.046-0.472-0.052-0.597
			c-0.054-1.077,0.276-1.635,0.989-1.67c0.265-0.015,0.591,0.033,0.974,0.141l0.47,0.124c0.038,0.181,0.061,0.368,0.071,0.563
			c0.013,0.267,0.002,0.655-0.035,1.169c-0.039,0.515-0.051,0.891-0.04,1.127c0.02,0.378,0.085,0.719,0.199,1.021
			c0.112-0.005,0.288-0.065,0.527-0.184c0.24-0.117,0.415-0.179,0.528-0.184C-152.196,78.744-152.037,78.835-151.915,79.024z
			 M-153.375,80.528l-0.025-0.482l-0.152-0.14L-153.375,80.528z"></path>
		<path d="M-146.144,77.514l0.021-0.002c-0.05,0.381-0.108,0.763-0.173,1.145c-0.075,0.439-0.199,0.781-0.369,1.028
			c-0.029-0.012-0.201-0.094-0.517-0.247c-0.217-0.115-0.409-0.161-0.575-0.14c-0.128,0.821-0.196,1.939-0.21,3.355
			c-0.008,1.81-0.022,2.903-0.045,3.283c-0.211-0.017-0.369,0.051-0.473,0.203c-0.105,0.153-0.203,0.309-0.292,0.467
			c-0.039,0.086-0.056,0.164-0.052,0.233c0.004,0.112,0.102,0.221,0.289,0.321c0.188,0.104,0.284,0.22,0.29,0.345
			c-0.082,0.299-0.258,0.454-0.523,0.468c-0.124,0.006-0.345-0.031-0.658-0.114c-0.312-0.083-0.531-0.12-0.658-0.113l-0.301-6.001
			c0.118-0.16,0.168-0.268,0.152-0.323l-0.174-0.118c0.014-0.251,0.028-1.508,0.041-3.767c0.007-1.528,0.064-2.767,0.171-3.711
			c-0.014,0.002,0.419-0.027,1.3-0.086c0.545-0.027,0.897,0.122,1.053,0.451c0.003,0.309-0.028,0.828-0.09,1.562
			c-0.063,0.676-0.087,1.196-0.069,1.561c0.023,0.447,0.094,0.85,0.209,1.209C-147.324,77.883-146.773,77.545-146.144,77.514z
			 M-144.06,78.798c0.042,0.559,0.076,1.103,0.104,1.635c0.118,2.322,0.081,4.806-0.108,7.452c-0.201,0.178-0.512,0.218-0.931,0.119
			c-0.418-0.098-0.722-0.059-0.908,0.118c-0.24-0.31-0.381-0.87-0.422-1.682c-0.059-1.174-0.09-1.782-0.092-1.825
			c-0.051-2.942,0.237-5.32,0.861-7.132C-144.833,77.672-144.333,78.109-144.06,78.798z"></path>
		<path d="M-136.697,81.844c-0.09,0.188-0.129,0.387-0.118,0.596c0.01,0.21,0.02,0.411,0.031,0.609
			c-0.021,0.167-0.067,0.338-0.143,0.511c-0.128-0.035-0.234-0.052-0.317-0.048c-0.1,0.006-0.199,0.042-0.3,0.111
			c-0.102,0.068-0.182,0.104-0.237,0.105c-0.084,0.005-0.197-0.025-0.341-0.088l-0.976-1.423c0.034,0.419,0.13,0.785,0.287,1.101
			c0.078,0.163,0.155,0.328,0.234,0.492c-0.57,0.1-0.893,0.115-0.967,0.048l-0.137,0.177l-0.338-0.446
			c-0.265,0.323-0.325,0.795-0.181,1.419c0.175,0.678,0.185,1.168,0.032,1.471c0.211,0.312,0.464,0.459,0.758,0.444
			c0.127-0.005,0.236-0.054,0.329-0.143c0.137-0.344,0.274-0.687,0.412-1.029c0.202-0.417,0.431-0.633,0.682-0.646
			c0.196-0.009,0.426,0.092,0.688,0.303c0.314,0.109,0.477,0.257,0.485,0.438c0.005,0.113-0.066,0.295-0.215,0.547
			c-0.148,0.254-0.218,0.449-0.212,0.591c0.003,0.056,0.012,0.104,0.027,0.146c-0.202,0.15-0.384,0.377-0.543,0.68
			c-0.161,0.302-0.371,0.51-0.633,0.62c-0.227,0.223-0.438,0.337-0.633,0.348c-0.154,0.009-0.385-0.11-0.692-0.354
			c-0.306-0.243-0.592-0.359-0.858-0.346c-0.11-0.247-0.383-0.521-0.819-0.822c-0.436-0.299-0.705-0.623-0.806-0.969
			c0.002,0.028-0.005-0.083-0.016-0.335c-0.009-0.14-0.069-0.228-0.183-0.265l0.159-0.155c-0.211-0.003-0.321-0.123-0.333-0.362
			c-0.002-0.027-0.004-0.084-0.008-0.168c0.009-0.071,0.015-0.127,0.012-0.168c-0.008-0.168-0.063-0.283-0.164-0.351l-0.037-0.734
			c-0.019-0.378-0.096-0.646-0.231-0.809c0.138-0.889,0.276-1.78,0.414-2.67c0.227-1.035,0.565-1.564,1.014-1.587
			c0.069-0.002,0.14,0.008,0.211,0.031c0.401-0.398,0.888-0.612,1.461-0.641c0.63-0.031,1.326,0.158,2.091,0.568
			C-137.209,79.619-136.84,80.688-136.697,81.844z M-139.59,79.528l-0.138,0.175c-0.098,0.02-0.213-0.03-0.345-0.15l0.024,0.483
			c-0.214,0.233-0.3,0.595-0.262,1.085c0.043,0.84,0.062,1.245,0.062,1.218l0.63-0.012c0.301-0.169,0.439-0.449,0.42-0.841
			c-0.009-0.196-0.077-0.518-0.206-0.967C-139.532,80.069-139.593,79.74-139.59,79.528z"></path>
	</g>
	<g display="inline">
		<polygon fill-rule="evenodd" clip-rule="evenodd" points="-131.768,103.014 -131.142,103.373 -129.024,97.808 -129.73,97.571 
			-131.849,103.138 -131.232,103.53 -131.768,103.014 -131.768,103.014 		"></polygon>
		<polygon fill-rule="evenodd" clip-rule="evenodd" points="-130.84,102.242 -131.097,102.343 -131.768,103.014 -131.232,103.53 
			-130.549,102.824 -130.817,102.959 -130.84,102.242 -130.84,102.242 		"></polygon>
		<polygon fill-rule="evenodd" clip-rule="evenodd" points="-125.708,102.198 -125.406,101.964 -130.84,102.242 -130.817,102.959 
			-125.383,102.682 -125.037,102.424 -125.708,102.198 -125.708,102.198 -125.708,102.198 		"></polygon>
		<polygon fill-rule="evenodd" clip-rule="evenodd" points="-123.254,97.082 -123.625,96.621 -125.708,102.198 -125.037,102.424 
			-122.918,96.856 -123.287,96.398 -123.254,97.082 -123.254,97.082 -123.254,97.082 		"></polygon>
		<polygon fill-rule="evenodd" clip-rule="evenodd" points="-128.43,97.259 -128.699,97.393 -123.254,97.082 -123.287,96.398 
			-128.709,96.643 -128.979,96.775 -128.43,97.259 -128.43,97.259 -128.43,97.259 		"></polygon>
		<polygon fill-rule="evenodd" clip-rule="evenodd" points="-129.024,97.808 -129.101,97.93 -128.43,97.259 -128.979,96.775 
			-129.652,97.448 -129.73,97.571 -129.024,97.808 -129.024,97.808 -129.024,97.808 		"></polygon>
		<polygon fill-rule="evenodd" clip-rule="evenodd" points="-124.51,102.86 -124.028,102.647 -125.192,101.998 -125.563,102.658 
			-124.364,103.32 -123.838,103.084 -124.544,102.85 -124.544,102.85 -124.51,102.86 		"></polygon>
		<polygon fill-rule="evenodd" clip-rule="evenodd" points="-122.235,97.721 -122.425,97.283 -124.544,102.85 -123.838,103.084 
			-121.719,97.519 -121.911,97.082 -122.235,97.721 -122.235,97.721 		"></polygon>
		<polygon fill-rule="evenodd" clip-rule="evenodd" points="-122.918,96.856 -123.444,97.093 -122.235,97.721 -121.911,97.082 
			-123.075,96.433 -123.625,96.621 -122.918,96.856 -122.918,96.856 		"></polygon>
		<polygon points="-129.36,97.695 -129.393,97.684 -128.721,97.012 -123.677,96.766 -123.625,96.621 -123.253,96.745 
			-122.918,96.856 -122.941,96.918 -122.055,97.407 -121.719,97.519 -121.857,97.88 -119.39,103.746 -121.476,109.323 
			-124.174,102.972 -124.174,102.972 -124.521,103.117 -124.544,102.85 -124.518,102.782 -125.369,102.312 -125.563,102.658 
			-125.668,102.325 -130.84,102.579 -131.512,103.25 		"></polygon>
		<polygon fill-rule="evenodd" clip-rule="evenodd" points="-121.812,109.211 -121.128,109.179 -123.827,102.827 -124.521,103.117 
			-121.823,109.469 -121.139,109.436 -121.845,109.2 -121.845,109.2 -121.812,109.211 		"></polygon>
		<polygon fill-rule="evenodd" clip-rule="evenodd" points="-119.704,103.904 -119.727,103.635 -121.845,109.2 -121.139,109.436 
			-119.02,103.871 -119.042,103.603 -119.704,103.904 -119.704,103.904 		"></polygon>
		<polygon fill-rule="evenodd" clip-rule="evenodd" points="-121.719,97.519 -122.403,97.553 -119.704,103.904 -119.042,103.603 
			-121.743,97.25 -122.425,97.283 -121.719,97.519 -121.719,97.519 		"></polygon>
		<polygon fill-rule="evenodd" clip-rule="evenodd" fill="#FFFFFF" points="-121.899,98.952 -121.597,99.613 -121.485,100.286 
			-121.518,100.946 -121.709,101.63 -122.044,102.301 -122.505,102.894 -123.098,103.442 -123.816,103.914 -124.208,104.082 
			-124.6,104.249 -125.038,104.327 -125.44,104.416 -125.833,104.472 -126.257,104.517 -126.65,104.461 -127.053,104.438 
			-127.401,104.36 -127.77,104.236 -128.128,104.08 -128.442,103.899 -128.711,103.699 -129.013,103.485 -129.259,103.218 
			-129.461,102.925 -129.765,102.265 -129.876,101.593 -129.875,100.92 -129.651,100.249 -129.36,99.598 -128.889,98.973 
			-128.295,98.424 -127.545,97.964 -127.186,97.786 -126.76,97.629 -126.357,97.538 -125.955,97.45 -125.529,97.405 -125.136,97.35 
			-124.744,97.405 -124.341,97.429 -123.972,97.551 -123.601,97.674 -123.266,97.787 -122.919,97.977 -122.638,98.146 
			-122.347,98.392 -122.145,98.683 -121.899,98.952 -121.899,98.952 -121.899,98.952 		"></polygon>
		<polygon fill-rule="evenodd" clip-rule="evenodd" points="-121.631,100.05 -121.328,100.711 -121.227,101.417 -121.26,102.078 
			-121.441,102.729 -121.744,103.41 -122.248,104.025 -122.797,104.553 -123.547,105.011 -123.95,105.212 -124.342,105.381 
			-124.746,105.47 -125.182,105.548 -125.575,105.604 -125.955,105.627 -126.359,105.604 -126.785,105.537 -127.132,105.457 
			-127.501,105.334 -127.826,105.188 -128.173,104.998 -128.454,104.831 -128.712,104.595 -128.969,104.359 -129.193,104.023 
			-129.507,103.396 -129.618,102.723 -129.575,102.028 -129.394,101.38 -129.092,100.697 -128.631,100.103 -128.038,99.555 
			-127.289,99.096 -126.885,98.895 -126.503,98.76 -126.089,98.637 -125.651,98.559 -125.271,98.536 -124.879,98.481 
			-124.486,98.536 -124.083,98.559 -123.702,98.648 -123.333,98.771 -123.007,98.918 -122.649,99.075 -122.381,99.277 
			-122.079,99.489 -121.877,99.782 -121.641,100.083 -121.641,100.083 -121.631,100.05 		"></polygon>
		<polygon fill-rule="evenodd" clip-rule="evenodd" fill="#FFFFFF" points="-121.441,100.822 -121.125,101.45 -121.026,102.156 
			-121.06,102.817 -121.239,103.466 -121.575,104.138 -122.046,104.765 -122.594,105.29 -123.345,105.751 -123.715,105.963 
			-124.14,106.12 -124.545,106.208 -124.982,106.287 -125.373,106.343 -125.753,106.365 -126.158,106.343 -126.583,106.275 
			-126.93,106.197 -127.3,106.074 -127.625,105.929 -127.972,105.738 -128.252,105.568 -128.543,105.321 -128.755,105.066 
			-128.992,104.763 -129.305,104.136 -129.417,103.463 -129.384,102.803 -129.193,102.119 -128.89,101.436 -128.419,100.809 
			-127.804,100.305 -127.085,99.835 -126.682,99.634 -126.291,99.465 -125.887,99.376 -125.451,99.299 -125.058,99.242 
			-124.677,99.219 -124.241,99.253 -123.881,99.299 -123.5,99.389 -123.131,99.511 -122.773,99.668 -122.458,99.849 
			-122.179,100.016 -121.876,100.229 -121.675,100.521 -121.441,100.822 -121.441,100.822 		"></polygon>
		<polygon fill-rule="evenodd" clip-rule="evenodd" points="-121.171,101.92 -120.87,102.582 -120.756,103.254 -120.756,103.926 
			-120.982,104.598 -121.273,105.247 -121.778,105.862 -122.336,106.424 -123.088,106.881 -123.446,107.061 -123.873,107.217 
			-124.276,107.308 -124.678,107.396 -125.105,107.441 -125.498,107.497 -125.889,107.441 -126.292,107.419 -126.673,107.329 
			-127.043,107.205 -127.368,107.059 -127.714,106.869 -127.984,106.667 -128.251,106.466 -128.499,106.196 -128.734,105.894 
			-129.003,105.244 -129.148,104.561 -129.115,103.899 -128.924,103.218 -128.599,102.579 -128.127,101.951 -127.535,101.402 
			-126.817,100.933 -126.425,100.765 -126.033,100.598 -125.596,100.519 -125.192,100.43 -124.8,100.373 -124.386,100.362 
			-123.984,100.386 -123.614,100.396 -123.233,100.486 -122.864,100.609 -122.504,100.766 -122.191,100.945 -121.888,101.158 
			-121.62,101.359 -121.374,101.629 -121.183,101.954 -121.183,101.954 -121.171,101.92 		"></polygon>
		<polygon fill-rule="evenodd" clip-rule="evenodd" fill="#FFFFFF" points="-120.779,102.648 -120.465,103.276 -120.354,103.948 
			-120.365,104.654 -120.545,105.303 -120.881,105.976 -121.385,106.592 -121.934,107.117 -122.651,107.588 -123.054,107.789 
			-123.48,107.946 -123.883,108.036 -124.288,108.124 -124.712,108.17 -125.092,108.191 -125.498,108.17 -125.889,108.113 
			-126.269,108.023 -126.639,107.899 -126.964,107.754 -127.29,107.608 -127.591,107.395 -127.849,107.159 -128.095,106.891 
			-128.298,106.601 -128.611,105.973 -128.746,105.255 -128.712,104.595 -128.499,103.957 -128.196,103.273 -127.726,102.646 
			-127.142,102.131 -126.425,101.661 -126.022,101.461 -125.63,101.292 -125.205,101.246 -124.791,101.123 -124.398,101.067 
			-123.984,101.058 -123.58,101.08 -123.221,101.125 -122.84,101.215 -122.438,101.349 -122.113,101.494 -121.788,101.641 
			-121.485,101.854 -121.227,102.088 -120.981,102.357 -120.779,102.648 -120.779,102.648 		"></polygon>
		<polygon fill-rule="evenodd" clip-rule="evenodd" points="-120.476,103.758 -120.209,104.406 -120.062,105.091 -120.097,105.752 
			-120.287,106.434 -120.613,107.073 -121.083,107.699 -121.677,108.248 -122.394,108.719 -122.786,108.887 -123.212,109.044 
			-123.615,109.133 -124.018,109.223 -124.411,109.277 -124.835,109.322 -125.228,109.268 -125.631,109.243 -125.979,109.166 
			-126.382,109.031 -126.708,108.886 -127.02,108.705 -127.323,108.493 -127.591,108.291 -127.837,108.022 -128.04,107.73 
			-128.342,107.07 -128.488,106.388 -128.454,105.727 -128.229,105.054 -127.938,104.403 -127.467,103.777 -126.874,103.229 
			-126.124,102.77 -125.764,102.592 -125.338,102.435 -124.935,102.344 -124.533,102.255 -124.106,102.211 -123.714,102.155 
			-123.322,102.211 -122.954,102.223 -122.538,102.323 -122.169,102.446 -121.843,102.593 -121.53,102.771 -121.227,102.983 
			-120.959,103.187 -120.712,103.455 -120.476,103.758 -120.476,103.758 -120.476,103.758 		"></polygon>
		<polygon fill-rule="evenodd" clip-rule="evenodd" points="-157.512,95.209 -157.479,94.996 -159.609,100.596 -158.937,100.819 
			-156.806,95.22 -156.796,95.075 -157.512,95.209 -157.512,95.209 -157.512,95.209 		"></polygon>
		<polygon fill-rule="evenodd" clip-rule="evenodd" points="-157.568,94.929 -157.557,94.896 -157.512,95.209 -156.796,95.075 
			-156.874,94.75 -156.862,94.717 -157.568,94.929 -157.568,94.929 -157.568,94.929 		"></polygon>
		<polygon fill-rule="evenodd" clip-rule="evenodd" points="-157.647,94.604 -157.568,94.929 -156.862,94.717 -156.942,94.392 
			-157.647,94.604 -157.647,94.604 -157.647,94.604 		"></polygon>
		<polygon fill-rule="evenodd" clip-rule="evenodd" points="-157.737,94.312 -157.647,94.604 -156.942,94.392 -157.031,94.101 
			-157.737,94.312 -157.737,94.312 		"></polygon>
		<polygon fill-rule="evenodd" clip-rule="evenodd" points="-157.814,93.988 -157.814,93.988 -157.737,94.312 -157.031,94.101 
			-157.109,93.774 -157.12,93.809 -157.814,93.988 -157.814,93.988 -157.814,93.988 		"></polygon>
		<polygon fill-rule="evenodd" clip-rule="evenodd" points="-157.904,93.584 -157.904,93.697 -157.814,93.988 -157.12,93.809 
			-157.208,93.517 -157.175,93.642 -157.904,93.584 -157.904,93.584 		"></polygon>
		<polygon fill-rule="evenodd" clip-rule="evenodd" points="-157.187,93.451 -157.893,93.326 -157.904,93.584 -157.175,93.642 
			-157.166,93.384 -157.87,93.26 -157.199,93.484 -157.199,93.484 -157.187,93.451 		"></polygon>
		<polygon fill-rule="evenodd" clip-rule="evenodd" fill="#4C4849" points="-156.576,109.748 -156.642,109.39 -157.393,109.513 
			-157.337,109.904 -156.576,109.748 -156.576,109.748 -156.576,109.748 		"></polygon>
		<polygon fill-rule="evenodd" clip-rule="evenodd" points="-155.016,105.078 -154.995,104.898 -157.112,110.465 -156.441,110.688 
			-154.322,105.123 -154.333,104.933 -155.016,105.078 -155.016,105.078 -155.016,105.078 		"></polygon>
		<polygon fill-rule="evenodd" clip-rule="evenodd" points="-155.072,104.687 -155.016,105.078 -154.333,104.933 -154.389,104.54 
			-155.106,104.675 -155.106,104.675 -155.072,104.687 		"></polygon>
		<polygon fill-rule="evenodd" clip-rule="evenodd" points="-155.172,104.315 -155.106,104.675 -154.389,104.54 -154.49,104.171 
			-155.172,104.315 -155.172,104.315 -155.172,104.315 		"></polygon>
		<polygon fill-rule="evenodd" clip-rule="evenodd" points="-155.262,103.913 -155.24,103.958 -155.172,104.315 -154.49,104.171 
			-154.545,103.777 -154.523,103.824 -155.262,103.913 -155.262,103.913 -155.262,103.913 		"></polygon>
		<polygon fill-rule="evenodd" clip-rule="evenodd" points="-154.59,103.577 -155.307,103.486 -155.262,103.913 -154.523,103.824 
			-154.58,103.432 -155.296,103.342 -154.59,103.577 -154.59,103.577 		"></polygon>
		<g>
			<polygon fill="#4C4849" points="-159.605,99.485 -159.945,99.588 -159.605,99.485 			"></polygon>
			<polygon fill="#4C4849" points="-159.251,100.653 -159.239,100.619 -159.065,100.631 -158.937,100.819 -159.25,100.716 			"></polygon>
			<polygon points="-160.023,99.263 -159.665,99.195 -159.653,98.938 -157.523,93.339 -157.535,93.372 -157.535,93.596 
				-157.478,93.876 -157.366,94.214 -157.277,94.503 -157.2,94.828 -157.142,95.107 -157.142,95.107 -156.806,95.22 
				-158.937,100.819 -159.065,100.631 -159.239,100.619 -159.251,100.653 -159.25,100.716 -158.937,100.819 -159.248,100.801 
				-159.239,101.055 -159.456,100.787 -159.631,100.774 -159.676,100.462 -159.547,100.434 -159.41,100.074 -159.765,100.17 
				-159.867,99.912 -159.945,99.588 -159.605,99.485 -159.605,99.485 -159.945,99.588 -159.933,99.555 			"></polygon>
		</g>
		<g>
			<polygon fill="none" points="-142.682,100.793 -142.682,100.793 -142.377,100.109 			"></polygon>
			<polygon points="-159.261,100.339 -143.667,99.828 -143.263,99.852 -143.197,99.874 -142.814,99.964 -142.781,99.976 
				-142.377,100.109 -141.986,100.277 -141.953,100.289 -141.583,100.524 -141.515,100.547 -141.224,100.793 -141.134,100.859 
				-140.922,101.117 -140.9,101.162 -140.754,101.397 -140.744,101.476 -141.43,101.683 -141.54,101.509 -141.549,101.543 
				-141.729,101.297 -141.726,101.295 -141.964,101.106 -141.908,101.162 -142.289,100.962 -142.288,100.959 -142.682,100.793 
				-142.682,100.793 -143.017,100.682 -143.398,100.591 -143.331,100.613 -143.69,100.567 -143.689,100.534 -159.239,101.055 			"></polygon>
			<polygon points="-141.448,101.689 -141.43,101.683 -141.392,101.745 			"></polygon>
		</g>
		<polygon fill-rule="evenodd" clip-rule="evenodd" points="-133.117,114.773 -133.117,114.551 -135.246,120.149 -134.541,120.386 
			-132.41,114.786 -132.411,114.562 -133.117,114.773 -133.117,114.773 -133.117,114.773 		"></polygon>
		<polygon fill-rule="evenodd" clip-rule="evenodd" points="-139.274,96.179 -139.32,96.09 -133.117,114.773 -132.411,114.562 
			-138.613,95.877 -138.625,95.798 -139.274,96.179 -139.274,96.179 -139.274,96.179 		"></polygon>
		<polygon fill-rule="evenodd" clip-rule="evenodd" points="-139.397,95.989 -139.418,95.943 -139.274,96.179 -138.625,95.798 
			-138.769,95.562 -138.803,95.552 -139.431,95.978 -139.431,95.978 -139.397,95.989 		"></polygon>
		<polygon fill-rule="evenodd" clip-rule="evenodd" points="-139.543,95.753 -139.599,95.698 -139.431,95.978 -138.803,95.552 
			-139.039,95.249 -139.095,95.193 -139.543,95.753 -139.543,95.753 -139.543,95.753 		"></polygon>
		<polygon fill-rule="evenodd" clip-rule="evenodd" points="-139.79,95.597 -139.846,95.541 -139.543,95.753 -139.095,95.193 
			-139.397,94.98 -139.453,94.925 -139.79,95.597 -139.79,95.597 		"></polygon>
		<polygon fill-rule="evenodd" clip-rule="evenodd" points="-140.125,95.372 -140.159,95.361 -139.79,95.597 -139.453,94.925 
			-139.833,94.724 -139.867,94.711 -140.125,95.372 -140.125,95.372 		"></polygon>
		<polygon fill-rule="evenodd" clip-rule="evenodd" points="-140.484,95.215 -140.562,95.226 -140.125,95.372 -139.867,94.711 
			-140.26,94.544 -140.293,94.532 -140.528,95.238 -140.528,95.238 -140.484,95.215 		"></polygon>
		<polygon fill-rule="evenodd" clip-rule="evenodd" points="-140.887,95.081 -140.932,95.103 -140.528,95.238 -140.293,94.532 
			-140.697,94.397 -140.697,94.397 -140.899,95.114 -140.899,95.114 -140.887,95.081 		"></polygon>
		<polygon fill-rule="evenodd" clip-rule="evenodd" points="-141.201,95.014 -141.268,94.992 -140.899,95.114 -140.697,94.397 
			-141.112,94.297 -141.145,94.286 -141.201,95.014 -141.201,95.014 -141.201,95.014 		"></polygon>
		<polygon fill-rule="evenodd" clip-rule="evenodd" points="-141.56,94.969 -141.57,95.002 -141.201,95.014 -141.145,94.286 
			-141.537,94.229 -141.582,94.252 -141.56,94.969 -141.56,94.969 		"></polygon>
		<polygon fill-rule="evenodd" clip-rule="evenodd" points="-156.773,95.231 -157.154,95.477 -141.56,94.969 -141.582,94.252 
			-157.142,94.772 -157.479,94.996 -156.806,95.22 -156.806,95.22 -156.773,95.231 		"></polygon>
		<polygon fill="#4C4849" points="-152.856,112.257 -152.91,112.229 -152.876,112.213 		"></polygon>
		<g>
			<polygon fill="#4C4849" points="-144.433,114.777 -144.499,115.531 -144.433,114.777 			"></polygon>
			<g>
				<polygon fill="none" points="-144.463,115.137 -144.499,115.531 -144.463,115.137 				"></polygon>
				<g>
					<polygon fill="none" points="-157.101,109.075 -157.079,109.022 -157.065,109.093 					"></polygon>
					<path d="M-157.337,109.904l0.067,0.358l0.135,0.381l0.169,0.28l0.952,0.504l0.951,0.506l0.919,0.492l0.93,0.459l0.033,0.012
						l0.941,0.426l0.941,0.426l1.019,0.415l1.031,0.381l0.034,0.012l1.097,0.292l1.099,0.291l0.033,0.011l1.21,0.18l1.243,0.191
						l0.034,0.011l1.354,0.08l0.046-0.023l1.445,0.034l1.546-0.044l1.636-0.088l0.337-0.226l2.117-5.565l-0.358-0.493l0.021,0.718
						l-0.111-0.141l0.08-0.206l-0.235,0.013l-0.103-0.126l-0.051,0.137l-1.214,0.075h-1.568l-1.447-0.034l-1.32-0.067l-1.288-0.169
						l-1.198-0.212l-1.1-0.292l-1.098-0.292l-1.03-0.381l-0.997-0.372l-0.94-0.425l-0.931-0.461l-0.963-0.47l-0.918-0.492
						l-0.918-0.494l-0.638-0.337l0.021-0.055l-0.336-0.113l0,0l-0.09-0.402l-0.066-0.359l-0.027-0.122l0.251-0.549l-0.354-0.117
						l-0.017-0.007l0,0l-0.336-0.111l-2.118,5.565l-0.022,0.179l0.057,0.393L-157.337,109.904z M-157.079,109.022l0.014,0.07
						l-0.036-0.018L-157.079,109.022z"></path>
				</g>
			</g>
		</g>
		<polygon fill-rule="evenodd" clip-rule="evenodd" points="-137.989,110.013 -136.354,109.924 -136.375,109.206 -138.011,109.295 
			-137.989,110.013 -137.989,110.013 -137.989,110.013 		"></polygon>
		<polygon fill-rule="evenodd" clip-rule="evenodd" points="-139.534,110.056 -137.989,110.013 -138.011,109.295 -139.556,109.34 
			-139.534,110.056 -139.534,110.056 -139.534,110.056 		"></polygon>
		<polygon fill-rule="evenodd" clip-rule="evenodd" points="-141.013,110.011 -140.979,110.021 -139.534,110.056 -139.556,109.34 
			-141.001,109.306 -140.957,109.283 -141.025,110.045 -141.025,110.045 -141.013,110.011 		"></polygon>
		<polygon fill-rule="evenodd" clip-rule="evenodd" points="-142.404,109.922 -142.369,109.933 -141.025,110.045 -140.957,109.283 
			-142.313,109.204 -142.28,109.216 -142.404,109.922 -142.404,109.922 -142.404,109.922 		"></polygon>
		<polygon fill-rule="evenodd" clip-rule="evenodd" points="-143.659,109.763 -142.404,109.922 -142.28,109.216 -143.523,109.024 
			-143.659,109.763 -143.659,109.763 		"></polygon>
		<polygon fill-rule="evenodd" clip-rule="evenodd" points="-144.89,109.538 -144.856,109.551 -143.659,109.763 -143.523,109.024 
			-144.766,108.834 -144.733,108.845 -144.89,109.538 -144.89,109.538 -144.89,109.538 		"></polygon>
		<polygon fill-rule="evenodd" clip-rule="evenodd" points="-145.987,109.247 -144.89,109.538 -144.733,108.845 -145.831,108.553 
			-146,109.281 -146,109.281 -145.987,109.247 		"></polygon>
		<polygon fill-rule="evenodd" clip-rule="evenodd" points="-147.13,108.979 -147.096,108.989 -146,109.281 -145.831,108.553 
			-146.928,108.262 -146.894,108.272 -147.13,108.979 -147.13,108.979 		"></polygon>
		<polygon fill-rule="evenodd" clip-rule="evenodd" points="-148.162,108.597 -148.162,108.597 -147.13,108.979 -146.894,108.272 
			-147.925,107.891 -147.891,107.901 -148.194,108.586 -148.194,108.586 -148.162,108.597 		"></polygon>
		<polygon fill-rule="evenodd" clip-rule="evenodd" points="-149.18,108.182 -148.194,108.586 -147.891,107.901 -148.877,107.498 
			-149.18,108.182 -149.18,108.182 		"></polygon>
		<polygon fill-rule="evenodd" clip-rule="evenodd" points="-150.122,107.756 -149.18,108.182 -148.877,107.498 -149.831,107.106 
			-150.122,107.756 -150.122,107.756 		"></polygon>
		<polygon fill-rule="evenodd" clip-rule="evenodd" points="-151.084,107.285 -151.062,107.331 -150.122,107.756 -149.831,107.106 
			-150.792,106.636 -150.759,106.647 -151.096,107.32 -151.096,107.32 -151.084,107.285 		"></polygon>
		<polygon fill-rule="evenodd" clip-rule="evenodd" points="-152.015,106.825 -151.096,107.32 -150.759,106.647 -151.689,106.188 
			-152.025,106.859 -152.025,106.859 -152.015,106.825 		"></polygon>
		<polygon fill-rule="evenodd" clip-rule="evenodd" points="-152.933,106.334 -152.025,106.859 -151.689,106.188 -152.608,105.695 
			-152.966,106.322 -152.966,106.322 -152.933,106.334 		"></polygon>
		<polygon fill-rule="evenodd" clip-rule="evenodd" points="-153.885,105.828 -152.966,106.322 -152.608,105.695 -153.527,105.2 
			-153.885,105.828 -153.885,105.828 		"></polygon>
		<polygon fill-rule="evenodd" clip-rule="evenodd" points="-154.322,105.123 -154.837,105.323 -153.885,105.828 -153.527,105.2 
			-154.479,104.697 -154.995,104.898 -154.322,105.123 -154.322,105.123 -154.322,105.123 		"></polygon>
		<polygon fill-rule="evenodd" clip-rule="evenodd" points="-57.21,95.035 -59.342,100.634 -52.385,102.955 -50.771,99.236 
			-50.726,98.879 -50.714,98.508 -50.771,98.116 -50.905,97.736 -51.128,97.398 -51.309,97.04 -51.599,96.683 -51.901,96.357 
			-52.215,96.065 -52.562,95.763 -52.921,95.494 -53.269,95.303 -53.604,95.08 -53.997,94.912 -54.344,94.722 -54.68,94.608 
			-54.981,94.509 -55.343,94.463 -55.665,94.43 -55.979,94.475 -56.294,94.519 -56.628,94.631 -56.922,94.832 -57.21,95.035 
			-57.21,95.035 -57.21,95.035 		"></polygon>
		<polygon fill-rule="evenodd" clip-rule="evenodd" points="-52.697,102.775 -52.261,102.585 -59.218,100.265 -59.455,100.97 
			-52.496,103.29 -52.026,103.112 -52.697,102.775 -52.697,102.775 		"></polygon>
		<g>
			<polygon fill="none" points="-51.355,104.391 -51.31,104.769 -51.355,104.391 			"></polygon>
			<polygon fill="none" points="-47.768,100.639 -47.511,100.884 -47.789,100.688 			"></polygon>
			<g>
				<polygon fill="none" points="-47.511,100.884 -47.789,100.688 -47.768,100.639 				"></polygon>
				<g>
					<polygon fill="none" points="-47.511,100.884 -47.789,100.688 -47.768,100.639 					"></polygon>
					<polygon points="-160.023,98.927 -159.99,98.826 -157.87,93.26 -157.199,93.484 -159.253,98.981 -159.295,99.207 
						-159.305,99.128 -160.023,99.263 -160.034,99.185 					"></polygon>
					<g>
						<polygon fill="none" points="-47.511,100.884 -47.789,100.688 -47.768,100.639 						"></polygon>
						<polygon fill="#4C4849" points="-125.912,112.101 -126.037,112.176 -126.046,112.167 						"></polygon>
						<g>
							<polygon fill="none" points="-125.775,112.428 -125.509,112.683 -125.775,112.428 							"></polygon>
							<polygon fill="none" points="-47.511,100.884 -47.789,100.688 -47.768,100.639 							"></polygon>
							<polygon fill="none" points="-134.91,120.262 -134.887,120.262 -134.887,120.27 -135.246,120.149 -134.946,120.155 							
								"></polygon>
							<path d="M-159.765,100.17l0.078,0.325l0.011-0.033l0.542-0.116l-0.138,0.361l15.594-0.509l0.37,0.012l0.403,0.135
								l0.403,0.134l0.402,0.136l0.369,0.234l0.304,0.212l0.213,0.258l0.131,0.26l-0.365,0.111l6.202,18.684l0.362,0.007
								l0.008,0.229h0.56l0.526-0.012l0.481,0.012l0.438-0.078l0.447-0.111l0.449-0.224l0.414-0.348l0.491-0.471l0.013-0.033
								l0.28-0.392l0.325-0.414l0.369-0.438l0.259-0.437l0.324-0.525l0.336-0.448l0.28-0.504l0.359-0.516l0.29-0.424l0.415-0.461
								l0.337-0.447l0.393-0.393l0.347-0.369l0.37-0.324l0.358-0.291l0.414-0.235l0.09-0.045l-0.266-0.255l0,0l0.266,0.255
								l0.415-0.46l0.382-0.357l0.335-0.337l0.359-0.29l0.348-0.258l0.368-0.213l0.325-0.189l0.358-0.179l0.404-0.09l0.392-0.168
								l0.403-0.09l0.471-0.067l0.516-0.089l0.57-0.033l0.617-0.056l0.604-0.021l0.034,0.01l67.297-5.026l0.393-0.055l0.357-0.068
								l0.325-0.077l0.337-0.112l0.312-0.156l0.325-0.19l0.271-0.247l0.312-0.268l0.068-0.091l1.175-2.742l-0.613-0.393l0.271,0.262
								l-0.043,0.036l-0.298-0.208l-0.294,0.686l-0.198,0.119l-0.259,0.102l-0.302,0.124l-0.282,0.055l-0.357,0.067l-0.356,0.066
								l-67.332,5.016l-0.428,0.045l-0.414,0.012l-0.413,0.01l-0.438,0.078h-0.449l-0.392,0.056l-0.426,0.046l-0.392,0.056
								l-0.438,0.078l-0.392,0.055l-0.402,0.089l-0.448,0.112l-0.404,0.091l-0.426,0.155l-0.426,0.157l-0.403,0.202l-0.796,0.481
								l-0.807,0.737l-0.851,0.875l-0.819,0.996l-0.795,1.041l-0.684,0.93l-0.673,0.896l-0.56,0.672l-0.326,0.078l-0.279,0.057
								l-0.348,0.033h-0.336h-0.336l-0.291-0.021l-0.37-0.013l-0.325-0.034l-6.18-18.64l-0.135-0.269l-0.212-0.258l-0.303-0.214
								l-0.404-0.246l-0.392-0.168l-0.402-0.135l-0.381-0.091l-0.371-0.01l-15.582,0.475l-1.873,4.927l-0.011-0.065L-159.765,100.17
								z M-47.789,100.688l0.021-0.05l0.257,0.245L-47.789,100.688z"></path>
						</g>
					</g>
				</g>
			</g>
		</g>
		<polygon fill-rule="evenodd" clip-rule="evenodd" points="-50.144,102.06 -49.741,101.97 -49.382,101.903 -49.057,101.824 
			-48.72,101.712 -48.407,101.556 -48.082,101.365 -47.825,101.153 -47.511,100.884 -48.047,100.369 -48.285,100.626 
			-48.53,100.806 -48.767,100.951 -49.022,101.052 -49.271,101.119 -49.561,101.208 -49.874,101.253 -50.223,101.287 
			-50.144,102.06 -50.144,102.06 		"></polygon>
		<polygon fill-rule="evenodd" clip-rule="evenodd" points="-117.431,107.053 -50.144,102.06 -50.223,101.287 -117.519,106.312 
			-117.431,107.053 -117.431,107.053 		"></polygon>
		<polygon fill-rule="evenodd" clip-rule="evenodd" points="-124.03,108.247 -123.637,108.08 -123.255,107.946 -122.797,107.8 
			-122.416,107.665 -122.001,107.543 -121.61,107.487 -121.217,107.432 -120.781,107.354 -120.422,107.285 -120.007,107.275 
			-119.581,107.229 -119.156,107.187 -118.73,107.141 -118.349,107.119 -117.89,107.085 -117.431,107.053 -117.519,106.312 
			-117.946,106.357 -118.372,106.402 -118.819,106.402 -119.246,106.446 -119.66,106.458 -120.062,106.548 -120.478,106.559 
			-120.938,106.592 -121.341,106.682 -121.745,106.771 -122.18,106.849 -122.628,106.961 -123.009,107.094 -123.468,107.24 
			-123.928,107.385 -124.331,107.587 -124.03,108.247 -124.03,108.247 -124.03,108.247 		"></polygon>
		<polygon fill-rule="evenodd" clip-rule="evenodd" points="-130.058,114.898 -129.913,114.798 -129.61,114.451 -129.34,114.093 
			-129.017,113.679 -128.68,113.229 -128.298,112.761 -127.951,112.277 -127.559,111.773 -127.167,111.271 -126.763,110.733 
			-126.349,110.273 -125.945,109.848 -125.531,109.39 -125.183,109.02 -124.746,108.718 -124.389,108.427 -124.03,108.247 
			-124.331,107.587 -124.792,107.845 -125.183,108.124 -125.643,108.493 -126.079,108.907 -126.483,109.334 -126.886,109.759 
			-127.333,110.318 -127.726,110.822 -128.12,111.326 -128.511,111.83 -128.858,112.312 -129.24,112.781 -129.576,113.229 
			-129.902,113.645 -130.169,114.003 -130.417,114.294 -130.282,114.227 -130.058,114.898 -130.058,114.898 -130.058,114.898 		"></polygon>
		<polygon fill="none" points="-57.356,95.359 -57.21,95.035 -56.942,94.788 -56.539,94.586 -56.068,94.519 -55.812,94.531 
			-55.519,94.553 -55.239,94.608 -54.96,94.665 -54.623,94.776 -54.321,94.878 -53.996,95.023 -53.649,95.214 -53.358,95.349 
			-53.056,95.562 -52.786,95.763 -52.494,96.01 -52.192,96.223 -51.98,96.48 -51.723,96.716 -51.51,96.974 -51.117,97.479 
			-50.915,97.994 -50.814,98.252 -50.76,98.419 -50.792,98.855 -50.872,99.202 -51.118,99.494 -51.477,99.672 -51.959,99.773 
			-52.227,99.797 -52.506,99.739 -52.831,99.706 -53.179,99.628 -53.481,99.526 -53.818,99.414 -54.177,99.259 -54.489,99.078 
			-54.814,98.933 -55.163,98.742 -55.467,98.53 -55.756,98.282 -56.025,98.081 -56.305,97.801 -56.552,97.531 -56.764,97.274 
			-57.109,96.748 -57.313,96.232 -57.368,96.064 -57.425,95.784 		"></polygon>
		<polygon fill-rule="evenodd" clip-rule="evenodd" fill="#FFFFFF" points="-142.949,94.655 -141.56,94.633 -141.447,94.633 
			-153.377,90.652 -153.982,91.011 -142.96,94.688 -142.96,94.688 -142.949,94.655 		"></polygon>
		<polygon fill-rule="evenodd" clip-rule="evenodd" fill="#FFFFFF" points="-142.949,94.655 -157.142,95.107 -157.2,94.828 
			-157.277,94.503 -157.366,94.214 -157.478,93.876 -157.535,93.596 -157.535,93.372 -157.446,93.104 -157.199,92.924 
			-156.616,92.521 -155.966,92.141 -155.316,91.76 -154.667,91.38 -154.049,90.988 -153.982,91.011 -142.96,94.688 -142.96,94.688 
			-142.949,94.655 		"></polygon>
		<polygon fill="#FFFFFF" points="-151.578,103.275 -141.909,102.731 -138.123,104.256 -136.79,108.21 -136.385,109.577 
			-137.988,109.676 -139.556,109.676 -141.003,109.642 -142.324,109.574 -143.612,109.405 -144.81,109.193 -145.91,108.901 
			-147.007,108.609 -148.038,108.229 -149.035,107.856 -149.975,107.432 -150.906,106.971 -151.869,106.501 -152.787,106.009 
			-153.705,105.515 -154.658,105.01 -154.748,104.607 -154.814,104.248 -154.904,103.847 -154.96,103.453 		"></polygon>
		<polygon fill-rule="evenodd" clip-rule="evenodd" fill="#FFFFFF" points="-127.221,104.382 -127.086,104.539 -125.843,105.29 
			-125.44,104.641 -126.684,103.891 -126.561,104.081 -127.221,104.382 -127.176,104.472 -127.086,104.539 -127.221,104.382 
			-127.221,104.382 		"></polygon>
		<polygon fill-rule="evenodd" clip-rule="evenodd" fill="#FFFFFF" points="-138.28,104.613 -138.492,104.355 -136.723,109.688 
			-136.017,109.476 -137.785,104.143 -137.976,103.931 -137.785,104.143 -137.841,103.976 -137.976,103.931 -138.28,104.613 
			-138.28,104.613 -138.28,104.613 		"></polygon>
		<polygon fill-rule="evenodd" clip-rule="evenodd" fill="#FFFFFF" points="-141.875,103.078 -142.053,103.057 -138.28,104.613 
			-137.976,103.931 -141.75,102.372 -141.897,102.361 -141.75,102.372 -141.819,102.35 -141.897,102.361 -141.875,103.078 
			-141.875,103.078 -141.875,103.078 		"></polygon>
		<polygon fill-rule="evenodd" clip-rule="evenodd" fill="#FFFFFF" points="-154.58,103.432 -154.938,103.834 -141.875,103.078 
			-141.897,102.361 -154.959,103.117 -155.307,103.486 -154.959,103.117 -155.375,103.128 -155.307,103.486 -154.58,103.432 
			-154.58,103.432 		"></polygon>
		<polygon fill-rule="evenodd" clip-rule="evenodd" fill="#FFFFFF" points="-154.479,104.697 -154.333,104.933 -154.343,104.742 
			-154.389,104.54 -154.4,104.35 -154.457,104.182 -154.467,103.992 -154.512,103.79 -154.568,103.621 -154.58,103.432 
			-155.307,103.486 -155.308,103.711 -155.274,103.946 -155.218,104.114 -155.207,104.305 -155.151,104.472 -155.106,104.675 
			-155.027,104.887 -155.016,105.078 -154.837,105.323 -155.016,105.078 -154.96,105.246 -154.837,105.323 -154.479,104.697 
			-154.479,104.697 		"></polygon>
		<polygon fill-rule="evenodd" clip-rule="evenodd" fill="#FFFFFF" points="-136.71,109.654 -136.41,109.195 -138.011,109.295 
			-139.556,109.34 -140.957,109.283 -142.313,109.204 -143.523,109.024 -144.733,108.845 -145.831,108.553 -146.894,108.272 
			-147.925,107.891 -148.877,107.498 -149.831,107.106 -150.759,106.647 -151.689,106.188 -152.608,105.695 -153.527,105.2 
			-154.479,104.697 -154.837,105.323 -153.885,105.828 -152.966,106.322 -152.025,106.859 -151.096,107.32 -150.122,107.756 
			-149.18,108.182 -148.162,108.597 -147.13,108.979 -146,109.281 -144.89,109.538 -143.659,109.763 -142.369,109.933 
			-141.025,110.045 -139.534,110.056 -137.989,110.013 -136.32,109.935 -136.017,109.476 -136.32,109.935 -135.859,109.9 
			-136.017,109.476 -136.723,109.688 -136.723,109.688 -136.71,109.654 		"></polygon>
		<g>
			<polygon fill="none" points="-129.953,114.388 -129.677,114.652 -129.953,114.388 			"></polygon>
			<polygon fill="none" points="-132.433,114.294 -132.498,114.297 -132.498,114.297 			"></polygon>
			<polygon fill="none" points="-138.515,96.172 -128.71,99.442 -138.515,96.172 			"></polygon>
		</g>
		<polygon fill-rule="evenodd" clip-rule="evenodd" fill="#FFFFFF" points="-117.519,106.312 -118.012,106.335 -118.563,106.413 
			-119.054,106.435 -119.592,106.479 -120.108,106.569 -120.657,106.647 -121.206,106.726 -121.733,106.849 -122.26,106.971 
			-122.717,107.117 -123.222,107.285 -123.693,107.464 -124.096,107.665 -124.578,107.878 -124.97,108.158 -125.33,108.449 
			-124.88,109.01 -124.535,108.752 -124.198,108.527 -123.828,108.315 -123.403,108.158 -122.987,107.923 -122.54,107.812 
			-122.013,107.689 -121.553,107.543 -121.049,107.487 -120.601,107.376 -120.063,107.331 -119.547,107.242 -118.999,107.162 
			-118.461,107.118 -117.957,107.063 -117.431,107.053 -117.519,106.312 -117.519,106.312 -117.519,106.312 		"></polygon>
		<polygon fill-rule="evenodd" clip-rule="evenodd" fill="#FFFFFF" points="-50.223,101.287 -117.519,106.312 -117.431,107.053 
			-50.144,102.06 -50.223,101.287 -50.223,101.287 		"></polygon>
		<polygon fill-rule="evenodd" clip-rule="evenodd" fill="#FFFFFF" points="-48.967,97.187 -48.688,97.579 -48.396,97.938 
			-48.26,98.318 -48.048,98.689 -47.938,99.025 -47.902,99.372 -47.892,99.675 -47.914,99.965 -47.993,100.201 -48.105,100.425 
			-48.251,100.638 -48.51,100.85 -48.776,100.985 -49.204,101.141 -49.65,101.253 -50.223,101.287 -50.144,102.06 -49.526,102.004 
			-48.989,101.847 -48.519,101.668 -48.105,101.433 -47.723,101.187 -47.456,100.828 -47.31,100.503 -47.176,100.101 
			-47.186,99.685 -47.163,99.283 -47.252,98.879 -47.399,98.421 -47.567,98.028 -47.79,97.579 -48.082,97.11 -48.373,96.751 
			-48.967,97.187 -48.967,97.187 		"></polygon>
		<polygon fill-rule="evenodd" clip-rule="evenodd" fill="#FFFFFF" points="-56.988,93.354 -56.382,93.333 -55.767,93.389 
			-55.14,93.523 -54.534,93.613 -53.963,93.803 -53.392,93.994 -52.843,94.252 -52.327,94.499 -51.789,94.789 -51.296,95.104 
			-50.769,95.428 -50.389,95.742 -49.987,96.1 -49.593,96.493 -49.269,96.862 -48.967,97.187 -48.373,96.751 -48.72,96.336 
			-49.113,95.944 -49.505,95.552 -49.94,95.182 -50.422,94.836 -50.904,94.487 -51.396,94.173 -51.956,93.837 -52.539,93.568 
			-53.134,93.333 -53.739,93.131 -54.376,92.918 -55.005,92.783 -55.644,92.682 -56.372,92.626 -57.01,92.637 -56.988,93.354 
			-56.988,93.354 		"></polygon>
		<polygon fill-rule="evenodd" clip-rule="evenodd" fill="#FFFFFF" points="-116.532,95.403 -56.988,93.354 -57.01,92.637 
			-116.521,94.698 -116.532,95.403 -116.532,95.403 		"></polygon>
		<polygon fill-rule="evenodd" clip-rule="evenodd" fill="#FFFFFF" points="-125.932,93.91 -125.371,94.136 -124.778,94.258 
			-124.206,94.448 -123.612,94.571 -122.986,94.707 -122.402,94.864 -121.763,94.965 -121.192,95.043 -120.598,95.168 
			-119.982,95.223 -119.378,95.312 -118.783,95.324 -118.212,95.402 -117.606,95.381 -117.06,95.415 -116.532,95.403 
			-116.521,94.698 -117.081,94.698 -117.63,94.665 -118.146,94.642 -118.727,94.597 -119.31,94.552 -119.892,94.506 
			-120.463,94.428 -121.069,94.338 -121.662,94.215 -122.233,94.136 -122.816,93.979 -123.421,93.889 -124.003,93.731 
			-124.621,93.563 -125.136,93.429 -125.708,93.239 -125.942,93.944 -125.942,93.944 -125.932,93.91 		"></polygon>
		<polygon fill-rule="evenodd" clip-rule="evenodd" fill="#FFFFFF" points="-146.017,88.404 -144.997,88.258 -144.036,88.169 
			-143.116,88.102 -142.275,88.046 -141.479,88.013 -140.762,88.103 -140.023,88.125 -139.407,88.182 -138.768,88.283 
			-138.174,88.407 -137.615,88.519 -137.11,88.687 -136.573,88.866 -136.148,89.046 -135.621,89.259 -135.206,89.471 
			-134.725,89.707 -134.243,89.942 -133.772,90.212 -133.301,90.48 -132.831,90.749 -132.338,91.063 -131.856,91.3 -131.331,91.623 
			-130.748,91.893 -130.187,92.229 -129.561,92.475 -128.956,92.788 -128.273,93.092 -127.533,93.339 -126.749,93.674 
			-125.942,93.944 -125.708,93.239 -126.513,92.969 -127.308,92.666 -127.97,92.409 -128.664,92.14 -129.303,91.814 
			-129.852,91.557 -130.412,91.22 -130.96,90.963 -131.499,90.671 -132.002,90.391 -132.473,90.124 -132.965,89.809 
			-133.436,89.539 -133.917,89.305 -134.399,89.068 -134.836,88.811 -135.318,88.576 -135.844,88.361 -136.337,88.161 
			-136.875,87.981 -137.447,87.79 -138.041,87.668 -138.645,87.577 -139.307,87.432 -139.989,87.353 -140.696,87.341 
			-141.513,87.33 -142.296,87.329 -143.205,87.363 -144.124,87.43 -145.098,87.552 -146.107,87.665 -146.05,88.392 -146.05,88.392 
			-146.017,88.404 		"></polygon>
		<polygon fill-rule="evenodd" clip-rule="evenodd" fill="#FFFFFF" points="-157.008,93.249 -156.425,92.846 -155.776,92.466 
			-155.125,92.085 -154.464,91.671 -153.86,91.312 -153.176,90.943 -152.538,90.597 -151.876,90.295 -151.17,89.97 -150.464,89.645 
			-149.77,89.354 -149.053,89.107 -148.279,88.918 -147.575,88.705 -146.801,88.515 -146.05,88.392 -146.107,87.665 
			-146.947,87.832 -147.742,87.977 -148.527,88.2 -149.266,88.402 -150.004,88.716 -150.767,88.984 -151.461,89.275 
			-152.168,89.601 -152.884,89.957 -153.568,90.326 -154.207,90.673 -154.857,91.054 -155.507,91.435 -156.157,91.814 
			-156.772,92.208 -157.389,92.6 -157.042,93.237 -157.042,93.237 -157.008,93.249 		"></polygon>
		<polygon fill-rule="evenodd" clip-rule="evenodd" fill="#FFFFFF" points="-157.142,94.772 -156.762,95.086 -156.874,94.75 
			-156.942,94.392 -157.031,94.101 -157.109,93.774 -157.154,93.573 -157.187,93.451 -157.132,93.283 -157.042,93.237 
			-157.389,92.6 -157.713,92.901 -157.882,93.294 -157.927,93.652 -157.814,93.988 -157.737,94.312 -157.647,94.604 
			-157.557,94.896 -157.501,95.176 -157.154,95.477 -157.501,95.176 -157.491,95.477 -157.154,95.477 -157.142,94.772 
			-157.142,94.772 		"></polygon>
		<g>
			<polygon fill="none" points="-129.652,97.448 -129.649,97.45 -129.741,97.829 			"></polygon>
			<polygon fill="#FFFFFF" points="-129.639,97.415 -129.649,97.45 -129.652,97.448 			"></polygon>
			<polygon fill="#FFFFFF" points="-129.808,97.583 -129.652,97.448 -129.741,97.829 			"></polygon>
			<g>
				<polygon fill="none" points="-57.21,95.035 -56.942,94.788 -56.539,94.586 -56.068,94.519 -55.812,94.531 -55.519,94.553 
					-55.239,94.608 -54.96,94.665 -54.623,94.776 -54.321,94.878 -53.996,95.023 -53.649,95.214 -53.358,95.349 -53.056,95.562 
					-52.786,95.763 -52.494,96.01 -52.192,96.223 -51.98,96.48 -51.723,96.716 -51.51,96.974 -51.117,97.479 -50.915,97.994 
					-50.814,98.252 -50.76,98.419 -50.792,98.855 -50.872,99.202 -51.118,99.494 -51.477,99.672 -51.959,99.773 -52.227,99.797 
					-52.506,99.739 -52.831,99.706 -53.179,99.628 -53.481,99.526 -53.818,99.414 -54.177,99.259 -54.489,99.078 -54.814,98.933 
					-55.163,98.742 -55.467,98.53 -55.756,98.282 -56.025,98.081 -56.305,97.801 -56.552,97.531 -56.764,97.274 -57.109,96.748 
					-57.313,96.232 -57.368,96.064 -57.425,95.784 -57.356,95.359 				"></polygon>
				<polygon fill="none" points="-122.069,97.398 -122.069,97.398 -122.403,97.553 				"></polygon>
				<polygon fill="none" points="-119.648,103.512 -119.41,103.702 -119.39,103.746 -120.029,104.542 -125.654,104.943 
					-126.874,104.238 -126.878,104.226 -126.561,104.081 -128.954,97.781 -128.556,97.386 -123.444,97.093 -122.36,97.655 
					-119.704,103.904 				"></polygon>
				<polygon fill="none" points="-138.84,95.502 -138.84,95.502 -129.427,98.643 				"></polygon>
				<g>
					<polygon fill="none" points="-57.21,95.035 -56.942,94.788 -56.539,94.586 -56.068,94.519 -55.812,94.531 -55.519,94.553 
						-55.239,94.608 -54.96,94.665 -54.623,94.776 -54.321,94.878 -53.996,95.023 -53.649,95.214 -53.358,95.349 -53.056,95.562 
						-52.786,95.763 -52.494,96.01 -52.192,96.223 -51.98,96.48 -51.723,96.716 -51.51,96.974 -51.117,97.479 -50.915,97.994 
						-50.814,98.252 -50.76,98.419 -50.792,98.855 -50.872,99.202 -51.118,99.494 -51.477,99.672 -51.959,99.773 -52.227,99.797 
						-52.506,99.739 -52.831,99.706 -53.179,99.628 -53.481,99.526 -53.818,99.414 -54.177,99.259 -54.489,99.078 -54.814,98.933 
						-55.163,98.742 -55.467,98.53 -55.756,98.282 -56.025,98.081 -56.305,97.801 -56.552,97.531 -56.764,97.274 -57.109,96.748 
						-57.313,96.232 -57.368,96.064 -57.425,95.784 -57.356,95.359 					"></polygon>
					<polygon fill="none" points="-123.444,97.093 -122.36,97.655 -119.704,103.904 -119.648,103.512 -119.41,103.702 
						-119.39,103.746 -120.029,104.542 -125.654,104.943 -126.874,104.238 -126.878,104.226 -126.561,104.081 -128.954,97.781 
						-128.556,97.386 					"></polygon>
					<polygon fill="none" points="-138.84,95.502 -138.84,95.502 -129.427,98.643 					"></polygon>
					<g>
						<polygon fill="none" points="-57.21,95.035 -56.942,94.788 -56.539,94.586 -56.068,94.519 -55.812,94.531 -55.519,94.553 
							-55.239,94.608 -54.96,94.665 -54.623,94.776 -54.321,94.878 -53.996,95.023 -53.649,95.214 -53.358,95.349 -53.056,95.562 
							-52.786,95.763 -52.494,96.01 -52.192,96.223 -51.98,96.48 -51.723,96.716 -51.51,96.974 -51.117,97.479 -50.915,97.994 
							-50.814,98.252 -50.76,98.419 -50.792,98.855 -50.872,99.202 -51.118,99.494 -51.477,99.672 -51.959,99.773 -52.227,99.797 
							-52.506,99.739 -52.831,99.706 -53.179,99.628 -53.481,99.526 -53.818,99.414 -54.177,99.259 -54.489,99.078 -54.814,98.933 
							-55.163,98.742 -55.467,98.53 -55.756,98.282 -56.025,98.081 -56.305,97.801 -56.552,97.531 -56.764,97.274 -57.109,96.748 
							-57.313,96.232 -57.368,96.064 -57.425,95.784 -57.356,95.359 						"></polygon>
						<polygon fill="none" points="-123.444,97.093 -122.36,97.655 -119.704,103.904 -119.648,103.512 -119.41,103.702 
							-119.39,103.746 -120.022,104.533 -120.062,104.194 -125.686,104.596 -125.44,104.641 -125.627,104.94 -125.654,104.943 
							-126.874,104.238 -126.878,104.226 -126.561,104.081 -128.954,97.781 -128.556,97.386 						"></polygon>
						<polygon fill="none" points="-138.84,95.502 -138.84,95.502 -129.427,98.643 						"></polygon>
						<g>
							<polygon fill="none" points="-119.505,102.514 -108.848,106.068 -119.505,102.514 							"></polygon>
							<polygon fill="none" points="-119.783,101.861 -107.505,105.958 -119.783,101.861 							"></polygon>
							<polygon fill="none" points="-57.21,95.035 -56.942,94.788 -56.539,94.586 -56.068,94.519 -55.812,94.531 -55.519,94.553 
								-55.239,94.608 -54.96,94.665 -54.623,94.776 -54.321,94.878 -53.996,95.023 -53.649,95.214 -53.358,95.349 -53.056,95.562 
								-52.786,95.763 -52.494,96.01 -52.192,96.223 -51.98,96.48 -51.723,96.716 -51.51,96.974 -51.117,97.479 -50.915,97.994 
								-50.814,98.252 -50.76,98.419 -50.792,98.855 -50.872,99.202 -51.118,99.494 -51.477,99.672 -51.959,99.773 -52.227,99.797 
								-52.506,99.739 -52.831,99.706 -53.179,99.628 -53.481,99.526 -53.818,99.414 -54.177,99.259 -54.489,99.078 -54.814,98.933 
								-55.163,98.742 -55.467,98.53 -55.756,98.282 -56.025,98.081 -56.305,97.801 -56.552,97.531 -56.764,97.274 -57.109,96.748 
								-57.313,96.232 -57.368,96.064 -57.425,95.784 -57.356,95.359 							"></polygon>
							<polygon fill="none" points="-123.444,97.093 -122.36,97.655 -119.704,103.904 -119.648,103.512 -119.41,103.702 
								-119.39,103.746 -120.022,104.533 -120.029,104.542 -125.627,104.94 -125.654,104.943 -126.874,104.238 -126.878,104.226 
								-126.561,104.081 -128.954,97.781 -128.556,97.386 							"></polygon>
							<polygon fill="none" points="-138.84,95.502 -138.84,95.502 -129.427,98.643 							"></polygon>
							<polygon fill="#FFFFFF" points="-119.783,101.861 -107.505,105.958 -108.838,106.037 -108.848,106.068 -119.505,102.514 
															"></polygon>
							<g>
								<polygon fill="none" points="-57.21,95.035 -56.942,94.788 -56.539,94.586 -56.068,94.519 -55.812,94.531 -55.519,94.553 
									-55.239,94.608 -54.96,94.665 -54.623,94.776 -54.321,94.878 -53.996,95.023 -53.649,95.214 -53.358,95.349 -53.056,95.562 
									-52.786,95.763 -52.494,96.01 -52.192,96.223 -51.98,96.48 -51.723,96.716 -51.51,96.974 -51.117,97.479 -50.915,97.994 
									-50.814,98.252 -50.76,98.419 -50.792,98.855 -50.872,99.202 -51.118,99.494 -51.477,99.672 -51.959,99.773 -52.227,99.797 
									-52.506,99.739 -52.831,99.706 -53.179,99.628 -53.481,99.526 -53.818,99.414 -54.177,99.259 -54.489,99.078 
									-54.814,98.933 -55.163,98.742 -55.467,98.53 -55.756,98.282 -56.025,98.081 -56.305,97.801 -56.552,97.531 -56.764,97.274 
									-57.109,96.748 -57.313,96.232 -57.368,96.064 -57.425,95.784 -57.356,95.359 								"></polygon>
								<polygon fill="none" points="-123.444,97.093 -122.36,97.655 -119.792,103.695 -120.191,104.204 -125.686,104.596 
									-125.44,104.641 -125.627,104.94 -125.654,104.943 -126.874,104.238 -126.878,104.226 -126.561,104.081 -128.954,97.781 
									-128.556,97.386 								"></polygon>
								<polygon fill="none" points="-119.648,103.512 -119.41,103.702 -119.41,103.702 								"></polygon>
								<polygon fill="none" points="-138.84,95.502 -138.84,95.502 -129.427,98.643 								"></polygon>
								<path fill="#FFFFFF" d="M-157.154,95.477l15.594-0.508l0.326,0.033l0.302,0.101l0.404,0.136l0.369,0.123l0.335,0.225
									l0.248,0.157l0.145,0.234l0.111,0.112l6.203,18.684l0.09,0.292l0.303-0.011l0.313-0.045l0.358,0.045l0.437,0.033l0.415-0.01
									l0.403,0.021l0.37-0.102l0.414-0.122l0.336-0.224l0.404-0.426l0.336-0.447l0.313-0.381l0.312-0.38l0.271-0.359l0.258-0.324
									l0.224-0.337l0.269-0.357l0.225-0.336l0.258-0.324l0.258-0.325l0.279-0.28l0.292-0.312l0.336-0.337l0.337-0.336l0.426-0.38
									l-0.228-0.285l0.339-0.275l0.38-0.247l0.438-0.19l0.403-0.201l0.437-0.189l0.492-0.135l0.506-0.168l0.492-0.133l0.471-0.068
									l0.515-0.088l0.55-0.08l0.515-0.089l0.538-0.045l0.538-0.043l0.504-0.057l0.494-0.022l8.649-0.625l-10.658-3.555
									l-0.277-0.652l0,0l12.278,4.097l57.34-4.28l1.063-0.168l0.795-0.368l0.551-0.526l0.2-0.604v-0.672l0.012-0.034l-0.19-0.773
									l-0.38-0.761l-0.551-0.818l-0.324-0.369l-0.358-0.381l-0.392-0.392l-0.413-0.325l-0.438-0.369l-0.494-0.315l-0.525-0.325
									l-0.526-0.324l-0.561-0.225l-0.551-0.259l-0.604-0.201l-0.637-0.213l-0.604-0.09l-0.63-0.135l-0.649-0.067l-0.638,0.011
									l-8.658,0.323l-50.854,1.738h-0.56l-0.525,0.012l-0.595-0.013l-0.57-0.078l-0.583-0.045l-0.583-0.046l-0.57-0.078
									l-0.606-0.091l-0.604-0.088l-0.594-0.124l-0.595-0.124l-0.593-0.123l-0.616-0.168l-0.582-0.157l-0.55-0.146l-0.571-0.19
									l-0.807-0.271l-0.795-0.302l-0.694-0.27l-0.693-0.268l-0.606-0.315l-0.583-0.269l-0.604-0.314l-0.55-0.258l-0.525-0.323
									l-0.471-0.271l-0.504-0.28l-0.471-0.269l-0.504-0.28l-0.47-0.27l-0.448-0.224l-0.471-0.27l-0.482-0.235l-0.493-0.202
									l-0.471-0.156l-0.537-0.179l-0.572-0.191l-0.547-0.146l-0.605-0.09l-0.639-0.101l-0.649-0.067l-0.729-0.056l-0.772-0.035
									l-0.795,0.034l-0.83,0.021l-0.929,0.101l-0.964,0.09l-1.053,0.134l-0.784,0.111l-0.772,0.189l-0.774,0.19l-0.718,0.246
									l-0.76,0.27l-0.729,0.279l-0.693,0.291l-0.707,0.323l-0.672,0.338l-0.684,0.369l10.881,3.631l-14.646,0.489L-157.154,95.477
									z M-57.425,95.784l0.068-0.425l0.146-0.324l0.268-0.247l0.403-0.202l0.471-0.067l0.256,0.013l0.294,0.021l0.279,0.056
									l0.279,0.057l0.337,0.111l0.302,0.102l0.325,0.146l0.347,0.19l0.291,0.135l0.303,0.213l0.27,0.201l0.292,0.247l0.302,0.213
									l0.212,0.258l0.258,0.235l0.213,0.258l0.393,0.505l0.202,0.516l0.101,0.258l0.055,0.167l-0.032,0.437l-0.08,0.347
									l-0.246,0.292l-0.358,0.178l-0.482,0.102l-0.268,0.023l-0.279-0.058l-0.325-0.033l-0.348-0.078l-0.303-0.102l-0.337-0.112
									l-0.358-0.155l-0.312-0.181l-0.325-0.146l-0.349-0.19l-0.304-0.212l-0.289-0.248l-0.27-0.201l-0.279-0.28l-0.247-0.27
									l-0.212-0.257l-0.346-0.526l-0.204-0.516l-0.055-0.168L-57.425,95.784z M-119.41,103.702L-119.41,103.702l-0.238-0.19
									L-119.41,103.702z M-128.954,97.781l0.397-0.396l5.112-0.293l1.084,0.562l2.567,6.04l-0.398,0.509l-5.495,0.392l0.246,0.045
									l-0.188,0.3l-0.026,0.003l-1.22-0.705l-0.005-0.013l0.317-0.145L-128.954,97.781z"></path>
							</g>
						</g>
					</g>
				</g>
			</g>
		</g>
		<polygon fill-rule="evenodd" clip-rule="evenodd" points="-60.888,99.669 -61.201,99.491 -61.257,99.21 -60.81,99.098 
			-60.719,99.39 -60.988,99.188 -60.888,99.669 -60.888,99.669 		"></polygon>
		<polygon fill-rule="evenodd" clip-rule="evenodd" points="-60.28,99.312 -60.349,99.401 -60.462,99.513 -60.597,99.579 
			-60.729,99.647 -60.888,99.669 -60.988,99.188 -60.921,99.21 -60.819,99.132 -60.696,99.098 -60.686,99.064 -60.707,99.132 
			-60.293,99.346 -60.293,99.346 -60.28,99.312 		"></polygon>
		<polygon fill-rule="evenodd" clip-rule="evenodd" points="-61.547,96.499 -61.514,96.51 -61.301,96.769 -61.021,97.049 
			-60.752,97.362 -60.496,97.709 -60.282,98.078 -60.159,98.493 -60.157,98.941 -60.293,99.346 -60.707,99.132 -60.618,98.863 
			-60.639,98.595 -60.719,98.27 -60.921,97.979 -61.144,97.643 -61.389,97.374 -61.671,97.093 -61.884,96.837 -61.851,96.848 
			-61.547,96.499 -61.547,96.499 		"></polygon>
		<polygon fill-rule="evenodd" clip-rule="evenodd" points="-65.668,95.312 -65.704,95.299 -65.109,95.312 -64.551,95.312 
			-64.022,95.412 -63.519,95.468 -63.003,95.603 -62.522,95.839 -62.019,96.119 -61.547,96.499 -61.851,96.848 -62.31,96.544 
			-62.747,96.286 -63.16,96.074 -63.609,95.96 -64.102,95.87 -64.605,95.814 -65.121,95.793 -65.647,95.804 -65.636,95.77 
			-65.715,95.333 -65.715,95.333 -65.668,95.312 		"></polygon>
		<polygon fill-rule="evenodd" clip-rule="evenodd" points="-109.385,97.602 -109.193,97.479 -65.715,95.333 -65.636,95.77 
			-109.128,97.948 -108.936,97.826 -109.385,97.602 -109.385,97.602 		"></polygon>
		<polygon fill-rule="evenodd" clip-rule="evenodd" points="-110.417,99.125 -110.886,98.968 -110.853,98.643 -110.764,98.375 
			-110.628,98.084 -110.45,97.881 -110.214,97.736 -109.911,97.613 -109.575,97.501 -109.193,97.479 -109.128,97.948 
			-109.485,98.016 -109.81,98.094 -109.968,98.116 -110.124,98.25 -110.201,98.375 -110.326,98.521 -110.393,98.722 
			-110.382,99.023 -110.853,98.866 -110.417,99.125 -110.417,99.125 		"></polygon>
		<g>
			<polygon fill="none" points="-109.192,97.491 -109.128,97.948 -109.192,97.491 			"></polygon>
			<g>
				<polygon fill="none" points="-110.382,99.023 -110.326,98.744 -110.192,98.452 -110.08,98.229 -109.844,98.084 -109.563,98.025 
					-109.172,97.97 -109.128,97.948 -65.636,95.77 -64.909,95.826 -64.302,95.804 -63.73,95.883 -63.206,95.984 -62.723,96.219 
					-62.288,96.476 -61.884,96.837 -61.423,97.362 -61.021,97.833 -60.729,98.303 -60.585,98.65 -60.585,98.874 -60.686,99.064 
					-60.965,99.233 -61.492,99.355 -62.23,99.444 -106.921,101.747 -106.955,101.735 -107.581,101.713 -108.197,101.544 
					-108.747,101.287 -109.218,101.018 -109.609,100.625 -109.889,100.233 -110.136,99.854 -110.326,99.528 -110.36,99.293 				"></polygon>
				<g>
					<path fill="none" d="M-110.326,98.744l-0.056,0.279l0.021,0.27l0.034,0.235l0.19,0.325l0.247,0.38l0.279,0.392l0.392,0.393
						l0.471,0.27l0.55,0.257l0.616,0.169l0.626,0.022l0.034,0.012l44.69-2.303l0.738-0.089l0.527-0.122l0.279-0.169l0.101-0.19
						V98.65l-0.145-0.348l-0.292-0.47l-0.401-0.471l-0.461-0.525l-0.404-0.361l-0.435-0.257l-0.483-0.234l-0.524-0.102l-0.571-0.079
						l-0.607,0.022l-0.727-0.057l-43.492,2.179l-0.044,0.021l-0.392,0.056l-0.28,0.059l-0.236,0.145l-0.112,0.224L-110.326,98.744z
						 M-109.71,98.465l43.491-2.18l0.021-0.067l0.583,0.045l0.56,0.001l0.528,0.101l0.504,0.056l0.516,0.136l0.48,0.234l0.47,0.27
						l0.505,0.391l0.189,0.215l0.169,0.167l0.157,0.202l0.135,0.156l0.189,0.213l0.146,0.236l0.122,0.189l0.124,0.191l0.01,0.077
						l-0.447,0.112l0.011,0.078l-0.112-0.225l-0.122-0.189l-0.169-0.167l-0.123-0.191l-0.133-0.156l-0.158-0.202l-0.167-0.169
						l-0.2-0.179l0.013-0.015l-0.396-0.299l-0.427-0.292l-0.424-0.179l-0.447-0.113l-0.493-0.09l-0.505-0.056l-0.55-0.034
						l-0.525,0.013l-43.479,2.144L-109.71,98.465z"></path>
					<g>
						<path fill="none" d="M-110.326,98.744l-0.056,0.279l0.021,0.27l0.034,0.235l0.19,0.325l0.247,0.38l0.279,0.392l0.392,0.393
							l0.471,0.27l0.55,0.257l0.616,0.169l0.626,0.022l0.034,0.012l44.69-2.303l0.738-0.089l0.527-0.122l0.279-0.169l0.101-0.19
							V98.65l-0.145-0.348l-0.292-0.47l-0.401-0.471l-0.461-0.525l-0.404-0.361l-0.435-0.257l-0.483-0.234l-0.524-0.102
							l-0.571-0.079l-0.607,0.022l-0.727-0.057l-43.492,2.179l-0.044,0.021l-0.392,0.056l-0.28,0.059l-0.236,0.145l-0.112,0.224
							L-110.326,98.744z"></path>
						<g>
							<polygon fill="none" points="-110.192,98.452 -110.08,98.229 -109.844,98.084 -109.563,98.025 -109.307,97.99 
								-109.664,98.666 -66.175,96.486 -65.614,96.487 -65.098,96.51 -64.572,96.61 -64.068,96.667 -63.587,96.79 -63.127,96.98 
								-62.668,97.284 -62.219,97.619 -62.063,97.821 -61.896,97.988 -61.738,98.19 -61.569,98.359 -61.447,98.55 -61.289,98.751 
								-61.165,98.941 -61.021,99.176 -61.003,99.242 -61.492,99.355 -62.23,99.444 -106.921,101.747 -106.955,101.735 
								-107.581,101.713 -108.197,101.544 -108.747,101.287 -109.218,101.018 -109.609,100.625 -109.889,100.233 -110.136,99.854 
								-110.326,99.528 -110.36,99.293 -110.382,99.023 -110.326,98.744 							"></polygon>
							<polygon points="-61.165,98.941 -61.289,98.751 -61.447,98.55 -61.569,98.359 -61.738,98.19 -61.896,97.988 -62.063,97.821 
								-62.219,97.619 -62.668,97.284 -63.127,96.98 -63.587,96.79 -64.068,96.667 -64.572,96.61 -65.098,96.51 -65.614,96.487 
								-66.175,96.486 -109.664,98.666 -109.307,97.99 -109.172,97.97 -109.128,97.948 -65.636,95.77 -64.909,95.826 
								-64.302,95.804 -63.73,95.883 -63.206,95.984 -62.723,96.219 -62.288,96.476 -61.884,96.837 -61.423,97.362 -61.021,97.833 
								-60.729,98.303 -60.585,98.65 -60.585,98.874 -60.686,99.064 -60.965,99.233 -61.003,99.242 -61.021,99.176 							"></polygon>
							<g>
								<polygon fill="none" points="-110.306,98.698 -110.271,98.688 -110.047,98.688 -109.664,98.666 -109.302,97.988 
									-109.172,97.97 -109.128,97.948 -65.636,95.77 -64.909,95.826 -64.302,95.804 -63.73,95.883 -63.206,95.984 -62.723,96.219 
									-62.288,96.476 -61.884,96.837 -61.423,97.362 -61.021,97.833 -60.729,98.303 -60.585,98.65 -60.585,98.874 -60.686,99.064 
									-60.965,99.233 -61.003,99.242 -61.492,99.355 -62.23,99.444 -106.921,101.747 -106.955,101.735 -107.581,101.713 
									-108.197,101.544 -108.747,101.287 -109.218,101.018 -109.609,100.625 -109.889,100.233 -110.136,99.854 -110.326,99.528 
									-110.36,99.293 -110.382,99.023 -110.326,98.744 								"></polygon>
								<path d="M-110.886,98.968l0.046,0.425l0.089,0.292l0.123,0.414l0.29,0.47l0.358,0.382l0.459,0.415l0.551,0.369l0.614,0.281
									l0.649,0.178l0.785,0.001l44.678-2.267l0.851-0.09l0.604-0.135l0.439-0.302l0.246-0.403l-0.012-0.414l-0.168-0.506
									l-0.324-0.48l-0.448-0.562l-0.459-0.526l-0.493-0.426l-0.525-0.323l-0.516-0.247l-0.562-0.112l-0.671-0.112h-0.672
									l-0.763,0.044l-43.479,2.146l0.001,0.013l-0.463,0.021l-0.469,0.179l-0.313,0.27l-0.214,0.303l-0.146,0.324L-110.886,98.968
									z M-110.382,99.023l0.056-0.279l0.021-0.046l0.035-0.01h0.224l0.383-0.022l0.362-0.678l0.13-0.019l0.044-0.021l43.492-2.179
									l0.727,0.057l0.607-0.022l0.571,0.079l0.524,0.102l0.483,0.234l0.435,0.257l0.404,0.361l0.461,0.525l0.401,0.471l0.292,0.47
									l0.145,0.348v0.224l-0.101,0.19l-0.279,0.169l-0.038,0.009l-0.489,0.113l-0.738,0.089l-44.69,2.303l-0.034-0.012
									l-0.626-0.022l-0.616-0.169l-0.55-0.257l-0.471-0.27l-0.392-0.393l-0.279-0.392l-0.247-0.38l-0.19-0.325l-0.034-0.235
									L-110.382,99.023z"></path>
							</g>
						</g>
					</g>
				</g>
			</g>
		</g>
	</g>
</g>

<rect x="18.09" y="17.863" fill="none" stroke="#2BA6DE" stroke-dasharray="0.8952" width="270.11" height="270.596"></rect>
</svg>