<svg version="1.1" xmlns="http://www.w3.org/2000/svg" xmlns:xlink="http://www.w3.org/1999/xlink" x="0px" y="0px" viewBox="0 0 3450 2700" enable-background="new 0 0 828 648" xml:space="preserve" width="3450" height="2700">
<g id="Guidelines">
	<path id="Bleed_Zone" opacity="0.5" d="M828,648H-0.001V0H828V648z M211.501,450.32h-7.2l-30.96,18v65.16h36
		c2.16,0,2.16,0,2.16,2.16v42.84h405v-42.84c0-2.16,0-2.16,2.16-2.16h36v-65.16l-30.96-18h-7.2h7.2l66.96-3.168h56.16V188.168
		h-56.16L623.701,185l-7.2,0h7.2l30.96-18v-65.16h-36c-2.16,0-2.16,0-2.16-2.16V56.84h-405l0,42.84c0,2.16,0,2.16-2.16,2.16h-36V167
		l30.96,18h7.2h-7.2l-66.96,3.168H81.18v258.984h56.16l66.96,3.168H211.501z"></path>
	<g id="Fold_Lines">
		<rect x="209.905" y="109.313" fill="none" stroke="#00A551" stroke-miterlimit="10" width="408.189" height="75.118"></rect>
		<rect x="209.905" y="450.889" fill="none" stroke="#00A551" stroke-miterlimit="10" width="408.189" height="75.118"></rect>
		<line fill="none" stroke="#00A551" stroke-miterlimit="10" x1="618.095" y1="184.432" x2="618.095" y2="450.889"></line>
		<line fill="none" stroke="#00A551" stroke-miterlimit="10" x1="693.212" y1="188.168" x2="693.212" y2="447.152"></line>
		<line fill="none" stroke="#00A551" stroke-miterlimit="10" x1="209.905" y1="184.432" x2="209.905" y2="450.889"></line>
		<line fill="none" stroke="#00A551" stroke-miterlimit="10" x1="134.788" y1="188.168" x2="134.788" y2="447.152"></line>
	</g>
	<g id="Safe_Zones">
		<g>
			<g>
				<polyline fill="none" stroke="#00ADEE" stroke-miterlimit="10" points="148.283,438.758 143.788,438.553 143.788,434.053 				
					"></polyline>
				
					<line fill="none" stroke="#00ADEE" stroke-miterlimit="10" stroke-dasharray="9.3114,9.3114" x1="143.788" y1="424.741" x2="143.788" y2="205.923"></line>
				<polyline fill="none" stroke="#00ADEE" stroke-miterlimit="10" points="143.788,201.267 143.788,196.767 148.283,196.562 				
					"></polyline>
				
					<line fill="none" stroke="#00ADEE" stroke-miterlimit="10" stroke-dasharray="9.6354,9.6354" x1="157.908" y1="196.124" x2="191.597" y2="194.588"></line>
				<polyline fill="none" stroke="#00ADEE" stroke-miterlimit="10" points="196.41,194.369 200.905,194.164 200.905,198.664 				"></polyline>
				
					<line fill="none" stroke="#00ADEE" stroke-miterlimit="10" stroke-dasharray="8.8145,8.8145" x1="200.905" y1="207.479" x2="200.905" y2="432.249"></line>
				<polyline fill="none" stroke="#00ADEE" stroke-miterlimit="10" points="200.905,436.656 200.905,441.156 196.41,440.951 				"></polyline>
				
					<line fill="none" stroke="#00ADEE" stroke-miterlimit="10" stroke-dasharray="9.6354,9.6354" x1="186.785" y1="440.513" x2="153.096" y2="438.977"></line>
			</g>
		</g>
		<g>
			<g>
				<polyline fill="none" stroke="#00ADEE" stroke-miterlimit="10" points="679.421,196.563 683.916,196.768 683.916,201.268 				
					"></polyline>
				
					<line fill="none" stroke="#00ADEE" stroke-miterlimit="10" stroke-dasharray="9.3114,9.3114" x1="683.916" y1="210.579" x2="683.916" y2="429.398"></line>
				<polyline fill="none" stroke="#00ADEE" stroke-miterlimit="10" points="683.916,434.053 683.916,438.553 679.421,438.758 				
					"></polyline>
				
					<line fill="none" stroke="#00ADEE" stroke-miterlimit="10" stroke-dasharray="9.6354,9.6354" x1="669.795" y1="439.197" x2="636.106" y2="440.732"></line>
				<polyline fill="none" stroke="#00ADEE" stroke-miterlimit="10" points="631.294,440.951 626.798,441.156 626.798,436.656 				
					"></polyline>
				
					<line fill="none" stroke="#00ADEE" stroke-miterlimit="10" stroke-dasharray="8.8145,8.8145" x1="626.798" y1="427.842" x2="626.798" y2="203.071"></line>
				<polyline fill="none" stroke="#00ADEE" stroke-miterlimit="10" points="626.798,198.664 626.798,194.164 631.294,194.369 				
					"></polyline>
				
					<line fill="none" stroke="#00ADEE" stroke-miterlimit="10" stroke-dasharray="9.6354,9.6354" x1="640.919" y1="194.808" x2="674.608" y2="196.343"></line>
			</g>
		</g>
		<g>
			<g>
				<polyline fill="none" stroke="#00ADEE" stroke-miterlimit="10" points="223.405,175.432 218.905,175.432 218.905,170.932 				
					"></polyline>
				
					<line fill="none" stroke="#00ADEE" stroke-miterlimit="10" stroke-dasharray="9.6236,9.6236" x1="218.905" y1="161.308" x2="218.905" y2="127.625"></line>
				<polyline fill="none" stroke="#00ADEE" stroke-miterlimit="10" points="218.905,122.813 218.905,118.313 223.405,118.313 				
					"></polyline>
				
					<line fill="none" stroke="#00ADEE" stroke-miterlimit="10" stroke-dasharray="8.8649,8.8649" x1="232.27" y1="118.313" x2="600.162" y2="118.313"></line>
				<polyline fill="none" stroke="#00ADEE" stroke-miterlimit="10" points="604.595,118.313 609.095,118.313 609.095,122.813 				
					"></polyline>
				
					<line fill="none" stroke="#00ADEE" stroke-miterlimit="10" stroke-dasharray="9.6236,9.6236" x1="609.095" y1="132.437" x2="609.095" y2="166.12"></line>
				<polyline fill="none" stroke="#00ADEE" stroke-miterlimit="10" points="609.095,170.932 609.095,175.432 604.595,175.432 				
					"></polyline>
				
					<line fill="none" stroke="#00ADEE" stroke-miterlimit="10" stroke-dasharray="8.8649,8.8649" x1="595.73" y1="175.432" x2="227.838" y2="175.432"></line>
			</g>
		</g>
		<g>
			<g>
				<polyline fill="none" stroke="#00ADEE" stroke-miterlimit="10" points="223.405,517.007 218.905,517.007 218.905,512.507 				
					"></polyline>
				
					<line fill="none" stroke="#00ADEE" stroke-miterlimit="10" stroke-dasharray="9.6236,9.6236" x1="218.905" y1="502.883" x2="218.905" y2="469.201"></line>
				<polyline fill="none" stroke="#00ADEE" stroke-miterlimit="10" points="218.905,464.389 218.905,459.889 223.405,459.889 				
					"></polyline>
				
					<line fill="none" stroke="#00ADEE" stroke-miterlimit="10" stroke-dasharray="8.8649,8.8649" x1="232.27" y1="459.889" x2="600.162" y2="459.889"></line>
				<polyline fill="none" stroke="#00ADEE" stroke-miterlimit="10" points="604.595,459.889 609.095,459.889 609.095,464.389 				
					"></polyline>
				
					<line fill="none" stroke="#00ADEE" stroke-miterlimit="10" stroke-dasharray="9.6236,9.6236" x1="609.095" y1="474.012" x2="609.095" y2="507.695"></line>
				<polyline fill="none" stroke="#00ADEE" stroke-miterlimit="10" points="609.095,512.507 609.095,517.007 604.595,517.007 				
					"></polyline>
				
					<line fill="none" stroke="#00ADEE" stroke-miterlimit="10" stroke-dasharray="8.8649,8.8649" x1="595.73" y1="517.007" x2="227.838" y2="517.007"></line>
			</g>
		</g>
		<g>
			<g>
				<polyline fill="none" stroke="#00ADEE" stroke-miterlimit="10" points="223.405,442.624 218.905,442.624 218.905,438.124 				
					"></polyline>
				
					<line fill="none" stroke="#00ADEE" stroke-miterlimit="10" stroke-dasharray="8.896,8.896" x1="218.905" y1="429.228" x2="218.905" y2="202.38"></line>
				<polyline fill="none" stroke="#00ADEE" stroke-miterlimit="10" points="218.905,197.932 218.905,193.432 223.405,193.432 				
					"></polyline>
				
					<line fill="none" stroke="#00ADEE" stroke-miterlimit="10" stroke-dasharray="8.8649,8.8649" x1="232.27" y1="193.432" x2="600.162" y2="193.432"></line>
				<polyline fill="none" stroke="#00ADEE" stroke-miterlimit="10" points="604.595,193.432 609.095,193.432 609.095,197.932 				
					"></polyline>
				
					<line fill="none" stroke="#00ADEE" stroke-miterlimit="10" stroke-dasharray="8.896,8.896" x1="609.095" y1="206.828" x2="609.095" y2="433.676"></line>
				<polyline fill="none" stroke="#00ADEE" stroke-miterlimit="10" points="609.095,438.124 609.095,442.624 604.595,442.624 				
					"></polyline>
				
					<line fill="none" stroke="#00ADEE" stroke-miterlimit="10" stroke-dasharray="8.8649,8.8649" x1="595.73" y1="442.624" x2="227.838" y2="442.624"></line>
			</g>
		</g>
	</g>
	<g id="Trim_Line">
		<path fill="none" stroke="#FF0000" stroke-linecap="round" stroke-linejoin="round" stroke-miterlimit="10" d="M616.5,450.32h7.2
			l30.96,18v65.16h-36c-2.16,0-2.16,0-2.16,2.16v42.84h-405v-42.84c0-2.16,0-2.16-2.16-2.16h-36v-65.16l30.96-18h7.2"></path>
		<polyline fill="none" stroke="#FF0000" stroke-linecap="round" stroke-linejoin="round" stroke-miterlimit="10" points="
			623.701,185 690.661,188.168 746.82,188.168 746.82,447.152 690.661,447.152 623.701,450.32 		"></polyline>
		<path fill="none" stroke="#FF0000" stroke-linecap="round" stroke-linejoin="round" stroke-miterlimit="10" d="M211.501,185h-7.2
			l-30.96-18v-65.16h36c2.16,0,2.16,0,2.16-2.16l0-42.84h405v42.84c0,2.16,0,2.16,2.16,2.16h36V167l-30.96,18h-7.2"></path>
		<polyline fill="none" stroke="#FF0000" stroke-linecap="round" stroke-linejoin="round" stroke-miterlimit="10" points="
			204.301,185 137.34,188.168 81.18,188.168 81.18,447.152 137.34,447.152 204.3,450.32 		"></polyline>
	</g>
</g>
<g id="Text">
	<line fill="none" stroke="#929497" x1="524.776" y1="323.019" x2="828" y2="323.019"></line>
	
	
		<line fill="none" stroke="#00ADEE" stroke-miterlimit="10" stroke-dasharray="12" x1="531.513" y1="209.857" x2="609.397" y2="209.857"></line>
	<g>
		<path fill="#EC1E28" d="M531.513,201.136c0,0.513-0.231,1.015-0.697,1.501l-0.072,0.073l-4.064,4.291
			c-0.863,0.909-1.6,1.613-2.209,2.11c-0.605,0.497-1.035,0.745-1.285,0.745c-0.264,0-0.588-0.124-0.978-0.371
			c-0.391-0.249-0.645-0.505-0.758-0.77c-0.098-0.219-0.188-0.685-0.271-1.398c-0.086-0.712-0.131-1.482-0.131-2.314
			c0-0.452,0.19-0.871,0.568-1.255c0.377-0.384,0.793-0.577,1.248-0.577c0.436,0,0.693,0.398,0.777,1.192
			c0.008,0.093,0.016,0.162,0.018,0.205c0.072,0.612,0.152,1.037,0.244,1.279c0.094,0.243,0.217,0.362,0.375,0.362
			c0.064,0,0.189-0.07,0.369-0.214c0.178-0.143,0.394-0.337,0.643-0.583l4.18-4.147c0.352-0.351,0.664-0.616,0.941-0.797
			c0.275-0.181,0.512-0.271,0.703-0.271c0.146,0,0.248,0.056,0.309,0.166c0.062,0.11,0.092,0.294,0.092,0.554V201.136z"></path>
	</g>
	<g>
		<path fill="#EC1E28" d="M534.757,274.396c0,0.513-0.232,1.015-0.695,1.503l-0.074,0.072l-4.066,4.291
			c-0.863,0.91-1.598,1.614-2.205,2.11c-0.609,0.497-1.037,0.745-1.285,0.745c-0.264,0-0.592-0.123-0.982-0.373
			c-0.391-0.247-0.643-0.504-0.756-0.767c-0.098-0.22-0.19-0.687-0.273-1.397c-0.086-0.712-0.129-1.483-0.129-2.315
			c0-0.451,0.188-0.87,0.566-1.255c0.375-0.384,0.793-0.576,1.25-0.576c0.434,0,0.692,0.396,0.777,1.192
			c0.008,0.091,0.014,0.161,0.019,0.205c0.068,0.61,0.15,1.037,0.242,1.278c0.094,0.243,0.217,0.363,0.375,0.363
			c0.066,0,0.191-0.072,0.369-0.213c0.18-0.145,0.393-0.338,0.645-0.585l4.178-4.146c0.35-0.352,0.666-0.618,0.941-0.798
			c0.275-0.179,0.51-0.271,0.701-0.271c0.146,0,0.248,0.056,0.31,0.167c0.062,0.109,0.092,0.293,0.092,0.552V274.396z"></path>
	</g>
	<g>
		<path fill="#EC1E28" d="M524.776,312.398c0,0.515-0.23,1.016-0.695,1.504l-0.072,0.074l-4.068,4.289
			c-0.861,0.91-1.598,1.614-2.205,2.112c-0.609,0.494-1.037,0.744-1.287,0.744c-0.266,0-0.59-0.125-0.98-0.371
			c-0.391-0.248-0.641-0.506-0.756-0.77c-0.098-0.221-0.188-0.686-0.273-1.399c-0.084-0.711-0.127-1.481-0.127-2.313
			c0-0.451,0.19-0.87,0.565-1.255c0.377-0.386,0.793-0.576,1.25-0.576c0.435,0,0.695,0.397,0.775,1.193
			c0.012,0.092,0.016,0.159,0.022,0.203c0.068,0.611,0.152,1.038,0.244,1.278c0.09,0.241,0.215,0.363,0.373,0.363
			c0.066,0,0.188-0.069,0.369-0.214c0.18-0.142,0.393-0.338,0.645-0.582l4.178-4.149c0.35-0.352,0.664-0.616,0.942-0.798
			c0.275-0.18,0.51-0.271,0.703-0.271c0.145,0,0.246,0.057,0.309,0.166c0.062,0.11,0.092,0.296,0.092,0.555V312.398z"></path>
	</g>
	<g>
		<path fill="#EC1E28" d="M508.782,396.097c0,0.514-0.23,1.014-0.697,1.502l-0.072,0.07l-4.066,4.295
			c-0.863,0.908-1.6,1.611-2.207,2.109c-0.605,0.496-1.035,0.742-1.287,0.742c-0.262,0-0.59-0.121-0.98-0.369
			c-0.389-0.25-0.641-0.506-0.754-0.77c-0.098-0.219-0.188-0.684-0.275-1.396c-0.084-0.715-0.129-1.484-0.129-2.315
			c0-0.453,0.189-0.871,0.566-1.256c0.379-0.383,0.795-0.578,1.252-0.578c0.432,0,0.691,0.398,0.775,1.193
			c0.008,0.094,0.016,0.16,0.02,0.205c0.07,0.611,0.152,1.037,0.244,1.277c0.092,0.244,0.217,0.363,0.375,0.363
			c0.064,0,0.189-0.072,0.369-0.213c0.178-0.145,0.395-0.34,0.643-0.582l4.178-4.148c0.352-0.354,0.666-0.617,0.943-0.799
			c0.275-0.18,0.51-0.27,0.703-0.27c0.145,0,0.248,0.055,0.309,0.166c0.061,0.107,0.092,0.295,0.092,0.553V396.097z"></path>
	</g>
	<line fill="none" stroke="#EC1E28" x1="532.647" y1="284.969" x2="746.82" y2="284.969"></line>
	<rect x="12.79" y="10.799" fill="#D0D2D3" width="141.585" height="137.848"></rect>
	
	<g>
		<path fill-rule="evenodd" clip-rule="evenodd" d="M135.126,66.603c0,28.115-22.744,50.908-50.801,50.908
			c-28.059,0-50.804-22.793-50.804-50.908c0-28.116,22.745-50.909,50.804-50.909C112.382,15.694,135.126,38.487,135.126,66.603z"></path>
		<path fill-rule="evenodd" clip-rule="evenodd" fill="#B7D333" d="M130.542,66.884c0,25.559-20.675,46.281-46.183,46.281
			c-25.507,0-46.185-20.722-46.185-46.281c0-25.562,20.678-46.281,46.185-46.281C109.867,20.604,130.542,41.323,130.542,66.884z"></path>
		<g>
			<path d="M74.472,56.791c-0.643,5.673-1.119,10.228-1.434,13.669l-2.108,0.093c0.031-0.116,0.046-0.244,0.05-0.387
				c0.004-0.258-0.091-0.597-0.284-1.018c-0.193-0.419-0.304-0.688-0.331-0.801c-0.544,0.075-1.067,0.456-1.565,1.134
				c-0.499,0.68-0.95,1.019-1.349,1.013c-0.23-0.005-0.486-0.069-0.771-0.187c-0.375,0.251-0.864,0.356-1.465,0.319
				c-0.543-0.095-1.072-0.177-1.587-0.244c-0.016-0.717-0.722-1.344-2.116-1.887c0.006-0.286-0.137-0.713-0.429-1.275
				c-0.291-0.567-0.435-0.962-0.433-1.192c0.004-0.259,0.111-0.471,0.314-0.641c-0.029-0.087-0.264-0.62-0.705-1.606
				c-0.302-0.721-0.449-1.343-0.439-1.857c0.006-0.401,0.099-0.775,0.276-1.115c-0.245-2.445-0.354-4.541-0.322-6.292
				c0.044-2.698,0.429-5.174,1.156-7.429c-0.052-0.346-0.075-0.688-0.069-1.033c0.031-1.809,0.655-3.059,1.866-3.758l0.012-0.559
				c1.2-1.53,2.78-2.636,4.738-3.321c1.17,0.278,2.341,0.543,3.51,0.792c1.311,0.452,2.215,1.228,2.71,2.328
				c0.396,0.237,0.591,0.714,0.577,1.43c-0.012,0.804,0.077,1.323,0.275,1.556l-0.219,0.254c0.228,1.697,0.34,2.733,0.335,3.105
				c-0.021,1.089-0.306,1.861-0.855,2.309c-0.202-0.002-0.729-0.183-1.582-0.542c-0.203,0.196-0.421,0.294-0.648,0.29
				c-0.116-0.002-0.322-0.063-0.621-0.184c-0.299-0.119-0.55-0.181-0.75-0.184c-0.144-0.002-0.286,0.024-0.43,0.078
				c-0.018-2.265,0.053-3.96,0.213-5.076c-0.224-0.147-0.455-0.483-0.688-1.002c-0.237-0.52-0.54-0.813-0.91-0.875
				c-0.232,0.281-0.337,0.466-0.31,0.553l-0.769-0.272c-0.701,0.764-1.167,2.09-1.399,3.98c-0.238,2.176-0.534,3.622-0.889,4.332
				c0.308,0.323,0.459,0.77,0.449,1.342c-0.004,0.202-0.039,0.533-0.103,0.99c-0.066,0.459-0.101,0.803-0.103,1.033
				c-0.007,0.258,0.018,0.488,0.073,0.691l-0.524,0.506c0.213,0.98,0.335,2.217,0.367,3.709c-0.021,1.264-0.03,2.526-0.021,3.789
				c-0.03,0-0.272,0.011-0.731,0.029c-0.286-0.005-0.489,0.094-0.608,0.292c0.174-0.026,0.331-0.039,0.473-0.036
				c0.631,0.01,1.126,0.458,1.482,1.338c0.356,0.883,0.664,1.327,0.923,1.333c0.285,0.003,0.678-0.263,1.176-0.801
				c0.842-0.904,1.281-2.144,1.309-3.721c0.012-0.776-0.073-1.608-0.26-2.501c-0.203,0.111-0.308,0.396-0.315,0.853
				c-0.459-0.007-0.747,0.09-0.865,0.288c-0.198-0.061-0.282-0.219-0.25-0.479c0.035-0.372,0.052-0.571,0.055-0.6
				c0.346-0.109,0.519-0.265,0.522-0.466c0.002-0.085-0.061-0.245-0.184-0.477c-0.126-0.231-0.187-0.418-0.185-0.563
				c0.002-0.114,0.031-0.229,0.091-0.343l0.202-1.674c0.627,0.183,1.983,0.262,4.076,0.241c-0.061,0.143,0.023,0.333,0.25,0.563
				c0.202-0.198,0.418-0.295,0.646-0.29c0.172,0.004,0.43,0.08,0.771,0.229C74.085,56.715,74.326,56.791,74.472,56.791z"></path>
			<path d="M90.504,71.617c-0.399-0.179-0.828-0.272-1.286-0.28c-0.4-0.007-0.948,0.069-1.638,0.23
				c-0.774,0.158-1.306,0.249-1.593,0.275c-0.306-0.608-0.518-1.446-0.645-2.51c-0.232-1.553-0.375-2.431-0.428-2.632
				c0.087-0.173,0.134-0.314,0.136-0.429c0.006-0.316-0.242-0.599-0.737-0.852c-0.5-0.253-0.743-0.45-0.741-0.594
				c0.001-0.171,0.292-0.425,0.872-0.761c-0.141-0.173-0.245-0.527-0.306-1.058c-0.062-0.531-0.193-0.887-0.389-1.063
				c-0.351,0.311-0.918,0.509-1.707,0.597c-0.79,0.088-1.315,0.215-1.574,0.381c0.017,2.239-0.35,3.741-1.109,4.503
				c-0.398-0.094-0.702,0.06-0.909,0.459c-0.297,0.482-0.545,0.766-0.745,0.847l0.251,0.307c-0.232,0.195-0.605,0.276-1.119,0.24
				c-0.801-0.045-1.231-0.064-1.289-0.065l-0.241-0.779l2.797-23.246c0.025-1.462,0.098-2.452,0.223-2.966
				c-0.037-1.293,0.263-2.091,0.897-2.396c0.397,0.264,0.898,0.403,1.498,0.412c0.487,0.008,1.249-0.093,2.283-0.306
				c1.035-0.212,1.753-0.313,2.154-0.308c1.401,0.024,2.013,1.039,1.837,3.046c-0.141,1.604,0.108,3.719,0.751,6.342
				c0.67,2.825,0.991,4.937,0.968,6.345c-0.006,0.43,0.133,1.322,0.099,1.753c-0.608,0.333-1.384,0.535-2.329,0.603
				c-0.832,0.045-1.678,0.088-2.537,0.131c-0.221-2.184-0.605-4.817-0.828-6.975c-0.27-2.586-0.606-4.716-1.008-6.388l-1.325,12.292
				c-0.104,1.058,0.376,1.598,1.435,1.617c0.342,0.005,0.672-0.076,0.991-0.242c0.259-0.082,0.615,0.111,1.064,0.577
				c-0.016,0.89,0.16,1.423,0.532,1.603c0.463-0.309,1.069-0.599,1.817-0.874c0.663-0.246,1.312-0.479,1.946-0.699
				c0.361,0.495,0.596,1.23,0.694,2.208c0.118,1.378,0.205,2.184,0.26,2.414c0.047,0.547,0.269,1.727,0.668,3.543
				c0.292,1.438,0.43,2.604,0.416,3.494C90.603,70.844,90.565,71.244,90.504,71.617z"></path>
			<path d="M110.285,51.117c-0.033,0.084-0.039,0.586-0.027,1.504c-0.012,0.748-0.108,1.306-0.284,1.677
				c-0.212,0.57-0.325,1.385-0.344,2.447c-0.005,0.231,0.003,0.589,0.025,1.078c-0.01,0.487-0.013,0.845-0.019,1.074
				c-0.032,1.81-0.339,3.121-0.928,3.945c0.05,0.462,0.071,0.92,0.063,1.378c-0.022,1.436-0.515,3.366-1.473,5.788
				c-0.259,0.083-0.474,0.122-0.646,0.119c-0.345-0.007-0.59-0.205-0.741-0.594c-0.153-0.391-0.296-0.758-0.432-1.106
				c0.093-2.207,0.048-5.423-0.14-9.646l0.264-0.254c-0.189-0.75-0.274-1.583-0.26-2.5c0.012-0.66,0.093-1.62,0.244-2.881
				c0.149-1.258,0.23-2.205,0.24-2.837c0.01-0.402-0.002-0.791-0.021-1.163c-0.985,2.366-1.687,6.372-2.095,12.02l-0.36,0.853
				c-0.117,0.286-0.363,0.44-0.737,0.463c-0.109-0.201-0.225-0.305-0.339-0.307c-0.085-0.003-0.238,0.104-0.454,0.315
				c-0.22,0.209-0.399,0.301-0.543,0.269l-0.569,0.507c0.255,0.322,0.797,0.358,1.633,0.115c0.66-0.19,1,0.06,1.018,0.75
				c0.018,0.574-0.137,1.346-0.468,2.317c-0.333,0.968-0.502,1.698-0.51,2.187c-0.005,0.344,0.031,0.69,0.111,1.034l-2.974,0.468
				c-0.277-0.581-0.48-1.55-0.615-2.917c-0.134-1.368-0.339-2.339-0.616-2.918c0.175-0.195,0.264-0.41,0.267-0.639
				c0.004-0.202-0.075-0.505-0.241-0.909c-0.165-0.405-0.262-0.708-0.287-0.909c-0.022-0.316-0.124-1.08-0.304-2.289
				c-0.127-0.976-0.186-1.741-0.177-2.284c0.005-0.287,0.025-0.545,0.06-0.773c0.001-0.201-0.111-0.496-0.332-0.89
				c-0.221-0.391-0.331-0.673-0.326-0.846c0.002-0.143,0.06-0.27,0.178-0.381c-0.198-0.235-0.276-0.638-0.238-1.213
				c0.039-0.572-0.043-0.976-0.236-1.208c-0.422,1.11-0.646,2.614-0.68,4.509c-0.015,2.639-0.043,4.162-0.077,4.562l0.296,0.263
				l-0.304,0.253c0.211,1.038,0.304,2.36,0.276,3.965c-0.077,2.898-0.116,4.247-0.111,4.047c-0.409,0.366-0.97,0.542-1.685,0.531
				c-0.887-0.016-1.493,0.062-1.808,0.227c-0.364-0.636-0.536-1.456-0.518-2.462c0.012-0.774,0.143-1.717,0.392-2.835
				c-0.39-0.724-0.573-1.732-0.55-3.023c0.006-0.315,0.042-0.917,0.114-1.806c0.042-0.716,0.052-1.247,0.029-1.592
				c0.288-0.139,0.434-0.293,0.438-0.465c0.001-0.115-0.088-0.31-0.271-0.587c-0.18-0.275-0.271-0.485-0.269-0.627
				c0.003-0.173,0.121-0.343,0.354-0.512l-0.925-13.923c0.549-0.362,1.442-0.534,2.673-0.513c1.346,0.053,2.263-0.019,2.755-0.21
				c0.087-0.058,0.186-0.084,0.302-0.083c0.114,0.001,0.248,0.069,0.404,0.2c0.156,0.132,0.262,0.197,0.317,0.2
				c0.114,0.002,0.217-0.082,0.307-0.254l0.801,0.79c0.27,1.01,0.523,2.966,0.762,5.866c0.243,2.502,0.624,4.39,1.151,5.662
				c0.7-2.542,1.279-4.671,1.74-6.386l0.931-6.812l6.661-0.144c0.022,0.373,0.104,2.368,0.286,3.519
				c0.153,1.006,0.227,1.825,0.213,2.456c-0.01,0.718-0.121,1.362-0.333,1.931c0.226,0.321,0.332,0.724,0.323,1.21
				C110.639,50.405,110.519,50.803,110.285,51.117z"></path>
			<path d="M123.947,66.202l0.002-0.042c-0.179,0.369-0.286,0.799-0.323,1.285c-0.033,0.314-0.042,0.76-0.024,1.333
				c0.018,0.661,0.025,1.122,0.022,1.379c-0.23-0.003-1.146-0.02-2.748-0.046c-0.974-0.017-1.85,0.069-2.628,0.256l-0.799-0.874
				c-0.236,0.224-0.323,0.411-0.27,0.556c-0.141-0.033-0.801-0.043-1.975-0.036c-0.918-0.014-1.602-0.112-2.056-0.293
				c-0.468,0.482-1.015,0.472-1.636-0.027c-0.227-0.175-0.247-0.471-0.069-0.884c0.178-0.414,0.126-0.722-0.157-0.929
				c0.043-0.917,0.171-2.335,0.374-4.256c0.201-1.718,0.31-3.066,0.325-4.042c0.023-1.319-0.07-2.583-0.276-3.792
				c0.32-0.311,0.677-0.464,1.079-0.456c0.459,0.006,0.999,0.232,1.621,0.672c0.876,0.618,1.332,0.927,1.36,0.927l0.252,0.306
				c0.029-0.084,0.182-0.542,0.453-1.371c0.153-0.541,0.373-0.897,0.664-1.064l0.253,0.263c0.114-0.056,0.492-0.321,1.131-0.799
				c0.489-0.337,0.892-1.132,1.177-1.127c0.318,0.005,0.614,0.183,0.895,0.533c0.481,0.266,0.785,1.297,0.936,1.83
				c0.146,0.533,0.29,1.059,0.425,1.58c-1.291,0.036-2.35,0.001-3.178-0.097c-0.208,0.312-0.494,0.357-0.861,0.137
				c-0.369-0.223-0.642-0.19-0.817,0.092c-0.01,0.518-0.027,1.45-0.048,2.797c-0.051,1.205-0.066,2.152-0.049,2.842
				c0.01,1.062,0.081,2.039,0.209,2.932c0.227,0.003,1.316,0.021,3.262,0.055C121.82,65.865,122.977,65.982,123.947,66.202z
				 M124.038,45.581c-0.257,0.024-0.542,0.034-0.857,0.029c-0.658-0.012-1.531-0.113-2.615-0.304
				c-1.345-0.195-2.16-0.308-2.444-0.342c-0.411,0.593-0.626,1.438-0.646,2.528c-0.038,2.353-0.04,3.372-0.007,3.058
				c0.395,0.235,0.59,0.669,0.578,1.3c-0.042,0.861-0.05,1.307-0.023,1.333c-0.201,0.083-0.305,0.369-0.313,0.857
				c-0.316-0.121-0.639-0.355-0.975-0.705c-0.451-0.44-0.691,1.046-0.658,0.675l-0.271,0.883l-0.254-0.263
				c-0.231,0.024-0.623-0.097-1.175-0.364c-0.555-0.267-0.944-0.516-1.169-0.753c0.008-0.458,0.085-0.716,0.228-0.771l-0.549-0.611
				l-0.265,0.383c-0.321-2.99-0.239-8.582,0.155-11.733c1.086,0.19,2.286,0.312,3.604,0.363c0.887,0.042,2.131,0.063,3.735,0.063
				c1.833,0.003,3.151,0.01,3.953,0.023c0.337,0.324,0.504,0.742,0.493,1.257c-0.004,0.318-0.093,0.824-0.263,1.525
				C124.134,44.715,124.046,45.235,124.038,45.581z"></path>
		</g>
		<g>
			<path d="M75.763,92.229v-0.02c0,0.014-0.075,0.646-0.222,1.897c-0.076,0.769-0.26,1.374-0.557,1.813l-0.186-0.151
				c-0.349,0.73-0.82,1.174-1.421,1.332c-0.288,0.304-0.702,0.469-1.242,0.502c-0.321,0.02-1.062-0.075-2.226-0.28
				c-0.562-0.349-0.869-0.543-0.923-0.581c-0.353-0.266-0.523-0.536-0.504-0.81c-0.343-0.35-0.822-0.972-1.002-1.754
				c-0.219-0.861-0.354-0.91-0.557-1.213c-0.325,0.239-0.44-0.269-0.629-0.573l0.171-0.132c-0.104-0.076-0.161-0.161-0.167-0.256
				c-0.004-0.068,0.024-0.169,0.085-0.302c0.059-0.133,0.088-0.234,0.084-0.301c-0.007-0.109-0.072-0.202-0.193-0.277
				c0.13-0.676,0.249-1.693,0.355-3.05c0.23-0.125,0.339-0.363,0.329-0.718c-0.014-0.352,0.035-0.588,0.147-0.705
				c0.546-1.096,1.435-1.837,2.665-2.223c0.068,0.009,0.399,0.004,0.989-0.017c0.407-0.011,0.715,0.026,0.922,0.109
				c0.368-0.062,0.739,0.025,1.107,0.264c0.318,0.241,0.639,0.481,0.956,0.722c0.596,0.649,0.92,1.38,0.966,2.199
				c0.018,0.271-0.003,0.56-0.051,0.862c-0.441-0.016-0.757,0.276-0.94,0.875l-1.717,0.159c-0.184-0.26-0.29-0.61-0.315-1.046
				c-0.01-0.149-0.009-0.368,0-0.655c0.007-0.287,0.009-0.504,0-0.655c-0.025-0.449-0.132-0.805-0.315-1.066l-0.518,0.294
				c-0.206-0.083-0.315-0.206-0.325-0.369c-0.003-0.055,0.004-0.133,0.025-0.237c0.02-0.104,0.027-0.176,0.023-0.217
				c-0.01-0.176-0.168-0.284-0.475-0.321c-0.211,1.938-0.272,3.93-0.188,5.971c0.055,0.066,0.219,0.112,0.49,0.136
				c0.222,0.028,0.335,0.098,0.342,0.207c0.003,0.041-0.009,0.094-0.042,0.165l-0.169,0.133c0.093,0.145,0.147,0.347,0.163,0.606
				c0.006,0.135,0.002,0.345-0.016,0.625c-0.02,0.28-0.023,0.49-0.016,0.625c0.025,0.408,0.126,0.718,0.31,0.925
				c-0.018,0.3,0.104,0.505,0.364,0.613c0.167-0.065,0.315-0.1,0.451-0.108c0.522-0.029,0.888,0.255,1.091,0.861
				c0,0.012-0.001,0.114-0.007,0.306c0.006,0.108,0.06,0.181,0.164,0.215c0.229-0.136,0.343-0.383,0.34-0.736
				c-0.007-0.41,0.046-0.673,0.155-0.789c-0.026-0.188-0.14-0.462-0.338-0.819c-0.199-0.357-0.304-0.639-0.317-0.842
				c-0.012-0.218,0.053-0.427,0.193-0.626c-0.12-0.034-0.176-0.112-0.166-0.236c0.007-0.191,0.007-0.293,0.007-0.308
				C73.853,92.02,74.801,92.013,75.763,92.229z"></path>
			<path d="M83.535,93.829h-0.021c-0.099,0.197-0.13,0.48-0.095,0.844c0.047,0.518,0.071,0.784,0.071,0.796
				c-0.077,0.029-0.184-0.01-0.313-0.115c-0.201,0.076-0.297,0.202-0.284,0.379c0,0.024,0.012,0.069,0.028,0.131
				c0.004,0.074,0.009,0.126,0.01,0.152c0.008,0.138-0.033,0.242-0.124,0.311c-0.228-0.125-0.528-0.207-0.898-0.241
				c-0.373-0.037-0.727-0.07-1.059-0.102c-0.006-1.726-0.237-3.417-0.694-5.066c0,0.012-0.01-0.157-0.031-0.513
				c0.002-0.254-0.056-0.434-0.172-0.542l-0.157,0.141c-0.002-0.024,0.051-0.075,0.157-0.151c0.104-0.075,0.156-0.152,0.153-0.228
				c-0.005-0.037-0.015-0.075-0.032-0.112L79.9,89.39c-0.293,0.094-0.429,0.331-0.407,0.71c0.016,0.254-0.087,0.432-0.298,0.534
				c0.081,0.057,0.123,0.132,0.13,0.219c0.004,0.051-0.004,0.123-0.024,0.212c-0.019,0.09-0.026,0.161-0.024,0.211
				c0.008,0.112,0.069,0.204,0.182,0.275c0.006,0.076,0.045,0.758,0.118,2.05c0.051,0.824,0.027,1.524-0.063,2.098l0.018,0.324
				c-0.113-0.007-0.239-0.005-0.378,0.002c-0.158,0.012-0.386,0.033-0.683,0.068c-0.296,0.037-0.515,0.061-0.656,0.068
				c-0.58,0.031-0.987-0.065-1.223-0.293l-0.244-7.091c-0.114-0.347-0.19-0.832-0.227-1.454l-0.077-1.367
				c-0.057-0.67-0.142-1.186-0.258-1.546c0.049-0.246,0.263-0.379,0.64-0.399c0.233-0.014,0.551,0.018,0.95,0.097
				c0.184-0.088,0.44-0.14,0.771-0.16c0.093-0.005,0.242-0.007,0.447-0.007c0.221-0.012,0.377-0.021,0.471-0.028
				c0.611-0.036,1.019-0.224,1.22-0.566c0.284-0.003,0.592,0.085,0.926,0.27c0.332,0.184,0.627,0.282,0.877,0.291
				c0.669,0.394,1.028,1.046,1.083,1.958c0.012,0.203-0.067,1.006-0.236,2.414l-1.147,1c0.193,0.36,0.43,1.138,0.702,2.34
				C82.72,92.624,83.066,93.359,83.535,93.829z M81.417,85.759l0.023,0.017c0.021,0.087,0.01-0.223-0.031-0.932
				c-0.021-0.341-0.145-0.586-0.373-0.74c-0.132,0.186,0.016,0.273-0.045,0.702c-0.062,0.429-0.314,0.308-0.463,0.494
				c-0.395-0.002-0.483,0.237-0.566-0.139c-0.178-0.613-0.33-0.558-0.331-0.57l-0.169,0.101c-0.059,0.054-0.127,0.116-0.201,0.183
				c-0.076,0.069-0.15,0.092-0.231,0.071c0.005,0.076-0.032,0.196-0.109,0.36c-0.078,0.164-0.114,0.276-0.109,0.339
				c0.007,0.114,0.096,0.196,0.271,0.251c-0.03,0.256-0.038,0.523-0.022,0.801c0.01,0.152,0.045,0.499,0.108,1.042
				c0.071,0.429,0.101,0.794,0.085,1.099c0.144,0.006,0.277,0.006,0.403-0.003c0.552-0.031,0.907-0.25,1.071-0.653
				c0.057-0.117,0.121-0.541,0.188-1.269C80.979,86.362,81.145,85.978,81.417,85.759z"></path>
			<path d="M92.455,96.581c-0.225-0.063-0.463-0.087-0.715-0.072c-0.218,0.012-0.515,0.066-0.887,0.166
				c-0.422,0.1-0.708,0.16-0.865,0.183c-0.188-0.256-0.334-0.614-0.439-1.079c-0.182-0.675-0.292-1.055-0.327-1.144
				c0.045-0.078,0.062-0.143,0.061-0.194c-0.01-0.137-0.155-0.253-0.435-0.344c-0.282-0.092-0.424-0.17-0.427-0.235
				c-0.004-0.075,0.145-0.198,0.452-0.368c-0.084-0.072-0.15-0.222-0.203-0.455c-0.054-0.233-0.137-0.384-0.251-0.453
				c-0.18,0.15-0.484,0.262-0.916,0.33c-0.428,0.068-0.71,0.144-0.848,0.229c0.089,0.986,0,2.717-0.39,3.082
				c-0.22-0.025-0.381,0.054-0.481,0.238c-0.144,0.224-0.271,0.359-0.378,0.404l0.147,0.124c-0.12,0.095-0.321,0.146-0.604,0.15
				c-0.441,0.014-0.676,0.021-0.707,0.022l-0.162-0.335l0.661-11.403c-0.036-0.646-0.03-1.084,0.021-1.315
				c-0.066-0.568,0.071-0.932,0.408-1.091c0.227,0.102,0.503,0.142,0.834,0.122c0.265-0.016,0.682-0.09,1.238-0.225
				c0.559-0.133,0.949-0.207,1.168-0.22c0.771-0.045,1.142,0.379,1.115,1.269c-0.023,0.712,0.188,1.633,0.633,2.764
				c0.462,1.216,0.713,2.137,0.749,2.757c0.012,0.189,0.263,0.592,0.26,0.782c-0.323,0.172-0.742,0.291-1.257,0.36
				c-0.453,0.052-0.913,0.104-1.386,0.157c-0.195-0.955-0.641-2.115-0.839-3.055c-0.236-1.128-0.496-2.052-0.774-2.775l-0.297,5.466
				c-0.02,0.471,0.261,0.691,0.842,0.654c0.189-0.009,0.365-0.058,0.536-0.144c0.139-0.046,0.339,0.026,0.602,0.213
				c0.022,0.393,0.138,0.622,0.347,0.683c0.244-0.152,0.565-0.304,0.966-0.457c0.354-0.133,0.703-0.261,1.042-0.382
				c0.217,0.203,0.367,0.517,0.457,0.945c0.111,0.601,0.188,0.953,0.226,1.052c0.045,0.239,0.207,0.75,0.49,1.534
				c0.209,0.624,0.325,1.129,0.349,1.522C92.481,96.237,92.477,96.414,92.455,96.581z"></path>
			<path d="M98.957,83.647l0.025-0.001c-0.19,0.278-0.43,0.33-0.724,0.157c-0.064-0.01-0.347,0.008-0.849,0.048
				c-0.424,0.025-0.731,0.005-0.925-0.061c-0.047,0.003-0.14,0.05-0.277,0.14c-0.136,0.091-0.233,0.138-0.298,0.142
				c-0.093,0.006-0.147-0.074-0.154-0.238c-0.003-0.027-0.008-0.132-0.021-0.323c-0.007-0.126-0.067-0.212-0.18-0.256l-0.292,0.226
				c-0.094,0.07-0.135,0.141-0.13,0.218c0.002,0.063,0.057,0.151,0.159,0.266c0.099,0.116,0.156,0.199,0.176,0.247
				c0.004,0.038,0.036,0.608,0.099,1.71c0.025,0.698,0.153,1.254,0.383,1.672c0.059-0.066,0.2-0.103,0.43-0.11
				c0.227-0.005,0.378-0.059,0.451-0.15c0.149,0.133,0.399,0.14,0.748,0.023c0.346-0.115,0.598-0.076,0.751,0.118l-0.045,1.679
				c-0.143-0.016-0.353-0.086-0.627-0.211c-0.079,0.247-0.236,0.401-0.469,0.466c-0.095,0.032-0.36,0.058-0.799,0.085
				c0.011-0.079-0.056-0.156-0.204-0.235c-0.427,0.203-0.588,0.688-0.481,1.455c0.01-0.075,0.027,0.056,0.046,0.399
				c0.012,0.214-0.032,0.369-0.137,0.463c-0.268,0.041-0.604-0.019-1.015-0.178c-0.41-0.162-0.704-0.237-0.877-0.226
				c-0.077,0.004-0.148,0.015-0.211,0.031l-0.439,0.14l-0.707-7.674l-0.083-1.46c0.587-0.2,1.312-0.325,2.176-0.375
				c0.676-0.038,1.559-0.034,2.646,0.018c0.071-0.144,0.199,0.044,0.358,0.034c0.077-0.004,0.195,0.004,0.354,0.027
				c0.159,0.021,0.279,0.031,0.356,0.026c0.097-0.007,0.183-0.023,0.258-0.054l0.112-0.12c0.319,0.094,0.487,0.264,0.5,0.503
				c0.007,0.103-0.024,0.274-0.09,0.521c-0.063,0.244-0.091,0.43-0.084,0.557C98.876,83.462,98.906,83.562,98.957,83.647z
				 M96.202,96.451c-0.168,0.087-0.426,0.139-0.771,0.161c-0.455,0.025-0.729,0.048-0.822,0.067c-0.051-0.049-0.11-0.009-0.213-0.41
				c-0.063-0.263-0.229-0.388-0.494-0.371c-0.063,0.004-0.139,0.014-0.234,0.034l-0.423,0.022l-0.228-3.883
				c0.231-0.114,0.518-0.183,0.864-0.203c0.33-0.02,0.622,0.015,0.88,0.102c-0.007,0.14,0.193,0.2,0.601,0.175l0.447-0.027
				C96.077,93.207,96.238,95.18,96.202,96.451z"></path>
			<path d="M108.374,83.979l0.025,0.017c-0.223-0.013-0.933,0.035-1.48,0.105c-0.469,0.052-0.823,0.062-1.062,0.023
				c-0.229,0.152-0.31,0.362-0.247,0.625l0.145,0.087c-0.118,0.108-0.16,0.193-0.126,0.255l0.126,0.125
				c-0.026,2.252-0.032,3.495-0.02,3.737c0.033,0.594,0.105,1.117,0.208,1.568c-0.094,0.287-0.13,0.612-0.107,0.979
				c0.014,0.24,0.072,0.622,0.173,1.142c0.102,0.522,0.234,2.232,0.252,2.5c0.011,0.201,0.006,0.392-0.017,0.571
				c-0.216,0.091-0.448,0.14-0.699,0.156c-0.423,0.024-0.88-0.063-1.363-0.263c-0.058,0.053-0.126,0.111-0.199,0.173
				c-0.076,0.061-0.098,0.129-0.061,0.202c-0.154,0.048-0.372-0.016-0.647-0.188c-0.149-2.279-0.557-6.92-1.16-11.611
				c-0.211,0.191-0.601,0.033-1.007,0.082c-0.484,0.053-0.96-0.021-1.146,0.066c-0.235-0.253-0.183-0.326-0.208-0.744
				c-0.022-0.404-0.152-1.403-0.05-1.821c0.023-0.088,0.902-0.038,1.419-0.082c0.705-0.041,0.861,0.128,0.908,0.123
				c0.058-0.091,0.402-0.044,0.652-0.06c0.162,0.08,0.337-0.073,0.344,0.041c0.007,0.075,0,0.555-0.054,0.692
				c-0.055,0.135-0.081,0.235-0.077,0.3c0.01,0.151,0.117-0.072,0.375,0.016c0.283-0.004,0.573-0.015,0.869-0.031
				c0.335,0.03,0.717-0.092,0.688,0.191c0.056-0.081,0.093,0.062,0.57-0.131c0.353-0.16,0.568-0.578,0.498-0.863
				c-0.037-0.156,0.177-0.256,0.043-0.184c0.171-0.094,0.015-0.028,0.201-0.101c0.586,0.053,0.913-0.007,1.022-0.014
				c0.237-0.014,0.82,0.139,0.988,0.053c0.122,0.221,0.184,0.914,0.19,1.294C108.36,83.618,108.372,83.942,108.374,83.979z"></path>
			<path d="M116.005,91.904l-0.003-0.019c-0.085,0.17-0.127,0.365-0.128,0.579c-0.013,0.141,0.001,0.336,0.032,0.589
				c0.031,0.289,0.05,0.494,0.058,0.607c-0.125,0.006-0.629,0.036-1.508,0.087c-0.531,0.031-1.01,0.103-1.428,0.217l-0.469-0.354
				c-0.12,0.108-0.161,0.193-0.128,0.255c-0.077-0.008-0.44,0.013-1.084,0.063c-0.502,0.029-0.881,0.013-1.137-0.05
				c-0.237,0.229-0.535,0.25-0.894,0.053c-0.13-0.067-0.153-0.198-0.07-0.385c0.086-0.191,0.045-0.324-0.118-0.405
				c-0.008-0.405,0.012-1.034,0.057-1.889c0.052-0.764,0.062-1.36,0.036-1.793c-0.032-0.582-0.128-1.135-0.282-1.661
				c0.163-0.147,0.356-0.229,0.573-0.241c0.254-0.015,0.555,0.063,0.913,0.234c0.504,0.235,0.761,0.356,0.776,0.356l0.148,0.122
				c0.014-0.038,0.08-0.245,0.2-0.62c0.065-0.245,0.174-0.41,0.327-0.495l0.147,0.104c0.062-0.028,0.26-0.158,0.592-0.394
				c0.258-0.17,0.434-0.784,0.592-0.793c0.173-0.011,0.344,0.056,0.508,0.198c0.274,0.1,0.489,0.791,0.591,1.02
				c0.099,0.228,0.194,0.454,0.288,0.677c-0.706,0.067-1.287,0.095-1.744,0.083c-0.103,0.146-0.26,0.177-0.467,0.095
				c-0.211-0.083-0.357-0.058-0.446,0.074c0.013,0.228,0.038,0.639,0.073,1.233c0.016,0.533,0.039,0.95,0.071,1.254
				c0.043,0.468,0.116,0.895,0.215,1.282c0.128-0.007,0.725-0.041,1.791-0.104C114.826,91.84,115.465,91.847,116.005,91.904z
				 M115.275,82.971c-0.142,0.021-0.298,0.036-0.471,0.046c-0.361,0.02-0.84,0.01-1.444-0.031c-0.741-0.033-1.192-0.051-1.348-0.055
				c-0.204,0.279-0.231,0.506-0.204,0.986c0.06,1.038,0.095,1.488,0.103,1.346c0.224,0.088,0.346,0.273,0.361,0.551
				c0.007,0.38,0.018,0.576,0.035,0.588c-0.108,0.045-0.156,0.173-0.143,0.389c-0.175-0.038-0.364-0.131-0.561-0.272
				c-0.263-0.175-0.344,0.448-0.338,0.281l-0.118,0.385l-0.149-0.104c-0.124,0.019-0.343-0.017-0.656-0.114
				c-0.313-0.096-0.534-0.193-0.665-0.286c-0.013-0.203,0.019-0.32,0.098-0.35l-0.323-0.248l-0.13,0.18
				c-0.28-1.304-0.468-3.604-0.359-5.005c0.6,0.041,1.303-0.064,2.024-0.095c0.486-0.016,1.171-0.054,2.051-0.117
				c1-0.071,1.724-0.118,2.161-0.145c0.198,0.127,0.305,0.306,0.315,0.532c0.008,0.141-0.021,0.367-0.091,0.681
				C115.354,82.432,115.266,82.818,115.275,82.971z"></path>
			<path d="M123.839,90.555l-0.022,0.002c-0.1,0.196-0.132,0.478-0.096,0.845c0.046,0.517,0.07,0.783,0.07,0.795
				c-0.078,0.029-0.183-0.007-0.314-0.116c-0.201,0.075-0.296,0.203-0.286,0.378c0.004,0.026,0.013,0.068,0.031,0.132
				c0.006,0.075,0.007,0.127,0.012,0.152c0.008,0.139-0.035,0.243-0.124,0.312c-0.229-0.127-0.53-0.207-0.902-0.242
				c-0.372-0.035-0.725-0.069-1.056-0.101c-0.007-1.726-0.239-3.414-0.694-5.063c0,0.013-0.012-0.16-0.03-0.515
				c0-0.252-0.057-0.435-0.175-0.541l-0.156,0.143c0-0.025,0.05-0.077,0.156-0.152c0.106-0.077,0.158-0.153,0.153-0.229
				c-0.004-0.038-0.014-0.075-0.031-0.112l-0.172-0.125c-0.295,0.095-0.431,0.331-0.407,0.71c0.014,0.254-0.087,0.432-0.3,0.532
				c0.079,0.06,0.126,0.134,0.132,0.221c0.002,0.05-0.008,0.121-0.025,0.211c-0.018,0.09-0.027,0.16-0.023,0.211
				c0.006,0.114,0.068,0.207,0.183,0.276c0.004,0.076,0.042,0.758,0.117,2.049c0.049,0.824,0.025,1.524-0.067,2.1l0.02,0.323
				c-0.11-0.007-0.236-0.007-0.377,0.002c-0.157,0.01-0.386,0.032-0.682,0.068c-0.299,0.036-0.516,0.059-0.659,0.068
				c-0.578,0.032-0.986-0.064-1.219-0.293l-0.248-7.092c-0.114-0.348-0.188-0.833-0.225-1.452l-0.081-1.368
				c-0.054-0.669-0.138-1.186-0.254-1.547c0.049-0.244,0.262-0.378,0.637-0.399c0.238-0.013,0.554,0.019,0.953,0.097
				c0.184-0.087,0.441-0.141,0.768-0.159c0.098-0.006,0.244-0.008,0.45-0.008c0.22-0.012,0.377-0.021,0.47-0.028
				c0.614-0.034,1.02-0.224,1.222-0.564c0.282-0.003,0.59,0.084,0.923,0.268c0.335,0.185,0.628,0.282,0.884,0.293
				c0.666,0.394,1.027,1.044,1.079,1.957c0.012,0.202-0.066,1.007-0.237,2.415l-1.15,0.998c0.197,0.358,0.43,1.139,0.705,2.341
				C123.019,89.352,123.37,90.086,123.839,90.555z M121.715,82.487l0.025,0.019c0.021,0.087,0.01-0.224-0.029-0.933
				c-0.021-0.342-0.146-0.588-0.375-0.739c-0.13,0.184-0.154-0.247-0.215,0.182c-0.062,0.429-0.168,0.738-0.312,0.923
				c-0.395-0.001-0.485-0.236-0.721-0.565c-0.146-0.21-0.219-0.027-0.219-0.041l-0.105,0.087c-0.061,0.055-0.127,0.116-0.202,0.185
				c-0.075,0.067-0.152,0.091-0.231,0.07c0.003,0.074-0.033,0.196-0.11,0.359c-0.076,0.163-0.112,0.276-0.111,0.339
				c0.009,0.113,0.1,0.198,0.275,0.25c-0.032,0.257-0.041,0.524-0.025,0.802c0.01,0.151,0.045,0.499,0.109,1.042
				c0.071,0.427,0.102,0.792,0.087,1.098c0.143,0.005,0.274,0.003,0.402-0.003c0.55-0.031,0.907-0.25,1.07-0.654
				c0.056-0.117,0.12-0.54,0.188-1.268C121.277,83.09,121.446,82.706,121.715,82.487z"></path>
		</g>
		<g>
			<path d="M45.755,57.848v0.017c-0.069,0.658-0.094,1.114-0.069,1.365c-0.101,0.04-0.232,0.046-0.395,0.019
				c-0.208-0.036-0.328-0.052-0.364-0.049c-0.091,0.005-0.162,0.037-0.217,0.097c-0.132-0.086-0.219-0.122-0.264-0.108
				c-0.123,0.075-0.18,0.181-0.176,0.32c0.006,0.058,0.027,0.157,0.069,0.297c0.041,0.143,0.064,0.247,0.066,0.314
				c0.003,0.092-0.014,0.237-0.054,0.434c-0.043,0.196-0.061,0.359-0.055,0.485c0.01,0.148,0.039,0.382,0.097,0.703
				c0.056,0.316,0.087,0.558,0.097,0.718c-0.065,0.313-0.091,0.631-0.073,0.951c0.019,0.39,0.126,0.914,0.319,1.57
				c0.034,0.01,0.069,0.013,0.104,0.012c0.079-0.004,0.174-0.062,0.284-0.169c0.108-0.109,0.201-0.166,0.282-0.17
				c0.059-0.002,0.12,0.012,0.189,0.042c0.208,0.667,0.314,1.098,0.325,1.293c0.005,0.093,0.003,0.189-0.001,0.292
				c-0.309,0.075-0.525-0.031-0.652-0.31c0.018-0.081-0.027-0.166-0.134-0.252l-0.343,0.362c0.335,0.051,0.467,0.31,0.4,0.772
				c-0.03,0.093-0.103,0.144-0.217,0.148c-0.195-0.001-0.286-0.003-0.275-0.003l-0.282-0.502l-0.115,0.143
				c-0.093-0.237-0.203-0.353-0.326-0.346c-0.07,0.005-0.189,0.062-0.362,0.172c-0.17,0.113-0.315,0.174-0.43,0.177
				c-0.091,0.005-0.182-0.018-0.279-0.071c-0.005-0.138-0.021-0.28-0.046-0.428c-0.025-0.148-0.103-0.241-0.23-0.282
				c-0.007-0.355,0.006-1.291,0.031-2.809c0.012-1.15,0-2.079-0.038-2.788c-0.015-0.299-0.034-0.592-0.059-0.877
				c-0.062-0.089-0.122-0.132-0.178-0.13c-0.049,0.003-0.116,0.053-0.21,0.15c-0.091,0.096-0.174,0.14-0.242,0.133
				c-0.005-0.116-0.058-0.299-0.157-0.554c-0.098-0.253-0.15-0.437-0.156-0.552c-0.01-0.196,0.062-0.366,0.216-0.512l0.399,0.103
				c0.163-0.228,0.228-0.61,0.2-1.149c-0.004-0.1-0.02-0.266-0.041-0.488c-0.022-0.223-0.036-0.387-0.043-0.489
				c-0.042-0.883,0.228-1.338,0.81-1.368c0.217-0.011,0.482,0.028,0.795,0.115l0.386,0.102c0.029,0.148,0.049,0.301,0.057,0.461
				c0.012,0.219,0.002,0.538-0.027,0.958c-0.033,0.422-0.043,0.73-0.033,0.923c0.016,0.31,0.069,0.589,0.163,0.835
				c0.093-0.004,0.236-0.053,0.432-0.15c0.195-0.096,0.339-0.146,0.432-0.15C45.524,57.618,45.654,57.693,45.755,57.848z
				 M44.562,59.08l-0.022-0.395l-0.123-0.115L44.562,59.08z"></path>
			<path d="M50.471,56.61l0.018-0.002c-0.041,0.312-0.09,0.625-0.142,0.939c-0.062,0.359-0.163,0.64-0.302,0.842
				c-0.023-0.009-0.165-0.078-0.422-0.202c-0.177-0.094-0.335-0.132-0.471-0.115c-0.104,0.674-0.158,1.589-0.17,2.749
				c-0.008,1.483-0.021,2.378-0.037,2.689c-0.173-0.014-0.303,0.042-0.387,0.167c-0.087,0.125-0.167,0.253-0.238,0.382
				c-0.033,0.071-0.047,0.134-0.042,0.191c0.001,0.092,0.082,0.182,0.235,0.263c0.152,0.086,0.232,0.18,0.236,0.284
				c-0.066,0.244-0.21,0.371-0.429,0.382c-0.1,0.005-0.28-0.025-0.535-0.094c-0.256-0.067-0.435-0.098-0.541-0.092l-0.244-4.917
				c0.097-0.131,0.137-0.218,0.124-0.263l-0.141-0.098c0.01-0.205,0.021-1.235,0.033-3.085c0.004-1.252,0.052-2.267,0.139-3.041
				c-0.011,0.002,0.343-0.023,1.062-0.07c0.446-0.021,0.734,0.101,0.859,0.37c0.002,0.253-0.022,0.679-0.073,1.279
				c-0.05,0.554-0.069,0.979-0.056,1.279c0.02,0.366,0.075,0.696,0.17,0.99C49.507,56.913,49.958,56.635,50.471,56.61z
				 M52.176,57.662c0.033,0.458,0.062,0.902,0.084,1.339c0.097,1.902,0.065,3.936-0.088,6.105c-0.164,0.146-0.42,0.178-0.762,0.098
				c-0.342-0.081-0.59-0.049-0.742,0.097c-0.197-0.254-0.312-0.712-0.345-1.377c-0.048-0.962-0.073-1.461-0.075-1.496
				c-0.043-2.41,0.193-4.358,0.704-5.842C51.543,56.74,51.951,57.099,52.176,57.662z"></path>
			<path d="M58.194,60.157c-0.074,0.154-0.106,0.316-0.098,0.489c0.009,0.171,0.019,0.335,0.027,0.498
				c-0.019,0.138-0.056,0.278-0.117,0.418c-0.104-0.028-0.192-0.042-0.26-0.038c-0.081,0.004-0.162,0.033-0.246,0.091
				c-0.083,0.056-0.147,0.085-0.193,0.085c-0.068,0.005-0.16-0.02-0.278-0.071l-0.796-1.167c0.027,0.343,0.104,0.643,0.232,0.902
				c0.063,0.134,0.128,0.269,0.191,0.403c-0.465,0.081-0.728,0.094-0.79,0.039l-0.112,0.146l-0.275-0.366
				c-0.216,0.264-0.265,0.651-0.148,1.162c0.146,0.555,0.151,0.957,0.027,1.205c0.172,0.256,0.379,0.375,0.619,0.364
				c0.104-0.004,0.193-0.045,0.27-0.117c0.112-0.282,0.225-0.562,0.336-0.843c0.167-0.34,0.353-0.518,0.559-0.528
				c0.16-0.008,0.348,0.076,0.563,0.247c0.257,0.089,0.389,0.211,0.396,0.359c0.004,0.092-0.055,0.241-0.176,0.447
				c-0.122,0.209-0.179,0.369-0.173,0.484c0.002,0.046,0.01,0.085,0.021,0.12c-0.167,0.124-0.313,0.31-0.443,0.557
				c-0.132,0.248-0.304,0.417-0.518,0.508c-0.185,0.183-0.359,0.275-0.519,0.284c-0.125,0.008-0.313-0.09-0.564-0.289
				c-0.251-0.199-0.484-0.294-0.703-0.284c-0.089-0.202-0.312-0.426-0.669-0.674c-0.356-0.244-0.575-0.51-0.659-0.793
				c0.002,0.023-0.004-0.067-0.012-0.275c-0.007-0.114-0.058-0.186-0.148-0.216l0.13-0.127c-0.175-0.003-0.264-0.102-0.273-0.297
				c-0.002-0.022-0.004-0.069-0.006-0.138c0.008-0.059,0.012-0.103,0.01-0.137c-0.008-0.138-0.053-0.233-0.136-0.289l-0.029-0.6
				c-0.016-0.311-0.079-0.53-0.19-0.663c0.112-0.729,0.227-1.459,0.34-2.187c0.184-0.849,0.46-1.282,0.827-1.3
				c0.057-0.003,0.114,0.006,0.173,0.024c0.327-0.326,0.726-0.501,1.194-0.524c0.515-0.026,1.084,0.129,1.709,0.466
				C57.774,58.335,58.078,59.211,58.194,60.157z M55.828,58.26l-0.111,0.145c-0.08,0.016-0.175-0.025-0.283-0.125l0.021,0.396
				c-0.176,0.191-0.246,0.487-0.215,0.89c0.034,0.687,0.053,1.02,0.05,0.997l0.516-0.009c0.246-0.138,0.36-0.369,0.345-0.688
				c-0.01-0.162-0.064-0.424-0.171-0.792C55.877,58.705,55.826,58.435,55.828,58.26z"></path>
		</g>
		<g>
			<polygon fill-rule="evenodd" clip-rule="evenodd" points="62.223,77.499 62.735,77.794 64.466,73.234 63.89,73.04 62.157,77.602 
				62.662,77.923 62.223,77.499 62.223,77.499 			"></polygon>
			<polygon fill-rule="evenodd" clip-rule="evenodd" points="62.981,76.868 62.772,76.949 62.223,77.499 62.662,77.923 
				63.22,77.344 63.001,77.454 62.981,76.868 62.981,76.868 			"></polygon>
			<polygon fill-rule="evenodd" clip-rule="evenodd" points="67.177,76.831 67.423,76.639 62.981,76.868 63.001,77.454 
				67.443,77.228 67.727,77.016 67.177,76.831 67.177,76.831 67.177,76.831 			"></polygon>
			<polygon fill-rule="evenodd" clip-rule="evenodd" points="69.184,72.64 68.88,72.262 67.177,76.831 67.727,77.016 69.459,72.455 
				69.156,72.081 69.184,72.64 69.184,72.64 69.184,72.64 			"></polygon>
			<polygon fill-rule="evenodd" clip-rule="evenodd" points="64.952,72.785 64.73,72.896 69.184,72.64 69.156,72.081 64.724,72.28 
				64.503,72.388 64.952,72.785 64.952,72.785 64.952,72.785 			"></polygon>
			<polygon fill-rule="evenodd" clip-rule="evenodd" points="64.466,73.234 64.404,73.335 64.952,72.785 64.503,72.388 
				63.953,72.94 63.89,73.04 64.466,73.234 64.466,73.234 64.466,73.234 			"></polygon>
			<polygon fill-rule="evenodd" clip-rule="evenodd" points="68.155,77.373 68.551,77.199 67.599,76.668 67.296,77.207 
				68.275,77.749 68.705,77.557 68.129,77.365 68.129,77.365 68.155,77.373 			"></polygon>
			<polygon fill-rule="evenodd" clip-rule="evenodd" points="70.016,73.164 69.86,72.805 68.129,77.365 68.705,77.557 
				70.438,72.997 70.281,72.64 70.016,73.164 70.016,73.164 			"></polygon>
			<polygon fill-rule="evenodd" clip-rule="evenodd" points="69.459,72.455 69.028,72.648 70.016,73.164 70.281,72.64 
				69.331,72.108 68.88,72.262 69.459,72.455 69.459,72.455 			"></polygon>
			<polygon points="64.193,73.142 64.165,73.133 64.714,72.581 68.837,72.381 68.88,72.262 69.184,72.363 69.459,72.455 
				69.438,72.506 70.163,72.906 70.438,72.997 70.325,73.294 72.341,78.099 70.637,82.667 68.431,77.465 68.431,77.465 
				68.148,77.584 68.129,77.365 68.15,77.31 67.455,76.924 67.296,77.207 67.209,76.936 62.981,77.143 62.432,77.692 			"></polygon>
			<polygon fill-rule="evenodd" clip-rule="evenodd" points="70.361,82.575 70.922,82.549 68.715,77.347 68.148,77.584 
				70.353,82.787 70.911,82.76 70.335,82.566 70.335,82.566 70.361,82.575 			"></polygon>
			<polygon fill-rule="evenodd" clip-rule="evenodd" points="72.085,78.229 72.065,78.007 70.335,82.566 70.911,82.76 
				72.645,78.202 72.625,77.981 72.085,78.229 72.085,78.229 			"></polygon>
			<polygon fill-rule="evenodd" clip-rule="evenodd" points="70.438,72.997 69.878,73.025 72.085,78.229 72.625,77.981 
				70.419,72.777 69.86,72.805 70.438,72.997 70.438,72.997 			"></polygon>
			<polygon fill-rule="evenodd" clip-rule="evenodd" fill="#FFFFFF" points="70.291,74.172 70.538,74.714 70.629,75.265 
				70.603,75.806 70.446,76.365 70.173,76.915 69.795,77.401 69.311,77.851 68.723,78.237 68.403,78.374 68.084,78.511 
				67.724,78.574 67.396,78.649 67.075,78.694 66.729,78.73 66.405,78.685 66.076,78.666 65.794,78.602 65.492,78.501 
				65.198,78.372 64.942,78.224 64.722,78.06 64.476,77.886 64.274,77.666 64.109,77.426 63.86,76.886 63.769,76.336 63.769,75.785 
				63.953,75.235 64.193,74.702 64.576,74.188 65.062,73.739 65.676,73.362 65.968,73.217 66.316,73.087 66.646,73.014 
				66.977,72.942 67.323,72.905 67.645,72.859 67.964,72.905 68.294,72.924 68.598,73.024 68.898,73.125 69.172,73.218 
				69.457,73.373 69.687,73.511 69.925,73.712 70.09,73.952 70.291,74.172 70.291,74.172 70.291,74.172 			"></polygon>
			<polygon fill-rule="evenodd" clip-rule="evenodd" points="70.51,75.071 70.759,75.613 70.841,76.191 70.813,76.733 
				70.666,77.264 70.419,77.824 70.006,78.327 69.557,78.759 68.943,79.134 68.614,79.301 68.293,79.438 67.964,79.511 
				67.605,79.576 67.286,79.62 66.977,79.64 66.646,79.62 66.297,79.566 66.013,79.5 65.711,79.399 65.445,79.28 65.161,79.124 
				64.933,78.987 64.722,78.793 64.511,78.601 64.328,78.326 64.071,77.812 63.98,77.26 64.018,76.692 64.164,76.161 64.409,75.602 
				64.787,75.115 65.271,74.665 65.885,74.289 66.215,74.124 66.525,74.014 66.867,73.914 67.225,73.849 67.534,73.831 
				67.854,73.787 68.177,73.831 68.504,73.849 68.817,73.924 69.117,74.023 69.385,74.144 69.678,74.272 69.896,74.438 
				70.144,74.611 70.309,74.852 70.502,75.098 70.502,75.098 70.51,75.071 			"></polygon>
			<polygon fill-rule="evenodd" clip-rule="evenodd" fill="#FFFFFF" points="70.666,75.704 70.924,76.218 71.005,76.797 
				70.976,77.338 70.831,77.869 70.556,78.42 70.171,78.934 69.722,79.364 69.107,79.741 68.807,79.914 68.46,80.044 68.126,80.116 
				67.77,80.18 67.451,80.226 67.139,80.245 66.81,80.226 66.461,80.172 66.177,80.107 65.875,80.006 65.61,79.887 65.328,79.731 
				65.097,79.591 64.858,79.39 64.685,79.181 64.494,78.932 64.237,78.419 64.145,77.867 64.172,77.326 64.328,76.767 
				64.576,76.206 64.959,75.692 65.463,75.279 66.052,74.896 66.38,74.73 66.702,74.592 67.031,74.519 67.387,74.456 67.708,74.409 
				68.02,74.39 68.376,74.418 68.67,74.456 68.982,74.53 69.284,74.629 69.576,74.759 69.834,74.907 70.062,75.043 70.309,75.218 
				70.473,75.456 70.666,75.704 70.666,75.704 			"></polygon>
			<polygon fill-rule="evenodd" clip-rule="evenodd" points="70.885,76.603 71.133,77.146 71.224,77.696 71.224,78.247 
				71.04,78.796 70.802,79.329 70.392,79.834 69.933,80.291 69.319,80.667 69.026,80.814 68.679,80.942 68.348,81.016 68.02,81.089 
				67.67,81.126 67.348,81.17 67.028,81.126 66.7,81.108 66.388,81.034 66.084,80.933 65.819,80.812 65.537,80.657 65.318,80.493 
				65.097,80.327 64.896,80.105 64.704,79.858 64.483,79.327 64.366,78.766 64.393,78.224 64.547,77.666 64.814,77.143 
				65.199,76.628 65.684,76.179 66.271,75.794 66.589,75.657 66.912,75.52 67.269,75.454 67.599,75.383 67.917,75.335 
				68.258,75.327 68.588,75.346 68.889,75.355 69.201,75.429 69.503,75.529 69.795,75.658 70.053,75.805 70.298,75.979 
				70.519,76.144 70.721,76.365 70.875,76.632 70.875,76.632 70.885,76.603 			"></polygon>
			<polygon fill-rule="evenodd" clip-rule="evenodd" fill="#FFFFFF" points="71.206,77.199 71.461,77.713 71.553,78.265 
				71.545,78.843 71.396,79.374 71.123,79.925 70.711,80.43 70.262,80.86 69.675,81.246 69.346,81.41 68.997,81.54 68.669,81.614 
				68.337,81.685 67.991,81.723 67.679,81.741 67.348,81.723 67.028,81.677 66.719,81.604 66.415,81.501 66.15,81.381 
				65.885,81.263 65.637,81.087 65.426,80.895 65.227,80.675 65.061,80.437 64.805,79.923 64.694,79.335 64.722,78.793 
				64.896,78.272 65.144,77.711 65.526,77.199 66.005,76.776 66.589,76.391 66.92,76.227 67.24,76.088 67.589,76.051 67.927,75.95 
				68.248,75.904 68.588,75.897 68.916,75.915 69.21,75.952 69.522,76.025 69.85,76.135 70.116,76.254 70.382,76.375 70.629,76.548 
				70.841,76.741 71.042,76.96 71.206,77.199 71.206,77.199 			"></polygon>
			<polygon fill-rule="evenodd" clip-rule="evenodd" points="71.454,78.108 71.673,78.64 71.793,79.2 71.764,79.742 71.608,80.301 
				71.342,80.824 70.957,81.337 70.473,81.788 69.886,82.172 69.566,82.31 69.219,82.438 68.887,82.511 68.559,82.585 68.237,82.63 
				67.891,82.667 67.569,82.622 67.24,82.602 66.955,82.538 66.627,82.429 66.361,82.309 66.104,82.161 65.858,81.988 
				65.637,81.822 65.436,81.603 65.271,81.362 65.023,80.822 64.903,80.263 64.933,79.722 65.116,79.17 65.354,78.638 65.74,78.124 
				66.224,77.676 66.837,77.299 67.131,77.153 67.48,77.024 67.809,76.95 68.139,76.877 68.486,76.842 68.807,76.796 69.127,76.842 
				69.43,76.851 69.769,76.934 70.07,77.035 70.335,77.154 70.593,77.3 70.841,77.474 71.06,77.64 71.261,77.86 71.454,78.108 
				71.454,78.108 71.454,78.108 			"></polygon>
			<polygon fill-rule="evenodd" clip-rule="evenodd" points="41.179,71.105 41.206,70.932 39.464,75.518 40.014,75.701 
				41.756,71.114 41.764,70.997 41.179,71.105 41.179,71.105 41.179,71.105 			"></polygon>
			<polygon fill-rule="evenodd" clip-rule="evenodd" points="41.133,70.877 41.143,70.849 41.179,71.105 41.764,70.997 41.7,70.73 
				41.71,70.702 41.133,70.877 41.133,70.877 41.133,70.877 			"></polygon>
			<polygon fill-rule="evenodd" clip-rule="evenodd" points="41.069,70.611 41.133,70.877 41.71,70.702 41.645,70.436 
				41.069,70.611 41.069,70.611 41.069,70.611 			"></polygon>
			<polygon fill-rule="evenodd" clip-rule="evenodd" points="40.995,70.371 41.069,70.611 41.645,70.436 41.572,70.198 
				40.995,70.371 40.995,70.371 			"></polygon>
			<polygon fill-rule="evenodd" clip-rule="evenodd" points="40.933,70.106 40.933,70.106 40.995,70.371 41.572,70.198 
				41.508,69.931 41.5,69.959 40.933,70.106 40.933,70.106 40.933,70.106 			"></polygon>
			<polygon fill-rule="evenodd" clip-rule="evenodd" points="40.86,69.775 40.86,69.868 40.933,70.106 41.5,69.959 41.427,69.719 
				41.454,69.822 40.86,69.775 40.86,69.775 			"></polygon>
			<polygon fill-rule="evenodd" clip-rule="evenodd" points="41.444,69.665 40.867,69.563 40.86,69.775 41.454,69.822 41.462,69.61 
				40.887,69.508 41.435,69.692 41.435,69.692 41.444,69.665 			"></polygon>
			<polygon fill-rule="evenodd" clip-rule="evenodd" fill="#4C4849" points="41.944,83.016 41.89,82.722 41.275,82.823 
				41.32,83.144 41.944,83.016 41.944,83.016 41.944,83.016 			"></polygon>
			<polygon fill-rule="evenodd" clip-rule="evenodd" points="43.22,79.19 43.237,79.043 41.507,83.604 42.054,83.786 43.787,79.228 
				43.777,79.071 43.22,79.19 43.22,79.19 43.22,79.19 			"></polygon>
			<polygon fill-rule="evenodd" clip-rule="evenodd" points="43.175,78.869 43.22,79.19 43.777,79.071 43.732,78.749 43.146,78.859 
				43.146,78.859 43.175,78.869 			"></polygon>
			<polygon fill-rule="evenodd" clip-rule="evenodd" points="43.092,78.564 43.146,78.859 43.732,78.749 43.649,78.447 
				43.092,78.564 43.092,78.564 43.092,78.564 			"></polygon>
			<polygon fill-rule="evenodd" clip-rule="evenodd" points="43.019,78.236 43.035,78.272 43.092,78.564 43.649,78.447 
				43.604,78.124 43.622,78.163 43.019,78.236 43.019,78.236 43.019,78.236 			"></polygon>
			<polygon fill-rule="evenodd" clip-rule="evenodd" points="43.568,77.961 42.981,77.887 43.019,78.236 43.622,78.163 
				43.575,77.841 42.989,77.769 43.568,77.961 43.568,77.961 			"></polygon>
			<g>
				<polygon fill="#4C4849" points="39.468,74.608 39.191,74.693 39.468,74.608 				"></polygon>
				<polygon fill="#4C4849" points="39.757,75.566 39.766,75.538 39.909,75.547 40.014,75.701 39.758,75.617 				"></polygon>
				<polygon points="39.125,74.427 39.419,74.371 39.43,74.16 41.17,69.574 41.16,69.601 41.16,69.785 41.206,70.013 41.299,70.291 
					41.37,70.528 41.435,70.793 41.481,71.022 41.481,71.022 41.756,71.114 40.014,75.701 39.909,75.547 39.766,75.538 
					39.757,75.566 39.758,75.617 40.014,75.701 39.761,75.686 39.766,75.895 39.59,75.675 39.446,75.665 39.41,75.407 
					39.515,75.386 39.629,75.091 39.336,75.17 39.253,74.957 39.191,74.693 39.468,74.608 39.468,74.608 39.191,74.693 
					39.198,74.665 				"></polygon>
			</g>
			<g>
				<polygon fill="none" points="53.301,75.68 53.301,75.68 53.55,75.12 				"></polygon>
				<polygon points="39.748,75.308 52.497,74.889 52.826,74.91 52.881,74.927 53.193,75.001 53.222,75.01 53.55,75.12 
					53.871,75.258 53.899,75.267 54.201,75.461 54.256,75.479 54.493,75.68 54.566,75.734 54.739,75.945 54.759,75.983 
					54.878,76.174 54.887,76.239 54.324,76.409 54.235,76.266 54.228,76.295 54.081,76.092 54.083,76.091 53.889,75.937 
					53.936,75.983 53.624,75.818 53.624,75.815 53.301,75.68 53.301,75.68 53.028,75.589 52.716,75.514 52.771,75.533 
					52.479,75.495 52.479,75.468 39.766,75.895 				"></polygon>
				<polygon points="54.312,76.415 54.324,76.409 54.355,76.46 				"></polygon>
			</g>
			<polygon fill-rule="evenodd" clip-rule="evenodd" points="61.121,87.132 61.121,86.95 59.381,91.536 59.958,91.729 
				61.698,87.143 61.698,86.959 61.121,87.132 61.121,87.132 61.121,87.132 			"></polygon>
			<polygon fill-rule="evenodd" clip-rule="evenodd" points="56.086,71.9 56.05,71.827 61.121,87.132 61.698,86.959 56.629,71.653 
				56.618,71.589 56.086,71.9 56.086,71.9 56.086,71.9 			"></polygon>
			<polygon fill-rule="evenodd" clip-rule="evenodd" points="55.987,71.746 55.97,71.708 56.086,71.9 56.618,71.589 56.501,71.395 
				56.474,71.387 55.958,71.736 55.958,71.736 55.987,71.746 			"></polygon>
			<polygon fill-rule="evenodd" clip-rule="evenodd" points="55.867,71.551 55.821,71.506 55.958,71.736 56.474,71.387 
				56.28,71.138 56.233,71.092 55.867,71.551 55.867,71.551 55.867,71.551 			"></polygon>
			<polygon fill-rule="evenodd" clip-rule="evenodd" points="55.667,71.424 55.62,71.378 55.867,71.551 56.233,71.092 
				55.987,70.919 55.941,70.873 55.667,71.424 55.667,71.424 			"></polygon>
			<polygon fill-rule="evenodd" clip-rule="evenodd" points="55.391,71.239 55.364,71.23 55.667,71.424 55.941,70.873 55.63,70.707 
				55.603,70.698 55.391,71.239 55.391,71.239 			"></polygon>
			<polygon fill-rule="evenodd" clip-rule="evenodd" points="55.099,71.11 55.033,71.119 55.391,71.239 55.603,70.698 
				55.281,70.561 55.254,70.551 55.062,71.129 55.062,71.129 55.099,71.11 			"></polygon>
			<polygon fill-rule="evenodd" clip-rule="evenodd" points="54.769,71.001 54.731,71.019 55.062,71.129 55.254,70.551 
				54.925,70.441 54.925,70.441 54.759,71.028 54.759,71.028 54.769,71.001 			"></polygon>
			<polygon fill-rule="evenodd" clip-rule="evenodd" points="54.513,70.946 54.458,70.929 54.759,71.028 54.925,70.441 
				54.584,70.358 54.557,70.35 54.513,70.946 54.513,70.946 54.513,70.946 			"></polygon>
			<polygon fill-rule="evenodd" clip-rule="evenodd" points="54.219,70.908 54.21,70.936 54.513,70.946 54.557,70.35 54.237,70.302 
				54.201,70.322 54.219,70.908 54.219,70.908 			"></polygon>
			<polygon fill-rule="evenodd" clip-rule="evenodd" points="41.783,71.123 41.472,71.326 54.219,70.908 54.201,70.322 
				41.481,70.747 41.206,70.932 41.756,71.114 41.756,71.114 41.783,71.123 			"></polygon>
			<polygon fill="#4C4849" points="44.984,85.071 44.94,85.049 44.968,85.034 			"></polygon>
			<g>
				<polygon fill="#4C4849" points="51.87,87.134 51.816,87.753 51.87,87.134 				"></polygon>
				<g>
					<polygon fill="none" points="51.845,87.43 51.816,87.753 51.845,87.43 					"></polygon>
					<g>
						<polygon fill="none" points="41.515,82.464 41.533,82.422 41.545,82.478 						"></polygon>
						<path d="M41.32,83.144l0.057,0.294l0.109,0.311l0.138,0.23l0.779,0.412l0.777,0.415l0.751,0.403l0.761,0.376l0.027,0.01
							l0.771,0.348l0.768,0.349l0.833,0.341l0.842,0.311l0.029,0.01l0.896,0.239l0.898,0.24l0.027,0.008l0.989,0.147l1.017,0.156
							l0.027,0.01l1.107,0.065l0.039-0.021l1.181,0.029l1.265-0.036l1.338-0.072l0.274-0.185l1.73-4.56l-0.294-0.404l0.02,0.588
							l-0.094-0.115l0.066-0.168l-0.191,0.01l-0.084-0.103l-0.041,0.113l-0.992,0.062h-1.284l-1.181-0.029l-1.08-0.055l-1.054-0.138
							l-0.979-0.175l-0.9-0.239l-0.896-0.239l-0.843-0.312l-0.816-0.304l-0.767-0.348l-0.763-0.378l-0.786-0.385l-0.751-0.403
							l-0.752-0.405l-0.521-0.276l0.019-0.044l-0.275-0.093l0,0l-0.073-0.33l-0.055-0.295l-0.021-0.1l0.206-0.449l-0.291-0.096
							l-0.012-0.006l0,0l-0.276-0.09l-1.73,4.558l-0.02,0.147l0.046,0.321L41.32,83.144z M41.533,82.422l0.012,0.056l-0.03-0.014
							L41.533,82.422z"></path>
					</g>
				</g>
			</g>
			<polygon fill-rule="evenodd" clip-rule="evenodd" points="57.137,83.232 58.476,83.159 58.456,82.571 57.119,82.644 
				57.137,83.232 57.137,83.232 57.137,83.232 			"></polygon>
			<polygon fill-rule="evenodd" clip-rule="evenodd" points="55.875,83.269 57.137,83.232 57.119,82.644 55.855,82.681 
				55.875,83.269 55.875,83.269 55.875,83.269 			"></polygon>
			<polygon fill-rule="evenodd" clip-rule="evenodd" points="54.665,83.23 54.693,83.24 55.875,83.269 55.855,82.681 54.675,82.653 
				54.712,82.635 54.657,83.259 54.657,83.259 54.665,83.23 			"></polygon>
			<polygon fill-rule="evenodd" clip-rule="evenodd" points="53.529,83.158 53.558,83.167 54.657,83.259 54.712,82.635 
				53.604,82.57 53.63,82.58 53.529,83.158 53.529,83.158 53.529,83.158 			"></polygon>
			<polygon fill-rule="evenodd" clip-rule="evenodd" points="52.503,83.028 53.529,83.158 53.63,82.58 52.613,82.423 52.503,83.028 
				52.503,83.028 			"></polygon>
			<polygon fill-rule="evenodd" clip-rule="evenodd" points="51.497,82.845 51.523,82.854 52.503,83.028 52.613,82.423 
				51.598,82.266 51.625,82.275 51.497,82.845 51.497,82.845 51.497,82.845 			"></polygon>
			<polygon fill-rule="evenodd" clip-rule="evenodd" points="50.601,82.605 51.497,82.845 51.625,82.275 50.729,82.037 
				50.589,82.633 50.589,82.633 50.601,82.605 			"></polygon>
			<polygon fill-rule="evenodd" clip-rule="evenodd" points="49.665,82.385 49.694,82.395 50.589,82.633 50.729,82.037 
				49.83,81.797 49.858,81.807 49.665,82.385 49.665,82.385 			"></polygon>
			<polygon fill-rule="evenodd" clip-rule="evenodd" points="48.821,82.073 48.821,82.073 49.665,82.385 49.858,81.807 
				49.015,81.494 49.044,81.502 48.796,82.064 48.796,82.064 48.821,82.073 			"></polygon>
			<polygon fill-rule="evenodd" clip-rule="evenodd" points="47.988,81.733 48.796,82.064 49.044,81.502 48.239,81.171 
				47.988,81.733 47.988,81.733 			"></polygon>
			<polygon fill-rule="evenodd" clip-rule="evenodd" points="47.221,81.383 47.988,81.733 48.239,81.171 47.459,80.852 
				47.221,81.383 47.221,81.383 			"></polygon>
			<polygon fill-rule="evenodd" clip-rule="evenodd" points="46.433,80.998 46.452,81.036 47.221,81.383 47.459,80.852 
				46.671,80.466 46.698,80.476 46.423,81.026 46.423,81.026 46.433,80.998 			"></polygon>
			<polygon fill-rule="evenodd" clip-rule="evenodd" points="45.673,80.622 46.423,81.026 46.698,80.476 45.939,80.098 
				45.664,80.65 45.664,80.65 45.673,80.622 			"></polygon>
			<polygon fill-rule="evenodd" clip-rule="evenodd" points="44.921,80.219 45.664,80.65 45.939,80.098 45.188,79.695 44.894,80.21 
				44.894,80.21 44.921,80.219 			"></polygon>
			<polygon fill-rule="evenodd" clip-rule="evenodd" points="44.143,79.805 44.894,80.21 45.188,79.695 44.437,79.291 
				44.143,79.805 44.143,79.805 			"></polygon>
			<polygon fill-rule="evenodd" clip-rule="evenodd" points="43.787,79.228 43.365,79.391 44.143,79.805 44.437,79.291 
				43.659,78.878 43.237,79.043 43.787,79.228 43.787,79.228 43.787,79.228 			"></polygon>
			<polygon fill-rule="evenodd" clip-rule="evenodd" points="123.171,70.963 121.43,75.549 127.114,77.451 128.435,74.404 
				128.472,74.112 128.48,73.808 128.435,73.486 128.323,73.176 128.142,72.899 127.995,72.605 127.757,72.313 127.511,72.047 
				127.254,71.808 126.971,71.559 126.677,71.339 126.393,71.182 126.117,71.001 125.796,70.862 125.513,70.706 125.238,70.613 
				124.993,70.533 124.696,70.495 124.434,70.467 124.178,70.505 123.92,70.541 123.647,70.632 123.407,70.797 123.171,70.963 
				123.171,70.963 123.171,70.963 			"></polygon>
			<polygon fill-rule="evenodd" clip-rule="evenodd" points="126.86,77.304 127.217,77.146 121.53,75.248 121.336,75.824 
				127.023,77.725 127.408,77.58 126.86,77.304 126.86,77.304 			"></polygon>
			<g>
				<polygon fill="none" points="127.956,78.627 127.995,78.937 127.956,78.627 				"></polygon>
				<polygon fill="none" points="130.889,75.554 131.1,75.755 130.871,75.595 				"></polygon>
				<g>
					<polygon fill="none" points="131.1,75.755 130.871,75.595 130.889,75.554 					"></polygon>
					<g>
						<polygon fill="none" points="131.1,75.755 130.871,75.595 130.889,75.554 						"></polygon>
						<polygon points="39.125,74.152 39.152,74.068 40.887,69.508 41.435,69.692 39.757,74.195 39.722,74.38 39.712,74.316 
							39.125,74.427 39.117,74.363 						"></polygon>
						<g>
							<polygon fill="none" points="131.1,75.755 130.871,75.595 130.889,75.554 							"></polygon>
							<polygon fill="#4C4849" points="67.011,84.943 66.908,85.004 66.901,84.997 							"></polygon>
							<g>
								<polygon fill="none" points="67.122,85.211 67.339,85.42 67.122,85.211 								"></polygon>
								<polygon fill="none" points="131.1,75.755 130.871,75.595 130.889,75.554 								"></polygon>
								<polygon fill="none" points="59.656,91.628 59.673,91.628 59.673,91.635 59.381,91.536 59.627,91.542 								"></polygon>
								<path d="M39.336,75.17l0.064,0.266l0.01-0.029l0.443-0.094l-0.115,0.296l12.75-0.417l0.302,0.01l0.329,0.109l0.329,0.11
									l0.331,0.111l0.302,0.191l0.247,0.175l0.174,0.211l0.106,0.213l-0.297,0.091l5.069,15.306l0.296,0.005l0.007,0.188h0.456
									l0.432-0.009l0.394,0.009l0.357-0.065l0.366-0.091l0.366-0.184l0.338-0.284l0.402-0.386l0.01-0.027l0.229-0.321l0.268-0.338
									l0.302-0.359l0.211-0.357l0.266-0.431l0.274-0.368l0.229-0.411l0.292-0.422l0.238-0.348l0.339-0.378l0.276-0.366l0.32-0.322
									l0.284-0.302l0.302-0.265l0.295-0.239l0.336-0.193l0.074-0.036l-0.217-0.209l0,0l0.217,0.209l0.34-0.376l0.312-0.294
									l0.275-0.275l0.292-0.238l0.284-0.212l0.302-0.174l0.265-0.154l0.293-0.147l0.331-0.073l0.319-0.138l0.331-0.074
									l0.383-0.055l0.423-0.072l0.466-0.027l0.506-0.046l0.493-0.019l0.027,0.008l55.014-4.117l0.319-0.044l0.292-0.057
									l0.267-0.063l0.275-0.092l0.256-0.128l0.265-0.156l0.223-0.202l0.254-0.219l0.057-0.075l0.962-2.246l-0.504-0.322
									l0.224,0.215l-0.035,0.03l-0.244-0.171l-0.24,0.561l-0.162,0.098l-0.212,0.083l-0.247,0.102l-0.23,0.045l-0.293,0.055
									l-0.29,0.054l-55.041,4.109l-0.351,0.036l-0.336,0.011l-0.339,0.007l-0.358,0.063H72.14l-0.319,0.046l-0.351,0.038
									l-0.319,0.046l-0.358,0.064l-0.319,0.046l-0.329,0.072l-0.365,0.092l-0.331,0.074l-0.349,0.127l-0.349,0.129l-0.329,0.165
									l-0.651,0.396l-0.657,0.604l-0.697,0.717l-0.67,0.814l-0.649,0.853l-0.559,0.761l-0.55,0.734l-0.458,0.55l-0.266,0.065
									l-0.229,0.046l-0.284,0.027h-0.274h-0.275l-0.238-0.017l-0.302-0.011l-0.266-0.028l-5.052-15.268l-0.11-0.221l-0.173-0.211
									l-0.247-0.175l-0.331-0.202l-0.319-0.138l-0.329-0.11l-0.312-0.074l-0.304-0.008l-12.737,0.389l-1.531,4.035l-0.009-0.052
									L39.336,75.17z M130.871,75.595l0.018-0.041l0.211,0.201L130.871,75.595z"></path>
							</g>
						</g>
					</g>
				</g>
			</g>
			<polygon fill-rule="evenodd" clip-rule="evenodd" points="128.947,76.717 129.276,76.644 129.57,76.589 129.836,76.525 
				130.11,76.433 130.366,76.305 130.633,76.148 130.843,75.976 131.1,75.755 130.66,75.332 130.467,75.544 130.266,75.69 
				130.072,75.81 129.862,75.892 129.659,75.947 129.424,76.02 129.168,76.057 128.884,76.085 128.947,76.717 128.947,76.717 			"></polygon>
			<polygon fill-rule="evenodd" clip-rule="evenodd" points="73.943,80.807 128.947,76.717 128.884,76.085 73.872,80.201 
				73.943,80.807 73.943,80.807 			"></polygon>
			<polygon fill-rule="evenodd" clip-rule="evenodd" points="68.549,81.786 68.869,81.649 69.184,81.54 69.557,81.42 69.869,81.311 
				70.206,81.21 70.527,81.163 70.848,81.118 71.204,81.054 71.497,80.998 71.837,80.99 72.186,80.953 72.532,80.916 72.881,80.88 
				73.192,80.862 73.567,80.835 73.943,80.807 73.872,80.201 73.521,80.239 73.175,80.274 72.809,80.274 72.461,80.311 
				72.122,80.32 71.793,80.394 71.452,80.403 71.077,80.43 70.747,80.504 70.416,80.576 70.061,80.64 69.694,80.732 69.383,80.841 
				69.007,80.96 68.632,81.079 68.303,81.245 68.549,81.786 68.549,81.786 68.549,81.786 			"></polygon>
			<polygon fill-rule="evenodd" clip-rule="evenodd" points="63.62,87.235 63.74,87.152 63.987,86.867 64.209,86.575 64.472,86.236 
				64.747,85.867 65.061,85.483 65.345,85.088 65.664,84.675 65.985,84.263 66.314,83.822 66.653,83.446 66.983,83.098 
				67.321,82.722 67.605,82.419 67.964,82.172 68.254,81.933 68.549,81.786 68.303,81.245 67.927,81.456 67.605,81.685 
				67.229,81.988 66.874,82.326 66.543,82.677 66.215,83.024 65.848,83.483 65.526,83.896 65.205,84.309 64.884,84.721 
				64.602,85.116 64.29,85.501 64.015,85.867 63.75,86.207 63.529,86.501 63.328,86.739 63.438,86.683 63.62,87.235 63.62,87.235 
				63.62,87.235 			"></polygon>
			<polygon fill="none" points="123.051,71.229 123.171,70.963 123.39,70.761 123.719,70.596 124.103,70.541 124.313,70.551 
				124.553,70.569 124.781,70.613 125.01,70.661 125.284,70.752 125.533,70.834 125.798,70.954 126.083,71.11 126.318,71.22 
				126.566,71.395 126.787,71.559 127.025,71.761 127.272,71.937 127.445,72.147 127.656,72.34 127.83,72.551 128.151,72.965 
				128.316,73.387 128.399,73.598 128.444,73.736 128.417,74.093 128.351,74.377 128.15,74.615 127.857,74.761 127.463,74.845 
				127.244,74.864 127.015,74.816 126.751,74.789 126.466,74.727 126.218,74.643 125.943,74.551 125.65,74.423 125.396,74.276 
				125.128,74.157 124.844,73.999 124.596,73.827 124.359,73.623 124.139,73.459 123.91,73.229 123.709,73.009 123.534,72.798 
				123.252,72.366 123.086,71.944 123.041,71.808 122.994,71.577 			"></polygon>
			<polygon fill-rule="evenodd" clip-rule="evenodd" fill="#FFFFFF" points="53.084,70.651 54.219,70.633 54.312,70.633 
				44.559,67.373 44.065,67.666 53.074,70.679 53.074,70.679 53.084,70.651 			"></polygon>
			<polygon fill-rule="evenodd" clip-rule="evenodd" fill="#FFFFFF" points="53.084,70.651 41.481,71.022 41.435,70.793 
				41.37,70.528 41.299,70.291 41.206,70.013 41.16,69.785 41.16,69.601 41.233,69.382 41.435,69.233 41.911,68.904 42.443,68.592 
				42.974,68.281 43.506,67.969 44.009,67.649 44.065,67.666 53.074,70.679 53.074,70.679 53.084,70.651 			"></polygon>
			<polygon fill="#FFFFFF" points="46.03,77.713 53.934,77.267 57.029,78.517 58.119,81.756 58.448,82.876 57.14,82.956 
				55.855,82.956 54.675,82.928 53.595,82.873 52.541,82.735 51.562,82.56 50.662,82.321 49.767,82.082 48.924,81.771 
				48.107,81.466 47.341,81.118 46.578,80.741 45.792,80.356 45.041,79.953 44.289,79.548 43.512,79.134 43.438,78.805 
				43.384,78.51 43.311,78.182 43.266,77.859 			"></polygon>
			<polygon fill-rule="evenodd" clip-rule="evenodd" fill="#FFFFFF" points="65.939,78.621 66.049,78.748 67.065,79.364 
				67.396,78.831 66.379,78.218 66.481,78.374 65.939,78.621 65.978,78.694 66.049,78.748 65.939,78.621 65.939,78.621 			"></polygon>
			<polygon fill-rule="evenodd" clip-rule="evenodd" fill="#FFFFFF" points="56.899,78.81 56.727,78.598 58.173,82.966 
				58.75,82.792 57.304,78.424 57.148,78.25 57.304,78.424 57.257,78.286 57.148,78.25 56.899,78.81 56.899,78.81 56.899,78.81 			
				"></polygon>
			<polygon fill-rule="evenodd" clip-rule="evenodd" fill="#FFFFFF" points="53.963,77.551 53.815,77.535 56.899,78.81 
				57.148,78.25 54.063,76.973 53.943,76.964 54.063,76.973 54.007,76.955 53.943,76.964 53.963,77.551 53.963,77.551 
				53.963,77.551 			"></polygon>
			<polygon fill-rule="evenodd" clip-rule="evenodd" fill="#FFFFFF" points="43.575,77.841 43.283,78.171 53.963,77.551 
				53.943,76.964 43.266,77.584 42.981,77.887 43.266,77.584 42.925,77.592 42.981,77.887 43.575,77.841 43.575,77.841 			"></polygon>
			<polygon fill-rule="evenodd" clip-rule="evenodd" fill="#FFFFFF" points="43.659,78.878 43.777,79.071 43.769,78.915 
				43.732,78.749 43.723,78.593 43.676,78.455 43.669,78.301 43.632,78.135 43.585,77.997 43.575,77.841 42.981,77.887 
				42.981,78.07 43.009,78.263 43.056,78.4 43.062,78.557 43.109,78.694 43.146,78.859 43.21,79.034 43.22,79.19 43.365,79.391 
				43.22,79.19 43.266,79.328 43.365,79.391 43.659,78.878 43.659,78.878 			"></polygon>
			<polygon fill-rule="evenodd" clip-rule="evenodd" fill="#FFFFFF" points="58.183,82.939 58.428,82.563 57.119,82.644 
				55.855,82.681 54.712,82.635 53.604,82.57 52.613,82.423 51.625,82.275 50.729,82.037 49.858,81.807 49.015,81.494 
				48.239,81.171 47.459,80.852 46.698,80.476 45.939,80.098 45.188,79.695 44.437,79.291 43.659,78.878 43.365,79.391 
				44.143,79.805 44.894,80.21 45.664,80.65 46.423,81.026 47.221,81.383 47.988,81.733 48.821,82.073 49.665,82.385 50.589,82.633 
				51.497,82.845 52.503,83.028 53.558,83.167 54.657,83.259 55.875,83.269 57.137,83.232 58.502,83.169 58.75,82.792 
				58.502,83.169 58.879,83.141 58.75,82.792 58.173,82.966 58.173,82.966 58.183,82.939 			"></polygon>
			<g>
				<polygon fill="none" points="63.707,86.817 63.932,87.033 63.707,86.817 				"></polygon>
				<polygon fill="none" points="61.681,86.739 61.626,86.742 61.626,86.742 				"></polygon>
				<polygon fill="none" points="56.707,71.895 64.724,74.573 56.707,71.895 				"></polygon>
			</g>
			<polygon fill-rule="evenodd" clip-rule="evenodd" fill="#FFFFFF" points="73.872,80.201 73.467,80.221 73.018,80.283 
				72.615,80.301 72.177,80.338 71.755,80.412 71.307,80.476 70.858,80.54 70.426,80.64 69.995,80.741 69.623,80.86 69.21,80.998 
				68.823,81.145 68.494,81.311 68.101,81.485 67.779,81.714 67.485,81.952 67.854,82.411 68.136,82.2 68.411,82.016 68.713,81.841 
				69.062,81.714 69.402,81.521 69.769,81.429 70.197,81.33 70.573,81.21 70.985,81.163 71.352,81.073 71.793,81.036 72.213,80.964 
				72.662,80.898 73.102,80.86 73.512,80.817 73.943,80.807 73.872,80.201 73.872,80.201 73.872,80.201 			"></polygon>
			<polygon fill-rule="evenodd" clip-rule="evenodd" fill="#FFFFFF" points="128.884,76.085 73.872,80.201 73.943,80.807 
				128.947,76.717 128.884,76.085 128.884,76.085 			"></polygon>
			<polygon fill-rule="evenodd" clip-rule="evenodd" fill="#FFFFFF" points="129.909,72.725 130.138,73.047 130.376,73.341 
				130.486,73.652 130.66,73.957 130.751,74.232 130.781,74.517 130.788,74.763 130.771,75.001 130.705,75.195 130.614,75.378 
				130.496,75.553 130.283,75.725 130.064,75.838 129.716,75.964 129.35,76.057 128.884,76.085 128.947,76.717 129.452,76.672 
				129.892,76.543 130.275,76.396 130.614,76.204 130.926,76.002 131.145,75.708 131.265,75.441 131.373,75.113 131.364,74.772 
				131.385,74.443 131.311,74.112 131.19,73.737 131.053,73.415 130.871,73.047 130.633,72.663 130.395,72.369 129.909,72.725 
				129.909,72.725 			"></polygon>
			<polygon fill-rule="evenodd" clip-rule="evenodd" fill="#FFFFFF" points="123.353,69.587 123.849,69.569 124.35,69.615 
				124.863,69.725 125.358,69.798 125.825,69.953 126.292,70.11 126.74,70.322 127.163,70.524 127.602,70.762 128.004,71.02 
				128.436,71.285 128.746,71.543 129.075,71.836 129.396,72.158 129.662,72.46 129.909,72.725 130.395,72.369 130.11,72.029 
				129.789,71.708 129.47,71.387 129.113,71.084 128.719,70.8 128.326,70.516 127.923,70.257 127.464,69.981 126.988,69.761 
				126.502,69.569 126.009,69.404 125.486,69.229 124.973,69.119 124.45,69.036 123.856,68.99 123.333,68.998 123.353,69.587 
				123.353,69.587 			"></polygon>
			<polygon fill-rule="evenodd" clip-rule="evenodd" fill="#FFFFFF" points="74.679,71.266 123.353,69.587 123.333,68.998 
				74.687,70.688 74.679,71.266 74.679,71.266 			"></polygon>
			<polygon fill-rule="evenodd" clip-rule="evenodd" fill="#FFFFFF" points="66.994,70.041 67.453,70.227 67.937,70.327 
				68.405,70.482 68.892,70.583 69.402,70.695 69.881,70.822 70.4,70.905 70.869,70.97 71.355,71.072 71.856,71.117 72.351,71.189 
				72.838,71.201 73.305,71.265 73.8,71.247 74.247,71.274 74.679,71.266 74.687,70.688 74.229,70.688 73.781,70.661 73.359,70.642 
				72.883,70.604 72.406,70.567 71.93,70.53 71.464,70.465 70.971,70.392 70.484,70.292 70.018,70.227 69.541,70.098 69.046,70.023 
				68.57,69.896 68.066,69.757 67.645,69.647 67.178,69.492 66.986,70.07 66.986,70.07 66.994,70.041 			"></polygon>
			<polygon fill-rule="evenodd" clip-rule="evenodd" fill="#FFFFFF" points="50.575,65.532 51.41,65.412 52.195,65.339 
				52.947,65.284 53.634,65.238 54.286,65.211 54.871,65.284 55.477,65.304 55.979,65.349 56.501,65.432 56.986,65.534 
				57.443,65.625 57.855,65.763 58.295,65.91 58.644,66.057 59.075,66.231 59.414,66.405 59.807,66.598 60.199,66.792 
				60.585,67.012 60.971,67.233 61.354,67.452 61.758,67.71 62.151,67.904 62.581,68.169 63.059,68.389 63.516,68.664 
				64.026,68.867 64.521,69.123 65.08,69.371 65.686,69.574 66.326,69.849 66.986,70.07 67.178,69.492 66.518,69.271 65.869,69.023 
				65.328,68.812 64.761,68.592 64.239,68.325 63.788,68.114 63.331,67.838 62.882,67.627 62.443,67.388 62.031,67.159 
				61.647,66.94 61.245,66.682 60.859,66.461 60.467,66.269 60.071,66.076 59.714,65.864 59.321,65.672 58.891,65.497 
				58.488,65.332 58.049,65.186 57.581,65.029 57.097,64.928 56.602,64.854 56.061,64.734 55.504,64.67 54.925,64.66 54.257,64.651 
				53.616,64.651 52.875,64.68 52.124,64.733 51.326,64.834 50.501,64.926 50.549,65.521 50.549,65.521 50.575,65.532 			"></polygon>
			<polygon fill-rule="evenodd" clip-rule="evenodd" fill="#FFFFFF" points="41.59,69.5 42.068,69.171 42.598,68.858 43.131,68.546 
				43.671,68.206 44.164,67.914 44.724,67.611 45.244,67.328 45.786,67.081 46.363,66.815 46.939,66.548 47.507,66.31 
				48.094,66.108 48.727,65.953 49.302,65.777 49.935,65.623 50.549,65.521 50.501,64.926 49.814,65.062 49.166,65.182 
				48.523,65.364 47.919,65.53 47.315,65.787 46.691,66.007 46.125,66.245 45.546,66.511 44.961,66.803 44.402,67.106 
				43.881,67.391 43.35,67.702 42.816,68.013 42.287,68.325 41.783,68.647 41.279,68.968 41.562,69.49 41.562,69.49 41.59,69.5 			
				"></polygon>
			<polygon fill-rule="evenodd" clip-rule="evenodd" fill="#FFFFFF" points="41.481,70.747 41.791,71.005 41.7,70.73 41.645,70.436 
				41.572,70.198 41.508,69.931 41.472,69.766 41.444,69.665 41.489,69.528 41.562,69.49 41.279,68.968 41.015,69.215 
				40.877,69.537 40.841,69.83 40.933,70.106 40.995,70.371 41.069,70.611 41.143,70.849 41.187,71.078 41.472,71.326 
				41.187,71.078 41.197,71.326 41.472,71.326 41.481,70.747 41.481,70.747 			"></polygon>
			<g>
				<polygon fill="none" points="63.953,72.94 63.955,72.942 63.88,73.252 				"></polygon>
				<polygon fill="#FFFFFF" points="63.963,72.913 63.955,72.942 63.953,72.94 				"></polygon>
				<polygon fill="#FFFFFF" points="63.825,73.05 63.953,72.94 63.88,73.252 				"></polygon>
				<g>
					<polygon fill="none" points="123.171,70.963 123.39,70.761 123.719,70.596 124.103,70.541 124.313,70.551 124.553,70.569 
						124.781,70.613 125.01,70.661 125.284,70.752 125.533,70.834 125.798,70.954 126.083,71.11 126.318,71.22 126.566,71.395 
						126.787,71.559 127.025,71.761 127.272,71.937 127.445,72.147 127.656,72.34 127.83,72.551 128.151,72.965 128.316,73.387 
						128.399,73.598 128.444,73.736 128.417,74.093 128.351,74.377 128.15,74.615 127.857,74.761 127.463,74.845 127.244,74.864 
						127.015,74.816 126.751,74.789 126.466,74.727 126.218,74.643 125.943,74.551 125.65,74.423 125.396,74.276 125.128,74.157 
						124.844,73.999 124.596,73.827 124.359,73.623 124.139,73.459 123.91,73.229 123.709,73.009 123.534,72.798 123.252,72.366 
						123.086,71.944 123.041,71.808 122.994,71.577 123.051,71.229 					"></polygon>
					<polygon fill="none" points="70.151,72.899 70.151,72.899 69.878,73.025 					"></polygon>
					<polygon fill="none" points="72.132,77.907 72.325,78.063 72.341,78.099 71.82,78.751 67.221,79.08 66.224,78.502 
						66.22,78.491 66.481,78.374 64.524,73.213 64.85,72.889 69.028,72.648 69.913,73.109 72.085,78.229 					"></polygon>
					<polygon fill="none" points="56.441,71.346 56.441,71.346 64.137,73.919 					"></polygon>
					<g>
						<polygon fill="none" points="123.171,70.963 123.39,70.761 123.719,70.596 124.103,70.541 124.313,70.551 124.553,70.569 
							124.781,70.613 125.01,70.661 125.284,70.752 125.533,70.834 125.798,70.954 126.083,71.11 126.318,71.22 126.566,71.395 
							126.787,71.559 127.025,71.761 127.272,71.937 127.445,72.147 127.656,72.34 127.83,72.551 128.151,72.965 128.316,73.387 
							128.399,73.598 128.444,73.736 128.417,74.093 128.351,74.377 128.15,74.615 127.857,74.761 127.463,74.845 127.244,74.864 
							127.015,74.816 126.751,74.789 126.466,74.727 126.218,74.643 125.943,74.551 125.65,74.423 125.396,74.276 125.128,74.157 
							124.844,73.999 124.596,73.827 124.359,73.623 124.139,73.459 123.91,73.229 123.709,73.009 123.534,72.798 123.252,72.366 
							123.086,71.944 123.041,71.808 122.994,71.577 123.051,71.229 						"></polygon>
						<polygon fill="none" points="69.028,72.648 69.913,73.109 72.085,78.229 72.132,77.907 72.325,78.063 72.341,78.099 
							71.82,78.751 67.221,79.08 66.224,78.502 66.22,78.491 66.481,78.374 64.524,73.213 64.85,72.889 						"></polygon>
						<polygon fill="none" points="56.441,71.346 56.441,71.346 64.137,73.919 						"></polygon>
						<g>
							<polygon fill="none" points="123.171,70.963 123.39,70.761 123.719,70.596 124.103,70.541 124.313,70.551 124.553,70.569 
								124.781,70.613 125.01,70.661 125.284,70.752 125.533,70.834 125.798,70.954 126.083,71.11 126.318,71.22 126.566,71.395 
								126.787,71.559 127.025,71.761 127.272,71.937 127.445,72.147 127.656,72.34 127.83,72.551 128.151,72.965 128.316,73.387 
								128.399,73.598 128.444,73.736 128.417,74.093 128.351,74.377 128.15,74.615 127.857,74.761 127.463,74.845 127.244,74.864 
								127.015,74.816 126.751,74.789 126.466,74.727 126.218,74.643 125.943,74.551 125.65,74.423 125.396,74.276 125.128,74.157 
								124.844,73.999 124.596,73.827 124.359,73.623 124.139,73.459 123.91,73.229 123.709,73.009 123.534,72.798 123.252,72.366 
								123.086,71.944 123.041,71.808 122.994,71.577 123.051,71.229 							"></polygon>
							<polygon fill="none" points="69.028,72.648 69.913,73.109 72.085,78.229 72.132,77.907 72.325,78.063 72.341,78.099 
								71.825,78.744 71.793,78.466 67.195,78.794 67.396,78.831 67.244,79.077 67.221,79.08 66.224,78.502 66.22,78.491 
								66.481,78.374 64.524,73.213 64.85,72.889 							"></polygon>
							<polygon fill="none" points="56.441,71.346 56.441,71.346 64.137,73.919 							"></polygon>
							<g>
								<polygon fill="none" points="72.248,77.091 80.96,80.002 72.248,77.091 								"></polygon>
								<polygon fill="none" points="72.021,76.555 82.056,79.911 72.021,76.555 								"></polygon>
								<polygon fill="none" points="123.171,70.963 123.39,70.761 123.719,70.596 124.103,70.541 124.313,70.551 124.553,70.569 
									124.781,70.613 125.01,70.661 125.284,70.752 125.533,70.834 125.798,70.954 126.083,71.11 126.318,71.22 126.566,71.395 
									126.787,71.559 127.025,71.761 127.272,71.937 127.445,72.147 127.656,72.34 127.83,72.551 128.151,72.965 128.316,73.387 
									128.399,73.598 128.444,73.736 128.417,74.093 128.351,74.377 128.15,74.615 127.857,74.761 127.463,74.845 127.244,74.864 
									127.015,74.816 126.751,74.789 126.466,74.727 126.218,74.643 125.943,74.551 125.65,74.423 125.396,74.276 125.128,74.157 
									124.844,73.999 124.596,73.827 124.359,73.623 124.139,73.459 123.91,73.229 123.709,73.009 123.534,72.798 123.252,72.366 
									123.086,71.944 123.041,71.808 122.994,71.577 123.051,71.229 								"></polygon>
								<polygon fill="none" points="69.028,72.648 69.913,73.109 72.085,78.229 72.132,77.907 72.325,78.063 72.341,78.099 
									71.825,78.744 71.82,78.751 67.244,79.077 67.221,79.08 66.224,78.502 66.22,78.491 66.481,78.374 64.524,73.213 
									64.85,72.889 								"></polygon>
								<polygon fill="none" points="56.441,71.346 56.441,71.346 64.137,73.919 								"></polygon>
								<polygon fill="#FFFFFF" points="72.021,76.555 82.056,79.911 80.969,79.976 80.96,80.002 72.248,77.091 								"></polygon>
								<g>
									<polygon fill="none" points="123.171,70.963 123.39,70.761 123.719,70.596 124.103,70.541 124.313,70.551 124.553,70.569 
										124.781,70.613 125.01,70.661 125.284,70.752 125.533,70.834 125.798,70.954 126.083,71.11 126.318,71.22 126.566,71.395 
										126.787,71.559 127.025,71.761 127.272,71.937 127.445,72.147 127.656,72.34 127.83,72.551 128.151,72.965 128.316,73.387 
										128.399,73.598 128.444,73.736 128.417,74.093 128.351,74.377 128.15,74.615 127.857,74.761 127.463,74.845 
										127.244,74.864 127.015,74.816 126.751,74.789 126.466,74.727 126.218,74.643 125.943,74.551 125.65,74.423 
										125.396,74.276 125.128,74.157 124.844,73.999 124.596,73.827 124.359,73.623 124.139,73.459 123.91,73.229 
										123.709,73.009 123.534,72.798 123.252,72.366 123.086,71.944 123.041,71.808 122.994,71.577 123.051,71.229 									"></polygon>
									<polygon fill="none" points="69.028,72.648 69.913,73.109 72.014,78.057 71.687,78.475 67.195,78.794 67.396,78.831 
										67.244,79.077 67.221,79.08 66.224,78.502 66.22,78.491 66.481,78.374 64.524,73.213 64.85,72.889 									"></polygon>
									<polygon fill="none" points="72.132,77.907 72.325,78.063 72.325,78.063 									"></polygon>
									<polygon fill="none" points="56.441,71.346 56.441,71.346 64.137,73.919 									"></polygon>
									<path fill="#FFFFFF" d="M41.472,71.326l12.747-0.417l0.267,0.028l0.246,0.083l0.331,0.11l0.302,0.102l0.275,0.184
										l0.2,0.128l0.118,0.193l0.092,0.091l5.071,15.305l0.074,0.24l0.247-0.009l0.256-0.037l0.292,0.037l0.358,0.026l0.339-0.009
										l0.329,0.018l0.303-0.082l0.34-0.101l0.272-0.183l0.331-0.35l0.274-0.365l0.256-0.312l0.257-0.311l0.222-0.294l0.209-0.266
										l0.184-0.276l0.219-0.293l0.184-0.275l0.211-0.267l0.212-0.266l0.227-0.229l0.238-0.257l0.274-0.275l0.275-0.275
										l0.35-0.311l-0.188-0.234l0.278-0.226l0.309-0.203l0.36-0.156l0.329-0.165l0.356-0.155l0.402-0.11l0.414-0.137l0.402-0.109
										l0.384-0.056l0.422-0.073l0.449-0.064l0.42-0.073l0.438-0.037l0.442-0.035l0.411-0.046l0.403-0.019l7.071-0.512
										l-8.712-2.911l-0.227-0.536l0,0l10.034,3.356l46.874-3.506l0.869-0.137l0.65-0.302l0.449-0.432l0.165-0.494v-0.551
										l0.01-0.027l-0.157-0.634l-0.311-0.623l-0.45-0.67l-0.264-0.304l-0.294-0.312l-0.321-0.32l-0.337-0.267l-0.358-0.302
										l-0.402-0.259l-0.43-0.266l-0.43-0.267l-0.459-0.184l-0.451-0.212l-0.493-0.165l-0.521-0.175l-0.494-0.074l-0.515-0.11
										l-0.53-0.056l-0.523,0.009l-7.076,0.265l-41.57,1.424h-0.457l-0.43,0.009l-0.486-0.011l-0.466-0.064l-0.478-0.037
										l-0.477-0.038l-0.467-0.062l-0.495-0.075l-0.494-0.072l-0.483-0.102l-0.486-0.102l-0.485-0.101l-0.504-0.138l-0.477-0.129
										l-0.448-0.119l-0.467-0.155l-0.66-0.223l-0.649-0.246l-0.569-0.222l-0.564-0.219L64.147,68.6l-0.477-0.219l-0.494-0.258
										l-0.451-0.211l-0.428-0.264l-0.385-0.222L61.5,67.195l-0.385-0.221l-0.41-0.229l-0.386-0.221l-0.365-0.183l-0.386-0.22
										l-0.394-0.193l-0.403-0.166l-0.386-0.128l-0.438-0.147l-0.469-0.156l-0.447-0.119l-0.493-0.076l-0.522-0.081l-0.53-0.055
										l-0.599-0.046l-0.631-0.029l-0.65,0.028l-0.678,0.017l-0.759,0.082l-0.787,0.073l-0.861,0.11l-0.642,0.092l-0.631,0.154
										l-0.635,0.155l-0.585,0.203l-0.623,0.221l-0.594,0.229l-0.568,0.237l-0.578,0.266l-0.548,0.277l-0.56,0.301l8.894,2.975
										l-11.972,0.4L41.472,71.326z M122.994,71.577l0.057-0.349l0.12-0.265l0.219-0.203l0.329-0.165l0.385-0.055l0.21,0.01
										l0.239,0.018l0.229,0.044l0.229,0.047l0.274,0.091l0.249,0.082l0.265,0.12l0.285,0.156l0.235,0.11l0.248,0.175l0.221,0.164
										l0.238,0.203l0.247,0.175l0.173,0.211l0.211,0.192l0.174,0.211l0.321,0.415l0.165,0.422l0.083,0.211l0.045,0.138
										l-0.027,0.357l-0.066,0.283l-0.2,0.238l-0.293,0.146l-0.395,0.084l-0.219,0.02l-0.229-0.048l-0.264-0.027l-0.285-0.062
										l-0.248-0.084l-0.274-0.092l-0.293-0.128l-0.255-0.147l-0.268-0.119l-0.284-0.157l-0.248-0.173l-0.236-0.203l-0.221-0.164
										l-0.229-0.23l-0.201-0.22l-0.175-0.211l-0.282-0.432l-0.166-0.422l-0.045-0.136L122.994,71.577z M72.325,78.063
										L72.325,78.063l-0.193-0.156L72.325,78.063z M64.524,73.213l0.325-0.324l4.179-0.24l0.885,0.461l2.101,4.948l-0.327,0.418
										l-4.491,0.32l0.201,0.037l-0.152,0.246l-0.023,0.003l-0.997-0.578l-0.004-0.011l0.262-0.117L64.524,73.213z"></path>
								</g>
							</g>
						</g>
					</g>
				</g>
			</g>
			<polygon fill-rule="evenodd" clip-rule="evenodd" points="120.165,74.759 119.907,74.614 119.863,74.383 120.228,74.291 
				120.302,74.53 120.082,74.365 120.165,74.759 120.165,74.759 			"></polygon>
			<polygon fill-rule="evenodd" clip-rule="evenodd" points="120.66,74.467 120.604,74.54 120.511,74.631 120.402,74.686 
				120.294,74.741 120.165,74.759 120.082,74.365 120.138,74.383 120.222,74.319 120.321,74.291 120.329,74.264 120.311,74.319 
				120.65,74.495 120.65,74.495 120.66,74.467 			"></polygon>
			<polygon fill-rule="evenodd" clip-rule="evenodd" points="119.624,72.163 119.653,72.171 119.826,72.383 120.055,72.612 
				120.275,72.869 120.483,73.154 120.658,73.456 120.759,73.796 120.762,74.164 120.65,74.495 120.311,74.319 120.386,74.1 
				120.367,73.878 120.302,73.613 120.138,73.376 119.956,73.099 119.754,72.88 119.524,72.648 119.35,72.439 119.377,72.448 
				119.624,72.163 119.624,72.163 			"></polygon>
			<polygon fill-rule="evenodd" clip-rule="evenodd" points="116.257,71.189 116.227,71.179 116.714,71.189 117.17,71.189 
				117.602,71.272 118.015,71.317 118.436,71.428 118.827,71.622 119.239,71.851 119.624,72.163 119.377,72.448 119.002,72.198 
				118.644,71.988 118.307,71.814 117.938,71.722 117.538,71.648 117.126,71.603 116.704,71.584 116.273,71.592 116.284,71.564 
				116.218,71.207 116.218,71.207 116.257,71.189 			"></polygon>
			<polygon fill-rule="evenodd" clip-rule="evenodd" points="80.521,73.066 80.678,72.965 116.218,71.207 116.284,71.564 
				80.729,73.35 80.887,73.249 80.521,73.066 80.521,73.066 			"></polygon>
			<polygon fill-rule="evenodd" clip-rule="evenodd" points="79.677,74.313 79.294,74.185 79.321,73.919 79.393,73.7 79.505,73.461 
				79.65,73.294 79.844,73.176 80.089,73.075 80.364,72.983 80.678,72.965 80.729,73.35 80.438,73.405 80.172,73.468 80.045,73.486 
				79.917,73.597 79.854,73.7 79.75,73.818 79.696,73.982 79.706,74.23 79.321,74.102 79.677,74.313 79.677,74.313 			"></polygon>
			<g>
				<polygon fill="none" points="80.678,72.976 80.729,73.35 80.678,72.976 				"></polygon>
				<g>
					<polygon fill="none" points="79.706,74.23 79.75,74.002 79.861,73.762 79.952,73.58 80.146,73.461 80.374,73.412 
						80.695,73.368 80.729,73.35 116.284,71.564 116.876,71.611 117.373,71.592 117.84,71.657 118.269,71.741 118.664,71.934 
						119.019,72.144 119.35,72.439 119.727,72.869 120.055,73.255 120.294,73.641 120.413,73.924 120.413,74.108 120.329,74.264 
						120.101,74.402 119.672,74.502 119.067,74.575 82.534,76.462 82.507,76.451 81.994,76.434 81.491,76.295 81.042,76.085 
						80.656,75.864 80.338,75.542 80.108,75.222 79.907,74.911 79.75,74.643 79.724,74.452 					"></polygon>
					<g>
						<path fill="none" d="M79.75,74.002l-0.044,0.228l0.018,0.222l0.026,0.191l0.157,0.268l0.201,0.311l0.229,0.32l0.318,0.322
							l0.386,0.221l0.449,0.21l0.503,0.139l0.513,0.017l0.027,0.011l36.533-1.888l0.604-0.073l0.429-0.1l0.229-0.138l0.084-0.156
							v-0.185l-0.119-0.283l-0.239-0.386l-0.327-0.386l-0.378-0.429l-0.331-0.296l-0.354-0.21l-0.395-0.193l-0.43-0.083
							l-0.467-0.065l-0.497,0.019l-0.592-0.046L80.729,73.35l-0.034,0.019l-0.321,0.044l-0.229,0.049l-0.193,0.119l-0.091,0.182
							L79.75,74.002z M80.253,73.772l35.555-1.785l0.018-0.055l0.477,0.036l0.456,0.001l0.432,0.083l0.412,0.045l0.422,0.111
							l0.394,0.192l0.383,0.222l0.412,0.32l0.155,0.175l0.138,0.137l0.129,0.165l0.111,0.128l0.154,0.174l0.12,0.193l0.099,0.156
							l0.104,0.157l0.007,0.063l-0.365,0.092l0.007,0.065l-0.091-0.185l-0.099-0.154l-0.139-0.137l-0.102-0.157l-0.108-0.128
							l-0.13-0.165l-0.135-0.139l-0.164-0.146l0.01-0.011l-0.324-0.246l-0.348-0.24l-0.348-0.146l-0.364-0.092l-0.403-0.074
							l-0.415-0.046l-0.447-0.028l-0.429,0.009L80.292,74.12L80.253,73.772z"></path>
						<g>
							<path fill="none" d="M79.75,74.002l-0.044,0.228l0.018,0.222l0.026,0.191l0.157,0.268l0.201,0.311l0.229,0.32l0.318,0.322
								l0.386,0.221l0.449,0.21l0.503,0.139l0.513,0.017l0.027,0.011l36.533-1.888l0.604-0.073l0.429-0.1l0.229-0.138l0.084-0.156
								v-0.185l-0.119-0.283l-0.239-0.386l-0.327-0.386l-0.378-0.429l-0.331-0.296l-0.354-0.21l-0.395-0.193l-0.43-0.083
								l-0.467-0.065l-0.497,0.019l-0.592-0.046L80.729,73.35l-0.034,0.019l-0.321,0.044l-0.229,0.049l-0.193,0.119l-0.091,0.182
								L79.75,74.002z"></path>
							<g>
								<polygon fill="none" points="79.861,73.762 79.952,73.58 80.146,73.461 80.374,73.412 80.584,73.384 80.292,73.938 
									115.842,72.152 116.302,72.153 116.723,72.171 117.153,72.253 117.565,72.301 117.958,72.4 118.334,72.556 118.71,72.805 
									119.077,73.08 119.202,73.246 119.341,73.382 119.47,73.548 119.607,73.687 119.706,73.842 119.836,74.008 119.938,74.164 
									120.055,74.354 120.07,74.409 119.672,74.502 119.067,74.575 82.534,76.462 82.507,76.451 81.994,76.434 81.491,76.295 
									81.042,76.085 80.656,75.864 80.338,75.542 80.108,75.222 79.907,74.911 79.75,74.643 79.724,74.452 79.706,74.23 
									79.75,74.002 								"></polygon>
								<polygon points="119.938,74.164 119.836,74.008 119.706,73.842 119.607,73.687 119.47,73.548 119.341,73.382 
									119.202,73.246 119.077,73.08 118.71,72.805 118.334,72.556 117.958,72.4 117.565,72.301 117.153,72.253 116.723,72.171 
									116.302,72.153 115.842,72.152 80.292,73.938 80.584,73.384 80.695,73.368 80.729,73.35 116.284,71.564 116.876,71.611 
									117.373,71.592 117.84,71.657 118.269,71.741 118.664,71.934 119.019,72.144 119.35,72.439 119.727,72.869 120.055,73.255 
									120.294,73.641 120.413,73.924 120.413,74.108 120.329,74.264 120.101,74.402 120.07,74.409 120.055,74.354 								"></polygon>
								<g>
									<polygon fill="none" points="79.768,73.964 79.798,73.956 79.979,73.956 80.292,73.938 80.589,73.382 80.695,73.368 
										80.729,73.35 116.284,71.564 116.876,71.611 117.373,71.592 117.84,71.657 118.269,71.741 118.664,71.934 119.019,72.144 
										119.35,72.439 119.727,72.869 120.055,73.255 120.294,73.641 120.413,73.924 120.413,74.108 120.329,74.264 
										120.101,74.402 120.07,74.409 119.672,74.502 119.067,74.575 82.534,76.462 82.507,76.451 81.994,76.434 81.491,76.295 
										81.042,76.085 80.656,75.864 80.338,75.542 80.108,75.222 79.907,74.911 79.75,74.643 79.724,74.452 79.706,74.23 
										79.75,74.002 									"></polygon>
									<path d="M79.294,74.185l0.036,0.349l0.073,0.239l0.102,0.339l0.236,0.385l0.293,0.312l0.374,0.34l0.451,0.303l0.502,0.23
										l0.531,0.145l0.642,0.001l36.522-1.857l0.693-0.074l0.496-0.11l0.358-0.248l0.2-0.33l-0.007-0.339l-0.14-0.414
										l-0.263-0.394l-0.368-0.46l-0.374-0.431l-0.403-0.349l-0.431-0.265l-0.419-0.202l-0.462-0.092l-0.547-0.092h-0.551
										l-0.623,0.036l-35.54,1.758v0.01L80.3,72.993l-0.383,0.146l-0.257,0.221l-0.175,0.249l-0.12,0.265L79.294,74.185z
										 M79.706,74.23l0.044-0.228l0.018-0.039l0.03-0.008h0.181l0.313-0.018l0.297-0.556l0.106-0.014l0.034-0.019l35.555-1.785
										l0.592,0.046l0.497-0.019l0.467,0.065l0.43,0.083l0.395,0.193l0.354,0.21l0.331,0.296l0.378,0.429l0.327,0.386l0.239,0.386
										l0.119,0.283v0.185l-0.084,0.156l-0.229,0.138l-0.03,0.007l-0.398,0.093l-0.604,0.073l-36.533,1.888l-0.027-0.011
										l-0.513-0.017l-0.503-0.139l-0.449-0.21l-0.386-0.221l-0.318-0.322l-0.229-0.32l-0.201-0.311l-0.157-0.268l-0.026-0.191
										L79.706,74.23z"></path>
								</g>
							</g>
						</g>
					</g>
				</g>
			</g>
		</g>
	</g>
</g>
</svg>