<svg version="1.1" id="Layer_2" xmlns="http://www.w3.org/2000/svg" xmlns:xlink="http://www.w3.org/1999/xlink" x="0px" y="0px" width="3075" height="4875" viewBox="0 0 3075 4875" enable-background="new 0 0 738 1170" xml:space="preserve">
<g>
	<path opacity="0.5" fill="#231F20" d="M738,0H0v1170h738V0z M45,1161c-19.882,0-36-16.118-36-36V45C9,25.117,25.118,9,45,9h648
		c19.883,0,36,16.117,36,36v1080c0,19.882-16.117,36-36,36H45z"></path>
	<path fill="none" stroke="#ED1C24" stroke-miterlimit="10" d="M45,1161c-19.882,0-36-16.118-36-36V45C9,25.117,25.118,9,45,9h648
		c19.883,0,36,16.117,36,36v1080c0,19.882-16.117,36-36,36H45z"></path>
	<g>
		<path opacity="0.5" fill="none" stroke="#00AEEF" stroke-miterlimit="10" stroke-dasharray="7.9858,7.9858" d="M18,45
			c0-14.888,12.112-27,27-27h648c14.888,0,27,12.112,27,27v1080c0,14.888-12.112,27-27,27H45c-14.888,0-27-12.112-27-27V45z"></path>
	</g>
</g>
<rect x="710.107" y="431.654" fill="#F9A51B" width="27.893" height="47.82"></rect>
<g>
	
	
	
	
	
	
	
	
	
	
	
	<line fill="none" stroke="#F9A51B" stroke-width="1.4473" x1="574.828" y1="432.069" x2="738" y2="432.069"></line>
	<line fill="none" stroke="#EA222A" stroke-width="1.4473" x1="598.801" y1="199.941" x2="724.654" y2="199.941"></line>
	<line fill="none" stroke="#919396" stroke-width="1.4473" x1="581.554" y1="261.155" x2="735.829" y2="261.155"></line>
	
		<line fill="none" stroke="#00AEEF" stroke-width="1.4473" stroke-miterlimit="10" stroke-opacity="0.5" stroke-dasharray="11.5785" x1="592.752" y1="85.827" x2="711.647" y2="85.827"></line>
	<path fill="#EA222A" d="M592.783,67.427c0,1.091-0.497,2.157-1.482,3.19l-0.154,0.156l-8.65,9.107
		c-1.834,1.933-3.398,3.421-4.693,4.476c-1.291,1.057-2.201,1.585-2.732,1.585c-0.56,0-1.252-0.265-2.087-0.79
		c-0.83-0.532-1.364-1.074-1.607-1.633c-0.206-0.466-0.398-1.453-0.579-2.965c-0.183-1.511-0.277-3.15-0.277-4.912
		c0-0.964,0.407-1.852,1.203-2.667c0.804-0.815,1.691-1.223,2.66-1.223c0.926,0,1.477,0.844,1.646,2.531
		c0.027,0.197,0.036,0.342,0.047,0.435c0.15,1.295,0.322,2.2,0.513,2.714c0.203,0.512,0.468,0.77,0.804,0.77
		c0.141,0,0.399-0.151,0.783-0.454c0.383-0.305,0.84-0.715,1.373-1.239l8.881-8.803c0.749-0.742,1.416-1.308,2.002-1.689
		c0.59-0.385,1.082-0.575,1.498-0.575c0.31,0,0.528,0.117,0.657,0.348c0.13,0.235,0.196,0.627,0.196,1.177V67.427z"></path>
	<path fill="#EA222A" d="M596.009,179.487c0,1.091-0.499,2.157-1.483,3.19l-0.156,0.156l-8.648,9.106
		c-1.834,1.932-3.4,3.423-4.689,4.479c-1.297,1.053-2.208,1.582-2.736,1.582c-0.559,0-1.254-0.264-2.09-0.791
		c-0.829-0.529-1.363-1.073-1.607-1.632c-0.205-0.464-0.396-1.455-0.579-2.966c-0.181-1.51-0.273-3.146-0.273-4.908
		c0-0.965,0.404-1.854,1.203-2.668c0.802-0.817,1.688-1.223,2.658-1.223c0.925,0,1.476,0.842,1.646,2.531
		c0.026,0.197,0.035,0.34,0.047,0.436c0.15,1.293,0.322,2.2,0.517,2.713c0.198,0.513,0.463,0.77,0.799,0.77
		c0.141,0,0.399-0.151,0.783-0.452c0.383-0.307,0.839-0.718,1.374-1.243l8.882-8.802c0.746-0.745,1.414-1.308,2.001-1.688
		c0.589-0.386,1.087-0.576,1.497-0.576c0.311,0,0.528,0.119,0.658,0.349c0.129,0.234,0.198,0.627,0.198,1.177V179.487z"></path>
	<path fill="#EA222A" d="M581.414,239.328c0,1.091-0.498,2.157-1.481,3.19l-0.155,0.155l-8.65,9.106
		c-1.835,1.931-3.399,3.423-4.689,4.479c-1.295,1.053-2.207,1.582-2.736,1.582c-0.561,0-1.255-0.264-2.088-0.792
		c-0.829-0.527-1.363-1.071-1.605-1.631c-0.209-0.463-0.4-1.451-0.581-2.967c-0.183-1.509-0.275-3.147-0.275-4.908
		c0-0.963,0.404-1.851,1.203-2.667c0.801-0.816,1.688-1.223,2.657-1.223c0.928,0,1.477,0.843,1.649,2.531
		c0.024,0.197,0.035,0.34,0.045,0.436c0.151,1.293,0.323,2.199,0.519,2.713c0.198,0.512,0.463,0.77,0.799,0.77
		c0.141,0,0.398-0.151,0.781-0.454c0.384-0.305,0.842-0.716,1.375-1.241l8.883-8.802c0.745-0.746,1.413-1.308,1.998-1.693
		c0.592-0.381,1.09-0.572,1.498-0.572c0.312,0,0.528,0.119,0.659,0.35c0.13,0.233,0.196,0.626,0.196,1.177V239.328z"></path>
	<path fill="#EA222A" d="M574.211,413.143c0,1.093-0.497,2.159-1.482,3.192l-0.155,0.158l-8.649,9.105
		c-1.834,1.93-3.399,3.423-4.695,4.476c-1.29,1.06-2.201,1.58-2.73,1.58c-0.561,0-1.254-0.266-2.089-0.789
		c-0.829-0.528-1.363-1.069-1.606-1.629c-0.207-0.468-0.397-1.456-0.58-2.964c-0.183-1.514-0.273-3.155-0.273-4.916
		c0-0.958,0.404-1.85,1.201-2.662c0.804-0.821,1.689-1.225,2.658-1.225c0.928,0,1.478,0.841,1.648,2.531
		c0.027,0.197,0.035,0.34,0.048,0.436c0.147,1.293,0.32,2.199,0.516,2.716c0.198,0.511,0.462,0.766,0.799,0.766
		c0.14,0,0.398-0.15,0.782-0.458c0.384-0.3,0.841-0.716,1.375-1.234l8.882-8.804c0.746-0.748,1.414-1.313,2.001-1.69
		c0.59-0.383,1.087-0.573,1.497-0.573c0.309,0,0.528,0.112,0.657,0.345c0.129,0.233,0.197,0.626,0.197,1.176V413.143z"></path>
	
	
	<g>
		<path fill="#EA222A" d="M547.43,522.604c0,1.088-0.493,2.154-1.482,3.186l-0.156,0.155l-8.643,9.113
			c-1.841,1.928-3.405,3.418-4.695,4.475c-1.292,1.052-2.202,1.58-2.737,1.58c-0.559,0-1.253-0.263-2.083-0.791
			c-0.83-0.526-1.367-1.069-1.61-1.631c-0.203-0.464-0.401-1.456-0.581-2.968c-0.178-1.504-0.27-3.143-0.27-4.904
			c0-0.967,0.398-1.852,1.203-2.668c0.803-0.814,1.689-1.224,2.657-1.224c0.923,0,1.472,0.842,1.648,2.533
			c0.021,0.192,0.035,0.342,0.046,0.435c0.146,1.297,0.323,2.199,0.515,2.711c0.195,0.515,0.466,0.771,0.796,0.771
			c0.142,0,0.405-0.152,0.789-0.455c0.377-0.305,0.839-0.712,1.367-1.238l8.888-8.805c0.747-0.738,1.409-1.309,2-1.688
			c0.586-0.385,1.083-0.58,1.498-0.58c0.307,0,0.523,0.122,0.659,0.354c0.129,0.238,0.191,0.627,0.191,1.179V522.604z"></path>
	</g>
</g>
<g>
	<rect x="34.875" y="905.039" fill="#D0D1D2" width="225.565" height="228.961"></rect>
	
	<g>
		<path fill-rule="evenodd" clip-rule="evenodd" d="M216.976,988.962c0,38.362-31.035,69.464-69.316,69.464
			c-38.287,0-69.32-31.102-69.32-69.464c0-38.367,31.033-69.466,69.32-69.466C185.94,919.496,216.976,950.595,216.976,988.962"></path>
		<path fill-rule="evenodd" clip-rule="evenodd" fill="#B7D333" d="M210.722,989.349c0,34.871-28.209,63.148-63.018,63.148
			c-34.803,0-63.016-28.277-63.016-63.148c0-34.883,28.213-63.154,63.016-63.154C182.513,926.194,210.722,954.466,210.722,989.349"></path>
		<path d="M134.214,975.571c-0.875,7.744-1.525,13.957-1.955,18.654l-2.878,0.124c0.042-0.155,0.063-0.33,0.069-0.525
			c0.002-0.352-0.125-0.816-0.389-1.388c-0.262-0.576-0.418-0.94-0.449-1.096c-0.745,0.105-1.459,0.623-2.135,1.548
			c-0.682,0.931-1.298,1.396-1.842,1.385c-0.314-0.006-0.663-0.093-1.052-0.254c-0.513,0.341-1.181,0.489-2,0.437
			c-0.743-0.133-1.464-0.244-2.167-0.334c-0.021-0.979-0.982-1.836-2.885-2.576c0.005-0.388-0.19-0.972-0.587-1.743
			c-0.396-0.769-0.595-1.311-0.589-1.622c0.005-0.354,0.15-0.643,0.428-0.878c-0.039-0.113-0.359-0.845-0.962-2.19
			c-0.412-0.98-0.615-1.831-0.6-2.533c0.008-0.547,0.132-1.057,0.375-1.522c-0.333-3.337-0.48-6.193-0.438-8.587
			c0.059-3.678,0.587-7.058,1.58-10.133c-0.074-0.471-0.105-0.941-0.096-1.411c0.043-2.465,0.894-4.175,2.545-5.128l0.019-0.764
			c1.638-2.088,3.792-3.597,6.463-4.529c1.599,0.378,3.194,0.74,4.788,1.08c1.791,0.619,3.022,1.674,3.699,3.174
			c0.544,0.325,0.809,0.975,0.787,1.955c-0.014,1.094,0.105,1.803,0.375,2.122l-0.296,0.343c0.312,2.318,0.465,3.734,0.454,4.244
			c-0.026,1.484-0.414,2.536-1.165,3.149c-0.277-0.005-0.993-0.254-2.159-0.743c-0.277,0.268-0.575,0.402-0.882,0.395
			c-0.159,0-0.441-0.088-0.851-0.248c-0.407-0.159-0.748-0.246-1.021-0.252c-0.195-0.002-0.394,0.032-0.589,0.105
			c-0.023-3.091,0.071-5.402,0.291-6.925c-0.305-0.2-0.621-0.655-0.938-1.366c-0.322-0.711-0.739-1.111-1.241-1.193
			c-0.317,0.383-0.463,0.637-0.426,0.75l-1.044-0.367c-0.962,1.046-1.596,2.851-1.913,5.432c-0.327,2.971-0.729,4.939-1.21,5.908
			c0.417,0.441,0.624,1.052,0.613,1.834c-0.008,0.277-0.056,0.727-0.143,1.35c-0.09,0.627-0.138,1.098-0.141,1.406
			c-0.011,0.356,0.024,0.668,0.099,0.945l-0.714,0.688c0.29,1.337,0.457,3.025,0.502,5.065c-0.029,1.723-0.042,3.442-0.029,5.165
			c-0.042,0-0.372,0.014-0.996,0.045c-0.394-0.008-0.671,0.125-0.835,0.399c0.24-0.037,0.455-0.056,0.647-0.05
			c0.861,0.013,1.54,0.617,2.021,1.825c0.486,1.208,0.909,1.81,1.263,1.815c0.386,0.008,0.925-0.357,1.602-1.092
			c1.152-1.233,1.749-2.93,1.786-5.078c0.016-1.055-0.101-2.193-0.354-3.414c-0.274,0.15-0.417,0.542-0.431,1.166
			c-0.626-0.014-1.017,0.121-1.181,0.394c-0.27-0.085-0.383-0.299-0.341-0.655c0.05-0.508,0.071-0.779,0.076-0.819
			c0.471-0.15,0.708-0.362,0.714-0.634c0-0.122-0.085-0.336-0.251-0.65c-0.172-0.319-0.257-0.573-0.251-0.771
			c0-0.153,0.039-0.312,0.121-0.468l0.275-2.285c0.855,0.251,2.711,0.362,5.564,0.33c-0.082,0.192,0.031,0.452,0.34,0.769
			c0.278-0.27,0.571-0.404,0.883-0.396c0.235,0.008,0.584,0.109,1.049,0.31C133.688,975.466,134.016,975.571,134.214,975.571"></path>
		<path d="M156.091,995.803c-0.544-0.243-1.131-0.37-1.754-0.383c-0.55-0.008-1.295,0.101-2.235,0.314
			c-1.058,0.22-1.781,0.343-2.178,0.375c-0.412-0.827-0.702-1.968-0.877-3.421c-0.317-2.117-0.513-3.316-0.581-3.592
			c0.116-0.234,0.18-0.43,0.185-0.586c0.006-0.431-0.333-0.819-1.007-1.163c-0.682-0.346-1.017-0.615-1.014-0.812
			c0.002-0.232,0.398-0.58,1.191-1.035c-0.193-0.243-0.333-0.724-0.415-1.447c-0.087-0.725-0.267-1.211-0.534-1.449
			c-0.478,0.424-1.25,0.693-2.327,0.814c-1.078,0.116-1.794,0.291-2.146,0.521c0.021,3.055-0.481,5.103-1.517,6.144
			c-0.545-0.13-0.957,0.082-1.242,0.626c-0.401,0.66-0.742,1.044-1.015,1.154l0.344,0.421c-0.317,0.264-0.827,0.375-1.53,0.327
			c-1.091-0.063-1.678-0.09-1.757-0.09l-0.333-1.062l3.821-31.72c0.034-1.997,0.132-3.348,0.301-4.051
			c-0.048-1.762,0.359-2.848,1.226-3.268c0.545,0.361,1.227,0.552,2.046,0.562c0.662,0.011,1.703-0.124,3.115-0.412
			c1.413-0.291,2.391-0.436,2.94-0.428c1.913,0.037,2.747,1.424,2.505,4.161c-0.193,2.188,0.147,5.073,1.025,8.653
			c0.914,3.852,1.353,6.734,1.32,8.658c-0.01,0.584,0.18,1.799,0.135,2.392c-0.832,0.452-1.889,0.727-3.178,0.819
			c-1.137,0.062-2.291,0.121-3.462,0.182c-0.302-2.982-0.829-6.576-1.131-9.518c-0.37-3.532-0.829-6.436-1.376-8.717l-1.805,16.773
			c-0.146,1.439,0.51,2.178,1.955,2.203c0.467,0.008,0.914-0.105,1.353-0.327c0.352-0.114,0.837,0.147,1.45,0.784
			c-0.021,1.216,0.223,1.947,0.727,2.188c0.635-0.418,1.459-0.813,2.479-1.197c0.909-0.335,1.794-0.649,2.658-0.951
			c0.491,0.677,0.814,1.683,0.946,3.021c0.163,1.879,0.282,2.978,0.356,3.295c0.061,0.742,0.367,2.354,0.911,4.832
			c0.396,1.963,0.584,3.551,0.568,4.767C156.224,994.749,156.176,995.293,156.091,995.803"></path>
		<path d="M183.081,967.83c-0.047,0.116-0.056,0.798-0.037,2.053c-0.019,1.021-0.147,1.784-0.389,2.286
			c-0.29,0.781-0.443,1.892-0.47,3.34c-0.005,0.314,0.005,0.803,0.037,1.474c-0.014,0.663-0.021,1.152-0.026,1.464
			c-0.043,2.471-0.463,4.26-1.264,5.385c0.066,0.632,0.096,1.252,0.085,1.876c-0.032,1.966-0.702,4.595-2.008,7.9
			c-0.354,0.11-0.65,0.169-0.883,0.163c-0.47-0.01-0.809-0.277-1.012-0.811c-0.209-0.533-0.404-1.035-0.592-1.509
			c0.13-3.013,0.071-7.397-0.188-13.163l0.359-0.35c-0.259-1.02-0.376-2.155-0.354-3.413c0.016-0.898,0.124-2.206,0.333-3.929
			c0.201-1.715,0.314-3.004,0.327-3.869c0.014-0.547-0.002-1.08-0.031-1.585c-1.342,3.227-2.299,8.693-2.856,16.4l-0.488,1.163
			c-0.164,0.388-0.502,0.602-1.01,0.629c-0.15-0.27-0.307-0.416-0.462-0.416c-0.113-0.005-0.322,0.141-0.616,0.429
			c-0.301,0.285-0.55,0.409-0.742,0.367l-0.776,0.689c0.349,0.438,1.086,0.491,2.227,0.159c0.898-0.26,1.363,0.079,1.391,1.025
			c0.021,0.784-0.19,1.836-0.643,3.162c-0.457,1.321-0.685,2.314-0.695,2.98c-0.005,0.471,0.043,0.943,0.154,1.414l-4.059,0.639
			c-0.375-0.798-0.655-2.119-0.841-3.981c-0.183-1.868-0.465-3.189-0.84-3.979c0.237-0.27,0.359-0.558,0.364-0.88
			c0.006-0.272-0.105-0.685-0.327-1.236c-0.228-0.552-0.359-0.964-0.396-1.237c-0.029-0.43-0.167-1.474-0.412-3.128
			c-0.175-1.329-0.254-2.372-0.238-3.115c0.006-0.391,0.032-0.747,0.079-1.054c0-0.275-0.152-0.677-0.454-1.213
			c-0.301-0.533-0.449-0.92-0.444-1.154c0-0.193,0.08-0.367,0.241-0.523c-0.272-0.317-0.378-0.867-0.325-1.654
			c0.053-0.777-0.059-1.326-0.322-1.646c-0.576,1.515-0.883,3.57-0.925,6.151c-0.021,3.602-0.058,5.679-0.105,6.226l0.401,0.361
			l-0.412,0.342c0.288,1.416,0.412,3.221,0.378,5.41c-0.108,3.956-0.161,5.797-0.156,5.522c-0.558,0.502-1.321,0.743-2.296,0.724
			c-1.21-0.021-2.037,0.088-2.471,0.312c-0.491-0.869-0.727-1.987-0.703-3.358c0.017-1.06,0.196-2.344,0.534-3.871
			c-0.528-0.988-0.782-2.367-0.75-4.124c0.008-0.434,0.058-1.253,0.155-2.465c0.059-0.98,0.074-1.702,0.04-2.176
			c0.394-0.189,0.592-0.398,0.597-0.634c0.003-0.155-0.119-0.42-0.369-0.803c-0.243-0.373-0.367-0.658-0.365-0.851
			c0.006-0.24,0.164-0.474,0.48-0.703l-1.263-18.995c0.751-0.497,1.969-0.731,3.646-0.7c1.839,0.068,3.086-0.023,3.763-0.285
			c0.116-0.082,0.248-0.119,0.406-0.113c0.159,0,0.344,0.092,0.556,0.274c0.214,0.177,0.359,0.267,0.433,0.27
			c0.156,0.005,0.297-0.11,0.421-0.349l1.088,1.08c0.37,1.377,0.716,4.046,1.039,8.006c0.335,3.412,0.855,5.985,1.574,7.721
			c0.957-3.464,1.744-6.373,2.373-8.714l1.271-9.295l9.09-0.193c0.028,0.508,0.14,3.229,0.388,4.802
			c0.212,1.371,0.312,2.488,0.291,3.348c-0.011,0.984-0.164,1.859-0.454,2.637c0.307,0.438,0.454,0.988,0.443,1.654
			C183.564,966.86,183.401,967.404,183.081,967.83"></path>
		<path d="M201.725,988.413l0.003-0.059c-0.24,0.505-0.389,1.094-0.441,1.758c-0.045,0.428-0.059,1.035-0.031,1.814
			c0.023,0.906,0.031,1.535,0.031,1.884c-0.317-0.005-1.566-0.026-3.755-0.061c-1.329-0.026-2.521,0.095-3.585,0.349l-1.089-1.197
			c-0.322,0.307-0.444,0.566-0.364,0.762c-0.195-0.045-1.097-0.059-2.698-0.051c-1.252-0.018-2.188-0.15-2.804-0.398
			c-0.639,0.658-1.387,0.645-2.234-0.04c-0.305-0.235-0.339-0.64-0.093-1.202c0.243-0.565,0.169-0.985-0.212-1.268
			c0.053-1.25,0.23-3.188,0.505-5.809c0.274-2.344,0.423-4.18,0.446-5.514c0.032-1.8-0.095-3.527-0.38-5.176
			c0.438-0.421,0.925-0.629,1.474-0.621c0.629,0.013,1.366,0.319,2.215,0.916c1.194,0.846,1.814,1.264,1.852,1.264l0.347,0.42
			c0.04-0.113,0.248-0.742,0.621-1.871c0.206-0.736,0.505-1.221,0.903-1.45l0.344,0.359c0.158-0.074,0.671-0.441,1.543-1.086
			c0.671-0.462,1.215-1.548,1.606-1.543c0.434,0.008,0.835,0.248,1.221,0.727c0.657,0.362,1.073,1.771,1.273,2.497
			c0.201,0.724,0.399,1.442,0.584,2.153c-1.763,0.05-3.208,0.003-4.336-0.132c-0.285,0.425-0.674,0.486-1.179,0.185
			c-0.502-0.302-0.871-0.259-1.115,0.13c-0.01,0.705-0.036,1.973-0.065,3.817c-0.066,1.642-0.087,2.936-0.063,3.874
			c0.014,1.447,0.108,2.785,0.283,4.006c0.312,0.002,1.796,0.025,4.454,0.073C198.821,987.953,200.398,988.114,201.725,988.413
			 M201.847,960.276c-0.35,0.033-0.735,0.042-1.168,0.042c-0.898-0.019-2.093-0.159-3.57-0.415
			c-1.836-0.267-2.945-0.423-3.334-0.468c-0.562,0.806-0.854,1.964-0.88,3.45c-0.053,3.208-0.059,4.598-0.011,4.17
			c0.539,0.322,0.803,0.914,0.79,1.775c-0.056,1.176-0.071,1.783-0.034,1.815c-0.275,0.119-0.418,0.507-0.428,1.173
			c-0.429-0.164-0.872-0.486-1.332-0.956c-0.61-0.605-0.94,1.424-0.896,0.917l-0.37,1.207l-0.344-0.361
			c-0.319,0.031-0.851-0.135-1.606-0.497s-1.289-0.703-1.596-1.025c0.016-0.626,0.116-0.978,0.312-1.052l-0.745-0.835l-0.364,0.523
			c-0.434-4.079-0.328-11.71,0.211-16.009c1.482,0.259,3.121,0.422,4.92,0.496c1.21,0.053,2.906,0.088,5.097,0.08
			c2.5,0.008,4.302,0.013,5.394,0.037c0.462,0.438,0.689,1.009,0.676,1.711c-0.008,0.437-0.127,1.126-0.356,2.082
			C201.979,959.093,201.856,959.803,201.847,960.276"></path>
		<path d="M135.974,1023.929v-0.025c0,0.018-0.101,0.879-0.305,2.589c-0.103,1.046-0.351,1.874-0.755,2.474l-0.251-0.204
			c-0.476,0.993-1.121,1.599-1.939,1.815c-0.396,0.415-0.959,0.637-1.696,0.684c-0.438,0.029-1.453-0.103-3.039-0.383
			c-0.766-0.473-1.184-0.739-1.257-0.789c-0.484-0.362-0.714-0.735-0.69-1.11c-0.465-0.476-1.123-1.323-1.368-2.389
			c-0.299-1.176-0.479-1.244-0.759-1.659c-0.443,0.328-0.597-0.365-0.858-0.782l0.235-0.18c-0.144-0.103-0.22-0.22-0.228-0.349
			c-0.008-0.09,0.031-0.23,0.116-0.412c0.077-0.186,0.116-0.317,0.111-0.412c-0.006-0.148-0.096-0.275-0.262-0.378
			c0.177-0.919,0.338-2.31,0.488-4.159c0.312-0.172,0.46-0.496,0.444-0.982c-0.016-0.479,0.047-0.801,0.201-0.962
			c0.747-1.498,1.96-2.507,3.638-3.033c0.093,0.013,0.544,0.008,1.353-0.019c0.553-0.019,0.976,0.031,1.256,0.146
			c0.502-0.082,1.009,0.036,1.508,0.362c0.437,0.33,0.875,0.657,1.309,0.984c0.811,0.886,1.252,1.885,1.318,3
			c0.023,0.369-0.003,0.766-0.071,1.178c-0.603-0.021-1.03,0.378-1.284,1.191l-2.341,0.22c-0.249-0.356-0.396-0.835-0.431-1.429
			c-0.014-0.204-0.011-0.503,0-0.894c0.01-0.392,0.013-0.687,0-0.894c-0.035-0.613-0.18-1.099-0.431-1.455l-0.706,0.401
			c-0.282-0.114-0.431-0.283-0.443-0.505c-0.003-0.071,0.005-0.18,0.034-0.32c0.026-0.145,0.037-0.242,0.032-0.298
			c-0.012-0.241-0.228-0.386-0.648-0.438c-0.287,2.643-0.372,5.361-0.256,8.146c0.074,0.09,0.299,0.153,0.668,0.188
			c0.302,0.037,0.458,0.135,0.466,0.283c0.005,0.056-0.008,0.126-0.056,0.225l-0.228,0.18c0.124,0.2,0.201,0.473,0.22,0.827
			c0.008,0.185,0.002,0.47-0.019,0.851c-0.029,0.386-0.034,0.671-0.021,0.856c0.032,0.555,0.169,0.977,0.421,1.263
			c-0.024,0.409,0.143,0.687,0.499,0.835c0.225-0.088,0.428-0.138,0.612-0.148c0.714-0.039,1.211,0.35,1.49,1.176
			c0,0.021-0.005,0.156-0.01,0.418c0.005,0.15,0.079,0.245,0.225,0.293c0.312-0.186,0.467-0.518,0.462-1.002
			c-0.011-0.56,0.063-0.919,0.212-1.074c-0.035-0.262-0.19-0.635-0.46-1.121c-0.274-0.486-0.415-0.871-0.434-1.149
			c-0.016-0.298,0.069-0.584,0.265-0.853c-0.164-0.049-0.24-0.151-0.228-0.326c0.011-0.258,0.011-0.398,0.011-0.417
			C133.371,1023.644,134.663,1023.636,135.974,1023.929"></path>
		<path d="M146.582,1026.114h-0.029c-0.132,0.268-0.177,0.652-0.13,1.149c0.061,0.706,0.098,1.067,0.098,1.089
			c-0.107,0.037-0.248-0.016-0.428-0.161c-0.274,0.108-0.404,0.277-0.389,0.521c0,0.031,0.017,0.092,0.04,0.18
			c0.005,0.1,0.011,0.172,0.013,0.209c0.009,0.188-0.045,0.327-0.166,0.422c-0.314-0.172-0.724-0.282-1.229-0.33
			c-0.51-0.05-0.993-0.092-1.445-0.137c-0.006-2.359-0.325-4.661-0.945-6.912c0,0.016-0.017-0.217-0.045-0.701
			c0.002-0.346-0.077-0.592-0.233-0.742l-0.219,0.195c0-0.033,0.068-0.103,0.219-0.208c0.141-0.101,0.212-0.206,0.209-0.307
			c-0.008-0.05-0.021-0.108-0.042-0.156l-0.238-0.169c-0.398,0.13-0.586,0.455-0.555,0.967c0.021,0.35-0.121,0.59-0.406,0.732
			c0.11,0.071,0.166,0.177,0.174,0.296c0.008,0.071-0.006,0.169-0.031,0.29c-0.027,0.122-0.035,0.217-0.032,0.289
			c0.011,0.152,0.093,0.274,0.249,0.375c0.005,0.103,0.058,1.035,0.158,2.798c0.068,1.123,0.037,2.079-0.085,2.861l0.021,0.441
			c-0.153-0.005-0.325-0.005-0.513,0.005c-0.217,0.016-0.528,0.043-0.933,0.093s-0.706,0.085-0.896,0.095
			c-0.793,0.04-1.348-0.092-1.67-0.398l-0.336-9.679c-0.156-0.473-0.256-1.136-0.309-1.984l-0.106-1.862
			c-0.073-0.912-0.19-1.62-0.349-2.111c0.063-0.336,0.359-0.518,0.872-0.545c0.319-0.018,0.751,0.024,1.295,0.127
			c0.253-0.113,0.603-0.188,1.057-0.213c0.127-0.006,0.327-0.014,0.607-0.006c0.304-0.021,0.516-0.034,0.643-0.043
			c0.835-0.05,1.39-0.303,1.664-0.773c0.389-0.003,0.806,0.119,1.263,0.369c0.452,0.252,0.856,0.387,1.197,0.399
			c0.914,0.536,1.406,1.427,1.478,2.671c0.019,0.278-0.09,1.369-0.32,3.295l-1.566,1.363c0.262,0.489,0.587,1.555,0.959,3.192
			C145.47,1024.468,145.942,1025.472,146.582,1026.114 M143.691,1015.102l0.031,0.024c0.029,0.115,0.014-0.307-0.039-1.271
			c-0.032-0.465-0.201-0.801-0.513-1.012c-0.18,0.254,0.021,0.372-0.061,0.959c-0.082,0.584-0.429,0.418-0.632,0.674
			c-0.539-0.006-0.661,0.324-0.774-0.193c-0.243-0.832-0.449-0.758-0.451-0.773l-0.228,0.137c-0.082,0.072-0.175,0.158-0.274,0.246
			c-0.106,0.096-0.207,0.127-0.317,0.098c0.005,0.105-0.042,0.267-0.153,0.491c-0.104,0.225-0.153,0.381-0.148,0.463
			c0.014,0.158,0.133,0.27,0.375,0.343c-0.042,0.35-0.053,0.717-0.031,1.092c0.011,0.209,0.061,0.684,0.148,1.422
			c0.095,0.586,0.137,1.086,0.115,1.5c0.196,0.008,0.376,0.008,0.55-0.002c0.751-0.048,1.237-0.342,1.462-0.891
			c0.076-0.161,0.166-0.74,0.256-1.733C143.091,1015.926,143.318,1015.4,143.691,1015.102"></path>
		<path d="M158.755,1029.866c-0.307-0.082-0.635-0.119-0.979-0.098c-0.298,0.019-0.702,0.093-1.21,0.225
			c-0.575,0.137-0.967,0.219-1.179,0.248c-0.258-0.344-0.454-0.834-0.602-1.466c-0.249-0.923-0.396-1.445-0.444-1.562
			c0.061-0.108,0.085-0.195,0.079-0.268c-0.01-0.188-0.211-0.344-0.592-0.467c-0.386-0.127-0.576-0.235-0.581-0.322
			c-0.005-0.104,0.195-0.272,0.618-0.502c-0.119-0.099-0.206-0.302-0.277-0.621c-0.074-0.317-0.188-0.523-0.344-0.619
			c-0.245,0.207-0.663,0.357-1.25,0.452c-0.584,0.093-0.967,0.198-1.156,0.314c0.121,1.345,0,3.707-0.529,4.206
			c-0.304-0.037-0.522,0.069-0.66,0.322c-0.195,0.305-0.37,0.489-0.513,0.55l0.198,0.169c-0.166,0.127-0.438,0.199-0.822,0.207
			c-0.602,0.016-0.924,0.025-0.967,0.025l-0.222-0.451l0.906-15.565c-0.05-0.88-0.042-1.478,0.024-1.792
			c-0.09-0.773,0.1-1.271,0.557-1.486c0.31,0.14,0.689,0.192,1.142,0.166c0.362-0.023,0.928-0.127,1.688-0.31
			c0.761-0.18,1.295-0.28,1.594-0.296c1.054-0.066,1.556,0.513,1.521,1.73c-0.031,0.971,0.256,2.23,0.864,3.771
			c0.628,1.658,0.972,2.916,1.02,3.765c0.016,0.253,0.359,0.804,0.356,1.064c-0.441,0.238-1.012,0.394-1.715,0.489
			c-0.621,0.071-1.247,0.145-1.892,0.214c-0.267-1.3-0.874-2.886-1.144-4.164c-0.325-1.543-0.68-2.804-1.055-3.789l-0.407,7.456
			c-0.028,0.645,0.354,0.943,1.147,0.894c0.259-0.011,0.496-0.077,0.731-0.196c0.19-0.062,0.462,0.037,0.821,0.294
			c0.029,0.536,0.186,0.849,0.477,0.93c0.327-0.206,0.771-0.412,1.315-0.623c0.48-0.18,0.956-0.354,1.421-0.519
			c0.297,0.275,0.502,0.703,0.621,1.287c0.156,0.822,0.26,1.3,0.31,1.438c0.058,0.324,0.282,1.025,0.669,2.096
			c0.287,0.845,0.443,1.537,0.478,2.074C158.786,1029.398,158.78,1029.64,158.755,1029.866"></path>
		<path d="M167.627,1012.219l0.032-0.003c-0.26,0.381-0.587,0.452-0.988,0.215c-0.088-0.014-0.471,0.013-1.16,0.066
			c-0.573,0.033-0.996,0.008-1.255-0.08c-0.069,0-0.193,0.066-0.384,0.188c-0.182,0.127-0.319,0.19-0.404,0.195
			c-0.129,0.006-0.203-0.1-0.211-0.324c0-0.037-0.011-0.183-0.026-0.441c-0.011-0.175-0.093-0.291-0.249-0.352l-0.396,0.309
			c-0.127,0.099-0.186,0.191-0.18,0.299c0.005,0.088,0.079,0.207,0.219,0.365c0.135,0.158,0.214,0.271,0.241,0.335
			c0.005,0.051,0.047,0.83,0.135,2.333c0.034,0.951,0.208,1.713,0.522,2.281c0.082-0.09,0.272-0.141,0.587-0.151
			c0.309-0.011,0.513-0.079,0.615-0.203c0.201,0.18,0.545,0.188,1.02,0.034c0.471-0.158,0.814-0.108,1.025,0.156l-0.062,2.293
			c-0.196-0.021-0.481-0.119-0.856-0.288c-0.106,0.339-0.322,0.544-0.64,0.637c-0.127,0.042-0.488,0.079-1.089,0.116
			c0.014-0.107-0.076-0.214-0.28-0.322c-0.581,0.28-0.803,0.938-0.654,1.984c0.01-0.101,0.037,0.076,0.062,0.547
			c0.014,0.291-0.047,0.505-0.188,0.635c-0.364,0.053-0.824-0.029-1.387-0.246c-0.555-0.217-0.957-0.322-1.197-0.31
			c-0.103,0.009-0.2,0.021-0.282,0.045l-0.603,0.19l-0.962-10.471l-0.116-1.992c0.801-0.275,1.791-0.441,2.97-0.513
			c0.92-0.05,2.127-0.042,3.612,0.026c0.092-0.198,0.271,0.059,0.488,0.045c0.105-0.003,0.265,0.005,0.484,0.039
			c0.213,0.027,0.377,0.04,0.482,0.035c0.133-0.008,0.249-0.035,0.35-0.074l0.155-0.161c0.437,0.127,0.669,0.362,0.68,0.685
			c0.011,0.14-0.029,0.375-0.119,0.713c-0.087,0.33-0.124,0.587-0.111,0.761C167.516,1011.968,167.553,1012.103,167.627,1012.219
			 M163.864,1029.689c-0.227,0.121-0.578,0.19-1.046,0.222c-0.624,0.031-0.999,0.063-1.126,0.093
			c-0.068-0.074-0.147-0.017-0.291-0.561c-0.087-0.362-0.312-0.53-0.676-0.507c-0.085,0.005-0.188,0.018-0.317,0.042l-0.578,0.034
			l-0.31-5.297c0.317-0.159,0.705-0.249,1.179-0.281c0.452-0.025,0.851,0.021,1.202,0.139c-0.014,0.192,0.262,0.274,0.816,0.237
			l0.613-0.037C163.695,1025.267,163.917,1027.953,163.864,1029.689"></path>
		<path d="M180.474,1012.671l0.034,0.023c-0.304-0.016-1.271,0.051-2.021,0.146c-0.637,0.074-1.12,0.082-1.442,0.029
			c-0.312,0.211-0.428,0.494-0.341,0.856l0.195,0.115c-0.161,0.148-0.214,0.265-0.167,0.35l0.167,0.172
			c-0.034,3.072-0.045,4.764-0.029,5.1c0.048,0.808,0.146,1.521,0.286,2.137c-0.127,0.395-0.178,0.835-0.144,1.334
			c0.017,0.328,0.096,0.849,0.233,1.562c0.137,0.711,0.319,3.043,0.343,3.41c0.017,0.272,0.011,0.534-0.021,0.774
			c-0.294,0.124-0.608,0.19-0.954,0.214c-0.579,0.035-1.2-0.087-1.86-0.356c-0.082,0.074-0.172,0.153-0.274,0.238
			c-0.101,0.079-0.13,0.174-0.082,0.274c-0.212,0.063-0.505-0.021-0.883-0.256c-0.2-3.113-0.759-9.446-1.583-15.843
			c-0.287,0.256-0.813,0.042-1.371,0.108c-0.66,0.074-1.311-0.029-1.564,0.092c-0.322-0.349-0.248-0.446-0.285-1.017
			c-0.029-0.553-0.206-1.916-0.065-2.486c0.028-0.119,1.233-0.054,1.937-0.111c0.962-0.056,1.176,0.172,1.242,0.169
			c0.073-0.124,0.544-0.063,0.887-0.084c0.22,0.11,0.458-0.101,0.469,0.058c0.01,0.104,0,0.756-0.074,0.943
			c-0.074,0.185-0.111,0.319-0.104,0.412c0.011,0.204,0.158-0.101,0.508,0.019c0.391-0.002,0.787-0.019,1.191-0.045
			c0.457,0.045,0.975-0.124,0.933,0.262c0.079-0.105,0.13,0.087,0.782-0.178c0.48-0.216,0.771-0.787,0.676-1.176
			c-0.047-0.213,0.244-0.348,0.059-0.248c0.232-0.132,0.021-0.039,0.277-0.14c0.798,0.074,1.247-0.008,1.396-0.021
			c0.319-0.021,1.117,0.19,1.345,0.074c0.169,0.302,0.254,1.247,0.264,1.765C180.452,1012.179,180.474,1012.618,180.474,1012.671"></path>
		<path d="M190.886,1023.485l-0.002-0.026c-0.119,0.235-0.175,0.497-0.18,0.79c-0.016,0.193,0.005,0.46,0.047,0.806
			c0.043,0.392,0.069,0.674,0.08,0.825c-0.175,0.01-0.861,0.053-2.061,0.121c-0.725,0.042-1.377,0.14-1.945,0.296l-0.64-0.486
			c-0.163,0.153-0.222,0.267-0.174,0.349c-0.106-0.008-0.603,0.019-1.479,0.088c-0.688,0.042-1.205,0.018-1.552-0.066
			c-0.325,0.312-0.731,0.341-1.221,0.071c-0.177-0.095-0.208-0.27-0.098-0.523c0.119-0.262,0.063-0.444-0.158-0.552
			c-0.011-0.555,0.019-1.411,0.074-2.582c0.073-1.043,0.084-1.857,0.053-2.443c-0.045-0.793-0.175-1.551-0.386-2.268
			c0.222-0.201,0.486-0.312,0.782-0.33c0.343-0.019,0.761,0.084,1.247,0.319c0.684,0.323,1.035,0.486,1.057,0.486l0.206,0.164
			c0.019-0.05,0.108-0.333,0.274-0.846c0.085-0.335,0.232-0.56,0.444-0.677l0.2,0.146c0.085-0.042,0.354-0.22,0.809-0.542
			c0.352-0.229,0.59-1.066,0.809-1.08c0.232-0.011,0.468,0.076,0.688,0.27c0.378,0.135,0.671,1.08,0.809,1.395
			c0.135,0.31,0.264,0.616,0.396,0.923c-0.968,0.093-1.76,0.13-2.384,0.113c-0.138,0.198-0.354,0.237-0.634,0.127
			c-0.291-0.11-0.492-0.077-0.607,0.101c0.016,0.314,0.05,0.875,0.095,1.683c0.021,0.728,0.056,1.298,0.101,1.712
			c0.055,0.637,0.155,1.224,0.293,1.75c0.174-0.011,0.988-0.053,2.444-0.141C189.277,1023.398,190.149,1023.409,190.886,1023.485
			 M189.89,1011.297c-0.195,0.029-0.406,0.048-0.639,0.061c-0.497,0.026-1.149,0.019-1.974-0.04
			c-1.01-0.047-1.625-0.065-1.837-0.073c-0.282,0.383-0.316,0.689-0.282,1.339c0.084,1.422,0.129,2.035,0.14,1.845
			c0.307,0.116,0.476,0.372,0.494,0.748c0.011,0.522,0.026,0.787,0.045,0.804c-0.146,0.061-0.209,0.237-0.192,0.53
			c-0.235-0.05-0.494-0.183-0.764-0.37c-0.359-0.237-0.471,0.611-0.46,0.384l-0.164,0.522l-0.201-0.143
			c-0.168,0.027-0.47-0.023-0.893-0.152c-0.431-0.133-0.732-0.265-0.909-0.392c-0.016-0.274,0.021-0.437,0.132-0.479l-0.44-0.333
			l-0.177,0.24c-0.384-1.78-0.64-4.916-0.492-6.83c0.819,0.059,1.775-0.087,2.764-0.127c0.664-0.023,1.596-0.073,2.796-0.16
			c1.366-0.096,2.354-0.162,2.951-0.198c0.272,0.174,0.415,0.42,0.428,0.727c0.014,0.195-0.026,0.505-0.118,0.93
			C190.001,1010.56,189.877,1011.091,189.89,1011.297"></path>
		<path d="M201.577,1021.646h-0.032c-0.132,0.267-0.18,0.652-0.127,1.151c0.059,0.709,0.09,1.07,0.09,1.086
			c-0.103,0.045-0.248-0.01-0.428-0.155c-0.27,0.103-0.401,0.277-0.389,0.515c0.008,0.037,0.019,0.093,0.04,0.18
			c0.01,0.102,0.016,0.172,0.016,0.209c0.011,0.188-0.045,0.333-0.166,0.423c-0.312-0.172-0.725-0.282-1.229-0.327
			c-0.511-0.048-0.994-0.096-1.443-0.138c-0.011-2.356-0.328-4.658-0.945-6.912c0,0.019-0.02-0.217-0.045-0.702
			c0-0.342-0.074-0.596-0.238-0.738l-0.211,0.199c0-0.037,0.065-0.109,0.211-0.212c0.146-0.105,0.217-0.209,0.209-0.312
			c-0.006-0.051-0.019-0.101-0.043-0.15l-0.232-0.172c-0.404,0.132-0.586,0.451-0.555,0.969c0.016,0.344-0.124,0.59-0.406,0.725
			c0.1,0.079,0.166,0.182,0.174,0.304c0.006,0.066-0.008,0.164-0.031,0.285c-0.027,0.124-0.043,0.217-0.032,0.288
			c0.005,0.158,0.09,0.28,0.246,0.378c0.008,0.101,0.061,1.036,0.161,2.796c0.068,1.123,0.031,2.082-0.09,2.863l0.026,0.444
			c-0.15-0.011-0.325-0.011-0.519,0c-0.211,0.017-0.522,0.048-0.93,0.093c-0.406,0.05-0.7,0.084-0.898,0.098
			c-0.787,0.039-1.342-0.088-1.662-0.398l-0.338-9.68c-0.156-0.478-0.259-1.136-0.307-1.983l-0.11-1.863
			c-0.074-0.917-0.186-1.622-0.349-2.11c0.068-0.336,0.359-0.516,0.874-0.547c0.319-0.017,0.753,0.023,1.295,0.132
			c0.253-0.122,0.603-0.19,1.052-0.22c0.132-0.005,0.33-0.005,0.612-0.005c0.302-0.017,0.513-0.029,0.64-0.04
			c0.84-0.047,1.396-0.307,1.67-0.769c0.383-0.005,0.803,0.113,1.258,0.362c0.454,0.256,0.855,0.385,1.207,0.401
			c0.904,0.536,1.4,1.424,1.473,2.671c0.016,0.272-0.09,1.371-0.328,3.293l-1.566,1.363c0.267,0.488,0.586,1.556,0.961,3.196
			C200.456,1020.003,200.938,1021.007,201.577,1021.646 M198.676,1010.634l0.037,0.026c0.028,0.122,0.011-0.307-0.037-1.273
			c-0.032-0.466-0.206-0.801-0.513-1.007c-0.18,0.251-0.211-0.336-0.296,0.251c-0.085,0.581-0.228,1.004-0.429,1.255
			c-0.533-0.002-0.66-0.324-0.979-0.769c-0.201-0.286-0.299-0.037-0.299-0.058l-0.143,0.121c-0.085,0.074-0.172,0.156-0.274,0.248
			c-0.106,0.093-0.209,0.127-0.32,0.101c0.003,0.101-0.045,0.267-0.15,0.489c-0.104,0.222-0.15,0.375-0.15,0.462
			c0.013,0.153,0.135,0.267,0.375,0.341c-0.045,0.349-0.053,0.713-0.034,1.094c0.016,0.206,0.061,0.682,0.153,1.419
			c0.092,0.584,0.137,1.083,0.116,1.503c0.195,0.006,0.375,0.003,0.55-0.008c0.75-0.039,1.236-0.338,1.458-0.891
			c0.074-0.16,0.164-0.736,0.257-1.73C198.081,1011.458,198.311,1010.933,198.676,1010.634"></path>
		<path d="M95.029,977.015v0.021c-0.095,0.901-0.126,1.522-0.095,1.862c-0.138,0.059-0.317,0.064-0.536,0.027
			c-0.283-0.045-0.446-0.068-0.5-0.066c-0.121,0.006-0.219,0.051-0.296,0.135c-0.177-0.121-0.296-0.169-0.359-0.148
			c-0.166,0.102-0.242,0.249-0.237,0.437c0.005,0.079,0.037,0.212,0.095,0.407c0.056,0.195,0.088,0.335,0.09,0.43
			c0.006,0.127-0.019,0.323-0.074,0.59c-0.058,0.267-0.079,0.488-0.073,0.663c0.013,0.201,0.053,0.523,0.132,0.959
			c0.076,0.429,0.116,0.764,0.132,0.978c-0.09,0.432-0.126,0.864-0.101,1.298c0.027,0.534,0.17,1.249,0.437,2.146
			c0.045,0.014,0.093,0.016,0.143,0.016c0.108-0.006,0.24-0.087,0.389-0.23c0.147-0.15,0.274-0.229,0.386-0.232
			c0.076-0.002,0.164,0.014,0.256,0.053c0.283,0.912,0.428,1.504,0.447,1.771c0.005,0.121,0.002,0.253-0.003,0.396
			c-0.423,0.101-0.716-0.04-0.891-0.423c0.021-0.11-0.04-0.227-0.183-0.346l-0.467,0.494c0.454,0.068,0.637,0.426,0.547,1.055
			c-0.043,0.126-0.141,0.197-0.299,0.205c-0.265-0.005-0.389-0.008-0.373-0.008l-0.389-0.684l-0.152,0.195
			c-0.127-0.322-0.28-0.484-0.447-0.471c-0.095,0.008-0.259,0.082-0.494,0.232c-0.232,0.156-0.428,0.238-0.586,0.243
			c-0.125,0.009-0.248-0.026-0.381-0.101c-0.008-0.188-0.026-0.38-0.063-0.581c-0.031-0.2-0.138-0.33-0.312-0.386
			c-0.011-0.486,0.005-1.76,0.042-3.831c0.017-1.567,0-2.838-0.053-3.808c-0.021-0.406-0.048-0.806-0.079-1.194
			c-0.087-0.124-0.169-0.185-0.248-0.18c-0.063,0-0.156,0.074-0.28,0.201c-0.127,0.135-0.243,0.195-0.333,0.185
			c-0.006-0.156-0.079-0.409-0.214-0.756c-0.135-0.346-0.209-0.594-0.214-0.752c-0.014-0.268,0.084-0.5,0.295-0.701l0.545,0.143
			c0.225-0.309,0.307-0.832,0.272-1.568c-0.009-0.135-0.026-0.363-0.056-0.664c-0.032-0.304-0.051-0.528-0.059-0.671
			c-0.058-1.2,0.307-1.823,1.104-1.862c0.296-0.014,0.658,0.037,1.083,0.158l0.529,0.137c0.039,0.204,0.065,0.416,0.074,0.629
			c0.018,0.297,0.002,0.732-0.035,1.309c-0.045,0.576-0.061,0.99-0.045,1.26c0.021,0.42,0.096,0.804,0.223,1.139
			c0.127-0.008,0.322-0.073,0.589-0.203c0.267-0.132,0.462-0.198,0.589-0.206C94.718,976.7,94.893,976.8,95.029,977.015
			 M93.402,978.694l-0.032-0.539L93.204,978L93.402,978.694z"></path>
		<path d="M101.461,975.325h0.026c-0.053,0.424-0.121,0.852-0.193,1.274c-0.084,0.497-0.219,0.877-0.409,1.151
			c-0.037-0.013-0.228-0.105-0.576-0.274c-0.243-0.13-0.46-0.18-0.645-0.161c-0.143,0.92-0.214,2.17-0.232,3.755
			c-0.011,2.023-0.026,3.244-0.048,3.673c-0.237-0.021-0.414,0.053-0.528,0.227c-0.121,0.17-0.229,0.344-0.325,0.518
			c-0.045,0.102-0.065,0.188-0.061,0.265c0.006,0.124,0.113,0.243,0.322,0.359c0.211,0.114,0.317,0.243,0.322,0.384
			c-0.09,0.332-0.285,0.507-0.581,0.522c-0.138,0.008-0.386-0.037-0.731-0.127c-0.347-0.093-0.595-0.138-0.737-0.126l-0.333-6.707
			c0.132-0.182,0.185-0.301,0.169-0.361l-0.192-0.135c0.013-0.277,0.031-1.686,0.045-4.209c0.005-1.71,0.07-3.092,0.189-4.148
			c-0.016,0,0.468-0.029,1.448-0.093c0.61-0.031,1.004,0.132,1.173,0.502c0.006,0.344-0.031,0.925-0.1,1.747
			c-0.069,0.753-0.096,1.337-0.074,1.738c0.023,0.502,0.103,0.951,0.229,1.353C100.15,975.738,100.763,975.36,101.461,975.325
			 M103.791,976.761c0.042,0.623,0.085,1.234,0.114,1.828c0.129,2.595,0.09,5.369-0.119,8.328c-0.228,0.201-0.576,0.246-1.041,0.133
			c-0.465-0.109-0.804-0.062-1.015,0.137c-0.27-0.349-0.423-0.973-0.471-1.881c-0.063-1.313-0.098-1.992-0.101-2.045
			c-0.058-3.282,0.265-5.945,0.959-7.969C102.927,975.5,103.484,975.991,103.791,976.761"></path>
		<path d="M112.003,980.167c-0.1,0.208-0.145,0.433-0.132,0.668c0.011,0.232,0.023,0.457,0.037,0.676
			c-0.026,0.188-0.074,0.384-0.159,0.571c-0.145-0.037-0.264-0.053-0.354-0.05c-0.111,0.008-0.225,0.045-0.341,0.124
			c-0.108,0.076-0.198,0.113-0.262,0.113c-0.093,0.011-0.217-0.026-0.38-0.093l-1.084-1.593c0.037,0.465,0.143,0.877,0.317,1.231
			c0.085,0.182,0.172,0.367,0.259,0.549c-0.634,0.114-0.993,0.13-1.078,0.053l-0.153,0.201l-0.375-0.502
			c-0.291,0.362-0.359,0.891-0.201,1.588c0.201,0.759,0.206,1.309,0.037,1.641c0.232,0.35,0.519,0.513,0.846,0.497
			c0.143-0.003,0.265-0.061,0.364-0.158c0.153-0.384,0.307-0.767,0.46-1.149c0.228-0.465,0.483-0.709,0.761-0.725
			c0.223-0.005,0.477,0.105,0.77,0.344c0.352,0.121,0.533,0.288,0.541,0.489c0.006,0.126-0.073,0.327-0.237,0.61
			c-0.169,0.279-0.243,0.499-0.235,0.655c0,0.068,0.011,0.118,0.029,0.169c-0.228,0.166-0.428,0.423-0.607,0.758
			c-0.18,0.333-0.415,0.568-0.703,0.692c-0.256,0.251-0.492,0.376-0.711,0.386c-0.169,0.014-0.426-0.121-0.769-0.391
			c-0.344-0.272-0.661-0.404-0.962-0.391c-0.119-0.275-0.423-0.579-0.912-0.915c-0.486-0.338-0.784-0.697-0.9-1.086
			c0.005,0.034-0.003-0.093-0.016-0.375c-0.011-0.155-0.077-0.254-0.201-0.293l0.18-0.172c-0.24-0.008-0.362-0.146-0.375-0.407
			c-0.006-0.031-0.006-0.095-0.011-0.189c0.013-0.08,0.019-0.138,0.016-0.186c-0.011-0.19-0.073-0.32-0.185-0.394l-0.043-0.819
			c-0.021-0.426-0.105-0.724-0.259-0.903c0.153-0.996,0.312-1.992,0.466-2.983c0.253-1.16,0.629-1.752,1.131-1.775
			c0.073-0.008,0.155,0.006,0.237,0.029c0.441-0.447,0.985-0.68,1.628-0.714c0.7-0.04,1.479,0.177,2.33,0.637
			C111.433,977.678,111.845,978.872,112.003,980.167 M108.774,977.577l-0.15,0.195c-0.108,0.021-0.24-0.034-0.389-0.166l0.031,0.533
			c-0.242,0.27-0.338,0.672-0.293,1.221c0.045,0.936,0.071,1.391,0.066,1.361l0.703-0.014c0.338-0.188,0.494-0.502,0.47-0.94
			c-0.011-0.22-0.085-0.581-0.229-1.083C108.843,978.183,108.774,977.815,108.774,977.577"></path>
		<polygon fill-rule="evenodd" clip-rule="evenodd" points="117.499,1003.833 118.202,1004.234 120.562,998.009 119.776,997.745 
			117.409,1003.97 118.102,1004.409 		"></polygon>
		<polygon fill-rule="evenodd" clip-rule="evenodd" points="118.534,1002.966 118.252,1003.079 117.499,1003.833 118.102,1004.409 
			118.859,1003.616 118.562,1003.767 		"></polygon>
		<polygon fill-rule="evenodd" clip-rule="evenodd" points="124.261,1002.921 124.596,1002.659 118.534,1002.966 118.562,1003.767 
			124.622,1003.46 125.011,1003.172 		"></polygon>
		<polygon fill-rule="evenodd" clip-rule="evenodd" points="127.001,997.198 126.583,996.683 124.258,1002.921 125.008,1003.172 
			127.376,996.947 126.964,996.435 		"></polygon>
		<polygon fill-rule="evenodd" clip-rule="evenodd" points="121.225,997.396 120.923,997.547 127.001,997.195 126.964,996.435 
			120.913,996.706 120.611,996.854 		"></polygon>
		<polygon fill-rule="evenodd" clip-rule="evenodd" points="120.562,998.009 120.477,998.146 121.225,997.396 120.611,996.854 
			119.861,997.607 119.776,997.745 		"></polygon>
		<polygon fill-rule="evenodd" clip-rule="evenodd" points="125.595,1003.658 126.134,1003.423 124.834,1002.696 124.422,1003.429 
			125.759,1004.173 126.351,1003.909 125.558,1003.647 		"></polygon>
		<polygon fill-rule="evenodd" clip-rule="evenodd" points="128.132,997.914 127.925,997.423 125.558,1003.647 126.345,1003.909 
			128.712,997.685 128.496,997.198 		"></polygon>
		<polygon fill-rule="evenodd" clip-rule="evenodd" points="127.376,996.947 126.789,997.214 128.132,997.914 128.496,997.198 
			127.201,996.472 126.583,996.683 		"></polygon>
		<polygon points="120.188,997.888 120.151,997.872 120.902,997.122 126.524,996.847 126.583,996.686 127.001,996.82 
			127.376,996.947 127.347,997.016 128.335,997.565 128.71,997.685 128.557,998.091 131.308,1004.649 128.981,1010.882 
			125.97,1003.785 125.584,1003.946 125.561,1003.647 125.589,1003.571 124.641,1003.048 124.422,1003.429 124.303,1003.062 
			118.534,1003.341 117.784,1004.092 		"></polygon>
		<polygon fill-rule="evenodd" clip-rule="evenodd" points="128.606,1010.755 129.373,1010.721 126.36,1003.624 125.584,1003.948 
			128.597,1011.043 129.357,1011.009 128.569,1010.745 		"></polygon>
		<polygon fill-rule="evenodd" clip-rule="evenodd" points="130.958,1004.823 130.932,1004.522 128.569,1010.742 129.357,1011.009 
			131.72,1004.789 131.695,1004.487 		"></polygon>
		<polygon fill-rule="evenodd" clip-rule="evenodd" points="128.712,997.685 127.946,997.727 130.958,1004.823 131.698,1004.487 
			128.681,997.386 127.925,997.423 		"></polygon>
		<polygon fill-rule="evenodd" clip-rule="evenodd" fill="#FFFFFF" points="128.512,999.29 128.847,1000.03 128.972,1000.78 
			128.935,1001.519 128.721,1002.284 128.348,1003.034 127.833,1003.698 127.169,1004.312 126.369,1004.837 125.933,1005.024 
			125.499,1005.212 125.008,1005.299 124.56,1005.399 124.123,1005.46 123.65,1005.508 123.209,1005.447 122.76,1005.423 
			122.376,1005.336 121.959,1005.19 121.56,1005.024 121.211,1004.821 120.91,1004.597 120.574,1004.358 120.303,1004.06 
			120.075,1003.729 119.734,1002.992 119.612,1002.242 119.612,1001.491 119.861,1000.741 120.188,1000.012 120.712,999.314 
			121.375,998.696 122.213,998.188 122.611,997.988 123.085,997.809 123.534,997.708 123.988,997.61 124.461,997.56 
			124.897,997.497 125.333,997.56 125.785,997.589 126.2,997.727 126.612,997.858 126.984,997.988 127.37,998.196 127.688,998.39 
			128.01,998.665 128.231,998.992 		"></polygon>
		<polygon fill-rule="evenodd" clip-rule="evenodd" points="128.808,1000.517 129.148,1001.257 129.26,1002.046 129.226,1002.786 
			129.021,1003.511 128.687,1004.274 128.123,1004.961 127.508,1005.548 126.673,1006.06 126.221,1006.287 125.785,1006.479 
			125.336,1006.575 124.845,1006.668 124.411,1006.724 123.988,1006.749 123.534,1006.724 123.061,1006.649 122.673,1006.56 
			122.261,1006.422 121.896,1006.259 121.51,1006.05 121.198,1005.862 120.913,1005.595 120.622,1005.333 120.374,1004.958 
			120.024,1004.258 119.898,1003.503 119.951,1002.728 120.149,1002.001 120.484,1001.241 121,1000.575 121.66,999.964 
			122.498,999.449 122.947,999.228 123.372,999.071 123.835,998.939 124.326,998.85 124.749,998.825 125.185,998.765 
			125.626,998.825 126.07,998.85 126.498,998.952 126.908,999.087 127.275,999.254 127.674,999.429 127.97,999.653 128.311,999.891 
			128.533,1000.218 128.8,1000.554 		"></polygon>
		<polygon fill-rule="evenodd" clip-rule="evenodd" fill="#FFFFFF" points="129.021,1001.378 129.373,1002.081 129.484,1002.874 
			129.444,1003.61 129.246,1004.335 128.871,1005.085 128.345,1005.788 127.735,1006.377 126.895,1006.888 126.482,1007.125 
			126.01,1007.305 125.558,1007.399 125.071,1007.492 124.636,1007.55 124.21,1007.579 123.761,1007.55 123.285,1007.476 
			122.895,1007.39 122.487,1007.249 122.123,1007.085 121.737,1006.874 121.423,1006.684 121.098,1006.409 120.86,1006.124 
			120.601,1005.782 120.252,1005.085 120.12,1004.329 120.162,1003.593 120.374,1002.834 120.712,1002.067 121.232,1001.364 
			121.922,1000.802 122.728,1000.276 123.175,1000.052 123.613,999.864 124.062,999.764 124.548,999.679 124.987,999.616 
			125.409,999.589 125.896,999.626 126.3,999.679 126.726,999.779 127.138,999.914 127.534,1000.091 127.888,1000.292 
			128.2,1000.478 128.533,1000.715 128.757,1001.042 		"></polygon>
		<polygon fill-rule="evenodd" clip-rule="evenodd" points="129.32,1002.604 129.658,1003.349 129.785,1004.1 129.785,1004.85 
			129.531,1005.598 129.209,1006.324 128.644,1007.014 128.021,1007.638 127.186,1008.155 126.784,1008.356 126.308,1008.53 
			125.858,1008.631 125.409,1008.731 124.935,1008.778 124.495,1008.843 124.06,1008.778 123.607,1008.755 123.185,1008.655 
			122.768,1008.518 122.408,1008.351 122.022,1008.142 121.724,1007.912 121.423,1007.688 121.15,1007.387 120.886,1007.048 
			120.585,1006.324 120.424,1005.558 120.461,1004.821 120.675,1004.06 121.04,1003.341 121.562,1002.642 122.224,1002.025 
			123.026,1001.505 123.46,1001.317 123.898,1001.13 124.385,1001.04 124.834,1000.942 125.27,1000.876 125.735,1000.865 
			126.187,1000.892 126.599,1000.902 127.021,1001.005 127.434,1001.143 127.835,1001.317 128.185,1001.519 128.52,1001.756 
			128.823,1001.98 129.099,1002.284 129.308,1002.646 		"></polygon>
		<polygon fill-rule="evenodd" clip-rule="evenodd" fill="#FFFFFF" points="129.759,1003.423 130.107,1004.126 130.234,1004.876 
			130.222,1005.663 130.018,1006.388 129.647,1007.144 129.083,1007.83 128.472,1008.419 127.669,1008.942 127.22,1009.167 
			126.744,1009.345 126.298,1009.444 125.843,1009.542 125.373,1009.595 124.944,1009.622 124.495,1009.595 124.06,1009.532 
			123.634,1009.432 123.222,1009.286 122.86,1009.125 122.498,1008.966 122.157,1008.724 121.874,1008.462 121.6,1008.161 
			121.372,1007.839 121.023,1007.136 120.873,1006.335 120.913,1005.595 121.147,1004.884 121.486,1004.12 122.009,1003.423 
			122.662,1002.847 123.46,1002.315 123.909,1002.095 124.348,1001.909 124.823,1001.854 125.283,1001.716 125.722,1001.653 
			126.187,1001.642 126.63,1001.666 127.037,1001.719 127.46,1001.819 127.907,1001.968 128.274,1002.128 128.634,1002.298 
			128.972,1002.53 129.26,1002.792 129.537,1003.093 		"></polygon>
		<polygon fill-rule="evenodd" clip-rule="evenodd" points="130.097,1004.662 130.396,1005.386 130.562,1006.149 130.52,1006.896 
			130.309,1007.65 129.944,1008.366 129.421,1009.067 128.757,1009.68 127.957,1010.206 127.521,1010.394 127.048,1010.567 
			126.594,1010.668 126.145,1010.769 125.706,1010.829 125.235,1010.882 124.797,1010.818 124.348,1010.792 123.959,1010.708 
			123.51,1010.558 123.147,1010.394 122.8,1010.192 122.461,1009.957 122.16,1009.729 121.885,1009.429 121.66,1009.099 
			121.322,1008.361 121.155,1007.601 121.198,1006.86 121.452,1006.11 121.774,1005.386 122.3,1004.684 122.963,1004.073 
			123.798,1003.558 124.2,1003.36 124.675,1003.181 125.122,1003.079 125.573,1002.979 126.047,1002.935 126.482,1002.871 
			126.921,1002.935 127.336,1002.947 127.796,1003.062 128.208,1003.196 128.569,1003.36 128.924,1003.558 129.263,1003.796 
			129.558,1004.022 129.833,1004.324 		"></polygon>
		<polygon fill-rule="evenodd" clip-rule="evenodd" points="88.786,995.105 88.825,994.87 86.445,1001.127 87.198,1001.378 
			89.573,995.118 89.584,994.958 		"></polygon>
		<polygon fill-rule="evenodd" clip-rule="evenodd" points="88.723,994.796 88.735,994.757 88.786,995.108 89.587,994.958 
			89.497,994.596 89.513,994.556 		"></polygon>
		<polygon fill-rule="evenodd" clip-rule="evenodd" points="88.636,994.435 88.723,994.791 89.513,994.556 89.423,994.194 		"></polygon>
		
			<rect x="88.809" y="993.739" transform="matrix(-0.2963 -0.9551 0.9551 -0.2963 -834.1601 1373.7078)" fill-rule="evenodd" clip-rule="evenodd" width="0.339" height="0.821"></rect>
		<polygon fill-rule="evenodd" clip-rule="evenodd" points="88.45,993.745 88.45,993.745 88.535,994.104 89.322,993.866 
			89.235,993.501 89.222,993.538 		"></polygon>
		<polygon fill-rule="evenodd" clip-rule="evenodd" points="88.351,993.288 88.351,993.417 88.45,993.745 89.228,993.538 
			89.124,993.214 89.161,993.356 		"></polygon>
		<polygon fill-rule="evenodd" clip-rule="evenodd" points="89.148,993.143 88.36,992.999 88.353,993.288 89.161,993.356 
			89.172,993.068 88.39,992.926 89.135,993.177 		"></polygon>
		<polygon fill-rule="evenodd" clip-rule="evenodd" fill="#4D494A" points="89.83,1011.357 89.756,1010.956 88.915,1011.093 
			88.979,1011.532 		"></polygon>
		<polygon fill-rule="evenodd" clip-rule="evenodd" points="91.568,1006.137 91.595,1005.936 89.232,1012.158 89.978,1012.407 
			92.345,1006.189 92.329,1005.976 		"></polygon>
		<polygon fill-rule="evenodd" clip-rule="evenodd" points="91.511,1005.698 91.573,1006.137 92.332,1005.976 92.271,1005.537 
			91.468,1005.688 		"></polygon>
		<polygon fill-rule="evenodd" clip-rule="evenodd" points="91.394,1005.286 91.471,1005.688 92.271,1005.534 92.155,1005.124 		"></polygon>
		<polygon fill-rule="evenodd" clip-rule="evenodd" points="91.296,1004.837 91.32,1004.884 91.394,1005.286 92.157,1005.124 
			92.097,1004.684 92.118,1004.736 		"></polygon>
		<polygon fill-rule="evenodd" clip-rule="evenodd" points="92.047,1004.459 91.246,1004.358 91.294,1004.834 92.12,1004.736 
			92.055,1004.3 91.257,1004.2 		"></polygon>
		<path fill="#4D494A" d="M86.453,999.883l-0.381,0.121L86.453,999.883z"></path>
		<polygon fill="#4D494A" points="86.847,1001.19 86.86,1001.151 87.056,1001.167 87.198,1001.378 86.85,1001.262 		"></polygon>
		<polygon points="85.985,999.64 86.384,999.563 86.4,999.274 88.772,993.013 88.763,993.056 88.763,993.306 88.823,993.618 
			88.952,993.993 89.048,994.312 89.135,994.681 89.201,994.991 89.573,995.118 87.198,1001.378 87.056,1001.164 86.86,1001.151 
			86.847,1001.19 86.85,1001.262 87.198,1001.378 86.854,1001.354 86.86,1001.64 86.617,1001.344 86.421,1001.325 86.374,1000.977 
			86.517,1000.95 86.67,1000.543 86.273,1000.654 86.157,1000.36 86.072,999.999 86.453,999.883 86.072,999.999 86.083,999.964 		
			"></polygon>
		<polygon points="86.833,1000.839 104.228,1000.269 104.679,1000.3 104.753,1000.318 105.181,1000.419 105.218,1000.433 
			105.665,1000.583 106.101,1000.772 106.14,1000.78 106.555,1001.05 106.629,1001.074 106.954,1001.344 107.055,1001.423 
			107.29,1001.711 107.315,1001.761 107.479,1002.022 107.49,1002.112 106.724,1002.343 106.603,1002.149 106.592,1002.187 
			106.392,1001.911 106.394,1001.911 106.13,1001.7 106.19,1001.761 105.768,1001.539 105.768,1001.531 105.323,1001.344 
			104.954,1001.225 104.525,1001.119 104.603,1001.148 104.203,1001.098 104.203,1001.062 86.86,1001.64 		"></polygon>
		<polygon points="106.706,1002.351 106.724,1002.343 106.767,1002.411 		"></polygon>
		<polygon fill-rule="evenodd" clip-rule="evenodd" points="115.998,1016.976 115.998,1016.724 113.623,1022.983 114.41,1023.247 
			116.786,1016.991 116.786,1016.737 		"></polygon>
		<polygon fill-rule="evenodd" clip-rule="evenodd" points="109.128,996.191 109.078,996.091 115.998,1016.976 116.786,1016.737 
			109.868,995.856 109.853,995.761 		"></polygon>
		<polygon fill-rule="evenodd" clip-rule="evenodd" points="108.991,995.979 108.97,995.93 109.123,996.191 109.853,995.761 
			109.694,995.499 109.654,995.491 108.954,995.967 		"></polygon>
		<polygon fill-rule="evenodd" clip-rule="evenodd" points="108.827,995.716 108.764,995.655 108.954,995.967 109.657,995.485 
			109.393,995.153 109.329,995.085 		"></polygon>
		<polygon fill-rule="evenodd" clip-rule="evenodd" points="108.553,995.542 108.491,995.478 108.83,995.716 109.329,995.087 
			108.991,994.854 108.928,994.786 		"></polygon>
		<polygon fill-rule="evenodd" clip-rule="evenodd" points="108.18,995.285 108.143,995.274 108.553,995.542 108.928,994.786 
			108.505,994.562 108.468,994.548 		"></polygon>
		<polygon fill-rule="evenodd" clip-rule="evenodd" points="107.781,995.11 107.691,995.124 108.177,995.285 108.468,994.554 
			108.029,994.36 107.992,994.35 107.73,995.138 		"></polygon>
		<polygon fill-rule="evenodd" clip-rule="evenodd" points="107.329,994.966 107.278,994.986 107.728,995.138 107.992,994.35 
			107.543,994.199 107.315,995 		"></polygon>
		<polygon fill-rule="evenodd" clip-rule="evenodd" points="106.978,994.886 106.903,994.862 107.315,995 107.543,994.199 
			107.078,994.085 107.041,994.072 		"></polygon>
		<polygon fill-rule="evenodd" clip-rule="evenodd" points="106.576,994.836 106.568,994.873 106.978,994.886 107.041,994.075 
			106.605,994.009 106.555,994.038 		"></polygon>
		<polygon fill-rule="evenodd" clip-rule="evenodd" points="89.61,995.132 89.185,995.407 106.576,994.836 106.555,994.038 
			89.201,994.616 88.823,994.87 89.573,995.118 		"></polygon>
		<polygon fill="#4D494A" points="93.978,1014.163 93.92,1014.132 93.957,1014.113 		"></polygon>
		<path fill="#4D494A" d="M103.374,1016.978l-0.074,0.846L103.374,1016.978z"></path>
		<path d="M88.979,1011.532l0.076,0.401l0.15,0.425l0.19,0.312l1.062,0.562l1.062,0.568l1.021,0.55l1.041,0.513l0.036,0.013
			l1.053,0.476l1.046,0.476l1.136,0.462l1.146,0.426l0.04,0.014l1.224,0.33l1.226,0.325l0.037,0.008l1.353,0.203l1.385,0.214
			l0.037,0.014l1.512,0.09l0.053-0.029l1.611,0.04l1.723-0.051l1.826-0.098l0.378-0.251l2.359-6.22l-0.401-0.558l0.028,0.807
			l-0.129-0.156l0.09-0.23l-0.262,0.014l-0.111-0.146l-0.061,0.159l-1.351,0.084h-1.754l-1.611-0.039l-1.475-0.074l-1.438-0.188
			l-1.334-0.243l-1.229-0.319l-1.224-0.331l-1.149-0.425l-1.115-0.415l-1.044-0.474l-1.038-0.515l-1.072-0.531l-1.025-0.544
			l-1.028-0.555l-0.708-0.376l0.023-0.061l-0.375-0.13l-0.1-0.446l-0.074-0.404l-0.032-0.135l0.283-0.615l-0.396-0.132l-0.019-0.006
			l-0.375-0.121l-2.362,6.22l-0.026,0.198l0.063,0.438L88.979,1011.532z M89.27,1010.546l0.016,0.077l-0.042-0.016L89.27,1010.546z"></path>
		<polygon fill-rule="evenodd" clip-rule="evenodd" points="110.561,1011.653 112.389,1011.554 112.36,1010.747 110.534,1010.848 		
			"></polygon>
		<polygon fill-rule="evenodd" clip-rule="evenodd" points="108.838,1011.701 110.561,1011.653 110.539,1010.848 108.812,1010.903 
					"></polygon>
		<polygon fill-rule="evenodd" clip-rule="evenodd" points="107.189,1011.651 107.226,1011.664 108.838,1011.701 108.816,1010.903 
			107.2,1010.86 107.25,1010.84 107.179,1011.693 		"></polygon>
		<polygon fill-rule="evenodd" clip-rule="evenodd" points="105.638,1011.554 105.678,1011.566 107.179,1011.686 107.25,1010.835 
			105.738,1010.747 105.775,1010.761 		"></polygon>
		<polygon fill-rule="evenodd" clip-rule="evenodd" points="104.237,1011.376 105.638,1011.554 105.775,1010.761 104.389,1010.546 
					"></polygon>
		<polygon fill-rule="evenodd" clip-rule="evenodd" points="102.864,1011.122 102.898,1011.136 104.237,1011.376 104.386,1010.546 
			103.001,1010.333 103.036,1010.346 		"></polygon>
		<polygon fill-rule="evenodd" clip-rule="evenodd" points="101.641,1010.798 102.864,1011.122 103.036,1010.346 101.815,1010.021 
			101.624,1010.835 		"></polygon>
		<polygon fill-rule="evenodd" clip-rule="evenodd" points="100.364,1010.496 100.403,1010.51 101.624,1010.835 101.815,1010.021 
			100.592,1009.696 100.628,1009.709 		"></polygon>
		<polygon fill-rule="evenodd" clip-rule="evenodd" points="99.215,1010.071 99.215,1010.071 100.364,1010.496 100.631,1009.709 
			99.477,1009.28 99.517,1009.294 99.178,1010.058 		"></polygon>
		<polygon fill-rule="evenodd" clip-rule="evenodd" points="98.079,1009.608 99.178,1010.058 99.517,1009.294 98.42,1008.843 		"></polygon>
		<polygon fill-rule="evenodd" clip-rule="evenodd" points="97.03,1009.133 98.079,1009.608 98.42,1008.843 97.354,1008.409 		"></polygon>
		<polygon fill-rule="evenodd" clip-rule="evenodd" points="95.954,1008.604 95.981,1008.657 97.03,1009.13 97.354,1008.406 
			96.279,1007.875 96.316,1007.894 95.944,1008.644 		"></polygon>
		<polygon fill-rule="evenodd" clip-rule="evenodd" points="94.919,1008.092 95.944,1008.644 96.316,1007.894 95.28,1007.376 
			94.908,1008.129 		"></polygon>
		<polygon fill-rule="evenodd" clip-rule="evenodd" points="93.894,1007.542 94.908,1008.132 95.28,1007.376 94.258,1006.826 
			93.856,1007.532 		"></polygon>
		<polygon fill-rule="evenodd" clip-rule="evenodd" points="92.831,1006.974 93.856,1007.532 94.258,1006.826 93.233,1006.274 		"></polygon>
		<polygon fill-rule="evenodd" clip-rule="evenodd" points="92.345,1006.189 91.77,1006.411 92.831,1006.974 93.23,1006.274 
			92.171,1005.712 91.595,1005.936 		"></polygon>
		<polygon fill-rule="evenodd" clip-rule="evenodd" points="200.665,994.91 198.29,1001.167 206.042,1003.764 207.847,999.608 
			207.899,999.206 207.91,998.794 207.847,998.355 207.696,997.933 207.448,997.552 207.247,997.147 206.922,996.754 
			206.587,996.392 206.235,996.064 205.849,995.722 205.45,995.428 205.062,995.211 204.687,994.966 204.245,994.775 
			203.862,994.559 203.487,994.435 203.151,994.323 202.745,994.273 202.388,994.233 202.039,994.284 201.688,994.334 
			201.315,994.461 200.99,994.683 		"></polygon>
		<polygon fill-rule="evenodd" clip-rule="evenodd" points="205.698,1003.563 206.185,1003.349 198.427,1000.755 198.163,1001.544 
			205.923,1004.14 206.449,1003.938 		"></polygon>
		<polygon points="85.985,999.265 86.02,999.15 88.388,992.926 89.135,993.177 86.847,999.319 86.797,999.576 86.786,999.489 
			85.985,999.64 85.972,999.55 		"></polygon>
		<polygon fill="#4D494A" points="124.036,1013.987 123.894,1014.073 123.886,1014.058 		"></polygon>
		<path d="M86.273,1000.654l0.087,0.362l0.014-0.04l0.604-0.127l-0.155,0.401l17.394-0.57l0.409,0.019l0.452,0.146l0.449,0.15
			l0.452,0.156l0.412,0.256l0.338,0.24l0.235,0.288l0.147,0.294l-0.409,0.121l6.92,20.884l0.404,0.011l0.011,0.254h0.618
			l0.592-0.014l0.536,0.014l0.488-0.09l0.497-0.125l0.502-0.25l0.46-0.387l0.55-0.525l0.016-0.037l0.31-0.438l0.364-0.462
			l0.415-0.489l0.285-0.489l0.362-0.586l0.375-0.505l0.31-0.563l0.401-0.572l0.322-0.477l0.465-0.512l0.38-0.502l0.434-0.439
			l0.389-0.412l0.412-0.361l0.398-0.322l0.461-0.268l0.103-0.047l-0.296-0.285l0.296,0.285l0.462-0.516l0.429-0.398l0.375-0.376
			l0.396-0.325l0.391-0.285l0.409-0.242l0.362-0.209l0.399-0.198l0.454-0.106l0.437-0.188l0.449-0.095l0.522-0.082l0.576-0.098
			l0.634-0.037l0.692-0.063l0.677-0.023l0.034,0.01l75.065-5.614l0.434-0.061l0.404-0.079l0.361-0.088l0.375-0.127l0.344-0.174
			l0.367-0.211l0.301-0.277l0.35-0.294l0.074-0.105l1.312-3.065l-0.687-0.436l0.306,0.288l-0.047,0.04l-0.333-0.228l-0.327,0.764
			l-0.225,0.135l-0.286,0.113l-0.341,0.138l-0.312,0.061l-0.401,0.076l-0.395,0.074l-75.102,5.609l-0.48,0.048l-0.46,0.013
			l-0.46,0.014l-0.486,0.084h-0.502l-0.434,0.059l-0.48,0.059l-0.434,0.061l-0.491,0.084l-0.438,0.064l-0.446,0.095l-0.5,0.13
			l-0.449,0.1l-0.478,0.17l-0.474,0.182l-0.449,0.223l-0.888,0.541l-0.898,0.824l-0.951,0.978l-0.916,1.11l-0.886,1.162
			l-0.761,1.044l-0.75,0.999l-0.627,0.75l-0.361,0.09l-0.312,0.061l-0.386,0.039h-0.378h-0.372l-0.327-0.023l-0.413-0.016
			l-0.359-0.037l-6.896-20.834l-0.148-0.301l-0.237-0.288l-0.339-0.243l-0.449-0.271l-0.438-0.191l-0.449-0.147l-0.423-0.103
			l-0.417-0.011l-17.378,0.53l-2.09,5.51l-0.011-0.074L86.273,1000.654z M211.171,1001.229l0.026-0.053l0.285,0.272
			L211.171,1001.229z"></path>
		<polygon fill-rule="evenodd" clip-rule="evenodd" points="208.547,1002.765 208.996,1002.665 209.397,1002.588 209.757,1002.501 
			210.132,1002.377 210.481,1002.202 210.846,1001.988 211.134,1001.751 211.482,1001.444 210.883,1000.876 210.618,1001.164 
			210.344,1001.362 210.082,1001.526 209.794,1001.637 209.519,1001.714 209.191,1001.812 208.849,1001.861 208.462,1001.901 		"></polygon>
		<polygon fill-rule="evenodd" clip-rule="evenodd" points="133.495,1008.343 208.547,1002.765 208.46,1001.901 133.397,1007.519 		
			"></polygon>
		<polygon fill-rule="evenodd" clip-rule="evenodd" points="126.134,1009.68 126.569,1009.495 127.001,1009.345 127.508,1009.181 
			127.933,1009.032 128.396,1008.893 128.831,1008.831 129.268,1008.771 129.754,1008.679 130.155,1008.604 130.62,1008.594 
			131.096,1008.544 131.571,1008.493 132.044,1008.443 132.467,1008.419 132.982,1008.383 133.495,1008.343 133.397,1007.519 
			132.916,1007.569 132.446,1007.619 131.946,1007.619 131.471,1007.664 131.009,1007.68 130.56,1007.78 130.097,1007.794 
			129.585,1007.83 129.13,1007.931 128.681,1008.031 128.197,1008.113 127.695,1008.242 127.27,1008.388 126.757,1008.554 
			126.247,1008.718 125.796,1008.942 		"></polygon>
		<polygon fill-rule="evenodd" clip-rule="evenodd" points="119.407,1017.115 119.57,1017.001 119.911,1016.613 120.21,1016.217 
			120.569,1015.751 120.944,1015.249 121.372,1014.727 121.764,1014.183 122.196,1013.624 122.636,1013.06 123.085,1012.457 
			123.547,1011.944 123.996,1011.469 124.458,1010.956 124.847,1010.546 125.333,1010.206 125.732,1009.878 126.134,1009.68 
			125.796,1008.942 125.283,1009.23 124.847,1009.542 124.332,1009.954 123.846,1010.417 123.394,1010.896 122.947,1011.371 
			122.445,1011.994 122.009,1012.558 121.567,1013.12 121.132,1013.683 120.746,1014.22 120.323,1014.745 119.945,1015.249 
			119.584,1015.715 119.285,1016.114 119.011,1016.438 119.158,1016.359 		"></polygon>
		<polygon fill-rule="evenodd" clip-rule="evenodd" fill="#FFFFFF" points="105.03,994.487 106.576,994.461 106.703,994.461 
			93.396,990.011 92.726,990.413 105.017,994.524 		"></polygon>
		<polygon fill-rule="evenodd" clip-rule="evenodd" fill="#FFFFFF" points="105.03,994.487 89.198,994.991 89.135,994.681 
			89.048,994.321 88.952,993.995 88.825,993.618 88.763,993.301 88.763,993.056 88.86,992.751 89.135,992.55 89.785,992.101 
			90.512,991.673 91.235,991.251 91.962,990.825 92.649,990.387 92.726,990.413 105.017,994.524 		"></polygon>
		<polygon fill="#FFFFFF" points="95.405,1004.12 106.19,1003.516 110.413,1005.22 111.903,1009.64 112.353,1011.17 
			110.565,1011.278 108.816,1011.278 107.2,1011.239 105.726,1011.165 104.288,1010.978 102.954,1010.734 101.726,1010.415 
			100.502,1010.084 99.354,1009.656 98.237,1009.244 97.196,1008.771 96.155,1008.256 95.083,1007.725 94.055,1007.181 
			93.032,1006.626 91.97,1006.06 91.87,1005.613 91.796,1005.209 91.695,1004.763 91.632,1004.321 		"></polygon>
		<polygon fill-rule="evenodd" clip-rule="evenodd" fill="#FFFFFF" points="122.572,1005.36 122.723,1005.534 124.11,1006.377 
			124.56,1005.647 123.172,1004.811 123.312,1005.024 122.572,1005.36 122.622,1005.46 122.723,1005.534 		"></polygon>
		<polygon fill-rule="evenodd" clip-rule="evenodd" fill="#FFFFFF" points="110.235,1005.618 110.001,1005.328 111.977,1011.292 
			112.762,1011.054 110.788,1005.091 110.576,1004.853 110.788,1005.091 110.725,1004.903 110.576,1004.853 		"></polygon>
		<polygon fill-rule="evenodd" clip-rule="evenodd" fill="#FFFFFF" points="106.229,1003.901 106.026,1003.878 110.235,1005.613 
			110.576,1004.853 106.37,1003.114 106.201,1003.101 106.37,1003.114 106.291,1003.087 106.201,1003.101 		"></polygon>
		<polygon fill-rule="evenodd" clip-rule="evenodd" fill="#FFFFFF" points="92.058,1004.298 91.658,1004.747 106.228,1003.901 
			106.201,1003.101 91.632,1003.946 91.246,1004.361 91.632,1003.946 91.169,1003.96 91.246,1004.361 		"></polygon>
		<polygon fill-rule="evenodd" clip-rule="evenodd" fill="#FFFFFF" points="92.171,1005.714 92.329,1005.976 92.321,1005.762 
			92.271,1005.537 92.255,1005.32 92.194,1005.136 92.185,1004.924 92.134,1004.696 92.07,1004.509 92.055,1004.295 
			91.246,1004.358 91.246,1004.609 91.283,1004.874 91.347,1005.059 91.356,1005.272 91.421,1005.46 91.471,1005.688 
			91.558,1005.923 91.568,1006.137 91.77,1006.411 91.568,1006.137 91.632,1006.324 91.77,1006.411 		"></polygon>
		<polygon fill-rule="evenodd" clip-rule="evenodd" fill="#FFFFFF" points="111.987,1011.252 112.32,1010.742 110.539,1010.848 
			108.812,1010.903 107.25,1010.84 105.735,1010.747 104.386,1010.546 103.036,1010.346 101.815,1010.023 100.628,1009.706 
			99.479,1009.28 98.417,1008.843 97.354,1008.406 96.316,1007.894 95.28,1007.376 94.258,1006.826 93.233,1006.276 
			92.171,1005.714 91.77,1006.411 92.831,1006.978 93.856,1007.532 94.908,1008.129 95.944,1008.644 97.03,1009.133 
			98.079,1009.608 99.212,1010.071 100.364,1010.496 101.624,1010.835 102.864,1011.122 104.237,1011.376 105.675,1011.566 
			107.176,1011.693 108.838,1011.701 110.561,1011.653 112.426,1011.566 112.762,1011.054 112.426,1011.566 112.938,1011.526 
			112.762,1011.054 111.977,1011.292 		"></polygon>
		<polygon fill-rule="evenodd" clip-rule="evenodd" fill="#FFFFFF" points="133.395,1007.519 132.845,1007.545 132.231,1007.632 
			131.683,1007.65 131.083,1007.706 130.509,1007.802 129.896,1007.894 129.286,1007.981 128.694,1008.113 128.104,1008.256 
			127.598,1008.419 127.037,1008.604 126.509,1008.806 126.06,1009.032 125.521,1009.268 125.082,1009.582 124.681,1009.904 
			125.185,1010.533 125.568,1010.243 125.943,1009.991 126.355,1009.757 126.831,1009.582 127.296,1009.317 127.796,1009.194 
			128.382,1009.056 128.895,1008.893 129.458,1008.831 129.96,1008.708 130.56,1008.657 131.13,1008.557 131.746,1008.47 
			132.346,1008.419 132.905,1008.356 133.495,1008.343 		"></polygon>
		<polygon fill-rule="evenodd" clip-rule="evenodd" fill="#FFFFFF" points="208.46,1001.901 133.395,1007.519 133.495,1008.343 
			208.547,1002.765 		"></polygon>
		<polygon fill-rule="evenodd" clip-rule="evenodd" fill="#FFFFFF" points="209.86,997.317 210.169,997.753 210.494,998.154 
			210.645,998.583 210.883,998.995 211.009,999.375 211.046,999.764 211.057,1000.099 211.036,1000.419 210.943,1000.688 
			210.819,1000.937 210.658,1001.177 210.37,1001.412 210.071,1001.565 209.593,1001.735 209.099,1001.861 208.462,1001.901 
			208.547,1002.765 209.236,1002.702 209.833,1002.524 210.356,1002.324 210.819,1002.062 211.245,1001.788 211.543,1001.386 
			211.707,1001.024 211.854,1000.575 211.845,1000.107 211.87,999.658 211.771,999.206 211.606,998.696 211.419,998.255 
			211.171,997.753 210.846,997.229 210.521,996.828 		"></polygon>
		<polygon fill-rule="evenodd" clip-rule="evenodd" fill="#FFFFFF" points="200.911,993.034 201.59,993.008 202.274,993.073 
			202.972,993.222 203.651,993.321 204.288,993.533 204.925,993.75 205.534,994.038 206.113,994.312 206.71,994.636 207.26,994.986 
			207.85,995.349 208.274,995.702 208.722,996.104 209.16,996.54 209.519,996.952 209.86,997.317 210.521,996.828 210.132,996.366 
			209.696,995.93 209.258,995.494 208.774,995.079 208.235,994.69 207.698,994.3 207.149,993.948 206.522,993.573 205.876,993.271 
			205.212,993.008 204.536,992.786 203.825,992.548 203.125,992.397 202.411,992.284 201.598,992.215 200.885,992.23 		"></polygon>
		<polygon fill-rule="evenodd" clip-rule="evenodd" fill="#FFFFFF" points="134.496,995.325 200.916,993.034 200.885,992.23 
			134.51,994.534 		"></polygon>
		<polygon fill-rule="evenodd" clip-rule="evenodd" fill="#FFFFFF" points="124.009,993.649 124.638,993.905 125.296,994.046 
			125.938,994.255 126.599,994.395 127.296,994.548 127.952,994.72 128.659,994.831 129.299,994.923 129.962,995.058 
			130.646,995.121 131.323,995.219 131.986,995.24 132.623,995.325 133.3,995.298 133.907,995.335 134.496,995.325 134.51,994.534 
			133.881,994.534 133.272,994.495 132.697,994.474 132.047,994.421 131.397,994.374 130.747,994.321 130.11,994.233 
			129.437,994.13 128.776,993.995 128.137,993.905 127.486,993.731 126.81,993.631 126.16,993.456 125.474,993.264 124.897,993.113 
			124.261,992.901 124.001,993.694 		"></polygon>
		<polygon fill-rule="evenodd" clip-rule="evenodd" fill="#FFFFFF" points="101.606,987.501 102.745,987.337 103.817,987.237 
			104.843,987.163 105.783,987.103 106.671,987.062 107.47,987.163 108.294,987.189 108.983,987.25 109.694,987.364 
			110.354,987.504 110.978,987.626 111.544,987.815 112.141,988.017 112.616,988.215 113.205,988.455 113.668,988.692 
			114.204,988.952 114.74,989.222 115.267,989.522 115.792,989.823 116.315,990.12 116.864,990.474 117.403,990.737 117.99,991.097 
			118.641,991.398 119.264,991.773 119.962,992.048 120.638,992.397 121.399,992.738 122.226,993.019 123.101,993.388 
			124.001,993.694 124.261,992.901 123.359,992.601 122.477,992.263 121.737,991.975 120.963,991.673 120.252,991.312 
			119.64,991.026 119.013,990.647 118.402,990.36 117.8,990.035 117.24,989.724 116.717,989.422 116.167,989.067 115.639,988.772 
			115.105,988.505 114.563,988.241 114.08,987.953 113.541,987.691 112.954,987.454 112.405,987.227 111.808,987.028 
			111.165,986.814 110.508,986.675 109.831,986.579 109.092,986.413 108.331,986.325 107.543,986.312 106.629,986.299 
			105.757,986.299 104.748,986.339 103.72,986.413 102.629,986.545 101.503,986.675 101.569,987.485 		"></polygon>
		<polygon fill-rule="evenodd" clip-rule="evenodd" fill="#FFFFFF" points="89.349,992.912 90.001,992.464 90.723,992.043 
			91.452,991.612 92.187,991.149 92.863,990.751 93.624,990.339 94.332,989.95 95.072,989.614 95.862,989.253 96.646,988.886 
			97.421,988.563 98.222,988.288 99.083,988.074 99.867,987.831 100.734,987.622 101.569,987.485 101.506,986.675 100.567,986.862 
			99.683,987.022 98.808,987.269 97.983,987.499 97.159,987.851 96.309,988.148 95.537,988.474 94.747,988.835 93.946,989.234 
			93.186,989.649 92.475,990.038 91.748,990.46 91.019,990.889 90.298,991.312 89.61,991.753 88.924,992.188 89.312,992.901 		"></polygon>
		<polygon fill-rule="evenodd" clip-rule="evenodd" fill="#FFFFFF" points="89.198,994.616 89.624,994.971 89.497,994.596 
			89.423,994.188 89.322,993.866 89.235,993.501 89.185,993.28 89.15,993.143 89.209,992.952 89.312,992.901 88.924,992.188 
			88.564,992.526 88.371,992.968 88.323,993.364 88.45,993.745 88.535,994.104 88.641,994.435 88.735,994.757 88.8,995.068 
			89.185,995.407 88.8,995.068 88.81,995.407 89.185,995.407 		"></polygon>
		<polygon fill="#FFFFFF" points="119.877,997.57 119.866,997.61 119.861,997.61 		"></polygon>
		<polygon fill="#FFFFFF" points="119.687,997.759 119.861,997.607 119.761,998.038 		"></polygon>
		<polygon fill="#FFFFFF" points="130.871,1002.54 144.565,1007.12 143.081,1007.21 143.065,1007.243 131.181,1003.272 		"></polygon>
		<path fill="#FFFFFF" d="M89.185,995.407l17.396-0.571l0.359,0.037l0.338,0.113l0.449,0.151l0.415,0.137l0.373,0.254l0.274,0.177
			l0.164,0.262l0.121,0.124l6.923,20.885l0.101,0.324l0.338-0.01l0.35-0.051l0.396,0.051l0.491,0.036l0.46-0.013l0.449,0.023
			l0.415-0.111l0.463-0.137l0.375-0.251l0.449-0.476l0.375-0.5l0.349-0.425l0.349-0.423l0.304-0.402l0.288-0.361l0.248-0.381
			l0.297-0.401l0.253-0.372l0.288-0.357l0.288-0.369l0.312-0.312l0.322-0.349l0.376-0.378l0.375-0.375l0.478-0.426l-0.253-0.319
			l0.378-0.307l0.423-0.272l0.491-0.217l0.446-0.221l0.489-0.215l0.547-0.148l0.568-0.188l0.544-0.15l0.525-0.076l0.573-0.101
			l0.616-0.087l0.573-0.098l0.598-0.051l0.604-0.05l0.56-0.062l0.553-0.025l9.645-0.695l-11.885-3.977l-0.31-0.732l13.694,4.582
			l63.96-4.785l1.182-0.188l0.89-0.412l0.611-0.586l0.225-0.677v-0.751l0.013-0.037l-0.214-0.869l-0.423-0.848l-0.613-0.914
			l-0.359-0.415l-0.401-0.423l-0.438-0.436l-0.46-0.37l-0.488-0.407l-0.55-0.356l-0.587-0.362l-0.586-0.361l-0.624-0.252
			l-0.616-0.29l-0.673-0.222l-0.711-0.24l-0.674-0.102l-0.706-0.147l-0.724-0.079l-0.713,0.016l-9.657,0.359l-56.718,1.942h-0.624
			l-0.586,0.013l-0.666-0.013l-0.635-0.087l-0.652-0.053l-0.647-0.051l-0.64-0.084l-0.676-0.102l-0.672-0.1l-0.662-0.141
			l-0.664-0.135l-0.66-0.14l-0.688-0.188l-0.652-0.183l-0.61-0.156l-0.637-0.211l-0.901-0.307l-0.882-0.338l-0.782-0.301
			l-0.769-0.294l-0.68-0.356l-0.649-0.301l-0.672-0.35l-0.617-0.287l-0.582-0.362l-0.528-0.302l-0.56-0.314l-0.526-0.304
			l-0.562-0.312l-0.523-0.296l-0.499-0.257l-0.529-0.298l-0.533-0.265l-0.553-0.225l-0.525-0.177l-0.6-0.201l-0.635-0.208
			l-0.612-0.164l-0.671-0.104l-0.714-0.113l-0.724-0.074l-0.816-0.061l-0.861-0.039l-0.886,0.039l-0.93,0.023l-1.036,0.111
			l-1.072,0.101l-1.176,0.153l-0.875,0.121l-0.858,0.214l-0.869,0.206l-0.798,0.275l-0.849,0.309l-0.811,0.31l-0.774,0.325
			l-0.79,0.359l-0.745,0.38l-0.767,0.409l12.136,4.062l-16.334,0.544L89.185,995.407z M200.425,995.747l0.074-0.475l0.166-0.359
			l0.299-0.277l0.449-0.229l0.525-0.073l0.283,0.016l0.33,0.024l0.312,0.061l0.312,0.061l0.375,0.127l0.339,0.113l0.362,0.161
			l0.388,0.214l0.32,0.15l0.341,0.238l0.299,0.223l0.327,0.277l0.335,0.237l0.236,0.29l0.29,0.26l0.235,0.293l0.438,0.565
			l0.225,0.576l0.113,0.285l0.062,0.19l-0.037,0.486l-0.088,0.386l-0.277,0.325l-0.398,0.197l-0.537,0.117l-0.301,0.028
			l-0.309-0.065l-0.362-0.04l-0.392-0.087l-0.335-0.111l-0.378-0.121l-0.396-0.18l-0.349-0.201l-0.364-0.164l-0.392-0.211
			l-0.338-0.238l-0.322-0.274l-0.296-0.228l-0.312-0.312l-0.279-0.302l-0.238-0.285l-0.386-0.589l-0.228-0.576l-0.058-0.188
			L200.425,995.747z M131.286,1004.599L131.286,1004.599l-0.265-0.211L131.286,1004.599z M120.644,997.979l0.438-0.44l5.707-0.325
			l1.205,0.626l2.869,6.749l-0.449,0.57l-6.13,0.438l0.275,0.05l-0.207,0.336l-0.031,0.003l-1.361-0.788l-0.005-0.013l0.356-0.161
			L120.644,997.979z"></path>
		<polygon fill-rule="evenodd" clip-rule="evenodd" points="196.562,1000.091 196.21,999.891 196.149,999.579 196.651,999.454 
			196.752,999.776 196.45,999.555 		"></polygon>
		<polygon fill-rule="evenodd" clip-rule="evenodd" points="197.238,999.689 197.164,999.79 197.034,999.917 196.89,999.991 
			196.741,1000.065 196.562,1000.091 196.45,999.555 196.524,999.579 196.642,999.491 196.778,999.454 196.789,999.415 
			196.763,999.491 197.228,999.729 		"></polygon>
		<polygon fill-rule="evenodd" clip-rule="evenodd" points="195.827,996.546 195.864,996.559 196.103,996.847 196.414,997.163 
			196.715,997.51 197.001,997.901 197.233,998.315 197.376,998.778 197.376,999.28 197.228,999.729 196.763,999.489 196.863,999.19 
			196.842,998.892 196.752,998.53 196.524,998.202 196.276,997.827 196.002,997.531 195.69,997.214 195.452,996.929 
			195.489,996.938 		"></polygon>
		<polygon fill-rule="evenodd" clip-rule="evenodd" points="191.232,995.219 191.188,995.206 191.854,995.219 192.475,995.219 
			193.063,995.335 193.629,995.394 194.208,995.547 194.736,995.808 195.299,996.122 195.827,996.546 195.489,996.934 
			194.974,996.596 194.49,996.311 194.025,996.072 193.528,995.946 192.979,995.845 192.413,995.782 191.837,995.758 
			191.251,995.769 191.27,995.731 191.177,995.245 		"></polygon>
		<polygon fill-rule="evenodd" clip-rule="evenodd" points="142.468,997.779 142.682,997.645 191.177,995.245 191.27,995.734 
			142.753,998.168 142.968,998.028 		"></polygon>
		<polygon fill-rule="evenodd" clip-rule="evenodd" points="141.315,999.481 140.796,999.307 140.832,998.944 140.928,998.644 
			141.083,998.321 141.278,998.094 141.543,997.933 141.876,997.792 142.257,997.669 142.682,997.645 142.753,998.168 
			142.356,998.241 141.992,998.329 141.817,998.355 141.644,998.503 141.559,998.644 141.416,998.805 141.343,999.032 
			141.358,999.367 140.832,999.192 		"></polygon>
		<polygon points="196.255,999.28 196.112,999.066 195.936,998.839 195.801,998.628 195.616,998.438 195.437,998.21 
			195.251,998.028 195.077,997.798 194.58,997.423 194.062,997.085 193.555,996.873 193.016,996.733 192.45,996.673 
			191.869,996.559 191.29,996.535 190.664,996.532 142.156,998.971 142.553,998.216 142.706,998.194 142.753,998.168 
			191.27,995.734 192.075,995.795 192.752,995.771 193.392,995.856 193.976,995.972 194.517,996.233 194.997,996.521 
			195.452,996.929 195.965,997.51 196.414,998.041 196.741,998.563 196.899,998.952 196.899,999.2 196.789,999.415 196.478,999.603 
			196.433,999.613 196.414,999.539 		"></polygon>
		<path d="M140.796,999.307l0.047,0.476l0.104,0.325l0.137,0.462l0.32,0.528l0.401,0.426l0.51,0.465l0.613,0.409l0.687,0.314
			l0.727,0.199l0.875,0.002l49.835-2.533l0.945-0.102l0.677-0.147l0.491-0.341l0.274-0.449l-0.01-0.463l-0.19-0.562l-0.359-0.539
			l-0.507-0.629l-0.508-0.589l-0.55-0.476l-0.587-0.361l-0.575-0.275l-0.624-0.127l-0.75-0.121h-0.75l-0.852,0.047l-48.495,2.399
			v0.013l-0.515,0.021l-0.523,0.201l-0.349,0.301l-0.243,0.342l-0.161,0.358L140.796,999.307z M141.358,999.367l0.058-0.31
			l0.024-0.053l0.039-0.01h0.248l0.429-0.024l0.404-0.761l0.146-0.019l0.047-0.023l48.517-2.437l0.806,0.063l0.677-0.026l0.64,0.09
			l0.584,0.113l0.541,0.262l0.48,0.288l0.455,0.401l0.513,0.587l0.449,0.531l0.327,0.522l0.158,0.389v0.252l-0.11,0.211
			l-0.312,0.188l-0.045,0.014l-0.542,0.123l-0.824,0.102l-49.851,2.573l-0.037-0.017l-0.7-0.021l-0.687-0.19l-0.611-0.285
			l-0.527-0.301l-0.434-0.439l-0.314-0.441l-0.272-0.42l-0.217-0.367l-0.037-0.264L141.358,999.367z"></path>
	</g>
	
</g>
</svg>