<svg version="1.1" id="YOUR_ARTWORK_HERE" xmlns="http://www.w3.org/2000/svg" xmlns:xlink="http://www.w3.org/1999/xlink" x="0px" y="0px" width="2475" height="2475" viewBox="0 0 2475 2475" enable-background="new 0 0 594 594" xml:space="preserve">
<rect x="0.42" y="0" fill="#929497" width="593.511" height="594"></rect>
<circle fill="#FFFFFF" stroke="#FF0000" cx="297.254" cy="296.833" r="288"></circle>
<circle fill="#FFFFFF" stroke="#2BA6DE" stroke-dasharray="1.1466" cx="297.254" cy="296.833" r="279"></circle>

<rect x="3.037" y="2.096" fill="#D0D2D3" width="84.986" height="84.35"></rect>

<path fill="#F9A51A" d="M569.827,356.415c-0.017,0.162-0.026,0.326-0.045,0.487c0.001,0.193-0.007,0.392-0.032,0.598
	c-0.055,0.447-0.133,0.885-0.201,1.326c0.008,0.001,0.015,0.002,0.022,0.003c-0.021,0.094-0.045,0.186-0.065,0.278
	c-0.43,2.664-1.108,5.22-1.924,7.718c-0.059,0.689-0.287,1.41-0.733,2.142c-0.248,0.683-0.495,1.366-0.762,2.042
	c-0.155,0.454-0.322,0.903-0.482,1.355c-0.663,2.783-1.606,5.494-2.554,8.284c-0.537,2.493-1.134,4.972-2.003,7.388
	c-0.086,0.238-0.192,0.467-0.286,0.701c-0.371,1.327-0.812,2.617-1.444,3.786c-0.31,0.572-0.649,1.121-0.999,1.664
	c-0.072,0.193-0.154,0.389-0.251,0.586c-0.208,0.543-0.483,1.045-0.793,1.527c-0.376,1.396-0.824,2.771-1.434,4.114h38.09v-44
	H569.827z"></path>

<line fill="none" stroke="#F9A51A" x1="446.621" y1="356.279" x2="593.931" y2="356.279"></line>
<line fill="none" stroke="#EC1E28" x1="460.827" y1="216.164" x2="573.802" y2="216.164"></line>
<line fill="none" stroke="#929497" x1="451.245" y1="256.072" x2="585.254" y2="256.072"></line>
<line fill="none" stroke="#2BA6DE" stroke-dasharray="1.1374" x1="457.88" y1="136.883" x2="525.88" y2="136.883"></line>
<g>
	<path fill="#EC1E28" d="M456.768,126.413c0,0.552-0.251,1.089-0.75,1.613l-0.077,0.078l-4.37,4.604
		c-0.928,0.977-1.717,1.731-2.37,2.264c-0.652,0.534-1.113,0.8-1.383,0.8c-0.282,0-0.632-0.133-1.053-0.399
		c-0.419-0.267-0.689-0.542-0.812-0.825c-0.104-0.235-0.202-0.735-0.292-1.499c-0.094-0.765-0.139-1.592-0.139-2.483
		c0-0.486,0.202-0.936,0.607-1.348c0.405-0.412,0.853-0.619,1.343-0.619c0.467,0,0.745,0.427,0.834,1.28
		c0.01,0.099,0.017,0.172,0.021,0.219c0.076,0.655,0.162,1.113,0.261,1.373c0.1,0.259,0.233,0.388,0.403,0.388
		c0.071,0,0.203-0.076,0.396-0.229c0.193-0.153,0.425-0.362,0.693-0.625l4.488-4.45c0.377-0.377,0.714-0.663,1.011-0.856
		s0.549-0.29,0.755-0.29c0.157,0,0.268,0.059,0.334,0.176c0.065,0.118,0.1,0.317,0.1,0.594V126.413z"></path>
</g>
<g>
	<path fill="#EC1E28" d="M575.553,219.932l0.213-4.069l-1.253,0.769l0.06-0.918l1.283-0.764c0.024-0.333,0.051-0.641,0.083-0.924
		c0.035-0.284,0.072-0.552,0.115-0.805l0.034-0.189c-0.098,0.034-0.193,0.056-0.283,0.066c-0.092,0.012-0.175,0.011-0.252-0.002
		c-0.25-0.043-0.443-0.167-0.578-0.371c-0.138-0.205-0.182-0.438-0.137-0.701c0.051-0.295,0.195-0.532,0.435-0.711
		c0.238-0.177,0.496-0.243,0.774-0.195c0.239,0.042,0.42,0.158,0.542,0.35c0.121,0.19,0.157,0.417,0.112,0.683
		c-0.023,0.127-0.084,0.311-0.189,0.554c-0.104,0.243-0.165,0.427-0.188,0.553c-0.035,0.205-0.023,0.414,0.037,0.629
		c0.06,0.215,0.169,0.443,0.331,0.684c0.314-0.124,0.587-0.296,0.817-0.519c0.232-0.221,0.418-0.489,0.557-0.802
		c0.048-0.103,0.109-0.246,0.185-0.43c0.076-0.184,0.132-0.301,0.166-0.353c0.118-0.17,0.26-0.294,0.424-0.372
		c0.164-0.079,0.339-0.102,0.523-0.07c0.239,0.042,0.423,0.164,0.551,0.365c0.128,0.202,0.168,0.438,0.12,0.709
		c-0.048,0.28-0.186,0.502-0.414,0.662c-0.229,0.161-0.48,0.217-0.761,0.169c-0.121-0.021-0.229-0.065-0.328-0.133
		c-0.098-0.068-0.188-0.162-0.268-0.284c-0.179,0.375-0.386,0.698-0.621,0.967c-0.235,0.268-0.497,0.483-0.783,0.643
		c-0.104,1.021-0.177,1.719-0.221,2.096c-0.043,0.376-0.079,0.652-0.108,0.825c-0.076,0.435-0.191,0.801-0.347,1.1
		C576.027,219.442,575.818,219.704,575.553,219.932z M575.598,212.78c0.191,0.033,0.367-0.012,0.523-0.136
		c0.161-0.124,0.26-0.291,0.296-0.504c0.032-0.186,0.007-0.346-0.077-0.483c-0.082-0.137-0.204-0.218-0.362-0.246
		c-0.197-0.034-0.381,0.013-0.552,0.141c-0.17,0.127-0.271,0.298-0.309,0.511c-0.031,0.179-0.002,0.335,0.088,0.47
		C575.294,212.667,575.424,212.75,575.598,212.78z M578.938,213.629c0.202,0.034,0.38-0.005,0.536-0.118
		c0.156-0.112,0.251-0.273,0.286-0.479c0.031-0.179,0.006-0.333-0.076-0.464c-0.082-0.13-0.205-0.209-0.364-0.236
		c-0.185-0.032-0.359,0.02-0.526,0.155c-0.167,0.134-0.268,0.308-0.304,0.521c-0.027,0.163-0.002,0.3,0.078,0.412
		C578.65,213.53,578.773,213.6,578.938,213.629z"></path>
</g>
<g>
	<path fill="#EC1E28" d="M460.251,205.023c0,0.552-0.25,1.09-0.749,1.613l-0.077,0.078l-4.369,4.605
		c-0.929,0.977-1.719,1.731-2.371,2.264c-0.652,0.533-1.114,0.799-1.382,0.799c-0.283,0-0.634-0.133-1.053-0.399
		c-0.42-0.266-0.689-0.541-0.812-0.824c-0.104-0.236-0.202-0.735-0.294-1.5s-0.138-1.591-0.138-2.483
		c0-0.486,0.202-0.935,0.607-1.348c0.406-0.413,0.853-0.619,1.343-0.619c0.468,0,0.745,0.426,0.834,1.28
		c0.01,0.099,0.017,0.172,0.022,0.219c0.074,0.656,0.161,1.114,0.261,1.373c0.1,0.259,0.232,0.388,0.402,0.388
		c0.071,0,0.203-0.076,0.396-0.229s0.424-0.362,0.692-0.626l4.489-4.45c0.376-0.377,0.714-0.663,1.01-0.856
		c0.298-0.194,0.55-0.29,0.756-0.29c0.156,0,0.267,0.059,0.333,0.177c0.065,0.118,0.099,0.316,0.099,0.594V205.023z"></path>
</g>
<g>
	<path fill="#EC1E28" d="M449.528,245.802c0,0.554-0.249,1.091-0.749,1.614l-0.078,0.079l-4.368,4.604
		c-0.928,0.976-1.719,1.73-2.372,2.265c-0.651,0.532-1.111,0.8-1.38,0.8c-0.283,0-0.635-0.134-1.054-0.4
		c-0.42-0.266-0.691-0.542-0.813-0.825c-0.103-0.235-0.201-0.734-0.293-1.499s-0.139-1.592-0.139-2.483
		c0-0.485,0.203-0.935,0.608-1.347c0.404-0.413,0.854-0.619,1.343-0.619c0.467,0,0.745,0.427,0.834,1.28
		c0.01,0.099,0.017,0.172,0.022,0.219c0.075,0.656,0.162,1.114,0.261,1.373c0.1,0.261,0.233,0.389,0.403,0.389
		c0.069,0,0.201-0.076,0.396-0.229c0.193-0.153,0.424-0.361,0.693-0.626l4.487-4.45c0.378-0.377,0.714-0.661,1.012-0.854
		c0.296-0.193,0.548-0.291,0.756-0.291c0.155,0,0.267,0.06,0.332,0.177c0.065,0.119,0.099,0.316,0.099,0.595V245.802z"></path>
</g>
<g>
	<path fill="#EC1E28" d="M446.044,345.876c0,0.553-0.249,1.09-0.749,1.613l-0.078,0.077l-4.367,4.607
		c-0.93,0.976-1.721,1.729-2.371,2.263c-0.654,0.533-1.114,0.799-1.383,0.799c-0.282,0-0.635-0.134-1.053-0.398
		c-0.42-0.268-0.691-0.542-0.814-0.825c-0.103-0.236-0.2-0.734-0.293-1.5c-0.091-0.763-0.138-1.592-0.138-2.483
		c0-0.485,0.204-0.934,0.608-1.347c0.405-0.413,0.854-0.62,1.344-0.62c0.466,0,0.744,0.429,0.833,1.281
		c0.01,0.101,0.017,0.172,0.021,0.219c0.075,0.655,0.163,1.113,0.262,1.372c0.099,0.26,0.233,0.391,0.403,0.391
		c0.07,0,0.201-0.077,0.396-0.23c0.193-0.153,0.423-0.363,0.692-0.627l4.487-4.448c0.378-0.378,0.714-0.665,1.012-0.856
		c0.297-0.193,0.549-0.29,0.757-0.29c0.154,0,0.267,0.06,0.332,0.177c0.066,0.117,0.099,0.316,0.099,0.593V345.876z"></path>
</g>
<g>
	<path fill="#EC1E28" d="M431.836,415.9c0,0.553-0.25,1.09-0.75,1.614l-0.076,0.078l-4.369,4.604
		c-0.929,0.977-1.719,1.731-2.372,2.265c-0.652,0.532-1.113,0.801-1.381,0.801c-0.283,0-0.634-0.134-1.054-0.4
		c-0.419-0.267-0.69-0.542-0.812-0.825c-0.104-0.235-0.202-0.735-0.293-1.5c-0.093-0.764-0.138-1.592-0.138-2.482
		c0-0.485,0.202-0.935,0.607-1.348c0.405-0.412,0.853-0.618,1.343-0.618c0.466,0,0.744,0.426,0.835,1.28
		c0.009,0.098,0.016,0.173,0.021,0.219c0.076,0.656,0.162,1.114,0.262,1.374c0.099,0.259,0.233,0.387,0.403,0.387
		c0.07,0,0.202-0.076,0.396-0.229c0.193-0.154,0.423-0.361,0.692-0.626l4.488-4.451c0.377-0.376,0.713-0.661,1.011-0.854
		c0.297-0.194,0.549-0.291,0.756-0.291c0.156,0,0.267,0.06,0.333,0.177c0.065,0.118,0.099,0.316,0.099,0.594V415.9z"></path>
</g>
<g>
	<ellipse fill-rule="evenodd" clip-rule="evenodd" cx="46.85" cy="33.678" rx="26.81" ry="26.124"></ellipse>
	<ellipse fill-rule="evenodd" clip-rule="evenodd" fill="#B7D333" cx="46.869" cy="33.823" rx="24.373" ry="23.749"></ellipse>
	<g>
		<path d="M41.65,28.644c-0.338,2.911-0.59,5.249-0.757,7.014l-1.111,0.047c0.016-0.059,0.024-0.125,0.027-0.198
			c0.001-0.132-0.049-0.306-0.15-0.522c-0.102-0.215-0.16-0.352-0.174-0.411c-0.287,0.039-0.563,0.234-0.827,0.582
			c-0.263,0.35-0.5,0.522-0.711,0.52c-0.122-0.002-0.257-0.035-0.407-0.095c-0.198,0.129-0.456,0.183-0.773,0.163
			c-0.286-0.048-0.565-0.09-0.837-0.124c-0.009-0.367-0.38-0.69-1.116-0.969c0.002-0.147-0.074-0.366-0.227-0.655
			c-0.154-0.29-0.23-0.493-0.228-0.611c0.001-0.133,0.057-0.242,0.165-0.329c-0.015-0.044-0.139-0.319-0.373-0.825
			c-0.159-0.37-0.236-0.688-0.232-0.952c0.003-0.207,0.052-0.397,0.146-0.573c-0.129-1.254-0.186-2.33-0.169-3.229
			c0.023-1.384,0.227-2.654,0.61-3.812c-0.028-0.177-0.04-0.354-0.037-0.531c0.017-0.928,0.345-1.569,0.985-1.928l0.005-0.287
			c0.633-0.785,1.467-1.353,2.5-1.704c0.618,0.143,1.234,0.279,1.852,0.407c0.692,0.232,1.169,0.63,1.432,1.195
			c0.208,0.121,0.31,0.366,0.303,0.734c-0.006,0.412,0.042,0.678,0.145,0.798l-0.115,0.131c0.121,0.87,0.18,1.402,0.176,1.592
			c-0.009,0.56-0.16,0.956-0.451,1.186c-0.105-0.001-0.383-0.094-0.833-0.277c-0.108,0.1-0.222,0.15-0.343,0.148
			c-0.061,0-0.17-0.032-0.328-0.094c-0.158-0.062-0.291-0.093-0.396-0.095c-0.076-0.001-0.151,0.012-0.228,0.041
			c-0.009-1.164,0.028-2.032,0.113-2.606c-0.119-0.075-0.24-0.247-0.364-0.514c-0.125-0.267-0.284-0.417-0.479-0.45
			c-0.123,0.146-0.179,0.24-0.164,0.285l-0.406-0.14c-0.37,0.392-0.616,1.072-0.737,2.042c-0.126,1.117-0.283,1.859-0.47,2.223
			c0.163,0.166,0.242,0.396,0.237,0.689c-0.001,0.104-0.02,0.273-0.055,0.507c-0.035,0.236-0.051,0.412-0.054,0.53
			c-0.002,0.132,0.01,0.251,0.039,0.354l-0.276,0.26c0.112,0.503,0.177,1.138,0.194,1.904c-0.012,0.648-0.016,1.296-0.012,1.943
			c-0.016,0-0.144,0.005-0.386,0.016c-0.15-0.002-0.258,0.047-0.32,0.15c0.092-0.014,0.175-0.021,0.25-0.019
			c0.333,0.005,0.594,0.234,0.782,0.686c0.188,0.454,0.351,0.681,0.487,0.683c0.15,0.001,0.357-0.134,0.621-0.41
			c0.445-0.464,0.675-1.101,0.689-1.91c0.007-0.398-0.039-0.825-0.136-1.284c-0.108,0.058-0.162,0.204-0.167,0.438
			c-0.242-0.004-0.394,0.045-0.457,0.147c-0.105-0.031-0.149-0.113-0.132-0.245C37.989,30.073,38,29.969,38,29.955
			c0.183-0.056,0.273-0.136,0.276-0.239c0-0.044-0.033-0.126-0.098-0.245c-0.065-0.119-0.098-0.215-0.097-0.289
			c0.001-0.059,0.018-0.117,0.048-0.176l0.105-0.859c0.332,0.094,1.048,0.134,2.152,0.124c-0.032,0.074,0.013,0.17,0.132,0.289
			c0.107-0.102,0.221-0.151,0.343-0.149c0.09,0.002,0.226,0.041,0.405,0.118S41.575,28.643,41.65,28.644z"></path>
		<path d="M50.111,36.252c-0.21-0.092-0.437-0.14-0.678-0.144c-0.211-0.003-0.499,0.037-0.863,0.119
			c-0.409,0.081-0.69,0.127-0.841,0.141c-0.162-0.312-0.275-0.742-0.341-1.288c-0.122-0.797-0.198-1.247-0.225-1.351
			c0.047-0.088,0.071-0.161,0.071-0.219c0.004-0.163-0.127-0.308-0.389-0.438c-0.263-0.13-0.393-0.231-0.392-0.306
			c0-0.087,0.155-0.217,0.461-0.39c-0.075-0.089-0.129-0.27-0.161-0.542c-0.033-0.273-0.102-0.456-0.206-0.545
			c-0.184,0.159-0.484,0.261-0.901,0.306c-0.417,0.045-0.694,0.11-0.831,0.195c0.009,1.149-0.185,1.92-0.584,2.311
			c-0.211-0.048-0.373,0.03-0.48,0.235c-0.156,0.248-0.287,0.393-0.394,0.435l0.133,0.157c-0.122,0.101-0.319,0.143-0.59,0.123
			c-0.424-0.022-0.649-0.033-0.68-0.033l-0.129-0.4l1.477-11.928c0.013-0.751,0.052-1.258,0.118-1.522
			c-0.019-0.663,0.14-1.073,0.474-1.229c0.209,0.135,0.474,0.207,0.791,0.212c0.256,0.003,0.658-0.048,1.203-0.157
			c0.548-0.108,0.926-0.161,1.138-0.158c0.74,0.013,1.063,0.533,0.971,1.562c-0.075,0.823,0.057,1.908,0.396,3.255
			c0.353,1.449,0.523,2.534,0.511,3.256c-0.005,0.221,0.069,0.678,0.051,0.899c-0.32,0.171-0.73,0.274-1.23,0.31
			c-0.438,0.022-0.884,0.044-1.338,0.067c-0.117-1.122-0.32-2.473-0.437-3.58c-0.144-1.327-0.321-2.42-0.532-3.277l-0.7,6.306
			c-0.054,0.544,0.198,0.821,0.757,0.831c0.181,0.002,0.354-0.039,0.522-0.124c0.138-0.042,0.326,0.058,0.563,0.296
			c-0.008,0.457,0.084,0.73,0.28,0.823c0.244-0.159,0.564-0.308,0.96-0.449c0.35-0.127,0.692-0.246,1.027-0.359
			c0.191,0.254,0.313,0.631,0.366,1.133c0.063,0.708,0.107,1.121,0.137,1.239c0.025,0.281,0.144,0.887,0.354,1.819
			c0.154,0.738,0.227,1.336,0.218,1.793C50.164,35.855,50.145,36.061,50.111,36.252z"></path>
		<path d="M60.551,25.732c-0.017,0.044-0.02,0.302-0.014,0.773c-0.006,0.383-0.058,0.67-0.151,0.86
			c-0.111,0.292-0.171,0.71-0.181,1.255c-0.002,0.119,0.001,0.303,0.012,0.554c-0.004,0.25-0.007,0.434-0.009,0.551
			c-0.016,0.928-0.178,1.602-0.489,2.024c0.027,0.237,0.038,0.473,0.034,0.708c-0.013,0.736-0.273,1.727-0.777,2.97
			c-0.137,0.042-0.251,0.062-0.341,0.061c-0.182-0.003-0.312-0.105-0.393-0.305c-0.08-0.2-0.155-0.389-0.227-0.567
			c0.048-1.132,0.024-2.783-0.073-4.95l0.138-0.13c-0.099-0.385-0.145-0.812-0.136-1.284c0.005-0.338,0.049-0.831,0.128-1.478
			c0.08-0.646,0.122-1.132,0.127-1.457c0.004-0.206-0.001-0.405-0.012-0.596c-0.52,1.214-0.889,3.27-1.106,6.167l-0.189,0.438
			c-0.063,0.147-0.193,0.225-0.389,0.237c-0.059-0.103-0.119-0.156-0.179-0.157c-0.045-0.001-0.126,0.053-0.241,0.162
			c-0.116,0.108-0.211,0.154-0.286,0.139l-0.3,0.26c0.133,0.165,0.42,0.184,0.861,0.059c0.35-0.098,0.528,0.031,0.538,0.384
			c0.009,0.294-0.073,0.692-0.248,1.189c-0.175,0.497-0.264,0.872-0.269,1.122c-0.003,0.176,0.017,0.354,0.059,0.532l-1.569,0.239
			c-0.146-0.298-0.254-0.796-0.325-1.497c-0.071-0.701-0.179-1.2-0.325-1.497c0.092-0.101,0.139-0.21,0.142-0.329
			c0.001-0.104-0.042-0.258-0.127-0.466c-0.088-0.208-0.139-0.364-0.151-0.467c-0.013-0.162-0.066-0.553-0.161-1.173
			c-0.067-0.502-0.098-0.894-0.094-1.173c0.003-0.146,0.014-0.279,0.031-0.396c0.001-0.103-0.057-0.254-0.174-0.457
			c-0.118-0.201-0.174-0.345-0.173-0.434c0.001-0.073,0.032-0.138,0.094-0.195c-0.105-0.121-0.146-0.328-0.126-0.622
			c0.02-0.294-0.022-0.501-0.124-0.621c-0.223,0.571-0.341,1.342-0.36,2.314c-0.007,1.354-0.021,2.136-0.04,2.341l0.157,0.135
			l-0.162,0.129c0.112,0.533,0.161,1.211,0.146,2.036c-0.041,1.486-0.061,2.179-0.058,2.076c-0.215,0.188-0.513,0.278-0.89,0.272
			c-0.468-0.008-0.787,0.032-0.954,0.117c-0.192-0.327-0.282-0.748-0.272-1.263c0.005-0.397,0.076-0.882,0.206-1.456
			c-0.205-0.371-0.302-0.889-0.29-1.551c0.003-0.163,0.022-0.471,0.061-0.927c0.021-0.367,0.026-0.64,0.015-0.817
			c0.152-0.071,0.229-0.15,0.23-0.239c0.002-0.059-0.046-0.159-0.142-0.301c-0.097-0.141-0.144-0.249-0.142-0.322
			c0.001-0.088,0.064-0.176,0.185-0.263l-0.488-7.144c0.292-0.187,0.762-0.275,1.411-0.264c0.709,0.027,1.194-0.01,1.453-0.108
			c0.046-0.029,0.098-0.043,0.16-0.042c0.061,0.001,0.131,0.036,0.213,0.103c0.083,0.068,0.139,0.102,0.168,0.102
			c0.06,0.001,0.114-0.042,0.161-0.129l0.423,0.405c0.142,0.518,0.276,1.521,0.401,3.01c0.129,1.284,0.331,2.252,0.608,2.905
			c0.37-1.305,0.675-2.397,0.918-3.277l0.492-3.496l3.515-0.074c0.011,0.191,0.055,1.215,0.15,1.806
			c0.081,0.516,0.12,0.937,0.114,1.26c-0.005,0.369-0.064,0.699-0.176,0.992c0.118,0.165,0.175,0.371,0.17,0.621
			C60.739,25.367,60.674,25.571,60.551,25.732z"></path>
		<path d="M67.762,33.473l0.001-0.022c-0.095,0.19-0.152,0.41-0.171,0.66c-0.018,0.162-0.021,0.39-0.011,0.684
			c0.009,0.339,0.012,0.576,0.01,0.707c-0.121-0.001-0.604-0.009-1.451-0.023c-0.514-0.009-0.976,0.035-1.386,0.131l-0.423-0.448
			c-0.123,0.115-0.169,0.21-0.14,0.286c-0.076-0.018-0.424-0.022-1.042-0.019c-0.485-0.008-0.847-0.058-1.087-0.151
			c-0.246,0.248-0.534,0.243-0.862-0.013c-0.119-0.09-0.13-0.242-0.038-0.454c0.095-0.212,0.068-0.371-0.082-0.476
			c0.022-0.47,0.088-1.198,0.197-2.184c0.106-0.881,0.163-1.573,0.171-2.074c0.012-0.677-0.036-1.326-0.147-1.946
			c0.17-0.16,0.359-0.238,0.57-0.234c0.243,0.004,0.527,0.12,0.856,0.345c0.462,0.317,0.703,0.476,0.718,0.476l0.132,0.157
			c0.017-0.043,0.097-0.278,0.24-0.703c0.08-0.278,0.197-0.46,0.351-0.546l0.133,0.135c0.06-0.028,0.259-0.166,0.597-0.41
			c0.258-0.172,0.471-0.582,0.621-0.579c0.166,0.003,0.323,0.094,0.472,0.273c0.255,0.137,0.415,0.666,0.494,0.939
			c0.078,0.273,0.153,0.543,0.225,0.811c-0.681,0.018-1.241,0.001-1.678-0.05c-0.109,0.16-0.26,0.183-0.455,0.069
			c-0.194-0.114-0.338-0.097-0.432,0.048c-0.004,0.266-0.013,0.744-0.025,1.436c-0.026,0.619-0.034,1.104-0.025,1.458
			c0.006,0.544,0.043,1.046,0.111,1.504c0.12,0.002,0.694,0.011,1.721,0.028C66.639,33.301,67.25,33.361,67.762,33.473z
			 M67.811,22.892c-0.137,0.012-0.288,0.017-0.455,0.015c-0.347-0.006-0.807-0.058-1.379-0.156c-0.709-0.1-1.14-0.158-1.29-0.176
			c-0.217,0.305-0.33,0.739-0.339,1.299c-0.021,1.206-0.023,1.729-0.005,1.567c0.209,0.121,0.312,0.344,0.305,0.668
			c-0.022,0.441-0.026,0.67-0.012,0.685c-0.107,0.043-0.161,0.188-0.166,0.439c-0.165-0.062-0.336-0.182-0.515-0.362
			c-0.239-0.226-0.365,0.539-0.347,0.347l-0.144,0.454l-0.134-0.135c-0.122,0.012-0.328-0.05-0.62-0.187
			c-0.293-0.137-0.498-0.265-0.617-0.387c0.004-0.235,0.044-0.367,0.12-0.396l-0.289-0.313l-0.14,0.196
			c-0.169-1.535-0.126-4.404,0.083-6.021c0.573,0.098,1.207,0.16,1.901,0.187c0.469,0.022,1.125,0.033,1.972,0.032
			c0.967,0.001,1.664,0.005,2.086,0.012c0.178,0.166,0.266,0.38,0.261,0.645c-0.003,0.163-0.049,0.422-0.138,0.783
			C67.859,22.447,67.813,22.714,67.811,22.892z"></path>
	</g>
	<g>
		<path d="M42.333,46.829l-0.001-0.01c0.001,0.007-0.038,0.331-0.117,0.974c-0.039,0.395-0.137,0.705-0.292,0.931l-0.099-0.078
			c-0.184,0.375-0.433,0.603-0.75,0.684c-0.15,0.156-0.369,0.242-0.654,0.257c-0.169,0.01-0.562-0.038-1.176-0.144
			c-0.296-0.179-0.458-0.278-0.487-0.298c-0.186-0.137-0.275-0.276-0.265-0.416c-0.181-0.179-0.435-0.499-0.529-0.9
			c-0.116-0.442-0.186-0.467-0.293-0.622c-0.171,0.122-0.232-0.138-0.333-0.294l0.091-0.068c-0.056-0.039-0.085-0.083-0.088-0.131
			c-0.002-0.035,0.012-0.086,0.044-0.155s0.047-0.121,0.044-0.155c-0.002-0.056-0.037-0.103-0.102-0.142
			c0.068-0.348,0.131-0.869,0.188-1.566c0.121-0.063,0.178-0.186,0.173-0.368c-0.008-0.181,0.019-0.302,0.078-0.362
			c0.288-0.562,0.757-0.942,1.407-1.141c0.035,0.005,0.209,0.002,0.521-0.008c0.215-0.005,0.376,0.014,0.486,0.057
			c0.195-0.032,0.391,0.013,0.584,0.135c0.17,0.124,0.338,0.247,0.506,0.371c0.314,0.333,0.484,0.708,0.509,1.127
			c0.009,0.14-0.001,0.287-0.027,0.443c-0.233-0.008-0.398,0.142-0.496,0.449l-0.907,0.082c-0.097-0.134-0.153-0.313-0.166-0.537
			c-0.005-0.077-0.004-0.189,0-0.336c0.004-0.147,0.004-0.26,0-0.336c-0.014-0.231-0.069-0.414-0.167-0.548l-0.272,0.151
			c-0.11-0.043-0.167-0.106-0.171-0.19c-0.002-0.028,0.002-0.068,0.013-0.122c0.01-0.053,0.015-0.09,0.013-0.111
			c-0.006-0.091-0.089-0.145-0.252-0.165c-0.111,0.995-0.143,2.016-0.099,3.064c0.029,0.034,0.115,0.057,0.259,0.069
			c0.117,0.015,0.176,0.05,0.18,0.105c0.001,0.021-0.005,0.05-0.021,0.085l-0.09,0.068c0.049,0.074,0.078,0.178,0.086,0.311
			c0.004,0.069,0.001,0.177-0.008,0.32c-0.009,0.145-0.012,0.251-0.008,0.321c0.013,0.209,0.066,0.368,0.164,0.475
			c-0.01,0.155,0.055,0.26,0.191,0.315c0.088-0.034,0.167-0.052,0.239-0.056c0.276-0.016,0.468,0.13,0.575,0.44
			c0,0.007,0,0.059-0.004,0.158c0.004,0.056,0.032,0.092,0.087,0.109c0.122-0.069,0.181-0.196,0.179-0.377
			c-0.003-0.21,0.024-0.345,0.083-0.405c-0.015-0.096-0.074-0.237-0.18-0.42c-0.105-0.184-0.161-0.328-0.167-0.432
			c-0.006-0.112,0.028-0.219,0.102-0.321c-0.063-0.018-0.093-0.058-0.087-0.12c0.003-0.099,0.004-0.152,0.004-0.159
			C41.325,46.722,41.826,46.718,42.333,46.829z"></path>
		<path d="M46.435,47.649l-0.012,0c-0.052,0.101-0.068,0.246-0.049,0.433c0.024,0.266,0.037,0.402,0.038,0.408
			c-0.041,0.015-0.096-0.004-0.167-0.059c-0.105,0.038-0.156,0.103-0.15,0.194c0,0.013,0.006,0.036,0.016,0.067
			c0.002,0.039,0.005,0.064,0.005,0.078c0.004,0.071-0.018,0.125-0.066,0.16c-0.12-0.065-0.278-0.106-0.474-0.125
			c-0.198-0.019-0.383-0.035-0.56-0.051c-0.002-0.887-0.125-1.754-0.366-2.6c0,0.007-0.004-0.081-0.016-0.263
			c0.001-0.13-0.029-0.223-0.09-0.279l-0.084,0.073c0-0.013,0.027-0.039,0.083-0.078c0.056-0.039,0.083-0.078,0.081-0.117
			c-0.001-0.019-0.007-0.038-0.017-0.057l-0.091-0.064c-0.155,0.048-0.226,0.17-0.215,0.365c0.009,0.13-0.045,0.221-0.158,0.273
			c0.044,0.03,0.067,0.068,0.069,0.114c0.002,0.026-0.002,0.062-0.012,0.107c-0.01,0.046-0.013,0.083-0.012,0.108
			c0.004,0.058,0.035,0.105,0.096,0.142c0.002,0.039,0.024,0.389,0.062,1.052c0.027,0.422,0.014,0.781-0.034,1.077l0.009,0.166
			c-0.059-0.003-0.125-0.002-0.2,0.001c-0.083,0.005-0.203,0.017-0.359,0.035c-0.157,0.019-0.273,0.031-0.347,0.034
			c-0.307,0.017-0.521-0.033-0.646-0.149l-0.128-3.639c-0.061-0.179-0.101-0.427-0.12-0.746l-0.042-0.701
			c-0.029-0.344-0.074-0.608-0.135-0.793c0.025-0.126,0.139-0.194,0.337-0.205c0.125-0.007,0.291,0.009,0.501,0.049
			c0.097-0.045,0.232-0.072,0.407-0.082c0.05-0.002,0.127-0.004,0.236-0.003c0.115-0.006,0.198-0.011,0.248-0.014
			c0.324-0.019,0.538-0.115,0.645-0.291c0.15-0.002,0.312,0.044,0.488,0.139c0.175,0.094,0.33,0.145,0.464,0.149
			c0.354,0.202,0.543,0.537,0.571,1.004c0.006,0.104-0.036,0.517-0.126,1.239l-0.606,0.513c0.103,0.184,0.228,0.583,0.372,1.201
			C46.004,47.032,46.188,47.409,46.435,47.649z M45.316,43.51l0.011,0.008c0.012,0.044,0.006-0.114-0.016-0.479
			c-0.01-0.175-0.075-0.301-0.196-0.38c-0.069,0.096,0.009,0.14-0.023,0.36c-0.033,0.22-0.167,0.158-0.245,0.254
			c-0.208-0.001-0.255,0.121-0.3-0.072c-0.093-0.314-0.173-0.287-0.174-0.292l-0.087,0.052c-0.031,0.027-0.067,0.059-0.107,0.094
			c-0.039,0.035-0.08,0.047-0.122,0.036c0.002,0.039-0.018,0.101-0.058,0.185c-0.041,0.084-0.06,0.142-0.059,0.174
			c0.005,0.059,0.052,0.101,0.145,0.128c-0.018,0.131-0.021,0.269-0.012,0.412c0.003,0.078,0.023,0.256,0.056,0.534
			c0.038,0.22,0.053,0.408,0.046,0.564c0.075,0.003,0.146,0.002,0.212-0.002c0.29-0.016,0.478-0.128,0.564-0.334
			c0.03-0.061,0.063-0.278,0.099-0.651C45.084,43.818,45.172,43.621,45.316,43.51z"></path>
		<path d="M51.141,49.062c-0.118-0.033-0.244-0.045-0.376-0.038c-0.116,0.006-0.272,0.035-0.468,0.084
			c-0.222,0.052-0.374,0.083-0.456,0.094c-0.099-0.131-0.177-0.314-0.233-0.554c-0.095-0.346-0.153-0.542-0.171-0.587
			c0.022-0.04,0.032-0.073,0.031-0.099c-0.004-0.071-0.08-0.13-0.229-0.177c-0.148-0.047-0.224-0.087-0.226-0.12
			c-0.001-0.039,0.078-0.102,0.24-0.189c-0.044-0.037-0.081-0.114-0.107-0.233c-0.029-0.119-0.072-0.196-0.133-0.232
			c-0.096,0.078-0.255,0.134-0.482,0.17c-0.227,0.035-0.376,0.075-0.448,0.118c0.046,0.506,0,1.394-0.206,1.582
			c-0.117-0.014-0.201,0.027-0.254,0.121c-0.077,0.115-0.143,0.185-0.2,0.208l0.079,0.063c-0.064,0.049-0.17,0.074-0.319,0.077
			c-0.233,0.007-0.356,0.01-0.374,0.011l-0.084-0.172l0.35-5.852c-0.02-0.331-0.017-0.556,0.01-0.674
			c-0.035-0.292,0.038-0.479,0.215-0.56c0.12,0.051,0.266,0.072,0.44,0.062c0.141-0.008,0.359-0.045,0.654-0.115
			c0.295-0.069,0.501-0.106,0.616-0.113c0.407-0.022,0.602,0.195,0.588,0.651c-0.012,0.366,0.1,0.838,0.333,1.418
			c0.245,0.625,0.377,1.096,0.396,1.415c0.006,0.098,0.138,0.304,0.135,0.402c-0.168,0.088-0.39,0.149-0.662,0.185
			c-0.24,0.026-0.482,0.054-0.731,0.08c-0.104-0.49-0.339-1.084-0.442-1.568c-0.126-0.579-0.263-1.053-0.41-1.423l-0.156,2.805
			c-0.01,0.242,0.138,0.354,0.444,0.336c0.099-0.005,0.193-0.03,0.283-0.074c0.074-0.023,0.18,0.014,0.318,0.109
			c0.012,0.202,0.073,0.319,0.184,0.351c0.128-0.079,0.298-0.156,0.509-0.234c0.187-0.069,0.37-0.134,0.55-0.197
			c0.114,0.104,0.194,0.266,0.241,0.485c0.059,0.309,0.099,0.489,0.119,0.54c0.024,0.122,0.11,0.385,0.258,0.788
			c0.111,0.319,0.172,0.579,0.185,0.781C51.156,48.885,51.152,48.977,51.141,49.062z"></path>
		<path d="M54.572,42.425h0.014c-0.1,0.142-0.227,0.169-0.382,0.081c-0.035-0.006-0.183,0.003-0.448,0.024
			c-0.224,0.013-0.385,0.002-0.488-0.031c-0.024,0.002-0.074,0.025-0.146,0.072c-0.072,0.047-0.124,0.071-0.158,0.073
			c-0.048,0.003-0.077-0.038-0.081-0.123c0-0.013-0.004-0.068-0.011-0.166c-0.004-0.065-0.036-0.109-0.095-0.131l-0.154,0.116
			c-0.049,0.036-0.071,0.072-0.068,0.111c0.001,0.032,0.03,0.078,0.083,0.137c0.053,0.06,0.084,0.102,0.094,0.127
			c0.002,0.019,0.019,0.312,0.052,0.877c0.013,0.358,0.08,0.643,0.201,0.858c0.031-0.035,0.107-0.054,0.228-0.057
			c0.12-0.003,0.2-0.029,0.238-0.077c0.078,0.068,0.209,0.071,0.393,0.012c0.184-0.06,0.315-0.039,0.397,0.06l-0.024,0.862
			c-0.075-0.008-0.186-0.044-0.33-0.107c-0.043,0.126-0.125,0.205-0.249,0.238c-0.049,0.017-0.188,0.03-0.42,0.043
			c0.005-0.04-0.03-0.08-0.108-0.121c-0.225,0.104-0.31,0.354-0.253,0.748c0.005-0.04,0.014,0.028,0.025,0.205
			c0.006,0.11-0.018,0.19-0.073,0.238c-0.141,0.021-0.319-0.01-0.535-0.091c-0.217-0.083-0.372-0.122-0.462-0.116
			c-0.042,0.002-0.079,0.008-0.111,0.016l-0.233,0.071l-0.372-3.938l-0.044-0.749c0.31-0.102,0.692-0.167,1.148-0.193
			c0.355-0.02,0.821-0.017,1.396,0.009c0.037-0.074,0.104,0.022,0.188,0.018c0.041-0.002,0.104,0.002,0.188,0.014
			c0.083,0.011,0.146,0.016,0.188,0.014c0.05-0.004,0.094-0.012,0.135-0.028l0.059-0.062c0.169,0.049,0.258,0.135,0.264,0.259
			c0.003,0.052-0.013,0.14-0.047,0.267c-0.033,0.125-0.048,0.221-0.045,0.286C54.531,42.33,54.546,42.382,54.572,42.425z
			 M53.12,48.996c-0.09,0.045-0.225,0.071-0.407,0.082c-0.239,0.013-0.385,0.024-0.434,0.034c-0.027-0.024-0.059-0.004-0.113-0.21
			c-0.033-0.135-0.12-0.199-0.26-0.19c-0.035,0.002-0.075,0.007-0.125,0.017l-0.224,0.013l-0.119-1.993
			c0.121-0.059,0.272-0.094,0.455-0.104c0.175-0.01,0.33,0.008,0.465,0.052c-0.004,0.071,0.102,0.102,0.316,0.089l0.236-0.014
			C53.053,47.331,53.138,48.343,53.12,48.996z"></path>
		<path d="M59.543,42.596l0.013,0.009c-0.117-0.007-0.492,0.018-0.781,0.053c-0.248,0.028-0.435,0.032-0.561,0.013
			c-0.12,0.078-0.163,0.185-0.13,0.32l0.077,0.044c-0.062,0.056-0.085,0.099-0.067,0.131l0.066,0.064
			c-0.014,1.155-0.017,1.793-0.01,1.917c0.017,0.305,0.055,0.573,0.11,0.805c-0.049,0.147-0.068,0.314-0.057,0.502
			c0.007,0.124,0.038,0.319,0.09,0.586c0.053,0.267,0.125,1.146,0.133,1.282c0.006,0.103,0.004,0.202-0.007,0.293
			c-0.114,0.046-0.238,0.072-0.371,0.08c-0.223,0.013-0.462-0.033-0.718-0.134c-0.032,0.027-0.067,0.057-0.107,0.088
			c-0.039,0.032-0.05,0.067-0.031,0.104c-0.082,0.024-0.197-0.009-0.342-0.097c-0.079-1.17-0.293-3.551-0.612-5.958
			c-0.111,0.098-0.316,0.017-0.532,0.041c-0.255,0.027-0.506-0.01-0.604,0.035c-0.124-0.13-0.097-0.167-0.11-0.382
			c-0.012-0.208-0.081-0.72-0.026-0.935c0.011-0.045,0.475-0.02,0.748-0.041c0.373-0.021,0.455,0.064,0.479,0.062
			c0.031-0.047,0.213-0.023,0.345-0.031c0.085,0.041,0.177-0.038,0.182,0.021c0.002,0.039,0,0.285-0.028,0.355
			c-0.029,0.069-0.044,0.121-0.042,0.154c0.005,0.077,0.062-0.037,0.198,0.008c0.149-0.002,0.302-0.008,0.459-0.017
			c0.176,0.016,0.378-0.046,0.361,0.098c0.031-0.042,0.049,0.032,0.301-0.067c0.187-0.082,0.3-0.296,0.263-0.442
			c-0.02-0.081,0.092-0.132,0.023-0.095c0.089-0.047,0.008-0.014,0.105-0.052c0.31,0.028,0.483-0.003,0.54-0.007
			c0.126-0.008,0.434,0.071,0.522,0.028c0.064,0.113,0.097,0.468,0.101,0.664C59.536,42.41,59.542,42.576,59.543,42.596z"></path>
		<path d="M63.57,46.662l-0.001-0.01C63.523,46.74,63.5,46.839,63.5,46.95c-0.005,0.072,0,0.172,0.017,0.302
			c0.018,0.148,0.028,0.252,0.032,0.311c-0.068,0.003-0.332,0.018-0.796,0.045c-0.281,0.016-0.533,0.053-0.753,0.111l-0.247-0.182
			c-0.064,0.057-0.085,0.1-0.067,0.131c-0.042-0.004-0.233,0.007-0.572,0.033c-0.266,0.015-0.466,0.006-0.601-0.025
			c-0.126,0.117-0.283,0.127-0.472,0.026c-0.068-0.035-0.081-0.101-0.036-0.198c0.044-0.097,0.023-0.167-0.063-0.207
			c-0.002-0.208,0.006-0.532,0.03-0.969c0.026-0.393,0.033-0.699,0.02-0.92c-0.018-0.299-0.068-0.583-0.15-0.853
			c0.086-0.076,0.188-0.118,0.303-0.125c0.132-0.008,0.293,0.033,0.482,0.12c0.264,0.121,0.4,0.183,0.409,0.183l0.079,0.063
			c0.008-0.02,0.042-0.127,0.106-0.318c0.033-0.126,0.091-0.21,0.171-0.254l0.078,0.054c0.034-0.014,0.137-0.082,0.312-0.203
			c0.135-0.086,0.229-0.402,0.312-0.406c0.091-0.005,0.181,0.029,0.268,0.102c0.144,0.051,0.259,0.405,0.312,0.523
			c0.052,0.117,0.103,0.233,0.151,0.348c-0.373,0.034-0.679,0.048-0.92,0.042c-0.053,0.075-0.137,0.091-0.246,0.048
			c-0.111-0.042-0.19-0.03-0.236,0.039c0.008,0.117,0.02,0.328,0.039,0.633c0.007,0.272,0.021,0.487,0.038,0.643
			c0.023,0.241,0.061,0.459,0.114,0.658c0.067-0.003,0.382-0.021,0.945-0.053C62.948,46.629,63.285,46.633,63.57,46.662z
			 M63.186,42.078c-0.074,0.011-0.158,0.019-0.25,0.024c-0.19,0.01-0.443,0.005-0.761-0.016c-0.392-0.017-0.629-0.026-0.712-0.028
			c-0.107,0.143-0.122,0.259-0.107,0.505c0.031,0.533,0.05,0.764,0.053,0.691c0.12,0.046,0.184,0.14,0.192,0.283
			c0.003,0.195,0.009,0.295,0.018,0.302c-0.058,0.023-0.082,0.089-0.076,0.2c-0.092-0.02-0.191-0.068-0.295-0.14
			c-0.139-0.09-0.182,0.229-0.178,0.144l-0.064,0.198l-0.078-0.054c-0.066,0.01-0.181-0.009-0.346-0.059
			c-0.165-0.049-0.283-0.098-0.352-0.146c-0.006-0.104,0.01-0.164,0.052-0.179l-0.169-0.128l-0.069,0.092
			c-0.148-0.669-0.247-1.849-0.19-2.568c0.317,0.021,0.688-0.034,1.068-0.049c0.257-0.007,0.618-0.028,1.083-0.06
			c0.529-0.037,0.91-0.061,1.141-0.075c0.104,0.066,0.161,0.157,0.167,0.274c0.005,0.071-0.012,0.188-0.048,0.35
			C63.227,41.802,63.18,42,63.186,42.078z"></path>
		<path d="M67.703,45.97l-0.011,0.002c-0.052,0.1-0.069,0.244-0.049,0.432c0.023,0.266,0.036,0.402,0.036,0.409
			c-0.042,0.015-0.095-0.004-0.166-0.06c-0.106,0.039-0.155,0.104-0.15,0.194c0.001,0.013,0.007,0.035,0.017,0.068
			c0.002,0.039,0.003,0.065,0.004,0.077c0.005,0.072-0.017,0.125-0.064,0.161c-0.122-0.065-0.28-0.107-0.476-0.125
			c-0.197-0.018-0.382-0.036-0.558-0.051c-0.004-0.886-0.126-1.752-0.367-2.599c0,0.006-0.006-0.082-0.016-0.264
			c0.001-0.129-0.03-0.222-0.091-0.278l-0.082,0.073c-0.001-0.012,0.026-0.039,0.082-0.078c0.055-0.039,0.083-0.078,0.08-0.116
			c-0.001-0.02-0.007-0.04-0.016-0.058l-0.091-0.064c-0.155,0.048-0.227,0.17-0.215,0.365c0.007,0.13-0.045,0.221-0.159,0.272
			c0.043,0.03,0.067,0.069,0.071,0.114c0,0.026-0.004,0.062-0.012,0.108c-0.01,0.046-0.016,0.083-0.013,0.109
			c0.003,0.058,0.035,0.105,0.095,0.142c0.002,0.039,0.024,0.389,0.062,1.051c0.026,0.422,0.014,0.782-0.034,1.078l0.01,0.166
			c-0.059-0.004-0.125-0.004-0.2,0.001c-0.083,0.005-0.204,0.017-0.359,0.035c-0.158,0.018-0.272,0.03-0.347,0.034
			c-0.307,0.017-0.521-0.032-0.645-0.149l-0.13-3.639c-0.061-0.179-0.1-0.427-0.12-0.746l-0.042-0.701
			c-0.029-0.344-0.072-0.609-0.134-0.794c0.025-0.125,0.138-0.193,0.336-0.205c0.125-0.007,0.292,0.01,0.502,0.05
			c0.097-0.044,0.232-0.072,0.406-0.082c0.051-0.003,0.129-0.003,0.237-0.003c0.116-0.007,0.2-0.011,0.248-0.015
			c0.324-0.018,0.539-0.115,0.645-0.29c0.149-0.002,0.312,0.043,0.488,0.138c0.176,0.094,0.331,0.144,0.465,0.149
			c0.352,0.203,0.542,0.537,0.57,1.005c0.006,0.104-0.036,0.517-0.126,1.239l-0.606,0.513c0.104,0.183,0.227,0.583,0.373,1.201
			C67.271,45.353,67.457,45.729,67.703,45.97z M66.583,41.83l0.014,0.01c0.011,0.045,0.005-0.115-0.015-0.479
			c-0.012-0.176-0.078-0.302-0.198-0.38c-0.069,0.095-0.082-0.126-0.114,0.094c-0.032,0.221-0.088,0.378-0.164,0.474
			c-0.209-0.002-0.257-0.122-0.38-0.292c-0.078-0.107-0.115-0.014-0.115-0.021l-0.057,0.044c-0.032,0.028-0.067,0.06-0.107,0.094
			c-0.039,0.036-0.081,0.047-0.122,0.037c0.002,0.038-0.017,0.1-0.059,0.184c-0.039,0.084-0.059,0.142-0.058,0.174
			c0.004,0.058,0.052,0.101,0.146,0.129c-0.018,0.131-0.021,0.268-0.013,0.411c0.005,0.078,0.023,0.255,0.057,0.535
			c0.038,0.219,0.054,0.406,0.046,0.563c0.075,0.002,0.145,0.001,0.212-0.001c0.29-0.018,0.477-0.129,0.565-0.335
			c0.029-0.061,0.063-0.278,0.098-0.651C66.353,42.14,66.441,41.942,66.583,41.83z"></path>
	</g>
	<g>
		<path d="M26.496,29.186l0,0.009c-0.037,0.337-0.05,0.571-0.037,0.701c-0.053,0.021-0.122,0.023-0.208,0.01
			c-0.11-0.018-0.173-0.026-0.192-0.025c-0.048,0.002-0.086,0.019-0.115,0.049c-0.068-0.043-0.114-0.062-0.139-0.055
			c-0.064,0.039-0.095,0.093-0.092,0.164c0.002,0.03,0.013,0.081,0.036,0.153c0.021,0.074,0.033,0.127,0.036,0.162
			c0.002,0.047-0.008,0.122-0.029,0.222c-0.022,0.101-0.032,0.185-0.029,0.249c0.005,0.077,0.021,0.197,0.052,0.36
			c0.03,0.163,0.045,0.287,0.051,0.369c-0.035,0.162-0.048,0.324-0.04,0.489c0.011,0.2,0.068,0.468,0.169,0.805
			c0.019,0.005,0.038,0.007,0.055,0.005c0.042-0.002,0.093-0.031,0.151-0.086c0.057-0.056,0.106-0.084,0.149-0.087
			c0.03-0.001,0.063,0.006,0.101,0.021c0.108,0.343,0.165,0.563,0.17,0.664c0.002,0.047,0.001,0.097-0.001,0.149
			c-0.161,0.038-0.276-0.016-0.343-0.159c0.009-0.042-0.014-0.085-0.071-0.129l-0.181,0.186c0.177,0.027,0.248,0.159,0.211,0.397
			c-0.016,0.048-0.054,0.073-0.114,0.076c-0.104,0-0.151-0.001-0.146-0.001l-0.149-0.257l-0.059,0.073
			c-0.05-0.121-0.108-0.181-0.173-0.177c-0.036,0.002-0.1,0.032-0.192,0.089c-0.09,0.057-0.166,0.088-0.226,0.09
			c-0.048,0.002-0.097-0.009-0.147-0.037c-0.003-0.07-0.011-0.144-0.024-0.219c-0.013-0.076-0.053-0.125-0.121-0.145
			c-0.003-0.182,0.002-0.663,0.016-1.442c0.006-0.589,0-1.066-0.02-1.431c-0.008-0.152-0.019-0.303-0.033-0.45
			c-0.032-0.046-0.063-0.068-0.094-0.066c-0.024,0.001-0.062,0.027-0.109,0.076c-0.049,0.05-0.092,0.072-0.129,0.068
			c-0.003-0.059-0.03-0.153-0.082-0.283c-0.052-0.13-0.079-0.224-0.083-0.283c-0.004-0.1,0.034-0.188,0.114-0.263l0.212,0.052
			c0.084-0.116,0.12-0.312,0.105-0.589c-0.002-0.052-0.01-0.137-0.022-0.25c-0.012-0.114-0.019-0.198-0.022-0.251
			c-0.023-0.452,0.12-0.687,0.427-0.702c0.114-0.006,0.255,0.015,0.42,0.06l0.203,0.052c0.016,0.076,0.026,0.155,0.03,0.237
			c0.005,0.112,0.001,0.275-0.015,0.491c-0.017,0.216-0.022,0.375-0.017,0.474c0.008,0.159,0.037,0.302,0.085,0.428
			c0.049-0.001,0.125-0.027,0.228-0.077c0.103-0.049,0.179-0.075,0.228-0.077C26.374,29.068,26.442,29.107,26.496,29.186z
			 M25.866,29.818l-0.011-0.203l-0.066-0.059L25.866,29.818z"></path>
		<path d="M28.985,28.552l0.009-0.001c-0.021,0.16-0.047,0.32-0.075,0.481c-0.032,0.184-0.085,0.328-0.159,0.432
			c-0.013-0.005-0.086-0.039-0.223-0.104c-0.094-0.048-0.177-0.067-0.248-0.058c-0.056,0.345-0.085,0.815-0.09,1.41
			c-0.004,0.761-0.01,1.22-0.02,1.38c-0.09-0.007-0.159,0.021-0.204,0.085c-0.045,0.065-0.088,0.13-0.126,0.196
			c-0.016,0.036-0.024,0.069-0.023,0.098c0.002,0.047,0.044,0.093,0.126,0.135c0.081,0.044,0.122,0.093,0.124,0.146
			c-0.034,0.125-0.111,0.19-0.227,0.196c-0.053,0.002-0.148-0.013-0.283-0.048c-0.134-0.035-0.229-0.051-0.283-0.048l-0.131-2.522
			c0.052-0.067,0.073-0.112,0.066-0.136l-0.074-0.05c0.005-0.105,0.012-0.634,0.017-1.583c0.003-0.643,0.028-1.163,0.074-1.56
			c-0.005,0.001,0.182-0.012,0.562-0.036c0.235-0.012,0.387,0.052,0.454,0.189c0.001,0.13-0.012,0.348-0.039,0.656
			c-0.027,0.285-0.037,0.503-0.03,0.656c0.011,0.188,0.042,0.357,0.091,0.508C28.476,28.707,28.713,28.565,28.985,28.552z
			 M29.884,29.091c0.018,0.235,0.033,0.463,0.045,0.687c0.051,0.976,0.035,2.02-0.047,3.133c-0.086,0.074-0.221,0.091-0.401,0.05
			c-0.181-0.041-0.311-0.024-0.392,0.05c-0.104-0.13-0.165-0.366-0.182-0.707c-0.025-0.493-0.039-0.749-0.04-0.768
			c-0.022-1.236,0.102-2.236,0.372-2.998C29.551,28.618,29.767,28.802,29.884,29.091z"></path>
		<path d="M33.061,30.372c-0.039,0.079-0.055,0.163-0.05,0.25c0.003,0.088,0.008,0.173,0.012,0.257
			c-0.009,0.07-0.029,0.142-0.062,0.214c-0.054-0.015-0.101-0.021-0.137-0.02c-0.043,0.002-0.086,0.018-0.129,0.047
			c-0.043,0.029-0.079,0.044-0.103,0.044c-0.035,0.002-0.085-0.011-0.146-0.037l-0.421-0.598c0.015,0.176,0.056,0.33,0.124,0.463
			c0.033,0.068,0.068,0.138,0.102,0.207c-0.247,0.042-0.385,0.049-0.417,0.02l-0.059,0.074l-0.146-0.188
			c-0.115,0.136-0.14,0.334-0.078,0.597c0.075,0.285,0.08,0.491,0.014,0.618c0.091,0.131,0.2,0.193,0.327,0.187
			c0.055-0.002,0.102-0.022,0.142-0.06c0.059-0.145,0.118-0.289,0.177-0.433c0.088-0.175,0.187-0.266,0.294-0.271
			c0.085-0.004,0.184,0.039,0.298,0.127c0.135,0.046,0.205,0.108,0.209,0.184c0.001,0.048-0.03,0.124-0.094,0.23
			c-0.063,0.106-0.094,0.189-0.091,0.249c0.001,0.023,0.005,0.043,0.012,0.061c-0.087,0.063-0.166,0.159-0.234,0.286
			c-0.07,0.127-0.16,0.214-0.273,0.261c-0.098,0.093-0.189,0.142-0.272,0.146c-0.068,0.004-0.167-0.047-0.3-0.149
			c-0.132-0.103-0.255-0.151-0.37-0.146c-0.047-0.104-0.165-0.219-0.353-0.345c-0.188-0.125-0.305-0.262-0.348-0.408
			c0.001,0.012-0.002-0.035-0.007-0.141c-0.003-0.059-0.03-0.096-0.079-0.111l0.068-0.065c-0.091-0.001-0.139-0.051-0.144-0.152
			c0-0.012-0.002-0.035-0.003-0.07c0.003-0.03,0.006-0.054,0.005-0.071c-0.004-0.071-0.028-0.12-0.071-0.147l-0.017-0.309
			c-0.008-0.159-0.042-0.271-0.1-0.34c0.06-0.374,0.119-0.749,0.179-1.123c0.097-0.435,0.243-0.658,0.437-0.667
			c0.03-0.001,0.06,0.003,0.09,0.013c0.174-0.168,0.383-0.258,0.631-0.27c0.272-0.013,0.572,0.066,0.901,0.239
			C32.84,29.437,32.999,29.886,33.061,30.372z M31.812,29.398l-0.059,0.073c-0.043,0.008-0.091-0.013-0.149-0.063l0.011,0.203
			c-0.093,0.098-0.129,0.25-0.113,0.456c0.019,0.353,0.027,0.523,0.026,0.512l0.272-0.005c0.13-0.071,0.19-0.188,0.182-0.354
			c-0.005-0.083-0.035-0.217-0.089-0.407C31.837,29.626,31.811,29.487,31.812,29.398z"></path>
	</g>
	<g>
		<polygon fill-rule="evenodd" clip-rule="evenodd" points="35.188,39.271 35.458,39.422 36.371,37.082 36.067,36.982 
			35.151,39.323 35.418,39.487 35.188,39.271 35.188,39.271 		"></polygon>
		<polygon fill-rule="evenodd" clip-rule="evenodd" points="35.587,38.946 35.477,38.988 35.188,39.271 35.418,39.487 35.713,39.19 
			35.598,39.248 35.587,38.946 35.587,38.946 		"></polygon>
		<polygon fill-rule="evenodd" clip-rule="evenodd" points="37.801,38.927 37.932,38.829 35.587,38.946 35.598,39.248 
			37.941,39.131 38.091,39.022 37.801,38.927 37.801,38.927 37.801,38.927 		"></polygon>
		<polygon fill-rule="evenodd" clip-rule="evenodd" points="38.859,36.777 38.7,36.583 37.801,38.927 38.091,39.022 39.004,36.682 
			38.846,36.489 38.859,36.777 38.859,36.777 38.859,36.777 		"></polygon>
		<polygon fill-rule="evenodd" clip-rule="evenodd" points="36.627,36.851 36.512,36.908 38.859,36.777 38.846,36.489 
			36.507,36.592 36.39,36.648 36.627,36.851 36.627,36.851 36.627,36.851 		"></polygon>
		<polygon fill-rule="evenodd" clip-rule="evenodd" points="36.371,37.082 36.337,37.133 36.627,36.851 36.39,36.648 36.1,36.931 
			36.067,36.982 36.371,37.082 36.371,37.082 36.371,37.082 		"></polygon>
		<polygon fill-rule="evenodd" clip-rule="evenodd" points="38.318,39.206 38.526,39.116 38.024,38.843 37.864,39.121 
			38.382,39.399 38.607,39.3 38.303,39.202 38.303,39.202 38.318,39.206 		"></polygon>
		<polygon fill-rule="evenodd" clip-rule="evenodd" points="39.299,37.045 39.217,36.861 38.303,39.202 38.607,39.3 39.522,36.96 
			39.439,36.777 39.299,37.045 39.299,37.045 		"></polygon>
		<polygon fill-rule="evenodd" clip-rule="evenodd" points="39.004,36.682 38.778,36.781 39.299,37.045 39.439,36.777 
			38.937,36.504 38.7,36.583 39.004,36.682 39.004,36.682 		"></polygon>
		<polygon points="36.225,37.035 36.211,37.03 36.501,36.748 38.678,36.644 38.7,36.583 38.86,36.635 39.004,36.682 38.995,36.708 
			39.377,36.914 39.522,36.96 39.462,37.112 40.527,39.578 39.627,41.923 38.463,39.253 38.463,39.253 38.313,39.314 38.303,39.202 
			38.315,39.173 37.949,38.976 37.864,39.121 37.819,38.981 35.587,39.088 35.297,39.37 		"></polygon>
		<polygon fill-rule="evenodd" clip-rule="evenodd" points="39.481,41.875 39.777,41.862 38.613,39.192 38.313,39.314 
			39.478,41.984 39.772,41.97 39.468,41.871 39.468,41.871 39.481,41.875 		"></polygon>
		<polygon fill-rule="evenodd" clip-rule="evenodd" points="40.392,39.645 40.382,39.531 39.468,41.871 39.772,41.97 40.687,39.631 
			40.677,39.518 40.392,39.645 40.392,39.645 		"></polygon>
		<polygon fill-rule="evenodd" clip-rule="evenodd" points="39.522,36.96 39.228,36.975 40.392,39.645 40.677,39.518 39.512,36.848 
			39.217,36.861 39.522,36.96 39.522,36.96 		"></polygon>
		<polygon fill-rule="evenodd" clip-rule="evenodd" fill="#FFFFFF" points="39.445,37.563 39.575,37.841 39.624,38.124 
			39.61,38.401 39.526,38.688 39.382,38.971 39.183,39.22 38.927,39.451 38.618,39.648 38.449,39.719 38.28,39.79 38.091,39.822 
			37.917,39.86 37.747,39.883 37.564,39.902 37.395,39.878 37.222,39.869 37.071,39.836 36.912,39.784 36.757,39.719 36.622,39.642 
			36.505,39.559 36.375,39.469 36.27,39.356 36.182,39.233 36.051,38.956 36.003,38.673 36.003,38.39 36.101,38.108 36.225,37.834 
			36.429,37.572 36.685,37.341 37.008,37.147 37.164,37.073 37.347,37.007 37.521,36.969 37.696,36.932 37.878,36.913 38.048,36.89 
			38.218,36.913 38.391,36.923 38.55,36.974 38.709,37.025 38.855,37.073 39.004,37.153 39.126,37.224 39.25,37.327 39.339,37.45 
			39.445,37.563 39.445,37.563 39.445,37.563 		"></polygon>
		<polygon fill-rule="evenodd" clip-rule="evenodd" points="39.56,38.024 39.692,38.303 39.734,38.599 39.72,38.877 39.642,39.15 
			39.512,39.438 39.294,39.696 39.057,39.917 38.733,40.11 38.56,40.194 38.39,40.265 38.217,40.303 38.028,40.335 37.859,40.359 
			37.696,40.369 37.521,40.359 37.336,40.331 37.187,40.297 37.028,40.246 36.888,40.184 36.737,40.104 36.618,40.034 
			36.505,39.935 36.395,39.836 36.298,39.695 36.163,39.431 36.114,39.148 36.134,38.856 36.21,38.583 36.342,38.297 36.54,38.046 
			36.796,37.816 37.119,37.624 37.293,37.539 37.458,37.482 37.638,37.431 37.826,37.397 37.989,37.388 38.159,37.365 
			38.329,37.388 38.502,37.397 38.667,37.436 38.826,37.487 38.966,37.549 39.121,37.615 39.236,37.7 39.367,37.789 39.454,37.912 
			39.556,38.039 39.556,38.039 39.56,38.024 		"></polygon>
		<polygon fill-rule="evenodd" clip-rule="evenodd" fill="#FFFFFF" points="39.642,38.349 39.778,38.613 39.821,38.91 
			39.807,39.188 39.729,39.46 39.584,39.743 39.381,40.006 39.145,40.227 38.821,40.421 38.661,40.51 38.478,40.576 38.303,40.613 
			38.115,40.646 37.946,40.669 37.782,40.679 37.607,40.669 37.424,40.641 37.274,40.608 37.114,40.557 36.975,40.496 
			36.825,40.416 36.704,40.344 36.578,40.24 36.487,40.133 36.385,40.006 36.25,39.742 36.201,39.459 36.215,39.182 36.298,38.894 
			36.428,38.607 36.632,38.343 36.897,38.132 37.208,37.935 37.381,37.85 37.55,37.778 37.724,37.741 37.913,37.709 38.082,37.685 
			38.246,37.675 38.435,37.69 38.59,37.709 38.753,37.747 38.913,37.798 39.067,37.864 39.204,37.939 39.324,38.01 39.455,38.1 
			39.542,38.222 39.642,38.349 39.642,38.349 		"></polygon>
		<polygon fill-rule="evenodd" clip-rule="evenodd" points="39.759,38.811 39.889,39.089 39.938,39.371 39.938,39.654 39.84,39.936 
			39.714,40.209 39.496,40.468 39.256,40.704 38.932,40.896 38.777,40.972 38.593,41.037 38.419,41.075 38.245,41.112 
			38.062,41.131 37.893,41.155 37.723,41.131 37.55,41.122 37.385,41.084 37.225,41.032 37.086,40.971 36.936,40.891 36.819,40.806 
			36.704,40.722 36.598,40.608 36.496,40.481 36.38,40.208 36.317,39.92 36.331,39.642 36.414,39.356 36.555,39.088 36.757,38.824 
			37.012,38.593 37.323,38.396 37.492,38.325 37.662,38.255 37.85,38.222 38.024,38.184 38.192,38.161 38.371,38.156 38.545,38.166 
			38.705,38.17 38.87,38.208 39.028,38.26 39.184,38.326 39.319,38.401 39.449,38.49 39.565,38.575 39.671,38.688 39.752,38.825 
			39.752,38.825 39.759,38.811 		"></polygon>
		<polygon fill-rule="evenodd" clip-rule="evenodd" fill="#FFFFFF" points="39.928,39.117 40.063,39.381 40.111,39.663 
			40.106,39.96 40.029,40.232 39.883,40.515 39.666,40.774 39.429,40.995 39.121,41.193 38.946,41.278 38.763,41.344 38.589,41.381 
			38.414,41.418 38.23,41.438 38.067,41.447 37.893,41.438 37.723,41.414 37.56,41.376 37.399,41.324 37.26,41.263 37.119,41.202 
			36.989,41.112 36.877,41.013 36.772,40.899 36.685,40.778 36.549,40.514 36.491,40.212 36.505,39.935 36.598,39.667 
			36.728,39.379 36.93,39.116 37.183,38.899 37.492,38.702 37.666,38.618 37.835,38.546 38.019,38.527 38.197,38.476 38.367,38.452 
			38.545,38.448 38.72,38.458 38.874,38.477 39.039,38.514 39.212,38.57 39.353,38.632 39.492,38.693 39.624,38.783 39.734,38.881 
			39.841,38.994 39.928,39.117 39.928,39.117 		"></polygon>
		<polygon fill-rule="evenodd" clip-rule="evenodd" points="40.059,39.583 40.173,39.856 40.237,40.144 40.222,40.421 
			40.141,40.708 39.999,40.977 39.796,41.24 39.54,41.471 39.231,41.668 39.062,41.739 38.878,41.805 38.705,41.843 38.53,41.881 
			38.361,41.903 38.177,41.922 38.008,41.899 37.834,41.889 37.685,41.856 37.511,41.8 37.37,41.739 37.235,41.663 37.104,41.573 
			36.989,41.488 36.882,41.375 36.795,41.253 36.665,40.976 36.602,40.688 36.618,40.411 36.713,40.128 36.839,39.854 
			37.042,39.591 37.298,39.361 37.622,39.167 37.777,39.093 37.961,39.027 38.135,38.989 38.308,38.951 38.492,38.933 38.662,38.91 
			38.83,38.933 38.99,38.938 39.169,38.98 39.328,39.032 39.468,39.093 39.604,39.168 39.734,39.257 39.85,39.343 39.956,39.456 
			40.059,39.583 40.059,39.583 40.059,39.583 		"></polygon>
		<polygon fill-rule="evenodd" clip-rule="evenodd" points="24.082,35.99 24.095,35.9 23.176,38.254 23.466,38.348 24.385,35.994 
			24.39,35.933 24.082,35.99 24.082,35.99 24.082,35.99 		"></polygon>
		<polygon fill-rule="evenodd" clip-rule="evenodd" points="24.057,35.872 24.062,35.858 24.082,35.99 24.39,35.933 24.357,35.797 
			24.362,35.783 24.057,35.872 24.057,35.872 24.057,35.872 		"></polygon>
		<polygon fill-rule="evenodd" clip-rule="evenodd" points="24.022,35.735 24.057,35.872 24.362,35.783 24.327,35.646 
			24.022,35.735 24.022,35.735 24.022,35.735 		"></polygon>
		<polygon fill-rule="evenodd" clip-rule="evenodd" points="23.985,35.613 24.022,35.735 24.327,35.646 24.289,35.523 
			23.985,35.613 23.985,35.613 		"></polygon>
		<polygon fill-rule="evenodd" clip-rule="evenodd" points="23.95,35.477 23.95,35.477 23.985,35.613 24.289,35.523 24.255,35.386 
			24.25,35.401 23.95,35.477 23.95,35.477 23.95,35.477 		"></polygon>
		<polygon fill-rule="evenodd" clip-rule="evenodd" points="23.913,35.307 23.913,35.354 23.95,35.477 24.25,35.401 24.212,35.278 
			24.226,35.331 23.913,35.307 23.913,35.307 		"></polygon>
		<polygon fill-rule="evenodd" clip-rule="evenodd" points="24.222,35.251 23.917,35.198 23.913,35.307 24.226,35.331 24.23,35.223 
			23.926,35.17 24.217,35.265 24.217,35.265 24.222,35.251 		"></polygon>
		<polygon fill-rule="evenodd" clip-rule="evenodd" fill="#4C4849" points="24.485,42.101 24.457,41.95 24.133,42.002 
			24.157,42.167 24.485,42.101 24.485,42.101 24.485,42.101 		"></polygon>
		<polygon fill-rule="evenodd" clip-rule="evenodd" points="25.158,40.138 25.167,40.062 24.253,42.402 24.543,42.497 
			25.458,40.157 25.453,40.077 25.158,40.138 25.158,40.138 25.158,40.138 		"></polygon>
		<polygon fill-rule="evenodd" clip-rule="evenodd" points="25.134,39.973 25.158,40.138 25.453,40.077 25.428,39.912 
			25.118,39.968 25.118,39.968 25.134,39.973 		"></polygon>
		<polygon fill-rule="evenodd" clip-rule="evenodd" points="25.09,39.817 25.118,39.968 25.428,39.912 25.385,39.757 25.09,39.817 
			25.09,39.817 25.09,39.817 		"></polygon>
		<polygon fill-rule="evenodd" clip-rule="evenodd" points="25.052,39.648 25.061,39.667 25.09,39.817 25.385,39.757 25.36,39.591 
			25.37,39.611 25.052,39.648 25.052,39.648 25.052,39.648 		"></polygon>
		<polygon fill-rule="evenodd" clip-rule="evenodd" points="25.341,39.507 25.032,39.469 25.052,39.648 25.37,39.611 25.347,39.446 
			25.036,39.408 25.341,39.507 25.341,39.507 		"></polygon>
		<g>
			<polygon fill="#4C4849" points="23.178,37.788 23.032,37.83 23.178,37.788 			"></polygon>
			<polygon fill="#4C4849" points="23.331,38.278 23.336,38.264 23.411,38.269 23.466,38.348 23.331,38.304 			"></polygon>
			<polygon points="22.998,37.694 23.152,37.665 23.158,37.557 24.076,35.203 24.071,35.218 24.071,35.312 24.096,35.429 
				24.144,35.571 24.182,35.693 24.216,35.83 24.241,35.947 24.241,35.947 24.385,35.994 23.466,38.348 23.411,38.269 
				23.336,38.264 23.331,38.278 23.331,38.304 23.466,38.348 23.332,38.34 23.336,38.447 23.242,38.334 23.167,38.329 
				23.147,38.198 23.204,38.186 23.263,38.035 23.109,38.075 23.065,37.967 23.032,37.83 23.178,37.788 23.178,37.788 23.032,37.83 
				23.037,37.816 			"></polygon>
		</g>
		<g>
			<polygon fill="none" points="30.479,38.337 30.479,38.337 30.61,38.05 			"></polygon>
			<polygon points="23.326,38.146 30.055,37.931 30.228,37.941 30.257,37.951 30.422,37.988 30.437,37.993 30.61,38.05 
				30.779,38.12 30.793,38.125 30.953,38.224 30.981,38.233 31.107,38.337 31.146,38.365 31.238,38.473 31.248,38.493 
				31.311,38.591 31.315,38.624 31.019,38.711 30.972,38.638 30.968,38.652 30.89,38.549 30.891,38.548 30.788,38.469 
				30.813,38.493 30.649,38.408 30.649,38.407 30.479,38.337 30.479,38.337 30.334,38.291 30.17,38.252 30.199,38.262 
				30.043,38.242 30.044,38.228 23.336,38.447 			"></polygon>
			<polygon points="31.012,38.714 31.019,38.711 31.035,38.737 			"></polygon>
		</g>
		<polygon fill-rule="evenodd" clip-rule="evenodd" points="34.605,44.214 34.605,44.12 33.687,46.473 33.991,46.573 34.91,44.219 
			34.91,44.125 34.605,44.214 34.605,44.214 34.605,44.214 		"></polygon>
		<polygon fill-rule="evenodd" clip-rule="evenodd" points="31.949,36.397 31.929,36.36 34.605,44.214 34.91,44.125 32.234,36.271 
			32.229,36.237 31.949,36.397 31.949,36.397 31.949,36.397 		"></polygon>
		<polygon fill-rule="evenodd" clip-rule="evenodd" points="31.896,36.317 31.886,36.298 31.949,36.397 32.229,36.237 
			32.167,36.138 32.152,36.134 31.881,36.312 31.881,36.312 31.896,36.317 		"></polygon>
		<polygon fill-rule="evenodd" clip-rule="evenodd" points="31.833,36.218 31.809,36.195 31.881,36.312 32.152,36.134 
			32.051,36.007 32.025,35.983 31.833,36.218 31.833,36.218 31.833,36.218 		"></polygon>
		<polygon fill-rule="evenodd" clip-rule="evenodd" points="31.727,36.152 31.702,36.129 31.833,36.218 32.025,35.983 
			31.896,35.893 31.872,35.87 31.727,36.152 31.727,36.152 		"></polygon>
		<polygon fill-rule="evenodd" clip-rule="evenodd" points="31.582,36.058 31.567,36.053 31.727,36.152 31.872,35.87 31.708,35.786 
			31.693,35.78 31.582,36.058 31.582,36.058 		"></polygon>
		<polygon fill-rule="evenodd" clip-rule="evenodd" points="31.427,35.992 31.393,35.997 31.582,36.058 31.693,35.78 31.523,35.71 
			31.509,35.705 31.408,36.001 31.408,36.001 31.427,35.992 		"></polygon>
		<polygon fill-rule="evenodd" clip-rule="evenodd" points="31.253,35.936 31.233,35.945 31.408,36.001 31.509,35.705 
			31.335,35.648 31.335,35.648 31.248,35.95 31.248,35.95 31.253,35.936 		"></polygon>
		<polygon fill-rule="evenodd" clip-rule="evenodd" points="31.118,35.907 31.089,35.898 31.248,35.95 31.335,35.648 31.156,35.606 
			31.142,35.602 31.118,35.907 31.118,35.907 31.118,35.907 		"></polygon>
		<polygon fill-rule="evenodd" clip-rule="evenodd" points="30.962,35.889 30.958,35.902 31.118,35.907 31.142,35.602 
			30.972,35.578 30.953,35.587 30.962,35.889 30.962,35.889 		"></polygon>
		<polygon fill-rule="evenodd" clip-rule="evenodd" points="24.4,35.999 24.236,36.102 30.962,35.889 30.953,35.587 24.241,35.806 
			24.095,35.9 24.385,35.994 24.385,35.994 24.4,35.999 		"></polygon>
		<polygon fill="#4C4849" points="26.09,43.155 26.066,43.145 26.08,43.137 		"></polygon>
		<g>
			<polygon fill="#4C4849" points="29.724,44.215 29.696,44.532 29.724,44.215 			"></polygon>
			<g>
				<polygon fill="none" points="29.71,44.366 29.696,44.532 29.71,44.366 				"></polygon>
				<g>
					<polygon fill="none" points="24.258,41.818 24.268,41.796 24.274,41.826 					"></polygon>
					<path d="M24.157,42.167l0.029,0.151l0.058,0.16l0.073,0.118l0.412,0.211l0.41,0.213l0.396,0.207l0.402,0.192l0.014,0.005
						l0.406,0.179l0.406,0.179l0.44,0.174l0.444,0.16l0.016,0.005l0.474,0.123l0.474,0.122l0.014,0.004l0.522,0.075l0.536,0.081
						l0.015,0.005l0.584,0.034l0.02-0.01l0.624,0.015l0.667-0.019l0.705-0.037l0.146-0.095l0.913-2.339L33.2,41.873l0.008,0.302
						l-0.047-0.059l0.035-0.087l-0.102,0.005l-0.044-0.053l-0.021,0.058l-0.524,0.032h-0.677l-0.625-0.014l-0.57-0.029l-0.555-0.071
						l-0.517-0.089l-0.475-0.123l-0.473-0.123l-0.444-0.16l-0.43-0.156l-0.406-0.179l-0.401-0.194l-0.416-0.197l-0.396-0.207
						l-0.396-0.208l-0.275-0.141l0.009-0.023l-0.146-0.048l0,0l-0.039-0.169l-0.028-0.151l-0.012-0.052l0.108-0.231l-0.152-0.049
						l-0.007-0.003l0,0l-0.146-0.047l-0.913,2.339l-0.01,0.075l0.025,0.165L24.157,42.167z M24.268,41.796l0.006,0.029l-0.016-0.007
						L24.268,41.796z"></path>
				</g>
			</g>
		</g>
		<polygon fill-rule="evenodd" clip-rule="evenodd" points="32.504,42.212 33.208,42.175 33.2,41.873 32.494,41.911 32.504,42.212 
			32.504,42.212 32.504,42.212 		"></polygon>
		<polygon fill-rule="evenodd" clip-rule="evenodd" points="31.837,42.23 32.504,42.212 32.494,41.911 31.827,41.93 31.837,42.23 
			31.837,42.23 31.837,42.23 		"></polygon>
		<polygon fill-rule="evenodd" clip-rule="evenodd" points="31.198,42.211 31.213,42.216 31.837,42.23 31.827,41.93 31.204,41.916 
			31.223,41.906 31.193,42.226 31.193,42.226 31.198,42.211 		"></polygon>
		<polygon fill-rule="evenodd" clip-rule="evenodd" points="30.599,42.174 30.614,42.179 31.193,42.226 31.223,41.906 
			30.638,41.873 30.652,41.877 30.599,42.174 30.599,42.174 30.599,42.174 		"></polygon>
		<polygon fill-rule="evenodd" clip-rule="evenodd" points="30.058,42.107 30.599,42.174 30.652,41.877 30.116,41.797 
			30.058,42.107 30.058,42.107 		"></polygon>
		<polygon fill-rule="evenodd" clip-rule="evenodd" points="29.526,42.013 29.541,42.018 30.058,42.107 30.116,41.797 29.58,41.717 
			29.594,41.721 29.526,42.013 29.526,42.013 29.526,42.013 		"></polygon>
		<polygon fill-rule="evenodd" clip-rule="evenodd" points="29.053,41.891 29.526,42.013 29.594,41.721 29.121,41.599 
			29.048,41.905 29.048,41.905 29.053,41.891 		"></polygon>
		<polygon fill-rule="evenodd" clip-rule="evenodd" points="28.56,41.777 28.575,41.782 29.048,41.905 29.121,41.599 28.647,41.476 
			28.661,41.48 28.56,41.777 28.56,41.777 		"></polygon>
		<polygon fill-rule="evenodd" clip-rule="evenodd" points="28.114,41.617 28.114,41.617 28.56,41.777 28.661,41.48 28.217,41.321 
			28.232,41.325 28.101,41.613 28.101,41.613 28.114,41.617 		"></polygon>
		<polygon fill-rule="evenodd" clip-rule="evenodd" points="27.675,41.442 28.101,41.613 28.232,41.325 27.806,41.155 
			27.675,41.442 27.675,41.442 		"></polygon>
		<polygon fill-rule="evenodd" clip-rule="evenodd" points="27.27,41.263 27.675,41.442 27.806,41.155 27.395,40.99 27.27,41.263 
			27.27,41.263 		"></polygon>
		<polygon fill-rule="evenodd" clip-rule="evenodd" points="26.854,41.065 26.863,41.085 27.27,41.263 27.395,40.99 26.979,40.792 
			26.995,40.798 26.85,41.081 26.85,41.081 26.854,41.065 		"></polygon>
		<polygon fill-rule="evenodd" clip-rule="evenodd" points="26.453,40.873 26.85,41.081 26.995,40.798 26.593,40.604 26.448,40.887 
			26.448,40.887 26.453,40.873 		"></polygon>
		<polygon fill-rule="evenodd" clip-rule="evenodd" points="26.056,40.666 26.448,40.887 26.593,40.604 26.197,40.397 
			26.042,40.661 26.042,40.661 26.056,40.666 		"></polygon>
		<polygon fill-rule="evenodd" clip-rule="evenodd" points="25.645,40.453 26.042,40.661 26.197,40.397 25.8,40.189 25.645,40.453 
			25.645,40.453 		"></polygon>
		<polygon fill-rule="evenodd" clip-rule="evenodd" points="25.458,40.157 25.235,40.241 25.645,40.453 25.8,40.189 25.39,39.978 
			25.167,40.062 25.458,40.157 25.458,40.157 25.458,40.157 		"></polygon>
		<polygon fill-rule="evenodd" clip-rule="evenodd" points="67.352,35.917 66.432,38.27 69.432,39.246 70.129,37.683 70.149,37.532 
			70.153,37.376 70.129,37.212 70.071,37.052 69.975,36.91 69.897,36.759 69.772,36.609 69.641,36.472 69.507,36.35 69.357,36.223 
			69.202,36.109 69.052,36.029 68.908,35.936 68.738,35.865 68.588,35.785 68.443,35.737 68.313,35.695 68.157,35.676 
			68.018,35.662 67.882,35.681 67.746,35.699 67.603,35.747 67.476,35.832 67.352,35.917 67.352,35.917 67.352,35.917 		"></polygon>
		<polygon fill-rule="evenodd" clip-rule="evenodd" points="69.298,39.17 69.486,39.09 66.485,38.115 66.383,38.411 69.385,39.386 
			69.588,39.312 69.298,39.17 69.298,39.17 		"></polygon>
		<g>
			<polygon fill="none" points="69.877,39.849 69.897,40.008 69.877,39.849 			"></polygon>
			<polygon fill="none" points="71.425,38.272 71.536,38.375 71.416,38.293 			"></polygon>
			<g>
				<polygon fill="none" points="71.536,38.375 71.416,38.293 71.425,38.272 				"></polygon>
				<g>
					<polygon fill="none" points="71.536,38.375 71.416,38.293 71.425,38.272 					"></polygon>
					<polygon points="22.998,37.553 23.012,37.51 23.926,35.17 24.217,35.265 23.331,37.576 23.311,37.67 23.307,37.637 
						22.998,37.694 22.993,37.661 					"></polygon>
					<g>
						<polygon fill="none" points="71.536,38.375 71.416,38.293 71.425,38.272 						"></polygon>
						<polygon fill="#4C4849" points="37.713,43.09 37.66,43.122 37.655,43.118 						"></polygon>
						<g>
							<polygon fill="none" points="37.772,43.228 37.887,43.334 37.772,43.228 							"></polygon>
							<polygon fill="none" points="71.536,38.375 71.416,38.293 71.425,38.272 							"></polygon>
							<polygon fill="none" points="33.832,46.521 33.841,46.521 33.841,46.524 33.687,46.473 33.816,46.476 							"></polygon>
							<path d="M23.109,38.075l0.034,0.136l0.004-0.014l0.233-0.049l-0.059,0.152l6.727-0.214l0.16,0.005l0.174,0.057l0.174,0.056
								l0.174,0.057l0.159,0.099l0.13,0.089l0.092,0.108l0.056,0.109l-0.157,0.047l2.675,7.854l0.156,0.003l0.003,0.097h0.241
								l0.228-0.005l0.208,0.005l0.189-0.033l0.192-0.047l0.194-0.094l0.178-0.146l0.212-0.197l0.006-0.015l0.121-0.164l0.141-0.174
								l0.16-0.184l0.111-0.184l0.14-0.221l0.145-0.188l0.122-0.211l0.155-0.216l0.125-0.179l0.179-0.194l0.145-0.188l0.17-0.165
								l0.149-0.155l0.16-0.136l0.155-0.122l0.178-0.1l0.039-0.019l-0.115-0.107l0,0l0.115,0.107l0.179-0.193l0.165-0.15
								l0.145-0.142l0.155-0.122l0.151-0.108l0.158-0.09l0.141-0.08l0.155-0.075l0.174-0.038l0.169-0.071l0.174-0.038l0.203-0.028
								l0.222-0.038l0.246-0.014l0.267-0.023l0.26-0.009l0.015,0.004l29.032-2.113l0.169-0.023l0.155-0.029l0.14-0.033l0.145-0.047
								l0.136-0.065l0.14-0.081l0.116-0.104l0.135-0.112l0.029-0.039l0.507-1.152l-0.264-0.165l0.118,0.11l-0.02,0.015l-0.127-0.088
								l-0.127,0.289l-0.086,0.049l-0.111,0.042l-0.13,0.053l-0.122,0.023l-0.154,0.028l-0.153,0.027l-29.047,2.108l-0.185,0.019
								l-0.179,0.004l-0.179,0.005l-0.188,0.033h-0.194l-0.168,0.023l-0.184,0.019l-0.169,0.024l-0.188,0.032L39.541,41
								l-0.173,0.037l-0.193,0.048L39,41.123l-0.185,0.065l-0.183,0.066l-0.175,0.084l-0.342,0.203l-0.349,0.31l-0.367,0.368
								l-0.354,0.419l-0.343,0.438l-0.294,0.391l-0.291,0.376l-0.242,0.282l-0.141,0.033l-0.121,0.024l-0.15,0.014H35.32h-0.145
								l-0.125-0.009l-0.159-0.006l-0.141-0.014l-2.666-7.835l-0.059-0.113l-0.091-0.108l-0.13-0.09l-0.174-0.103l-0.169-0.07
								l-0.174-0.057l-0.165-0.038l-0.16-0.004l-6.722,0.199l-0.808,2.071l-0.005-0.027L23.109,38.075z M71.416,38.293l0.009-0.021
								l0.11,0.103L71.416,38.293z"></path>
						</g>
					</g>
				</g>
			</g>
		</g>
		<polygon fill-rule="evenodd" clip-rule="evenodd" points="70.4,38.869 70.573,38.832 70.729,38.804 70.869,38.77 71.014,38.723 
			71.149,38.658 71.289,38.577 71.4,38.488 71.536,38.375 71.305,38.159 71.203,38.267 71.097,38.342 70.994,38.403 70.884,38.445 
			70.777,38.474 70.651,38.511 70.516,38.53 70.366,38.544 70.4,38.869 70.4,38.869 		"></polygon>
		<polygon fill-rule="evenodd" clip-rule="evenodd" points="41.373,40.968 70.4,38.869 70.366,38.544 41.335,40.657 41.373,40.968 
			41.373,40.968 		"></polygon>
		<polygon fill-rule="evenodd" clip-rule="evenodd" points="38.525,41.47 38.694,41.4 38.859,41.344 39.057,41.282 39.221,41.226 
			39.4,41.174 39.569,41.151 39.738,41.127 39.927,41.094 40.082,41.065 40.26,41.062 40.445,41.042 40.628,41.024 40.812,41.005 
			40.976,40.996 41.174,40.981 41.373,40.968 41.335,40.657 41.15,40.676 40.967,40.695 40.772,40.695 40.59,40.713 40.411,40.718 
			40.237,40.756 40.058,40.761 39.859,40.774 39.685,40.812 39.511,40.849 39.323,40.882 39.13,40.93 38.965,40.985 38.767,41.047 
			38.569,41.108 38.396,41.193 38.525,41.47 38.525,41.47 38.525,41.47 		"></polygon>
		<polygon fill-rule="evenodd" clip-rule="evenodd" points="35.925,44.266 35.988,44.224 36.118,44.078 36.234,43.927 
			36.374,43.753 36.519,43.564 36.685,43.368 36.833,43.164 37.003,42.953 37.172,42.741 37.346,42.515 37.525,42.322 
			37.699,42.143 37.878,41.95 38.028,41.795 38.217,41.668 38.37,41.546 38.525,41.47 38.396,41.193 38.197,41.301 38.028,41.418 
			37.83,41.573 37.641,41.748 37.467,41.927 37.292,42.106 37.1,42.341 36.93,42.553 36.76,42.764 36.592,42.976 36.442,43.178 
			36.277,43.376 36.133,43.564 35.992,43.739 35.876,43.89 35.771,44.012 35.828,43.984 35.925,44.266 35.925,44.266 35.925,44.266 
					"></polygon>
		<polygon fill="none" points="67.289,36.053 67.352,35.917 67.467,35.812 67.641,35.728 67.844,35.699 67.955,35.705 
			68.081,35.713 68.201,35.737 68.322,35.761 68.467,35.808 68.598,35.851 68.739,35.912 68.888,35.992 69.014,36.049 
			69.144,36.138 69.259,36.223 69.386,36.326 69.516,36.416 69.608,36.524 69.719,36.623 69.811,36.731 69.98,36.944 70.066,37.16 
			70.11,37.269 70.134,37.339 70.121,37.522 70.086,37.668 69.98,37.791 69.825,37.866 69.617,37.908 69.501,37.918 69.38,37.894 
			69.241,37.88 69.091,37.847 68.96,37.805 68.815,37.757 68.66,37.692 68.525,37.616 68.385,37.555 68.234,37.475 68.104,37.386 
			67.979,37.282 67.863,37.197 67.743,37.079 67.636,36.966 67.543,36.858 67.395,36.637 67.308,36.42 67.284,36.349 67.259,36.231 
					"></polygon>
		<polygon fill-rule="evenodd" clip-rule="evenodd" fill="#FFFFFF" points="30.363,35.757 30.962,35.748 31.012,35.748 
			25.865,34.075 25.604,34.225 30.359,35.771 30.359,35.771 30.363,35.757 		"></polygon>
		<polygon fill-rule="evenodd" clip-rule="evenodd" fill="#FFFFFF" points="30.363,35.757 24.241,35.947 24.216,35.83 
			24.182,35.693 24.144,35.571 24.096,35.429 24.071,35.312 24.071,35.218 24.11,35.105 24.217,35.029 24.467,34.86 24.748,34.7 
			25.028,34.54 25.309,34.379 25.575,34.215 25.604,34.225 30.359,35.771 30.359,35.771 30.363,35.757 		"></polygon>
		<polygon fill="#FFFFFF" points="26.642,39.38 30.812,39.151 32.445,39.792 33.021,41.455 33.195,42.029 32.504,42.071 
			31.827,42.071 31.203,42.057 30.633,42.028 30.078,41.957 29.561,41.868 29.086,41.745 28.613,41.623 28.168,41.462 
			27.738,41.306 27.333,41.127 26.931,40.934 26.516,40.736 26.12,40.529 25.724,40.321 25.312,40.109 25.273,39.94 25.245,39.79 
			25.207,39.62 25.182,39.455 		"></polygon>
		<polygon fill-rule="evenodd" clip-rule="evenodd" fill="#FFFFFF" points="37.148,39.845 37.208,39.912 37.744,40.227 
			37.917,39.954 37.38,39.639 37.433,39.719 37.148,39.845 37.167,39.883 37.208,39.912 37.148,39.845 37.148,39.845 		"></polygon>
		<polygon fill-rule="evenodd" clip-rule="evenodd" fill="#FFFFFF" points="32.378,39.943 32.286,39.834 33.049,42.076 
			33.354,41.986 32.592,39.745 32.509,39.656 32.592,39.745 32.567,39.675 32.509,39.656 32.378,39.943 32.378,39.943 
			32.378,39.943 		"></polygon>
		<polygon fill-rule="evenodd" clip-rule="evenodd" fill="#FFFFFF" points="30.827,39.297 30.75,39.288 32.378,39.943 
			32.509,39.656 30.881,39 30.817,38.996 30.881,39 30.852,38.991 30.817,38.996 30.827,39.297 30.827,39.297 30.827,39.297 		"></polygon>
		<polygon fill-rule="evenodd" clip-rule="evenodd" fill="#FFFFFF" points="25.347,39.446 25.192,39.615 30.827,39.297 
			30.817,38.996 25.183,39.314 25.032,39.469 25.183,39.314 25.003,39.318 25.032,39.469 25.347,39.446 25.347,39.446 		"></polygon>
		<polygon fill-rule="evenodd" clip-rule="evenodd" fill="#FFFFFF" points="25.39,39.978 25.453,40.077 25.448,39.997 
			25.428,39.912 25.423,39.832 25.399,39.761 25.395,39.682 25.375,39.597 25.351,39.525 25.347,39.446 25.032,39.469 
			25.032,39.563 25.046,39.663 25.071,39.733 25.075,39.813 25.1,39.883 25.118,39.968 25.153,40.058 25.158,40.138 25.235,40.241 
			25.158,40.138 25.182,40.208 25.235,40.241 25.39,39.978 25.39,39.978 		"></polygon>
		<polygon fill-rule="evenodd" clip-rule="evenodd" fill="#FFFFFF" points="33.055,42.062 33.185,41.869 32.494,41.911 
			31.827,41.93 31.223,41.906 30.638,41.873 30.116,41.797 29.594,41.721 29.121,41.599 28.661,41.48 28.217,41.321 27.806,41.155 
			27.395,40.99 26.995,40.798 26.593,40.604 26.197,40.397 25.8,40.189 25.39,39.978 25.235,40.241 25.645,40.453 26.042,40.661 
			26.448,40.887 26.85,41.081 27.27,41.263 27.675,41.442 28.114,41.617 28.56,41.777 29.048,41.905 29.526,42.013 30.058,42.107 
			30.614,42.179 31.193,42.226 31.837,42.23 32.504,42.212 33.223,42.18 33.354,41.986 33.223,42.18 33.422,42.165 33.354,41.986 
			33.049,42.076 33.049,42.076 33.055,42.062 		"></polygon>
		<g>
			<polygon fill="none" points="35.97,44.051 36.089,44.163 35.97,44.051 			"></polygon>
			<polygon fill="none" points="34.9,44.012 34.873,44.013 34.873,44.013 			"></polygon>
			<polygon fill="none" points="32.276,36.395 36.506,37.769 32.276,36.395 			"></polygon>
		</g>
		<polygon fill-rule="evenodd" clip-rule="evenodd" fill="#FFFFFF" points="41.335,40.657 41.122,40.667 40.884,40.699 
			40.672,40.708 40.44,40.727 40.217,40.765 39.98,40.798 39.744,40.831 39.516,40.882 39.288,40.934 39.091,40.995 38.874,41.065 
			38.67,41.141 38.497,41.226 38.289,41.315 38.12,41.433 37.965,41.555 38.158,41.791 38.308,41.683 38.453,41.588 38.613,41.499 
			38.796,41.433 38.976,41.334 39.168,41.287 39.395,41.236 39.594,41.174 39.812,41.151 40.004,41.104 40.237,41.085 
			40.459,41.048 40.695,41.015 40.928,40.996 41.145,40.973 41.373,40.968 41.335,40.657 41.335,40.657 41.335,40.657 		"></polygon>
		<polygon fill-rule="evenodd" clip-rule="evenodd" fill="#FFFFFF" points="70.366,38.544 41.335,40.657 41.373,40.968 70.4,38.869 
			70.366,38.544 70.366,38.544 		"></polygon>
		<polygon fill-rule="evenodd" clip-rule="evenodd" fill="#FFFFFF" points="70.908,36.821 71.029,36.986 71.154,37.137 
			71.212,37.296 71.304,37.453 71.352,37.594 71.367,37.74 71.372,37.867 71.362,37.989 71.328,38.088 71.279,38.182 71.217,38.271 
			71.106,38.361 70.989,38.418 70.806,38.483 70.613,38.53 70.366,38.544 70.4,38.869 70.667,38.846 70.897,38.78 71.101,38.705 
			71.279,38.606 71.444,38.502 71.56,38.352 71.623,38.215 71.681,38.046 71.676,37.871 71.687,37.703 71.647,37.532 71.584,37.34 
			71.511,37.175 71.415,36.986 71.289,36.789 71.164,36.638 70.908,36.821 70.908,36.821 		"></polygon>
		<polygon fill-rule="evenodd" clip-rule="evenodd" fill="#FFFFFF" points="67.448,35.21 67.708,35.201 67.975,35.225 
			68.245,35.281 68.506,35.319 68.753,35.398 68.998,35.479 69.236,35.587 69.458,35.691 69.69,35.813 69.903,35.945 70.13,36.082 
			70.295,36.214 70.467,36.364 70.637,36.529 70.778,36.685 70.908,36.821 71.164,36.638 71.014,36.463 70.845,36.299 
			70.676,36.134 70.487,35.979 70.279,35.833 70.072,35.687 69.86,35.554 69.618,35.413 69.368,35.3 69.11,35.201 68.849,35.116 
			68.574,35.027 68.303,34.97 68.028,34.927 67.713,34.904 67.438,34.908 67.448,35.21 67.448,35.21 		"></polygon>
		<polygon fill-rule="evenodd" clip-rule="evenodd" fill="#FFFFFF" points="41.76,36.071 67.448,35.21 67.438,34.908 41.765,35.774 
			41.76,36.071 41.76,36.071 		"></polygon>
		<polygon fill-rule="evenodd" clip-rule="evenodd" fill="#FFFFFF" points="37.705,35.444 37.947,35.538 38.203,35.59 
			38.449,35.669 38.705,35.722 38.976,35.779 39.228,35.845 39.503,35.887 39.75,35.92 40.006,35.973 40.271,35.996 40.532,36.033 
			40.789,36.038 41.035,36.071 41.296,36.062 41.532,36.076 41.76,36.071 41.765,35.774 41.523,35.774 41.287,35.761 41.064,35.751 
			40.812,35.732 40.562,35.713 40.31,35.694 40.064,35.661 39.803,35.624 39.547,35.571 39.3,35.538 39.049,35.473 38.787,35.434 
			38.537,35.369 38.271,35.298 38.048,35.242 37.802,35.162 37.701,35.458 37.701,35.458 37.705,35.444 		"></polygon>
		<polygon fill-rule="evenodd" clip-rule="evenodd" fill="#FFFFFF" points="29.04,33.129 29.48,33.068 29.895,33.03 30.292,33.002 
			30.654,32.979 30.998,32.964 31.307,33.002 31.626,33.012 31.892,33.036 32.167,33.079 32.424,33.131 32.665,33.177 
			32.883,33.248 33.114,33.323 33.297,33.399 33.524,33.489 33.704,33.578 33.912,33.677 34.12,33.776 34.323,33.889 34.526,34.002 
			34.729,34.115 34.941,34.247 35.149,34.347 35.375,34.482 35.627,34.595 35.87,34.737 36.14,34.84 36.4,34.972 36.695,35.1 
			37.015,35.203 37.353,35.344 37.701,35.458 37.802,35.162 37.455,35.048 37.11,34.921 36.825,34.813 36.527,34.7 36.251,34.563 
			36.014,34.455 35.772,34.312 35.535,34.205 35.303,34.082 35.086,33.964 34.882,33.852 34.67,33.72 34.468,33.606 34.26,33.508 
			34.052,33.408 33.863,33.3 33.655,33.202 33.429,33.111 33.215,33.027 32.984,32.951 32.737,32.871 32.481,32.82 32.221,32.782 
			31.935,32.72 31.641,32.688 31.335,32.682 30.982,32.678 30.645,32.677 30.253,32.691 29.857,32.72 29.437,32.771 29.001,32.819 
			29.025,33.124 29.025,33.124 29.04,33.129 		"></polygon>
		<polygon fill-rule="evenodd" clip-rule="evenodd" fill="#FFFFFF" points="24.298,35.166 24.55,34.996 24.83,34.837 25.111,34.676 
			25.396,34.502 25.657,34.352 25.951,34.197 26.228,34.051 26.512,33.924 26.817,33.787 27.122,33.65 27.421,33.529 27.729,33.425 
			28.064,33.346 28.368,33.256 28.702,33.176 29.025,33.124 29.001,32.819 28.639,32.889 28.296,32.95 27.957,33.043 27.638,33.128 
			27.319,33.26 26.991,33.373 26.691,33.496 26.386,33.632 26.078,33.782 25.783,33.938 25.507,34.083 25.227,34.243 24.945,34.403 
			24.665,34.563 24.4,34.728 24.134,34.893 24.284,35.161 24.284,35.161 24.298,35.166 		"></polygon>
		<polygon fill-rule="evenodd" clip-rule="evenodd" fill="#FFFFFF" points="24.241,35.806 24.405,35.938 24.357,35.797 
			24.327,35.646 24.289,35.523 24.255,35.386 24.236,35.302 24.222,35.251 24.245,35.18 24.284,35.161 24.134,34.893 23.994,35.02 
			23.921,35.185 23.902,35.335 23.95,35.477 23.985,35.613 24.022,35.735 24.062,35.858 24.085,35.976 24.236,36.102 24.085,35.976 
			24.09,36.102 24.236,36.102 24.241,35.806 24.241,35.806 		"></polygon>
		<g>
			<polygon fill="none" points="36.1,36.931 36.102,36.932 36.062,37.091 			"></polygon>
			<polygon fill="#FFFFFF" points="36.105,36.917 36.102,36.932 36.1,36.931 			"></polygon>
			<polygon fill="#FFFFFF" points="36.032,36.987 36.1,36.931 36.062,37.091 			"></polygon>
			<g>
				<polygon fill="none" points="67.352,35.917 67.467,35.812 67.641,35.728 67.844,35.699 67.955,35.705 68.081,35.713 
					68.201,35.737 68.322,35.761 68.467,35.808 68.598,35.851 68.739,35.912 68.888,35.992 69.014,36.049 69.144,36.138 
					69.259,36.223 69.386,36.326 69.516,36.416 69.608,36.524 69.719,36.623 69.811,36.731 69.98,36.944 70.066,37.16 70.11,37.269 
					70.134,37.339 70.121,37.522 70.086,37.668 69.98,37.791 69.825,37.866 69.617,37.908 69.501,37.918 69.38,37.894 69.241,37.88 
					69.091,37.847 68.96,37.805 68.815,37.757 68.66,37.692 68.525,37.616 68.385,37.555 68.234,37.475 68.104,37.386 
					67.979,37.282 67.863,37.197 67.743,37.079 67.636,36.966 67.543,36.858 67.395,36.637 67.308,36.42 67.284,36.349 
					67.259,36.231 67.289,36.053 				"></polygon>
				<polygon fill="none" points="39.372,36.91 39.372,36.91 39.228,36.975 				"></polygon>
				<polygon fill="none" points="40.416,39.48 40.519,39.56 40.527,39.578 40.251,39.913 37.825,40.081 37.298,39.785 37.296,39.78 
					37.433,39.719 36.401,37.07 36.573,36.904 38.778,36.781 39.247,37.018 40.392,39.645 				"></polygon>
				<polygon fill="none" points="32.136,36.113 32.136,36.113 36.197,37.433 				"></polygon>
				<g>
					<polygon fill="none" points="67.352,35.917 67.467,35.812 67.641,35.728 67.844,35.699 67.955,35.705 68.081,35.713 
						68.201,35.737 68.322,35.761 68.467,35.808 68.598,35.851 68.739,35.912 68.888,35.992 69.014,36.049 69.144,36.138 
						69.259,36.223 69.386,36.326 69.516,36.416 69.608,36.524 69.719,36.623 69.811,36.731 69.98,36.944 70.066,37.16 
						70.11,37.269 70.134,37.339 70.121,37.522 70.086,37.668 69.98,37.791 69.825,37.866 69.617,37.908 69.501,37.918 
						69.38,37.894 69.241,37.88 69.091,37.847 68.96,37.805 68.815,37.757 68.66,37.692 68.525,37.616 68.385,37.555 68.234,37.475 
						68.104,37.386 67.979,37.282 67.863,37.197 67.743,37.079 67.636,36.966 67.543,36.858 67.395,36.637 67.308,36.42 
						67.284,36.349 67.259,36.231 67.289,36.053 					"></polygon>
					<polygon fill="none" points="38.778,36.781 39.247,37.018 40.392,39.645 40.416,39.48 40.519,39.56 40.527,39.578 
						40.251,39.913 37.825,40.081 37.298,39.785 37.296,39.78 37.433,39.719 36.401,37.07 36.573,36.904 					"></polygon>
					<polygon fill="none" points="32.136,36.113 32.136,36.113 36.197,37.433 					"></polygon>
					<g>
						<polygon fill="none" points="67.352,35.917 67.467,35.812 67.641,35.728 67.844,35.699 67.955,35.705 68.081,35.713 
							68.201,35.737 68.322,35.761 68.467,35.808 68.598,35.851 68.739,35.912 68.888,35.992 69.014,36.049 69.144,36.138 
							69.259,36.223 69.386,36.326 69.516,36.416 69.608,36.524 69.719,36.623 69.811,36.731 69.98,36.944 70.066,37.16 
							70.11,37.269 70.134,37.339 70.121,37.522 70.086,37.668 69.98,37.791 69.825,37.866 69.617,37.908 69.501,37.918 
							69.38,37.894 69.241,37.88 69.091,37.847 68.96,37.805 68.815,37.757 68.66,37.692 68.525,37.616 68.385,37.555 
							68.234,37.475 68.104,37.386 67.979,37.282 67.863,37.197 67.743,37.079 67.636,36.966 67.543,36.858 67.395,36.637 
							67.308,36.42 67.284,36.349 67.259,36.231 67.289,36.053 						"></polygon>
						<polygon fill="none" points="38.778,36.781 39.247,37.018 40.392,39.645 40.416,39.48 40.519,39.56 40.527,39.578 
							40.254,39.909 40.237,39.767 37.81,39.936 37.917,39.954 37.836,40.08 37.825,40.081 37.298,39.785 37.296,39.78 
							37.433,39.719 36.401,37.07 36.573,36.904 						"></polygon>
						<polygon fill="none" points="32.136,36.113 32.136,36.113 36.197,37.433 						"></polygon>
						<g>
							<polygon fill="none" points="40.478,39.06 45.074,40.554 40.478,39.06 							"></polygon>
							<polygon fill="none" points="40.358,38.786 45.654,40.508 40.358,38.786 							"></polygon>
							<polygon fill="none" points="67.352,35.917 67.467,35.812 67.641,35.728 67.844,35.699 67.955,35.705 68.081,35.713 
								68.201,35.737 68.322,35.761 68.467,35.808 68.598,35.851 68.739,35.912 68.888,35.992 69.014,36.049 69.144,36.138 
								69.259,36.223 69.386,36.326 69.516,36.416 69.608,36.524 69.719,36.623 69.811,36.731 69.98,36.944 70.066,37.16 
								70.11,37.269 70.134,37.339 70.121,37.522 70.086,37.668 69.98,37.791 69.825,37.866 69.617,37.908 69.501,37.918 
								69.38,37.894 69.241,37.88 69.091,37.847 68.96,37.805 68.815,37.757 68.66,37.692 68.525,37.616 68.385,37.555 
								68.234,37.475 68.104,37.386 67.979,37.282 67.863,37.197 67.743,37.079 67.636,36.966 67.543,36.858 67.395,36.637 
								67.308,36.42 67.284,36.349 67.259,36.231 67.289,36.053 							"></polygon>
							<polygon fill="none" points="38.778,36.781 39.247,37.018 40.392,39.645 40.416,39.48 40.519,39.56 40.527,39.578 
								40.254,39.909 40.251,39.913 37.836,40.08 37.825,40.081 37.298,39.785 37.296,39.78 37.433,39.719 36.401,37.07 
								36.573,36.904 							"></polygon>
							<polygon fill="none" points="32.136,36.113 32.136,36.113 36.197,37.433 							"></polygon>
							<polygon fill="#FFFFFF" points="40.358,38.786 45.654,40.508 45.08,40.541 45.074,40.554 40.478,39.06 							"></polygon>
							<g>
								<polygon fill="none" points="67.352,35.917 67.467,35.812 67.641,35.728 67.844,35.699 67.955,35.705 68.081,35.713 
									68.201,35.737 68.322,35.761 68.467,35.808 68.598,35.851 68.739,35.912 68.888,35.992 69.014,36.049 69.144,36.138 
									69.259,36.223 69.386,36.326 69.516,36.416 69.608,36.524 69.719,36.623 69.811,36.731 69.98,36.944 70.066,37.16 
									70.11,37.269 70.134,37.339 70.121,37.522 70.086,37.668 69.98,37.791 69.825,37.866 69.617,37.908 69.501,37.918 
									69.38,37.894 69.241,37.88 69.091,37.847 68.96,37.805 68.815,37.757 68.66,37.692 68.525,37.616 68.385,37.555 
									68.234,37.475 68.104,37.386 67.979,37.282 67.863,37.197 67.743,37.079 67.636,36.966 67.543,36.858 67.395,36.637 
									67.308,36.42 67.284,36.349 67.259,36.231 67.289,36.053 								"></polygon>
								<polygon fill="none" points="38.778,36.781 39.247,37.018 40.353,39.557 40.181,39.771 37.81,39.936 37.917,39.954 
									37.836,40.08 37.825,40.081 37.298,39.785 37.296,39.78 37.433,39.719 36.401,37.07 36.573,36.904 								"></polygon>
								<polygon fill="none" points="40.416,39.48 40.519,39.56 40.519,39.56 								"></polygon>
								<polygon fill="none" points="32.136,36.113 32.136,36.113 36.197,37.433 								"></polygon>
								<path fill="#FFFFFF" d="M24.236,36.102l6.727-0.213l0.141,0.014l0.13,0.042l0.174,0.057l0.16,0.052l0.145,0.095l0.107,0.066
									l0.062,0.098l0.048,0.047l2.676,7.854l0.039,0.123l0.13-0.004l0.136-0.02l0.154,0.02l0.189,0.014l0.179-0.005l0.173,0.01
									l0.16-0.043l0.179-0.051l0.144-0.094l0.174-0.179l0.146-0.188l0.134-0.16l0.135-0.16l0.117-0.151l0.112-0.136l0.096-0.142
									l0.115-0.151l0.097-0.141l0.112-0.136l0.111-0.137l0.121-0.118l0.126-0.131l0.145-0.142l0.145-0.141l0.184-0.159
									l-0.098-0.12l0.146-0.116l0.164-0.104l0.19-0.08l0.173-0.084l0.188-0.08l0.212-0.057l0.218-0.07l0.213-0.056l0.203-0.029
									l0.222-0.037l0.236-0.034l0.223-0.037l0.232-0.019l0.232-0.018l0.217-0.023l0.214-0.01l3.73-0.263l-4.597-1.494l-0.12-0.274
									l0,0l5.296,1.723l24.737-1.8l0.458-0.07l0.342-0.155l0.237-0.221l0.087-0.254l0-0.282l0.005-0.014l-0.083-0.326
									l-0.163-0.319l-0.239-0.344l-0.139-0.155l-0.155-0.16l-0.169-0.165l-0.178-0.136l-0.189-0.155l-0.212-0.133l-0.228-0.136
									l-0.227-0.137l-0.242-0.094l-0.237-0.109l-0.26-0.084l-0.275-0.089l-0.26-0.038l-0.272-0.057l-0.28-0.028l-0.276,0.004
									l-3.735,0.136l-21.938,0.73h-0.242l-0.227,0.005l-0.256-0.005l-0.246-0.033l-0.252-0.019l-0.251-0.02l-0.246-0.032
									l-0.261-0.039l-0.261-0.037l-0.257-0.052l-0.256-0.052l-0.255-0.051l-0.266-0.071l-0.251-0.066L38,35.383l-0.247-0.081
									l-0.348-0.114l-0.343-0.126l-0.3-0.113l-0.299-0.112l-0.262-0.133l-0.251-0.113l-0.261-0.131l-0.237-0.109l-0.227-0.136
									l-0.203-0.114l-0.217-0.117l-0.204-0.113l-0.217-0.118l-0.203-0.113l-0.193-0.094l-0.203-0.113l-0.208-0.099l-0.212-0.085
									l-0.204-0.066l-0.231-0.075l-0.247-0.081l-0.236-0.062l-0.261-0.038l-0.275-0.042l-0.28-0.029l-0.315-0.023l-0.334-0.014
									l-0.343,0.014l-0.358,0.009l-0.4,0.043l-0.417,0.038l-0.454,0.056l-0.339,0.047l-0.333,0.08l-0.333,0.08l-0.311,0.104
									l-0.327,0.113l-0.315,0.118l-0.299,0.122l-0.305,0.136l-0.29,0.142l-0.295,0.156l4.694,1.526l-6.318,0.206L24.236,36.102z
									 M67.259,36.231l0.029-0.179l0.063-0.136l0.115-0.104l0.174-0.084l0.203-0.029l0.111,0.005l0.126,0.009l0.12,0.024
									l0.121,0.023l0.146,0.047l0.131,0.042l0.141,0.061l0.149,0.08l0.125,0.057l0.13,0.089l0.115,0.085l0.127,0.104l0.13,0.089
									l0.092,0.108l0.111,0.099l0.092,0.108l0.169,0.212l0.086,0.216l0.044,0.108l0.024,0.071l-0.013,0.183l-0.035,0.146
									l-0.106,0.123l-0.155,0.075l-0.208,0.042l-0.116,0.01l-0.122-0.025l-0.139-0.013l-0.149-0.033l-0.131-0.042l-0.145-0.047
									l-0.155-0.065l-0.135-0.077l-0.14-0.061l-0.151-0.08l-0.13-0.089l-0.125-0.104l-0.116-0.084l-0.121-0.118l-0.107-0.113
									l-0.092-0.108l-0.149-0.221l-0.087-0.216l-0.023-0.071L67.259,36.231z M40.519,39.56L40.519,39.56l-0.104-0.08L40.519,39.56
									z M36.401,37.07l0.172-0.166l2.205-0.123l0.469,0.237l1.106,2.539l-0.171,0.213l-2.371,0.165l0.107,0.019l-0.081,0.126
									l-0.012,0.001l-0.527-0.296l-0.001-0.005l0.137-0.061L36.401,37.07z"></path>
							</g>
						</g>
					</g>
				</g>
			</g>
		</g>
		<polygon fill-rule="evenodd" clip-rule="evenodd" points="65.766,37.864 65.63,37.79 65.605,37.671 65.798,37.624 65.838,37.747 
			65.722,37.662 65.766,37.864 65.766,37.864 		"></polygon>
		<polygon fill-rule="evenodd" clip-rule="evenodd" points="66.027,37.714 65.997,37.751 65.949,37.799 65.891,37.826 
			65.834,37.855 65.766,37.864 65.722,37.662 65.751,37.671 65.794,37.638 65.848,37.624 65.853,37.61 65.842,37.638 66.021,37.729 
			66.021,37.729 66.027,37.714 		"></polygon>
		<polygon fill-rule="evenodd" clip-rule="evenodd" points="65.48,36.532 65.495,36.537 65.587,36.646 65.708,36.763 65.823,36.895 
			65.935,37.04 66.026,37.196 66.079,37.37 66.08,37.559 66.021,37.729 65.842,37.638 65.881,37.525 65.872,37.413 65.838,37.276 
			65.751,37.154 65.655,37.012 65.548,36.9 65.428,36.781 65.334,36.674 65.349,36.679 65.48,36.532 65.48,36.532 		"></polygon>
		<polygon fill-rule="evenodd" clip-rule="evenodd" points="63.703,36.033 63.687,36.028 63.944,36.033 64.186,36.033 
			64.412,36.075 64.629,36.098 64.852,36.155 65.059,36.254 65.277,36.372 65.48,36.532 65.349,36.679 65.152,36.551 64.963,36.443 
			64.785,36.354 64.591,36.306 64.378,36.268 64.161,36.244 63.938,36.235 63.711,36.24 63.716,36.225 63.682,36.042 63.682,36.042 
			63.703,36.033 		"></polygon>
		<polygon fill-rule="evenodd" clip-rule="evenodd" points="44.843,36.995 44.925,36.944 63.682,36.042 63.716,36.225 
			44.954,37.141 45.037,37.09 44.843,36.995 44.843,36.995 		"></polygon>
		<polygon fill-rule="evenodd" clip-rule="evenodd" points="44.398,37.636 44.195,37.569 44.209,37.433 44.249,37.32 44.307,37.198 
			44.384,37.113 44.486,37.052 44.616,37 44.761,36.953 44.925,36.944 44.954,37.141 44.799,37.169 44.66,37.202 44.592,37.212 
			44.524,37.268 44.491,37.32 44.437,37.382 44.409,37.466 44.413,37.593 44.209,37.527 44.398,37.636 44.398,37.636 		"></polygon>
		<g>
			<polygon fill="none" points="44.926,36.949 44.954,37.141 44.926,36.949 			"></polygon>
			<g>
				<polygon fill="none" points="44.413,37.593 44.437,37.476 44.495,37.353 44.544,37.259 44.645,37.198 44.767,37.174 
					44.935,37.15 44.954,37.141 63.716,36.225 64.031,36.249 64.292,36.24 64.539,36.272 64.765,36.315 64.974,36.414 
					65.161,36.522 65.334,36.674 65.534,36.895 65.708,37.093 65.834,37.29 65.896,37.437 65.896,37.53 65.853,37.61 65.731,37.682 
					65.504,37.732 65.186,37.77 45.906,38.738 45.892,38.733 45.621,38.724 45.355,38.653 45.118,38.544 44.915,38.431 
					44.747,38.267 44.626,38.102 44.519,37.942 44.437,37.806 44.422,37.707 				"></polygon>
				<g>
					<path fill="none" d="M44.437,37.476l-0.024,0.117l0.01,0.114l0.015,0.099l0.082,0.136l0.107,0.16l0.121,0.165l0.168,0.165
						l0.203,0.113l0.237,0.108l0.266,0.071l0.271,0.01l0.015,0.004l19.279-0.968l0.319-0.038l0.227-0.051l0.122-0.071l0.043-0.08
						v-0.094l-0.062-0.146l-0.126-0.197l-0.174-0.198l-0.199-0.22l-0.173-0.152l-0.188-0.108l-0.209-0.099l-0.226-0.043
						l-0.248-0.033l-0.261,0.009l-0.314-0.024l-18.762,0.916l-0.02,0.009l-0.168,0.024l-0.122,0.024l-0.101,0.061l-0.049,0.094
						L44.437,37.476z M44.704,37.358l18.762-0.916l0.009-0.028l0.252,0.019l0.242,0l0.227,0.042l0.217,0.023l0.223,0.057
						l0.207,0.099l0.203,0.113l0.217,0.164l0.083,0.09l0.072,0.07l0.067,0.084l0.059,0.066l0.083,0.09l0.063,0.1l0.052,0.079
						l0.053,0.081l0.004,0.032l-0.193,0.047l0.006,0.033l-0.049-0.095L65.51,37.53l-0.074-0.07l-0.053-0.081l-0.057-0.065
						l-0.069-0.085l-0.072-0.071L65.1,37.083l0.005-0.006l-0.171-0.125l-0.184-0.124l-0.183-0.075l-0.192-0.047l-0.213-0.038
						l-0.218-0.023l-0.236-0.014l-0.228,0.005l-18.756,0.901L44.704,37.358z"></path>
					<g>
						<path fill="none" d="M44.437,37.476l-0.024,0.117l0.01,0.114l0.015,0.099l0.082,0.136l0.107,0.16l0.121,0.165l0.168,0.165
							l0.203,0.113l0.237,0.108l0.266,0.071l0.271,0.01l0.015,0.004l19.279-0.968l0.319-0.038l0.227-0.051l0.122-0.071l0.043-0.08
							v-0.094l-0.062-0.146l-0.126-0.197l-0.174-0.198l-0.199-0.22l-0.173-0.152l-0.188-0.108l-0.209-0.099l-0.226-0.043
							l-0.248-0.033l-0.261,0.009l-0.314-0.024l-18.762,0.916l-0.02,0.009l-0.168,0.024l-0.122,0.024l-0.101,0.061l-0.049,0.094
							L44.437,37.476z"></path>
						<g>
							<polygon fill="none" points="44.495,37.353 44.544,37.259 44.645,37.198 44.767,37.174 44.877,37.159 44.723,37.443 
								63.484,36.527 63.726,36.527 63.949,36.537 64.176,36.579 64.393,36.603 64.601,36.654 64.798,36.735 64.997,36.862 
								65.191,37.003 65.259,37.087 65.331,37.158 65.398,37.243 65.471,37.314 65.523,37.394 65.591,37.479 65.645,37.559 
								65.708,37.657 65.715,37.685 65.504,37.732 65.186,37.77 45.906,38.738 45.892,38.733 45.621,38.724 45.355,38.653 
								45.118,38.544 44.915,38.431 44.747,38.267 44.626,38.102 44.519,37.942 44.437,37.806 44.422,37.707 44.413,37.593 
								44.437,37.476 							"></polygon>
							<polygon points="65.645,37.559 65.591,37.479 65.523,37.394 65.471,37.314 65.398,37.243 65.331,37.158 65.259,37.087 
								65.191,37.003 64.997,36.862 64.798,36.735 64.601,36.654 64.393,36.603 64.176,36.579 63.949,36.537 63.726,36.527 
								63.484,36.527 44.723,37.443 44.877,37.159 44.935,37.15 44.954,37.141 63.716,36.225 64.031,36.249 64.292,36.24 
								64.539,36.272 64.765,36.315 64.974,36.414 65.161,36.522 65.334,36.674 65.534,36.895 65.708,37.093 65.834,37.29 
								65.896,37.437 65.896,37.53 65.853,37.61 65.731,37.682 65.715,37.685 65.708,37.657 							"></polygon>
							<g>
								<polygon fill="none" points="44.446,37.456 44.461,37.453 44.558,37.453 44.723,37.443 44.878,37.158 44.935,37.15 
									44.954,37.141 63.716,36.225 64.031,36.249 64.292,36.24 64.539,36.272 64.765,36.315 64.974,36.414 65.161,36.522 
									65.334,36.674 65.534,36.895 65.708,37.093 65.834,37.29 65.896,37.437 65.896,37.53 65.853,37.61 65.731,37.682 
									65.715,37.685 65.504,37.732 65.186,37.77 45.906,38.738 45.892,38.733 45.621,38.724 45.355,38.653 45.118,38.544 
									44.915,38.431 44.747,38.267 44.626,38.102 44.519,37.942 44.437,37.806 44.422,37.707 44.413,37.593 44.437,37.476 
																	"></polygon>
								<path d="M44.195,37.569l0.021,0.179l0.039,0.123l0.053,0.174l0.125,0.198l0.155,0.16l0.198,0.174l0.238,0.156l0.265,0.118
									l0.28,0.075l0.339,0l19.274-0.953l0.367-0.038l0.26-0.057l0.189-0.127l0.107-0.169l-0.005-0.174l-0.073-0.212l-0.14-0.202
									l-0.193-0.236l-0.198-0.221l-0.213-0.179l-0.226-0.136l-0.223-0.104l-0.242-0.047l-0.291-0.047h-0.29l-0.33,0.019
									l-18.756,0.902l0.001,0.005l-0.199,0.009l-0.203,0.075l-0.135,0.113l-0.092,0.127l-0.063,0.136L44.195,37.569z
									 M44.413,37.593l0.024-0.117l0.009-0.02l0.015-0.003h0.096l0.165-0.01l0.156-0.285l0.056-0.008l0.02-0.009l18.762-0.916
									l0.314,0.024l0.261-0.009l0.248,0.033l0.226,0.043l0.209,0.099l0.188,0.108l0.173,0.152l0.199,0.22l0.174,0.198l0.126,0.197
									l0.062,0.146v0.094l-0.043,0.08l-0.122,0.071l-0.016,0.003l-0.21,0.047l-0.319,0.038l-19.279,0.968l-0.015-0.004
									l-0.271-0.01l-0.266-0.071l-0.237-0.108l-0.203-0.113l-0.168-0.165l-0.121-0.165l-0.107-0.16l-0.082-0.136l-0.015-0.099
									L44.413,37.593z"></path>
							</g>
						</g>
					</g>
				</g>
			</g>
		</g>
	</g>
</g>
<circle fill="#FFFFFF" stroke="#2BA6DE" stroke-width="1.4" stroke-dasharray="1.6053" cx="297" cy="296.999" r="25.2"></circle>
<circle fill="#929497" stroke="#FF0000" stroke-width="0.82" cx="297" cy="296.999" r="14.76"></circle>
</svg>