<svg version="1.1" xmlns="http://www.w3.org/2000/svg" xmlns:xlink="http://www.w3.org/1999/xlink" x="0px" y="0px" width="2475" height="2475" viewBox="0 0 2475 2475" enable-background="new 0 0 594 594" xml:space="preserve">
<g id="cuts">
	<rect fill="#919396" width="594" height="594"></rect>
	<rect x="9" y="9" fill="#FFFFFF" stroke="#EC1C24" stroke-width="0.8944" stroke-miterlimit="10" width="576" height="576"></rect>
	
		<rect x="18" y="18" fill="none" stroke="#00ADEE" stroke-width="0.8944" stroke-miterlimit="10" stroke-dasharray="1.44,1.44" width="558" height="558"></rect>
</g>
<g id="text">
	
	
	
	
	
	
	
	
	
	
	
	
	
	
	
	
	
	
	
	
	
	
	<rect x="566.554" y="298.236" fill="#F9A51B" width="27.893" height="47.82"></rect>
	<line fill="none" stroke="#F9A51B" x1="481.479" y1="298.651" x2="594.221" y2="298.651"></line>
	<line fill="none" stroke="#EA222A" x1="498.043" y1="153.047" x2="585" y2="153.047"></line>
	<line fill="none" stroke="#919396" x1="486.127" y1="189.561" x2="592.721" y2="189.561"></line>
	<line fill="none" stroke="#2BA4DD" stroke-dasharray="1.44,1.44" x1="493.864" y1="80.175" x2="576.013" y2="80.175"></line>
	<path fill="#EA222A" d="M493.886,67.462c0,0.753-0.344,1.49-1.024,2.204l-0.106,0.108l-5.977,6.292
		c-1.268,1.335-2.349,2.364-3.243,3.093c-0.892,0.73-1.521,1.095-1.888,1.095c-0.387,0-0.865-0.184-1.442-0.546
		c-0.573-0.367-0.942-0.742-1.11-1.128c-0.143-0.322-0.275-1.004-0.4-2.049c-0.126-1.044-0.191-2.177-0.191-3.394
		c0-0.666,0.281-1.28,0.831-1.843c0.556-0.563,1.169-0.845,1.838-0.845c0.641,0,1.021,0.583,1.138,1.749
		c0.019,0.136,0.025,0.236,0.033,0.3c0.104,0.895,0.222,1.521,0.354,1.875c0.141,0.354,0.323,0.532,0.556,0.532
		c0.097,0,0.275-0.104,0.541-0.313c0.265-0.211,0.58-0.495,0.949-0.856l6.136-6.083c0.517-0.513,0.979-0.904,1.383-1.167
		c0.408-0.266,0.748-0.397,1.035-0.397c0.214,0,0.365,0.081,0.454,0.24c0.09,0.162,0.136,0.433,0.136,0.813V67.462z"></path>
	<path fill="#EA222A" d="M496.114,138.915c0,0.754-0.345,1.49-1.024,2.204l-0.108,0.108l-5.976,6.292
		c-1.268,1.335-2.35,2.365-3.24,3.095c-0.896,0.728-1.525,1.093-1.891,1.093c-0.386,0-0.866-0.182-1.443-0.546
		c-0.573-0.365-0.942-0.741-1.11-1.127c-0.143-0.321-0.274-1.005-0.4-2.049c-0.126-1.043-0.189-2.174-0.189-3.391
		c0-0.667,0.279-1.281,0.831-1.843c0.555-0.564,1.167-0.845,1.837-0.845c0.64,0,1.02,0.582,1.138,1.749
		c0.019,0.136,0.024,0.235,0.032,0.301c0.104,0.894,0.223,1.52,0.357,1.875c0.137,0.354,0.319,0.532,0.552,0.532
		c0.097,0,0.275-0.104,0.541-0.312c0.265-0.212,0.58-0.496,0.949-0.859l6.137-6.081c0.516-0.515,0.978-0.904,1.383-1.167
		c0.407-0.266,0.751-0.398,1.034-0.398c0.215,0,0.365,0.082,0.455,0.241c0.089,0.162,0.137,0.434,0.137,0.813V138.915z"></path>
	<path fill="#EA222A" d="M486.03,174.48c0,0.754-0.344,1.49-1.023,2.204l-0.107,0.107l-5.977,6.292
		c-1.268,1.334-2.349,2.365-3.24,3.095c-0.895,0.728-1.525,1.093-1.891,1.093c-0.387,0-0.867-0.182-1.442-0.547
		c-0.573-0.364-0.942-0.74-1.11-1.127c-0.144-0.32-0.276-1.002-0.4-2.05c-0.126-1.042-0.19-2.174-0.19-3.392
		c0-0.665,0.279-1.279,0.831-1.842c0.554-0.564,1.166-0.845,1.836-0.845c0.642,0,1.021,0.583,1.14,1.749
		c0.017,0.136,0.024,0.235,0.031,0.301c0.104,0.894,0.223,1.52,0.358,1.875c0.137,0.354,0.319,0.532,0.552,0.532
		c0.097,0,0.275-0.104,0.54-0.313c0.265-0.211,0.581-0.495,0.949-0.858l6.138-6.081c0.515-0.516,0.977-0.904,1.381-1.17
		c0.409-0.264,0.753-0.396,1.035-0.396c0.216,0,0.365,0.082,0.455,0.242c0.09,0.161,0.136,0.433,0.136,0.813V174.48z"></path>
	<path fill="#EA222A" d="M481.053,285.575c0,0.755-0.343,1.491-1.023,2.205l-0.107,0.109l-5.976,6.291
		c-1.268,1.333-2.35,2.365-3.244,3.093c-0.892,0.732-1.521,1.091-1.887,1.091c-0.388,0-0.866-0.184-1.443-0.545
		c-0.573-0.365-0.942-0.739-1.11-1.125c-0.143-0.323-0.274-1.006-0.4-2.048c-0.126-1.046-0.189-2.18-0.189-3.396
		c0-0.662,0.279-1.278,0.83-1.839c0.556-0.567,1.168-0.847,1.837-0.847c0.641,0,1.021,0.581,1.139,1.749
		c0.019,0.136,0.024,0.234,0.033,0.301c0.103,0.894,0.221,1.52,0.356,1.877c0.137,0.353,0.319,0.529,0.552,0.529
		c0.097,0,0.275-0.104,0.541-0.316c0.265-0.207,0.58-0.494,0.949-0.853l6.137-6.083c0.516-0.517,0.978-0.907,1.383-1.168
		c0.407-0.265,0.751-0.396,1.034-0.396c0.214,0,0.365,0.077,0.454,0.238c0.09,0.161,0.136,0.433,0.136,0.812V285.575z"></path>
	<rect x="247.348" y="-7.84" fill="none" width="362.982" height="494.976"></rect>
	
	
	
	
	
	
	<g>
		<defs>
			<rect id="SVGID_1_" x="247.348" y="-7.84" width="362.982" height="494.976"></rect>
		</defs>
		<clipPath id="SVGID_2_">
			<use xlink:href="#SVGID_1_" overflow="visible"></use>
		</clipPath>
		<path clip-path="url(#SVGID_2_)" fill="#EA222A" d="M462.55,361.204c0,0.752-0.341,1.488-1.024,2.201l-0.107,0.107l-5.973,6.297
			c-1.271,1.332-2.353,2.361-3.244,3.092c-0.892,0.727-1.521,1.092-1.891,1.092c-0.386,0-0.866-0.182-1.439-0.547
			c-0.573-0.363-0.944-0.738-1.112-1.127c-0.141-0.32-0.277-1.006-0.402-2.051c-0.122-1.039-0.186-2.172-0.186-3.389
			c0-0.668,0.275-1.279,0.831-1.844c0.555-0.562,1.167-0.846,1.836-0.846c0.638,0,1.017,0.582,1.139,1.75
			c0.015,0.133,0.024,0.236,0.032,0.301c0.101,0.896,0.223,1.52,0.355,1.873c0.135,0.355,0.321,0.533,0.55,0.533
			c0.099,0,0.28-0.105,0.545-0.314c0.261-0.211,0.58-0.492,0.945-0.855l6.141-6.084c0.516-0.51,0.974-0.904,1.382-1.166
			c0.405-0.266,0.748-0.4,1.035-0.4c0.212,0,0.361,0.084,0.455,0.244c0.089,0.164,0.133,0.434,0.133,0.814V361.204z"></path>
		<path clip-path="url(#SVGID_2_)" fill-rule="evenodd" clip-rule="evenodd" d="M378.57,399.839
			c0,24.281-19.681,43.959-43.957,43.959c-24.28,0-43.964-19.678-43.964-43.959c0-24.279,19.684-43.963,43.964-43.963
			C358.89,355.876,378.57,375.56,378.57,399.839"></path>
		<path clip-path="url(#SVGID_2_)" fill-rule="evenodd" clip-rule="evenodd" fill="#B7D333" d="M374.607,400.083
			c0,22.072-17.894,39.965-39.967,39.965c-22.07,0-39.964-17.893-39.964-39.965c0-22.074,17.894-39.967,39.964-39.967
			C356.714,360.116,374.607,378.009,374.607,400.083"></path>
		<path clip-path="url(#SVGID_2_)" d="M326.084,391.368c-0.555,4.896-0.966,8.834-1.24,11.803l-1.822,0.08
			c0.026-0.1,0.039-0.213,0.043-0.334c0.002-0.223-0.079-0.516-0.246-0.881c-0.169-0.361-0.263-0.594-0.288-0.691
			c-0.468,0.066-0.921,0.396-1.353,0.979c-0.432,0.588-0.822,0.883-1.166,0.877c-0.199-0.008-0.423-0.061-0.669-0.162
			c-0.324,0.217-0.747,0.311-1.269,0.277c-0.469-0.084-0.926-0.15-1.371-0.209c-0.016-0.623-0.624-1.164-1.831-1.629
			c0.005-0.25-0.122-0.617-0.372-1.105c-0.254-0.488-0.377-0.83-0.371-1.027c0-0.225,0.09-0.408,0.269-0.553
			c-0.025-0.074-0.229-0.537-0.608-1.391c-0.264-0.623-0.39-1.156-0.383-1.6c0.007-0.348,0.084-0.668,0.24-0.963
			c-0.211-2.113-0.307-3.922-0.279-5.434c0.039-2.328,0.373-4.467,1-6.418c-0.043-0.299-0.064-0.594-0.059-0.889
			c0.027-1.562,0.566-2.645,1.615-3.248l0.01-0.48c1.037-1.326,2.402-2.277,4.099-2.867c1.017,0.242,2.027,0.467,3.038,0.684
			c1.135,0.391,1.916,1.061,2.344,2.008c0.344,0.207,0.513,0.619,0.501,1.236c-0.011,0.695,0.068,1.143,0.237,1.344l-0.189,0.219
			c0.198,1.465,0.296,2.357,0.289,2.68c-0.016,0.945-0.264,1.609-0.739,1.996c-0.173,0-0.63-0.156-1.368-0.469
			c-0.176,0.17-0.365,0.254-0.561,0.248c-0.102,0-0.281-0.055-0.537-0.154c-0.259-0.107-0.477-0.156-0.65-0.16
			c-0.123-0.002-0.248,0.021-0.371,0.066c-0.017-1.955,0.046-3.418,0.185-4.383c-0.196-0.127-0.394-0.418-0.595-0.863
			c-0.207-0.451-0.468-0.703-0.787-0.76c-0.205,0.248-0.293,0.406-0.271,0.482l-0.664-0.234c-0.606,0.658-1.01,1.805-1.21,3.436
			c-0.204,1.881-0.462,3.125-0.771,3.74c0.268,0.279,0.398,0.662,0.387,1.16c0,0.172-0.03,0.459-0.087,0.852
			c-0.059,0.396-0.085,0.693-0.087,0.893c-0.006,0.225,0.014,0.422,0.062,0.598l-0.454,0.436c0.184,0.848,0.291,1.916,0.318,3.205
			c-0.02,1.09-0.025,2.18-0.02,3.271c-0.021,0-0.234,0.004-0.629,0.025c-0.249-0.004-0.425,0.078-0.524,0.252
			c0.148-0.021,0.283-0.035,0.407-0.029c0.544,0.008,0.972,0.393,1.278,1.15c0.312,0.766,0.577,1.146,0.802,1.154
			c0.248,0,0.585-0.227,1.017-0.695c0.729-0.779,1.108-1.854,1.132-3.213c0.014-0.67-0.062-1.389-0.225-2.16
			c-0.174,0.096-0.268,0.346-0.272,0.738c-0.396-0.004-0.647,0.078-0.749,0.246c-0.172-0.053-0.244-0.191-0.214-0.406
			c0.03-0.324,0.042-0.5,0.042-0.523c0.302-0.094,0.45-0.229,0.455-0.402c0-0.072-0.051-0.213-0.158-0.41
			c-0.109-0.199-0.159-0.361-0.159-0.488c0-0.1,0.029-0.195,0.079-0.295l0.172-1.449c0.545,0.162,1.718,0.229,3.53,0.213
			c-0.054,0.121,0.019,0.283,0.214,0.484c0.176-0.17,0.363-0.258,0.562-0.25c0.148,0.004,0.37,0.07,0.663,0.197
			C325.751,391.3,325.96,391.364,326.084,391.368"></path>
		<path clip-path="url(#SVGID_2_)" d="M339.958,404.169c-0.344-0.154-0.717-0.232-1.109-0.242c-0.349-0.004-0.824,0.062-1.419,0.201
			c-0.673,0.137-1.131,0.213-1.379,0.236c-0.265-0.523-0.451-1.246-0.558-2.168c-0.2-1.338-0.324-2.098-0.372-2.275
			c0.078-0.143,0.118-0.27,0.118-0.365c0.006-0.275-0.208-0.521-0.639-0.74c-0.43-0.215-0.642-0.389-0.639-0.512
			c0-0.148,0.253-0.365,0.752-0.656c-0.119-0.148-0.211-0.455-0.263-0.912c-0.054-0.461-0.169-0.766-0.337-0.918
			c-0.305,0.27-0.795,0.439-1.479,0.514c-0.685,0.076-1.135,0.188-1.361,0.33c0.015,1.932-0.303,3.23-0.959,3.885
			c-0.344-0.076-0.61,0.055-0.786,0.4c-0.256,0.414-0.471,0.658-0.646,0.729l0.218,0.266c-0.2,0.17-0.524,0.24-0.969,0.207
			c-0.695-0.037-1.064-0.057-1.117-0.057l-0.209-0.674l2.42-20.068c0.025-1.264,0.086-2.123,0.191-2.564
			c-0.029-1.117,0.232-1.805,0.781-2.068c0.342,0.227,0.776,0.348,1.295,0.355c0.422,0.01,1.081-0.078,1.973-0.266
			c0.897-0.18,1.518-0.27,1.866-0.266c1.214,0.023,1.742,0.898,1.593,2.633c-0.124,1.385,0.093,3.211,0.648,5.475
			c0.579,2.439,0.858,4.266,0.836,5.482c-0.007,0.365,0.116,1.141,0.088,1.512c-0.527,0.285-1.196,0.463-2.017,0.521
			c-0.72,0.037-1.453,0.076-2.196,0.111c-0.192-1.887-0.525-4.16-0.715-6.023c-0.235-2.234-0.524-4.07-0.873-5.516l-1.148,10.611
			c-0.089,0.92,0.324,1.385,1.241,1.4c0.296,0.004,0.583-0.066,0.859-0.209c0.226-0.07,0.532,0.094,0.921,0.498
			c-0.013,0.77,0.141,1.227,0.461,1.383c0.399-0.264,0.923-0.516,1.571-0.754c0.573-0.213,1.139-0.412,1.686-0.604
			c0.312,0.43,0.514,1.064,0.599,1.906c0.104,1.193,0.181,1.887,0.227,2.088c0.041,0.471,0.232,1.49,0.578,3.059
			c0.252,1.242,0.373,2.246,0.359,3.018C340.043,403.501,340.01,403.849,339.958,404.169"></path>
		<path clip-path="url(#SVGID_2_)" d="M357.077,386.466c-0.029,0.074-0.036,0.508-0.024,1.301c-0.012,0.645-0.093,1.125-0.245,1.445
			c-0.187,0.492-0.283,1.201-0.299,2.115c-0.005,0.197,0.004,0.508,0.022,0.928c-0.011,0.424-0.013,0.732-0.016,0.932
			c-0.026,1.559-0.295,2.693-0.803,3.402c0.043,0.402,0.061,0.797,0.057,1.193c-0.021,1.24-0.447,2.906-1.274,5
			c-0.224,0.068-0.411,0.104-0.562,0.1c-0.297-0.004-0.508-0.176-0.64-0.514c-0.133-0.336-0.255-0.652-0.376-0.951
			c0.082-1.906,0.042-4.684-0.119-8.33l0.225-0.223c-0.16-0.643-0.232-1.363-0.221-2.156c0.011-0.572,0.082-1.4,0.21-2.488
			c0.13-1.09,0.199-1.908,0.207-2.451c0.009-0.348,0-0.68-0.015-1.002c-0.857,2.043-1.46,5.498-1.815,10.375l-0.31,0.738
			c-0.104,0.246-0.316,0.381-0.637,0.4c-0.098-0.172-0.198-0.262-0.292-0.266c-0.075-0.004-0.211,0.088-0.396,0.273
			c-0.192,0.18-0.35,0.26-0.47,0.232l-0.494,0.434c0.22,0.281,0.688,0.312,1.415,0.107c0.568-0.17,0.863,0.049,0.878,0.643
			c0.018,0.498-0.12,1.162-0.403,2c-0.288,0.836-0.437,1.467-0.441,1.889c-0.006,0.301,0.027,0.596,0.094,0.893l-2.569,0.402
			c-0.24-0.498-0.42-1.34-0.537-2.516c-0.113-1.178-0.29-2.02-0.531-2.52c0.151-0.17,0.227-0.354,0.23-0.553
			c0.003-0.174-0.063-0.438-0.208-0.785c-0.144-0.352-0.224-0.609-0.247-0.787c-0.021-0.27-0.107-0.932-0.265-1.973
			c-0.107-0.844-0.161-1.506-0.152-1.971c0.006-0.252,0.022-0.475,0.051-0.672c0.004-0.176-0.096-0.43-0.287-0.768
			c-0.191-0.336-0.285-0.58-0.281-0.729c0-0.123,0.051-0.232,0.151-0.332c-0.171-0.205-0.237-0.549-0.204-1.043
			c0.032-0.498-0.037-0.844-0.206-1.043c-0.364,0.955-0.558,2.254-0.586,3.887c-0.015,2.281-0.036,3.6-0.067,3.943l0.256,0.229
			l-0.265,0.217c0.183,0.895,0.265,2.037,0.241,3.424c-0.068,2.504-0.101,3.668-0.098,3.496c-0.35,0.314-0.837,0.467-1.458,0.457
			c-0.768-0.014-1.292,0.055-1.564,0.195c-0.314-0.551-0.464-1.26-0.447-2.125c0.011-0.668,0.126-1.484,0.342-2.449
			c-0.339-0.625-0.498-1.496-0.479-2.613c0.004-0.271,0.037-0.787,0.104-1.559c0.034-0.615,0.042-1.076,0.023-1.373
			c0.248-0.119,0.376-0.25,0.376-0.402c0.004-0.098-0.074-0.27-0.232-0.508c-0.156-0.232-0.235-0.414-0.233-0.543
			c0.006-0.146,0.104-0.293,0.305-0.441l-0.802-12.02c0.48-0.314,1.25-0.463,2.318-0.443c1.158,0.047,1.958-0.018,2.38-0.182
			c0.075-0.051,0.16-0.072,0.261-0.072c0.101,0.004,0.217,0.059,0.352,0.174c0.136,0.113,0.226,0.172,0.272,0.172
			c0.1,0,0.189-0.072,0.268-0.219l0.696,0.682c0.231,0.873,0.449,2.561,0.657,5.066c0.208,2.158,0.541,3.791,0.996,4.889
			c0.605-2.195,1.107-4.035,1.503-5.514l0.811-5.883l5.761-0.125c0.021,0.32,0.092,2.043,0.247,3.039
			c0.131,0.867,0.197,1.574,0.188,2.121c-0.009,0.619-0.105,1.176-0.289,1.668c0.19,0.277,0.288,0.625,0.28,1.043
			C357.384,385.851,357.277,386.196,357.077,386.466"></path>
		<path clip-path="url(#SVGID_2_)" d="M368.899,399.495v-0.039c-0.153,0.32-0.247,0.689-0.277,1.111
			c-0.03,0.271-0.037,0.656-0.02,1.15c0.015,0.568,0.02,0.967,0.017,1.191c-0.201-0.004-0.991-0.02-2.376-0.039
			c-0.846-0.014-1.601,0.057-2.273,0.221l-0.693-0.756c-0.206,0.193-0.281,0.354-0.232,0.479c-0.124-0.025-0.693-0.037-1.71-0.029
			c-0.795-0.014-1.386-0.1-1.78-0.254c-0.403,0.418-0.873,0.408-1.413-0.023c-0.196-0.15-0.215-0.404-0.062-0.762
			c0.156-0.357,0.111-0.625-0.135-0.803c0.037-0.791,0.147-2.016,0.324-3.676c0.172-1.48,0.267-2.648,0.282-3.49
			c0.016-1.141-0.062-2.23-0.242-3.275c0.279-0.266,0.586-0.396,0.934-0.393c0.401,0.006,0.867,0.201,1.404,0.582
			c0.76,0.529,1.153,0.803,1.178,0.803l0.214,0.26c0.029-0.072,0.16-0.467,0.397-1.182c0.129-0.467,0.32-0.771,0.571-0.922
			l0.22,0.229c0.102-0.047,0.426-0.277,0.979-0.689c0.422-0.291,0.771-0.979,1.016-0.969c0.278,0,0.53,0.156,0.774,0.457
			c0.42,0.227,0.68,1.119,0.811,1.576c0.13,0.465,0.253,0.918,0.37,1.367c-1.116,0.031-2.037,0-2.752-0.084
			c-0.177,0.27-0.427,0.309-0.747,0.115c-0.316-0.188-0.549-0.16-0.704,0.08c-0.009,0.447-0.025,1.254-0.044,2.418
			c-0.042,1.037-0.053,1.857-0.038,2.453c0.007,0.916,0.067,1.76,0.176,2.529c0.2,0.004,1.14,0.021,2.824,0.051
			C367.06,399.202,368.059,399.306,368.899,399.495 M368.978,381.688c-0.221,0.02-0.468,0.027-0.74,0.023
			c-0.573-0.01-1.329-0.1-2.267-0.262c-1.162-0.168-1.866-0.268-2.112-0.297c-0.354,0.514-0.541,1.244-0.561,2.184
			c-0.034,2.033-0.034,2.912-0.005,2.639c0.344,0.203,0.513,0.58,0.5,1.125c-0.038,0.744-0.044,1.129-0.018,1.154
			c-0.176,0.068-0.266,0.314-0.271,0.734c-0.272-0.1-0.556-0.307-0.845-0.607c-0.391-0.379-0.599,0.902-0.57,0.584l-0.235,0.762
			l-0.219-0.225c-0.2,0.02-0.541-0.084-1.019-0.316c-0.48-0.23-0.814-0.443-1.01-0.648c0.007-0.395,0.074-0.617,0.195-0.664
			l-0.474-0.527l-0.229,0.328c-0.276-2.582-0.208-7.41,0.134-10.133c0.94,0.166,1.98,0.271,3.12,0.314
			c0.767,0.039,1.843,0.057,3.23,0.057c1.588,0.002,2.729,0.008,3.423,0.018c0.29,0.279,0.433,0.639,0.427,1.086
			c-0.005,0.275-0.078,0.715-0.227,1.318C369.062,380.938,368.984,381.388,368.978,381.688"></path>
		<path clip-path="url(#SVGID_2_)" d="M327.201,421.972v-0.021c0,0.014-0.062,0.562-0.191,1.641
			c-0.065,0.662-0.225,1.186-0.479,1.564l-0.161-0.129c-0.304,0.629-0.711,1.014-1.229,1.15c-0.251,0.262-0.608,0.404-1.077,0.434
			c-0.276,0.016-0.918-0.066-1.926-0.242c-0.484-0.303-0.75-0.471-0.796-0.504c-0.306-0.227-0.454-0.459-0.438-0.697
			c-0.296-0.303-0.709-0.842-0.867-1.514c-0.191-0.746-0.305-0.787-0.48-1.049c-0.28,0.207-0.381-0.232-0.544-0.498l0.146-0.111
			c-0.092-0.064-0.139-0.139-0.145-0.221c-0.004-0.062,0.024-0.148,0.073-0.262c0.056-0.115,0.079-0.201,0.074-0.26
			c-0.005-0.094-0.062-0.176-0.167-0.238c0.111-0.586,0.217-1.467,0.307-2.637c0.2-0.107,0.294-0.312,0.286-0.619
			c-0.013-0.305,0.029-0.508,0.126-0.607c0.475-0.947,1.242-1.588,2.308-1.92c0.06,0.006,0.343,0,0.858-0.016
			c0.35-0.008,0.617,0.021,0.797,0.096c0.316-0.059,0.637,0.023,0.955,0.225c0.277,0.213,0.553,0.418,0.828,0.627
			c0.516,0.559,0.794,1.193,0.836,1.898c0.014,0.232-0.001,0.484-0.045,0.742c-0.381-0.01-0.653,0.238-0.813,0.758l-1.485,0.141
			c-0.158-0.229-0.252-0.529-0.271-0.906c-0.011-0.129-0.008-0.32,0-0.566c0.005-0.248,0.007-0.436,0-0.562
			c-0.024-0.389-0.114-0.695-0.275-0.926l-0.444,0.256c-0.183-0.07-0.275-0.178-0.283-0.316c-0.006-0.049,0.003-0.117,0.019-0.205
			c0.019-0.092,0.026-0.152,0.025-0.188c-0.009-0.154-0.147-0.244-0.413-0.281c-0.182,1.676-0.236,3.396-0.162,5.158
			c0.047,0.059,0.189,0.096,0.424,0.121c0.191,0.021,0.29,0.082,0.295,0.172c0.002,0.037-0.009,0.086-0.037,0.146l-0.145,0.113
			c0.079,0.125,0.127,0.303,0.14,0.523c0.005,0.117,0.001,0.297-0.013,0.541c-0.014,0.242-0.018,0.426-0.011,0.537
			c0.02,0.354,0.108,0.621,0.266,0.801c-0.017,0.26,0.091,0.438,0.316,0.529c0.143-0.055,0.271-0.084,0.389-0.092
			c0.452-0.027,0.769,0.223,0.944,0.74c0.004,0.012-0.001,0.102-0.005,0.268c0.005,0.094,0.05,0.154,0.144,0.184
			c0.195-0.117,0.293-0.328,0.291-0.637c-0.003-0.352,0.039-0.578,0.136-0.676c-0.024-0.168-0.122-0.402-0.294-0.709
			c-0.173-0.311-0.262-0.551-0.272-0.729c-0.012-0.188,0.046-0.367,0.164-0.539c-0.102-0.033-0.149-0.1-0.143-0.205
			c0.007-0.166,0.008-0.254,0.008-0.268C325.55,421.79,326.37,421.784,327.201,421.972"></path>
		<path clip-path="url(#SVGID_2_)" d="M333.928,423.351h-0.018c-0.089,0.166-0.112,0.41-0.083,0.729
			c0.039,0.447,0.061,0.678,0.061,0.688c-0.066,0.027-0.156-0.008-0.268-0.098c-0.176,0.062-0.259,0.172-0.248,0.324
			c0,0.025,0.008,0.062,0.026,0.115c0.003,0.062,0.008,0.107,0.008,0.129c0.007,0.121-0.029,0.213-0.108,0.273
			c-0.196-0.111-0.458-0.18-0.776-0.213c-0.322-0.029-0.629-0.061-0.917-0.084c-0.006-1.492-0.205-2.953-0.601-4.377
			c0,0.014-0.01-0.133-0.026-0.441c0.002-0.223-0.051-0.377-0.148-0.469l-0.138,0.121c-0.001-0.021,0.044-0.062,0.136-0.129
			c0.093-0.066,0.137-0.133,0.132-0.199c-0.002-0.031-0.011-0.062-0.027-0.092l-0.147-0.109c-0.256,0.082-0.37,0.287-0.354,0.611
			c0.015,0.221-0.075,0.373-0.258,0.459c0.068,0.053,0.108,0.119,0.112,0.193c0.004,0.045-0.003,0.105-0.02,0.182
			c-0.018,0.076-0.025,0.137-0.021,0.184c0.006,0.094,0.059,0.176,0.156,0.234c0.005,0.066,0.039,0.656,0.104,1.773
			c0.041,0.709,0.023,1.312-0.057,1.811l0.014,0.277c-0.096-0.002-0.206,0-0.325,0.006c-0.138,0.004-0.335,0.027-0.592,0.061
			c-0.253,0.031-0.446,0.049-0.567,0.055c-0.503,0.029-0.855-0.055-1.056-0.252l-0.216-6.123c-0.097-0.299-0.16-0.719-0.194-1.256
			l-0.066-1.182c-0.049-0.578-0.124-1.023-0.224-1.332c0.043-0.215,0.229-0.332,0.555-0.348c0.203-0.014,0.474,0.016,0.822,0.086
			c0.159-0.074,0.381-0.123,0.666-0.139c0.082-0.008,0.207-0.008,0.388-0.008c0.19-0.01,0.328-0.018,0.407-0.023
			c0.532-0.027,0.883-0.193,1.056-0.486c0.246-0.006,0.513,0.072,0.802,0.232c0.289,0.158,0.54,0.242,0.76,0.25
			c0.58,0.34,0.891,0.902,0.937,1.691c0.011,0.176-0.061,0.871-0.206,2.086l-0.992,0.859c0.168,0.311,0.372,0.984,0.608,2.025
			C333.221,422.312,333.522,422.946,333.928,423.351 M332.095,416.384l0.021,0.014c0.018,0.072,0.01-0.193-0.027-0.803
			c-0.017-0.297-0.125-0.508-0.326-0.641c-0.111,0.158,0.018,0.232-0.037,0.604c-0.051,0.371-0.272,0.268-0.399,0.426
			c-0.339,0-0.417,0.209-0.492-0.115c-0.15-0.533-0.283-0.484-0.285-0.492l-0.145,0.084c-0.052,0.047-0.109,0.098-0.175,0.158
			s-0.13,0.078-0.2,0.061c0.004,0.066-0.029,0.17-0.095,0.311c-0.067,0.143-0.099,0.238-0.095,0.293
			c0.005,0.102,0.082,0.172,0.237,0.217c-0.027,0.221-0.034,0.453-0.021,0.691c0.008,0.129,0.038,0.432,0.092,0.9
			c0.064,0.367,0.085,0.686,0.074,0.949c0.125,0.002,0.238,0.002,0.349-0.002c0.478-0.029,0.787-0.217,0.929-0.564
			c0.049-0.1,0.103-0.471,0.164-1.096C331.716,416.905,331.858,416.571,332.095,416.384"></path>
		<path clip-path="url(#SVGID_2_)" d="M341.647,425.729c-0.192-0.059-0.4-0.076-0.619-0.066c-0.188,0.012-0.444,0.061-0.766,0.143
			c-0.365,0.088-0.612,0.141-0.749,0.16c-0.164-0.221-0.29-0.533-0.38-0.932c-0.16-0.582-0.254-0.914-0.284-0.988
			c0.037-0.064,0.056-0.123,0.053-0.168c-0.008-0.119-0.134-0.217-0.377-0.299c-0.243-0.078-0.365-0.146-0.366-0.201
			c-0.004-0.066,0.123-0.17,0.39-0.318c-0.072-0.061-0.134-0.189-0.177-0.395c-0.047-0.197-0.116-0.328-0.217-0.389
			c-0.155,0.133-0.421,0.229-0.79,0.289c-0.372,0.055-0.615,0.121-0.737,0.197c0.078,0.848,0,2.342-0.337,2.658
			c-0.189-0.021-0.328,0.045-0.416,0.209c-0.124,0.189-0.232,0.307-0.328,0.346l0.129,0.105c-0.104,0.088-0.279,0.127-0.523,0.131
			c-0.379,0.01-0.583,0.018-0.612,0.018l-0.139-0.291l0.571-9.844c-0.027-0.559-0.023-0.938,0.016-1.135
			c-0.054-0.49,0.062-0.805,0.356-0.941c0.194,0.086,0.436,0.121,0.721,0.105c0.229-0.014,0.589-0.078,1.07-0.193
			c0.487-0.117,0.822-0.178,1.016-0.191c0.664-0.037,0.982,0.326,0.962,1.096c-0.021,0.615,0.161,1.408,0.547,2.387
			c0.404,1.049,0.615,1.846,0.648,2.383c0.01,0.16,0.229,0.508,0.227,0.674c-0.28,0.148-0.646,0.248-1.09,0.311
			c-0.394,0.045-0.792,0.092-1.196,0.131c-0.171-0.82-0.559-1.82-0.726-2.635c-0.206-0.975-0.431-1.77-0.669-2.398l-0.262,4.725
			c-0.017,0.404,0.229,0.592,0.729,0.566c0.163-0.012,0.318-0.053,0.464-0.127c0.12-0.041,0.293,0.021,0.521,0.182
			c0.019,0.342,0.119,0.541,0.302,0.594c0.211-0.133,0.487-0.266,0.834-0.395c0.307-0.117,0.608-0.229,0.902-0.33
			c0.188,0.174,0.314,0.447,0.396,0.814c0.099,0.523,0.162,0.822,0.192,0.91c0.041,0.207,0.181,0.648,0.426,1.326
			c0.182,0.537,0.282,0.973,0.303,1.314C341.669,425.429,341.665,425.581,341.647,425.729"></path>
		<path clip-path="url(#SVGID_2_)" d="M347.272,414.558h0.021c-0.162,0.24-0.372,0.285-0.625,0.137
			c-0.057-0.012-0.299,0.006-0.735,0.041c-0.365,0.021-0.63,0.002-0.798-0.053c-0.041,0.004-0.123,0.045-0.239,0.121
			c-0.119,0.08-0.201,0.117-0.26,0.121c-0.079,0.008-0.124-0.066-0.135-0.205c0-0.02-0.008-0.115-0.015-0.281
			c-0.007-0.105-0.061-0.184-0.157-0.219l-0.253,0.197c-0.078,0.059-0.116,0.119-0.112,0.186c0.003,0.053,0.048,0.129,0.135,0.23
			c0.087,0.1,0.141,0.172,0.155,0.211c0.001,0.035,0.032,0.523,0.086,1.477c0.021,0.605,0.132,1.086,0.333,1.445
			c0.046-0.055,0.173-0.09,0.368-0.092c0.197-0.008,0.33-0.055,0.394-0.131c0.13,0.111,0.342,0.117,0.644,0.02
			c0.302-0.102,0.521-0.07,0.653,0.104l-0.042,1.449c-0.123-0.016-0.306-0.08-0.54-0.184c-0.071,0.213-0.206,0.348-0.406,0.4
			c-0.083,0.029-0.311,0.051-0.692,0.074c0.011-0.066-0.047-0.135-0.178-0.201c-0.369,0.174-0.509,0.594-0.414,1.254
			c0.01-0.066,0.022,0.051,0.042,0.344c0.011,0.186-0.03,0.32-0.12,0.402c-0.232,0.035-0.523-0.016-0.879-0.152
			c-0.354-0.139-0.608-0.205-0.76-0.197c-0.064,0.004-0.128,0.014-0.183,0.027l-0.381,0.119l-0.61-6.627l-0.071-1.26
			c0.505-0.172,1.136-0.279,1.883-0.322c0.584-0.033,1.35-0.029,2.292,0.014c0.061-0.121,0.171,0.037,0.31,0.031
			c0.066-0.004,0.168,0.006,0.306,0.023c0.137,0.02,0.242,0.027,0.31,0.021c0.081-0.002,0.153-0.018,0.22-0.045l0.098-0.104
			c0.275,0.082,0.422,0.229,0.433,0.432c0.007,0.09-0.021,0.242-0.078,0.451c-0.053,0.213-0.079,0.375-0.071,0.484
			C347.205,414.396,347.228,414.483,347.272,414.558 M344.893,425.614c-0.147,0.076-0.369,0.119-0.669,0.139
			c-0.396,0.021-0.632,0.043-0.714,0.057c-0.041-0.041-0.096-0.006-0.183-0.352c-0.053-0.229-0.196-0.336-0.426-0.318
			c-0.058,0-0.122,0.008-0.204,0.023l-0.368,0.023l-0.194-3.355c0.198-0.098,0.448-0.154,0.745-0.174
			c0.288-0.016,0.54,0.014,0.761,0.084c-0.004,0.125,0.171,0.178,0.522,0.154l0.387-0.023
			C344.781,422.813,344.924,424.515,344.893,425.614"></path>
		<path clip-path="url(#SVGID_2_)" d="M355.423,414.847l0.022,0.012c-0.194-0.01-0.809,0.029-1.282,0.09
			c-0.406,0.049-0.711,0.057-0.918,0.021c-0.196,0.133-0.268,0.312-0.215,0.537l0.127,0.078c-0.105,0.094-0.142,0.166-0.108,0.221
			l0.108,0.107c-0.023,1.943-0.03,3.021-0.016,3.225c0.029,0.516,0.09,0.967,0.179,1.357c-0.081,0.246-0.111,0.527-0.093,0.844
			c0.012,0.207,0.061,0.533,0.147,0.988c0.09,0.447,0.203,1.926,0.218,2.158c0.011,0.172,0.007,0.34-0.012,0.492
			c-0.188,0.078-0.389,0.123-0.604,0.135c-0.37,0.02-0.764-0.055-1.183-0.229c-0.051,0.047-0.107,0.098-0.175,0.15
			c-0.063,0.055-0.082,0.113-0.05,0.178c-0.133,0.037-0.32-0.014-0.562-0.168c-0.129-1.969-0.48-5.975-0.999-10.025
			c-0.187,0.166-0.521,0.029-0.876,0.074c-0.417,0.045-0.828-0.021-0.99,0.055c-0.203-0.219-0.158-0.283-0.177-0.643
			c-0.023-0.35-0.137-1.213-0.047-1.572c0.021-0.08,0.782-0.035,1.229-0.072c0.608-0.037,0.746,0.111,0.785,0.107
			c0.05-0.078,0.348-0.041,0.564-0.053c0.143,0.068,0.294-0.064,0.298,0.037c0.007,0.064,0,0.479-0.046,0.598
			c-0.047,0.119-0.072,0.203-0.069,0.26c0.012,0.129,0.104-0.062,0.327,0.012c0.244-0.008,0.496-0.012,0.751-0.029
			c0.29,0.027,0.621-0.076,0.595,0.168c0.05-0.068,0.082,0.053,0.494-0.115c0.306-0.139,0.49-0.496,0.435-0.742
			c-0.037-0.135,0.149-0.223,0.034-0.16c0.148-0.082,0.011-0.025,0.172-0.09c0.511,0.049,0.791-0.004,0.886-0.008
			c0.203-0.012,0.711,0.117,0.856,0.045c0.104,0.191,0.158,0.789,0.166,1.117C355.412,414.534,355.423,414.812,355.423,414.847"></path>
		<path clip-path="url(#SVGID_2_)" d="M362.027,421.688l-0.002-0.016c-0.071,0.146-0.111,0.312-0.115,0.498
			c-0.01,0.121,0.004,0.291,0.029,0.51c0.027,0.25,0.046,0.424,0.054,0.525c-0.111,0.004-0.548,0.029-1.307,0.076
			c-0.464,0.023-0.872,0.084-1.237,0.186l-0.405-0.307c-0.102,0.094-0.138,0.168-0.109,0.221c-0.067-0.008-0.383,0.012-0.938,0.053
			c-0.434,0.027-0.763,0.012-0.986-0.039c-0.203,0.195-0.462,0.213-0.773,0.043c-0.109-0.057-0.132-0.17-0.061-0.334
			c0.073-0.164,0.04-0.279-0.101-0.346c-0.004-0.35,0.008-0.895,0.048-1.633c0.045-0.66,0.053-1.178,0.034-1.551
			c-0.03-0.5-0.113-0.977-0.246-1.432c0.141-0.127,0.309-0.195,0.498-0.207c0.216-0.016,0.479,0.053,0.791,0.195
			c0.434,0.209,0.653,0.312,0.669,0.312l0.129,0.104c0.012-0.029,0.07-0.211,0.173-0.537c0.056-0.209,0.151-0.352,0.283-0.424
			l0.125,0.09c0.054-0.023,0.226-0.137,0.516-0.34c0.223-0.146,0.376-0.678,0.512-0.686c0.147-0.012,0.296,0.047,0.438,0.168
			c0.236,0.088,0.426,0.686,0.511,0.883c0.086,0.197,0.171,0.393,0.251,0.584c-0.611,0.059-1.116,0.082-1.511,0.072
			c-0.086,0.127-0.227,0.154-0.402,0.084c-0.183-0.074-0.311-0.051-0.387,0.062c0.014,0.197,0.032,0.551,0.062,1.064
			c0.015,0.461,0.034,0.82,0.061,1.08c0.038,0.404,0.104,0.775,0.19,1.111c0.107-0.012,0.625-0.039,1.547-0.09
			C361.009,421.634,361.56,421.636,362.027,421.688 M361.396,413.976c-0.121,0.016-0.26,0.031-0.41,0.039
			c-0.31,0.02-0.723,0.012-1.246-0.025c-0.644-0.029-1.034-0.045-1.17-0.049c-0.175,0.242-0.198,0.438-0.175,0.854
			c0.053,0.893,0.082,1.285,0.09,1.16c0.194,0.078,0.301,0.236,0.311,0.477c0.007,0.328,0.015,0.496,0.032,0.506
			c-0.093,0.037-0.137,0.154-0.126,0.338c-0.149-0.033-0.312-0.113-0.481-0.234c-0.228-0.15-0.302,0.383-0.295,0.242l-0.102,0.334
			l-0.13-0.096c-0.104,0.02-0.297-0.012-0.566-0.098c-0.27-0.082-0.463-0.164-0.577-0.242c-0.008-0.176,0.019-0.275,0.085-0.305
			l-0.278-0.213l-0.113,0.156c-0.241-1.129-0.403-3.113-0.311-4.326c0.52,0.037,1.128-0.053,1.753-0.08
			c0.418-0.016,1.011-0.045,1.772-0.1c0.869-0.061,1.492-0.105,1.872-0.127c0.171,0.111,0.261,0.268,0.271,0.461
			c0.008,0.121-0.017,0.316-0.074,0.59C361.463,413.509,361.388,413.843,361.396,413.976"></path>
		<path clip-path="url(#SVGID_2_)" d="M368.802,420.522l-0.017,0.002c-0.084,0.17-0.112,0.412-0.082,0.729
			c0.043,0.449,0.061,0.678,0.061,0.688c-0.067,0.027-0.156-0.006-0.272-0.096c-0.176,0.061-0.256,0.172-0.248,0.326
			c0.005,0.021,0.011,0.055,0.029,0.111c0.004,0.062,0.004,0.107,0.008,0.133c0.009,0.117-0.028,0.209-0.108,0.271
			c-0.195-0.113-0.457-0.182-0.78-0.215c-0.317-0.029-0.622-0.061-0.914-0.09c-0.006-1.486-0.205-2.945-0.6-4.371
			c0,0.016-0.009-0.135-0.023-0.441c0-0.221-0.052-0.373-0.152-0.469l-0.137,0.125c0-0.021,0.044-0.066,0.137-0.131
			c0.09-0.066,0.136-0.133,0.132-0.197c-0.004-0.033-0.011-0.066-0.027-0.102l-0.151-0.105c-0.252,0.082-0.369,0.283-0.347,0.611
			c0.011,0.219-0.077,0.375-0.262,0.463c0.067,0.051,0.108,0.113,0.112,0.191c0.004,0.041-0.004,0.102-0.022,0.176
			c-0.011,0.082-0.022,0.145-0.019,0.189c0.008,0.094,0.056,0.176,0.158,0.236c0.004,0.066,0.038,0.654,0.101,1.771
			c0.043,0.709,0.024,1.314-0.056,1.811l0.016,0.279c-0.094-0.004-0.204-0.004-0.327,0.004c-0.138,0.01-0.336,0.025-0.591,0.057
			c-0.254,0.033-0.446,0.053-0.568,0.059c-0.501,0.029-0.855-0.053-1.056-0.252l-0.214-6.123c-0.099-0.301-0.164-0.719-0.194-1.254
			l-0.072-1.18c-0.045-0.58-0.117-1.027-0.215-1.336c0.039-0.213,0.222-0.328,0.547-0.344c0.21-0.018,0.479,0.012,0.826,0.082
			c0.16-0.078,0.378-0.123,0.664-0.139c0.083-0.002,0.212-0.006,0.388-0.006c0.191-0.01,0.329-0.02,0.409-0.025
			c0.53-0.029,0.884-0.193,1.056-0.486c0.246-0.004,0.511,0.072,0.798,0.229c0.292,0.162,0.544,0.244,0.766,0.252
			c0.577,0.342,0.89,0.904,0.935,1.693c0.008,0.176-0.061,0.871-0.207,2.086l-0.996,0.863c0.172,0.309,0.377,0.979,0.613,2.021
			C368.094,419.485,368.402,420.116,368.802,420.522 M366.97,413.558l0.022,0.014c0.016,0.076,0.008-0.193-0.029-0.803
			c-0.019-0.299-0.126-0.51-0.324-0.637c-0.109,0.154-0.135-0.215-0.184,0.154c-0.056,0.371-0.145,0.637-0.271,0.797
			c-0.341,0-0.42-0.203-0.625-0.488c-0.126-0.182-0.188-0.025-0.188-0.037l-0.092,0.076c-0.055,0.045-0.11,0.1-0.177,0.158
			c-0.064,0.059-0.132,0.08-0.203,0.061c0.007,0.064-0.025,0.17-0.094,0.311c-0.063,0.141-0.095,0.238-0.093,0.293
			c0.005,0.098,0.084,0.17,0.238,0.217c-0.027,0.221-0.037,0.451-0.021,0.693c0.008,0.131,0.037,0.43,0.091,0.898
			c0.065,0.369,0.088,0.686,0.077,0.949c0.123,0.006,0.238,0.002,0.35-0.002c0.475-0.029,0.784-0.217,0.927-0.564
			c0.047-0.1,0.101-0.469,0.162-1.096C366.59,414.073,366.736,413.747,366.97,413.558"></path>
		<path clip-path="url(#SVGID_2_)" d="M301.233,392.278v0.016c-0.059,0.57-0.078,0.965-0.055,1.178
			c-0.09,0.035-0.205,0.041-0.342,0.02c-0.184-0.031-0.289-0.045-0.316-0.045c-0.078,0.006-0.142,0.031-0.19,0.082
			c-0.111-0.068-0.187-0.102-0.227-0.09c-0.105,0.062-0.159,0.156-0.151,0.271c0.004,0.053,0.021,0.135,0.059,0.26
			c0.035,0.125,0.059,0.211,0.061,0.273c0,0.076-0.016,0.203-0.051,0.375c-0.036,0.17-0.052,0.307-0.047,0.418
			c0.008,0.127,0.036,0.33,0.085,0.605c0.048,0.275,0.075,0.482,0.083,0.623c-0.057,0.27-0.078,0.543-0.064,0.816
			c0.016,0.34,0.112,0.793,0.277,1.357c0.032,0.012,0.062,0.014,0.091,0.012c0.065-0.002,0.15-0.057,0.246-0.148
			c0.094-0.09,0.177-0.141,0.243-0.146c0.051,0,0.107,0.01,0.167,0.041c0.179,0.57,0.27,0.945,0.28,1.113
			c0.002,0.08,0.002,0.164,0,0.252c-0.269,0.066-0.455-0.027-0.566-0.27c0.016-0.066-0.023-0.141-0.116-0.217l-0.298,0.314
			c0.293,0.045,0.406,0.268,0.347,0.664c-0.025,0.084-0.086,0.127-0.187,0.129c-0.171-0.002-0.248-0.002-0.238-0.002l-0.243-0.434
			l-0.099,0.123c-0.082-0.205-0.176-0.301-0.283-0.295c-0.061,0.002-0.164,0.053-0.314,0.148c-0.148,0.098-0.272,0.146-0.37,0.152
			c-0.078,0.006-0.156-0.016-0.239-0.061c-0.007-0.121-0.023-0.244-0.041-0.371c-0.024-0.129-0.09-0.209-0.2-0.242
			c-0.005-0.312,0.004-1.117,0.024-2.43c0.012-0.99,0-1.795-0.029-2.408c-0.016-0.26-0.031-0.508-0.053-0.752
			c-0.055-0.078-0.105-0.115-0.154-0.115c-0.042,0.004-0.102,0.045-0.18,0.129c-0.081,0.084-0.15,0.121-0.209,0.113
			c-0.008-0.098-0.055-0.26-0.138-0.477s-0.13-0.375-0.138-0.477c-0.007-0.166,0.057-0.314,0.189-0.438l0.347,0.084
			c0.138-0.193,0.198-0.527,0.175-0.99c-0.006-0.09-0.02-0.232-0.037-0.424c-0.02-0.189-0.035-0.33-0.037-0.422
			c-0.039-0.76,0.193-1.154,0.699-1.182c0.186-0.01,0.417,0.025,0.688,0.102l0.333,0.088c0.025,0.127,0.042,0.258,0.05,0.396
			c0.012,0.189,0.003,0.465-0.024,0.828c-0.028,0.365-0.034,0.629-0.028,0.793c0.014,0.273,0.061,0.514,0.143,0.729
			c0.077-0.006,0.201-0.051,0.374-0.129c0.168-0.086,0.291-0.127,0.37-0.133C301.036,392.081,301.15,392.142,301.233,392.278
			 M300.2,393.343l-0.016-0.342l-0.107-0.098L300.2,393.343z"></path>
		<path clip-path="url(#SVGID_2_)" d="M305.317,391.21h0.014c-0.033,0.27-0.075,0.539-0.12,0.811
			c-0.054,0.307-0.144,0.549-0.263,0.727c-0.021-0.01-0.144-0.066-0.364-0.178c-0.155-0.078-0.29-0.111-0.407-0.098
			c-0.094,0.582-0.141,1.373-0.148,2.375c-0.006,1.279-0.018,2.053-0.029,2.32c-0.153-0.008-0.262,0.037-0.336,0.148
			c-0.076,0.105-0.146,0.213-0.207,0.324c-0.029,0.064-0.041,0.119-0.037,0.168c0.002,0.082,0.069,0.158,0.204,0.227
			c0.134,0.074,0.201,0.154,0.204,0.244c-0.056,0.211-0.183,0.322-0.369,0.33c-0.089,0.006-0.245-0.023-0.466-0.078
			c-0.218-0.059-0.374-0.086-0.468-0.08l-0.211-4.248c0.084-0.107,0.119-0.188,0.108-0.225l-0.123-0.084
			c0.012-0.178,0.02-1.07,0.028-2.668c0.005-1.08,0.047-1.955,0.121-2.623c-0.008,0,0.297-0.02,0.918-0.061
			c0.387-0.021,0.639,0.088,0.748,0.32c0,0.217-0.022,0.582-0.066,1.102c-0.043,0.479-0.06,0.846-0.048,1.104
			c0.017,0.32,0.066,0.604,0.149,0.857C304.483,391.472,304.871,391.233,305.317,391.21 M306.792,392.118
			c0.03,0.395,0.052,0.779,0.072,1.158c0.084,1.641,0.058,3.4-0.076,5.27c-0.143,0.129-0.361,0.156-0.659,0.084
			c-0.294-0.068-0.511-0.039-0.643,0.084c-0.169-0.219-0.268-0.613-0.3-1.189c-0.039-0.828-0.061-1.26-0.062-1.289
			c-0.037-2.08,0.169-3.764,0.611-5.047C306.245,391.321,306.598,391.63,306.792,392.118"></path>
		<path clip-path="url(#SVGID_2_)" d="M312,394.276c-0.064,0.131-0.092,0.27-0.084,0.416c0.007,0.15,0.014,0.293,0.023,0.434
			c-0.017,0.119-0.047,0.236-0.103,0.363c-0.089-0.027-0.164-0.037-0.226-0.035c-0.068,0.004-0.14,0.029-0.209,0.076
			c-0.072,0.051-0.131,0.074-0.169,0.074c-0.061,0.006-0.14-0.018-0.243-0.061l-0.688-1.006c0.024,0.297,0.094,0.557,0.204,0.779
			c0.054,0.115,0.108,0.232,0.164,0.346c-0.402,0.074-0.632,0.086-0.681,0.035l-0.099,0.127l-0.239-0.314
			c-0.188,0.227-0.23,0.559-0.127,1.002c0.121,0.479,0.128,0.822,0.021,1.041c0.148,0.221,0.328,0.322,0.537,0.314
			c0.09-0.006,0.164-0.037,0.23-0.102c0.099-0.246,0.195-0.486,0.293-0.73c0.146-0.295,0.305-0.447,0.481-0.455
			c0.138-0.008,0.302,0.064,0.487,0.217c0.222,0.078,0.336,0.178,0.344,0.305c0.003,0.082-0.046,0.213-0.153,0.389
			c-0.101,0.178-0.154,0.318-0.148,0.418c0.003,0.037,0.008,0.072,0.019,0.104c-0.143,0.104-0.269,0.266-0.384,0.48
			c-0.113,0.217-0.262,0.359-0.446,0.443c-0.16,0.15-0.312,0.232-0.447,0.24c-0.111,0.006-0.275-0.078-0.49-0.25
			c-0.217-0.172-0.418-0.252-0.607-0.244c-0.076-0.174-0.271-0.371-0.578-0.582c-0.307-0.209-0.5-0.441-0.572-0.686
			c0.001,0.02-0.002-0.059-0.01-0.234c-0.008-0.102-0.051-0.164-0.13-0.189l0.111-0.107c-0.151-0.006-0.226-0.088-0.233-0.26
			c-0.002-0.018-0.002-0.055-0.005-0.119c0.005-0.047,0.009-0.088,0.008-0.119c-0.005-0.117-0.046-0.199-0.118-0.246l-0.025-0.518
			c-0.012-0.268-0.068-0.461-0.163-0.572c0.097-0.631,0.194-1.26,0.291-1.889c0.161-0.734,0.402-1.109,0.718-1.125
			c0.051,0,0.099,0.004,0.147,0.021c0.288-0.281,0.63-0.432,1.036-0.453c0.445-0.021,0.938,0.113,1.478,0.402
			C311.639,392.7,311.898,393.456,312,394.276 M309.953,392.634l-0.099,0.127c-0.066,0.01-0.152-0.023-0.243-0.105l0.019,0.338
			c-0.153,0.168-0.211,0.424-0.186,0.77c0.028,0.596,0.044,0.879,0.044,0.861l0.444-0.006c0.211-0.121,0.312-0.32,0.295-0.598
			c-0.005-0.139-0.05-0.365-0.145-0.686C309.994,393.021,309.95,392.786,309.953,392.634"></path>
		<polygon clip-path="url(#SVGID_2_)" fill-rule="evenodd" clip-rule="evenodd" points="315.487,409.247 315.928,409.503 
			317.432,405.565 316.927,405.399 315.428,409.337 315.865,409.614 		"></polygon>
		<polygon clip-path="url(#SVGID_2_)" fill-rule="evenodd" clip-rule="evenodd" points="316.143,408.704 315.961,408.776 
			315.488,409.247 315.865,409.614 316.348,409.114 316.161,409.21 		"></polygon>
		<polygon clip-path="url(#SVGID_2_)" fill-rule="evenodd" clip-rule="evenodd" points="319.773,408.673 319.986,408.505 
			316.144,408.704 316.16,409.21 320.004,409.017 320.248,408.833 		"></polygon>
		<polygon clip-path="url(#SVGID_2_)" fill-rule="evenodd" clip-rule="evenodd" points="321.51,405.052 321.246,404.728 
			319.774,408.673 320.25,408.833 321.747,404.894 321.485,404.567 		"></polygon>
		<polygon clip-path="url(#SVGID_2_)" fill-rule="evenodd" clip-rule="evenodd" points="317.847,405.179 317.656,405.274 
			321.51,405.052 321.485,404.567 317.65,404.737 317.46,404.835 		"></polygon>
		<polygon clip-path="url(#SVGID_2_)" fill-rule="evenodd" clip-rule="evenodd" points="317.43,405.565 317.373,405.649 
			317.848,405.179 317.461,404.835 316.982,405.312 316.928,405.399 		"></polygon>
		<polygon clip-path="url(#SVGID_2_)" fill-rule="evenodd" clip-rule="evenodd" points="320.619,409.138 320.964,408.987 
			320.139,408.53 319.879,408.997 320.726,409.464 321.098,409.3 320.596,409.132 		"></polygon>
		<polygon clip-path="url(#SVGID_2_)" fill-rule="evenodd" clip-rule="evenodd" points="322.231,405.507 322.096,405.194 
			320.596,409.132 321.096,409.3 322.596,405.362 322.459,405.052 		"></polygon>
		<polygon clip-path="url(#SVGID_2_)" fill-rule="evenodd" clip-rule="evenodd" points="321.747,404.894 321.375,405.06 
			322.232,405.507 322.459,405.052 321.636,404.593 321.247,404.728 		"></polygon>
		<polygon clip-path="url(#SVGID_2_)" points="317.19,405.489 317.166,405.478 317.643,405.003 321.209,404.829 321.247,404.728 
			321.509,404.813 321.744,404.894 321.732,404.937 322.355,405.282 322.596,405.362 322.497,405.616 324.245,409.769 
			322.766,413.714 320.857,409.22 320.613,409.321 320.596,409.132 320.614,409.085 320.014,408.755 319.877,408.997 
			319.803,408.763 316.144,408.94 315.666,409.413 		"></polygon>
		<polygon clip-path="url(#SVGID_2_)" fill-rule="evenodd" clip-rule="evenodd" points="322.527,413.632 323.012,413.61 
			321.104,409.116 320.613,409.321 322.521,413.813 323.006,413.792 322.504,413.626 		"></polygon>
		<polygon clip-path="url(#SVGID_2_)" fill-rule="evenodd" clip-rule="evenodd" points="324.021,409.88 324.003,409.687 
			322.506,413.626 323.004,413.792 324.506,409.858 324.488,409.667 		"></polygon>
		<polygon clip-path="url(#SVGID_2_)" fill-rule="evenodd" clip-rule="evenodd" points="322.596,405.362 322.111,405.386 
			324.02,409.88 324.488,409.667 322.58,405.171 322.096,405.194 		"></polygon>
		<polygon clip-path="url(#SVGID_2_)" fill-rule="evenodd" clip-rule="evenodd" fill="#FFFFFF" points="322.467,406.376 
			322.682,406.847 322.761,407.317 322.736,407.786 322.602,408.271 322.363,408.743 322.041,409.165 321.62,409.552 
			321.111,409.884 320.834,410.007 320.558,410.122 320.248,410.179 319.961,410.241 319.686,410.278 319.384,410.31 
			319.107,410.272 318.822,410.257 318.576,410.202 318.314,410.112 318.063,410.007 317.842,409.876 317.65,409.733 
			317.436,409.579 317.262,409.392 317.119,409.187 316.902,408.72 316.825,408.241 316.825,407.767 316.985,407.294 
			317.19,406.833 317.523,406.392 317.944,406.003 318.473,405.677 318.73,405.55 319.031,405.438 319.312,405.378 319.598,405.313 
			319.901,405.28 320.176,405.243 320.455,405.28 320.742,405.298 321.001,405.384 321.263,405.474 321.501,405.55 321.744,405.687 
			321.943,405.804 322.15,405.978 322.295,406.188 		"></polygon>
		<polygon clip-path="url(#SVGID_2_)" fill-rule="evenodd" clip-rule="evenodd" points="322.657,407.153 322.87,407.622 
			322.94,408.12 322.922,408.587 322.789,409.048 322.578,409.53 322.221,409.964 321.834,410.339 321.303,410.663 321.017,410.802 
			320.74,410.921 320.453,410.983 320.146,411.044 319.868,411.081 319.598,411.099 319.311,411.081 319.011,411.036 
			318.765,410.978 318.503,410.892 318.273,410.786 318.03,410.655 317.83,410.532 317.649,410.366 317.469,410.198 
			317.307,409.964 317.086,409.519 317.008,409.042 317.039,408.55 317.166,408.093 317.379,407.608 317.706,407.188 
			318.126,406.802 318.654,406.479 318.941,406.335 319.212,406.237 319.502,406.153 319.815,406.097 320.084,406.081 
			320.36,406.042 320.637,406.081 320.922,406.097 321.193,406.161 321.456,406.249 321.684,406.349 321.938,406.466 
			322.128,406.603 322.342,406.753 322.481,406.962 322.649,407.177 		"></polygon>
		<polygon clip-path="url(#SVGID_2_)" fill-rule="evenodd" clip-rule="evenodd" fill="#FFFFFF" points="322.789,407.698 
			323.015,408.144 323.086,408.644 323.06,409.112 322.936,409.569 322.695,410.046 322.363,410.487 321.977,410.858 
			321.447,411.183 321.184,411.335 320.882,411.446 320.599,411.509 320.286,411.562 320.008,411.606 319.741,411.62 
			319.455,411.606 319.155,411.558 318.909,411.501 318.646,411.413 318.418,411.312 318.17,411.173 317.974,411.056 
			317.769,410.882 317.616,410.7 317.449,410.487 317.23,410.046 317.148,409.563 317.173,409.099 317.307,408.616 317.521,408.136 
			317.854,407.69 318.289,407.333 318.799,406.999 319.085,406.86 319.36,406.737 319.648,406.675 319.955,406.618 320.23,406.581 
			320.502,406.563 320.812,406.589 321.066,406.618 321.334,406.685 321.596,406.772 321.848,406.88 322.07,407.009 
			322.269,407.126 322.482,407.278 322.625,407.487 		"></polygon>
		<polygon clip-path="url(#SVGID_2_)" fill-rule="evenodd" clip-rule="evenodd" points="322.981,408.474 323.197,408.942 
			323.276,409.419 323.276,409.892 323.115,410.368 322.91,410.829 322.555,411.263 322.157,411.663 321.629,411.985 
			321.374,412.11 321.07,412.222 320.787,412.286 320.5,412.349 320.196,412.38 319.922,412.419 319.647,412.38 319.359,412.364 
			319.092,412.304 318.828,412.214 318.598,412.11 318.354,411.978 318.164,411.831 317.975,411.692 317.799,411.501 
			317.633,411.286 317.443,410.827 317.338,410.343 317.365,409.876 317.497,409.392 317.728,408.94 318.061,408.497 
			318.481,408.108 318.988,407.778 319.265,407.659 319.543,407.54 319.853,407.483 320.139,407.421 320.416,407.382 
			320.71,407.372 320.993,407.39 321.258,407.394 321.526,407.46 321.787,407.548 322.038,407.659 322.26,407.786 322.478,407.937 
			322.665,408.079 322.84,408.271 322.975,408.501 		"></polygon>
		<polygon clip-path="url(#SVGID_2_)" fill-rule="evenodd" clip-rule="evenodd" fill="#FFFFFF" points="323.26,408.987 
			323.482,409.437 323.562,409.907 323.552,410.409 323.425,410.868 323.187,411.345 322.832,411.778 322.445,412.151 
			321.936,412.485 321.649,412.626 321.349,412.737 321.064,412.8 320.775,412.86 320.477,412.896 320.209,412.911 319.922,412.896 
			319.646,412.856 319.376,412.792 319.114,412.706 318.883,412.603 318.654,412.499 318.441,412.349 318.257,412.181 
			318.086,411.991 317.943,411.786 317.72,411.343 317.623,410.837 317.648,410.366 317.798,409.917 318.015,409.435 
			318.344,408.987 318.758,408.624 319.265,408.294 319.551,408.151 319.827,408.032 320.131,408.001 320.422,407.913 
			320.699,407.874 320.993,407.864 321.279,407.882 321.533,407.913 321.803,407.974 322.086,408.071 322.314,408.175 
			322.547,408.278 322.762,408.429 322.941,408.595 323.117,408.786 		"></polygon>
		<polygon clip-path="url(#SVGID_2_)" fill-rule="evenodd" clip-rule="evenodd" points="323.474,409.776 323.664,410.233 
			323.768,410.718 323.742,411.187 323.607,411.667 323.377,412.12 323.045,412.565 322.623,412.954 322.117,413.284 
			321.84,413.403 321.538,413.515 321.255,413.575 320.969,413.642 320.691,413.681 320.39,413.71 320.111,413.673 319.828,413.655 
			319.582,413.599 319.298,413.505 319.066,413.403 318.847,413.276 318.63,413.126 318.441,412.983 318.266,412.792 
			318.125,412.587 317.911,412.12 317.807,411.636 317.83,411.167 317.988,410.69 318.194,410.228 318.527,409.788 318.947,409.397 
			319.479,409.077 319.733,408.95 320.035,408.839 320.318,408.776 320.606,408.712 320.908,408.681 321.184,408.64 
			321.459,408.681 321.723,408.688 322.018,408.759 322.276,408.849 322.508,408.952 322.73,409.077 322.941,409.228 
			323.131,409.37 323.306,409.562 		"></polygon>
		<polygon clip-path="url(#SVGID_2_)" fill-rule="evenodd" clip-rule="evenodd" points="297.275,403.729 297.301,403.579 
			295.792,407.536 296.27,407.696 297.773,403.735 297.78,403.634 		"></polygon>
		<polygon clip-path="url(#SVGID_2_)" fill-rule="evenodd" clip-rule="evenodd" points="297.235,403.526 297.245,403.505 
			297.275,403.729 297.782,403.634 297.729,403.403 297.735,403.38 		"></polygon>
		<polygon clip-path="url(#SVGID_2_)" fill-rule="evenodd" clip-rule="evenodd" points="297.18,403.3 297.235,403.526 
			297.737,403.38 297.679,403.149 		"></polygon>
		
			<rect x="297.291" y="402.861" transform="matrix(-0.2915 -0.9566 0.9566 -0.2915 -1.5146 805.1223)" clip-path="url(#SVGID_2_)" fill-rule="evenodd" clip-rule="evenodd" width="0.214" height="0.522"></rect>
		<polygon clip-path="url(#SVGID_2_)" fill-rule="evenodd" clip-rule="evenodd" points="297.062,402.864 297.062,402.864 
			297.117,403.095 297.618,402.942 297.558,402.716 297.556,402.739 		"></polygon>
		<polygon clip-path="url(#SVGID_2_)" fill-rule="evenodd" clip-rule="evenodd" points="297,402.577 297,402.659 297.062,402.864 
			297.556,402.739 297.491,402.53 297.516,402.618 		"></polygon>
		<polygon clip-path="url(#SVGID_2_)" fill-rule="evenodd" clip-rule="evenodd" points="297.504,402.483 297.008,402.396 
			297,402.577 297.516,402.618 297.521,402.438 297.021,402.345 297.497,402.507 		"></polygon>
		<polygon clip-path="url(#SVGID_2_)" fill-rule="evenodd" clip-rule="evenodd" fill="#4D494A" points="297.937,414.013 
			297.892,413.759 297.362,413.845 297.399,414.124 		"></polygon>
		<polygon clip-path="url(#SVGID_2_)" fill-rule="evenodd" clip-rule="evenodd" points="299.042,410.71 299.056,410.583 
			297.557,414.521 298.034,414.677 299.533,410.739 299.524,410.604 		"></polygon>
		<polygon clip-path="url(#SVGID_2_)" fill-rule="evenodd" clip-rule="evenodd" points="299,410.433 299.041,410.71 
			299.524,410.604 299.487,410.329 298.977,410.425 		"></polygon>
		<polygon clip-path="url(#SVGID_2_)" fill-rule="evenodd" clip-rule="evenodd" points="298.932,410.173 298.977,410.425 
			299.487,410.329 299.415,410.067 		"></polygon>
		<polygon clip-path="url(#SVGID_2_)" fill-rule="evenodd" clip-rule="evenodd" points="298.866,409.884 298.882,409.917 
			298.932,410.173 299.415,410.067 299.374,409.788 299.39,409.823 		"></polygon>
		<polygon clip-path="url(#SVGID_2_)" fill-rule="evenodd" clip-rule="evenodd" points="299.343,409.646 298.836,409.579 
			298.866,409.884 299.39,409.823 299.35,409.546 298.845,409.481 		"></polygon>
		<path clip-path="url(#SVGID_2_)" fill="#4D494A" d="M295.794,406.751l-0.242,0.072L295.794,406.751z"></path>
		<polygon clip-path="url(#SVGID_2_)" fill="#4D494A" points="296.044,407.577 296.054,407.556 296.177,407.565 296.27,407.692 
			296.047,407.624 		"></polygon>
		<polygon clip-path="url(#SVGID_2_)" points="295.497,406.599 295.756,406.548 295.761,406.364 297.267,402.405 297.259,402.431 
			297.259,402.589 297.299,402.788 297.378,403.024 297.441,403.231 297.497,403.46 297.536,403.657 297.774,403.735 
			296.27,407.696 296.177,407.565 296.054,407.556 296.044,407.577 296.047,407.624 296.27,407.696 296.048,407.683 
			296.054,407.864 295.903,407.675 295.776,407.665 295.744,407.444 295.837,407.423 295.933,407.169 295.682,407.237 
			295.61,407.056 295.552,406.823 295.794,406.751 295.552,406.823 295.562,406.802 		"></polygon>
		<polygon clip-path="url(#SVGID_2_)" points="296.038,407.356 307.071,406.995 307.354,407.009 307.401,407.028 307.672,407.091 
			307.696,407.101 307.984,407.196 308.258,407.315 308.283,407.319 308.545,407.487 308.593,407.503 308.796,407.677 
			308.861,407.726 309.013,407.905 309.026,407.938 309.132,408.103 309.138,408.159 308.652,408.308 308.574,408.185 
			308.567,408.21 308.442,408.034 308.443,408.034 308.272,407.897 308.312,407.938 308.044,407.796 308.045,407.794 
			307.765,407.677 307.528,407.599 307.259,407.536 307.307,407.548 307.053,407.519 307.053,407.495 296.054,407.864 		"></polygon>
		<polygon clip-path="url(#SVGID_2_)" points="308.641,408.312 308.652,408.308 308.677,408.353 		"></polygon>
		<polygon clip-path="url(#SVGID_2_)" fill-rule="evenodd" clip-rule="evenodd" points="314.531,417.565 314.531,417.413 
			313.025,421.372 313.525,421.538 315.031,417.577 315.031,417.421 		"></polygon>
		<polygon clip-path="url(#SVGID_2_)" fill-rule="evenodd" clip-rule="evenodd" points="310.179,404.411 310.144,404.351 
			314.531,417.565 315.031,417.421 310.646,404.2 310.636,404.147 		"></polygon>
		<polygon clip-path="url(#SVGID_2_)" fill-rule="evenodd" clip-rule="evenodd" points="310.091,404.28 310.075,404.251 
			310.179,404.411 310.636,404.147 310.534,403.978 310.509,403.968 310.063,404.272 		"></polygon>
		<polygon clip-path="url(#SVGID_2_)" fill-rule="evenodd" clip-rule="evenodd" points="309.987,404.112 309.948,404.075 
			310.063,404.272 310.511,403.968 310.343,403.759 310.302,403.716 		"></polygon>
		<polygon clip-path="url(#SVGID_2_)" fill-rule="evenodd" clip-rule="evenodd" points="309.812,404.001 309.772,403.962 
			309.989,404.112 310.304,403.716 310.089,403.567 310.051,403.526 		"></polygon>
		<polygon clip-path="url(#SVGID_2_)" fill-rule="evenodd" clip-rule="evenodd" points="309.574,403.843 309.551,403.835 
			309.812,404.001 310.051,403.526 309.778,403.386 309.757,403.378 		"></polygon>
		<polygon clip-path="url(#SVGID_2_)" fill-rule="evenodd" clip-rule="evenodd" points="309.321,403.735 309.268,403.739 
			309.574,403.843 309.756,403.378 309.479,403.259 309.456,403.251 309.29,403.745 		"></polygon>
		<polygon clip-path="url(#SVGID_2_)" fill-rule="evenodd" clip-rule="evenodd" points="309.034,403.64 309.003,403.653 
			309.292,403.745 309.456,403.251 309.169,403.155 309.026,403.661 		"></polygon>
		<polygon clip-path="url(#SVGID_2_)" fill-rule="evenodd" clip-rule="evenodd" points="308.815,403.589 308.768,403.575 
			309.026,403.661 309.169,403.155 308.878,403.083 308.854,403.075 		"></polygon>
		<polygon clip-path="url(#SVGID_2_)" fill-rule="evenodd" clip-rule="evenodd" points="308.559,403.558 308.552,403.581 
			308.815,403.589 308.854,403.075 308.574,403.034 308.545,403.052 		"></polygon>
		<polygon clip-path="url(#SVGID_2_)" fill-rule="evenodd" clip-rule="evenodd" points="297.798,403.745 297.53,403.915 
			308.559,403.558 308.544,403.052 297.536,403.419 297.301,403.579 297.773,403.735 		"></polygon>
		<polygon clip-path="url(#SVGID_2_)" fill="#4D494A" points="300.569,415.788 300.53,415.767 300.555,415.757 		"></polygon>
		<path clip-path="url(#SVGID_2_)" fill="#4D494A" d="M306.527,417.569l-0.044,0.533L306.527,417.569z"></path>
		<path clip-path="url(#SVGID_2_)" d="M297.396,414.124l0.05,0.254l0.095,0.27l0.119,0.199l0.674,0.354l0.672,0.357l0.65,0.35
			l0.656,0.326l0.025,0.008l0.667,0.299l0.663,0.305l0.723,0.291l0.729,0.271l0.025,0.006l0.773,0.207l0.778,0.205l0.026,0.008
			l0.854,0.131l0.88,0.135l0.024,0.004l0.957,0.055l0.035-0.014l1.021,0.025l1.092-0.037l1.16-0.061l0.236-0.156l1.497-3.938
			l-0.254-0.35l0.017,0.51l-0.081-0.102l0.059-0.145l-0.166,0.01l-0.072-0.09l-0.037,0.098l-0.859,0.051h-1.109l-1.021-0.021
			l-0.937-0.047l-0.91-0.123l-0.85-0.148l-0.777-0.205l-0.775-0.207l-0.729-0.27l-0.703-0.266l-0.668-0.299l-0.657-0.324
			l-0.681-0.334l-0.651-0.348l-0.648-0.35l-0.45-0.236l0.014-0.043l-0.236-0.08l-0.065-0.283l-0.048-0.254l-0.02-0.088l0.18-0.389
			l-0.252-0.082l-0.013-0.002l-0.233-0.076l-1.501,3.934l-0.016,0.127l0.04,0.275L297.396,414.124z M297.583,413.497l0.01,0.053
			l-0.029-0.014L297.583,413.497z"></path>
		<polygon clip-path="url(#SVGID_2_)" fill-rule="evenodd" clip-rule="evenodd" points="311.087,414.2 312.243,414.138 
			312.228,413.626 311.069,413.692 		"></polygon>
		
			<rect x="309.984" y="413.708" transform="matrix(-0.9996 0.0285 -0.0285 -0.9996 632.7482 818.8945)" clip-path="url(#SVGID_2_)" fill-rule="evenodd" clip-rule="evenodd" width="1.095" height="0.508"></rect>
		<polygon clip-path="url(#SVGID_2_)" fill-rule="evenodd" clip-rule="evenodd" points="308.947,414.2 308.972,414.202 
			309.993,414.231 309.978,413.728 308.956,413.7 308.985,413.685 308.939,414.222 		"></polygon>
		<polygon clip-path="url(#SVGID_2_)" fill-rule="evenodd" clip-rule="evenodd" points="307.963,414.138 307.989,414.142 
			308.939,414.222 308.987,413.685 308.026,413.626 308.05,413.636 		"></polygon>
		<polygon clip-path="url(#SVGID_2_)" fill-rule="evenodd" clip-rule="evenodd" points="307.075,414.026 307.962,414.138 
			308.05,413.636 307.172,413.499 		"></polygon>
		<polygon clip-path="url(#SVGID_2_)" fill-rule="evenodd" clip-rule="evenodd" points="306.203,413.864 306.229,413.874 
			307.077,414.026 307.171,413.499 306.29,413.366 306.317,413.372 		"></polygon>
		<polygon clip-path="url(#SVGID_2_)" fill-rule="evenodd" clip-rule="evenodd" points="305.428,413.657 306.203,413.864 
			306.314,413.372 305.542,413.165 305.419,413.681 		"></polygon>
		<polygon clip-path="url(#SVGID_2_)" fill-rule="evenodd" clip-rule="evenodd" points="304.618,413.47 304.645,413.476 
			305.42,413.681 305.54,413.165 304.764,412.962 304.788,412.97 		"></polygon>
		<polygon clip-path="url(#SVGID_2_)" fill-rule="evenodd" clip-rule="evenodd" points="303.891,413.198 303.891,413.198 
			304.618,413.47 304.788,412.97 304.058,412.702 304.082,412.708 303.868,413.188 		"></polygon>
		<polygon clip-path="url(#SVGID_2_)" fill-rule="evenodd" clip-rule="evenodd" points="303.168,412.905 303.869,413.188 
			304.083,412.708 303.385,412.419 		"></polygon>
		<polygon clip-path="url(#SVGID_2_)" fill-rule="evenodd" clip-rule="evenodd" points="302.504,412.603 303.168,412.905 
			303.385,412.419 302.71,412.142 		"></polygon>
		<polygon clip-path="url(#SVGID_2_)" fill-rule="evenodd" clip-rule="evenodd" points="301.822,412.269 301.837,412.304 
			302.504,412.603 302.71,412.142 302.028,411.813 302.054,411.821 301.813,412.292 		"></polygon>
		<polygon clip-path="url(#SVGID_2_)" fill-rule="evenodd" clip-rule="evenodd" points="301.165,411.946 301.814,412.292 
			302.052,411.821 301.396,411.495 301.158,411.97 		"></polygon>
		<polygon clip-path="url(#SVGID_2_)" fill-rule="evenodd" clip-rule="evenodd" points="300.515,411.597 301.159,411.97 
			301.394,411.495 300.747,411.147 300.49,411.591 		"></polygon>
		<polygon clip-path="url(#SVGID_2_)" fill-rule="evenodd" clip-rule="evenodd" points="299.841,411.239 300.49,411.591 
			300.747,411.147 300.096,410.794 		"></polygon>
		<polygon clip-path="url(#SVGID_2_)" fill-rule="evenodd" clip-rule="evenodd" points="299.532,410.739 299.167,410.882 
			299.841,411.239 300.096,410.794 299.423,410.44 299.056,410.583 		"></polygon>
		<polygon clip-path="url(#SVGID_2_)" fill-rule="evenodd" clip-rule="evenodd" points="368.227,403.604 366.721,407.565 
			371.64,409.206 372.782,406.577 372.813,406.325 372.824,406.06 372.782,405.782 372.688,405.515 372.53,405.28 372.401,405.022 
			372.197,404.769 371.982,404.542 371.763,404.335 371.513,404.12 371.261,403.927 371.016,403.792 370.777,403.636 
			370.498,403.517 370.255,403.38 370.02,403.304 369.804,403.231 369.548,403.2 369.32,403.179 369.099,403.21 368.876,403.243 
			368.641,403.319 368.431,403.462 		"></polygon>
		<polygon clip-path="url(#SVGID_2_)" fill-rule="evenodd" clip-rule="evenodd" points="371.421,409.083 371.729,408.948 
			366.807,407.304 366.64,407.804 371.563,409.442 371.893,409.317 		"></polygon>
		<polygon clip-path="url(#SVGID_2_)" points="295.497,406.36 295.523,406.286 297.022,402.345 297.497,402.507 296.043,406.397 
			296.014,406.556 296.007,406.499 295.497,406.599 295.491,406.542 		"></polygon>
		<polygon clip-path="url(#SVGID_2_)" fill="#4D494A" points="319.627,415.679 319.54,415.729 319.532,415.724 		"></polygon>
		<path clip-path="url(#SVGID_2_)" d="M295.682,407.237l0.053,0.23l0.009-0.023l0.385-0.08l-0.099,0.252l11.034-0.359l0.26,0.01
			l0.285,0.096l0.285,0.092l0.283,0.1l0.264,0.16l0.213,0.154l0.152,0.186l0.092,0.18l-0.258,0.078l4.384,13.219l0.262,0.002
			l0.002,0.164h0.396l0.372-0.008l0.342,0.008l0.31-0.055l0.314-0.082l0.319-0.154l0.291-0.246l0.349-0.332l0.008-0.027l0.201-0.275
			l0.229-0.293l0.262-0.307l0.184-0.311l0.232-0.373l0.237-0.318l0.193-0.354l0.255-0.367l0.205-0.301l0.294-0.324l0.239-0.314
			l0.275-0.281l0.246-0.26l0.264-0.23l0.252-0.203l0.295-0.166l0.062-0.033l-0.188-0.182l0.188,0.182l0.296-0.324l0.268-0.254
			l0.238-0.236l0.254-0.209l0.249-0.18l0.255-0.154l0.232-0.131l0.254-0.127l0.284-0.064l0.279-0.117l0.286-0.064l0.33-0.049
			l0.364-0.062l0.405-0.025l0.438-0.035l0.426-0.02l0.025,0.01l47.604-3.559l0.274-0.033l0.257-0.051l0.23-0.053l0.238-0.08
			l0.221-0.111l0.231-0.137l0.188-0.172l0.222-0.193l0.048-0.061l0.832-1.941l-0.436-0.277l0.192,0.188l-0.03,0.025l-0.209-0.148
			l-0.208,0.486l-0.142,0.082l-0.18,0.074l-0.216,0.084l-0.2,0.041l-0.251,0.047l-0.254,0.047l-47.629,3.549l-0.303,0.029
			l-0.293,0.012l-0.291,0.004l-0.312,0.051h-0.319l-0.274,0.045l-0.302,0.031l-0.275,0.041l-0.311,0.055l-0.278,0.039l-0.282,0.062
			l-0.318,0.082l-0.287,0.061l-0.302,0.111l-0.302,0.113l-0.283,0.141l-0.563,0.34l-0.571,0.521l-0.601,0.623l-0.579,0.701
			l-0.562,0.734l-0.484,0.66l-0.475,0.635l-0.395,0.477l-0.233,0.053l-0.196,0.043l-0.248,0.023h-0.238h-0.236l-0.204-0.02
			L315,417.513l-0.23-0.023l-4.37-13.186l-0.096-0.191l-0.15-0.186l-0.214-0.146l-0.287-0.172l-0.276-0.123l-0.285-0.096
			l-0.271-0.062l-0.262-0.008l-11.021,0.338l-1.326,3.482l-0.006-0.045L295.682,407.237z M374.894,407.603l0.014-0.031l0.18,0.172
			L374.894,407.603z"></path>
		<polygon clip-path="url(#SVGID_2_)" fill-rule="evenodd" clip-rule="evenodd" points="373.226,408.577 373.511,408.511 
			373.761,408.464 373.994,408.407 374.234,408.329 374.453,408.218 374.686,408.085 374.867,407.935 375.09,407.743 
			374.711,407.378 374.542,407.562 374.367,407.688 374.199,407.792 374.021,407.86 373.845,407.907 373.64,407.972 
			373.417,408.003 373.171,408.026 		"></polygon>
		<polygon clip-path="url(#SVGID_2_)" fill-rule="evenodd" clip-rule="evenodd" points="325.628,412.106 373.226,408.577 
			373.171,408.026 325.566,411.583 		"></polygon>
		<polygon clip-path="url(#SVGID_2_)" fill-rule="evenodd" clip-rule="evenodd" points="320.961,412.952 321.236,412.835 
			321.509,412.737 321.834,412.636 322.102,412.542 322.395,412.456 322.674,412.413 322.951,412.374 323.26,412.319 
			323.515,412.269 323.806,412.263 324.107,412.231 324.409,412.2 324.709,412.171 324.977,412.155 325.304,412.132 
			325.628,412.106 325.568,411.583 325.264,411.618 324.967,411.644 324.647,411.644 324.348,411.679 324.052,411.687 
			323.766,411.749 323.473,411.755 323.146,411.778 322.861,411.843 322.578,411.905 322.269,411.962 321.951,412.04 
			321.684,412.136 321.357,412.237 321.034,412.343 320.746,412.483 		"></polygon>
		<polygon clip-path="url(#SVGID_2_)" fill-rule="evenodd" clip-rule="evenodd" points="316.695,417.655 316.801,417.585 
			317.014,417.339 317.201,417.085 317.432,416.794 317.67,416.476 317.943,416.146 318.187,415.802 318.463,415.444 
			318.742,415.093 319.027,414.712 319.319,414.386 319.606,414.083 319.898,413.759 320.144,413.497 320.453,413.284 
			320.707,413.079 320.961,412.952 320.746,412.483 320.422,412.669 320.144,412.86 319.82,413.126 319.511,413.419 
			319.225,413.722 318.939,414.021 318.625,414.417 318.344,414.772 318.067,415.13 317.791,415.485 317.547,415.827 
			317.272,416.159 317.037,416.476 316.809,416.771 316.619,417.024 316.443,417.229 316.538,417.181 		"></polygon>
		<polygon clip-path="url(#SVGID_2_)" fill-rule="evenodd" clip-rule="evenodd" fill="#FFFFFF" points="307.578,403.337 
			308.559,403.319 308.641,403.319 300.202,400.507 299.772,400.757 307.569,403.358 		"></polygon>
		<polygon clip-path="url(#SVGID_2_)" fill-rule="evenodd" clip-rule="evenodd" fill="#FFFFFF" points="307.578,403.337 
			297.536,403.657 297.497,403.46 297.441,403.231 297.379,403.024 297.301,402.788 297.259,402.589 297.259,402.431 
			297.322,402.239 297.497,402.11 297.911,401.827 298.37,401.56 298.829,401.29 299.29,401.019 299.726,400.741 299.772,400.757 
			307.569,403.358 		"></polygon>
		<polygon clip-path="url(#SVGID_2_)" fill="#FFFFFF" points="301.474,409.435 308.312,409.048 310.99,410.128 311.934,412.923 
			312.221,413.892 311.087,413.96 309.978,413.96 308.955,413.938 308.019,413.892 307.108,413.769 306.259,413.62 305.481,413.415 
			304.708,413.208 303.98,412.938 303.271,412.673 302.608,412.374 301.949,412.05 301.269,411.716 300.617,411.368 299.97,411.019 
			299.296,410.659 299.23,410.376 299.183,410.122 299.12,409.839 299.078,409.56 		"></polygon>
		<polygon clip-path="url(#SVGID_2_)" fill-rule="evenodd" clip-rule="evenodd" fill="#FFFFFF" points="318.703,410.218 
			318.801,410.329 319.678,410.858 319.963,410.403 319.082,409.868 319.17,410.003 318.703,410.218 318.736,410.278 
			318.801,410.329 		"></polygon>
		<polygon clip-path="url(#SVGID_2_)" fill-rule="evenodd" clip-rule="evenodd" fill="#FFFFFF" points="310.882,410.382 
			310.731,410.198 311.985,413.97 312.48,413.817 311.229,410.046 311.094,409.896 311.229,410.046 311.191,409.929 
			311.094,409.896 		"></polygon>
		<polygon clip-path="url(#SVGID_2_)" fill-rule="evenodd" clip-rule="evenodd" fill="#FFFFFF" points="308.339,409.296 
			308.212,409.278 310.882,410.382 311.094,409.896 308.426,408.794 308.32,408.788 308.426,408.794 308.377,408.78 308.32,408.788 
					"></polygon>
		<polygon clip-path="url(#SVGID_2_)" fill-rule="evenodd" clip-rule="evenodd" fill="#FFFFFF" points="299.35,409.546 
			299.097,409.829 308.339,409.296 308.321,408.788 299.082,409.321 298.836,409.579 299.082,409.321 298.786,409.329 
			298.836,409.579 		"></polygon>
		<polygon clip-path="url(#SVGID_2_)" fill-rule="evenodd" clip-rule="evenodd" fill="#FFFFFF" points="299.424,410.44 
			299.524,410.604 299.518,410.472 299.485,410.329 299.477,410.194 299.437,410.075 299.429,409.942 299.397,409.8 
			299.358,409.681 299.35,409.546 298.836,409.579 298.835,409.741 298.858,409.907 298.898,410.022 298.907,410.159 
			298.944,410.278 298.978,410.425 299.033,410.575 299.042,410.71 299.167,410.882 299.042,410.71 299.078,410.827 
			299.167,410.882 		"></polygon>
		<polygon clip-path="url(#SVGID_2_)" fill-rule="evenodd" clip-rule="evenodd" fill="#FFFFFF" points="311.988,413.944 
			312.202,413.62 311.069,413.692 309.977,413.728 308.985,413.685 308.026,413.626 307.172,413.499 306.315,413.372 
			305.539,413.165 304.788,412.97 304.058,412.7 303.386,412.419 302.71,412.142 302.054,411.821 301.396,411.495 300.747,411.147 
			300.096,410.794 299.423,410.44 299.167,410.882 299.841,411.239 300.491,411.591 301.159,411.97 301.813,412.292 
			302.504,412.603 303.168,412.905 303.891,413.198 304.618,413.47 305.419,413.681 306.203,413.864 307.073,414.026 
			307.987,414.142 308.939,414.222 309.993,414.231 311.087,414.2 312.266,414.146 312.48,413.817 312.266,414.146 312.592,414.118 
			312.48,413.817 311.984,413.97 		"></polygon>
		<polygon clip-path="url(#SVGID_2_)" fill-rule="evenodd" clip-rule="evenodd" fill="#FFFFFF" points="325.566,411.583 
			325.219,411.599 324.827,411.655 324.48,411.667 324.1,411.7 323.734,411.763 323.347,411.821 322.959,411.876 322.583,411.962 
			322.211,412.05 321.887,412.151 321.53,412.269 321.199,412.397 320.912,412.542 320.572,412.688 320.295,412.89 320.039,413.095 
			320.359,413.493 320.604,413.308 320.842,413.147 321.103,412.999 321.403,412.89 321.699,412.724 322.014,412.642 
			322.388,412.558 322.713,412.454 323.07,412.413 323.388,412.335 323.769,412.304 324.131,412.241 324.521,412.185 324.9,412.151 
			325.256,412.114 325.628,412.106 		"></polygon>
		<polygon clip-path="url(#SVGID_2_)" fill-rule="evenodd" clip-rule="evenodd" fill="#FFFFFF" points="373.171,408.026 
			325.566,411.583 325.627,412.106 373.226,408.577 		"></polygon>
		<polygon clip-path="url(#SVGID_2_)" fill-rule="evenodd" clip-rule="evenodd" fill="#FFFFFF" points="374.06,405.124 
			374.256,405.403 374.464,405.661 374.559,405.929 374.708,406.19 374.785,406.429 374.812,406.671 374.818,406.884 
			374.804,407.091 374.747,407.259 374.669,407.419 374.564,407.569 374.382,407.72 374.192,407.815 373.891,407.927 
			373.573,408.003 373.171,408.026 373.226,408.577 373.662,408.534 374.042,408.423 374.375,408.294 374.669,408.132 
			374.938,407.956 375.126,407.7 375.232,407.472 375.325,407.188 375.319,406.894 375.333,406.61 375.27,406.325 375.166,406.003 
			375.047,405.72 374.89,405.403 374.686,405.073 374.479,404.819 		"></polygon>
		<polygon clip-path="url(#SVGID_2_)" fill-rule="evenodd" clip-rule="evenodd" fill="#FFFFFF" points="368.384,402.417 
			368.812,402.401 369.249,402.44 369.691,402.536 370.117,402.599 370.524,402.733 370.93,402.87 371.315,403.052 371.681,403.226 
			372.061,403.431 372.409,403.653 372.782,403.886 373.053,404.104 373.335,404.358 373.615,404.638 373.845,404.896 
			374.06,405.124 374.479,404.819 374.232,404.526 373.955,404.251 373.678,403.968 373.369,403.708 373.028,403.464 
			372.689,403.222 372.34,402.993 371.943,402.755 371.533,402.567 371.109,402.401 370.684,402.259 370.233,402.106 
			369.788,402.009 369.334,401.94 368.817,401.901 368.369,401.903 		"></polygon>
		<polygon clip-path="url(#SVGID_2_)" fill-rule="evenodd" clip-rule="evenodd" fill="#FFFFFF" points="326.264,403.866 
			368.384,402.417 368.371,401.903 326.271,403.366 		"></polygon>
		<polygon clip-path="url(#SVGID_2_)" fill-rule="evenodd" clip-rule="evenodd" fill="#FFFFFF" points="319.615,402.808 
			320.012,402.97 320.432,403.054 320.837,403.188 321.258,403.276 321.699,403.374 322.111,403.485 322.562,403.554 
			322.967,403.612 323.389,403.7 323.823,403.737 324.25,403.8 324.671,403.806 325.076,403.864 325.505,403.849 325.891,403.874 
			326.264,403.866 326.271,403.366 325.875,403.366 325.486,403.343 325.123,403.327 324.711,403.298 324.298,403.263 
			323.888,403.231 323.481,403.177 323.057,403.112 322.635,403.024 322.231,402.97 321.82,402.86 321.393,402.796 320.979,402.681 
			320.541,402.565 320.178,402.47 319.775,402.335 319.609,402.833 		"></polygon>
		<polygon clip-path="url(#SVGID_2_)" fill-rule="evenodd" clip-rule="evenodd" fill="#FFFFFF" points="305.408,398.915 
			306.129,398.813 306.81,398.749 307.46,398.698 308.053,398.659 308.616,398.638 309.124,398.702 309.646,398.718 
			310.083,398.757 310.535,398.825 310.956,398.919 311.35,398.995 311.709,399.114 312.088,399.241 312.391,399.368 
			312.762,399.517 313.055,399.667 313.393,399.839 313.736,400.001 314.07,400.194 314.401,400.384 314.734,400.571 
			315.084,400.798 315.426,400.962 315.796,401.192 316.209,401.382 316.604,401.62 317.05,401.794 317.477,402.017 
			317.959,402.229 318.481,402.405 319.04,402.642 319.609,402.833 319.775,402.335 319.204,402.144 318.643,401.931 
			318.171,401.745 317.682,401.556 317.231,401.327 316.841,401.144 316.447,400.905 316.058,400.724 315.678,400.519 
			315.32,400.321 314.988,400.13 314.641,399.905 314.306,399.718 313.966,399.552 313.625,399.384 313.314,399.202 
			312.975,399.034 312.604,398.884 312.252,398.743 311.871,398.616 311.472,398.479 311.048,398.394 310.625,398.329 
			310.153,398.228 309.671,398.169 309.173,398.165 308.59,398.155 308.04,398.153 307.396,398.177 306.744,398.226 306.058,398.31 
			305.343,398.392 305.383,398.903 		"></polygon>
		<polygon clip-path="url(#SVGID_2_)" fill-rule="evenodd" clip-rule="evenodd" fill="#FFFFFF" points="297.632,402.345 
			298.044,402.058 298.504,401.786 298.964,401.521 299.429,401.226 299.86,400.974 300.345,400.71 300.796,400.464 
			301.261,400.253 301.763,400.022 302.261,399.792 302.751,399.587 303.258,399.413 303.809,399.278 304.306,399.128 
			304.853,398.995 305.384,398.903 305.343,398.392 304.749,398.509 304.187,398.614 303.631,398.767 303.106,398.913 
			302.586,399.132 302.046,399.323 301.558,399.532 301.056,399.761 300.55,400.015 300.066,400.276 299.612,400.519 
			299.153,400.79 298.693,401.06 298.234,401.327 297.799,401.604 297.363,401.882 297.606,402.335 		"></polygon>
		<polygon clip-path="url(#SVGID_2_)" fill-rule="evenodd" clip-rule="evenodd" fill="#FFFFFF" points="297.537,403.419 
			297.806,403.642 297.728,403.403 297.68,403.149 297.616,402.942 297.561,402.716 297.529,402.569 297.502,402.483 
			297.545,402.366 297.608,402.335 297.362,401.882 297.133,402.095 297.013,402.374 296.981,402.628 297.062,402.864 
			297.116,403.095 297.181,403.3 297.245,403.505 297.281,403.706 297.529,403.917 297.281,403.706 297.291,403.917 
			297.529,403.917 		"></polygon>
		<polygon clip-path="url(#SVGID_2_)" fill="#FFFFFF" points="316.993,405.29 316.986,405.313 316.982,405.312 		"></polygon>
		<polygon clip-path="url(#SVGID_2_)" fill="#FFFFFF" points="316.873,405.407 316.984,405.312 316.92,405.581 		"></polygon>
		<polygon clip-path="url(#SVGID_2_)" fill="#FFFFFF" points="323.965,408.435 332.648,411.331 331.707,411.388 331.701,411.409 
			324.158,408.896 		"></polygon>
		<path clip-path="url(#SVGID_2_)" fill="#FFFFFF" d="M297.529,403.915l11.031-0.357l0.231,0.023l0.212,0.072l0.289,0.092
			l0.259,0.09l0.238,0.162l0.172,0.107l0.103,0.168l0.082,0.078l4.387,13.215l0.065,0.207l0.214-0.008l0.222-0.029l0.253,0.029
			l0.31,0.027l0.29-0.008l0.287,0.016l0.263-0.072l0.291-0.084l0.238-0.16l0.286-0.303l0.238-0.316l0.222-0.27l0.223-0.268
			l0.191-0.256l0.181-0.23l0.157-0.232l0.191-0.258l0.158-0.234l0.183-0.23l0.183-0.232l0.195-0.197l0.208-0.221l0.238-0.238
			l0.239-0.238l0.299-0.266l-0.161-0.203l0.238-0.195l0.274-0.172l0.311-0.139l0.283-0.143l0.307-0.133l0.35-0.096l0.357-0.121
			l0.349-0.092l0.333-0.049l0.364-0.066l0.388-0.053l0.365-0.061l0.379-0.033l0.381-0.033l0.355-0.039l0.352-0.014l6.119-0.443
			l-7.541-2.514l-0.195-0.461l8.684,2.896l40.56-3.027l0.757-0.119l0.563-0.258l0.387-0.373l0.14-0.43v-0.473l0.011-0.027
			l-0.136-0.545l-0.269-0.539l-0.391-0.58l-0.229-0.26l-0.252-0.27l-0.279-0.275l-0.289-0.232l-0.312-0.262l-0.347-0.221
			l-0.371-0.23l-0.374-0.232l-0.396-0.158l-0.391-0.18l-0.426-0.145l-0.453-0.15l-0.425-0.061l-0.448-0.098l-0.461-0.047
			l-0.446,0.008l-6.128,0.227l-35.972,1.23h-0.396l-0.37,0.006l-0.423-0.006l-0.4-0.055l-0.416-0.033l-0.41-0.031l-0.402-0.059
			l-0.431-0.062l-0.427-0.061l-0.42-0.088l-0.421-0.09l-0.419-0.088l-0.436-0.115l-0.41-0.115l-0.392-0.102l-0.403-0.133
			l-0.573-0.193l-0.559-0.215l-0.492-0.188l-0.489-0.191l-0.432-0.221l-0.41-0.189l-0.428-0.227l-0.391-0.18l-0.372-0.229
			l-0.331-0.193l-0.359-0.195l-0.331-0.191l-0.357-0.195l-0.329-0.193l-0.32-0.158l-0.332-0.191l-0.34-0.166l-0.352-0.143
			l-0.33-0.111l-0.38-0.127l-0.406-0.133l-0.387-0.105l-0.432-0.061l-0.449-0.072l-0.461-0.049l-0.514-0.041l-0.55-0.023
			l-0.558,0.023l-0.59,0.016l-0.656,0.07l-0.681,0.066l-0.745,0.092l-0.556,0.08l-0.548,0.135l-0.548,0.135l-0.507,0.174
			l-0.537,0.191l-0.515,0.195l-0.489,0.207l-0.5,0.227l-0.479,0.238l-0.482,0.266l7.697,2.566l-10.36,0.346L297.529,403.915z
			 M368.075,404.136l0.047-0.301l0.105-0.23l0.188-0.174l0.285-0.143l0.334-0.045l0.181,0.004l0.211,0.016l0.193,0.041l0.199,0.039
			l0.238,0.082l0.213,0.072l0.23,0.1l0.246,0.135l0.204,0.096l0.214,0.15l0.193,0.143l0.205,0.176l0.216,0.148l0.146,0.182
			l0.187,0.166l0.15,0.184l0.275,0.357l0.142,0.365l0.071,0.182l0.042,0.119l-0.026,0.311l-0.057,0.242l-0.176,0.207l-0.25,0.127
			l-0.34,0.072l-0.192,0.016l-0.194-0.043l-0.232-0.021l-0.246-0.055l-0.212-0.072l-0.237-0.082l-0.255-0.105l-0.225-0.129
			l-0.229-0.104l-0.246-0.135l-0.215-0.148l-0.203-0.178l-0.19-0.143l-0.198-0.195l-0.175-0.191l-0.15-0.186l-0.244-0.373
			l-0.144-0.359l-0.04-0.121L368.075,404.136z M324.229,409.735L324.229,409.735l-0.168-0.135L324.229,409.735z M317.479,405.55
			l0.278-0.281l3.618-0.209l0.767,0.4l1.815,4.271l-0.281,0.359l-3.886,0.277l0.171,0.035l-0.13,0.209l-0.019,0.002l-0.863-0.498
			l-0.004-0.01l0.225-0.104L317.479,405.55z"></path>
		<polygon clip-path="url(#SVGID_2_)" fill-rule="evenodd" clip-rule="evenodd" points="365.624,406.884 365.404,406.757 
			365.364,406.558 365.681,406.479 365.746,406.685 365.555,406.542 		"></polygon>
		<polygon clip-path="url(#SVGID_2_)" fill-rule="evenodd" clip-rule="evenodd" points="366.057,406.63 366.008,406.696 
			365.929,406.772 365.83,406.819 365.737,406.868 365.625,406.884 365.555,406.542 365.603,406.558 365.674,406.503 
			365.759,406.479 365.77,406.458 365.752,406.503 366.046,406.653 		"></polygon>
		<polygon clip-path="url(#SVGID_2_)" fill-rule="evenodd" clip-rule="evenodd" points="365.158,404.642 365.185,404.647 
			365.335,404.833 365.53,405.03 365.722,405.251 365.901,405.497 366.053,405.759 366.139,406.056 366.143,406.37 366.046,406.653 
			365.752,406.503 365.814,406.312 365.803,406.124 365.746,405.894 365.603,405.69 365.444,405.452 365.274,405.259 
			365.072,405.063 364.921,404.88 364.944,404.886 		"></polygon>
		<polygon clip-path="url(#SVGID_2_)" fill-rule="evenodd" clip-rule="evenodd" points="362.243,403.8 362.218,403.79 
			362.642,403.8 363.036,403.8 363.406,403.87 363.765,403.911 364.126,404.007 364.47,404.173 364.825,404.372 365.158,404.642 
			364.945,404.886 364.621,404.671 364.309,404.489 364.019,404.341 363.7,404.259 363.351,404.198 362.995,404.155 362.63,404.142 
			362.258,404.149 362.269,404.126 362.209,403.817 		"></polygon>
		<polygon clip-path="url(#SVGID_2_)" fill-rule="evenodd" clip-rule="evenodd" points="331.321,405.423 331.455,405.333 
			362.21,403.817 362.269,404.126 331.502,405.667 331.638,405.579 		"></polygon>
		<polygon clip-path="url(#SVGID_2_)" fill-rule="evenodd" clip-rule="evenodd" points="330.591,406.497 330.256,406.386 
			330.282,406.155 330.345,405.968 330.439,405.761 330.567,405.618 330.731,405.515 330.945,405.429 331.185,405.351 
			331.456,405.333 331.501,405.667 331.247,405.714 331.02,405.772 330.907,405.782 330.795,405.88 330.741,405.968 
			330.654,406.071 330.606,406.214 330.616,406.425 330.282,406.315 		"></polygon>
		<polygon clip-path="url(#SVGID_2_)" points="365.431,406.37 365.344,406.233 365.231,406.089 365.144,405.954 365.023,405.833 
			364.911,405.694 364.793,405.577 364.685,405.433 364.367,405.194 364.042,404.981 363.715,404.849 363.375,404.759 
			363.022,404.72 362.646,404.649 362.282,404.632 361.885,404.632 331.123,406.177 331.374,405.694 331.472,405.683 
			331.501,405.667 362.266,404.126 362.782,404.165 363.211,404.149 363.615,404.206 363.983,404.276 364.327,404.444 
			364.634,404.624 364.921,404.88 365.245,405.251 365.531,405.585 365.737,405.915 365.84,406.161 365.84,406.319 365.77,406.458 
			365.573,406.573 365.545,406.581 365.531,406.534 		"></polygon>
		<path clip-path="url(#SVGID_2_)" d="M330.258,406.386l0.031,0.299l0.062,0.209l0.088,0.291l0.207,0.336l0.251,0.268l0.324,0.297
			l0.391,0.262l0.437,0.195l0.456,0.125l0.558,0.002l31.604-1.604l0.603-0.062l0.427-0.096l0.312-0.215l0.172-0.285l-0.007-0.291
			l-0.12-0.357l-0.229-0.342l-0.314-0.396l-0.327-0.373l-0.349-0.301l-0.369-0.229l-0.367-0.174l-0.396-0.08l-0.477-0.08h-0.474
			l-0.541,0.033l-30.754,1.516v0.008l-0.327,0.016l-0.331,0.127l-0.22,0.191l-0.153,0.213l-0.104,0.23L330.258,406.386z
			 M330.614,406.425l0.04-0.197l0.012-0.029l0.026-0.008h0.159l0.27-0.016l0.257-0.48l0.094-0.012l0.029-0.016l30.768-1.541
			l0.512,0.039l0.431-0.016l0.404,0.057l0.368,0.07l0.346,0.168l0.305,0.18l0.287,0.256l0.327,0.371l0.282,0.334l0.207,0.33
			l0.101,0.246v0.158l-0.068,0.139l-0.198,0.115l-0.026,0.008l-0.347,0.082l-0.524,0.062l-31.611,1.627l-0.024-0.006l-0.441-0.018
			l-0.437-0.119l-0.392-0.184l-0.33-0.189l-0.277-0.275l-0.197-0.281l-0.175-0.268l-0.135-0.227l-0.024-0.17L330.614,406.425z"></path>
	</g>
</g>
</svg>