<svg version="1.1" xmlns="http://www.w3.org/2000/svg" xmlns:xlink="http://www.w3.org/1999/xlink" x="0px" y="0px" width="2475" height="2475" viewBox="0 0 2475 2475" enable-background="new 0 0 594 594" xml:space="preserve">
<g id="Layer_1">
	<rect fill="#929497" width="594" height="594"></rect>
	<rect x="9" y="9" fill="#FFFFFF" stroke="#EC1E28" width="576" height="576"></rect>
	
	
	
	
	
	
	
	
	
	
	
	
	
	
	
	
	
	
	
	
	
	
	
	
	<rect x="397.323" y="39.058" fill="#D0D2D3" width="159.563" height="162.65"></rect>
	
	
	
	<g>
		<defs>
			<rect id="SVGID_1_" x="-72" y="-144.057" width="738" height="738"></rect>
		</defs>
		<clipPath id="SVGID_2_">
			<use xlink:href="#SVGID_1_" overflow="visible"></use>
		</clipPath>
		<g clip-path="url(#SVGID_2_)">
			
		</g>
		<g clip-path="url(#SVGID_2_)">
			
		</g>
	</g>
	<rect x="18" y="18" fill="none" stroke="#2BA6DE" stroke-dasharray="1.443,1.443" width="558" height="558"></rect>
	<rect x="572.131" y="440.185" fill="#F9A51A" width="21.869" height="44.311"></rect>
	<g>
		<defs>
			<rect id="SVGID_3_" x="-6.002" y="5.951" width="598" height="598"></rect>
		</defs>
		<clipPath id="SVGID_4_">
			<use xlink:href="#SVGID_3_" overflow="visible"></use>
		</clipPath>
		<g clip-path="url(#SVGID_4_)">
			
		</g>
		<g clip-path="url(#SVGID_4_)">
			
		</g>
		<line clip-path="url(#SVGID_4_)" fill="none" stroke="#F9A51A" x1="493.965" y1="440.049" x2="591.971" y2="440.049"></line>
	</g>
	<line fill="none" stroke="#EC1E28" x1="508.272" y1="298.945" x2="584.68" y2="298.945"></line>
	<line fill="none" stroke="#929497" x1="498.621" y1="339.135" x2="590.147" y2="339.135"></line>
	<line fill="none" stroke="#2BA6DE" stroke-dasharray="1.442,1.442" x1="505.304" y1="219.105" x2="576.58" y2="219.105"></line>
	<g>
		<defs>
			<rect id="SVGID_5_" x="-6.002" y="5.951" width="598" height="598"></rect>
		</defs>
		<clipPath id="SVGID_6_">
			<use xlink:href="#SVGID_5_" overflow="visible"></use>
		</clipPath>
		<path clip-path="url(#SVGID_6_)" fill="#EC1E28" d="M504.184,208.562c0,0.556-0.253,1.097-0.755,1.624l-0.078,0.079l-4.4,4.638
			c-0.935,0.983-1.73,1.744-2.388,2.28c-0.657,0.536-1.121,0.804-1.393,0.804c-0.284,0-0.637-0.134-1.061-0.402
			c-0.422-0.269-0.694-0.545-0.818-0.831c-0.104-0.237-0.203-0.741-0.294-1.509c-0.095-0.77-0.14-1.603-0.14-2.501
			c0-0.489,0.203-0.941,0.612-1.358c0.408-0.415,0.858-0.623,1.352-0.623c0.471,0,0.751,0.43,0.84,1.29
			c0.011,0.1,0.017,0.172,0.022,0.22c0.076,0.661,0.163,1.122,0.263,1.382s0.234,0.392,0.405,0.392c0.071,0,0.205-0.077,0.398-0.232
			c0.194-0.154,0.428-0.364,0.699-0.629l4.521-4.481c0.379-0.38,0.718-0.667,1.018-0.862c0.299-0.194,0.552-0.292,0.761-0.292
			c0.157,0,0.269,0.06,0.335,0.178c0.066,0.119,0.101,0.318,0.101,0.598V208.562z"></path>
		<path clip-path="url(#SVGID_6_)" fill="#EC1E28" d="M585.547,302.739l0.215-4.098l-1.262,0.774l0.06-0.925l1.292-0.769
			c0.025-0.335,0.052-0.646,0.084-0.932c0.035-0.285,0.073-0.556,0.116-0.811l0.034-0.19c-0.099,0.034-0.194,0.058-0.285,0.067
			c-0.092,0.012-0.176,0.012-0.254-0.002c-0.253-0.043-0.446-0.169-0.582-0.374c-0.139-0.206-0.184-0.44-0.138-0.706
			c0.052-0.297,0.196-0.535,0.438-0.715c0.24-0.18,0.499-0.245,0.779-0.197c0.241,0.043,0.424,0.159,0.546,0.352
			s0.159,0.421,0.113,0.689c-0.022,0.127-0.084,0.312-0.19,0.557c-0.104,0.245-0.166,0.43-0.189,0.558
			c-0.034,0.205-0.022,0.416,0.038,0.633c0.061,0.216,0.17,0.447,0.333,0.688c0.317-0.125,0.591-0.299,0.824-0.522
			c0.233-0.223,0.42-0.492,0.561-0.808c0.048-0.103,0.109-0.248,0.186-0.434c0.077-0.185,0.133-0.303,0.167-0.354
			c0.119-0.171,0.262-0.296,0.428-0.375c0.164-0.078,0.341-0.102,0.526-0.07c0.241,0.043,0.426,0.165,0.555,0.367
			c0.128,0.203,0.17,0.441,0.121,0.715c-0.048,0.282-0.188,0.505-0.417,0.667c-0.23,0.161-0.484,0.219-0.766,0.169
			c-0.123-0.02-0.232-0.065-0.331-0.134c-0.098-0.067-0.189-0.162-0.27-0.285c-0.18,0.377-0.388,0.703-0.625,0.974
			c-0.237,0.27-0.501,0.486-0.789,0.647c-0.105,1.028-0.179,1.731-0.223,2.11s-0.079,0.656-0.109,0.831
			c-0.076,0.438-0.192,0.806-0.349,1.107C586.025,302.246,585.814,302.51,585.547,302.739 M585.593,295.537
			c0.192,0.033,0.369-0.013,0.526-0.137c0.162-0.125,0.262-0.293,0.299-0.508c0.032-0.187,0.006-0.348-0.078-0.486
			c-0.083-0.137-0.205-0.22-0.365-0.247c-0.198-0.034-0.383,0.013-0.556,0.142c-0.171,0.128-0.273,0.3-0.311,0.515
			c-0.032,0.18-0.002,0.338,0.089,0.474C585.286,295.424,585.418,295.507,585.593,295.537 M588.957,296.393
			c0.203,0.034,0.382-0.005,0.54-0.118c0.157-0.114,0.254-0.274,0.287-0.482c0.032-0.18,0.007-0.335-0.076-0.468
			c-0.082-0.13-0.206-0.211-0.366-0.237c-0.187-0.032-0.362,0.02-0.53,0.155s-0.27,0.311-0.306,0.524
			c-0.028,0.165-0.002,0.303,0.078,0.415C588.667,296.293,588.791,296.363,588.957,296.393"></path>
		<path clip-path="url(#SVGID_6_)" fill="#EC1E28" d="M507.692,287.726c0,0.556-0.252,1.097-0.754,1.625l-0.079,0.078l-4.399,4.638
			c-0.936,0.982-1.731,1.743-2.388,2.279c-0.658,0.537-1.122,0.805-1.393,0.805c-0.284,0-0.639-0.134-1.06-0.402
			c-0.423-0.268-0.695-0.545-0.818-0.83c-0.105-0.237-0.204-0.74-0.296-1.51c-0.093-0.77-0.141-1.603-0.141-2.501
			c0-0.489,0.204-0.941,0.612-1.357c0.409-0.414,0.859-0.623,1.354-0.623c0.471,0,0.75,0.431,0.839,1.29
			c0.011,0.1,0.018,0.173,0.022,0.221c0.075,0.66,0.163,1.121,0.264,1.383c0.1,0.26,0.233,0.391,0.405,0.391
			c0.071,0,0.204-0.077,0.398-0.231c0.195-0.154,0.427-0.364,0.698-0.63l4.521-4.481c0.38-0.379,0.72-0.668,1.018-0.862
			c0.3-0.194,0.554-0.292,0.762-0.292c0.157,0,0.269,0.06,0.335,0.179c0.066,0.118,0.1,0.317,0.1,0.598V287.726z"></path>
		<path clip-path="url(#SVGID_6_)" fill="#EC1E28" d="M496.893,328.792c0,0.559-0.251,1.098-0.754,1.625l-0.079,0.081l-4.399,4.635
			c-0.935,0.983-1.731,1.743-2.389,2.281c-0.656,0.536-1.12,0.806-1.391,0.806c-0.285,0-0.639-0.135-1.061-0.403
			c-0.423-0.269-0.696-0.546-0.819-0.831c-0.104-0.237-0.202-0.74-0.295-1.511c-0.093-0.769-0.141-1.602-0.141-2.499
			c0-0.489,0.205-0.942,0.613-1.356c0.408-0.416,0.859-0.624,1.353-0.624c0.47,0,0.75,0.43,0.841,1.288
			c0.009,0.101,0.017,0.175,0.021,0.222c0.076,0.66,0.163,1.122,0.263,1.383c0.101,0.262,0.235,0.392,0.406,0.392
			c0.07,0,0.203-0.077,0.398-0.231s0.427-0.364,0.698-0.63l4.52-4.482c0.38-0.38,0.719-0.666,1.019-0.86
			c0.299-0.195,0.553-0.293,0.762-0.293c0.156,0,0.269,0.06,0.335,0.178c0.065,0.119,0.099,0.319,0.099,0.599V328.792z"></path>
		<path clip-path="url(#SVGID_6_)" fill="#EC1E28" d="M479.074,500.09c0,0.557-0.252,1.097-0.755,1.625l-0.078,0.079l-4.4,4.637
			c-0.935,0.983-1.73,1.743-2.388,2.28c-0.658,0.536-1.122,0.806-1.392,0.806c-0.285,0-0.639-0.135-1.062-0.402
			c-0.421-0.269-0.695-0.547-0.818-0.831c-0.104-0.237-0.203-0.741-0.295-1.511c-0.093-0.77-0.14-1.603-0.14-2.5
			c0-0.489,0.205-0.941,0.612-1.356c0.408-0.416,0.859-0.623,1.354-0.623c0.469,0,0.749,0.429,0.84,1.289
			c0.01,0.099,0.016,0.174,0.021,0.221c0.076,0.66,0.164,1.121,0.264,1.383s0.236,0.391,0.407,0.391c0.07,0,0.203-0.077,0.397-0.231
			c0.195-0.154,0.426-0.364,0.698-0.63l4.52-4.481c0.38-0.38,0.719-0.667,1.019-0.86c0.299-0.195,0.553-0.294,0.762-0.294
			c0.156,0,0.268,0.061,0.335,0.179c0.066,0.119,0.1,0.318,0.1,0.599V500.09z"></path>
		<path clip-path="url(#SVGID_6_)" fill-rule="evenodd" clip-rule="evenodd" d="M529.921,99.958
			c0,27.82-22.538,50.373-50.336,50.373c-27.801,0-50.339-22.553-50.339-50.373s22.538-50.373,50.339-50.373
			C507.383,49.584,529.921,72.138,529.921,99.958"></path>
		<path clip-path="url(#SVGID_6_)" fill-rule="evenodd" clip-rule="evenodd" fill="#B7D333" d="M525.38,100.236
			c0,25.291-20.488,45.794-45.761,45.794s-45.762-20.503-45.762-45.794s20.489-45.793,45.762-45.793S525.38,74.945,525.38,100.236"></path>
		<path clip-path="url(#SVGID_6_)" d="M469.821,90.25c-0.636,5.613-1.108,10.121-1.422,13.524l-2.087,0.092
			c0.029-0.114,0.045-0.241,0.05-0.383c0.003-0.254-0.091-0.59-0.282-1.006c-0.191-0.415-0.3-0.68-0.327-0.794
			c-0.54,0.077-1.058,0.452-1.551,1.124c-0.495,0.674-0.94,1.008-1.337,1.001c-0.229-0.004-0.482-0.067-0.764-0.184
			c-0.372,0.249-0.855,0.354-1.452,0.316c-0.538-0.095-1.062-0.174-1.572-0.24c-0.016-0.708-0.714-1.332-2.095-1.868
			c0.004-0.283-0.138-0.705-0.427-1.262c-0.289-0.56-0.432-0.951-0.427-1.179c0.003-0.257,0.107-0.467,0.31-0.634
			c-0.028-0.086-0.261-0.615-0.698-1.589c-0.3-0.713-0.445-1.329-0.436-1.837c0.005-0.398,0.098-0.767,0.273-1.104
			c-0.242-2.42-0.35-4.492-0.319-6.225c0.044-2.67,0.427-5.119,1.146-7.353c-0.052-0.34-0.074-0.681-0.069-1.022
			c0.03-1.789,0.649-3.026,1.851-3.717l0.01-0.554c1.189-1.514,2.754-2.609,4.696-3.287c1.158,0.275,2.317,0.538,3.477,0.785
			c1.299,0.447,2.194,1.215,2.687,2.303c0.393,0.234,0.584,0.707,0.571,1.415c-0.013,0.795,0.078,1.309,0.272,1.539l-0.217,0.252
			c0.227,1.679,0.337,2.704,0.331,3.072c-0.019,1.08-0.303,1.842-0.849,2.287c-0.198-0.004-0.721-0.182-1.565-0.536
			c-0.202,0.193-0.417,0.29-0.643,0.286c-0.114-0.001-0.32-0.062-0.616-0.182c-0.295-0.118-0.544-0.18-0.741-0.183
			c-0.143-0.001-0.287,0.024-0.429,0.079c-0.017-2.244,0.055-3.919,0.213-5.025c-0.224-0.146-0.451-0.477-0.684-0.991
			c-0.233-0.515-0.534-0.804-0.9-0.867c-0.23,0.281-0.335,0.462-0.308,0.549l-0.762-0.268c-0.693,0.755-1.155,2.067-1.385,3.937
			c-0.236,2.153-0.529,3.584-0.882,4.287c0.305,0.319,0.455,0.762,0.444,1.329c-0.003,0.2-0.036,0.526-0.103,0.979
			c-0.064,0.454-0.098,0.794-0.101,1.021c-0.006,0.255,0.017,0.484,0.072,0.682l-0.519,0.502c0.211,0.969,0.332,2.194,0.364,3.671
			c-0.021,1.25-0.03,2.499-0.021,3.748c-0.031,0-0.271,0.01-0.726,0.03c-0.283-0.004-0.484,0.092-0.601,0.289
			c0.172-0.025,0.327-0.038,0.468-0.035c0.625,0.01,1.114,0.451,1.469,1.323c0.353,0.875,0.658,1.312,0.913,1.317
			c0.283,0.003,0.672-0.258,1.165-0.791c0.836-0.895,1.269-2.123,1.296-3.683c0.013-0.769-0.073-1.592-0.257-2.476
			c-0.202,0.111-0.304,0.392-0.312,0.845c-0.454-0.007-0.739,0.087-0.857,0.283c-0.196-0.06-0.28-0.217-0.247-0.472
			c0.034-0.368,0.052-0.566,0.054-0.595c0.343-0.108,0.513-0.262,0.518-0.459c0.001-0.085-0.061-0.244-0.184-0.473
			c-0.123-0.229-0.184-0.414-0.183-0.556c0.004-0.114,0.033-0.227,0.092-0.341l0.198-1.658c0.622,0.182,1.967,0.26,4.04,0.24
			c-0.06,0.141,0.023,0.329,0.247,0.557c0.201-0.195,0.414-0.291,0.643-0.287c0.171,0.004,0.424,0.079,0.763,0.227
			C469.438,90.175,469.679,90.249,469.821,90.25"></path>
		<path clip-path="url(#SVGID_6_)" d="M485.706,104.92c-0.396-0.177-0.818-0.27-1.273-0.278c-0.396-0.006-0.938,0.07-1.621,0.229
			c-0.77,0.157-1.295,0.247-1.579,0.271c-0.304-0.601-0.515-1.43-0.64-2.483c-0.229-1.537-0.373-2.404-0.422-2.604
			c0.087-0.169,0.132-0.311,0.133-0.423c0.007-0.314-0.238-0.593-0.73-0.843c-0.494-0.25-0.738-0.446-0.735-0.589
			c0.002-0.168,0.291-0.42,0.864-0.753c-0.139-0.172-0.241-0.521-0.301-1.046c-0.062-0.527-0.193-0.878-0.387-1.053
			c-0.346,0.308-0.909,0.505-1.691,0.591c-0.783,0.086-1.303,0.212-1.559,0.376c0.017,2.217-0.349,3.702-1.099,4.455
			c-0.396-0.092-0.698,0.059-0.902,0.454c-0.292,0.477-0.538,0.758-0.738,0.839l0.25,0.303c-0.229,0.194-0.6,0.275-1.109,0.237
			c-0.796-0.043-1.219-0.063-1.275-0.063l-0.242-0.771l2.772-23c0.024-1.448,0.098-2.427,0.22-2.936
			c-0.036-1.279,0.263-2.069,0.891-2.37c0.393,0.261,0.889,0.397,1.485,0.408c0.48,0.007,1.235-0.093,2.26-0.303
			c1.027-0.209,1.736-0.311,2.135-0.305c1.389,0.023,1.996,1.028,1.822,3.013c-0.141,1.588,0.106,3.68,0.744,6.277
			c0.662,2.793,0.982,4.886,0.958,6.278c-0.008,0.426,0.132,1.308,0.098,1.734c-0.602,0.329-1.371,0.529-2.31,0.598
			c-0.823,0.043-1.661,0.086-2.514,0.128c-0.22-2.161-0.599-4.767-0.819-6.901c-0.269-2.56-0.603-4.667-0.998-6.32l-1.314,12.16
			c-0.102,1.049,0.372,1.583,1.422,1.602c0.34,0.004,0.665-0.076,0.981-0.239c0.258-0.081,0.609,0.11,1.056,0.57
			c-0.017,0.882,0.159,1.409,0.525,1.586c0.46-0.306,1.061-0.593,1.804-0.864c0.656-0.244,1.299-0.474,1.928-0.692
			c0.358,0.489,0.59,1.217,0.687,2.184c0.118,1.366,0.203,2.162,0.257,2.39c0.047,0.542,0.269,1.71,0.665,3.506
			c0.287,1.424,0.425,2.577,0.409,3.458C485.804,104.155,485.77,104.552,485.706,104.92"></path>
		<path clip-path="url(#SVGID_6_)" d="M505.308,84.635c-0.032,0.084-0.038,0.581-0.026,1.49c-0.012,0.738-0.107,1.292-0.282,1.658
			c-0.21,0.564-0.322,1.371-0.34,2.42c-0.006,0.229,0.003,0.583,0.022,1.067c-0.008,0.482-0.013,0.836-0.017,1.063
			c-0.029,1.79-0.336,3.089-0.919,3.904c0.05,0.457,0.07,0.911,0.063,1.364c-0.024,1.42-0.511,3.33-1.459,5.727
			c-0.258,0.082-0.472,0.12-0.642,0.117c-0.341-0.005-0.585-0.202-0.735-0.586c-0.15-0.386-0.292-0.751-0.426-1.095
			c0.091-2.184,0.046-5.366-0.138-9.545l0.259-0.25c-0.187-0.741-0.271-1.566-0.256-2.475c0.011-0.653,0.092-1.603,0.239-2.85
			c0.15-1.246,0.229-2.184,0.239-2.809c0.01-0.397-0.001-0.781-0.021-1.15c-0.977,2.341-1.669,6.305-2.076,11.893l-0.354,0.844
			c-0.119,0.284-0.361,0.435-0.729,0.457c-0.112-0.199-0.224-0.302-0.336-0.304c-0.086,0-0.237,0.103-0.451,0.312
			c-0.219,0.209-0.397,0.297-0.538,0.267l-0.563,0.501c0.251,0.318,0.789,0.354,1.616,0.114c0.655-0.188,0.991,0.058,1.011,0.741
			c0.018,0.568-0.139,1.333-0.466,2.293c-0.329,0.958-0.496,1.681-0.504,2.163c-0.006,0.34,0.029,0.682,0.109,1.024l-2.946,0.462
			c-0.272-0.575-0.476-1.535-0.609-2.887c-0.133-1.352-0.338-2.313-0.611-2.885c0.174-0.196,0.262-0.406,0.266-0.635
			c0.003-0.198-0.075-0.498-0.238-0.898c-0.166-0.4-0.261-0.701-0.284-0.9c-0.024-0.312-0.124-1.067-0.304-2.262
			c-0.125-0.969-0.184-1.724-0.175-2.262c0.006-0.284,0.025-0.539,0.059-0.765c0.002-0.2-0.108-0.492-0.327-0.881
			c-0.222-0.387-0.329-0.665-0.325-0.837c0.002-0.14,0.06-0.267,0.176-0.377c-0.195-0.233-0.272-0.631-0.234-1.199
			c0.036-0.567-0.042-0.966-0.235-1.196c-0.418,1.1-0.64,2.586-0.673,4.462c-0.016,2.611-0.042,4.118-0.076,4.512l0.293,0.262
			l-0.301,0.249c0.209,1.027,0.301,2.335,0.272,3.925c-0.076,2.867-0.113,4.201-0.109,4.003c-0.403,0.361-0.961,0.537-1.669,0.524
			c-0.879-0.015-1.477,0.062-1.792,0.225c-0.359-0.63-0.53-1.442-0.511-2.437c0.01-0.766,0.143-1.7,0.387-2.805
			c-0.386-0.717-0.566-1.714-0.545-2.991c0.006-0.314,0.042-0.909,0.114-1.788c0.041-0.708,0.05-1.234,0.029-1.576
			c0.285-0.136,0.429-0.29,0.432-0.46c0.003-0.114-0.087-0.307-0.267-0.581c-0.181-0.271-0.27-0.48-0.267-0.622
			c0.003-0.17,0.12-0.338,0.349-0.506l-0.916-13.775c0.547-0.359,1.43-0.53,2.649-0.508c1.332,0.052,2.241-0.019,2.728-0.208
			c0.087-0.057,0.185-0.083,0.3-0.082c0.113,0.001,0.247,0.07,0.401,0.198c0.154,0.131,0.259,0.195,0.314,0.197
			c0.113,0.002,0.215-0.081,0.303-0.25l0.796,0.781c0.267,0.999,0.518,2.934,0.753,5.805c0.24,2.476,0.621,4.344,1.141,5.602
			c0.695-2.515,1.269-4.622,1.725-6.318l0.923-6.741l6.599-0.144c0.023,0.369,0.104,2.343,0.283,3.483
			c0.152,0.995,0.226,1.806,0.214,2.431c-0.011,0.71-0.122,1.346-0.33,1.911c0.223,0.317,0.328,0.714,0.319,1.198
			C505.66,83.931,505.538,84.325,505.308,84.635"></path>
		<path clip-path="url(#SVGID_6_)" d="M518.846,99.562l0.002-0.043c-0.178,0.367-0.284,0.791-0.321,1.272
			c-0.033,0.312-0.041,0.752-0.021,1.32c0.018,0.653,0.023,1.109,0.02,1.362c-0.228-0.002-1.136-0.018-2.725-0.044
			c-0.964-0.017-1.832,0.067-2.601,0.253l-0.795-0.866c-0.23,0.222-0.318,0.406-0.264,0.55c-0.142-0.034-0.796-0.042-1.957-0.035
			c-0.909-0.016-1.589-0.113-2.039-0.291c-0.463,0.477-1.002,0.468-1.619-0.026c-0.224-0.173-0.245-0.466-0.069-0.875
			c0.178-0.409,0.126-0.714-0.154-0.918c0.043-0.907,0.167-2.311,0.37-4.211c0.199-1.699,0.305-3.034,0.322-3.999
			c0.022-1.306-0.068-2.557-0.275-3.752c0.317-0.308,0.673-0.459,1.07-0.451c0.455,0.007,0.989,0.23,1.606,0.665
			c0.868,0.612,1.32,0.917,1.348,0.918l0.248,0.302c0.031-0.083,0.181-0.535,0.45-1.355c0.15-0.537,0.369-0.887,0.658-1.053
			l0.251,0.261c0.113-0.055,0.486-0.319,1.12-0.791c0.485-0.332,0.885-1.121,1.167-1.116c0.312,0.005,0.606,0.182,0.886,0.527
			c0.479,0.264,0.778,1.284,0.927,1.812c0.146,0.526,0.287,1.047,0.421,1.562c-1.278,0.035-2.328,0.001-3.148-0.096
			c-0.205,0.309-0.489,0.352-0.854,0.134c-0.365-0.219-0.634-0.188-0.811,0.093c-0.009,0.512-0.024,1.434-0.047,2.767
			c-0.05,1.194-0.064,2.129-0.047,2.813c0.01,1.05,0.08,2.017,0.206,2.899c0.226,0.004,1.304,0.022,3.232,0.054
			C516.737,99.229,517.884,99.346,518.846,99.562 M518.938,79.158c-0.256,0.022-0.54,0.033-0.854,0.028
			c-0.65-0.011-1.516-0.112-2.59-0.3c-1.333-0.193-2.141-0.305-2.423-0.338c-0.406,0.586-0.618,1.423-0.638,2.502
			c-0.039,2.328-0.043,3.336-0.009,3.024c0.393,0.233,0.585,0.663,0.573,1.288c-0.042,0.851-0.049,1.292-0.021,1.32
			c-0.2,0.083-0.304,0.363-0.312,0.847c-0.312-0.12-0.632-0.353-0.967-0.698c-0.448-0.434-0.686,1.038-0.651,0.669l-0.27,0.875
			l-0.252-0.261c-0.229,0.023-0.616-0.096-1.164-0.361c-0.55-0.264-0.935-0.51-1.158-0.745c0.008-0.454,0.084-0.708,0.225-0.763
			l-0.542-0.604l-0.262,0.379c-0.317-2.959-0.239-8.493,0.154-11.61c1.075,0.189,2.266,0.309,3.569,0.359
			c0.88,0.042,2.112,0.063,3.702,0.062c1.816,0.002,3.124,0.01,3.917,0.023c0.335,0.32,0.498,0.734,0.49,1.244
			c-0.006,0.315-0.093,0.815-0.261,1.509C519.028,78.301,518.942,78.816,518.938,79.158"></path>
		<path clip-path="url(#SVGID_6_)" d="M471.102,125.316l-0.002-0.02c0.002,0.013-0.072,0.639-0.22,1.876
			c-0.073,0.762-0.257,1.359-0.55,1.796l-0.185-0.152c-0.345,0.723-0.812,1.162-1.408,1.32c-0.283,0.299-0.695,0.465-1.23,0.496
			c-0.318,0.02-1.053-0.074-2.206-0.277c-0.556-0.346-0.86-0.536-0.914-0.575c-0.35-0.264-0.517-0.531-0.499-0.802
			c-0.339-0.346-0.815-0.963-0.994-1.735c-0.216-0.853-0.349-0.901-0.551-1.2c-0.321,0.236-0.437-0.267-0.622-0.568l0.168-0.131
			c-0.104-0.076-0.159-0.159-0.165-0.253c-0.004-0.067,0.023-0.166,0.084-0.298c0.06-0.132,0.088-0.233,0.082-0.299
			c-0.005-0.106-0.069-0.198-0.191-0.273c0.13-0.669,0.247-1.675,0.354-3.02c0.229-0.121,0.337-0.357,0.325-0.708
			c-0.013-0.349,0.035-0.582,0.146-0.697c0.542-1.086,1.422-1.818,2.643-2.201c0.066,0.009,0.394,0.004,0.979-0.016
			c0.403-0.01,0.707,0.025,0.912,0.108c0.366-0.062,0.733,0.026,1.097,0.262c0.317,0.238,0.634,0.477,0.949,0.714
			c0.59,0.642,0.91,1.366,0.957,2.174c0.016,0.269-0.003,0.554-0.052,0.853c-0.437-0.015-0.747,0.274-0.932,0.866l-1.701,0.159
			c-0.183-0.259-0.289-0.605-0.312-1.036c-0.009-0.148-0.007-0.365,0-0.649c0.009-0.284,0.01-0.5,0-0.647
			c-0.025-0.445-0.13-0.797-0.312-1.057l-0.512,0.292c-0.206-0.082-0.313-0.204-0.322-0.366c-0.004-0.054,0.005-0.132,0.024-0.234
			c0.019-0.103,0.027-0.174,0.024-0.214c-0.011-0.174-0.167-0.28-0.472-0.318c-0.207,1.918-0.27,3.888-0.186,5.909
			c0.054,0.064,0.216,0.11,0.486,0.135c0.219,0.027,0.332,0.095,0.338,0.203c0.002,0.041-0.01,0.095-0.04,0.164l-0.169,0.132
			c0.091,0.144,0.146,0.344,0.161,0.599c0.008,0.135,0.002,0.342-0.015,0.619c-0.017,0.279-0.023,0.485-0.015,0.619
			c0.024,0.404,0.125,0.71,0.307,0.916c-0.019,0.297,0.104,0.501,0.36,0.608c0.165-0.065,0.312-0.1,0.447-0.107
			c0.519-0.031,0.879,0.251,1.08,0.85c0.001,0.013-0.001,0.115-0.007,0.304c0.006,0.107,0.061,0.177,0.163,0.211
			c0.228-0.133,0.34-0.377,0.336-0.727c-0.006-0.405,0.046-0.666,0.157-0.781c-0.028-0.186-0.141-0.456-0.337-0.81
			c-0.198-0.354-0.302-0.63-0.313-0.833c-0.013-0.215,0.051-0.421,0.19-0.619c-0.119-0.034-0.174-0.111-0.165-0.232
			c0.006-0.191,0.009-0.292,0.009-0.306C469.209,125.108,470.148,125.101,471.102,125.316"></path>
		<path clip-path="url(#SVGID_6_)" d="M478.803,126.897l-0.021,0c-0.1,0.194-0.129,0.474-0.094,0.834
			c0.045,0.515,0.069,0.775,0.07,0.789c-0.076,0.029-0.181-0.009-0.312-0.114c-0.197,0.075-0.292,0.199-0.281,0.375
			c0.001,0.025,0.012,0.069,0.03,0.13c0.005,0.075,0.009,0.125,0.011,0.151c0.007,0.137-0.033,0.24-0.124,0.309
			c-0.226-0.125-0.522-0.205-0.891-0.24c-0.37-0.037-0.719-0.069-1.049-0.099c-0.005-1.709-0.234-3.381-0.688-5.013
			c0,0.013-0.009-0.156-0.029-0.507c0.001-0.25-0.055-0.429-0.171-0.536l-0.157,0.141c-0.001-0.026,0.05-0.075,0.156-0.15
			c0.105-0.074,0.155-0.151,0.151-0.225c-0.004-0.038-0.014-0.074-0.031-0.111l-0.171-0.122c-0.291,0.092-0.425,0.326-0.403,0.702
			c0.016,0.25-0.086,0.427-0.298,0.527c0.082,0.058,0.125,0.13,0.13,0.219c0.004,0.05-0.003,0.12-0.022,0.208
			c-0.019,0.09-0.025,0.159-0.023,0.209c0.008,0.112,0.067,0.203,0.181,0.272c0.003,0.076,0.043,0.752,0.115,2.03
			c0.051,0.814,0.026,1.506-0.064,2.077l0.018,0.319c-0.109-0.006-0.234-0.005-0.374,0.002c-0.156,0.009-0.382,0.032-0.676,0.068
			c-0.294,0.037-0.512,0.059-0.651,0.066c-0.575,0.033-0.979-0.064-1.212-0.29l-0.241-7.015c-0.113-0.346-0.188-0.825-0.224-1.439
			l-0.078-1.353c-0.055-0.663-0.139-1.174-0.253-1.531c0.047-0.242,0.259-0.374,0.634-0.395c0.231-0.014,0.545,0.018,0.939,0.095
			c0.183-0.086,0.437-0.138,0.765-0.158c0.094-0.005,0.239-0.008,0.444-0.006c0.217-0.012,0.372-0.022,0.466-0.027
			c0.606-0.036,1.01-0.222,1.209-0.561c0.281-0.003,0.586,0.085,0.916,0.266c0.329,0.183,0.621,0.28,0.871,0.289
			c0.663,0.39,1.019,1.035,1.074,1.936c0.01,0.201-0.068,0.998-0.237,2.39l-1.138,0.99c0.192,0.354,0.426,1.125,0.697,2.315
			C477.994,125.707,478.341,126.434,478.803,126.897 M476.703,118.914l0.021,0.017c0.021,0.086,0.012-0.22-0.029-0.922
			c-0.02-0.338-0.143-0.581-0.369-0.732c-0.13,0.184,0.017,0.269-0.044,0.694c-0.062,0.424-0.312,0.305-0.458,0.49
			c-0.392-0.002-0.48,0.233-0.564-0.139c-0.175-0.606-0.326-0.553-0.327-0.563l-0.165,0.099c-0.059,0.054-0.127,0.114-0.2,0.181
			c-0.073,0.068-0.15,0.092-0.229,0.07c0.004,0.076-0.033,0.195-0.108,0.356c-0.078,0.162-0.114,0.273-0.11,0.335
			c0.008,0.114,0.097,0.195,0.271,0.248c-0.03,0.254-0.038,0.519-0.021,0.794c0.007,0.149,0.044,0.494,0.105,1.03
			c0.07,0.423,0.1,0.786,0.086,1.087c0.142,0.006,0.274,0.005,0.399-0.004c0.545-0.032,0.898-0.247,1.061-0.645
			c0.056-0.117,0.118-0.536,0.186-1.255C476.269,119.51,476.434,119.13,476.703,118.914"></path>
		<path clip-path="url(#SVGID_6_)" d="M487.641,129.623c-0.224-0.064-0.459-0.087-0.708-0.073c-0.218,0.012-0.511,0.067-0.88,0.163
			c-0.416,0.1-0.701,0.16-0.855,0.182c-0.188-0.253-0.332-0.607-0.437-1.067c-0.18-0.668-0.288-1.045-0.322-1.132
			c0.042-0.078,0.061-0.142,0.059-0.192c-0.009-0.137-0.151-0.251-0.43-0.342c-0.279-0.09-0.421-0.168-0.424-0.231
			c-0.002-0.074,0.145-0.196,0.448-0.364c-0.083-0.071-0.15-0.22-0.201-0.451c-0.053-0.229-0.136-0.378-0.249-0.448
			c-0.18,0.15-0.48,0.258-0.906,0.326c-0.424,0.068-0.705,0.146-0.841,0.229c0.087,0.974,0,2.687-0.385,3.049
			c-0.221-0.026-0.379,0.052-0.479,0.234c-0.144,0.221-0.269,0.356-0.376,0.399l0.147,0.122c-0.119,0.096-0.318,0.145-0.599,0.149
			c-0.438,0.013-0.669,0.02-0.701,0.021l-0.158-0.331l0.654-11.284c-0.036-0.638-0.031-1.072,0.02-1.3
			c-0.065-0.562,0.071-0.922,0.404-1.08c0.225,0.1,0.499,0.14,0.827,0.121c0.263-0.016,0.673-0.088,1.229-0.222
			c0.553-0.131,0.938-0.205,1.155-0.218c0.765-0.043,1.131,0.375,1.104,1.255c-0.022,0.706,0.187,1.617,0.626,2.735
			c0.46,1.205,0.708,2.115,0.744,2.728c0.011,0.188,0.261,0.587,0.255,0.775c-0.317,0.169-0.732,0.288-1.242,0.355
			c-0.451,0.052-0.907,0.104-1.374,0.155c-0.192-0.945-0.635-2.091-0.829-3.023c-0.236-1.117-0.494-2.031-0.769-2.745l-0.295,5.409
			c-0.019,0.465,0.26,0.681,0.834,0.647c0.186-0.009,0.363-0.058,0.531-0.143c0.139-0.045,0.336,0.025,0.596,0.21
			c0.023,0.389,0.138,0.615,0.345,0.677c0.24-0.151,0.56-0.301,0.956-0.451c0.352-0.133,0.695-0.26,1.032-0.38
			c0.213,0.201,0.363,0.513,0.452,0.936c0.111,0.596,0.187,0.943,0.225,1.041c0.045,0.236,0.206,0.743,0.485,1.519
			c0.207,0.616,0.322,1.118,0.346,1.507C487.667,129.28,487.659,129.457,487.641,129.623"></path>
		<path clip-path="url(#SVGID_6_)" d="M494.082,116.824l0.024,0c-0.187,0.275-0.425,0.327-0.716,0.155
			c-0.063-0.01-0.344,0.007-0.841,0.047c-0.419,0.025-0.724,0.005-0.916-0.06c-0.046,0.004-0.139,0.05-0.273,0.139
			c-0.135,0.09-0.234,0.137-0.297,0.14c-0.091,0.006-0.145-0.073-0.151-0.236c-0.002-0.025-0.009-0.131-0.021-0.32
			c-0.007-0.125-0.067-0.209-0.179-0.253l-0.29,0.224c-0.091,0.069-0.134,0.14-0.128,0.215c0.003,0.062,0.055,0.15,0.155,0.264
			c0.1,0.115,0.158,0.195,0.178,0.244c0.004,0.038,0.034,0.603,0.098,1.692c0.024,0.689,0.15,1.24,0.376,1.655
			c0.059-0.066,0.201-0.102,0.429-0.11c0.225-0.006,0.375-0.057,0.446-0.148c0.148,0.13,0.395,0.138,0.74,0.023
			c0.344-0.114,0.592-0.075,0.744,0.117l-0.044,1.661c-0.142-0.016-0.349-0.085-0.621-0.208c-0.079,0.243-0.235,0.396-0.466,0.459
			c-0.092,0.033-0.354,0.058-0.791,0.084c0.012-0.077-0.055-0.153-0.202-0.233c-0.422,0.201-0.583,0.682-0.477,1.441
			c0.011-0.076,0.027,0.054,0.047,0.394c0.012,0.212-0.032,0.366-0.137,0.459c-0.265,0.041-0.6-0.019-1.005-0.176
			c-0.407-0.16-0.697-0.234-0.868-0.223c-0.078,0.004-0.148,0.016-0.209,0.031l-0.438,0.139l-0.697-7.593l-0.083-1.445
			c0.58-0.196,1.3-0.321,2.155-0.371c0.669-0.038,1.542-0.033,2.622,0.018c0.068-0.143,0.197,0.044,0.354,0.034
			c0.077-0.004,0.195,0.004,0.353,0.027c0.156,0.021,0.273,0.031,0.353,0.027c0.095-0.007,0.179-0.023,0.255-0.054l0.11-0.12
			c0.317,0.095,0.484,0.262,0.495,0.499c0.006,0.101-0.022,0.271-0.086,0.515c-0.063,0.242-0.092,0.425-0.086,0.551
			C494.003,116.641,494.032,116.74,494.082,116.824 M491.354,129.493c-0.168,0.086-0.423,0.137-0.764,0.158
			c-0.451,0.026-0.723,0.048-0.815,0.066c-0.05-0.047-0.109-0.008-0.211-0.405c-0.062-0.259-0.226-0.383-0.489-0.366
			c-0.063,0.004-0.14,0.014-0.232,0.032l-0.421,0.024l-0.223-3.843c0.228-0.113,0.513-0.181,0.854-0.201
			c0.328-0.019,0.618,0.015,0.873,0.1c-0.008,0.139,0.191,0.198,0.594,0.173l0.444-0.026
			C491.229,126.284,491.39,128.234,491.354,129.493"></path>
		<path clip-path="url(#SVGID_6_)" d="M503.414,117.152l0.024,0.018c-0.219-0.013-0.924,0.034-1.466,0.103
			c-0.466,0.054-0.816,0.062-1.053,0.025c-0.226,0.15-0.307,0.356-0.244,0.617l0.144,0.085c-0.117,0.108-0.159,0.192-0.125,0.253
			l0.125,0.125c-0.028,2.226-0.033,3.457-0.02,3.696c0.032,0.588,0.103,1.105,0.206,1.553c-0.093,0.282-0.129,0.604-0.107,0.967
			c0.015,0.237,0.071,0.614,0.17,1.13c0.101,0.515,0.234,2.209,0.251,2.472c0.012,0.199,0.006,0.389-0.016,0.566
			c-0.214,0.089-0.444,0.139-0.693,0.154c-0.42,0.024-0.869-0.062-1.349-0.259c-0.061,0.053-0.126,0.109-0.201,0.171
			c-0.074,0.061-0.094,0.128-0.059,0.201c-0.153,0.046-0.368-0.016-0.643-0.188c-0.147-2.255-0.551-6.847-1.148-11.488
			c-0.209,0.188-0.593,0.031-0.997,0.079c-0.481,0.053-0.951-0.021-1.135,0.066c-0.232-0.251-0.182-0.323-0.206-0.735
			c-0.023-0.401-0.152-1.39-0.049-1.803c0.021-0.087,0.893-0.038,1.404-0.079c0.699-0.042,0.854,0.125,0.899,0.121
			c0.058-0.092,0.4-0.045,0.647-0.06c0.161,0.08,0.334-0.072,0.342,0.042c0.005,0.074,0,0.549-0.054,0.685
			c-0.055,0.134-0.081,0.233-0.077,0.297c0.009,0.148,0.116-0.071,0.372,0.015c0.279-0.004,0.567-0.013,0.863-0.03
			c0.329,0.03,0.708-0.09,0.678,0.189c0.057-0.08,0.094,0.061,0.566-0.13c0.35-0.158,0.562-0.571,0.493-0.853
			c-0.037-0.155,0.173-0.254,0.042-0.182c0.168-0.092,0.016-0.029,0.198-0.101c0.583,0.053,0.906-0.006,1.015-0.014
			c0.235-0.015,0.812,0.137,0.979,0.052c0.121,0.219,0.183,0.905,0.188,1.281C503.401,116.794,503.41,117.115,503.414,117.152"></path>
		<path clip-path="url(#SVGID_6_)" d="M510.976,124.993l-0.003-0.019c-0.084,0.169-0.127,0.361-0.13,0.574
			c-0.009,0.14,0.003,0.333,0.033,0.583c0.032,0.287,0.052,0.488,0.059,0.6c-0.126,0.006-0.623,0.036-1.493,0.087
			c-0.529,0.03-1.001,0.102-1.416,0.214l-0.464-0.351c-0.119,0.109-0.16,0.194-0.127,0.253c-0.078-0.007-0.437,0.013-1.072,0.063
			c-0.499,0.029-0.874,0.013-1.128-0.048c-0.235,0.227-0.531,0.246-0.887,0.051c-0.128-0.067-0.15-0.195-0.067-0.381
			c0.082-0.188,0.043-0.321-0.119-0.4c-0.005-0.4,0.012-1.024,0.058-1.87c0.05-0.755,0.062-1.347,0.037-1.773
			c-0.034-0.577-0.129-1.123-0.281-1.643c0.161-0.148,0.352-0.227,0.568-0.24c0.249-0.015,0.55,0.063,0.906,0.231
			c0.496,0.233,0.751,0.352,0.768,0.352l0.147,0.122c0.015-0.039,0.078-0.245,0.199-0.615c0.062-0.243,0.171-0.406,0.322-0.49
			l0.145,0.104c0.063-0.027,0.259-0.158,0.588-0.392c0.255-0.166,0.431-0.775,0.587-0.784c0.17-0.01,0.339,0.056,0.503,0.197
			c0.271,0.098,0.486,0.782,0.585,1.008c0.099,0.227,0.193,0.45,0.285,0.671c-0.7,0.067-1.275,0.093-1.728,0.082
			c-0.101,0.145-0.257,0.175-0.462,0.092c-0.208-0.081-0.356-0.057-0.442,0.075c0.013,0.226,0.038,0.632,0.071,1.221
			c0.015,0.526,0.039,0.938,0.071,1.24c0.042,0.463,0.115,0.885,0.215,1.269c0.125-0.007,0.716-0.041,1.773-0.102
			C509.808,124.93,510.439,124.937,510.976,124.993 M510.253,116.154c-0.14,0.022-0.296,0.037-0.468,0.047
			c-0.357,0.02-0.832,0.009-1.429-0.031c-0.735-0.033-1.182-0.051-1.339-0.054c-0.2,0.275-0.229,0.498-0.2,0.975
			c0.059,1.026,0.094,1.472,0.101,1.333c0.224,0.087,0.344,0.27,0.359,0.545c0.006,0.375,0.018,0.569,0.034,0.582
			c-0.106,0.044-0.154,0.171-0.142,0.385c-0.174-0.039-0.36-0.13-0.554-0.27c-0.262-0.173-0.343,0.441-0.336,0.277l-0.118,0.382
			l-0.146-0.104c-0.125,0.019-0.342-0.018-0.65-0.114c-0.311-0.094-0.532-0.189-0.661-0.282c-0.012-0.2,0.019-0.316,0.098-0.345
			l-0.319-0.245l-0.13,0.176c-0.278-1.289-0.464-3.565-0.356-4.952c0.596,0.04,1.291-0.064,2.007-0.093
			c0.481-0.015,1.16-0.054,2.03-0.117c0.994-0.069,1.708-0.117,2.144-0.143c0.193,0.127,0.301,0.303,0.312,0.528
			c0.008,0.138-0.022,0.362-0.091,0.674C510.331,115.621,510.243,116.004,510.253,116.154"></path>
		<path clip-path="url(#SVGID_6_)" d="M518.736,123.658l-0.022,0.003c-0.099,0.193-0.13,0.472-0.093,0.833
			c0.045,0.513,0.068,0.775,0.068,0.788c-0.077,0.03-0.18-0.007-0.311-0.114c-0.199,0.074-0.292,0.199-0.283,0.374
			c0.002,0.025,0.013,0.068,0.03,0.131c0.005,0.075,0.009,0.126,0.01,0.149c0.01,0.139-0.031,0.242-0.122,0.31
			c-0.227-0.126-0.524-0.206-0.893-0.241c-0.368-0.035-0.718-0.069-1.047-0.1c-0.007-1.707-0.236-3.377-0.688-5.01
			c0,0.012-0.011-0.157-0.03-0.509c0.001-0.25-0.056-0.429-0.171-0.536l-0.155,0.141c-0.002-0.023,0.049-0.075,0.155-0.15
			c0.104-0.076,0.155-0.151,0.15-0.225c-0.004-0.038-0.013-0.077-0.031-0.112l-0.17-0.123c-0.291,0.094-0.426,0.328-0.403,0.703
			c0.014,0.251-0.086,0.427-0.299,0.526c0.081,0.058,0.126,0.132,0.132,0.219c0.002,0.049-0.008,0.119-0.023,0.208
			c-0.019,0.089-0.027,0.159-0.024,0.209c0.007,0.113,0.066,0.204,0.18,0.273c0.005,0.074,0.044,0.75,0.117,2.028
			c0.049,0.814,0.025,1.508-0.065,2.078l0.019,0.32c-0.11-0.007-0.235-0.007-0.374,0.002c-0.157,0.009-0.382,0.032-0.676,0.067
			c-0.295,0.035-0.511,0.058-0.651,0.066c-0.575,0.033-0.979-0.063-1.21-0.289l-0.244-7.017c-0.112-0.346-0.188-0.825-0.225-1.438
			l-0.079-1.352c-0.054-0.663-0.136-1.174-0.251-1.531c0.048-0.242,0.261-0.373,0.633-0.396c0.234-0.014,0.547,0.02,0.942,0.095
			c0.182-0.085,0.436-0.139,0.761-0.157c0.096-0.005,0.242-0.007,0.446-0.007c0.217-0.012,0.374-0.022,0.466-0.028
			c0.607-0.035,1.01-0.221,1.209-0.559c0.28-0.004,0.586,0.085,0.915,0.267c0.332,0.182,0.622,0.278,0.875,0.289
			c0.66,0.39,1.017,1.035,1.07,1.937c0.012,0.2-0.067,0.997-0.237,2.39l-1.137,0.988c0.193,0.354,0.425,1.125,0.698,2.316
			C517.925,122.469,518.271,123.196,518.736,123.658 M516.634,115.675l0.025,0.019c0.02,0.087,0.009-0.221-0.03-0.922
			c-0.021-0.338-0.145-0.583-0.371-0.732c-0.129,0.183-0.153-0.244-0.214,0.181c-0.062,0.426-0.165,0.729-0.308,0.914
			c-0.393-0.003-0.482-0.236-0.714-0.562c-0.146-0.208-0.217-0.027-0.217-0.04l-0.105,0.085c-0.06,0.055-0.126,0.115-0.201,0.182
			c-0.073,0.067-0.151,0.09-0.229,0.07c0.005,0.075-0.031,0.194-0.109,0.355c-0.074,0.162-0.111,0.274-0.109,0.335
			c0.009,0.113,0.098,0.196,0.274,0.25c-0.034,0.253-0.041,0.517-0.025,0.793c0.011,0.15,0.043,0.493,0.106,1.031
			c0.071,0.423,0.102,0.784,0.087,1.087c0.142,0.004,0.272,0.003,0.399-0.003c0.543-0.033,0.896-0.248,1.061-0.646
			c0.054-0.118,0.117-0.536,0.185-1.256C516.2,116.272,516.366,115.894,516.634,115.675"></path>
		<path clip-path="url(#SVGID_6_)" d="M441.367,91.296l0.001,0.018c-0.069,0.649-0.094,1.1-0.069,1.351
			c-0.1,0.038-0.229,0.045-0.391,0.019c-0.206-0.035-0.325-0.052-0.36-0.049c-0.09,0.004-0.162,0.036-0.216,0.096
			c-0.129-0.083-0.215-0.12-0.262-0.107c-0.12,0.075-0.178,0.18-0.173,0.315c0.006,0.058,0.026,0.156,0.067,0.295
			c0.042,0.144,0.064,0.245,0.066,0.313c0.005,0.09-0.013,0.234-0.054,0.429c-0.041,0.195-0.06,0.355-0.054,0.48
			c0.009,0.146,0.04,0.379,0.097,0.694c0.056,0.314,0.085,0.553,0.096,0.71c-0.065,0.312-0.09,0.625-0.074,0.942
			c0.02,0.386,0.126,0.903,0.317,1.554c0.034,0.009,0.069,0.013,0.103,0.01c0.078-0.004,0.174-0.061,0.282-0.167
			c0.108-0.107,0.2-0.163,0.281-0.167c0.057-0.002,0.119,0.01,0.188,0.041c0.203,0.661,0.31,1.087,0.32,1.28
			c0.005,0.091,0.003,0.187-0.002,0.289c-0.305,0.073-0.521-0.03-0.646-0.307c0.018-0.081-0.026-0.165-0.134-0.25l-0.339,0.358
			c0.333,0.052,0.463,0.307,0.396,0.765c-0.028,0.093-0.1,0.142-0.213,0.146c-0.194-0.001-0.283-0.002-0.273-0.002l-0.28-0.497
			l-0.112,0.142c-0.092-0.234-0.2-0.349-0.323-0.343c-0.069,0.005-0.188,0.062-0.36,0.171c-0.168,0.112-0.311,0.171-0.424,0.176
			c-0.09,0.004-0.182-0.019-0.277-0.072c-0.005-0.136-0.021-0.276-0.046-0.423c-0.024-0.146-0.101-0.239-0.226-0.279
			c-0.008-0.351,0.003-1.278,0.029-2.779c0.012-1.138,0-2.058-0.037-2.76c-0.016-0.294-0.034-0.584-0.06-0.867
			c-0.061-0.087-0.12-0.131-0.177-0.128c-0.047,0.003-0.114,0.053-0.206,0.148c-0.092,0.096-0.172,0.14-0.242,0.131
			c-0.004-0.113-0.055-0.296-0.153-0.546c-0.098-0.251-0.149-0.433-0.156-0.546c-0.009-0.192,0.062-0.361,0.214-0.506l0.397,0.101
			c0.159-0.225,0.224-0.603,0.198-1.136c-0.006-0.101-0.02-0.264-0.042-0.483c-0.021-0.221-0.036-0.382-0.041-0.483
			c-0.044-0.873,0.224-1.325,0.801-1.353c0.215-0.012,0.479,0.026,0.789,0.113l0.38,0.102c0.03,0.146,0.05,0.298,0.058,0.456
			c0.011,0.217,0.002,0.532-0.028,0.947c-0.032,0.417-0.041,0.722-0.033,0.915c0.017,0.306,0.07,0.583,0.162,0.826
			c0.092-0.003,0.233-0.053,0.428-0.148s0.336-0.146,0.427-0.149C441.14,91.068,441.269,91.143,441.367,91.296 M440.185,92.515
			l-0.021-0.392l-0.123-0.112L440.185,92.515z"></path>
		<path clip-path="url(#SVGID_6_)" d="M446.041,90.071l0.018-0.002c-0.04,0.309-0.088,0.619-0.141,0.928
			c-0.061,0.356-0.161,0.633-0.298,0.834c-0.024-0.01-0.164-0.076-0.419-0.201c-0.176-0.093-0.332-0.129-0.466-0.112
			c-0.104,0.665-0.16,1.572-0.171,2.719c-0.007,1.467-0.019,2.354-0.035,2.662c-0.171-0.013-0.299,0.04-0.383,0.164
			c-0.086,0.125-0.166,0.25-0.237,0.379c-0.031,0.069-0.045,0.133-0.042,0.188c0.003,0.091,0.083,0.18,0.234,0.261
			c0.151,0.084,0.229,0.177,0.234,0.278c-0.065,0.242-0.209,0.369-0.425,0.379c-0.1,0.006-0.278-0.025-0.532-0.092
			c-0.253-0.068-0.43-0.098-0.532-0.091l-0.245-4.865c0.096-0.129,0.137-0.217,0.124-0.262l-0.141-0.096
			c0.011-0.204,0.023-1.223,0.032-3.053c0.007-1.24,0.053-2.243,0.139-3.008c-0.01,0.002,0.34-0.022,1.054-0.07
			c0.441-0.022,0.727,0.1,0.853,0.366c0.003,0.25-0.022,0.671-0.073,1.266c-0.05,0.547-0.069,0.969-0.057,1.265
			c0.021,0.362,0.077,0.688,0.17,0.979C445.086,90.37,445.532,90.096,446.041,90.071 M447.729,91.112
			c0.034,0.453,0.062,0.894,0.085,1.325c0.096,1.882,0.066,3.895-0.088,6.04c-0.164,0.145-0.416,0.178-0.755,0.097
			c-0.338-0.079-0.584-0.048-0.735,0.096c-0.195-0.251-0.309-0.706-0.341-1.363c-0.049-0.952-0.073-1.445-0.075-1.48
			c-0.041-2.385,0.192-4.311,0.697-5.78C447.104,90.2,447.509,90.554,447.729,91.112"></path>
		<path clip-path="url(#SVGID_6_)" d="M453.693,93.581c-0.073,0.152-0.104,0.313-0.095,0.483c0.007,0.17,0.015,0.333,0.023,0.494
			c-0.017,0.135-0.054,0.274-0.114,0.414c-0.104-0.028-0.189-0.042-0.257-0.039c-0.081,0.004-0.162,0.034-0.243,0.09
			c-0.082,0.056-0.147,0.085-0.192,0.086c-0.067,0.003-0.159-0.021-0.275-0.072l-0.792-1.153c0.029,0.34,0.107,0.637,0.233,0.893
			c0.062,0.131,0.126,0.265,0.19,0.399c-0.463,0.08-0.724,0.093-0.783,0.039l-0.11,0.143l-0.274-0.361
			c-0.215,0.262-0.264,0.644-0.146,1.15c0.143,0.55,0.15,0.947,0.027,1.192c0.171,0.253,0.375,0.373,0.613,0.361
			c0.104-0.004,0.191-0.044,0.267-0.116c0.108-0.278,0.221-0.556,0.333-0.834c0.164-0.338,0.349-0.513,0.551-0.522
			c0.16-0.007,0.347,0.074,0.56,0.245c0.254,0.089,0.385,0.208,0.394,0.354c0.003,0.093-0.055,0.24-0.176,0.444
			c-0.119,0.206-0.175,0.364-0.171,0.479c0.002,0.044,0.01,0.083,0.023,0.118c-0.165,0.121-0.312,0.305-0.441,0.551
			c-0.13,0.245-0.3,0.413-0.512,0.502c-0.185,0.18-0.355,0.273-0.512,0.282c-0.126,0.007-0.312-0.09-0.562-0.288
			c-0.248-0.197-0.48-0.291-0.695-0.28c-0.09-0.2-0.311-0.421-0.663-0.666c-0.354-0.242-0.572-0.505-0.653-0.785
			c0.001,0.023-0.004-0.067-0.013-0.271c-0.007-0.113-0.056-0.184-0.147-0.214l0.128-0.127c-0.171-0.001-0.26-0.099-0.27-0.292
			c-0.002-0.022-0.002-0.069-0.006-0.136c0.007-0.059,0.013-0.103,0.01-0.136c-0.006-0.137-0.052-0.231-0.133-0.285l-0.03-0.596
			c-0.015-0.306-0.078-0.523-0.188-0.654c0.111-0.721,0.224-1.444,0.336-2.165c0.183-0.839,0.457-1.269,0.82-1.287
			c0.056-0.001,0.112,0.007,0.171,0.025c0.325-0.322,0.72-0.496,1.183-0.52c0.512-0.025,1.076,0.128,1.693,0.461
			C453.279,91.778,453.577,92.645,453.693,93.581 M451.35,91.704l-0.111,0.142c-0.079,0.016-0.171-0.024-0.279-0.122l0.021,0.392
			c-0.174,0.189-0.243,0.482-0.212,0.879c0.033,0.681,0.05,1.01,0.049,0.987l0.51-0.009c0.245-0.138,0.356-0.364,0.342-0.682
			c-0.008-0.159-0.063-0.419-0.166-0.784C451.397,92.143,451.348,91.876,451.35,91.704"></path>
		<polygon clip-path="url(#SVGID_6_)" fill-rule="evenodd" clip-rule="evenodd" points="457.687,110.74 458.192,111.032 
			459.908,106.521 459.337,106.329 457.619,110.841 458.12,111.159 		"></polygon>
		<polygon clip-path="url(#SVGID_6_)" fill-rule="evenodd" clip-rule="evenodd" points="458.437,110.115 458.229,110.197 
			457.687,110.74 458.12,111.159 458.672,110.586 458.455,110.696 		"></polygon>
		<polygon clip-path="url(#SVGID_6_)" fill-rule="evenodd" clip-rule="evenodd" points="462.594,110.079 462.839,109.89 
			458.437,110.115 458.455,110.696 462.857,110.471 463.139,110.262 		"></polygon>
		<polygon clip-path="url(#SVGID_6_)" fill-rule="evenodd" clip-rule="evenodd" points="464.581,105.933 464.281,105.559 
			462.594,110.08 463.139,110.263 464.854,105.749 464.555,105.378 		"></polygon>
		<polygon clip-path="url(#SVGID_6_)" fill-rule="evenodd" clip-rule="evenodd" points="460.39,106.076 460.172,106.184 
			464.581,105.932 464.555,105.378 460.163,105.576 459.944,105.684 		"></polygon>
		<polygon clip-path="url(#SVGID_6_)" fill-rule="evenodd" clip-rule="evenodd" points="459.908,106.521 459.845,106.62 
			460.39,106.076 459.944,105.684 459.399,106.23 459.337,106.329 		"></polygon>
		<polygon clip-path="url(#SVGID_6_)" fill-rule="evenodd" clip-rule="evenodd" points="463.564,110.616 463.955,110.444 
			463.013,109.917 462.711,110.452 463.682,110.989 464.107,110.798 463.536,110.607 		"></polygon>
		<polygon clip-path="url(#SVGID_6_)" fill-rule="evenodd" clip-rule="evenodd" points="465.407,106.45 465.253,106.095 
			463.536,110.607 464.107,110.797 465.825,106.285 465.67,105.932 		"></polygon>
		<polygon clip-path="url(#SVGID_6_)" fill-rule="evenodd" clip-rule="evenodd" points="464.854,105.75 464.428,105.941 
			465.408,106.45 465.67,105.933 464.727,105.406 464.281,105.559 		"></polygon>
		<polygon clip-path="url(#SVGID_6_)" points="459.636,106.429 459.608,106.419 460.153,105.875 464.24,105.676 464.281,105.559 
			464.582,105.659 464.854,105.75 464.835,105.8 465.552,106.196 465.825,106.286 465.713,106.579 467.712,111.334 466.022,115.855 
			463.836,110.706 463.556,110.825 463.536,110.607 463.559,110.553 462.869,110.172 462.711,110.453 462.626,110.182 
			458.437,110.389 457.893,110.932 		"></polygon>
		<polygon clip-path="url(#SVGID_6_)" fill-rule="evenodd" clip-rule="evenodd" points="465.749,115.764 466.304,115.738 
			464.117,110.589 463.556,110.824 465.741,115.973 466.294,115.946 465.723,115.754 		"></polygon>
		<polygon clip-path="url(#SVGID_6_)" fill-rule="evenodd" clip-rule="evenodd" points="467.457,111.462 467.438,111.243 
			465.723,115.754 466.294,115.946 468.012,111.435 467.993,111.218 		"></polygon>
		<polygon clip-path="url(#SVGID_6_)" fill-rule="evenodd" clip-rule="evenodd" points="465.825,106.286 465.271,106.314 
			467.457,111.463 467.993,111.217 465.805,106.068 465.253,106.095 		"></polygon>
		<polygon clip-path="url(#SVGID_6_)" fill-rule="evenodd" clip-rule="evenodd" fill="#FFFFFF" points="465.679,107.448 
			465.924,107.984 466.015,108.529 465.988,109.065 465.832,109.619 465.562,110.163 465.188,110.643 464.708,111.088 
			464.127,111.47 463.81,111.605 463.492,111.742 463.138,111.804 462.811,111.877 462.493,111.922 462.149,111.958 
			461.831,111.913 461.505,111.894 461.224,111.832 460.924,111.731 460.634,111.604 460.381,111.458 460.161,111.296 
			459.916,111.123 459.718,110.906 459.554,110.668 459.309,110.133 459.218,109.589 459.219,109.042 459.4,108.499 
			459.636,107.972 460.018,107.465 460.498,107.021 461.105,106.646 461.396,106.502 461.742,106.376 462.068,106.302 
			462.396,106.231 462.739,106.195 463.058,106.149 463.376,106.195 463.701,106.214 464,106.312 464.3,106.412 464.571,106.504 
			464.853,106.657 465.081,106.794 465.315,106.994 465.479,107.229 		"></polygon>
		<polygon clip-path="url(#SVGID_6_)" fill-rule="evenodd" clip-rule="evenodd" points="465.896,108.338 466.143,108.875 
			466.223,109.446 466.197,109.982 466.05,110.509 465.805,111.062 465.396,111.561 464.951,111.987 464.345,112.358 
			464.019,112.522 463.7,112.659 463.374,112.73 463.02,112.794 462.702,112.84 462.396,112.859 462.067,112.84 461.722,112.786 
			461.439,112.721 461.142,112.621 460.879,112.503 460.597,112.349 460.37,112.213 460.161,112.021 459.953,111.831 
			459.771,111.559 459.518,111.05 459.427,110.504 459.463,109.941 459.607,109.417 459.853,108.863 460.227,108.381 
			460.707,107.936 461.312,107.564 461.641,107.401 461.95,107.292 462.285,107.192 462.64,107.129 462.948,107.111 
			463.265,107.067 463.583,107.111 463.91,107.129 464.22,107.202 464.518,107.302 464.781,107.42 465.072,107.548 465.289,107.712 
			465.534,107.883 465.697,108.122 465.889,108.364 		"></polygon>
		<polygon clip-path="url(#SVGID_6_)" fill-rule="evenodd" clip-rule="evenodd" fill="#FFFFFF" points="466.05,108.964 
			466.306,109.473 466.386,110.045 466.358,110.582 466.214,111.107 465.941,111.651 465.56,112.159 465.116,112.585 
			464.508,112.959 464.208,113.131 463.864,113.258 463.536,113.33 463.183,113.393 462.865,113.438 462.557,113.457 
			462.229,113.438 461.885,113.385 461.604,113.32 461.305,113.222 461.041,113.103 460.761,112.949 460.533,112.811 
			460.297,112.611 460.126,112.404 459.935,112.158 459.681,111.649 459.59,111.104 459.616,110.569 459.771,110.015 
			460.016,109.461 460.398,108.953 460.896,108.544 461.479,108.164 461.805,108.001 462.122,107.864 462.448,107.792 
			462.803,107.729 463.119,107.683 463.428,107.665 463.782,107.692 464.074,107.729 464.382,107.802 464.681,107.9 
			464.972,108.028 465.227,108.174 465.452,108.31 465.697,108.484 465.86,108.72 		"></polygon>
		<polygon clip-path="url(#SVGID_6_)" fill-rule="evenodd" clip-rule="evenodd" points="466.269,109.854 466.513,110.391 
			466.605,110.935 466.605,111.48 466.423,112.024 466.185,112.551 465.776,113.049 465.325,113.504 464.717,113.875 
			464.426,114.021 464.081,114.146 463.753,114.22 463.428,114.292 463.083,114.329 462.765,114.375 462.447,114.329 
			462.122,114.311 461.812,114.238 461.512,114.138 461.25,114.019 460.97,113.866 460.75,113.702 460.535,113.538 460.334,113.319 
			460.143,113.075 459.925,112.548 459.808,111.994 459.834,111.458 459.989,110.905 460.253,110.389 460.634,109.879 
			461.113,109.434 461.695,109.053 462.014,108.917 462.331,108.781 462.685,108.718 463.012,108.646 463.328,108.6 
			463.664,108.591 463.99,108.61 464.29,108.62 464.598,108.692 464.898,108.792 465.188,108.918 465.442,109.063 465.688,109.236 
			465.905,109.399 466.104,109.618 466.259,109.882 		"></polygon>
		<polygon clip-path="url(#SVGID_6_)" fill-rule="evenodd" clip-rule="evenodd" fill="#FFFFFF" points="466.586,110.444 
			466.84,110.953 466.932,111.498 466.921,112.07 466.776,112.596 466.502,113.141 466.095,113.64 465.65,114.066 465.071,114.448 
			464.743,114.611 464.398,114.738 464.071,114.811 463.744,114.883 463.399,114.919 463.092,114.937 462.765,114.919 
			462.447,114.874 462.14,114.801 461.84,114.7 461.576,114.582 461.312,114.464 461.068,114.292 460.859,114.101 460.661,113.882 
			460.496,113.647 460.243,113.139 460.134,112.557 460.161,112.022 460.334,111.505 460.578,110.951 460.959,110.443 
			461.433,110.024 462.014,109.644 462.34,109.482 462.656,109.345 463.002,109.308 463.338,109.208 463.655,109.163 
			463.99,109.155 464.318,109.173 464.608,109.21 464.916,109.282 465.242,109.39 465.506,109.508 465.77,109.626 466.015,109.8 
			466.223,109.99 466.423,110.208 		"></polygon>
		<polygon clip-path="url(#SVGID_6_)" fill-rule="evenodd" clip-rule="evenodd" points="466.832,111.343 467.047,111.869 
			467.167,112.424 467.139,112.96 466.985,113.513 466.721,114.03 466.34,114.538 465.859,114.983 465.278,115.365 464.961,115.501 
			464.615,115.628 464.29,115.7 463.963,115.773 463.645,115.817 463.3,115.854 462.983,115.81 462.656,115.789 462.375,115.727 
			462.048,115.618 461.785,115.5 461.531,115.354 461.286,115.182 461.069,115.018 460.869,114.8 460.705,114.563 460.46,114.028 
			460.343,113.475 460.37,112.939 460.552,112.394 460.788,111.867 461.169,111.359 461.65,110.916 462.258,110.542 
			462.549,110.398 462.894,110.271 463.221,110.198 463.546,110.125 463.892,110.09 464.209,110.044 464.526,110.09 464.825,110.1 
			465.162,110.181 465.46,110.28 465.725,110.398 465.979,110.544 466.223,110.715 466.439,110.88 466.64,111.098 		"></polygon>
		<polygon clip-path="url(#SVGID_6_)" fill-rule="evenodd" clip-rule="evenodd" points="436.834,104.415 436.86,104.241 
			435.135,108.781 435.68,108.962 437.405,104.422 437.413,104.305 		"></polygon>
		<polygon clip-path="url(#SVGID_6_)" fill-rule="evenodd" clip-rule="evenodd" points="436.789,104.187 436.797,104.16 
			436.834,104.415 437.413,104.306 437.352,104.042 437.361,104.016 		"></polygon>
		<polygon clip-path="url(#SVGID_6_)" fill-rule="evenodd" clip-rule="evenodd" points="436.724,103.924 436.789,104.188 
			437.361,104.016 437.296,103.751 		"></polygon>
		
			<rect x="436.851" y="103.421" transform="matrix(-0.2888 -0.9574 0.9574 -0.2888 463.8715 552.0287)" clip-path="url(#SVGID_6_)" fill-rule="evenodd" clip-rule="evenodd" width="0.247" height="0.598"></rect>
		<polygon clip-path="url(#SVGID_6_)" fill-rule="evenodd" clip-rule="evenodd" points="436.589,103.425 436.589,103.425 
			436.652,103.688 437.224,103.515 437.16,103.251 437.152,103.279 		"></polygon>
		<polygon clip-path="url(#SVGID_6_)" fill-rule="evenodd" clip-rule="evenodd" points="436.517,103.097 436.517,103.188 
			436.589,103.424 437.152,103.279 437.079,103.042 437.106,103.144 		"></polygon>
		<polygon clip-path="url(#SVGID_6_)" fill-rule="evenodd" clip-rule="evenodd" points="437.098,102.99 436.525,102.888 
			436.517,103.097 437.106,103.144 437.115,102.936 436.543,102.834 437.088,103.016 		"></polygon>
		<polygon clip-path="url(#SVGID_6_)" fill-rule="evenodd" clip-rule="evenodd" fill="#4C4849" points="437.592,116.199 
			437.538,115.909 436.931,116.008 436.976,116.325 		"></polygon>
		<polygon clip-path="url(#SVGID_6_)" fill-rule="evenodd" clip-rule="evenodd" points="438.854,112.414 438.872,112.268 
			437.158,116.78 437.701,116.961 439.418,112.45 439.409,112.296 		"></polygon>
		<polygon clip-path="url(#SVGID_6_)" fill-rule="evenodd" clip-rule="evenodd" points="438.81,112.096 438.854,112.414 
			439.409,112.296 439.363,111.977 438.782,112.086 		"></polygon>
		<polygon clip-path="url(#SVGID_6_)" fill-rule="evenodd" clip-rule="evenodd" points="438.729,111.795 438.782,112.086 
			439.363,111.977 439.282,111.678 		"></polygon>
		<polygon clip-path="url(#SVGID_6_)" fill-rule="evenodd" clip-rule="evenodd" points="438.655,111.469 438.673,111.505 
			438.729,111.795 439.282,111.678 439.236,111.359 439.255,111.398 		"></polygon>
		<polygon clip-path="url(#SVGID_6_)" fill-rule="evenodd" clip-rule="evenodd" points="439.2,111.197 438.62,111.124 
			438.655,111.469 439.255,111.397 439.209,111.079 438.628,111.006 		"></polygon>
		<path clip-path="url(#SVGID_6_)" fill="#4C4849" d="M435.139,107.88l-0.275,0.083L435.139,107.88z"></path>
		<polygon clip-path="url(#SVGID_6_)" fill="#4C4849" points="435.425,108.827 435.435,108.799 435.576,108.81 435.68,108.962 
			435.426,108.877 		"></polygon>
		<polygon clip-path="url(#SVGID_6_)" points="434.8,107.7 435.09,107.645 435.1,107.437 436.824,102.898 436.815,102.925 
			436.815,103.106 436.861,103.333 436.952,103.607 437.023,103.841 437.087,104.105 437.133,104.332 437.405,104.423 
			435.68,108.962 435.576,108.81 435.435,108.799 435.424,108.827 435.426,108.877 435.68,108.962 435.428,108.947 435.435,109.152 
			435.259,108.936 435.117,108.925 435.08,108.671 435.186,108.649 435.297,108.358 435.009,108.435 434.927,108.226 
			434.863,107.964 435.139,107.881 434.863,107.964 434.873,107.937 		"></polygon>
		<polygon clip-path="url(#SVGID_6_)" points="435.416,108.572 448.048,108.158 448.375,108.178 448.43,108.195 448.739,108.269 
			448.767,108.277 449.092,108.387 449.41,108.522 449.437,108.532 449.736,108.723 449.79,108.741 450.025,108.94 450.099,108.994 
			450.271,109.203 450.289,109.24 450.406,109.43 450.416,109.494 449.859,109.662 449.771,109.52 449.763,109.549 449.617,109.349 
			449.619,109.348 449.427,109.195 449.474,109.24 449.165,109.078 449.165,109.075 448.846,108.94 448.573,108.851 
			448.265,108.776 448.319,108.795 448.028,108.758 448.031,108.731 435.435,109.152 		"></polygon>
		<polygon clip-path="url(#SVGID_6_)" points="449.846,109.667 449.859,109.662 449.89,109.712 		"></polygon>
		<polygon clip-path="url(#SVGID_6_)" fill-rule="evenodd" clip-rule="evenodd" points="456.594,120.272 456.594,120.091 
			454.868,124.63 455.439,124.821 457.166,120.283 457.166,120.101 		"></polygon>
		<polygon clip-path="url(#SVGID_6_)" fill-rule="evenodd" clip-rule="evenodd" points="451.606,105.2 451.569,105.129 
			456.594,120.272 457.166,120.102 452.141,104.956 452.132,104.892 		"></polygon>
		<polygon clip-path="url(#SVGID_6_)" fill-rule="evenodd" clip-rule="evenodd" points="451.506,105.046 451.489,105.009 
			451.606,105.2 452.132,104.892 452.015,104.701 451.987,104.691 451.479,105.038 		"></polygon>
		<polygon clip-path="url(#SVGID_6_)" fill-rule="evenodd" clip-rule="evenodd" points="451.389,104.855 451.343,104.811 
			451.479,105.038 451.987,104.692 451.797,104.447 451.75,104.401 		"></polygon>
		<polygon clip-path="url(#SVGID_6_)" fill-rule="evenodd" clip-rule="evenodd" points="451.188,104.729 451.143,104.683 
			451.389,104.854 451.75,104.401 451.506,104.229 451.461,104.184 		"></polygon>
		<polygon clip-path="url(#SVGID_6_)" fill-rule="evenodd" clip-rule="evenodd" points="450.916,104.546 450.89,104.537 
			451.188,104.729 451.461,104.184 451.152,104.021 451.126,104.011 		"></polygon>
		<polygon clip-path="url(#SVGID_6_)" fill-rule="evenodd" clip-rule="evenodd" points="450.626,104.419 450.563,104.428 
			450.916,104.546 451.126,104.011 450.807,103.875 450.78,103.866 450.59,104.438 		"></polygon>
		<polygon clip-path="url(#SVGID_6_)" fill-rule="evenodd" clip-rule="evenodd" points="450.3,104.311 450.263,104.328 
			450.59,104.438 450.78,103.866 450.454,103.756 450.29,104.337 		"></polygon>
		<polygon clip-path="url(#SVGID_6_)" fill-rule="evenodd" clip-rule="evenodd" points="450.046,104.256 449.992,104.239 
			450.29,104.337 450.454,103.756 450.117,103.675 450.091,103.666 		"></polygon>
		<polygon clip-path="url(#SVGID_6_)" fill-rule="evenodd" clip-rule="evenodd" points="449.754,104.22 449.746,104.247 
			450.046,104.255 450.091,103.666 449.771,103.619 449.737,103.639 		"></polygon>
		<polygon clip-path="url(#SVGID_6_)" fill-rule="evenodd" clip-rule="evenodd" points="437.433,104.433 437.124,104.631 
			449.754,104.219 449.736,103.638 437.133,104.061 436.86,104.241 437.405,104.422 		"></polygon>
		<polygon clip-path="url(#SVGID_6_)" fill="#4C4849" points="440.605,118.232 440.561,118.211 440.589,118.197 		"></polygon>
		<path clip-path="url(#SVGID_6_)" fill="#4C4849" d="M447.427,120.275l-0.052,0.611L447.427,120.275z"></path>
		<path clip-path="url(#SVGID_6_)" d="M436.976,116.325l0.055,0.291l0.109,0.309l0.136,0.227l0.772,0.409l0.77,0.411l0.744,0.398
			l0.753,0.372l0.026,0.01l0.764,0.345l0.762,0.345l0.825,0.336l0.835,0.308l0.028,0.01l0.889,0.237l0.89,0.236l0.026,0.008
			l0.98,0.146l1.008,0.155l0.027,0.009l1.097,0.065l0.037-0.019l1.17,0.028l1.253-0.037l1.325-0.071l0.273-0.182l1.714-4.511
			l-0.29-0.4l0.017,0.582l-0.091-0.114l0.065-0.167l-0.19,0.01l-0.083-0.101l-0.04,0.111l-0.983,0.061h-1.271l-1.172-0.027
			l-1.069-0.055l-1.042-0.137l-0.972-0.172l-0.891-0.237l-0.89-0.236l-0.834-0.309l-0.808-0.302l-0.762-0.344l-0.755-0.374
			l-0.779-0.381l-0.743-0.399l-0.743-0.401l-0.518-0.272l0.018-0.044l-0.271-0.092l-0.073-0.326l-0.054-0.291l-0.022-0.1
			l0.203-0.445l-0.286-0.095l-0.014-0.006l-0.272-0.09l-1.715,4.511l-0.02,0.145l0.046,0.319L436.976,116.325z M437.185,115.61
			l0.012,0.058l-0.028-0.015L437.185,115.61z"></path>
		<polygon clip-path="url(#SVGID_6_)" fill-rule="evenodd" clip-rule="evenodd" points="452.647,116.413 453.971,116.341 
			453.954,115.759 452.63,115.832 		"></polygon>
		
			<rect x="451.386" y="115.848" transform="matrix(-0.9996 0.0281 -0.0281 -0.9996 907.1063 219.5455)" clip-path="url(#SVGID_6_)" fill-rule="evenodd" clip-rule="evenodd" width="1.252" height="0.582"></rect>
		<polygon clip-path="url(#SVGID_6_)" fill-rule="evenodd" clip-rule="evenodd" points="450.196,116.412 450.225,116.421 
			451.396,116.448 451.377,115.869 450.207,115.84 450.243,115.822 450.188,116.439 		"></polygon>
		<polygon clip-path="url(#SVGID_6_)" fill-rule="evenodd" clip-rule="evenodd" points="449.071,116.34 449.1,116.349 
			450.188,116.44 450.243,115.822 449.145,115.758 449.171,115.767 		"></polygon>
		<polygon clip-path="url(#SVGID_6_)" fill-rule="evenodd" clip-rule="evenodd" points="448.055,116.211 449.071,116.34 
			449.171,115.768 448.165,115.612 		"></polygon>
		<polygon clip-path="url(#SVGID_6_)" fill-rule="evenodd" clip-rule="evenodd" points="447.058,116.029 447.084,116.039 
			448.055,116.211 448.165,115.612 447.158,115.458 447.185,115.467 		"></polygon>
		<polygon clip-path="url(#SVGID_6_)" fill-rule="evenodd" clip-rule="evenodd" points="446.169,115.793 447.058,116.029 
			447.185,115.467 446.296,115.23 446.159,115.82 		"></polygon>
		<polygon clip-path="url(#SVGID_6_)" fill-rule="evenodd" clip-rule="evenodd" points="445.243,115.575 445.27,115.583 
			446.159,115.82 446.296,115.23 445.406,114.994 445.434,115.003 		"></polygon>
		<polygon clip-path="url(#SVGID_6_)" fill-rule="evenodd" clip-rule="evenodd" points="444.406,115.266 444.406,115.266 
			445.243,115.574 445.434,115.002 444.599,114.694 444.627,114.702 444.381,115.257 		"></polygon>
		<polygon clip-path="url(#SVGID_6_)" fill-rule="evenodd" clip-rule="evenodd" points="443.582,114.929 444.381,115.257 
			444.627,114.702 443.827,114.375 		"></polygon>
		<polygon clip-path="url(#SVGID_6_)" fill-rule="evenodd" clip-rule="evenodd" points="442.82,114.584 443.582,114.929 
			443.827,114.375 443.055,114.058 		"></polygon>
		<polygon clip-path="url(#SVGID_6_)" fill-rule="evenodd" clip-rule="evenodd" points="442.04,114.202 442.057,114.24 
			442.82,114.584 443.055,114.057 442.275,113.677 442.304,113.685 442.031,114.23 		"></polygon>
		<polygon clip-path="url(#SVGID_6_)" fill-rule="evenodd" clip-rule="evenodd" points="441.286,113.83 442.031,114.231 
			442.304,113.685 441.55,113.312 441.277,113.857 		"></polygon>
		<polygon clip-path="url(#SVGID_6_)" fill-rule="evenodd" clip-rule="evenodd" points="440.542,113.431 441.277,113.857 
			441.55,113.313 440.807,112.913 440.515,113.421 		"></polygon>
		<polygon clip-path="url(#SVGID_6_)" fill-rule="evenodd" clip-rule="evenodd" points="439.771,113.021 440.515,113.422 
			440.807,112.914 440.062,112.513 		"></polygon>
		<polygon clip-path="url(#SVGID_6_)" fill-rule="evenodd" clip-rule="evenodd" points="439.418,112.45 439,112.613 
			439.771,113.021 440.062,112.513 439.291,112.104 438.873,112.268 		"></polygon>
		<polygon clip-path="url(#SVGID_6_)" fill-rule="evenodd" clip-rule="evenodd" points="518.075,104.273 516.349,108.812 
			521.982,110.693 523.292,107.679 523.328,107.388 523.336,107.088 523.292,106.771 523.182,106.462 523.001,106.189 
			522.855,105.898 522.62,105.608 522.375,105.345 522.121,105.108 521.839,104.864 521.55,104.645 521.268,104.49 520.996,104.31 
			520.679,104.173 520.396,104.02 520.124,103.927 519.882,103.847 519.588,103.81 519.326,103.783 519.071,103.819 
			518.817,103.854 518.547,103.946 518.31,104.108 		"></polygon>
		<polygon clip-path="url(#SVGID_6_)" fill-rule="evenodd" clip-rule="evenodd" points="521.729,110.547 522.083,110.394 
			516.449,108.512 516.258,109.083 521.894,110.965 522.274,110.82 		"></polygon>
		<polygon clip-path="url(#SVGID_6_)" points="434.8,107.428 434.826,107.346 436.543,102.834 437.088,103.017 435.424,107.472 
			435.389,107.655 435.382,107.591 434.8,107.7 434.791,107.637 		"></polygon>
		<polygon clip-path="url(#SVGID_6_)" fill="#4C4849" points="462.429,118.105 462.327,118.167 462.32,118.16 		"></polygon>
		<path clip-path="url(#SVGID_6_)" d="M435.009,108.436l0.063,0.263l0.008-0.027l0.439-0.094l-0.111,0.292l12.63-0.412l0.3,0.009
			l0.327,0.109l0.327,0.108l0.327,0.11l0.297,0.19l0.246,0.171l0.173,0.208l0.105,0.212l-0.295,0.09l5.022,15.145l0.294,0.005
			l0.006,0.186h0.453l0.428-0.009l0.39,0.009l0.354-0.063l0.361-0.091l0.365-0.181l0.335-0.282l0.397-0.382l0.011-0.027l0.227-0.317
			l0.263-0.336l0.3-0.355l0.209-0.354l0.263-0.425l0.272-0.364l0.228-0.408l0.291-0.417l0.234-0.343l0.337-0.374l0.272-0.363
			l0.318-0.319l0.28-0.298l0.299-0.263l0.292-0.236l0.334-0.191l0.073-0.035l-0.215-0.207l0.215,0.207l0.336-0.374l0.309-0.29
			l0.272-0.273l0.291-0.235l0.281-0.209l0.298-0.172l0.264-0.153l0.29-0.145l0.328-0.073l0.317-0.136l0.327-0.073l0.38-0.055
			l0.418-0.072l0.462-0.027l0.5-0.045l0.489-0.017l0.028,0.007l54.508-4.073l0.319-0.045l0.288-0.056l0.264-0.062l0.272-0.09
			l0.255-0.127l0.263-0.155l0.219-0.2l0.254-0.217l0.055-0.073l0.951-2.223l-0.496-0.318l0.221,0.212l-0.036,0.03l-0.239-0.169
			l-0.239,0.557l-0.161,0.096l-0.209,0.082l-0.245,0.102l-0.228,0.044l-0.29,0.055l-0.288,0.054l-54.537,4.065l-0.346,0.036
			l-0.336,0.01l-0.335,0.008l-0.354,0.063h-0.364l-0.316,0.045l-0.346,0.038l-0.316,0.045l-0.354,0.062l-0.317,0.045l-0.325,0.072
			l-0.363,0.09l-0.327,0.074l-0.346,0.126l-0.345,0.127l-0.326,0.164l-0.645,0.391l-0.654,0.597l-0.688,0.709l-0.664,0.808
			l-0.644,0.844l-0.554,0.754l-0.544,0.725l-0.454,0.544l-0.264,0.063l-0.227,0.046l-0.281,0.026h-0.272h-0.272l-0.236-0.017
			l-0.299-0.01l-0.264-0.028l-5.005-15.109l-0.11-0.218l-0.171-0.208l-0.244-0.174l-0.329-0.2l-0.316-0.135l-0.326-0.109
			l-0.309-0.074l-0.301-0.008l-12.621,0.385l-1.517,3.993l-0.009-0.052L435.009,108.436z M525.706,108.856l0.017-0.041l0.208,0.198
			L525.706,108.856z"></path>
		<polygon clip-path="url(#SVGID_6_)" fill-rule="evenodd" clip-rule="evenodd" points="523.799,109.967 524.125,109.895 
			524.416,109.84 524.68,109.776 524.952,109.685 525.205,109.56 525.47,109.404 525.676,109.232 525.931,109.014 525.497,108.597 
			525.305,108.805 525.105,108.951 524.914,109.068 524.706,109.15 524.506,109.205 524.271,109.276 524.017,109.313 
			523.735,109.341 		"></polygon>
		<polygon clip-path="url(#SVGID_6_)" fill-rule="evenodd" clip-rule="evenodd" points="469.298,114.014 523.799,109.966 
			523.735,109.341 469.228,113.415 		"></polygon>
		<polygon clip-path="url(#SVGID_6_)" fill-rule="evenodd" clip-rule="evenodd" points="463.953,114.982 464.271,114.847 
			464.58,114.738 464.951,114.62 465.26,114.51 465.596,114.411 465.913,114.367 466.23,114.321 466.585,114.258 466.876,114.202 
			467.212,114.194 467.557,114.157 467.901,114.122 468.245,114.085 468.555,114.068 468.927,114.04 469.298,114.015 
			469.228,113.415 468.881,113.45 468.537,113.487 468.174,113.487 467.828,113.522 467.493,113.532 467.167,113.605 
			466.831,113.614 466.457,113.641 466.131,113.714 465.804,113.785 465.451,113.849 465.088,113.939 464.779,114.048 
			464.409,114.167 464.036,114.283 463.71,114.447 		"></polygon>
		<polygon clip-path="url(#SVGID_6_)" fill-rule="evenodd" clip-rule="evenodd" points="459.07,120.374 459.188,120.292 
			459.435,120.011 459.652,119.72 459.914,119.385 460.187,119.021 460.496,118.641 460.777,118.249 461.096,117.841 
			461.412,117.433 461.739,116.997 462.075,116.626 462.401,116.28 462.737,115.909 463.019,115.609 463.374,115.364 
			463.662,115.127 463.953,114.982 463.71,114.448 463.337,114.656 463.019,114.883 462.647,115.182 462.293,115.517 
			461.967,115.863 461.64,116.208 461.277,116.661 460.959,117.07 460.641,117.478 460.323,117.887 460.042,118.276 
			459.732,118.657 459.461,119.021 459.197,119.357 458.98,119.648 458.78,119.884 458.889,119.829 		"></polygon>
		<polygon clip-path="url(#SVGID_6_)" fill-rule="evenodd" clip-rule="evenodd" fill="#FFFFFF" points="448.629,103.966 
			449.754,103.948 449.846,103.948 440.183,100.721 439.692,101.011 448.62,103.993 		"></polygon>
		<polygon clip-path="url(#SVGID_6_)" fill-rule="evenodd" clip-rule="evenodd" fill="#FFFFFF" points="448.629,103.966 
			437.133,104.332 437.087,104.105 437.023,103.841 436.952,103.607 436.862,103.333 436.815,103.106 436.815,102.925 
			436.888,102.708 437.088,102.562 437.56,102.237 438.086,101.927 438.612,101.618 439.139,101.311 439.639,100.994 
			439.692,101.011 448.62,103.993 		"></polygon>
		<polygon clip-path="url(#SVGID_6_)" fill="#FFFFFF" points="441.641,110.953 449.473,110.511 452.539,111.747 453.618,114.953 
			453.945,116.06 452.648,116.14 451.377,116.14 450.205,116.113 449.136,116.058 448.094,115.921 447.122,115.749 446.231,115.512 
			445.342,115.276 444.508,114.967 443.7,114.666 442.938,114.321 442.184,113.948 441.404,113.567 440.661,113.168 
			439.918,112.767 439.146,112.358 439.073,112.032 439.02,111.741 438.946,111.416 438.9,111.096 		"></polygon>
		<polygon clip-path="url(#SVGID_6_)" fill-rule="evenodd" clip-rule="evenodd" fill="#FFFFFF" points="461.368,111.849 
			461.479,111.977 462.484,112.585 462.811,112.059 461.803,111.451 461.902,111.605 461.368,111.849 461.404,111.922 
			461.479,111.977 		"></polygon>
		<polygon clip-path="url(#SVGID_6_)" fill-rule="evenodd" clip-rule="evenodd" fill="#FFFFFF" points="452.411,112.037 
			452.239,111.828 453.672,116.15 454.244,115.979 452.812,111.655 452.657,111.483 452.812,111.655 452.766,111.52 
			452.657,111.483 		"></polygon>
		<polygon clip-path="url(#SVGID_6_)" fill-rule="evenodd" clip-rule="evenodd" fill="#FFFFFF" points="449.5,110.793 
			449.354,110.775 452.411,112.037 452.657,111.483 449.601,110.22 449.481,110.212 449.601,110.22 449.545,110.202 
			449.481,110.212 		"></polygon>
		<polygon clip-path="url(#SVGID_6_)" fill-rule="evenodd" clip-rule="evenodd" fill="#FFFFFF" points="439.209,111.079 
			438.919,111.405 449.5,110.793 449.481,110.212 438.901,110.825 438.619,111.124 438.901,110.825 438.565,110.833 
			438.619,111.124 		"></polygon>
		<polygon clip-path="url(#SVGID_6_)" fill-rule="evenodd" clip-rule="evenodd" fill="#FFFFFF" points="439.291,112.105 
			439.409,112.296 439.4,112.142 439.363,111.977 439.354,111.823 439.309,111.687 439.301,111.533 439.264,111.369 
			439.218,111.232 439.209,111.079 438.62,111.124 438.619,111.306 438.646,111.497 438.691,111.633 438.7,111.787 438.746,111.922 
			438.782,112.087 438.847,112.258 438.854,112.414 439,112.612 438.854,112.414 438.9,112.55 439,112.612 		"></polygon>
		<polygon clip-path="url(#SVGID_6_)" fill-rule="evenodd" clip-rule="evenodd" fill="#FFFFFF" points="453.683,116.123 
			453.926,115.751 452.629,115.832 451.377,115.869 450.243,115.822 449.144,115.758 448.164,115.612 447.184,115.466 
			446.296,115.23 445.434,115.003 444.599,114.693 443.827,114.375 443.055,114.058 442.304,113.686 441.55,113.313 
			440.807,112.914 440.061,112.513 439.291,112.105 439,112.613 439.771,113.021 440.515,113.422 441.277,113.857 442.031,114.231 
			442.82,114.584 443.582,114.929 444.406,115.266 445.243,115.575 446.159,115.82 447.058,116.029 448.055,116.211 449.1,116.349 
			450.188,116.44 451.396,116.448 452.647,116.413 453.998,116.351 454.244,115.978 453.998,116.351 454.372,116.323 
			454.244,115.978 453.672,116.15 		"></polygon>
		<polygon clip-path="url(#SVGID_6_)" fill-rule="evenodd" clip-rule="evenodd" fill="#FFFFFF" points="469.228,113.415 
			468.828,113.432 468.382,113.496 467.983,113.514 467.548,113.55 467.13,113.623 466.686,113.685 466.241,113.75 465.813,113.849 
			465.386,113.948 465.017,114.067 464.608,114.202 464.226,114.347 463.899,114.511 463.509,114.683 463.192,114.911 
			462.901,115.146 463.265,115.6 463.545,115.392 463.817,115.209 464.117,115.038 464.461,114.911 464.798,114.719 
			465.159,114.629 465.587,114.53 465.96,114.411 466.368,114.367 466.731,114.276 467.167,114.24 467.584,114.167 468.028,114.104 
			468.464,114.068 468.872,114.023 469.298,114.015 		"></polygon>
		<polygon clip-path="url(#SVGID_6_)" fill-rule="evenodd" clip-rule="evenodd" fill="#FFFFFF" points="523.735,109.341 
			469.228,113.414 469.298,114.014 523.799,109.966 		"></polygon>
		<polygon clip-path="url(#SVGID_6_)" fill-rule="evenodd" clip-rule="evenodd" fill="#FFFFFF" points="524.752,106.017 
			524.979,106.335 525.215,106.626 525.324,106.934 525.497,107.235 525.587,107.508 525.613,107.789 525.623,108.034 
			525.605,108.269 525.541,108.461 525.45,108.642 525.333,108.814 525.123,108.987 524.904,109.096 524.561,109.223 
			524.199,109.313 523.735,109.341 523.799,109.967 524.299,109.922 524.733,109.795 525.114,109.649 525.45,109.459 
			525.759,109.259 525.977,108.969 526.094,108.705 526.203,108.379 526.193,108.042 526.214,107.717 526.141,107.389 
			526.022,107.018 525.885,106.699 525.704,106.335 525.469,105.956 525.233,105.664 		"></polygon>
		<polygon clip-path="url(#SVGID_6_)" fill-rule="evenodd" clip-rule="evenodd" fill="#FFFFFF" points="518.256,102.911 
			518.746,102.894 519.245,102.939 519.753,103.048 520.243,103.121 520.706,103.274 521.168,103.43 521.613,103.638 
			522.03,103.839 522.466,104.074 522.865,104.329 523.292,104.592 523.602,104.846 523.925,105.136 524.245,105.455 
			524.508,105.755 524.753,106.017 525.233,105.664 524.952,105.328 524.634,105.01 524.316,104.692 523.963,104.393 
			523.574,104.112 523.183,103.83 522.785,103.574 522.331,103.302 521.859,103.084 521.378,102.894 520.887,102.729 
			520.37,102.557 519.862,102.449 519.345,102.366 518.754,102.32 518.237,102.33 		"></polygon>
		<polygon clip-path="url(#SVGID_6_)" fill-rule="evenodd" clip-rule="evenodd" fill="#FFFFFF" points="470.026,104.572 
			518.256,102.911 518.236,102.329 470.035,104 		"></polygon>
		<polygon clip-path="url(#SVGID_6_)" fill-rule="evenodd" clip-rule="evenodd" fill="#FFFFFF" points="462.412,103.361 
			462.868,103.544 463.349,103.644 463.812,103.798 464.291,103.897 464.799,104.007 465.271,104.135 465.789,104.216 
			466.252,104.28 466.733,104.381 467.231,104.426 467.721,104.498 468.203,104.508 468.666,104.571 469.155,104.554 469.6,104.581 
			470.026,104.573 470.035,104 469.581,104 469.138,103.973 468.72,103.954 468.248,103.918 467.776,103.881 467.305,103.844 
			466.843,103.781 466.352,103.708 465.872,103.608 465.409,103.544 464.937,103.417 464.445,103.344 463.974,103.217 
			463.476,103.081 463.058,102.972 462.594,102.817 462.405,103.39 		"></polygon>
		<polygon clip-path="url(#SVGID_6_)" fill-rule="evenodd" clip-rule="evenodd" fill="#FFFFFF" points="446.145,98.899 
			446.971,98.78 447.749,98.708 448.494,98.653 449.176,98.608 449.82,98.581 450.4,98.654 451,98.673 451.498,98.718 
			452.016,98.801 452.497,98.901 452.949,98.991 453.359,99.127 453.794,99.273 454.138,99.419 454.564,99.591 454.901,99.763 
			455.291,99.955 455.683,100.146 456.062,100.364 456.444,100.581 456.824,100.8 457.224,101.054 457.615,101.246 458.04,101.508 
			458.513,101.726 458.966,101.999 459.474,102.197 459.964,102.452 460.517,102.698 461.116,102.898 461.751,103.17 
			462.405,103.39 462.594,102.817 461.942,102.599 461.297,102.354 460.762,102.145 460.2,101.926 459.683,101.663 459.238,101.454 
			458.784,101.181 458.34,100.973 457.903,100.737 457.496,100.509 457.114,100.292 456.716,100.036 456.335,99.818 455.944,99.629 
			455.554,99.437 455.2,99.228 454.81,99.038 454.384,98.864 453.983,98.701 453.549,98.556 453.086,98.4 452.605,98.302 
			452.115,98.228 451.579,98.11 451.026,98.047 450.455,98.037 449.791,98.028 449.157,98.027 448.422,98.055 447.678,98.109 
			446.889,98.208 446.071,98.299 446.117,98.888 		"></polygon>
		<polygon clip-path="url(#SVGID_6_)" fill-rule="evenodd" clip-rule="evenodd" fill="#FFFFFF" points="437.241,102.825 
			437.714,102.499 438.24,102.191 438.767,101.882 439.302,101.546 439.792,101.256 440.345,100.957 440.863,100.676 
			441.398,100.431 441.971,100.167 442.542,99.904 443.104,99.668 443.685,99.468 444.312,99.315 444.882,99.143 445.509,98.989 
			446.117,98.889 446.071,98.3 445.391,98.435 444.748,98.553 444.112,98.733 443.513,98.897 442.914,99.151 442.297,99.369 
			441.734,99.604 441.161,99.869 440.582,100.157 440.028,100.457 439.511,100.738 438.984,101.046 438.457,101.354 
			437.932,101.663 437.433,101.982 436.934,102.299 437.215,102.816 		"></polygon>
		<polygon clip-path="url(#SVGID_6_)" fill-rule="evenodd" clip-rule="evenodd" fill="#FFFFFF" points="437.133,104.061 
			437.44,104.314 437.352,104.043 437.296,103.752 437.224,103.516 437.16,103.251 437.124,103.089 437.098,102.989 
			437.142,102.853 437.215,102.816 436.934,102.299 436.67,102.543 436.533,102.862 436.498,103.152 436.589,103.424 
			436.652,103.688 436.724,103.924 436.797,104.16 436.842,104.387 437.124,104.631 436.842,104.387 436.851,104.631 
			437.124,104.631 		"></polygon>
		<polygon clip-path="url(#SVGID_6_)" fill="#FFFFFF" points="459.41,106.203 459.402,106.231 459.399,106.229 		"></polygon>
		<polygon clip-path="url(#SVGID_6_)" fill="#FFFFFF" points="459.273,106.338 459.399,106.23 459.327,106.539 		"></polygon>
		<polygon clip-path="url(#SVGID_6_)" fill="#FFFFFF" points="467.394,109.806 477.338,113.127 476.259,113.19 476.25,113.216 
			467.618,110.335 		"></polygon>
		<path clip-path="url(#SVGID_6_)" fill="#FFFFFF" d="M437.124,104.631l12.63-0.411l0.265,0.027l0.244,0.082l0.327,0.109l0.3,0.101
			l0.271,0.182l0.201,0.128l0.116,0.189l0.091,0.092l5.024,15.144l0.072,0.237l0.244-0.009l0.256-0.037l0.289,0.037l0.354,0.028
			l0.336-0.009l0.326,0.017l0.301-0.082l0.335-0.099l0.271-0.181l0.327-0.345l0.272-0.363l0.254-0.308l0.254-0.308l0.218-0.292
			l0.21-0.262l0.182-0.273l0.217-0.29l0.181-0.272l0.21-0.262l0.209-0.264l0.227-0.227l0.236-0.253l0.272-0.272l0.271-0.273
			l0.346-0.308l-0.184-0.231l0.273-0.224l0.308-0.2l0.355-0.154l0.327-0.163l0.353-0.154l0.398-0.11l0.41-0.135l0.399-0.109
			l0.381-0.055l0.416-0.071l0.445-0.065l0.418-0.072l0.436-0.036l0.437-0.035l0.408-0.046l0.399-0.019l7.005-0.506l-8.632-2.881
			l-0.225-0.528l9.944,3.321l46.444-3.47l0.861-0.136l0.644-0.298l0.444-0.427l0.163-0.49l0.001-0.544l0.009-0.028l-0.154-0.627
			l-0.308-0.616l-0.446-0.664l-0.263-0.299l-0.289-0.31l-0.318-0.317l-0.335-0.263l-0.354-0.3l-0.398-0.255l-0.427-0.264
			l-0.427-0.263l-0.454-0.181l-0.445-0.21l-0.489-0.163l-0.516-0.172l-0.489-0.073l-0.511-0.109l-0.526-0.054l-0.518,0.008
			l-7.013,0.263l-41.188,1.408h-0.454l-0.426,0.01l-0.48-0.011l-0.463-0.063l-0.472-0.036l-0.473-0.037l-0.462-0.064l-0.491-0.073
			l-0.488-0.072l-0.482-0.1l-0.481-0.101l-0.479-0.099l-0.499-0.137l-0.472-0.128l-0.444-0.117l-0.464-0.154l-0.653-0.219
			l-0.643-0.244l-0.563-0.219l-0.562-0.216l-0.491-0.256l-0.473-0.218l-0.489-0.254l-0.445-0.21l-0.426-0.261l-0.38-0.22
			l-0.408-0.227l-0.382-0.217l-0.408-0.228l-0.381-0.219l-0.364-0.181l-0.381-0.219l-0.39-0.19l-0.399-0.165L453.884,99
			l-0.435-0.145l-0.464-0.155l-0.442-0.119l-0.49-0.072l-0.518-0.082l-0.525-0.054l-0.592-0.045l-0.627-0.029l-0.643,0.028
			l-0.673,0.017l-0.751,0.082l-0.781,0.073l-0.852,0.108l-0.637,0.091l-0.625,0.153l-0.627,0.154l-0.582,0.199l-0.615,0.219
			l-0.591,0.227l-0.562,0.235l-0.573,0.263l-0.543,0.274l-0.554,0.3l8.812,2.942l-11.862,0.397L437.124,104.631z M517.902,104.88
			l0.054-0.343l0.119-0.264l0.216-0.2l0.327-0.164l0.381-0.055l0.208,0.011l0.237,0.018l0.227,0.045l0.227,0.046l0.272,0.091
			l0.246,0.082l0.263,0.118l0.28,0.155l0.236,0.109l0.246,0.172l0.217,0.163l0.236,0.2l0.244,0.173l0.173,0.208l0.209,0.192
			l0.173,0.208l0.317,0.41l0.163,0.417l0.08,0.209l0.046,0.135l-0.025,0.354l-0.065,0.28l-0.199,0.236l-0.291,0.146l-0.39,0.082
			l-0.218,0.019l-0.227-0.047l-0.263-0.027l-0.281-0.063l-0.247-0.083l-0.271-0.092l-0.289-0.125l-0.255-0.147l-0.264-0.118
			l-0.282-0.154l-0.245-0.171l-0.234-0.202l-0.218-0.163l-0.226-0.227l-0.2-0.219l-0.173-0.208l-0.28-0.427l-0.164-0.417
			l-0.045-0.136L517.902,104.88z M467.695,111.298L467.695,111.298l-0.192-0.154L467.695,111.298z M459.965,106.499l0.322-0.321
			l4.141-0.237l0.879,0.456l2.078,4.895l-0.323,0.413l-4.45,0.317l0.199,0.037l-0.151,0.243l-0.021,0.002l-0.988-0.572l-0.003-0.01
			l0.256-0.117L459.965,106.499z"></path>
		<polygon clip-path="url(#SVGID_6_)" fill-rule="evenodd" clip-rule="evenodd" points="515.098,108.029 514.844,107.885 
			514.797,107.658 515.16,107.566 515.232,107.803 515.015,107.639 		"></polygon>
		<polygon clip-path="url(#SVGID_6_)" fill-rule="evenodd" clip-rule="evenodd" points="515.588,107.74 515.532,107.812 
			515.442,107.902 515.332,107.957 515.225,108.012 515.098,108.028 515.015,107.639 515.07,107.657 515.151,107.593 
			515.252,107.566 515.26,107.539 515.242,107.593 515.577,107.767 		"></polygon>
		<polygon clip-path="url(#SVGID_6_)" fill-rule="evenodd" clip-rule="evenodd" points="514.563,105.46 514.589,105.469 
			514.763,105.679 514.989,105.905 515.206,106.159 515.414,106.44 515.586,106.74 515.687,107.077 515.688,107.439 
			515.577,107.767 515.242,107.593 515.315,107.375 515.298,107.159 515.232,106.895 515.07,106.659 514.89,106.387 514.69,106.169 
			514.463,105.941 514.289,105.734 514.316,105.743 		"></polygon>
		<polygon clip-path="url(#SVGID_6_)" fill-rule="evenodd" clip-rule="evenodd" points="511.224,104.497 511.195,104.487 
			511.677,104.497 512.131,104.497 512.558,104.579 512.966,104.623 513.383,104.733 513.772,104.925 514.18,105.152 
			514.563,105.459 514.316,105.743 513.946,105.496 513.591,105.288 513.256,105.116 512.892,105.023 512.493,104.95 
			512.086,104.905 511.668,104.888 511.24,104.896 511.25,104.868 511.186,104.515 		"></polygon>
		<polygon clip-path="url(#SVGID_6_)" fill-rule="evenodd" clip-rule="evenodd" points="475.815,106.354 475.97,106.254 
			511.186,104.515 511.25,104.868 476.023,106.635 476.179,106.536 		"></polygon>
		<polygon clip-path="url(#SVGID_6_)" fill-rule="evenodd" clip-rule="evenodd" points="474.979,107.588 474.599,107.461 
			474.626,107.197 474.698,106.98 474.808,106.745 474.953,106.58 475.145,106.462 475.389,106.363 475.661,106.271 475.97,106.254 
			476.023,106.634 475.733,106.689 475.471,106.752 475.343,106.771 475.216,106.879 475.153,106.98 475.053,107.099 
			474.999,107.261 475.007,107.505 474.626,107.378 		"></polygon>
		<polygon clip-path="url(#SVGID_6_)" points="514.871,107.439 514.771,107.286 514.643,107.122 514.543,106.968 514.408,106.831 
			514.28,106.667 514.145,106.531 514.018,106.367 513.654,106.096 513.283,105.851 512.911,105.696 512.52,105.596 512.112,105.55 
			511.686,105.469 511.268,105.45 510.814,105.449 475.589,107.216 475.879,106.669 475.987,106.652 476.023,106.634 
			511.25,104.869 511.84,104.915 512.331,104.896 512.795,104.96 513.219,105.042 513.61,105.232 513.963,105.44 514.289,105.734 
			514.663,106.159 514.989,106.542 515.226,106.921 515.343,107.204 515.343,107.385 515.26,107.539 515.033,107.676 
			515.002,107.683 514.989,107.629 		"></polygon>
		<path clip-path="url(#SVGID_6_)" d="M474.599,107.461l0.038,0.345l0.072,0.236l0.099,0.335l0.236,0.381l0.29,0.31l0.372,0.336
			l0.444,0.299l0.499,0.228l0.525,0.143l0.636,0.001l36.188-1.837l0.689-0.073l0.488-0.108l0.355-0.246l0.199-0.326l-0.008-0.335
			l-0.138-0.41l-0.263-0.39l-0.361-0.454l-0.373-0.427l-0.4-0.344l-0.424-0.263l-0.419-0.2l-0.454-0.091l-0.544-0.091h-0.544
			l-0.618,0.036l-35.217,1.74l0.002,0.01l-0.374,0.017l-0.381,0.145l-0.253,0.219l-0.173,0.246l-0.119,0.262L474.599,107.461z
			 M475.007,107.505l0.046-0.226l0.017-0.038l0.029-0.007h0.181l0.31-0.019l0.293-0.55l0.105-0.014l0.036-0.018l35.227-1.766
			l0.59,0.046l0.491-0.019l0.463,0.063l0.425,0.083l0.392,0.19l0.353,0.208l0.326,0.292l0.373,0.426l0.327,0.382l0.235,0.38
			l0.118,0.281v0.182l-0.083,0.155l-0.228,0.137l-0.03,0.008l-0.395,0.091l-0.599,0.072l-36.198,1.867l-0.027-0.009l-0.507-0.019
			l-0.5-0.137l-0.445-0.208l-0.381-0.218l-0.317-0.318l-0.226-0.318l-0.2-0.308l-0.154-0.263l-0.029-0.19L475.007,107.505z"></path>
	</g>
	
	
</g>
<g id="tile_text">
	
</g>
</svg>