<svg version="1.1" id="Layer_1" xmlns="http://www.w3.org/2000/svg" xmlns:xlink="http://www.w3.org/1999/xlink" x="0px" y="0px" width="3525" height="2250" viewBox="0 0 3525 2250" enable-background="new 0 0 846 540" xml:space="preserve">
<polygon fill="#929497" points="0,0 0,540 846,540 846,0 0,0 "></polygon>
<path fill="#FFFFFF" stroke="#ED1F24" stroke-miterlimit="10" d="M17.08,424.106v54h103.68v-54v103.68h254v-103.68v54h103.68v-54
	v96.68h254v-96.68h96.48v-272h-96.48h-109c0,22-36,22-36,0h-109c0-29.824-24.176-54-54-54h-49.68v82.8V48.427h-28.801h28.801
	c0-19.883-16.117-36-36-36h-182c-19.883,0-36,16.117-36,36h28.8h-28.8v132.479v-82.8H71.08c-29.824,0-54,24.176-54,54"></path>
<line fill="none" stroke="#ED1F24" stroke-width="0.4" stroke-miterlimit="10" x1="17.08" y1="424.106" x2="17.08" y2="152.107"></line>
<rect x="120.76" y="152.107" fill="none" stroke="#69BD45" stroke-width="0.4" stroke-miterlimit="10" width="254" height="272"></rect>
<line fill="none" stroke="#69BD45" stroke-width="0.4" stroke-miterlimit="10" x1="120.76" y1="424.106" x2="17.08" y2="424.106"></line>
<line fill="none" stroke="#69BD45" stroke-width="0.4" stroke-miterlimit="10" x1="120.76" y1="152.107" x2="17.08" y2="152.107"></line>
<polyline fill="none" stroke="#69BD45" stroke-width="0.4" stroke-miterlimit="10" points="374.76,424.106 478.439,424.106 
	478.439,152.107 374.76,152.107 "></polyline>
<line fill="none" stroke="#69BD45" stroke-width="0.4" stroke-miterlimit="10" x1="732.439" y1="424.106" x2="732.439" y2="152.107"></line>
<line fill="none" stroke="#69BD45" stroke-width="0.4" stroke-miterlimit="10" x1="149.56" y1="48.427" x2="345.959" y2="48.427"></line>
<line fill="none" stroke="#69BD45" stroke-width="0.4" stroke-miterlimit="10" x1="120.76" y1="180.907" x2="374.76" y2="180.907"></line>
<line fill="none" stroke="#69BD45" stroke-width="0.4" stroke-miterlimit="10" x1="478.439" y1="424.106" x2="732.439" y2="424.106"></line>
<rect x="763.162" y="163.467" fill="#E6E6E6" width="53.998" height="247.999"></rect>

<g>
	<path fill="#EB242B" d="M568.738,204.739c0,0.888-0.403,1.754-1.207,2.597l-0.127,0.125l-7.04,7.417
		c-1.496,1.571-2.771,2.787-3.821,3.646c-1.052,0.859-1.796,1.287-2.228,1.287c-0.456,0-1.021-0.214-1.698-0.644
		c-0.676-0.428-1.112-0.872-1.311-1.327c-0.166-0.38-0.325-1.185-0.473-2.416c-0.147-1.229-0.222-2.563-0.222-3.998
		c0-0.782,0.327-1.506,0.979-2.171c0.653-0.665,1.375-0.997,2.164-0.997c0.754,0,1.2,0.688,1.344,2.062
		c0.018,0.159,0.027,0.278,0.037,0.354c0.119,1.056,0.261,1.792,0.419,2.21c0.161,0.418,0.378,0.627,0.65,0.627
		c0.113,0,0.327-0.124,0.639-0.37c0.31-0.248,0.684-0.583,1.116-1.009l7.234-7.166c0.607-0.607,1.149-1.066,1.629-1.379
		c0.479-0.311,0.884-0.467,1.219-0.467c0.252,0,0.429,0.096,0.537,0.285c0.105,0.19,0.158,0.51,0.158,0.958V204.739z"></path>
</g>
<line fill="none" stroke="#EB2227" x1="601.494" y1="205.963" x2="601.494" y2="160.999"></line>

<line fill="none" stroke="#8CC541" x1="340.5" y1="226.336" x2="369.299" y2="226.003"></line>
<rect x="522.098" y="60.467" fill="#E7E7E7" width="228.402" height="74.891"></rect>

<g>
	<path fill="#EB242B" d="M654.957,68.14c0,0.565-0.257,1.118-0.77,1.655l-0.081,0.081l-4.491,4.732
		c-0.955,1.001-1.768,1.776-2.438,2.326c-0.671,0.546-1.146,0.82-1.421,0.82c-0.291,0-0.652-0.137-1.084-0.411
		c-0.432-0.272-0.709-0.555-0.836-0.846c-0.106-0.242-0.207-0.756-0.301-1.542c-0.096-0.784-0.143-1.635-0.143-2.55
		c0-0.501,0.209-0.961,0.625-1.387c0.418-0.423,0.877-0.635,1.381-0.635c0.48,0,0.766,0.438,0.857,1.316
		c0.012,0.101,0.018,0.176,0.023,0.225c0.076,0.674,0.166,1.143,0.268,1.409s0.241,0.401,0.414,0.401
		c0.073,0,0.209-0.08,0.408-0.237c0.197-0.157,0.437-0.371,0.713-0.644l4.615-4.57c0.388-0.388,0.733-0.682,1.039-0.881
		c0.305-0.199,0.564-0.299,0.777-0.299c0.16,0,0.273,0.062,0.342,0.183c0.068,0.122,0.102,0.325,0.102,0.611V68.14z"></path>
</g>
<g>
	<circle fill-rule="evenodd" clip-rule="evenodd" fill="#010101" cx="558.764" cy="97.188" r="33.053"></circle>
	<circle fill-rule="evenodd" clip-rule="evenodd" fill="#B7D334" cx="558.787" cy="97.37" r="30.049"></circle>
	<g>
		<path fill="#010101" d="M552.354,90.818c-0.417,3.682-0.727,6.643-0.934,8.874l-1.369,0.061c0.02-0.074,0.028-0.159,0.031-0.252
			c0.002-0.167-0.059-0.388-0.185-0.661c-0.126-0.271-0.198-0.445-0.216-0.52c-0.354,0.052-0.693,0.298-1.018,0.736
			c-0.324,0.441-0.618,0.662-0.878,0.658c-0.149-0.005-0.317-0.044-0.501-0.121c-0.246,0.163-0.562,0.233-0.955,0.209
			c-0.352-0.063-0.696-0.115-1.031-0.158c-0.012-0.467-0.469-0.874-1.376-1.226c0.004-0.187-0.091-0.463-0.28-0.831
			c-0.189-0.366-0.282-0.623-0.279-0.772c0.002-0.167,0.069-0.306,0.203-0.416c-0.02-0.055-0.173-0.403-0.459-1.043
			c-0.196-0.469-0.292-0.871-0.287-1.205c0.005-0.261,0.064-0.502,0.182-0.724c-0.16-1.587-0.23-2.948-0.21-4.084
			c0.028-1.751,0.278-3.359,0.753-4.824c-0.034-0.225-0.05-0.448-0.047-0.672c0.021-1.174,0.428-1.985,1.215-2.439l0.008-0.363
			c0.781-0.993,1.809-1.712,3.082-2.156c0.764,0.182,1.523,0.353,2.284,0.516c0.853,0.294,1.44,0.797,1.763,1.511
			c0.258,0.154,0.385,0.464,0.377,0.927c-0.009,0.524,0.051,0.861,0.178,1.012l-0.143,0.164c0.148,1.103,0.223,1.775,0.218,2.016
			c-0.013,0.71-0.198,1.209-0.557,1.501c-0.13-0.001-0.473-0.118-1.027-0.353c-0.134,0.128-0.275,0.191-0.423,0.188
			c-0.075-0.001-0.211-0.042-0.404-0.12c-0.193-0.077-0.357-0.115-0.487-0.117c-0.093-0.002-0.187,0.014-0.28,0.049
			c-0.012-1.471,0.035-2.569,0.14-3.295c-0.147-0.096-0.297-0.315-0.449-0.65c-0.153-0.339-0.351-0.529-0.591-0.569
			c-0.152,0.185-0.221,0.305-0.203,0.361l-0.5-0.177c-0.455,0.495-0.759,1.356-0.909,2.583c-0.155,1.415-0.348,2.352-0.578,2.813
			c0.2,0.209,0.299,0.499,0.29,0.872c-0.001,0.129-0.023,0.345-0.066,0.641c-0.043,0.298-0.064,0.522-0.066,0.672
			c-0.002,0.167,0.012,0.316,0.049,0.446l-0.342,0.33c0.138,0.636,0.218,1.439,0.239,2.409c-0.014,0.818-0.02,1.639-0.014,2.458
			c-0.02,0-0.178,0.007-0.476,0.021c-0.186-0.005-0.319,0.059-0.395,0.188c0.111-0.017,0.215-0.024,0.307-0.021
			c0.41,0.005,0.731,0.296,0.963,0.868c0.234,0.572,0.434,0.86,0.602,0.864c0.187,0.001,0.441-0.171,0.765-0.521
			c0.549-0.585,0.833-1.392,0.851-2.416c0.01-0.503-0.047-1.044-0.168-1.623c-0.131,0.071-0.2,0.257-0.205,0.555
			c-0.298-0.004-0.486,0.058-0.562,0.186c-0.129-0.039-0.184-0.143-0.162-0.309c0.021-0.242,0.033-0.374,0.033-0.393
			c0.227-0.068,0.338-0.171,0.342-0.3c0-0.057-0.039-0.161-0.121-0.312c-0.08-0.149-0.119-0.271-0.119-0.365
			c0-0.073,0.021-0.147,0.06-0.223l0.13-1.088c0.409,0.12,1.293,0.171,2.654,0.159c-0.04,0.09,0.014,0.214,0.162,0.363
			c0.131-0.128,0.271-0.191,0.422-0.187c0.11,0.002,0.277,0.051,0.498,0.147C552.103,90.768,552.259,90.817,552.354,90.818z"></path>
		<path fill="#010101" d="M562.784,100.443c-0.26-0.115-0.538-0.175-0.835-0.182c-0.262-0.004-0.617,0.046-1.066,0.15
			c-0.506,0.103-0.851,0.162-1.037,0.178c-0.199-0.395-0.338-0.937-0.418-1.629c-0.15-1.008-0.246-1.577-0.279-1.711
			c0.059-0.11,0.088-0.203,0.088-0.275c0.004-0.206-0.156-0.391-0.479-0.556c-0.325-0.162-0.485-0.292-0.482-0.386
			c0.001-0.108,0.189-0.274,0.566-0.492c-0.091-0.112-0.158-0.342-0.199-0.687c-0.039-0.346-0.125-0.576-0.253-0.69
			c-0.228,0.202-0.597,0.331-1.11,0.386c-0.514,0.059-0.854,0.141-1.023,0.248c0.011,1.454-0.229,2.43-0.721,2.923
			c-0.26-0.06-0.459,0.04-0.592,0.3c-0.193,0.312-0.355,0.495-0.486,0.549l0.164,0.198c-0.15,0.128-0.395,0.181-0.729,0.156
			c-0.521-0.028-0.801-0.042-0.838-0.042l-0.158-0.508l1.82-15.089c0.018-0.95,0.064-1.595,0.145-1.928
			c-0.023-0.84,0.172-1.358,0.584-1.556c0.259,0.172,0.584,0.261,0.975,0.269c0.318,0.006,0.812-0.061,1.484-0.199
			c0.676-0.137,1.142-0.205,1.402-0.201c0.912,0.018,1.311,0.676,1.197,1.979c-0.093,1.042,0.07,2.415,0.487,4.117
			c0.436,1.835,0.646,3.208,0.63,4.122c-0.006,0.277,0.087,0.857,0.063,1.136c-0.396,0.217-0.899,0.349-1.515,0.393
			c-0.541,0.029-1.093,0.059-1.651,0.084c-0.144-1.419-0.394-3.127-0.538-4.528c-0.176-1.68-0.395-3.061-0.656-4.147l-0.863,7.979
			c-0.066,0.689,0.245,1.04,0.935,1.052c0.224,0.004,0.437-0.049,0.646-0.157c0.168-0.053,0.4,0.071,0.692,0.375
			c-0.011,0.577,0.104,0.924,0.345,1.041c0.303-0.2,0.696-0.39,1.184-0.569c0.431-0.158,0.855-0.31,1.268-0.452
			c0.234,0.321,0.387,0.798,0.451,1.434c0.076,0.896,0.133,1.42,0.168,1.567c0.031,0.355,0.176,1.121,0.435,2.301
			c0.19,0.933,0.279,1.69,0.271,2.268C562.848,99.942,562.824,100.202,562.784,100.443z"></path>
		<path fill="#010101" d="M575.654,87.132c-0.021,0.057-0.025,0.383-0.016,0.979c-0.01,0.485-0.07,0.847-0.187,1.087
			c-0.139,0.371-0.21,0.902-0.224,1.591c-0.003,0.149,0.002,0.382,0.016,0.698c-0.006,0.318-0.009,0.551-0.011,0.699
			c-0.021,1.174-0.222,2.026-0.604,2.561c0.033,0.301,0.047,0.598,0.044,0.896c-0.017,0.932-0.336,2.185-0.959,3.759
			c-0.169,0.054-0.311,0.077-0.423,0.076c-0.223-0.005-0.383-0.135-0.482-0.387c-0.099-0.253-0.19-0.492-0.279-0.717
			c0.061-1.433,0.031-3.521-0.091-6.264l0.171-0.165c-0.123-0.484-0.178-1.026-0.168-1.622c0.007-0.43,0.061-1.053,0.156-1.871
			c0.1-0.818,0.151-1.434,0.158-1.843c0.006-0.261-0.002-0.511-0.014-0.754c-0.643,1.536-1.097,4.136-1.363,7.802l-0.234,0.556
			c-0.077,0.187-0.237,0.286-0.479,0.301c-0.073-0.131-0.146-0.198-0.22-0.199c-0.057-0.003-0.155,0.065-0.297,0.204
			c-0.144,0.137-0.261,0.195-0.353,0.176l-0.371,0.328c0.164,0.208,0.518,0.232,1.062,0.076c0.429-0.125,0.65,0.038,0.662,0.485
			c0.012,0.372-0.09,0.874-0.305,1.505c-0.217,0.628-0.326,1.102-0.332,1.42c-0.004,0.224,0.021,0.447,0.072,0.67l-1.934,0.303
			c-0.18-0.375-0.313-1.007-0.402-1.894c-0.086-0.884-0.221-1.518-0.4-1.893c0.113-0.128,0.172-0.266,0.174-0.416
			c0.002-0.131-0.049-0.327-0.157-0.589c-0.106-0.265-0.168-0.46-0.186-0.592c-0.015-0.204-0.08-0.701-0.198-1.484
			c-0.082-0.634-0.121-1.131-0.115-1.482c0.004-0.188,0.017-0.355,0.037-0.505c0.002-0.129-0.07-0.321-0.213-0.577
			c-0.146-0.253-0.217-0.436-0.213-0.548c0-0.093,0.038-0.175,0.113-0.249c-0.128-0.152-0.18-0.413-0.154-0.784
			c0.025-0.374-0.027-0.636-0.153-0.785c-0.274,0.72-0.42,1.696-0.442,2.925c-0.01,1.715-0.027,2.704-0.05,2.963l0.193,0.174
			l-0.198,0.161c0.137,0.673,0.198,1.533,0.18,2.575c-0.051,1.882-0.074,2.757-0.073,2.629c-0.265,0.235-0.63,0.352-1.097,0.343
			c-0.576-0.009-0.97,0.041-1.176,0.147c-0.234-0.414-0.348-0.946-0.336-1.598c0.008-0.504,0.094-1.116,0.256-1.842
			c-0.254-0.472-0.373-1.124-0.359-1.963c0.004-0.206,0.029-0.595,0.076-1.174c0.027-0.463,0.032-0.809,0.019-1.032
			c0.187-0.09,0.282-0.189,0.283-0.303c0.003-0.074-0.056-0.202-0.175-0.381c-0.118-0.177-0.176-0.313-0.176-0.408
			c0.003-0.111,0.079-0.222,0.229-0.332l-0.603-9.039c0.359-0.235,0.939-0.347,1.74-0.333c0.875,0.034,1.474-0.013,1.791-0.135
			c0.058-0.039,0.122-0.056,0.197-0.056c0.076,0.003,0.162,0.046,0.264,0.131s0.17,0.129,0.207,0.129
			c0.074,0.001,0.141-0.054,0.199-0.166l0.521,0.515c0.176,0.655,0.341,1.925,0.496,3.808c0.158,1.625,0.406,2.852,0.748,3.677
			c0.457-1.65,0.833-3.033,1.132-4.145l0.606-4.425l4.333-0.095c0.017,0.241,0.069,1.538,0.187,2.286
			c0.099,0.652,0.146,1.185,0.14,1.594c-0.007,0.467-0.079,0.886-0.218,1.255c0.145,0.208,0.217,0.47,0.211,0.784
			C575.887,86.672,575.806,86.929,575.654,87.132z"></path>
		<path fill="#010101" d="M584.544,96.929l0.001-0.028c-0.115,0.239-0.187,0.519-0.209,0.835c-0.021,0.204-0.028,0.492-0.016,0.865
			c0.011,0.428,0.016,0.727,0.014,0.896c-0.15-0.003-0.746-0.014-1.789-0.03c-0.634-0.011-1.202,0.044-1.708,0.167l-0.521-0.568
			c-0.153,0.146-0.21,0.266-0.175,0.359c-0.092-0.02-0.521-0.026-1.285-0.021c-0.596-0.009-1.043-0.075-1.337-0.19
			c-0.306,0.313-0.659,0.306-1.063-0.018c-0.146-0.113-0.162-0.306-0.047-0.573c0.117-0.269,0.083-0.469-0.1-0.604
			c0.027-0.595,0.109-1.517,0.242-2.764c0.131-1.114,0.2-1.99,0.211-2.623c0.014-0.857-0.045-1.679-0.181-2.463
			c0.21-0.201,0.442-0.3,0.704-0.295c0.299,0.003,0.65,0.15,1.055,0.438c0.568,0.397,0.867,0.602,0.884,0.602l0.163,0.197
			c0.021-0.057,0.119-0.353,0.295-0.89c0.1-0.352,0.244-0.581,0.433-0.691l0.165,0.171c0.075-0.035,0.319-0.209,0.736-0.519
			c0.317-0.22,0.58-0.736,0.766-0.73c0.206,0.001,0.396,0.118,0.581,0.345c0.313,0.171,0.511,0.842,0.609,1.187
			c0.096,0.348,0.188,0.688,0.276,1.027c-0.838,0.022-1.529,0-2.068-0.064c-0.133,0.203-0.32,0.232-0.561,0.089
			c-0.239-0.143-0.416-0.123-0.531,0.059c-0.006,0.337-0.018,0.944-0.031,1.818c-0.033,0.781-0.042,1.396-0.03,1.845
			c0.006,0.689,0.051,1.323,0.134,1.901c0.148,0.004,0.856,0.017,2.123,0.038C583.16,96.709,583.913,96.786,584.544,96.929z
			 M584.604,83.539c-0.168,0.017-0.353,0.022-0.559,0.02c-0.428-0.007-0.996-0.075-1.701-0.198
			c-0.875-0.125-1.404-0.199-1.591-0.222c-0.267,0.386-0.405,0.934-0.419,1.642c-0.025,1.528-0.025,2.189-0.005,1.984
			c0.259,0.153,0.384,0.437,0.376,0.846c-0.028,0.559-0.032,0.849-0.014,0.866c-0.131,0.053-0.2,0.238-0.205,0.555
			c-0.205-0.077-0.416-0.23-0.635-0.458c-0.294-0.285-0.45,0.68-0.428,0.439l-0.178,0.573l-0.164-0.17
			c-0.15,0.017-0.405-0.062-0.765-0.236c-0.362-0.175-0.614-0.334-0.761-0.488c0.006-0.298,0.055-0.465,0.148-0.501l-0.356-0.396
			l-0.171,0.247c-0.21-1.942-0.158-5.571,0.098-7.617c0.708,0.122,1.489,0.202,2.346,0.235c0.578,0.028,1.387,0.042,2.431,0.042
			c1.193,0.001,2.052,0.005,2.573,0.014c0.218,0.208,0.326,0.481,0.32,0.816c-0.002,0.206-0.061,0.536-0.17,0.989
			C584.664,82.979,584.607,83.314,584.604,83.539z"></path>
	</g>
	<g>
		<path fill="#010101" d="M553.193,113.828v-0.015c0,0.01-0.049,0.422-0.145,1.233c-0.049,0.498-0.168,0.891-0.36,1.176
			l-0.122-0.098c-0.227,0.474-0.533,0.763-0.925,0.865c-0.187,0.196-0.456,0.305-0.808,0.326c-0.209,0.013-0.691-0.049-1.447-0.182
			c-0.366-0.228-0.566-0.354-0.602-0.379c-0.23-0.172-0.34-0.347-0.328-0.526c-0.222-0.226-0.535-0.631-0.652-1.137
			c-0.143-0.562-0.229-0.591-0.361-0.789c-0.211,0.156-0.287-0.174-0.408-0.373l0.109-0.083c-0.068-0.05-0.105-0.106-0.109-0.169
			c-0.002-0.044,0.019-0.108,0.056-0.196c0.04-0.086,0.06-0.15,0.056-0.195c-0.005-0.069-0.046-0.131-0.126-0.178
			c0.085-0.441,0.162-1.103,0.231-1.982c0.15-0.081,0.221-0.234,0.213-0.466c-0.008-0.229,0.025-0.382,0.098-0.456
			c0.354-0.714,0.934-1.194,1.734-1.444c0.044,0.005,0.258,0.001,0.644-0.011c0.264-0.007,0.464,0.016,0.599,0.071
			c0.24-0.042,0.48,0.018,0.72,0.171c0.208,0.157,0.417,0.312,0.622,0.47c0.389,0.42,0.599,0.897,0.63,1.427
			c0.01,0.175-0.002,0.363-0.034,0.559c-0.287-0.008-0.49,0.179-0.611,0.569l-1.117,0.104c-0.119-0.17-0.189-0.397-0.205-0.681
			c-0.006-0.097-0.004-0.239,0-0.424c0.005-0.188,0.006-0.329,0-0.426c-0.018-0.292-0.085-0.521-0.206-0.694l-0.335,0.192
			c-0.137-0.054-0.205-0.133-0.212-0.239c-0.002-0.035,0.003-0.088,0.016-0.153c0.013-0.069,0.019-0.114,0.017-0.142
			c-0.006-0.114-0.109-0.183-0.309-0.21c-0.137,1.259-0.178,2.552-0.123,3.878c0.035,0.043,0.142,0.071,0.318,0.09
			c0.145,0.017,0.219,0.062,0.222,0.131c0.003,0.028-0.005,0.063-0.026,0.109l-0.109,0.086c0.059,0.093,0.096,0.227,0.105,0.394
			c0.004,0.087,0.002,0.223-0.01,0.406c-0.012,0.183-0.015,0.318-0.01,0.405c0.017,0.265,0.082,0.466,0.201,0.602
			c-0.012,0.193,0.068,0.328,0.236,0.396c0.107-0.041,0.205-0.062,0.295-0.068c0.34-0.021,0.576,0.166,0.709,0.556
			c0.001,0.01-0.002,0.075-0.004,0.201c0.004,0.071,0.039,0.116,0.106,0.14c0.148-0.09,0.222-0.249,0.22-0.479
			c-0.003-0.265,0.031-0.436,0.102-0.51c-0.018-0.124-0.09-0.302-0.22-0.532c-0.13-0.233-0.196-0.414-0.206-0.548
			c-0.008-0.141,0.035-0.275,0.125-0.404c-0.078-0.024-0.113-0.074-0.107-0.155c0.004-0.125,0.006-0.191,0.006-0.199
			C551.949,113.691,552.568,113.688,553.193,113.828z"></path>
		<path fill="#010101" d="M558.251,114.865h-0.014c-0.065,0.126-0.085,0.311-0.063,0.548c0.031,0.336,0.048,0.509,0.048,0.517
			c-0.05,0.021-0.12-0.006-0.204-0.074c-0.13,0.049-0.193,0.131-0.186,0.245c0,0.018,0.008,0.046,0.021,0.086
			c0.001,0.049,0.005,0.082,0.005,0.099c0.006,0.09-0.021,0.157-0.08,0.203c-0.148-0.082-0.344-0.135-0.584-0.159
			c-0.244-0.021-0.475-0.044-0.689-0.063c-0.004-1.121-0.154-2.22-0.453-3.289c0,0.008-0.006-0.101-0.02-0.334
			c0.002-0.164-0.035-0.281-0.111-0.352l-0.102,0.092c-0.002-0.017,0.031-0.047,0.101-0.097s0.104-0.1,0.1-0.149
			c-0.003-0.024-0.009-0.049-0.021-0.071l-0.112-0.081c-0.19,0.062-0.278,0.216-0.265,0.459c0.01,0.165-0.057,0.281-0.194,0.346
			c0.054,0.039,0.081,0.089,0.083,0.145c0.004,0.033-0.001,0.08-0.014,0.139c-0.013,0.057-0.018,0.102-0.015,0.137
			c0.003,0.071,0.044,0.132,0.117,0.177c0.004,0.05,0.028,0.494,0.077,1.333c0.031,0.534,0.016,0.987-0.043,1.361l0.012,0.209
			c-0.072-0.003-0.155-0.001-0.246,0.002c-0.102,0.008-0.25,0.022-0.443,0.047c-0.191,0.023-0.336,0.037-0.427,0.043
			c-0.378,0.021-0.644-0.043-0.796-0.19l-0.159-4.604c-0.075-0.225-0.124-0.541-0.147-0.943l-0.051-0.889
			c-0.036-0.435-0.092-0.769-0.167-1.003c0.032-0.16,0.171-0.246,0.416-0.26c0.153-0.009,0.358,0.011,0.618,0.063
			c0.119-0.055,0.287-0.09,0.502-0.104c0.061-0.006,0.158-0.006,0.291-0.006c0.143-0.008,0.245-0.014,0.306-0.018
			c0.4-0.021,0.663-0.145,0.794-0.367c0.186-0.003,0.386,0.057,0.604,0.175c0.215,0.12,0.406,0.185,0.57,0.189
			c0.436,0.255,0.669,0.679,0.705,1.271c0.008,0.132-0.045,0.654-0.156,1.567l-0.746,0.648c0.127,0.232,0.279,0.738,0.457,1.521
			C557.719,114.083,557.945,114.561,558.251,114.865z M556.871,109.626l0.016,0.011c0.015,0.057,0.008-0.146-0.02-0.603
			c-0.012-0.223-0.094-0.383-0.244-0.482c-0.084,0.12,0.013,0.177-0.028,0.454c-0.038,0.279-0.204,0.201-0.3,0.322
			c-0.256,0-0.314,0.154-0.37-0.09c-0.114-0.398-0.214-0.363-0.215-0.37l-0.108,0.064c-0.04,0.035-0.084,0.074-0.132,0.12
			c-0.048,0.045-0.099,0.058-0.15,0.046c0.003,0.05-0.021,0.126-0.071,0.232s-0.074,0.178-0.072,0.22
			c0.006,0.075,0.063,0.129,0.18,0.164c-0.021,0.165-0.026,0.339-0.018,0.52c0.007,0.098,0.029,0.324,0.071,0.676
			c0.047,0.277,0.065,0.516,0.056,0.713c0.094,0.003,0.18,0.003,0.262-0.001c0.358-0.021,0.591-0.163,0.698-0.424
			c0.036-0.075,0.077-0.352,0.122-0.823C556.586,110.02,556.694,109.768,556.871,109.626z"></path>
		<path fill="#010101" d="M564.055,116.653c-0.146-0.043-0.301-0.058-0.465-0.048c-0.143,0.008-0.335,0.044-0.576,0.106
			c-0.275,0.065-0.462,0.106-0.562,0.119c-0.125-0.165-0.22-0.399-0.287-0.699c-0.119-0.439-0.19-0.687-0.213-0.743
			c0.029-0.05,0.041-0.093,0.039-0.127c-0.006-0.09-0.102-0.164-0.282-0.225c-0.185-0.058-0.276-0.11-0.278-0.15
			c-0.002-0.049,0.094-0.128,0.294-0.238c-0.055-0.048-0.098-0.146-0.132-0.298c-0.035-0.149-0.088-0.246-0.164-0.292
			c-0.117,0.099-0.314,0.17-0.594,0.216c-0.279,0.043-0.463,0.093-0.555,0.149c0.059,0.638,0,1.762-0.251,1.998
			c-0.144-0.016-0.247,0.035-0.314,0.156c-0.095,0.145-0.177,0.232-0.245,0.262l0.096,0.079c-0.079,0.064-0.21,0.096-0.393,0.099
			c-0.287,0.008-0.439,0.012-0.461,0.013l-0.104-0.218l0.431-7.402c-0.023-0.418-0.02-0.703,0.011-0.853
			c-0.042-0.369,0.048-0.606,0.267-0.71c0.148,0.066,0.328,0.092,0.543,0.08c0.173-0.01,0.444-0.057,0.807-0.146
			c0.363-0.087,0.617-0.134,0.761-0.143c0.5-0.028,0.741,0.245,0.724,0.823c-0.015,0.462,0.123,1.06,0.412,1.794
			c0.302,0.789,0.463,1.387,0.486,1.791c0.008,0.122,0.173,0.385,0.17,0.509c-0.211,0.11-0.482,0.187-0.817,0.231
			c-0.296,0.035-0.595,0.069-0.901,0.103c-0.128-0.619-0.418-1.371-0.545-1.984c-0.156-0.732-0.324-1.331-0.504-1.802l-0.195,3.55
			c-0.012,0.306,0.172,0.447,0.549,0.426c0.121-0.007,0.238-0.039,0.348-0.095c0.092-0.029,0.221,0.017,0.392,0.138
			c0.015,0.256,0.091,0.405,0.228,0.445c0.157-0.1,0.367-0.199,0.627-0.296c0.23-0.087,0.457-0.171,0.678-0.249
			c0.142,0.132,0.238,0.337,0.299,0.612c0.072,0.394,0.121,0.619,0.146,0.686c0.029,0.154,0.136,0.487,0.318,0.996
			c0.138,0.403,0.213,0.733,0.228,0.987C564.07,116.428,564.068,116.544,564.055,116.653z"></path>
		<path fill="#010101" d="M568.285,108.254h0.015c-0.122,0.181-0.278,0.215-0.47,0.103c-0.041-0.008-0.226,0.004-0.553,0.031
			c-0.274,0.017-0.475,0.001-0.602-0.04c-0.029,0.004-0.091,0.033-0.178,0.091c-0.09,0.062-0.153,0.089-0.195,0.092
			c-0.061,0.006-0.096-0.048-0.102-0.155c-0.002-0.015-0.006-0.086-0.012-0.208c-0.005-0.082-0.045-0.139-0.117-0.167l-0.191,0.148
			c-0.059,0.044-0.088,0.09-0.084,0.14c0.002,0.04,0.037,0.099,0.104,0.174c0.064,0.074,0.104,0.128,0.115,0.158
			c0.002,0.026,0.023,0.396,0.064,1.11c0.015,0.455,0.1,0.816,0.248,1.087c0.037-0.043,0.131-0.067,0.279-0.07
			c0.148-0.005,0.246-0.037,0.295-0.098c0.098,0.083,0.258,0.09,0.484,0.015c0.228-0.076,0.391-0.052,0.49,0.076l-0.03,1.091
			c-0.093-0.013-0.229-0.057-0.407-0.136c-0.053,0.158-0.154,0.26-0.305,0.3c-0.062,0.021-0.234,0.038-0.52,0.055
			c0.008-0.05-0.037-0.101-0.134-0.151c-0.277,0.132-0.384,0.446-0.313,0.945c0.008-0.051,0.018,0.036,0.031,0.258
			c0.008,0.139-0.021,0.241-0.09,0.302c-0.174,0.025-0.393-0.013-0.66-0.116c-0.266-0.104-0.458-0.153-0.57-0.146
			c-0.05,0.003-0.098,0.01-0.137,0.021l-0.287,0.09l-0.459-4.981l-0.055-0.949c0.381-0.128,0.854-0.21,1.416-0.242
			c0.439-0.025,1.014-0.021,1.723,0.011c0.045-0.093,0.129,0.028,0.232,0.024c0.051-0.004,0.127,0.002,0.23,0.016
			c0.104,0.015,0.182,0.021,0.233,0.018c0.06-0.003,0.115-0.015,0.165-0.033l0.072-0.08c0.209,0.062,0.318,0.173,0.327,0.327
			c0.005,0.066-0.017,0.18-0.059,0.338c-0.04,0.159-0.06,0.281-0.056,0.362C568.232,108.133,568.252,108.199,568.285,108.254z
			 M566.492,116.567c-0.108,0.057-0.277,0.089-0.502,0.104c-0.295,0.017-0.473,0.032-0.535,0.043
			c-0.031-0.031-0.07-0.006-0.137-0.266c-0.043-0.171-0.15-0.252-0.322-0.24c-0.042,0.002-0.091,0.009-0.152,0.02l-0.276,0.018
			l-0.147-2.522c0.151-0.073,0.338-0.117,0.562-0.131c0.215-0.012,0.405,0.01,0.571,0.064c-0.003,0.093,0.127,0.132,0.392,0.113
			l0.292-0.018C566.41,114.463,566.518,115.742,566.492,116.567z"></path>
		<path fill="#010101" d="M574.412,108.471l0.016,0.012c-0.145-0.01-0.606,0.022-0.963,0.066c-0.305,0.035-0.535,0.041-0.689,0.017
			c-0.148,0.1-0.203,0.234-0.162,0.403l0.095,0.057c-0.078,0.073-0.105,0.127-0.081,0.167l0.081,0.081
			c-0.019,1.462-0.022,2.27-0.012,2.426c0.021,0.387,0.066,0.726,0.134,1.02c-0.061,0.185-0.084,0.396-0.069,0.635
			c0.009,0.154,0.045,0.402,0.11,0.741c0.067,0.338,0.154,1.45,0.165,1.624c0.007,0.129,0.005,0.255-0.009,0.369
			c-0.142,0.059-0.293,0.092-0.456,0.103c-0.276,0.016-0.571-0.041-0.888-0.172c-0.037,0.035-0.081,0.072-0.131,0.113
			c-0.048,0.04-0.061,0.085-0.037,0.133c-0.102,0.028-0.243-0.012-0.424-0.125c-0.097-1.479-0.359-4.493-0.752-7.538
			c-0.139,0.124-0.393,0.021-0.656,0.054c-0.315,0.034-0.625-0.015-0.745,0.042c-0.153-0.164-0.119-0.213-0.134-0.483
			c-0.017-0.263-0.102-0.911-0.033-1.182c0.014-0.06,0.586-0.025,0.923-0.054c0.459-0.025,0.561,0.083,0.591,0.08
			c0.037-0.059,0.262-0.029,0.424-0.04c0.105,0.051,0.221-0.047,0.224,0.028c0.005,0.049,0,0.359-0.034,0.448
			c-0.036,0.09-0.053,0.155-0.051,0.195c0.006,0.099,0.077-0.046,0.243,0.011c0.185-0.004,0.374-0.011,0.567-0.021
			c0.217,0.02,0.466-0.058,0.446,0.125c0.037-0.053,0.062,0.039,0.371-0.086c0.229-0.105,0.37-0.374,0.325-0.559
			c-0.025-0.102,0.113-0.168,0.026-0.12c0.111-0.062,0.011-0.019,0.131-0.067c0.383,0.038,0.593-0.002,0.665-0.006
			c0.154-0.01,0.535,0.088,0.643,0.033c0.08,0.144,0.121,0.594,0.125,0.841C574.403,108.235,574.411,108.445,574.412,108.471z"></path>
		<path fill="#010101" d="M579.377,113.615l-0.002-0.012c-0.055,0.109-0.084,0.235-0.084,0.376c-0.008,0.09,0,0.218,0.021,0.384
			c0.022,0.187,0.034,0.317,0.039,0.393c-0.083,0.004-0.41,0.021-0.982,0.058c-0.346,0.02-0.655,0.065-0.929,0.141l-0.306-0.231
			c-0.077,0.071-0.104,0.127-0.081,0.166c-0.051-0.005-0.287,0.009-0.705,0.041c-0.328,0.02-0.574,0.008-0.741-0.031
			c-0.154,0.148-0.349,0.16-0.581,0.033c-0.084-0.043-0.1-0.127-0.045-0.251c0.054-0.123,0.027-0.21-0.078-0.261
			c-0.004-0.263,0.008-0.672,0.037-1.227c0.034-0.497,0.041-0.886,0.024-1.166c-0.022-0.377-0.085-0.736-0.185-1.077
			c0.107-0.097,0.231-0.147,0.374-0.155c0.163-0.012,0.36,0.04,0.595,0.148c0.326,0.155,0.494,0.232,0.504,0.232l0.097,0.079
			c0.009-0.022,0.052-0.159,0.13-0.404c0.043-0.157,0.113-0.265,0.213-0.318l0.096,0.067c0.04-0.018,0.17-0.104,0.385-0.256
			c0.168-0.11,0.283-0.511,0.387-0.516c0.11-0.007,0.222,0.036,0.33,0.128c0.177,0.064,0.318,0.514,0.383,0.662
			c0.064,0.149,0.128,0.296,0.188,0.44c-0.459,0.043-0.839,0.062-1.135,0.054c-0.066,0.096-0.169,0.116-0.304,0.062
			c-0.137-0.055-0.233-0.037-0.291,0.049c0.01,0.146,0.025,0.413,0.047,0.8c0.011,0.346,0.025,0.616,0.047,0.812
			c0.027,0.304,0.076,0.581,0.142,0.835c0.082-0.007,0.472-0.028,1.165-0.067C578.609,113.574,579.024,113.578,579.377,113.615z
			 M578.901,107.816c-0.091,0.013-0.194,0.024-0.308,0.028c-0.232,0.015-0.543,0.009-0.938-0.019
			c-0.482-0.021-0.775-0.033-0.879-0.036c-0.131,0.183-0.149,0.328-0.131,0.641c0.039,0.673,0.062,0.965,0.066,0.874
			c0.146,0.058,0.227,0.178,0.235,0.359c0.005,0.246,0.011,0.371,0.022,0.381c-0.07,0.026-0.1,0.113-0.094,0.253
			c-0.113-0.027-0.234-0.086-0.363-0.178c-0.172-0.113-0.225,0.289-0.221,0.183l-0.077,0.252l-0.097-0.071
			c-0.08,0.014-0.223-0.011-0.426-0.074c-0.203-0.062-0.35-0.124-0.434-0.185c-0.006-0.13,0.013-0.205,0.062-0.226l-0.209-0.162
			l-0.084,0.118c-0.182-0.849-0.305-2.342-0.234-3.253c0.391,0.027,0.848-0.039,1.316-0.059c0.316-0.011,0.763-0.035,1.334-0.077
			c0.653-0.046,1.121-0.078,1.406-0.095c0.129,0.084,0.199,0.2,0.206,0.347c0.007,0.092-0.013,0.238-0.058,0.442
			C578.953,107.466,578.896,107.716,578.901,107.816z"></path>
		<path fill="#010101" d="M584.473,112.739l-0.015,0.002c-0.063,0.128-0.085,0.311-0.062,0.546c0.031,0.338,0.045,0.511,0.047,0.519
			c-0.051,0.021-0.119-0.004-0.205-0.074c-0.131,0.049-0.192,0.131-0.186,0.246c0.002,0.017,0.008,0.043,0.02,0.084
			c0.003,0.05,0.005,0.082,0.007,0.1c0.005,0.09-0.022,0.157-0.081,0.203c-0.148-0.083-0.344-0.136-0.586-0.159
			c-0.242-0.022-0.471-0.046-0.688-0.067c-0.004-1.118-0.154-2.215-0.451-3.287c0,0.01-0.008-0.102-0.02-0.332
			c0-0.164-0.037-0.281-0.113-0.352l-0.102,0.093c0-0.016,0.031-0.049,0.102-0.098c0.067-0.05,0.102-0.1,0.1-0.149
			c-0.004-0.024-0.01-0.049-0.021-0.074l-0.112-0.081c-0.19,0.062-0.279,0.214-0.263,0.462c0.008,0.164-0.059,0.281-0.197,0.346
			c0.053,0.038,0.082,0.086,0.086,0.143c0.002,0.034-0.004,0.079-0.016,0.136c-0.012,0.06-0.018,0.105-0.016,0.14
			c0.004,0.072,0.043,0.133,0.117,0.179c0.004,0.05,0.029,0.492,0.078,1.331c0.031,0.534,0.018,0.989-0.044,1.362l0.014,0.21
			c-0.071-0.004-0.154-0.004-0.247,0.003c-0.102,0.006-0.25,0.02-0.443,0.043c-0.193,0.024-0.334,0.039-0.428,0.044
			c-0.376,0.021-0.643-0.04-0.794-0.189l-0.16-4.604c-0.075-0.227-0.124-0.541-0.147-0.943l-0.052-0.888
			c-0.035-0.436-0.089-0.771-0.165-1.005c0.031-0.158,0.17-0.245,0.414-0.259c0.155-0.01,0.359,0.011,0.619,0.063
			c0.121-0.058,0.287-0.093,0.501-0.104c0.062-0.004,0.159-0.005,0.291-0.005c0.144-0.008,0.247-0.015,0.308-0.019
			c0.398-0.021,0.664-0.146,0.795-0.366c0.184-0.001,0.385,0.056,0.6,0.174c0.217,0.121,0.408,0.184,0.575,0.189
			c0.433,0.256,0.669,0.679,0.702,1.272c0.007,0.132-0.045,0.654-0.155,1.568l-0.747,0.646c0.127,0.233,0.279,0.739,0.459,1.52
			C583.939,111.959,584.17,112.436,584.473,112.739z M583.092,107.502l0.017,0.011c0.014,0.057,0.007-0.146-0.019-0.603
			c-0.014-0.226-0.096-0.384-0.244-0.481c-0.084,0.118-0.102-0.161-0.141,0.118c-0.04,0.279-0.107,0.478-0.202,0.6
			c-0.257-0.001-0.316-0.154-0.47-0.369c-0.096-0.136-0.141-0.018-0.141-0.025l-0.07,0.056c-0.039,0.036-0.082,0.075-0.131,0.12
			c-0.049,0.044-0.1,0.059-0.152,0.045c0.004,0.049-0.021,0.128-0.07,0.233c-0.049,0.104-0.074,0.179-0.072,0.221
			c0.006,0.074,0.064,0.126,0.181,0.163c-0.022,0.165-0.028,0.339-0.019,0.521c0.008,0.098,0.029,0.322,0.071,0.675
			c0.046,0.277,0.065,0.516,0.058,0.714c0.093,0.004,0.179,0.002,0.261-0.003c0.356-0.021,0.59-0.162,0.697-0.423
			c0.035-0.077,0.077-0.353,0.122-0.824C582.808,107.893,582.918,107.644,583.092,107.502z"></path>
	</g>
	<g>
		<path fill="#010101" d="M533.67,91.504v0.012c-0.045,0.428-0.061,0.724-0.044,0.885c-0.065,0.027-0.153,0.031-0.257,0.014
			c-0.137-0.022-0.215-0.033-0.236-0.032c-0.061,0.003-0.107,0.024-0.143,0.062c-0.086-0.054-0.143-0.076-0.172-0.068
			c-0.08,0.049-0.117,0.117-0.113,0.207c0.003,0.038,0.017,0.102,0.045,0.193c0.025,0.094,0.041,0.159,0.043,0.204
			c0.002,0.061-0.009,0.153-0.037,0.282c-0.025,0.128-0.037,0.232-0.034,0.315c0.006,0.096,0.025,0.249,0.063,0.456
			c0.036,0.206,0.057,0.362,0.062,0.466c-0.042,0.203-0.058,0.409-0.048,0.618c0.014,0.253,0.084,0.592,0.209,1.019
			c0.023,0.007,0.045,0.01,0.068,0.007c0.051-0.002,0.113-0.039,0.185-0.11c0.071-0.068,0.132-0.104,0.185-0.107
			c0.037-0.003,0.078,0.005,0.123,0.025c0.136,0.434,0.205,0.714,0.211,0.84c0.003,0.061,0.002,0.124-0.001,0.189
			c-0.2,0.049-0.341-0.02-0.425-0.201c0.012-0.053-0.018-0.108-0.086-0.165l-0.224,0.236c0.218,0.033,0.304,0.2,0.261,0.5
			c-0.021,0.062-0.066,0.095-0.142,0.098c-0.128-0.002-0.187-0.002-0.179-0.002l-0.184-0.327l-0.074,0.093
			c-0.061-0.153-0.131-0.227-0.213-0.222c-0.045,0.003-0.123,0.039-0.234,0.11c-0.113,0.074-0.206,0.111-0.279,0.114
			c-0.061,0.006-0.119-0.011-0.182-0.044c-0.005-0.09-0.015-0.182-0.031-0.279c-0.016-0.096-0.066-0.157-0.148-0.183
			c-0.005-0.233,0.003-0.839,0.02-1.825c0.008-0.746,0-1.351-0.024-1.812c-0.01-0.193-0.022-0.383-0.04-0.567
			c-0.039-0.058-0.078-0.086-0.115-0.083c-0.03,0.001-0.076,0.032-0.135,0.096c-0.061,0.062-0.113,0.091-0.158,0.086
			c-0.004-0.074-0.038-0.194-0.102-0.358c-0.064-0.164-0.098-0.282-0.104-0.357c-0.006-0.127,0.041-0.237,0.141-0.331l0.262,0.062
			c0.104-0.146,0.147-0.393,0.13-0.743c-0.003-0.066-0.013-0.175-0.026-0.318c-0.017-0.145-0.025-0.249-0.029-0.316
			c-0.027-0.573,0.148-0.869,0.527-0.889c0.141-0.008,0.312,0.018,0.518,0.075l0.25,0.065c0.02,0.096,0.032,0.194,0.037,0.3
			c0.006,0.143,0.002,0.349-0.02,0.622c-0.02,0.274-0.025,0.474-0.02,0.599c0.01,0.202,0.043,0.384,0.105,0.545
			c0.059-0.004,0.152-0.037,0.281-0.098c0.127-0.063,0.219-0.096,0.279-0.099C533.52,91.354,533.604,91.401,533.67,91.504z
			 M532.893,92.304l-0.013-0.256l-0.081-0.075L532.893,92.304z"></path>
		<path fill="#010101" d="M536.738,90.7l0.012-0.001c-0.027,0.203-0.058,0.406-0.092,0.609c-0.04,0.232-0.106,0.415-0.197,0.547
			c-0.015-0.007-0.107-0.049-0.273-0.132c-0.116-0.061-0.219-0.085-0.307-0.074c-0.068,0.438-0.104,1.031-0.111,1.785
			c-0.004,0.962-0.013,1.544-0.023,1.745c-0.113-0.008-0.196,0.027-0.252,0.109c-0.057,0.081-0.107,0.162-0.156,0.248
			c-0.02,0.046-0.028,0.087-0.027,0.124c0.003,0.06,0.055,0.118,0.154,0.171c0.1,0.055,0.15,0.115,0.154,0.183
			c-0.043,0.159-0.139,0.242-0.279,0.249c-0.065,0.003-0.183-0.018-0.35-0.06c-0.164-0.045-0.281-0.065-0.35-0.062l-0.161-3.191
			c0.063-0.084,0.091-0.143,0.082-0.171l-0.093-0.062c0.008-0.135,0.016-0.806,0.021-2.006c0.005-0.813,0.035-1.471,0.092-1.974
			c-0.006,0.001,0.223-0.015,0.69-0.046c0.29-0.015,0.479,0.066,0.562,0.241c0.001,0.163-0.016,0.438-0.049,0.829
			c-0.033,0.359-0.047,0.637-0.037,0.83c0.014,0.238,0.05,0.451,0.112,0.643C536.111,90.897,536.404,90.718,536.738,90.7z
			 M537.848,91.383c0.021,0.297,0.039,0.587,0.055,0.871c0.062,1.234,0.043,2.556-0.058,3.963c-0.106,0.096-0.272,0.115-0.496,0.062
			c-0.222-0.053-0.383-0.03-0.482,0.062c-0.128-0.164-0.202-0.46-0.224-0.894c-0.032-0.625-0.048-0.948-0.049-0.971
			c-0.027-1.563,0.127-2.829,0.458-3.793C537.438,90.784,537.701,91.017,537.848,91.383z"></path>
		<path fill="#010101" d="M541.764,93.004c-0.049,0.1-0.068,0.204-0.062,0.314c0.004,0.113,0.01,0.221,0.017,0.326
			c-0.013,0.089-0.036,0.179-0.076,0.273c-0.067-0.021-0.124-0.029-0.17-0.027c-0.052,0.003-0.104,0.021-0.157,0.058
			c-0.055,0.038-0.098,0.057-0.127,0.057c-0.046,0.004-0.105-0.014-0.182-0.046l-0.52-0.756c0.02,0.222,0.07,0.417,0.152,0.585
			c0.042,0.086,0.084,0.174,0.125,0.26c-0.303,0.056-0.475,0.064-0.514,0.027l-0.072,0.094l-0.18-0.236
			c-0.141,0.171-0.174,0.421-0.097,0.754c0.093,0.36,0.098,0.62,0.017,0.782c0.113,0.166,0.246,0.244,0.403,0.236
			c0.067-0.004,0.124-0.027,0.176-0.075c0.073-0.185,0.146-0.366,0.219-0.55c0.108-0.221,0.229-0.335,0.362-0.342
			c0.104-0.006,0.227,0.049,0.367,0.162c0.166,0.059,0.253,0.136,0.258,0.231c0.002,0.061-0.035,0.159-0.114,0.29
			c-0.079,0.137-0.117,0.24-0.114,0.315c0.003,0.028,0.007,0.054,0.016,0.078c-0.107,0.078-0.203,0.199-0.289,0.359
			c-0.086,0.162-0.197,0.272-0.336,0.332c-0.121,0.116-0.233,0.179-0.338,0.184c-0.082,0.004-0.204-0.06-0.367-0.188
			c-0.162-0.131-0.314-0.189-0.457-0.185c-0.058-0.13-0.203-0.277-0.435-0.436c-0.231-0.159-0.376-0.333-0.43-0.516
			c0.001,0.015-0.002-0.045-0.008-0.178c-0.005-0.075-0.036-0.123-0.097-0.142l0.084-0.082c-0.113-0.003-0.17-0.065-0.176-0.193
			c-0.002-0.014-0.003-0.045-0.006-0.09c0.006-0.037,0.008-0.066,0.007-0.09c-0.004-0.089-0.034-0.149-0.087-0.186l-0.02-0.389
			c-0.011-0.202-0.051-0.346-0.125-0.432c0.074-0.472,0.148-0.947,0.221-1.42c0.121-0.55,0.303-0.833,0.539-0.844
			c0.039-0.001,0.074,0.004,0.112,0.015c0.216-0.21,0.473-0.324,0.778-0.341c0.334-0.016,0.705,0.087,1.111,0.304
			C541.491,91.82,541.688,92.389,541.764,93.004z M540.225,91.771l-0.074,0.095c-0.051,0.009-0.113-0.017-0.182-0.08l0.012,0.256
			c-0.113,0.125-0.158,0.318-0.139,0.579c0.022,0.446,0.033,0.661,0.033,0.646l0.334-0.004c0.16-0.091,0.234-0.239,0.224-0.448
			c-0.005-0.104-0.04-0.275-0.109-0.515C540.256,92.061,540.223,91.887,540.225,91.771z"></path>
	</g>
	<g>
		<polygon fill-rule="evenodd" clip-rule="evenodd" fill="#010101" points="544.385,104.262 544.718,104.453 545.846,101.493 
			545.469,101.368 544.342,104.329 544.67,104.538 544.385,104.262 544.385,104.262 		"></polygon>
		<polygon fill-rule="evenodd" clip-rule="evenodd" fill="#010101" points="544.879,103.853 544.742,103.906 544.385,104.262 
			544.67,104.538 545.033,104.162 544.891,104.234 544.879,103.853 544.879,103.853 		"></polygon>
		<polygon fill-rule="evenodd" clip-rule="evenodd" fill="#010101" points="547.607,103.83 547.769,103.703 544.879,103.853 
			544.891,104.234 547.781,104.087 547.965,103.949 547.607,103.83 547.607,103.83 547.607,103.83 		"></polygon>
		<polygon fill-rule="evenodd" clip-rule="evenodd" fill="#010101" points="548.913,101.108 548.716,100.863 547.607,103.83 
			547.965,103.949 549.092,100.988 548.896,100.743 548.913,101.108 548.913,101.108 548.913,101.108 		"></polygon>
		<polygon fill-rule="evenodd" clip-rule="evenodd" fill="#010101" points="546.16,101.202 546.017,101.273 548.913,101.108 
			548.896,100.743 546.012,100.873 545.869,100.945 546.16,101.202 546.16,101.202 546.16,101.202 		"></polygon>
		<polygon fill-rule="evenodd" clip-rule="evenodd" fill="#010101" points="545.846,101.493 545.803,101.558 546.16,101.202 
			545.869,100.945 545.51,101.303 545.469,101.368 545.846,101.493 545.846,101.493 545.846,101.493 		"></polygon>
		<polygon fill-rule="evenodd" clip-rule="evenodd" fill="#010101" points="548.245,104.182 548.502,104.066 547.883,103.723 
			547.686,104.074 548.323,104.425 548.604,104.301 548.227,104.176 548.227,104.176 548.245,104.182 		"></polygon>
		<polygon fill-rule="evenodd" clip-rule="evenodd" fill="#010101" points="549.455,101.448 549.354,101.215 548.227,104.176 
			548.604,104.301 549.729,101.34 549.627,101.108 549.455,101.448 549.455,101.448 		"></polygon>
		<polygon fill-rule="evenodd" clip-rule="evenodd" fill="#010101" points="549.092,100.988 548.812,101.113 549.455,101.448 
			549.627,101.108 549.009,100.763 548.716,100.863 549.092,100.988 549.092,100.988 		"></polygon>
		<polygon fill="#010101" points="545.666,101.436 545.647,101.429 546.006,101.07 548.688,100.94 548.716,100.863 548.913,100.928 
			549.092,100.988 549.08,101.021 549.551,101.28 549.729,101.34 549.656,101.532 550.969,104.652 549.858,107.619 548.424,104.242 
			548.424,104.242 548.238,104.318 548.227,104.176 548.24,104.14 547.788,103.891 547.686,104.074 547.629,103.897 544.879,104.03 
			544.521,104.389 		"></polygon>
		<polygon fill-rule="evenodd" clip-rule="evenodd" fill="#010101" points="549.68,107.559 550.043,107.541 548.608,104.164 
			548.238,104.318 549.674,107.697 550.038,107.679 549.662,107.553 549.662,107.553 549.68,107.559 		"></polygon>
		<polygon fill-rule="evenodd" clip-rule="evenodd" fill="#010101" points="550.802,104.737 550.789,104.593 549.662,107.553 
			550.038,107.679 551.165,104.72 551.153,104.577 550.802,104.737 550.802,104.737 		"></polygon>
		<polygon fill-rule="evenodd" clip-rule="evenodd" fill="#010101" points="549.729,101.34 549.365,101.358 550.802,104.737 
			551.153,104.577 549.719,101.197 549.354,101.215 549.729,101.34 549.729,101.34 		"></polygon>
		<polygon fill-rule="evenodd" clip-rule="evenodd" fill="#FFFFFF" points="549.635,102.104 549.795,102.455 549.854,102.811 
			549.837,103.162 549.734,103.527 549.557,103.884 549.312,104.2 548.996,104.49 548.614,104.742 548.406,104.832 548.197,104.92 
			547.965,104.962 547.75,105.01 547.543,105.037 547.315,105.062 547.107,105.033 546.893,105.021 546.707,104.979 
			546.512,104.912 546.32,104.83 546.154,104.734 546.012,104.628 545.85,104.514 545.72,104.371 545.612,104.215 545.449,103.865 
			545.391,103.507 545.391,103.15 545.512,102.792 545.666,102.446 545.916,102.113 546.232,101.821 546.631,101.578 
			546.822,101.482 547.049,101.398 547.262,101.352 547.477,101.305 547.703,101.279 547.911,101.251 548.121,101.279 
			548.335,101.293 548.531,101.355 548.728,101.423 548.906,101.482 549.09,101.585 549.24,101.674 549.395,101.804 
			549.503,101.959 549.635,102.104 549.635,102.104 549.635,102.104 		"></polygon>
		<polygon fill-rule="evenodd" clip-rule="evenodd" fill="#010101" points="549.775,102.688 549.938,103.04 549.99,103.414 
			549.975,103.766 549.877,104.111 549.717,104.475 549.448,104.801 549.156,105.082 548.757,105.325 548.543,105.432 
			548.335,105.521 548.119,105.567 547.889,105.612 547.68,105.641 547.477,105.653 547.262,105.641 547.035,105.605 
			546.851,105.562 546.653,105.498 546.481,105.42 546.297,105.318 546.148,105.229 546.01,105.104 545.874,104.979 
			545.754,104.801 545.588,104.467 545.529,104.108 545.551,103.738 545.647,103.394 545.809,103.03 546.054,102.714 
			546.369,102.422 546.768,102.18 546.982,102.072 547.186,101.999 547.405,101.935 547.639,101.895 547.84,101.881 
			548.049,101.853 548.258,101.881 548.471,101.895 548.675,101.941 548.871,102.006 549.044,102.084 549.234,102.17 
			549.377,102.274 549.539,102.387 549.645,102.543 549.771,102.705 549.771,102.705 549.775,102.688 		"></polygon>
		<polygon fill-rule="evenodd" clip-rule="evenodd" fill="#FFFFFF" points="549.877,103.098 550.046,103.432 550.099,103.807 
			550.079,104.16 549.985,104.503 549.807,104.861 549.555,105.193 549.264,105.474 548.865,105.717 548.668,105.831 
			548.441,105.915 548.227,105.962 547.994,106.004 547.786,106.035 547.584,106.046 547.367,106.035 547.142,105.998 
			546.958,105.955 546.761,105.891 546.589,105.812 546.404,105.712 546.256,105.621 546.1,105.491 545.986,105.354 
			545.861,105.193 545.695,104.861 545.635,104.5 545.652,104.15 545.754,103.787 545.915,103.425 546.165,103.091 546.492,102.823 
			546.875,102.571 547.09,102.466 547.298,102.375 547.514,102.328 547.745,102.286 547.953,102.258 548.156,102.245 
			548.389,102.263 548.58,102.286 548.782,102.336 548.979,102.401 549.168,102.482 549.336,102.579 549.484,102.67 
			549.645,102.781 549.752,102.938 549.877,103.098 549.877,103.098 		"></polygon>
		<polygon fill-rule="evenodd" clip-rule="evenodd" fill="#010101" points="550.021,103.681 550.182,104.033 550.242,104.392 
			550.242,104.746 550.121,105.104 549.967,105.45 549.698,105.777 549.401,106.078 549.002,106.32 548.811,106.414 
			548.584,106.498 548.369,106.547 548.156,106.592 547.928,106.617 547.721,106.646 547.512,106.617 547.298,106.605 
			547.095,106.559 546.898,106.491 546.725,106.414 546.541,106.313 546.397,106.205 546.256,106.1 546.124,105.955 
			545.998,105.795 545.855,105.449 545.777,105.086 545.797,104.734 545.897,104.371 546.07,104.03 546.32,103.698 546.637,103.406 
			547.018,103.157 547.227,103.066 547.436,102.978 547.668,102.937 547.883,102.888 548.091,102.858 548.312,102.854 
			548.524,102.865 548.723,102.87 548.926,102.918 549.121,102.984 549.312,103.066 549.479,103.162 549.641,103.275 
			549.783,103.385 549.914,103.527 550.014,103.699 550.014,103.699 550.021,103.681 		"></polygon>
		<polygon fill-rule="evenodd" clip-rule="evenodd" fill="#FFFFFF" points="550.229,104.066 550.396,104.403 550.455,104.76 
			550.449,105.135 550.354,105.48 550.176,105.838 549.907,106.165 549.615,106.445 549.234,106.695 549.02,106.803 
			548.793,106.886 548.578,106.934 548.363,106.979 548.137,107.005 547.936,107.018 547.721,107.005 547.512,106.975 
			547.31,106.928 547.113,106.861 546.939,106.783 546.768,106.707 546.605,106.592 546.469,106.468 546.339,106.324 
			546.23,106.171 546.062,105.837 545.992,105.456 546.01,105.104 546.124,104.764 546.285,104.402 546.534,104.066 
			546.846,103.794 547.227,103.545 547.44,103.438 547.648,103.347 547.876,103.324 548.096,103.258 548.305,103.229 
			548.524,103.223 548.74,103.235 548.93,103.258 549.133,103.307 549.348,103.378 549.52,103.454 549.693,103.532 549.854,103.646 
			549.99,103.771 550.123,103.915 550.229,104.066 550.229,104.066 		"></polygon>
		<polygon fill-rule="evenodd" clip-rule="evenodd" fill="#010101" points="550.391,104.659 550.533,105.004 550.611,105.367 
			550.592,105.719 550.49,106.082 550.318,106.422 550.067,106.756 549.752,107.049 549.37,107.298 549.162,107.387 548.935,107.47 
			548.723,107.517 548.508,107.565 548.299,107.595 548.072,107.617 547.863,107.59 547.648,107.576 547.465,107.534 
			547.25,107.463 547.076,107.385 546.91,107.291 546.748,107.178 546.605,107.069 546.475,106.926 546.367,106.772 
			546.207,106.421 546.13,106.058 546.148,105.705 546.268,105.347 546.422,105.001 546.672,104.668 546.988,104.376 
			547.388,104.133 547.578,104.038 547.805,103.955 548.02,103.906 548.233,103.861 548.461,103.835 548.668,103.806 
			548.877,103.835 549.074,103.842 549.295,103.896 549.49,103.962 549.664,104.04 549.83,104.134 549.99,104.247 550.133,104.354 
			550.264,104.498 550.391,104.659 550.391,104.659 550.391,104.659 		"></polygon>
		<polygon fill-rule="evenodd" clip-rule="evenodd" fill="#010101" points="530.692,100.112 530.711,99.999 529.577,102.977 
			529.936,103.095 531.068,100.117 531.073,100.041 530.692,100.112 530.692,100.112 530.692,100.112 		"></polygon>
		<polygon fill-rule="evenodd" clip-rule="evenodd" fill="#010101" points="530.662,99.961 530.668,99.945 530.692,100.112 
			531.073,100.041 531.032,99.867 531.039,99.85 530.662,99.961 530.662,99.961 530.662,99.961 		"></polygon>
		<polygon fill-rule="evenodd" clip-rule="evenodd" fill="#010101" points="530.621,99.79 530.662,99.961 531.039,99.85 
			530.996,99.676 530.621,99.79 530.621,99.79 530.621,99.79 		"></polygon>
		<polygon fill-rule="evenodd" clip-rule="evenodd" fill="#010101" points="530.573,99.636 530.621,99.79 530.996,99.676 
			530.949,99.522 530.573,99.636 530.573,99.636 		"></polygon>
		<polygon fill-rule="evenodd" clip-rule="evenodd" fill="#010101" points="530.531,99.462 530.531,99.462 530.573,99.636 
			530.949,99.522 530.906,99.351 530.902,99.368 530.531,99.462 530.531,99.462 530.531,99.462 		"></polygon>
		<polygon fill-rule="evenodd" clip-rule="evenodd" fill="#010101" points="530.484,99.248 530.484,99.309 530.531,99.462 
			530.902,99.368 530.854,99.212 530.872,99.277 530.484,99.248 530.484,99.248 		"></polygon>
		<polygon fill-rule="evenodd" clip-rule="evenodd" fill="#010101" points="530.865,99.176 530.49,99.11 530.484,99.248 
			530.872,99.277 530.877,99.142 530.502,99.074 530.859,99.194 530.859,99.194 530.865,99.176 		"></polygon>
		<polygon fill-rule="evenodd" clip-rule="evenodd" fill="#4D494A" points="531.191,107.844 531.154,107.652 530.757,107.719 
			530.785,107.928 531.191,107.844 531.191,107.844 531.191,107.844 		"></polygon>
		<polygon fill-rule="evenodd" clip-rule="evenodd" fill="#010101" points="532.02,105.361 532.031,105.266 530.904,108.227 
			531.263,108.345 532.389,105.384 532.383,105.282 532.02,105.361 532.02,105.361 532.02,105.361 		"></polygon>
		<polygon fill-rule="evenodd" clip-rule="evenodd" fill="#010101" points="531.99,105.151 532.02,105.361 532.383,105.282 
			532.354,105.075 531.973,105.146 531.973,105.146 531.99,105.151 		"></polygon>
		<polygon fill-rule="evenodd" clip-rule="evenodd" fill="#010101" points="531.938,104.957 531.973,105.146 532.354,105.075 
			532.301,104.879 531.938,104.957 531.938,104.957 531.938,104.957 		"></polygon>
		<polygon fill-rule="evenodd" clip-rule="evenodd" fill="#010101" points="531.89,104.742 531.901,104.764 531.938,104.957 
			532.301,104.879 532.271,104.668 532.282,104.694 531.89,104.742 531.89,104.742 531.89,104.742 		"></polygon>
		<polygon fill-rule="evenodd" clip-rule="evenodd" fill="#010101" points="532.247,104.562 531.865,104.514 531.89,104.742 
			532.282,104.694 532.252,104.487 531.871,104.438 532.247,104.562 532.247,104.562 		"></polygon>
		<g>
			<polygon fill="#4D494A" points="529.578,102.386 529.398,102.44 529.578,102.386 			"></polygon>
			<polygon fill="#4D494A" points="529.768,103.006 529.774,102.99 529.867,102.997 529.936,103.095 529.769,103.041 			"></polygon>
			<polygon fill="#010101" points="529.355,102.269 529.549,102.23 529.555,102.095 530.688,99.119 530.682,99.135 530.682,99.255 
				530.711,99.404 530.771,99.583 530.818,99.738 530.859,99.909 530.889,100.059 530.889,100.059 531.068,100.117 529.936,103.095 
				529.867,102.997 529.774,102.99 529.768,103.006 529.769,103.041 529.936,103.095 529.77,103.086 529.774,103.222 
				529.659,103.079 529.566,103.072 529.541,102.905 529.609,102.891 529.684,102.699 529.494,102.752 529.439,102.613 
				529.398,102.44 529.578,102.386 529.578,102.386 529.398,102.44 529.404,102.422 			"></polygon>
		</g>
		<g>
			<polygon fill="none" points="538.58,103.082 538.58,103.082 538.742,102.718 			"></polygon>
			<polygon fill="#010101" points="529.762,102.841 538.057,102.568 538.27,102.579 538.307,102.594 538.509,102.642 
				538.527,102.648 538.742,102.718 538.951,102.809 538.968,102.813 539.165,102.938 539.201,102.949 539.355,103.082 
				539.403,103.118 539.517,103.254 539.527,103.278 539.605,103.403 539.611,103.445 539.246,103.555 539.188,103.464 
				539.184,103.481 539.088,103.35 539.089,103.35 538.961,103.248 538.992,103.278 538.789,103.172 538.79,103.169 538.58,103.082 
				538.58,103.082 538.401,103.021 538.199,102.976 538.236,102.986 538.044,102.962 538.044,102.944 529.774,103.222 			"></polygon>
			<polygon fill="#010101" points="539.237,103.56 539.246,103.555 539.266,103.588 			"></polygon>
		</g>
		<polygon fill-rule="evenodd" clip-rule="evenodd" fill="#010101" points="543.668,110.518 543.668,110.4 542.534,113.378 
			542.91,113.503 544.043,110.523 544.043,110.407 543.668,110.518 543.668,110.518 543.668,110.518 		"></polygon>
		<polygon fill-rule="evenodd" clip-rule="evenodd" fill="#010101" points="540.395,100.626 540.369,100.58 543.668,110.518 
			544.043,110.407 540.744,100.466 540.737,100.427 540.395,100.626 540.395,100.626 540.395,100.626 		"></polygon>
		<polygon fill-rule="evenodd" clip-rule="evenodd" fill="#010101" points="540.326,100.528 540.316,100.504 540.395,100.626 
			540.737,100.427 540.662,100.301 540.644,100.292 540.309,100.521 540.309,100.521 540.326,100.528 		"></polygon>
		<polygon fill-rule="evenodd" clip-rule="evenodd" fill="#010101" points="540.25,100.401 540.22,100.372 540.309,100.521 
			540.644,100.292 540.518,100.135 540.488,100.103 540.25,100.401 540.25,100.401 540.25,100.401 		"></polygon>
		<polygon fill-rule="evenodd" clip-rule="evenodd" fill="#010101" points="540.118,100.318 540.09,100.288 540.25,100.401 
			540.488,100.103 540.326,99.991 540.298,99.96 540.118,100.318 540.118,100.318 		"></polygon>
		<polygon fill-rule="evenodd" clip-rule="evenodd" fill="#010101" points="539.939,100.198 539.922,100.193 540.118,100.318 
			540.298,99.96 540.096,99.854 540.077,99.848 539.939,100.198 539.939,100.198 		"></polygon>
		<polygon fill-rule="evenodd" clip-rule="evenodd" fill="#010101" points="539.75,100.116 539.707,100.12 539.939,100.198 
			540.077,99.848 539.869,99.758 539.852,99.753 539.727,100.127 539.727,100.127 539.75,100.116 		"></polygon>
		<polygon fill-rule="evenodd" clip-rule="evenodd" fill="#010101" points="539.535,100.045 539.512,100.056 539.727,100.127 
			539.852,99.753 539.636,99.682 539.636,99.682 539.527,100.061 539.527,100.061 539.535,100.045 		"></polygon>
		<polygon fill-rule="evenodd" clip-rule="evenodd" fill="#010101" points="539.368,100.007 539.332,99.996 539.527,100.061 
			539.636,99.682 539.416,99.628 539.398,99.621 539.368,100.007 539.368,100.007 539.368,100.007 		"></polygon>
		<polygon fill-rule="evenodd" clip-rule="evenodd" fill="#010101" points="539.177,99.984 539.171,100 539.368,100.007 
			539.398,99.621 539.189,99.59 539.165,99.604 539.177,99.984 539.177,99.984 		"></polygon>
		<polygon fill-rule="evenodd" clip-rule="evenodd" fill="#010101" points="531.086,100.124 530.883,100.253 539.177,99.984 
			539.165,99.604 530.889,99.881 530.711,99.999 531.068,100.117 531.068,100.117 531.086,100.124 		"></polygon>
		<polygon fill="#4D494A" points="533.169,109.18 533.141,109.163 533.158,109.155 		"></polygon>
		<g>
			<polygon fill="#4D494A" points="537.648,110.519 537.615,110.921 537.648,110.519 			"></polygon>
			<g>
				<polygon fill="none" points="537.633,110.711 537.615,110.921 537.633,110.711 				"></polygon>
				<g>
					<polygon fill="none" points="530.911,107.487 530.924,107.457 530.931,107.495 					"></polygon>
					<path fill="#010101" d="M530.785,107.928l0.036,0.19l0.072,0.204l0.089,0.148l0.507,0.269l0.506,0.267l0.488,0.264l0.495,0.243
						l0.018,0.007l0.501,0.225l0.5,0.229l0.542,0.219l0.549,0.203l0.018,0.006l0.584,0.154l0.583,0.155l0.019,0.007l0.645,0.096
						l0.66,0.103l0.02,0.005l0.719,0.04l0.025-0.011l0.768,0.02l0.822-0.026l0.871-0.046l0.179-0.119l1.126-2.96l-0.19-0.263
						l0.012,0.383l-0.06-0.075l0.043-0.111l-0.125,0.009l-0.054-0.067l-0.028,0.074l-0.646,0.037h-0.834l-0.77-0.016l-0.702-0.037
						l-0.685-0.09l-0.638-0.111l-0.585-0.156l-0.584-0.155l-0.547-0.203l-0.531-0.198l-0.5-0.226l-0.494-0.243l-0.514-0.251
						l-0.488-0.263l-0.488-0.262l-0.338-0.18l0.01-0.03l-0.178-0.06l0,0l-0.047-0.213l-0.037-0.191l-0.014-0.065l0.134-0.292
						l-0.188-0.062l-0.01-0.004l0,0l-0.178-0.058l-1.127,2.96l-0.012,0.096l0.029,0.207L530.785,107.928z M530.924,107.457
						l0.007,0.038l-0.02-0.008L530.924,107.457z"></path>
				</g>
			</g>
		</g>
		<polygon fill-rule="evenodd" clip-rule="evenodd" fill="#010101" points="541.076,107.985 541.946,107.938 541.935,107.556 
			541.064,107.604 541.076,107.985 541.076,107.985 541.076,107.985 		"></polygon>
		<polygon fill-rule="evenodd" clip-rule="evenodd" fill="#010101" points="540.255,108.01 541.076,107.985 541.064,107.604 
			540.242,107.629 540.255,108.01 540.255,108.01 540.255,108.01 		"></polygon>
		<polygon fill-rule="evenodd" clip-rule="evenodd" fill="#010101" points="539.469,107.985 539.486,107.989 540.255,108.01 
			540.242,107.629 539.475,107.609 539.498,107.598 539.461,108.001 539.461,108.001 539.469,107.985 		"></polygon>
		<polygon fill-rule="evenodd" clip-rule="evenodd" fill="#010101" points="538.729,107.938 538.747,107.941 539.461,108.001 
			539.498,107.598 538.777,107.555 538.795,107.562 538.729,107.938 538.729,107.938 538.729,107.938 		"></polygon>
		<polygon fill-rule="evenodd" clip-rule="evenodd" fill="#010101" points="538.062,107.854 538.729,107.938 538.795,107.562 
			538.133,107.459 538.062,107.854 538.062,107.854 		"></polygon>
		<polygon fill-rule="evenodd" clip-rule="evenodd" fill="#010101" points="537.405,107.733 537.424,107.741 538.062,107.854 
			538.133,107.459 537.472,107.357 537.49,107.363 537.405,107.733 537.405,107.733 537.405,107.733 		"></polygon>
		<polygon fill-rule="evenodd" clip-rule="evenodd" fill="#010101" points="536.822,107.577 537.405,107.733 537.49,107.363 
			536.906,107.209 536.814,107.597 536.814,107.597 536.822,107.577 		"></polygon>
		<polygon fill-rule="evenodd" clip-rule="evenodd" fill="#010101" points="536.214,107.436 536.232,107.441 536.814,107.597 
			536.906,107.209 536.322,107.054 536.34,107.061 536.214,107.436 536.214,107.436 		"></polygon>
		<polygon fill-rule="evenodd" clip-rule="evenodd" fill="#010101" points="535.666,107.231 535.666,107.231 536.214,107.436 
			536.34,107.061 535.791,106.857 535.811,106.862 535.65,107.227 535.65,107.227 535.666,107.231 		"></polygon>
		<polygon fill-rule="evenodd" clip-rule="evenodd" fill="#010101" points="535.124,107.012 535.65,107.227 535.811,106.862 
			535.285,106.647 535.124,107.012 535.124,107.012 		"></polygon>
		<polygon fill-rule="evenodd" clip-rule="evenodd" fill="#010101" points="534.623,106.784 535.124,107.012 535.285,106.647 
			534.779,106.438 534.623,106.784 534.623,106.784 		"></polygon>
		<polygon fill-rule="evenodd" clip-rule="evenodd" fill="#010101" points="534.111,106.534 534.123,106.56 534.623,106.784 
			534.779,106.438 534.268,106.191 534.284,106.196 534.105,106.553 534.105,106.553 534.111,106.534 		"></polygon>
		<polygon fill-rule="evenodd" clip-rule="evenodd" fill="#010101" points="533.617,106.291 534.105,106.553 534.284,106.196 
			533.789,105.951 533.611,106.308 533.611,106.308 533.617,106.291 		"></polygon>
		<polygon fill-rule="evenodd" clip-rule="evenodd" fill="#010101" points="533.128,106.028 533.611,106.308 533.789,105.951 
			533.302,105.69 533.109,106.024 533.109,106.024 533.128,106.028 		"></polygon>
		<polygon fill-rule="evenodd" clip-rule="evenodd" fill="#010101" points="532.622,105.76 533.109,106.024 533.302,105.69 
			532.812,105.425 532.622,105.76 532.622,105.76 		"></polygon>
		<polygon fill-rule="evenodd" clip-rule="evenodd" fill="#010101" points="532.389,105.384 532.115,105.491 532.622,105.76 
			532.812,105.425 532.307,105.158 532.031,105.266 532.389,105.384 532.389,105.384 532.389,105.384 		"></polygon>
		<polygon fill-rule="evenodd" clip-rule="evenodd" fill="#010101" points="584.039,100.02 582.905,102.998 586.605,104.232 
			587.464,102.254 587.487,102.064 587.494,101.866 587.464,101.657 587.393,101.455 587.273,101.277 587.178,101.086 
			587.023,100.896 586.863,100.724 586.695,100.568 586.511,100.407 586.32,100.263 586.135,100.162 585.956,100.043 
			585.748,99.953 585.562,99.852 585.385,99.793 585.225,99.739 585.031,99.715 584.86,99.699 584.693,99.722 584.525,99.746 
			584.348,99.804 584.191,99.911 584.039,100.02 584.039,100.02 584.039,100.02 		"></polygon>
		<polygon fill-rule="evenodd" clip-rule="evenodd" fill="#010101" points="586.438,104.137 586.671,104.036 582.971,102.802 
			582.846,103.177 586.547,104.41 586.795,104.314 586.438,104.137 586.438,104.137 		"></polygon>
		<g>
			<polygon fill="none" points="587.152,104.994 587.176,105.196 587.152,104.994 			"></polygon>
			<polygon fill="none" points="589.062,103.001 589.197,103.131 589.049,103.026 			"></polygon>
			<g>
				<polygon fill="none" points="589.197,103.131 589.049,103.026 589.062,103.001 				"></polygon>
				<g>
					<polygon fill="none" points="589.197,103.131 589.049,103.026 589.062,103.001 					"></polygon>
					<polygon fill="#010101" points="529.355,102.09 529.375,102.034 530.502,99.074 530.859,99.194 529.766,102.119 
						529.744,102.237 529.739,102.195 529.355,102.269 529.352,102.227 					"></polygon>
					<g>
						<polygon fill="none" points="589.197,103.131 589.049,103.026 589.062,103.001 						"></polygon>
						<polygon fill="#4D494A" points="547.5,109.098 547.434,109.136 547.428,109.131 						"></polygon>
						<g>
							<polygon fill="none" points="547.571,109.27 547.713,109.405 547.571,109.27 							"></polygon>
							<polygon fill="none" points="589.197,103.131 589.049,103.026 589.062,103.001 							"></polygon>
							<polygon fill="none" points="542.714,113.437 542.727,113.437 542.727,113.442 542.534,113.378 542.695,113.379 							"></polygon>
							<path fill="#010101" d="M529.494,102.752l0.041,0.172l0.006-0.019l0.289-0.06l-0.073,0.191l8.294-0.271l0.195,0.006
								l0.216,0.073l0.214,0.068l0.215,0.074l0.196,0.124l0.161,0.113l0.113,0.139l0.07,0.137l-0.194,0.06l3.297,9.938l0.194,0.002
								l0.004,0.122h0.297l0.28-0.006l0.257,0.006l0.232-0.04l0.236-0.062l0.24-0.115l0.219-0.186l0.263-0.251l0.006-0.019
								l0.149-0.207l0.172-0.221l0.198-0.231l0.138-0.233l0.173-0.28l0.179-0.238l0.147-0.266l0.19-0.276l0.155-0.227l0.222-0.243
								l0.18-0.238l0.208-0.21l0.183-0.195l0.199-0.174l0.189-0.153l0.221-0.124l0.047-0.025l-0.142-0.136l0,0l0.142,0.136
								l0.222-0.243l0.202-0.193l0.179-0.176l0.192-0.156l0.185-0.136l0.194-0.114l0.174-0.1l0.19-0.096l0.214-0.049l0.209-0.088
								l0.215-0.048l0.25-0.036l0.273-0.049l0.305-0.018l0.328-0.028l0.32-0.013l0.02,0.008l35.791-2.675l0.21-0.027l0.19-0.038
								l0.173-0.041l0.179-0.06l0.166-0.083l0.175-0.103l0.144-0.13l0.166-0.144l0.035-0.047l0.625-1.459l-0.324-0.21l0.143,0.142
								l-0.023,0.019l-0.158-0.111l-0.155,0.365l-0.106,0.062l-0.137,0.055l-0.16,0.064l-0.15,0.03l-0.189,0.036l-0.191,0.035
								l-35.811,2.668l-0.229,0.022l-0.219,0.007l-0.219,0.006l-0.234,0.038h-0.238l-0.207,0.032l-0.228,0.023l-0.208,0.031
								l-0.232,0.041l-0.209,0.029l-0.213,0.047l-0.239,0.061l-0.216,0.047l-0.227,0.084l-0.227,0.084l-0.214,0.106l-0.423,0.256
								l-0.43,0.394l-0.451,0.464l-0.438,0.53l-0.422,0.554l-0.363,0.495l-0.357,0.477l-0.297,0.358l-0.175,0.04l-0.149,0.03
								l-0.185,0.019h-0.179h-0.18l-0.154-0.013l-0.195-0.007l-0.174-0.019l-3.286-9.914l-0.071-0.143l-0.113-0.137l-0.16-0.113
								l-0.216-0.131l-0.208-0.09l-0.215-0.073l-0.203-0.047l-0.196-0.006l-8.288,0.254l-0.996,2.619l-0.006-0.035L529.494,102.752z
								 M589.049,103.026l0.013-0.025l0.136,0.13L589.049,103.026z"></path>
						</g>
					</g>
				</g>
			</g>
		</g>
		<polygon fill-rule="evenodd" clip-rule="evenodd" fill="#010101" points="587.797,103.757 588.011,103.707 588.201,103.673 
			588.375,103.629 588.555,103.57 588.721,103.486 588.894,103.387 589.029,103.273 589.197,103.131 588.914,102.855 
			588.786,102.993 588.656,103.09 588.529,103.166 588.393,103.219 588.262,103.255 588.107,103.303 587.941,103.326 
			587.756,103.344 587.797,103.757 587.797,103.757 		"></polygon>
		<polygon fill-rule="evenodd" clip-rule="evenodd" fill="#010101" points="552.01,106.412 587.797,103.757 587.756,103.344 
			551.963,106.018 552.01,106.412 552.01,106.412 		"></polygon>
		<polygon fill-rule="evenodd" clip-rule="evenodd" fill="#010101" points="548.5,107.047 548.709,106.958 548.912,106.886 
			549.156,106.809 549.359,106.737 549.579,106.673 549.788,106.644 549.997,106.612 550.229,106.572 550.42,106.534 550.64,106.53 
			550.867,106.506 551.094,106.483 551.318,106.459 551.521,106.447 551.766,106.429 552.01,106.412 551.963,106.018 
			551.735,106.041 551.512,106.064 551.272,106.064 551.045,106.089 550.824,106.096 550.611,106.143 550.389,106.147 
			550.146,106.165 549.93,106.214 549.717,106.261 549.484,106.303 549.245,106.362 549.043,106.434 548.799,106.51 
			548.555,106.588 548.34,106.694 548.5,107.047 548.5,107.047 548.5,107.047 		"></polygon>
		<polygon fill-rule="evenodd" clip-rule="evenodd" fill="#010101" points="545.294,110.583 545.371,110.53 545.533,110.345 
			545.676,110.155 545.848,109.936 546.027,109.696 546.23,109.447 546.416,109.189 546.623,108.922 546.832,108.655 
			547.047,108.369 547.266,108.124 547.482,107.897 547.701,107.652 547.887,107.456 548.119,107.298 548.311,107.143 
			548.5,107.047 548.34,106.694 548.096,106.833 547.887,106.979 547.644,107.178 547.412,107.398 547.196,107.624 546.98,107.851 
			546.744,108.148 546.534,108.416 546.326,108.684 546.117,108.952 545.934,109.209 545.729,109.458 545.551,109.696 
			545.377,109.917 545.236,110.108 545.104,110.263 545.176,110.225 545.294,110.583 545.294,110.583 545.294,110.583 		"></polygon>
		<polygon fill="none" points="583.961,100.191 584.039,100.02 584.181,99.889 584.396,99.781 584.646,99.746 584.783,99.751 
			584.938,99.764 585.086,99.793 585.235,99.822 585.414,99.884 585.576,99.938 585.748,100.014 585.933,100.115 586.088,100.187 
			586.249,100.301 586.391,100.407 586.548,100.539 586.708,100.65 586.82,100.788 586.959,100.913 587.071,101.051 
			587.279,101.318 587.387,101.593 587.44,101.73 587.471,101.82 587.452,102.053 587.409,102.236 587.277,102.391 587.088,102.485 
			586.832,102.539 586.689,102.553 586.541,102.521 586.368,102.504 586.184,102.462 586.021,102.408 585.844,102.348 
			585.652,102.268 585.484,102.17 585.313,102.092 585.127,101.991 584.967,101.88 584.812,101.746 584.668,101.64 584.521,101.492 
			584.389,101.348 584.277,101.209 584.094,100.929 583.983,100.657 583.955,100.567 583.924,100.418 		"></polygon>
		<polygon fill-rule="evenodd" clip-rule="evenodd" fill="#FFFFFF" points="538.438,99.817 539.177,99.805 539.237,99.805 
			532.892,97.689 532.57,97.879 538.432,99.835 538.432,99.835 538.438,99.817 		"></polygon>
		<polygon fill-rule="evenodd" clip-rule="evenodd" fill="#FFFFFF" points="538.438,99.817 530.889,100.059 530.859,99.909 
			530.818,99.738 530.771,99.583 530.711,99.404 530.682,99.255 530.682,99.135 530.729,98.992 530.859,98.896 531.17,98.684 
			531.514,98.48 531.859,98.277 532.206,98.075 532.535,97.865 532.57,97.879 538.432,99.835 538.432,99.835 538.438,99.817 		"></polygon>
		<polygon fill="#FFFFFF" points="533.849,104.402 538.992,104.112 541.004,104.923 541.714,107.025 541.93,107.752 
			541.076,107.805 540.242,107.805 539.473,107.789 538.771,107.752 538.086,107.662 537.448,107.551 536.863,107.395 
			536.279,107.239 535.732,107.036 535.201,106.838 534.701,106.612 534.207,106.369 533.693,106.118 533.205,105.855 
			532.717,105.594 532.211,105.324 532.164,105.111 532.127,104.92 532.08,104.706 532.049,104.496 		"></polygon>
		<polygon fill-rule="evenodd" clip-rule="evenodd" fill="#FFFFFF" points="546.803,104.99 546.875,105.075 547.536,105.474 
			547.75,105.13 547.089,104.729 547.154,104.83 546.803,104.99 546.826,105.037 546.875,105.075 546.803,104.99 546.803,104.99 		
			"></polygon>
		<polygon fill-rule="evenodd" clip-rule="evenodd" fill="#FFFFFF" points="540.922,105.114 540.809,104.977 541.751,107.812 
			542.125,107.698 541.186,104.862 541.082,104.749 541.186,104.862 541.154,104.773 541.082,104.749 540.922,105.114 
			540.922,105.114 540.922,105.114 		"></polygon>
		<polygon fill-rule="evenodd" clip-rule="evenodd" fill="#FFFFFF" points="539.01,104.299 538.914,104.285 540.922,105.114 
			541.082,104.749 539.076,103.922 538.998,103.916 539.076,103.922 539.039,103.91 538.998,103.916 539.01,104.299 539.01,104.299 
			539.01,104.299 		"></polygon>
		<polygon fill-rule="evenodd" clip-rule="evenodd" fill="#FFFFFF" points="532.252,104.487 532.062,104.699 539.01,104.299 
			538.998,103.916 532.051,104.318 531.865,104.514 532.051,104.318 531.829,104.322 531.865,104.514 532.252,104.487 
			532.252,104.487 		"></polygon>
		<polygon fill-rule="evenodd" clip-rule="evenodd" fill="#FFFFFF" points="532.307,105.158 532.383,105.282 532.377,105.182 
			532.354,105.075 532.348,104.974 532.318,104.884 532.312,104.783 532.288,104.677 532.258,104.586 532.252,104.487 
			531.865,104.514 531.864,104.634 531.883,104.759 531.912,104.846 531.92,104.948 531.948,105.037 531.973,105.146 
			532.014,105.26 532.02,105.361 532.115,105.491 532.02,105.361 532.049,105.449 532.115,105.491 532.307,105.158 532.307,105.158 
					"></polygon>
		<polygon fill-rule="evenodd" clip-rule="evenodd" fill="#FFFFFF" points="541.755,107.794 541.916,107.551 541.064,107.604 
			540.242,107.629 539.498,107.598 538.777,107.555 538.133,107.459 537.49,107.363 536.906,107.209 536.34,107.061 
			535.791,106.857 535.285,106.647 534.779,106.438 534.284,106.196 533.789,105.951 533.302,105.69 532.812,105.425 
			532.307,105.158 532.115,105.491 532.622,105.76 533.109,106.024 533.611,106.308 534.105,106.553 534.623,106.784 
			535.124,107.012 535.666,107.231 536.214,107.436 536.814,107.597 537.405,107.733 538.062,107.854 538.747,107.941 
			539.461,108.001 540.255,108.01 541.076,107.985 541.963,107.943 542.125,107.698 541.963,107.943 542.209,107.926 
			542.125,107.698 541.751,107.812 541.751,107.812 541.755,107.794 		"></polygon>
		<g>
			<polygon fill="none" points="545.35,110.312 545.496,110.454 545.35,110.312 			"></polygon>
			<polygon fill="none" points="544.031,110.263 543.997,110.264 543.997,110.264 			"></polygon>
			<polygon fill="none" points="540.797,100.623 546.012,102.364 540.797,100.623 			"></polygon>
		</g>
		<polygon fill-rule="evenodd" clip-rule="evenodd" fill="#FFFFFF" points="551.963,106.018 551.701,106.029 551.408,106.071 
			551.146,106.082 550.861,106.104 550.588,106.153 550.295,106.196 550.002,106.238 549.722,106.303 549.441,106.369 
			549.199,106.445 548.93,106.534 548.68,106.63 548.465,106.737 548.209,106.851 548,107 547.809,107.153 548.049,107.453 
			548.232,107.314 548.412,107.195 548.607,107.082 548.834,107 549.055,106.875 549.293,106.815 549.572,106.75 549.818,106.673 
			550.086,106.644 550.324,106.582 550.611,106.56 550.885,106.513 551.177,106.47 551.462,106.445 551.73,106.417 552.01,106.412 
			551.963,106.018 551.963,106.018 551.963,106.018 		"></polygon>
		<polygon fill-rule="evenodd" clip-rule="evenodd" fill="#FFFFFF" points="587.756,103.344 551.963,106.018 552.01,106.412 
			587.797,103.757 587.756,103.344 587.756,103.344 		"></polygon>
		<polygon fill-rule="evenodd" clip-rule="evenodd" fill="#FFFFFF" points="588.424,101.163 588.572,101.372 588.727,101.564 
			588.8,101.767 588.912,101.963 588.971,102.142 588.99,102.325 588.994,102.486 588.983,102.642 588.941,102.767 588.882,102.886 
			588.804,102.999 588.666,103.112 588.524,103.186 588.297,103.268 588.061,103.326 587.756,103.344 587.797,103.757 
			588.125,103.725 588.412,103.642 588.66,103.546 588.882,103.424 589.085,103.29 589.227,103.099 589.305,102.927 
			589.377,102.713 589.371,102.492 589.382,102.279 589.334,102.064 589.256,101.821 589.168,101.61 589.049,101.372 
			588.894,101.123 588.739,100.932 588.424,101.163 588.424,101.163 		"></polygon>
		<polygon fill-rule="evenodd" clip-rule="evenodd" fill="#FFFFFF" points="584.156,99.125 584.479,99.113 584.807,99.145 
			585.141,99.216 585.461,99.264 585.766,99.365 586.07,99.466 586.361,99.604 586.637,99.735 586.922,99.889 587.184,100.056 
			587.465,100.229 587.666,100.395 587.881,100.586 588.09,100.795 588.262,100.991 588.424,101.163 588.739,100.932 
			588.555,100.712 588.346,100.504 588.137,100.292 587.905,100.098 587.649,99.913 587.393,99.729 587.131,99.561 586.834,99.381 
			586.523,99.24 586.207,99.113 585.885,99.007 585.547,98.893 585.211,98.821 584.871,98.768 584.483,98.738 584.146,98.742 
			584.156,99.125 584.156,99.125 		"></polygon>
		<polygon fill-rule="evenodd" clip-rule="evenodd" fill="#FFFFFF" points="552.488,100.216 584.156,99.125 584.146,98.742 
			552.494,99.84 552.488,100.216 552.488,100.216 		"></polygon>
		<polygon fill-rule="evenodd" clip-rule="evenodd" fill="#FFFFFF" points="547.49,99.42 547.787,99.541 548.104,99.607 
			548.408,99.707 548.723,99.773 549.055,99.847 549.365,99.929 549.705,99.981 550.01,100.023 550.326,100.091 550.652,100.119 
			550.975,100.167 551.291,100.173 551.594,100.215 551.917,100.202 552.207,100.223 552.488,100.216 552.494,99.84 552.195,99.84 
			551.904,99.822 551.629,99.811 551.32,99.788 551.01,99.762 550.701,99.738 550.397,99.696 550.076,99.649 549.76,99.583 
			549.457,99.541 549.146,99.459 548.824,99.411 548.515,99.325 548.186,99.237 547.911,99.166 547.609,99.064 547.484,99.439 
			547.484,99.439 547.49,99.42 		"></polygon>
		<polygon fill-rule="evenodd" clip-rule="evenodd" fill="#FFFFFF" points="536.807,96.494 537.349,96.416 537.859,96.367 
			538.35,96.331 538.797,96.303 539.22,96.284 539.602,96.332 539.994,96.345 540.322,96.374 540.662,96.428 540.979,96.495 
			541.275,96.555 541.545,96.644 541.83,96.738 542.055,96.833 542.336,96.946 542.557,97.06 542.812,97.188 543.068,97.311 
			543.319,97.455 543.57,97.598 543.82,97.739 544.082,97.908 544.339,98.032 544.618,98.205 544.928,98.349 545.226,98.527 
			545.559,98.658 545.881,98.825 546.243,98.985 546.638,99.119 547.056,99.295 547.484,99.439 547.609,99.064 547.18,98.921 
			546.757,98.761 546.404,98.622 546.035,98.479 545.697,98.306 545.404,98.17 545.106,97.989 544.814,97.854 544.528,97.698 
			544.261,97.549 544.01,97.406 543.748,97.238 543.498,97.096 543.24,96.972 542.986,96.847 542.752,96.708 542.497,96.584 
			542.217,96.47 541.954,96.363 541.669,96.268 541.365,96.167 541.049,96.102 540.729,96.053 540.375,95.976 540.013,95.933 
			539.637,95.929 539.201,95.922 538.785,95.921 538.302,95.938 537.812,95.975 537.297,96.039 536.76,96.1 536.789,96.486 
			536.789,96.486 536.807,96.494 		"></polygon>
		<polygon fill-rule="evenodd" clip-rule="evenodd" fill="#FFFFFF" points="530.961,99.071 531.27,98.854 531.615,98.651 
			531.962,98.451 532.312,98.23 532.635,98.04 532.999,97.843 533.339,97.658 533.689,97.498 534.066,97.326 534.44,97.152 
			534.811,96.999 535.192,96.867 535.604,96.768 535.979,96.652 536.39,96.553 536.789,96.486 536.76,96.1 536.312,96.188 
			535.889,96.267 535.472,96.384 535.078,96.491 534.686,96.656 534.279,96.801 533.912,96.957 533.535,97.129 533.154,97.319 
			532.791,97.516 532.45,97.7 532.104,97.901 531.758,98.105 531.413,98.306 531.087,98.516 530.758,98.723 530.941,99.064 
			530.941,99.064 530.961,99.071 		"></polygon>
		<polygon fill-rule="evenodd" clip-rule="evenodd" fill="#FFFFFF" points="530.889,99.881 531.092,100.046 531.032,99.867 
			530.996,99.676 530.949,99.522 530.906,99.351 530.883,99.241 530.865,99.176 530.895,99.088 530.941,99.064 530.758,98.723 
			530.586,98.883 530.495,99.093 530.472,99.284 530.531,99.462 530.573,99.636 530.621,99.79 530.668,99.945 530.697,100.095 
			530.883,100.253 530.697,100.095 530.705,100.253 530.883,100.253 530.889,99.881 530.889,99.881 		"></polygon>
		<g>
			<polygon fill="none" points="545.51,101.303 545.513,101.305 545.463,101.506 			"></polygon>
			<polygon fill="#FFFFFF" points="545.518,101.286 545.513,101.305 545.51,101.303 			"></polygon>
			<polygon fill="#FFFFFF" points="545.428,101.375 545.51,101.303 545.463,101.506 			"></polygon>
			<g>
				<polygon fill="none" points="584.039,100.02 584.181,99.889 584.396,99.781 584.646,99.746 584.783,99.751 584.938,99.764 
					585.086,99.793 585.235,99.822 585.414,99.884 585.576,99.938 585.748,100.014 585.933,100.115 586.088,100.187 
					586.249,100.301 586.391,100.407 586.548,100.539 586.708,100.65 586.82,100.788 586.959,100.913 587.071,101.051 
					587.279,101.318 587.387,101.593 587.44,101.73 587.471,101.82 587.452,102.053 587.409,102.236 587.277,102.391 
					587.088,102.485 586.832,102.539 586.689,102.553 586.541,102.521 586.368,102.504 586.184,102.462 586.021,102.408 
					585.844,102.348 585.652,102.268 585.484,102.17 585.313,102.092 585.127,101.991 584.967,101.88 584.812,101.746 
					584.668,101.64 584.521,101.492 584.389,101.348 584.277,101.209 584.094,100.929 583.983,100.657 583.955,100.567 
					583.924,100.418 583.961,100.191 				"></polygon>
				<polygon fill="none" points="549.544,101.277 549.544,101.277 549.365,101.358 				"></polygon>
				<polygon fill="none" points="550.83,104.527 550.957,104.629 550.969,104.652 550.629,105.076 547.637,105.289 546.988,104.915 
					546.984,104.908 547.154,104.83 545.882,101.48 546.092,101.27 548.812,101.113 549.389,101.414 550.802,104.737 				"></polygon>
				<polygon fill="none" points="540.624,100.269 540.624,100.269 545.629,101.938 				"></polygon>
				<g>
					<polygon fill="none" points="584.039,100.02 584.181,99.889 584.396,99.781 584.646,99.746 584.783,99.751 584.938,99.764 
						585.086,99.793 585.235,99.822 585.414,99.884 585.576,99.938 585.748,100.014 585.933,100.115 586.088,100.187 
						586.249,100.301 586.391,100.407 586.548,100.539 586.708,100.65 586.82,100.788 586.959,100.913 587.071,101.051 
						587.279,101.318 587.387,101.593 587.44,101.73 587.471,101.82 587.452,102.053 587.409,102.236 587.277,102.391 
						587.088,102.485 586.832,102.539 586.689,102.553 586.541,102.521 586.368,102.504 586.184,102.462 586.021,102.408 
						585.844,102.348 585.652,102.268 585.484,102.17 585.313,102.092 585.127,101.991 584.967,101.88 584.812,101.746 
						584.668,101.64 584.521,101.492 584.389,101.348 584.277,101.209 584.094,100.929 583.983,100.657 583.955,100.567 
						583.924,100.418 583.961,100.191 					"></polygon>
					<polygon fill="none" points="548.812,101.113 549.389,101.414 550.802,104.737 550.83,104.527 550.957,104.629 
						550.969,104.652 550.629,105.076 547.637,105.289 546.988,104.915 546.984,104.908 547.154,104.83 545.882,101.48 
						546.092,101.27 					"></polygon>
					<polygon fill="none" points="540.624,100.269 540.624,100.269 545.629,101.938 					"></polygon>
					<g>
						<polygon fill="none" points="584.039,100.02 584.181,99.889 584.396,99.781 584.646,99.746 584.783,99.751 584.938,99.764 
							585.086,99.793 585.235,99.822 585.414,99.884 585.576,99.938 585.748,100.014 585.933,100.115 586.088,100.187 
							586.249,100.301 586.391,100.407 586.548,100.539 586.708,100.65 586.82,100.788 586.959,100.913 587.071,101.051 
							587.279,101.318 587.387,101.593 587.44,101.73 587.471,101.82 587.452,102.053 587.409,102.236 587.277,102.391 
							587.088,102.485 586.832,102.539 586.689,102.553 586.541,102.521 586.368,102.504 586.184,102.462 586.021,102.408 
							585.844,102.348 585.652,102.268 585.484,102.17 585.313,102.092 585.127,101.991 584.967,101.88 584.812,101.746 
							584.668,101.64 584.521,101.492 584.389,101.348 584.277,101.209 584.094,100.929 583.983,100.657 583.955,100.567 
							583.924,100.418 583.961,100.191 						"></polygon>
						<polygon fill="none" points="548.812,101.113 549.389,101.414 550.802,104.737 550.83,104.527 550.957,104.629 
							550.969,104.652 550.633,105.071 550.611,104.891 547.621,105.104 547.75,105.13 547.65,105.288 547.637,105.289 
							546.988,104.915 546.984,104.908 547.154,104.83 545.882,101.48 546.092,101.27 						"></polygon>
						<polygon fill="none" points="540.624,100.269 540.624,100.269 545.629,101.938 						"></polygon>
						<g>
							<polygon fill="none" points="550.906,103.997 556.575,105.888 550.906,103.997 							"></polygon>
							<polygon fill="none" points="550.76,103.649 557.289,105.829 550.76,103.649 							"></polygon>
							<polygon fill="none" points="584.039,100.02 584.181,99.889 584.396,99.781 584.646,99.746 584.783,99.751 584.938,99.764 
								585.086,99.793 585.235,99.822 585.414,99.884 585.576,99.938 585.748,100.014 585.933,100.115 586.088,100.187 
								586.249,100.301 586.391,100.407 586.548,100.539 586.708,100.65 586.82,100.788 586.959,100.913 587.071,101.051 
								587.279,101.318 587.387,101.593 587.44,101.73 587.471,101.82 587.452,102.053 587.409,102.236 587.277,102.391 
								587.088,102.485 586.832,102.539 586.689,102.553 586.541,102.521 586.368,102.504 586.184,102.462 586.021,102.408 
								585.844,102.348 585.652,102.268 585.484,102.17 585.313,102.092 585.127,101.991 584.967,101.88 584.812,101.746 
								584.668,101.64 584.521,101.492 584.389,101.348 584.277,101.209 584.094,100.929 583.983,100.657 583.955,100.567 
								583.924,100.418 583.961,100.191 							"></polygon>
							<polygon fill="none" points="548.812,101.113 549.389,101.414 550.802,104.737 550.83,104.527 550.957,104.629 
								550.969,104.652 550.633,105.071 550.629,105.076 547.65,105.288 547.637,105.289 546.988,104.915 546.984,104.908 
								547.154,104.83 545.882,101.48 546.092,101.27 							"></polygon>
							<polygon fill="none" points="540.624,100.269 540.624,100.269 545.629,101.938 							"></polygon>
							<polygon fill="#FFFFFF" points="550.76,103.649 557.289,105.829 556.58,105.87 556.575,105.888 550.906,103.997 							"></polygon>
							<g>
								<polygon fill="none" points="584.039,100.02 584.181,99.889 584.396,99.781 584.646,99.746 584.783,99.751 584.938,99.764 
									585.086,99.793 585.235,99.822 585.414,99.884 585.576,99.938 585.748,100.014 585.933,100.115 586.088,100.187 
									586.249,100.301 586.391,100.407 586.548,100.539 586.708,100.65 586.82,100.788 586.959,100.913 587.071,101.051 
									587.279,101.318 587.387,101.593 587.44,101.73 587.471,101.82 587.452,102.053 587.409,102.236 587.277,102.391 
									587.088,102.485 586.832,102.539 586.689,102.553 586.541,102.521 586.368,102.504 586.184,102.462 586.021,102.408 
									585.844,102.348 585.652,102.268 585.484,102.17 585.313,102.092 585.127,101.991 584.967,101.88 584.812,101.746 
									584.668,101.64 584.521,101.492 584.389,101.348 584.277,101.209 584.094,100.929 583.983,100.657 583.955,100.567 
									583.924,100.418 583.961,100.191 								"></polygon>
								<polygon fill="none" points="548.812,101.113 549.389,101.414 550.754,104.625 550.542,104.896 547.621,105.104 
									547.75,105.13 547.65,105.288 547.637,105.289 546.988,104.915 546.984,104.908 547.154,104.83 545.882,101.48 
									546.092,101.27 								"></polygon>
								<polygon fill="none" points="550.83,104.527 550.957,104.629 550.957,104.629 								"></polygon>
								<polygon fill="none" points="540.624,100.269 540.624,100.269 545.629,101.938 								"></polygon>
								<path fill="#FFFFFF" d="M530.883,100.253l8.294-0.269L539.35,100l0.162,0.056l0.215,0.071l0.195,0.066l0.178,0.119
									l0.133,0.082l0.076,0.127l0.061,0.059l3.299,9.938l0.047,0.154l0.162-0.005l0.166-0.023l0.191,0.023l0.232,0.019
									l0.219-0.007l0.216,0.014l0.196-0.055l0.22-0.064l0.179-0.119l0.215-0.229l0.18-0.236l0.167-0.202l0.166-0.2l0.144-0.193
									l0.137-0.173l0.119-0.177l0.144-0.192l0.118-0.178l0.139-0.172l0.136-0.174l0.149-0.149l0.156-0.167l0.179-0.178
									l0.179-0.181l0.227-0.199l-0.121-0.151l0.179-0.148l0.204-0.131l0.232-0.101l0.214-0.107l0.232-0.1l0.262-0.073l0.269-0.09
									l0.262-0.068l0.25-0.038l0.275-0.049l0.291-0.04l0.275-0.047l0.285-0.024l0.285-0.024l0.27-0.029l0.262-0.011l4.601-0.333
									l-5.669-1.891l-0.146-0.348l0,0l6.529,2.18l30.496-2.276l0.566-0.089l0.424-0.196l0.293-0.28l0.104-0.321v-0.357
									l0.008-0.019l-0.101-0.41l-0.202-0.407l-0.294-0.435l-0.171-0.195l-0.191-0.203l-0.209-0.207l-0.219-0.174l-0.232-0.198
									l-0.262-0.165l-0.28-0.174l-0.28-0.173l-0.3-0.119l-0.292-0.137l-0.322-0.108l-0.338-0.111l-0.32-0.048l-0.335-0.072
									l-0.348-0.036l-0.337,0.007l-4.606,0.169l-27.046,0.927h-0.299l-0.278,0.005l-0.317-0.005l-0.303-0.042l-0.311-0.024
									l-0.309-0.024l-0.305-0.043l-0.322-0.047l-0.322-0.047l-0.314-0.065l-0.316-0.068l-0.315-0.064l-0.327-0.087l-0.309-0.087
									l-0.295-0.076l-0.303-0.1l-0.429-0.146l-0.422-0.161l-0.37-0.142l-0.369-0.145l-0.322-0.165l-0.311-0.143l-0.32-0.169
									l-0.293-0.137l-0.279-0.173l-0.251-0.144l-0.269-0.148l-0.25-0.143l-0.268-0.147l-0.25-0.146l-0.238-0.119l-0.25-0.143
									l-0.258-0.125l-0.262-0.107l-0.25-0.084l-0.286-0.096l-0.304-0.101l-0.29-0.078l-0.323-0.047l-0.34-0.055L540,96.148
									l-0.387-0.029l-0.412-0.02l-0.422,0.019l-0.441,0.011l-0.494,0.054l-0.514,0.048l-0.56,0.071l-0.417,0.06l-0.412,0.101
									l-0.41,0.101l-0.383,0.132l-0.403,0.145l-0.388,0.146l-0.367,0.154l-0.377,0.173l-0.357,0.179l-0.364,0.198l5.788,1.93
									l-7.791,0.262L530.883,100.253z M583.924,100.418l0.037-0.227l0.078-0.172l0.142-0.131l0.215-0.107l0.251-0.035l0.137,0.005
									l0.155,0.013l0.147,0.029l0.149,0.029l0.179,0.062l0.162,0.054l0.172,0.076l0.185,0.102l0.155,0.071l0.161,0.114
									l0.142,0.106l0.157,0.132l0.16,0.111l0.112,0.138l0.139,0.125l0.112,0.138l0.208,0.268l0.107,0.274l0.054,0.138l0.03,0.09
									l-0.019,0.232l-0.043,0.184l-0.132,0.154l-0.189,0.095l-0.256,0.054l-0.143,0.014l-0.148-0.031l-0.173-0.018l-0.185-0.042
									l-0.162-0.054l-0.178-0.061l-0.191-0.08l-0.168-0.098l-0.171-0.078l-0.187-0.101l-0.16-0.111l-0.154-0.134l-0.145-0.106
									l-0.147-0.147l-0.132-0.145l-0.111-0.139l-0.184-0.28l-0.11-0.271l-0.028-0.09L583.924,100.418z M550.957,104.629
									L550.957,104.629l-0.127-0.102L550.957,104.629z M545.882,101.48l0.21-0.211l2.721-0.156l0.576,0.301l1.365,3.211
									l-0.212,0.271l-2.921,0.208l0.129,0.025l-0.1,0.158l-0.014,0.001l-0.648-0.374l-0.004-0.007l0.17-0.078L545.882,101.48z"></path>
							</g>
						</g>
					</g>
				</g>
			</g>
		</g>
		<polygon fill-rule="evenodd" clip-rule="evenodd" fill="#010101" points="582.082,102.484 581.916,102.39 581.887,102.24 
			582.125,102.18 582.173,102.336 582.029,102.229 582.082,102.484 582.082,102.484 		"></polygon>
		<polygon fill-rule="evenodd" clip-rule="evenodd" fill="#010101" points="582.406,102.294 582.369,102.343 582.309,102.401 
			582.236,102.437 582.168,102.472 582.082,102.484 582.029,102.229 582.065,102.24 582.119,102.198 582.185,102.18 
			582.191,102.163 582.178,102.198 582.4,102.312 582.4,102.312 582.406,102.294 		"></polygon>
		<polygon fill-rule="evenodd" clip-rule="evenodd" fill="#010101" points="581.732,100.799 581.75,100.804 581.863,100.941 
			582.012,101.091 582.154,101.258 582.291,101.442 582.405,101.639 582.47,101.859 582.471,102.098 582.4,102.312 582.178,102.198 
			582.227,102.055 582.215,101.914 582.173,101.739 582.065,101.586 581.947,101.407 581.817,101.264 581.666,101.113 
			581.553,100.978 581.57,100.983 581.732,100.799 581.732,100.799 		"></polygon>
		<polygon fill-rule="evenodd" clip-rule="evenodd" fill="#010101" points="579.54,100.166 579.521,100.159 579.838,100.166 
			580.135,100.166 580.415,100.22 580.684,100.249 580.957,100.322 581.213,100.447 581.48,100.596 581.732,100.799 581.57,100.983 
			581.326,100.821 581.094,100.685 580.875,100.572 580.637,100.512 580.374,100.465 580.105,100.434 579.832,100.423 
			579.552,100.429 579.558,100.411 579.516,100.178 579.516,100.178 579.54,100.166 		"></polygon>
		<polygon fill-rule="evenodd" clip-rule="evenodd" fill="#010101" points="556.289,101.386 556.391,101.318 579.516,100.178 
			579.558,100.411 556.426,101.57 556.529,101.504 556.289,101.386 556.289,101.386 		"></polygon>
		<polygon fill-rule="evenodd" clip-rule="evenodd" fill="#010101" points="555.741,102.194 555.49,102.111 555.509,101.938 
			555.557,101.796 555.628,101.641 555.723,101.532 555.848,101.455 556.009,101.391 556.188,101.332 556.391,101.318 
			556.426,101.57 556.234,101.605 556.063,101.646 555.979,101.657 555.895,101.73 555.855,101.796 555.789,101.874 555.754,101.98 
			555.76,102.141 555.509,102.056 555.741,102.194 555.741,102.194 		"></polygon>
		<g>
			<polygon fill="none" points="556.391,101.325 556.426,101.57 556.391,101.325 			"></polygon>
			<g>
				<polygon fill="none" points="555.76,102.141 555.789,101.991 555.859,101.838 555.92,101.72 556.045,101.641 556.193,101.61 
					556.402,101.581 556.426,101.57 579.558,100.411 579.943,100.44 580.268,100.429 580.57,100.47 580.85,100.524 581.107,100.649 
					581.338,100.785 581.553,100.978 581.799,101.258 582.012,101.508 582.168,101.757 582.244,101.941 582.244,102.062 
					582.191,102.163 582.043,102.252 581.762,102.318 581.369,102.364 557.6,103.589 557.582,103.584 557.249,103.571 
					556.921,103.481 556.629,103.344 556.379,103.201 556.17,102.993 556.022,102.784 555.891,102.582 555.789,102.41 
					555.77,102.283 				"></polygon>
				<g>
					<path fill="none" d="M555.789,101.991l-0.029,0.149l0.01,0.143l0.02,0.127l0.102,0.172l0.132,0.202l0.147,0.209l0.209,0.208
						l0.25,0.143l0.292,0.138l0.328,0.09l0.333,0.013l0.018,0.005l23.77-1.225l0.393-0.046l0.281-0.066l0.148-0.089l0.053-0.102
						v-0.12l-0.076-0.185l-0.156-0.249l-0.213-0.25l-0.246-0.28l-0.215-0.192l-0.23-0.136l-0.258-0.125l-0.279-0.055l-0.303-0.041
						l-0.324,0.012l-0.386-0.029l-23.132,1.159l-0.023,0.011l-0.209,0.029l-0.148,0.03l-0.125,0.079l-0.061,0.118L555.789,101.991z
						 M556.116,101.843l23.132-1.158l0.011-0.035l0.31,0.023h0.299l0.281,0.053l0.267,0.03l0.274,0.072l0.256,0.125l0.25,0.143
						l0.268,0.209l0.102,0.111l0.09,0.091l0.084,0.107l0.07,0.082l0.102,0.116l0.078,0.123l0.064,0.1l0.066,0.103l0.006,0.042
						l-0.238,0.061l0.006,0.042l-0.061-0.119l-0.063-0.102l-0.091-0.089l-0.065-0.103l-0.071-0.082l-0.084-0.108l-0.088-0.088
						l-0.107-0.096l0.008-0.009l-0.212-0.158l-0.227-0.156l-0.226-0.096l-0.238-0.061l-0.262-0.049l-0.269-0.026l-0.292-0.021
						l-0.28,0.007l-23.124,1.143L556.116,101.843z"></path>
					<g>
						<path fill="none" d="M555.789,101.991l-0.029,0.149l0.01,0.143l0.02,0.127l0.102,0.172l0.132,0.202l0.147,0.209l0.209,0.208
							l0.25,0.143l0.292,0.138l0.328,0.09l0.333,0.013l0.018,0.005l23.77-1.225l0.393-0.046l0.281-0.066l0.148-0.089l0.053-0.102
							v-0.12l-0.076-0.185l-0.156-0.249l-0.213-0.25l-0.246-0.28l-0.215-0.192l-0.23-0.136l-0.258-0.125l-0.279-0.055l-0.303-0.041
							l-0.324,0.012l-0.386-0.029l-23.132,1.159l-0.023,0.011l-0.209,0.029l-0.148,0.03l-0.125,0.079l-0.061,0.118L555.789,101.991z
							"></path>
						<g>
							<polygon fill="none" points="555.859,101.838 555.92,101.72 556.045,101.641 556.193,101.61 556.33,101.592 556.141,101.951 
								579.271,100.792 579.568,100.792 579.844,100.804 580.124,100.856 580.392,100.888 580.646,100.953 580.893,101.055 
								581.136,101.216 581.375,101.395 581.457,101.501 581.547,101.592 581.631,101.696 581.721,101.788 581.785,101.888 
								581.87,101.995 581.936,102.098 582.012,102.222 582.021,102.258 581.762,102.318 581.369,102.364 557.6,103.589 
								557.582,103.584 557.249,103.571 556.921,103.481 556.629,103.344 556.379,103.201 556.17,102.993 556.022,102.784 
								555.891,102.582 555.789,102.41 555.77,102.283 555.76,102.141 555.789,101.991 							"></polygon>
							<polygon fill="#010101" points="581.936,102.098 581.87,101.995 581.785,101.888 581.721,101.788 581.631,101.696 
								581.547,101.592 581.457,101.501 581.375,101.395 581.136,101.216 580.893,101.055 580.646,100.953 580.392,100.888 
								580.124,100.856 579.844,100.804 579.568,100.792 579.271,100.792 556.141,101.951 556.33,101.592 556.402,101.581 
								556.426,101.57 579.558,100.411 579.943,100.44 580.268,100.429 580.57,100.47 580.85,100.524 581.107,100.649 
								581.338,100.785 581.553,100.978 581.799,101.258 582.012,101.508 582.168,101.757 582.244,101.941 582.244,102.062 
								582.191,102.163 582.043,102.252 582.021,102.258 582.012,102.222 							"></polygon>
							<g>
								<polygon fill="none" points="555.799,101.969 555.818,101.963 555.938,101.963 556.141,101.951 556.333,101.592 
									556.402,101.581 556.426,101.57 579.558,100.411 579.943,100.44 580.268,100.429 580.57,100.47 580.85,100.524 
									581.107,100.649 581.338,100.785 581.553,100.978 581.799,101.258 582.012,101.508 582.168,101.757 582.244,101.941 
									582.244,102.062 582.191,102.163 582.043,102.252 582.021,102.258 581.762,102.318 581.369,102.364 557.6,103.589 
									557.582,103.584 557.249,103.571 556.921,103.481 556.629,103.344 556.379,103.201 556.17,102.993 556.022,102.784 
									555.891,102.582 555.789,102.41 555.77,102.283 555.76,102.141 555.789,101.991 								"></polygon>
								<path fill="#010101" d="M555.49,102.111l0.025,0.226l0.046,0.155l0.066,0.219l0.155,0.252l0.189,0.202l0.244,0.222
									l0.293,0.197l0.328,0.147l0.344,0.095l0.418,0.001l23.762-1.206l0.453-0.047l0.32-0.071l0.234-0.16l0.131-0.216
									l-0.006-0.221l-0.089-0.268l-0.173-0.256l-0.238-0.299l-0.244-0.28l-0.263-0.228l-0.279-0.171l-0.274-0.132l-0.297-0.059
									l-0.357-0.06h-0.357l-0.406,0.022l-23.125,1.141v0.007l-0.245,0.012l-0.251,0.096l-0.165,0.143l-0.114,0.161l-0.076,0.173
									L555.49,102.111z M555.76,102.141l0.029-0.149l0.01-0.022l0.02-0.006h0.119l0.203-0.012l0.192-0.359l0.069-0.011
									l0.023-0.011l23.132-1.159l0.386,0.029l0.324-0.012l0.303,0.041l0.279,0.055l0.258,0.125l0.23,0.136l0.215,0.192l0.246,0.28
									l0.213,0.25l0.156,0.249l0.076,0.185v0.12l-0.053,0.102l-0.148,0.089l-0.021,0.006l-0.26,0.061l-0.393,0.046l-23.77,1.225
									l-0.018-0.005l-0.333-0.013l-0.328-0.09l-0.292-0.138l-0.25-0.143l-0.209-0.208l-0.147-0.209l-0.132-0.202l-0.102-0.172
									l-0.02-0.127L555.76,102.141z"></path>
							</g>
						</g>
					</g>
				</g>
			</g>
		</g>
	</g>
</g>
<rect x="522.098" y="22.667" fill="#E7E7E7" width="228.402" height="37.94"></rect>

<g>
	<path fill="#EB242B" d="M280.738,217.739c0,0.888-0.403,1.754-1.207,2.597l-0.127,0.125l-7.04,7.417
		c-1.496,1.571-2.771,2.787-3.821,3.646c-1.052,0.859-1.796,1.287-2.228,1.287c-0.456,0-1.021-0.214-1.698-0.644
		c-0.676-0.428-1.112-0.872-1.311-1.327c-0.166-0.38-0.325-1.185-0.473-2.416c-0.147-1.229-0.222-2.563-0.222-3.998
		c0-0.782,0.327-1.506,0.979-2.171c0.653-0.665,1.375-0.997,2.164-0.997c0.754,0,1.2,0.688,1.344,2.062
		c0.018,0.159,0.027,0.278,0.037,0.354c0.119,1.056,0.261,1.792,0.419,2.21c0.161,0.418,0.378,0.627,0.65,0.627
		c0.113,0,0.327-0.124,0.639-0.37c0.31-0.248,0.684-0.583,1.116-1.009l7.234-7.166c0.607-0.607,1.149-1.066,1.629-1.379
		c0.479-0.311,0.884-0.467,1.219-0.467c0.252,0,0.429,0.096,0.537,0.285c0.105,0.19,0.158,0.51,0.158,0.958V217.739z"></path>
</g>

<g>
	<path fill="#EB242B" d="M405.738,57.739c0,0.888-0.403,1.754-1.207,2.597l-0.127,0.125l-7.04,7.417
		c-1.496,1.571-2.771,2.787-3.821,3.646c-1.052,0.859-1.796,1.287-2.228,1.287c-0.456,0-1.021-0.214-1.698-0.644
		c-0.676-0.428-1.112-0.872-1.311-1.327c-0.166-0.38-0.325-1.185-0.473-2.416c-0.147-1.229-0.222-2.563-0.222-3.998
		c0-0.782,0.327-1.506,0.979-2.171c0.653-0.665,1.375-0.997,2.164-0.997c0.754,0,1.2,0.688,1.344,2.062
		c0.018,0.159,0.027,0.278,0.037,0.354c0.119,1.056,0.261,1.792,0.419,2.21c0.161,0.418,0.378,0.627,0.65,0.627
		c0.113,0,0.327-0.124,0.639-0.37c0.31-0.248,0.684-0.583,1.116-1.009l7.234-7.166c0.607-0.607,1.149-1.066,1.629-1.379
		c0.479-0.311,0.884-0.467,1.219-0.467c0.252,0,0.429,0.096,0.537,0.285c0.105,0.19,0.158,0.51,0.158,0.958V57.739z"></path>
</g>

<g>
	<g>
		<g>
			<path fill="none" stroke="#29ABE2" stroke-miterlimit="10" stroke-dasharray="5" d="M644.669,164.592h-3.538
				c-0.12,0.556-0.37,1.127-0.774,1.705c-0.17,0.243-0.344,0.485-0.525,0.724"></path>
			<path fill="none" stroke="#29ABE2" stroke-miterlimit="10" stroke-dasharray="5" d="M636.158,171.128
				c-8.204,7.741-21.175,12.332-34.727,11.225c-12.158-0.993-24.808-5.079-30.969-13.047"></path>
			<path fill="none" stroke="#29ABE2" stroke-miterlimit="10" stroke-dasharray="5" d="M568.986,167.104
				c-0.191-0.332-0.369-0.669-0.539-1.012c-0.26-0.527-0.394-1.026-0.439-1.5h-3.538"></path>
			
				<line fill="none" stroke="#29ABE2" stroke-miterlimit="10" stroke-dasharray="5" x1="557.968" y1="164.592" x2="496.198" y2="164.592"></line>
			<polyline fill="none" stroke="#29ABE2" stroke-miterlimit="10" stroke-dasharray="5" points="492.946,164.592 489.408,164.592 
				489.408,167.219 			"></polyline>
			
				<line fill="none" stroke="#29ABE2" stroke-miterlimit="10" stroke-dasharray="5" x1="489.408" y1="172.393" x2="489.408" y2="407.785"></line>
			<polyline fill="none" stroke="#29ABE2" stroke-miterlimit="10" stroke-dasharray="5" points="489.408,410.373 489.408,413 
				492.946,413 			"></polyline>
			<line fill="none" stroke="#29ABE2" stroke-miterlimit="10" stroke-dasharray="5" x1="500.222" y1="413" x2="714.822" y2="413"></line>
			<polyline fill="none" stroke="#29ABE2" stroke-miterlimit="10" stroke-dasharray="5" points="718.462,413 722,413 722,410.373 
							"></polyline>
			<line fill="none" stroke="#29ABE2" stroke-miterlimit="10" stroke-dasharray="5" x1="722" y1="405.199" x2="722" y2="169.806"></line>
			<polyline fill="none" stroke="#29ABE2" stroke-miterlimit="10" stroke-dasharray="5" points="722,167.219 722,164.592 
				718.462,164.592 			"></polyline>
			
				<line fill="none" stroke="#29ABE2" stroke-miterlimit="10" stroke-dasharray="5" x1="711.755" y1="164.592" x2="648.024" y2="164.592"></line>
		</g>
	</g>
</g>
<g>
	<g>
		<g>
			<polyline fill="none" stroke="#29ABE2" stroke-miterlimit="10" stroke-dasharray="5" points="364.461,411.341 364.461,414 
				360.91,414 			"></polyline>
			<line fill="none" stroke="#29ABE2" stroke-miterlimit="10" stroke-dasharray="5" x1="353.606" y1="414" x2="138.177" y2="414"></line>
			<polyline fill="none" stroke="#29ABE2" stroke-miterlimit="10" stroke-dasharray="5" points="134.525,414 130.974,414 
				130.974,411.341 			"></polyline>
			
				<line fill="none" stroke="#29ABE2" stroke-miterlimit="10" stroke-dasharray="5" x1="130.974" y1="406.104" x2="130.974" y2="167.834"></line>
			<polyline fill="none" stroke="#29ABE2" stroke-miterlimit="10" stroke-dasharray="5" points="130.974,165.216 130.974,162.557 
				134.525,162.557 			"></polyline>
			
				<line fill="none" stroke="#29ABE2" stroke-miterlimit="10" stroke-dasharray="5" x1="141.828" y1="162.557" x2="357.258" y2="162.557"></line>
			<polyline fill="none" stroke="#29ABE2" stroke-miterlimit="10" stroke-dasharray="5" points="360.91,162.557 364.461,162.557 
				364.461,165.216 			"></polyline>
			
				<line fill="none" stroke="#29ABE2" stroke-miterlimit="10" stroke-dasharray="5" x1="364.461" y1="170.453" x2="364.461" y2="408.723"></line>
		</g>
	</g>
</g>
<line fill="none" stroke="#29ABE2" stroke-miterlimit="10" x1="360.167" y1="312" x2="330.167" y2="312"></line>
<g>
	<path fill="#EB242B" d="M264.738,302.739c0,0.888-0.403,1.754-1.207,2.597l-0.127,0.126l-7.04,7.417
		c-1.496,1.571-2.771,2.786-3.821,3.646c-1.052,0.859-1.796,1.287-2.228,1.287c-0.456,0-1.021-0.215-1.698-0.644
		c-0.676-0.429-1.112-0.872-1.311-1.327c-0.166-0.38-0.325-1.185-0.473-2.416c-0.147-1.229-0.222-2.562-0.222-3.998
		c0-0.782,0.327-1.506,0.979-2.171c0.653-0.665,1.375-0.997,2.164-0.997c0.754,0,1.2,0.688,1.344,2.062
		c0.018,0.159,0.027,0.277,0.037,0.354c0.119,1.056,0.261,1.793,0.419,2.21c0.161,0.418,0.378,0.627,0.65,0.627
		c0.113,0,0.327-0.124,0.639-0.37c0.31-0.248,0.684-0.582,1.116-1.009l7.234-7.166c0.607-0.607,1.149-1.066,1.629-1.379
		c0.479-0.312,0.884-0.468,1.219-0.468c0.252,0,0.429,0.097,0.537,0.285c0.105,0.189,0.158,0.51,0.158,0.958V302.739z"></path>
</g>

<g>
	<g>
		<g>
			<polyline fill="none" stroke="#29ABE2" stroke-miterlimit="10" stroke-dasharray="6.4298" points="363.807,124.285 363.807,140 
				360.251,140 			"></polyline>
			
				<line fill="none" stroke="#29ABE2" stroke-miterlimit="10" stroke-dasharray="6.4298" x1="352.937" y1="140" x2="137.213" y2="140"></line>
			<polyline fill="none" stroke="#29ABE2" stroke-miterlimit="10" stroke-dasharray="6.4298" points="133.557,140 130,140 
				130,124.285 			"></polyline>
			
				<line fill="none" stroke="#29ABE2" stroke-miterlimit="10" stroke-dasharray="6.4298" x1="130" y1="107.762" x2="130" y2="82.976"></line>
			<polyline fill="none" stroke="#29ABE2" stroke-miterlimit="10" stroke-dasharray="6.4298" points="130,74.716 130,59 133.557,59 
							"></polyline>
			
				<line fill="none" stroke="#29ABE2" stroke-miterlimit="10" stroke-dasharray="6.4298" x1="140.87" y1="59" x2="356.594" y2="59"></line>
			<polyline fill="none" stroke="#29ABE2" stroke-miterlimit="10" stroke-dasharray="6.4298" points="360.251,59 363.807,59 
				363.807,74.716 			"></polyline>
			
				<line fill="none" stroke="#29ABE2" stroke-miterlimit="10" stroke-dasharray="6.4298" x1="363.807" y1="91.238" x2="363.807" y2="116.021"></line>
		</g>
	</g>
</g>
<g>
	<g>
		<g>
			<polyline fill="none" stroke="#29ABE2" stroke-miterlimit="10" stroke-dasharray="6.3702" points="363.057,499.845 
				363.057,515.664 359.547,515.664 			"></polyline>
			
				<line fill="none" stroke="#29ABE2" stroke-miterlimit="10" stroke-dasharray="6.3702" x1="352.325" y1="515.664" x2="139.345" y2="515.664"></line>
			<polyline fill="none" stroke="#29ABE2" stroke-miterlimit="10" stroke-dasharray="6.3702" points="135.735,515.664 
				132.224,515.664 132.224,499.845 			"></polyline>
			
				<line fill="none" stroke="#29ABE2" stroke-miterlimit="10" stroke-dasharray="6.3702" x1="132.224" y1="483.218" x2="132.224" y2="458.278"></line>
			<polyline fill="none" stroke="#29ABE2" stroke-miterlimit="10" stroke-dasharray="6.3702" points="132.224,449.963 
				132.224,434.148 135.735,434.148 			"></polyline>
			
				<line fill="none" stroke="#29ABE2" stroke-miterlimit="10" stroke-dasharray="6.3702" x1="142.955" y1="434.148" x2="355.936" y2="434.148"></line>
			<polyline fill="none" stroke="#29ABE2" stroke-miterlimit="10" stroke-dasharray="6.3702" points="359.547,434.148 
				363.057,434.148 363.057,449.963 			"></polyline>
			
				<line fill="none" stroke="#29ABE2" stroke-miterlimit="10" stroke-dasharray="6.3702" x1="363.057" y1="466.596" x2="363.057" y2="491.535"></line>
		</g>
	</g>
</g>
<rect x="489.854" y="446" fill="#E6E6E6" width="230.146" height="68.199"></rect>
<g>
	<g>
		<g>
			<polyline fill="none" stroke="#29ABE2" stroke-miterlimit="10" stroke-dasharray="6.3882" points="111.495,411.024 
				111.495,413.669 110.214,413.669 			"></polyline>
			
				<line fill="none" stroke="#29ABE2" stroke-miterlimit="10" stroke-dasharray="6.3882" x1="107.582" y1="413.669" x2="29.93" y2="413.669"></line>
			<polyline fill="none" stroke="#29ABE2" stroke-miterlimit="10" stroke-dasharray="6.3882" points="28.614,413.669 
				27.333,413.669 27.333,411.024 			"></polyline>
			
				<line fill="none" stroke="#29ABE2" stroke-miterlimit="10" stroke-dasharray="6.3882" x1="27.333" y1="405.814" x2="27.333" y2="168.806"></line>
			<polyline fill="none" stroke="#29ABE2" stroke-miterlimit="10" stroke-dasharray="6.3882" points="27.333,166.202 
				27.333,163.557 28.614,163.557 			"></polyline>
			
				<line fill="none" stroke="#29ABE2" stroke-miterlimit="10" stroke-dasharray="6.3882" x1="31.247" y1="163.557" x2="108.898" y2="163.557"></line>
			<polyline fill="none" stroke="#29ABE2" stroke-miterlimit="10" stroke-dasharray="6.3882" points="110.214,163.557 
				111.495,163.557 111.495,166.202 			"></polyline>
			
				<line fill="none" stroke="#29ABE2" stroke-miterlimit="10" stroke-dasharray="6.3882" x1="111.495" y1="171.412" x2="111.495" y2="408.419"></line>
		</g>
	</g>
</g>
<g>
	<g>
		<g>
			<path fill="none" stroke="#29ABE2" stroke-miterlimit="10" stroke-dasharray="5.5572" d="M389.974,176.491"></path>
			<path fill="none" stroke="#29ABE2" stroke-miterlimit="10" stroke-dasharray="5.5572" d="M389.974,399.286"></path>
			<path fill="none" stroke="#29ABE2" stroke-miterlimit="10" stroke-dasharray="5.5572" d="M461.232,171.557"></path>
			<path fill="none" stroke="#29ABE2" stroke-miterlimit="10" stroke-dasharray="5.5572" d="M393.391,171.557"></path>
			<path fill="none" stroke="#29ABE2" stroke-miterlimit="10" stroke-dasharray="5.5572" d="M463.5,401.734"></path>
			<path fill="none" stroke="#29ABE2" stroke-miterlimit="10" stroke-dasharray="5.5572" d="M463.5,178.94"></path>
		</g>
	</g>
</g>
<g>
	<g>
		<g>
			<polyline fill="none" stroke="#29ABE2" stroke-miterlimit="10" stroke-dasharray="6.3882" points="467.381,411.178 
				467.381,413.823 466.146,413.823 			"></polyline>
			
				<line fill="none" stroke="#29ABE2" stroke-miterlimit="10" stroke-dasharray="6.3882" x1="463.607" y1="413.823" x2="388.724" y2="413.823"></line>
			<polyline fill="none" stroke="#29ABE2" stroke-miterlimit="10" stroke-dasharray="6.3882" points="387.455,413.823 
				386.22,413.823 386.22,411.178 			"></polyline>
			
				<line fill="none" stroke="#29ABE2" stroke-miterlimit="10" stroke-dasharray="6.3882" x1="386.22" y1="405.97" x2="386.22" y2="168.96"></line>
			<polyline fill="none" stroke="#29ABE2" stroke-miterlimit="10" stroke-dasharray="6.3882" points="386.22,166.356 
				386.22,163.711 387.455,163.711 			"></polyline>
			
				<line fill="none" stroke="#29ABE2" stroke-miterlimit="10" stroke-dasharray="6.3882" x1="389.993" y1="163.711" x2="464.877" y2="163.711"></line>
			<polyline fill="none" stroke="#29ABE2" stroke-miterlimit="10" stroke-dasharray="6.3882" points="466.146,163.711 
				467.381,163.711 467.381,166.356 			"></polyline>
			
				<line fill="none" stroke="#29ABE2" stroke-miterlimit="10" stroke-dasharray="6.3882" x1="467.381" y1="171.565" x2="467.381" y2="408.574"></line>
		</g>
	</g>
</g>
</svg>