<svg version="1.1" xmlns="http://www.w3.org/2000/svg" xmlns:xlink="http://www.w3.org/1999/xlink" x="0px" y="0px" width="675" height="3075" viewBox="0 0 675 3075" enable-background="new 0 0 162 738" xml:space="preserve">
<g id="Layer_2">
</g>
<g id="cuts">
	<rect x="0" fill="#919396" width="162" height="738"></rect>
	<rect x="9" y="9" fill="#FFFFFF" stroke="#EC1C24" width="144" height="719.999"></rect>
	<rect x="18" y="18" fill="none" stroke="#00ADEE" stroke-dasharray="1.44,1.44" width="126" height="702"></rect>
</g>
<g id="text">
	
	
	
	
	
	
	
	
	
	
	
	
	
	
	
	
	
	
	
	
	<rect x="19.55" y="24.877" fill="#E7E6E6" width="116.622" height="20.487"></rect>
	
	
	<rect x="136.023" y="342.519" fill="#F9A51B" width="25.977" height="22.93"></rect>
	<line fill="none" stroke="#F9A51B" x1="101.849" y1="342.958" x2="147.971" y2="342.958"></line>
	<line fill="none" stroke="#EA222A" x1="9.274" y1="92.873" x2="130.068" y2="92.873"></line>
	<line fill="none" stroke="#919396" x1="5.853" y1="111.302" x2="130.858" y2="111.302"></line>
	<line fill="none" stroke="#2BA4DD" stroke-dasharray="1.44,1.44" x1="18.735" y1="56.091" x2="130.463" y2="56.091"></line>
	<path fill="#EA222A" d="M106.577,49.675c0,0.38-0.143,0.752-0.424,1.112l-0.043,0.055l-2.461,3.176
		c-0.524,0.673-0.971,1.192-1.339,1.561c-0.366,0.369-0.625,0.553-0.777,0.553c-0.158,0-0.357-0.093-0.594-0.276
		c-0.236-0.185-0.389-0.374-0.457-0.569c-0.062-0.163-0.117-0.507-0.166-1.035c-0.052-0.526-0.076-1.099-0.076-1.713
		c0-0.336,0.113-0.646,0.341-0.93c0.23-0.285,0.481-0.427,0.757-0.427c0.262,0,0.42,0.295,0.471,0.883
		c0.005,0.068,0.011,0.12,0.013,0.151c0.041,0.452,0.091,0.768,0.144,0.947c0.058,0.179,0.134,0.268,0.229,0.268
		c0.041,0,0.115-0.053,0.225-0.158c0.108-0.107,0.238-0.25,0.391-0.433l2.528-3.07c0.214-0.259,0.403-0.456,0.569-0.588
		c0.169-0.135,0.311-0.201,0.428-0.201c0.087,0,0.148,0.041,0.188,0.121c0.035,0.082,0.056,0.219,0.056,0.411V49.675z"></path>
	<path fill="#EA222A" d="M107.491,85.74c0,0.38-0.14,0.752-0.421,1.112l-0.045,0.055l-2.459,3.175
		c-0.524,0.674-0.969,1.194-1.337,1.562c-0.368,0.367-0.627,0.551-0.779,0.551c-0.158,0-0.357-0.091-0.592-0.275
		c-0.236-0.184-0.389-0.374-0.461-0.569c-0.056-0.162-0.113-0.507-0.164-1.034c-0.052-0.527-0.076-1.098-0.076-1.712
		c0-0.336,0.113-0.646,0.341-0.93c0.23-0.284,0.481-0.427,0.759-0.427c0.264,0,0.418,0.294,0.469,0.883
		c0.005,0.069,0.009,0.119,0.013,0.152c0.041,0.451,0.091,0.768,0.146,0.946c0.058,0.179,0.134,0.269,0.227,0.269
		c0.041,0,0.115-0.053,0.224-0.158c0.109-0.107,0.241-0.25,0.391-0.434l2.529-3.069c0.214-0.259,0.403-0.456,0.569-0.589
		c0.169-0.135,0.309-0.201,0.428-0.201c0.089,0,0.148,0.041,0.188,0.121c0.039,0.082,0.053,0.219,0.053,0.411V85.74z"></path>
	<path fill="#EA222A" d="M103.338,103.691c0,0.38-0.14,0.752-0.422,1.112l-0.045,0.054l-2.461,3.176
		c-0.522,0.672-0.969,1.193-1.337,1.562c-0.366,0.367-0.625,0.552-0.777,0.552c-0.16,0-0.357-0.092-0.594-0.276
		c-0.234-0.184-0.389-0.374-0.459-0.569c-0.057-0.162-0.114-0.506-0.164-1.034c-0.052-0.527-0.076-1.098-0.076-1.712
		c0-0.335,0.111-0.646,0.34-0.929c0.229-0.285,0.482-0.428,0.758-0.428c0.264,0,0.42,0.295,0.469,0.884
		c0.005,0.068,0.011,0.117,0.013,0.151c0.043,0.451,0.091,0.767,0.146,0.947c0.058,0.178,0.134,0.267,0.229,0.267
		c0.041,0,0.115-0.051,0.225-0.157c0.106-0.106,0.238-0.25,0.389-0.433l2.53-3.07c0.212-0.26,0.401-0.457,0.569-0.59
		c0.169-0.134,0.309-0.201,0.426-0.201c0.089,0,0.15,0.042,0.189,0.123c0.037,0.081,0.054,0.218,0.054,0.41V103.691z"></path>
	<path fill="#EA222A" d="M101.681,336.687c0,0.363-0.134,0.716-0.4,1.059l-0.042,0.052l-2.336,3.016
		c-0.499,0.64-0.921,1.135-1.271,1.483c-0.349,0.351-0.597,0.523-0.74,0.523c-0.151,0-0.34-0.087-0.564-0.262
		c-0.223-0.174-0.368-0.354-0.435-0.54c-0.056-0.153-0.108-0.481-0.157-0.981c-0.049-0.501-0.073-1.044-0.073-1.628
		c0-0.317,0.109-0.613,0.324-0.882c0.219-0.271,0.458-0.405,0.721-0.405c0.249,0,0.397,0.278,0.445,0.838
		c0.006,0.065,0.01,0.112,0.014,0.146c0.038,0.428,0.086,0.728,0.138,0.898c0.055,0.169,0.127,0.254,0.215,0.254
		c0.038,0,0.109-0.05,0.213-0.151c0.104-0.1,0.229-0.237,0.37-0.408l2.403-2.918c0.204-0.247,0.382-0.434,0.541-0.559
		c0.159-0.127,0.294-0.19,0.407-0.19c0.082,0,0.14,0.037,0.176,0.114s0.052,0.207,0.052,0.39V336.687z"></path>
	<rect x="5" y="11.667" fill="none" width="149.551" height="249.833"></rect>
	
	
	
	
	
	
	<g>
		<defs>
			<rect id="SVGID_1_" x="10.212" y="196.001" width="142.068" height="237.332"></rect>
		</defs>
		<clipPath id="SVGID_2_">
			<use xlink:href="#SVGID_1_" overflow="visible"></use>
		</clipPath>
		<path clip-path="url(#SVGID_2_)" fill-rule="evenodd" clip-rule="evenodd" d="M61.572,391.475c0,9.503-7.703,17.205-17.206,17.205
			c-9.502,0-17.205-7.702-17.205-17.205s7.703-17.206,17.205-17.206C53.869,374.269,61.572,381.972,61.572,391.475"></path>
		<path clip-path="url(#SVGID_2_)" fill-rule="evenodd" clip-rule="evenodd" fill="#B7D333" d="M60.019,391.57
			c0,8.639-7.002,15.643-15.641,15.643s-15.642-7.004-15.642-15.643s7.003-15.642,15.642-15.642S60.019,382.931,60.019,391.57"></path>
		<path clip-path="url(#SVGID_2_)" d="M41.03,388.16c-0.218,1.917-0.379,3.457-0.487,4.619l-0.712,0.031
			c0.011-0.038,0.015-0.082,0.017-0.131c0-0.087-0.031-0.202-0.097-0.344c-0.066-0.142-0.103-0.232-0.112-0.271
			c-0.183,0.025-0.361,0.155-0.529,0.383c-0.169,0.229-0.322,0.346-0.457,0.343c-0.077-0.003-0.165-0.023-0.262-0.062
			c-0.127,0.084-0.291,0.121-0.496,0.108c-0.184-0.033-0.362-0.06-0.537-0.082c-0.007-0.244-0.243-0.456-0.717-0.639
			c0.003-0.098-0.048-0.24-0.146-0.432c-0.099-0.19-0.146-0.325-0.145-0.402c0-0.088,0.035-0.159,0.104-0.217
			c-0.01-0.029-0.09-0.21-0.238-0.543c-0.104-0.245-0.152-0.453-0.149-0.628c0.003-0.135,0.033-0.261,0.095-0.377
			c-0.083-0.826-0.12-1.534-0.11-2.125c0.016-0.912,0.146-1.749,0.392-2.513c-0.017-0.116-0.024-0.233-0.022-0.349
			c0.011-0.61,0.222-1.034,0.633-1.27l0.004-0.189c0.405-0.518,0.939-0.891,1.604-1.121c0.396,0.095,0.793,0.182,1.188,0.268
			c0.444,0.152,0.75,0.414,0.917,0.785c0.135,0.082,0.201,0.243,0.197,0.483c-0.006,0.273,0.026,0.448,0.093,0.526l-0.074,0.086
			c0.077,0.574,0.116,0.924,0.113,1.05c-0.007,0.369-0.104,0.629-0.29,0.78c-0.068,0-0.246-0.061-0.535-0.183
			c-0.069,0.067-0.144,0.1-0.22,0.098c-0.04-0.001-0.11-0.022-0.211-0.062c-0.101-0.041-0.187-0.062-0.253-0.062
			c-0.049,0-0.098,0.008-0.146,0.026c-0.007-0.767,0.018-1.339,0.073-1.716c-0.078-0.049-0.155-0.165-0.235-0.338
			c-0.079-0.178-0.182-0.276-0.307-0.297c-0.08,0.097-0.115,0.158-0.106,0.188l-0.26-0.091c-0.237,0.257-0.396,0.706-0.473,1.344
			c-0.082,0.736-0.183,1.224-0.303,1.464c0.104,0.11,0.156,0.261,0.151,0.455c-0.001,0.067-0.012,0.18-0.034,0.333
			c-0.023,0.155-0.034,0.271-0.034,0.349c-0.002,0.088,0.005,0.166,0.024,0.234l-0.178,0.171c0.072,0.332,0.114,0.749,0.124,1.255
			c-0.007,0.426-0.01,0.853-0.007,1.279c-0.009,0-0.093,0.003-0.247,0.011c-0.096-0.002-0.166,0.03-0.204,0.098
			c0.057-0.009,0.109-0.013,0.159-0.011c0.212,0.002,0.38,0.153,0.5,0.451c0.122,0.298,0.228,0.448,0.314,0.45
			c0.097,0.001,0.228-0.089,0.396-0.272c0.285-0.305,0.435-0.724,0.443-1.256c0.005-0.263-0.024-0.545-0.088-0.845
			c-0.068,0.036-0.104,0.132-0.106,0.288c-0.154-0.002-0.253,0.03-0.293,0.096c-0.066-0.021-0.097-0.075-0.084-0.159
			c0.012-0.126,0.018-0.195,0.018-0.205c0.117-0.036,0.175-0.089,0.178-0.157c0-0.028-0.021-0.083-0.063-0.16
			c-0.042-0.078-0.062-0.142-0.062-0.191c0.001-0.04,0.012-0.076,0.03-0.115l0.068-0.566c0.213,0.062,0.672,0.089,1.382,0.082
			c-0.021,0.048,0.007,0.111,0.083,0.189c0.07-0.067,0.142-0.1,0.22-0.098c0.059,0.002,0.145,0.026,0.26,0.078
			C40.898,388.133,40.98,388.159,41.03,388.16"></path>
		<path clip-path="url(#SVGID_2_)" d="M46.459,393.17c-0.135-0.061-0.28-0.091-0.436-0.095c-0.137-0.002-0.322,0.023-0.556,0.079
			c-0.262,0.053-0.442,0.082-0.539,0.091c-0.103-0.204-0.176-0.486-0.219-0.847c-0.077-0.525-0.127-0.822-0.146-0.892
			c0.031-0.056,0.048-0.105,0.048-0.143c0.001-0.108-0.082-0.203-0.251-0.29c-0.168-0.083-0.251-0.151-0.25-0.201
			c0-0.057,0.099-0.142,0.294-0.255c-0.047-0.06-0.081-0.179-0.103-0.358c-0.021-0.18-0.066-0.3-0.132-0.359
			c-0.119,0.105-0.312,0.173-0.578,0.202c-0.268,0.03-0.444,0.072-0.532,0.129c0.005,0.756-0.119,1.264-0.376,1.521
			c-0.135-0.031-0.238,0.021-0.309,0.155c-0.1,0.163-0.184,0.258-0.252,0.286l0.085,0.102c-0.078,0.067-0.206,0.095-0.378,0.082
			c-0.273-0.015-0.417-0.021-0.438-0.021l-0.081-0.264l0.947-7.855c0.01-0.495,0.034-0.83,0.076-1.004
			c-0.014-0.437,0.089-0.705,0.304-0.809c0.134,0.089,0.304,0.135,0.507,0.139c0.165,0.004,0.424-0.03,0.772-0.103
			c0.352-0.071,0.595-0.107,0.73-0.105c0.475,0.01,0.682,0.352,0.623,1.03c-0.05,0.542,0.036,1.258,0.254,2.144
			c0.227,0.954,0.335,1.67,0.327,2.146c-0.002,0.143,0.046,0.445,0.034,0.591c-0.206,0.111-0.469,0.181-0.79,0.203
			c-0.282,0.016-0.568,0.031-0.859,0.043c-0.074-0.737-0.204-1.627-0.279-2.355c-0.092-0.875-0.205-1.594-0.342-2.16l-0.45,4.155
			c-0.034,0.358,0.128,0.54,0.487,0.547c0.116,0.001,0.228-0.025,0.336-0.082c0.088-0.026,0.209,0.037,0.361,0.195
			c-0.006,0.301,0.054,0.48,0.18,0.542c0.155-0.104,0.362-0.203,0.615-0.296c0.225-0.083,0.445-0.161,0.66-0.237
			c0.121,0.169,0.2,0.417,0.233,0.748c0.041,0.467,0.071,0.737,0.089,0.815c0.016,0.186,0.091,0.583,0.226,1.197
			c0.098,0.486,0.146,0.88,0.141,1.181C46.492,392.909,46.478,393.044,46.459,393.17"></path>
		<path clip-path="url(#SVGID_2_)" d="M53.159,386.241c-0.012,0.029-0.015,0.2-0.01,0.51c-0.005,0.251-0.035,0.44-0.096,0.565
			c-0.072,0.193-0.11,0.47-0.117,0.828c-0.001,0.077,0.002,0.199,0.01,0.363c-0.005,0.166-0.005,0.286-0.007,0.364
			c-0.011,0.61-0.114,1.054-0.314,1.332c0.017,0.157,0.024,0.312,0.022,0.468c-0.008,0.484-0.175,1.137-0.498,1.955
			c-0.088,0.027-0.162,0.041-0.222,0.04c-0.115-0.002-0.199-0.07-0.25-0.201c-0.051-0.132-0.101-0.256-0.146-0.373
			c0.031-0.745,0.015-1.833-0.048-3.261l0.089-0.085c-0.064-0.252-0.092-0.534-0.087-0.847c0.004-0.222,0.032-0.546,0.082-0.973
			c0.051-0.426,0.079-0.746,0.081-0.958c0.004-0.137,0-0.268-0.006-0.394c-0.335,0.8-0.572,2.153-0.71,4.062l-0.122,0.288
			c-0.041,0.097-0.124,0.149-0.25,0.156c-0.037-0.066-0.076-0.102-0.113-0.102c-0.028-0.003-0.082,0.033-0.155,0.105
			c-0.074,0.07-0.137,0.102-0.184,0.092l-0.192,0.17c0.086,0.109,0.268,0.121,0.552,0.04c0.224-0.065,0.34,0.02,0.345,0.253
			c0.007,0.194-0.045,0.453-0.158,0.782c-0.112,0.328-0.17,0.573-0.171,0.739c-0.002,0.117,0.009,0.233,0.036,0.35l-1.007,0.158
			c-0.095-0.196-0.163-0.524-0.21-0.986c-0.044-0.461-0.113-0.79-0.206-0.985c0.057-0.066,0.088-0.139,0.089-0.217
			c0.002-0.067-0.024-0.171-0.082-0.306c-0.057-0.139-0.087-0.24-0.097-0.31c-0.008-0.105-0.041-0.363-0.104-0.771
			c-0.042-0.33-0.062-0.59-0.059-0.771c0.002-0.099,0.007-0.185,0.02-0.263c0.001-0.067-0.039-0.167-0.112-0.301
			c-0.075-0.132-0.112-0.228-0.11-0.286c0-0.047,0.019-0.09,0.06-0.129c-0.067-0.079-0.094-0.215-0.081-0.409
			c0.013-0.193-0.014-0.33-0.081-0.407c-0.141,0.374-0.218,0.883-0.229,1.521c-0.004,0.893-0.013,1.408-0.025,1.543l0.102,0.09
			l-0.104,0.085c0.07,0.349,0.104,0.796,0.093,1.34c-0.025,0.979-0.037,1.436-0.037,1.368c-0.137,0.123-0.328,0.184-0.57,0.179
			c-0.301-0.005-0.505,0.021-0.612,0.077c-0.123-0.216-0.182-0.493-0.174-0.832c0.003-0.262,0.048-0.581,0.131-0.959
			c-0.131-0.245-0.192-0.585-0.186-1.021c0.001-0.107,0.015-0.31,0.039-0.61c0.016-0.241,0.017-0.423,0.011-0.537
			c0.097-0.047,0.146-0.1,0.146-0.158c0.002-0.039-0.028-0.105-0.091-0.199c-0.062-0.091-0.092-0.163-0.091-0.211
			c0.002-0.059,0.04-0.115,0.119-0.174l-0.314-4.705c0.188-0.123,0.489-0.181,0.906-0.173c0.456,0.018,0.768-0.007,0.933-0.071
			c0.03-0.021,0.063-0.028,0.104-0.028c0.037,0.002,0.084,0.022,0.136,0.068c0.054,0.043,0.089,0.066,0.108,0.066
			c0.038,0,0.073-0.027,0.104-0.086l0.271,0.268c0.092,0.342,0.177,1.002,0.259,1.982c0.08,0.845,0.211,1.484,0.389,1.914
			c0.237-0.859,0.435-1.578,0.589-2.157l0.317-2.304l2.254-0.05c0.008,0.126,0.036,0.801,0.097,1.19
			c0.052,0.339,0.077,0.617,0.074,0.829c-0.004,0.244-0.042,0.461-0.113,0.654c0.075,0.107,0.111,0.244,0.109,0.408
			C53.28,386.001,53.237,386.135,53.159,386.241"></path>
		<path clip-path="url(#SVGID_2_)" d="M57.788,391.34v-0.015c-0.061,0.124-0.099,0.271-0.11,0.434
			c-0.012,0.107-0.014,0.257-0.008,0.451c0.006,0.223,0.008,0.378,0.008,0.466c-0.079-0.001-0.389-0.006-0.932-0.016
			c-0.33-0.005-0.626,0.022-0.889,0.087l-0.271-0.295c-0.08,0.075-0.11,0.138-0.092,0.188c-0.048-0.012-0.271-0.015-0.67-0.012
			c-0.311-0.006-0.541-0.04-0.695-0.1c-0.159,0.163-0.343,0.159-0.553-0.01c-0.078-0.059-0.083-0.158-0.024-0.298
			c0.062-0.141,0.043-0.244-0.054-0.314c0.016-0.309,0.059-0.788,0.127-1.438c0.068-0.579,0.104-1.036,0.11-1.365
			c0.008-0.446-0.022-0.874-0.094-1.282c0.108-0.105,0.23-0.156,0.365-0.153c0.156,0.002,0.339,0.078,0.551,0.229
			c0.296,0.206,0.451,0.312,0.46,0.312l0.084,0.103c0.011-0.029,0.062-0.184,0.155-0.463c0.051-0.184,0.125-0.303,0.224-0.36
			l0.085,0.09c0.04-0.02,0.167-0.109,0.385-0.271c0.165-0.114,0.301-0.384,0.397-0.38c0.108,0,0.208,0.061,0.304,0.181
			c0.162,0.088,0.265,0.438,0.316,0.615c0.051,0.182,0.099,0.359,0.145,0.535c-0.438,0.013-0.797,0-1.077-0.033
			c-0.069,0.106-0.167,0.121-0.292,0.046c-0.124-0.074-0.216-0.062-0.276,0.032c-0.004,0.174-0.01,0.49-0.017,0.945
			c-0.017,0.406-0.021,0.728-0.016,0.96c0.003,0.358,0.026,0.689,0.07,0.99c0.077,0.001,0.445,0.009,1.104,0.02
			C57.066,391.226,57.457,391.266,57.788,391.34 M57.818,384.371c-0.088,0.009-0.185,0.011-0.291,0.01
			c-0.225-0.004-0.521-0.039-0.888-0.104c-0.455-0.064-0.729-0.104-0.826-0.115c-0.14,0.201-0.212,0.486-0.22,0.855
			c-0.014,0.795-0.014,1.14-0.002,1.032c0.135,0.08,0.201,0.228,0.197,0.44c-0.017,0.29-0.019,0.441-0.008,0.451
			c-0.069,0.027-0.104,0.124-0.107,0.289c-0.106-0.041-0.217-0.12-0.33-0.24c-0.152-0.147-0.234,0.354-0.224,0.229l-0.091,0.3
			l-0.087-0.09c-0.078,0.008-0.211-0.032-0.398-0.124c-0.188-0.09-0.318-0.172-0.396-0.253c0.004-0.155,0.03-0.242,0.077-0.26
			l-0.185-0.207l-0.09,0.129c-0.108-1.011-0.082-2.899,0.052-3.966c0.369,0.065,0.776,0.105,1.222,0.123
			c0.3,0.015,0.722,0.022,1.264,0.022c0.621,0,1.07,0.002,1.34,0.008c0.113,0.107,0.17,0.249,0.166,0.424
			c0,0.108-0.03,0.278-0.087,0.516C57.849,384.078,57.82,384.254,57.818,384.371"></path>
		<path clip-path="url(#SVGID_2_)" d="M41.465,400.137v-0.007c0,0.004-0.023,0.219-0.074,0.641c-0.026,0.26-0.089,0.465-0.188,0.613
			l-0.062-0.051c-0.118,0.246-0.278,0.396-0.481,0.449c-0.097,0.103-0.237,0.158-0.421,0.171c-0.108,0.007-0.36-0.025-0.754-0.095
			c-0.189-0.119-0.294-0.185-0.311-0.197c-0.121-0.09-0.179-0.181-0.173-0.274c-0.115-0.118-0.277-0.328-0.339-0.591
			c-0.075-0.293-0.119-0.31-0.188-0.412c-0.11,0.082-0.15-0.091-0.213-0.193l0.057-0.044c-0.035-0.025-0.055-0.055-0.057-0.087
			c-0.002-0.023,0.008-0.058,0.029-0.103c0.021-0.045,0.03-0.079,0.028-0.102c-0.002-0.037-0.025-0.068-0.065-0.093
			c0.043-0.229,0.084-0.574,0.12-1.032c0.077-0.042,0.115-0.121,0.111-0.243c-0.004-0.119,0.012-0.198,0.05-0.236
			c0.186-0.371,0.486-0.621,0.903-0.752c0.022,0.003,0.134,0.001,0.336-0.006c0.136-0.004,0.24,0.009,0.311,0.037
			c0.125-0.021,0.252,0.01,0.375,0.088c0.108,0.083,0.217,0.164,0.324,0.246c0.202,0.218,0.311,0.467,0.327,0.743
			c0.005,0.091-0.001,0.189-0.017,0.29c-0.149-0.004-0.257,0.094-0.32,0.296l-0.581,0.055c-0.062-0.089-0.099-0.207-0.105-0.354
			c-0.004-0.051-0.003-0.125,0-0.221c0.003-0.099,0.003-0.172,0-0.222c-0.009-0.152-0.045-0.272-0.107-0.362l-0.174,0.101
			c-0.072-0.028-0.108-0.069-0.112-0.125c-0.002-0.018,0.002-0.046,0.009-0.08c0.008-0.035,0.011-0.06,0.01-0.073
			c-0.004-0.059-0.059-0.095-0.162-0.109c-0.07,0.655-0.093,1.329-0.063,2.018c0.019,0.024,0.074,0.038,0.165,0.049
			c0.076,0.008,0.114,0.032,0.117,0.068c0,0.013-0.005,0.032-0.015,0.057l-0.059,0.043c0.032,0.05,0.051,0.119,0.056,0.205
			c0.003,0.046,0.001,0.116-0.005,0.212c-0.005,0.095-0.007,0.167-0.003,0.211c0.007,0.138,0.041,0.243,0.103,0.314
			c-0.007,0.1,0.036,0.17,0.124,0.206c0.057-0.022,0.106-0.034,0.152-0.036c0.178-0.01,0.301,0.087,0.371,0.289
			c0,0.005-0.002,0.04-0.003,0.104c0.003,0.037,0.02,0.061,0.056,0.073c0.076-0.047,0.114-0.129,0.114-0.25
			c-0.002-0.137,0.016-0.227,0.053-0.265c-0.01-0.065-0.048-0.157-0.114-0.277c-0.067-0.122-0.104-0.217-0.107-0.284
			c-0.004-0.074,0.018-0.145,0.064-0.213c-0.04-0.011-0.059-0.037-0.055-0.079c0.002-0.065,0.002-0.1,0.002-0.104
			C40.82,400.067,41.141,400.065,41.465,400.137"></path>
		<path clip-path="url(#SVGID_2_)" d="M44.099,400.676h-0.008c-0.034,0.066-0.044,0.161-0.032,0.286
			c0.016,0.175,0.024,0.265,0.024,0.27c-0.026,0.009-0.062-0.004-0.105-0.038c-0.068,0.023-0.101,0.066-0.097,0.127
			c0,0.009,0.004,0.022,0.011,0.044c0,0.025,0.002,0.043,0.002,0.052c0.002,0.046-0.011,0.081-0.041,0.106
			c-0.078-0.043-0.181-0.071-0.306-0.084c-0.125-0.012-0.245-0.022-0.357-0.033c-0.002-0.583-0.081-1.154-0.235-1.712
			c0,0.005-0.004-0.053-0.01-0.173c0-0.087-0.021-0.148-0.059-0.184l-0.054,0.047c-0.001-0.008,0.017-0.024,0.053-0.05
			c0.037-0.025,0.054-0.053,0.051-0.078c0-0.012-0.004-0.025-0.01-0.037l-0.058-0.041c-0.1,0.032-0.146,0.111-0.139,0.238
			c0.006,0.086-0.029,0.146-0.102,0.18c0.027,0.021,0.043,0.047,0.044,0.075c0.002,0.018,0,0.043-0.008,0.073
			c-0.006,0.028-0.01,0.053-0.008,0.07c0.002,0.037,0.023,0.068,0.062,0.093c0.002,0.025,0.015,0.256,0.041,0.693
			c0.016,0.278,0.008,0.513-0.022,0.708l0.005,0.109c-0.037-0.001-0.081-0.001-0.126,0.001c-0.056,0.004-0.132,0.011-0.233,0.024
			c-0.099,0.013-0.174,0.019-0.222,0.021c-0.197,0.012-0.334-0.021-0.413-0.099l-0.084-2.397c-0.039-0.116-0.063-0.281-0.077-0.49
			l-0.024-0.463c-0.02-0.226-0.049-0.399-0.089-0.522c0.017-0.082,0.091-0.129,0.218-0.135c0.079-0.005,0.186,0.006,0.322,0.033
			c0.062-0.029,0.148-0.048,0.26-0.054c0.033-0.003,0.082-0.003,0.152-0.003c0.074-0.005,0.128-0.007,0.16-0.009
			c0.207-0.011,0.345-0.075,0.413-0.191c0.097-0.002,0.199,0.028,0.312,0.091s0.212,0.096,0.297,0.099
			c0.227,0.133,0.35,0.353,0.368,0.661c0.004,0.069-0.024,0.342-0.082,0.817l-0.389,0.336c0.066,0.121,0.146,0.386,0.239,0.793
			C43.822,400.269,43.94,400.519,44.099,400.676 M43.38,397.951l0.009,0.005c0.007,0.028,0.004-0.075-0.01-0.314
			c-0.006-0.115-0.05-0.198-0.127-0.251c-0.044,0.062,0.007,0.092-0.016,0.237c-0.02,0.145-0.106,0.104-0.156,0.167
			c-0.133,0-0.163,0.081-0.192-0.047c-0.06-0.207-0.111-0.188-0.111-0.192l-0.058,0.033c-0.02,0.019-0.043,0.04-0.067,0.062
			c-0.026,0.023-0.052,0.03-0.079,0.024c0.002,0.026-0.011,0.066-0.037,0.121c-0.026,0.056-0.039,0.092-0.037,0.114
			c0.003,0.04,0.031,0.068,0.093,0.085c-0.01,0.087-0.013,0.178-0.008,0.271c0.004,0.051,0.015,0.169,0.036,0.353
			c0.024,0.145,0.034,0.268,0.029,0.372c0.048,0.001,0.093,0.001,0.135-0.001c0.188-0.013,0.31-0.086,0.364-0.221
			c0.019-0.04,0.042-0.185,0.064-0.43C43.233,398.155,43.288,398.023,43.38,397.951"></path>
		<path clip-path="url(#SVGID_2_)" d="M47.121,401.609c-0.075-0.023-0.157-0.03-0.242-0.025c-0.075,0.004-0.175,0.023-0.301,0.055
			c-0.143,0.035-0.239,0.056-0.292,0.063c-0.064-0.087-0.114-0.209-0.15-0.366c-0.062-0.227-0.099-0.355-0.11-0.386
			c0.015-0.026,0.021-0.049,0.02-0.066c-0.002-0.047-0.051-0.086-0.146-0.117c-0.097-0.03-0.145-0.058-0.145-0.078
			c-0.002-0.025,0.048-0.066,0.153-0.125c-0.029-0.022-0.053-0.075-0.069-0.153c-0.019-0.078-0.046-0.128-0.086-0.152
			c-0.061,0.052-0.163,0.088-0.309,0.112c-0.146,0.022-0.241,0.048-0.288,0.077c0.03,0.333,0,0.918-0.133,1.041
			c-0.073-0.008-0.128,0.017-0.162,0.081c-0.049,0.075-0.091,0.12-0.128,0.137l0.05,0.04c-0.041,0.033-0.108,0.051-0.204,0.052
			c-0.149,0.005-0.229,0.007-0.24,0.007l-0.054-0.114l0.224-3.852c-0.012-0.22-0.01-0.367,0.006-0.445
			c-0.022-0.191,0.024-0.314,0.139-0.369c0.077,0.035,0.17,0.048,0.283,0.042c0.089-0.005,0.229-0.029,0.419-0.076
			c0.189-0.045,0.321-0.069,0.396-0.074c0.26-0.015,0.386,0.127,0.377,0.429c-0.008,0.24,0.063,0.551,0.214,0.934
			c0.158,0.411,0.241,0.722,0.254,0.933c0.004,0.064,0.09,0.199,0.089,0.265c-0.11,0.058-0.253,0.097-0.427,0.12
			c-0.154,0.019-0.31,0.037-0.469,0.053c-0.067-0.322-0.219-0.713-0.284-1.032c-0.08-0.38-0.168-0.692-0.262-0.938l-0.102,1.85
			c-0.007,0.159,0.088,0.232,0.285,0.222c0.064-0.004,0.125-0.021,0.182-0.05c0.047-0.015,0.113,0.008,0.205,0.072
			c0.006,0.133,0.045,0.21,0.117,0.231c0.081-0.052,0.19-0.104,0.326-0.155c0.12-0.045,0.237-0.088,0.352-0.129
			c0.074,0.068,0.125,0.176,0.155,0.318c0.038,0.204,0.064,0.322,0.076,0.357c0.017,0.081,0.071,0.253,0.167,0.519
			c0.07,0.21,0.109,0.381,0.118,0.515C47.128,401.49,47.127,401.55,47.121,401.609"></path>
		<path clip-path="url(#SVGID_2_)" d="M49.322,397.236h0.008c-0.063,0.094-0.146,0.112-0.244,0.053
			c-0.021-0.003-0.117,0.002-0.288,0.017c-0.143,0.009-0.246,0.001-0.312-0.021c-0.017,0.002-0.048,0.018-0.093,0.047
			c-0.048,0.031-0.08,0.047-0.103,0.049c-0.03,0.002-0.048-0.026-0.052-0.082c-0.001-0.008-0.003-0.044-0.007-0.107
			c-0.003-0.044-0.022-0.072-0.062-0.088l-0.099,0.078c-0.031,0.022-0.046,0.046-0.044,0.072c0.001,0.021,0.019,0.051,0.053,0.091
			c0.034,0.038,0.055,0.066,0.061,0.082c0.001,0.015,0.014,0.206,0.034,0.578c0.008,0.237,0.051,0.425,0.129,0.565
			c0.021-0.022,0.069-0.035,0.146-0.036c0.077-0.003,0.129-0.021,0.153-0.051c0.052,0.043,0.135,0.045,0.252,0.007
			c0.119-0.039,0.205-0.026,0.256,0.04l-0.015,0.567c-0.05-0.007-0.121-0.031-0.213-0.07c-0.028,0.082-0.081,0.135-0.159,0.156
			c-0.032,0.011-0.122,0.02-0.271,0.029c0.004-0.027-0.019-0.054-0.07-0.08c-0.144,0.069-0.199,0.233-0.162,0.493
			c0.004-0.028,0.009,0.019,0.017,0.134c0.005,0.071-0.012,0.124-0.048,0.156c-0.09,0.014-0.203-0.006-0.343-0.06
			c-0.138-0.055-0.238-0.079-0.296-0.076c-0.027,0.001-0.052,0.005-0.072,0.01l-0.148,0.047l-0.241-2.594l-0.027-0.493
			c0.198-0.066,0.446-0.109,0.737-0.125c0.229-0.015,0.528-0.012,0.896,0.005c0.023-0.049,0.067,0.014,0.121,0.012
			c0.026-0.002,0.066,0.002,0.121,0.009c0.054,0.008,0.094,0.01,0.121,0.01c0.031-0.002,0.06-0.008,0.086-0.019l0.038-0.041
			c0.108,0.032,0.165,0.09,0.17,0.17c0.001,0.035-0.009,0.094-0.03,0.176c-0.022,0.084-0.031,0.148-0.03,0.189
			C49.295,397.173,49.303,397.208,49.322,397.236 M48.39,401.563c-0.057,0.029-0.144,0.047-0.262,0.054
			c-0.155,0.009-0.248,0.018-0.279,0.023c-0.016-0.017-0.038-0.003-0.072-0.139c-0.021-0.088-0.076-0.132-0.167-0.125
			c-0.021,0.001-0.047,0.004-0.079,0.011l-0.144,0.009l-0.077-1.313c0.078-0.038,0.177-0.061,0.292-0.068
			c0.113-0.007,0.212,0.005,0.298,0.033c-0.001,0.05,0.065,0.069,0.205,0.06l0.15-0.008
			C48.346,400.468,48.404,401.133,48.39,401.563"></path>
		<path clip-path="url(#SVGID_2_)" d="M52.512,397.349l0.008,0.005c-0.076-0.004-0.316,0.011-0.502,0.035
			c-0.158,0.02-0.278,0.021-0.358,0.008c-0.077,0.053-0.105,0.123-0.085,0.21l0.051,0.03c-0.041,0.038-0.057,0.064-0.043,0.088
			l0.043,0.041c-0.01,0.761-0.013,1.183-0.007,1.263c0.012,0.201,0.036,0.378,0.07,0.532c-0.032,0.096-0.044,0.204-0.037,0.329
			c0.005,0.081,0.023,0.209,0.058,0.387c0.035,0.175,0.08,0.754,0.087,0.844c0.002,0.067,0.002,0.134-0.006,0.193
			c-0.072,0.029-0.152,0.048-0.236,0.053c-0.145,0.008-0.299-0.021-0.463-0.09c-0.021,0.02-0.043,0.038-0.067,0.059
			c-0.025,0.021-0.032,0.045-0.021,0.07c-0.052,0.015-0.126-0.006-0.221-0.066c-0.049-0.77-0.187-2.338-0.391-3.924
			c-0.073,0.064-0.204,0.012-0.342,0.029c-0.164,0.017-0.324-0.008-0.389,0.021c-0.08-0.085-0.062-0.111-0.068-0.251
			c-0.01-0.137-0.053-0.476-0.02-0.616c0.008-0.03,0.308-0.013,0.481-0.027c0.24-0.014,0.292,0.043,0.308,0.042
			c0.021-0.031,0.136-0.016,0.222-0.021c0.055,0.027,0.115-0.025,0.116,0.014c0.003,0.025,0,0.188-0.019,0.234
			c-0.019,0.046-0.028,0.08-0.026,0.101c0.004,0.052,0.041-0.023,0.127,0.006c0.097-0.003,0.194-0.006,0.295-0.011
			c0.113,0.01,0.242-0.03,0.233,0.065c0.02-0.027,0.031,0.02,0.192-0.046c0.12-0.054,0.192-0.194,0.169-0.29
			c-0.013-0.053,0.06-0.088,0.016-0.063c0.057-0.031,0.003-0.01,0.067-0.034c0.198,0.02,0.309-0.002,0.347-0.004
			c0.079-0.005,0.278,0.047,0.334,0.018c0.041,0.075,0.062,0.309,0.064,0.438C52.507,397.226,52.511,397.335,52.512,397.349"></path>
		<path clip-path="url(#SVGID_2_)" d="M55.097,400.027l-0.002-0.007c-0.028,0.057-0.044,0.122-0.044,0.196
			c-0.005,0.046,0,0.113,0.011,0.199c0.011,0.097,0.018,0.165,0.021,0.204c-0.043,0.002-0.214,0.012-0.513,0.03
			c-0.18,0.01-0.34,0.034-0.482,0.073l-0.159-0.12c-0.04,0.037-0.054,0.066-0.042,0.087c-0.026-0.003-0.149,0.004-0.367,0.021
			c-0.171,0.011-0.3,0.004-0.387-0.016c-0.079,0.076-0.18,0.083-0.301,0.018c-0.044-0.022-0.053-0.067-0.024-0.132
			c0.027-0.063,0.015-0.108-0.04-0.135c-0.001-0.137,0.003-0.351,0.019-0.639c0.019-0.26,0.021-0.462,0.013-0.607
			c-0.011-0.196-0.043-0.383-0.096-0.56c0.055-0.052,0.121-0.078,0.194-0.082c0.085-0.006,0.188,0.021,0.311,0.078
			c0.169,0.079,0.256,0.121,0.262,0.121l0.05,0.041c0.006-0.013,0.028-0.083,0.068-0.211c0.022-0.082,0.06-0.138,0.111-0.165
			l0.049,0.034c0.021-0.009,0.088-0.055,0.201-0.133c0.087-0.058,0.146-0.266,0.201-0.269c0.057-0.005,0.115,0.02,0.171,0.066
			c0.092,0.033,0.166,0.269,0.2,0.344c0.033,0.078,0.066,0.155,0.099,0.229c-0.241,0.022-0.438,0.032-0.593,0.028
			c-0.032,0.05-0.088,0.061-0.157,0.032c-0.07-0.028-0.122-0.019-0.15,0.025c0.005,0.077,0.012,0.215,0.023,0.416
			c0.005,0.18,0.013,0.32,0.025,0.424c0.014,0.158,0.039,0.303,0.073,0.434c0.043-0.003,0.244-0.016,0.604-0.035
			C54.697,400.005,54.914,400.005,55.097,400.027 M54.849,397.008c-0.048,0.005-0.102,0.012-0.161,0.016
			c-0.121,0.007-0.282,0.004-0.487-0.011c-0.252-0.011-0.404-0.018-0.457-0.02c-0.068,0.096-0.079,0.171-0.068,0.333
			c0.021,0.351,0.031,0.504,0.033,0.456c0.077,0.029,0.119,0.092,0.123,0.187c0.004,0.129,0.006,0.193,0.013,0.198
			c-0.037,0.014-0.054,0.06-0.049,0.131c-0.059-0.013-0.123-0.043-0.189-0.092c-0.089-0.059-0.118,0.151-0.115,0.096l-0.04,0.131
			l-0.051-0.037c-0.041,0.007-0.116-0.005-0.223-0.038c-0.104-0.032-0.18-0.064-0.224-0.096c-0.003-0.068,0.006-0.107,0.032-0.119
			l-0.109-0.083l-0.045,0.061c-0.094-0.441-0.157-1.218-0.12-1.692c0.203,0.014,0.44-0.021,0.687-0.031
			c0.163-0.006,0.395-0.018,0.693-0.04c0.339-0.022,0.583-0.042,0.731-0.049c0.067,0.043,0.104,0.104,0.107,0.18
			c0.003,0.048-0.008,0.125-0.03,0.23C54.875,396.825,54.845,396.956,54.849,397.008"></path>
		<path clip-path="url(#SVGID_2_)" d="M57.749,399.57l-0.009,0.001c-0.032,0.066-0.043,0.162-0.03,0.285
			c0.017,0.176,0.022,0.266,0.022,0.27c-0.025,0.01-0.061-0.002-0.104-0.038c-0.069,0.024-0.102,0.067-0.098,0.128
			c0.001,0.009,0.005,0.021,0.011,0.042c0.001,0.027,0.002,0.044,0.004,0.054c0.002,0.046-0.013,0.081-0.043,0.106
			c-0.078-0.044-0.179-0.072-0.306-0.084c-0.125-0.012-0.244-0.023-0.357-0.035c-0.002-0.582-0.08-1.152-0.235-1.711
			c0,0.005-0.004-0.054-0.01-0.173c0-0.086-0.02-0.146-0.059-0.183l-0.053,0.048c0-0.009,0.017-0.026,0.053-0.051
			c0.035-0.026,0.054-0.052,0.052-0.078c-0.001-0.013-0.004-0.025-0.012-0.039l-0.058-0.041c-0.1,0.032-0.146,0.11-0.138,0.239
			c0.005,0.086-0.03,0.146-0.103,0.18c0.028,0.021,0.044,0.046,0.046,0.075c0.001,0.019-0.002,0.042-0.01,0.071
			c-0.005,0.03-0.008,0.054-0.007,0.072c0.002,0.037,0.022,0.068,0.062,0.094c0.001,0.025,0.015,0.256,0.04,0.692
			c0.016,0.278,0.009,0.515-0.022,0.708l0.008,0.11c-0.037-0.002-0.082-0.002-0.129,0.002c-0.054,0.003-0.131,0.009-0.232,0.021
			c-0.099,0.013-0.173,0.021-0.223,0.022c-0.195,0.012-0.333-0.02-0.412-0.099l-0.084-2.396c-0.038-0.118-0.064-0.282-0.076-0.491
			l-0.028-0.462c-0.017-0.227-0.045-0.401-0.085-0.523c0.016-0.082,0.089-0.128,0.216-0.135c0.082-0.006,0.187,0.006,0.323,0.033
			c0.062-0.03,0.148-0.048,0.26-0.055c0.031-0.001,0.083-0.002,0.151-0.002c0.074-0.004,0.129-0.008,0.161-0.01
			c0.206-0.012,0.344-0.075,0.412-0.191c0.097,0,0.2,0.029,0.312,0.091c0.113,0.062,0.213,0.095,0.299,0.099
			c0.226,0.133,0.349,0.354,0.366,0.662c0.004,0.069-0.023,0.341-0.08,0.817l-0.39,0.336c0.066,0.121,0.146,0.385,0.238,0.792
			C57.471,399.164,57.591,399.412,57.749,399.57 M57.031,396.844l0.008,0.005c0.006,0.03,0.004-0.075-0.011-0.313
			c-0.006-0.116-0.05-0.199-0.127-0.25c-0.042,0.061-0.053-0.084-0.072,0.061c-0.021,0.147-0.056,0.249-0.105,0.313
			c-0.133-0.002-0.163-0.081-0.245-0.193c-0.049-0.069-0.073-0.008-0.073-0.013l-0.036,0.028c-0.021,0.019-0.042,0.04-0.068,0.062
			c-0.024,0.023-0.052,0.031-0.08,0.024c0.004,0.024-0.01,0.066-0.036,0.121c-0.024,0.056-0.036,0.093-0.036,0.115
			c0.002,0.039,0.033,0.065,0.094,0.084c-0.012,0.087-0.016,0.177-0.01,0.272c0.004,0.05,0.015,0.167,0.036,0.351
			c0.025,0.146,0.034,0.27,0.03,0.372c0.049,0.002,0.095,0.002,0.136-0.001c0.187-0.012,0.309-0.085,0.363-0.221
			c0.018-0.04,0.04-0.185,0.063-0.429C56.881,397.046,56.939,396.918,57.031,396.844"></path>
		<path clip-path="url(#SVGID_2_)" d="M31.303,388.516v0.007c-0.023,0.222-0.03,0.377-0.021,0.46
			c-0.036,0.015-0.081,0.017-0.134,0.008c-0.072-0.013-0.113-0.018-0.124-0.017c-0.031,0.002-0.057,0.012-0.074,0.032
			c-0.044-0.028-0.073-0.04-0.089-0.036c-0.042,0.024-0.062,0.061-0.06,0.106c0.001,0.021,0.009,0.054,0.023,0.102
			c0.014,0.05,0.021,0.083,0.022,0.106c0.001,0.031-0.005,0.079-0.019,0.147c-0.015,0.066-0.021,0.119-0.019,0.164
			c0.002,0.049,0.014,0.13,0.032,0.236c0.021,0.107,0.03,0.188,0.033,0.244c-0.023,0.104-0.031,0.212-0.025,0.32
			c0.008,0.132,0.044,0.309,0.11,0.53c0.011,0.004,0.022,0.006,0.033,0.004c0.027,0,0.061-0.021,0.097-0.058
			c0.036-0.035,0.068-0.055,0.096-0.057c0.021,0,0.041,0.003,0.065,0.015c0.07,0.225,0.105,0.37,0.11,0.437
			c0,0.032,0,0.064-0.002,0.099c-0.104,0.025-0.178-0.01-0.221-0.105c0.007-0.027-0.009-0.056-0.045-0.084l-0.117,0.122
			c0.114,0.017,0.159,0.104,0.137,0.261c-0.012,0.032-0.034,0.049-0.074,0.05c-0.066-0.001-0.097-0.001-0.093-0.001l-0.096-0.17
			l-0.039,0.049c-0.032-0.081-0.068-0.117-0.109-0.115c-0.025,0.001-0.064,0.02-0.123,0.057c-0.059,0.039-0.106,0.059-0.145,0.061
			c-0.032,0.002-0.062-0.006-0.095-0.024c-0.004-0.047-0.009-0.094-0.017-0.145s-0.034-0.082-0.078-0.096
			c-0.002-0.122,0.002-0.437,0.01-0.95c0.004-0.388,0-0.702-0.012-0.943c-0.006-0.101-0.013-0.199-0.021-0.293
			c-0.021-0.031-0.041-0.046-0.06-0.046c-0.018,0.002-0.039,0.018-0.071,0.051c-0.031,0.032-0.059,0.048-0.081,0.046
			c-0.003-0.04-0.021-0.103-0.055-0.188s-0.05-0.148-0.054-0.186c-0.002-0.066,0.022-0.123,0.074-0.173l0.136,0.032
			c0.054-0.075,0.077-0.204,0.068-0.387c-0.002-0.035-0.008-0.091-0.015-0.166c-0.008-0.074-0.014-0.129-0.016-0.165
			c-0.013-0.298,0.078-0.452,0.274-0.462c0.073-0.004,0.164,0.009,0.27,0.039l0.131,0.034c0.009,0.05,0.017,0.102,0.019,0.155
			c0.005,0.074,0.002,0.182-0.01,0.324c-0.01,0.144-0.013,0.246-0.01,0.311c0.005,0.106,0.022,0.201,0.056,0.285
			c0.03-0.002,0.08-0.02,0.146-0.05c0.066-0.034,0.114-0.052,0.146-0.053C31.225,388.439,31.27,388.462,31.303,388.516
			 M30.899,388.933l-0.007-0.134l-0.042-0.039L30.899,388.933z"></path>
		<path clip-path="url(#SVGID_2_)" d="M32.9,388.098l0.008-0.001c-0.014,0.106-0.03,0.212-0.049,0.317
			c-0.021,0.121-0.056,0.216-0.102,0.284c-0.009-0.003-0.057-0.024-0.144-0.068c-0.061-0.031-0.113-0.043-0.159-0.037
			c-0.036,0.227-0.055,0.536-0.059,0.928c-0.002,0.501-0.007,0.804-0.012,0.908c-0.059-0.003-0.102,0.015-0.13,0.058
			c-0.03,0.042-0.058,0.084-0.082,0.129c-0.011,0.024-0.015,0.046-0.014,0.064c0.001,0.032,0.027,0.062,0.079,0.09
			s0.079,0.059,0.08,0.095c-0.022,0.083-0.071,0.127-0.145,0.129c-0.035,0.002-0.096-0.009-0.183-0.03
			c-0.085-0.024-0.146-0.034-0.182-0.032l-0.084-1.661c0.033-0.043,0.048-0.074,0.042-0.089l-0.048-0.032
			c0.004-0.071,0.008-0.42,0.012-1.044c0.001-0.424,0.019-0.767,0.048-1.027c-0.004,0.001,0.115-0.008,0.359-0.024
			c0.15-0.007,0.248,0.035,0.292,0.126c0,0.085-0.009,0.228-0.026,0.432c-0.018,0.188-0.022,0.33-0.019,0.431
			c0.006,0.126,0.026,0.236,0.06,0.335C32.574,388.201,32.726,388.108,32.9,388.098 M33.478,388.455
			c0.012,0.153,0.021,0.305,0.029,0.453c0.031,0.642,0.021,1.33-0.031,2.061c-0.055,0.052-0.141,0.061-0.258,0.033
			c-0.113-0.027-0.2-0.015-0.25,0.033c-0.068-0.085-0.106-0.239-0.117-0.465c-0.017-0.325-0.025-0.493-0.025-0.505
			c-0.015-0.814,0.065-1.474,0.238-1.976C33.265,388.142,33.402,388.263,33.478,388.455"></path>
		<path clip-path="url(#SVGID_2_)" d="M35.516,389.297c-0.025,0.052-0.036,0.106-0.032,0.163c0.002,0.059,0.006,0.115,0.009,0.171
			c-0.007,0.045-0.018,0.092-0.039,0.142c-0.036-0.01-0.064-0.015-0.09-0.014c-0.026,0.001-0.054,0.01-0.08,0.03
			c-0.028,0.02-0.052,0.029-0.066,0.029c-0.023,0.002-0.055-0.008-0.096-0.024l-0.27-0.394c0.009,0.115,0.036,0.217,0.08,0.304
			c0.021,0.046,0.042,0.092,0.065,0.137c-0.159,0.028-0.249,0.033-0.269,0.014l-0.039,0.049l-0.093-0.123
			c-0.073,0.089-0.09,0.22-0.049,0.393c0.047,0.188,0.049,0.322,0.008,0.407c0.059,0.087,0.129,0.127,0.21,0.123
			c0.035-0.002,0.064-0.014,0.091-0.04c0.038-0.095,0.076-0.189,0.114-0.285c0.057-0.115,0.119-0.175,0.189-0.178
			c0.053-0.004,0.117,0.025,0.19,0.084c0.087,0.03,0.131,0.07,0.133,0.12c0.001,0.031-0.017,0.083-0.059,0.151
			c-0.04,0.069-0.062,0.125-0.059,0.164c0.002,0.015,0.003,0.027,0.008,0.04c-0.057,0.042-0.106,0.104-0.149,0.188
			c-0.046,0.085-0.104,0.143-0.177,0.175c-0.062,0.059-0.121,0.091-0.174,0.095c-0.044,0.001-0.108-0.031-0.191-0.099
			c-0.086-0.068-0.165-0.099-0.239-0.097c-0.029-0.068-0.104-0.145-0.226-0.227c-0.121-0.083-0.194-0.174-0.225-0.27
			c0.001,0.008,0-0.021-0.004-0.092c-0.002-0.039-0.02-0.064-0.052-0.073l0.046-0.043c-0.059-0.001-0.089-0.033-0.092-0.101
			c-0.001-0.008-0.001-0.022-0.003-0.047c0.003-0.019,0.005-0.034,0.004-0.047c-0.002-0.045-0.018-0.077-0.046-0.097l-0.01-0.202
			c-0.005-0.104-0.027-0.181-0.064-0.224c0.038-0.246,0.076-0.494,0.114-0.739c0.063-0.287,0.157-0.434,0.28-0.44
			c0.021-0.001,0.038,0.003,0.059,0.009c0.113-0.11,0.245-0.17,0.405-0.179c0.175-0.007,0.367,0.046,0.578,0.158
			C35.376,388.681,35.477,388.977,35.516,389.297 M34.715,388.656l-0.039,0.049c-0.025,0.005-0.059-0.009-0.094-0.042l0.007,0.133
			c-0.06,0.066-0.083,0.167-0.073,0.303c0.012,0.231,0.017,0.344,0.017,0.336l0.175-0.002c0.083-0.048,0.123-0.125,0.115-0.234
			c-0.002-0.054-0.019-0.143-0.057-0.268C34.732,388.806,34.714,388.716,34.715,388.656"></path>
		<polygon clip-path="url(#SVGID_2_)" fill-rule="evenodd" clip-rule="evenodd" points="36.882,395.158 37.055,395.257 
			37.642,393.716 37.445,393.652 36.859,395.193 37.029,395.301 		"></polygon>
		<polygon clip-path="url(#SVGID_2_)" fill-rule="evenodd" clip-rule="evenodd" points="37.138,394.946 37.067,394.973 
			36.882,395.158 37.029,395.301 37.218,395.107 37.145,395.143 		"></polygon>
		<polygon clip-path="url(#SVGID_2_)" fill-rule="evenodd" clip-rule="evenodd" points="38.559,394.932 38.642,394.867 
			37.138,394.946 37.145,395.143 38.65,395.067 38.745,394.995 		"></polygon>
		<polygon clip-path="url(#SVGID_2_)" fill-rule="evenodd" clip-rule="evenodd" points="39.239,393.516 39.135,393.388 
			38.559,394.932 38.745,394.996 39.332,393.454 39.229,393.326 		"></polygon>
		<polygon clip-path="url(#SVGID_2_)" fill-rule="evenodd" clip-rule="evenodd" points="37.805,393.565 37.73,393.602 
			39.239,393.516 39.229,393.326 37.727,393.393 37.654,393.431 		"></polygon>
		<polygon clip-path="url(#SVGID_2_)" fill-rule="evenodd" clip-rule="evenodd" points="37.642,393.716 37.62,393.75 
			37.805,393.565 37.654,393.431 37.467,393.618 37.445,393.652 		"></polygon>
		<polygon clip-path="url(#SVGID_2_)" fill-rule="evenodd" clip-rule="evenodd" points="38.891,395.115 39.024,395.056 
			38.702,394.877 38.6,395.059 38.931,395.243 39.077,395.178 38.881,395.112 		"></polygon>
		<polygon clip-path="url(#SVGID_2_)" fill-rule="evenodd" clip-rule="evenodd" points="39.522,393.693 39.467,393.572 
			38.881,395.113 39.077,395.178 39.664,393.636 39.61,393.516 		"></polygon>
		<polygon clip-path="url(#SVGID_2_)" fill-rule="evenodd" clip-rule="evenodd" points="39.332,393.454 39.186,393.519 
			39.522,393.693 39.611,393.516 39.289,393.336 39.136,393.388 		"></polygon>
		<polygon clip-path="url(#SVGID_2_)" points="37.547,393.685 37.538,393.683 37.724,393.496 39.12,393.428 39.135,393.388 
			39.239,393.422 39.331,393.454 39.327,393.47 39.57,393.606 39.664,393.636 39.625,393.737 40.309,395.361 39.73,396.906 
			38.984,395.147 38.887,395.186 38.881,395.112 38.888,395.093 38.653,394.964 38.599,395.059 38.571,394.968 37.138,395.038 
			36.952,395.223 		"></polygon>
		<polygon clip-path="url(#SVGID_2_)" fill-rule="evenodd" clip-rule="evenodd" points="39.637,396.875 39.828,396.865 
			39.081,395.107 38.887,395.186 39.635,396.945 39.825,396.937 39.627,396.871 		"></polygon>
		<polygon clip-path="url(#SVGID_2_)" fill-rule="evenodd" clip-rule="evenodd" points="40.221,395.405 40.215,395.33 
			39.627,396.871 39.823,396.937 40.411,395.396 40.405,395.322 		"></polygon>
		<polygon clip-path="url(#SVGID_2_)" fill-rule="evenodd" clip-rule="evenodd" points="39.664,393.636 39.474,393.646 
			40.22,395.405 40.405,395.322 39.658,393.562 39.467,393.572 		"></polygon>
		<polygon clip-path="url(#SVGID_2_)" fill-rule="evenodd" clip-rule="evenodd" fill="#FFFFFF" points="39.615,394.034 
			39.696,394.217 39.728,394.403 39.718,394.585 39.666,394.775 39.573,394.96 39.447,395.125 39.282,395.276 39.083,395.408 
			38.974,395.455 38.866,395.5 38.745,395.521 38.633,395.546 38.524,395.561 38.407,395.575 38.297,395.559 38.186,395.553 
			38.091,395.531 37.988,395.497 37.889,395.455 37.802,395.404 37.727,395.347 37.644,395.289 37.576,395.214 37.519,395.133 
			37.436,394.951 37.406,394.763 37.406,394.578 37.468,394.392 37.547,394.212 37.678,394.04 37.843,393.887 38.049,393.76 
			38.15,393.71 38.268,393.667 38.378,393.643 38.491,393.618 38.609,393.605 38.716,393.589 38.826,393.605 38.938,393.612 
			39.04,393.645 39.143,393.68 39.236,393.71 39.331,393.764 39.408,393.81 39.49,393.878 39.545,393.959 		"></polygon>
		<polygon clip-path="url(#SVGID_2_)" fill-rule="evenodd" clip-rule="evenodd" points="39.687,394.337 39.772,394.521 
			39.798,394.716 39.792,394.899 39.74,395.08 39.656,395.268 39.518,395.438 39.366,395.584 39.158,395.71 39.045,395.767 
			38.937,395.813 38.826,395.836 38.705,395.861 38.597,395.875 38.491,395.881 38.377,395.875 38.261,395.857 38.166,395.834 
			38.063,395.802 37.972,395.76 37.877,395.708 37.799,395.661 37.727,395.595 37.657,395.531 37.593,395.438 37.507,395.265 
			37.477,395.078 37.489,394.884 37.539,394.706 37.623,394.517 37.75,394.352 37.914,394.2 38.122,394.074 38.233,394.017 
			38.339,393.979 38.453,393.946 38.576,393.925 38.68,393.918 38.79,393.904 38.897,393.918 39.008,393.925 39.115,393.95 
			39.216,393.983 39.307,394.023 39.406,394.069 39.48,394.123 39.564,394.182 39.619,394.263 39.684,394.347 		"></polygon>
		<polygon clip-path="url(#SVGID_2_)" fill-rule="evenodd" clip-rule="evenodd" fill="#FFFFFF" points="39.74,394.551 
			39.829,394.726 39.855,394.92 39.845,395.105 39.796,395.283 39.703,395.469 39.573,395.643 39.421,395.789 39.214,395.916 
			39.112,395.974 38.993,396.018 38.881,396.042 38.76,396.063 38.651,396.081 38.546,396.085 38.434,396.081 38.318,396.061 
			38.22,396.039 38.118,396.005 38.029,395.964 37.932,395.912 37.854,395.865 37.775,395.798 37.714,395.726 37.65,395.643 
			37.563,395.469 37.532,395.282 37.542,395.099 37.593,394.911 37.678,394.722 37.808,394.547 37.977,394.41 38.178,394.278 
			38.291,394.223 38.398,394.175 38.51,394.151 38.63,394.128 38.738,394.114 38.843,394.108 38.964,394.118 39.065,394.128 
			39.171,394.156 39.273,394.189 39.37,394.231 39.458,394.281 39.535,394.328 39.619,394.386 39.675,394.468 		"></polygon>
		<polygon clip-path="url(#SVGID_2_)" fill-rule="evenodd" clip-rule="evenodd" points="39.814,394.855 39.899,395.039 
			39.93,395.225 39.93,395.41 39.867,395.596 39.787,395.776 39.648,395.947 39.494,396.103 39.285,396.229 39.186,396.278 
			39.067,396.321 38.955,396.346 38.843,396.371 38.725,396.383 38.617,396.399 38.51,396.383 38.397,396.377 38.292,396.353 
			38.19,396.318 38.099,396.278 38.004,396.226 37.929,396.168 37.856,396.115 37.787,396.039 37.721,395.956 37.648,395.775 
			37.606,395.585 37.616,395.404 37.668,395.214 37.757,395.038 37.889,394.864 38.053,394.712 38.252,394.583 38.36,394.537 
			38.469,394.489 38.59,394.468 38.702,394.443 38.811,394.426 38.925,394.424 39.036,394.43 39.14,394.432 39.245,394.458 
			39.347,394.493 39.446,394.537 39.531,394.585 39.618,394.644 39.69,394.701 39.758,394.775 39.811,394.865 		"></polygon>
		<polygon clip-path="url(#SVGID_2_)" fill-rule="evenodd" clip-rule="evenodd" fill="#FFFFFF" points="39.923,395.056 
			40.01,395.232 40.042,395.417 40.038,395.613 39.988,395.792 39.895,395.978 39.756,396.149 39.605,396.294 39.405,396.424 
			39.293,396.48 39.176,396.524 39.065,396.548 38.952,396.573 38.833,396.584 38.729,396.591 38.617,396.584 38.509,396.569 
			38.404,396.544 38.3,396.51 38.21,396.47 38.122,396.431 38.038,396.371 37.965,396.306 37.898,396.231 37.842,396.151 
			37.755,395.978 37.717,395.779 37.727,395.595 37.787,395.419 37.872,395.232 38,395.056 38.163,394.915 38.36,394.785 
			38.472,394.728 38.58,394.682 38.7,394.669 38.813,394.634 38.921,394.62 39.037,394.617 39.148,394.624 39.248,394.634 
			39.353,394.66 39.464,394.697 39.554,394.737 39.645,394.778 39.728,394.837 39.8,394.903 39.869,394.978 		"></polygon>
		<polygon clip-path="url(#SVGID_2_)" fill-rule="evenodd" clip-rule="evenodd" points="40.006,395.364 40.082,395.544 
			40.123,395.733 40.112,395.916 40.06,396.105 39.968,396.282 39.839,396.456 39.675,396.608 39.476,396.738 39.368,396.785 
			39.249,396.827 39.139,396.851 39.027,396.876 38.918,396.893 38.799,396.905 38.692,396.889 38.58,396.883 38.483,396.861 
			38.373,396.824 38.283,396.784 38.197,396.734 38.111,396.675 38.038,396.621 37.97,396.544 37.914,396.464 37.83,396.281 
			37.79,396.091 37.799,395.909 37.861,395.722 37.942,395.542 38.072,395.37 38.236,395.216 38.444,395.09 38.543,395.041 
			38.662,394.998 38.771,394.973 38.885,394.949 39.002,394.936 39.112,394.919 39.218,394.936 39.323,394.939 39.436,394.966 
			39.539,395.001 39.629,395.042 39.716,395.091 39.8,395.15 39.873,395.206 39.941,395.281 		"></polygon>
		<polygon clip-path="url(#SVGID_2_)" fill-rule="evenodd" clip-rule="evenodd" points="29.753,392.998 29.763,392.939 
			29.173,394.489 29.36,394.549 29.949,393 29.952,392.96 		"></polygon>
		<polygon clip-path="url(#SVGID_2_)" fill-rule="evenodd" clip-rule="evenodd" points="29.738,392.918 29.742,392.911 
			29.753,392.998 29.952,392.96 29.931,392.871 29.934,392.861 		"></polygon>
		<polygon clip-path="url(#SVGID_2_)" fill-rule="evenodd" clip-rule="evenodd" points="29.717,392.831 29.738,392.918 
			29.935,392.861 29.913,392.77 		"></polygon>
		
			<rect x="29.76" y="392.658" transform="matrix(-0.2989 -0.9543 0.9543 -0.2989 -336.0898 538.6068)" clip-path="url(#SVGID_2_)" fill-rule="evenodd" clip-rule="evenodd" width="0.085" height="0.204"></rect>
		<polygon clip-path="url(#SVGID_2_)" fill-rule="evenodd" clip-rule="evenodd" points="29.669,392.659 29.669,392.659 
			29.692,392.75 29.887,392.691 29.865,392.601 29.863,392.609 		"></polygon>
		<polygon clip-path="url(#SVGID_2_)" fill-rule="evenodd" clip-rule="evenodd" points="29.645,392.548 29.645,392.58 
			29.669,392.659 29.863,392.609 29.838,392.529 29.847,392.563 		"></polygon>
		<polygon clip-path="url(#SVGID_2_)" fill-rule="evenodd" clip-rule="evenodd" points="29.843,392.51 29.649,392.477 
			29.646,392.548 29.847,392.563 29.85,392.492 29.654,392.456 29.84,392.519 		"></polygon>
		<polygon clip-path="url(#SVGID_2_)" fill-rule="evenodd" clip-rule="evenodd" fill="#4D494A" points="30.013,397.022 
			29.994,396.923 29.788,396.957 29.802,397.066 		"></polygon>
		<polygon clip-path="url(#SVGID_2_)" fill-rule="evenodd" clip-rule="evenodd" points="30.445,395.73 30.451,395.68 
			29.864,397.221 30.051,397.283 30.638,395.741 30.634,395.688 		"></polygon>
		<polygon clip-path="url(#SVGID_2_)" fill-rule="evenodd" clip-rule="evenodd" points="30.429,395.621 30.445,395.73 
			30.634,395.688 30.619,395.582 30.42,395.618 		"></polygon>
		<polygon clip-path="url(#SVGID_2_)" fill-rule="evenodd" clip-rule="evenodd" points="30.401,395.519 30.42,395.618 
			30.619,395.582 30.591,395.478 		"></polygon>
		<polygon clip-path="url(#SVGID_2_)" fill-rule="evenodd" clip-rule="evenodd" points="30.376,395.408 30.382,395.419 
			30.401,395.519 30.59,395.478 30.575,395.37 30.582,395.383 		"></polygon>
		<polygon clip-path="url(#SVGID_2_)" fill-rule="evenodd" clip-rule="evenodd" points="30.563,395.314 30.365,395.289 
			30.376,395.408 30.582,395.383 30.566,395.275 30.368,395.25 		"></polygon>
		<path clip-path="url(#SVGID_2_)" fill="#4D494A" d="M29.174,394.181l-0.095,0.027L29.174,394.181z"></path>
		<polygon clip-path="url(#SVGID_2_)" fill="#4D494A" points="29.272,394.504 29.276,394.496 29.324,394.5 29.36,394.549 
			29.274,394.522 		"></polygon>
		<polygon clip-path="url(#SVGID_2_)" points="29.058,394.12 29.158,394.1 29.161,394.03 29.751,392.481 29.748,392.489 
			29.748,392.55 29.762,392.628 29.793,392.722 29.82,392.802 29.84,392.892 29.855,392.969 29.949,393 29.36,394.549 29.324,394.5 
			29.276,394.496 29.272,394.504 29.274,394.522 29.36,394.549 29.274,394.545 29.276,394.616 29.217,394.542 29.167,394.539 
			29.155,394.451 29.191,394.443 29.228,394.344 29.129,394.372 29.102,394.299 29.08,394.208 29.174,394.181 29.08,394.208 
			29.083,394.2 		"></polygon>
		<polygon clip-path="url(#SVGID_2_)" points="29.269,394.417 33.587,394.276 33.698,394.281 33.717,394.29 33.823,394.313 
			33.833,394.318 33.944,394.354 34.052,394.401 34.061,394.404 34.164,394.469 34.183,394.474 34.263,394.543 34.289,394.563 
			34.347,394.632 34.353,394.646 34.394,394.71 34.397,394.731 34.206,394.791 34.175,394.743 34.173,394.751 34.124,394.682 
			34.125,394.682 34.058,394.629 34.074,394.646 33.968,394.589 33.968,394.589 33.859,394.543 33.767,394.511 33.662,394.488 
			33.68,394.493 33.581,394.481 33.581,394.472 29.276,394.616 		"></polygon>
		<polygon clip-path="url(#SVGID_2_)" points="34.202,394.792 34.206,394.791 34.216,394.806 		"></polygon>
		<polygon clip-path="url(#SVGID_2_)" fill-rule="evenodd" clip-rule="evenodd" points="36.507,398.414 36.507,398.352 
			35.918,399.903 36.113,399.968 36.704,398.417 36.704,398.356 		"></polygon>
		<polygon clip-path="url(#SVGID_2_)" fill-rule="evenodd" clip-rule="evenodd" points="34.804,393.265 34.791,393.242 
			36.507,398.414 36.704,398.356 34.986,393.181 34.982,393.161 		"></polygon>
		<polygon clip-path="url(#SVGID_2_)" fill-rule="evenodd" clip-rule="evenodd" points="34.77,393.213 34.763,393.201 
			34.804,393.265 34.982,393.161 34.943,393.095 34.933,393.091 34.758,393.21 		"></polygon>
		<polygon clip-path="url(#SVGID_2_)" fill-rule="evenodd" clip-rule="evenodd" points="34.729,393.148 34.713,393.133 
			34.759,393.21 34.933,393.091 34.869,393.009 34.852,392.992 		"></polygon>
		<polygon clip-path="url(#SVGID_2_)" fill-rule="evenodd" clip-rule="evenodd" points="34.66,393.104 34.646,393.089 
			34.729,393.148 34.853,392.992 34.768,392.934 34.753,392.918 		"></polygon>
		<polygon clip-path="url(#SVGID_2_)" fill-rule="evenodd" clip-rule="evenodd" points="34.567,393.042 34.558,393.04 
			34.66,393.104 34.753,392.918 34.647,392.863 34.639,392.861 		"></polygon>
		<polygon clip-path="url(#SVGID_2_)" fill-rule="evenodd" clip-rule="evenodd" points="34.468,393 34.446,393.001 34.567,393.042 
			34.638,392.861 34.531,392.814 34.52,392.81 34.457,393.004 		"></polygon>
		<polygon clip-path="url(#SVGID_2_)" fill-rule="evenodd" clip-rule="evenodd" points="34.356,392.962 34.343,392.967 
			34.458,393.004 34.52,392.81 34.408,392.774 34.353,392.971 		"></polygon>
		<polygon clip-path="url(#SVGID_2_)" fill-rule="evenodd" clip-rule="evenodd" points="34.27,392.943 34.25,392.937 
			34.353,392.971 34.408,392.774 34.294,392.746 34.285,392.742 		"></polygon>
		<polygon clip-path="url(#SVGID_2_)" fill-rule="evenodd" clip-rule="evenodd" points="34.169,392.93 34.167,392.939 
			34.271,392.943 34.285,392.742 34.175,392.725 34.164,392.733 		"></polygon>
		<polygon clip-path="url(#SVGID_2_)" fill-rule="evenodd" clip-rule="evenodd" points="29.958,393.003 29.853,393.071 
			34.169,392.93 34.164,392.733 29.855,392.876 29.763,392.939 29.949,393 		"></polygon>
		<polygon clip-path="url(#SVGID_2_)" fill="#4D494A" points="31.043,397.717 31.028,397.708 31.038,397.704 		"></polygon>
		<path clip-path="url(#SVGID_2_)" fill="#4D494A" d="M33.375,398.415l-0.018,0.209L33.375,398.415z"></path>
		<path clip-path="url(#SVGID_2_)" d="M29.801,397.066l0.021,0.099l0.036,0.105l0.047,0.079l0.264,0.139l0.263,0.14l0.255,0.137
			l0.257,0.127l0.01,0.004l0.261,0.116l0.26,0.119l0.282,0.114l0.286,0.106l0.01,0.003l0.303,0.08l0.305,0.081l0.01,0.004
			l0.334,0.05l0.345,0.052l0.01,0.003l0.375,0.021l0.013-0.005l0.4,0.009l0.427-0.013l0.454-0.024l0.093-0.062l0.585-1.542
			l-0.099-0.136l0.006,0.198l-0.03-0.038l0.023-0.059l-0.065,0.004l-0.027-0.034l-0.016,0.038l-0.336,0.021h-0.436l-0.399-0.009
			l-0.365-0.02l-0.356-0.047l-0.334-0.058l-0.303-0.081l-0.304-0.081l-0.285-0.106l-0.276-0.103l-0.261-0.117l-0.258-0.127
			l-0.267-0.131l-0.255-0.136l-0.253-0.137l-0.176-0.093l0.005-0.018l-0.093-0.03l-0.025-0.11L30.5,395.5l-0.009-0.033l0.071-0.152
			l-0.1-0.032l-0.004-0.001l-0.092-0.03l-0.588,1.54l-0.006,0.05l0.017,0.107L29.801,397.066z M29.875,396.82l0.004,0.021
			l-0.012-0.005L29.875,396.82z"></path>
		<polygon clip-path="url(#SVGID_2_)" fill-rule="evenodd" clip-rule="evenodd" points="35.161,397.096 35.611,397.071 
			35.605,396.873 35.153,396.897 		"></polygon>
		
			<rect x="34.728" y="396.903" transform="matrix(-0.9996 0.0273 -0.0273 -0.9996 80.7197 792.9019)" clip-path="url(#SVGID_2_)" fill-rule="evenodd" clip-rule="evenodd" width="0.429" height="0.199"></rect>
		<polygon clip-path="url(#SVGID_2_)" fill-rule="evenodd" clip-rule="evenodd" points="34.322,397.096 34.333,397.097 
			34.731,397.108 34.724,396.91 34.325,396.901 34.338,396.894 34.319,397.104 		"></polygon>
		<polygon clip-path="url(#SVGID_2_)" fill-rule="evenodd" clip-rule="evenodd" points="33.936,397.071 33.948,397.073 
			34.319,397.104 34.338,396.894 33.961,396.871 33.97,396.875 		"></polygon>
		<polygon clip-path="url(#SVGID_2_)" fill-rule="evenodd" clip-rule="evenodd" points="33.589,397.028 33.936,397.071 
			33.97,396.875 33.626,396.822 		"></polygon>
		<polygon clip-path="url(#SVGID_2_)" fill-rule="evenodd" clip-rule="evenodd" points="33.247,396.965 33.258,396.969 
			33.589,397.028 33.625,396.822 33.283,396.77 33.292,396.772 		"></polygon>
		<polygon clip-path="url(#SVGID_2_)" fill-rule="evenodd" clip-rule="evenodd" points="32.945,396.883 33.247,396.965 
			33.292,396.772 32.989,396.691 32.941,396.893 		"></polygon>
		<polygon clip-path="url(#SVGID_2_)" fill-rule="evenodd" clip-rule="evenodd" points="32.627,396.81 32.638,396.814 
			32.941,396.893 32.989,396.691 32.684,396.611 32.694,396.615 		"></polygon>
		<polygon clip-path="url(#SVGID_2_)" fill-rule="evenodd" clip-rule="evenodd" points="32.342,396.704 32.342,396.704 
			32.627,396.81 32.694,396.615 32.408,396.508 32.417,396.511 32.333,396.7 		"></polygon>
		<polygon clip-path="url(#SVGID_2_)" fill-rule="evenodd" clip-rule="evenodd" points="32.061,396.59 32.334,396.7 32.418,396.511 
			32.145,396.4 		"></polygon>
		<polygon clip-path="url(#SVGID_2_)" fill-rule="evenodd" clip-rule="evenodd" points="31.8,396.47 32.061,396.59 32.144,396.4 
			31.88,396.29 		"></polygon>
		<polygon clip-path="url(#SVGID_2_)" fill-rule="evenodd" clip-rule="evenodd" points="31.533,396.339 31.538,396.353 31.8,396.47 
			31.88,396.29 31.614,396.162 31.623,396.165 31.53,396.349 		"></polygon>
		<polygon clip-path="url(#SVGID_2_)" fill-rule="evenodd" clip-rule="evenodd" points="31.275,396.214 31.53,396.349 
			31.623,396.165 31.366,396.037 31.273,396.222 		"></polygon>
		<polygon clip-path="url(#SVGID_2_)" fill-rule="evenodd" clip-rule="evenodd" points="31.023,396.077 31.274,396.222 
			31.366,396.037 31.112,395.901 31.011,396.075 		"></polygon>
		<polygon clip-path="url(#SVGID_2_)" fill-rule="evenodd" clip-rule="evenodd" points="30.757,395.938 31.011,396.075 
			31.112,395.901 30.858,395.763 		"></polygon>
		<polygon clip-path="url(#SVGID_2_)" fill-rule="evenodd" clip-rule="evenodd" points="30.638,395.741 30.494,395.798 
			30.757,395.936 30.858,395.763 30.594,395.625 30.451,395.68 		"></polygon>
		<polygon clip-path="url(#SVGID_2_)" fill-rule="evenodd" clip-rule="evenodd" points="57.523,392.949 56.933,394.5 58.86,395.141 
			59.306,394.112 59.318,394.013 59.322,393.911 59.306,393.801 59.269,393.697 59.207,393.604 59.157,393.503 59.076,393.405 
			58.994,393.316 58.907,393.235 58.809,393.151 58.709,393.076 58.615,393.022 58.521,392.961 58.412,392.915 58.316,392.862 
			58.224,392.832 58.14,392.803 58.04,392.791 57.951,392.782 57.864,392.794 57.777,392.807 57.685,392.836 57.603,392.894 		"></polygon>
		<polygon clip-path="url(#SVGID_2_)" fill-rule="evenodd" clip-rule="evenodd" points="58.773,395.092 58.893,395.041 
			56.967,394.398 56.902,394.593 58.829,395.234 58.958,395.185 		"></polygon>
		<polygon clip-path="url(#SVGID_2_)" points="29.058,394.027 29.067,393.999 29.655,392.456 29.84,392.519 29.272,394.042 
			29.259,394.104 29.256,394.083 29.058,394.12 29.056,394.098 		"></polygon>
		<polygon clip-path="url(#SVGID_2_)" fill="#4D494A" points="38.502,397.674 38.468,397.695 38.464,397.693 		"></polygon>
		<path clip-path="url(#SVGID_2_)" d="M29.129,394.372l0.021,0.09l0.004-0.011l0.15-0.03l-0.039,0.099l4.317-0.141l0.103,0.004
			l0.112,0.037l0.111,0.036l0.11,0.039l0.104,0.063l0.084,0.06l0.06,0.072l0.035,0.069l-0.101,0.032l1.717,5.174l0.1,0.001
			l0.002,0.064h0.155l0.146-0.004l0.133,0.004l0.121-0.023l0.123-0.031l0.125-0.061l0.114-0.097l0.138-0.13l0.002-0.011l0.079-0.107
			l0.089-0.114l0.103-0.12l0.072-0.122l0.091-0.146l0.093-0.124l0.076-0.139l0.1-0.145l0.08-0.116l0.115-0.127l0.094-0.124
			l0.107-0.109l0.096-0.103l0.104-0.091l0.099-0.079l0.115-0.064l0.024-0.014l-0.074-0.07l0.074,0.07l0.115-0.127l0.104-0.099
			l0.093-0.093l0.101-0.082l0.097-0.07l0.101-0.06l0.09-0.052l0.101-0.05l0.11-0.025l0.11-0.046l0.111-0.025l0.129-0.018
			l0.144-0.024l0.158-0.011l0.171-0.015l0.167-0.006l0.011,0.004l18.631-1.393l0.108-0.015l0.101-0.019l0.089-0.022l0.094-0.031
			l0.086-0.043l0.091-0.054l0.074-0.067l0.085-0.075l0.02-0.023l0.325-0.759l-0.169-0.11l0.074,0.074l-0.011,0.01l-0.084-0.059
			l-0.08,0.19l-0.056,0.032l-0.07,0.029l-0.085,0.033l-0.078,0.016l-0.099,0.019l-0.101,0.019l-18.639,1.389l-0.119,0.011
			l-0.114,0.004l-0.113,0.003l-0.121,0.02h-0.126l-0.107,0.018l-0.117,0.014l-0.109,0.015l-0.121,0.021l-0.108,0.015l-0.111,0.024
			l-0.124,0.032l-0.111,0.024l-0.12,0.044l-0.117,0.043l-0.111,0.057l-0.22,0.133l-0.224,0.204L38.3,397.1l-0.227,0.276l-0.22,0.288
			l-0.189,0.257l-0.187,0.249l-0.153,0.186l-0.092,0.021l-0.076,0.017l-0.097,0.008h-0.094h-0.094l-0.079-0.006l-0.103-0.003
			l-0.091-0.011l-1.711-5.16l-0.036-0.074l-0.06-0.072l-0.082-0.058l-0.114-0.067l-0.107-0.048l-0.112-0.038l-0.104-0.024
			l-0.104-0.003l-4.314,0.132l-0.519,1.363l-0.002-0.018L29.129,394.372z M60.13,394.514l0.006-0.013l0.071,0.067L60.13,394.514z"></path>
		<polygon clip-path="url(#SVGID_2_)" fill-rule="evenodd" clip-rule="evenodd" points="59.479,394.895 59.591,394.87 
			59.689,394.851 59.781,394.828 59.874,394.797 59.959,394.754 60.049,394.703 60.122,394.644 60.208,394.569 60.061,394.425 
			59.995,394.497 59.926,394.547 59.86,394.587 59.79,394.615 59.721,394.633 59.64,394.658 59.553,394.67 59.458,394.68 		"></polygon>
		<polygon clip-path="url(#SVGID_2_)" fill-rule="evenodd" clip-rule="evenodd" points="40.85,396.277 59.479,394.895 
			59.458,394.68 40.827,396.071 		"></polygon>
		<polygon clip-path="url(#SVGID_2_)" fill-rule="evenodd" clip-rule="evenodd" points="39.023,396.607 39.132,396.562 
			39.238,396.524 39.367,396.483 39.47,396.446 39.586,396.414 39.694,396.397 39.802,396.381 39.923,396.36 40.024,396.339 
			40.137,396.338 40.255,396.326 40.374,396.313 40.491,396.301 40.596,396.294 40.723,396.286 40.85,396.277 40.827,396.071 
			40.708,396.085 40.592,396.095 40.467,396.095 40.348,396.109 40.233,396.113 40.123,396.136 40.006,396.139 39.879,396.149 
			39.768,396.173 39.656,396.198 39.535,396.22 39.411,396.25 39.305,396.288 39.178,396.328 39.051,396.369 38.94,396.423 		"></polygon>
		<polygon clip-path="url(#SVGID_2_)" fill-rule="evenodd" clip-rule="evenodd" points="37.354,398.449 37.396,398.421 
			37.478,398.325 37.552,398.225 37.642,398.111 37.736,397.986 37.842,397.857 37.938,397.723 38.046,397.583 38.156,397.445 
			38.265,397.295 38.381,397.167 38.494,397.05 38.609,396.923 38.704,396.82 38.826,396.738 38.923,396.657 39.023,396.607 
			38.94,396.423 38.813,396.497 38.704,396.573 38.576,396.675 38.457,396.791 38.344,396.908 38.233,397.026 38.108,397.181 
			38,397.32 37.892,397.459 37.784,397.599 37.688,397.732 37.581,397.862 37.488,397.986 37.398,398.102 37.325,398.201 
			37.255,398.282 37.292,398.262 		"></polygon>
		<polygon clip-path="url(#SVGID_2_)" fill-rule="evenodd" clip-rule="evenodd" fill="#FFFFFF" points="33.786,392.844 
			34.169,392.837 34.202,392.837 30.899,391.736 30.731,391.835 33.783,392.854 		"></polygon>
		<polygon clip-path="url(#SVGID_2_)" fill-rule="evenodd" clip-rule="evenodd" fill="#FFFFFF" points="33.786,392.844 
			29.855,392.969 29.84,392.892 29.82,392.802 29.794,392.722 29.763,392.628 29.748,392.55 29.748,392.489 29.772,392.415 
			29.84,392.364 30.003,392.253 30.182,392.149 30.362,392.042 30.542,391.937 30.712,391.829 30.731,391.835 33.783,392.854 		"></polygon>
		<polygon clip-path="url(#SVGID_2_)" fill="#FFFFFF" points="31.397,395.232 34.074,395.08 35.122,395.501 35.491,396.595 
			35.604,396.974 35.161,397.002 34.724,397.002 34.325,396.994 33.959,396.974 33.603,396.927 33.269,396.87 32.966,396.789 
			32.663,396.708 32.377,396.601 32.1,396.499 31.841,396.381 31.583,396.254 31.316,396.124 31.061,395.988 30.808,395.851 
			30.544,395.71 30.519,395.6 30.5,395.5 30.476,395.389 30.459,395.28 		"></polygon>
		<polygon clip-path="url(#SVGID_2_)" fill-rule="evenodd" clip-rule="evenodd" fill="#FFFFFF" points="38.14,395.537 
			38.178,395.582 38.521,395.789 38.633,395.611 38.289,395.401 38.323,395.454 38.14,395.537 38.153,395.561 38.178,395.582 		"></polygon>
		<polygon clip-path="url(#SVGID_2_)" fill-rule="evenodd" clip-rule="evenodd" fill="#FFFFFF" points="35.079,395.601 
			35.02,395.53 35.511,397.004 35.704,396.946 35.215,395.469 35.163,395.412 35.215,395.469 35.2,395.424 35.163,395.412 		"></polygon>
		<polygon clip-path="url(#SVGID_2_)" fill-rule="evenodd" clip-rule="evenodd" fill="#FFFFFF" points="34.083,395.176 
			34.033,395.169 35.079,395.601 35.163,395.412 34.119,394.98 34.077,394.978 34.119,394.98 34.098,394.975 34.077,394.978 		"></polygon>
		<polygon clip-path="url(#SVGID_2_)" fill-rule="evenodd" clip-rule="evenodd" fill="#FFFFFF" points="30.566,395.275 
			30.465,395.385 34.083,395.176 34.077,394.978 30.46,395.186 30.365,395.289 30.46,395.186 30.344,395.189 30.365,395.289 		"></polygon>
		<polygon clip-path="url(#SVGID_2_)" fill-rule="evenodd" clip-rule="evenodd" fill="#FFFFFF" points="30.594,395.625 
			30.634,395.688 30.63,395.636 30.619,395.582 30.615,395.528 30.6,395.482 30.596,395.429 30.583,395.374 30.569,395.327 
			30.566,395.275 30.365,395.289 30.365,395.351 30.373,395.417 30.389,395.46 30.393,395.514 30.407,395.561 30.42,395.618 
			30.442,395.676 30.445,395.73 30.494,395.798 30.445,395.73 30.459,395.775 30.494,395.798 		"></polygon>
		<polygon clip-path="url(#SVGID_2_)" fill-rule="evenodd" clip-rule="evenodd" fill="#FFFFFF" points="35.511,396.996 
			35.596,396.87 35.153,396.897 34.724,396.91 34.338,396.894 33.961,396.871 33.626,396.822 33.292,396.772 32.989,396.691 
			32.694,396.615 32.408,396.508 32.146,396.4 31.88,396.29 31.623,396.165 31.367,396.037 31.112,395.901 30.858,395.763 
			30.594,395.625 30.494,395.798 30.757,395.938 31.012,396.075 31.274,396.222 31.53,396.349 31.8,396.47 32.061,396.59 
			32.342,396.704 32.627,396.81 32.941,396.893 33.248,396.965 33.588,397.028 33.946,397.073 34.319,397.104 34.732,397.108 
			35.161,397.096 35.621,397.074 35.704,396.946 35.621,397.074 35.748,397.065 35.704,396.946 35.511,397.004 		"></polygon>
		<polygon clip-path="url(#SVGID_2_)" fill-rule="evenodd" clip-rule="evenodd" fill="#FFFFFF" points="40.827,396.071 
			40.691,396.078 40.537,396.099 40.401,396.105 40.252,396.117 40.109,396.142 39.958,396.165 39.806,396.186 39.659,396.22 
			39.514,396.254 39.386,396.294 39.247,396.339 39.116,396.39 39.004,396.446 38.872,396.504 38.764,396.583 38.664,396.662 
			38.789,396.819 38.884,396.748 38.978,396.684 39.079,396.625 39.197,396.583 39.313,396.518 39.436,396.486 39.583,396.453 
			39.709,396.413 39.849,396.397 39.973,396.367 40.123,396.353 40.264,396.329 40.417,396.307 40.566,396.294 40.705,396.279 
			40.85,396.277 		"></polygon>
		<polygon clip-path="url(#SVGID_2_)" fill-rule="evenodd" clip-rule="evenodd" fill="#FFFFFF" points="59.458,394.68 
			40.827,396.071 40.85,396.277 59.479,394.895 		"></polygon>
		<polygon clip-path="url(#SVGID_2_)" fill-rule="evenodd" clip-rule="evenodd" fill="#FFFFFF" points="59.805,393.544 
			59.882,393.654 59.964,393.753 60.001,393.858 60.06,393.96 60.089,394.054 60.1,394.15 60.102,394.233 60.096,394.313 
			60.075,394.378 60.043,394.442 60.003,394.5 59.931,394.559 59.858,394.597 59.739,394.64 59.616,394.67 59.458,394.68 
			59.479,394.895 59.65,394.878 59.799,394.834 59.928,394.785 60.043,394.721 60.15,394.652 60.224,394.552 60.264,394.462 
			60.301,394.351 60.298,394.236 60.304,394.125 60.279,394.013 60.239,393.887 60.193,393.777 60.129,393.654 60.049,393.524 
			59.97,393.424 		"></polygon>
		<polygon clip-path="url(#SVGID_2_)" fill-rule="evenodd" clip-rule="evenodd" fill="#FFFFFF" points="57.583,392.484 
			57.751,392.477 57.921,392.494 58.096,392.531 58.263,392.556 58.422,392.609 58.581,392.661 58.732,392.733 58.875,392.8 
			59.024,392.881 59.159,392.967 59.306,393.058 59.411,393.145 59.523,393.244 59.63,393.352 59.721,393.455 59.805,393.544 
			59.97,393.424 59.874,393.309 59.764,393.201 59.656,393.091 59.536,392.99 59.402,392.894 59.269,392.798 59.132,392.709 
			58.977,392.617 58.816,392.543 58.651,392.477 58.484,392.422 58.308,392.363 58.134,392.326 57.957,392.296 57.753,392.282 
			57.579,392.284 		"></polygon>
		<polygon clip-path="url(#SVGID_2_)" fill-rule="evenodd" clip-rule="evenodd" fill="#FFFFFF" points="41.1,393.051 
			57.584,392.484 57.579,392.284 41.103,392.856 		"></polygon>
		<polygon clip-path="url(#SVGID_2_)" fill-rule="evenodd" clip-rule="evenodd" fill="#FFFFFF" points="38.498,392.637 
			38.652,392.701 38.817,392.734 38.975,392.787 39.14,392.821 39.313,392.859 39.474,392.902 39.65,392.929 39.808,392.953 
			39.974,392.987 40.144,393 40.311,393.026 40.476,393.028 40.634,393.051 40.802,393.044 40.953,393.054 41.1,393.051 
			41.103,392.856 40.947,392.856 40.794,392.847 40.653,392.84 40.492,392.829 40.331,392.816 40.169,392.802 40.01,392.781 
			39.843,392.757 39.679,392.722 39.522,392.701 39.361,392.658 39.192,392.632 39.031,392.587 38.86,392.542 38.716,392.505 
			38.56,392.453 38.495,392.647 		"></polygon>
		<polygon clip-path="url(#SVGID_2_)" fill-rule="evenodd" clip-rule="evenodd" fill="#FFFFFF" points="32.936,391.115 
			33.218,391.074 33.486,391.048 33.74,391.029 33.971,391.014 34.192,391.004 34.391,391.029 34.595,391.036 34.766,391.052 
			34.943,391.079 35.108,391.115 35.262,391.145 35.403,391.191 35.551,391.242 35.668,391.291 35.814,391.349 35.929,391.408 
			36.062,391.474 36.197,391.539 36.328,391.615 36.457,391.689 36.587,391.762 36.723,391.85 36.857,391.916 37.001,392.005 
			37.163,392.08 37.318,392.172 37.493,392.241 37.66,392.327 37.849,392.411 38.054,392.481 38.272,392.572 38.495,392.647 
			38.56,392.453 38.335,392.377 38.117,392.294 37.932,392.221 37.741,392.147 37.564,392.057 37.412,391.986 37.256,391.893 
			37.104,391.821 36.957,391.742 36.816,391.663 36.685,391.589 36.55,391.501 36.42,391.427 36.286,391.362 36.153,391.298 
			36.032,391.225 35.898,391.162 35.753,391.101 35.616,391.046 35.467,390.997 35.31,390.943 35.145,390.91 34.978,390.884 
			34.793,390.844 34.605,390.822 34.41,390.82 34.183,390.817 33.966,390.815 33.713,390.825 33.459,390.843 33.19,390.877 
			32.912,390.908 32.926,391.109 		"></polygon>
		<polygon clip-path="url(#SVGID_2_)" fill-rule="evenodd" clip-rule="evenodd" fill="#FFFFFF" points="29.893,392.456 
			30.054,392.342 30.234,392.237 30.415,392.133 30.597,392.018 30.765,391.919 30.955,391.816 31.132,391.72 31.313,391.637 
			31.509,391.547 31.705,391.457 31.896,391.376 32.095,391.308 32.311,391.256 32.505,391.197 32.719,391.145 32.927,391.109 
			32.912,390.908 32.679,390.954 32.458,390.996 32.241,391.056 32.036,391.113 31.833,391.199 31.622,391.274 31.43,391.355 
			31.233,391.445 31.036,391.543 30.846,391.646 30.668,391.742 30.488,391.847 30.308,391.953 30.129,392.057 29.958,392.167 
			29.788,392.274 29.884,392.453 		"></polygon>
		<polygon clip-path="url(#SVGID_2_)" fill-rule="evenodd" clip-rule="evenodd" fill="#FFFFFF" points="29.855,392.876 
			29.96,392.963 29.931,392.871 29.913,392.77 29.887,392.691 29.866,392.601 29.853,392.544 29.842,392.51 29.859,392.464 
			29.884,392.453 29.788,392.274 29.698,392.357 29.651,392.467 29.638,392.567 29.669,392.659 29.692,392.75 29.717,392.831 
			29.742,392.911 29.756,392.989 29.853,393.071 29.756,392.989 29.759,393.071 29.853,393.071 		"></polygon>
		<polygon clip-path="url(#SVGID_2_)" fill="#FFFFFF" points="37.47,393.609 37.468,393.618 37.467,393.618 		"></polygon>
		<polygon clip-path="url(#SVGID_2_)" fill="#FFFFFF" points="37.423,393.655 37.467,393.618 37.442,393.722 		"></polygon>
		<polygon clip-path="url(#SVGID_2_)" fill="#FFFFFF" points="40.2,394.839 43.598,395.973 43.23,395.995 43.227,396.003 
			40.276,395.019 		"></polygon>
		<path clip-path="url(#SVGID_2_)" fill="#FFFFFF" d="M29.853,393.071l4.316-0.141l0.091,0.009l0.083,0.028l0.113,0.037l0.102,0.035
			l0.093,0.062l0.068,0.043l0.04,0.065l0.031,0.031l1.718,5.172l0.024,0.08l0.084-0.002l0.088-0.012l0.099,0.012l0.121,0.01
			l0.113-0.004l0.112,0.008l0.103-0.028l0.114-0.034l0.093-0.062l0.111-0.119l0.094-0.124l0.088-0.104l0.086-0.105l0.075-0.1
			l0.071-0.091l0.062-0.091l0.075-0.101l0.062-0.093l0.071-0.09l0.071-0.091l0.077-0.077l0.08-0.087l0.093-0.093l0.096-0.093
			l0.116-0.104l-0.062-0.079l0.093-0.078l0.107-0.066l0.122-0.053l0.109-0.057l0.122-0.051l0.135-0.038l0.142-0.048l0.135-0.036
			l0.131-0.019l0.143-0.025l0.151-0.021l0.144-0.024l0.148-0.012l0.149-0.014l0.139-0.016l0.138-0.005l2.395-0.174l-2.951-0.984
			l-0.076-0.18l3.398,1.134l15.873-1.185l0.297-0.046l0.221-0.103l0.151-0.146l0.055-0.168v-0.186l0.004-0.011l-0.053-0.213
			l-0.105-0.211l-0.152-0.228l-0.09-0.102l-0.099-0.104l-0.108-0.108l-0.114-0.091l-0.121-0.103l-0.137-0.087l-0.145-0.09
			l-0.146-0.09l-0.155-0.062l-0.153-0.071l-0.166-0.056l-0.178-0.06l-0.167-0.023l-0.174-0.038l-0.181-0.019l-0.176,0.003
			l-2.398,0.089l-14.077,0.481h-0.156l-0.145,0.002l-0.165-0.002l-0.157-0.021l-0.163-0.013l-0.161-0.013L40,392.88l-0.169-0.024
			l-0.167-0.024l-0.165-0.034l-0.164-0.036l-0.163-0.033L39,392.682l-0.161-0.045l-0.153-0.04l-0.157-0.052l-0.225-0.076
			l-0.219-0.083l-0.193-0.074l-0.191-0.075l-0.168-0.086l-0.161-0.074l-0.167-0.088l-0.152-0.071l-0.147-0.089l-0.129-0.075
			l-0.14-0.078l-0.13-0.074l-0.141-0.076l-0.128-0.076l-0.125-0.062l-0.13-0.075l-0.134-0.063l-0.138-0.058l-0.129-0.043
			l-0.149-0.049l-0.157-0.053l-0.151-0.042l-0.169-0.023l-0.178-0.027l-0.181-0.021l-0.2-0.015l-0.214-0.011l-0.22,0.011
			l-0.229,0.006l-0.258,0.027l-0.268,0.025l-0.289,0.037l-0.219,0.03l-0.214,0.053l-0.215,0.053l-0.198,0.068l-0.21,0.075
			l-0.202,0.077l-0.192,0.079l-0.194,0.091l-0.188,0.093l-0.188,0.103l3.013,1.005l-4.057,0.136L29.853,393.071z M57.463,393.157
			l0.019-0.118l0.042-0.09l0.072-0.067l0.111-0.056l0.131-0.019l0.072,0.003l0.081,0.006l0.076,0.016l0.077,0.016l0.094,0.031
			l0.085,0.028l0.089,0.04l0.097,0.052l0.079,0.037l0.086,0.06l0.073,0.056l0.082,0.068l0.083,0.059l0.058,0.071l0.072,0.065
			l0.06,0.07l0.107,0.14l0.056,0.145l0.028,0.07l0.015,0.047l-0.008,0.121l-0.023,0.096l-0.068,0.081l-0.099,0.049l-0.133,0.028
			l-0.075,0.007l-0.076-0.017l-0.09-0.009l-0.097-0.021l-0.085-0.029l-0.093-0.032l-0.098-0.041l-0.09-0.051l-0.087-0.04
			l-0.099-0.054l-0.083-0.058l-0.08-0.069l-0.073-0.057l-0.079-0.075l-0.067-0.075l-0.059-0.073l-0.096-0.146l-0.057-0.141
			l-0.017-0.047L57.463,393.157z M40.302,395.349L40.302,395.349l-0.066-0.053L40.302,395.349z M37.661,393.71l0.108-0.11
			l1.417-0.081l0.3,0.156l0.71,1.672l-0.109,0.14l-1.521,0.109l0.067,0.015l-0.052,0.081h-0.006l-0.339-0.194l-0.001-0.003
			l0.088-0.041L37.661,393.71z"></path>
		<polygon clip-path="url(#SVGID_2_)" fill-rule="evenodd" clip-rule="evenodd" points="56.504,394.232 56.417,394.183 
			56.402,394.104 56.527,394.074 56.552,394.156 56.477,394.098 		"></polygon>
		<polygon clip-path="url(#SVGID_2_)" fill-rule="evenodd" clip-rule="evenodd" points="56.673,394.132 56.654,394.158 
			56.623,394.189 56.585,394.208 56.549,394.225 56.504,394.232 56.477,394.098 56.496,394.104 56.524,394.083 56.558,394.074 
			56.561,394.065 56.555,394.083 56.669,394.142 		"></polygon>
		<polygon clip-path="url(#SVGID_2_)" fill-rule="evenodd" clip-rule="evenodd" points="56.323,393.355 56.333,393.358 
			56.391,393.43 56.467,393.507 56.542,393.594 56.614,393.689 56.671,393.792 56.707,393.908 56.708,394.031 56.669,394.142 
			56.555,394.083 56.579,394.008 56.574,393.936 56.552,393.844 56.496,393.765 56.434,393.672 56.368,393.596 56.288,393.519 
			56.228,393.449 56.238,393.451 		"></polygon>
		<polygon clip-path="url(#SVGID_2_)" fill-rule="evenodd" clip-rule="evenodd" points="55.18,393.026 55.17,393.022 
			55.335,393.026 55.491,393.026 55.637,393.052 55.776,393.069 55.917,393.106 56.052,393.172 56.191,393.25 56.323,393.355 
			56.239,393.451 56.111,393.368 55.99,393.295 55.875,393.237 55.751,393.205 55.614,393.181 55.476,393.165 55.333,393.159 
			55.186,393.163 55.191,393.153 55.167,393.032 		"></polygon>
		<polygon clip-path="url(#SVGID_2_)" fill-rule="evenodd" clip-rule="evenodd" points="43.079,393.661 43.13,393.625 
			55.167,393.032 55.191,393.153 43.15,393.756 43.202,393.722 		"></polygon>
		<polygon clip-path="url(#SVGID_2_)" fill-rule="evenodd" clip-rule="evenodd" points="42.792,394.082 42.662,394.038 
			42.672,393.948 42.697,393.875 42.733,393.793 42.782,393.738 42.848,393.697 42.932,393.663 43.025,393.632 43.13,393.625 
			43.15,393.756 43.049,393.775 42.96,393.797 42.917,393.802 42.874,393.839 42.852,393.875 42.818,393.914 42.799,393.97 
			42.803,394.053 42.672,394.009 		"></polygon>
		<polygon clip-path="url(#SVGID_2_)" points="56.428,394.031 56.395,393.977 56.349,393.922 56.315,393.87 56.269,393.822 
			56.225,393.767 56.179,393.72 56.136,393.665 56.012,393.572 55.884,393.489 55.756,393.435 55.624,393.401 55.486,393.384 
			55.337,393.358 55.196,393.35 55.042,393.35 43,393.956 43.098,393.767 43.137,393.762 43.15,393.756 55.191,393.153 
			55.392,393.168 55.559,393.163 55.716,393.184 55.863,393.211 55.996,393.277 56.117,393.348 56.23,393.449 56.356,393.594 
			56.468,393.724 56.549,393.854 56.588,393.95 56.588,394.011 56.561,394.065 56.484,394.112 56.472,394.114 56.468,394.095 		"></polygon>
		<path clip-path="url(#SVGID_2_)" d="M42.663,394.038l0.012,0.118l0.024,0.08l0.034,0.114l0.081,0.131l0.099,0.105l0.127,0.116
			l0.153,0.102l0.171,0.077l0.178,0.049l0.218,0.001l12.37-0.628l0.235-0.024l0.167-0.036l0.122-0.085l0.068-0.112l-0.004-0.113
			l-0.046-0.141l-0.09-0.133l-0.124-0.156l-0.127-0.145l-0.138-0.119l-0.144-0.089l-0.143-0.068l-0.156-0.03l-0.187-0.031h-0.186
			l-0.212,0.012l-12.037,0.593v0.004l-0.128,0.007l-0.129,0.05l-0.086,0.074l-0.06,0.084l-0.041,0.09L42.663,394.038z
			 M42.803,394.053l0.014-0.078l0.005-0.011l0.012-0.004h0.062L43,393.955l0.1-0.188l0.036-0.005l0.013-0.006l12.042-0.604
			l0.201,0.016l0.167-0.006l0.157,0.021l0.146,0.027l0.134,0.065l0.12,0.071l0.111,0.101l0.129,0.146l0.11,0.13l0.082,0.13
			l0.039,0.096v0.062l-0.027,0.054l-0.077,0.047l-0.012,0.002l-0.135,0.032l-0.204,0.023l-12.374,0.638l-0.009-0.003l-0.173-0.007
			l-0.17-0.046l-0.154-0.071l-0.128-0.074l-0.11-0.109l-0.076-0.109l-0.067-0.104l-0.055-0.09l-0.01-0.066L42.803,394.053z"></path>
	</g>
</g>
</svg>