<svg version="1.1" id="Layer_1" xmlns="http://www.w3.org/2000/svg" xmlns:xlink="http://www.w3.org/1999/xlink" x="0px" y="0px" width="375" height="975" viewBox="0 0 375 975" enable-background="new 0 0 90 234" xml:space="preserve">
<polygon fill="#919396" points="90,0 0,0 0,234 90,234 90,0 "></polygon>
<rect x="0.844" y="0.542" fill="#E7E6E6" width="42.716" height="7.017"></rect>

<g>
	<circle fill-rule="evenodd" clip-rule="evenodd" cx="4.044" cy="3.845" r="2.696"></circle>
	<circle fill-rule="evenodd" clip-rule="evenodd" fill="#B7D333" cx="4.046" cy="3.86" r="2.45"></circle>
	<g>
		<path d="M3.521,3.325c-0.034,0.301-0.06,0.542-0.076,0.724L3.333,4.054c0.002-0.006,0.002-0.013,0.002-0.021
			c0-0.014-0.004-0.032-0.015-0.054c-0.01-0.022-0.017-0.036-0.018-0.042c-0.029,0.004-0.057,0.024-0.083,0.06
			C3.194,4.034,3.17,4.051,3.149,4.051c-0.012,0-0.025-0.003-0.041-0.009C3.088,4.055,3.062,4.06,3.03,4.058
			c-0.028-0.005-0.057-0.01-0.084-0.013c-0.001-0.038-0.039-0.071-0.112-0.1c0-0.016-0.007-0.038-0.023-0.067
			c-0.015-0.03-0.023-0.051-0.022-0.063c0-0.014,0.005-0.025,0.016-0.034C2.803,3.776,2.791,3.748,2.768,3.696
			C2.751,3.657,2.743,3.625,2.744,3.597c0-0.021,0.005-0.041,0.015-0.059C2.746,3.409,2.74,3.297,2.742,3.205
			c0.002-0.143,0.022-0.273,0.062-0.393C2.8,2.793,2.799,2.775,2.799,2.757c0.001-0.095,0.035-0.162,0.1-0.198v-0.03
			c0.064-0.081,0.147-0.14,0.251-0.176c0.062,0.015,0.124,0.029,0.187,0.042C3.406,2.418,3.454,2.46,3.48,2.518
			c0.021,0.013,0.031,0.038,0.031,0.076C3.51,2.636,3.515,2.664,3.525,2.676L3.514,2.689c0.013,0.09,0.018,0.145,0.018,0.165
			C3.53,2.911,3.516,2.952,3.486,2.976c-0.011,0-0.039-0.009-0.084-0.028C3.392,2.958,3.38,2.963,3.368,2.963
			c-0.006,0-0.017-0.003-0.033-0.01C3.319,2.947,3.306,2.944,3.295,2.943c-0.007,0-0.015,0.001-0.022,0.004
			c0-0.121,0.003-0.21,0.012-0.269C3.272,2.671,3.26,2.653,3.247,2.626C3.234,2.598,3.219,2.583,3.199,2.579
			C3.187,2.594,3.181,2.604,3.183,2.608L3.142,2.594C3.105,2.635,3.08,2.705,3.068,2.805C3.055,2.92,3.04,2.997,3.021,3.035
			c0.016,0.017,0.024,0.041,0.023,0.071c0,0.011-0.001,0.028-0.005,0.053C3.035,3.182,3.033,3.2,3.033,3.213
			c0,0.013,0,0.025,0.004,0.036L3.009,3.276c0.011,0.052,0.018,0.118,0.02,0.197C3.028,3.54,3.027,3.606,3.028,3.673
			c-0.001,0-0.015,0-0.039,0.001c-0.015,0-0.026,0.005-0.032,0.016c0.009-0.001,0.018-0.002,0.025-0.002
			c0.034,0,0.06,0.024,0.079,0.071c0.019,0.046,0.035,0.07,0.05,0.07c0.015,0,0.036-0.014,0.062-0.043
			C3.216,3.739,3.24,3.673,3.241,3.59c0-0.041-0.004-0.085-0.014-0.132C3.217,3.463,3.211,3.479,3.21,3.503
			c-0.024,0-0.04,0.004-0.045,0.015C3.154,3.515,3.149,3.506,3.151,3.493c0.001-0.02,0.003-0.03,0.003-0.032
			c0.018-0.005,0.028-0.014,0.028-0.024c0-0.004-0.003-0.013-0.01-0.025c-0.007-0.013-0.01-0.022-0.01-0.03
			c0-0.006,0.002-0.012,0.005-0.019l0.01-0.089c0.034,0.01,0.105,0.014,0.217,0.013C3.391,3.294,3.396,3.304,3.408,3.316
			c0.011-0.01,0.021-0.016,0.034-0.015c0.009,0,0.023,0.004,0.041,0.012C3.501,3.321,3.514,3.325,3.521,3.325z"></path>
		<path d="M4.372,4.11C4.351,4.101,4.329,4.096,4.304,4.095c-0.021,0-0.051,0.004-0.087,0.013C4.175,4.116,4.148,4.121,4.132,4.122
			C4.116,4.09,4.105,4.046,4.098,3.99c-0.012-0.083-0.02-0.129-0.023-0.14C4.08,3.841,4.082,3.833,4.082,3.828
			C4.083,3.811,4.07,3.796,4.043,3.782C4.017,3.769,4.004,3.758,4.004,3.75c0-0.008,0.016-0.022,0.046-0.04
			C4.043,3.702,4.038,3.683,4.034,3.655c-0.003-0.028-0.01-0.047-0.021-0.056C3.995,3.615,3.964,3.625,3.923,3.63
			C3.881,3.634,3.853,3.642,3.84,3.65c0.001,0.119-0.019,0.198-0.059,0.239C3.76,3.884,3.744,3.892,3.732,3.913
			c-0.016,0.026-0.029,0.04-0.04,0.045l0.014,0.016c-0.012,0.01-0.033,0.015-0.06,0.013C3.604,3.984,3.582,3.983,3.579,3.983
			L3.566,3.942l0.148-1.23c0.001-0.078,0.005-0.13,0.012-0.158C3.724,2.485,3.74,2.443,3.774,2.427
			c0.021,0.014,0.047,0.021,0.079,0.022c0.026,0,0.066-0.005,0.121-0.017s0.093-0.017,0.114-0.016
			c0.074,0.001,0.107,0.055,0.098,0.161c-0.007,0.085,0.006,0.197,0.04,0.335C4.261,3.062,4.278,3.175,4.277,3.25
			c0,0.023,0.007,0.07,0.005,0.093C4.25,3.36,4.209,3.371,4.159,3.374C4.115,3.376,4.07,3.379,4.024,3.381
			C4.012,3.265,3.992,3.126,3.98,3.012c-0.015-0.137-0.032-0.25-0.054-0.339l-0.07,0.651C3.851,3.38,3.876,3.409,3.933,3.41
			c0.018,0,0.036-0.004,0.053-0.013c0.014-0.004,0.032,0.005,0.056,0.031C4.041,3.475,4.05,3.503,4.07,3.513
			c0.024-0.016,0.057-0.032,0.097-0.046c0.035-0.013,0.07-0.025,0.104-0.037c0.019,0.027,0.031,0.065,0.037,0.117
			C4.312,3.62,4.317,3.662,4.32,3.674c0.002,0.029,0.015,0.092,0.036,0.188C4.371,3.938,4.378,4,4.378,4.046
			C4.378,4.069,4.375,4.091,4.372,4.11z"></path>
		<path d="M5.422,3.025C5.42,3.03,5.419,3.056,5.42,3.104c-0.001,0.04-0.005,0.069-0.015,0.089c-0.011,0.03-0.017,0.074-0.019,0.13
			c0,0.012,0,0.031,0.001,0.057c0,0.026-0.001,0.045-0.001,0.057C5.386,3.533,5.37,3.602,5.338,3.646
			C5.341,3.67,5.342,3.694,5.341,3.719C5.34,3.795,5.314,3.897,5.263,4.025C5.25,4.03,5.238,4.032,5.229,4.032
			C5.21,4.031,5.198,4.021,5.189,4c-0.008-0.02-0.016-0.04-0.022-0.058C5.171,3.825,5.169,3.655,5.16,3.431l0.014-0.014
			C5.164,3.378,5.159,3.333,5.16,3.285C5.161,3.25,5.165,3.199,5.172,3.133c0.008-0.067,0.012-0.117,0.013-0.151
			c0-0.021,0-0.042,0-0.062c-0.053,0.125-0.09,0.337-0.112,0.636L5.054,3.602c-0.007,0.015-0.02,0.023-0.04,0.025
			C5.009,3.616,5.003,3.611,4.997,3.611c-0.005,0-0.013,0.005-0.025,0.016C4.961,3.638,4.951,3.643,4.944,3.642l-0.03,0.027
			C4.927,3.686,4.956,3.688,5,3.674c0.035-0.01,0.053,0.003,0.054,0.04c0,0.031-0.007,0.07-0.025,0.123
			c-0.018,0.051-0.026,0.09-0.027,0.116c0,0.019,0.002,0.037,0.006,0.054L4.851,4.032C4.836,4.001,4.825,3.95,4.818,3.878
			C4.811,3.806,4.8,3.754,4.785,3.724c0.009-0.011,0.014-0.022,0.014-0.034c0-0.011-0.003-0.027-0.012-0.048
			C4.778,3.62,4.772,3.604,4.771,3.593C4.771,3.577,4.765,3.536,4.755,3.472C4.749,3.42,4.746,3.379,4.746,3.351
			c0-0.015,0.001-0.029,0.003-0.042c0-0.01-0.006-0.026-0.018-0.047C4.72,3.242,4.714,3.227,4.714,3.218
			c0-0.007,0.003-0.015,0.01-0.021C4.713,3.185,4.709,3.165,4.71,3.134C4.713,3.103,4.708,3.082,4.698,3.07
			C4.676,3.128,4.665,3.208,4.663,3.309C4.661,3.448,4.66,3.529,4.658,3.55l0.016,0.014L4.658,3.578
			c0.011,0.055,0.016,0.125,0.015,0.209C4.668,3.94,4.666,4.012,4.666,4.002C4.645,4.021,4.615,4.03,4.577,4.03
			C4.53,4.029,4.498,4.033,4.481,4.042c-0.019-0.034-0.028-0.077-0.027-0.13c0-0.041,0.007-0.091,0.021-0.15
			c-0.021-0.039-0.03-0.092-0.029-0.16c0-0.017,0.002-0.049,0.006-0.096c0.002-0.038,0.003-0.066,0.002-0.084
			c0.015-0.007,0.023-0.015,0.023-0.024c0-0.006-0.004-0.017-0.015-0.031C4.452,3.351,4.447,3.34,4.447,3.333
			c0-0.009,0.006-0.019,0.019-0.027L4.417,2.568C4.446,2.549,4.494,2.54,4.559,2.541C4.63,2.543,4.679,2.54,4.705,2.529
			c0.004-0.002,0.01-0.004,0.016-0.004c0.006,0,0.013,0.003,0.021,0.01C4.751,2.543,4.756,2.546,4.76,2.546
			c0.005,0,0.011-0.005,0.016-0.013l0.042,0.042c0.015,0.053,0.028,0.157,0.041,0.311c0.013,0.132,0.033,0.232,0.061,0.3
			C4.957,3.05,4.988,2.938,5.012,2.847l0.05-0.361l0.354-0.008c0.001,0.02,0.006,0.125,0.015,0.187
			c0.008,0.053,0.012,0.096,0.012,0.13C5.441,2.833,5.435,2.867,5.424,2.897c0.012,0.017,0.018,0.038,0.017,0.063
			C5.44,2.988,5.434,3.009,5.422,3.025z"></path>
		<path d="M6.146,3.824V3.822C6.137,3.841,6.131,3.864,6.13,3.889C6.128,3.906,6.127,3.93,6.128,3.96
			C6.129,3.995,6.13,4.02,6.129,4.033c-0.012,0-0.061,0-0.146-0.002C5.932,4.03,5.886,4.034,5.844,4.044L5.802,3.998
			C5.789,4.01,5.785,4.02,5.788,4.028C5.78,4.025,5.745,4.025,5.683,4.025c-0.048,0-0.085-0.006-0.109-0.015
			C5.549,4.036,5.52,4.035,5.487,4.009C5.475,4,5.474,3.983,5.483,3.962C5.493,3.939,5.49,3.923,5.475,3.913
			c0.002-0.048,0.009-0.124,0.02-0.225c0.011-0.091,0.017-0.163,0.018-0.214c0-0.07-0.004-0.137-0.016-0.201
			c0.018-0.016,0.037-0.024,0.058-0.023c0.024,0,0.053,0.012,0.086,0.035c0.046,0.032,0.071,0.049,0.071,0.049l0.015,0.016
			C5.728,3.345,5.736,3.321,5.75,3.277C5.758,3.248,5.77,3.229,5.785,3.22l0.014,0.014c0.006-0.003,0.026-0.017,0.06-0.042
			c0.026-0.018,0.047-0.06,0.062-0.06c0.017,0,0.032,0.009,0.047,0.028C5.995,3.174,6.01,3.229,6.018,3.257
			c0.009,0.029,0.016,0.057,0.023,0.084c-0.068,0.002-0.125,0-0.169-0.005C5.861,3.353,5.847,3.355,5.826,3.343
			c-0.019-0.012-0.034-0.01-0.043,0.004c0,0.028-0.001,0.077-0.003,0.148C5.778,3.56,5.777,3.61,5.779,3.646
			c0,0.056,0.003,0.108,0.01,0.155c0.013,0.001,0.07,0.002,0.173,0.003C6.034,3.806,6.095,3.812,6.146,3.824z M6.151,2.731
			C6.138,2.733,6.123,2.734,6.106,2.733c-0.036,0-0.081-0.006-0.14-0.016c-0.071-0.01-0.114-0.016-0.129-0.018
			C5.816,2.73,5.804,2.775,5.803,2.833C5.801,2.958,5.801,3.012,5.802,2.995c0.021,0.013,0.032,0.036,0.032,0.069
			C5.831,3.109,5.831,3.133,5.833,3.135C5.822,3.139,5.816,3.154,5.816,3.18C5.799,3.173,5.782,3.161,5.764,3.143
			C5.74,3.119,5.727,3.198,5.729,3.178L5.714,3.226L5.701,3.211C5.689,3.213,5.668,3.206,5.639,3.192
			c-0.029-0.014-0.05-0.027-0.062-0.04c0-0.024,0.004-0.038,0.012-0.041L5.56,3.079L5.546,3.1C5.529,2.94,5.533,2.645,5.554,2.478
			c0.058,0.01,0.122,0.017,0.191,0.019C5.792,2.5,5.858,2.5,5.943,2.5c0.097,0,0.167,0,0.209,0.001
			C6.171,2.519,6.18,2.541,6.179,2.568c0,0.017-0.005,0.044-0.014,0.082C6.156,2.686,6.152,2.714,6.151,2.731z"></path>
	</g>
	<g>
		<path d="M3.59,5.202L3.59,5.202c0,0-0.004,0.033-0.012,0.1c-0.004,0.04-0.014,0.072-0.029,0.096l-0.01-0.009
			C3.521,5.428,3.495,5.452,3.463,5.46C3.448,5.476,3.426,5.484,3.398,5.487C3.381,5.488,3.341,5.483,3.279,5.472
			C3.25,5.453,3.233,5.443,3.23,5.441C3.211,5.427,3.203,5.413,3.204,5.398C3.186,5.38,3.16,5.347,3.15,5.305
			C3.139,5.259,3.132,5.257,3.121,5.241C3.104,5.254,3.098,5.227,3.088,5.21l0.008-0.007C3.091,5.2,3.088,5.195,3.088,5.19
			c0-0.004,0.001-0.009,0.005-0.016c0.002-0.007,0.004-0.012,0.004-0.016c0-0.006-0.004-0.011-0.01-0.015
			C3.094,5.107,3.1,5.054,3.105,4.982c0.012-0.007,0.018-0.02,0.018-0.039c-0.001-0.018,0.002-0.03,0.008-0.037
			C3.16,4.848,3.207,4.809,3.272,4.789c0.003,0,0.021,0,0.053-0.001c0.021,0,0.038,0.002,0.049,0.006
			c0.02-0.004,0.039,0.001,0.059,0.014c0.017,0.013,0.034,0.025,0.05,0.038C3.515,4.88,3.532,4.919,3.534,4.962
			c0.001,0.015,0,0.03-0.002,0.045c-0.024,0-0.041,0.015-0.05,0.047L3.391,5.062C3.381,5.049,3.375,5.03,3.374,5.007
			c0-0.008,0-0.02,0-0.034c0-0.016,0-0.027,0-0.035C3.372,4.914,3.367,4.896,3.357,4.881L3.33,4.897
			c-0.012-0.004-0.017-0.011-0.018-0.02c0-0.003,0.001-0.007,0.001-0.012C3.314,4.86,3.315,4.856,3.315,4.854
			c0-0.009-0.009-0.015-0.025-0.017C3.279,4.939,3.275,5.044,3.28,5.152c0.003,0.004,0.012,0.006,0.026,0.008
			c0.011,0.001,0.017,0.004,0.018,0.01c0,0.002-0.001,0.005-0.002,0.009L3.313,5.187c0.004,0.008,0.008,0.019,0.008,0.032
			c0,0.007,0,0.018,0,0.033C3.32,5.267,3.319,5.278,3.32,5.285c0.001,0.022,0.007,0.038,0.016,0.049c0,0.016,0.006,0.027,0.02,0.033
			C3.364,5.363,3.372,5.361,3.38,5.361c0.027-0.002,0.046,0.014,0.058,0.045c0,0,0,0.006,0,0.017c0,0.006,0.003,0.009,0.008,0.011
			c0.013-0.007,0.019-0.021,0.019-0.04c0-0.021,0.002-0.035,0.008-0.042C3.47,5.343,3.464,5.329,3.454,5.31
			c-0.011-0.02-0.017-0.034-0.017-0.045C3.437,5.254,3.44,5.243,3.447,5.232C3.441,5.23,3.438,5.226,3.438,5.219
			c0-0.01,0-0.016,0-0.016C3.489,5.191,3.539,5.191,3.59,5.202z"></path>
		<path d="M4.002,5.287L4.002,5.287c-0.006,0.01-0.008,0.025-0.006,0.045C3.999,5.359,4,5.373,4,5.374
			c-0.004,0.001-0.01,0-0.017-0.006c-0.011,0.004-0.016,0.011-0.015,0.02c0,0.001,0,0.004,0.001,0.007
			c0,0.004,0.001,0.006,0.001,0.008c0,0.007-0.002,0.013-0.007,0.017C3.952,5.413,3.936,5.408,3.917,5.406
			C3.896,5.405,3.877,5.403,3.86,5.401c0-0.091-0.013-0.181-0.037-0.269c0,0.001,0-0.008-0.001-0.027
			c0-0.014-0.003-0.023-0.009-0.029L3.804,5.084c0-0.001,0.003-0.004,0.008-0.008C3.818,5.072,3.821,5.069,3.82,5.064
			c0-0.002,0-0.004-0.002-0.006L3.81,5.051C3.794,5.057,3.787,5.069,3.788,5.089c0.001,0.013-0.004,0.022-0.016,0.028
			c0.004,0.003,0.007,0.007,0.007,0.012c0,0.002,0,0.006-0.002,0.011c0,0.005-0.001,0.009,0,0.011c0,0.006,0.003,0.011,0.009,0.014
			c0,0.004,0.002,0.041,0.007,0.109c0.002,0.044,0.001,0.081-0.004,0.111l0,0.017c-0.006,0-0.012,0-0.02,0
			c-0.008,0-0.021,0.001-0.036,0.003C3.718,5.409,3.707,5.41,3.699,5.41C3.668,5.412,3.646,5.407,3.634,5.395L3.621,5.02
			c-0.006-0.019-0.01-0.044-0.012-0.077L3.604,4.87C3.602,4.834,3.598,4.807,3.591,4.788c0.003-0.013,0.015-0.02,0.034-0.021
			c0.013-0.001,0.029,0.001,0.05,0.005c0.01-0.004,0.023-0.008,0.041-0.009c0.005,0,0.013,0,0.024,0
			c0.012-0.001,0.02-0.001,0.025-0.001C3.798,4.76,3.819,4.75,3.83,4.731c0.016,0,0.031,0.005,0.05,0.015
			c0.017,0.009,0.033,0.015,0.046,0.015C3.961,4.782,3.98,4.817,3.983,4.865c0,0.011-0.004,0.053-0.012,0.127L3.909,5.046
			C3.92,5.065,3.933,5.106,3.947,5.169C3.959,5.223,3.978,5.262,4.002,5.287z M3.89,4.859L3.891,4.86
			c0.001,0.005,0-0.012-0.001-0.049C3.889,4.793,3.882,4.78,3.87,4.771c-0.007,0.01,0,0.015-0.002,0.037
			C3.864,4.832,3.851,4.825,3.843,4.835c-0.021,0-0.026,0.013-0.031-0.007c-0.01-0.032-0.017-0.03-0.017-0.03L3.786,4.803
			c-0.003,0.003-0.007,0.006-0.01,0.01C3.771,4.816,3.768,4.817,3.763,4.816c0,0.004-0.001,0.011-0.006,0.019
			C3.753,4.844,3.751,4.85,3.751,4.854c0,0.006,0.005,0.01,0.014,0.013C3.765,4.88,3.764,4.895,3.765,4.908
			c0,0.009,0.002,0.027,0.006,0.056c0.003,0.022,0.005,0.042,0.005,0.058c0.007,0,0.014,0,0.021,0
			c0.029-0.001,0.048-0.013,0.057-0.034C3.856,4.981,3.86,4.958,3.863,4.92C3.866,4.892,3.875,4.871,3.89,4.859z"></path>
		<path d="M4.476,5.432C4.464,5.429,4.451,5.428,4.438,5.429c-0.012,0-0.027,0.003-0.047,0.009c-0.022,0.005-0.038,0.008-0.046,0.01
			C4.335,5.434,4.327,5.415,4.321,5.39C4.312,5.354,4.306,5.334,4.304,5.33c0.002-0.004,0.003-0.008,0.003-0.011
			c0-0.007-0.008-0.013-0.023-0.018C4.27,5.296,4.261,5.292,4.261,5.288c0-0.004,0.008-0.01,0.024-0.02
			C4.281,5.265,4.277,5.257,4.275,5.245c-0.002-0.012-0.007-0.02-0.014-0.024c-0.01,0.008-0.025,0.014-0.048,0.018
			C4.19,5.242,4.175,5.246,4.168,5.25c0.005,0.052,0,0.144-0.021,0.163c-0.011-0.001-0.02,0.003-0.025,0.013
			c-0.008,0.011-0.014,0.018-0.02,0.021L4.11,5.454C4.103,5.459,4.093,5.462,4.077,5.462c-0.023,0-0.036,0.001-0.037,0.001
			L4.031,5.445l0.035-0.604c-0.002-0.034-0.001-0.058,0-0.07c-0.003-0.03,0.004-0.049,0.022-0.058
			C4.102,4.72,4.116,4.722,4.134,4.721c0.013,0,0.036-0.004,0.065-0.012c0.03-0.007,0.05-0.011,0.062-0.012
			c0.041-0.002,0.06,0.02,0.059,0.067C4.319,4.802,4.33,4.851,4.354,4.911c0.025,0.064,0.039,0.113,0.04,0.146
			c0.001,0.01,0.014,0.031,0.014,0.041C4.39,5.107,4.368,5.114,4.34,5.118C4.316,5.12,4.292,5.123,4.268,5.125
			C4.256,5.075,4.233,5.014,4.223,4.964C4.21,4.904,4.196,4.855,4.182,4.817l-0.016,0.29c0,0.025,0.014,0.036,0.045,0.035
			c0.01,0,0.02-0.003,0.029-0.008c0.007-0.002,0.018,0.001,0.032,0.011C4.272,5.166,4.278,5.178,4.29,5.181
			C4.302,5.173,4.32,5.165,4.34,5.157c0.019-0.007,0.038-0.014,0.056-0.02c0.011,0.011,0.019,0.027,0.024,0.05
			c0.006,0.032,0.01,0.05,0.012,0.056c0.002,0.012,0.011,0.039,0.025,0.081c0.011,0.033,0.018,0.06,0.019,0.081
			C4.477,5.415,4.477,5.423,4.476,5.432z"></path>
		<path d="M4.82,4.748h0.001c-0.01,0.015-0.022,0.017-0.038,0.008c-0.004-0.001-0.019,0-0.045,0.002
			C4.716,4.76,4.7,4.758,4.69,4.755c-0.003,0-0.008,0.003-0.015,0.007C4.667,4.768,4.663,4.77,4.659,4.77
			c-0.005,0-0.008-0.004-0.008-0.013c0-0.001-0.001-0.007-0.001-0.017c0-0.006-0.004-0.011-0.01-0.014L4.625,4.739
			C4.619,4.743,4.617,4.746,4.618,4.75c0,0.003,0.003,0.008,0.008,0.014c0.005,0.006,0.009,0.011,0.01,0.013
			c0,0.003,0.002,0.033,0.005,0.091c0.001,0.037,0.008,0.066,0.021,0.088c0.003-0.003,0.011-0.006,0.022-0.006
			c0.013,0,0.021-0.003,0.024-0.008C4.716,4.95,4.729,4.95,4.748,4.944S4.779,4.94,4.787,4.95L4.785,5.039
			C4.777,5.038,4.766,5.034,4.752,5.028C4.748,5.041,4.739,5.049,4.727,5.053c-0.005,0.001-0.02,0.003-0.043,0.004
			c0.001-0.004-0.002-0.008-0.011-0.013C4.651,5.055,4.643,5.081,4.648,5.122c0-0.004,0.001,0.003,0.003,0.021
			c0,0.012-0.002,0.02-0.008,0.025C4.629,5.169,4.611,5.167,4.589,5.158C4.568,5.149,4.552,5.146,4.542,5.146
			c-0.004,0-0.008,0-0.011,0.002L4.508,5.155L4.471,4.749L4.466,4.671c0.031-0.01,0.07-0.017,0.115-0.02
			C4.618,4.649,4.665,4.65,4.722,4.653c0.004-0.008,0.011,0.001,0.019,0.001c0.004,0,0.011,0,0.019,0.001
			c0.008,0.001,0.015,0.001,0.019,0.001c0.005,0,0.01,0,0.013-0.002l0.006-0.006c0.017,0.005,0.026,0.014,0.026,0.026
			c0.001,0.006,0,0.015-0.004,0.028C4.817,4.715,4.815,4.725,4.815,4.731C4.816,4.738,4.818,4.743,4.82,4.748z M4.674,5.425
			C4.666,5.43,4.652,5.433,4.634,5.434C4.609,5.436,4.595,5.437,4.59,5.438c-0.002-0.002-0.006,0-0.011-0.021
			c-0.003-0.014-0.012-0.021-0.026-0.02c-0.003,0-0.007,0.001-0.013,0.002L4.518,5.399L4.506,5.194
			c0.012-0.006,0.027-0.01,0.045-0.011c0.018-0.001,0.034,0.001,0.047,0.005c0,0.008,0.01,0.011,0.032,0.009l0.023-0.001
			C4.667,5.254,4.677,5.358,4.674,5.425z"></path>
		<path d="M5.32,4.765l0.001,0c-0.012,0-0.05,0.002-0.079,0.006C5.218,4.774,5.2,4.775,5.187,4.773
			C5.175,4.781,5.17,4.792,5.173,4.806l0.008,0.004c-0.006,0.006-0.008,0.01-0.006,0.013l0.006,0.007
			c-0.001,0.119-0.001,0.186,0,0.198C5.182,5.06,5.186,5.087,5.191,5.111C5.187,5.126,5.185,5.144,5.186,5.163
			c0.001,0.013,0.003,0.033,0.009,0.061C5.2,5.251,5.207,5.342,5.208,5.356c0,0.01,0,0.021-0.001,0.03
			C5.196,5.391,5.183,5.394,5.17,5.395C5.147,5.396,5.124,5.391,5.098,5.381C5.095,5.384,5.091,5.387,5.087,5.39
			S5.082,5.397,5.084,5.401C5.076,5.403,5.064,5.4,5.05,5.391C5.042,5.27,5.02,5.024,4.988,4.776
			C4.977,4.786,4.957,4.777,4.935,4.78C4.909,4.783,4.884,4.779,4.874,4.784c-0.013-0.014-0.01-0.018-0.011-0.04
			C4.861,4.723,4.854,4.67,4.86,4.647c0.001-0.004,0.048-0.002,0.076-0.004C4.973,4.641,4.981,4.65,4.983,4.65
			c0.003-0.004,0.021-0.002,0.035-0.003c0.009,0.004,0.018-0.004,0.018,0.002c0,0.004,0,0.029-0.003,0.037S5.029,4.698,5.03,4.701
			c0,0.008,0.006-0.003,0.02,0.001c0.015,0,0.03-0.001,0.045-0.001c0.018,0.001,0.039-0.005,0.037,0.01
			c0.003-0.004,0.005,0.003,0.03-0.007c0.019-0.008,0.031-0.031,0.027-0.045C5.187,4.65,5.198,4.645,5.191,4.649
			C5.2,4.644,5.192,4.647,5.202,4.643c0.031,0.003,0.048,0,0.054-0.001c0.012,0,0.044,0.008,0.052,0.003
			c0.006,0.011,0.01,0.048,0.01,0.068C5.319,4.746,5.32,4.763,5.32,4.765z"></path>
		<path d="M5.725,5.184L5.725,5.184c-0.004,0.008-0.007,0.019-0.007,0.03c0,0.007,0,0.018,0.002,0.031
			c0.002,0.016,0.003,0.026,0.003,0.032c-0.007,0.001-0.034,0.002-0.08,0.005C5.615,5.284,5.589,5.288,5.567,5.294L5.542,5.275
			C5.536,5.281,5.534,5.286,5.536,5.289c-0.004,0-0.023,0.001-0.057,0.003C5.452,5.293,5.432,5.293,5.417,5.29
			C5.405,5.302,5.39,5.303,5.37,5.292c-0.007-0.003-0.008-0.01-0.003-0.02C5.371,5.261,5.369,5.254,5.36,5.25
			c0-0.021,0.001-0.055,0.003-0.1C5.366,5.11,5.367,5.078,5.366,5.055C5.363,5.024,5.358,4.995,5.35,4.967
			c0.009-0.008,0.019-0.012,0.031-0.013C5.394,4.954,5.41,4.958,5.429,4.967C5.456,4.979,5.469,4.986,5.47,4.986l0.008,0.006
			c0-0.002,0.004-0.013,0.01-0.033c0.003-0.013,0.01-0.021,0.018-0.025l0.008,0.005C5.517,4.938,5.527,4.93,5.545,4.918
			c0.013-0.01,0.023-0.042,0.032-0.042c0.009-0.001,0.018,0.002,0.026,0.01C5.619,4.892,5.629,4.928,5.635,4.94
			C5.64,4.952,5.646,4.964,5.65,4.977C5.613,4.979,5.582,4.981,5.558,4.98C5.552,4.988,5.544,4.99,5.533,4.986
			C5.521,4.981,5.514,4.982,5.509,4.989c0.001,0.013,0.002,0.034,0.004,0.065c0.001,0.028,0.002,0.05,0.004,0.066
			c0.002,0.025,0.006,0.048,0.011,0.068c0.007,0,0.039-0.002,0.095-0.005C5.663,5.182,5.696,5.182,5.725,5.184z M5.687,4.712
			C5.679,4.713,5.671,4.713,5.662,4.714c-0.02,0.001-0.044,0-0.077-0.001C5.545,4.71,5.521,4.71,5.513,4.709
			C5.502,4.725,5.501,4.736,5.502,4.762C5.506,4.817,5.508,4.84,5.508,4.833c0.012,0.005,0.018,0.015,0.019,0.03
			c0,0.02,0.001,0.03,0.001,0.03c-0.005,0.003-0.007,0.01-0.006,0.021c-0.009-0.002-0.02-0.007-0.03-0.015
			C5.478,4.89,5.473,4.923,5.474,4.915l-0.006,0.02L5.459,4.93c-0.006,0-0.018-0.001-0.035-0.006
			C5.408,4.918,5.396,4.913,5.39,4.908c0-0.011,0.001-0.017,0.005-0.019L5.377,4.876L5.371,4.886
			c-0.015-0.068-0.025-0.19-0.02-0.265c0.032,0.002,0.07-0.003,0.108-0.005C5.484,4.615,5.521,4.613,5.567,4.61
			c0.054-0.004,0.092-0.007,0.115-0.008c0.01,0.007,0.016,0.017,0.017,0.029c0,0.007-0.001,0.019-0.005,0.036
			C5.691,4.683,5.686,4.703,5.687,4.712z"></path>
		<path d="M6.141,5.113L6.141,5.113C6.135,5.124,6.133,5.139,6.135,5.158C6.137,5.186,6.138,5.2,6.138,5.2
			c-0.004,0.002-0.01,0-0.017-0.005c-0.011,0.004-0.015,0.01-0.015,0.02c0,0.002,0,0.003,0.001,0.007
			c0.001,0.004,0.001,0.007,0.001,0.008c0,0.008-0.002,0.013-0.007,0.017C6.09,5.239,6.075,5.235,6.055,5.233
			S6.016,5.229,5.998,5.228c0-0.091-0.012-0.181-0.036-0.269c0,0.001-0.001-0.008-0.002-0.027c0-0.014-0.003-0.022-0.009-0.028
			L5.942,4.911c0-0.001,0.002-0.004,0.008-0.008c0.005-0.004,0.009-0.008,0.008-0.012c0-0.002,0-0.004-0.001-0.006l-0.01-0.006
			C5.933,4.883,5.925,4.896,5.927,4.916c0,0.014-0.005,0.023-0.016,0.029c0.004,0.003,0.006,0.007,0.006,0.011
			c0,0.003,0,0.006-0.001,0.011S5.915,4.976,5.915,4.978c0,0.006,0.004,0.011,0.01,0.015c0,0.004,0.002,0.04,0.005,0.109
			c0.003,0.043,0.002,0.081-0.003,0.111l0.001,0.017c-0.006,0-0.013,0-0.021,0.001c-0.008,0-0.021,0.001-0.037,0.002
			C5.856,5.235,5.845,5.237,5.837,5.237C5.806,5.239,5.785,5.233,5.772,5.222L5.759,4.846c-0.006-0.019-0.01-0.044-0.012-0.077
			L5.743,4.697C5.74,4.661,5.736,4.633,5.73,4.615c0.002-0.013,0.013-0.02,0.033-0.021c0.013,0,0.029,0.001,0.051,0.005
			C5.823,4.594,5.837,4.591,5.854,4.59c0.005,0,0.013,0,0.024,0c0.012,0,0.02-0.001,0.025-0.001
			c0.033-0.001,0.054-0.011,0.064-0.029c0.015,0,0.032,0.004,0.049,0.014c0.018,0.009,0.034,0.015,0.047,0.015
			C6.1,4.609,6.119,4.644,6.121,4.692C6.122,4.703,6.118,4.745,6.109,4.82L6.048,4.873c0.01,0.019,0.023,0.06,0.038,0.124
			C6.098,5.049,6.116,5.088,6.141,5.113z M6.028,4.686l0.001,0.001c0.001,0.005,0-0.012-0.001-0.049
			c-0.001-0.019-0.007-0.032-0.02-0.04C6.001,4.608,6,4.585,5.997,4.608C5.993,4.631,5.988,4.647,5.98,4.657
			c-0.021,0-0.026-0.012-0.038-0.029C5.934,4.616,5.93,4.625,5.93,4.625L5.925,4.629C5.921,4.633,5.918,4.636,5.914,4.64
			C5.91,4.643,5.906,4.644,5.902,4.643c0,0.004-0.002,0.01-0.006,0.019C5.892,4.67,5.89,4.676,5.89,4.68
			c0,0.006,0.005,0.01,0.015,0.013C5.903,4.707,5.902,4.721,5.903,4.736c0,0.008,0.002,0.026,0.005,0.055
			c0.004,0.022,0.005,0.042,0.005,0.058c0.008,0,0.015,0,0.021,0c0.029-0.002,0.048-0.014,0.057-0.035
			c0.003-0.006,0.006-0.029,0.01-0.067C6.005,4.718,6.014,4.698,6.028,4.686z"></path>
	</g>
	<g>
		<path d="M1.998,3.381L1.998,3.381c-0.004,0.036-0.005,0.06-0.004,0.073C1.989,3.457,1.982,3.458,1.973,3.456
			c-0.011-0.002-0.018-0.003-0.02-0.002c-0.004,0-0.008,0.001-0.012,0.004C1.936,3.454,1.931,3.451,1.928,3.453
			c-0.006,0.004-0.01,0.01-0.009,0.017c0,0.003,0.001,0.008,0.004,0.015c0.002,0.008,0.003,0.013,0.003,0.017
			c0,0.005-0.001,0.013-0.003,0.023C1.921,3.535,1.92,3.543,1.92,3.551c0,0.007,0.002,0.02,0.005,0.037
			c0.003,0.017,0.005,0.029,0.005,0.038c-0.004,0.017-0.005,0.034-0.004,0.05c0.001,0.021,0.007,0.048,0.017,0.083
			c0.001,0,0.003,0,0.005,0c0.004,0,0.009-0.003,0.015-0.009C1.97,3.746,1.975,3.742,1.979,3.742c0.002,0,0.006,0,0.01,0.002
			C2,3.779,2.006,3.802,2.006,3.812c0,0.005,0,0.01,0,0.015C1.991,3.832,1.979,3.827,1.972,3.812c0-0.004-0.002-0.009-0.007-0.013
			L1.947,3.817C1.964,3.82,1.972,3.834,1.968,3.858C1.966,3.863,1.962,3.866,1.956,3.866c-0.01,0-0.015,0-0.014,0L1.927,3.839
			L1.921,3.847C1.916,3.834,1.91,3.829,1.903,3.829c-0.003,0-0.01,0.003-0.019,0.008c-0.009,0.006-0.017,0.01-0.023,0.01
			c-0.004,0-0.009-0.001-0.015-0.004c0-0.007-0.001-0.014-0.002-0.023C1.843,3.813,1.839,3.808,1.832,3.806
			c0-0.019,0-0.068,0.001-0.149c0-0.061,0-0.11-0.001-0.148C1.831,3.493,1.83,3.479,1.829,3.463
			c-0.003-0.005-0.007-0.007-0.01-0.007c-0.002,0-0.006,0.002-0.01,0.007C1.803,3.47,1.799,3.471,1.795,3.471
			c0-0.006-0.003-0.016-0.008-0.029C1.782,3.428,1.779,3.418,1.778,3.413c0-0.011,0.003-0.02,0.012-0.027l0.021,0.005
			C1.82,3.379,1.823,3.358,1.822,3.33c0-0.005-0.001-0.014-0.002-0.026C1.818,3.292,1.817,3.284,1.817,3.278
			C1.815,3.232,1.83,3.208,1.86,3.206c0.011-0.001,0.026,0.001,0.042,0.006l0.02,0.005c0.001,0.008,0.002,0.016,0.003,0.024
			c0.001,0.012,0,0.028-0.001,0.051C1.923,3.315,1.922,3.331,1.923,3.341c0,0.017,0.003,0.031,0.009,0.045
			c0.005,0,0.012-0.003,0.023-0.008C1.964,3.373,1.972,3.37,1.977,3.37C1.985,3.369,1.993,3.373,1.998,3.381z M1.934,3.447
			L1.933,3.426L1.927,3.419L1.934,3.447z"></path>
		<path d="M2.248,3.316L2.248,3.316C2.247,3.333,2.244,3.349,2.242,3.366C2.238,3.384,2.233,3.399,2.226,3.41
			C2.225,3.409,2.216,3.406,2.203,3.399C2.193,3.394,2.185,3.393,2.178,3.394C2.172,3.429,2.169,3.478,2.169,3.539
			c0,0.078-0.001,0.126-0.002,0.142c-0.009,0-0.016,0.002-0.021,0.009C2.142,3.697,2.138,3.703,2.134,3.71
			C2.133,3.714,2.131,3.717,2.131,3.72c0,0.005,0.005,0.009,0.013,0.014c0.008,0.004,0.012,0.01,0.012,0.015
			c-0.003,0.013-0.011,0.02-0.022,0.02c-0.005,0-0.015-0.001-0.028-0.005S2.083,3.759,2.077,3.76L2.064,3.5
			c0.005-0.007,0.007-0.011,0.007-0.014L2.063,3.48c0-0.011,0.001-0.066,0.001-0.164c0-0.066,0.003-0.12,0.008-0.161
			c-0.001,0,0.018-0.001,0.056-0.003c0.023-0.001,0.039,0.006,0.046,0.02c0,0.013-0.001,0.036-0.004,0.068
			C2.167,3.269,2.166,3.291,2.167,3.307c0.001,0.02,0.004,0.038,0.009,0.052C2.197,3.332,2.221,3.317,2.248,3.316z M2.338,3.372
			C2.34,3.396,2.342,3.419,2.343,3.443c0.005,0.101,0.003,0.208-0.005,0.323c-0.009,0.008-0.022,0.01-0.04,0.005
			s-0.031-0.002-0.04,0.005C2.248,3.763,2.242,3.739,2.24,3.703C2.238,3.652,2.236,3.626,2.236,3.625
			c-0.002-0.128,0.01-0.231,0.038-0.31C2.305,3.323,2.327,3.342,2.338,3.372z"></path>
		<path d="M2.658,3.503C2.654,3.512,2.652,3.521,2.653,3.529c0,0.01,0,0.019,0.001,0.027c0,0.007-0.002,0.014-0.006,0.022
			c-0.006-0.001-0.01-0.002-0.014-0.001c-0.004,0-0.009,0.001-0.014,0.004c-0.003,0.003-0.007,0.005-0.01,0.005
			c-0.003,0-0.009-0.001-0.015-0.003L2.554,3.52c0.001,0.018,0.005,0.034,0.012,0.048c0.004,0.007,0.007,0.014,0.01,0.021
			C2.551,3.594,2.537,3.594,2.534,3.591L2.529,3.599l-0.015-0.02C2.502,3.594,2.5,3.614,2.506,3.641
			c0.008,0.03,0.008,0.051,0.001,0.064c0.009,0.014,0.02,0.02,0.033,0.02c0.005,0,0.01-0.002,0.014-0.006
			c0.006-0.016,0.011-0.03,0.018-0.045c0.009-0.019,0.019-0.028,0.03-0.028c0.008,0,0.019,0.004,0.03,0.013
			c0.013,0.005,0.021,0.011,0.021,0.019c0,0.005-0.003,0.013-0.01,0.023c-0.006,0.011-0.009,0.02-0.009,0.026
			c0,0.002,0,0.004,0.001,0.007C2.627,3.74,2.619,3.75,2.612,3.762C2.605,3.775,2.596,3.785,2.584,3.79
			c-0.01,0.009-0.019,0.015-0.027,0.015c-0.007,0-0.017-0.005-0.03-0.016C2.514,3.778,2.501,3.773,2.49,3.774
			C2.485,3.763,2.473,3.751,2.454,3.739C2.436,3.726,2.423,3.711,2.419,3.697c0,0.001,0-0.004,0-0.015
			c0-0.006-0.003-0.01-0.008-0.012l0.007-0.007c-0.009,0-0.014-0.005-0.014-0.016c0-0.001,0-0.003,0-0.007
			c0-0.002,0.001-0.005,0-0.007c0-0.007-0.003-0.012-0.007-0.015L2.395,3.586C2.394,3.57,2.391,3.558,2.385,3.551
			c0.006-0.039,0.012-0.077,0.018-0.116c0.01-0.045,0.024-0.068,0.044-0.069c0.003,0,0.006,0,0.009,0.001
			C2.473,3.351,2.495,3.341,2.519,3.34C2.546,3.338,2.577,3.347,2.61,3.365C2.636,3.407,2.651,3.454,2.658,3.503z M2.532,3.403
			L2.526,3.411C2.522,3.412,2.517,3.409,2.511,3.405l0.001,0.02C2.503,3.436,2.5,3.451,2.501,3.473
			c0.002,0.036,0.003,0.054,0.003,0.052h0.027c0.013-0.007,0.02-0.02,0.019-0.037c0-0.009-0.003-0.022-0.009-0.042
			C2.535,3.427,2.532,3.413,2.532,3.403z"></path>
	</g>
	<g>
		<polygon fill-rule="evenodd" clip-rule="evenodd" points="2.872,4.422 2.899,4.438 2.991,4.196 2.96,4.186 2.868,4.427 
			2.895,4.444 2.872,4.422 2.872,4.422 		"></polygon>
		<polygon fill-rule="evenodd" clip-rule="evenodd" points="2.912,4.388 2.901,4.393 2.872,4.422 2.895,4.444 2.925,4.414 
			2.913,4.419 2.912,4.388 2.912,4.388 		"></polygon>
		<polygon fill-rule="evenodd" clip-rule="evenodd" points="3.134,4.387 3.147,4.376 2.912,4.388 2.913,4.419 3.148,4.408 
			3.164,4.396 3.134,4.387 3.134,4.387 3.134,4.387 		"></polygon>
		<polygon fill-rule="evenodd" clip-rule="evenodd" points="3.241,4.165 3.225,4.145 3.134,4.387 3.164,4.396 3.255,4.155 
			3.24,4.135 3.241,4.165 3.241,4.165 3.241,4.165 		"></polygon>
		<polygon fill-rule="evenodd" clip-rule="evenodd" points="3.017,4.172 3.004,4.178 3.241,4.165 3.24,4.135 3.004,4.146 
			2.992,4.151 3.017,4.172 3.017,4.172 3.017,4.172 		"></polygon>
		<polygon fill-rule="evenodd" clip-rule="evenodd" points="2.991,4.196 2.987,4.201 3.017,4.172 2.992,4.151 2.963,4.181 
			2.96,4.186 2.991,4.196 2.991,4.196 2.991,4.196 		"></polygon>
		<polygon fill-rule="evenodd" clip-rule="evenodd" points="3.186,4.415 3.208,4.406 3.157,4.377 3.141,4.406 3.192,4.435 
			3.215,4.425 3.185,4.415 3.185,4.415 3.186,4.415 		"></polygon>
		<polygon fill-rule="evenodd" clip-rule="evenodd" points="3.285,4.192 3.277,4.173 3.185,4.415 3.215,4.425 3.307,4.184 
			3.299,4.165 3.285,4.192 3.285,4.192 		"></polygon>
		<polygon fill-rule="evenodd" clip-rule="evenodd" points="3.255,4.155 3.232,4.165 3.285,4.192 3.299,4.165 3.249,4.136 
			3.225,4.145 3.255,4.155 3.255,4.155 		"></polygon>
		<polygon points="2.976,4.191 2.975,4.191 3.004,4.161 3.223,4.151 3.225,4.145 3.241,4.15 3.255,4.155 3.254,4.158 3.292,4.178 
			3.307,4.184 3.301,4.199 3.408,4.454 3.318,4.696 3.201,4.42 3.201,4.42 3.186,4.426 3.185,4.415 3.186,4.412 3.149,4.392 
			3.141,4.406 3.136,4.392 2.912,4.403 2.883,4.432 		"></polygon>
		<polygon fill-rule="evenodd" clip-rule="evenodd" points="3.304,4.69 3.333,4.69 3.216,4.414 3.186,4.426 3.303,4.702 
			3.333,4.701 3.302,4.69 3.302,4.69 3.304,4.69 		"></polygon>
		<polygon fill-rule="evenodd" clip-rule="evenodd" points="3.395,4.46 3.394,4.449 3.302,4.69 3.333,4.701 3.425,4.459 
			3.424,4.447 3.395,4.46 3.395,4.46 		"></polygon>
		<polygon fill-rule="evenodd" clip-rule="evenodd" points="3.307,4.184 3.278,4.185 3.395,4.46 3.424,4.447 3.306,4.172 
			3.277,4.173 3.307,4.184 3.307,4.184 		"></polygon>
		<polygon fill-rule="evenodd" clip-rule="evenodd" fill="#FFFFFF" points="3.3,4.246 3.313,4.274 3.317,4.304 3.316,4.332 
			3.308,4.362 3.293,4.391 3.273,4.417 3.247,4.44 3.216,4.46 3.199,4.468 3.183,4.476 3.164,4.479 3.146,4.483 3.129,4.485 
			3.111,4.487 3.094,4.485 3.076,4.484 3.061,4.48 3.045,4.475 3.029,4.468 3.016,4.46 3.004,4.452 2.991,4.442 2.98,4.431 
			2.972,4.418 2.958,4.389 2.954,4.36 2.954,4.331 2.963,4.302 2.976,4.274 2.996,4.246 3.022,4.223 3.055,4.203 3.07,4.195 
			3.089,4.188 3.106,4.185 3.124,4.181 3.142,4.178 3.159,4.176 3.176,4.178 3.194,4.18 3.21,4.185 3.226,4.191 3.241,4.195 
			3.255,4.203 3.268,4.21 3.28,4.221 3.289,4.234 3.3,4.246 3.3,4.246 3.3,4.246 		"></polygon>
		<polygon fill-rule="evenodd" clip-rule="evenodd" points="3.311,4.293 3.325,4.322 3.329,4.353 3.327,4.381 3.319,4.41 
			3.306,4.439 3.285,4.465 3.261,4.489 3.228,4.508 3.21,4.518 3.194,4.524 3.176,4.528 3.157,4.532 3.14,4.534 3.124,4.535 
			3.106,4.534 3.088,4.532 3.072,4.528 3.057,4.522 3.042,4.516 3.028,4.508 3.016,4.5 3.004,4.49 2.993,4.48 2.983,4.465 
			2.97,4.438 2.965,4.409 2.966,4.379 2.975,4.352 2.987,4.321 3.008,4.295 3.033,4.272 3.066,4.252 3.083,4.244 3.1,4.237 
			3.118,4.232 3.137,4.228 3.153,4.228 3.17,4.225 3.188,4.228 3.205,4.228 3.222,4.232 3.237,4.238 3.251,4.244 3.267,4.251 
			3.279,4.26 3.292,4.269 3.3,4.281 3.311,4.295 3.311,4.295 3.311,4.293 		"></polygon>
		<polygon fill-rule="evenodd" clip-rule="evenodd" fill="#FFFFFF" points="3.319,4.327 3.333,4.354 3.337,4.384 3.335,4.414 
			3.328,4.442 3.313,4.471 3.293,4.498 3.27,4.521 3.237,4.541 3.221,4.55 3.203,4.557 3.185,4.561 3.167,4.563 3.149,4.566 
			3.132,4.567 3.115,4.566 3.096,4.563 3.082,4.56 3.065,4.555 3.051,4.548 3.036,4.541 3.024,4.533 3.012,4.522 3.002,4.511 
			2.992,4.498 2.979,4.471 2.974,4.441 2.975,4.413 2.983,4.383 2.996,4.354 3.017,4.326 3.044,4.305 3.075,4.284 3.093,4.275 
			3.109,4.268 3.127,4.264 3.146,4.26 3.163,4.258 3.179,4.257 3.198,4.258 3.214,4.26 3.23,4.265 3.246,4.27 3.262,4.276 
			3.275,4.284 3.288,4.292 3.3,4.301 3.31,4.314 3.319,4.327 3.319,4.327 		"></polygon>
		<polygon fill-rule="evenodd" clip-rule="evenodd" points="3.331,4.375 3.344,4.403 3.349,4.432 3.349,4.461 3.339,4.491 
			3.327,4.519 3.305,4.545 3.281,4.57 3.248,4.589 3.232,4.598 3.214,4.604 3.197,4.608 3.179,4.612 3.16,4.614 3.144,4.616 
			3.127,4.614 3.109,4.613 3.093,4.609 3.077,4.604 3.062,4.598 3.047,4.589 3.036,4.58 3.024,4.572 3.013,4.56 3.003,4.547 
			2.992,4.519 2.985,4.489 2.987,4.46 2.995,4.431 3.009,4.403 3.029,4.375 3.055,4.352 3.086,4.332 3.103,4.324 3.12,4.317 
			3.139,4.313 3.157,4.31 3.174,4.308 3.191,4.307 3.209,4.308 3.225,4.309 3.242,4.312 3.257,4.317 3.273,4.324 3.287,4.332 
			3.3,4.341 3.312,4.35 3.322,4.362 3.331,4.376 3.331,4.376 3.331,4.375 		"></polygon>
		<polygon fill-rule="evenodd" clip-rule="evenodd" fill="#FFFFFF" points="3.348,4.406 3.362,4.433 3.366,4.462 3.366,4.493 
			3.358,4.521 3.344,4.551 3.322,4.577 3.298,4.6 3.267,4.62 3.25,4.629 3.231,4.636 3.213,4.64 3.196,4.644 3.177,4.646 
			3.161,4.647 3.144,4.646 3.127,4.643 3.11,4.64 3.094,4.634 3.08,4.627 3.066,4.621 3.053,4.612 3.041,4.602 3.031,4.59 
			3.022,4.577 3.008,4.55 3.002,4.519 3.004,4.49 3.013,4.463 3.026,4.433 3.047,4.406 3.072,4.383 3.103,4.363 3.121,4.354 
			3.138,4.347 3.156,4.345 3.174,4.34 3.191,4.337 3.209,4.337 3.227,4.338 3.242,4.34 3.258,4.344 3.276,4.35 3.291,4.356 
			3.305,4.362 3.317,4.372 3.329,4.382 3.339,4.393 3.348,4.406 3.348,4.406 		"></polygon>
		<polygon fill-rule="evenodd" clip-rule="evenodd" points="3.361,4.454 3.373,4.482 3.379,4.512 3.377,4.541 3.37,4.57 
			3.355,4.598 3.334,4.625 3.31,4.649 3.278,4.669 3.261,4.676 3.243,4.683 3.225,4.687 3.208,4.691 3.191,4.694 3.172,4.696 
			3.155,4.693 3.138,4.692 3.123,4.688 3.105,4.683 3.091,4.676 3.078,4.669 3.064,4.66 3.053,4.651 3.042,4.639 3.033,4.626 
			3.021,4.598 3.014,4.568 3.016,4.539 3.025,4.51 3.038,4.482 3.058,4.455 3.084,4.431 3.116,4.412 3.132,4.403 3.15,4.397 
			3.168,4.393 3.186,4.389 3.204,4.387 3.221,4.384 3.237,4.387 3.254,4.387 3.272,4.392 3.288,4.397 3.302,4.404 3.316,4.412 
			3.329,4.42 3.34,4.429 3.351,4.441 3.361,4.454 3.361,4.454 3.361,4.454 		"></polygon>
		<polygon fill-rule="evenodd" clip-rule="evenodd" points="1.755,4.083 1.756,4.074 1.664,4.317 1.693,4.327 1.785,4.084 
			1.786,4.078 1.755,4.083 1.755,4.083 1.755,4.083 		"></polygon>
		<polygon fill-rule="evenodd" clip-rule="evenodd" points="1.752,4.071 1.753,4.069 1.755,4.083 1.786,4.078 1.783,4.063 
			1.783,4.062 1.752,4.071 1.752,4.071 1.752,4.071 		"></polygon>
		<polygon fill-rule="evenodd" clip-rule="evenodd" points="1.749,4.057 1.752,4.071 1.783,4.062 1.78,4.048 1.749,4.057 
			1.749,4.057 1.749,4.057 		"></polygon>
		<polygon fill-rule="evenodd" clip-rule="evenodd" points="1.745,4.045 1.749,4.057 1.78,4.048 1.776,4.035 1.745,4.045 
			1.745,4.045 		"></polygon>
		<polygon fill-rule="evenodd" clip-rule="evenodd" points="1.742,4.03 1.742,4.03 1.745,4.045 1.776,4.035 1.772,4.021 
			1.772,4.022 1.742,4.03 1.742,4.03 1.742,4.03 		"></polygon>
		<polygon fill-rule="evenodd" clip-rule="evenodd" points="1.738,4.013 1.738,4.018 1.742,4.03 1.772,4.022 1.768,4.01 1.77,4.016 
			1.738,4.013 1.738,4.013 		"></polygon>
		<polygon fill-rule="evenodd" clip-rule="evenodd" points="1.769,4.007 1.738,4.002 1.738,4.013 1.77,4.016 1.77,4.004 
			1.739,3.999 1.769,4.009 1.769,4.009 1.769,4.007 		"></polygon>
		<polygon fill-rule="evenodd" clip-rule="evenodd" fill="#4D494A" points="1.795,4.714 1.792,4.698 1.76,4.704 1.762,4.721 
			1.795,4.714 1.795,4.714 1.795,4.714 		"></polygon>
		<polygon fill-rule="evenodd" clip-rule="evenodd" points="1.863,4.512 1.864,4.503 1.772,4.745 1.801,4.755 1.894,4.514 
			1.893,4.505 1.863,4.512 1.863,4.512 1.863,4.512 		"></polygon>
		<polygon fill-rule="evenodd" clip-rule="evenodd" points="1.861,4.494 1.863,4.512 1.893,4.505 1.89,4.488 1.859,4.494 
			1.859,4.494 1.861,4.494 		"></polygon>
		<polygon fill-rule="evenodd" clip-rule="evenodd" points="1.856,4.479 1.859,4.494 1.89,4.488 1.886,4.473 1.856,4.479 
			1.856,4.479 1.856,4.479 		"></polygon>
		<polygon fill-rule="evenodd" clip-rule="evenodd" points="1.853,4.46 1.854,4.463 1.856,4.479 1.886,4.473 1.884,4.455 
			1.885,4.457 1.853,4.46 1.853,4.46 1.853,4.46 		"></polygon>
		<polygon fill-rule="evenodd" clip-rule="evenodd" points="1.882,4.446 1.851,4.442 1.853,4.46 1.885,4.457 1.882,4.44 
			1.851,4.436 1.882,4.446 1.882,4.446 		"></polygon>
		<g>
			<polygon fill="#4D494A" points="1.664,4.269 1.649,4.273 1.664,4.269 			"></polygon>
			<polygon fill="#4D494A" points="1.679,4.319 1.68,4.318 1.688,4.318 1.693,4.327 1.679,4.322 			"></polygon>
			<polygon points="1.646,4.26 1.662,4.256 1.662,4.245 1.754,4.002 1.754,4.004 1.754,4.014 1.756,4.025 1.761,4.04 1.766,4.053 
				1.769,4.067 1.771,4.079 1.771,4.079 1.785,4.084 1.693,4.327 1.688,4.318 1.68,4.318 1.679,4.319 1.679,4.322 1.693,4.327 
				1.68,4.326 1.68,4.337 1.67,4.325 1.663,4.325 1.661,4.311 1.667,4.31 1.673,4.294 1.657,4.299 1.653,4.287 1.649,4.273 
				1.664,4.269 1.664,4.269 1.649,4.273 1.649,4.272 			"></polygon>
		</g>
		<g>
			<polygon fill="none" points="2.398,4.326 2.398,4.326 2.412,4.296 			"></polygon>
			<polygon points="1.679,4.306 2.355,4.284 2.373,4.284 2.376,4.286 2.393,4.29 2.394,4.29 2.412,4.296 2.428,4.303 2.43,4.304 
				2.446,4.314 2.449,4.314 2.461,4.326 2.465,4.328 2.475,4.34 2.476,4.341 2.482,4.352 2.482,4.355 2.453,4.364 2.448,4.356 
				2.447,4.358 2.439,4.348 2.439,4.348 2.429,4.339 2.432,4.341 2.416,4.333 2.416,4.333 2.398,4.326 2.398,4.326 2.383,4.321 
				2.367,4.317 2.37,4.318 2.354,4.316 2.354,4.314 1.68,4.337 			"></polygon>
			<polygon points="2.452,4.365 2.453,4.364 2.454,4.367 			"></polygon>
		</g>
		<polygon fill-rule="evenodd" clip-rule="evenodd" points="2.813,4.932 2.813,4.923 2.721,5.166 2.751,5.175 2.844,4.933 
			2.844,4.923 2.813,4.932 2.813,4.932 2.813,4.932 		"></polygon>
		<polygon fill-rule="evenodd" clip-rule="evenodd" points="2.546,4.125 2.544,4.122 2.813,4.932 2.844,4.923 2.574,4.112 
			2.574,4.109 2.546,4.125 2.546,4.125 2.546,4.125 		"></polygon>
		<polygon fill-rule="evenodd" clip-rule="evenodd" points="2.541,4.117 2.54,4.115 2.546,4.125 2.574,4.109 2.568,4.099 
			2.566,4.098 2.539,4.117 2.539,4.117 2.541,4.117 		"></polygon>
		<polygon fill-rule="evenodd" clip-rule="evenodd" points="2.534,4.107 2.532,4.104 2.539,4.117 2.566,4.098 2.556,4.085 
			2.554,4.083 2.534,4.107 2.534,4.107 2.534,4.107 		"></polygon>
		<polygon fill-rule="evenodd" clip-rule="evenodd" points="2.524,4.1 2.521,4.098 2.534,4.107 2.554,4.083 2.541,4.074 
			2.539,4.071 2.524,4.1 2.524,4.1 		"></polygon>
		<polygon fill-rule="evenodd" clip-rule="evenodd" points="2.509,4.09 2.507,4.09 2.524,4.1 2.539,4.071 2.521,4.062 2.52,4.062 
			2.509,4.09 2.509,4.09 		"></polygon>
		<polygon fill-rule="evenodd" clip-rule="evenodd" points="2.494,4.084 2.49,4.084 2.509,4.09 2.52,4.062 2.503,4.055 2.502,4.054 
			2.492,4.084 2.492,4.084 2.494,4.084 		"></polygon>
		<polygon fill-rule="evenodd" clip-rule="evenodd" points="2.476,4.078 2.474,4.078 2.492,4.084 2.502,4.054 2.484,4.048 
			2.484,4.048 2.476,4.079 2.476,4.079 2.476,4.078 		"></polygon>
		<polygon fill-rule="evenodd" clip-rule="evenodd" points="2.462,4.074 2.459,4.074 2.476,4.079 2.484,4.048 2.466,4.044 
			2.465,4.044 2.462,4.074 2.462,4.074 2.462,4.074 		"></polygon>
		<polygon fill-rule="evenodd" clip-rule="evenodd" points="2.447,4.073 2.447,4.074 2.462,4.074 2.465,4.044 2.448,4.041 
			2.446,4.042 2.447,4.073 2.447,4.073 		"></polygon>
		<polygon fill-rule="evenodd" clip-rule="evenodd" points="1.787,4.084 1.771,4.095 2.447,4.073 2.446,4.042 1.771,4.064 
			1.756,4.074 1.785,4.084 1.785,4.084 1.787,4.084 		"></polygon>
		<polygon fill="#4D494A" points="1.957,4.823 1.955,4.822 1.956,4.821 		"></polygon>
		<g>
			<polygon fill="#4D494A" points="2.322,4.932 2.319,4.965 2.322,4.932 			"></polygon>
			<g>
				<polygon fill="none" points="2.321,4.948 2.319,4.965 2.321,4.948 				"></polygon>
				<g>
					<polygon fill="none" points="1.772,4.685 1.773,4.683 1.774,4.686 					"></polygon>
					<path d="M1.762,4.721l0.003,0.016l0.005,0.017l0.007,0.012L1.82,4.787l0.042,0.022l0.04,0.021l0.041,0.021h0.001l0.041,0.018
						l0.041,0.019l0.044,0.019l0.044,0.017l0.001,0l0.048,0.012L2.21,4.948l0.001,0l0.052,0.008l0.055,0.008l0,0l0.059,0.003
						L2.38,4.967l0.062,0.002L2.51,4.967l0.071-0.004l0.014-0.01l0.092-0.241L2.672,4.69l0.001,0.031L2.668,4.715l0.003-0.009
						l-0.01,0L2.657,4.702L2.655,4.708L2.602,4.71H2.534L2.471,4.709L2.414,4.707L2.358,4.699L2.306,4.69L2.258,4.677L2.21,4.665
						L2.166,4.648L2.123,4.631L2.082,4.613l-0.04-0.02L2,4.573L1.96,4.552L1.92,4.53L1.893,4.516l0.001-0.002L1.879,4.508l0,0
						L1.875,4.491L1.872,4.476L1.871,4.47l0.011-0.024L1.866,4.441l-0.001,0l0,0L1.851,4.436L1.759,4.678L1.758,4.686L1.76,4.702
						L1.762,4.721z M1.773,4.683l0.001,0.003l-0.002,0L1.773,4.683z"></path>
				</g>
			</g>
		</g>
		<polygon fill-rule="evenodd" clip-rule="evenodd" points="2.602,4.725 2.673,4.722 2.672,4.69 2.601,4.694 2.602,4.725 
			2.602,4.725 2.602,4.725 		"></polygon>
		<polygon fill-rule="evenodd" clip-rule="evenodd" points="2.535,4.728 2.602,4.725 2.601,4.694 2.534,4.696 2.535,4.728 
			2.535,4.728 2.535,4.728 		"></polygon>
		<polygon fill-rule="evenodd" clip-rule="evenodd" points="2.471,4.725 2.472,4.726 2.535,4.728 2.534,4.696 2.471,4.695 
			2.473,4.694 2.47,4.727 2.47,4.727 2.471,4.725 		"></polygon>
		<polygon fill-rule="evenodd" clip-rule="evenodd" points="2.41,4.722 2.412,4.722 2.47,4.727 2.473,4.694 2.414,4.69 2.416,4.691 
			2.41,4.722 2.41,4.722 2.41,4.722 		"></polygon>
		<polygon fill-rule="evenodd" clip-rule="evenodd" points="2.356,4.715 2.41,4.722 2.416,4.691 2.362,4.683 2.356,4.715 
			2.356,4.715 		"></polygon>
		<polygon fill-rule="evenodd" clip-rule="evenodd" points="2.302,4.705 2.304,4.706 2.356,4.715 2.362,4.683 2.308,4.674 
			2.309,4.675 2.302,4.705 2.302,4.705 2.302,4.705 		"></polygon>
		<polygon fill-rule="evenodd" clip-rule="evenodd" points="2.255,4.692 2.302,4.705 2.309,4.675 2.261,4.662 2.254,4.694 
			2.254,4.694 2.255,4.692 		"></polygon>
		<polygon fill-rule="evenodd" clip-rule="evenodd" points="2.205,4.681 2.207,4.681 2.254,4.694 2.261,4.662 2.214,4.649 
			2.216,4.65 2.205,4.681 2.205,4.681 		"></polygon>
		<polygon fill-rule="evenodd" clip-rule="evenodd" points="2.161,4.664 2.161,4.664 2.205,4.681 2.216,4.65 2.171,4.633 
			2.172,4.634 2.159,4.664 2.159,4.664 2.161,4.664 		"></polygon>
		<polygon fill-rule="evenodd" clip-rule="evenodd" points="2.117,4.646 2.159,4.664 2.172,4.634 2.129,4.616 2.117,4.646 
			2.117,4.646 		"></polygon>
		<polygon fill-rule="evenodd" clip-rule="evenodd" points="2.075,4.627 2.117,4.646 2.129,4.616 2.088,4.599 2.075,4.627 
			2.075,4.627 		"></polygon>
		<polygon fill-rule="evenodd" clip-rule="evenodd" points="2.034,4.607 2.035,4.609 2.075,4.627 2.088,4.599 2.046,4.579 
			2.048,4.58 2.033,4.608 2.033,4.608 2.034,4.607 		"></polygon>
		<polygon fill-rule="evenodd" clip-rule="evenodd" points="1.993,4.587 2.033,4.608 2.048,4.58 2.008,4.56 1.993,4.589 
			1.993,4.589 1.993,4.587 		"></polygon>
		<polygon fill-rule="evenodd" clip-rule="evenodd" points="1.954,4.566 1.993,4.589 2.008,4.56 1.968,4.538 1.952,4.566 
			1.952,4.566 1.954,4.566 		"></polygon>
		<polygon fill-rule="evenodd" clip-rule="evenodd" points="1.912,4.544 1.952,4.566 1.968,4.538 1.928,4.517 1.912,4.544 
			1.912,4.544 		"></polygon>
		<polygon fill-rule="evenodd" clip-rule="evenodd" points="1.894,4.514 1.871,4.522 1.912,4.544 1.928,4.517 1.887,4.495 
			1.864,4.503 1.894,4.514 1.894,4.514 1.894,4.514 		"></polygon>
		<polygon fill-rule="evenodd" clip-rule="evenodd" points="6.105,4.076 6.013,4.318 6.315,4.419 6.385,4.258 6.386,4.242 
			6.387,4.226 6.385,4.209 6.379,4.193 6.369,4.178 6.361,4.163 6.349,4.147 6.335,4.133 6.322,4.121 6.307,4.107 6.292,4.096 
			6.276,4.088 6.262,4.078 6.245,4.07 6.23,4.062 6.215,4.057 6.202,4.053 6.186,4.051 6.172,4.05 6.159,4.052 6.146,4.054 
			6.13,4.058 6.118,4.067 6.105,4.076 6.105,4.076 6.105,4.076 		"></polygon>
		<polygon fill-rule="evenodd" clip-rule="evenodd" points="6.301,4.412 6.32,4.403 6.018,4.302 6.008,4.333 6.31,4.434 6.33,4.426 
			6.301,4.412 6.301,4.412 		"></polygon>
		<g>
			<polygon fill="none" points="6.359,4.481 6.361,4.498 6.359,4.481 			"></polygon>
			<polygon fill="none" points="6.515,4.319 6.526,4.33 6.514,4.321 			"></polygon>
			<g>
				<polygon fill="none" points="6.526,4.33 6.514,4.321 6.515,4.319 				"></polygon>
				<g>
					<polygon fill="none" points="6.526,4.33 6.514,4.321 6.515,4.319 					"></polygon>
					<polygon points="1.646,4.245 1.647,4.24 1.739,3.999 1.769,4.009 1.679,4.247 1.678,4.257 1.677,4.253 1.646,4.26 1.646,4.256 
											"></polygon>
					<g>
						<polygon fill="none" points="6.526,4.33 6.514,4.321 6.515,4.319 						"></polygon>
						<polygon fill="#4D494A" points="3.125,4.816 3.12,4.819 3.12,4.819 						"></polygon>
						<g>
							<polygon fill="none" points="3.131,4.83 3.143,4.841 3.131,4.83 							"></polygon>
							<polygon fill="none" points="6.526,4.33 6.514,4.321 6.515,4.319 							"></polygon>
							<polygon fill="none" points="2.735,5.17 2.736,5.17 2.736,5.171 2.721,5.166 2.734,5.166 							"></polygon>
							<path d="M1.657,4.299l0.003,0.014V4.311l0.024-0.005L1.679,4.322L2.355,4.3h0.016l0.018,0.006l0.018,0.005l0.017,0.006
								l0.016,0.01l0.013,0.009l0.009,0.011l0.005,0.011L2.452,4.365l0.269,0.811h0.016l0,0.01h0.024l0.022-0.001l0.021,0.001
								l0.019-0.003l0.02-0.005l0.019-0.009L2.88,5.152l0.021-0.021l0-0.002l0.012-0.016l0.014-0.019l0.016-0.019l0.011-0.019
								L2.97,5.034l0.015-0.019l0.012-0.021l0.016-0.022l0.013-0.019l0.018-0.02l0.015-0.02l0.017-0.017L3.089,4.88l0.016-0.014
								l0.016-0.013l0.018-0.01l0.004-0.002L3.131,4.83l0,0l0.012,0.011l0.018-0.02l0.016-0.015l0.015-0.015l0.016-0.013l0.015-0.01
								l0.016-0.01L3.253,4.75l0.015-0.007l0.018-0.004l0.017-0.007l0.018-0.004l0.02-0.002L3.363,4.72l0.025-0.001l0.027-0.002
								l0.026-0.001l0.001,0.001l2.919-0.219l0.018-0.001l0.015-0.003l0.014-0.004l0.015-0.004l0.014-0.007L6.45,4.469l0.012-0.011
								l0.014-0.012l0.003-0.003l0.05-0.119L6.503,4.307l0.012,0.011L6.513,4.32L6.5,4.311l-0.013,0.03L6.479,4.346L6.467,4.35
								L6.454,4.356L6.442,4.358L6.426,4.361L6.411,4.364L3.49,4.582L3.472,4.583L3.454,4.584H3.436L3.417,4.588H3.398L3.381,4.59
								L3.362,4.592L3.345,4.595L3.327,4.598L3.31,4.6L3.292,4.604l-0.02,0.005L3.254,4.613L3.236,4.62L3.218,4.627L3.201,4.635
								L3.167,4.656L3.131,4.688L3.094,4.727L3.059,4.77L3.024,4.815l-0.029,0.04L2.965,4.894L2.941,4.923L2.927,4.926L2.915,4.929
								L2.899,4.93H2.885H2.87l-0.012,0L2.842,4.928L2.828,4.927L2.56,4.118L2.554,4.107L2.544,4.096L2.531,4.086l-0.018-0.01
								L2.497,4.068L2.479,4.063L2.462,4.059l-0.016,0L1.771,4.079L1.69,4.293L1.689,4.29L1.657,4.299z M6.514,4.321l0.001-0.002
								l0.012,0.01L6.514,4.321z"></path>
						</g>
					</g>
				</g>
			</g>
		</g>
		<polygon fill-rule="evenodd" clip-rule="evenodd" points="6.412,4.381 6.429,4.377 6.445,4.374 6.459,4.37 6.474,4.365 
			6.487,4.358 6.501,4.35 6.512,4.341 6.526,4.33 6.503,4.307 6.493,4.318 6.482,4.326 6.471,4.333 6.46,4.336 6.45,4.34 
			6.437,4.344 6.424,4.346 6.409,4.347 6.412,4.381 6.412,4.381 		"></polygon>
		<polygon fill-rule="evenodd" clip-rule="evenodd" points="3.493,4.598 6.412,4.381 6.409,4.347 3.49,4.564 3.493,4.598 
			3.493,4.598 		"></polygon>
		<polygon fill-rule="evenodd" clip-rule="evenodd" points="3.207,4.649 3.224,4.642 3.241,4.636 3.261,4.63 3.277,4.624 
			3.295,4.619 3.312,4.616 3.33,4.613 3.348,4.61 3.364,4.607 3.381,4.607 3.4,4.605 3.419,4.603 3.438,4.601 3.454,4.6 
			3.473,4.599 3.493,4.598 3.49,4.564 3.471,4.567 3.453,4.569 3.434,4.569 3.415,4.571 3.396,4.571 3.379,4.575 3.361,4.576 
			3.342,4.577 3.324,4.582 3.306,4.585 3.288,4.588 3.268,4.593 3.251,4.599 3.231,4.605 3.211,4.611 3.194,4.62 3.207,4.649 
			3.207,4.649 3.207,4.649 		"></polygon>
		<polygon fill-rule="evenodd" clip-rule="evenodd" points="2.946,4.938 2.952,4.934 2.965,4.918 2.977,4.903 2.991,4.885 
			3.006,4.865 3.022,4.845 3.037,4.824 3.054,4.802 3.071,4.78 3.088,4.757 3.106,4.737 3.125,4.718 3.142,4.698 3.157,4.683 
			3.176,4.669 3.191,4.657 3.207,4.649 3.194,4.62 3.174,4.631 3.157,4.644 3.137,4.66 3.119,4.678 3.101,4.696 3.083,4.714 
			3.064,4.739 3.047,4.761 3.03,4.783 3.013,4.804 2.998,4.826 2.981,4.845 2.966,4.865 2.953,4.883 2.941,4.899 2.931,4.911 
			2.936,4.908 2.946,4.938 2.946,4.938 2.946,4.938 		"></polygon>
		<polygon fill="none" points="6.099,4.09 6.105,4.076 6.117,4.065 6.135,4.056 6.155,4.054 6.166,4.054 6.179,4.055 6.191,4.057 
			6.203,4.06 6.218,4.064 6.23,4.069 6.245,4.076 6.26,4.084 6.272,4.09 6.286,4.099 6.297,4.107 6.31,4.118 6.323,4.127 
			6.332,4.138 6.344,4.148 6.353,4.16 6.37,4.182 6.379,4.204 6.383,4.215 6.385,4.223 6.384,4.242 6.38,4.256 6.37,4.269 
			6.354,4.276 6.333,4.281 6.321,4.283 6.31,4.28 6.295,4.278 6.281,4.275 6.267,4.271 6.252,4.266 6.237,4.259 6.224,4.251 
			6.209,4.245 6.194,4.236 6.181,4.228 6.169,4.217 6.157,4.208 6.145,4.196 6.134,4.185 6.125,4.172 6.11,4.15 6.101,4.128 
			6.099,4.121 6.096,4.108 		"></polygon>
		<polygon fill-rule="evenodd" clip-rule="evenodd" fill="#FFFFFF" points="2.387,4.06 2.447,4.058 2.452,4.058 1.934,3.886 
			1.908,3.901 2.386,4.061 2.386,4.061 2.387,4.06 		"></polygon>
		<polygon fill-rule="evenodd" clip-rule="evenodd" fill="#FFFFFF" points="2.387,4.06 1.771,4.079 1.769,4.067 1.766,4.053 
			1.761,4.04 1.756,4.025 1.754,4.014 1.754,4.004 1.758,3.992 1.769,3.984 1.794,3.966 1.822,3.95 1.85,3.934 1.878,3.917 
			1.905,3.9 1.908,3.901 2.386,4.061 2.386,4.061 2.387,4.06 		"></polygon>
		<polygon fill="#FFFFFF" points="2.012,4.433 2.432,4.41 2.596,4.476 2.654,4.647 2.671,4.707 2.602,4.71 2.534,4.71 2.471,4.709 
			2.414,4.707 2.358,4.699 2.306,4.69 2.258,4.677 2.21,4.665 2.166,4.648 2.123,4.631 2.082,4.613 2.042,4.594 2,4.573 1.96,4.552 
			1.92,4.53 1.879,4.508 1.875,4.491 1.872,4.476 1.868,4.458 1.865,4.441 		"></polygon>
		<polygon fill-rule="evenodd" clip-rule="evenodd" fill="#FFFFFF" points="3.069,4.481 3.075,4.488 3.128,4.521 3.146,4.493 
			3.092,4.46 3.098,4.468 3.069,4.481 3.071,4.485 3.075,4.488 3.069,4.481 3.069,4.481 		"></polygon>
		<polygon fill-rule="evenodd" clip-rule="evenodd" fill="#FFFFFF" points="2.589,4.491 2.58,4.48 2.657,4.711 2.687,4.702 
			2.61,4.471 2.602,4.462 2.61,4.471 2.608,4.463 2.602,4.462 2.589,4.491 2.589,4.491 2.589,4.491 		"></polygon>
		<polygon fill-rule="evenodd" clip-rule="evenodd" fill="#FFFFFF" points="2.433,4.425 2.425,4.424 2.589,4.491 2.602,4.462 
			2.438,4.394 2.433,4.393 2.438,4.394 2.436,4.393 2.433,4.393 2.433,4.425 2.433,4.425 2.433,4.425 		"></polygon>
		<polygon fill-rule="evenodd" clip-rule="evenodd" fill="#FFFFFF" points="1.882,4.44 1.867,4.458 2.433,4.425 2.433,4.393 
			1.865,4.426 1.851,4.442 1.865,4.426 1.848,4.427 1.851,4.442 1.882,4.44 1.882,4.44 		"></polygon>
		<polygon fill-rule="evenodd" clip-rule="evenodd" fill="#FFFFFF" points="1.887,4.495 1.893,4.505 1.893,4.497 1.89,4.488 
			1.89,4.48 1.888,4.473 1.887,4.464 1.885,4.456 1.883,4.448 1.882,4.44 1.851,4.442 1.851,4.452 1.852,4.462 1.854,4.469 
			1.855,4.478 1.857,4.485 1.859,4.494 1.863,4.503 1.863,4.512 1.871,4.522 1.863,4.512 1.865,4.519 1.871,4.522 1.887,4.495 
			1.887,4.495 		"></polygon>
		<polygon fill-rule="evenodd" clip-rule="evenodd" fill="#FFFFFF" points="2.657,4.71 2.67,4.69 2.601,4.694 2.534,4.696 
			2.473,4.694 2.414,4.69 2.362,4.683 2.309,4.675 2.261,4.662 2.216,4.65 2.171,4.633 2.129,4.616 2.088,4.599 2.048,4.58 
			2.008,4.56 1.968,4.538 1.928,4.517 1.887,4.495 1.871,4.522 1.912,4.544 1.952,4.566 1.993,4.589 2.033,4.608 2.075,4.627 
			2.117,4.646 2.161,4.664 2.205,4.681 2.254,4.694 2.302,4.705 2.356,4.715 2.412,4.722 2.47,4.727 2.535,4.728 2.602,4.725 
			2.674,4.722 2.687,4.702 2.674,4.722 2.694,4.721 2.687,4.702 2.657,4.711 2.657,4.711 2.657,4.71 		"></polygon>
		<g>
			<polygon fill="none" points="2.951,4.916 2.962,4.927 2.951,4.916 			"></polygon>
			<polygon fill="none" points="2.843,4.911 2.84,4.911 2.84,4.911 			"></polygon>
			<polygon fill="none" points="2.579,4.125 3.004,4.267 2.579,4.125 			"></polygon>
		</g>
		<polygon fill-rule="evenodd" clip-rule="evenodd" fill="#FFFFFF" points="3.49,4.564 3.468,4.566 3.444,4.57 3.423,4.57 
			3.4,4.572 3.377,4.576 3.354,4.58 3.33,4.583 3.307,4.588 3.284,4.594 3.264,4.6 3.242,4.607 3.222,4.615 3.204,4.624 
			3.184,4.633 3.167,4.646 3.151,4.658 3.17,4.683 3.186,4.67 3.2,4.661 3.216,4.652 3.234,4.646 3.252,4.635 3.272,4.63 
			3.294,4.625 3.314,4.619 3.336,4.616 3.356,4.611 3.379,4.609 3.402,4.606 3.425,4.602 3.449,4.6 3.47,4.598 3.493,4.598 
			3.49,4.564 3.49,4.564 3.49,4.564 		"></polygon>
		<polygon fill-rule="evenodd" clip-rule="evenodd" fill="#FFFFFF" points="6.409,4.347 3.49,4.564 3.493,4.598 6.412,4.381 
			6.409,4.347 6.409,4.347 		"></polygon>
		<polygon fill-rule="evenodd" clip-rule="evenodd" fill="#FFFFFF" points="6.463,4.169 6.475,4.186 6.488,4.202 6.494,4.219 
			6.503,4.234 6.508,4.249 6.509,4.264 6.509,4.276 6.509,4.29 6.505,4.3 6.5,4.31 6.494,4.319 6.483,4.328 6.471,4.334 
			6.453,4.341 6.433,4.346 6.409,4.347 6.412,4.381 6.438,4.378 6.462,4.371 6.482,4.363 6.5,4.354 6.517,4.342 6.528,4.327 
			6.534,4.313 6.541,4.295 6.541,4.277 6.541,4.26 6.537,4.242 6.531,4.223 6.523,4.206 6.514,4.186 6.501,4.166 6.489,4.15 
			6.463,4.169 6.463,4.169 		"></polygon>
		<polygon fill-rule="evenodd" clip-rule="evenodd" fill="#FFFFFF" points="6.115,4.003 6.141,4.002 6.168,4.004 6.195,4.01 
			6.221,4.014 6.247,4.022 6.271,4.031 6.294,4.042 6.317,4.053 6.341,4.065 6.362,4.078 6.385,4.093 6.401,4.106 6.418,4.122 
			6.436,4.139 6.45,4.155 6.463,4.169 6.489,4.15 6.474,4.132 6.457,4.115 6.44,4.098 6.421,4.082 6.399,4.067 6.379,4.052 
			6.357,4.039 6.333,4.024 6.308,4.012 6.282,4.002 6.256,3.993 6.228,3.984 6.201,3.978 6.173,3.974 6.142,3.971 6.114,3.971 
			6.115,4.003 6.115,4.003 		"></polygon>
		<polygon fill-rule="evenodd" clip-rule="evenodd" fill="#FFFFFF" points="3.533,4.092 6.115,4.003 6.114,3.971 3.533,4.061 
			3.533,4.092 3.533,4.092 		"></polygon>
		<polygon fill-rule="evenodd" clip-rule="evenodd" fill="#FFFFFF" points="3.125,4.027 3.149,4.037 3.175,4.042 3.2,4.05 
			3.225,4.056 3.252,4.062 3.278,4.068 3.306,4.073 3.33,4.076 3.356,4.082 3.383,4.084 3.409,4.088 3.435,4.088 3.459,4.092 
			3.486,4.091 3.51,4.093 3.533,4.092 3.533,4.061 3.508,4.061 3.485,4.06 3.463,4.059 3.438,4.057 3.412,4.055 3.387,4.053 
			3.362,4.05 3.335,4.046 3.31,4.04 3.285,4.037 3.26,4.03 3.234,4.026 3.208,4.02 3.182,4.012 3.159,4.007 3.134,3.998 
			3.125,4.029 3.125,4.029 3.125,4.027 		"></polygon>
		<polygon fill-rule="evenodd" clip-rule="evenodd" fill="#FFFFFF" points="2.254,3.789 2.298,3.782 2.339,3.778 2.379,3.775 
			2.416,3.772 2.45,3.771 2.481,3.775 2.514,3.776 2.541,3.778 2.568,3.783 2.594,3.789 2.618,3.793 2.64,3.801 2.663,3.808 
			2.682,3.816 2.704,3.825 2.723,3.834 2.743,3.845 2.764,3.855 2.785,3.867 2.805,3.878 2.826,3.89 2.847,3.904 2.868,3.914 
			2.891,3.928 2.916,3.939 2.94,3.955 2.968,3.965 2.994,3.978 3.023,3.991 3.055,4.002 3.089,4.017 3.125,4.029 3.134,3.998 
			3.1,3.986 3.065,3.973 3.036,3.962 3.006,3.95 2.979,3.937 2.955,3.925 2.931,3.911 2.907,3.899 2.883,3.887 2.861,3.875 
			2.841,3.863 2.819,3.849 2.799,3.837 2.778,3.827 2.758,3.817 2.738,3.806 2.718,3.796 2.694,3.786 2.673,3.778 2.65,3.77 
			2.625,3.762 2.6,3.757 2.573,3.752 2.544,3.746 2.515,3.743 2.484,3.742 2.449,3.742 2.415,3.741 2.375,3.743 2.335,3.746 
			2.293,3.751 2.25,3.756 2.252,3.788 2.252,3.788 2.254,3.789 		"></polygon>
		<polygon fill-rule="evenodd" clip-rule="evenodd" fill="#FFFFFF" points="1.777,3.999 1.802,3.981 1.83,3.965 1.858,3.948 
			1.888,3.93 1.914,3.915 1.943,3.898 1.971,3.883 1.999,3.87 2.03,3.856 2.061,3.842 2.091,3.83 2.122,3.819 2.155,3.811 
			2.186,3.801 2.22,3.793 2.252,3.788 2.25,3.756 2.213,3.763 2.179,3.77 2.145,3.779 2.112,3.788 2.081,3.801 2.047,3.813 
			2.018,3.826 1.987,3.84 1.956,3.856 1.926,3.872 1.898,3.887 1.87,3.903 1.842,3.92 1.813,3.937 1.787,3.953 1.76,3.97 
			1.775,3.998 1.775,3.998 1.777,3.999 		"></polygon>
		<polygon fill-rule="evenodd" clip-rule="evenodd" fill="#FFFFFF" points="1.771,4.064 1.787,4.078 1.783,4.063 1.78,4.048 
			1.776,4.035 1.772,4.021 1.771,4.012 1.769,4.007 1.771,4 1.775,3.998 1.76,3.97 1.747,3.983 1.739,4 1.737,4.016 1.742,4.03 
			1.745,4.045 1.749,4.057 1.753,4.069 1.755,4.082 1.771,4.095 1.755,4.082 1.756,4.095 1.771,4.095 1.771,4.064 1.771,4.064 		"></polygon>
		<g>
			<polygon fill="none" points="2.963,4.181 2.964,4.181 2.959,4.197 			"></polygon>
			<polygon fill="#FFFFFF" points="2.964,4.179 2.964,4.181 2.963,4.181 			"></polygon>
			<polygon fill="#FFFFFF" points="2.957,4.186 2.963,4.181 2.959,4.197 			"></polygon>
			<g>
				<polygon fill="none" points="6.105,4.076 6.117,4.065 6.135,4.056 6.155,4.054 6.166,4.054 6.179,4.055 6.191,4.057 6.203,4.06 
					6.218,4.064 6.23,4.069 6.245,4.076 6.26,4.084 6.272,4.09 6.286,4.099 6.297,4.107 6.31,4.118 6.323,4.127 6.332,4.138 
					6.344,4.148 6.353,4.16 6.37,4.182 6.379,4.204 6.383,4.215 6.385,4.223 6.384,4.242 6.38,4.256 6.37,4.269 6.354,4.276 
					6.333,4.281 6.321,4.283 6.31,4.28 6.295,4.278 6.281,4.275 6.267,4.271 6.252,4.266 6.237,4.259 6.224,4.251 6.209,4.245 
					6.194,4.236 6.181,4.228 6.169,4.217 6.157,4.208 6.145,4.196 6.134,4.185 6.125,4.172 6.11,4.15 6.101,4.128 6.099,4.121 
					6.096,4.108 6.099,4.09 				"></polygon>
				<polygon fill="none" points="3.292,4.178 3.292,4.178 3.278,4.185 				"></polygon>
				<polygon fill="none" points="3.397,4.443 3.408,4.452 3.408,4.454 3.381,4.488 3.137,4.506 3.084,4.475 3.083,4.475 
					3.098,4.468 2.994,4.195 3.011,4.178 3.232,4.165 3.28,4.189 3.395,4.46 				"></polygon>
				<polygon fill="none" points="2.565,4.096 2.565,4.096 2.973,4.232 				"></polygon>
				<g>
					<polygon fill="none" points="6.105,4.076 6.117,4.065 6.135,4.056 6.155,4.054 6.166,4.054 6.179,4.055 6.191,4.057 
						6.203,4.06 6.218,4.064 6.23,4.069 6.245,4.076 6.26,4.084 6.272,4.09 6.286,4.099 6.297,4.107 6.31,4.118 6.323,4.127 
						6.332,4.138 6.344,4.148 6.353,4.16 6.37,4.182 6.379,4.204 6.383,4.215 6.385,4.223 6.384,4.242 6.38,4.256 6.37,4.269 
						6.354,4.276 6.333,4.281 6.321,4.283 6.31,4.28 6.295,4.278 6.281,4.275 6.267,4.271 6.252,4.266 6.237,4.259 6.224,4.251 
						6.209,4.245 6.194,4.236 6.181,4.228 6.169,4.217 6.157,4.208 6.145,4.196 6.134,4.185 6.125,4.172 6.11,4.15 6.101,4.128 
						6.099,4.121 6.096,4.108 6.099,4.09 					"></polygon>
					<polygon fill="none" points="3.232,4.165 3.28,4.189 3.395,4.46 3.397,4.443 3.408,4.452 3.408,4.454 3.381,4.488 3.137,4.506 
						3.084,4.475 3.083,4.475 3.098,4.468 2.994,4.195 3.011,4.178 					"></polygon>
					<polygon fill="none" points="2.565,4.096 2.565,4.096 2.973,4.232 					"></polygon>
					<g>
						<polygon fill="none" points="6.105,4.076 6.117,4.065 6.135,4.056 6.155,4.054 6.166,4.054 6.179,4.055 6.191,4.057 
							6.203,4.06 6.218,4.064 6.23,4.069 6.245,4.076 6.26,4.084 6.272,4.09 6.286,4.099 6.297,4.107 6.31,4.118 6.323,4.127 
							6.332,4.138 6.344,4.148 6.353,4.16 6.37,4.182 6.379,4.204 6.383,4.215 6.385,4.223 6.384,4.242 6.38,4.256 6.37,4.269 
							6.354,4.276 6.333,4.281 6.321,4.283 6.31,4.28 6.295,4.278 6.281,4.275 6.267,4.271 6.252,4.266 6.237,4.259 6.224,4.251 
							6.209,4.245 6.194,4.236 6.181,4.228 6.169,4.217 6.157,4.208 6.145,4.196 6.134,4.185 6.125,4.172 6.11,4.15 6.101,4.128 
							6.099,4.121 6.096,4.108 6.099,4.09 						"></polygon>
						<polygon fill="none" points="3.232,4.165 3.28,4.189 3.395,4.46 3.397,4.443 3.408,4.452 3.408,4.454 3.381,4.487 
							3.379,4.473 3.136,4.491 3.146,4.493 3.138,4.505 3.137,4.506 3.084,4.475 3.083,4.475 3.098,4.468 2.994,4.195 3.011,4.178 
													"></polygon>
						<polygon fill="none" points="2.565,4.096 2.565,4.096 2.973,4.232 						"></polygon>
						<g>
							<polygon fill="none" points="3.403,4.4 3.865,4.555 3.403,4.4 							"></polygon>
							<polygon fill="none" points="3.392,4.372 3.924,4.55 3.392,4.372 							"></polygon>
							<polygon fill="none" points="6.105,4.076 6.117,4.065 6.135,4.056 6.155,4.054 6.166,4.054 6.179,4.055 6.191,4.057 
								6.203,4.06 6.218,4.064 6.23,4.069 6.245,4.076 6.26,4.084 6.272,4.09 6.286,4.099 6.297,4.107 6.31,4.118 6.323,4.127 
								6.332,4.138 6.344,4.148 6.353,4.16 6.37,4.182 6.379,4.204 6.383,4.215 6.385,4.223 6.384,4.242 6.38,4.256 6.37,4.269 
								6.354,4.276 6.333,4.281 6.321,4.283 6.31,4.28 6.295,4.278 6.281,4.275 6.267,4.271 6.252,4.266 6.237,4.259 6.224,4.251 
								6.209,4.245 6.194,4.236 6.181,4.228 6.169,4.217 6.157,4.208 6.145,4.196 6.134,4.185 6.125,4.172 6.11,4.15 6.101,4.128 
								6.099,4.121 6.096,4.108 6.099,4.09 							"></polygon>
							<polygon fill="none" points="3.232,4.165 3.28,4.189 3.395,4.46 3.397,4.443 3.408,4.452 3.408,4.454 3.381,4.487 
								3.381,4.488 3.138,4.505 3.137,4.506 3.084,4.475 3.083,4.475 3.098,4.468 2.994,4.195 3.011,4.178 							"></polygon>
							<polygon fill="none" points="2.565,4.096 2.565,4.096 2.973,4.232 							"></polygon>
							<polygon fill="#FFFFFF" points="3.392,4.372 3.924,4.55 3.866,4.553 3.865,4.555 3.403,4.4 							"></polygon>
							<g>
								<polygon fill="none" points="6.105,4.076 6.117,4.065 6.135,4.056 6.155,4.054 6.166,4.054 6.179,4.055 6.191,4.057 
									6.203,4.06 6.218,4.064 6.23,4.069 6.245,4.076 6.26,4.084 6.272,4.09 6.286,4.099 6.297,4.107 6.31,4.118 6.323,4.127 
									6.332,4.138 6.344,4.148 6.353,4.16 6.37,4.182 6.379,4.204 6.383,4.215 6.385,4.223 6.384,4.242 6.38,4.256 6.37,4.269 
									6.354,4.276 6.333,4.281 6.321,4.283 6.31,4.28 6.295,4.278 6.281,4.275 6.267,4.271 6.252,4.266 6.237,4.259 6.224,4.251 
									6.209,4.245 6.194,4.236 6.181,4.228 6.169,4.217 6.157,4.208 6.145,4.196 6.134,4.185 6.125,4.172 6.11,4.15 6.101,4.128 
									6.099,4.121 6.096,4.108 6.099,4.09 								"></polygon>
								<polygon fill="none" points="3.232,4.165 3.28,4.189 3.391,4.452 3.374,4.474 3.136,4.491 3.146,4.493 3.138,4.505 
									3.137,4.506 3.084,4.475 3.083,4.475 3.098,4.468 2.994,4.195 3.011,4.178 								"></polygon>
								<polygon fill="none" points="3.397,4.443 3.408,4.452 3.408,4.452 								"></polygon>
								<polygon fill="none" points="2.565,4.096 2.565,4.096 2.973,4.232 								"></polygon>
								<path fill="#FFFFFF" d="M1.771,4.095l0.676-0.022l0.014,0.001l0.013,0.004l0.018,0.006L2.507,4.09l0.015,0.009l0.011,0.007
									l0.006,0.011l0.005,0.004l0.269,0.81l0.004,0.013h0.014l0.013-0.002l0.015,0.002l0.02,0.001h0.018h0.018L2.93,4.942
									l0.018-0.005l0.015-0.01L2.98,4.908l0.015-0.02l0.013-0.016l0.014-0.017L3.033,4.84l0.011-0.015l0.01-0.014l0.012-0.015
									l0.01-0.015l0.011-0.014l0.011-0.015L3.11,4.741l0.013-0.014l0.015-0.015l0.015-0.015L3.17,4.683L3.16,4.67l0.015-0.012
									l0.017-0.011L3.21,4.639L3.228,4.63l0.02-0.008l0.021-0.006l0.022-0.008l0.021-0.006L3.332,4.6l0.022-0.004l0.024-0.003
									L3.4,4.589l0.023-0.002l0.023-0.001l0.022-0.003H3.49l0.375-0.027L3.403,4.4L3.392,4.372l0,0L3.924,4.55l2.487-0.186
									l0.046-0.008l0.035-0.016l0.024-0.023l0.009-0.026V4.263V4.261L6.517,4.228L6.5,4.194L6.476,4.159L6.462,4.143L6.446,4.126
									L6.43,4.109L6.412,4.095L6.393,4.079L6.372,4.065L6.348,4.052L6.325,4.038l-0.024-0.01L6.277,4.017L6.251,4.008L6.224,3.999
									L6.197,3.995L6.17,3.989L6.142,3.986L6.114,3.987L5.739,4L3.533,4.076H3.508l-0.022,0l-0.026,0L3.436,4.072L3.41,4.07
									L3.385,4.068L3.36,4.065L3.333,4.061L3.307,4.057L3.282,4.052L3.256,4.046L3.23,4.042L3.204,4.034L3.178,4.027L3.154,4.021
									L3.129,4.013L3.095,4L3.06,3.988L3.03,3.976L3,3.965L2.974,3.951L2.948,3.939L2.922,3.926L2.898,3.914L2.876,3.9
									L2.855,3.889L2.833,3.876l-0.02-0.012L2.791,3.853L2.771,3.841L2.751,3.832L2.731,3.819L2.71,3.81L2.688,3.801l-0.02-0.007
									L2.644,3.786L2.62,3.778L2.596,3.771L2.57,3.768L2.542,3.763L2.514,3.76L2.482,3.758L2.449,3.756L2.415,3.758L2.378,3.759
									L2.338,3.763L2.296,3.767L2.25,3.772L2.216,3.777L2.183,3.786L2.149,3.794L2.118,3.805L2.085,3.817L2.054,3.829l-0.03,0.013
									L1.993,3.855L1.964,3.87l-0.03,0.016l0.472,0.158L1.771,4.064L1.771,4.095z M6.096,4.108L6.099,4.09l0.006-0.014
									l0.011-0.011l0.018-0.009l0.021-0.002l0.011,0l0.013,0l0.012,0.002L6.203,4.06l0.015,0.004L6.23,4.069l0.015,0.006
									L6.26,4.084L6.272,4.09l0.013,0.009l0.012,0.009L6.31,4.118l0.013,0.009l0.009,0.011l0.012,0.01L6.353,4.16L6.37,4.182
									l0.009,0.022l0.004,0.011l0.002,0.007L6.384,4.242L6.38,4.256L6.37,4.269L6.354,4.276L6.333,4.281L6.321,4.283L6.31,4.28
									L6.295,4.278L6.281,4.275L6.267,4.271L6.252,4.266L6.237,4.259L6.224,4.251L6.209,4.245L6.194,4.236L6.181,4.228
									L6.169,4.217L6.157,4.208L6.145,4.196L6.134,4.185L6.125,4.172L6.11,4.15L6.101,4.128L6.099,4.121L6.096,4.108z
									 M3.408,4.452L3.408,4.452L3.397,4.443L3.408,4.452z M2.994,4.195l0.017-0.018l0.222-0.013L3.28,4.189l0.111,0.262
									L3.374,4.474L3.136,4.491l0.01,0.002L3.138,4.505l-0.001,0L3.084,4.475l0,0l0.014-0.006L2.994,4.195z"></path>
							</g>
						</g>
					</g>
				</g>
			</g>
		</g>
		<polygon fill-rule="evenodd" clip-rule="evenodd" points="5.946,4.276 5.933,4.269 5.93,4.257 5.95,4.252 5.953,4.265 
			5.941,4.256 5.946,4.276 5.946,4.276 		"></polygon>
		<polygon fill-rule="evenodd" clip-rule="evenodd" points="5.973,4.261 5.969,4.265 5.964,4.27 5.958,4.273 5.953,4.276 
			5.946,4.276 5.941,4.256 5.945,4.257 5.949,4.254 5.954,4.252 5.955,4.251 5.954,4.254 5.972,4.263 5.972,4.263 5.973,4.261 		"></polygon>
		<polygon fill-rule="evenodd" clip-rule="evenodd" points="5.917,4.139 5.919,4.139 5.929,4.151 5.94,4.163 5.952,4.177 
			5.963,4.191 5.972,4.208 5.977,4.226 5.977,4.245 5.972,4.263 5.954,4.254 5.958,4.242 5.957,4.23 5.953,4.216 5.945,4.204 
			5.935,4.189 5.924,4.177 5.912,4.165 5.903,4.154 5.904,4.154 5.917,4.139 5.917,4.139 		"></polygon>
		<polygon fill-rule="evenodd" clip-rule="evenodd" points="5.739,4.088 5.737,4.087 5.763,4.088 5.787,4.088 5.81,4.092 
			5.832,4.094 5.854,4.1 5.875,4.111 5.897,4.123 5.917,4.139 5.904,4.154 5.884,4.141 5.865,4.13 5.848,4.121 5.828,4.116 
			5.806,4.112 5.785,4.109 5.762,4.108 5.74,4.109 5.74,4.107 5.736,4.089 5.736,4.089 5.739,4.088 		"></polygon>
		<polygon fill-rule="evenodd" clip-rule="evenodd" points="3.842,4.187 3.851,4.182 5.736,4.089 5.74,4.107 3.854,4.202 
			3.862,4.197 3.842,4.187 3.842,4.187 		"></polygon>
		<polygon fill-rule="evenodd" clip-rule="evenodd" points="3.798,4.253 3.777,4.246 3.779,4.232 3.783,4.221 3.789,4.208 
			3.796,4.199 3.806,4.193 3.82,4.188 3.834,4.183 3.851,4.182 3.854,4.202 3.838,4.206 3.824,4.208 3.817,4.209 3.81,4.215 
			3.807,4.221 3.801,4.227 3.798,4.236 3.799,4.249 3.779,4.242 3.798,4.253 3.798,4.253 		"></polygon>
		<g>
			<polygon fill="none" points="3.851,4.182 3.854,4.202 3.851,4.182 			"></polygon>
			<g>
				<polygon fill="none" points="3.799,4.249 3.801,4.236 3.808,4.224 3.812,4.214 3.823,4.208 3.834,4.206 3.852,4.203 
					3.854,4.202 5.74,4.107 5.772,4.11 5.797,4.109 5.822,4.112 5.845,4.117 5.866,4.127 5.885,4.138 5.903,4.154 5.922,4.177 
					5.94,4.197 5.953,4.218 5.959,4.232 5.959,4.242 5.955,4.251 5.942,4.258 5.919,4.263 5.888,4.267 3.949,4.367 3.948,4.366 
					3.921,4.365 3.894,4.358 3.87,4.347 3.85,4.335 3.833,4.318 3.821,4.301 3.81,4.285 3.801,4.271 3.8,4.26 				"></polygon>
				<g>
					<path fill="none" d="M3.801,4.236L3.799,4.249L3.8,4.26l0.001,0.01L3.81,4.285l0.011,0.016l0.012,0.017L3.85,4.335L3.87,4.347
						l0.024,0.012l0.027,0.007l0.027,0.001l0.001,0l1.938-0.1l0.032-0.003l0.023-0.005l0.013-0.007l0.004-0.009v-0.01L5.953,4.218
						L5.94,4.197L5.922,4.177l-0.02-0.023L5.885,4.138L5.866,4.127l-0.021-0.01L5.822,4.112L5.797,4.109l-0.025,0L5.74,4.107
						L3.854,4.202L3.852,4.203L3.834,4.206L3.823,4.208L3.812,4.214L3.808,4.224L3.801,4.236z M3.828,4.225L5.715,4.13l0-0.003
						l0.026,0.002h0.024l0.023,0.004L5.81,4.136l0.023,0.006l0.02,0.01l0.021,0.012l0.022,0.018l0.008,0.008l0.007,0.007
						l0.007,0.009l0.006,0.006l0.009,0.01l0.006,0.01L5.943,4.24l0.006,0.009l0,0.003L5.93,4.257l0,0.003L5.925,4.251L5.92,4.242
						L5.913,4.235L5.908,4.227L5.902,4.22L5.895,4.211L5.888,4.204L5.878,4.197l0.001-0.001L5.862,4.183L5.844,4.17L5.826,4.162
						l-0.02-0.004L5.785,4.153L5.763,4.151L5.739,4.149L5.716,4.15L3.83,4.244L3.828,4.225z"></path>
					<g>
						<path fill="none" d="M3.801,4.236L3.799,4.249L3.8,4.26l0.001,0.01L3.81,4.285l0.011,0.016l0.012,0.017L3.85,4.335L3.87,4.347
							l0.024,0.012l0.027,0.007l0.027,0.001l0.001,0l1.938-0.1l0.032-0.003l0.023-0.005l0.013-0.007l0.004-0.009v-0.01L5.953,4.218
							L5.94,4.197L5.922,4.177l-0.02-0.023L5.885,4.138L5.866,4.127l-0.021-0.01L5.822,4.112L5.797,4.109l-0.025,0L5.74,4.107
							L3.854,4.202L3.852,4.203L3.834,4.206L3.823,4.208L3.812,4.214L3.808,4.224L3.801,4.236z"></path>
						<g>
							<polygon fill="none" points="3.808,4.224 3.812,4.214 3.823,4.208 3.834,4.206 3.846,4.204 3.83,4.233 5.717,4.139 
								5.741,4.139 5.763,4.139 5.787,4.144 5.808,4.146 5.829,4.152 5.849,4.16 5.869,4.173 5.888,4.188 5.895,4.197 5.902,4.204 
								5.909,4.212 5.917,4.22 5.921,4.228 5.929,4.237 5.934,4.245 5.94,4.255 5.941,4.258 5.919,4.263 5.888,4.267 3.949,4.367 
								3.948,4.366 3.921,4.365 3.894,4.358 3.87,4.347 3.85,4.335 3.833,4.318 3.821,4.301 3.81,4.285 3.801,4.271 3.8,4.26 
								3.799,4.249 3.801,4.236 							"></polygon>
							<polygon points="5.934,4.245 5.929,4.237 5.921,4.228 5.917,4.22 5.909,4.212 5.902,4.204 5.895,4.197 5.888,4.188 
								5.869,4.173 5.849,4.16 5.829,4.152 5.808,4.146 5.787,4.144 5.763,4.139 5.741,4.139 5.717,4.139 3.83,4.233 3.846,4.204 
								3.852,4.203 3.854,4.202 5.74,4.107 5.772,4.11 5.797,4.109 5.822,4.112 5.845,4.117 5.866,4.127 5.885,4.138 5.903,4.154 
								5.922,4.177 5.94,4.197 5.953,4.218 5.959,4.232 5.959,4.242 5.955,4.251 5.942,4.258 5.941,4.258 5.94,4.255 							"></polygon>
							<g>
								<polygon fill="none" points="3.803,4.235 3.804,4.234 3.813,4.234 3.83,4.233 3.846,4.204 3.852,4.203 3.854,4.202 
									5.74,4.107 5.772,4.11 5.797,4.109 5.822,4.112 5.845,4.117 5.866,4.127 5.885,4.138 5.903,4.154 5.922,4.177 5.94,4.197 
									5.953,4.218 5.959,4.232 5.959,4.242 5.955,4.251 5.942,4.258 5.941,4.258 5.919,4.263 5.888,4.267 3.949,4.367 
									3.948,4.366 3.921,4.365 3.894,4.358 3.87,4.347 3.85,4.335 3.833,4.318 3.821,4.301 3.81,4.285 3.801,4.271 3.8,4.26 
									3.799,4.249 3.801,4.236 								"></polygon>
								<path d="M3.777,4.246l0.002,0.019l0.004,0.012l0.005,0.018l0.013,0.021l0.016,0.016L3.836,4.35L3.86,4.366l0.026,0.012
									l0.029,0.007l0.034,0l1.938-0.099l0.037-0.003L5.95,4.278l0.019-0.013l0.01-0.018V4.229L5.972,4.208L5.958,4.187
									L5.939,4.163l-0.02-0.023L5.897,4.121L5.875,4.107L5.853,4.096L5.828,4.092L5.799,4.087H5.77L5.736,4.089L3.851,4.182l0,0
									l-0.02,0.001L3.81,4.191L3.796,4.203L3.787,4.216L3.781,4.23L3.777,4.246z M3.799,4.249l0.002-0.012l0.001-0.001
									l0.001-0.001h0.01l0.017,0l0.016-0.029l0.005-0.001l0.002-0.001L5.74,4.107L5.772,4.11l0.025,0l0.025,0.003l0.023,0.005
									l0.021,0.01l0.019,0.011l0.018,0.016l0.02,0.023L5.94,4.197l0.013,0.021l0.006,0.015v0.01L5.955,4.251L5.942,4.258H5.941
									L5.919,4.263L5.888,4.267l-1.938,0.1l-0.001,0L3.921,4.365L3.894,4.358L3.87,4.347L3.85,4.335L3.833,4.318L3.821,4.301
									L3.81,4.285L3.801,4.271L3.8,4.26L3.799,4.249z"></path>
							</g>
						</g>
					</g>
				</g>
			</g>
		</g>
	</g>
</g>
<path fill="#FFFFFF" stroke="#EC1E24" stroke-miterlimit="10" d="M9,220.5v-207C9,11.015,11.015,9,13.5,9h63
	c2.485,0,4.5,2.015,4.5,4.5v207c0,2.485-2.015,4.5-4.5,4.5h-63C11.015,225,9,222.985,9,220.5z"></path>
<rect x="18" y="18" fill="none" stroke="#4476BA" stroke-width="0.5" stroke-dasharray="5" width="54" height="198"></rect>
</svg>