<svg version="1.1" xmlns="http://www.w3.org/2000/svg" xmlns:xlink="http://www.w3.org/1999/xlink" x="0px" y="0px" width="675" height="3075" viewBox="0 0 675 3075" enable-background="new 0 0 161.999 738" xml:space="preserve">
<g id="Layer_2">
</g>
<g id="cuts">
	<rect y="0" fill="#919396" width="162" height="738"></rect>
	<rect x="9" y="9.001" fill="#FFFFFF" stroke="#EC1C24" width="144" height="719.999"></rect>
	<rect x="18" y="18" fill="none" stroke="#00ADEE" stroke-dasharray="1.44,1.44" width="126" height="702"></rect>
</g>
<g id="text">
	
	
	
	
	
	
	
	
	
	<rect x="136.023" y="272.465" fill="#F9A51B" width="25.977" height="22.93"></rect>
	<line fill="none" stroke="#F9A51B" x1="101.85" y1="272.904" x2="147.972" y2="272.904"></line>
	<line fill="none" stroke="#EA222A" x1="9.275" y1="202.959" x2="130.068" y2="202.959"></line>
	<line fill="none" stroke="#919396" x1="5.853" y1="221.389" x2="130.858" y2="221.389"></line>
	<line fill="none" stroke="#2BA4DD" stroke-dasharray="1.44,1.44" x1="18.736" y1="166.178" x2="130.464" y2="166.178"></line>
	<path fill="#EA222A" d="M106.577,159.762c0,0.38-0.143,0.752-0.424,1.112l-0.043,0.055l-2.461,3.176
		c-0.524,0.673-0.971,1.192-1.339,1.561c-0.366,0.369-0.625,0.553-0.777,0.553c-0.158,0-0.357-0.093-0.594-0.276
		c-0.236-0.185-0.389-0.374-0.457-0.569c-0.062-0.163-0.117-0.507-0.166-1.035c-0.052-0.526-0.076-1.099-0.076-1.713
		c0-0.336,0.113-0.646,0.341-0.93c0.23-0.285,0.481-0.427,0.757-0.427c0.262,0,0.42,0.295,0.471,0.883
		c0.005,0.068,0.011,0.12,0.013,0.151c0.041,0.452,0.091,0.768,0.144,0.947c0.058,0.179,0.134,0.268,0.229,0.268
		c0.041,0,0.115-0.053,0.225-0.158c0.108-0.107,0.238-0.25,0.391-0.433l2.528-3.07c0.214-0.259,0.403-0.456,0.569-0.588
		c0.169-0.135,0.311-0.201,0.428-0.201c0.087,0,0.148,0.041,0.188,0.121c0.035,0.082,0.056,0.219,0.056,0.411V159.762z"></path>
	<path fill="#EA222A" d="M107.491,195.826c0,0.38-0.14,0.752-0.421,1.112l-0.045,0.055l-2.459,3.175
		c-0.524,0.674-0.969,1.194-1.337,1.562c-0.368,0.367-0.627,0.551-0.779,0.551c-0.158,0-0.357-0.091-0.592-0.275
		c-0.236-0.184-0.389-0.374-0.461-0.569c-0.056-0.162-0.113-0.507-0.164-1.034c-0.052-0.527-0.076-1.098-0.076-1.712
		c0-0.336,0.113-0.646,0.341-0.93c0.23-0.284,0.481-0.427,0.759-0.427c0.264,0,0.418,0.294,0.469,0.883
		c0.005,0.069,0.009,0.119,0.013,0.152c0.041,0.451,0.091,0.768,0.146,0.946c0.058,0.179,0.134,0.269,0.227,0.269
		c0.041,0,0.115-0.053,0.224-0.158c0.109-0.107,0.241-0.25,0.391-0.434l2.529-3.069c0.214-0.259,0.403-0.456,0.569-0.589
		c0.169-0.135,0.309-0.201,0.428-0.201c0.089,0,0.148,0.041,0.188,0.121c0.039,0.082,0.053,0.219,0.053,0.411V195.826z"></path>
	<path fill="#EA222A" d="M103.339,213.777c0,0.38-0.14,0.752-0.422,1.112l-0.045,0.054l-2.461,3.176
		c-0.522,0.672-0.969,1.193-1.337,1.562c-0.366,0.367-0.625,0.552-0.777,0.552c-0.16,0-0.357-0.092-0.594-0.276
		c-0.234-0.184-0.389-0.374-0.459-0.569c-0.057-0.162-0.114-0.506-0.164-1.034c-0.052-0.527-0.076-1.098-0.076-1.712
		c0-0.335,0.111-0.646,0.34-0.929c0.229-0.285,0.482-0.428,0.758-0.428c0.264,0,0.42,0.295,0.469,0.884
		c0.005,0.068,0.011,0.117,0.013,0.151c0.043,0.451,0.091,0.767,0.146,0.947c0.058,0.178,0.134,0.267,0.229,0.267
		c0.041,0,0.115-0.051,0.225-0.157c0.106-0.106,0.238-0.25,0.389-0.433l2.53-3.07c0.212-0.26,0.401-0.457,0.569-0.59
		c0.169-0.134,0.309-0.201,0.426-0.201c0.089,0,0.15,0.042,0.189,0.123c0.037,0.081,0.054,0.218,0.054,0.41V213.777z"></path>
	<path fill="#EA222A" d="M101.682,266.633c0,0.363-0.134,0.716-0.4,1.059l-0.042,0.052l-2.336,3.016
		c-0.499,0.64-0.921,1.135-1.271,1.483c-0.349,0.351-0.597,0.523-0.74,0.523c-0.151,0-0.34-0.087-0.564-0.262
		c-0.223-0.174-0.368-0.354-0.435-0.54c-0.056-0.153-0.108-0.481-0.157-0.981c-0.049-0.501-0.073-1.044-0.073-1.628
		c0-0.317,0.109-0.613,0.324-0.882c0.219-0.271,0.458-0.405,0.721-0.405c0.249,0,0.397,0.278,0.445,0.838
		c0.006,0.065,0.01,0.112,0.014,0.146c0.038,0.428,0.086,0.728,0.138,0.898c0.055,0.169,0.127,0.254,0.215,0.254
		c0.038,0,0.109-0.05,0.213-0.151c0.104-0.1,0.229-0.237,0.37-0.408l2.403-2.918c0.204-0.247,0.382-0.434,0.541-0.559
		c0.159-0.127,0.294-0.19,0.407-0.19c0.082,0,0.14,0.037,0.176,0.114s0.052,0.207,0.052,0.39V266.633z"></path>
	<rect x="8.003" y="57.703" fill="none" width="149.551" height="249.833"></rect>
	
	
	
	
	
	
	<polyline fill="#D0D2D3" points="23.252,139.528 23.252,21.363 139.175,21.363 139.175,138.527 	"></polyline>
	
	
	
	<path fill-rule="evenodd" clip-rule="evenodd" d="M120.173,65.606c0,20.211-16.374,36.596-36.568,36.596
		c-20.198,0-36.572-16.385-36.572-36.596c0-20.211,16.374-36.596,36.572-36.596C103.799,29.01,120.173,45.395,120.173,65.606"></path>
	<path fill-rule="evenodd" clip-rule="evenodd" fill="#B7D333" d="M116.873,65.809c0,18.374-14.884,33.269-33.245,33.269
		c-18.36,0-33.245-14.895-33.245-33.269S65.268,32.54,83.628,32.54C101.989,32.54,116.873,47.435,116.873,65.809"></path>
	<path d="M76.51,58.554c-0.461,4.078-0.805,7.353-1.033,9.826l-1.516,0.066c0.021-0.082,0.033-0.174,0.036-0.277
		c0.002-0.185-0.066-0.429-0.205-0.731c-0.139-0.301-0.219-0.494-0.238-0.577c-0.392,0.056-0.769,0.329-1.126,0.816
		c-0.359,0.49-0.683,0.732-0.971,0.728c-0.167-0.003-0.351-0.049-0.555-0.133c-0.271,0.181-0.622,0.256-1.055,0.229
		c-0.391-0.069-0.771-0.127-1.142-0.175c-0.012-0.514-0.519-0.967-1.522-1.357c0.003-0.206-0.101-0.512-0.31-0.917
		c-0.21-0.406-0.313-0.69-0.31-0.856c0.002-0.187,0.077-0.339,0.225-0.461c-0.021-0.062-0.19-0.446-0.507-1.154
		c-0.218-0.519-0.324-0.965-0.316-1.334c0.003-0.29,0.071-0.557,0.199-0.802c-0.176-1.758-0.254-3.264-0.232-4.522
		c0.032-1.94,0.309-3.719,0.833-5.342c-0.038-0.248-0.055-0.495-0.05-0.743c0.021-1.299,0.472-2.199,1.344-2.701l0.007-0.402
		c0.864-1.101,2.001-1.896,3.412-2.388c0.842,0.2,1.684,0.39,2.526,0.57c0.943,0.325,1.594,0.883,1.952,1.674
		c0.285,0.17,0.424,0.513,0.415,1.028c-0.009,0.577,0.057,0.95,0.198,1.118l-0.157,0.183c0.164,1.219,0.244,1.964,0.24,2.231
		c-0.013,0.785-0.219,1.339-0.616,1.662c-0.144-0.003-0.523-0.133-1.137-0.39c-0.147,0.141-0.303,0.21-0.468,0.208
		c-0.083-0.001-0.232-0.045-0.447-0.132c-0.214-0.086-0.395-0.131-0.539-0.133c-0.104-0.001-0.208,0.018-0.311,0.057
		c-0.012-1.63,0.039-2.847,0.155-3.651c-0.163-0.105-0.329-0.346-0.497-0.719c-0.17-0.375-0.389-0.584-0.654-0.63
		c-0.168,0.204-0.243,0.336-0.224,0.399l-0.553-0.195c-0.504,0.548-0.84,1.502-1.007,2.86c-0.171,1.565-0.384,2.604-0.64,3.115
		c0.221,0.232,0.331,0.554,0.323,0.965c-0.002,0.145-0.026,0.382-0.074,0.711c-0.047,0.33-0.071,0.577-0.073,0.743
		c-0.004,0.185,0.012,0.351,0.052,0.495l-0.376,0.364c0.153,0.705,0.242,1.594,0.265,2.667c-0.015,0.907-0.022,1.815-0.015,2.722
		c-0.022,0-0.197,0.007-0.527,0.021c-0.206-0.002-0.352,0.066-0.436,0.21c0.125-0.019,0.238-0.028,0.34-0.025
		c0.454,0.007,0.81,0.328,1.067,0.961c0.256,0.635,0.478,0.953,0.664,0.957c0.205,0.002,0.487-0.188,0.846-0.574
		c0.607-0.65,0.921-1.543,0.941-2.676c0.01-0.559-0.053-1.157-0.187-1.798c-0.147,0.081-0.22,0.285-0.227,0.614
		c-0.33-0.005-0.537,0.063-0.623,0.206c-0.143-0.043-0.204-0.158-0.179-0.343c0.024-0.268,0.038-0.412,0.039-0.433
		c0.249-0.078,0.373-0.19,0.376-0.334c0.001-0.062-0.044-0.176-0.133-0.343c-0.089-0.167-0.133-0.3-0.132-0.404
		c0.002-0.083,0.024-0.165,0.067-0.248l0.144-1.205c0.452,0.132,1.429,0.189,2.936,0.174c-0.043,0.103,0.017,0.239,0.179,0.405
		c0.146-0.142,0.301-0.211,0.467-0.209c0.124,0.003,0.308,0.058,0.554,0.166C76.233,58.5,76.407,58.553,76.51,58.554"></path>
	<path d="M88.051,69.211c-0.287-0.129-0.595-0.196-0.926-0.201c-0.287-0.005-0.682,0.05-1.178,0.166
		c-0.559,0.114-0.94,0.179-1.146,0.197c-0.222-0.437-0.374-1.039-0.465-1.804c-0.167-1.116-0.271-1.746-0.308-1.892
		c0.063-0.123,0.097-0.226,0.097-0.307c0.006-0.229-0.173-0.431-0.53-0.613c-0.358-0.181-0.536-0.324-0.534-0.428
		c0.002-0.123,0.212-0.306,0.628-0.547c-0.1-0.125-0.175-0.379-0.218-0.76c-0.046-0.383-0.142-0.639-0.281-0.765
		c-0.251,0.224-0.661,0.367-1.228,0.429c-0.57,0.062-0.947,0.155-1.133,0.274c0.012,1.611-0.253,2.689-0.798,3.236
		c-0.288-0.066-0.507,0.043-0.655,0.331c-0.213,0.347-0.391,0.55-0.537,0.609l0.181,0.22c-0.167,0.141-0.436,0.199-0.805,0.172
		c-0.579-0.031-0.886-0.046-0.927-0.046l-0.176-0.56l2.014-16.71c0.018-1.052,0.071-1.763,0.16-2.133
		c-0.026-0.93,0.191-1.504,0.647-1.722c0.286,0.189,0.646,0.289,1.079,0.296c0.35,0.005,0.897-0.067,1.641-0.22
		c0.746-0.152,1.262-0.226,1.551-0.222c1.01,0.017,1.45,0.747,1.325,2.189c-0.103,1.153,0.077,2.673,0.54,4.56
		c0.481,2.029,0.714,3.55,0.696,4.561c-0.006,0.309,0.097,0.951,0.07,1.26c-0.437,0.239-0.995,0.384-1.677,0.434
		c-0.599,0.031-1.207,0.062-1.827,0.093c-0.159-1.57-0.436-3.464-0.595-5.014c-0.196-1.859-0.438-3.39-0.726-4.591l-0.955,8.835
		c-0.073,0.762,0.271,1.15,1.033,1.163c0.247,0.004,0.483-0.055,0.713-0.174c0.188-0.059,0.443,0.08,0.767,0.414
		c-0.012,0.641,0.117,1.024,0.383,1.153c0.333-0.223,0.771-0.431,1.31-0.628c0.478-0.177,0.943-0.344,1.401-0.502
		c0.26,0.355,0.428,0.884,0.499,1.586c0.086,0.992,0.146,1.571,0.186,1.736c0.034,0.393,0.195,1.242,0.483,2.547
		c0.209,1.034,0.309,1.872,0.297,2.512C88.122,68.656,88.097,68.943,88.051,69.211"></path>
	<path d="M102.291,54.474c-0.022,0.061-0.027,0.422-0.02,1.083c-0.008,0.536-0.078,0.938-0.204,1.204
		c-0.153,0.41-0.235,0.997-0.247,1.759c-0.005,0.166,0.002,0.424,0.017,0.775c-0.006,0.35-0.01,0.607-0.013,0.772
		c-0.021,1.3-0.244,2.244-0.668,2.836c0.037,0.332,0.052,0.662,0.046,0.991c-0.017,1.032-0.37,2.418-1.059,4.161
		c-0.188,0.059-0.344,0.087-0.466,0.085c-0.248-0.004-0.426-0.147-0.535-0.426c-0.109-0.281-0.212-0.546-0.31-0.796
		c0.066-1.587,0.034-3.898-0.1-6.934l0.188-0.182c-0.135-0.539-0.197-1.138-0.186-1.798c0.008-0.475,0.067-1.164,0.174-2.07
		c0.108-0.905,0.167-1.586,0.174-2.041c0.007-0.289-0.001-0.567-0.016-0.835c-0.71,1.701-1.213,4.581-1.508,8.64l-0.259,0.614
		c-0.085,0.206-0.262,0.315-0.529,0.332c-0.082-0.144-0.162-0.219-0.244-0.221c-0.062,0-0.172,0.075-0.327,0.227
		c-0.159,0.152-0.289,0.216-0.392,0.194l-0.409,0.365c0.183,0.231,0.573,0.257,1.174,0.083c0.477-0.137,0.721,0.042,0.734,0.538
		c0.013,0.412-0.101,0.968-0.338,1.666c-0.239,0.696-0.361,1.221-0.366,1.572c-0.004,0.247,0.021,0.496,0.08,0.744l-2.141,0.335
		c-0.198-0.417-0.347-1.115-0.443-2.098c-0.097-0.982-0.245-1.681-0.443-2.097c0.125-0.142,0.189-0.294,0.192-0.461
		c0.002-0.144-0.055-0.361-0.174-0.652c-0.119-0.291-0.188-0.509-0.206-0.654c-0.018-0.227-0.089-0.775-0.22-1.644
		c-0.092-0.704-0.135-1.252-0.127-1.643c0.003-0.206,0.019-0.391,0.041-0.555c0.002-0.145-0.077-0.357-0.236-0.64
		c-0.161-0.281-0.239-0.483-0.237-0.608c0.002-0.102,0.045-0.193,0.128-0.273c-0.143-0.169-0.197-0.458-0.17-0.871
		c0.026-0.412-0.03-0.702-0.17-0.869c-0.305,0.799-0.466,1.879-0.49,3.242c-0.012,1.897-0.03,2.992-0.056,3.278l0.214,0.19
		l-0.219,0.181c0.152,0.746,0.218,1.696,0.198,2.851c-0.056,2.083-0.083,3.053-0.08,2.909c-0.293,0.262-0.698,0.39-1.213,0.381
		c-0.638-0.01-1.072,0.045-1.301,0.164c-0.262-0.458-0.387-1.048-0.372-1.77c0.008-0.556,0.104-1.235,0.281-2.039
		c-0.28-0.52-0.411-1.245-0.396-2.172c0.004-0.228,0.031-0.66,0.083-1.298c0.029-0.515,0.036-0.896,0.021-1.146
		c0.206-0.099,0.311-0.211,0.313-0.334c0.002-0.083-0.062-0.223-0.194-0.422c-0.131-0.198-0.195-0.349-0.193-0.452
		c0.003-0.124,0.087-0.246,0.253-0.368l-0.665-10.007c0.397-0.261,1.039-0.385,1.924-0.37c0.969,0.038,1.63-0.013,1.983-0.151
		c0.062-0.042,0.134-0.061,0.217-0.059c0.082,0,0.179,0.05,0.291,0.144c0.112,0.096,0.189,0.142,0.229,0.143
		c0.083,0.002,0.157-0.059,0.222-0.181l0.577,0.567c0.193,0.726,0.376,2.131,0.547,4.217c0.175,1.798,0.451,3.156,0.829,4.069
		c0.505-1.827,0.921-3.357,1.252-4.59l0.671-4.897l4.794-0.104c0.018,0.268,0.076,1.702,0.206,2.53
		c0.11,0.723,0.164,1.312,0.155,1.766c-0.008,0.516-0.089,0.979-0.24,1.388c0.162,0.231,0.239,0.519,0.232,0.87
		C102.547,53.963,102.459,54.25,102.291,54.474"></path>
	<path d="M112.126,65.319l0.002-0.032c-0.129,0.267-0.206,0.575-0.232,0.924c-0.024,0.227-0.03,0.546-0.017,0.959
		c0.013,0.475,0.018,0.806,0.015,0.99c-0.166-0.001-0.825-0.013-1.979-0.032c-0.7-0.012-1.331,0.049-1.89,0.185l-0.577-0.629
		c-0.168,0.162-0.231,0.295-0.191,0.399c-0.103-0.024-0.578-0.029-1.422-0.025c-0.661-0.011-1.154-0.082-1.481-0.211
		c-0.336,0.347-0.729,0.34-1.177-0.019c-0.162-0.126-0.178-0.339-0.05-0.636c0.129-0.297,0.092-0.52-0.112-0.667
		c0.031-0.659,0.121-1.679,0.269-3.059c0.145-1.235,0.222-2.205,0.234-2.905c0.016-0.949-0.051-1.858-0.199-2.727
		c0.229-0.224,0.488-0.333,0.776-0.328c0.33,0.005,0.719,0.167,1.168,0.483c0.63,0.444,0.958,0.666,0.979,0.667l0.181,0.22
		c0.022-0.061,0.132-0.389,0.327-0.984c0.108-0.39,0.268-0.645,0.478-0.766l0.183,0.189c0.082-0.04,0.353-0.231,0.813-0.575
		c0.354-0.241,0.643-0.814,0.848-0.811c0.228,0.004,0.441,0.132,0.644,0.383c0.348,0.192,0.566,0.933,0.674,1.316
		c0.105,0.383,0.209,0.76,0.305,1.135c-0.929,0.025-1.69,0.001-2.287-0.07c-0.147,0.224-0.354,0.256-0.62,0.097
		c-0.266-0.159-0.461-0.136-0.589,0.068c-0.007,0.372-0.018,1.042-0.034,2.011c-0.036,0.867-0.047,1.546-0.034,2.043
		c0.007,0.763,0.059,1.466,0.15,2.106c0.164,0.003,0.946,0.016,2.348,0.04C110.595,65.077,111.429,65.162,112.126,65.319
		 M112.193,50.495c-0.186,0.017-0.393,0.023-0.62,0.021c-0.473-0.008-1.101-0.082-1.882-0.218c-0.968-0.141-1.555-0.222-1.759-0.246
		c-0.296,0.426-0.45,1.035-0.464,1.818c-0.029,1.691-0.031,2.423-0.006,2.197c0.284,0.169,0.424,0.482,0.416,0.936
		c-0.031,0.618-0.036,0.938-0.016,0.959c-0.146,0.06-0.222,0.265-0.227,0.616c-0.227-0.087-0.459-0.256-0.703-0.507
		c-0.325-0.315-0.498,0.754-0.474,0.486l-0.194,0.636l-0.184-0.189c-0.166,0.017-0.448-0.07-0.846-0.262
		c-0.399-0.192-0.679-0.371-0.841-0.541c0.006-0.33,0.061-0.515,0.163-0.555l-0.395-0.438l-0.189,0.275
		c-0.231-2.15-0.174-6.17,0.111-8.435c0.782,0.137,1.646,0.224,2.594,0.261c0.639,0.031,1.534,0.046,2.689,0.045
		c1.319,0.002,2.27,0.007,2.846,0.017c0.243,0.232,0.362,0.533,0.356,0.903c-0.005,0.229-0.068,0.592-0.189,1.097
		C112.26,49.873,112.197,50.247,112.193,50.495"></path>
	<path d="M77.44,84.029l-0.001-0.015c0.001,0.01-0.052,0.465-0.16,1.364c-0.052,0.553-0.186,0.987-0.399,1.304l-0.134-0.11
		c-0.25,0.525-0.59,0.844-1.023,0.958c-0.206,0.218-0.505,0.337-0.894,0.36c-0.231,0.014-0.765-0.054-1.604-0.202
		c-0.404-0.251-0.625-0.39-0.664-0.417c-0.254-0.192-0.375-0.386-0.362-0.583c-0.246-0.251-0.593-0.7-0.722-1.26
		c-0.156-0.62-0.253-0.655-0.399-0.873c-0.234,0.171-0.318-0.193-0.453-0.412l0.123-0.095c-0.076-0.055-0.115-0.116-0.12-0.185
		c-0.002-0.048,0.018-0.121,0.061-0.216c0.043-0.097,0.064-0.169,0.06-0.218c-0.003-0.077-0.05-0.144-0.139-0.198
		c0.094-0.486,0.179-1.217,0.257-2.194c0.166-0.087,0.245-0.26,0.236-0.515c-0.01-0.253,0.025-0.422,0.106-0.506
		c0.394-0.789,1.034-1.321,1.92-1.598c0.048,0.007,0.286,0.002,0.711-0.012c0.293-0.008,0.514,0.019,0.663,0.079
		c0.266-0.045,0.532,0.019,0.797,0.19c0.23,0.173,0.46,0.346,0.689,0.519c0.429,0.466,0.661,0.992,0.695,1.58
		c0.011,0.195-0.002,0.402-0.038,0.62c-0.317-0.011-0.543,0.199-0.676,0.628l-1.236,0.116c-0.133-0.188-0.209-0.44-0.227-0.752
		c-0.006-0.107-0.005-0.264,0-0.471c0.006-0.206,0.007-0.364,0-0.471c-0.019-0.323-0.094-0.579-0.227-0.768l-0.372,0.213
		c-0.15-0.06-0.228-0.148-0.234-0.265c-0.003-0.039,0.003-0.097,0.018-0.17c0.014-0.075,0.02-0.126,0.018-0.156
		c-0.007-0.126-0.122-0.204-0.342-0.231c-0.151,1.393-0.196,2.824-0.135,4.292c0.039,0.047,0.156,0.08,0.353,0.098
		c0.159,0.02,0.241,0.069,0.245,0.148c0.002,0.03-0.007,0.069-0.029,0.119l-0.122,0.095c0.066,0.105,0.106,0.25,0.117,0.436
		c0.005,0.098,0.001,0.249-0.011,0.448c-0.012,0.203-0.017,0.353-0.011,0.45c0.019,0.294,0.091,0.517,0.223,0.665
		c-0.014,0.217,0.075,0.364,0.261,0.442c0.121-0.047,0.227-0.072,0.326-0.078c0.377-0.022,0.639,0.182,0.785,0.617
		c0,0.01-0.001,0.083-0.005,0.221c0.003,0.078,0.043,0.128,0.118,0.153c0.166-0.097,0.248-0.274,0.244-0.528
		c-0.004-0.294,0.034-0.483,0.115-0.567c-0.021-0.135-0.102-0.331-0.245-0.589c-0.144-0.256-0.219-0.458-0.228-0.604
		c-0.009-0.157,0.038-0.306,0.139-0.45c-0.086-0.025-0.126-0.082-0.119-0.169c0.004-0.139,0.006-0.213,0.006-0.222
		C76.066,83.878,76.749,83.873,77.44,84.029"></path>
	<path d="M83.036,85.178H83.02c-0.072,0.141-0.094,0.345-0.067,0.606c0.032,0.374,0.051,0.563,0.051,0.573
		c-0.056,0.021-0.132-0.007-0.227-0.083c-0.144,0.054-0.213,0.145-0.205,0.272c0.001,0.019,0.009,0.05,0.022,0.094
		c0.004,0.055,0.007,0.091,0.008,0.11c0.005,0.099-0.024,0.175-0.09,0.224c-0.165-0.091-0.38-0.149-0.647-0.175
		c-0.269-0.026-0.523-0.049-0.763-0.071c-0.003-1.242-0.17-2.457-0.5-3.642c0,0.009-0.007-0.113-0.021-0.369
		c0-0.182-0.04-0.312-0.125-0.389l-0.114,0.102c-0.001-0.02,0.036-0.054,0.113-0.109c0.076-0.054,0.113-0.11,0.11-0.164
		c-0.004-0.027-0.011-0.054-0.023-0.081l-0.125-0.088c-0.211,0.066-0.309,0.236-0.293,0.51c0.012,0.182-0.062,0.31-0.216,0.383
		c0.06,0.042,0.091,0.095,0.094,0.16c0.003,0.035-0.002,0.086-0.016,0.15c-0.014,0.065-0.019,0.116-0.017,0.151
		c0.006,0.081,0.049,0.147,0.131,0.198c0.002,0.054,0.031,0.546,0.084,1.475c0.037,0.591,0.019,1.094-0.046,1.509l0.012,0.232
		c-0.08-0.004-0.17-0.004-0.271,0.001c-0.113,0.007-0.277,0.023-0.491,0.049c-0.213,0.027-0.372,0.043-0.473,0.048
		c-0.417,0.023-0.711-0.046-0.88-0.21l-0.176-5.097c-0.083-0.251-0.137-0.599-0.163-1.045l-0.057-0.982
		c-0.04-0.482-0.101-0.854-0.184-1.113c0.035-0.176,0.188-0.271,0.46-0.286c0.169-0.01,0.396,0.013,0.683,0.069
		c0.132-0.062,0.317-0.1,0.555-0.114c0.068-0.004,0.174-0.006,0.322-0.004c0.158-0.009,0.271-0.016,0.339-0.02
		c0.44-0.026,0.733-0.162,0.878-0.408c0.205-0.002,0.425,0.062,0.666,0.194c0.239,0.132,0.45,0.202,0.633,0.209
		c0.481,0.283,0.74,0.752,0.78,1.406c0.007,0.146-0.049,0.724-0.172,1.736l-0.826,0.719c0.14,0.257,0.308,0.817,0.506,1.683
		C82.447,84.312,82.699,84.841,83.036,85.178 M81.51,79.378l0.016,0.012c0.017,0.062,0.008-0.16-0.021-0.669
		c-0.014-0.246-0.104-0.422-0.268-0.532c-0.094,0.134,0.012,0.196-0.032,0.504s-0.227,0.222-0.333,0.356
		c-0.284-0.002-0.349,0.169-0.41-0.101c-0.127-0.44-0.237-0.401-0.237-0.41l-0.12,0.072c-0.043,0.039-0.092,0.083-0.146,0.131
		c-0.053,0.049-0.109,0.067-0.166,0.051c0.002,0.055-0.024,0.141-0.079,0.259c-0.057,0.117-0.083,0.199-0.08,0.244
		c0.006,0.083,0.07,0.141,0.197,0.18c-0.022,0.185-0.028,0.377-0.016,0.577c0.005,0.108,0.032,0.358,0.077,0.748
		c0.051,0.308,0.072,0.571,0.062,0.79c0.103,0.004,0.199,0.004,0.29-0.003c0.396-0.023,0.652-0.179,0.771-0.469
		c0.041-0.084,0.085-0.389,0.134-0.912C81.194,79.811,81.314,79.535,81.51,79.378"></path>
	<path d="M89.456,87.158c-0.162-0.047-0.333-0.064-0.514-0.053c-0.158,0.008-0.371,0.048-0.64,0.119
		c-0.303,0.072-0.509,0.116-0.621,0.132c-0.137-0.185-0.241-0.441-0.317-0.775c-0.131-0.486-0.21-0.759-0.234-0.822
		c0.031-0.057,0.044-0.103,0.043-0.139c-0.007-0.1-0.11-0.183-0.312-0.249c-0.203-0.065-0.306-0.122-0.308-0.167
		c-0.002-0.055,0.104-0.143,0.325-0.265c-0.061-0.051-0.109-0.16-0.146-0.327c-0.038-0.167-0.098-0.275-0.181-0.326
		c-0.13,0.109-0.35,0.188-0.658,0.238c-0.309,0.049-0.513,0.105-0.61,0.166c0.062,0.708,0,1.952-0.28,2.215
		c-0.16-0.019-0.275,0.038-0.347,0.17c-0.105,0.161-0.196,0.259-0.273,0.291l0.106,0.088c-0.087,0.07-0.231,0.105-0.435,0.109
		c-0.318,0.01-0.486,0.014-0.51,0.016l-0.115-0.24l0.476-8.198c-0.025-0.463-0.022-0.778,0.015-0.944
		c-0.048-0.408,0.052-0.67,0.294-0.784c0.163,0.073,0.362,0.101,0.601,0.088c0.19-0.012,0.489-0.064,0.893-0.161
		c0.401-0.096,0.683-0.149,0.84-0.159c0.556-0.032,0.821,0.273,0.801,0.912c-0.016,0.513,0.137,1.174,0.456,1.987
		c0.334,0.875,0.515,1.536,0.54,1.982c0.008,0.136,0.189,0.426,0.186,0.562c-0.23,0.123-0.532,0.209-0.902,0.258
		c-0.328,0.037-0.659,0.076-0.998,0.113c-0.14-0.687-0.462-1.52-0.603-2.197c-0.172-0.812-0.359-1.476-0.558-1.994l-0.215,3.93
		c-0.014,0.338,0.188,0.495,0.605,0.47c0.135-0.006,0.264-0.042,0.387-0.104c0.1-0.033,0.244,0.018,0.433,0.153
		c0.017,0.283,0.1,0.447,0.25,0.492c0.175-0.11,0.406-0.219,0.694-0.328c0.256-0.096,0.505-0.188,0.75-0.276
		c0.155,0.146,0.265,0.373,0.329,0.681c0.081,0.432,0.135,0.685,0.163,0.756c0.032,0.171,0.149,0.54,0.353,1.103
		c0.15,0.447,0.233,0.812,0.251,1.094C89.476,86.909,89.47,87.037,89.456,87.158"></path>
	<path d="M94.136,77.86l0.018-0.001c-0.136,0.2-0.308,0.238-0.52,0.113c-0.047-0.007-0.25,0.005-0.61,0.034
		c-0.305,0.019-0.526,0.004-0.666-0.043c-0.033,0.003-0.102,0.037-0.199,0.101c-0.098,0.065-0.169,0.1-0.215,0.102
		c-0.065,0.004-0.105-0.053-0.111-0.171c-0.001-0.018-0.005-0.095-0.014-0.233c-0.005-0.09-0.05-0.151-0.13-0.183l-0.211,0.163
		c-0.066,0.05-0.098,0.102-0.093,0.156c0.002,0.046,0.04,0.109,0.113,0.192c0.072,0.083,0.114,0.142,0.128,0.177
		c0.003,0.027,0.025,0.438,0.072,1.229c0.018,0.501,0.108,0.901,0.272,1.203c0.042-0.048,0.146-0.074,0.312-0.08
		c0.162-0.004,0.271-0.041,0.323-0.108c0.107,0.095,0.286,0.1,0.537,0.016c0.251-0.083,0.431-0.055,0.542,0.085l-0.032,1.207
		c-0.104-0.011-0.254-0.062-0.451-0.151c-0.059,0.177-0.172,0.289-0.338,0.334c-0.067,0.023-0.259,0.042-0.576,0.062
		c0.009-0.056-0.039-0.112-0.146-0.17c-0.307,0.146-0.424,0.495-0.346,1.047c0.008-0.056,0.019,0.04,0.034,0.286
		c0.008,0.154-0.024,0.267-0.1,0.334c-0.192,0.029-0.436-0.014-0.73-0.129c-0.296-0.116-0.507-0.17-0.63-0.162
		c-0.058,0.004-0.109,0.012-0.153,0.023L89.9,83.393l-0.508-5.517l-0.06-1.05c0.422-0.143,0.943-0.233,1.565-0.27
		c0.486-0.028,1.121-0.023,1.905,0.013c0.049-0.104,0.143,0.032,0.256,0.024c0.057-0.002,0.143,0.003,0.257,0.021
		c0.114,0.015,0.198,0.022,0.257,0.019c0.068-0.005,0.129-0.017,0.185-0.039l0.08-0.086c0.23,0.069,0.353,0.19,0.359,0.362
		c0.005,0.074-0.017,0.198-0.062,0.375c-0.046,0.175-0.066,0.309-0.062,0.4C94.079,77.726,94.1,77.798,94.136,77.86 M92.153,87.063
		c-0.121,0.062-0.307,0.1-0.554,0.115c-0.328,0.019-0.525,0.034-0.593,0.047c-0.035-0.034-0.079-0.005-0.153-0.294
		c-0.044-0.188-0.164-0.278-0.354-0.266c-0.046,0.002-0.102,0.01-0.17,0.023l-0.305,0.017l-0.162-2.792
		c0.165-0.082,0.372-0.131,0.621-0.146c0.237-0.014,0.448,0.011,0.634,0.074c-0.006,0.1,0.139,0.144,0.432,0.125l0.322-0.019
		C92.063,84.732,92.18,86.149,92.153,87.063"></path>
	<path d="M100.916,78.098l0.018,0.012c-0.159-0.009-0.672,0.025-1.064,0.075c-0.339,0.039-0.595,0.044-0.766,0.018
		c-0.164,0.109-0.223,0.259-0.178,0.448l0.105,0.062c-0.085,0.079-0.116,0.139-0.092,0.185l0.091,0.089
		c-0.02,1.618-0.023,2.512-0.015,2.686c0.023,0.427,0.076,0.802,0.15,1.127c-0.067,0.206-0.094,0.439-0.077,0.703
		c0.01,0.172,0.051,0.446,0.122,0.822c0.073,0.374,0.171,1.604,0.183,1.796c0.009,0.145,0.005,0.282-0.011,0.411
		c-0.155,0.064-0.323,0.102-0.504,0.112c-0.305,0.018-0.632-0.045-0.979-0.188c-0.044,0.039-0.092,0.08-0.146,0.124
		c-0.054,0.044-0.067,0.093-0.043,0.146c-0.111,0.034-0.267-0.012-0.467-0.136c-0.106-1.638-0.399-4.974-0.834-8.346
		c-0.151,0.137-0.431,0.023-0.725,0.057c-0.35,0.04-0.691-0.015-0.825,0.048c-0.167-0.182-0.131-0.235-0.149-0.534
		c-0.016-0.292-0.11-1.01-0.034-1.31c0.015-0.063,0.648-0.027,1.02-0.058c0.508-0.03,0.621,0.091,0.653,0.088
		c0.042-0.067,0.29-0.033,0.471-0.044c0.116,0.058,0.242-0.052,0.248,0.03c0.004,0.054,0,0.399-0.039,0.498
		c-0.039,0.097-0.059,0.169-0.056,0.215c0.006,0.108,0.085-0.051,0.27,0.011c0.204-0.003,0.413-0.01,0.627-0.022
		c0.239,0.021,0.515-0.065,0.493,0.137c0.041-0.058,0.068,0.044,0.411-0.095c0.255-0.115,0.409-0.415,0.358-0.62
		c-0.026-0.113,0.127-0.185,0.03-0.132c0.122-0.067,0.012-0.021,0.145-0.073c0.423,0.039,0.658-0.004,0.737-0.01
		c0.17-0.01,0.59,0.1,0.712,0.038c0.088,0.159,0.132,0.657,0.137,0.932C100.907,77.838,100.913,78.071,100.916,78.098"></path>
	<path d="M106.409,83.795l-0.002-0.014c-0.061,0.123-0.093,0.262-0.094,0.417c-0.007,0.101,0.001,0.242,0.023,0.423
		c0.023,0.209,0.038,0.355,0.042,0.436c-0.092,0.005-0.453,0.026-1.085,0.063c-0.384,0.022-0.728,0.075-1.028,0.155l-0.337-0.255
		c-0.087,0.08-0.116,0.141-0.092,0.184c-0.057-0.005-0.317,0.009-0.779,0.046c-0.362,0.021-0.635,0.01-0.819-0.035
		c-0.171,0.165-0.387,0.178-0.645,0.037c-0.093-0.048-0.109-0.141-0.049-0.275c0.06-0.137,0.031-0.234-0.086-0.292
		c-0.004-0.291,0.008-0.744,0.041-1.358c0.036-0.548,0.045-0.979,0.027-1.288c-0.024-0.42-0.094-0.816-0.204-1.194
		c0.117-0.107,0.255-0.165,0.412-0.174c0.182-0.01,0.4,0.046,0.659,0.168c0.36,0.169,0.546,0.255,0.557,0.255l0.108,0.089
		c0.01-0.028,0.057-0.178,0.145-0.446c0.045-0.176,0.123-0.295,0.233-0.356l0.105,0.075c0.046-0.019,0.188-0.115,0.427-0.285
		c0.186-0.12,0.313-0.562,0.427-0.569c0.123-0.007,0.246,0.041,0.365,0.143c0.196,0.071,0.354,0.569,0.425,0.732
		c0.072,0.165,0.141,0.327,0.207,0.488c-0.508,0.048-0.926,0.068-1.255,0.059c-0.073,0.105-0.187,0.127-0.335,0.067
		c-0.152-0.06-0.259-0.042-0.322,0.054c0.01,0.164,0.028,0.459,0.052,0.887c0.012,0.382,0.029,0.682,0.052,0.901
		c0.03,0.336,0.084,0.644,0.156,0.921c0.091-0.004,0.521-0.03,1.289-0.074C105.561,83.749,106.021,83.754,106.409,83.795
		 M105.884,77.374c-0.102,0.015-0.215,0.026-0.34,0.034c-0.26,0.015-0.604,0.007-1.038-0.022c-0.534-0.024-0.858-0.037-0.973-0.04
		c-0.146,0.2-0.165,0.362-0.146,0.708c0.044,0.745,0.068,1.069,0.073,0.968c0.163,0.063,0.25,0.196,0.262,0.396
		c0.004,0.273,0.013,0.414,0.024,0.423c-0.077,0.032-0.112,0.125-0.104,0.28c-0.126-0.028-0.261-0.095-0.402-0.196
		c-0.189-0.125-0.248,0.321-0.243,0.201l-0.086,0.278l-0.106-0.075c-0.09,0.014-0.247-0.013-0.473-0.083
		c-0.226-0.068-0.386-0.137-0.479-0.205c-0.008-0.145,0.014-0.229,0.071-0.25l-0.232-0.178l-0.094,0.128
		c-0.203-0.937-0.338-2.59-0.26-3.598c0.433,0.029,0.938-0.046,1.458-0.068c0.35-0.01,0.843-0.039,1.476-0.084
		c0.722-0.051,1.241-0.085,1.557-0.104c0.142,0.092,0.219,0.22,0.227,0.384c0.007,0.1-0.016,0.263-0.064,0.49
		C105.941,76.986,105.878,77.265,105.884,77.374"></path>
	<path d="M112.047,82.824l-0.017,0.002c-0.07,0.141-0.094,0.343-0.067,0.606c0.033,0.373,0.05,0.563,0.05,0.572
		c-0.056,0.022-0.13-0.005-0.226-0.082c-0.145,0.054-0.212,0.145-0.205,0.271c0.002,0.019,0.009,0.049,0.022,0.095
		c0.003,0.054,0.005,0.092,0.007,0.108c0.007,0.102-0.022,0.176-0.089,0.225c-0.165-0.091-0.381-0.149-0.648-0.174
		c-0.269-0.025-0.521-0.051-0.761-0.074c-0.005-1.24-0.172-2.454-0.5-3.64c0,0.009-0.008-0.114-0.022-0.37
		c0.001-0.181-0.04-0.312-0.124-0.389l-0.112,0.103c-0.001-0.018,0.035-0.055,0.112-0.109c0.075-0.055,0.113-0.109,0.109-0.164
		c-0.003-0.027-0.009-0.056-0.023-0.082l-0.123-0.089c-0.211,0.068-0.31,0.238-0.293,0.511c0.01,0.183-0.062,0.311-0.217,0.382
		c0.059,0.042,0.092,0.096,0.097,0.159c0,0.036-0.006,0.086-0.018,0.151c-0.014,0.064-0.021,0.115-0.018,0.152
		c0.004,0.082,0.048,0.147,0.13,0.198c0.003,0.054,0.032,0.545,0.085,1.473c0.036,0.592,0.019,1.096-0.048,1.51l0.015,0.232
		c-0.081-0.006-0.171-0.006-0.272,0.002c-0.114,0.006-0.277,0.022-0.49,0.049c-0.215,0.025-0.371,0.042-0.474,0.048
		c-0.418,0.024-0.711-0.046-0.879-0.209l-0.178-5.098c-0.082-0.251-0.136-0.6-0.163-1.045l-0.057-0.983
		c-0.04-0.481-0.1-0.852-0.183-1.112c0.034-0.175,0.188-0.27,0.46-0.287c0.169-0.009,0.396,0.015,0.684,0.07
		c0.133-0.063,0.316-0.102,0.553-0.115c0.069-0.003,0.176-0.005,0.324-0.005c0.157-0.009,0.271-0.016,0.339-0.02
		c0.441-0.025,0.733-0.16,0.878-0.406c0.203-0.003,0.427,0.062,0.666,0.193c0.24,0.132,0.451,0.202,0.635,0.21
		c0.479,0.283,0.738,0.752,0.778,1.407c0.008,0.146-0.05,0.724-0.173,1.736l-0.826,0.718c0.141,0.257,0.309,0.818,0.508,1.683
		C111.458,81.96,111.71,82.489,112.047,82.824 M110.521,77.025l0.018,0.014c0.015,0.063,0.007-0.161-0.021-0.67
		c-0.015-0.246-0.105-0.424-0.27-0.533c-0.094,0.134-0.112-0.177-0.156,0.133c-0.044,0.309-0.119,0.528-0.224,0.664
		c-0.284-0.002-0.35-0.171-0.518-0.408c-0.106-0.151-0.157-0.02-0.157-0.029l-0.078,0.061c-0.043,0.041-0.091,0.084-0.146,0.133
		c-0.053,0.049-0.11,0.065-0.166,0.05c0.003,0.055-0.023,0.141-0.079,0.258c-0.055,0.118-0.081,0.199-0.08,0.244
		c0.006,0.082,0.07,0.143,0.198,0.182c-0.023,0.183-0.029,0.375-0.019,0.577c0.009,0.108,0.032,0.357,0.079,0.748
		c0.051,0.307,0.073,0.57,0.062,0.791c0.103,0.003,0.198,0.002,0.29-0.002c0.395-0.024,0.651-0.18,0.771-0.47
		c0.039-0.086,0.085-0.39,0.134-0.913C110.205,77.459,110.326,77.184,110.521,77.025"></path>
	<path d="M55.839,59.313l0,0.013c-0.05,0.472-0.068,0.8-0.05,0.981c-0.072,0.028-0.167,0.033-0.284,0.013
		c-0.15-0.025-0.236-0.037-0.262-0.036c-0.065,0.003-0.117,0.027-0.156,0.07c-0.094-0.061-0.157-0.087-0.19-0.078
		c-0.087,0.054-0.129,0.131-0.125,0.229c0.004,0.041,0.019,0.113,0.049,0.214c0.03,0.104,0.046,0.178,0.048,0.228
		c0.003,0.066-0.009,0.17-0.039,0.312c-0.03,0.142-0.043,0.258-0.04,0.349c0.006,0.107,0.029,0.275,0.07,0.504
		c0.04,0.229,0.062,0.402,0.069,0.517c-0.048,0.227-0.065,0.454-0.054,0.685c0.014,0.28,0.091,0.656,0.23,1.128
		c0.025,0.007,0.051,0.009,0.075,0.008c0.057-0.003,0.126-0.045,0.205-0.122c0.078-0.078,0.145-0.118,0.204-0.122
		c0.041-0.001,0.086,0.008,0.137,0.03c0.147,0.48,0.225,0.79,0.232,0.93c0.003,0.066,0.002,0.136-0.002,0.21
		c-0.221,0.053-0.377-0.022-0.468-0.224c0.012-0.059-0.019-0.119-0.097-0.182l-0.246,0.26c0.242,0.037,0.336,0.223,0.287,0.556
		c-0.021,0.068-0.073,0.103-0.155,0.106c-0.141,0-0.206-0.001-0.198-0.001l-0.204-0.361l-0.082,0.103
		c-0.067-0.17-0.146-0.253-0.235-0.25c-0.05,0.003-0.136,0.045-0.262,0.124c-0.123,0.082-0.226,0.125-0.308,0.128
		c-0.065,0.003-0.132-0.013-0.201-0.052c-0.004-0.099-0.015-0.201-0.033-0.308c-0.018-0.106-0.073-0.174-0.164-0.203
		c-0.005-0.255,0.002-0.928,0.021-2.019c0.009-0.827,0-1.496-0.026-2.006c-0.011-0.213-0.025-0.424-0.043-0.63
		c-0.044-0.063-0.087-0.095-0.129-0.093c-0.033,0.002-0.083,0.039-0.149,0.107c-0.067,0.07-0.125,0.102-0.176,0.096
		c-0.004-0.082-0.041-0.215-0.112-0.396c-0.071-0.183-0.108-0.315-0.114-0.397c-0.007-0.14,0.045-0.263,0.156-0.368l0.289,0.073
		c0.115-0.163,0.163-0.438,0.144-0.825c-0.004-0.073-0.014-0.191-0.03-0.351c-0.015-0.161-0.026-0.278-0.03-0.352
		c-0.031-0.634,0.163-0.962,0.582-0.983c0.156-0.008,0.348,0.02,0.573,0.083l0.276,0.074c0.022,0.106,0.037,0.216,0.042,0.331
		c0.007,0.158,0.001,0.386-0.021,0.688c-0.023,0.303-0.03,0.524-0.024,0.664c0.012,0.223,0.051,0.423,0.117,0.601
		c0.066-0.002,0.169-0.038,0.311-0.108c0.141-0.069,0.244-0.105,0.31-0.108C55.673,59.147,55.767,59.202,55.839,59.313
		 M54.979,60.199l-0.014-0.285l-0.09-0.082L54.979,60.199z"></path>
	<path d="M59.234,58.424l0.013-0.001c-0.03,0.224-0.064,0.45-0.103,0.674c-0.044,0.258-0.117,0.459-0.216,0.605
		c-0.018-0.007-0.119-0.055-0.304-0.146c-0.128-0.068-0.241-0.094-0.339-0.082c-0.076,0.483-0.116,1.142-0.123,1.976
		c-0.006,1.066-0.014,1.71-0.026,1.934c-0.124-0.01-0.217,0.028-0.278,0.119c-0.062,0.091-0.12,0.182-0.172,0.275
		c-0.023,0.05-0.032,0.097-0.031,0.137c0.003,0.065,0.061,0.131,0.171,0.19c0.11,0.061,0.167,0.128,0.17,0.202
		c-0.048,0.176-0.152,0.268-0.309,0.275c-0.072,0.004-0.202-0.018-0.387-0.067c-0.183-0.049-0.312-0.071-0.387-0.066l-0.178-3.534
		c0.069-0.094,0.1-0.158,0.09-0.19l-0.102-0.07c0.008-0.148,0.017-0.888,0.023-2.218c0.004-0.9,0.038-1.629,0.101-2.185
		c-0.007,0.001,0.247-0.017,0.766-0.051c0.32-0.016,0.527,0.072,0.619,0.266c0.002,0.182-0.016,0.487-0.053,0.919
		c-0.037,0.397-0.051,0.704-0.041,0.918c0.015,0.263,0.056,0.5,0.124,0.712C58.541,58.641,58.864,58.442,59.234,58.424
		 M60.461,59.18c0.025,0.33,0.044,0.649,0.062,0.963c0.069,1.367,0.048,2.83-0.064,4.388c-0.119,0.105-0.302,0.129-0.548,0.071
		c-0.246-0.058-0.425-0.035-0.535,0.069c-0.142-0.183-0.225-0.513-0.248-0.99c-0.035-0.691-0.053-1.05-0.054-1.075
		c-0.03-1.733,0.14-3.132,0.506-4.2C60.007,58.517,60.301,58.775,60.461,59.18"></path>
	<path d="M64.793,60.974c-0.053,0.11-0.075,0.228-0.069,0.351c0.005,0.124,0.011,0.242,0.018,0.359
		c-0.012,0.098-0.04,0.199-0.083,0.3c-0.075-0.021-0.137-0.031-0.187-0.028c-0.059,0.003-0.118,0.025-0.177,0.066
		c-0.06,0.041-0.107,0.062-0.14,0.062c-0.049,0.002-0.116-0.016-0.2-0.053l-0.575-0.837c0.021,0.246,0.077,0.462,0.169,0.648
		c0.045,0.096,0.091,0.193,0.138,0.29c-0.337,0.058-0.525,0.067-0.569,0.028l-0.081,0.104l-0.199-0.262
		c-0.156,0.19-0.192,0.467-0.106,0.835c0.104,0.399,0.109,0.688,0.019,0.866c0.125,0.184,0.273,0.271,0.446,0.262
		c0.075-0.003,0.139-0.032,0.194-0.084c0.08-0.202,0.161-0.404,0.242-0.606c0.12-0.245,0.254-0.373,0.401-0.38
		c0.117-0.005,0.251,0.055,0.407,0.178c0.185,0.064,0.279,0.152,0.285,0.258c0.002,0.066-0.04,0.173-0.127,0.322
		c-0.086,0.149-0.127,0.264-0.124,0.348c0,0.032,0.007,0.061,0.017,0.085c-0.12,0.088-0.227,0.222-0.321,0.401
		c-0.095,0.178-0.218,0.3-0.372,0.365c-0.134,0.13-0.258,0.198-0.372,0.204c-0.092,0.006-0.227-0.065-0.408-0.209
		c-0.18-0.143-0.349-0.211-0.504-0.204c-0.065-0.146-0.226-0.306-0.482-0.484c-0.257-0.176-0.415-0.367-0.475-0.57
		c0.001,0.017-0.003-0.049-0.009-0.197c-0.004-0.082-0.04-0.133-0.107-0.156l0.093-0.092c-0.124-0.001-0.189-0.072-0.196-0.213
		c-0.002-0.016-0.002-0.049-0.004-0.099c0.004-0.043,0.008-0.075,0.007-0.099c-0.005-0.099-0.038-0.167-0.097-0.206l-0.022-0.433
		c-0.011-0.222-0.057-0.38-0.136-0.476c0.081-0.524,0.162-1.049,0.244-1.572c0.133-0.61,0.333-0.922,0.596-0.935
		c0.04-0.001,0.082,0.005,0.124,0.019c0.236-0.234,0.523-0.36,0.86-0.377c0.371-0.018,0.781,0.093,1.23,0.335
		C64.492,59.664,64.709,60.293,64.793,60.974 M63.091,59.61l-0.081,0.104c-0.057,0.011-0.124-0.018-0.203-0.089l0.015,0.284
		c-0.126,0.138-0.176,0.351-0.154,0.639c0.024,0.495,0.036,0.734,0.035,0.718l0.371-0.007c0.178-0.1,0.259-0.264,0.248-0.496
		c-0.005-0.115-0.046-0.305-0.121-0.569C63.125,59.929,63.09,59.735,63.091,59.61"></path>
	<polygon fill-rule="evenodd" clip-rule="evenodd" points="67.695,73.44 68.062,73.652 69.309,70.374 68.894,70.235 67.646,73.512 
		68.01,73.745 	"></polygon>
	<polygon fill-rule="evenodd" clip-rule="evenodd" points="68.239,72.985 68.089,73.044 67.695,73.44 68.01,73.745 68.411,73.328 
		68.253,73.407 	"></polygon>
	<polygon fill-rule="evenodd" clip-rule="evenodd" points="71.259,72.96 71.438,72.822 68.239,72.985 68.253,73.408 71.451,73.245 
		71.655,73.093 	"></polygon>
	<polygon fill-rule="evenodd" clip-rule="evenodd" points="72.704,69.947 72.486,69.676 71.259,72.96 71.655,73.093 72.901,69.813 
		72.685,69.544 	"></polygon>
	<polygon fill-rule="evenodd" clip-rule="evenodd" points="69.658,70.051 69.5,70.13 72.704,69.947 72.685,69.544 69.494,69.688 
		69.334,69.766 	"></polygon>
	<polygon fill-rule="evenodd" clip-rule="evenodd" points="69.309,70.374 69.263,70.446 69.658,70.051 69.334,69.766 68.939,70.163 
		68.894,70.234 	"></polygon>
	<polygon fill-rule="evenodd" clip-rule="evenodd" points="71.965,73.349 72.249,73.224 71.564,72.842 71.345,73.231 72.05,73.621 
		72.36,73.481 71.944,73.343 	"></polygon>
	<polygon fill-rule="evenodd" clip-rule="evenodd" points="73.304,70.323 73.191,70.065 71.944,73.343 72.36,73.481 73.607,70.204 
		73.495,69.947 	"></polygon>
	<polygon fill-rule="evenodd" clip-rule="evenodd" points="72.901,69.813 72.592,69.953 73.304,70.322 73.495,69.947 72.81,69.564 
		72.486,69.675 	"></polygon>
	<polygon points="69.111,70.308 69.091,70.301 69.487,69.905 72.456,69.76 72.486,69.675 72.704,69.748 72.901,69.813 
		72.888,69.851 73.409,70.138 73.607,70.204 73.526,70.417 74.978,73.872 73.75,77.156 72.163,73.415 71.958,73.501 71.944,73.343 
		71.961,73.303 71.46,73.027 71.345,73.231 71.283,73.034 68.239,73.185 67.844,73.579 	"></polygon>
	<polygon fill-rule="evenodd" clip-rule="evenodd" points="73.552,77.089 73.955,77.07 72.366,73.33 71.958,73.5 73.546,77.241 
		73.948,77.222 73.533,77.083 	"></polygon>
	<polygon fill-rule="evenodd" clip-rule="evenodd" points="74.793,73.964 74.779,73.805 73.533,77.083 73.948,77.222 75.196,73.944 
		75.182,73.787 	"></polygon>
	<polygon fill-rule="evenodd" clip-rule="evenodd" points="73.607,70.204 73.204,70.225 74.793,73.964 75.182,73.786 73.593,70.046 
		73.191,70.065 	"></polygon>
	<polygon fill-rule="evenodd" clip-rule="evenodd" fill="#FFFFFF" points="73.501,71.048 73.679,71.438 73.745,71.833 
		73.726,72.223 73.612,72.625 73.416,73.021 73.145,73.369 72.795,73.692 72.374,73.97 72.143,74.068 71.912,74.167 71.655,74.213 
		71.417,74.266 71.187,74.298 70.937,74.324 70.706,74.292 70.469,74.278 70.264,74.233 70.046,74.16 69.836,74.067 69.652,73.962 
		69.493,73.844 69.314,73.718 69.17,73.56 69.051,73.387 68.873,72.999 68.807,72.604 68.808,72.207 68.94,71.811 69.111,71.428 
		69.388,71.06 69.737,70.737 70.179,70.466 70.39,70.361 70.641,70.269 70.878,70.216 71.116,70.164 71.365,70.137 71.597,70.104 
		71.828,70.137 72.064,70.152 72.282,70.223 72.5,70.295 72.697,70.362 72.9,70.474 73.067,70.573 73.237,70.718 73.356,70.889 	"></polygon>
	<polygon fill-rule="evenodd" clip-rule="evenodd" points="73.659,71.695 73.838,72.084 73.896,72.5 73.877,72.889 73.771,73.271 
		73.593,73.673 73.296,74.036 72.972,74.346 72.532,74.615 72.294,74.735 72.064,74.833 71.827,74.886 71.569,74.933 71.338,74.965 
		71.116,74.979 70.877,74.965 70.625,74.926 70.421,74.878 70.205,74.806 70.014,74.72 69.809,74.608 69.645,74.51 69.492,74.37 
		69.341,74.232 69.209,74.035 69.025,73.665 68.959,73.269 68.985,72.859 69.09,72.478 69.269,72.076 69.54,71.726 69.889,71.403 
		70.329,71.132 70.567,71.014 70.792,70.935 71.036,70.862 71.293,70.816 71.517,70.803 71.748,70.771 71.979,70.803 72.216,70.816 
		72.441,70.869 72.657,70.942 72.849,71.028 73.061,71.121 73.218,71.24 73.396,71.364 73.514,71.537 73.653,71.714 	"></polygon>
	<polygon fill-rule="evenodd" clip-rule="evenodd" fill="#FFFFFF" points="73.771,72.149 73.956,72.519 74.015,72.935 
		73.995,73.324 73.89,73.706 73.692,74.101 73.415,74.47 73.092,74.78 72.65,75.052 72.433,75.176 72.183,75.269 71.944,75.321 
		71.688,75.367 71.458,75.399 71.233,75.413 70.995,75.399 70.745,75.361 70.541,75.314 70.323,75.242 70.132,75.155 69.928,75.044 
		69.762,74.944 69.591,74.798 69.467,74.648 69.328,74.469 69.144,74.1 69.077,73.704 69.097,73.316 69.209,72.913 69.387,72.51 
		69.665,72.141 70.026,71.844 70.449,71.568 70.686,71.45 70.917,71.35 71.154,71.297 71.412,71.252 71.642,71.219 71.866,71.205 
		72.123,71.226 72.335,71.252 72.559,71.305 72.776,71.376 72.988,71.47 73.173,71.575 73.336,71.674 73.515,71.801 73.633,71.972 	
		"></polygon>
	<polygon fill-rule="evenodd" clip-rule="evenodd" points="73.93,72.796 74.106,73.186 74.174,73.581 74.174,73.977 74.041,74.373 
		73.869,74.756 73.572,75.117 73.245,75.448 72.802,75.717 72.591,75.824 72.34,75.914 72.102,75.968 71.865,76.02 71.615,76.047 
		71.384,76.081 71.153,76.047 70.917,76.034 70.692,75.981 70.474,75.908 70.284,75.821 70.08,75.71 69.92,75.591 69.764,75.472 
		69.618,75.313 69.479,75.136 69.321,74.753 69.236,74.351 69.255,73.961 69.368,73.56 69.559,73.185 69.836,72.814 70.185,72.49 
		70.607,72.214 70.838,72.116 71.069,72.017 71.326,71.971 71.563,71.918 71.793,71.885 72.037,71.878 72.274,71.892 72.492,71.899 
		72.715,71.951 72.934,72.023 73.145,72.116 73.329,72.222 73.508,72.347 73.666,72.465 73.81,72.625 73.922,72.816 	"></polygon>
	<polygon fill-rule="evenodd" clip-rule="evenodd" fill="#FFFFFF" points="74.161,73.225 74.344,73.594 74.411,73.99 74.404,74.406 
		74.298,74.788 74.099,75.185 73.803,75.546 73.48,75.856 73.06,76.133 72.821,76.252 72.571,76.344 72.333,76.397 72.096,76.45 
		71.845,76.476 71.622,76.488 71.384,76.476 71.153,76.442 70.93,76.39 70.712,76.317 70.521,76.23 70.329,76.146 70.151,76.02 
		70,75.881 69.855,75.722 69.736,75.552 69.552,75.182 69.473,74.759 69.492,74.371 69.618,73.996 69.796,73.593 70.072,73.224 
		70.416,72.92 70.838,72.644 71.076,72.525 71.305,72.426 71.556,72.399 71.8,72.327 72.031,72.294 72.275,72.288 72.513,72.301 
		72.723,72.329 72.947,72.38 73.183,72.458 73.375,72.544 73.567,72.63 73.745,72.757 73.896,72.895 74.042,73.053 	"></polygon>
	<polygon fill-rule="evenodd" clip-rule="evenodd" points="74.339,73.878 74.495,74.26 74.582,74.664 74.562,75.052 74.451,75.454 
		74.258,75.83 73.981,76.198 73.632,76.522 73.21,76.8 72.979,76.899 72.729,76.99 72.492,77.043 72.254,77.096 72.023,77.128 
		71.773,77.155 71.543,77.123 71.305,77.108 71.101,77.063 70.863,76.983 70.672,76.897 70.488,76.791 70.31,76.666 70.152,76.548 
		70.007,76.39 69.888,76.217 69.709,75.828 69.625,75.427 69.645,75.037 69.776,74.641 69.948,74.258 70.225,73.89 70.574,73.567 
		71.016,73.296 71.227,73.19 71.477,73.099 71.715,73.046 71.952,72.993 72.203,72.968 72.433,72.935 72.664,72.968 72.881,72.975 
		73.125,73.033 73.342,73.105 73.534,73.192 73.719,73.297 73.896,73.421 74.054,73.542 74.199,73.699 	"></polygon>
	<polygon fill-rule="evenodd" clip-rule="evenodd" points="52.545,68.844 52.564,68.718 51.311,72.016 51.707,72.148 52.96,68.85 
		52.966,68.765 	"></polygon>
	<polygon fill-rule="evenodd" clip-rule="evenodd" points="52.513,68.679 52.518,68.659 52.545,68.844 52.966,68.765 52.921,68.573 
		52.928,68.554 	"></polygon>
	<polygon fill-rule="evenodd" clip-rule="evenodd" points="52.465,68.488 52.513,68.679 52.928,68.554 52.881,68.363 	"></polygon>
	
		<rect x="52.557" y="68.122" transform="matrix(-0.2883 -0.9575 0.9575 -0.2883 2.3911 138.4558)" fill-rule="evenodd" clip-rule="evenodd" width="0.179" height="0.434"></rect>
	<polygon fill-rule="evenodd" clip-rule="evenodd" points="52.367,68.125 52.367,68.125 52.414,68.316 52.829,68.191 52.782,68 
		52.776,68.02 	"></polygon>
	<polygon fill-rule="evenodd" clip-rule="evenodd" points="52.314,67.887 52.314,67.953 52.367,68.125 52.776,68.02 52.724,67.847 
		52.743,67.92 	"></polygon>
	<polygon fill-rule="evenodd" clip-rule="evenodd" points="52.736,67.809 52.321,67.735 52.314,67.887 52.743,67.92 52.75,67.77 
		52.334,67.696 52.729,67.828 	"></polygon>
	<polygon fill-rule="evenodd" clip-rule="evenodd" fill="#4C4849" points="53.096,77.406 53.057,77.194 52.615,77.267 
		52.648,77.497 	"></polygon>
	<polygon fill-rule="evenodd" clip-rule="evenodd" points="54.013,74.655 54.026,74.55 52.781,77.828 53.175,77.96 54.423,74.682 
		54.416,74.57 	"></polygon>
	<polygon fill-rule="evenodd" clip-rule="evenodd" points="53.98,74.425 54.013,74.655 54.416,74.57 54.383,74.338 53.96,74.417 	
		"></polygon>
	<polygon fill-rule="evenodd" clip-rule="evenodd" points="53.921,74.206 53.96,74.417 54.383,74.338 54.324,74.121 	"></polygon>
	<polygon fill-rule="evenodd" clip-rule="evenodd" points="53.868,73.969 53.881,73.996 53.921,74.206 54.324,74.121 54.291,73.889 
		54.305,73.917 	"></polygon>
	<polygon fill-rule="evenodd" clip-rule="evenodd" points="54.264,73.771 53.843,73.718 53.868,73.969 54.305,73.917 54.271,73.687 
		53.849,73.633 	"></polygon>
	<path fill="#4C4849" d="M51.314,71.362l-0.2,0.061L51.314,71.362z"></path>
	<polygon fill="#4C4849" points="51.521,72.05 51.528,72.029 51.631,72.037 51.707,72.148 51.522,72.086 	"></polygon>
	<polygon points="51.067,71.231 51.278,71.191 51.286,71.04 52.539,67.742 52.532,67.762 52.532,67.894 52.565,68.059 
		52.631,68.258 52.683,68.428 52.729,68.62 52.763,68.784 52.96,68.85 51.707,72.148 51.631,72.037 51.528,72.029 51.521,72.05 
		51.522,72.086 51.707,72.148 51.523,72.137 51.528,72.286 51.4,72.129 51.298,72.121 51.271,71.937 51.348,71.92 51.429,71.709 
		51.219,71.765 51.16,71.613 51.114,71.422 51.314,71.362 51.114,71.422 51.121,71.403 	"></polygon>
	<polygon points="51.515,71.865 60.692,71.563 60.93,71.578 60.97,71.591 61.194,71.644 61.215,71.65 61.451,71.729 61.682,71.828 
		61.701,71.835 61.919,71.974 61.958,71.987 62.129,72.132 62.182,72.171 62.307,72.323 62.321,72.35 62.405,72.488 62.412,72.534 
		62.008,72.656 61.944,72.554 61.938,72.574 61.833,72.428 61.833,72.428 61.694,72.317 61.728,72.35 61.504,72.231 61.504,72.229 
		61.272,72.132 61.074,72.067 60.85,72.013 60.89,72.026 60.678,72 60.68,71.98 51.528,72.286 	"></polygon>
	<polygon points="61.998,72.66 62.008,72.656 62.03,72.692 	"></polygon>
	<polygon fill-rule="evenodd" clip-rule="evenodd" points="66.901,80.364 66.901,80.233 65.647,83.53 66.062,83.669 67.316,80.372 
		67.316,80.241 	"></polygon>
	<polygon fill-rule="evenodd" clip-rule="evenodd" points="63.277,69.415 63.25,69.363 66.901,80.365 67.316,80.241 63.666,69.237 
		63.659,69.191 	"></polygon>
	<polygon fill-rule="evenodd" clip-rule="evenodd" points="63.205,69.303 63.192,69.276 63.277,69.415 63.659,69.19 63.574,69.052 
		63.554,69.045 63.185,69.297 	"></polygon>
	<polygon fill-rule="evenodd" clip-rule="evenodd" points="63.119,69.165 63.085,69.132 63.185,69.296 63.554,69.045 63.416,68.868 
		63.382,68.834 	"></polygon>
	<polygon fill-rule="evenodd" clip-rule="evenodd" points="62.974,69.072 62.94,69.039 63.119,69.165 63.382,68.834 63.205,68.709 
		63.172,68.677 	"></polygon>
	<polygon fill-rule="evenodd" clip-rule="evenodd" points="62.776,68.94 62.757,68.933 62.974,69.072 63.172,68.677 62.948,68.558 
		62.928,68.551 	"></polygon>
	<polygon fill-rule="evenodd" clip-rule="evenodd" points="62.565,68.848 62.519,68.854 62.776,68.94 62.928,68.551 62.696,68.453 
		62.677,68.445 62.539,68.86 	"></polygon>
	<polygon fill-rule="evenodd" clip-rule="evenodd" points="62.328,68.769 62.301,68.781 62.539,68.861 62.677,68.445 62.44,68.366 
		62.321,68.788 	"></polygon>
	<polygon fill-rule="evenodd" clip-rule="evenodd" points="62.144,68.728 62.104,68.716 62.321,68.788 62.44,68.366 62.196,68.307 
		62.176,68.3 	"></polygon>
	<polygon fill-rule="evenodd" clip-rule="evenodd" points="61.932,68.703 61.926,68.722 62.144,68.728 62.176,68.3 61.944,68.267 
		61.919,68.281 	"></polygon>
	<polygon fill-rule="evenodd" clip-rule="evenodd" points="52.98,68.857 52.756,69.001 61.932,68.702 61.919,68.28 52.763,68.587 
		52.564,68.718 52.96,68.85 	"></polygon>
	<polygon fill="#4C4849" points="55.285,78.883 55.253,78.867 55.273,78.857 	"></polygon>
	<path fill="#4C4849" d="M60.241,80.367l-0.038,0.444L60.241,80.367z"></path>
	<path d="M52.648,77.497l0.04,0.212l0.079,0.224l0.099,0.165l0.562,0.296l0.559,0.298l0.541,0.289l0.547,0.271l0.02,0.007
		l0.554,0.25l0.553,0.251l0.601,0.244l0.606,0.224l0.02,0.007l0.646,0.172l0.646,0.171l0.019,0.006l0.712,0.106l0.732,0.112
		l0.02,0.006L61,80.857l0.027-0.013l0.85,0.021l0.91-0.026l0.962-0.052l0.199-0.132l1.245-3.277l-0.211-0.291l0.012,0.422
		l-0.065-0.082l0.047-0.122l-0.138,0.007l-0.061-0.074l-0.029,0.081l-0.715,0.044h-0.923l-0.852-0.02l-0.777-0.041l-0.757-0.1
		l-0.706-0.125l-0.647-0.171l-0.646-0.172l-0.606-0.224l-0.587-0.219l-0.553-0.25l-0.548-0.272l-0.566-0.276l-0.54-0.29l-0.54-0.292
		l-0.376-0.198l0.013-0.032l-0.198-0.067l-0.052-0.237l-0.039-0.212l-0.016-0.072l0.146-0.323l-0.207-0.069l-0.01-0.004
		l-0.198-0.065l-1.246,3.277l-0.014,0.104l0.033,0.232L52.648,77.497z M52.8,76.978l0.008,0.042l-0.02-0.011L52.8,76.978z"></path>
	<polygon fill-rule="evenodd" clip-rule="evenodd" points="64.034,77.561 64.995,77.509 64.983,77.086 64.021,77.139 	"></polygon>
	
		<rect x="63.117" y="77.151" transform="matrix(-0.9996 0.0279 -0.0279 -0.9996 129.2783 152.9207)" fill-rule="evenodd" clip-rule="evenodd" width="0.91" height="0.423"></rect>
	<polygon fill-rule="evenodd" clip-rule="evenodd" points="62.253,77.56 62.273,77.566 63.124,77.586 63.111,77.166 62.261,77.145 
		62.287,77.131 62.247,77.58 	"></polygon>
	<polygon fill-rule="evenodd" clip-rule="evenodd" points="61.436,77.508 61.457,77.515 62.247,77.58 62.287,77.132 61.489,77.085 
		61.508,77.092 	"></polygon>
	<polygon fill-rule="evenodd" clip-rule="evenodd" points="60.697,77.414 61.436,77.508 61.508,77.092 60.777,76.979 	"></polygon>
	<polygon fill-rule="evenodd" clip-rule="evenodd" points="59.973,77.282 59.992,77.289 60.697,77.415 60.777,76.979 60.046,76.867 
		60.065,76.874 	"></polygon>
	<polygon fill-rule="evenodd" clip-rule="evenodd" points="59.327,77.11 59.973,77.283 60.065,76.874 59.419,76.702 59.32,77.131 	
		"></polygon>
	<polygon fill-rule="evenodd" clip-rule="evenodd" points="58.655,76.952 58.674,76.958 59.32,77.13 59.419,76.702 58.773,76.53 
		58.793,76.536 	"></polygon>
	<polygon fill-rule="evenodd" clip-rule="evenodd" points="58.047,76.728 58.047,76.728 58.655,76.951 58.793,76.536 58.187,76.312 
		58.207,76.318 58.028,76.721 	"></polygon>
	<polygon fill-rule="evenodd" clip-rule="evenodd" points="57.448,76.483 58.028,76.722 58.207,76.318 57.626,76.08 	"></polygon>
	<polygon fill-rule="evenodd" clip-rule="evenodd" points="56.894,76.231 57.448,76.482 57.626,76.081 57.065,75.85 	"></polygon>
	<polygon fill-rule="evenodd" clip-rule="evenodd" points="56.327,75.955 56.339,75.982 56.894,76.232 57.065,75.849 56.499,75.573 
		56.519,75.579 56.321,75.976 	"></polygon>
	<polygon fill-rule="evenodd" clip-rule="evenodd" points="55.779,75.685 56.321,75.976 56.519,75.579 55.972,75.308 55.774,75.704 
			"></polygon>
	<polygon fill-rule="evenodd" clip-rule="evenodd" points="55.239,75.395 55.774,75.704 55.972,75.308 55.431,75.019 55.219,75.388 
			"></polygon>
	<polygon fill-rule="evenodd" clip-rule="evenodd" points="54.679,75.097 55.219,75.388 55.431,75.019 54.89,74.728 	"></polygon>
	<polygon fill-rule="evenodd" clip-rule="evenodd" points="54.423,74.682 54.119,74.8 54.679,75.097 54.89,74.728 54.33,74.431 
		54.027,74.55 	"></polygon>
	<polygon fill-rule="evenodd" clip-rule="evenodd" points="111.566,68.741 110.312,72.039 114.405,73.405 115.357,71.215 
		115.384,71.005 115.39,70.786 115.357,70.556 115.277,70.332 115.146,70.133 115.039,69.922 114.869,69.711 114.69,69.52 
		114.506,69.348 114.302,69.17 114.091,69.011 113.887,68.899 113.688,68.768 113.458,68.668 113.254,68.557 113.056,68.49 
		112.88,68.432 112.666,68.404 112.476,68.385 112.29,68.412 112.106,68.437 111.909,68.503 111.737,68.622 	"></polygon>
	<polygon fill-rule="evenodd" clip-rule="evenodd" points="114.222,73.3 114.479,73.188 110.386,71.82 110.247,72.236 
		114.341,73.603 114.617,73.498 	"></polygon>
	<polygon points="51.067,71.033 51.086,70.974 52.334,67.696 52.729,67.828 51.521,71.066 51.496,71.199 51.49,71.151 
		51.067,71.231 51.061,71.185 	"></polygon>
	<polygon fill="#4C4849" points="71.14,78.791 71.066,78.835 71.061,78.83 	"></polygon>
	<path d="M51.219,71.765l0.046,0.192l0.005-0.019l0.319-0.069l-0.081,0.212l9.176-0.299l0.218,0.007l0.238,0.079l0.237,0.079
		l0.238,0.08l0.216,0.138l0.178,0.125l0.126,0.151l0.076,0.154l-0.214,0.065l3.649,11.002l0.213,0.003l0.005,0.135h0.329
		l0.311-0.007l0.284,0.007l0.257-0.045l0.263-0.066l0.265-0.131l0.243-0.205l0.289-0.277l0.008-0.019l0.165-0.23l0.19-0.245
		l0.218-0.257l0.152-0.257l0.19-0.309l0.198-0.264l0.165-0.296l0.212-0.303l0.17-0.25l0.244-0.271l0.198-0.264l0.232-0.231
		l0.203-0.217l0.217-0.192l0.212-0.171l0.243-0.138l0.053-0.026l-0.156-0.15l0.156,0.15l0.244-0.271l0.224-0.21l0.198-0.198
		l0.211-0.17l0.204-0.152l0.217-0.125l0.192-0.111l0.21-0.105l0.238-0.053l0.23-0.099l0.237-0.053l0.276-0.04l0.304-0.053
		l0.334-0.019l0.364-0.033l0.355-0.013l0.021,0.006l39.6-2.96l0.232-0.032l0.209-0.041l0.191-0.045l0.198-0.066l0.186-0.091
		l0.19-0.113l0.159-0.146l0.185-0.158l0.04-0.053l0.69-1.615l-0.359-0.231l0.159,0.154l-0.026,0.021l-0.174-0.123l-0.174,0.405
		l-0.116,0.069l-0.152,0.059l-0.178,0.074l-0.165,0.032l-0.211,0.04l-0.21,0.039l-39.621,2.953l-0.251,0.027l-0.244,0.007
		l-0.244,0.006l-0.257,0.045h-0.265l-0.23,0.033l-0.25,0.027l-0.23,0.032l-0.257,0.046l-0.23,0.033l-0.237,0.052l-0.263,0.066
		l-0.238,0.053l-0.251,0.092l-0.25,0.093l-0.238,0.119l-0.468,0.284l-0.475,0.433l-0.5,0.516l-0.483,0.586l-0.468,0.613
		l-0.402,0.548l-0.396,0.527l-0.33,0.396l-0.192,0.045l-0.165,0.034l-0.204,0.019h-0.198h-0.197l-0.172-0.012l-0.217-0.008
		l-0.192-0.02l-3.636-10.977l-0.08-0.158l-0.124-0.151l-0.178-0.126l-0.239-0.146l-0.23-0.099l-0.237-0.079L62.15,68.51
		l-0.218-0.006l-9.169,0.28l-1.103,2.901l-0.006-0.038L51.219,71.765z M117.11,72.071l0.013-0.029l0.151,0.144L117.11,72.071z"></path>
	<polygon fill-rule="evenodd" clip-rule="evenodd" points="115.725,72.878 115.962,72.826 116.173,72.786 116.364,72.74 
		116.562,72.673 116.747,72.582 116.939,72.468 117.09,72.345 117.274,72.186 116.96,71.882 116.819,72.034 116.675,72.14 
		116.535,72.225 116.384,72.285 116.238,72.325 116.068,72.377 115.884,72.403 115.679,72.424 	"></polygon>
	<polygon fill-rule="evenodd" clip-rule="evenodd" points="76.13,75.818 115.725,72.878 115.679,72.423 76.079,75.383 	"></polygon>
	<polygon fill-rule="evenodd" clip-rule="evenodd" points="72.248,76.521 72.479,76.423 72.703,76.344 72.972,76.258 73.197,76.179 
		73.44,76.106 73.671,76.074 73.902,76.042 74.159,75.995 74.371,75.955 74.615,75.949 74.865,75.922 75.116,75.897 75.366,75.87 
		75.59,75.858 75.86,75.837 76.13,75.818 76.079,75.383 75.828,75.409 75.577,75.435 75.313,75.435 75.063,75.46 74.819,75.469 
		74.582,75.521 74.338,75.527 74.066,75.547 73.83,75.6 73.592,75.652 73.336,75.698 73.071,75.764 72.848,75.842 72.579,75.93 
		72.308,76.014 72.071,76.133 	"></polygon>
	<polygon fill-rule="evenodd" clip-rule="evenodd" points="68.7,80.438 68.786,80.379 68.964,80.176 69.123,79.964 69.313,79.72 
		69.511,79.456 69.736,79.18 69.94,78.895 70.171,78.599 70.401,78.302 70.639,77.985 70.883,77.716 71.12,77.464 71.364,77.194 
		71.569,76.977 71.827,76.798 72.036,76.627 72.248,76.521 72.071,76.133 71.8,76.285 71.569,76.449 71.298,76.666 71.042,76.91 
		70.804,77.162 70.567,77.411 70.303,77.741 70.072,78.038 69.841,78.334 69.61,78.631 69.406,78.915 69.181,79.191 68.983,79.456 
		68.792,79.7 68.635,79.911 68.489,80.082 68.568,80.042 	"></polygon>
	<polygon fill-rule="evenodd" clip-rule="evenodd" fill="#FFFFFF" points="61.114,68.518 61.932,68.505 61.999,68.505 
		54.978,66.161 54.622,66.372 61.108,68.538 	"></polygon>
	<polygon fill-rule="evenodd" clip-rule="evenodd" fill="#FFFFFF" points="61.114,68.518 52.763,68.784 52.729,68.62 52.683,68.428 
		52.631,68.258 52.566,68.059 52.532,67.894 52.532,67.762 52.584,67.604 52.729,67.498 53.072,67.262 53.455,67.037 53.837,66.813 
		54.22,66.589 54.583,66.358 54.622,66.372 61.108,68.538 	"></polygon>
	<polygon fill="#FFFFFF" points="56.038,73.594 61.727,73.273 63.955,74.171 64.739,76.5 64.977,77.305 64.034,77.363 
		63.111,77.363 62.259,77.343 61.482,77.303 60.725,77.203 60.02,77.078 59.373,76.907 58.727,76.735 58.121,76.511 57.533,76.292 
		56.98,76.042 56.432,75.77 55.866,75.493 55.326,75.204 54.786,74.912 54.225,74.615 54.172,74.378 54.133,74.167 54.08,73.93 
		54.047,73.698 	"></polygon>
	<polygon fill-rule="evenodd" clip-rule="evenodd" fill="#FFFFFF" points="70.37,74.245 70.449,74.338 71.181,74.78 71.417,74.398 
		70.685,73.956 70.757,74.068 70.37,74.245 70.396,74.298 70.449,74.338 	"></polygon>
	<polygon fill-rule="evenodd" clip-rule="evenodd" fill="#FFFFFF" points="63.862,74.382 63.737,74.23 64.778,77.37 65.194,77.245 
		64.154,74.104 64.041,73.979 64.154,74.104 64.12,74.006 64.041,73.979 	"></polygon>
	<polygon fill-rule="evenodd" clip-rule="evenodd" fill="#FFFFFF" points="61.748,73.478 61.642,73.465 63.862,74.382 
		64.041,73.979 61.82,73.062 61.733,73.056 61.82,73.062 61.78,73.049 61.733,73.056 	"></polygon>
	<polygon fill-rule="evenodd" clip-rule="evenodd" fill="#FFFFFF" points="54.271,73.687 54.06,73.923 61.748,73.478 61.733,73.056 
		54.047,73.501 53.842,73.718 54.047,73.501 53.803,73.507 53.842,73.718 	"></polygon>
	<polygon fill-rule="evenodd" clip-rule="evenodd" fill="#FFFFFF" points="54.33,74.431 54.416,74.57 54.409,74.458 54.383,74.338 
		54.376,74.227 54.344,74.127 54.337,74.016 54.31,73.896 54.277,73.797 54.271,73.687 53.843,73.718 53.842,73.85 53.862,73.989 
		53.895,74.088 53.9,74.2 53.935,74.298 53.96,74.418 54.008,74.543 54.013,74.655 54.119,74.8 54.013,74.655 54.047,74.754 
		54.119,74.8 	"></polygon>
	<polygon fill-rule="evenodd" clip-rule="evenodd" fill="#FFFFFF" points="64.786,77.351 64.962,77.08 64.021,77.139 63.111,77.166 
		62.287,77.132 61.488,77.085 60.776,76.979 60.064,76.874 59.419,76.701 58.793,76.536 58.187,76.312 57.626,76.081 57.065,75.85 
		56.519,75.58 55.972,75.308 55.431,75.019 54.89,74.728 54.33,74.431 54.119,74.8 54.679,75.097 55.219,75.388 55.774,75.704 
		56.321,75.976 56.894,76.232 57.448,76.483 58.047,76.728 58.655,76.953 59.32,77.131 59.973,77.282 60.697,77.414 61.457,77.515 
		62.247,77.58 63.124,77.586 64.034,77.561 65.015,77.516 65.194,77.245 65.015,77.516 65.287,77.495 65.194,77.245 64.778,77.37 	
		"></polygon>
	<polygon fill-rule="evenodd" clip-rule="evenodd" fill="#FFFFFF" points="76.079,75.383 75.789,75.395 75.464,75.442 
		75.175,75.455 74.858,75.481 74.555,75.534 74.232,75.579 73.91,75.626 73.599,75.698 73.288,75.77 73.02,75.857 72.723,75.955 
		72.446,76.06 72.208,76.179 71.924,76.304 71.694,76.47 71.483,76.641 71.747,76.971 71.951,76.819 72.148,76.687 72.366,76.562 
		72.616,76.47 72.861,76.331 73.124,76.265 73.434,76.193 73.706,76.106 74.001,76.074 74.266,76.009 74.582,75.982 74.885,75.93 
		75.208,75.883 75.524,75.857 75.821,75.825 76.13,75.818 	"></polygon>
	<polygon fill-rule="evenodd" clip-rule="evenodd" fill="#FFFFFF" points="115.679,72.423 76.079,75.382 76.13,75.818 
		115.725,72.878 	"></polygon>
	<polygon fill-rule="evenodd" clip-rule="evenodd" fill="#FFFFFF" points="116.418,70.008 116.583,70.24 116.754,70.451 
		116.833,70.675 116.959,70.894 117.024,71.091 117.044,71.295 117.051,71.473 117.037,71.644 116.991,71.784 116.925,71.915 
		116.84,72.041 116.688,72.167 116.528,72.246 116.278,72.337 116.016,72.403 115.679,72.423 115.725,72.878 116.089,72.845 
		116.404,72.752 116.681,72.647 116.925,72.509 117.149,72.364 117.307,72.153 117.393,71.961 117.472,71.725 117.465,71.479 
		117.479,71.244 117.427,71.005 117.34,70.735 117.24,70.503 117.108,70.24 116.938,69.963 116.768,69.751 	"></polygon>
	<polygon fill-rule="evenodd" clip-rule="evenodd" fill="#FFFFFF" points="111.698,67.752 112.055,67.74 112.417,67.772 
		112.786,67.851 113.143,67.904 113.479,68.016 113.813,68.129 114.137,68.28 114.439,68.426 114.757,68.597 115.047,68.783 
		115.357,68.973 115.582,69.158 115.816,69.369 116.049,69.6 116.24,69.818 116.418,70.008 116.768,69.751 116.562,69.507 
		116.332,69.277 116.102,69.045 115.845,68.828 115.562,68.624 115.278,68.419 114.989,68.233 114.658,68.036 114.316,67.878 
		113.967,67.74 113.609,67.62 113.234,67.495 112.866,67.416 112.489,67.355 112.06,67.323 111.685,67.329 	"></polygon>
	<polygon fill-rule="evenodd" clip-rule="evenodd" fill="#FFFFFF" points="76.659,68.958 111.698,67.752 111.685,67.329 
		76.666,68.543 	"></polygon>
	<polygon fill-rule="evenodd" clip-rule="evenodd" fill="#FFFFFF" points="71.127,68.079 71.459,68.212 71.808,68.285 
		72.144,68.396 72.493,68.469 72.861,68.548 73.205,68.641 73.581,68.7 73.917,68.746 74.267,68.82 74.629,68.853 74.985,68.904 
		75.335,68.912 75.671,68.958 76.027,68.945 76.35,68.964 76.659,68.959 76.666,68.543 76.336,68.543 76.014,68.523 75.71,68.51 
		75.367,68.483 75.025,68.457 74.682,68.429 74.347,68.383 73.99,68.331 73.641,68.258 73.305,68.212 72.962,68.119 72.605,68.066 
		72.263,67.974 71.9,67.875 71.597,67.796 71.26,67.684 71.123,68.1 	"></polygon>
	<polygon fill-rule="evenodd" clip-rule="evenodd" fill="#FFFFFF" points="59.309,64.837 59.91,64.75 60.475,64.698 61.017,64.659 
		61.512,64.626 61.979,64.606 62.402,64.659 62.837,64.673 63.199,64.706 63.575,64.766 63.925,64.838 64.253,64.904 64.551,65.003 
		64.867,65.109 65.117,65.215 65.427,65.34 65.671,65.465 65.955,65.604 66.239,65.743 66.515,65.901 66.792,66.059 67.068,66.219 
		67.358,66.403 67.643,66.542 67.952,66.732 68.295,66.891 68.624,67.089 68.993,67.233 69.349,67.418 69.751,67.597 70.186,67.743 
		70.648,67.939 71.123,68.1 71.26,67.684 70.787,67.524 70.318,67.346 69.929,67.195 69.521,67.036 69.145,66.845 68.822,66.693 
		68.492,66.494 68.169,66.344 67.852,66.172 67.556,66.007 67.279,65.849 66.99,65.663 66.712,65.505 66.429,65.368 66.145,65.228 
		65.888,65.076 65.605,64.938 65.295,64.812 65.004,64.693 64.688,64.588 64.352,64.475 64.003,64.403 63.647,64.35 63.258,64.264 
		62.856,64.218 62.441,64.211 61.959,64.204 61.498,64.204 60.964,64.224 60.423,64.263 59.85,64.335 59.257,64.401 59.29,64.829 	
		"></polygon>
	<polygon fill-rule="evenodd" clip-rule="evenodd" fill="#FFFFFF" points="52.841,67.689 53.185,67.452 53.567,67.229 
		53.949,67.004 54.338,66.761 54.694,66.55 55.096,66.333 55.473,66.127 55.861,65.95 56.277,65.758 56.692,65.568 57.101,65.396 
		57.522,65.25 57.978,65.139 58.392,65.014 58.848,64.902 59.29,64.829 59.257,64.402 58.762,64.5 58.294,64.585 57.833,64.717 
		57.397,64.835 56.962,65.021 56.514,65.178 56.105,65.349 55.688,65.541 55.268,65.751 54.866,65.969 54.49,66.173 54.108,66.397 
		53.724,66.621 53.342,66.845 52.98,67.077 52.618,67.307 52.822,67.684 	"></polygon>
	<polygon fill-rule="evenodd" clip-rule="evenodd" fill="#FFFFFF" points="52.763,68.587 52.986,68.771 52.921,68.574 
		52.881,68.363 52.829,68.191 52.782,67.999 52.756,67.881 52.736,67.809 52.769,67.709 52.822,67.683 52.618,67.307 52.426,67.485 
		52.327,67.717 52.301,67.927 52.367,68.125 52.414,68.316 52.465,68.488 52.518,68.659 52.551,68.824 52.756,69.001 52.551,68.824 
		52.557,69.001 52.756,69.001 	"></polygon>
	<polygon fill="#FFFFFF" points="68.947,70.144 68.941,70.164 68.939,70.163 	"></polygon>
	<polygon fill="#FFFFFF" points="68.847,70.241 68.939,70.163 68.887,70.387 	"></polygon>
	<polygon fill="#FFFFFF" points="74.747,72.761 81.971,75.174 81.187,75.22 81.181,75.238 74.91,73.146 	"></polygon>
	<path fill="#FFFFFF" d="M52.756,69.001l9.176-0.299l0.192,0.02l0.177,0.059l0.238,0.079l0.218,0.074l0.197,0.132l0.146,0.092
		l0.085,0.138l0.066,0.067l3.65,11.002l0.053,0.171l0.177-0.006l0.186-0.027l0.21,0.027l0.258,0.02l0.244-0.006l0.237,0.013
		l0.218-0.06l0.244-0.072l0.197-0.131l0.237-0.251l0.198-0.264l0.184-0.223l0.185-0.224l0.159-0.212l0.152-0.19l0.132-0.199
		l0.157-0.211l0.132-0.197l0.152-0.191l0.151-0.192l0.165-0.165l0.172-0.184l0.197-0.198l0.198-0.199l0.251-0.223l-0.134-0.168
		l0.199-0.163l0.224-0.145l0.258-0.112l0.238-0.118l0.256-0.112l0.29-0.08l0.298-0.098l0.29-0.08l0.277-0.04l0.302-0.052
		l0.323-0.047l0.304-0.052l0.317-0.026l0.316-0.025l0.297-0.034l0.29-0.014l5.089-0.368l-6.271-2.093l-0.163-0.384l7.225,2.412
		l33.742-2.521l0.626-0.099l0.467-0.217l0.323-0.31l0.119-0.356l0.001-0.396l0.006-0.021l-0.112-0.456l-0.224-0.447l-0.324-0.482
		l-0.19-0.217l-0.21-0.225l-0.231-0.231l-0.243-0.191l-0.258-0.217l-0.29-0.186l-0.31-0.191l-0.31-0.191l-0.33-0.132l-0.323-0.152
		l-0.356-0.118l-0.374-0.125l-0.355-0.053l-0.371-0.08l-0.383-0.039l-0.375,0.005l-5.096,0.19l-29.923,1.024h-0.33l-0.31,0.007
		l-0.35-0.008l-0.335-0.046l-0.343-0.026l-0.343-0.026l-0.336-0.046l-0.356-0.053l-0.355-0.053l-0.35-0.072l-0.35-0.074
		l-0.348-0.071l-0.363-0.1l-0.342-0.093l-0.323-0.085l-0.337-0.111l-0.474-0.16l-0.467-0.177l-0.41-0.159l-0.408-0.157l-0.356-0.186
		l-0.343-0.158L68.38,66.7l-0.323-0.153l-0.309-0.19l-0.277-0.16l-0.296-0.165l-0.277-0.158l-0.296-0.165l-0.277-0.16l-0.264-0.131
		l-0.277-0.158L65.5,65.122l-0.29-0.12l-0.277-0.091l-0.316-0.106l-0.336-0.113l-0.321-0.086l-0.356-0.053l-0.376-0.059l-0.382-0.04
		l-0.43-0.032l-0.455-0.021l-0.468,0.02l-0.488,0.013l-0.546,0.06l-0.567,0.053l-0.619,0.079l-0.462,0.066l-0.454,0.111
		l-0.456,0.112l-0.423,0.145l-0.447,0.158L56.6,65.383l-0.409,0.171l-0.416,0.19l-0.394,0.199l-0.403,0.217l6.402,2.137
		l-8.617,0.289L52.756,69.001z M111.441,69.183l0.039-0.25l0.086-0.192l0.157-0.145l0.238-0.119l0.276-0.041l0.151,0.008
		l0.172,0.013l0.165,0.033l0.164,0.034l0.198,0.065l0.179,0.06l0.191,0.085l0.203,0.112l0.172,0.08l0.179,0.125l0.157,0.118
		l0.172,0.146l0.177,0.125l0.126,0.152l0.151,0.139l0.126,0.151l0.23,0.298l0.118,0.303l0.059,0.152l0.033,0.099l-0.018,0.257
		l-0.049,0.204l-0.145,0.172l-0.211,0.105l-0.283,0.059l-0.157,0.015l-0.166-0.034l-0.189-0.019l-0.205-0.046l-0.18-0.06
		l-0.196-0.067l-0.211-0.091l-0.185-0.106l-0.192-0.086l-0.204-0.112l-0.179-0.125l-0.17-0.146l-0.158-0.119l-0.164-0.165
		l-0.146-0.159l-0.125-0.152l-0.204-0.309l-0.118-0.303l-0.033-0.099L111.441,69.183z M74.966,73.845L74.966,73.845l-0.141-0.111
		L74.966,73.845z M69.35,70.359l0.233-0.233l3.008-0.172l0.639,0.332l1.51,3.557l-0.234,0.299l-3.233,0.231l0.145,0.026l-0.11,0.176
		l-0.016,0.002l-0.718-0.415l-0.002-0.008l0.186-0.084L69.35,70.359z"></path>
	<polygon fill-rule="evenodd" clip-rule="evenodd" points="109.404,71.47 109.22,71.366 109.185,71.2 109.45,71.134 109.502,71.306 
		109.344,71.187 	"></polygon>
	<polygon fill-rule="evenodd" clip-rule="evenodd" points="109.761,71.26 109.72,71.312 109.654,71.378 109.574,71.417 
		109.496,71.457 109.404,71.47 109.344,71.187 109.384,71.2 109.442,71.153 109.516,71.134 109.521,71.114 109.509,71.153 
		109.752,71.28 	"></polygon>
	<polygon fill-rule="evenodd" clip-rule="evenodd" points="109.016,69.603 109.034,69.61 109.161,69.763 109.324,69.926 
		109.482,70.111 109.634,70.316 109.759,70.533 109.832,70.778 109.832,71.042 109.752,71.28 109.509,71.153 109.562,70.995 
		109.55,70.838 109.502,70.646 109.384,70.475 109.253,70.277 109.108,70.119 108.942,69.954 108.816,69.802 108.837,69.809 	"></polygon>
	<polygon fill-rule="evenodd" clip-rule="evenodd" points="106.589,68.904 106.569,68.897 106.918,68.904 107.248,68.904 
		107.559,68.963 107.854,68.996 108.158,69.076 108.441,69.214 108.737,69.38 109.016,69.603 108.837,69.809 108.566,69.63 
		108.309,69.479 108.065,69.354 107.802,69.286 107.512,69.233 107.216,69.201 106.912,69.188 106.602,69.194 106.608,69.173 
		106.562,68.917 	"></polygon>
	<polygon fill-rule="evenodd" clip-rule="evenodd" points="80.865,70.253 80.977,70.181 106.562,68.917 106.608,69.173 
		81.016,70.457 81.129,70.385 	"></polygon>
	<polygon fill-rule="evenodd" clip-rule="evenodd" points="80.257,71.15 79.981,71.057 80.001,70.866 80.054,70.708 80.133,70.537 
		80.238,70.417 80.377,70.332 80.555,70.26 80.753,70.193 80.977,70.181 81.016,70.457 80.806,70.497 80.615,70.542 80.521,70.556 
		80.43,70.635 80.384,70.708 80.312,70.794 80.272,70.913 80.278,71.09 80.001,70.998 	"></polygon>
	<polygon points="109.239,71.042 109.166,70.93 109.073,70.811 109.001,70.699 108.903,70.6 108.81,70.48 108.711,70.382 
		108.619,70.263 108.354,70.065 108.085,69.887 107.815,69.774 107.531,69.702 107.235,69.669 106.926,69.61 106.621,69.596 
		106.292,69.596 80.701,70.88 80.911,70.482 80.991,70.469 81.016,70.457 106.608,69.174 107.037,69.207 107.394,69.194 
		107.73,69.24 108.039,69.3 108.323,69.438 108.58,69.589 108.816,69.802 109.088,70.111 109.325,70.39 109.497,70.666 
		109.582,70.871 109.582,71.002 109.521,71.114 109.356,71.213 109.335,71.219 109.325,71.18 	"></polygon>
	<path d="M79.981,71.057l0.028,0.25l0.052,0.172l0.072,0.244L80.304,72l0.211,0.225l0.27,0.245l0.323,0.218l0.362,0.166l0.381,0.104
		l0.462,0.001l26.291-1.334l0.501-0.053l0.355-0.079l0.258-0.179l0.145-0.237l-0.006-0.243l-0.1-0.298l-0.191-0.283l-0.262-0.33
		l-0.271-0.31l-0.292-0.25l-0.308-0.19l-0.304-0.146l-0.329-0.066l-0.396-0.066h-0.395l-0.449,0.026l-25.585,1.264l0.001,0.007
		L80.707,70.2l-0.276,0.104l-0.184,0.159l-0.126,0.178l-0.086,0.19L79.981,71.057z M80.278,71.09l0.034-0.165l0.012-0.028
		l0.021-0.004h0.132l0.225-0.014l0.213-0.399l0.077-0.011l0.025-0.013l25.592-1.282l0.429,0.033l0.356-0.013l0.337,0.046l0.309,0.06
		l0.284,0.139l0.257,0.151l0.236,0.213l0.271,0.309l0.237,0.278l0.172,0.276l0.086,0.205v0.131l-0.061,0.112l-0.165,0.1
		l-0.021,0.006l-0.287,0.065l-0.436,0.053l-26.298,1.355l-0.021-0.007l-0.368-0.013l-0.363-0.1l-0.323-0.151l-0.277-0.159
		l-0.23-0.231l-0.164-0.23l-0.146-0.224l-0.112-0.191L80.29,71.25L80.278,71.09z"></path>
	
	
</g>
</svg>