<?xml version="1.0" encoding="UTF-8" standalone="no"?>
<svg
     version="1.1"
     x="0px"
     y="0px"
     width="3000"
     height="2475"
     viewBox="0 0 3000 2475"
     enable-background="new 0 0 720 594"
     xml:space="preserve"
     id="svg222"
     sodipodi:docname="TarotTuckBox90.svg"
     inkscape:version="1.4 (e7c3feb1, 2024-10-09)"
     xmlns:inkscape="http://www.inkscape.org/namespaces/inkscape"
     xmlns:sodipodi="http://sodipodi.sourceforge.net/DTD/sodipodi-0.dtd"
     xmlns="http://www.w3.org/2000/svg"
     xmlns:svg="http://www.w3.org/2000/svg"><defs
         id="defs222">





	

	

	
	
	
	
	
	
	
	

	
	
	
	
	
	
	
	
	
	
	
	
	
	
	
	
	
	
	
	
	
	
	
	
	
	

		
	
		
	
		
	
		
	
		
	
		
	
		
	
		
	
		
	
		
	
		
	
		
		
		
		
		
		
	
		
		
	
			
		
			
		
			
		
			
		
			
		
			
			
			
			
			
			
			
		
			
			
			
		
			
			
			
			
			
			
			
			
			
			
			
			
			
			
			
			
			
			
			
			
			
			
			
			
			
			
			
			
			
			
			
			
			
			
			
			
			
			
			
			
			
			
			
			
			
			
			
			
			
			
			
			
			
			
			
			
			
			
			
			
			
			
			
			
			
			
			
			
			
			
			
			
			
			
			
			
			
			
			
			
			
			
			
			
			
			
			
			
			
			
			
			
			
			
			
			
			
			
		
			
			
			
			
		
			
		
			
			
			
			
			
			
			
			
			
			
			
			
			
		
			
		
				
				
				
			
				
				
				
			
				
				
			
				
				
					
				
				
					
				
				
					
				
				
					
			
				
				
					
				
				
					
				
				
					
				
				
					
			
				
				
					
				
				
					
				
				
					
				
				
					
			
				
				
				
				
					
				
				
					
				
				
					
				
				
					
				
				
					
			
				
				
				
			
				
				
			
				
				
				
				
			
				
				
					
				
				
					
				
				
					
				
				
					
			
				
				
				
			
				
				
					
				
				
					
				
				
					
				
				
					
			
					
					
				
					
					
					
					
					
				
					
					
				
					
					
				
						
						
						
					
						
						
						
						
					
						
						
					
						
						
					
							
							
						
							
							
							
							
						
							
							
							
						
								
								
								
							
								
								
								
								
							
								
								
								
								
								
								
								
							
									
									
									
									
									
								
									
									
								</defs><sodipodi:namedview
         id="namedview222"
         pagecolor="#505050"
         bordercolor="#eeeeee"
         borderopacity="1"
         inkscape:showpageshadow="0"
         inkscape:pageopacity="0"
         inkscape:pagecheckerboard="0"
         inkscape:deskcolor="#d1d1d1"
         inkscape:zoom="0.12633641"
         inkscape:cx="926.09881"
         inkscape:cy="2247.9663"
         inkscape:window-width="1872"
         inkscape:window-height="1027"
         inkscape:window-x="62"
         inkscape:window-y="25"
         inkscape:window-maximized="1"
         inkscape:current-layer="svg222" /><polygon
         fill="#929497"
         points="0,594 720,594 720,0 0,0 "
         id="polygon1"
         transform="matrix(4.1666667,0,0,4.1666667,-5.2451306e-6,-4.7480902e-6)"
         style="fill:#0e0e0e;fill-opacity:1" /><path
         fill="#ffffff"
         d="m 1312.5,2254.1667 v 180 H 479.16667 v -180 H 74.166662 v -225 -1433.33337 c 0,-124.25 100.749998,-225 224.999998,-225 h 180.00001 v -180 c 0,-82.83333 67.16666,-150.000001 150,-150.000001 H 1162.5 c 82.8333,0 150,67.166671 150,150.000001 v 180 h 180 c 124.2458,0 225,100.75 225,225 h 341.6667 c 0,91.66667 150,91.66667 150,0 h 341.6666 375.0001 V 2029.1667 H 2550.8333 V 2405 H 1717.5 v -150.8333 z"
         id="clipping"
         style="stroke-width:4.16667;stroke:none;fill:#6d6d6d;fill-opacity:1" /><line
         fill="none"
         stroke="#000000"
         stroke-miterlimit="10"
         x1="74.166656"
         y1="2029.1666"
         x2="74.166656"
         y2="595.83331"
         id="line1"
         style="stroke-width:4.16667" /><path
         fill="none"
         stroke="#ec1c24"
         stroke-miterlimit="10"
         d="m 2550.8333,595.83333 h -341.6666 c 0,91.66667 -150,91.66667 -150,0 H 1717.5"
         id="path2"
         style="stroke-width:4.16667" /><polyline
         fill="none"
         stroke="#ec1c24"
         stroke-miterlimit="10"
         points="612.2,487 702.2,487 702.2,143 612.2,143    "
         id="polyline2"
         transform="matrix(4.1666667,0,0,4.1666667,-5.2451306e-6,-4.7480902e-6)" /><path
         fill="none"
         stroke="#ec1c24"
         stroke-miterlimit="10"
         d="m 74.166662,595.83333 c 0,-124.25 100.749998,-225 224.999998,-225 h 180.00001"
         id="path3"
         style="stroke-width:4.16667" /><path
         fill="none"
         stroke="#ec1c24"
         stroke-miterlimit="10"
         d="m 1717.5,595.83333 c 0,-124.25 -100.7542,-225 -225,-225 h -180"
         id="path4"
         style="stroke-width:4.16667" /><polyline
         fill="none"
         stroke="#ec1c24"
         stroke-miterlimit="10"
         points="115,171.8 115,89 115,45.8 143.8,45.8    "
         id="polyline4"
         transform="matrix(4.1666667,0,0,4.1666667,-5.2451306e-6,-4.7480902e-6)" /><polyline
         fill="none"
         stroke="#ec1c24"
         stroke-miterlimit="10"
         points="315,171.8 315,89 315,45.8 286.2,45.8    "
         id="polyline5"
         transform="matrix(4.1666667,0,0,4.1666667,-5.2451306e-6,-4.7480902e-6)" /><path
         fill="none"
         stroke="#ec1c24"
         stroke-miterlimit="10"
         d="m 479.16667,190.83333 c 0,-82.83333 67.16666,-150.000001 150,-150.000001 H 1162.5"
         id="path5"
         style="stroke-width:4.16667" /><path
         fill="none"
         stroke="#ec1c24"
         stroke-miterlimit="10"
         d="M 1312.5,190.83333 C 1312.5,108 1245.3333,40.833329 1162.5,40.833329"
         id="path6"
         style="stroke-width:4.16667" /><polyline
         fill="none"
         stroke="#ec1c24"
         stroke-miterlimit="10"
         points="412.2,541 412.2,577.2 612.2,577.2 612.2,487    "
         id="polyline6"
         transform="matrix(4.1666667,0,0,4.1666667,-5.2451306e-6,-4.7480902e-6)" /><polyline
         fill="none"
         stroke="#ec1c24"
         stroke-miterlimit="10"
         points="315,541 412.2,541 412.2,487    "
         id="polyline7"
         transform="matrix(4.1666667,0,0,4.1666667,-5.2451306e-6,-4.7480902e-6)" /><polyline
         fill="none"
         stroke="#ec1c24"
         stroke-miterlimit="10"
         points="115,541 115,584.2 315,584.2 315,541 315,487    "
         id="polyline8"
         transform="matrix(4.1666667,0,0,4.1666667,-5.2451306e-6,-4.7480902e-6)" /><polyline
         fill="none"
         stroke="#ec1c24"
         stroke-miterlimit="10"
         points="17.8,487 17.8,541 115,541 115,487    "
         id="polyline9"
         transform="matrix(4.1666667,0,0,4.1666667,-5.2451306e-6,-4.7480902e-6)" /><rect
         x="479.16666"
         y="715.83337"
         fill="none"
         stroke="#8bc53f"
         stroke-miterlimit="10"
         width="833.36255"
         height="1313.3334"
         id="rect9"
         style="stroke-width:4.16667" /><line
         fill="none"
         stroke="#8bc53f"
         stroke-miterlimit="10"
         x1="1717.5"
         y1="2029.1666"
         x2="2550.8335"
         y2="2029.1666"
         id="line9"
         style="stroke-width:4.16667" /><line
         fill="none"
         stroke="#8bc53f"
         stroke-miterlimit="10"
         x1="479.16666"
         y1="595.83331"
         x2="74.166656"
         y2="595.83331"
         id="line10"
         style="stroke-width:4.16667" /><polyline
         fill="none"
         stroke="#8bc53f"
         stroke-miterlimit="10"
         points="315.003,487 412.197,487 412.197,143 315.003,143  "
         id="polyline10"
         transform="matrix(4.1666667,0,0,4.1666667,-5.2451306e-6,-4.7480902e-6)" /><line
         fill="none"
         stroke="#8bc53f"
         stroke-miterlimit="10"
         x1="2550.8335"
         y1="2029.1666"
         x2="2550.8335"
         y2="595.83331"
         id="line11"
         style="stroke-width:4.16667" /><line
         fill="none"
         stroke="#8bc53f"
         stroke-miterlimit="10"
         x1="593.67084"
         y1="190.83333"
         x2="1192.5"
         y2="190.83333"
         id="line12"
         style="stroke-width:4.16667" /><line
         fill="none"
         stroke="#8bc53f"
         stroke-miterlimit="10"
         x1="479.16666"
         y1="595.83331"
         x2="1310.0042"
         y2="595.83331"
         id="line13"
         style="stroke-width:4.16667" /><line
         fill="none"
         stroke="#8bc53f"
         stroke-miterlimit="10"
         x1="479.16666"
         y1="2029.1666"
         x2="74.166656"
         y2="2029.1666"
         id="line14"
         style="stroke-width:4.16667" /><rect
         x="2585.4167"
         y="630.20831"
         fill="#e6e6e6"
         width="303.45419"
         height="1348.8667"
         id="rect14"
         style="stroke-width:4.16667" /><path
         fill="none"
         stroke="#00adee"
         stroke-miterlimit="10"
         stroke-dasharray="25.3962"
         d="m 2260.2333,652.4 h -11.2541 c -0.3875,2.96667 -1.1792,6.02083 -2.4667,9.10417 -0.5417,1.3 -1.0958,2.59166 -1.6708,3.86666"
         id="path187"
         style="stroke-width:4.16667" /><path
         fill="none"
         stroke="#00adee"
         stroke-miterlimit="10"
         stroke-dasharray="25.3962"
         d="m 2233.1583,687.30417 c -26.1041,41.34166 -67.3666,65.85833 -110.4833,59.94583 -38.6792,-5.3 -78.9208,-27.125 -98.525,-69.68333"
         id="path188"
         style="stroke-width:4.16667" /><path
         fill="none"
         stroke="#00adee"
         stroke-miterlimit="10"
         stroke-dasharray="25.3962"
         d="m 2019.4583,665.81667 c -0.6083,-1.77084 -1.175,-3.57084 -1.7125,-5.40417 -0.825,-2.8125 -1.2541,-5.47917 -1.4,-8.0125 h -11.2541"
         id="path189"
         style="stroke-width:4.16667" /><line
         fill="none"
         stroke="#00adee"
         stroke-miterlimit="10"
         stroke-dasharray="25.3962"
         x1="1984.4042"
         y1="652.40002"
         x2="1787.8959"
         y2="652.40002"
         id="line189"
         style="stroke-width:4.16667" /><polyline
         fill="none"
         stroke="#00adee"
         stroke-miterlimit="10"
         stroke-dasharray="6.0951"
         points="426.611,156.576       423.91,156.576 423.91,159.943     "
         id="polyline189"
         transform="matrix(4.1666667,0,0,4.1666667,-5.2451306e-6,-4.7480902e-6)" /><line
         fill="none"
         stroke="#00adee"
         stroke-miterlimit="10"
         stroke-dasharray="25.3962"
         x1="1766.2917"
         y1="694.05835"
         x2="1766.2917"
         y2="1951.2251"
         id="line190"
         style="stroke-width:4.16667" /><polyline
         fill="none"
         stroke="#00adee"
         stroke-miterlimit="10"
         stroke-dasharray="6.0951"
         points="423.91,471.61       423.91,474.978 426.611,474.978     "
         id="polyline190"
         transform="matrix(4.1666667,0,0,4.1666667,-5.2451306e-6,-4.7480902e-6)" /><line
         fill="none"
         stroke="#00adee"
         stroke-miterlimit="10"
         stroke-dasharray="25.3962"
         x1="1800.6958"
         y1="1979.075"
         x2="2483.4167"
         y2="1979.075"
         id="line191"
         style="stroke-width:4.16667" /><polyline
         fill="none"
         stroke="#00adee"
         stroke-miterlimit="10"
         stroke-dasharray="6.0951"
         points="598.799,474.978       601.5,474.978 601.5,471.61     "
         id="polyline191"
         transform="matrix(4.1666667,0,0,4.1666667,-5.2451306e-6,-4.7480902e-6)" /><line
         fill="none"
         stroke="#00adee"
         stroke-miterlimit="10"
         stroke-dasharray="25.3962"
         x1="2506.25"
         y1="1937.4125"
         x2="2506.25"
         y2="680.24164"
         id="line192"
         style="stroke-width:4.16667" /><polyline
         fill="none"
         stroke="#00adee"
         stroke-miterlimit="10"
         stroke-dasharray="6.0951"
         points="601.5,159.943 601.5,156.576       598.799,156.576     "
         id="polyline192"
         transform="matrix(4.1666667,0,0,4.1666667,-5.2451306e-6,-4.7480902e-6)" /><line
         fill="none"
         stroke="#00adee"
         stroke-miterlimit="10"
         stroke-dasharray="25.3962"
         x1="2473.6582"
         y1="652.40002"
         x2="2270.9084"
         y2="652.40002"
         id="line193"
         style="stroke-width:4.16667" /><polyline
         fill="none"
         stroke="#00adee"
         stroke-miterlimit="10"
         stroke-dasharray="6.1127"
         points="304.309,471.596       304.309,474.978 301.604,474.978     "
         id="polyline195"
         transform="matrix(4.1666667,0,0,4.1666667,-5.2451306e-6,-4.7480902e-6)" /><line
         fill="none"
         stroke="#00adee"
         stroke-miterlimit="10"
         stroke-dasharray="25.4696"
         x1="1233.5083"
         y1="1979.075"
         x2="549.9375"
         y2="1979.075"
         id="line195"
         style="stroke-width:4.16667" /><polyline
         fill="none"
         stroke="#00adee"
         stroke-miterlimit="10"
         stroke-dasharray="6.1127"
         points="129.205,474.978       126.5,474.978 126.5,471.596     "
         id="polyline196"
         transform="matrix(4.1666667,0,0,4.1666667,-5.2451306e-6,-4.7480902e-6)" /><line
         fill="none"
         stroke="#00adee"
         stroke-miterlimit="10"
         stroke-dasharray="25.4696"
         x1="527.08331"
         y1="1937.2291"
         x2="527.08331"
         y2="674.42078"
         id="line196"
         style="stroke-width:4.16667" /><polyline
         fill="none"
         stroke="#00adee"
         stroke-miterlimit="10"
         stroke-dasharray="6.1127"
         points="126.5,158.53 126.5,155.148       129.205,155.148     "
         id="polyline197"
         transform="matrix(4.1666667,0,0,4.1666667,-5.2451306e-6,-4.7480902e-6)" /><line
         fill="none"
         stroke="#00adee"
         stroke-miterlimit="10"
         stroke-dasharray="25.4696"
         x1="561.52502"
         y1="646.44995"
         x2="1245.1"
         y2="646.44995"
         id="line197"
         style="stroke-width:4.16667" /><polyline
         fill="none"
         stroke="#00adee"
         stroke-miterlimit="10"
         stroke-dasharray="6.1127"
         points="301.604,155.148       304.309,155.148 304.309,158.53     "
         id="polyline198"
         transform="matrix(4.1666667,0,0,4.1666667,-5.2451306e-6,-4.7480902e-6)" /><line
         fill="none"
         stroke="#00adee"
         stroke-miterlimit="10"
         stroke-dasharray="25.4696"
         x1="1267.9541"
         y1="688.29999"
         x2="1267.9541"
         y2="1951.1042"
         id="line198"
         style="stroke-width:4.16667" /><polyline
         fill="none"
         stroke="#00adee"
         stroke-miterlimit="10"
         stroke-dasharray="5.9958"
         points="304.575,117.348       304.575,131.997 301.866,131.997     "
         id="polyline201"
         transform="matrix(4.1666667,0,0,4.1666667,-5.2451306e-6,-4.7480902e-6)" /><line
         fill="none"
         stroke="#00adee"
         stroke-miterlimit="10"
         stroke-dasharray="24.9825"
         x1="1234.5667"
         y1="549.98749"
         x2="549.97504"
         y2="549.98749"
         id="line201"
         style="stroke-width:4.16667" /><polyline
         fill="none"
         stroke="#00adee"
         stroke-miterlimit="10"
         stroke-dasharray="5.9958"
         points="129.209,131.997       126.5,131.997 126.5,117.348     "
         id="polyline202"
         transform="matrix(4.1666667,0,0,4.1666667,-5.2451306e-6,-4.7480902e-6)" /><line
         fill="none"
         stroke="#00adee"
         stroke-miterlimit="10"
         stroke-dasharray="24.9825"
         x1="527.08331"
         y1="424.77914"
         x2="527.08331"
         y2="328.50833"
         id="line202"
         style="stroke-width:4.16667" /><polyline
         fill="none"
         stroke="#00adee"
         stroke-miterlimit="10"
         stroke-dasharray="5.9958"
         points="126.5,71.143 126.5,56.493       129.209,56.493     "
         id="polyline203"
         transform="matrix(4.1666667,0,0,4.1666667,-5.2451306e-6,-4.7480902e-6)" /><line
         fill="none"
         stroke="#00adee"
         stroke-miterlimit="10"
         stroke-dasharray="24.9825"
         x1="561.57501"
         y1="235.3875"
         x2="1246.175"
         y2="235.3875"
         id="line203"
         style="stroke-width:4.16667" /><polyline
         fill="none"
         stroke="#00adee"
         stroke-miterlimit="10"
         stroke-dasharray="5.9958"
         points="301.866,56.493       304.575,56.493 304.575,71.143     "
         id="polyline204"
         transform="matrix(4.1666667,0,0,4.1666667,-5.2451306e-6,-4.7480902e-6)" /><line
         fill="none"
         stroke="#00adee"
         stroke-miterlimit="10"
         stroke-dasharray="24.9825"
         x1="1269.0625"
         y1="360.59583"
         x2="1269.0625"
         y2="456.85416"
         id="line204"
         style="stroke-width:4.16667" /><polyline
         fill="none"
         stroke="#00adee"
         stroke-miterlimit="10"
         stroke-dasharray="6.0258"
         points="304.559,559.588       304.559,574.661 301.851,574.661     "
         id="polyline206"
         transform="matrix(4.1666667,0,0,4.1666667,-5.2451306e-6,-4.7480902e-6)" /><line
         fill="none"
         stroke="#00adee"
         stroke-miterlimit="10"
         stroke-dasharray="25.1075"
         x1="1234.5042"
         y1="2394.4209"
         x2="549.97083"
         y2="2394.4209"
         id="line206"
         style="stroke-width:4.16667" /><polyline
         fill="none"
         stroke="#00adee"
         stroke-miterlimit="10"
         stroke-dasharray="6.0258"
         points="129.209,574.661       126.5,574.661 126.5,559.588     "
         id="polyline207"
         transform="matrix(4.1666667,0,0,4.1666667,-5.2451306e-6,-4.7480902e-6)" /><line
         fill="none"
         stroke="#00adee"
         stroke-miterlimit="10"
         stroke-dasharray="25.1075"
         x1="527.08331"
         y1="2265.5918"
         x2="527.08331"
         y2="2166.5752"
         id="line207"
         style="stroke-width:4.16667" /><polyline
         fill="none"
         stroke="#00adee"
         stroke-miterlimit="10"
         stroke-dasharray="6.0258"
         points="126.5,512.053 126.5,496.983       129.209,496.983     "
         id="polyline208"
         transform="matrix(4.1666667,0,0,4.1666667,-5.2451306e-6,-4.7480902e-6)" /><line
         fill="none"
         stroke="#00adee"
         stroke-miterlimit="10"
         stroke-dasharray="25.1075"
         x1="561.57501"
         y1="2070.7625"
         x2="1246.1084"
         y2="2070.7625"
         id="line208"
         style="stroke-width:4.16667" /><polyline
         fill="none"
         stroke="#00adee"
         stroke-miterlimit="10"
         stroke-dasharray="6.0258"
         points="301.851,496.983       304.559,496.983 304.559,512.053     "
         id="polyline209"
         transform="matrix(4.1666667,0,0,4.1666667,-5.2451306e-6,-4.7480902e-6)" /><line
         fill="none"
         stroke="#00adee"
         stroke-miterlimit="10"
         stroke-dasharray="25.1075"
         x1="1268.9958"
         y1="2199.5916"
         x2="1268.9958"
         y2="2298.6208"
         id="line209"
         style="stroke-width:4.16667" /><rect
         x="1754.1666"
         y="2070.7625"
         fill="#e6e6e6"
         width="754.16669"
         height="296.39999"
         id="rect211"
         style="stroke-width:4.16667" /><polyline
         fill="none"
         stroke="#00adee"
         stroke-miterlimit="10"
         stroke-dasharray="6.5895"
         points="104.993,471.595       104.993,474.978 103.837,474.978     "
         id="polyline211"
         transform="matrix(4.1666667,0,0,4.1666667,-5.2451306e-6,-4.7480902e-6)" /><line
         fill="none"
         stroke="#00adee"
         stroke-miterlimit="10"
         stroke-dasharray="27.4562"
         x1="422.74582"
         y1="1979.075"
         x2="130.58333"
         y2="1979.075"
         id="line211"
         style="stroke-width:4.16667" /><polyline
         fill="none"
         stroke="#00adee"
         stroke-miterlimit="10"
         stroke-dasharray="6.5895"
         points="30.151,474.978       28.996,474.978 28.996,471.595     "
         id="polyline212"
         transform="matrix(4.1666667,0,0,4.1666667,-5.2451306e-6,-4.7480902e-6)" /><line
         fill="none"
         stroke="#00adee"
         stroke-miterlimit="10"
         stroke-dasharray="27.4562"
         x1="120.81667"
         y1="1937.2291"
         x2="120.81667"
         y2="674.41669"
         id="line212"
         style="stroke-width:4.16667" /><polyline
         fill="none"
         stroke="#00adee"
         stroke-miterlimit="10"
         stroke-dasharray="6.5895"
         points="28.996,158.53       28.996,155.148 30.151,155.148     "
         id="polyline213"
         transform="matrix(4.1666667,0,0,4.1666667,-5.2451306e-6,-4.7480902e-6)" /><line
         fill="none"
         stroke="#00adee"
         stroke-miterlimit="10"
         stroke-dasharray="27.4562"
         x1="135.53749"
         y1="646.44995"
         x2="427.70001"
         y2="646.44995"
         id="line213"
         style="stroke-width:4.16667" /><polyline
         fill="none"
         stroke="#00adee"
         stroke-miterlimit="10"
         stroke-dasharray="6.5895"
         points="103.837,155.148       104.993,155.148 104.993,158.53     "
         id="polyline214"
         transform="matrix(4.1666667,0,0,4.1666667,-5.2451306e-6,-4.7480902e-6)" /><line
         fill="none"
         stroke="#00adee"
         stroke-miterlimit="10"
         stroke-dasharray="27.4562"
         x1="437.47083"
         y1="688.29999"
         x2="437.47083"
         y2="1951.1083"
         id="line214"
         style="stroke-width:4.16667" /><polyline
         fill="none"
         stroke="#00adee"
         stroke-miterlimit="10"
         stroke-dasharray="6.6698"
         points="402.335,471.596       402.335,474.978 401.152,474.978     "
         id="polyline216"
         transform="matrix(4.1666667,0,0,4.1666667,-5.2451306e-6,-4.7480902e-6)" /><line
         fill="none"
         stroke="#00adee"
         stroke-miterlimit="10"
         stroke-dasharray="27.7908"
         x1="1661.3167"
         y1="1979.075"
         x2="1361.9916"
         y2="1979.075"
         id="line216"
         style="stroke-width:4.16667" /><polyline
         fill="none"
         stroke="#00adee"
         stroke-miterlimit="10"
         stroke-dasharray="6.6698"
         points="325.66,474.978       324.476,474.978 324.476,471.596     "
         id="polyline217"
         transform="matrix(4.1666667,0,0,4.1666667,-5.2451306e-6,-4.7480902e-6)" /><line
         fill="none"
         stroke="#00adee"
         stroke-miterlimit="10"
         stroke-dasharray="27.7908"
         x1="1351.9834"
         y1="1937.2291"
         x2="1351.9834"
         y2="674.42078"
         id="line217"
         style="stroke-width:4.16667" /><polyline
         fill="none"
         stroke="#00adee"
         stroke-miterlimit="10"
         stroke-dasharray="6.6698"
         points="324.476,158.53       324.476,155.148 325.66,155.148     "
         id="polyline218"
         transform="matrix(4.1666667,0,0,4.1666667,-5.2451306e-6,-4.7480902e-6)" /><line
         fill="none"
         stroke="#00adee"
         stroke-miterlimit="10"
         stroke-dasharray="27.7908"
         x1="1367.0625"
         y1="646.44995"
         x2="1666.3916"
         y2="646.44995"
         id="line218"
         style="stroke-width:4.16667" /><polyline
         fill="none"
         stroke="#00adee"
         stroke-miterlimit="10"
         stroke-dasharray="6.6698"
         points="401.152,155.148       402.335,155.148 402.335,158.53     "
         id="polyline219"
         transform="matrix(4.1666667,0,0,4.1666667,-5.2451306e-6,-4.7480902e-6)" /><line
         fill="none"
         stroke="#00adee"
         stroke-miterlimit="10"
         stroke-dasharray="27.7908"
         x1="1676.3958"
         y1="688.29999"
         x2="1676.3958"
         y2="1951.1042"
         id="line219"
         style="stroke-width:4.16667" /></svg>
