<svg version="1.1" id="Layer_1" xmlns="http://www.w3.org/2000/svg" xmlns:xlink="http://www.w3.org/1999/xlink" x="0px" y="0px" width="2325" height="2025" viewBox="0 0 2325 2025" enable-background="new 0 0 558 486" xml:space="preserve">
<polygon fill="#929497" points="0,0 0,486 558,486 558,0 0,0 "></polygon>
<path fill="#FFFFFF" stroke="#ED2224" stroke-miterlimit="10" d="M261,53.5h7.2c19.882,0,36.001,16.117,36.001,36h82
	c0,22,36,22,36,0h82h36v344h-36v36.199H304.199V433.5v36H261v-36v43.199H60.999V433.5v36H17.8v-36v-344c0-19.883,16.117-36,36-36H61
	V46.3c0-19.883,16.118-36,36-36h128c19.882,0,36,16.117,36,36"></path>
<polyline fill="none" stroke="#ED2224" stroke-miterlimit="10" points="61,118.298 61,46.3 89.8,46.3 "></polyline>
<polyline fill="none" stroke="#ED2224" stroke-miterlimit="10" points="261,118.298 261,46.3 232.2,46.3 "></polyline>
<rect x="60.999" y="89.5" fill="none" stroke="#6ABD45" stroke-width="0.4" stroke-miterlimit="10" width="200.001" height="344"></rect>
<polyline fill="none" stroke="#6ABD45" stroke-width="0.4" stroke-miterlimit="10" points="261,433.5 304.199,433.5 304.201,89.5 
	261,89.5 "></polyline>
<line fill="none" stroke="#6ABD45" stroke-width="0.4" stroke-miterlimit="10" x1="504.201" y1="433.5" x2="504.201" y2="89.5"></line>
<line fill="none" stroke="#6ABD45" stroke-width="0.4" stroke-miterlimit="10" x1="89.8" y1="46.3" x2="232.2" y2="46.3"></line>
<line fill="none" stroke="#6ABD45" stroke-width="0.4" stroke-miterlimit="10" x1="61" y1="118.298" x2="261" y2="118.298"></line>
<line fill="none" stroke="#6ABD45" stroke-width="0.4" stroke-miterlimit="10" x1="304.199" y1="433.5" x2="504.201" y2="433.5"></line>
<line fill="none" stroke="#6ABD45" stroke-width="0.4" stroke-miterlimit="10" x1="61" y1="89.5" x2="17.8" y2="89.5"></line>
<line fill="none" stroke="#6ABD45" stroke-width="0.4" stroke-miterlimit="10" x1="60.999" y1="433.5" x2="17.8" y2="433.5"></line>
<rect x="510.829" y="98.134" fill="#E6E6E6" width="21.998" height="325.998"></rect>

<g>
	<path fill="#EB242B" d="M426.738,174.739c0,0.888-0.403,1.754-1.207,2.597l-0.127,0.125l-7.04,7.417
		c-1.496,1.571-2.771,2.787-3.821,3.646c-1.052,0.859-1.796,1.287-2.228,1.287c-0.456,0-1.021-0.214-1.698-0.644
		c-0.676-0.428-1.112-0.872-1.311-1.327c-0.166-0.38-0.325-1.185-0.473-2.416c-0.147-1.229-0.222-2.563-0.222-3.998
		c0-0.782,0.327-1.506,0.979-2.171c0.653-0.665,1.375-0.997,2.164-0.997c0.754,0,1.2,0.688,1.344,2.062
		c0.018,0.159,0.027,0.278,0.037,0.354c0.119,1.056,0.261,1.792,0.419,2.21c0.161,0.418,0.378,0.627,0.65,0.627
		c0.113,0,0.327-0.124,0.639-0.37c0.31-0.248,0.684-0.583,1.116-1.009l7.234-7.166c0.607-0.607,1.149-1.066,1.629-1.379
		c0.479-0.311,0.884-0.467,1.219-0.467c0.252,0,0.429,0.096,0.537,0.285c0.105,0.19,0.158,0.51,0.158,0.958V174.739z"></path>
</g>
<line fill="none" stroke="#EB2227" x1="459.494" y1="175.963" x2="459.494" y2="89.331"></line>

<line fill="none" stroke="#8CC541" x1="198.5" y1="196.336" x2="261.333" y2="196.003"></line>
<rect x="322" y="280.892" fill="#E7E7E7" width="164.5" height="53.937"></rect>

<g>
	<path fill="#EB242B" d="M417.688,286.417c0,0.407-0.185,0.806-0.554,1.192l-0.059,0.058l-3.235,3.409
		c-0.687,0.721-1.272,1.28-1.755,1.676c-0.483,0.393-0.825,0.591-1.023,0.591c-0.21,0-0.471-0.099-0.78-0.297
		c-0.312-0.195-0.511-0.399-0.604-0.608c-0.076-0.174-0.148-0.545-0.216-1.11c-0.069-0.565-0.103-1.178-0.103-1.838
		c0-0.36,0.15-0.69,0.45-0.997c0.301-0.305,0.631-0.458,0.994-0.458c0.346,0,0.551,0.315,0.618,0.948
		c0.008,0.072,0.012,0.126,0.017,0.162c0.055,0.484,0.12,0.822,0.192,1.014c0.073,0.193,0.174,0.29,0.298,0.29
		c0.053,0,0.15-0.058,0.295-0.171c0.142-0.113,0.313-0.268,0.513-0.464l3.324-3.291c0.279-0.28,0.528-0.492,0.748-0.635
		c0.22-0.144,0.407-0.216,0.561-0.216c0.115,0,0.196,0.046,0.246,0.132c0.049,0.088,0.072,0.234,0.072,0.44V286.417z"></path>
</g>
<g>
	<circle fill-rule="evenodd" clip-rule="evenodd" fill="#010101" cx="348.408" cy="307.338" r="23.805"></circle>
	<circle fill-rule="evenodd" clip-rule="evenodd" fill="#B7D334" cx="348.424" cy="307.471" r="21.642"></circle>
	<g>
		<path fill="#010101" d="M343.791,302.751c-0.301,2.651-0.523,4.784-0.673,6.392l-0.985,0.043c0.014-0.053,0.021-0.114,0.022-0.181
			c0.002-0.121-0.042-0.28-0.133-0.477c-0.092-0.196-0.144-0.32-0.155-0.374c-0.256,0.037-0.5,0.214-0.733,0.53
			c-0.233,0.318-0.445,0.477-0.632,0.475c-0.108-0.004-0.229-0.032-0.361-0.088c-0.177,0.117-0.405,0.167-0.688,0.15
			c-0.254-0.046-0.502-0.083-0.743-0.114c-0.009-0.336-0.337-0.629-0.991-0.883c0.003-0.134-0.065-0.333-0.201-0.599
			c-0.137-0.264-0.204-0.448-0.202-0.556c0.002-0.12,0.051-0.221,0.147-0.301c-0.015-0.039-0.125-0.289-0.331-0.75
			c-0.142-0.338-0.21-0.628-0.207-0.868c0.004-0.188,0.046-0.362,0.131-0.521c-0.115-1.143-0.166-2.123-0.151-2.94
			c0.021-1.262,0.2-2.42,0.542-3.476c-0.023-0.161-0.035-0.322-0.033-0.483c0.015-0.846,0.309-1.431,0.875-1.758l0.006-0.261
			c0.562-0.715,1.302-1.232,2.22-1.553c0.55,0.131,1.097,0.253,1.645,0.371c0.614,0.211,1.038,0.573,1.271,1.088
			c0.186,0.111,0.276,0.334,0.271,0.668c-0.006,0.378,0.037,0.619,0.129,0.729l-0.104,0.116c0.106,0.796,0.161,1.279,0.157,1.453
			c-0.01,0.511-0.144,0.87-0.401,1.08c-0.093-0.001-0.34-0.084-0.739-0.254c-0.097,0.093-0.199,0.138-0.305,0.136
			c-0.054,0-0.152-0.029-0.292-0.086c-0.139-0.056-0.257-0.083-0.35-0.085c-0.067-0.002-0.135,0.01-0.203,0.035
			c-0.008-1.059,0.025-1.85,0.102-2.373c-0.106-0.068-0.215-0.228-0.324-0.469c-0.11-0.243-0.253-0.381-0.426-0.409
			c-0.109,0.133-0.158,0.22-0.146,0.261l-0.36-0.128c-0.328,0.356-0.546,0.977-0.655,1.86c-0.112,1.019-0.25,1.693-0.416,2.026
			c0.145,0.15,0.215,0.359,0.209,0.628c-0.001,0.093-0.018,0.248-0.048,0.462c-0.03,0.213-0.047,0.376-0.048,0.482
			c-0.001,0.121,0.009,0.229,0.035,0.322l-0.246,0.237c0.099,0.459,0.156,1.037,0.172,1.736c-0.01,0.59-0.014,1.18-0.01,1.769
			c-0.014,0-0.128,0.006-0.342,0.018c-0.134-0.004-0.23,0.041-0.284,0.134c0.08-0.012,0.154-0.018,0.22-0.016
			c0.296,0.004,0.528,0.214,0.694,0.625c0.169,0.413,0.312,0.62,0.433,0.624c0.135,0,0.318-0.124,0.551-0.377
			c0.396-0.42,0.601-1.002,0.613-1.739c0.007-0.362-0.033-0.752-0.121-1.169c-0.095,0.051-0.145,0.185-0.147,0.398
			c-0.215-0.002-0.351,0.042-0.405,0.134c-0.093-0.027-0.133-0.103-0.117-0.222c0.016-0.175,0.024-0.27,0.024-0.282
			c0.163-0.05,0.243-0.124,0.246-0.217c0-0.04-0.028-0.116-0.087-0.224c-0.058-0.107-0.087-0.195-0.087-0.264
			c0-0.052,0.017-0.105,0.043-0.16l0.094-0.783c0.295,0.086,0.932,0.122,1.912,0.115c-0.029,0.063,0.01,0.154,0.116,0.261
			c0.095-0.092,0.196-0.139,0.304-0.135c0.08,0.002,0.2,0.037,0.359,0.106C343.61,302.715,343.723,302.75,343.791,302.751z"></path>
		<path fill="#010101" d="M351.303,309.683c-0.187-0.083-0.387-0.125-0.601-0.13c-0.188-0.004-0.445,0.032-0.769,0.107
			c-0.363,0.074-0.612,0.117-0.746,0.129c-0.145-0.285-0.243-0.675-0.301-1.174c-0.109-0.726-0.178-1.136-0.202-1.232
			c0.042-0.08,0.063-0.146,0.063-0.198c0.003-0.148-0.112-0.281-0.345-0.399c-0.234-0.117-0.35-0.21-0.348-0.278
			c0.001-0.079,0.137-0.197,0.408-0.354c-0.065-0.081-0.113-0.246-0.144-0.494c-0.027-0.25-0.09-0.415-0.182-0.497
			c-0.164,0.145-0.43,0.237-0.8,0.276c-0.37,0.043-0.616,0.103-0.737,0.18c0.007,1.047-0.165,1.75-0.52,2.104
			c-0.187-0.042-0.33,0.029-0.426,0.217c-0.139,0.225-0.256,0.356-0.351,0.395l0.119,0.144c-0.109,0.092-0.284,0.13-0.525,0.112
			c-0.376-0.021-0.576-0.03-0.604-0.03l-0.114-0.365l1.312-10.868c0.012-0.685,0.047-1.147,0.104-1.389
			c-0.018-0.604,0.123-0.978,0.42-1.12c0.187,0.124,0.42,0.188,0.702,0.193c0.229,0.005,0.585-0.044,1.068-0.143
			c0.487-0.1,0.823-0.148,1.011-0.146c0.657,0.013,0.943,0.487,0.862,1.425c-0.067,0.751,0.051,1.74,0.351,2.966
			c0.314,1.321,0.465,2.311,0.453,2.969c-0.003,0.199,0.063,0.617,0.047,0.817c-0.285,0.156-0.648,0.251-1.092,0.282
			c-0.389,0.022-0.786,0.043-1.188,0.062c-0.104-1.021-0.283-2.253-0.389-3.262c-0.126-1.21-0.283-2.204-0.472-2.987l-0.622,5.747
			c-0.048,0.496,0.177,0.749,0.674,0.758c0.16,0.002,0.313-0.035,0.464-0.113c0.122-0.039,0.289,0.051,0.499,0.27
			c-0.008,0.416,0.075,0.665,0.249,0.751c0.217-0.146,0.5-0.28,0.852-0.411c0.311-0.113,0.617-0.223,0.913-0.325
			c0.169,0.23,0.278,0.574,0.325,1.032c0.055,0.646,0.096,1.022,0.121,1.129c0.022,0.256,0.127,0.808,0.312,1.657
			c0.138,0.672,0.201,1.218,0.195,1.633C351.349,309.322,351.332,309.51,351.303,309.683z"></path>
		<path fill="#010101" d="M360.573,300.096c-0.015,0.04-0.019,0.276-0.012,0.705c-0.007,0.35-0.051,0.609-0.135,0.782
			c-0.1,0.268-0.151,0.65-0.16,1.146c-0.003,0.107,0.001,0.274,0.011,0.503c-0.004,0.229-0.006,0.396-0.008,0.504
			c-0.016,0.846-0.16,1.458-0.435,1.843c0.022,0.218,0.033,0.431,0.031,0.646c-0.012,0.672-0.242,1.573-0.691,2.708
			c-0.121,0.039-0.224,0.056-0.305,0.054c-0.16-0.003-0.275-0.097-0.347-0.278c-0.071-0.183-0.138-0.354-0.202-0.516
			c0.045-1.032,0.023-2.537-0.064-4.512l0.123-0.119c-0.089-0.349-0.128-0.739-0.122-1.168c0.006-0.309,0.044-0.759,0.114-1.348
			c0.071-0.589,0.108-1.032,0.113-1.327c0.004-0.188-0.001-0.367-0.01-0.543c-0.464,1.107-0.79,2.979-0.982,5.619l-0.168,0.399
			c-0.056,0.135-0.171,0.206-0.345,0.218c-0.053-0.095-0.106-0.144-0.159-0.144c-0.04-0.003-0.111,0.047-0.214,0.147
			c-0.103,0.098-0.188,0.14-0.253,0.126l-0.268,0.236c0.118,0.15,0.372,0.167,0.765,0.056c0.309-0.092,0.469,0.026,0.477,0.349
			c0.009,0.268-0.063,0.63-0.219,1.083c-0.156,0.453-0.235,0.793-0.238,1.023c-0.003,0.161,0.015,0.322,0.052,0.482l-1.394,0.219
			c-0.129-0.271-0.226-0.726-0.29-1.364c-0.061-0.637-0.158-1.093-0.288-1.363c0.082-0.092,0.124-0.191,0.126-0.299
			c0.001-0.095-0.035-0.236-0.113-0.425c-0.077-0.19-0.121-0.331-0.134-0.426c-0.011-0.147-0.058-0.506-0.144-1.069
			c-0.059-0.456-0.087-0.814-0.082-1.067c0.003-0.136,0.012-0.257,0.026-0.364c0.001-0.093-0.051-0.231-0.153-0.416
			c-0.104-0.182-0.156-0.313-0.153-0.394c0-0.067,0.027-0.127,0.081-0.181c-0.092-0.109-0.129-0.297-0.11-0.564
			c0.018-0.27-0.02-0.457-0.11-0.564c-0.198,0.518-0.303,1.221-0.318,2.106c-0.008,1.235-0.02,1.946-0.036,2.133l0.139,0.126
			l-0.143,0.116c0.099,0.483,0.143,1.104,0.13,1.854c-0.037,1.354-0.054,1.985-0.053,1.894c-0.19,0.169-0.454,0.252-0.791,0.247
			c-0.414-0.007-0.697,0.029-0.846,0.105c-0.169-0.298-0.251-0.682-0.243-1.149c0.006-0.364,0.068-0.805,0.186-1.328
			c-0.184-0.339-0.269-0.809-0.26-1.413c0.003-0.147,0.021-0.429,0.056-0.846c0.019-0.333,0.022-0.582,0.014-0.744
			c0.134-0.063,0.202-0.136,0.203-0.217c0.002-0.054-0.04-0.146-0.125-0.275c-0.086-0.126-0.128-0.225-0.128-0.293
			c0.003-0.08,0.058-0.16,0.166-0.24l-0.434-6.509c0.259-0.17,0.676-0.25,1.253-0.24c0.63,0.024,1.062-0.009,1.29-0.098
			c0.041-0.027,0.088-0.039,0.142-0.039c0.055,0.002,0.117,0.033,0.19,0.095c0.072,0.06,0.122,0.093,0.148,0.093
			c0.055,0,0.102-0.039,0.145-0.121l0.375,0.371c0.126,0.473,0.245,1.387,0.357,2.742c0.113,1.171,0.293,2.054,0.539,2.648
			c0.329-1.189,0.6-2.185,0.814-2.984l0.438-3.188l3.12-0.068c0.012,0.174,0.05,1.108,0.135,1.647
			c0.07,0.47,0.105,0.853,0.101,1.147c-0.005,0.336-0.057,0.638-0.157,0.903c0.104,0.15,0.156,0.338,0.152,0.564
			C360.74,299.765,360.682,299.949,360.573,300.096z"></path>
		<path fill="#010101" d="M366.976,307.151v-0.021c-0.083,0.172-0.134,0.374-0.15,0.602c-0.015,0.147-0.021,0.354-0.012,0.624
			c0.009,0.308,0.012,0.522,0.011,0.645c-0.108-0.002-0.538-0.011-1.288-0.022c-0.457-0.007-0.867,0.031-1.231,0.121l-0.375-0.41
			c-0.11,0.105-0.151,0.191-0.126,0.26c-0.066-0.016-0.376-0.019-0.925-0.016c-0.43-0.007-0.752-0.055-0.964-0.137
			c-0.22,0.225-0.475,0.219-0.766-0.014c-0.105-0.081-0.116-0.22-0.034-0.412c0.085-0.194,0.061-0.338-0.071-0.435
			c0.02-0.429,0.079-1.093,0.175-1.991c0.094-0.803,0.144-1.434,0.151-1.89c0.01-0.616-0.032-1.208-0.13-1.773
			c0.151-0.145,0.318-0.216,0.507-0.212c0.216,0.002,0.468,0.108,0.76,0.315c0.409,0.286,0.624,0.433,0.636,0.433l0.118,0.143
			c0.016-0.041,0.086-0.254,0.212-0.642c0.072-0.253,0.177-0.419,0.312-0.497l0.119,0.123c0.054-0.025,0.229-0.15,0.53-0.373
			c0.229-0.159,0.418-0.531,0.551-0.527c0.148,0.001,0.286,0.085,0.419,0.248c0.226,0.123,0.367,0.607,0.439,0.855
			c0.068,0.25,0.135,0.495,0.198,0.74c-0.604,0.016-1.102,0-1.49-0.047c-0.096,0.146-0.229,0.167-0.403,0.064
			c-0.172-0.104-0.3-0.09-0.383,0.041c-0.004,0.243-0.013,0.682-0.022,1.311c-0.024,0.562-0.03,1.006-0.021,1.329
			c0.004,0.495,0.036,0.952,0.096,1.369c0.106,0.002,0.618,0.011,1.53,0.027C365.979,306.994,366.521,307.049,366.976,307.151z
			 M367.019,297.509c-0.121,0.012-0.255,0.016-0.402,0.014c-0.309-0.006-0.718-0.054-1.226-0.144
			c-0.631-0.089-1.012-0.143-1.146-0.159c-0.192,0.278-0.292,0.672-0.302,1.183c-0.02,1.101-0.02,1.577-0.004,1.429
			c0.187,0.111,0.276,0.314,0.271,0.609c-0.021,0.402-0.022,0.611-0.01,0.624c-0.094,0.037-0.144,0.172-0.147,0.399
			c-0.148-0.056-0.3-0.166-0.457-0.33c-0.212-0.205-0.324,0.49-0.309,0.316l-0.127,0.413l-0.118-0.122
			c-0.108,0.011-0.293-0.045-0.551-0.171c-0.261-0.125-0.443-0.24-0.548-0.352c0.004-0.214,0.039-0.334,0.106-0.36l-0.257-0.285
			l-0.123,0.178c-0.151-1.398-0.114-4.013,0.07-5.485c0.51,0.087,1.072,0.146,1.689,0.169c0.416,0.021,0.999,0.03,1.75,0.03
			c0.86,0.001,1.479,0.004,1.854,0.011c0.156,0.149,0.233,0.346,0.23,0.588c-0.002,0.147-0.044,0.385-0.123,0.712
			C367.062,297.104,367.021,297.346,367.019,297.509z"></path>
	</g>
	<g>
		<path fill="#010101" d="M344.396,319.323v-0.011c0,0.007-0.035,0.304-0.104,0.889c-0.035,0.358-0.121,0.641-0.26,0.847
			l-0.088-0.07c-0.163,0.341-0.384,0.549-0.666,0.622c-0.134,0.143-0.328,0.221-0.582,0.236c-0.15,0.009-0.498-0.035-1.042-0.131
			c-0.264-0.165-0.408-0.256-0.433-0.273c-0.166-0.123-0.245-0.25-0.237-0.379c-0.159-0.162-0.385-0.454-0.47-0.818
			c-0.103-0.405-0.164-0.426-0.26-0.568c-0.151,0.112-0.207-0.125-0.295-0.27l0.079-0.06c-0.049-0.035-0.075-0.076-0.079-0.121
			c-0.001-0.032,0.014-0.078,0.041-0.142c0.028-0.062,0.043-0.108,0.04-0.141c-0.004-0.05-0.033-0.095-0.091-0.128
			c0.061-0.318,0.117-0.795,0.167-1.429c0.107-0.058,0.159-0.169,0.153-0.335c-0.006-0.164,0.018-0.275,0.069-0.328
			c0.256-0.515,0.673-0.86,1.249-1.04c0.032,0.004,0.187,0,0.464-0.008c0.19-0.005,0.334,0.012,0.431,0.051
			c0.174-0.03,0.347,0.013,0.52,0.123c0.149,0.113,0.3,0.226,0.448,0.339c0.279,0.302,0.431,0.646,0.453,1.027
			c0.007,0.126-0.001,0.263-0.024,0.401c-0.207-0.006-0.353,0.13-0.44,0.411l-0.805,0.075c-0.086-0.122-0.136-0.286-0.148-0.49
			c-0.004-0.07-0.003-0.172,0-0.306c0.004-0.136,0.005-0.236,0-0.307c-0.012-0.21-0.061-0.376-0.147-0.5l-0.241,0.14
			c-0.099-0.039-0.148-0.097-0.152-0.173c-0.002-0.026,0.002-0.063,0.011-0.11c0.01-0.051,0.013-0.083,0.013-0.103
			c-0.005-0.083-0.079-0.131-0.224-0.151c-0.099,0.906-0.128,1.838-0.088,2.794c0.025,0.029,0.103,0.05,0.229,0.063
			c0.104,0.013,0.157,0.046,0.159,0.095c0.002,0.021-0.003,0.046-0.02,0.079l-0.078,0.062c0.042,0.067,0.069,0.163,0.076,0.283
			c0.002,0.062,0.001,0.161-0.007,0.293c-0.009,0.132-0.012,0.229-0.008,0.292c0.013,0.19,0.06,0.336,0.146,0.434
			c-0.009,0.138,0.049,0.235,0.17,0.285c0.078-0.03,0.147-0.045,0.213-0.05c0.244-0.016,0.415,0.12,0.511,0.4
			c0.001,0.008-0.002,0.054-0.003,0.146c0.003,0.052,0.027,0.083,0.076,0.1c0.106-0.064,0.159-0.179,0.158-0.346
			c-0.002-0.189,0.022-0.312,0.073-0.365c-0.013-0.091-0.064-0.218-0.158-0.385s-0.142-0.297-0.148-0.394
			c-0.006-0.102,0.024-0.199,0.09-0.292c-0.056-0.017-0.082-0.053-0.077-0.111c0.003-0.09,0.004-0.138,0.004-0.144
			C343.5,319.225,343.945,319.222,344.396,319.323z"></path>
		<path fill="#010101" d="M348.038,320.07h-0.009c-0.048,0.09-0.062,0.224-0.047,0.395c0.023,0.241,0.034,0.366,0.034,0.371
			c-0.035,0.016-0.086-0.003-0.146-0.053c-0.093,0.034-0.14,0.094-0.134,0.177c0,0.012,0.006,0.032,0.015,0.062
			c0.001,0.035,0.004,0.058,0.004,0.07c0.005,0.064-0.016,0.113-0.058,0.146c-0.106-0.06-0.248-0.098-0.421-0.115
			c-0.176-0.015-0.342-0.031-0.497-0.045c-0.002-0.808-0.11-1.599-0.325-2.37c0,0.006-0.004-0.072-0.015-0.239
			c0.002-0.119-0.024-0.202-0.08-0.254l-0.073,0.066c-0.002-0.013,0.022-0.034,0.073-0.07c0.05-0.036,0.074-0.071,0.071-0.106
			c-0.002-0.019-0.007-0.035-0.015-0.052l-0.081-0.059c-0.137,0.044-0.201,0.155-0.19,0.33c0.007,0.119-0.041,0.203-0.141,0.249
			c0.039,0.029,0.059,0.064,0.061,0.104c0.003,0.024-0.001,0.059-0.01,0.1c-0.01,0.04-0.014,0.074-0.011,0.099
			c0.002,0.052,0.031,0.095,0.085,0.128c0.002,0.035,0.02,0.355,0.055,0.96c0.023,0.385,0.011,0.711-0.031,0.98l0.009,0.15
			c-0.052-0.002-0.111-0.001-0.178,0.001c-0.072,0.005-0.179,0.017-0.318,0.034c-0.139,0.017-0.242,0.026-0.308,0.03
			c-0.271,0.016-0.463-0.03-0.573-0.138l-0.115-3.315c-0.054-0.162-0.089-0.39-0.105-0.679l-0.037-0.641
			c-0.026-0.313-0.066-0.554-0.12-0.723c0.023-0.115,0.123-0.177,0.3-0.188c0.11-0.006,0.258,0.009,0.445,0.047
			c0.086-0.039,0.206-0.065,0.361-0.074c0.044-0.005,0.114-0.005,0.21-0.005c0.103-0.006,0.177-0.011,0.22-0.012
			c0.288-0.018,0.478-0.104,0.571-0.267c0.134-0.001,0.278,0.041,0.436,0.127c0.154,0.087,0.292,0.134,0.41,0.137
			c0.313,0.184,0.482,0.489,0.508,0.916c0.006,0.094-0.032,0.471-0.112,1.128l-0.537,0.468c0.092,0.168,0.201,0.532,0.329,1.095
			C347.654,319.506,347.818,319.851,348.038,320.07z M347.044,316.296l0.012,0.009c0.011,0.041,0.006-0.105-0.014-0.434
			c-0.009-0.161-0.067-0.276-0.176-0.348c-0.061,0.085,0.009,0.126-0.021,0.327c-0.028,0.2-0.146,0.145-0.217,0.231
			c-0.184,0-0.226,0.111-0.266-0.064c-0.082-0.287-0.154-0.262-0.155-0.267l-0.077,0.046c-0.029,0.025-0.061,0.054-0.095,0.087
			c-0.035,0.032-0.072,0.041-0.109,0.033c0.002,0.035-0.015,0.091-0.051,0.167c-0.037,0.076-0.054,0.129-0.052,0.158
			c0.003,0.054,0.045,0.093,0.129,0.119c-0.016,0.119-0.019,0.243-0.013,0.373c0.005,0.07,0.021,0.234,0.052,0.486
			c0.033,0.201,0.046,0.372,0.04,0.514c0.067,0.003,0.129,0.003,0.188,0c0.258-0.016,0.425-0.117,0.502-0.305
			c0.026-0.055,0.056-0.254,0.089-0.593C346.839,316.58,346.917,316.398,347.044,316.296z"></path>
		<path fill="#010101" d="M352.218,321.358c-0.104-0.031-0.216-0.042-0.334-0.035c-0.104,0.005-0.241,0.031-0.415,0.077
			c-0.198,0.047-0.333,0.077-0.405,0.086c-0.09-0.119-0.158-0.288-0.207-0.504c-0.086-0.317-0.137-0.494-0.153-0.535
			c0.021-0.036,0.029-0.067,0.028-0.092c-0.004-0.064-0.073-0.118-0.203-0.162c-0.133-0.041-0.198-0.08-0.2-0.107
			c-0.002-0.035,0.067-0.093,0.212-0.172c-0.039-0.034-0.071-0.105-0.095-0.215c-0.026-0.107-0.063-0.178-0.119-0.21
			c-0.084,0.071-0.226,0.123-0.428,0.155c-0.2,0.03-0.333,0.066-0.399,0.106c0.042,0.46,0,1.271-0.181,1.44
			c-0.104-0.012-0.178,0.024-0.226,0.112c-0.069,0.104-0.129,0.168-0.178,0.188l0.069,0.058c-0.058,0.046-0.151,0.068-0.283,0.07
			c-0.206,0.006-0.316,0.009-0.331,0.01l-0.075-0.157l0.31-5.332c-0.017-0.301-0.014-0.506,0.008-0.613
			c-0.03-0.266,0.034-0.437,0.192-0.512c0.106,0.048,0.235,0.066,0.391,0.059c0.125-0.008,0.319-0.041,0.581-0.105
			c0.262-0.062,0.444-0.097,0.548-0.104c0.36-0.02,0.534,0.177,0.521,0.593c-0.011,0.334,0.089,0.764,0.297,1.293
			c0.217,0.568,0.333,0.999,0.35,1.289c0.006,0.089,0.125,0.278,0.123,0.367c-0.152,0.079-0.348,0.135-0.589,0.166
			c-0.214,0.026-0.429,0.051-0.649,0.074c-0.092-0.445-0.301-0.987-0.393-1.429c-0.112-0.527-0.233-0.959-0.362-1.298l-0.142,2.556
			c-0.008,0.222,0.125,0.323,0.396,0.308c0.088-0.005,0.172-0.028,0.25-0.067c0.067-0.022,0.159,0.011,0.282,0.099
			c0.011,0.184,0.066,0.291,0.165,0.321c0.112-0.072,0.264-0.145,0.451-0.214c0.165-0.063,0.329-0.123,0.487-0.18
			c0.103,0.095,0.172,0.243,0.216,0.441c0.052,0.283,0.087,0.446,0.105,0.493c0.02,0.111,0.097,0.352,0.229,0.719
			c0.099,0.289,0.153,0.527,0.164,0.71C352.23,321.195,352.229,321.278,352.218,321.358z"></path>
		<path fill="#010101" d="M355.266,315.308h0.01c-0.088,0.13-0.2,0.155-0.338,0.074c-0.029-0.005-0.162,0.003-0.398,0.022
			c-0.197,0.012-0.342,0.001-0.433-0.027c-0.021,0.002-0.066,0.022-0.128,0.064c-0.065,0.045-0.111,0.063-0.142,0.066
			c-0.043,0.004-0.068-0.035-0.072-0.112c-0.002-0.011-0.005-0.062-0.009-0.15c-0.003-0.058-0.032-0.099-0.084-0.119l-0.139,0.106
			c-0.042,0.031-0.063,0.064-0.061,0.101c0.002,0.028,0.027,0.071,0.074,0.125s0.075,0.092,0.084,0.113
			c0.001,0.02,0.017,0.286,0.047,0.801c0.01,0.327,0.071,0.587,0.178,0.782c0.027-0.03,0.095-0.048,0.202-0.05
			c0.106-0.004,0.177-0.027,0.211-0.071c0.071,0.06,0.187,0.065,0.35,0.012c0.163-0.056,0.281-0.037,0.353,0.054l-0.021,0.786
			c-0.067-0.01-0.166-0.041-0.294-0.098c-0.038,0.114-0.111,0.187-0.219,0.216c-0.046,0.016-0.17,0.027-0.375,0.039
			c0.006-0.035-0.026-0.072-0.097-0.109c-0.199,0.096-0.275,0.321-0.226,0.682c0.006-0.037,0.014,0.026,0.022,0.186
			c0.006,0.1-0.015,0.173-0.064,0.218c-0.125,0.018-0.283-0.01-0.476-0.084c-0.191-0.075-0.329-0.111-0.411-0.105
			c-0.035,0.002-0.069,0.008-0.099,0.015l-0.206,0.065l-0.331-3.589l-0.038-0.684c0.273-0.092,0.613-0.151,1.02-0.174
			c0.315-0.019,0.729-0.017,1.24,0.007c0.032-0.065,0.093,0.021,0.167,0.018c0.037-0.002,0.092,0.002,0.166,0.012
			c0.074,0.011,0.131,0.015,0.168,0.013c0.043-0.002,0.083-0.011,0.119-0.024l0.052-0.058c0.15,0.045,0.229,0.125,0.236,0.236
			c0.004,0.048-0.013,0.129-0.043,0.243c-0.028,0.114-0.043,0.203-0.04,0.26C355.228,315.221,355.241,315.269,355.266,315.308z
			 M353.974,321.296c-0.078,0.041-0.2,0.064-0.361,0.075c-0.212,0.012-0.34,0.023-0.386,0.031c-0.022-0.022-0.05-0.005-0.099-0.191
			c-0.03-0.124-0.107-0.182-0.231-0.173c-0.03,0.001-0.065,0.006-0.11,0.014l-0.198,0.013l-0.106-1.816
			c0.109-0.053,0.244-0.085,0.405-0.095c0.154-0.009,0.292,0.007,0.411,0.046c-0.002,0.067,0.092,0.095,0.282,0.082l0.211-0.013
			C353.915,319.78,353.992,320.701,353.974,321.296z"></path>
		<path fill="#010101" d="M359.678,315.464l0.012,0.009c-0.104-0.007-0.438,0.017-0.693,0.049c-0.22,0.024-0.386,0.028-0.497,0.011
			c-0.106,0.073-0.146,0.169-0.116,0.291l0.067,0.041c-0.057,0.053-0.076,0.091-0.058,0.12l0.058,0.059
			c-0.013,1.052-0.016,1.635-0.008,1.747c0.015,0.278,0.048,0.521,0.097,0.733c-0.044,0.134-0.061,0.286-0.051,0.458
			c0.007,0.11,0.033,0.29,0.08,0.534c0.049,0.243,0.11,1.044,0.119,1.169c0.005,0.093,0.003,0.184-0.007,0.266
			c-0.102,0.042-0.211,0.066-0.328,0.073c-0.199,0.012-0.412-0.029-0.64-0.122c-0.026,0.024-0.059,0.052-0.095,0.081
			c-0.034,0.028-0.044,0.061-0.026,0.096c-0.073,0.021-0.175-0.009-0.305-0.091c-0.07-1.065-0.26-3.235-0.542-5.429
			c-0.101,0.089-0.283,0.015-0.473,0.039c-0.228,0.024-0.45-0.012-0.537,0.029c-0.11-0.117-0.085-0.152-0.097-0.347
			c-0.011-0.189-0.072-0.657-0.022-0.852c0.009-0.043,0.421-0.019,0.664-0.039c0.33-0.019,0.403,0.06,0.425,0.058
			c0.027-0.042,0.188-0.021,0.306-0.029c0.076,0.037,0.159-0.033,0.161,0.021c0.004,0.035,0,0.26-0.024,0.323
			c-0.026,0.064-0.038,0.111-0.036,0.141c0.004,0.071,0.055-0.033,0.175,0.008c0.133-0.003,0.269-0.008,0.408-0.015
			c0.156,0.013,0.335-0.043,0.321,0.089c0.027-0.037,0.045,0.028,0.268-0.062c0.166-0.076,0.267-0.269,0.234-0.402
			c-0.019-0.073,0.082-0.121,0.02-0.086c0.08-0.045,0.008-0.014,0.094-0.049c0.275,0.026,0.427-0.001,0.479-0.005
			c0.11-0.007,0.385,0.064,0.462,0.024c0.058,0.104,0.088,0.427,0.091,0.605C359.672,315.295,359.678,315.446,359.678,315.464z"></path>
		<path fill="#010101" d="M363.254,319.17l-0.001-0.01c-0.04,0.08-0.061,0.171-0.061,0.271c-0.006,0.065,0,0.157,0.014,0.277
			c0.017,0.134,0.025,0.229,0.029,0.282c-0.061,0.003-0.296,0.016-0.708,0.042c-0.249,0.014-0.472,0.047-0.669,0.101l-0.22-0.167
			c-0.056,0.052-0.075,0.092-0.059,0.12c-0.036-0.003-0.207,0.006-0.508,0.029c-0.236,0.015-0.414,0.006-0.534-0.023
			c-0.111,0.108-0.251,0.116-0.418,0.024c-0.061-0.03-0.072-0.091-0.033-0.18c0.039-0.09,0.02-0.151-0.056-0.188
			c-0.003-0.189,0.006-0.485,0.026-0.885c0.024-0.357,0.029-0.637,0.018-0.84c-0.016-0.271-0.062-0.529-0.133-0.774
			c0.077-0.07,0.167-0.106,0.27-0.112c0.118-0.009,0.26,0.028,0.428,0.106c0.235,0.111,0.356,0.167,0.363,0.167l0.069,0.058
			c0.007-0.017,0.037-0.114,0.094-0.291c0.031-0.113,0.082-0.19,0.154-0.229l0.068,0.049c0.028-0.013,0.122-0.075,0.276-0.185
			c0.122-0.079,0.204-0.368,0.279-0.372c0.079-0.004,0.159,0.026,0.237,0.093c0.127,0.046,0.229,0.37,0.276,0.478
			c0.046,0.107,0.092,0.213,0.136,0.317c-0.331,0.029-0.604,0.044-0.818,0.038c-0.047,0.068-0.121,0.083-0.218,0.044
			c-0.099-0.039-0.168-0.026-0.21,0.035c0.008,0.105,0.019,0.298,0.033,0.575c0.009,0.25,0.019,0.444,0.034,0.586
			c0.02,0.219,0.056,0.42,0.103,0.602c0.059-0.005,0.339-0.021,0.839-0.049C362.701,319.141,363,319.143,363.254,319.17z
			 M362.911,314.994c-0.065,0.008-0.14,0.017-0.222,0.021c-0.167,0.009-0.391,0.005-0.675-0.015
			c-0.348-0.016-0.559-0.023-0.634-0.025c-0.094,0.131-0.106,0.236-0.094,0.461c0.028,0.485,0.045,0.695,0.048,0.63
			c0.105,0.041,0.163,0.128,0.17,0.259c0.003,0.177,0.007,0.268,0.016,0.274c-0.05,0.019-0.071,0.081-0.067,0.183
			c-0.081-0.021-0.169-0.062-0.262-0.129c-0.123-0.081-0.161,0.209-0.158,0.132l-0.057,0.181l-0.069-0.05
			c-0.058,0.009-0.16-0.009-0.307-0.054s-0.251-0.09-0.312-0.135c-0.005-0.093,0.009-0.146,0.044-0.161l-0.15-0.117l-0.061,0.086
			c-0.131-0.611-0.219-1.688-0.169-2.343c0.281,0.019,0.61-0.029,0.948-0.043c0.228-0.007,0.55-0.025,0.961-0.056
			c0.471-0.033,0.808-0.056,1.014-0.068c0.093,0.062,0.143,0.145,0.147,0.251c0.006,0.064-0.009,0.17-0.041,0.317
			C362.949,314.741,362.908,314.922,362.911,314.994z"></path>
		<path fill="#010101" d="M366.924,318.538l-0.011,0.002c-0.045,0.092-0.062,0.224-0.044,0.394c0.021,0.244,0.032,0.368,0.034,0.374
			c-0.037,0.015-0.087-0.004-0.147-0.054c-0.096,0.035-0.14,0.095-0.135,0.176c0.002,0.014,0.006,0.032,0.015,0.062
			c0.002,0.035,0.004,0.06,0.005,0.071c0.003,0.064-0.017,0.113-0.059,0.146c-0.107-0.06-0.247-0.097-0.422-0.114
			c-0.175-0.017-0.339-0.033-0.495-0.049c-0.003-0.805-0.111-1.595-0.325-2.367c0,0.007-0.006-0.072-0.014-0.24
			c0-0.116-0.027-0.202-0.082-0.252l-0.073,0.066c0-0.011,0.023-0.035,0.073-0.07c0.049-0.035,0.073-0.071,0.071-0.107
			c-0.003-0.018-0.006-0.036-0.015-0.054l-0.081-0.059c-0.138,0.045-0.201,0.154-0.189,0.333c0.006,0.119-0.042,0.202-0.142,0.249
			c0.038,0.027,0.06,0.062,0.062,0.103c0.001,0.024-0.002,0.057-0.012,0.098c-0.009,0.043-0.012,0.076-0.011,0.101
			c0.002,0.052,0.031,0.096,0.084,0.129c0.003,0.036,0.021,0.354,0.057,0.959c0.022,0.385,0.013,0.712-0.031,0.98l0.009,0.151
			c-0.051-0.003-0.11-0.003-0.177,0.002c-0.073,0.005-0.181,0.015-0.319,0.031c-0.14,0.018-0.241,0.028-0.309,0.032
			c-0.271,0.015-0.463-0.03-0.571-0.137l-0.115-3.315c-0.055-0.163-0.09-0.39-0.107-0.68l-0.037-0.639
			c-0.024-0.314-0.063-0.556-0.118-0.725c0.022-0.113,0.122-0.177,0.298-0.186c0.111-0.008,0.259,0.007,0.446,0.045
			c0.087-0.042,0.207-0.066,0.361-0.075c0.043-0.003,0.114-0.004,0.209-0.004c0.104-0.005,0.178-0.011,0.222-0.013
			c0.287-0.016,0.479-0.104,0.572-0.264c0.133-0.001,0.277,0.04,0.432,0.124c0.156,0.088,0.295,0.133,0.414,0.138
			c0.312,0.185,0.482,0.488,0.507,0.916c0.004,0.095-0.033,0.472-0.112,1.13l-0.538,0.466c0.091,0.167,0.201,0.531,0.331,1.095
			C366.54,317.978,366.706,318.32,366.924,318.538z M365.93,314.768l0.012,0.007c0.01,0.041,0.005-0.104-0.014-0.435
			c-0.01-0.161-0.068-0.275-0.176-0.346c-0.061,0.085-0.073-0.117-0.101,0.085c-0.029,0.201-0.077,0.344-0.146,0.432
			c-0.185-0.001-0.228-0.111-0.338-0.266c-0.068-0.099-0.102-0.013-0.102-0.019l-0.051,0.04c-0.028,0.026-0.059,0.055-0.094,0.086
			c-0.035,0.032-0.071,0.043-0.109,0.033c0.003,0.035-0.015,0.092-0.052,0.168c-0.035,0.075-0.053,0.128-0.052,0.159
			c0.005,0.054,0.047,0.091,0.13,0.117c-0.016,0.119-0.021,0.244-0.013,0.376c0.006,0.07,0.021,0.231,0.051,0.486
			c0.034,0.198,0.048,0.37,0.042,0.514c0.067,0.003,0.128,0.001,0.188-0.003c0.257-0.015,0.425-0.116,0.503-0.305
			c0.024-0.055,0.055-0.253,0.087-0.593C365.725,315.048,365.805,314.869,365.93,314.768z"></path>
	</g>
	<g>
		<path fill="#010101" d="M330.335,303.245v0.008c-0.033,0.309-0.044,0.521-0.032,0.638c-0.047,0.02-0.11,0.022-0.185,0.009
			c-0.099-0.016-0.155-0.022-0.17-0.022c-0.044,0.002-0.078,0.018-0.104,0.044c-0.062-0.038-0.102-0.055-0.123-0.049
			c-0.058,0.035-0.085,0.084-0.082,0.148c0.002,0.028,0.012,0.074,0.032,0.14c0.019,0.068,0.03,0.115,0.031,0.147
			c0.002,0.044-0.007,0.11-0.027,0.203c-0.018,0.092-0.025,0.167-0.024,0.227c0.004,0.069,0.019,0.181,0.046,0.329
			c0.026,0.148,0.041,0.261,0.045,0.335c-0.031,0.146-0.042,0.295-0.035,0.445c0.01,0.182,0.061,0.427,0.151,0.733
			c0.017,0.006,0.032,0.008,0.049,0.006c0.036-0.002,0.082-0.028,0.133-0.08c0.051-0.049,0.095-0.075,0.133-0.078
			c0.027-0.002,0.057,0.004,0.088,0.019c0.099,0.312,0.149,0.515,0.152,0.606c0.002,0.042,0.002,0.089-0.001,0.135
			c-0.144,0.035-0.245-0.013-0.305-0.145c0.008-0.037-0.014-0.078-0.062-0.119l-0.161,0.171c0.157,0.024,0.219,0.145,0.188,0.36
			c-0.015,0.045-0.048,0.068-0.102,0.07c-0.092-0.001-0.134-0.001-0.129-0.001l-0.133-0.236l-0.053,0.067
			c-0.043-0.111-0.095-0.164-0.153-0.16c-0.032,0.002-0.089,0.027-0.169,0.08c-0.081,0.053-0.148,0.08-0.201,0.081
			c-0.044,0.005-0.086-0.007-0.13-0.031c-0.004-0.064-0.012-0.13-0.023-0.2c-0.012-0.069-0.048-0.113-0.107-0.132
			c-0.003-0.169,0.002-0.604,0.015-1.314c0.005-0.538,0-0.973-0.018-1.306c-0.007-0.139-0.017-0.275-0.029-0.408
			c-0.027-0.041-0.056-0.062-0.082-0.06c-0.022,0-0.056,0.023-0.097,0.068c-0.045,0.045-0.082,0.065-0.114,0.062
			c-0.003-0.053-0.028-0.139-0.073-0.258c-0.047-0.117-0.071-0.203-0.075-0.257c-0.004-0.092,0.03-0.171,0.102-0.238l0.188,0.045
			c0.074-0.105,0.106-0.283,0.093-0.535c-0.002-0.048-0.008-0.126-0.019-0.229c-0.012-0.104-0.019-0.18-0.021-0.228
			c-0.02-0.414,0.107-0.626,0.38-0.641c0.102-0.005,0.226,0.014,0.374,0.054l0.179,0.048c0.016,0.068,0.023,0.141,0.027,0.217
			c0.005,0.102,0.002,0.25-0.014,0.447c-0.015,0.197-0.019,0.341-0.015,0.431c0.008,0.146,0.031,0.277,0.076,0.393
			c0.042-0.002,0.11-0.026,0.203-0.07c0.091-0.045,0.156-0.069,0.2-0.071C330.227,303.137,330.287,303.171,330.335,303.245z
			 M329.774,303.82l-0.009-0.185l-0.059-0.054L329.774,303.82z"></path>
		<path fill="#010101" d="M332.544,302.666l0.01-0.001c-0.021,0.146-0.042,0.293-0.067,0.439c-0.028,0.167-0.076,0.298-0.142,0.394
			c-0.011-0.005-0.077-0.035-0.197-0.096c-0.083-0.043-0.157-0.061-0.22-0.053c-0.051,0.315-0.076,0.742-0.081,1.286
			c-0.003,0.692-0.01,1.111-0.017,1.257c-0.082-0.006-0.142,0.02-0.182,0.078c-0.04,0.058-0.078,0.117-0.113,0.179
			c-0.014,0.033-0.02,0.063-0.02,0.089c0.003,0.043,0.04,0.086,0.111,0.124c0.072,0.039,0.109,0.082,0.112,0.131
			c-0.032,0.115-0.101,0.175-0.202,0.18c-0.047,0.002-0.132-0.013-0.252-0.043c-0.117-0.033-0.202-0.048-0.251-0.044l-0.116-2.299
			c0.045-0.061,0.064-0.104,0.059-0.124l-0.066-0.044c0.006-0.097,0.012-0.58,0.015-1.443c0.004-0.587,0.025-1.061,0.066-1.422
			c-0.004,0,0.161-0.011,0.498-0.033c0.209-0.011,0.345,0.048,0.404,0.173c0,0.118-0.012,0.316-0.036,0.599
			c-0.022,0.258-0.033,0.458-0.025,0.597c0.009,0.172,0.035,0.325,0.08,0.464C332.093,302.808,332.304,302.679,332.544,302.666z
			 M333.344,303.157c0.015,0.214,0.028,0.423,0.039,0.627c0.045,0.891,0.031,1.842-0.042,2.854c-0.076,0.07-0.195,0.083-0.356,0.046
			c-0.159-0.039-0.275-0.022-0.348,0.044c-0.093-0.117-0.146-0.33-0.161-0.644c-0.023-0.45-0.034-0.683-0.035-0.699
			c-0.02-1.126,0.092-2.037,0.329-2.73C333.049,302.726,333.238,302.894,333.344,303.157z"></path>
		<path fill="#010101" d="M336.164,304.325c-0.035,0.071-0.05,0.146-0.045,0.227c0.003,0.082,0.007,0.159,0.012,0.234
			c-0.009,0.064-0.026,0.129-0.055,0.196c-0.049-0.015-0.09-0.021-0.122-0.019c-0.038,0.002-0.075,0.016-0.113,0.041
			c-0.04,0.028-0.07,0.041-0.092,0.041c-0.033,0.003-0.076-0.009-0.131-0.033l-0.374-0.545c0.014,0.16,0.051,0.302,0.109,0.422
			c0.03,0.062,0.061,0.125,0.091,0.188c-0.219,0.039-0.342,0.047-0.371,0.019l-0.052,0.068l-0.129-0.17
			c-0.102,0.122-0.126,0.303-0.07,0.542c0.067,0.261,0.071,0.448,0.013,0.564c0.081,0.119,0.177,0.175,0.29,0.17
			c0.049-0.002,0.09-0.02,0.127-0.054c0.053-0.134,0.104-0.265,0.157-0.396c0.078-0.159,0.165-0.241,0.262-0.247
			c0.074-0.003,0.162,0.035,0.264,0.117c0.12,0.043,0.182,0.099,0.186,0.167c0.002,0.044-0.025,0.114-0.082,0.208
			c-0.058,0.099-0.084,0.174-0.082,0.229c0.002,0.02,0.005,0.038,0.011,0.056c-0.077,0.057-0.146,0.144-0.208,0.259
			c-0.062,0.117-0.142,0.196-0.242,0.239c-0.087,0.084-0.168,0.129-0.243,0.132c-0.059,0.004-0.147-0.042-0.264-0.136
			c-0.117-0.094-0.227-0.135-0.33-0.133c-0.041-0.094-0.146-0.199-0.313-0.312c-0.166-0.115-0.27-0.24-0.309-0.372
			c0.001,0.011-0.001-0.033-0.006-0.128c-0.004-0.054-0.026-0.089-0.069-0.102l0.06-0.06c-0.081-0.002-0.121-0.047-0.126-0.14
			c-0.002-0.01-0.002-0.031-0.005-0.064c0.005-0.026,0.006-0.048,0.006-0.064c-0.003-0.064-0.025-0.107-0.063-0.134l-0.014-0.279
			c-0.008-0.146-0.036-0.249-0.09-0.312c0.054-0.339,0.106-0.683,0.158-1.022c0.088-0.396,0.219-0.601,0.389-0.607
			c0.029-0.001,0.054,0.003,0.081,0.011c0.156-0.152,0.341-0.234,0.561-0.246c0.241-0.011,0.509,0.062,0.801,0.219
			C335.968,303.473,336.109,303.882,336.164,304.325z M335.056,303.438l-0.054,0.067c-0.036,0.007-0.082-0.012-0.131-0.058
			l0.008,0.184c-0.081,0.091-0.113,0.229-0.099,0.418c0.016,0.321,0.023,0.476,0.023,0.465l0.241-0.003
			c0.115-0.064,0.168-0.173,0.16-0.323c-0.004-0.075-0.028-0.198-0.079-0.37C335.078,303.646,335.054,303.521,335.056,303.438z"></path>
	</g>
	<g>
		<polygon fill-rule="evenodd" clip-rule="evenodd" fill="#010101" points="338.052,312.433 338.292,312.571 339.104,310.438 
			338.832,310.35 338.021,312.482 338.257,312.633 338.052,312.433 338.052,312.433 		"></polygon>
		<polygon fill-rule="evenodd" clip-rule="evenodd" fill="#010101" points="338.408,312.139 338.31,312.178 338.052,312.433 
			338.257,312.633 338.519,312.361 338.416,312.413 338.408,312.139 338.408,312.139 		"></polygon>
		<polygon fill-rule="evenodd" clip-rule="evenodd" fill="#010101" points="340.372,312.122 340.488,312.031 338.408,312.139 
			338.416,312.413 340.498,312.308 340.63,312.208 340.372,312.122 340.372,312.122 340.372,312.122 		"></polygon>
		<polygon fill-rule="evenodd" clip-rule="evenodd" fill="#010101" points="341.313,310.162 341.171,309.985 340.372,312.122 
			340.63,312.208 341.441,310.075 341.302,309.899 341.313,310.162 341.313,310.162 341.313,310.162 		"></polygon>
		<polygon fill-rule="evenodd" clip-rule="evenodd" fill="#010101" points="339.33,310.229 339.228,310.281 341.313,310.162 
			341.302,309.899 339.224,309.993 339.12,310.045 339.33,310.229 339.33,310.229 339.33,310.229 		"></polygon>
		<polygon fill-rule="evenodd" clip-rule="evenodd" fill="#010101" points="339.104,310.438 339.073,310.485 339.33,310.229 
			339.12,310.045 338.862,310.302 338.832,310.35 339.104,310.438 339.104,310.438 339.104,310.438 		"></polygon>
		<polygon fill-rule="evenodd" clip-rule="evenodd" fill="#010101" points="340.832,312.375 341.018,312.293 340.571,312.045 
			340.429,312.299 340.888,312.551 341.091,312.462 340.818,312.371 340.818,312.371 340.832,312.375 		"></polygon>
		<polygon fill-rule="evenodd" clip-rule="evenodd" fill="#010101" points="341.703,310.407 341.63,310.238 340.818,312.371 
			341.091,312.462 341.9,310.329 341.827,310.162 341.703,310.407 341.703,310.407 		"></polygon>
		<polygon fill-rule="evenodd" clip-rule="evenodd" fill="#010101" points="341.441,310.075 341.241,310.166 341.703,310.407 
			341.827,310.162 341.382,309.913 341.171,309.985 341.441,310.075 341.441,310.075 		"></polygon>
		<polygon fill="#010101" points="338.975,310.398 338.961,310.393 339.219,310.134 341.15,310.041 341.171,309.985 
			341.313,310.032 341.441,310.075 341.434,310.099 341.772,310.286 341.9,310.329 341.849,310.467 342.794,312.715 
			341.994,314.851 340.961,312.419 340.961,312.419 340.827,312.474 340.818,312.371 340.828,312.345 340.503,312.166 
			340.429,312.299 340.389,312.17 338.408,312.267 338.149,312.525 		"></polygon>
		<polygon fill-rule="evenodd" clip-rule="evenodd" fill="#010101" points="341.865,314.809 342.127,314.795 341.094,312.363 
			340.827,312.474 341.86,314.907 342.123,314.894 341.853,314.804 341.853,314.804 341.865,314.809 		"></polygon>
		<polygon fill-rule="evenodd" clip-rule="evenodd" fill="#010101" points="342.673,312.775 342.664,312.672 341.853,314.804 
			342.123,314.894 342.936,312.763 342.927,312.66 342.673,312.775 342.673,312.775 		"></polygon>
		<polygon fill-rule="evenodd" clip-rule="evenodd" fill="#010101" points="341.9,310.329 341.639,310.342 342.673,312.775 
			342.927,312.66 341.893,310.227 341.63,310.238 341.9,310.329 341.9,310.329 		"></polygon>
		<polygon fill-rule="evenodd" clip-rule="evenodd" fill="#FFFFFF" points="341.833,310.879 341.948,311.132 341.99,311.388 
			341.979,311.641 341.905,311.904 341.777,312.161 341.601,312.39 341.373,312.598 341.098,312.779 340.948,312.845 
			340.798,312.907 340.63,312.938 340.476,312.972 340.326,312.991 340.162,313.009 340.013,312.989 339.858,312.98 339.725,312.95 
			339.584,312.902 339.445,312.843 339.326,312.773 339.224,312.697 339.106,312.614 339.013,312.512 338.936,312.399 
			338.818,312.147 338.775,311.89 338.775,311.633 338.863,311.375 338.975,311.126 339.154,310.886 339.383,310.676 339.669,310.5 
			339.807,310.432 339.971,310.371 340.124,310.337 340.278,310.303 340.441,310.284 340.592,310.264 340.742,310.284 
			340.896,310.295 341.038,310.34 341.18,310.389 341.308,310.432 341.44,310.506 341.549,310.568 341.66,310.663 341.738,310.775 
			341.833,310.879 341.833,310.879 341.833,310.879 		"></polygon>
		<polygon fill-rule="evenodd" clip-rule="evenodd" fill="#010101" points="341.934,311.299 342.051,311.554 342.089,311.822 
			342.078,312.075 342.007,312.324 341.893,312.586 341.699,312.821 341.488,313.023 341.201,313.199 341.047,313.275 
			340.896,313.34 340.741,313.374 340.575,313.405 340.425,313.426 340.278,313.436 340.124,313.426 339.96,313.4 339.827,313.37 
			339.686,313.324 339.562,313.268 339.429,313.193 339.322,313.129 339.222,313.039 339.124,312.949 339.038,312.821 
			338.918,312.581 338.876,312.322 338.892,312.056 338.961,311.808 339.077,311.546 339.254,311.318 339.48,311.107 
			339.768,310.933 339.923,310.856 340.068,310.803 340.228,310.757 340.395,310.729 340.54,310.719 340.69,310.698 
			340.842,310.719 340.995,310.729 341.142,310.762 341.283,310.809 341.407,310.864 341.545,310.927 341.646,311.002 
			341.764,311.082 341.84,311.195 341.931,311.312 341.931,311.312 341.934,311.299 		"></polygon>
		<polygon fill-rule="evenodd" clip-rule="evenodd" fill="#FFFFFF" points="342.007,311.595 342.129,311.836 342.167,312.105 
			342.153,312.359 342.085,312.606 341.957,312.865 341.775,313.104 341.565,313.307 341.279,313.481 341.137,313.563 
			340.974,313.624 340.818,313.658 340.651,313.688 340.502,313.71 340.355,313.718 340.2,313.71 340.037,313.685 339.905,313.652 
			339.764,313.606 339.639,313.551 339.506,313.478 339.399,313.412 339.287,313.318 339.205,313.22 339.115,313.104 
			338.996,312.865 338.952,312.604 338.965,312.354 339.038,312.091 339.154,311.83 339.334,311.59 339.57,311.397 339.845,311.215 
			340,311.139 340.149,311.074 340.306,311.041 340.472,311.01 340.621,310.99 340.769,310.981 340.936,310.993 341.073,311.01 
			341.219,311.046 341.359,311.093 341.496,311.152 341.617,311.221 341.725,311.287 341.84,311.367 341.917,311.479 
			342.007,311.595 342.007,311.595 		"></polygon>
		<polygon fill-rule="evenodd" clip-rule="evenodd" fill="#010101" points="342.11,312.014 342.227,312.269 342.271,312.527 
			342.271,312.781 342.183,313.039 342.072,313.288 341.879,313.524 341.664,313.742 341.378,313.916 341.239,313.983 
			341.076,314.044 340.922,314.079 340.769,314.111 340.604,314.13 340.454,314.15 340.304,314.13 340.149,314.121 340.004,314.087 
			339.861,314.039 339.737,313.983 339.604,313.911 339.501,313.833 339.399,313.757 339.305,313.652 339.213,313.537 
			339.111,313.288 339.055,313.026 339.068,312.773 339.141,312.512 339.266,312.267 339.445,312.027 339.674,311.817 
			339.948,311.637 340.099,311.572 340.249,311.509 340.416,311.479 340.571,311.443 340.721,311.423 340.88,311.419 
			341.033,311.427 341.176,311.431 341.322,311.465 341.463,311.513 341.601,311.572 341.721,311.641 341.837,311.723 
			341.939,311.802 342.034,311.904 342.105,312.028 342.105,312.028 342.11,312.014 		"></polygon>
		<polygon fill-rule="evenodd" clip-rule="evenodd" fill="#FFFFFF" points="342.261,312.293 342.382,312.535 342.424,312.793 
			342.42,313.062 342.351,313.311 342.223,313.568 342.029,313.804 341.818,314.006 341.545,314.186 341.39,314.264 
			341.227,314.323 341.072,314.357 340.917,314.39 340.754,314.408 340.609,314.418 340.454,314.408 340.304,314.387 
			340.158,314.353 340.017,314.306 339.892,314.249 339.768,314.194 339.65,314.111 339.553,314.022 339.459,313.918 
			339.382,313.809 339.26,313.567 339.21,313.293 339.222,313.039 339.305,312.794 339.421,312.534 339.6,312.293 339.824,312.096 
			340.099,311.918 340.253,311.84 340.402,311.774 340.565,311.758 340.725,311.709 340.875,311.689 341.033,311.686 
			341.189,311.693 341.325,311.709 341.472,311.745 341.626,311.797 341.75,311.852 341.875,311.908 341.99,311.99 342.089,312.08 
			342.185,312.184 342.261,312.293 342.261,312.293 		"></polygon>
		<polygon fill-rule="evenodd" clip-rule="evenodd" fill="#010101" points="342.377,312.72 342.48,312.967 342.537,313.229 
			342.521,313.482 342.449,313.744 342.325,313.989 342.145,314.229 341.917,314.44 341.643,314.62 341.493,314.684 
			341.328,314.743 341.176,314.777 341.021,314.812 340.87,314.834 340.708,314.85 340.558,314.83 340.402,314.82 340.271,314.789 
			340.115,314.738 339.99,314.682 339.871,314.615 339.754,314.533 339.65,314.455 339.557,314.352 339.479,314.241 
			339.364,313.989 339.309,313.727 339.322,313.473 339.407,313.214 339.519,312.965 339.699,312.726 339.927,312.516 
			340.215,312.34 340.353,312.272 340.515,312.213 340.67,312.178 340.824,312.145 340.987,312.126 341.137,312.105 
			341.287,312.126 341.43,312.131 341.588,312.17 341.729,312.217 341.854,312.273 341.974,312.341 342.089,312.423 342.191,312.5 
			342.286,312.604 342.377,312.72 342.377,312.72 342.377,312.72 		"></polygon>
		<polygon fill-rule="evenodd" clip-rule="evenodd" fill="#010101" points="328.189,309.445 328.204,309.363 327.388,311.507 
			327.646,311.593 328.461,309.448 328.465,309.393 328.189,309.445 328.189,309.445 328.189,309.445 		"></polygon>
		<polygon fill-rule="evenodd" clip-rule="evenodd" fill="#010101" points="328.168,309.335 328.173,309.324 328.189,309.445 
			328.465,309.393 328.435,309.269 328.439,309.256 328.168,309.335 328.168,309.335 328.168,309.335 		"></polygon>
		<polygon fill-rule="evenodd" clip-rule="evenodd" fill="#010101" points="328.139,309.213 328.168,309.335 328.439,309.256 
			328.409,309.13 328.139,309.213 328.139,309.213 328.139,309.213 		"></polygon>
		<polygon fill-rule="evenodd" clip-rule="evenodd" fill="#010101" points="328.104,309.102 328.139,309.213 328.409,309.13 
			328.376,309.02 328.104,309.102 328.104,309.102 		"></polygon>
		<polygon fill-rule="evenodd" clip-rule="evenodd" fill="#010101" points="328.074,308.977 328.074,308.977 328.104,309.102 
			328.376,309.02 328.344,308.896 328.341,308.908 328.074,308.977 328.074,308.977 328.074,308.977 		"></polygon>
		<polygon fill-rule="evenodd" clip-rule="evenodd" fill="#010101" points="328.04,308.822 328.04,308.865 328.074,308.977 
			328.341,308.908 328.307,308.797 328.32,308.843 328.04,308.822 328.04,308.822 		"></polygon>
		<polygon fill-rule="evenodd" clip-rule="evenodd" fill="#010101" points="328.314,308.771 328.045,308.724 328.04,308.822 
			328.32,308.843 328.323,308.745 328.054,308.696 328.311,308.783 328.311,308.783 328.314,308.771 		"></polygon>
		<polygon fill-rule="evenodd" clip-rule="evenodd" fill="#4D494A" points="328.549,315.013 328.523,314.875 328.236,314.923 
			328.257,315.074 328.549,315.013 328.549,315.013 328.549,315.013 		"></polygon>
		<polygon fill-rule="evenodd" clip-rule="evenodd" fill="#010101" points="329.146,313.226 329.155,313.156 328.343,315.289 
			328.602,315.374 329.412,313.241 329.407,313.168 329.146,313.226 329.146,313.226 329.146,313.226 		"></polygon>
		<polygon fill-rule="evenodd" clip-rule="evenodd" fill="#010101" points="329.125,313.074 329.146,313.226 329.407,313.168 
			329.386,313.02 329.112,313.07 329.112,313.07 329.125,313.074 		"></polygon>
		<polygon fill-rule="evenodd" clip-rule="evenodd" fill="#010101" points="329.087,312.934 329.112,313.07 329.386,313.02 
			329.349,312.878 329.087,312.934 329.087,312.934 329.087,312.934 		"></polygon>
		<polygon fill-rule="evenodd" clip-rule="evenodd" fill="#010101" points="329.053,312.779 329.062,312.794 329.087,312.934 
			329.349,312.878 329.327,312.726 329.335,312.744 329.053,312.779 329.053,312.779 329.053,312.779 		"></polygon>
		<polygon fill-rule="evenodd" clip-rule="evenodd" fill="#010101" points="329.31,312.649 329.035,312.614 329.053,312.779 
			329.335,312.744 329.313,312.596 329.039,312.561 329.31,312.649 329.31,312.649 		"></polygon>
		<g>
			<polygon fill="#4D494A" points="327.388,311.082 327.258,311.121 327.388,311.082 			"></polygon>
			<polygon fill="#4D494A" points="327.523,311.529 327.529,311.518 327.597,311.521 327.646,311.593 327.524,311.554 			"></polygon>
			<polygon fill="#010101" points="327.228,310.998 327.367,310.97 327.37,310.873 328.188,308.729 328.183,308.741 
				328.183,308.827 328.204,308.934 328.246,309.063 328.281,309.176 328.311,309.298 328.332,309.406 328.332,309.406 
				328.461,309.448 327.646,311.593 327.597,311.521 327.529,311.518 327.523,311.529 327.524,311.554 327.646,311.593 
				327.525,311.587 327.529,311.684 327.445,311.581 327.379,311.576 327.361,311.457 327.41,311.445 327.464,311.309 
				327.327,311.346 327.288,311.246 327.258,311.121 327.388,311.082 327.388,311.082 327.258,311.121 327.263,311.107 			"></polygon>
		</g>
		<g>
			<polygon fill="none" points="333.871,311.583 333.871,311.583 333.987,311.321 			"></polygon>
			<polygon fill="#010101" points="327.521,311.41 333.494,311.214 333.647,311.221 333.674,311.232 333.819,311.267 
				333.833,311.271 333.987,311.321 334.138,311.387 334.15,311.39 334.292,311.48 334.318,311.488 334.43,311.583 334.464,311.609 
				334.546,311.708 334.554,311.725 334.61,311.815 334.613,311.845 334.351,311.924 334.309,311.858 334.306,311.871 
				334.236,311.776 334.237,311.776 334.146,311.703 334.168,311.725 334.021,311.648 334.022,311.646 333.871,311.583 
				333.871,311.583 333.742,311.539 333.597,311.507 333.623,311.515 333.485,311.497 333.485,311.484 327.529,311.684 			"></polygon>
			<polygon fill="#010101" points="334.345,311.927 334.351,311.924 334.365,311.947 			"></polygon>
		</g>
		<polygon fill-rule="evenodd" clip-rule="evenodd" fill="#010101" points="337.536,316.938 337.536,316.854 336.719,318.999 
			336.989,319.088 337.805,316.942 337.805,316.859 337.536,316.938 337.536,316.938 337.536,316.938 		"></polygon>
		<polygon fill-rule="evenodd" clip-rule="evenodd" fill="#010101" points="335.178,309.814 335.16,309.781 337.536,316.938 
			337.805,316.859 335.43,309.699 335.425,309.672 335.178,309.814 335.178,309.814 335.178,309.814 		"></polygon>
		<polygon fill-rule="evenodd" clip-rule="evenodd" fill="#010101" points="335.128,309.744 335.122,309.728 335.178,309.814 
			335.425,309.672 335.371,309.58 335.356,309.574 335.116,309.739 335.116,309.739 335.128,309.744 		"></polygon>
		<polygon fill-rule="evenodd" clip-rule="evenodd" fill="#010101" points="335.073,309.653 335.052,309.632 335.116,309.739 
			335.356,309.574 335.267,309.461 335.245,309.438 335.073,309.653 335.073,309.653 335.073,309.653 		"></polygon>
		<polygon fill-rule="evenodd" clip-rule="evenodd" fill="#010101" points="334.979,309.594 334.958,309.571 335.073,309.653 
			335.245,309.438 335.128,309.357 335.107,309.335 334.979,309.594 334.979,309.594 		"></polygon>
		<polygon fill-rule="evenodd" clip-rule="evenodd" fill="#010101" points="334.851,309.506 334.838,309.503 334.979,309.594 
			335.107,309.335 334.963,309.258 334.949,309.254 334.851,309.506 334.851,309.506 		"></polygon>
		<polygon fill-rule="evenodd" clip-rule="evenodd" fill="#010101" points="334.714,309.447 334.683,309.45 334.851,309.506 
			334.949,309.254 334.8,309.189 334.786,309.186 334.697,309.455 334.697,309.455 334.714,309.447 		"></polygon>
		<polygon fill-rule="evenodd" clip-rule="evenodd" fill="#010101" points="334.559,309.396 334.542,309.404 334.697,309.455 
			334.786,309.186 334.631,309.135 334.631,309.135 334.554,309.408 334.554,309.408 334.559,309.396 		"></polygon>
		<polygon fill-rule="evenodd" clip-rule="evenodd" fill="#010101" points="334.439,309.369 334.413,309.361 334.554,309.408 
			334.631,309.135 334.474,309.096 334.46,309.091 334.439,309.369 334.439,309.369 334.439,309.369 		"></polygon>
		<polygon fill-rule="evenodd" clip-rule="evenodd" fill="#010101" points="334.301,309.352 334.297,309.363 334.439,309.369 
			334.46,309.091 334.31,309.067 334.292,309.078 334.301,309.352 334.301,309.352 		"></polygon>
		<polygon fill-rule="evenodd" clip-rule="evenodd" fill="#010101" points="328.474,309.453 328.327,309.545 334.301,309.352 
			334.292,309.078 328.332,309.277 328.204,309.363 328.461,309.448 328.461,309.448 328.474,309.453 		"></polygon>
		<polygon fill="#4D494A" points="329.975,315.975 329.954,315.964 329.966,315.958 		"></polygon>
		<g>
			<polygon fill="#4D494A" points="333.2,316.938 333.176,317.229 333.2,316.938 			"></polygon>
			<g>
				<polygon fill="none" points="333.188,317.078 333.176,317.229 333.188,317.078 				"></polygon>
				<g>
					<polygon fill="none" points="328.348,314.756 328.357,314.733 328.361,314.762 					"></polygon>
					<path fill="#010101" d="M328.257,315.074l0.025,0.137l0.053,0.147l0.063,0.105l0.365,0.194l0.365,0.192l0.351,0.189
						l0.357,0.175l0.013,0.005l0.36,0.162l0.36,0.165l0.391,0.158l0.396,0.146l0.012,0.005l0.421,0.111l0.42,0.111l0.014,0.005
						l0.464,0.069l0.476,0.073l0.014,0.003l0.519,0.03l0.018-0.008l0.553,0.013l0.593-0.019l0.628-0.033l0.128-0.085l0.811-2.132
						l-0.137-0.189l0.009,0.275l-0.044-0.054l0.032-0.08l-0.091,0.006l-0.039-0.049l-0.021,0.055l-0.465,0.025h-0.601l-0.554-0.011
						l-0.507-0.026l-0.493-0.064l-0.459-0.08l-0.421-0.113l-0.421-0.111l-0.395-0.147l-0.382-0.143l-0.36-0.162l-0.355-0.175
						l-0.37-0.182L330,313.581l-0.352-0.188l-0.244-0.13l0.008-0.021l-0.128-0.043l0,0l-0.033-0.153l-0.027-0.138l-0.011-0.048
						l0.097-0.21l-0.135-0.045l-0.008-0.003l0,0l-0.128-0.041l-0.812,2.133l-0.008,0.068l0.021,0.148L328.257,315.074z
						 M328.357,314.733l0.004,0.028l-0.014-0.006L328.357,314.733z"></path>
				</g>
			</g>
		</g>
		<polygon fill-rule="evenodd" clip-rule="evenodd" fill="#010101" points="335.669,315.114 336.296,315.081 336.287,314.806 
			335.66,314.841 335.669,315.114 335.669,315.114 335.669,315.114 		"></polygon>
		<polygon fill-rule="evenodd" clip-rule="evenodd" fill="#010101" points="335.077,315.133 335.669,315.114 335.66,314.841 
			335.068,314.858 335.077,315.133 335.077,315.133 335.077,315.133 		"></polygon>
		<polygon fill-rule="evenodd" clip-rule="evenodd" fill="#010101" points="334.512,315.114 334.523,315.118 335.077,315.133 
			335.068,314.858 334.516,314.845 334.532,314.836 334.506,315.126 334.506,315.126 334.512,315.114 		"></polygon>
		<polygon fill-rule="evenodd" clip-rule="evenodd" fill="#010101" points="333.979,315.081 333.991,315.083 334.506,315.126 
			334.532,314.836 334.014,314.805 334.025,314.81 333.979,315.081 333.979,315.081 333.979,315.081 		"></polygon>
		<polygon fill-rule="evenodd" clip-rule="evenodd" fill="#010101" points="333.497,315.02 333.979,315.081 334.025,314.81 
			333.549,314.735 333.497,315.02 333.497,315.02 		"></polygon>
		<polygon fill-rule="evenodd" clip-rule="evenodd" fill="#010101" points="333.025,314.934 333.038,314.939 333.497,315.02 
			333.549,314.735 333.072,314.663 333.086,314.667 333.025,314.934 333.025,314.934 333.025,314.934 		"></polygon>
		<polygon fill-rule="evenodd" clip-rule="evenodd" fill="#010101" points="332.605,314.821 333.025,314.934 333.086,314.667 
			332.666,314.556 332.599,314.835 332.599,314.835 332.605,314.821 		"></polygon>
		<polygon fill-rule="evenodd" clip-rule="evenodd" fill="#010101" points="332.167,314.719 332.18,314.723 332.599,314.835 
			332.666,314.556 332.245,314.444 332.257,314.449 332.167,314.719 332.167,314.719 		"></polygon>
		<polygon fill-rule="evenodd" clip-rule="evenodd" fill="#010101" points="331.772,314.572 331.772,314.572 332.167,314.719 
			332.257,314.449 331.862,314.303 331.876,314.307 331.761,314.568 331.761,314.568 331.772,314.572 		"></polygon>
		<polygon fill-rule="evenodd" clip-rule="evenodd" fill="#010101" points="331.382,314.414 331.761,314.568 331.876,314.307 
			331.498,314.151 331.382,314.414 331.382,314.414 		"></polygon>
		<polygon fill-rule="evenodd" clip-rule="evenodd" fill="#010101" points="331.021,314.25 331.382,314.414 331.498,314.151 
			331.133,314.001 331.021,314.25 331.021,314.25 		"></polygon>
		<polygon fill-rule="evenodd" clip-rule="evenodd" fill="#010101" points="330.653,314.069 330.66,314.088 331.021,314.25 
			331.133,314.001 330.766,313.823 330.777,313.826 330.648,314.084 330.648,314.084 330.653,314.069 		"></polygon>
		<polygon fill-rule="evenodd" clip-rule="evenodd" fill="#010101" points="330.297,313.895 330.648,314.084 330.777,313.826 
			330.421,313.649 330.293,313.907 330.293,313.907 330.297,313.895 		"></polygon>
		<polygon fill-rule="evenodd" clip-rule="evenodd" fill="#010101" points="329.944,313.705 330.293,313.907 330.421,313.649 
			330.069,313.462 329.932,313.703 329.932,313.703 329.944,313.705 		"></polygon>
		<polygon fill-rule="evenodd" clip-rule="evenodd" fill="#010101" points="329.58,313.512 329.932,313.703 330.069,313.462 
			329.717,313.271 329.58,313.512 329.58,313.512 		"></polygon>
		<polygon fill-rule="evenodd" clip-rule="evenodd" fill="#010101" points="329.412,313.241 329.215,313.318 329.58,313.512 
			329.717,313.271 329.353,313.078 329.155,313.156 329.412,313.241 329.412,313.241 329.412,313.241 		"></polygon>
		<polygon fill-rule="evenodd" clip-rule="evenodd" fill="#010101" points="366.611,309.378 365.795,311.522 368.46,312.412 
			369.078,310.986 369.095,310.852 369.1,310.708 369.078,310.558 369.026,310.412 368.941,310.283 368.872,310.146 
			368.761,310.009 368.646,309.885 368.524,309.773 368.392,309.656 368.255,309.553 368.121,309.48 367.992,309.395 
			367.842,309.33 367.708,309.258 367.581,309.215 367.465,309.176 367.326,309.159 367.203,309.147 367.082,309.163 
			366.962,309.182 366.833,309.222 366.721,309.3 366.611,309.378 366.611,309.378 366.611,309.378 		"></polygon>
		<polygon fill-rule="evenodd" clip-rule="evenodd" fill="#010101" points="368.34,312.343 368.507,312.271 365.842,311.382 
			365.752,311.652 368.418,312.54 368.597,312.471 368.34,312.343 368.34,312.343 		"></polygon>
		<g>
			<polygon fill="none" points="368.854,312.961 368.87,313.106 368.854,312.961 			"></polygon>
			<polygon fill="none" points="370.229,311.525 370.327,311.618 370.22,311.543 			"></polygon>
			<g>
				<polygon fill="none" points="370.327,311.618 370.22,311.543 370.229,311.525 				"></polygon>
				<g>
					<polygon fill="none" points="370.327,311.618 370.22,311.543 370.229,311.525 					"></polygon>
					<polygon fill="#010101" points="327.228,310.869 327.241,310.829 328.054,308.696 328.311,308.783 327.522,310.891 
						327.507,310.976 327.503,310.945 327.228,310.998 327.225,310.967 					"></polygon>
					<g>
						<polygon fill="none" points="370.327,311.618 370.22,311.543 370.229,311.525 						"></polygon>
						<polygon fill="#4D494A" points="340.295,315.916 340.248,315.943 340.243,315.939 						"></polygon>
						<g>
							<polygon fill="none" points="340.347,316.04 340.448,316.139 340.347,316.04 							"></polygon>
							<polygon fill="none" points="370.327,311.618 370.22,311.543 370.229,311.525 							"></polygon>
							<polygon fill="none" points="336.849,319.041 336.857,319.041 336.857,319.046 336.719,318.999 336.835,318.999 							"></polygon>
							<path fill="#010101" d="M327.327,311.346l0.029,0.124l0.005-0.013l0.208-0.044l-0.053,0.139l5.974-0.196l0.141,0.005
								l0.155,0.052l0.154,0.051l0.154,0.053l0.142,0.089l0.115,0.082l0.082,0.099l0.051,0.099l-0.14,0.043l2.374,7.157l0.14,0.002
								l0.003,0.088h0.214l0.202-0.004l0.186,0.004l0.167-0.029l0.17-0.044l0.174-0.083l0.156-0.134l0.189-0.181l0.004-0.015
								l0.108-0.148l0.124-0.159l0.143-0.166l0.099-0.169l0.125-0.201l0.129-0.172l0.105-0.191l0.138-0.199l0.111-0.163l0.16-0.175
								l0.129-0.172l0.15-0.151l0.131-0.141l0.145-0.125l0.137-0.11l0.158-0.089l0.033-0.018l-0.102-0.099l0,0l0.102,0.099
								l0.16-0.176l0.146-0.14l0.129-0.127l0.138-0.111l0.134-0.099l0.14-0.082l0.125-0.072l0.138-0.068l0.153-0.036l0.15-0.062
								l0.155-0.034l0.181-0.026l0.196-0.035l0.22-0.013l0.236-0.021l0.23-0.009l0.014,0.006l25.777-1.927l0.151-0.021l0.138-0.027
								l0.124-0.029l0.129-0.043l0.119-0.061l0.127-0.073l0.103-0.094l0.12-0.103l0.025-0.034l0.45-1.05l-0.234-0.152l0.104,0.102
								l-0.017,0.015l-0.114-0.081l-0.112,0.264l-0.076,0.045l-0.099,0.039l-0.115,0.046l-0.108,0.022l-0.137,0.026l-0.138,0.025
								l-25.792,1.921l-0.164,0.017l-0.157,0.005l-0.158,0.005l-0.169,0.026h-0.171l-0.149,0.023l-0.163,0.017l-0.151,0.022
								l-0.167,0.03l-0.15,0.021l-0.153,0.034l-0.173,0.043l-0.155,0.034l-0.162,0.061l-0.163,0.06l-0.154,0.077l-0.305,0.186
								l-0.31,0.283l-0.325,0.333l-0.314,0.383l-0.304,0.398l-0.262,0.356l-0.258,0.343l-0.214,0.259l-0.126,0.029l-0.107,0.021
								l-0.133,0.013h-0.129h-0.13l-0.11-0.008l-0.142-0.006l-0.125-0.013l-2.366-7.142l-0.052-0.102l-0.082-0.099l-0.114-0.082
								l-0.155-0.095l-0.15-0.063l-0.154-0.054l-0.147-0.033l-0.141-0.005l-5.969,0.184l-0.718,1.886l-0.004-0.024L327.327,311.346z
								 M370.22,311.543l0.01-0.018l0.098,0.093L370.22,311.543z"></path>
						</g>
					</g>
				</g>
			</g>
		</g>
		<polygon fill-rule="evenodd" clip-rule="evenodd" fill="#010101" points="369.318,312.07 369.473,312.033 369.608,312.009 
			369.734,311.977 369.863,311.936 369.983,311.875 370.107,311.803 370.205,311.722 370.327,311.618 370.122,311.42 370.03,311.52 
			369.937,311.589 369.846,311.645 369.747,311.682 369.652,311.708 369.542,311.743 369.422,311.76 369.288,311.772 
			369.318,312.07 369.318,312.07 		"></polygon>
		<polygon fill-rule="evenodd" clip-rule="evenodd" fill="#010101" points="343.544,313.981 369.318,312.07 369.288,311.772 
			343.509,313.697 343.544,313.981 343.544,313.981 		"></polygon>
		<polygon fill-rule="evenodd" clip-rule="evenodd" fill="#010101" points="341.016,314.438 341.166,314.375 341.312,314.323 
			341.488,314.268 341.635,314.216 341.793,314.169 341.943,314.148 342.094,314.126 342.261,314.097 342.398,314.069 
			342.557,314.066 342.721,314.049 342.884,314.033 343.046,314.016 343.191,314.008 343.367,313.994 343.544,313.981 
			343.509,313.697 343.346,313.715 343.186,313.731 343.013,313.731 342.849,313.749 342.689,313.754 342.537,313.788 
			342.376,313.792 342.2,313.804 342.045,313.839 341.893,313.873 341.725,313.903 341.552,313.946 341.406,313.997 341.23,314.052 
			341.056,314.108 340.9,314.186 341.016,314.438 341.016,314.438 341.016,314.438 		"></polygon>
		<polygon fill-rule="evenodd" clip-rule="evenodd" fill="#010101" points="338.706,316.985 338.762,316.948 338.879,316.814 
			338.981,316.678 339.105,316.519 339.234,316.348 339.382,316.168 339.515,315.982 339.664,315.789 339.814,315.598 
			339.97,315.392 340.126,315.215 340.282,315.052 340.44,314.875 340.574,314.733 340.741,314.62 340.879,314.508 341.016,314.438 
			340.9,314.186 340.725,314.285 340.574,314.39 340.398,314.533 340.232,314.693 340.077,314.854 339.921,315.018 339.751,315.232 
			339.6,315.425 339.45,315.618 339.3,315.812 339.167,315.996 339.02,316.176 338.892,316.348 338.767,316.506 338.665,316.644 
			338.569,316.755 338.622,316.727 338.706,316.985 338.706,316.985 338.706,316.985 		"></polygon>
		<polygon fill="none" points="366.556,309.502 366.611,309.378 366.714,309.283 366.869,309.206 367.049,309.182 367.147,309.185 
			367.259,309.194 367.365,309.215 367.474,309.236 367.602,309.279 367.719,309.318 367.842,309.373 367.975,309.447 
			368.087,309.498 368.203,309.58 368.305,309.656 368.418,309.752 368.534,309.832 368.615,309.932 368.714,310.021 
			368.795,310.121 368.945,310.313 369.022,310.512 369.061,310.609 369.083,310.675 369.07,310.842 369.038,310.974 
			368.943,311.085 368.808,311.154 368.623,311.193 368.521,311.202 368.413,311.18 368.289,311.167 368.156,311.138 
			368.039,311.099 367.911,311.055 367.773,310.997 367.652,310.927 367.529,310.87 367.396,310.797 367.279,310.718 
			367.169,310.621 367.064,310.545 366.958,310.438 366.863,310.335 366.783,310.234 366.651,310.032 366.571,309.837 
			366.551,309.771 366.528,309.664 		"></polygon>
		<polygon fill-rule="evenodd" clip-rule="evenodd" fill="#FFFFFF" points="333.77,309.232 334.301,309.223 334.345,309.223 
			329.774,307.699 329.543,307.836 333.764,309.244 333.764,309.244 333.77,309.232 		"></polygon>
		<polygon fill-rule="evenodd" clip-rule="evenodd" fill="#FFFFFF" points="333.77,309.232 328.332,309.406 328.311,309.298 
			328.281,309.176 328.246,309.063 328.204,308.934 328.183,308.827 328.183,308.741 328.216,308.638 328.311,308.569 
			328.534,308.416 328.781,308.27 329.03,308.123 329.28,307.978 329.518,307.827 329.543,307.836 333.764,309.244 333.764,309.244 
			333.77,309.232 		"></polygon>
		<polygon fill="#FFFFFF" points="330.464,312.534 334.168,312.325 335.617,312.909 336.128,314.424 336.284,314.947 
			335.669,314.984 335.068,314.984 334.515,314.974 334.008,314.947 333.515,314.883 333.056,314.803 332.635,314.689 
			332.214,314.578 331.819,314.431 331.438,314.288 331.077,314.126 330.722,313.951 330.352,313.77 330,313.581 329.648,313.393 
			329.284,313.198 329.251,313.045 329.224,312.907 329.189,312.754 329.167,312.602 		"></polygon>
		<polygon fill-rule="evenodd" clip-rule="evenodd" fill="#FFFFFF" points="339.793,312.958 339.845,313.02 340.321,313.307 
			340.476,313.059 339.999,312.771 340.047,312.843 339.793,312.958 339.81,312.991 339.845,313.02 339.793,312.958 
			339.793,312.958 		"></polygon>
		<polygon fill-rule="evenodd" clip-rule="evenodd" fill="#FFFFFF" points="335.558,313.047 335.476,312.948 336.154,314.99 
			336.424,314.908 335.748,312.866 335.673,312.784 335.748,312.866 335.725,312.802 335.673,312.784 335.558,313.047 
			335.558,313.047 335.558,313.047 		"></polygon>
		<polygon fill-rule="evenodd" clip-rule="evenodd" fill="#FFFFFF" points="334.181,312.46 334.112,312.45 335.558,313.047 
			335.673,312.784 334.229,312.188 334.173,312.184 334.229,312.188 334.201,312.18 334.173,312.184 334.181,312.46 334.181,312.46 
			334.181,312.46 		"></polygon>
		<polygon fill-rule="evenodd" clip-rule="evenodd" fill="#FFFFFF" points="329.313,312.596 329.177,312.748 334.181,312.46 
			334.173,312.184 329.169,312.474 329.035,312.614 329.169,312.474 329.009,312.477 329.035,312.614 329.313,312.596 
			329.313,312.596 		"></polygon>
		<polygon fill-rule="evenodd" clip-rule="evenodd" fill="#FFFFFF" points="329.353,313.078 329.407,313.168 329.404,313.096 
			329.386,313.02 329.383,312.945 329.361,312.882 329.357,312.81 329.34,312.732 329.317,312.666 329.313,312.596 329.035,312.614 
			329.034,312.701 329.048,312.791 329.068,312.854 329.074,312.928 329.095,312.991 329.112,313.07 329.142,313.152 
			329.146,313.226 329.215,313.318 329.146,313.226 329.167,313.288 329.215,313.318 329.353,313.078 329.353,313.078 		"></polygon>
		<polygon fill-rule="evenodd" clip-rule="evenodd" fill="#FFFFFF" points="336.157,314.978 336.273,314.803 335.66,314.841 
			335.068,314.858 334.532,314.836 334.014,314.805 333.549,314.735 333.086,314.667 332.666,314.556 332.257,314.449 
			331.862,314.303 331.498,314.151 331.133,314.001 330.777,313.826 330.421,313.649 330.069,313.462 329.717,313.271 
			329.353,313.078 329.215,313.318 329.58,313.512 329.932,313.703 330.293,313.907 330.648,314.084 331.021,314.25 
			331.382,314.414 331.772,314.572 332.167,314.719 332.599,314.835 333.025,314.934 333.497,315.02 333.991,315.083 
			334.506,315.126 335.077,315.133 335.669,315.114 336.308,315.085 336.424,314.908 336.308,315.085 336.484,315.072 
			336.424,314.908 336.154,314.99 336.154,314.99 336.157,314.978 		"></polygon>
		<g>
			<polygon fill="none" points="338.747,316.791 338.852,316.893 338.747,316.791 			"></polygon>
			<polygon fill="none" points="337.797,316.755 337.772,316.756 337.772,316.756 			"></polygon>
			<polygon fill="none" points="335.467,309.812 339.224,311.066 335.467,309.812 			"></polygon>
		</g>
		<polygon fill-rule="evenodd" clip-rule="evenodd" fill="#FFFFFF" points="343.509,313.697 343.32,313.706 343.109,313.736 
			342.921,313.744 342.716,313.761 342.52,313.796 342.309,313.826 342.098,313.857 341.896,313.903 341.693,313.951 
			341.519,314.006 341.325,314.069 341.146,314.14 340.99,314.216 340.807,314.297 340.656,314.405 340.518,314.516 340.69,314.732 
			340.823,314.632 340.952,314.546 341.094,314.465 341.256,314.405 341.415,314.315 341.587,314.272 341.788,314.225 
			341.966,314.169 342.158,314.148 342.33,314.104 342.537,314.088 342.733,314.054 342.943,314.023 343.148,314.006 
			343.342,313.985 343.544,313.981 343.509,313.697 343.509,313.697 343.509,313.697 		"></polygon>
		<polygon fill-rule="evenodd" clip-rule="evenodd" fill="#FFFFFF" points="369.288,311.772 343.509,313.697 343.544,313.981 
			369.318,312.07 369.288,311.772 369.288,311.772 		"></polygon>
		<polygon fill-rule="evenodd" clip-rule="evenodd" fill="#FFFFFF" points="369.77,310.201 369.876,310.352 369.988,310.491 
			370.041,310.636 370.121,310.777 370.163,310.906 370.178,311.039 370.18,311.154 370.173,311.267 370.142,311.356 370.1,311.442 
			370.043,311.523 369.944,311.605 369.842,311.657 369.679,311.717 369.508,311.76 369.288,311.772 369.318,312.07 
			369.554,312.046 369.761,311.986 369.939,311.918 370.1,311.83 370.246,311.733 370.348,311.596 370.404,311.472 370.456,311.317 
			370.452,311.158 370.46,311.006 370.425,310.852 370.368,310.676 370.306,310.523 370.22,310.352 370.107,310.173 
			369.997,310.035 369.77,310.201 369.77,310.201 		"></polygon>
		<polygon fill-rule="evenodd" clip-rule="evenodd" fill="#FFFFFF" points="366.696,308.733 366.929,308.725 367.164,308.747 
			367.404,308.799 367.636,308.834 367.855,308.906 368.074,308.979 368.284,309.078 368.482,309.174 368.688,309.283 
			368.876,309.404 369.079,309.528 369.224,309.647 369.379,309.786 369.529,309.937 369.652,310.077 369.77,310.201 
			369.997,310.035 369.863,309.876 369.713,309.728 369.562,309.574 369.396,309.434 369.212,309.301 369.026,309.168 
			368.838,309.047 368.624,308.917 368.401,308.817 368.173,308.725 367.94,308.648 367.697,308.566 367.456,308.515 
			367.211,308.477 366.932,308.455 366.688,308.459 366.696,308.733 366.696,308.733 		"></polygon>
		<polygon fill-rule="evenodd" clip-rule="evenodd" fill="#FFFFFF" points="343.889,309.52 366.696,308.733 366.688,308.459 
			343.892,309.248 343.889,309.52 343.889,309.52 		"></polygon>
		<polygon fill-rule="evenodd" clip-rule="evenodd" fill="#FFFFFF" points="340.288,308.946 340.503,309.032 340.73,309.081 
			340.949,309.153 341.176,309.2 341.415,309.254 341.639,309.313 341.884,309.351 342.103,309.381 342.33,309.429 342.565,309.449 
			342.798,309.484 343.025,309.487 343.243,309.519 343.477,309.51 343.686,309.523 343.889,309.52 343.892,309.248 
			343.678,309.248 343.468,309.236 343.269,309.228 343.047,309.211 342.823,309.192 342.601,309.176 342.383,309.145 
			342.15,309.11 341.923,309.063 341.704,309.032 341.481,308.974 341.249,308.939 341.026,308.878 340.789,308.814 
			340.592,308.764 340.374,308.689 340.284,308.96 340.284,308.96 340.288,308.946 		"></polygon>
		<polygon fill-rule="evenodd" clip-rule="evenodd" fill="#FFFFFF" points="332.594,306.839 332.984,306.783 333.353,306.748 
			333.705,306.722 334.027,306.701 334.331,306.688 334.607,306.722 334.89,306.73 335.125,306.752 335.371,306.79 335.599,306.84 
			335.812,306.882 336.006,306.946 336.211,307.015 336.374,307.083 336.576,307.165 336.735,307.245 336.919,307.338 
			337.104,307.427 337.284,307.53 337.465,307.634 337.646,307.736 337.834,307.856 338.019,307.946 338.22,308.071 
			338.442,308.174 338.657,308.303 338.897,308.397 339.13,308.518 339.39,308.633 339.674,308.729 339.975,308.856 340.284,308.96 
			340.374,308.689 340.065,308.587 339.761,308.472 339.506,308.371 339.24,308.27 338.997,308.144 338.786,308.046 
			338.571,307.916 338.361,307.817 338.155,307.706 337.962,307.599 337.782,307.496 337.594,307.375 337.413,307.271 
			337.228,307.183 337.045,307.093 336.875,306.993 336.692,306.903 336.49,306.821 336.302,306.744 336.096,306.675 
			335.877,306.603 335.649,306.557 335.418,306.521 335.163,306.465 334.902,306.435 334.632,306.432 334.318,306.426 
			334.02,306.426 333.671,306.438 333.318,306.465 332.947,306.512 332.56,306.555 332.581,306.833 332.581,306.833 
			332.594,306.839 		"></polygon>
		<polygon fill-rule="evenodd" clip-rule="evenodd" fill="#FFFFFF" points="328.384,308.694 328.605,308.538 328.854,308.393 
			329.104,308.249 329.357,308.089 329.589,307.952 329.852,307.811 330.096,307.678 330.349,307.562 330.62,307.438 
			330.89,307.312 331.156,307.203 331.432,307.108 331.727,307.035 331.997,306.953 332.293,306.881 332.581,306.833 
			332.56,306.555 332.237,306.617 331.933,306.675 331.632,306.759 331.349,306.837 331.066,306.956 330.773,307.06 
			330.509,307.172 330.238,307.296 329.963,307.433 329.702,307.574 329.456,307.708 329.207,307.853 328.958,308 328.709,308.144 
			328.474,308.295 328.237,308.443 328.37,308.689 328.37,308.689 328.384,308.694 		"></polygon>
		<polygon fill-rule="evenodd" clip-rule="evenodd" fill="#FFFFFF" points="328.332,309.277 328.478,309.396 328.435,309.269 
			328.409,309.13 328.376,309.02 328.344,308.896 328.327,308.817 328.314,308.771 328.336,308.707 328.37,308.689 328.237,308.443 
			328.113,308.559 328.049,308.71 328.031,308.849 328.074,308.977 328.104,309.102 328.139,309.213 328.173,309.324 
			328.193,309.432 328.327,309.545 328.193,309.432 328.199,309.545 328.327,309.545 328.332,309.277 328.332,309.277 		"></polygon>
		<g>
			<polygon fill="none" points="338.862,310.302 338.864,310.303 338.828,310.448 			"></polygon>
			<polygon fill="#FFFFFF" points="338.868,310.29 338.864,310.303 338.862,310.302 			"></polygon>
			<polygon fill="#FFFFFF" points="338.803,310.354 338.862,310.302 338.828,310.448 			"></polygon>
			<g>
				<polygon fill="none" points="366.611,309.378 366.714,309.283 366.869,309.206 367.049,309.182 367.147,309.185 
					367.259,309.194 367.365,309.215 367.474,309.236 367.602,309.279 367.719,309.318 367.842,309.373 367.975,309.447 
					368.087,309.498 368.203,309.58 368.305,309.656 368.418,309.752 368.534,309.832 368.615,309.932 368.714,310.021 
					368.795,310.121 368.945,310.313 369.022,310.512 369.061,310.609 369.083,310.675 369.07,310.842 369.038,310.974 
					368.943,311.085 368.808,311.154 368.623,311.193 368.521,311.202 368.413,311.18 368.289,311.167 368.156,311.138 
					368.039,311.099 367.911,311.055 367.773,310.997 367.652,310.927 367.529,310.87 367.396,310.797 367.279,310.718 
					367.169,310.621 367.064,310.545 366.958,310.438 366.863,310.335 366.783,310.234 366.651,310.032 366.571,309.837 
					366.551,309.771 366.528,309.664 366.556,309.502 				"></polygon>
				<polygon fill="none" points="341.768,310.283 341.768,310.283 341.639,310.342 				"></polygon>
				<polygon fill="none" points="342.693,312.624 342.785,312.697 342.794,312.715 342.549,313.02 340.394,313.174 339.927,312.904 
					339.924,312.898 340.047,312.843 339.13,310.43 339.281,310.278 341.241,310.166 341.655,310.382 342.673,312.775 				"></polygon>
				<polygon fill="none" points="335.343,309.558 335.343,309.558 338.947,310.76 				"></polygon>
				<g>
					<polygon fill="none" points="366.611,309.378 366.714,309.283 366.869,309.206 367.049,309.182 367.147,309.185 
						367.259,309.194 367.365,309.215 367.474,309.236 367.602,309.279 367.719,309.318 367.842,309.373 367.975,309.447 
						368.087,309.498 368.203,309.58 368.305,309.656 368.418,309.752 368.534,309.832 368.615,309.932 368.714,310.021 
						368.795,310.121 368.945,310.313 369.022,310.512 369.061,310.609 369.083,310.675 369.07,310.842 369.038,310.974 
						368.943,311.085 368.808,311.154 368.623,311.193 368.521,311.202 368.413,311.18 368.289,311.167 368.156,311.138 
						368.039,311.099 367.911,311.055 367.773,310.997 367.652,310.927 367.529,310.87 367.396,310.797 367.279,310.718 
						367.169,310.621 367.064,310.545 366.958,310.438 366.863,310.335 366.783,310.234 366.651,310.032 366.571,309.837 
						366.551,309.771 366.528,309.664 366.556,309.502 					"></polygon>
					<polygon fill="none" points="341.241,310.166 341.655,310.382 342.673,312.775 342.693,312.624 342.785,312.697 
						342.794,312.715 342.549,313.02 340.394,313.174 339.927,312.904 339.924,312.898 340.047,312.843 339.13,310.43 
						339.281,310.278 					"></polygon>
					<polygon fill="none" points="335.343,309.558 335.343,309.558 338.947,310.76 					"></polygon>
					<g>
						<polygon fill="none" points="366.611,309.378 366.714,309.283 366.869,309.206 367.049,309.182 367.147,309.185 
							367.259,309.194 367.365,309.215 367.474,309.236 367.602,309.279 367.719,309.318 367.842,309.373 367.975,309.447 
							368.087,309.498 368.203,309.58 368.305,309.656 368.418,309.752 368.534,309.832 368.615,309.932 368.714,310.021 
							368.795,310.121 368.945,310.313 369.022,310.512 369.061,310.609 369.083,310.675 369.07,310.842 369.038,310.974 
							368.943,311.085 368.808,311.154 368.623,311.193 368.521,311.202 368.413,311.18 368.289,311.167 368.156,311.138 
							368.039,311.099 367.911,311.055 367.773,310.997 367.652,310.927 367.529,310.87 367.396,310.797 367.279,310.718 
							367.169,310.621 367.064,310.545 366.958,310.438 366.863,310.335 366.783,310.234 366.651,310.032 366.571,309.837 
							366.551,309.771 366.528,309.664 366.556,309.502 						"></polygon>
						<polygon fill="none" points="341.241,310.166 341.655,310.382 342.673,312.775 342.693,312.624 342.785,312.697 
							342.794,312.715 342.552,313.017 342.537,312.886 340.383,313.039 340.476,313.059 340.404,313.172 340.394,313.174 
							339.927,312.904 339.924,312.898 340.047,312.843 339.13,310.43 339.281,310.278 						"></polygon>
						<polygon fill="none" points="335.343,309.558 335.343,309.558 338.947,310.76 						"></polygon>
						<g>
							<polygon fill="none" points="342.748,312.242 346.832,313.604 342.748,312.242 							"></polygon>
							<polygon fill="none" points="342.644,311.992 347.346,313.562 342.644,311.992 							"></polygon>
							<polygon fill="none" points="366.611,309.378 366.714,309.283 366.869,309.206 367.049,309.182 367.147,309.185 
								367.259,309.194 367.365,309.215 367.474,309.236 367.602,309.279 367.719,309.318 367.842,309.373 367.975,309.447 
								368.087,309.498 368.203,309.58 368.305,309.656 368.418,309.752 368.534,309.832 368.615,309.932 368.714,310.021 
								368.795,310.121 368.945,310.313 369.022,310.512 369.061,310.609 369.083,310.675 369.07,310.842 369.038,310.974 
								368.943,311.085 368.808,311.154 368.623,311.193 368.521,311.202 368.413,311.18 368.289,311.167 368.156,311.138 
								368.039,311.099 367.911,311.055 367.773,310.997 367.652,310.927 367.529,310.87 367.396,310.797 367.279,310.718 
								367.169,310.621 367.064,310.545 366.958,310.438 366.863,310.335 366.783,310.234 366.651,310.032 366.571,309.837 
								366.551,309.771 366.528,309.664 366.556,309.502 							"></polygon>
							<polygon fill="none" points="341.241,310.166 341.655,310.382 342.673,312.775 342.693,312.624 342.785,312.697 
								342.794,312.715 342.552,313.017 342.549,313.02 340.404,313.172 340.394,313.174 339.927,312.904 339.924,312.898 
								340.047,312.843 339.13,310.43 339.281,310.278 							"></polygon>
							<polygon fill="none" points="335.343,309.558 335.343,309.558 338.947,310.76 							"></polygon>
							<polygon fill="#FFFFFF" points="342.644,311.992 347.346,313.562 346.835,313.592 346.832,313.604 342.748,312.242 							
								"></polygon>
							<g>
								<polygon fill="none" points="366.611,309.378 366.714,309.283 366.869,309.206 367.049,309.182 367.147,309.185 
									367.259,309.194 367.365,309.215 367.474,309.236 367.602,309.279 367.719,309.318 367.842,309.373 367.975,309.447 
									368.087,309.498 368.203,309.58 368.305,309.656 368.418,309.752 368.534,309.832 368.615,309.932 368.714,310.021 
									368.795,310.121 368.945,310.313 369.022,310.512 369.061,310.609 369.083,310.675 369.07,310.842 369.038,310.974 
									368.943,311.085 368.808,311.154 368.623,311.193 368.521,311.202 368.413,311.18 368.289,311.167 368.156,311.138 
									368.039,311.099 367.911,311.055 367.773,310.997 367.652,310.927 367.529,310.87 367.396,310.797 367.279,310.718 
									367.169,310.621 367.064,310.545 366.958,310.438 366.863,310.335 366.783,310.234 366.651,310.032 366.571,309.837 
									366.551,309.771 366.528,309.664 366.556,309.502 								"></polygon>
								<polygon fill="none" points="341.241,310.166 341.655,310.382 342.639,312.695 342.486,312.891 340.383,313.039 
									340.476,313.059 340.404,313.172 340.394,313.174 339.927,312.904 339.924,312.898 340.047,312.843 339.13,310.43 
									339.281,310.278 								"></polygon>
								<polygon fill="none" points="342.693,312.624 342.785,312.697 342.785,312.697 								"></polygon>
								<polygon fill="none" points="335.343,309.558 335.343,309.558 338.947,310.76 								"></polygon>
								<path fill="#FFFFFF" d="M328.327,309.545l5.974-0.193l0.124,0.012l0.117,0.041l0.155,0.051l0.141,0.048l0.128,0.086
									l0.096,0.059l0.055,0.092l0.044,0.042l2.376,7.157l0.033,0.112l0.117-0.004l0.118-0.017l0.139,0.017l0.167,0.013
									l0.158-0.005l0.155,0.011l0.142-0.04l0.158-0.047l0.128-0.086l0.155-0.166l0.13-0.169l0.119-0.146l0.12-0.143l0.104-0.14
									l0.099-0.124l0.086-0.129l0.103-0.138l0.086-0.128l0.1-0.124l0.098-0.125l0.107-0.107l0.113-0.121l0.128-0.128l0.129-0.13
									l0.163-0.143l-0.087-0.11l0.129-0.106l0.146-0.094l0.168-0.072l0.154-0.078l0.167-0.072l0.188-0.053l0.193-0.063l0.188-0.05
									l0.181-0.027l0.197-0.035l0.21-0.028l0.198-0.034l0.206-0.018l0.205-0.018l0.194-0.021l0.188-0.008l3.314-0.239
									l-4.084-1.362l-0.104-0.25l0,0l4.702,1.569l21.964-1.639l0.408-0.064l0.306-0.142l0.211-0.201l0.074-0.231v-0.259
									l0.005-0.013l-0.072-0.295l-0.146-0.294l-0.212-0.312l-0.123-0.141l-0.137-0.146l-0.151-0.148l-0.157-0.126l-0.167-0.142
									l-0.188-0.119l-0.203-0.126l-0.201-0.124l-0.216-0.086l-0.211-0.099l-0.232-0.078l-0.243-0.08l-0.23-0.034l-0.241-0.052
									l-0.25-0.026l-0.243,0.005l-3.317,0.121l-19.479,0.668h-0.214l-0.201,0.004l-0.229-0.004l-0.218-0.03l-0.225-0.018
									l-0.222-0.017l-0.219-0.032l-0.232-0.033l-0.232-0.033l-0.227-0.049l-0.228-0.048l-0.228-0.047l-0.235-0.062l-0.223-0.062
									l-0.212-0.055l-0.218-0.072l-0.31-0.104l-0.304-0.117l-0.267-0.102l-0.266-0.104l-0.232-0.119l-0.224-0.103l-0.23-0.121
									l-0.211-0.099l-0.201-0.124l-0.181-0.104l-0.194-0.106l-0.179-0.104l-0.193-0.105l-0.181-0.105l-0.171-0.085l-0.18-0.104
									l-0.186-0.089l-0.188-0.078l-0.181-0.061l-0.206-0.069l-0.219-0.072l-0.209-0.056l-0.232-0.034l-0.244-0.039l-0.249-0.025
									l-0.279-0.021l-0.297-0.015l-0.304,0.013l-0.317,0.009l-0.356,0.038l-0.37,0.035l-0.403,0.051l-0.3,0.043l-0.298,0.072
									l-0.295,0.072l-0.275,0.096l-0.29,0.104l-0.28,0.104l-0.264,0.11l-0.271,0.125l-0.258,0.13l-0.262,0.142l4.169,1.39
									l-5.611,0.188L328.327,309.545z M366.528,309.664l0.027-0.162l0.056-0.124l0.103-0.095l0.155-0.077l0.18-0.024l0.099,0.003
									l0.111,0.01l0.106,0.021l0.108,0.021l0.128,0.043l0.117,0.039l0.123,0.055l0.133,0.074l0.112,0.051l0.116,0.082l0.102,0.076
									l0.113,0.096l0.116,0.08l0.081,0.1l0.099,0.089l0.081,0.101l0.15,0.192l0.077,0.198l0.038,0.098l0.022,0.065l-0.013,0.167
									l-0.032,0.132l-0.095,0.111l-0.136,0.069l-0.185,0.039l-0.103,0.009l-0.107-0.022l-0.124-0.013l-0.133-0.029l-0.117-0.039
									l-0.128-0.044l-0.138-0.058l-0.121-0.07l-0.123-0.057l-0.134-0.073l-0.116-0.079l-0.11-0.097l-0.104-0.076l-0.106-0.106
									l-0.095-0.104l-0.08-0.101l-0.132-0.202l-0.08-0.195l-0.021-0.065L366.528,309.664z M342.785,312.697L342.785,312.697
									l-0.092-0.073L342.785,312.697z M339.13,310.43l0.151-0.151l1.96-0.112l0.414,0.216l0.983,2.313l-0.152,0.195l-2.104,0.148
									l0.093,0.02l-0.071,0.113l-0.011,0.002l-0.467-0.27l-0.003-0.006l0.123-0.056L339.13,310.43z"></path>
							</g>
						</g>
					</g>
				</g>
			</g>
		</g>
		<polygon fill-rule="evenodd" clip-rule="evenodd" fill="#010101" points="365.202,311.153 365.082,311.085 365.062,310.978 
			365.233,310.933 365.268,311.046 365.164,310.969 365.202,311.153 365.202,311.153 		"></polygon>
		<polygon fill-rule="evenodd" clip-rule="evenodd" fill="#010101" points="365.436,311.017 365.408,311.051 365.365,311.093 
			365.312,311.119 365.264,311.144 365.202,311.153 365.164,310.969 365.19,310.978 365.229,310.947 365.275,310.933 
			365.28,310.922 365.271,310.947 365.431,311.028 365.431,311.028 365.436,311.017 		"></polygon>
		<polygon fill-rule="evenodd" clip-rule="evenodd" fill="#010101" points="364.95,309.939 364.963,309.942 365.045,310.041 
			365.151,310.149 365.254,310.27 365.353,310.402 365.435,310.544 365.48,310.702 365.482,310.874 365.431,311.028 
			365.271,310.947 365.307,310.844 365.298,310.741 365.268,310.616 365.19,310.506 365.104,310.378 365.011,310.273 
			364.902,310.166 364.82,310.067 364.834,310.072 364.95,309.939 364.95,309.939 		"></polygon>
		<polygon fill-rule="evenodd" clip-rule="evenodd" fill="#010101" points="363.371,309.484 363.357,309.479 363.586,309.484 
			363.8,309.484 364.001,309.522 364.194,309.543 364.392,309.596 364.576,309.687 364.769,309.792 364.95,309.939 364.834,310.072 
			364.658,309.956 364.49,309.857 364.333,309.775 364.161,309.732 363.972,309.698 363.778,309.676 363.582,309.668 
			363.38,309.673 363.384,309.66 363.354,309.491 363.354,309.491 363.371,309.484 		"></polygon>
		<polygon fill-rule="evenodd" clip-rule="evenodd" fill="#010101" points="346.625,310.361 346.699,310.313 363.354,309.491 
			363.384,309.66 346.724,310.494 346.798,310.446 346.625,310.361 346.625,310.361 		"></polygon>
		<polygon fill-rule="evenodd" clip-rule="evenodd" fill="#010101" points="346.23,310.944 346.05,310.885 346.063,310.76 
			346.098,310.657 346.149,310.545 346.218,310.467 346.308,310.412 346.424,310.365 346.552,310.323 346.699,310.313 
			346.724,310.494 346.587,310.521 346.463,310.549 346.401,310.558 346.341,310.609 346.313,310.657 346.265,310.714 
			346.24,310.79 346.245,310.905 346.063,310.844 346.23,310.944 346.23,310.944 		"></polygon>
		<g>
			<polygon fill="none" points="346.699,310.318 346.724,310.494 346.699,310.318 			"></polygon>
			<g>
				<polygon fill="none" points="346.245,310.905 346.265,310.797 346.316,310.688 346.359,310.603 346.45,310.545 346.557,310.523 
					346.707,310.502 346.724,310.494 363.384,309.66 363.661,309.681 363.896,309.673 364.113,309.702 364.314,309.741 
					364.5,309.831 364.666,309.93 364.82,310.067 364.998,310.27 365.151,310.45 365.264,310.629 365.318,310.762 365.318,310.849 
					365.28,310.922 365.174,310.985 364.971,311.033 364.688,311.066 347.569,311.949 347.557,311.945 347.316,311.937 
					347.081,311.871 346.871,311.772 346.69,311.67 346.54,311.52 346.434,311.369 346.339,311.223 346.265,311.101 
					346.251,311.008 				"></polygon>
				<g>
					<path fill="none" d="M346.265,310.797l-0.02,0.108l0.006,0.103l0.014,0.093l0.074,0.122l0.095,0.146l0.106,0.15l0.15,0.15
						l0.181,0.103l0.21,0.099l0.235,0.065l0.24,0.009l0.013,0.004l17.119-0.883l0.282-0.033l0.203-0.048l0.106-0.063l0.038-0.073
						v-0.087l-0.055-0.133l-0.112-0.179l-0.153-0.181l-0.178-0.202l-0.154-0.138l-0.166-0.099l-0.186-0.09l-0.201-0.039
						l-0.218-0.029l-0.234,0.008l-0.277-0.021l-16.66,0.834l-0.017,0.008l-0.15,0.021l-0.106,0.021l-0.091,0.058l-0.043,0.085
						L346.265,310.797z M346.501,310.691l16.66-0.834l0.007-0.026l0.224,0.017h0.215l0.202,0.038l0.192,0.021l0.198,0.053
						l0.184,0.091l0.181,0.102l0.193,0.15l0.072,0.08l0.064,0.066l0.061,0.077l0.052,0.06l0.072,0.083l0.057,0.089l0.046,0.071
						l0.048,0.074l0.005,0.029l-0.172,0.045l0.004,0.029l-0.043-0.085l-0.046-0.073l-0.065-0.064l-0.048-0.074l-0.051-0.059
						l-0.061-0.078l-0.063-0.062l-0.077-0.07l0.006-0.005l-0.153-0.114l-0.162-0.113l-0.163-0.068l-0.172-0.044l-0.188-0.035
						l-0.193-0.02l-0.211-0.015l-0.201,0.006l-16.654,0.822L346.501,310.691z"></path>
					<g>
						<path fill="none" d="M346.265,310.797l-0.02,0.108l0.006,0.103l0.014,0.093l0.074,0.122l0.095,0.146l0.106,0.15l0.15,0.15
							l0.181,0.103l0.21,0.099l0.235,0.065l0.24,0.009l0.013,0.004l17.119-0.883l0.282-0.033l0.203-0.048l0.106-0.063l0.038-0.073
							v-0.087l-0.055-0.133l-0.112-0.179l-0.153-0.181l-0.178-0.202l-0.154-0.138l-0.166-0.099l-0.186-0.09l-0.201-0.039
							l-0.218-0.029l-0.234,0.008l-0.277-0.021l-16.66,0.834l-0.017,0.008l-0.15,0.021l-0.106,0.021l-0.091,0.058l-0.043,0.085
							L346.265,310.797z"></path>
						<g>
							<polygon fill="none" points="346.316,310.688 346.359,310.603 346.45,310.545 346.557,310.523 346.655,310.511 
								346.519,310.77 363.178,309.934 363.392,309.934 363.59,309.942 363.791,309.98 363.984,310.003 364.168,310.051 
								364.345,310.123 364.521,310.24 364.692,310.368 364.752,310.444 364.816,310.511 364.877,310.586 364.942,310.651 
								364.988,310.723 365.049,310.801 365.097,310.874 365.151,310.964 365.158,310.99 364.971,311.033 364.688,311.066 
								347.569,311.949 347.557,311.945 347.316,311.937 347.081,311.871 346.871,311.772 346.69,311.67 346.54,311.52 
								346.434,311.369 346.339,311.223 346.265,311.101 346.251,311.008 346.245,310.905 346.265,310.797 							"></polygon>
							<polygon fill="#010101" points="365.097,310.874 365.049,310.801 364.988,310.723 364.942,310.651 364.877,310.586 
								364.816,310.511 364.752,310.444 364.692,310.368 364.521,310.24 364.345,310.123 364.168,310.051 363.984,310.003 
								363.791,309.98 363.59,309.942 363.392,309.934 363.178,309.934 346.519,310.77 346.655,310.511 346.707,310.502 
								346.724,310.494 363.384,309.66 363.661,309.681 363.896,309.673 364.113,309.702 364.314,309.741 364.5,309.831 
								364.666,309.93 364.82,310.067 364.998,310.27 365.151,310.45 365.264,310.629 365.318,310.762 365.318,310.849 
								365.28,310.922 365.174,310.985 365.158,310.99 365.151,310.964 							"></polygon>
							<g>
								<polygon fill="none" points="346.272,310.781 346.286,310.777 346.372,310.777 346.519,310.77 346.657,310.511 
									346.707,310.502 346.724,310.494 363.384,309.66 363.661,309.681 363.896,309.673 364.113,309.702 364.314,309.741 
									364.5,309.831 364.666,309.93 364.82,310.067 364.998,310.27 365.151,310.45 365.264,310.629 365.318,310.762 
									365.318,310.849 365.28,310.922 365.174,310.985 365.158,310.99 364.971,311.033 364.688,311.066 347.569,311.949 
									347.557,311.945 347.316,311.937 347.081,311.871 346.871,311.772 346.69,311.67 346.54,311.52 346.434,311.369 
									346.339,311.223 346.265,311.101 346.251,311.008 346.245,310.905 346.265,310.797 								"></polygon>
								<path fill="#010101" d="M346.05,310.885l0.019,0.161l0.033,0.112l0.048,0.157l0.112,0.183l0.136,0.145l0.176,0.16
									l0.211,0.143l0.237,0.105l0.247,0.069h0.301l17.114-0.868l0.325-0.035l0.231-0.05l0.168-0.116l0.095-0.155l-0.004-0.159
									l-0.064-0.192l-0.124-0.185l-0.172-0.215l-0.176-0.202l-0.189-0.163l-0.201-0.123l-0.197-0.096l-0.214-0.042l-0.257-0.043
									h-0.258l-0.293,0.016l-16.654,0.822v0.005l-0.177,0.008l-0.182,0.07l-0.118,0.102l-0.082,0.116l-0.056,0.125L346.05,310.885
									z M346.245,310.905l0.02-0.108l0.008-0.016l0.014-0.004h0.086l0.146-0.008l0.139-0.259l0.05-0.009l0.017-0.008l16.66-0.834
									l0.277,0.021l0.234-0.008l0.218,0.029l0.201,0.039l0.186,0.09l0.166,0.099l0.154,0.138l0.178,0.202l0.153,0.181l0.112,0.179
									l0.055,0.133v0.087l-0.038,0.073l-0.106,0.063l-0.016,0.005l-0.188,0.043l-0.282,0.033l-17.119,0.883l-0.013-0.004
									l-0.24-0.009l-0.235-0.065l-0.21-0.099l-0.181-0.103l-0.15-0.15l-0.106-0.15l-0.095-0.146l-0.074-0.122l-0.014-0.093
									L346.245,310.905z"></path>
							</g>
						</g>
					</g>
				</g>
			</g>
		</g>
	</g>
</g>
<rect x="322" y="253.667" fill="#E7E7E7" width="164.5" height="27.325"></rect>

<g>
	<path fill="#EB242B" d="M138.738,187.739c0,0.888-0.403,1.754-1.207,2.597l-0.127,0.125l-7.04,7.417
		c-1.496,1.571-2.771,2.787-3.821,3.646c-1.052,0.859-1.796,1.287-2.228,1.287c-0.456,0-1.021-0.214-1.698-0.644
		c-0.676-0.428-1.112-0.872-1.311-1.327c-0.166-0.38-0.325-1.185-0.473-2.416c-0.147-1.229-0.222-2.563-0.222-3.998
		c0-0.782,0.327-1.506,0.979-2.171c0.653-0.665,1.375-0.997,2.164-0.997c0.754,0,1.2,0.688,1.344,2.062
		c0.018,0.159,0.027,0.278,0.037,0.354c0.119,1.056,0.261,1.792,0.419,2.21c0.161,0.418,0.378,0.627,0.65,0.627
		c0.113,0,0.327-0.124,0.639-0.37c0.31-0.248,0.684-0.583,1.116-1.009l7.234-7.166c0.607-0.607,1.149-1.066,1.629-1.379
		c0.479-0.311,0.884-0.467,1.219-0.467c0.252,0,0.429,0.096,0.537,0.285c0.105,0.19,0.158,0.51,0.158,0.958V187.739z"></path>
</g>

<g>
	<path fill="#EB242B" d="M286.738,27.739c0,0.888-0.403,1.754-1.207,2.597l-0.127,0.125l-7.04,7.417
		c-1.496,1.571-2.771,2.787-3.821,3.646c-1.052,0.859-1.796,1.287-2.228,1.287c-0.456,0-1.021-0.214-1.698-0.644
		c-0.676-0.428-1.112-0.872-1.311-1.327c-0.166-0.38-0.325-1.185-0.473-2.416c-0.147-1.229-0.222-2.563-0.222-3.998
		c0-0.782,0.327-1.506,0.979-2.171c0.653-0.665,1.375-0.997,2.164-0.997c0.754,0,1.2,0.688,1.344,2.062
		c0.018,0.159,0.027,0.278,0.037,0.354c0.119,1.056,0.261,1.792,0.419,2.21c0.161,0.418,0.378,0.627,0.65,0.627
		c0.113,0,0.327-0.124,0.639-0.37c0.31-0.248,0.684-0.583,1.116-1.009l7.234-7.166c0.607-0.607,1.149-1.066,1.629-1.379
		c0.479-0.311,0.884-0.467,1.219-0.467c0.252,0,0.429,0.096,0.537,0.285c0.105,0.19,0.158,0.51,0.158,0.958V27.739z"></path>
</g>

<g>
	<g>
		<g>
			<path fill="none" stroke="#29ABE2" stroke-miterlimit="10" stroke-dasharray="5" d="M434.29,98.259h-2.731
				c-0.094,0.736-0.286,1.493-0.599,2.257c-0.131,0.322-0.266,0.642-0.405,0.958"></path>
			<path fill="none" stroke="#29ABE2" stroke-miterlimit="10" stroke-dasharray="5" d="M427.719,106.913
				c-6.335,10.249-16.35,16.327-26.813,14.861c-9.388-1.314-19.155-6.724-23.912-17.274"></path>
			<path fill="none" stroke="#29ABE2" stroke-miterlimit="10" stroke-dasharray="5" d="M375.853,101.586
				c-0.147-0.439-0.284-0.886-0.416-1.34c-0.2-0.698-0.304-1.359-0.339-1.987h-2.732"></path>
			
				<line fill="none" stroke="#29ABE2" stroke-miterlimit="10" stroke-dasharray="5" x1="367.345" y1="98.259" x2="319.651" y2="98.259"></line>
			<polyline fill="none" stroke="#29ABE2" stroke-miterlimit="10" stroke-dasharray="5" points="317.141,98.259 314.408,98.259 
				314.408,101.737 			"></polyline>
			
				<line fill="none" stroke="#29ABE2" stroke-miterlimit="10" stroke-dasharray="5" x1="314.408" y1="108.587" x2="314.408" y2="420.245"></line>
			<polyline fill="none" stroke="#29ABE2" stroke-miterlimit="10" stroke-dasharray="5" points="314.408,423.671 314.408,427.149 
				317.141,427.149 			"></polyline>
			
				<line fill="none" stroke="#29ABE2" stroke-miterlimit="10" stroke-dasharray="5" x1="322.758" y1="427.149" x2="488.458" y2="427.149"></line>
			<polyline fill="none" stroke="#29ABE2" stroke-miterlimit="10" stroke-dasharray="5" points="491.269,427.149 494,427.149 
				494,423.671 			"></polyline>
			<line fill="none" stroke="#29ABE2" stroke-miterlimit="10" stroke-dasharray="5" x1="494" y1="416.822" x2="494" y2="105.162"></line>
			<polyline fill="none" stroke="#29ABE2" stroke-miterlimit="10" stroke-dasharray="5" points="494,101.737 494,98.259 
				491.269,98.259 			"></polyline>
			
				<line fill="none" stroke="#29ABE2" stroke-miterlimit="10" stroke-dasharray="5" x1="486.089" y1="98.259" x2="436.881" y2="98.259"></line>
		</g>
	</g>
</g>
<g>
	<g>
		<g>
			<polyline fill="none" stroke="#29ABE2" stroke-miterlimit="10" stroke-dasharray="5" points="251.807,419.906 251.807,423.33 
				249.052,423.33 			"></polyline>
			
				<line fill="none" stroke="#29ABE2" stroke-miterlimit="10" stroke-dasharray="5" x1="243.386" y1="423.33" x2="76.257" y2="423.33"></line>
			<polyline fill="none" stroke="#29ABE2" stroke-miterlimit="10" stroke-dasharray="5" points="73.424,423.33 70.668,423.33 
				70.668,419.906 			"></polyline>
			
				<line fill="none" stroke="#29ABE2" stroke-miterlimit="10" stroke-dasharray="5" x1="70.668" y1="413.163" x2="70.668" y2="106.352"></line>
			<polyline fill="none" stroke="#29ABE2" stroke-miterlimit="10" stroke-dasharray="5" points="70.668,102.98 70.668,99.557 
				73.424,99.557 			"></polyline>
			
				<line fill="none" stroke="#29ABE2" stroke-miterlimit="10" stroke-dasharray="5" x1="79.089" y1="99.557" x2="246.219" y2="99.557"></line>
			<polyline fill="none" stroke="#29ABE2" stroke-miterlimit="10" stroke-dasharray="5" points="249.052,99.557 251.807,99.557 
				251.807,102.98 			"></polyline>
			
				<line fill="none" stroke="#29ABE2" stroke-miterlimit="10" stroke-dasharray="5" x1="251.807" y1="109.725" x2="251.807" y2="416.535"></line>
		</g>
	</g>
</g>
<line fill="none" stroke="#29ABE2" stroke-miterlimit="10" x1="251.333" y1="282" x2="188.167" y2="282"></line>
<g>
	<path fill="#EB242B" d="M122.738,272.739c0,0.888-0.403,1.754-1.207,2.597l-0.127,0.126l-7.04,7.417
		c-1.496,1.571-2.771,2.786-3.821,3.646c-1.052,0.859-1.796,1.287-2.228,1.287c-0.456,0-1.021-0.215-1.698-0.644
		c-0.676-0.429-1.112-0.872-1.311-1.327c-0.166-0.38-0.325-1.185-0.473-2.416c-0.147-1.229-0.222-2.562-0.222-3.998
		c0-0.782,0.327-1.506,0.979-2.171c0.653-0.665,1.375-0.997,2.164-0.997c0.754,0,1.2,0.688,1.344,2.062
		c0.018,0.159,0.027,0.277,0.037,0.354c0.119,1.056,0.261,1.793,0.419,2.21c0.161,0.418,0.378,0.627,0.65,0.627
		c0.113,0,0.327-0.124,0.639-0.37c0.31-0.248,0.684-0.582,1.116-1.009l7.234-7.166c0.607-0.607,1.149-1.066,1.629-1.379
		c0.479-0.312,0.884-0.468,1.219-0.468c0.252,0,0.429,0.097,0.537,0.285c0.105,0.189,0.158,0.51,0.158,0.958V272.739z"></path>
</g>

<g>
	<g>
		<g>
			<polyline fill="none" stroke="#29ABE2" stroke-miterlimit="10" stroke-dasharray="6.4298" points="251.807,76.451 
				251.807,81.666 249.031,81.666 			"></polyline>
			
				<line fill="none" stroke="#29ABE2" stroke-miterlimit="10" stroke-dasharray="6.4298" x1="243.322" y1="81.666" x2="74.938" y2="81.666"></line>
			<polyline fill="none" stroke="#29ABE2" stroke-miterlimit="10" stroke-dasharray="6.4298" points="72.083,81.666 69.307,81.666 
				69.307,76.451 			"></polyline>
			
				<line fill="none" stroke="#29ABE2" stroke-miterlimit="10" stroke-dasharray="6.4298" x1="69.307" y1="70.968" x2="69.307" y2="62.744"></line>
			<polyline fill="none" stroke="#29ABE2" stroke-miterlimit="10" stroke-dasharray="6.4298" points="69.307,60.002 69.307,54.788 
				72.083,54.788 			"></polyline>
			
				<line fill="none" stroke="#29ABE2" stroke-miterlimit="10" stroke-dasharray="6.4298" x1="77.792" y1="54.788" x2="246.177" y2="54.788"></line>
			<polyline fill="none" stroke="#29ABE2" stroke-miterlimit="10" stroke-dasharray="6.4298" points="249.031,54.788 
				251.807,54.788 251.807,60.002 			"></polyline>
			
				<line fill="none" stroke="#29ABE2" stroke-miterlimit="10" stroke-dasharray="6.4298" x1="251.807" y1="65.485" x2="251.807" y2="73.708"></line>
		</g>
	</g>
</g>
<g>
	<g>
		<g>
			<polyline fill="none" stroke="#29ABE2" stroke-miterlimit="10" stroke-dasharray="6.3702" points="252.002,463.081 
				252.002,467.997 249.245,467.997 			"></polyline>
			
				<line fill="none" stroke="#29ABE2" stroke-miterlimit="10" stroke-dasharray="6.3702" x1="243.572" y1="467.997" x2="76.264" y2="467.997"></line>
			<polyline fill="none" stroke="#29ABE2" stroke-miterlimit="10" stroke-dasharray="6.3702" points="73.428,467.997 
				70.669,467.997 70.669,463.081 			"></polyline>
			
				<line fill="none" stroke="#29ABE2" stroke-miterlimit="10" stroke-dasharray="6.3702" x1="70.669" y1="457.913" x2="70.669" y2="450.163"></line>
			<polyline fill="none" stroke="#29ABE2" stroke-miterlimit="10" stroke-dasharray="6.3702" points="70.669,447.578 
				70.669,442.664 73.428,442.664 			"></polyline>
			
				<line fill="none" stroke="#29ABE2" stroke-miterlimit="10" stroke-dasharray="6.3702" x1="79.1" y1="442.664" x2="246.409" y2="442.664"></line>
			<polyline fill="none" stroke="#29ABE2" stroke-miterlimit="10" stroke-dasharray="6.3702" points="249.245,442.664 
				252.002,442.664 252.002,447.578 			"></polyline>
			
				<line fill="none" stroke="#29ABE2" stroke-miterlimit="10" stroke-dasharray="6.3702" x1="252.002" y1="452.748" x2="252.002" y2="460.498"></line>
		</g>
	</g>
</g>
<rect x="314.52" y="440.396" fill="#E6E6E6" width="179.176" height="23.136"></rect>
<g>
	<g>
		<g>
			<polyline fill="none" stroke="#29ABE2" stroke-miterlimit="10" stroke-dasharray="6.3882" points="52.668,421.208 
				52.668,424.663 52.273,424.663 			"></polyline>
			
				<line fill="none" stroke="#29ABE2" stroke-miterlimit="10" stroke-dasharray="6.3882" x1="51.459" y1="424.663" x2="27.471" y2="424.663"></line>
			<polyline fill="none" stroke="#29ABE2" stroke-miterlimit="10" stroke-dasharray="6.3882" points="27.064,424.663 
				26.668,424.663 26.668,421.208 			"></polyline>
			
				<line fill="none" stroke="#29ABE2" stroke-miterlimit="10" stroke-dasharray="6.3882" x1="26.668" y1="414.405" x2="26.668" y2="104.853"></line>
			<polyline fill="none" stroke="#29ABE2" stroke-miterlimit="10" stroke-dasharray="6.3882" points="26.668,101.451 26.668,97.997 
				27.064,97.997 			"></polyline>
			
				<line fill="none" stroke="#29ABE2" stroke-miterlimit="10" stroke-dasharray="6.3882" x1="27.877" y1="97.997" x2="51.866" y2="97.997"></line>
			<polyline fill="none" stroke="#29ABE2" stroke-miterlimit="10" stroke-dasharray="6.3882" points="52.273,97.997 52.668,97.997 
				52.668,101.451 			"></polyline>
			
				<line fill="none" stroke="#29ABE2" stroke-miterlimit="10" stroke-dasharray="6.3882" x1="52.668" y1="108.256" x2="52.668" y2="417.807"></line>
		</g>
	</g>
</g>
<g>
	<g>
		<g>
			<path fill="none" stroke="#29ABE2" stroke-miterlimit="10" stroke-dasharray="5.5572" d="M247.974,146.491"></path>
			<path fill="none" stroke="#29ABE2" stroke-miterlimit="10" stroke-dasharray="5.5572" d="M247.974,369.286"></path>
			<path fill="none" stroke="#29ABE2" stroke-miterlimit="10" stroke-dasharray="5.5572" d="M319.232,141.557"></path>
			<path fill="none" stroke="#29ABE2" stroke-miterlimit="10" stroke-dasharray="5.5572" d="M251.391,141.557"></path>
			<path fill="none" stroke="#29ABE2" stroke-miterlimit="10" stroke-dasharray="5.5572" d="M321.5,371.734"></path>
			<path fill="none" stroke="#29ABE2" stroke-miterlimit="10" stroke-dasharray="5.5572" d="M321.5,148.94"></path>
		</g>
	</g>
</g>
<g>
	<g>
		<g>
			<polyline fill="none" stroke="#29ABE2" stroke-miterlimit="10" stroke-dasharray="6.3882" points="296.381,422.357 
				296.381,425.824 295.958,425.824 			"></polyline>
			
				<line fill="none" stroke="#29ABE2" stroke-miterlimit="10" stroke-dasharray="6.3882" x1="295.086" y1="425.824" x2="269.411" y2="425.824"></line>
			<polyline fill="none" stroke="#29ABE2" stroke-miterlimit="10" stroke-dasharray="6.3882" points="268.976,425.824 
				268.553,425.824 268.553,422.357 			"></polyline>
			
				<line fill="none" stroke="#29ABE2" stroke-miterlimit="10" stroke-dasharray="6.3882" x1="268.553" y1="415.531" x2="268.553" y2="104.924"></line>
			<polyline fill="none" stroke="#29ABE2" stroke-miterlimit="10" stroke-dasharray="6.3882" points="268.553,101.511 
				268.553,98.045 268.976,98.045 			"></polyline>
			
				<line fill="none" stroke="#29ABE2" stroke-miterlimit="10" stroke-dasharray="6.3882" x1="269.846" y1="98.045" x2="295.521" y2="98.045"></line>
			<polyline fill="none" stroke="#29ABE2" stroke-miterlimit="10" stroke-dasharray="6.3882" points="295.958,98.045 
				296.381,98.045 296.381,101.511 			"></polyline>
			
				<line fill="none" stroke="#29ABE2" stroke-miterlimit="10" stroke-dasharray="6.3882" x1="296.381" y1="108.338" x2="296.381" y2="418.945"></line>
		</g>
	</g>
</g>
</svg>