<svg version="1.1" xmlns="http://www.w3.org/2000/svg" xmlns:xlink="http://www.w3.org/1999/xlink" x="0px" y="0px" width="3000" height="2475" viewBox="0 0 3000 2475" enable-background="new 0 0 720 594" xml:space="preserve">
<g id="Background">
	<polygon fill="#929497" points="0,0 0,594 720,594 720,0 0,0 	"></polygon>
</g>
<g id="cuts">
	<g id="XMLID_1_">
		<g>
			<path fill="#FFFFFF" d="M315,541v43.2H115V541H17.8v-54V143c0-29.82,24.18-54,54-54H115V45.8c0-19.88,16.12-36,36-36h128
				c19.88,0,36,16.12,36,36V89h43.2c29.819,0,54,24.18,54,54h82c0,22,36,22,36,0h82h90v344h-90v90.2h-200V541H315z"></path>
		</g>
		<g>
			<line fill="none" stroke="#000000" stroke-miterlimit="10" x1="17.8" y1="487" x2="17.8" y2="143"></line>
			<path fill="none" stroke="#EC1C24" stroke-miterlimit="10" d="M612.2,143h-82c0,22-36,22-36,0h-82"></path>
			<polyline fill="none" stroke="#EC1C24" stroke-miterlimit="10" points="612.2,487 702.2,487 702.2,143 612.2,143 			"></polyline>
			<path fill="none" stroke="#EC1C24" stroke-miterlimit="10" d="M17.8,143c0-29.82,24.18-54,54-54H115"></path>
			<path fill="none" stroke="#EC1C24" stroke-miterlimit="10" d="M412.2,143c0-29.82-24.181-54-54-54H315"></path>
			<polyline fill="none" stroke="#EC1C24" stroke-miterlimit="10" points="115,171.8 115,89 115,45.8 143.8,45.8 			"></polyline>
			<polyline fill="none" stroke="#EC1C24" stroke-miterlimit="10" points="315,171.8 315,89 315,45.8 286.2,45.8 			"></polyline>
			<path fill="none" stroke="#EC1C24" stroke-miterlimit="10" d="M115,45.8c0-19.88,16.12-36,36-36h128"></path>
			<path fill="none" stroke="#EC1C24" stroke-miterlimit="10" d="M315,45.8c0-19.88-16.12-36-36-36"></path>
			<polyline fill="none" stroke="#EC1C24" stroke-miterlimit="10" points="412.2,541 412.2,577.2 612.2,577.2 612.2,487 			"></polyline>
			<polyline fill="none" stroke="#EC1C24" stroke-miterlimit="10" points="315,541 412.2,541 412.2,487 			"></polyline>
			<polyline fill="none" stroke="#EC1C24" stroke-miterlimit="10" points="115,541 115,584.2 315,584.2 315,541 315,487 			"></polyline>
			<polyline fill="none" stroke="#EC1C24" stroke-miterlimit="10" points="17.8,487 17.8,541 115,541 115,487 			"></polyline>
		</g>
	</g>
</g>
<g id="folds">
	<rect x="115" y="171.8" fill="none" stroke="#8BC53F" stroke-miterlimit="10" width="200.007" height="315.2"></rect>
	<line fill="none" stroke="#8BC53F" stroke-miterlimit="10" x1="412.2" y1="487" x2="612.2" y2="487"></line>
	<line fill="none" stroke="#8BC53F" stroke-miterlimit="10" x1="115" y1="143" x2="17.8" y2="143"></line>
	<polyline fill="none" stroke="#8BC53F" stroke-miterlimit="10" points="315.003,487 412.197,487 412.197,143 315.003,143 	"></polyline>
	<line fill="none" stroke="#8BC53F" stroke-miterlimit="10" x1="612.2" y1="487" x2="612.2" y2="143"></line>
	<line fill="none" stroke="#8BC53F" stroke-miterlimit="10" x1="142.481" y1="45.8" x2="286.2" y2="45.8"></line>
	<line fill="none" stroke="#8BC53F" stroke-miterlimit="10" x1="115" y1="143" x2="314.401" y2="143"></line>
	<line fill="none" stroke="#8BC53F" stroke-miterlimit="10" x1="115" y1="487" x2="17.8" y2="487"></line>
</g>
<g id="instructions">
	<rect x="620.5" y="151.25" fill="#E6E6E6" width="72.829" height="323.728"></rect>
	
	<g>
		<path fill="#EC1E28" d="M514.24,186.574c0,0.888-0.403,1.754-1.207,2.597l-0.127,0.125l-7.04,7.417
			c-1.496,1.571-2.771,2.787-3.821,3.646c-1.052,0.859-1.796,1.287-2.228,1.287c-0.456,0-1.021-0.214-1.698-0.644
			c-0.676-0.428-1.112-0.872-1.311-1.327c-0.166-0.38-0.325-1.185-0.473-2.416c-0.147-1.229-0.222-2.563-0.222-3.998
			c0-0.782,0.327-1.506,0.979-2.171c0.653-0.665,1.375-0.997,2.164-0.997c0.754,0,1.2,0.688,1.344,2.062
			c0.018,0.159,0.027,0.278,0.037,0.354c0.119,1.056,0.261,1.792,0.419,2.21c0.161,0.418,0.378,0.627,0.65,0.627
			c0.113,0,0.327-0.124,0.639-0.37c0.31-0.248,0.684-0.583,1.116-1.009l7.234-7.166c0.607-0.607,1.149-1.066,1.629-1.379
			c0.479-0.311,0.884-0.467,1.219-0.467c0.252,0,0.429,0.096,0.537,0.285c0.105,0.19,0.158,0.51,0.158,0.958V186.574z"></path>
	</g>
	<line fill="none" stroke="#EC1C24" x1="546.996" y1="187.798" x2="546.996" y2="142.834"></line>
	
	<line fill="none" stroke="#8BC53F" x1="286.001" y1="243.171" x2="314.801" y2="242.838"></line>
	<rect x="482.596" y="42.302" fill="#E6E7E8" width="222.402" height="74.891"></rect>
	
	<g>
		<path fill="#EC1E28" d="M615.455,49.975c0,0.565-0.257,1.118-0.77,1.655l-0.081,0.081l-4.491,4.732
			c-0.955,1.001-1.768,1.776-2.438,2.326c-0.671,0.546-1.146,0.82-1.421,0.82c-0.291,0-0.652-0.137-1.084-0.411
			c-0.432-0.272-0.709-0.555-0.836-0.846c-0.106-0.242-0.207-0.756-0.301-1.542c-0.096-0.784-0.143-1.635-0.143-2.55
			c0-0.501,0.209-0.961,0.625-1.387c0.418-0.423,0.877-0.635,1.381-0.635c0.48,0,0.766,0.438,0.857,1.316
			c0.012,0.101,0.018,0.176,0.023,0.225c0.076,0.674,0.166,1.143,0.268,1.409s0.241,0.401,0.414,0.401
			c0.073,0,0.209-0.08,0.408-0.237c0.197-0.157,0.437-0.371,0.713-0.644l4.615-4.57c0.388-0.388,0.733-0.682,1.039-0.881
			c0.305-0.199,0.564-0.299,0.777-0.299c0.16,0,0.273,0.062,0.342,0.183c0.068,0.122,0.102,0.325,0.102,0.611V49.975z"></path>
	</g>
	<g>
		<circle fill-rule="evenodd" clip-rule="evenodd" cx="519.262" cy="79.023" r="33.053"></circle>
		<circle fill-rule="evenodd" clip-rule="evenodd" fill="#B7D333" cx="519.285" cy="79.205" r="30.049"></circle>
		<g>
			<path d="M512.852,72.653c-0.417,3.682-0.727,6.643-0.934,8.874l-1.369,0.061c0.02-0.074,0.028-0.159,0.031-0.252
				c0.002-0.167-0.059-0.388-0.185-0.661c-0.126-0.271-0.198-0.445-0.216-0.52c-0.354,0.052-0.693,0.298-1.018,0.736
				c-0.324,0.441-0.618,0.662-0.878,0.658c-0.149-0.005-0.317-0.044-0.501-0.121c-0.246,0.163-0.562,0.233-0.955,0.209
				c-0.352-0.063-0.696-0.115-1.031-0.158c-0.012-0.467-0.469-0.874-1.376-1.226c0.004-0.187-0.091-0.463-0.28-0.831
				c-0.189-0.366-0.282-0.623-0.279-0.772c0.002-0.167,0.069-0.306,0.203-0.416c-0.02-0.055-0.173-0.403-0.459-1.043
				c-0.196-0.469-0.292-0.871-0.287-1.205c0.005-0.261,0.064-0.502,0.182-0.724c-0.16-1.587-0.23-2.948-0.21-4.084
				c0.028-1.751,0.278-3.359,0.753-4.824c-0.034-0.225-0.05-0.448-0.047-0.672c0.021-1.174,0.428-1.985,1.215-2.439l0.008-0.363
				c0.781-0.993,1.809-1.712,3.082-2.156c0.764,0.182,1.523,0.353,2.284,0.516c0.853,0.294,1.44,0.797,1.763,1.511
				c0.258,0.154,0.385,0.464,0.377,0.927c-0.009,0.524,0.051,0.861,0.178,1.012l-0.143,0.164c0.148,1.103,0.223,1.775,0.218,2.016
				c-0.013,0.71-0.198,1.209-0.557,1.501c-0.13-0.001-0.473-0.118-1.027-0.353c-0.134,0.128-0.275,0.191-0.423,0.188
				c-0.075-0.001-0.211-0.042-0.404-0.12c-0.193-0.077-0.357-0.115-0.487-0.117c-0.093-0.002-0.187,0.014-0.28,0.049
				c-0.012-1.471,0.035-2.569,0.14-3.295c-0.147-0.096-0.297-0.315-0.449-0.65c-0.153-0.339-0.351-0.529-0.591-0.569
				c-0.152,0.185-0.221,0.305-0.203,0.361l-0.5-0.177c-0.455,0.495-0.759,1.356-0.909,2.583c-0.155,1.415-0.348,2.352-0.578,2.813
				c0.2,0.209,0.299,0.499,0.29,0.872c-0.001,0.129-0.023,0.345-0.066,0.641c-0.043,0.298-0.064,0.522-0.066,0.672
				c-0.002,0.167,0.012,0.316,0.049,0.446l-0.342,0.33c0.138,0.636,0.218,1.439,0.239,2.409c-0.014,0.818-0.02,1.639-0.014,2.458
				c-0.02,0-0.178,0.007-0.476,0.021c-0.186-0.005-0.319,0.059-0.395,0.188c0.111-0.017,0.215-0.024,0.307-0.021
				c0.41,0.005,0.731,0.296,0.963,0.868c0.234,0.572,0.434,0.86,0.602,0.864c0.187,0.001,0.441-0.171,0.765-0.521
				c0.549-0.585,0.833-1.392,0.851-2.416c0.01-0.503-0.047-1.044-0.168-1.623c-0.131,0.071-0.2,0.257-0.205,0.555
				c-0.298-0.004-0.486,0.058-0.562,0.186c-0.129-0.039-0.184-0.143-0.162-0.309c0.021-0.242,0.033-0.374,0.033-0.393
				c0.227-0.068,0.338-0.171,0.342-0.3c0-0.057-0.039-0.161-0.121-0.312c-0.08-0.149-0.119-0.271-0.119-0.365
				c0-0.073,0.021-0.147,0.06-0.223l0.13-1.088c0.409,0.12,1.293,0.171,2.654,0.159c-0.04,0.09,0.014,0.214,0.162,0.363
				c0.131-0.128,0.271-0.191,0.422-0.187c0.11,0.002,0.277,0.051,0.498,0.147C512.601,72.603,512.757,72.652,512.852,72.653z"></path>
			<path d="M523.282,82.278c-0.26-0.115-0.538-0.175-0.835-0.182c-0.262-0.004-0.617,0.046-1.066,0.15
				c-0.506,0.103-0.851,0.162-1.037,0.178c-0.199-0.395-0.338-0.937-0.418-1.629c-0.15-1.008-0.246-1.577-0.279-1.711
				c0.059-0.11,0.088-0.203,0.088-0.275c0.004-0.206-0.156-0.391-0.479-0.556c-0.325-0.162-0.485-0.292-0.482-0.386
				c0.001-0.108,0.189-0.274,0.566-0.492c-0.091-0.112-0.158-0.342-0.199-0.687c-0.039-0.346-0.125-0.576-0.253-0.69
				c-0.228,0.202-0.597,0.331-1.11,0.386c-0.514,0.059-0.854,0.141-1.023,0.248c0.011,1.454-0.229,2.43-0.721,2.923
				c-0.26-0.06-0.459,0.04-0.592,0.3c-0.193,0.312-0.355,0.495-0.486,0.549l0.164,0.198c-0.15,0.128-0.395,0.181-0.729,0.156
				c-0.521-0.028-0.801-0.042-0.838-0.042l-0.158-0.508l1.82-15.089c0.018-0.95,0.064-1.595,0.145-1.928
				c-0.023-0.84,0.172-1.358,0.584-1.556c0.259,0.172,0.584,0.261,0.975,0.269c0.318,0.006,0.812-0.061,1.484-0.199
				c0.676-0.137,1.142-0.205,1.402-0.201c0.912,0.018,1.311,0.676,1.197,1.979c-0.093,1.042,0.07,2.415,0.487,4.117
				c0.436,1.835,0.646,3.208,0.63,4.122c-0.006,0.277,0.087,0.857,0.063,1.136c-0.396,0.217-0.899,0.349-1.515,0.393
				c-0.541,0.029-1.093,0.059-1.651,0.084c-0.144-1.419-0.394-3.127-0.538-4.528c-0.176-1.68-0.395-3.061-0.656-4.147l-0.863,7.979
				c-0.066,0.689,0.245,1.04,0.935,1.052c0.224,0.004,0.437-0.049,0.646-0.157c0.168-0.053,0.4,0.071,0.692,0.375
				c-0.011,0.577,0.104,0.924,0.345,1.041c0.303-0.2,0.696-0.39,1.184-0.569c0.431-0.158,0.855-0.31,1.268-0.452
				c0.234,0.321,0.387,0.798,0.451,1.434c0.076,0.896,0.133,1.42,0.168,1.567c0.031,0.355,0.176,1.121,0.435,2.301
				c0.19,0.933,0.279,1.69,0.271,2.268C523.346,81.777,523.322,82.037,523.282,82.278z"></path>
			<path d="M536.152,68.967c-0.021,0.057-0.025,0.383-0.016,0.979c-0.01,0.485-0.07,0.847-0.187,1.087
				c-0.139,0.371-0.21,0.902-0.224,1.591c-0.003,0.149,0.002,0.382,0.016,0.698c-0.006,0.318-0.009,0.551-0.011,0.699
				c-0.021,1.174-0.222,2.026-0.604,2.561c0.033,0.301,0.047,0.598,0.044,0.896c-0.017,0.932-0.336,2.185-0.959,3.759
				c-0.169,0.054-0.311,0.077-0.423,0.076c-0.223-0.005-0.383-0.135-0.482-0.387c-0.099-0.253-0.19-0.492-0.279-0.717
				c0.061-1.433,0.031-3.521-0.091-6.264l0.171-0.165c-0.123-0.484-0.178-1.026-0.168-1.622c0.007-0.43,0.061-1.053,0.156-1.871
				c0.1-0.818,0.151-1.434,0.158-1.843c0.006-0.261-0.002-0.511-0.014-0.754c-0.643,1.536-1.097,4.136-1.363,7.802l-0.234,0.556
				c-0.077,0.187-0.237,0.286-0.479,0.301c-0.073-0.131-0.146-0.198-0.22-0.199c-0.057-0.003-0.155,0.065-0.297,0.204
				c-0.144,0.137-0.261,0.195-0.353,0.176l-0.371,0.328c0.164,0.208,0.518,0.232,1.062,0.076c0.429-0.125,0.65,0.038,0.662,0.485
				c0.012,0.372-0.09,0.874-0.305,1.505c-0.217,0.628-0.326,1.102-0.332,1.42c-0.004,0.224,0.021,0.447,0.072,0.67l-1.934,0.303
				c-0.18-0.375-0.313-1.007-0.402-1.894c-0.086-0.884-0.221-1.518-0.4-1.893c0.113-0.128,0.172-0.266,0.174-0.416
				c0.002-0.131-0.049-0.327-0.157-0.589c-0.106-0.265-0.168-0.46-0.186-0.592c-0.015-0.204-0.08-0.701-0.198-1.484
				c-0.082-0.634-0.121-1.131-0.115-1.482c0.004-0.188,0.017-0.355,0.037-0.505c0.002-0.129-0.07-0.321-0.213-0.577
				c-0.146-0.253-0.217-0.436-0.213-0.548c0-0.093,0.038-0.175,0.113-0.249c-0.128-0.152-0.18-0.413-0.154-0.784
				c0.025-0.374-0.027-0.636-0.153-0.785c-0.274,0.72-0.42,1.696-0.442,2.925c-0.01,1.715-0.027,2.704-0.05,2.963l0.193,0.174
				l-0.198,0.161c0.137,0.673,0.198,1.533,0.18,2.575c-0.051,1.882-0.074,2.757-0.073,2.629c-0.265,0.235-0.63,0.352-1.097,0.343
				c-0.576-0.009-0.97,0.041-1.176,0.147c-0.234-0.414-0.348-0.946-0.336-1.598c0.008-0.504,0.094-1.116,0.256-1.842
				c-0.254-0.472-0.373-1.124-0.359-1.963c0.004-0.206,0.029-0.595,0.076-1.174c0.027-0.463,0.032-0.809,0.019-1.032
				c0.187-0.09,0.282-0.189,0.283-0.303c0.003-0.074-0.056-0.202-0.175-0.381c-0.118-0.177-0.176-0.313-0.176-0.408
				c0.003-0.111,0.079-0.222,0.229-0.332l-0.603-9.039c0.359-0.235,0.939-0.347,1.74-0.333c0.875,0.034,1.474-0.013,1.791-0.135
				c0.058-0.039,0.122-0.056,0.197-0.056c0.076,0.003,0.162,0.046,0.264,0.131s0.17,0.129,0.207,0.129
				c0.074,0.001,0.141-0.054,0.199-0.166l0.521,0.515c0.176,0.655,0.341,1.925,0.496,3.808c0.158,1.625,0.406,2.852,0.748,3.677
				c0.457-1.65,0.833-3.033,1.132-4.145l0.606-4.425l4.333-0.095c0.017,0.241,0.069,1.538,0.187,2.286
				c0.099,0.652,0.146,1.185,0.14,1.594c-0.007,0.467-0.079,0.886-0.218,1.255c0.145,0.208,0.217,0.47,0.211,0.784
				C536.385,68.507,536.304,68.764,536.152,68.967z"></path>
			<path d="M545.042,78.764l0.001-0.028c-0.115,0.239-0.187,0.519-0.209,0.835c-0.021,0.204-0.028,0.492-0.016,0.865
				c0.011,0.428,0.016,0.727,0.014,0.896c-0.15-0.003-0.746-0.014-1.789-0.03c-0.634-0.011-1.202,0.044-1.708,0.167l-0.521-0.568
				c-0.153,0.146-0.21,0.266-0.175,0.359c-0.092-0.02-0.521-0.026-1.285-0.021c-0.596-0.009-1.043-0.075-1.337-0.19
				c-0.306,0.313-0.659,0.306-1.063-0.018c-0.146-0.113-0.162-0.306-0.047-0.573c0.117-0.269,0.083-0.469-0.1-0.604
				c0.027-0.595,0.109-1.517,0.242-2.764c0.131-1.114,0.2-1.99,0.211-2.623c0.014-0.857-0.045-1.679-0.181-2.463
				c0.21-0.201,0.442-0.3,0.704-0.295c0.299,0.003,0.65,0.15,1.055,0.438c0.568,0.397,0.867,0.602,0.884,0.602l0.163,0.197
				c0.021-0.057,0.119-0.353,0.295-0.89c0.1-0.352,0.244-0.581,0.433-0.691l0.165,0.171c0.075-0.035,0.319-0.209,0.736-0.519
				c0.317-0.22,0.58-0.736,0.766-0.73c0.206,0.001,0.396,0.118,0.581,0.345c0.313,0.171,0.511,0.842,0.609,1.187
				c0.096,0.348,0.188,0.688,0.276,1.027c-0.838,0.022-1.529,0-2.068-0.064c-0.133,0.203-0.32,0.232-0.561,0.089
				c-0.239-0.143-0.416-0.123-0.531,0.059c-0.006,0.337-0.018,0.944-0.031,1.818c-0.033,0.781-0.042,1.396-0.03,1.845
				c0.006,0.689,0.051,1.323,0.134,1.901c0.148,0.004,0.856,0.017,2.123,0.038C543.658,78.544,544.411,78.621,545.042,78.764z
				 M545.102,65.374c-0.168,0.017-0.353,0.022-0.559,0.02c-0.428-0.007-0.996-0.075-1.701-0.198
				c-0.875-0.125-1.404-0.199-1.591-0.222c-0.267,0.386-0.405,0.934-0.419,1.642c-0.025,1.528-0.025,2.189-0.005,1.984
				c0.259,0.153,0.384,0.437,0.376,0.846c-0.028,0.559-0.032,0.849-0.014,0.866c-0.131,0.053-0.2,0.238-0.205,0.555
				c-0.205-0.077-0.416-0.23-0.635-0.458c-0.294-0.285-0.45,0.68-0.428,0.439l-0.178,0.573l-0.164-0.17
				c-0.15,0.017-0.405-0.062-0.765-0.236c-0.362-0.175-0.614-0.334-0.761-0.488c0.006-0.298,0.055-0.465,0.148-0.501l-0.356-0.396
				l-0.171,0.247c-0.21-1.942-0.158-5.571,0.098-7.617c0.708,0.122,1.489,0.202,2.346,0.235c0.578,0.028,1.387,0.042,2.431,0.042
				c1.193,0.001,2.052,0.005,2.573,0.014c0.218,0.208,0.326,0.481,0.32,0.816c-0.002,0.206-0.061,0.536-0.17,0.989
				C545.162,64.813,545.105,65.149,545.102,65.374z"></path>
		</g>
		<g>
			<path d="M513.691,95.663v-0.015c0,0.01-0.049,0.422-0.145,1.233c-0.049,0.498-0.168,0.891-0.36,1.176l-0.122-0.098
				c-0.227,0.474-0.533,0.763-0.925,0.865c-0.187,0.196-0.456,0.305-0.808,0.326c-0.209,0.013-0.691-0.049-1.447-0.182
				c-0.366-0.228-0.566-0.354-0.602-0.379c-0.23-0.172-0.34-0.347-0.328-0.526c-0.222-0.226-0.535-0.631-0.652-1.137
				c-0.143-0.562-0.229-0.591-0.361-0.789c-0.211,0.156-0.287-0.174-0.408-0.373l0.109-0.083c-0.068-0.05-0.105-0.106-0.109-0.169
				c-0.002-0.044,0.019-0.108,0.056-0.196c0.04-0.086,0.06-0.15,0.056-0.195c-0.005-0.069-0.046-0.131-0.126-0.178
				c0.085-0.441,0.162-1.103,0.231-1.982c0.15-0.081,0.221-0.234,0.213-0.466c-0.008-0.229,0.025-0.382,0.098-0.456
				c0.354-0.714,0.934-1.194,1.734-1.444c0.044,0.005,0.258,0.001,0.644-0.011c0.264-0.007,0.464,0.016,0.599,0.071
				c0.24-0.042,0.48,0.018,0.72,0.171c0.208,0.157,0.417,0.312,0.622,0.47c0.389,0.42,0.599,0.897,0.63,1.427
				c0.01,0.175-0.002,0.363-0.034,0.559c-0.287-0.008-0.49,0.179-0.611,0.569l-1.117,0.104c-0.119-0.17-0.189-0.397-0.205-0.681
				c-0.006-0.097-0.004-0.239,0-0.424c0.005-0.188,0.006-0.329,0-0.426c-0.018-0.292-0.085-0.521-0.206-0.694l-0.335,0.192
				c-0.137-0.054-0.205-0.133-0.212-0.239c-0.002-0.035,0.003-0.088,0.016-0.153c0.013-0.069,0.019-0.114,0.017-0.142
				c-0.006-0.114-0.109-0.183-0.309-0.21c-0.137,1.259-0.178,2.552-0.123,3.878c0.035,0.043,0.142,0.071,0.318,0.09
				c0.145,0.017,0.219,0.062,0.222,0.131c0.003,0.028-0.005,0.063-0.026,0.109l-0.109,0.086c0.059,0.093,0.096,0.227,0.105,0.394
				c0.004,0.087,0.002,0.223-0.01,0.406c-0.012,0.183-0.015,0.318-0.01,0.405c0.017,0.265,0.082,0.466,0.201,0.602
				c-0.012,0.193,0.068,0.328,0.236,0.396c0.107-0.041,0.205-0.062,0.295-0.068c0.34-0.021,0.576,0.166,0.709,0.556
				c0.001,0.01-0.002,0.075-0.004,0.201c0.004,0.071,0.039,0.116,0.106,0.14c0.148-0.09,0.222-0.249,0.22-0.479
				c-0.003-0.265,0.031-0.436,0.102-0.51c-0.018-0.124-0.09-0.302-0.22-0.532c-0.13-0.233-0.196-0.414-0.206-0.548
				c-0.008-0.141,0.035-0.275,0.125-0.404c-0.078-0.024-0.113-0.074-0.107-0.155c0.004-0.125,0.006-0.191,0.006-0.199
				C512.447,95.526,513.066,95.522,513.691,95.663z"></path>
			<path d="M518.749,96.7h-0.014c-0.065,0.126-0.085,0.311-0.063,0.548c0.031,0.336,0.048,0.509,0.048,0.517
				c-0.05,0.021-0.12-0.006-0.204-0.074c-0.13,0.049-0.193,0.131-0.186,0.245c0,0.018,0.008,0.046,0.021,0.086
				c0.001,0.049,0.005,0.082,0.005,0.099c0.006,0.09-0.021,0.157-0.08,0.203c-0.148-0.082-0.344-0.135-0.584-0.159
				c-0.244-0.021-0.475-0.044-0.689-0.063c-0.004-1.121-0.154-2.22-0.453-3.289c0,0.008-0.006-0.101-0.02-0.334
				c0.002-0.164-0.035-0.281-0.111-0.352l-0.102,0.092c-0.002-0.017,0.031-0.047,0.101-0.097s0.104-0.1,0.1-0.149
				c-0.003-0.024-0.009-0.049-0.021-0.071l-0.112-0.081c-0.19,0.062-0.278,0.216-0.265,0.459c0.01,0.165-0.057,0.281-0.194,0.346
				c0.054,0.039,0.081,0.089,0.083,0.145c0.004,0.033-0.001,0.08-0.014,0.139c-0.013,0.057-0.018,0.102-0.015,0.137
				c0.003,0.071,0.044,0.132,0.117,0.177c0.004,0.05,0.028,0.494,0.077,1.333c0.031,0.534,0.016,0.987-0.043,1.361l0.012,0.209
				c-0.072-0.003-0.155-0.001-0.246,0.002c-0.102,0.008-0.25,0.022-0.443,0.047c-0.191,0.023-0.336,0.037-0.427,0.043
				c-0.378,0.021-0.644-0.043-0.796-0.19l-0.159-4.604c-0.075-0.225-0.124-0.541-0.147-0.943l-0.051-0.889
				c-0.036-0.435-0.092-0.769-0.167-1.003c0.032-0.16,0.171-0.246,0.416-0.26c0.153-0.009,0.358,0.011,0.618,0.063
				c0.119-0.055,0.287-0.09,0.502-0.104c0.061-0.006,0.158-0.006,0.291-0.006c0.143-0.008,0.245-0.014,0.306-0.018
				c0.4-0.021,0.663-0.145,0.794-0.367c0.186-0.003,0.386,0.057,0.604,0.175c0.215,0.12,0.406,0.185,0.57,0.189
				c0.436,0.255,0.669,0.679,0.705,1.271c0.008,0.132-0.045,0.654-0.156,1.567l-0.746,0.648c0.127,0.232,0.279,0.738,0.457,1.521
				C518.217,95.918,518.443,96.396,518.749,96.7z M517.369,91.461l0.016,0.011c0.015,0.057,0.008-0.146-0.02-0.603
				c-0.012-0.223-0.094-0.383-0.244-0.482c-0.084,0.12,0.013,0.177-0.028,0.454c-0.038,0.279-0.204,0.201-0.3,0.322
				c-0.256,0-0.314,0.154-0.37-0.09c-0.114-0.398-0.214-0.363-0.215-0.37l-0.108,0.064c-0.04,0.035-0.084,0.074-0.132,0.12
				c-0.048,0.045-0.099,0.058-0.15,0.046c0.003,0.05-0.021,0.126-0.071,0.232s-0.074,0.178-0.072,0.22
				c0.006,0.075,0.063,0.129,0.18,0.164c-0.021,0.165-0.026,0.339-0.018,0.52c0.007,0.098,0.029,0.324,0.071,0.676
				c0.047,0.277,0.065,0.516,0.056,0.713c0.094,0.003,0.18,0.003,0.262-0.001c0.358-0.021,0.591-0.163,0.698-0.424
				c0.036-0.075,0.077-0.352,0.122-0.823C517.084,91.854,517.192,91.603,517.369,91.461z"></path>
			<path d="M524.553,98.488c-0.146-0.043-0.301-0.058-0.465-0.048c-0.143,0.008-0.335,0.044-0.576,0.106
				c-0.275,0.065-0.462,0.106-0.562,0.119c-0.125-0.165-0.22-0.399-0.287-0.699c-0.119-0.439-0.19-0.687-0.213-0.743
				c0.029-0.05,0.041-0.093,0.039-0.127c-0.006-0.09-0.102-0.164-0.282-0.225c-0.185-0.058-0.276-0.11-0.278-0.15
				c-0.002-0.049,0.094-0.128,0.294-0.238c-0.055-0.048-0.098-0.146-0.132-0.298c-0.035-0.149-0.088-0.246-0.164-0.292
				c-0.117,0.099-0.314,0.17-0.594,0.216c-0.279,0.043-0.463,0.093-0.555,0.149c0.059,0.638,0,1.762-0.251,1.998
				c-0.144-0.016-0.247,0.035-0.314,0.156c-0.095,0.145-0.177,0.232-0.245,0.262l0.096,0.079c-0.079,0.064-0.21,0.096-0.393,0.099
				c-0.287,0.008-0.439,0.012-0.461,0.013l-0.104-0.218l0.431-7.402c-0.023-0.418-0.02-0.703,0.011-0.853
				c-0.042-0.369,0.048-0.606,0.267-0.71c0.148,0.066,0.328,0.092,0.543,0.08c0.173-0.01,0.444-0.057,0.807-0.146
				c0.363-0.087,0.617-0.134,0.761-0.143c0.5-0.028,0.741,0.245,0.724,0.823c-0.015,0.462,0.123,1.06,0.412,1.794
				c0.302,0.789,0.463,1.387,0.486,1.791c0.008,0.122,0.173,0.385,0.17,0.509c-0.211,0.11-0.482,0.187-0.817,0.231
				c-0.296,0.035-0.595,0.069-0.901,0.103c-0.128-0.619-0.418-1.371-0.545-1.984c-0.156-0.732-0.324-1.331-0.504-1.802l-0.195,3.55
				c-0.012,0.306,0.172,0.447,0.549,0.426c0.121-0.007,0.238-0.039,0.348-0.095c0.092-0.029,0.221,0.017,0.392,0.138
				c0.015,0.256,0.091,0.405,0.228,0.445c0.157-0.1,0.367-0.199,0.627-0.296c0.23-0.087,0.457-0.171,0.678-0.249
				c0.142,0.132,0.238,0.337,0.299,0.612c0.072,0.394,0.121,0.619,0.146,0.686c0.029,0.154,0.136,0.487,0.318,0.996
				c0.138,0.403,0.213,0.733,0.228,0.987C524.568,98.263,524.566,98.379,524.553,98.488z"></path>
			<path d="M528.783,90.089h0.015c-0.122,0.181-0.278,0.215-0.47,0.103c-0.041-0.008-0.226,0.004-0.553,0.031
				c-0.274,0.017-0.475,0.001-0.602-0.04c-0.029,0.004-0.091,0.033-0.178,0.091c-0.09,0.062-0.153,0.089-0.195,0.092
				c-0.061,0.006-0.096-0.048-0.102-0.155c-0.002-0.015-0.006-0.086-0.012-0.208c-0.005-0.082-0.045-0.139-0.117-0.167l-0.191,0.148
				c-0.059,0.044-0.088,0.09-0.084,0.14c0.002,0.04,0.037,0.099,0.104,0.174c0.064,0.074,0.104,0.128,0.115,0.158
				c0.002,0.026,0.023,0.396,0.064,1.11c0.015,0.455,0.1,0.816,0.248,1.087c0.037-0.043,0.131-0.067,0.279-0.07
				c0.148-0.005,0.246-0.037,0.295-0.098c0.098,0.083,0.258,0.09,0.484,0.015c0.228-0.076,0.391-0.052,0.49,0.076l-0.03,1.091
				c-0.093-0.013-0.229-0.057-0.407-0.136c-0.053,0.158-0.154,0.26-0.305,0.3c-0.062,0.021-0.234,0.038-0.52,0.055
				c0.008-0.05-0.037-0.101-0.134-0.151c-0.277,0.132-0.384,0.446-0.313,0.945c0.008-0.051,0.018,0.036,0.031,0.258
				c0.008,0.139-0.021,0.241-0.09,0.302c-0.174,0.025-0.393-0.013-0.66-0.116c-0.266-0.104-0.458-0.153-0.57-0.146
				c-0.05,0.003-0.098,0.01-0.137,0.021l-0.287,0.09l-0.459-4.981l-0.055-0.949c0.381-0.128,0.854-0.21,1.416-0.242
				c0.439-0.025,1.014-0.021,1.723,0.011c0.045-0.093,0.129,0.028,0.232,0.024c0.051-0.004,0.127,0.002,0.23,0.016
				c0.104,0.015,0.182,0.021,0.233,0.018c0.06-0.003,0.115-0.015,0.165-0.033l0.072-0.08c0.209,0.062,0.318,0.173,0.327,0.327
				c0.005,0.066-0.017,0.18-0.059,0.338c-0.04,0.159-0.06,0.281-0.056,0.362C528.73,89.968,528.75,90.034,528.783,90.089z
				 M526.99,98.402c-0.108,0.057-0.277,0.089-0.502,0.104c-0.295,0.017-0.473,0.032-0.535,0.043
				c-0.031-0.031-0.07-0.006-0.137-0.266c-0.043-0.171-0.15-0.252-0.322-0.24c-0.042,0.002-0.091,0.009-0.152,0.02l-0.276,0.018
				l-0.147-2.522c0.151-0.073,0.338-0.117,0.562-0.131c0.215-0.012,0.405,0.01,0.571,0.064c-0.003,0.093,0.127,0.132,0.392,0.113
				l0.292-0.018C526.908,96.298,527.016,97.577,526.99,98.402z"></path>
			<path d="M534.91,90.306l0.016,0.012c-0.145-0.01-0.606,0.022-0.963,0.066c-0.305,0.035-0.535,0.041-0.689,0.017
				c-0.148,0.1-0.203,0.234-0.162,0.403l0.095,0.057c-0.078,0.073-0.105,0.127-0.081,0.167l0.081,0.081
				c-0.019,1.462-0.022,2.27-0.012,2.426c0.021,0.387,0.066,0.726,0.134,1.02c-0.061,0.185-0.084,0.396-0.069,0.635
				c0.009,0.154,0.045,0.402,0.11,0.741c0.067,0.338,0.154,1.45,0.165,1.624c0.007,0.129,0.005,0.255-0.009,0.369
				c-0.142,0.059-0.293,0.092-0.456,0.103c-0.276,0.016-0.571-0.041-0.888-0.172c-0.037,0.035-0.081,0.072-0.131,0.113
				c-0.048,0.04-0.061,0.085-0.037,0.133c-0.102,0.028-0.243-0.012-0.424-0.125c-0.097-1.479-0.359-4.493-0.752-7.538
				c-0.139,0.124-0.393,0.021-0.656,0.054c-0.315,0.034-0.625-0.015-0.745,0.042c-0.153-0.164-0.119-0.213-0.134-0.483
				c-0.017-0.263-0.102-0.911-0.033-1.182c0.014-0.06,0.586-0.025,0.923-0.054c0.459-0.025,0.561,0.083,0.591,0.08
				c0.037-0.059,0.262-0.029,0.424-0.04c0.105,0.051,0.221-0.047,0.224,0.028c0.005,0.049,0,0.359-0.034,0.448
				c-0.036,0.09-0.053,0.155-0.051,0.195c0.006,0.099,0.077-0.046,0.243,0.011c0.185-0.004,0.374-0.011,0.567-0.021
				c0.217,0.02,0.466-0.058,0.446,0.125c0.037-0.053,0.062,0.039,0.371-0.086c0.229-0.105,0.37-0.374,0.325-0.559
				c-0.025-0.102,0.113-0.168,0.026-0.12c0.111-0.062,0.011-0.019,0.131-0.067c0.383,0.038,0.593-0.002,0.665-0.006
				c0.154-0.01,0.535,0.088,0.643,0.033c0.08,0.144,0.121,0.594,0.125,0.841C534.901,90.07,534.909,90.28,534.91,90.306z"></path>
			<path d="M539.875,95.45l-0.002-0.012c-0.055,0.109-0.084,0.235-0.084,0.376c-0.008,0.09,0,0.218,0.021,0.384
				c0.022,0.187,0.034,0.317,0.039,0.393c-0.083,0.004-0.41,0.021-0.982,0.058c-0.346,0.02-0.655,0.065-0.929,0.141l-0.306-0.231
				c-0.077,0.071-0.104,0.127-0.081,0.166c-0.051-0.005-0.287,0.009-0.705,0.041c-0.328,0.02-0.574,0.008-0.741-0.031
				c-0.154,0.148-0.349,0.16-0.581,0.033c-0.084-0.043-0.1-0.127-0.045-0.251c0.054-0.123,0.027-0.21-0.078-0.261
				c-0.004-0.263,0.008-0.672,0.037-1.227c0.034-0.497,0.041-0.886,0.024-1.166c-0.022-0.377-0.085-0.736-0.185-1.077
				c0.107-0.097,0.231-0.147,0.374-0.155c0.163-0.012,0.36,0.04,0.595,0.148c0.326,0.155,0.494,0.232,0.504,0.232l0.097,0.079
				c0.009-0.022,0.052-0.159,0.13-0.404c0.043-0.157,0.113-0.265,0.213-0.318l0.096,0.067c0.04-0.018,0.17-0.104,0.385-0.256
				c0.168-0.11,0.283-0.511,0.387-0.516c0.11-0.007,0.222,0.036,0.33,0.128c0.177,0.064,0.318,0.514,0.383,0.662
				c0.064,0.149,0.128,0.296,0.188,0.44c-0.459,0.043-0.839,0.062-1.135,0.054c-0.066,0.096-0.169,0.116-0.304,0.062
				c-0.137-0.055-0.233-0.037-0.291,0.049c0.01,0.146,0.025,0.413,0.047,0.8c0.011,0.346,0.025,0.616,0.047,0.812
				c0.027,0.304,0.076,0.581,0.142,0.835c0.082-0.007,0.472-0.028,1.165-0.067C539.107,95.409,539.522,95.413,539.875,95.45z
				 M539.399,89.651c-0.091,0.013-0.194,0.024-0.308,0.028c-0.232,0.015-0.543,0.009-0.938-0.019
				c-0.482-0.021-0.775-0.033-0.879-0.036c-0.131,0.183-0.149,0.328-0.131,0.641c0.039,0.673,0.062,0.965,0.066,0.874
				c0.146,0.058,0.227,0.178,0.235,0.359c0.005,0.246,0.011,0.371,0.022,0.381c-0.07,0.026-0.1,0.113-0.094,0.253
				c-0.113-0.027-0.234-0.086-0.363-0.178c-0.172-0.113-0.225,0.289-0.221,0.183l-0.077,0.252l-0.097-0.071
				c-0.08,0.014-0.223-0.011-0.426-0.074c-0.203-0.062-0.35-0.124-0.434-0.185c-0.006-0.13,0.013-0.205,0.062-0.226l-0.209-0.162
				l-0.084,0.118c-0.182-0.849-0.305-2.342-0.234-3.253c0.391,0.027,0.848-0.039,1.316-0.059c0.316-0.011,0.763-0.035,1.334-0.077
				c0.653-0.046,1.121-0.078,1.406-0.095c0.129,0.084,0.199,0.2,0.206,0.347c0.007,0.092-0.013,0.238-0.058,0.442
				C539.451,89.301,539.395,89.551,539.399,89.651z"></path>
			<path d="M544.971,94.574l-0.015,0.002c-0.063,0.128-0.085,0.311-0.062,0.546c0.031,0.338,0.045,0.511,0.047,0.519
				c-0.051,0.021-0.119-0.004-0.205-0.074c-0.131,0.049-0.192,0.131-0.186,0.246c0.002,0.017,0.008,0.043,0.02,0.084
				c0.003,0.05,0.005,0.082,0.007,0.1c0.005,0.09-0.022,0.157-0.081,0.203c-0.148-0.083-0.344-0.136-0.586-0.159
				c-0.242-0.022-0.471-0.046-0.688-0.067c-0.004-1.118-0.154-2.215-0.451-3.287c0,0.01-0.008-0.102-0.02-0.332
				c0-0.164-0.037-0.281-0.113-0.352l-0.102,0.093c0-0.016,0.031-0.049,0.102-0.098c0.067-0.05,0.102-0.1,0.1-0.149
				c-0.004-0.024-0.01-0.049-0.021-0.074l-0.112-0.081c-0.19,0.062-0.279,0.214-0.263,0.462c0.008,0.164-0.059,0.281-0.197,0.346
				c0.053,0.038,0.082,0.086,0.086,0.143c0.002,0.034-0.004,0.079-0.016,0.136c-0.012,0.06-0.018,0.105-0.016,0.14
				c0.004,0.072,0.043,0.133,0.117,0.179c0.004,0.05,0.029,0.492,0.078,1.331c0.031,0.534,0.018,0.989-0.044,1.362l0.014,0.21
				c-0.071-0.004-0.154-0.004-0.247,0.003c-0.102,0.006-0.25,0.02-0.443,0.043c-0.193,0.024-0.334,0.039-0.428,0.044
				c-0.376,0.021-0.643-0.04-0.794-0.189l-0.16-4.604c-0.075-0.227-0.124-0.541-0.147-0.943l-0.052-0.888
				c-0.035-0.436-0.089-0.771-0.165-1.005c0.031-0.158,0.17-0.245,0.414-0.259c0.155-0.01,0.359,0.011,0.619,0.063
				c0.121-0.058,0.287-0.093,0.501-0.104c0.062-0.004,0.159-0.005,0.291-0.005c0.144-0.008,0.247-0.015,0.308-0.019
				c0.398-0.021,0.664-0.146,0.795-0.366c0.184-0.001,0.385,0.056,0.6,0.174c0.217,0.121,0.408,0.184,0.575,0.189
				c0.433,0.256,0.669,0.679,0.702,1.272c0.007,0.132-0.045,0.654-0.155,1.568l-0.747,0.646c0.127,0.233,0.279,0.739,0.459,1.52
				C544.438,93.794,544.668,94.271,544.971,94.574z M543.59,89.337l0.017,0.011c0.014,0.057,0.007-0.146-0.019-0.603
				c-0.014-0.226-0.096-0.384-0.244-0.481c-0.084,0.118-0.102-0.161-0.141,0.118c-0.04,0.279-0.107,0.478-0.202,0.6
				c-0.257-0.001-0.316-0.154-0.47-0.369c-0.096-0.136-0.141-0.018-0.141-0.025l-0.07,0.056c-0.039,0.036-0.082,0.075-0.131,0.12
				c-0.049,0.044-0.1,0.059-0.152,0.045c0.004,0.049-0.021,0.128-0.07,0.233c-0.049,0.104-0.074,0.179-0.072,0.221
				c0.006,0.074,0.064,0.126,0.181,0.163c-0.022,0.165-0.028,0.339-0.019,0.521c0.008,0.098,0.029,0.322,0.071,0.675
				c0.046,0.277,0.065,0.516,0.058,0.714c0.093,0.004,0.179,0.002,0.261-0.003c0.356-0.021,0.59-0.162,0.697-0.423
				c0.035-0.077,0.077-0.353,0.122-0.824C543.306,89.728,543.416,89.479,543.59,89.337z"></path>
		</g>
		<g>
			<path d="M494.168,73.339v0.012c-0.045,0.428-0.061,0.724-0.044,0.885c-0.065,0.027-0.153,0.031-0.257,0.014
				c-0.137-0.022-0.215-0.033-0.236-0.032c-0.061,0.003-0.107,0.024-0.143,0.062c-0.086-0.054-0.143-0.076-0.172-0.068
				c-0.08,0.049-0.117,0.117-0.113,0.207c0.003,0.038,0.017,0.102,0.045,0.193c0.025,0.094,0.041,0.159,0.043,0.204
				c0.002,0.061-0.009,0.153-0.037,0.282c-0.025,0.128-0.037,0.232-0.034,0.315c0.006,0.096,0.025,0.249,0.063,0.456
				c0.036,0.206,0.057,0.362,0.062,0.466c-0.042,0.203-0.058,0.409-0.048,0.618c0.014,0.253,0.084,0.592,0.209,1.019
				c0.023,0.007,0.045,0.01,0.068,0.007c0.051-0.002,0.113-0.039,0.185-0.11c0.071-0.068,0.132-0.104,0.185-0.107
				c0.037-0.003,0.078,0.005,0.123,0.025c0.136,0.434,0.205,0.714,0.211,0.84c0.003,0.061,0.002,0.124-0.001,0.189
				c-0.2,0.049-0.341-0.02-0.425-0.201c0.012-0.053-0.018-0.108-0.086-0.165l-0.224,0.236c0.218,0.033,0.304,0.2,0.261,0.5
				c-0.021,0.062-0.066,0.095-0.142,0.098c-0.128-0.002-0.187-0.002-0.179-0.002l-0.184-0.327l-0.074,0.093
				c-0.061-0.153-0.131-0.227-0.213-0.222c-0.045,0.003-0.123,0.039-0.234,0.11c-0.113,0.074-0.206,0.111-0.279,0.114
				c-0.061,0.006-0.119-0.011-0.182-0.044c-0.005-0.09-0.015-0.182-0.031-0.279c-0.016-0.096-0.066-0.157-0.148-0.183
				c-0.005-0.233,0.003-0.839,0.02-1.825c0.008-0.746,0-1.351-0.024-1.812c-0.01-0.193-0.022-0.383-0.04-0.567
				c-0.039-0.058-0.078-0.086-0.115-0.083c-0.03,0.001-0.076,0.032-0.135,0.096c-0.061,0.062-0.113,0.091-0.158,0.086
				c-0.004-0.074-0.038-0.194-0.102-0.358c-0.064-0.164-0.098-0.282-0.104-0.357c-0.006-0.127,0.041-0.237,0.141-0.331l0.262,0.062
				c0.104-0.146,0.147-0.393,0.13-0.743c-0.003-0.066-0.013-0.175-0.026-0.318c-0.017-0.145-0.025-0.249-0.029-0.316
				c-0.027-0.573,0.148-0.869,0.527-0.889c0.141-0.008,0.312,0.018,0.518,0.075l0.25,0.065c0.02,0.096,0.032,0.194,0.037,0.3
				c0.006,0.143,0.002,0.349-0.02,0.622c-0.02,0.274-0.025,0.474-0.02,0.599c0.01,0.202,0.043,0.384,0.105,0.545
				c0.059-0.004,0.152-0.037,0.281-0.098c0.127-0.063,0.219-0.096,0.279-0.099C494.018,73.189,494.103,73.236,494.168,73.339z
				 M493.391,74.139l-0.013-0.256l-0.081-0.075L493.391,74.139z"></path>
			<path d="M497.236,72.535l0.012-0.001c-0.027,0.203-0.058,0.406-0.092,0.609c-0.04,0.232-0.106,0.415-0.197,0.547
				c-0.015-0.007-0.107-0.049-0.273-0.132c-0.116-0.061-0.219-0.085-0.307-0.074c-0.068,0.438-0.104,1.031-0.111,1.785
				c-0.004,0.962-0.013,1.544-0.023,1.745c-0.113-0.008-0.196,0.027-0.252,0.109c-0.057,0.081-0.107,0.162-0.156,0.248
				c-0.02,0.046-0.028,0.087-0.027,0.124c0.003,0.06,0.055,0.118,0.154,0.171c0.1,0.055,0.15,0.115,0.154,0.183
				c-0.043,0.159-0.139,0.242-0.279,0.249c-0.065,0.003-0.183-0.018-0.35-0.06c-0.164-0.045-0.281-0.065-0.35-0.062l-0.161-3.191
				c0.063-0.084,0.091-0.143,0.082-0.171l-0.093-0.062c0.008-0.135,0.016-0.806,0.021-2.006c0.005-0.813,0.035-1.471,0.092-1.974
				c-0.006,0.001,0.223-0.015,0.69-0.046c0.29-0.015,0.479,0.066,0.562,0.241c0.001,0.163-0.016,0.438-0.049,0.829
				c-0.033,0.359-0.047,0.637-0.037,0.83c0.014,0.238,0.05,0.451,0.112,0.643C496.609,72.732,496.902,72.553,497.236,72.535z
				 M498.346,73.218c0.021,0.297,0.039,0.587,0.055,0.871c0.062,1.234,0.043,2.556-0.058,3.963
				c-0.106,0.096-0.272,0.115-0.496,0.062c-0.222-0.053-0.383-0.03-0.482,0.062c-0.128-0.164-0.202-0.46-0.224-0.894
				c-0.032-0.625-0.048-0.948-0.049-0.971c-0.027-1.563,0.127-2.829,0.458-3.793C497.936,72.619,498.199,72.852,498.346,73.218z"></path>
			<path d="M502.262,74.839c-0.049,0.1-0.068,0.204-0.062,0.314c0.004,0.113,0.01,0.221,0.017,0.326
				c-0.013,0.089-0.036,0.179-0.076,0.273c-0.067-0.021-0.124-0.029-0.17-0.027c-0.052,0.003-0.104,0.021-0.157,0.058
				c-0.055,0.038-0.098,0.057-0.127,0.057c-0.046,0.004-0.105-0.014-0.182-0.046l-0.52-0.756c0.02,0.222,0.07,0.417,0.152,0.585
				c0.042,0.086,0.084,0.174,0.125,0.26c-0.303,0.056-0.475,0.064-0.514,0.027l-0.072,0.094l-0.18-0.236
				c-0.141,0.171-0.174,0.421-0.097,0.754c0.093,0.36,0.098,0.62,0.017,0.782c0.113,0.166,0.246,0.244,0.403,0.236
				c0.067-0.004,0.124-0.027,0.176-0.075c0.073-0.185,0.146-0.366,0.219-0.55c0.108-0.221,0.229-0.335,0.362-0.342
				c0.104-0.006,0.227,0.049,0.367,0.162c0.166,0.059,0.253,0.136,0.258,0.231c0.002,0.061-0.035,0.159-0.114,0.29
				c-0.079,0.137-0.117,0.24-0.114,0.315c0.003,0.028,0.007,0.054,0.016,0.078c-0.107,0.078-0.203,0.199-0.289,0.359
				c-0.086,0.162-0.197,0.272-0.336,0.332c-0.121,0.116-0.233,0.179-0.338,0.184c-0.082,0.004-0.204-0.06-0.367-0.188
				c-0.162-0.131-0.314-0.189-0.457-0.185c-0.058-0.13-0.203-0.277-0.435-0.436c-0.231-0.159-0.376-0.333-0.43-0.516
				c0.001,0.015-0.002-0.045-0.008-0.178c-0.005-0.075-0.036-0.123-0.097-0.142l0.084-0.082c-0.113-0.003-0.17-0.065-0.176-0.193
				c-0.002-0.014-0.003-0.045-0.006-0.09c0.006-0.037,0.008-0.066,0.007-0.09c-0.004-0.089-0.034-0.149-0.087-0.186l-0.02-0.389
				c-0.011-0.202-0.051-0.346-0.125-0.432c0.074-0.472,0.148-0.947,0.221-1.42c0.121-0.55,0.303-0.833,0.539-0.844
				c0.039-0.001,0.074,0.004,0.112,0.015c0.216-0.21,0.473-0.324,0.778-0.341c0.334-0.016,0.705,0.087,1.111,0.304
				C501.989,73.655,502.186,74.224,502.262,74.839z M500.723,73.605l-0.074,0.095c-0.051,0.009-0.113-0.017-0.182-0.08l0.012,0.256
				c-0.113,0.125-0.158,0.318-0.139,0.579c0.022,0.446,0.033,0.661,0.033,0.646l0.334-0.004c0.16-0.091,0.234-0.239,0.224-0.448
				c-0.005-0.104-0.04-0.275-0.109-0.515C500.754,73.896,500.721,73.722,500.723,73.605z"></path>
		</g>
		<g>
			<polygon fill-rule="evenodd" clip-rule="evenodd" points="504.883,86.097 505.216,86.288 506.344,83.328 505.967,83.203 
				504.84,86.164 505.168,86.373 504.883,86.097 504.883,86.097 			"></polygon>
			<polygon fill-rule="evenodd" clip-rule="evenodd" points="505.377,85.688 505.24,85.741 504.883,86.097 505.168,86.373 
				505.531,85.997 505.389,86.069 505.377,85.688 505.377,85.688 			"></polygon>
			<polygon fill-rule="evenodd" clip-rule="evenodd" points="508.105,85.665 508.267,85.538 505.377,85.688 505.389,86.069 
				508.279,85.922 508.463,85.784 508.105,85.665 508.105,85.665 508.105,85.665 			"></polygon>
			<polygon fill-rule="evenodd" clip-rule="evenodd" points="509.411,82.943 509.214,82.698 508.105,85.665 508.463,85.784 
				509.59,82.823 509.395,82.578 509.411,82.943 509.411,82.943 509.411,82.943 			"></polygon>
			<polygon fill-rule="evenodd" clip-rule="evenodd" points="506.658,83.037 506.515,83.108 509.411,82.943 509.395,82.578 
				506.51,82.708 506.367,82.78 506.658,83.037 506.658,83.037 506.658,83.037 			"></polygon>
			<polygon fill-rule="evenodd" clip-rule="evenodd" points="506.344,83.328 506.301,83.393 506.658,83.037 506.367,82.78 
				506.008,83.138 505.967,83.203 506.344,83.328 506.344,83.328 506.344,83.328 			"></polygon>
			<polygon fill-rule="evenodd" clip-rule="evenodd" points="508.743,86.017 509,85.901 508.381,85.558 508.184,85.909 
				508.821,86.26 509.102,86.136 508.725,86.011 508.725,86.011 508.743,86.017 			"></polygon>
			<polygon fill-rule="evenodd" clip-rule="evenodd" points="509.953,83.283 509.852,83.05 508.725,86.011 509.102,86.136 
				510.227,83.175 510.125,82.943 509.953,83.283 509.953,83.283 			"></polygon>
			<polygon fill-rule="evenodd" clip-rule="evenodd" points="509.59,82.823 509.311,82.948 509.953,83.283 510.125,82.943 
				509.507,82.598 509.214,82.698 509.59,82.823 509.59,82.823 			"></polygon>
			<polygon points="506.164,83.271 506.146,83.264 506.504,82.905 509.186,82.775 509.214,82.698 509.411,82.763 509.59,82.823 
				509.578,82.855 510.049,83.115 510.227,83.175 510.154,83.367 511.467,86.487 510.356,89.454 508.922,86.077 508.922,86.077 
				508.736,86.153 508.725,86.011 508.738,85.975 508.286,85.726 508.184,85.909 508.127,85.732 505.377,85.865 505.019,86.224 			
				"></polygon>
			<polygon fill-rule="evenodd" clip-rule="evenodd" points="510.178,89.394 510.541,89.376 509.106,85.999 508.736,86.153 
				510.172,89.532 510.536,89.514 510.16,89.388 510.16,89.388 510.178,89.394 			"></polygon>
			<polygon fill-rule="evenodd" clip-rule="evenodd" points="511.3,86.572 511.287,86.428 510.16,89.388 510.536,89.514 
				511.663,86.555 511.651,86.412 511.3,86.572 511.3,86.572 			"></polygon>
			<polygon fill-rule="evenodd" clip-rule="evenodd" points="510.227,83.175 509.863,83.193 511.3,86.572 511.651,86.412 
				510.217,83.032 509.852,83.05 510.227,83.175 510.227,83.175 			"></polygon>
			<polygon fill-rule="evenodd" clip-rule="evenodd" fill="#FFFFFF" points="510.133,83.938 510.293,84.29 510.352,84.646 
				510.335,84.997 510.232,85.362 510.055,85.719 509.81,86.035 509.494,86.325 509.112,86.577 508.904,86.667 508.695,86.755 
				508.463,86.797 508.248,86.845 508.041,86.872 507.813,86.896 507.605,86.868 507.391,86.856 507.205,86.814 507.01,86.747 
				506.818,86.665 506.652,86.569 506.51,86.463 506.348,86.349 506.218,86.206 506.11,86.05 505.947,85.7 505.889,85.342 
				505.889,84.985 506.01,84.627 506.164,84.281 506.414,83.948 506.73,83.656 507.129,83.413 507.32,83.317 507.547,83.233 
				507.76,83.187 507.975,83.14 508.201,83.114 508.409,83.086 508.619,83.114 508.833,83.128 509.029,83.19 509.226,83.258 
				509.404,83.317 509.588,83.42 509.738,83.509 509.893,83.639 510.001,83.794 510.133,83.938 510.133,83.938 510.133,83.938 			
				"></polygon>
			<polygon fill-rule="evenodd" clip-rule="evenodd" points="510.273,84.522 510.436,84.875 510.488,85.249 510.473,85.601 
				510.375,85.946 510.215,86.31 509.946,86.636 509.654,86.917 509.255,87.16 509.041,87.267 508.833,87.355 508.617,87.402 
				508.387,87.447 508.178,87.476 507.975,87.488 507.76,87.476 507.533,87.44 507.349,87.397 507.151,87.333 506.979,87.255 
				506.795,87.153 506.646,87.063 506.508,86.938 506.372,86.813 506.252,86.636 506.086,86.302 506.027,85.943 506.049,85.573 
				506.146,85.229 506.307,84.865 506.552,84.549 506.867,84.257 507.266,84.015 507.48,83.907 507.684,83.834 507.903,83.77 
				508.137,83.729 508.338,83.716 508.547,83.688 508.756,83.716 508.969,83.729 509.173,83.776 509.369,83.841 509.542,83.919 
				509.732,84.005 509.875,84.109 510.037,84.222 510.143,84.378 510.27,84.54 510.27,84.54 510.273,84.522 			"></polygon>
			<polygon fill-rule="evenodd" clip-rule="evenodd" fill="#FFFFFF" points="510.375,84.933 510.544,85.267 510.597,85.642 
				510.577,85.995 510.483,86.338 510.305,86.696 510.053,87.028 509.762,87.309 509.363,87.552 509.166,87.666 508.939,87.75 
				508.725,87.797 508.492,87.839 508.284,87.87 508.082,87.881 507.865,87.87 507.64,87.833 507.456,87.79 507.259,87.726 
				507.087,87.647 506.902,87.547 506.754,87.456 506.598,87.326 506.484,87.188 506.359,87.028 506.193,86.696 506.133,86.335 
				506.15,85.985 506.252,85.622 506.413,85.26 506.663,84.926 506.99,84.658 507.373,84.406 507.588,84.301 507.796,84.21 
				508.012,84.163 508.243,84.121 508.451,84.093 508.654,84.08 508.887,84.098 509.078,84.121 509.28,84.171 509.477,84.236 
				509.666,84.317 509.834,84.414 509.982,84.505 510.143,84.616 510.25,84.772 510.375,84.933 510.375,84.933 			"></polygon>
			<polygon fill-rule="evenodd" clip-rule="evenodd" points="510.519,85.516 510.68,85.868 510.74,86.227 510.74,86.581 
				510.619,86.939 510.465,87.285 510.196,87.612 509.899,87.913 509.5,88.155 509.309,88.249 509.082,88.333 508.867,88.382 
				508.654,88.427 508.426,88.452 508.219,88.48 508.01,88.452 507.796,88.44 507.593,88.394 507.396,88.326 507.223,88.249 
				507.039,88.148 506.896,88.04 506.754,87.935 506.622,87.79 506.496,87.63 506.354,87.284 506.275,86.921 506.295,86.569 
				506.396,86.206 506.568,85.865 506.818,85.533 507.135,85.241 507.516,84.992 507.725,84.901 507.934,84.812 508.166,84.771 
				508.381,84.723 508.589,84.693 508.81,84.688 509.022,84.7 509.221,84.705 509.424,84.753 509.619,84.819 509.81,84.901 
				509.977,84.997 510.139,85.11 510.281,85.22 510.412,85.362 510.512,85.534 510.512,85.534 510.519,85.516 			"></polygon>
			<polygon fill-rule="evenodd" clip-rule="evenodd" fill="#FFFFFF" points="510.728,85.901 510.895,86.238 510.953,86.595 
				510.947,86.97 510.852,87.315 510.674,87.673 510.405,88 510.113,88.28 509.732,88.53 509.518,88.638 509.291,88.721 
				509.076,88.769 508.861,88.814 508.635,88.84 508.434,88.853 508.219,88.84 508.01,88.81 507.808,88.763 507.611,88.696 
				507.438,88.618 507.266,88.542 507.104,88.427 506.967,88.303 506.837,88.159 506.729,88.006 506.561,87.672 506.49,87.291 
				506.508,86.938 506.622,86.599 506.783,86.237 507.032,85.901 507.344,85.629 507.725,85.38 507.938,85.272 508.146,85.182 
				508.374,85.159 508.594,85.093 508.803,85.063 509.022,85.058 509.238,85.07 509.428,85.093 509.631,85.142 509.846,85.213 
				510.018,85.289 510.191,85.367 510.352,85.48 510.488,85.606 510.621,85.75 510.728,85.901 510.728,85.901 			"></polygon>
			<polygon fill-rule="evenodd" clip-rule="evenodd" points="510.889,86.494 511.031,86.839 511.109,87.202 511.09,87.554 
				510.988,87.917 510.816,88.257 510.565,88.591 510.25,88.884 509.868,89.133 509.66,89.222 509.433,89.305 509.221,89.352 
				509.006,89.4 508.797,89.43 508.57,89.452 508.361,89.425 508.146,89.411 507.963,89.369 507.748,89.298 507.574,89.22 
				507.408,89.126 507.246,89.013 507.104,88.904 506.973,88.761 506.865,88.607 506.705,88.256 506.628,87.893 506.646,87.54 
				506.766,87.182 506.92,86.836 507.17,86.503 507.486,86.211 507.886,85.968 508.076,85.873 508.303,85.79 508.518,85.741 
				508.731,85.696 508.959,85.67 509.166,85.641 509.375,85.67 509.572,85.677 509.793,85.731 509.988,85.797 510.162,85.875 
				510.328,85.969 510.488,86.082 510.631,86.189 510.762,86.333 510.889,86.494 510.889,86.494 510.889,86.494 			"></polygon>
			<polygon fill-rule="evenodd" clip-rule="evenodd" points="491.19,81.947 491.209,81.834 490.075,84.812 490.434,84.93 
				491.566,81.952 491.571,81.876 491.19,81.947 491.19,81.947 491.19,81.947 			"></polygon>
			<polygon fill-rule="evenodd" clip-rule="evenodd" points="491.16,81.796 491.166,81.78 491.19,81.947 491.571,81.876 
				491.53,81.702 491.537,81.685 491.16,81.796 491.16,81.796 491.16,81.796 			"></polygon>
			<polygon fill-rule="evenodd" clip-rule="evenodd" points="491.119,81.625 491.16,81.796 491.537,81.685 491.494,81.511 
				491.119,81.625 491.119,81.625 491.119,81.625 			"></polygon>
			<polygon fill-rule="evenodd" clip-rule="evenodd" points="491.071,81.471 491.119,81.625 491.494,81.511 491.447,81.357 
				491.071,81.471 491.071,81.471 			"></polygon>
			<polygon fill-rule="evenodd" clip-rule="evenodd" points="491.029,81.297 491.029,81.297 491.071,81.471 491.447,81.357 
				491.404,81.186 491.4,81.203 491.029,81.297 491.029,81.297 491.029,81.297 			"></polygon>
			<polygon fill-rule="evenodd" clip-rule="evenodd" points="490.982,81.083 490.982,81.144 491.029,81.297 491.4,81.203 
				491.353,81.047 491.37,81.112 490.982,81.083 490.982,81.083 			"></polygon>
			<polygon fill-rule="evenodd" clip-rule="evenodd" points="491.363,81.011 490.988,80.945 490.982,81.083 491.37,81.112 
				491.375,80.977 491,80.909 491.357,81.029 491.357,81.029 491.363,81.011 			"></polygon>
			<polygon fill-rule="evenodd" clip-rule="evenodd" fill="#4C4849" points="491.689,89.679 491.652,89.487 491.255,89.554 
				491.283,89.763 491.689,89.679 491.689,89.679 491.689,89.679 			"></polygon>
			<polygon fill-rule="evenodd" clip-rule="evenodd" points="492.518,87.196 492.529,87.101 491.402,90.062 491.761,90.18 
				492.887,87.219 492.881,87.117 492.518,87.196 492.518,87.196 492.518,87.196 			"></polygon>
			<polygon fill-rule="evenodd" clip-rule="evenodd" points="492.488,86.986 492.518,87.196 492.881,87.117 492.852,86.91 
				492.471,86.981 492.471,86.981 492.488,86.986 			"></polygon>
			<polygon fill-rule="evenodd" clip-rule="evenodd" points="492.436,86.792 492.471,86.981 492.852,86.91 492.799,86.714 
				492.436,86.792 492.436,86.792 492.436,86.792 			"></polygon>
			<polygon fill-rule="evenodd" clip-rule="evenodd" points="492.388,86.577 492.399,86.599 492.436,86.792 492.799,86.714 
				492.769,86.503 492.78,86.529 492.388,86.577 492.388,86.577 492.388,86.577 			"></polygon>
			<polygon fill-rule="evenodd" clip-rule="evenodd" points="492.745,86.397 492.363,86.349 492.388,86.577 492.78,86.529 
				492.75,86.322 492.369,86.273 492.745,86.397 492.745,86.397 			"></polygon>
			<g>
				<polygon fill="#4C4849" points="490.076,84.221 489.896,84.275 490.076,84.221 				"></polygon>
				<polygon fill="#4C4849" points="490.266,84.841 490.272,84.825 490.365,84.832 490.434,84.93 490.267,84.876 				"></polygon>
				<polygon points="489.854,84.104 490.047,84.065 490.053,83.93 491.186,80.954 491.18,80.97 491.18,81.09 491.209,81.239 
					491.269,81.418 491.316,81.573 491.357,81.744 491.387,81.894 491.387,81.894 491.566,81.952 490.434,84.93 490.365,84.832 
					490.272,84.825 490.266,84.841 490.267,84.876 490.434,84.93 490.268,84.921 490.272,85.057 490.157,84.914 490.064,84.907 
					490.039,84.74 490.107,84.726 490.182,84.534 489.992,84.587 489.938,84.448 489.896,84.275 490.076,84.221 490.076,84.221 
					489.896,84.275 489.902,84.257 				"></polygon>
			</g>
			<g>
				<polygon fill="none" points="499.078,84.917 499.078,84.917 499.24,84.553 				"></polygon>
				<polygon points="490.26,84.676 498.555,84.403 498.768,84.414 498.805,84.429 499.007,84.477 499.025,84.483 499.24,84.553 
					499.449,84.644 499.466,84.648 499.663,84.773 499.699,84.784 499.854,84.917 499.901,84.953 500.015,85.089 500.025,85.113 
					500.104,85.238 500.109,85.28 499.744,85.39 499.686,85.299 499.682,85.316 499.586,85.185 499.587,85.185 499.459,85.083 
					499.49,85.113 499.287,85.007 499.288,85.004 499.078,84.917 499.078,84.917 498.899,84.855 498.697,84.811 498.734,84.821 
					498.542,84.797 498.542,84.779 490.272,85.057 				"></polygon>
				<polygon points="499.735,85.395 499.744,85.39 499.764,85.423 				"></polygon>
			</g>
			<polygon fill-rule="evenodd" clip-rule="evenodd" points="504.166,92.353 504.166,92.235 503.032,95.213 503.408,95.338 
				504.541,92.358 504.541,92.242 504.166,92.353 504.166,92.353 504.166,92.353 			"></polygon>
			<polygon fill-rule="evenodd" clip-rule="evenodd" points="500.893,82.461 500.867,82.415 504.166,92.353 504.541,92.242 
				501.242,82.301 501.235,82.262 500.893,82.461 500.893,82.461 500.893,82.461 			"></polygon>
			<polygon fill-rule="evenodd" clip-rule="evenodd" points="500.824,82.363 500.814,82.339 500.893,82.461 501.235,82.262 
				501.16,82.136 501.142,82.127 500.807,82.356 500.807,82.356 500.824,82.363 			"></polygon>
			<polygon fill-rule="evenodd" clip-rule="evenodd" points="500.748,82.236 500.718,82.207 500.807,82.356 501.142,82.127 
				501.016,81.97 500.986,81.938 500.748,82.236 500.748,82.236 500.748,82.236 			"></polygon>
			<polygon fill-rule="evenodd" clip-rule="evenodd" points="500.616,82.153 500.588,82.123 500.748,82.236 500.986,81.938 
				500.824,81.826 500.796,81.795 500.616,82.153 500.616,82.153 			"></polygon>
			<polygon fill-rule="evenodd" clip-rule="evenodd" points="500.438,82.033 500.42,82.028 500.616,82.153 500.796,81.795 
				500.594,81.688 500.575,81.683 500.438,82.033 500.438,82.033 			"></polygon>
			<polygon fill-rule="evenodd" clip-rule="evenodd" points="500.248,81.951 500.205,81.955 500.438,82.033 500.575,81.683 
				500.367,81.593 500.35,81.588 500.225,81.962 500.225,81.962 500.248,81.951 			"></polygon>
			<polygon fill-rule="evenodd" clip-rule="evenodd" points="500.033,81.88 500.01,81.891 500.225,81.962 500.35,81.588 
				500.134,81.517 500.134,81.517 500.025,81.896 500.025,81.896 500.033,81.88 			"></polygon>
			<polygon fill-rule="evenodd" clip-rule="evenodd" points="499.866,81.842 499.83,81.831 500.025,81.896 500.134,81.517 
				499.914,81.463 499.896,81.456 499.866,81.842 499.866,81.842 499.866,81.842 			"></polygon>
			<polygon fill-rule="evenodd" clip-rule="evenodd" points="499.675,81.819 499.669,81.835 499.866,81.842 499.896,81.456 
				499.688,81.425 499.663,81.438 499.675,81.819 499.675,81.819 			"></polygon>
			<polygon fill-rule="evenodd" clip-rule="evenodd" points="491.584,81.959 491.381,82.088 499.675,81.819 499.663,81.438 
				491.387,81.716 491.209,81.834 491.566,81.952 491.566,81.952 491.584,81.959 			"></polygon>
			<polygon fill="#4C4849" points="493.667,91.015 493.639,90.998 493.656,90.99 			"></polygon>
			<g>
				<polygon fill="#4C4849" points="498.146,92.354 498.113,92.756 498.146,92.354 				"></polygon>
				<g>
					<polygon fill="none" points="498.131,92.546 498.113,92.756 498.131,92.546 					"></polygon>
					<g>
						<polygon fill="none" points="491.409,89.322 491.422,89.292 491.429,89.33 						"></polygon>
						<path d="M491.283,89.763l0.036,0.19l0.072,0.204l0.089,0.148l0.507,0.269l0.506,0.267l0.488,0.264l0.495,0.243l0.018,0.007
							l0.501,0.225l0.5,0.229l0.542,0.219l0.549,0.203l0.018,0.006l0.584,0.154l0.583,0.155l0.019,0.007l0.645,0.096l0.66,0.103
							l0.02,0.005l0.719,0.04l0.025-0.011l0.768,0.02l0.822-0.026l0.871-0.046l0.179-0.119l1.126-2.96l-0.19-0.263l0.012,0.383
							l-0.06-0.075l0.043-0.111l-0.125,0.009l-0.054-0.067l-0.028,0.074l-0.646,0.037h-0.834l-0.77-0.016l-0.702-0.037l-0.685-0.09
							l-0.638-0.111l-0.585-0.156l-0.584-0.155l-0.547-0.203l-0.531-0.198l-0.5-0.226l-0.494-0.243l-0.514-0.251l-0.488-0.263
							l-0.488-0.262l-0.338-0.18l0.01-0.03l-0.178-0.06l0,0l-0.047-0.213l-0.037-0.191l-0.014-0.065l0.134-0.292l-0.188-0.062
							l-0.01-0.004l0,0l-0.178-0.058l-1.127,2.96l-0.012,0.096l0.029,0.207L491.283,89.763z M491.422,89.292l0.007,0.038
							l-0.02-0.008L491.422,89.292z"></path>
					</g>
				</g>
			</g>
			<polygon fill-rule="evenodd" clip-rule="evenodd" points="501.574,89.82 502.444,89.773 502.433,89.391 501.562,89.439 
				501.574,89.82 501.574,89.82 501.574,89.82 			"></polygon>
			<polygon fill-rule="evenodd" clip-rule="evenodd" points="500.753,89.845 501.574,89.82 501.562,89.439 500.74,89.464 
				500.753,89.845 500.753,89.845 500.753,89.845 			"></polygon>
			<polygon fill-rule="evenodd" clip-rule="evenodd" points="499.967,89.82 499.984,89.824 500.753,89.845 500.74,89.464 
				499.973,89.444 499.996,89.433 499.959,89.836 499.959,89.836 499.967,89.82 			"></polygon>
			<polygon fill-rule="evenodd" clip-rule="evenodd" points="499.227,89.773 499.245,89.776 499.959,89.836 499.996,89.433 
				499.275,89.39 499.293,89.396 499.227,89.773 499.227,89.773 499.227,89.773 			"></polygon>
			<polygon fill-rule="evenodd" clip-rule="evenodd" points="498.56,89.688 499.227,89.773 499.293,89.396 498.631,89.294 
				498.56,89.688 498.56,89.688 			"></polygon>
			<polygon fill-rule="evenodd" clip-rule="evenodd" points="497.903,89.568 497.922,89.576 498.56,89.688 498.631,89.294 
				497.97,89.192 497.988,89.198 497.903,89.568 497.903,89.568 497.903,89.568 			"></polygon>
			<polygon fill-rule="evenodd" clip-rule="evenodd" points="497.32,89.412 497.903,89.568 497.988,89.198 497.404,89.044 
				497.312,89.432 497.312,89.432 497.32,89.412 			"></polygon>
			<polygon fill-rule="evenodd" clip-rule="evenodd" points="496.712,89.271 496.73,89.276 497.312,89.432 497.404,89.044 
				496.82,88.889 496.838,88.896 496.712,89.271 496.712,89.271 			"></polygon>
			<polygon fill-rule="evenodd" clip-rule="evenodd" points="496.164,89.066 496.164,89.066 496.712,89.271 496.838,88.896 
				496.289,88.692 496.309,88.697 496.148,89.062 496.148,89.062 496.164,89.066 			"></polygon>
			<polygon fill-rule="evenodd" clip-rule="evenodd" points="495.622,88.847 496.148,89.062 496.309,88.697 495.783,88.482 
				495.622,88.847 495.622,88.847 			"></polygon>
			<polygon fill-rule="evenodd" clip-rule="evenodd" points="495.121,88.619 495.622,88.847 495.783,88.482 495.277,88.273 
				495.121,88.619 495.121,88.619 			"></polygon>
			<polygon fill-rule="evenodd" clip-rule="evenodd" points="494.609,88.369 494.621,88.395 495.121,88.619 495.277,88.273 
				494.766,88.026 494.782,88.031 494.604,88.388 494.604,88.388 494.609,88.369 			"></polygon>
			<polygon fill-rule="evenodd" clip-rule="evenodd" points="494.115,88.126 494.604,88.388 494.782,88.031 494.287,87.786 
				494.109,88.143 494.109,88.143 494.115,88.126 			"></polygon>
			<polygon fill-rule="evenodd" clip-rule="evenodd" points="493.626,87.863 494.109,88.143 494.287,87.786 493.8,87.525 
				493.607,87.859 493.607,87.859 493.626,87.863 			"></polygon>
			<polygon fill-rule="evenodd" clip-rule="evenodd" points="493.12,87.595 493.607,87.859 493.8,87.525 493.311,87.26 
				493.12,87.595 493.12,87.595 			"></polygon>
			<polygon fill-rule="evenodd" clip-rule="evenodd" points="492.887,87.219 492.613,87.326 493.12,87.595 493.311,87.26 
				492.805,86.993 492.529,87.101 492.887,87.219 492.887,87.219 492.887,87.219 			"></polygon>
			<polygon fill-rule="evenodd" clip-rule="evenodd" points="544.537,81.854 543.403,84.833 547.104,86.067 547.962,84.089 
				547.985,83.899 547.992,83.701 547.962,83.492 547.891,83.29 547.771,83.112 547.676,82.921 547.521,82.73 547.361,82.559 
				547.193,82.403 547.009,82.242 546.818,82.098 546.633,81.997 546.454,81.878 546.246,81.788 546.061,81.687 545.883,81.628 
				545.723,81.574 545.529,81.55 545.358,81.534 545.191,81.557 545.023,81.581 544.846,81.639 544.689,81.746 544.537,81.854 
				544.537,81.854 544.537,81.854 			"></polygon>
			<polygon fill-rule="evenodd" clip-rule="evenodd" points="546.937,85.972 547.169,85.871 543.469,84.637 543.344,85.012 
				547.045,86.245 547.293,86.149 546.937,85.972 546.937,85.972 			"></polygon>
			<g>
				<polygon fill="none" points="547.65,86.829 547.674,87.031 547.65,86.829 				"></polygon>
				<polygon fill="none" points="549.56,84.836 549.695,84.966 549.547,84.861 				"></polygon>
				<g>
					<polygon fill="none" points="549.695,84.966 549.547,84.861 549.56,84.836 					"></polygon>
					<g>
						<polygon fill="none" points="549.695,84.966 549.547,84.861 549.56,84.836 						"></polygon>
						<polygon points="489.854,83.925 489.873,83.869 491,80.909 491.357,81.029 490.264,83.954 490.242,84.072 490.237,84.03 
							489.854,84.104 489.85,84.062 						"></polygon>
						<g>
							<polygon fill="none" points="549.695,84.966 549.547,84.861 549.56,84.836 							"></polygon>
							<polygon fill="#4C4849" points="507.998,90.933 507.932,90.971 507.926,90.966 							"></polygon>
							<g>
								<polygon fill="none" points="508.069,91.104 508.211,91.24 508.069,91.104 								"></polygon>
								<polygon fill="none" points="549.695,84.966 549.547,84.861 549.56,84.836 								"></polygon>
								<polygon fill="none" points="503.212,95.271 503.225,95.271 503.225,95.277 503.032,95.213 503.193,95.214 								"></polygon>
								<path d="M489.992,84.587l0.041,0.172l0.006-0.019l0.289-0.06l-0.073,0.191l8.294-0.271l0.195,0.006l0.216,0.073l0.214,0.068
									l0.215,0.074l0.196,0.124l0.161,0.113l0.113,0.139l0.07,0.137l-0.194,0.06l3.297,9.938l0.194,0.002l0.004,0.122h0.297
									l0.28-0.006l0.257,0.006l0.232-0.04l0.236-0.062l0.24-0.115l0.219-0.186l0.263-0.251l0.006-0.019l0.149-0.207l0.172-0.221
									l0.198-0.231l0.138-0.233l0.173-0.28l0.179-0.238l0.147-0.266l0.19-0.276l0.155-0.227l0.222-0.243l0.18-0.238l0.208-0.21
									l0.183-0.195l0.199-0.174l0.189-0.153l0.221-0.124l0.047-0.025l-0.142-0.136l0,0l0.142,0.136l0.222-0.243l0.202-0.193
									l0.179-0.176l0.192-0.156l0.185-0.136l0.194-0.114l0.174-0.1l0.19-0.096l0.214-0.049l0.209-0.088l0.215-0.048l0.25-0.036
									l0.273-0.049l0.305-0.018l0.328-0.028l0.32-0.013l0.02,0.008l35.791-2.675l0.21-0.027l0.19-0.038l0.173-0.041l0.179-0.06
									l0.166-0.083l0.175-0.103l0.144-0.13l0.166-0.144l0.035-0.047l0.625-1.459l-0.324-0.21l0.143,0.142l-0.023,0.019
									l-0.158-0.111l-0.155,0.365l-0.106,0.062l-0.137,0.055l-0.16,0.064l-0.15,0.03l-0.189,0.036l-0.191,0.035l-35.811,2.668
									l-0.229,0.022l-0.219,0.007l-0.219,0.006l-0.234,0.038h-0.238l-0.207,0.032l-0.228,0.023l-0.208,0.031l-0.232,0.041
									l-0.209,0.029l-0.213,0.047l-0.239,0.061l-0.216,0.047l-0.227,0.084l-0.227,0.084l-0.214,0.106l-0.423,0.256l-0.43,0.394
									l-0.451,0.464l-0.438,0.53l-0.422,0.554l-0.363,0.495l-0.357,0.477l-0.297,0.358l-0.175,0.04l-0.149,0.03l-0.185,0.019
									h-0.179h-0.18l-0.154-0.013l-0.195-0.007l-0.174-0.019l-3.286-9.914l-0.071-0.143l-0.113-0.137l-0.16-0.113l-0.216-0.131
									l-0.208-0.09l-0.215-0.073l-0.203-0.047l-0.196-0.006l-8.288,0.254l-0.996,2.619l-0.006-0.035L489.992,84.587z
									 M549.547,84.861l0.013-0.025l0.136,0.13L549.547,84.861z"></path>
							</g>
						</g>
					</g>
				</g>
			</g>
			<polygon fill-rule="evenodd" clip-rule="evenodd" points="548.295,85.592 548.509,85.542 548.699,85.508 548.873,85.464 
				549.053,85.405 549.219,85.321 549.392,85.222 549.527,85.108 549.695,84.966 549.412,84.69 549.284,84.828 549.154,84.925 
				549.027,85.001 548.891,85.054 548.76,85.09 548.605,85.138 548.439,85.161 548.254,85.179 548.295,85.592 548.295,85.592 			"></polygon>
			<polygon fill-rule="evenodd" clip-rule="evenodd" points="512.508,88.247 548.295,85.592 548.254,85.179 512.461,87.853 
				512.508,88.247 512.508,88.247 			"></polygon>
			<polygon fill-rule="evenodd" clip-rule="evenodd" points="508.998,88.882 509.207,88.793 509.41,88.721 509.654,88.644 
				509.857,88.572 510.077,88.508 510.286,88.479 510.495,88.447 510.727,88.407 510.918,88.369 511.138,88.365 511.365,88.341 
				511.592,88.318 511.816,88.294 512.02,88.282 512.264,88.264 512.508,88.247 512.461,87.853 512.233,87.876 512.01,87.899 
				511.771,87.899 511.543,87.924 511.322,87.931 511.109,87.978 510.887,87.982 510.644,88 510.428,88.049 510.215,88.096 
				509.982,88.138 509.743,88.197 509.541,88.269 509.297,88.345 509.053,88.423 508.838,88.529 508.998,88.882 508.998,88.882 
				508.998,88.882 			"></polygon>
			<polygon fill-rule="evenodd" clip-rule="evenodd" points="505.792,92.418 505.869,92.365 506.031,92.18 506.174,91.99 
				506.346,91.771 506.525,91.531 506.729,91.282 506.914,91.024 507.121,90.757 507.33,90.49 507.545,90.204 507.764,89.959 
				507.98,89.732 508.199,89.487 508.385,89.291 508.617,89.133 508.809,88.978 508.998,88.882 508.838,88.529 508.594,88.668 
				508.385,88.814 508.142,89.013 507.91,89.233 507.694,89.459 507.479,89.686 507.242,89.983 507.032,90.251 506.824,90.519 
				506.615,90.787 506.432,91.044 506.227,91.293 506.049,91.531 505.875,91.752 505.734,91.943 505.602,92.098 505.674,92.06 
				505.792,92.418 505.792,92.418 505.792,92.418 			"></polygon>
			<polygon fill="none" points="544.459,82.026 544.537,81.854 544.679,81.724 544.894,81.616 545.145,81.581 545.281,81.586 
				545.437,81.599 545.584,81.628 545.733,81.657 545.912,81.719 546.074,81.772 546.246,81.849 546.431,81.95 546.586,82.021 
				546.747,82.136 546.889,82.242 547.046,82.374 547.206,82.485 547.318,82.623 547.457,82.748 547.569,82.886 547.777,83.153 
				547.885,83.428 547.938,83.565 547.969,83.655 547.95,83.888 547.907,84.071 547.775,84.226 547.586,84.32 547.33,84.374 
				547.188,84.388 547.039,84.356 546.866,84.339 546.682,84.297 546.52,84.243 546.342,84.183 546.15,84.103 545.982,84.005 
				545.812,83.927 545.625,83.826 545.465,83.715 545.311,83.581 545.166,83.475 545.019,83.327 544.887,83.183 544.775,83.044 
				544.592,82.764 544.481,82.492 544.453,82.402 544.422,82.253 			"></polygon>
			<polygon fill-rule="evenodd" clip-rule="evenodd" fill="#FFFFFF" points="498.937,81.652 499.675,81.64 499.735,81.64 
				493.39,79.524 493.068,79.714 498.93,81.67 498.93,81.67 498.937,81.652 			"></polygon>
			<polygon fill-rule="evenodd" clip-rule="evenodd" fill="#FFFFFF" points="498.937,81.652 491.387,81.894 491.357,81.744 
				491.316,81.573 491.269,81.418 491.209,81.239 491.18,81.09 491.18,80.97 491.227,80.827 491.357,80.731 491.668,80.519 
				492.012,80.315 492.357,80.112 492.704,79.91 493.033,79.7 493.068,79.714 498.93,81.67 498.93,81.67 498.937,81.652 			"></polygon>
			<polygon fill="#FFFFFF" points="494.347,86.237 499.49,85.947 501.502,86.758 502.212,88.86 502.428,89.587 501.574,89.64 
				500.74,89.64 499.971,89.624 499.269,89.587 498.584,89.497 497.946,89.386 497.361,89.229 496.777,89.074 496.23,88.871 
				495.699,88.673 495.199,88.447 494.705,88.204 494.191,87.953 493.703,87.69 493.215,87.429 492.709,87.159 492.662,86.946 
				492.625,86.755 492.578,86.541 492.547,86.331 			"></polygon>
			<polygon fill-rule="evenodd" clip-rule="evenodd" fill="#FFFFFF" points="507.301,86.825 507.373,86.91 508.034,87.309 
				508.248,86.965 507.587,86.564 507.652,86.665 507.301,86.825 507.324,86.872 507.373,86.91 507.301,86.825 507.301,86.825 			
				"></polygon>
			<polygon fill-rule="evenodd" clip-rule="evenodd" fill="#FFFFFF" points="501.42,86.949 501.307,86.812 502.249,89.646 
				502.623,89.533 501.684,86.697 501.58,86.584 501.684,86.697 501.652,86.608 501.58,86.584 501.42,86.949 501.42,86.949 
				501.42,86.949 			"></polygon>
			<polygon fill-rule="evenodd" clip-rule="evenodd" fill="#FFFFFF" points="499.508,86.134 499.412,86.12 501.42,86.949 
				501.58,86.584 499.574,85.757 499.496,85.751 499.574,85.757 499.537,85.745 499.496,85.751 499.508,86.134 499.508,86.134 
				499.508,86.134 			"></polygon>
			<polygon fill-rule="evenodd" clip-rule="evenodd" fill="#FFFFFF" points="492.75,86.322 492.561,86.534 499.508,86.134 
				499.496,85.751 492.549,86.153 492.363,86.349 492.549,86.153 492.327,86.157 492.363,86.349 492.75,86.322 492.75,86.322 			"></polygon>
			<polygon fill-rule="evenodd" clip-rule="evenodd" fill="#FFFFFF" points="492.805,86.993 492.881,87.117 492.875,87.017 
				492.852,86.91 492.846,86.809 492.816,86.719 492.811,86.618 492.786,86.512 492.756,86.421 492.75,86.322 492.363,86.349 
				492.362,86.469 492.381,86.594 492.41,86.681 492.418,86.783 492.446,86.872 492.471,86.981 492.512,87.095 492.518,87.196 
				492.613,87.326 492.518,87.196 492.547,87.284 492.613,87.326 492.805,86.993 492.805,86.993 			"></polygon>
			<polygon fill-rule="evenodd" clip-rule="evenodd" fill="#FFFFFF" points="502.253,89.629 502.414,89.386 501.562,89.439 
				500.74,89.464 499.996,89.433 499.275,89.39 498.631,89.294 497.988,89.198 497.404,89.044 496.838,88.896 496.289,88.692 
				495.783,88.482 495.277,88.273 494.782,88.031 494.287,87.786 493.8,87.525 493.311,87.26 492.805,86.993 492.613,87.326 
				493.12,87.595 493.607,87.859 494.109,88.143 494.604,88.388 495.121,88.619 495.622,88.847 496.164,89.066 496.712,89.271 
				497.312,89.432 497.903,89.568 498.56,89.688 499.245,89.776 499.959,89.836 500.753,89.845 501.574,89.82 502.461,89.778 
				502.623,89.533 502.461,89.778 502.707,89.761 502.623,89.533 502.249,89.646 502.249,89.646 502.253,89.629 			"></polygon>
			<g>
				<polygon fill="none" points="505.848,92.147 505.994,92.289 505.848,92.147 				"></polygon>
				<polygon fill="none" points="504.529,92.098 504.495,92.099 504.495,92.099 				"></polygon>
				<polygon fill="none" points="501.295,82.458 506.51,84.199 501.295,82.458 				"></polygon>
			</g>
			<polygon fill-rule="evenodd" clip-rule="evenodd" fill="#FFFFFF" points="512.461,87.853 512.199,87.864 511.906,87.906 
				511.645,87.917 511.359,87.939 511.086,87.988 510.793,88.031 510.5,88.073 510.22,88.138 509.939,88.204 509.697,88.28 
				509.428,88.369 509.178,88.465 508.963,88.572 508.707,88.686 508.498,88.835 508.307,88.988 508.547,89.288 508.73,89.149 
				508.91,89.03 509.105,88.917 509.332,88.835 509.553,88.71 509.791,88.65 510.07,88.585 510.316,88.508 510.584,88.479 
				510.822,88.417 511.109,88.395 511.383,88.348 511.675,88.305 511.96,88.28 512.229,88.252 512.508,88.247 512.461,87.853 
				512.461,87.853 512.461,87.853 			"></polygon>
			<polygon fill-rule="evenodd" clip-rule="evenodd" fill="#FFFFFF" points="548.254,85.179 512.461,87.853 512.508,88.247 
				548.295,85.592 548.254,85.179 548.254,85.179 			"></polygon>
			<polygon fill-rule="evenodd" clip-rule="evenodd" fill="#FFFFFF" points="548.922,82.998 549.07,83.207 549.225,83.399 
				549.298,83.602 549.41,83.798 549.469,83.977 549.488,84.16 549.492,84.321 549.481,84.477 549.439,84.602 549.38,84.721 
				549.302,84.834 549.164,84.947 549.022,85.021 548.795,85.103 548.559,85.161 548.254,85.179 548.295,85.592 548.623,85.56 
				548.91,85.477 549.158,85.381 549.38,85.259 549.583,85.125 549.725,84.934 549.803,84.762 549.875,84.548 549.869,84.327 
				549.88,84.114 549.832,83.899 549.754,83.656 549.666,83.445 549.547,83.207 549.392,82.958 549.237,82.767 548.922,82.998 
				548.922,82.998 			"></polygon>
			<polygon fill-rule="evenodd" clip-rule="evenodd" fill="#FFFFFF" points="544.654,80.96 544.978,80.948 545.305,80.979 
				545.639,81.051 545.959,81.099 546.264,81.2 546.568,81.301 546.859,81.438 547.135,81.57 547.42,81.724 547.682,81.891 
				547.963,82.064 548.164,82.229 548.379,82.421 548.588,82.63 548.76,82.826 548.922,82.998 549.237,82.767 549.053,82.547 
				548.844,82.339 548.635,82.127 548.403,81.933 548.147,81.748 547.891,81.563 547.629,81.396 547.332,81.216 547.021,81.075 
				546.705,80.948 546.383,80.842 546.045,80.728 545.709,80.656 545.369,80.603 544.981,80.573 544.645,80.577 544.654,80.96 
				544.654,80.96 			"></polygon>
			<polygon fill-rule="evenodd" clip-rule="evenodd" fill="#FFFFFF" points="512.986,82.051 544.654,80.96 544.645,80.577 
				512.992,81.675 512.986,82.051 512.986,82.051 			"></polygon>
			<polygon fill-rule="evenodd" clip-rule="evenodd" fill="#FFFFFF" points="507.988,81.255 508.285,81.376 508.602,81.442 
				508.906,81.542 509.221,81.608 509.553,81.682 509.863,81.764 510.203,81.816 510.508,81.858 510.824,81.926 511.15,81.954 
				511.473,82.002 511.789,82.008 512.092,82.05 512.415,82.037 512.705,82.058 512.986,82.051 512.992,81.675 512.693,81.675 
				512.402,81.657 512.127,81.646 511.818,81.623 511.508,81.597 511.199,81.573 510.896,81.531 510.574,81.484 510.258,81.418 
				509.955,81.376 509.645,81.294 509.322,81.246 509.013,81.16 508.684,81.072 508.409,81.001 508.107,80.899 507.982,81.274 
				507.982,81.274 507.988,81.255 			"></polygon>
			<polygon fill-rule="evenodd" clip-rule="evenodd" fill="#FFFFFF" points="497.305,78.329 497.847,78.251 498.357,78.202 
				498.848,78.166 499.295,78.138 499.718,78.119 500.1,78.167 500.492,78.18 500.82,78.209 501.16,78.263 501.477,78.33 
				501.773,78.39 502.043,78.479 502.328,78.573 502.553,78.668 502.834,78.781 503.055,78.895 503.311,79.022 503.566,79.146 
				503.817,79.29 504.068,79.433 504.318,79.574 504.58,79.743 504.837,79.867 505.116,80.04 505.426,80.184 505.724,80.362 
				506.057,80.493 506.379,80.66 506.741,80.82 507.136,80.954 507.554,81.13 507.982,81.274 508.107,80.899 507.678,80.756 
				507.255,80.596 506.902,80.457 506.533,80.314 506.195,80.141 505.902,80.005 505.604,79.824 505.312,79.688 505.026,79.533 
				504.759,79.384 504.508,79.241 504.246,79.073 503.996,78.931 503.738,78.807 503.484,78.682 503.25,78.543 502.995,78.419 
				502.715,78.305 502.452,78.198 502.167,78.103 501.863,78.002 501.547,77.937 501.227,77.888 500.873,77.811 500.511,77.768 
				500.135,77.764 499.699,77.757 499.283,77.756 498.8,77.772 498.311,77.81 497.795,77.874 497.258,77.935 497.287,78.321 
				497.287,78.321 497.305,78.329 			"></polygon>
			<polygon fill-rule="evenodd" clip-rule="evenodd" fill="#FFFFFF" points="491.459,80.906 491.768,80.689 492.113,80.486 
				492.46,80.286 492.811,80.065 493.133,79.875 493.497,79.678 493.837,79.493 494.188,79.333 494.564,79.161 494.938,78.987 
				495.309,78.834 495.69,78.702 496.102,78.603 496.477,78.487 496.888,78.388 497.287,78.321 497.258,77.935 496.81,78.022 
				496.387,78.102 495.97,78.219 495.576,78.326 495.184,78.491 494.777,78.636 494.41,78.792 494.033,78.964 493.652,79.154 
				493.289,79.351 492.948,79.535 492.603,79.736 492.256,79.94 491.911,80.141 491.585,80.351 491.256,80.558 491.439,80.899 
				491.439,80.899 491.459,80.906 			"></polygon>
			<polygon fill-rule="evenodd" clip-rule="evenodd" fill="#FFFFFF" points="491.387,81.716 491.59,81.881 491.53,81.702 
				491.494,81.511 491.447,81.357 491.404,81.186 491.381,81.076 491.363,81.011 491.393,80.923 491.439,80.899 491.256,80.558 
				491.084,80.718 490.993,80.928 490.97,81.119 491.029,81.297 491.071,81.471 491.119,81.625 491.166,81.78 491.195,81.93 
				491.381,82.088 491.195,81.93 491.203,82.088 491.381,82.088 491.387,81.716 491.387,81.716 			"></polygon>
			<g>
				<polygon fill="none" points="506.008,83.138 506.011,83.14 505.961,83.341 				"></polygon>
				<polygon fill="#FFFFFF" points="506.016,83.121 506.011,83.14 506.008,83.138 				"></polygon>
				<polygon fill="#FFFFFF" points="505.926,83.21 506.008,83.138 505.961,83.341 				"></polygon>
				<g>
					<polygon fill="none" points="544.537,81.854 544.679,81.724 544.894,81.616 545.145,81.581 545.281,81.586 545.437,81.599 
						545.584,81.628 545.733,81.657 545.912,81.719 546.074,81.772 546.246,81.849 546.431,81.95 546.586,82.021 546.747,82.136 
						546.889,82.242 547.046,82.374 547.206,82.485 547.318,82.623 547.457,82.748 547.569,82.886 547.777,83.153 547.885,83.428 
						547.938,83.565 547.969,83.655 547.95,83.888 547.907,84.071 547.775,84.226 547.586,84.32 547.33,84.374 547.188,84.388 
						547.039,84.356 546.866,84.339 546.682,84.297 546.52,84.243 546.342,84.183 546.15,84.103 545.982,84.005 545.812,83.927 
						545.625,83.826 545.465,83.715 545.311,83.581 545.166,83.475 545.019,83.327 544.887,83.183 544.775,83.044 544.592,82.764 
						544.481,82.492 544.453,82.402 544.422,82.253 544.459,82.026 					"></polygon>
					<polygon fill="none" points="510.042,83.112 510.042,83.112 509.863,83.193 					"></polygon>
					<polygon fill="none" points="511.328,86.362 511.455,86.464 511.467,86.487 511.127,86.911 508.135,87.124 507.486,86.75 
						507.482,86.743 507.652,86.665 506.38,83.315 506.59,83.104 509.311,82.948 509.887,83.249 511.3,86.572 					"></polygon>
					<polygon fill="none" points="501.122,82.104 501.122,82.104 506.127,83.772 					"></polygon>
					<g>
						<polygon fill="none" points="544.537,81.854 544.679,81.724 544.894,81.616 545.145,81.581 545.281,81.586 545.437,81.599 
							545.584,81.628 545.733,81.657 545.912,81.719 546.074,81.772 546.246,81.849 546.431,81.95 546.586,82.021 546.747,82.136 
							546.889,82.242 547.046,82.374 547.206,82.485 547.318,82.623 547.457,82.748 547.569,82.886 547.777,83.153 547.885,83.428 
							547.938,83.565 547.969,83.655 547.95,83.888 547.907,84.071 547.775,84.226 547.586,84.32 547.33,84.374 547.188,84.388 
							547.039,84.356 546.866,84.339 546.682,84.297 546.52,84.243 546.342,84.183 546.15,84.103 545.982,84.005 545.812,83.927 
							545.625,83.826 545.465,83.715 545.311,83.581 545.166,83.475 545.019,83.327 544.887,83.183 544.775,83.044 544.592,82.764 
							544.481,82.492 544.453,82.402 544.422,82.253 544.459,82.026 						"></polygon>
						<polygon fill="none" points="509.311,82.948 509.887,83.249 511.3,86.572 511.328,86.362 511.455,86.464 511.467,86.487 
							511.127,86.911 508.135,87.124 507.486,86.75 507.482,86.743 507.652,86.665 506.38,83.315 506.59,83.104 						"></polygon>
						<polygon fill="none" points="501.122,82.104 501.122,82.104 506.127,83.772 						"></polygon>
						<g>
							<polygon fill="none" points="544.537,81.854 544.679,81.724 544.894,81.616 545.145,81.581 545.281,81.586 545.437,81.599 
								545.584,81.628 545.733,81.657 545.912,81.719 546.074,81.772 546.246,81.849 546.431,81.95 546.586,82.021 546.747,82.136 
								546.889,82.242 547.046,82.374 547.206,82.485 547.318,82.623 547.457,82.748 547.569,82.886 547.777,83.153 547.885,83.428 
								547.938,83.565 547.969,83.655 547.95,83.888 547.907,84.071 547.775,84.226 547.586,84.32 547.33,84.374 547.188,84.388 
								547.039,84.356 546.866,84.339 546.682,84.297 546.52,84.243 546.342,84.183 546.15,84.103 545.982,84.005 545.812,83.927 
								545.625,83.826 545.465,83.715 545.311,83.581 545.166,83.475 545.019,83.327 544.887,83.183 544.775,83.044 544.592,82.764 
								544.481,82.492 544.453,82.402 544.422,82.253 544.459,82.026 							"></polygon>
							<polygon fill="none" points="509.311,82.948 509.887,83.249 511.3,86.572 511.328,86.362 511.455,86.464 511.467,86.487 
								511.131,86.906 511.109,86.726 508.119,86.939 508.248,86.965 508.148,87.123 508.135,87.124 507.486,86.75 507.482,86.743 
								507.652,86.665 506.38,83.315 506.59,83.104 							"></polygon>
							<polygon fill="none" points="501.122,82.104 501.122,82.104 506.127,83.772 							"></polygon>
							<g>
								<polygon fill="none" points="511.404,85.832 517.073,87.723 511.404,85.832 								"></polygon>
								<polygon fill="none" points="511.258,85.484 517.787,87.664 511.258,85.484 								"></polygon>
								<polygon fill="none" points="544.537,81.854 544.679,81.724 544.894,81.616 545.145,81.581 545.281,81.586 545.437,81.599 
									545.584,81.628 545.733,81.657 545.912,81.719 546.074,81.772 546.246,81.849 546.431,81.95 546.586,82.021 546.747,82.136 
									546.889,82.242 547.046,82.374 547.206,82.485 547.318,82.623 547.457,82.748 547.569,82.886 547.777,83.153 
									547.885,83.428 547.938,83.565 547.969,83.655 547.95,83.888 547.907,84.071 547.775,84.226 547.586,84.32 547.33,84.374 
									547.188,84.388 547.039,84.356 546.866,84.339 546.682,84.297 546.52,84.243 546.342,84.183 546.15,84.103 545.982,84.005 
									545.812,83.927 545.625,83.826 545.465,83.715 545.311,83.581 545.166,83.475 545.019,83.327 544.887,83.183 
									544.775,83.044 544.592,82.764 544.481,82.492 544.453,82.402 544.422,82.253 544.459,82.026 								"></polygon>
								<polygon fill="none" points="509.311,82.948 509.887,83.249 511.3,86.572 511.328,86.362 511.455,86.464 511.467,86.487 
									511.131,86.906 511.127,86.911 508.148,87.123 508.135,87.124 507.486,86.75 507.482,86.743 507.652,86.665 506.38,83.315 
									506.59,83.104 								"></polygon>
								<polygon fill="none" points="501.122,82.104 501.122,82.104 506.127,83.772 								"></polygon>
								<polygon fill="#FFFFFF" points="511.258,85.484 517.787,87.664 517.078,87.705 517.073,87.723 511.404,85.832 								"></polygon>
								<g>
									<polygon fill="none" points="544.537,81.854 544.679,81.724 544.894,81.616 545.145,81.581 545.281,81.586 545.437,81.599 
										545.584,81.628 545.733,81.657 545.912,81.719 546.074,81.772 546.246,81.849 546.431,81.95 546.586,82.021 
										546.747,82.136 546.889,82.242 547.046,82.374 547.206,82.485 547.318,82.623 547.457,82.748 547.569,82.886 
										547.777,83.153 547.885,83.428 547.938,83.565 547.969,83.655 547.95,83.888 547.907,84.071 547.775,84.226 547.586,84.32 
										547.33,84.374 547.188,84.388 547.039,84.356 546.866,84.339 546.682,84.297 546.52,84.243 546.342,84.183 546.15,84.103 
										545.982,84.005 545.812,83.927 545.625,83.826 545.465,83.715 545.311,83.581 545.166,83.475 545.019,83.327 
										544.887,83.183 544.775,83.044 544.592,82.764 544.481,82.492 544.453,82.402 544.422,82.253 544.459,82.026 									"></polygon>
									<polygon fill="none" points="509.311,82.948 509.887,83.249 511.252,86.46 511.04,86.731 508.119,86.939 508.248,86.965 
										508.148,87.123 508.135,87.124 507.486,86.75 507.482,86.743 507.652,86.665 506.38,83.315 506.59,83.104 									"></polygon>
									<polygon fill="none" points="511.328,86.362 511.455,86.464 511.455,86.464 									"></polygon>
									<polygon fill="none" points="501.122,82.104 501.122,82.104 506.127,83.772 									"></polygon>
									<path fill="#FFFFFF" d="M491.381,82.088l8.294-0.269l0.173,0.016l0.162,0.056l0.215,0.071l0.195,0.066l0.178,0.119
										l0.133,0.082l0.076,0.127l0.061,0.059l3.299,9.938l0.047,0.154l0.162-0.005l0.166-0.023l0.191,0.023l0.232,0.019
										l0.219-0.007l0.216,0.014l0.196-0.055l0.22-0.064l0.179-0.119l0.215-0.229l0.18-0.236l0.167-0.202l0.166-0.2l0.144-0.193
										l0.137-0.173l0.119-0.177l0.144-0.192l0.118-0.178l0.139-0.172l0.136-0.174l0.149-0.149l0.156-0.167l0.179-0.178
										l0.179-0.181l0.227-0.199l-0.121-0.151l0.179-0.148l0.204-0.131l0.232-0.101l0.214-0.107l0.232-0.1l0.262-0.073l0.269-0.09
										l0.262-0.068l0.25-0.038l0.275-0.049l0.291-0.04l0.275-0.047l0.285-0.024l0.285-0.024l0.27-0.029l0.262-0.011l4.601-0.333
										l-5.669-1.891l-0.146-0.348l0,0l6.529,2.18l30.496-2.276l0.566-0.089l0.424-0.196l0.293-0.28l0.104-0.321v-0.357
										l0.008-0.019l-0.101-0.41l-0.202-0.407l-0.294-0.435l-0.171-0.195l-0.191-0.203l-0.209-0.207l-0.219-0.174l-0.232-0.198
										l-0.262-0.165l-0.28-0.174l-0.28-0.173l-0.3-0.119l-0.292-0.137l-0.322-0.108l-0.338-0.111l-0.32-0.048l-0.335-0.072
										l-0.348-0.036l-0.337,0.007l-4.606,0.169l-27.046,0.927h-0.299l-0.278,0.005l-0.317-0.005l-0.303-0.042l-0.311-0.024
										l-0.309-0.024l-0.305-0.043l-0.322-0.047l-0.322-0.047l-0.314-0.065l-0.316-0.068l-0.315-0.064l-0.327-0.087l-0.309-0.087
										l-0.295-0.076l-0.303-0.1l-0.429-0.146l-0.422-0.161l-0.37-0.142l-0.369-0.145l-0.322-0.165l-0.311-0.143l-0.32-0.169
										l-0.293-0.137l-0.279-0.173l-0.251-0.144l-0.269-0.148l-0.25-0.143l-0.268-0.147l-0.25-0.146l-0.238-0.119l-0.25-0.143
										l-0.258-0.125l-0.262-0.107l-0.25-0.084l-0.286-0.096l-0.304-0.101l-0.29-0.078l-0.323-0.047l-0.34-0.055l-0.346-0.035
										l-0.387-0.029l-0.412-0.02l-0.422,0.019l-0.441,0.011l-0.494,0.054l-0.514,0.048l-0.56,0.071l-0.417,0.06l-0.412,0.101
										l-0.41,0.101l-0.383,0.132l-0.403,0.145l-0.388,0.146l-0.367,0.154l-0.377,0.173l-0.357,0.179l-0.364,0.198l5.788,1.93
										l-7.791,0.262L491.381,82.088z M544.422,82.253l0.037-0.227l0.078-0.172l0.142-0.131l0.215-0.107l0.251-0.035l0.137,0.005
										l0.155,0.013l0.147,0.029l0.149,0.029l0.179,0.062l0.162,0.054l0.172,0.076l0.185,0.102l0.155,0.071l0.161,0.114
										l0.142,0.106l0.157,0.132l0.16,0.111l0.112,0.138l0.139,0.125l0.112,0.138l0.208,0.268l0.107,0.274l0.054,0.138l0.03,0.09
										l-0.019,0.232l-0.043,0.184l-0.132,0.154l-0.189,0.095l-0.256,0.054l-0.143,0.014l-0.148-0.031l-0.173-0.018l-0.185-0.042
										l-0.162-0.054l-0.178-0.061l-0.191-0.08l-0.168-0.098l-0.171-0.078l-0.187-0.101l-0.16-0.111l-0.154-0.134l-0.145-0.106
										l-0.147-0.147l-0.132-0.145l-0.111-0.139l-0.184-0.28l-0.11-0.271l-0.028-0.09L544.422,82.253z M511.455,86.464
										L511.455,86.464l-0.127-0.102L511.455,86.464z M506.38,83.315l0.21-0.211l2.721-0.156l0.576,0.301l1.365,3.211
										l-0.212,0.271l-2.921,0.208l0.129,0.025l-0.1,0.158l-0.014,0.001l-0.648-0.374l-0.004-0.007l0.17-0.078L506.38,83.315z"></path>
								</g>
							</g>
						</g>
					</g>
				</g>
			</g>
			<polygon fill-rule="evenodd" clip-rule="evenodd" points="542.58,84.319 542.414,84.225 542.385,84.075 542.623,84.015 
				542.671,84.171 542.527,84.063 542.58,84.319 542.58,84.319 			"></polygon>
			<polygon fill-rule="evenodd" clip-rule="evenodd" points="542.904,84.129 542.867,84.178 542.807,84.236 542.734,84.271 
				542.666,84.307 542.58,84.319 542.527,84.063 542.563,84.075 542.617,84.033 542.683,84.015 542.689,83.998 542.676,84.033 
				542.898,84.146 542.898,84.146 542.904,84.129 			"></polygon>
			<polygon fill-rule="evenodd" clip-rule="evenodd" points="542.23,82.634 542.248,82.639 542.361,82.776 542.51,82.926 
				542.652,83.093 542.789,83.277 542.903,83.474 542.968,83.694 542.969,83.933 542.898,84.146 542.676,84.033 542.725,83.89 
				542.713,83.749 542.671,83.574 542.563,83.421 542.445,83.242 542.315,83.099 542.164,82.948 542.051,82.812 542.068,82.818 
				542.23,82.634 542.23,82.634 			"></polygon>
			<polygon fill-rule="evenodd" clip-rule="evenodd" points="540.038,82.001 540.02,81.994 540.336,82.001 540.633,82.001 
				540.913,82.055 541.182,82.084 541.455,82.157 541.711,82.282 541.979,82.431 542.23,82.634 542.068,82.818 541.824,82.656 
				541.592,82.52 541.373,82.407 541.135,82.347 540.872,82.3 540.604,82.269 540.33,82.258 540.05,82.264 540.056,82.246 
				540.014,82.013 540.014,82.013 540.038,82.001 			"></polygon>
			<polygon fill-rule="evenodd" clip-rule="evenodd" points="516.787,83.221 516.889,83.153 540.014,82.013 540.056,82.246 
				516.924,83.405 517.027,83.339 516.787,83.221 516.787,83.221 			"></polygon>
			<polygon fill-rule="evenodd" clip-rule="evenodd" points="516.239,84.029 515.988,83.946 516.007,83.772 516.055,83.631 
				516.126,83.476 516.221,83.367 516.346,83.29 516.507,83.226 516.686,83.167 516.889,83.153 516.924,83.405 516.732,83.44 
				516.562,83.481 516.477,83.492 516.393,83.565 516.354,83.631 516.287,83.709 516.252,83.815 516.258,83.976 516.007,83.891 
				516.239,84.029 516.239,84.029 			"></polygon>
			<g>
				<polygon fill="none" points="516.889,83.16 516.924,83.405 516.889,83.16 				"></polygon>
				<g>
					<polygon fill="none" points="516.258,83.976 516.287,83.826 516.357,83.673 516.418,83.555 516.543,83.476 516.691,83.445 
						516.9,83.416 516.924,83.405 540.056,82.246 540.441,82.275 540.766,82.264 541.068,82.305 541.348,82.359 541.605,82.484 
						541.836,82.62 542.051,82.812 542.297,83.093 542.51,83.343 542.666,83.592 542.742,83.776 542.742,83.896 542.689,83.998 
						542.541,84.087 542.26,84.153 541.867,84.199 518.098,85.424 518.08,85.419 517.747,85.406 517.419,85.316 517.127,85.179 
						516.877,85.036 516.668,84.828 516.521,84.619 516.389,84.417 516.287,84.245 516.268,84.118 					"></polygon>
					<g>
						<path fill="none" d="M516.287,83.826l-0.029,0.149l0.01,0.143l0.02,0.127l0.102,0.172l0.132,0.202l0.147,0.209l0.209,0.208
							l0.25,0.143l0.292,0.138l0.328,0.09l0.333,0.013l0.018,0.005l23.77-1.225l0.393-0.046l0.281-0.066l0.148-0.089l0.053-0.102
							v-0.12l-0.076-0.185l-0.156-0.249l-0.213-0.25l-0.246-0.28l-0.215-0.192l-0.23-0.136l-0.258-0.125l-0.279-0.055l-0.303-0.041
							l-0.324,0.012l-0.386-0.029l-23.132,1.159l-0.023,0.011l-0.209,0.029l-0.148,0.03l-0.125,0.079l-0.061,0.118L516.287,83.826z
							 M516.614,83.678l23.132-1.158l0.011-0.035l0.31,0.023h0.299l0.281,0.053l0.267,0.03l0.274,0.072l0.256,0.125l0.25,0.143
							l0.268,0.209l0.102,0.111l0.09,0.091l0.084,0.107l0.07,0.082l0.102,0.116l0.078,0.123l0.064,0.1l0.066,0.103l0.006,0.042
							l-0.238,0.061l0.006,0.042l-0.061-0.119l-0.063-0.102l-0.091-0.089l-0.065-0.103l-0.071-0.082l-0.084-0.108l-0.088-0.088
							l-0.107-0.096l0.008-0.009l-0.212-0.158l-0.227-0.156l-0.226-0.096l-0.238-0.061l-0.262-0.049l-0.269-0.026l-0.292-0.021
							l-0.28,0.007l-23.124,1.143L516.614,83.678z"></path>
						<g>
							<path fill="none" d="M516.287,83.826l-0.029,0.149l0.01,0.143l0.02,0.127l0.102,0.172l0.132,0.202l0.147,0.209l0.209,0.208
								l0.25,0.143l0.292,0.138l0.328,0.09l0.333,0.013l0.018,0.005l23.77-1.225l0.393-0.046l0.281-0.066l0.148-0.089l0.053-0.102
								v-0.12l-0.076-0.185l-0.156-0.249l-0.213-0.25l-0.246-0.28l-0.215-0.192l-0.23-0.136l-0.258-0.125l-0.279-0.055l-0.303-0.041
								l-0.324,0.012l-0.386-0.029l-23.132,1.159l-0.023,0.011l-0.209,0.029l-0.148,0.03l-0.125,0.079l-0.061,0.118L516.287,83.826z
								"></path>
							<g>
								<polygon fill="none" points="516.357,83.673 516.418,83.555 516.543,83.476 516.691,83.445 516.828,83.427 516.639,83.786 
									539.77,82.627 540.066,82.627 540.342,82.639 540.622,82.691 540.89,82.723 541.145,82.788 541.391,82.89 541.634,83.051 
									541.873,83.229 541.955,83.336 542.045,83.427 542.129,83.531 542.219,83.623 542.283,83.723 542.368,83.83 542.434,83.933 
									542.51,84.057 542.52,84.093 542.26,84.153 541.867,84.199 518.098,85.424 518.08,85.419 517.747,85.406 517.419,85.316 
									517.127,85.179 516.877,85.036 516.668,84.828 516.521,84.619 516.389,84.417 516.287,84.245 516.268,84.118 
									516.258,83.976 516.287,83.826 								"></polygon>
								<polygon points="542.434,83.933 542.368,83.83 542.283,83.723 542.219,83.623 542.129,83.531 542.045,83.427 
									541.955,83.336 541.873,83.229 541.634,83.051 541.391,82.89 541.145,82.788 540.89,82.723 540.622,82.691 540.342,82.639 
									540.066,82.627 539.77,82.627 516.639,83.786 516.828,83.427 516.9,83.416 516.924,83.405 540.056,82.246 540.441,82.275 
									540.766,82.264 541.068,82.305 541.348,82.359 541.605,82.484 541.836,82.62 542.051,82.812 542.297,83.093 542.51,83.343 
									542.666,83.592 542.742,83.776 542.742,83.896 542.689,83.998 542.541,84.087 542.52,84.093 542.51,84.057 								"></polygon>
								<g>
									<polygon fill="none" points="516.297,83.804 516.316,83.798 516.436,83.798 516.639,83.786 516.831,83.427 516.9,83.416 
										516.924,83.405 540.056,82.246 540.441,82.275 540.766,82.264 541.068,82.305 541.348,82.359 541.605,82.484 
										541.836,82.62 542.051,82.812 542.297,83.093 542.51,83.343 542.666,83.592 542.742,83.776 542.742,83.896 542.689,83.998 
										542.541,84.087 542.52,84.093 542.26,84.153 541.867,84.199 518.098,85.424 518.08,85.419 517.747,85.406 517.419,85.316 
										517.127,85.179 516.877,85.036 516.668,84.828 516.521,84.619 516.389,84.417 516.287,84.245 516.268,84.118 
										516.258,83.976 516.287,83.826 									"></polygon>
									<path d="M515.988,83.946l0.025,0.226l0.046,0.155l0.066,0.219l0.155,0.252L516.471,85l0.244,0.222l0.293,0.197l0.328,0.147
										l0.344,0.095l0.418,0.001l23.762-1.206l0.453-0.047l0.32-0.071l0.234-0.16l0.131-0.216l-0.006-0.221l-0.089-0.268
										l-0.173-0.256l-0.238-0.299l-0.244-0.28l-0.263-0.228l-0.279-0.171l-0.274-0.132l-0.297-0.059l-0.357-0.06h-0.357
										l-0.406,0.022l-23.125,1.141v0.007l-0.245,0.012l-0.251,0.096l-0.165,0.143l-0.114,0.161l-0.076,0.173L515.988,83.946z
										 M516.258,83.976l0.029-0.149l0.01-0.022l0.02-0.006h0.119l0.203-0.012l0.192-0.359l0.069-0.011l0.023-0.011l23.132-1.159
										l0.386,0.029l0.324-0.012l0.303,0.041l0.279,0.055l0.258,0.125l0.23,0.136l0.215,0.192l0.246,0.28l0.213,0.25l0.156,0.249
										l0.076,0.185v0.12l-0.053,0.102l-0.148,0.089l-0.021,0.006l-0.26,0.061l-0.393,0.046l-23.77,1.225l-0.018-0.005
										l-0.333-0.013l-0.328-0.09l-0.292-0.138l-0.25-0.143l-0.209-0.208l-0.147-0.209l-0.132-0.202l-0.102-0.172l-0.02-0.127
										L516.258,83.976z"></path>
								</g>
							</g>
						</g>
					</g>
				</g>
			</g>
		</g>
	</g>
	<rect x="482.596" y="4.502" fill="#E6E7E8" width="222.402" height="37.94"></rect>
	
	<g>
		<path fill="#EC1E28" d="M226.24,234.574c0,0.888-0.403,1.754-1.207,2.597l-0.127,0.125l-7.04,7.417
			c-1.496,1.571-2.771,2.787-3.821,3.646c-1.052,0.859-1.796,1.287-2.228,1.287c-0.456,0-1.021-0.214-1.698-0.644
			c-0.676-0.428-1.112-0.872-1.311-1.327c-0.166-0.38-0.325-1.185-0.473-2.416c-0.147-1.229-0.222-2.563-0.222-3.998
			c0-0.782,0.327-1.506,0.979-2.171c0.653-0.665,1.375-0.997,2.164-0.997c0.754,0,1.2,0.688,1.344,2.062
			c0.018,0.159,0.027,0.278,0.037,0.354c0.119,1.056,0.261,1.792,0.419,2.21c0.161,0.418,0.378,0.627,0.65,0.627
			c0.113,0,0.327-0.124,0.639-0.37c0.31-0.248,0.684-0.583,1.116-1.009l7.234-7.166c0.607-0.607,1.149-1.066,1.629-1.379
			c0.479-0.311,0.884-0.467,1.219-0.467c0.252,0,0.429,0.096,0.537,0.285c0.105,0.19,0.158,0.51,0.158,0.958V234.574z"></path>
	</g>
	
	<g>
		<path fill="#EC1E28" d="M367.24,29.574c0,0.888-0.403,1.754-1.207,2.597l-0.127,0.125l-7.04,7.417
			c-1.496,1.571-2.771,2.787-3.821,3.646c-1.052,0.859-1.796,1.287-2.228,1.287c-0.456,0-1.021-0.214-1.698-0.644
			c-0.676-0.428-1.112-0.872-1.311-1.327c-0.166-0.38-0.325-1.185-0.473-2.416c-0.147-1.229-0.222-2.563-0.222-3.998
			c0-0.782,0.327-1.506,0.979-2.171c0.653-0.665,1.375-0.997,2.164-0.997c0.754,0,1.2,0.688,1.344,2.062
			c0.018,0.159,0.027,0.278,0.037,0.354c0.119,1.056,0.261,1.792,0.419,2.21c0.161,0.418,0.378,0.627,0.65,0.627
			c0.113,0,0.327-0.124,0.639-0.37c0.31-0.248,0.684-0.583,1.116-1.009l7.234-7.166c0.607-0.607,1.149-1.066,1.629-1.379
			c0.479-0.311,0.884-0.467,1.219-0.467c0.252,0,0.429,0.096,0.537,0.285c0.105,0.19,0.158,0.51,0.158,0.958V29.574z"></path>
	</g>
	
	<g>
		<g>
			<g>
				<path fill="none" stroke="#00ADEE" stroke-miterlimit="10" stroke-dasharray="6.0951" d="M542.456,156.576h-2.701
					c-0.093,0.712-0.283,1.445-0.592,2.185c-0.13,0.312-0.263,0.622-0.401,0.928"></path>
				<path fill="none" stroke="#00ADEE" stroke-miterlimit="10" stroke-dasharray="6.0951" d="M535.958,164.953
					c-6.265,9.922-16.168,15.806-26.516,14.387c-9.283-1.272-18.941-6.51-23.646-16.724"></path>
				<path fill="none" stroke="#00ADEE" stroke-miterlimit="10" stroke-dasharray="6.0951" d="M484.67,159.796
					c-0.146-0.425-0.282-0.857-0.411-1.297c-0.198-0.675-0.301-1.315-0.336-1.923h-2.701"></path>
				
					<line fill="none" stroke="#00ADEE" stroke-miterlimit="10" stroke-dasharray="6.0951" x1="476.257" y1="156.576" x2="429.095" y2="156.576"></line>
				<polyline fill="none" stroke="#00ADEE" stroke-miterlimit="10" stroke-dasharray="6.0951" points="426.611,156.576 
					423.91,156.576 423.91,159.943 				"></polyline>
				
					<line fill="none" stroke="#00ADEE" stroke-miterlimit="10" stroke-dasharray="6.0951" x1="423.91" y1="166.574" x2="423.91" y2="468.294"></line>
				<polyline fill="none" stroke="#00ADEE" stroke-miterlimit="10" stroke-dasharray="6.0951" points="423.91,471.61 
					423.91,474.978 426.611,474.978 				"></polyline>
				
					<line fill="none" stroke="#00ADEE" stroke-miterlimit="10" stroke-dasharray="6.0951" x1="432.167" y1="474.978" x2="596.02" y2="474.978"></line>
				<polyline fill="none" stroke="#00ADEE" stroke-miterlimit="10" stroke-dasharray="6.0951" points="598.799,474.978 
					601.5,474.978 601.5,471.61 				"></polyline>
				
					<line fill="none" stroke="#00ADEE" stroke-miterlimit="10" stroke-dasharray="6.0951" x1="601.5" y1="464.979" x2="601.5" y2="163.258"></line>
				<polyline fill="none" stroke="#00ADEE" stroke-miterlimit="10" stroke-dasharray="6.0951" points="601.5,159.943 601.5,156.576 
					598.799,156.576 				"></polyline>
				
					<line fill="none" stroke="#00ADEE" stroke-miterlimit="10" stroke-dasharray="6.0951" x1="593.678" y1="156.576" x2="545.018" y2="156.576"></line>
			</g>
		</g>
	</g>
	<g>
		<g>
			<g>
				<polyline fill="none" stroke="#00ADEE" stroke-miterlimit="10" stroke-dasharray="6.1127" points="304.309,471.596 
					304.309,474.978 301.604,474.978 				"></polyline>
				
					<line fill="none" stroke="#00ADEE" stroke-miterlimit="10" stroke-dasharray="6.1127" x1="296.042" y1="474.978" x2="131.985" y2="474.978"></line>
				<polyline fill="none" stroke="#00ADEE" stroke-miterlimit="10" stroke-dasharray="6.1127" points="129.205,474.978 
					126.5,474.978 126.5,471.596 				"></polyline>
				
					<line fill="none" stroke="#00ADEE" stroke-miterlimit="10" stroke-dasharray="6.1127" x1="126.5" y1="464.935" x2="126.5" y2="161.861"></line>
				<polyline fill="none" stroke="#00ADEE" stroke-miterlimit="10" stroke-dasharray="6.1127" points="126.5,158.53 126.5,155.148 
					129.205,155.148 				"></polyline>
				
					<line fill="none" stroke="#00ADEE" stroke-miterlimit="10" stroke-dasharray="6.1127" x1="134.766" y1="155.148" x2="298.824" y2="155.148"></line>
				<polyline fill="none" stroke="#00ADEE" stroke-miterlimit="10" stroke-dasharray="6.1127" points="301.604,155.148 
					304.309,155.148 304.309,158.53 				"></polyline>
				
					<line fill="none" stroke="#00ADEE" stroke-miterlimit="10" stroke-dasharray="6.1127" x1="304.309" y1="165.192" x2="304.309" y2="468.265"></line>
			</g>
		</g>
	</g>
	<line fill="none" stroke="#00ADEE" stroke-miterlimit="10" x1="304.669" y1="357.835" x2="274.669" y2="357.835"></line>
	<g>
		<path fill="#EC1E28" d="M209.24,348.574c0,0.888-0.403,1.754-1.207,2.597l-0.127,0.126l-7.04,7.417
			c-1.496,1.571-2.771,2.786-3.821,3.646c-1.052,0.859-1.796,1.287-2.228,1.287c-0.456,0-1.021-0.215-1.698-0.644
			c-0.676-0.429-1.112-0.872-1.311-1.327c-0.166-0.38-0.325-1.185-0.473-2.416c-0.147-1.229-0.222-2.562-0.222-3.998
			c0-0.782,0.327-1.506,0.979-2.171c0.653-0.665,1.375-0.997,2.164-0.997c0.754,0,1.2,0.688,1.344,2.062
			c0.018,0.159,0.027,0.277,0.037,0.354c0.119,1.056,0.261,1.793,0.419,2.21c0.161,0.418,0.378,0.627,0.65,0.627
			c0.113,0,0.327-0.124,0.639-0.37c0.31-0.248,0.684-0.582,1.116-1.009l7.234-7.166c0.607-0.607,1.149-1.066,1.629-1.379
			c0.479-0.312,0.884-0.468,1.219-0.468c0.252,0,0.429,0.097,0.537,0.285c0.105,0.189,0.158,0.51,0.158,0.958V348.574z"></path>
	</g>
	
	<g>
		<g>
			<g>
				<polyline fill="none" stroke="#00ADEE" stroke-miterlimit="10" stroke-dasharray="5.9958" points="304.575,117.348 
					304.575,131.997 301.866,131.997 				"></polyline>
				
					<line fill="none" stroke="#00ADEE" stroke-miterlimit="10" stroke-dasharray="5.9958" x1="296.296" y1="131.997" x2="131.994" y2="131.997"></line>
				<polyline fill="none" stroke="#00ADEE" stroke-miterlimit="10" stroke-dasharray="5.9958" points="129.209,131.997 
					126.5,131.997 126.5,117.348 				"></polyline>
				
					<line fill="none" stroke="#00ADEE" stroke-miterlimit="10" stroke-dasharray="5.9958" x1="126.5" y1="101.947" x2="126.5" y2="78.842"></line>
				<polyline fill="none" stroke="#00ADEE" stroke-miterlimit="10" stroke-dasharray="5.9958" points="126.5,71.143 126.5,56.493 
					129.209,56.493 				"></polyline>
				
					<line fill="none" stroke="#00ADEE" stroke-miterlimit="10" stroke-dasharray="5.9958" x1="134.778" y1="56.493" x2="299.082" y2="56.493"></line>
				<polyline fill="none" stroke="#00ADEE" stroke-miterlimit="10" stroke-dasharray="5.9958" points="301.866,56.493 
					304.575,56.493 304.575,71.143 				"></polyline>
				
					<line fill="none" stroke="#00ADEE" stroke-miterlimit="10" stroke-dasharray="5.9958" x1="304.575" y1="86.543" x2="304.575" y2="109.645"></line>
			</g>
		</g>
	</g>
	<g>
		<g>
			<g>
				<polyline fill="none" stroke="#00ADEE" stroke-miterlimit="10" stroke-dasharray="6.0258" points="304.559,559.588 
					304.559,574.661 301.851,574.661 				"></polyline>
				
					<line fill="none" stroke="#00ADEE" stroke-miterlimit="10" stroke-dasharray="6.0258" x1="296.281" y1="574.661" x2="131.993" y2="574.661"></line>
				<polyline fill="none" stroke="#00ADEE" stroke-miterlimit="10" stroke-dasharray="6.0258" points="129.209,574.661 
					126.5,574.661 126.5,559.588 				"></polyline>
				
					<line fill="none" stroke="#00ADEE" stroke-miterlimit="10" stroke-dasharray="6.0258" x1="126.5" y1="543.742" x2="126.5" y2="519.978"></line>
				<polyline fill="none" stroke="#00ADEE" stroke-miterlimit="10" stroke-dasharray="6.0258" points="126.5,512.053 126.5,496.983 
					129.209,496.983 				"></polyline>
				
					<line fill="none" stroke="#00ADEE" stroke-miterlimit="10" stroke-dasharray="6.0258" x1="134.778" y1="496.983" x2="299.066" y2="496.983"></line>
				<polyline fill="none" stroke="#00ADEE" stroke-miterlimit="10" stroke-dasharray="6.0258" points="301.851,496.983 
					304.559,496.983 304.559,512.053 				"></polyline>
				
					<line fill="none" stroke="#00ADEE" stroke-miterlimit="10" stroke-dasharray="6.0258" x1="304.559" y1="527.902" x2="304.559" y2="551.669"></line>
			</g>
		</g>
	</g>
	<rect x="421" y="496.983" fill="#E6E6E6" width="181" height="71.136"></rect>
	<g>
		<g>
			<g>
				<polyline fill="none" stroke="#00ADEE" stroke-miterlimit="10" stroke-dasharray="6.5895" points="104.993,471.595 
					104.993,474.978 103.837,474.978 				"></polyline>
				
					<line fill="none" stroke="#00ADEE" stroke-miterlimit="10" stroke-dasharray="6.5895" x1="101.459" y1="474.978" x2="31.34" y2="474.978"></line>
				<polyline fill="none" stroke="#00ADEE" stroke-miterlimit="10" stroke-dasharray="6.5895" points="30.151,474.978 
					28.996,474.978 28.996,471.595 				"></polyline>
				
					<line fill="none" stroke="#00ADEE" stroke-miterlimit="10" stroke-dasharray="6.5895" x1="28.996" y1="464.935" x2="28.996" y2="161.86"></line>
				<polyline fill="none" stroke="#00ADEE" stroke-miterlimit="10" stroke-dasharray="6.5895" points="28.996,158.53 
					28.996,155.148 30.151,155.148 				"></polyline>
				
					<line fill="none" stroke="#00ADEE" stroke-miterlimit="10" stroke-dasharray="6.5895" x1="32.529" y1="155.148" x2="102.648" y2="155.148"></line>
				<polyline fill="none" stroke="#00ADEE" stroke-miterlimit="10" stroke-dasharray="6.5895" points="103.837,155.148 
					104.993,155.148 104.993,158.53 				"></polyline>
				
					<line fill="none" stroke="#00ADEE" stroke-miterlimit="10" stroke-dasharray="6.5895" x1="104.993" y1="165.192" x2="104.993" y2="468.266"></line>
			</g>
		</g>
	</g>
	<g>
		<g>
			<g>
				<polyline fill="none" stroke="#00ADEE" stroke-miterlimit="10" stroke-dasharray="6.6698" points="402.335,471.596 
					402.335,474.978 401.152,474.978 				"></polyline>
				
					<line fill="none" stroke="#00ADEE" stroke-miterlimit="10" stroke-dasharray="6.6698" x1="398.716" y1="474.978" x2="326.878" y2="474.978"></line>
				<polyline fill="none" stroke="#00ADEE" stroke-miterlimit="10" stroke-dasharray="6.6698" points="325.66,474.978 
					324.476,474.978 324.476,471.596 				"></polyline>
				
					<line fill="none" stroke="#00ADEE" stroke-miterlimit="10" stroke-dasharray="6.6698" x1="324.476" y1="464.935" x2="324.476" y2="161.861"></line>
				<polyline fill="none" stroke="#00ADEE" stroke-miterlimit="10" stroke-dasharray="6.6698" points="324.476,158.53 
					324.476,155.148 325.66,155.148 				"></polyline>
				
					<line fill="none" stroke="#00ADEE" stroke-miterlimit="10" stroke-dasharray="6.6698" x1="328.095" y1="155.148" x2="399.934" y2="155.148"></line>
				<polyline fill="none" stroke="#00ADEE" stroke-miterlimit="10" stroke-dasharray="6.6698" points="401.152,155.148 
					402.335,155.148 402.335,158.53 				"></polyline>
				
					<line fill="none" stroke="#00ADEE" stroke-miterlimit="10" stroke-dasharray="6.6698" x1="402.335" y1="165.192" x2="402.335" y2="468.265"></line>
			</g>
		</g>
	</g>
</g>
</svg>