<svg version="1.1" id="cuts" xmlns="http://www.w3.org/2000/svg" xmlns:xlink="http://www.w3.org/1999/xlink" x="0px" y="0px" width="300" height="450" viewBox="0 0 300 450" enable-background="new 0 0 72 108" xml:space="preserve">
<rect fill="#929496" width="72" height="108"></rect>
<g>
	<polyline fill="#FFFFFF" stroke="#ED1C24" stroke-miterlimit="10" points="63,40.5 63,94.5 9,94.5 9,40.5 	"></polyline>
	<path fill="#FFFFFF" stroke="#ED1C24" stroke-miterlimit="10" d="M9,40.5c0-14.912,12.088-27,27-27s27,12.088,27,27"></path>
</g>
<g>
	<polyline fill="none" stroke="#00AEEF" stroke-miterlimit="10" stroke-dasharray="1.44,1.44" points="54.105,43.478 54.105,85.57 
		17.896,85.57 17.896,43.478 	"></polyline>
	<path fill="none" stroke="#00AEEF" stroke-miterlimit="10" stroke-dasharray="1.44,1.44" d="M17.896,43.478
		c0-11.625,8.106-21.047,18.104-21.047c10,0,18.105,9.422,18.105,21.047"></path>
</g>
<g>
	<circle fill-rule="evenodd" clip-rule="evenodd" fill="#010101" cx="36.85" cy="55.184" r="13.006"></circle>
	<circle fill-rule="evenodd" clip-rule="evenodd" fill="#B7D334" cx="36.859" cy="55.255" r="11.823"></circle>
	<g>
		<path fill="#010101" d="M34.329,52.677c-0.166,1.45-0.287,2.612-0.367,3.491l-0.541,0.025c0.009-0.029,0.012-0.062,0.014-0.1
			c0.001-0.066-0.023-0.152-0.072-0.261c-0.051-0.106-0.078-0.174-0.085-0.204c-0.141,0.021-0.274,0.118-0.399,0.289
			c-0.131,0.176-0.244,0.261-0.346,0.26c-0.061-0.002-0.125-0.019-0.198-0.046c-0.095,0.062-0.22,0.09-0.376,0.08
			c-0.138-0.024-0.273-0.045-0.404-0.062c-0.006-0.184-0.186-0.344-0.543-0.48c0.002-0.075-0.034-0.185-0.111-0.326
			c-0.074-0.146-0.111-0.247-0.107-0.305c0-0.066,0.025-0.12,0.079-0.164c-0.009-0.022-0.068-0.159-0.179-0.41
			c-0.078-0.187-0.117-0.345-0.115-0.475c0-0.102,0.027-0.197,0.072-0.287c-0.064-0.623-0.092-1.16-0.084-1.605
			c0.012-0.689,0.109-1.321,0.297-1.897c-0.014-0.089-0.02-0.178-0.019-0.266c0.007-0.46,0.168-0.781,0.479-0.958l0.001-0.145
			c0.31-0.391,0.713-0.673,1.212-0.848c0.302,0.072,0.601,0.14,0.9,0.205c0.335,0.113,0.566,0.313,0.693,0.593
			c0.102,0.062,0.149,0.183,0.148,0.367c-0.004,0.205,0.019,0.337,0.07,0.395l-0.057,0.065c0.059,0.434,0.088,0.697,0.084,0.793
			c-0.004,0.278-0.076,0.476-0.217,0.59c-0.053,0-0.188-0.045-0.404-0.136c-0.053,0.05-0.108,0.074-0.166,0.074
			c-0.031-0.002-0.082-0.017-0.159-0.05c-0.076-0.029-0.142-0.044-0.193-0.045c-0.035,0-0.073,0.006-0.109,0.021
			c-0.004-0.582,0.013-1.012,0.056-1.298c-0.06-0.037-0.116-0.124-0.177-0.255c-0.062-0.132-0.14-0.209-0.233-0.226
			c-0.059,0.075-0.086,0.121-0.078,0.143l-0.199-0.068c-0.177,0.195-0.298,0.533-0.355,1.015c-0.062,0.557-0.137,0.925-0.23,1.109
			c0.081,0.08,0.119,0.195,0.116,0.341c0,0.052-0.009,0.136-0.027,0.253c-0.017,0.114-0.024,0.203-0.025,0.265
			c-0.001,0.065,0.005,0.124,0.019,0.173l-0.134,0.133c0.054,0.25,0.085,0.566,0.095,0.947c-0.006,0.322-0.008,0.643-0.006,0.967
			c-0.008,0-0.07,0.002-0.187,0.008c-0.073-0.003-0.126,0.022-0.155,0.074c0.043-0.006,0.084-0.011,0.119-0.009
			c0.163,0.003,0.289,0.117,0.379,0.343c0.094,0.224,0.17,0.337,0.238,0.339c0.072,0,0.172-0.068,0.299-0.206
			c0.216-0.23,0.33-0.547,0.336-0.948c0.002-0.2-0.018-0.412-0.066-0.639c-0.053,0.027-0.079,0.1-0.08,0.217
			c-0.118,0-0.192,0.022-0.221,0.071c-0.051-0.014-0.074-0.055-0.064-0.12c0.007-0.097,0.014-0.146,0.014-0.155
			c0.088-0.025,0.133-0.064,0.133-0.118c0-0.021-0.014-0.062-0.045-0.121c-0.034-0.059-0.049-0.106-0.049-0.143
			c0-0.03,0.009-0.058,0.023-0.089l0.051-0.429c0.162,0.047,0.51,0.068,1.045,0.062c-0.016,0.037,0.006,0.084,0.064,0.144
			c0.051-0.051,0.104-0.076,0.164-0.073c0.046,0.001,0.111,0.02,0.197,0.059C34.229,52.658,34.292,52.676,34.329,52.677z"></path>
		<path fill="#010101" d="M38.431,56.464c-0.101-0.046-0.21-0.069-0.327-0.073c-0.104,0-0.244,0.021-0.421,0.062
			c-0.198,0.039-0.333,0.062-0.406,0.068c-0.08-0.155-0.134-0.368-0.165-0.64c-0.06-0.397-0.097-0.621-0.111-0.674
			c0.023-0.043,0.034-0.08,0.034-0.108c0.003-0.082-0.061-0.153-0.188-0.219c-0.128-0.062-0.19-0.116-0.189-0.151
			c0-0.043,0.076-0.107,0.225-0.194c-0.038-0.043-0.064-0.136-0.08-0.269c-0.015-0.138-0.049-0.228-0.1-0.272
			c-0.088,0.079-0.236,0.13-0.438,0.152c-0.203,0.021-0.336,0.055-0.401,0.095c0.006,0.572-0.089,0.957-0.285,1.152
			c-0.102-0.022-0.179,0.015-0.232,0.117c-0.074,0.124-0.14,0.194-0.191,0.217l0.066,0.078c-0.06,0.049-0.156,0.07-0.287,0.062
			c-0.206-0.013-0.315-0.017-0.33-0.017l-0.062-0.2l0.716-5.937c0.007-0.375,0.026-0.629,0.058-0.76
			c-0.01-0.33,0.068-0.533,0.23-0.611c0.103,0.066,0.229,0.102,0.384,0.106c0.125,0.002,0.318-0.024,0.583-0.079
			c0.268-0.055,0.448-0.081,0.551-0.079c0.358,0.005,0.516,0.267,0.472,0.779c-0.036,0.409,0.028,0.95,0.191,1.62
			c0.172,0.721,0.255,1.263,0.248,1.622c-0.002,0.109,0.033,0.336,0.024,0.447c-0.154,0.085-0.354,0.138-0.596,0.155
			c-0.213,0.011-0.429,0.024-0.649,0.033c-0.057-0.56-0.156-1.231-0.212-1.781c-0.069-0.662-0.155-1.205-0.257-1.634l-0.341,3.142
			c-0.026,0.27,0.097,0.41,0.368,0.414c0.087,0.001,0.171-0.019,0.253-0.061c0.066-0.022,0.157,0.025,0.273,0.146
			c-0.005,0.228,0.042,0.364,0.136,0.408c0.118-0.078,0.273-0.151,0.466-0.223c0.169-0.062,0.337-0.122,0.498-0.178
			c0.093,0.128,0.152,0.314,0.178,0.564c0.029,0.354,0.054,0.558,0.064,0.615c0.012,0.141,0.072,0.443,0.172,0.906
			c0.076,0.367,0.11,0.664,0.107,0.892C38.458,56.267,38.448,56.369,38.431,56.464z"></path>
		<path fill="#010101" d="M43.497,51.227c-0.007,0.023-0.011,0.151-0.007,0.384c-0.004,0.193-0.026,0.334-0.073,0.429
			c-0.055,0.145-0.083,0.356-0.088,0.626c-0.001,0.058,0.002,0.149,0.008,0.273c-0.003,0.127-0.006,0.218-0.006,0.276
			c-0.009,0.461-0.086,0.797-0.237,1.005c0.013,0.12,0.019,0.236,0.017,0.355c-0.005,0.366-0.131,0.858-0.378,1.479
			c-0.066,0.021-0.12,0.031-0.168,0.03c-0.086-0.002-0.148-0.055-0.188-0.154c-0.039-0.099-0.076-0.193-0.108-0.28
			c0.021-0.564,0.01-1.386-0.037-2.465l0.068-0.065c-0.05-0.19-0.071-0.404-0.066-0.638c0.004-0.169,0.023-0.414,0.061-0.736
			c0.039-0.323,0.059-0.565,0.062-0.727c0.003-0.101,0-0.2-0.004-0.296c-0.253,0.605-0.431,1.628-0.539,3.071l-0.089,0.219
			c-0.032,0.073-0.095,0.112-0.19,0.118c-0.027-0.052-0.056-0.077-0.086-0.077c-0.021-0.001-0.061,0.024-0.117,0.079
			c-0.057,0.053-0.104,0.076-0.139,0.069l-0.144,0.128c0.063,0.083,0.201,0.094,0.416,0.031c0.169-0.051,0.254,0.015,0.261,0.191
			c0.005,0.148-0.035,0.342-0.121,0.592c-0.085,0.247-0.126,0.435-0.13,0.558c-0.001,0.089,0.009,0.177,0.028,0.264l-0.761,0.12
			c-0.069-0.148-0.124-0.396-0.158-0.744c-0.033-0.349-0.086-0.597-0.158-0.745c0.044-0.052,0.068-0.104,0.069-0.164
			c0.002-0.052-0.019-0.131-0.061-0.233s-0.069-0.18-0.073-0.232c-0.006-0.079-0.032-0.274-0.079-0.582
			c-0.032-0.251-0.047-0.446-0.044-0.584c0-0.074,0.006-0.14,0.013-0.2c0-0.049-0.028-0.126-0.084-0.227
			c-0.057-0.099-0.085-0.171-0.084-0.214c0.002-0.037,0.016-0.071,0.045-0.1c-0.049-0.06-0.068-0.16-0.062-0.309
			c0.011-0.146-0.01-0.249-0.06-0.308c-0.108,0.282-0.163,0.667-0.172,1.151c-0.007,0.673-0.013,1.064-0.021,1.166l0.076,0.067
			l-0.077,0.066c0.054,0.263,0.077,0.601,0.07,1.011c-0.02,0.74-0.029,1.085-0.029,1.034c-0.104,0.094-0.247,0.138-0.431,0.136
			c-0.228-0.005-0.382,0.015-0.463,0.058c-0.093-0.162-0.138-0.372-0.133-0.63c0.004-0.197,0.037-0.438,0.1-0.723
			c-0.1-0.186-0.146-0.443-0.14-0.772c0.001-0.081,0.009-0.235,0.029-0.463c0.011-0.182,0.014-0.318,0.008-0.406
			c0.072-0.034,0.111-0.074,0.111-0.118c0-0.028-0.021-0.081-0.07-0.15c-0.046-0.069-0.069-0.124-0.069-0.16
			c0.004-0.044,0.031-0.087,0.092-0.132l-0.237-3.557c0.143-0.092,0.369-0.136,0.684-0.131c0.346,0.013,0.58-0.005,0.707-0.055
			c0.021-0.014,0.047-0.02,0.076-0.02s0.063,0.017,0.104,0.051c0.039,0.032,0.067,0.051,0.082,0.051
			c0.028,0,0.055-0.022,0.077-0.065l0.205,0.202c0.07,0.257,0.134,0.757,0.196,1.498c0.062,0.64,0.159,1.123,0.295,1.447
			c0.179-0.649,0.327-1.192,0.444-1.631l0.238-1.742l1.705-0.036c0.007,0.095,0.028,0.605,0.071,0.9
			c0.04,0.256,0.06,0.466,0.059,0.627c-0.003,0.183-0.031,0.347-0.086,0.494c0.058,0.083,0.086,0.185,0.083,0.307
			C43.585,51.046,43.555,51.147,43.497,51.227z"></path>
		<path fill="#010101" d="M46.994,55.081V55.07c-0.045,0.095-0.073,0.204-0.08,0.328c-0.01,0.081-0.014,0.193-0.009,0.341
			c0.006,0.168,0.009,0.287,0.006,0.351c-0.058,0-0.294-0.004-0.703-0.01c-0.249-0.005-0.473,0.018-0.673,0.065l-0.204-0.224
			c-0.062,0.057-0.084,0.104-0.068,0.143c-0.036-0.01-0.206-0.01-0.507-0.01c-0.233-0.004-0.41-0.028-0.524-0.074
			c-0.121,0.123-0.261,0.12-0.419-0.007c-0.059-0.045-0.062-0.12-0.019-0.225c0.047-0.108,0.031-0.186-0.04-0.238
			c0.012-0.234,0.044-0.598,0.095-1.087c0.053-0.439,0.081-0.783,0.085-1.033c0.003-0.338-0.019-0.661-0.075-0.969
			c0.085-0.08,0.177-0.119,0.279-0.115c0.119,0,0.256,0.057,0.415,0.17c0.224,0.156,0.343,0.237,0.348,0.237l0.066,0.078
			c0.007-0.022,0.045-0.137,0.117-0.35c0.035-0.138,0.093-0.228,0.166-0.272l0.065,0.069c0.03-0.015,0.128-0.083,0.29-0.206
			c0.125-0.087,0.229-0.289,0.301-0.288c0.083,0.001,0.157,0.046,0.23,0.135c0.124,0.068,0.2,0.334,0.238,0.467
			c0.041,0.138,0.075,0.273,0.11,0.406c-0.33,0.008-0.602,0-0.814-0.024c-0.053,0.079-0.124,0.091-0.222,0.033
			c-0.092-0.056-0.162-0.048-0.207,0.023c-0.003,0.133-0.008,0.373-0.015,0.716c-0.011,0.307-0.014,0.55-0.009,0.726
			c0,0.271,0.018,0.52,0.051,0.746c0.062,0.004,0.336,0.009,0.836,0.017C46.45,54.993,46.746,55.025,46.994,55.081z M47.016,49.812
			c-0.063,0.007-0.137,0.009-0.216,0.007c-0.172-0.002-0.392-0.029-0.673-0.077c-0.343-0.049-0.551-0.079-0.625-0.087
			c-0.104,0.152-0.159,0.368-0.165,0.646c-0.012,0.603-0.012,0.862-0.003,0.78c0.102,0.062,0.151,0.173,0.151,0.333
			c-0.015,0.221-0.015,0.335-0.008,0.342c-0.052,0.02-0.079,0.094-0.08,0.219c-0.079-0.031-0.164-0.091-0.251-0.181
			c-0.114-0.112-0.177,0.266-0.167,0.173l-0.072,0.227l-0.064-0.068c-0.058,0.008-0.156-0.024-0.299-0.093
			c-0.143-0.068-0.241-0.13-0.301-0.193c0.003-0.116,0.022-0.18,0.06-0.196l-0.139-0.156l-0.069,0.099
			c-0.083-0.765-0.062-2.193,0.038-2.999c0.278,0.049,0.587,0.081,0.925,0.093c0.226,0.011,0.544,0.017,0.955,0.017
			c0.469,0,0.809,0.001,1.011,0.006c0.089,0.082,0.13,0.188,0.128,0.319c-0.001,0.082-0.023,0.212-0.066,0.392
			C47.041,49.592,47.019,49.726,47.016,49.812z"></path>
	</g>
	<g>
		<path fill="#010101" d="M34.658,61.731v-0.006c0,0.005-0.019,0.166-0.057,0.487c-0.019,0.194-0.065,0.349-0.143,0.462
			l-0.048-0.041c-0.088,0.188-0.21,0.302-0.363,0.343c-0.072,0.077-0.18,0.118-0.316,0.128c-0.082,0.005-0.273-0.02-0.571-0.073
			c-0.144-0.089-0.222-0.138-0.236-0.148c-0.091-0.067-0.134-0.137-0.128-0.206c-0.088-0.087-0.21-0.248-0.26-0.448
			c-0.055-0.221-0.088-0.231-0.139-0.311c-0.084,0.062-0.113-0.067-0.162-0.146l0.043-0.033c-0.027-0.02-0.039-0.043-0.043-0.065
			c-0.001-0.019,0.008-0.043,0.023-0.078c0.014-0.032,0.023-0.06,0.021-0.073c-0.002-0.029-0.02-0.054-0.05-0.073
			c0.034-0.174,0.063-0.434,0.091-0.779c0.059-0.032,0.087-0.093,0.084-0.185c-0.003-0.089,0.01-0.148,0.037-0.178
			c0.141-0.282,0.367-0.472,0.684-0.569c0.017,0.003,0.101,0,0.253-0.005c0.104-0.002,0.183,0.008,0.236,0.029
			c0.093-0.019,0.187,0.006,0.28,0.066c0.083,0.063,0.167,0.123,0.246,0.185c0.153,0.165,0.234,0.354,0.247,0.562
			c0.005,0.069,0,0.145-0.013,0.219c-0.113-0.003-0.192,0.072-0.24,0.226l-0.438,0.04c-0.048-0.066-0.075-0.156-0.081-0.267
			c-0.001-0.038-0.001-0.095,0-0.167c0.002-0.074,0.002-0.13,0-0.168c-0.008-0.114-0.033-0.204-0.082-0.273l-0.13,0.076
			c-0.056-0.021-0.083-0.052-0.085-0.093c0-0.016,0.002-0.036,0.006-0.062c0.005-0.025,0.008-0.044,0.006-0.055
			c-0.002-0.046-0.043-0.072-0.12-0.084c-0.054,0.497-0.071,1.005-0.048,1.526c0.014,0.018,0.055,0.029,0.125,0.039
			c0.057,0.004,0.086,0.021,0.088,0.05c0,0.011-0.004,0.023-0.012,0.042l-0.043,0.034c0.023,0.036,0.038,0.09,0.041,0.155
			c0.002,0.033,0.002,0.087-0.003,0.157c-0.003,0.074-0.006,0.128-0.003,0.161c0.006,0.104,0.031,0.184,0.078,0.237
			c-0.005,0.076,0.027,0.13,0.094,0.156c0.041-0.016,0.079-0.026,0.115-0.026c0.133-0.01,0.227,0.064,0.279,0.219
			c0,0.003,0,0.029-0.002,0.079c0.002,0.028,0.016,0.044,0.041,0.054c0.061-0.034,0.088-0.098,0.088-0.188
			c-0.002-0.104,0.013-0.171,0.039-0.201c-0.008-0.049-0.036-0.118-0.086-0.21c-0.051-0.092-0.078-0.162-0.08-0.216
			c-0.004-0.055,0.014-0.108,0.049-0.158c-0.031-0.01-0.045-0.031-0.044-0.062c0.003-0.049,0.003-0.074,0.003-0.077
			C34.168,61.68,34.413,61.677,34.658,61.731z"></path>
		<path fill="#010101" d="M36.648,62.14h-0.004c-0.026,0.049-0.035,0.123-0.026,0.216c0.013,0.133,0.02,0.199,0.02,0.203
			c-0.02,0.007-0.048,0-0.08-0.029c-0.052,0.02-0.077,0.052-0.074,0.096c0,0.009,0.003,0.019,0.008,0.034
			c0,0.02,0.003,0.032,0.003,0.041c0.002,0.032-0.008,0.061-0.031,0.079c-0.059-0.033-0.135-0.054-0.229-0.062
			c-0.097-0.009-0.188-0.017-0.272-0.027c0-0.439-0.061-0.872-0.178-1.294c0,0.003-0.002-0.039-0.008-0.131
			c0-0.065-0.015-0.11-0.045-0.139l-0.04,0.037c0-0.006,0.015-0.019,0.04-0.037c0.028-0.021,0.041-0.039,0.04-0.059
			c0-0.009-0.003-0.021-0.01-0.03l-0.042-0.033c-0.076,0.026-0.11,0.087-0.105,0.183c0.003,0.063-0.022,0.11-0.076,0.138
			c0.021,0.014,0.033,0.033,0.034,0.056c0,0.013,0,0.031-0.008,0.053c-0.004,0.023-0.006,0.042-0.004,0.055
			c0,0.03,0.018,0.053,0.046,0.069c0.001,0.02,0.011,0.194,0.031,0.525c0.012,0.211,0.006,0.388-0.018,0.536l0.003,0.082
			c-0.029,0-0.06,0-0.098,0.001c-0.039,0.001-0.097,0.009-0.173,0.017c-0.074,0.01-0.13,0.015-0.168,0.018
			c-0.149,0.01-0.252-0.018-0.312-0.073l-0.062-1.812c-0.029-0.088-0.05-0.215-0.058-0.372l-0.022-0.349
			c-0.012-0.173-0.033-0.304-0.064-0.396c0.013-0.063,0.068-0.098,0.163-0.103c0.062-0.003,0.141,0.005,0.244,0.026
			c0.048-0.022,0.112-0.038,0.197-0.042c0.023-0.002,0.062-0.002,0.115-0.002c0.057-0.003,0.097-0.006,0.12-0.007
			c0.158-0.009,0.261-0.057,0.312-0.146c0.074,0,0.151,0.022,0.239,0.069c0.082,0.047,0.159,0.074,0.225,0.074
			c0.171,0.101,0.262,0.269,0.275,0.5c0.003,0.053-0.018,0.257-0.061,0.618l-0.295,0.256c0.052,0.092,0.111,0.29,0.182,0.597
			C36.439,61.832,36.529,62.02,36.648,62.14z M36.105,60.078l0.006,0.004c0.006,0.022,0.003-0.058-0.006-0.238
			c-0.006-0.086-0.038-0.149-0.098-0.189c-0.033,0.05,0.004,0.07-0.011,0.18c-0.017,0.109-0.079,0.079-0.117,0.127
			c-0.102,0-0.124,0.061-0.146-0.035c-0.046-0.157-0.082-0.145-0.085-0.146l-0.043,0.025c-0.015,0.013-0.031,0.028-0.051,0.048
			c-0.021,0.017-0.039,0.022-0.061,0.017c0.003,0.021-0.007,0.053-0.026,0.092c-0.021,0.041-0.03,0.07-0.029,0.088
			c0.002,0.028,0.024,0.049,0.07,0.063c-0.008,0.064-0.009,0.134-0.006,0.201c0.002,0.041,0.011,0.13,0.028,0.269
			c0.018,0.108,0.024,0.203,0.023,0.282c0.033,0,0.067,0,0.102-0.001c0.141-0.009,0.23-0.065,0.273-0.167
			c0.015-0.031,0.031-0.14,0.048-0.326C35.993,60.233,36.036,60.134,36.105,60.078z"></path>
		<path fill="#010101" d="M38.932,62.843c-0.057-0.016-0.118-0.021-0.184-0.019c-0.056,0.003-0.132,0.019-0.227,0.044
			c-0.108,0.023-0.183,0.039-0.223,0.046c-0.047-0.066-0.084-0.158-0.111-0.275c-0.047-0.173-0.075-0.271-0.084-0.293
			c0.012-0.019,0.017-0.037,0.015-0.05c0-0.033-0.039-0.064-0.111-0.089c-0.07-0.022-0.108-0.044-0.108-0.059
			c0-0.021,0.038-0.051,0.115-0.095c-0.021-0.019-0.038-0.057-0.052-0.117c-0.012-0.058-0.034-0.096-0.063-0.114
			c-0.048,0.039-0.124,0.067-0.233,0.084c-0.109,0.018-0.184,0.036-0.218,0.06c0.021,0.25,0,0.693-0.101,0.786
			c-0.056-0.006-0.098,0.014-0.123,0.063c-0.038,0.055-0.07,0.089-0.097,0.102l0.039,0.031c-0.032,0.025-0.083,0.036-0.157,0.038
			c-0.11,0.004-0.173,0.006-0.179,0.006l-0.043-0.086l0.171-2.915c-0.011-0.163-0.009-0.274,0.002-0.334
			c-0.015-0.146,0.021-0.238,0.106-0.278c0.06,0.025,0.129,0.035,0.214,0.03c0.066-0.002,0.175-0.021,0.317-0.057
			c0.143-0.034,0.242-0.053,0.299-0.057c0.197-0.012,0.291,0.098,0.283,0.323c-0.005,0.184,0.05,0.418,0.162,0.707
			c0.12,0.311,0.186,0.546,0.194,0.705c0.003,0.047,0.067,0.15,0.065,0.199c-0.082,0.044-0.19,0.075-0.322,0.094
			c-0.116,0.013-0.233,0.025-0.353,0.038c-0.052-0.244-0.167-0.539-0.216-0.779c-0.062-0.289-0.128-0.525-0.199-0.71l-0.076,1.396
			c-0.003,0.12,0.067,0.177,0.216,0.168c0.049-0.003,0.095-0.014,0.138-0.038c0.035-0.01,0.087,0.009,0.154,0.056
			c0.007,0.1,0.035,0.159,0.089,0.176c0.062-0.039,0.146-0.077,0.247-0.117c0.09-0.033,0.18-0.067,0.267-0.097
			c0.056,0.052,0.093,0.131,0.117,0.239c0.029,0.155,0.049,0.244,0.057,0.271c0.011,0.059,0.055,0.19,0.125,0.391
			c0.055,0.158,0.084,0.291,0.089,0.39C38.938,62.756,38.937,62.8,38.932,62.843z"></path>
		<path fill="#010101" d="M40.595,59.539h0.008c-0.05,0.068-0.11,0.081-0.186,0.039c-0.017-0.004-0.09,0.001-0.219,0.013
			c-0.107,0.006-0.185,0-0.234-0.017c-0.013,0.003-0.036,0.014-0.071,0.036c-0.036,0.024-0.06,0.034-0.076,0.037
			c-0.024,0.001-0.037-0.02-0.04-0.062c0-0.006-0.003-0.033-0.006-0.082c-0.001-0.032-0.018-0.053-0.045-0.065l-0.076,0.059
			c-0.023,0.018-0.035,0.035-0.034,0.056c0.003,0.015,0.016,0.038,0.041,0.067s0.043,0.051,0.047,0.062
			c0,0.013,0.01,0.156,0.024,0.438c0.005,0.178,0.04,0.319,0.099,0.426c0.016-0.017,0.052-0.026,0.108-0.026
			c0.061-0.003,0.099-0.016,0.117-0.04c0.038,0.036,0.102,0.037,0.19,0.006c0.09-0.029,0.152-0.019,0.193,0.031l-0.012,0.429
			c-0.038-0.004-0.092-0.022-0.159-0.054c-0.022,0.062-0.062,0.104-0.121,0.119c-0.024,0.008-0.092,0.014-0.206,0.021
			c0.004-0.02-0.013-0.039-0.053-0.061c-0.108,0.053-0.147,0.177-0.122,0.373c0.004-0.02,0.007,0.014,0.014,0.102
			c0.003,0.055-0.009,0.095-0.036,0.118c-0.068,0.012-0.155-0.003-0.26-0.042c-0.104-0.044-0.181-0.063-0.227-0.061
			c-0.018,0.001-0.036,0.003-0.053,0.008l-0.112,0.036l-0.181-1.959l-0.021-0.376c0.148-0.049,0.336-0.081,0.556-0.094
			c0.172-0.012,0.4-0.009,0.679,0.004c0.018-0.038,0.053,0.01,0.091,0.009c0.021-0.002,0.052,0,0.092,0.007
			c0.039,0.006,0.07,0.007,0.09,0.006c0.024,0,0.045-0.005,0.065-0.013l0.029-0.031c0.082,0.025,0.126,0.067,0.127,0.128
			c0.004,0.027-0.004,0.071-0.021,0.133c-0.016,0.062-0.023,0.111-0.022,0.143C40.575,59.49,40.583,59.518,40.595,59.539z
			 M39.89,62.81c-0.043,0.021-0.109,0.035-0.196,0.041c-0.117,0.007-0.187,0.015-0.21,0.018c-0.013-0.013-0.028-0.002-0.056-0.104
			c-0.016-0.066-0.06-0.1-0.125-0.095c-0.018,0-0.036,0.003-0.062,0.007l-0.108,0.007l-0.056-0.992
			c0.059-0.028,0.132-0.046,0.219-0.051s0.163,0.003,0.227,0.024c-0.002,0.036,0.049,0.052,0.155,0.045l0.112-0.007
			C39.857,61.98,39.901,62.485,39.89,62.81z"></path>
		<path fill="#010101" d="M43.008,59.623l0.006,0.005c-0.06-0.005-0.239,0.008-0.38,0.026c-0.119,0.013-0.208,0.016-0.271,0.007
			c-0.058,0.038-0.08,0.092-0.064,0.16l0.038,0.021c-0.031,0.028-0.041,0.05-0.031,0.065l0.031,0.031
			c-0.008,0.577-0.011,0.895-0.005,0.955c0.009,0.152,0.025,0.285,0.053,0.4c-0.024,0.073-0.033,0.157-0.027,0.25
			c0.003,0.062,0.016,0.158,0.043,0.292s0.061,0.571,0.064,0.64c0.003,0.051,0.003,0.102-0.004,0.146
			c-0.054,0.021-0.116,0.035-0.178,0.04c-0.109,0.005-0.225-0.018-0.349-0.068c-0.015,0.015-0.034,0.028-0.053,0.045
			c-0.019,0.016-0.025,0.033-0.014,0.051c-0.04,0.012-0.097-0.004-0.168-0.048c-0.037-0.583-0.142-1.768-0.295-2.966
			c-0.057,0.049-0.155,0.007-0.26,0.021c-0.124,0.013-0.246-0.007-0.292,0.016c-0.061-0.064-0.048-0.083-0.053-0.19
			c-0.008-0.103-0.042-0.358-0.016-0.466c0.008-0.022,0.233-0.01,0.366-0.02c0.179-0.011,0.22,0.031,0.231,0.031
			c0.014-0.022,0.102-0.012,0.168-0.016c0.042,0.021,0.084-0.019,0.087,0.012c0.003,0.02,0,0.141-0.014,0.176
			c-0.015,0.035-0.021,0.061-0.02,0.076c0.002,0.038,0.03-0.017,0.096,0.005c0.071-0.002,0.146-0.005,0.222-0.008
			c0.087,0.008,0.186-0.022,0.176,0.048c0.016-0.021,0.024,0.016,0.146-0.033c0.094-0.041,0.148-0.148,0.13-0.219
			c-0.01-0.041,0.044-0.068,0.01-0.047c0.045-0.025,0.003-0.01,0.053-0.028c0.147,0.016,0.232,0,0.261-0.003
			c0.06-0.004,0.21,0.037,0.251,0.015c0.032,0.057,0.05,0.232,0.05,0.328C43.003,59.53,43.007,59.613,43.008,59.623z"></path>
		<path fill="#010101" d="M44.96,61.646l-0.001-0.003c-0.021,0.044-0.033,0.094-0.033,0.146c-0.003,0.039,0,0.088,0.009,0.153
			c0.01,0.073,0.013,0.125,0.016,0.153c-0.034,0.003-0.161,0.009-0.387,0.024c-0.136,0.007-0.259,0.025-0.367,0.055l-0.118-0.092
			c-0.032,0.031-0.04,0.051-0.032,0.066c-0.019-0.003-0.113,0.003-0.277,0.016c-0.13,0.009-0.226,0.004-0.292-0.013
			c-0.061,0.061-0.136,0.063-0.229,0.014c-0.031-0.017-0.038-0.051-0.018-0.099c0.021-0.049,0.012-0.083-0.031-0.102
			c0-0.104,0.006-0.266,0.015-0.484c0.014-0.195,0.017-0.348,0.013-0.458c-0.01-0.149-0.035-0.289-0.075-0.425
			c0.044-0.037,0.091-0.058,0.148-0.061c0.065-0.005,0.143,0.016,0.231,0.058c0.13,0.062,0.195,0.092,0.2,0.092l0.038,0.031
			c0.005-0.009,0.021-0.062,0.051-0.16c0.018-0.061,0.046-0.104,0.085-0.124l0.037,0.025c0.015-0.006,0.064-0.041,0.152-0.099
			c0.063-0.047,0.109-0.202,0.152-0.204c0.042-0.003,0.084,0.014,0.127,0.051c0.071,0.025,0.127,0.203,0.15,0.261
			c0.025,0.058,0.051,0.117,0.075,0.174c-0.18,0.016-0.329,0.022-0.444,0.021c-0.028,0.037-0.068,0.044-0.12,0.024
			c-0.055-0.022-0.093-0.016-0.114,0.019c0.004,0.059,0.009,0.162,0.019,0.314c0.003,0.137,0.008,0.242,0.018,0.319
			c0.011,0.121,0.028,0.23,0.054,0.33c0.034-0.005,0.187-0.013,0.459-0.027C44.659,61.632,44.822,61.632,44.96,61.646z
			 M44.776,59.365c-0.038,0.006-0.078,0.008-0.123,0.014c-0.092,0.003-0.213,0.002-0.371-0.008
			c-0.188-0.011-0.304-0.013-0.343-0.016c-0.053,0.073-0.06,0.128-0.053,0.252c0.016,0.266,0.025,0.38,0.027,0.344
			c0.057,0.023,0.087,0.07,0.09,0.142c0.003,0.098,0.006,0.146,0.012,0.148c-0.03,0.012-0.04,0.047-0.037,0.102
			c-0.045-0.011-0.093-0.035-0.144-0.071c-0.066-0.044-0.089,0.115-0.085,0.074l-0.032,0.099l-0.038-0.028
			c-0.03,0.005-0.086-0.005-0.17-0.029c-0.077-0.025-0.134-0.05-0.168-0.075c-0.002-0.049,0.005-0.078,0.025-0.087l-0.084-0.063
			l-0.033,0.045c-0.071-0.331-0.119-0.92-0.093-1.278c0.154,0.01,0.335-0.015,0.52-0.024c0.123-0.004,0.299-0.014,0.523-0.029
			c0.26-0.019,0.441-0.032,0.556-0.038c0.05,0.034,0.076,0.079,0.079,0.139c0.002,0.035-0.004,0.093-0.021,0.172
			C44.793,59.226,44.771,59.324,44.776,59.365z"></path>
		<path fill="#010101" d="M46.964,61.303l-0.004,0.003c-0.024,0.049-0.033,0.121-0.024,0.216c0.013,0.13,0.017,0.197,0.017,0.2
			c-0.02,0.009-0.045,0-0.078-0.028c-0.053,0.019-0.074,0.051-0.074,0.096c0,0.011,0.003,0.018,0.008,0.034
			c0.002,0.02,0.002,0.032,0.004,0.038c0.001,0.037-0.009,0.062-0.034,0.081c-0.058-0.031-0.133-0.053-0.229-0.062
			c-0.095-0.009-0.187-0.019-0.273-0.025c0-0.441-0.058-0.874-0.174-1.296c0,0.006-0.006-0.039-0.01-0.131
			c0-0.066-0.016-0.108-0.042-0.137l-0.041,0.036c0-0.007,0.011-0.02,0.041-0.039c0.023-0.02,0.039-0.038,0.036-0.058
			c-0.001-0.01-0.003-0.021-0.006-0.028l-0.046-0.032c-0.073,0.023-0.111,0.083-0.102,0.18c0.003,0.066-0.025,0.11-0.078,0.138
			c0.02,0.014,0.031,0.033,0.031,0.056c0.003,0.013,0,0.031-0.006,0.053c-0.003,0.024-0.006,0.042-0.006,0.055
			c0.003,0.031,0.019,0.053,0.049,0.071c0,0.02,0.01,0.193,0.027,0.524c0.013,0.209,0.008,0.389-0.015,0.535l0.005,0.083
			c-0.029-0.003-0.061-0.003-0.097,0.003c-0.041,0-0.1,0.007-0.177,0.014c-0.073,0.011-0.13,0.018-0.168,0.019
			c-0.148,0.009-0.253-0.017-0.312-0.074l-0.063-1.812c-0.028-0.089-0.049-0.213-0.057-0.371l-0.021-0.349
			c-0.014-0.172-0.035-0.305-0.063-0.396c0.012-0.062,0.065-0.097,0.162-0.103c0.061-0.004,0.142,0.004,0.244,0.024
			c0.046-0.021,0.11-0.036,0.195-0.041c0.025,0,0.064-0.002,0.114-0.002c0.059-0.003,0.099-0.006,0.122-0.007
			c0.157-0.009,0.26-0.057,0.312-0.144c0.072,0,0.15,0.022,0.234,0.068c0.087,0.047,0.165,0.072,0.229,0.074
			c0.171,0.102,0.263,0.268,0.274,0.501c0.004,0.052-0.018,0.258-0.06,0.617l-0.294,0.255c0.047,0.092,0.109,0.289,0.181,0.6
			C46.757,60.995,46.847,61.183,46.964,61.303z M46.421,59.241l0.008,0.005c0.006,0.023,0.002-0.058-0.008-0.236
			c-0.005-0.089-0.037-0.151-0.097-0.19c-0.032,0.046-0.041-0.062-0.055,0.046c-0.017,0.111-0.041,0.189-0.08,0.236
			c-0.1,0-0.125-0.062-0.184-0.145c-0.037-0.054-0.056-0.007-0.056-0.011l-0.027,0.022c-0.016,0.016-0.031,0.029-0.05,0.048
			c-0.021,0.017-0.04,0.022-0.061,0.017c0,0.019-0.01,0.051-0.028,0.092c-0.021,0.043-0.031,0.069-0.028,0.088
			c0.001,0.028,0.025,0.049,0.07,0.062c-0.008,0.066-0.011,0.136-0.007,0.208c0.001,0.038,0.01,0.125,0.026,0.265
			c0.019,0.109,0.027,0.204,0.023,0.281c0.036,0.001,0.071,0.001,0.103-0.001c0.14-0.009,0.233-0.063,0.275-0.167
			c0.014-0.029,0.028-0.141,0.047-0.323C46.311,59.395,46.355,59.299,46.421,59.241z"></path>
	</g>
	<g>
		<path fill="#010101" d="M26.977,52.947v0.004c-0.02,0.169-0.025,0.286-0.02,0.349c-0.025,0.009-0.059,0.014-0.1,0.007
			c-0.054-0.01-0.086-0.014-0.094-0.012c-0.022,0-0.043,0.008-0.057,0.021c-0.031-0.02-0.055-0.031-0.065-0.024
			c-0.032,0.017-0.048,0.044-0.046,0.08c0,0.015,0.006,0.04,0.018,0.074c0.012,0.037,0.018,0.065,0.018,0.08
			c0.001,0.026-0.004,0.063-0.015,0.112c-0.011,0.051-0.015,0.092-0.015,0.124c0.004,0.038,0.012,0.099,0.025,0.181
			c0.015,0.08,0.023,0.142,0.024,0.182c-0.017,0.082-0.022,0.162-0.019,0.243c0.004,0.1,0.033,0.232,0.083,0.402
			c0.009,0.002,0.017,0.002,0.025,0.002c0.021-0.002,0.046-0.016,0.073-0.043c0.029-0.026,0.053-0.043,0.072-0.043
			c0.014-0.002,0.031,0,0.049,0.01c0.053,0.169,0.08,0.281,0.082,0.331c0.003,0.022,0.003,0.049,0,0.073
			c-0.078,0.021-0.135-0.006-0.165-0.078c0.003-0.021-0.009-0.043-0.034-0.064L26.73,55.05c0.085,0.013,0.12,0.081,0.103,0.196
			c-0.008,0.024-0.025,0.039-0.057,0.04c-0.05,0-0.072,0-0.07,0l-0.072-0.13l-0.027,0.037c-0.024-0.062-0.053-0.089-0.086-0.087
			c-0.018,0-0.047,0.015-0.09,0.043c-0.046,0.028-0.082,0.044-0.112,0.046c-0.022,0.001-0.046-0.006-0.071-0.02
			c0-0.035-0.006-0.069-0.012-0.109c-0.004-0.037-0.025-0.06-0.059-0.073c0-0.091,0.002-0.328,0.008-0.717
			c0.003-0.293,0-0.53-0.008-0.713c-0.006-0.077-0.011-0.148-0.018-0.223c-0.014-0.022-0.031-0.034-0.046-0.033
			c-0.011,0.001-0.027,0.014-0.05,0.038c-0.026,0.026-0.047,0.036-0.064,0.032c-0.002-0.026-0.016-0.075-0.038-0.141
			c-0.028-0.064-0.04-0.11-0.043-0.139c-0.003-0.05,0.017-0.093,0.058-0.13l0.102,0.024c0.041-0.056,0.057-0.159,0.051-0.292
			c-0.002-0.028-0.006-0.068-0.01-0.126c-0.007-0.056-0.011-0.099-0.013-0.125c-0.01-0.225,0.06-0.343,0.208-0.35
			c0.055-0.003,0.125,0.007,0.205,0.03l0.096,0.025c0.008,0.039,0.014,0.078,0.016,0.118c0.003,0.056,0,0.137-0.008,0.247
			c-0.008,0.106-0.01,0.184-0.008,0.233c0.003,0.081,0.018,0.151,0.043,0.216c0.022-0.001,0.06-0.018,0.111-0.04
			c0.047-0.025,0.085-0.038,0.107-0.038C26.917,52.889,26.952,52.906,26.977,52.947z M26.669,53.264l-0.005-0.104l-0.031-0.029
			L26.669,53.264z"></path>
		<path fill="#010101" d="M28.184,52.633l0.004-0.001c-0.011,0.08-0.021,0.159-0.036,0.239c-0.015,0.091-0.042,0.162-0.077,0.216
			c-0.006-0.004-0.043-0.019-0.109-0.054C27.92,53.009,27.88,53,27.846,53.006c-0.026,0.171-0.041,0.406-0.044,0.702
			c-0.003,0.378-0.005,0.607-0.009,0.686c-0.046-0.004-0.078,0.011-0.1,0.042c-0.022,0.032-0.042,0.063-0.061,0.099
			c-0.007,0.019-0.013,0.032-0.012,0.048c0.001,0.025,0.021,0.046,0.061,0.068c0.041,0.021,0.061,0.046,0.061,0.071
			c-0.018,0.062-0.054,0.097-0.109,0.098c-0.025,0.001-0.072-0.006-0.139-0.023c-0.064-0.018-0.11-0.025-0.137-0.023l-0.063-1.256
			c0.024-0.033,0.036-0.056,0.033-0.066l-0.037-0.026c0.003-0.052,0.005-0.316,0.009-0.789c0.001-0.319,0.014-0.579,0.037-0.776
			c-0.004,0,0.087-0.006,0.27-0.019c0.114-0.005,0.189,0.028,0.223,0.095c0,0.065-0.008,0.174-0.02,0.328
			c-0.014,0.14-0.02,0.249-0.016,0.326c0.006,0.094,0.021,0.179,0.045,0.252C27.936,52.709,28.053,52.637,28.184,52.633z
			 M28.62,52.901c0.009,0.115,0.016,0.228,0.021,0.341c0.025,0.487,0.018,1.006-0.022,1.56c-0.044,0.037-0.106,0.046-0.194,0.024
			s-0.152-0.013-0.191,0.024c-0.049-0.065-0.078-0.18-0.088-0.352c-0.012-0.247-0.019-0.372-0.019-0.381
			c-0.011-0.617,0.048-1.112,0.181-1.495C28.459,52.663,28.561,52.756,28.62,52.901z"></path>
		<path fill="#010101" d="M30.16,53.536c-0.019,0.039-0.025,0.083-0.022,0.123c0.001,0.048,0.002,0.089,0.006,0.132
			c-0.005,0.034-0.015,0.068-0.029,0.105c-0.028-0.007-0.051-0.011-0.068-0.009c-0.02,0-0.041,0.008-0.062,0.021
			c-0.02,0.017-0.038,0.022-0.048,0.022c-0.019,0.003-0.043-0.004-0.073-0.017l-0.203-0.299c0.006,0.087,0.025,0.166,0.06,0.231
			c0.019,0.034,0.033,0.069,0.049,0.103c-0.119,0.021-0.187,0.025-0.202,0.01l-0.027,0.038l-0.072-0.095
			c-0.054,0.067-0.068,0.166-0.037,0.296c0.036,0.143,0.037,0.245,0.006,0.309c0.045,0.065,0.097,0.097,0.16,0.094
			c0.026-0.003,0.048-0.01,0.068-0.028c0.027-0.074,0.056-0.146,0.086-0.217c0.043-0.089,0.09-0.135,0.143-0.136
			c0.041-0.002,0.09,0.02,0.144,0.062c0.065,0.025,0.1,0.055,0.103,0.093c0,0.024-0.014,0.061-0.047,0.113
			c-0.029,0.054-0.045,0.096-0.044,0.124c0.003,0.013,0.004,0.021,0.007,0.031c-0.042,0.031-0.08,0.078-0.113,0.142
			c-0.033,0.064-0.079,0.107-0.133,0.133c-0.049,0.043-0.092,0.068-0.133,0.071c-0.032,0-0.08-0.025-0.145-0.076
			s-0.124-0.074-0.18-0.071c-0.022-0.053-0.08-0.109-0.172-0.171c-0.09-0.063-0.148-0.132-0.169-0.204
			c0.001,0.006,0-0.019-0.001-0.07c-0.004-0.028-0.016-0.049-0.04-0.056l0.034-0.033c-0.046,0-0.067-0.025-0.07-0.076
			c-0.001-0.005-0.001-0.016-0.001-0.035c0.001-0.014,0.003-0.026,0.001-0.034c-0.001-0.035-0.012-0.059-0.033-0.072l-0.008-0.152
			c-0.004-0.08-0.02-0.137-0.048-0.17c0.028-0.188,0.057-0.373,0.085-0.562c0.049-0.214,0.119-0.325,0.213-0.329
			c0.016-0.002,0.029,0,0.044,0.004c0.085-0.082,0.187-0.127,0.306-0.132c0.131-0.008,0.279,0.032,0.438,0.12
			C30.054,53.071,30.131,53.296,30.16,53.536z M29.554,53.051l-0.028,0.038c-0.02,0.006-0.045-0.007-0.072-0.03l0.007,0.099
			c-0.046,0.049-0.063,0.127-0.056,0.229c0.01,0.177,0.012,0.261,0.012,0.254l0.132-0.002c0.063-0.035,0.094-0.095,0.089-0.175
			c-0.002-0.042-0.016-0.108-0.043-0.204C29.569,53.166,29.554,53.099,29.554,53.051z"></path>
	</g>
	<g>
		<polygon fill-rule="evenodd" clip-rule="evenodd" fill="#010101" points="31.192,57.967 31.323,58.043 31.766,56.878 
			31.618,56.828 31.174,57.993 31.305,58.075 31.192,57.967 31.192,57.967 		"></polygon>
		<polygon fill-rule="evenodd" clip-rule="evenodd" fill="#010101" points="31.387,57.806 31.333,57.827 31.192,57.967 
			31.305,58.075 31.448,57.929 31.391,57.955 31.387,57.806 31.387,57.806 		"></polygon>
		<polygon fill-rule="evenodd" clip-rule="evenodd" fill="#010101" points="32.459,57.799 32.524,57.746 31.387,57.806 
			31.391,57.955 32.528,57.897 32.602,57.843 32.459,57.799 32.459,57.799 32.459,57.799 		"></polygon>
		<polygon fill-rule="evenodd" clip-rule="evenodd" fill="#010101" points="32.975,56.726 32.896,56.629 32.459,57.799 
			32.602,57.843 33.043,56.678 32.967,56.581 32.975,56.726 32.975,56.726 32.975,56.726 		"></polygon>
		<polygon fill-rule="evenodd" clip-rule="evenodd" fill="#010101" points="31.891,56.763 31.834,56.792 32.975,56.726 
			32.967,56.581 31.832,56.633 31.776,56.662 31.891,56.763 31.891,56.763 31.891,56.763 		"></polygon>
		<polygon fill-rule="evenodd" clip-rule="evenodd" fill="#010101" points="31.766,56.878 31.75,56.902 31.891,56.763 
			31.776,56.662 31.635,56.803 31.618,56.828 31.766,56.878 31.766,56.878 31.766,56.878 		"></polygon>
		<polygon fill-rule="evenodd" clip-rule="evenodd" fill="#010101" points="32.71,57.934 32.813,57.891 32.569,57.754 
			32.491,57.892 32.741,58.031 32.852,57.982 32.705,57.932 32.705,57.932 32.71,57.934 		"></polygon>
		<polygon fill-rule="evenodd" clip-rule="evenodd" fill="#010101" points="33.188,56.86 33.148,56.769 32.705,57.932 
			32.852,57.982 33.294,56.816 33.256,56.726 33.188,56.86 33.188,56.86 		"></polygon>
		<polygon fill-rule="evenodd" clip-rule="evenodd" fill="#010101" points="33.043,56.678 32.934,56.728 33.188,56.86 
			33.256,56.726 33.012,56.589 32.896,56.629 33.043,56.678 33.043,56.678 		"></polygon>
		<polygon fill="#010101" points="31.696,56.854 31.69,56.851 31.832,56.711 32.887,56.66 32.896,56.629 32.975,56.655 
			33.043,56.678 33.04,56.693 33.225,56.793 33.294,56.816 33.266,56.892 33.782,58.12 33.345,59.287 32.782,57.959 32.782,57.959 
			32.709,57.987 32.705,57.932 32.71,57.919 32.532,57.821 32.491,57.892 32.468,57.822 31.387,57.876 31.246,58.015 		"></polygon>
		<polygon fill-rule="evenodd" clip-rule="evenodd" fill="#010101" points="33.276,59.264 33.419,59.259 32.855,57.929 
			32.709,57.987 33.274,59.318 33.417,59.312 33.269,59.262 33.269,59.262 33.276,59.264 		"></polygon>
		<polygon fill-rule="evenodd" clip-rule="evenodd" fill="#010101" points="33.717,58.154 33.711,58.097 33.269,59.262 
			33.417,59.312 33.86,58.146 33.856,58.089 33.717,58.154 33.717,58.154 		"></polygon>
		<polygon fill-rule="evenodd" clip-rule="evenodd" fill="#010101" points="33.294,56.816 33.152,56.824 33.717,58.154 
			33.856,58.089 33.29,56.761 33.148,56.769 33.294,56.816 33.294,56.816 		"></polygon>
		<polygon fill-rule="evenodd" clip-rule="evenodd" fill="#FFFFFF" points="33.257,57.117 33.321,57.255 33.344,57.396 
			33.336,57.533 33.297,57.679 33.227,57.817 33.131,57.941 33.005,58.056 32.855,58.154 32.774,58.191 32.694,58.227 
			32.602,58.243 32.516,58.262 32.434,58.272 32.346,58.281 32.264,58.271 32.178,58.266 32.106,58.249 32.03,58.222 31.954,58.191 
			31.888,58.152 31.832,58.11 31.769,58.065 31.718,58.009 31.675,57.948 31.61,57.81 31.588,57.67 31.588,57.529 31.635,57.388 
			31.696,57.253 31.794,57.12 31.92,57.008 32.076,56.909 32.151,56.873 32.241,56.839 32.325,56.822 32.409,56.804 32.499,56.792 
			32.579,56.782 32.662,56.792 32.747,56.799 32.825,56.823 32.901,56.851 32.973,56.873 33.043,56.912 33.102,56.947 
			33.166,56.999 33.208,57.061 33.257,57.117 33.257,57.117 33.257,57.117 		"></polygon>
		<polygon fill-rule="evenodd" clip-rule="evenodd" fill="#010101" points="33.313,57.347 33.377,57.484 33.399,57.632 
			33.391,57.771 33.353,57.907 33.29,58.051 33.185,58.178 33.072,58.29 32.911,58.384 32.829,58.428 32.747,58.462 32.662,58.48 
			32.571,58.497 32.488,58.509 32.409,58.514 32.324,58.509 32.235,58.496 32.161,58.479 32.084,58.452 32.016,58.422 
			31.946,58.383 31.886,58.346 31.832,58.297 31.779,58.247 31.731,58.178 31.667,58.047 31.643,57.906 31.651,57.761 31.69,57.626 
			31.752,57.481 31.848,57.356 31.973,57.243 32.13,57.147 32.214,57.106 32.293,57.077 32.379,57.051 32.471,57.033 32.55,57.031 
			32.633,57.019 32.717,57.031 32.799,57.033 32.881,57.053 32.958,57.079 33.026,57.11 33.1,57.142 33.157,57.185 33.22,57.229 
			33.262,57.29 33.311,57.354 33.311,57.354 33.313,57.347 		"></polygon>
		<polygon fill-rule="evenodd" clip-rule="evenodd" fill="#FFFFFF" points="33.353,57.508 33.419,57.639 33.44,57.787 
			33.432,57.927 33.395,58.063 33.325,58.202 33.226,58.333 33.112,58.443 32.955,58.539 32.878,58.583 32.79,58.617 32.705,58.636 
			32.614,58.651 32.532,58.664 32.452,58.669 32.366,58.664 32.278,58.651 32.204,58.633 32.127,58.607 32.059,58.576 
			31.985,58.539 31.928,58.501 31.869,58.449 31.823,58.396 31.774,58.333 31.708,58.202 31.684,58.062 31.69,57.923 31.731,57.78 
			31.794,57.638 31.894,57.505 32.022,57.401 32.173,57.3 32.258,57.259 32.338,57.224 32.422,57.206 32.514,57.188 32.596,57.178 
			32.676,57.174 32.766,57.179 32.844,57.188 32.922,57.209 33,57.234 33.075,57.268 33.139,57.304 33.2,57.339 33.262,57.385 
			33.304,57.445 33.353,57.508 33.353,57.508 		"></polygon>
		<polygon fill-rule="evenodd" clip-rule="evenodd" fill="#010101" points="33.41,57.738 33.472,57.876 33.498,58.018 
			33.498,58.157 33.45,58.298 33.389,58.436 33.282,58.563 33.167,58.682 33.008,58.776 32.934,58.814 32.844,58.847 32.761,58.865 
			32.676,58.885 32.585,58.894 32.504,58.905 32.422,58.894 32.338,58.89 32.258,58.87 32.181,58.843 32.114,58.814 32.04,58.773 
			31.985,58.73 31.928,58.69 31.877,58.633 31.828,58.57 31.772,58.434 31.741,58.293 31.748,58.152 31.786,58.009 31.856,57.876 
			31.954,57.743 32.079,57.629 32.23,57.532 32.309,57.497 32.391,57.462 32.484,57.444 32.569,57.425 32.651,57.415 32.736,57.413 
			32.821,57.416 32.899,57.419 32.977,57.438 33.055,57.465 33.131,57.497 33.196,57.533 33.262,57.58 33.316,57.621 33.368,57.679 
			33.407,57.746 33.407,57.746 33.41,57.738 		"></polygon>
		<polygon fill-rule="evenodd" clip-rule="evenodd" fill="#FFFFFF" points="33.493,57.891 33.557,58.021 33.581,58.163 
			33.578,58.311 33.541,58.446 33.471,58.589 33.364,58.716 33.25,58.826 33.1,58.925 33.016,58.966 32.926,58.998 32.842,59.018 
			32.758,59.036 32.668,59.046 32.589,59.052 32.504,59.046 32.422,59.033 32.343,59.017 32.265,58.989 32.197,58.959 32.13,58.929 
			32.066,58.885 32.012,58.836 31.961,58.778 31.92,58.718 31.852,58.586 31.825,58.436 31.832,58.297 31.877,58.164 31.94,58.021 
			32.038,57.891 32.161,57.781 32.309,57.685 32.395,57.642 32.477,57.604 32.565,57.596 32.653,57.571 32.733,57.559 
			32.821,57.559 32.907,57.563 32.981,57.571 33.059,57.59 33.145,57.619 33.213,57.65 33.282,57.68 33.344,57.726 33.399,57.773 
			33.45,57.83 33.493,57.891 33.493,57.891 		"></polygon>
		<polygon fill-rule="evenodd" clip-rule="evenodd" fill="#010101" points="33.555,58.123 33.612,58.259 33.641,58.401 
			33.633,58.539 33.596,58.682 33.528,58.817 33.426,58.949 33.304,59.064 33.153,59.16 33.072,59.195 32.983,59.229 32.899,59.246 
			32.814,59.268 32.733,59.28 32.645,59.287 32.559,59.274 32.477,59.271 32.403,59.255 32.321,59.226 32.25,59.194 32.188,59.16 
			32.122,59.114 32.066,59.073 32.014,59.015 31.972,58.954 31.909,58.816 31.879,58.674 31.886,58.534 31.932,58.393 
			31.993,58.257 32.091,58.126 32.217,58.012 32.374,57.916 32.448,57.878 32.536,57.848 32.622,57.827 32.708,57.809 
			32.795,57.799 32.878,57.787 32.958,57.799 33.038,57.8 33.124,57.822 33.201,57.85 33.269,57.879 33.335,57.916 33.399,57.961 
			33.454,58.003 33.506,58.06 33.555,58.123 33.555,58.123 33.555,58.123 		"></polygon>
		<polygon fill-rule="evenodd" clip-rule="evenodd" fill="#010101" points="25.805,56.334 25.812,56.289 25.365,57.46 
			25.506,57.508 25.952,56.336 25.954,56.306 25.805,56.334 25.805,56.334 25.805,56.334 		"></polygon>
		<polygon fill-rule="evenodd" clip-rule="evenodd" fill="#010101" points="25.792,56.274 25.794,56.267 25.805,56.334 
			25.954,56.306 25.938,56.237 25.94,56.231 25.792,56.274 25.792,56.274 25.792,56.274 		"></polygon>
		<polygon fill-rule="evenodd" clip-rule="evenodd" fill="#010101" points="25.777,56.209 25.792,56.274 25.94,56.231 
			25.924,56.163 25.777,56.209 25.777,56.209 25.777,56.209 		"></polygon>
		<polygon fill-rule="evenodd" clip-rule="evenodd" fill="#010101" points="25.758,56.146 25.777,56.209 25.924,56.163 
			25.905,56.102 25.758,56.146 25.758,56.146 		"></polygon>
		<polygon fill-rule="evenodd" clip-rule="evenodd" fill="#010101" points="25.741,56.077 25.741,56.077 25.758,56.146 
			25.905,56.102 25.888,56.036 25.887,56.04 25.741,56.077 25.741,56.077 25.741,56.077 		"></polygon>
		<polygon fill-rule="evenodd" clip-rule="evenodd" fill="#010101" points="25.723,55.995 25.723,56.019 25.741,56.077 
			25.887,56.04 25.869,55.98 25.875,56.008 25.723,55.995 25.723,55.995 		"></polygon>
		<polygon fill-rule="evenodd" clip-rule="evenodd" fill="#010101" points="25.872,55.966 25.725,55.939 25.723,55.995 
			25.875,56.008 25.877,55.952 25.729,55.925 25.871,55.974 25.871,55.974 25.872,55.966 		"></polygon>
		<polygon fill-rule="evenodd" clip-rule="evenodd" fill="#4D494A" points="25.999,59.376 25.987,59.302 25.829,59.327 
			25.84,59.409 25.999,59.376 25.999,59.376 25.999,59.376 		"></polygon>
		<polygon fill-rule="evenodd" clip-rule="evenodd" fill="#010101" points="26.327,58.399 26.333,58.361 25.888,59.527 
			26.028,59.574 26.472,58.409 26.468,58.37 26.327,58.399 26.327,58.399 26.327,58.399 		"></polygon>
		<polygon fill-rule="evenodd" clip-rule="evenodd" fill="#010101" points="26.315,58.316 26.327,58.399 26.468,58.37 
			26.458,58.287 26.308,58.315 26.308,58.315 26.315,58.316 		"></polygon>
		<polygon fill-rule="evenodd" clip-rule="evenodd" fill="#010101" points="26.293,58.24 26.308,58.315 26.458,58.287 
			26.438,58.212 26.293,58.24 26.293,58.24 26.293,58.24 		"></polygon>
		<polygon fill-rule="evenodd" clip-rule="evenodd" fill="#010101" points="26.275,58.154 26.282,58.164 26.293,58.24 
			26.438,58.212 26.426,58.126 26.43,58.136 26.275,58.154 26.275,58.154 26.275,58.154 		"></polygon>
		<polygon fill-rule="evenodd" clip-rule="evenodd" fill="#010101" points="26.417,58.085 26.266,58.065 26.275,58.154 
			26.43,58.136 26.418,58.056 26.266,58.036 26.417,58.085 26.417,58.085 		"></polygon>
		<g>
			<polygon fill="#4D494A" points="25.366,57.229 25.294,57.25 25.366,57.229 			"></polygon>
			<polygon fill="#4D494A" points="25.439,57.473 25.444,57.466 25.479,57.469 25.506,57.508 25.44,57.486 			"></polygon>
			<polygon fill="#010101" points="25.279,57.184 25.354,57.166 25.357,57.114 25.801,55.941 25.8,55.95 25.8,55.997 25.812,56.055 
				25.834,56.126 25.855,56.188 25.871,56.256 25.881,56.312 25.881,56.312 25.952,56.336 25.506,57.508 25.479,57.469 
				25.444,57.466 25.439,57.473 25.44,57.486 25.506,57.508 25.442,57.502 25.444,57.558 25.398,57.502 25.36,57.5 25.35,57.434 
				25.378,57.428 25.408,57.352 25.333,57.373 25.312,57.318 25.294,57.25 25.366,57.229 25.366,57.229 25.294,57.25 25.297,57.243 
							"></polygon>
		</g>
		<g>
			<polygon fill="none" points="28.909,57.502 28.909,57.502 28.973,57.359 			"></polygon>
			<polygon fill="#010101" points="25.439,57.407 28.702,57.3 28.786,57.304 28.8,57.312 28.88,57.329 28.887,57.332 28.973,57.359 
				29.053,57.395 29.06,57.396 29.139,57.445 29.153,57.451 29.212,57.502 29.231,57.516 29.277,57.57 29.281,57.58 29.312,57.629 
				29.313,57.645 29.17,57.688 29.147,57.651 29.145,57.66 29.108,57.608 29.108,57.608 29.059,57.567 29.071,57.58 28.992,57.536 
				28.992,57.536 28.909,57.502 28.909,57.502 28.836,57.48 28.757,57.46 28.772,57.466 28.698,57.456 28.698,57.447 25.444,57.558 
							"></polygon>
			<polygon fill="#010101" points="29.167,57.689 29.17,57.688 29.178,57.701 			"></polygon>
		</g>
		<polygon fill-rule="evenodd" clip-rule="evenodd" fill="#010101" points="30.911,60.428 30.911,60.383 30.463,61.554 
			30.612,61.604 31.057,60.431 31.057,60.386 30.911,60.428 30.911,60.428 30.911,60.428 		"></polygon>
		<polygon fill-rule="evenodd" clip-rule="evenodd" fill="#010101" points="29.622,56.535 29.612,56.518 30.911,60.428 
			31.057,60.386 29.758,56.472 29.757,56.458 29.622,56.535 29.622,56.535 29.622,56.535 		"></polygon>
		<polygon fill-rule="evenodd" clip-rule="evenodd" fill="#010101" points="29.595,56.496 29.59,56.487 29.622,56.535 
			29.757,56.458 29.729,56.407 29.718,56.404 29.588,56.495 29.588,56.495 29.595,56.496 		"></polygon>
		<polygon fill-rule="evenodd" clip-rule="evenodd" fill="#010101" points="29.565,56.446 29.554,56.436 29.588,56.495 
			29.718,56.404 29.67,56.345 29.659,56.33 29.565,56.446 29.565,56.446 29.565,56.446 		"></polygon>
		<polygon fill-rule="evenodd" clip-rule="evenodd" fill="#010101" points="29.514,56.415 29.502,56.403 29.565,56.446 
			29.659,56.33 29.595,56.286 29.584,56.274 29.514,56.415 29.514,56.415 		"></polygon>
		<polygon fill-rule="evenodd" clip-rule="evenodd" fill="#010101" points="29.444,56.366 29.436,56.366 29.514,56.415 
			29.584,56.274 29.503,56.233 29.497,56.23 29.444,56.366 29.444,56.366 		"></polygon>
		<polygon fill-rule="evenodd" clip-rule="evenodd" fill="#010101" points="29.37,56.336 29.352,56.337 29.444,56.366 29.497,56.23 
			29.415,56.196 29.409,56.193 29.36,56.34 29.36,56.34 29.37,56.336 		"></polygon>
		<polygon fill-rule="evenodd" clip-rule="evenodd" fill="#010101" points="29.284,56.308 29.274,56.31 29.36,56.34 29.409,56.193 
			29.323,56.165 29.323,56.165 29.281,56.314 29.281,56.314 29.284,56.308 		"></polygon>
		<polygon fill-rule="evenodd" clip-rule="evenodd" fill="#010101" points="29.219,56.291 29.204,56.289 29.281,56.314 
			29.323,56.165 29.238,56.144 29.229,56.144 29.219,56.291 29.219,56.291 29.219,56.291 		"></polygon>
		<polygon fill-rule="evenodd" clip-rule="evenodd" fill="#010101" points="29.143,56.283 29.141,56.29 29.219,56.291 
			29.229,56.144 29.147,56.128 29.139,56.135 29.143,56.283 29.143,56.283 		"></polygon>
		<polygon fill-rule="evenodd" clip-rule="evenodd" fill="#010101" points="25.96,56.338 25.879,56.389 29.143,56.283 
			29.139,56.135 25.881,56.244 25.812,56.289 25.952,56.336 25.952,56.336 25.96,56.338 		"></polygon>
		<polygon fill="#4D494A" points="26.779,59.902 26.768,59.896 26.774,59.893 		"></polygon>
		<g>
			<polygon fill="#4D494A" points="28.542,60.428 28.528,60.587 28.542,60.428 			"></polygon>
			<g>
				<polygon fill="none" points="28.536,60.505 28.528,60.587 28.536,60.505 				"></polygon>
				<g>
					<polygon fill="none" points="25.889,59.235 25.894,59.224 25.897,59.239 					"></polygon>
					<path fill="#010101" d="M25.84,59.409l0.015,0.074l0.028,0.081l0.035,0.059l0.199,0.104l0.2,0.106l0.19,0.103l0.196,0.098
						l0.006,0.001l0.198,0.089l0.195,0.089l0.215,0.088l0.216,0.08l0.007,0.002l0.229,0.062l0.23,0.061l0.006,0.002l0.253,0.038
						l0.262,0.041l0.006,0.001l0.283,0.016l0.011-0.004l0.302,0.009l0.322-0.012l0.344-0.019l0.07-0.047l0.442-1.164l-0.074-0.103
						l0.005,0.15l-0.023-0.03l0.018-0.044l-0.051,0.004l-0.02-0.026l-0.012,0.03l-0.254,0.013h-0.328l-0.303-0.007l-0.277-0.014
						l-0.27-0.035l-0.252-0.044L28.233,59.2l-0.23-0.061l-0.215-0.082l-0.21-0.079l-0.194-0.088l-0.194-0.095l-0.203-0.099
						l-0.192-0.103l-0.191-0.104l-0.134-0.07l0.004-0.012l-0.07-0.025l0,0l-0.019-0.083l-0.014-0.074l-0.006-0.025l0.054-0.116
						l-0.075-0.023l-0.004-0.002l0,0l-0.072-0.023l-0.441,1.165l-0.005,0.038l0.011,0.081L25.84,59.409z M25.894,59.224l0.003,0.016
						l-0.008-0.004L25.894,59.224z"></path>
				</g>
			</g>
		</g>
		<polygon fill-rule="evenodd" clip-rule="evenodd" fill="#010101" points="29.891,59.432 30.233,59.414 30.228,59.264 
			29.885,59.282 29.891,59.432 29.891,59.432 29.891,59.432 		"></polygon>
		<polygon fill-rule="evenodd" clip-rule="evenodd" fill="#010101" points="29.567,59.442 29.891,59.432 29.885,59.282 
			29.563,59.292 29.567,59.442 29.567,59.442 29.567,59.442 		"></polygon>
		<polygon fill-rule="evenodd" clip-rule="evenodd" fill="#010101" points="29.259,59.432 29.266,59.433 29.567,59.442 
			29.563,59.292 29.261,59.284 29.27,59.28 29.255,59.438 29.255,59.438 29.259,59.432 		"></polygon>
		<polygon fill-rule="evenodd" clip-rule="evenodd" fill="#010101" points="28.967,59.414 28.974,59.414 29.255,59.438 29.27,59.28 
			28.985,59.262 28.993,59.267 28.967,59.414 28.967,59.414 28.967,59.414 		"></polygon>
		<polygon fill-rule="evenodd" clip-rule="evenodd" fill="#010101" points="28.704,59.381 28.967,59.414 28.993,59.267 
			28.732,59.226 28.704,59.381 28.704,59.381 		"></polygon>
		<polygon fill-rule="evenodd" clip-rule="evenodd" fill="#010101" points="28.446,59.334 28.454,59.337 28.704,59.381 
			28.732,59.226 28.472,59.185 28.479,59.188 28.446,59.334 28.446,59.334 28.446,59.334 		"></polygon>
		<polygon fill-rule="evenodd" clip-rule="evenodd" fill="#010101" points="28.217,59.271 28.446,59.334 28.479,59.188 
			28.249,59.127 28.213,59.28 28.213,59.28 28.217,59.271 		"></polygon>
		<polygon fill-rule="evenodd" clip-rule="evenodd" fill="#010101" points="27.977,59.216 27.984,59.219 28.213,59.28 
			28.249,59.127 28.02,59.065 28.027,59.067 27.977,59.216 27.977,59.216 		"></polygon>
		<polygon fill-rule="evenodd" clip-rule="evenodd" fill="#010101" points="27.762,59.135 27.762,59.135 27.977,59.216 
			28.027,59.067 27.811,58.988 27.82,58.989 27.754,59.134 27.754,59.134 27.762,59.135 		"></polygon>
		<polygon fill-rule="evenodd" clip-rule="evenodd" fill="#010101" points="27.549,59.049 27.754,59.134 27.82,58.989 
			27.612,58.905 27.549,59.049 27.549,59.049 		"></polygon>
		<polygon fill-rule="evenodd" clip-rule="evenodd" fill="#010101" points="27.351,58.96 27.549,59.049 27.612,58.905 
			27.413,58.821 27.351,58.96 27.351,58.96 		"></polygon>
		<polygon fill-rule="evenodd" clip-rule="evenodd" fill="#010101" points="27.149,58.861 27.154,58.871 27.351,58.96 
			27.413,58.821 27.211,58.726 27.219,58.729 27.147,58.867 27.147,58.867 27.149,58.861 		"></polygon>
		<polygon fill-rule="evenodd" clip-rule="evenodd" fill="#010101" points="26.956,58.766 27.147,58.867 27.219,58.729 
			27.023,58.631 26.952,58.772 26.952,58.772 26.956,58.766 		"></polygon>
		<polygon fill-rule="evenodd" clip-rule="evenodd" fill="#010101" points="26.763,58.661 26.952,58.772 27.023,58.631 
			26.831,58.528 26.756,58.661 26.756,58.661 26.763,58.661 		"></polygon>
		<polygon fill-rule="evenodd" clip-rule="evenodd" fill="#010101" points="26.562,58.558 26.756,58.661 26.831,58.528 
			26.637,58.425 26.562,58.558 26.562,58.558 		"></polygon>
		<polygon fill-rule="evenodd" clip-rule="evenodd" fill="#010101" points="26.472,58.409 26.364,58.449 26.562,58.558 
			26.637,58.425 26.44,58.32 26.333,58.361 26.472,58.409 26.472,58.409 26.472,58.409 		"></polygon>
		<polygon fill-rule="evenodd" clip-rule="evenodd" fill="#010101" points="46.795,56.298 46.35,57.469 47.805,57.955 
			48.144,57.176 48.151,57.102 48.156,57.023 48.144,56.941 48.113,56.861 48.067,56.792 48.031,56.716 47.97,56.642 47.906,56.573 
			47.84,56.514 47.767,56.449 47.693,56.394 47.62,56.354 47.551,56.308 47.468,56.271 47.396,56.231 47.326,56.209 47.262,56.188 
			47.186,56.178 47.119,56.172 47.052,56.182 46.989,56.191 46.917,56.212 46.856,56.256 46.795,56.298 46.795,56.298 
			46.795,56.298 		"></polygon>
		<polygon fill-rule="evenodd" clip-rule="evenodd" fill="#010101" points="47.739,57.919 47.833,57.878 46.375,57.392 
			46.325,57.54 47.783,58.024 47.878,57.986 47.739,57.919 47.739,57.919 		"></polygon>
		<g>
			<polygon fill="none" points="48.021,58.256 48.031,58.333 48.021,58.256 			"></polygon>
			<polygon fill="none" points="48.771,57.472 48.826,57.522 48.766,57.481 			"></polygon>
			<g>
				<polygon fill="none" points="48.826,57.522 48.766,57.481 48.771,57.472 				"></polygon>
				<g>
					<polygon fill="none" points="48.826,57.522 48.766,57.481 48.771,57.472 					"></polygon>
					<polygon fill="#010101" points="25.279,57.11 25.286,57.09 25.729,55.925 25.871,55.974 25.439,57.123 25.431,57.17 
						25.43,57.154 25.279,57.184 25.278,57.166 					"></polygon>
					<g>
						<polygon fill="none" points="48.826,57.522 48.766,57.481 48.771,57.472 						"></polygon>
						<polygon fill="#4D494A" points="32.417,59.87 32.391,59.885 32.387,59.883 						"></polygon>
						<g>
							<polygon fill="none" points="32.446,59.937 32.5,59.99 32.446,59.937 							"></polygon>
							<polygon fill="none" points="48.826,57.522 48.766,57.481 48.771,57.472 							"></polygon>
							<polygon fill="none" points="30.535,61.578 30.541,61.578 30.541,61.581 30.463,61.554 30.528,61.554 							"></polygon>
							<path fill="#010101" d="M25.333,57.373l0.016,0.067l0.002-0.007l0.115-0.024l-0.029,0.075l3.264-0.106l0.078,0.001
								l0.084,0.03l0.086,0.025l0.082,0.031l0.078,0.049l0.063,0.044l0.044,0.055l0.027,0.053l-0.075,0.023l1.296,3.912h0.077
								l0.001,0.05h0.118l0.108-0.006l0.103,0.006l0.09-0.017l0.095-0.024l0.094-0.047l0.086-0.071l0.104-0.1l0.001-0.008
								l0.059-0.079l0.068-0.091l0.078-0.089l0.053-0.092l0.07-0.111l0.069-0.093l0.058-0.104l0.076-0.108l0.06-0.089l0.089-0.098
								l0.07-0.094l0.08-0.081l0.073-0.078l0.077-0.067l0.076-0.061L32.483,60l0.018-0.01l-0.055-0.054l0,0L32.5,59.99l0.089-0.096
								l0.079-0.073l0.07-0.071l0.075-0.062l0.073-0.053l0.076-0.046l0.068-0.04l0.075-0.036l0.085-0.021l0.082-0.033l0.085-0.021
								l0.096-0.011l0.108-0.021l0.121-0.007l0.129-0.01l0.126-0.007l0.009,0.004l14.083-1.055l0.082-0.01l0.073-0.013l0.068-0.018
								l0.072-0.021l0.064-0.035l0.067-0.04l0.059-0.052l0.064-0.057l0.016-0.017l0.244-0.576l-0.129-0.082l0.057,0.056
								l-0.008,0.008l-0.062-0.045l-0.062,0.145l-0.039,0.024l-0.055,0.021l-0.065,0.028l-0.057,0.01l-0.077,0.013l-0.073,0.016
								l-14.093,1.05l-0.089,0.009l-0.086,0.003l-0.087,0.001l-0.091,0.016h-0.094l-0.082,0.012l-0.088,0.01l-0.083,0.013
								l-0.091,0.017l-0.083,0.012l-0.084,0.018l-0.094,0.023l-0.085,0.02l-0.09,0.032l-0.088,0.034l-0.085,0.041l-0.165,0.102
								l-0.172,0.153l-0.177,0.184l-0.173,0.209l-0.164,0.217l-0.143,0.195l-0.142,0.188l-0.117,0.142l-0.067,0.016l-0.061,0.013
								l-0.072,0.005h-0.07h-0.07l-0.061-0.003l-0.076-0.005l-0.069-0.006l-1.292-3.902l-0.029-0.057l-0.045-0.053l-0.062-0.045
								l-0.086-0.05l-0.082-0.037l-0.082-0.027l-0.082-0.02l-0.076-0.002l-3.262,0.099l-0.391,1.033l-0.003-0.016L25.333,57.373z
								 M48.766,57.481l0.005-0.01l0.055,0.051L48.766,57.481z"></path>
						</g>
					</g>
				</g>
			</g>
		</g>
		<polygon fill-rule="evenodd" clip-rule="evenodd" fill="#010101" points="48.273,57.769 48.359,57.749 48.433,57.735 
			48.502,57.718 48.572,57.694 48.638,57.66 48.706,57.622 48.758,57.579 48.826,57.522 48.712,57.413 48.665,57.469 48.613,57.505 
			48.56,57.536 48.508,57.555 48.458,57.57 48.394,57.59 48.332,57.599 48.258,57.604 48.273,57.769 48.273,57.769 		"></polygon>
		<polygon fill-rule="evenodd" clip-rule="evenodd" fill="#010101" points="34.19,58.814 48.273,57.769 48.258,57.604 
			34.174,58.656 34.19,58.814 34.19,58.814 		"></polygon>
		<polygon fill-rule="evenodd" clip-rule="evenodd" fill="#010101" points="32.811,59.063 32.893,59.027 32.975,58.998 
			33.072,58.97 33.149,58.941 33.236,58.915 33.319,58.903 33.401,58.891 33.493,58.875 33.567,58.861 33.653,58.859 33.743,58.85 
			33.833,58.84 33.922,58.83 34,58.826 34.096,58.819 34.19,58.814 34.174,58.656 34.084,58.666 33.997,58.677 33.903,58.677 
			33.813,58.685 33.725,58.688 33.641,58.707 33.555,58.709 33.459,58.716 33.374,58.737 33.29,58.756 33.2,58.77 33.104,58.794 
			33.026,58.821 32.929,58.852 32.833,58.88 32.747,58.924 32.811,59.063 32.811,59.063 32.811,59.063 		"></polygon>
		<polygon fill-rule="evenodd" clip-rule="evenodd" fill="#010101" points="31.55,60.454 31.581,60.435 31.644,60.361 31.7,60.286 
			31.768,60.2 31.838,60.104 31.92,60.007 31.991,59.905 32.073,59.8 32.155,59.696 32.239,59.582 32.327,59.486 32.412,59.397 
			32.497,59.302 32.571,59.224 32.662,59.16 32.736,59.102 32.811,59.063 32.747,58.924 32.653,58.977 32.571,59.036 32.474,59.114 
			32.383,59.201 32.297,59.29 32.213,59.379 32.121,59.496 32.038,59.601 31.957,59.708 31.874,59.812 31.799,59.914 31.72,60.012 
			31.65,60.104 31.583,60.192 31.527,60.269 31.476,60.327 31.503,60.312 31.55,60.454 31.55,60.454 31.55,60.454 		"></polygon>
		<polygon fill="none" points="46.765,56.365 46.795,56.298 46.85,56.245 46.936,56.203 47.035,56.191 47.087,56.193 47.149,56.197 
			47.208,56.209 47.266,56.222 47.337,56.244 47.399,56.266 47.468,56.295 47.542,56.336 47.601,56.364 47.666,56.407 
			47.721,56.449 47.783,56.502 47.846,56.546 47.887,56.599 47.947,56.647 47.989,56.703 48.071,56.809 48.113,56.917 
			48.134,56.971 48.146,57.006 48.138,57.098 48.122,57.169 48.071,57.23 47.996,57.268 47.894,57.287 47.838,57.296 47.78,57.28 
			47.71,57.275 47.64,57.258 47.576,57.237 47.503,57.213 47.43,57.182 47.365,57.142 47.297,57.112 47.222,57.073 47.161,57.031 
			47.101,56.978 47.043,56.935 46.984,56.878 46.933,56.82 46.889,56.765 46.816,56.655 46.772,56.548 46.762,56.514 46.751,56.456 
					"></polygon>
		<polygon fill-rule="evenodd" clip-rule="evenodd" fill="#FFFFFF" points="28.854,56.218 29.143,56.213 29.167,56.213 
			26.669,55.381 26.542,55.455 28.848,56.225 28.848,56.225 28.854,56.218 		"></polygon>
		<polygon fill-rule="evenodd" clip-rule="evenodd" fill="#FFFFFF" points="28.854,56.218 25.881,56.312 25.871,56.256 
			25.855,56.188 25.834,56.126 25.812,56.055 25.8,55.997 25.8,55.95 25.819,55.895 25.871,55.854 25.993,55.77 26.127,55.692 
			26.264,55.612 26.401,55.533 26.528,55.452 26.542,55.455 28.848,56.225 28.848,56.225 28.854,56.218 		"></polygon>
		<polygon fill="#FFFFFF" points="27.045,58.021 29.071,57.908 29.861,58.227 30.141,59.055 30.227,59.34 29.891,59.36 
			29.563,59.36 29.26,59.354 28.983,59.34 28.713,59.305 28.461,59.261 28.233,59.2 28.002,59.14 27.788,59.058 27.578,58.979 
			27.383,58.891 27.189,58.796 26.986,58.697 26.793,58.595 26.602,58.491 26.402,58.384 26.383,58.301 26.37,58.227 26.35,58.142 
			26.338,58.06 		"></polygon>
		<polygon fill-rule="evenodd" clip-rule="evenodd" fill="#FFFFFF" points="32.145,58.253 32.173,58.287 32.432,58.443 
			32.516,58.311 32.255,58.151 32.282,58.191 32.145,58.253 32.153,58.272 32.173,58.287 32.145,58.253 32.145,58.253 		"></polygon>
		<polygon fill-rule="evenodd" clip-rule="evenodd" fill="#FFFFFF" points="29.831,58.303 29.784,58.247 30.157,59.363 
			30.302,59.318 29.932,58.202 29.892,58.158 29.932,58.202 29.92,58.167 29.892,58.158 29.831,58.303 29.831,58.303 29.831,58.303 
					"></polygon>
		<polygon fill-rule="evenodd" clip-rule="evenodd" fill="#FFFFFF" points="29.078,57.98 29.04,57.975 29.831,58.303 29.892,58.158 
			29.103,57.832 29.074,57.83 29.103,57.832 29.088,57.828 29.074,57.83 29.078,57.98 29.078,57.98 29.078,57.98 		"></polygon>
		<polygon fill-rule="evenodd" clip-rule="evenodd" fill="#FFFFFF" points="26.418,58.056 26.343,58.139 29.078,57.98 29.074,57.83 
			26.338,57.987 26.266,58.065 26.338,57.987 26.252,57.99 26.266,58.065 26.418,58.056 26.418,58.056 		"></polygon>
		<polygon fill-rule="evenodd" clip-rule="evenodd" fill="#FFFFFF" points="26.44,58.32 26.468,58.37 26.468,58.328 26.458,58.287 
			26.454,58.247 26.444,58.212 26.442,58.173 26.432,58.13 26.42,58.095 26.418,58.056 26.266,58.065 26.266,58.113 26.272,58.163 
			26.284,58.196 26.289,58.236 26.298,58.272 26.308,58.315 26.325,58.36 26.327,58.399 26.364,58.449 26.327,58.399 26.338,58.434 
			26.364,58.449 26.44,58.32 26.44,58.32 		"></polygon>
		<polygon fill-rule="evenodd" clip-rule="evenodd" fill="#FFFFFF" points="30.157,59.358 30.221,59.261 29.885,59.282 
			29.563,59.292 29.27,59.28 28.985,59.262 28.732,59.226 28.479,59.188 28.249,59.127 28.027,59.067 27.811,58.988 27.612,58.905 
			27.413,58.821 27.219,58.729 27.023,58.631 26.831,58.528 26.637,58.425 26.44,58.32 26.364,58.449 26.562,58.558 26.756,58.661 
			26.952,58.772 27.147,58.867 27.351,58.96 27.549,59.049 27.762,59.135 27.977,59.216 28.213,59.28 28.446,59.334 28.704,59.381 
			28.974,59.414 29.255,59.438 29.567,59.442 29.891,59.432 30.239,59.414 30.302,59.318 30.239,59.414 30.336,59.409 
			30.302,59.318 30.157,59.363 30.157,59.363 30.157,59.358 		"></polygon>
		<g>
			<polygon fill="none" points="31.573,60.349 31.629,60.403 31.573,60.349 			"></polygon>
			<polygon fill="none" points="31.052,60.327 31.04,60.327 31.04,60.327 			"></polygon>
			<polygon fill="none" points="29.78,56.535 31.832,57.22 29.78,56.535 			"></polygon>
		</g>
		<polygon fill-rule="evenodd" clip-rule="evenodd" fill="#FFFFFF" points="34.174,58.656 34.073,58.662 33.956,58.68 
			33.854,58.682 33.741,58.692 33.631,58.71 33.518,58.729 33.404,58.744 33.293,58.77 33.182,58.796 33.085,58.826 32.981,58.861 
			32.881,58.897 32.797,58.941 32.698,58.985 32.616,59.045 32.54,59.104 32.633,59.224 32.708,59.168 32.776,59.121 32.855,59.077 
			32.943,59.045 33.03,58.995 33.123,58.972 33.233,58.946 33.33,58.915 33.435,58.903 33.529,58.88 33.641,58.871 33.75,58.854 
			33.865,58.836 33.977,58.826 34.081,58.814 34.19,58.814 34.174,58.656 34.174,58.656 34.174,58.656 		"></polygon>
		<polygon fill-rule="evenodd" clip-rule="evenodd" fill="#FFFFFF" points="48.258,57.604 34.174,58.656 34.19,58.814 
			48.273,57.769 48.258,57.604 48.258,57.604 		"></polygon>
		<polygon fill-rule="evenodd" clip-rule="evenodd" fill="#FFFFFF" points="48.519,56.746 48.579,56.83 48.639,56.904 
			48.667,56.986 48.712,57.062 48.737,57.132 48.743,57.205 48.744,57.268 48.741,57.329 48.724,57.378 48.702,57.425 
			48.669,57.471 48.617,57.515 48.56,57.543 48.47,57.575 48.377,57.599 48.258,57.604 48.273,57.769 48.403,57.755 48.517,57.723 
			48.614,57.685 48.702,57.638 48.781,57.583 48.835,57.508 48.866,57.44 48.896,57.356 48.893,57.269 48.898,57.187 48.878,57.102 
			48.85,57.008 48.813,56.922 48.766,56.83 48.706,56.731 48.645,56.657 48.519,56.746 48.519,56.746 		"></polygon>
		<polygon fill-rule="evenodd" clip-rule="evenodd" fill="#FFFFFF" points="46.84,55.946 46.967,55.941 47.097,55.953 47.228,55.98 
			47.354,55.999 47.477,56.04 47.595,56.08 47.708,56.135 47.817,56.187 47.929,56.245 48.033,56.31 48.144,56.379 48.223,56.446 
			48.306,56.52 48.388,56.602 48.458,56.681 48.519,56.746 48.645,56.657 48.572,56.569 48.49,56.487 48.41,56.404 48.318,56.327 
			48.214,56.256 48.116,56.185 48.011,56.118 47.896,56.047 47.773,55.99 47.649,55.941 47.52,55.898 47.388,55.854 47.256,55.826 
			47.123,55.806 46.97,55.793 46.835,55.793 46.84,55.946 46.84,55.946 		"></polygon>
		<polygon fill-rule="evenodd" clip-rule="evenodd" fill="#FFFFFF" points="34.381,56.375 46.84,55.946 46.835,55.793 
			34.381,56.228 34.381,56.375 34.381,56.375 		"></polygon>
		<polygon fill-rule="evenodd" clip-rule="evenodd" fill="#FFFFFF" points="32.415,56.062 32.532,56.108 32.655,56.135 
			32.776,56.175 32.899,56.199 33.03,56.23 33.152,56.262 33.288,56.283 33.405,56.299 33.529,56.326 33.659,56.336 33.785,56.354 
			33.91,56.357 34.028,56.375 34.155,56.369 34.271,56.378 34.381,56.375 34.381,56.228 34.264,56.228 34.151,56.222 34.043,56.215 
			33.922,56.206 33.799,56.197 33.676,56.188 33.557,56.172 33.43,56.153 33.307,56.126 33.188,56.108 33.066,56.077 32.939,56.058 
			32.819,56.026 32.688,55.99 32.579,55.964 32.459,55.922 32.412,56.069 32.412,56.069 32.415,56.062 		"></polygon>
		<polygon fill-rule="evenodd" clip-rule="evenodd" fill="#FFFFFF" points="28.211,54.911 28.424,54.88 28.624,54.862 
			28.817,54.845 28.994,54.834 29.159,54.828 29.309,54.848 29.464,54.852 29.594,54.862 29.729,54.884 29.852,54.911 
			29.969,54.934 30.075,54.971 30.187,55.007 30.276,55.045 30.385,55.088 30.472,55.132 30.573,55.184 30.674,55.23 30.774,55.289 
			30.872,55.345 30.97,55.401 31.074,55.466 31.174,55.516 31.283,55.583 31.405,55.641 31.523,55.712 31.655,55.762 31.78,55.826 
			31.923,55.89 32.079,55.941 32.244,56.014 32.412,56.069 32.459,55.922 32.292,55.866 32.125,55.802 31.985,55.749 31.843,55.692 
			31.709,55.625 31.592,55.57 31.476,55.501 31.362,55.445 31.249,55.385 31.143,55.327 31.045,55.271 30.942,55.203 30.842,55.146 
			30.743,55.098 30.643,55.05 30.549,54.993 30.45,54.946 30.338,54.9 30.237,54.859 30.124,54.82 30.002,54.781 29.879,54.757 
			29.752,54.736 29.614,54.706 29.471,54.69 29.323,54.687 29.153,54.685 28.989,54.684 28.797,54.692 28.606,54.706 28.403,54.732 
			28.192,54.755 28.204,54.907 28.204,54.907 28.211,54.911 		"></polygon>
		<polygon fill-rule="evenodd" clip-rule="evenodd" fill="#FFFFFF" points="25.912,55.925 26.031,55.839 26.167,55.761 
			26.303,55.681 26.444,55.594 26.57,55.52 26.711,55.441 26.845,55.367 26.983,55.306 27.131,55.237 27.28,55.17 27.424,55.109 
			27.575,55.058 27.737,55.018 27.885,54.973 28.047,54.934 28.204,54.907 28.192,54.755 28.016,54.789 27.849,54.82 27.686,54.865 
			27.529,54.909 27.375,54.973 27.216,55.03 27.072,55.092 26.923,55.159 26.772,55.235 26.629,55.312 26.497,55.385 26.36,55.465 
			26.224,55.544 26.087,55.625 25.96,55.705 25.831,55.787 25.903,55.922 25.903,55.922 25.912,55.925 		"></polygon>
		<polygon fill-rule="evenodd" clip-rule="evenodd" fill="#FFFFFF" points="25.881,56.244 25.961,56.308 25.938,56.237 
			25.924,56.163 25.905,56.102 25.888,56.036 25.879,55.991 25.872,55.966 25.885,55.931 25.903,55.922 25.831,55.787 
			25.762,55.851 25.726,55.935 25.717,56.009 25.741,56.077 25.758,56.146 25.777,56.209 25.794,56.267 25.805,56.327 
			25.879,56.389 25.805,56.327 25.809,56.389 25.879,56.389 25.881,56.244 25.881,56.244 		"></polygon>
		<g>
			<polygon fill="none" points="31.635,56.803 31.637,56.804 31.616,56.881 			"></polygon>
			<polygon fill="#FFFFFF" points="31.639,56.795 31.637,56.804 31.635,56.803 			"></polygon>
			<polygon fill="#FFFFFF" points="31.601,56.83 31.635,56.803 31.616,56.881 			"></polygon>
			<g>
				<polygon fill="none" points="46.795,56.298 46.85,56.245 46.936,56.203 47.035,56.191 47.087,56.193 47.149,56.197 
					47.208,56.209 47.266,56.222 47.337,56.244 47.399,56.266 47.468,56.295 47.542,56.336 47.601,56.364 47.666,56.407 
					47.721,56.449 47.783,56.502 47.846,56.546 47.887,56.599 47.947,56.647 47.989,56.703 48.071,56.809 48.113,56.917 
					48.134,56.971 48.146,57.006 48.138,57.098 48.122,57.169 48.071,57.23 47.996,57.268 47.894,57.287 47.838,57.296 47.78,57.28 
					47.71,57.275 47.64,57.258 47.576,57.237 47.503,57.213 47.43,57.182 47.365,57.142 47.297,57.112 47.222,57.073 47.161,57.031 
					47.101,56.978 47.043,56.935 46.984,56.878 46.933,56.82 46.889,56.765 46.816,56.655 46.772,56.548 46.762,56.514 
					46.751,56.456 46.765,56.365 				"></polygon>
				<polygon fill="none" points="33.221,56.792 33.221,56.792 33.152,56.824 				"></polygon>
				<polygon fill="none" points="33.727,58.071 33.78,58.11 33.782,58.12 33.649,58.287 32.471,58.371 32.217,58.224 32.215,58.222 
					32.282,58.191 31.78,56.873 31.863,56.789 32.934,56.728 33.163,56.846 33.717,58.154 				"></polygon>
				<polygon fill="none" points="29.713,56.395 29.713,56.395 31.682,57.052 				"></polygon>
				<g>
					<polygon fill="none" points="46.795,56.298 46.85,56.245 46.936,56.203 47.035,56.191 47.087,56.193 47.149,56.197 
						47.208,56.209 47.266,56.222 47.337,56.244 47.399,56.266 47.468,56.295 47.542,56.336 47.601,56.364 47.666,56.407 
						47.721,56.449 47.783,56.502 47.846,56.546 47.887,56.599 47.947,56.647 47.989,56.703 48.071,56.809 48.113,56.917 
						48.134,56.971 48.146,57.006 48.138,57.098 48.122,57.169 48.071,57.23 47.996,57.268 47.894,57.287 47.838,57.296 
						47.78,57.28 47.71,57.275 47.64,57.258 47.576,57.237 47.503,57.213 47.43,57.182 47.365,57.142 47.297,57.112 47.222,57.073 
						47.161,57.031 47.101,56.978 47.043,56.935 46.984,56.878 46.933,56.82 46.889,56.765 46.816,56.655 46.772,56.548 
						46.762,56.514 46.751,56.456 46.765,56.365 					"></polygon>
					<polygon fill="none" points="32.934,56.728 33.163,56.846 33.717,58.154 33.727,58.071 33.78,58.11 33.782,58.12 
						33.649,58.287 32.471,58.371 32.217,58.224 32.215,58.222 32.282,58.191 31.78,56.873 31.863,56.789 					"></polygon>
					<polygon fill="none" points="29.713,56.395 29.713,56.395 31.682,57.052 					"></polygon>
					<g>
						<polygon fill="none" points="46.795,56.298 46.85,56.245 46.936,56.203 47.035,56.191 47.087,56.193 47.149,56.197 
							47.208,56.209 47.266,56.222 47.337,56.244 47.399,56.266 47.468,56.295 47.542,56.336 47.601,56.364 47.666,56.407 
							47.721,56.449 47.783,56.502 47.846,56.546 47.887,56.599 47.947,56.647 47.989,56.703 48.071,56.809 48.113,56.917 
							48.134,56.971 48.146,57.006 48.138,57.098 48.122,57.169 48.071,57.23 47.996,57.268 47.894,57.287 47.838,57.296 
							47.78,57.28 47.71,57.275 47.64,57.258 47.576,57.237 47.503,57.213 47.43,57.182 47.365,57.142 47.297,57.112 47.222,57.073 
							47.161,57.031 47.101,56.978 47.043,56.935 46.984,56.878 46.933,56.82 46.889,56.765 46.816,56.655 46.772,56.548 
							46.762,56.514 46.751,56.456 46.765,56.365 						"></polygon>
						<polygon fill="none" points="32.934,56.728 33.163,56.846 33.717,58.154 33.727,58.071 33.78,58.11 33.782,58.12 
							33.651,58.284 33.641,58.215 32.465,58.298 32.516,58.311 32.477,58.37 32.471,58.371 32.217,58.224 32.215,58.222 
							32.282,58.191 31.78,56.873 31.863,56.789 						"></polygon>
						<polygon fill="none" points="29.713,56.395 29.713,56.395 31.682,57.052 						"></polygon>
						<g>
							<polygon fill="none" points="33.758,57.862 35.988,58.607 33.758,57.862 							"></polygon>
							<polygon fill="none" points="33.702,57.726 36.27,58.583 33.702,57.726 							"></polygon>
							<polygon fill="none" points="46.795,56.298 46.85,56.245 46.936,56.203 47.035,56.191 47.087,56.193 47.149,56.197 
								47.208,56.209 47.266,56.222 47.337,56.244 47.399,56.266 47.468,56.295 47.542,56.336 47.601,56.364 47.666,56.407 
								47.721,56.449 47.783,56.502 47.846,56.546 47.887,56.599 47.947,56.647 47.989,56.703 48.071,56.809 48.113,56.917 
								48.134,56.971 48.146,57.006 48.138,57.098 48.122,57.169 48.071,57.23 47.996,57.268 47.894,57.287 47.838,57.296 
								47.78,57.28 47.71,57.275 47.64,57.258 47.576,57.237 47.503,57.213 47.43,57.182 47.365,57.142 47.297,57.112 
								47.222,57.073 47.161,57.031 47.101,56.978 47.043,56.935 46.984,56.878 46.933,56.82 46.889,56.765 46.816,56.655 
								46.772,56.548 46.762,56.514 46.751,56.456 46.765,56.365 							"></polygon>
							<polygon fill="none" points="32.934,56.728 33.163,56.846 33.717,58.154 33.727,58.071 33.78,58.11 33.782,58.12 
								33.651,58.284 33.649,58.287 32.477,58.37 32.471,58.371 32.217,58.224 32.215,58.222 32.282,58.191 31.78,56.873 
								31.863,56.789 							"></polygon>
							<polygon fill="none" points="29.713,56.395 29.713,56.395 31.682,57.052 							"></polygon>
							<polygon fill="#FFFFFF" points="33.702,57.726 36.27,58.583 35.992,58.599 35.988,58.607 33.758,57.862 							"></polygon>
							<g>
								<polygon fill="none" points="46.795,56.298 46.85,56.245 46.936,56.203 47.035,56.191 47.087,56.193 47.149,56.197 
									47.208,56.209 47.266,56.222 47.337,56.244 47.399,56.266 47.468,56.295 47.542,56.336 47.601,56.364 47.666,56.407 
									47.721,56.449 47.783,56.502 47.846,56.546 47.887,56.599 47.947,56.647 47.989,56.703 48.071,56.809 48.113,56.917 
									48.134,56.971 48.146,57.006 48.138,57.098 48.122,57.169 48.071,57.23 47.996,57.268 47.894,57.287 47.838,57.296 
									47.78,57.28 47.71,57.275 47.64,57.258 47.576,57.237 47.503,57.213 47.43,57.182 47.365,57.142 47.297,57.112 
									47.222,57.073 47.161,57.031 47.101,56.978 47.043,56.935 46.984,56.878 46.933,56.82 46.889,56.765 46.816,56.655 
									46.772,56.548 46.762,56.514 46.751,56.456 46.765,56.365 								"></polygon>
								<polygon fill="none" points="32.934,56.728 33.163,56.846 33.698,58.11 33.615,58.217 32.465,58.298 32.516,58.311 
									32.477,58.37 32.471,58.371 32.217,58.224 32.215,58.222 32.282,58.191 31.78,56.873 31.863,56.789 								"></polygon>
								<polygon fill="none" points="33.727,58.071 33.78,58.11 33.78,58.11 								"></polygon>
								<polygon fill="none" points="29.713,56.395 29.713,56.395 31.682,57.052 								"></polygon>
								<path fill="#FFFFFF" d="M25.879,56.389l3.264-0.105l0.068,0.007l0.062,0.02l0.086,0.03l0.076,0.026l0.07,0.045l0.052,0.035
									l0.03,0.049l0.023,0.022l1.299,3.91l0.018,0.061l0.064-0.001l0.064-0.009l0.074,0.009l0.094,0.008l0.086-0.001l0.086,0.003
									l0.076-0.021l0.086-0.025l0.07-0.047l0.086-0.092l0.07-0.091l0.064-0.079l0.065-0.081l0.056-0.074l0.054-0.069l0.048-0.069
									l0.058-0.073l0.045-0.07l0.055-0.068l0.054-0.07l0.059-0.058l0.061-0.065l0.071-0.071l0.071-0.069l0.088-0.078l-0.048-0.061
									l0.07-0.06l0.08-0.051l0.093-0.039l0.082-0.042l0.094-0.04l0.103-0.028l0.106-0.036l0.103-0.027l0.099-0.014l0.107-0.02
									l0.115-0.016l0.108-0.019l0.112-0.01l0.111-0.007l0.105-0.015l0.103-0.003l1.811-0.131l-2.229-0.745l-0.057-0.137l0,0
									l2.568,0.857l12-0.895l0.222-0.037l0.168-0.076l0.114-0.109l0.042-0.127v-0.14l0.001-0.009l-0.038-0.159l-0.08-0.162
									l-0.115-0.172l-0.066-0.077l-0.076-0.078l-0.081-0.083l-0.087-0.068l-0.092-0.076l-0.102-0.066l-0.112-0.066l-0.111-0.069
									l-0.117-0.046l-0.115-0.055l-0.126-0.043l-0.133-0.044l-0.127-0.018l-0.131-0.029l-0.137-0.015l-0.135,0.004l-1.811,0.067
									l-10.644,0.363h-0.117l-0.109,0.001l-0.123-0.001l-0.119-0.018l-0.122-0.01l-0.122-0.009l-0.12-0.017l-0.128-0.018
									l-0.126-0.019l-0.124-0.027l-0.125-0.025l-0.123-0.024l-0.127-0.036l-0.124-0.033l-0.114-0.032l-0.12-0.037l-0.168-0.058
									l-0.168-0.063l-0.145-0.055l-0.145-0.057l-0.127-0.067l-0.122-0.056l-0.127-0.065l-0.115-0.055l-0.109-0.065l-0.1-0.058
									l-0.105-0.06l-0.098-0.056l-0.106-0.059l-0.097-0.058l-0.094-0.044l-0.1-0.059l-0.1-0.049l-0.105-0.041l-0.096-0.034
									l-0.115-0.038l-0.119-0.039l-0.113-0.031l-0.127-0.019l-0.135-0.021l-0.137-0.016l-0.15-0.011l-0.162-0.008l-0.166,0.008
									l-0.174,0.004l-0.194,0.021l-0.202,0.018l-0.221,0.028l-0.164,0.025l-0.16,0.039l-0.164,0.039l-0.149,0.052l-0.159,0.058
									l-0.152,0.058l-0.145,0.061l-0.146,0.068l-0.143,0.068l-0.144,0.079l2.278,0.761l-3.066,0.103L25.879,56.389z
									 M46.751,56.456l0.014-0.091l0.03-0.067l0.055-0.053l0.086-0.042l0.099-0.012l0.053,0.002l0.062,0.004l0.059,0.012
									l0.059,0.013l0.071,0.022l0.062,0.021l0.069,0.029l0.073,0.041l0.06,0.028l0.064,0.043l0.056,0.042l0.062,0.053l0.063,0.044
									l0.041,0.053l0.06,0.049l0.042,0.056l0.082,0.105l0.042,0.108l0.021,0.054l0.012,0.035l-0.008,0.092l-0.017,0.071
									l-0.051,0.062l-0.075,0.037l-0.102,0.02l-0.056,0.009L47.78,57.28l-0.069-0.005l-0.07-0.018l-0.064-0.021l-0.072-0.024
									l-0.073-0.031l-0.065-0.04l-0.067-0.029l-0.075-0.039l-0.062-0.042l-0.06-0.054l-0.058-0.043l-0.06-0.057l-0.051-0.058
									l-0.044-0.056l-0.073-0.109l-0.044-0.107l-0.01-0.034L46.751,56.456z M33.78,58.11L33.78,58.11l-0.053-0.039L33.78,58.11z
									 M31.78,56.873l0.083-0.084l1.071-0.062l0.229,0.118l0.535,1.265l-0.083,0.106l-1.149,0.081l0.051,0.013l-0.039,0.06
									l-0.006,0.001l-0.254-0.147l-0.002-0.002l0.066-0.03L31.78,56.873z"></path>
							</g>
						</g>
					</g>
				</g>
			</g>
		</g>
		<polygon fill-rule="evenodd" clip-rule="evenodd" fill="#010101" points="46.025,57.268 45.961,57.229 45.949,57.17 
			46.042,57.147 46.06,57.209 46.003,57.166 46.025,57.268 46.025,57.268 		"></polygon>
		<polygon fill-rule="evenodd" clip-rule="evenodd" fill="#010101" points="46.155,57.191 46.139,57.209 46.114,57.234 
			46.085,57.248 46.06,57.265 46.025,57.268 46.003,57.166 46.02,57.17 46.042,57.156 46.065,57.147 46.07,57.142 46.063,57.156 
			46.149,57.199 46.149,57.199 46.155,57.191 		"></polygon>
		<polygon fill-rule="evenodd" clip-rule="evenodd" fill="#010101" points="45.886,56.604 45.895,56.604 45.941,56.66 
			45.998,56.719 46.054,56.784 46.109,56.855 46.153,56.935 46.177,57.021 46.177,57.114 46.149,57.199 46.063,57.156 
			46.081,57.098 46.077,57.042 46.06,56.975 46.02,56.913 45.972,56.843 45.921,56.785 45.862,56.728 45.819,56.675 45.824,56.676 
			45.886,56.604 45.886,56.604 		"></polygon>
		<polygon fill-rule="evenodd" clip-rule="evenodd" fill="#010101" points="45.025,56.354 45.017,56.352 45.142,56.354 
			45.259,56.354 45.369,56.376 45.474,56.388 45.583,56.416 45.683,56.465 45.789,56.524 45.886,56.604 45.824,56.676 
			45.727,56.613 45.636,56.559 45.551,56.515 45.458,56.489 45.351,56.472 45.247,56.459 45.138,56.456 45.03,56.459 45.033,56.45 
			45.015,56.359 45.015,56.359 45.025,56.354 		"></polygon>
		<polygon fill-rule="evenodd" clip-rule="evenodd" fill="#010101" points="35.876,56.835 35.917,56.809 45.015,56.359 
			45.033,56.45 35.931,56.907 35.971,56.881 35.876,56.835 35.876,56.835 		"></polygon>
		<polygon fill-rule="evenodd" clip-rule="evenodd" fill="#010101" points="35.662,57.154 35.562,57.12 35.571,57.052 
			35.587,56.997 35.616,56.935 35.653,56.892 35.701,56.861 35.767,56.838 35.836,56.813 35.917,56.809 35.931,56.907 
			35.855,56.922 35.787,56.938 35.754,56.941 35.721,56.971 35.706,56.997 35.679,57.027 35.665,57.069 35.667,57.132 
			35.571,57.099 35.662,57.154 35.662,57.154 		"></polygon>
		<g>
			<polygon fill="none" points="35.917,56.811 35.931,56.907 35.917,56.811 			"></polygon>
			<g>
				<polygon fill="none" points="35.667,57.132 35.679,57.073 35.707,57.012 35.73,56.966 35.781,56.935 35.838,56.922 
					35.919,56.911 35.931,56.907 45.033,56.45 45.185,56.463 45.309,56.459 45.429,56.475 45.541,56.496 45.642,56.546 
					45.731,56.599 45.819,56.675 45.912,56.784 45.998,56.884 46.06,56.981 46.089,57.053 46.089,57.102 46.07,57.142 
					46.009,57.176 45.899,57.201 45.745,57.22 36.392,57.701 36.385,57.7 36.254,57.694 36.125,57.66 36.009,57.604 35.912,57.55 
					35.83,57.469 35.771,57.385 35.719,57.306 35.679,57.237 35.672,57.188 				"></polygon>
				<g>
					<path fill="none" d="M35.679,57.073l-0.013,0.059l0.006,0.057l0.007,0.049l0.04,0.068l0.052,0.079l0.059,0.084l0.082,0.081
						l0.098,0.055l0.116,0.056l0.129,0.034l0.131,0.006l0.007,0.001l9.353-0.481l0.154-0.019l0.11-0.025l0.061-0.034l0.02-0.04
						v-0.049l-0.029-0.071l-0.062-0.098l-0.086-0.1l-0.093-0.109l-0.088-0.076l-0.089-0.053l-0.102-0.05l-0.111-0.021l-0.12-0.016
						l-0.124,0.004l-0.152-0.013l-9.102,0.457l-0.012,0.004l-0.081,0.011l-0.058,0.013l-0.051,0.031l-0.023,0.046L35.679,57.073z
						 M35.808,57.016l9.103-0.457l0.003-0.013l0.123,0.01h0.117l0.11,0.021l0.104,0.01l0.109,0.028l0.099,0.05l0.1,0.057
						l0.105,0.083l0.039,0.042l0.036,0.037l0.032,0.042l0.028,0.032l0.041,0.046l0.03,0.048l0.025,0.039l0.027,0.041l0.001,0.017
						l-0.094,0.022l0.002,0.018l-0.023-0.046l-0.025-0.04l-0.035-0.037l-0.024-0.038l-0.029-0.033l-0.034-0.043l-0.034-0.035
						l-0.043-0.036l0.003-0.003l-0.082-0.062l-0.089-0.062l-0.089-0.039L45.35,56.69l-0.104-0.021l-0.104-0.01l-0.114-0.009
						l-0.111,0.004l-9.099,0.45L35.808,57.016z"></path>
					<g>
						<path fill="none" d="M35.679,57.073l-0.013,0.059l0.006,0.057l0.007,0.049l0.04,0.068l0.052,0.079l0.059,0.084l0.082,0.081
							l0.098,0.055l0.116,0.056l0.129,0.034l0.131,0.006l0.007,0.001l9.353-0.481l0.154-0.019l0.11-0.025l0.061-0.034l0.02-0.04
							v-0.049l-0.029-0.071l-0.062-0.098l-0.086-0.1l-0.093-0.109l-0.088-0.076l-0.089-0.053l-0.102-0.05l-0.111-0.021l-0.12-0.016
							l-0.124,0.004l-0.152-0.013l-9.102,0.457l-0.012,0.004l-0.081,0.011l-0.058,0.013l-0.051,0.031l-0.023,0.046L35.679,57.073z"></path>
						<g>
							<polygon fill="none" points="35.707,57.012 35.73,56.966 35.781,56.935 35.838,56.922 35.892,56.915 35.818,57.058 
								44.919,56.602 45.037,56.602 45.145,56.604 45.255,56.626 45.361,56.638 45.46,56.664 45.556,56.705 45.655,56.769 
								45.748,56.838 45.779,56.881 45.813,56.915 45.848,56.957 45.883,56.993 45.908,57.032 45.943,57.075 45.969,57.114 
								45.998,57.163 46,57.178 45.899,57.201 45.745,57.22 36.392,57.701 36.385,57.7 36.254,57.694 36.125,57.66 36.009,57.604 
								35.912,57.55 35.83,57.469 35.771,57.385 35.719,57.306 35.679,57.237 35.672,57.188 35.667,57.132 35.679,57.073 							"></polygon>
							<polygon fill="#010101" points="45.969,57.114 45.943,57.075 45.908,57.032 45.883,56.993 45.848,56.957 45.813,56.915 
								45.779,56.881 45.748,56.838 45.655,56.769 45.556,56.705 45.46,56.664 45.361,56.638 45.255,56.626 45.145,56.604 
								45.037,56.602 44.919,56.602 35.818,57.058 35.892,56.915 35.919,56.911 35.931,56.907 45.033,56.45 45.185,56.463 
								45.309,56.459 45.429,56.475 45.541,56.496 45.642,56.546 45.731,56.599 45.819,56.675 45.912,56.784 45.998,56.884 
								46.06,56.981 46.089,57.053 46.089,57.102 46.07,57.142 46.009,57.176 46,57.178 45.998,57.163 							"></polygon>
							<g>
								<polygon fill="none" points="35.684,57.064 35.69,57.062 35.739,57.062 35.818,57.058 35.895,56.915 35.919,56.911 
									35.931,56.907 45.033,56.45 45.185,56.463 45.309,56.459 45.429,56.475 45.541,56.496 45.642,56.546 45.731,56.599 
									45.819,56.675 45.912,56.784 45.998,56.884 46.06,56.981 46.089,57.053 46.089,57.102 46.07,57.142 46.009,57.176 
									46,57.178 45.899,57.201 45.745,57.22 36.392,57.701 36.385,57.7 36.254,57.694 36.125,57.66 36.009,57.604 35.912,57.55 
									35.83,57.469 35.771,57.385 35.719,57.306 35.679,57.237 35.672,57.188 35.667,57.132 35.679,57.073 								"></polygon>
								<path fill="#010101" d="M35.562,57.12l0.009,0.089l0.02,0.06l0.025,0.088l0.062,0.1l0.075,0.078l0.095,0.088l0.116,0.078
									l0.128,0.058l0.137,0.035l0.164,0.003l9.351-0.476l0.179-0.018l0.124-0.027l0.094-0.066l0.049-0.083v-0.087l-0.035-0.104
									l-0.067-0.102l-0.094-0.117l-0.097-0.111l-0.104-0.089l-0.11-0.066l-0.106-0.052l-0.117-0.022l-0.143-0.024h-0.139
									l-0.161,0.009l-9.098,0.449v0.002l-0.097,0.006l-0.1,0.037l-0.065,0.056l-0.046,0.063l-0.027,0.069L35.562,57.12z
									 M35.667,57.132l0.013-0.059l0.005-0.009l0.006-0.003h0.049l0.079-0.004l0.077-0.143l0.024-0.004l0.012-0.004l9.102-0.457
									l0.152,0.013l0.124-0.004l0.12,0.016l0.111,0.021l0.102,0.05l0.089,0.053l0.088,0.076l0.093,0.109l0.086,0.1l0.062,0.098
									l0.029,0.071v0.049l-0.02,0.04l-0.061,0.034L46,57.178l-0.102,0.023l-0.154,0.019l-9.353,0.481L36.385,57.7l-0.131-0.006
									l-0.129-0.034l-0.116-0.056l-0.098-0.055l-0.082-0.081l-0.059-0.084l-0.052-0.079l-0.04-0.068l-0.007-0.049L35.667,57.132z"></path>
							</g>
						</g>
					</g>
				</g>
			</g>
		</g>
	</g>
</g>
<rect x="19.264" y="5.684" fill="#E7E7E7" width="38.432" height="6.17"></rect>

</svg>