<svg version="1.1" id="Layer_1" xmlns="http://www.w3.org/2000/svg" xmlns:xlink="http://www.w3.org/1999/xlink" x="0px" y="0px" width="675" height="600" viewBox="0 0 675 600" enable-background="new 0 0 162 144" xml:space="preserve">
<rect fill="#808285" width="162" height="144"></rect>
<path fill="#FFFFFF" stroke="#ED1C24" stroke-miterlimit="10" d="M11.251,130.455L78.75,13.545c1.243-2.152,3.258-2.152,4.5,0
	l67.498,116.91c1.242,2.152,0.235,3.897-2.25,3.897H13.501C11.016,134.353,10.009,132.607,11.251,130.455z"></path>
<rect x="93.762" y="1" fill="#E7E7E7" width="66.546" height="23.021"></rect>
<rect x="103.606" y="31" fill="#E7E7E7" width="55.355" height="8.875"></rect>













<polygon fill="#F9A61C" points="161.595,115.048 129.629,115.048 134.531,123.538 161.595,123.538 "></polygon>
<line fill="none" stroke="#F9A61C" stroke-width="1.0769" x1="95.983" y1="115.315" x2="162" y2="115.315"></line>
<line fill="none" stroke="#EB242B" stroke-width="1.0769" x1="100.01" y1="104.882" x2="135.668" y2="104.882"></line>
<line fill="none" stroke="#2DA6DE" stroke-width="1.0769" stroke-dasharray="1.3288" x1="98.996" y1="85.276" x2="120.026" y2="85.276"></line>
<g>
	<path fill="#EB242B" d="M99.001,81.796c0,0.206-0.092,0.408-0.28,0.604l-0.028,0.028l-1.637,1.725
		c-0.347,0.363-0.643,0.646-0.887,0.846c-0.245,0.2-0.418,0.3-0.52,0.3c-0.105,0-0.235-0.05-0.394-0.15
		c-0.157-0.1-0.258-0.201-0.306-0.308c-0.037-0.09-0.074-0.274-0.108-0.562c-0.033-0.285-0.052-0.596-0.052-0.929
		c0-0.183,0.076-0.35,0.228-0.505c0.152-0.153,0.319-0.23,0.503-0.23c0.175,0,0.279,0.159,0.312,0.479
		c0.003,0.037,0.007,0.065,0.008,0.082c0.028,0.246,0.062,0.416,0.098,0.514c0.036,0.096,0.088,0.146,0.15,0.146
		c0.027,0,0.076-0.027,0.15-0.086c0.07-0.057,0.158-0.135,0.259-0.233l1.681-1.665c0.142-0.142,0.267-0.248,0.379-0.32
		c0.111-0.074,0.205-0.108,0.283-0.108c0.057,0,0.1,0.021,0.124,0.065s0.036,0.118,0.036,0.223V81.796z"></path>
</g>
<g>
	<path fill="#EB242B" d="M99.612,101.356c0,0.206-0.095,0.408-0.281,0.604l-0.028,0.029l-1.636,1.723
		c-0.349,0.365-0.645,0.647-0.889,0.848c-0.245,0.199-0.417,0.298-0.518,0.298c-0.105,0-0.237-0.049-0.396-0.148
		c-0.156-0.1-0.258-0.203-0.304-0.309c-0.039-0.088-0.076-0.276-0.109-0.562c-0.035-0.285-0.051-0.596-0.051-0.929
		c0-0.183,0.075-0.35,0.227-0.504c0.152-0.154,0.319-0.231,0.503-0.231c0.174,0,0.279,0.16,0.312,0.479
		c0.005,0.038,0.006,0.064,0.009,0.082c0.029,0.246,0.062,0.417,0.098,0.514c0.037,0.098,0.087,0.145,0.15,0.145
		c0.027,0,0.076-0.027,0.148-0.084c0.073-0.058,0.16-0.136,0.261-0.235l1.681-1.664c0.142-0.143,0.268-0.248,0.378-0.321
		c0.11-0.072,0.206-0.107,0.284-0.107c0.058,0,0.099,0.022,0.125,0.066c0.022,0.042,0.036,0.118,0.036,0.222V101.356z"></path>
</g>

<g>
	<path fill="#EB242B" d="M134.617,3.358c0,0.173-0.079,0.343-0.236,0.509l-0.024,0.025l-1.382,1.454
		c-0.294,0.31-0.543,0.547-0.749,0.716c-0.207,0.168-0.353,0.252-0.438,0.252c-0.09,0-0.2-0.042-0.334-0.126
		c-0.132-0.083-0.217-0.171-0.257-0.259c-0.033-0.075-0.062-0.234-0.093-0.476c-0.027-0.24-0.043-0.501-0.043-0.782
		c0-0.156,0.064-0.297,0.191-0.426c0.129-0.131,0.271-0.196,0.426-0.196c0.147,0,0.234,0.134,0.264,0.404
		c0.002,0.032,0.006,0.056,0.006,0.07c0.024,0.206,0.052,0.351,0.082,0.432c0.033,0.083,0.075,0.124,0.129,0.124
		c0.021,0,0.063-0.024,0.126-0.073c0.061-0.049,0.133-0.114,0.218-0.197l1.419-1.405c0.12-0.12,0.227-0.209,0.32-0.271
		s0.174-0.092,0.239-0.092c0.049,0,0.084,0.019,0.105,0.055c0.021,0.039,0.03,0.101,0.03,0.189V3.358z"></path>
</g>
<g>
	<circle fill-rule="evenodd" clip-rule="evenodd" fill="#010101" cx="105.038" cy="12.287" r="10.164"></circle>
	<circle fill-rule="evenodd" clip-rule="evenodd" fill="#B7D334" cx="105.045" cy="12.344" r="9.24"></circle>
	<g>
		<path fill="#010101" d="M103.066,10.329c-0.128,1.132-0.224,2.043-0.288,2.728l-0.42,0.02c0.005-0.023,0.008-0.049,0.009-0.078
			c0.002-0.05-0.019-0.119-0.056-0.202c-0.04-0.083-0.062-0.137-0.067-0.161c-0.108,0.016-0.213,0.092-0.313,0.227
			c-0.1,0.136-0.188,0.204-0.27,0.203c-0.046-0.002-0.097-0.014-0.154-0.037c-0.075,0.05-0.172,0.071-0.293,0.064
			c-0.109-0.02-0.214-0.036-0.317-0.049c-0.004-0.143-0.145-0.269-0.423-0.376c0.001-0.057-0.027-0.143-0.086-0.255
			c-0.059-0.113-0.088-0.191-0.086-0.238c0-0.052,0.021-0.093,0.061-0.128c-0.005-0.016-0.052-0.124-0.139-0.32
			c-0.062-0.146-0.09-0.269-0.089-0.371c0.001-0.081,0.02-0.153,0.056-0.223c-0.05-0.488-0.071-0.906-0.065-1.255
			c0.01-0.538,0.087-1.033,0.232-1.483c-0.012-0.067-0.016-0.138-0.014-0.206c0.006-0.362,0.131-0.611,0.373-0.75l0.002-0.111
			c0.24-0.305,0.556-0.526,0.947-0.663c0.234,0.056,0.469,0.108,0.704,0.159c0.261,0.089,0.441,0.244,0.54,0.464
			c0.081,0.048,0.119,0.142,0.116,0.286c-0.002,0.159,0.017,0.264,0.055,0.309l-0.044,0.051c0.047,0.339,0.069,0.546,0.066,0.62
			c-0.003,0.217-0.06,0.371-0.17,0.46c-0.041,0-0.146-0.036-0.316-0.108c-0.04,0.04-0.085,0.058-0.13,0.058
			c-0.023,0-0.064-0.013-0.124-0.037c-0.061-0.022-0.109-0.035-0.15-0.035c-0.028,0-0.058,0.003-0.086,0.014
			c-0.003-0.452,0.011-0.79,0.043-1.014c-0.045-0.028-0.091-0.097-0.138-0.199c-0.048-0.104-0.108-0.162-0.183-0.176
			c-0.047,0.058-0.066,0.095-0.062,0.111l-0.154-0.053c-0.14,0.152-0.233,0.416-0.279,0.793c-0.047,0.435-0.107,0.723-0.178,0.866
			c0.062,0.063,0.091,0.153,0.09,0.267c-0.001,0.041-0.008,0.107-0.021,0.197c-0.015,0.091-0.02,0.161-0.021,0.207
			c-0.002,0.051,0.003,0.097,0.015,0.136l-0.105,0.102c0.043,0.196,0.067,0.443,0.073,0.741c-0.004,0.252-0.005,0.504-0.004,0.756
			c-0.006,0-0.054,0.002-0.146,0.007c-0.057-0.002-0.099,0.017-0.121,0.058c0.034-0.005,0.066-0.007,0.095-0.007
			c0.125,0.002,0.225,0.091,0.296,0.267c0.072,0.175,0.133,0.264,0.185,0.268c0.058,0,0.137-0.054,0.236-0.162
			c0.168-0.18,0.256-0.428,0.261-0.742c0.003-0.155-0.014-0.322-0.052-0.499c-0.04,0.021-0.062,0.079-0.062,0.17
			c-0.093-0.002-0.15,0.018-0.174,0.057c-0.039-0.012-0.056-0.044-0.049-0.095c0.006-0.075,0.01-0.114,0.01-0.12
			c0.069-0.021,0.104-0.052,0.105-0.094c0-0.016-0.012-0.047-0.038-0.094c-0.024-0.046-0.036-0.083-0.036-0.113
			c0-0.022,0.007-0.044,0.019-0.068l0.04-0.335c0.125,0.038,0.396,0.054,0.816,0.05c-0.014,0.027,0.004,0.065,0.049,0.111
			c0.041-0.04,0.084-0.06,0.13-0.057c0.034,0,0.085,0.015,0.154,0.045C102.988,10.314,103.037,10.329,103.066,10.329z"></path>
		<path fill="#010101" d="M106.272,13.288c-0.078-0.036-0.165-0.053-0.256-0.056c-0.08-0.002-0.189,0.015-0.327,0.047
			c-0.156,0.031-0.262,0.049-0.319,0.054c-0.062-0.122-0.104-0.289-0.129-0.5c-0.047-0.31-0.076-0.486-0.087-0.526
			c0.02-0.034,0.028-0.063,0.028-0.085c0-0.064-0.049-0.121-0.147-0.172c-0.1-0.049-0.148-0.09-0.147-0.118
			c0-0.034,0.059-0.084,0.174-0.151c-0.028-0.035-0.05-0.106-0.062-0.21c-0.012-0.107-0.038-0.177-0.077-0.213
			c-0.07,0.062-0.184,0.102-0.342,0.12s-0.264,0.042-0.315,0.076c0.004,0.445-0.069,0.747-0.222,0.897
			c-0.08-0.018-0.141,0.012-0.182,0.091c-0.059,0.096-0.109,0.154-0.149,0.17l0.051,0.062c-0.047,0.039-0.122,0.055-0.225,0.048
			c-0.16-0.009-0.246-0.013-0.258-0.013l-0.049-0.157l0.561-4.638c0.005-0.292,0.02-0.49,0.044-0.593
			c-0.008-0.259,0.054-0.418,0.18-0.477c0.08,0.052,0.181,0.079,0.3,0.081c0.098,0.002,0.249-0.019,0.456-0.062
			c0.208-0.042,0.352-0.063,0.431-0.062c0.281,0.005,0.404,0.208,0.368,0.608c-0.027,0.32,0.022,0.742,0.151,1.267
			c0.133,0.562,0.197,0.985,0.193,1.266c-0.002,0.085,0.026,0.263,0.02,0.35c-0.123,0.067-0.276,0.107-0.466,0.121
			c-0.167,0.009-0.336,0.018-0.508,0.025c-0.044-0.436-0.121-0.961-0.165-1.392c-0.056-0.516-0.122-0.94-0.202-1.276l-0.267,2.455
			c-0.019,0.211,0.077,0.319,0.289,0.323c0.068,0,0.133-0.016,0.197-0.049c0.053-0.017,0.123,0.022,0.214,0.115
			c-0.005,0.178,0.031,0.285,0.105,0.32c0.093-0.061,0.214-0.119,0.364-0.175c0.133-0.048,0.263-0.095,0.389-0.139
			c0.073,0.099,0.12,0.245,0.14,0.44c0.023,0.276,0.041,0.437,0.052,0.483c0.009,0.11,0.054,0.344,0.134,0.707
			c0.059,0.287,0.085,0.52,0.083,0.697C106.294,13.134,106.285,13.215,106.272,13.288z"></path>
		<path fill="#010101" d="M110.231,9.197c-0.006,0.017-0.008,0.117-0.005,0.301c-0.003,0.148-0.021,0.26-0.059,0.333
			c-0.042,0.115-0.064,0.278-0.067,0.489c-0.002,0.046,0.001,0.118,0.005,0.215c-0.003,0.097-0.003,0.169-0.003,0.215
			c-0.008,0.36-0.068,0.622-0.188,0.787c0.011,0.093,0.016,0.184,0.015,0.275c-0.005,0.286-0.104,0.671-0.296,1.155
			c-0.051,0.018-0.095,0.025-0.129,0.024c-0.068-0.001-0.118-0.041-0.149-0.119c-0.029-0.077-0.059-0.15-0.085-0.22
			c0.019-0.441,0.009-1.083-0.028-1.926l0.053-0.05c-0.039-0.15-0.055-0.316-0.052-0.5c0.002-0.131,0.019-0.323,0.048-0.575
			c0.03-0.251,0.047-0.44,0.049-0.567c0.002-0.079,0-0.156-0.003-0.231c-0.198,0.472-0.338,1.272-0.421,2.399l-0.072,0.169
			c-0.023,0.059-0.073,0.088-0.146,0.094c-0.023-0.041-0.046-0.061-0.069-0.062c-0.018,0-0.047,0.02-0.092,0.063
			c-0.043,0.041-0.079,0.061-0.107,0.054l-0.113,0.1c0.05,0.064,0.158,0.073,0.326,0.025c0.132-0.039,0.199,0.012,0.203,0.149
			c0.004,0.114-0.027,0.268-0.094,0.462c-0.065,0.193-0.1,0.339-0.101,0.436c-0.003,0.069,0.005,0.138,0.021,0.207l-0.595,0.093
			c-0.056-0.115-0.097-0.309-0.124-0.582c-0.026-0.273-0.067-0.467-0.122-0.582c0.034-0.04,0.052-0.082,0.054-0.128
			c0-0.04-0.017-0.101-0.05-0.181c-0.032-0.081-0.052-0.142-0.058-0.183c-0.003-0.061-0.023-0.215-0.061-0.455
			c-0.025-0.195-0.037-0.348-0.035-0.456c0.001-0.058,0.006-0.108,0.012-0.155c0-0.04-0.022-0.099-0.066-0.177
			c-0.044-0.078-0.066-0.134-0.065-0.169c0-0.028,0.013-0.053,0.036-0.076c-0.04-0.047-0.056-0.126-0.048-0.241
			c0.008-0.114-0.008-0.196-0.047-0.241c-0.084,0.22-0.129,0.521-0.136,0.898c-0.004,0.527-0.009,0.831-0.016,0.911l0.059,0.054
			l-0.061,0.049c0.042,0.207,0.061,0.47,0.055,0.792c-0.015,0.578-0.022,0.847-0.022,0.808c-0.08,0.073-0.193,0.108-0.336,0.106
			c-0.178-0.003-0.299,0.013-0.362,0.045c-0.072-0.127-0.107-0.291-0.104-0.492c0.003-0.154,0.029-0.343,0.079-0.566
			c-0.079-0.144-0.115-0.345-0.11-0.604c0-0.063,0.009-0.183,0.023-0.361c0.008-0.141,0.01-0.248,0.006-0.317
			c0.057-0.027,0.088-0.059,0.088-0.093c0-0.021-0.018-0.062-0.055-0.117s-0.056-0.096-0.054-0.126
			c0.001-0.034,0.023-0.068,0.069-0.102l-0.185-2.778c0.11-0.073,0.289-0.108,0.536-0.103c0.268,0.012,0.452-0.004,0.55-0.042
			c0.017-0.012,0.037-0.017,0.061-0.017c0.023,0.001,0.05,0.014,0.081,0.041c0.031,0.025,0.053,0.04,0.063,0.04
			c0.022,0,0.044-0.018,0.062-0.051l0.161,0.158c0.053,0.202,0.104,0.592,0.151,1.17c0.049,0.499,0.126,0.877,0.23,1.13
			c0.14-0.508,0.256-0.933,0.349-1.274l0.186-1.361l1.333-0.028c0.004,0.074,0.021,0.473,0.056,0.703
			c0.031,0.201,0.047,0.364,0.045,0.49c-0.003,0.143-0.025,0.272-0.068,0.385c0.046,0.064,0.067,0.145,0.065,0.241
			C110.302,9.056,110.278,9.133,110.231,9.197z"></path>
		<path fill="#010101" d="M112.966,12.208v-0.009c-0.035,0.074-0.059,0.159-0.065,0.256c-0.006,0.063-0.009,0.152-0.005,0.267
			c0.004,0.131,0.005,0.223,0.005,0.275c-0.047,0-0.229-0.005-0.549-0.009c-0.197-0.003-0.371,0.013-0.526,0.051l-0.161-0.174
			c-0.047,0.044-0.064,0.081-0.054,0.109c-0.028-0.006-0.159-0.007-0.395-0.007c-0.183-0.002-0.321-0.022-0.411-0.058
			c-0.095,0.096-0.202,0.094-0.327-0.006c-0.045-0.034-0.05-0.094-0.015-0.176c0.036-0.083,0.025-0.145-0.03-0.186
			c0.009-0.182,0.034-0.465,0.074-0.849c0.04-0.343,0.062-0.612,0.065-0.806c0.003-0.264-0.015-0.517-0.057-0.758
			c0.064-0.061,0.136-0.092,0.217-0.09c0.092,0,0.2,0.046,0.324,0.134c0.176,0.122,0.267,0.186,0.272,0.186l0.05,0.06
			c0.007-0.017,0.037-0.107,0.091-0.272c0.03-0.109,0.074-0.181,0.132-0.214l0.052,0.054c0.022-0.011,0.099-0.064,0.227-0.16
			c0.097-0.068,0.179-0.227,0.235-0.225c0.062,0,0.122,0.036,0.178,0.106c0.098,0.053,0.158,0.258,0.188,0.364
			c0.03,0.107,0.06,0.212,0.086,0.316c-0.258,0.006-0.471,0-0.636-0.02c-0.042,0.062-0.098,0.072-0.173,0.027
			c-0.072-0.043-0.127-0.038-0.163,0.017c-0.002,0.105-0.005,0.292-0.01,0.559c-0.01,0.241-0.013,0.431-0.01,0.568
			c0.002,0.211,0.016,0.406,0.042,0.584c0.046,0.001,0.264,0.006,0.652,0.012C112.54,12.141,112.771,12.163,112.966,12.208z
			 M112.983,8.092c-0.052,0.004-0.109,0.008-0.172,0.007c-0.132-0.003-0.307-0.023-0.523-0.062c-0.27-0.038-0.431-0.061-0.489-0.068
			c-0.081,0.12-0.124,0.288-0.129,0.505c-0.008,0.471-0.008,0.673-0.001,0.61c0.078,0.046,0.118,0.134,0.116,0.261
			c-0.01,0.171-0.01,0.26-0.004,0.266c-0.041,0.016-0.062,0.074-0.063,0.17c-0.063-0.023-0.128-0.071-0.196-0.141
			c-0.09-0.088-0.138,0.209-0.131,0.135l-0.056,0.178l-0.05-0.053c-0.047,0.004-0.124-0.021-0.234-0.074
			c-0.111-0.054-0.189-0.103-0.235-0.15c0.003-0.091,0.018-0.142,0.047-0.154l-0.11-0.121l-0.053,0.075
			c-0.064-0.596-0.049-1.712,0.031-2.341c0.216,0.038,0.457,0.062,0.721,0.072c0.177,0.009,0.426,0.014,0.747,0.014
			c0.367,0,0.632,0.001,0.791,0.003c0.067,0.064,0.1,0.147,0.1,0.251c-0.001,0.063-0.019,0.165-0.053,0.304
			S112.984,8.024,112.983,8.092z"></path>
	</g>
	<g>
		<path fill="#010101" d="M103.324,17.404v-0.005c0,0.003-0.015,0.13-0.044,0.379c-0.016,0.153-0.053,0.274-0.112,0.362l-0.037-0.03
			c-0.07,0.145-0.163,0.233-0.284,0.266c-0.057,0.061-0.14,0.093-0.248,0.101c-0.064,0.003-0.213-0.015-0.444-0.057
			c-0.113-0.069-0.175-0.108-0.186-0.116c-0.071-0.052-0.104-0.105-0.101-0.161c-0.068-0.069-0.165-0.194-0.201-0.35
			c-0.043-0.172-0.07-0.181-0.11-0.243c-0.065,0.049-0.088-0.053-0.127-0.114l0.035-0.026c-0.022-0.015-0.033-0.034-0.035-0.051
			c0-0.014,0.006-0.034,0.018-0.061c0.013-0.027,0.019-0.046,0.018-0.061c-0.001-0.021-0.014-0.039-0.039-0.055
			c0.026-0.135,0.05-0.337,0.071-0.608c0.047-0.025,0.068-0.072,0.065-0.144c-0.002-0.07,0.008-0.117,0.029-0.14
			c0.11-0.22,0.287-0.367,0.534-0.444c0.013,0.002,0.079,0.001,0.197-0.003c0.081-0.001,0.144,0.006,0.185,0.022
			c0.074-0.013,0.147,0.005,0.222,0.052c0.063,0.049,0.128,0.097,0.191,0.146c0.119,0.128,0.183,0.275,0.193,0.438
			c0.002,0.054,0,0.11-0.012,0.17c-0.088-0.001-0.15,0.056-0.188,0.176l-0.343,0.033c-0.036-0.052-0.058-0.123-0.062-0.21
			c-0.002-0.03-0.002-0.074,0-0.13c0.001-0.059,0.001-0.101,0-0.13c-0.006-0.09-0.026-0.16-0.064-0.214l-0.103,0.06
			c-0.042-0.016-0.063-0.041-0.065-0.075c-0.001-0.011,0.001-0.025,0.006-0.046c0.003-0.02,0.005-0.035,0.005-0.043
			c-0.003-0.035-0.034-0.057-0.095-0.064c-0.043,0.387-0.056,0.784-0.038,1.191c0.011,0.014,0.043,0.023,0.098,0.029
			c0.044,0.005,0.066,0.018,0.068,0.04c0,0.008-0.003,0.019-0.008,0.033l-0.035,0.027c0.02,0.028,0.03,0.069,0.033,0.12
			c0.002,0.028,0,0.07-0.003,0.125c-0.003,0.057-0.005,0.098-0.003,0.125c0.006,0.082,0.025,0.144,0.062,0.185
			c-0.004,0.06,0.021,0.102,0.072,0.123c0.034-0.013,0.063-0.021,0.092-0.021c0.104-0.007,0.177,0.05,0.218,0.169
			c0,0.004-0.001,0.024-0.002,0.063c0.002,0.021,0.012,0.035,0.033,0.042c0.046-0.027,0.068-0.076,0.068-0.147
			c-0.002-0.082,0.009-0.134,0.031-0.157c-0.007-0.038-0.028-0.092-0.068-0.163c-0.04-0.072-0.061-0.127-0.063-0.169
			c-0.002-0.042,0.011-0.084,0.039-0.124c-0.024-0.008-0.035-0.023-0.034-0.048c0.002-0.039,0.002-0.059,0.002-0.062
			C102.942,17.361,103.132,17.359,103.324,17.404z"></path>
		<path fill="#010101" d="M104.88,17.722h-0.004c-0.021,0.039-0.027,0.094-0.021,0.167c0.01,0.104,0.015,0.157,0.015,0.159
			c-0.015,0.006-0.037-0.001-0.062-0.023c-0.041,0.016-0.061,0.041-0.059,0.076c0,0.005,0.003,0.015,0.007,0.026
			c0,0.014,0.001,0.026,0.001,0.031c0.002,0.027-0.006,0.048-0.024,0.062c-0.046-0.026-0.104-0.042-0.18-0.05
			c-0.074-0.006-0.146-0.012-0.211-0.018c-0.002-0.345-0.049-0.683-0.139-1.012c0,0.002-0.003-0.031-0.007-0.101
			c0.001-0.054-0.011-0.088-0.034-0.109l-0.032,0.027c0-0.004,0.01-0.013,0.031-0.029c0.021-0.014,0.031-0.031,0.031-0.046
			c-0.001-0.007-0.003-0.014-0.006-0.021l-0.035-0.026c-0.059,0.021-0.086,0.068-0.081,0.143c0.003,0.051-0.018,0.087-0.061,0.106
			c0.017,0.012,0.025,0.027,0.025,0.044c0.001,0.01,0,0.025-0.004,0.042c-0.004,0.018-0.005,0.033-0.004,0.043
			c0,0.021,0.014,0.041,0.035,0.055c0.002,0.015,0.008,0.151,0.023,0.408c0.011,0.166,0.006,0.305-0.012,0.42l0.002,0.064
			c-0.021,0-0.047,0-0.075,0.001c-0.031,0.002-0.077,0.007-0.136,0.014c-0.059,0.008-0.103,0.012-0.132,0.014
			c-0.116,0.006-0.197-0.014-0.244-0.059l-0.05-1.416c-0.022-0.069-0.037-0.167-0.044-0.29l-0.017-0.273
			c-0.011-0.134-0.028-0.235-0.052-0.308c0.011-0.05,0.053-0.076,0.128-0.08c0.048-0.002,0.11,0.003,0.191,0.019
			c0.035-0.017,0.087-0.028,0.153-0.033c0.02,0,0.048,0,0.09,0c0.044-0.002,0.075-0.005,0.094-0.006
			c0.123-0.006,0.204-0.044,0.244-0.113c0.058-0.001,0.118,0.019,0.186,0.054c0.066,0.036,0.126,0.057,0.175,0.058
			c0.134,0.079,0.206,0.209,0.217,0.391c0.003,0.042-0.014,0.201-0.048,0.483l-0.229,0.198c0.039,0.072,0.086,0.229,0.141,0.467
			C104.716,17.481,104.786,17.628,104.88,17.722z M104.454,16.111l0.006,0.003c0.005,0.018,0.002-0.045-0.006-0.186
			c-0.004-0.068-0.029-0.117-0.075-0.148c-0.026,0.037,0.003,0.054-0.009,0.139c-0.013,0.086-0.062,0.062-0.092,0.1
			c-0.079,0-0.097,0.047-0.114-0.028c-0.035-0.123-0.065-0.112-0.065-0.113l-0.033,0.019c-0.013,0.011-0.026,0.023-0.041,0.037
			s-0.03,0.018-0.046,0.015c0,0.014-0.007,0.038-0.022,0.07c-0.017,0.033-0.023,0.055-0.022,0.068
			c0.001,0.023,0.021,0.039,0.057,0.051c-0.007,0.051-0.01,0.104-0.006,0.159c0.002,0.031,0.008,0.1,0.021,0.208
			c0.014,0.086,0.019,0.159,0.017,0.22c0.029,0.001,0.055,0.001,0.081,0c0.109-0.007,0.182-0.051,0.214-0.131
			c0.011-0.023,0.024-0.108,0.038-0.253C104.367,16.232,104.4,16.155,104.454,16.111z"></path>
		<path fill="#010101" d="M106.664,18.271c-0.044-0.013-0.092-0.019-0.144-0.014c-0.043,0.001-0.103,0.013-0.177,0.032
			c-0.085,0.021-0.142,0.033-0.173,0.038c-0.038-0.051-0.067-0.124-0.088-0.215c-0.038-0.135-0.06-0.212-0.066-0.229
			c0.01-0.014,0.013-0.029,0.013-0.04c-0.002-0.027-0.03-0.049-0.087-0.068c-0.057-0.018-0.085-0.034-0.085-0.047
			c-0.001-0.016,0.028-0.04,0.09-0.073c-0.017-0.015-0.029-0.045-0.041-0.092c-0.011-0.046-0.026-0.076-0.05-0.09
			c-0.037,0.032-0.097,0.053-0.183,0.067c-0.086,0.013-0.143,0.029-0.17,0.046c0.018,0.196,0,0.542-0.078,0.614
			c-0.044-0.005-0.076,0.011-0.096,0.049c-0.029,0.044-0.055,0.071-0.077,0.08l0.03,0.024c-0.023,0.02-0.064,0.029-0.12,0.03
			c-0.088,0.002-0.136,0.003-0.142,0.004l-0.033-0.067l0.134-2.276c-0.008-0.129-0.007-0.216,0.002-0.263
			c-0.012-0.113,0.016-0.186,0.082-0.217c0.047,0.02,0.101,0.028,0.167,0.024c0.054-0.002,0.137-0.017,0.248-0.044
			c0.111-0.027,0.19-0.042,0.233-0.044c0.155-0.008,0.229,0.076,0.224,0.253c-0.005,0.143,0.037,0.326,0.126,0.552
			c0.093,0.243,0.144,0.426,0.15,0.551c0.002,0.037,0.053,0.118,0.052,0.156c-0.064,0.033-0.148,0.058-0.251,0.072
			c-0.092,0.01-0.184,0.021-0.277,0.031c-0.04-0.19-0.129-0.421-0.168-0.61c-0.048-0.225-0.099-0.409-0.154-0.553l-0.061,1.091
			c-0.003,0.093,0.053,0.138,0.169,0.131c0.037-0.002,0.073-0.012,0.108-0.028c0.026-0.01,0.067,0.004,0.119,0.042
			c0.004,0.078,0.027,0.125,0.069,0.136c0.05-0.03,0.113-0.061,0.194-0.09c0.07-0.027,0.14-0.053,0.207-0.076
			c0.044,0.04,0.073,0.103,0.093,0.188c0.021,0.12,0.037,0.191,0.044,0.21c0.01,0.047,0.042,0.151,0.098,0.307
			c0.042,0.125,0.066,0.225,0.07,0.304C106.669,18.202,106.668,18.237,106.664,18.271z"></path>
		<path fill="#010101" d="M107.965,15.69h0.005c-0.037,0.055-0.086,0.065-0.146,0.031c-0.013-0.002-0.068,0.002-0.169,0.009
			c-0.084,0.006-0.146,0.001-0.186-0.012c-0.008,0.001-0.026,0.011-0.054,0.029c-0.028,0.018-0.047,0.026-0.06,0.027
			c-0.019,0.001-0.03-0.014-0.033-0.048c0-0.003-0.001-0.025-0.002-0.064c-0.003-0.025-0.016-0.042-0.036-0.05l-0.061,0.044
			c-0.018,0.015-0.026,0.029-0.024,0.044c0.001,0.012,0.011,0.03,0.03,0.053c0.021,0.022,0.032,0.039,0.036,0.048
			c0.002,0.009,0.008,0.122,0.02,0.342c0.005,0.14,0.031,0.25,0.077,0.333c0.012-0.014,0.041-0.021,0.086-0.021
			c0.046-0.001,0.075-0.013,0.09-0.03c0.029,0.025,0.08,0.028,0.149,0.004c0.069-0.024,0.12-0.016,0.151,0.023l-0.01,0.335
			c-0.028-0.004-0.071-0.018-0.125-0.042c-0.017,0.047-0.048,0.08-0.094,0.092c-0.02,0.007-0.072,0.012-0.16,0.018
			c0.003-0.016-0.012-0.031-0.041-0.047c-0.086,0.042-0.117,0.137-0.097,0.29c0.003-0.015,0.006,0.012,0.01,0.08
			c0.003,0.042-0.007,0.073-0.026,0.093c-0.055,0.008-0.122-0.003-0.205-0.036c-0.081-0.032-0.141-0.047-0.175-0.044
			c-0.015,0-0.029,0.002-0.041,0.006l-0.088,0.026l-0.142-1.53l-0.016-0.292c0.116-0.039,0.261-0.065,0.435-0.074
			c0.135-0.008,0.311-0.007,0.529,0.003c0.014-0.029,0.04,0.009,0.071,0.007c0.015-0.001,0.039,0.001,0.07,0.006
			c0.033,0.004,0.057,0.006,0.072,0.005c0.02,0,0.036-0.004,0.05-0.011l0.022-0.024c0.065,0.019,0.099,0.052,0.102,0.1
			c0.001,0.021-0.005,0.056-0.019,0.104c-0.013,0.048-0.018,0.086-0.018,0.111C107.949,15.652,107.955,15.672,107.965,15.69z
			 M107.414,18.246c-0.033,0.017-0.086,0.027-0.154,0.032c-0.092,0.005-0.146,0.01-0.164,0.013
			c-0.011-0.009-0.022-0.001-0.043-0.081c-0.014-0.053-0.047-0.078-0.099-0.074c-0.015,0-0.028,0.001-0.048,0.006l-0.084,0.006
			l-0.045-0.776c0.046-0.022,0.103-0.037,0.172-0.04c0.065-0.003,0.124,0.003,0.176,0.019c0,0.029,0.04,0.041,0.12,0.035l0.09-0.005
			C107.389,17.598,107.422,17.991,107.414,18.246z"></path>
		<path fill="#010101" d="M109.849,15.755l0.006,0.005c-0.046-0.004-0.188,0.006-0.297,0.019c-0.093,0.012-0.164,0.013-0.212,0.006
			c-0.045,0.03-0.062,0.071-0.05,0.125l0.029,0.017c-0.024,0.023-0.032,0.038-0.024,0.052l0.024,0.024
			c-0.005,0.45-0.007,0.699-0.004,0.746c0.007,0.12,0.021,0.223,0.042,0.313c-0.02,0.058-0.026,0.122-0.021,0.196
			c0.002,0.047,0.014,0.124,0.034,0.228c0.02,0.103,0.048,0.445,0.049,0.499c0.003,0.039,0.003,0.08-0.001,0.114
			c-0.044,0.019-0.091,0.028-0.141,0.032c-0.085,0.005-0.177-0.013-0.272-0.053c-0.012,0.011-0.025,0.022-0.04,0.035
			c-0.017,0.012-0.02,0.025-0.012,0.04c-0.032,0.009-0.075-0.004-0.131-0.039c-0.029-0.455-0.11-1.381-0.231-2.317
			c-0.043,0.039-0.12,0.007-0.201,0.018c-0.097,0.01-0.192-0.005-0.229,0.013c-0.047-0.051-0.037-0.065-0.041-0.149
			c-0.005-0.081-0.031-0.279-0.011-0.364c0.005-0.017,0.18-0.007,0.284-0.016c0.142-0.007,0.173,0.026,0.182,0.025
			c0.012-0.019,0.08-0.009,0.131-0.013c0.032,0.016,0.067-0.014,0.068,0.01c0.002,0.013,0,0.108-0.011,0.137
			c-0.011,0.028-0.017,0.046-0.016,0.06c0.002,0.03,0.023-0.014,0.075,0.003c0.057-0.002,0.115-0.003,0.174-0.007
			c0.068,0.007,0.144-0.017,0.139,0.039c0.01-0.015,0.018,0.012,0.113-0.026c0.07-0.033,0.113-0.115,0.101-0.172
			c-0.009-0.031,0.035-0.052,0.007-0.037c0.034-0.02,0.004-0.006,0.04-0.02c0.117,0.012,0.183-0.001,0.206-0.002
			c0.047-0.004,0.164,0.027,0.196,0.01c0.025,0.044,0.038,0.183,0.039,0.258C109.847,15.684,109.849,15.749,109.849,15.755z"></path>
		<path fill="#010101" d="M111.376,17.337l-0.001-0.002c-0.017,0.034-0.026,0.072-0.026,0.115c-0.002,0.027,0,0.067,0.008,0.118
			c0.007,0.058,0.011,0.097,0.012,0.12c-0.026,0.001-0.127,0.007-0.303,0.019c-0.106,0.005-0.201,0.02-0.286,0.043l-0.094-0.072
			c-0.023,0.022-0.031,0.04-0.024,0.052c-0.016-0.002-0.088,0.002-0.217,0.012c-0.101,0.006-0.177,0.003-0.229-0.008
			c-0.048,0.045-0.106,0.049-0.179,0.011c-0.025-0.014-0.03-0.04-0.013-0.079c0.016-0.038,0.008-0.064-0.024-0.081
			c-0.001-0.079,0.002-0.206,0.012-0.376c0.01-0.153,0.013-0.273,0.007-0.358c-0.007-0.116-0.025-0.227-0.057-0.331
			c0.032-0.029,0.071-0.046,0.115-0.049c0.05-0.003,0.11,0.013,0.184,0.046c0.1,0.049,0.151,0.072,0.154,0.072l0.029,0.024
			c0.003-0.008,0.017-0.049,0.041-0.124c0.012-0.049,0.034-0.082,0.064-0.099l0.03,0.02c0.012-0.005,0.052-0.031,0.117-0.078
			c0.053-0.034,0.088-0.157,0.119-0.158c0.034-0.004,0.068,0.01,0.102,0.039c0.055,0.02,0.098,0.158,0.118,0.204
			c0.021,0.045,0.038,0.09,0.058,0.135c-0.142,0.013-0.258,0.019-0.349,0.017c-0.021,0.029-0.053,0.035-0.094,0.019
			c-0.042-0.017-0.071-0.011-0.089,0.015c0.003,0.045,0.007,0.127,0.014,0.245c0.004,0.108,0.009,0.19,0.016,0.251
			c0.007,0.094,0.023,0.178,0.042,0.257c0.025-0.002,0.146-0.009,0.358-0.02C111.14,17.324,111.268,17.325,111.376,17.337z
			 M111.229,15.555c-0.027,0.003-0.06,0.007-0.094,0.008c-0.072,0.004-0.168,0.003-0.289-0.005
			c-0.149-0.007-0.238-0.011-0.271-0.012c-0.04,0.055-0.045,0.102-0.04,0.197c0.013,0.207,0.021,0.296,0.021,0.269
			c0.046,0.018,0.07,0.054,0.071,0.111c0.003,0.075,0.005,0.113,0.009,0.115c-0.021,0.01-0.031,0.036-0.029,0.079
			c-0.034-0.008-0.073-0.027-0.112-0.054c-0.052-0.035-0.069,0.088-0.067,0.056l-0.024,0.077l-0.03-0.021
			c-0.023,0.003-0.067-0.004-0.13-0.023c-0.063-0.019-0.106-0.038-0.134-0.057c-0.001-0.04,0.005-0.062,0.021-0.069l-0.065-0.049
			l-0.026,0.036c-0.056-0.261-0.093-0.72-0.071-1c0.12,0.008,0.261-0.012,0.405-0.018c0.097-0.005,0.234-0.011,0.411-0.023
			c0.199-0.015,0.344-0.025,0.431-0.031c0.04,0.027,0.062,0.062,0.063,0.108c0.002,0.028-0.004,0.073-0.018,0.135
			C111.246,15.447,111.228,15.524,111.229,15.555z"></path>
		<path fill="#010101" d="M112.942,17.068h-0.005c-0.019,0.04-0.024,0.096-0.018,0.168c0.01,0.104,0.014,0.157,0.014,0.16
			c-0.015,0.005-0.037-0.001-0.062-0.022c-0.041,0.014-0.06,0.04-0.058,0.075c0.001,0.006,0.003,0.014,0.006,0.026
			c0.002,0.014,0.002,0.025,0.003,0.03c0.002,0.028-0.007,0.049-0.025,0.063c-0.046-0.026-0.105-0.042-0.18-0.049
			c-0.074-0.007-0.146-0.014-0.212-0.02c-0.002-0.345-0.047-0.682-0.139-1.011c0,0.002-0.002-0.032-0.006-0.103
			c0-0.052-0.012-0.086-0.035-0.108l-0.031,0.028c0-0.005,0.01-0.015,0.031-0.03c0.021-0.015,0.032-0.031,0.03-0.046
			c-0.001-0.007-0.003-0.015-0.006-0.022l-0.034-0.025c-0.06,0.019-0.087,0.066-0.081,0.142c0.002,0.051-0.019,0.087-0.061,0.106
			c0.016,0.012,0.025,0.026,0.025,0.043c0.002,0.011,0,0.026-0.004,0.042c-0.004,0.019-0.006,0.034-0.005,0.043
			c0.001,0.022,0.013,0.042,0.036,0.056c0.001,0.015,0.009,0.151,0.023,0.409c0.009,0.164,0.006,0.304-0.013,0.419l0.004,0.064
			c-0.022-0.001-0.048-0.001-0.076,0.001c-0.031,0.002-0.077,0.006-0.137,0.013c-0.06,0.008-0.103,0.012-0.131,0.015
			c-0.116,0.006-0.198-0.013-0.244-0.06l-0.05-1.414c-0.023-0.071-0.038-0.168-0.045-0.291l-0.016-0.272
			c-0.011-0.135-0.027-0.238-0.051-0.309c0.01-0.05,0.052-0.076,0.127-0.08c0.048-0.003,0.111,0.003,0.191,0.018
			c0.036-0.017,0.087-0.027,0.152-0.031c0.019-0.001,0.05-0.001,0.09-0.001c0.044-0.002,0.076-0.006,0.095-0.007
			c0.122-0.006,0.204-0.044,0.244-0.112c0.057,0,0.118,0.018,0.185,0.053c0.066,0.038,0.126,0.056,0.177,0.058
			c0.134,0.08,0.206,0.209,0.216,0.392c0.003,0.041-0.013,0.2-0.047,0.482l-0.23,0.2c0.039,0.071,0.087,0.226,0.143,0.466
			C112.779,16.829,112.85,16.975,112.942,17.068z M112.518,15.458l0.007,0.002c0.003,0.018,0.001-0.044-0.007-0.185
			c-0.004-0.069-0.029-0.117-0.075-0.148c-0.025,0.037-0.031-0.05-0.043,0.037c-0.013,0.085-0.033,0.146-0.062,0.184
			c-0.079,0-0.097-0.047-0.144-0.113c-0.029-0.042-0.044-0.006-0.044-0.009l-0.021,0.019c-0.012,0.009-0.026,0.022-0.04,0.037
			c-0.016,0.013-0.031,0.018-0.047,0.014c0.001,0.014-0.007,0.039-0.022,0.07c-0.015,0.034-0.021,0.056-0.021,0.069
			c0.002,0.023,0.021,0.039,0.056,0.05c-0.007,0.052-0.01,0.104-0.006,0.16c0.002,0.03,0.009,0.1,0.021,0.208
			c0.015,0.085,0.021,0.159,0.019,0.22c0.028,0.001,0.055,0.001,0.079,0c0.11-0.007,0.182-0.05,0.215-0.131
			c0.011-0.024,0.023-0.109,0.037-0.253C112.431,15.578,112.465,15.502,112.518,15.458z"></path>
	</g>
	<g>
		<path fill="#010101" d="M97.32,10.541v0.002c-0.014,0.133-0.019,0.223-0.014,0.273c-0.021,0.008-0.047,0.01-0.079,0.003
			c-0.042-0.005-0.066-0.01-0.072-0.008c-0.019,0-0.033,0.006-0.043,0.018c-0.026-0.016-0.044-0.023-0.054-0.021
			c-0.025,0.016-0.036,0.036-0.035,0.062c0.001,0.012,0.005,0.032,0.015,0.06c0.007,0.028,0.013,0.049,0.013,0.063
			c0.001,0.019-0.003,0.047-0.011,0.086c-0.009,0.039-0.013,0.072-0.012,0.097c0.002,0.029,0.009,0.077,0.021,0.142
			c0.011,0.062,0.017,0.11,0.02,0.142c-0.015,0.062-0.019,0.125-0.017,0.189c0.005,0.079,0.027,0.183,0.065,0.313
			c0.007,0.003,0.014,0.003,0.021,0.003c0.014,0,0.034-0.012,0.056-0.035c0.021-0.021,0.042-0.033,0.057-0.033
			c0.012-0.001,0.025,0.001,0.038,0.009c0.041,0.131,0.062,0.218,0.064,0.256c0.001,0.02,0.001,0.04,0,0.06
			c-0.061,0.014-0.105-0.006-0.129-0.063c0.002-0.016-0.007-0.032-0.028-0.05l-0.069,0.073c0.068,0.011,0.094,0.062,0.081,0.153
			c-0.006,0.02-0.021,0.029-0.044,0.031c-0.038,0-0.057,0-0.055,0l-0.056-0.102l-0.023,0.029c-0.019-0.047-0.04-0.07-0.065-0.068
			c-0.013,0-0.038,0.012-0.073,0.034c-0.033,0.023-0.062,0.034-0.085,0.035c-0.018,0.001-0.035-0.003-0.056-0.013
			c-0.002-0.028-0.005-0.056-0.01-0.086c-0.004-0.029-0.021-0.047-0.045-0.057c-0.002-0.071,0.001-0.257,0.006-0.561
			c0.001-0.228,0-0.414-0.008-0.557c-0.003-0.059-0.007-0.117-0.012-0.174c-0.012-0.019-0.025-0.027-0.035-0.026
			c-0.01,0.001-0.023,0.01-0.042,0.03c-0.02,0.019-0.035,0.028-0.048,0.026c-0.002-0.023-0.012-0.06-0.032-0.11
			c-0.02-0.05-0.03-0.087-0.031-0.109c-0.002-0.039,0.012-0.073,0.043-0.103l0.08,0.021c0.032-0.045,0.045-0.123,0.04-0.229
			c-0.001-0.021-0.004-0.054-0.008-0.098c-0.005-0.043-0.009-0.076-0.009-0.097c-0.009-0.176,0.045-0.267,0.161-0.273
			c0.043-0.002,0.097,0.006,0.159,0.023l0.077,0.021c0.006,0.029,0.01,0.059,0.012,0.091c0.002,0.044,0,0.108-0.006,0.191
			c-0.006,0.084-0.009,0.146-0.006,0.183c0.002,0.063,0.013,0.118,0.032,0.168c0.019,0,0.047-0.011,0.086-0.029
			c0.039-0.021,0.068-0.029,0.086-0.03C97.274,10.495,97.301,10.508,97.32,10.541z M97.08,10.787l-0.003-0.08l-0.025-0.023
			L97.08,10.787z"></path>
		<path fill="#010101" d="M98.265,10.293h0.003c-0.009,0.062-0.018,0.125-0.028,0.188c-0.012,0.072-0.032,0.127-0.061,0.168
			c-0.004-0.003-0.033-0.016-0.085-0.042c-0.035-0.019-0.066-0.026-0.094-0.022c-0.021,0.134-0.031,0.317-0.033,0.548
			c-0.002,0.296-0.004,0.475-0.007,0.538c-0.035-0.003-0.062,0.008-0.079,0.033c-0.017,0.025-0.033,0.05-0.047,0.076
			c-0.006,0.014-0.01,0.026-0.01,0.038c0.001,0.019,0.017,0.037,0.049,0.052c0.03,0.017,0.047,0.036,0.047,0.056
			c-0.014,0.049-0.042,0.076-0.085,0.077c-0.021,0.001-0.058-0.006-0.109-0.019c-0.05-0.013-0.085-0.02-0.106-0.018l-0.051-0.981
			c0.021-0.026,0.028-0.044,0.027-0.053l-0.029-0.02c0.002-0.042,0.004-0.247,0.007-0.616c0.001-0.25,0.011-0.451,0.028-0.606
			c-0.003,0,0.067-0.003,0.211-0.015c0.09-0.004,0.147,0.021,0.174,0.075c0,0.05-0.006,0.135-0.017,0.254
			c-0.009,0.111-0.013,0.197-0.01,0.256c0.004,0.075,0.015,0.139,0.033,0.197C98.07,10.354,98.16,10.299,98.265,10.293z
			 M98.605,10.504c0.006,0.09,0.012,0.179,0.017,0.267c0.02,0.38,0.014,0.787-0.018,1.218c-0.032,0.031-0.084,0.037-0.153,0.02
			c-0.068-0.016-0.117-0.009-0.147,0.019c-0.039-0.049-0.062-0.141-0.069-0.273c-0.01-0.193-0.014-0.292-0.016-0.299
			c-0.007-0.48,0.04-0.869,0.143-1.166C98.479,10.319,98.561,10.391,98.605,10.504z"></path>
		<path fill="#010101" d="M99.81,11.001c-0.016,0.031-0.021,0.064-0.02,0.096c0.002,0.036,0.003,0.068,0.006,0.101
			c-0.004,0.028-0.012,0.055-0.023,0.084c-0.021-0.006-0.039-0.01-0.053-0.009c-0.016,0.002-0.032,0.008-0.049,0.019
			c-0.017,0.012-0.03,0.017-0.039,0.017c-0.014,0.002-0.032-0.003-0.055-0.013l-0.16-0.232c0.005,0.068,0.021,0.128,0.046,0.18
			c0.015,0.027,0.027,0.053,0.039,0.08c-0.093,0.017-0.146,0.02-0.157,0.008l-0.023,0.03l-0.056-0.074
			c-0.042,0.054-0.053,0.13-0.028,0.232c0.027,0.111,0.03,0.19,0.005,0.241c0.034,0.051,0.075,0.074,0.124,0.072
			c0.021,0,0.038-0.007,0.054-0.022c0.023-0.056,0.045-0.113,0.067-0.168c0.032-0.068,0.07-0.104,0.111-0.105
			c0.031-0.002,0.07,0.014,0.112,0.049c0.052,0.019,0.078,0.042,0.08,0.072c0,0.018-0.011,0.048-0.035,0.089
			c-0.023,0.041-0.036,0.074-0.035,0.097c0.002,0.008,0.002,0.017,0.005,0.024c-0.033,0.023-0.062,0.06-0.09,0.109
			c-0.025,0.05-0.061,0.084-0.103,0.103c-0.037,0.035-0.072,0.054-0.104,0.056c-0.025,0.001-0.063-0.018-0.114-0.058
			c-0.05-0.041-0.097-0.058-0.14-0.057c-0.018-0.039-0.063-0.085-0.133-0.134c-0.071-0.049-0.116-0.102-0.134-0.157
			c0,0.003,0-0.015-0.001-0.056c-0.002-0.023-0.012-0.038-0.03-0.042l0.025-0.025c-0.034-0.001-0.052-0.021-0.054-0.06
			c0-0.003-0.002-0.013-0.002-0.027c0.002-0.012,0.002-0.021,0.002-0.027c-0.002-0.028-0.01-0.047-0.026-0.058l-0.007-0.119
			c-0.002-0.062-0.016-0.107-0.037-0.133c0.023-0.146,0.045-0.292,0.066-0.437c0.039-0.168,0.094-0.256,0.167-0.259
			c0.012,0,0.023,0.002,0.035,0.005c0.064-0.065,0.145-0.101,0.238-0.104c0.104-0.006,0.217,0.026,0.341,0.093
			C99.726,10.637,99.786,10.812,99.81,11.001z M99.336,10.623l-0.021,0.028c-0.017,0.003-0.037-0.006-0.057-0.024l0.005,0.078
			c-0.037,0.039-0.051,0.099-0.044,0.177c0.007,0.139,0.01,0.205,0.01,0.2l0.103-0.001c0.05-0.028,0.071-0.074,0.068-0.137
			c-0.001-0.032-0.012-0.085-0.033-0.159C99.346,10.712,99.336,10.658,99.336,10.623z"></path>
	</g>
	<g>
		<polygon fill-rule="evenodd" clip-rule="evenodd" fill="#010101" points="100.615,14.462 100.719,14.521 101.064,13.612 
			100.948,13.572 100.602,14.483 100.703,14.547 100.615,14.462 100.615,14.462 		"></polygon>
		<polygon fill-rule="evenodd" clip-rule="evenodd" fill="#010101" points="100.768,14.336 100.726,14.354 100.615,14.462 
			100.703,14.547 100.814,14.432 100.771,14.455 100.768,14.336 100.768,14.336 		"></polygon>
		<polygon fill-rule="evenodd" clip-rule="evenodd" fill="#010101" points="101.606,14.33 101.655,14.291 100.768,14.336 
			100.771,14.455 101.66,14.408 101.717,14.367 101.606,14.33 101.606,14.33 101.606,14.33 		"></polygon>
		<polygon fill-rule="evenodd" clip-rule="evenodd" fill="#010101" points="102.008,13.492 101.947,13.417 101.606,14.33 
			101.717,14.367 102.062,13.456 102.003,13.38 102.008,13.492 102.008,13.492 102.008,13.492 		"></polygon>
		<polygon fill-rule="evenodd" clip-rule="evenodd" fill="#010101" points="101.162,13.521 101.118,13.543 102.008,13.492 
			102.003,13.38 101.115,13.419 101.071,13.443 101.162,13.521 101.162,13.521 101.162,13.521 		"></polygon>
		<polygon fill-rule="evenodd" clip-rule="evenodd" fill="#010101" points="101.064,13.612 101.052,13.631 101.162,13.521 
			101.071,13.443 100.961,13.552 100.948,13.572 101.064,13.612 101.064,13.612 101.064,13.612 		"></polygon>
		<polygon fill-rule="evenodd" clip-rule="evenodd" fill="#010101" points="101.802,14.437 101.882,14.402 101.69,14.295 
			101.63,14.405 101.825,14.512 101.912,14.475 101.797,14.435 101.797,14.435 101.802,14.437 		"></polygon>
		<polygon fill-rule="evenodd" clip-rule="evenodd" fill="#010101" points="102.175,13.597 102.144,13.525 101.797,14.435 
			101.912,14.475 102.26,13.564 102.228,13.492 102.175,13.597 102.175,13.597 		"></polygon>
		<polygon fill-rule="evenodd" clip-rule="evenodd" fill="#010101" points="102.062,13.456 101.978,13.495 102.175,13.597 
			102.228,13.492 102.038,13.387 101.947,13.417 102.062,13.456 102.062,13.456 		"></polygon>
		<polygon fill="#010101" points="101.01,13.593 101.005,13.591 101.114,13.48 101.939,13.441 101.947,13.417 102.008,13.438 
			102.062,13.456 102.06,13.465 102.203,13.546 102.26,13.564 102.236,13.623 102.641,14.582 102.299,15.495 101.857,14.456 
			101.857,14.456 101.801,14.479 101.797,14.435 101.801,14.424 101.661,14.348 101.63,14.405 101.613,14.35 100.768,14.392 
			100.657,14.5 		"></polygon>
		<polygon fill-rule="evenodd" clip-rule="evenodd" fill="#010101" points="102.243,15.475 102.355,15.471 101.914,14.433 
			101.801,14.479 102.242,15.518 102.354,15.513 102.238,15.474 102.238,15.474 102.243,15.475 		"></polygon>
		<polygon fill-rule="evenodd" clip-rule="evenodd" fill="#010101" points="102.59,14.608 102.585,14.563 102.238,15.474 
			102.354,15.513 102.701,14.603 102.696,14.559 102.59,14.608 102.59,14.608 		"></polygon>
		<polygon fill-rule="evenodd" clip-rule="evenodd" fill="#010101" points="102.26,13.564 102.147,13.569 102.59,14.608 
			102.696,14.559 102.255,13.52 102.144,13.525 102.26,13.564 102.26,13.564 		"></polygon>
		<polygon fill-rule="evenodd" clip-rule="evenodd" fill="#FFFFFF" points="102.23,13.798 102.278,13.907 102.298,14.017 
			102.291,14.124 102.26,14.236 102.206,14.346 102.131,14.443 102.033,14.532 101.916,14.609 101.853,14.637 101.788,14.664 
			101.717,14.677 101.65,14.692 101.586,14.701 101.517,14.708 101.452,14.699 101.387,14.696 101.33,14.683 101.271,14.662 
			101.21,14.637 101.16,14.607 101.115,14.575 101.066,14.541 101.026,14.495 100.993,14.447 100.942,14.341 100.924,14.229 
			100.924,14.12 100.962,14.011 101.01,13.905 101.087,13.802 101.184,13.712 101.307,13.638 101.365,13.607 101.436,13.581 
			101.5,13.568 101.565,13.553 101.636,13.545 101.7,13.537 101.765,13.545 101.83,13.55 101.891,13.569 101.951,13.59 
			102.007,13.607 102.062,13.64 102.108,13.666 102.155,13.706 102.189,13.754 102.23,13.798 102.23,13.798 102.23,13.798 		"></polygon>
		<polygon fill-rule="evenodd" clip-rule="evenodd" fill="#010101" points="102.273,13.979 102.323,14.086 102.339,14.202 
			102.335,14.31 102.304,14.416 102.255,14.529 102.172,14.626 102.083,14.713 101.96,14.789 101.895,14.822 101.83,14.849 
			101.765,14.863 101.692,14.877 101.629,14.886 101.565,14.889 101.499,14.886 101.43,14.875 101.374,14.861 101.312,14.841 
			101.26,14.818 101.203,14.787 101.157,14.76 101.115,14.72 101.074,14.683 101.036,14.626 100.985,14.524 100.967,14.415 
			100.975,14.301 101.005,14.195 101.053,14.083 101.128,13.986 101.227,13.896 101.348,13.822 101.414,13.79 101.477,13.767 
			101.545,13.746 101.616,13.734 101.678,13.73 101.742,13.721 101.807,13.73 101.871,13.734 101.935,13.75 101.995,13.769 
			102.049,13.793 102.107,13.819 102.15,13.852 102.201,13.886 102.231,13.934 102.271,13.983 102.271,13.983 102.273,13.979 		"></polygon>
		<polygon fill-rule="evenodd" clip-rule="evenodd" fill="#FFFFFF" points="102.304,14.105 102.356,14.206 102.372,14.322 
			102.366,14.431 102.337,14.536 102.283,14.646 102.205,14.748 102.115,14.835 101.992,14.91 101.933,14.945 101.863,14.971 
			101.797,14.984 101.726,14.997 101.661,15.007 101.599,15.01 101.533,15.007 101.464,14.996 101.406,14.983 101.347,14.963 
			101.294,14.938 101.235,14.907 101.191,14.88 101.143,14.84 101.107,14.798 101.069,14.748 101.018,14.646 101,14.536 
			101.005,14.429 101.036,14.316 101.087,14.206 101.163,14.103 101.264,14.02 101.382,13.943 101.447,13.911 101.511,13.882 
			101.577,13.868 101.648,13.855 101.713,13.846 101.775,13.842 101.848,13.848 101.905,13.855 101.968,13.87 102.027,13.89 
			102.086,13.915 102.138,13.945 102.184,13.973 102.231,14.006 102.266,14.055 102.304,14.105 102.304,14.105 		"></polygon>
		<polygon fill-rule="evenodd" clip-rule="evenodd" fill="#010101" points="102.348,14.283 102.398,14.392 102.416,14.501 
			102.416,14.611 102.379,14.721 102.331,14.827 102.249,14.928 102.158,15.021 102.036,15.096 101.977,15.124 101.907,15.149 
			101.842,15.165 101.775,15.178 101.705,15.186 101.641,15.196 101.577,15.186 101.511,15.184 101.449,15.168 101.389,15.148 
			101.336,15.124 101.278,15.094 101.235,15.06 101.191,15.027 101.15,14.983 101.111,14.934 101.068,14.827 101.044,14.714 
			101.049,14.607 101.081,14.495 101.133,14.392 101.21,14.29 101.308,14.199 101.425,14.123 101.488,14.094 101.554,14.067 
			101.625,14.055 101.69,14.04 101.755,14.031 101.823,14.029 101.889,14.033 101.949,14.035 102.012,14.049 102.072,14.07 
			102.131,14.094 102.182,14.124 102.23,14.159 102.275,14.193 102.315,14.236 102.347,14.29 102.347,14.29 102.348,14.283 		"></polygon>
		<polygon fill-rule="evenodd" clip-rule="evenodd" fill="#FFFFFF" points="102.413,14.402 102.464,14.506 102.482,14.616 
			102.48,14.73 102.451,14.836 102.396,14.948 102.313,15.047 102.225,15.134 102.107,15.21 102.04,15.244 101.971,15.27 
			101.905,15.284 101.839,15.298 101.77,15.305 101.707,15.31 101.641,15.305 101.577,15.296 101.515,15.282 101.453,15.261 
			101.4,15.237 101.348,15.213 101.299,15.178 101.256,15.14 101.216,15.097 101.184,15.049 101.132,14.947 101.109,14.83 
			101.115,14.72 101.15,14.617 101.2,14.505 101.276,14.402 101.371,14.318 101.488,14.242 101.555,14.208 101.618,14.181 
			101.689,14.173 101.756,14.153 101.821,14.145 101.889,14.143 101.954,14.146 102.013,14.153 102.075,14.168 102.142,14.19 
			102.194,14.214 102.248,14.239 102.298,14.272 102.339,14.312 102.379,14.355 102.413,14.402 102.413,14.402 		"></polygon>
		<polygon fill-rule="evenodd" clip-rule="evenodd" fill="#010101" points="102.462,14.584 102.506,14.69 102.53,14.801 
			102.524,14.911 102.494,15.022 102.439,15.125 102.362,15.229 102.266,15.32 102.148,15.396 102.084,15.422 102.015,15.448 
			101.949,15.462 101.883,15.478 101.818,15.487 101.749,15.494 101.685,15.485 101.618,15.481 101.562,15.468 101.497,15.447 
			101.442,15.422 101.392,15.394 101.342,15.359 101.299,15.325 101.259,15.282 101.226,15.234 101.175,15.125 101.151,15.014 
			101.157,14.907 101.193,14.795 101.242,14.689 101.318,14.587 101.416,14.497 101.539,14.423 101.598,14.394 101.667,14.368 
			101.732,14.354 101.8,14.339 101.869,14.332 101.933,14.322 101.996,14.332 102.058,14.333 102.125,14.349 102.185,14.371 
			102.238,14.394 102.29,14.423 102.339,14.458 102.383,14.491 102.423,14.535 102.462,14.584 102.462,14.584 102.462,14.584 		"></polygon>
		<polygon fill-rule="evenodd" clip-rule="evenodd" fill="#010101" points="96.405,13.187 96.41,13.152 96.062,14.067 
			96.172,14.104 96.521,13.188 96.522,13.165 96.405,13.187 96.405,13.187 96.405,13.187 		"></polygon>
		<polygon fill-rule="evenodd" clip-rule="evenodd" fill="#010101" points="96.396,13.14 96.398,13.135 96.405,13.187 
			96.522,13.165 96.509,13.111 96.512,13.105 96.396,13.14 96.396,13.14 96.396,13.14 		"></polygon>
		<polygon fill-rule="evenodd" clip-rule="evenodd" fill="#010101" points="96.383,13.087 96.396,13.14 96.512,13.105 
			96.499,13.053 96.383,13.087 96.383,13.087 96.383,13.087 		"></polygon>
		<polygon fill-rule="evenodd" clip-rule="evenodd" fill="#010101" points="96.368,13.039 96.383,13.087 96.499,13.053 
			96.483,13.005 96.368,13.039 96.368,13.039 		"></polygon>
		<polygon fill-rule="evenodd" clip-rule="evenodd" fill="#010101" points="96.355,12.986 96.355,12.986 96.368,13.039 
			96.483,13.005 96.471,12.952 96.471,12.958 96.355,12.986 96.355,12.986 96.355,12.986 		"></polygon>
		<polygon fill-rule="evenodd" clip-rule="evenodd" fill="#010101" points="96.341,12.921 96.341,12.939 96.355,12.986 
			96.471,12.958 96.454,12.91 96.46,12.93 96.341,12.921 96.341,12.921 		"></polygon>
		<polygon fill-rule="evenodd" clip-rule="evenodd" fill="#010101" points="96.459,12.898 96.343,12.878 96.341,12.921 96.46,12.93 
			96.462,12.888 96.347,12.868 96.455,12.904 96.455,12.904 96.459,12.898 		"></polygon>
		<polygon fill-rule="evenodd" clip-rule="evenodd" fill="#4D494A" points="96.559,15.563 96.547,15.504 96.424,15.525 
			96.434,15.589 96.559,15.563 96.559,15.563 96.559,15.563 		"></polygon>
		<polygon fill-rule="evenodd" clip-rule="evenodd" fill="#010101" points="96.812,14.801 96.816,14.771 96.471,15.68 
			96.581,15.717 96.927,14.807 96.925,14.776 96.812,14.801 96.812,14.801 96.812,14.801 		"></polygon>
		<polygon fill-rule="evenodd" clip-rule="evenodd" fill="#010101" points="96.805,14.736 96.812,14.801 96.925,14.776 
			96.917,14.712 96.798,14.734 96.798,14.734 96.805,14.736 		"></polygon>
		<polygon fill-rule="evenodd" clip-rule="evenodd" fill="#010101" points="96.788,14.676 96.798,14.734 96.917,14.712 96.9,14.652 
			96.788,14.676 96.788,14.676 96.788,14.676 		"></polygon>
		<polygon fill-rule="evenodd" clip-rule="evenodd" fill="#010101" points="96.772,14.609 96.776,14.617 96.788,14.676 96.9,14.652 
			96.89,14.587 96.894,14.595 96.772,14.609 96.772,14.609 96.772,14.609 		"></polygon>
		<polygon fill-rule="evenodd" clip-rule="evenodd" fill="#010101" points="96.883,14.555 96.766,14.541 96.772,14.609 
			96.894,14.595 96.885,14.531 96.767,14.517 96.883,14.555 96.883,14.555 		"></polygon>
		<g>
			<polygon fill="#4D494A" points="96.062,13.885 96.006,13.902 96.062,13.885 			"></polygon>
			<polygon fill="#4D494A" points="96.121,14.077 96.122,14.071 96.151,14.073 96.172,14.104 96.121,14.086 			"></polygon>
			<polygon fill="#010101" points="95.994,13.85 96.053,13.838 96.055,13.796 96.403,12.88 96.4,12.886 96.4,12.923 96.41,12.969 
				96.43,13.024 96.443,13.072 96.455,13.125 96.465,13.169 96.465,13.169 96.521,13.188 96.172,14.104 96.151,14.073 
				96.122,14.071 96.121,14.077 96.121,14.086 96.172,14.104 96.121,14.101 96.122,14.143 96.087,14.098 96.059,14.097 
				96.051,14.045 96.072,14.041 96.094,13.982 96.036,13.998 96.02,13.955 96.006,13.902 96.062,13.885 96.062,13.885 
				96.006,13.902 96.009,13.896 			"></polygon>
		</g>
		<g>
			<polygon fill="none" points="98.83,14.099 98.83,14.099 98.88,13.988 			"></polygon>
			<polygon fill="#010101" points="96.119,14.026 98.67,13.942 98.735,13.945 98.746,13.95 98.81,13.964 98.814,13.966 
				98.88,13.988 98.944,14.016 98.95,14.017 99.011,14.056 99.021,14.058 99.068,14.099 99.084,14.111 99.118,14.152 99.122,14.159 
				99.146,14.198 99.147,14.211 99.036,14.246 99.018,14.217 99.016,14.222 98.986,14.182 98.987,14.182 98.948,14.15 
				98.956,14.159 98.895,14.127 98.895,14.127 98.83,14.099 98.83,14.099 98.775,14.082 98.714,14.066 98.724,14.071 98.665,14.063 
				98.665,14.057 96.122,14.143 			"></polygon>
			<polygon fill="#010101" points="99.031,14.246 99.036,14.246 99.042,14.255 			"></polygon>
		</g>
		<polygon fill-rule="evenodd" clip-rule="evenodd" fill="#010101" points="100.395,16.385 100.395,16.35 100.047,17.263 
			100.162,17.303 100.51,16.387 100.51,16.351 100.395,16.385 100.395,16.385 100.395,16.385 		"></polygon>
		<polygon fill-rule="evenodd" clip-rule="evenodd" fill="#010101" points="99.389,13.344 99.381,13.33 100.395,16.385 
			100.51,16.351 99.496,13.295 99.494,13.284 99.389,13.344 99.389,13.344 99.389,13.344 		"></polygon>
		<polygon fill-rule="evenodd" clip-rule="evenodd" fill="#010101" points="99.368,13.314 99.364,13.307 99.389,13.344 
			99.494,13.284 99.471,13.245 99.465,13.242 99.362,13.312 99.362,13.312 99.368,13.314 		"></polygon>
		<polygon fill-rule="evenodd" clip-rule="evenodd" fill="#010101" points="99.345,13.276 99.334,13.267 99.362,13.312 
			99.465,13.242 99.426,13.194 99.417,13.185 99.345,13.276 99.345,13.276 99.345,13.276 		"></polygon>
		<polygon fill-rule="evenodd" clip-rule="evenodd" fill="#010101" points="99.304,13.25 99.294,13.241 99.345,13.276 
			99.417,13.185 99.368,13.149 99.358,13.14 99.304,13.25 99.304,13.25 		"></polygon>
		<polygon fill-rule="evenodd" clip-rule="evenodd" fill="#010101" points="99.249,13.213 99.244,13.211 99.304,13.25 99.358,13.14 
			99.296,13.107 99.291,13.105 99.249,13.213 99.249,13.213 		"></polygon>
		<polygon fill-rule="evenodd" clip-rule="evenodd" fill="#010101" points="99.19,13.188 99.177,13.188 99.249,13.213 
			99.291,13.105 99.228,13.078 99.223,13.076 99.183,13.191 99.183,13.191 99.19,13.188 		"></polygon>
		<polygon fill-rule="evenodd" clip-rule="evenodd" fill="#010101" points="99.124,13.166 99.116,13.169 99.183,13.191 
			99.223,13.076 99.155,13.054 99.155,13.054 99.122,13.17 99.122,13.17 99.124,13.166 		"></polygon>
		<polygon fill-rule="evenodd" clip-rule="evenodd" fill="#010101" points="99.073,13.154 99.062,13.151 99.122,13.17 
			99.155,13.054 99.088,13.038 99.083,13.037 99.073,13.154 99.073,13.154 99.073,13.154 		"></polygon>
		<polygon fill-rule="evenodd" clip-rule="evenodd" fill="#010101" points="99.014,13.148 99.013,13.152 99.073,13.154 
			99.083,13.037 99.018,13.026 99.011,13.03 99.014,13.148 99.014,13.148 		"></polygon>
		<polygon fill-rule="evenodd" clip-rule="evenodd" fill="#010101" points="96.526,13.19 96.464,13.229 99.014,13.148 99.011,13.03 
			96.465,13.116 96.41,13.152 96.521,13.188 96.521,13.188 96.526,13.19 		"></polygon>
		<polygon fill="#4D494A" points="97.167,15.974 97.157,15.968 97.162,15.967 		"></polygon>
		<g>
			<polygon fill="#4D494A" points="98.543,16.386 98.533,16.509 98.543,16.386 			"></polygon>
			<g>
				<polygon fill="none" points="98.538,16.445 98.533,16.509 98.538,16.445 				"></polygon>
				<g>
					<polygon fill="none" points="96.472,15.453 96.476,15.444 96.478,15.457 					"></polygon>
					<path fill="#010101" d="M96.434,15.589l0.01,0.06l0.023,0.062l0.027,0.045l0.156,0.083l0.156,0.082l0.149,0.082l0.151,0.075
						l0.006,0.001l0.154,0.069l0.154,0.069l0.165,0.069l0.17,0.062l0.005,0.002l0.18,0.047l0.179,0.047l0.006,0.001l0.198,0.03
						l0.203,0.031l0.006,0.001l0.221,0.012l0.009-0.002l0.236,0.006l0.252-0.009l0.268-0.013l0.057-0.038l0.346-0.91l-0.06-0.08
						l0.005,0.117l-0.019-0.023l0.014-0.033l-0.039,0.002l-0.017-0.021l-0.008,0.023l-0.199,0.011h-0.257l-0.236-0.005l-0.216-0.01
						l-0.211-0.028l-0.196-0.035l-0.18-0.048l-0.18-0.047l-0.168-0.063l-0.163-0.06l-0.154-0.07l-0.151-0.074l-0.158-0.077
						l-0.15-0.081l-0.15-0.08l-0.104-0.054l0.003-0.01l-0.056-0.018l0,0l-0.015-0.065l-0.01-0.06l-0.005-0.02l0.041-0.089
						l-0.059-0.019l-0.003-0.001l0,0l-0.055-0.018l-0.347,0.909l-0.002,0.029l0.009,0.064L96.434,15.589z M96.476,15.444
						l0.002,0.012l-0.006-0.003L96.476,15.444z"></path>
				</g>
			</g>
		</g>
		<polygon fill-rule="evenodd" clip-rule="evenodd" fill="#010101" points="99.599,15.606 99.866,15.592 99.861,15.475 
			99.595,15.49 99.599,15.606 99.599,15.606 99.599,15.606 		"></polygon>
		<polygon fill-rule="evenodd" clip-rule="evenodd" fill="#010101" points="99.346,15.614 99.599,15.606 99.595,15.49 
			99.342,15.498 99.346,15.614 99.346,15.614 99.346,15.614 		"></polygon>
		<polygon fill-rule="evenodd" clip-rule="evenodd" fill="#010101" points="99.104,15.606 99.108,15.608 99.346,15.614 
			99.342,15.498 99.105,15.491 99.112,15.488 99.101,15.612 99.101,15.612 99.104,15.606 		"></polygon>
		<polygon fill-rule="evenodd" clip-rule="evenodd" fill="#010101" points="98.876,15.592 98.881,15.593 99.101,15.612 
			99.112,15.488 98.892,15.474 98.896,15.477 98.876,15.592 98.876,15.592 98.876,15.592 		"></polygon>
		<polygon fill-rule="evenodd" clip-rule="evenodd" fill="#010101" points="98.671,15.566 98.876,15.592 98.896,15.477 
			98.693,15.445 98.671,15.566 98.671,15.566 		"></polygon>
		<polygon fill-rule="evenodd" clip-rule="evenodd" fill="#010101" points="98.469,15.529 98.475,15.532 98.671,15.566 
			98.693,15.445 98.49,15.414 98.495,15.416 98.469,15.529 98.469,15.529 98.469,15.529 		"></polygon>
		<polygon fill-rule="evenodd" clip-rule="evenodd" fill="#010101" points="98.289,15.481 98.469,15.529 98.495,15.416 
			98.316,15.369 98.288,15.488 98.288,15.488 98.289,15.481 		"></polygon>
		<polygon fill-rule="evenodd" clip-rule="evenodd" fill="#010101" points="98.103,15.438 98.108,15.439 98.288,15.488 
			98.316,15.369 98.137,15.32 98.141,15.323 98.103,15.438 98.103,15.438 		"></polygon>
		<polygon fill-rule="evenodd" clip-rule="evenodd" fill="#010101" points="97.934,15.375 97.934,15.375 98.103,15.438 
			98.141,15.323 97.974,15.26 97.979,15.261 97.93,15.373 97.93,15.373 97.934,15.375 		"></polygon>
		<polygon fill-rule="evenodd" clip-rule="evenodd" fill="#010101" points="97.767,15.308 97.93,15.373 97.979,15.261 
			97.817,15.196 97.767,15.308 97.767,15.308 		"></polygon>
		<polygon fill-rule="evenodd" clip-rule="evenodd" fill="#010101" points="97.614,15.238 97.767,15.308 97.817,15.196 
			97.661,15.131 97.614,15.238 97.614,15.238 		"></polygon>
		<polygon fill-rule="evenodd" clip-rule="evenodd" fill="#010101" points="97.456,15.16 97.46,15.168 97.614,15.238 97.661,15.131 
			97.504,15.056 97.51,15.057 97.454,15.166 97.454,15.166 97.456,15.16 		"></polygon>
		<polygon fill-rule="evenodd" clip-rule="evenodd" fill="#010101" points="97.305,15.085 97.454,15.166 97.51,15.057 
			97.357,14.982 97.303,15.091 97.303,15.091 97.305,15.085 		"></polygon>
		<polygon fill-rule="evenodd" clip-rule="evenodd" fill="#010101" points="97.154,15.005 97.303,15.091 97.357,14.982 
			97.208,14.901 97.148,15.003 97.148,15.003 97.154,15.005 		"></polygon>
		<polygon fill-rule="evenodd" clip-rule="evenodd" fill="#010101" points="96.998,14.922 97.148,15.003 97.208,14.901 
			97.057,14.82 96.998,14.922 96.998,14.922 		"></polygon>
		<polygon fill-rule="evenodd" clip-rule="evenodd" fill="#010101" points="96.927,14.807 96.842,14.84 96.998,14.922 97.057,14.82 
			96.901,14.738 96.816,14.771 96.927,14.807 96.927,14.807 96.927,14.807 		"></polygon>
		<polygon fill-rule="evenodd" clip-rule="evenodd" fill="#010101" points="112.81,13.159 112.461,14.073 113.6,14.454 
			113.862,13.845 113.87,13.787 113.873,13.727 113.862,13.663 113.841,13.6 113.804,13.545 113.774,13.486 113.728,13.428 
			113.678,13.375 113.627,13.328 113.57,13.277 113.511,13.233 113.454,13.202 113.398,13.166 113.335,13.139 113.278,13.106 
			113.224,13.088 113.174,13.072 113.114,13.064 113.062,13.06 113.011,13.067 112.96,13.074 112.904,13.092 112.856,13.125 
			112.81,13.159 112.81,13.159 112.81,13.159 		"></polygon>
		<polygon fill-rule="evenodd" clip-rule="evenodd" fill="#010101" points="113.547,14.423 113.619,14.394 112.48,14.013 
			112.442,14.129 113.582,14.507 113.658,14.479 113.547,14.423 113.547,14.423 		"></polygon>
		<g>
			<polygon fill="none" points="113.767,14.687 113.773,14.748 113.767,14.687 			"></polygon>
			<polygon fill="none" points="114.354,14.075 114.396,14.115 114.35,14.083 			"></polygon>
			<g>
				<polygon fill="none" points="114.396,14.115 114.35,14.083 114.354,14.075 				"></polygon>
				<g>
					<polygon fill="none" points="114.396,14.115 114.35,14.083 114.354,14.075 					"></polygon>
					<polygon fill="#010101" points="95.994,13.794 96,13.777 96.347,12.868 96.455,12.904 96.12,13.804 96.113,13.84 
						96.111,13.827 95.994,13.85 95.992,13.836 					"></polygon>
					<g>
						<polygon fill="none" points="114.396,14.115 114.35,14.083 114.354,14.075 						"></polygon>
						<polygon fill="#4D494A" points="101.573,15.949 101.553,15.961 101.551,15.959 						"></polygon>
						<g>
							<polygon fill="none" points="101.596,16.002 101.639,16.043 101.596,16.002 							"></polygon>
							<polygon fill="none" points="114.396,14.115 114.35,14.083 114.354,14.075 							"></polygon>
							<polygon fill="none" points="100.102,17.282 100.105,17.282 100.105,17.284 100.047,17.263 100.097,17.265 							"></polygon>
							<path fill="#010101" d="M96.036,13.998l0.013,0.053l0.002-0.006l0.09-0.018l-0.024,0.058l2.552-0.083l0.061,0.003
								l0.064,0.022l0.066,0.019l0.065,0.024l0.062,0.038l0.05,0.035l0.035,0.042l0.021,0.042l-0.061,0.018l1.016,3.055h0.059
								l0.002,0.039h0.091l0.087-0.002l0.077,0.002l0.072-0.012l0.073-0.02l0.074-0.035l0.067-0.057l0.081-0.078l0.002-0.006
								l0.046-0.063l0.053-0.067l0.061-0.072l0.042-0.072l0.055-0.086l0.054-0.073l0.045-0.081l0.06-0.085l0.047-0.069l0.067-0.075
								l0.057-0.073l0.063-0.064l0.056-0.06l0.062-0.054l0.058-0.047l0.067-0.038l0.015-0.008l-0.043-0.041l0,0l0.043,0.041
								l0.068-0.075l0.062-0.058l0.055-0.054l0.059-0.048l0.058-0.042L102,15.73l0.054-0.031l0.059-0.028l0.065-0.016l0.064-0.027
								l0.065-0.014l0.076-0.012l0.085-0.015l0.095-0.004l0.101-0.009l0.098-0.004l0.006,0.003l11.006-0.824l0.064-0.006l0.06-0.013
								l0.053-0.012l0.056-0.02l0.051-0.025l0.054-0.031l0.044-0.041l0.051-0.043l0.011-0.014l0.193-0.449l-0.101-0.064l0.044,0.043
								l-0.007,0.006l-0.049-0.034l-0.048,0.113l-0.033,0.018l-0.042,0.018l-0.049,0.021l-0.046,0.008l-0.059,0.012l-0.06,0.011
								l-11.011,0.82l-0.07,0.008l-0.068,0.001l-0.067,0.001l-0.071,0.012H102.6l-0.063,0.01l-0.07,0.007l-0.063,0.009l-0.072,0.012
								l-0.064,0.009l-0.064,0.014l-0.075,0.02l-0.065,0.015l-0.07,0.024l-0.069,0.027l-0.065,0.032l-0.13,0.08l-0.132,0.121
								l-0.141,0.143l-0.134,0.163l-0.129,0.17l-0.111,0.152l-0.11,0.147l-0.091,0.109l-0.054,0.013l-0.046,0.01l-0.058,0.005
								h-0.056h-0.055l-0.047-0.003l-0.061-0.001l-0.053-0.007l-1.011-3.048l-0.022-0.043l-0.035-0.043l-0.048-0.034l-0.066-0.04
								l-0.065-0.028l-0.065-0.021l-0.062-0.016l-0.061,0l-2.549,0.077l-0.306,0.806l-0.002-0.011L96.036,13.998z M114.35,14.083
								l0.005-0.008l0.041,0.041L114.35,14.083z"></path>
						</g>
					</g>
				</g>
			</g>
		</g>
		<polygon fill-rule="evenodd" clip-rule="evenodd" fill="#010101" points="113.965,14.307 114.031,14.292 114.09,14.281 
			114.144,14.268 114.198,14.249 114.25,14.224 114.303,14.193 114.344,14.158 114.396,14.115 114.309,14.03 114.27,14.072 
			114.229,14.103 114.19,14.124 114.149,14.142 114.108,14.153 114.061,14.167 114.01,14.174 113.953,14.18 113.965,14.307 
			113.965,14.307 		"></polygon>
		<polygon fill-rule="evenodd" clip-rule="evenodd" fill="#010101" points="102.96,15.124 113.965,14.307 113.953,14.18 
			102.946,15.001 102.96,15.124 102.96,15.124 		"></polygon>
		<polygon fill-rule="evenodd" clip-rule="evenodd" fill="#010101" points="101.881,15.32 101.945,15.291 102.008,15.27 
			102.083,15.246 102.146,15.224 102.213,15.204 102.276,15.195 102.342,15.184 102.413,15.172 102.472,15.16 102.538,15.16 
			102.608,15.152 102.678,15.145 102.748,15.137 102.81,15.134 102.886,15.128 102.96,15.124 102.946,15.001 102.876,15.01 
			102.808,15.016 102.733,15.016 102.664,15.024 102.597,15.025 102.53,15.041 102.462,15.042 102.387,15.047 102.319,15.062 
			102.255,15.077 102.184,15.089 102.109,15.108 102.049,15.129 101.973,15.153 101.897,15.177 101.831,15.21 101.881,15.32 
			101.881,15.32 101.881,15.32 		"></polygon>
		<polygon fill-rule="evenodd" clip-rule="evenodd" fill="#010101" points="100.895,16.405 100.919,16.39 100.969,16.333 
			101.013,16.273 101.064,16.207 101.121,16.132 101.184,16.055 101.24,15.978 101.304,15.894 101.368,15.813 101.435,15.725 
			101.501,15.649 101.568,15.58 101.636,15.504 101.692,15.444 101.765,15.396 101.823,15.348 101.881,15.32 101.831,15.21 
			101.756,15.252 101.692,15.298 101.617,15.359 101.546,15.426 101.479,15.496 101.413,15.565 101.342,15.656 101.276,15.739 
			101.212,15.822 101.148,15.903 101.092,15.982 101.028,16.061 100.974,16.132 100.921,16.202 100.878,16.259 100.837,16.307 
			100.859,16.295 100.895,16.405 100.895,16.405 100.895,16.405 		"></polygon>
		<polygon fill="none" points="112.786,13.21 112.81,13.159 112.854,13.118 112.919,13.085 112.996,13.074 113.037,13.076 
			113.087,13.079 113.131,13.088 113.178,13.098 113.232,13.116 113.282,13.133 113.335,13.157 113.393,13.188 113.439,13.209 
			113.489,13.245 113.533,13.277 113.582,13.317 113.63,13.352 113.665,13.394 113.708,13.433 113.742,13.476 113.807,13.558 
			113.839,13.642 113.855,13.684 113.865,13.712 113.859,13.783 113.847,13.84 113.806,13.888 113.747,13.917 113.669,13.933 
			113.625,13.937 113.579,13.927 113.525,13.922 113.47,13.909 113.42,13.893 113.365,13.874 113.307,13.848 113.255,13.819 
			113.201,13.795 113.144,13.764 113.095,13.729 113.048,13.689 113.003,13.656 112.958,13.611 112.917,13.566 112.883,13.524 
			112.826,13.438 112.793,13.354 112.784,13.327 112.775,13.281 		"></polygon>
		<polygon fill-rule="evenodd" clip-rule="evenodd" fill="#FFFFFF" points="98.787,13.097 99.014,13.093 99.031,13.093 
			97.08,12.441 96.981,12.5 98.784,13.101 98.784,13.101 98.787,13.097 		"></polygon>
		<polygon fill-rule="evenodd" clip-rule="evenodd" fill="#FFFFFF" points="98.787,13.097 96.465,13.169 96.455,13.125 
			96.443,13.072 96.43,13.024 96.41,12.969 96.4,12.923 96.4,12.886 96.417,12.842 96.455,12.812 96.552,12.747 96.657,12.686 
			96.765,12.623 96.87,12.561 96.972,12.497 96.981,12.5 98.784,13.101 98.784,13.101 98.787,13.097 		"></polygon>
		<polygon fill="#FFFFFF" points="97.375,14.505 98.956,14.417 99.575,14.665 99.794,15.312 99.861,15.536 99.599,15.551 
			99.342,15.551 99.105,15.546 98.89,15.536 98.679,15.508 98.482,15.473 98.303,15.425 98.123,15.377 97.955,15.314 97.792,15.254 
			97.638,15.184 97.486,15.11 97.328,15.033 97.178,14.952 97.027,14.872 96.871,14.789 96.856,14.724 96.847,14.664 96.832,14.599 
			96.821,14.535 		"></polygon>
		<polygon fill-rule="evenodd" clip-rule="evenodd" fill="#FFFFFF" points="101.359,14.686 101.382,14.712 101.585,14.835 
			101.65,14.729 101.446,14.605 101.467,14.637 101.359,14.686 101.366,14.701 101.382,14.712 101.359,14.686 101.359,14.686 		"></polygon>
		<polygon fill-rule="evenodd" clip-rule="evenodd" fill="#FFFFFF" points="99.552,14.725 99.515,14.683 99.806,15.553 
			99.921,15.519 99.631,14.646 99.6,14.612 99.631,14.646 99.622,14.62 99.6,14.612 99.552,14.725 99.552,14.725 99.552,14.725 		
			"></polygon>
		<polygon fill-rule="evenodd" clip-rule="evenodd" fill="#FFFFFF" points="98.963,14.473 98.933,14.47 99.552,14.725 99.6,14.612 
			98.983,14.358 98.959,14.355 98.983,14.358 98.972,14.355 98.959,14.355 98.963,14.473 98.963,14.473 98.963,14.473 		"></polygon>
		<polygon fill-rule="evenodd" clip-rule="evenodd" fill="#FFFFFF" points="96.885,14.531 96.826,14.597 98.963,14.473 
			98.959,14.355 96.823,14.479 96.766,14.541 96.823,14.479 96.755,14.481 96.766,14.541 96.885,14.531 96.885,14.531 		"></polygon>
		<polygon fill-rule="evenodd" clip-rule="evenodd" fill="#FFFFFF" points="96.901,14.738 96.925,14.776 96.924,14.745 
			96.917,14.712 96.913,14.681 96.905,14.653 96.902,14.623 96.896,14.59 96.887,14.562 96.885,14.531 96.766,14.541 96.766,14.576 
			96.771,14.616 96.779,14.642 96.783,14.673 96.791,14.701 96.798,14.734 96.812,14.77 96.812,14.801 96.842,14.84 96.812,14.801 
			96.821,14.827 96.842,14.84 96.901,14.738 96.901,14.738 		"></polygon>
		<polygon fill-rule="evenodd" clip-rule="evenodd" fill="#FFFFFF" points="99.807,15.548 99.855,15.473 99.595,15.49 
			99.342,15.498 99.112,15.488 98.892,15.474 98.693,15.445 98.495,15.416 98.316,15.369 98.141,15.323 97.974,15.26 97.817,15.196 
			97.661,15.131 97.51,15.057 97.357,14.982 97.208,14.901 97.057,14.82 96.901,14.738 96.842,14.84 96.998,14.922 97.148,15.003 
			97.303,15.091 97.454,15.166 97.614,15.238 97.767,15.308 97.934,15.375 98.103,15.438 98.288,15.488 98.469,15.529 
			98.671,15.566 98.881,15.593 99.101,15.612 99.346,15.614 99.599,15.606 99.871,15.594 99.921,15.519 99.871,15.594 
			99.946,15.588 99.921,15.519 99.806,15.553 99.806,15.553 99.807,15.548 		"></polygon>
		<g>
			<polygon fill="none" points="100.912,16.321 100.957,16.365 100.912,16.321 			"></polygon>
			<polygon fill="none" points="100.506,16.307 100.495,16.307 100.495,16.307 			"></polygon>
			<polygon fill="none" points="99.512,13.343 101.115,13.879 99.512,13.343 			"></polygon>
		</g>
		<polygon fill-rule="evenodd" clip-rule="evenodd" fill="#FFFFFF" points="102.946,15.001 102.865,15.006 102.775,15.019 
			102.695,15.022 102.607,15.029 102.522,15.044 102.433,15.057 102.343,15.07 102.257,15.089 102.171,15.11 102.096,15.134 
			102.013,15.16 101.937,15.189 101.87,15.224 101.792,15.258 101.728,15.304 101.668,15.351 101.742,15.444 101.799,15.401 
			101.854,15.364 101.914,15.329 101.983,15.304 102.052,15.265 102.125,15.248 102.211,15.226 102.286,15.204 102.369,15.195 
			102.442,15.176 102.53,15.168 102.613,15.154 102.703,15.141 102.792,15.134 102.873,15.125 102.96,15.124 102.946,15.001 
			102.946,15.001 102.946,15.001 		"></polygon>
		<polygon fill-rule="evenodd" clip-rule="evenodd" fill="#FFFFFF" points="113.953,14.18 102.946,15.001 102.96,15.124 
			113.965,14.307 113.953,14.18 113.953,14.18 		"></polygon>
		<polygon fill-rule="evenodd" clip-rule="evenodd" fill="#FFFFFF" points="114.157,13.509 114.203,13.575 114.251,13.633 
			114.273,13.694 114.309,13.755 114.326,13.811 114.332,13.868 114.332,13.917 114.329,13.964 114.316,14.003 114.299,14.04 
			114.274,14.074 114.232,14.109 114.188,14.131 114.119,14.157 114.047,14.174 113.953,14.18 113.965,14.307 114.066,14.297 
			114.154,14.271 114.231,14.242 114.299,14.205 114.361,14.164 114.404,14.105 114.429,14.052 114.45,13.985 114.45,13.918 
			114.453,13.853 114.438,13.787 114.414,13.712 114.387,13.646 114.35,13.575 114.303,13.497 114.255,13.439 114.157,13.509 
			114.157,13.509 		"></polygon>
		<polygon fill-rule="evenodd" clip-rule="evenodd" fill="#FFFFFF" points="112.845,12.884 112.944,12.879 113.046,12.89 
			113.148,12.911 113.247,12.926 113.341,12.957 113.435,12.988 113.524,13.03 113.608,13.071 113.696,13.118 113.776,13.169 
			113.862,13.222 113.925,13.274 113.991,13.332 114.056,13.396 114.108,13.457 114.157,13.509 114.255,13.439 114.198,13.37 
			114.134,13.307 114.069,13.242 113.998,13.181 113.92,13.126 113.841,13.068 113.761,13.017 113.669,12.962 113.573,12.918 
			113.477,12.879 113.377,12.847 113.273,12.812 113.17,12.789 113.065,12.774 112.946,12.764 112.842,12.765 112.845,12.884 
			112.845,12.884 		"></polygon>
		<polygon fill-rule="evenodd" clip-rule="evenodd" fill="#FFFFFF" points="103.107,13.218 112.845,12.884 112.842,12.765 
			103.109,13.104 103.107,13.218 103.107,13.218 		"></polygon>
		<polygon fill-rule="evenodd" clip-rule="evenodd" fill="#FFFFFF" points="101.57,12.974 101.661,13.011 101.76,13.031 
			101.853,13.062 101.949,13.081 102.052,13.104 102.147,13.13 102.252,13.147 102.346,13.16 102.442,13.181 102.544,13.188 
			102.642,13.204 102.739,13.205 102.832,13.218 102.932,13.215 103.021,13.221 103.107,13.218 103.109,13.104 103.017,13.104 
			102.928,13.098 102.844,13.093 102.748,13.087 102.653,13.079 102.558,13.072 102.464,13.059 102.365,13.044 102.268,13.024 
			102.175,13.011 102.08,12.986 101.98,12.972 101.886,12.945 101.783,12.917 101.7,12.896 101.606,12.865 101.568,12.979 
			101.568,12.979 101.57,12.974 		"></polygon>
		<polygon fill-rule="evenodd" clip-rule="evenodd" fill="#FFFFFF" points="98.285,12.074 98.451,12.049 98.608,12.036 
			98.759,12.024 98.897,12.014 99.026,12.009 99.144,12.025 99.265,12.029 99.366,12.038 99.471,12.054 99.568,12.074 
			99.658,12.093 99.741,12.12 99.829,12.149 99.899,12.179 99.984,12.213 100.053,12.248 100.132,12.287 100.21,12.325 
			100.287,12.37 100.365,12.414 100.442,12.457 100.523,12.509 100.601,12.548 100.687,12.6 100.782,12.645 100.874,12.7 
			100.977,12.74 101.075,12.791 101.187,12.839 101.308,12.88 101.437,12.936 101.568,12.979 101.606,12.865 101.476,12.821 
			101.346,12.771 101.235,12.728 101.123,12.686 101.019,12.632 100.93,12.588 100.837,12.534 100.747,12.492 100.659,12.445 
			100.576,12.399 100.5,12.355 100.419,12.303 100.343,12.259 100.264,12.221 100.186,12.183 100.113,12.14 100.035,12.102 
			99.948,12.067 99.867,12.034 99.78,12.005 99.688,11.973 99.589,11.954 99.491,11.938 99.382,11.915 99.271,11.902 99.155,11.9 
			99.021,11.898 98.893,11.898 98.744,11.904 98.596,11.914 98.436,11.934 98.271,11.954 98.279,12.072 98.279,12.072 
			98.285,12.074 		"></polygon>
		<polygon fill-rule="evenodd" clip-rule="evenodd" fill="#FFFFFF" points="96.487,12.867 96.582,12.8 96.688,12.738 96.795,12.675 
			96.903,12.608 97.003,12.55 97.115,12.489 97.219,12.432 97.327,12.384 97.442,12.33 97.557,12.277 97.671,12.23 97.788,12.189 
			97.916,12.159 98.03,12.123 98.157,12.093 98.279,12.072 98.271,11.954 98.133,11.981 98.003,12.005 97.875,12.039 97.753,12.074 
			97.633,12.125 97.508,12.169 97.395,12.216 97.278,12.27 97.161,12.328 97.05,12.388 96.945,12.445 96.839,12.507 96.732,12.57 
			96.627,12.632 96.526,12.696 96.425,12.76 96.482,12.865 96.482,12.865 96.487,12.867 		"></polygon>
		<polygon fill-rule="evenodd" clip-rule="evenodd" fill="#FFFFFF" points="96.465,13.116 96.527,13.166 96.509,13.111 
			96.499,13.053 96.483,13.005 96.471,12.952 96.464,12.918 96.459,12.898 96.468,12.872 96.482,12.865 96.425,12.76 96.372,12.809 
			96.345,12.874 96.337,12.933 96.355,12.986 96.368,13.039 96.383,13.087 96.398,13.135 96.406,13.181 96.464,13.229 
			96.406,13.181 96.408,13.229 96.464,13.229 96.465,13.116 96.465,13.116 		"></polygon>
		<g>
			<polygon fill="none" points="100.961,13.552 100.963,13.553 100.947,13.615 			"></polygon>
			<polygon fill="#FFFFFF" points="100.965,13.546 100.963,13.553 100.961,13.552 			"></polygon>
			<polygon fill="#FFFFFF" points="100.936,13.576 100.961,13.552 100.947,13.615 			"></polygon>
			<g>
				<polygon fill="none" points="112.81,13.159 112.854,13.118 112.919,13.085 112.996,13.074 113.037,13.076 113.087,13.079 
					113.131,13.088 113.178,13.098 113.232,13.116 113.282,13.133 113.335,13.157 113.393,13.188 113.439,13.209 113.489,13.245 
					113.533,13.277 113.582,13.317 113.63,13.352 113.665,13.394 113.708,13.433 113.742,13.476 113.807,13.558 113.839,13.642 
					113.855,13.684 113.865,13.712 113.859,13.783 113.847,13.84 113.806,13.888 113.747,13.917 113.669,13.933 113.625,13.937 
					113.579,13.927 113.525,13.922 113.47,13.909 113.42,13.893 113.365,13.874 113.307,13.848 113.255,13.819 113.201,13.795 
					113.144,13.764 113.095,13.729 113.048,13.689 113.003,13.656 112.958,13.611 112.917,13.566 112.883,13.524 112.826,13.438 
					112.793,13.354 112.784,13.327 112.775,13.281 112.786,13.21 				"></polygon>
				<polygon fill="none" points="102.201,13.545 102.201,13.545 102.147,13.569 				"></polygon>
				<polygon fill="none" points="102.597,14.544 102.637,14.575 102.641,14.582 102.536,14.713 101.615,14.777 101.416,14.663 
					101.415,14.661 101.467,14.637 101.076,13.606 101.14,13.542 101.978,13.495 102.155,13.587 102.59,14.608 				"></polygon>
				<polygon fill="none" points="99.459,13.235 99.459,13.235 100.998,13.746 				"></polygon>
				<g>
					<polygon fill="none" points="112.81,13.159 112.854,13.118 112.919,13.085 112.996,13.074 113.037,13.076 113.087,13.079 
						113.131,13.088 113.178,13.098 113.232,13.116 113.282,13.133 113.335,13.157 113.393,13.188 113.439,13.209 113.489,13.245 
						113.533,13.277 113.582,13.317 113.63,13.352 113.665,13.394 113.708,13.433 113.742,13.476 113.807,13.558 113.839,13.642 
						113.855,13.684 113.865,13.712 113.859,13.783 113.847,13.84 113.806,13.888 113.747,13.917 113.669,13.933 113.625,13.937 
						113.579,13.927 113.525,13.922 113.47,13.909 113.42,13.893 113.365,13.874 113.307,13.848 113.255,13.819 113.201,13.795 
						113.144,13.764 113.095,13.729 113.048,13.689 113.003,13.656 112.958,13.611 112.917,13.566 112.883,13.524 112.826,13.438 
						112.793,13.354 112.784,13.327 112.775,13.281 112.786,13.21 					"></polygon>
					<polygon fill="none" points="101.978,13.495 102.155,13.587 102.59,14.608 102.597,14.544 102.637,14.575 102.641,14.582 
						102.536,14.713 101.615,14.777 101.416,14.663 101.415,14.661 101.467,14.637 101.076,13.606 101.14,13.542 					"></polygon>
					<polygon fill="none" points="99.459,13.235 99.459,13.235 100.998,13.746 					"></polygon>
					<g>
						<polygon fill="none" points="112.81,13.159 112.854,13.118 112.919,13.085 112.996,13.074 113.037,13.076 113.087,13.079 
							113.131,13.088 113.178,13.098 113.232,13.116 113.282,13.133 113.335,13.157 113.393,13.188 113.439,13.209 113.489,13.245 
							113.533,13.277 113.582,13.317 113.63,13.352 113.665,13.394 113.708,13.433 113.742,13.476 113.807,13.558 113.839,13.642 
							113.855,13.684 113.865,13.712 113.859,13.783 113.847,13.84 113.806,13.888 113.747,13.917 113.669,13.933 113.625,13.937 
							113.579,13.927 113.525,13.922 113.47,13.909 113.42,13.893 113.365,13.874 113.307,13.848 113.255,13.819 113.201,13.795 
							113.144,13.764 113.095,13.729 113.048,13.689 113.003,13.656 112.958,13.611 112.917,13.566 112.883,13.524 112.826,13.438 
							112.793,13.354 112.784,13.327 112.775,13.281 112.786,13.21 						"></polygon>
						<polygon fill="none" points="101.978,13.495 102.155,13.587 102.59,14.608 102.597,14.544 102.637,14.575 102.641,14.582 
							102.537,14.711 102.53,14.656 101.61,14.721 101.65,14.729 101.62,14.777 101.615,14.777 101.416,14.663 101.415,14.661 
							101.467,14.637 101.076,13.606 101.14,13.542 						"></polygon>
						<polygon fill="none" points="99.459,13.235 99.459,13.235 100.998,13.746 						"></polygon>
						<g>
							<polygon fill="none" points="102.62,14.381 104.364,14.961 102.62,14.381 							"></polygon>
							<polygon fill="none" points="102.576,14.274 104.583,14.944 102.576,14.274 							"></polygon>
							<polygon fill="none" points="112.81,13.159 112.854,13.118 112.919,13.085 112.996,13.074 113.037,13.076 113.087,13.079 
								113.131,13.088 113.178,13.098 113.232,13.116 113.282,13.133 113.335,13.157 113.393,13.188 113.439,13.209 113.489,13.245 
								113.533,13.277 113.582,13.317 113.63,13.352 113.665,13.394 113.708,13.433 113.742,13.476 113.807,13.558 113.839,13.642 
								113.855,13.684 113.865,13.712 113.859,13.783 113.847,13.84 113.806,13.888 113.747,13.917 113.669,13.933 113.625,13.937 
								113.579,13.927 113.525,13.922 113.47,13.909 113.42,13.893 113.365,13.874 113.307,13.848 113.255,13.819 113.201,13.795 
								113.144,13.764 113.095,13.729 113.048,13.689 113.003,13.656 112.958,13.611 112.917,13.566 112.883,13.524 112.826,13.438 
								112.793,13.354 112.784,13.327 112.775,13.281 112.786,13.21 							"></polygon>
							<polygon fill="none" points="101.978,13.495 102.155,13.587 102.59,14.608 102.597,14.544 102.637,14.575 102.641,14.582 
								102.537,14.711 102.536,14.713 101.62,14.777 101.615,14.777 101.416,14.663 101.415,14.661 101.467,14.637 101.076,13.606 
								101.14,13.542 							"></polygon>
							<polygon fill="none" points="99.459,13.235 99.459,13.235 100.998,13.746 							"></polygon>
							<polygon fill="#FFFFFF" points="102.576,14.274 104.583,14.944 104.366,14.957 104.364,14.961 102.62,14.381 							"></polygon>
							<g>
								<polygon fill="none" points="112.81,13.159 112.854,13.118 112.919,13.085 112.996,13.074 113.037,13.076 113.087,13.079 
									113.131,13.088 113.178,13.098 113.232,13.116 113.282,13.133 113.335,13.157 113.393,13.188 113.439,13.209 
									113.489,13.245 113.533,13.277 113.582,13.317 113.63,13.352 113.665,13.394 113.708,13.433 113.742,13.476 113.807,13.558 
									113.839,13.642 113.855,13.684 113.865,13.712 113.859,13.783 113.847,13.84 113.806,13.888 113.747,13.917 113.669,13.933 
									113.625,13.937 113.579,13.927 113.525,13.922 113.47,13.909 113.42,13.893 113.365,13.874 113.307,13.848 113.255,13.819 
									113.201,13.795 113.144,13.764 113.095,13.729 113.048,13.689 113.003,13.656 112.958,13.611 112.917,13.566 
									112.883,13.524 112.826,13.438 112.793,13.354 112.784,13.327 112.775,13.281 112.786,13.21 								"></polygon>
								<polygon fill="none" points="101.978,13.495 102.155,13.587 102.573,14.574 102.509,14.658 101.61,14.721 101.65,14.729 
									101.62,14.777 101.615,14.777 101.416,14.663 101.415,14.661 101.467,14.637 101.076,13.606 101.14,13.542 								"></polygon>
								<polygon fill="none" points="102.597,14.544 102.637,14.575 102.637,14.575 								"></polygon>
								<polygon fill="none" points="99.459,13.235 99.459,13.235 100.998,13.746 								"></polygon>
								<path fill="#FFFFFF" d="M96.464,13.229l2.55-0.082l0.053,0.004l0.05,0.017l0.066,0.022l0.062,0.02l0.054,0.037l0.04,0.026
									l0.024,0.039l0.019,0.018l1.014,3.055l0.015,0.048l0.05-0.002l0.051-0.006l0.059,0.006l0.071,0.007l0.068-0.003l0.065,0.005
									l0.061-0.018l0.068-0.018l0.055-0.038l0.065-0.07l0.057-0.072l0.051-0.062l0.052-0.063l0.044-0.059l0.041-0.053l0.037-0.055
									l0.044-0.059l0.036-0.054l0.043-0.054l0.043-0.053l0.045-0.045l0.048-0.053l0.055-0.053l0.056-0.056l0.069-0.06
									l-0.037-0.048l0.055-0.046l0.063-0.039l0.071-0.032l0.065-0.032l0.071-0.032l0.081-0.021l0.082-0.028l0.081-0.021
									l0.077-0.011l0.084-0.015l0.09-0.013l0.083-0.016l0.088-0.007l0.088-0.007l0.083-0.009l0.082-0.003l1.414-0.104l-1.744-0.58
									l-0.044-0.107l0,0l2.007,0.67l9.378-0.7l0.175-0.028l0.131-0.06l0.089-0.086l0.033-0.1v-0.109l0.002-0.006l-0.03-0.126
									l-0.063-0.125l-0.09-0.134l-0.053-0.06l-0.059-0.062l-0.063-0.063l-0.067-0.055l-0.072-0.06l-0.08-0.05l-0.086-0.053
									l-0.087-0.054l-0.093-0.037l-0.089-0.042l-0.1-0.033l-0.104-0.034l-0.099-0.016l-0.104-0.022l-0.106-0.012l-0.104,0.003
									l-1.415,0.052l-8.317,0.285h-0.093l-0.085,0.001l-0.098-0.001l-0.093-0.013l-0.096-0.007l-0.096-0.008l-0.093-0.014
									l-0.099-0.014l-0.099-0.014l-0.099-0.021l-0.097-0.02l-0.097-0.02L101.867,13l-0.096-0.026l-0.09-0.023l-0.093-0.031
									l-0.132-0.045l-0.13-0.048l-0.113-0.044l-0.114-0.044l-0.1-0.052l-0.096-0.044l-0.098-0.052l-0.092-0.042l-0.085-0.053
									l-0.077-0.045l-0.082-0.044l-0.076-0.045l-0.083-0.046l-0.076-0.043l-0.073-0.037l-0.078-0.043l-0.079-0.038l-0.08-0.035
									l-0.077-0.025l-0.087-0.029l-0.094-0.031l-0.09-0.025l-0.099-0.013l-0.104-0.017l-0.106-0.012l-0.12-0.008l-0.126-0.005
									l-0.13,0.005l-0.136,0.002l-0.152,0.018l-0.157,0.014l-0.172,0.021l-0.129,0.019l-0.125,0.03l-0.128,0.032l-0.117,0.041
									l-0.124,0.044l-0.119,0.045l-0.113,0.048l-0.116,0.053l-0.11,0.055l-0.112,0.06l1.781,0.594l-2.396,0.081L96.464,13.229z
									 M112.775,13.281l0.011-0.07l0.023-0.052l0.044-0.041l0.065-0.033l0.077-0.011l0.041,0.002l0.05,0.003l0.044,0.009
									l0.047,0.009l0.055,0.019l0.05,0.017l0.053,0.024l0.058,0.031l0.047,0.021l0.05,0.035l0.044,0.033l0.049,0.04l0.048,0.034
									l0.035,0.042l0.043,0.039l0.034,0.043l0.064,0.082l0.032,0.084l0.017,0.042l0.01,0.028l-0.006,0.071l-0.013,0.057
									l-0.041,0.048l-0.059,0.029l-0.078,0.016l-0.044,0.004l-0.046-0.01l-0.054-0.005l-0.056-0.013l-0.05-0.017l-0.055-0.019
									l-0.059-0.025l-0.052-0.029l-0.054-0.024l-0.058-0.031l-0.049-0.034l-0.047-0.04l-0.045-0.033l-0.045-0.045l-0.041-0.044
									l-0.034-0.042l-0.057-0.086l-0.033-0.083l-0.009-0.028L112.775,13.281z M102.637,14.575L102.637,14.575l-0.04-0.031
									L102.637,14.575z M101.076,13.606l0.063-0.064l0.838-0.048l0.178,0.093l0.418,0.987l-0.064,0.083l-0.898,0.063l0.04,0.008
									l-0.03,0.048h-0.005l-0.199-0.115l-0.001-0.001l0.052-0.024L101.076,13.606z"></path>
							</g>
						</g>
					</g>
				</g>
			</g>
		</g>
		<polygon fill-rule="evenodd" clip-rule="evenodd" fill="#010101" points="112.207,13.916 112.156,13.888 112.147,13.84 
			112.222,13.822 112.235,13.87 112.191,13.837 112.207,13.916 112.207,13.916 		"></polygon>
		<polygon fill-rule="evenodd" clip-rule="evenodd" fill="#010101" points="112.308,13.857 112.296,13.872 112.277,13.89 
			112.255,13.902 112.234,13.913 112.207,13.916 112.191,13.837 112.203,13.84 112.219,13.828 112.239,13.822 112.241,13.817 
			112.237,13.828 112.305,13.863 112.305,13.863 112.308,13.857 		"></polygon>
		<polygon fill-rule="evenodd" clip-rule="evenodd" fill="#010101" points="112.1,13.398 112.105,13.399 112.142,13.441 
			112.187,13.487 112.229,13.539 112.272,13.595 112.307,13.656 112.327,13.724 112.328,13.796 112.305,13.863 112.237,13.828 
			112.252,13.783 112.248,13.74 112.235,13.687 112.203,13.64 112.165,13.584 112.126,13.54 112.079,13.495 112.045,13.453 
			112.051,13.455 112.1,13.398 112.1,13.398 		"></polygon>
		<polygon fill-rule="evenodd" clip-rule="evenodd" fill="#010101" points="111.427,13.204 111.421,13.201 111.518,13.204 
			111.609,13.204 111.695,13.219 111.777,13.228 111.862,13.25 111.94,13.29 112.022,13.335 112.1,13.398 112.051,13.455 
			111.976,13.404 111.903,13.363 111.836,13.328 111.764,13.31 111.683,13.294 111.6,13.287 111.516,13.282 111.429,13.285 
			111.432,13.278 111.418,13.206 111.418,13.206 111.427,13.204 		"></polygon>
		<polygon fill-rule="evenodd" clip-rule="evenodd" fill="#010101" points="104.276,13.578 104.308,13.558 111.418,13.206 
			111.432,13.278 104.318,13.634 104.35,13.615 104.276,13.578 104.276,13.578 		"></polygon>
		<polygon fill-rule="evenodd" clip-rule="evenodd" fill="#010101" points="104.107,13.827 104.03,13.802 104.036,13.746 
			104.051,13.705 104.072,13.657 104.103,13.623 104.14,13.6 104.189,13.58 104.245,13.562 104.308,13.558 104.318,13.634 
			104.259,13.645 104.206,13.658 104.182,13.663 104.155,13.684 104.142,13.705 104.123,13.728 104.111,13.761 104.113,13.81 
			104.036,13.784 104.107,13.827 104.107,13.827 		"></polygon>
		<g>
			<polygon fill="none" points="104.308,13.559 104.318,13.634 104.308,13.559 			"></polygon>
			<g>
				<polygon fill="none" points="104.113,13.81 104.123,13.764 104.144,13.717 104.163,13.68 104.201,13.657 104.246,13.646 
					104.311,13.639 104.318,13.634 111.432,13.278 111.551,13.287 111.649,13.285 111.743,13.296 111.828,13.313 111.907,13.352 
					111.979,13.393 112.045,13.453 112.12,13.539 112.187,13.616 112.234,13.693 112.258,13.75 112.258,13.787 112.241,13.817 
					112.195,13.844 112.109,13.865 111.988,13.879 104.68,14.255 104.674,14.254 104.571,14.25 104.47,14.222 104.381,14.18 
					104.305,14.136 104.239,14.072 104.193,14.007 104.153,13.946 104.123,13.894 104.117,13.854 				"></polygon>
				<g>
					<path fill="none" d="M104.123,13.764l-0.01,0.046l0.004,0.044l0.006,0.04l0.03,0.053l0.04,0.061l0.046,0.065l0.065,0.063
						l0.076,0.044l0.089,0.042l0.102,0.027l0.103,0.004l0.006,0.001l7.309-0.376l0.121-0.014l0.086-0.021l0.046-0.027l0.017-0.031
						V13.75l-0.023-0.057l-0.048-0.077l-0.066-0.077l-0.075-0.086l-0.066-0.061l-0.071-0.041l-0.079-0.038l-0.085-0.018
						l-0.094-0.011l-0.099,0.002l-0.119-0.009l-7.113,0.356l-0.008,0.004l-0.064,0.007l-0.045,0.011l-0.038,0.023l-0.02,0.037
						L104.123,13.764z M104.223,13.718l7.113-0.354l0.004-0.012l0.095,0.008h0.092l0.087,0.016l0.082,0.01l0.084,0.022l0.078,0.038
						l0.077,0.043l0.083,0.064l0.031,0.034l0.027,0.029l0.025,0.032l0.021,0.024l0.031,0.036l0.023,0.037l0.021,0.032l0.02,0.031
						l0.003,0.013l-0.074,0.018l0.002,0.014l-0.019-0.036l-0.02-0.031l-0.027-0.029l-0.02-0.03l-0.023-0.026l-0.025-0.034
						l-0.027-0.027l-0.033-0.029l0.003-0.003l-0.065-0.049l-0.07-0.047l-0.069-0.03l-0.073-0.018l-0.08-0.015l-0.082-0.009
						l-0.09-0.006l-0.087,0.002l-7.11,0.351L104.223,13.718z"></path>
					<g>
						<path fill="none" d="M104.123,13.764l-0.01,0.046l0.004,0.044l0.006,0.04l0.03,0.053l0.04,0.061l0.046,0.065l0.065,0.063
							l0.076,0.044l0.089,0.042l0.102,0.027l0.103,0.004l0.006,0.001l7.309-0.376l0.121-0.014l0.086-0.021l0.046-0.027l0.017-0.031
							V13.75l-0.023-0.057l-0.048-0.077l-0.066-0.077l-0.075-0.086l-0.066-0.061l-0.071-0.041l-0.079-0.038l-0.085-0.018
							l-0.094-0.011l-0.099,0.002l-0.119-0.009l-7.113,0.356l-0.008,0.004l-0.064,0.007l-0.045,0.011l-0.038,0.023l-0.02,0.037
							L104.123,13.764z"></path>
						<g>
							<polygon fill="none" points="104.144,13.717 104.163,13.68 104.201,13.657 104.246,13.646 104.289,13.641 104.23,13.752 
								111.344,13.396 111.435,13.396 111.52,13.399 111.605,13.415 111.688,13.425 111.767,13.445 111.841,13.477 111.917,13.526 
								111.99,13.581 112.016,13.614 112.043,13.641 112.069,13.673 112.096,13.702 112.116,13.732 112.143,13.766 112.163,13.796 
								112.187,13.835 112.188,13.846 112.109,13.865 111.988,13.879 104.68,14.255 104.674,14.254 104.571,14.25 104.47,14.222 
								104.381,14.18 104.305,14.136 104.239,14.072 104.193,14.007 104.153,13.946 104.123,13.894 104.117,13.854 104.113,13.81 
								104.123,13.764 							"></polygon>
							<polygon fill="#010101" points="112.163,13.796 112.143,13.766 112.116,13.732 112.096,13.702 112.069,13.673 
								112.043,13.641 112.016,13.614 111.99,13.581 111.917,13.526 111.841,13.477 111.767,13.445 111.688,13.425 111.605,13.415 
								111.52,13.399 111.435,13.396 111.344,13.396 104.23,13.752 104.289,13.641 104.311,13.639 104.318,13.634 111.432,13.278 
								111.551,13.287 111.649,13.285 111.743,13.296 111.828,13.313 111.907,13.352 111.979,13.393 112.045,13.453 112.12,13.539 
								112.187,13.616 112.234,13.693 112.258,13.75 112.258,13.787 112.241,13.817 112.195,13.844 112.188,13.846 112.187,13.835 
															"></polygon>
							<g>
								<polygon fill="none" points="104.125,13.757 104.131,13.755 104.168,13.755 104.23,13.752 104.29,13.641 104.311,13.639 
									104.318,13.634 111.432,13.278 111.551,13.287 111.649,13.285 111.743,13.296 111.828,13.313 111.907,13.352 
									111.979,13.393 112.045,13.453 112.12,13.539 112.187,13.616 112.234,13.693 112.258,13.75 112.258,13.787 112.241,13.817 
									112.195,13.844 112.188,13.846 112.109,13.865 111.988,13.879 104.68,14.255 104.674,14.254 104.571,14.25 104.47,14.222 
									104.381,14.18 104.305,14.136 104.239,14.072 104.193,14.007 104.153,13.946 104.123,13.894 104.117,13.854 104.113,13.81 
									104.123,13.764 								"></polygon>
								<path fill="#010101" d="M104.03,13.802l0.008,0.068l0.015,0.048l0.02,0.067l0.048,0.078l0.059,0.061l0.074,0.069
									l0.091,0.061l0.101,0.045l0.107,0.029l0.128,0.002l7.307-0.372l0.14-0.015l0.099-0.022l0.071-0.049l0.04-0.067l-0.002-0.066
									l-0.027-0.083l-0.054-0.079l-0.071-0.092l-0.076-0.086l-0.081-0.07l-0.085-0.053l-0.084-0.04l-0.092-0.019l-0.11-0.018
									h-0.109l-0.126,0.006l-7.11,0.352v0.001l-0.074,0.004l-0.078,0.029l-0.051,0.044l-0.035,0.049l-0.023,0.054L104.03,13.802z
									 M104.113,13.81l0.01-0.046l0.002-0.006l0.006-0.002h0.037l0.062-0.003l0.06-0.111l0.021-0.002l0.008-0.004l7.113-0.356
									l0.119,0.009l0.099-0.002l0.094,0.011l0.085,0.018l0.079,0.038l0.071,0.041l0.066,0.061l0.075,0.086l0.066,0.077
									l0.048,0.077l0.023,0.057v0.037l-0.017,0.031l-0.046,0.027l-0.007,0.001l-0.079,0.02l-0.121,0.014l-7.309,0.376
									l-0.006-0.001l-0.103-0.004l-0.102-0.027l-0.089-0.042l-0.076-0.044l-0.065-0.063l-0.046-0.065l-0.04-0.061l-0.03-0.053
									l-0.006-0.04L104.113,13.81z"></path>
							</g>
						</g>
					</g>
				</g>
			</g>
		</g>
	</g>
</g>


<g>
	<path fill="#EB242B" d="M50.812,4.67c0,0.185-0.084,0.364-0.25,0.539l-0.027,0.026l-1.462,1.54
		c-0.311,0.326-0.575,0.578-0.793,0.756c-0.218,0.178-0.372,0.267-0.463,0.267c-0.095,0-0.212-0.043-0.353-0.133
		c-0.14-0.089-0.231-0.181-0.272-0.275c-0.034-0.079-0.067-0.246-0.098-0.501c-0.031-0.255-0.046-0.533-0.046-0.83
		c0-0.163,0.067-0.312,0.204-0.45c0.136-0.138,0.286-0.207,0.449-0.207c0.157,0,0.249,0.143,0.278,0.428
		c0.004,0.033,0.007,0.057,0.008,0.074c0.025,0.218,0.054,0.372,0.087,0.458c0.034,0.087,0.078,0.13,0.136,0.13
		c0.022,0,0.067-0.025,0.131-0.076s0.142-0.121,0.232-0.21l1.502-1.487c0.126-0.126,0.239-0.221,0.338-0.287
		c0.1-0.064,0.184-0.097,0.253-0.097c0.052,0,0.089,0.021,0.111,0.06c0.022,0.04,0.033,0.105,0.033,0.199V4.67z"></path>
</g>
<g>
	<g>
		<polyline fill="none" stroke="#00AEEF" stroke-miterlimit="10" points="19.5,129.559 18,129.559 18.75,128.26 		"></polyline>
		
			<line fill="none" stroke="#00AEEF" stroke-miterlimit="10" stroke-dasharray="3,3" x1="20.25" y1="125.661" x2="79.501" y2="23.039"></line>
		<polyline fill="none" stroke="#00AEEF" stroke-miterlimit="10" points="80.251,21.74 81.001,20.441 81.751,21.74 		"></polyline>
		
			<line fill="none" stroke="#00AEEF" stroke-miterlimit="10" stroke-dasharray="3,3" x1="83.251" y1="24.338" x2="142.5" y2="126.961"></line>
		<polyline fill="none" stroke="#00AEEF" stroke-miterlimit="10" points="143.25,128.26 144,129.559 142.5,129.559 		"></polyline>
		
			<line fill="none" stroke="#00AEEF" stroke-miterlimit="10" stroke-dasharray="3,3" x1="139.5" y1="129.559" x2="21" y2="129.559"></line>
	</g>
</g>
</svg>