<svg version="1.1" xmlns="http://www.w3.org/2000/svg" xmlns:xlink="http://www.w3.org/1999/xlink" x="0px" y="0px" width="1050" height="1425" viewBox="0 0 1050 1425" enable-background="new 0 0 252 342.36" xml:space="preserve">
<g id="Outlines">
	<polygon fill="#929497" points="0,342.18 252,342.18 252,0.18 0,0.18 0,342.18 	"></polygon>
	<rect x="9" y="9.18" fill="#FFFFFF" stroke="#ED1C24" stroke-width="1.104" stroke-miterlimit="10" width="234" height="324"></rect>
	<rect x="18" y="18.179" fill="none" stroke="#2DA6DE" stroke-width="1.1119" stroke-dasharray="1.6012" width="216" height="306"></rect>
</g>
<g id="Text">
	<g>
		<rect x="38.846" y="27.457" fill="#E7E7E7" width="185.545" height="18.41"></rect>
		
	</g>
	
	<rect x="224.999" y="182.231" fill="#F9A61C" width="27.001" height="26.084"></rect>
	<line fill="none" stroke="#F9A61C" x1="181.714" y1="182.73" x2="245.993" y2="182.73"></line>
	<line fill="none" stroke="#EB242B" x1="190.749" y1="103.305" x2="243.22" y2="103.305"></line>
	<line fill="none" stroke="#929497" x1="184.249" y1="123.223" x2="246.749" y2="123.223"></line>
	<line fill="none" stroke="#2DA6DE" stroke-dasharray="1.44" x1="188.47" y1="63.555" x2="234" y2="63.555"></line>
	<g>
		<path fill="#EB242B" d="M188.481,56.621c0,0.411-0.187,0.812-0.559,1.202l-0.059,0.059l-3.259,3.434
			c-0.692,0.728-1.282,1.289-1.769,1.687c-0.487,0.398-0.831,0.597-1.031,0.597c-0.211,0-0.473-0.1-0.786-0.298
			c-0.312-0.199-0.515-0.403-0.606-0.614c-0.077-0.177-0.15-0.549-0.219-1.118s-0.103-1.188-0.103-1.852
			c0-0.362,0.151-0.697,0.453-1.005c0.303-0.308,0.637-0.461,1.002-0.461c0.349,0,0.556,0.318,0.622,0.954
			c0.008,0.074,0.013,0.129,0.017,0.164c0.056,0.488,0.121,0.829,0.194,1.023c0.074,0.192,0.175,0.289,0.301,0.289
			c0.053,0,0.151-0.057,0.296-0.171c0.144-0.114,0.316-0.27,0.517-0.467l3.349-3.317c0.281-0.28,0.532-0.493,0.754-0.638
			s0.409-0.216,0.564-0.216c0.116,0,0.198,0.044,0.248,0.131c0.049,0.088,0.073,0.236,0.073,0.443V56.621z"></path>
	</g>
	<g>
		<path fill="#EB242B" d="M189.696,95.596c0,0.411-0.187,0.812-0.559,1.202l-0.059,0.059l-3.259,3.433
			c-0.692,0.728-1.282,1.29-1.769,1.688c-0.487,0.397-0.831,0.596-1.031,0.596c-0.211,0-0.473-0.099-0.786-0.298
			c-0.312-0.198-0.515-0.403-0.606-0.614c-0.077-0.176-0.15-0.549-0.219-1.118s-0.103-1.187-0.103-1.851
			c0-0.362,0.151-0.697,0.453-1.005c0.303-0.308,0.637-0.461,1.002-0.461c0.349,0,0.556,0.317,0.622,0.954
			c0.008,0.074,0.013,0.128,0.017,0.164c0.056,0.488,0.121,0.829,0.194,1.022c0.074,0.193,0.175,0.29,0.301,0.29
			c0.053,0,0.151-0.057,0.296-0.171c0.144-0.114,0.316-0.27,0.517-0.468l3.349-3.316c0.281-0.281,0.532-0.493,0.754-0.638
			s0.409-0.217,0.564-0.217c0.116,0,0.198,0.045,0.248,0.132c0.049,0.088,0.073,0.236,0.073,0.443V95.596z"></path>
	</g>
	<g>
		<path fill="#EB242B" d="M184.196,114.997c0,0.411-0.187,0.812-0.559,1.202l-0.059,0.059l-3.259,3.433
			c-0.692,0.728-1.282,1.29-1.769,1.688c-0.487,0.397-0.831,0.596-1.031,0.596c-0.211,0-0.473-0.099-0.786-0.298
			c-0.312-0.198-0.515-0.403-0.606-0.614c-0.077-0.176-0.15-0.548-0.219-1.118c-0.068-0.569-0.103-1.187-0.103-1.851
			c0-0.362,0.151-0.697,0.453-1.005c0.303-0.308,0.637-0.461,1.002-0.461c0.349,0,0.556,0.318,0.622,0.954
			c0.008,0.074,0.013,0.128,0.017,0.164c0.056,0.488,0.121,0.829,0.194,1.022c0.074,0.193,0.175,0.29,0.301,0.29
			c0.053,0,0.151-0.057,0.296-0.171c0.144-0.114,0.316-0.27,0.517-0.468l3.349-3.316c0.281-0.281,0.532-0.493,0.754-0.639
			c0.222-0.144,0.409-0.216,0.564-0.216c0.116,0,0.198,0.045,0.248,0.132c0.049,0.088,0.073,0.236,0.073,0.443V114.997z"></path>
	</g>
	<g>
		<path fill="#EB242B" d="M181.481,175.596c0,0.412-0.187,0.812-0.559,1.203l-0.059,0.06l-3.259,3.432
			c-0.692,0.728-1.282,1.29-1.769,1.688c-0.487,0.398-0.831,0.595-1.031,0.595c-0.211,0-0.473-0.1-0.786-0.297
			c-0.312-0.199-0.515-0.403-0.606-0.614c-0.077-0.176-0.15-0.549-0.219-1.117c-0.068-0.57-0.103-1.188-0.103-1.853
			c0-0.361,0.151-0.697,0.453-1.003c0.303-0.31,0.637-0.462,1.002-0.462c0.349,0,0.556,0.317,0.622,0.954
			c0.008,0.074,0.013,0.128,0.017,0.164c0.056,0.487,0.121,0.829,0.194,1.023c0.074,0.192,0.175,0.288,0.301,0.288
			c0.053,0,0.151-0.056,0.296-0.172c0.144-0.112,0.316-0.27,0.517-0.465l3.349-3.318c0.281-0.281,0.532-0.494,0.754-0.637
			c0.222-0.145,0.409-0.216,0.564-0.216c0.116,0,0.198,0.042,0.248,0.13c0.049,0.088,0.073,0.236,0.073,0.443V175.596z"></path>
	</g>
	
	<g>
		<circle fill-rule="evenodd" clip-rule="evenodd" fill="#010101" cx="54.387" cy="240.525" r="23.98"></circle>
		<circle fill-rule="evenodd" clip-rule="evenodd" fill="#B7D334" cx="54.404" cy="240.657" r="21.8"></circle>
		<g>
			<path fill="#010101" d="M49.736,235.904c-0.302,2.671-0.527,4.818-0.677,6.438l-0.994,0.044c0.015-0.054,0.021-0.115,0.023-0.183
				c0.002-0.121-0.043-0.281-0.134-0.479c-0.092-0.197-0.144-0.323-0.156-0.377c-0.257,0.037-0.504,0.216-0.738,0.533
				c-0.236,0.321-0.449,0.481-0.638,0.479c-0.107-0.005-0.229-0.033-0.363-0.088c-0.178,0.118-0.408,0.169-0.692,0.151
				c-0.256-0.046-0.506-0.083-0.748-0.114c-0.009-0.34-0.341-0.635-0.999-0.89c0.003-0.136-0.065-0.336-0.203-0.603
				c-0.138-0.266-0.205-0.452-0.202-0.561c0.001-0.121,0.05-0.222,0.146-0.302c-0.014-0.04-0.125-0.293-0.332-0.757
				c-0.143-0.341-0.212-0.632-0.209-0.874c0.004-0.189,0.047-0.364,0.132-0.525c-0.116-1.151-0.167-2.14-0.152-2.963
				c0.021-1.271,0.202-2.438,0.546-3.501c-0.024-0.163-0.035-0.325-0.033-0.486c0.016-0.852,0.31-1.441,0.882-1.771l0.005-0.263
				c0.566-0.722,1.312-1.242,2.236-1.564c0.554,0.132,1.104,0.255,1.657,0.374c0.618,0.212,1.045,0.578,1.278,1.096
				c0.188,0.112,0.279,0.337,0.273,0.673c-0.006,0.38,0.037,0.624,0.129,0.733l-0.104,0.119c0.108,0.8,0.161,1.287,0.158,1.463
				c-0.009,0.515-0.144,0.877-0.403,1.089c-0.095-0.001-0.344-0.086-0.746-0.256c-0.097,0.093-0.199,0.139-0.307,0.137
				c-0.055-0.001-0.152-0.031-0.293-0.087c-0.141-0.057-0.26-0.084-0.354-0.086c-0.067-0.001-0.137,0.011-0.203,0.036
				c-0.009-1.067,0.024-1.864,0.101-2.392c-0.106-0.068-0.215-0.229-0.325-0.471c-0.112-0.246-0.255-0.384-0.429-0.414
				c-0.111,0.135-0.16,0.222-0.147,0.263l-0.363-0.128c-0.33,0.359-0.55,0.984-0.659,1.874c-0.112,1.026-0.252,1.705-0.42,2.041
				c0.146,0.151,0.217,0.362,0.211,0.632c-0.001,0.095-0.017,0.251-0.048,0.465c-0.032,0.217-0.047,0.379-0.048,0.487
				c-0.003,0.122,0.008,0.23,0.034,0.325l-0.247,0.239c0.1,0.461,0.157,1.044,0.173,1.748c-0.01,0.594-0.014,1.188-0.01,1.783
				c-0.014,0-0.129,0.004-0.345,0.016c-0.135-0.004-0.231,0.042-0.286,0.136c0.081-0.012,0.155-0.019,0.223-0.016
				c0.297,0.004,0.53,0.215,0.698,0.63c0.17,0.415,0.314,0.624,0.437,0.627c0.135,0.001,0.319-0.124,0.554-0.379
				c0.398-0.425,0.605-1.01,0.618-1.752c0.007-0.365-0.034-0.758-0.122-1.178c-0.096,0.051-0.146,0.187-0.148,0.402
				c-0.217-0.003-0.354,0.042-0.409,0.134c-0.093-0.028-0.133-0.104-0.117-0.223c0.017-0.176,0.024-0.271,0.024-0.285
				c0.164-0.05,0.245-0.124,0.248-0.219c0-0.04-0.028-0.116-0.088-0.225c-0.059-0.108-0.087-0.196-0.087-0.266
				c0.001-0.054,0.017-0.106,0.044-0.161l0.095-0.79c0.296,0.088,0.937,0.125,1.925,0.116c-0.029,0.065,0.011,0.155,0.117,0.264
				c0.096-0.093,0.197-0.14,0.306-0.136c0.081,0.002,0.202,0.037,0.362,0.107C49.554,235.867,49.667,235.902,49.736,235.904z"></path>
			<path fill="#010101" d="M57.304,242.886c-0.188-0.084-0.391-0.127-0.606-0.132c-0.189-0.003-0.448,0.033-0.773,0.109
				c-0.366,0.074-0.617,0.116-0.752,0.129c-0.145-0.286-0.245-0.68-0.304-1.182c-0.109-0.731-0.178-1.145-0.203-1.241
				c0.043-0.08,0.064-0.147,0.064-0.2c0.003-0.149-0.114-0.283-0.348-0.403c-0.235-0.117-0.352-0.212-0.35-0.279
				c0.001-0.08,0.138-0.199,0.41-0.357c-0.065-0.081-0.114-0.249-0.144-0.498c-0.028-0.251-0.091-0.418-0.184-0.501
				c-0.165,0.146-0.434,0.24-0.806,0.28c-0.373,0.042-0.62,0.102-0.743,0.18c0.009,1.055-0.165,1.763-0.522,2.12
				c-0.188-0.043-0.333,0.029-0.43,0.217c-0.14,0.228-0.257,0.36-0.352,0.399l0.118,0.144c-0.109,0.093-0.286,0.131-0.528,0.113
				c-0.379-0.021-0.581-0.03-0.608-0.03l-0.114-0.368l1.32-10.947c0.013-0.689,0.047-1.158,0.104-1.399
				c-0.017-0.609,0.126-0.984,0.425-1.128c0.188,0.124,0.424,0.189,0.707,0.194c0.23,0.005,0.589-0.043,1.076-0.145
				c0.49-0.099,0.828-0.148,1.018-0.146c0.662,0.013,0.95,0.489,0.868,1.436c-0.066,0.756,0.051,1.752,0.354,2.987
				c0.315,1.331,0.468,2.327,0.457,2.99c-0.004,0.2,0.062,0.622,0.046,0.824c-0.287,0.156-0.652,0.253-1.1,0.285
				c-0.393,0.021-0.792,0.042-1.197,0.06c-0.104-1.028-0.286-2.269-0.391-3.284c-0.128-1.219-0.286-2.221-0.477-3.01l-0.626,5.79
				c-0.048,0.5,0.178,0.754,0.678,0.763c0.162,0.002,0.317-0.035,0.468-0.114c0.123-0.038,0.291,0.052,0.503,0.272
				c-0.008,0.419,0.076,0.67,0.251,0.754c0.219-0.145,0.505-0.281,0.858-0.412c0.312-0.115,0.62-0.225,0.919-0.328
				c0.17,0.233,0.28,0.579,0.327,1.04c0.056,0.65,0.098,1.029,0.122,1.138c0.022,0.258,0.128,0.813,0.315,1.669
				c0.138,0.677,0.203,1.226,0.196,1.646C57.35,242.523,57.333,242.711,57.304,242.886z"></path>
			<path fill="#010101" d="M66.641,233.229c-0.015,0.041-0.019,0.277-0.012,0.71c-0.007,0.351-0.051,0.614-0.135,0.788
				c-0.101,0.27-0.153,0.655-0.162,1.153c-0.003,0.109,0.002,0.278,0.012,0.508c-0.005,0.23-0.007,0.399-0.008,0.507
				c-0.016,0.851-0.161,1.47-0.439,1.857c0.024,0.219,0.034,0.435,0.032,0.65c-0.012,0.676-0.244,1.585-0.696,2.727
				c-0.122,0.039-0.225,0.057-0.307,0.056c-0.162-0.004-0.277-0.098-0.35-0.281c-0.071-0.183-0.139-0.356-0.203-0.52
				c0.044-1.039,0.022-2.555-0.065-4.544l0.123-0.12c-0.089-0.352-0.128-0.744-0.121-1.177c0.005-0.312,0.045-0.764,0.114-1.357
				c0.071-0.595,0.108-1.04,0.113-1.337c0.005-0.189,0-0.371-0.009-0.547c-0.467,1.114-0.796,3-0.989,5.66l-0.17,0.402
				c-0.057,0.136-0.173,0.208-0.348,0.219c-0.053-0.095-0.106-0.144-0.159-0.145c-0.041-0.003-0.113,0.047-0.216,0.148
				c-0.104,0.098-0.189,0.142-0.256,0.127l-0.269,0.237c0.119,0.152,0.375,0.17,0.771,0.057c0.312-0.091,0.472,0.027,0.48,0.352
				c0.009,0.271-0.065,0.634-0.222,1.091c-0.157,0.457-0.236,0.801-0.24,1.03c-0.003,0.163,0.015,0.325,0.052,0.486l-1.402,0.221
				c-0.131-0.272-0.228-0.73-0.292-1.374c-0.062-0.642-0.159-1.101-0.29-1.373c0.082-0.093,0.124-0.192,0.126-0.303
				c0.002-0.094-0.035-0.237-0.114-0.427c-0.077-0.191-0.122-0.334-0.135-0.43c-0.011-0.147-0.058-0.508-0.144-1.076
				c-0.06-0.46-0.088-0.821-0.083-1.075c0.002-0.137,0.012-0.258,0.026-0.366c0.002-0.095-0.052-0.233-0.155-0.419
				c-0.104-0.184-0.156-0.316-0.154-0.397c0.001-0.067,0.028-0.127,0.083-0.181c-0.093-0.111-0.13-0.3-0.112-0.569
				c0.019-0.271-0.02-0.461-0.111-0.569c-0.198,0.522-0.305,1.23-0.32,2.122c-0.007,1.243-0.02,1.962-0.036,2.149l0.14,0.125
				l-0.144,0.118c0.099,0.488,0.144,1.111,0.13,1.867c-0.036,1.366-0.054,2.001-0.053,1.908c-0.191,0.171-0.457,0.255-0.795,0.248
				c-0.419-0.006-0.704,0.03-0.854,0.107c-0.171-0.3-0.253-0.687-0.244-1.159c0.006-0.365,0.068-0.81,0.186-1.336
				c-0.185-0.342-0.271-0.815-0.26-1.425c0.002-0.148,0.021-0.431,0.055-0.851c0.02-0.336,0.023-0.588,0.014-0.749
				c0.135-0.065,0.205-0.138,0.205-0.22c0.002-0.054-0.04-0.146-0.127-0.276c-0.086-0.128-0.128-0.228-0.127-0.296
				c0.002-0.082,0.057-0.161,0.166-0.241l-0.437-6.558c0.261-0.171,0.681-0.252,1.263-0.241c0.634,0.024,1.068-0.01,1.299-0.1
				c0.042-0.027,0.089-0.039,0.143-0.039c0.056,0.002,0.118,0.032,0.191,0.095c0.074,0.062,0.124,0.094,0.15,0.094
				c0.054,0,0.103-0.04,0.145-0.12l0.379,0.373c0.127,0.476,0.247,1.396,0.359,2.763c0.114,1.179,0.295,2.068,0.543,2.667
				c0.331-1.197,0.604-2.2,0.821-3.007l0.44-3.21l3.144-0.068c0.011,0.175,0.05,1.115,0.134,1.658
				c0.072,0.474,0.107,0.859,0.103,1.156c-0.005,0.339-0.058,0.642-0.158,0.91c0.105,0.151,0.157,0.341,0.153,0.569
				C66.81,232.895,66.751,233.082,66.641,233.229z"></path>
			<path fill="#010101" d="M73.091,240.336v-0.021c-0.084,0.174-0.136,0.376-0.152,0.605c-0.016,0.148-0.02,0.357-0.011,0.628
				c0.008,0.311,0.011,0.527,0.01,0.649c-0.109-0.002-0.541-0.01-1.297-0.021c-0.461-0.008-0.873,0.031-1.24,0.121l-0.378-0.412
				c-0.111,0.105-0.152,0.192-0.127,0.261c-0.066-0.015-0.378-0.02-0.933-0.016c-0.433-0.007-0.756-0.055-0.97-0.139
				c-0.222,0.228-0.478,0.222-0.771-0.014c-0.106-0.081-0.117-0.221-0.034-0.415c0.085-0.195,0.061-0.341-0.072-0.438
				c0.021-0.432,0.079-1.101,0.176-2.005c0.095-0.809,0.146-1.444,0.153-1.903c0.01-0.623-0.032-1.218-0.132-1.787
				c0.153-0.146,0.321-0.218,0.511-0.214c0.218,0.002,0.472,0.109,0.766,0.317c0.413,0.288,0.629,0.437,0.642,0.437l0.118,0.143
				c0.016-0.04,0.086-0.255,0.215-0.645c0.071-0.256,0.176-0.422,0.312-0.503l0.12,0.125c0.055-0.025,0.231-0.151,0.534-0.376
				c0.23-0.159,0.421-0.534,0.555-0.53c0.15,0.001,0.289,0.086,0.422,0.25c0.229,0.124,0.371,0.611,0.442,0.86
				c0.069,0.253,0.137,0.5,0.201,0.746c-0.609,0.017-1.11,0-1.501-0.047c-0.097,0.147-0.232,0.169-0.407,0.064
				c-0.173-0.104-0.301-0.089-0.385,0.042c-0.005,0.245-0.013,0.686-0.023,1.32c-0.023,0.565-0.029,1.013-0.021,1.338
				c0.004,0.5,0.037,0.96,0.098,1.38c0.107,0.002,0.621,0.012,1.54,0.027C72.086,240.177,72.632,240.233,73.091,240.336z
				 M73.134,230.623c-0.122,0.012-0.257,0.016-0.405,0.014c-0.312-0.006-0.724-0.055-1.235-0.144
				c-0.635-0.091-1.019-0.146-1.153-0.161c-0.193,0.28-0.295,0.678-0.305,1.191c-0.019,1.108-0.019,1.588-0.003,1.439
				c0.188,0.11,0.279,0.316,0.273,0.613c-0.021,0.405-0.024,0.616-0.011,0.629c-0.095,0.038-0.146,0.173-0.148,0.402
				c-0.148-0.056-0.302-0.168-0.461-0.333c-0.213-0.206-0.326,0.493-0.311,0.319l-0.128,0.416l-0.12-0.123
				c-0.109,0.011-0.294-0.046-0.555-0.173c-0.263-0.126-0.445-0.241-0.552-0.354c0.004-0.216,0.04-0.337,0.107-0.363l-0.258-0.287
				l-0.125,0.18c-0.151-1.409-0.114-4.043,0.072-5.527c0.513,0.09,1.08,0.147,1.701,0.171c0.419,0.021,1.006,0.031,1.764,0.031
				c0.865,0.001,1.488,0.004,1.866,0.01c0.158,0.151,0.237,0.349,0.232,0.593c-0.001,0.149-0.043,0.389-0.123,0.718
				C73.178,230.214,73.137,230.459,73.134,230.623z"></path>
		</g>
		<g>
			<path fill="#010101" d="M50.345,252.597v-0.011c0,0.007-0.034,0.306-0.104,0.895c-0.035,0.361-0.122,0.646-0.262,0.854
				l-0.088-0.071c-0.165,0.344-0.388,0.554-0.671,0.628c-0.136,0.143-0.332,0.221-0.587,0.236c-0.151,0.01-0.501-0.035-1.05-0.132
				c-0.266-0.165-0.41-0.257-0.436-0.274c-0.167-0.125-0.247-0.252-0.238-0.382c-0.161-0.164-0.388-0.458-0.474-0.825
				c-0.104-0.407-0.166-0.429-0.262-0.572c-0.153,0.113-0.208-0.126-0.297-0.271l0.08-0.061c-0.05-0.036-0.076-0.077-0.079-0.122
				c-0.002-0.032,0.013-0.079,0.04-0.143c0.029-0.062,0.043-0.109,0.04-0.142c-0.003-0.051-0.033-0.095-0.091-0.129
				c0.061-0.32,0.117-0.8,0.168-1.438c0.108-0.059,0.159-0.17,0.154-0.338c-0.006-0.166,0.018-0.277,0.069-0.331
				c0.259-0.518,0.678-0.866,1.259-1.048c0.032,0.004,0.188,0.001,0.468-0.008c0.191-0.005,0.336,0.012,0.435,0.052
				c0.173-0.031,0.349,0.013,0.521,0.123c0.151,0.115,0.303,0.228,0.452,0.342c0.281,0.305,0.434,0.651,0.456,1.035
				c0.007,0.127-0.001,0.264-0.024,0.405c-0.208-0.006-0.356,0.13-0.444,0.413l-0.811,0.076c-0.086-0.124-0.137-0.289-0.147-0.494
				c-0.005-0.07-0.004-0.174,0-0.308c0.003-0.137,0.004-0.238,0-0.309c-0.013-0.212-0.062-0.379-0.15-0.505l-0.242,0.141
				c-0.1-0.039-0.149-0.097-0.154-0.174c-0.002-0.025,0.002-0.063,0.011-0.111c0.01-0.05,0.014-0.083,0.013-0.103
				c-0.005-0.083-0.08-0.133-0.225-0.152c-0.099,0.913-0.129,1.852-0.089,2.812c0.025,0.032,0.104,0.053,0.231,0.066
				c0.104,0.012,0.158,0.045,0.161,0.095c0.001,0.021-0.005,0.046-0.02,0.079l-0.08,0.062c0.044,0.067,0.07,0.164,0.077,0.285
				c0.003,0.063,0.001,0.162-0.007,0.295c-0.009,0.133-0.011,0.231-0.007,0.293c0.012,0.193,0.06,0.339,0.146,0.438
				c-0.009,0.141,0.05,0.238,0.172,0.288c0.078-0.03,0.148-0.046,0.213-0.05c0.247-0.016,0.419,0.12,0.515,0.403
				c0.001,0.007-0.001,0.055-0.003,0.146c0.003,0.052,0.028,0.084,0.078,0.101c0.107-0.064,0.16-0.18,0.159-0.347
				c-0.002-0.192,0.022-0.316,0.074-0.37c-0.014-0.09-0.066-0.219-0.16-0.386c-0.094-0.17-0.143-0.301-0.149-0.397
				c-0.006-0.103,0.025-0.2,0.091-0.294c-0.057-0.018-0.082-0.054-0.078-0.112c0.003-0.092,0.004-0.139,0.004-0.145
				C49.444,252.498,49.892,252.495,50.345,252.597z"></path>
			<path fill="#010101" d="M54.015,253.349h-0.01c-0.048,0.092-0.062,0.225-0.046,0.397c0.021,0.244,0.034,0.369,0.034,0.375
				c-0.036,0.015-0.087-0.004-0.147-0.054c-0.095,0.035-0.141,0.095-0.135,0.178c0,0.013,0.005,0.033,0.015,0.062
				c0.001,0.035,0.003,0.06,0.004,0.071c0.003,0.065-0.016,0.114-0.059,0.147c-0.107-0.06-0.25-0.098-0.424-0.115
				c-0.177-0.016-0.344-0.032-0.5-0.046c-0.003-0.813-0.112-1.61-0.328-2.387c0,0.006-0.005-0.073-0.015-0.242
				c0.001-0.12-0.026-0.204-0.081-0.255l-0.074,0.066c-0.001-0.012,0.023-0.034,0.073-0.07c0.052-0.036,0.075-0.072,0.072-0.108
				c-0.001-0.018-0.006-0.035-0.015-0.052l-0.081-0.059c-0.139,0.045-0.202,0.156-0.192,0.333c0.007,0.12-0.041,0.204-0.141,0.251
				c0.038,0.028,0.059,0.064,0.061,0.104c0.002,0.024-0.001,0.059-0.011,0.101c-0.009,0.041-0.013,0.074-0.011,0.1
				c0.003,0.052,0.032,0.096,0.085,0.128c0.003,0.036,0.021,0.358,0.057,0.967c0.022,0.388,0.012,0.717-0.031,0.987l0.008,0.152
				c-0.053-0.002-0.112-0.001-0.178,0.002c-0.074,0.004-0.183,0.016-0.322,0.033c-0.139,0.018-0.243,0.027-0.31,0.031
				c-0.274,0.016-0.467-0.031-0.577-0.138l-0.116-3.341c-0.054-0.163-0.089-0.393-0.106-0.685l-0.036-0.645
				c-0.026-0.315-0.067-0.558-0.122-0.728c0.023-0.116,0.125-0.18,0.302-0.188c0.111-0.007,0.26,0.008,0.449,0.046
				c0.086-0.04,0.208-0.066,0.363-0.075c0.045-0.004,0.114-0.004,0.212-0.004c0.104-0.006,0.178-0.01,0.222-0.013
				c0.29-0.016,0.481-0.105,0.576-0.267c0.134-0.002,0.279,0.041,0.438,0.127c0.156,0.087,0.295,0.134,0.414,0.138
				c0.315,0.185,0.485,0.492,0.511,0.922c0.006,0.096-0.032,0.475-0.112,1.138l-0.542,0.469c0.092,0.17,0.203,0.537,0.332,1.104
				C53.629,252.782,53.793,253.128,54.015,253.349z M53.014,249.548l0.012,0.008c0.01,0.041,0.005-0.105-0.015-0.438
				c-0.009-0.161-0.068-0.277-0.177-0.35c-0.062,0.087,0.009,0.128-0.021,0.329c-0.028,0.203-0.147,0.146-0.218,0.233
				c-0.186,0-0.228,0.112-0.268-0.064c-0.083-0.289-0.155-0.264-0.156-0.269l-0.079,0.047c-0.028,0.025-0.061,0.054-0.095,0.087
				c-0.035,0.032-0.071,0.042-0.109,0.033c0.002,0.036-0.016,0.092-0.052,0.169c-0.037,0.077-0.055,0.129-0.053,0.159
				c0.004,0.055,0.046,0.094,0.131,0.119c-0.016,0.12-0.02,0.246-0.013,0.376c0.005,0.071,0.021,0.236,0.052,0.491
				c0.033,0.201,0.046,0.374,0.04,0.518c0.067,0.002,0.13,0.002,0.189-0.001c0.261-0.016,0.429-0.118,0.507-0.308
				c0.026-0.055,0.057-0.256,0.089-0.598C52.807,249.833,52.885,249.651,53.014,249.548z"></path>
			<path fill="#010101" d="M58.226,254.647c-0.106-0.031-0.219-0.042-0.338-0.035c-0.104,0.006-0.243,0.032-0.418,0.077
				c-0.2,0.048-0.335,0.077-0.408,0.087c-0.09-0.12-0.159-0.29-0.208-0.508c-0.087-0.318-0.139-0.498-0.155-0.539
				c0.021-0.036,0.03-0.067,0.028-0.092c-0.004-0.065-0.072-0.119-0.204-0.163c-0.134-0.042-0.2-0.08-0.201-0.109
				c-0.002-0.036,0.067-0.093,0.213-0.174c-0.04-0.033-0.071-0.104-0.097-0.215c-0.024-0.108-0.062-0.179-0.118-0.212
				c-0.085,0.071-0.229,0.123-0.431,0.156c-0.203,0.031-0.336,0.067-0.402,0.108c0.043,0.463,0,1.278-0.183,1.45
				c-0.104-0.012-0.18,0.024-0.228,0.113c-0.068,0.104-0.128,0.168-0.179,0.189l0.07,0.058c-0.058,0.047-0.152,0.069-0.285,0.071
				c-0.208,0.006-0.319,0.009-0.334,0.01l-0.076-0.159l0.312-5.369c-0.017-0.305-0.015-0.511,0.008-0.619
				c-0.03-0.268,0.034-0.439,0.193-0.515c0.107,0.048,0.237,0.066,0.395,0.058c0.125-0.007,0.321-0.041,0.584-0.105
				c0.265-0.062,0.448-0.097,0.553-0.104c0.362-0.021,0.537,0.178,0.524,0.598c-0.011,0.335,0.089,0.769,0.299,1.302
				c0.22,0.572,0.337,1.006,0.354,1.299c0.006,0.089,0.125,0.279,0.123,0.369c-0.152,0.08-0.351,0.136-0.593,0.168
				c-0.215,0.025-0.432,0.051-0.654,0.073c-0.093-0.448-0.304-0.993-0.396-1.438c-0.112-0.531-0.235-0.966-0.365-1.308l-0.142,2.576
				c-0.009,0.222,0.124,0.324,0.397,0.309c0.089-0.005,0.174-0.028,0.253-0.068c0.066-0.021,0.16,0.012,0.284,0.1
				c0.011,0.186,0.065,0.294,0.164,0.323c0.115-0.072,0.267-0.145,0.456-0.215c0.167-0.063,0.331-0.124,0.491-0.181
				c0.103,0.096,0.173,0.244,0.217,0.444c0.053,0.285,0.088,0.449,0.105,0.497c0.021,0.112,0.099,0.354,0.231,0.723
				c0.1,0.293,0.154,0.532,0.165,0.717C58.237,254.483,58.235,254.567,58.226,254.647z"></path>
			<path fill="#010101" d="M61.294,248.553h0.011c-0.089,0.131-0.202,0.155-0.341,0.074c-0.03-0.006-0.163,0.003-0.4,0.022
				c-0.199,0.012-0.345,0.001-0.437-0.029c-0.021,0.003-0.066,0.024-0.13,0.066c-0.064,0.044-0.11,0.064-0.142,0.066
				c-0.043,0.004-0.068-0.035-0.073-0.112c-0.001-0.011-0.004-0.062-0.008-0.152c-0.004-0.059-0.033-0.1-0.086-0.12l-0.139,0.107
				c-0.043,0.032-0.063,0.065-0.061,0.102c0.001,0.029,0.026,0.071,0.074,0.126c0.047,0.054,0.075,0.093,0.084,0.115
				c0.001,0.019,0.018,0.287,0.047,0.806c0.011,0.33,0.072,0.592,0.181,0.787c0.026-0.03,0.095-0.048,0.202-0.05
				c0.107-0.004,0.179-0.028,0.214-0.071c0.07,0.061,0.188,0.065,0.352,0.011c0.165-0.056,0.283-0.037,0.355,0.056l-0.021,0.791
				c-0.067-0.009-0.167-0.042-0.296-0.099c-0.038,0.114-0.112,0.188-0.221,0.218c-0.045,0.016-0.171,0.027-0.378,0.04
				c0.006-0.036-0.026-0.073-0.097-0.11c-0.201,0.096-0.277,0.324-0.228,0.686c0.006-0.037,0.014,0.026,0.023,0.188
				c0.006,0.101-0.016,0.174-0.065,0.219c-0.126,0.019-0.285-0.009-0.479-0.084c-0.192-0.075-0.332-0.111-0.413-0.106
				c-0.036,0.002-0.07,0.007-0.1,0.015l-0.208,0.064l-0.333-3.613l-0.039-0.688c0.275-0.093,0.619-0.152,1.026-0.176
				c0.319-0.019,0.736-0.016,1.25,0.008c0.033-0.067,0.094,0.021,0.169,0.017c0.036-0.002,0.092,0.003,0.167,0.013
				c0.075,0.011,0.132,0.015,0.169,0.013c0.044-0.002,0.084-0.011,0.12-0.025l0.053-0.057c0.151,0.045,0.23,0.125,0.237,0.236
				c0.003,0.049-0.012,0.131-0.043,0.245c-0.029,0.116-0.043,0.205-0.04,0.264C61.256,248.465,61.27,248.513,61.294,248.553z
				 M59.995,254.584c-0.079,0.041-0.201,0.064-0.364,0.075c-0.215,0.013-0.344,0.023-0.389,0.031
				c-0.023-0.022-0.052-0.004-0.1-0.192c-0.03-0.124-0.108-0.183-0.233-0.174c-0.03,0.001-0.066,0.005-0.111,0.014l-0.2,0.013
				l-0.106-1.83c0.109-0.053,0.245-0.085,0.407-0.095c0.156-0.009,0.295,0.007,0.415,0.046c-0.002,0.068,0.092,0.097,0.284,0.083
				l0.212-0.013C59.935,253.057,60.012,253.985,59.995,254.584z"></path>
			<path fill="#010101" d="M65.74,248.71l0.012,0.008c-0.105-0.007-0.44,0.016-0.698,0.049c-0.222,0.025-0.389,0.029-0.501,0.012
				c-0.107,0.072-0.147,0.17-0.117,0.293l0.068,0.041c-0.057,0.053-0.076,0.091-0.059,0.121l0.059,0.059
				c-0.013,1.061-0.016,1.646-0.009,1.76c0.016,0.28,0.049,0.526,0.098,0.74c-0.044,0.134-0.061,0.287-0.051,0.46
				c0.007,0.112,0.033,0.291,0.081,0.538c0.048,0.245,0.111,1.052,0.119,1.178c0.005,0.094,0.004,0.186-0.007,0.269
				c-0.103,0.042-0.212,0.066-0.33,0.074c-0.2,0.011-0.415-0.03-0.645-0.125c-0.027,0.025-0.059,0.053-0.095,0.082
				c-0.035,0.029-0.045,0.062-0.027,0.097c-0.073,0.021-0.176-0.009-0.308-0.091c-0.069-1.074-0.261-3.26-0.545-5.47
				c-0.101,0.091-0.284,0.016-0.477,0.04c-0.229,0.024-0.453-0.011-0.54,0.03c-0.111-0.119-0.087-0.154-0.098-0.351
				c-0.012-0.19-0.073-0.661-0.024-0.857c0.011-0.043,0.426-0.019,0.67-0.039c0.333-0.02,0.407,0.061,0.429,0.059
				c0.027-0.043,0.189-0.021,0.308-0.029c0.077,0.037,0.16-0.034,0.162,0.021c0.003,0.035,0,0.261-0.024,0.325
				c-0.026,0.065-0.039,0.112-0.037,0.142c0.005,0.071,0.056-0.033,0.177,0.008c0.134-0.004,0.271-0.008,0.411-0.016
				c0.158,0.015,0.338-0.042,0.324,0.091c0.026-0.038,0.044,0.028,0.269-0.062c0.167-0.076,0.269-0.271,0.236-0.405
				c-0.019-0.073,0.083-0.122,0.02-0.087c0.08-0.045,0.007-0.015,0.095-0.049c0.277,0.026,0.431-0.003,0.482-0.005
				c0.111-0.007,0.389,0.064,0.467,0.024c0.058,0.104,0.087,0.431,0.091,0.61C65.734,248.54,65.739,248.692,65.74,248.71z"></path>
			<path fill="#010101" d="M69.342,252.443l-0.002-0.009c-0.039,0.079-0.061,0.171-0.062,0.272
				c-0.005,0.065,0.001,0.158,0.016,0.278c0.016,0.136,0.024,0.23,0.028,0.285c-0.061,0.003-0.298,0.016-0.713,0.042
				c-0.251,0.014-0.476,0.047-0.674,0.102l-0.222-0.168c-0.056,0.052-0.075,0.093-0.059,0.121c-0.037-0.004-0.209,0.006-0.512,0.029
				c-0.237,0.015-0.416,0.006-0.538-0.022c-0.111,0.107-0.252,0.116-0.421,0.024c-0.061-0.031-0.072-0.093-0.033-0.183
				c0.039-0.089,0.021-0.152-0.057-0.189c-0.002-0.19,0.006-0.487,0.027-0.89c0.024-0.36,0.029-0.643,0.018-0.846
				c-0.016-0.273-0.062-0.534-0.134-0.781c0.077-0.07,0.168-0.107,0.271-0.113c0.118-0.009,0.262,0.029,0.432,0.107
				c0.236,0.113,0.357,0.169,0.365,0.169l0.07,0.058c0.007-0.017,0.037-0.115,0.094-0.293c0.031-0.114,0.083-0.192,0.155-0.231
				l0.068,0.049c0.029-0.013,0.123-0.075,0.28-0.186c0.121-0.08,0.205-0.37,0.28-0.374c0.08-0.006,0.16,0.026,0.238,0.093
				c0.129,0.047,0.231,0.373,0.278,0.48s0.093,0.215,0.137,0.319c-0.333,0.031-0.608,0.045-0.823,0.039
				c-0.048,0.069-0.123,0.084-0.221,0.045c-0.099-0.04-0.169-0.027-0.21,0.035c0.007,0.106,0.018,0.3,0.033,0.58
				c0.008,0.251,0.019,0.447,0.034,0.59c0.02,0.221,0.056,0.422,0.103,0.605c0.06-0.005,0.342-0.021,0.845-0.049
				C68.786,252.413,69.086,252.415,69.342,252.443z M68.997,248.236c-0.065,0.008-0.141,0.018-0.223,0.021
				c-0.169,0.011-0.395,0.006-0.681-0.014c-0.35-0.016-0.562-0.024-0.637-0.026c-0.096,0.132-0.109,0.238-0.096,0.465
				c0.028,0.488,0.045,0.7,0.048,0.634c0.106,0.042,0.164,0.129,0.171,0.261c0.004,0.179,0.008,0.27,0.017,0.275
				c-0.051,0.021-0.073,0.083-0.067,0.185c-0.082-0.02-0.171-0.062-0.264-0.129c-0.125-0.082-0.164,0.21-0.16,0.133l-0.057,0.183
				l-0.069-0.052c-0.059,0.01-0.162-0.008-0.31-0.054c-0.147-0.045-0.253-0.09-0.314-0.134c-0.005-0.095,0.009-0.149,0.046-0.165
				l-0.152-0.116l-0.062,0.085c-0.132-0.615-0.221-1.698-0.17-2.359c0.283,0.02,0.615-0.028,0.956-0.043
				c0.229-0.009,0.553-0.025,0.968-0.056c0.474-0.033,0.813-0.058,1.021-0.069c0.093,0.062,0.144,0.146,0.148,0.252
				c0.005,0.066-0.01,0.173-0.041,0.321C69.035,247.981,68.993,248.163,68.997,248.236z"></path>
			<path fill="#010101" d="M73.039,251.807l-0.011,0.001c-0.045,0.093-0.062,0.226-0.044,0.396c0.022,0.245,0.032,0.37,0.033,0.376
				c-0.037,0.015-0.086-0.003-0.148-0.054c-0.096,0.035-0.14,0.095-0.135,0.179c0.001,0.012,0.006,0.031,0.015,0.061
				c0.002,0.035,0.003,0.06,0.005,0.072c0.004,0.065-0.017,0.114-0.059,0.147c-0.108-0.061-0.25-0.099-0.426-0.115
				c-0.175-0.017-0.341-0.033-0.499-0.049c-0.003-0.812-0.112-1.607-0.327-2.385c0,0.007-0.005-0.074-0.014-0.241
				c0-0.12-0.027-0.204-0.083-0.255l-0.073,0.067c0-0.012,0.023-0.036,0.073-0.071c0.05-0.036,0.075-0.072,0.072-0.108
				c-0.002-0.018-0.006-0.035-0.015-0.054l-0.082-0.059c-0.138,0.045-0.202,0.155-0.19,0.334c0.006,0.12-0.042,0.205-0.143,0.252
				c0.038,0.027,0.06,0.062,0.062,0.104c0.002,0.024-0.002,0.058-0.012,0.098c-0.007,0.044-0.012,0.077-0.01,0.102
				c0.003,0.053,0.03,0.097,0.085,0.13c0.002,0.036,0.021,0.357,0.056,0.966c0.023,0.388,0.013,0.718-0.031,0.988l0.01,0.152
				c-0.052-0.003-0.112-0.003-0.18,0.002c-0.073,0.005-0.182,0.015-0.321,0.031c-0.14,0.018-0.243,0.028-0.311,0.032
				c-0.272,0.016-0.466-0.029-0.576-0.138l-0.116-3.34c-0.054-0.164-0.09-0.393-0.106-0.685l-0.038-0.644
				c-0.025-0.316-0.064-0.56-0.119-0.729c0.022-0.114,0.123-0.179,0.3-0.188c0.113-0.008,0.262,0.008,0.45,0.046
				c0.087-0.042,0.207-0.067,0.363-0.075c0.044-0.003,0.115-0.004,0.211-0.004c0.104-0.006,0.179-0.011,0.223-0.014
				c0.289-0.016,0.481-0.105,0.576-0.266c0.134-0.001,0.279,0.04,0.436,0.126c0.158,0.088,0.297,0.133,0.418,0.137
				c0.313,0.187,0.484,0.493,0.509,0.924c0.005,0.096-0.032,0.475-0.112,1.138l-0.543,0.47c0.093,0.169,0.204,0.535,0.334,1.103
				C72.652,251.241,72.819,251.586,73.039,251.807z M72.038,248.007l0.012,0.008c0.01,0.041,0.005-0.105-0.015-0.438
				c-0.01-0.163-0.069-0.278-0.177-0.349c-0.061,0.085-0.073-0.117-0.102,0.085c-0.029,0.203-0.078,0.347-0.146,0.436
				c-0.187-0.001-0.229-0.112-0.341-0.268c-0.069-0.099-0.103-0.013-0.103-0.02l-0.051,0.041c-0.028,0.025-0.06,0.055-0.095,0.087
				s-0.072,0.043-0.111,0.033c0.004,0.034-0.014,0.093-0.051,0.169c-0.035,0.076-0.053,0.13-0.052,0.16
				c0.004,0.054,0.047,0.092,0.131,0.118c-0.016,0.12-0.021,0.246-0.013,0.379c0.005,0.07,0.021,0.233,0.051,0.489
				c0.034,0.201,0.048,0.374,0.042,0.518c0.067,0.003,0.13,0.002,0.189-0.002c0.259-0.015,0.428-0.117,0.506-0.307
				c0.025-0.056,0.056-0.256,0.088-0.598C71.831,248.29,71.911,248.11,72.038,248.007z"></path>
		</g>
		<g>
			<path fill="#010101" d="M36.181,236.4v0.009c-0.032,0.311-0.044,0.525-0.031,0.643c-0.048,0.02-0.111,0.022-0.187,0.01
				c-0.1-0.017-0.156-0.024-0.172-0.023c-0.043,0.002-0.078,0.018-0.104,0.045c-0.062-0.039-0.103-0.056-0.124-0.05
				c-0.059,0.035-0.086,0.085-0.083,0.149c0.002,0.028,0.013,0.073,0.033,0.141c0.019,0.068,0.03,0.116,0.031,0.148
				c0.001,0.043-0.007,0.111-0.026,0.205c-0.02,0.093-0.028,0.168-0.025,0.229c0.004,0.069,0.019,0.181,0.046,0.331
				c0.026,0.149,0.041,0.262,0.045,0.338c-0.03,0.147-0.042,0.297-0.035,0.447c0.01,0.185,0.062,0.431,0.152,0.74
				c0.017,0.005,0.032,0.007,0.049,0.005c0.036-0.001,0.082-0.029,0.134-0.08c0.052-0.05,0.097-0.076,0.134-0.079
				c0.026-0.001,0.058,0.004,0.09,0.02c0.098,0.313,0.147,0.518,0.153,0.609c0.002,0.044,0.001,0.09-0.001,0.138
				c-0.146,0.035-0.248-0.015-0.308-0.147c0.008-0.037-0.014-0.077-0.063-0.118l-0.162,0.171c0.158,0.024,0.221,0.146,0.188,0.363
				c-0.014,0.045-0.047,0.068-0.102,0.07c-0.093-0.001-0.136-0.001-0.13-0.001l-0.134-0.237l-0.053,0.067
				c-0.045-0.112-0.096-0.165-0.155-0.161c-0.032,0.002-0.089,0.028-0.171,0.08c-0.081,0.054-0.148,0.081-0.202,0.083
				c-0.043,0.004-0.086-0.008-0.131-0.032c-0.004-0.065-0.012-0.132-0.022-0.202c-0.012-0.07-0.048-0.114-0.108-0.133
				c-0.003-0.17,0.002-0.608,0.014-1.324c0.006-0.541,0-0.979-0.017-1.314c-0.008-0.141-0.017-0.277-0.029-0.411
				c-0.028-0.042-0.057-0.062-0.084-0.062c-0.022,0.002-0.055,0.024-0.098,0.07c-0.044,0.046-0.082,0.066-0.114,0.062
				c-0.004-0.054-0.028-0.142-0.074-0.26c-0.047-0.119-0.071-0.206-0.075-0.26c-0.004-0.092,0.03-0.172,0.103-0.24l0.189,0.046
				c0.075-0.105,0.107-0.286,0.095-0.54c-0.003-0.048-0.01-0.126-0.02-0.23c-0.012-0.104-0.019-0.181-0.021-0.23
				c-0.021-0.415,0.106-0.63,0.382-0.645c0.102-0.005,0.228,0.014,0.375,0.056l0.182,0.047c0.014,0.069,0.023,0.142,0.027,0.217
				c0.005,0.104,0.001,0.254-0.014,0.452c-0.015,0.199-0.02,0.344-0.015,0.434c0.007,0.147,0.031,0.279,0.076,0.396
				c0.043-0.003,0.111-0.027,0.204-0.071c0.092-0.046,0.159-0.069,0.203-0.071C36.073,236.292,36.134,236.326,36.181,236.4z
				 M35.617,236.981l-0.009-0.187l-0.059-0.054L35.617,236.981z"></path>
			<path fill="#010101" d="M38.408,235.818l0.008-0.001c-0.019,0.147-0.041,0.295-0.066,0.442c-0.028,0.168-0.077,0.301-0.143,0.396
				c-0.011-0.005-0.078-0.035-0.199-0.096c-0.084-0.044-0.158-0.062-0.222-0.054c-0.05,0.317-0.076,0.748-0.081,1.295
				c-0.003,0.698-0.009,1.12-0.017,1.266c-0.083-0.005-0.143,0.021-0.183,0.08c-0.041,0.059-0.079,0.117-0.113,0.179
				c-0.015,0.034-0.021,0.064-0.02,0.09c0.001,0.045,0.038,0.087,0.111,0.125c0.072,0.04,0.109,0.083,0.111,0.133
				c-0.031,0.115-0.1,0.176-0.202,0.18c-0.048,0.003-0.133-0.013-0.254-0.043c-0.119-0.032-0.204-0.047-0.254-0.044l-0.116-2.315
				c0.046-0.061,0.065-0.104,0.06-0.124l-0.067-0.045c0.006-0.098,0.011-0.584,0.016-1.455c0.003-0.59,0.025-1.067,0.066-1.432
				c-0.005,0.001,0.161-0.011,0.501-0.033c0.21-0.011,0.347,0.048,0.407,0.175c0,0.118-0.012,0.318-0.036,0.602
				c-0.023,0.261-0.033,0.461-0.026,0.602c0.01,0.174,0.036,0.328,0.082,0.467C37.953,235.96,38.165,235.831,38.408,235.818z
				 M39.212,236.313c0.016,0.215,0.028,0.426,0.04,0.632c0.045,0.896,0.031,1.854-0.042,2.874c-0.078,0.07-0.197,0.085-0.36,0.046
				c-0.16-0.038-0.277-0.021-0.35,0.046c-0.093-0.119-0.146-0.334-0.163-0.648c-0.022-0.453-0.034-0.688-0.035-0.704
				c-0.02-1.135,0.092-2.053,0.333-2.752C38.915,235.878,39.106,236.047,39.212,236.313z"></path>
			<path fill="#010101" d="M42.053,237.489c-0.035,0.072-0.05,0.148-0.045,0.228c0.003,0.083,0.007,0.161,0.012,0.237
				c-0.009,0.064-0.026,0.129-0.055,0.198c-0.05-0.015-0.091-0.021-0.124-0.02c-0.037,0.002-0.076,0.016-0.114,0.042
				c-0.039,0.027-0.071,0.041-0.092,0.041c-0.033,0.003-0.076-0.01-0.132-0.033l-0.376-0.549c0.013,0.161,0.05,0.303,0.11,0.425
				c0.03,0.062,0.061,0.126,0.09,0.188c-0.22,0.04-0.345,0.047-0.372,0.02l-0.053,0.068l-0.131-0.172
				c-0.102,0.124-0.125,0.306-0.069,0.547c0.066,0.262,0.07,0.45,0.012,0.567c0.082,0.121,0.179,0.177,0.293,0.172
				c0.049-0.003,0.09-0.02,0.127-0.055c0.053-0.134,0.105-0.266,0.159-0.398c0.078-0.161,0.166-0.244,0.263-0.248
				c0.075-0.005,0.164,0.035,0.266,0.117c0.121,0.043,0.184,0.099,0.188,0.168c0.001,0.044-0.025,0.115-0.083,0.211
				c-0.057,0.098-0.085,0.174-0.082,0.229c0.002,0.021,0.005,0.039,0.011,0.057c-0.078,0.057-0.147,0.145-0.21,0.261
				c-0.062,0.117-0.143,0.197-0.244,0.241c-0.087,0.083-0.169,0.129-0.244,0.133c-0.06,0.003-0.148-0.043-0.267-0.137
				c-0.118-0.095-0.229-0.138-0.331-0.134c-0.042-0.095-0.148-0.201-0.315-0.316c-0.168-0.115-0.272-0.241-0.312-0.374
				c0.001,0.01-0.001-0.032-0.005-0.129c-0.004-0.055-0.027-0.09-0.071-0.103l0.061-0.06c-0.081-0.002-0.122-0.048-0.127-0.141
				c-0.001-0.01-0.002-0.032-0.003-0.065c0.003-0.026,0.005-0.048,0.004-0.064c-0.003-0.064-0.024-0.108-0.063-0.135l-0.014-0.282
				c-0.008-0.146-0.037-0.251-0.09-0.312c0.054-0.344,0.106-0.688,0.159-1.03c0.088-0.399,0.22-0.604,0.392-0.613
				c0.027-0.001,0.054,0.003,0.081,0.012c0.156-0.153,0.343-0.236,0.564-0.247c0.243-0.012,0.512,0.062,0.807,0.22
				C41.856,236.63,41.998,237.042,42.053,237.489z M40.937,236.594l-0.054,0.068c-0.037,0.007-0.083-0.012-0.133-0.058l0.01,0.186
				c-0.083,0.091-0.115,0.23-0.102,0.42c0.017,0.324,0.024,0.479,0.024,0.469l0.243-0.003c0.115-0.066,0.17-0.174,0.161-0.325
				c-0.003-0.076-0.028-0.2-0.079-0.374C40.959,236.804,40.935,236.678,40.937,236.594z"></path>
		</g>
		<g>
			<polygon fill-rule="evenodd" clip-rule="evenodd" fill="#010101" points="43.956,245.657 44.197,245.795 45.015,243.648 
				44.741,243.557 43.923,245.706 44.162,245.857 43.956,245.657 43.956,245.657 			"></polygon>
			<polygon fill-rule="evenodd" clip-rule="evenodd" fill="#010101" points="44.313,245.36 44.214,245.399 43.956,245.657 
				44.162,245.857 44.425,245.584 44.323,245.636 44.313,245.36 44.313,245.36 			"></polygon>
			<polygon fill-rule="evenodd" clip-rule="evenodd" fill="#010101" points="46.293,245.343 46.41,245.251 44.313,245.36 
				44.323,245.636 46.419,245.53 46.552,245.43 46.293,245.343 46.293,245.343 46.293,245.343 			"></polygon>
			<polygon fill-rule="evenodd" clip-rule="evenodd" fill="#010101" points="47.241,243.369 47.097,243.191 46.293,245.343 
				46.552,245.43 47.37,243.282 47.228,243.104 47.241,243.369 47.241,243.369 47.241,243.369 			"></polygon>
			<polygon fill-rule="evenodd" clip-rule="evenodd" fill="#010101" points="45.243,243.437 45.139,243.489 47.241,243.369 
				47.228,243.104 45.135,243.197 45.032,243.25 45.243,243.437 45.243,243.437 45.243,243.437 			"></polygon>
			<polygon fill-rule="evenodd" clip-rule="evenodd" fill="#010101" points="45.015,243.648 44.984,243.695 45.243,243.437 
				45.032,243.25 44.771,243.51 44.741,243.557 45.015,243.648 45.015,243.648 45.015,243.648 			"></polygon>
			<polygon fill-rule="evenodd" clip-rule="evenodd" fill="#010101" points="46.755,245.597 46.942,245.515 46.493,245.265 
				46.35,245.52 46.812,245.775 47.015,245.685 46.743,245.593 46.743,245.593 46.755,245.597 			"></polygon>
			<polygon fill-rule="evenodd" clip-rule="evenodd" fill="#010101" points="47.634,243.616 47.56,243.446 46.743,245.593 
				47.015,245.685 47.833,243.537 47.758,243.369 47.634,243.616 47.634,243.616 			"></polygon>
			<polygon fill-rule="evenodd" clip-rule="evenodd" fill="#010101" points="47.37,243.282 47.167,243.373 47.634,243.616 
				47.758,243.369 47.31,243.118 47.097,243.191 47.37,243.282 47.37,243.282 			"></polygon>
			<polygon fill="#010101" points="44.884,243.606 44.872,243.601 45.131,243.341 47.077,243.247 47.097,243.191 47.241,243.238 
				47.37,243.282 47.362,243.305 47.703,243.494 47.833,243.537 47.779,243.676 48.732,245.94 47.926,248.092 46.885,245.642 
				46.885,245.642 46.751,245.697 46.743,245.593 46.752,245.568 46.424,245.387 46.35,245.52 46.309,245.392 44.313,245.489 
				44.053,245.748 			"></polygon>
			<polygon fill-rule="evenodd" clip-rule="evenodd" fill="#010101" points="47.796,248.048 48.06,248.036 47.019,245.585 
				46.751,245.697 47.792,248.148 48.056,248.135 47.784,248.044 47.784,248.044 47.796,248.048 			"></polygon>
			<polygon fill-rule="evenodd" clip-rule="evenodd" fill="#010101" points="48.611,246.001 48.601,245.896 47.784,248.044 
				48.056,248.135 48.875,245.989 48.866,245.885 48.611,246.001 48.611,246.001 			"></polygon>
			<polygon fill-rule="evenodd" clip-rule="evenodd" fill="#010101" points="47.833,243.537 47.569,243.549 48.611,246.001 
				48.866,245.885 47.825,243.433 47.56,243.446 47.833,243.537 47.833,243.537 			"></polygon>
			<polygon fill-rule="evenodd" clip-rule="evenodd" fill="#FFFFFF" points="47.763,244.09 47.879,244.346 47.923,244.604 
				47.911,244.859 47.836,245.124 47.707,245.381 47.53,245.612 47.3,245.822 47.023,246.004 46.873,246.07 46.721,246.133 
				46.552,246.165 46.396,246.199 46.246,246.219 46.082,246.237 45.93,246.216 45.774,246.208 45.64,246.177 45.499,246.128 
				45.36,246.069 45.239,246 45.135,245.921 45.018,245.838 44.923,245.735 44.845,245.623 44.727,245.369 44.685,245.108 
				44.685,244.849 44.772,244.59 44.884,244.339 45.066,244.098 45.295,243.886 45.584,243.709 45.724,243.64 45.888,243.579 
				46.042,243.545 46.198,243.511 46.363,243.493 46.513,243.472 46.666,243.493 46.821,243.502 46.963,243.548 47.106,243.597 
				47.236,243.64 47.369,243.714 47.477,243.778 47.59,243.874 47.668,243.986 47.763,244.09 47.763,244.09 47.763,244.09 			"></polygon>
			<polygon fill-rule="evenodd" clip-rule="evenodd" fill="#010101" points="47.867,244.514 47.983,244.77 48.022,245.041 
				48.01,245.296 47.939,245.547 47.824,245.811 47.628,246.047 47.417,246.251 47.127,246.428 46.972,246.505 46.821,246.57 
				46.665,246.603 46.497,246.636 46.345,246.657 46.198,246.667 46.042,246.657 45.877,246.631 45.744,246.6 45.601,246.553 
				45.476,246.497 45.342,246.423 45.234,246.358 45.134,246.267 45.036,246.176 44.948,246.047 44.828,245.805 44.785,245.545 
				44.801,245.277 44.872,245.027 44.988,244.763 45.166,244.534 45.395,244.322 45.683,244.146 45.839,244.068 45.987,244.015 
				46.146,243.968 46.316,243.939 46.462,243.929 46.614,243.909 46.765,243.929 46.919,243.939 47.068,243.973 47.21,244.02 
				47.335,244.077 47.474,244.139 47.578,244.214 47.695,244.296 47.771,244.41 47.863,244.527 47.863,244.527 47.867,244.514 			
				"></polygon>
			<polygon fill-rule="evenodd" clip-rule="evenodd" fill="#FFFFFF" points="47.939,244.812 48.062,245.054 48.1,245.327 
				48.086,245.583 48.018,245.832 47.888,246.091 47.706,246.333 47.495,246.536 47.206,246.712 47.063,246.795 46.898,246.856 
				46.743,246.89 46.574,246.919 46.422,246.943 46.276,246.951 46.12,246.943 45.956,246.917 45.822,246.885 45.679,246.838 
				45.554,246.782 45.419,246.708 45.312,246.643 45.2,246.548 45.117,246.449 45.026,246.333 44.906,246.091 44.862,245.83 
				44.875,245.576 44.948,245.312 45.065,245.049 45.247,244.807 45.484,244.613 45.762,244.43 45.917,244.354 46.068,244.288 
				46.225,244.253 46.393,244.222 46.543,244.203 46.691,244.193 46.86,244.207 46.999,244.222 47.145,244.259 47.288,244.306 
				47.425,244.366 47.546,244.435 47.655,244.501 47.771,244.583 47.849,244.696 47.939,244.812 47.939,244.812 			"></polygon>
			<polygon fill-rule="evenodd" clip-rule="evenodd" fill="#010101" points="48.043,245.235 48.161,245.49 48.205,245.75 
				48.205,246.008 48.117,246.268 48.004,246.519 47.81,246.756 47.594,246.974 47.305,247.15 47.167,247.218 47.001,247.279 
				46.846,247.314 46.691,247.347 46.525,247.366 46.375,247.386 46.224,247.366 46.068,247.357 45.921,247.323 45.779,247.274 
				45.653,247.218 45.519,247.145 45.416,247.066 45.312,246.99 45.216,246.885 45.125,246.769 45.022,246.518 44.965,246.253 
				44.979,246 45.052,245.735 45.177,245.489 45.36,245.248 45.588,245.036 45.866,244.855 46.016,244.79 46.167,244.725 
				46.336,244.695 46.493,244.66 46.644,244.638 46.804,244.634 46.958,244.643 47.102,244.646 47.25,244.682 47.391,244.73 
				47.53,244.79 47.65,244.859 47.768,244.941 47.871,245.02 47.966,245.124 48.04,245.249 48.04,245.249 48.043,245.235 			"></polygon>
			<polygon fill-rule="evenodd" clip-rule="evenodd" fill="#FFFFFF" points="48.195,245.515 48.317,245.759 48.36,246.017 
				48.355,246.29 48.286,246.541 48.156,246.8 47.961,247.038 47.75,247.241 47.473,247.422 47.317,247.5 47.153,247.56 
				46.998,247.595 46.841,247.628 46.677,247.646 46.531,247.656 46.375,247.646 46.224,247.625 46.077,247.59 45.934,247.542 
				45.808,247.486 45.683,247.43 45.567,247.347 45.466,247.257 45.373,247.153 45.294,247.042 45.172,246.799 45.121,246.523 
				45.134,246.267 45.216,246.021 45.333,245.758 45.514,245.515 45.74,245.317 46.016,245.136 46.171,245.058 46.323,244.993 
				46.488,244.976 46.647,244.928 46.799,244.907 46.958,244.903 47.115,244.912 47.252,244.928 47.4,244.962 47.555,245.015 
				47.68,245.071 47.807,245.127 47.923,245.209 48.022,245.301 48.118,245.405 48.195,245.515 48.195,245.515 			"></polygon>
			<polygon fill-rule="evenodd" clip-rule="evenodd" fill="#010101" points="48.312,245.945 48.416,246.195 48.472,246.458 
				48.458,246.713 48.385,246.976 48.259,247.224 48.078,247.466 47.848,247.678 47.572,247.859 47.421,247.923 47.256,247.984 
				47.102,248.018 46.946,248.053 46.794,248.075 46.63,248.09 46.478,248.071 46.323,248.061 46.189,248.031 46.034,247.979 
				45.908,247.922 45.788,247.854 45.67,247.772 45.567,247.694 45.471,247.589 45.394,247.478 45.278,247.223 45.221,246.959 
				45.234,246.704 45.32,246.444 45.432,246.192 45.614,245.952 45.843,245.739 46.133,245.563 46.272,245.494 46.436,245.434 
				46.591,245.399 46.748,245.365 46.912,245.347 47.063,245.326 47.213,245.347 47.357,245.352 47.517,245.391 47.659,245.439 
				47.785,245.496 47.906,245.564 48.022,245.646 48.125,245.724 48.22,245.828 48.312,245.945 48.312,245.945 48.312,245.945 			
				"></polygon>
			<polygon fill-rule="evenodd" clip-rule="evenodd" fill="#010101" points="34.021,242.646 34.035,242.564 33.212,244.724 
				33.472,244.81 34.293,242.65 34.297,242.594 34.021,242.646 34.021,242.646 34.021,242.646 			"></polygon>
			<polygon fill-rule="evenodd" clip-rule="evenodd" fill="#010101" points="34,242.536 34.004,242.524 34.021,242.646 
				34.297,242.594 34.268,242.468 34.273,242.456 34,242.536 34,242.536 34,242.536 			"></polygon>
			<polygon fill-rule="evenodd" clip-rule="evenodd" fill="#010101" points="33.969,242.413 34,242.536 34.273,242.456 
				34.242,242.33 33.969,242.413 33.969,242.413 33.969,242.413 			"></polygon>
			<polygon fill-rule="evenodd" clip-rule="evenodd" fill="#010101" points="33.935,242.3 33.969,242.413 34.242,242.33 
				34.208,242.218 33.935,242.3 33.935,242.3 			"></polygon>
			<polygon fill-rule="evenodd" clip-rule="evenodd" fill="#010101" points="33.905,242.174 33.905,242.174 33.935,242.3 
				34.208,242.218 34.176,242.093 34.173,242.106 33.905,242.174 33.905,242.174 33.905,242.174 			"></polygon>
			<polygon fill-rule="evenodd" clip-rule="evenodd" fill="#010101" points="33.871,242.019 33.871,242.063 33.905,242.174 
				34.173,242.106 34.138,241.993 34.152,242.041 33.871,242.019 33.871,242.019 			"></polygon>
			<polygon fill-rule="evenodd" clip-rule="evenodd" fill="#010101" points="34.146,241.966 33.875,241.919 33.871,242.019 
				34.152,242.041 34.155,241.942 33.883,241.892 34.142,241.979 34.142,241.979 34.146,241.966 			"></polygon>
			<polygon fill-rule="evenodd" clip-rule="evenodd" fill="#4D494A" points="34.382,248.255 34.357,248.117 34.068,248.165 
				34.088,248.316 34.382,248.255 34.382,248.255 34.382,248.255 			"></polygon>
			<polygon fill-rule="evenodd" clip-rule="evenodd" fill="#010101" points="34.985,246.455 34.993,246.385 34.175,248.533 
				34.435,248.618 35.252,246.47 35.248,246.397 34.985,246.455 34.985,246.455 34.985,246.455 			"></polygon>
			<polygon fill-rule="evenodd" clip-rule="evenodd" fill="#010101" points="34.962,246.302 34.985,246.455 35.248,246.397 
				35.227,246.247 34.95,246.298 34.95,246.298 34.962,246.302 			"></polygon>
			<polygon fill-rule="evenodd" clip-rule="evenodd" fill="#010101" points="34.924,246.161 34.95,246.298 35.227,246.247 
				35.188,246.104 34.924,246.161 34.924,246.161 34.924,246.161 			"></polygon>
			<polygon fill-rule="evenodd" clip-rule="evenodd" fill="#010101" points="34.889,246.004 34.898,246.021 34.924,246.161 
				35.188,246.104 35.167,245.952 35.174,245.97 34.889,246.004 34.889,246.004 34.889,246.004 			"></polygon>
			<polygon fill-rule="evenodd" clip-rule="evenodd" fill="#010101" points="35.149,245.875 34.873,245.838 34.889,246.004 
				35.174,245.97 35.153,245.82 34.876,245.785 35.149,245.875 35.149,245.875 			"></polygon>
			<g>
				<polygon fill="#4D494A" points="33.213,244.295 33.082,244.334 33.213,244.295 				"></polygon>
				<polygon fill="#4D494A" points="33.35,244.746 33.355,244.734 33.422,244.739 33.472,244.81 33.351,244.771 				"></polygon>
				<polygon fill="#010101" points="33.051,244.21 33.192,244.183 33.195,244.084 34.017,241.925 34.012,241.937 34.012,242.024 
					34.035,242.132 34.078,242.262 34.112,242.375 34.142,242.499 34.164,242.607 34.164,242.607 34.293,242.65 33.472,244.81 
					33.422,244.739 33.355,244.734 33.35,244.746 33.351,244.771 33.472,244.81 33.352,244.803 33.355,244.902 33.272,244.798 
					33.204,244.793 33.186,244.672 33.236,244.662 33.29,244.522 33.152,244.561 33.113,244.46 33.082,244.334 33.213,244.295 
					33.213,244.295 33.082,244.334 33.086,244.322 				"></polygon>
			</g>
			<g>
				<polygon fill="none" points="39.744,244.8 39.744,244.8 39.862,244.537 				"></polygon>
				<polygon fill="#010101" points="33.346,244.625 39.364,244.428 39.519,244.435 39.545,244.447 39.692,244.48 39.706,244.486 
					39.862,244.537 40.012,244.602 40.025,244.606 40.168,244.697 40.194,244.705 40.306,244.8 40.341,244.827 40.423,244.924 
					40.431,244.943 40.488,245.033 40.492,245.064 40.227,245.144 40.185,245.078 40.181,245.09 40.112,244.995 40.113,244.995 
					40.02,244.92 40.042,244.943 39.895,244.866 39.896,244.864 39.744,244.8 39.744,244.8 39.614,244.756 39.467,244.723 
					39.494,244.731 39.355,244.713 39.355,244.701 33.355,244.902 				"></polygon>
				<polygon fill="#010101" points="40.22,245.147 40.227,245.144 40.242,245.167 				"></polygon>
			</g>
			<polygon fill-rule="evenodd" clip-rule="evenodd" fill="#010101" points="43.434,250.195 43.434,250.11 42.612,252.27 
				42.885,252.361 43.708,250.2 43.708,250.115 43.434,250.195 43.434,250.195 43.434,250.195 			"></polygon>
			<polygon fill-rule="evenodd" clip-rule="evenodd" fill="#010101" points="41.06,243.019 41.042,242.986 43.434,250.195 
				43.708,250.115 41.314,242.903 41.309,242.875 41.06,243.019 41.06,243.019 41.06,243.019 			"></polygon>
			<polygon fill-rule="evenodd" clip-rule="evenodd" fill="#010101" points="41.011,242.947 41.003,242.93 41.06,243.019 
				41.309,242.875 41.253,242.783 41.241,242.777 40.998,242.943 40.998,242.943 41.011,242.947 			"></polygon>
			<polygon fill-rule="evenodd" clip-rule="evenodd" fill="#010101" points="40.956,242.856 40.933,242.834 40.998,242.943 
				41.241,242.777 41.15,242.663 41.127,242.639 40.956,242.856 40.956,242.856 40.956,242.856 			"></polygon>
			<polygon fill-rule="evenodd" clip-rule="evenodd" fill="#010101" points="40.86,242.795 40.838,242.774 40.956,242.856 
				41.127,242.639 41.011,242.558 40.99,242.536 40.86,242.795 40.86,242.795 			"></polygon>
			<polygon fill-rule="evenodd" clip-rule="evenodd" fill="#010101" points="40.73,242.708 40.717,242.705 40.86,242.795 
				40.99,242.536 40.842,242.458 40.83,242.455 40.73,242.708 40.73,242.708 			"></polygon>
			<polygon fill-rule="evenodd" clip-rule="evenodd" fill="#010101" points="40.592,242.649 40.562,242.652 40.73,242.708 
				40.83,242.455 40.678,242.389 40.666,242.385 40.576,242.656 40.576,242.656 40.592,242.649 			"></polygon>
			<polygon fill-rule="evenodd" clip-rule="evenodd" fill="#010101" points="40.436,242.597 40.418,242.605 40.576,242.656 
				40.666,242.385 40.509,242.333 40.509,242.333 40.431,242.609 40.431,242.609 40.436,242.597 			"></polygon>
			<polygon fill-rule="evenodd" clip-rule="evenodd" fill="#010101" points="40.316,242.57 40.29,242.562 40.431,242.609 
				40.509,242.333 40.35,242.294 40.337,242.29 40.316,242.57 40.316,242.57 40.316,242.57 			"></polygon>
			<polygon fill-rule="evenodd" clip-rule="evenodd" fill="#010101" points="40.176,242.552 40.172,242.565 40.316,242.57 
				40.337,242.29 40.185,242.266 40.168,242.277 40.176,242.552 40.176,242.552 			"></polygon>
			<polygon fill-rule="evenodd" clip-rule="evenodd" fill="#010101" points="34.306,242.655 34.16,242.748 40.176,242.552 
				40.168,242.277 34.164,242.478 34.035,242.564 34.293,242.65 34.293,242.65 34.306,242.655 			"></polygon>
			<polygon fill="#4D494A" points="35.818,249.224 35.797,249.212 35.81,249.207 			"></polygon>
			<g>
				<polygon fill="#4D494A" points="39.068,250.196 39.043,250.488 39.068,250.196 				"></polygon>
				<g>
					<polygon fill="none" points="39.056,250.335 39.043,250.488 39.056,250.335 					"></polygon>
					<g>
						<polygon fill="none" points="34.179,247.997 34.189,247.974 34.194,248.002 						"></polygon>
						<path fill="#010101" d="M34.088,248.316l0.026,0.139l0.052,0.147l0.065,0.108l0.367,0.193l0.367,0.194l0.354,0.191
							l0.358,0.177l0.014,0.005l0.363,0.163l0.362,0.166l0.394,0.159l0.398,0.147l0.013,0.004l0.423,0.112l0.424,0.112l0.014,0.005
							l0.467,0.069l0.479,0.074l0.014,0.004l0.521,0.028l0.019-0.007l0.558,0.014l0.596-0.02l0.632-0.033l0.13-0.086l0.816-2.147
							l-0.138-0.19l0.009,0.277l-0.044-0.055l0.032-0.08l-0.092,0.006l-0.038-0.049l-0.021,0.054l-0.469,0.027H40.95l-0.558-0.012
							l-0.51-0.026l-0.497-0.065l-0.463-0.081l-0.425-0.113l-0.423-0.112l-0.396-0.147l-0.386-0.144l-0.362-0.164l-0.359-0.177
							l-0.372-0.182l-0.354-0.19l-0.354-0.19l-0.246-0.13l0.008-0.022l-0.13-0.043l0,0l-0.034-0.154l-0.026-0.14l-0.011-0.047
							l0.098-0.212l-0.137-0.045l-0.007-0.003l0,0l-0.129-0.042l-0.818,2.147l-0.008,0.069l0.021,0.15L34.088,248.316z
							 M34.189,247.974l0.005,0.028l-0.015-0.006L34.189,247.974z"></path>
					</g>
				</g>
			</g>
			<polygon fill-rule="evenodd" clip-rule="evenodd" fill="#010101" points="41.555,248.358 42.186,248.324 42.177,248.046 
				41.545,248.082 41.555,248.358 41.555,248.358 41.555,248.358 			"></polygon>
			<polygon fill-rule="evenodd" clip-rule="evenodd" fill="#010101" points="40.958,248.375 41.555,248.358 41.545,248.082 
				40.95,248.099 40.958,248.375 40.958,248.375 40.958,248.375 			"></polygon>
			<polygon fill-rule="evenodd" clip-rule="evenodd" fill="#010101" points="40.388,248.358 40.401,248.36 40.958,248.375 
				40.95,248.099 40.393,248.085 40.41,248.077 40.383,248.37 40.383,248.37 40.388,248.358 			"></polygon>
			<polygon fill-rule="evenodd" clip-rule="evenodd" fill="#010101" points="39.851,248.324 39.865,248.327 40.383,248.37 
				40.41,248.077 39.886,248.044 39.899,248.05 39.851,248.324 39.851,248.324 39.851,248.324 			"></polygon>
			<polygon fill-rule="evenodd" clip-rule="evenodd" fill="#010101" points="39.367,248.262 39.851,248.324 39.899,248.05 
				39.419,247.976 39.367,248.262 39.367,248.262 			"></polygon>
			<polygon fill-rule="evenodd" clip-rule="evenodd" fill="#010101" points="38.891,248.175 38.905,248.181 39.367,248.262 
				39.419,247.976 38.939,247.903 38.953,247.907 38.891,248.175 38.891,248.175 38.891,248.175 			"></polygon>
			<polygon fill-rule="evenodd" clip-rule="evenodd" fill="#010101" points="38.468,248.062 38.891,248.175 38.953,247.907 
				38.53,247.794 38.463,248.076 38.463,248.076 38.468,248.062 			"></polygon>
			<polygon fill-rule="evenodd" clip-rule="evenodd" fill="#010101" points="38.027,247.959 38.041,247.963 38.463,248.076 
				38.53,247.794 38.106,247.682 38.119,247.687 38.027,247.959 38.027,247.959 			"></polygon>
			<polygon fill-rule="evenodd" clip-rule="evenodd" fill="#010101" points="37.629,247.811 37.629,247.811 38.027,247.959 
				38.119,247.687 37.72,247.54 37.735,247.543 37.618,247.807 37.618,247.807 37.629,247.811 			"></polygon>
			<polygon fill-rule="evenodd" clip-rule="evenodd" fill="#010101" points="37.236,247.652 37.618,247.807 37.735,247.543 
				37.354,247.387 37.236,247.652 37.236,247.652 			"></polygon>
			<polygon fill-rule="evenodd" clip-rule="evenodd" fill="#010101" points="36.874,247.487 37.236,247.652 37.354,247.387 
				36.986,247.235 36.874,247.487 36.874,247.487 			"></polygon>
			<polygon fill-rule="evenodd" clip-rule="evenodd" fill="#010101" points="36.501,247.304 36.509,247.324 36.874,247.487 
				36.986,247.235 36.615,247.056 36.627,247.06 36.497,247.318 36.497,247.318 36.501,247.304 			"></polygon>
			<polygon fill-rule="evenodd" clip-rule="evenodd" fill="#010101" points="36.143,247.128 36.497,247.318 36.627,247.06 
				36.268,246.882 36.139,247.141 36.139,247.141 36.143,247.128 			"></polygon>
			<polygon fill-rule="evenodd" clip-rule="evenodd" fill="#010101" points="35.789,246.938 36.139,247.141 36.268,246.882 
				35.915,246.693 35.775,246.935 35.775,246.935 35.789,246.938 			"></polygon>
			<polygon fill-rule="evenodd" clip-rule="evenodd" fill="#010101" points="35.42,246.744 35.775,246.935 35.915,246.693 
				35.559,246.5 35.42,246.744 35.42,246.744 			"></polygon>
			<polygon fill-rule="evenodd" clip-rule="evenodd" fill="#010101" points="35.252,246.47 35.053,246.548 35.42,246.744 
				35.559,246.5 35.193,246.307 34.993,246.385 35.252,246.47 35.252,246.47 35.252,246.47 			"></polygon>
			<polygon fill-rule="evenodd" clip-rule="evenodd" fill="#010101" points="72.724,242.579 71.902,244.74 74.586,245.634 
				75.209,244.2 75.226,244.062 75.231,243.918 75.209,243.767 75.157,243.621 75.071,243.492 75.001,243.352 74.889,243.214 
				74.773,243.089 74.652,242.977 74.517,242.86 74.379,242.755 74.245,242.681 74.115,242.596 73.963,242.531 73.831,242.457 
				73.701,242.415 73.584,242.375 73.444,242.358 73.32,242.346 73.199,242.363 73.078,242.38 72.949,242.422 72.835,242.5 
				72.724,242.579 72.724,242.579 72.724,242.579 			"></polygon>
			<polygon fill-rule="evenodd" clip-rule="evenodd" fill="#010101" points="74.465,245.566 74.633,245.493 71.95,244.597 
				71.858,244.87 74.543,245.763 74.724,245.695 74.465,245.566 74.465,245.566 			"></polygon>
			<g>
				<polygon fill="none" points="74.983,246.188 75,246.333 74.983,246.188 				"></polygon>
				<polygon fill="none" points="76.368,244.742 76.466,244.836 76.36,244.76 				"></polygon>
				<g>
					<polygon fill="none" points="76.466,244.836 76.36,244.76 76.368,244.742 					"></polygon>
					<g>
						<polygon fill="none" points="76.466,244.836 76.36,244.76 76.368,244.742 						"></polygon>
						<polygon fill="#010101" points="33.051,244.081 33.065,244.041 33.883,241.892 34.142,241.979 33.349,244.102 33.333,244.188 
							33.33,244.158 33.051,244.21 33.048,244.18 						"></polygon>
						<g>
							<polygon fill="none" points="76.466,244.836 76.36,244.76 76.368,244.742 							"></polygon>
							<polygon fill="#4D494A" points="46.214,249.165 46.167,249.193 46.163,249.189 							"></polygon>
							<g>
								<polygon fill="none" points="46.267,249.29 46.37,249.388 46.267,249.29 								"></polygon>
								<polygon fill="none" points="76.466,244.836 76.36,244.76 76.368,244.742 								"></polygon>
								<polygon fill="none" points="42.743,252.313 42.752,252.313 42.752,252.317 42.612,252.27 42.73,252.271 								"></polygon>
								<path fill="#010101" d="M33.152,244.561l0.029,0.125l0.005-0.014l0.21-0.043l-0.054,0.138l6.018-0.196l0.142,0.005
									l0.156,0.053l0.156,0.05l0.154,0.054l0.144,0.089l0.116,0.083l0.083,0.101l0.05,0.099l-0.141,0.044l2.392,7.21l0.142,0.001
									l0.003,0.089h0.216l0.203-0.004l0.186,0.004l0.169-0.029l0.172-0.045l0.173-0.084l0.16-0.135l0.19-0.182l0.004-0.015
									l0.109-0.149l0.124-0.16l0.144-0.168l0.1-0.169l0.126-0.203l0.13-0.173l0.106-0.193l0.139-0.201l0.112-0.163l0.16-0.177
									l0.131-0.173l0.15-0.152l0.134-0.142l0.144-0.126l0.138-0.111l0.16-0.09l0.034-0.019l-0.103-0.099l0,0l0.103,0.099
									l0.161-0.177l0.146-0.14l0.13-0.128l0.139-0.114l0.135-0.098l0.141-0.083l0.126-0.073l0.139-0.068l0.155-0.035l0.151-0.063
									l0.156-0.036l0.18-0.025l0.199-0.035l0.222-0.013l0.238-0.021l0.232-0.01l0.014,0.006L75,246.333l0.151-0.019l0.139-0.028
									l0.125-0.029l0.131-0.043l0.12-0.061l0.126-0.074l0.104-0.095l0.121-0.104l0.025-0.033l0.454-1.059l-0.236-0.152
									l0.104,0.103l-0.017,0.014l-0.115-0.081l-0.113,0.266l-0.077,0.045l-0.099,0.04l-0.117,0.047l-0.108,0.021l-0.138,0.026
									l-0.139,0.025l-25.98,1.936l-0.165,0.016l-0.159,0.006l-0.159,0.004l-0.169,0.027h-0.174l-0.15,0.024l-0.165,0.017
									l-0.15,0.021L48,247.224l-0.15,0.021l-0.154,0.034l-0.174,0.044l-0.156,0.034l-0.165,0.061l-0.164,0.062l-0.155,0.077
									l-0.307,0.186l-0.312,0.285l-0.328,0.337l-0.316,0.385l-0.307,0.401l-0.264,0.359l-0.26,0.346l-0.215,0.26l-0.127,0.029
									l-0.107,0.022l-0.135,0.013h-0.13h-0.13l-0.111-0.009l-0.143-0.005l-0.126-0.014l-2.384-7.192l-0.053-0.104l-0.082-0.101
									l-0.115-0.081l-0.157-0.095l-0.151-0.065l-0.155-0.053l-0.147-0.034l-0.143-0.004l-6.013,0.184l-0.723,1.9l-0.004-0.025
									L33.152,244.561z M76.36,244.76l0.008-0.019l0.099,0.095L76.36,244.76z"></path>
							</g>
						</g>
					</g>
				</g>
			</g>
			<polygon fill-rule="evenodd" clip-rule="evenodd" fill="#010101" points="75.451,245.291 75.606,245.254 75.744,245.229 
				75.871,245.198 76,245.155 76.121,245.094 76.247,245.022 76.345,244.94 76.466,244.836 76.26,244.636 76.168,244.736 
				76.074,244.806 75.982,244.862 75.883,244.9 75.788,244.926 75.675,244.96 75.555,244.978 75.42,244.991 75.451,245.291 
				75.451,245.291 			"></polygon>
			<polygon fill-rule="evenodd" clip-rule="evenodd" fill="#010101" points="49.487,247.216 75.451,245.291 75.42,244.991 
				49.454,246.93 49.487,247.216 49.487,247.216 			"></polygon>
			<polygon fill-rule="evenodd" clip-rule="evenodd" fill="#010101" points="46.941,247.677 47.092,247.613 47.24,247.56 
				47.417,247.504 47.564,247.453 47.723,247.406 47.875,247.384 48.027,247.362 48.195,247.333 48.333,247.304 48.493,247.302 
				48.658,247.285 48.822,247.267 48.986,247.25 49.132,247.242 49.31,247.229 49.487,247.216 49.454,246.93 49.288,246.948 
				49.125,246.964 48.952,246.964 48.788,246.982 48.626,246.987 48.472,247.021 48.311,247.025 48.134,247.038 47.978,247.072 
				47.824,247.107 47.655,247.137 47.481,247.18 47.334,247.232 47.158,247.288 46.981,247.344 46.824,247.421 46.941,247.677 
				46.941,247.677 46.941,247.677 			"></polygon>
			<polygon fill-rule="evenodd" clip-rule="evenodd" fill="#010101" points="44.615,250.243 44.671,250.205 44.788,250.07 
				44.891,249.932 45.016,249.773 45.147,249.599 45.294,249.418 45.428,249.232 45.579,249.037 45.731,248.844 45.886,248.636 
				46.045,248.458 46.203,248.294 46.362,248.117 46.496,247.974 46.665,247.859 46.803,247.747 46.941,247.677 46.824,247.421 
				46.647,247.522 46.496,247.628 46.319,247.772 46.151,247.932 45.995,248.096 45.838,248.26 45.667,248.476 45.514,248.67 
				45.363,248.865 45.211,249.059 45.079,249.246 44.93,249.426 44.8,249.599 44.675,249.759 44.573,249.898 44.477,250.01 
				44.529,249.983 44.615,250.243 44.615,250.243 44.615,250.243 			"></polygon>
			<polygon fill="none" points="72.667,242.704 72.724,242.579 72.827,242.484 72.983,242.406 73.165,242.38 73.263,242.384 
				73.377,242.393 73.484,242.415 73.592,242.436 73.722,242.48 73.839,242.519 73.964,242.575 74.098,242.648 74.21,242.7 
				74.328,242.783 74.431,242.86 74.544,242.956 74.661,243.037 74.742,243.136 74.842,243.227 74.924,243.327 75.075,243.521 
				75.153,243.72 75.192,243.82 75.213,243.885 75.201,244.054 75.169,244.187 75.074,244.299 74.936,244.368 74.75,244.407 
				74.647,244.417 74.54,244.393 74.414,244.381 74.28,244.351 74.163,244.312 74.034,244.268 73.895,244.209 73.773,244.139 
				73.649,244.083 73.513,244.009 73.397,243.928 73.286,243.832 73.181,243.753 73.074,243.647 72.978,243.542 72.897,243.442 
				72.763,243.238 72.684,243.042 72.663,242.976 72.641,242.868 			"></polygon>
			<polygon fill-rule="evenodd" clip-rule="evenodd" fill="#FFFFFF" points="39.641,242.432 40.176,242.423 40.22,242.423 
				35.617,240.888 35.383,241.026 39.636,242.445 39.636,242.445 39.641,242.432 			"></polygon>
			<polygon fill-rule="evenodd" clip-rule="evenodd" fill="#FFFFFF" points="39.641,242.432 34.164,242.607 34.142,242.499 
				34.112,242.375 34.078,242.262 34.035,242.132 34.012,242.024 34.012,241.937 34.047,241.833 34.142,241.763 34.368,241.609 
				34.618,241.462 34.869,241.315 35.12,241.168 35.358,241.016 35.383,241.026 39.636,242.445 39.636,242.445 39.641,242.432 			
				"></polygon>
			<polygon fill="#FFFFFF" points="36.311,245.758 40.042,245.548 41.502,246.136 42.017,247.662 42.174,248.189 41.555,248.227 
				40.95,248.227 40.392,248.215 39.882,248.189 39.385,248.124 38.922,248.042 38.498,247.929 38.075,247.817 37.678,247.669 
				37.292,247.526 36.93,247.362 36.571,247.185 36.199,247.003 35.844,246.813 35.491,246.623 35.123,246.427 35.088,246.273 
				35.062,246.133 35.028,245.979 35.005,245.827 			"></polygon>
			<polygon fill-rule="evenodd" clip-rule="evenodd" fill="#FFFFFF" points="45.709,246.185 45.762,246.247 46.242,246.536 
				46.396,246.287 45.917,245.996 45.964,246.069 45.709,246.185 45.727,246.219 45.762,246.247 45.709,246.185 45.709,246.185 			
				"></polygon>
			<polygon fill-rule="evenodd" clip-rule="evenodd" fill="#FFFFFF" points="41.443,246.275 41.361,246.175 42.044,248.232 
				42.315,248.149 41.633,246.091 41.559,246.01 41.633,246.091 41.612,246.028 41.559,246.01 41.443,246.275 41.443,246.275 
				41.443,246.275 			"></polygon>
			<polygon fill-rule="evenodd" clip-rule="evenodd" fill="#FFFFFF" points="40.056,245.683 39.986,245.673 41.443,246.275 
				41.559,246.01 40.104,245.41 40.046,245.406 40.104,245.41 40.077,245.402 40.046,245.406 40.056,245.683 40.056,245.683 
				40.056,245.683 			"></polygon>
			<polygon fill-rule="evenodd" clip-rule="evenodd" fill="#FFFFFF" points="35.153,245.82 35.015,245.974 40.056,245.683 
				40.046,245.406 35.006,245.697 34.873,245.838 35.006,245.697 34.846,245.701 34.873,245.838 35.153,245.82 35.153,245.82 			"></polygon>
			<polygon fill-rule="evenodd" clip-rule="evenodd" fill="#FFFFFF" points="35.193,246.307 35.248,246.397 35.244,246.324 
				35.227,246.247 35.222,246.173 35.201,246.108 35.196,246.035 35.179,245.958 35.158,245.892 35.153,245.82 34.873,245.838 
				34.872,245.926 34.885,246.017 34.907,246.08 34.912,246.154 34.932,246.219 34.95,246.298 34.98,246.38 34.985,246.455 
				35.053,246.548 34.985,246.455 35.005,246.518 35.053,246.548 35.193,246.307 35.193,246.307 			"></polygon>
			<polygon fill-rule="evenodd" clip-rule="evenodd" fill="#FFFFFF" points="42.046,248.218 42.164,248.042 41.545,248.082 
				40.95,248.099 40.41,248.077 39.886,248.044 39.419,247.976 38.953,247.907 38.53,247.794 38.119,247.687 37.72,247.54 
				37.354,247.387 36.986,247.235 36.627,247.06 36.268,246.882 35.915,246.693 35.559,246.5 35.193,246.307 35.053,246.548 
				35.42,246.744 35.775,246.935 36.139,247.141 36.497,247.318 36.874,247.487 37.236,247.652 37.629,247.811 38.027,247.959 
				38.463,248.076 38.891,248.175 39.367,248.262 39.865,248.327 40.383,248.37 40.958,248.375 41.555,248.358 42.199,248.328 
				42.315,248.149 42.199,248.328 42.376,248.314 42.315,248.149 42.044,248.232 42.044,248.232 42.046,248.218 			"></polygon>
			<g>
				<polygon fill="none" points="44.656,250.046 44.761,250.149 44.656,250.046 				"></polygon>
				<polygon fill="none" points="43.699,250.01 43.673,250.011 43.673,250.011 				"></polygon>
				<polygon fill="none" points="41.352,243.017 45.135,244.28 41.352,243.017 				"></polygon>
			</g>
			<polygon fill-rule="evenodd" clip-rule="evenodd" fill="#FFFFFF" points="49.454,246.93 49.263,246.939 49.05,246.969 
				48.861,246.976 48.654,246.994 48.455,247.029 48.243,247.06 48.031,247.09 47.827,247.137 47.624,247.185 47.447,247.241 
				47.251,247.304 47.071,247.375 46.915,247.453 46.73,247.535 46.578,247.643 46.439,247.754 46.613,247.972 46.747,247.872 
				46.876,247.785 47.019,247.703 47.183,247.643 47.343,247.552 47.516,247.508 47.719,247.461 47.897,247.406 48.091,247.384 
				48.264,247.34 48.472,247.324 48.67,247.29 48.882,247.258 49.089,247.241 49.284,247.22 49.487,247.216 49.454,246.93 
				49.454,246.93 49.454,246.93 			"></polygon>
			<polygon fill-rule="evenodd" clip-rule="evenodd" fill="#FFFFFF" points="75.42,244.991 49.454,246.93 49.487,247.216 
				75.451,245.291 75.42,244.991 75.42,244.991 			"></polygon>
			<polygon fill-rule="evenodd" clip-rule="evenodd" fill="#FFFFFF" points="75.905,243.408 76.013,243.56 76.125,243.7 
				76.178,243.846 76.26,243.989 76.302,244.119 76.316,244.251 76.319,244.368 76.311,244.48 76.281,244.572 76.238,244.659 
				76.181,244.741 76.081,244.823 75.978,244.875 75.813,244.935 75.641,244.978 75.42,244.991 75.451,245.291 75.688,245.267 
				75.896,245.207 76.077,245.136 76.238,245.048 76.385,244.952 76.488,244.813 76.544,244.688 76.596,244.533 76.593,244.373 
				76.601,244.218 76.566,244.062 76.509,243.886 76.445,243.732 76.358,243.56 76.247,243.379 76.134,243.241 75.905,243.408 
				75.905,243.408 			"></polygon>
			<polygon fill-rule="evenodd" clip-rule="evenodd" fill="#FFFFFF" points="72.809,241.93 73.043,241.921 73.281,241.944 
				73.523,241.996 73.755,242.031 73.977,242.104 74.198,242.177 74.409,242.277 74.609,242.373 74.816,242.484 75.005,242.605 
				75.209,242.731 75.356,242.851 75.511,242.99 75.664,243.141 75.789,243.284 75.905,243.408 76.134,243.241 76,243.081 
				75.848,242.93 75.697,242.777 75.529,242.635 75.343,242.501 75.158,242.368 74.967,242.246 74.751,242.116 74.527,242.013 
				74.296,241.921 74.063,241.844 73.818,241.761 73.575,241.708 73.328,241.67 73.046,241.649 72.802,241.651 72.809,241.93 
				72.809,241.93 			"></polygon>
			<polygon fill-rule="evenodd" clip-rule="evenodd" fill="#FFFFFF" points="49.834,242.721 72.809,241.93 72.802,241.651 
				49.838,242.449 49.834,242.721 49.834,242.721 			"></polygon>
			<polygon fill-rule="evenodd" clip-rule="evenodd" fill="#FFFFFF" points="46.208,242.144 46.423,242.232 46.653,242.279 
				46.874,242.352 47.102,242.4 47.343,242.453 47.569,242.513 47.815,242.551 48.036,242.582 48.265,242.63 48.502,242.651 
				48.736,242.686 48.965,242.689 49.185,242.72 49.419,242.711 49.63,242.726 49.834,242.721 49.838,242.449 49.622,242.449 
				49.41,242.436 49.211,242.427 48.987,242.411 48.761,242.392 48.538,242.375 48.317,242.344 48.084,242.31 47.855,242.262 
				47.634,242.232 47.41,242.172 47.176,242.137 46.952,242.075 46.712,242.011 46.513,241.959 46.294,241.886 46.204,242.158 
				46.204,242.158 46.208,242.144 			"></polygon>
			<polygon fill-rule="evenodd" clip-rule="evenodd" fill="#FFFFFF" points="38.458,240.021 38.85,239.964 39.221,239.929 
				39.577,239.903 39.901,239.881 40.208,239.869 40.485,239.904 40.769,239.913 41.007,239.934 41.254,239.972 41.484,240.022 
				41.699,240.064 41.894,240.129 42.101,240.198 42.265,240.267 42.468,240.349 42.628,240.431 42.814,240.524 43,240.613 
				43.182,240.718 43.364,240.822 43.545,240.924 43.736,241.047 43.921,241.137 44.124,241.262 44.348,241.367 44.565,241.497 
				44.807,241.591 45.041,241.712 45.303,241.829 45.589,241.925 45.893,242.053 46.204,242.158 46.294,241.886 45.983,241.782 
				45.676,241.666 45.419,241.564 45.153,241.461 44.907,241.335 44.695,241.236 44.479,241.106 44.266,241.007 44.059,240.895 
				43.865,240.787 43.683,240.683 43.494,240.561 43.311,240.458 43.125,240.367 42.94,240.277 42.771,240.176 42.585,240.086 
				42.382,240.003 42.192,239.926 41.984,239.857 41.764,239.783 41.535,239.736 41.302,239.701 41.045,239.645 40.783,239.614 
				40.51,239.611 40.194,239.606 39.892,239.605 39.542,239.618 39.187,239.644 38.812,239.691 38.422,239.735 38.444,240.014 
				38.444,240.014 38.458,240.021 			"></polygon>
			<polygon fill-rule="evenodd" clip-rule="evenodd" fill="#FFFFFF" points="34.216,241.891 34.44,241.734 34.691,241.586 
				34.942,241.441 35.197,241.281 35.431,241.143 35.695,241 35.941,240.866 36.196,240.75 36.469,240.625 36.741,240.499 
				37.008,240.387 37.286,240.292 37.584,240.219 37.856,240.136 38.155,240.064 38.444,240.014 38.422,239.735 38.098,239.798 
				37.792,239.856 37.489,239.94 37.203,240.019 36.918,240.139 36.624,240.244 36.357,240.357 36.083,240.482 35.807,240.62 
				35.543,240.762 35.296,240.895 35.045,241.042 34.794,241.19 34.544,241.335 34.307,241.488 34.069,241.638 34.203,241.886 
				34.203,241.886 34.216,241.891 			"></polygon>
			<polygon fill-rule="evenodd" clip-rule="evenodd" fill="#FFFFFF" points="34.164,242.478 34.311,242.598 34.268,242.468 
				34.242,242.33 34.208,242.218 34.176,242.093 34.16,242.014 34.146,241.966 34.168,241.903 34.203,241.886 34.069,241.638 
				33.944,241.754 33.878,241.907 33.861,242.045 33.905,242.174 33.935,242.3 33.969,242.413 34.004,242.524 34.025,242.633 
				34.16,242.748 34.025,242.633 34.03,242.748 34.16,242.748 34.164,242.478 34.164,242.478 			"></polygon>
			<g>
				<polygon fill="none" points="44.771,243.51 44.773,243.511 44.738,243.657 				"></polygon>
				<polygon fill="#FFFFFF" points="44.777,243.498 44.773,243.511 44.771,243.51 				"></polygon>
				<polygon fill="#FFFFFF" points="44.711,243.562 44.771,243.51 44.738,243.657 				"></polygon>
				<g>
					<polygon fill="none" points="72.724,242.579 72.827,242.484 72.983,242.406 73.165,242.38 73.263,242.384 73.377,242.393 
						73.484,242.415 73.592,242.436 73.722,242.48 73.839,242.519 73.964,242.575 74.098,242.648 74.21,242.7 74.328,242.783 
						74.431,242.86 74.544,242.956 74.661,243.037 74.742,243.136 74.842,243.227 74.924,243.327 75.075,243.521 75.153,243.72 
						75.192,243.82 75.213,243.885 75.201,244.054 75.169,244.187 75.074,244.299 74.936,244.368 74.75,244.407 74.647,244.417 
						74.54,244.393 74.414,244.381 74.28,244.351 74.163,244.312 74.034,244.268 73.895,244.209 73.773,244.139 73.649,244.083 
						73.513,244.009 73.397,243.928 73.286,243.832 73.181,243.753 73.074,243.647 72.978,243.542 72.897,243.442 72.763,243.238 
						72.684,243.042 72.663,242.976 72.641,242.868 72.667,242.704 					"></polygon>
					<polygon fill="none" points="47.698,243.492 47.698,243.492 47.569,243.549 					"></polygon>
					<polygon fill="none" points="48.631,245.849 48.723,245.923 48.732,245.94 48.485,246.248 46.315,246.402 45.843,246.13 
						45.841,246.125 45.964,246.069 45.042,243.639 45.194,243.486 47.167,243.373 47.585,243.59 48.611,246.001 					"></polygon>
					<polygon fill="none" points="41.227,242.759 41.227,242.759 44.858,243.97 					"></polygon>
					<g>
						<polygon fill="none" points="72.724,242.579 72.827,242.484 72.983,242.406 73.165,242.38 73.263,242.384 73.377,242.393 
							73.484,242.415 73.592,242.436 73.722,242.48 73.839,242.519 73.964,242.575 74.098,242.648 74.21,242.7 74.328,242.783 
							74.431,242.86 74.544,242.956 74.661,243.037 74.742,243.136 74.842,243.227 74.924,243.327 75.075,243.521 75.153,243.72 
							75.192,243.82 75.213,243.885 75.201,244.054 75.169,244.187 75.074,244.299 74.936,244.368 74.75,244.407 74.647,244.417 
							74.54,244.393 74.414,244.381 74.28,244.351 74.163,244.312 74.034,244.268 73.895,244.209 73.773,244.139 73.649,244.083 
							73.513,244.009 73.397,243.928 73.286,243.832 73.181,243.753 73.074,243.647 72.978,243.542 72.897,243.442 72.763,243.238 
							72.684,243.042 72.663,242.976 72.641,242.868 72.667,242.704 						"></polygon>
						<polygon fill="none" points="47.167,243.373 47.585,243.59 48.611,246.001 48.631,245.849 48.723,245.923 48.732,245.94 
							48.485,246.248 46.315,246.402 45.843,246.13 45.841,246.125 45.964,246.069 45.042,243.639 45.194,243.486 						"></polygon>
						<polygon fill="none" points="41.227,242.759 41.227,242.759 44.858,243.97 						"></polygon>
						<g>
							<polygon fill="none" points="72.724,242.579 72.827,242.484 72.983,242.406 73.165,242.38 73.263,242.384 73.377,242.393 
								73.484,242.415 73.592,242.436 73.722,242.48 73.839,242.519 73.964,242.575 74.098,242.648 74.21,242.7 74.328,242.783 
								74.431,242.86 74.544,242.956 74.661,243.037 74.742,243.136 74.842,243.227 74.924,243.327 75.075,243.521 75.153,243.72 
								75.192,243.82 75.213,243.885 75.201,244.054 75.169,244.187 75.074,244.299 74.936,244.368 74.75,244.407 74.647,244.417 
								74.54,244.393 74.414,244.381 74.28,244.351 74.163,244.312 74.034,244.268 73.895,244.209 73.773,244.139 73.649,244.083 
								73.513,244.009 73.397,243.928 73.286,243.832 73.181,243.753 73.074,243.647 72.978,243.542 72.897,243.442 72.763,243.238 
								72.684,243.042 72.663,242.976 72.641,242.868 72.667,242.704 							"></polygon>
							<polygon fill="none" points="47.167,243.373 47.585,243.59 48.611,246.001 48.631,245.849 48.723,245.923 48.732,245.94 
								48.488,246.244 48.472,246.113 46.302,246.268 46.396,246.287 46.325,246.401 46.315,246.402 45.843,246.13 45.841,246.125 
								45.964,246.069 45.042,243.639 45.194,243.486 							"></polygon>
							<polygon fill="none" points="41.227,242.759 41.227,242.759 44.858,243.97 							"></polygon>
							<g>
								<polygon fill="none" points="48.686,245.464 52.799,246.835 48.686,245.464 								"></polygon>
								<polygon fill="none" points="48.58,245.212 53.317,246.793 48.58,245.212 								"></polygon>
								<polygon fill="none" points="72.724,242.579 72.827,242.484 72.983,242.406 73.165,242.38 73.263,242.384 73.377,242.393 
									73.484,242.415 73.592,242.436 73.722,242.48 73.839,242.519 73.964,242.575 74.098,242.648 74.21,242.7 74.328,242.783 
									74.431,242.86 74.544,242.956 74.661,243.037 74.742,243.136 74.842,243.227 74.924,243.327 75.075,243.521 75.153,243.72 
									75.192,243.82 75.213,243.885 75.201,244.054 75.169,244.187 75.074,244.299 74.936,244.368 74.75,244.407 74.647,244.417 
									74.54,244.393 74.414,244.381 74.28,244.351 74.163,244.312 74.034,244.268 73.895,244.209 73.773,244.139 73.649,244.083 
									73.513,244.009 73.397,243.928 73.286,243.832 73.181,243.753 73.074,243.647 72.978,243.542 72.897,243.442 
									72.763,243.238 72.684,243.042 72.663,242.976 72.641,242.868 72.667,242.704 								"></polygon>
								<polygon fill="none" points="47.167,243.373 47.585,243.59 48.611,246.001 48.631,245.849 48.723,245.923 48.732,245.94 
									48.488,246.244 48.485,246.248 46.325,246.401 46.315,246.402 45.843,246.13 45.841,246.125 45.964,246.069 45.042,243.639 
									45.194,243.486 								"></polygon>
								<polygon fill="none" points="41.227,242.759 41.227,242.759 44.858,243.97 								"></polygon>
								<polygon fill="#FFFFFF" points="48.58,245.212 53.317,246.793 52.803,246.824 52.799,246.835 48.686,245.464 								"></polygon>
								<g>
									<polygon fill="none" points="72.724,242.579 72.827,242.484 72.983,242.406 73.165,242.38 73.263,242.384 73.377,242.393 
										73.484,242.415 73.592,242.436 73.722,242.48 73.839,242.519 73.964,242.575 74.098,242.648 74.21,242.7 74.328,242.783 
										74.431,242.86 74.544,242.956 74.661,243.037 74.742,243.136 74.842,243.227 74.924,243.327 75.075,243.521 75.153,243.72 
										75.192,243.82 75.213,243.885 75.201,244.054 75.169,244.187 75.074,244.299 74.936,244.368 74.75,244.407 74.647,244.417 
										74.54,244.393 74.414,244.381 74.28,244.351 74.163,244.312 74.034,244.268 73.895,244.209 73.773,244.139 73.649,244.083 
										73.513,244.009 73.397,243.928 73.286,243.832 73.181,243.753 73.074,243.647 72.978,243.542 72.897,243.442 
										72.763,243.238 72.684,243.042 72.663,242.976 72.641,242.868 72.667,242.704 									"></polygon>
									<polygon fill="none" points="47.167,243.373 47.585,243.59 48.576,245.92 48.422,246.117 46.302,246.268 46.396,246.287 
										46.325,246.401 46.315,246.402 45.843,246.13 45.841,246.125 45.964,246.069 45.042,243.639 45.194,243.486 									"></polygon>
									<polygon fill="none" points="48.631,245.849 48.723,245.923 48.723,245.923 									"></polygon>
									<polygon fill="none" points="41.227,242.759 41.227,242.759 44.858,243.97 									"></polygon>
									<path fill="#FFFFFF" d="M34.16,242.748l6.017-0.195l0.126,0.013l0.116,0.04l0.157,0.051l0.142,0.049l0.129,0.087
										l0.096,0.06l0.056,0.092l0.044,0.043l2.393,7.209l0.035,0.112l0.117-0.004l0.121-0.017l0.138,0.017l0.169,0.014
										l0.159-0.005l0.156,0.01l0.143-0.039l0.159-0.047l0.13-0.087l0.156-0.166l0.13-0.172l0.121-0.146l0.121-0.146l0.104-0.14
										l0.1-0.126l0.086-0.128l0.104-0.14l0.086-0.129l0.1-0.125l0.1-0.127l0.107-0.107l0.113-0.121l0.13-0.129l0.13-0.131
										l0.164-0.145l-0.088-0.11l0.13-0.107l0.148-0.095l0.169-0.073l0.155-0.078l0.168-0.072l0.19-0.053l0.194-0.065l0.19-0.051
										l0.182-0.026l0.199-0.036l0.211-0.028l0.199-0.034l0.207-0.018l0.208-0.018l0.194-0.021l0.19-0.008l3.338-0.242
										l-4.113-1.371l-0.106-0.252l0,0l4.737,1.581l22.125-1.651l0.411-0.064l0.308-0.143l0.212-0.203l0.076-0.233v-0.259
										l0.005-0.014l-0.073-0.298l-0.146-0.295l-0.213-0.315l-0.125-0.142l-0.138-0.147l-0.151-0.15l-0.159-0.127l-0.169-0.143
										l-0.189-0.12l-0.203-0.126l-0.204-0.126l-0.217-0.087l-0.212-0.099l-0.233-0.078l-0.246-0.081l-0.232-0.034l-0.243-0.053
										l-0.252-0.026l-0.244,0.005l-3.342,0.123l-19.622,0.672h-0.217l-0.202,0.003l-0.229-0.003l-0.22-0.03l-0.226-0.018
										l-0.225-0.018l-0.22-0.031l-0.234-0.034l-0.233-0.034l-0.229-0.048l-0.229-0.049l-0.229-0.047l-0.236-0.063l-0.225-0.062
										l-0.214-0.056l-0.22-0.072l-0.312-0.105l-0.306-0.117l-0.269-0.103l-0.268-0.104l-0.234-0.12l-0.225-0.104l-0.232-0.123
										l-0.213-0.099l-0.203-0.125l-0.182-0.104l-0.194-0.107l-0.182-0.104l-0.194-0.107l-0.181-0.105l-0.174-0.086l-0.182-0.104
										l-0.186-0.09l-0.191-0.078l-0.181-0.062L41.937,240l-0.221-0.073l-0.211-0.058l-0.234-0.033l-0.246-0.039l-0.251-0.027
										l-0.281-0.021l-0.299-0.014l-0.306,0.014l-0.32,0.008l-0.358,0.038l-0.372,0.035l-0.406,0.052l-0.303,0.043l-0.299,0.073
										l-0.299,0.073l-0.276,0.096l-0.293,0.104l-0.281,0.106l-0.267,0.112l-0.273,0.125l-0.26,0.13l-0.264,0.144l4.199,1.4
										l-5.652,0.189L34.16,242.748z M72.641,242.868l0.026-0.164l0.057-0.125l0.103-0.095l0.156-0.078l0.182-0.025l0.099,0.004
										l0.114,0.009l0.106,0.021l0.108,0.021l0.13,0.044l0.117,0.039l0.125,0.056l0.134,0.073l0.112,0.052l0.117,0.083
										l0.104,0.077l0.113,0.096l0.116,0.081l0.081,0.1l0.101,0.091l0.082,0.1l0.15,0.194l0.078,0.199l0.039,0.1l0.021,0.065
										l-0.013,0.169l-0.031,0.133l-0.096,0.112l-0.138,0.068l-0.186,0.039l-0.104,0.01l-0.107-0.023l-0.126-0.012l-0.134-0.03
										l-0.117-0.039l-0.129-0.044l-0.139-0.059l-0.122-0.07l-0.124-0.057l-0.136-0.073l-0.116-0.081l-0.111-0.097l-0.104-0.078
										l-0.107-0.106l-0.096-0.104l-0.081-0.101l-0.134-0.204l-0.079-0.196l-0.021-0.065L72.641,242.868z M48.723,245.923
										L48.723,245.923l-0.092-0.074L48.723,245.923z M45.042,243.639l0.152-0.153l1.974-0.113l0.418,0.218l0.99,2.33
										l-0.153,0.196l-2.12,0.151l0.094,0.019l-0.071,0.114l-0.01,0.001l-0.472-0.271l-0.002-0.005l0.123-0.057L45.042,243.639z"></path>
								</g>
							</g>
						</g>
					</g>
				</g>
			</g>
			<polygon fill-rule="evenodd" clip-rule="evenodd" fill="#010101" points="71.304,244.367 71.184,244.298 71.163,244.189 
				71.335,244.146 71.371,244.259 71.266,244.181 71.304,244.367 71.304,244.367 			"></polygon>
			<polygon fill-rule="evenodd" clip-rule="evenodd" fill="#010101" points="71.54,244.229 71.513,244.264 71.469,244.306 
				71.417,244.333 71.367,244.358 71.304,244.367 71.266,244.181 71.292,244.189 71.332,244.16 71.378,244.146 71.383,244.134 
				71.375,244.16 71.535,244.242 71.535,244.242 71.54,244.229 			"></polygon>
			<polygon fill-rule="evenodd" clip-rule="evenodd" fill="#010101" points="71.05,243.144 71.064,243.148 71.146,243.248 
				71.253,243.356 71.357,243.477 71.457,243.611 71.539,243.753 71.585,243.914 71.586,244.086 71.535,244.242 71.375,244.16 
				71.409,244.055 71.401,243.953 71.371,243.827 71.292,243.715 71.207,243.585 71.113,243.481 71.002,243.373 70.92,243.274 
				70.933,243.278 71.05,243.144 71.05,243.144 			"></polygon>
			<polygon fill-rule="evenodd" clip-rule="evenodd" fill="#010101" points="69.46,242.685 69.447,242.68 69.676,242.685 
				69.892,242.685 70.095,242.723 70.29,242.746 70.488,242.797 70.674,242.889 70.869,242.997 71.05,243.144 70.933,243.278 
				70.756,243.161 70.587,243.061 70.428,242.98 70.255,242.935 70.065,242.902 69.871,242.879 69.671,242.872 69.468,242.875 
				69.473,242.863 69.442,242.694 69.442,242.694 69.46,242.685 			"></polygon>
			<polygon fill-rule="evenodd" clip-rule="evenodd" fill="#010101" points="52.592,243.57 52.666,243.521 69.442,242.694 
				69.473,242.863 52.691,243.704 52.765,243.656 52.592,243.57 52.592,243.57 			"></polygon>
			<polygon fill-rule="evenodd" clip-rule="evenodd" fill="#010101" points="52.194,244.157 52.012,244.096 52.026,243.97 
				52.06,243.868 52.112,243.755 52.181,243.676 52.271,243.621 52.388,243.574 52.518,243.531 52.666,243.521 52.691,243.704 
				52.552,243.729 52.428,243.759 52.367,243.767 52.306,243.82 52.277,243.868 52.229,243.923 52.203,244.001 52.208,244.118 
				52.026,244.056 52.194,244.157 52.194,244.157 			"></polygon>
			<g>
				<polygon fill="none" points="52.666,243.526 52.691,243.704 52.666,243.526 				"></polygon>
				<g>
					<polygon fill="none" points="52.208,244.118 52.229,244.009 52.28,243.898 52.324,243.811 52.415,243.755 52.523,243.732 
						52.674,243.711 52.691,243.704 69.473,242.863 69.753,242.884 69.988,242.875 70.208,242.906 70.41,242.945 70.597,243.036 
						70.764,243.134 70.92,243.274 71.098,243.477 71.253,243.659 71.367,243.839 71.421,243.973 71.421,244.06 71.383,244.134 
						71.276,244.199 71.072,244.247 70.787,244.28 53.542,245.168 53.53,245.165 53.288,245.156 53.05,245.09 52.837,244.991 
						52.657,244.887 52.505,244.736 52.398,244.583 52.302,244.438 52.229,244.313 52.215,244.221 					"></polygon>
					<g>
						<path fill="none" d="M52.229,244.009l-0.021,0.108l0.008,0.104l0.014,0.092l0.073,0.125l0.096,0.146l0.107,0.152l0.151,0.151
							l0.181,0.104l0.213,0.1l0.237,0.065l0.242,0.009l0.013,0.004l17.244-0.889l0.285-0.033l0.204-0.048l0.107-0.064l0.038-0.074
							v-0.087l-0.055-0.134l-0.113-0.181l-0.155-0.182l-0.178-0.203l-0.156-0.14l-0.167-0.099l-0.188-0.091l-0.202-0.039l-0.22-0.03
							l-0.234,0.009l-0.28-0.021l-16.782,0.841l-0.017,0.008l-0.151,0.021l-0.108,0.023l-0.091,0.056l-0.044,0.087L52.229,244.009z
							 M52.466,243.902l16.782-0.841l0.008-0.025l0.225,0.018h0.217l0.203,0.038l0.194,0.021l0.199,0.053l0.186,0.091l0.182,0.104
							l0.194,0.151l0.072,0.08l0.066,0.066l0.061,0.078l0.051,0.059l0.073,0.085l0.057,0.09l0.048,0.072l0.048,0.074l0.004,0.03
							l-0.173,0.043l0.005,0.031l-0.045-0.086l-0.046-0.074l-0.065-0.065l-0.047-0.073l-0.053-0.061l-0.061-0.077l-0.064-0.064
							l-0.077-0.069l0.005-0.006l-0.153-0.115l-0.164-0.113l-0.164-0.069l-0.173-0.044l-0.189-0.035l-0.195-0.02l-0.212-0.015
							l-0.203,0.005l-16.776,0.829L52.466,243.902z"></path>
						<g>
							<path fill="none" d="M52.229,244.009l-0.021,0.108l0.008,0.104l0.014,0.092l0.073,0.125l0.096,0.146l0.107,0.152l0.151,0.151
								l0.181,0.104l0.213,0.1l0.237,0.065l0.242,0.009l0.013,0.004l17.244-0.889l0.285-0.033l0.204-0.048l0.107-0.064l0.038-0.074
								v-0.087l-0.055-0.134l-0.113-0.181l-0.155-0.182l-0.178-0.203l-0.156-0.14l-0.167-0.099l-0.188-0.091l-0.202-0.039
								l-0.22-0.03l-0.234,0.009l-0.28-0.021l-16.782,0.841l-0.017,0.008l-0.151,0.021l-0.108,0.023l-0.091,0.056l-0.044,0.087
								L52.229,244.009z"></path>
							<g>
								<polygon fill="none" points="52.28,243.898 52.324,243.811 52.415,243.755 52.523,243.732 52.622,243.719 52.484,243.98 
									69.265,243.138 69.481,243.138 69.68,243.148 69.884,243.186 70.078,243.208 70.263,243.256 70.441,243.33 70.618,243.447 
									70.792,243.577 70.851,243.654 70.916,243.719 70.977,243.794 71.042,243.861 71.089,243.934 71.151,244.012 
									71.198,244.086 71.253,244.176 71.26,244.203 71.072,244.247 70.787,244.28 53.542,245.168 53.53,245.165 53.288,245.156 
									53.05,245.09 52.837,244.991 52.657,244.887 52.505,244.736 52.398,244.583 52.302,244.438 52.229,244.313 52.215,244.221 
									52.208,244.118 52.229,244.009 								"></polygon>
								<polygon fill="#010101" points="71.198,244.086 71.151,244.012 71.089,243.934 71.042,243.861 70.977,243.794 
									70.916,243.719 70.851,243.654 70.792,243.577 70.618,243.447 70.441,243.33 70.263,243.256 70.078,243.208 69.884,243.186 
									69.68,243.148 69.481,243.138 69.265,243.138 52.484,243.98 52.622,243.719 52.674,243.711 52.691,243.704 69.473,242.863 
									69.753,242.884 69.988,242.875 70.208,242.906 70.41,242.945 70.597,243.036 70.764,243.134 70.92,243.274 71.098,243.477 
									71.253,243.659 71.367,243.839 71.421,243.973 71.421,244.06 71.383,244.134 71.276,244.199 71.26,244.203 71.253,244.176 
																	"></polygon>
								<g>
									<polygon fill="none" points="52.236,243.993 52.25,243.989 52.336,243.989 52.484,243.98 52.624,243.719 52.674,243.711 
										52.691,243.704 69.473,242.863 69.753,242.884 69.988,242.875 70.208,242.906 70.41,242.945 70.597,243.036 
										70.764,243.134 70.92,243.274 71.098,243.477 71.253,243.659 71.367,243.839 71.421,243.973 71.421,244.06 71.383,244.134 
										71.276,244.199 71.26,244.203 71.072,244.247 70.787,244.28 53.542,245.168 53.53,245.165 53.288,245.156 53.05,245.09 
										52.837,244.991 52.657,244.887 52.505,244.736 52.398,244.583 52.302,244.438 52.229,244.313 52.215,244.221 
										52.208,244.118 52.229,244.009 									"></polygon>
									<path fill="#010101" d="M52.012,244.096l0.018,0.163l0.034,0.113l0.048,0.159l0.112,0.183l0.138,0.146l0.177,0.161
										l0.213,0.143l0.238,0.107l0.249,0.067l0.304,0.002l17.239-0.875l0.329-0.034l0.232-0.052l0.17-0.116l0.095-0.157
										l-0.005-0.159l-0.064-0.194l-0.125-0.186l-0.173-0.218l-0.177-0.202l-0.191-0.165l-0.202-0.124l-0.199-0.096l-0.216-0.043
										l-0.26-0.043h-0.259l-0.295,0.017l-16.776,0.827v0.005l-0.178,0.009l-0.182,0.068l-0.12,0.104l-0.083,0.116l-0.056,0.126
										L52.012,244.096z M52.208,244.118l0.021-0.108l0.007-0.017l0.014-0.004h0.087l0.147-0.009l0.14-0.261l0.051-0.008
										l0.017-0.008l16.782-0.841l0.28,0.021l0.234-0.009l0.22,0.03l0.202,0.039l0.188,0.091l0.167,0.099l0.156,0.14l0.178,0.203
										l0.155,0.182l0.113,0.181l0.055,0.134v0.087l-0.038,0.074l-0.107,0.064l-0.016,0.004l-0.188,0.044l-0.285,0.033
										l-17.244,0.889l-0.013-0.004l-0.242-0.009l-0.237-0.065l-0.213-0.1l-0.181-0.104l-0.151-0.151l-0.107-0.152l-0.096-0.146
										l-0.073-0.125l-0.014-0.092L52.208,244.118z"></path>
								</g>
							</g>
						</g>
					</g>
				</g>
			</g>
		</g>
	</g>
</g>
</svg>