<svg xmlns="http://www.w3.org/2000/svg" viewBox="0 0 750 1125" width="750" height="1125">
  <defs>
    <style>
      .cls-1, .cls-2, .cls-3, .cls-4, .cls-5, .cls-6, .cls-7, .cls-8 {
        fill: none;
      }

      .cls-9 {
        letter-spacing: 0em;
      }

      .cls-9, .cls-10, .cls-11, .cls-12, .cls-13, .cls-14, .cls-15, .cls-16, .cls-17, .cls-18, .cls-19 {
        fill: #231f20;
      }

      .cls-9, .cls-10, .cls-12, .cls-13, .cls-14, .cls-15, .cls-16, .cls-18 {
        font-family: ArialMT, Arial;
      }

      .cls-20 {
        font-size: 4.648px;
      }

      .cls-20, .cls-21 {
        fill: #030303;
        font-family: Arial-Black, 'Arial Black';
        font-weight: 800;
      }

      .cls-22 {
        letter-spacing: .025em;
      }

      .cls-23 {
        letter-spacing: -.005em;
      }

      .cls-24 {
        letter-spacing: .05em;
      }

      .cls-25 {
        letter-spacing: -.043em;
      }

      .cls-26 {
        letter-spacing: .016em;
      }

      .cls-27 {
        letter-spacing: .013em;
      }

      .cls-28 {
        letter-spacing: -.017em;
      }

      .cls-29, .cls-30 {
        fill: #010101;
      }

      .cls-31, .cls-32 {
        fill: #f6a31e;
      }

      .cls-33 {
        fill: #ea222a;
      }

      .cls-34, .cls-35 {
        fill: #fff;
      }

      .cls-36 {
        fill: #cfd0d1;
      }

      .cls-37, .cls-38 {
        fill: #4f4a4c;
      }

      .cls-39 {
        fill: #929497;
        font-size: 3.944px;
      }

      .cls-39, .cls-11, .cls-40, .cls-41, .cls-32, .cls-42, .cls-17 {
        font-family: Arial-BoldMT, Arial;
        font-weight: 700;
      }

      .cls-11 {
        font-size: 3.895px;
      }

      .cls-12 {
        letter-spacing: -.018em;
      }

      .cls-13 {
        letter-spacing: -.018em;
      }

      .cls-14 {
        letter-spacing: -.074em;
      }

      .cls-15 {
        letter-spacing: -.074em;
      }

      .cls-16 {
        letter-spacing: 0em;
      }

      .cls-21 {
        font-size: 4.706px;
      }

      .cls-43 {
        letter-spacing: -.037em;
      }

      .cls-40 {
        fill: #e92127;
      }

      .cls-44 {
        letter-spacing: -.026em;
      }

      .cls-45 {
        letter-spacing: -.055em;
      }

      .cls-2 {
        stroke-dasharray: 0 0 4.463 4.463;
      }

      .cls-2, .cls-4, .cls-5 {
        stroke: #30a5de;
      }

      .cls-3 {
        stroke: #f6a31e;
        stroke-miterlimit: 10;
      }

      .cls-4 {
        stroke-dasharray: 0 0 5.013 5.013;
      }

      .cls-41 {
        fill: #2da6de;
      }

      .cls-41, .cls-32, .cls-42 {
        font-size: 3.943px;
      }

      .cls-42 {
        fill: #eb222b;
      }

      .cls-17 {
        font-size: 3.357px;
      }

      .cls-18 {
        letter-spacing: -.037em;
      }

      .cls-38, .cls-46, .cls-35, .cls-30 {
        fill-rule: evenodd;
      }

      .cls-46 {
        fill: #b5d034;
      }

      .cls-47 {
        font-size: 3.074px;
      }

      .cls-6 {
        stroke: #929497;
      }

      .cls-7 {
        stroke: #ed2024;
      }

      .cls-8 {
        stroke: #ed2224;
      }

      .cls-19 {
        opacity: .5;
      }
    </style>
  </defs>
  <g id="Game_Card" data-name="Game Card">
    <path id="Bleed_Zone" data-name="Bleed Zone" class="cls-19" d="m0,0v270h180V0H0Zm169.37,242.716c0,8.61-6.98,15.591-15.591,15.591H26.22c-8.61,0-15.591-6.98-15.591-15.591V27.283c0-8.61,6.98-15.591,15.591-15.591h127.559c8.61,0,15.591,6.98,15.591,15.591v215.433Z"></path>
    <rect id="Trim_Line" data-name="Trim Line" class="cls-7" x="10.63" y="11.693" width="158.74" height="246.614" rx="15.591" ry="15.591"></rect>
    <g id="Trim_Line-2" data-name="Trim Line">
      <rect class="cls-4" x="19.631" y="20.693" width="140.738" height="228.614" rx="15.591" ry="15.591"></rect>
    </g>
  </g>
  <g id="Instructions">
    <g id="Info">
      <g>
        <g>
          
          
          <path class="cls-33" d="m107.176,219.46c0-.342,0-.684,0-1.026.146-.472.531-.873,1.035-.926.862-.146.291,2.067,1.037,1.768,1.378-1.074,2.419-2.61,3.867-3.564.089,0,.179,0,.268,0,.364.578-.012,1.26-.476,1.67-.58.624-1.177,1.231-1.752,1.86-.636.571-2.002,2.322-2.815,2.293-1.089-.259-1.034-1.177-1.164-2.075Z"></path>
        </g>
        <g>
          
          <path class="cls-33" d="m108.713,33.487c0-.346,0-.693,0-1.039.148-.477.538-.884,1.048-.938.873-.148.294,2.093,1.049,1.79,1.395-1.087,2.449-2.643,3.915-3.608.09,0,.181,0,.271,0,.369.585-.012,1.276-.482,1.691-.587.631-1.192,1.247-1.773,1.883-.644.578-2.026,2.35-2.85,2.322-1.102-.263-1.046-1.192-1.178-2.1Z"></path>
          <g>
            <line class="cls-5" x1="160.314" y1="35.713" x2="157.814" y2="35.713"></line>
            <line class="cls-2" x1="153.35" y1="35.713" x2="119.877" y2="35.713"></line>
            <line class="cls-5" x1="117.645" y1="35.713" x2="115.145" y2="35.713"></line>
          </g>
          
        </g>
        <g>
          
          
          <path class="cls-33" d="m103.624,130.425c0-.346,0-.693,0-1.039.148-.477.538-.884,1.048-.938.873-.148.294,2.093,1.049,1.79,1.395-1.087,2.449-2.643,3.915-3.608.09,0,.181,0,.271,0,.369.585-.012,1.276-.482,1.691-.587.631-1.192,1.247-1.773,1.883-.644.578-2.026,2.35-2.85,2.322-1.102-.263-1.046-1.192-1.178-2.1Z"></path>
          <line class="cls-3" x1="153.639" y1="132.651" x2="110.116" y2="132.651"></line>
          <rect class="cls-31" x="151.314" y="126.631" width="28.686" height="24.802"></rect>
        </g>
        <g>
          
          
          <path class="cls-33" d="m105.629,87.093c0-.346,0-.693,0-1.039.148-.477.538-.884,1.048-.938.873-.148.294,2.093,1.049,1.79,1.395-1.087,2.449-2.643,3.915-3.608.09,0,.181,0,.271,0,.369.585-.012,1.276-.482,1.691-.587.631-1.192,1.247-1.773,1.883-.644.578-2.026,2.35-2.85,2.322-1.102-.263-1.046-1.192-1.178-2.1Z"></path>
          <line class="cls-6" x1="178.314" y1="89.319" x2="112.122" y2="89.319"></line>
        </g>
        <g>
          
          
          <path class="cls-33" d="m110.305,67.261c0-.346,0-.693,0-1.039.148-.477.538-.884,1.048-.938.873-.148.294,2.093,1.049,1.79,1.395-1.087,2.449-2.643,3.915-3.608.09,0,.181,0,.271,0,.369.585-.012,1.276-.482,1.691-.587.631-1.192,1.247-1.773,1.883-.644.578-2.026,2.35-2.85,2.322-1.102-.263-1.046-1.192-1.178-2.1Z"></path>
          <line class="cls-8" x1="169.314" y1="69.487" x2="116.737" y2="69.487"></line>
        </g>
      </g>
      <g>
        <rect class="cls-36" x="28.695" y="185.363" width="49.712" height="54.944"></rect>
        
        <path class="cls-30" d="m70.005,204.328c0,8.664-7.021,15.687-15.682,15.687s-15.682-7.023-15.682-15.687,7.021-15.688,15.682-15.688,15.682,7.024,15.682,15.688Z"></path>
        <path class="cls-46" d="m68.59,204.415c0,7.876-6.383,14.261-14.256,14.261s-14.257-6.385-14.257-14.261,6.383-14.261,14.257-14.261,14.256,6.385,14.256,14.261Z"></path>
        <g>
          <path class="cls-29" d="m51.281,201.305c-.198,1.748-.345,3.152-.443,4.212l-.65.028c.01-.035.014-.075.016-.119.001-.079-.028-.184-.087-.314-.06-.129-.094-.211-.103-.246-.168.023-.329.141-.483.349-.154.21-.293.314-.416.313-.071-.002-.15-.022-.238-.058-.116.077-.267.11-.452.098-.167-.029-.33-.055-.489-.075-.006-.221-.223-.415-.653-.582.001-.088-.043-.219-.133-.393-.09-.174-.134-.296-.133-.367.001-.08.033-.145.096-.197-.009-.027-.081-.191-.217-.495-.094-.222-.139-.414-.137-.573.002-.123.031-.239.086-.344-.076-.754-.109-1.399-.1-1.939.014-.831.133-1.594.357-2.289-.016-.106-.023-.212-.021-.319.009-.557.202-.943.576-1.157l.003-.173c.371-.471.858-.812,1.463-1.023.361.086.722.168,1.083.244.405.14.683.379.837.718.123.073.182.22.178.441-.004.248.024.408.085.479l-.068.079c.071.522.105.842.103.957-.006.336-.094.573-.264.711-.062,0-.224-.056-.487-.167-.063.061-.13.091-.201.09-.035,0-.099-.02-.191-.057-.092-.037-.17-.056-.231-.057-.045,0-.089.008-.133.024-.005-.698.017-1.22.066-1.564-.07-.045-.141-.149-.213-.309-.073-.16-.167-.25-.281-.27-.071.087-.104.144-.095.171l-.237-.084c-.217.235-.36.644-.432,1.226-.074.671-.165,1.116-.275,1.335.095.099.142.237.138.414,0,.062-.011.164-.032.305-.021.142-.03.247-.031.319-.002.08.006.15.023.212l-.162.156c.065.302.104.683.113,1.143-.006.389-.009.778-.006,1.167-.009,0-.085.003-.226.01-.088-.002-.151.028-.187.089.053-.008.102-.012.146-.011.195.003.347.14.458.413.11.272.205.408.285.41.088.001.209-.081.363-.246.26-.279.395-.661.404-1.147.004-.239-.023-.495-.08-.77-.062.035-.095.122-.097.264-.141-.003-.23.027-.266.088-.062-.019-.088-.068-.078-.147.011-.114.016-.176.017-.185.107-.034.16-.082.161-.144,0-.026-.019-.075-.057-.147-.038-.071-.057-.129-.056-.173,0-.036.009-.07.028-.106l.062-.517c.194.057.613.081,1.259.075-.019.044.007.102.077.174.063-.061.13-.091.201-.09.053.001.132.025.237.071.106.046.18.069.224.069Z"></path>
          <path class="cls-29" d="m56.23,205.874c-.123-.056-.255-.084-.396-.087-.124-.002-.292.021-.505.071-.239.048-.404.077-.492.085-.094-.187-.16-.446-.199-.773-.072-.478-.116-.749-.132-.811.027-.053.042-.097.042-.132.002-.097-.074-.185-.227-.262-.154-.078-.23-.139-.23-.184.001-.052.091-.131.27-.234-.044-.053-.076-.162-.095-.326-.019-.164-.06-.273-.12-.328-.108.096-.283.157-.527.183-.244.028-.405.066-.486.118.006.69-.108,1.152-.342,1.387-.123-.028-.217.018-.281.142-.091.148-.168.236-.23.261l.078.094c-.071.06-.187.085-.345.074-.248-.013-.38-.02-.398-.02l-.076-.24.864-7.163c.008-.451.031-.756.069-.915-.011-.398.082-.644.278-.738.122.081.277.124.462.127.15.002.385-.029.704-.095.32-.065.541-.097.665-.095.433.008.622.32.568.939-.044.494.033,1.146.232,1.954.206.87.306,1.521.298,1.955-.002.133.042.407.03.54-.187.103-.427.165-.719.186-.256.013-.517.027-.783.04-.068-.672-.187-1.484-.255-2.149-.084-.797-.187-1.454-.311-1.969l-.409,3.787c-.032.326.116.492.443.498.106.002.207-.023.306-.074.08-.026.19.034.329.178-.005.274.05.439.164.494.143-.096.331-.185.562-.269.205-.076.405-.148.601-.216.112.153.184.38.214.681.037.425.063.673.08.744.014.168.084.533.207,1.092.091.444.132.802.128,1.076-.002.133-.014.256-.033.371Z"></path>
          <path class="cls-29" d="m62.337,199.556c-.01.027-.012.181-.009.465-.003.229-.033.402-.088.516-.065.176-.1.427-.105.754-.002.071,0,.181.008.332-.003.15-.005.261-.006.332-.01.557-.105.962-.287,1.215.015.142.022.284.019.425-.007.442-.159,1.036-.454,1.783-.08.026-.147.038-.2.037-.106-.002-.182-.063-.229-.182-.047-.121-.092-.234-.133-.341.028-.68.014-1.671-.043-2.972l.081-.078c-.058-.231-.085-.488-.08-.771.004-.203.029-.5.075-.888.046-.388.071-.68.075-.875.002-.124,0-.243-.007-.358-.305.729-.52,1.964-.647,3.704l-.11.263c-.037.088-.113.135-.228.142-.034-.062-.07-.094-.105-.095-.027,0-.074.032-.141.097-.068.065-.124.092-.168.083l-.176.156c.078.099.245.11.504.035.204-.058.308.018.315.231.005.177-.043.415-.145.714-.102.299-.154.524-.157.674-.001.106.01.212.034.319l-.918.144c-.085-.179-.149-.477-.19-.899-.041-.42-.105-.721-.19-.899.054-.061.082-.126.083-.197,0-.062-.023-.155-.075-.28-.051-.125-.08-.218-.088-.28-.008-.098-.039-.333-.095-.705-.039-.301-.057-.536-.054-.704.001-.088.008-.168.018-.239,0-.061-.033-.152-.102-.274-.068-.121-.102-.207-.101-.261,0-.043.019-.083.055-.117-.061-.073-.085-.197-.073-.374.012-.176-.013-.301-.073-.372-.129.342-.199.805-.209,1.389-.005.813-.014,1.283-.024,1.405l.091.081-.094.078c.066.319.094.727.086,1.222-.024.892-.036,1.308-.035,1.247-.126.113-.299.167-.519.163-.274-.005-.46.019-.558.07-.112-.196-.165-.449-.16-.759.004-.239.044-.529.121-.874-.12-.223-.177-.534-.17-.932.002-.098.013-.283.035-.557.013-.221.016-.384.01-.49.089-.043.133-.091.134-.143,0-.036-.027-.096-.083-.181-.056-.085-.083-.149-.083-.193,0-.053.038-.106.109-.158l-.285-4.289c.17-.113.445-.166.826-.159.415.016.698-.006.849-.065.027-.017.058-.026.093-.025.035,0,.077.021.124.062.048.041.081.062.098.062.036,0,.067-.026.095-.078l.247.243c.083.312.161.914.235,1.808.075.771.193,1.353.355,1.744.217-.783.395-1.439.538-1.968l.287-2.099,2.056-.045c.007.116.032.731.088,1.085.047.31.07.563.067.757-.003.221-.038.42-.104.595.07.099.103.223.1.373-.002.151-.04.273-.112.37Z"></path>
          <path class="cls-29" d="m66.554,204.205v-.014c-.054.114-.088.247-.099.396-.01.097-.012.235-.007.412.006.203.007.345.007.424-.071,0-.354-.006-.849-.014-.301-.005-.571.021-.811.079l-.247-.269c-.073.069-.1.126-.083.171-.043-.01-.247-.013-.609-.011-.284-.004-.495-.034-.635-.09-.144.149-.313.146-.504-.008-.07-.054-.077-.146-.022-.273.054-.127.039-.223-.048-.286.013-.282.052-.72.115-1.312.062-.529.096-.945.101-1.245.007-.406-.022-.795-.086-1.168.099-.095.21-.143.334-.14.142.002.309.072.501.207.27.19.411.286.419.286l.078.094c.009-.026.056-.167.139-.422.047-.168.116-.277.205-.329l.078.081c.036-.017.152-.099.349-.246.152-.103.276-.349.364-.347.097.002.189.056.276.164.148.082.242.399.289.564.045.164.09.326.131.487-.398.011-.725,0-.981-.03-.064.096-.153.109-.266.042-.114-.068-.197-.059-.253.028-.003.16-.008.447-.015.862-.015.372-.021.663-.014.876.002.327.024.628.064.904.071,0,.406.006,1.007.017.416.007.774.044,1.073.111Zm.028-6.355c-.079.007-.168.011-.265.009-.204-.003-.473-.035-.807-.094-.416-.06-.667-.095-.755-.105-.127.183-.193.444-.199.78-.012.725-.013,1.039-.002.942.122.073.182.207.179.401-.013.265-.016.403-.007.411-.062.025-.094.113-.097.264-.097-.037-.197-.109-.301-.217-.14-.135-.214.323-.203.209l-.084.272-.079-.081c-.071.008-.192-.03-.363-.112-.171-.082-.291-.159-.361-.232.002-.142.026-.221.07-.238l-.169-.188-.082.118c-.1-.922-.075-2.645.047-3.616.336.059.706.096,1.113.112.273.013.658.02,1.152.019.567.001.974.003,1.221.007.104.099.155.229.152.387-.001.098-.029.254-.081.47-.052.217-.079.377-.081.483Z"></path>
        </g>
        <g>
          <path class="cls-29" d="m51.68,212.226v-.006s-.023.199-.069.584c-.022.237-.08.423-.17.559l-.058-.047c-.108.225-.253.362-.439.411-.088.093-.216.145-.383.154-.099.007-.328-.023-.687-.086-.173-.107-.268-.167-.285-.179-.109-.082-.161-.165-.156-.25-.106-.107-.254-.3-.309-.54-.068-.266-.109-.28-.172-.374-.1.074-.136-.083-.194-.176l.053-.041c-.033-.023-.05-.049-.052-.08,0-.021.008-.052.026-.093.019-.041.027-.072.026-.093-.001-.033-.022-.062-.059-.085.04-.208.077-.522.11-.94.071-.038.105-.112.101-.221-.004-.108.011-.181.046-.217.169-.338.443-.566.823-.686.022.004.123.001.306-.004.125-.004.22.008.284.034.114-.019.228.008.342.081.099.074.197.149.296.222.184.201.283.426.298.678.005.084,0,.172-.016.265-.136-.004-.233.085-.29.27l-.53.049c-.057-.08-.09-.188-.098-.323-.003-.045-.002-.113,0-.201.003-.089.003-.156,0-.202-.009-.138-.041-.248-.098-.328l-.159.091c-.064-.026-.098-.064-.101-.114-.001-.017.002-.041.008-.073.006-.032.009-.055.008-.067-.004-.054-.052-.088-.147-.099-.065.597-.084,1.211-.058,1.84.017.02.067.034.151.042.068.009.104.03.105.063,0,.013-.003.03-.013.051l-.052.041c.029.045.046.107.05.187.002.042,0,.107-.005.193-.005.087-.007.151-.004.193.008.126.038.221.095.285-.006.093.032.156.112.189.051-.02.098-.031.139-.034.162-.009.274.078.337.265,0,.004,0,.035-.002.095.002.034.019.055.051.066.071-.042.106-.118.104-.227-.001-.126.015-.207.049-.243-.009-.058-.044-.142-.105-.252-.061-.11-.093-.196-.097-.259-.003-.067.016-.131.059-.193-.037-.011-.054-.035-.051-.073.002-.059.003-.091.003-.095.288-.071.581-.073.878-.006Z"></path>
          <path class="cls-29" d="m54.08,212.718h-.007c-.031.06-.04.148-.029.26.015.16.022.241.022.246-.024.01-.057-.002-.098-.035-.061.023-.091.062-.088.117,0,.008.004.021.01.041.001.023.002.038.003.046.003.043-.01.075-.037.096-.07-.039-.163-.063-.278-.074-.115-.012-.224-.021-.327-.031,0-.532-.073-1.053-.214-1.561,0,.003-.003-.049-.01-.158.001-.078-.017-.133-.053-.167l-.049.044c0-.008.015-.023.048-.046.033-.023.048-.048.047-.07-.001-.012-.004-.023-.01-.035l-.053-.038c-.091.029-.132.102-.126.219.004.078-.026.133-.093.164.025.018.039.04.04.068.001.016-.001.037-.007.064-.005.028-.007.049-.007.066.002.034.021.063.056.085.002.024.013.234.037.632.015.253.008.469-.02.646l.006.099c-.034-.001-.073-.001-.117.001-.049.003-.119.01-.21.021-.093.011-.16.018-.204.02-.179.01-.305-.02-.377-.09l-.075-2.185c-.036-.107-.059-.257-.07-.448l-.024-.421c-.017-.207-.044-.366-.079-.477.015-.076.081-.117.197-.123.073-.004.17.005.293.03.057-.027.136-.043.238-.05.029-.001.075-.002.138-.001.068-.004.117-.007.146-.009.189-.012.315-.069.377-.175.087,0,.182.027.285.084.102.056.193.087.272.089.205.121.317.322.334.603.003.063-.021.31-.074.744l-.354.308c.06.11.132.351.217.721.071.309.179.535.324.68Zm-.654-2.486l.007.005c.007.027.003-.069-.009-.287-.006-.105-.045-.181-.115-.228-.04.057.005.084-.013.217-.019.132-.097.095-.143.153-.122-.001-.149.072-.176-.044-.054-.189-.102-.172-.102-.175l-.051.031c-.019.017-.039.036-.063.057-.023.021-.047.028-.071.021.002.024-.01.061-.033.111-.024.051-.036.085-.034.105.003.035.03.061.085.078-.011.078-.013.161-.008.247.003.047.014.154.033.321.022.132.031.245.026.338.045.002.086.002.125,0,.169-.009.28-.077.331-.201.017-.037.037-.167.058-.391.019-.169.071-.288.154-.355Z"></path>
          <path class="cls-29" d="m56.833,213.566c-.069-.019-.143-.027-.22-.023-.067.004-.159.021-.274.051-.129.031-.219.049-.267.057-.059-.079-.104-.189-.136-.333-.055-.208-.089-.325-.1-.352.013-.024.019-.044.018-.059-.003-.043-.047-.078-.134-.107-.087-.028-.131-.052-.131-.072-.001-.023.044-.061.139-.114-.026-.022-.047-.068-.063-.14-.017-.071-.042-.117-.077-.139-.056.046-.15.08-.282.102-.132.021-.22.044-.262.071.028.303,0,.837-.12.949-.069-.008-.118.016-.149.073-.045.069-.084.111-.116.125l.046.038c-.037.03-.1.045-.187.046-.136.004-.209.006-.218.007l-.05-.103.204-3.513c-.011-.199-.009-.334.006-.405-.021-.175.022-.287.126-.337.07.031.156.044.258.038.082-.006.21-.028.382-.069.172-.041.293-.064.361-.069.238-.013.352.117.343.391-.007.22.059.504.196.852.143.374.22.658.231.849.003.059.081.182.08.241-.1.053-.229.09-.388.111-.14.016-.282.032-.427.048-.061-.294-.199-.651-.258-.941-.074-.349-.154-.633-.24-.856l-.092,1.685c-.006.145.08.212.259.201.058-.003.114-.019.165-.044.043-.014.105.008.186.065.007.122.043.192.107.211.075-.048.174-.094.298-.14.109-.041.217-.081.322-.118.067.063.113.16.141.292.035.185.058.294.07.324.014.074.064.231.151.473.065.192.101.348.108.469.003.058.001.113-.005.165Z"></path>
          <path class="cls-29" d="m58.84,209.581h.008c-.059.085-.132.101-.224.048-.019-.003-.107.002-.262.015-.13.008-.225.001-.285-.019-.015.001-.043.015-.085.043-.042.028-.073.043-.092.044-.029.002-.046-.023-.048-.073,0-.008-.002-.041-.005-.099-.003-.04-.022-.066-.056-.08l-.091.07c-.028.021-.041.044-.04.067.001.019.017.047.049.082.031.036.049.061.055.077.001.012.011.188.031.527.008.215.047.386.118.516.018-.021.061-.032.133-.034.07-.002.117-.018.139-.046.046.04.123.042.23.007.107-.035.185-.023.232.037l-.014.517c-.044-.005-.108-.026-.193-.065-.025.076-.073.124-.145.144-.029.01-.111.018-.247.026.004-.024-.017-.048-.063-.073-.132.062-.182.212-.149.448.003-.023.008.017.014.123.004.066-.01.114-.043.143-.082.012-.187-.006-.313-.055-.127-.05-.217-.073-.27-.07-.024.002-.046.005-.065.009l-.136.044-.218-2.365-.026-.45c.181-.061.405-.1.671-.116.209-.011.481-.01.818.006.021-.045.062.013.109.01.025-.001.062.001.11.009.049.006.086.01.11.008.029-.002.056-.007.079-.017l.034-.037c.099.029.151.081.155.155.001.031-.007.085-.028.161-.02.075-.028.132-.026.171.003.035.012.066.027.092Zm-.849,3.945c-.053.027-.132.043-.239.05-.141.008-.225.014-.254.02-.015-.015-.034-.003-.065-.126-.019-.081-.07-.12-.152-.114-.02.001-.044.005-.072.01l-.131.008-.07-1.197c.071-.035.16-.056.267-.063.102-.005.192.005.272.031-.002.043.059.062.185.054l.138-.008c.083.336.133.943.123,1.335Z"></path>
          <path class="cls-29" d="m61.748,209.684l.007.005c-.069-.004-.288.011-.457.032-.145.017-.253.019-.328.008-.07.047-.096.111-.076.192l.045.027c-.037.033-.05.059-.039.079l.039.038c-.009.693-.011,1.077-.006,1.151.01.183.032.344.064.483-.028.088-.04.188-.033.301.005.074.022.192.053.352.031.161.073.688.078.77.004.063.002.122-.005.177-.067.028-.139.043-.216.048-.131.008-.271-.019-.42-.081-.019.017-.04.035-.063.053-.023.02-.03.04-.019.063-.047.015-.115-.005-.2-.058-.046-.703-.171-2.133-.357-3.578-.065.059-.185.01-.311.025-.15.017-.296-.006-.353.02-.072-.078-.057-.101-.064-.229-.007-.124-.047-.433-.015-.561.006-.027.278-.012.438-.025.217-.013.266.039.281.037.018-.028.124-.013.202-.018.049.025.103-.023.106.013.002.023,0,.171-.017.213-.017.042-.025.073-.024.092.003.047.036-.022.116.005.087-.001.177-.004.269-.01.103.009.221-.028.212.059.017-.025.029.019.176-.041.109-.05.176-.178.154-.266-.012-.048.054-.079.013-.056.052-.029.005-.009.061-.032.182.016.282-.002.316-.005.073-.005.253.043.305.017.038.068.057.282.059.399.006.188.009.287.011.3Z"></path>
          <path class="cls-29" d="m64.103,212.125v-.006c-.027.052-.04.112-.041.178-.003.043,0,.104.01.182.01.089.016.152.018.187-.039.002-.194.011-.466.027-.165.01-.311.032-.44.067l-.144-.11c-.037.034-.05.06-.04.079-.024-.003-.136.003-.334.019-.155.009-.272.004-.352-.015-.073.07-.166.076-.276.016-.04-.021-.047-.06-.021-.118.025-.059.014-.1-.037-.125-.002-.124.003-.319.018-.582.016-.236.019-.42.011-.553-.01-.179-.04-.35-.088-.511.051-.046.11-.071.178-.075.077-.005.172.019.283.072.154.073.234.11.239.11l.046.038c.004-.011.025-.076.062-.192.02-.075.053-.126.101-.152l.045.032c.019-.008.08-.049.183-.122.079-.051.134-.241.182-.243.053-.004.106.017.157.061.084.031.151.243.182.314.031.071.061.141.089.209-.218.021-.397.029-.538.025-.032.046-.08.055-.145.029-.064-.026-.11-.018-.138.023.005.07.012.196.022.38.005.164.012.292.023.386.013.144.036.276.067.395.039-.002.223-.013.553-.032.227-.013.425-.011.592.006Zm-.225-2.753c-.043.007-.092.012-.145.016-.111.006-.26.002-.445-.01-.229-.01-.368-.016-.417-.017-.062.086-.071.156-.062.304.018.32.029.458.031.415.07.028.107.084.113.17.002.117.005.177.01.181-.033.013-.048.054-.044.12-.054-.012-.112-.04-.172-.084-.082-.054-.107.138-.105.087l-.036.12-.046-.033c-.039.006-.105-.005-.202-.035-.097-.029-.165-.059-.206-.088-.003-.062.006-.098.03-.107l-.099-.077-.04.055c-.086-.402-.144-1.111-.111-1.543.185.013.402-.019.625-.029.15-.005.362-.017.633-.037.309-.022.532-.037.668-.045.061.04.094.094.097.164.003.044-.006.113-.028.211-.021.097-.049.217-.046.263Z"></path>
          <path class="cls-29" d="m66.521,211.709h-.007c-.031.062-.04.148-.029.261.014.16.021.242.021.246-.024.009-.056-.002-.097-.035-.062.023-.091.062-.088.116,0,.008.004.022.01.041.001.023.002.039.002.046.003.043-.01.075-.038.096-.07-.039-.163-.064-.278-.074-.115-.011-.223-.022-.326-.032-.002-.532-.074-1.052-.215-1.561,0,.004-.003-.049-.009-.158,0-.078-.017-.134-.053-.167l-.048.044c0-.008.015-.023.048-.046.032-.024.049-.047.047-.07,0-.011-.004-.024-.009-.035l-.053-.038c-.091.029-.133.102-.126.219.005.078-.027.133-.092.163.025.018.039.042.041.068,0,.015-.002.037-.007.065-.006.028-.008.05-.007.065.002.035.02.064.056.085,0,.023.013.234.036.632.015.254.008.47-.021.647l.006.099c-.034-.002-.073-.002-.117,0-.048.003-.118.01-.21.021-.092.011-.159.018-.203.021-.179.01-.305-.02-.377-.091l-.076-2.185c-.036-.107-.058-.257-.07-.447l-.024-.422c-.017-.206-.043-.366-.079-.477.015-.075.081-.116.197-.123.073-.004.171.006.294.03.057-.027.135-.043.237-.049.03-.001.075-.002.139-.002.068-.004.116-.007.145-.009.189-.01.314-.069.376-.174.087-.001.183.026.285.083.103.056.193.087.272.09.206.122.317.323.333.604.004.062-.02.311-.073.744l-.354.308c.06.11.132.35.217.721.071.309.179.535.324.679Zm-.655-2.486l.008.006c.007.026.004-.069-.009-.288-.006-.105-.045-.181-.115-.228-.04.057-.048-.076-.067.056-.019.133-.051.227-.097.285-.122,0-.149-.073-.222-.175-.045-.064-.068-.008-.068-.012l-.033.027c-.018.017-.039.036-.063.057-.023.021-.047.028-.071.022.001.023-.01.06-.034.11-.023.05-.035.085-.034.104.002.035.03.061.084.078-.01.079-.012.161-.007.247.003.047.013.153.033.321.022.132.032.244.028.338.044.002.084.001.124,0,.169-.01.279-.077.331-.201.017-.037.037-.167.057-.391.02-.17.071-.287.154-.355Z"></path>
        </g>
        <g>
          <path class="cls-29" d="m42.417,201.631v.005c-.021.203-.029.343-.021.421-.031.012-.072.013-.121.005-.065-.011-.102-.016-.113-.015-.028,0-.05.011-.067.03-.041-.027-.068-.038-.082-.033-.039.023-.056.056-.054.098.002.018.008.049.021.091.012.044.019.077.02.097.002.028-.004.073-.016.134-.013.061-.019.111-.017.15.003.046.012.118.03.216.017.098.027.172.03.222-.02.097-.028.195-.022.293.005.12.038.281.098.483.011.003.022.004.033.003.024-.001.054-.019.088-.052.033-.034.062-.051.087-.052.018,0,.037.003.059.013.064.205.097.338.1.398.002.028,0,.058-.001.09-.094.023-.162-.009-.201-.096.006-.025-.008-.051-.041-.078l-.106.111c.104.017.144.096.123.238-.009.029-.031.044-.066.046-.06,0-.089,0-.085,0l-.087-.154-.035.044c-.029-.073-.062-.108-.101-.106-.021.001-.059.019-.112.053-.053.034-.097.053-.132.054-.029.002-.057-.005-.087-.022-.002-.042-.007-.086-.015-.132-.008-.046-.031-.074-.071-.087-.002-.11.001-.398.009-.866.003-.354,0-.64-.012-.859-.004-.092-.011-.182-.019-.27-.019-.027-.037-.04-.055-.04-.014.001-.035.016-.064.046-.028.03-.054.043-.075.041-.001-.035-.017-.092-.048-.17-.031-.078-.047-.135-.049-.17-.003-.06.019-.113.067-.157l.124.031c.049-.07.07-.188.062-.354-.001-.031-.006-.082-.013-.151-.007-.068-.012-.119-.013-.15-.014-.272.069-.412.249-.421.067-.004.149.008.246.035l.119.031c.01.046.015.092.018.142.003.068,0,.166-.009.296-.009.129-.013.224-.01.283.005.096.021.182.05.258.029,0,.073-.016.134-.046.06-.03.105-.045.133-.047.05-.002.09.021.12.068Zm-.369.38l-.006-.121-.038-.035.045.157Z"></path>
          <path class="cls-29" d="m43.873,201.249h.005c-.012.096-.027.192-.043.289-.019.111-.05.197-.093.259-.007-.003-.051-.023-.13-.062-.055-.03-.103-.041-.146-.036-.032.207-.049.49-.052.847-.002.457-.006.733-.012.829-.053-.004-.093.013-.119.052-.027.039-.051.078-.074.117-.01.022-.014.042-.013.059,0,.028.026.055.073.081.048.026.072.056.073.087-.02.075-.065.115-.132.118-.031.001-.087-.008-.166-.028-.079-.021-.134-.03-.166-.029l-.076-1.514c.03-.041.042-.068.039-.082l-.044-.03c.003-.063.008-.381.01-.951.002-.386.016-.698.043-.936-.004,0,.106-.008.328-.022.138-.007.227.031.266.114.001.077-.007.209-.022.394-.016.17-.022.302-.018.394.006.113.024.215.053.305.12-.162.259-.247.417-.255Zm.526.324c.011.141.019.278.026.413.03.586.02,1.213-.027,1.881-.051.045-.129.055-.235.03-.106-.024-.182-.015-.229.03-.061-.077-.096-.219-.106-.424-.015-.296-.023-.45-.023-.46-.013-.743.06-1.343.217-1.801.182.048.308.158.378.332Z"></path>
          <path class="cls-29" d="m46.257,202.343c-.023.047-.033.098-.03.15.003.053.005.104.008.155-.005.041-.017.084-.036.128-.033-.009-.06-.013-.08-.012-.025.001-.051.01-.076.028-.026.017-.046.026-.06.026-.021.001-.05-.007-.086-.022l-.246-.36c.009.106.033.198.073.278.02.041.039.083.06.124-.144.025-.226.029-.244.012l-.034.044-.085-.113c-.067.082-.083.201-.046.359.044.171.046.294.008.371.054.079.118.116.191.113.032-.002.059-.014.083-.036.034-.087.069-.174.104-.261.051-.105.109-.159.172-.163.05-.002.108.023.174.076.079.028.12.066.122.11.002.029-.017.075-.054.138-.037.064-.055.114-.053.149,0,.014.003.026.006.037-.051.038-.097.095-.137.172-.041.076-.094.128-.16.156-.057.056-.11.085-.159.088-.039.002-.097-.028-.175-.09-.077-.061-.149-.091-.217-.087-.028-.062-.097-.131-.207-.207-.11-.076-.178-.157-.203-.245,0,.007-.001-.021-.004-.085-.003-.035-.017-.057-.046-.066l.04-.04c-.053,0-.081-.031-.084-.092-.001-.006-.001-.021-.002-.042.002-.018.003-.032.003-.042-.002-.043-.016-.072-.041-.089l-.01-.185c-.004-.096-.024-.164-.058-.204.035-.225.07-.449.104-.674.058-.262.143-.395.256-.401.018,0,.035.003.053.008.101-.101.224-.155.369-.162.159-.008.335.04.527.144.151.247.244.516.28.808Zm-.73-.585l-.035.045c-.025.005-.054-.008-.087-.038l.006.122c-.054.059-.075.151-.066.274.011.212.015.314.015.308l.159-.003c.076-.042.111-.113.106-.212-.002-.05-.019-.131-.052-.244-.032-.113-.047-.197-.046-.25Z"></path>
        </g>
        <g>
          <polygon class="cls-30" points="47.501 207.686 47.658 207.777 48.193 206.372 48.015 206.313 47.48 207.717 47.636 207.817 47.501 207.686 47.501 207.686 47.501 207.686"></polygon>
          <polygon class="cls-30" points="47.735 207.491 47.67 207.517 47.501 207.686 47.636 207.817 47.808 207.638 47.741 207.673 47.735 207.491 47.735 207.491 47.735 207.491"></polygon>
          <polygon class="cls-30" points="49.03 207.48 49.106 207.421 47.735 207.491 47.741 207.673 49.112 207.602 49.199 207.538 49.03 207.48 49.03 207.48 49.03 207.48 49.03 207.48"></polygon>
          <polygon class="cls-30" points="49.649 206.189 49.556 206.073 49.03 207.48 49.199 207.538 49.734 206.132 49.641 206.017 49.649 206.189 49.649 206.189 49.649 206.189 49.649 206.189"></polygon>
          <polygon class="cls-30" points="48.343 206.234 48.275 206.267 49.649 206.189 49.641 206.017 48.272 206.078 48.204 206.112 48.343 206.234 48.343 206.234 48.343 206.234 48.343 206.234"></polygon>
          <polygon class="cls-30" points="48.193 206.372 48.174 206.403 48.343 206.234 48.204 206.112 48.035 206.282 48.015 206.313 48.193 206.372 48.193 206.372 48.193 206.372 48.193 206.372"></polygon>
          <polygon class="cls-30" points="49.332 207.648 49.453 207.594 49.16 207.43 49.066 207.597 49.369 207.764 49.501 207.704 49.324 207.645 49.324 207.645 49.332 207.648 49.332 207.648"></polygon>
          <polygon class="cls-30" points="49.906 206.35 49.858 206.24 49.324 207.645 49.501 207.704 50.036 206.299 49.988 206.189 49.906 206.35 49.906 206.35 49.906 206.35"></polygon>
          <polygon class="cls-30" points="49.734 206.132 49.601 206.192 49.906 206.35 49.988 206.189 49.694 206.025 49.556 206.073 49.734 206.132 49.734 206.132 49.734 206.132"></polygon>
          <polygon class="cls-29" points="48.108 206.344 48.1 206.341 48.269 206.171 49.542 206.109 49.556 206.073 49.649 206.104 49.734 206.132 49.728 206.147 49.952 206.271 50.036 206.299 50.002 206.391 50.624 207.871 50.098 209.279 49.417 207.676 49.417 207.676 49.329 207.712 49.324 207.645 49.33 207.628 49.116 207.509 49.066 207.597 49.04 207.512 47.735 207.577 47.565 207.746 48.108 206.344"></polygon>
          <polygon class="cls-30" points="50.013 209.25 50.185 209.242 49.505 207.639 49.329 207.712 50.01 209.316 50.182 209.307 50.005 209.248 50.005 209.248 50.013 209.25 50.013 209.25"></polygon>
          <polygon class="cls-30" points="50.545 207.912 50.539 207.843 50.005 209.248 50.182 209.307 50.717 207.903 50.712 207.835 50.545 207.912 50.545 207.912 50.545 207.912"></polygon>
          <polygon class="cls-30" points="50.036 206.299 49.863 206.308 50.545 207.912 50.712 207.835 50.03 206.232 49.858 206.24 50.036 206.299 50.036 206.299 50.036 206.299"></polygon>
          <polygon class="cls-35" points="49.991 206.661 50.067 206.828 50.096 206.998 50.087 207.165 50.038 207.337 49.954 207.506 49.838 207.656 49.688 207.795 49.507 207.914 49.408 207.956 49.309 207.998 49.199 208.018 49.098 208.04 48.998 208.054 48.891 208.066 48.792 208.051 48.69 208.045 48.602 208.026 48.509 207.995 48.419 207.956 48.34 207.91 48.272 207.859 48.196 207.805 48.133 207.738 48.082 207.664 48.006 207.497 47.978 207.328 47.978 207.158 48.035 206.989 48.108 206.824 48.227 206.666 48.377 206.528 48.566 206.412 48.657 206.367 48.764 206.327 48.866 206.304 48.968 206.282 49.075 206.27 49.174 206.257 49.273 206.27 49.375 206.277 49.468 206.307 49.562 206.338 49.646 206.367 49.734 206.415 49.804 206.458 49.878 206.52 49.929 206.593 49.991 206.661 49.991 206.661 49.991 206.661 49.991 206.661"></polygon>
          <polygon class="cls-30" points="50.058 206.938 50.135 207.105 50.16 207.284 50.152 207.45 50.106 207.614 50.03 207.786 49.903 207.942 49.764 208.075 49.575 208.191 49.473 208.241 49.374 208.284 49.273 208.306 49.162 208.326 49.064 208.34 48.968 208.346 48.866 208.34 48.758 208.323 48.671 208.304 48.577 208.272 48.495 208.235 48.407 208.188 48.337 208.145 48.271 208.085 48.207 208.026 48.151 207.941 48.071 207.782 48.043 207.613 48.054 207.438 48.099 207.274 48.176 207.102 48.292 206.952 48.442 206.813 48.631 206.697 48.733 206.647 48.83 206.612 48.934 206.581 49.044 206.562 49.14 206.556 49.239 206.542 49.338 206.556 49.44 206.562 49.536 206.584 49.63 206.615 49.711 206.653 49.802 206.691 49.869 206.743 49.946 206.797 49.997 206.87 50.056 206.947 50.056 206.947 50.058 206.938 50.058 206.938"></polygon>
          <polygon class="cls-35" points="50.106 207.133 50.186 207.292 50.211 207.47 50.203 207.637 50.157 207.8 50.072 207.97 49.954 208.128 49.815 208.26 49.626 208.378 49.532 208.431 49.425 208.47 49.323 208.493 49.213 208.513 49.114 208.527 49.018 208.532 48.916 208.527 48.809 208.51 48.721 208.49 48.628 208.459 48.546 208.422 48.458 208.374 48.388 208.331 48.314 208.269 48.261 208.204 48.201 208.128 48.122 207.969 48.093 207.8 48.102 207.633 48.151 207.461 48.227 207.288 48.345 207.13 48.501 207.003 48.682 206.884 48.784 206.833 48.883 206.791 48.985 206.768 49.095 206.748 49.194 206.734 49.289 206.728 49.4 206.737 49.491 206.748 49.587 206.771 49.68 206.802 49.77 206.842 49.85 206.887 49.92 206.93 49.997 206.983 50.047 207.057 50.106 207.133 50.106 207.133 50.106 207.133"></polygon>
          <polygon class="cls-30" points="50.175 207.41 50.251 207.577 50.279 207.747 50.279 207.917 50.222 208.086 50.149 208.25 50.021 208.405 49.881 208.548 49.691 208.662 49.6 208.708 49.493 208.747 49.391 208.77 49.289 208.793 49.182 208.804 49.083 208.818 48.984 208.804 48.882 208.798 48.786 208.776 48.693 208.744 48.611 208.707 48.524 208.659 48.455 208.608 48.388 208.558 48.326 208.49 48.266 208.413 48.198 208.249 48.162 208.077 48.17 207.91 48.218 207.738 48.3 207.577 48.419 207.418 48.569 207.279 48.75 207.161 48.848 207.119 48.948 207.077 49.058 207.057 49.16 207.034 49.259 207.02 49.364 207.017 49.465 207.023 49.559 207.026 49.654 207.049 49.747 207.079 49.838 207.119 49.917 207.164 49.993 207.218 50.061 207.268 50.124 207.337 50.172 207.419 50.172 207.419 50.175 207.41 50.175 207.41"></polygon>
          <polygon class="cls-35" points="50.274 207.594 50.352 207.753 50.381 207.922 50.378 208.1 50.332 208.264 50.248 208.434 50.12 208.589 49.982 208.722 49.801 208.841 49.699 208.892 49.592 208.931 49.49 208.954 49.388 208.976 49.281 208.988 49.185 208.993 49.083 208.988 48.984 208.974 48.888 208.951 48.794 208.92 48.712 208.883 48.63 208.846 48.554 208.792 48.49 208.733 48.427 208.665 48.376 208.592 48.297 208.433 48.263 208.252 48.271 208.085 48.326 207.924 48.402 207.752 48.521 207.593 48.668 207.463 48.848 207.345 48.951 207.294 49.05 207.252 49.157 207.24 49.261 207.209 49.361 207.195 49.465 207.192 49.567 207.198 49.658 207.21 49.753 207.232 49.855 207.266 49.937 207.303 50.019 207.34 50.096 207.394 50.16 207.453 50.223 207.52 50.274 207.594 50.274 207.594 50.274 207.594"></polygon>
          <polygon class="cls-30" points="50.35 207.874 50.417 208.038 50.455 208.211 50.446 208.378 50.398 208.55 50.315 208.711 50.197 208.869 50.047 209.008 49.866 209.127 49.767 209.169 49.659 209.208 49.558 209.231 49.456 209.254 49.357 209.268 49.25 209.279 49.151 209.265 49.049 209.259 48.961 209.239 48.859 209.205 48.777 209.168 48.699 209.123 48.622 209.07 48.554 209.018 48.492 208.95 48.441 208.877 48.365 208.71 48.328 208.538 48.337 208.371 48.394 208.201 48.468 208.038 48.586 207.879 48.736 207.741 48.925 207.625 49.015 207.58 49.123 207.54 49.225 207.517 49.326 207.495 49.434 207.484 49.533 207.47 49.632 207.484 49.724 207.487 49.83 207.512 49.923 207.543 50.005 207.58 50.084 207.625 50.16 207.679 50.228 207.73 50.29 207.798 50.35 207.874 50.35 207.874 50.35 207.874 50.35 207.874"></polygon>
          <polygon class="cls-30" points="41.004 205.717 41.013 205.663 40.475 207.076 40.644 207.133 41.182 205.719 41.185 205.683 41.004 205.717 41.004 205.717 41.004 205.717 41.004 205.717"></polygon>
          <polygon class="cls-30" points="40.99 205.646 40.992 205.637 41.004 205.717 41.185 205.683 41.165 205.601 41.168 205.592 40.99 205.646 40.99 205.646 40.99 205.646 40.99 205.646"></polygon>
          <polygon class="cls-30" points="40.97 205.564 40.99 205.646 41.168 205.592 41.148 205.51 40.97 205.564 40.97 205.564 40.97 205.564 40.97 205.564"></polygon>
          <polygon class="cls-30" points="40.947 205.49 40.97 205.564 41.148 205.51 41.126 205.436 40.947 205.49 40.947 205.49 40.947 205.49"></polygon>
          <polygon class="cls-30" points="40.928 205.408 40.928 205.408 40.947 205.49 41.126 205.436 41.106 205.354 41.103 205.363 40.928 205.408 40.928 205.408 40.928 205.408 40.928 205.408"></polygon>
          <polygon class="cls-30" points="40.905 205.306 40.905 205.334 40.928 205.408 41.103 205.363 41.081 205.289 41.089 205.32 40.905 205.306 40.905 205.306 40.905 205.306"></polygon>
          <polygon class="cls-30" points="41.087 205.272 40.908 205.241 40.905 205.306 41.089 205.32 41.092 205.255 40.914 205.224 41.083 205.281 41.083 205.281 41.087 205.272 41.087 205.272"></polygon>
          <polygon class="cls-38" points="41.24 209.386 41.224 209.296 41.034 209.327 41.048 209.426 41.24 209.386 41.24 209.386 41.24 209.386 41.24 209.386"></polygon>
          <polygon class="cls-30" points="41.634 208.208 41.64 208.162 41.105 209.567 41.274 209.623 41.809 208.219 41.806 208.171 41.634 208.208 41.634 208.208 41.634 208.208 41.634 208.208"></polygon>
          <polygon class="cls-30" points="41.62 208.109 41.634 208.208 41.806 208.171 41.792 208.072 41.611 208.106 41.611 208.106 41.62 208.109 41.62 208.109"></polygon>
          <polygon class="cls-30" points="41.594 208.015 41.611 208.106 41.792 208.072 41.767 207.978 41.594 208.015 41.594 208.015 41.594 208.015 41.594 208.015"></polygon>
          <polygon class="cls-30" points="41.572 207.914 41.577 207.925 41.594 208.015 41.767 207.978 41.752 207.879 41.758 207.891 41.572 207.914 41.572 207.914 41.572 207.914 41.572 207.914"></polygon>
          <polygon class="cls-30" points="41.741 207.829 41.561 207.806 41.572 207.914 41.758 207.891 41.744 207.792 41.563 207.769 41.741 207.829 41.741 207.829 41.741 207.829"></polygon>
          <g>
            <polygon class="cls-37" points="40.476 206.796 40.39 206.822 40.476 206.796 40.476 206.796"></polygon>
            <polygon class="cls-37" points="40.566 207.091 40.568 207.082 40.612 207.085 40.644 207.133 40.566 207.106 40.566 207.091"></polygon>
            <polygon class="cls-29" points="40.371 206.739 40.461 206.722 40.464 206.657 41.001 205.244 40.999 205.253 40.999 205.309 41.013 205.38 41.041 205.465 41.064 205.538 41.083 205.62 41.098 205.69 41.098 205.69 41.182 205.719 40.644 207.133 40.612 207.085 40.568 207.082 40.566 207.091 40.566 207.106 40.644 207.133 40.566 207.128 40.568 207.192 40.514 207.124 40.469 207.121 40.458 207.043 40.491 207.035 40.525 206.944 40.436 206.968 40.41 206.903 40.39 206.822 40.476 206.796 40.476 206.796 40.39 206.822 40.393 206.813 40.371 206.739"></polygon>
          </g>
          <g>
            <polygon class="cls-1" points="44.747 207.126 44.747 207.126 44.823 206.953 44.747 207.126"></polygon>
            <polygon class="cls-29" points="40.563 207.011 44.498 206.882 44.599 206.888 44.617 206.894 44.713 206.917 44.721 206.919 44.823 206.953 44.922 206.996 44.931 206.998 45.024 207.058 45.041 207.064 45.115 207.126 45.137 207.142 45.191 207.207 45.196 207.219 45.233 207.278 45.236 207.298 45.062 207.351 45.035 207.307 45.032 207.315 44.986 207.253 44.987 207.253 44.928 207.205 44.941 207.219 44.845 207.169 44.846 207.168 44.747 207.126 44.747 207.126 44.662 207.098 44.566 207.074 44.583 207.081 44.492 207.069 44.492 207.061 40.568 207.192 40.563 207.011"></polygon>
            <polygon class="cls-29" points="45.057 207.352 45.062 207.351 45.072 207.366 45.057 207.352"></polygon>
          </g>
          <polygon class="cls-30" points="47.16 210.655 47.16 210.599 46.623 212.012 46.801 212.071 47.339 210.658 47.338 210.602 47.16 210.655 47.16 210.655 47.16 210.655 47.16 210.655"></polygon>
          <polygon class="cls-30" points="45.607 205.961 45.595 205.939 47.16 210.655 47.338 210.602 45.773 205.885 45.77 205.865 45.607 205.961 45.607 205.961 45.607 205.961 45.607 205.961"></polygon>
          <polygon class="cls-30" points="45.575 205.913 45.569 205.902 45.607 205.961 45.77 205.865 45.733 205.806 45.725 205.803 45.567 205.91 45.567 205.91 45.575 205.913 45.575 205.913"></polygon>
          <polygon class="cls-30" points="45.538 205.853 45.524 205.84 45.567 205.91 45.725 205.803 45.666 205.726 45.652 205.712 45.538 205.853 45.538 205.853 45.538 205.853 45.538 205.853"></polygon>
          <polygon class="cls-30" points="45.477 205.814 45.462 205.801 45.538 205.853 45.652 205.712 45.575 205.659 45.561 205.644 45.477 205.814 45.477 205.814 45.477 205.814"></polygon>
          <polygon class="cls-30" points="45.392 205.758 45.383 205.755 45.477 205.814 45.561 205.644 45.465 205.593 45.457 205.59 45.392 205.758 45.392 205.758 45.392 205.758"></polygon>
          <polygon class="cls-30" points="45.301 205.718 45.281 205.721 45.392 205.758 45.457 205.59 45.357 205.549 45.349 205.546 45.29 205.724 45.29 205.724 45.301 205.718 45.301 205.718"></polygon>
          <polygon class="cls-30" points="45.199 205.684 45.188 205.69 45.29 205.724 45.349 205.546 45.248 205.512 45.248 205.512 45.197 205.692 45.197 205.692 45.199 205.684 45.199 205.684"></polygon>
          <polygon class="cls-30" points="45.12 205.667 45.103 205.662 45.197 205.692 45.248 205.512 45.143 205.486 45.134 205.483 45.12 205.667 45.12 205.667 45.12 205.667 45.12 205.667"></polygon>
          <polygon class="cls-30" points="45.029 205.656 45.027 205.664 45.12 205.667 45.134 205.483 45.035 205.469 45.024 205.475 45.029 205.656 45.029 205.656 45.029 205.656"></polygon>
          <polygon class="cls-30" points="41.191 205.722 41.094 205.784 45.029 205.656 45.024 205.475 41.098 205.606 41.013 205.663 41.182 205.719 41.182 205.719 41.191 205.722 41.191 205.722"></polygon>
          <polygon class="cls-37" points="42.179 210.019 42.166 210.013 42.174 210.008 42.179 210.019"></polygon>
          <g>
            <polygon class="cls-37" points="44.304 210.656 44.288 210.846 44.304 210.656 44.304 210.656"></polygon>
            <g>
              <polygon class="cls-1" points="44.297 210.746 44.288 210.846 44.297 210.746 44.297 210.746"></polygon>
              <g>
                <polygon class="cls-1" points="41.108 209.216 41.113 209.203 41.117 209.221 41.108 209.216"></polygon>
                <path class="cls-29" d="m41.048,209.426l.017.091.034.096.042.072.24.126.24.128.232.124.235.117.008.002.238.108.237.107.257.105.261.096.008.003.277.074.278.073.009.003.305.045.314.049.008.002.342.02.012-.006.364.008.39-.011.412-.023.085-.057.535-1.405-.091-.125.005.181-.028-.035.021-.052-.06.004-.025-.032-.013.035-.307.019h-.396l-.365-.009-.333-.017-.325-.043-.302-.053-.277-.074-.277-.074-.26-.095-.252-.094-.237-.107-.235-.117-.243-.118-.232-.125-.231-.125-.161-.085.005-.014-.085-.028h0l-.023-.102-.017-.091-.007-.031.063-.138-.089-.029-.004-.002h0l-.085-.028-.534,1.405-.006.045.014.1.011.107Zm.065-.223l.003.017-.009-.004.006-.013Z"></path>
              </g>
            </g>
          </g>
          <polygon class="cls-30" points="45.931 209.453 46.343 209.43 46.338 209.249 45.925 209.272 45.931 209.453 45.931 209.453 45.931 209.453 45.931 209.453"></polygon>
          <polygon class="cls-30" points="45.541 209.464 45.931 209.453 45.925 209.272 45.535 209.283 45.541 209.464 45.541 209.464 45.541 209.464 45.541 209.464"></polygon>
          <polygon class="cls-30" points="45.168 209.453 45.176 209.456 45.541 209.464 45.535 209.283 45.171 209.275 45.182 209.269 45.165 209.461 45.165 209.461 45.168 209.453 45.168 209.453"></polygon>
          <polygon class="cls-30" points="44.817 209.43 44.826 209.433 45.165 209.461 45.182 209.269 44.84 209.249 44.848 209.252 44.817 209.43 44.817 209.43 44.817 209.43 44.817 209.43"></polygon>
          <polygon class="cls-30" points="44.5 209.39 44.817 209.43 44.848 209.252 44.534 209.204 44.5 209.39 44.5 209.39 44.5 209.39"></polygon>
          <polygon class="cls-30" points="44.189 209.333 44.198 209.337 44.5 209.39 44.534 209.204 44.221 209.156 44.229 209.158 44.189 209.333 44.189 209.333 44.189 209.333 44.189 209.333"></polygon>
          <polygon class="cls-30" points="43.913 209.26 44.189 209.333 44.229 209.158 43.952 209.085 43.909 209.269 43.909 209.269 43.913 209.26 43.913 209.26"></polygon>
          <polygon class="cls-30" points="43.624 209.192 43.632 209.195 43.909 209.269 43.952 209.085 43.675 209.011 43.684 209.014 43.624 209.192 43.624 209.192 43.624 209.192"></polygon>
          <polygon class="cls-30" points="43.363 209.096 43.363 209.096 43.624 209.192 43.684 209.014 43.423 208.917 43.432 208.92 43.356 209.093 43.356 209.093 43.363 209.096 43.363 209.096"></polygon>
          <polygon class="cls-30" points="43.106 208.99 43.356 209.093 43.432 208.92 43.183 208.818 43.106 208.99 43.106 208.99 43.106 208.99"></polygon>
          <polygon class="cls-30" points="42.869 208.883 43.106 208.99 43.183 208.818 42.943 208.72 42.869 208.883 42.869 208.883 42.869 208.883"></polygon>
          <polygon class="cls-30" points="42.626 208.765 42.632 208.776 42.869 208.883 42.943 208.72 42.7 208.6 42.708 208.604 42.623 208.773 42.623 208.773 42.626 208.765 42.626 208.765"></polygon>
          <polygon class="cls-30" points="42.391 208.648 42.623 208.773 42.708 208.604 42.474 208.487 42.388 208.657 42.388 208.657 42.391 208.648 42.391 208.648"></polygon>
          <polygon class="cls-30" points="42.16 208.524 42.388 208.657 42.474 208.487 42.242 208.363 42.151 208.522 42.151 208.522 42.16 208.524 42.16 208.524"></polygon>
          <polygon class="cls-30" points="41.919 208.397 42.151 208.522 42.242 208.363 42.009 208.238 41.919 208.397 41.919 208.397 41.919 208.397"></polygon>
          <polygon class="cls-30" points="41.809 208.219 41.679 208.269 41.919 208.397 42.009 208.238 41.769 208.111 41.64 208.162 41.809 208.219 41.809 208.219 41.809 208.219 41.809 208.219"></polygon>
          <polygon class="cls-30" points="66.315 205.673 65.777 207.085 67.532 207.672 67.94 206.733 67.951 206.643 67.954 206.549 67.94 206.45 67.906 206.354 67.85 206.269 67.804 206.178 67.731 206.088 67.654 206.006 67.575 205.932 67.488 205.856 67.397 205.788 67.309 205.74 67.225 205.684 67.126 205.641 67.038 205.593 66.953 205.564 66.877 205.54 66.786 205.528 66.704 205.519 66.625 205.531 66.546 205.542 66.462 205.571 66.387 205.621 66.315 205.673 66.315 205.673 66.315 205.673 66.315 205.673"></polygon>
          <polygon class="cls-30" points="67.454 207.626 67.563 207.578 65.808 206.992 65.748 207.17 67.504 207.756 67.623 207.711 67.454 207.626 67.454 207.626 67.454 207.626"></polygon>
          <g>
            <polygon class="cls-1" points="67.792 208.034 67.804 208.13 67.792 208.034 67.792 208.034"></polygon>
            <polygon class="cls-1" points="68.697 207.087 68.762 207.149 68.693 207.099 68.697 207.087"></polygon>
            <g>
              <polygon class="cls-1" points="68.762 207.149 68.693 207.099 68.697 207.087 68.762 207.149"></polygon>
              <g>
                <polygon class="cls-1" points="68.762 207.149 68.693 207.099 68.697 207.087 68.762 207.149"></polygon>
                <polygon class="cls-29" points="40.371 206.655 40.378 206.629 40.914 205.224 41.083 205.281 40.565 206.668 40.554 206.725 40.552 206.706 40.371 206.739 40.368 206.72 40.371 206.655"></polygon>
                <g>
                  <polygon class="cls-1" points="68.762 207.149 68.693 207.099 68.697 207.087 68.762 207.149"></polygon>
                  <polygon class="cls-37" points="48.978 209.98 48.947 209.999 48.944 209.997 48.978 209.98"></polygon>
                  <g>
                    <polygon class="cls-1" points="49.013 210.062 49.08 210.127 49.013 210.062 49.013 210.062"></polygon>
                    <polygon class="cls-1" points="68.762 207.149 68.693 207.099 68.697 207.087 68.762 207.149"></polygon>
                    <polygon class="cls-1" points="46.708 212.04 46.713 212.04 46.713 212.043 46.623 212.012 46.699 212.014 46.708 212.04"></polygon>
                    <path class="cls-29" d="m40.436,206.968l.019.082.003-.008.136-.03-.035.091,3.935-.128.094.003.101.034.102.034.101.034.093.059.077.053.054.065.033.065-.093.028,1.566,4.717h.091s.002.059.002.059h.141l.133-.003.121.003.111-.019.113-.029.113-.056.105-.088.124-.118.004-.008.071-.099.082-.105.093-.11.066-.11.081-.133.085-.113.07-.127.091-.131.073-.107.105-.117.085-.113.099-.099.087-.093.093-.081.09-.073.105-.06.023-.012-.067-.064h0l.067.064.104-.116.097-.091.084-.085.091-.074.088-.065.093-.054.082-.048.091-.045.102-.023.099-.042.101-.023.119-.017.13-.022.144-.009.156-.014.152-.006.009.003,16.982-1.269.099-.014.091-.017.082-.02.084-.028.08-.039.082-.048.068-.063.078-.068.018-.022.296-.692-.155-.099.069.066-.011.009-.075-.053-.074.173-.05.03-.065.025-.076.032-.071.014-.09.017-.09.017-16.99,1.266-.109.011-.104.003-.104.003-.111.02h-.113l-.099.014-.108.012-.099.014-.11.02-.099.014-.101.022-.113.028-.103.023-.107.04-.107.039-.102.051-.201.122-.203.186-.215.221-.207.251-.2.263-.173.235-.17.226-.141.17-.082.02-.071.014-.088.008h-.169l-.073-.005-.094-.003-.082-.008-1.56-4.705-.034-.068-.054-.066-.076-.054-.102-.062-.099-.042-.101-.034-.097-.023-.094-.002-3.932.12-.473,1.244-.003-.017-.186.05Zm28.257.131l.005-.013.065.062-.069-.049Z"></path>
                  </g>
                </g>
              </g>
            </g>
          </g>
          <polygon class="cls-30" points="68.098 207.446 68.2 207.423 68.29 207.406 68.372 207.386 68.457 207.358 68.536 207.318 68.618 207.27 68.683 207.217 68.762 207.149 68.627 207.019 68.567 207.084 68.505 207.129 68.446 207.166 68.381 207.191 68.318 207.208 68.245 207.231 68.166 207.242 68.078 207.251 68.098 207.446 68.098 207.446 68.098 207.446"></polygon>
          <polygon class="cls-30" points="51.118 208.706 68.098 207.446 68.078 207.251 51.096 208.519 51.118 208.706 51.118 208.706 51.118 208.706"></polygon>
          <polygon class="cls-30" points="49.453 209.008 49.552 208.965 49.649 208.931 49.764 208.895 49.861 208.861 49.965 208.83 50.064 208.816 50.163 208.802 50.273 208.782 50.364 208.765 50.468 208.762 50.576 208.751 50.683 208.74 50.79 208.728 50.887 208.722 51.002 208.714 51.118 208.706 51.096 208.519 50.989 208.53 50.881 208.542 50.768 208.542 50.661 208.553 50.556 208.556 50.455 208.579 50.349 208.581 50.233 208.589 50.131 208.613 50.03 208.635 49.92 208.654 49.807 208.683 49.71 208.716 49.595 208.753 49.478 208.79 49.377 208.841 49.453 209.008 49.453 209.008 49.453 209.008 49.453 209.008"></polygon>
          <polygon class="cls-30" points="47.932 210.686 47.969 210.661 48.045 210.574 48.113 210.483 48.195 210.378 48.279 210.265 48.376 210.147 48.464 210.025 48.562 209.897 48.661 209.771 48.764 209.636 48.868 209.519 48.97 209.411 49.074 209.296 49.162 209.202 49.273 209.127 49.363 209.053 49.453 209.008 49.377 208.841 49.261 208.906 49.162 208.976 49.046 209.07 48.936 209.174 48.834 209.282 48.733 209.389 48.619 209.53 48.521 209.657 48.421 209.785 48.322 209.912 48.235 210.033 48.139 210.152 48.054 210.265 47.971 210.369 47.904 210.46 47.842 210.534 47.876 210.517 47.932 210.686 47.932 210.686 47.932 210.686 47.932 210.686"></polygon>
          <polygon class="cls-1" points="66.278 205.754 66.315 205.673 66.382 205.61 66.484 205.559 66.603 205.542 66.667 205.545 66.742 205.55 66.812 205.564 66.883 205.579 66.968 205.607 67.044 205.633 67.126 205.669 67.213 205.718 67.287 205.752 67.363 205.805 67.431 205.856 67.505 205.918 67.581 205.972 67.635 206.038 67.699 206.096 67.753 206.162 67.853 206.289 67.903 206.419 67.929 206.484 67.942 206.526 67.934 206.637 67.914 206.724 67.851 206.798 67.761 206.843 67.64 206.868 67.572 206.874 67.502 206.86 67.42 206.852 67.332 206.832 67.256 206.806 67.171 206.778 67.08 206.739 67.001 206.693 66.919 206.656 66.831 206.608 66.755 206.554 66.682 206.492 66.614 206.441 66.544 206.37 66.481 206.302 66.427 206.238 66.34 206.105 66.289 205.975 66.275 205.932 66.261 205.862 66.278 205.754"></polygon>
          <polygon class="cls-35" points="44.679 205.577 45.029 205.571 45.058 205.571 42.047 204.566 41.895 204.656 44.677 205.585 44.677 205.585 44.679 205.577 44.679 205.577"></polygon>
          <polygon class="cls-35" points="44.679 205.577 41.098 205.69 41.083 205.62 41.064 205.538 41.041 205.465 41.013 205.38 40.999 205.309 40.999 205.253 41.021 205.185 41.083 205.139 41.23 205.038 41.394 204.942 41.558 204.846 41.722 204.75 41.878 204.651 41.895 204.656 44.677 205.585 44.677 205.585 44.679 205.577 44.679 205.577"></polygon>
          <polygon class="cls-34" points="42.502 207.753 44.941 207.615 45.896 208 46.233 208.998 46.336 209.343 45.931 209.368 45.535 209.368 45.17 209.359 44.837 209.342 44.512 209.3 44.209 209.246 43.932 209.172 43.655 209.098 43.395 209.003 43.143 208.909 42.906 208.802 42.671 208.685 42.428 208.567 42.196 208.442 41.965 208.317 41.724 208.191 41.702 208.088 41.685 207.998 41.662 207.897 41.648 207.797 42.502 207.753"></polygon>
          <polygon class="cls-35" points="48.648 208.032 48.682 208.071 48.996 208.26 49.098 208.097 48.783 207.908 48.815 207.956 48.648 208.032 48.659 208.054 48.682 208.071 48.648 208.032 48.648 208.032 48.648 208.032"></polygon>
          <polygon class="cls-35" points="45.857 208.09 45.804 208.025 46.25 209.371 46.429 209.317 45.982 207.971 45.934 207.918 45.982 207.971 45.968 207.93 45.934 207.918 45.857 208.09 45.857 208.09 45.857 208.09 45.857 208.09"></polygon>
          <polygon class="cls-35" points="44.95 207.703 44.905 207.697 45.857 208.09 45.934 207.918 44.981 207.524 44.945 207.522 44.981 207.524 44.964 207.519 44.945 207.522 44.95 207.703 44.95 207.703 44.95 207.703 44.95 207.703"></polygon>
          <polygon class="cls-35" points="41.744 207.792 41.653 207.893 44.95 207.703 44.945 207.522 41.648 207.712 41.561 207.806 41.648 207.712 41.543 207.715 41.561 207.806 41.744 207.792 41.744 207.792 41.744 207.792"></polygon>
          <polygon class="cls-35" points="41.769 208.111 41.806 208.171 41.804 208.123 41.792 208.072 41.789 208.023 41.775 207.982 41.773 207.933 41.761 207.882 41.747 207.84 41.744 207.792 41.561 207.806 41.561 207.862 41.569 207.922 41.583 207.964 41.586 208.012 41.6 208.054 41.611 208.106 41.631 208.16 41.634 208.208 41.679 208.269 41.634 208.208 41.648 208.25 41.679 208.269 41.769 208.111 41.769 208.111 41.769 208.111"></polygon>
          <polygon class="cls-35" points="46.253 209.363 46.329 209.247 45.925 209.272 45.535 209.283 45.182 209.269 44.84 209.249 44.534 209.204 44.229 209.158 43.952 209.085 43.684 209.014 43.423 208.917 43.183 208.818 42.943 208.72 42.708 208.604 42.474 208.487 42.242 208.363 42.009 208.238 41.769 208.111 41.679 208.269 41.919 208.397 42.151 208.522 42.388 208.657 42.623 208.773 42.869 208.883 43.106 208.99 43.363 209.096 43.624 209.192 43.909 209.269 44.189 209.333 44.5 209.39 44.826 209.433 45.165 209.461 45.541 209.464 45.931 209.453 46.351 209.433 46.429 209.317 46.351 209.433 46.468 209.425 46.429 209.317 46.25 209.371 46.25 209.371 46.253 209.363 46.253 209.363"></polygon>
          <g>
            <polygon class="cls-1" points="47.959 210.558 48.028 210.624 47.959 210.558 47.959 210.558"></polygon>
            <polygon class="cls-1" points="47.333 210.534 47.316 210.535 47.316 210.535 47.333 210.534"></polygon>
            <polygon class="cls-1" points="45.798 205.959 48.272 206.785 45.798 205.959 45.798 205.959"></polygon>
          </g>
          <polygon class="cls-35" points="51.096 208.519 50.972 208.525 50.833 208.545 50.708 208.55 50.573 208.561 50.443 208.584 50.304 208.604 50.166 208.624 50.033 208.654 49.9 208.685 49.785 208.722 49.657 208.765 49.538 208.81 49.436 208.861 49.315 208.914 49.216 208.985 49.125 209.059 49.238 209.2 49.326 209.135 49.411 209.078 49.504 209.025 49.611 208.985 49.716 208.925 49.829 208.898 49.962 208.867 50.078 208.83 50.206 208.816 50.318 208.787 50.454 208.776 50.585 208.754 50.723 208.734 50.858 208.722 50.985 208.709 51.118 208.706 51.096 208.519 51.096 208.519 51.096 208.519 51.096 208.519"></polygon>
          <polygon class="cls-35" points="68.078 207.251 51.096 208.519 51.118 208.706 68.098 207.446 68.078 207.251 68.078 207.251 68.078 207.251"></polygon>
          <polygon class="cls-35" points="68.395 206.215 68.465 206.315 68.539 206.406 68.573 206.501 68.627 206.595 68.655 206.68 68.663 206.767 68.667 206.843 68.661 206.917 68.641 206.976 68.612 207.033 68.575 207.087 68.51 207.14 68.443 207.174 68.335 207.213 68.222 207.242 68.078 207.251 68.098 207.446 68.254 207.432 68.389 207.392 68.508 207.347 68.612 207.287 68.709 207.225 68.776 207.135 68.813 207.053 68.847 206.951 68.845 206.846 68.85 206.745 68.827 206.643 68.791 206.527 68.748 206.428 68.692 206.315 68.618 206.196 68.545 206.105 68.395 206.215 68.395 206.215 68.395 206.215"></polygon>
          <polygon class="cls-35" points="66.371 205.248 66.524 205.243 66.679 205.257 66.837 205.291 66.99 205.313 67.134 205.362 67.278 205.41 67.417 205.475 67.547 205.537 67.683 205.61 67.807 205.69 67.94 205.772 68.036 205.851 68.138 205.941 68.236 206.04 68.319 206.134 68.395 206.215 68.545 206.105 68.457 206.001 68.358 205.902 68.259 205.803 68.149 205.709 68.027 205.622 67.906 205.534 67.782 205.455 67.64 205.37 67.494 205.302 67.344 205.243 67.191 205.192 67.03 205.138 66.871 205.104 66.71 205.078 66.526 205.064 66.365 205.067 66.371 205.248 66.371 205.248 66.371 205.248"></polygon>
          <polygon class="cls-35" points="51.345 205.765 66.371 205.248 66.365 205.067 51.348 205.587 51.345 205.765 51.345 205.765 51.345 205.765"></polygon>
          <polygon class="cls-35" points="48.973 205.388 49.114 205.445 49.264 205.476 49.409 205.524 49.559 205.555 49.716 205.59 49.864 205.629 50.025 205.655 50.169 205.674 50.319 205.706 50.475 205.72 50.626 205.742 50.777 205.745 50.921 205.765 51.074 205.76 51.213 205.768 51.345 205.765 51.348 205.587 51.207 205.587 51.068 205.579 50.938 205.573 50.791 205.562 50.644 205.55 50.498 205.539 50.353 205.519 50.2 205.496 50.051 205.466 49.907 205.445 49.759 205.405 49.607 205.383 49.459 205.343 49.304 205.301 49.174 205.268 49.03 205.219 48.971 205.397 48.971 205.397 48.973 205.388 48.973 205.388"></polygon>
          <polygon class="cls-35" points="43.905 203.999 44.163 203.962 44.405 203.939 44.637 203.922 44.849 203.908 45.05 203.899 45.231 203.922 45.418 203.928 45.573 203.942 45.734 203.968 45.884 203.999 46.025 204.028 46.152 204.07 46.288 204.115 46.395 204.16 46.529 204.215 46.633 204.268 46.754 204.327 46.876 204.387 46.995 204.455 47.113 204.523 47.232 204.591 47.357 204.67 47.478 204.73 47.611 204.811 47.758 204.879 47.9 204.964 48.058 205.026 48.21 205.105 48.382 205.182 48.569 205.244 48.767 205.329 48.971 205.397 49.03 205.219 48.826 205.151 48.626 205.074 48.459 205.009 48.284 204.942 48.122 204.859 47.984 204.794 47.843 204.709 47.704 204.645 47.568 204.571 47.441 204.5 47.323 204.432 47.199 204.353 47.08 204.284 46.958 204.226 46.837 204.166 46.726 204.101 46.605 204.042 46.472 203.988 46.347 203.937 46.212 203.892 46.067 203.843 45.918 203.813 45.765 203.79 45.598 203.753 45.426 203.733 45.248 203.731 45.041 203.727 44.844 203.727 44.615 203.736 44.382 203.753 44.137 203.784 43.882 203.812 43.896 203.996 43.896 203.996 43.905 203.999 43.905 203.999"></polygon>
          <polygon class="cls-35" points="41.131 205.222 41.278 205.12 41.442 205.024 41.607 204.927 41.773 204.823 41.926 204.733 42.098 204.64 42.26 204.552 42.426 204.476 42.604 204.394 42.783 204.311 42.958 204.238 43.139 204.176 43.334 204.128 43.512 204.074 43.707 204.026 43.896 203.996 43.882 203.812 43.67 203.854 43.469 203.891 43.271 203.947 43.085 203.998 42.899 204.077 42.706 204.145 42.531 204.219 42.353 204.301 42.172 204.39 41.999 204.484 41.838 204.571 41.675 204.668 41.51 204.764 41.346 204.859 41.191 204.959 41.035 205.057 41.123 205.218 41.123 205.218 41.131 205.222 41.131 205.222"></polygon>
          <polygon class="cls-35" points="41.098 205.606 41.194 205.686 41.165 205.601 41.148 205.51 41.126 205.436 41.106 205.354 41.094 205.303 41.087 205.272 41.1 205.23 41.123 205.218 41.035 205.057 40.953 205.133 40.911 205.233 40.9 205.323 40.928 205.408 40.947 205.49 40.97 205.564 40.992 205.637 41.007 205.708 41.094 205.784 41.007 205.708 41.01 205.784 41.094 205.784 41.098 205.606 41.098 205.606 41.098 205.606"></polygon>
          <g>
            <polygon class="cls-1" points="48.035 206.282 48.035 206.282 48.012 206.378 48.035 206.282"></polygon>
            <polygon class="cls-34" points="48.038 206.273 48.035 206.282 48.035 206.282 48.038 206.273"></polygon>
            <polygon class="cls-34" points="47.995 206.316 48.035 206.282 48.012 206.378 47.995 206.316"></polygon>
            <g>
              <polygon class="cls-1" points="66.315 205.673 66.382 205.61 66.484 205.559 66.603 205.542 66.667 205.545 66.742 205.55 66.812 205.564 66.883 205.579 66.968 205.607 67.044 205.633 67.126 205.669 67.213 205.718 67.287 205.752 67.363 205.805 67.431 205.856 67.505 205.918 67.581 205.972 67.635 206.038 67.699 206.096 67.753 206.162 67.853 206.289 67.903 206.419 67.929 206.484 67.942 206.526 67.934 206.637 67.914 206.724 67.851 206.798 67.761 206.843 67.64 206.868 67.572 206.874 67.502 206.86 67.42 206.852 67.332 206.832 67.256 206.806 67.171 206.778 67.08 206.739 67.001 206.693 66.919 206.656 66.831 206.608 66.755 206.554 66.682 206.492 66.614 206.441 66.544 206.37 66.481 206.302 66.427 206.238 66.34 206.105 66.289 205.975 66.275 205.932 66.261 205.862 66.278 205.754 66.315 205.673"></polygon>
              <polygon class="cls-1" points="49.948 206.269 49.948 206.269 49.863 206.308 49.948 206.269"></polygon>
              <polygon class="cls-1" points="50.559 207.812 50.619 207.86 50.624 207.871 50.463 208.073 49.044 208.173 48.736 207.995 48.735 207.992 48.815 207.956 48.21 206.366 48.311 206.266 49.601 206.192 49.874 206.334 50.545 207.912 50.559 207.812"></polygon>
              <polygon class="cls-1" points="45.716 205.79 45.716 205.79 48.091 206.583 45.716 205.79"></polygon>
              <g>
                <polygon class="cls-1" points="66.315 205.673 66.382 205.61 66.484 205.559 66.603 205.542 66.667 205.545 66.742 205.55 66.812 205.564 66.883 205.579 66.968 205.607 67.044 205.633 67.126 205.669 67.213 205.718 67.287 205.752 67.363 205.805 67.431 205.856 67.505 205.918 67.581 205.972 67.635 206.038 67.699 206.096 67.753 206.162 67.853 206.289 67.903 206.419 67.929 206.484 67.942 206.526 67.934 206.637 67.914 206.724 67.851 206.798 67.761 206.843 67.64 206.868 67.572 206.874 67.502 206.86 67.42 206.852 67.332 206.832 67.256 206.806 67.171 206.778 67.08 206.739 67.001 206.693 66.919 206.656 66.831 206.608 66.755 206.554 66.682 206.492 66.614 206.441 66.544 206.37 66.481 206.302 66.427 206.238 66.34 206.105 66.289 205.975 66.275 205.932 66.261 205.862 66.278 205.754 66.315 205.673"></polygon>
                <polygon class="cls-1" points="49.601 206.192 49.874 206.334 50.545 207.912 50.559 207.812 50.619 207.86 50.624 207.871 50.463 208.073 49.044 208.173 48.736 207.995 48.735 207.992 48.815 207.956 48.21 206.366 48.311 206.266 49.601 206.192"></polygon>
                <polygon class="cls-1" points="45.716 205.79 45.716 205.79 48.091 206.583 45.716 205.79"></polygon>
                <g>
                  <polygon class="cls-1" points="66.315 205.673 66.382 205.61 66.484 205.559 66.603 205.542 66.667 205.545 66.742 205.55 66.812 205.564 66.883 205.579 66.968 205.607 67.044 205.633 67.126 205.669 67.213 205.718 67.287 205.752 67.363 205.805 67.431 205.856 67.505 205.918 67.581 205.972 67.635 206.038 67.699 206.096 67.753 206.162 67.853 206.289 67.903 206.419 67.929 206.484 67.942 206.526 67.934 206.637 67.914 206.724 67.851 206.798 67.761 206.843 67.64 206.868 67.572 206.874 67.502 206.86 67.42 206.852 67.332 206.832 67.256 206.806 67.171 206.778 67.08 206.739 67.001 206.693 66.919 206.656 66.831 206.608 66.755 206.554 66.682 206.492 66.614 206.441 66.544 206.37 66.481 206.302 66.427 206.238 66.34 206.105 66.289 205.975 66.275 205.932 66.261 205.862 66.278 205.754 66.315 205.673"></polygon>
                  <polygon class="cls-1" points="49.601 206.192 49.874 206.334 50.545 207.912 50.559 207.812 50.619 207.86 50.624 207.871 50.464 208.07 50.455 207.984 49.035 208.086 49.098 208.097 49.05 208.172 49.044 208.173 48.736 207.995 48.735 207.992 48.815 207.956 48.21 206.366 48.311 206.266 49.601 206.192"></polygon>
                  <polygon class="cls-1" points="45.716 205.79 45.716 205.79 48.091 206.583 45.716 205.79"></polygon>
                  <g>
                    <polygon class="cls-1" points="50.595 207.56 53.284 208.457 50.595 207.56 50.595 207.56"></polygon>
                    <polygon class="cls-1" points="50.525 207.396 53.623 208.43 50.525 207.396 50.525 207.396"></polygon>
                    <polygon class="cls-1" points="66.315 205.673 66.382 205.61 66.484 205.559 66.603 205.542 66.667 205.545 66.742 205.55 66.812 205.564 66.883 205.579 66.968 205.607 67.044 205.633 67.126 205.669 67.213 205.718 67.287 205.752 67.363 205.805 67.431 205.856 67.505 205.918 67.581 205.972 67.635 206.038 67.699 206.096 67.753 206.162 67.853 206.289 67.903 206.419 67.929 206.484 67.942 206.526 67.934 206.637 67.914 206.724 67.851 206.798 67.761 206.843 67.64 206.868 67.572 206.874 67.502 206.86 67.42 206.852 67.332 206.832 67.256 206.806 67.171 206.778 67.08 206.739 67.001 206.693 66.919 206.656 66.831 206.608 66.755 206.554 66.682 206.492 66.614 206.441 66.544 206.37 66.481 206.302 66.427 206.238 66.34 206.105 66.289 205.975 66.275 205.932 66.261 205.862 66.278 205.754 66.315 205.673"></polygon>
                    <polygon class="cls-1" points="49.601 206.192 49.874 206.334 50.545 207.912 50.559 207.812 50.619 207.86 50.624 207.871 50.464 208.07 50.463 208.073 49.05 208.172 49.044 208.173 48.736 207.995 48.735 207.992 48.815 207.956 48.21 206.366 48.311 206.266 49.601 206.192"></polygon>
                    <polygon class="cls-1" points="45.716 205.79 45.716 205.79 48.091 206.583 45.716 205.79"></polygon>
                    <polygon class="cls-34" points="50.525 207.396 53.623 208.43 53.287 208.449 53.284 208.457 50.595 207.56 50.525 207.396"></polygon>
                    <g>
                      <polygon class="cls-1" points="66.315 205.673 66.382 205.61 66.484 205.559 66.603 205.542 66.667 205.545 66.742 205.55 66.812 205.564 66.883 205.579 66.968 205.607 67.044 205.633 67.126 205.669 67.213 205.718 67.287 205.752 67.363 205.805 67.431 205.856 67.505 205.918 67.581 205.972 67.635 206.038 67.699 206.096 67.753 206.162 67.853 206.289 67.903 206.419 67.929 206.484 67.942 206.526 67.934 206.637 67.914 206.724 67.851 206.798 67.761 206.843 67.64 206.868 67.572 206.874 67.502 206.86 67.42 206.852 67.332 206.832 67.256 206.806 67.171 206.778 67.08 206.739 67.001 206.693 66.919 206.656 66.831 206.608 66.755 206.554 66.682 206.492 66.614 206.441 66.544 206.37 66.481 206.302 66.427 206.238 66.34 206.105 66.289 205.975 66.275 205.932 66.261 205.862 66.278 205.754 66.315 205.673"></polygon>
                      <polygon class="cls-1" points="49.601 206.192 49.874 206.334 50.522 207.859 50.422 207.987 49.035 208.086 49.098 208.097 49.05 208.172 49.044 208.173 48.736 207.995 48.735 207.992 48.815 207.956 48.21 206.366 48.311 206.266 49.601 206.192"></polygon>
                      <polygon class="cls-1" points="50.559 207.812 50.619 207.86 50.619 207.86 50.559 207.812"></polygon>
                      <polygon class="cls-1" points="45.716 205.79 45.716 205.79 48.091 206.583 45.716 205.79"></polygon>
                      <path class="cls-34" d="m41.094,205.784l3.935-.128.083.008.076.026.101.035.093.031.085.057.063.039.036.059.028.029,1.565,4.716.023.074.076-.003.079-.011.09.011.11.009.105-.002.102.005.093-.026.104-.031.085-.057.102-.107.084-.113.079-.096.079-.096.068-.091.065-.082.057-.085.068-.09.057-.085.065-.081.066-.083.07-.07.074-.079.085-.085.085-.085.107-.096-.057-.072.085-.069.096-.063.111-.048.101-.051.11-.048.125-.033.127-.043.124-.034.119-.017.13-.022.139-.02.13-.022.135-.011.136-.011.127-.014.125-.006,2.182-.158-2.689-.897-.07-.164h0l3.099,1.034,14.469-1.08.268-.042.201-.093.139-.133.05-.152v-.17s.003-.009.003-.009l-.048-.195-.097-.192-.139-.206-.082-.093-.091-.096-.099-.099-.104-.083-.111-.092-.124-.08-.132-.082-.134-.082-.141-.057-.139-.065-.152-.051-.161-.053-.152-.022-.159-.034-.164-.017-.161.002-2.185.082-12.832.438h-.141l-.134.003-.15-.003-.144-.02-.147-.011-.147-.012-.144-.02-.153-.022-.152-.022-.15-.031-.15-.031-.15-.031-.156-.042-.147-.04-.138-.037-.144-.048-.204-.068-.201-.077-.175-.068-.175-.068-.153-.08-.147-.068-.153-.08-.138-.065-.133-.082-.119-.068-.127-.07-.119-.068-.127-.071-.118-.067-.113-.057-.119-.068-.122-.059-.124-.051-.119-.04-.135-.045-.144-.048-.138-.037-.153-.023-.162-.025-.164-.018-.184-.014-.195-.009-.201.009-.209.006-.235.026-.243.022-.266.034-.197.028-.196.048-.195.048-.181.062-.191.068-.184.07-.175.073-.179.082-.169.085-.173.093,2.746.916-3.696.123-.003.178Zm25.167.077l.017-.107.037-.081.067-.063.102-.051.119-.017.065.003.074.005.07.014.071.015.085.028.076.026.082.037.087.048.073.034.076.053.068.051.074.062.076.054.054.065.065.059.054.065.099.128.051.13.025.065.014.042-.008.11-.02.088-.063.074-.09.044-.121.026-.068.006-.07-.015-.082-.008-.087-.02-.077-.026-.085-.028-.091-.039-.079-.046-.082-.037-.088-.048-.077-.054-.073-.062-.068-.051-.07-.071-.062-.068-.054-.064-.087-.133-.051-.13-.014-.042-.014-.071Zm-15.642,1.999h0l-.06-.048.06.048Zm-2.409-1.495l.101-.1,1.29-.074.273.142.648,1.525-.101.128-1.387.099.063.011-.048.075h-.006s-.308-.177-.308-.177v-.003s.079-.036.079-.036l-.604-1.59Z"></path>
                    </g>
                  </g>
                </g>
              </g>
            </g>
          </g>
          <polygon class="cls-30" points="65.386 206.842 65.308 206.797 65.293 206.726 65.407 206.698 65.43 206.772 65.361 206.72 65.386 206.842 65.386 206.842 65.386 206.842"></polygon>
          <polygon class="cls-30" points="65.54 206.752 65.522 206.774 65.494 206.803 65.46 206.82 65.427 206.836 65.386 206.842 65.361 206.72 65.379 206.726 65.404 206.707 65.435 206.698 65.437 206.689 65.432 206.707 65.537 206.761 65.537 206.761 65.54 206.752 65.54 206.752"></polygon>
          <polygon class="cls-30" points="65.22 206.042 65.229 206.045 65.283 206.11 65.354 206.181 65.421 206.26 65.486 206.347 65.539 206.44 65.571 206.545 65.571 206.659 65.537 206.761 65.432 206.707 65.455 206.638 65.449 206.571 65.43 206.489 65.379 206.416 65.322 206.33 65.26 206.263 65.189 206.192 65.136 206.127 65.144 206.13 65.22 206.042 65.22 206.042 65.22 206.042"></polygon>
          <polygon class="cls-30" points="64.18 205.742 64.172 205.739 64.321 205.742 64.462 205.742 64.595 205.768 64.722 205.782 64.853 205.816 64.974 205.875 65.101 205.946 65.22 206.042 65.144 206.13 65.028 206.053 64.918 205.988 64.814 205.935 64.701 205.906 64.576 205.884 64.448 205.869 64.319 205.864 64.185 205.866 64.189 205.858 64.169 205.747 64.169 205.747 64.18 205.742 64.18 205.742"></polygon>
          <polygon class="cls-30" points="53.149 206.32 53.197 206.289 64.169 205.747 64.189 205.858 53.213 206.408 53.262 206.377 53.149 206.32 53.149 206.32 53.149 206.32"></polygon>
          <polygon class="cls-30" points="52.888 206.705 52.77 206.665 52.778 206.583 52.801 206.515 52.835 206.442 52.88 206.391 52.94 206.354 53.016 206.323 53.101 206.295 53.197 206.289 53.213 206.408 53.123 206.425 53.041 206.445 53.001 206.45 52.963 206.484 52.942 206.515 52.912 206.552 52.895 206.603 52.897 206.679 52.778 206.639 52.888 206.705 52.888 206.705 52.888 206.705"></polygon>
          <g>
            <polygon class="cls-1" points="53.197 206.292 53.213 206.408 53.197 206.292 53.197 206.292"></polygon>
            <g>
              <polygon class="cls-1" points="52.897 206.679 52.912 206.609 52.945 206.535 52.974 206.478 53.033 206.442 53.103 206.427 53.203 206.413 53.213 206.408 64.189 205.858 64.372 205.872 64.525 205.866 64.669 205.886 64.802 205.912 64.924 205.971 65.033 206.036 65.136 206.127 65.252 206.26 65.354 206.378 65.427 206.497 65.463 206.585 65.463 206.641 65.437 206.689 65.367 206.732 65.234 206.763 65.048 206.785 53.77 207.367 53.762 207.364 53.604 207.358 53.448 207.316 53.309 207.251 53.191 207.182 53.092 207.083 53.021 206.985 52.959 206.889 52.912 206.807 52.903 206.748 52.897 206.679"></polygon>
              <g>
                <path class="cls-1" d="m52.912,206.609l-.014.071.006.068.009.059.048.082.062.096.071.099.098.099.118.068.139.065.155.042.159.006.008.003,11.277-.581.187-.022.132-.031.071-.043.026-.048v-.056l-.036-.088-.073-.118-.102-.119-.116-.133-.102-.091-.11-.065-.122-.059-.132-.026-.144-.02-.154.006-.183-.014-10.975.55-.011.005-.099.014-.071.015-.059.036-.028.057-.034.074Zm.155-.07l10.975-.55.006-.017.147.012h.141s.133.026.133.026l.127.014.131.034.121.059.118.068.128.098.048.054.043.042.039.051.034.04.048.053.036.059.031.048.031.048.003.019-.114.028.003.02-.028-.057-.031-.048-.043-.042-.031-.048-.033-.04-.039-.051-.042-.043-.051-.045.004-.003-.101-.076-.107-.074-.108-.045-.113-.028-.125-.023-.127-.014-.138-.009-.133.003-10.971.541-.012-.107Z"></path>
                <g>
                  <path class="cls-1" d="m52.912,206.609l-.014.071.006.068.009.059.048.082.062.096.071.099.098.099.118.068.139.065.155.042.159.006.008.003,11.277-.581.187-.022.132-.031.071-.043.026-.048v-.056l-.036-.088-.073-.118-.102-.119-.116-.133-.102-.091-.11-.065-.122-.059-.132-.026-.144-.02-.154.006-.183-.014-10.975.55-.011.005-.099.014-.071.015-.059.036-.028.057-.034.074Z"></path>
                  <g>
                    <polygon class="cls-1" points="52.945 206.535 52.974 206.478 53.033 206.442 53.103 206.427 53.168 206.418 53.078 206.589 64.053 206.039 64.194 206.039 64.324 206.045 64.457 206.07 64.584 206.084 64.706 206.115 64.821 206.163 64.938 206.24 65.051 206.324 65.09 206.375 65.133 206.418 65.172 206.469 65.215 206.511 65.245 206.559 65.285 206.611 65.317 206.659 65.354 206.717 65.358 206.734 65.234 206.763 65.048 206.785 53.77 207.367 53.762 207.364 53.604 207.358 53.448 207.316 53.309 207.251 53.191 207.182 53.092 207.083 53.021 206.985 52.959 206.889 52.912 206.807 52.903 206.748 52.897 206.679 52.912 206.609 52.945 206.535"></polygon>
                    <polygon class="cls-29" points="65.317 206.659 65.285 206.611 65.245 206.559 65.215 206.511 65.172 206.469 65.133 206.418 65.09 206.375 65.051 206.324 64.938 206.24 64.821 206.163 64.706 206.115 64.584 206.084 64.457 206.07 64.324 206.045 64.194 206.039 64.053 206.039 53.078 206.589 53.168 206.418 53.203 206.413 53.213 206.408 64.189 205.858 64.372 205.872 64.525 205.866 64.669 205.886 64.802 205.912 64.924 205.971 65.033 206.036 65.136 206.127 65.252 206.26 65.354 206.378 65.427 206.497 65.463 206.585 65.463 206.641 65.437 206.689 65.367 206.732 65.358 206.734 65.354 206.717 65.317 206.659"></polygon>
                    <g>
                      <polygon class="cls-1" points="52.916 206.597 52.926 206.595 52.982 206.595 53.078 206.589 53.17 206.418 53.203 206.413 53.213 206.408 64.189 205.858 64.372 205.872 64.525 205.866 64.669 205.886 64.802 205.912 64.924 205.971 65.033 206.036 65.136 206.127 65.252 206.26 65.354 206.378 65.427 206.497 65.463 206.585 65.463 206.641 65.437 206.689 65.367 206.732 65.358 206.734 65.234 206.763 65.048 206.785 53.77 207.367 53.762 207.364 53.604 207.358 53.448 207.316 53.309 207.251 53.191 207.182 53.092 207.083 53.021 206.985 52.959 206.889 52.912 206.807 52.903 206.748 52.897 206.679 52.912 206.609 52.916 206.597"></polygon>
                      <path class="cls-29" d="m52.77,206.665l.012.107.022.074.031.104.074.118.09.097.116.104.139.094.155.071.164.045h.198l11.275-.572.215-.023.153-.034.11-.077.062-.102-.002-.104-.043-.128-.082-.121-.113-.141-.116-.133-.125-.107-.132-.082-.13-.063-.141-.028-.17-.028h-.169l-.192.011-10.971.542v.003l-.117.005-.118.045-.079.068-.054.077-.037.082-.023.096Zm.128.014l.014-.071.005-.012.01-.002h.056l.097-.006.091-.171.033-.004.011-.005,10.975-.55.183.014.154-.006.144.02.132.026.122.059.11.065.102.091.116.133.102.119.073.118.036.088v.056l-.026.048-.071.043-.009.002-.123.029-.187.022-11.277.581-.008-.003-.159-.006-.155-.042-.139-.065-.118-.068-.098-.099-.071-.099-.062-.096-.048-.082-.009-.059-.006-.068Z"></path>
                    </g>
                  </g>
                </g>
              </g>
            </g>
          </g>
        </g>
      </g>
      
    </g>
  </g>
</svg>