<svg xmlns="http://www.w3.org/2000/svg" viewBox="0 0 3225 2400" width="3225" height="2400"><defs><style>.cls-1{letter-spacing:-.02em;}.cls-2{stroke:#929497;}.cls-2,.cls-3,.cls-4,.cls-5,.cls-6,.cls-7,.cls-8,.cls-9{fill:none;}.cls-10{font-size:6.99px;}.cls-11{letter-spacing:.02em;}.cls-12,.cls-13,.cls-4,.cls-14,.cls-15,.cls-16,.cls-17,.cls-18,.cls-19,.cls-20,.cls-21,.cls-22{stroke-width:0px;}.cls-12,.cls-23,.cls-19{fill:#010101;}.cls-24{letter-spacing:0em;}.cls-25{letter-spacing:.05em;}.cls-26{letter-spacing:-.04em;}.cls-26,.cls-27,.cls-28,.cls-29,.cls-30,.cls-31,.cls-32,.cls-33,.cls-34{fill:#231f20;}.cls-26,.cls-27,.cls-28,.cls-29,.cls-30,.cls-32{font-family:ArialMT, Arial;}.cls-3{stroke:#eb2627;}.cls-3,.cls-6,.cls-8{stroke-miterlimit:10;}.cls-27{letter-spacing:-.07em;}.cls-13,.cls-35{fill:#f9a61c;}.cls-36{letter-spacing:-.04em;}.cls-14{fill:#221f1f;isolation:isolate;opacity:.5;}.cls-37{letter-spacing:-.03em;}.cls-38{letter-spacing:-.03em;}.cls-39{letter-spacing:.01em;}.cls-28{letter-spacing:-.02em;}.cls-40{letter-spacing:-.02em;}.cls-41{letter-spacing:-.02em;}.cls-42{letter-spacing:-.02em;}.cls-5{stroke:#f9a61c;}.cls-43{letter-spacing:0em;}.cls-15{fill:#b8d334;}.cls-15,.cls-18,.cls-19,.cls-20{fill-rule:evenodd;}.cls-6{stroke:#70bf46;}.cls-44{letter-spacing:.03em;}.cls-16,.cls-45{fill:#eb222b;}.cls-46{letter-spacing:-.04em;}.cls-45,.cls-47,.cls-31,.cls-35,.cls-48{font-size:9.99px;}.cls-45,.cls-47,.cls-35,.cls-49,.cls-34,.cls-48,.cls-50{font-family:Arial-BoldMT, Arial;font-weight:700;}.cls-7{stroke:#2da6de;stroke-dasharray:0 1.44;}.cls-51{letter-spacing:-.07em;}.cls-52{letter-spacing:0em;}.cls-47{fill:#2da6de;}.cls-53{letter-spacing:0em;}.cls-30{letter-spacing:-.02em;}.cls-23,.cls-31,.cls-33{font-family:Arial-Black, 'Arial Black';font-weight:800;}.cls-23,.cls-33,.cls-34{font-size:11.99px;}.cls-17,.cls-18{fill:#4d494a;}.cls-32{letter-spacing:0em;}.cls-8{stroke:#2ca8e0;stroke-dasharray:0 0 4.92 4.92;}.cls-9{stroke:#eb222b;}.cls-54{letter-spacing:-.02em;}.cls-49{fill:#e92127;}.cls-55{letter-spacing:0em;}.cls-20,.cls-22{fill:#fff;}.cls-21{fill:#d0d2d3;}.cls-48{fill:#929497;}.cls-56{letter-spacing:-.03em;}.cls-57{letter-spacing:-.03em;}.cls-50{fill:#11aa4b;font-size:9.99px;}.cls-58{letter-spacing:.02em;}.cls-59{letter-spacing:.02em;}</style></defs><g id="Bleed_Zone"><path class="cls-14" d="M0,0v576h774V0H0ZM757.44,562.53H16.56V11.01h740.88v551.52Z"></path></g><g id="Fold_Lines"><line class="cls-6" x1="346.5" y1="562.53" x2="346.5" y2="11.01"></line><line class="cls-6" x1="427.5" y1="11.01" x2="427.5" y2="562.53"></line></g><g id="Safe_Zone"><rect class="cls-8" x="25.56" y="21.24" width="311.76" height="533.52"></rect><rect class="cls-8" x="436.68" y="21.24" width="311.76" height="533.52"></rect><rect class="cls-8" x="355.5" y="21.24" width="63" height="533.52"></rect></g><g id="Trim_Line"><rect class="cls-3" x="16.56" y="11.01" width="740.88" height="551.52"></rect></g><g id="Info"><rect class="cls-21" x="34.36" y="328.21" width="196.84" height="217.55"></rect><path class="cls-19" d="M197.93,403.3c0,34.3-27.8,62.11-62.09,62.11s-62.1-27.81-62.1-62.11,27.8-62.12,62.1-62.12,62.09,27.81,62.09,62.12Z"></path><path class="cls-15" d="M192.33,403.64c0,31.19-25.27,56.47-56.45,56.47s-56.45-25.28-56.45-56.47,25.27-56.47,56.45-56.47,56.45,25.28,56.45,56.47Z"></path><path class="cls-12" d="M123.79,391.33c-.78,6.92-1.37,12.48-1.75,16.68l-2.58.12c.04-.14.06-.3.06-.47,0-.31-.11-.73-.35-1.24-.24-.51-.37-.84-.4-.98-.67.09-1.3.56-1.91,1.38-.61.83-1.16,1.24-1.65,1.24-.28,0-.59-.08-.94-.23-.46.31-1.06.44-1.79.39-.66-.12-1.31-.21-1.94-.29-.02-.87-.88-1.64-2.59-2.3,0-.35-.17-.87-.53-1.56-.36-.69-.53-1.17-.53-1.45,0-.32.13-.58.38-.78-.04-.11-.32-.76-.86-1.96-.37-.88-.55-1.64-.54-2.27,0-.49.12-.95.34-1.36-.3-2.98-.43-5.54-.39-7.68.05-3.29.53-6.31,1.41-9.06-.06-.42-.09-.84-.08-1.26.04-2.2.8-3.73,2.28-4.58v-.68c1.48-1.87,3.41-3.22,5.81-4.05,1.43.34,2.86.66,4.29.97,1.6.55,2.71,1.5,3.31,2.84.49.29.72.87.71,1.74-.02.98.1,1.61.34,1.9l-.27.31c.28,2.07.42,3.33.41,3.79-.02,1.33-.37,2.27-1.05,2.82-.25,0-.89-.22-1.93-.66-.25.24-.51.36-.79.36-.14,0-.39-.08-.76-.22-.36-.15-.67-.22-.91-.22-.18,0-.35.03-.53.09-.02-2.76.07-4.83.26-6.19-.28-.18-.56-.59-.84-1.22-.29-.64-.66-.99-1.11-1.07-.28.35-.41.57-.38.68l-.94-.33c-.86.93-1.43,2.55-1.71,4.86-.29,2.66-.65,4.42-1.09,5.29.38.39.56.94.55,1.64,0,.25-.04.65-.13,1.21-.08.56-.12.98-.12,1.26,0,.31.02.6.09.84l-.64.62c.26,1.2.41,2.71.45,4.53-.03,1.54-.04,3.08-.03,4.62-.04,0-.33.01-.9.04-.35,0-.6.11-.74.36.21-.03.4-.05.58-.04.77.01,1.37.56,1.81,1.63.44,1.08.81,1.62,1.13,1.62.35,0,.83-.32,1.44-.97,1.03-1.1,1.57-2.62,1.6-4.54.02-.95-.09-1.96-.32-3.05-.25.14-.38.48-.39,1.04-.56,0-.91.11-1.06.35-.24-.07-.35-.27-.31-.58.04-.45.06-.7.07-.73.42-.13.63-.32.64-.57,0-.1-.07-.3-.23-.58-.15-.28-.23-.51-.22-.69,0-.14.04-.28.11-.42l.25-2.04c.77.22,2.43.32,4.98.3-.07.17.03.4.3.69.25-.24.51-.36.79-.35.21,0,.52.1.94.28.42.18.71.27.89.28Z"></path><path class="cls-12" d="M143.38,409.42c-.49-.22-1.01-.33-1.57-.34-.49,0-1.16.09-2,.28-.95.19-1.6.3-1.95.34-.37-.74-.63-1.76-.79-3.06-.28-1.89-.46-2.96-.52-3.21.11-.21.16-.38.17-.52,0-.39-.29-.73-.9-1.04-.61-.31-.91-.55-.91-.73,0-.21.36-.52,1.07-.93-.17-.21-.3-.64-.37-1.29-.08-.65-.24-1.08-.48-1.3-.43.38-1.12.62-2.09.73-.97.11-1.61.26-1.92.46.02,2.73-.43,4.56-1.35,5.49-.49-.11-.86.07-1.11.56-.36.59-.67.93-.91,1.03l.31.37c-.28.24-.74.34-1.37.29-.98-.05-1.5-.08-1.58-.08l-.3-.95,3.42-28.36c.03-1.79.12-2.99.27-3.62-.04-1.58.32-2.55,1.1-2.92.49.32,1.1.49,1.83.5.59,0,1.52-.12,2.79-.38,1.27-.26,2.14-.38,2.63-.38,1.71.03,2.46,1.27,2.25,3.72-.17,1.96.13,4.54.92,7.74.82,3.44,1.21,6.02,1.18,7.74,0,.53.16,1.61.12,2.14-.74.41-1.69.65-2.85.74-1.02.05-2.05.11-3.1.16-.27-2.66-.74-5.88-1.01-8.51-.33-3.16-.74-5.76-1.23-7.79l-1.62,15c-.13,1.29.46,1.95,1.75,1.97.42,0,.82-.09,1.21-.3.32-.1.75.14,1.3.7-.02,1.09.2,1.74.65,1.96.57-.38,1.31-.73,2.22-1.07.81-.3,1.6-.59,2.38-.86.44.61.73,1.5.85,2.7.15,1.68.25,2.66.32,2.95.06.67.33,2.11.82,4.32.36,1.76.52,3.18.51,4.26,0,.53-.05,1.01-.13,1.47Z"></path><path class="cls-12" d="M167.56,384.4c-.04.11-.05.72-.03,1.84-.01.91-.13,1.59-.35,2.04-.26.7-.4,1.69-.42,2.99,0,.28,0,.72.03,1.31-.01.6-.02,1.03-.02,1.31-.04,2.2-.41,3.81-1.13,4.81.06.56.09,1.12.08,1.68-.03,1.75-.63,4.11-1.8,7.06-.32.1-.58.15-.79.15-.42,0-.72-.25-.91-.72-.19-.48-.36-.93-.53-1.35.11-2.69.06-6.62-.17-11.77l.32-.31c-.23-.91-.33-1.93-.32-3.05.01-.8.11-1.98.3-3.51.18-1.54.28-2.69.3-3.46,0-.49,0-.96-.03-1.42-1.21,2.89-2.06,7.77-2.56,14.67l-.44,1.04c-.15.35-.45.54-.9.56-.14-.24-.28-.37-.42-.38-.11,0-.29.13-.56.38-.27.26-.49.37-.66.33l-.69.62c.31.39.97.44,1.99.14.81-.23,1.22.07,1.25.91.02.7-.17,1.64-.57,2.83-.41,1.18-.61,2.07-.62,2.67,0,.42.04.84.14,1.26l-3.63.57c-.34-.71-.59-1.89-.75-3.56-.16-1.67-.42-2.85-.75-3.56.21-.24.32-.5.33-.78,0-.24-.09-.61-.3-1.11-.2-.49-.32-.87-.35-1.11-.03-.38-.15-1.32-.37-2.79-.16-1.19-.23-2.12-.22-2.79,0-.35.03-.67.07-.95,0-.24-.13-.61-.4-1.08-.27-.48-.41-.82-.4-1.03,0-.17.07-.33.22-.47-.24-.29-.34-.78-.29-1.48.05-.7-.05-1.19-.29-1.47-.51,1.36-.79,3.19-.83,5.5-.02,3.22-.05,5.08-.09,5.56l.36.32-.37.31c.26,1.26.37,2.88.34,4.84-.09,3.53-.14,5.18-.14,4.94-.5.45-1.18.66-2.06.65-1.09-.02-1.82.07-2.21.28-.44-.78-.65-1.78-.63-3.01.01-.94.18-2.1.48-3.46-.48-.88-.7-2.11-.67-3.69,0-.39.05-1.12.14-2.21.05-.87.06-1.52.04-1.94.35-.17.53-.36.53-.57,0-.14-.11-.38-.33-.72-.22-.33-.33-.59-.33-.77,0-.21.15-.42.43-.62l-1.13-16.98c.67-.45,1.76-.65,3.27-.63,1.64.06,2.77-.02,3.36-.26.11-.07.23-.1.37-.1.14,0,.3.09.49.24.19.16.32.24.39.24.14,0,.27-.1.37-.31l.98.96c.33,1.23.64,3.62.93,7.16.3,3.05.77,5.36,1.41,6.91.86-3.1,1.57-5.7,2.13-7.79l1.14-8.31,8.14-.18c.03.46.13,2.89.35,4.29.19,1.23.28,2.23.26,3-.01.88-.15,1.66-.41,2.36.27.39.41.88.39,1.48,0,.6-.16,1.08-.44,1.46Z"></path><path class="cls-12" d="M184.27,402.81v-.05c-.22.45-.35.97-.39,1.57-.04.38-.05.93-.03,1.63.02.81.03,1.37.02,1.68-.28,0-1.4-.02-3.36-.05-1.19-.02-2.26.08-3.21.31l-.98-1.07c-.29.28-.39.5-.33.68-.17-.04-.98-.05-2.41-.04-1.12-.02-1.96-.14-2.51-.36-.57.59-1.24.58-2-.03-.28-.21-.3-.58-.09-1.08.22-.5.16-.88-.19-1.13.05-1.12.21-2.85.45-5.2.25-2.1.38-3.74.4-4.93.03-1.61-.08-3.15-.34-4.63.39-.38.83-.56,1.32-.55.56,0,1.22.29,1.98.82,1.07.75,1.63,1.13,1.66,1.13l.31.37c.04-.1.22-.66.55-1.67.19-.66.46-1.09.81-1.3l.31.32c.14-.07.6-.39,1.38-.97.6-.41,1.09-1.38,1.44-1.38.39,0,.75.22,1.09.65.59.32.96,1.58,1.14,2.23.18.65.35,1.29.52,1.93-1.58.04-2.87,0-3.88-.12-.25.38-.6.44-1.05.17-.45-.27-.78-.23-1,.11-.01.63-.03,1.77-.06,3.41-.06,1.47-.08,2.62-.06,3.47.01,1.29.1,2.49.25,3.58.28,0,1.61.03,3.99.07,1.65.03,3.06.17,4.25.44ZM184.38,377.65c-.32.03-.66.04-1.05.04-.8-.01-1.87-.14-3.2-.37-1.64-.24-2.64-.38-2.99-.42-.5.72-.76,1.76-.79,3.09-.05,2.87-.05,4.11,0,3.73.48.29.72.82.71,1.59-.05,1.05-.06,1.59-.03,1.63-.25.1-.37.45-.38,1.04-.38-.15-.78-.44-1.19-.86-.55-.54-.84,1.28-.8.83l-.33,1.08-.31-.32c-.28.03-.76-.12-1.44-.44-.68-.33-1.15-.63-1.43-.92,0-.56.1-.87.28-.94l-.67-.75-.32.47c-.39-3.65-.29-10.47.19-14.32,1.33.23,2.8.38,4.41.44,1.08.05,2.6.08,4.57.08,2.24,0,3.85.01,4.83.03.41.39.61.9.6,1.53,0,.39-.11,1.01-.32,1.86-.21.86-.31,1.49-.32,1.91Z"></path><path class="cls-12" d="M125.37,434.57v-.02s-.09.79-.27,2.31c-.09.94-.32,1.68-.68,2.21l-.23-.19c-.43.89-1,1.43-1.74,1.63-.35.37-.86.57-1.52.61-.39.02-1.3-.09-2.72-.34-.69-.43-1.06-.66-1.13-.71-.43-.32-.64-.65-.62-.99-.42-.43-1.01-1.19-1.23-2.14-.27-1.05-.43-1.11-.68-1.48-.4.29-.54-.33-.77-.7l.21-.16c-.13-.09-.2-.2-.21-.31,0-.08.03-.21.1-.37.07-.16.11-.29.1-.37,0-.13-.09-.25-.24-.34.16-.82.3-2.07.43-3.72.28-.15.42-.44.4-.88-.02-.43.04-.72.18-.86.67-1.34,1.75-2.24,3.26-2.71.08.01.49,0,1.21-.02.5-.01.87.03,1.12.13.45-.08.9.03,1.35.32.39.29.78.59,1.17.88.73.79,1.12,1.69,1.18,2.68.02.33,0,.68-.06,1.05-.54-.02-.92.34-1.15,1.07l-2.1.2c-.23-.32-.36-.75-.39-1.28-.01-.18,0-.45,0-.8.01-.35.01-.62,0-.8-.03-.55-.16-.98-.39-1.3l-.63.36c-.25-.1-.39-.25-.4-.45,0-.07,0-.16.03-.29.02-.13.03-.22.03-.27-.01-.21-.21-.35-.58-.39-.26,2.37-.33,4.79-.23,7.29.07.08.27.13.6.17.27.03.41.12.42.25,0,.05-.01.12-.05.2l-.21.16c.11.18.18.42.2.74,0,.17,0,.42-.02.76-.02.34-.03.6-.02.76.03.5.15.88.38,1.13-.02.37.13.62.44.75.2-.08.39-.12.55-.13.64-.04,1.08.31,1.33,1.05,0,.02,0,.14,0,.38,0,.13.07.22.2.26.28-.17.42-.47.41-.9,0-.5.06-.82.19-.96-.04-.23-.17-.56-.41-1-.24-.44-.37-.78-.39-1.03-.01-.26.06-.52.24-.76-.15-.04-.21-.14-.2-.29,0-.23,0-.36,0-.38,1.14-.28,2.3-.29,3.48-.03Z"></path><path class="cls-12" d="M134.87,436.52h-.03c-.12.24-.16.59-.12,1.03.06.63.09.96.09.97-.09.04-.22-.01-.38-.14-.25.09-.36.25-.35.46,0,.03.01.08.04.16,0,.09,0,.15.01.19.01.17-.04.29-.15.38-.28-.15-.65-.25-1.1-.29-.46-.04-.89-.08-1.29-.12,0-2.11-.29-4.17-.85-6.18,0,.02-.01-.19-.04-.62,0-.31-.07-.53-.21-.66l-.19.17s.06-.09.19-.18c.13-.09.19-.19.19-.28,0-.04-.02-.09-.04-.14l-.21-.15c-.36.11-.52.4-.5.87.02.31-.11.53-.37.65.1.07.15.16.16.27,0,.06,0,.15-.03.26-.02.11-.03.2-.03.26,0,.14.08.25.22.34,0,.09.05.93.14,2.5.06,1,.03,1.86-.08,2.56l.02.39c-.14,0-.29,0-.46,0-.19.01-.47.04-.83.08-.36.05-.63.07-.8.08-.71.04-1.21-.08-1.5-.36l-.3-8.65c-.14-.42-.23-1.02-.28-1.77l-.1-1.67c-.07-.82-.17-1.45-.31-1.89.06-.3.32-.46.78-.48.29-.02.67.02,1.16.12.23-.11.54-.17.94-.2.12,0,.3,0,.55,0,.27-.02.46-.03.58-.03.75-.04,1.25-.27,1.49-.69.35,0,.72.11,1.13.33.41.22.77.34,1.08.36.82.48,1.26,1.28,1.32,2.39.01.25-.08,1.23-.29,2.95l-1.4,1.22c.24.44.52,1.39.86,2.85.28,1.22.71,2.12,1.28,2.69ZM132.28,426.67l.03.02c.03.11.01-.27-.04-1.14-.02-.42-.18-.72-.46-.9-.16.23.02.33-.05.86-.08.52-.38.38-.57.6-.48,0-.59.29-.7-.17-.22-.75-.4-.68-.4-.7l-.2.12c-.07.07-.16.14-.25.22-.09.08-.19.11-.28.09,0,.09-.04.24-.13.44-.1.2-.14.34-.14.41,0,.14.12.24.33.3-.04.31-.05.64-.03.98,0,.19.05.61.13,1.27.09.52.12.97.11,1.34.17,0,.34,0,.49,0,.67-.04,1.11-.3,1.31-.79.07-.14.15-.66.23-1.55.08-.67.28-1.14.61-1.41Z"></path><path class="cls-12" d="M145.77,439.88c-.28-.08-.57-.11-.87-.09-.27.02-.63.08-1.08.2-.51.12-.87.2-1.06.22-.23-.31-.41-.75-.54-1.32-.22-.82-.35-1.29-.4-1.39.05-.1.08-.18.07-.24-.01-.17-.19-.31-.53-.42-.34-.11-.52-.21-.52-.29,0-.09.18-.24.55-.45-.1-.09-.19-.27-.25-.56-.07-.28-.17-.47-.31-.55-.22.19-.59.32-1.12.4-.52.08-.87.18-1.04.28.11,1.2,0,3.31-.47,3.76-.27-.03-.47.06-.59.29-.18.28-.33.44-.46.49l.18.15c-.15.12-.39.18-.74.18-.54.02-.83.02-.86.03l-.2-.41.81-13.91c-.04-.79-.04-1.32.02-1.6-.08-.69.09-1.14.5-1.33.28.12.62.17,1.02.15.33-.02.83-.11,1.51-.27.68-.16,1.16-.25,1.43-.27.94-.05,1.39.46,1.36,1.55-.03.87.23,1.99.77,3.37.57,1.48.87,2.61.92,3.36.01.23.32.72.32.95-.39.21-.9.36-1.54.44-.55.06-1.12.13-1.69.19-.24-1.16-.79-2.58-1.02-3.73-.29-1.38-.61-2.51-.95-3.39l-.36,6.67c-.02.57.32.84,1.03.8.23,0,.45-.07.65-.18.17-.06.42.03.74.26.03.48.17.76.42.83.3-.19.69-.37,1.18-.56.43-.16.86-.32,1.27-.47.26.25.45.63.56,1.15.14.74.23,1.16.28,1.29.05.29.25.92.6,1.87.26.76.4,1.38.43,1.86.01.23,0,.45-.02.65Z"></path><path class="cls-12" d="M153.72,424.1h.03c-.23.34-.52.4-.88.19-.08-.01-.42,0-1.04.06-.52.03-.89,0-1.13-.07-.06,0-.17.06-.34.17-.17.11-.29.17-.37.17-.11,0-.18-.09-.19-.29,0-.03,0-.16-.02-.39,0-.15-.08-.26-.22-.31l-.36.28c-.11.08-.16.17-.16.27,0,.08.07.19.19.32.12.14.2.24.22.3,0,.04.04.74.12,2.09.03.85.19,1.53.47,2.04.07-.08.25-.13.53-.13.28,0,.46-.07.55-.18.18.16.49.17.91.03.42-.14.73-.09.92.14l-.05,2.05c-.17-.02-.43-.11-.77-.26-.1.3-.29.49-.57.57-.11.04-.44.07-.98.1.01-.09-.07-.19-.25-.29-.52.25-.72.84-.59,1.78.01-.09.03.07.06.49.02.26-.04.45-.17.57-.33.05-.74-.02-1.24-.22-.5-.2-.86-.29-1.07-.28-.1,0-.18.02-.26.04l-.54.17-.86-9.36-.1-1.78c.72-.24,1.6-.39,2.66-.46.83-.05,1.9-.04,3.24.02.08-.18.24.05.43.04.1,0,.24,0,.44.03.19.03.34.04.44.03.12,0,.22-.03.31-.07l.14-.15c.39.12.6.32.61.62,0,.12-.03.33-.11.63-.08.3-.11.53-.1.68,0,.14.04.26.11.37ZM150.35,439.72c-.21.11-.52.17-.94.2-.56.03-.89.06-1,.08-.06-.06-.14-.01-.26-.5-.08-.32-.28-.47-.6-.45-.08,0-.17.02-.29.04l-.52.03-.28-4.74c.28-.14.63-.22,1.05-.25.4-.02.76.02,1.08.12,0,.17.24.24.73.21l.55-.03c.33,1.33.52,3.74.48,5.29Z"></path><path class="cls-12" d="M165.23,424.5l.03.02c-.27-.02-1.14.04-1.81.13-.57.07-1.01.08-1.3.03-.28.19-.38.44-.3.76l.18.11c-.15.13-.2.24-.16.31l.15.15c-.03,2.75-.04,4.26-.02,4.56.04.72.13,1.36.25,1.91-.11.35-.16.75-.13,1.19.02.29.09.76.21,1.39.12.64.29,2.72.31,3.05.01.25,0,.48-.02.7-.26.11-.55.17-.86.19-.52.03-1.07-.08-1.67-.32-.07.07-.16.13-.25.21-.09.08-.12.16-.07.25-.19.06-.45-.02-.79-.23-.18-2.78-.68-8.44-1.42-14.16-.26.23-.73.04-1.23.1-.59.07-1.17-.03-1.4.08-.29-.31-.22-.4-.25-.91-.03-.49-.19-1.71-.06-2.22.03-.11,1.1-.05,1.73-.1.86-.05,1.05.15,1.11.15.07-.11.49-.05.8-.07.2.1.41-.09.42.05,0,.09,0,.68-.07.84-.07.17-.1.29-.1.37.01.18.14-.09.46.02.35,0,.7-.02,1.06-.04.41.04.88-.11.84.23.07-.1.11.07.7-.16.43-.2.69-.71.61-1.05-.05-.19.21-.31.05-.22.21-.11.02-.04.24-.12.72.06,1.12,0,1.25-.02.29-.02,1,.17,1.21.06.15.27.23,1.12.23,1.58.02.74.04,1.14.04,1.18Z"></path><path class="cls-12" d="M174.56,434.17v-.02c-.11.21-.16.44-.16.71-.01.17,0,.41.04.72.04.35.06.6.07.74-.15,0-.77.04-1.84.11-.65.04-1.23.12-1.75.26l-.57-.43c-.15.13-.2.24-.16.31-.1,0-.54.02-1.32.08-.62.04-1.08.02-1.39-.06-.29.28-.66.3-1.09.06-.16-.08-.19-.24-.08-.47.1-.23.05-.39-.14-.49,0-.49.01-1.26.07-2.3.06-.93.08-1.66.05-2.19-.04-.71-.16-1.38-.35-2.03.2-.18.43-.28.7-.3.31-.02.68.08,1.12.28.61.29.93.44.95.44l.18.15s.1-.3.25-.76c.08-.3.21-.5.4-.6l.18.13c.08-.03.32-.2.72-.48.31-.21.53-.96.72-.97.21-.01.42.07.62.24.33.12.6.96.72,1.24s.24.56.35.83c-.86.08-1.57.12-2.13.1-.12.18-.32.22-.57.11-.26-.1-.44-.07-.55.09.02.28.05.78.09,1.5.02.65.05,1.16.09,1.53.05.57.14,1.09.26,1.56.15,0,.88-.05,2.19-.13.9-.05,1.68-.04,2.34.03ZM173.66,423.27c-.17.03-.36.04-.58.06-.44.02-1.03.01-1.76-.04-.91-.04-1.46-.06-1.65-.07-.25.34-.28.62-.25,1.2.07,1.27.12,1.81.12,1.64.28.11.42.33.44.67,0,.46.02.7.04.72-.13.05-.19.21-.17.47-.21-.05-.44-.16-.68-.33-.32-.21-.42.54-.42.34l-.15.47-.18-.13c-.15.02-.42-.02-.8-.14s-.65-.23-.81-.35c-.01-.25.02-.39.12-.42l-.39-.3-.16.22c-.34-1.59-.57-4.4-.44-6.11.73.05,1.59-.08,2.48-.11.59-.02,1.43-.07,2.5-.14,1.23-.09,2.11-.15,2.64-.18.24.16.37.38.39.65,0,.17-.03.45-.11.83-.08.39-.19.86-.18,1.04Z"></path><path class="cls-12" d="M184.13,432.53h-.03c-.12.24-.16.58-.11,1.03.06.63.08.96.08.97-.09.04-.22,0-.38-.14-.24.09-.36.25-.35.46,0,.03.01.09.04.16,0,.09,0,.16.01.19,0,.17-.04.3-.15.38-.28-.16-.65-.25-1.1-.3-.46-.04-.89-.09-1.29-.12,0-2.11-.29-4.17-.85-6.18,0,.01-.01-.2-.04-.63,0-.31-.07-.53-.21-.66l-.19.17s.06-.09.19-.19c.13-.09.19-.19.19-.28,0-.05-.02-.09-.04-.14l-.21-.15c-.36.12-.53.4-.5.87.02.31-.11.53-.37.65.1.07.15.16.16.27,0,.06,0,.15-.03.26-.02.11-.03.2-.03.26,0,.14.08.25.22.34,0,.09.05.93.14,2.5.06,1.01.03,1.86-.08,2.56l.02.39c-.14,0-.29,0-.46,0-.19.01-.47.04-.83.08-.36.04-.63.07-.8.08-.71.04-1.21-.08-1.49-.36l-.3-8.65c-.14-.42-.23-1.02-.28-1.77l-.1-1.67c-.07-.82-.17-1.45-.31-1.89.06-.3.32-.46.78-.49.29-.02.68.02,1.16.12.22-.11.54-.17.94-.19.12,0,.3,0,.55,0,.27-.02.46-.03.58-.04.75-.04,1.24-.27,1.49-.69.35,0,.72.1,1.13.33.41.22.77.34,1.08.36.82.48,1.26,1.28,1.32,2.39.01.25-.08,1.23-.29,2.95l-1.4,1.22c.24.44.52,1.39.86,2.86.28,1.22.71,2.12,1.28,2.69ZM181.54,422.68l.03.02c.02.11.01-.27-.04-1.14-.03-.42-.18-.72-.46-.9-.16.23-.19-.3-.26.22-.07.53-.2.9-.38,1.13-.48,0-.59-.29-.88-.69-.18-.26-.27-.04-.27-.05l-.13.11c-.07.07-.16.14-.25.22-.09.08-.19.11-.28.09,0,.09-.04.24-.13.44-.09.2-.14.34-.13.41,0,.14.12.24.34.31-.04.31-.05.64-.03.98.01.18.05.61.13,1.27.09.52.12.97.11,1.34.17,0,.34,0,.49,0,.67-.04,1.11-.31,1.31-.8.07-.14.14-.66.23-1.55.08-.67.28-1.14.61-1.41Z"></path><path class="cls-12" d="M88.69,392.62v.02c-.08.8-.11,1.36-.08,1.67-.12.05-.28.05-.48.02-.25-.04-.4-.06-.45-.06-.11,0-.2.04-.27.12-.16-.1-.27-.15-.32-.13-.15.09-.22.22-.21.39,0,.07.03.19.08.36.05.18.08.3.08.38,0,.11-.02.29-.07.53-.05.24-.07.44-.07.59.01.18.05.47.12.86.07.39.11.68.12.88-.08.38-.11.77-.09,1.16.02.47.16,1.11.39,1.91.04.01.08.02.13.01.1,0,.21-.07.35-.21.13-.13.25-.2.35-.21.07,0,.15.01.23.05.25.81.38,1.34.4,1.58,0,.11,0,.23,0,.36-.37.09-.64-.04-.8-.38.02-.1-.03-.2-.16-.31l-.42.44c.41.06.57.38.49.94-.04.11-.12.18-.26.18-.24,0-.35,0-.34,0l-.35-.61-.14.17c-.11-.29-.25-.43-.4-.42-.08,0-.23.07-.44.21-.21.13-.38.21-.52.21-.11,0-.22-.02-.34-.09,0-.17-.03-.34-.06-.52-.03-.18-.12-.29-.28-.34,0-.43,0-1.58.04-3.43.01-1.4,0-2.54-.05-3.4-.02-.36-.04-.72-.07-1.07-.08-.11-.15-.16-.22-.16-.06,0-.14.06-.25.18-.11.12-.21.17-.3.16,0-.14-.07-.36-.19-.67-.12-.31-.18-.53-.19-.67-.01-.24.08-.45.26-.62l.49.12c.2-.28.28-.74.24-1.4,0-.12-.03-.32-.05-.6-.03-.27-.05-.47-.05-.6-.05-1.08.28-1.63.99-1.67.26-.02.59.03.97.14l.47.12c.04.18.06.37.07.56.01.27,0,.65-.04,1.17-.04.52-.05.89-.04,1.12.02.38.08.72.2,1.02.11,0,.29-.06.53-.18.24-.12.41-.18.53-.18.19,0,.35.08.48.27ZM87.23,394.12l-.03-.48-.15-.14.18.62Z"></path><path class="cls-12" d="M94.45,391.11h.02c-.05.38-.11.76-.17,1.14-.08.44-.2.78-.37,1.03-.03-.01-.2-.09-.52-.25-.22-.12-.41-.16-.58-.14-.13.82-.2,1.94-.21,3.35,0,1.81-.02,2.9-.04,3.28-.21-.02-.37.05-.47.2-.11.15-.2.31-.29.47-.04.09-.06.16-.05.23,0,.11.1.22.29.32.19.1.28.22.29.34-.08.3-.26.45-.52.47-.12,0-.34-.03-.66-.11-.31-.08-.53-.12-.66-.11l-.3-6c.12-.16.17-.27.15-.32l-.17-.12c.01-.25.03-1.51.04-3.76,0-1.53.06-2.77.17-3.71-.01,0,.42-.03,1.3-.09.54-.03.9.12,1.05.45,0,.31-.03.83-.09,1.56-.06.67-.09,1.2-.07,1.56.02.45.09.85.21,1.21.47-.64,1.02-.98,1.65-1.01ZM96.54,392.39c.04.56.08,1.1.1,1.63.12,2.32.08,4.8-.11,7.45-.2.18-.51.22-.93.12-.42-.1-.72-.06-.91.12-.24-.31-.38-.87-.42-1.68-.06-1.17-.09-1.78-.09-1.82-.05-2.94.24-5.32.86-7.13.72.19,1.22.63,1.49,1.31Z"></path><path class="cls-12" d="M103.89,395.44c-.09.19-.13.39-.12.6,0,.21.02.41.03.61-.02.17-.07.34-.14.51-.13-.04-.23-.05-.32-.05-.1,0-.2.04-.3.11-.1.07-.18.11-.24.11-.08,0-.2-.03-.34-.09l-.97-1.42c.03.42.13.79.29,1.1.08.16.16.33.23.49-.57.1-.89.12-.97.05l-.14.18-.34-.45c-.26.32-.33.79-.18,1.42.17.68.18,1.17.03,1.47.21.31.46.46.76.44.13,0,.24-.05.33-.14.14-.34.27-.69.41-1.03.2-.42.43-.63.68-.64.2,0,.43.09.69.3.31.11.48.26.49.44,0,.12-.07.3-.21.55-.15.25-.22.45-.21.59,0,.05.01.1.03.15-.2.15-.38.38-.54.68-.16.3-.37.51-.63.62-.23.22-.44.34-.63.35-.15,0-.38-.11-.69-.35-.31-.24-.59-.36-.86-.35-.11-.25-.38-.52-.82-.82-.44-.3-.7-.62-.8-.97,0,.03,0-.08-.02-.34,0-.14-.07-.23-.18-.26l.16-.16c-.21,0-.32-.12-.33-.36,0-.03,0-.08,0-.17,0-.07.01-.13.01-.17,0-.17-.06-.28-.16-.35l-.04-.73c-.02-.38-.1-.65-.23-.81.14-.89.28-1.78.41-2.67.23-1.04.57-1.56,1.01-1.59.07,0,.14,0,.21.03.4-.4.89-.61,1.46-.64.63-.03,1.33.16,2.09.57.6.98.96,2.04,1.11,3.2ZM101,393.12l-.14.18c-.1.02-.21-.03-.34-.15l.02.48c-.21.23-.3.59-.26,1.08.04.84.06,1.24.06,1.22h.63c.3-.18.44-.46.42-.85,0-.2-.08-.52-.21-.97-.13-.45-.19-.78-.18-.99Z"></path><polygon class="cls-19" points="108.82 416.6 109.44 416.95 111.56 411.39 110.86 411.16 108.74 416.72 109.35 417.11 108.82 416.6 108.82 416.6 108.82 416.6"></polygon><polygon class="cls-19" points="109.75 415.82 109.49 415.92 108.82 416.6 109.35 417.11 110.04 416.41 109.77 416.54 109.75 415.82 109.75 415.82 109.75 415.82"></polygon><polygon class="cls-19" points="114.87 415.78 115.18 415.55 109.75 415.82 109.77 416.54 115.2 416.26 115.54 416.01 114.87 415.78 114.87 415.78 114.87 415.78 114.87 415.78"></polygon><polygon class="cls-19" points="117.33 410.67 116.96 410.21 114.87 415.78 115.54 416.01 117.66 410.44 117.29 409.98 117.33 410.67 117.33 410.67 117.33 410.67 117.33 410.67"></polygon><polygon class="cls-19" points="112.15 410.84 111.89 410.98 117.33 410.67 117.29 409.98 111.87 410.23 111.61 410.36 112.15 410.84 112.15 410.84 112.15 410.84 112.15 410.84"></polygon><polygon class="cls-19" points="111.56 411.39 111.48 411.51 112.15 410.84 111.61 410.36 110.93 411.03 110.86 411.16 111.56 411.39 111.56 411.39 111.56 411.39 111.56 411.39"></polygon><polygon class="cls-19" points="116.07 416.44 116.55 416.23 115.39 415.58 115.02 416.24 116.22 416.9 116.74 416.67 116.04 416.43 116.04 416.43 116.07 416.44 116.07 416.44"></polygon><polygon class="cls-19" points="118.34 411.31 118.15 410.87 116.04 416.43 116.74 416.67 118.86 411.1 118.67 410.67 118.34 411.31 118.34 411.31 118.34 411.31"></polygon><polygon class="cls-19" points="117.66 410.44 117.14 410.68 118.34 411.31 118.67 410.67 117.5 410.02 116.96 410.21 117.66 410.44 117.66 410.44 117.66 410.44"></polygon><polygon class="cls-12" points="111.23 411.28 111.19 411.27 111.86 410.6 116.9 410.35 116.96 410.21 117.33 410.33 117.66 410.44 117.64 410.5 118.52 410.99 118.86 411.1 118.72 411.46 121.19 417.33 119.1 422.9 116.41 416.55 116.41 416.55 116.06 416.7 116.04 416.43 116.06 416.36 115.21 415.89 115.02 416.24 114.91 415.91 109.75 416.16 109.07 416.83 111.23 411.28"></polygon><polygon class="cls-19" points="118.77 422.79 119.45 422.76 116.75 416.41 116.06 416.7 118.76 423.05 119.44 423.01 118.73 422.78 118.73 422.78 118.77 422.79 118.77 422.79"></polygon><polygon class="cls-19" points="120.87 417.49 120.85 417.22 118.73 422.78 119.44 423.01 121.56 417.45 121.53 417.18 120.87 417.49 120.87 417.49 120.87 417.49"></polygon><polygon class="cls-19" points="118.86 411.1 118.18 411.14 120.87 417.49 121.53 417.18 118.84 410.84 118.15 410.87 118.86 411.1 118.86 411.1 118.86 411.1"></polygon><polygon class="cls-20" points="118.68 412.54 118.98 413.2 119.09 413.87 119.06 414.53 118.87 415.21 118.53 415.88 118.07 416.47 117.48 417.02 116.76 417.5 116.37 417.66 115.98 417.83 115.54 417.91 115.14 418 114.75 418.05 114.32 418.1 113.93 418.04 113.53 418.02 113.18 417.94 112.81 417.82 112.46 417.66 112.14 417.48 111.87 417.28 111.57 417.07 111.33 416.8 111.12 416.51 110.82 415.85 110.71 415.18 110.71 414.5 110.93 413.83 111.23 413.18 111.69 412.56 112.29 412.01 113.04 411.55 113.4 411.37 113.82 411.21 114.23 411.12 114.63 411.03 115.05 410.99 115.44 410.93 115.84 410.99 116.24 411.01 116.61 411.13 116.98 411.26 117.31 411.37 117.66 411.56 117.94 411.73 118.23 411.98 118.43 412.27 118.68 412.54 118.68 412.54 118.68 412.54 118.68 412.54"></polygon><polygon class="cls-19" points="118.95 413.63 119.25 414.29 119.35 415 119.32 415.66 119.14 416.31 118.84 416.99 118.33 417.61 117.78 418.13 117.03 418.59 116.63 418.79 116.24 418.96 115.84 419.05 115.4 419.13 115.01 419.18 114.63 419.21 114.22 419.18 113.8 419.12 113.45 419.04 113.08 418.91 112.76 418.77 112.41 418.58 112.13 418.41 111.87 418.18 111.61 417.94 111.39 417.61 111.08 416.98 110.97 416.3 111.01 415.61 111.19 414.96 111.49 414.28 111.95 413.69 112.55 413.14 113.29 412.68 113.7 412.48 114.08 412.34 114.49 412.22 114.93 412.14 115.31 412.12 115.7 412.07 116.1 412.12 116.5 412.14 116.88 412.23 117.25 412.35 117.57 412.5 117.93 412.66 118.2 412.86 118.5 413.07 118.7 413.36 118.94 413.67 118.94 413.67 118.95 413.63 118.95 413.63"></polygon><polygon class="cls-20" points="119.14 414.41 119.45 415.03 119.55 415.74 119.52 416.4 119.34 417.05 119 417.72 118.53 418.35 117.98 418.87 117.23 419.33 116.86 419.54 116.44 419.7 116.04 419.79 115.6 419.87 115.21 419.92 114.83 419.95 114.42 419.92 114 419.86 113.65 419.78 113.28 419.65 112.96 419.51 112.61 419.32 112.33 419.15 112.04 418.9 111.83 418.65 111.59 418.34 111.28 417.72 111.17 417.05 111.2 416.39 111.39 415.7 111.69 415.02 112.16 414.39 112.78 413.89 113.5 413.42 113.9 413.22 114.29 413.05 114.69 412.96 115.13 412.88 115.52 412.83 115.9 412.8 116.34 412.84 116.7 412.88 117.08 412.97 117.45 413.09 117.81 413.25 118.12 413.43 118.4 413.6 118.7 413.81 118.9 414.1 119.14 414.41 119.14 414.41 119.14 414.41"></polygon><polygon class="cls-19" points="119.41 415.5 119.71 416.16 119.82 416.83 119.82 417.51 119.6 418.18 119.31 418.83 118.8 419.44 118.24 420 117.49 420.46 117.13 420.64 116.71 420.8 116.31 420.89 115.9 420.97 115.48 421.02 115.08 421.08 114.69 421.02 114.29 421 113.91 420.91 113.54 420.79 113.22 420.64 112.87 420.45 112.6 420.25 112.33 420.05 112.09 419.78 111.85 419.47 111.58 418.82 111.44 418.14 111.47 417.48 111.66 416.8 111.98 416.16 112.46 415.53 113.05 414.98 113.77 414.52 114.16 414.35 114.55 414.18 114.99 414.1 115.39 414.01 115.78 413.96 116.19 413.95 116.6 413.97 116.97 413.98 117.35 414.07 117.72 414.19 118.07 414.35 118.39 414.53 118.69 414.74 118.96 414.94 119.2 415.21 119.4 415.54 119.4 415.54 119.41 415.5 119.41 415.5"></polygon><polygon class="cls-20" points="119.8 416.23 120.11 416.86 120.22 417.53 120.21 418.24 120.03 418.88 119.7 419.55 119.19 420.17 118.65 420.7 117.93 421.17 117.53 421.37 117.1 421.53 116.7 421.62 116.29 421.7 115.87 421.75 115.49 421.77 115.08 421.75 114.69 421.69 114.31 421.6 113.94 421.48 113.62 421.33 113.29 421.19 112.99 420.97 112.73 420.74 112.49 420.47 112.29 420.18 111.97 419.55 111.84 418.84 111.87 418.18 112.09 417.54 112.39 416.86 112.86 416.23 113.44 415.71 114.16 415.24 114.56 415.04 114.95 414.88 115.38 414.83 115.79 414.71 116.18 414.65 116.6 414.64 117 414.66 117.36 414.71 117.74 414.8 118.14 414.93 118.47 415.08 118.79 415.22 119.09 415.44 119.35 415.67 119.6 415.94 119.8 416.23 119.8 416.23 119.8 416.23"></polygon><polygon class="cls-19" points="120.1 417.34 120.37 417.99 120.52 418.67 120.48 419.33 120.29 420.01 119.96 420.65 119.49 421.28 118.9 421.83 118.19 422.3 117.79 422.47 117.37 422.62 116.97 422.71 116.56 422.8 116.17 422.86 115.75 422.9 115.35 422.85 114.95 422.82 114.6 422.74 114.2 422.61 113.88 422.46 113.56 422.29 113.26 422.07 112.99 421.87 112.75 421.6 112.54 421.31 112.24 420.65 112.1 419.97 112.13 419.31 112.36 418.64 112.65 417.98 113.12 417.36 113.71 416.81 114.46 416.35 114.82 416.17 115.24 416.02 115.65 415.93 116.05 415.84 116.47 415.79 116.87 415.74 117.26 415.79 117.63 415.8 118.04 415.9 118.41 416.03 118.73 416.17 119.05 416.35 119.35 416.56 119.62 416.77 119.86 417.04 120.1 417.34 120.1 417.34 120.1 417.34 120.1 417.34"></polygon><polygon class="cls-19" points="83.1 408.8 83.13 408.58 81 414.18 81.67 414.4 83.8 408.81 83.81 408.66 83.1 408.8 83.1 408.8 83.1 408.8 83.1 408.8"></polygon><polygon class="cls-19" points="83.04 408.51 83.05 408.48 83.1 408.8 83.81 408.66 83.73 408.34 83.75 408.3 83.04 408.51 83.04 408.51 83.04 408.51 83.04 408.51"></polygon><polygon class="cls-19" points="82.96 408.19 83.04 408.51 83.75 408.3 83.67 407.98 82.96 408.19 82.96 408.19 82.96 408.19 82.96 408.19"></polygon><polygon class="cls-19" points="82.87 407.9 82.96 408.19 83.67 407.98 83.58 407.69 82.87 407.9 82.87 407.9 82.87 407.9"></polygon><polygon class="cls-19" points="82.79 407.58 82.79 407.58 82.87 407.9 83.58 407.69 83.5 407.36 83.49 407.39 82.79 407.58 82.79 407.58 82.79 407.58 82.79 407.58"></polygon><polygon class="cls-19" points="82.7 407.17 82.7 407.28 82.79 407.58 83.49 407.39 83.4 407.1 83.43 407.23 82.7 407.17 82.7 407.17 82.7 407.17"></polygon><polygon class="cls-19" points="83.42 407.04 82.72 406.91 82.7 407.17 83.43 407.23 83.44 406.97 82.74 406.85 83.41 407.07 83.41 407.07 83.42 407.04 83.42 407.04"></polygon><polygon class="cls-18" points="84.03 423.33 83.97 422.97 83.22 423.09 83.27 423.48 84.03 423.33 84.03 423.33 84.03 423.33 84.03 423.33"></polygon><polygon class="cls-19" points="85.59 418.66 85.61 418.48 83.5 424.04 84.17 424.27 86.28 418.7 86.27 418.51 85.59 418.66 85.59 418.66 85.59 418.66 85.59 418.66"></polygon><polygon class="cls-19" points="85.53 418.27 85.59 418.66 86.27 418.51 86.22 418.12 85.5 418.26 85.5 418.26 85.53 418.27 85.53 418.27"></polygon><polygon class="cls-19" points="85.43 417.9 85.5 418.26 86.22 418.12 86.12 417.75 85.43 417.9 85.43 417.9 85.43 417.9 85.43 417.9"></polygon><polygon class="cls-19" points="85.34 417.49 85.37 417.54 85.43 417.9 86.12 417.75 86.06 417.36 86.08 417.41 85.34 417.49 85.34 417.49 85.34 417.49 85.34 417.49"></polygon><polygon class="cls-19" points="86.02 417.16 85.3 417.07 85.34 417.49 86.08 417.41 86.03 417.01 85.31 416.92 86.02 417.16 86.02 417.16 86.02 417.16"></polygon><polygon class="cls-17" points="81.01 413.07 80.67 413.17 81.01 413.07 81.01 413.07"></polygon><polygon class="cls-17" points="81.36 414.24 81.37 414.2 81.54 414.21 81.67 414.4 81.36 414.3 81.36 414.24"></polygon><polygon class="cls-12" points="80.59 412.85 80.95 412.78 80.96 412.52 83.09 406.92 83.07 406.96 83.07 407.18 83.13 407.46 83.24 407.8 83.33 408.09 83.41 408.41 83.47 408.69 83.47 408.69 83.8 408.81 81.67 414.4 81.54 414.21 81.37 414.2 81.36 414.24 81.36 414.3 81.67 414.4 81.36 414.38 81.37 414.64 81.15 414.37 80.98 414.36 80.93 414.04 81.06 414.02 81.2 413.66 80.85 413.75 80.74 413.5 80.67 413.17 81.01 413.07 81.01 413.07 80.67 413.17 80.68 413.14 80.59 412.85"></polygon><polygon class="cls-4" points="97.91 414.38 97.91 414.38 98.22 413.69 97.91 414.38"></polygon><polygon class="cls-12" points="81.35 413.92 96.93 413.41 97.33 413.43 97.4 413.46 97.78 413.55 97.82 413.56 98.22 413.69 98.61 413.86 98.64 413.87 99.01 414.11 99.08 414.13 99.37 414.38 99.46 414.44 99.67 414.7 99.69 414.75 99.84 414.98 99.85 415.06 99.16 415.27 99.06 415.09 99.05 415.13 98.87 414.88 98.87 414.88 98.63 414.69 98.69 414.75 98.31 414.55 98.31 414.54 97.91 414.38 97.91 414.38 97.58 414.26 97.2 414.17 97.27 414.2 96.91 414.15 96.91 414.12 81.37 414.64 81.35 413.92"></polygon><polygon class="cls-12" points="99.15 415.27 99.16 415.27 99.2 415.33 99.15 415.27"></polygon><polygon class="cls-19" points="107.47 428.35 107.47 428.13 105.34 433.72 106.05 433.96 108.18 428.36 108.18 428.14 107.47 428.35 107.47 428.35 107.47 428.35 107.47 428.35"></polygon><polygon class="cls-19" points="101.32 409.76 101.27 409.67 107.47 428.35 108.18 428.14 101.98 409.46 101.97 409.38 101.32 409.76 101.32 409.76 101.32 409.76 101.32 409.76"></polygon><polygon class="cls-19" points="101.2 409.58 101.17 409.53 101.32 409.76 101.97 409.38 101.82 409.15 101.79 409.14 101.16 409.56 101.16 409.56 101.2 409.58 101.2 409.58"></polygon><polygon class="cls-19" points="101.05 409.34 100.99 409.28 101.16 409.56 101.79 409.14 101.55 408.84 101.5 408.78 101.05 409.34 101.05 409.34 101.05 409.34 101.05 409.34"></polygon><polygon class="cls-19" points="100.8 409.18 100.75 409.13 101.05 409.34 101.5 408.78 101.2 408.57 101.14 408.51 100.8 409.18 100.8 409.18 100.8 409.18"></polygon><polygon class="cls-19" points="100.47 408.96 100.44 408.95 100.8 409.18 101.14 408.51 100.76 408.31 100.73 408.3 100.47 408.96 100.47 408.96 100.47 408.96"></polygon><polygon class="cls-19" points="100.11 408.8 100.03 408.81 100.47 408.96 100.73 408.3 100.33 408.13 100.3 408.12 100.07 408.83 100.07 408.83 100.11 408.8 100.11 408.8"></polygon><polygon class="cls-19" points="99.71 408.67 99.66 408.69 100.07 408.83 100.3 408.12 99.9 407.98 99.9 407.98 99.7 408.7 99.7 408.7 99.71 408.67 99.71 408.67"></polygon><polygon class="cls-19" points="99.39 408.6 99.33 408.58 99.7 408.7 99.9 407.98 99.48 407.88 99.45 407.87 99.39 408.6 99.39 408.6 99.39 408.6 99.39 408.6"></polygon><polygon class="cls-19" points="99.03 408.56 99.03 408.59 99.39 408.6 99.45 407.87 99.06 407.82 99.01 407.84 99.03 408.56 99.03 408.56 99.03 408.56"></polygon><polygon class="cls-19" points="83.83 408.82 83.45 409.06 99.03 408.56 99.01 407.84 83.47 408.36 83.13 408.58 83.8 408.81 83.8 408.81 83.83 408.82 83.83 408.82"></polygon><polygon class="cls-17" points="87.75 425.83 87.69 425.81 87.73 425.79 87.75 425.83"></polygon><polygon class="cls-17" points="96.16 428.35 96.1 429.11 96.16 428.35 96.16 428.35"></polygon><polygon class="cls-4" points="96.13 428.71 96.1 429.11 96.13 428.71 96.13 428.71"></polygon><polygon class="cls-4" points="83.51 422.65 83.53 422.6 83.54 422.67 83.51 422.65"></polygon><path class="cls-12" d="M83.27,423.48l.07.36.13.38.17.28.95.5.95.51.92.49.93.46h.03s.94.44.94.44l.94.43,1.02.42,1.03.38h.03s1.1.3,1.1.3l1.1.29h.03s1.21.19,1.21.19l1.24.19h.03s1.35.09,1.35.09l.04-.02,1.44.04,1.54-.04,1.63-.09.34-.22,2.12-5.56-.36-.49.02.72-.11-.14.08-.21h-.24s-.1-.11-.1-.11l-.05.14-1.21.08h-1.57l-1.45-.04-1.32-.07-1.29-.17-1.2-.21-1.1-.29-1.1-.29-1.03-.38-1-.37-.94-.42-.93-.46-.96-.47-.92-.49-.92-.49-.64-.34.02-.05-.34-.11h0l-.09-.4-.07-.36-.03-.12.25-.55-.35-.12h-.02s-.34-.12-.34-.12l-2.12,5.56-.02.18.06.39.04.43ZM83.53,422.6v.07s-.02-.02-.02-.02l.02-.05Z"></path><polygon class="cls-19" points="102.6 423.59 104.24 423.5 104.22 422.78 102.58 422.87 102.6 423.59 102.6 423.59 102.6 423.59 102.6 423.59"></polygon><polygon class="cls-19" points="101.06 423.63 102.6 423.59 102.58 422.87 101.04 422.92 101.06 423.63 101.06 423.63 101.06 423.63 101.06 423.63"></polygon><polygon class="cls-19" points="99.58 423.59 99.62 423.6 101.06 423.63 101.04 422.92 99.59 422.89 99.64 422.86 99.57 423.62 99.57 423.62 99.58 423.59 99.58 423.59"></polygon><polygon class="cls-19" points="98.19 423.5 98.23 423.51 99.57 423.62 99.64 422.86 98.28 422.78 98.32 422.79 98.19 423.5 98.19 423.5 98.19 423.5 98.19 423.5"></polygon><polygon class="cls-19" points="96.94 423.34 98.19 423.5 98.32 422.79 97.07 422.6 96.94 423.34 96.94 423.34 96.94 423.34"></polygon><polygon class="cls-19" points="95.71 423.12 95.74 423.13 96.94 423.34 97.07 422.6 95.83 422.41 95.86 422.42 95.71 423.12 95.71 423.12 95.71 423.12 95.71 423.12"></polygon><polygon class="cls-19" points="94.61 422.83 95.71 423.12 95.86 422.42 94.77 422.13 94.6 422.86 94.6 422.86 94.61 422.83 94.61 422.83"></polygon><polygon class="cls-19" points="93.47 422.56 93.5 422.57 94.6 422.86 94.77 422.13 93.67 421.84 93.71 421.85 93.47 422.56 93.47 422.56 93.47 422.56"></polygon><polygon class="cls-19" points="92.44 422.18 92.44 422.18 93.47 422.56 93.71 421.85 92.68 421.47 92.71 421.48 92.41 422.17 92.41 422.17 92.44 422.18 92.44 422.18"></polygon><polygon class="cls-19" points="91.42 421.76 92.41 422.17 92.71 421.48 91.72 421.08 91.42 421.76 91.42 421.76 91.42 421.76"></polygon><polygon class="cls-19" points="90.48 421.33 91.42 421.76 91.72 421.08 90.77 420.69 90.48 421.33 90.48 421.33 90.48 421.33"></polygon><polygon class="cls-19" points="89.52 420.87 89.54 420.91 90.48 421.33 90.77 420.69 89.81 420.22 89.84 420.23 89.51 420.9 89.51 420.9 89.52 420.87 89.52 420.87"></polygon><polygon class="cls-19" points="88.59 420.4 89.51 420.9 89.84 420.23 88.91 419.77 88.58 420.44 88.58 420.44 88.59 420.4 88.59 420.4"></polygon><polygon class="cls-19" points="87.67 419.91 88.58 420.44 88.91 419.77 88 419.28 87.64 419.9 87.64 419.9 87.67 419.91 87.67 419.91"></polygon><polygon class="cls-19" points="86.72 419.41 87.64 419.9 88 419.28 87.08 418.78 86.72 419.41 86.72 419.41 86.72 419.41"></polygon><polygon class="cls-19" points="86.28 418.7 85.77 418.9 86.72 419.41 87.08 418.78 86.13 418.28 85.61 418.48 86.28 418.7 86.28 418.7 86.28 418.7 86.28 418.7"></polygon><polygon class="cls-19" points="183.32 408.62 181.19 414.22 188.14 416.54 189.75 412.82 189.79 412.46 189.81 412.09 189.75 411.7 189.61 411.32 189.39 410.98 189.21 410.62 188.92 410.27 188.62 409.94 188.31 409.65 187.96 409.35 187.6 409.08 187.25 408.89 186.92 408.67 186.53 408.5 186.18 408.31 185.84 408.19 185.54 408.09 185.18 408.05 184.86 408.01 184.54 408.06 184.23 408.1 183.9 408.22 183.6 408.42 183.32 408.62 183.32 408.62 183.32 408.62 183.32 408.62"></polygon><polygon class="cls-19" points="187.82 416.36 188.26 416.17 181.31 413.85 181.07 414.55 188.03 416.87 188.49 416.69 187.82 416.36 187.82 416.36 187.82 416.36"></polygon><polygon class="cls-4" points="189.17 417.97 189.21 418.35 189.17 417.97 189.17 417.97"></polygon><polygon class="cls-4" points="192.75 414.22 193.01 414.47 192.73 414.27 192.75 414.22"></polygon><polygon class="cls-4" points="193.01 414.47 192.73 414.27 192.75 414.22 193.01 414.47"></polygon><polygon class="cls-4" points="193.01 414.47 192.73 414.27 192.75 414.22 193.01 414.47"></polygon><polygon class="cls-12" points="80.59 412.51 80.62 412.41 82.74 406.85 83.41 407.07 81.36 412.57 81.31 412.79 81.3 412.71 80.59 412.85 80.58 412.77 80.59 412.51"></polygon><polygon class="cls-4" points="193.01 414.47 192.73 414.27 192.75 414.22 193.01 414.47"></polygon><polygon class="cls-17" points="114.67 425.68 114.55 425.75 114.54 425.74 114.67 425.68"></polygon><polygon class="cls-4" points="114.81 426 115.07 426.26 114.81 426 114.81 426"></polygon><polygon class="cls-4" points="193.01 414.47 192.73 414.27 192.75 414.22 193.01 414.47"></polygon><polygon class="cls-4" points="105.68 433.84 105.7 433.84 105.7 433.84 105.34 433.72 105.64 433.73 105.68 433.84"></polygon><path class="cls-12" d="M80.85,413.75l.08.32v-.03s.55-.12.55-.12l-.14.36,15.58-.51h.37s.4.14.4.14l.4.13.4.13.37.24.3.21.21.26.13.26-.37.11,6.2,18.67h.36s0,.24,0,.24h1.08s.48,0,.48,0l.44-.08.45-.11.45-.22.41-.35.49-.47v-.03s.29-.39.29-.39l.33-.42.37-.44.26-.44.32-.52.34-.45.28-.5.36-.52.29-.42.41-.46.34-.45.39-.39.35-.37.37-.32.36-.29.41-.23.09-.05-.27-.25h0l.27.25.41-.46.38-.36.33-.34.36-.29.35-.26.37-.21.33-.19.36-.18.4-.09.39-.17.4-.09.47-.07.51-.09.57-.03.62-.05.6-.02h.03s67.24-5.01,67.24-5.01l.39-.05.36-.07.32-.08.34-.11.31-.16.32-.19.27-.25.31-.27.07-.09,1.17-2.74-.61-.39.27.26-.04.04-.3-.21-.29.68-.2.12-.26.1-.3.12-.28.05-.36.07-.36.07-67.28,5.01-.43.04h-.41s-.41.02-.41.02l-.44.08h-.45l-.39.06-.43.04-.39.06-.44.08-.39.05-.4.09-.45.11-.4.09-.42.16-.43.16-.4.2-.79.48-.81.74-.85.88-.82.99-.79,1.04-.68.93-.67.89-.56.67-.33.08-.28.05-.35.04h-.67l-.29-.02h-.37s-.33-.04-.33-.04l-6.17-18.63-.13-.27-.21-.26-.3-.21-.4-.25-.39-.17-.4-.13-.38-.09h-.37s-15.57.47-15.57.47l-1.87,4.92v-.07s-.75.2-.75.2ZM192.73,414.27l.02-.05.25.24-.28-.2Z"></path><polygon class="cls-19" points="190.38 415.64 190.78 415.55 191.14 415.49 191.46 415.41 191.8 415.3 192.11 415.14 192.44 414.95 192.69 414.74 193.01 414.47 192.47 413.95 192.23 414.21 191.99 414.39 191.75 414.53 191.5 414.64 191.25 414.7 190.96 414.79 190.64 414.84 190.3 414.87 190.38 415.64 190.38 415.64 190.38 415.64"></polygon><polygon class="cls-19" points="123.15 420.63 190.38 415.64 190.3 414.87 123.06 419.89 123.15 420.63 123.15 420.63 123.15 420.63"></polygon><polygon class="cls-19" points="116.55 421.83 116.94 421.66 117.32 421.53 117.78 421.38 118.16 421.24 118.58 421.12 118.97 421.07 119.36 421.01 119.8 420.93 120.15 420.87 120.57 420.86 121 420.81 121.42 420.77 121.85 420.72 122.23 420.7 122.69 420.66 123.15 420.63 123.06 419.89 122.63 419.94 122.2 419.98 121.76 419.98 121.33 420.03 120.92 420.04 120.52 420.13 120.1 420.14 119.64 420.17 119.24 420.26 118.83 420.35 118.4 420.43 117.95 420.54 117.57 420.67 117.11 420.82 116.65 420.97 116.25 421.17 116.55 421.83 116.55 421.83 116.55 421.83 116.55 421.83"></polygon><polygon class="cls-19" points="110.53 428.47 110.67 428.37 110.98 428.03 111.24 427.67 111.57 427.26 111.9 426.81 112.29 426.34 112.63 425.86 113.02 425.35 113.42 424.85 113.82 424.31 114.23 423.85 114.64 423.43 115.05 422.97 115.4 422.6 115.84 422.3 116.19 422.01 116.55 421.83 116.25 421.17 115.79 421.42 115.4 421.7 114.94 422.07 114.5 422.49 114.1 422.91 113.7 423.34 113.25 423.9 112.86 424.4 112.46 424.9 112.07 425.41 111.73 425.89 111.35 426.36 111.01 426.81 110.68 427.22 110.42 427.58 110.17 427.87 110.3 427.8 110.53 428.47 110.53 428.47 110.53 428.47 110.53 428.47"></polygon><polygon class="cls-4" points="183.17 408.94 183.32 408.62 183.58 408.37 183.98 408.17 184.46 408.1 184.71 408.12 185 408.14 185.28 408.19 185.56 408.25 185.9 408.36 186.2 408.46 186.53 408.61 186.87 408.8 187.16 408.93 187.47 409.15 187.73 409.35 188.03 409.59 188.33 409.81 188.54 410.07 188.8 410.3 189.01 410.56 189.4 411.06 189.6 411.58 189.7 411.84 189.76 412 189.73 412.44 189.65 412.79 189.4 413.08 189.04 413.26 188.56 413.36 188.29 413.38 188.02 413.32 187.69 413.29 187.34 413.21 187.04 413.11 186.7 413 186.35 412.84 186.03 412.66 185.71 412.52 185.36 412.33 185.06 412.11 184.77 411.87 184.5 411.67 184.22 411.39 183.97 411.11 183.76 410.86 183.41 410.33 183.21 409.82 183.16 409.65 183.1 409.37 183.17 408.94"></polygon><polygon class="cls-20" points="97.65 408.24 99.03 408.22 99.15 408.22 87.23 404.24 86.62 404.6 97.64 408.27 97.64 408.27 97.65 408.24 97.65 408.24"></polygon><polygon class="cls-20" points="97.65 408.24 83.47 408.69 83.41 408.41 83.33 408.09 83.24 407.8 83.13 407.46 83.07 407.18 83.07 406.96 83.16 406.69 83.41 406.51 83.99 406.11 84.64 405.73 85.29 405.35 85.94 404.97 86.56 404.58 86.62 404.6 97.64 408.27 97.64 408.27 97.65 408.24 97.65 408.24"></polygon><polygon class="cls-22" points="89.03 416.86 98.69 416.31 102.47 417.84 103.8 421.79 104.21 423.16 102.6 423.26 101.04 423.26 99.59 423.22 98.27 423.15 96.98 422.98 95.79 422.77 94.69 422.48 93.59 422.19 92.56 421.81 91.57 421.44 90.63 421.01 89.7 420.55 88.73 420.08 87.82 419.59 86.9 419.09 85.95 418.59 85.86 418.19 85.79 417.83 85.7 417.43 85.65 417.04 89.03 416.86"></polygon><polygon class="cls-20" points="113.36 417.96 113.5 418.12 114.74 418.87 115.14 418.22 113.9 417.47 114.02 417.66 113.36 417.96 113.41 418.05 113.5 418.12 113.36 417.96 113.36 417.96 113.36 417.96"></polygon><polygon class="cls-20" points="102.31 418.19 102.1 417.94 103.87 423.27 104.57 423.05 102.81 417.72 102.62 417.51 102.81 417.72 102.75 417.56 102.62 417.51 102.31 418.19 102.31 418.19 102.31 418.19 102.31 418.19"></polygon><polygon class="cls-20" points="98.72 416.66 98.54 416.64 102.31 418.19 102.62 417.51 98.85 415.95 98.7 415.94 98.85 415.95 98.78 415.93 98.7 415.94 98.72 416.66 98.72 416.66 98.72 416.66 98.72 416.66"></polygon><polygon class="cls-20" points="86.03 417.01 85.67 417.42 98.72 416.66 98.7 415.94 85.65 416.7 85.3 417.07 85.65 416.7 85.23 416.71 85.3 417.07 86.03 417.01 86.03 417.01 86.03 417.01"></polygon><polygon class="cls-20" points="86.13 418.28 86.27 418.51 86.26 418.32 86.22 418.12 86.21 417.93 86.15 417.76 86.14 417.57 86.09 417.37 86.04 417.2 86.03 417.01 85.3 417.07 85.3 417.29 85.33 417.53 85.39 417.7 85.4 417.89 85.46 418.05 85.5 418.26 85.58 418.47 85.59 418.66 85.77 418.9 85.59 418.66 85.65 418.83 85.77 418.9 86.13 418.28 86.13 418.28 86.13 418.28"></polygon><polygon class="cls-20" points="103.88 423.23 104.18 422.77 102.58 422.87 101.04 422.92 99.64 422.86 98.28 422.78 97.07 422.6 95.86 422.42 94.77 422.13 93.71 421.85 92.68 421.47 91.72 421.08 90.77 420.69 89.84 420.23 88.91 419.77 88 419.28 87.08 418.78 86.13 418.28 85.77 418.9 86.72 419.41 87.64 419.9 88.58 420.44 89.51 420.9 90.48 421.33 91.42 421.76 92.44 422.18 93.47 422.56 94.6 422.86 95.71 423.12 96.94 423.34 98.23 423.51 99.57 423.62 101.06 423.63 102.6 423.59 104.27 423.51 104.57 423.05 104.27 423.51 104.73 423.48 104.57 423.05 103.87 423.27 103.87 423.27 103.88 423.23 103.88 423.23"></polygon><polygon class="cls-4" points="110.63 427.97 110.91 428.23 110.63 427.97 110.63 427.97"></polygon><polygon class="cls-4" points="108.15 427.87 108.09 427.87 108.09 427.87 108.15 427.87"></polygon><polygon class="cls-4" points="102.08 409.76 111.87 413.02 102.08 409.76 102.08 409.76"></polygon><polygon class="cls-20" points="123.06 419.89 122.56 419.92 122.01 419.99 121.52 420.02 120.98 420.06 120.47 420.15 119.92 420.23 119.37 420.3 118.85 420.43 118.32 420.55 117.86 420.7 117.36 420.87 116.89 421.04 116.48 421.24 116 421.46 115.61 421.74 115.25 422.03 115.7 422.59 116.05 422.33 116.38 422.11 116.75 421.89 117.18 421.74 117.59 421.5 118.04 421.39 118.57 421.27 119.03 421.12 119.53 421.07 119.98 420.96 120.51 420.91 121.03 420.82 121.58 420.74 122.11 420.7 122.62 420.64 123.15 420.63 123.06 419.89 123.06 419.89 123.06 419.89 123.06 419.89"></polygon><polygon class="cls-20" points="190.3 414.87 123.06 419.89 123.15 420.63 190.38 415.64 190.3 414.87 190.3 414.87 190.3 414.87"></polygon><polygon class="cls-20" points="191.55 410.77 191.83 411.16 192.12 411.52 192.26 411.9 192.47 412.27 192.58 412.61 192.61 412.96 192.63 413.26 192.6 413.55 192.53 413.78 192.41 414.01 192.27 414.22 192.01 414.43 191.74 414.57 191.32 414.72 190.87 414.84 190.3 414.87 190.38 415.64 190.99 415.59 191.53 415.43 192 415.25 192.41 415.02 192.79 414.77 193.06 414.41 193.21 414.09 193.34 413.68 193.33 413.27 193.35 412.87 193.26 412.46 193.12 412.01 192.95 411.61 192.73 411.16 192.44 410.7 192.14 410.34 191.55 410.77 191.55 410.77 191.55 410.77"></polygon><polygon class="cls-20" points="183.54 406.94 184.14 406.92 184.76 406.98 185.38 407.11 185.99 407.2 186.56 407.39 187.13 407.58 187.68 407.84 188.19 408.09 188.73 408.37 189.23 408.69 189.75 409.01 190.13 409.33 190.53 409.68 190.93 410.08 191.25 410.45 191.55 410.77 192.14 410.34 191.8 409.92 191.41 409.53 191.01 409.14 190.58 408.77 190.1 408.42 189.62 408.07 189.12 407.76 188.56 407.42 187.98 407.15 187.39 406.92 186.78 406.72 186.15 406.51 185.52 406.37 184.88 406.27 184.15 406.21 183.51 406.22 183.54 406.94 183.54 406.94 183.54 406.94"></polygon><polygon class="cls-20" points="124.04 408.99 183.54 406.94 183.51 406.22 124.05 408.28 124.04 408.99 124.04 408.99 124.04 408.99"></polygon><polygon class="cls-20" points="114.65 407.5 115.21 407.72 115.8 407.84 116.38 408.03 116.97 408.16 117.59 408.29 118.18 408.45 118.82 408.55 119.39 408.63 119.98 408.75 120.6 408.81 121.2 408.9 121.79 408.91 122.36 408.99 122.97 408.97 123.52 409 124.04 408.99 124.05 408.28 123.49 408.28 122.95 408.25 122.43 408.23 121.85 408.18 121.27 408.14 120.69 408.09 120.11 408.01 119.51 407.92 118.92 407.8 118.35 407.72 117.76 407.57 117.16 407.48 116.58 407.32 115.96 407.15 115.44 407.02 114.87 406.83 114.64 407.53 114.64 407.53 114.65 407.5 114.65 407.5"></polygon><polygon class="cls-20" points="94.58 401.99 95.6 401.85 96.56 401.76 97.48 401.69 98.32 401.64 99.12 401.6 99.83 401.69 100.57 401.71 101.19 401.77 101.82 401.87 102.42 402 102.98 402.11 103.48 402.28 104.02 402.45 104.44 402.63 104.97 402.85 105.38 403.06 105.86 403.3 106.35 403.53 106.82 403.8 107.29 404.07 107.76 404.34 108.25 404.65 108.73 404.89 109.26 405.21 109.84 405.48 110.4 405.82 111.02 406.06 111.63 406.37 112.31 406.68 113.05 406.92 113.83 407.26 114.64 407.53 114.87 406.83 114.07 406.56 113.28 406.25 112.61 406 111.92 405.73 111.28 405.4 110.73 405.14 110.17 404.81 109.63 404.55 109.09 404.26 108.58 403.98 108.11 403.71 107.62 403.4 107.15 403.13 106.67 402.89 106.19 402.66 105.75 402.4 105.27 402.17 104.75 401.95 104.25 401.75 103.72 401.57 103.15 401.38 102.55 401.26 101.95 401.17 101.29 401.02 100.61 400.94 99.9 400.93 99.08 400.92 98.3 400.92 97.39 400.95 96.47 401.02 95.5 401.14 94.49 401.26 94.55 401.98 94.55 401.98 94.58 401.99 94.58 401.99"></polygon><polygon class="cls-20" points="83.6 406.84 84.18 406.43 84.83 406.05 85.48 405.67 86.14 405.26 86.75 404.9 87.43 404.53 88.07 404.18 88.73 403.88 89.43 403.56 90.14 403.23 90.83 402.94 91.55 402.7 92.32 402.51 93.03 402.29 93.8 402.1 94.55 401.98 94.49 401.26 93.65 401.42 92.86 401.57 92.07 401.79 91.34 401.99 90.6 402.31 89.84 402.57 89.14 402.86 88.44 403.19 87.72 403.55 87.04 403.92 86.4 404.26 85.75 404.64 85.1 405.02 84.45 405.4 83.84 405.8 83.22 406.19 83.57 406.82 83.57 406.82 83.6 406.84 83.6 406.84"></polygon><polygon class="cls-20" points="83.47 408.36 83.85 408.67 83.73 408.34 83.67 407.98 83.58 407.69 83.5 407.36 83.45 407.16 83.42 407.04 83.48 406.87 83.57 406.82 83.22 406.19 82.9 406.49 82.73 406.88 82.68 407.24 82.79 407.58 82.87 407.9 82.96 408.19 83.05 408.48 83.11 408.76 83.45 409.06 83.11 408.76 83.12 409.06 83.45 409.06 83.47 408.36 83.47 408.36 83.47 408.36"></polygon><polygon class="cls-4" points="110.93 411.03 110.94 411.03 110.84 411.41 110.93 411.03"></polygon><polygon class="cls-22" points="110.95 411 110.94 411.03 110.93 411.03 110.95 411"></polygon><polygon class="cls-22" points="110.78 411.17 110.93 411.03 110.84 411.41 110.78 411.17"></polygon><polygon class="cls-4" points="183.32 408.62 183.58 408.37 183.98 408.17 184.46 408.1 184.71 408.12 185 408.14 185.28 408.19 185.56 408.25 185.9 408.36 186.2 408.46 186.53 408.61 186.87 408.8 187.16 408.93 187.47 409.15 187.73 409.35 188.03 409.59 188.33 409.81 188.54 410.07 188.8 410.3 189.01 410.56 189.4 411.06 189.6 411.58 189.7 411.84 189.76 412 189.73 412.44 189.65 412.79 189.4 413.08 189.04 413.26 188.56 413.36 188.29 413.38 188.02 413.32 187.69 413.29 187.34 413.21 187.04 413.11 186.7 413 186.35 412.84 186.03 412.66 185.71 412.52 185.36 412.33 185.06 412.11 184.77 411.87 184.5 411.67 184.22 411.39 183.97 411.11 183.76 410.86 183.41 410.33 183.21 409.82 183.16 409.65 183.1 409.37 183.17 408.94 183.32 408.62"></polygon><polygon class="cls-4" points="118.51 410.98 118.51 410.98 118.18 411.14 118.51 410.98"></polygon><polygon class="cls-4" points="120.93 417.09 121.17 417.28 121.19 417.33 120.55 418.12 114.93 418.52 113.71 417.82 113.7 417.81 114.02 417.66 111.63 411.37 112.03 410.97 117.14 410.68 118.22 411.24 120.87 417.49 120.93 417.09"></polygon><polygon class="cls-4" points="101.75 409.09 101.75 409.09 111.16 412.23 101.75 409.09"></polygon><polygon class="cls-4" points="183.32 408.62 183.58 408.37 183.98 408.17 184.46 408.1 184.71 408.12 185 408.14 185.28 408.19 185.56 408.25 185.9 408.36 186.2 408.46 186.53 408.61 186.87 408.8 187.16 408.93 187.47 409.15 187.73 409.35 188.03 409.59 188.33 409.81 188.54 410.07 188.8 410.3 189.01 410.56 189.4 411.06 189.6 411.58 189.7 411.84 189.76 412 189.73 412.44 189.65 412.79 189.4 413.08 189.04 413.26 188.56 413.36 188.29 413.38 188.02 413.32 187.69 413.29 187.34 413.21 187.04 413.11 186.7 413 186.35 412.84 186.03 412.66 185.71 412.52 185.36 412.33 185.06 412.11 184.77 411.87 184.5 411.67 184.22 411.39 183.97 411.11 183.76 410.86 183.41 410.33 183.21 409.82 183.16 409.65 183.1 409.37 183.17 408.94 183.32 408.62"></polygon><polygon class="cls-4" points="117.14 410.68 118.22 411.24 120.87 417.49 120.93 417.09 121.17 417.28 121.19 417.33 120.55 418.12 114.93 418.52 113.71 417.82 113.7 417.81 114.02 417.66 111.63 411.37 112.03 410.97 117.14 410.68"></polygon><polygon class="cls-4" points="101.75 409.09 101.75 409.09 111.16 412.23 101.75 409.09"></polygon><polygon class="cls-4" points="183.32 408.62 183.58 408.37 183.98 408.17 184.46 408.1 184.71 408.12 185 408.14 185.28 408.19 185.56 408.25 185.9 408.36 186.2 408.46 186.53 408.61 186.87 408.8 187.16 408.93 187.47 409.15 187.73 409.35 188.03 409.59 188.33 409.81 188.54 410.07 188.8 410.3 189.01 410.56 189.4 411.06 189.6 411.58 189.7 411.84 189.76 412 189.73 412.44 189.65 412.79 189.4 413.08 189.04 413.26 188.56 413.36 188.29 413.38 188.02 413.32 187.69 413.29 187.34 413.21 187.04 413.11 186.7 413 186.35 412.84 186.03 412.66 185.71 412.52 185.36 412.33 185.06 412.11 184.77 411.87 184.5 411.67 184.22 411.39 183.97 411.11 183.76 410.86 183.41 410.33 183.21 409.82 183.16 409.65 183.1 409.37 183.17 408.94 183.32 408.62"></polygon><polygon class="cls-4" points="117.14 410.68 118.22 411.24 120.87 417.49 120.93 417.09 121.17 417.28 121.19 417.33 120.56 418.12 120.52 417.78 114.9 418.18 115.14 418.22 114.95 418.52 114.93 418.52 113.71 417.82 113.7 417.81 114.02 417.66 111.63 411.37 112.03 410.97 117.14 410.68"></polygon><polygon class="cls-4" points="101.75 409.09 101.75 409.09 111.16 412.23 101.75 409.09"></polygon><polygon class="cls-4" points="121.07 416.1 131.72 419.65 121.07 416.1 121.07 416.1"></polygon><polygon class="cls-4" points="120.79 415.44 133.06 419.54 120.79 415.44 120.79 415.44"></polygon><polygon class="cls-4" points="183.32 408.62 183.58 408.37 183.98 408.17 184.46 408.1 184.71 408.12 185 408.14 185.28 408.19 185.56 408.25 185.9 408.36 186.2 408.46 186.53 408.61 186.87 408.8 187.16 408.93 187.47 409.15 187.73 409.35 188.03 409.59 188.33 409.81 188.54 410.07 188.8 410.3 189.01 410.56 189.4 411.06 189.6 411.58 189.7 411.84 189.76 412 189.73 412.44 189.65 412.79 189.4 413.08 189.04 413.26 188.56 413.36 188.29 413.38 188.02 413.32 187.69 413.29 187.34 413.21 187.04 413.11 186.7 413 186.35 412.84 186.03 412.66 185.71 412.52 185.36 412.33 185.06 412.11 184.77 411.87 184.5 411.67 184.22 411.39 183.97 411.11 183.76 410.86 183.41 410.33 183.21 409.82 183.16 409.65 183.1 409.37 183.17 408.94 183.32 408.62"></polygon><polygon class="cls-4" points="117.14 410.68 118.22 411.24 120.87 417.49 120.93 417.09 121.17 417.28 121.19 417.33 120.56 418.12 120.55 418.12 114.95 418.52 114.93 418.52 113.71 417.82 113.7 417.81 114.02 417.66 111.63 411.37 112.03 410.97 117.14 410.68"></polygon><polygon class="cls-4" points="101.75 409.09 101.75 409.09 111.16 412.23 101.75 409.09"></polygon><polygon class="cls-22" points="120.79 415.44 133.06 419.54 131.73 419.62 131.72 419.65 121.07 416.1 120.79 415.44"></polygon><polygon class="cls-4" points="183.32 408.62 183.58 408.37 183.98 408.17 184.46 408.1 184.71 408.12 185 408.14 185.28 408.19 185.56 408.25 185.9 408.36 186.2 408.46 186.53 408.61 186.87 408.8 187.16 408.93 187.47 409.15 187.73 409.35 188.03 409.59 188.33 409.81 188.54 410.07 188.8 410.3 189.01 410.56 189.4 411.06 189.6 411.58 189.7 411.84 189.76 412 189.73 412.44 189.65 412.79 189.4 413.08 189.04 413.26 188.56 413.36 188.29 413.38 188.02 413.32 187.69 413.29 187.34 413.21 187.04 413.11 186.7 413 186.35 412.84 186.03 412.66 185.71 412.52 185.36 412.33 185.06 412.11 184.77 411.87 184.5 411.67 184.22 411.39 183.97 411.11 183.76 410.86 183.41 410.33 183.21 409.82 183.16 409.65 183.1 409.37 183.17 408.94 183.32 408.62"></polygon><polygon class="cls-4" points="117.14 410.68 118.22 411.24 120.78 417.28 120.39 417.79 114.9 418.18 115.14 418.22 114.95 418.52 114.93 418.52 113.71 417.82 113.7 417.81 114.02 417.66 111.63 411.37 112.03 410.97 117.14 410.68"></polygon><polygon class="cls-4" points="120.93 417.09 121.17 417.28 121.17 417.28 120.93 417.09"></polygon><polygon class="cls-4" points="101.75 409.09 101.75 409.09 111.16 412.23 101.75 409.09"></polygon><path class="cls-22" d="M83.45,409.06l15.58-.51.33.03.3.1.4.14.37.12.33.22.25.16.14.23.11.11,6.2,18.67.09.29h.3s.31-.05.31-.05l.36.04.44.04h.41s.4.01.4.01l.37-.1.41-.12.34-.22.4-.43.33-.45.31-.38.31-.38.27-.36.26-.32.22-.34.27-.36.22-.33.26-.32.26-.33.28-.28.29-.31.34-.34.34-.34.43-.38-.23-.29.34-.27.38-.25.44-.19.4-.2.44-.19.49-.13.51-.17.49-.13.47-.07.51-.09.55-.08.51-.09.54-.04.54-.04.5-.06.49-.02,8.64-.62-10.65-3.55-.28-.65h0l12.27,4.1,57.29-4.28,1.06-.17.79-.37.55-.53.2-.6v-.67s.01-.03.01-.03l-.19-.77-.38-.76-.55-.82-.32-.37-.36-.38-.39-.39-.41-.33-.44-.37-.49-.32-.52-.32-.53-.32-.56-.22-.55-.26-.6-.2-.64-.21-.6-.09-.63-.13-.65-.07h-.64s-8.65.33-8.65.33l-50.81,1.74h-1.08s-.59,0-.59,0l-.57-.08-.58-.04-.58-.04-.57-.08-.61-.09-.6-.09-.59-.12-.59-.12-.59-.12-.62-.17-.58-.16-.55-.14-.57-.19-.81-.27-.79-.3-.69-.27-.69-.27-.61-.32-.58-.27-.6-.32-.55-.26-.53-.32-.47-.27-.5-.28-.47-.27-.5-.28-.47-.27-.45-.22-.47-.27-.48-.23-.49-.2-.47-.16-.54-.18-.57-.19-.55-.15-.6-.09-.64-.1-.65-.07-.73-.05-.77-.04-.79.03-.83.02-.93.1-.96.09-1.05.13-.78.11-.77.19-.77.19-.72.25-.76.27-.73.28-.69.29-.71.32-.67.34-.68.37,10.87,3.63-14.63.49v.7ZM183.1,409.37l.07-.43.15-.32.27-.25.4-.2.47-.07h.26s.29.03.29.03l.28.06.28.06.34.11.3.1.33.14.35.19.29.13.3.21.27.2.29.25.3.21.21.26.26.23.21.26.39.51.2.51.1.26.06.17-.03.44-.08.35-.25.29-.36.18-.48.1-.27.02-.28-.06-.33-.03-.35-.08-.3-.1-.33-.11-.36-.15-.31-.18-.33-.14-.35-.19-.3-.21-.29-.25-.27-.2-.28-.28-.25-.27-.21-.26-.35-.53-.2-.52-.06-.17-.06-.28ZM121.17,417.28h0l-.24-.19.24.19ZM111.63,411.37l.4-.4,5.11-.29,1.08.56,2.57,6.04-.4.51-5.49.39.25.05-.19.3h-.03s-1.22-.7-1.22-.7h0s.32-.16.32-.16l-2.39-6.3Z"></path><polygon class="cls-19" points="179.64 413.25 179.33 413.08 179.27 412.79 179.72 412.68 179.81 412.97 179.54 412.77 179.64 413.25 179.64 413.25 179.64 413.25"></polygon><polygon class="cls-19" points="180.25 412.89 180.18 412.99 180.07 413.1 179.93 413.16 179.8 413.23 179.64 413.25 179.54 412.77 179.61 412.79 179.71 412.72 179.83 412.68 179.84 412.65 179.82 412.72 180.23 412.93 180.23 412.93 180.25 412.89 180.25 412.89"></polygon><polygon class="cls-19" points="178.98 410.08 179.01 410.09 179.23 410.35 179.51 410.63 179.78 410.95 180.03 411.29 180.24 411.66 180.37 412.08 180.37 412.52 180.23 412.93 179.82 412.72 179.91 412.45 179.89 412.18 179.81 411.85 179.61 411.56 179.39 411.23 179.14 410.96 178.86 410.68 178.65 410.42 178.68 410.43 178.98 410.08 178.98 410.08 178.98 410.08"></polygon><polygon class="cls-19" points="174.86 408.9 174.83 408.88 175.42 408.9 175.98 408.9 176.51 409 177.01 409.05 177.53 409.19 178.01 409.42 178.51 409.7 178.98 410.08 178.68 410.43 178.22 410.13 177.78 409.87 177.37 409.66 176.92 409.55 176.43 409.46 175.93 409.4 175.41 409.38 174.88 409.39 174.9 409.35 174.82 408.92 174.82 408.92 174.86 408.9 174.86 408.9"></polygon><polygon class="cls-19" points="131.18 411.19 131.37 411.06 174.82 408.92 174.9 409.35 131.44 411.53 131.63 411.41 131.18 411.19 131.18 411.19 131.18 411.19"></polygon><polygon class="cls-19" points="130.15 412.71 129.68 412.55 129.72 412.23 129.81 411.96 129.94 411.67 130.12 411.46 130.36 411.32 130.66 411.2 130.99 411.09 131.37 411.06 131.44 411.53 131.08 411.6 130.76 411.68 130.6 411.7 130.44 411.84 130.37 411.96 130.24 412.1 130.18 412.31 130.19 412.61 129.72 412.45 130.15 412.71 130.15 412.71 130.15 412.71"></polygon><polygon class="cls-4" points="131.38 411.08 131.44 411.53 131.38 411.08 131.38 411.08"></polygon><polygon class="cls-4" points="130.19 412.61 130.24 412.33 130.38 412.04 130.49 411.81 130.72 411.67 131 411.61 131.4 411.55 131.44 411.53 174.9 409.35 175.62 409.41 176.23 409.39 176.8 409.47 177.32 409.57 177.81 409.8 178.24 410.06 178.65 410.42 179.11 410.95 179.51 411.42 179.8 411.89 179.94 412.23 179.94 412.46 179.84 412.65 179.56 412.82 179.04 412.94 178.3 413.03 133.65 415.33 133.61 415.32 132.98 415.3 132.37 415.13 131.82 414.87 131.35 414.6 130.96 414.21 130.68 413.82 130.43 413.44 130.24 413.11 130.21 412.88 130.19 412.61"></polygon><path class="cls-4" d="M130.24,412.33l-.06.28.02.27.03.23.19.32.25.38.28.39.39.39.47.27.55.26.62.17.63.02h.03s44.65-2.29,44.65-2.29l.74-.09.53-.12.28-.17.1-.19v-.22l-.14-.35-.29-.47-.4-.47-.46-.53-.4-.36-.44-.26-.48-.23-.53-.1-.57-.08-.61.02-.73-.06-43.46,2.18-.04.02-.39.06-.28.06-.24.14-.11.22-.13.29ZM130.86,412.05l43.45-2.18.02-.07.58.04h.56l.53.1.5.05.52.14.48.23.47.27.5.39.19.21.17.17.16.2.13.16.19.21.15.24.12.19.12.19v.08s-.44.11-.44.11v.08s-.1-.23-.1-.23l-.12-.19-.17-.17-.12-.19-.13-.16-.16-.2-.17-.17-.2-.18h.01s-.4-.31-.4-.31l-.42-.29-.42-.18-.45-.11-.49-.09-.5-.05-.55-.04h-.53s-43.44,2.15-43.44,2.15l-.04-.42Z"></path><path class="cls-4" d="M130.24,412.33l-.06.28.02.27.03.23.19.32.25.38.28.39.39.39.47.27.55.26.62.17.63.02h.03s44.65-2.29,44.65-2.29l.74-.09.53-.12.28-.17.1-.19v-.22l-.14-.35-.29-.47-.4-.47-.46-.53-.4-.36-.44-.26-.48-.23-.53-.1-.57-.08-.61.02-.73-.06-43.46,2.18-.04.02-.39.06-.28.06-.24.14-.11.22-.13.29Z"></path><polygon class="cls-4" points="130.38 412.04 130.49 411.81 130.72 411.67 131 411.61 131.26 411.57 130.9 412.25 174.36 410.07 174.92 410.07 175.43 410.09 175.96 410.19 176.46 410.25 176.94 410.38 177.4 410.57 177.86 410.87 178.31 411.2 178.47 411.41 178.63 411.57 178.79 411.77 178.96 411.94 179.08 412.13 179.24 412.34 179.36 412.52 179.51 412.76 179.53 412.83 179.04 412.94 178.3 413.03 133.65 415.33 133.61 415.32 132.98 415.3 132.37 415.13 131.82 414.87 131.35 414.6 130.96 414.21 130.68 413.82 130.43 413.44 130.24 413.11 130.21 412.88 130.19 412.61 130.24 412.33 130.38 412.04"></polygon><polygon class="cls-12" points="179.36 412.52 179.24 412.34 179.08 412.13 178.96 411.94 178.79 411.77 178.63 411.57 178.47 411.41 178.31 411.2 177.86 410.87 177.4 410.57 176.94 410.38 176.46 410.25 175.96 410.19 175.43 410.09 174.92 410.07 174.36 410.07 130.9 412.25 131.26 411.57 131.4 411.55 131.44 411.53 174.9 409.35 175.62 409.41 176.23 409.39 176.8 409.47 177.32 409.57 177.81 409.8 178.24 410.06 178.65 410.42 179.11 410.95 179.51 411.42 179.8 411.89 179.94 412.23 179.94 412.46 179.84 412.65 179.56 412.82 179.53 412.83 179.51 412.76 179.36 412.52"></polygon><polygon class="cls-4" points="130.26 412.28 130.3 412.27 130.52 412.27 130.9 412.25 131.27 411.57 131.4 411.55 131.44 411.53 174.9 409.35 175.62 409.41 176.23 409.39 176.8 409.47 177.32 409.57 177.81 409.8 178.24 410.06 178.65 410.42 179.11 410.95 179.51 411.42 179.8 411.89 179.94 412.23 179.94 412.46 179.84 412.65 179.56 412.82 179.53 412.83 179.04 412.94 178.3 413.03 133.65 415.33 133.61 415.32 132.98 415.3 132.37 415.13 131.82 414.87 131.35 414.6 130.96 414.21 130.68 413.82 130.43 413.44 130.24 413.11 130.21 412.88 130.19 412.61 130.24 412.33 130.26 412.28"></polygon><path class="cls-12" d="M129.68,412.55l.05.42.09.29.12.41.29.47.36.38.46.41.55.37.61.28.65.18h.79s44.64-2.26,44.64-2.26l.85-.09.6-.13.44-.3.25-.4v-.41s-.18-.51-.18-.51l-.32-.48-.45-.56-.46-.53-.49-.43-.52-.32-.51-.25-.56-.11-.67-.11h-.67l-.76.04-43.44,2.14h0s-.46.03-.46.03l-.47.18-.31.27-.21.3-.15.32-.09.38ZM130.19,412.61l.06-.28.02-.04h.04s.22,0,.22,0l.38-.02.36-.68.13-.02.04-.02,43.46-2.18.73.06.61-.02.57.08.53.1.48.23.44.26.4.36.46.53.4.47.29.47.14.35v.22l-.1.19-.28.17h-.04s-.49.12-.49.12l-.74.09-44.65,2.3h-.03s-.63-.04-.63-.04l-.62-.17-.55-.26-.47-.27-.39-.39-.28-.39-.25-.38-.19-.32-.03-.23-.02-.27Z"></path><path class="cls-16" d="M100.08,156.55c0,.68-.31,1.35-.93,2l-.1.1-5.43,5.72c-1.15,1.21-2.14,2.15-2.95,2.81-.81.66-1.38.99-1.72.99-.35,0-.79-.16-1.31-.5-.52-.33-.86-.67-1.01-1.02-.13-.29-.25-.91-.36-1.86-.11-.95-.17-1.98-.17-3.08,0-.6.25-1.16.76-1.67.5-.51,1.06-.77,1.67-.77s.93.53,1.04,1.59c.01.12.02.21.03.27.09.81.2,1.38.33,1.7.12.32.29.48.5.48.09,0,.25-.1.49-.28.24-.19.53-.45.86-.78l5.58-5.53c.47-.47.89-.82,1.26-1.06.37-.24.68-.36.94-.36.19,0,.33.07.41.22.08.15.12.39.12.74v.29Z"></path><line class="cls-6" x1="106.61" y1="170.25" x2="346.5" y2="170.25"></line><rect class="cls-13" x="747.02" y="388.36" width="26.98" height="54.64"></rect><line class="cls-5" x1="642.81" y1="388.19" x2="774" y2="388.19"></line><line class="cls-9" x1="660.46" y1="178.18" x2="757.44" y2="178.18"></line><line class="cls-2" x1="648.56" y1="263.76" x2="757.95" y2="263.76"></line><line class="cls-7" x1="656.8" y1="79.73" x2="748.44" y2="79.73"></line><path class="cls-16" d="M655.42,69.13c0,.69-.31,1.35-.93,2l-.1.1-5.43,5.72c-1.15,1.21-2.13,2.15-2.95,2.81-.81.66-1.38.99-1.72.99-.35,0-.79-.16-1.31-.5-.52-.33-.86-.67-1.01-1.02-.13-.29-.25-.91-.36-1.86-.11-.95-.17-1.98-.17-3.08,0-.6.25-1.16.75-1.67.5-.51,1.06-.77,1.67-.77s.92.53,1.04,1.59c.01.12.02.21.03.27.09.81.2,1.38.33,1.7.12.32.29.48.5.48.09,0,.25-.1.49-.29.24-.19.53-.45.86-.78l5.58-5.53c.47-.47.89-.82,1.26-1.06.37-.24.68-.36.94-.36.19,0,.33.07.41.22.08.15.12.39.12.74v.29Z"></path><path class="cls-16" d="M659.75,167.47c0,.69-.31,1.35-.93,2l-.1.1-5.43,5.72c-1.15,1.21-2.14,2.15-2.95,2.81-.81.66-1.38.99-1.72.99-.35,0-.79-.16-1.31-.5-.52-.33-.86-.67-1.01-1.02-.13-.29-.25-.91-.37-1.86-.11-.95-.17-1.98-.17-3.08,0-.6.25-1.16.76-1.67.5-.51,1.06-.77,1.67-.77s.92.53,1.04,1.59c.01.12.02.21.03.27.09.81.2,1.38.33,1.7.12.32.29.48.5.48.09,0,.25-.09.49-.29.24-.19.53-.45.86-.78l5.58-5.53c.47-.47.89-.82,1.26-1.06.37-.24.68-.36.94-.36.19,0,.33.07.41.22.08.15.12.39.12.74v.29Z"></path><path class="cls-16" d="M646.42,251.01c0,.69-.31,1.35-.93,2l-.1.1-5.43,5.72c-1.15,1.21-2.13,2.15-2.95,2.81-.81.66-1.38.99-1.72.99-.35,0-.79-.17-1.31-.5-.52-.33-.86-.67-1.01-1.02-.13-.29-.25-.91-.36-1.86-.12-.95-.17-1.97-.17-3.08,0-.6.25-1.16.76-1.67.5-.51,1.06-.77,1.67-.77s.92.53,1.04,1.59c.01.12.02.21.03.27.09.81.2,1.38.33,1.7.12.32.29.48.5.48.09,0,.25-.09.49-.28.24-.19.53-.45.86-.78l5.58-5.53c.47-.47.89-.82,1.26-1.06.37-.24.68-.36.94-.36.19,0,.33.07.41.22.08.15.12.39.12.74v.29Z"></path><path class="cls-16" d="M642.09,375.28c0,.69-.31,1.35-.93,2l-.1.1-5.43,5.72c-1.15,1.21-2.14,2.15-2.95,2.81-.81.66-1.38.99-1.72.99-.35,0-.79-.16-1.31-.49-.52-.33-.86-.67-1.01-1.02-.13-.29-.25-.91-.36-1.86-.11-.95-.17-1.98-.17-3.08,0-.6.25-1.16.75-1.67.5-.51,1.06-.77,1.67-.77s.92.53,1.04,1.59c.01.12.02.21.03.27.09.82.2,1.38.33,1.7.12.32.29.48.5.48.09,0,.25-.1.49-.29.24-.19.53-.45.86-.78l5.58-5.53c.47-.47.89-.82,1.26-1.06.37-.24.68-.36.94-.36.19,0,.33.07.41.22.08.15.12.39.12.74v.29Z"></path><path class="cls-16" d="M624.44,462.23c0,.69-.31,1.35-.93,2l-.1.1-5.43,5.72c-1.15,1.21-2.14,2.15-2.95,2.81-.81.66-1.38.99-1.72.99-.35,0-.79-.17-1.31-.5-.52-.33-.86-.67-1.01-1.02-.13-.29-.25-.91-.36-1.86-.12-.95-.17-1.98-.17-3.08,0-.6.25-1.16.75-1.67.5-.51,1.06-.77,1.67-.77s.92.53,1.04,1.59c.01.12.02.21.03.27.09.81.2,1.38.33,1.7.12.32.29.48.5.48.09,0,.25-.09.49-.29.24-.19.53-.45.86-.78l5.58-5.53c.47-.47.89-.82,1.25-1.06.37-.24.68-.36.94-.36.19,0,.33.07.41.22s.12.39.12.74v.29Z"></path></g></svg>