<?xml version="1.0" encoding="UTF-8" standalone="no"?>
<svg
     viewBox="0 0 2625 3300"
     width="2625"
     height="3300"
     version="1.1"
     id="svg203"
     sodipodi:docname="BridgeHookBox54Outside.svg"
     inkscape:version="1.4 (e7c3feb1, 2024-10-09)"
     xmlns:inkscape="http://www.inkscape.org/namespaces/inkscape"
     xmlns:sodipodi="http://sodipodi.sourceforge.net/DTD/sodipodi-0.dtd"
     xmlns="http://www.w3.org/2000/svg"
     xmlns:svg="http://www.w3.org/2000/svg">
    <sodipodi:namedview
         id="namedview203"
         pagecolor="#505050"
         bordercolor="#eeeeee"
         borderopacity="1"
         inkscape:showpageshadow="0"
         inkscape:pageopacity="0"
         inkscape:pagecheckerboard="0"
         inkscape:deskcolor="#d1d1d1"
         inkscape:zoom="0.096423651"
         inkscape:cx="674.10847"
         inkscape:cy="2945.3355"
         inkscape:window-width="1200"
         inkscape:window-height="1027"
         inkscape:window-x="62"
         inkscape:window-y="25"
         inkscape:window-maximized="0"
         inkscape:current-layer="svg203" />
    <defs
         id="defs1">
        <style
             id="style1">.cls-1,.cls-2,.cls-3,.cls-4,.cls-5,.cls-6,.cls-7,.cls-8,.cls-9,.cls-10,.cls-11,.cls-12,.cls-13,.cls-14,.cls-15,.cls-16,.cls-17,.cls-18,.cls-19,.cls-20,.cls-21,.cls-22,.cls-23,.cls-24,.cls-25,.cls-26,.cls-27,.cls-28,.cls-29,.cls-30,.cls-31,.cls-32,.cls-33,.cls-34,.cls-35,.cls-36{fill:none;}.cls-2{stroke-dasharray:4.85 4.85;}.cls-2,.cls-3,.cls-4,.cls-5,.cls-6,.cls-7,.cls-8,.cls-9,.cls-10,.cls-11,.cls-12,.cls-13,.cls-14,.cls-15,.cls-16,.cls-17,.cls-18,.cls-19,.cls-20,.cls-22,.cls-24,.cls-25,.cls-26,.cls-27,.cls-28,.cls-29,.cls-30,.cls-31,.cls-32,.cls-33,.cls-34,.cls-35{stroke-miterlimit:10;}.cls-2,.cls-3,.cls-4,.cls-6,.cls-8,.cls-9,.cls-10,.cls-11,.cls-12,.cls-13,.cls-14,.cls-15,.cls-16,.cls-17,.cls-18,.cls-19,.cls-20,.cls-22,.cls-24,.cls-25,.cls-26,.cls-27,.cls-28,.cls-31,.cls-32,.cls-33,.cls-34{stroke:#26aae1;}.cls-3{stroke-dasharray:4.85 4.85;}.cls-4{stroke-dasharray:4.9 4.9;}.cls-5{stroke:#0baa4b;}.cls-37,.cls-38,.cls-39,.cls-40{fill-rule:evenodd;}.cls-37,.cls-41{fill:#fff;}.cls-42,.cls-43,.cls-44,.cls-45{font-family:Arial-Black, 'Arial Black';font-weight:800;}.cls-42,.cls-44,.cls-45,.cls-46{fill:#231f20;}.cls-6{stroke-dasharray:4.97 4.97;}.cls-7{stroke:#ff0f00;}.cls-8{stroke-dasharray:4.86 4.86;}.cls-9{stroke-dasharray:4.86 4.86;}.cls-10{stroke-dasharray:4.86 4.86;}.cls-11{stroke-dasharray:4.99 4.99;}.cls-12{stroke-dasharray:4.91 4.91;}.cls-13{stroke-dasharray:4.91 4.91;}.cls-14{stroke-dasharray:5 5;}.cls-15{stroke-dasharray:5 5;}.cls-16{stroke-dasharray:4.91 4.91;}.cls-17{stroke-dasharray:5.02 5.02;}.cls-18{stroke-dasharray:5.02 5.02;}.cls-19{stroke-dasharray:5 5;}.cls-20{stroke-dasharray:5.02 5.02;}.cls-21,.cls-23,.cls-29,.cls-35,.cls-36{stroke-width:2px;}.cls-21,.cls-36{stroke:#2ba4dd;}.cls-23{stroke:#ec2224;}.cls-24{stroke-dasharray:4.98 4.98;}.cls-25{stroke-dasharray:4.98 4.98;}.cls-43{fill:#020202;}.cls-43,.cls-44{font-size:12.75px;}.cls-26{stroke-dasharray:4.93 4.93;}.cls-27{stroke-dasharray:4.93 4.93;}.cls-28{stroke-dasharray:4.91 4.91;}.cls-38{fill:#b7d333;}.cls-47{fill:#919396;}.cls-47,.cls-48,.cls-49,.cls-46,.cls-50{font-family:Arial-BoldMT, Arial;font-weight:700;}.cls-47,.cls-48,.cls-49,.cls-50{font-size:9px;}.cls-51{fill:#d0d1d2;}.cls-29{stroke:#0ea94b;}.cls-52{letter-spacing:0em;}.cls-30{stroke:red;}.cls-53{font-size:12.36px;}.cls-54{font-size:14.83px;}.cls-31{stroke-dasharray:5.4 5.4;}.cls-45{font-size:30px;}.cls-55{letter-spacing:0em;}.cls-32{stroke-dasharray:4.95 4.95;}.cls-56{opacity:.5;}.cls-48{fill:#2ba4dd;}.cls-33{stroke-dasharray:5.05 5.05;}.cls-34{stroke-dasharray:5.04 5.04;}.cls-35{stroke:#929395;}.cls-49{fill:#0baa4b;}.cls-36{stroke-dasharray:4.99 4.99;}.cls-57{letter-spacing:-.02em;}.cls-58{letter-spacing:-.02em;}.cls-59{letter-spacing:-.02em;}.cls-60{letter-spacing:-.02em;}.cls-61{letter-spacing:-.02em;}.cls-62{letter-spacing:-.02em;}.cls-63{letter-spacing:-.04em;}.cls-64{letter-spacing:-.04em;}.cls-65{letter-spacing:-.03em;}.cls-66{letter-spacing:-.03em;}.cls-67{letter-spacing:-.03em;}.cls-68{letter-spacing:-.03em;}.cls-69{letter-spacing:0em;}.cls-70,.cls-40{fill:#4e494b;}.cls-46{font-size:10px;}.cls-71{letter-spacing:.03em;}.cls-72{letter-spacing:.02em;}.cls-73{letter-spacing:.05em;}.cls-50{fill:#eb222a;}.cls-74{letter-spacing:.01em;}</style>
    </defs>
    <path
         class="cls-56"
         d="M -0.50001,-0.628584 V 3300.6286 H 2625.5 V -0.628584 Z"
         id="path1"
         style="stroke-width:4.16825"
         sodipodi:nodetypes="ccccc" />
    <path
         class="cls-7"
         d="m 1654.8804,3213.7622 c 0,26.6351 -21.5916,48.2684 -48.2684,48.2684 h -585.6397 c -26.67681,0 -48.26837,-21.6333 -48.26837,-48.2684 v 1.5005 c 0,0 -0.75028,-1238.7634 -0.75028,-1238.7634 H 728.86107 L 71.735832,1943.1116 V 952.73447 c 0,0 654.582608,-34.97165 654.582608,-34.97165 H 972.32879 V 679.29701 l -0.87533,-400.61089 c 0.87533,-89.65915 67.56744,-120.46254 115.41894,-123.6721 29.678,-2.00076 61.4401,-0.58356 85.2825,-0.58356 v 0 c 28.5108,0 14.4221,-33.6378 -5.7105,-23.71736 -24.9679,12.29635 -59.1892,-92.618604 113.2931,-92.743652 164.1875,-0.125048 140.3451,117.919902 173.1076,116.877842 v 0 c 0,0 1.7507,0.0417 1.7507,0.0417 h 80.3639 c 66.3169,0 120.0457,53.7288 120.0457,120.04572 v 404.36232 c 0,0 0,238.46581 0,238.46581 h 243.8429 l 654.3325,33.84622 v 990.37714 l -654.4992,34.5131 h -243.176 c 0,0 -0.7503,1238.7634 -0.7503,1238.7634 v -1.5005 z"
         id="clipping"
         style="stroke-width:4.16825;fill:#737373;fill-opacity:1;stroke:none" />
    <polyline
         class="cls-22"
         points="385.99 229.33 388.49 229.33 388.49 231.83"
         id="polyline1"
         transform="matrix(4.168254,0,0,4.168254,-0.50001,-0.628584)" />
    <line
         class="cls-16"
         x1="1618.825"
         y1="986.20557"
         x2="1618.825"
         y2="1918.3105"
         id="line1"
         style="stroke-width:4.16825" />
    <polyline
         class="cls-22"
         points="388.49 462.82 388.49 465.32 385.99 465.32"
         id="polyline2"
         transform="matrix(4.168254,0,0,4.168254,-0.50001,-0.628584)" />
    <line
         class="cls-8"
         x1="1588.1466"
         y1="1938.9434"
         x2="1031.3096"
         y2="1938.985"
         id="line2"
         style="stroke-width:4.16825" />
    <polyline
         class="cls-22"
         points="245.11 465.33 242.61 465.33 242.61 462.83"
         id="polyline3"
         transform="matrix(4.168254,0,0,4.168254,-0.50001,-0.628584)" />
    <line
         class="cls-12"
         x1="1010.7601"
         y1="1908.0566"
         x2="1010.7601"
         y2="975.9516"
         id="line3"
         style="stroke-width:4.16825" />
    <polyline
         class="cls-22"
         points="242.61 231.83 242.61 229.33 245.11 229.33"
         id="polyline4"
         transform="matrix(4.168254,0,0,4.168254,-0.50001,-0.628584)" />
    <line
         class="cls-8"
         x1="1041.4385"
         y1="955.2771"
         x2="1598.2755"
         y2="955.2771"
         id="line4"
         style="stroke-width:4.16825" />
    <polyline
         class="cls-22"
         points="186.95 229.73 184.45 229.76 184.45 232.26"
         id="polyline5"
         transform="matrix(4.168254,0,0,4.168254,-0.50001,-0.628584)" />
    <line
         class="cls-4"
         x1="768.29279"
         y1="987.91455"
         x2="767.66748"
         y2="1917.4352"
         id="line5"
         style="stroke-width:4.16825" />
    <polyline
         class="cls-22"
         points="184.29 462.61 184.29 465.11 186.79 465.12"
         id="polyline6"
         transform="matrix(4.168254,0,0,4.168254,-0.50001,-0.628584)" />
    <line
         class="cls-33"
         x1="799.09619"
         y1="1938.2347"
         x2="914.80688"
         y2="1938.86"
         id="line6"
         style="stroke-width:4.16825" />
    <polyline
         class="cls-22"
         points="222.11 465.31 224.61 465.32 224.61 462.82"
         id="polyline7"
         transform="matrix(4.168254,0,0,4.168254,-0.50001,-0.628584)" />
    <line
         class="cls-12"
         x1="935.73151"
         y1="1908.0566"
         x2="935.73151"
         y2="975.9516"
         id="line7"
         style="stroke-width:4.16825" />
    <polyline
         class="cls-22"
         points="224.61 231.83 224.61 229.33 222.11 229.36"
         id="polyline8"
         transform="matrix(4.168254,0,0,4.168254,-0.50001,-0.628584)" />
    <line
         class="cls-20"
         x1="904.38623"
         y1="955.6106"
         x2="789.21741"
         y2="956.86108"
         id="line8"
         style="stroke-width:4.16825" />
    <polyline
         class="cls-22"
         points="163.79 229.47 166.29 229.33 166.28 231.83"
         id="polyline9"
         transform="matrix(4.168254,0,0,4.168254,-0.50001,-0.628584)" />
    <line
         class="cls-28"
         x1="692.5556"
         y1="986.16388"
         x2="690.34644"
         y2="1917.7686"
         id="line9"
         style="stroke-width:4.16825" />
    <polyline
         class="cls-22"
         points="165.73 462.7 165.73 465.2 163.23 465.07"
         id="polyline10"
         transform="matrix(4.168254,0,0,4.168254,-0.50001,-0.628584)" />
    <line
         class="cls-6"
         x1="659.16785"
         y1="1936.8175"
         x2="131.30019"
         y2="1909.0154"
         id="line10"
         style="stroke-width:4.16825" />
    <polyline
         class="cls-22"
         points="29.13 458.01 26.64 457.88 26.64 455.38"
         id="polyline11"
         transform="matrix(4.168254,0,0,4.168254,-0.50001,-0.628584)" />
    <line
         class="cls-18"
         x1="110.54227"
         y1="1876.5862"
         x2="110.54227"
         y2="1008.6724"
         id="line11"
         style="stroke-width:4.16825" />
    <polyline
         class="cls-22"
         points="26.64 239.63 26.64 237.13 29.13 236.99"
         id="polyline12"
         transform="matrix(4.168254,0,0,4.168254,-0.50001,-0.628584)" />
    <line
         class="cls-14"
         x1="141.72081"
         y1="986.03882"
         x2="671.83936"
         y2="956.44421"
         id="line12"
         style="stroke-width:4.16825" />
    <polyline
         class="cls-22"
         points="443.57 229.73 446.07 229.76 446.07 232.26"
         id="polyline13"
         transform="matrix(4.168254,0,0,4.168254,-0.50001,-0.628584)" />
    <line
         class="cls-4"
         x1="1858.8331"
         y1="987.91455"
         x2="1859.4583"
         y2="1917.4352"
         id="line13"
         style="stroke-width:4.16825" />
    <polyline
         class="cls-22"
         points="446.22 462.61 446.23 465.11 443.73 465.12"
         id="polyline14"
         transform="matrix(4.168254,0,0,4.168254,-0.50001,-0.628584)" />
    <line
         class="cls-25"
         x1="1828.3214"
         y1="1938.2347"
         x2="1714.2363"
         y2="1938.86"
         id="line14"
         style="stroke-width:4.16825" />
    <polyline
         class="cls-22"
         points="408.89 465.31 406.39 465.33 406.39 462.83"
         id="polyline15"
         transform="matrix(4.168254,0,0,4.168254,-0.50001,-0.628584)" />
    <line
         class="cls-12"
         x1="1693.4368"
         y1="1908.0566"
         x2="1693.4368"
         y2="975.9516"
         id="line15"
         style="stroke-width:4.16825" />
    <polyline
         class="cls-22"
         points="406.39 231.83 406.39 229.33 408.89 229.36"
         id="polyline16"
         transform="matrix(4.168254,0,0,4.168254,-0.50001,-0.628584)" />
    <line
         class="cls-32"
         x1="1724.4902"
         y1="955.6106"
         x2="1838.0751"
         y2="956.86108"
         id="line16"
         style="stroke-width:4.16825" />
    <polyline
         class="cls-22"
         points="466.69 229.47 464.19 229.33 464.2 231.83"
         id="polyline17"
         transform="matrix(4.168254,0,0,4.168254,-0.50001,-0.628584)" />
    <line
         class="cls-13"
         x1="1934.4452"
         y1="986.20557"
         x2="1936.6543"
         y2="1918.3105"
         id="line17"
         style="stroke-width:4.16825" />
    <polyline
         class="cls-22"
         points="464.75 462.83 464.76 465.33 467.25 465.19"
         id="polyline18"
         transform="matrix(4.168254,0,0,4.168254,-0.50001,-0.628584)" />
    <line
         class="cls-24"
         x1="1967.8329"
         y1="1937.2344"
         x2="2496.2424"
         y2="1908.0566"
         id="line18"
         style="stroke-width:4.16825" />
    <polyline
         class="cls-22"
         points="601.48 457.77 603.97 457.64 603.97 455.14"
         id="polyline19"
         transform="matrix(4.168254,0,0,4.168254,-0.50001,-0.628584)" />
    <line
         class="cls-17"
         x1="2517.0002"
         y1="1875.5859"
         x2="2517.0002"
         y2="1007.5887"
         id="line19"
         style="stroke-width:4.16825" />
    <polyline
         class="cls-22"
         points="603.97 239.38 603.97 236.88 601.48 236.74"
         id="polyline20"
         transform="matrix(4.168254,0,0,4.168254,-0.50001,-0.628584)" />
    <line
         class="cls-19"
         x1="2485.8218"
         y1="985.03845"
         x2="1955.2031"
         y2="956.40259"
         id="line20"
         style="stroke-width:4.16825" />
    <polyline
         class="cls-22"
         points="242.61 208.83 242.61 211.33 245.11 211.33"
         id="polyline21"
         transform="matrix(4.168254,0,0,4.168254,-0.50001,-0.628584)" />
    <line
         class="cls-9"
         x1="1041.4385"
         y1="880.24854"
         x2="1598.2755"
         y2="880.24854"
         id="line21"
         style="stroke-width:4.16825" />
    <polyline
         class="cls-22"
         points="385.99 211.33 388.49 211.33 388.49 208.83"
         id="polyline22"
         transform="matrix(4.168254,0,0,4.168254,-0.50001,-0.628584)" />
    <line
         class="cls-26"
         x1="1618.825"
         y1="849.27838"
         x2="1618.825"
         y2="736.4021"
         id="line22"
         style="stroke-width:4.16825" />
    <polyline
         class="cls-22"
         points="388.49 174.35 388.49 171.85 385.99 171.85"
         id="polyline23"
         transform="matrix(4.168254,0,0,4.168254,-0.50001,-0.628584)" />
    <line
         class="cls-10"
         x1="1588.1466"
         y1="715.68591"
         x2="1031.3096"
         y2="715.68591"
         id="line23"
         style="stroke-width:4.16825" />
    <polyline
         class="cls-22"
         points="245.11 171.85 242.61 171.85 242.61 174.35"
         id="polyline24"
         transform="matrix(4.168254,0,0,4.168254,-0.50001,-0.628584)" />
    <line
         class="cls-27"
         x1="1010.7601"
         y1="746.65601"
         x2="1010.7601"
         y2="859.57397"
         id="line24"
         style="stroke-width:4.16825" />
    <polyline
         class="cls-22"
         points="242.73 151.35 242.73 153.85 245.23 153.85"
         id="polyline25"
         transform="matrix(4.168254,0,0,4.168254,-0.50001,-0.628584)" />
    <line
         class="cls-3"
         x1="1041.897"
         y1="640.65735"
         x2="1597.8586"
         y2="640.65735"
         id="line25"
         style="stroke-width:4.16825" />
    <polyline
         class="cls-22"
         points="385.89 153.85 388.39 153.85 388.39 151.35"
         id="polyline26"
         transform="matrix(4.168254,0,0,4.168254,-0.50001,-0.628584)" />
    <path
         class="cls-11"
         d="M 1618.4082,609.43707 V 287.02262 c 0,-36.5139 -38.348,-94.36927 -106.9158,-94.36927 h -396.4426 c -71.7356,2.95946 -104.3314,60.23127 -104.248,95.86985 l 0.4585,331.33451"
         id="path26"
         style="stroke-width:4.16825" />
    <path
         class="cls-15"
         d="m 1161.1924,2776.8041 c 19.2573,23.5506 68.2343,-5.9606 167.5221,-5.9606 112.0844,0 169.2311,33.4711 191.573,4.9602 23.7173,-30.3032 -10.9625,-84.5322 -181.7776,-84.5322 -170.815,0 -205.8284,50.6443 -177.3175,85.4909 z"
         id="path27"
         style="stroke-width:4.16825" />
    <polyline
         class="cls-22"
         points="388.35 543.43 388.35 540.93 385.85 540.93"
         id="polyline27"
         transform="matrix(4.168254,0,0,4.168254,-0.50001,-0.628584)" />
    <polyline
         class="cls-2"
         points="381.01 540.93 249.47 540.93 247.71 540.93"
         id="polyline28"
         transform="matrix(4.168254,0,0,4.168254,-0.50001,-0.628584)" />
    <polyline
         class="cls-22"
         points="245.29 540.93 242.79 540.93 242.79 543.43"
         id="polyline29"
         transform="matrix(4.168254,0,0,4.168254,-0.50001,-0.628584)" />
    <line
         class="cls-31"
         x1="1011.5104"
         y1="2287.0344"
         x2="1011.5104"
         y2="2320.7971"
         id="line29"
         style="stroke-width:4.16825" />
    <polyline
         class="cls-22"
         points="242.79 559.62 242.79 562.12 242.8 562.12 242.8 564.62"
         id="polyline30"
         transform="matrix(4.168254,0,0,4.168254,-0.50001,-0.628584)" />
    <path
         class="cls-34"
         d="m 1011.5521,2373.859 v 822.73 c 0,15.4225 12.4214,27.8856 27.8022,27.8856 h 551.2516 c 15.3392,0 27.8023,-12.5048 27.8023,-27.8856 v -914.5983 c 0,-0.9587 -0.042,-1.9591 -0.1668,-2.8761 v -4.0849"
         id="path30"
         style="stroke-width:4.16825" />
    <polyline
         class="cls-22"
         points="242.65 520.43 242.65 522.93 245.15 522.93"
         id="polyline31"
         transform="matrix(4.168254,0,0,4.168254,-0.50001,-0.628584)" />
    <line
         class="cls-9"
         x1="1041.6051"
         y1="2179.0764"
         x2="1598.4423"
         y2="2179.0764"
         id="line31"
         style="stroke-width:4.16825" />
    <polyline
         class="cls-22"
         points="386.03 522.93 388.53 522.93 388.53 520.43"
         id="polyline32"
         transform="matrix(4.168254,0,0,4.168254,-0.50001,-0.628584)" />
    <line
         class="cls-26"
         x1="1618.9917"
         y1="2148.1064"
         x2="1618.9917"
         y2="2035.1884"
         id="line32"
         style="stroke-width:4.16825" />
    <polyline
         class="cls-22"
         points="388.53 485.95 388.53 483.45 386.03 483.45"
         id="polyline33"
         transform="matrix(4.168254,0,0,4.168254,-0.50001,-0.628584)" />
    <line
         class="cls-10"
         x1="1588.3135"
         y1="2014.5139"
         x2="1031.4763"
         y2="2014.5139"
         id="line33"
         style="stroke-width:4.16825" />
    <polyline
         class="cls-22"
         points="245.15 483.45 242.65 483.45 242.65 485.95"
         id="polyline34"
         transform="matrix(4.168254,0,0,4.168254,-0.50001,-0.628584)" />
    <line
         class="cls-27"
         x1="1010.9268"
         y1="2045.4423"
         x2="1010.9268"
         y2="2158.3604"
         id="line34"
         style="stroke-width:4.16825" />
    <line
         class="cls-5"
         x1="731.90393"
         y1="1975.9575"
         x2="731.90393"
         y2="917.76282"
         id="line35"
         style="stroke-width:4.16825" />
    <line
         class="cls-5"
         x1="971.9953"
         y1="678.17163"
         x2="1654.6302"
         y2="678.17163"
         id="line36"
         style="stroke-width:4.16825" />
    <line
         class="cls-5"
         x1="1655.589"
         y1="2216.5908"
         x2="971.95367"
         y2="2216.5908"
         id="line37"
         style="stroke-width:4.16825" />
    <line
         class="cls-5"
         x1="1895.5972"
         y1="1976.4993"
         x2="1895.7222"
         y2="917.76282"
         id="line38"
         style="stroke-width:4.16825" />
    <line
         class="cls-5"
         x1="1655.5472"
         y1="917.76282"
         x2="1655.589"
         y2="1976.4993"
         id="line39"
         style="stroke-width:4.16825" />
    <line
         class="cls-5"
         x1="971.95367"
         y1="917.76282"
         x2="1655.5472"
         y2="917.76282"
         id="line40"
         style="stroke-width:4.16825" />
    <line
         class="cls-5"
         x1="971.95367"
         y1="1976.4993"
         x2="971.95367"
         y2="917.76282"
         id="line41"
         style="stroke-width:4.16825" />
    <line
         class="cls-5"
         x1="1655.589"
         y1="1976.4993"
         x2="971.95367"
         y2="1976.4993"
         id="line42"
         style="stroke-width:4.16825" />
    <path
         id="Curved_slice"
         class="cls-30"
         d="m 1188.6612,2750.5441 c 0,0 27.2604,-22.4669 150.0571,-22.4669 122.7968,0 150.0572,22.4669 150.0572,22.4669"
         style="stroke-width:4.16825" />
    <line
         class="cls-35"
         x1="2590.7783"
         y1="1077.0735"
         x2="2149.1104"
         y2="1077.0735"
         id="line44" />
    <line
         class="cls-23"
         x1="2553.2642"
         y1="1721.4855"
         x2="2204.9231"
         y2="1721.4855"
         id="line45" />
    <line
         class="cls-21"
         x1="1618.9917"
         y1="1054.6483"
         x2="1608.571"
         y2="1054.6483"
         id="line46" />
    <line
         class="cls-36"
         x1="1587.7299"
         y1="1054.6483"
         x2="1306.9146"
         y2="1054.6483"
         id="line47" />
    <line
         class="cls-21"
         x1="1296.5356"
         y1="1054.6483"
         x2="1286.115"
         y2="1054.6483"
         id="line48" />
</svg>
