<?xml version="1.0" encoding="UTF-8" standalone="no"?>
<svg
   version="1.1"
   id="DELETE_ME_AFTER_USE"
   x="0px"
   y="0px"
   viewBox="0 0 900 1500"
   style="enable-background:new 0 0 216 360;"
   xml:space="preserve"
   width="900"
   height="1500"
   xmlns="http://www.w3.org/2000/svg"
   xmlns:svg="http://www.w3.org/2000/svg"><defs
     id="defs1153" /><path
     id="Bleed"
     class="st18"
     d="M -3.6e-6,1.74e-4 V 1499.9998 H 900 V 1.74e-4 Z M 848.75,1420.4165 c 0,19.5833 -15.83333,35.4167 -35.41666,35.4167 H 86.666664 c -19.583334,0 -35.416667,-15.8334 -35.416667,-35.4167 V 79.583489 c 0,-19.583329 15.833333,-35.416659 35.416667,-35.416659 H 813.33334 c 19.58333,0 35.41666,15.83333 35.41666,35.416659 z"
     style="stroke-width:4.16667;fill:#000000;fill-opacity:1;stroke:none" /><path
     class="st21"
     d="M 86.666664,44.16683 H 812.91667 c 19.58333,0 35.41667,15.83333 35.41667,35.416659 V 1419.9998 c 0,19.5834 -15.83334,35.4167 -35.41667,35.4167 H 86.666664 c -19.583334,0 -35.416667,-15.8333 -35.416667,-35.4167 V 79.583489 c 0,-19.583329 15.833333,-35.416659 35.416667,-35.416659 z"
     id="clipping"
     style="fill:#606060;fill-opacity:1;stroke:none;stroke-width:4.16667" /><path
     class="st8"
     d="m 124.16666,81.666822 h 651.25001 c 19.58333,0 35.41667,15.833329 35.41667,35.416658 V 1382.4999 c 0,19.5833 -15.83334,35.4166 -35.41667,35.4166 H 124.16666 c -19.58333,0 -35.416663,-15.8333 -35.416663,-35.4166 V 117.08348 c 0,-19.583329 15.833333,-35.416658 35.416663,-35.416658 z"
     id="safe"
     style="fill:#9a9a9a;fill-opacity:1;stroke:none;stroke-width:4.16667" /></svg>
