<?xml version="1.0" encoding="UTF-8" standalone="no"?>
<svg version="1.1" x="0px" y="0px" width="300" height="300" viewBox="0 0 300 300" enable-background="new 0 0 72 72" xml:space="preserve" id="svg119" sodipodi:docname="CustomPrintedMeeple.svg" inkscape:version="1.4 (e7c3feb1, 2024-10-09)" xmlns:inkscape="http://www.inkscape.org/namespaces/inkscape" xmlns:sodipodi="http://sodipodi.sourceforge.net/DTD/sodipodi-0.dtd" xmlns="http://www.w3.org/2000/svg" xmlns:svg="http://www.w3.org/2000/svg"><g transform="translate(0, 0) scale(1)"><defs id="defs119">
	
	
	
	
	
	
	
	
	
	
		
	
	
	
	
	
	
		


		
		
	
		
	</defs><sodipodi:namedview id="namedview119" pagecolor="#505050" bordercolor="#eeeeee" borderopacity="1" inkscape:showpageshadow="0" inkscape:pageopacity="0" inkscape:pagecheckerboard="0" inkscape:deskcolor="#d1d1d1" inkscape:zoom="0.75" inkscape:cx="-154.66667" inkscape:cy="325.33333" inkscape:window-width="1872" inkscape:window-height="1027" inkscape:window-x="62" inkscape:window-y="25" inkscape:window-maximized="1" inkscape:current-layer="svg119"/>
<rect style="fill:#0d0d0d;stroke-width:0.985107;stroke-linecap:round;stroke-linejoin:round;paint-order:markers fill stroke;fill-opacity:1" id="rect119" width="300" height="300" x="0" y="0"/><path fill="none" stroke="#ed1f24" stroke-width="1.04167" stroke-miterlimit="10" d="m 150,203.64375 c -3.73334,0 -6.07917,3.475 -6.07917,3.475 l -25.52083,37.5 c -1.3875,2.43334 -4.5125,4.50834 -4.5125,4.50834 H 67.870833 c -6.595834,0 -7.291667,-3.81667 -7.291667,-3.81667 -7.8,-19.44167 21.691666,-60.95417 30.391666,-75.3 1.7875,-2.95417 2.5375,-5.75417 0.129167,-6.99167 -2.408333,-1.2375 -19.491666,-5.925 -25.820833,-8.68333 -6.329167,-2.75833 -19.1,-19.44167 -2.433333,-34.71667 16.666666,-15.28333 53.474997,-27.433329 53.474997,-27.433329 0,0 -0.008,-7.583333 3.125,-19.791666 C 126.7375,50.860422 150,50.860422 150,50.860422 c 0,0 23.2625,0 30.55416,21.533333 3.13334,12.208333 3.125,19.791666 3.125,19.791666 0,0 36.80834,12.149999 53.475,27.433329 16.66667,15.275 3.9,31.95834 -2.43333,34.71667 -6.33333,2.75833 -23.4125,7.44583 -25.82083,8.68333 -2.40834,1.2375 -1.65417,4.0375 0.12916,6.99167 8.7,14.34583 38.19167,55.85833 30.39167,75.3 0,0 -0.69583,3.81667 -7.29167,3.81667 H 186.1125 c 0,0 -3.125,-2.075 -4.5125,-4.50834 l -25.52084,-37.5 c 0,0 -2.34583,-3.475 -6.07916,-3.475 z" id="clipping" style="fill:#626262;fill-opacity:1;stroke:none"/>








</g></svg>