<?xml version="1.0" encoding="UTF-8" standalone="no"?>
<svg
   version="1.1"
   id="Layer_1"
   x="0px"
   y="0px"
   viewBox="0 0 3675 4950"
   style="enable-background:new 0 0 882 1188;"
   xml:space="preserve"
   width="3675"
   height="4950"
   sodipodi:docname="DeckBoxTopAndSide.svg"
   inkscape:version="1.3.2 (091e20e, 2023-11-25, custom)"
   xmlns:inkscape="http://www.inkscape.org/namespaces/inkscape"
   xmlns:sodipodi="http://sodipodi.sourceforge.net/DTD/sodipodi-0.dtd"
   xmlns="http://www.w3.org/2000/svg"
   xmlns:svg="http://www.w3.org/2000/svg"><defs
     id="defs1"><defs
   id="defs126">
	

	
	
	
	

	
	
	
	
	

	
	
	
	
	

		
		
		
		
		
		
		
		
		
		
	
		
		
		
		
		
		
		
		
		
		
		
		
		
		
		
		
		
		
		
		
		
		
		
		
		
		
		
		
		
		
		
		
		
		
		
		
		
		
		
		
		
		
		
		
		
		
		
		
		
		
		
		
		
		
		
		
		
		
		
		
		
		
		
		
		
		
		
		
		
		
		
		
			
		
		
		
		
		
		
		
		
		
		
		
		
		
		
		
		
		
		
		
		
		
		
		
		
		
		
		
		
		
		
		
		
		
		
		
		
		
		
		
		
		
		
		
		
		
		
		
		
		
		
		
		
		
	
		
		
		
		
		
		
	
		
		
		
		
		
	
		
		
		
		
		
		
		
		
		
	
		
	
		
		
	</defs><sodipodi:namedview
   id="namedview126"
   pagecolor="#505050"
   bordercolor="#eeeeee"
   borderopacity="1"
   inkscape:showpageshadow="0"
   inkscape:pageopacity="0"
   inkscape:pagecheckerboard="0"
   inkscape:deskcolor="#d1d1d1"
   inkscape:zoom="0.36363636"
   inkscape:cx="1545.5"
   inkscape:cy="2292.125"
   inkscape:window-width="2560"
   inkscape:window-height="1351"
   inkscape:window-x="-9"
   inkscape:window-y="-9"
   inkscape:window-maximized="1"
   inkscape:current-layer="Layer_1" />
<style
   type="text/css"
   id="style1">
	.st0{fill:#929497;}
	.st1{fill:#FFFFFF;stroke:#EA2227;stroke-miterlimit:10;}
	.st2{fill:none;stroke:#00ADEE;stroke-miterlimit:10;stroke-dasharray:12;}
	.st3{fill:none;stroke:#00A551;stroke-miterlimit:10;}
	.st4{fill:none;stroke:#929497;}
	.st5{fill:#231F20;}
	.st6{font-family:'Arial-Black';}
	.st7{font-size:11.4736px;}
	.st8{font-family:'Arial-BoldMT';}
	.st9{font-size:9.5613px;}
	.st10{fill:#EC1E28;}
	.st11{fill:none;stroke:#EC1E28;}
	.st12{fill:#2BA6DE;}
	.st13{fill:none;stroke:#2BA6DE;stroke-dasharray:12,9;}
	.st14{fill:#D0D2D3;}
	.st15{font-size:16.3495px;}
	.st16{font-size:12.7268px;}
	.st17{fill-rule:evenodd;clip-rule:evenodd;}
	.st18{fill-rule:evenodd;clip-rule:evenodd;fill:#B7D333;}
	.st19{fill-rule:evenodd;clip-rule:evenodd;fill:#FFFFFF;}
	.st20{fill-rule:evenodd;clip-rule:evenodd;fill:#4C4849;}
	.st21{fill:#4C4849;}
	.st22{fill:#FFFFFF;}
</style>





</defs><rect
     class="st0"
     width="3675"
     height="4950"
     id="rect1"
     x="-1.47e-05"
     y="-1.98e-05"
     style="stroke-width:4.16667;fill:#171718;fill-opacity:1" /><path
     id="clipping"
     style="fill:#676767;stroke-miterlimit:10;stroke:none;fill-opacity:1"
     class="st1"
     transform="matrix(4.1666667,0,0,4.1666667,-1.47e-5,-1.98e-5)"
     d="m 298.6,64.1 -5,5.1 -0.7,222.4 -80.2,-82.8 H 68.5 v 82.8 l -5.1,5 H 9 v 594.8 h 54.4 l 5.1,5 v 82.8 h 144.2 l 80.2,-82.8 0.7,222.4 5,5.1 v 55.1 h 284.8 v -55.1 l 5,-5.1 0.7,-222.4 80.2,82.8 h 144.2 v -82.8 l 5.1,-5 H 873 V 296.6 h -54.4 l -5.1,-5 V 208.8 H 669.3 l -80.2,82.8 -0.7,-222.4 -5,-5.1 V 9 H 298.6 v 55.1" /><polygon
     class="st2"
     points="301.9,905.4 580.1,905.4 579.4,1109.8 302.6,1109.8 "
     id="polygon1"
     transform="matrix(4.1666667,0,0,4.1666667,-1.47e-5,-1.98e-5)"
     style="stroke:none;fill:#a0a0a0;fill-opacity:1" /><rect
     x="322.91666"
     y="1252.5"
     class="st2"
     width="860"
     height="2445"
     id="rect2"
     style="stroke-width:4.16667;fill:#a0a0a0;fill-opacity:1;stroke:none" /><rect
     x="2492.0833"
     y="1252.5"
     class="st2"
     width="860"
     height="2445"
     id="rect3"
     style="stroke-width:4.16667;stroke:none;fill:#a0a0a0;fill-opacity:1" /><rect
     x="1220.4166"
     y="1215"
     class="st3"
     width="1234.5833"
     height="2520"
     id="actualSize"
     style="stroke-width:4.16667;stroke:none;fill:#c0c0c0;fill-opacity:1" /><rect
     x="1257.9166"
     y="1252.5"
     class="st2"
     width="1159.5833"
     height="2445"
     id="rect4"
     style="stroke-width:4.16667;stroke:none;fill:#a0a0a0;fill-opacity:1" /><polygon
     class="st2"
     points="580.1,282.6 301.9,282.6 302.6,78.2 579.4,78.2 "
     id="polygon4"
     transform="matrix(4.1666667,0,0,4.1666667,-1.47e-5,-1.98e-5)"
     style="stroke:none;fill:#a0a0a0;fill-opacity:1" /><rect
     x="285.41666"
     y="1215"
     class="st3"
     width="935"
     height="2520"
     id="rect5"
     style="stroke-width:4.16667" /><rect
     x="2454.5833"
     y="1215"
     class="st3"
     width="935"
     height="2520"
     id="rect6"
     style="stroke-width:4.16667" /><line
     class="st3"
     x1="1223.3334"
     y1="4661.667"
     x2="2451.6667"
     y2="4661.667"
     id="line7"
     style="stroke-width:4.16667" /><line
     class="st3"
     x1="1223.3334"
     y1="288.33331"
     x2="2451.6667"
     y2="288.33331"
     id="line8"
     style="stroke-width:4.16667" /><line
     class="st4"
     x1="2056.25"
     y1="3864.1667"
     x2="2564.5833"
     y2="3864.1667"
     id="line9"
     style="stroke-width:4.16667" /><line
     class="st11"
     x1="2093.3333"
     y1="903.33331"
     x2="2453.3333"
     y2="903.33331"
     id="line11"
     style="stroke-width:4.16667" /><line
     class="st13"
     x1="2081.25"
     y1="515.41663"
     x2="2425"
     y2="515.41663"
     id="line12"
     style="stroke-width:4.16667" /><polygon
     class="st21"
     points=""
     id="polygon75"
     transform="matrix(4.1666667,0,0,4.1666667,-1.47e-5,-1.98e-5)" /><polygon
     class="st22"
     points=""
     id="polygon117"
     transform="matrix(4.1666667,0,0,4.1666667,-1.47e-5,-1.98e-5)" /></svg>
