<?xml version="1.0" encoding="UTF-8" standalone="no"?>
<!-- Generator: Adobe Illustrator 22.1.0, SVG Export Plug-In . SVG Version: 6.00 Build 0)  -->

<svg
   version="1.1"
   id="Layer_1"
   x="0px"
   y="0px"
   viewBox="0 0 882 1188"
   width="882"
   height="1188"
   style="enable-background:new 0 0 882 1188;"
   xml:space="preserve"
   xmlns="http://www.w3.org/2000/svg"
   xmlns:svg="http://www.w3.org/2000/svg"><defs
   id="defs189" />
<style
   type="text/css"
   id="style1">
	.st0{fill:#929497;}
	.st1{fill:#FFFFFF;stroke:#EA2227;stroke-miterlimit:10;}
	.st2{fill:none;stroke:#00ADEE;stroke-miterlimit:10;stroke-dasharray:12;}
	.st3{fill:none;stroke:#00A551;stroke-miterlimit:10;}
	.st4{fill:none;stroke:#929497;}
	.st5{fill:#231F20;}
	.st6{font-family:'Arial-Black';}
	.st7{font-size:10.8649px;}
	.st8{font-family:'Arial-BoldMT';}
	.st9{font-size:9.054px;}
	.st10{fill:#EC1E28;}
	.st11{font-size:11.102px;}
	.st12{font-size:9.2517px;}
	.st13{font-size:11.4736px;}
	.st14{font-size:9.5613px;}
	.st15{fill:none;stroke:#EC1E28;}
	.st16{fill:#2BA6DE;}
	.st17{fill:none;stroke:#2BA6DE;stroke-dasharray:12,9;}
	.st18{fill:#D0D2D3;}
	.st19{font-size:16.3495px;}
	.st20{font-size:12.7268px;}
	.st21{fill-rule:evenodd;clip-rule:evenodd;}
	.st22{fill-rule:evenodd;clip-rule:evenodd;fill:#B7D333;}
	.st23{fill-rule:evenodd;clip-rule:evenodd;fill:#FFFFFF;}
	.st24{fill-rule:evenodd;clip-rule:evenodd;fill:#4C4849;}
	.st25{fill:#4C4849;}
	.st26{fill:#FFFFFF;}
</style>
<rect
   class="st0"
   width="882"
   height="1188"
   id="rect1"
   style="fill:#131414;fill-opacity:1" />
<path
   class="st1"
   d="m 801.9,886.1 5,-5 H 873 V 306.9 h -66.1 l -5,-5 c 0,0 0,-85.2 0,-85.2 H 660.4 l -80.4,85.2 -0.7,-220.3 -5,-5 V 9 H 307.8 v 67.5 l -5,5 -0.8,220.4 -80.4,-85.2 H 80.1 v 85.2 c 0,0 -5,5 -5,5 H 9 v 574.2 h 66.1 c 0,0 5,5 5,5 0,0 0,85.2 0,85.2 h 141.5 l 80.4,-85.2 0.7,220.3 5,5 v 67.5 h 266.5 v -67.5 l 5,-5 0.7,-220.3 80.4,85.2 h 141.5 z"
   id="clipping"
   style="stroke:none;fill:#4e4e4e;fill-opacity:1" /><rect
   x="302"
   y="301.89999"
   class="st3"
   width="278"
   height="584.29999"
   id="actualSize"
   style="stroke:none;fill:#b1b1b1;fill-opacity:1" />
<rect
   x="311.39999"
   y="895.09998"
   class="st2"
   width="259.60001"
   height="202.3"
   id="rect2"
   style="stroke:none;fill:#999999;fill-opacity:1" /><rect
   x="311.39999"
   y="90.599998"
   class="st2"
   width="259.60001"
   height="202.3"
   id="rect3"
   style="stroke:none;fill:#999999;fill-opacity:1" /><rect
   x="89.099998"
   y="310.89999"
   class="st2"
   width="203.89999"
   height="566.29999"
   id="rect4"
   style="stroke:none;fill:#999999;fill-opacity:1" /><rect
   x="589"
   y="310.89999"
   class="st2"
   width="203.89999"
   height="566.29999"
   id="rect5"
   style="stroke:none;fill:#999999;fill-opacity:1" /><rect
   x="311"
   y="310.89999"
   class="st2"
   width="260"
   height="566.29999"
   id="rect6"
   style="stroke:none;fill:#999999;fill-opacity:1" />
<rect
   x="80.099998"
   y="301.89999"
   class="st3"
   width="221.89999"
   height="584.29999"
   id="rect7" /><rect
   x="580"
   y="301.89999"
   class="st3"
   width="221.89999"
   height="584.29999"
   id="rect8" /><line
   class="st3"
   x1="302.70001"
   y1="1106.4"
   x2="579.29999"
   y2="1106.4"
   id="line9" /><line
   class="st3"
   x1="302.70001"
   y1="81.599998"
   x2="579.29999"
   y2="81.599998"
   id="line10" />
<polygon
   class="st25"
   points=""
   id="polygon137" /><polygon
   class="st26"
   points=""
   id="polygon179" />
</svg>
