<?xml version="1.0" encoding="UTF-8" standalone="no"?>
<svg
     version="1.1"
     id="template"
     x="0px"
     y="0px"
     width="3675"
     height="4950"
     viewBox="0 0 3675 4950"
     enable-background="new 0 0 270 414"
     xml:space="preserve"
     sodipodi:docname="DeckBox.svg"
     inkscape:version="1.4 (e7c3feb1, 2024-10-09)"
     xmlns:inkscape="http://www.inkscape.org/namespaces/inkscape"
     xmlns:sodipodi="http://sodipodi.sourceforge.net/DTD/sodipodi-0.dtd"
     xmlns="http://www.w3.org/2000/svg"
     xmlns:svg="http://www.w3.org/2000/svg"> <defs
     id="defs728" /> <sodipodi:namedview
     id="namedview726"
     pagecolor="#ffffff"
     bordercolor="#999999"
     borderopacity="1"
     showgrid="false"
     inkscape:showpageshadow="0"
     inkscape:pageopacity="0"
     inkscape:pagecheckerboard="0"
     inkscape:deskcolor="#d1d1d1"
     inkscape:zoom="0.090909091"
     inkscape:cx="973.5"
     inkscape:cy="3267"
     inkscape:window-width="1872"
     inkscape:window-height="1027"
     inkscape:window-x="63"
     inkscape:window-y="25"
     inkscape:window-maximized="1"
     inkscape:current-layer="template" /><g
     id="g2"
     transform="translate(1.47e-5,1.98e-5)"><defs
     id="defs126">
	

	
	
	
	

	
	
	
	
	

	
	
	
	
	

		
		
		
		
		
		
		
		
		
		
	
		
		
		
		
		
		
		
		
		
		
		
		
		
		
		
		
		
		
		
		
		
		
		
		
		
		
		
		
		
		
		
		
		
		
		
		
		
		
		
		
		
		
		
		
		
		
		
		
		
		
		
		
		
		
		
		
		
		
		
		
		
		
		
		
		
		
		
		
		
		
		
		
			
		
		
		
		
		
		
		
		
		
		
		
		
		
		
		
		
		
		
		
		
		
		
		
		
		
		
		
		
		
		
		
		
		
		
		
		
		
		
		
		
		
		
		
		
		
		
		
		
		
		
		
		
		
	
		
		
		
		
		
		
	
		
		
		
		
		
	
		
		
		
		
		
		
		
		
		
	
		
	
		
		
	</defs><sodipodi:namedview
     id="namedview126"
     pagecolor="#505050"
     bordercolor="#eeeeee"
     borderopacity="1"
     inkscape:showpageshadow="0"
     inkscape:pageopacity="0"
     inkscape:pagecheckerboard="0"
     inkscape:deskcolor="#d1d1d1"
     inkscape:zoom="0.18181818"
     inkscape:cx="1133"
     inkscape:cy="2046"
     inkscape:window-width="1872"
     inkscape:window-height="1027"
     inkscape:window-x="62"
     inkscape:window-y="25"
     inkscape:window-maximized="1"
     inkscape:current-layer="Layer_1" />
<style
     type="text/css"
     id="style1">
	.st0{fill:#929497;}
	.st1{fill:#FFFFFF;stroke:#EA2227;stroke-miterlimit:10;}
	.st2{fill:none;stroke:#00ADEE;stroke-miterlimit:10;stroke-dasharray:12;}
	.st3{fill:none;stroke:#00A551;stroke-miterlimit:10;}
	.st4{fill:none;stroke:#929497;}
	.st5{fill:#231F20;}
	.st6{font-family:'Arial-Black';}
	.st7{font-size:11.4736px;}
	.st8{font-family:'Arial-BoldMT';}
	.st9{font-size:9.5613px;}
	.st10{fill:#EC1E28;}
	.st11{fill:none;stroke:#EC1E28;}
	.st12{fill:#2BA6DE;}
	.st13{fill:none;stroke:#2BA6DE;stroke-dasharray:12,9;}
	.st14{fill:#D0D2D3;}
	.st15{font-size:16.3495px;}
	.st16{font-size:12.7268px;}
	.st17{fill-rule:evenodd;clip-rule:evenodd;}
	.st18{fill-rule:evenodd;clip-rule:evenodd;fill:#B7D333;}
	.st19{fill-rule:evenodd;clip-rule:evenodd;fill:#FFFFFF;}
	.st20{fill-rule:evenodd;clip-rule:evenodd;fill:#4C4849;}
	.st21{fill:#4C4849;}
	.st22{fill:#FFFFFF;}
</style>




<rect
     class="st0"
     width="3675"
     height="4950"
     id="rect1"
     x="-1.47e-05"
     y="-1.98e-05"
     style="fill:#929497;stroke-width:4.16667" /><polyline
     class="st1"
     points="298.6,64.1 293.6,69.2 292.9,291.6 212.7,208.8 68.5,208.8 68.5,291.6 63.4,296.6 9,296.6 9,891.4    63.4,891.4 68.5,896.4 68.5,979.2 212.7,979.2 292.9,896.4 293.6,1118.8 298.6,1123.9 298.6,1179 583.4,1179 583.4,1123.9    588.4,1118.8 589.1,896.4 669.3,979.2 813.5,979.2 813.5,896.4 818.6,891.4 873,891.4 873,296.6 818.6,296.6 813.5,291.6    813.5,208.8 669.3,208.8 589.1,291.6 588.4,69.2 583.4,64.1 583.4,9 298.6,9 298.6,64.1  "
     id="clipping"
     transform="matrix(4.1666667,0,0,4.1666667,-1.47e-5,-1.98e-5)"
     style="fill:#ffffff;stroke:none;stroke-miterlimit:10" /><polygon
     class="st2"
     points="579.4,1109.8 302.6,1109.8 301.9,905.4 580.1,905.4 "
     id="polygon1"
     transform="matrix(4.1666667,0,0,4.1666667,-1.47e-5,-1.98e-5)"
     style="fill:none;stroke:#00adee;stroke-miterlimit:10;stroke-dasharray:12" /><rect
     x="322.91666"
     y="1252.5"
     class="st2"
     width="860"
     height="2445"
     id="rect2"
     style="fill:none;stroke:#00adee;stroke-width:4.16667;stroke-miterlimit:10;stroke-dasharray:12" /><rect
     x="2492.0833"
     y="1252.5"
     class="st2"
     width="860"
     height="2445"
     id="rect3"
     style="fill:none;stroke:#00adee;stroke-width:4.16667;stroke-miterlimit:10;stroke-dasharray:12" /><rect
     x="1257.9166"
     y="1252.5"
     class="st2"
     width="1159.5833"
     height="2445"
     id="rect4"
     style="fill:none;stroke:#00adee;stroke-width:4.16667;stroke-miterlimit:10;stroke-dasharray:12" /><polygon
     class="st2"
     points="302.6,78.2 579.4,78.2 580.1,282.6 301.9,282.6 "
     id="polygon4"
     transform="matrix(4.1666667,0,0,4.1666667,-1.47e-5,-1.98e-5)"
     style="fill:none;stroke:#00adee;stroke-miterlimit:10;stroke-dasharray:12" /><rect
     x="285.41666"
     y="1215"
     class="st3"
     width="935"
     height="2520"
     id="rect5"
     style="fill:none;stroke:#00a551;stroke-width:4.16667;stroke-miterlimit:10" /><rect
     x="2454.5833"
     y="1215"
     class="st3"
     width="935"
     height="2520"
     id="rect6"
     style="fill:none;stroke:#00a551;stroke-width:4.16667;stroke-miterlimit:10" /><rect
     x="1220.4166"
     y="1215"
     class="st3"
     width="1234.5833"
     height="2520"
     id="rect7"
     style="fill:none;stroke:#00a551;stroke-width:4.16667;stroke-miterlimit:10" /><line
     class="st3"
     x1="1223.3334"
     y1="4661.667"
     x2="2451.6667"
     y2="4661.667"
     id="line7"
     style="fill:none;stroke:#00a551;stroke-width:4.16667;stroke-miterlimit:10" /><line
     class="st3"
     x1="1223.3334"
     y1="288.33331"
     x2="2451.6667"
     y2="288.33331"
     id="line8"
     style="fill:none;stroke:#00a551;stroke-width:4.16667;stroke-miterlimit:10" /><line
     class="st4"
     x1="2056.25"
     y1="3864.1667"
     x2="2564.5833"
     y2="3864.1667"
     id="line9"
     style="fill:none;stroke:#929497;stroke-width:4.16667" /><line
     class="st11"
     x1="2093.3333"
     y1="903.33331"
     x2="2453.3333"
     y2="903.33331"
     id="line11"
     style="fill:none;stroke:#ec1e28;stroke-width:4.16667" /><line
     class="st13"
     x1="2081.25"
     y1="515.41663"
     x2="2425"
     y2="515.41663"
     id="line12"
     style="fill:none;stroke:#2ba6de;stroke-width:4.16667;stroke-dasharray:12, 9" /><polygon
     class="st21"
     points=""
     id="polygon75"
     transform="matrix(4.1666667,0,0,4.1666667,-1.47e-5,-1.98e-5)"
     style="fill:#4c4849" /><polygon
     class="st22"
     points=""
     id="polygon117"
     transform="matrix(4.1666667,0,0,4.1666667,-1.47e-5,-1.98e-5)"
     style="fill:#ffffff" />
</g></svg>
