<?xml version="1.0" encoding="UTF-8" standalone="no"?>
<svg
     version="1.1"
     x="0px"
     y="0px"
     width="600"
     height="1125"
     viewBox="0 0 600 1125"
     enable-background="new 0 0 144 270"
     xml:space="preserve"
     id="svg120"
     sodipodi:docname="DominoDeck.svg"
     inkscape:version="1.4 (e7c3feb1, 2024-10-09)"
     xmlns:inkscape="http://www.inkscape.org/namespaces/inkscape"
     xmlns:sodipodi="http://sodipodi.sourceforge.net/DTD/sodipodi-0.dtd"
     xmlns="http://www.w3.org/2000/svg"
     xmlns:svg="http://www.w3.org/2000/svg"><defs
         id="defs120">



	
	
	
</defs><sodipodi:namedview
         id="namedview120"
         pagecolor="#505050"
         bordercolor="#eeeeee"
         borderopacity="1"
         inkscape:showpageshadow="0"
         inkscape:pageopacity="0"
         inkscape:pagecheckerboard="0"
         inkscape:deskcolor="#d1d1d1"
         inkscape:zoom="0.4"
         inkscape:cx="77.5"
         inkscape:cy="867.5"
         inkscape:window-width="1872"
         inkscape:window-height="1027"
         inkscape:window-x="62"
         inkscape:window-y="25"
         inkscape:window-maximized="1"
         inkscape:current-layer="svg120" /><rect
         fill="#919396"
         width="600"
         height="1125"
         id="rect1"
         x="0"
         y="0"
         style="stroke-width:4.16667;fill:#1e1e1f;fill-opacity:1" /><path
         fill="#ffffff"
         stroke="#ea222a"
         d="M 525,1087.5 H 75.000001 C 54.2875,1087.5 37.5,1070.7125 37.5,1050 V 75.000001 C 37.5,54.2875 54.2875,37.5 75.000001,37.5 H 525 c 20.7125,0 37.5,16.7875 37.5,37.500001 V 1050 c 0,20.7125 -16.7875,37.5 -37.5,37.5 z"
         id="clipping"
         style="stroke-width:4.16667;stroke:none;fill:#6c6c6c;fill-opacity:1" /><path
         fill="none"
         stroke="#00adee"
         stroke-dasharray="6, 6"
         d="m 75.991667,89.995834 c 0,-8.558333 4.454167,-15.483333 9.95,-15.483333 H 513.72917 c 5.49583,0 9.95,6.925 9.95,15.483333 V 1034.3333 c 0,8.55 -4.45,15.4834 -9.95,15.4834 H 85.937501 c -5.495834,0 -9.95,-6.9334 -9.95,-15.4834 V 89.995834 Z"
         id="path2"
         style="stroke-width:4.16667;fill:#bababa;fill-opacity:1;stroke:none" /></svg>
