<?xml version="1.0" encoding="UTF-8" standalone="no"?>
<svg
     version="1.1"
     id="template"
     x="0px"
     y="0px"
     width="825"
     height="1125"
     viewBox="0 0 825 1125"
     enable-background="new 0 0 270 414"
     xml:space="preserve"
     sodipodi:docname="FoilPokerDeck.svg"
     inkscape:version="1.4 (e7c3feb1, 2024-10-09)"
     xmlns:inkscape="http://www.inkscape.org/namespaces/inkscape"
     xmlns:sodipodi="http://sodipodi.sourceforge.net/DTD/sodipodi-0.dtd"
     xmlns="http://www.w3.org/2000/svg"
     xmlns:svg="http://www.w3.org/2000/svg"> <defs
     id="defs728" /> <sodipodi:namedview
     id="namedview726"
     pagecolor="#ffffff"
     bordercolor="#999999"
     borderopacity="1"
     showgrid="false"
     inkscape:showpageshadow="0"
     inkscape:pageopacity="0"
     inkscape:pagecheckerboard="0"
     inkscape:deskcolor="#d1d1d1"
     inkscape:zoom="0.8"
     inkscape:cx="411.875"
     inkscape:cy="562.5"
     inkscape:window-width="1872"
     inkscape:window-height="1027"
     inkscape:window-x="63"
     inkscape:window-y="25"
     inkscape:window-maximized="1"
     inkscape:current-layer="template" /><polygon
     fill="#929497"
     points="0,270 198,270 198,0 0,0 "
     id="polygon103"
     transform="matrix(4.1666667,0,0,4.1666667,-3.3000001e-6,-4.4999999e-6)"
     style="fill:#161717;fill-opacity:1" /><path
     fill="#ffffff"
     d="m 37.5,1050 c 0,20.7125 16.7875,37.5 37.5,37.5 h 675 c 20.7125,0 37.5,-16.7875 37.5,-37.5 V 74.999998 c 0,-20.7125 -16.7875,-37.5 -37.5,-37.5 H 75 c -20.7125,0 -37.5,16.7875 -37.5,37.5 z"
     id="path103"
     style="fill:#808080;fill-opacity:1;stroke:none;stroke-width:4.16667" /><path
     fill="none"
     stroke="#ec1e28"
     d="m 37.5,1050 c 0,20.7125 16.7875,37.5 37.5,37.5 h 675 c 20.7125,0 37.5,-16.7875 37.5,-37.5 V 74.999998 c 0,-20.7125 -16.7875,-37.5 -37.5,-37.5 H 75 c -20.7125,0 -37.5,16.7875 -37.5,37.5 z"
     id="clipping"
     style="fill:#808080;fill-opacity:1;stroke:none;stroke-width:4.16667" /><path
     fill="none"
     stroke="#2ba6de"
     stroke-dasharray="6"
     d="m 75.54166,91.274998 c 0,-8.983333 7.14167,-16.25 15.95,-16.25 h 642.01668 c 8.80833,0 15.95,7.266667 15.95,16.25 V 1033.725 c 0,8.975 -7.14167,16.25 -15.95,16.25 H 91.49166 c -8.80833,0 -15.95,-7.275 -15.95,-16.25 z"
     id="path105"
     style="fill:#c3c3c3;fill-opacity:1;stroke:none;stroke-width:4.16667" /></svg>
