<?xml version="1.0" encoding="UTF-8" standalone="no"?>
<svg
     version="1.1"
     id="template"
     x="0px"
     y="0px"
     width="900"
     height="1500"
     viewBox="0 0 900 1500"
     enable-background="new 0 0 270 414"
     xml:space="preserve"
     sodipodi:docname="FoilTarotDeck.svg"
     inkscape:version="1.4 (e7c3feb1, 2024-10-09)"
     xmlns:inkscape="http://www.inkscape.org/namespaces/inkscape"
     xmlns:sodipodi="http://sodipodi.sourceforge.net/DTD/sodipodi-0.dtd"
     xmlns="http://www.w3.org/2000/svg"
     xmlns:svg="http://www.w3.org/2000/svg"> <defs
     id="defs728" /> <sodipodi:namedview
     id="namedview726"
     pagecolor="#ffffff"
     bordercolor="#999999"
     borderopacity="1"
     showgrid="false"
     inkscape:showpageshadow="0"
     inkscape:pageopacity="0"
     inkscape:pagecheckerboard="0"
     inkscape:deskcolor="#d1d1d1"
     inkscape:zoom="0.6"
     inkscape:cx="449.16667"
     inkscape:cy="750"
     inkscape:window-width="1872"
     inkscape:window-height="1027"
     inkscape:window-x="63"
     inkscape:window-y="25"
     inkscape:window-maximized="1"
     inkscape:current-layer="template" /><polygon
     fill="#929497"
     points="216.1,0 0.1,0 0.1,360 216.1,360 "
     id="polygon103"
     transform="matrix(4.1647193,0,0,4.1647193,-0.2061563,0.350526)"
     style="fill:#0b0b0b;fill-opacity:1" /><path
     fill="#ffffff"
     stroke="#ec1e28"
     stroke-width="4.30132"
     d="M 824.40827,1462.167 H 74.758791 c -20.702819,0 -37.482473,-16.7797 -37.482473,-37.4825 V 75.315473 C 37.276318,54.612654 54.055972,37.833 74.758791,37.833 H 824.40827 c 20.70282,0 37.48248,16.779654 37.48248,37.482473 V 1424.6845 c 0,20.7028 -16.77966,37.4825 -37.48248,37.4825 z"
     id="clipping"
     style="fill:#656565;fill-opacity:1;stroke:none" /><path
     fill="none"
     stroke="#2ba6de"
     stroke-width="4.29591"
     stroke-dasharray="1.7876"
     d="m 74.758791,97.359333 c 0,-12.435852 7.94212,-22.493649 17.741704,-22.493649 H 806.66657 c 9.79542,0 17.7417,10.061962 17.7417,22.493649 V 1401.7369 c 0,12.4234 -7.94628,22.4937 -17.7417,22.4937 H 92.500495 c -9.799584,0 -17.741704,-10.0703 -17.741704,-22.4937 z"
     id="path104"
     style="fill:#c1c1c1;fill-opacity:1;stroke:none" /></svg>
