<?xml version="1.0" encoding="UTF-8" standalone="no"?>
<svg
     version="1.1"
     id="Layer_1"
     x="0px"
     y="0px"
     width="1275"
     height="1125"
     viewBox="0 0 1275 1125"
     enable-background="new 0 0 306 270"
     xml:space="preserve"
     sodipodi:docname="InvaderMat.svg"
     inkscape:version="1.4 (e7c3feb1, 2024-10-09)"
     xmlns:inkscape="http://www.inkscape.org/namespaces/inkscape"
     xmlns:sodipodi="http://sodipodi.sourceforge.net/DTD/sodipodi-0.dtd"
     xmlns="http://www.w3.org/2000/svg"
     xmlns:svg="http://www.w3.org/2000/svg"><defs
         id="defs222">
	
	

	
	

	
	

	
	

	
	

	
	

	
	

	
	

	
	

	
	

	
	

	
	

	
	

	

	

	

	
	
	
	
	
	

		
		
		
		
	
		
		
		
		
		
		
		
	
		
		
		
	
		
		
		
		
		
		
		
		
		
		
		
		
		
		
		
		
		
		
		
		
		
		
		
		
		
		
		
		
		
		
		
		
		
		
		
		
		
		
		
		
		
		
		
		
		
		
		
		
		
		
		
		
		
		
		
		
		
		
		
		
		
		
		
		
		
		
		
		
		
		
		
		
		
		
		
		
		
		
		
		
		
		
		
		
		
		
		
		
		
		
		
		
		
		
		
		
		
		
	
			
			
			
		
			
			
			
		
			
			
		
			
			
			
		
			
			
			
		
			
			
			
			
		
			
			
		
				
				
			
				
				
			
				
				
				
				
				
			
				
				
			
					
					
				
					
					
					
				
					
					
					
					
				
					
					
				
						
						
						
					
						
						
						
						
					
						
						
					
							
							
							
							
						
							
							
							
						
							
							
							
							
							
							
							
						
								
								
							
								
								
								
								
								
							

















































</defs><sodipodi:namedview
         id="namedview222"
         pagecolor="#505050"
         bordercolor="#eeeeee"
         borderopacity="1"
         inkscape:showpageshadow="0"
         inkscape:pageopacity="0"
         inkscape:pagecheckerboard="0"
         inkscape:deskcolor="#d1d1d1"
         inkscape:zoom="0.56568543"
         inkscape:cx="418.96077"
         inkscape:cy="696.50018"
         inkscape:window-width="1872"
         inkscape:window-height="1027"
         inkscape:window-x="62"
         inkscape:window-y="25"
         inkscape:window-maximized="1"
         inkscape:current-layer="Layer_1" /><rect
         fill="#929497"
         width="1275"
         height="1125"
         id="rect1"
         style="fill:#101011;fill-opacity:1;stroke-width:4.16667"
         x="0"
         y="0" /><path
         id="clipping"
         d="m 337.55078,42.824217 -75,129.908203 75,129.91016 h -0.0292 l -75.00001,129.91209 75.00001,129.90821 h -0.0292 l -74.99609,129.90433 74.99609,129.91209 h -0.0217 l -74.99609,129.90429 74.99609,129.91211 H 487.4825 l 74.96679,-129.86328 0.0167,0.0292 h 150.00784 l 75,-129.90821 -75,-129.90821 h 0.0292 l 75,-129.90817 -75,-129.9082 h 0.0292 l 75,-129.91213 -75,-129.9082 H 562.52041 l -74.97071,129.86524 -0.0167,-0.0312 h 0.025 l 75,-129.91016 -75,-129.908208 z m 450.05664,0.07225 -75,129.912113 75,129.9082 h -0.025 L 712.5863,432.6289 787.58242,562.53711 h -0.0292 l -74.99221,129.90817 74.99221,129.90821 h -0.0208 l -75,129.90821 75,129.9141 h 150.0078 L 1012.5402,952.2617 937.54022,822.35349 h 0.025 l 74.95898,-129.84375 0.033,0.0567 h 150.0078 l 75,-129.90821 -75,-129.91213 h -150.0078 l -74.96091,129.84571 -0.0292,-0.0546 h 0.025 L 1012.5885,432.62899 937.59242,302.71686 h 0.0292 L 1012.6172,172.80859 937.62109,42.896484 Z M 112.4336,432.55467 37.433594,562.46288 112.4336,692.36721 h 150.01171 l 74.9961,-129.90433 -74.9961,-129.90821 z m 450.07032,0.0429 0.0167,0.0292 h -0.025 l -74.97459,129.86521 -0.0167,-0.0292 h 0.0292 z m -0.0292,259.8125 0.0208,0.0333 h -0.0292 l -74.97071,129.85746 -0.0125,-0.025 h 0.0208 z"
         style="fill:#717178;fill-opacity:1;stroke:none;stroke-width:4.16667" /><polygon
         fill="#ffffff"
         stroke="#eb242b"
         stroke-width="0.8661"
         points="297.016,135.038 279.016,166.216 243.014,166.216 225.014,135.038 243.014,103.859 279.016,103.859 "
         id="polygon1"
         style="fill:#737373;fill-opacity:1;stroke:none"
         transform="scale(4.1666667)" /><polygon
         fill="none"
         stroke="#00aeef"
         stroke-width="0.8661"
         stroke-dasharray="2.8865"
         points="288.015,135.038 274.515,158.421 247.513,158.421 234.013,135.038 247.513,111.654 274.515,111.654 "
         id="polygon2"
         style="fill:#e5e5e5;fill-opacity:1;stroke:none"
         transform="scale(4.1666667)" /><polygon
         fill="#ffffff"
         stroke="#eb242b"
         stroke-width="0.8661"
         points="243.028,41.474 225.029,72.652 189.026,72.652 171.026,41.474 189.026,10.295 225.029,10.295 "
         id="polygon3"
         style="fill:#737373;fill-opacity:1;stroke:none"
         transform="scale(4.1666667)" /><polygon
         fill="none"
         stroke="#00aeef"
         stroke-width="0.8661"
         stroke-dasharray="2.8865"
         points="234.029,41.474 220.527,64.857 193.525,64.857 180.027,41.474 193.525,18.09 220.527,18.09 "
         id="polygon4"
         style="fill:#e5e5e5;fill-opacity:1;stroke:none"
         transform="scale(4.1666667)" /><polygon
         fill="#ffffff"
         stroke="#eb242b"
         stroke-width="0.8661"
         points="189.008,72.652 171.008,103.831 135.005,103.831 117.006,72.652 135.005,41.474 171.008,41.474 "
         id="polygon5"
         style="fill:#737373;fill-opacity:1;stroke:none"
         transform="scale(4.1666667)" /><polygon
         fill="none"
         stroke="#00aeef"
         stroke-width="0.8661"
         stroke-dasharray="2.8865"
         points="180.007,72.652 166.507,96.036 139.505,96.036 126.006,72.652 139.505,49.269 166.507,49.269 "
         id="polygon6"
         style="fill:#e5e5e5;fill-opacity:1;stroke:none"
         transform="scale(4.1666667)" /><polygon
         fill="#ffffff"
         stroke="#eb242b"
         stroke-width="0.8661"
         points="243.021,103.831 225.022,135.009 189.02,135.009 171.021,103.831 189.02,72.652 225.022,72.652 "
         id="polygon7"
         style="fill:#737373;fill-opacity:1;stroke:none"
         transform="scale(4.1666667)" /><polygon
         fill="none"
         stroke="#00aeef"
         stroke-width="0.8661"
         stroke-dasharray="2.8865"
         points="234.022,103.831 220.521,127.214 193.519,127.214 180.021,103.831 193.519,80.447 220.521,80.447 "
         id="polygon8"
         style="fill:#e5e5e5;fill-opacity:1;stroke:none"
         transform="scale(4.1666667)" /><polygon
         fill="#ffffff"
         stroke="#eb242b"
         stroke-width="0.8661"
         points="189.001,135.009 171.001,166.187 134.999,166.187 116.999,135.009 134.999,103.831 171.001,103.831 "
         id="polygon9"
         style="fill:#737373;fill-opacity:1;stroke:none"
         transform="scale(4.1666667)" /><polygon
         fill="none"
         stroke="#00aeef"
         stroke-width="0.8661"
         stroke-dasharray="2.8865"
         points="180,135.009 166.5,158.393 139.498,158.393 126,135.009 139.498,111.625 166.5,111.625 "
         id="polygon10"
         style="fill:#e5e5e5;fill-opacity:1;stroke:none"
         transform="scale(4.1666667)" /><polygon
         fill="#ffffff"
         stroke="#eb242b"
         stroke-width="0.8661"
         points="243.015,166.187 225.016,197.365 189.013,197.365 171.015,166.187 189.013,135.009 225.016,135.009 "
         id="polygon11"
         style="fill:#737373;fill-opacity:1;stroke:none"
         transform="scale(4.1666667)" /><polygon
         fill="none"
         stroke="#00aeef"
         stroke-width="0.8661"
         stroke-dasharray="2.8865"
         points="234.016,166.187 220.514,189.57 193.512,189.57 180.014,166.187 193.512,142.803 220.514,142.803 "
         id="polygon12"
         style="fill:#e5e5e5;fill-opacity:1;stroke:none"
         transform="scale(4.1666667)" /><polygon
         fill="#ffffff"
         stroke="#eb242b"
         stroke-width="0.8661"
         points="188.994,197.365 170.994,228.543 134.992,228.543 116.992,197.365 134.992,166.187 170.994,166.187 "
         id="polygon13"
         style="fill:#737373;fill-opacity:1;stroke:none"
         transform="scale(4.1666667)" /><polygon
         fill="none"
         stroke="#00aeef"
         stroke-width="0.8661"
         stroke-dasharray="2.8865"
         points="179.995,197.365 166.493,220.749 139.491,220.749 125.993,197.365 139.491,173.981 166.493,173.981 "
         id="polygon14"
         style="fill:#e5e5e5;fill-opacity:1;stroke:none"
         transform="scale(4.1666667)" /><polygon
         fill="#ffffff"
         stroke="#eb242b"
         stroke-width="0.8661"
         points="243.01,228.543 225.01,259.722 189.008,259.722 171.008,228.543 189.008,197.365 225.01,197.365 "
         id="polygon15"
         style="fill:#737373;fill-opacity:1;stroke:none"
         transform="scale(4.1666667)" /><polygon
         fill="none"
         stroke="#00aeef"
         stroke-width="0.8661"
         stroke-dasharray="2.8865"
         points="234.009,228.543 220.509,251.927 193.507,251.927 180.007,228.543 193.507,205.16 220.509,205.16 "
         id="polygon16"
         style="fill:#e5e5e5;fill-opacity:1;stroke:none"
         transform="scale(4.1666667)" /><polygon
         fill="#ffffff"
         stroke="#eb242b"
         stroke-width="0.8661"
         points="135.014,41.456 117.014,72.634 81.012,72.634 63.012,41.456 81.012,10.278 117.014,10.278 "
         id="polygon17"
         style="fill:#737373;fill-opacity:1;stroke:none"
         transform="scale(4.1666667)" /><polygon
         fill="none"
         stroke="#00aeef"
         stroke-width="0.8661"
         stroke-dasharray="2.8865"
         points="126.015,41.456 112.513,64.84 85.511,64.84 72.013,41.456 85.511,18.072 112.513,18.072 "
         id="polygon18"
         style="fill:#e5e5e5;fill-opacity:1;stroke:none"
         transform="scale(4.1666667)" /><polygon
         fill="#ffffff"
         stroke="#eb242b"
         stroke-width="0.8661"
         points="135.007,103.813 117.008,134.991 81.005,134.991 63.005,103.813 81.005,72.634 117.008,72.634 "
         id="polygon19"
         style="fill:#737373;fill-opacity:1;stroke:none"
         transform="scale(4.1666667)" /><polygon
         fill="none"
         stroke="#00aeef"
         stroke-width="0.8661"
         stroke-dasharray="2.8865"
         points="126.008,103.813 112.506,127.196 85.504,127.196 72.006,103.813 85.504,80.429 112.506,80.429 "
         id="polygon20"
         style="fill:#e5e5e5;fill-opacity:1;stroke:none"
         transform="scale(4.1666667)" /><polygon
         fill="#ffffff"
         stroke="#eb242b"
         stroke-width="0.8661"
         points="80.986,134.991 62.987,166.168 26.984,166.168 8.984,134.991 26.984,103.813 62.987,103.813 "
         id="polygon21"
         style="fill:#737373;fill-opacity:1;stroke:none"
         transform="scale(4.1666667)" /><polygon
         fill="none"
         stroke="#00aeef"
         stroke-width="0.8661"
         stroke-dasharray="2.8865"
         points="71.986,134.991 58.486,158.374 31.484,158.374 17.983,134.991 31.484,111.607 58.486,111.607 "
         id="polygon22"
         style="fill:#e5e5e5;fill-opacity:1;stroke:none"
         transform="scale(4.1666667)" /><polygon
         fill="#ffffff"
         stroke="#eb242b"
         stroke-width="0.8661"
         points="135,166.168 117.001,197.347 80.998,197.347 62.999,166.168 80.998,134.991 117.001,134.991 "
         id="polygon23"
         style="fill:#737373;fill-opacity:1;stroke:none"
         transform="scale(4.1666667)" /><polygon
         fill="none"
         stroke="#00aeef"
         stroke-width="0.8661"
         stroke-dasharray="2.8865"
         points="126.001,166.168 112.5,189.552 85.498,189.552 71.999,166.168 85.498,142.784 112.5,142.784 "
         id="polygon24"
         style="fill:#e5e5e5;fill-opacity:1;stroke:none"
         transform="scale(4.1666667)" /><polygon
         fill="#ffffff"
         stroke="#eb242b"
         stroke-width="0.8661"
         points="134.995,228.524 116.996,259.703 80.993,259.703 62.994,228.524 80.993,197.347 116.996,197.347 "
         id="polygon25"
         style="fill:#737373;fill-opacity:1;stroke:none"
         transform="scale(4.1666667)" /><polygon
         fill="none"
         stroke="#00aeef"
         stroke-width="0.8661"
         stroke-dasharray="2.8865"
         points="125.995,228.524 112.495,251.908 85.493,251.908 71.993,228.524 85.493,205.141 112.495,205.141 "
         id="polygon26"
         style="fill:#e5e5e5;fill-opacity:1;stroke:none"
         transform="scale(4.1666667)" /></svg>
