<?xml version="1.0" encoding="UTF-8" standalone="no"?>
<svg
   viewBox="0 0 828 1224"
   version="1.1"
   id="svg272"
   sodipodi:docname="JumboHookHookBox90Back.svg"
   inkscape:version="1.3.2 (091e20e, 2023-11-25, custom)"
   xmlns:inkscape="http://www.inkscape.org/namespaces/inkscape"
   xmlns:sodipodi="http://sodipodi.sourceforge.net/DTD/sodipodi-0.dtd"
   xmlns="http://www.w3.org/2000/svg"
   xmlns:svg="http://www.w3.org/2000/svg">
  <sodipodi:namedview
     id="namedview272"
     pagecolor="#505050"
     bordercolor="#eeeeee"
     borderopacity="1"
     inkscape:showpageshadow="0"
     inkscape:pageopacity="0"
     inkscape:pagecheckerboard="0"
     inkscape:deskcolor="#d1d1d1"
     inkscape:zoom="4.1594517"
     inkscape:cx="311.33912"
     inkscape:cy="628.32801"
     inkscape:window-width="2560"
     inkscape:window-height="1351"
     inkscape:window-x="-9"
     inkscape:window-y="-9"
     inkscape:window-maximized="1"
     inkscape:current-layer="svg272" />
  <defs
     id="defs1">
    <style
       id="style1">.cls-1,.cls-2,.cls-3,.cls-4,.cls-5,.cls-6,.cls-7,.cls-8,.cls-9,.cls-10,.cls-11,.cls-12,.cls-13,.cls-14,.cls-15,.cls-16,.cls-17,.cls-18,.cls-19,.cls-20,.cls-21,.cls-22,.cls-23,.cls-24,.cls-25,.cls-26,.cls-27,.cls-28,.cls-29,.cls-30{fill:none;}.cls-2,.cls-3,.cls-4,.cls-5,.cls-6,.cls-7,.cls-8,.cls-9,.cls-11,.cls-12,.cls-14,.cls-15,.cls-16,.cls-17,.cls-18,.cls-19,.cls-20,.cls-21,.cls-22,.cls-23,.cls-24,.cls-25,.cls-26,.cls-27,.cls-28,.cls-29{stroke-miterlimit:10;}.cls-2,.cls-18{stroke:#0baa4b;}.cls-31,.cls-32,.cls-33,.cls-34{fill-rule:evenodd;}.cls-31,.cls-35{fill:#fff;}.cls-36,.cls-37,.cls-38,.cls-39{font-family:Arial-Black, 'Arial Black';font-weight:800;}.cls-36,.cls-38,.cls-39,.cls-40,.cls-41{fill:#231f20;}.cls-3{stroke-dasharray:5.02 5.02;}.cls-3,.cls-4,.cls-5,.cls-6,.cls-7,.cls-8,.cls-9,.cls-11,.cls-12,.cls-14,.cls-15,.cls-16,.cls-20,.cls-21,.cls-22,.cls-23,.cls-24,.cls-25,.cls-26,.cls-27,.cls-28{stroke:#26aae1;}.cls-4{stroke-dasharray:4.99 4.99;}.cls-5{stroke-dasharray:5 5;}.cls-6{stroke-dasharray:5 5;}.cls-7{stroke-dasharray:5 5;}.cls-8{stroke-dasharray:4.99 4.99;}.cls-9{stroke-dasharray:5 5;}.cls-10,.cls-13,.cls-17,.cls-29,.cls-30{stroke-width:2px;}.cls-10,.cls-30{stroke:#2ba4dd;}.cls-11{stroke-dasharray:5.88 5.88;}.cls-13{stroke:#ec2224;}.cls-37{fill:#020202;}.cls-37,.cls-38{font-size:12.75px;}.cls-32{fill:#b7d333;}.cls-14{stroke-dasharray:5.3 5.3;}.cls-15{stroke-dasharray:5.21 5.21;}.cls-16{stroke-dasharray:5.21 5.21;}.cls-42{fill:#919396;}.cls-42,.cls-43,.cls-44,.cls-41,.cls-45{font-family:Arial-BoldMT, Arial;font-weight:700;}.cls-42,.cls-43,.cls-44,.cls-45{font-size:9px;}.cls-46{fill:#d0d1d2;}.cls-17{stroke:#0ea94b;}.cls-18,.cls-40{opacity:.5;}.cls-47{letter-spacing:0em;}.cls-19{stroke:red;}.cls-48{font-size:12.36px;}.cls-49{font-size:14.83px;}.cls-39{font-size:30px;}.cls-50{letter-spacing:0em;}.cls-20{stroke-dasharray:4.94 4.94;}.cls-21{stroke-dasharray:4.94 4.94;}.cls-22{stroke-dasharray:4.94 4.94;}.cls-23{stroke-dasharray:4.94 4.94;}.cls-24{stroke-dasharray:4.94 4.94;}.cls-25{stroke-dasharray:5.06 5.06;}.cls-43{fill:#2ba4dd;}.cls-26{stroke-dasharray:5.32 5.32;}.cls-27{stroke-dasharray:5.04 5.04;}.cls-28{stroke-dasharray:5.04 5.04;}.cls-29{stroke:#929395;}.cls-44{fill:#0baa4b;}.cls-30{stroke-dasharray:4.99 4.99;}.cls-51{letter-spacing:-.02em;}.cls-52{letter-spacing:-.02em;}.cls-53{letter-spacing:-.02em;}.cls-54{letter-spacing:-.02em;}.cls-55{letter-spacing:-.02em;}.cls-56{letter-spacing:-.02em;}.cls-57{letter-spacing:-.06em;}.cls-58{letter-spacing:-.04em;}.cls-59{letter-spacing:-.04em;}.cls-60{letter-spacing:-.03em;}.cls-61{letter-spacing:-.03em;}.cls-62{letter-spacing:-.03em;}.cls-63{letter-spacing:-.03em;}.cls-64{letter-spacing:0em;}.cls-65,.cls-34{fill:#4e494b;}.cls-41{font-size:10px;}.cls-66{letter-spacing:.03em;}.cls-67{letter-spacing:.02em;}.cls-68{letter-spacing:.05em;}.cls-45{fill:#eb222a;}.cls-69{letter-spacing:.01em;}</style>
  </defs>
  <path
     class="cls-40"
     d="M 0,0 V 1224 H 828 V 0 Z"
     id="path1"
     sodipodi:nodetypes="ccccc"
     style="fill:#0f0d0e;fill-opacity:1" />
  <path
     class="cls-19"
     d="m 512.73,39.63 c 15.93,0 28.85,12.92 28.85,28.85 v 248.45 c 0,5.5 0,10 0.02,10 h 81.46 c 5.5,0 14.5,0.22 19.99,0.5 l 169.87,8.49 c 0.08,0 0.14,0.07 0.14,0.15 v 379.87 c 0,0 -0.02,0.05 -0.05,0.05 -3.24,0.16 -169.97,8.5 -169.97,8.5 -5.49,0.27 -14.49,0.5 -19.99,0.5 h -81.39 c 0,0 -0.05,0.02 -0.05,0.05 v 469.34 c 0,9.97 -8.08,18.05 -18.05,18.05 H 304.42 c -9.97,0 -18.05,-8.08 -18.05,-18.05 V 725.04 c 0,0 -0.02,-0.05 -0.05,-0.05 -2.35,0 -82.48,0 -82.48,0 -5.5,0 -14.5,-0.23 -19.99,-0.5 L 14.97,716 c 0,0 -0.05,-0.02 -0.05,-0.05 V 336.37 c 0,0 0.03,-0.07 0.06,-0.07 l 169.58,-8.16 c 5.49,-0.26 14.49,-0.52 19.99,-0.56 l 71.8,-0.57 c 5.5,-0.04 10.05,-0.08 10.1,-0.08 0.05,0 0.1,-4.5 0.1,-10 v -70.71 c 0,-5.5 0,-14.5 -0.01,-20 L 286.36,79.34 c 0,-5.5 0.11,-12.19 0.25,-14.85 l 0.43,-2.15 c 3.21,-16.15 16.86,-21.99 27,-22.67 7.12,-0.48 56.91,-0.2 56.91,-0.2 5.5,0.03 10.67,0 11.5,-0.06 l 0.54,-0.2 c 3.97,-1.47 0.84,-7.47 -3.41,-5.37 -5.99,2.95 -14.2,-22.22 27.18,-22.25 34.47,-0.02 34.39,21.65 39.1,26.9 l 0.67,0.75 c 0.96,0.21 1.75,0.38 1.75,0.39 0,0.01 4.5,0 10,0 h 54.41 z"
     id="clipping"
     style="fill:#767676;fill-opacity:1;stroke:none" />
  <rect
     class="cls-2"
     x="286.38"
     y="326.92001"
     width="255.24001"
     height="398.06"
     id="actualSize"
     style="stroke:none;fill:#bebebe;fill-opacity:1" />
  <polyline
     class="cls-12"
     points="530.12 335.92 532.62 335.92 532.62 338.42"
     id="polyline163" />
  <line
     class="cls-5"
     x1="532.62"
     y1="343.42999"
     x2="532.62"
     y2="710.97998"
     id="line163" />
  <polyline
     class="cls-12"
     points="532.62 713.48 532.62 715.98 530.12 715.98"
     id="polyline164" />
  <line
     class="cls-20"
     x1="525.17999"
     y1="715.97998"
     x2="300.35001"
     y2="715.97998"
     id="line164" />
  <polyline
     class="cls-12"
     points="297.88 715.98 295.38 715.98 295.38 713.48"
     id="polyline165" />
  <line
     class="cls-6"
     x1="295.38"
     y1="708.47998"
     x2="295.38"
     y2="340.92001"
     id="line165" />
  <polyline
     class="cls-12"
     points="295.38 338.42 295.38 335.92 297.88 335.92"
     id="polyline166" />
  <line
     class="cls-20"
     x1="302.82001"
     y1="335.92001"
     x2="527.65002"
     y2="335.92001"
     id="line166" />
  <polyline
     class="cls-12"
     points="206.01 336.59 203.51 336.62 203.5 339.12"
     id="polyline167" />
  <line
     class="cls-4"
     x1="203.5"
     y1="344.10001"
     x2="203.22"
     y2="710.64001"
     id="line167" />
  <polyline
     class="cls-12"
     points="203.22 713.14 203.22 715.64 205.72 715.65"
     id="polyline168" />
  <line
     class="cls-26"
     x1="211.03999"
     y1="715.66998"
     x2="272.22"
     y2="715.96002"
     id="line168" />
  <polyline
     class="cls-12"
     points="274.88 715.97 277.38 715.98 277.38 713.48"
     id="polyline169" />
  <line
     class="cls-6"
     x1="277.38"
     y1="708.47998"
     x2="277.38"
     y2="340.92001"
     id="line169" />
  <polyline
     class="cls-12"
     points="277.38 338.42 277.38 335.92 274.88 335.95"
     id="polyline170" />
  <line
     class="cls-14"
     x1="269.57999"
     y1="336"
     x2="208.66"
     y2="336.57001"
     id="line170" />
  <polyline
     class="cls-12"
     points="183.08 336.78 185.58 336.65 185.57 339.15"
     id="polyline171" />
  <line
     class="cls-8"
     x1="185.56"
     y1="344.14001"
     x2="184.92999"
     y2="710.98999"
     id="line171" />
  <polyline
     class="cls-12"
     points="184.93 713.48 184.93 715.98 182.43 715.85"
     id="polyline172" />
  <line
     class="cls-28"
     x1="177.39999"
     y1="715.58002"
     x2="28.950001"
     y2="707.65997"
     id="line172" />
  <polyline
     class="cls-12"
     points="26.43 707.52 23.94 707.39 23.94 704.89"
     id="polyline173" />
  <line
     class="cls-27"
     x1="23.940001"
     y1="699.85999"
     x2="23.940001"
     y2="349.91"
     id="line173" />
  <polyline
     class="cls-12"
     points="23.94 347.4 23.94 344.9 26.43 344.77"
     id="polyline174" />
  <line
     class="cls-25"
     x1="31.49"
     y1="344.51001"
     x2="180.55"
     y2="336.91"
     id="line174" />
  <polyline
     class="cls-12"
     points="620.3 336.95 622.8 336.98 622.8 339.48"
     id="polyline175" />
  <line
     class="cls-4"
     x1="622.79999"
     y1="344.45999"
     x2="623.08002"
     y2="711"
     id="line175" />
  <polyline
     class="cls-12"
     points="623.09 713.5 623.09 716 620.59 716.01"
     id="polyline176" />
  <line
     class="cls-26"
     x1="615.27002"
     y1="716.03003"
     x2="554.09003"
     y2="716.32001"
     id="line176" />
  <polyline
     class="cls-12"
     points="551.43 716.33 548.93 716.34 548.93 713.84"
     id="polyline177" />
  <line
     class="cls-6"
     x1="548.92999"
     y1="708.84003"
     x2="548.92999"
     y2="341.29001"
     id="line177" />
  <polyline
     class="cls-12"
     points="548.93 338.79 548.93 336.29 551.43 336.31"
     id="polyline178" />
  <line
     class="cls-14"
     x1="556.72998"
     y1="336.35999"
     x2="617.65002"
     y2="336.92999"
     id="line178" />
  <polyline
     class="cls-12"
     points="643.22 337.14 640.73 337.01 640.73 339.51"
     id="polyline179" />
  <line
     class="cls-8"
     x1="640.73999"
     y1="344.5"
     x2="641.37"
     y2="711.34998"
     id="line179" />
  <polyline
     class="cls-12"
     points="641.37 713.84 641.38 716.34 643.87 716.21"
     id="polyline180" />
  <line
     class="cls-28"
     x1="648.90997"
     y1="715.94"
     x2="797.34998"
     y2="708.02002"
     id="line180" />
  <polyline
     class="cls-12"
     points="799.87 707.89 802.37 707.75 802.37 705.25"
     id="polyline181" />
  <line
     class="cls-27"
     x1="802.37"
     y1="700.21997"
     x2="802.37"
     y2="350.28"
     id="line181" />
  <polyline
     class="cls-12"
     points="802.37 347.76 802.37 345.26 799.87 345.13"
     id="polyline182" />
  <line
     class="cls-25"
     x1="794.82001"
     y1="344.87"
     x2="645.75"
     y2="337.26999"
     id="line182" />
  <polyline
     class="cls-12"
     points="295.38 315.42 295.38 317.92 297.88 317.92"
     id="polyline183" />
  <line
     class="cls-23"
     x1="302.82001"
     y1="317.92001"
     x2="527.60999"
     y2="317.92001"
     id="line183" />
  <polyline
     class="cls-12"
     points="530.08 317.92 532.58 317.92 532.58 315.42"
     id="polyline184" />
  <line
     class="cls-16"
     x1="532.58002"
     y1="310.22"
     x2="532.58002"
     y2="250.32001"
     id="line184" />
  <polyline
     class="cls-12"
     points="532.58 247.71 532.58 245.21 530.08 245.21"
     id="polyline185" />
  <line
     class="cls-22"
     x1="525.14001"
     y1="245.21001"
     x2="300.35001"
     y2="245.21001"
     id="line185" />
  <polyline
     class="cls-12"
     points="297.88 245.21 295.38 245.21 295.38 247.71"
     id="polyline186" />
  <line
     class="cls-15"
     x1="295.38"
     y1="252.92"
     x2="295.38"
     y2="312.82001"
     id="line186" />
  <polyline
     class="cls-12"
     points="295.57 224.71 295.57 227.21 298.07 227.21"
     id="polyline187" />
  <line
     class="cls-24"
     x1="303.01001"
     y1="227.21001"
     x2="527.65002"
     y2="227.21001"
     id="line187" />
  <polyline
     class="cls-12"
     points="530.12 227.21 532.62 227.21 532.62 224.71"
     id="polyline188" />
  <path
     class="cls-3"
     d="M 532.62,219.69 532.59,74.96 c 0,-14.55 -12.07,-26.34 -26.95,-26.34 H 321.68 c -14.54,0 -26.33,11.53 -26.31,25.74 l 0.19,147.83"
     id="path188" />
  <polyline
     class="cls-12"
     points="295.36 804.56 295.36 807.06 297.86 807.06"
     id="polyline189" />
  <line
     class="cls-23"
     x1="302.79999"
     y1="807.06"
     x2="527.59003"
     y2="807.06"
     id="line189" />
  <polyline
     class="cls-12"
     points="530.06 807.06 532.56 807.06 532.56 804.56"
     id="polyline190" />
  <line
     class="cls-16"
     x1="532.56"
     y1="799.34998"
     x2="532.56"
     y2="739.45001"
     id="line190" />
  <polyline
     class="cls-12"
     points="532.56 736.85 532.56 734.35 530.06 734.35"
     id="polyline191" />
  <line
     class="cls-22"
     x1="525.12"
     y1="734.34998"
     x2="300.32999"
     y2="734.34998"
     id="line191" />
  <polyline
     class="cls-12"
     points="297.86 734.35 295.36 734.35 295.36 736.85"
     id="polyline192" />
  <line
     class="cls-15"
     x1="295.35999"
     y1="742.06"
     x2="295.35999"
     y2="801.95001"
     id="line192" />
  <path
     class="cls-9"
     d="m 373.81,1020.1 c 4.62,5.65 16.37,-1.43 40.19,-1.43 26.89,0 40.6,8.03 45.96,1.19 5.69,-7.27 -2.63,-20.28 -43.61,-20.28 -40.98,0 -49.38,12.15 -42.54,20.51 z"
     id="path192" />
  <polyline
     class="cls-12"
     points="532.56 827.93 532.56 825.43 530.06 825.43"
     id="polyline193" />
  <polyline
     class="cls-21"
     points="525.12 825.43 521.75 825.43 306.24 825.43 300.33 825.43"
     id="polyline194" />
  <polyline
     class="cls-12"
     points="297.86 825.43 295.36 825.43 295.36 827.93"
     id="polyline195" />
  <line
     class="cls-11"
     x1="295.35999"
     y1="833.81"
     x2="295.35999"
     y2="854.40002"
     id="line195" />
  <polyline
     class="cls-12"
     points="295.36 857.34 295.36 859.84 295.38 859.84 295.38 862.34"
     id="polyline196" />
  <path
     class="cls-7"
     d="m 295.38,867.33 v 325.23 c 0,6 4.86,10.86 10.86,10.86 h 215.51 c 6,0 10.86,-4.86 10.86,-10.86 V 836.29 c 0,-0.38 -0.02,-0.76 -0.06,-1.13 v -4.74"
     id="path196" />
  <line
     class="cls-18"
     x1="286.38"
     y1="236.21001"
     x2="541.62"
     y2="236.21001"
     id="line196" />
  <line
     class="cls-2"
     x1="286.38"
     y1="816.41998"
     x2="541.62"
     y2="816.41998"
     id="line197" />
  <line
     class="cls-2"
     x1="194.94"
     y1="327.29001"
     x2="194.21001"
     y2="724.62"
     id="line198" />
  <line
     class="cls-2"
     x1="633.06"
     y1="326.92999"
     x2="633.06"
     y2="724.97998"
     id="line199" />
  <path
     id="Curved_slice"
     class="cls-19"
     d="m 379.67,1014.43 c 0,0 6.54,-5.39 36,-5.39 29.46,0 36,5.39 36,5.39" />
</svg>
