<?xml version="1.0" encoding="UTF-8" standalone="no"?>
<svg
     version="1.1"
     id="template"
     x="0px"
     y="0px"
     width="3075"
     height="4725"
     viewBox="0 0 3075 4725"
     enable-background="new 0 0 270 414"
     xml:space="preserve"
     sodipodi:docname="JumboHookBox36.svg"
     inkscape:version="1.4 (e7c3feb1, 2024-10-09)"
     xmlns:inkscape="http://www.inkscape.org/namespaces/inkscape"
     xmlns:sodipodi="http://sodipodi.sourceforge.net/DTD/sodipodi-0.dtd"
     xmlns="http://www.w3.org/2000/svg"
     xmlns:svg="http://www.w3.org/2000/svg"> <defs
     id="defs728" /> <sodipodi:namedview
     id="namedview726"
     pagecolor="#ffffff"
     bordercolor="#999999"
     borderopacity="1"
     showgrid="false"
     inkscape:showpageshadow="0"
     inkscape:pageopacity="0"
     inkscape:pagecheckerboard="0"
     inkscape:deskcolor="#d1d1d1"
     inkscape:zoom="0.19047619"
     inkscape:cx="1556.625"
     inkscape:cy="2231.25"
     inkscape:window-width="1872"
     inkscape:window-height="1027"
     inkscape:window-x="63"
     inkscape:window-y="25"
     inkscape:window-maximized="1"
     inkscape:current-layer="template" /><g
     id="g2"><path
         class="cls-53"
         d="M -1.23e-5,-1.89e-5 V 4725 H 3075 V -1.89e-5 Z"
         id="path1"
         sodipodi:nodetypes="ccccc"
         style="opacity:0.5;stroke-width:4.16667" /><path
         class="cls-18"
         d="m 1392.75,191.58332 h -267 c -66.2917,0 -120,53.70833 -120,120 v 666.625 c 0,22.91668 0,60.41668 0,83.33338 v 113.4166 c 0,0.5834 -0.4583,1.0417 -1.0417,1.0417 H 882.12499 c -22.91666,0 -60.41666,0.9167 -83.29166,2 l -736.583342,35.4583 c -0.25,0 -0.458333,0.2084 -0.458333,0.5 v 1582.3334 c 0,0.6666 0.5,1.2083 1.166667,1.25 33.666666,1.625 730.791668,35.4166 730.791668,35.4166 22.875,1.125 60.375,2 83.29167,2 h 126.62504 c 1.125,0 2.0833,0.9167 2.0833,2.0834 v 121.5416 c 0,22.9167 0,60.4167 0,83.3334 V 4575.25 c 0,41.4167 33.5833,75 75,75 h 918.5833 c 38.625,0 69.9584,-31.3333 69.9584,-69.9583 v -1538.375 c 0,-22.9167 0,-60.4167 0,-83.3334 v -120.375 c 0,-1.7916 1.4166,-3.25 3.2083,-3.25 22.9583,0 119.5,0 119.5,0 22.9167,0 60.4167,-0.9166 83.2917,-2 l 734.375,-35.3333 c 2.0416,-0.083 3.625,-1.75 3.625,-3.7917 V 1215.2917 c 0,-1 -0.7917,-1.8334 -1.7917,-1.875 L 2276.25,1178 c -22.875,-1.0833 -60.375,-2 -83.2917,-2 H 2111 c -22.9167,0 -41.7083,0 -41.7917,0 -0.083,0 -0.083,-18.75 -0.083,-41.6667 l 0.7917,-777.33332 c 0,-22.91666 -2.7917,-60.20833 -6.25,-82.875 0,0 -2.0834,-13.5 -14.5,-31.70833 -23.7084,-34.66667 -63.1667,-48.625 -94.5834,-50.75 -26.0416,-1.75 -203.625,-0.875 -262.5416,-0.66667 h -8.125 c -4.8334,0.0417 -11.3334,-0.125 -14.4584,-0.33333 l -2.125,-0.70833 c -2.125,-0.70834 -3.8333,-1.70834 -5.0833,-2.875 -3.0417,-2.875 -3.75,-6.875 -2.7083,-10.66667 2.0416,-7.54167 10.875,-14.20833 21.375,-9.04167 24.9583,12.29167 59.1666,-92.583332 -113.25,-92.708332 -90.9167,-0.04167 -124.1667,36.125002 -141.2917,68.208332 -8.9167,16.66667 -13.4583,32.25 -19.4583,41.08334 -1.4167,2.08333 -2.9167,3.79166 -4.5834,5.04166 l -2.2083,1.66667 c -3,0.41667 -5.4583,0.79167 -5.4583,0.79167 v 0"
         id="clipping"
         style="fill:#6f6f6f;fill-opacity:1;stroke:none;stroke-width:4.16667;stroke-miterlimit:10" /><line
         class="cls-2"
         x1="1005.9583"
         y1="1010.7084"
         x2="2069.25"
         y2="1010.7084"
         id="line1"
         style="fill:none;stroke:#0baa4b;stroke-width:4.16667;stroke-miterlimit:10" /><line
         class="cls-2"
         x1="1005.75"
         y1="3000.2917"
         x2="2069.25"
         y2="3000.2917"
         id="line2"
         style="fill:none;stroke:#0baa4b;stroke-width:4.16667;stroke-miterlimit:10" /><line
         class="cls-2"
         x1="841.37494"
         y1="1176"
         x2="841.37494"
         y2="2835"
         id="line3"
         style="fill:none;stroke:#0baa4b;stroke-width:4.16667;stroke-miterlimit:10" /><line
         class="cls-2"
         x1="2233.625"
         y1="1176"
         x2="2233.625"
         y2="2835"
         id="line4"
         style="fill:none;stroke:#0baa4b;stroke-width:4.16667;stroke-miterlimit:10" /><rect
         class="cls-2"
         x="1005.75"
         y="1176"
         width="1063.5"
         height="1658.5834"
         id="rect4"
         style="fill:none;stroke:#0baa4b;stroke-width:4.16667;stroke-miterlimit:10" /><polyline
         class="cls-12"
         points="485.97 291.11 488.47 291.11 488.47 293.61"
         id="polyline4"
         transform="matrix(4.1666667,0,0,4.1666667,-1.23e-5,-1.89e-5)"
         style="fill:none;stroke:#26aae1;stroke-miterlimit:10" /><line
         class="cls-5"
         x1="2035.2916"
         y1="1244.2083"
         x2="2035.2916"
         y2="2775.7083"
         id="line5"
         style="fill:none;stroke:#26aae1;stroke-width:4.16667;stroke-miterlimit:10;stroke-dasharray:5, 5" /><polyline
         class="cls-12"
         points="488.47 668.67 488.47 671.17 485.97 671.17"
         id="polyline5"
         transform="matrix(4.1666667,0,0,4.1666667,-1.23e-5,-1.89e-5)"
         style="fill:none;stroke:#26aae1;stroke-miterlimit:10" /><line
         class="cls-25"
         x1="2004.2916"
         y1="2796.5415"
         x2="1067.5"
         y2="2796.5415"
         id="line6"
         style="fill:none;stroke:#26aae1;stroke-width:4.16667;stroke-miterlimit:10;stroke-dasharray:4.94, 4.94" /><polyline
         class="cls-12"
         points="253.73 671.17 251.23 671.17 251.23 668.67"
         id="polyline6"
         transform="matrix(4.1666667,0,0,4.1666667,-1.23e-5,-1.89e-5)"
         style="fill:none;stroke:#26aae1;stroke-miterlimit:10" /><line
         class="cls-6"
         x1="1046.7916"
         y1="2765.2915"
         x2="1046.7916"
         y2="1233.7916"
         id="line7"
         style="fill:none;stroke:#26aae1;stroke-width:4.16667;stroke-miterlimit:10;stroke-dasharray:5, 5" /><polyline
         class="cls-12"
         points="251.23 293.61 251.23 291.11 253.73 291.11"
         id="polyline7"
         transform="matrix(4.1666667,0,0,4.1666667,-1.23e-5,-1.89e-5)"
         style="fill:none;stroke:#26aae1;stroke-miterlimit:10" /><line
         class="cls-25"
         x1="1077.7917"
         y1="1212.9583"
         x2="2014.5834"
         y2="1212.9583"
         id="line8"
         style="fill:none;stroke:#26aae1;stroke-width:4.16667;stroke-miterlimit:10;stroke-dasharray:4.94, 4.94" /><polyline
         class="cls-12"
         points="213.97 291.72 211.47 291.8 211.47 294.3"
         id="polyline8"
         transform="matrix(4.1666667,0,0,4.1666667,-1.23e-5,-1.89e-5)"
         style="fill:none;stroke:#26aae1;stroke-miterlimit:10" /><line
         class="cls-3"
         x1="881.125"
         y1="1247.0417"
         x2="880.79169"
         y2="2774.2917"
         id="line9"
         style="fill:none;stroke:#26aae1;stroke-width:4.16667;stroke-miterlimit:10;stroke-dasharray:4.99, 4.99" /><polyline
         class="cls-12"
         points="211.39 668.32 211.39 670.82 213.89 670.86"
         id="polyline9"
         transform="matrix(4.1666667,0,0,4.1666667,-1.23e-5,-1.89e-5)"
         style="fill:none;stroke:#26aae1;stroke-miterlimit:10" /><line
         class="cls-23"
         x1="913.41669"
         y1="2795.625"
         x2="946.70837"
         y2="2796.1667"
         id="line10"
         style="fill:none;stroke:#26aae1;stroke-width:4.16667;stroke-miterlimit:10;stroke-dasharray:5.33, 5.33" /><polyline
         class="cls-12"
         points="229.88 671.13 232.38 671.17 232.38 668.67"
         id="polyline10"
         transform="matrix(4.1666667,0,0,4.1666667,-1.23e-5,-1.89e-5)"
         style="fill:none;stroke:#26aae1;stroke-miterlimit:10" /><line
         class="cls-6"
         x1="968.25"
         y1="2765.2915"
         x2="968.25"
         y2="1233.7916"
         id="line11"
         style="fill:none;stroke:#26aae1;stroke-width:4.16667;stroke-miterlimit:10;stroke-dasharray:5, 5" /><polyline
         class="cls-12"
         points="232.38 293.61 232.38 291.11 229.88 291.19"
         id="polyline11"
         transform="matrix(4.1666667,0,0,4.1666667,-1.23e-5,-1.89e-5)"
         style="fill:none;stroke:#26aae1;stroke-miterlimit:10" /><line
         class="cls-30"
         x1="935.75"
         y1="1214.0416"
         x2="902.58331"
         y2="1215.125"
         id="line12"
         style="fill:none;stroke:#26aae1;stroke-width:4.16667;stroke-miterlimit:10;stroke-dasharray:5.31, 5.31" /><polyline
         class="cls-12"
         points="190.43 291.6 192.93 291.47 192.93 293.97"
         id="polyline12"
         transform="matrix(4.1666667,0,0,4.1666667,-1.23e-5,-1.89e-5)"
         style="fill:none;stroke:#26aae1;stroke-miterlimit:10" /><line
         class="cls-8"
         x1="803.83331"
         y1="1245.6666"
         x2="801.08331"
         y2="2774.2083"
         id="line13"
         style="fill:none;stroke:#26aae1;stroke-width:4.16667;stroke-miterlimit:10;stroke-dasharray:4.99, 4.99" /><polyline
         class="cls-12"
         points="192.25 668.31 192.25 670.81 189.75 670.68"
         id="polyline13"
         transform="matrix(4.1666667,0,0,4.1666667,-1.23e-5,-1.89e-5)"
         style="fill:none;stroke:#26aae1;stroke-miterlimit:10" /><line
         class="cls-24"
         x1="770"
         y1="2793.4583"
         x2="119.99998"
         y2="2760.2915"
         id="line14"
         style="fill:none;stroke:#26aae1;stroke-width:4.16667;stroke-miterlimit:10;stroke-dasharray:4.96, 4.96" /><polyline
         class="cls-12"
         points="26.32 662.34 23.82 662.22 23.82 659.72"
         id="polyline14"
         transform="matrix(4.1666667,0,0,4.1666667,-1.23e-5,-1.89e-5)"
         style="fill:none;stroke:#26aae1;stroke-miterlimit:10" /><line
         class="cls-31"
         x1="99.249985"
         y1="2727.8333"
         x2="99.249985"
         y2="1269.75"
         id="line15"
         style="fill:none;stroke:#26aae1;stroke-width:4.16667;stroke-miterlimit:10;stroke-dasharray:5.04, 5.04" /><polyline
         class="cls-12"
         points="23.82 302.22 23.82 299.72 26.32 299.6"
         id="polyline15"
         transform="matrix(4.1666667,0,0,4.1666667,-1.23e-5,-1.89e-5)"
         style="fill:none;stroke:#26aae1;stroke-miterlimit:10" /><line
         class="cls-14"
         x1="130.375"
         y1="1247.3333"
         x2="783.125"
         y2="1215.5"
         id="line16"
         style="fill:none;stroke:#26aae1;stroke-width:4.16667;stroke-miterlimit:10;stroke-dasharray:4.98, 4.98" /><polyline
         class="cls-12"
         points="524.49 292.08 526.99 292.16 526.99 294.66"
         id="polyline16"
         transform="matrix(4.1666667,0,0,4.1666667,-1.23e-5,-1.89e-5)"
         style="fill:none;stroke:#26aae1;stroke-miterlimit:10" /><line
         class="cls-3"
         x1="2195.7917"
         y1="1248.5416"
         x2="2196.125"
         y2="2775.7917"
         id="line17"
         style="fill:none;stroke:#26aae1;stroke-width:4.16667;stroke-miterlimit:10;stroke-dasharray:4.99, 4.99" /><polyline
         class="cls-12"
         points="527.07 668.68 527.07 671.18 524.57 671.22"
         id="polyline17"
         transform="matrix(4.1666667,0,0,4.1666667,-1.23e-5,-1.89e-5)"
         style="fill:none;stroke:#26aae1;stroke-miterlimit:10" /><line
         class="cls-21"
         x1="2162.875"
         y1="2797.125"
         x2="2128.5833"
         y2="2797.7085"
         id="line18"
         style="fill:none;stroke:#26aae1;stroke-width:4.16667;stroke-miterlimit:10;stroke-dasharray:5.48, 5.48" /><polyline
         class="cls-12"
         points="508.12 671.49 505.62 671.53 505.62 669.03"
         id="polyline18"
         transform="matrix(4.1666667,0,0,4.1666667,-1.23e-5,-1.89e-5)"
         style="fill:none;stroke:#26aae1;stroke-miterlimit:10" /><line
         class="cls-6"
         x1="2106.75"
         y1="2766.7917"
         x2="2106.75"
         y2="1235.2916"
         id="line19"
         style="fill:none;stroke:#26aae1;stroke-width:4.16667;stroke-miterlimit:10;stroke-dasharray:5, 5" /><polyline
         class="cls-12"
         points="505.62 293.97 505.62 291.47 508.12 291.55"
         id="polyline19"
         transform="matrix(4.1666667,0,0,4.1666667,-1.23e-5,-1.89e-5)"
         style="fill:none;stroke:#26aae1;stroke-miterlimit:10" /><line
         class="cls-22"
         x1="2139.9167"
         y1="1215.5417"
         x2="2174"
         y2="1216.625"
         id="line20"
         style="fill:none;stroke:#26aae1;stroke-width:4.16667;stroke-miterlimit:10;stroke-dasharray:5.46, 5.46" /><polyline
         class="cls-12"
         points="547.57 292.32 545.07 292.2 545.07 294.7"
         id="polyline20"
         transform="matrix(4.1666667,0,0,4.1666667,-1.23e-5,-1.89e-5)"
         style="fill:none;stroke:#26aae1;stroke-miterlimit:10" /><line
         class="cls-8"
         x1="2271.1667"
         y1="1248.7084"
         x2="2273.9167"
         y2="2777.2085"
         id="line21"
         style="fill:none;stroke:#26aae1;stroke-width:4.16667;stroke-miterlimit:10;stroke-dasharray:4.99, 4.99" /><polyline
         class="cls-12"
         points="545.75 669.03 545.75 671.53 548.25 671.4"
         id="polyline21"
         transform="matrix(4.1666667,0,0,4.1666667,-1.23e-5,-1.89e-5)"
         style="fill:none;stroke:#26aae1;stroke-miterlimit:10" /><line
         class="cls-24"
         x1="2305"
         y1="2796.4585"
         x2="2955"
         y2="2763.2917"
         id="line22"
         style="fill:none;stroke:#26aae1;stroke-width:4.16667;stroke-miterlimit:10;stroke-dasharray:4.96, 4.96" /><polyline
         class="cls-12"
         points="711.68 663.07 714.18 662.94 714.18 660.44"
         id="polyline22"
         transform="matrix(4.1666667,0,0,4.1666667,-1.23e-5,-1.89e-5)"
         style="fill:none;stroke:#26aae1;stroke-miterlimit:10" /><line
         class="cls-31"
         x1="2975.75"
         y1="2730.8335"
         x2="2975.75"
         y2="1272.75"
         id="line23"
         style="fill:none;stroke:#26aae1;stroke-width:4.16667;stroke-miterlimit:10;stroke-dasharray:5.04, 5.04" /><polyline
         class="cls-12"
         points="714.18 302.94 714.18 300.44 711.68 300.32"
         id="polyline23"
         transform="matrix(4.1666667,0,0,4.1666667,-1.23e-5,-1.89e-5)"
         style="fill:none;stroke:#26aae1;stroke-miterlimit:10" /><line
         class="cls-14"
         x1="2944.625"
         y1="1250.3333"
         x2="2291.875"
         y2="1218.5"
         id="line24"
         style="fill:none;stroke:#26aae1;stroke-width:4.16667;stroke-miterlimit:10;stroke-dasharray:4.98, 4.98" /><polyline
         class="cls-12"
         points="251.23 272.07 251.23 274.57 253.73 274.57"
         id="polyline24"
         transform="matrix(4.1666667,0,0,4.1666667,-1.23e-5,-1.89e-5)"
         style="fill:none;stroke:#26aae1;stroke-miterlimit:10" /><line
         class="cls-28"
         x1="1077.7917"
         y1="1144.0417"
         x2="2014.4166"
         y2="1144.0417"
         id="line25"
         style="fill:none;stroke:#26aae1;stroke-width:4.16667;stroke-miterlimit:10;stroke-dasharray:4.94, 4.94" /><polyline
         class="cls-12"
         points="485.93 274.57 488.43 274.57 488.43 272.07"
         id="polyline25"
         transform="matrix(4.1666667,0,0,4.1666667,-1.23e-5,-1.89e-5)"
         style="fill:none;stroke:#26aae1;stroke-miterlimit:10" /><line
         class="cls-20"
         x1="2035.125"
         y1="1110.4584"
         x2="2035.125"
         y2="1075.75"
         id="line26"
         style="fill:none;stroke:#26aae1;stroke-width:4.16667;stroke-miterlimit:10;stroke-dasharray:5.56, 5.56" /><polyline
         class="cls-12"
         points="488.43 255.4 488.43 252.9 485.93 252.9"
         id="polyline26"
         transform="matrix(4.1666667,0,0,4.1666667,-1.23e-5,-1.89e-5)"
         style="fill:none;stroke:#26aae1;stroke-miterlimit:10" /><line
         class="cls-27"
         x1="2004.125"
         y1="1053.75"
         x2="1067.5"
         y2="1053.75"
         id="line27"
         style="fill:none;stroke:#26aae1;stroke-width:4.16667;stroke-miterlimit:10;stroke-dasharray:4.94, 4.94" /><polyline
         class="cls-12"
         points="253.73 252.9 251.23 252.9 251.23 255.4"
         id="polyline27"
         transform="matrix(4.1666667,0,0,4.1666667,-1.23e-5,-1.89e-5)"
         style="fill:none;stroke:#26aae1;stroke-miterlimit:10" /><line
         class="cls-19"
         x1="1046.7916"
         y1="1087.3333"
         x2="1046.7916"
         y2="1122.0417"
         id="line28"
         style="fill:none;stroke:#26aae1;stroke-width:4.16667;stroke-miterlimit:10;stroke-dasharray:5.56, 5.56" /><polyline
         class="cls-12"
         points="251.42 232.91 251.42 235.41 253.92 235.41"
         id="polyline28"
         transform="matrix(4.1666667,0,0,4.1666667,-1.23e-5,-1.89e-5)"
         style="fill:none;stroke:#26aae1;stroke-miterlimit:10" /><line
         class="cls-29"
         x1="1078.5833"
         y1="980.875"
         x2="2014.5834"
         y2="980.875"
         id="line29"
         style="fill:none;stroke:#26aae1;stroke-width:4.16667;stroke-miterlimit:10;stroke-dasharray:4.94, 4.94" /><polyline
         class="cls-12"
         points="485.97 235.41 488.47 235.41 488.47 232.91"
         id="polyline29"
         transform="matrix(4.1666667,0,0,4.1666667,-1.23e-5,-1.89e-5)"
         style="fill:none;stroke:#26aae1;stroke-miterlimit:10" /><path
         class="cls-4"
         d="m 2035.2917,949.58332 -0.125,-603.04167 c 0,-60.625 -50.2917,-109.75 -112.2917,-109.75 h -766.5 c -60.5833,0 -109.7083,48.04167 -109.625,107.25 l 0.7917,615.95834"
         id="path29"
         style="fill:none;stroke:#26aae1;stroke-width:4.16667;stroke-miterlimit:10;stroke-dasharray:5.02, 5.02" /><polyline
         class="cls-12"
         points="251.21 708.56 251.21 711.06 253.71 711.06"
         id="polyline30"
         transform="matrix(4.1666667,0,0,4.1666667,-1.23e-5,-1.89e-5)"
         style="fill:none;stroke:#26aae1;stroke-miterlimit:10" /><line
         class="cls-28"
         x1="1077.7083"
         y1="2962.75"
         x2="2014.3334"
         y2="2962.75"
         id="line30"
         style="fill:none;stroke:#26aae1;stroke-width:4.16667;stroke-miterlimit:10;stroke-dasharray:4.94, 4.94" /><polyline
         class="cls-12"
         points="485.91 711.06 488.41 711.06 488.41 708.56"
         id="polyline31"
         transform="matrix(4.1666667,0,0,4.1666667,-1.23e-5,-1.89e-5)"
         style="fill:none;stroke:#26aae1;stroke-miterlimit:10" /><line
         class="cls-17"
         x1="2035.0416"
         y1="2927.7085"
         x2="2035.0416"
         y2="2890.7502"
         id="line31"
         style="fill:none;stroke:#26aae1;stroke-width:4.16667;stroke-miterlimit:10;stroke-dasharray:5.91, 5.91" /><polyline
         class="cls-12"
         points="488.41 690.83 488.41 688.33 485.91 688.33"
         id="polyline32"
         transform="matrix(4.1666667,0,0,4.1666667,-1.23e-5,-1.89e-5)"
         style="fill:none;stroke:#26aae1;stroke-miterlimit:10" /><line
         class="cls-27"
         x1="2004.0416"
         y1="2868.0417"
         x2="1067.4166"
         y2="2868.0417"
         id="line32"
         style="fill:none;stroke:#26aae1;stroke-width:4.16667;stroke-miterlimit:10;stroke-dasharray:4.94, 4.94" /><polyline
         class="cls-12"
         points="253.71 688.33 251.21 688.33 251.21 690.83"
         id="polyline33"
         transform="matrix(4.1666667,0,0,4.1666667,-1.23e-5,-1.89e-5)"
         style="fill:none;stroke:#26aae1;stroke-miterlimit:10" /><line
         class="cls-16"
         x1="1046.7084"
         y1="2903.0833"
         x2="1046.7084"
         y2="2940.0415"
         id="line33"
         style="fill:none;stroke:#26aae1;stroke-width:4.16667;stroke-miterlimit:10;stroke-dasharray:5.91, 5.91" /><path
         class="cls-9"
         d="m 1373.5833,3851.4167 c 19.25,23.5416 68.2084,-5.9584 167.4584,-5.9584 112.0416,0 169.1666,33.4584 191.5,4.9584 23.7083,-30.2917 -10.9584,-84.5 -181.7084,-84.5 -170.75,0 -205.75,50.625 -177.25,85.4583 z"
         id="path33"
         style="fill:none;stroke:#26aae1;stroke-width:4.16667;stroke-miterlimit:10;stroke-dasharray:5, 5" /><polyline
         class="cls-12"
         points="488.41 732.17 488.41 729.67 485.91 729.67"
         id="polyline34"
         transform="matrix(4.1666667,0,0,4.1666667,-1.23e-5,-1.89e-5)"
         style="fill:none;stroke:#26aae1;stroke-miterlimit:10" /><polyline
         class="cls-26"
         points="480.97 729.67 477.6 729.67 262.09 729.67 256.18 729.67"
         id="polyline35"
         transform="matrix(4.1666667,0,0,4.1666667,-1.23e-5,-1.89e-5)"
         style="fill:none;stroke:#26aae1;stroke-miterlimit:10;stroke-dasharray:4.94, 4.94" /><polyline
         class="cls-12"
         points="253.71 729.67 251.21 729.67 251.21 732.17"
         id="polyline36"
         transform="matrix(4.1666667,0,0,4.1666667,-1.23e-5,-1.89e-5)"
         style="fill:none;stroke:#26aae1;stroke-miterlimit:10" /><line
         class="cls-11"
         x1="1046.7084"
         y1="3075.2083"
         x2="1046.7084"
         y2="3161"
         id="line36"
         style="fill:none;stroke:#26aae1;stroke-width:4.16667;stroke-miterlimit:10;stroke-dasharray:5.88, 5.88" /><polyline
         class="cls-12"
         points="251.21 761.58 251.21 764.08 251.23 764.08 251.23 766.58"
         id="polyline37"
         transform="matrix(4.1666667,0,0,4.1666667,-1.23e-5,-1.89e-5)"
         style="fill:none;stroke:#26aae1;stroke-miterlimit:10" /><path
         class="cls-7"
         d="M 1046.7917,3214.875 V 4570 c 0,25 20.25,45.25 45.25,45.25 H 1990 c 25,0 45.25,-20.25 45.25,-45.25 V 3085.5417 c 0,-1.5834 -0.083,-3.1667 -0.25,-4.7084 v -19.75"
         id="path37"
         style="fill:none;stroke:#26aae1;stroke-width:4.16667;stroke-miterlimit:10;stroke-dasharray:5, 5" /><path
         id="Curved_slice"
         class="cls-18"
         d="m 1399.5,3825.2917 c 0,0 27.25,-22.4584 150,-22.4584 122.75,0 150,22.4584 150,22.4584"
         style="fill:none;stroke:#ff0000;stroke-width:4.16667;stroke-miterlimit:10" /></g></svg>
