<?xml version="1.0" encoding="UTF-8" standalone="no"?>
<svg
   version="1.1"
   id="template"
   x="0px"
   y="0px"
   width="3450"
   height="5100"
   viewBox="0 0 3450 5100"
   enable-background="new 0 0 270 414"
   xml:space="preserve"
   sodipodi:docname="JumboHookBox90.svg"
   inkscape:version="1.3.2 (091e20e, 2023-11-25, custom)"
   xmlns:inkscape="http://www.inkscape.org/namespaces/inkscape"
   xmlns:sodipodi="http://sodipodi.sourceforge.net/DTD/sodipodi-0.dtd"
   xmlns="http://www.w3.org/2000/svg"
   xmlns:svg="http://www.w3.org/2000/svg"> <defs
   id="defs728" /> <sodipodi:namedview
   id="namedview726"
   pagecolor="#ffffff"
   bordercolor="#999999"
   borderopacity="1"
   showgrid="false"
   inkscape:showpageshadow="0"
   inkscape:pageopacity="0"
   inkscape:pagecheckerboard="0"
   inkscape:deskcolor="#d1d1d1"
   inkscape:zoom="0.17647059"
   inkscape:cx="73.666666"
   inkscape:cy="2830.5"
   inkscape:window-width="2560"
   inkscape:window-height="1351"
   inkscape:window-x="-9"
   inkscape:window-y="-9"
   inkscape:window-maximized="1"
   inkscape:current-layer="template" /><path
   class="cls-40"
   d="M 3449.9996,-4.75e-5 V 5100 H -4.274e-4 V -4.75e-5 Z"
   id="path1"
   sodipodi:nodetypes="ccccc"
   style="opacity:0.5;fill:#0f0d0e;fill-opacity:1;stroke-width:4.16667" /><path
   class="cls-19"
   d="m 1313.6246,165.12495 c -66.375,0 -120.2084,53.83334 -120.2084,120.20834 V 1320.5416 c 0,22.9167 0,41.6667 -0.083,41.6667 H 853.91625 c -22.91667,0 -60.41667,0.9167 -83.29167,2.0833 l -707.791674,35.375 c -0.333333,0 -0.583333,0.2917 -0.583333,0.625 v 1582.7917 c 0,0 0.08333,0.2083 0.208333,0.2083 13.500001,0.6667 708.208344,35.4167 708.208344,35.4167 22.875,1.125 60.375,2.0833 83.29166,2.0833 h 339.12499 c 0,0 0.2083,0.083 0.2083,0.2084 v 1955.5833 c 0,41.5417 33.6667,75.2084 75.2084,75.2084 h 913.0833 c 41.5417,0 75.2084,-33.6667 75.2084,-75.2084 V 3021 c 0,0 0.083,-0.2084 0.2083,-0.2084 9.7917,0 343.6667,0 343.6667,0 22.9166,0 60.4166,-0.9583 83.2916,-2.0833 l 703.6667,-35.375 c 0,0 0.2083,-0.083 0.2083,-0.2083 V 1401.5416 c 0,0 -0.125,-0.2916 -0.25,-0.2916 l -706.5833,-34 c -22.875,-1.0834 -60.375,-2.1667 -83.2917,-2.3334 l -299.1666,-2.375 c -22.9167,-0.1666 -41.875,-0.3333 -42.0834,-0.3333 -0.2083,0 -0.4166,-18.75 -0.4166,-41.6667 v -294.625 c 0,-22.9166 0,-60.41664 0.042,-83.33331 l 0.75,-612 c 0,-22.91667 -0.4583,-50.79167 -1.0416,-61.875 L 2254,259.74995 c -13.375,-67.29166 -70.25,-91.625 -112.5,-94.45833 -29.6667,-2 -237.125,-0.83333 -237.125,-0.83333 -22.9167,0.125 -44.4583,0 -47.9167,-0.25 l -2.25,-0.83334 c -16.5416,-6.125 -3.5,-31.125 14.2084,-22.375 24.9583,12.29167 59.1666,-92.58333 -113.25,-92.70833 -143.625,-0.08333 -143.2917,90.20833 -162.9167,112.08333 l -2.7917,3.125 c -4,0.875 -7.2916,1.58334 -7.2916,1.625 0,0.0417 -18.75,0 -41.6667,0 h -226.7084 z"
   id="clipping"
   style="fill:#767676;fill-opacity:1;stroke:none;stroke-width:4.16667;stroke-miterlimit:10" /><rect
   class="cls-2"
   x="-2256.75"
   y="1362.1669"
   width="1063.5"
   height="1658.5834"
   id="actualSize"
   style="fill:#c7c7c7;stroke:none;stroke-width:4.16667;stroke-miterlimit:10;fill-opacity:1"
   transform="scale(-1,1)" /><polyline
   class="cls-12"
   points="530.12 335.92 532.62 335.92 532.62 338.42"
   id="polyline163"
   style="fill:none;stroke:#26aae1;stroke-miterlimit:10"
   transform="matrix(-4.1666667,0,0,4.1666667,3449.9996,-4.75e-5)" /><line
   class="cls-5"
   x1="1230.7491"
   y1="1430.958"
   x2="1230.7491"
   y2="2962.4165"
   id="line163"
   style="fill:none;stroke:#26aae1;stroke-width:4.16667;stroke-miterlimit:10;stroke-dasharray:20.8333, 20.8333" /><polyline
   class="cls-12"
   points="532.62 713.48 532.62 715.98 530.12 715.98"
   id="polyline164"
   style="fill:none;stroke:#26aae1;stroke-miterlimit:10"
   transform="matrix(-4.1666667,0,0,4.1666667,3449.9996,-4.75e-5)" /><line
   class="cls-20"
   x1="1261.7499"
   y1="2983.25"
   x2="2198.5408"
   y2="2983.25"
   id="line164"
   style="fill:none;stroke:#26aae1;stroke-width:4.16667;stroke-miterlimit:10;stroke-dasharray:20.5833, 20.5833" /><polyline
   class="cls-12"
   points="297.88 715.98 295.38 715.98 295.38 713.48"
   id="polyline165"
   style="fill:none;stroke:#26aae1;stroke-miterlimit:10"
   transform="matrix(-4.1666667,0,0,4.1666667,3449.9996,-4.75e-5)" /><line
   class="cls-6"
   x1="2219.25"
   y1="2952"
   x2="2219.25"
   y2="1420.5001"
   id="line165"
   style="fill:none;stroke:#26aae1;stroke-width:4.16667;stroke-miterlimit:10;stroke-dasharray:20.8333, 20.8333" /><polyline
   class="cls-12"
   points="295.38 338.42 295.38 335.92 297.88 335.92"
   id="polyline166"
   style="fill:none;stroke:#26aae1;stroke-miterlimit:10"
   transform="matrix(-4.1666667,0,0,4.1666667,3449.9996,-4.75e-5)" /><line
   class="cls-20"
   x1="2188.2493"
   y1="1399.6669"
   x2="1251.4584"
   y2="1399.6669"
   id="line166"
   style="fill:none;stroke:#26aae1;stroke-width:4.16667;stroke-miterlimit:10;stroke-dasharray:20.5833, 20.5833" /><polyline
   class="cls-12"
   points="206.01 336.59 203.51 336.62 203.5 339.12"
   id="polyline167"
   style="fill:none;stroke:#26aae1;stroke-miterlimit:10"
   transform="matrix(-4.1666667,0,0,4.1666667,3449.9996,-4.75e-5)" /><line
   class="cls-4"
   x1="2602.083"
   y1="1433.7499"
   x2="2603.2498"
   y2="2961.0005"
   id="line167"
   style="fill:none;stroke:#26aae1;stroke-width:4.16667;stroke-miterlimit:10;stroke-dasharray:20.7917, 20.7917" /><polyline
   class="cls-12"
   points="203.22 713.14 203.22 715.64 205.72 715.65"
   id="polyline168"
   style="fill:none;stroke:#26aae1;stroke-miterlimit:10"
   transform="matrix(-4.1666667,0,0,4.1666667,3449.9996,-4.75e-5)" /><line
   class="cls-26"
   x1="2570.666"
   y1="2981.958"
   x2="2315.7498"
   y2="2983.1665"
   id="line168"
   style="fill:none;stroke:#26aae1;stroke-width:4.16667;stroke-miterlimit:10;stroke-dasharray:22.1667, 22.1667" /><polyline
   class="cls-12"
   points="274.88 715.97 277.38 715.98 277.38 713.48"
   id="polyline169"
   style="fill:none;stroke:#26aae1;stroke-miterlimit:10"
   transform="matrix(-4.1666667,0,0,4.1666667,3449.9996,-4.75e-5)" /><line
   class="cls-6"
   x1="2294.25"
   y1="2952"
   x2="2294.25"
   y2="1420.5001"
   id="line169"
   style="fill:none;stroke:#26aae1;stroke-width:4.16667;stroke-miterlimit:10;stroke-dasharray:20.8333, 20.8333" /><polyline
   class="cls-12"
   points="277.38 338.42 277.38 335.92 274.88 335.95"
   id="polyline170"
   style="fill:none;stroke:#26aae1;stroke-miterlimit:10"
   transform="matrix(-4.1666667,0,0,4.1666667,3449.9996,-4.75e-5)" /><line
   class="cls-14"
   x1="2326.7493"
   y1="1400"
   x2="2580.5833"
   y2="1402.3752"
   id="line170"
   style="fill:none;stroke:#26aae1;stroke-width:4.16667;stroke-miterlimit:10;stroke-dasharray:22.0833, 22.0833" /><polyline
   class="cls-12"
   points="183.08 336.78 185.58 336.65 185.57 339.15"
   id="polyline171"
   style="fill:none;stroke:#26aae1;stroke-miterlimit:10"
   transform="matrix(-4.1666667,0,0,4.1666667,3449.9996,-4.75e-5)" /><line
   class="cls-8"
   x1="2676.8328"
   y1="1433.9167"
   x2="2679.4583"
   y2="2962.4583"
   id="line171"
   style="fill:none;stroke:#26aae1;stroke-width:4.16667;stroke-miterlimit:10;stroke-dasharray:20.7917, 20.7917" /><polyline
   class="cls-12"
   points="184.93 713.48 184.93 715.98 182.43 715.85"
   id="polyline172"
   style="fill:none;stroke:#26aae1;stroke-miterlimit:10"
   transform="matrix(-4.1666667,0,0,4.1666667,3449.9996,-4.75e-5)" /><line
   class="cls-28"
   x1="2710.8333"
   y1="2981.5837"
   x2="3329.3748"
   y2="2948.583"
   id="line172"
   style="fill:none;stroke:#26aae1;stroke-width:4.16667;stroke-miterlimit:10;stroke-dasharray:21, 21" /><polyline
   class="cls-12"
   points="26.43 707.52 23.94 707.39 23.94 704.89"
   id="polyline173"
   style="fill:none;stroke:#26aae1;stroke-miterlimit:10"
   transform="matrix(-4.1666667,0,0,4.1666667,3449.9996,-4.75e-5)" /><line
   class="cls-27"
   x1="3350.2498"
   y1="2916.0828"
   x2="3350.2498"
   y2="1457.9585"
   id="line173"
   style="fill:none;stroke:#26aae1;stroke-width:4.16667;stroke-miterlimit:10;stroke-dasharray:21, 21" /><polyline
   class="cls-12"
   points="23.94 347.4 23.94 344.9 26.43 344.77"
   id="polyline174"
   style="fill:none;stroke:#26aae1;stroke-miterlimit:10"
   transform="matrix(-4.1666667,0,0,4.1666667,3449.9996,-4.75e-5)" /><line
   class="cls-25"
   x1="3318.7913"
   y1="1435.4584"
   x2="2697.7078"
   y2="1403.7917"
   id="line174"
   style="fill:none;stroke:#26aae1;stroke-width:4.16667;stroke-miterlimit:10;stroke-dasharray:21.0833, 21.0833" /><polyline
   class="cls-12"
   points="620.3 336.95 622.8 336.98 622.8 339.48"
   id="polyline175"
   style="fill:none;stroke:#26aae1;stroke-miterlimit:10"
   transform="matrix(-4.1666667,0,0,4.1666667,3449.9996,-4.75e-5)" /><line
   class="cls-4"
   x1="854.99939"
   y1="1435.2498"
   x2="853.83258"
   y2="2962.5"
   id="line175"
   style="fill:none;stroke:#26aae1;stroke-width:4.16667;stroke-miterlimit:10;stroke-dasharray:20.7917, 20.7917" /><polyline
   class="cls-12"
   points="623.09 713.5 623.09 716 620.59 716.01"
   id="polyline176"
   style="fill:none;stroke:#26aae1;stroke-miterlimit:10"
   transform="matrix(-4.1666667,0,0,4.1666667,3449.9996,-4.75e-5)" /><line
   class="cls-26"
   x1="886.37451"
   y1="2983.4585"
   x2="1141.2909"
   y2="2984.667"
   id="line176"
   style="fill:none;stroke:#26aae1;stroke-width:4.16667;stroke-miterlimit:10;stroke-dasharray:22.1667, 22.1667" /><polyline
   class="cls-12"
   points="551.43 716.33 548.93 716.34 548.93 713.84"
   id="polyline177"
   style="fill:none;stroke:#26aae1;stroke-miterlimit:10"
   transform="matrix(-4.1666667,0,0,4.1666667,3449.9996,-4.75e-5)" /><line
   class="cls-6"
   x1="1162.7915"
   y1="2953.5002"
   x2="1162.7915"
   y2="1422.0417"
   id="line177"
   style="fill:none;stroke:#26aae1;stroke-width:4.16667;stroke-miterlimit:10;stroke-dasharray:20.8333, 20.8333" /><polyline
   class="cls-12"
   points="548.93 338.79 548.93 336.29 551.43 336.31"
   id="polyline178"
   style="fill:none;stroke:#26aae1;stroke-miterlimit:10"
   transform="matrix(-4.1666667,0,0,4.1666667,3449.9996,-4.75e-5)" /><line
   class="cls-14"
   x1="1130.2914"
   y1="1401.4999"
   x2="876.45831"
   y2="1403.8746"
   id="line178"
   style="fill:none;stroke:#26aae1;stroke-width:4.16667;stroke-miterlimit:10;stroke-dasharray:22.0833, 22.0833" /><polyline
   class="cls-12"
   points="643.22 337.14 640.73 337.01 640.73 339.51"
   id="polyline179"
   style="fill:none;stroke:#26aae1;stroke-miterlimit:10"
   transform="matrix(-4.1666667,0,0,4.1666667,3449.9996,-4.75e-5)" /><line
   class="cls-8"
   x1="780.24963"
   y1="1435.4166"
   x2="777.62408"
   y2="2963.9587"
   id="line179"
   style="fill:none;stroke:#26aae1;stroke-width:4.16667;stroke-miterlimit:10;stroke-dasharray:20.7917, 20.7917" /><polyline
   class="cls-12"
   points="641.37 713.84 641.38 716.34 643.87 716.21"
   id="polyline180"
   style="fill:none;stroke:#26aae1;stroke-miterlimit:10"
   transform="matrix(-4.1666667,0,0,4.1666667,3449.9996,-4.75e-5)" /><line
   class="cls-28"
   x1="746.20825"
   y1="2983.083"
   x2="127.7075"
   y2="2950.0835"
   id="line180"
   style="fill:none;stroke:#26aae1;stroke-width:4.16667;stroke-miterlimit:10;stroke-dasharray:21, 21" /><polyline
   class="cls-12"
   points="799.87 707.89 802.37 707.75 802.37 705.25"
   id="polyline181"
   style="fill:none;stroke:#26aae1;stroke-miterlimit:10"
   transform="matrix(-4.1666667,0,0,4.1666667,3449.9996,-4.75e-5)" /><line
   class="cls-27"
   x1="106.79075"
   y1="2917.5833"
   x2="106.79075"
   y2="1459.5001"
   id="line181"
   style="fill:none;stroke:#26aae1;stroke-width:4.16667;stroke-miterlimit:10;stroke-dasharray:21, 21" /><polyline
   class="cls-12"
   points="802.37 347.76 802.37 345.26 799.87 345.13"
   id="polyline182"
   style="fill:none;stroke:#26aae1;stroke-miterlimit:10"
   transform="matrix(-4.1666667,0,0,4.1666667,3449.9996,-4.75e-5)" /><line
   class="cls-25"
   x1="138.24928"
   y1="1436.9583"
   x2="759.37457"
   y2="1405.2917"
   id="line182"
   style="fill:none;stroke:#26aae1;stroke-width:4.16667;stroke-miterlimit:10;stroke-dasharray:21.0833, 21.0833" /><polyline
   class="cls-12"
   points="295.38 315.42 295.38 317.92 297.88 317.92"
   id="polyline183"
   style="fill:none;stroke:#26aae1;stroke-miterlimit:10"
   transform="matrix(-4.1666667,0,0,4.1666667,3449.9996,-4.75e-5)" /><line
   class="cls-23"
   x1="2188.2493"
   y1="1324.6669"
   x2="1251.6251"
   y2="1324.6669"
   id="line183"
   style="fill:none;stroke:#26aae1;stroke-width:4.16667;stroke-miterlimit:10;stroke-dasharray:20.5833, 20.5833" /><polyline
   class="cls-12"
   points="530.08 317.92 532.58 317.92 532.58 315.42"
   id="polyline184"
   style="fill:none;stroke:#26aae1;stroke-miterlimit:10"
   transform="matrix(-4.1666667,0,0,4.1666667,3449.9996,-4.75e-5)" /><line
   class="cls-16"
   x1="1230.9159"
   y1="1292.5831"
   x2="1230.9159"
   y2="1043.0002"
   id="line184"
   style="fill:none;stroke:#26aae1;stroke-width:4.16667;stroke-miterlimit:10;stroke-dasharray:21.7083, 21.7083" /><polyline
   class="cls-12"
   points="532.58 247.71 532.58 245.21 530.08 245.21"
   id="polyline185"
   style="fill:none;stroke:#26aae1;stroke-miterlimit:10"
   transform="matrix(-4.1666667,0,0,4.1666667,3449.9996,-4.75e-5)" /><line
   class="cls-22"
   x1="1261.9156"
   y1="1021.7081"
   x2="2198.5408"
   y2="1021.7081"
   id="line185"
   style="fill:none;stroke:#26aae1;stroke-width:4.16667;stroke-miterlimit:10;stroke-dasharray:20.5833, 20.5833" /><polyline
   class="cls-12"
   points="297.88 245.21 295.38 245.21 295.38 247.71"
   id="polyline186"
   style="fill:none;stroke:#26aae1;stroke-miterlimit:10"
   transform="matrix(-4.1666667,0,0,4.1666667,3449.9996,-4.75e-5)" /><line
   class="cls-15"
   x1="2219.25"
   y1="1053.8335"
   x2="2219.25"
   y2="1303.4169"
   id="line186"
   style="fill:none;stroke:#26aae1;stroke-width:4.16667;stroke-miterlimit:10;stroke-dasharray:21.7083, 21.7083" /><polyline
   class="cls-12"
   points="295.57 224.71 295.57 227.21 298.07 227.21"
   id="polyline187"
   style="fill:none;stroke:#26aae1;stroke-miterlimit:10"
   transform="matrix(-4.1666667,0,0,4.1666667,3449.9996,-4.75e-5)" /><line
   class="cls-24"
   x1="2187.4578"
   y1="946.70813"
   x2="1251.4584"
   y2="946.70813"
   id="line187"
   style="fill:none;stroke:#26aae1;stroke-width:4.16667;stroke-miterlimit:10;stroke-dasharray:20.5833, 20.5833" /><polyline
   class="cls-12"
   points="530.12 227.21 532.62 227.21 532.62 224.71"
   id="polyline188"
   style="fill:none;stroke:#26aae1;stroke-miterlimit:10"
   transform="matrix(-4.1666667,0,0,4.1666667,3449.9996,-4.75e-5)" /><path
   class="cls-3"
   d="m 1230.7496,915.37496 0.125,-603.04167 c 0,-60.625 50.2916,-109.75 112.2917,-109.75 h 766.5 c 60.5833,0 109.7083,48.04166 109.625,107.25 l -0.7917,615.95834"
   id="path188"
   style="fill:none;stroke:#26aae1;stroke-width:4.16667;stroke-miterlimit:10;stroke-dasharray:20.9167, 20.9167" /><polyline
   class="cls-12"
   points="295.36 804.56 295.36 807.06 297.86 807.06"
   id="polyline189"
   style="fill:none;stroke:#26aae1;stroke-miterlimit:10"
   transform="matrix(-4.1666667,0,0,4.1666667,3449.9996,-4.75e-5)" /><line
   class="cls-23"
   x1="2188.3328"
   y1="3362.7502"
   x2="1251.7075"
   y2="3362.7502"
   id="line189"
   style="fill:none;stroke:#26aae1;stroke-width:4.16667;stroke-miterlimit:10;stroke-dasharray:20.5833, 20.5833" /><polyline
   class="cls-12"
   points="530.06 807.06 532.56 807.06 532.56 804.56"
   id="polyline190"
   style="fill:none;stroke:#26aae1;stroke-miterlimit:10"
   transform="matrix(-4.1666667,0,0,4.1666667,3449.9996,-4.75e-5)" /><line
   class="cls-16"
   x1="1230.9994"
   y1="3330.6255"
   x2="1230.9994"
   y2="3081.0415"
   id="line190"
   style="fill:none;stroke:#26aae1;stroke-width:4.16667;stroke-miterlimit:10;stroke-dasharray:21.7083, 21.7083" /><polyline
   class="cls-12"
   points="532.56 736.85 532.56 734.35 530.06 734.35"
   id="polyline191"
   style="fill:none;stroke:#26aae1;stroke-miterlimit:10"
   transform="matrix(-4.1666667,0,0,4.1666667,3449.9996,-4.75e-5)" /><line
   class="cls-22"
   x1="1261.9991"
   y1="3059.792"
   x2="2198.6243"
   y2="3059.792"
   id="line191"
   style="fill:none;stroke:#26aae1;stroke-width:4.16667;stroke-miterlimit:10;stroke-dasharray:20.5833, 20.5833" /><polyline
   class="cls-12"
   points="297.86 734.35 295.36 734.35 295.36 736.85"
   id="polyline192"
   style="fill:none;stroke:#26aae1;stroke-miterlimit:10"
   transform="matrix(-4.1666667,0,0,4.1666667,3449.9996,-4.75e-5)" /><line
   class="cls-15"
   x1="2219.3335"
   y1="3091.917"
   x2="2219.3335"
   y2="3341.458"
   id="line192"
   style="fill:none;stroke:#26aae1;stroke-width:4.16667;stroke-miterlimit:10;stroke-dasharray:21.7083, 21.7083" /><path
   class="cls-9"
   d="m 1892.4579,4250.4167 c -19.25,23.5416 -68.2083,-5.9584 -167.4583,-5.9584 -112.0417,0 -169.1667,33.4584 -191.5,4.9584 -23.7083,-30.2917 10.9583,-84.5 181.7083,-84.5 170.75,0 205.75,50.625 177.25,85.4583 z"
   id="path192"
   style="fill:none;stroke:#26aae1;stroke-width:4.16667;stroke-miterlimit:10;stroke-dasharray:20.8333, 20.8333" /><polyline
   class="cls-12"
   points="532.56 827.93 532.56 825.43 530.06 825.43"
   id="polyline193"
   style="fill:none;stroke:#26aae1;stroke-miterlimit:10"
   transform="matrix(-4.1666667,0,0,4.1666667,3449.9996,-4.75e-5)" /><polyline
   class="cls-21"
   points="525.12 825.43 521.75 825.43 306.24 825.43 300.33 825.43"
   id="polyline194"
   style="fill:none;stroke:#26aae1;stroke-miterlimit:10;stroke-dasharray:4.94, 4.94"
   transform="matrix(-4.1666667,0,0,4.1666667,3449.9996,-4.75e-5)" /><polyline
   class="cls-12"
   points="297.86 825.43 295.36 825.43 295.36 827.93"
   id="polyline195"
   style="fill:none;stroke:#26aae1;stroke-miterlimit:10"
   transform="matrix(-4.1666667,0,0,4.1666667,3449.9996,-4.75e-5)" /><line
   class="cls-11"
   x1="2219.3335"
   y1="3474.2085"
   x2="2219.3335"
   y2="3559.9995"
   id="line195"
   style="fill:none;stroke:#26aae1;stroke-width:4.16667;stroke-miterlimit:10;stroke-dasharray:24.5, 24.5" /><polyline
   class="cls-12"
   points="295.36 857.34 295.36 859.84 295.38 859.84 295.38 862.34"
   id="polyline196"
   style="fill:none;stroke:#26aae1;stroke-miterlimit:10"
   transform="matrix(-4.1666667,0,0,4.1666667,3449.9996,-4.75e-5)" /><path
   class="cls-7"
   d="M 2219.2496,3613.875 V 4969 c 0,25 -20.25,45.25 -45.25,45.25 h -897.9584 c -25,0 -45.25,-20.25 -45.25,-45.25 V 3484.5416 c 0,-1.5833 0.083,-3.1666 0.25,-4.7083 v -19.75"
   id="path196"
   style="fill:none;stroke:#26aae1;stroke-width:4.16667;stroke-miterlimit:10;stroke-dasharray:20.8333, 20.8333" /><line
   class="cls-18"
   x1="2256.75"
   y1="984.20813"
   x2="1193.2491"
   y2="984.20813"
   id="line196"
   style="opacity:0.5;fill:none;stroke:#0baa4b;stroke-width:4.16667;stroke-miterlimit:10" /><line
   class="cls-2"
   x1="2256.75"
   y1="3401.7498"
   x2="1193.2491"
   y2="3401.7498"
   id="line197"
   style="fill:none;stroke:#0baa4b;stroke-width:4.16667;stroke-miterlimit:10" /><line
   class="cls-2"
   x1="2637.7498"
   y1="1363.7085"
   x2="2640.7915"
   y2="3019.2505"
   id="line198"
   style="fill:none;stroke:#0baa4b;stroke-width:4.16667;stroke-miterlimit:10" /><line
   class="cls-2"
   x1="812.24933"
   y1="1362.208"
   x2="812.24933"
   y2="3020.75"
   id="line199"
   style="fill:none;stroke:#0baa4b;stroke-width:4.16667;stroke-miterlimit:10" /><path
   id="Curved_slice"
   class="cls-19"
   d="m 1868.0413,4226.7917 c 0,0 -27.25,-22.4584 -150,-22.4584 -122.75,0 -150,22.4584 -150,22.4584"
   style="fill:none;stroke:#ff0000;stroke-width:4.16667;stroke-miterlimit:10" /></svg>
