<?xml version="1.0" encoding="UTF-8" standalone="no"?>
<svg
     version="1.1"
     id="Layer_1"
     x="0px"
     y="0px"
     width="3450"
     height="2700"
     viewBox="0 0 3450 2700"
     enable-background="new 0 0 828 648"
     xml:space="preserve"
     sodipodi:docname="JumboTuckBox90.svg"
     inkscape:version="1.4 (e7c3feb1, 2024-10-09)"
     xmlns:inkscape="http://www.inkscape.org/namespaces/inkscape"
     xmlns:sodipodi="http://sodipodi.sourceforge.net/DTD/sodipodi-0.dtd"
     xmlns="http://www.w3.org/2000/svg"
     xmlns:svg="http://www.w3.org/2000/svg"><defs
         id="defs222">







































	

	

	

	

	

	

	

		
	
		
	
		
	
		
	
		
	
		
	
		
	
			
			
				
			
			
				
			
			
				
			
			
				
		
			
			
			
			
			
			
		
			
			
				
			
			
				
			
			
				
			
			
				
		
			
			
				
			
			
				
			
			
				
			
			
				
		
			
			
			
			
			
			
				
			
			
			
			
				
			
			
		
			
			
			
			
				
			
			
				
			
			
		
			
			
				
			
			
				
			
			
				
			
			
				
		</defs><sodipodi:namedview
         id="namedview222"
         pagecolor="#505050"
         bordercolor="#eeeeee"
         borderopacity="1"
         inkscape:showpageshadow="0"
         inkscape:pageopacity="0"
         inkscape:pagecheckerboard="0"
         inkscape:deskcolor="#d1d1d1"
         inkscape:zoom="0.31072464"
         inkscape:cx="1821.5485"
         inkscape:cy="875.37313"
         inkscape:window-width="1872"
         inkscape:window-height="1027"
         inkscape:window-x="62"
         inkscape:window-y="25"
         inkscape:window-maximized="1"
         inkscape:current-layer="Layer_1" /><polygon
         fill="#929497"
         points="828,648 828,0 0,0 0,648 "
         id="polygon1"
         transform="matrix(4.1666667,0,0,4.1666667,-1.38e-5,-1.08e-5)"
         style="fill:#0b0b0c;fill-opacity:1" /><path
         fill="#ffffff"
         stroke="#ed2224"
         stroke-miterlimit="10"
         d="m 74.162487,2256.575 v 225 H 479.16249 v -225 405 H 1537.4958 v -405 225 h 405 v -225 375.8333 H 3000.8292 V 2256.575 h 375 V 598.24166 h -375 -454.1667 c 0,91.66667 -150,91.66667 -150,0 h -454.1667 c 0,-124.2625 -100.7375,-225 -225,-225 h -180 v 345 -525 h -120 120 c 0,-82.84167 -67.1583,-150.000004 -150,-150.000004 H 629.16249 c -82.84167,0 -150,67.158334 -150,150.000004 h 120 -120 v 525 -345 h -180 c -124.2625,0 -225.000003,100.7375 -225.000003,225"
         id="clipping"
         style="stroke-width:4.16667;fill:#757575;stroke:none;fill-opacity:1" /><line
         fill="none"
         stroke="#ed2224"
         stroke-width="1.66667"
         stroke-miterlimit="10"
         x1="74.162483"
         y1="2256.575"
         x2="74.162483"
         y2="598.2417"
         id="line1" /><path
         fill="#ffffff"
         stroke="#ed2224"
         stroke-miterlimit="10"
         d="m 74.162487,2256.575 v 225 H 479.16249 v -225 405 H 1537.4958 v -405 225 h 405 v -225 375.8333 H 3000.8292 V 2256.575 h 375 V 598.24166 h -375 -454.1667 c 0,91.66667 -150,91.66667 -150,0 h -454.1667 c 0,-124.2625 -100.7375,-225 -225,-225 h -180 v 345 -525 h -120 120 c 0,-82.84167 -67.1583,-150.000004 -150,-150.000004 H 629.16249 c -82.84167,0 -150,67.158334 -150,150.000004 h 120 -120 v 525 -345 h -180 c -124.2625,0 -225.000003,100.7375 -225.000003,225"
         id="path1"
         style="stroke-width:4.16667;fill:none" /><rect
         x="479.16251"
         y="598.2417"
         fill="none"
         stroke="#6abd45"
         stroke-width="1.66667"
         stroke-miterlimit="10"
         width="1058.3334"
         height="1658.3334"
         id="rect1" /><line
         fill="none"
         stroke="#6abd45"
         stroke-width="1.66667"
         stroke-miterlimit="10"
         x1="479.16251"
         y1="2256.575"
         x2="74.162483"
         y2="2256.575"
         id="line2" /><polyline
         fill="none"
         stroke="#6abd45"
         stroke-width="0.4"
         stroke-miterlimit="10"
         points="368.999,541.578 466.199,541.578   466.199,143.578 368.999,143.578 "
         id="polyline2"
         transform="matrix(4.1666667,0,0,4.1666667,-1.38e-5,-1.08e-5)" /><line
         fill="none"
         stroke="#6abd45"
         stroke-width="1.66667"
         stroke-miterlimit="10"
         x1="3000.8291"
         y1="2256.575"
         x2="3000.8291"
         y2="598.2417"
         id="line3" /><line
         fill="none"
         stroke="#6abd45"
         stroke-width="1.66667"
         stroke-miterlimit="10"
         x1="599.16248"
         y1="193.24165"
         x2="1417.4958"
         y2="193.24165"
         id="line4" /><line
         fill="none"
         stroke="#6abd45"
         stroke-width="1.66667"
         stroke-miterlimit="10"
         x1="479.16251"
         y1="718.2417"
         x2="1537.4958"
         y2="718.2417"
         id="line5" /><line
         fill="none"
         stroke="#6abd45"
         stroke-width="1.66667"
         stroke-miterlimit="10"
         x1="1942.4958"
         y1="2256.575"
         x2="3000.8291"
         y2="2256.575"
         id="line6" /><line
         fill="none"
         stroke="#6abd45"
         stroke-width="1.66667"
         stroke-miterlimit="10"
         x1="479.16251"
         y1="598.2417"
         x2="74.162483"
         y2="598.2417"
         id="line7" /><rect
         x="3113.175"
         y="631.11249"
         fill="#e6e6e6"
         width="224.99167"
         height="1583.3291"
         id="rect7"
         style="stroke-width:4.16667" /><line
         fill="none"
         stroke="#eb2227"
         x1="2468.7251"
         y1="1083.1792"
         x2="2468.7251"
         y2="666.66669"
         id="line8"
         style="stroke-width:4.16667" /><path
         fill="none"
         stroke="#29abe2"
         stroke-miterlimit="10"
         stroke-dasharray="20.8333"
         d="m 2630.6333,649.99999 h -14.5125 c -0.4916,3.45834 -1.5166,7.01667 -3.1791,10.60834 -0.6959,1.5125 -1.4084,3.01666 -2.15,4.50416"
         id="path180"
         style="stroke-width:4.16667" /><path
         fill="none"
         stroke="#29abe2"
         stroke-miterlimit="10"
         stroke-dasharray="20.8333"
         d="m 2595.7292,690.67083 c -33.65,48.175 -86.8417,76.7375 -142.4167,69.85 -49.8625,-6.175 -101.7375,-31.6 -127.0042,-81.19167"
         id="path181"
         style="stroke-width:4.16667" /><path
         fill="none"
         stroke="#29abe2"
         stroke-miterlimit="10"
         stroke-dasharray="20.8333"
         d="m 2320.2542,665.63333 c -0.7834,-2.06667 -1.5167,-4.16667 -2.2125,-6.29584 -1.0625,-3.27916 -1.6084,-6.3875 -1.8,-9.3375 h -14.5084"
         id="path182"
         style="stroke-width:4.16667" /><line
         fill="none"
         stroke="#29abe2"
         stroke-miterlimit="10"
         stroke-dasharray="20.8333"
         x1="2275.0667"
         y1="650"
         x2="2021.7542"
         y2="650"
         id="line182"
         style="stroke-width:4.16667" /><polyline
         fill="none"
         stroke="#29abe2"
         stroke-miterlimit="10"
         stroke-dasharray="5"
         points="482.02,156 478.538,156      478.538,159.923    "
         id="polyline182"
         transform="matrix(4.1666667,0,0,4.1666667,-1.38e-5,-1.08e-5)" /><line
         fill="none"
         stroke="#29abe2"
         stroke-miterlimit="10"
         stroke-dasharray="20.8333"
         x1="1993.9083"
         y1="698.54163"
         x2="1993.9083"
         y2="2163.3833"
         id="line183"
         style="stroke-width:4.16667" /><polyline
         fill="none"
         stroke="#29abe2"
         stroke-miterlimit="10"
         stroke-dasharray="5"
         points="478.538,523.076 478.538,527      482.02,527    "
         id="polyline183"
         transform="matrix(4.1666667,0,0,4.1666667,-1.38e-5,-1.08e-5)" /><line
         fill="none"
         stroke="#29abe2"
         stroke-miterlimit="10"
         stroke-dasharray="20.8333"
         x1="2038.2542"
         y1="2195.8333"
         x2="2918.325"
         y2="2195.8333"
         id="line184"
         style="stroke-width:4.16667" /><polyline
         fill="none"
         stroke="#29abe2"
         stroke-miterlimit="10"
         stroke-dasharray="5"
         points="703.98,527 707.462,527      707.462,523.076    "
         id="polyline184"
         transform="matrix(4.1666667,0,0,4.1666667,-1.38e-5,-1.08e-5)" /><line
         fill="none"
         stroke="#29abe2"
         stroke-miterlimit="10"
         stroke-dasharray="20.8333"
         x1="2947.7583"
         y1="2147.2915"
         x2="2947.7583"
         y2="682.44586"
         id="line185"
         style="stroke-width:4.16667" /><polyline
         fill="none"
         stroke="#29abe2"
         stroke-miterlimit="10"
         stroke-dasharray="5"
         points="707.462,159.923 707.462,156      703.98,156    "
         id="polyline185"
         transform="matrix(4.1666667,0,0,4.1666667,-1.38e-5,-1.08e-5)" /><line
         fill="none"
         stroke="#29abe2"
         stroke-miterlimit="10"
         stroke-dasharray="20.8333"
         x1="2905.7417"
         y1="650"
         x2="2644.3875"
         y2="650"
         id="line186"
         style="stroke-width:4.16667" /><polyline
         fill="none"
         stroke="#29abe2"
         stroke-miterlimit="10"
         stroke-dasharray="5"
         points="356,525.04 356,529 352.532,529         "
         id="polyline188"
         transform="matrix(4.1666667,0,0,4.1666667,-1.38e-5,-1.08e-5)" /><line
         fill="none"
         stroke="#29abe2"
         stroke-miterlimit="10"
         stroke-dasharray="20.8333"
         x1="1439.1625"
         y1="2204.1667"
         x2="562.53333"
         y2="2204.1667"
         id="line188"
         style="stroke-width:4.16667" /><polyline
         fill="none"
         stroke="#29abe2"
         stroke-miterlimit="10"
         stroke-dasharray="5"
         points="131.442,529 127.974,529      127.974,525.04    "
         id="polyline189"
         transform="matrix(4.1666667,0,0,4.1666667,-1.38e-5,-1.08e-5)" /><line
         fill="none"
         stroke="#29abe2"
         stroke-miterlimit="10"
         stroke-dasharray="20.8333"
         x1="533.22498"
         y1="2155.175"
         x2="533.22498"
         y2="676.72913"
         id="line189"
         style="stroke-width:4.16667" /><polyline
         fill="none"
         stroke="#29abe2"
         stroke-miterlimit="10"
         stroke-dasharray="5"
         points="127.974,158.516 127.974,154.557      131.442,154.557    "
         id="polyline190"
         transform="matrix(4.1666667,0,0,4.1666667,-1.38e-5,-1.08e-5)" /><line
         fill="none"
         stroke="#29abe2"
         stroke-miterlimit="10"
         stroke-dasharray="20.8333"
         x1="577.39166"
         y1="643.98755"
         x2="1454.025"
         y2="643.98755"
         id="line190"
         style="stroke-width:4.16667" /><polyline
         fill="none"
         stroke="#29abe2"
         stroke-miterlimit="10"
         stroke-dasharray="5"
         points="352.532,154.557 356,154.557      356,158.516    "
         id="polyline191"
         transform="matrix(4.1666667,0,0,4.1666667,-1.38e-5,-1.08e-5)" /><line
         fill="none"
         stroke="#29abe2"
         stroke-miterlimit="10"
         stroke-dasharray="20.8333"
         x1="1483.3334"
         y1="692.98328"
         x2="1483.3334"
         y2="2171.425"
         id="line191"
         style="stroke-width:4.16667" /><polyline
         fill="none"
         stroke="#29abe2"
         stroke-miterlimit="10"
         stroke-dasharray="6.4298"
         points="355.461,115.442 355.461,129      352.001,129    "
         id="polyline194"
         transform="matrix(4.1666667,0,0,4.1666667,-1.38e-5,-1.08e-5)" /><line
         fill="none"
         stroke="#29abe2"
         stroke-miterlimit="10"
         stroke-dasharray="26.7908"
         x1="1437.0209"
         y1="537.5"
         x2="562.46667"
         y2="537.5"
         id="line194"
         style="stroke-width:4.16667" /><polyline
         fill="none"
         stroke="#29abe2"
         stroke-miterlimit="10"
         stroke-dasharray="6.4298"
         points="131.435,129 127.974,129      127.974,115.442    "
         id="polyline195"
         transform="matrix(4.1666667,0,0,4.1666667,-1.38e-5,-1.08e-5)" /><line
         fill="none"
         stroke="#29abe2"
         stroke-miterlimit="10"
         stroke-dasharray="26.7908"
         x1="533.22498"
         y1="421.61667"
         x2="533.22498"
         y2="332.52081"
         id="line195"
         style="stroke-width:4.16667" /><polyline
         fill="none"
         stroke="#29abe2"
         stroke-miterlimit="10"
         stroke-dasharray="6.4298"
         points="127.974,72.679      127.974,59.121 131.435,59.121    "
         id="polyline196"
         transform="matrix(4.1666667,0,0,4.1666667,-1.38e-5,-1.08e-5)" /><line
         fill="none"
         stroke="#29abe2"
         stroke-miterlimit="10"
         stroke-dasharray="26.7908"
         x1="577.28748"
         y1="246.33748"
         x2="1451.8458"
         y2="246.33748"
         id="line196"
         style="stroke-width:4.16667" /><polyline
         fill="none"
         stroke="#29abe2"
         stroke-miterlimit="10"
         stroke-dasharray="6.4298"
         points="352.001,59.121      355.461,59.121 355.461,72.679    "
         id="polyline197"
         transform="matrix(4.1666667,0,0,4.1666667,-1.38e-5,-1.08e-5)" /><line
         fill="none"
         stroke="#29abe2"
         stroke-miterlimit="10"
         stroke-dasharray="26.7908"
         x1="1481.0875"
         y1="362.22083"
         x2="1481.0875"
         y2="451.30417"
         id="line197"
         style="stroke-width:4.16667" /><polyline
         fill="none"
         stroke="#29abe2"
         stroke-miterlimit="10"
         stroke-dasharray="6.3702"
         points="356.407,610.416 356.407,624      352.918,624    "
         id="polyline199"
         transform="matrix(4.1666667,0,0,4.1666667,-1.38e-5,-1.08e-5)" /><line
         fill="none"
         stroke="#29abe2"
         stroke-miterlimit="10"
         stroke-dasharray="26.5425"
         x1="1440.5958"
         y1="2600"
         x2="558.65411"
         y2="2600"
         id="line199"
         style="stroke-width:4.16667" /><polyline
         fill="none"
         stroke="#29abe2"
         stroke-miterlimit="10"
         stroke-dasharray="6.3702"
         points="130.49,624 127,624      127,610.416    "
         id="polyline200"
         transform="matrix(4.1666667,0,0,4.1666667,-1.38e-5,-1.08e-5)" /><line
         fill="none"
         stroke="#29abe2"
         stroke-miterlimit="10"
         stroke-dasharray="26.5425"
         x1="529.16669"
         y1="2483.9084"
         x2="529.16669"
         y2="2394.675"
         id="line200"
         style="stroke-width:4.16667" /><polyline
         fill="none"
         stroke="#29abe2"
         stroke-miterlimit="10"
         stroke-dasharray="6.3702"
         points="127,567.58 127,554      130.49,554    "
         id="polyline201"
         transform="matrix(4.1666667,0,0,4.1666667,-1.38e-5,-1.08e-5)" /><line
         fill="none"
         stroke="#29abe2"
         stroke-miterlimit="10"
         stroke-dasharray="26.5425"
         x1="573.60413"
         y1="2308.3333"
         x2="1455.5458"
         y2="2308.3333"
         id="line201"
         style="stroke-width:4.16667" /><polyline
         fill="none"
         stroke="#29abe2"
         stroke-miterlimit="10"
         stroke-dasharray="6.3702"
         points="352.918,554 356.407,554      356.407,567.58    "
         id="polyline202"
         transform="matrix(4.1666667,0,0,4.1666667,-1.38e-5,-1.08e-5)" /><line
         fill="none"
         stroke="#29abe2"
         stroke-miterlimit="10"
         stroke-dasharray="26.5425"
         x1="1485.0292"
         y1="2424.429"
         x2="1485.0292"
         y2="2513.6624"
         id="line202"
         style="stroke-width:4.16667" /><rect
         x="1982.725"
         y="2358.5957"
         fill="#e6e6e6"
         width="970.1792"
         height="221.40001"
         id="rect204"
         style="stroke-width:4.16667" /><polyline
         fill="none"
         stroke="#29abe2"
         stroke-miterlimit="10"
         stroke-dasharray="6.3882"
         points="104.478,526.02 104.478,530      103.305,530    "
         id="polyline204"
         transform="matrix(4.1666667,0,0,4.1666667,-1.38e-5,-1.08e-5)" /><line
         fill="none"
         stroke="#29abe2"
         stroke-miterlimit="10"
         stroke-dasharray="26.6175"
         x1="420.3833"
         y1="2208.3333"
         x2="123.80415"
         y2="2208.3333"
         id="line204"
         style="stroke-width:4.16667" /><polyline
         fill="none"
         stroke="#29abe2"
         stroke-miterlimit="10"
         stroke-dasharray="6.3882"
         points="28.507,530 27.333,530      27.333,526.02    "
         id="polyline205"
         transform="matrix(4.1666667,0,0,4.1666667,-1.38e-5,-1.08e-5)" /><line
         fill="none"
         stroke="#29abe2"
         stroke-miterlimit="10"
         stroke-dasharray="26.6175"
         x1="113.88749"
         y1="2159.0833"
         x2="113.88749"
         y2="672.73749"
         id="line205"
         style="stroke-width:4.16667" /><polyline
         fill="none"
         stroke="#29abe2"
         stroke-miterlimit="10"
         stroke-dasharray="6.3882"
         points="27.333,157.537      27.333,153.557 28.507,153.557    "
         id="polyline206"
         transform="matrix(4.1666667,0,0,4.1666667,-1.38e-5,-1.08e-5)" /><line
         fill="none"
         stroke="#29abe2"
         stroke-miterlimit="10"
         stroke-dasharray="26.6175"
         x1="128.83333"
         y1="639.82086"
         x2="425.40833"
         y2="639.82086"
         id="line206"
         style="stroke-width:4.16667" /><polyline
         fill="none"
         stroke="#29abe2"
         stroke-miterlimit="10"
         stroke-dasharray="6.3882"
         points="103.305,153.557      104.478,153.557 104.478,157.537    "
         id="polyline207"
         transform="matrix(4.1666667,0,0,4.1666667,-1.38e-5,-1.08e-5)" /><line
         fill="none"
         stroke="#29abe2"
         stroke-miterlimit="10"
         stroke-dasharray="26.6175"
         x1="435.32498"
         y1="689.07916"
         x2="435.32498"
         y2="2175.4165"
         id="line207"
         style="stroke-width:4.16667" /><path
         fill="none"
         stroke="#29abe2"
         stroke-miterlimit="10"
         stroke-dasharray="23.155"
         d="M 1587.3917,960.37916"
         id="path209"
         style="stroke-width:4.16667" /><path
         fill="none"
         stroke="#29abe2"
         stroke-miterlimit="10"
         stroke-dasharray="23.155"
         d="M 1587.3917,1888.6917"
         id="path210"
         style="stroke-width:4.16667" /><path
         fill="none"
         stroke="#29abe2"
         stroke-miterlimit="10"
         stroke-dasharray="23.155"
         d="M 1884.3,939.82083"
         id="path211"
         style="stroke-width:4.16667" /><path
         fill="none"
         stroke="#29abe2"
         stroke-miterlimit="10"
         stroke-dasharray="23.155"
         d="M 1601.6292,939.82083"
         id="path212"
         style="stroke-width:4.16667" /><path
         fill="none"
         stroke="#29abe2"
         stroke-miterlimit="10"
         stroke-dasharray="23.155"
         d="M 1893.75,1898.8917"
         id="path213"
         style="stroke-width:4.16667" /><path
         fill="none"
         stroke="#29abe2"
         stroke-miterlimit="10"
         stroke-dasharray="23.155"
         d="M 1893.75,970.58333"
         id="path214"
         style="stroke-width:4.16667" /><polyline
         fill="none"
         stroke="#29abe2"
         stroke-miterlimit="10"
         stroke-dasharray="6.3882"
         points="454,524.063 454,528      452.877,528    "
         id="polyline216"
         transform="matrix(4.1666667,0,0,4.1666667,-1.38e-5,-1.08e-5)" /><line
         fill="none"
         stroke="#29abe2"
         stroke-miterlimit="10"
         stroke-dasharray="26.6175"
         x1="1877.3708"
         y1="2200"
         x2="1593.7334"
         y2="2200"
         id="line216"
         style="stroke-width:4.16667" /><polyline
         fill="none"
         stroke="#29abe2"
         stroke-miterlimit="10"
         stroke-dasharray="6.3882"
         points="381.342,528 380.22,528      380.22,524.063    "
         id="polyline217"
         transform="matrix(4.1666667,0,0,4.1666667,-1.38e-5,-1.08e-5)" /><line
         fill="none"
         stroke="#29abe2"
         stroke-miterlimit="10"
         stroke-dasharray="26.6175"
         x1="1584.25"
         y1="2151.2917"
         x2="1584.25"
         y2="681.34998"
         id="line217"
         style="stroke-width:4.16667" /><polyline
         fill="none"
         stroke="#29abe2"
         stroke-miterlimit="10"
         stroke-dasharray="6.3882"
         points="380.22,159.647      380.22,155.711 381.342,155.711    "
         id="polyline218"
         transform="matrix(4.1666667,0,0,4.1666667,-1.38e-5,-1.08e-5)" /><line
         fill="none"
         stroke="#29abe2"
         stroke-miterlimit="10"
         stroke-dasharray="26.6175"
         x1="1598.5416"
         y1="648.79584"
         x2="1882.1833"
         y2="648.79584"
         id="line218"
         style="stroke-width:4.16667" /><polyline
         fill="none"
         stroke="#29abe2"
         stroke-miterlimit="10"
         stroke-dasharray="6.3882"
         points="452.877,155.711 454,155.711      454,159.647    "
         id="polyline219"
         transform="matrix(4.1666667,0,0,4.1666667,-1.38e-5,-1.08e-5)" /><line
         fill="none"
         stroke="#29abe2"
         stroke-miterlimit="10"
         stroke-dasharray="26.6175"
         x1="1891.6666"
         y1="697.5083"
         x2="1891.6666"
         y2="2167.4458"
         id="line219"
         style="stroke-width:4.16667" /></svg>
