<?xml version="1.0" encoding="UTF-8" standalone="no"?>
<svg
     version="1.1"
     id="template"
     x="0px"
     y="0px"
     width="3450"
     height="5100"
     viewBox="0 0 3450 5100"
     enable-background="new 0 0 270 414"
     xml:space="preserve"
     sodipodi:docname="JumboHookBox90.svg"
     inkscape:version="1.4 (e7c3feb1, 2024-10-09)"
     xmlns:inkscape="http://www.inkscape.org/namespaces/inkscape"
     xmlns:sodipodi="http://sodipodi.sourceforge.net/DTD/sodipodi-0.dtd"
     xmlns="http://www.w3.org/2000/svg"
     xmlns:svg="http://www.w3.org/2000/svg"> <defs
     id="defs728" /> <sodipodi:namedview
     id="namedview726"
     pagecolor="#ffffff"
     bordercolor="#999999"
     borderopacity="1"
     showgrid="false"
     inkscape:showpageshadow="0"
     inkscape:pageopacity="0"
     inkscape:pagecheckerboard="0"
     inkscape:deskcolor="#d1d1d1"
     inkscape:zoom="0.17647059"
     inkscape:cx="1725.5"
     inkscape:cy="2550"
     inkscape:window-width="1872"
     inkscape:window-height="1027"
     inkscape:window-x="63"
     inkscape:window-y="25"
     inkscape:window-maximized="1"
     inkscape:current-layer="template" /><g
     id="g1"
     transform="matrix(4.1666667,0,0,4.1666667,-8308.3334,-6562.5001)"><path
         class="cls-40"
         d="m 1994,1575 v 1224 h 828 V 1575 Z"
         id="path1"
         sodipodi:nodetypes="ccccc"
         style="opacity:0.5;fill:#0f0d0e;fill-opacity:1" /><path
         class="cls-19"
         d="m 2506.73,1614.63 c 15.93,0 28.85,12.92 28.85,28.85 v 248.45 c 0,5.5 0,10 0.02,10 h 81.46 c 5.5,0 14.5,0.22 19.99,0.5 l 169.87,8.49 c 0.08,0 0.14,0.07 0.14,0.15 v 379.87 c 0,0 -0.02,0.05 -0.05,0.05 -3.24,0.16 -169.97,8.5 -169.97,8.5 -5.49,0.27 -14.49,0.5 -19.99,0.5 h -81.39 c 0,0 -0.05,0.02 -0.05,0.05 v 469.34 c 0,9.97 -8.08,18.05 -18.05,18.05 h -219.14 c -9.97,0 -18.05,-8.08 -18.05,-18.05 v -469.34 c 0,0 -0.02,-0.05 -0.05,-0.05 -2.35,0 -82.48,0 -82.48,0 -5.5,0 -14.5,-0.23 -19.99,-0.5 L 2008.97,2291 c 0,0 -0.05,-0.02 -0.05,-0.05 v -379.58 c 0,0 0.03,-0.07 0.06,-0.07 l 169.58,-8.16 c 5.49,-0.26 14.49,-0.52 19.99,-0.56 l 71.8,-0.57 c 5.5,-0.04 10.05,-0.08 10.1,-0.08 0.05,0 0.1,-4.5 0.1,-10 v -70.71 c 0,-5.5 0,-14.5 -0.01,-20 l -0.18,-146.88 c 0,-5.5 0.11,-12.19 0.25,-14.85 l 0.43,-2.15 c 3.21,-16.15 16.86,-21.99 27,-22.67 7.12,-0.48 56.91,-0.2 56.91,-0.2 5.5,0.03 10.67,0 11.5,-0.06 l 0.54,-0.2 c 3.97,-1.47 0.84,-7.47 -3.41,-5.37 -5.99,2.95 -14.2,-22.22 27.18,-22.25 34.47,-0.02 34.39,21.65 39.1,26.9 l 0.67,0.75 c 0.96,0.21 1.75,0.38 1.75,0.39 0,0.01 4.5,0 10,0 h 54.41 z"
         id="clipping"
         style="fill:#767676;fill-opacity:1;stroke:none;stroke-miterlimit:10" /><polyline
         class="cls-12"
         points="530.12 335.92 532.62 335.92 532.62 338.42"
         id="polyline163"
         style="fill:none;stroke:#26aae1;stroke-miterlimit:10"
         transform="translate(1994,1575)" /><line
         class="cls-5"
         x1="2526.6201"
         y1="1918.4299"
         x2="2526.6201"
         y2="2285.98"
         id="line163"
         style="fill:none;stroke:#26aae1;stroke-miterlimit:10;stroke-dasharray:5, 5" /><polyline
         class="cls-12"
         points="532.62 713.48 532.62 715.98 530.12 715.98"
         id="polyline164"
         style="fill:none;stroke:#26aae1;stroke-miterlimit:10"
         transform="translate(1994,1575)" /><line
         class="cls-20"
         x1="2519.1799"
         y1="2290.98"
         x2="2294.3501"
         y2="2290.98"
         id="line164"
         style="fill:none;stroke:#26aae1;stroke-miterlimit:10;stroke-dasharray:4.94, 4.94" /><polyline
         class="cls-12"
         points="297.88 715.98 295.38 715.98 295.38 713.48"
         id="polyline165"
         style="fill:none;stroke:#26aae1;stroke-miterlimit:10"
         transform="translate(1994,1575)" /><line
         class="cls-6"
         x1="2289.3799"
         y1="2283.48"
         x2="2289.3799"
         y2="1915.92"
         id="line165"
         style="fill:none;stroke:#26aae1;stroke-miterlimit:10;stroke-dasharray:5, 5" /><polyline
         class="cls-12"
         points="295.38 338.42 295.38 335.92 297.88 335.92"
         id="polyline166"
         style="fill:none;stroke:#26aae1;stroke-miterlimit:10"
         transform="translate(1994,1575)" /><line
         class="cls-20"
         x1="2296.8201"
         y1="1910.92"
         x2="2521.6499"
         y2="1910.92"
         id="line166"
         style="fill:none;stroke:#26aae1;stroke-miterlimit:10;stroke-dasharray:4.94, 4.94" /><polyline
         class="cls-12"
         points="206.01 336.59 203.51 336.62 203.5 339.12"
         id="polyline167"
         style="fill:none;stroke:#26aae1;stroke-miterlimit:10"
         transform="translate(1994,1575)" /><line
         class="cls-4"
         x1="2197.5"
         y1="1919.1"
         x2="2197.22"
         y2="2285.6401"
         id="line167"
         style="fill:none;stroke:#26aae1;stroke-miterlimit:10;stroke-dasharray:4.99, 4.99" /><polyline
         class="cls-12"
         points="203.22 713.14 203.22 715.64 205.72 715.65"
         id="polyline168"
         style="fill:none;stroke:#26aae1;stroke-miterlimit:10"
         transform="translate(1994,1575)" /><line
         class="cls-26"
         x1="2205.04"
         y1="2290.6699"
         x2="2266.22"
         y2="2290.96"
         id="line168"
         style="fill:none;stroke:#26aae1;stroke-miterlimit:10;stroke-dasharray:5.32, 5.32" /><polyline
         class="cls-12"
         points="274.88 715.97 277.38 715.98 277.38 713.48"
         id="polyline169"
         style="fill:none;stroke:#26aae1;stroke-miterlimit:10"
         transform="translate(1994,1575)" /><line
         class="cls-6"
         x1="2271.3799"
         y1="2283.48"
         x2="2271.3799"
         y2="1915.92"
         id="line169"
         style="fill:none;stroke:#26aae1;stroke-miterlimit:10;stroke-dasharray:5, 5" /><polyline
         class="cls-12"
         points="277.38 338.42 277.38 335.92 274.88 335.95"
         id="polyline170"
         style="fill:none;stroke:#26aae1;stroke-miterlimit:10"
         transform="translate(1994,1575)" /><line
         class="cls-14"
         x1="2263.5801"
         y1="1911"
         x2="2202.6599"
         y2="1911.5701"
         id="line170"
         style="fill:none;stroke:#26aae1;stroke-miterlimit:10;stroke-dasharray:5.3, 5.3" /><polyline
         class="cls-12"
         points="183.08 336.78 185.58 336.65 185.57 339.15"
         id="polyline171"
         style="fill:none;stroke:#26aae1;stroke-miterlimit:10"
         transform="translate(1994,1575)" /><line
         class="cls-8"
         x1="2179.5601"
         y1="1919.14"
         x2="2178.9299"
         y2="2285.99"
         id="line171"
         style="fill:none;stroke:#26aae1;stroke-miterlimit:10;stroke-dasharray:4.99, 4.99" /><polyline
         class="cls-12"
         points="184.93 713.48 184.93 715.98 182.43 715.85"
         id="polyline172"
         style="fill:none;stroke:#26aae1;stroke-miterlimit:10"
         transform="translate(1994,1575)" /><line
         class="cls-28"
         x1="2171.3999"
         y1="2290.5801"
         x2="2022.95"
         y2="2282.6599"
         id="line172"
         style="fill:none;stroke:#26aae1;stroke-miterlimit:10;stroke-dasharray:5.04, 5.04" /><polyline
         class="cls-12"
         points="26.43 707.52 23.94 707.39 23.94 704.89"
         id="polyline173"
         style="fill:none;stroke:#26aae1;stroke-miterlimit:10"
         transform="translate(1994,1575)" /><line
         class="cls-27"
         x1="2017.9399"
         y1="2274.8599"
         x2="2017.9399"
         y2="1924.91"
         id="line173"
         style="fill:none;stroke:#26aae1;stroke-miterlimit:10;stroke-dasharray:5.04, 5.04" /><polyline
         class="cls-12"
         points="23.94 347.4 23.94 344.9 26.43 344.77"
         id="polyline174"
         style="fill:none;stroke:#26aae1;stroke-miterlimit:10"
         transform="translate(1994,1575)" /><line
         class="cls-25"
         x1="2025.49"
         y1="1919.51"
         x2="2174.55"
         y2="1911.91"
         id="line174"
         style="fill:none;stroke:#26aae1;stroke-miterlimit:10;stroke-dasharray:5.06, 5.06" /><polyline
         class="cls-12"
         points="620.3 336.95 622.8 336.98 622.8 339.48"
         id="polyline175"
         style="fill:none;stroke:#26aae1;stroke-miterlimit:10"
         transform="translate(1994,1575)" /><line
         class="cls-4"
         x1="2616.8"
         y1="1919.46"
         x2="2617.0801"
         y2="2286"
         id="line175"
         style="fill:none;stroke:#26aae1;stroke-miterlimit:10;stroke-dasharray:4.99, 4.99" /><polyline
         class="cls-12"
         points="623.09 713.5 623.09 716 620.59 716.01"
         id="polyline176"
         style="fill:none;stroke:#26aae1;stroke-miterlimit:10"
         transform="translate(1994,1575)" /><line
         class="cls-26"
         x1="2609.27"
         y1="2291.03"
         x2="2548.0901"
         y2="2291.3201"
         id="line176"
         style="fill:none;stroke:#26aae1;stroke-miterlimit:10;stroke-dasharray:5.32, 5.32" /><polyline
         class="cls-12"
         points="551.43 716.33 548.93 716.34 548.93 713.84"
         id="polyline177"
         style="fill:none;stroke:#26aae1;stroke-miterlimit:10"
         transform="translate(1994,1575)" /><line
         class="cls-6"
         x1="2542.9299"
         y1="2283.8401"
         x2="2542.9299"
         y2="1916.29"
         id="line177"
         style="fill:none;stroke:#26aae1;stroke-miterlimit:10;stroke-dasharray:5, 5" /><polyline
         class="cls-12"
         points="548.93 338.79 548.93 336.29 551.43 336.31"
         id="polyline178"
         style="fill:none;stroke:#26aae1;stroke-miterlimit:10"
         transform="translate(1994,1575)" /><line
         class="cls-14"
         x1="2550.73"
         y1="1911.36"
         x2="2611.6499"
         y2="1911.9299"
         id="line178"
         style="fill:none;stroke:#26aae1;stroke-miterlimit:10;stroke-dasharray:5.3, 5.3" /><polyline
         class="cls-12"
         points="643.22 337.14 640.73 337.01 640.73 339.51"
         id="polyline179"
         style="fill:none;stroke:#26aae1;stroke-miterlimit:10"
         transform="translate(1994,1575)" /><line
         class="cls-8"
         x1="2634.74"
         y1="1919.5"
         x2="2635.3701"
         y2="2286.3501"
         id="line179"
         style="fill:none;stroke:#26aae1;stroke-miterlimit:10;stroke-dasharray:4.99, 4.99" /><polyline
         class="cls-12"
         points="641.37 713.84 641.38 716.34 643.87 716.21"
         id="polyline180"
         style="fill:none;stroke:#26aae1;stroke-miterlimit:10"
         transform="translate(1994,1575)" /><line
         class="cls-28"
         x1="2642.9099"
         y1="2290.9399"
         x2="2791.3501"
         y2="2283.02"
         id="line180"
         style="fill:none;stroke:#26aae1;stroke-miterlimit:10;stroke-dasharray:5.04, 5.04" /><polyline
         class="cls-12"
         points="799.87 707.89 802.37 707.75 802.37 705.25"
         id="polyline181"
         style="fill:none;stroke:#26aae1;stroke-miterlimit:10"
         transform="translate(1994,1575)" /><line
         class="cls-27"
         x1="2796.3701"
         y1="2275.22"
         x2="2796.3701"
         y2="1925.28"
         id="line181"
         style="fill:none;stroke:#26aae1;stroke-miterlimit:10;stroke-dasharray:5.04, 5.04" /><polyline
         class="cls-12"
         points="802.37 347.76 802.37 345.26 799.87 345.13"
         id="polyline182"
         style="fill:none;stroke:#26aae1;stroke-miterlimit:10"
         transform="translate(1994,1575)" /><line
         class="cls-25"
         x1="2788.8201"
         y1="1919.87"
         x2="2639.75"
         y2="1912.27"
         id="line182"
         style="fill:none;stroke:#26aae1;stroke-miterlimit:10;stroke-dasharray:5.06, 5.06" /><polyline
         class="cls-12"
         points="295.38 315.42 295.38 317.92 297.88 317.92"
         id="polyline183"
         style="fill:none;stroke:#26aae1;stroke-miterlimit:10"
         transform="translate(1994,1575)" /><line
         class="cls-23"
         x1="2296.8201"
         y1="1892.92"
         x2="2521.6099"
         y2="1892.92"
         id="line183"
         style="fill:none;stroke:#26aae1;stroke-miterlimit:10;stroke-dasharray:4.94, 4.94" /><polyline
         class="cls-12"
         points="530.08 317.92 532.58 317.92 532.58 315.42"
         id="polyline184"
         style="fill:none;stroke:#26aae1;stroke-miterlimit:10"
         transform="translate(1994,1575)" /><line
         class="cls-16"
         x1="2526.5801"
         y1="1885.22"
         x2="2526.5801"
         y2="1825.3201"
         id="line184"
         style="fill:none;stroke:#26aae1;stroke-miterlimit:10;stroke-dasharray:5.21, 5.21" /><polyline
         class="cls-12"
         points="532.58 247.71 532.58 245.21 530.08 245.21"
         id="polyline185"
         style="fill:none;stroke:#26aae1;stroke-miterlimit:10"
         transform="translate(1994,1575)" /><line
         class="cls-22"
         x1="2519.1401"
         y1="1820.21"
         x2="2294.3501"
         y2="1820.21"
         id="line185"
         style="fill:none;stroke:#26aae1;stroke-miterlimit:10;stroke-dasharray:4.94, 4.94" /><polyline
         class="cls-12"
         points="297.88 245.21 295.38 245.21 295.38 247.71"
         id="polyline186"
         style="fill:none;stroke:#26aae1;stroke-miterlimit:10"
         transform="translate(1994,1575)" /><line
         class="cls-15"
         x1="2289.3799"
         y1="1827.92"
         x2="2289.3799"
         y2="1887.8201"
         id="line186"
         style="fill:none;stroke:#26aae1;stroke-miterlimit:10;stroke-dasharray:5.21, 5.21" /><polyline
         class="cls-12"
         points="295.57 224.71 295.57 227.21 298.07 227.21"
         id="polyline187"
         style="fill:none;stroke:#26aae1;stroke-miterlimit:10"
         transform="translate(1994,1575)" /><line
         class="cls-24"
         x1="2297.01"
         y1="1802.21"
         x2="2521.6499"
         y2="1802.21"
         id="line187"
         style="fill:none;stroke:#26aae1;stroke-miterlimit:10;stroke-dasharray:4.94, 4.94" /><polyline
         class="cls-12"
         points="530.12 227.21 532.62 227.21 532.62 224.71"
         id="polyline188"
         style="fill:none;stroke:#26aae1;stroke-miterlimit:10"
         transform="translate(1994,1575)" /><path
         class="cls-3"
         d="m 2526.62,1794.69 -0.03,-144.73 c 0,-14.55 -12.07,-26.34 -26.95,-26.34 h -183.96 c -14.54,0 -26.33,11.53 -26.31,25.74 l 0.19,147.83"
         id="path188"
         style="fill:none;stroke:#26aae1;stroke-miterlimit:10;stroke-dasharray:5.02, 5.02" /><polyline
         class="cls-12"
         points="295.36 804.56 295.36 807.06 297.86 807.06"
         id="polyline189"
         style="fill:none;stroke:#26aae1;stroke-miterlimit:10"
         transform="translate(1994,1575)" /><line
         class="cls-23"
         x1="2296.8"
         y1="2382.0601"
         x2="2521.5901"
         y2="2382.0601"
         id="line189"
         style="fill:none;stroke:#26aae1;stroke-miterlimit:10;stroke-dasharray:4.94, 4.94" /><polyline
         class="cls-12"
         points="530.06 807.06 532.56 807.06 532.56 804.56"
         id="polyline190"
         style="fill:none;stroke:#26aae1;stroke-miterlimit:10"
         transform="translate(1994,1575)" /><line
         class="cls-16"
         x1="2526.5601"
         y1="2374.3501"
         x2="2526.5601"
         y2="2314.45"
         id="line190"
         style="fill:none;stroke:#26aae1;stroke-miterlimit:10;stroke-dasharray:5.21, 5.21" /><polyline
         class="cls-12"
         points="532.56 736.85 532.56 734.35 530.06 734.35"
         id="polyline191"
         style="fill:none;stroke:#26aae1;stroke-miterlimit:10"
         transform="translate(1994,1575)" /><line
         class="cls-22"
         x1="2519.1201"
         y1="2309.3501"
         x2="2294.3301"
         y2="2309.3501"
         id="line191"
         style="fill:none;stroke:#26aae1;stroke-miterlimit:10;stroke-dasharray:4.94, 4.94" /><polyline
         class="cls-12"
         points="297.86 734.35 295.36 734.35 295.36 736.85"
         id="polyline192"
         style="fill:none;stroke:#26aae1;stroke-miterlimit:10"
         transform="translate(1994,1575)" /><line
         class="cls-15"
         x1="2289.3599"
         y1="2317.0601"
         x2="2289.3599"
         y2="2376.95"
         id="line192"
         style="fill:none;stroke:#26aae1;stroke-miterlimit:10;stroke-dasharray:5.21, 5.21" /><path
         class="cls-9"
         d="m 2367.81,2595.1 c 4.62,5.65 16.37,-1.43 40.19,-1.43 26.89,0 40.6,8.03 45.96,1.19 5.69,-7.27 -2.63,-20.28 -43.61,-20.28 -40.98,0 -49.38,12.15 -42.54,20.51 z"
         id="path192"
         style="fill:none;stroke:#26aae1;stroke-miterlimit:10;stroke-dasharray:5, 5" /><polyline
         class="cls-12"
         points="532.56 827.93 532.56 825.43 530.06 825.43"
         id="polyline193"
         style="fill:none;stroke:#26aae1;stroke-miterlimit:10"
         transform="translate(1994,1575)" /><polyline
         class="cls-21"
         points="525.12 825.43 521.75 825.43 306.24 825.43 300.33 825.43"
         id="polyline194"
         style="fill:none;stroke:#26aae1;stroke-miterlimit:10;stroke-dasharray:4.94, 4.94"
         transform="translate(1994,1575)" /><polyline
         class="cls-12"
         points="297.86 825.43 295.36 825.43 295.36 827.93"
         id="polyline195"
         style="fill:none;stroke:#26aae1;stroke-miterlimit:10"
         transform="translate(1994,1575)" /><line
         class="cls-11"
         x1="2289.3599"
         y1="2408.8101"
         x2="2289.3599"
         y2="2429.3999"
         id="line195"
         style="fill:none;stroke:#26aae1;stroke-miterlimit:10;stroke-dasharray:5.88, 5.88" /><polyline
         class="cls-12"
         points="295.36 857.34 295.36 859.84 295.38 859.84 295.38 862.34"
         id="polyline196"
         style="fill:none;stroke:#26aae1;stroke-miterlimit:10"
         transform="translate(1994,1575)" /><path
         class="cls-7"
         d="m 2289.38,2442.33 v 325.23 c 0,6 4.86,10.86 10.86,10.86 h 215.51 c 6,0 10.86,-4.86 10.86,-10.86 v -356.27 c 0,-0.38 -0.02,-0.76 -0.06,-1.13 v -4.74"
         id="path196"
         style="fill:none;stroke:#26aae1;stroke-miterlimit:10;stroke-dasharray:5, 5" /><line
         class="cls-18"
         x1="2280.3799"
         y1="1811.21"
         x2="2535.6201"
         y2="1811.21"
         id="line196"
         style="opacity:0.5;fill:none;stroke:#0baa4b;stroke-miterlimit:10" /><line
         class="cls-2"
         x1="2280.3799"
         y1="2391.4199"
         x2="2535.6201"
         y2="2391.4199"
         id="line197"
         style="fill:none;stroke:#0baa4b;stroke-miterlimit:10" /><line
         class="cls-2"
         x1="2188.9399"
         y1="1902.29"
         x2="2188.21"
         y2="2299.6201"
         id="line198"
         style="fill:none;stroke:#0baa4b;stroke-miterlimit:10" /><line
         class="cls-2"
         x1="2627.0601"
         y1="1901.9299"
         x2="2627.0601"
         y2="2299.98"
         id="line199"
         style="fill:none;stroke:#0baa4b;stroke-miterlimit:10" /><rect
         class="cls-2"
         x="2280.3799"
         y="1901.92"
         width="255.24001"
         height="398.06"
         id="rect199"
         style="fill:none;stroke:#0baa4b;stroke-miterlimit:10" /><path
         id="Curved_slice"
         class="cls-19"
         d="m 2373.67,2589.43 c 0,0 6.54,-5.39 36,-5.39 29.46,0 36,5.39 36,5.39"
         style="fill:none;stroke:#ff0000;stroke-miterlimit:10" /></g></svg>
