<?xml version="1.0" encoding="UTF-8" standalone="no"?>
<svg
     version="1.1"
     x="0px"
     y="0px"
     width="450"
     height="450"
     viewBox="0 0 450 450"
     enable-background="new 0 0 108 108"
     xml:space="preserve"
     id="svg176"
     sodipodi:docname="LargeRing.svg"
     inkscape:version="1.4 (e7c3feb1, 2024-10-09)"
     xmlns:inkscape="http://www.inkscape.org/namespaces/inkscape"
     xmlns:sodipodi="http://sodipodi.sourceforge.net/DTD/sodipodi-0.dtd"
     xmlns="http://www.w3.org/2000/svg"
     xmlns:svg="http://www.w3.org/2000/svg"><defs
     id="defs176">
	
	
</defs><sodipodi:namedview
     id="namedview176"
     pagecolor="#505050"
     bordercolor="#eeeeee"
     borderopacity="1"
     inkscape:showpageshadow="0"
     inkscape:pageopacity="0"
     inkscape:pagecheckerboard="0"
     inkscape:deskcolor="#d1d1d1"
     inkscape:zoom="0.70710678"
     inkscape:cx="346.48232"
     inkscape:cy="463.86205"
     inkscape:window-width="1872"
     inkscape:window-height="1027"
     inkscape:window-x="62"
     inkscape:window-y="25"
     inkscape:window-maximized="1"
     inkscape:current-layer="svg176" />

<polygon
     fill="#757a7a"
     points="0,0 0,108 108,108 108,0 "
     id="polygon1"
     transform="scale(4.1666667)"
     style="stroke:none;fill:#111212;fill-opacity:1" /><path
     fill="#ffffff"
     stroke="#c92027"
     d="M 225,37.5 C 121.45,37.5 37.5,121.44583 37.5,225 37.5,328.55417 121.45,412.5 225,412.5 328.55834,412.5 412.5,328.55417 412.5,225 412.5,121.44583 328.55834,37.5 225,37.5 Z M 225,375 C 142.1625,375 75.000001,307.84167 75.000001,225 75.000001,142.15833 142.1625,75.000001 225,75.000001 c 82.84584,0 150,67.158329 150,149.999999 0,82.84167 -67.15416,150 -150,150 z"
     id="clipping"
     style="stroke-width:4.16667;fill:#747474;fill-opacity:1;stroke:none" />
</svg>
