<?xml version="1.0" encoding="UTF-8" standalone="no"?>
<svg
   version="1.1"
   id="Layer_1"
   x="0px"
   y="0px"
   viewBox="0 0  "
   xml:space="preserve"
   sodipodi:docname="LargeStoutBoxFront.svg"
   width="5925"
   height="5925"
   inkscape:version="1.3.2 (091e20e, 2023-11-25, custom)"
   xmlns:inkscape="http://www.inkscape.org/namespaces/inkscape"
   xmlns:sodipodi="http://sodipodi.sourceforge.net/DTD/sodipodi-0.dtd"
   xmlns="http://www.w3.org/2000/svg"
   xmlns:svg="http://www.w3.org/2000/svg"><defs
   id="defs206" /><sodipodi:namedview
   id="namedview206"
   pagecolor="#505050"
   bordercolor="#eeeeee"
   borderopacity="1"
   inkscape:showpageshadow="0"
   inkscape:pageopacity="0"
   inkscape:pagecheckerboard="0"
   inkscape:deskcolor="#d1d1d1"
   inkscape:zoom="0.15792053"
   inkscape:cx="3090.162"
   inkscape:cy="2396.7752"
   inkscape:window-width="1920"
   inkscape:window-height="1009"
   inkscape:window-x="-8"
   inkscape:window-y="-8"
   inkscape:window-maximized="1"
   inkscape:current-layer="Layer_1" />
<style
   type="text/css"
   id="style1">
	.st0{fill-opacity:0.5;}
	.st1{fill:none;stroke:#00A54F;stroke-miterlimit:10;}
	.st2{fill:none;stroke:#27A8E0;stroke-miterlimit:10;}
	.st3{fill:none;stroke:#27A8E0;stroke-miterlimit:10;stroke-dasharray:11.847,11.847;}
	.st4{fill:none;stroke:#27A8E0;stroke-miterlimit:10;stroke-dasharray:11.8539,11.8539;}
	.st5{fill:none;stroke:#27A8E0;stroke-miterlimit:10;stroke-dasharray:12;}
	.st6{fill:none;stroke:#EB232A;stroke-width:0.9921;stroke-linecap:round;stroke-linejoin:round;stroke-miterlimit:10;}
	.st7{fill:none;stroke:#929497;stroke-width:1.5906;}
	.st8{fill:#231F20;}
	.st9{font-family:'Arial-Black';}
	.st10{font-size:14.3173px;}
	.st11{fill:#2BA6DE;}
	.st12{font-family:'Arial-BoldMT';}
	.st13{font-size:11.931px;}
	.st14{fill:#EC1E28;}
	.st15{fill:#929497;}
	.st16{fill:none;stroke:#00ADEE;stroke-width:1.5906;stroke-miterlimit:10;stroke-dasharray:19.0873;}
	.st17{fill:none;stroke:#EC1E28;stroke-width:1.5906;}
	.st18{fill:#D0D2D3;}
	.st19{font-size:9.83px;}
	.st20{fill-rule:evenodd;clip-rule:evenodd;}
	.st21{fill-rule:evenodd;clip-rule:evenodd;fill:#B7D333;}
	.st22{fill-rule:evenodd;clip-rule:evenodd;fill:#FFFFFF;}
	.st23{fill-rule:evenodd;clip-rule:evenodd;fill:#4C4849;}
	.st24{fill:#4C4849;}
	.st25{fill:none;}
	.st26{fill:#FFFFFF;}
</style>






















<path
   class="st0"
   d="M 5925,5925 H 0 V 0 h 5925 z"
   id="path1-5-5"
   style="fill:#131313;fill-opacity:1;stroke-width:4.16667"
   sodipodi:nodetypes="ccccc" /><path
   id="clipping"
   style="fill:#696969;stroke:none;stroke-width:4.13375;stroke-linecap:round;stroke-linejoin:round;stroke-miterlimit:10"
   class="st6"
   d="m 5571.6667,1294.5833 h -942.5 l 353.75,-353.33334 V 374.16662 H 4650 l -21.25,-20.83333 -20.8333,-300.000003 h -3292.5 l -21.25,300.000003 -20.8334,20.83333 H 941.25 v 567.08334 l 352.9167,352.91664 v 1.25 0.4167 H 353.3333 l -300,20.8333 v 3292.5 l 300,21.25 h 941.25 L 941.25,4983.75 v 567.0833 h 332.9167 l 21.25,20.8334 20.8333,300 h 3292.5 l 20.8334,-300 21.25,-20.8334 h 332.0833 V 4983.75 l -353.3333,-352.9167 v -1.6667 h 942.0833 l 300,-20.8333 v -3292.5 l -300,-21.25" /><path
   id="path1-5"
   style="fill:#7f7f7f;fill-opacity:1;stroke-width:4.16667"
   class="st0"
   d="m -11424.582,53.333984 -20.836,299.999996 -20.832,20.83204 h -332.082 V 941.25 l 352.914,352.916 v 0.834 0.416 h -941.25 l -300,20.834 v 3292.5 l 300,20.834 H -11445 l -353.332,353.332 V 5550 h 332.914 l 20.836,20.834 20.832,300 h 3292.5 l 20.834,-300 20.832,-20.834 H -7757.5 V 4982.916 L -8110.416,4630 v -1.25 h 942.082 l 300,-20.834 V 1315.834 l -300,-21.25 h -942.5 L -7757.5,941.25 V 374.16602 H -8090 l -20.834,-20.83204 -20.832,-299.999996 z" /><rect
   x="1294.1666"
   y="1295.8334"
   class="st1"
   width="3335.4167"
   height="3333.75"
   id="actualSize"
   style="stroke-width:4.16667;stroke:none;fill:#b8b8b8;fill-opacity:1" /><rect
   x="1294.1666"
   y="374.16666"
   class="st1"
   width="3335.4167"
   height="921.66669"
   id="rect5"
   style="stroke-width:4.16667" /><rect
   x="1331.6666"
   y="411.66666"
   class="st5"
   width="3260.4167"
   height="846.66669"
   id="rect6"
   style="fill:#9a9a9a;fill-opacity:1;stroke-width:4.16667;stroke:none" /><rect
   x="1294.1666"
   y="4629.1665"
   class="st1"
   width="3335.4167"
   height="921.66669"
   id="rect7"
   style="stroke-width:4.16667" /><rect
   x="1331.6666"
   y="4666.6665"
   class="st5"
   width="3260.4167"
   height="846.66669"
   id="rect8"
   style="fill:#9a9a9a;fill-opacity:1;stroke-width:4.16667;stroke:none" /><line
   class="st1"
   x1="5550.4165"
   y1="1294.5834"
   x2="5550.4165"
   y2="4630.417"
   id="line8"
   style="stroke-width:4.16667" /><rect
   x="4666.25"
   y="1332.0834"
   class="st5"
   width="846.66669"
   height="3260.4167"
   id="rect9"
   style="fill:#9a9a9a;fill-opacity:1;stroke-width:4.16667;stroke:none" /><line
   class="st1"
   x1="373.74997"
   y1="4630.417"
   x2="373.74997"
   y2="1294.5834"
   id="line9"
   style="stroke-width:4.16667" /><rect
   x="411.24997"
   y="1332.0834"
   class="st5"
   width="846.66669"
   height="3260.4167"
   id="rect10"
   style="fill:#9a9a9a;fill-opacity:1;stroke-width:4.16667;stroke:none" />
<rect
   style="fill:#9a9a9a;fill-opacity:1;stroke:none;stroke-width:6.94037;stroke-linecap:round;stroke-linejoin:round;stroke-dashoffset:45.1269;paint-order:markers stroke fill"
   id="rect208"
   width="3264"
   height="3262.5"
   x="1329.875"
   y="1331.25" /></svg>
