<?xml version="1.0" encoding="UTF-8" standalone="no"?>
<svg
     version="1.1"
     x="0px"
     y="0px"
     width="108px"
     height="108px"
     viewBox="0 0 108px 108px"
     enable-background="new 0 0 108 108"
     xml:space="preserve"
     id="svg185"
     sodipodi:docname="LargeRingChit.svg"
     inkscape:version="1.4 (e7c3feb1, 2024-10-09)"
     xmlns:inkscape="http://www.inkscape.org/namespaces/inkscape"
     xmlns:sodipodi="http://sodipodi.sourceforge.net/DTD/sodipodi-0.dtd"
     xmlns="http://www.w3.org/2000/svg"
     xmlns:svg="http://www.w3.org/2000/svg"><defs
     id="defs185">
	
	
</defs><sodipodi:namedview
     id="namedview185"
     pagecolor="#505050"
     bordercolor="#eeeeee"
     borderopacity="1"
     inkscape:showpageshadow="0"
     inkscape:pageopacity="0"
     inkscape:pagecheckerboard="0"
     inkscape:deskcolor="#d1d1d1"
     inkscape:zoom="2.0833333"
     inkscape:cx="29.52"
     inkscape:cy="153.12"
     inkscape:window-width="1872"
     inkscape:window-height="1027"
     inkscape:window-x="63"
     inkscape:window-y="25"
     inkscape:window-maximized="1"
     inkscape:current-layer="svg185" />
<polygon
     fill="#757a7a"
     points="0,108 108,108 108,0 0,0 "
     id="polygon1"
     style="fill:#262727;fill-opacity:1" /><path
     fill="#ffffff"
     stroke="#c92027"
     d="M 54,9 C 29.148,9 9,29.147 9,54 9,78.853 29.148,99 54,99 78.854,99 99,78.853 99,54 99,29.147 78.854,9 54,9 Z m 0,81 C 34.119,90 18,73.882 18,54 18,34.118 34.119,18 54,18 73.883,18 90,34.118 90,54 90,73.882 73.883,90 54,90 Z"
     id="clipping"
     style="fill:#717171;fill-opacity:1;stroke:none" />

</svg>
