<?xml version="1.0" encoding="UTF-8" standalone="no"?>
<svg
   version="1.1"
   id="Layer_1"
   x="0px"
   y="0px"
   viewBox="0 0 5925 5925"
   enable-background="new 0 0 1422 1422"
   xml:space="preserve"
   width="5925"
   height="5925"
   sodipodi:docname="LargeStoutBoxBack.svg"
   inkscape:version="1.3.2 (091e20e, 2023-11-25, custom)"
   xmlns:inkscape="http://www.inkscape.org/namespaces/inkscape"
   xmlns:sodipodi="http://sodipodi.sourceforge.net/DTD/sodipodi-0.dtd"
   xmlns="http://www.w3.org/2000/svg"
   xmlns:svg="http://www.w3.org/2000/svg"><defs
     id="defs202">
width=&quot;1422&quot; height=&quot;1422&quot;/&gt;





















	

		
		
			
		
		
			
		
		
			
		
		
			
	
	

	

	

	

	

		
		
			
		
		
			
		
		
			
		
		
			
	
		
		
			
		
		
			
		
		
			
		
		
			
	
		
		
			
		
		
			
		
		
			
		
		
			
	
		
		
			
		
		
			
		
		
			
		
		
			
	
		
			
	</defs><sodipodi:namedview
     id="namedview202"
     pagecolor="#505050"
     bordercolor="#eeeeee"
     borderopacity="1"
     inkscape:showpageshadow="0"
     inkscape:pageopacity="0"
     inkscape:pagecheckerboard="0"
     inkscape:deskcolor="#d1d1d1"
     inkscape:zoom="1.2151899"
     inkscape:cx="4336.7706"
     inkscape:cy="1779.5572"
     inkscape:window-width="2560"
     inkscape:window-height="1351"
     inkscape:window-x="-9"
     inkscape:window-y="-9"
     inkscape:window-maximized="1"
     inkscape:current-layer="Layer_1"
     showguides="false" /><rect
     x="0"
     y="0"
     id="rect1"
     width="0"
     height="0"
     style="stroke-width:4.16667" /><rect
     style="fill:#181818;fill-opacity:1;stroke:none;stroke-width:4.21399;stroke-linecap:round;stroke-linejoin:round;stroke-opacity:1;paint-order:markers fill stroke"
     id="rect202"
     width="5925"
     height="5925"
     x="0"
     y="0" /><polygon
     fill="#ffffff"
     stroke="#eb232a"
     stroke-width="0.9921"
     stroke-linecap="round"
     stroke-linejoin="round"
     stroke-miterlimit="10"
     points="324,20.88 318.96,92.881 313.921,97.92 233.999,97.92 233.999,234.001 318.96,318.96 121.499,318.96 92.879,318.96 20.879,324 20.879,1098 92.879,1103.04 121.499,1103.04 318.959,1103.04 233.999,1187.999 233.999,1324.08 313.919,1324.08 318.959,1329.12 323.999,1401.12 1098,1401.12 1103.039,1329.119 1108.078,1324.08 1188,1324.08 1188,1187.999 1103.039,1103.04 1222.5,1103.04 1329.12,1103.04 1401.121,1098 1401.121,324 1329.12,318.96 1222.5,318.96 1103.041,318.96 1188,234.001 1188,97.92 1108.08,97.92 1103.041,92.88 1098,20.88 "
     id="clipping"
     style="fill:#757575;fill-opacity:1;stroke:none"
     transform="scale(4.1666667)" /><rect
     x="1329"
     y="1329"
     fill="none"
     stroke="#00a551"
     stroke-miterlimit="10"
     width="3266.9958"
     height="3267"
     id="actualSize"
     style="stroke-width:4.16667;fill:#c9c9c9;fill-opacity:1;stroke:none" /><rect
     x="1368.4387"
     y="448.81506"
     fill="none"
     stroke="#00a551"
     stroke-width="2.08995"
     stroke-miterlimit="10"
     width="3188.1184"
     height="842.12256"
     id="rect4"
     style="fill:#a3a3a3;fill-opacity:1;stroke:none" /><rect
     x="1368.4408"
     y="4634.0625"
     fill="none"
     stroke="#00a551"
     stroke-width="2.08995"
     stroke-miterlimit="10"
     width="3188.1184"
     height="842.12256"
     id="rect4-7"
     style="fill:#a3a3a3;fill-opacity:1;stroke:none" /><rect
     x="1368.4408"
     y="-1290.0602"
     fill="none"
     stroke="#00a551"
     stroke-width="2.08995"
     stroke-miterlimit="10"
     width="3188.1184"
     height="842.12256"
     id="rect4-7-1"
     style="fill:#a3a3a3;fill-opacity:1;stroke:none"
     transform="rotate(90)" /><rect
     x="1368.4408"
     y="-5477.0625"
     fill="none"
     stroke="#00a551"
     stroke-width="2.08995"
     stroke-miterlimit="10"
     width="3188.1184"
     height="842.12256"
     id="rect5"
     style="fill:#a3a3a3;fill-opacity:1;stroke:none"
     transform="rotate(90)" /><rect
     x="1368.4408"
     y="-4555.3945"
     fill="none"
     stroke="#00a551"
     stroke-width="4.06496"
     stroke-miterlimit="10"
     width="3188.1184"
     height="3185.7891"
     id="rect4-7-1-0"
     style="fill:#a3a3a3;fill-opacity:1;stroke:none"
     transform="rotate(90)" /><rect
     x="1329"
     y="408"
     fill="none"
     stroke="#00a551"
     stroke-width="2.2125"
     stroke-miterlimit="10"
     width="3266.9958"
     height="921"
     id="rect3" /><rect
     x="1329"
     y="4596"
     fill="none"
     stroke="#00a551"
     stroke-width="2.2125"
     stroke-miterlimit="10"
     width="3266.9958"
     height="921"
     id="rect7" /><line
     fill="none"
     stroke="#00a551"
     stroke-width="2.2125"
     stroke-miterlimit="10"
     x1="5517"
     y1="1329.0042"
     x2="5517"
     y2="4596"
     id="line11" /><line
     fill="none"
     stroke="#00a551"
     stroke-width="2.2125"
     stroke-miterlimit="10"
     x1="407.99582"
     y1="4595.9956"
     x2="407.99582"
     y2="1329.0042"
     id="line16" /></svg>
