<?xml version="1.0" encoding="UTF-8" standalone="no"?>
<svg
   version="1.1"
   id="Layer_1"
   x="0px"
   y="0px"
   viewBox="0 0 3450 3450"
   style="enable-background:new 0 0 1422 1422;"
   xml:space="preserve"
   width="3450"
   height="3450"
   sodipodi:docname="LargeStoutBoxTopAndSide.svg"
   inkscape:version="1.3.2 (091e20e, 2023-11-25, custom)"
   xmlns:inkscape="http://www.inkscape.org/namespaces/inkscape"
   xmlns:sodipodi="http://sodipodi.sourceforge.net/DTD/sodipodi-0.dtd"
   xmlns="http://www.w3.org/2000/svg"
   xmlns:svg="http://www.w3.org/2000/svg"><defs
     id="defs186">
<style
   type="text/css"
   id="style1">
	.st0{fill-opacity:1;}
	.st1{fill:none;stroke:#00A54F;stroke-miterlimit:10;}
	.st2{fill:none;stroke:#27A8E0;stroke-miterlimit:10;}
	.st3{fill:none;stroke:#27A8E0;stroke-miterlimit:10;stroke-dasharray:11.847,11.847;}
	.st4{fill:none;stroke:#27A8E0;stroke-miterlimit:10;stroke-dasharray:11.8539,11.8539;}
	.st5{fill:none;stroke:#27A8E0;stroke-miterlimit:10;stroke-dasharray:12;}
	.st6{fill:none;stroke:#EB232A;stroke-width:0.9921;stroke-linecap:round;stroke-linejoin:round;stroke-miterlimit:10;}
	.st7{fill:none;stroke:#929497;stroke-width:1.5906;}
	.st8{fill:#231F20;}
	.st9{font-family:'Arial-Black';}
	.st10{font-size:14.3173px;}
	.st11{fill:#2BA6DE;}
	.st12{font-family:'Arial-BoldMT';}
	.st13{font-size:11.931px;}
	.st14{fill:#EC1E28;}
	.st15{fill:#929497;}
	.st16{fill:none;stroke:#00ADEE;stroke-width:1.5906;stroke-miterlimit:10;stroke-dasharray:19.0873;}
	.st17{fill:none;stroke:#EC1E28;stroke-width:1.5906;}
	.st18{fill:#D0D2D3;}
	.st19{font-size:9.83px;}
	.st20{fill-rule:evenodd;clip-rule:evenodd;}
	.st21{fill-rule:evenodd;clip-rule:evenodd;fill:#B7D333;}
	.st22{fill-rule:evenodd;clip-rule:evenodd;fill:#FFFFFF;}
	.st23{fill-rule:evenodd;clip-rule:evenodd;fill:#4C4849;}
	.st24{fill:#4C4849;}
	.st25{fill:none;}
	.st26{fill:#FFFFFF;}
</style>























</defs><sodipodi:namedview
     id="namedview186"
     pagecolor="#505050"
     bordercolor="#eeeeee"
     borderopacity="1"
     inkscape:showpageshadow="0"
     inkscape:pageopacity="0"
     inkscape:pagecheckerboard="0"
     inkscape:deskcolor="#d1d1d1"
     inkscape:zoom="2.0869565"
     inkscape:cx="2532.875"
     inkscape:cy="901.55209"
     inkscape:window-width="2560"
     inkscape:window-height="1351"
     inkscape:window-x="-9"
     inkscape:window-y="-9"
     inkscape:window-maximized="1"
     inkscape:current-layer="Layer_1" /><path
     class="st0"
     d="M 3450,3450 H 2.67e-5 V 2.67e-5 H 3450 Z"
     id="path1"
     style="stroke-width:2.42616"
     sodipodi:nodetypes="ccccc" /><polyline
     class="st6"
     points="1337.2,310.7 1111,310.7 1195.9,225.9 1195.9,89.8 1116,89.8 1110.9,84.8 1105.9,12.8 315.7,12.8   310.6,84.8 305.6,89.8 225.9,89.8 225.9,225.9 310.6,310.6 310.6,310.9 310.6,311 84.8,311 12.8,316 12.8,1106.2 84.8,1111.3   310.7,1111.3 225.9,1196.1 225.9,1332.2 305.8,1332.2 310.9,1337.2 315.9,1409.2 1106.1,1409.2 1111.1,1337.2 1116.2,1332.2   1195.9,1332.2 1195.9,1196.1 1111.1,1111.4 1111.1,1111 1337.2,1111 1409.2,1106 1409.2,315.8 1337.2,310.7 "
     id="clipping"
     transform="matrix(2.4261603,0,0,2.4261603,2.67e-5,2.67e-5)"
     style="fill:#7e7e7e;fill-opacity:1;stroke:none" /><rect
     x="753.56543"
     y="754.53589"
     class="st1"
     width="1942.1414"
     height="1941.1708"
     id="actualSize"
     style="stroke-width:2.42616;fill:#bebebe;fill-opacity:1;stroke:none" /><rect
     x="753.56543"
     y="217.86923"
     class="st1"
     width="1942.1414"
     height="536.66663"
     id="rect5"
     style="stroke-width:2.42616" /><rect
     x="775.40088"
     y="239.70467"
     class="st5"
     width="1898.4705"
     height="492.99576"
     id="rect6"
     style="stroke-width:2.42616;stroke:none;fill:#999999;fill-opacity:1" /><rect
     x="753.56543"
     y="2695.4641"
     class="st1"
     width="1942.1414"
     height="536.66663"
     id="rect7"
     style="stroke-width:2.42616" /><rect
     x="775.40088"
     y="2717.2996"
     class="st5"
     width="1898.4705"
     height="492.99576"
     id="rect8"
     style="stroke-width:2.42616;stroke:none;fill:#999999;fill-opacity:1" /><line
     class="st1"
     x1="3231.8882"
     y1="753.80804"
     x2="3231.8882"
     y2="2696.1921"
     id="line8"
     style="stroke-width:2.42616" /><rect
     x="2717.0569"
     y="775.64349"
     class="st5"
     width="492.99576"
     height="1898.4705"
     id="rect9"
     style="stroke-width:2.42616;stroke:none;fill:#999999;fill-opacity:1" /><rect
     x="774.18756"
     y="775.15802"
     class="st5"
     width="1900.897"
     height="1899.684"
     id="rect9-0"
     style="fill:#999999;fill-opacity:1;stroke:none;stroke-width:4.76558;stroke-miterlimit:10;stroke-dasharray:23.571" /><line
     class="st1"
     x1="217.6266"
     y1="2696.1921"
     x2="217.6266"
     y2="753.80804"
     id="line9"
     style="stroke-width:2.42616" /><rect
     x="239.46204"
     y="775.64349"
     class="st5"
     width="492.99576"
     height="1898.4705"
     id="rect10"
     style="stroke-width:2.42616;stroke:none;fill:#999999;fill-opacity:1" /></svg>
