<?xml version="1.0" encoding="UTF-8" standalone="no"?>
<svg
   version="1.1"
   x="0px"
   y="0px"
   width="375"
   height="975"
   viewBox="0 0 375 975"
   enable-background="new 0 0 90 234"
   xml:space="preserve"
   id="svg12"
   sodipodi:docname="LargeStandee.svg"
   inkscape:version="1.3.2 (091e20e, 2023-11-25, custom)"
   xmlns:inkscape="http://www.inkscape.org/namespaces/inkscape"
   xmlns:sodipodi="http://sodipodi.sourceforge.net/DTD/sodipodi-0.dtd"
   xmlns="http://www.w3.org/2000/svg"
   xmlns:svg="http://www.w3.org/2000/svg"><defs
     id="defs12">



	
	
	
	
</defs><sodipodi:namedview
     id="namedview12"
     pagecolor="#505050"
     bordercolor="#eeeeee"
     borderopacity="1"
     inkscape:showpageshadow="0"
     inkscape:pageopacity="0"
     inkscape:pagecheckerboard="0"
     inkscape:deskcolor="#d1d1d1"
     inkscape:zoom="0.92307692"
     inkscape:cx="148.41667"
     inkscape:cy="577.95834"
     inkscape:window-width="2560"
     inkscape:window-height="1351"
     inkscape:window-x="-9"
     inkscape:window-y="-9"
     inkscape:window-maximized="1"
     inkscape:current-layer="svg12" /><polygon
     fill="#929497"
     points="0.038,0.002 0.038,234.001 90.038,234.001 90.038,0.002 "
     id="polygon1"
     transform="matrix(4.1427767,0,0,4.1427767,-0.15742592,2.7889119)"
     style="fill:#1a1b1b;fill-opacity:1" /><path
     id="actualSize"
     style="fill:#ab1cb8;fill-opacity:1;stroke:none"
     d="m 186.3457,40.078125 c -82.36669,0 -149.138669,66.773935 -149.138669,149.140625 0,2.0921 0.07339,4.1708 0.15625,6.24219 v 508.28515 c 0,4.11792 3.339111,7.46094 7.457031,7.46094 H 176.80859 v -74.56836 h 19.39258 v 74.56836 H 328.1875 c 4.11792,0 7.45703,-3.34302 7.45703,-7.46094 V 189.22266 l -0.1582,-0.004 c 0,-0.0539 -0.004,-0.10826 -0.004,-0.16211 l 0.16211,0.16211 c 0,-79.81888 -62.7096,-144.989197 -141.55078,-148.941406 -1.21383,-0.06214 -2.4439,-0.0667 -3.66602,-0.0957 -1.2594,-0.03314 -2.50207,-0.09546 -3.76562,-0.09961 l 0.004,0.0039 c -0.10771,0 -0.21261,-0.0078 -0.32032,-0.0078 z"
     sodipodi:nodetypes="sscssccccssccccccccs" /><path
     id="clipping"
     style="stroke:none;fill:#6a6a6a;fill-opacity:1"
     d="M 186.3457 40.078125 C 103.97901 40.078125 37.207031 106.85206 37.207031 189.21875 C 37.207031 191.31085 37.280425 193.38955 37.363281 195.46094 L 37.363281 703.74609 C 37.363281 707.86401 40.702392 711.20703 44.820312 711.20703 L 176.80859 711.20703 L 176.80859 636.63867 L 196.20117 636.63867 L 196.20117 711.20703 L 328.1875 711.20703 C 332.30542 711.20703 335.64453 707.86401 335.64453 703.74609 L 335.64453 189.22266 L 335.48633 189.21875 C 335.48633 189.16485 335.48242 189.11049 335.48242 189.05664 L 335.64453 189.21875 C 335.64453 109.39987 272.93493 44.229553 194.09375 40.277344 C 192.87992 40.215204 191.64985 40.210641 190.42773 40.181641 C 189.16833 40.148501 187.92566 40.086181 186.66211 40.082031 L 186.66602 40.085938 C 186.55831 40.085938 186.45341 40.078125 186.3457 40.078125 z M 176.73047 786.11328 C 101.34437 790.96032 41.191153 851.76726 37.466797 927.44336 C 37.466797 931.56128 40.624267 934.90625 44.742188 934.90625 L 328.10742 934.90625 C 332.22534 934.90625 335.38281 931.57058 335.38281 927.46094 C 331.6626 851.77656 271.50916 790.96032 196.12305 786.11328 L 196.12305 860.33594 L 176.73047 860.33594 L 176.73047 786.11328 z " /><path
     fill="none"
     stroke="#2da6de"
     stroke-dasharray="2.2081"
     d="m 233.48275,673.92702 v -74.56998 h -93.95817 v 74.56998 H 74.648693 V 194.70304 l -0.029,-0.76227 c -0.06628,-1.56597 -0.128427,-3.13608 -0.128427,-4.71862 0,-61.47052 49.845894,-111.515264 111.237694,-111.854972 l 6.44202,0.14914 c 57.60117,2.887515 103.093,48.855762 106.03851,105.827232 l -0.008,42.19832 0.15742,0.004 v 448.38515 h -64.87588 z"
     id="path2"
     style="stroke-width:4.14278;fill:#c1c1c1;fill-opacity:1;stroke:none" /></svg>
