<?xml version="1.0" encoding="UTF-8" standalone="no"?>
<svg
   version="1.1"
   id="Layer_1"
   x="0px"
   y="0px"
   viewBox="0 0 3675 4575"
   style="enable-background:new 0 0 882 1098;"
   xml:space="preserve"
   width="3675"
   height="4575"
   sodipodi:docname="MediumStoutBoxFront.svg"
   inkscape:version="1.3.2 (091e20e, 2023-11-25, custom)"
   xmlns:inkscape="http://www.inkscape.org/namespaces/inkscape"
   xmlns:sodipodi="http://sodipodi.sourceforge.net/DTD/sodipodi-0.dtd"
   xmlns="http://www.w3.org/2000/svg"
   xmlns:svg="http://www.w3.org/2000/svg"><defs
     id="defs167">
<style
   type="text/css"
   id="style1">
	.st0{fill-opacity:1;}
	.st1{fill:#D0D1D2;}
	.st2{fill:#231F20;}
	.st3{font-family:'Arial-BoldMT';}
	.st4{font-size:9.0915px;}
	.st5{fill-rule:evenodd;clip-rule:evenodd;}
	.st6{fill-rule:evenodd;clip-rule:evenodd;fill:#B7D333;}
	.st7{fill-rule:evenodd;clip-rule:evenodd;fill:#FFFFFF;}
	.st8{fill-rule:evenodd;clip-rule:evenodd;fill:#4D494A;}
	.st9{fill:#4D494A;}
	.st10{fill:#FFFFFF;}
	.st11{fill:none;stroke:#00A551;stroke-miterlimit:10;}
	.st12{fill:none;stroke:#00ADEE;stroke-miterlimit:10;}
	.st13{fill:none;stroke:#00ADEE;stroke-miterlimit:10;stroke-dasharray:12.1177,12.1177;}
	.st14{fill:none;stroke:#00ADEE;stroke-miterlimit:10;stroke-dasharray:12.1274,12.1274;}
	.st15{fill:none;stroke:#00ADEE;stroke-miterlimit:10;stroke-dasharray:13.1988,13.1988;}
	.st16{fill:none;stroke:#00ADEE;stroke-miterlimit:10;stroke-dasharray:13.1994,13.1994;}
	.st17{fill:none;stroke:#00ADEE;stroke-miterlimit:10;stroke-dasharray:12.05,12.05;}
	.st18{fill:none;stroke:#00ADEE;stroke-miterlimit:10;stroke-dasharray:12.1224,12.1224;}
	.st19{fill:none;stroke:#EC1E28;}
	.st20{font-family:'Arial-Black';}
	.st21{font-size:11.4736px;}
	.st22{fill:#2BA6DE;}
	.st23{font-size:9.5613px;}
	.st24{fill:#EC1E28;}
	.st25{fill:#929497;}
	.st26{fill:none;stroke:#2BA6DE;}
	.st27{fill:none;stroke:#2BA6DE;stroke-dasharray:11.7014,8.776;}
	.st28{fill:none;stroke:#929497;}
</style>


	
	
	
	
	
	
	
	
	
	
	
	
	
	
</defs><sodipodi:namedview
     id="namedview167"
     pagecolor="#505050"
     bordercolor="#eeeeee"
     borderopacity="1"
     inkscape:showpageshadow="0"
     inkscape:pageopacity="0"
     inkscape:pagecheckerboard="0"
     inkscape:deskcolor="#d1d1d1"
     inkscape:zoom="1.5737705"
     inkscape:cx="2458.4271"
     inkscape:cy="3730.2136"
     inkscape:window-width="2560"
     inkscape:window-height="1351"
     inkscape:window-x="-9"
     inkscape:window-y="-9"
     inkscape:window-maximized="1"
     inkscape:current-layer="Layer_1" /><g
     id="g1"
     transform="matrix(4.1666667,0,0,4.1666667,-1.47e-5,-1.83e-5)">
		<path
   class="st0"
   d="M 0,0 V 1098 H 882 V 0 Z"
   id="path1"
   sodipodi:nodetypes="ccccc" />
	</g><polygon
     class="st19"
     points="227.3,71.7 232.3,9 649.7,9 654.7,71.7 654.7,71.7 656.1,225.5 741.1,140.7 805.2,140.7 804.9,225.5 810.2,229.1 873,229.1 873,868.9 810.2,868.9 805.2,872.5 805.2,957.3 741.1,957.3 656.1,872.5 654.7,1026.3 654.7,1026.3 649.7,1089 232.3,1089 227.3,1026.3 227.3,1026.3 225.9,872.5 140.9,957.3 76.8,957.3 76.8,872.5 71.8,868.9 9,868.9 9,229.1 71.8,229.1 76.8,225.5 76.8,140.7 140.9,140.7 225.9,225.5 227.3,71.7 "
     id="clipping"
     transform="matrix(4.1666667,0,0,4.1666667,-1.47e-5,-1.83e-5)"
     style="fill:#787878;fill-opacity:1;stroke:none" /><rect
     x="941.24994"
     y="937.5"
     class="st11"
     width="1792.5001"
     height="2700"
     id="actualSize"
     style="stroke-width:4.16667;stroke:none;fill:#b0b0b0;fill-opacity:1" /><g
     id="g142"
     transform="matrix(4.1666667,0,0,4.1666667,-1.47e-5,-1.83e-5)">
		<g
   id="g141">
			<polyline
   class="st12"
   points="240.9,864 234.9,864 234.9,858    "
   id="polyline138" />
			<line
   class="st13"
   x1="234.89999"
   y1="845.90002"
   x2="234.89999"
   y2="246.10001"
   id="line138" />
			<polyline
   class="st12"
   points="234.9,240 234.9,234 240.9,234    "
   id="polyline139" />
			<line
   class="st14"
   x1="253"
   y1="234"
   x2="635"
   y2="234"
   id="line139" />
			<polyline
   class="st12"
   points="641.1,234 647.1,234 647.1,240    "
   id="polyline140" />
			<line
   class="st13"
   x1="647.09998"
   y1="252.10001"
   x2="647.09998"
   y2="851.90002"
   id="line140" />
			<polyline
   class="st12"
   points="647.1,858 647.1,864 641.1,864    "
   id="polyline141" />
			<line
   class="st14"
   x1="629"
   y1="864"
   x2="247"
   y2="864"
   id="line141" />
		</g>
	</g><rect
     x="2733.75"
     y="937.5"
     class="st11"
     width="620"
     height="2700"
     id="rect142"
     style="stroke-width:4.16667" /><g
     id="g146"
     transform="matrix(4.1666667,0,0,4.1666667,-1.47e-5,-1.83e-5)">
		<g
   id="g145">
			<polyline
   class="st12"
   points="671.1,864 665.1,864 665.1,858    "
   id="polyline142" />
			<line
   class="st13"
   x1="665.09998"
   y1="845.90002"
   x2="665.09998"
   y2="246.10001"
   id="line142" />
			<polyline
   class="st12"
   points="665.1,240 665.1,234 671.1,234    "
   id="polyline143" />
			<line
   class="st15"
   x1="684.29999"
   y1="234"
   x2="783.29999"
   y2="234"
   id="line143" />
			<polyline
   class="st12"
   points="789.9,234 795.9,234 795.9,240    "
   id="polyline144" />
			<line
   class="st13"
   x1="795.90002"
   y1="252.10001"
   x2="795.90002"
   y2="851.90002"
   id="line144" />
			<polyline
   class="st12"
   points="795.9,858 795.9,864 789.9,864    "
   id="polyline145" />
			<line
   class="st15"
   x1="776.70001"
   y1="864"
   x2="677.70001"
   y2="864"
   id="line145" />
		</g>
	</g><rect
     x="321.24997"
     y="937.5"
     class="st11"
     width="620"
     height="2700"
     id="rect146"
     style="stroke-width:4.16667" /><g
     id="g150"
     transform="matrix(4.1666667,0,0,4.1666667,-1.47e-5,-1.83e-5)">
		<g
   id="g149">
			<polyline
   class="st12"
   points="92.1,864 86.1,864 86.1,858    "
   id="polyline146" />
			<line
   class="st13"
   x1="86.099998"
   y1="845.90002"
   x2="86.099998"
   y2="246.10001"
   id="line146" />
			<polyline
   class="st12"
   points="86.1,240 86.1,234 92.1,234    "
   id="polyline147" />
			<line
   class="st15"
   x1="105.3"
   y1="234"
   x2="204.3"
   y2="234"
   id="line147" />
			<polyline
   class="st12"
   points="210.9,234 216.9,234 216.9,240    "
   id="polyline148" />
			<line
   class="st13"
   x1="216.89999"
   y1="252.10001"
   x2="216.89999"
   y2="851.90002"
   id="line148" />
			<polyline
   class="st12"
   points="216.9,858 216.9,864 210.9,864    "
   id="polyline149" />
			<line
   class="st15"
   x1="197.7"
   y1="864"
   x2="98.699997"
   y2="864"
   id="line149" />
		</g>
	</g><polygon
     class="st11"
     points="656.1,225 225.9,225 227.2,76.2 654.7,76.2 "
     id="polygon150"
     transform="matrix(4.1666667,0,0,4.1666667,-1.47e-5,-1.83e-5)" /><g
     id="g154"
     transform="matrix(4.1666667,0,0,4.1666667,-1.47e-5,-1.83e-5)">
		<g
   id="g153">
			<polyline
   class="st12"
   points="241,216 235,216 235,210    "
   id="polyline150" />
			<line
   class="st16"
   x1="235.2"
   y1="196.8"
   x2="236.10001"
   y2="97.800003"
   id="line150" />
			<polyline
   class="st12"
   points="236.1,91.2 236.2,85.2 242.2,85.2    "
   id="polyline151" />
			<line
   class="st17"
   x1="254.2"
   y1="85.199997"
   x2="633.79999"
   y2="85.199997"
   id="line151" />
			<polyline
   class="st12"
   points="639.8,85.2 645.8,85.2 645.9,91.2    "
   id="polyline152" />
			<line
   class="st16"
   x1="646"
   y1="104.4"
   x2="646.90002"
   y2="203.39999"
   id="line152" />
			<polyline
   class="st12"
   points="647,210 647,216 641,216    "
   id="polyline153" />
			<line
   class="st18"
   x1="628.90002"
   y1="216"
   x2="247"
   y2="216"
   id="line153" />
		</g>
	</g><polygon
     class="st11"
     points="225.9,873 656.1,873 654.8,1021.8 227.3,1021.8 "
     id="polygon154"
     transform="matrix(4.1666667,0,0,4.1666667,-1.47e-5,-1.83e-5)" /><g
     id="g158"
     transform="matrix(4.1666667,0,0,4.1666667,-1.47e-5,-1.83e-5)">
		<g
   id="g157">
			<polyline
   class="st12"
   points="242.2,1012.8 236.2,1012.8 236.1,1006.8    "
   id="polyline154" />
			<line
   class="st16"
   x1="236"
   y1="993.59998"
   x2="235.10001"
   y2="894.59998"
   id="line154" />
			<polyline
   class="st12"
   points="235,888 235,882 241,882    "
   id="polyline155" />
			<line
   class="st18"
   x1="253.10001"
   y1="882"
   x2="635"
   y2="882"
   id="line155" />
			<polyline
   class="st12"
   points="641,882 647,882 647,888    "
   id="polyline156" />
			<line
   class="st16"
   x1="646.79999"
   y1="901.20001"
   x2="646"
   y2="1000.2"
   id="line156" />
			<polyline
   class="st12"
   points="645.9,1006.8 645.8,1012.8 639.8,1012.8    "
   id="polyline157" />
			<line
   class="st17"
   x1="627.79999"
   y1="1012.8"
   x2="248.2"
   y2="1012.8"
   id="line157" />
		</g>
	</g></svg>
