<?xml version="1.0" encoding="UTF-8" standalone="no"?>
<svg
     version="1.1"
     x="0px"
     y="0px"
     width="300"
     height="750"
     viewBox="0 0 300 750"
     enable-background="new 0 0 72 180"
     xml:space="preserve"
     id="svg13"
     sodipodi:docname="MediumStandee.svg"
     inkscape:version="1.4 (e7c3feb1, 2024-10-09)"
     xmlns:inkscape="http://www.inkscape.org/namespaces/inkscape"
     xmlns:sodipodi="http://sodipodi.sourceforge.net/DTD/sodipodi-0.dtd"
     xmlns="http://www.w3.org/2000/svg"
     xmlns:svg="http://www.w3.org/2000/svg"><defs
         id="defs13">



	
	
	
	

	
	
	
	
	
	
	
	
	
	
	
	
	
	
	
	
	
	
	
	
	
		
	
	
	
</defs><sodipodi:namedview
         id="namedview13"
         pagecolor="#505050"
         bordercolor="#eeeeee"
         borderopacity="1"
         inkscape:showpageshadow="0"
         inkscape:pageopacity="0"
         inkscape:pagecheckerboard="0"
         inkscape:deskcolor="#d1d1d1"
         inkscape:zoom="0.84852814"
         inkscape:cx="-32.409061"
         inkscape:cy="589.25565"
         inkscape:window-width="1872"
         inkscape:window-height="1027"
         inkscape:window-x="62"
         inkscape:window-y="25"
         inkscape:window-maximized="1"
         inkscape:current-layer="svg13" /><polygon
         fill="#929497"
         points="0,0 0,180 72,180 72,0 "
         id="polygon1"
         transform="matrix(4.1666669,0,0,4.1666669,-7.025862e-6,-1.7564655e-5)"
         style="fill:#171818;fill-opacity:1" /><path
         id="clipping"
         style="stroke:none;fill:#6c6c6c;fill-opacity:1"
         d="M 149.875 29.808594 C 87.79583 29.871094 37.5 79.841536 37.5 141.4707 L 37.5 532.3125 L 140.125 532.3125 L 140.125 476.0625 L 159.625 476.0625 L 159.625 532.3125 L 262.49219 532.3125 L 262.49219 141.47461 C 262.49219 79.841272 212.19245 29.875264 150.11328 29.808594 L 149.875 29.808594 z M 159.625 607.75 L 159.625 663.5625 L 140.125 663.5625 L 140.125 607.76758 C 82.62083 612.77174 37.503906 660.99636 37.503906 719.80469 L 37.503906 719.8125 L 262.49219 719.8125 L 262.49219 719.80469 C 262.49219 660.91719 217.24584 612.63332 159.625 607.75 z " /><path
         fill="none"
         stroke="#2da6de"
         stroke-dasharray="2.22084"
         d="m 149.91667,67.308319 c -41.30834,0.04167 -74.912507,33.312501 -74.912507,74.162501 v 353.34169 h 27.624997 v -18.75 -37.5 h 37.50001 19.5 37.49999 v 37.5 18.75 h 27.86668 V 141.47499 c 0,-40.85001 -33.60833,-74.125004 -74.91667,-74.166671"
         id="path3"
         style="stroke-width:4.16667;fill:#c6c6c6;fill-opacity:1;stroke:none" /></svg>
