<?xml version="1.0" encoding="UTF-8" standalone="no"?>
<svg
   version="1.1"
   id="Layer_1"
   x="0px"
   y="0px"
   viewBox="0 0 3675 4575"
   style="enable-background:new 0 0 882 1098;"
   xml:space="preserve"
   width="3675"
   height="4575"
   sodipodi:docname="MediumStoutBoxTopAndSide.svg"
   inkscape:version="1.3.2 (091e20e, 2023-11-25, custom)"
   xmlns:inkscape="http://www.inkscape.org/namespaces/inkscape"
   xmlns:sodipodi="http://sodipodi.sourceforge.net/DTD/sodipodi-0.dtd"
   xmlns="http://www.w3.org/2000/svg"
   xmlns:svg="http://www.w3.org/2000/svg"><defs
     id="defs167">
<style
   type="text/css"
   id="style1">
	.st0{fill-opacity:1;}
	.st1{fill:#D0D1D2;}
	.st2{fill:#231F20;}
	.st3{font-family:'Arial-BoldMT';}
	.st4{font-size:9.0915px;}
	.st5{fill-rule:evenodd;clip-rule:evenodd;}
	.st6{fill-rule:evenodd;clip-rule:evenodd;fill:#B7D333;}
	.st7{fill-rule:evenodd;clip-rule:evenodd;fill:#FFFFFF;}
	.st8{fill-rule:evenodd;clip-rule:evenodd;fill:#4D494A;}
	.st9{fill:#4D494A;}
	.st10{fill:#FFFFFF;}
	.st11{fill:none;stroke:#00A551;stroke-miterlimit:10;}
	.st12{fill:none;stroke:#00ADEE;stroke-miterlimit:10;}
	.st13{fill:none;stroke:#00ADEE;stroke-miterlimit:10;stroke-dasharray:12.1177,12.1177;}
	.st14{fill:none;stroke:#00ADEE;stroke-miterlimit:10;stroke-dasharray:12.1274,12.1274;}
	.st15{fill:none;stroke:#00ADEE;stroke-miterlimit:10;stroke-dasharray:13.1988,13.1988;}
	.st16{fill:none;stroke:#00ADEE;stroke-miterlimit:10;stroke-dasharray:13.1994,13.1994;}
	.st17{fill:none;stroke:#00ADEE;stroke-miterlimit:10;stroke-dasharray:12.05,12.05;}
	.st18{fill:none;stroke:#00ADEE;stroke-miterlimit:10;stroke-dasharray:12.1224,12.1224;}
	.st19{fill:none;stroke:#EC1E28;}
	.st20{font-family:'Arial-Black';}
	.st21{font-size:11.4736px;}
	.st22{fill:#2BA6DE;}
	.st23{font-size:9.5613px;}
	.st24{fill:#EC1E28;}
	.st25{fill:#929497;}
	.st26{fill:none;stroke:#2BA6DE;}
	.st27{fill:none;stroke:#2BA6DE;stroke-dasharray:11.7014,8.776;}
	.st28{fill:none;stroke:#929497;}
</style>


	
	
	
	
	
	
	
	
	
	
	
	
	
	

		
	
		
	
		
	
		
	
		
	
		
	
			
			
			
			
			
			
			
			
		
			
			
			
			
			
			
			
			
		
			
			
			
			
			
			
			
			
		
			
			
			
			
			
			
			
			
		
			
			
			
			
			
			
			
			
		</defs><sodipodi:namedview
     id="namedview167"
     pagecolor="#505050"
     bordercolor="#eeeeee"
     borderopacity="1"
     inkscape:showpageshadow="0"
     inkscape:pageopacity="0"
     inkscape:pagecheckerboard="0"
     inkscape:deskcolor="#d1d1d1"
     inkscape:zoom="0.13910297"
     inkscape:cx="1976.9528"
     inkscape:cy="2189.0259"
     inkscape:window-width="1920"
     inkscape:window-height="1009"
     inkscape:window-x="-8"
     inkscape:window-y="-8"
     inkscape:window-maximized="1"
     inkscape:current-layer="Layer_1" /><path
     class="st0"
     d="M -1.47e-5,-1.83e-5 V 4575 H 3675 V -1.83e-5 Z"
     id="path1"
     sodipodi:nodetypes="ccccc"
     style="stroke-width:4.16667" /><path
     id="clipping"
     style="fill:#787878;stroke:#ec1e28;stroke-width:4.16667"
     class="st19"
     d="M 947.08333,298.74997 967.91663,37.499965 H 2707.0833 l 20.8333,261.250005 v 0 l 5.8334,640.83334 354.1666,-353.33334 H 3355 l -1.25,353.33334 22.0833,15 H 3637.5 V 3620.4166 h -261.6667 l -20.8333,15 V 3988.75 H 3087.9166 L 2733.75,3635.4166 2727.9166,4276.25 v 0 l -20.8333,261.25 H 967.91663 l -20.8333,-261.25 v 0 l -5.8334,-640.8334 -354.1666,353.3334 h -267.0834 v -353.3334 l -20.8333,-15 H 37.49997 V 954.58331 h 261.66666 l 20.8333,-15 V 586.24997 h 267.0834 l 354.1666,353.33334 z" /><rect
     x="941.24994"
     y="937.5"
     class="st11"
     width="1792.5001"
     height="2700"
     id="actualSize"
     style="stroke-width:4.16667;stroke:none;fill:#adadad;fill-opacity:1" /><polyline
     class="st12"
     points="240.9,864 234.9,864 234.9,858    "
     id="polyline138"
     transform="matrix(4.1666667,0,0,4.1666667,-1.47e-5,-1.83e-5)" /><line
     class="st13"
     x1="978.74994"
     y1="3524.5835"
     x2="978.74994"
     y2="1025.4166"
     id="line138"
     style="stroke-width:4.16667" /><polyline
     class="st12"
     points="234.9,240 234.9,234 240.9,234    "
     id="polyline139"
     transform="matrix(4.1666667,0,0,4.1666667,-1.47e-5,-1.83e-5)" /><line
     class="st14"
     x1="1054.1666"
     y1="975"
     x2="2645.8333"
     y2="975"
     id="line139"
     style="stroke-width:4.16667" /><polyline
     class="st12"
     points="641.1,234 647.1,234 647.1,240    "
     id="polyline140"
     transform="matrix(4.1666667,0,0,4.1666667,-1.47e-5,-1.83e-5)" /><line
     class="st13"
     x1="2696.25"
     y1="1050.4166"
     x2="2696.25"
     y2="3549.5835"
     id="line140"
     style="stroke-width:4.16667" /><polyline
     class="st12"
     points="647.1,858 647.1,864 641.1,864    "
     id="polyline141"
     transform="matrix(4.1666667,0,0,4.1666667,-1.47e-5,-1.83e-5)" /><line
     class="st14"
     x1="2620.8333"
     y1="3600"
     x2="1029.1666"
     y2="3600"
     id="line141"
     style="stroke-width:4.16667" /><rect
     x="2733.75"
     y="937.5"
     class="st11"
     width="620"
     height="2700"
     id="rect142"
     style="stroke-width:4.16667" /><polyline
     class="st12"
     points="671.1,864 665.1,864 665.1,858    "
     id="polyline142"
     transform="matrix(4.1666667,0,0,4.1666667,-1.47e-5,-1.83e-5)" /><line
     class="st13"
     x1="2771.25"
     y1="3524.5835"
     x2="2771.25"
     y2="1025.4166"
     id="line142"
     style="stroke-width:4.16667" /><polyline
     class="st12"
     points="665.1,240 665.1,234 671.1,234    "
     id="polyline143"
     transform="matrix(4.1666667,0,0,4.1666667,-1.47e-5,-1.83e-5)" /><line
     class="st15"
     x1="2851.25"
     y1="975"
     x2="3263.75"
     y2="975"
     id="line143"
     style="stroke-width:4.16667" /><polyline
     class="st12"
     points="789.9,234 795.9,234 795.9,240    "
     id="polyline144"
     transform="matrix(4.1666667,0,0,4.1666667,-1.47e-5,-1.83e-5)" /><line
     class="st13"
     x1="3316.25"
     y1="1050.4166"
     x2="3316.25"
     y2="3549.5835"
     id="line144"
     style="stroke-width:4.16667" /><polyline
     class="st12"
     points="795.9,858 795.9,864 789.9,864    "
     id="polyline145"
     transform="matrix(4.1666667,0,0,4.1666667,-1.47e-5,-1.83e-5)" /><line
     class="st15"
     x1="3236.25"
     y1="3600"
     x2="2823.75"
     y2="3600"
     id="line145"
     style="stroke-width:4.16667" /><rect
     x="321.24997"
     y="937.5"
     class="st11"
     width="620"
     height="2700"
     id="rect146"
     style="stroke-width:4.16667" /><polyline
     class="st12"
     points="92.1,864 86.1,864 86.1,858    "
     id="polyline146"
     transform="matrix(4.1666667,0,0,4.1666667,-1.47e-5,-1.83e-5)" /><line
     class="st13"
     x1="358.74997"
     y1="3524.5835"
     x2="358.74997"
     y2="1025.4166"
     id="line146"
     style="stroke-width:4.16667" /><polyline
     class="st12"
     points="86.1,240 86.1,234 92.1,234    "
     id="polyline147"
     transform="matrix(4.1666667,0,0,4.1666667,-1.47e-5,-1.83e-5)" /><line
     class="st15"
     x1="438.75"
     y1="975"
     x2="851.25"
     y2="975"
     id="line147"
     style="stroke-width:4.16667" /><polyline
     class="st12"
     points="210.9,234 216.9,234 216.9,240    "
     id="polyline148"
     transform="matrix(4.1666667,0,0,4.1666667,-1.47e-5,-1.83e-5)" /><line
     class="st13"
     x1="903.74994"
     y1="1050.4166"
     x2="903.74994"
     y2="3549.5835"
     id="line148"
     style="stroke-width:4.16667" /><polyline
     class="st12"
     points="216.9,858 216.9,864 210.9,864    "
     id="polyline149"
     transform="matrix(4.1666667,0,0,4.1666667,-1.47e-5,-1.83e-5)" /><line
     class="st15"
     x1="823.75"
     y1="3600"
     x2="411.24997"
     y2="3600"
     id="line149"
     style="stroke-width:4.16667" /><polygon
     class="st11"
     points="656.1,225 225.9,225 227.2,76.2 654.7,76.2 "
     id="polygon150"
     transform="matrix(4.1666667,0,0,4.1666667,-1.47e-5,-1.83e-5)" /><polyline
     class="st12"
     points="241,216 235,216 235,210    "
     id="polyline150"
     transform="matrix(4.1666667,0,0,4.1666667,-1.47e-5,-1.83e-5)" /><line
     class="st16"
     x1="980"
     y1="820"
     x2="983.75"
     y2="407.5"
     id="line150"
     style="stroke-width:4.16667" /><polyline
     class="st12"
     points="236.1,91.2 236.2,85.2 242.2,85.2    "
     id="polyline151"
     transform="matrix(4.1666667,0,0,4.1666667,-1.47e-5,-1.83e-5)" /><line
     class="st17"
     x1="1059.1666"
     y1="354.99997"
     x2="2640.8333"
     y2="354.99997"
     id="line151"
     style="stroke-width:4.16667" /><polyline
     class="st12"
     points="639.8,85.2 645.8,85.2 645.9,91.2    "
     id="polyline152"
     transform="matrix(4.1666667,0,0,4.1666667,-1.47e-5,-1.83e-5)" /><line
     class="st16"
     x1="2691.6667"
     y1="435"
     x2="2695.4167"
     y2="847.49994"
     id="line152"
     style="stroke-width:4.16667" /><polyline
     class="st12"
     points="647,210 647,216 641,216    "
     id="polyline153"
     transform="matrix(4.1666667,0,0,4.1666667,-1.47e-5,-1.83e-5)" /><line
     class="st18"
     x1="2620.4167"
     y1="900"
     x2="1029.1666"
     y2="900"
     id="line153"
     style="stroke-width:4.16667" /><polygon
     class="st11"
     points="225.9,873 656.1,873 654.8,1021.8 227.3,1021.8 "
     id="polygon154"
     transform="matrix(4.1666667,0,0,4.1666667,-1.47e-5,-1.83e-5)" /><polyline
     class="st12"
     points="242.2,1012.8 236.2,1012.8 236.1,1006.8    "
     id="polyline154"
     transform="matrix(4.1666667,0,0,4.1666667,-1.47e-5,-1.83e-5)" /><line
     class="st16"
     x1="983.33331"
     y1="4140"
     x2="979.58337"
     y2="3727.5"
     id="line154"
     style="stroke-width:4.16667" /><polyline
     class="st12"
     points="235,888 235,882 241,882    "
     id="polyline155"
     transform="matrix(4.1666667,0,0,4.1666667,-1.47e-5,-1.83e-5)" /><line
     class="st18"
     x1="1054.5834"
     y1="3675"
     x2="2645.8333"
     y2="3675"
     id="line155"
     style="stroke-width:4.16667" /><polyline
     class="st12"
     points="641,882 647,882 647,888    "
     id="polyline156"
     transform="matrix(4.1666667,0,0,4.1666667,-1.47e-5,-1.83e-5)" /><line
     class="st16"
     x1="2695"
     y1="3755"
     x2="2691.6667"
     y2="4167.5"
     id="line156"
     style="stroke-width:4.16667" /><polyline
     class="st12"
     points="645.9,1006.8 645.8,1012.8 639.8,1012.8    "
     id="polyline157"
     transform="matrix(4.1666667,0,0,4.1666667,-1.47e-5,-1.83e-5)" /><line
     class="st17"
     x1="2615.8333"
     y1="4220"
     x2="1034.1666"
     y2="4220"
     id="line157"
     style="stroke-width:4.16667" /></svg>
