<?xml version="1.0" encoding="UTF-8" standalone="no"?>
<svg
   version="1.1"
   x="0px"
   y="0px"
   width="90px"
   height="90px"
   viewBox="0 0 90px 90px"
   enable-background="new 0 0 90 90"
   xml:space="preserve"
   id="svg185"
   sodipodi:docname="MediumRingChit.svg"
   inkscape:version="1.3.2 (091e20e, 2023-11-25, custom)"
   xmlns:inkscape="http://www.inkscape.org/namespaces/inkscape"
   xmlns:sodipodi="http://sodipodi.sourceforge.net/DTD/sodipodi-0.dtd"
   xmlns="http://www.w3.org/2000/svg"
   xmlns:svg="http://www.w3.org/2000/svg"><defs
   id="defs185">
	
	
</defs><sodipodi:namedview
   id="namedview185"
   pagecolor="#ffffff"
   bordercolor="#000000"
   borderopacity="0.25"
   inkscape:showpageshadow="2"
   inkscape:pageopacity="0.0"
   inkscape:pagecheckerboard="0"
   inkscape:deskcolor="#d1d1d1"
   inkscape:zoom="12.633333"
   inkscape:cx="44.960422"
   inkscape:cy="45"
   inkscape:window-width="2560"
   inkscape:window-height="1351"
   inkscape:window-x="-9"
   inkscape:window-y="-9"
   inkscape:window-maximized="1"
   inkscape:current-layer="svg185" />
<polygon
   fill="#757a7a"
   points="0,90 90,90 90,0 0,0 "
   id="polygon1"
   style="fill:#141414;fill-opacity:1" /><path
   fill="#ffffff"
   stroke="#c92027"
   d="M 81,45 C 81,25.117 64.883,9 45,9 25.118,9 9,25.117 9,45 9,64.883 25.118,81 45,81 64.882,81 81,64.883 81,45 Z M 18,45 C 18,30.088 30.088,18 45,18 59.912,18 72,30.088 72,45 72,59.912 59.912,72 45,72 30.088,72 18,59.912 18,45 Z"
   id="clipping"
   style="stroke:none;fill:#6f6f6f;fill-opacity:1" />

</svg>
