<?xml version="1.0" encoding="UTF-8" standalone="no"?>
<!-- Created with Inkscape (http://www.inkscape.org/) -->

<svg
   width="3825"
   height="1125"
   viewBox="0 0 3825 1125"
   version="1.1"
   id="svg5"
   xml:space="preserve"
   inkscape:version="1.3.2 (091e20e, 2023-11-25, custom)"
   sodipodi:docname="MintTinAccordion6.svg"
   xmlns:inkscape="http://www.inkscape.org/namespaces/inkscape"
   xmlns:sodipodi="http://sodipodi.sourceforge.net/DTD/sodipodi-0.dtd"
   xmlns="http://www.w3.org/2000/svg"
   xmlns:svg="http://www.w3.org/2000/svg"><sodipodi:namedview
     id="namedview7"
     pagecolor="#ffffff"
     bordercolor="#999999"
     borderopacity="1"
     inkscape:showpageshadow="0"
     inkscape:pageopacity="0"
     inkscape:pagecheckerboard="0"
     inkscape:deskcolor="#d1d1d1"
     inkscape:document-units="mm"
     showgrid="false"
     inkscape:zoom="0.16173406"
     inkscape:cx="1891.9948"
     inkscape:cy="336.97293"
     inkscape:window-width="1920"
     inkscape:window-height="1009"
     inkscape:window-x="-8"
     inkscape:window-y="-8"
     inkscape:window-maximized="1"
     inkscape:current-layer="layer1" /><defs
     id="defs2" /><g
     inkscape:label="Layer 1"
     inkscape:groupmode="layer"
     id="layer1"><rect
       style="fill:#171017;fill-opacity:1;stroke-width:5.86988;paint-order:markers fill stroke"
       id="rect908"
       width="3825"
       height="1125"
       x="7.4218747e-07"
       y="2.890625e-05" /><path
       id="clipping"
       style="color:#000000;solid-color:#000000;fill:#747474;fill-opacity:1;stroke-width:232.089;stroke-linejoin:round;-inkscape-stroke:none;paint-order:markers fill stroke"
       d="M 188.71094,46.3125 A 119.32735,112.87417 0 0 0 69.39648,159.1758 v 806.6484 a 119.32735,112.87417 0 0 0 119.31446,112.8633 h 377.24215 a 119.32735,112.87417 0 0 0 118.4121,-106.3848 119.32735,112.87417 0 0 0 118.4122,106.3848 h 377.24211 a 119.32735,112.87417 0 0 0 118.4141,-106.3887 119.32735,112.87417 0 0 0 118.4121,106.3887 h 377.2422 A 119.32735,112.87417 0 0 0 1912.5,972.3027 a 119.32735,112.87417 0 0 0 118.4121,106.3848 h 377.2422 a 119.32735,112.87417 0 0 0 118.4121,-106.3887 119.32735,112.87417 0 0 0 118.4141,106.3887 h 377.2422 a 119.32735,112.87417 0 0 0 118.4121,-106.3848 119.32735,112.87417 0 0 0 118.4121,106.3848 h 377.2422 A 119.32735,112.87417 0 0 0 3755.6035,965.8242 V 159.1758 A 119.32735,112.87417 0 0 0 3636.2891,46.3125 H 3259.0469 A 119.32735,112.87417 0 0 0 3140.6348,152.6973 119.32735,112.87417 0 0 0 3022.2227,46.3125 H 2644.9805 A 119.32735,112.87417 0 0 0 2526.5664,152.7012 119.32735,112.87417 0 0 0 2408.1543,46.3125 H 2030.9121 A 119.32735,112.87417 0 0 0 1912.5,152.6973 119.32735,112.87417 0 0 0 1794.0879,46.3125 H 1416.8457 A 119.32735,112.87417 0 0 0 1298.4336,152.7012 119.32735,112.87417 0 0 0 1180.0195,46.3125 H 802.77739 A 119.32735,112.87417 0 0 0 684.36519,152.6973 119.32735,112.87417 0 0 0 565.95309,46.3125 Z" /><path
       id="path9"
       style="color:#000000;solid-color:#000000;fill:#747474;fill-opacity:1;stroke-width:232.089;stroke-linejoin:round;-inkscape-stroke:none;paint-order:markers fill stroke"
       d="M 188.71038,46.312 A 119.32735,112.87417 0 0 0 69.39632,159.1756 v 806.649 A 119.32735,112.87417 0 0 0 188.71038,1078.688 H 565.95329 A 119.32735,112.87417 0 0 0 685.26769,965.8246 V 159.1756 A 119.32735,112.87417 0 0 0 565.95329,46.312 Z" /><path
       id="path10"
       style="color:#000000;solid-color:#000000;fill:#747474;fill-opacity:1;stroke-width:232.089;stroke-linejoin:round;-inkscape-stroke:none;paint-order:markers fill stroke"
       d="m 802.77779,46.312 a 119.32735,112.87417 0 0 0 -119.3143,112.8636 v 806.649 a 119.32735,112.87417 0 0 0 119.3143,112.8634 H 1180.0205 A 119.32735,112.87417 0 0 0 1299.3349,965.8246 V 159.1756 A 119.32735,112.87417 0 0 0 1180.0205,46.312 Z" /><path
       id="path11"
       style="color:#000000;solid-color:#000000;fill:#747474;fill-opacity:1;stroke-width:232.089;stroke-linejoin:round;-inkscape-stroke:none;paint-order:markers fill stroke"
       d="m 1416.8451,46.312 a 119.32735,112.87417 0 0 0 -119.3144,112.8636 v 806.649 a 119.32735,112.87417 0 0 0 119.3144,112.8634 h 377.2427 A 119.32735,112.87417 0 0 0 1913.4021,965.8246 V 159.1756 A 119.32735,112.87417 0 0 0 1794.0878,46.312 Z" /><path
       id="path12"
       style="color:#000000;solid-color:#000000;fill:#747474;fill-opacity:1;stroke-width:232.089;stroke-linejoin:round;-inkscape-stroke:none;paint-order:markers fill stroke"
       d="M 2030.9124,46.312 A 119.32735,112.87417 0 0 0 1911.598,159.1756 v 806.649 a 119.32735,112.87417 0 0 0 119.3144,112.8634 h 377.2427 A 119.32735,112.87417 0 0 0 2527.4694,965.8246 V 159.1756 A 119.32735,112.87417 0 0 0 2408.1551,46.312 Z" /><path
       id="path13"
       style="color:#000000;solid-color:#000000;fill:#747474;fill-opacity:1;stroke-width:232.089;stroke-linejoin:round;-inkscape-stroke:none;paint-order:markers fill stroke"
       d="m 2644.9796,46.312 a 119.32735,112.87417 0 0 0 -119.3144,112.8636 v 806.649 a 119.32735,112.87417 0 0 0 119.3144,112.8634 h 377.2427 A 119.32735,112.87417 0 0 0 3141.5366,965.8246 V 159.1756 A 119.32735,112.87417 0 0 0 3022.2223,46.312 Z" /><path
       id="path14"
       style="color:#000000;solid-color:#000000;fill:#747474;fill-opacity:1;stroke-width:232.089;stroke-linejoin:round;-inkscape-stroke:none;paint-order:markers fill stroke"
       d="m 3259.0468,46.312 a 119.32735,112.87417 0 0 0 -119.3144,112.8636 v 806.649 a 119.32735,112.87417 0 0 0 119.3144,112.8634 h 377.2427 A 119.32735,112.87417 0 0 0 3755.6038,965.8246 V 159.1756 A 119.32735,112.87417 0 0 0 3636.2895,46.312 Z" /><path
       id="path978"
       style="color:#000000;solid-color:#000000;fill:#c1c1c1;fill-opacity:1;stroke-width:207.6;stroke-linejoin:round;-inkscape-stroke:none;paint-order:markers fill stroke"
       d="M 213.23818,87.7618 A 103.81038,103.81038 0 0 0 109.43935,191.5626 v 741.875 a 103.81038,103.81038 0 0 0 103.79883,103.8006 H 541.42569 A 103.81038,103.81038 0 0 0 645.22459,933.4376 V 191.5626 A 103.81038,103.81038 0 0 0 541.42569,87.7618 Z" /><path
       id="path978-0"
       style="color:#000000;solid-color:#000000;fill:#c1c1c1;fill-opacity:1;stroke-width:207.6;stroke-linejoin:round;-inkscape-stroke:none;paint-order:markers fill stroke"
       d="m 827.30539,87.7618 a 103.81038,103.81038 0 0 0 -103.7988,103.8008 v 741.875 a 103.81038,103.81038 0 0 0 103.7988,103.8006 H 1155.4929 A 103.81038,103.81038 0 0 0 1259.2918,933.4376 V 191.5626 A 103.81038,103.81038 0 0 0 1155.4929,87.7618 Z" /><path
       id="path978-8"
       style="color:#000000;solid-color:#000000;fill:#c1c1c1;fill-opacity:1;stroke-width:207.6;stroke-linejoin:round;-inkscape-stroke:none;paint-order:markers fill stroke"
       d="m 1441.3727,87.7618 a 103.81038,103.81038 0 0 0 -103.7989,103.8008 v 741.875 a 103.81038,103.81038 0 0 0 103.7989,103.8006 h 328.1875 A 103.81038,103.81038 0 0 0 1873.359,933.4376 V 191.5626 A 103.81038,103.81038 0 0 0 1769.5602,87.7618 Z" /><path
       id="path978-1"
       style="color:#000000;solid-color:#000000;fill:#c1c1c1;fill-opacity:1;stroke-width:207.6;stroke-linejoin:round;-inkscape-stroke:none;paint-order:markers fill stroke"
       d="m 2055.44,87.7618 a 103.81038,103.81038 0 0 0 -103.7989,103.8008 v 741.875 a 103.81038,103.81038 0 0 0 103.7989,103.8006 h 328.1875 A 103.81038,103.81038 0 0 0 2487.4263,933.4376 V 191.5626 A 103.81038,103.81038 0 0 0 2383.6275,87.7618 Z" /><path
       id="path978-05"
       style="color:#000000;solid-color:#000000;fill:#c1c1c1;fill-opacity:1;stroke-width:207.6;stroke-linejoin:round;-inkscape-stroke:none;paint-order:markers fill stroke"
       d="m 2669.5072,87.7618 a 103.81038,103.81038 0 0 0 -103.7989,103.8008 v 741.875 a 103.81038,103.81038 0 0 0 103.7989,103.8006 h 328.1875 A 103.81038,103.81038 0 0 0 3101.4935,933.4376 V 191.5626 A 103.81038,103.81038 0 0 0 2997.6947,87.7618 Z" /><path
       id="path978-2"
       style="color:#000000;solid-color:#000000;fill:#c1c1c1;fill-opacity:1;stroke-width:207.6;stroke-linejoin:round;-inkscape-stroke:none;paint-order:markers fill stroke"
       d="m 3283.5744,87.7618 a 103.81038,103.81038 0 0 0 -103.7989,103.8008 v 741.875 a 103.81038,103.81038 0 0 0 103.7989,103.8006 h 328.1875 A 103.81038,103.81038 0 0 0 3715.5607,933.4376 V 191.5626 A 103.81038,103.81038 0 0 0 3611.7619,87.7618 Z" /><rect
       style="fill:#c1c1c1;fill-opacity:1;stroke-width:8.20719;stroke-linecap:round;stroke-linejoin:round;paint-order:markers fill stroke"
       id="rect20"
       width="2768.4336"
       height="680.12885"
       x="528.2832"
       y="222.43558" /></g></svg>
