<?xml version="1.0" encoding="UTF-8" standalone="no"?>
<!-- Created with Inkscape (http://www.inkscape.org/) -->

<svg
   width="5025"
   height="1125"
   viewBox="0 0 5025 1125"
   version="1.1"
   id="svg5"
   xml:space="preserve"
   inkscape:version="1.3.2 (091e20e, 2023-11-25, custom)"
   sodipodi:docname="MintTinAccordion8.svg"
   xmlns:inkscape="http://www.inkscape.org/namespaces/inkscape"
   xmlns:sodipodi="http://sodipodi.sourceforge.net/DTD/sodipodi-0.dtd"
   xmlns="http://www.w3.org/2000/svg"
   xmlns:svg="http://www.w3.org/2000/svg"><sodipodi:namedview
     id="namedview7"
     pagecolor="#ffffff"
     bordercolor="#999999"
     borderopacity="1"
     inkscape:showpageshadow="0"
     inkscape:pageopacity="0"
     inkscape:pagecheckerboard="0"
     inkscape:deskcolor="#d1d1d1"
     inkscape:document-units="mm"
     showgrid="false"
     inkscape:zoom="0.16173406"
     inkscape:cx="2837.9922"
     inkscape:cy="231.86211"
     inkscape:window-width="1872"
     inkscape:window-height="1027"
     inkscape:window-x="32"
     inkscape:window-y="0"
     inkscape:window-maximized="0"
     inkscape:current-layer="layer1"
     showguides="true" /><defs
     id="defs2" /><g
     inkscape:label="Layer 1"
     inkscape:groupmode="layer"
     id="layer1"><path
       id="clipping"
       style="color:#000000;solid-color:#000000;fill:#000000;fill-opacity:0;stroke:none;stroke-width:10.5827;stroke-linejoin:round;stroke-dasharray:none;stroke-opacity:1;paint-order:markers fill stroke"
       d="M 175.13672,48.763672 A 119.09811,112.33798 0 0 0 56.052734,161.0918 V 963.9082 A 119.09811,112.33798 0 0 0 175.13672,1076.2363 H 551.65625 A 119.09811,112.33798 0 0 0 670.42969,966.13086 119.0981,112.33798 0 0 0 789.20508,1076.2363 h 376.51762 a 119.0981,112.33798 0 0 0 118.7753,-110.10349 119.09811,112.33797 0 0 0 118.7735,110.10349 h 376.5176 a 119.09811,112.33797 0 0 0 118.7754,-110.10544 119.09811,112.33798 0 0 0 118.7753,110.10544 h 376.5176 a 119.09811,112.33798 0 0 0 118.7735,-110.10349 119.09811,112.33798 0 0 0 118.7753,110.10349 h 376.5176 a 119.09811,112.33798 0 0 0 118.7754,-110.10544 119.09811,112.33798 0 0 0 118.7735,110.10544 h 376.5195 a 119.09811,112.33798 0 0 0 118.7734,-110.10349 119.09811,112.33798 0 0 0 118.7754,110.10349 h 376.5176 A 119.09811,112.33798 0 0 0 4354.834,966.13281 119.09811,112.33798 0 0 0 4473.6074,1076.2363 H 4850.127 A 119.09811,112.33798 0 0 0 4969.2109,963.9082 V 161.0918 A 119.09811,112.33798 0 0 0 4850.127,48.763672 H 4473.6074 A 119.09811,112.33798 0 0 0 4354.834,158.86719 119.09811,112.33798 0 0 0 4236.0586,48.763672 H 3859.541 A 119.09811,112.33798 0 0 0 3740.7656,158.86719 119.09811,112.33798 0 0 0 3621.9922,48.763672 H 3245.4727 A 119.09811,112.33798 0 0 0 3126.6992,158.86914 119.09811,112.33798 0 0 0 3007.9238,48.763672 H 2631.4062 A 119.09811,112.33798 0 0 0 2512.6309,158.86719 119.09811,112.33798 0 0 0 2393.8574,48.763672 H 2017.3398 A 119.09811,112.33798 0 0 0 1898.5645,158.86914 119.09811,112.33797 0 0 0 1779.7891,48.763672 H 1403.2715 A 119.09811,112.33797 0 0 0 1284.498,158.86719 119.0981,112.33798 0 0 0 1165.7227,48.763672 H 789.20508 A 119.0981,112.33798 0 0 0 670.42969,158.86914 119.09811,112.33798 0 0 0 551.65625,48.763672 Z" /><rect
       style="fill:#171017;fill-opacity:1;stroke-width:6.72793;paint-order:markers fill stroke"
       id="rect908"
       width="5025"
       height="1125"
       x="0"
       y="0" /><path
       id="path1"
       style="color:#000000;solid-color:#000000;fill:#7e7e7e;fill-opacity:1;stroke:none;stroke-width:10.5827;stroke-linejoin:round;stroke-dasharray:none;stroke-opacity:1;paint-order:markers fill stroke"
       d="M 175.13724,48.763972 A 119.09811,112.33798 0 0 0 56.052369,161.09157 V 963.90859 A 119.09811,112.33798 0 0 0 175.13724,1076.2361 H 551.65556 A 119.09811,112.33798 0 0 0 670.74043,963.90859 V 161.09157 A 119.09811,112.33798 0 0 0 551.65556,48.763972 Z" /><path
       id="path2"
       style="color:#000000;solid-color:#000000;fill:#7e7e7e;fill-opacity:1;stroke:none;stroke-width:10.5827;stroke-linejoin:round;stroke-dasharray:none;stroke-opacity:1;paint-order:markers fill stroke"
       d="M 789.20443,48.763972 A 119.0981,112.33798 0 0 0 670.11956,161.09157 v 802.81702 a 119.0981,112.33798 0 0 0 119.08487,112.32751 h 376.51827 a 119.0981,112.33798 0 0 0 119.085,-112.32751 V 161.09157 A 119.0981,112.33798 0 0 0 1165.7227,48.763972 Z" /><path
       id="path3"
       style="color:#000000;solid-color:#000000;fill:#7e7e7e;fill-opacity:1;stroke:none;stroke-width:10.5827;stroke-linejoin:round;stroke-dasharray:none;stroke-opacity:1;paint-order:markers fill stroke"
       d="m 1403.2717,48.76396 a 119.09811,112.33797 0 0 0 -119.085,112.32761 v 802.81702 a 119.09811,112.33797 0 0 0 119.085,112.32751 H 1779.79 A 119.09811,112.33797 0 0 0 1898.8749,963.90859 V 161.09157 A 119.09811,112.33797 0 0 0 1779.79,48.76396 Z" /><path
       id="path4"
       style="color:#000000;solid-color:#000000;fill:#7e7e7e;fill-opacity:1;stroke:none;stroke-width:10.5827;stroke-linejoin:round;stroke-dasharray:none;stroke-opacity:1;paint-order:markers fill stroke"
       d="M 2017.339,48.763951 A 119.09811,112.33798 0 0 0 1898.254,161.09156 v 802.81702 a 119.09811,112.33798 0 0 0 119.085,112.32752 h 376.5183 A 119.09811,112.33798 0 0 0 2512.9422,963.90858 V 161.09156 A 119.09811,112.33798 0 0 0 2393.8573,48.763951 Z" /><path
       id="path5"
       style="color:#000000;solid-color:#000000;fill:#7e7e7e;fill-opacity:1;stroke:none;stroke-width:10.5827;stroke-linejoin:round;stroke-dasharray:none;stroke-opacity:1;paint-order:markers fill stroke"
       d="m 2631.4062,48.763955 a 119.09811,112.33798 0 0 0 -119.085,112.327605 v 802.81702 a 119.09811,112.33798 0 0 0 119.085,112.32752 h 376.5183 A 119.09811,112.33798 0 0 0 3127.0094,963.90858 V 161.09156 A 119.09811,112.33798 0 0 0 3007.9245,48.763955 Z" /><path
       id="path6"
       style="color:#000000;solid-color:#000000;fill:#7e7e7e;fill-opacity:1;stroke:none;stroke-width:10.5827;stroke-linejoin:round;stroke-dasharray:none;stroke-opacity:1;paint-order:markers fill stroke"
       d="m 3245.4734,48.763969 a 119.09811,112.33798 0 0 0 -119.085,112.327601 v 802.81702 a 119.09811,112.33798 0 0 0 119.085,112.32751 h 376.5183 A 119.09811,112.33798 0 0 0 3741.0766,963.90859 V 161.09157 A 119.09811,112.33798 0 0 0 3621.9917,48.763969 Z" /><path
       id="path7"
       style="color:#000000;solid-color:#000000;fill:#7e7e7e;fill-opacity:1;stroke:none;stroke-width:10.5827;stroke-linejoin:round;stroke-dasharray:none;stroke-opacity:1;paint-order:markers fill stroke"
       d="m 3859.5407,48.76397 a 119.09811,112.33798 0 0 0 -119.085,112.32761 V 963.9086 a 119.09811,112.33798 0 0 0 119.085,112.3275 h 376.5182 a 119.09811,112.33798 0 0 0 119.085,-112.3275 V 161.09158 A 119.09811,112.33798 0 0 0 4236.0589,48.76397 Z" /><path
       id="path8"
       style="color:#000000;solid-color:#000000;fill:#7e7e7e;fill-opacity:1;stroke:none;stroke-width:10.5827;stroke-linejoin:round;stroke-dasharray:none;stroke-opacity:1;paint-order:markers fill stroke"
       d="M 4473.6078,48.763998 A 119.09811,112.33798 0 0 0 4354.5229,161.0916 v 802.81702 a 119.09811,112.33798 0 0 0 119.0849,112.32748 h 376.5183 a 119.09811,112.33798 0 0 0 119.085,-112.32748 V 161.0916 A 119.09811,112.33798 0 0 0 4850.1261,48.763998 Z" /><path
       id="path978"
       style="color:#000000;solid-color:#000000;fill:#c1c1c1;fill-opacity:1;stroke-width:207.6;stroke-linejoin:round;-inkscape-stroke:none;paint-order:markers fill stroke"
       d="M 199.30265,87.761786 A 103.81038,103.81038 0 0 0 95.503817,191.56257 v 741.875 A 103.81038,103.81038 0 0 0 199.30265,1037.2382 h 328.1875 A 103.81038,103.81038 0 0 0 631.28898,933.43757 v -741.875 A 103.81038,103.81038 0 0 0 527.49015,87.761786 Z" /><path
       id="path978-0"
       style="color:#000000;solid-color:#000000;fill:#c1c1c1;fill-opacity:1;stroke-width:207.6;stroke-linejoin:round;-inkscape-stroke:none;paint-order:markers fill stroke"
       d="M 813.36984,87.761786 A 103.81038,103.81038 0 0 0 709.57101,191.56257 v 741.875 a 103.81038,103.81038 0 0 0 103.79883,103.80063 h 328.18746 a 103.81038,103.81038 0 0 0 103.7989,-103.80063 v -741.875 A 103.81038,103.81038 0 0 0 1141.5573,87.761786 Z" /><path
       id="path978-8"
       style="color:#000000;solid-color:#000000;fill:#c1c1c1;fill-opacity:1;stroke-width:207.6;stroke-linejoin:round;-inkscape-stroke:none;paint-order:markers fill stroke"
       d="M 1427.4371,87.761774 A 103.81038,103.81038 0 0 0 1323.6382,191.56257 v 741.875 a 103.81038,103.81038 0 0 0 103.7989,103.80063 h 328.1875 a 103.81038,103.81038 0 0 0 103.7988,-103.80063 v -741.875 A 103.81038,103.81038 0 0 0 1755.6246,87.761774 Z" /><path
       id="path978-1"
       style="color:#000000;solid-color:#000000;fill:#c1c1c1;fill-opacity:1;stroke-width:207.6;stroke-linejoin:round;-inkscape-stroke:none;paint-order:markers fill stroke"
       d="M 2041.5044,87.761764 A 103.81038,103.81038 0 0 0 1937.7055,191.56256 v 741.875 a 103.81038,103.81038 0 0 0 103.7989,103.80064 h 328.1875 a 103.81038,103.81038 0 0 0 103.7988,-103.80064 v -741.875 A 103.81038,103.81038 0 0 0 2369.6919,87.761764 Z" /><path
       id="path978-05"
       style="color:#000000;solid-color:#000000;fill:#c1c1c1;fill-opacity:1;stroke-width:207.6;stroke-linejoin:round;-inkscape-stroke:none;paint-order:markers fill stroke"
       d="M 2655.5716,87.761769 A 103.81038,103.81038 0 0 0 2551.7727,191.56256 v 741.875 a 103.81038,103.81038 0 0 0 103.7989,103.80064 h 328.1875 a 103.81038,103.81038 0 0 0 103.7988,-103.80064 v -741.875 A 103.81038,103.81038 0 0 0 2983.7591,87.761769 Z" /><path
       id="path978-2"
       style="color:#000000;solid-color:#000000;fill:#c1c1c1;fill-opacity:1;stroke-width:207.6;stroke-linejoin:round;-inkscape-stroke:none;paint-order:markers fill stroke"
       d="M 3269.6388,87.761782 A 103.81038,103.81038 0 0 0 3165.8399,191.56257 v 741.875 a 103.81038,103.81038 0 0 0 103.7989,103.80063 h 328.1875 a 103.81038,103.81038 0 0 0 103.7988,-103.80063 v -741.875 A 103.81038,103.81038 0 0 0 3597.8263,87.761782 Z" /><path
       id="path978-9"
       style="color:#000000;solid-color:#000000;fill:#c1c1c1;fill-opacity:1;stroke-width:207.6;stroke-linejoin:round;-inkscape-stroke:none;paint-order:markers fill stroke"
       d="M 3883.7061,87.761784 A 103.81038,103.81038 0 0 0 3779.9072,191.56258 v 741.875 a 103.81038,103.81038 0 0 0 103.7989,103.80062 h 328.1874 a 103.81038,103.81038 0 0 0 103.7989,-103.80062 v -741.875 A 103.81038,103.81038 0 0 0 4211.8935,87.761784 Z" /><path
       id="path978-85"
       style="color:#000000;solid-color:#000000;fill:#c1c1c1;fill-opacity:1;stroke-width:207.6;stroke-linejoin:round;-inkscape-stroke:none;paint-order:markers fill stroke"
       d="M 4497.7732,87.761812 A 103.81038,103.81038 0 0 0 4393.9744,191.5626 v 741.875 a 103.81038,103.81038 0 0 0 103.7988,103.8006 h 328.1875 A 103.81038,103.81038 0 0 0 4929.7596,933.4376 V 191.5626 A 103.81038,103.81038 0 0 0 4825.9607,87.761812 Z" /><rect
       style="fill:#c1c1c1;fill-opacity:1;stroke:none;stroke-width:29.0392;stroke-linecap:round;stroke-linejoin:round;stroke-dasharray:none;stroke-opacity:1;paint-order:markers fill stroke"
       id="rect16"
       width="3817.9961"
       height="679.35602"
       x="603.50195"
       y="222.82199" /></g></svg>
