<?xml version="1.0" encoding="UTF-8" standalone="no"?>
<!-- Created with Inkscape (http://www.inkscape.org/) -->

<svg
     width="3825"
     height="1125"
     viewBox="0 0 3825 1125"
     version="1.1"
     id="svg5"
     xml:space="preserve"
     inkscape:version="1.4 (e7c3feb1, 2024-10-09)"
     sodipodi:docname="MintTinAccordion6.svg"
     xmlns:inkscape="http://www.inkscape.org/namespaces/inkscape"
     xmlns:sodipodi="http://sodipodi.sourceforge.net/DTD/sodipodi-0.dtd"
     xmlns="http://www.w3.org/2000/svg"
     xmlns:svg="http://www.w3.org/2000/svg"><sodipodi:namedview
         id="namedview7"
         pagecolor="#ffffff"
         bordercolor="#999999"
         borderopacity="1"
         inkscape:showpageshadow="0"
         inkscape:pageopacity="0"
         inkscape:pagecheckerboard="0"
         inkscape:deskcolor="#d1d1d1"
         inkscape:document-units="mm"
         showgrid="false"
         inkscape:zoom="0.16173406"
         inkscape:cx="1891.9948"
         inkscape:cy="340.06443"
         inkscape:window-width="1872"
         inkscape:window-height="1027"
         inkscape:window-x="62"
         inkscape:window-y="25"
         inkscape:window-maximized="1"
         inkscape:current-layer="layer1" /><defs
         id="defs2" /><g
         inkscape:label="Layer 1"
         inkscape:groupmode="layer"
         id="layer1"
         transform="translate(-731.16101,-1573.9321)"><rect
             style="fill:#171017;stroke-width:5.86988;paint-order:markers fill stroke;fill-opacity:1"
             id="rect908"
             width="3825"
             height="1125"
             x="731.16101"
             y="1573.9321" /><path
             id="clipping"
             style="color:#000000;solid-color:#000000;fill:#747474;fill-opacity:1;stroke-width:232.089;stroke-linejoin:round;-inkscape-stroke:none;paint-order:markers fill stroke"
             d="M 919.87195 1620.2446 A 119.32735 112.87417 0 0 0 800.55749 1733.1079 L 800.55749 2539.7563 A 119.32735 112.87417 0 0 0 919.87195 2652.6196 L 1297.1141 2652.6196 A 119.32735 112.87417 0 0 0 1415.5262 2546.2348 A 119.32735 112.87417 0 0 0 1533.9384 2652.6196 L 1911.1805 2652.6196 A 119.32735 112.87417 0 0 0 2029.5946 2546.2309 A 119.32735 112.87417 0 0 0 2148.0067 2652.6196 L 2525.2489 2652.6196 A 119.32735 112.87417 0 0 0 2643.661 2546.2348 A 119.32735 112.87417 0 0 0 2762.0731 2652.6196 L 3139.3153 2652.6196 A 119.32735 112.87417 0 0 0 3257.7274 2546.2309 A 119.32735 112.87417 0 0 0 3376.1415 2652.6196 L 3753.3837 2652.6196 A 119.32735 112.87417 0 0 0 3871.7958 2546.2348 A 119.32735 112.87417 0 0 0 3990.2079 2652.6196 L 4367.4501 2652.6196 A 119.32735 112.87417 0 0 0 4486.7645 2539.7563 L 4486.7645 1733.1079 A 119.32735 112.87417 0 0 0 4367.4501 1620.2446 L 3990.2079 1620.2446 A 119.32735 112.87417 0 0 0 3871.7958 1726.6294 A 119.32735 112.87417 0 0 0 3753.3837 1620.2446 L 3376.1415 1620.2446 A 119.32735 112.87417 0 0 0 3257.7274 1726.6333 A 119.32735 112.87417 0 0 0 3139.3153 1620.2446 L 2762.0731 1620.2446 A 119.32735 112.87417 0 0 0 2643.661 1726.6294 A 119.32735 112.87417 0 0 0 2525.2489 1620.2446 L 2148.0067 1620.2446 A 119.32735 112.87417 0 0 0 2029.5946 1726.6333 A 119.32735 112.87417 0 0 0 1911.1805 1620.2446 L 1533.9384 1620.2446 A 119.32735 112.87417 0 0 0 1415.5262 1726.6294 A 119.32735 112.87417 0 0 0 1297.1141 1620.2446 L 919.87195 1620.2446 z " /><path
             id="path9"
             style="color:#000000;solid-color:#000000;fill:#747474;fill-opacity:1;stroke-width:232.089;stroke-linejoin:round;-inkscape-stroke:none;paint-order:markers fill stroke"
             d="m 919.87139,1620.2441 a 119.32735,112.87417 0 0 0 -119.31406,112.8636 v 806.649 a 119.32735,112.87417 0 0 0 119.31406,112.8634 h 377.24291 a 119.32735,112.87417 0 0 0 119.3144,-112.8634 v -806.649 a 119.32735,112.87417 0 0 0 -119.3144,-112.8636 z" /><path
             id="path10"
             style="color:#000000;solid-color:#000000;fill:#747474;fill-opacity:1;stroke-width:232.089;stroke-linejoin:round;-inkscape-stroke:none;paint-order:markers fill stroke"
             d="m 1533.9388,1620.2441 a 119.32735,112.87417 0 0 0 -119.3143,112.8636 v 806.649 a 119.32735,112.87417 0 0 0 119.3143,112.8634 h 377.2427 a 119.32735,112.87417 0 0 0 119.3144,-112.8634 v -806.649 a 119.32735,112.87417 0 0 0 -119.3144,-112.8636 z" /><path
             id="path11"
             style="color:#000000;solid-color:#000000;fill:#747474;fill-opacity:1;stroke-width:232.089;stroke-linejoin:round;-inkscape-stroke:none;paint-order:markers fill stroke"
             d="m 2148.0061,1620.2441 a 119.32735,112.87417 0 0 0 -119.3144,112.8636 v 806.649 a 119.32735,112.87417 0 0 0 119.3144,112.8634 h 377.2427 a 119.32735,112.87417 0 0 0 119.3143,-112.8634 v -806.649 a 119.32735,112.87417 0 0 0 -119.3143,-112.8636 z" /><path
             id="path12"
             style="color:#000000;solid-color:#000000;fill:#747474;fill-opacity:1;stroke-width:232.089;stroke-linejoin:round;-inkscape-stroke:none;paint-order:markers fill stroke"
             d="m 2762.0734,1620.2441 a 119.32735,112.87417 0 0 0 -119.3144,112.8636 v 806.649 a 119.32735,112.87417 0 0 0 119.3144,112.8634 h 377.2427 a 119.32735,112.87417 0 0 0 119.3143,-112.8634 v -806.649 a 119.32735,112.87417 0 0 0 -119.3143,-112.8636 z" /><path
             id="path13"
             style="color:#000000;solid-color:#000000;fill:#747474;fill-opacity:1;stroke-width:232.089;stroke-linejoin:round;-inkscape-stroke:none;paint-order:markers fill stroke"
             d="m 3376.1406,1620.2441 a 119.32735,112.87417 0 0 0 -119.3144,112.8636 v 806.649 a 119.32735,112.87417 0 0 0 119.3144,112.8634 h 377.2427 a 119.32735,112.87417 0 0 0 119.3143,-112.8634 v -806.649 a 119.32735,112.87417 0 0 0 -119.3143,-112.8636 z" /><path
             id="path14"
             style="color:#000000;solid-color:#000000;fill:#747474;fill-opacity:1;stroke-width:232.089;stroke-linejoin:round;-inkscape-stroke:none;paint-order:markers fill stroke"
             d="m 3990.2078,1620.2441 a 119.32735,112.87417 0 0 0 -119.3144,112.8636 v 806.649 a 119.32735,112.87417 0 0 0 119.3144,112.8634 h 377.2427 a 119.32735,112.87417 0 0 0 119.3143,-112.8634 v -806.649 a 119.32735,112.87417 0 0 0 -119.3143,-112.8636 z" /><path
             id="path978"
             style="color:#000000;solid-color:#000000;fill:#c1c1c1;stroke-width:207.6;stroke-linejoin:round;-inkscape-stroke:none;paint-order:markers fill stroke;fill-opacity:1"
             d="m 944.39919,1661.6939 a 103.81038,103.81038 0 0 0 -103.79883,103.8008 v 741.875 a 103.81038,103.81038 0 0 0 103.79883,103.8006 h 328.18751 a 103.81038,103.81038 0 0 0 103.7989,-103.8006 v -741.875 a 103.81038,103.81038 0 0 0 -103.7989,-103.8008 z" /><path
             id="path978-0"
             style="color:#000000;solid-color:#000000;fill:#c1c1c1;stroke-width:207.6;stroke-linejoin:round;-inkscape-stroke:none;paint-order:markers fill stroke;fill-opacity:1"
             d="m 1558.4664,1661.6939 a 103.81038,103.81038 0 0 0 -103.7988,103.8008 v 741.875 a 103.81038,103.81038 0 0 0 103.7988,103.8006 h 328.1875 a 103.81038,103.81038 0 0 0 103.7989,-103.8006 v -741.875 a 103.81038,103.81038 0 0 0 -103.7989,-103.8008 z" /><path
             id="path978-8"
             style="color:#000000;solid-color:#000000;fill:#c1c1c1;stroke-width:207.6;stroke-linejoin:round;-inkscape-stroke:none;paint-order:markers fill stroke;fill-opacity:1"
             d="m 2172.5337,1661.6939 a 103.81038,103.81038 0 0 0 -103.7989,103.8008 v 741.875 a 103.81038,103.81038 0 0 0 103.7989,103.8006 h 328.1875 A 103.81038,103.81038 0 0 0 2604.52,2507.3697 v -741.875 a 103.81038,103.81038 0 0 0 -103.7988,-103.8008 z" /><path
             id="path978-1"
             style="color:#000000;solid-color:#000000;fill:#c1c1c1;stroke-width:207.6;stroke-linejoin:round;-inkscape-stroke:none;paint-order:markers fill stroke;fill-opacity:1"
             d="m 2786.601,1661.6939 a 103.81038,103.81038 0 0 0 -103.7989,103.8008 v 741.875 a 103.81038,103.81038 0 0 0 103.7989,103.8006 h 328.1875 a 103.81038,103.81038 0 0 0 103.7988,-103.8006 v -741.875 a 103.81038,103.81038 0 0 0 -103.7988,-103.8008 z" /><path
             id="path978-05"
             style="color:#000000;solid-color:#000000;fill:#c1c1c1;stroke-width:207.6;stroke-linejoin:round;-inkscape-stroke:none;paint-order:markers fill stroke;fill-opacity:1"
             d="m 3400.6682,1661.6939 a 103.81038,103.81038 0 0 0 -103.7989,103.8008 v 741.875 a 103.81038,103.81038 0 0 0 103.7989,103.8006 h 328.1875 a 103.81038,103.81038 0 0 0 103.7988,-103.8006 v -741.875 a 103.81038,103.81038 0 0 0 -103.7988,-103.8008 z" /><path
             id="path978-2"
             style="color:#000000;solid-color:#000000;fill:#c1c1c1;stroke-width:207.6;stroke-linejoin:round;-inkscape-stroke:none;paint-order:markers fill stroke;fill-opacity:1"
             d="m 4014.7354,1661.6939 a 103.81038,103.81038 0 0 0 -103.7989,103.8008 v 741.875 a 103.81038,103.81038 0 0 0 103.7989,103.8006 h 328.1875 a 103.81038,103.81038 0 0 0 103.7988,-103.8006 v -741.875 a 103.81038,103.81038 0 0 0 -103.7988,-103.8008 z" /><rect
             style="fill:#c1c1c1;fill-opacity:1;stroke-width:8.20719;stroke-linecap:round;stroke-linejoin:round;paint-order:markers fill stroke"
             id="rect20"
             width="2768.4336"
             height="680.12885"
             x="1259.4442"
             y="1796.3677" /></g></svg>
