<?xml version="1.0" encoding="UTF-8" standalone="no"?>
<svg
     width="750"
     height="1125"
     viewBox="0 0 750 1125"
     version="1.1"
     xml:space="preserve"
     style="fill-rule:evenodd;clip-rule:evenodd;stroke-miterlimit:10;"
     id="svg170"
     sodipodi:docname="MintTinSticker.svg"
     inkscape:version="1.4 (e7c3feb1, 2024-10-09)"
     xmlns:inkscape="http://www.inkscape.org/namespaces/inkscape"
     xmlns:sodipodi="http://sodipodi.sourceforge.net/DTD/sodipodi-0.dtd"
     xmlns="http://www.w3.org/2000/svg"
     xmlns:svg="http://www.w3.org/2000/svg"><defs
     id="defs170">
    
    
    

        
    
            
            
            
            
        
                
            
                
            
                
            
                    
                </defs><sodipodi:namedview
     id="namedview170"
     pagecolor="#505050"
     bordercolor="#eeeeee"
     borderopacity="1"
     inkscape:showpageshadow="0"
     inkscape:pageopacity="0"
     inkscape:pagecheckerboard="0"
     inkscape:deskcolor="#d1d1d1"
     inkscape:zoom="0.56568543"
     inkscape:cx="318.19805"
     inkscape:cy="636.3961"
     inkscape:window-width="1200"
     inkscape:window-height="1027"
     inkscape:window-x="62"
     inkscape:window-y="25"
     inkscape:window-maximized="0"
     inkscape:current-layer="svg170" /><path
     d="M 4.33e-6,1125.0005 H 750.0006 V -4.1179e-4 H 4.33e-6 Z"
     style="opacity:0.5;fill-rule:nonzero;stroke-width:4.16667"
     id="path1"
     sodipodi:nodetypes="ccccc" /><path
     d="m 203.30016,1076.2825 c -74.65423,0 -135.387608,-61.3917 -135.387608,-136.85425 V 185.56931 c 0,-75.45422 60.733378,-136.845938 135.387608,-136.845938 H 546.7046 c 74.65006,0 135.38344,61.391718 135.38344,136.845938 v 753.85894 c 0,75.46255 -60.73338,136.85425 -135.38344,136.85425 z"
     style="fill:#7b7b7b;fill-opacity:1;fill-rule:nonzero;stroke:none;stroke-width:4.125px"
     id="clipping" /><path
     d="m 203.30016,1038.7825 c -53.97504,0 -97.88758,-44.5667 -97.88758,-99.35425 V 185.56931 c 0,-54.77921 43.91254,-99.345908 97.88758,-99.345908 H 546.7046 c 53.97088,0 97.88341,44.566698 97.88341,99.345908 v 753.85894 c 0,54.78755 -43.91253,99.35425 -97.88341,99.35425 z"
     style="fill:#c3c3c3;fill-opacity:1;fill-rule:nonzero;stroke:none;stroke-width:4.16667px;stroke-dasharray:16.6667, 16.6667"
     id="path3" />
        
    </svg>
