<?xml version="1.0" encoding="UTF-8" standalone="no"?>
<!-- Created with Inkscape (http://www.inkscape.org/) -->

<svg
   width="2550"
   height="1125"
   viewBox="0 0 2550 1125"
   version="1.1"
   id="svg5"
   xml:space="preserve"
   inkscape:version="1.3.2 (091e20e, 2023-11-25, custom)"
   sodipodi:docname="MintTinAccordion4.svg"
   xmlns:inkscape="http://www.inkscape.org/namespaces/inkscape"
   xmlns:sodipodi="http://sodipodi.sourceforge.net/DTD/sodipodi-0.dtd"
   xmlns="http://www.w3.org/2000/svg"
   xmlns:svg="http://www.w3.org/2000/svg"><sodipodi:namedview
     id="namedview7"
     pagecolor="#ffffff"
     bordercolor="#999999"
     borderopacity="1"
     inkscape:showpageshadow="0"
     inkscape:pageopacity="0"
     inkscape:pagecheckerboard="0"
     inkscape:deskcolor="#d1d1d1"
     inkscape:document-units="mm"
     showgrid="false"
     inkscape:zoom="0.2287265"
     inkscape:cx="1700.7212"
     inkscape:cy="1519.2818"
     inkscape:window-width="1920"
     inkscape:window-height="1009"
     inkscape:window-x="-8"
     inkscape:window-y="-8"
     inkscape:window-maximized="1"
     inkscape:current-layer="layer1" /><defs
     id="defs2" /><g
     inkscape:label="Layer 1"
     inkscape:groupmode="layer"
     id="layer1"><rect
       style="fill:#1a1a1a;fill-opacity:1;stroke-width:4.79274;paint-order:markers fill stroke"
       id="rect908"
       width="2550"
       height="1125"
       x="-4.0350344e-08"
       y="8.3618161e-09" /><path
       id="clipping"
       style="color:#000000;solid-color:#000000;fill:#686868;fill-opacity:1;stroke-width:232.334;stroke-linejoin:round;-inkscape-stroke:none;paint-order:markers fill stroke"
       d="M 165.27733,45.21875 A 119.32735,113.11317 0 0 0 45.962932,158.32227 V 966.67778 A 119.32735,113.11317 0 0 0 165.27733,1079.7813 h 377.2422 a 119.32735,113.11317 0 0 0 118.4141,-106.61532 119.32735,113.11317 0 0 0 118.4121,106.61532 H 1156.588 a 119.32735,113.11317 0 0 0 118.4121,-106.61142 119.32735,113.11317 0 0 0 118.4121,106.61142 h 377.2422 a 119.32735,113.11317 0 0 0 118.4121,-106.61722 119.32735,113.11317 0 0 0 118.4141,106.61722 h 377.2422 A 119.32735,113.11317 0 0 0 2504.0372,966.67778 V 158.32227 A 119.32735,113.11317 0 0 0 2384.7228,45.21875 H 2007.4806 A 119.32735,113.11317 0 0 0 1889.0665,151.83399 119.32735,113.11317 0 0 0 1770.6544,45.21875 H 1393.4122 A 119.32735,113.11317 0 0 0 1275.0001,151.83008 119.32735,113.11317 0 0 0 1156.588,45.21875 H 779.34573 A 119.32735,113.11317 0 0 0 660.93363,151.83399 119.32735,113.11317 0 0 0 542.51953,45.21875 Z" /><path
       id="path1"
       style="color:#000000;solid-color:#000000;fill:#686868;fill-opacity:1;stroke-width:232.334;stroke-linejoin:round;-inkscape-stroke:none;paint-order:markers fill stroke"
       d="M 165.27773,45.218888 A 119.32735,113.11317 0 0 0 45.963432,158.32164 V 966.67858 A 119.32735,113.11317 0 0 0 165.27773,1079.781 h 377.2427 A 119.32735,113.11317 0 0 0 661.83483,966.67858 V 158.32164 A 119.32735,113.11317 0 0 0 542.52043,45.218888 Z" /><path
       id="path2"
       style="color:#000000;solid-color:#000000;fill:#686868;fill-opacity:1;stroke-width:232.334;stroke-linejoin:round;-inkscape-stroke:none;paint-order:markers fill stroke"
       d="M 779.34493,45.218888 A 119.32735,113.11317 0 0 0 660.03063,158.32164 V 966.67858 A 119.32735,113.11317 0 0 0 779.34493,1079.781 H 1156.5877 A 119.32735,113.11317 0 0 0 1275.9021,966.67858 V 158.32164 A 119.32735,113.11317 0 0 0 1156.5877,45.218888 Z" /><path
       id="path3"
       style="color:#000000;solid-color:#000000;fill:#686868;fill-opacity:1;stroke-width:232.334;stroke-linejoin:round;-inkscape-stroke:none;paint-order:markers fill stroke"
       d="M 1393.4123,45.218888 A 119.32735,113.11317 0 0 0 1274.0979,158.32164 V 966.67858 A 119.32735,113.11317 0 0 0 1393.4123,1079.781 H 1770.655 A 119.32735,113.11317 0 0 0 1889.9693,966.67858 V 158.32164 A 119.32735,113.11317 0 0 0 1770.655,45.218888 Z" /><path
       id="path4"
       style="color:#000000;solid-color:#000000;fill:#686868;fill-opacity:1;stroke-width:232.334;stroke-linejoin:round;-inkscape-stroke:none;paint-order:markers fill stroke"
       d="M 2007.4796,45.218888 A 119.32735,113.11317 0 0 0 1888.1652,158.32164 v 808.35694 a 119.32735,113.11317 0 0 0 119.3144,113.10242 h 377.2427 A 119.32735,113.11317 0 0 0 2504.0366,966.67858 V 158.32164 A 119.32735,113.11317 0 0 0 2384.7223,45.218888 Z" /><path
       id="path978"
       style="color:#000000;solid-color:#000000;fill:#c9c9c9;fill-opacity:1;stroke-width:207.6;stroke-linejoin:round;-inkscape-stroke:none;paint-order:markers fill stroke"
       d="M 189.80533,87.761777 A 103.81038,103.81038 0 0 0 86.006532,191.56258 v 741.875 A 103.81038,103.81038 0 0 0 189.80533,1037.2382 h 328.1875 a 103.81038,103.81038 0 0 0 103.7989,-103.80062 v -741.875 A 103.81038,103.81038 0 0 0 517.99283,87.761777 Z" /><path
       id="path978-0"
       style="color:#000000;solid-color:#000000;fill:#c9c9c9;fill-opacity:1;stroke-width:207.6;stroke-linejoin:round;-inkscape-stroke:none;paint-order:markers fill stroke"
       d="M 803.87253,87.761777 A 103.81038,103.81038 0 0 0 700.07373,191.56258 v 741.875 a 103.81038,103.81038 0 0 0 103.7988,103.80062 H 1132.0601 A 103.81038,103.81038 0 0 0 1235.859,933.43758 v -741.875 A 103.81038,103.81038 0 0 0 1132.0601,87.761777 Z" /><path
       id="path978-8"
       style="color:#000000;solid-color:#000000;fill:#c9c9c9;fill-opacity:1;stroke-width:207.6;stroke-linejoin:round;-inkscape-stroke:none;paint-order:markers fill stroke"
       d="M 1417.9399,87.761777 A 103.81038,103.81038 0 0 0 1314.141,191.56258 v 741.875 a 103.81038,103.81038 0 0 0 103.7989,103.80062 h 328.1875 a 103.81038,103.81038 0 0 0 103.7988,-103.80062 v -741.875 A 103.81038,103.81038 0 0 0 1746.1274,87.761777 Z" /><path
       id="path978-1"
       style="color:#000000;solid-color:#000000;fill:#c9c9c9;fill-opacity:1;stroke-width:207.6;stroke-linejoin:round;-inkscape-stroke:none;paint-order:markers fill stroke"
       d="M 2032.0072,87.761777 A 103.81038,103.81038 0 0 0 1928.2083,191.56258 v 741.875 a 103.81038,103.81038 0 0 0 103.7989,103.80062 h 328.1875 a 103.81038,103.81038 0 0 0 103.7988,-103.80062 v -741.875 A 103.81038,103.81038 0 0 0 2360.1947,87.761777 Z" /><rect
       style="fill:#c9c9c9;fill-opacity:1;stroke-width:4.19155;stroke-linecap:round;stroke-linejoin:round;paint-order:markers fill stroke"
       id="rect9"
       width="1508.3517"
       height="678.12366"
       x="520.82422"
       y="222.7619" /></g></svg>
