<?xml version="1.0" encoding="UTF-8" standalone="no"?>
<svg
     version="1.1"
     id="YOUR_ARTWORK_HERE"
     x="0px"
     y="0px"
     width="300"
     height="525"
     viewBox="0 0 300 525"
     enable-background="new 0 0 72.001 126"
     xml:space="preserve"
     sodipodi:docname="PawnSticker.svg"
     inkscape:version="1.4 (e7c3feb1, 2024-10-09)"
     xmlns:inkscape="http://www.inkscape.org/namespaces/inkscape"
     xmlns:sodipodi="http://sodipodi.sourceforge.net/DTD/sodipodi-0.dtd"
     xmlns="http://www.w3.org/2000/svg"
     xmlns:svg="http://www.w3.org/2000/svg"><defs
         id="defs173">








	
		
	
</defs><sodipodi:namedview
         id="namedview173"
         pagecolor="#505050"
         bordercolor="#eeeeee"
         borderopacity="1"
         inkscape:showpageshadow="0"
         inkscape:pageopacity="0"
         inkscape:pagecheckerboard="0"
         inkscape:deskcolor="#d1d1d1"
         inkscape:zoom="0.85714286"
         inkscape:cx="265.41667"
         inkscape:cy="368.66667"
         inkscape:window-width="1872"
         inkscape:window-height="1027"
         inkscape:window-x="62"
         inkscape:window-y="25"
         inkscape:window-maximized="1"
         inkscape:current-layer="YOUR_ARTWORK_HERE" /><rect
         x="0"
         fill="#919395"
         width="300"
         height="525"
         id="rect1"
         y="0"
         style="stroke-width:4.16667;fill:#202121;fill-opacity:1" /><path
         fill="#ffffff"
         stroke="#ec1c24"
         stroke-miterlimit="10"
         d="m 243.75,365.55417 c 0,52.85 -41.975,95.69583 -93.75,95.69583 v 0 c -51.779166,0 -93.75,-42.84583 -93.75,-95.69583 v -206.1125 c 0,-52.84584 41.970834,-95.691669 93.75,-95.691669 v 0 c 51.775,0 93.75,42.845829 93.75,95.691669 z"
         id="clipping"
         style="stroke-width:4.16667;stroke:none;fill:#696969;fill-opacity:1" /><path
         fill="none"
         stroke="#00adee"
         stroke-miterlimit="10"
         stroke-dasharray="6, 6"
         d="m 150,423.75 c -31.01667,0 -56.249999,-26.10833 -56.249999,-58.19583 V 159.44167 C 93.750001,127.35417 118.98333,101.25 150,101.25 c 31.01667,0 56.25,26.10417 56.25,58.19167 v 206.1125 C 206.25,397.64584 181.01667,423.75 150,423.75 Z"
         id="path2"
         style="stroke-width:4.16667;fill:#b9b9b9;fill-opacity:1;stroke:none" /></svg>
