<?xml version="1.0" encoding="UTF-8" standalone="no"?>
<svg
   version="1.1"
   x="0px"
   y="0px"
   width="3450"
   height="4875"
   viewBox="0 0 3450 4875"
   enable-background="new 0 0 828 1170"
   xml:space="preserve"
   id="svg232"
   sodipodi:docname="PokerBoosterBox.svg"
   inkscape:version="1.3.2 (091e20e, 2023-11-25, custom)"
   xmlns:inkscape="http://www.inkscape.org/namespaces/inkscape"
   xmlns:sodipodi="http://sodipodi.sourceforge.net/DTD/sodipodi-0.dtd"
   xmlns="http://www.w3.org/2000/svg"
   xmlns:svg="http://www.w3.org/2000/svg"><defs
     id="defs232">




	
	
	
	
	
	
	
	
	

		
	
		
		
		
		
		
		
		
		
	
		
		
		
		
		
	
			
		
		
		
	
			
		
			
		
	

			
		
			
		
			
		
			
		
		
		
	
				
			
				
			
				
				
					
			
				
			
				
			
				
				
				
				
				
			
				
			
					
					
						
					
					
						
					
					
						
					
					
						
				
					
				
					
				
					
				
					
					
						
					
					
						
					
					
						
					
					
						
				
					
				
					
					
					
				
					
					
						
					
					
						
					
					
						
					
					
						
				
					
					
						
					
					
						
					
					
						
					
					
						
				
						
						
						
						
						
						
						
					
						
					
						
					</defs><sodipodi:namedview
     id="namedview232"
     pagecolor="#505050"
     bordercolor="#eeeeee"
     borderopacity="1"
     inkscape:showpageshadow="0"
     inkscape:pageopacity="0"
     inkscape:pagecheckerboard="0"
     inkscape:deskcolor="#d1d1d1"
     inkscape:zoom="0.73846152"
     inkscape:cx="1198.4375"
     inkscape:cy="1884.323"
     inkscape:window-width="2560"
     inkscape:window-height="1351"
     inkscape:window-x="-9"
     inkscape:window-y="-9"
     inkscape:window-maximized="1"
     inkscape:current-layer="svg232" /><rect
     fill="#9b9a9a"
     width="3450"
     height="4875"
     id="rect1"
     x="0"
     y="0"
     style="stroke-width:4.16667;fill:#151515;fill-opacity:1" /><path
     id="clipping"
     style="fill:#6f6e6e;fill-opacity:1;stroke:none;stroke-width:4.16667"
     d="m 635.75016,37.502244 -79.2422,63.496096 v 563.0038 l 79.24024,63.4981 H 157.50804 v 0.012 L 37.500243,740.54154 V 2244.4788 l 68.083967,0.7422 51.92383,12.2871 v -0.01 h 698.99988 v 0 H 635.75016 l -79.2422,63.4961 v 563.0038 l 79.2422,63.4961 h 220.75776 l -0.004,718.8163 0.004,715.9549 7.20117,95.2287 180.94921,243.6071 c 0,29.6333 491.3375,56.3929 520.5292,56.3929 h 307.6659 c 29.1875,0 520.5176,-26.7596 520.5176,-56.3929 l 180.9452,-243.6071 7.2012,-95.2287 v -715.9511 -718.8163 h 220.7539 l 79.2363,-63.4961 V 2320.998 l -79.2363,-63.4961 h -220.7637 v 0 l 698.9999,0.01 51.9297,-12.2871 68.084,-0.7422 V 740.53924 l -120.0137,-13.0293 v 0 h -698.9999 220.7637 l 79.2363,-63.5 V 101.00634 L 2802.2674,37.510244 H 2581.5076 856.50792 Z" /><polyline
     fill="#ffffff"
     stroke="#eb2227"
     stroke-miterlimit="10"
     points="672.545,174.6 691.562,159.36 691.562,24.239         672.544,9 619.562,9 205.562,9 152.58,9 133.562,24.239 133.562,159.36 152.58,174.6       "
     id="polyline1"
     transform="scale(4.1666667)"
     style="fill:none" /><polyline
     fill="#ffffff"
     stroke="#eb2227"
     stroke-miterlimit="10"
     points="619.562,541.799 787.322,541.801 799.785,538.852        816.125,538.674 816.125,177.729 787.322,174.602 787.322,174.601 619.562,174.6      "
     id="polyline2"
     transform="scale(4.1666667)"
     style="fill:none" /><path
     fill="#ffffff"
     stroke="#eb2227"
     stroke-miterlimit="10"
     d="m 856.50834,2947.4959 -0.004,718.8166 0.004,715.9542 7.2,95.2292 180.94996,243.6083 c 0,29.6333 491.3375,56.3917 520.5292,56.3917 h 307.6667 c 29.1875,0 520.5167,-26.7584 520.5167,-56.3917 l 180.9458,-243.6083 7.2,-95.2292 v -715.9542 -718.8166"
     id="path3"
     style="stroke-width:4.16667;fill:none" /><polyline
     fill="#ffffff"
     stroke="#eb2227"
     stroke-miterlimit="10"
     points="205.562,174.6 37.802,174.599 37.802,174.602        9,177.729 9,538.674 25.34,538.852 37.802,541.801 37.802,541.799 205.562,541.799      "
     id="polyline5"
     transform="scale(4.1666667)"
     style="fill:none" /><path
     fill="#ffffff"
     stroke="#eb2227"
     stroke-miterlimit="10"
     d="m 2394.825,3666.3125 v -173.8166 c 0,-27.5042 -24.4666,-50 -54.3708,-50 h -62.9875 -0.4542"
     id="path6"
     style="stroke-width:4.16667;fill:none" /><line
     fill="#ffffff"
     stroke="#eb2227"
     stroke-miterlimit="10"
     x1="1341.0125"
     y1="3442.4958"
     x2="1167.0083"
     y2="3442.4958"
     id="line6"
     style="stroke-width:4.16667" /><line
     fill="#ffffff"
     stroke="#eb2227"
     stroke-miterlimit="10"
     x1="1491.0125"
     y1="3442.4958"
     x2="1347.0084"
     y2="3442.4958"
     id="line7"
     style="stroke-width:4.16667" /><line
     fill="#ffffff"
     stroke="#eb2227"
     stroke-miterlimit="10"
     x1="1641.0125"
     y1="3442.4958"
     x2="1497.0084"
     y2="3442.4958"
     id="line8"
     style="stroke-width:4.16667" /><line
     fill="#ffffff"
     stroke="#eb2227"
     stroke-miterlimit="10"
     x1="1791.0125"
     y1="3442.4958"
     x2="1647.0084"
     y2="3442.4958"
     id="line9"
     style="stroke-width:4.16667" /><line
     fill="#ffffff"
     stroke="#eb2227"
     stroke-miterlimit="10"
     x1="1941.0125"
     y1="3442.4958"
     x2="1797.0084"
     y2="3442.4958"
     id="line10"
     style="stroke-width:4.16667" /><line
     fill="#ffffff"
     stroke="#eb2227"
     stroke-miterlimit="10"
     x1="2091.0125"
     y1="3442.4958"
     x2="1947.0084"
     y2="3442.4958"
     id="line11"
     style="stroke-width:4.16667" /><line
     fill="#ffffff"
     stroke="#eb2227"
     stroke-miterlimit="10"
     x1="2271.0127"
     y1="3442.4958"
     x2="2097.0083"
     y2="3442.4958"
     id="line12"
     style="stroke-width:4.16667" /><path
     fill="#ffffff"
     stroke="#eb2227"
     stroke-miterlimit="10"
     d="m 1161.0125,3442.4959 h -63.45 c -29.9,0 -54.3625,22.4958 -54.3625,50 v 173.8166"
     id="path12"
     style="stroke-width:4.16667;fill:none" /><polyline
     fill="#ffffff"
     stroke="#eb2227"
     stroke-miterlimit="10"
     points="205.562,707.399 152.58,707.399 133.562,692.16    133.562,557.039 152.58,541.8 205.562,541.8  "
     id="polyline16"
     transform="scale(4.1666667)"
     style="fill:none" /><polyline
     fill="#ffffff"
     stroke="#eb2227"
     stroke-miterlimit="10"
     points="619.562,707.399 672.545,707.399 691.562,692.16    691.562,557.039 672.545,541.8 619.562,541.8  "
     id="polyline17"
     transform="scale(4.1666667)"
     style="fill:none" /><polygon
     fill="#e6e6e6"
     points="196.562,698.521 161.58,698.521 142.562,683.282 142.562,566.16 161.58,550.922 196.562,550.922 "
     id="polygon17"
     transform="scale(4.1666667)" /><polygon
     fill="#e6e6e6"
     points="197.408,165.599 162.427,165.599 143.408,150.36 143.408,33.238 162.427,18 197.409,18 "
     id="polygon18"
     transform="scale(4.1666667)" /><polygon
     fill="#e6e6e6"
     points="628.987,18 663.969,18 682.987,33.239 682.987,150.36 663.969,165.599 628.986,165.599 "
     id="polygon19"
     transform="scale(4.1666667)" /><polygon
     fill="#e6e6e6"
     points="628.141,550.923 663.122,550.923 682.141,566.161 682.141,683.283 663.122,698.521 628.14,698.521 "
     id="polygon20"
     transform="scale(4.1666667)" /><line
     fill="#ffffff"
     stroke="#8cc541"
     stroke-miterlimit="10"
     x1="863.70831"
     y1="4477.5"
     x2="2574.3125"
     y2="4477.5"
     id="line20"
     style="stroke-width:4.16667" /><line
     fill="#ffffff"
     stroke="#8cc541"
     stroke-miterlimit="10"
     x1="157.50833"
     y1="2257.4958"
     x2="157.50833"
     y2="727.50006"
     id="line22"
     style="stroke-width:4.16667" /><line
     fill="#ffffff"
     stroke="#8cc541"
     stroke-miterlimit="10"
     x1="3280.5085"
     y1="727.50415"
     x2="3280.5085"
     y2="2257.5"
     id="line23"
     style="stroke-width:4.16667" /><polyline
     fill="#ffffff"
     stroke="#8cc541"
     stroke-miterlimit="10"
     points="619.562,541.799 619.562,707.399 205.562,707.399     205.562,541.799   "
     id="polyline23"
     transform="scale(4.1666667)"
     style="fill:none" /><line
     fill="#ffffff"
     stroke="#8cc541"
     stroke-miterlimit="10"
     x1="2581.5083"
     y1="37.5"
     x2="2581.5083"
     y2="727.50006"
     id="line24"
     style="stroke-width:4.16667" /><line
     fill="#ffffff"
     stroke="#8cc541"
     stroke-miterlimit="10"
     x1="856.5083"
     y1="727.50006"
     x2="856.5083"
     y2="37.5"
     id="line25"
     style="stroke-width:4.16667" /><line
     fill="#ffffff"
     stroke="#8cc541"
     stroke-miterlimit="10"
     x1="1043.2"
     y1="3666.3125"
     x2="856.5083"
     y2="3666.3125"
     id="line26"
     style="stroke-width:4.16667" /><line
     fill="#ffffff"
     stroke="#8cc541"
     stroke-miterlimit="10"
     x1="2394.825"
     y1="3666.3125"
     x2="2581.5083"
     y2="3666.3125"
     id="line27"
     style="stroke-width:4.16667" /><polyline
     fill="none"
     stroke="#29abe2"
     stroke-miterlimit="10"
     stroke-dasharray="6.3882"
     points="214.562,19.751 214.562,18        220.858,18      "
     id="polyline27"
     transform="scale(4.1666667)" /><line
     fill="none"
     stroke="#29abe2"
     stroke-miterlimit="10"
     stroke-dasharray="26.6175"
     x1="974.20001"
     y1="75"
     x2="2490.7834"
     y2="75"
     id="line28"
     style="stroke-width:4.16667" /><polyline
     fill="none"
     stroke="#29abe2"
     stroke-miterlimit="10"
     stroke-dasharray="6.3882"
     points="604.263,18 610.559,18        610.559,19.751      "
     id="polyline28"
     transform="scale(4.1666667)" /><line
     fill="none"
     stroke="#29abe2"
     stroke-miterlimit="10"
     stroke-dasharray="26.6175"
     x1="2543.9958"
     y1="96.666672"
     x2="2543.9958"
     y2="675.52081"
     id="line29"
     style="stroke-width:4.16667" /><polyline
     fill="none"
     stroke="#29abe2"
     stroke-miterlimit="10"
     stroke-dasharray="6.3882"
     points="610.559,163.85        610.559,165.6 604.263,165.6      "
     id="polyline29"
     transform="scale(4.1666667)" /><line
     fill="none"
     stroke="#29abe2"
     stroke-miterlimit="10"
     stroke-dasharray="26.6175"
     x1="2463.8042"
     y1="690.00006"
     x2="947.22083"
     y2="690.00006"
     id="line30"
     style="stroke-width:4.16667" /><polyline
     fill="none"
     stroke="#29abe2"
     stroke-miterlimit="10"
     stroke-dasharray="6.3882"
     points="220.858,165.6        214.562,165.6 214.562,163.85      "
     id="polyline30"
     transform="scale(4.1666667)" /><line
     fill="none"
     stroke="#29abe2"
     stroke-miterlimit="10"
     stroke-dasharray="26.6175"
     x1="894.0083"
     y1="668.32916"
     x2="894.0083"
     y2="89.48333"
     id="line31"
     style="stroke-width:4.16667" /><polyline
     fill="none"
     stroke="#29abe2"
     stroke-miterlimit="10"
     stroke-dasharray="6.3882"
     points="214.566,552.552        214.566,550.801 220.862,550.801      "
     id="polyline33"
     transform="scale(4.1666667)" /><line
     fill="none"
     stroke="#29abe2"
     stroke-miterlimit="10"
     stroke-dasharray="26.6175"
     x1="974.21667"
     y1="2295.0044"
     x2="2490.8"
     y2="2295.0044"
     id="line33"
     style="stroke-width:4.16667" /><polyline
     fill="none"
     stroke="#29abe2"
     stroke-miterlimit="10"
     stroke-dasharray="6.3882"
     points="604.267,550.801        610.562,550.801 610.562,552.552      "
     id="polyline34"
     transform="scale(4.1666667)" /><line
     fill="none"
     stroke="#29abe2"
     stroke-miterlimit="10"
     stroke-dasharray="26.6175"
     x1="2544.0083"
     y1="2316.6707"
     x2="2544.0083"
     y2="2895.5251"
     id="line34"
     style="stroke-width:4.16667" /><polyline
     fill="none"
     stroke="#29abe2"
     stroke-miterlimit="10"
     stroke-dasharray="6.3882"
     points="610.562,696.65        610.562,698.4 604.267,698.4      "
     id="polyline35"
     transform="scale(4.1666667)" /><line
     fill="none"
     stroke="#29abe2"
     stroke-miterlimit="10"
     stroke-dasharray="26.6175"
     x1="2463.8208"
     y1="2910.0002"
     x2="947.23755"
     y2="2910.0002"
     id="line35"
     style="stroke-width:4.16667" /><polyline
     fill="none"
     stroke="#29abe2"
     stroke-miterlimit="10"
     stroke-dasharray="6.3882"
     points="220.862,698.4        214.566,698.4 214.566,696.65      "
     id="polyline36"
     transform="scale(4.1666667)" /><line
     fill="none"
     stroke="#29abe2"
     stroke-miterlimit="10"
     stroke-dasharray="26.6175"
     x1="894.02496"
     y1="2888.3335"
     x2="894.02496"
     y2="2309.4834"
     id="line36"
     style="stroke-width:4.16667" /><polyline
     fill="none"
     stroke="#29abe2"
     stroke-miterlimit="10"
     stroke-dasharray="6.3882"
     points="46.802,187.879        46.802,183.523 49.469,183.523      "
     id="polyline38"
     transform="scale(4.1666667)" /><line
     fill="none"
     stroke="#29abe2"
     stroke-miterlimit="10"
     stroke-dasharray="26.6175"
     x1="228.97917"
     y1="764.67914"
     x2="796.46252"
     y2="764.67914"
     id="line38"
     style="stroke-width:4.16667" /><polyline
     fill="none"
     stroke="#29abe2"
     stroke-miterlimit="10"
     stroke-dasharray="6.3882"
     points="193.895,183.523        196.562,183.523 196.562,187.879      "
     id="polyline39"
     transform="scale(4.1666667)" /><line
     fill="none"
     stroke="#29abe2"
     stroke-miterlimit="10"
     stroke-dasharray="26.6175"
     x1="819.0083"
     y1="818.58337"
     x2="819.0083"
     y2="2183.6624"
     id="line39"
     style="stroke-width:4.16667" /><polyline
     fill="none"
     stroke="#29abe2"
     stroke-miterlimit="10"
     stroke-dasharray="6.3882"
     points="196.562,528.369        196.562,532.723 193.895,532.723      "
     id="polyline40"
     transform="scale(4.1666667)" /><line
     fill="none"
     stroke="#29abe2"
     stroke-miterlimit="10"
     stroke-dasharray="26.6175"
     x1="785.03339"
     y1="2219.6792"
     x2="217.55"
     y2="2219.6792"
     id="line40"
     style="stroke-width:4.16667" /><polyline
     fill="none"
     stroke="#29abe2"
     stroke-miterlimit="10"
     stroke-dasharray="6.3882"
     points="49.469,532.723        46.802,532.723 46.802,528.369      "
     id="polyline41"
     transform="scale(4.1666667)" /><line
     fill="none"
     stroke="#29abe2"
     stroke-miterlimit="10"
     stroke-dasharray="26.6175"
     x1="195.00833"
     y1="2165.7751"
     x2="195.00833"
     y2="800.70831"
     id="line41"
     style="stroke-width:4.16667" /><polyline
     fill="none"
     stroke="#29abe2"
     stroke-miterlimit="10"
     stroke-dasharray="6.3882"
     points="628.562,187.879        628.562,183.523 631.23,183.523      "
     id="polyline43"
     transform="scale(4.1666667)" /><line
     fill="none"
     stroke="#29abe2"
     stroke-miterlimit="10"
     stroke-dasharray="26.6175"
     x1="2652.9875"
     y1="764.67914"
     x2="3220.4666"
     y2="764.67914"
     id="line43"
     style="stroke-width:4.16667" /><polyline
     fill="none"
     stroke="#29abe2"
     stroke-miterlimit="10"
     stroke-dasharray="6.3882"
     points="775.656,183.523        778.322,183.523 778.322,187.879      "
     id="polyline44"
     transform="scale(4.1666667)" /><line
     fill="none"
     stroke="#29abe2"
     stroke-miterlimit="10"
     stroke-dasharray="26.6175"
     x1="3243.0085"
     y1="818.58337"
     x2="3243.0085"
     y2="2183.6624"
     id="line44"
     style="stroke-width:4.16667" /><polyline
     fill="none"
     stroke="#29abe2"
     stroke-miterlimit="10"
     stroke-dasharray="6.3882"
     points="778.322,528.369        778.322,532.723 775.656,532.723      "
     id="polyline45"
     transform="scale(4.1666667)" /><line
     fill="none"
     stroke="#29abe2"
     stroke-miterlimit="10"
     stroke-dasharray="26.6175"
     x1="3209.0415"
     y1="2219.6792"
     x2="2641.5542"
     y2="2219.6792"
     id="line45"
     style="stroke-width:4.16667" /><polyline
     fill="none"
     stroke="#29abe2"
     stroke-miterlimit="10"
     stroke-dasharray="6.3882"
     points="631.23,532.723        628.562,532.723 628.562,528.369      "
     id="polyline46"
     transform="scale(4.1666667)" /><line
     fill="none"
     stroke="#29abe2"
     stroke-miterlimit="10"
     stroke-dasharray="26.6175"
     x1="2619.0083"
     y1="2165.7751"
     x2="2619.0083"
     y2="800.70831"
     id="line46"
     style="stroke-width:4.16667" /><rect
     x="856.5083"
     y="727.50006"
     fill="#ffffff"
     stroke="#8cc541"
     stroke-miterlimit="10"
     width="1725"
     height="1530.0001"
     id="actualSize"
     style="stroke-width:4.16667;fill:#b1b1b1;stroke:none;fill-opacity:1" /><rect
     x="894.0083"
     y="765.00006"
     fill="none"
     stroke="#29abe2"
     stroke-miterlimit="10"
     stroke-dasharray="26.6175"
     width="1650"
     height="1455.0001"
     id="rect49"
     style="stroke-width:4.16667" /><path
     fill="none"
     stroke="#29abe2"
     stroke-miterlimit="10"
     stroke-dasharray="26.6175"
     d="m 2340.4542,3479.9959 c 9.9458,0 16.8708,6.5875 16.8708,12.5 v 211.3166 h 186.6875 V 4380.85 l -4.4708,59.1459 H 898.48334 l -4.46667,-59.1459 -0.008,-677.0375 h 186.69583 v -211.3166 c 0,-5.9125 6.925,-12.5 16.8625,-12.5 z"
     id="path51"
     style="stroke-width:4.16667" /><path
     fill="none"
     stroke="#29abe2"
     stroke-miterlimit="10"
     stroke-dasharray="26.6175"
     d="m 2544.0084,2984.9959 v 643.8166 h -111.6875 v -136.3166 c 0,-48.2459 -41.2125,-87.5 -91.8709,-87.5 H 1097.5667 c -50.65,0 -91.8625,39.2541 -91.8625,87.5 v 136.3166 H 894.00834 v -643.8166 z"
     id="path52"
     style="stroke-width:4.16667" /></svg>
