<?xml version="1.0" encoding="UTF-8" standalone="no"?>
<svg
   viewBox="0 0 2850 3375"
   width="2850"
   height="3375"
   version="1.1"
   id="svg183"
   sodipodi:docname="PokerHookBox54Front.svg"
   inkscape:version="1.3.2 (091e20e, 2023-11-25, custom)"
   xmlns:inkscape="http://www.inkscape.org/namespaces/inkscape"
   xmlns:sodipodi="http://sodipodi.sourceforge.net/DTD/sodipodi-0.dtd"
   xmlns="http://www.w3.org/2000/svg"
   xmlns:svg="http://www.w3.org/2000/svg">
  <defs
     id="defs183">
    <defs
       id="defs1">
      <style
         id="style1">.cls-1,.cls-2,.cls-3,.cls-4,.cls-5,.cls-6,.cls-7,.cls-8,.cls-9,.cls-10,.cls-11,.cls-12,.cls-13,.cls-14,.cls-15,.cls-16,.cls-17,.cls-18,.cls-19,.cls-20,.cls-21,.cls-22,.cls-23,.cls-24,.cls-25{fill:none;}.cls-2{stroke-dasharray:4.86 4.86;}.cls-2,.cls-3,.cls-4,.cls-5,.cls-6,.cls-7,.cls-8,.cls-9,.cls-10,.cls-12,.cls-14,.cls-15,.cls-16,.cls-17,.cls-18,.cls-19,.cls-20,.cls-21,.cls-22,.cls-23,.cls-25{stroke-miterlimit:10;}.cls-2,.cls-3,.cls-6,.cls-7,.cls-8,.cls-9,.cls-10,.cls-12,.cls-14,.cls-15,.cls-18,.cls-19,.cls-20,.cls-21,.cls-22,.cls-25{stroke:#26aae1;}.cls-3{stroke-dasharray:4.86 4.86;}.cls-4{stroke:#0baa4b;}.cls-26,.cls-27,.cls-28,.cls-29{fill-rule:evenodd;}.cls-26,.cls-30{fill:#fff;}.cls-5{stroke-width:.5px;}.cls-5,.cls-17{stroke:red;}.cls-31,.cls-32,.cls-33,.cls-34{font-family:Arial-Black, 'Arial Black';font-weight:800;}.cls-31,.cls-33,.cls-34,.cls-35{fill:#231f20;}.cls-6{stroke-dasharray:5 5;}.cls-7{stroke-dasharray:4.92 4.92;}.cls-8{stroke-dasharray:5 5;}.cls-9{stroke-dasharray:4.92 4.92;}.cls-10{stroke-dasharray:5.02 5.02;}.cls-11,.cls-13,.cls-16,.cls-23,.cls-24{stroke-width:2px;}.cls-11,.cls-24{stroke:#2ba4dd;}.cls-13{stroke:#ec2224;}.cls-32{fill:#020202;}.cls-32,.cls-33{font-size:12.75px;}.cls-14{stroke-dasharray:4.95 4.95;}.cls-15{stroke-dasharray:4.95 4.95;}.cls-27{fill:#b7d333;}.cls-36{fill:#919396;}.cls-36,.cls-37,.cls-38,.cls-35,.cls-39{font-family:Arial-BoldMT, Arial;font-weight:700;}.cls-36,.cls-37,.cls-38,.cls-39{font-size:9px;}.cls-40{fill:#d0d1d2;}.cls-16{stroke:#0ea94b;}.cls-41{letter-spacing:0em;}.cls-42{font-size:12.36px;}.cls-43{font-size:14.83px;}.cls-34{font-size:30px;}.cls-44{letter-spacing:0em;}.cls-18{stroke-dasharray:4.96 4.96;}.cls-19{stroke-dasharray:4.96 4.96;}.cls-45{opacity:.5;}.cls-37{fill:#2ba4dd;}.cls-20{stroke-dasharray:4.94 4.94;}.cls-21{stroke-dasharray:4.94 4.94;}.cls-22{stroke-dasharray:5.04 5.04;}.cls-23{stroke:#929395;}.cls-38{fill:#0baa4b;}.cls-24{stroke-dasharray:4.99 4.99;}.cls-46{letter-spacing:-.02em;}.cls-47{letter-spacing:-.02em;}.cls-48{letter-spacing:-.02em;}.cls-49{letter-spacing:-.02em;}.cls-50{letter-spacing:-.02em;}.cls-51{letter-spacing:-.02em;}.cls-52{letter-spacing:-.04em;}.cls-53{letter-spacing:-.04em;}.cls-54{letter-spacing:-.03em;}.cls-55{letter-spacing:-.03em;}.cls-56{letter-spacing:-.03em;}.cls-57{letter-spacing:-.03em;}.cls-58{letter-spacing:0em;}.cls-59,.cls-29{fill:#4e494b;}.cls-35{font-size:10px;}.cls-25{stroke-dasharray:5;}.cls-60{letter-spacing:.03em;}.cls-61{letter-spacing:.02em;}.cls-62{letter-spacing:.05em;}.cls-39{fill:#eb222a;}.cls-63{letter-spacing:.01em;}</style>
    </defs>
  </defs>
  <sodipodi:namedview
     id="namedview183"
     pagecolor="#505050"
     bordercolor="#eeeeee"
     borderopacity="1"
     inkscape:showpageshadow="0"
     inkscape:pageopacity="0"
     inkscape:pagecheckerboard="0"
     inkscape:deskcolor="#d1d1d1"
     inkscape:zoom="0.75424724"
     inkscape:cx="1176.007"
     inkscape:cy="1581.0466"
     inkscape:window-width="2560"
     inkscape:window-height="1351"
     inkscape:window-x="-9"
     inkscape:window-y="-9"
     inkscape:window-maximized="1"
     inkscape:current-layer="svg183" />
  <path
     class="cls-45"
     d="M -1.14e-5,-1.35e-5 V 3375 H 2850 V -1.35e-5 Z"
     id="path1"
     style="stroke-width:4.16667"
     sodipodi:nodetypes="ccccc" />
  <path
     class="cls-17"
     d="m 1280.25,191.54165 h -119.875 c -66.4583,0 -120.3333,53.87501 -120.3333,120.33334 v 362.20834 c 0,22.91666 0,60.41666 0,83.33333 v 155.20833 c 0,22.91667 0,41.66667 0,41.66667 0,0 -18.75,0.125 -41.6667,0.29167 L 843,955.62499 c -22.91667,0.16667 -60.41667,1.25 -83.29167,2.41667 L 69.624989,993.37499 c 0,0 -0.291667,0.16667 -0.291667,0.33334 v 989.33337 c 0,0 0.125,0.3333 0.291667,0.3333 l 731.666671,37.5 c 0,0 0,0 0,0 l 238.37504,-1.625 c 0,0 0.3333,0.1667 0.3333,0.3333 V 3211.875 c 0,22.9167 0,41.3333 0,40.9167 0,-0.4167 0.4167,4.1666 0.9583,10.2083 l 1.75,5 c 5.25,15 17.75,26.625 33.2917,30.7083 l 3.9167,1.0417 c 4.5833,0.2917 27.0833,0.5417 50,0.5417 h 585.375 c 22.9166,0 47.4166,-0.5834 54.4583,-1.2917 l 5.7083,-2.375 c 11.6667,-4.8333 21.0417,-14.1667 25.9584,-25.7917 l 2.4583,-5.7916 c 0.75,-7.1667 1.3333,-31.75 1.3333,-54.6667 l -0.1666,-1190.7917 c 0,0 0.1666,-0.3333 0.3333,-0.3333 l 240.2083,1.625 c 0,0 0,0 0,0 l 734.6667,-37.5 c 0,0 0.2917,-0.1667 0.2917,-0.3333 V 993.70833 c 0,0 -0.125,-0.33334 -0.2917,-0.33334 l -732.125,-39.08333 c 0,0 0,0 0,0 h -201.4583 c -22.9167,0 -41.875,0 -42.125,0 -0.25,0 -0.4167,-18.75 -0.375,-41.66667 l 0.75,-555.66667 c 0,-22.91666 -0.3334,-49.70833 -0.8334,-59.58333 l -1.4166,-8.04167 c -1.0417,-5.875 -2.375,-11.41666 -4,-16.66666 -17.7917,-57.16667 -69.7917,-78.41667 -109.0834,-81.04167 -29.6666,-2 -85.4583,-1.20834 -85.4583,-1.20834 -22.9167,0.33334 -44.5833,0.375 -48.125,0.0833 l -2.2917,-0.91667 c -16.125,-6.29167 -3.1666,-30.95833 14.4584,-22.29167 24.9583,12.29167 59.1666,-92.58333 -113.25,-92.70833 C 1311.2917,74.499987 1311.625,164.79165 1292,186.66665 l -2.7917,3.125 c -4,0.875 -7.2916,1.58334 -7.2916,1.625 v 0"
     id="clipping"
     style="stroke-width:4.16667;fill:#6d6d6d;fill-opacity:1;stroke:none" />
  <line
     class="cls-4"
     x1="801.75"
     y1="2019.2917"
     x2="801.75"
     y2="954.33331"
     id="line157"
     style="stroke-width:4.16667" />
  <path
     id="actualSize"
     style="fill:#ababab;stroke-miterlimit:10"
     class="cls-4"
     transform="matrix(4.1666667,0,0,4.1666667,-1.14e-5,-1.35e-5)"
     d="M 250.77,229.04 H 434.39 V 484.63 H 250.78 l -0.01,-255.59" />
  <line
     class="cls-4"
     x1="1809.9584"
     y1="2258.3333"
     x2="1043.9584"
     y2="2258.3333"
     id="line158"
     style="stroke-width:4.16667" />
  <line
     class="cls-4"
     x1="2049.5833"
     y1="2020.875"
     x2="2049.5833"
     y2="955.91663"
     id="line159"
     style="stroke-width:4.16667" />
  <line
     class="cls-4"
     x1="1045.4584"
     y1="715.75"
     x2="1809.9584"
     y2="715.75"
     id="line160"
     style="stroke-width:4.16667" />
  <polyline
     class="cls-12"
     points="422.97 238.04 425.47 238.04 425.47 240.54"
     id="polyline160"
     transform="matrix(4.1666667,0,0,4.1666667,-1.14e-5,-1.35e-5)" />
  <line
     class="cls-14"
     x1="1772.7916"
     y1="1022.875"
     x2="1772.7916"
     y2="1961.0416"
     id="line161"
     style="stroke-width:4.16667" />
  <polyline
     class="cls-12"
     points="425.47 473.13 425.47 475.63 422.97 475.63"
     id="polyline161"
     transform="matrix(4.1666667,0,0,4.1666667,-1.14e-5,-1.35e-5)" />
  <line
     class="cls-3"
     x1="1742.125"
     y1="1981.7917"
     x2="1103.8334"
     y2="1981.7917"
     id="line162"
     style="stroke-width:4.16667" />
  <polyline
     class="cls-12"
     points="262.48 475.63 259.98 475.63 259.98 473.13"
     id="polyline162"
     transform="matrix(4.1666667,0,0,4.1666667,-1.14e-5,-1.35e-5)" />
  <line
     class="cls-15"
     x1="1083.25"
     y1="1950.75"
     x2="1083.25"
     y2="1012.5416"
     id="line163"
     style="stroke-width:4.16667" />
  <polyline
     class="cls-12"
     points="259.98 240.54 259.98 238.04 262.48 238.04"
     id="polyline163"
     transform="matrix(4.1666667,0,0,4.1666667,-1.14e-5,-1.35e-5)" />
  <line
     class="cls-3"
     x1="1113.9584"
     y1="991.83331"
     x2="1752.25"
     y2="991.83331"
     id="line164"
     style="stroke-width:4.16667" />
  <polyline
     class="cls-12"
     points="180.93 238.17 183.42 238.04 183.42 240.54"
     id="polyline164"
     transform="matrix(4.1666667,0,0,4.1666667,-1.14e-5,-1.35e-5)" />
  <line
     class="cls-18"
     x1="764.25"
     y1="1022.9167"
     x2="764.25"
     y2="1962.625"
     id="line165"
     style="stroke-width:4.16667" />
  <polyline
     class="cls-12"
     points="183.42 473.51 183.42 476.01 180.93 475.88"
     id="polyline165"
     transform="matrix(4.1666667,0,0,4.1666667,-1.14e-5,-1.35e-5)" />
  <line
     class="cls-21"
     x1="733.33331"
     y1="1981.7083"
     x2="127.49999"
     y2="1948.5416"
     id="line166"
     style="stroke-width:4.16667" />
  <polyline
     class="cls-12"
     points="28.14 467.51 25.64 467.38 25.64 464.88"
     id="polyline166"
     transform="matrix(4.1666667,0,0,4.1666667,-1.14e-5,-1.35e-5)" />
  <line
     class="cls-10"
     x1="106.83332"
     y1="1916.0833"
     x2="106.83332"
     y2="1048.4166"
     id="line167"
     style="stroke-width:4.16667" />
  <polyline
     class="cls-12"
     points="25.64 249.11 25.64 246.61 28.14 246.47"
     id="polyline167"
     transform="matrix(4.1666667,0,0,4.1666667,-1.14e-5,-1.35e-5)" />
  <line
     class="cls-20"
     x1="137.79166"
     y1="1025.875"
     x2="743.58337"
     y2="992.95831"
     id="line168"
     style="stroke-width:4.16667" />
  <polyline
     class="cls-12"
     points="503.4 238.17 500.9 238.04 500.9 240.54"
     id="polyline168"
     transform="matrix(4.1666667,0,0,4.1666667,-1.14e-5,-1.35e-5)" />
  <line
     class="cls-19"
     x1="2087.0833"
     y1="1022.9167"
     x2="2087.0833"
     y2="1962.625"
     id="line169"
     style="stroke-width:4.16667" />
  <polyline
     class="cls-12"
     points="500.9 473.51 500.9 476.01 503.4 475.88"
     id="polyline169"
     transform="matrix(4.1666667,0,0,4.1666667,-1.14e-5,-1.35e-5)" />
  <line
     class="cls-7"
     x1="2118"
     y1="1981.7917"
     x2="2722.5"
     y2="1950.75"
     id="line170"
     style="stroke-width:4.16667" />
  <polyline
     class="cls-12"
     points="655.86 468.05 658.36 467.93 658.36 465.43"
     id="polyline170"
     transform="matrix(4.1666667,0,0,4.1666667,-1.14e-5,-1.35e-5)" />
  <line
     class="cls-22"
     x1="2743.125"
     y1="1918.2917"
     x2="2742.25"
     y2="1047.5834"
     id="line171"
     style="stroke-width:4.16667" />
  <polyline
     class="cls-12"
     points="658.13 248.9 658.13 246.4 655.63 246.27"
     id="polyline171"
     transform="matrix(4.1666667,0,0,4.1666667,-1.14e-5,-1.35e-5)" />
  <line
     class="cls-9"
     x1="2711.3333"
     y1="1025"
     x2="2107.7083"
     y2="992.91669"
     id="line172"
     style="stroke-width:4.16667" />
  <polyline
     class="cls-12"
     points="260.52 160.4 260.53 162.9 263.03 162.9"
     id="polyline172"
     transform="matrix(4.1666667,0,0,4.1666667,-1.14e-5,-1.35e-5)" />
  <line
     class="cls-2"
     x1="1116.2084"
     y1="678.74994"
     x2="1754.5"
     y2="678.74994"
     id="line173"
     style="stroke-width:4.16667" />
  <polyline
     class="cls-12"
     points="423.52 162.9 426.02 162.9 426.02 160.4"
     id="polyline173"
     transform="matrix(4.1666667,0,0,4.1666667,-1.14e-5,-1.35e-5)" />
  <path
     class="cls-6"
     d="M 1775.0833,647.49999 V 324.20832 c -2.0833,-41.04166 -46.875,-101.70833 -121.4166,-94.625 h -450.25 c -82.375,-2.54167 -119.25,55.70834 -118.4167,96.125 l 0.5417,332.20834"
     id="path173"
     style="stroke-width:4.16667" />
  <path
     class="cls-8"
     d="m 1274.6667,2811.375 c 19.25,23.5417 68.2083,-5.9583 167.4583,-5.9583 112.0417,0 169.1667,33.4583 191.5,4.9583 23.7083,-30.2917 -10.9583,-84.5 -181.7083,-84.5 -170.75,0 -205.75,50.625 -177.25,85.4583 z"
     id="path174"
     style="stroke-width:4.16667" />
  <path
     class="cls-25"
     d="m 1082.25,2295.25 h 689.125 v 919.3333 c 0,26.3334 -21.375,47.75 -47.75,47.75 h -593.6667 c -26.3333,0 -47.75,-21.375 -47.75,-47.75 v -919.3333 0 z"
     id="path175"
     style="stroke-width:4.16667" />
  <rect
     class="cls-25"
     x="1079.9584"
     y="2056.7917"
     width="690.04169"
     height="164.04166"
     id="rect175"
     style="stroke-width:4.16667" />
  <rect
     class="cls-25"
     x="1080.125"
     y="753.25"
     width="690.04169"
     height="163.54167"
     id="rect176"
     style="stroke-width:4.16667" />
  <rect
     class="cls-25"
     x="-1981.9167"
     y="839.24994"
     width="990.08331"
     height="167.79167"
     transform="rotate(-90)"
     id="rect177"
     style="stroke-width:4.16667" />
  <rect
     class="cls-25"
     x="-1981.875"
     y="1847.4584"
     width="990.08331"
     height="164.625"
     transform="rotate(-90)"
     id="rect178"
     style="stroke-width:4.16667" />
  <path
     id="Curved_slice"
     class="cls-5"
     d="m 1301.5417,2793 c 0,0 27.25,-24.9167 150,-24.9167 122.75,0 150,24.9167 150,24.9167" />
</svg>
