<?xml version="1.0" encoding="UTF-8" standalone="no"?>
<svg
   viewBox="0 0 3225 3750"
   width="3225"
   height="3750"
   version="1.1"
   id="svg183"
   sodipodi:docname="PokerHookBox108Back.svg"
   inkscape:version="1.3.2 (091e20e, 2023-11-25, custom)"
   xmlns:inkscape="http://www.inkscape.org/namespaces/inkscape"
   xmlns:sodipodi="http://sodipodi.sourceforge.net/DTD/sodipodi-0.dtd"
   xmlns="http://www.w3.org/2000/svg"
   xmlns:svg="http://www.w3.org/2000/svg">
  <defs
     id="defs183">
    <defs
       id="defs1">
      <style
         id="style1">.cls-1,.cls-2,.cls-3,.cls-4,.cls-5,.cls-6,.cls-7,.cls-8,.cls-9,.cls-10,.cls-11,.cls-12,.cls-13,.cls-14,.cls-15,.cls-16,.cls-17,.cls-18,.cls-19,.cls-20,.cls-21,.cls-22,.cls-23,.cls-24{fill:none;}.cls-2{stroke-dasharray:4.86 4.86;}.cls-2,.cls-3,.cls-4,.cls-5,.cls-6,.cls-7,.cls-8,.cls-9,.cls-11,.cls-13,.cls-14,.cls-15,.cls-16,.cls-17,.cls-18,.cls-19,.cls-20,.cls-21,.cls-22,.cls-24{stroke-miterlimit:10;}.cls-2,.cls-3,.cls-5,.cls-6,.cls-7,.cls-8,.cls-9,.cls-11,.cls-13,.cls-14,.cls-17,.cls-18,.cls-19,.cls-20,.cls-21,.cls-24{stroke:#26aae1;}.cls-3{stroke-dasharray:4.86 4.86;}.cls-4{stroke:#0baa4b;}.cls-25,.cls-26,.cls-27,.cls-28{fill-rule:evenodd;}.cls-25,.cls-29{fill:#fff;}.cls-30,.cls-31,.cls-32,.cls-33{font-family:Arial-Black, 'Arial Black';font-weight:800;}.cls-30,.cls-32,.cls-33,.cls-34{fill:#231f20;}.cls-5{stroke-dasharray:5 5;}.cls-6{stroke-dasharray:5.01 5.01;}.cls-7{stroke-dasharray:4.92 4.92;}.cls-8{stroke-dasharray:5 5;}.cls-9{stroke-dasharray:5.02 5.02;}.cls-10,.cls-12,.cls-15,.cls-22,.cls-23{stroke-width:2px;}.cls-10,.cls-23{stroke:#2ba4dd;}.cls-12{stroke:#ec2224;}.cls-31{fill:#020202;}.cls-31,.cls-32{font-size:12.75px;}.cls-13{stroke-dasharray:4.95 4.95;}.cls-14{stroke-dasharray:4.91 4.91;}.cls-26{fill:#b7d333;}.cls-35{fill:#919396;}.cls-35,.cls-36,.cls-37,.cls-34,.cls-38{font-family:Arial-BoldMT, Arial;font-weight:700;}.cls-35,.cls-36,.cls-37,.cls-38{font-size:9px;}.cls-39{fill:#d0d1d2;}.cls-15{stroke:#0ea94b;}.cls-40{letter-spacing:0em;}.cls-16{stroke:red;}.cls-41{font-size:12.36px;}.cls-42{font-size:14.83px;}.cls-33{font-size:30px;}.cls-43{letter-spacing:0em;}.cls-17{stroke-dasharray:4.94 4.94;}.cls-18{stroke-dasharray:4.94 4.94;}.cls-19{stroke-dasharray:4.94 4.94;}.cls-44{opacity:.5;}.cls-36{fill:#2ba4dd;}.cls-20{stroke-dasharray:4.94 4.94;}.cls-21{stroke-dasharray:4.94 4.94;}.cls-22{stroke:#929395;}.cls-37{fill:#0baa4b;}.cls-23{stroke-dasharray:4.99 4.99;}.cls-45{letter-spacing:-.02em;}.cls-46{letter-spacing:-.02em;}.cls-47{letter-spacing:-.02em;}.cls-48{letter-spacing:-.02em;}.cls-49{letter-spacing:-.02em;}.cls-50{letter-spacing:-.02em;}.cls-51{letter-spacing:-.04em;}.cls-52{letter-spacing:-.04em;}.cls-53{letter-spacing:-.03em;}.cls-54{letter-spacing:-.03em;}.cls-55{letter-spacing:-.03em;}.cls-56{letter-spacing:-.03em;}.cls-57{letter-spacing:0em;}.cls-58,.cls-28{fill:#4e494b;}.cls-34{font-size:10px;}.cls-24{stroke-dasharray:5;}.cls-59{letter-spacing:.03em;}.cls-60{letter-spacing:.02em;}.cls-61{letter-spacing:.05em;}.cls-38{fill:#eb222a;}.cls-62{letter-spacing:.01em;}</style>
    </defs>
  </defs>
  <sodipodi:namedview
     id="namedview183"
     pagecolor="#505050"
     bordercolor="#eeeeee"
     borderopacity="1"
     inkscape:showpageshadow="0"
     inkscape:pageopacity="0"
     inkscape:pagecheckerboard="0"
     inkscape:deskcolor="#d1d1d1"
     inkscape:zoom="0.67882252"
     inkscape:cx="1627.8187"
     inkscape:cy="1979.1624"
     inkscape:window-width="2560"
     inkscape:window-height="1351"
     inkscape:window-x="-9"
     inkscape:window-y="-9"
     inkscape:window-maximized="1"
     inkscape:current-layer="svg183" />
  <path
     class="cls-44"
     d="M -1.29e-5,-1.5e-5 V 3750 H 3225 V -1.5e-5 Z"
     id="path1"
     style="stroke-width:4.16667"
     sodipodi:nodetypes="ccccc" />
  <path
     class="cls-16"
     d="m 2445.375,1142.2917 c 0,0 18.5417,1.2083 41.4167,2.375 L 3179.7083,1180 c 0.25,0 0.4584,0.2083 0.4584,0.5 v 989.0833 c 0,0.25 -0.2084,0.4584 -0.4584,0.5 L 2445,2208.6667 c 0,0 0,0 0,0 h -450.5 c -0.25,0 -0.5,0.2083 -0.5,0.5 l -0.7083,1401.5416 c 0,22.9167 0,41.3334 0,40.9167 0,-0.4167 -0.375,3.7917 -0.8334,9.4167 l -1.5,4.6666 c -3.7083,11.5417 -11.6666,21.2084 -22.0416,27.125 l -7.0417,4 c -9.25,1.25 -35.5833,2.2917 -58.5,2.2917 h -583.7083 c -22.9167,0 -45.875,-0.2917 -50.9584,-0.6667 l -4.3333,-1.25 c -11.2917,-3.3333 -20.875,-10.6666 -27.0833,-20.375 -2.375,-3.75 -4.2917,-7.8333 -5.5834,-12.2083 l -1.2916,-4.3333 c -0.375,-5.1667 -0.7084,-9.0417 -0.7084,-8.625 0,0.4166 0,-18 0,-40.9167 l -0.75,-1401.5417 c 0,-0.25 -0.2083,-0.5 -0.5,-0.5 H 821.54166 c -22.91667,0 -60.41667,-0.9583 -83.29167,-2.125 L 45.333321,2171.25 c -0.25,0 -0.458334,-0.2083 -0.458334,-0.5 v -989.0833 c 0,-0.25 0.208334,-0.4584 0.458334,-0.5 l 731.958339,-39.0834 c 0,0 0,0 0,0 h 410.87504 c 22.9166,0 41.7916,-0.125 41.9583,-0.25 0.1667,-0.125 0.2917,-19 0.2917,-41.9166 V 733.74999 c 0,-22.91667 0,-60.41667 -0.083,-83.33333 l -0.7083,-317.12501 c -0.042,-22.91666 0.6667,-52.95833 1.5833,-66.70833 l 2.7084,-10.70833 c 15.6666,-62.29167 70.1666,-85.08334 111,-87.875 29.6666,-2 88.375,-1.16667 88.375,-1.16667 22.9166,0.33333 46,0 51.2916,-0.75 l 2.5834,-2.04167 c 10.4166,-8.25 -1.7917,-28.29166 -17.9584,-20.33333 -24.9583,12.29167 -59.1666,-92.583335 113.25,-92.708335 141.0417,-0.08333 143.2917,87.000005 161.875,110.875005 l 3.0417,3.91666 c 4.4583,1.125 8.0833,2.08334 8.0833,2.08334 0,0 0.4167,0 0.875,0 0.4584,0 19.625,0 42.5417,0 h 76.0833 c 66.5417,0 120.5,53.95833 120.5,120.5 v 362.04167 c 0,22.91666 0,60.41666 -0.042,83.33333 L 1995,1100 c 0,22.9167 -0.042,41.75 0,41.875 0.042,0.125 18.75,0.2083 41.6667,0.2083 h 367.25 c 22.9166,0 41.5833,0.125 41.4583,0.25 z"
     id="clipping"
     style="stroke-width:4.16667;fill:#6c6c6c;fill-opacity:1;stroke:none" />
  <line
     class="cls-4"
     x1="777.24994"
     y1="2207.0417"
     x2="777.24994"
     y2="1142.0416"
     id="line157"
     style="stroke-width:4.16667" />
  <line
     class="cls-4"
     x1="1229.8334"
     y1="692.04163"
     x2="1994"
     y2="692.04163"
     id="line158"
     style="stroke-width:4.16667" />
  <path
     id="actualSize"
     style="fill:#b6b6b6;stroke-miterlimit:10"
     class="cls-4"
     transform="matrix(4.1666667,0,0,4.1666667,-1.29e-5,-1.5e-5)"
     d="m 295.16,274.09 h 183.4 l -0.23,255.98 H 294.94 l 0.22,-255.98" />
  <line
     class="cls-4"
     x1="1993.4167"
     y1="2657.0417"
     x2="1231.3333"
     y2="2657.0417"
     id="line159"
     style="stroke-width:4.16667" />
  <line
     class="cls-4"
     x1="2445.9167"
     y1="2207.0417"
     x2="2445.9167"
     y2="1142.0416"
     id="line160"
     style="stroke-width:4.16667" />
  <polyline
     class="cls-11"
     points="467.5 283.54 470 283.54 470 286.04"
     id="polyline160"
     transform="matrix(4.1666667,0,0,4.1666667,-1.29e-5,-1.5e-5)" />
  <line
     class="cls-17"
     x1="1958.3334"
     y1="1212.4167"
     x2="1958.3334"
     y2="2149.2083"
     id="line161"
     style="stroke-width:4.16667" />
  <polyline
     class="cls-11"
     points="470 518.28 470 520.78 467.5 520.78"
     id="polyline161"
     transform="matrix(4.1666667,0,0,4.1666667,-1.29e-5,-1.5e-5)" />
  <line
     class="cls-3"
     x1="1927.6667"
     y1="2169.9167"
     x2="1289.7916"
     y2="2169.9167"
     id="line162"
     style="stroke-width:4.16667" />
  <polyline
     class="cls-11"
     points="307.12 520.78 304.62 520.78 304.62 518.28"
     id="polyline162"
     transform="matrix(4.1666667,0,0,4.1666667,-1.29e-5,-1.5e-5)" />
  <line
     class="cls-18"
     x1="1269.25"
     y1="2138.9167"
     x2="1269.25"
     y2="1202.125"
     id="line163"
     style="stroke-width:4.16667" />
  <polyline
     class="cls-11"
     points="304.62 286.04 304.62 283.54 307.12 283.54"
     id="polyline163"
     transform="matrix(4.1666667,0,0,4.1666667,-1.29e-5,-1.5e-5)" />
  <line
     class="cls-3"
     x1="1299.9167"
     y1="1181.4167"
     x2="1937.7917"
     y2="1181.4167"
     id="line164"
     style="stroke-width:4.16667" />
  <polyline
     class="cls-11"
     points="175.05 283.67 177.54 283.54 177.54 286.04"
     id="polyline164"
     transform="matrix(4.1666667,0,0,4.1666667,-1.29e-5,-1.5e-5)" />
  <line
     class="cls-13"
     x1="739.74994"
     y1="1212.4583"
     x2="739.74994"
     y2="2150.4165"
     id="line165"
     style="stroke-width:4.16667" />
  <polyline
     class="cls-11"
     points="177.54 518.57 177.54 521.07 175.05 520.93"
     id="polyline165"
     transform="matrix(4.1666667,0,0,4.1666667,-1.29e-5,-1.5e-5)" />
  <line
     class="cls-20"
     x1="708.83331"
     y1="2169.4165"
     x2="102.99998"
     y2="2136.3333"
     id="line166"
     style="stroke-width:4.16667" />
  <polyline
     class="cls-11"
     points="22.26 512.59 19.76 512.45 19.76 509.95"
     id="polyline166"
     transform="matrix(4.1666667,0,0,4.1666667,-1.29e-5,-1.5e-5)" />
  <line
     class="cls-6"
     x1="82.333321"
     y1="2103.9167"
     x2="82.333321"
     y2="1237.9166"
     id="line167"
     style="stroke-width:4.16667" />
  <polyline
     class="cls-11"
     points="19.76 294.59 19.76 292.09 22.26 291.96"
     id="polyline167"
     transform="matrix(4.1666667,0,0,4.1666667,-1.29e-5,-1.5e-5)" />
  <line
     class="cls-21"
     x1="113.29166"
     y1="1215.375"
     x2="719.08331"
     y2="1182.5416"
     id="line168"
     style="stroke-width:4.16667" />
  <polyline
     class="cls-11"
     points="598.52 283.61 596.02 283.48 596.02 285.98"
     id="polyline168"
     transform="matrix(4.1666667,0,0,4.1666667,-1.29e-5,-1.5e-5)" />
  <line
     class="cls-19"
     x1="2483.4167"
     y1="1212.1667"
     x2="2483.4167"
     y2="2149.2083"
     id="line169"
     style="stroke-width:4.16667" />
  <polyline
     class="cls-11"
     points="596.02 518.28 596.02 520.78 598.52 520.65"
     id="polyline169"
     transform="matrix(4.1666667,0,0,4.1666667,-1.29e-5,-1.5e-5)" />
  <line
     class="cls-7"
     x1="2514.2917"
     y1="2168.3335"
     x2="3117.7083"
     y2="2137.375"
     id="line170"
     style="stroke-width:4.16667" />
  <polyline
     class="cls-11"
     points="750.71 512.84 753.2 512.72 753.2 510.22"
     id="polyline170"
     transform="matrix(4.1666667,0,0,4.1666667,-1.29e-5,-1.5e-5)" />
  <line
     class="cls-9"
     x1="3138.3335"
     y1="2105"
     x2="3137.4165"
     y2="1236.75"
     id="line171"
     style="stroke-width:4.16667" />
  <polyline
     class="cls-11"
     points="752.98 294.31 752.97 291.81 750.48 291.68"
     id="polyline171"
     transform="matrix(4.1666667,0,0,4.1666667,-1.29e-5,-1.5e-5)" />
  <line
     class="cls-14"
     x1="3106.5835"
     y1="1214.25"
     x2="2504.0415"
     y2="1182.25"
     id="line172"
     style="stroke-width:4.16667" />
  <polyline
     class="cls-11"
     points="305.27 154.59 305.28 157.09 307.78 157.09"
     id="polyline172"
     transform="matrix(4.1666667,0,0,4.1666667,-1.29e-5,-1.5e-5)" />
  <line
     class="cls-2"
     x1="1302.6667"
     y1="654.54163"
     x2="1940.9583"
     y2="654.54163"
     id="line173"
     style="stroke-width:4.16667" />
  <polyline
     class="cls-11"
     points="468.26 157.09 470.76 157.09 470.76 154.59"
     id="polyline173"
     transform="matrix(4.1666667,0,0,4.1666667,-1.29e-5,-1.5e-5)" />
  <path
     class="cls-5"
     d="M 1961.5,623.29166 V 299.99999 c -2.0833,-41.04167 -46.875,-101.70834 -121.4167,-94.625 h -450.25 c -82.375,-2.54167 -119.25,55.70833 -118.4166,96.125 l 0.5416,332.20833"
     id="path173"
     style="stroke-width:4.16667" />
  <path
     class="cls-8"
     d="m 1460.7917,3218.5417 c 19.25,23.5416 68.2083,-5.9584 167.4583,-5.9584 112.0417,0 169.1667,33.4584 191.5,4.9584 23.7083,-30.2917 -10.9583,-84.5 -181.7083,-84.5 -170.75,0 -205.75,50.625 -177.25,85.4583 z"
     id="path174"
     style="stroke-width:4.16667" />
  <path
     class="cls-24"
     d="m 1268.4167,2702.4167 h 689.125 V 3621.75 c 0,26.3333 -21.375,47.75 -47.75,47.75 H 1316.125 c -26.3333,0 -47.75,-21.375 -47.75,-47.75 v -919.3333 0 z"
     id="path175"
     style="stroke-width:4.16667" />
  <rect
     class="cls-24"
     x="1266.4166"
     y="2246.125"
     width="690.04169"
     height="373.375"
     id="rect175"
     style="stroke-width:4.16667" />
  <rect
     class="cls-24"
     x="1266.5834"
     y="729.54163"
     width="690.04169"
     height="375"
     id="rect176"
     style="stroke-width:4.16667" />
  <rect
     class="cls-24"
     x="-2168.5417"
     y="814.75"
     width="991.58331"
     height="379.08334"
     transform="rotate(-90)"
     id="rect177"
     style="stroke-width:4.16667" />
  <rect
     class="cls-24"
     x="-2168.5417"
     y="2030.9167"
     width="991.58331"
     height="377.5"
     transform="rotate(-90)"
     id="rect178"
     style="stroke-width:4.16667" />
  <path
     id="Curved_slice"
     class="cls-16"
     d="m 1486.4583,3189.875 c 0,0 27.25,-22.4583 150,-22.4583 122.75,0 150,22.4583 150,22.4583"
     style="stroke-width:4.16667" />
</svg>
