<?xml version="1.0" encoding="UTF-8" standalone="no"?>
<!-- Generator: Adobe Illustrator 15.0.0, SVG Export Plug-In . SVG Version: 6.00 Build 0)  -->

<svg
   version="1.1"
   x="0px"
   y="0px"
   width="738px"
   height="540px"
   viewBox="0 0 738 540"
   enable-background="new 0 0 738 540"
   xml:space="preserve"
   id="svg235"
   sodipodi:docname="PokerCardTuckBox.svg"
   inkscape:version="1.3.2 (091e20e, 2023-11-25, custom)"
   xmlns:inkscape="http://www.inkscape.org/namespaces/inkscape"
   xmlns:sodipodi="http://sodipodi.sourceforge.net/DTD/sodipodi-0.dtd"
   xmlns="http://www.w3.org/2000/svg"
   xmlns:svg="http://www.w3.org/2000/svg"><defs
     id="defs235">





	
	
	
	
	
	
	
	

	

	

	

		
		
	
		
		
	
			
		
			
			
			
			
			
			
			
			
			
			
			
			
			
		
			
		
			
			
			
			
			
			
			
			
			
			
			
			
			
		</defs><sodipodi:namedview
     id="namedview235"
     pagecolor="#505050"
     bordercolor="#eeeeee"
     borderopacity="1"
     inkscape:showpageshadow="0"
     inkscape:pageopacity="0"
     inkscape:pagecheckerboard="0"
     inkscape:deskcolor="#d1d1d1"
     inkscape:zoom="2.905149"
     inkscape:cx="224.94543"
     inkscape:cy="202.74347"
     inkscape:window-width="2560"
     inkscape:window-height="1351"
     inkscape:window-x="-9"
     inkscape:window-y="-9"
     inkscape:window-maximized="1"
     inkscape:current-layer="svg235" /><polygon
     fill="#929497"
     points="738,540 738,0 0,0 0,540 "
     id="polygon1" /><path
     fill="#ffffff"
     d="m 315.2,469 v 61.199 h -182 V 469 H 18 V 415 161 c 0,-29.82 24.18,-54 54,-54 h 61.2 V 45.8 c 0,-19.88 16.12,-36 36,-36 h 110 c 19.88,0 36,16.12 36,36 V 107 h 61.2 c 29.819,0 54,24.18 54,54 h 73 c 0,22 36,22 36,0 h 73 108 v 254 h -108 v 108.199 h -182 V 469 Z"
     id="clipping"
     style="fill:#777777;fill-opacity:1;stroke:none" /><line
     fill="none"
     stroke="#ec1c24"
     stroke-miterlimit="10"
     x1="18"
     y1="415"
     x2="18"
     y2="161"
     id="line235"
     style="fill:#777777;fill-opacity:1;stroke:none" /><path
     fill="none"
     stroke="#ec1c24"
     stroke-miterlimit="10"
     d="m 612.4,161 h -73 c 0,22 -36,22 -36,0 h -73"
     id="path236"
     style="fill:#777777;fill-opacity:1;stroke:none" /><polyline
     fill="none"
     stroke="#ec1c24"
     stroke-miterlimit="10"
     points="612.4,415 720.4,415 720.4,161 612.4,161    "
     id="polyline236"
     style="fill:#777777;fill-opacity:1;stroke:none" /><path
     fill="none"
     stroke="#ec1c24"
     stroke-miterlimit="10"
     d="m 18,161 c 0,-29.82 24.18,-54 54,-54 h 61.2"
     id="path237"
     style="fill:#777777;fill-opacity:1;stroke:none" /><path
     fill="none"
     stroke="#ec1c24"
     stroke-miterlimit="10"
     d="m 430.4,161 c 0,-29.82 -24.181,-54 -54,-54 h -61.2"
     id="path238"
     style="fill:#777777;fill-opacity:1;stroke:none" /><polyline
     fill="none"
     stroke="#ec1c24"
     stroke-miterlimit="10"
     points="133.2,189.799 133.2,107 133.2,45.799 162,45.799    "
     id="polyline238"
     style="fill:#777777;fill-opacity:1;stroke:none" /><polyline
     fill="none"
     stroke="#ec1c24"
     stroke-miterlimit="10"
     points="315.2,189.799 315.2,107 315.2,45.799 286.4,45.799         "
     id="polyline239"
     style="fill:#777777;fill-opacity:1;stroke:none" /><rect
     style="fill:#b1b1b1;stroke-width:10.9148;stroke-dashoffset:318.954;paint-order:markers stroke fill"
     id="actualSize"
     width="182.99899"
     height="255"
     x="132.84599"
     y="160.76801" /><path
     fill="none"
     stroke="#ec1c24"
     stroke-miterlimit="10"
     d="m 133.2,45.799 c 0,-19.88 16.12,-36 36,-36 h 110"
     id="path239"
     style="fill:#777777;fill-opacity:1;stroke:none" /><path
     fill="none"
     stroke="#ec1c24"
     stroke-miterlimit="10"
     d="m 315.2,45.799 c 0,-19.88 -16.12,-36 -36,-36"
     id="path240"
     style="fill:#777777;fill-opacity:1;stroke:none" /><polyline
     fill="none"
     stroke="#ec1c24"
     stroke-miterlimit="10"
     points="430.4,469 430.4,523.199 612.4,523.199 612.4,415    "
     id="polyline240"
     style="fill:#777777;fill-opacity:1;stroke:none" /><polyline
     fill="none"
     stroke="#ec1c24"
     stroke-miterlimit="10"
     points="315.2,469 430.4,469 430.4,415    "
     id="polyline241"
     style="fill:#777777;fill-opacity:1;stroke:none" /><polyline
     fill="none"
     stroke="#ec1c24"
     stroke-miterlimit="10"
     points="133.2,469 133.2,530.199 315.2,530.199 315.2,469      315.2,415    "
     id="polyline242"
     style="fill:#777777;fill-opacity:1;stroke:none" /><polyline
     fill="none"
     stroke="#ec1c24"
     stroke-miterlimit="10"
     points="18,415 18,469 133.2,469 133.2,415    "
     id="polyline243"
     style="fill:#777777;fill-opacity:1;stroke:none" /><path
     fill="#ffffff"
     d="m 315.2,469 v 61.199 h -182 V 469 H 18 V 415 161 c 0,-29.82 24.18,-54 54,-54 h 61.2 V 45.8 c 0,-19.88 16.12,-36 36,-36 h 110 c 19.88,0 36,16.12 36,36 V 107 h 61.2 c 29.819,0 54,24.18 54,54 h 73 c 0,22 36,22 36,0 h 73 108 v 254 h -108 v 108.199 h -182 V 469 Z"
     id="path1"
     style="fill:none" /><line
     fill="none"
     stroke="#ec1c24"
     stroke-miterlimit="10"
     x1="18"
     y1="415"
     x2="18"
     y2="161"
     id="line1"
     style="fill:none" /><path
     fill="none"
     stroke="#ec1c24"
     stroke-miterlimit="10"
     d="m 612.4,161 h -73 c 0,22 -36,22 -36,0 h -73"
     id="path2"
     style="fill:none" /><polyline
     fill="none"
     stroke="#ec1c24"
     stroke-miterlimit="10"
     points="612.4,415 720.4,415 720.4,161 612.4,161    "
     id="polyline2"
     style="fill:none" /><path
     fill="none"
     stroke="#ec1c24"
     stroke-miterlimit="10"
     d="m 18,161 c 0,-29.82 24.18,-54 54,-54 h 61.2"
     id="path3"
     style="fill:none" /><path
     fill="none"
     stroke="#ec1c24"
     stroke-miterlimit="10"
     d="m 430.4,161 c 0,-29.82 -24.181,-54 -54,-54 h -61.2"
     id="path4"
     style="fill:none" /><polyline
     fill="none"
     stroke="#ec1c24"
     stroke-miterlimit="10"
     points="133.2,189.799 133.2,107 133.2,45.799 162,45.799    "
     id="polyline4"
     style="fill:none" /><polyline
     fill="none"
     stroke="#ec1c24"
     stroke-miterlimit="10"
     points="315.2,189.799 315.2,107 315.2,45.799 286.4,45.799         "
     id="polyline5"
     style="fill:none" /><path
     fill="none"
     stroke="#ec1c24"
     stroke-miterlimit="10"
     d="m 133.2,45.799 c 0,-19.88 16.12,-36 36,-36 h 110"
     id="path5"
     style="fill:none" /><path
     fill="none"
     stroke="#ec1c24"
     stroke-miterlimit="10"
     d="m 315.2,45.799 c 0,-19.88 -16.12,-36 -36,-36"
     id="path6"
     style="fill:none" /><polyline
     fill="none"
     stroke="#ec1c24"
     stroke-miterlimit="10"
     points="430.4,469 430.4,523.199 612.4,523.199 612.4,415    "
     id="polyline6"
     style="fill:none" /><polyline
     fill="none"
     stroke="#ec1c24"
     stroke-miterlimit="10"
     points="315.2,469 430.4,469 430.4,415    "
     id="polyline7"
     style="fill:none" /><polyline
     fill="none"
     stroke="#ec1c24"
     stroke-miterlimit="10"
     points="133.2,469 133.2,530.199 315.2,530.199 315.2,469      315.2,415    "
     id="polyline8"
     style="fill:none" /><polyline
     fill="none"
     stroke="#ec1c24"
     stroke-miterlimit="10"
     points="18,415 18,469 133.2,469 133.2,415    "
     id="polyline9"
     style="fill:none" /><line
     fill="none"
     stroke="#8bc53f"
     stroke-miterlimit="10"
     x1="160.946"
     y1="45.799999"
     x2="287.746"
     y2="45.799999"
     id="line9" /><line
     fill="none"
     stroke="#8bc53f"
     stroke-miterlimit="10"
     x1="143.769"
     y1="415.26801"
     x2="18"
     y2="415.26801"
     id="line10" /><line
     fill="none"
     stroke="#8bc53f"
     stroke-miterlimit="10"
     x1="143.769"
     y1="161.26801"
     x2="18"
     y2="161.26801"
     id="line11" /><polyline
     fill="none"
     stroke="#8bc53f"
     stroke-miterlimit="10"
     points="315.113,415.268 430.4,415.268 430.4,161.268    315.113,161.268  "
     id="polyline11" /><line
     fill="none"
     stroke="#8bc53f"
     stroke-miterlimit="10"
     x1="612.36902"
     y1="415.26801"
     x2="612.36902"
     y2="161.26801"
     id="line12" /><g
     id="g1"><rect
       x="133.34599"
       y="190.067"
       fill="none"
       stroke="#8bc53f"
       stroke-miterlimit="10"
       width="181.99899"
       height="225.201"
       id="rect9" /><line
       fill="none"
       stroke="#8bc53f"
       stroke-miterlimit="10"
       x1="133.84599"
       y1="161.26801"
       x2="315.84497"
       y2="161.26801"
       id="line13" /></g><line
     fill="none"
     stroke="#8bc53f"
     stroke-miterlimit="10"
     x1="419.36899"
     y1="415.26801"
     x2="612.40002"
     y2="415.26801"
     id="line14" /></svg>
