<?xml version="1.0" encoding="UTF-8" standalone="no"?>
<svg
   viewBox="0 0 3075 3600"
   width="3075"
   height="3600"
   version="1.1"
   id="svg184"
   sodipodi:docname="PokerHookBox90.svg"
   inkscape:version="1.3.2 (091e20e, 2023-11-25, custom)"
   xmlns:inkscape="http://www.inkscape.org/namespaces/inkscape"
   xmlns:sodipodi="http://sodipodi.sourceforge.net/DTD/sodipodi-0.dtd"
   xmlns="http://www.w3.org/2000/svg"
   xmlns:svg="http://www.w3.org/2000/svg">
  <defs
     id="defs184">
    <defs
       id="defs1">
      <style
         id="style1">.cls-1,.cls-2,.cls-3,.cls-4,.cls-5,.cls-6,.cls-7,.cls-8,.cls-9,.cls-10,.cls-11,.cls-12,.cls-13,.cls-14,.cls-15,.cls-16,.cls-17,.cls-18,.cls-19,.cls-20,.cls-21,.cls-22,.cls-23,.cls-24{fill:none;}.cls-2{stroke-dasharray:4.86 4.86;}.cls-2,.cls-3,.cls-4,.cls-5,.cls-6,.cls-7,.cls-8,.cls-9,.cls-11,.cls-13,.cls-14,.cls-15,.cls-16,.cls-17,.cls-18,.cls-19,.cls-20,.cls-21,.cls-22,.cls-24{stroke-miterlimit:10;}.cls-2,.cls-3,.cls-5,.cls-6,.cls-7,.cls-8,.cls-9,.cls-11,.cls-13,.cls-14,.cls-17,.cls-18,.cls-19,.cls-20,.cls-21,.cls-24{stroke:#26aae1;}.cls-3{stroke-dasharray:4.86 4.86;}.cls-4{stroke:#0baa4b;}.cls-25,.cls-26,.cls-27,.cls-28{fill-rule:evenodd;}.cls-25,.cls-29{fill:#fff;}.cls-30,.cls-31,.cls-32,.cls-33{font-family:Arial-Black, 'Arial Black';font-weight:800;}.cls-30,.cls-32,.cls-33,.cls-34{fill:#231f20;}.cls-5{stroke-dasharray:5 5;}.cls-6{stroke-dasharray:5.01 5.01;}.cls-7{stroke-dasharray:4.92 4.92;}.cls-8{stroke-dasharray:5 5;}.cls-9{stroke-dasharray:5.02 5.02;}.cls-10,.cls-12,.cls-15,.cls-22,.cls-23{stroke-width:2px;}.cls-10,.cls-23{stroke:#2ba4dd;}.cls-12{stroke:#ec2224;}.cls-31{fill:#020202;}.cls-31,.cls-32{font-size:12.75px;}.cls-13{stroke-dasharray:4.95 4.95;}.cls-14{stroke-dasharray:4.91 4.91;}.cls-26{fill:#b7d333;}.cls-35{fill:#919396;}.cls-35,.cls-36,.cls-37,.cls-34,.cls-38{font-family:Arial-BoldMT, Arial;font-weight:700;}.cls-35,.cls-36,.cls-37,.cls-38{font-size:9px;}.cls-39{fill:#d0d1d2;}.cls-15{stroke:#0ea94b;}.cls-40{letter-spacing:0em;}.cls-16{stroke:red;}.cls-41{font-size:12.36px;}.cls-42{font-size:14.83px;}.cls-33{font-size:30px;}.cls-43{letter-spacing:0em;}.cls-17{stroke-dasharray:4.94 4.94;}.cls-18{stroke-dasharray:4.94 4.94;}.cls-19{stroke-dasharray:4.94 4.94;}.cls-44{opacity:.5;}.cls-36{fill:#2ba4dd;}.cls-20{stroke-dasharray:4.94 4.94;}.cls-21{stroke-dasharray:4.94 4.94;}.cls-22{stroke:#929395;}.cls-37{fill:#0baa4b;}.cls-23{stroke-dasharray:4.99 4.99;}.cls-45{letter-spacing:-.02em;}.cls-46{letter-spacing:-.02em;}.cls-47{letter-spacing:-.02em;}.cls-48{letter-spacing:-.02em;}.cls-49{letter-spacing:-.02em;}.cls-50{letter-spacing:-.02em;}.cls-51{letter-spacing:-.06em;}.cls-52{letter-spacing:-.04em;}.cls-53{letter-spacing:-.04em;}.cls-54{letter-spacing:-.03em;}.cls-55{letter-spacing:-.03em;}.cls-56{letter-spacing:-.03em;}.cls-57{letter-spacing:-.03em;}.cls-58{letter-spacing:0em;}.cls-59,.cls-28{fill:#4e494b;}.cls-34{font-size:10px;}.cls-24{stroke-dasharray:5;}.cls-60{letter-spacing:.03em;}.cls-61{letter-spacing:.02em;}.cls-62{letter-spacing:.05em;}.cls-38{fill:#eb222a;}.cls-63{letter-spacing:.01em;}</style>
    </defs>
  </defs>
  <sodipodi:namedview
     id="namedview184"
     pagecolor="#505050"
     bordercolor="#eeeeee"
     borderopacity="1"
     inkscape:showpageshadow="0"
     inkscape:pageopacity="0"
     inkscape:pagecheckerboard="0"
     inkscape:deskcolor="#d1d1d1"
     inkscape:zoom="1"
     inkscape:cx="1855"
     inkscape:cy="2149.5"
     inkscape:window-width="2560"
     inkscape:window-height="1351"
     inkscape:window-x="-9"
     inkscape:window-y="-9"
     inkscape:window-maximized="1"
     inkscape:current-layer="svg184" />
  <path
     class="cls-44"
     d="M -1.23e-5,-1.44e-5 V 3600 H 3075 V -1.44e-5 Z"
     id="path1"
     style="stroke-width:4.16667"
     sodipodi:nodetypes="ccccc" />
  <path
     class="cls-16"
     d="m 1917.4583,3504.5417 0.7084,-1331.7917 c 0,-22.9167 0.25,-41.6667 0.5,-41.6667 0.25,0 19.2083,0.083 42.125,0.1667 l 297.6666,1.2083 c 22.9167,0.083 60.375,-0.8333 83.2917,-2.0416 l 692.25,-36.875 c 0.2083,0 0.375,-0.2084 0.375,-0.4167 v -988.7917 c 0,0 -0.125,-0.2916 -0.2917,-0.3333 L 2341,1068.625 c -22.875,-1.1667 -41.5417,-2.25 -41.4167,-2.375 0.125,-0.125 -18.5416,-0.25 -41.4583,-0.25 h -338 c -0.5,0 -0.9167,-0.4167 -0.9167,-0.9167 V 282.49999 c 0,-66.29167 -53.7083,-120 -120,-120 h -75.2916 c -22.9167,0 -42.0834,0 -42.5417,0 -0.4583,0 -0.875,0 -0.875,0 0,0 -1.75,-0.16667 -3.875,-0.33334 l -1.6667,-0.79166 c -24.9583,-12.125 -13.625,-115.791671 -167.5,-115.666671 -172.375,0.125 -138.2083,104.958331 -113.25,92.708331 18.4584,-9.08333 31.8334,18.41667 11.9584,23.04167 l -1.7917,0.41667 c -2.4583,0.125 -23.2083,0 -46.125,-0.33334 0,0 -60.0833,-0.83333 -89.75,1.16667 -38.375,2.58333 -88.8333,22.875 -107.75,77.04167 -2.3333,6.70833 -4.2083,13.91666 -5.5,21.66666 l -1.2917,7.75 c -0.4583,9.45834 -0.7916,35.91667 -0.7916,58.83334 l 0.7916,697.16671 c 0,22.9166 0.042,41.5416 0.083,41.3333 0.042,-0.2083 -18.75,-0.3333 -41.6667,-0.3333 H 814.74999 c -22.91666,0 -60.375,1 -83.29166,2.2083 l -689.583342,36.8333 c -0.708333,0 -1.25,0.625 -1.25,1.2917 v 986.7917 c 0,0 0.166667,0.375 0.333333,0.375 l 693.041669,35.375 c 22.875,1.1666 40.95834,2.125 40.16667,2.125 -0.79167,0 17.29167,0 40.20833,0 h 339.41671 c 0,0 0.2083,0.083 0.2083,0.2083 v 1331.5417 c 0,22.9166 0.042,43.5416 0.125,45.8333 l 0.25,2.0417 c 1.7917,14.1666 9.75,26.375 21.0833,33.9583 3.8334,2.5833 8.0417,4.5833 12.5417,6 l 4.5,1.375 c 5.375,0.4167 28.5,0.75 51.4167,0.75 h 583.5416 c 22.9167,0 44.25,-0.125 47.375,-0.25 l 2.75,-0.5 c 2.75,-0.5 5.4167,-1.2083 7.9584,-2.125 18.5833,-6.7083 31.8333,-24.5 31.8333,-45.375"
     id="clipping"
     style="stroke-width:4.16667;fill:#8a8a8a;fill-opacity:1;stroke:none" />
  <path
     id="actualSize"
     style="stroke-miterlimit:10;fill:#c5c5c5;fill-opacity:1;stroke:none"
     class="cls-4"
     transform="matrix(4.1666667,0,0,4.1666667,-1.23e-5,-1.44e-5)"
     d="M 276.97,255.87 H 460.59 V 511.46 H 276.97 V 255.87" />
  <polyline
     class="cls-11"
     points="174.04 265.32 176.54 265.19 176.54 267.69"
     id="polyline157"
     transform="matrix(4.1666667,0,0,4.1666667,-1.23e-5,-1.44e-5)" />
  <line
     class="cls-13"
     x1="735.58331"
     y1="1136"
     x2="735.58331"
     y2="2073.9583"
     id="line157"
     style="stroke-width:4.16667" />
  <polyline
     class="cls-11"
     points="176.54 500.22 176.54 502.72 174.04 502.58"
     id="polyline158"
     transform="matrix(4.1666667,0,0,4.1666667,-1.23e-5,-1.44e-5)" />
  <line
     class="cls-20"
     x1="704.625"
     y1="2092.9583"
     x2="98.833321"
     y2="2059.875"
     id="line158"
     style="stroke-width:4.16667" />
  <polyline
     class="cls-11"
     points="21.25 494.24 18.76 494.1 18.76 491.6"
     id="polyline159"
     transform="matrix(4.1666667,0,0,4.1666667,-1.23e-5,-1.44e-5)" />
  <line
     class="cls-6"
     x1="78.166656"
     y1="2027.4584"
     x2="78.166656"
     y2="1161.4584"
     id="line159"
     style="stroke-width:4.16667" />
  <polyline
     class="cls-11"
     points="18.76 276.24 18.76 273.74 21.25 273.61"
     id="polyline160"
     transform="matrix(4.1666667,0,0,4.1666667,-1.23e-5,-1.44e-5)" />
  <line
     class="cls-21"
     x1="109.08332"
     y1="1138.9166"
     x2="714.91669"
     y2="1106.0833"
     id="line160"
     style="stroke-width:4.16667" />
  <polyline
     class="cls-11"
     points="563.52 265.26 561.03 265.13 561.03 267.63"
     id="polyline161"
     transform="matrix(4.1666667,0,0,4.1666667,-1.23e-5,-1.44e-5)" />
  <line
     class="cls-19"
     x1="2337.6252"
     y1="1135.7084"
     x2="2337.6252"
     y2="2072.75"
     id="line161"
     style="stroke-width:4.16667" />
  <polyline
     class="cls-11"
     points="561.03 499.93 561.03 502.43 563.52 502.3"
     id="polyline162"
     transform="matrix(4.1666667,0,0,4.1666667,-1.23e-5,-1.44e-5)" />
  <line
     class="cls-7"
     x1="2368.4583"
     y1="2091.875"
     x2="2971.9167"
     y2="2060.9167"
     id="line162"
     style="stroke-width:4.16667" />
  <polyline
     class="cls-11"
     points="715.71 494.49 718.21 494.37 718.21 491.87"
     id="polyline163"
     transform="matrix(4.1666667,0,0,4.1666667,-1.23e-5,-1.44e-5)" />
  <line
     class="cls-9"
     x1="2992.5"
     y1="2028.5417"
     x2="2991.625"
     y2="1160.2916"
     id="line163"
     style="stroke-width:4.16667" />
  <polyline
     class="cls-11"
     points="717.99 275.96 717.98 273.46 715.49 273.33"
     id="polyline164"
     transform="matrix(4.1666667,0,0,4.1666667,-1.23e-5,-1.44e-5)" />
  <line
     class="cls-14"
     x1="2960.75"
     y1="1137.7917"
     x2="2358.25"
     y2="1105.7917"
     id="line164"
     style="stroke-width:4.16667" />
  <polyline
     class="cls-11"
     points="287.52 153.31 287.53 155.81 290.03 155.81"
     id="polyline165"
     transform="matrix(4.1666667,0,0,4.1666667,-1.23e-5,-1.44e-5)" />
  <line
     class="cls-2"
     x1="1228.7084"
     y1="649.20831"
     x2="1867"
     y2="649.20831"
     id="line165"
     style="stroke-width:4.16667" />
  <polyline
     class="cls-11"
     points="450.52 155.81 453.02 155.81 453.02 153.31"
     id="polyline166"
     transform="matrix(4.1666667,0,0,4.1666667,-1.23e-5,-1.44e-5)" />
  <path
     class="cls-5"
     d="M 1887.5833,617.99999 V 294.70832 c -2.0833,-41.04167 -46.875,-101.70833 -121.4166,-94.625 h -450.25 c -82.375,-2.54167 -119.25,55.70833 -118.4167,96.125 l 0.5417,332.20834"
     id="path166"
     style="stroke-width:4.16667" />
  <path
     class="cls-8"
     d="m 1386.875,3071.2083 c 19.25,23.5417 68.2083,-5.9583 167.4583,-5.9583 112.0417,0 169.1667,33.4583 191.5,4.9583 23.7084,-30.2916 -10.9583,-84.5 -181.7083,-84.5 -170.75,0 -205.75,50.625 -177.25,85.4584 z"
     id="path167"
     style="stroke-width:4.16667" />
  <path
     class="cls-24"
     d="m 1194.4583,2555.125 h 689.125 v 919.3333 c 0,26.3334 -21.375,47.75 -47.75,47.75 h -593.6666 c -26.3334,0 -47.75,-21.375 -47.75,-47.75 v -919.3333 0 z"
     id="path168"
     style="stroke-width:4.16667" />
  <rect
     class="cls-24"
     x="1192.4584"
     y="2168.5835"
     width="690.04169"
     height="304.66669"
     id="rect168"
     style="stroke-width:4.16667" />
  <rect
     class="cls-24"
     x="1192.625"
     y="724.20831"
     width="690.04169"
     height="304.375"
     id="rect169"
     style="stroke-width:4.16667" />
  <rect
     class="cls-24"
     x="-2092.0833"
     y="810.58325"
     width="991.58331"
     height="306.54166"
     transform="rotate(-90)"
     id="rect170"
     style="stroke-width:4.16667" />
  <rect
     class="cls-24"
     x="-2092.0833"
     y="1955.125"
     width="991.58331"
     height="307.5"
     transform="rotate(-90)"
     id="rect171"
     style="stroke-width:4.16667" />
  <polyline
     class="cls-11"
     points="449.75 265.19 452.25 265.19 452.25 267.69"
     id="polyline171"
     transform="matrix(4.1666667,0,0,4.1666667,-1.23e-5,-1.44e-5)" />
  <line
     class="cls-17"
     x1="1884.375"
     y1="1135.9584"
     x2="1884.375"
     y2="2072.75"
     id="line171"
     style="stroke-width:4.16667" />
  <polyline
     class="cls-11"
     points="452.25 499.93 452.25 502.43 449.75 502.43"
     id="polyline172"
     transform="matrix(4.1666667,0,0,4.1666667,-1.23e-5,-1.44e-5)" />
  <line
     class="cls-3"
     x1="1853.7084"
     y1="2093.4583"
     x2="1215.8333"
     y2="2093.4583"
     id="line172"
     style="stroke-width:4.16667" />
  <polyline
     class="cls-11"
     points="289.37 502.43 286.87 502.43 286.87 499.93"
     id="polyline173"
     transform="matrix(4.1666667,0,0,4.1666667,-1.23e-5,-1.44e-5)" />
  <line
     class="cls-18"
     x1="1195.2916"
     y1="2062.4583"
     x2="1195.2916"
     y2="1125.6666"
     id="line173"
     style="stroke-width:4.16667" />
  <polyline
     class="cls-11"
     points="286.87 267.69 286.87 265.19 289.37 265.19"
     id="polyline174"
     transform="matrix(4.1666667,0,0,4.1666667,-1.23e-5,-1.44e-5)" />
  <line
     class="cls-3"
     x1="1225.9584"
     y1="1104.9584"
     x2="1863.8334"
     y2="1104.9584"
     id="line174"
     style="stroke-width:4.16667" />
  <line
     class="cls-4"
     x1="773.08331"
     y1="2131.0833"
     x2="773.08331"
     y2="1066.125"
     id="line175"
     style="stroke-width:4.16667" />
  <line
     class="cls-4"
     x1="1917.625"
     y1="2510.75"
     x2="1154.0416"
     y2="2510.75"
     id="line176"
     style="stroke-width:4.16667" />
  <line
     class="cls-4"
     x1="2300.1252"
     y1="2132.6667"
     x2="2300.1252"
     y2="1066.0834"
     id="line177"
     style="stroke-width:4.16667" />
  <line
     class="cls-4"
     x1="1154.6249"
     y1="686.70831"
     x2="1919.125"
     y2="686.70831"
     id="line178"
     style="stroke-width:4.16667" />
  <path
     id="Curved_slice"
     class="cls-16"
     d="m 1410.6667,3044.2083 c 0,0 27.25,-22.4583 150,-22.4583 122.75,0 150,22.4583 150,22.4583"
     style="stroke-width:4.16667" />
</svg>
