<?xml version="1.0" encoding="UTF-8" standalone="no"?>
<svg
   version="1.1"
   x="0px"
   y="0px"
   width="2775"
   height="2100"
   viewBox="0 0 2775 2100"
   enable-background="new 0 0 666 504"
   xml:space="preserve"
   id="svg222"
   sodipodi:docname="PokerTuckBox90.svg"
   inkscape:version="1.3.2 (091e20e, 2023-11-25, custom)"
   xmlns:inkscape="http://www.inkscape.org/namespaces/inkscape"
   xmlns:sodipodi="http://sodipodi.sourceforge.net/DTD/sodipodi-0.dtd"
   xmlns="http://www.w3.org/2000/svg"
   xmlns:svg="http://www.w3.org/2000/svg"><defs
     id="defs222">






	


	

	
		
	
		
	
	
	
	
	
	

		
		
	
			
			
			
			
			
			
			
			
			
			
			
			
			
		
			
		</defs><sodipodi:namedview
     id="namedview222"
     pagecolor="#505050"
     bordercolor="#eeeeee"
     borderopacity="1"
     inkscape:showpageshadow="0"
     inkscape:pageopacity="0"
     inkscape:pagecheckerboard="0"
     inkscape:deskcolor="#d1d1d1"
     inkscape:zoom="0.77261262"
     inkscape:cx="850.36147"
     inkscape:cy="931.25583"
     inkscape:window-width="2560"
     inkscape:window-height="1351"
     inkscape:window-x="-9"
     inkscape:window-y="-9"
     inkscape:window-maximized="1"
     inkscape:current-layer="svg222" /><polygon
     fill="#929497"
     points="0,0 0,504 666,504 666,0 "
     id="polygon1"
     transform="matrix(4.1666667,0,0,4.1666667,-1.11e-5,-8.4000001e-6)" /><path
     fill="#ffffff"
     d="m 1200,1879.1667 v 180 H 441.66666 v -180 H 36.666656 v -225 -1058.33337 c 0,-124.25 100.750004,-225 225.000004,-225 h 180 v -180 c 0,-82.83334 67.16667,-150.000005 150,-150.000005 H 1050 c 82.8333,0 150,67.166665 150,150.000005 v 180 h 180 c 124.2958,0 225,100.75 225,225 h 304.1667 c 0,91.66667 150,91.66667 150,0 h 304.1666 375 V 1654.1667 h -375 V 2030 H 1605 v -150.8333 z"
     id="clipping"
     style="stroke-width:4.16667;stroke:none;fill:#737373;fill-opacity:1" /><rect
     style="fill:#c0c0c0;stroke-width:15.2907;stroke-dashoffset:318.954;paint-order:markers stroke fill"
     id="actualSize"
     width="762.52502"
     height="1062.502"
     x="439.58542"
     y="593.67914" /><line
     fill="none"
     stroke="#ec1c24"
     stroke-miterlimit="10"
     x1="36.666656"
     y1="1654.1666"
     x2="36.666656"
     y2="595.83331"
     id="line1"
     style="stroke-width:4.16667" /><path
     fill="none"
     stroke="#ec1c24"
     stroke-miterlimit="10"
     d="m 2363.3333,595.83333 h -304.1666 c 0,91.66667 -150,91.66667 -150,0 H 1605"
     id="path2"
     style="stroke-width:4.16667" /><polyline
     fill="none"
     stroke="#ec1c24"
     stroke-miterlimit="10"
     points="567.2,397 657.2,397 657.2,143 567.2,143    "
     id="polyline2"
     transform="matrix(4.1666667,0,0,4.1666667,-1.11e-5,-8.4000001e-6)" /><path
     fill="none"
     stroke="#ec1c24"
     stroke-miterlimit="10"
     d="m 36.666656,595.83333 c 0,-124.25 100.750004,-225 225.000004,-225 h 180"
     id="path3"
     style="stroke-width:4.16667" /><path
     fill="none"
     stroke="#ec1c24"
     stroke-miterlimit="10"
     d="m 1605,595.83333 c 0,-124.25 -100.7083,-225 -225,-225 h -180"
     id="path4"
     style="stroke-width:4.16667" /><polyline
     fill="none"
     stroke="#ec1c24"
     stroke-miterlimit="10"
     points="106,171.8 106,89 106,45.8 134.8,45.8    "
     id="polyline4"
     transform="matrix(4.1666667,0,0,4.1666667,-1.11e-5,-8.4000001e-6)" /><polyline
     fill="none"
     stroke="#ec1c24"
     stroke-miterlimit="10"
     points="288,171.8 288,89 288,45.8 259.2,45.8    "
     id="polyline5"
     transform="matrix(4.1666667,0,0,4.1666667,-1.11e-5,-8.4000001e-6)" /><path
     fill="none"
     stroke="#ec1c24"
     stroke-miterlimit="10"
     d="m 441.66666,190.83333 c 0,-82.83334 67.16667,-150.000005 150,-150.000005 H 1050"
     id="path5"
     style="stroke-width:4.16667" /><path
     fill="none"
     stroke="#ec1c24"
     stroke-miterlimit="10"
     d="M 1200,190.83333 C 1200,107.99999 1132.8333,40.833325 1050,40.833325"
     id="path6"
     style="stroke-width:4.16667" /><polyline
     fill="none"
     stroke="#ec1c24"
     stroke-miterlimit="10"
     points="385.2,451 385.2,487.2 567.2,487.2 567.2,397    "
     id="polyline6"
     transform="matrix(4.1666667,0,0,4.1666667,-1.11e-5,-8.4000001e-6)" /><polyline
     fill="none"
     stroke="#ec1c24"
     stroke-miterlimit="10"
     points="288,451 385.2,451 385.2,397    "
     id="polyline7"
     transform="matrix(4.1666667,0,0,4.1666667,-1.11e-5,-8.4000001e-6)" /><polyline
     fill="none"
     stroke="#ec1c24"
     stroke-miterlimit="10"
     points="106,451 106,494.2 288,494.2 288,451 288,397    "
     id="polyline8"
     transform="matrix(4.1666667,0,0,4.1666667,-1.11e-5,-8.4000001e-6)" /><polyline
     fill="none"
     stroke="#ec1c24"
     stroke-miterlimit="10"
     points="8.8,397 8.8,451 106,451 106,397    "
     id="polyline9"
     transform="matrix(4.1666667,0,0,4.1666667,-1.11e-5,-8.4000001e-6)" /><line
     fill="none"
     stroke="#8bc53f"
     stroke-width="4.27958"
     stroke-miterlimit="10"
     x1="1566.5042"
     y1="1654.0917"
     x2="2366.5042"
     y2="1654.0917"
     id="line9" /><line
     fill="none"
     stroke="#8bc53f"
     stroke-miterlimit="10"
     x1="481.17084"
     y1="595.76251"
     x2="36.666656"
     y2="595.76251"
     id="line10"
     style="stroke-width:4.16667" /><polyline
     fill="none"
     stroke="#8bc53f"
     stroke-miterlimit="10"
     points="288.007,396.982 385.2,396.982 385.2,142.983    288.007,142.983  "
     id="polyline10"
     transform="matrix(4.1666667,0,0,4.1666667,-1.11e-5,-8.4000001e-6)" /><line
     fill="none"
     stroke="#8bc53f"
     stroke-miterlimit="10"
     x1="2363.3335"
     y1="1654.1666"
     x2="2363.3335"
     y2="595.83331"
     id="line11"
     style="stroke-width:4.16667" /><line
     fill="none"
     stroke="#8bc53f"
     stroke-miterlimit="10"
     x1="564.40833"
     y1="190.83333"
     x2="1082.7417"
     y2="190.83333"
     id="line12"
     style="stroke-width:4.16667" /><g
     id="g1"><rect
       x="441.67084"
       y="715.7583"
       fill="none"
       stroke="#8bc53f"
       stroke-width="4.17042"
       stroke-miterlimit="10"
       width="758.35419"
       height="938.33752"
       id="rect9" /><line
       fill="none"
       stroke="#8bc53f"
       stroke-miterlimit="10"
       x1="441.6792"
       y1="595.76251"
       x2="1200.0166"
       y2="595.76251"
       id="line13"
       style="stroke-width:4.16667" /></g><line
     fill="none"
     stroke="#8bc53f"
     stroke-miterlimit="10"
     x1="481.17084"
     y1="1654.0917"
     x2="36.666656"
     y2="1654.0917"
     id="line14"
     style="stroke-width:4.16667" /></svg>
