<?xml version="1.0" encoding="UTF-8" standalone="no"?>
<svg
   version="1.1"
   x="0px"
   y="0px"
   width="72px"
   height="72px"
   viewBox="0 0 72px 72px"
   enable-background="new 0 0 72 72"
   xml:space="preserve"
   id="svg184"
   sodipodi:docname="SmallRingChit.svg"
   inkscape:version="1.3.2 (091e20e, 2023-11-25, custom)"
   xmlns:inkscape="http://www.inkscape.org/namespaces/inkscape"
   xmlns:sodipodi="http://sodipodi.sourceforge.net/DTD/sodipodi-0.dtd"
   xmlns="http://www.w3.org/2000/svg"
   xmlns:svg="http://www.w3.org/2000/svg"><defs
   id="defs184">
	
	
</defs><sodipodi:namedview
   id="namedview184"
   pagecolor="#ffffff"
   bordercolor="#000000"
   borderopacity="0.25"
   inkscape:showpageshadow="2"
   inkscape:pageopacity="0.0"
   inkscape:pagecheckerboard="0"
   inkscape:deskcolor="#d1d1d1"
   inkscape:zoom="15.791667"
   inkscape:cx="35.968338"
   inkscape:cy="36"
   inkscape:window-width="2560"
   inkscape:window-height="1351"
   inkscape:window-x="-9"
   inkscape:window-y="-9"
   inkscape:window-maximized="1"
   inkscape:current-layer="svg184" />
<polygon
   fill="#757a7a"
   points="0,72 72,72 72,0 0,0 "
   id="polygon1"
   style="fill:#202222;fill-opacity:1" /><path
   fill="#ffffff"
   stroke="#c92027"
   d="M 63,36 C 63,21.088 50.912,9 36,9 21.089,9 9,21.088 9,36 9,50.912 21.089,63 36,63 50.911,63 63,50.912 63,36 Z m -45,0 c 0,-9.941 8.059,-18 18,-18 9.941,0 18,8.059 18,18 0,9.941 -8.059,18 -18,18 -9.941,0 -18,-8.059 -18,-18 z"
   id="clipping"
   style="stroke:none;fill:#727272;fill-opacity:1" />

</svg>
