<?xml version="1.0" encoding="UTF-8" standalone="no"?>
<svg
   version="1.1"
   x="0px"
   y="0px"
   viewBox="0 0 3450 2700"
   enable-background="new 0 0 828 648"
   xml:space="preserve"
   width="3450"
   height="2700"
   id="svg203"
   sodipodi:docname="SmallProBox.svg"
   inkscape:version="1.3.2 (091e20e, 2023-11-25, custom)"
   xmlns:inkscape="http://www.inkscape.org/namespaces/inkscape"
   xmlns:sodipodi="http://sodipodi.sourceforge.net/DTD/sodipodi-0.dtd"
   xmlns="http://www.w3.org/2000/svg"
   xmlns:svg="http://www.w3.org/2000/svg"><defs
     id="defs203">



	
	
	
		
	
	
	
	
	
	
	
	

	
	
	
	

		
		
		
		
		
	
		
	
		
	
		
	
		
	
		
		
		
		
		
		
	
		
		
		
		
		
		
	
		
		
		
		
	
			
			
			
		
			
			
			
			
			
			
			
		
			
			
			
			
		
			
			
			
			
			
			
			
			
			
			
			
			
			
			
			
			
			
			
			
			
			
			
			
			
			
			
			
			
			
			
			
			
			
			
			
			
			
			
			
			
			
			
			
			
			
			
			
			
			
			
			
			
			
			
			
			
			
			
			
			
			
			
			
			
			
			
			
			
			
			
			
			
			
			
			
			
			
			
			
			
			
			
			
			
			
			
			
			
			
			
			
			
			
			
			
			
			
			
		
			
		
			
		
			
		
			
		
			
		
				
				
					
				
				
					
				
				
					
				
				
					
			
				
				
					
				
				
					
				
				
					
				
				
					
			
				
				
					
				
				
					
				
				
					
				
				
					
			
				
				
			
				
				
					
				
				
					
				
				
					
				
				
					
			
				
				
					
				
				
					
				
				
					
				
				
					
			
				
				
				
			
				
				
				
			
				
				
			
				
				
				
			
				
				
				
			
				
				
				
				
			
					
					
					
					
					
				
					
					
				
					
					
				
					
					
				
						
						
						
					
						
						
					
						
						
					
						
						
						
						
					
							
							
							
						
							
							
						
							
							
							
							
						
								
								
								
								
								
								
								
							
								
								
								
							
								
								
								
								
							
									
									
									
									
									
								
									
									
								</defs><sodipodi:namedview
     id="namedview203"
     pagecolor="#505050"
     bordercolor="#eeeeee"
     borderopacity="1"
     inkscape:showpageshadow="0"
     inkscape:pageopacity="0"
     inkscape:pagecheckerboard="0"
     inkscape:deskcolor="#d1d1d1"
     inkscape:zoom="0.878862"
     inkscape:cx="1192.4511"
     inkscape:cy="1364.8332"
     inkscape:window-width="2560"
     inkscape:window-height="1351"
     inkscape:window-x="-9"
     inkscape:window-y="-9"
     inkscape:window-maximized="1"
     inkscape:current-layer="svg203" /><path
     id="Bleed_Zone"
     opacity="0.5"
     d="M 3450,2699.9984 H 1.42692e-5 V 0.0016416 H 3450 Z"
     style="stroke-width:4.16666;fill:#0e0e0e;fill-opacity:1"
     sodipodi:nodetypes="ccccc" /><path
     style="fill:#727272;fill-opacity:1;stroke:none;stroke-width:13.4106;stroke-linecap:round;stroke-linejoin:round;paint-order:markers fill stroke"
     d="m 865.9227,292.1117 c -0.5689,61.6167 -1.1388,123.2334 -1.7097,184.8501 -53.0735,0.7091 -106.37,0.8872 -159.305,1.9235 0.087,89.5875 -0.091,179.2464 0.1697,268.7895 46.1525,26.2786 91.4275,54.2006 138.6879,78.4708 -162.2777,6.0144 -324.5577,15.0729 -487.0356,12.8599 -19.7668,-0.7109 -44.0746,-5.6448 -34.7977,22.7424 0.1342,362.6325 -0.2682,725.4872 0.2011,1087.981 170.1738,-1.4914 340.8361,2.9145 510.3997,13.508 -30.2144,24.6333 -67.6945,40.8491 -100.777,61.9345 -19.5325,7.7036 -33.5228,18.6901 -26.8481,41.478 0.1344,81.1478 -0.2683,162.5182 0.2011,243.5272 53.571,0 107.1421,0 160.7131,0 0.134,62.1924 -0.268,124.6068 0.2011,186.6605 572.8938,-0.1341 1146.0097,0.2682 1718.7646,-0.2012 0,-62.1531 0,-124.3062 0,-186.4593 52.56,-0.1354 105.3434,0.2684 157.765,-0.2011 -0.6231,-90.5762 -0.9841,-181.226 -1.7788,-271.7564 -40.9152,-24.6351 -84.1793,-47.7235 -124.0736,-72.7885 35.8184,-7.0068 74.9273,-5.3122 111.9583,-8.1255 133.225,-6.1415 266.7998,-8.3378 400.019,-7.7774 -0.1342,-370.1418 0.2681,-740.5059 -0.2011,-1110.509 -166.6673,2.1561 -333.2143,-4.5827 -499.6323,-12.8417 -4.9188,0.5752 -18.0844,-1.2467 -6.9519,-5.896 39.3271,-25.3441 80.4653,-47.7904 120.5913,-71.7325 -0.1342,-89.9647 0.2681,-180.1516 -0.2012,-269.9775 -52.4982,0 -104.9965,0 -157.4947,0 -0.134,-62.1924 0.268,-124.6068 -0.2011,-186.6605 -572.8603,0.1341 -1145.9427,-0.2681 -1718.6641,0.2012 z"
     id="clipping" /><rect
     style="fill:#aaaaaa;stroke-width:32.6327;stroke-dashoffset:318.954;paint-order:markers stroke fill"
     id="actualSize"
     width="1740.39"
     height="1145.674"
     x="854.80292"
     y="821.11713" /><rect
     x="856.88647"
     y="514.03015"
     fill="none"
     stroke="#00a551"
     stroke-miterlimit="10"
     width="1736.2188"
     height="307.0871"
     id="rect1"
     style="stroke-width:4.16666" /><rect
     x="856.88647"
     y="1966.7909"
     fill="none"
     stroke="#00a551"
     stroke-miterlimit="10"
     width="1736.2188"
     height="307.0871"
     id="rect2"
     style="stroke-width:4.16666" /><line
     fill="none"
     stroke="#00a551"
     stroke-miterlimit="10"
     x1="549.80768"
     y1="837.25476"
     x2="549.80768"
     y2="1950.6534"
     id="line3"
     style="stroke-width:4.16666" /><g
     id="g1"><line
       fill="none"
       stroke="#00a551"
       stroke-miterlimit="10"
       x1="856.88647"
       y1="821.11731"
       x2="856.88647"
       y2="1966.7909"
       id="line2"
       style="stroke-width:4.16666" /><line
       fill="none"
       stroke="#00a551"
       stroke-miterlimit="10"
       x1="2593.1094"
       y1="821.11731"
       x2="2593.1094"
       y2="1966.7909"
       id="line4"
       style="stroke-width:4.16666" /></g><line
     fill="none"
     stroke="#00a551"
     stroke-miterlimit="10"
     x1="2900.1882"
     y1="837.25476"
     x2="2900.1882"
     y2="1950.6534"
     id="line5"
     style="stroke-width:4.16666" /><polyline
     fill="none"
     stroke="#00adee"
     stroke-miterlimit="10"
     points="683.969,209.172 688.464,209.377 688.464,213.877           "
     id="polyline5"
     transform="matrix(4.1666616,0,0,4.1666616,1.42692e-5,0.0016416)" /><line
     fill="none"
     stroke="#00adee"
     stroke-miterlimit="10"
     stroke-dasharray="37.2112, 37.2112"
     x1="2868.5964"
     y1="928.36304"
     x2="2868.5964"
     y2="1877.2494"
     id="line6"
     style="stroke-width:4.16666" /><polyline
     fill="none"
     stroke="#00adee"
     stroke-miterlimit="10"
     points="688.464,455.005 688.464,459.505 683.969,459.718           "
     id="polyline6"
     transform="matrix(4.1666616,0,0,4.1666616,1.42692e-5,0.0016416)" /><line
     fill="none"
     stroke="#00adee"
     stroke-miterlimit="10"
     stroke-dasharray="40.1512, 40.1512"
     x1="2809.7632"
     y1="1917.3868"
     x2="2669.3884"
     y2="1924.0284"
     id="line7"
     style="stroke-width:4.16666" /><polyline
     fill="none"
     stroke="#00adee"
     stroke-miterlimit="10"
     points="635.842,461.995 631.347,462.207 631.347,457.707           "
     id="polyline7"
     transform="matrix(4.1666616,0,0,4.1666616,1.42692e-5,0.0016416)" /><line
     fill="none"
     stroke="#00adee"
     stroke-miterlimit="10"
     stroke-dasharray="38.03, 38.03"
     x1="2630.6091"
     y1="1869.0826"
     x2="2630.6091"
     y2="899.32141"
     id="line8"
     style="stroke-width:4.16666" /><polyline
     fill="none"
     stroke="#00adee"
     stroke-miterlimit="10"
     points="631.347,211.273 631.347,206.773 635.842,206.978           "
     id="polyline8"
     transform="matrix(4.1666616,0,0,4.1666616,1.42692e-5,0.0016416)" /><line
     fill="none"
     stroke="#00adee"
     stroke-miterlimit="10"
     stroke-dasharray="40.1474, 40.1474"
     x1="2689.4424"
     y1="864.2381"
     x2="2829.8132"
     y2="870.63812"
     id="line9"
     style="stroke-width:4.16666" /><polyline
     fill="none"
     stroke="#00adee"
     stroke-miterlimit="10"
     points="144.031,459.809 139.536,459.604 139.536,455.104           "
     id="polyline10"
     transform="matrix(4.1666616,0,0,4.1666616,1.42692e-5,0.0016416)" /><line
     fill="none"
     stroke="#00adee"
     stroke-miterlimit="10"
     stroke-dasharray="37.2112, 37.2112"
     x1="581.39929"
     y1="1859.0536"
     x2="581.39929"
     y2="910.17133"
     id="line10"
     style="stroke-width:4.16666" /><polyline
     fill="none"
     stroke="#00adee"
     stroke-miterlimit="10"
     points="139.536,213.976 139.536,209.476 144.031,209.263           "
     id="polyline11"
     transform="matrix(4.1666616,0,0,4.1666616,1.42692e-5,0.0016416)" /><line
     fill="none"
     stroke="#00adee"
     stroke-miterlimit="10"
     stroke-dasharray="40.1512, 40.1512"
     x1="640.2326"
     y1="870.03394"
     x2="780.60736"
     y2="863.39227"
     id="line11"
     style="stroke-width:4.16666" /><polyline
     fill="none"
     stroke="#00adee"
     stroke-miterlimit="10"
     points="192.158,206.986 196.653,206.773 196.653,211.273           "
     id="polyline12"
     transform="matrix(4.1666616,0,0,4.1666616,1.42692e-5,0.0016416)" /><line
     fill="none"
     stroke="#00adee"
     stroke-miterlimit="10"
     stroke-dasharray="38.03, 38.03"
     x1="819.38654"
     y1="918.33801"
     x2="819.38654"
     y2="1888.0994"
     id="line12"
     style="stroke-width:4.16666" /><polyline
     fill="none"
     stroke="#00adee"
     stroke-miterlimit="10"
     points="196.653,457.707 196.653,462.207 192.158,462.002           "
     id="polyline13"
     transform="matrix(4.1666616,0,0,4.1666616,1.42692e-5,0.0016416)" /><line
     fill="none"
     stroke="#00adee"
     stroke-miterlimit="10"
     stroke-dasharray="40.1474, 40.1474"
     x1="760.55328"
     y1="1923.1826"
     x2="620.18256"
     y2="1916.7827"
     id="line13"
     style="stroke-width:4.16666" /><polyline
     fill="none"
     stroke="#00adee"
     stroke-miterlimit="10"
     points="613.603,183.568 613.626,188.068 609.126,188.068           "
     id="polyline14"
     transform="matrix(4.1666616,0,0,4.1666616,1.42692e-5,0.0016416)" /><line
     fill="none"
     stroke="#00adee"
     stroke-miterlimit="10"
     stroke-dasharray="37.7608, 37.7608"
     x1="2500.2595"
     y1="783.61731"
     x2="933.18225"
     y2="783.61731"
     id="line14"
     style="stroke-width:4.16666" /><polyline
     fill="none"
     stroke="#00adee"
     stroke-miterlimit="10"
     points="219.432,188.068 214.932,188.068 214.91,183.568     "
     id="polyline15"
     transform="matrix(4.1666616,0,0,4.1666616,1.42692e-5,0.0016416)" /><line
     fill="none"
     stroke="#00adee"
     stroke-miterlimit="10"
     stroke-dasharray="38.9183, 38.9183"
     x1="895.26147"
     y1="725.95074"
     x2="894.57812"
     y2="589.73846"
     id="line15"
     style="stroke-width:4.16666" /><polyline
     fill="none"
     stroke="#00adee"
     stroke-miterlimit="10"
     points="214.676,136.867 214.653,132.367 219.153,132.367           "
     id="polyline16"
     transform="matrix(4.1666616,0,0,4.1666616,1.42692e-5,0.0016416)" /><line
     fill="none"
     stroke="#00adee"
     stroke-miterlimit="10"
     stroke-dasharray="37.7608, 37.7608"
     x1="950.89886"
     y1="551.53015"
     x2="2517.9761"
     y2="551.53015"
     id="line16"
     style="stroke-width:4.16666" /><polyline
     fill="none"
     stroke="#00adee"
     stroke-miterlimit="10"
     points="608.847,132.367 613.347,132.367 613.369,136.867           "
     id="polyline17"
     transform="matrix(4.1666616,0,0,4.1666616,1.42692e-5,0.0016416)" /><line
     fill="none"
     stroke="#00adee"
     stroke-miterlimit="10"
     stroke-dasharray="38.9183, 38.9183"
     x1="2555.897"
     y1="609.19672"
     x2="2556.5803"
     y2="745.40906"
     id="line17"
     style="stroke-width:4.16666" /><polyline
     fill="none"
     stroke="#00adee"
     stroke-miterlimit="10"
     points="613.603,532.231 613.626,536.731 609.126,536.731           "
     id="polyline18"
     transform="matrix(4.1666616,0,0,4.1666616,1.42692e-5,0.0016416)" /><line
     fill="none"
     stroke="#00adee"
     stroke-miterlimit="10"
     stroke-dasharray="37.7608, 37.7608"
     x1="2500.2595"
     y1="2236.3782"
     x2="933.18225"
     y2="2236.3782"
     id="line18"
     style="stroke-width:4.16666" /><polyline
     fill="none"
     stroke="#00adee"
     stroke-miterlimit="10"
     points="219.432,536.731 214.932,536.731 214.91,532.231     "
     id="polyline19"
     transform="matrix(4.1666616,0,0,4.1666616,1.42692e-5,0.0016416)" /><line
     fill="none"
     stroke="#00adee"
     stroke-miterlimit="10"
     stroke-dasharray="38.9183, 38.9183"
     x1="895.26147"
     y1="2178.7114"
     x2="894.57812"
     y2="2042.4993"
     id="line19"
     style="stroke-width:4.16666" /><polyline
     fill="none"
     stroke="#00adee"
     stroke-miterlimit="10"
     points="214.676,485.53 214.653,481.03 219.153,481.03     "
     id="polyline20"
     transform="matrix(4.1666616,0,0,4.1666616,1.42692e-5,0.0016416)" /><line
     fill="none"
     stroke="#00adee"
     stroke-miterlimit="10"
     stroke-dasharray="37.7608, 37.7608"
     x1="950.89886"
     y1="2004.2909"
     x2="2517.9761"
     y2="2004.2909"
     id="line20"
     style="stroke-width:4.16666" /><polyline
     fill="none"
     stroke="#00adee"
     stroke-miterlimit="10"
     points="608.847,481.03 613.347,481.03 613.369,485.53     "
     id="polyline21"
     transform="matrix(4.1666616,0,0,4.1666616,1.42692e-5,0.0016416)" /><line
     fill="none"
     stroke="#00adee"
     stroke-miterlimit="10"
     stroke-dasharray="38.9183, 38.9183"
     x1="2555.897"
     y1="2061.9575"
     x2="2556.5803"
     y2="2198.1697"
     id="line21"
     style="stroke-width:4.16666" /><polyline
     fill="none"
     stroke="#00adee"
     stroke-miterlimit="10"
     points="613.6,458.53 613.605,463.03 609.105,463.03     "
     id="polyline22"
     transform="matrix(4.1666616,0,0,4.1666616,1.42692e-5,0.0016416)" /><line
     fill="none"
     stroke="#00adee"
     stroke-miterlimit="10"
     stroke-dasharray="37.7612, 37.7612"
     x1="2500.1763"
     y1="1929.291"
     x2="933.08221"
     y2="1929.291"
     id="line22"
     style="stroke-width:4.16666" /><polyline
     fill="none"
     stroke="#00adee"
     stroke-miterlimit="10"
     points="219.409,463.03 214.909,463.03 214.904,458.53     "
     id="polyline23"
     transform="matrix(4.1666616,0,0,4.1666616,1.42692e-5,0.0016416)" /><line
     fill="none"
     stroke="#00adee"
     stroke-miterlimit="10"
     stroke-dasharray="38.2658, 38.2658"
     x1="895.39056"
     y1="1872.2784"
     x2="894.32812"
     y2="896.50055"
     id="line23"
     style="stroke-width:4.16666" /><polyline
     fill="none"
     stroke="#00adee"
     stroke-miterlimit="10"
     points="214.634,210.568 214.63,206.068 219.13,206.068     "
     id="polyline24"
     transform="matrix(4.1666616,0,0,4.1666616,1.42692e-5,0.0016416)" /><line
     fill="none"
     stroke="#00adee"
     stroke-miterlimit="10"
     stroke-dasharray="37.7612, 37.7612"
     x1="950.79889"
     y1="858.61725"
     x2="2517.8928"
     y2="858.61725"
     id="line24"
     style="stroke-width:4.16666" /><polyline
     fill="none"
     stroke="#00adee"
     stroke-miterlimit="10"
     points="608.826,206.068 613.326,206.068 613.331,210.568           "
     id="polyline25"
     transform="matrix(4.1666616,0,0,4.1666616,1.42692e-5,0.0016416)" /><line
     fill="none"
     stroke="#00adee"
     stroke-miterlimit="10"
     stroke-dasharray="38.2658, 38.2658"
     x1="2555.5845"
     y1="915.63385"
     x2="2556.6426"
     y2="1891.4076"
     id="line25"
     style="stroke-width:4.16666" /></svg>
