<?xml version="1.0" encoding="UTF-8" standalone="no"?>
<svg
   version="1.1"
   x="0px"
   y="0px"
   viewBox="0 0 3450 2700"
   enable-background="new 0 0 828 648"
   xml:space="preserve"
   width="3450"
   height="2700"
   id="svg203"
   sodipodi:docname="SmallProBoxBack.svg"
   inkscape:version="1.3.2 (091e20e, 2023-11-25, custom)"
   xmlns:inkscape="http://www.inkscape.org/namespaces/inkscape"
   xmlns:sodipodi="http://sodipodi.sourceforge.net/DTD/sodipodi-0.dtd"
   xmlns="http://www.w3.org/2000/svg"
   xmlns:svg="http://www.w3.org/2000/svg"><defs
     id="defs203">



	
	
	
	

	
	
	
		
	
	
	
	
	
	
	
	

		
	
		
	
		
		
		
		
	
		
	
		
	
		
		
		
		
		
		
	
		
		
		
		
		
	
		
		
		
		
		
		
	
			
			
			
			
			
			
			
		
			
		
			
			
			
			
		
			
			
			
		
			
			
			
			
			
			
			
			
			
			
			
			
			
			
			
			
			
			
			
			
			
			
			
			
			
			
			
			
			
			
			
			
			
			
			
			
			
			
			
			
			
			
			
			
			
			
			
			
			
			
			
			
			
			
			
			
			
			
			
			
			
			
			
			
			
			
			
			
			
			
			
			
			
			
			
			
			
			
			
			
			
			
			
			
			
			
			
			
			
			
			
			
			
			
			
			
			
			
		
			
		
			
		
			
		
			
		
				
				
				
			
				
				
				
			
				
				
					
				
				
					
				
				
					
				
				
					
			
				
				
					
				
				
					
				
				
					
				
				
					
			
				
				
			
				
				
					
				
				
					
				
				
					
				
				
					
			
				
				
			
				
				
				
			
				
				
				
				
			
				
				
				
			
				
				
					
				
				
					
				
				
					
				
				
					
			
				
				
					
				
				
					
				
				
					
				
				
					
			
					
					
				
					
					
				
					
					
					
					
					
				
					
					
				
						
						
					
						
						
						
						
					
						
						
						
					
						
						
					
							
							
							
							
						
							
							
							
						
							
							
						
								
								
								
								
								
								
								
							
								
								
								
								
							
								
								
								
							
									
									
								
									
									
									
									
									
								</defs><sodipodi:namedview
     id="namedview203"
     pagecolor="#505050"
     bordercolor="#eeeeee"
     borderopacity="1"
     inkscape:showpageshadow="0"
     inkscape:pageopacity="0"
     inkscape:pagecheckerboard="0"
     inkscape:deskcolor="#d1d1d1"
     inkscape:zoom="0.439431"
     inkscape:cx="2114.0975"
     inkscape:cy="1566.7989"
     inkscape:window-width="2560"
     inkscape:window-height="1351"
     inkscape:window-x="-9"
     inkscape:window-y="-9"
     inkscape:window-maximized="1"
     inkscape:current-layer="svg203" /><path
     id="Bleed_Zone"
     d="M 3449.9915,2699.9984 H -0.00845197 V 0.0016416 H 3449.9915 Z"
     style="stroke-width:4.16666;fill:#121212;fill-opacity:1"
     sodipodi:nodetypes="ccccc" /><path
     style="fill:#6a6a6a;stroke-width:18.9654;stroke-linecap:round;stroke-linejoin:round;paint-order:markers fill stroke;fill-opacity:1"
     d="m 884.9308,239.34099 c -0.8148,61.37799 -1.6355,122.75589 -2.4624,184.13372 -52.3569,0.96236 -104.9316,1.40891 -157.1545,2.68458 0.8632,90.055 1.4745,180.18013 2.5068,270.19138 39.4814,24.79657 87.6135,47.4322 121.9705,74.82153 -169.9327,13.5042 -340.9255,13.9693 -511.2079,14.3296 0.1303,358.077 -0.2608,716.3699 0.1955,1074.3119 170.909,-1.6071 342.8214,5.0297 512.7725,15.343 -38.7222,29.7558 -84.5959,50.6053 -126.1041,76.5994 0.1314,89.106 -0.2606,178.4287 0.1956,267.4001 52.2752,0.8281 104.5504,1.6578 156.8256,2.4891 0.9474,62.9329 1.3847,126.0824 2.658,188.8806 559.7907,-0.1305 1119.7976,0.2606 1679.4534,-0.1956 2.1612,-61.605 -4.3407,-124.6879 4.6936,-185.5116 26.1295,-11.7211 58.5742,-2.1381 86.671,-5.4491 20.003,-7.2298 70.1529,15.7646 67.9323,-13.8496 -0.066,-84.7539 0.1305,-169.5781 -0.098,-254.2883 -40.5777,-25.8987 -86.7366,-45.1746 -124.0773,-75.2127 25.9944,-6.5719 57.7985,-1.9103 85.5126,-5.469 141.6716,-8.0761 283.7606,-11.7356 425.5264,-10.9319 -0.1303,-358.0769 0.2608,-716.3699 -0.1955,-1074.3118 -170.539,-0.2303 -342.4393,-0.1433 -511.9014,-14.6674 39.7955,-27.37342 83.4448,-49.15436 124.9308,-73.88821 -0.03,-90.30626 0.4628,-180.82889 0.1067,-271.00031 -51.1947,-2.75462 -104.2742,5.57597 -154.4878,-4.64024 -8.4279,-37.5706 -2.521,-79.45174 -4.6136,-118.42374 -6.8933,-20.36104 16.9499,-71.49652 -18.4009,-63.54098 -553.7223,0.13047 -1107.6608,-0.26067 -1661.2481,0.19557 z"
     id="clipping" /><rect
     style="fill:#aaaaaa;stroke-width:8.08125;stroke-dashoffset:318.954;paint-order:markers stroke fill"
     id="actualSize"
     width="1704.9561"
     height="1110.236"
     x="872.5155"
     y="768.46753" /><rect
     x="874.59882"
     y="455.47192"
     fill="none"
     stroke="#00a551"
     stroke-miterlimit="10"
     width="1700.7854"
     height="312.99127"
     id="rect1"
     style="stroke-width:4.16666" /><rect
     x="874.59882"
     y="1878.7036"
     fill="none"
     stroke="#00a551"
     stroke-miterlimit="10"
     width="1700.7854"
     height="312.99127"
     id="rect2"
     style="stroke-width:4.16666" /><line
     fill="none"
     stroke="#00a551"
     stroke-miterlimit="10"
     x1="2888.3755"
     y1="784.034"
     x2="2888.3755"
     y2="1863.1327"
     id="line3"
     style="stroke-width:4.16666" /><g
     id="g1"><line
       fill="none"
       stroke="#00a551"
       stroke-miterlimit="10"
       x1="2575.3882"
       y1="768.46741"
       x2="2575.3882"
       y2="1878.7036"
       id="line2"
       style="stroke-width:4.16666" /><line
       fill="none"
       stroke="#00a551"
       stroke-miterlimit="10"
       x1="874.59882"
       y1="768.46741"
       x2="874.59882"
       y2="1878.7036"
       id="line4"
       style="stroke-width:4.16666" /></g><line
     fill="none"
     stroke="#00a551"
     stroke-miterlimit="10"
     x1="561.61169"
     y1="784.034"
     x2="561.61169"
     y2="1863.1327"
     id="line5"
     style="stroke-width:4.16666" /><polyline
     fill="none"
     stroke="#00adee"
     stroke-miterlimit="10"
     points="148.283,438.758 143.788,438.553 143.788,434.053           "
     id="polyline5"
     transform="matrix(4.1666616,0,0,4.1666616,-0.00428531,0.0016416)" /><line
     fill="none"
     stroke="#00adee"
     stroke-miterlimit="10"
     stroke-dasharray="38.7975, 38.7975"
     x1="599.11163"
     y1="1769.7537"
     x2="599.11163"
     y2="858.01312"
     id="line6"
     style="stroke-width:4.16666" /><polyline
     fill="none"
     stroke="#00adee"
     stroke-miterlimit="10"
     points="143.788,201.267 143.788,196.767 148.283,196.562           "
     id="polyline6"
     transform="matrix(4.1666616,0,0,4.1666616,-0.00428531,0.0016416)" /><line
     fill="none"
     stroke="#00adee"
     stroke-miterlimit="10"
     stroke-dasharray="40.1474, 40.1474"
     x1="657.94495"
     y1="817.18396"
     x2="798.31555"
     y2="810.784"
     id="line7"
     style="stroke-width:4.16666" /><polyline
     fill="none"
     stroke="#00adee"
     stroke-miterlimit="10"
     points="196.41,194.369 200.905,194.164 200.905,198.664     "
     id="polyline7"
     transform="matrix(4.1666616,0,0,4.1666616,-0.00428531,0.0016416)" /><line
     fill="none"
     stroke="#00adee"
     stroke-miterlimit="10"
     stroke-dasharray="36.727, 36.727"
     x1="837.09888"
     y1="864.49646"
     x2="837.09888"
     y2="1801.0369"
     id="line8"
     style="stroke-width:4.16666" /><polyline
     fill="none"
     stroke="#00adee"
     stroke-miterlimit="10"
     points="200.905,436.656 200.905,441.156 196.41,440.951     "
     id="polyline8"
     transform="matrix(4.1666616,0,0,4.1666616,-0.00428531,0.0016416)" /><line
     fill="none"
     stroke="#00adee"
     stroke-miterlimit="10"
     stroke-dasharray="40.1474, 40.1474"
     x1="778.26562"
     y1="1835.4702"
     x2="637.8949"
     y2="1829.0702"
     id="line9"
     style="stroke-width:4.16666" /><polyline
     fill="none"
     stroke="#00adee"
     stroke-miterlimit="10"
     points="679.421,196.563 683.916,196.768 683.916,201.268           "
     id="polyline10"
     transform="matrix(4.1666616,0,0,4.1666616,-0.00428531,0.0016416)" /><line
     fill="none"
     stroke="#00adee"
     stroke-miterlimit="10"
     stroke-dasharray="38.7975, 38.7975"
     x1="2849.6423"
     y1="877.41302"
     x2="2849.6423"
     y2="1789.1578"
     id="line10"
     style="stroke-width:4.16666" /><polyline
     fill="none"
     stroke="#00adee"
     stroke-miterlimit="10"
     points="683.916,434.053 683.916,438.553 679.421,438.758           "
     id="polyline11"
     transform="matrix(4.1666616,0,0,4.1666616,-0.00428531,0.0016416)" /><line
     fill="none"
     stroke="#00adee"
     stroke-miterlimit="10"
     stroke-dasharray="40.1474, 40.1474"
     x1="2790.8047"
     y1="1829.9869"
     x2="2650.4343"
     y2="1836.3827"
     id="line11"
     style="stroke-width:4.16666" /><polyline
     fill="none"
     stroke="#00adee"
     stroke-miterlimit="10"
     points="631.294,440.951 626.798,441.156 626.798,436.656           "
     id="polyline12"
     transform="matrix(4.1666616,0,0,4.1666616,-0.00428531,0.0016416)" /><line
     fill="none"
     stroke="#00adee"
     stroke-miterlimit="10"
     stroke-dasharray="36.727, 36.727"
     x1="2611.6509"
     y1="1782.6746"
     x2="2611.6509"
     y2="846.12976"
     id="line12"
     style="stroke-width:4.16666" /><polyline
     fill="none"
     stroke="#00adee"
     stroke-miterlimit="10"
     points="626.798,198.664 626.798,194.164 631.294,194.369           "
     id="polyline13"
     transform="matrix(4.1666616,0,0,4.1666616,-0.00428531,0.0016416)" /><line
     fill="none"
     stroke="#00adee"
     stroke-miterlimit="10"
     stroke-dasharray="40.1474, 40.1474"
     x1="2670.4883"
     y1="811.70062"
     x2="2810.8589"
     y2="818.0965"
     id="line13"
     style="stroke-width:4.16666" /><polyline
     fill="none"
     stroke="#00adee"
     stroke-miterlimit="10"
     points="223.405,175.432 218.905,175.432 218.905,170.932           "
     id="polyline14"
     transform="matrix(4.1666616,0,0,4.1666616,-0.00428531,0.0016416)" /><line
     fill="none"
     stroke="#00adee"
     stroke-miterlimit="10"
     stroke-dasharray="40.0983, 40.0983"
     x1="912.09875"
     y1="672.11749"
     x2="912.09875"
     y2="531.77185"
     id="line14"
     style="stroke-width:4.16666" /><polyline
     fill="none"
     stroke="#00adee"
     stroke-miterlimit="10"
     points="218.905,122.813 218.905,118.313 223.405,118.313           "
     id="polyline15"
     transform="matrix(4.1666616,0,0,4.1666616,-0.00428531,0.0016416)" /><line
     fill="none"
     stroke="#00adee"
     stroke-miterlimit="10"
     stroke-dasharray="36.937, 36.937"
     x1="967.78619"
     y1="492.97189"
     x2="2500.6677"
     y2="492.97189"
     id="line15"
     style="stroke-width:4.16666" /><polyline
     fill="none"
     stroke="#00adee"
     stroke-miterlimit="10"
     points="604.595,118.313 609.095,118.313 609.095,122.813           "
     id="polyline16"
     transform="matrix(4.1666616,0,0,4.1666616,-0.00428531,0.0016416)" /><line
     fill="none"
     stroke="#00adee"
     stroke-miterlimit="10"
     stroke-dasharray="40.0983, 40.0983"
     x1="2537.8884"
     y1="551.82178"
     x2="2537.8884"
     y2="692.16742"
     id="line16"
     style="stroke-width:4.16666" /><polyline
     fill="none"
     stroke="#00adee"
     stroke-miterlimit="10"
     points="609.095,170.932 609.095,175.432 604.595,175.432           "
     id="polyline17"
     transform="matrix(4.1666616,0,0,4.1666616,-0.00428531,0.0016416)" /><line
     fill="none"
     stroke="#00adee"
     stroke-miterlimit="10"
     stroke-dasharray="36.937, 36.937"
     x1="2482.2009"
     y1="730.96747"
     x2="949.31958"
     y2="730.96747"
     id="line17"
     style="stroke-width:4.16666" /><polyline
     fill="none"
     stroke="#00adee"
     stroke-miterlimit="10"
     points="223.405,517.007 218.905,517.007 218.905,512.507           "
     id="polyline18"
     transform="matrix(4.1666616,0,0,4.1666616,-0.00428531,0.0016416)" /><line
     fill="none"
     stroke="#00adee"
     stroke-miterlimit="10"
     stroke-dasharray="40.0983, 40.0983"
     x1="912.09875"
     y1="2095.345"
     x2="912.09875"
     y2="1955.0034"
     id="line18"
     style="stroke-width:4.16666" /><polyline
     fill="none"
     stroke="#00adee"
     stroke-miterlimit="10"
     points="218.905,464.389 218.905,459.889 223.405,459.889           "
     id="polyline19"
     transform="matrix(4.1666616,0,0,4.1666616,-0.00428531,0.0016416)" /><line
     fill="none"
     stroke="#00adee"
     stroke-miterlimit="10"
     stroke-dasharray="36.937, 36.937"
     x1="967.78619"
     y1="1916.2035"
     x2="2500.6677"
     y2="1916.2035"
     id="line19"
     style="stroke-width:4.16666" /><polyline
     fill="none"
     stroke="#00adee"
     stroke-miterlimit="10"
     points="604.595,459.889 609.095,459.889 609.095,464.389           "
     id="polyline20"
     transform="matrix(4.1666616,0,0,4.1666616,-0.00428531,0.0016416)" /><line
     fill="none"
     stroke="#00adee"
     stroke-miterlimit="10"
     stroke-dasharray="40.0983, 40.0983"
     x1="2537.8884"
     y1="1975.0492"
     x2="2537.8884"
     y2="2115.395"
     id="line20"
     style="stroke-width:4.16666" /><polyline
     fill="none"
     stroke="#00adee"
     stroke-miterlimit="10"
     points="609.095,512.507 609.095,517.007 604.595,517.007           "
     id="polyline21"
     transform="matrix(4.1666616,0,0,4.1666616,-0.00428531,0.0016416)" /><line
     fill="none"
     stroke="#00adee"
     stroke-miterlimit="10"
     stroke-dasharray="36.937, 36.937"
     x1="2482.2009"
     y1="2154.1948"
     x2="949.31958"
     y2="2154.1948"
     id="line21"
     style="stroke-width:4.16666" /><polyline
     fill="none"
     stroke="#00adee"
     stroke-miterlimit="10"
     points="223.405,442.624 218.905,442.624 218.905,438.124           "
     id="polyline22"
     transform="matrix(4.1666616,0,0,4.1666616,-0.00428531,0.0016416)" /><line
     fill="none"
     stroke="#00adee"
     stroke-miterlimit="10"
     stroke-dasharray="37.0666, 37.0666"
     x1="912.09875"
     y1="1788.4495"
     x2="912.09875"
     y2="843.25061"
     id="line22"
     style="stroke-width:4.16666" /><polyline
     fill="none"
     stroke="#00adee"
     stroke-miterlimit="10"
     points="218.905,197.932 218.905,193.432 223.405,193.432           "
     id="polyline23"
     transform="matrix(4.1666616,0,0,4.1666616,-0.00428531,0.0016416)" /><line
     fill="none"
     stroke="#00adee"
     stroke-miterlimit="10"
     stroke-dasharray="36.937, 36.937"
     x1="967.78619"
     y1="805.96735"
     x2="2500.6677"
     y2="805.96735"
     id="line23"
     style="stroke-width:4.16666" /><polyline
     fill="none"
     stroke="#00adee"
     stroke-miterlimit="10"
     points="604.595,193.432 609.095,193.432 609.095,197.932           "
     id="polyline24"
     transform="matrix(4.1666616,0,0,4.1666616,-0.00428531,0.0016416)" /><line
     fill="none"
     stroke="#00adee"
     stroke-miterlimit="10"
     stroke-dasharray="37.0666, 37.0666"
     x1="2537.8884"
     y1="861.78394"
     x2="2537.8884"
     y2="1806.9828"
     id="line24"
     style="stroke-width:4.16666" /><polyline
     fill="none"
     stroke="#00adee"
     stroke-miterlimit="10"
     points="609.095,438.124 609.095,442.624 604.595,442.624           "
     id="polyline25"
     transform="matrix(4.1666616,0,0,4.1666616,-0.00428531,0.0016416)" /><line
     fill="none"
     stroke="#00adee"
     stroke-miterlimit="10"
     stroke-dasharray="36.937, 36.937"
     x1="2482.2009"
     y1="1844.266"
     x2="949.31958"
     y2="1844.266"
     id="line25"
     style="stroke-width:4.16666" /></svg>
