<?xml version="1.0" encoding="UTF-8" standalone="no"?>
<svg
   version="1.1"
   x="0px"
   y="0px"
   width="825"
   height="2400"
   viewBox="0 0 825 2400"
   enable-background="new 0 0 198 576"
   xml:space="preserve"
   id="svg207"
   sodipodi:docname="SmallDial.svg"
   inkscape:version="1.3.2 (091e20e, 2023-11-25, custom)"
   xmlns:inkscape="http://www.inkscape.org/namespaces/inkscape"
   xmlns:sodipodi="http://sodipodi.sourceforge.net/DTD/sodipodi-0.dtd"
   xmlns="http://www.w3.org/2000/svg"
   xmlns:svg="http://www.w3.org/2000/svg"><defs
     id="defs207">
	
	
	
	
	
	
	
	
	
	
	

	

	
	
	
	
	
	
	
	
	
	
	
	
	
	
	
	
		
	
	

	
	
	
	
	
	
	
	
	
	
	
	
	
	
	
	
	
	
	
	
	
	

		
	
		
	
		
	
		
		
		
		
		
		
	
		
	
		
	
		
	
		
	
		
	
		
	
		
	
		
	
		
	
		
	
		
	
		
	
		
	
		
	
		
	
			
			
			
			
		
			
			
			
			
			
			
			
		
			
			
			
		
			
			
				
			
		
			
			
			
		
			
			
			
		
			
			
			
		
			
			
			
			
			
			
			
			
			
			
			
			
			
			
			
			
			
			
			
			
			
			
			
			
			
			
			
			
			
			
			
			
			
			
			
			
			
			
			
			
			
			
			
			
			
			
			
			
			
			
			
			
			
			
			
			
			
			
			
			
			
			
			
			
			
			
			
			
			
			
			
			
			
			
			
			
			
			
			
			
			
			
			
			
			
			
			
			
			
			
			
			
			
			
			
			
			
			
		
				
				
				
			
				
				
				
			
				
				
			
				
				
				
			
				
				
				
			
				
				
				
				
			
				
				
			
					
					
				
					
					
				
					
					
				
					
					
					
					
					
				
						
						
					
						
						
					
						
						
						
					
						
						
						
						
					
							
							
						
							
							
							
						
							
							
							
							
						
								
								
								
								
							
								
								
								
								
								
								
								
							
								
								
								
							
									
									
									
									
									
								
									
									
								</defs><sodipodi:namedview
     id="namedview207"
     pagecolor="#505050"
     bordercolor="#eeeeee"
     borderopacity="1"
     inkscape:showpageshadow="0"
     inkscape:pageopacity="0"
     inkscape:pagecheckerboard="0"
     inkscape:deskcolor="#d1d1d1"
     inkscape:zoom="1.5"
     inkscape:cx="375.33334"
     inkscape:cy="499.66667"
     inkscape:window-width="2560"
     inkscape:window-height="1351"
     inkscape:window-x="-9"
     inkscape:window-y="-9"
     inkscape:window-maximized="1"
     inkscape:current-layer="g207" /><g
     transform="translate(-5.684341886080802e-14, 0) scale(4.166666666666667)"
     id="g207">
<path
   id="path2"
   style="fill:#e61ae6;fill-opacity:1;stroke:none"
   d="m 99,11.584219 c -48.462987,0 -87.75,39.287013 -87.75,87.75 -10e-7,114.741291 175.5,114.741111 175.5,0 0,-48.462987 -39.28701,-87.75 -87.75,-87.75 z m 0,77.672812 c 5.56703,0 10.08,4.51297 10.08,10.08 0,5.567029 -4.51297,10.079999 -10.08,10.079999 -5.56703,0 -10.079999,-4.51297 -10.08,-10.079999 0,-5.56703 4.51297,-10.08 10.08,-10.08 z"
   sodipodi:nodetypes="sssssssss" /><rect
   fill="#939598"
   width="198"
   height="576"
   id="rect1"
   x="0"
   y="0"
   style="fill:#020202;fill-opacity:1" /><path
   id="actualSize"
   style="fill:#e21ee1;fill-opacity:1;stroke:none"
   d="m 99,11.584219 c -48.462987,0 -87.75,39.287013 -87.75,87.75 -10e-7,48.462991 39.287013,87.750001 87.75,87.750001 48.46299,0 87.75,-39.28701 87.75,-87.750001 0,-48.462987 -39.28701,-87.75 -87.75,-87.75 z m 0,77.672812 c 5.56703,0 10.08,4.51297 10.08,10.08 0,5.567029 -4.51297,10.079999 -10.08,10.079999 -5.56703,0 -10.079999,-4.51297 -10.08,-10.079999 0,-5.56703 4.51297,-10.08 10.08,-10.08 z"
   sodipodi:nodetypes="ssssssssss" /><path
   id="clipping"
   style="stroke:none;fill:#7d7f83;fill-opacity:1"
   d="M 99 11.584219 A 87.75 87.75 0 0 0 11.25 99.334219 A 87.75 87.75 0 0 0 99 187.08422 A 87.75 87.75 0 0 0 186.75 99.334219 A 87.75 87.75 0 0 0 99 11.584219 z M 99 89.257031 A 10.08 10.08 0 0 1 109.08 99.337031 A 10.08 10.08 0 0 1 99 109.41703 A 10.08 10.08 0 0 1 88.92 99.337031 A 10.08 10.08 0 0 1 99 89.257031 z M 99 198.92016 C 63.94 198.92016 33.564875 218.96909 18.706875 248.22609 C 19.862875 261.02809 20.475938 274.34322 20.475938 288.01922 C 20.475938 302.22822 19.815 316.05 18.57 329.31 C 30.779 353.572 53.626 371.56222 81 377.11922 L 81.000938 377.00109 L 81.000938 385.23 L 81.000938 385.26516 C 53.626936 390.82216 30.779936 408.81091 18.570938 433.07391 C 19.815938 446.33291 20.476875 460.15522 20.476875 474.36422 C 20.476875 488.04022 19.862813 501.35481 18.707813 514.15781 C 33.564813 543.41481 63.94 563.46422 99 563.46422 C 134.061 563.46422 164.43609 543.41481 179.29313 514.15781 C 178.13612 501.35481 177.52315 488.04022 177.52312 474.36422 C 177.52313 460.15522 178.18406 446.33291 179.42906 433.07391 C 167.22006 408.81091 144.37306 390.82216 116.99906 385.26516 L 116.99906 377.15484 L 116.99906 377.11922 C 144.37306 371.56222 167.22006 353.572 179.42906 329.31 C 178.18406 316.05 177.52312 302.22822 177.52312 288.01922 C 177.52313 274.34422 178.13709 261.02909 179.29313 248.22609 C 164.43609 218.96909 134.061 198.92016 99 198.92016 z M 99.000938 218.39484 C 107.28494 218.39484 114 224.40478 114 231.82078 L 102.75 269.58891 C 102.096 271.48391 101.07194 272.33906 99.000938 272.33906 C 96.929938 272.33906 95.756938 271.26791 95.250938 269.58891 L 84 231.82078 C 84 224.40478 90.716938 218.39484 99.000938 218.39484 z M 99.385781 278.80312 A 10.08 10.08 0 0 1 109.46578 288.88313 A 10.08 10.08 0 0 1 99.385781 298.96312 A 10.08 10.08 0 0 1 89.305781 288.88313 A 10.08 10.08 0 0 1 99.385781 278.80312 z M 99.000938 463.38516 A 10.08 10.08 0 0 1 109.08094 473.46516 A 10.08 10.08 0 0 1 99.000938 483.54516 A 10.08 10.08 0 0 1 88.920938 473.46516 A 10.08 10.08 0 0 1 99.000938 463.38516 z " /><path
   fill="none"
   stroke="#ed1c24"
   stroke-width="0.8333"
   d="M 100.217,208.379"
   id="path3" /><path
   fill="none"
   stroke="#ed1c24"
   stroke-width="0.8333"
   d="M 128.488,204.037"
   id="path4" /><path
   fill="none"
   stroke="#ed1c24"
   stroke-width="0.8333"
   d="M 70.699,203.632"
   id="path5" /><path
   fill="none"
   stroke="#ed1c24"
   stroke-width="0.8333"
   d="M 99.001,244.753"
   id="path6" />
<line
   fill="none"
   stroke="#00a651"
   stroke-width="0.8333"
   x1="117"
   y1="381.25299"
   x2="81"
   y2="381.25299"
   id="line7" />
<path
   fill="none"
   stroke="#00aeef"
   stroke-dasharray="5.1378, 5.1378"
   d="m 52.422,137.969 c -4.359,6.002 -2.461,14.81 4.243,19.68 6.702,4.869 15.669,3.955 20.027,-2.045 l 13.097,-37.167 c 0.578,-1.656 0.259,-3.212 -1.417,-4.429 -1.677,-1.219 -3.007,-1.129 -4.649,0.02 z"
   id="path8"
   style="fill:#c0c1c3;fill-opacity:1;stroke:none" /><path
   fill="none"
   stroke="#00aeef"
   stroke-dasharray="5.1378, 5.1378"
   d="m 145.508,60.889 c 4.359,-6.001 2.46,-14.811 -4.244,-19.679 -6.701,-4.87 -15.67,-3.955 -20.026,2.044 L 108.141,80.42 c -0.58,1.657 -0.258,3.212 1.416,4.432 1.678,1.218 3.008,1.126 4.651,-0.022 z"
   id="path9"
   style="fill:#c0c1c3;fill-opacity:1;stroke:none" /><path
   fill="none"
   stroke="#00aeef"
   stroke-dasharray="5.1377, 5.1377"
   d="m 38.693,103.201 c -7.053,2.291 -10.695,10.533 -8.135,18.414 2.561,7.878 10.353,12.409 17.404,10.117 l 32.441,-22.37 c 1.441,-1 2.098,-2.446 1.458,-4.417 -0.641,-1.97 -1.771,-2.68 -3.774,-2.716 z"
   id="path10"
   style="fill:#c0c1c3;fill-opacity:1;stroke:none" /><path
   fill="none"
   stroke="#00aeef"
   stroke-dasharray="5.1378, 5.1378"
   d="M 159.308,95.557 C 166.362,93.264 170.002,85.02 167.444,77.14 164.882,69.262 157.09,64.731 150.038,67.023 l -32.441,22.37 c -1.441,1.001 -2.098,2.447 -1.457,4.417 0.642,1.97 1.771,2.68 3.774,2.717 z"
   id="path11"
   style="fill:#c0c1c3;fill-opacity:1;stroke:none" /><path
   fill="none"
   stroke="#00aeef"
   stroke-dasharray="5.1378, 5.1378"
   d="M 47.963,67.023 C 40.912,64.731 33.119,69.26 30.559,77.139 28,85.019 31.641,93.264 38.693,95.555 l 39.396,0.97 c 1.754,0.039 3.134,-0.747 3.773,-2.716 0.641,-1.971 0.144,-3.208 -1.456,-4.416 z"
   id="path12"
   style="fill:#c0c1c3;fill-opacity:1;stroke:none" /><path
   fill="none"
   stroke="#00aeef"
   stroke-dasharray="5.1378, 5.1378"
   d="m 150.039,131.734 c 7.051,2.291 14.844,-2.238 17.404,-10.117 2.559,-7.879 -1.082,-16.124 -8.135,-18.416 l -39.396,-0.97 c -1.753,-0.037 -3.133,0.745 -3.772,2.716 -0.642,1.971 -0.143,3.209 1.456,4.416 z"
   id="path13"
   style="fill:#c0c1c3;fill-opacity:1;stroke:none" /><path
   fill="none"
   stroke="#00aeef"
   stroke-dasharray="5.1377, 5.1377"
   d="M 76.729,43.204 C 72.371,37.205 63.405,36.289 56.703,41.159 50.001,46.028 48.099,54.839 52.459,60.838 L 83.76,84.779 c 1.396,1.061 2.975,1.237 4.65,0.021 1.676,-1.218 2.001,-2.512 1.417,-4.429 z"
   id="path14"
   style="fill:#c0c1c3;fill-opacity:1;stroke:none" /><path
   fill="none"
   stroke="#00aeef"
   stroke-dasharray="5.1378, 5.1378"
   d="m 121.273,155.555 c 4.357,5.998 13.324,6.915 20.027,2.045 6.701,-4.869 8.602,-13.682 4.244,-19.68 l -31.302,-23.941 c -1.396,-1.061 -2.974,-1.237 -4.649,-0.02 -1.678,1.218 -2.002,2.512 -1.418,4.428 z"
   id="path15"
   style="fill:#c0c1c3;fill-opacity:1;stroke:none" /><path
   fill="none"
   stroke="#00aeef"
   stroke-dasharray="5.1378, 5.1378"
   d="m 114.001,40.8 c 0,-7.416 -6.715,-13.426 -15,-13.426 C 90.717,27.374 84,33.385 84,40.8 l 11.251,37.768 c 0.506,1.679 1.679,2.75 3.75,2.75 2.072,0 3.095,-0.855 3.75,-2.75 z"
   id="path16"
   style="fill:#c0c1c3;fill-opacity:1;stroke:none" /><path
   fill="none"
   stroke="#00aeef"
   stroke-dasharray="5.1378, 5.1378"
   d="m 84,157.876 c 0,7.415 6.715,13.426 15,13.426 8.284,0 15.001,-6.011 15.001,-13.426 L 102.75,120.108 c -0.506,-1.68 -1.679,-2.75 -3.75,-2.75 -2.072,0 -3.096,0.855 -3.75,2.75 z"
   id="path17"
   style="fill:#c0c1c3;fill-opacity:1;stroke:none" /><path
   id="path19"
   style="fill:#c0c1c3;fill-opacity:1;stroke:none"
   d="M 98.833125 208.92094 C 67.333125 208.92094 40.041969 226.93416 26.692969 253.22016 C 27.730969 264.72216 28.282031 276.68519 28.282031 288.97219 C 28.282031 301.73919 27.689156 314.15794 26.570156 326.07094 C 36.439156 345.68194 54.044188 360.73309 75.387188 367.19109 L 119.87391 367.87781 C 142.29591 361.84981 160.85916 346.41394 171.09516 326.07094 C 169.97716 314.15794 169.38281 301.73919 169.38281 288.97219 C 169.38281 276.68519 169.93381 264.72316 170.97281 253.22016 C 157.62381 226.93416 130.33312 208.92094 98.833125 208.92094 z M 98.797031 209.20219 C 111.03003 209.20219 120.94594 218.07884 120.94594 229.02984 L 107.40938 274.71891 C 109.25835 275.72523 111.21231 277.3447 112.98141 279.92953 C 113.04259 280.01893 113.0934 280.10453 113.14453 280.19063 C 114.80542 282.7341 115.77422 285.76974 115.77422 289.035 C 115.77422 297.999 108.50494 305.27016 99.540938 305.27016 C 90.576938 305.27016 83.307188 298 83.307188 289.035 C 83.307186 286.74772 83.787305 284.57515 84.642188 282.60281 C 84.784632 282.04909 85.918838 278.20934 90.62625 275.59031 L 90.479063 275.59078 L 76.643906 229.02984 C 76.643906 218.07784 86.563031 209.20219 98.797031 209.20219 z " /><path
   fill="none"
   stroke="#00aeef"
   stroke-width="0.8536"
   d="M 99.54,272.805"
   id="path23" /><path
   id="path27"
   style="fill:#c0c1c3;fill-opacity:1;stroke:none"
   d="M 83.282813 393.34406 C 58.248813 398.42606 37.354062 414.87719 26.189063 437.06719 C 27.328063 449.19219 27.931875 461.83281 27.931875 474.82781 C 27.931875 487.33481 27.371156 499.51309 26.315156 511.22109 C 39.902156 537.97709 67.680906 556.31203 99.743906 556.31203 C 131.80791 556.31203 159.58706 537.97709 173.17406 511.22109 C 172.11606 499.51309 171.55594 487.33481 171.55594 474.82781 C 171.55594 461.83281 172.16022 449.19219 173.29922 437.06719 C 162.13422 414.87819 141.23894 398.42606 116.20594 393.34406 L 83.282813 393.34406 z M 98.780156 457.80516 C 107.71816 457.80516 114.96797 465.05678 114.96797 473.99578 C 114.96797 482.93578 107.71816 490.18406 98.780156 490.18406 C 89.839156 490.18406 82.590938 482.93678 82.590938 473.99578 C 82.590938 465.05678 89.839156 457.80516 98.780156 457.80516 z " />

</g></svg>
