<?xml version="1.0" encoding="UTF-8" standalone="no"?>
<svg
   version="1.1"
   id="Layer_1"
   x="0px"
   y="0px"
   width="2850"
   height="1800"
   viewBox="0 0 2850 1800"
   enable-background="new 0 0 684 432"
   xml:space="preserve"
   sodipodi:docname="SquareTuckBox48.svg"
   inkscape:version="1.3.2 (091e20e, 2023-11-25, custom)"
   xmlns:inkscape="http://www.inkscape.org/namespaces/inkscape"
   xmlns:sodipodi="http://sodipodi.sourceforge.net/DTD/sodipodi-0.dtd"
   xmlns="http://www.w3.org/2000/svg"
   xmlns:svg="http://www.w3.org/2000/svg"><defs
     id="defs222">








































	

	

	

	
	
	
	
	
	

	

	

	

	

	

	

	

	

	

		
		
		
		
		
		
		
	
		
		
		
		
	
		
	
		
	
		
	
		
	
		
	
		
		
		
		
		
		
		
		
		
		
		
		
		
		
		
		
		
		
		
		
		
		
		
		
		
		
		
		
		
		
		
		
		
		
		
		
		
		
		
		
		
		
		
		
		
		
		
		
		
		
		
		
		
		
		
		
		
		
		
		
		
		
		
		
		
		
		
		
		
		
		
		
		
		
		
		
		
		
		
		
		
		
		
		
		
		
		
		
		
		
		
		
		
		
		
		
		
		
	
		
		
		
	
		
	
		
	
			
			
			
			
				
			
			
				
			
			
			
			
			
			
				
		
			
			
				
			
			
				
			
			
				
			
			
				
		
			
			
		
			
			
			
		
			
			
			
		
			
			
		
			
			
			
			
		
			
			
			
		
			
			
			
		
			
			
				
			
			
				
			
			
				
			
			
				
		
			
			
				
			
			
				
			
			
				
			
			
				
		
			
			
				
			
			
				
			
			
				
			
			
				
		
			
			
			
			
			
			
		
			
			
				
			
			
				
			
			
				
			
			
				
		
				
				
			
				
				
				
				
				
			
				
				
			
				
				
			
					
					
				
					
					
					
					
				
					
					
					
				
					
					
				
						
						
						
						
					
						
						
						
					
						
						
					
							
							
							
							
						
							
							
							
							
							
							
							
						
							
							
							
						
								
								
							
								
								
								
								
								
							</defs><sodipodi:namedview
     id="namedview222"
     pagecolor="#505050"
     bordercolor="#eeeeee"
     borderopacity="1"
     inkscape:showpageshadow="0"
     inkscape:pageopacity="0"
     inkscape:pagecheckerboard="0"
     inkscape:deskcolor="#d1d1d1"
     inkscape:zoom="0.75228069"
     inkscape:cx="1018.237"
     inkscape:cy="860.71596"
     inkscape:window-width="2560"
     inkscape:window-height="1351"
     inkscape:window-x="-9"
     inkscape:window-y="-9"
     inkscape:window-maximized="1"
     inkscape:current-layer="Layer_1" /><polygon
     fill="#929497"
     points="0,432 684,432 684,0 0,0 "
     id="polygon1"
     transform="matrix(4.1666667,0,0,4.1666667,-1.14e-5,-7.2e-6)"
     style="fill:#1e1e1f;fill-opacity:1" /><path
     fill="#ffffff"
     stroke="#ed2224"
     stroke-miterlimit="10"
     d="M 1332,192.99583 C 1332,110.14999 1264.8458,42.995826 1182,42.995826 H 423.66666 c -82.84167,0 -150,67.158334 -150,150.000004 l -0.004,66 h -65.99583 c -82.84167,0 -150.000004,67.15833 -150.004171,150 l 0.0042,1133.33337 v 150 H 273.66666 v -150 216 H 1332 v -216 150.0041 h 216 v -150.0041 186.8333 h 1058.3333 v -186.8292 h 186.0042 V 408.99583 h -186.0042 -454.1666 c 0,91.66667 -150,91.66667 -150,0 H 1548 c 0,-82.84583 -67.1542,-150 -150,-150 h -66"
     id="clipping"
     style="stroke-width:4.16667;stroke:none;fill:#595959;fill-opacity:1" /><rect
     x="273.66666"
     y="409"
     fill="none"
     stroke="#6abd45"
     stroke-width="1.66667"
     stroke-miterlimit="10"
     width="1058.3334"
     height="1133.3334"
     id="actualSize"
     style="fill:#b2b2b2;fill-opacity:1;stroke:none;stroke-opacity:1" /><polyline
     fill="none"
     stroke="#ed2224"
     stroke-miterlimit="10"
     points="65.68,126.959 65.68,46.319 94.48,46.319 "
     id="polyline1"
     transform="matrix(4.1666667,0,0,4.1666667,-1.14e-5,-7.2e-6)" /><polyline
     fill="none"
     stroke="#ed2224"
     stroke-miterlimit="10"
     points="319.68,126.959 319.68,46.319 290.88,46.319 "
     id="polyline2"
     transform="matrix(4.1666667,0,0,4.1666667,-1.14e-5,-7.2e-6)" /><line
     fill="none"
     stroke="#6abd45"
     stroke-width="1.66667"
     stroke-miterlimit="10"
     x1="273.66666"
     y1="1542.3291"
     x2="57.666656"
     y2="1542.3291"
     id="line2" /><line
     fill="none"
     stroke="#6abd45"
     stroke-width="1.66667"
     stroke-miterlimit="10"
     x1="273.66666"
     y1="408.99582"
     x2="57.662487"
     y2="409"
     id="line3" /><polyline
     fill="none"
     stroke="#6abd45"
     stroke-width="0.4"
     stroke-miterlimit="10"
     points="319.68,370.159 371.52,370.159   371.52,98.159 319.68,98.16 "
     id="polyline3"
     transform="matrix(4.1666667,0,0,4.1666667,-1.14e-5,-7.2e-6)" /><line
     fill="none"
     stroke="#6abd45"
     stroke-width="1.66667"
     stroke-miterlimit="10"
     x1="2606.3335"
     y1="1542.3334"
     x2="2606.3335"
     y2="408.99582"
     id="line4" /><line
     fill="none"
     stroke="#6abd45"
     stroke-width="1.66667"
     stroke-miterlimit="10"
     x1="393.66669"
     y1="192.99583"
     x2="1212"
     y2="192.99583"
     id="line5" /><line
     fill="none"
     stroke="#6abd45"
     stroke-width="1.66667"
     stroke-miterlimit="10"
     x1="273.66666"
     y1="528.99585"
     x2="1332"
     y2="528.99585"
     id="line6" /><line
     fill="none"
     stroke="#6abd45"
     stroke-width="1.66667"
     stroke-miterlimit="10"
     x1="1548"
     y1="1542.3291"
     x2="2606.3335"
     y2="1542.3334"
     id="line7" /><rect
     x="2638.175"
     y="434.72083"
     fill="#e6e6e6"
     width="129.87917"
     height="1080.5542"
     id="rect7"
     style="stroke-width:4.16667" /><path
     fill="none"
     stroke="#29abe2"
     stroke-miterlimit="10"
     stroke-dasharray="20.8333"
     d="m 2205.025,476.625 c -34.1667,32.62083 -88.1792,51.9625 -144.6125,47.3 -50.6333,-4.18334 -103.3125,-21.4 -128.9667,-54.97917"
     id="path181"
     style="stroke-width:4.16667" /><line
     fill="none"
     stroke="#29abe2"
     stroke-miterlimit="10"
     stroke-dasharray="20.8333"
     x1="1879.4166"
     y1="449.08331"
     x2="1622.1833"
     y2="449.08331"
     id="line182"
     style="stroke-width:4.16667" /><polyline
     fill="none"
     stroke="#29abe2"
     stroke-miterlimit="10"
     stroke-dasharray="5"
     points="386.074,107.78 382.538,107.78      382.538,110.437    "
     id="polyline182"
     transform="matrix(4.1666667,0,0,4.1666667,-1.14e-5,-7.2e-6)" /><line
     fill="none"
     stroke="#29abe2"
     stroke-miterlimit="10"
     stroke-dasharray="20.8333"
     x1="1593.9083"
     y1="481.95416"
     x2="1593.9083"
     y2="1473.8624"
     id="line183"
     style="stroke-width:4.16667" /><polyline
     fill="none"
     stroke="#29abe2"
     stroke-miterlimit="10"
     stroke-dasharray="5"
     points="382.538,356.344 382.538,359      386.074,359    "
     id="polyline183"
     transform="matrix(4.1666667,0,0,4.1666667,-1.14e-5,-7.2e-6)" /><line
     fill="none"
     stroke="#29abe2"
     stroke-miterlimit="10"
     stroke-dasharray="20.8333"
     x1="1638.9417"
     y1="1495.8334"
     x2="2532.6125"
     y2="1495.8334"
     id="line184"
     style="stroke-width:4.16667" /><polyline
     fill="none"
     stroke="#29abe2"
     stroke-miterlimit="10"
     stroke-dasharray="5"
     points="611.464,359 615,359 615,356.344         "
     id="polyline184"
     transform="matrix(4.1666667,0,0,4.1666667,-1.14e-5,-7.2e-6)" /><line
     fill="none"
     stroke="#29abe2"
     stroke-miterlimit="10"
     stroke-dasharray="20.8333"
     x1="2562.5"
     y1="1462.9625"
     x2="2562.5"
     y2="471.05417"
     id="line185"
     style="stroke-width:4.16667" /><line
     fill="none"
     stroke="#29abe2"
     stroke-miterlimit="10"
     stroke-dasharray="20.8333"
     x1="2519.8374"
     y1="449.08331"
     x2="2254.4375"
     y2="449.08331"
     id="line186"
     style="stroke-width:4.16667" /><polyline
     fill="none"
     stroke="#29abe2"
     stroke-miterlimit="10"
     stroke-dasharray="5"
     points="308.333,356.361 308.333,358.999      304.814,358.999    "
     id="polyline188"
     transform="matrix(4.1666667,0,0,4.1666667,-1.14e-5,-7.2e-6)" /><line
     fill="none"
     stroke="#29abe2"
     stroke-miterlimit="10"
     stroke-dasharray="20.8333"
     x1="1239.9042"
     y1="1495.8291"
     x2="350.46249"
     y2="1495.8291"
     id="line188"
     style="stroke-width:4.16667" /><polyline
     fill="none"
     stroke="#29abe2"
     stroke-miterlimit="10"
     stroke-dasharray="5"
     points="80.493,358.999 76.974,358.999      76.974,356.361    "
     id="polyline189"
     transform="matrix(4.1666667,0,0,4.1666667,-1.14e-5,-7.2e-6)" /><line
     fill="none"
     stroke="#29abe2"
     stroke-miterlimit="10"
     stroke-dasharray="20.8333"
     x1="320.72498"
     y1="1463.1917"
     x2="320.72498"
     y2="478.29999"
     id="line189"
     style="stroke-width:4.16667" /><polyline
     fill="none"
     stroke="#29abe2"
     stroke-miterlimit="10"
     stroke-dasharray="5"
     points="76.974,112.194 76.974,109.557      80.493,109.557    "
     id="polyline190"
     transform="matrix(4.1666667,0,0,4.1666667,-1.14e-5,-7.2e-6)" /><line
     fill="none"
     stroke="#29abe2"
     stroke-miterlimit="10"
     stroke-dasharray="20.8333"
     x1="365.53748"
     y1="456.48749"
     x2="1254.9834"
     y2="456.48749"
     id="line190"
     style="stroke-width:4.16667" /><polyline
     fill="none"
     stroke="#29abe2"
     stroke-miterlimit="10"
     stroke-dasharray="5"
     points="304.814,109.557 308.333,109.557      308.333,112.194    "
     id="polyline191"
     transform="matrix(4.1666667,0,0,4.1666667,-1.14e-5,-7.2e-6)" /><line
     fill="none"
     stroke="#29abe2"
     stroke-miterlimit="10"
     stroke-dasharray="20.8333"
     x1="1284.7208"
     y1="489.12915"
     x2="1284.7208"
     y2="1474.0167"
     id="line191"
     style="stroke-width:4.16667" /><polyline
     fill="none"
     stroke="#29abe2"
     stroke-miterlimit="10"
     stroke-dasharray="6.4298"
     points="308.333,82.383      308.333,88.332 304.834,88.332    "
     id="polyline194"
     transform="matrix(4.1666667,0,0,4.1666667,-1.14e-5,-7.2e-6)" /><line
     fill="none"
     stroke="#29abe2"
     stroke-miterlimit="10"
     stroke-dasharray="26.7908"
     x1="1240.1625"
     y1="368.04999"
     x2="355.84998"
     y2="368.04999"
     id="line194"
     style="stroke-width:4.16667" /><polyline
     fill="none"
     stroke="#29abe2"
     stroke-miterlimit="10"
     stroke-dasharray="6.4298"
     points="81.807,88.332 78.307,88.332      78.307,82.383    "
     id="polyline195"
     transform="matrix(4.1666667,0,0,4.1666667,-1.14e-5,-7.2e-6)" /><line
     fill="none"
     stroke="#29abe2"
     stroke-miterlimit="10"
     stroke-dasharray="26.7908"
     x1="326.27914"
     y1="317.19583"
     x2="326.27914"
     y2="278.10001"
     id="line195"
     style="stroke-width:4.16667" /><polyline
     fill="none"
     stroke="#29abe2"
     stroke-miterlimit="10"
     stroke-dasharray="6.4298"
     points="78.307,63.617 78.307,57.667      81.807,57.667    "
     id="polyline196"
     transform="matrix(4.1666667,0,0,4.1666667,-1.14e-5,-7.2e-6)" /><line
     fill="none"
     stroke="#29abe2"
     stroke-miterlimit="10"
     stroke-dasharray="26.7908"
     x1="370.83749"
     y1="240.27916"
     x2="1255.1542"
     y2="240.27916"
     id="line196"
     style="stroke-width:4.16667" /><polyline
     fill="none"
     stroke="#29abe2"
     stroke-miterlimit="10"
     stroke-dasharray="6.4298"
     points="304.834,57.667      308.333,57.667 308.333,63.617    "
     id="polyline197"
     transform="matrix(4.1666667,0,0,4.1666667,-1.14e-5,-7.2e-6)" /><line
     fill="none"
     stroke="#29abe2"
     stroke-miterlimit="10"
     stroke-dasharray="26.7908"
     x1="1284.7208"
     y1="291.13333"
     x2="1284.7208"
     y2="330.22498"
     id="line197"
     style="stroke-width:4.16667" /><polyline
     fill="none"
     stroke="#29abe2"
     stroke-miterlimit="10"
     stroke-dasharray="6.3702"
     points="308.333,406.607 308.333,413      304.815,413    "
     id="polyline199"
     transform="matrix(4.1666667,0,0,4.1666667,-1.14e-5,-7.2e-6)" /><line
     fill="none"
     stroke="#29abe2"
     stroke-miterlimit="10"
     stroke-dasharray="26.5425"
     x1="1239.9083"
     y1="1720.8334"
     x2="350.56665"
     y2="1720.8334"
     id="line199"
     style="stroke-width:4.16667" /><polyline
     fill="none"
     stroke="#29abe2"
     stroke-miterlimit="10"
     stroke-dasharray="6.3702"
     points="80.519,413 77,413 77,406.607         "
     id="polyline200"
     transform="matrix(4.1666667,0,0,4.1666667,-1.14e-5,-7.2e-6)" /><line
     fill="none"
     stroke="#29abe2"
     stroke-miterlimit="10"
     stroke-dasharray="26.5425"
     x1="320.83331"
     y1="1666.2042"
     x2="320.83331"
     y2="1624.2125"
     id="line200"
     style="stroke-width:4.16667" /><polyline
     fill="none"
     stroke="#29abe2"
     stroke-miterlimit="10"
     stroke-dasharray="6.3702"
     points="77,386.45 77,380.06      80.519,380.06    "
     id="polyline201"
     transform="matrix(4.1666667,0,0,4.1666667,-1.14e-5,-7.2e-6)" /><line
     fill="none"
     stroke="#29abe2"
     stroke-miterlimit="10"
     stroke-dasharray="26.5425"
     x1="365.64166"
     y1="1583.5834"
     x2="1254.9834"
     y2="1583.5834"
     id="line201"
     style="stroke-width:4.16667" /><polyline
     fill="none"
     stroke="#29abe2"
     stroke-miterlimit="10"
     stroke-dasharray="6.3702"
     points="304.815,380.06      308.333,380.06 308.333,386.45    "
     id="polyline202"
     transform="matrix(4.1666667,0,0,4.1666667,-1.14e-5,-7.2e-6)" /><line
     fill="none"
     stroke="#29abe2"
     stroke-miterlimit="10"
     stroke-dasharray="26.5425"
     x1="1284.7208"
     y1="1638.2167"
     x2="1284.7208"
     y2="1680.2041"
     id="line202"
     style="stroke-width:4.16667" /><rect
     x="1570.225"
     y="1576.3876"
     fill="#e6e6e6"
     width="1008.9417"
     height="129.99583"
     id="rect204"
     style="stroke-width:4.16667" /><polyline
     fill="none"
     stroke="#29abe2"
     stroke-miterlimit="10"
     stroke-dasharray="6.3882"
     points="55.494,357.354      55.494,360.003 55,360.003    "
     id="polyline204"
     transform="matrix(4.1666667,0,0,4.1666667,-1.14e-5,-7.2e-6)" /><line
     fill="none"
     stroke="#29abe2"
     stroke-miterlimit="10"
     stroke-dasharray="26.6175"
     x1="224.92917"
     y1="1500.0125"
     x2="100.00832"
     y2="1500.0125"
     id="line204"
     style="stroke-width:4.16667" /><polyline
     fill="none"
     stroke="#29abe2"
     stroke-miterlimit="10"
     stroke-dasharray="6.3882"
     points="23.494,360.003 23,360.003      23,357.354    "
     id="polyline205"
     transform="matrix(4.1666667,0,0,4.1666667,-1.14e-5,-7.2e-6)" /><line
     fill="none"
     stroke="#29abe2"
     stroke-miterlimit="10"
     stroke-dasharray="26.6175"
     x1="95.833321"
     y1="1467.2458"
     x2="95.833321"
     y2="478.38751"
     id="line205"
     style="stroke-width:4.16667" /><polyline
     fill="none"
     stroke="#29abe2"
     stroke-miterlimit="10"
     stroke-dasharray="6.3882"
     points="23,112.205 23,109.557      23.494,109.557    "
     id="polyline206"
     transform="matrix(4.1666667,0,0,4.1666667,-1.14e-5,-7.2e-6)" /><line
     fill="none"
     stroke="#29abe2"
     stroke-miterlimit="10"
     stroke-dasharray="26.6175"
     x1="102.12916"
     y1="456.48749"
     x2="227.04999"
     y2="456.48749"
     id="line206"
     style="stroke-width:4.16667" /><polyline
     fill="none"
     stroke="#29abe2"
     stroke-miterlimit="10"
     stroke-dasharray="6.3882"
     points="55,109.557 55.494,109.557      55.494,112.205    "
     id="polyline207"
     transform="matrix(4.1666667,0,0,4.1666667,-1.14e-5,-7.2e-6)" /><line
     fill="none"
     stroke="#29abe2"
     stroke-miterlimit="10"
     stroke-dasharray="26.6175"
     x1="231.22499"
     y1="489.25833"
     x2="231.22499"
     y2="1478.1084"
     id="line207"
     style="stroke-width:4.16667" /><path
     fill="none"
     stroke="#29abe2"
     stroke-miterlimit="10"
     stroke-dasharray="23.155"
     d="M 1287.3917,510.37916"
     id="path209"
     style="stroke-width:4.16667" /><path
     fill="none"
     stroke="#29abe2"
     stroke-miterlimit="10"
     stroke-dasharray="23.155"
     d="M 1287.3917,1438.6917"
     id="path210"
     style="stroke-width:4.16667" /><path
     fill="none"
     stroke="#29abe2"
     stroke-miterlimit="10"
     stroke-dasharray="23.155"
     d="M 1584.3,489.82083"
     id="path211"
     style="stroke-width:4.16667" /><path
     fill="none"
     stroke="#29abe2"
     stroke-miterlimit="10"
     stroke-dasharray="23.155"
     d="M 1301.6292,489.82083"
     id="path212"
     style="stroke-width:4.16667" /><path
     fill="none"
     stroke="#29abe2"
     stroke-miterlimit="10"
     stroke-dasharray="23.155"
     d="M 1593.75,1448.8917"
     id="path213"
     style="stroke-width:4.16667" /><path
     fill="none"
     stroke="#29abe2"
     stroke-miterlimit="10"
     stroke-dasharray="23.155"
     d="M 1593.75,520.58333"
     id="path214"
     style="stroke-width:4.16667" /><polyline
     fill="none"
     stroke="#29abe2"
     stroke-miterlimit="10"
     stroke-dasharray="6.3882"
     points="361.022,357.021      361.022,359.667 360.56,359.667    "
     id="polyline216"
     transform="matrix(4.1666667,0,0,4.1666667,-1.14e-5,-7.2e-6)" /><line
     fill="none"
     stroke="#29abe2"
     stroke-miterlimit="10"
     stroke-dasharray="26.6175"
     x1="1498.3583"
     y1="1498.6124"
     x2="1381.225"
     y2="1498.6124"
     id="line216"
     style="stroke-width:4.16667" /><polyline
     fill="none"
     stroke="#29abe2"
     stroke-miterlimit="10"
     stroke-dasharray="6.3882"
     points="331.017,359.667      330.554,359.667 330.554,357.021    "
     id="polyline217"
     transform="matrix(4.1666667,0,0,4.1666667,-1.14e-5,-7.2e-6)" /><line
     fill="none"
     stroke="#29abe2"
     stroke-miterlimit="10"
     stroke-dasharray="26.6175"
     x1="1377.3082"
     y1="1465.8667"
     x2="1377.3082"
     y2="477.625"
     id="line217"
     style="stroke-width:4.16667" /><polyline
     fill="none"
     stroke="#29abe2"
     stroke-miterlimit="10"
     stroke-dasharray="6.3882"
     points="330.554,112.024      330.554,109.378 331.017,109.378    "
     id="polyline218"
     transform="matrix(4.1666667,0,0,4.1666667,-1.14e-5,-7.2e-6)" /><line
     fill="none"
     stroke="#29abe2"
     stroke-miterlimit="10"
     stroke-dasharray="26.6175"
     x1="1383.2084"
     y1="455.74167"
     x2="1500.3458"
     y2="455.74167"
     id="line218"
     style="stroke-width:4.16667" /><polyline
     fill="none"
     stroke="#29abe2"
     stroke-miterlimit="10"
     stroke-dasharray="6.3882"
     points="360.56,109.378      361.022,109.378 361.022,112.024    "
     id="polyline219"
     transform="matrix(4.1666667,0,0,4.1666667,-1.14e-5,-7.2e-6)" /><line
     fill="none"
     stroke="#29abe2"
     stroke-miterlimit="10"
     stroke-dasharray="26.6175"
     x1="1504.2583"
     y1="488.49167"
     x2="1504.2583"
     y2="1476.7208"
     id="line219"
     style="stroke-width:4.16667" /></svg>
