<?xml version="1.0" encoding="UTF-8" standalone="no"?>
<svg
     viewBox="0 0 3450 3450"
     width="3450"
     height="3450"
     version="1.1"
     id="svg200"
     sodipodi:docname="SquareHookBox48Inside.svg"
     inkscape:version="1.4 (e7c3feb1, 2024-10-09)"
     xmlns:inkscape="http://www.inkscape.org/namespaces/inkscape"
     xmlns:sodipodi="http://sodipodi.sourceforge.net/DTD/sodipodi-0.dtd"
     xmlns="http://www.w3.org/2000/svg"
     xmlns:svg="http://www.w3.org/2000/svg">
    <defs
         id="defs200">
        <defs
             id="defs1">
            <style
                 id="style1">.cls-1,.cls-2,.cls-3,.cls-4,.cls-5,.cls-6,.cls-7,.cls-8,.cls-9,.cls-10,.cls-11,.cls-12,.cls-13,.cls-14,.cls-15,.cls-16,.cls-17,.cls-18,.cls-19,.cls-20,.cls-21,.cls-22,.cls-23,.cls-24,.cls-25,.cls-26,.cls-27,.cls-28,.cls-29,.cls-30,.cls-31,.cls-32,.cls-33,.cls-34,.cls-35,.cls-36,.cls-37,.cls-38,.cls-39,.cls-40,.cls-41,.cls-42{fill:none;}.cls-2{stroke:#0baa4b;}.cls-2,.cls-3,.cls-4,.cls-5,.cls-6,.cls-7,.cls-8,.cls-9,.cls-10,.cls-11,.cls-12,.cls-13,.cls-14,.cls-15,.cls-17,.cls-18,.cls-19,.cls-21,.cls-22,.cls-23,.cls-24,.cls-25,.cls-26,.cls-27,.cls-28,.cls-29,.cls-30,.cls-31,.cls-32,.cls-33,.cls-34,.cls-35,.cls-36,.cls-37,.cls-38,.cls-39,.cls-40,.cls-41{stroke-miterlimit:10;}.cls-43,.cls-44,.cls-45,.cls-46{fill-rule:evenodd;}.cls-43,.cls-47{fill:#fff;}.cls-48,.cls-49,.cls-50,.cls-51{font-family:Arial-Black, 'Arial Black';font-weight:800;}.cls-48,.cls-50,.cls-51,.cls-52{fill:#231f20;}.cls-3{stroke-dasharray:4.92 4.92;}.cls-3,.cls-4,.cls-5,.cls-6,.cls-7,.cls-8,.cls-9,.cls-10,.cls-11,.cls-12,.cls-13,.cls-14,.cls-15,.cls-17,.cls-18,.cls-19,.cls-21,.cls-22,.cls-23,.cls-24,.cls-25,.cls-26,.cls-28,.cls-29,.cls-30,.cls-31,.cls-33,.cls-34,.cls-35,.cls-36,.cls-37,.cls-38,.cls-39,.cls-40{stroke:#26aae1;}.cls-4{stroke-dasharray:4.92 4.92;}.cls-5{stroke-dasharray:4.92 4.92;}.cls-6{stroke-dasharray:4.99 4.99;}.cls-7{stroke-dasharray:4.99 4.99;}.cls-8{stroke-dasharray:4.99 4.99;}.cls-9{stroke-dasharray:4.99 4.99;}.cls-10{stroke-dasharray:5.01 5.01;}.cls-11{stroke-dasharray:5 5;}.cls-12{stroke-dasharray:4.91 4.91;}.cls-13{stroke-dasharray:4.99 4.99;}.cls-14{stroke-dasharray:4.99 4.99;}.cls-15{stroke-dasharray:4.99 4.99;}.cls-16,.cls-20,.cls-32,.cls-41,.cls-42{stroke-width:2px;}.cls-16,.cls-42{stroke:#2ba4dd;}.cls-18{stroke-dasharray:5.77 5.77;}.cls-19{stroke-dasharray:5.77 5.77;}.cls-20{stroke:#ec2224;}.cls-49{fill:#020202;}.cls-49,.cls-50{font-size:12.75px;}.cls-21{stroke-dasharray:4.92 4.92;}.cls-22{stroke-dasharray:4.92 4.92;}.cls-23{stroke-dasharray:4.92 4.92;}.cls-24{stroke-dasharray:4.91 4.91;}.cls-25{stroke-dasharray:4.91 4.91;}.cls-26{stroke-dasharray:4.91 4.91;}.cls-44{fill:#b7d333;}.cls-27{stroke:red;}.cls-27,.cls-53{opacity:.5;}.cls-28{stroke-dasharray:5.36 5.36;}.cls-29{stroke-dasharray:5.36 5.36;}.cls-30{stroke-dasharray:5.65 5.65;}.cls-54{fill:#919396;}.cls-54,.cls-55,.cls-56,.cls-52,.cls-57{font-family:Arial-BoldMT, Arial;font-weight:700;}.cls-54,.cls-55,.cls-56,.cls-57{font-size:9px;}.cls-58{fill:#d0d1d2;}.cls-31{stroke-dasharray:6.01 6.01;}.cls-32{stroke:#0ea94b;}.cls-59{letter-spacing:0em;}.cls-60{font-size:12.36px;}.cls-61{font-size:14.83px;}.cls-33{stroke-dasharray:5.16 5.16;}.cls-34{stroke-dasharray:5.18 5.18;}.cls-51{font-size:30px;}.cls-62{letter-spacing:0em;}.cls-35{stroke-dasharray:5.63 5.63;}.cls-63{letter-spacing:0em;}.cls-36{stroke-dasharray:5.11 5.11;}.cls-55{fill:#2ba4dd;}.cls-37{stroke-dasharray:5.1 5.1;}.cls-38{stroke-dasharray:5.12 5.12;}.cls-39{stroke-dasharray:5.09 5.09;}.cls-40{stroke-dasharray:5.03 5.03;}.cls-41{stroke:#929395;}.cls-56{fill:#0baa4b;}.cls-42{stroke-dasharray:4.99 4.99;}.cls-64{letter-spacing:-.02em;}.cls-65{letter-spacing:-.02em;}.cls-66{letter-spacing:-.02em;}.cls-67{letter-spacing:-.02em;}.cls-68{letter-spacing:-.02em;}.cls-69{letter-spacing:-.02em;}.cls-70{letter-spacing:-.06em;}.cls-71{letter-spacing:-.06em;}.cls-72{letter-spacing:-.04em;}.cls-73{letter-spacing:-.04em;}.cls-74{letter-spacing:-.03em;}.cls-75{letter-spacing:-.03em;}.cls-76{letter-spacing:-.03em;}.cls-77{letter-spacing:-.03em;}.cls-78{letter-spacing:0em;}.cls-79,.cls-46{fill:#4e494b;}.cls-52{font-size:10px;}.cls-80{letter-spacing:.03em;}.cls-81{letter-spacing:.02em;}.cls-82{letter-spacing:.05em;}.cls-57{fill:#eb222a;}.cls-83{letter-spacing:.01em;}</style>
        </defs>
    </defs>
    <sodipodi:namedview
         id="namedview200"
         pagecolor="#505050"
         bordercolor="#eeeeee"
         borderopacity="1"
         inkscape:showpageshadow="0"
         inkscape:pageopacity="0"
         inkscape:pagecheckerboard="0"
         inkscape:deskcolor="#d1d1d1"
         inkscape:zoom="0.13043478"
         inkscape:cx="1176.8333"
         inkscape:cy="1863"
         inkscape:window-width="1872"
         inkscape:window-height="1027"
         inkscape:window-x="62"
         inkscape:window-y="25"
         inkscape:window-maximized="1"
         inkscape:current-layer="svg200" />
    <path
         class="cls-53"
         d="M -1.38e-5,-1.38e-5 V 3450 H 3450 V -1.38e-5 Z"
         id="path1"
         style="stroke-width:4.16667;fill:#000000;fill-opacity:1"
         sodipodi:nodetypes="ccccc" />
    <polyline
         class="cls-17"
         points="532.92 230.23 535.42 230.23 535.42 232.73"
         id="polyline157"
         transform="matrix(4.1666667,0,0,4.1666667,-1.38e-5,-1.38e-5)" />
    <line
         class="cls-22"
         x1="2230.9165"
         y1="990.20831"
         x2="2230.9165"
         y2="2005.5"
         id="line157"
         style="stroke-width:4.16667" />
    <polyline
         class="cls-17"
         points="535.42 483.78 535.42 486.28 532.92 486.28"
         id="polyline158"
         transform="matrix(4.1666667,0,0,4.1666667,-1.38e-5,-1.38e-5)" />
    <line
         class="cls-7"
         x1="2199.7083"
         y1="2026.1666"
         x2="1253.125"
         y2="2026.1666"
         id="line158"
         style="stroke-width:4.16667" />
    <polyline
         class="cls-17"
         points="298.25 486.28 295.75 486.28 295.75 483.78"
         id="polyline159"
         transform="matrix(4.1666667,0,0,4.1666667,-1.38e-5,-1.38e-5)" />
    <line
         class="cls-23"
         x1="1232.2916"
         y1="1995.25"
         x2="1232.2916"
         y2="979.95831"
         id="line159"
         style="stroke-width:4.16667" />
    <polyline
         class="cls-17"
         points="295.75 232.73 295.75 230.23 298.25 230.23"
         id="polyline160"
         transform="matrix(4.1666667,0,0,4.1666667,-1.38e-5,-1.38e-5)" />
    <line
         class="cls-7"
         x1="1263.5"
         y1="959.29163"
         x2="2210.125"
         y2="959.29163"
         id="line160"
         style="stroke-width:4.16667" />
    <polyline
         class="cls-17"
         points="247.98 230.66 245.48 230.69 245.48 233.19"
         id="polyline161"
         transform="matrix(4.1666667,0,0,4.1666667,-1.38e-5,-1.38e-5)" />
    <line
         class="cls-25"
         x1="1022.8333"
         y1="992.08337"
         x2="1022.375"
         y2="2004.5"
         id="line161"
         style="stroke-width:4.16667" />
    <polyline
         class="cls-17"
         points="245.36 483.53 245.36 486.03 247.86 486.05"
         id="polyline162"
         transform="matrix(4.1666667,0,0,4.1666667,-1.38e-5,-1.38e-5)" />
    <line
         class="cls-34"
         x1="1054.375"
         y1="2025.375"
         x2="1129.9584"
         y2="2025.9584"
         id="line162"
         style="stroke-width:4.16667" />
    <polyline
         class="cls-17"
         points="273.79 486.25 276.29 486.27 276.29 483.77"
         id="polyline163"
         transform="matrix(4.1666667,0,0,4.1666667,-1.38e-5,-1.38e-5)" />
    <line
         class="cls-5"
         x1="1151.2084"
         y1="1995.1666"
         x2="1151.2084"
         y2="979.95831"
         id="line163"
         style="stroke-width:4.16667" />
    <polyline
         class="cls-17"
         points="276.29 232.73 276.29 230.23 273.79 230.27"
         id="polyline164"
         transform="matrix(4.1666667,0,0,4.1666667,-1.38e-5,-1.38e-5)" />
    <line
         class="cls-33"
         x1="1119.2916"
         y1="959.75"
         x2="1044"
         y2="960.91663"
         id="line164"
         style="stroke-width:4.16667" />
    <polyline
         class="cls-17"
         points="225.06 230.81 227.56 230.69 227.55 233.19"
         id="polyline165"
         transform="matrix(4.1666667,0,0,4.1666667,-1.38e-5,-1.38e-5)" />
    <line
         class="cls-24"
         x1="948.125"
         y1="992.08337"
         x2="947.41669"
         y2="2004.5"
         id="line165"
         style="stroke-width:4.16667" />
    <polyline
         class="cls-17"
         points="227.38 483.53 227.38 486.03 224.88 485.91"
         id="polyline166"
         transform="matrix(4.1666667,0,0,4.1666667,-1.38e-5,-1.38e-5)" />
    <line
         class="cls-21"
         x1="916.54169"
         y1="2023.5834"
         x2="107.74999"
         y2="1982.8751"
         id="line166"
         style="stroke-width:4.16667" />
    <polyline
         class="cls-17"
         points="23.4 475.76 20.9 475.64 20.9 473.14"
         id="polyline167"
         transform="matrix(4.1666667,0,0,4.1666667,-1.38e-5,-1.38e-5)" />
    <line
         class="cls-36"
         x1="87.083321"
         y1="1950.125"
         x2="87.083321"
         y2="1024.1666"
         id="line167"
         style="stroke-width:4.16667" />
    <polyline
         class="cls-17"
         points="20.9 243.25 20.9 240.75 23.4 240.63"
         id="polyline168"
         transform="matrix(4.1666667,0,0,4.1666667,-1.38e-5,-1.38e-5)" />
    <line
         class="cls-3"
         x1="117.99998"
         y1="1001.625"
         x2="927.5"
         y2="962.20831"
         id="line168"
         style="stroke-width:4.16667" />
    <polyline
         class="cls-17"
         points="582.41 230.66 584.91 230.69 584.91 233.19"
         id="polyline169"
         transform="matrix(4.1666667,0,0,4.1666667,-1.38e-5,-1.38e-5)" />
    <line
         class="cls-26"
         x1="2437.125"
         y1="992.08337"
         x2="2437.6665"
         y2="2004.5"
         id="line169"
         style="stroke-width:4.16667" />
    <polyline
         class="cls-17"
         points="585.04 483.53 585.04 486.03 582.54 486.05"
         id="polyline170"
         transform="matrix(4.1666667,0,0,4.1666667,-1.38e-5,-1.38e-5)" />
    <line
         class="cls-30"
         x1="2403.7085"
         y1="2025.375"
         x2="2321.25"
         y2="2025.9584"
         id="line170"
         style="stroke-width:4.16667" />
    <polyline
         class="cls-17"
         points="554.28 486.25 551.78 486.27 551.78 483.77"
         id="polyline171"
         transform="matrix(4.1666667,0,0,4.1666667,-1.38e-5,-1.38e-5)" />
    <line
         class="cls-4"
         x1="2299.0835"
         y1="1995.1666"
         x2="2299.0835"
         y2="979.95831"
         id="line171"
         style="stroke-width:4.16667" />
    <polyline
         class="cls-17"
         points="551.78 232.73 551.78 230.23 554.28 230.26"
         id="polyline172"
         transform="matrix(4.1666667,0,0,4.1666667,-1.38e-5,-1.38e-5)" />
    <line
         class="cls-35"
         x1="2332.9167"
         y1="959.75"
         x2="2415"
         y2="960.91663"
         id="line172"
         style="stroke-width:4.16667" />
    <polyline
         class="cls-17"
         points="605.34 230.79 602.84 230.66 602.85 233.16"
         id="polyline173"
         transform="matrix(4.1666667,0,0,4.1666667,-1.38e-5,-1.38e-5)" />
    <line
         class="cls-12"
         x1="2511.9583"
         y1="992"
         x2="2515.9585"
         y2="2005.4584"
         id="line173"
         style="stroke-width:4.16667" />
    <polyline
         class="cls-17"
         points="603.84 483.77 603.85 486.27 606.35 486.13"
         id="polyline174"
         transform="matrix(4.1666667,0,0,4.1666667,-1.38e-5,-1.38e-5)" />
    <line
         class="cls-37"
         x1="2547.6667"
         y1="2024.4166"
         x2="3342.8335"
         y2="1982.0834"
         id="line174"
         style="stroke-width:4.16667" />
    <polyline
         class="cls-17"
         points="804.83 475.57 807.32 475.44 807.32 472.94"
         id="polyline175"
         transform="matrix(4.1666667,0,0,4.1666667,-1.38e-5,-1.38e-5)" />
    <line
         class="cls-39"
         x1="3363.8335"
         y1="1949.3334"
         x2="3363.8335"
         y2="1026.625"
         id="line175"
         style="stroke-width:4.16667" />
    <polyline
         class="cls-17"
         points="807.32 243.84 807.32 241.34 804.83 241.21"
         id="polyline176"
         transform="matrix(4.1666667,0,0,4.1666667,-1.38e-5,-1.38e-5)" />
    <line
         class="cls-38"
         x1="3332.125"
         y1="1003.9167"
         x2="2532.9167"
         y2="962.20831"
         id="line176"
         style="stroke-width:4.16667" />
    <polyline
         class="cls-17"
         points="295.75 209.73 295.75 212.23 298.25 212.23"
         id="polyline177"
         transform="matrix(4.1666667,0,0,4.1666667,-1.38e-5,-1.38e-5)" />
    <line
         class="cls-14"
         x1="1263.5"
         y1="884.29163"
         x2="2209.4167"
         y2="884.29163"
         id="line177"
         style="stroke-width:4.16667" />
    <polyline
         class="cls-17"
         points="532.75 212.23 535.25 212.23 535.25 209.73"
         id="polyline178"
         transform="matrix(4.1666667,0,0,4.1666667,-1.38e-5,-1.38e-5)" />
    <line
         class="cls-28"
         x1="2230.2083"
         y1="851.54163"
         x2="2230.2083"
         y2="773.41663"
         id="line178"
         style="stroke-width:4.16667" />
    <polyline
         class="cls-17"
         points="535.25 182.94 535.25 180.44 532.75 180.44"
         id="polyline179"
         transform="matrix(4.1666667,0,0,4.1666667,-1.38e-5,-1.38e-5)" />
    <line
         class="cls-15"
         x1="2199"
         y1="751.83331"
         x2="1253.0833"
         y2="751.83331"
         id="line179"
         style="stroke-width:4.16667" />
    <polyline
         class="cls-17"
         points="298.25 180.44 295.75 180.44 295.75 182.94"
         id="polyline180"
         transform="matrix(4.1666667,0,0,4.1666667,-1.38e-5,-1.38e-5)" />
    <line
         class="cls-29"
         x1="1232.2916"
         y1="784.58331"
         x2="1232.2916"
         y2="862.70831"
         id="line180"
         style="stroke-width:4.16667" />
    <polyline
         class="cls-17"
         points="295.92 159.94 295.93 162.44 298.43 162.44"
         id="polyline181"
         transform="matrix(4.1666667,0,0,4.1666667,-1.38e-5,-1.38e-5)" />
    <line
         class="cls-13"
         x1="1264.2084"
         y1="676.83331"
         x2="2209.375"
         y2="676.83331"
         id="line181"
         style="stroke-width:4.16667" />
    <polyline
         class="cls-17"
         points="532.75 162.44 535.25 162.44 535.25 159.94"
         id="polyline182"
         transform="matrix(4.1666667,0,0,4.1666667,-1.38e-5,-1.38e-5)" />
    <path
         class="cls-10"
         d="M 2230.2083,645.58332 V 293.91666 c -12.875,-46.95834 -11.8333,-103.70834 -165.875,-102.20834 h -660.875 c -135.1666,-12.375 -182.6666,55 -171.25,103.83334 l 0.7917,360.5"
         id="path182"
         style="stroke-width:4.16667"
         sodipodi:nodetypes="cccccc" />
    <path
         class="cls-11"
         d="m 1567.1667,2865.2083 c 19.25,23.5417 68.2083,-5.9583 167.4583,-5.9583 112.0417,0 169.1667,33.4583 191.5,4.9583 23.7083,-30.2916 -10.9583,-84.5 -181.7083,-84.5 -170.75,0 -205.75,50.625 -177.25,85.4584 z"
         id="path183"
         style="stroke-width:4.16667"
         sodipodi:nodetypes="cscscc" />
    <polyline
         class="cls-17"
         points="535.37 560.95 535.37 558.45 532.87 558.45"
         id="polyline183"
         transform="matrix(4.1666667,0,0,4.1666667,-1.38e-5,-1.38e-5)" />
    <polyline
         class="cls-9"
         points="527.87 558.45 524.45 558.45 306.75 558.45 300.75 558.45"
         id="polyline184"
         transform="matrix(4.1666667,0,0,4.1666667,-1.38e-5,-1.38e-5)" />
    <polyline
         class="cls-17"
         points="298.26 558.45 295.76 558.45 295.76 560.95"
         id="polyline185"
         transform="matrix(4.1666667,0,0,4.1666667,-1.38e-5,-1.38e-5)" />
    <line
         class="cls-31"
         x1="1232.3334"
         y1="2362.3335"
         x2="1232.3334"
         y2="2399.875"
         id="line185"
         style="stroke-width:4.16667" />
    <polyline
         class="cls-17"
         points="295.76 578.97 295.76 581.47 295.78 581.47 295.78 583.97"
         id="polyline186"
         transform="matrix(4.1666667,0,0,4.1666667,-1.38e-5,-1.38e-5)" />
    <path
         class="cls-40"
         d="m 1232.4167,2454.2083 v 895.9167 c 0,16.7083 20.4583,30.2917 45.7083,30.2917 h 907.0833 c 25.25,0 45.7084,-13.5417 45.7084,-30.2917 v -992.9583 c 0,-1.0417 -0.083,-2.125 -0.25,-3.125 v -6.25"
         id="path186"
         style="stroke-width:4.16667"
         sodipodi:nodetypes="cssssscc" />
    <polyline
         class="cls-17"
         points="295.75 535.62 295.75 538.12 298.25 538.12"
         id="polyline187"
         transform="matrix(4.1666667,0,0,4.1666667,-1.38e-5,-1.38e-5)" />
    <line
         class="cls-6"
         x1="1263.5"
         y1="2242.1667"
         x2="2210.125"
         y2="2242.1667"
         id="line187"
         style="stroke-width:4.16667" />
    <polyline
         class="cls-17"
         points="532.93 538.12 535.43 538.12 535.43 535.62"
         id="polyline188"
         transform="matrix(4.1666667,0,0,4.1666667,-1.38e-5,-1.38e-5)" />
    <line
         class="cls-18"
         x1="2230.9583"
         y1="2207.7083"
         x2="2230.9583"
         y2="2123.5417"
         id="line188"
         style="stroke-width:4.16667" />
    <polyline
         class="cls-17"
         points="535.43 506.76 535.43 504.26 532.93 504.26"
         id="polyline189"
         transform="matrix(4.1666667,0,0,4.1666667,-1.38e-5,-1.38e-5)" />
    <line
         class="cls-8"
         x1="2199.7083"
         y1="2101.0835"
         x2="1253.125"
         y2="2101.0835"
         id="line189"
         style="stroke-width:4.16667" />
    <polyline
         class="cls-17"
         points="298.25 504.26 295.75 504.26 295.75 506.76"
         id="polyline190"
         transform="matrix(4.1666667,0,0,4.1666667,-1.38e-5,-1.38e-5)" />
    <line
         class="cls-19"
         x1="1232.2916"
         y1="2135.5417"
         x2="1232.2916"
         y2="2219.75"
         id="line190"
         style="stroke-width:4.16667" />
    <rect
         class="cls-2"
         x="1188.7084"
         y="921.79163"
         width="1073.6251"
         height="1141.7916"
         id="rect190"
         style="opacity:0.5;stroke-width:4.16667" />
    <line
         class="cls-2"
         x1="1188.7084"
         y1="714.33331"
         x2="2262.3335"
         y2="714.33331"
         id="line191"
         style="opacity:0.5;stroke-width:4.16667" />
    <line
         class="cls-2"
         x1="1188.7084"
         y1="2279.6667"
         x2="2262.3335"
         y2="2279.6667"
         id="line192"
         style="opacity:0.5;stroke-width:4.16667" />
    <line
         class="cls-2"
         x1="984.83331"
         y1="921.79163"
         x2="984.83331"
         y2="2063.5835"
         id="line193"
         style="opacity:0.5;stroke-width:4.16667" />
    <line
         class="cls-2"
         x1="2475.1665"
         y1="921.79163"
         x2="2475.1665"
         y2="2063.5835"
         id="line194"
         style="opacity:0.5;stroke-width:4.16667" />
    <path
         id="Curved_slice"
         class="cls-27"
         d="m 1594.5833,2839.4583 c 0,0 27.25,-22.4583 150,-22.4583 122.75,0 150,22.4583 150,22.4583"
         style="stroke-width:4.16667"
         sodipodi:nodetypes="csc" />
    <path
         class="cls-27"
         d="m 1577.4167,154.33332 v 0 c 32.75,1.04167 8.9166,-116.958334 173.0416,-116.833333 172.375,0.125 138.2084,104.958333 113.25,92.708333 -20.125,-9.91667 -34.2083,23.70833 -5.7083,23.70833 v 0 c 23.8333,0 258.2917,-1.41666 287.9167,0.58334 47.8333,3.20833 114.5,34 115.375,123.625 v 436.20834 207.45833 h 203.8333 l 935.2917,47.875 0.9166,1046.50004 -936.2083,47.4583 h -203.8333 v 216.0833 l -0.75,1086.0834 v -1.5 c 0,26.625 -21.5834,48.25 -48.25,48.25 h -974.875 c -26.6667,0 -48.25,-21.625 -48.25,-48.25 l -0.75,1.5 -0.75,-1086.0834 V 2063.625 H 974.79166 L 48.624987,2017.7083 V 970.79166 l 926.166673,-49 h 212.87504 0.4583 V 714.33333 h -0.4583 V 274.37499 c 0,-66.29167 53.7083,-120 120,-120 h 268 l 1.75,-0.0417 z"
         id="clipping"
         style="stroke-width:4.16667;fill:#686868;fill-opacity:1;stroke:none"
         sodipodi:nodetypes="csccssccccccccccccssccccccccccccssccc" />
</svg>
