<?xml version="1.0" encoding="UTF-8" standalone="no"?>
<svg
   viewBox="0 0 3525 3900"
   width="3525"
   height="3900"
   version="1.1"
   id="svg199"
   sodipodi:docname="SquareHookBox96Front.svg"
   inkscape:version="1.3.2 (091e20e, 2023-11-25, custom)"
   xmlns:inkscape="http://www.inkscape.org/namespaces/inkscape"
   xmlns:sodipodi="http://sodipodi.sourceforge.net/DTD/sodipodi-0.dtd"
   xmlns="http://www.w3.org/2000/svg"
   xmlns:svg="http://www.w3.org/2000/svg">
  <defs
     id="defs199">
    <defs
       id="defs1">
      <style
         id="style1">.cls-1,.cls-2,.cls-3,.cls-4,.cls-5,.cls-6,.cls-7,.cls-8,.cls-9,.cls-10,.cls-11,.cls-12,.cls-13,.cls-14,.cls-15,.cls-16,.cls-17,.cls-18,.cls-19,.cls-20,.cls-21,.cls-22,.cls-23,.cls-24,.cls-25,.cls-26,.cls-27,.cls-28,.cls-29,.cls-30,.cls-31,.cls-32,.cls-33,.cls-34,.cls-35,.cls-36,.cls-37,.cls-38,.cls-39,.cls-40,.cls-41,.cls-42{fill:none;}.cls-2{stroke:#0baa4b;}.cls-2,.cls-3,.cls-4,.cls-5,.cls-6,.cls-7,.cls-8,.cls-9,.cls-10,.cls-11,.cls-12,.cls-13,.cls-14,.cls-15,.cls-16,.cls-17,.cls-18,.cls-19,.cls-20,.cls-21,.cls-22,.cls-23,.cls-25,.cls-27,.cls-28,.cls-29,.cls-30,.cls-31,.cls-32,.cls-33,.cls-34,.cls-35,.cls-36,.cls-37,.cls-38,.cls-39,.cls-40,.cls-41{stroke-miterlimit:10;}.cls-43,.cls-44,.cls-45,.cls-46{fill-rule:evenodd;}.cls-43,.cls-47{fill:#fff;}.cls-48,.cls-49,.cls-50,.cls-51{font-family:Arial-Black, 'Arial Black';font-weight:800;}.cls-48,.cls-50,.cls-51,.cls-52{fill:#231f20;}.cls-3{stroke-dasharray:4.97 4.97;}.cls-3,.cls-4,.cls-5,.cls-6,.cls-7,.cls-8,.cls-9,.cls-10,.cls-11,.cls-12,.cls-13,.cls-14,.cls-15,.cls-16,.cls-17,.cls-18,.cls-19,.cls-20,.cls-21,.cls-22,.cls-23,.cls-25,.cls-27,.cls-28,.cls-29,.cls-30,.cls-31,.cls-34,.cls-35,.cls-36,.cls-37,.cls-38,.cls-39,.cls-40{stroke:#26aae1;}.cls-4{stroke-dasharray:4.92 4.92;}.cls-5{stroke-dasharray:4.92 4.92;}.cls-6{stroke-dasharray:4.92 4.92;}.cls-7{stroke-dasharray:4.92 4.92;}.cls-8{stroke-dasharray:4.92 4.92;}.cls-9{stroke-dasharray:4.99 4.99;}.cls-10{stroke-dasharray:4.99 4.99;}.cls-11{stroke-dasharray:4.99 4.99;}.cls-12{stroke-dasharray:4.99 4.99;}.cls-13{stroke-dasharray:4.99 4.99;}.cls-14{stroke-dasharray:4.99 4.99;}.cls-15{stroke-dasharray:4.99 4.99;}.cls-16{stroke-dasharray:4.99 4.99;}.cls-17{stroke-dasharray:5.01 5.01;}.cls-18{stroke-dasharray:5 5;}.cls-19{stroke-dasharray:4.92 4.92;}.cls-20{stroke-dasharray:4.99 4.99;}.cls-21{stroke-dasharray:4.99 4.99;}.cls-22{stroke-dasharray:4.99 4.99;}.cls-23{stroke-dasharray:4.98 4.98;}.cls-24,.cls-26,.cls-32,.cls-41,.cls-42{stroke-width:2px;}.cls-24,.cls-42{stroke:#2ba4dd;}.cls-26{stroke:#ec2224;}.cls-27{stroke-dasharray:4.98 4.98;}.cls-49{fill:#020202;}.cls-49,.cls-50{font-size:12.75px;}.cls-28{stroke-dasharray:5 5;}.cls-29{stroke-dasharray:4.91 4.91;}.cls-30{stroke-dasharray:4.91 4.91;}.cls-44{fill:#b7d333;}.cls-53{fill:#919396;}.cls-53,.cls-54,.cls-55,.cls-52,.cls-56{font-family:Arial-BoldMT, Arial;font-weight:700;}.cls-53,.cls-54,.cls-55,.cls-56{font-size:9px;}.cls-57{fill:#d0d1d2;}.cls-31{stroke-dasharray:6.01 6.01;}.cls-32{stroke:#0ea94b;}.cls-58{letter-spacing:0em;}.cls-33{stroke:red;}.cls-59{font-size:12.36px;}.cls-60{font-size:14.83px;}.cls-34{stroke-dasharray:5.06 5.06;}.cls-35{stroke-dasharray:5.06 5.06;}.cls-36{stroke-dasharray:5.08 5.08;}.cls-37{stroke-dasharray:5.07 5.07;}.cls-51{font-size:30px;}.cls-61{letter-spacing:0em;}.cls-38{stroke-dasharray:5.06 5.06;}.cls-62{opacity:.5;}.cls-54{fill:#2ba4dd;}.cls-39{stroke-dasharray:5.05 5.05;}.cls-40{stroke-dasharray:5.03 5.03;}.cls-41{stroke:#929395;}.cls-55{fill:#0baa4b;}.cls-42{stroke-dasharray:4.99 4.99;}.cls-63{letter-spacing:-.02em;}.cls-64{letter-spacing:-.02em;}.cls-65{letter-spacing:-.02em;}.cls-66{letter-spacing:-.02em;}.cls-67{letter-spacing:-.02em;}.cls-68{letter-spacing:-.02em;}.cls-69{letter-spacing:-.06em;}.cls-70{letter-spacing:-.04em;}.cls-71{letter-spacing:-.04em;}.cls-72{letter-spacing:-.03em;}.cls-73{letter-spacing:-.03em;}.cls-74{letter-spacing:-.03em;}.cls-75{letter-spacing:-.03em;}.cls-76{letter-spacing:0em;}.cls-77,.cls-46{fill:#4e494b;}.cls-52{font-size:10px;}.cls-78{letter-spacing:.03em;}.cls-79{letter-spacing:.02em;}.cls-80{letter-spacing:.05em;}.cls-56{fill:#eb222a;}.cls-81{letter-spacing:.01em;}</style>
    </defs>
  </defs>
  <sodipodi:namedview
     id="namedview199"
     pagecolor="#505050"
     bordercolor="#eeeeee"
     borderopacity="1"
     inkscape:showpageshadow="0"
     inkscape:pageopacity="0"
     inkscape:pagecheckerboard="0"
     inkscape:deskcolor="#d1d1d1"
     inkscape:zoom="0.46153848"
     inkscape:cx="2209.9999"
     inkscape:cy="2432.0832"
     inkscape:window-width="2560"
     inkscape:window-height="1351"
     inkscape:window-x="-9"
     inkscape:window-y="-9"
     inkscape:window-maximized="1"
     inkscape:current-layer="svg199" />
  <path
     class="cls-62"
     d="M 0,-7.8e-6 V 3900 H 3525 V -7.8e-6 Z"
     id="path1"
     style="stroke-width:4.16667;opacity:1"
     sodipodi:nodetypes="ccccc" />
  <path
     class="cls-33"
     d="m 1224.9583,2701 1.4584,1086 v -1.5 c 0,26.625 21.5833,48.25 48.25,48.25 h 975.625 c 26.6667,0 48.25,-21.625 48.25,-48.25 v 1.5 c 0,0 0,-1086 0,-1086 v -408.0417 c 0,0 408,0 408,0 L 3458,2256.7083 v -1066.375 c 0,0 -751.4583,-39.1666 -751.4583,-39.1666 h -408 c 0,0 0.7083,-844.20838 0.7083,-844.20838 -0.875,-89.625 -67.5416,-120.41667 -115.375,-123.625 -29.6666,-2 -264.0833,-0.58333 -287.9167,-0.58333 v 0 c -28.5,0 -14.4166,-33.625 5.7084,-23.70834 24.9583,12.29167 59.1666,-92.583332 -113.25,-92.708332 -164.125,-0.125 -140.2917,117.875002 -173.0417,116.833332 v 0 c 0,0 -270.5,0.0417 -270.5,0.0417 -66.2917,0 -120,53.70833 -120,120 v 847.95835 c 0,0 0,0 0,0 H 816.87501 c 0,0 -750.000009,37.75 -750.000009,37.75 v 1066.375 c 0,0 750.000009,37.7083 750.000009,37.7083 H 1224.875 v 408.0833"
     id="clipping"
     style="stroke-width:4.16667;fill:#767676;fill-opacity:1;stroke:none" />
  <rect
     class="cls-2"
     x="1226.4166"
     y="1151.0834"
     width="1073.6251"
     height="1141.8334"
     id="actualSize"
     style="stroke-width:4.16667;fill:#a9a9a9;fill-opacity:1;stroke:none" />
  <line
     class="cls-2"
     x1="1226.4166"
     y1="2701"
     x2="2300.0417"
     y2="2701"
     id="line157"
     style="stroke-width:4.16667" />
  <line
     class="cls-2"
     x1="818.41669"
     y1="1151.125"
     x2="818.41669"
     y2="2292.9165"
     id="line158"
     style="stroke-width:4.16667" />
  <line
     class="cls-2"
     x1="2708.0417"
     y1="1151.125"
     x2="2708.0417"
     y2="2292.9165"
     id="line159"
     style="stroke-width:4.16667" />
  <line
     class="cls-2"
     x1="1226.4166"
     y1="743.125"
     x2="2299.2917"
     y2="743.125"
     id="line160"
     style="stroke-width:4.16667" />
  <polyline
     class="cls-25"
     points="540.51 285.27 543.01 285.27 543.01 287.77"
     id="polyline160"
     transform="matrix(4.1666667,0,0,4.1666667,0,-1.56e-5)" />
  <line
     class="cls-4"
     x1="2262.5417"
     y1="1219.5416"
     x2="2262.5417"
     y2="2234.75"
     id="line161"
     style="stroke-width:4.16667" />
  <polyline
     class="cls-25"
     points="543.01 538.8 543.01 541.3 540.51 541.3"
     id="polyline161"
     transform="matrix(4.1666667,0,0,4.1666667,0,-1.56e-5)" />
  <line
     class="cls-11"
     x1="2231.2917"
     y1="2255.4165"
     x2="1284.7083"
     y2="2255.4165"
     id="line162"
     style="stroke-width:4.16667" />
  <polyline
     class="cls-25"
     points="305.84 541.3 303.34 541.3 303.34 538.8"
     id="polyline162"
     transform="matrix(4.1666667,0,0,4.1666667,0,-1.56e-5)" />
  <line
     class="cls-6"
     x1="1263.9166"
     y1="2224.5"
     x2="1263.9166"
     y2="1209.2917"
     id="line163"
     style="stroke-width:4.16667" />
  <polyline
     class="cls-25"
     points="303.34 287.77 303.34 285.27 305.84 285.27"
     id="polyline163"
     transform="matrix(4.1666667,0,0,4.1666667,0,-1.56e-5)" />
  <line
     class="cls-11"
     x1="1295.125"
     y1="1188.625"
     x2="2241.7085"
     y2="1188.625"
     id="line164"
     style="stroke-width:4.16667" />
  <polyline
     class="cls-25"
     points="208.23 285.71 205.73 285.73 205.73 288.23"
     id="polyline164"
     transform="matrix(4.1666667,0,0,4.1666667,0,-1.56e-5)" />
  <line
     class="cls-29"
     x1="857.16669"
     y1="1221.4167"
     x2="855.91669"
     y2="2233.7915"
     id="line165"
     style="stroke-width:4.16667" />
  <polyline
     class="cls-25"
     points="205.42 538.57 205.42 541.07 207.92 541.08"
     id="polyline165"
     transform="matrix(4.1666667,0,0,4.1666667,0,-1.56e-5)" />
  <line
     class="cls-16"
     x1="887.125"
     y1="2254.5417"
     x2="1168.0834"
     y2="2255.375"
     id="line166"
     style="stroke-width:4.16667" />
  <polyline
     class="cls-25"
     points="282.84 541.29 285.34 541.3 285.34 538.8"
     id="polyline166"
     transform="matrix(4.1666667,0,0,4.1666667,0,-1.56e-5)" />
  <line
     class="cls-7"
     x1="1188.9166"
     y1="2224.5"
     x2="1188.9166"
     y2="1209.25"
     id="line167"
     style="stroke-width:4.16667" />
  <polyline
     class="cls-25"
     points="285.34 287.76 285.34 285.26 282.84 285.28"
     id="polyline167"
     transform="matrix(4.1666667,0,0,4.1666667,0,-1.56e-5)" />
  <line
     class="cls-3"
     x1="1157.75"
     y1="1188.7916"
     x2="878"
     y2="1190.4167"
     id="line168"
     style="stroke-width:4.16667" />
  <polyline
     class="cls-25"
     points="184.92 285.39 187.42 285.26 187.41 287.76"
     id="polyline168"
     transform="matrix(4.1666667,0,0,4.1666667,0,-1.56e-5)" />
  <line
     class="cls-8"
     x1="780.83331"
     y1="1219.5416"
     x2="778.25"
     y2="2234.75"
     id="line169"
     style="stroke-width:4.16667" />
  <polyline
     class="cls-25"
     points="186.77 538.8 186.76 541.3 184.27 541.18"
     id="polyline169"
     transform="matrix(4.1666667,0,0,4.1666667,0,-1.56e-5)" />
  <line
     class="cls-38"
     x1="746.70837"
     y1="2253.875"
     x2="125.375"
     y2="2223.3333"
     id="line170"
     style="stroke-width:4.16667" />
  <polyline
     class="cls-25"
     points="27.57 533.48 25.07 533.35 25.07 530.85"
     id="polyline170"
     transform="matrix(4.1666667,0,0,4.1666667,0,-1.56e-5)" />
  <line
     class="cls-14"
     x1="104.45834"
     y1="2191.0833"
     x2="104.45834"
     y2="1244.6666"
     id="line171"
     style="stroke-width:4.16667" />
  <polyline
     class="cls-25"
     points="25.07 296.23 25.07 293.73 27.57 293.6"
     id="polyline171"
     transform="matrix(4.1666667,0,0,4.1666667,0,-1.56e-5)" />
  <line
     class="cls-36"
     x1="136"
     y1="1222.2083"
     x2="759.91669"
     y2="1189.7084"
     id="line172"
     style="stroke-width:4.16667" />
  <polyline
     class="cls-25"
     points="638.12 285.72 640.62 285.73 640.62 288.23"
     id="polyline172"
     transform="matrix(4.1666667,0,0,4.1666667,0,-1.56e-5)" />
  <line
     class="cls-30"
     x1="2669.2917"
     y1="1221.4167"
     x2="2670.5417"
     y2="2233.7915"
     id="line173"
     style="stroke-width:4.16667" />
  <polyline
     class="cls-25"
     points="640.93 538.57 640.93 541.07 638.43 541.07"
     id="polyline173"
     transform="matrix(4.1666667,0,0,4.1666667,0,-1.56e-5)" />
  <line
     class="cls-28"
     x1="2639.2917"
     y1="2254.5417"
     x2="2358.2083"
     y2="2255.375"
     id="line174"
     style="stroke-width:4.16667" />
  <polyline
     class="cls-25"
     points="563.47 541.29 560.97 541.3 560.97 538.8"
     id="polyline174"
     transform="matrix(4.1666667,0,0,4.1666667,0,-1.56e-5)" />
  <line
     class="cls-5"
     x1="2337.375"
     y1="2224.5"
     x2="2337.375"
     y2="1209.2917"
     id="line175"
     style="stroke-width:4.16667" />
  <polyline
     class="cls-25"
     points="560.97 287.77 560.97 285.27 563.47 285.28"
     id="polyline175"
     transform="matrix(4.1666667,0,0,4.1666667,0,-1.56e-5)" />
  <line
     class="cls-27"
     x1="2368.5"
     y1="1188.7916"
     x2="2648.4585"
     y2="1190.4167"
     id="line176"
     style="stroke-width:4.16667" />
  <polyline
     class="cls-25"
     points="661.43 285.39 658.93 285.27 658.94 287.77"
     id="polyline176"
     transform="matrix(4.1666667,0,0,4.1666667,0,-1.56e-5)" />
  <line
     class="cls-19"
     x1="2745.625"
     y1="1219.5"
     x2="2748.2085"
     y2="2233.7915"
     id="line177"
     style="stroke-width:4.16667" />
  <polyline
     class="cls-25"
     points="659.58 538.57 659.58 541.07 662.08 540.94"
     id="polyline177"
     transform="matrix(4.1666667,0,0,4.1666667,0,-1.56e-5)" />
  <line
     class="cls-39"
     x1="2779.6667"
     y1="2252.8333"
     x2="3399.625"
     y2="2220.7917"
     id="line178"
     style="stroke-width:4.16667" />
  <polyline
     class="cls-25"
     points="818.43 532.86 820.93 532.73 820.93 530.23"
     id="polyline178"
     transform="matrix(4.1666667,0,0,4.1666667,0,-1.56e-5)" />
  <line
     class="cls-23"
     x1="3420.5417"
     y1="2188.5417"
     x2="3420.5417"
     y2="1243.5"
     id="line179"
     style="stroke-width:4.16667" />
  <polyline
     class="cls-25"
     points="820.93 295.94 820.93 293.44 818.43 293.32"
     id="polyline179"
     transform="matrix(4.1666667,0,0,4.1666667,0,-1.56e-5)" />
  <line
     class="cls-37"
     x1="3389.0417"
     y1="1221.0834"
     x2="2766.5"
     y2="1189.6666"
     id="line180"
     style="stroke-width:4.16667" />
  <polyline
     class="cls-25"
     points="303.34 264.77 303.34 267.27 305.84 267.27"
     id="polyline180"
     transform="matrix(4.1666667,0,0,4.1666667,0,-1.56e-5)" />
  <line
     class="cls-21"
     x1="1295.125"
     y1="1113.625"
     x2="2241.0002"
     y2="1113.625"
     id="line181"
     style="stroke-width:4.16667" />
  <polyline
     class="cls-25"
     points="540.34 267.27 542.84 267.27 542.84 264.77"
     id="polyline181"
     transform="matrix(4.1666667,0,0,4.1666667,0,-1.56e-5)" />
  <line
     class="cls-15"
     x1="2261.8335"
     y1="1082.375"
     x2="2261.8335"
     y2="801.41663"
     id="line182"
     style="stroke-width:4.16667" />
  <polyline
     class="cls-25"
     points="542.84 189.85 542.84 187.35 540.34 187.35"
     id="polyline182"
     transform="matrix(4.1666667,0,0,4.1666667,0,-1.56e-5)" />
  <line
     class="cls-22"
     x1="2230.625"
     y1="780.625"
     x2="1284.7083"
     y2="780.625"
     id="line183"
     style="stroke-width:4.16667" />
  <polyline
     class="cls-25"
     points="305.84 187.35 303.34 187.35 303.34 189.85"
     id="polyline183"
     transform="matrix(4.1666667,0,0,4.1666667,0,-1.56e-5)" />
  <line
     class="cls-9"
     x1="1263.9166"
     y1="811.83331"
     x2="1263.9166"
     y2="1092.7916"
     id="line184"
     style="stroke-width:4.16667" />
  <polyline
     class="cls-25"
     points="303.51 166.85 303.51 169.35 306.01 169.35"
     id="polyline184"
     transform="matrix(4.1666667,0,0,4.1666667,0,-1.56e-5)" />
  <line
     class="cls-20"
     x1="1295.8334"
     y1="705.625"
     x2="2241.0002"
     y2="705.625"
     id="line185"
     style="stroke-width:4.16667" />
  <polyline
     class="cls-25"
     points="540.33 169.35 542.83 169.35 542.83 166.85"
     id="polyline185"
     transform="matrix(4.1666667,0,0,4.1666667,0,-1.56e-5)" />
  <path
     class="cls-17"
     d="M 2261.7917,674.33332 V 322.66665 c -12.875,-46.95833 -11.8333,-103.70833 -165.875,-102.20833 h -660.875 c -135.1667,-12.375 -182.6667,55 -171.25,103.83333 l 0.7916,360.50001"
     id="path185"
     style="stroke-width:4.16667" />
  <path
     class="cls-18"
     d="m 1598.75,3281.0417 c 19.25,23.5416 68.2083,-5.9584 167.4583,-5.9584 112.0417,0 169.1667,33.4584 191.5,4.9584 23.7084,-30.2917 -10.9583,-84.5 -181.7083,-84.5 -170.75,0 -205.75,50.625 -177.25,85.4583 z"
     id="path186"
     style="stroke-width:4.16667" />
  <polyline
     class="cls-25"
     points="542.95 660.75 542.95 658.25 540.45 658.25"
     id="polyline186"
     transform="matrix(4.1666667,0,0,4.1666667,0,-1.56e-5)" />
  <polyline
     class="cls-13"
     points="535.46 658.25 532.04 658.25 314.34 658.25 308.34 658.25"
     id="polyline187"
     transform="matrix(4.1666667,0,0,4.1666667,0,-1.56e-5)" />
  <polyline
     class="cls-25"
     points="305.84 658.25 303.34 658.25 303.34 660.75"
     id="polyline188"
     transform="matrix(4.1666667,0,0,4.1666667,0,-1.56e-5)" />
  <line
     class="cls-31"
     x1="1263.9166"
     y1="2778.1667"
     x2="1263.9166"
     y2="2815.7085"
     id="line188"
     style="stroke-width:4.16667" />
  <polyline
     class="cls-25"
     points="303.34 678.77 303.34 681.27 303.36 681.27 303.36 683.77"
     id="polyline189"
     transform="matrix(4.1666667,0,0,4.1666667,0,-1.56e-5)" />
  <path
     class="cls-40"
     d="m 1264,2870.0417 v 895.9166 c 0,16.7084 20.4583,30.2917 45.7083,30.2917 h 907.0834 c 25.25,0 45.7083,-13.5417 45.7083,-30.2917 V 2773 c 0,-1.0417 -0.083,-2.125 -0.25,-3.125 v -6.25"
     id="path189"
     style="stroke-width:4.16667" />
  <polyline
     class="cls-25"
     points="303.34 637.76 303.34 640.26 305.84 640.26"
     id="polyline190"
     transform="matrix(4.1666667,0,0,4.1666667,0,-1.56e-5)" />
  <line
     class="cls-10"
     x1="1295.125"
     y1="2667.75"
     x2="2241.7085"
     y2="2667.75"
     id="line190"
     style="stroke-width:4.16667" />
  <polyline
     class="cls-25"
     points="540.51 640.26 543.01 640.26 543.01 637.76"
     id="polyline191"
     transform="matrix(4.1666667,0,0,4.1666667,0,-1.56e-5)" />
  <line
     class="cls-34"
     x1="2262.5417"
     y1="2636.2083"
     x2="2262.5417"
     y2="2351.375"
     id="line191"
     style="stroke-width:4.16667" />
  <polyline
     class="cls-25"
     points="543.01 561.8 543.01 559.3 540.51 559.3"
     id="polyline192"
     transform="matrix(4.1666667,0,0,4.1666667,0,-1.56e-5)" />
  <line
     class="cls-12"
     x1="2231.3335"
     y1="2330.4165"
     x2="1284.7083"
     y2="2330.4165"
     id="line192"
     style="stroke-width:4.16667" />
  <polyline
     class="cls-25"
     points="305.84 559.3 303.34 559.3 303.34 561.8"
     id="polyline193"
     transform="matrix(4.1666667,0,0,4.1666667,0,-1.56e-5)" />
  <line
     class="cls-35"
     x1="1263.9166"
     y1="2361.9165"
     x2="1263.9166"
     y2="2646.75"
     id="line193"
     style="stroke-width:4.16667" />
  <path
     id="Curved_slice"
     class="cls-33"
     d="m 1627.5,3260.75 c 0,0 27.25,-22.4583 150,-22.4583 122.75,0 150,22.4583 150,22.4583"
     style="stroke-width:4.16667" />
</svg>
