<?xml version="1.0" encoding="UTF-8" standalone="no"?>
<svg
     version="1.1"
     id="Layer_1"
     x="0px"
     y="0px"
     width="3525"
     height="2250"
     viewBox="0 0 3525 2250"
     enable-background="new 0 0 846 540"
     xml:space="preserve"
     sodipodi:docname="SquareTuckbox96.svg"
     inkscape:version="1.4 (e7c3feb1, 2024-10-09)"
     xmlns:inkscape="http://www.inkscape.org/namespaces/inkscape"
     xmlns:sodipodi="http://sodipodi.sourceforge.net/DTD/sodipodi-0.dtd"
     xmlns="http://www.w3.org/2000/svg"
     xmlns:svg="http://www.w3.org/2000/svg"><defs
         id="defs222">







































	

	

	

	

	

	

	

	

	

	

	

	

	
	
	
	
	
	

		
	
		
	
		
		
		
		
		
		
		
		
		
		
		
		
		
		
		
		
		
		
		
		
		
		
		
		
		
		
		
		
		
		
		
		
		
		
		
		
		
		
		
		
		
		
		
		
		
		
		
		
		
		
		
		
		
		
		
		
		
		
		
		
		
		
		
		
		
		
		
		
		
		
		
		
		
		
		
		
		
		
		
		
		
		
		
		
		
		
		
		
		
		
		
		
		
		
		
		
		
		
	
		
		
		
	
		
	
		
		
		
		
	
		
	
		
	
		
	
		
		
		
		
		
		
		
	
		
	
			
			
				
			
			
				
			
			
				
			
			
				
		
			
			
			
		
			
			
			
		
			
			
				
			
			
				
			
			
				
			
			
				
		
			
			
				
			
			
				
			
			
				
			
			
				
		
			
			
			
			
				
			
			
				
			
			
			
			
			
			
				
		
			
			
			
			
			
			
		
			
			
			
			
				
			
			
				
			
			
				
		
			
			
		
			
			
				
			
			
				
			
			
				
			
			
				
		
			
			
			
			
		
			
			
			
		
			
			
			
		
			
			
		
				
				
				
				
				
			
				
				
			
				
				
			
				
				
			
					
					
					
					
				
					
					
				
					
					
				
					
					
					
				
						
						
						
					
						
						
					
						
						
						
						
					
							
							
							
							
						
							
							
							
						
							
							
							
							
							
							
							
						
								
								
								
								
								
							
								
								
							</defs><sodipodi:namedview
         id="namedview222"
         pagecolor="#505050"
         bordercolor="#eeeeee"
         borderopacity="1"
         inkscape:showpageshadow="0"
         inkscape:pageopacity="0"
         inkscape:pagecheckerboard="0"
         inkscape:deskcolor="#d1d1d1"
         inkscape:zoom="0.2150407"
         inkscape:cx="2292.5893"
         inkscape:cy="1316.0299"
         inkscape:window-width="1872"
         inkscape:window-height="1027"
         inkscape:window-x="62"
         inkscape:window-y="25"
         inkscape:window-maximized="1"
         inkscape:current-layer="Layer_1" /><polygon
         fill="#929497"
         points="0,540 846,540 846,0 0,0 "
         id="polygon1"
         transform="matrix(4.1666667,0,0,4.1666667,-1.41e-5,-9.0000001e-6)" /><path
         fill="#ffffff"
         stroke="#ed1f24"
         stroke-miterlimit="10"
         d="m 71.166653,1767.1083 v 225 H 503.16666 v -225 432 H 1561.5 v -432 225 h 432 v -225 402.8334 h 1058.3333 v -402.8334 h 402 V 633.775 h -402 -454.1666 c 0,91.66666 -150,91.66666 -150,0 H 1993.5 c 0,-124.26667 -100.7333,-225.00001 -225,-225.00001 h -207 V 753.775 201.77916 H 1441.4958 1561.5 c 0,-82.84583 -67.1542,-150.000002 -150,-150.000002 H 653.16666 c -82.84584,0 -150,67.154172 -150,150.000002 h 120 -120 V 753.775 408.77499 H 296.16665 c -124.26666,0 -224.999997,100.73334 -224.999997,225.00001"
         id="clipping"
         style="stroke-width:4.16667;stroke:none;fill:#6a6a6a;fill-opacity:1" /><line
         fill="none"
         stroke="#ed1f24"
         stroke-width="1.66667"
         stroke-miterlimit="10"
         x1="71.166656"
         y1="1767.1083"
         x2="71.166656"
         y2="633.77911"
         id="line1" /><rect
         x="503.16666"
         y="633.77911"
         fill="none"
         stroke="#69bd45"
         stroke-width="1.66667"
         stroke-miterlimit="10"
         width="1058.3334"
         height="1133.3334"
         id="rect1" /><line
         fill="none"
         stroke="#69bd45"
         stroke-width="1.66667"
         stroke-miterlimit="10"
         x1="503.16666"
         y1="1767.1083"
         x2="71.166656"
         y2="1767.1083"
         id="line2" /><line
         fill="none"
         stroke="#69bd45"
         stroke-width="1.66667"
         stroke-miterlimit="10"
         x1="503.16666"
         y1="633.77911"
         x2="71.166656"
         y2="633.77911"
         id="line3" /><polyline
         fill="none"
         stroke="#69bd45"
         stroke-width="0.4"
         stroke-miterlimit="10"
         points="374.76,424.106 478.439,424.106   478.439,152.107 374.76,152.107 "
         id="polyline3"
         transform="matrix(4.1666667,0,0,4.1666667,-1.41e-5,-9.0000001e-6)" /><line
         fill="none"
         stroke="#69bd45"
         stroke-width="1.66667"
         stroke-miterlimit="10"
         x1="3051.8293"
         y1="1767.1083"
         x2="3051.8293"
         y2="633.77911"
         id="line4" /><line
         fill="none"
         stroke="#69bd45"
         stroke-width="1.66667"
         stroke-miterlimit="10"
         x1="623.16663"
         y1="201.77914"
         x2="1441.4958"
         y2="201.77914"
         id="line5" /><line
         fill="none"
         stroke="#69bd45"
         stroke-width="1.66667"
         stroke-miterlimit="10"
         x1="503.16666"
         y1="753.77917"
         x2="1561.5"
         y2="753.77917"
         id="line6" /><line
         fill="none"
         stroke="#69bd45"
         stroke-width="1.66667"
         stroke-miterlimit="10"
         x1="1993.4958"
         y1="1767.1083"
         x2="3051.8293"
         y2="1767.1083"
         id="line7" /><rect
         x="3179.8416"
         y="681.11249"
         fill="#e6e6e6"
         width="224.99167"
         height="1033.3291"
         id="rect7"
         style="stroke-width:4.16667" /><line
         fill="none"
         stroke="#eb2227"
         x1="2506.2251"
         y1="858.17914"
         x2="2506.2251"
         y2="670.82916"
         id="line8"
         style="stroke-width:4.16667" /><line
         fill="none"
         stroke="#8cc541"
         x1="1418.75"
         y1="943.06665"
         x2="1538.7458"
         y2="941.6792"
         id="line9"
         style="stroke-width:4.16667" /><path
         fill="none"
         stroke="#29abe2"
         stroke-miterlimit="10"
         stroke-dasharray="20.8333"
         d="m 2686.1208,685.8 h -14.7416 c -0.5,2.31666 -1.5417,4.69583 -3.225,7.10416 -0.7084,1.0125 -1.4334,2.02084 -2.1875,3.01667"
         id="path180"
         style="stroke-width:4.16667" /><path
         fill="none"
         stroke="#29abe2"
         stroke-miterlimit="10"
         stroke-dasharray="20.8333"
         d="m 2650.6583,713.03333 c -34.1833,32.25417 -88.2291,51.38333 -144.6958,46.77083 -50.6583,-4.1375 -103.3667,-21.1625 -129.0375,-54.3625"
         id="path181"
         style="stroke-width:4.16667" /><path
         fill="none"
         stroke="#29abe2"
         stroke-miterlimit="10"
         stroke-dasharray="20.8333"
         d="m 2370.775,696.26666 c -0.7958,-1.38333 -1.5375,-2.7875 -2.2458,-4.21666 -1.0834,-2.19584 -1.6417,-4.275 -1.8292,-6.25 h -14.7417"
         id="path182"
         style="stroke-width:4.16667" /><line
         fill="none"
         stroke="#29abe2"
         stroke-miterlimit="10"
         stroke-dasharray="20.8333"
         x1="2324.8667"
         y1="685.79999"
         x2="2067.4917"
         y2="685.79999"
         id="line182"
         style="stroke-width:4.16667" /><polyline
         fill="none"
         stroke="#29abe2"
         stroke-miterlimit="10"
         stroke-dasharray="5"
         points="492.946,164.592 489.408,164.592      489.408,167.219    "
         id="polyline182"
         transform="matrix(4.1666667,0,0,4.1666667,-1.41e-5,-9.0000001e-6)" /><line
         fill="none"
         stroke="#29abe2"
         stroke-miterlimit="10"
         stroke-dasharray="20.8333"
         x1="2039.2"
         y1="718.3042"
         x2="2039.2"
         y2="1699.1041"
         id="line183"
         style="stroke-width:4.16667" /><polyline
         fill="none"
         stroke="#29abe2"
         stroke-miterlimit="10"
         stroke-dasharray="5"
         points="489.408,410.373 489.408,413      492.946,413    "
         id="polyline183"
         transform="matrix(4.1666667,0,0,4.1666667,-1.41e-5,-9.0000001e-6)" /><line
         fill="none"
         stroke="#29abe2"
         stroke-miterlimit="10"
         stroke-dasharray="20.8333"
         x1="2084.2583"
         y1="1720.8334"
         x2="2978.425"
         y2="1720.8334"
         id="line184"
         style="stroke-width:4.16667" /><polyline
         fill="none"
         stroke="#29abe2"
         stroke-miterlimit="10"
         stroke-dasharray="5"
         points="718.462,413 722,413 722,410.373         "
         id="polyline184"
         transform="matrix(4.1666667,0,0,4.1666667,-1.41e-5,-9.0000001e-6)" /><line
         fill="none"
         stroke="#29abe2"
         stroke-miterlimit="10"
         stroke-dasharray="20.8333"
         x1="3008.3333"
         y1="1688.3292"
         x2="3008.3333"
         y2="707.52502"
         id="line185"
         style="stroke-width:4.16667" /><polyline
         fill="none"
         stroke="#29abe2"
         stroke-miterlimit="10"
         stroke-dasharray="5"
         points="722,167.219 722,164.592      718.462,164.592    "
         id="polyline185"
         transform="matrix(4.1666667,0,0,4.1666667,-1.41e-5,-9.0000001e-6)" /><line
         fill="none"
         stroke="#29abe2"
         stroke-miterlimit="10"
         stroke-dasharray="20.8333"
         x1="2965.6458"
         y1="685.79999"
         x2="2700.0999"
         y2="685.79999"
         id="line186"
         style="stroke-width:4.16667" /><polyline
         fill="none"
         stroke="#29abe2"
         stroke-miterlimit="10"
         stroke-dasharray="5"
         points="364.461,411.341 364.461,414      360.91,414    "
         id="polyline188"
         transform="matrix(4.1666667,0,0,4.1666667,-1.41e-5,-9.0000001e-6)" /><line
         fill="none"
         stroke="#29abe2"
         stroke-miterlimit="10"
         stroke-dasharray="20.8333"
         x1="1473.3583"
         y1="1725"
         x2="575.73749"
         y2="1725"
         id="line188"
         style="stroke-width:4.16667" /><polyline
         fill="none"
         stroke="#29abe2"
         stroke-miterlimit="10"
         stroke-dasharray="5"
         points="134.525,414 130.974,414      130.974,411.341    "
         id="polyline189"
         transform="matrix(4.1666667,0,0,4.1666667,-1.41e-5,-9.0000001e-6)" /><line
         fill="none"
         stroke="#29abe2"
         stroke-miterlimit="10"
         stroke-dasharray="20.8333"
         x1="545.72498"
         y1="1692.1"
         x2="545.72498"
         y2="699.30835"
         id="line189"
         style="stroke-width:4.16667" /><polyline
         fill="none"
         stroke="#29abe2"
         stroke-miterlimit="10"
         stroke-dasharray="5"
         points="130.974,165.216 130.974,162.557      134.525,162.557    "
         id="polyline190"
         transform="matrix(4.1666667,0,0,4.1666667,-1.41e-5,-9.0000001e-6)" /><line
         fill="none"
         stroke="#29abe2"
         stroke-miterlimit="10"
         stroke-dasharray="20.8333"
         x1="590.95001"
         y1="677.32086"
         x2="1488.575"
         y2="677.32086"
         id="line190"
         style="stroke-width:4.16667" /><polyline
         fill="none"
         stroke="#29abe2"
         stroke-miterlimit="10"
         stroke-dasharray="5"
         points="360.91,162.557 364.461,162.557      364.461,165.216    "
         id="polyline191"
         transform="matrix(4.1666667,0,0,4.1666667,-1.41e-5,-9.0000001e-6)" /><line
         fill="none"
         stroke="#29abe2"
         stroke-miterlimit="10"
         stroke-dasharray="20.8333"
         x1="1518.5875"
         y1="710.22083"
         x2="1518.5875"
         y2="1703.0125"
         id="line191"
         style="stroke-width:4.16667" /><line
         fill="none"
         stroke="#29abe2"
         stroke-miterlimit="10"
         x1="1500.6958"
         y1="1300"
         x2="1375.6958"
         y2="1300"
         id="line193"
         style="stroke-width:4.16667" /><polyline
         fill="none"
         stroke="#29abe2"
         stroke-miterlimit="10"
         stroke-dasharray="6.4298"
         points="363.807,124.285 363.807,140      360.251,140    "
         id="polyline194"
         transform="matrix(4.1666667,0,0,4.1666667,-1.41e-5,-9.0000001e-6)" /><line
         fill="none"
         stroke="#29abe2"
         stroke-miterlimit="10"
         stroke-dasharray="26.7908"
         x1="1470.5709"
         y1="583.33331"
         x2="571.72083"
         y2="583.33331"
         id="line194"
         style="stroke-width:4.16667" /><polyline
         fill="none"
         stroke="#29abe2"
         stroke-miterlimit="10"
         stroke-dasharray="6.4298"
         points="133.557,140 130,140      130,124.285    "
         id="polyline195"
         transform="matrix(4.1666667,0,0,4.1666667,-1.41e-5,-9.0000001e-6)" /><line
         fill="none"
         stroke="#29abe2"
         stroke-miterlimit="10"
         stroke-dasharray="26.7908"
         x1="541.66669"
         y1="449.00833"
         x2="541.66669"
         y2="345.73331"
         id="line195"
         style="stroke-width:4.16667" /><polyline
         fill="none"
         stroke="#29abe2"
         stroke-miterlimit="10"
         stroke-dasharray="6.4298"
         points="130,74.716 130,59 133.557,59         "
         id="polyline196"
         transform="matrix(4.1666667,0,0,4.1666667,-1.41e-5,-9.0000001e-6)" /><line
         fill="none"
         stroke="#29abe2"
         stroke-miterlimit="10"
         stroke-dasharray="26.7908"
         x1="586.95831"
         y1="245.83333"
         x2="1485.8083"
         y2="245.83333"
         id="line196"
         style="stroke-width:4.16667" /><polyline
         fill="none"
         stroke="#29abe2"
         stroke-miterlimit="10"
         stroke-dasharray="6.4298"
         points="360.251,59 363.807,59      363.807,74.716    "
         id="polyline197"
         transform="matrix(4.1666667,0,0,4.1666667,-1.41e-5,-9.0000001e-6)" /><line
         fill="none"
         stroke="#29abe2"
         stroke-miterlimit="10"
         stroke-dasharray="26.7908"
         x1="1515.8625"
         y1="380.15833"
         x2="1515.8625"
         y2="483.42084"
         id="line197"
         style="stroke-width:4.16667" /><polyline
         fill="none"
         stroke="#29abe2"
         stroke-miterlimit="10"
         stroke-dasharray="6.3702"
         points="363.057,499.845      363.057,515.664 359.547,515.664    "
         id="polyline199"
         transform="matrix(4.1666667,0,0,4.1666667,-1.41e-5,-9.0000001e-6)" /><line
         fill="none"
         stroke="#29abe2"
         stroke-miterlimit="10"
         stroke-dasharray="26.5425"
         x1="1468.0209"
         y1="2148.6001"
         x2="580.60419"
         y2="2148.6001"
         id="line199"
         style="stroke-width:4.16667" /><polyline
         fill="none"
         stroke="#29abe2"
         stroke-miterlimit="10"
         stroke-dasharray="6.3702"
         points="135.735,515.664      132.224,515.664 132.224,499.845    "
         id="polyline200"
         transform="matrix(4.1666667,0,0,4.1666667,-1.41e-5,-9.0000001e-6)" /><line
         fill="none"
         stroke="#29abe2"
         stroke-miterlimit="10"
         stroke-dasharray="26.5425"
         x1="550.93335"
         y1="2013.4083"
         x2="550.93335"
         y2="1909.4917"
         id="line200"
         style="stroke-width:4.16667" /><polyline
         fill="none"
         stroke="#29abe2"
         stroke-miterlimit="10"
         stroke-dasharray="6.3702"
         points="132.224,449.963      132.224,434.148 135.735,434.148    "
         id="polyline201"
         transform="matrix(4.1666667,0,0,4.1666667,-1.41e-5,-9.0000001e-6)" /><line
         fill="none"
         stroke="#29abe2"
         stroke-miterlimit="10"
         stroke-dasharray="26.5425"
         x1="595.64581"
         y1="1808.9501"
         x2="1483.0667"
         y2="1808.9501"
         id="line201"
         style="stroke-width:4.16667" /><polyline
         fill="none"
         stroke="#29abe2"
         stroke-miterlimit="10"
         stroke-dasharray="6.3702"
         points="359.547,434.148      363.057,434.148 363.057,449.963    "
         id="polyline202"
         transform="matrix(4.1666667,0,0,4.1666667,-1.41e-5,-9.0000001e-6)" /><line
         fill="none"
         stroke="#29abe2"
         stroke-miterlimit="10"
         stroke-dasharray="26.5425"
         x1="1512.7375"
         y1="1944.15"
         x2="1512.7375"
         y2="2048.0625"
         id="line202"
         style="stroke-width:4.16667" /><rect
         x="2041.0583"
         y="1858.3334"
         fill="#e6e6e6"
         width="958.94165"
         height="284.16251"
         id="rect204"
         style="stroke-width:4.16667" /><polyline
         fill="none"
         stroke="#29abe2"
         stroke-miterlimit="10"
         stroke-dasharray="6.3882"
         points="111.495,411.024      111.495,413.669 110.214,413.669    "
         id="polyline204"
         transform="matrix(4.1666667,0,0,4.1666667,-1.41e-5,-9.0000001e-6)" /><line
         fill="none"
         stroke="#29abe2"
         stroke-miterlimit="10"
         stroke-dasharray="26.6175"
         x1="448.25833"
         y1="1723.6208"
         x2="124.70832"
         y2="1723.6208"
         id="line204"
         style="stroke-width:4.16667" /><polyline
         fill="none"
         stroke="#29abe2"
         stroke-miterlimit="10"
         stroke-dasharray="6.3882"
         points="28.614,413.669      27.333,413.669 27.333,411.024    "
         id="polyline205"
         transform="matrix(4.1666667,0,0,4.1666667,-1.41e-5,-9.0000001e-6)" /><line
         fill="none"
         stroke="#29abe2"
         stroke-miterlimit="10"
         stroke-dasharray="26.6175"
         x1="113.88749"
         y1="1690.8916"
         x2="113.88749"
         y2="703.35834"
         id="line205"
         style="stroke-width:4.16667" /><polyline
         fill="none"
         stroke="#29abe2"
         stroke-miterlimit="10"
         stroke-dasharray="6.3882"
         points="27.333,166.202      27.333,163.557 28.614,163.557    "
         id="polyline206"
         transform="matrix(4.1666667,0,0,4.1666667,-1.41e-5,-9.0000001e-6)" /><line
         fill="none"
         stroke="#29abe2"
         stroke-miterlimit="10"
         stroke-dasharray="26.6175"
         x1="130.19582"
         y1="681.48755"
         x2="453.74167"
         y2="681.48755"
         id="line206"
         style="stroke-width:4.16667" /><polyline
         fill="none"
         stroke="#29abe2"
         stroke-miterlimit="10"
         stroke-dasharray="6.3882"
         points="110.214,163.557      111.495,163.557 111.495,166.202    "
         id="polyline207"
         transform="matrix(4.1666667,0,0,4.1666667,-1.41e-5,-9.0000001e-6)" /><line
         fill="none"
         stroke="#29abe2"
         stroke-miterlimit="10"
         stroke-dasharray="26.6175"
         x1="464.5625"
         y1="714.21667"
         x2="464.5625"
         y2="1701.7458"
         id="line207"
         style="stroke-width:4.16667" /><path
         fill="none"
         stroke="#29abe2"
         stroke-miterlimit="10"
         stroke-dasharray="23.155"
         d="M 1624.8917,735.37916"
         id="path209"
         style="stroke-width:4.16667" /><path
         fill="none"
         stroke="#29abe2"
         stroke-miterlimit="10"
         stroke-dasharray="23.155"
         d="M 1624.8917,1663.6917"
         id="path210"
         style="stroke-width:4.16667" /><path
         fill="none"
         stroke="#29abe2"
         stroke-miterlimit="10"
         stroke-dasharray="23.155"
         d="M 1921.8,714.82083"
         id="path211"
         style="stroke-width:4.16667" /><path
         fill="none"
         stroke="#29abe2"
         stroke-miterlimit="10"
         stroke-dasharray="23.155"
         d="M 1639.1292,714.82083"
         id="path212"
         style="stroke-width:4.16667" /><path
         fill="none"
         stroke="#29abe2"
         stroke-miterlimit="10"
         stroke-dasharray="23.155"
         d="M 1931.25,1673.8917"
         id="path213"
         style="stroke-width:4.16667" /><path
         fill="none"
         stroke="#29abe2"
         stroke-miterlimit="10"
         stroke-dasharray="23.155"
         d="M 1931.25,745.58333"
         id="path214"
         style="stroke-width:4.16667" /><polyline
         fill="none"
         stroke="#29abe2"
         stroke-miterlimit="10"
         stroke-dasharray="6.3882"
         points="467.381,411.178      467.381,413.823 466.146,413.823    "
         id="polyline216"
         transform="matrix(4.1666667,0,0,4.1666667,-1.41e-5,-9.0000001e-6)" /><line
         fill="none"
         stroke="#29abe2"
         stroke-miterlimit="10"
         stroke-dasharray="26.6175"
         x1="1931.6958"
         y1="1724.2625"
         x2="1619.6833"
         y2="1724.2625"
         id="line216"
         style="stroke-width:4.16667" /><polyline
         fill="none"
         stroke="#29abe2"
         stroke-miterlimit="10"
         stroke-dasharray="6.3882"
         points="387.455,413.823      386.22,413.823 386.22,411.178    "
         id="polyline217"
         transform="matrix(4.1666667,0,0,4.1666667,-1.41e-5,-9.0000001e-6)" /><line
         fill="none"
         stroke="#29abe2"
         stroke-miterlimit="10"
         stroke-dasharray="26.6175"
         x1="1609.25"
         y1="1691.5416"
         x2="1609.25"
         y2="704"
         id="line217"
         style="stroke-width:4.16667" /><polyline
         fill="none"
         stroke="#29abe2"
         stroke-miterlimit="10"
         stroke-dasharray="6.3882"
         points="386.22,166.356      386.22,163.711 387.455,163.711    "
         id="polyline218"
         transform="matrix(4.1666667,0,0,4.1666667,-1.41e-5,-9.0000001e-6)" /><line
         fill="none"
         stroke="#29abe2"
         stroke-miterlimit="10"
         stroke-dasharray="26.6175"
         x1="1624.9708"
         y1="682.12915"
         x2="1936.9875"
         y2="682.12915"
         id="line218"
         style="stroke-width:4.16667" /><polyline
         fill="none"
         stroke="#29abe2"
         stroke-miterlimit="10"
         stroke-dasharray="6.3882"
         points="466.146,163.711      467.381,163.711 467.381,166.356    "
         id="polyline219"
         transform="matrix(4.1666667,0,0,4.1666667,-1.41e-5,-9.0000001e-6)" /><line
         fill="none"
         stroke="#29abe2"
         stroke-miterlimit="10"
         stroke-dasharray="26.6175"
         x1="1947.4209"
         y1="714.85419"
         x2="1947.4209"
         y2="1702.3917"
         id="line219"
         style="stroke-width:4.16667" /></svg>
