<?xml version="1.0" encoding="UTF-8" standalone="no"?>
<svg
   viewBox="0 0 2925 4125"
   width="2925"
   height="4125"
   version="1.1"
   id="svg201"
   sodipodi:docname="TarotHookBox40Front.svg"
   inkscape:version="1.3.2 (091e20e, 2023-11-25, custom)"
   xmlns:inkscape="http://www.inkscape.org/namespaces/inkscape"
   xmlns:sodipodi="http://sodipodi.sourceforge.net/DTD/sodipodi-0.dtd"
   xmlns="http://www.w3.org/2000/svg"
   xmlns:svg="http://www.w3.org/2000/svg">
  <defs
     id="defs201">
    <defs
       id="defs1">
      <style
         id="style1">.cls-1,.cls-2,.cls-3,.cls-4,.cls-5,.cls-6,.cls-7,.cls-8,.cls-9,.cls-10,.cls-11,.cls-12,.cls-13,.cls-14,.cls-15,.cls-16,.cls-17,.cls-18,.cls-19,.cls-20,.cls-21,.cls-22,.cls-23,.cls-24,.cls-25,.cls-26,.cls-27,.cls-28,.cls-29,.cls-30,.cls-31,.cls-32,.cls-33,.cls-34,.cls-35,.cls-36,.cls-37,.cls-38,.cls-39,.cls-40,.cls-41,.cls-42{fill:none;}.cls-2{stroke-dasharray:4.9 4.9;}.cls-2,.cls-3,.cls-4,.cls-5,.cls-6,.cls-7,.cls-8,.cls-9,.cls-10,.cls-11,.cls-12,.cls-13,.cls-14,.cls-15,.cls-16,.cls-18,.cls-20,.cls-21,.cls-22,.cls-23,.cls-24,.cls-26,.cls-27,.cls-28,.cls-29,.cls-30,.cls-31,.cls-32,.cls-33,.cls-34,.cls-35,.cls-36,.cls-37,.cls-38,.cls-39,.cls-40,.cls-41{stroke-miterlimit:10;}.cls-2,.cls-3,.cls-4,.cls-6,.cls-7,.cls-8,.cls-9,.cls-10,.cls-11,.cls-12,.cls-13,.cls-14,.cls-15,.cls-16,.cls-18,.cls-20,.cls-21,.cls-22,.cls-23,.cls-24,.cls-28,.cls-29,.cls-30,.cls-31,.cls-32,.cls-33,.cls-34,.cls-35,.cls-36,.cls-37,.cls-38,.cls-39,.cls-40{stroke:#26aae1;}.cls-3{stroke-dasharray:4.9 4.9;}.cls-4{stroke-dasharray:4.9 4.9;}.cls-5,.cls-25{stroke:#0baa4b;}.cls-43,.cls-44,.cls-45,.cls-46{fill-rule:evenodd;}.cls-43,.cls-47{fill:#fff;}.cls-48,.cls-49,.cls-50,.cls-51{font-family:Arial-Black, 'Arial Black';font-weight:800;}.cls-48,.cls-50,.cls-51,.cls-52{fill:#231f20;}.cls-6{stroke-dasharray:4.93 4.93;}.cls-7{stroke-dasharray:4.93 4.93;}.cls-8{stroke-dasharray:4.93 4.93;}.cls-9{stroke-dasharray:4.93 4.93;}.cls-10{stroke-dasharray:4.92 4.92;}.cls-11{stroke-dasharray:4.93 4.93;}.cls-12{stroke-dasharray:4.02 4.02;}.cls-13{stroke-dasharray:4.99 4.99;}.cls-14{stroke-dasharray:5 5;}.cls-15{stroke-dasharray:4.04 4.04;}.cls-16{stroke-dasharray:5.02 5.02;}.cls-17,.cls-19,.cls-26,.cls-41,.cls-42{stroke-width:2px;}.cls-17,.cls-42{stroke:#2ba4dd;}.cls-19{stroke:#ec2224;}.cls-49{fill:#020202;}.cls-49,.cls-50{font-size:12.75px;}.cls-20{stroke-dasharray:4.93 4.93;}.cls-21{stroke-dasharray:4.92 4.92;}.cls-44{fill:#b7d333;}.cls-22{stroke-dasharray:4.19 4.19;}.cls-23{stroke-dasharray:4.19 4.19;}.cls-24{stroke-dasharray:4.1 4.1;}.cls-25{stroke-linecap:round;stroke-linejoin:round;}.cls-53{fill:#919396;}.cls-53,.cls-54,.cls-55,.cls-52,.cls-56{font-family:Arial-BoldMT, Arial;font-weight:700;}.cls-53,.cls-54,.cls-55,.cls-56{font-size:9px;}.cls-57{fill:#d0d1d2;}.cls-26{stroke:#0ea94b;}.cls-58{letter-spacing:0em;}.cls-27{stroke:red;}.cls-59{font-size:12.36px;}.cls-60{font-size:14.83px;}.cls-28{stroke-dasharray:4.08 4.08;}.cls-29{stroke-dasharray:4.08 4.08;}.cls-30{stroke-dasharray:4.08 4.08;}.cls-51{font-size:30px;}.cls-61{letter-spacing:0em;}.cls-62{letter-spacing:0em;}.cls-31{stroke-dasharray:4.94 4.94;}.cls-32{stroke-dasharray:5.08 5.08;}.cls-63{opacity:.5;}.cls-54{fill:#2ba4dd;}.cls-33{stroke-dasharray:5.06 5.06;}.cls-34{stroke-dasharray:5.06 5.06;}.cls-35{stroke-dasharray:5.06 5.06;}.cls-36{stroke-dasharray:5.06 5.06;}.cls-37{stroke-dasharray:5.06 5.06;}.cls-38{stroke-dasharray:5.04 5.04;}.cls-39{stroke-dasharray:5.07 5.07;}.cls-40{stroke-dasharray:5.08 5.08;}.cls-41{stroke:#929395;}.cls-55{fill:#0baa4b;}.cls-64{letter-spacing:-.07em;}.cls-42{stroke-dasharray:4.99 4.99;}.cls-65{letter-spacing:-.02em;}.cls-66{letter-spacing:-.02em;}.cls-67{letter-spacing:-.02em;}.cls-68{letter-spacing:-.02em;}.cls-69{letter-spacing:-.02em;}.cls-70{letter-spacing:-.02em;}.cls-71{letter-spacing:-.04em;}.cls-72{letter-spacing:-.04em;}.cls-73{letter-spacing:-.03em;}.cls-74{letter-spacing:-.03em;}.cls-75{letter-spacing:-.03em;}.cls-76{letter-spacing:-.03em;}.cls-77{letter-spacing:0em;}.cls-78,.cls-46{fill:#4e494b;}.cls-52{font-size:10px;}.cls-79{letter-spacing:.03em;}.cls-80{letter-spacing:.02em;}.cls-81{letter-spacing:.05em;}.cls-56{fill:#eb222a;}.cls-82{letter-spacing:.01em;}</style>
    </defs>
  </defs>
  <sodipodi:namedview
     id="namedview201"
     pagecolor="#505050"
     bordercolor="#eeeeee"
     borderopacity="1"
     inkscape:showpageshadow="0"
     inkscape:pageopacity="0"
     inkscape:pagecheckerboard="0"
     inkscape:deskcolor="#d1d1d1"
     inkscape:zoom="0.43636363"
     inkscape:cx="1507.9167"
     inkscape:cy="2508.2292"
     inkscape:window-width="2560"
     inkscape:window-height="1351"
     inkscape:window-x="-9"
     inkscape:window-y="-9"
     inkscape:window-maximized="1"
     inkscape:current-layer="svg201" />
  <path
     class="cls-63"
     d="M -1.17e-5,-1.65e-5 V 4125 H 2925 V -1.65e-5 Z"
     id="path1"
     style="stroke-width:4.16667"
     sodipodi:nodetypes="ccccc" />
  <path
     class="cls-27"
     d="m 1319.5417,163.16665 v 0 c 32.75,1.04167 8.9166,-116.958333 173.0416,-116.833333 172.375,0.125 138.2084,104.958333 113.25,92.708333 -20.125,-9.91667 -34.2083,23.70833 -5.7083,23.70833 v 0 c 23.8333,0 134.0833,-1.41666 163.75,0.58334 47.8333,3.20833 114.5,34 115.375,123.625 v 572.25 c 0,0 0,180.87498 0,180.87498 v 0 c 0,0 186.375,0 186.375,0 l -6.375,0.25 812.2083,42.5 v 1348.875 c 0,0 -811,40.5417 -811,40.5417 H 1880.375 c 0,0 -1.125,0 -1.125,0 l -0.75,1559.6667 v -1.5 c 0,26.625 -21.5833,48.25 -48.25,48.25 H 1095 c -26.6667,0 -48.25,-21.625 -48.25,-48.25 v 1.5 c 0,0 -0.75,-1558.5 -0.75,-1558.5 v -1.5834 c 0,0 -180.08334,0 -180.08334,0 L 53.708322,2432.6667 v -1350.125 c 0,0 812.208338,-42.4584 812.208338,-42.4584 h 180.04164 c 0,0 0.4167,0 0.4167,0 V 859.20832 c 0,0 -0.4583,0 -0.4583,0 v -576 c 0,-66.29167 53.7083,-120 120,-120 h 151.9583 c 0,0 1.75,-0.0417 1.75,-0.0417 z"
     id="clipping"
     style="stroke-width:4.16667;fill:#4e4e4e;fill-opacity:1;stroke:none" />
  <path
     id="actualSize"
     style="fill:#a2a2a2;stroke-miterlimit:10;stroke:none"
     class="cls-5"
     transform="matrix(4.1666667,0,0,4.1666667,-1.17e-5,-1.65e-5)"
     d="m 251,249.25 v 344 H 451.01 L 451,249.63" />
  <polyline
     class="cls-18"
     points="439.5 258.61 442 258.61 442 261.11"
     id="polyline157"
     transform="matrix(4.1666667,0,0,4.1666667,-1.17e-5,-1.65e-5)" />
  <line
     class="cls-7"
     x1="1841.6666"
     y1="1108.5"
     x2="1841.6666"
     y2="2413.7083"
     id="line157"
     style="stroke-width:4.16667" />
  <polyline
     class="cls-18"
     points="442 581.75 442 584.25 439.5 584.25"
     id="polyline158"
     transform="matrix(4.1666667,0,0,4.1666667,-1.17e-5,-1.65e-5)" />
  <line
     class="cls-34"
     x1="1810.1666"
     y1="2434.375"
     x2="1104.25"
     y2="2434.375"
     id="line158"
     style="stroke-width:4.16667" />
  <polyline
     class="cls-18"
     points="262.49 584.25 259.99 584.25 259.99 581.75"
     id="polyline159"
     transform="matrix(4.1666667,0,0,4.1666667,-1.17e-5,-1.65e-5)" />
  <line
     class="cls-9"
     x1="1083.2916"
     y1="2403.4167"
     x2="1083.2916"
     y2="1098.2499"
     id="line159"
     style="stroke-width:4.16667" />
  <polyline
     class="cls-18"
     points="259.99 261.11 259.99 258.61 262.49 258.61"
     id="polyline160"
     transform="matrix(4.1666667,0,0,4.1666667,-1.17e-5,-1.65e-5)" />
  <line
     class="cls-34"
     x1="1114.7916"
     y1="1077.5416"
     x2="1820.7084"
     y2="1077.5416"
     id="line160"
     style="stroke-width:4.16667" />
  <polyline
     class="cls-18"
     points="219.11 258.79 216.61 258.84 216.61 261.34"
     id="polyline161"
     transform="matrix(4.1666667,0,0,4.1666667,-1.17e-5,-1.65e-5)" />
  <line
     class="cls-20"
     x1="902.54169"
     y1="1109.4583"
     x2="902.125"
     y2="2412.875"
     id="line161"
     style="stroke-width:4.16667" />
  <polyline
     class="cls-18"
     points="216.51 581.55 216.51 584.05 219.01 584.08"
     id="polyline162"
     transform="matrix(4.1666667,0,0,4.1666667,-1.17e-5,-1.65e-5)" />
  <line
     class="cls-24"
     x1="929.625"
     y1="2433.875"
     x2="989.33331"
     y2="2434.5415"
     id="line162"
     style="stroke-width:4.16667" />
  <polyline
     class="cls-18"
     points="239.49 584.32 241.99 584.35 241.99 581.85"
     id="polyline163"
     transform="matrix(4.1666667,0,0,4.1666667,-1.17e-5,-1.65e-5)" />
  <line
     class="cls-31"
     x1="1008.2917"
     y1="2403.7915"
     x2="1008.2917"
     y2="1096.75"
     id="line163"
     style="stroke-width:4.16667" />
  <polyline
     class="cls-18"
     points="241.99 260.75 241.99 258.25 239.49 258.31"
     id="polyline164"
     transform="matrix(4.1666667,0,0,4.1666667,-1.17e-5,-1.65e-5)" />
  <line
     class="cls-30"
     x1="980.91663"
     y1="1076.6666"
     x2="921.45831"
     y2="1078.0833"
     id="line164"
     style="stroke-width:4.16667" />
  <polyline
     class="cls-18"
     points="196.3 258.4 198.8 258.25 198.79 260.75"
     id="polyline165"
     transform="matrix(4.1666667,0,0,4.1666667,-1.17e-5,-1.65e-5)" />
  <line
     class="cls-6"
     x1="828.25"
     y1="1107"
     x2="825.41669"
     y2="2412.4583"
     id="line165"
     style="stroke-width:4.16667" />
  <polyline
     class="cls-18"
     points="198.09 581.46 198.08 583.96 195.59 583.81"
     id="polyline166"
     transform="matrix(4.1666667,0,0,4.1666667,-1.17e-5,-1.65e-5)" />
  <line
     class="cls-2"
     x1="794.58331"
     y1="2431.3752"
     x2="111.70832"
     y2="2392.2083"
     id="line166"
     style="stroke-width:4.16667" />
  <polyline
     class="cls-18"
     points="24.37 573.99 21.87 573.85 21.87 571.35"
     id="polyline167"
     transform="matrix(4.1666667,0,0,4.1666667,-1.17e-5,-1.65e-5)" />
  <line
     class="cls-32"
     x1="91.124992"
     y1="2359.4585"
     x2="91.124992"
     y2="1141.9166"
     id="line167"
     style="stroke-width:4.16667" />
  <polyline
     class="cls-18"
     points="21.87 271.52 21.87 269.02 24.36 268.87"
     id="polyline168"
     transform="matrix(4.1666667,0,0,4.1666667,-1.17e-5,-1.65e-5)" />
  <line
     class="cls-10"
     x1="121.99999"
     y1="1119.0417"
     x2="807.70837"
     y2="1077.2916"
     id="line168"
     style="stroke-width:4.16667" />
  <polyline
     class="cls-18"
     points="482.6 259.14 485.1 259.2 485.1 261.7"
     id="polyline169"
     transform="matrix(4.1666667,0,0,4.1666667,-1.17e-5,-1.65e-5)" />
  <line
     class="cls-40"
     x1="2021.25"
     y1="1111.5834"
     x2="2021.6667"
     y2="2412.1665"
     id="line169"
     style="stroke-width:4.16667" />
  <polyline
     class="cls-18"
     points="485.2 581.46 485.2 583.96 482.7 583.99"
     id="polyline170"
     transform="matrix(4.1666667,0,0,4.1666667,-1.17e-5,-1.65e-5)" />
  <line
     class="cls-15"
     x1="1994.4166"
     y1="2433.4585"
     x2="1935.5416"
     y2="2434.1667"
     id="line170"
     style="stroke-width:4.16667" />
  <polyline
     class="cls-18"
     points="462.51 584.22 460.01 584.25 460.01 581.75"
     id="polyline171"
     transform="matrix(4.1666667,0,0,4.1666667,-1.17e-5,-1.65e-5)" />
  <line
     class="cls-8"
     x1="1916.7084"
     y1="2403.4167"
     x2="1916.7084"
     y2="1098.2499"
     id="line171"
     style="stroke-width:4.16667" />
  <polyline
     class="cls-18"
     points="460.01 261.11 460.01 258.61 462.51 258.67"
     id="polyline172"
     transform="matrix(4.1666667,0,0,4.1666667,-1.17e-5,-1.65e-5)" />
  <line
     class="cls-12"
     x1="1943.8333"
     y1="1078.1667"
     x2="2002.4584"
     y2="1079.5416"
     id="line172"
     style="stroke-width:4.16667" />
  <polyline
     class="cls-18"
     points="505.69 258.76 503.2 258.61 503.2 261.11"
     id="polyline173"
     transform="matrix(4.1666667,0,0,4.1666667,-1.17e-5,-1.65e-5)" />
  <line
     class="cls-11"
     x1="2096.7083"
     y1="1108.5"
     x2="2099.5833"
     y2="2412.4583"
     id="line173"
     style="stroke-width:4.16667" />
  <polyline
     class="cls-18"
     points="503.9 581.46 503.91 583.96 506.41 583.81"
     id="polyline174"
     transform="matrix(4.1666667,0,0,4.1666667,-1.17e-5,-1.65e-5)" />
  <line
     class="cls-4"
     x1="2130.4165"
     y1="2431.2917"
     x2="2813.2917"
     y2="2390.2085"
     id="line174"
     style="stroke-width:4.16667" />
  <polyline
     class="cls-18"
     points="677.64 573.51 680.13 573.36 680.13 570.86"
     id="polyline175"
     transform="matrix(4.1666667,0,0,4.1666667,-1.17e-5,-1.65e-5)" />
  <line
     class="cls-39"
     x1="2833.875"
     y1="2357.4167"
     x2="2833.875"
     y2="1141.875"
     id="line175"
     style="stroke-width:4.16667" />
  <polyline
     class="cls-18"
     points="680.13 271.51 680.13 269.01 677.63 268.86"
     id="polyline176"
     transform="matrix(4.1666667,0,0,4.1666667,-1.17e-5,-1.65e-5)" />
  <line
     class="cls-21"
     x1="2803"
     y1="1119.0417"
     x2="2117.2917"
     y2="1078.75"
     id="line176"
     style="stroke-width:4.16667" />
  <polyline
     class="cls-18"
     points="259.99 238.13 259.99 240.63 262.49 240.63"
     id="polyline177"
     transform="matrix(4.1666667,0,0,4.1666667,-1.17e-5,-1.65e-5)" />
  <line
     class="cls-33"
     x1="1114.7916"
     y1="1002.625"
     x2="1820.7084"
     y2="1002.625"
     id="line177"
     style="stroke-width:4.16667" />
  <polyline
     class="cls-18"
     points="439.5 240.63 442 240.63 442 238.13"
     id="polyline178"
     transform="matrix(4.1666667,0,0,4.1666667,-1.17e-5,-1.65e-5)" />
  <line
     class="cls-28"
     x1="1841.6666"
     y1="975.16663"
     x2="1841.6666"
     y2="915.66663"
     id="line178"
     style="stroke-width:4.16667" />
  <polyline
     class="cls-18"
     points="442 217.72 442 215.22 439.5 215.22"
     id="polyline179"
     transform="matrix(4.1666667,0,0,4.1666667,-1.17e-5,-1.65e-5)" />
  <line
     class="cls-34"
     x1="1810.1666"
     y1="896.75"
     x2="1104.25"
     y2="896.75"
     id="line179"
     style="stroke-width:4.16667" />
  <polyline
     class="cls-18"
     points="262.49 215.22 259.99 215.22 259.99 217.72"
     id="polyline180"
     transform="matrix(4.1666667,0,0,4.1666667,-1.17e-5,-1.65e-5)" />
  <line
     class="cls-29"
     x1="1083.2916"
     y1="924.16669"
     x2="1083.2916"
     y2="983.70831"
     id="line180"
     style="stroke-width:4.16667" />
  <polyline
     class="cls-18"
     points="260.44 194.71 260.45 197.21 262.95 197.21"
     id="polyline181"
     transform="matrix(4.1666667,0,0,4.1666667,-1.17e-5,-1.65e-5)" />
  <line
     class="cls-38"
     x1="1116.625"
     y1="821.70837"
     x2="1820.75"
     y2="821.70837"
     id="line181"
     style="stroke-width:4.16667" />
  <polyline
     class="cls-18"
     points="439.51 197.21 442.01 197.21 442.01 194.71"
     id="polyline182"
     transform="matrix(4.1666667,0,0,4.1666667,-1.17e-5,-1.65e-5)" />
  <path
     class="cls-13"
     d="M 1841.7083,790.49999 V 329.58332 c -9.75,-60.375 -8.9583,-133.29167 -125.8333,-131.375 H 1214.5 c -102.5417,-15.875 -138.5833,70.70833 -129.9167,133.45833 l 0.625,469.25001"
     id="path182"
     style="stroke-width:4.16667" />
  <path
     class="cls-14"
     d="m 1298.75,3400.1667 c 19.25,23.5416 68.2083,-5.9584 167.4583,-5.9584 112.0417,0 169.1667,33.4584 191.5,4.9584 23.7084,-30.2917 -10.9583,-84.5 -181.7083,-84.5 -170.75,0 -205.75,50.625 -177.25,85.4583 z"
     id="path183"
     style="stroke-width:4.16667" />
  <polyline
     class="cls-18"
     points="441.96 648.38 441.96 645.88 439.46 645.88"
     id="polyline183"
     transform="matrix(4.1666667,0,0,4.1666667,-1.17e-5,-1.65e-5)" />
  <polyline
     class="cls-37"
     points="434.4 645.88 433.67 645.88 268.35 645.88 265.02 645.88"
     id="polyline184"
     transform="matrix(4.1666667,0,0,4.1666667,-1.17e-5,-1.65e-5)" />
  <polyline
     class="cls-18"
     points="262.5 645.88 260 645.88 260 648.38"
     id="polyline185"
     transform="matrix(4.1666667,0,0,4.1666667,-1.17e-5,-1.65e-5)" />
  <line
     class="cls-3"
     x1="1083.3334"
     y1="2722.0002"
     x2="1083.3334"
     y2="2793.4583"
     id="line185"
     style="stroke-width:4.16667" />
  <polyline
     class="cls-18"
     points="260 672.88 260 675.38 260.01 675.38 260.01 677.88"
     id="polyline186"
     transform="matrix(4.1666667,0,0,4.1666667,-1.17e-5,-1.65e-5)" />
  <path
     class="cls-16"
     d="M 1083.375,2845.4167 V 4002.375 c 0,21.4167 15.5417,38.7917 34.7083,38.7917 h 688.8334 c 19.1666,0 34.7083,-17.375 34.7083,-38.7917 V 2730 c 0,-1.375 -0.083,-2.7083 -0.1667,-4 v -13.9167"
     id="path186"
     style="stroke-width:4.16667" />
  <polyline
     class="cls-18"
     points="260 625.38 260 627.88 262.5 627.88"
     id="polyline187"
     transform="matrix(4.1666667,0,0,4.1666667,-1.17e-5,-1.65e-5)" />
  <line
     class="cls-35"
     x1="1114.7916"
     y1="2616.1667"
     x2="1820.75"
     y2="2616.1667"
     id="line187"
     style="stroke-width:4.16667" />
  <polyline
     class="cls-18"
     points="439.51 627.88 442.01 627.88 442.01 625.38"
     id="polyline188"
     transform="matrix(4.1666667,0,0,4.1666667,-1.17e-5,-1.65e-5)" />
  <line
     class="cls-22"
     x1="1841.7084"
     y1="2588.2917"
     x2="1841.7084"
     y2="2527.2085"
     id="line188"
     style="stroke-width:4.16667" />
  <polyline
     class="cls-18"
     points="442.01 604.44 442.01 601.94 439.51 601.94"
     id="polyline189"
     transform="matrix(4.1666667,0,0,4.1666667,-1.17e-5,-1.65e-5)" />
  <line
     class="cls-36"
     x1="1810.2084"
     y1="2508.0833"
     x2="1104.2916"
     y2="2508.0833"
     id="line189"
     style="stroke-width:4.16667" />
  <polyline
     class="cls-18"
     points="262.5 601.94 260 601.94 260 604.44"
     id="polyline190"
     transform="matrix(4.1666667,0,0,4.1666667,-1.17e-5,-1.65e-5)" />
  <line
     class="cls-23"
     x1="1083.3334"
     y1="2535.9583"
     x2="1083.3334"
     y2="2597.0415"
     id="line190"
     style="stroke-width:4.16667" />
  <line
     class="cls-5"
     x1="1045.7916"
     y1="1040.125"
     x2="1879.1666"
     y2="1040.125"
     id="line191"
     style="stroke-width:4.16667" />
  <line
     class="cls-25"
     x1="865.83331"
     y1="2472.2915"
     x2="865.83331"
     y2="1038.5416"
     id="line192"
     style="stroke-width:4.16667" />
  <line
     class="cls-25"
     x1="1045.7916"
     y1="2653.6667"
     x2="1879.1666"
     y2="2653.6667"
     id="line193"
     style="stroke-width:4.16667" />
  <line
     class="cls-5"
     x1="2059.1667"
     y1="1038.8334"
     x2="2059.1667"
     y2="2471.875"
     id="line194"
     style="stroke-width:4.16667" />
  <line
     class="cls-5"
     x1="1045.7916"
     y1="859.20837"
     x2="1879.125"
     y2="859.20837"
     id="line195"
     style="stroke-width:4.16667" />
  <path
     id="Curved_slice"
     class="cls-27"
     d="m 1327.5,3377.375 c 0,0 27.25,-22.4583 150,-22.4583 122.75,0 150,22.4583 150,22.4583"
     style="stroke-width:4.16667" />
</svg>
