<?xml version="1.0" encoding="UTF-8" standalone="no"?>
<svg
     viewBox="0 0 3300 4500"
     width="3300"
     height="4500"
     version="1.1"
     id="svg200"
     sodipodi:docname="TarotHookBox90Inside.svg"
     inkscape:version="1.4 (e7c3feb1, 2024-10-09)"
     xmlns:inkscape="http://www.inkscape.org/namespaces/inkscape"
     xmlns:sodipodi="http://sodipodi.sourceforge.net/DTD/sodipodi-0.dtd"
     xmlns="http://www.w3.org/2000/svg"
     xmlns:svg="http://www.w3.org/2000/svg">
    <defs
         id="defs200">
        <defs
             id="defs1">
            <style
                 id="style1">.cls-1,.cls-2,.cls-3,.cls-4,.cls-5,.cls-6,.cls-7,.cls-8,.cls-9,.cls-10,.cls-11,.cls-12,.cls-13,.cls-14,.cls-15,.cls-16,.cls-17,.cls-18,.cls-19,.cls-20,.cls-21,.cls-22,.cls-23,.cls-24,.cls-25,.cls-26,.cls-27,.cls-28,.cls-29,.cls-30,.cls-31,.cls-32,.cls-33,.cls-34,.cls-35,.cls-36,.cls-37,.cls-38,.cls-39,.cls-40,.cls-41{fill:none;}.cls-2{stroke-dasharray:4.88 4.88;}.cls-2,.cls-3,.cls-4,.cls-5,.cls-6,.cls-7,.cls-8,.cls-9,.cls-10,.cls-11,.cls-12,.cls-13,.cls-14,.cls-16,.cls-18,.cls-20,.cls-21,.cls-22,.cls-23,.cls-24,.cls-25,.cls-26,.cls-27,.cls-28,.cls-29,.cls-30,.cls-31,.cls-32,.cls-33,.cls-34,.cls-35,.cls-36,.cls-37,.cls-38,.cls-39,.cls-40{stroke-miterlimit:10;}.cls-2,.cls-3,.cls-4,.cls-7,.cls-8,.cls-9,.cls-10,.cls-11,.cls-12,.cls-13,.cls-14,.cls-16,.cls-18,.cls-22,.cls-23,.cls-24,.cls-25,.cls-26,.cls-27,.cls-28,.cls-29,.cls-30,.cls-31,.cls-32,.cls-33,.cls-34,.cls-35,.cls-36,.cls-37,.cls-38,.cls-39{stroke:#26aae1;}.cls-3{stroke-dasharray:4.87 4.87;}.cls-4{stroke-dasharray:4.9 4.9;}.cls-5,.cls-19{stroke:#0baa4b;}.cls-42,.cls-43,.cls-44,.cls-45{fill-rule:evenodd;}.cls-42,.cls-46{fill:#fff;}.cls-6{stroke-width:.5px;}.cls-6,.cls-21{stroke:red;}.cls-47,.cls-48,.cls-49,.cls-50{font-family:Arial-Black, 'Arial Black';font-weight:800;}.cls-47,.cls-49,.cls-50,.cls-51{fill:#231f20;}.cls-7{stroke-dasharray:4.93 4.93;}.cls-8{stroke-dasharray:4.93 4.93;}.cls-9{stroke-dasharray:4.93 4.93;}.cls-10{stroke-dasharray:4.93 4.93;}.cls-11{stroke-dasharray:4.93 4.93;}.cls-12{stroke-dasharray:4.99 4.99;}.cls-13{stroke-dasharray:5 5;}.cls-14{stroke-dasharray:5.02 5.02;}.cls-15,.cls-17,.cls-20,.cls-40,.cls-41{stroke-width:2px;}.cls-15,.cls-41{stroke:#2ba4dd;}.cls-17{stroke:#ec2224;}.cls-48{fill:#020202;}.cls-48,.cls-49{font-size:12.75px;}.cls-18{stroke-dasharray:4.93 4.93;}.cls-43{fill:#b7d333;}.cls-19{stroke-linecap:round;stroke-linejoin:round;}.cls-52{fill:#919396;}.cls-52,.cls-53,.cls-54,.cls-51,.cls-55{font-family:Arial-BoldMT, Arial;font-weight:700;}.cls-52,.cls-53,.cls-54,.cls-55{font-size:9px;}.cls-56{fill:#d0d1d2;}.cls-20{stroke:#0ea94b;}.cls-57{letter-spacing:0em;}.cls-58{font-size:12.36px;}.cls-59{font-size:14.83px;}.cls-50{font-size:30px;}.cls-60{letter-spacing:0em;}.cls-61{letter-spacing:0em;}.cls-22{stroke-dasharray:4.94 4.94;}.cls-23{stroke-dasharray:5.06 5.06;}.cls-24{stroke-dasharray:5.08 5.08;}.cls-25{stroke-dasharray:5.08 5.08;}.cls-62{opacity:.5;}.cls-53{fill:#2ba4dd;}.cls-26{stroke-dasharray:5.06 5.06;}.cls-27{stroke-dasharray:5.06 5.06;}.cls-28{stroke-dasharray:5.06 5.06;}.cls-29{stroke-dasharray:5.06 5.06;}.cls-30{stroke-dasharray:5.11 5.11;}.cls-31{stroke-dasharray:5.11 5.11;}.cls-32{stroke-dasharray:5.13 5.13;}.cls-33{stroke-dasharray:5.1 5.1;}.cls-34{stroke-dasharray:5.1 5.1;}.cls-35{stroke-dasharray:5.09 5.09;}.cls-36{stroke-dasharray:5.06 5.06;}.cls-37{stroke-dasharray:5.04 5.04;}.cls-38{stroke-dasharray:5.07 5.07;}.cls-39{stroke-dasharray:5.08 5.08;}.cls-40{stroke:#929395;}.cls-54{fill:#0baa4b;}.cls-63{letter-spacing:-.07em;}.cls-41{stroke-dasharray:4.99 4.99;}.cls-64{letter-spacing:-.02em;}.cls-65{letter-spacing:-.02em;}.cls-66{letter-spacing:-.02em;}.cls-67{letter-spacing:-.02em;}.cls-68{letter-spacing:-.02em;}.cls-69{letter-spacing:-.02em;}.cls-70{letter-spacing:-.04em;}.cls-71{letter-spacing:-.04em;}.cls-72{letter-spacing:-.03em;}.cls-73{letter-spacing:-.03em;}.cls-74{letter-spacing:-.03em;}.cls-75{letter-spacing:-.03em;}.cls-76{letter-spacing:0em;}.cls-77,.cls-45{fill:#4e494b;}.cls-51{font-size:10px;}.cls-78{letter-spacing:.03em;}.cls-79{letter-spacing:.02em;}.cls-80{letter-spacing:.05em;}.cls-55{fill:#eb222a;}.cls-81{letter-spacing:.01em;}</style>
        </defs>
    </defs>
    <sodipodi:namedview
         id="namedview200"
         pagecolor="#505050"
         bordercolor="#eeeeee"
         borderopacity="1"
         inkscape:showpageshadow="0"
         inkscape:pageopacity="0"
         inkscape:pagecheckerboard="0"
         inkscape:deskcolor="#d1d1d1"
         inkscape:zoom="0.2"
         inkscape:cx="1510"
         inkscape:cy="1435"
         inkscape:window-width="1872"
         inkscape:window-height="1027"
         inkscape:window-x="62"
         inkscape:window-y="25"
         inkscape:window-maximized="1"
         inkscape:current-layer="svg200" />
    <path
         class="cls-62"
         d="M -1.32e-5,-1.8e-5 V 4500 H 3300 V -1.8e-5 Z"
         id="path1"
         style="stroke-width:4.16667"
         sodipodi:nodetypes="ccccc" />
    <line
         class="cls-19"
         x1="861.33331"
         y1="2659.875"
         x2="861.33331"
         y2="1226.5416"
         id="line157"
         style="stroke-width:4.16667" />
    <line
         class="cls-19"
         x1="1234.2083"
         y1="3031.875"
         x2="2067.5417"
         y2="3031.875"
         id="line158"
         style="stroke-width:4.16667" />
    <polyline
         class="cls-5"
         points="296.21 294.37 296.21 638.37 496.21 638.37 496.21 294.37"
         id="polyline158"
         transform="matrix(4.1666667,0,0,4.1666667,-1.32e-5,-1.8e-5)" />
    <line
         class="cls-5"
         x1="1234.1667"
         y1="854.79163"
         x2="2067.5417"
         y2="854.79163"
         id="line159"
         style="stroke-width:4.16667" />
    <line
         class="cls-5"
         x1="1234.1667"
         y1="1226.5416"
         x2="2067.5417"
         y2="1226.5416"
         id="line160"
         style="stroke-width:4.16667" />
    <line
         class="cls-5"
         x1="2438.625"
         y1="1226.7916"
         x2="2438.625"
         y2="2659.875"
         id="line161"
         style="stroke-width:4.16667" />
    <path
         id="Curved_slice"
         class="cls-6"
         d="m 1515,3747.5 c 0,0 27.25,-22.4583 150,-22.4583 120.4167,0 150,22.4583 150,22.4583" />
    <path
         class="cls-21"
         d="m 1505.25,158.79165 h -152.7917 c -66.2916,0 -120,53.70833 -120,120 v 947.75005 c 0,0 0.083,0 0.083,0 H 867.74999 c 0,0 -812.208336,42.3333 -812.208336,42.3333 v 1349.5833 c 0,0 812.208336,41.4167 812.208336,41.4167 h 364.79171 c 0,0 -0.042,372 -0.042,372 l -0.125,-2.2917 0.75,1380.2501 c 0,26.625 21.5833,48.25 48.25,48.25 h 736.2083 c 26.6667,0 48.25,-21.625 48.25,-48.25 l 0.083,1.5 -0.083,-1379.4584 -0.083,-372 h 372.9167 c 0,0 805.8333,-41.9583 805.8333,-41.9583 V 1268.125 c 0,0 -805.8333,-41.5833 -805.8333,-41.5833 h -372.8334 c 0,0 0.875,0 0.875,0 V 282.54165 c -0.875,-89.625 -67.5416,-120.41667 -115.375,-123.625 -29.6666,-2 -139.875,-0.58333 -163.7083,-0.58333 v 0 c -28.5,0 -14.4167,-33.625 5.7083,-23.70834 24.9584,12.29167 59.1667,-92.583331 -113.25,-92.708331 -164.125,-0.125 -140.2916,117.875001 -173.0416,116.833331 v 0 c 0,0 -1.75,0.0417 -1.75,0.0417 z"
         id="clipping"
         style="stroke-width:4.16667;fill:#414141;fill-opacity:1;stroke:none" />
    <polyline
         class="cls-16"
         points="484.5 303.63 487 303.63 487 306.13"
         id="polyline161"
         transform="matrix(4.1666667,0,0,4.1666667,-1.32e-5,-1.8e-5)" />
    <line
         class="cls-8"
         x1="2029.1666"
         y1="1296.125"
         x2="2029.1666"
         y2="2601.2917"
         id="line162"
         style="stroke-width:4.16667" />
    <polyline
         class="cls-16"
         points="487 626.78 487 629.28 484.5 629.28"
         id="polyline162"
         transform="matrix(4.1666667,0,0,4.1666667,-1.32e-5,-1.8e-5)" />
    <line
         class="cls-27"
         x1="1997.6666"
         y1="2622.0002"
         x2="1291.75"
         y2="2622.0002"
         id="line163"
         style="stroke-width:4.16667" />
    <polyline
         class="cls-16"
         points="307.49 629.28 304.99 629.28 304.99 626.78"
         id="polyline163"
         transform="matrix(4.1666667,0,0,4.1666667,-1.32e-5,-1.8e-5)" />
    <line
         class="cls-10"
         x1="1270.7916"
         y1="2591.0415"
         x2="1270.7916"
         y2="1285.8334"
         id="line164"
         style="stroke-width:4.16667" />
    <polyline
         class="cls-16"
         points="304.99 306.13 304.99 303.63 307.49 303.63"
         id="polyline164"
         transform="matrix(4.1666667,0,0,4.1666667,-1.32e-5,-1.8e-5)" />
    <line
         class="cls-27"
         x1="1302.2916"
         y1="1265.125"
         x2="2008.2084"
         y2="1265.125"
         id="line165"
         style="stroke-width:4.16667" />
    <polyline
         class="cls-16"
         points="218.5 303.85 216 303.87 216 306.37"
         id="polyline165"
         transform="matrix(4.1666667,0,0,4.1666667,-1.32e-5,-1.8e-5)" />
    <line
         class="cls-18"
         x1="900"
         y1="1297.0833"
         x2="898.875"
         y2="2600.4583"
         id="line166"
         style="stroke-width:4.16667" />
    <polyline
         class="cls-16"
         points="215.73 626.57 215.72 629.07 218.22 629.08"
         id="polyline166"
         transform="matrix(4.1666667,0,0,4.1666667,-1.32e-5,-1.8e-5)" />
    <line
         class="cls-31"
         x1="930.58331"
         y1="2621.2915"
         x2="1175.625"
         y2="2622.2915"
         id="line167"
         style="stroke-width:4.16667" />
    <polyline
         class="cls-16"
         points="284.71 629.36 287.21 629.37 287.21 626.87"
         id="polyline167"
         transform="matrix(4.1666667,0,0,4.1666667,-1.32e-5,-1.8e-5)" />
    <line
         class="cls-22"
         x1="1196.7083"
         y1="2591.375"
         x2="1196.7083"
         y2="1284.375"
         id="line168"
         style="stroke-width:4.16667" />
    <polyline
         class="cls-16"
         points="287.21 305.78 287.21 303.28 284.71 303.3"
         id="polyline168"
         transform="matrix(4.1666667,0,0,4.1666667,-1.32e-5,-1.8e-5)" />
    <line
         class="cls-35"
         x1="1165.0416"
         y1="1263.9166"
         x2="921.04169"
         y2="1265.9583"
         id="line169"
         style="stroke-width:4.16667" />
    <polyline
         class="cls-16"
         points="195.47 303.43 197.96 303.28 197.96 305.78"
         id="polyline169"
         transform="matrix(4.1666667,0,0,4.1666667,-1.32e-5,-1.8e-5)" />
    <line
         class="cls-7"
         x1="824.79163"
         y1="1294.625"
         x2="822.20831"
         y2="2600.0835"
         id="line170"
         style="stroke-width:4.16667" />
    <polyline
         class="cls-16"
         points="197.32 626.48 197.32 628.98 194.82 628.84"
         id="polyline170"
         transform="matrix(4.1666667,0,0,4.1666667,-1.32e-5,-1.8e-5)" />
    <line
         class="cls-30"
         x1="790.5"
         y1="2618.9165"
         x2="120.45832"
         y2="2579.875"
         id="line171"
         style="stroke-width:4.16667" />
    <polyline
         class="cls-16"
         points="26.36 619.02 23.87 618.87 23.87 616.37"
         id="polyline171"
         transform="matrix(4.1666667,0,0,4.1666667,-1.32e-5,-1.8e-5)" />
    <line
         class="cls-24"
         x1="99.458321"
         y1="2547.0415"
         x2="99.458321"
         y2="1329.5416"
         id="line172"
         style="stroke-width:4.16667" />
    <polyline
         class="cls-16"
         points="23.87 316.54 23.87 314.04 26.36 313.89"
         id="polyline172"
         transform="matrix(4.1666667,0,0,4.1666667,-1.32e-5,-1.8e-5)" />
    <line
         class="cls-32"
         x1="131.20831"
         y1="1306.5417"
         x2="803.74994"
         y2="1264.9583"
         id="line173"
         style="stroke-width:4.16667" />
    <polyline
         class="cls-16"
         points="573.49 304.21 575.99 304.23 575.99 306.73"
         id="polyline173"
         transform="matrix(4.1666667,0,0,4.1666667,-1.32e-5,-1.8e-5)" />
    <line
         class="cls-39"
         x1="2400"
         y1="1299.1666"
         x2="2401.0835"
         y2="2599.7917"
         id="line174"
         style="stroke-width:4.16667" />
    <polyline
         class="cls-16"
         points="576.27 626.48 576.27 628.98 573.77 628.99"
         id="polyline174"
         transform="matrix(4.1666667,0,0,4.1666667,-1.32e-5,-1.8e-5)" />
    <line
         class="cls-25"
         x1="2369.5417"
         y1="2620.9167"
         x2="2126.0417"
         y2="2621.9167"
         id="line175"
         style="stroke-width:4.16667" />
    <polyline
         class="cls-16"
         points="507.71 629.27 505.21 629.28 505.21 626.78"
         id="polyline175"
         transform="matrix(4.1666667,0,0,4.1666667,-1.32e-5,-1.8e-5)" />
    <line
         class="cls-9"
         x1="2105.0417"
         y1="2591.0415"
         x2="2105.0417"
         y2="1285.8334"
         id="line176"
         style="stroke-width:4.16667" />
    <polyline
         class="cls-16"
         points="505.21 306.13 505.21 303.63 507.71 303.66"
         id="polyline176"
         transform="matrix(4.1666667,0,0,4.1666667,-1.32e-5,-1.8e-5)" />
    <line
         class="cls-23"
         x1="2136.5417"
         y1="1265.4167"
         x2="2379"
         y2="1267.4584"
         id="line177"
         style="stroke-width:4.16667" />
    <polyline
         class="cls-16"
         points="596.4 303.78 593.9 303.63 593.91 306.13"
         id="polyline177"
         transform="matrix(4.1666667,0,0,4.1666667,-1.32e-5,-1.8e-5)" />
    <line
         class="cls-11"
         x1="2474.6665"
         y1="1296.0834"
         x2="2477.25"
         y2="2600.0835"
         id="line178"
         style="stroke-width:4.16667" />
    <polyline
         class="cls-16"
         points="594.55 626.48 594.55 628.98 597.05 628.83"
         id="polyline178"
         transform="matrix(4.1666667,0,0,4.1666667,-1.32e-5,-1.8e-5)" />
    <line
         class="cls-3"
         x1="2507.9167"
         y1="2618.9165"
         x2="3185.8333"
         y2="2577.8333"
         id="line179"
         style="stroke-width:4.16667" />
    <polyline
         class="cls-16"
         points="767.02 618.53 769.52 618.38 769.52 615.88"
         id="polyline179"
         transform="matrix(4.1666667,0,0,4.1666667,-1.32e-5,-1.8e-5)" />
    <line
         class="cls-38"
         x1="3206.3335"
         y1="2545.0417"
         x2="3206.3335"
         y2="1329.4584"
         id="line180"
         style="stroke-width:4.16667" />
    <polyline
         class="cls-16"
         points="769.52 316.54 769.52 314.04 767.02 313.89"
         id="polyline180"
         transform="matrix(4.1666667,0,0,4.1666667,-1.32e-5,-1.8e-5)" />
    <line
         class="cls-2"
         x1="3175.625"
         y1="1306.6666"
         x2="2495.1667"
         y2="1266.375"
         id="line181"
         style="stroke-width:4.16667" />
    <polyline
         class="cls-16"
         points="304.99 282.93 304.99 285.43 307.49 285.43"
         id="polyline181"
         transform="matrix(4.1666667,0,0,4.1666667,-1.32e-5,-1.8e-5)" />
    <line
         class="cls-26"
         x1="1302.2916"
         y1="1189.2916"
         x2="2008.2084"
         y2="1189.2916"
         id="line182"
         style="stroke-width:4.16667" />
    <polyline
         class="cls-16"
         points="484.5 285.43 487 285.43 487 282.93"
         id="polyline182"
         transform="matrix(4.1666667,0,0,4.1666667,-1.32e-5,-1.8e-5)" />
    <line
         class="cls-34"
         x1="2029.1666"
         y1="1157.6666"
         x2="2029.1666"
         y2="913.33331"
         id="line183"
         style="stroke-width:4.16667" />
    <polyline
         class="cls-16"
         points="487 216.65 487 214.15 484.5 214.15"
         id="polyline183"
         transform="matrix(4.1666667,0,0,4.1666667,-1.32e-5,-1.8e-5)" />
    <line
         class="cls-27"
         x1="1997.6666"
         y1="892.29163"
         x2="1291.75"
         y2="892.29163"
         id="line184"
         style="stroke-width:4.16667" />
    <polyline
         class="cls-16"
         points="307.49 214.15 304.99 214.15 304.99 216.65"
         id="polyline184"
         transform="matrix(4.1666667,0,0,4.1666667,-1.32e-5,-1.8e-5)" />
    <line
         class="cls-33"
         x1="1270.7916"
         y1="923.95831"
         x2="1270.7916"
         y2="1168.25"
         id="line185"
         style="stroke-width:4.16667" />
    <polyline
         class="cls-16"
         points="305.44 193.65 305.45 196.15 307.95 196.15"
         id="polyline185"
         transform="matrix(4.1666667,0,0,4.1666667,-1.32e-5,-1.8e-5)" />
    <line
         class="cls-37"
         x1="1304.125"
         y1="817.29163"
         x2="2008.25"
         y2="817.29163"
         id="line186"
         style="stroke-width:4.16667" />
    <polyline
         class="cls-16"
         points="484.51 196.15 487.01 196.15 487.01 193.65"
         id="polyline186"
         transform="matrix(4.1666667,0,0,4.1666667,-1.32e-5,-1.8e-5)" />
    <path
         class="cls-12"
         d="M 2029.2083,786.08332 V 325.16665 c -9.75,-60.375 -8.9583,-133.29167 -125.8333,-131.375 H 1402 c -102.5417,-15.875 -138.5833,70.70833 -129.9167,133.45833 l 0.625,469.25001"
         id="path186"
         style="stroke-width:4.16667" />
    <path
         class="cls-13"
         d="m 1486.25,3779.5833 c 19.25,23.5417 68.2083,-5.9583 167.4583,-5.9583 112.0417,0 169.1667,33.4583 191.5,4.9583 23.7084,-30.2916 -10.9583,-84.5 -181.7083,-84.5 -170.75,0 -205.75,50.625 -177.25,85.4584 z"
         id="path187"
         style="stroke-width:4.16667" />
    <polyline
         class="cls-16"
         points="486.96 739.44 486.96 736.94 484.46 736.94"
         id="polyline187"
         transform="matrix(4.1666667,0,0,4.1666667,-1.32e-5,-1.8e-5)" />
    <polyline
         class="cls-36"
         points="479.4 736.94 478.67 736.94 313.35 736.94 310.02 736.94"
         id="polyline188"
         transform="matrix(4.1666667,0,0,4.1666667,-1.32e-5,-1.8e-5)" />
    <polyline
         class="cls-16"
         points="307.5 736.94 305 736.94 305 739.44"
         id="polyline189"
         transform="matrix(4.1666667,0,0,4.1666667,-1.32e-5,-1.8e-5)" />
    <line
         class="cls-4"
         x1="1270.8334"
         y1="3101.4167"
         x2="1270.8334"
         y2="3172.875"
         id="line189"
         style="stroke-width:4.16667" />
    <polyline
         class="cls-16"
         points="305 763.94 305 766.44 305.01 766.44 305.01 768.94"
         id="polyline190"
         transform="matrix(4.1666667,0,0,4.1666667,-1.32e-5,-1.8e-5)" />
    <path
         class="cls-14"
         d="m 1270.875,3224.8333 v 1156.9584 c 0,21.4167 15.5417,38.7917 34.7083,38.7917 h 688.8334 c 19.1666,0 34.7083,-17.375 34.7083,-38.7917 v -1272.375 c 0,-1.375 -0.083,-2.7084 -0.1667,-4 V 3091.5"
         id="path190"
         style="stroke-width:4.16667" />
    <polyline
         class="cls-16"
         points="305 716.15 305 718.65 307.5 718.65"
         id="polyline191"
         transform="matrix(4.1666667,0,0,4.1666667,-1.32e-5,-1.8e-5)" />
    <line
         class="cls-28"
         x1="1302.2916"
         y1="2994.375"
         x2="2008.25"
         y2="2994.375"
         id="line191"
         style="stroke-width:4.16667" />
    <polyline
         class="cls-16"
         points="484.51 718.65 487.01 718.65 487.01 716.15"
         id="polyline192"
         transform="matrix(4.1666667,0,0,4.1666667,-1.32e-5,-1.8e-5)" />
    <line
         class="cls-34"
         x1="2029.2084"
         y1="2962.7083"
         x2="2029.2084"
         y2="2718.4165"
         id="line192"
         style="stroke-width:4.16667" />
    <polyline
         class="cls-16"
         points="487.01 649.87 487.01 647.37 484.51 647.37"
         id="polyline193"
         transform="matrix(4.1666667,0,0,4.1666667,-1.32e-5,-1.8e-5)" />
    <line
         class="cls-29"
         x1="1997.7084"
         y1="2697.375"
         x2="1291.7916"
         y2="2697.375"
         id="line193"
         style="stroke-width:4.16667" />
    <polyline
         class="cls-16"
         points="307.5 647.37 305 647.37 305 649.87"
         id="polyline194"
         transform="matrix(4.1666667,0,0,4.1666667,-1.32e-5,-1.8e-5)" />
    <line
         class="cls-33"
         x1="1270.8334"
         y1="2729.0415"
         x2="1270.8334"
         y2="2973.3333"
         id="line194"
         style="stroke-width:4.16667" />
</svg>
