<?xml version="1.0" encoding="UTF-8" standalone="no"?>
<!-- Created with Inkscape (http://www.inkscape.org/) -->

<svg
     width="103.73135mm"
     height="100mm"
     viewBox="0 0 103.73135 100"
     version="1.1"
     id="svg1"
     xml:space="preserve"
     inkscape:version="1.4 (e7c3feb1, 2024-10-09)"
     sodipodi:docname="settlesOfKaching.svg"
     xmlns:inkscape="http://www.inkscape.org/namespaces/inkscape"
     xmlns:sodipodi="http://sodipodi.sourceforge.net/DTD/sodipodi-0.dtd"
     xmlns="http://www.w3.org/2000/svg"
     xmlns:svg="http://www.w3.org/2000/svg"><sodipodi:namedview
         id="namedview1"
         pagecolor="#505050"
         bordercolor="#eeeeee"
         borderopacity="1"
         inkscape:showpageshadow="0"
         inkscape:pageopacity="0"
         inkscape:pagecheckerboard="0"
         inkscape:deskcolor="#d1d1d1"
         inkscape:document-units="mm"
         inkscape:zoom="1.1338707"
         inkscape:cx="326.75683"
         inkscape:cy="294.56621"
         inkscape:window-width="1872"
         inkscape:window-height="1027"
         inkscape:window-x="62"
         inkscape:window-y="25"
         inkscape:window-maximized="1"
         inkscape:current-layer="layer1" /><defs
         id="defs1" /><g
         inkscape:label="Layer 1"
         inkscape:groupmode="layer"
         id="layer1"
         transform="translate(176.88,-191.39999)"><rect
             style="fill:none;fill-opacity:0.292135;stroke-width:0.221682;stroke-linecap:round;stroke-linejoin:round;stroke-dashoffset:45.1269;paint-order:markers stroke fill"
             id="rect1"
             width="103.73135"
             height="100"
             x="-176.88"
             y="191.39999" /><path
             id="path1-9"
             style="fill:currentColor;fill-opacity:1;stroke:none;stroke-width:2.44335;stroke-linecap:round;stroke-linejoin:round;stroke-dasharray:none;stroke-dashoffset:45.1269;stroke-opacity:1;paint-order:markers stroke fill"
             d="M -112.56248 204.08294 C -113.06482 204.07563 -113.5506 204.09687 -113.64407 204.15063 C -114.74477 204.40836 -115.73268 205.00809 -116.5581 205.77069 C -117.70182 206.92812 -118.26157 208.54753 -118.45153 210.1327 C -118.49663 211.08527 -118.59606 212.08621 -118.3058 213.00797 C -118.2541 213.56774 -117.83489 214.03654 -117.90686 214.61459 C -118.12099 215.64898 -118.80513 216.50628 -119.32124 217.40615 C -119.49545 217.52118 -119.3891 217.69575 -119.49229 217.83145 C -120.23032 219.5722 -120.66755 221.43319 -120.81624 223.3169 C -120.98933 223.85016 -120.97052 224.41413 -120.98677 224.97365 C -121.03857 225.11255 -121.02235 229.73168 -120.94905 230.1475 C -120.81172 230.80218 -120.6661 231.461 -120.53719 232.12102 C -120.53689 232.40554 -120.40054 232.64223 -120.32686 232.89823 C -120.40546 233.36462 -119.91238 233.7224 -120.00337 234.16792 C -119.82278 234.51498 -119.7472 234.9011 -119.59616 235.26501 C -119.58616 235.51918 -119.46163 235.72786 -119.39462 235.95593 C -119.30262 236.46843 -119.80839 236.74065 -120.00699 237.14603 C -120.1352 237.41976 -120.31655 237.63754 -120.54339 237.83488 C -120.77229 238.05083 -120.80251 238.47573 -121.06894 238.62036 C -121.10214 238.5163 -121.12128 238.40812 -121.13508 238.29842 L -121.13508 242.66818 C -121.11758 242.61108 -121.0835 242.5773 -121.01106 242.601 C -120.34646 243.16268 -119.54196 243.52939 -118.68769 243.70222 C -116.60049 244.08678 -114.46429 244.18981 -112.34285 244.22054 C -110.21945 244.20464 -108.09843 243.96013 -106.01249 243.57717 C -105.41123 243.39083 -104.67606 243.40295 -104.20537 242.93535 C -103.97343 242.74937 -104.00971 242.39598 -103.855 242.18552 C -103.8338 242.18352 -103.81627 242.19894 -103.80797 242.21704 C -103.80397 242.24264 -103.80322 242.26866 -103.80022 242.29456 L -103.80022 238.34234 C -103.81092 238.40594 -103.83784 238.45473 -103.90564 238.46637 C -104.2444 237.77213 -104.89385 237.2442 -105.31124 236.59206 C -105.50682 236.30807 -105.67429 235.97135 -105.56756 235.61331 C -105.31788 234.88454 -105.01881 234.16723 -104.83479 233.41448 C -104.6874 233.04711 -104.656 232.63692 -104.53248 232.27346 C -104.33436 231.71089 -104.33979 231.07791 -104.23224 230.48856 C -103.98502 227.66441 -104.0247 224.78838 -104.55108 221.99864 C -104.69427 221.41524 -104.67531 220.76765 -104.89421 220.21942 C -105.17996 219.14079 -105.52834 218.045 -106.08639 217.06457 C -106.15419 216.81786 -106.41677 216.67953 -106.45691 216.44032 C -106.64327 216.14602 -106.82404 215.83167 -107.01036 215.52927 C -107.19798 215.40256 -107.21572 215.17294 -107.31887 215.0063 C -107.50855 214.51941 -107.2457 213.96391 -107.07599 213.502 C -106.62074 211.94337 -106.6902 210.26575 -107.05946 208.69764 C -107.20183 207.94508 -107.59372 207.286 -107.92038 206.6032 C -108.78896 205.47918 -109.98368 204.53145 -111.37961 204.18629 C -111.53999 204.12636 -112.05969 204.09025 -112.56248 204.08294 z M -150.3178 223.70913 L -175.69144 251.19169 L -150.27646 278.71817 L -99.700215 278.71817 L -74.336905 251.2475 L -99.713134 223.76236 L -103.50308 223.75822 C -103.21982 226.19043 -103.23301 228.66067 -103.44624 231.09627 C -103.47354 231.24585 -103.49347 231.3984 -103.51187 231.55154 L -101.82567 232.15978 L -101.82567 237.51552 L -94.176521 240.27711 L -94.176521 245.88865 L -86.637963 248.61045 L -86.637963 254.10056 L -94.460225 256.92467 L -94.460225 262.07113 L -102.10214 264.83013 L -102.10214 270.68507 L -109.76162 273.4508 L -117.46347 270.67009 L -124.56485 273.23375 L -132.36747 270.41687 L -140.14943 273.226 L -147.63837 270.52333 L -147.63837 264.88853 L -155.287 262.12694 L -155.287 256.75724 L -163.04932 253.95534 L -163.04932 248.78667 L -155.19657 245.9517 L -155.19657 240.25282 L -147.68902 237.54239 L -147.78772 232.04092 L -140.20989 229.30517 L -132.81292 231.97632 L -125.02063 229.16254 C -125.02063 229.16254 -121.95352 229.92276 -121.96191 230.22191 L -121.96191 223.7391 L -150.3178 223.70913 z M -121.9464 223.7391 C -121.9394 224.37133 -121.9464 223.7391 -121.9464 223.7391 z M -103.79971 237.88036 C -103.82241 237.94866 -103.80981 238.05261 -103.79971 238.15579 L -103.79971 237.88036 z M -103.79971 244.1823 C -103.80471 244.2442 -103.80854 244.30784 -103.81314 244.36885 L -103.79971 244.36885 L -103.79971 244.1823 z " /></g></svg>
