<?xml version="1.0" encoding="UTF-8" standalone="no"?>
<!-- Created with Inkscape (http://www.inkscape.org/) -->

<svg
     width="103.73135mm"
     height="100mm"
     viewBox="0 0 103.73135 100"
     version="1.1"
     id="svg1"
     xml:space="preserve"
     inkscape:version="1.4 (e7c3feb1, 2024-10-09)"
     sodipodi:docname="sickle.svg"
     xmlns:inkscape="http://www.inkscape.org/namespaces/inkscape"
     xmlns:sodipodi="http://sodipodi.sourceforge.net/DTD/sodipodi-0.dtd"
     xmlns="http://www.w3.org/2000/svg"
     xmlns:svg="http://www.w3.org/2000/svg"><sodipodi:namedview
         id="namedview1"
         pagecolor="#505050"
         bordercolor="#eeeeee"
         borderopacity="1"
         inkscape:showpageshadow="0"
         inkscape:pageopacity="0"
         inkscape:pagecheckerboard="0"
         inkscape:deskcolor="#d1d1d1"
         inkscape:document-units="mm"
         inkscape:zoom="1.6035354"
         inkscape:cx="252.56693"
         inkscape:cy="197.68819"
         inkscape:window-width="1872"
         inkscape:window-height="1027"
         inkscape:window-x="62"
         inkscape:window-y="25"
         inkscape:window-maximized="1"
         inkscape:current-layer="layer1" /><defs
         id="defs1" /><g
         inkscape:label="Layer 1"
         inkscape:groupmode="layer"
         id="layer1"
         transform="translate(176.88,-191.39999)"><rect
             style="fill:none;fill-opacity:0.292135;stroke-width:0.221682;stroke-linecap:round;stroke-linejoin:round;stroke-dashoffset:45.1269;paint-order:markers stroke fill"
             id="rect1"
             width="103.73135"
             height="100"
             x="-176.88"
             y="191.39999" /><path
             id="path36"
             style="fill:currentColor;fill-opacity:1;stroke:none;stroke-width:0.719533;stroke-linecap:round;stroke-linejoin:round;stroke-dasharray:none;stroke-dashoffset:45.1269;stroke-opacity:1;paint-order:markers stroke fill"
             d="M -119.69538 193.96676 C -120.44132 194.35563 -118.67799 195.13815 -118.43447 195.4938 C -108.32642 202.18666 -100.03859 211.96487 -96.407393 223.64608 C -93.466452 232.43183 -92.010676 242.65393 -96.753625 251.10797 C -99.196562 255.78294 -105.84055 260.92983 -110.38742 262.8747 C -119.76419 266.32652 -131.03111 263.75621 -137.83949 256.39344 C -139.04753 255.30244 -139.97136 258.1386 -141.48526 258.0569 C -144.05644 258.0396 -146.57075 259.5236 -148.53083 261.09548 C -150.24271 264.00236 -152.01456 266.99791 -154.99296 268.80767 C -159.02501 271.48664 -164.07734 272.98016 -166.77312 277.31516 C -168.73534 280.26494 -169.66387 284.36134 -168.18389 287.67732 C -166.54126 289.68968 -163.47297 288.54107 -161.32126 288.2225 C -155.75088 286.81907 -152.49949 281.59432 -150.28938 276.69556 C -148.53666 273.14673 -145.48736 270.54749 -142.12347 268.60458 C -141.06826 268.20009 -140.29994 266.12309 -139.42337 266.44244 C -132.4206 273.98659 -121.93914 278.35844 -111.61783 277.3596 C -106.59753 277.48817 -101.79713 275.86946 -97.388728 273.58877 C -92.234693 269.99439 -90.032007 267.92575 -87.848225 265.09472 C -82.710021 258.23821 -80.72714 249.53068 -81.178348 241.07034 C -81.501135 232.10982 -85.005763 223.46259 -89.796427 215.97937 C -96.628361 205.60334 -107.16127 197.73487 -119.0024 194.02929 C -119.23013 193.98709 -119.46296 193.94866 -119.69538 193.96676 z M -133.94102 202.32956 L -133.94102 202.33007 C -136.12802 202.34137 -138.4223 203.113 -139.77891 204.91389 C -141.29823 206.56571 -142.12434 208.73139 -142.42887 210.92903 C -142.3013 211.62309 -142.72424 212.23615 -143.39212 212.4323 C -147.16028 214.26715 -150.97037 216.0484 -154.58834 218.16735 C -156.34848 219.37781 -158.34527 220.6828 -159.14 222.76293 C -159.47276 223.81009 -159.33149 225.12019 -158.31472 225.74518 C -156.25877 227.2727 -153.65527 227.77314 -151.21387 228.35536 C -150.50988 228.55227 -149.68362 228.46973 -149.0326 228.73725 C -149.90861 230.58631 -151.30693 232.15414 -152.48459 233.82117 C -154.80835 237.05369 -157.7074 240.0284 -159.00822 243.86862 C -159.32999 245.21158 -159.31268 246.63475 -159.2263 248.00429 C -158.99415 248.72009 -158.32864 249.33503 -157.52718 249.18923 C -152.43607 249.28493 -147.33913 249.31268 -142.24852 249.19284 C -141.33697 249.24074 -140.41572 248.85337 -140.03574 247.97742 C -138.10907 244.65171 -136.58604 241.00819 -133.92758 238.17026 C -131.2182 241.12021 -129.73506 244.91856 -127.65665 248.28902 C -127.12207 249.00163 -126.2612 249.45403 -125.35705 249.26157 C -120.13766 249.21537 -114.91018 249.37062 -109.69599 249.13393 C -108.4117 248.64192 -108.50295 247.0251 -108.59786 245.90054 C -108.72969 242.64476 -110.82996 239.94661 -112.65756 237.41269 C -114.73247 234.65287 -117.02787 232.02493 -118.74763 229.02095 C -119.00618 228.57956 -118.39107 228.53912 -118.09909 228.57757 C -115.3637 228.114 -112.56463 227.5148 -110.12025 226.15136 C -109.11468 225.57335 -108.2351 224.42303 -108.65161 223.21097 C -109.27761 220.81266 -111.54662 219.36542 -113.48594 218.07691 C -117.29882 215.77442 -121.39944 213.99915 -125.36945 211.99098 C -125.55659 208.36318 -127.31658 204.47633 -130.77015 202.90937 C -131.76599 202.47577 -132.86031 202.31535 -133.94102 202.32956 z " /></g></svg>
