<?xml version="1.0" encoding="UTF-8" standalone="no"?>
<!-- Created with Inkscape (http://www.inkscape.org/) -->

<svg
     width="103.73135mm"
     height="100mm"
     viewBox="0 0 103.73135 100"
     version="1.1"
     id="svg1"
     xml:space="preserve"
     inkscape:version="1.4 (e7c3feb1, 2024-10-09)"
     sodipodi:docname="the.svg"
     xmlns:inkscape="http://www.inkscape.org/namespaces/inkscape"
     xmlns:sodipodi="http://sodipodi.sourceforge.net/DTD/sodipodi-0.dtd"
     xmlns="http://www.w3.org/2000/svg"
     xmlns:svg="http://www.w3.org/2000/svg"><sodipodi:namedview
         id="namedview1"
         pagecolor="#505050"
         bordercolor="#eeeeee"
         borderopacity="1"
         inkscape:showpageshadow="0"
         inkscape:pageopacity="0"
         inkscape:pagecheckerboard="0"
         inkscape:deskcolor="#d1d1d1"
         inkscape:document-units="mm"
         inkscape:zoom="0.80176768"
         inkscape:cx="359.2063"
         inkscape:cy="329.27244"
         inkscape:window-width="1872"
         inkscape:window-height="1027"
         inkscape:window-x="62"
         inkscape:window-y="25"
         inkscape:window-maximized="1"
         inkscape:current-layer="layer1" /><defs
         id="defs1" /><g
         inkscape:label="Layer 1"
         inkscape:groupmode="layer"
         id="layer1"
         transform="translate(176.88,-191.39999)"><rect
             style="fill:none;fill-opacity:0.292135;stroke-width:0.221682;stroke-linecap:round;stroke-linejoin:round;stroke-dashoffset:45.1269;paint-order:markers stroke fill"
             id="rect1"
             width="103.73135"
             height="100"
             x="-176.88"
             y="191.39999" /><path
             id="path28"
             style="fill:currentColor;fill-opacity:1;stroke-width:0.0623256;stroke-linecap:round;stroke-linejoin:round;stroke-dashoffset:45.1269;paint-order:markers stroke fill"
             d="m -141.93085,204.20691 c -0.37979,0.13777 -0.73561,0.36231 -1.15825,0.38516 -0.4355,0.098 -0.83295,0.34508 -1.29288,0.29872 -0.95728,0.28779 -1.88496,0.69098 -2.86871,0.9044 -0.37954,0.0479 -0.74533,0.2901 -1.11182,0.30873 -0.79383,-0.0899 -1.62364,0.1988 -2.40085,0.0344 -0.34326,-0.15002 -0.74473,0.15686 -1.09015,0.22365 -0.17749,0.0584 -0.37268,0.23342 -0.52833,0.0698 -0.0939,0.0869 -0.2203,0.0869 -0.3073,0.105 -0.11327,0.30774 -0.62165,0.25061 -0.87926,0.37486 -0.93766,0.25725 -1.89195,0.40159 -2.86043,0.48324 -1.22065,0.29039 -2.48869,0.17987 -3.72433,0.34669 -0.49631,0.12759 -0.32367,0.79298 -0.41974,1.16758 -0.0361,0.69861 -0.15448,1.49212 -0.66346,2.00931 -0.29065,0.0768 -0.18332,0.33499 -0.0503,0.50468 0.23315,0.69522 0.31615,1.4403 0.65584,2.09927 0.32963,0.89674 0.32296,1.91804 0.77952,2.76068 0.16845,0.18898 0.003,0.51341 0.21593,0.70149 0.14971,0.22276 0.0288,0.6205 0.22513,0.77707 0.18197,-0.01 0.36979,-0.20301 0.18517,-0.35254 -0.1093,-0.52086 -0.33441,-1.00828 -0.35889,-1.54826 -0.2483,-0.55475 -0.35664,-1.17105 -0.55505,-1.75086 -0.0923,-0.92291 -0.4777,-1.78648 -0.53496,-2.7131 -2.7e-4,-0.56834 0.39631,-1.05714 0.40072,-1.63566 0.0883,-0.56235 0.11565,-1.16505 0.0673,-1.71426 0.43863,0.30232 1.04316,0.10787 1.54491,0.14462 0.69204,-0.0127 1.37969,-0.10103 2.0358,-0.30075 1.1191,-0.11009 2.2379,-0.22431 3.31892,-0.5542 1.13923,-0.23504 2.26252,-0.68443 3.42852,-0.72259 0.11979,0.12488 0.27968,0.0638 0.19261,-0.10086 0.13507,-0.18861 0.0878,0.32619 0.26643,0.0679 0.75401,-0.40342 1.73068,-0.0479 2.44394,-0.55556 0.13602,-0.0624 0.26178,-0.10039 0.34753,-0.006 0.89848,0.0361 1.76878,-0.21195 2.63164,-0.41048 0.68359,0.008 1.15991,-0.54398 1.72161,-0.81664 0.35251,0.0808 0.31204,0.60395 0.56515,0.82127 0.36484,0.50669 1.05008,0.45633 1.55743,0.72483 0.2176,0.14064 0.71731,-0.0534 0.75808,0.28293 -0.12743,0.0756 -0.18526,0.22209 -0.10309,0.38589 0.12059,0.30128 0.22032,0.6158 0.24331,0.92709 0.18264,0.20712 0.008,0.51167 0.17914,0.74676 0.0808,0.2515 0.28892,0.45743 0.24724,0.72565 0.0633,0.0614 0.27927,-0.008 0.11805,0.11916 -0.43343,0.39685 -0.48797,1.02467 -0.45586,1.57116 -0.18456,0.38091 0.4976,0.48244 0.58429,0.81403 0.001,0.23725 0.36692,0.26735 0.26105,0.53953 -0.006,0.24426 -0.4036,0.26701 -0.32736,0.49884 -0.32804,-0.16342 -0.27618,-0.6617 -0.28625,-0.97661 -0.10723,-0.34333 -0.62114,0.0414 -0.44421,0.3102 -0.002,0.31719 0.18936,0.53031 0.36546,0.75283 0.14334,0.30889 0.58739,0.23932 0.84515,0.15002 0.059,-0.1373 0.16965,-0.48723 0.36136,-0.2727 0.14557,0.89056 0.19033,1.80921 0.40493,2.68352 -0.0439,0.31072 0.28956,0.54816 0.24339,0.88036 0.0794,0.27863 -0.18601,0.37756 -0.39566,0.40989 -0.10627,0.14541 -0.23949,0.24584 -0.42526,0.26726 -0.0603,0.0748 0.10993,0.38049 -0.066,0.27538 -0.21689,-0.55089 -0.54796,-1.12185 -1.13183,-1.34369 -0.20055,-0.16264 0.24205,-0.29012 0.14922,-0.50174 0.0312,-0.17574 -0.14,-0.30598 -0.23171,-0.38445 0.24163,-0.0781 -0.0751,-0.43308 0.0919,-0.5972 0.19376,-0.26364 -0.30198,-0.15368 -0.24756,-0.42816 0.18692,-0.26111 -0.14954,-0.61232 -0.14572,-0.90341 -0.12409,-0.68488 -0.31075,-1.36289 -0.4491,-2.03979 0.07,-0.42893 0.16983,-0.95576 -0.11868,-1.32555 -0.23102,-0.10532 -0.74392,0.0894 -0.68595,-0.33387 -0.0811,-0.78426 -0.44921,-1.59846 -0.15241,-2.37289 -0.10786,-0.29597 -0.34634,-0.5446 -0.45778,-0.84631 -0.14016,0.006 -0.13761,-0.0597 -0.14891,-0.20259 -0.35841,-0.25292 -0.80345,0.17136 -1.15587,0.27389 -0.24888,0.0434 -0.53659,0.24697 -0.7839,0.16565 -0.14811,-0.33869 -0.56625,-0.003 -0.83145,-0.10103 -0.36255,0.0253 -0.83083,-0.30865 -1.00819,0.17177 -0.59226,0.7857 -1.73492,0.0706 -2.44978,0.62895 -0.18268,0.18566 -0.46344,0.12282 -0.42547,-0.16555 -0.17993,-0.2589 -0.61366,-0.35356 -0.90333,-0.25607 -0.14032,0.10214 -0.10707,0.53453 0.0905,0.47818 0.0162,-0.11948 0.19333,-0.44856 0.24799,-0.16223 0.0127,0.13539 -0.0242,0.51517 -0.22629,0.3297 -0.25079,-0.12695 -0.38854,-0.42025 -0.62221,-0.5423 -0.25068,-0.0484 -0.50329,0.13299 -0.36454,0.39413 -0.16337,0.12584 -0.52134,-0.10373 -0.60432,0.20072 -0.0558,0.25249 -0.23835,0.34922 -0.47388,0.30674 -0.35953,0.003 -0.77536,0.26334 -1.08306,0.15098 -0.21851,-0.48235 -0.58451,-0.41521 -0.97896,-0.19183 -0.33471,0.0492 -0.39014,0.38986 -0.58322,0.58467 -0.30197,0.0614 0.22307,0.0601 0.17433,0.24882 0.0414,0.22856 -0.0194,0.45876 -0.0323,0.68727 -0.11359,-0.25213 -0.58472,-0.5712 -0.13729,-0.69513 -0.14684,-0.10882 -0.50187,0.0738 -0.70337,0.0463 -0.66745,0.07 -1.35909,0.0818 -1.96356,0.3905 -0.24005,0.0944 -0.5323,0.11153 -0.76457,0.14764 0.01,0.1462 -0.0461,0.27954 -0.20174,0.14239 -0.45939,-0.37762 -1.17095,-0.1929 -1.571,0.18163 -0.27615,0.11486 -0.6657,0.0993 -0.7525,0.47009 -0.0299,0.24963 0.16495,0.49568 0.12855,0.76886 0.0961,0.61262 0.50444,1.11838 0.61223,1.73403 0.26097,0.62569 0.12218,1.32882 0.45482,1.92975 0.11025,0.33071 0.0439,0.71996 0.005,1.04183 -0.22532,0.22804 -0.62462,0.46001 -0.42105,0.83976 0.0449,0.31011 0.46192,0.44819 0.34825,0.79822 -0.14048,0.4591 0.5075,0.48712 0.79464,0.38498 0.20852,0.0277 0.26952,-0.2939 0.41807,-0.27936 -0.005,0.29174 -0.18538,0.66827 -0.002,0.93542 0.17699,-0.0827 0.21856,0.081 0.06,0.14445 -0.0282,0.75616 0.59084,1.40667 0.39173,2.18631 -0.31545,0.0877 -0.93531,-0.11884 -0.65467,0.5142 0.0977,0.60473 -0.78542,0.39565 -1.0238,0.73845 0.041,0.1252 0.48171,0.0256 0.2789,0.20894 -0.18483,0.0609 0.21444,0.19332 0.24141,0.26031 0.16984,0.19974 0.30583,0.47367 0.61019,0.36465 -0.0611,0.15813 -0.45465,0.0471 -0.47839,0.31754 -0.0372,0.30663 -0.19514,0.73705 0.0264,0.99412 0.31834,0.0306 0.44353,0.305 0.40086,0.59906 0.10818,0.90734 0.41742,1.77739 0.52522,2.68716 0.19734,0.62152 0.26624,1.2679 0.39,1.90181 0.4744,0.79903 0.42914,1.76735 0.69722,2.62314 0.12775,0.13141 -0.23346,0.48022 0.12155,0.41066 0.0291,0.0953 -0.20324,0.27632 -0.008,0.38117 0.11503,0.11868 -0.0974,0.62794 0.17599,0.49963 0.11534,-0.39265 -0.11693,-0.8647 0.021,-1.22804 0.50465,0.34042 1.01544,0.76212 1.34554,1.26107 0.31213,0.1077 0.55915,0.36121 0.92277,0.29351 1.20312,-0.045 2.42725,-0.12616 3.59922,-0.39959 0.0364,-0.14318 0.1567,-0.19162 0.23926,-0.035 0.37478,0.0875 0.76581,-0.0127 1.14452,-0.0172 0.0213,0.54533 -0.10563,1.08178 -0.1497,1.61427 0.0111,0.21501 0.34683,0.46539 0.22885,0.63657 -0.15082,0.14906 0.41661,0.12647 0.24059,0.28536 -0.29279,-0.1338 -0.17673,0.22451 0.01,0.26351 0.1743,0.0842 0.19456,0.47249 0.41212,0.38545 -0.14525,0.29826 0.27601,0.24629 0.40544,0.41091 0.19484,0.18078 0.50518,0.14302 0.66381,0.33465 0.0857,-0.06 0.16855,-0.27469 0.15893,-0.0261 0.22054,0.33614 0.74034,0.31654 1.10197,0.38744 0.86144,-10e-4 1.77191,-0.0722 2.56063,-0.43528 0.67012,-0.51615 1.26679,-1.18562 1.44672,-2.03748 0.12234,-0.31106 -0.01,-0.59468 -0.19201,-0.8337 -0.19958,-0.44534 -0.71403,-0.68959 -1.07218,-1.00351 -0.18302,-0.22258 -0.42743,-0.1365 -0.57695,0.0709 -0.16217,0.0846 -0.2487,0.29537 0.01,0.28742 0.35549,0.1085 -0.10452,0.38375 -0.26092,0.43808 -0.47915,0.24901 -1.10371,0.35458 -1.51578,-0.0819 -0.39911,-0.25306 -0.32342,-0.898 0.15622,-1.00502 0.53404,-0.20866 1.07471,-0.57194 1.66033,-0.55925 0.73621,0.3118 1.28297,0.9547 2.05414,1.21193 0.48846,0.25194 1.03157,0.64349 1.59905,0.55224 -0.031,-0.10484 -0.0363,-0.1789 0.10977,-0.10468 0.19007,0.0975 0.70784,0.35197 0.76386,-0.01 0.002,-0.26302 -0.30453,-5e-5 -0.41642,-0.16981 -0.31058,-0.20593 -0.83368,-0.15225 -1.04246,-0.47013 0.41337,0.14621 0.87308,0.10755 1.2774,0.3129 0.18355,0.0143 0.4491,0.0624 0.33952,0.30243 0.55936,-0.13777 1.18245,-0.23463 1.7486,-0.41669 0.52079,-0.2022 1.1549,-0.0479 1.63432,-0.33996 1.22215,-0.27976 2.22981,-1.10206 3.3908,-1.54748 0.53376,-0.2342 0.88451,-0.72778 1.41118,-0.95981 0.36793,-0.33189 0.95946,-0.33121 1.28845,-0.69018 0.0127,-0.12648 -0.252,-0.10277 -0.0577,-0.17899 0.2989,-0.12537 -0.14445,-0.11439 -0.23659,-0.0466 -0.33904,0.1513 -0.76281,0.31519 -0.93261,0.65187 -0.52105,0.0988 -0.8276,0.62792 -1.36117,0.73403 -0.63002,0.1792 -0.99529,0.88844 -1.69419,0.86787 -0.3961,0.22179 -0.84373,0.20694 -1.22621,0.46155 -0.68404,0.26172 -1.45282,0.31899 -2.1762,0.27055 -0.18061,-0.10309 0.24888,-0.048 0.28485,-0.12457 1.19751,-0.51176 2.47066,-0.85479 3.5714,-1.57674 1.39926,-0.76389 2.70617,-1.7453 4.28199,-2.12031 1.02951,-0.32263 2.17721,-0.65548 3.24568,-0.35176 0.0111,0.003 0.0204,0.0111 0.0312,0.0143 0.30969,0.154 0.54611,0.41468 0.75129,0.67914 0.0177,0.0299 0.0391,0.0558 0.0648,0.0768 0.0111,0.0127 0.0242,0.0272 0.0345,0.0412 0.22771,0.13046 0.66465,0.19125 0.15448,0.2657 -0.19619,0.0576 -0.34513,-0.0418 -0.49172,-0.16194 -0.11375,-0.1287 -0.22506,-0.25844 -0.43045,-0.28216 -0.14477,-0.0434 -0.29735,-0.0974 -0.45283,-0.14748 -0.0301,-0.01 -0.0595,-0.0192 -0.0899,-0.027 -0.32792,-0.10102 -0.66598,-0.17284 -0.97692,-0.0816 -0.12744,0.0183 -0.25426,0.0476 -0.37899,0.0958 -0.11359,0.0684 -0.41705,-0.0127 -0.45574,0.10977 0.15956,0.0603 0.16683,0.14954 -0.0339,0.12982 -0.27534,0.0824 -0.70214,-0.0406 -0.91638,0.16738 0.0916,0.24415 -0.57051,0.3604 -0.28933,0.57577 0.65597,-0.15527 1.29545,-0.59994 1.97439,-0.62924 0.0985,0.0111 0.19954,0.0159 0.30111,0.018 0.0665,0.01 0.13284,0.017 0.20035,0.0379 0.12457,0.0165 0.2605,0.002 0.3881,0.008 0.0865,0.0177 0.17028,0.0418 0.24752,0.0813 0.0288,0.0899 0.28941,0.11518 0.32292,0.16408 9.7e-4,0.005 0.006,0.0111 0.003,0.0162 -0.001,0.005 -0.005,0.01 -0.0143,0.0165 -0.0178,0.0127 -0.0438,0.0278 -0.10086,0.0352 -0.69255,0.0894 -1.40361,0.12489 -2.08714,0.27028 -0.01,0.003 -0.0196,0.003 -0.0296,0.006 -0.0975,0.0215 -0.19614,0.0374 -0.29217,0.0643 0.0143,-0.1268 -0.10309,-0.11582 -0.23213,-0.0767 -0.17544,0.0242 -0.38275,0.15622 -0.51973,0.20039 -0.0864,0.0293 -0.16077,0.0767 -0.23465,0.12472 -0.0178,0.008 -0.0353,0.0185 -0.0527,0.0282 -0.003,0.001 -0.006,0.003 -0.01,0.006 -0.15782,0.0875 -0.2998,0.19072 -0.3873,0.32986 7.1e-4,-2.4e-4 0.002,-2.8e-4 0.002,-6.3e-4 -0.12235,0.10897 -0.24749,0.21259 -0.39636,0.27681 -0.28341,0.0636 -0.36554,0.47089 -0.65483,0.495 0.1631,0.0172 0.32314,0.18863 0.0574,0.18209 -0.43217,-0.17883 -0.80392,0.31056 -1.16053,0.48115 -0.60598,0.40543 -1.3547,0.61081 -1.92028,1.05644 0.32475,0.0781 0.6984,-0.21826 1.0242,-0.2977 1.44693,-0.50434 2.66879,-1.45348 3.99919,-2.17725 0.0485,-0.0197 0.0983,-0.0368 0.14796,-0.0543 0.29008,-0.0843 0.58528,-0.15495 0.88452,-0.20732 0.0304,-0.005 0.0605,-0.01 0.0908,-0.0143 0.0274,-0.005 0.0549,-0.008 0.0824,-0.0111 0.5067,-0.0589 1.02219,-0.0673 1.52662,-0.0816 0.36134,0.0188 0.72034,0.0654 1.07389,0.14191 0.10945,0.0293 0.21892,0.0565 0.32934,0.0783 0.0165,0.005 0.0332,0.008 0.05,0.0111 0.21876,0.0293 0.44243,0.0656 0.66657,0.0994 0.0336,0.0339 0.0681,0.0592 0.14239,0.0207 0.22617,0.0324 0.46007,0.0616 0.69602,0.0781 0.23582,0.018 0.47047,0.0216 0.70325,0.005 0.002,-1.1e-4 0.003,-1.6e-4 0.005,-2.5e-4 0.0991,-0.008 0.19733,-0.0192 0.29522,-0.0348 0.0527,-0.008 0.1042,-0.0204 0.15607,-0.0306 0.0544,-0.0127 0.10913,-0.0228 0.16313,-0.038 0.19097,-0.0517 0.3768,-0.12091 0.55212,-0.21959 0.13189,-0.0555 0.26692,-0.10373 0.40177,-0.15002 0.01,-0.005 0.0186,-0.005 0.0278,-0.01 0.01,-0.005 0.0164,-0.006 0.0247,-0.0111 0.0458,-0.0185 0.0904,-0.039 0.13316,-0.0619 0.15829,-0.0708 0.30643,-0.15877 0.4143,-0.32122 0.14127,-0.11089 0.23085,-0.26777 0.31446,-0.42872 0.0754,-0.11963 0.14063,-0.23951 0.20532,-0.36088 0.0826,-0.13093 0.17665,-0.25021 0.32048,-0.32028 0.10182,0.005 0.18861,-0.0266 0.26895,-0.0725 0.0841,-0.0283 0.15845,-0.0746 0.21397,-0.15496 0.0727,-0.057 0.14668,-0.10993 0.22826,-0.14381 0.0143,-0.003 0.0279,-0.01 0.042,-0.0127 7.4e-4,-1.9e-4 0.002,-2.6e-4 0.002,-4.5e-4 0.19562,-0.0407 0.40073,0.0242 0.6055,0.0902 0.22339,0.0897 0.44489,0.18416 0.66307,0.0404 0.0275,-0.003 0.0544,-0.002 0.0805,0.005 0.1085,0.052 0.17182,0.16517 0.24708,0.26493 0.005,0.0127 0.008,0.0255 0.0111,0.0388 0.0111,0.002 0.021,0.01 0.0321,0.0111 0.0557,0.06 0.12059,0.10913 0.22351,0.11009 0.0302,0.005 0.0619,0.008 0.0924,0.0111 0.0334,0.0162 0.0674,0.0301 0.10039,0.0495 0.25193,0.0143 0.51386,0.024 0.77492,0.0237 0.0342,3.4e-4 0.0681,6.4e-4 0.1023,9.6e-4 0.32023,-0.003 0.63679,-0.028 0.92905,-0.0951 0.49306,-0.3545 0.90505,-0.80455 1.17339,-1.3459 0.0321,-0.0514 0.0662,-0.10229 0.0972,-0.15368 0.0239,-0.0127 0.0484,-0.024 0.074,-0.0333 0.12234,-0.0317 0.25876,-0.042 0.38204,-0.0127 0.0143,0.003 0.0286,0.005 0.0422,0.01 0.008,0.002 0.0164,0.008 0.024,0.01 0.032,0.0127 0.0622,0.0293 0.0905,0.048 0.0127,0.008 0.0229,0.0159 0.0332,0.0253 0.0127,0.008 0.021,0.0205 0.0318,0.0306 0.0455,0.0515 0.0792,0.11677 0.0913,0.20193 0.006,0.0353 0.0235,0.0786 0.0414,0.12155 -0.038,0.12011 0.0232,0.18449 0.10134,0.24034 0.0436,0.10913 0.0697,0.21333 0.0127,0.28193 -0.0278,0.0371 -0.0336,0.0737 -0.0312,0.10882 -0.006,0.0414 0.01,0.0875 0.0692,0.13809 0.0616,0.0387 0.11916,0.0496 0.17338,0.042 0.06,1.9e-4 0.11502,-0.0192 0.15511,-0.0756 0.0745,-0.0603 0.14048,-0.14795 0.20251,-0.2344 0.09,-0.0969 0.16741,-0.19474 0.23435,-0.30283 0.003,-0.008 0.008,-0.0143 0.0143,-0.0228 0.0589,-0.10229 0.0998,-0.20869 0.0762,-0.32643 -0.0872,-0.0399 -0.11773,-0.0951 -0.11757,-0.15146 0.01,-0.0393 0.018,-0.0641 0.0261,-0.0891 0.0274,-0.0445 0.0729,-0.0823 0.12552,-0.11009 0.0127,-0.006 0.0239,-0.0111 0.0364,-0.0143 0.0472,-0.0186 0.0972,-0.0313 0.14589,-0.0242 0.0823,-0.005 0.15947,-0.025 0.23445,-0.0523 0.0994,-0.0199 0.19283,-0.0565 0.26967,-0.12854 0.0375,-0.0202 0.0749,-0.0404 0.11232,-0.06 0.12902,-0.0169 0.30809,0.059 0.24452,-0.12505 0.0159,-0.0751 -0.0127,-0.14254 -0.0533,-0.20716 -0.0221,-0.0463 -0.0501,-0.0899 -0.0835,-0.12903 -0.0684,-0.0924 -0.12743,-0.18166 -0.0748,-0.27906 0.0159,-7e-4 0.0385,-0.006 0.0565,-0.006 4.3e-4,0.0143 -0.002,0.0269 -8.8e-4,0.0412 0.13316,0.0218 0.34232,-0.0654 0.44951,-0.19343 0.0336,-0.0337 0.059,-0.0711 0.0608,-0.12059 0.002,-0.0127 0.008,-0.025 0.006,-0.0377 -0.005,-0.01 -0.01,-0.0167 -0.0143,-0.0251 -0.001,-0.005 2.6e-4,-0.008 -8.7e-4,-0.0127 -0.0111,-0.0215 -0.0255,-0.0355 -0.0371,-0.0547 -0.02,-0.0334 -0.0399,-0.0663 -0.0644,-0.0953 -0.003,-0.003 -0.005,-0.006 -0.008,-0.01 -0.0616,-0.0698 -0.13634,-0.11996 -0.22234,-0.13141 -0.0765,-0.0269 -0.15718,-0.0445 -0.24058,-0.0493 -0.01,-0.01 -0.0159,-0.0218 -0.0215,-0.0336 -0.0143,-0.1435 0.0652,-0.3722 0.0446,-0.53831 0.005,-0.10166 -0.0301,-0.18354 -0.1729,-0.2086 -0.01,-0.0143 -0.0205,-0.0247 -0.031,-0.038 -0.0326,-0.12918 -0.13109,-0.22535 -0.26318,-0.1753 -0.095,-0.002 -0.1897,0.0587 -0.29096,0.17625 -0.12314,0.0947 -0.23616,0.17833 -0.3106,0.14096 -0.0143,-0.0271 -0.0242,-0.0624 -0.0275,-0.11105 -0.0332,-0.098 -0.11932,-0.4311 -0.25386,-0.34048 0.002,0.0266 2.4e-4,0.0527 -0.005,0.0783 -0.0948,0.0619 -0.19148,0.18846 -0.24562,0.26391 -0.0192,0.003 -0.0387,0.008 -0.0579,0.006 0.005,0.027 0.006,0.0512 0.005,0.0732 -0.0884,0.13029 -0.20955,0.0983 -0.33439,0.0632 -0.0584,-0.0364 -0.11741,-0.0422 -0.17202,-0.0277 -0.006,0 -0.0127,-0.002 -0.0188,-0.002 -0.0183,0.006 -0.0247,0.0212 -0.0396,0.0305 -0.0242,0.0143 -0.0463,0.0304 -0.0665,0.0511 -0.01,0.0127 -0.0237,0.0235 -0.0317,0.0367 -0.0803,0.11073 -0.1007,0.26905 0.01,0.37181 0.006,0.0127 0.008,0.0255 0.0143,0.0372 -0.0649,0.24864 -0.27692,0.45251 -0.23856,0.72161 -0.14016,0.11057 -0.31942,0.15368 -0.49701,0.20117 -0.12282,0.0127 -0.23752,0.0371 -0.31416,0.11391 -0.0939,0.046 -0.17971,0.10691 -0.24826,0.19894 -0.0953,0.0751 -0.17905,0.16326 -0.26404,0.24973 -0.10723,0.0854 -0.21902,0.16537 -0.33104,0.24439 -0.01,0.005 -0.0167,0.008 -0.0261,0.0127 -0.076,0.042 -0.1427,0.1015 -0.20543,0.16747 -0.10754,0.0897 -0.20725,0.18876 -0.28811,0.31061 -0.0926,0.0829 -0.19528,0.14382 -0.32599,0.14748 -0.002,0.0143 -0.01,0.0263 -0.0164,0.038 -0.0958,0.0143 -0.19091,0.006 -0.28541,-0.024 -7.8e-4,-0.0143 -0.002,-0.0271 0.002,-0.0436 -0.0845,-0.0127 -0.16516,-0.0503 -0.24401,-0.0951 -0.0224,-0.0197 -0.0504,-0.032 -0.0703,-0.0546 -0.041,-0.0286 -0.0872,-0.0452 -0.12965,-0.0703 -0.0695,-0.0447 -0.13937,-0.0848 -0.21002,-0.1139 -0.11916,-0.0554 -0.24178,-0.10087 -0.36707,-0.14016 -0.0977,-0.0671 -0.32718,-0.0924 -0.39144,-0.1155 -0.0953,-0.0371 -0.20965,-0.0488 -0.32578,-0.0584 -0.12855,-0.0255 -0.25771,-0.0554 -0.38395,-0.0822 -0.12441,-0.12425 -0.18712,-0.28633 -0.23344,-0.45749 -0.0189,-0.11041 -0.045,-0.2199 -0.0719,-0.32934 -0.0277,-0.18392 -0.0512,-0.36881 -0.0977,-0.5343 0.0342,-0.0929 -0.003,-0.15368 -0.0558,-0.19517 -0.006,-0.062 -0.0111,-0.12425 -0.0143,-0.18708 -0.19771,-0.96769 -0.54109,-1.95022 -0.62362,-2.91259 -0.22675,0.62753 -0.33816,1.36167 -0.005,1.96897 0.0488,0.28007 0.0512,0.59315 0.30216,0.77041 0.0581,0.0982 0.23637,0.4335 0.01,0.35407 -0.0733,0.0978 -0.0429,0.19676 0.0275,0.26336 -0.002,0.19797 0.0127,0.39702 0.0401,0.59641 -0.005,0.19851 0.0229,0.40153 0.0994,0.5593 0.017,0.0218 0.0231,0.0407 0.0258,0.0582 0.001,0.003 0.001,0.01 0.003,0.0127 2e-5,0.003 -5.9e-4,0.005 -10e-4,0.008 -0.1365,0.11296 -0.33449,0.0745 -0.4041,-0.0581 -0.01,-0.0272 -0.0159,-0.0554 -0.0256,-0.0826 -0.002,-0.0278 8e-5,-0.0582 0.008,-0.0905 -0.0913,-0.2059 -0.14812,-0.42102 -0.19581,-0.63816 -0.0488,-0.24926 -0.0894,-0.50107 -0.13284,-0.75302 -0.0127,-0.0208 -0.0245,-0.0426 -0.036,-0.0643 -0.003,-0.0172 -0.006,-0.035 -0.01,-0.052 -0.0127,-0.008 -0.0186,-0.0207 -0.0283,-0.0305 -0.0554,-0.13348 -0.083,-0.27849 -0.10277,-0.42703 -9.2e-4,-0.0969 -0.01,-0.18942 -0.0336,-0.27402 -0.0339,-0.28635 -0.0837,-0.56603 -0.29091,-0.77918 -0.28164,-0.26654 -0.25028,-0.74626 -0.59933,-0.98241 -0.23435,-0.29319 -0.53872,-0.5053 -0.8769,-0.6334 -0.0271,-0.0127 -0.0527,-0.0325 -0.0799,-0.0446 -0.0334,-0.008 -0.0697,-0.01 -0.10389,-0.017 -0.19807,-0.0547 -0.40509,-0.0802 -0.61581,-0.0764 -0.22083,-0.022 -0.4385,-0.0519 -0.63725,-0.13571 -0.008,-0.0344 0.008,-0.0768 0.0579,-0.12965 0.78487,-0.33193 1.74167,-0.26581 2.50425,0.10802 0.83426,-0.39669 1.5241,-1.0752 2.45742,-1.25678 0.48338,-0.19207 1.16553,-0.19853 1.46999,0.29032 0.27171,0.18725 0.43647,0.54773 0.70439,0.70892 0.13984,-0.25608 -0.22974,-0.53121 -0.33496,-0.75782 -0.38508,-0.44286 -0.97753,-0.70099 -1.54109,-0.82008 -0.0675,-0.003 -0.13507,0.002 -0.20233,0.005 -0.56382,0.0692 -1.23578,0.16651 -1.62328,0.61761 -0.0465,0.26499 -0.47978,0.11263 -0.59145,0.36679 -0.0605,0.14923 -0.11661,0.31192 -0.32849,0.23808 -0.58981,-0.0251 -1.03623,-0.78745 -1.64641,-0.5561 -0.34303,0.35676 -0.89722,0.20073 -1.31892,0.42576 -0.26277,0.0402 -0.27759,0.36699 -0.56863,0.32165 -0.42862,-0.0458 -0.86849,0.40237 -0.67098,0.81791 -0.0542,0.17779 0.0299,0.35966 0.18294,0.14207 0.0111,0.0827 -0.0358,0.49517 0.1742,0.31048 0.16911,-0.47485 0.57672,-0.92947 1.08978,-0.98023 -0.0646,0.0538 -0.10706,0.12234 -0.14222,0.19367 -0.0878,0.0834 -0.17717,0.1646 -0.27122,0.24184 -0.0861,0.002 -0.16133,0.0261 -0.18984,0.13125 -0.0271,0.0159 -0.0517,0.0348 -0.0807,0.0484 -0.0337,0.0659 -0.0754,0.13268 -0.11693,0.19792 -0.0471,0.0652 -0.087,0.13427 -0.12123,0.20512 -0.0127,0.0205 -0.0202,0.0409 -0.0299,0.0617 -0.01,0.0207 -0.0127,0.0423 -0.0213,0.0632 -0.0359,0.0923 -0.0622,0.18716 -0.0517,0.29138 -8e-4,0.071 0.005,0.14334 0.022,0.21762 -0.005,0.0162 -0.01,0.0221 -0.0161,0.0296 -0.01,0.006 -0.0185,0.01 -0.0272,0.0127 -0.042,-0.005 -0.0996,-0.0808 -0.14636,-0.16741 -0.0191,-0.0471 -0.0361,-0.0921 -0.05,-0.13665 -0.005,-0.0226 -0.0188,-0.0504 -0.0165,-0.0676 -0.003,-0.003 -0.005,-0.003 -0.006,-0.005 -0.005,-0.01 -0.008,-0.0242 -0.01,-0.031 -0.15289,-0.18472 -0.15829,0.0678 -0.10357,0.20559 0.0127,0.0606 0.0301,0.11757 0.0566,0.14175 0.0764,0.11979 0.15209,0.29794 0.25012,0.43707 9.9e-4,0.002 10e-4,0.003 0.003,0.005 0.035,0.0488 0.073,0.0896 0.11582,0.12202 0.0369,0.0291 0.0764,0.0525 0.12107,0.0643 0.003,3.7e-4 0.003,0.003 0.006,0.003 6e-5,-1.6e-4 6e-5,-5.3e-4 1.1e-4,-7.2e-4 3.8e-4,8e-5 5.9e-4,3.3e-4 9.4e-4,4.9e-4 0.0781,-0.18266 0.0869,-0.40181 0.10198,-0.61798 0.0345,-0.36066 0.0913,-0.71166 0.48142,-0.84126 0.63512,-0.33596 1.35554,-0.21787 1.94718,0.13316 0.17214,0.1198 0.3494,0.25192 0.51482,0.39725 0.0573,0.0566 0.11614,0.11216 0.16741,0.17338 0.0743,0.0636 0.13666,0.13443 0.19349,0.20807 0.0111,0.0127 0.0218,0.0271 0.0318,0.0409 0.15337,0.21434 0.239,0.46411 0.28557,0.72581 6.8e-4,0.0162 0.003,0.0323 0.003,0.0489 0.003,0.0161 0.008,0.0288 0.0143,0.0425 9.1e-4,0.006 0.003,0.0111 0.003,0.0178 0.001,0.005 0.005,0.005 0.008,0.01 0.0345,0.0759 0.088,0.12043 0.12154,0.0999 0.0431,0.0192 0.0684,0.0541 0.0542,0.13984 -0.0111,0.0127 -0.022,0.0231 -0.0347,0.0334 0.0111,0.0263 0.0253,0.0515 0.0393,0.0768 0.003,0.0937 0.006,0.18703 0.0189,0.27851 -0.0111,0.0111 -0.0242,0.0216 -0.0417,0.0326 -0.0229,0.074 0.0169,0.10134 0.0683,0.11725 0.0212,0.11964 0.0414,0.23983 0.0628,0.35999 -0.0226,0.26091 0.0169,0.5236 0.0706,0.78659 0.0463,0.38595 0.21212,0.78379 0.10325,1.14659 -0.0816,0.0423 -0.15877,0.0999 -0.23945,0.14875 -0.0738,0.0379 -0.1454,0.0835 -0.21548,0.1338 -0.0888,0.0608 -0.1762,0.11931 -0.25907,0.18585 -0.0641,0.0433 -0.12934,0.0835 -0.19741,0.11359 -0.14493,0.29123 -0.54018,0.32491 -0.72286,0.60136 -0.11009,0.0934 -0.2195,0.18812 -0.33051,0.28036 -0.15718,0.0985 -0.32176,0.18576 -0.45816,0.31883 -0.154,0.0823 -0.31931,0.14334 -0.50578,0.16485 -0.14971,0.0229 -0.45995,0.0776 -0.28027,0.23538 -0.16746,0.16722 -0.25898,-0.0334 -0.32224,-0.17058 -5.2e-4,-0.006 -0.003,-0.0143 -0.003,-0.02 -0.003,-0.001 -0.006,-0.003 -0.01,-0.003 -0.005,-0.008 -0.01,-0.0185 -0.0143,-0.0255 -0.063,-0.0143 -0.12266,-0.038 -0.18215,-0.0617 -0.0619,-0.0277 -0.12329,-0.0547 -0.18602,-0.0826 -0.17917,-0.0896 -0.35455,-0.18968 -0.54994,-0.23817 -0.11423,-0.10595 -0.23157,-0.21596 -0.35236,-0.32177 -0.0789,-0.13523 -0.16169,-0.26683 -0.34723,-0.30535 -0.0616,-0.0307 -0.12393,-0.0409 -0.18632,-0.045 -0.15686,-0.0681 -0.32216,-0.11598 -0.51076,-0.10484 -0.9931,-0.11995 -2.00191,0.10373 -2.98733,0.002 -0.39426,-0.32772 -0.0554,-0.89348 0.0749,-1.27702 0.21935,-0.53112 0.88486,-0.5314 1.36433,-0.59558 0.34338,0.0625 0.7261,0.46446 1.06515,0.258 0.17317,-0.4533 -0.34677,-0.74599 -0.62495,-1.0083 -0.19662,-0.25364 -0.82061,-0.21681 -0.70589,-0.65082 0.10771,-0.26693 0.45153,-0.80344 -4.4e-4,-0.94559 -0.30168,-0.0549 0.19439,-0.17948 0.26361,-0.22602 0.17257,-0.0431 0.27168,-0.17296 0.25752,-0.32857 0.40108,-0.13045 0.46768,-0.67447 0.6124,-1.02058 0.0269,-0.59184 -0.0727,-1.22831 -0.33666,-1.75872 -0.2861,-0.0727 -0.48052,-0.39847 -0.81415,-0.33259 -0.42873,-0.0514 -0.8459,0.22056 -0.85638,0.67385 -0.0306,0.28851 0.28695,0.19915 0.37337,0.008 0.21565,-0.15082 0.76616,-0.44375 0.80986,0.0259 0.0835,0.26538 0.16999,0.62982 -0.0729,0.82156 0.006,0.14525 0.0964,0.29925 -0.0814,0.35881 -0.0967,0.35665 -0.61705,0.35296 -0.9202,0.41131 -0.45127,0.0676 -0.63071,-0.48963 -0.76366,-0.82359 -0.18428,-1.85956 1.18062,-3.52377 0.82906,-5.40073 -0.21287,-1.11212 -0.80133,-2.29626 -1.85441,-2.81588 -0.13141,0.0202 -0.20716,0.0143 -0.28128,-0.0831 -0.15224,0.035 -0.26305,0.0318 -0.37453,-0.0609 -0.2309,-0.0534 -0.52143,-0.003 -0.57479,0.25735 -0.4046,0.20492 -0.90723,0.23141 -1.25458,0.57051 -0.48034,0.31713 -0.83033,0.88133 -1.29204,1.16433 -0.2613,-0.83312 -0.27153,-1.73559 -0.47151,-2.58898 -0.1015,-0.68061 -0.0907,-1.5171 -0.63249,-2.01496 -0.42153,-0.13284 -0.67599,0.38753 -0.71702,0.73116 -0.13873,0.33815 -0.61619,0.46986 -0.66872,0.83158 -0.3363,0.16485 -0.83674,0.55351 -0.57989,0.97026 0.35509,0.16048 0.70501,-0.26593 1.02089,-0.36283 0.18121,0.59197 0.13506,1.25237 0.31475,1.83165 -0.23706,0.1435 0.13491,0.30489 0.0729,0.50807 0.13013,0.36576 0.0479,0.87479 0.31835,1.165 0.29112,-0.11455 -0.002,0.3371 0.19177,0.44607 0.21676,0.59587 0.0159,1.30748 0.32758,1.86365 0.26697,0.0334 0.10643,0.43934 0.16585,0.62774 -0.074,0.15336 0.1643,0.65066 -0.11565,0.64993 -0.18022,-0.11328 -0.16815,0.1015 -0.28242,0.11454 -0.28318,-0.01 -0.18324,0.47393 -0.2132,0.65523 0.0224,0.19869 -0.0555,0.60486 0.24957,0.56248 0.5715,0.48406 1.31849,-0.0341 1.95972,-0.0506 0.39998,-0.0535 1.1262,-0.10484 1.05111,-0.67776 -0.0796,-0.3239 0.23228,-1.06202 -0.34071,-0.89071 -0.27227,-0.046 -0.8078,0.21503 -0.855,-0.22847 -0.0436,-0.71424 -0.3104,-1.38795 -0.526,-2.05494 0.006,-0.34484 -0.15193,-0.70351 -0.12648,-1.03446 0.28158,-0.0302 0.30948,-0.42859 0.61684,-0.42288 0.37969,-0.20322 0.80387,-0.36136 1.16286,-0.58232 -0.0789,-0.30254 0.35331,-0.34694 0.57015,-0.35436 0.34067,-0.0891 0.51379,0.25678 0.82074,0.26763 0.53852,0.41436 0.53267,1.20844 0.58523,1.82751 -0.0372,0.94756 -0.50947,1.81786 -0.53149,2.77347 -0.18728,0.72459 -0.28331,1.50149 -0.0512,2.22864 -0.10802,0.38067 0.0393,0.80513 0.35988,1.03842 0.1303,0.12616 0.20991,0.37402 0.45056,0.32626 0.24053,0.09 0.63048,0.16685 0.74664,0.39367 -0.2254,0.0775 -0.48705,0.11216 -0.7041,0.18644 -0.13204,-0.0975 -0.26994,-0.27469 -0.42967,-0.22252 0.008,-0.25304 -0.41288,-0.14812 -0.52363,-0.34975 -0.15034,-0.10738 -0.42155,-0.3789 -0.51135,-0.0881 -0.0969,0.0811 -0.47922,0.0239 -0.2537,0.19456 0.0865,0.20015 0.035,0.56258 -0.2355,0.52518 -0.19351,0.21475 -0.6159,0.001 -0.87668,0.13363 -0.29129,0.0721 -0.45713,0.48502 -0.36433,0.73247 0.29495,3e-4 -0.1513,0.2344 -0.23412,0.26223 -0.11629,0.0849 -0.6957,0.20085 -0.35895,0.38121 0.18238,0.18018 0.592,0.26398 0.65475,0.51061 -0.19791,0.005 -0.11137,0.28416 -0.29364,0.35815 -0.0962,0.13761 -0.586,0.45635 -0.22824,0.57223 0.33569,-0.0396 0.69607,0.0851 1.02015,-0.0164 0.34693,0.0689 0.70076,0.15178 1.04909,0.21956 0.3355,0.46067 0.53058,0.98695 0.60193,1.5459 0.11041,0.24524 -0.3119,0.13729 -0.40057,0.29131 -0.51204,0.31002 -0.99591,0.6816 -1.58223,0.82833 -0.64127,0.25429 -1.10485,0.83195 -1.7465,1.06239 -0.70278,0.005 -1.21226,0.66258 -1.89584,0.78583 -0.5163,0.0703 -0.92657,0.46545 -1.45725,0.43414 -0.54293,0.17953 -1.12281,0.26463 -1.66233,0.0294 -0.39272,-0.27959 -0.92322,-0.31304 -1.30679,-0.58967 0.60399,-0.0972 1.25411,-0.20833 1.85347,-0.40367 0.82443,-0.31325 1.68553,-0.48451 2.55965,-0.57321 0.16289,-0.0598 0.15495,-0.26087 0.26577,-0.36896 0.0501,-0.43896 0.0996,-0.9134 0.49272,-1.19664 0.1683,-0.26167 0.56291,-0.31875 0.68247,-0.59656 -0.0643,-0.15463 0.14461,-0.26848 0.01,-0.42292 -0.10054,-0.62838 -0.17831,-1.27288 -0.32152,-1.88705 -0.049,-0.53596 -0.25033,-1.06718 -0.33006,-1.60772 -0.36601,-1.00095 -0.4866,-2.05899 -0.65644,-3.10373 -0.19435,-0.88868 -0.32506,-1.8084 -0.69551,-2.63891 -0.17573,-1.08092 -0.46023,-2.13932 -0.5641,-3.23273 -0.1276,-0.47057 -0.22959,-0.9336 -0.30143,-1.41856 -0.24069,-0.5683 -0.24578,-1.2098 -0.49191,-1.76902 -0.25042,-0.40394 -0.22001,-0.93748 -0.49254,-1.34022 -0.043,-0.32865 -0.23676,-0.81578 0.0307,-1.0841 0.32757,-0.11614 0.88238,-0.12664 1.05203,0.2189 -0.0759,0.19398 -0.25688,0.5783 -0.4952,0.50219 -0.0504,-0.21565 -0.37582,-0.47812 -0.51212,-0.18817 -0.0511,0.36199 0.32521,0.70348 0.68322,0.54574 0.39296,0.006 0.93024,-0.21339 0.83502,-0.69341 -0.25248,-0.0967 0.16075,-0.33718 -0.01,-0.52182 -0.31235,-0.46449 -0.91105,-0.74279 -1.45974,-0.52803 -0.37187,-0.0433 -0.30892,-0.77662 -0.48177,-1.12517 -0.25911,-0.7108 -0.18227,-1.50604 -0.46303,-2.2015 -0.57662,-0.66042 -1.65047,-0.17426 -2.2346,-0.85061 -0.3048,-0.18375 -0.25325,-0.57007 -0.45662,-0.80605 -0.0821,-0.0665 -0.19229,-0.091 -0.29598,-0.0792 z m 0.0474,2.15462 c 0.19355,-0.0369 0.30423,0.22112 0.0465,0.19877 -0.23192,-0.0226 -0.0795,0.11438 0.003,0.16111 -0.28998,0.0476 -0.0547,0.49954 0.18599,0.44626 0.14143,0.0406 0.63719,0.031 0.36037,0.27392 -0.21744,0.30226 -0.56776,0.62663 -0.57777,1.00781 -0.52041,0.3626 -0.75769,0.99428 -1.2308,1.39781 -0.12313,0.11598 -0.34307,0.1015 -0.2527,-0.11025 0.11837,-0.45948 0.46948,-0.82789 0.51904,-1.30718 0.22167,-0.39729 0.55845,-0.73798 0.64275,-1.20288 0.26508,-0.23426 -0.14445,-0.52407 0.1023,-0.75326 0.0512,-0.0585 0.12154,-0.10532 0.20055,-0.11216 z m -12.07071,0.77677 c 0.147,0.13984 -0.3778,0.14064 -0.10611,0.0263 0.0325,-0.0162 0.0687,-0.0324 0.10611,-0.0263 z m 9.41507,-0.4611 c 0.39631,-0.0368 0.22182,0.54106 0.26565,0.76969 -0.0687,0.80874 0.30214,1.61383 0.12043,2.41073 -0.0873,0.30387 -0.61261,0.45644 -0.69823,0.066 -0.22787,-0.28605 -0.22561,-0.74378 -0.18973,-1.08592 -0.0186,-0.6439 -0.17408,-1.33601 0.0576,-1.96258 0.11661,-0.11709 0.28455,-0.17667 0.44394,-0.19789 z m -5.1585,0.43072 c 0.22295,0.0406 0.30423,0.52274 -0.008,0.36371 -0.0743,-0.0741 -0.10469,-0.32076 0.008,-0.36371 z m 6.90544,-0.13873 c 0.18296,-0.005 0.41137,0.0243 0.27231,0.21975 -0.31054,0.22917 -0.42783,0.62596 -0.69814,0.87886 -0.18261,0.0167 0.0111,0.31419 -0.21617,0.35169 -0.20039,0.14286 -0.5148,0.0983 -0.44416,-0.20955 -0.0724,-0.19759 0.19263,-0.39509 0.25402,-0.13205 0.003,0.20521 0.2383,0.25189 0.23084,0.0162 0.13491,-0.37813 -0.36806,-0.22898 -0.51631,-0.41004 -0.12091,-0.27324 -0.0127,-0.67141 0.34661,-0.65499 0.20448,-0.0326 0.41207,-0.0398 0.61848,-0.0509 0.0358,-0.005 0.0915,-0.008 0.15256,-0.01 z m -5.55935,0.52754 c 0.28411,0.12998 -0.0159,0.71437 -0.28466,0.4806 -0.13872,-0.16806 0.12664,-0.44246 0.28466,-0.4806 z m 2.66987,-0.1217 c 0.15686,0.0159 0.26897,0.13141 0.21095,0.33181 0.0306,0.28546 -0.23531,0.16135 -0.39756,0.13682 -0.18012,0.081 -0.48246,-0.24745 -0.34515,-0.38576 0.1163,-0.0425 0.24168,-0.0539 0.36435,-0.063 0.0579,-0.0177 0.11518,-0.0247 0.16738,-0.0207 z m -1.3988,0.12139 c 0.16803,0.0461 0.32203,0.17375 0.47363,0.2429 0.17113,0.6589 0.73441,1.09881 1.01829,1.69787 0.0186,0.15928 0.31025,0.57953 -0.0511,0.53171 -0.50265,0.0859 -0.78632,-0.47593 -0.92688,-0.86863 -0.1633,-0.48144 -0.57228,-0.82099 -0.80114,-1.24843 -0.0409,-0.17748 0.12186,-0.33323 0.28708,-0.35541 z m -2.02234,0.31239 c 0.26783,0.1822 0.25841,0.62718 0.11948,0.88505 0.10595,0.14175 0.2341,0.57247 -0.0743,0.52118 -0.2718,0.0216 -0.4742,-0.17274 -0.39379,-0.44945 -0.057,-0.23486 -0.3263,-0.53302 -0.0702,-0.74807 0.12568,-0.0869 0.26878,-0.17726 0.41907,-0.20871 z m -1.01504,0.16467 c 0.32906,0.0328 -0.15654,0.28681 -0.0951,0.0391 0.0245,-0.0255 0.0608,-0.0369 0.0951,-0.0391 z m 2.36764,-0.041 c 0.0377,0.26346 0.42584,0.43738 0.2048,0.73098 -0.0826,0.29482 -0.23418,0.50514 -0.49223,0.65311 -0.15336,0.25529 -0.59617,0.26075 -0.52262,0.63574 0.0277,0.19118 0.0702,0.45544 -0.20187,0.45657 -0.3997,0.0274 -0.8372,0.2499 -1.22103,0.19019 0.006,-0.29718 -0.13555,-0.67894 -0.50294,-0.62694 -0.1708,-0.0499 -0.56268,0.17541 -0.62614,-0.0399 0.2079,-0.27586 0.5392,-0.72042 0.9301,-0.46887 0.24545,0.0756 0.47166,-0.26247 0.67025,-0.0474 0.58041,0.0708 1.20253,-0.126 1.66329,-0.47239 0.38102,-0.27395 -0.25433,-0.4983 -0.19215,-0.77707 0.084,-0.0815 0.17312,-0.20909 0.29048,-0.23418 z m -5.22778,0.37138 c 0.44561,-0.0676 0.30622,0.5162 0.37849,0.77393 -0.005,0.37905 0.11105,0.79478 0.13618,1.14788 -0.23173,0.14589 -0.4524,-0.0242 -0.38958,-0.29259 -0.0554,-0.5318 -0.27045,-1.06532 -0.28081,-1.59102 0.039,-0.0412 0.10612,-0.0296 0.15575,-0.0382 z m 1.85044,0.0638 c 0.0939,-0.0143 0.59656,-0.0581 0.34749,0.12552 -0.31783,0.10643 -0.73187,0.0593 -0.90287,0.43235 -0.0894,0.066 -0.3622,0.5419 -0.0686,0.42114 0.11486,-0.14907 0.56757,-0.33594 0.45661,0.0161 -0.18114,0.32734 -0.45449,0.60615 -0.57954,0.96346 -0.29527,0.20141 -0.31393,-0.35976 -0.28584,-0.52449 0.074,-0.41271 -0.01,-0.86949 0.095,-1.26067 0.26877,-0.16102 0.6353,-0.13332 0.93782,-0.17418 z m 2.52449,-0.14286 c 0.24974,-0.01 0.53566,0.44359 0.23191,0.54611 -0.21498,-0.0232 -0.61059,-0.46175 -0.23191,-0.54611 z m 3.16302,-0.098 c 0.10818,0.0428 0.0659,0.22686 -0.0463,0.33881 -0.13109,0.21708 -0.39865,-0.20416 -0.32034,-0.294 0.0641,-0.0207 0.13618,-0.0278 0.20522,-0.0325 0.0725,-0.0251 0.12537,-0.0266 0.16145,-0.0127 z m -4.40481,0.61604 c 0.34961,0.0932 -0.23175,0.36109 -0.20429,0.0907 0.0476,-0.0608 0.12966,-0.088 0.20429,-0.0907 z m -4.95957,0.36336 c 0.13284,0.0665 -0.2103,0.30923 -0.253,0.40183 -0.25778,0.17397 -0.10421,0.38976 0.1077,0.50798 0.17879,0.24699 1.0204,0.58011 0.71075,0.72602 -0.59694,0.15496 -1.48557,0.44 -1.43402,1.21174 2.2e-4,0.46149 -0.18504,0.92874 0.0695,1.36808 0.32614,1.53759 0.36215,3.12547 0.68732,4.66701 0.0916,0.59407 0.31665,1.13426 0.35862,1.73483 -0.0328,0.1777 0.33127,0.55821 0.36712,0.22344 0.0659,-0.24544 0.53837,-0.0242 0.53335,-0.3619 0.12297,-0.31991 0.34995,-0.59124 0.48578,-0.91238 0.46408,-0.70933 1.31464,-0.99282 1.87906,-1.58656 0.21218,-0.35216 0.62944,-0.53072 0.96313,-0.74378 0.36433,-0.0744 0.21312,0.48862 0.26781,0.68859 0.0369,0.54167 0.34122,1.02031 0.38072,1.55522 0.45764,1.2504 1.04904,2.64515 0.57813,3.97867 -0.2568,0.66328 -1.18612,0.26412 -1.61839,0.73627 -0.3255,0.22059 0.14064,0.50309 0.0789,0.78155 0.19185,0.30833 -0.0477,0.67837 0.0374,1.02241 0.0248,0.32495 -0.0232,0.67016 -0.12982,0.95837 0.21518,0.0552 -0.003,0.39275 0.26358,0.4018 0.22489,0.0552 0.22083,0.37337 0.49887,0.37567 1.25392,0.0908 2.50879,-0.20587 3.75797,-0.30302 0.61888,-0.0727 1.2846,-0.0993 1.78499,-0.51565 0.79936,-0.23032 1.70728,-0.006 2.44816,-0.45123 0.39553,-0.0391 1.07064,-0.13698 0.9816,-0.68474 0.0431,-0.20485 0.18725,-0.38058 0.13666,-0.62464 -0.0347,-0.8095 -0.30595,-1.5908 -0.30666,-2.40923 0.0794,-0.36469 -0.22671,-0.58249 -0.38354,-0.84276 0.29364,-0.20669 0.0509,-0.57234 -0.057,-0.81002 -0.21191,-0.0614 -0.58372,-0.1979 -0.74801,-0.0111 0.0218,0.13204 0.40089,0.33546 0.0791,0.37564 -0.26564,0.11789 -0.43044,-0.1287 -0.32751,-0.36524 0.0212,-0.2068 0.38562,-0.37416 0.12712,-0.54027 0.34004,-0.60807 1.12995,-0.69102 1.7606,-0.7043 0.2197,-0.0638 0.61296,-0.24277 0.57597,-0.49875 -0.0807,-0.11407 -0.5498,0.008 -0.30054,-0.12855 0.31121,-0.23435 0.35253,-0.93187 -0.14541,-0.92216 -0.21679,-0.38459 -0.68803,-0.0813 -0.99635,0.0143 -0.39053,0.0429 -0.79864,0.0216 -1.14392,0.24245 -0.28455,0.0563 -0.73616,-0.0477 -0.82832,-0.337 0.39746,-0.078 0.58851,-0.66255 0.25086,-0.94256 -0.23789,-0.36713 -0.82937,-0.26202 -0.92169,0.16913 -0.18741,0.3373 -0.0321,0.68682 0.0366,1.01359 -0.0549,0.24282 0.20516,0.51541 0.29067,0.64737 -0.33507,-0.0455 -0.11136,0.3587 -0.27163,0.45185 -0.18667,0.40929 0.0676,0.94259 0.54129,0.97525 0.29909,0.36671 -0.0587,1.05434 0.44929,1.31934 0.38425,0.29739 0.8899,0.34982 1.34296,0.4031 -0.1373,0.28741 -0.63064,0.27865 -0.77022,0.5726 -0.11805,-0.0449 0.0388,-0.33489 -0.20706,-0.26486 -0.45153,-0.0484 -1.05381,0.33675 -1.30417,-0.19592 -0.55887,-0.73445 -0.53117,-1.73726 -0.82493,-2.58643 -0.28436,-1.09464 -0.44816,-2.21623 -0.58135,-3.33838 1.07329,-0.20606 2.00624,0.45942 2.92654,0.88449 0.27808,0.055 0.57403,0.0127 0.8467,-0.0127 -0.0286,-0.33592 -0.10993,-0.74915 0.21211,-0.96816 0.15241,-0.4812 -0.0942,-1.00941 -0.23817,-1.46886 -0.0713,-0.0237 -0.19718,-0.16006 -0.0549,-0.19598 0.31763,0.0865 0.5802,0.63022 0.9375,0.29509 0.2969,-0.2009 0.48841,-0.60769 0.81224,-0.73189 0.18528,0.32131 0.13029,0.74468 0.27718,1.06072 0.12711,-0.0582 0.30647,0.0433 0.10293,0.119 -0.30995,0.34675 0.13841,0.85892 0.0461,1.23901 -0.24716,0.0457 -0.59212,-0.37353 -0.77845,-0.11344 0.0384,0.12871 0.0614,0.24651 -0.0561,0.3032 0.36845,0.3797 0.41213,0.94345 0.68225,1.37789 0.17618,0.11375 0.18067,-0.46212 0.25759,-0.12154 0.14397,0.25502 0.0382,0.476 -0.0873,0.69748 -0.10723,0.45225 -0.0807,0.93482 -0.34254,1.34345 -0.18175,0.27125 0.0468,0.57271 0.353,0.55084 0.22637,-0.002 0.28923,0.29441 0.53956,0.14684 0.16536,-0.0675 0.58556,0.0675 0.44201,0.27936 -0.18394,-0.0639 -0.16799,0.07 -0.0283,0.16081 0.11741,0.19796 0.40025,0.21544 0.51257,0.38067 0.0215,0.29597 0.17909,0.5826 0.0159,0.87714 -0.0306,0.28746 -0.13046,0.76936 0.15963,0.94564 0.0912,-0.10182 0.29406,-0.26343 0.33867,-0.0224 0.0842,0.57686 0.31307,1.12752 0.43481,1.68865 -0.0932,0.10484 -0.32634,0.0745 -0.3245,0.29215 -0.11088,0.20216 0.24239,0.33559 -0.0361,0.47358 -0.18518,0.24468 0.15479,0.39378 0.33428,0.47043 0.11311,0.41935 0.67298,0.13952 0.92258,0.084 0.0716,0.26831 -0.11964,0.53803 -0.40344,0.44867 -0.23451,0.20438 -0.55377,0.0472 -0.81554,0.0452 -0.37133,0.0339 -0.54838,-0.47624 -0.71573,-0.73842 -0.2457,-0.39639 -0.27596,-0.86876 -0.10086,-1.29493 0.0939,-0.57019 0.18395,-1.23314 -0.26788,-1.68532 -0.28539,-0.46597 -0.5592,-1.15189 -1.22223,-1.10986 -0.36848,-0.0584 -0.85149,-0.0127 -0.93984,0.43343 -0.13077,0.17145 0.0711,0.41769 -0.0815,0.53408 0.0286,0.31006 0.35162,0.49911 0.46246,0.73437 0.005,0.30786 0.4343,0.4179 0.65558,0.2255 0.38994,-0.11598 0.32198,0.48594 0.33057,0.71485 0.0143,0.33012 -0.37358,0.4893 -0.28639,0.8389 -0.0531,0.66318 0.32659,1.23341 0.83988,1.61478 0.50451,0.46415 1.27396,0.29558 1.89263,0.2457 0.1866,-0.14525 0.41415,-0.0541 0.41144,0.19363 0.017,0.29895 0.17718,0.6138 0.16635,0.89805 -0.55182,0.31334 -1.25944,-0.0218 -1.82456,0.27023 -0.23106,-0.0679 -0.28487,-0.461 -0.0818,-0.57954 0.18266,-0.41159 -0.32889,-0.78945 -0.69179,-0.82725 -0.49137,0.1513 -0.81461,0.64551 -1.0853,1.05601 -0.0646,0.22304 -0.01,0.47309 -0.15336,0.65978 0.0797,0.11518 -0.12536,0.46696 -0.18941,0.20524 -0.0646,-0.32812 -0.29804,-0.60604 -0.40643,-0.89334 0.008,-0.27429 -0.4602,-0.20724 -0.62663,-0.1112 -0.2705,0.046 -0.65534,0.0867 -0.65096,0.45298 -0.0896,0.2365 0.18227,0.69508 -0.12139,0.81355 -0.36504,-0.16151 -0.72691,-0.55656 -1.17074,-0.38831 -0.31446,0.14478 -0.38029,0.5281 -0.6162,0.73067 -0.18507,0.10643 -0.32934,-0.0385 -0.37173,-0.20432 -0.23826,-0.23106 -0.56952,-0.34183 -0.85799,-0.48382 -0.15193,0.26181 -0.43615,0.441 -0.61191,0.6601 -0.0205,0.19547 0.21572,0.44941 0.11247,0.60325 -0.24806,0.01 -0.59264,-0.15495 -0.70274,0.16278 -0.25041,0.0143 -0.0175,-0.32545 0.0861,-0.38668 -0.0889,-0.0896 -0.22689,-0.23926 -0.0231,-0.23743 0.0286,-0.16448 0.10722,-0.59792 -0.1373,-0.61024 -0.16173,0.0597 -0.40837,0.5387 -0.57131,0.24987 -0.0447,-0.22243 -0.003,-0.6811 -0.37949,-0.57236 -0.18706,0.0929 -0.26433,-0.0528 -0.33816,-0.17148 -0.29674,-0.0215 -0.59145,-0.0587 -0.88017,-0.12584 -0.22823,-0.0143 -0.43086,0.18732 -0.36525,0.38476 -0.40876,-0.13141 -0.47465,0.0221 -0.32251,0.42022 0.10452,0.21735 -0.0347,0.36279 -0.264,0.31969 -0.44954,0.0431 -0.26776,0.64907 -0.11343,0.89496 0.24454,0.24837 -0.31489,0.20394 -0.43013,0.2359 -0.19551,-0.0479 -0.18991,0.28838 -0.32871,0.23614 -0.0862,-0.2451 -0.0404,-0.63059 -0.40694,-0.65168 -0.52762,-0.38979 -1.35436,-0.0506 -1.54965,0.53207 0.003,0.15814 0.39404,0.49848 0.053,0.50363 -0.45785,0.0822 -0.92151,0.12521 -1.38259,0.18468 -0.0937,-0.42575 -0.0797,-0.95911 -0.32524,-1.3136 0.38294,-0.23418 1.04208,-0.0286 1.25215,-0.54884 -0.006,-0.22406 0.21108,-0.2647 0.26569,-0.43126 0.0577,-0.48862 0.2954,-0.96958 0.1338,-1.47569 -0.0608,-0.6204 -0.41507,-1.24722 -0.30678,-1.86855 0.37492,-0.22312 0.75576,0.13921 1.07996,0.26053 -0.0355,0.22001 -0.28264,0.12727 -0.40229,0.0439 -0.29679,-0.0883 -0.33077,0.28757 -0.0862,0.36821 0.32201,0.0395 0.81966,0.12791 1.04702,-0.15654 0.12202,-0.62833 -2.6e-4,-1.37459 -0.58649,-1.73949 -0.34875,-0.33877 -0.93379,-0.67475 -1.3563,-0.24472 -0.25442,0.30794 -0.71041,0.40175 -0.78758,0.8558 -0.27222,0.85988 0.27812,1.71211 0.5019,2.51925 0.041,0.27884 0.50186,0.66995 0.16426,0.91188 -0.26509,0.0843 -0.60666,0.33213 -0.87326,0.2386 0.0603,-0.25919 0.11661,-0.5532 -0.12632,-0.74911 -0.35767,-0.80733 -0.26398,-1.75645 -0.60028,-2.57956 0.22788,-0.48693 -0.0236,-1.08883 0.30606,-1.55807 0.22624,-0.48037 0.54965,-0.91152 0.90148,-1.29113 0.0698,-0.18478 0.2316,-0.48226 0.0213,-0.60795 -0.0807,-0.45483 -0.71719,-0.37895 -1.01786,-0.62562 -0.92966,-0.47983 -0.87886,-1.64268 -0.94733,-2.53418 0.0232,-0.41587 -0.44259,-0.0932 -0.5849,0.0363 -0.17683,0.0558 -0.24649,0.41502 -0.42911,0.3838 -0.21313,-0.42431 -0.48963,-0.9131 -0.41903,-1.40099 0.24053,-0.27011 0.81077,-0.22298 0.92404,-0.63337 -0.0526,-0.23792 -0.6624,-0.40083 -0.30295,-0.62109 0.32967,-0.0713 0.28133,-0.47067 0.18779,-0.71379 -0.3983,-0.20383 -0.92026,-0.21086 -1.23788,-0.58491 -0.51894,-0.22398 -0.68428,-0.81906 -0.84641,-1.31151 -0.0533,-0.22204 0.3388,-0.20492 0.34179,-0.0143 0.22005,-0.22143 0.62513,-0.17336 0.74636,-0.52282 0.14381,-0.28637 0.31161,-0.8468 -0.0519,-1.03045 -0.27363,-0.0323 -0.38216,0.35139 -0.68517,0.28532 -0.15845,0.0441 -0.54851,0.28355 -0.52881,-0.053 0.23472,-0.32848 0.63481,-0.41419 0.96281,-0.59096 0.39028,-0.28141 0.46545,-0.76815 0.52345,-1.20275 0.16358,-0.13777 0.20569,-0.33667 0.0465,-0.52026 -0.13634,-0.16766 -0.18076,-0.48546 0.12504,-0.47814 0.65582,-0.13173 1.30052,-0.32706 1.9648,-0.40952 z m 7.72327,-0.37729 c 0.33399,0.21989 0.14731,0.62764 -0.0991,0.83369 -0.1112,0.15527 -0.46591,0.0703 -0.51997,-0.081 0.16347,-0.27205 0.36612,-0.56085 0.61907,-0.75276 z m -7.2153,0.42104 c 0.31053,0.41159 0.77033,0.74816 1.01147,1.20809 0.003,0.1809 -0.23368,0.27917 -0.27714,0.0562 -0.36608,-0.32083 -0.89768,-0.51164 -1.13244,-0.95711 0.0975,-0.12743 0.24036,-0.26703 0.39813,-0.30704 z m 8.82593,-0.41611 c 0.24071,0.0352 0.0367,0.31901 -0.0644,0.0982 -0.0234,-0.0466 0.005,-0.11232 0.0644,-0.0982 z m 3.97141,-0.15575 c 0.25946,0.1532 0.0916,0.58286 0.26468,0.81309 0.13172,0.24023 0.13682,0.70487 -0.25719,0.64804 -0.19849,0.0175 -0.62443,0.11693 -0.54851,-0.22764 0.003,-0.24298 0.3227,-0.81224 0.33264,-0.27518 0.018,0.0915 0.13443,0.4629 0.24869,0.33939 -0.12266,-0.38516 -0.37015,-0.95384 -0.0605,-1.29462 0.006,-10e-4 0.0143,-0.002 0.0208,-0.002 z m -2.30962,0.14668 c 0.21442,0.064 -0.0988,0.32025 -0.0554,0.0579 0.005,-0.0267 0.0232,-0.0616 0.0554,-0.0579 z m -14.06101,0.88589 c 0.14525,-0.0127 0.53149,0.0746 0.45665,0.2625 -0.34133,-0.3472 -0.73592,0.0598 -0.93795,0.34133 -0.18634,0.21448 -0.1769,-0.13189 -0.0526,-0.21931 0.12488,-0.17799 0.29261,-0.39164 0.53401,-0.38452 z m 14.10753,-0.51728 c 0.20318,-0.005 0.14556,0.30709 -0.008,0.11502 -0.0228,-0.0283 -0.0794,-0.13888 0.008,-0.11502 z m -15.36243,0.92179 c 0.16962,0.46322 0.64129,1.09318 1.1961,0.79155 -0.0269,-0.19226 -0.35272,-0.34529 -0.15981,-0.58246 0.0834,-0.24915 0.67361,-0.45034 0.66904,-0.0726 -0.08,0.32843 0.37797,0.72326 -0.0353,0.95219 -0.38087,0.33005 -0.96855,0.70103 -1.47616,0.48764 -0.17672,-0.4847 -0.33649,-1.05911 -0.20286,-1.56893 0.003,-8.9e-4 0.003,-0.008 0.01,-0.008 z m 12.43498,-0.52002 c 0.19006,0.0603 0.37456,0.34034 0.36609,0.51372 -0.21114,0.0231 -0.56884,-0.11582 -0.58876,-0.33385 0.0554,-0.0734 0.12187,-0.17294 0.22267,-0.17987 z m -1.2313,0.46419 c 0.14605,-0.005 0.54019,0.11614 0.45626,0.29376 -0.21371,0.0929 -0.74531,0.15993 -0.61027,-0.22452 0.0263,-0.0581 0.098,-0.0665 0.154,-0.0692 z m -0.41541,0.27507 c 0.19805,0.11279 -0.0819,0.20724 -0.0417,0.008 0.0127,-0.008 0.0277,-0.008 0.0417,-0.008 z m -2.71858,0.23719 c 0.22403,-0.0748 0.59195,0.19375 0.32336,0.38627 -0.21428,0.15813 -0.83597,0.1958 -0.66711,-0.22661 0.0565,-0.12807 0.22376,-0.14175 0.34375,-0.15968 z m -1.86419,0.10865 c 0.3303,0.0376 0.85557,0.14525 0.96284,0.4957 -0.55759,0.26674 -1.23466,0.24891 -1.82718,0.43754 -0.11884,-0.16849 0.20214,-0.39882 0.2719,-0.55373 0.14223,-0.19518 0.33194,-0.38695 0.59244,-0.37951 z m 10.56607,-0.50471 c 0.21545,0.0652 -0.28971,0.32901 -0.12171,0.0786 0.0304,-0.0382 0.0726,-0.0703 0.12171,-0.0786 z m 3.86038,-0.14127 c -0.073,0.2704 -0.282,0.54383 -0.25244,0.8571 -0.13332,0.19418 -0.17559,-0.24857 -0.11423,-0.31857 0.0398,-0.2151 0.16929,-0.43541 0.36664,-0.53855 z m -2.61138,0.24944 5.5e-4,-5e-5 c 0.26992,-0.0159 0.64066,0.15575 0.76749,0.33374 -0.34039,-0.002 0.0221,0.13666 0.0433,0.27327 -0.24059,0.32974 -0.77741,0.1769 -1.12943,0.29097 -0.29527,0.0881 -0.8064,0.3139 -0.9446,-0.10579 -0.0695,-0.17658 -0.12663,-0.57236 0.18676,-0.44695 0.38971,0.0632 0.63289,-0.37319 1.03267,-0.34061 z m -2.63202,0.25491 c 0.24183,-0.008 0.52708,0.036 0.45555,0.30107 -0.18096,0.046 -0.4136,0.045 -0.54129,-0.0753 -0.45517,0.26115 -1.13229,0.0625 -1.4982,0.47659 -0.0417,0.54285 -0.73245,0.43864 -1.10594,0.56418 -1.91489,0.36244 -3.88252,0.44453 -5.75265,1.02518 -0.70428,0.1917 -1.48837,0.17393 -2.1604,0.41814 -0.0247,0.90803 0.49992,1.73051 0.58022,2.63209 0.11931,0.36405 0.032,0.81989 0.20782,1.14953 0.35881,0.0385 0.63819,-0.22598 0.80044,-0.51126 0.38691,-0.20495 0.48553,-0.67718 0.90664,-0.83234 0.74771,-0.35841 1.54197,-0.70281 2.36572,-0.81168 0.38689,0.13173 0.36325,0.6775 0.52218,0.99702 0.18049,0.29761 -0.16714,0.2015 -0.16338,0.003 -0.14128,-0.39142 -0.50127,-0.82871 -0.96923,-0.64134 -0.68358,0.18593 -1.41157,0.46046 -1.9259,0.95516 0.0573,0.21118 -0.18764,0.32704 -0.35873,0.30099 -0.30386,0.22151 -0.70009,0.53379 -0.74888,0.90983 -0.27593,-0.147 -0.51708,0.41405 -0.71634,0.077 -0.3838,-0.71282 -0.22976,-1.5853 -0.45808,-2.35197 -0.12728,-0.5429 -0.23027,-1.13635 -0.31518,-1.66593 -0.29603,-0.0571 -0.0752,-0.52566 0.15368,-0.56291 -0.0667,-0.0528 -0.23976,-0.0296 -0.18771,-0.18004 -0.16913,0.008 -0.56804,0.26571 -0.50511,-0.0902 0.20009,-0.23802 0.63049,-0.11773 0.86848,-0.34477 1.52172,-0.5 3.15311,-0.58532 4.68463,-1.033 1.56112,-0.35242 3.18621,-0.5019 4.78607,-0.64045 0.28749,-0.0194 0.57515,-0.0374 0.86293,-0.052 v 9e-5 c 0.0562,-0.006 0.13189,-0.0143 0.21258,-0.0167 z m -10.24191,0.89011 c 0.24532,0.0606 -0.16878,0.28458 -0.26514,0.2928 -0.25381,0.006 -0.59953,0.32389 -0.82195,0.17257 -0.10166,-0.39329 0.50587,-0.31273 0.72709,-0.40812 0.11947,-0.021 0.23854,-0.0503 0.36,-0.0573 z m 7.19069,-0.33441 c -0.0255,-1.6e-4 -0.0519,0.003 -0.0795,0.0143 l -0.0574,0.003 -0.0649,0.006 c -0.8777,0.10102 -1.72837,0.34065 -2.61213,0.40053 -1.43931,0.31377 -2.85707,0.72809 -4.32511,0.9015 -0.11295,0.0582 -0.49322,0.0247 -0.48899,0.15495 0.50142,0.0573 0.10595,0.1155 -0.01,0.28005 0.13539,-0.0111 0.30347,-0.0172 0.2877,0.13188 0.84331,-0.0414 1.66755,-0.31135 2.46549,-0.57524 1.88547,-0.40305 3.8142,-0.54952 5.71944,-0.82338 0.20251,-0.0441 0.71865,-0.12552 0.4382,-0.42153 -0.20933,-0.18494 -0.43097,0.0275 -0.61486,0.0966 -0.13125,-0.12011 -0.31142,-0.15915 -0.24006,0.0936 -0.1104,-0.0439 -0.24068,-0.25966 -0.41906,-0.26071 z m 2.57492,0.0231 c 0.51275,0.0383 0.89197,0.53323 0.97617,1.00828 0.23485,0.0923 0.0549,0.47001 0.19802,0.65074 0.19082,0.75315 0.67622,1.5139 0.5393,2.30681 -0.23076,0.24587 -0.56674,-0.16057 -0.81777,-0.20383 -0.61924,-0.30003 -1.28148,-0.51399 -1.97109,-0.51766 -0.24005,-0.0574 0.23873,-0.0557 0.29583,-0.0589 0.58118,-0.01 1.24715,-0.0178 1.69995,0.3998 0.2567,0.15781 0.65221,-0.0306 0.54279,-0.35815 -0.27816,-0.86879 -0.4028,-1.80223 -0.80215,-2.62626 -0.17101,-0.2989 -0.51276,-0.36673 -0.80624,-0.43796 -0.0872,-0.0896 0.0719,-0.16411 0.14525,-0.16294 z m -0.3903,0.13395 c 0.2187,0.0558 -0.19737,0.20612 -0.27545,0.18938 -0.10961,0.0484 -0.37165,0.002 -0.13491,-0.0814 0.13109,-0.0542 0.26949,-0.094 0.41023,-0.10787 z m 2.46988,0.33105 0.0186,-3.5e-4 c 0.21051,0.12584 0.26353,0.51451 0.19236,0.73549 -0.17637,-0.13729 -0.24908,-0.51127 -0.22012,-0.73309 z m 1.43924,-0.0649 c 0.29813,0.14048 0.14063,0.62836 0.22936,0.89309 -0.0453,0.16658 0.19207,0.34312 0.12425,0.45816 -0.0835,-0.12091 -0.23094,-0.0889 -0.33454,-0.10214 -0.0204,-0.13459 0.10707,-0.64282 -0.16128,-0.54407 -0.0907,0.0846 -0.14748,0.39695 -0.10564,0.10309 0.0258,-0.26075 -0.31625,-0.11709 -0.22666,0.0891 -0.11597,0.2905 -0.54518,-0.0274 -0.49267,-0.2711 -0.20188,-0.46735 0.0999,-0.49818 0.50037,-0.46778 0.18041,0.01 0.32421,-0.0851 0.467,-0.15829 z m -16.56803,1.39626 c 0.0829,0.1147 -0.24468,0.28509 -0.3548,0.3225 -0.0959,0.0382 -0.5387,0.1478 -0.46886,-0.0407 0.28682,-0.059 0.55947,-0.15114 0.82363,-0.2814 z m 2.16488,0.16092 c 0.42771,0.95565 0.53796,2.04415 0.71793,3.07459 0.0641,0.51582 0.1575,1.06875 -0.0425,1.5555 -0.0511,0.31468 0.26633,0.8099 0.59799,0.51821 0.19907,-0.10978 0.36586,-0.45297 0.59608,-0.43345 -0.1365,0.43563 -0.72133,0.69081 -0.73397,1.16205 0.0496,0.17956 -0.25513,0.14031 -0.36651,0.20424 -0.3572,-1.85501 -0.50956,-3.74163 -0.79601,-5.60507 -0.0681,-0.13125 -0.12345,-0.38686 0.0271,-0.47606 z m 32.30244,-1.80393 c -0.95541,0.0822 -1.51139,1.00399 -2.10078,1.64566 -0.70027,0.89075 -0.49115,2.09091 -0.68827,3.12665 0.16099,0.45732 0.031,1.07613 0.39804,1.43074 -0.12648,0.61907 0.61853,0.91538 0.9049,1.35953 0.4529,0.3475 0.93848,0.72955 1.49419,0.87785 0.87525,-0.0234 1.77435,-0.0479 2.62935,-0.18529 0.97615,-0.47757 2.09552,-1.15291 2.23126,-2.34556 0.0395,-0.53196 0.15304,-1.13745 -0.0891,-1.62986 -0.15098,-0.22537 -0.68376,-0.44938 -0.72479,-0.028 -0.12727,0.8595 -0.25636,1.89804 -1.0034,2.454 -0.71386,0.3699 -1.59126,0.24795 -2.34723,0.0867 -0.0818,-0.2068 0.24102,-0.45026 0.28948,-0.65865 0.1767,-0.40826 0.52319,-0.72839 0.79347,-1.07669 0.29384,-0.0652 0.22621,-0.42631 0.42263,-0.61563 0.48832,-0.85248 1.18702,-1.57903 1.61572,-2.46216 0.13523,-0.61927 -0.44933,-1.15644 -0.93142,-1.44486 -0.88421,-0.43051 -1.92178,-0.5498 -2.89391,-0.5339 z m -18.90853,1.45522 c 0.3002,0.10786 0.67811,0.25336 0.85987,0.52391 -0.0325,0.28662 -0.36663,0.34693 -0.56665,0.16576 -0.1952,-0.12743 -0.7441,-0.19634 -0.44066,-0.53087 0.0312,-0.0624 0.062,-0.15766 0.14747,-0.15893 z m 1.89624,0.27002 c 0.31893,0.11868 -0.14588,0.18806 0,0 z m 4.70349,0.0726 c 0.0912,0.0714 -0.01,0.30718 -0.0111,0.0797 0.003,-0.0229 -0.005,-0.0624 0.0111,-0.0797 z m -6.80607,0.52442 c 0.105,0.10723 -0.17555,0.22368 -0.0695,0.0243 0.018,-0.0185 0.0439,-0.0277 0.0695,-0.0243 z m 19.38676,-0.71909 c 0.22299,-0.0127 0.44967,-0.006 0.64024,-0.0359 0.43751,-0.002 1.07208,-0.094 1.374,0.22279 -0.58335,0.67605 -1.10724,1.44258 -1.70761,2.0846 -0.18876,0.53813 -0.75216,0.87374 -0.95176,1.4147 -0.11232,0.0964 -0.25645,0.49383 -0.42918,0.389 -0.01,-0.36888 -0.27497,-0.64288 -0.22559,-1.02594 -0.0597,-0.88511 -0.0982,-1.8177 0.39927,-2.59722 0.16756,-0.362 0.52901,-0.43161 0.90064,-0.45199 z m -24.09455,1.56414 c 0.15893,-0.003 0.3132,0.0414 0.15574,0.2398 -0.13634,0.25383 -0.457,0.34722 -0.58643,0.62982 -0.13857,-0.22646 -0.35013,-0.84007 0.10786,-0.83847 0.0579,-0.006 0.11598,-0.01 0.1739,-0.0127 l 2e-5,1.1e-4 c 0.0426,-0.01 0.0961,-0.0165 0.14906,-0.018 z m -11.07246,1.21932 c 0.002,0.22075 0.20055,0.0799 0.31033,0.17374 0.045,0.23022 0.34899,-0.0165 0.34401,0.22064 0.0651,0.14255 0.37727,0.18897 0.16358,0.37329 -0.13427,0.20672 0.0636,0.3944 0.26325,0.38755 0.0921,0.27102 -0.31305,0.14445 -0.40001,0.0127 -0.28408,-0.42596 -0.42806,0.008 -0.63173,0.22381 -0.11327,0.20007 -0.33483,0.0905 -0.23722,-0.1217 0.0426,-0.40018 -0.66918,-0.26209 -0.68375,-0.6002 0.23114,-0.18426 0.76946,-0.0189 0.74527,-0.45926 0.0212,-0.0698 0.0423,-0.18924 0.12616,-0.21132 z m 13.01563,-0.73336 3.7e-4,-1e-5 c 0.23691,0.0334 0.68084,0.0429 0.7685,0.27236 -0.23776,-0.0541 -0.65415,-0.13237 -0.78475,-0.27082 z m -1.65153,0.1015 c 0.10977,0.0189 0.63967,-0.083 0.40566,0.14318 -0.18796,0.21716 -0.23866,0.5109 -0.37519,0.75463 -0.0455,-0.27575 -0.17319,-0.64171 -0.10357,-0.89087 0.0242,-0.005 0.0487,-0.003 0.073,-0.006 z m 4.21302,-0.20688 c 0.27208,-0.0393 0.16328,0.46357 -0.0499,0.18633 -0.13014,-0.0907 -0.12648,-0.19654 0.0499,-0.18633 z m -7.77341,0.6566 c 0.37633,0.002 0.19617,0.56111 0.36266,0.78283 0.27378,0.41405 0.18192,0.95919 0.38521,1.41449 0.29442,1.52819 0.63676,3.05847 0.98488,4.57098 -0.11519,0.37957 -0.33707,0.73111 -0.46019,1.09945 -0.42661,0.3854 -1.30201,0.01 -1.53336,0.64479 -0.10802,0.54648 0.11057,1.18212 -0.14397,1.6841 -0.22521,-0.0856 0.0646,-0.30824 -0.0536,-0.47541 -0.10388,-0.52102 -0.0827,-1.05806 -0.0945,-1.58692 0.65681,-0.12441 1.53495,-0.218 1.77302,-0.97292 0.32947,-0.74198 -0.0878,-1.52386 -0.22841,-2.25125 0.0391,-0.52839 -0.42701,-0.93703 -0.37394,-1.47978 -0.13682,-0.60922 -0.11773,-1.25931 -0.38137,-1.83299 -0.10214,-0.51362 -0.21423,-1.03769 -0.40458,-1.51722 0.0204,-0.0697 0.10834,-0.0748 0.16803,-0.0802 z m 5.11908,-0.20381 c 0.25199,0.23015 -0.30272,0.14 0,0 z m 2.75065,0.0164 0.0215,0.002 c 0.12615,0.14939 -0.0496,0.60038 -0.29703,0.43854 -0.21596,-0.15019 -0.58873,-0.0283 -0.75707,-0.1891 0.30736,-0.1648 0.71366,-0.076 1.03271,-0.25098 z m -4.89517,0.36068 c 0.52234,0.63793 0.43772,1.5521 0.66385,2.29871 0.29793,0.26919 0.25984,0.78509 0.35485,1.15734 0.0886,0.95303 0.69105,1.8227 0.62444,2.78753 -0.19103,0.19071 0.0928,0.25017 0.23692,0.24677 -0.12155,0.40167 0.27882,0.80522 0.69444,0.75771 0.8102,0.0998 1.6249,-0.11916 2.38142,-0.33354 0.0628,0.58815 0.26446,1.18321 0.24901,1.77003 -0.24614,-0.0469 -0.18273,-0.49743 -0.27008,-0.69422 0.0159,-0.26488 -0.21952,-0.45261 -0.20973,-0.67973 -0.40422,-0.16817 -0.8058,0.24246 -1.22842,0.20017 -0.45442,0.006 -1.00634,0.16292 -1.41076,-0.0649 -0.11693,-0.10579 -0.30678,-0.0765 -0.31133,-0.28433 -0.41256,-0.41509 -0.33386,-1.08719 -0.53829,-1.60639 -0.4593,-1.80709 -1.10713,-3.59293 -1.26162,-5.46034 0.006,-0.0288 -6.2e-4,-0.0741 0.0251,-0.0942 z m -4.31061,0.40792 c 0.29893,0.003 -0.003,0.2919 -0.11916,0.35199 -0.37982,0.29541 -0.60841,0.82536 -1.04071,1.01962 -0.39978,-0.10659 0.10452,-0.39903 0.21983,-0.52326 0.32499,-0.14239 -0.44784,-0.15623 -0.16123,-0.25028 0.43418,-0.0309 0.71132,-0.37447 1.04261,-0.5855 0.0189,-0.005 0.0387,-0.0127 0.0587,-0.0127 z m -5.52019,0.48254 c 0.25199,0.23014 -0.3027,0.13999 0,0 z m 7.77254,-0.30584 c 0.16432,0.28221 0.28069,0.63051 0.3813,0.95231 0.17635,1.04123 0.42108,2.06668 0.63608,3.09991 0.18118,0.71842 0.33962,1.4614 0.40996,2.19041 0.20899,0.39641 -0.038,0.90512 -0.2579,1.25659 -0.42694,0.40651 -1.11792,0.61234 -1.65025,0.31532 0.27346,-0.19732 0.74147,-0.0293 0.95847,-0.35946 0.38088,-0.16099 0.57564,-0.64348 0.63598,-1.02929 -0.0528,-0.65204 0.006,-1.3602 -0.26215,-1.96557 -0.38789,-0.30133 -0.14668,-0.90735 -0.46478,-1.22752 -0.20037,-0.0498 0.17718,-0.16635 0.0232,-0.29986 -0.23312,-0.48886 -0.1077,-1.10018 -0.35444,-1.57341 0.0523,-0.12505 0.22077,-0.29076 0.0127,-0.35167 -0.0633,-0.14652 0.0622,-0.35947 -0.10214,-0.44935 -0.0289,-0.15384 -0.10834,-0.45115 0.0345,-0.55835 z m 9.27672,0.19638 c 0.0428,0.41782 0.67763,0.50406 0.69767,0.91351 -0.24716,0.18693 0.28827,0.2059 0.2281,0.44186 5.9e-4,0.18803 0.0721,0.55239 -0.0143,0.64595 -0.17076,-0.11056 -0.15353,-0.36267 -0.34087,-0.4238 0.02,-0.15781 -0.001,-0.27686 -0.1128,-0.37319 0.0393,-0.26172 -0.242,-0.39418 -0.17449,-0.6393 -0.15543,-0.0905 -0.32953,-0.3958 -0.28356,-0.56503 z m -13.04174,0.91639 c 0.21331,0.0862 -0.37764,0.35881 -0.21723,0.0931 0.0593,-0.053 0.13713,-0.0899 0.21723,-0.0931 z m 8.91448,-0.35453 c 0.24673,0.15034 -0.29621,0.59355 -0.20981,0.18614 0.0423,-0.08 0.11041,-0.18095 0.20981,-0.18614 z m -15.27426,0.90548 c -0.0921,0.0278 -0.16662,0.15225 -0.27066,0.0753 -0.12043,-0.028 -0.0633,0.14031 -0.002,0.17283 0.0512,0.092 0.15813,0.0635 0.23505,0.0953 0.002,0.10802 -0.24525,0.0791 -0.18594,0.21218 0.0617,0.0983 0.14859,0.24183 0.0237,0.33339 -0.0681,0.0337 -0.0931,0.15702 0.0143,0.14079 0.10707,-0.0269 0.17904,0.0861 0.13268,0.166 -0.0228,0.0159 -0.0426,0.0331 -0.0549,0.0444 -0.0291,0.006 -0.0808,0.0321 -0.10706,0.0627 -0.0169,0.0159 -0.024,0.0374 -0.0111,0.0725 0.0394,0.0808 0.0967,0.0197 0.1443,-0.0127 0.027,-0.005 0.0525,-0.006 0.0721,8.6e-4 0.0111,0.005 0.0208,0.0159 0.029,0.0256 0.008,0.0111 0.0111,0.0307 0.0111,0.0555 0.0288,0.0894 -0.0245,0.15368 -0.094,0.19409 -0.008,5.8e-4 -0.0159,7e-4 -0.0234,2.8e-4 -0.0904,-0.0111 -0.17138,0.13396 -0.0487,0.14605 0.0111,-0.005 0.0216,-0.006 0.0323,-0.006 0.034,0.0111 0.0721,0.0185 0.0932,0.0274 0.0571,0.0374 0.0849,0.0889 0.10054,0.14731 -3.3e-4,0.01 -0.002,0.0199 -0.003,0.0299 0.003,0.0177 0.0127,0.0356 0.0189,0.0531 0.006,0.0366 0.006,0.0744 0.0111,0.11168 -0.003,0.0111 -0.0111,0.0224 -0.0224,0.0336 0.005,0.0318 0.0272,0.0617 0.0477,0.0921 0.006,0.0213 0.0166,0.0414 0.029,0.0603 0.008,0.0251 0.006,0.0452 0.001,0.0614 -0.003,0.005 -0.005,0.0111 -0.01,0.0175 -0.006,0.0111 -0.0175,0.0183 -0.0291,0.0255 -0.0223,0.0127 -0.0507,0.0207 -0.0781,0.0298 -0.0143,0.003 -0.0288,0.008 -0.041,0.0127 -0.0364,0.0164 -0.0474,0.0418 -0.0426,0.0646 2.7e-4,0.008 6.7e-4,0.0164 0.005,0.0264 0.005,0.005 0.0127,0.006 0.0186,0.01 0.02,0.0159 0.0501,0.0229 0.0813,0.01 0.0745,-0.0318 0.14111,0.002 0.18308,0.0585 0.0299,0.112 0.0646,0.23385 0.0644,0.34879 -0.001,0.003 -0.002,0.008 -0.003,0.0111 -0.0127,0.0165 -0.0307,0.0296 -0.0514,0.0422 -0.006,0.001 -0.0127,0.005 -0.0194,0.005 -0.0579,0.0177 -0.14446,0.0781 -0.126,0.13459 8.9e-4,0.01 0.002,0.0172 0.006,0.0271 0.017,0.0185 0.0374,0.0312 0.0603,0.0406 0.0636,0.0433 0.15893,0.0323 0.21819,0.0679 0.003,0.001 0.005,0.003 0.006,0.005 0.008,0.005 0.0159,0.0143 0.022,0.0224 -0.001,0.008 -0.002,0.0161 -0.003,0.024 -0.0374,0.067 -0.0487,0.14796 0.0326,0.19077 0.0191,0.0235 0.0463,0.0412 0.0848,0.0485 0.005,6.2e-4 0.0111,9.5e-4 0.0167,0.002 0.0624,0.0178 0.1295,0.0169 0.18532,-0.0143 0.0916,-0.0196 0.18202,-0.0527 0.26611,-0.0711 -0.0127,-0.0551 -0.0247,-0.11248 -0.0372,-0.1701 0.0458,-0.006 0.0185,-0.12918 -0.0269,-0.1163 0.02,-0.0453 0.005,-0.0834 -0.0282,-0.0854 -0.008,-0.0229 -0.0169,-0.045 -0.0274,-0.067 0.006,-1.8e-4 0.0127,8.6e-4 0.0219,0.005 0.0127,-0.0776 -0.0439,-0.12155 -0.10898,-0.14398 -5.7e-4,-7e-4 -9.5e-4,-0.002 -0.002,-0.001 -0.0301,-0.0127 -0.0638,-0.018 -0.0986,-0.0199 -0.0296,-0.0646 -0.0905,-0.0309 -0.14334,-0.003 -0.0425,-0.003 -0.0818,-0.0143 -0.1128,-0.0423 0.0194,-0.028 0.056,-0.0406 0.0964,-0.0495 0.11566,-0.006 0.25373,-0.0304 0.22424,-0.17202 -9.6e-4,-0.0398 -0.034,-0.0423 -0.0582,-0.053 -0.005,-0.0288 -0.006,-0.0579 -0.008,-0.0873 0.005,0.0127 0.008,0.0231 0.0143,0.0395 0.0345,-0.0542 0.01,-0.18798 -0.035,-0.24923 -0.008,9e-5 -0.0165,-0.002 -0.0253,-0.003 -0.0449,-0.0444 -0.12807,-0.0985 -0.10325,-0.15288 0.0506,-0.0127 0.0644,-0.0321 0.0585,-0.0568 0.045,-0.0543 -0.10531,-0.0821 -0.0841,-0.16057 0.002,-0.0178 -0.003,-0.0352 -0.01,-0.0523 0.006,0 0.0161,0.002 0.0266,0.005 0.0237,-0.0708 -0.0951,-0.11009 -0.0663,-0.19589 -0.006,-0.008 -0.0127,-0.008 -0.0164,-0.01 0.006,-0.0111 0.0173,-0.0208 0.0317,-0.031 0.01,-0.0127 0.0188,-0.0223 0.0236,-0.0326 0.0239,-0.0111 0.0387,-0.024 0.0224,-0.0541 -0.0165,-0.0127 -0.036,-0.0191 -0.0566,-0.0242 -0.0309,-0.0161 -0.0733,-0.0216 -0.10818,-0.0127 -0.0364,-0.003 -0.0727,-0.003 -0.10468,-0.0127 -0.0625,-0.0301 -0.10436,-0.0905 -0.01,-0.12425 0.0258,-0.008 0.0595,-0.01 0.0907,-0.0143 0.0484,-0.002 0.0966,-0.005 0.13205,-0.0202 -0.0111,-0.10755 -0.055,-0.33707 -0.20427,-0.3031 -0.005,0.034 -0.0178,0.0627 -0.0372,0.0848 -0.006,0.006 -0.0127,0.0143 -0.0212,0.0196 -0.0337,0.0255 -0.0778,0.0342 -0.12266,0.0197 -0.005,-0.0177 -0.0143,-0.0286 -0.0248,-0.0352 0.10596,-0.0789 0.24064,-0.16992 0.26942,-0.29984 -0.10293,-0.0283 -0.219,-0.0391 -0.31791,-0.0953 -0.0994,0.0159 -0.0762,-0.16864 0.005,-0.0994 0.005,0.095 0.0899,0.0983 0.13952,0.0328 0.10595,-0.0481 0.0617,-0.15336 -0.005,-0.21161 -0.0811,-0.14684 -0.01,-0.36993 -0.15003,-0.47844 -0.008,-0.002 -0.0175,-0.002 -0.0263,-0.002 z m 13.33891,-0.25884 c 0.12711,0.0525 0.15336,0.51333 -0.003,0.41026 -0.0396,-0.10802 -0.10134,-0.33436 0.003,-0.41026 z m 8.0127,-0.15352 c 0.19893,0.12488 -0.032,0.3135 -0.19649,0.2959 -0.27052,0.0296 0.0127,-0.14859 0.10993,-0.17795 0.0159,-0.0503 0.01,-0.11964 0.0866,-0.11805 z m -5.73846,0.36041 c 0.51272,0.28497 1.10382,0.31497 1.66246,0.45593 0.26897,0.064 0.41163,-0.1548 0.54061,-0.32595 0.18007,-0.10325 0.45447,-0.0705 0.48019,0.16623 0.15002,0.0663 0.22182,0.18111 0.18588,0.33883 -0.28623,0.005 -0.69379,0.17184 -1.02979,0.19069 -0.23943,-0.19668 -0.52399,-0.33638 -0.85122,-0.26218 -0.40247,0.11454 -1.05824,-0.0563 -1.0216,-0.56143 0.01,-0.008 0.0228,-0.005 0.0336,-0.001 z m -8.44142,0.65652 c -0.37688,-0.003 -0.56906,0.39937 -0.47103,0.7444 0.0388,0.25739 0.15543,0.81236 0.49949,0.74933 0.13984,-0.005 0.45192,0.24969 0.37436,-0.0643 -0.0896,-0.29927 -0.59713,0.0274 -0.58892,-0.33161 -0.0834,-0.17856 0.095,-0.56933 0.26772,-0.30035 0.22323,0.18219 0.78684,-0.16211 0.61812,0.29254 -0.0325,0.92423 -0.98895,1.3919 -1.75182,1.63637 0.0609,0.31301 0.0842,0.64688 -0.0143,0.93632 0.0802,0.0463 0.15256,-0.0277 0.20971,0.0767 0.2817,0.0205 0.63047,0.0159 0.87124,-0.11312 9.2e-4,-0.3257 0.5018,-0.25659 0.66328,-0.49054 0.23098,-0.10595 0.64224,-0.52628 0.80483,-0.1155 0.25119,0.25937 -0.0659,0.68334 -0.3512,0.68239 -0.12425,-0.14079 0.22829,-0.54554 -0.073,-0.52684 -0.24365,0.10659 -0.69367,0.33374 -0.64052,0.62578 0.13905,-0.0492 0.34607,-0.0964 0.18063,0.12234 -0.17103,0.40119 0.45852,0.36818 0.68991,0.3923 0.2822,-0.008 0.58359,0.21989 0.81857,-0.0495 0.14286,-0.11916 0.36567,-0.41066 0.24923,-0.57372 -0.31428,0.0412 -0.68916,0.42294 -0.9812,0.27737 0.25486,-0.22635 0.81533,-0.27976 0.74373,-0.74863 0.0711,-0.32259 -0.44461,-0.45188 -0.33502,-0.73898 0.33476,-0.0646 0.62935,0.32695 0.67673,0.63223 0.28297,0.0913 0.23971,-0.38963 0.14509,-0.53273 -0.21594,-0.31794 -0.41085,-0.65112 -0.44533,-1.0484 -0.0445,-0.23988 -0.33786,-0.0896 -0.41443,0.0186 -0.20693,-0.18327 -0.18815,-0.44539 -0.10197,-0.67119 -0.11757,-0.71608 -0.92669,-0.98414 -1.56618,-0.87426 -0.0266,-0.003 -0.0527,-0.006 -0.078,-0.006 z m 14.77085,-0.80894 c 0.0165,-0.002 0.0293,5e-5 0.0364,0.008 0.25643,-0.0143 -0.20864,0.18234 -0.26643,0.22542 -0.18456,0.0531 0.11407,-0.21638 0.22988,-0.23464 z m -2.22147,0.17813 c 0.0732,0.0756 -0.001,0.37555 -0.01,0.11773 0.001,-0.0331 -0.01,-0.0956 0.01,-0.11773 z m -16.49012,1.14428 c 0.31872,0.0175 0.11359,0.49187 0.10532,0.67659 -0.0939,0.71719 -0.0143,1.64451 0.71673,2.00815 0.28455,0.2459 0.68175,0.28537 1.00138,0.41982 -0.0834,0.30133 -0.52864,0.22163 -0.63789,0.53731 -0.33509,0.36753 -0.44585,0.86015 -0.71594,1.26469 0.005,0.15949 -0.0638,0.44122 -0.27071,0.26997 -0.22006,-0.50846 0.29925,-0.97441 0.38871,-1.4523 0.0985,-0.0652 0.38201,-0.0738 0.19931,-0.24955 -0.36305,-0.37545 -0.98501,-0.59722 -1.12846,-1.14069 0.0468,-0.32317 -0.44914,-0.6222 -0.18594,-0.94881 -0.11296,-0.46865 -0.0476,-1.25982 0.52759,-1.38518 z m 18.06372,-0.9059 c 0.091,0.0522 0.53331,0.0442 0.28151,0.21102 -0.29376,0.1838 -0.63193,0.28625 -0.96985,0.35601 0.22206,-0.17579 0.39376,-0.50022 0.68834,-0.56703 z m -14.06138,0.84799 c 0.22796,0.006 -0.09,0.27931 -0.0772,0.0317 0.0173,-0.024 0.0495,-0.0296 0.0772,-0.0317 z m 12.74896,-0.688 c 0.12218,0.0721 0.0237,0.4016 -0.0654,0.41406 -0.0143,-0.11757 -0.0565,-0.3422 0.0654,-0.41406 z m -3.71647,0.27756 c 0.37439,0.0274 0.51125,0.55766 0.27227,0.85847 -0.22453,0.32519 -0.24254,-0.26704 -0.21226,-0.39292 0.0215,-0.37323 -0.60068,-0.25628 -0.57869,0.08 -0.008,0.23634 -0.35594,0.67106 -0.5663,0.38094 -0.0334,-0.2311 0.11566,-0.43395 0.2944,-0.53755 0.006,-0.17517 0.029,-0.37458 0.26973,-0.3384 0.11518,-0.0127 0.2306,-0.0226 0.3462,-0.0291 0.0628,-0.018 0.12107,-0.0251 0.17468,-0.0212 z m 5.84637,-0.14159 c 0.105,0.005 0.51634,0.11089 0.36317,0.23924 -0.14159,0.0902 -0.71767,0.0215 -0.36317,-0.23924 z m -21.75589,1.46277 c 0.005,0.0305 0.0127,0.0676 0.0461,0.0775 -0.0173,0.006 -0.0393,0.003 -0.0585,-0.0258 -0.01,-0.0177 -0.003,-0.0385 0.0127,-0.0517 z m 21.36623,-0.85985 c 0.34001,0.0589 -0.18294,0.12934 -0.17826,0.28536 0.15177,0.38322 0.90592,-0.0544 0.87158,0.47046 0.0336,0.20246 -0.0896,0.36766 -0.20766,0.4861 0.32336,0.30596 0.26814,0.79871 0.46013,1.1664 0.23748,0.16741 -0.21558,0.23765 -0.2908,0.23194 0.26614,0.006 0.39458,0.16986 0.36538,0.39994 0.11518,0.14127 0.32189,0.24011 0.0627,0.38135 0.0207,0.14207 0.4099,0.16452 0.13125,0.31171 -0.32815,0.21883 0.29731,0.13395 0.26155,0.40518 0.0409,0.29745 0.27764,0.53856 0.22083,0.83777 0.14,0.0127 0.34066,0.13984 0.099,0.19944 0.0725,0.13697 0.29215,0.24805 0.20528,0.45302 0.0816,0.1478 0.1443,0.48329 -0.02,0.55553 -0.24155,-0.19264 -0.11455,-0.65117 -0.48903,-0.73231 -0.27144,-0.15623 -0.58052,-0.13666 -0.86511,-0.11582 -0.33769,-0.35497 -0.15178,-0.95735 -0.30576,-1.39706 -0.0966,-0.40859 -0.28359,-0.86638 0.0714,-1.21621 0.25141,-0.52858 0.01,-1.18465 -0.34653,-1.61175 -0.15066,-0.31398 -0.31299,-0.63954 -0.54283,-0.8884 0.0743,-0.16691 0.3465,-0.18697 0.4974,-0.22263 z m -13.27544,0.75763 c 0.15289,0.0883 -0.0375,0.44283 -0.0954,0.17535 0.002,-0.0606 0.0234,-0.16255 0.0954,-0.17535 z m 11.61121,-0.23403 c 0.26941,0.20656 0.62933,-0.0348 0.89697,0.15256 0.22444,-0.0582 0.28418,0.12028 0.25617,0.30649 0.10134,0.12552 0.44454,-0.0915 0.3278,0.20804 -0.0907,0.23396 0.2247,0.27483 0.17591,0.52381 0.0632,0.14588 0.0248,0.57912 -0.1968,0.48175 -0.29832,-0.40148 -0.40994,-0.92943 -0.87848,-1.19543 -0.1748,-0.18604 -0.47254,-0.30323 -0.64679,-0.41986 0.01,-0.0283 0.0326,-0.0582 0.0652,-0.0574 z m -11.63004,0.67981 c -0.005,0.16685 -0.31032,0.37136 -0.17926,0.51957 0.27338,-0.15257 -0.0403,0.21738 -0.11932,0.27532 -0.33388,0.35784 -0.8404,0.46486 -1.26541,0.68223 -0.19346,0.16313 -0.41785,-0.20009 -0.13602,-0.22467 0.74159,-0.078 1.12423,-0.88812 1.7001,-1.25245 z m 0.55782,0.0779 c 0.256,0.0794 0.1244,0.46521 -0.13794,0.42889 -0.13268,0.0577 -0.41226,0.0807 -0.20899,-0.13077 0.0908,-0.11821 0.19779,-0.25576 0.34685,-0.29809 z m -8.20392,0.8776 c 0.0245,0.0232 0.0608,0.0299 0.0966,0.039 0.0275,0.0436 0.0256,0.1023 -0.0375,0.0934 -0.0356,-0.01 -0.11519,-0.11646 -0.0592,-0.13237 z m 1.63395,0.19293 c 0.34905,0.30566 0.68802,0.70919 0.83679,1.15244 0.008,0.10436 -0.16682,0.27218 -0.11009,0.0803 -0.11328,-0.27968 -1.18758,-0.82425 -0.72658,-1.23276 z m 11.58285,-0.56066 c 0.31953,0.54175 0.65278,1.14981 1.21798,1.46625 0.18852,-0.13984 0.41314,-0.12663 0.63752,-0.0425 0.18298,0.0503 0.49404,-0.0169 0.6186,0.0442 -0.19405,0.11455 -0.27484,0.41519 -0.57444,0.27022 -0.67906,0.0613 -1.56707,-0.13571 -1.76307,-0.89026 -0.0745,-0.2746 -0.11995,-0.56615 -0.13665,-0.84804 z m -12.03617,1.37403 c 0.1112,0.0159 0.36172,0.32497 0.11772,0.22338 -0.0797,-0.006 -0.24851,-0.18606 -0.11772,-0.22338 z m 25.30803,-1.40079 c 0.19805,0.11279 -0.0821,0.20725 -0.0419,0.008 0.0111,-0.008 0.0277,-0.008 0.0419,-0.008 z m -9.75848,0.95847 c 0.18871,0.0894 -0.0587,0.47466 -0.22537,0.49814 -0.45703,-0.0989 0.0368,-0.42681 0.22537,-0.49814 z m 1.44277,0.10309 c 0.25252,0.0237 0.33341,0.32394 0.0842,0.43274 -0.12059,0.20885 -0.50405,0.14986 -0.37849,-0.12568 0.0515,-0.12314 0.13904,-0.30572 0.29428,-0.30706 z m -15.89533,0.9768 c 0.11629,0.005 0.19404,0.0649 0.0819,0.22167 -0.147,0.3291 -0.30377,0.81887 -0.69569,0.89573 0.0659,-0.35574 0.35247,-0.70374 0.30017,-1.06859 0.0562,-0.0342 0.12696,-0.0305 0.18977,-0.0375 0.042,-0.01 0.0851,-0.0127 0.12377,-0.0111 z m 16.60104,-0.92351 c 0.50805,0.32674 0.77736,0.99667 0.80079,1.58629 -0.0216,0.18792 -0.13411,0.4389 -0.26697,0.53125 -0.14174,-0.47646 -0.0375,-1.08009 -0.34629,-1.48413 -0.0333,-0.11582 -0.0394,-0.34136 -0.18041,-0.45939 -0.02,-0.0356 -0.10515,-0.18452 -0.006,-0.17406 z m 22.70105,-0.96992 c -0.0143,7.8e-4 -0.0291,0.002 -0.0438,0.003 -0.61921,0.0961 -1.3107,0.19511 -1.81772,0.58066 -0.0356,0.22251 -0.0385,0.45787 -0.14525,0.67634 -0.0503,0.15703 0.15098,0.70808 0.16566,0.32541 0.14637,-0.6012 0.69057,-1.0544 1.21031,-1.34928 0.13857,-0.0722 0.2373,0.01 0.0404,0.0846 -0.19964,0.059 -0.14541,0.19614 0.0388,0.13761 0.53734,-0.0313 1.29242,0.12759 1.47473,0.70534 -0.0851,0.31351 -0.55513,0.52258 -0.48215,0.86265 0.23894,0.22788 0.51478,-0.10563 0.70415,-0.18677 0.1689,0.3153 0.53411,-0.12648 0.49847,-0.36169 0.0205,-0.30814 -0.01,-0.6624 -0.0673,-0.93529 -0.0127,0.37968 0.10261,1.0572 -0.4413,1.11789 -0.50992,0.11009 0.46925,-0.69866 -0.112,-0.90457 -0.28027,-0.27993 -0.5767,-0.78256 -1.02352,-0.75711 z m -40.18662,2.28531 c 0.19756,0.0328 0.11041,0.41303 -0.12807,0.32366 -0.13665,-0.022 -0.48436,-0.12855 -0.21208,-0.24491 0.0722,-0.0414 0.1548,-0.0633 0.23762,-0.0692 0.0403,-0.0127 0.0743,-0.0143 0.10261,-0.008 z m 16.59463,-0.68405 c 0.16022,0.0549 0.29002,0.56836 0.0159,0.44547 -0.0959,-0.0803 -0.13109,-0.38656 -0.0159,-0.44547 z m -16.6631,1.48662 c 0.34037,0.0127 0.0127,0.6341 0.45269,0.49787 0.12632,-0.0376 0.20399,-0.26045 -0.005,-0.12409 -0.27952,0.0899 -0.003,-0.20558 0.10611,-0.20908 0.19435,-0.13077 0.1408,-0.0547 0.14414,0.0761 0.2198,0.0562 0.14716,0.37916 0.0332,0.50344 -0.0934,0.41015 -0.16743,1.08051 0.32887,1.24715 0.0848,-0.30796 0.12791,-0.77345 0.47665,-0.92232 0.32628,0.31536 0.30825,0.86696 0.40864,1.28837 0.01,0.35987 0.15913,0.81027 -0.0468,1.12978 -0.1823,0.16886 -0.19092,0.47875 -0.43412,0.6269 -0.32489,0.41716 -0.024,1.06525 0.36699,1.33884 0.17606,0.23216 0.52191,0.27731 0.68017,0.4867 0.14589,0.491 -0.0964,1.24043 0.51832,1.4743 0.78883,0.0127 1.60838,-0.0711 2.36976,-0.28738 0.34255,-0.1906 -0.2052,-0.50733 -0.30024,-0.67648 -0.0937,-0.12027 0.23256,-0.37299 0.40018,-0.39093 0.3115,0.19635 0.12647,0.63741 0.28308,0.89108 0.74871,0.13729 1.52779,-0.0593 2.28352,-0.0753 0.0212,0.20495 -0.0627,0.66275 0.29742,0.58233 0.46292,-0.049 1.20186,0.20946 1.39121,-0.40063 0.0686,-0.25358 0.40611,-0.16081 0.27947,0.0919 -0.21814,0.29115 -0.54965,0.50586 -0.80326,0.77335 -0.37477,0.18219 -0.82973,0.0972 -1.21153,0.28713 -1.37634,0.30682 -2.78434,0.41658 -4.17984,0.5873 -0.25081,0.0205 -0.6731,0.28402 -0.7402,-0.0935 0.0733,0.13125 -0.17457,0.39889 -0.13555,0.12632 0.0278,-0.20685 -0.33135,-0.28536 -0.3198,-0.42371 0.24824,0.006 0.17586,-0.23836 -0.0297,-0.13554 -0.0813,-0.14684 -0.12425,-0.37366 -0.35108,-0.33105 -0.10945,-0.15257 -0.1858,-0.51507 -0.43519,-0.4586 -0.0498,0.18919 -0.49517,0.1775 -0.39213,-0.0867 -0.3461,-0.65591 -0.42634,-1.41673 -0.49543,-2.15118 -0.14366,-0.72972 -0.35379,-1.44462 -0.5416,-2.16069 -0.38235,-0.88906 -0.49435,-1.8708 -0.66466,-2.81239 0.0159,-0.12966 0.13252,-0.25876 0.26565,-0.26904 z m 15.5624,-0.71071 c 0.0732,0.0754 -0.001,0.37553 -0.01,0.11773 0.001,-0.0331 -0.01,-0.0956 0.01,-0.11773 z m -13.87202,0.99759 c 0.19804,0.1128 -0.0819,0.20723 -0.0417,0.008 0.0111,-0.008 0.0277,-0.008 0.0417,-0.008 z m 5.49362,-0.22818 c 0.38167,-0.0555 -0.11486,0.30466 0.0479,0.48804 0.20123,0.38662 0.21197,0.89525 0.40141,1.25331 1.18285,-0.4511 2.48208,-0.47792 3.71463,-0.73407 1.19307,-0.14095 2.44065,-0.0754 3.57406,-0.53314 0.18419,-0.25546 0.63483,0.18144 0.23989,0.29293 -1.24846,0.41774 -2.60771,0.21068 -3.88225,0.52819 -1.26597,0.23566 -2.56038,0.38139 -3.81561,0.64066 -0.0368,0.20154 -0.13141,0.59411 -0.42441,0.31543 -0.0388,-0.20006 0.35854,-0.17374 0.25299,-0.43324 -0.0274,-0.59493 -0.21958,-1.20498 -0.26658,-1.7799 0.0439,-0.0344 0.10341,-0.0321 0.15782,-0.0383 z m -2.55069,0.29763 c 0.183,0.0269 0.31651,0.1623 0.4413,0.31095 0.15034,0.0367 0.24835,0.48461 0.0512,0.21061 -0.52091,-0.3255 -1.33738,0.0414 -1.34708,0.69275 -0.0592,0.3155 0.0867,0.76047 -0.01,1.00876 -0.41163,-0.48155 -0.35724,-1.16188 -0.0345,-1.6749 0.13586,-0.29395 0.32465,-0.58095 0.69778,-0.53522 0.0735,-0.0185 0.13984,-0.0223 0.20095,-0.0127 z m 24.67416,-0.53027 c 0.10294,-0.008 0.59761,-0.0402 0.25609,0.0601 -0.17979,0.0356 -0.51639,0.16338 -0.63852,0.0266 0.10993,-0.0698 0.25601,-0.0694 0.3824,-0.0869 z m -2.42696,0.14366 c 0.15352,0.35167 0.66534,0.29456 0.96074,0.49619 0.24755,0.27115 0.18074,0.78364 -0.021,1.07441 -0.23972,0.0638 -0.37373,0.30359 -0.49521,0.50378 -0.10246,-0.45048 -0.52594,-0.65889 -0.74003,-1.02558 -0.147,-0.19717 0.0584,-0.39036 -0.0159,-0.5732 0.20564,-0.11104 0.10007,-0.40816 0.31069,-0.4756 z m -11.24795,0.7702 c 0.12743,0.23353 -0.20225,0.63808 -0.46666,0.59591 -0.29727,-0.0955 0.15225,-0.36042 0.23858,-0.45949 0.0711,-0.0458 0.13713,-0.13236 0.22808,-0.13634 z m 14.44719,-0.62708 c 0.10499,0.10722 -0.17562,0.22377 -0.0697,0.0243 0.018,-0.0185 0.0441,-0.0278 0.0697,-0.0243 z m -1.93931,0.15097 c 0.13284,0.003 0.26582,0.003 0.3988,0.005 0.27397,-0.0765 0.51593,0.10929 0.38379,0.39592 -0.11231,0.0773 -0.14366,0.19901 -0.13777,0.34811 -0.12457,0.21251 -0.46728,0.31466 -0.66321,0.33695 0.025,-0.35972 0.0617,-0.72397 0.0185,-1.08601 z m -7.86943,0.45489 c 0.21105,0.0477 0.33296,0.4059 0.25927,0.57729 -0.30733,0.13252 -0.73764,-0.32593 -0.37841,-0.535 0.0363,-0.0215 0.076,-0.0407 0.11916,-0.0422 z m 0.82409,0.0711 c 0.19805,0.1128 -0.0819,0.20735 -0.0417,0.008 0.0111,-0.008 0.0277,-0.008 0.0417,-0.008 z m -3.18152,0.25256 c 0.29408,0.0974 0.48006,0.52487 0.44603,0.8018 -0.30065,0.003 -0.30649,-0.46462 -0.48141,-0.64393 -0.0245,-0.053 -0.0547,-0.15146 0.0353,-0.15782 z m -3.35519,0.20644 c 0.20766,-0.0304 0.42394,0.0251 0.0705,0.0767 -1.89599,0.38444 -3.79177,0.84421 -5.71722,1.03631 -0.10309,-0.21021 0.34026,-0.24457 0.46836,-0.29207 1.44503,-0.24169 2.89996,-0.44884 4.33677,-0.7372 0.27944,-0.0377 0.56007,-0.0681 0.84171,-0.0837 z m 11.31329,-0.54669 c 0.2783,-0.0764 0.29887,0.40532 0.19718,0.54342 -0.0869,-0.0208 -0.14127,-0.32611 -0.15909,-0.0931 0.0889,0.22815 -0.24078,0.41347 -0.30865,0.1419 0.0328,-0.24468 -0.1901,-0.27766 -0.36896,-0.30516 -0.3105,-0.1645 0.1427,-0.24152 0.28323,-0.244 0.11804,-0.0196 0.23659,-0.0375 0.35623,-0.0431 z m 3.71476,-0.14159 c 0.3656,-0.005 -0.092,0.23888 -0.21458,0.23527 -0.23412,0.0826 0.3514,0.1559 0.0463,0.25486 -0.2998,0.0951 -0.26125,-0.2794 -0.0727,-0.37781 0.0678,-0.0579 0.15018,-0.10595 0.24094,-0.11216 z m -22.99618,1.30295 c 0.105,0.10723 -0.17554,0.22376 -0.0695,0.0243 0.018,-0.0185 0.0439,-0.0278 0.0695,-0.0243 z m 0.0364,0.33338 c 0.22545,-0.0192 0.0686,0.26348 -0.055,0.0885 -0.0546,-0.0471 0.003,-0.0904 0.055,-0.0885 z m 14.97249,-0.71583 c 0.27136,0.28956 0.46988,0.79574 0.22963,1.1731 -0.19036,0.2877 0.2845,0.3558 0.2467,0.64379 0.0297,0.27261 0.069,0.56354 0.18869,0.79753 -0.28626,0.2958 -0.74969,0.42075 -0.95299,0.8141 -0.1677,0.069 -0.30721,0.17832 -0.24575,0.39626 -0.0849,-0.0737 -0.2692,-0.31998 -0.28262,-0.0286 -0.0581,0.20025 0.0668,0.52282 -0.24184,0.53003 -0.0703,0.16736 0.4438,0.27268 0.17713,0.4494 -0.24569,0.0127 -0.52059,-0.0538 -0.71221,0.12393 -0.40732,0.008 -0.78731,0.35461 -1.1959,0.18462 -0.245,-0.16194 -0.63898,-0.008 -0.88058,0.14382 -0.17897,0.003 -0.36365,-0.0207 -0.4667,0.15782 -0.1575,0.11438 -0.42761,0.10277 -0.44538,-0.11296 -0.20836,0.0368 -0.15209,0.28452 -0.17614,0.39561 -0.21105,0.0199 -0.34955,-0.10356 -0.43575,-0.26442 -0.21164,-0.10325 -0.50357,0.0814 -0.59998,-0.23014 -0.48097,-0.69844 -1.35675,-0.93738 -2.14146,-1.06548 -0.25318,-0.16446 -0.36333,-0.75971 0.0183,-0.81167 0.34281,0.041 0.4901,0.37513 0.71101,0.57003 0.32664,-0.0296 0.76654,-0.0111 0.99759,-0.27484 0.12743,-0.40042 -0.13173,-0.92039 0.0776,-1.26991 0.3814,0.11534 0.69221,0.40723 0.78434,0.79695 0.18813,0.50801 0.93491,0.23738 1.11593,-0.1443 0.0449,-0.31794 0.14334,-0.62382 0.40278,-0.84713 0.11248,-0.0415 0.18685,-0.48499 0.27626,-0.20399 0.18345,0.34273 0.12568,0.93779 0.62607,1.00162 0.34611,0.262 0.80937,-0.0962 1.19685,-0.0789 0.35631,-0.0757 0.92593,0.006 1.11924,-0.36887 -0.0514,-0.27378 0.18256,-0.5411 0.0143,-0.82221 -0.0687,-0.34607 -0.40876,-0.79885 0.13221,-0.87921 0.38304,-0.11089 0.23542,-0.57931 0.46169,-0.77595 z m 3.0879,0.0433 c 0.18375,-0.0247 0.66869,0.12648 0.53009,0.34528 -0.26932,-0.038 -0.69622,0.0202 -0.86364,-0.22602 0.06,-0.10659 0.23256,-0.10087 0.33355,-0.11932 z m 4.00398,-0.11629 c 0.43636,0.0601 0.94151,0.0127 1.33622,0.21284 0.17622,0.16288 -0.0127,0.30595 -0.19882,0.26339 -0.74285,0.15353 -1.21201,0.88903 -1.32595,1.58223 -0.13507,0.1807 -0.003,0.48144 -0.14382,0.6867 0.0684,0.38659 -0.53572,0.37967 -0.77773,0.51434 -0.26833,0.0853 -0.12918,-0.4095 -0.25411,-0.57209 -0.11725,-0.30254 -0.36804,-0.82736 -0.75767,-0.6992 0.28423,-0.11629 -0.0953,-0.24544 -0.0834,-0.30536 0.0457,-0.23453 -0.2629,-0.32303 -0.41758,-0.4077 -0.0808,-0.25244 -0.28652,0.26955 -0.1994,-0.0538 -0.0288,-0.28399 -0.38616,-0.0312 -0.46479,-0.15114 0.40788,-0.26253 0.98428,-0.15543 1.44539,-0.0945 0.24679,0.025 0.57533,0.20089 0.79446,0.0691 -0.0242,-0.14557 -0.13364,-0.38031 0.10452,-0.36934 0.14382,-0.12887 0.18342,-0.37899 0.42955,-0.38962 0.2127,-0.0337 0.30521,-0.26776 0.51319,-0.28585 z m -24.67682,1.44283 c 0.25249,0.11805 0.40236,0.63891 0.14461,0.79144 -0.13793,-0.18979 -0.22563,-0.57724 -0.14461,-0.79144 z m 14.29218,-0.80792 c 0.25202,0.23014 -0.3027,0.14 0,0 z m 0.34074,0.0651 c 0.252,0.23017 -0.30271,0.14 0,0 z m 27.67434,-1.09881 c 0.005,0.0283 0.005,0.0589 0.003,0.0913 -0.0547,0.16289 -0.29292,0.34741 -0.40118,0.24648 0.0891,-0.1435 0.22764,-0.29681 0.39787,-0.33799 z m -0.91219,0.29714 c 0.0216,3.6e-4 0.0415,0.006 0.0617,0.0127 0.0127,0.01 0.022,0.0175 0.0356,0.0358 0.0379,0.0302 0.0744,0.0482 0.11009,0.0579 0.0816,0.0884 0.10595,0.20314 0.002,0.25427 -0.0464,0.0111 -0.091,0.0194 -0.13539,0.0264 -0.0811,-0.0111 -0.15145,-0.21507 -0.13204,-0.32192 6e-4,-0.005 0.002,-0.01 0.002,-0.0127 0.01,-0.0302 0.0251,-0.0512 0.0546,-0.0512 z m -0.56018,0.0757 c 0.003,0.0143 0.008,0.0293 0.0143,0.0439 0.0786,0.33541 0.13475,0.73864 0.0434,1.0885 -0.002,0.008 -0.005,0.0162 -0.006,0.0232 -0.0143,0.0469 -0.0298,0.0924 -0.0487,0.13682 -0.01,0.0181 -0.0164,0.0358 -0.0255,0.0535 -0.0178,0.0345 -0.0368,0.0681 -0.0581,0.10038 -0.0159,0.0191 -0.0326,0.0352 -0.0493,0.0479 -0.13348,0.078 -0.27278,0.0266 -0.41332,-0.0248 -0.0652,-0.0253 -0.13077,-0.0445 -0.19619,-0.0496 -0.0711,-0.01 -0.14159,0 -0.21141,0.0437 -0.0465,0.008 -0.0859,0.0385 -0.12266,0.0762 -0.0657,0.0546 -0.11662,0.13666 -0.17324,0.15161 -0.0111,9.6e-4 -0.0227,-0.003 -0.0342,-0.008 -0.0111,-0.003 -0.0237,-0.0159 -0.0359,-0.0269 -0.0111,-0.01 -0.0213,-0.0186 -0.0328,-0.0364 -0.0695,0.0293 -0.13125,0.0711 -0.19036,0.11772 -0.31602,0.21532 -0.55734,0.58453 -0.85725,0.8263 -0.0571,0.0404 -0.11724,0.0802 -0.18112,0.12075 -0.1112,0.0605 -0.23233,0.10007 -0.36952,0.10516 -0.01,-0.002 -0.0199,-0.006 -0.0296,-0.01 0.008,-0.0164 0.0161,-0.0313 0.0259,-0.0457 0.23323,-0.23668 0.63194,-0.29477 0.80013,-0.62197 0.34906,-0.33197 0.67594,-0.73032 1.14289,-0.83819 0.0568,-0.003 0.11534,-0.002 0.17659,0.006 0.43011,0.008 0.75402,-0.35651 0.73597,-0.7674 0.0291,-0.16724 0.0546,-0.34071 0.0983,-0.51235 z m -42.48282,2.49589 c 0.26458,0.0628 -0.14557,0.38428 -0.18154,0.11518 0.0188,-0.0778 0.11152,-0.10579 0.18154,-0.11518 z m 22.79917,-1.12817 c 0.19805,0.11279 -0.0819,0.20723 -0.0417,0.008 0.0111,-0.008 0.0277,-0.008 0.0417,-0.008 z m -0.26531,0.10834 c 0.23478,0.0426 -0.28958,0.0814 -0.0426,0.006 0.0143,-0.003 0.0285,-0.005 0.0426,-0.006 z m 21.36415,-1.12854 c 0.25313,-0.008 -0.1921,0.12775 -0.19457,0.25402 -0.0889,0.0892 0.12171,0.20803 -0.0964,0.11343 -0.42819,-0.0485 0.15209,-0.38064 0.29096,-0.36758 z m -0.82487,0.12425 c 0.20151,0.0143 0.0915,0.35224 0.34353,0.31936 0.19444,0.0143 0.76767,0.0479 0.58052,0.37257 -0.0544,0.0422 -0.12075,0.0705 -0.19047,0.0926 -0.005,-0.13093 -0.34406,-0.10929 -0.35754,0.0234 -0.15034,-0.0285 -0.28187,-0.10659 -0.35213,-0.23846 -0.0512,-0.14987 -0.0784,-0.31777 -0.10738,-0.43368 -0.002,-0.0175 -10e-4,-0.0328 0.001,-0.0479 0.008,-0.0347 0.0218,-0.0611 0.0447,-0.0756 0.0111,-0.006 0.0218,-0.0111 0.0382,-0.0127 z m 1.1295,-0.0425 c 0.0204,0.002 0.0375,0.008 0.052,0.0159 -0.002,0.0468 -0.0535,0.0741 -0.11677,0.0929 -0.0274,0.003 -0.0546,0.0127 -0.0843,0.0237 -0.1015,0.0111 -0.17616,-0.01 -0.0385,-0.0597 0.0608,-0.0261 0.12266,-0.0568 0.18777,-0.0729 z m -44.67043,2.6192 c 0.16478,-0.0127 0.42243,0.28308 0.1147,0.28167 -0.2204,0.0737 -0.37769,-0.2307 -0.1147,-0.28167 z m 2.18257,0.10086 c 0.26312,0.0127 -0.0792,0.29196 -0.16806,0.33715 -0.50952,0.31727 -1.15953,0.37704 -1.74695,0.35069 -0.0889,-0.0177 -0.36723,-0.14843 -0.12712,-0.14556 0.61859,-0.0913 1.41511,0.1287 1.85765,-0.44048 0.0565,-0.0391 0.11407,-0.0905 0.18445,-0.10181 z m 42.45228,-2.31665 c 0.0702,0.0399 0.0719,0.0722 0.0576,0.0951 -0.0283,-0.008 -0.0568,-0.01 -0.0854,-0.01 -0.01,-0.0188 -0.022,-0.0393 -0.0143,-0.0797 0.0127,-0.008 0.0277,-0.008 0.0418,-0.008 z m -2.71792,0.15463 c 0.01,-1.7e-4 0.0192,-5.1e-4 0.0258,-1.4e-4 0.008,-8e-5 0.0159,-3e-5 0.0207,4.3e-4 0.0229,0.008 0.0143,0.0267 -0.01,0.0477 -0.0194,0.017 -0.0406,0.0345 -0.0713,0.0509 -0.01,0.006 -0.0167,0.006 -0.0253,0.0111 -0.0328,0.0143 -0.0613,0.0237 -0.0848,0.0264 -0.01,0.001 -0.0192,0.003 -0.0272,0.003 -0.0208,-0.008 -0.0229,-0.0296 0.0207,-0.0856 0.0422,-0.0337 0.0962,-0.0514 0.14986,-0.0552 z m -35.66999,2.08773 0.0127,0.002 c 0.29308,0.24094 0.2975,0.76594 0.62137,0.95497 0.18504,-0.14716 0.3078,-0.48071 0.18827,-0.6741 0.066,-0.17358 0.33352,-0.22217 0.3136,0.0288 0.0441,0.28636 -0.20594,0.81517 0.24966,0.87272 0.28862,0.0358 0.46792,-0.53386 0.74866,-0.29441 0.14605,0.40952 -0.67521,0.32175 -0.56614,0.69116 0.0342,0.1058 0.31303,0.25611 0.25612,0.32033 -0.19059,0.0159 -0.71958,-0.30245 -0.71972,0.0719 0.057,0.1462 0.0177,0.64021 -0.24048,0.42732 -0.16891,-0.15496 -0.23967,-0.6052 -0.55562,-0.40791 -0.19642,0.16472 -0.43553,0.25252 -0.67396,0.25443 -0.0442,0.24366 -0.30065,-0.0905 -0.083,-0.17428 0.17147,-0.18442 0.70367,-0.28568 0.56682,-0.61567 -0.19802,-0.21483 -0.66439,0.008 -0.77868,-0.26956 0.26837,-0.0924 0.83441,0.15591 0.87189,-0.30193 0.005,-0.29173 -0.44571,-0.63961 -0.21122,-0.88591 z m 36.98588,-1.4854 c 0.0937,-0.0111 0.17526,0.0226 0.24131,0.0803 0.11932,0.15639 0.0856,0.48251 -0.0111,0.61859 -0.0504,-0.0143 -0.0808,-0.039 -0.1042,-0.0679 -0.0254,-0.10993 -0.0382,-0.22541 -0.0597,-0.33797 -0.003,-0.0667 -0.0143,-0.13045 -0.0504,-0.18352 -0.0143,-0.0333 -0.0313,-0.0652 -0.0528,-0.0958 0.003,-0.005 0.0127,-0.006 0.0202,-0.006 0.006,-0.001 0.0111,-0.006 0.017,-0.005 z m -6.48279,0.55146 c 0.77773,-0.003 1.75575,0.066 2.27384,0.65211 0.001,0.005 0.005,0.01 0.005,0.0127 -0.51906,-0.0821 -1.05071,-0.35735 -1.57823,-0.35743 -0.0749,-0.001 -0.15019,0.006 -0.22513,0.0175 -0.0111,9.7e-4 -0.0224,0.005 -0.0337,0.006 -0.0722,0.0143 -0.14429,0.0364 -0.21625,0.0657 -0.01,0.005 -0.0202,0.003 -0.0302,0.008 -0.01,-3.3e-4 -0.0161,0.002 -0.0242,0.002 -0.0466,-0.001 -0.0919,0.003 -0.13507,0.0111 -0.1015,0.0185 -0.19208,0.0673 -0.28012,0.12218 -0.0307,0.0197 -0.0614,0.0406 -0.0912,0.063 -0.18171,0.13363 -0.35277,0.29807 -0.54361,0.41771 -0.0412,0.0235 -0.0827,0.0461 -0.12664,0.0624 -0.0632,0.0127 -0.15209,0.0811 -0.24073,0.14254 -0.14175,0.0641 -0.28147,0.0679 -0.26511,-0.0993 0.0215,-0.0684 0.052,-0.13173 0.0896,-0.19051 0.0348,-0.0493 0.0711,-0.0974 0.11295,-0.14095 0.0294,-0.032 0.0597,-0.0636 0.0927,-0.0932 0.0613,-0.0536 0.12584,-0.10452 0.1935,-0.15273 0.0934,-0.0671 0.18865,-0.13268 0.28375,-0.19636 0.0267,-0.018 0.0527,-0.0364 0.0789,-0.0547 0.0889,-0.0613 0.17515,-0.12313 0.24933,-0.19013 0.1252,-0.0709 0.26757,-0.0945 0.41206,-0.10866 z m -26.58257,1.57824 c 0.28622,-0.0426 0.33242,0.23204 0.335,0.51809 -0.0698,0.20669 -0.43249,0.0856 -0.5564,0.29874 -0.3665,0.28035 -0.79493,0.63031 -1.26808,0.64341 -0.12568,-0.3158 0.27181,-0.55819 0.56146,-0.49317 0.43208,0.0501 0.46825,-0.44368 0.39773,-0.74712 -0.0999,-0.28537 0.23983,-0.12281 0.39238,-0.18125 0.0512,-0.0199 0.0969,-0.0326 0.13793,-0.0387 z m 29.60786,-1.01104 c 0.0627,0.0573 0.0754,0.0948 0.0638,0.11662 -9e-5,1.7e-4 -5.4e-4,1.4e-4 -5.2e-4,3.9e-4 -0.0127,0.0212 -0.0474,0.0272 -0.0815,0.0216 -5.4e-4,-8e-5 -8.9e-4,-1.3e-4 -8.9e-4,-3.2e-4 -0.0342,-0.006 -0.0668,-0.0228 -0.0724,-0.0469 -2e-5,-1.1e-4 -1.6e-4,-1.8e-4 -1.9e-4,-3.5e-4 -0.006,-0.0245 0.0159,-0.0563 0.0921,-0.0912 z m -20.55108,1.49973 c 0.105,0.10723 -0.17563,0.22378 -0.0697,0.0243 0.018,-0.0185 0.0439,-0.0278 0.0697,-0.0243 z m -8.18299,0.688 c 0.66754,0.0247 1.3382,0.10627 2.00936,0.12234 0.46413,0.47587 0.81642,1.1444 1.42039,1.44965 0.18565,-0.18635 0.39858,0.22961 0.5798,0.29247 0.79359,0.53484 1.76795,0.80876 2.72448,0.68967 0.0891,-0.008 0.50292,0.008 0.2272,0.0913 -0.9208,0.26907 -1.86772,-0.0614 -2.708,-0.42969 -0.81384,-0.19802 -1.68306,-0.30171 -2.35751,-0.85137 -0.96345,-0.70248 -2.22707,-0.64085 -3.33953,-0.4309 -0.52452,0.27291 -1.16266,0.62092 -1.35834,1.21715 0.001,0.27542 -0.30811,0.45333 -0.21517,0.75726 0.0492,0.23305 -0.24859,0.28458 -0.18182,0.5365 -0.0111,0.77642 0.17694,1.67103 0.92762,2.06561 0.68293,0.38488 1.52367,0.24154 2.27338,0.22054 0.87132,-0.21014 1.72686,-0.91712 1.7796,-1.8592 -0.15543,-0.30146 -0.50392,0.14684 -0.6316,0.27417 -0.61746,0.64096 -1.61663,0.47067 -2.41725,0.45061 -0.59148,-0.0819 -0.53325,-0.84108 -0.58529,-1.28488 0.13475,-0.57496 0.47596,-1.13725 0.91868,-1.52923 0.16407,-0.003 0.21636,-0.13078 0.26743,-0.24947 0.13268,-0.0477 0.46835,-0.12425 0.51472,0.0369 -0.12266,0.0566 -0.24497,0.10293 -0.26388,0.25934 -0.27295,0.37215 -0.84872,0.55265 -0.8882,1.05856 -0.15528,0.3342 0.0242,0.85248 0.35101,1.04517 0.42624,0.10548 0.90672,0.21719 1.34525,0.1548 0.055,-0.1778 0.24748,-0.13666 0.33702,-0.0412 0.40355,-0.1427 0.59414,-0.78003 1.06517,-0.70262 0.43783,0.12314 0.62287,0.59435 0.484,1.0077 0.0298,0.29988 -0.19962,0.58589 -0.14747,0.86365 -0.0546,0.3692 -0.55004,0.50843 -0.81146,0.71869 -0.45508,0.29015 -0.91373,0.57008 -1.47605,0.46115 -0.56279,0.0549 -1.20042,-0.0853 -1.72788,0.11216 -0.0531,0.24564 -0.31957,-0.10484 -0.44522,-0.10118 -0.33179,-0.21216 -0.83818,-0.2631 -1.06044,-0.5982 0.0127,-0.23616 -0.32135,-0.32532 -0.33597,-0.57829 -0.17382,-0.50368 -0.2928,-1.10754 -0.15686,-1.6147 0.10166,-0.175 -0.17635,-0.41039 -0.0317,-0.61595 0.23615,-1.00216 1.07842,-1.68842 1.77572,-2.38444 0.22727,-0.19225 0.52059,-0.38373 0.81143,-0.31 0.36882,-0.26562 0.89342,-0.23462 1.32779,-0.30426 z m 23.87487,-1.23778 c 0.10547,0.0923 -0.20722,0.26733 -0.26818,0.34492 -0.0632,0.0375 -0.13348,0.0962 -0.20168,0.15002 -0.1365,0.0768 -0.27488,0.1628 -0.41696,0.24272 -0.0196,0.003 -0.0399,0.0166 -0.0595,0.0177 0.0477,-0.10325 0.13284,-0.17875 0.22681,-0.2481 0.0916,-0.0539 0.1796,-0.11343 0.26269,-0.17969 0.11582,-0.0746 0.22822,-0.15352 0.30411,-0.26404 0.045,-0.0313 0.0967,-0.0598 0.15256,-0.0633 z m -4.40154,0.60618 c 0.16796,0.0173 0.16169,0.24652 0.0708,0.28607 -0.0275,5e-5 -0.0585,-0.006 -0.0943,-0.0248 -0.003,-0.003 -0.006,-0.005 -0.0127,-0.008 -0.0111,-0.008 -0.0159,-0.024 -0.0235,-0.038 -0.0355,-0.0759 -0.0469,-0.21172 0.0582,-0.21541 z m -0.27369,0.0873 c 0.0528,0.01 0.0584,0.0192 0.0519,0.0264 -10e-4,0.002 -0.003,0.003 -0.005,0.005 -0.029,0.0127 -0.10055,0.0185 -0.13507,0.0127 -0.003,-0.001 -0.005,-0.006 -0.008,-0.01 -5.4e-4,-0.006 0.002,-0.0143 0.0523,-0.0302 0.0143,-0.003 0.0285,-0.005 0.0426,-0.006 z m 1.90699,0.008 c 0.0861,-0.006 0.21958,-4.3e-4 0.31662,0.0305 0.0385,0.0143 0.0718,0.0364 0.10023,0.0627 0.006,0.01 0.0127,0.018 0.0143,0.0291 -0.0159,0.0423 -0.0358,0.0883 -0.0619,0.13316 -0.008,0.0111 -0.0143,0.0192 -0.0245,0.0307 -0.087,0.11598 -0.21731,0.14414 -0.35563,0.14128 -0.0143,-0.01 -0.0267,-0.0159 -0.0399,-0.0294 -0.0474,-0.0296 -0.18152,-0.0181 -0.29167,-0.0211 -0.055,-0.0143 -0.10819,-0.0301 -0.15607,-0.0436 -0.003,-0.006 -0.003,-0.0162 -0.005,-0.0239 0.0111,-0.0226 0.0253,-0.0447 0.0484,-0.0601 0.0647,-0.003 0.10166,-0.0259 0.12314,-0.0614 0.0733,-0.0321 0.14811,-0.0684 0.18179,-0.14382 0.0447,-0.0288 0.0939,-0.0393 0.14843,-0.0436 z m -1.2059,0.11327 c 0.0318,0.0185 0.0376,0.0344 0.0473,0.0507 0.008,0.0111 0.0159,0.0212 0.0191,0.0293 -0.003,0.0542 -0.11184,0.06 -0.10579,-0.0541 0.0111,-0.01 0.0205,-0.0172 0.0396,-0.0258 z m 2.72289,-0.0194 c 0.13921,0.003 0.12202,0.0411 0.0597,0.0794 -0.10102,0.0317 -0.20481,0.0458 -0.31182,0.0369 0.0224,-0.0304 0.0684,-0.063 0.12616,-0.0888 0.0127,-0.006 0.0237,-0.0111 0.0358,-0.0143 0.0369,-0.0143 0.0721,-0.0205 0.0902,-0.0111 z m -19.46011,1.22842 c 0.12823,0.0407 0.13873,0.42415 0.0127,0.17586 -0.0143,-0.0452 -0.063,-0.14414 -0.0127,-0.17586 z m -9.03386,1.84845 c 0.25202,0.23014 -0.3027,0.14 0,0 z m 3.3955,0.17393 c 0.0913,0.0714 -0.01,0.30708 -0.0111,0.0796 0.003,-0.0229 -0.005,-0.0624 0.0111,-0.0796 z m 9.80092,-0.21015 c 0.14127,-0.0127 0.23988,0.15734 0.0503,0.0867 -0.0213,-0.002 -0.13172,-0.0915 -0.0503,-0.0867 z m -1.94898,0.32467 c 0.22798,0.006 -0.09,0.27942 -0.0772,0.0317 0.0173,-0.024 0.0495,-0.0296 0.0772,-0.0317 z m -8.22168,0.65585 c 0.20823,0.0426 0.0958,0.53413 -0.008,0.21703 -0.003,-0.0581 -0.0519,-0.17841 0.008,-0.21703 z m 5.33658,0.39063 c 0.24005,0.006 -0.006,0.20626 -0.0842,0.0644 0.003,-0.0412 0.0468,-0.0628 0.0842,-0.0644 z m -3.75353,2.78497 c 0.24968,0.0412 0.008,0.2586 -0.0808,0.0779 -0.003,-0.0439 0.0355,-0.0865 0.0808,-0.0779 z" /><path
             style="fill:none;fill-opacity:1;stroke:currentColor;stroke-width:2.80000032;stroke-linecap:round;stroke-linejoin:round;stroke-dasharray:none;stroke-dashoffset:45.1269;stroke-opacity:1;paint-order:markers stroke fill"
             d="m -168.96,203.115 14.685,43.56 4.125,38.60999 66.495001,-17.82 -3.3,-33.32999 L -108.405,196.35 Z"
             id="path35" /></g></svg>
