<?xml version="1.0" encoding="UTF-8" standalone="no"?>
<!-- Created with Inkscape (http://www.inkscape.org/) -->

<svg
   width="26.458334mm"
   height="30.82057mm"
   viewBox="0 0 26.458334 30.82057"
   version="1.1"
   id="svg1"
   xml:space="preserve"
   inkscape:version="1.3.2 (091e20e, 2023-11-25, custom)"
   sodipodi:docname="bag.svg"
   xmlns:inkscape="http://www.inkscape.org/namespaces/inkscape"
   xmlns:sodipodi="http://sodipodi.sourceforge.net/DTD/sodipodi-0.dtd"
   xmlns="http://www.w3.org/2000/svg"
   xmlns:svg="http://www.w3.org/2000/svg"><sodipodi:namedview
     id="namedview1"
     pagecolor="#ffffff"
     bordercolor="#000000"
     borderopacity="0.25"
     inkscape:showpageshadow="2"
     inkscape:pageopacity="0.0"
     inkscape:pagecheckerboard="0"
     inkscape:deskcolor="#d1d1d1"
     inkscape:document-units="mm"
     inkscape:zoom="11.641073"
     inkscape:cx="61.506359"
     inkscape:cy="71.556979"
     inkscape:window-width="2560"
     inkscape:window-height="1351"
     inkscape:window-x="-9"
     inkscape:window-y="-9"
     inkscape:window-maximized="1"
     inkscape:current-layer="layer1" /><defs
     id="defs1" /><g
     inkscape:label="Layer 1"
     inkscape:groupmode="layer"
     id="layer1"
     transform="translate(-26.627376,-4.1192979)"><path
       style="fill:#514030;fill-opacity:1;stroke:none;stroke-width:0.396495;stroke-linejoin:round;stroke-dashoffset:318.954;stroke-opacity:1;paint-order:markers stroke fill"
       d="m 35.722427,10.847927 -2.166849,2.794091 -2.08131,2.024288 -2.879626,2.822604 -1.710667,3.164735 -0.256599,3.677937 1.368532,2.99367 2.508979,2.965156 2.65154,2.024288 3.791981,1.511094 4.105602,0.114043 5.588183,-1.425554 3.364312,-1.99578 1.710672,-1.938758 0.912355,-2.48047 0.456177,-0.99789 -0.48469,-2.423448 L 51.260995,21.140446 50.006505,18.00422 48.837551,15.010551 47.212414,13.44244 46.827517,12.601361 46.998582,11.033246 47.126884,8.3674566 45.986438,8.0966027 45.159613,8.3531978 44.931526,8.0538353 44.831733,7.6261664 V 7.2127562 L 44.290025,6.9133893 43.848102,5.7871975 43.04979,4.8748424 c 0,0 -1.454067,-0.7555445 -1.653645,-0.7555445 -0.199578,0 -1.981526,0.2423453 -2.06706,0.2423453 -0.08553,0 -1.268744,1.0406571 -1.282998,1.1547004 -0.01428,0.1140433 -0.05703,0.5274535 -0.05703,0.5274535 l -0.384898,0.156815 -0.698522,2.5660004 -0.555967,0.3136212 -0.498945,1.1832133 0.07128,0.58448 z"
       id="path1-1" /><path
       style="fill:#423427;fill-opacity:1;stroke:none;stroke-width:0.396495;stroke-linejoin:round;stroke-dashoffset:318.954;stroke-opacity:1;paint-order:markers stroke fill"
       d="m 41.481675,11.532191 -0.826821,1.653649 -0.256599,1.197464 0.769799,0.969381 0.712781,0.513199 0.712777,1.967271 1.938758,3.221756 1.282998,3.421334 3.364317,2.96516 1.197468,1.083425 0.456177,-2.252379 -2.851113,-3.250274 -1.368537,-2.594509 -2.680044,-3.449846 -1.425558,-1.225981 0.940868,-2.138336 z"
       id="path3-6" /><path
       style="fill:#423427;fill-opacity:1;stroke:none;stroke-width:0.396495;stroke-linejoin:round;stroke-dashoffset:318.954;stroke-opacity:1;paint-order:markers stroke fill"
       d="m 46.349953,8.6026747 c -0.09266,0.057022 -2.501851,0.8268204 -2.551746,0.8482063 -0.04989,0.021377 -1.503962,1.1547 -1.51822,1.190341 -0.01424,0.03566 0.142556,0.926609 0.185323,0.997885 0.04275,0.07128 1.375665,1.468326 1.375665,1.468326 0,0 1.89599,-0.106916 1.931626,-0.128302 0.03566,-0.02138 0.65576,-0.484686 0.65576,-0.484686 l 0.292235,-3.6921923 z"
       id="path4-5" /><path
       style="fill:#423427;fill-opacity:1;stroke:none;stroke-width:0.396495;stroke-linejoin:round;stroke-dashoffset:318.954;stroke-opacity:1;paint-order:markers stroke fill"
       d="m 41.046883,8.6739507 -1.104806,2.1525903 0.2566,0.62012 1.176082,-1.16896 c 0,0 1.275875,-1.0406567 1.354278,-1.0762924 0.07841,-0.035658 1.304384,-0.5488394 1.304384,-0.5488394 0,0 -0.627243,-0.1710694 -0.67001,-0.1710694 -0.04275,0 -2.316528,0.1924509 -2.316528,0.1924509 z"
       id="path5-1" /><path
       style="fill:#423427;fill-opacity:1;stroke:none;stroke-width:0.396495;stroke-linejoin:round;stroke-dashoffset:318.954;stroke-opacity:1;paint-order:markers stroke fill"
       d="M 38.202897,8.9661904 37.86789,9.8571641 38.324068,10.70537 39.115252,11.026119 38.644816,9.6076916 Z"
       id="path6-8" /><path
       id="path7-7"
       style="fill:#423427;fill-opacity:1;stroke:none;stroke-width:0.396495;stroke-linejoin:round;stroke-dashoffset:318.954;stroke-opacity:1;paint-order:markers stroke fill"
       d="m 45.045634,6.7494648 c -0.03947,-0.00985 -0.405621,0.1151166 -0.674272,0.2087896 l 0.46044,0.2543998 v 0.4134545 l 0.06188,0.2653988 0.03782,0.0055 c 0,0 0.171158,-1.1332835 0.114136,-1.1475422 z" /><path
       style="fill:#423427;fill-opacity:1;stroke:none;stroke-width:0.396495;stroke-linejoin:round;stroke-dashoffset:318.954;stroke-opacity:1;paint-order:markers stroke fill"
       d="m 39.378979,7.1343487 -0.53458,0.4205373 c 0,0 0.213832,0.1069206 0.249468,0.1211749 0.03566,0.014237 0.327879,0.035658 0.327879,0.035658 l 0.441924,-0.3920287 0.44905,-0.049894 c 0,0 -0.08554,-0.1568106 -0.114043,-0.1639378 -0.02852,-0.00714 -0.819698,0.028518 -0.819698,0.028518 z"
       id="path8-6" /><path
       style="fill:#423427;fill-opacity:1;stroke:none;stroke-width:0.396495;stroke-linejoin:round;stroke-dashoffset:318.954;stroke-opacity:1;paint-order:markers stroke fill"
       d="m 38.167257,6.3645499 -0.03566,1.0691657 c 0,0 0.09266,0.1496835 0.142556,0.099789 0.04989,-0.049894 0.62012,-0.5844796 0.62012,-0.5844796 0,0 0.584475,-0.3421298 0.655756,-0.3350027 0.07128,0.00714 0.70565,0.171065 0.734163,0.171065 0.02852,0 0.598729,-0.014237 0.598729,-0.014237 0,0 0.762676,-0.3207484 0.869592,-0.3207484 0.106917,0 0.890974,0.057022 0.890974,0.057022 L 43.135305,6.2576514 43.42754,6.1150951 c 0,0 -0.748413,-0.933741 -0.805439,-0.9551224 -0.05702,-0.021377 -1.08342,-0.07128 -1.354278,0 -0.270854,0.071276 -1.25449,0.2922398 -1.382792,0.3350071 -0.128297,0.042754 -0.37777,0.2280865 -0.527453,0.3421298 -0.149684,0.1140477 -0.662883,0.4419233 -0.691396,0.4419233 -0.02852,0 -0.498945,0.085535 -0.498945,0.085535 z"
       id="path9-4" /><path
       id="path10-8"
       style="fill:#423427;fill-opacity:1;stroke:none;stroke-width:0.396495;stroke-linejoin:round;stroke-dashoffset:318.954;stroke-opacity:1;paint-order:markers stroke fill"
       d="m 31.152235,18.02255 c -0.04139,4.44e-4 -0.703608,2.062926 -0.703608,2.062926 l -1.511955,3.023912 c -0.06048,0.120962 -1.270163,3.26616 -1.270163,3.26616 0,0 0.157904,0.91322 0.356617,1.981796 l 1.31325,1.552291 c 0.01585,-1.618192 0.06945,-3.425942 0.225292,-4.01813 0.302405,-1.149143 0.927296,-2.620769 0.927296,-2.620769 l 1.612799,-2.419315 0.967633,-1.330435 c 0,0 -0.624842,0.644982 -0.806285,0.765944 -0.181447,0.120962 -0.887051,-0.322535 -1.108813,-0.483816 -0.221766,-0.161282 0,-1.633027 0,-1.774146 0,-0.0044 -7.1e-4,-0.0064 -0.0021,-0.0064 z" /><path
       id="path11-0"
       style="fill:#423427;fill-opacity:1;stroke:none;stroke-width:0.396495;stroke-linejoin:round;stroke-dashoffset:318.954;stroke-opacity:1;paint-order:markers stroke fill"
       d="m 39.52082,15.428369 -1.02814,0.302299 -0.161348,0.141181 2.540324,5.846592 1.249764,1.854824 c 0,0 0.947708,2.519982 0.988031,2.661106 0.04031,0.141119 0.524129,3.084526 0.463648,3.346608 -0.06048,0.26209 0.201457,1.028141 0.201457,1.028141 0,0 -1.229758,2.056407 -1.632967,2.378973 -0.403209,0.322567 -2.136823,1.270048 -2.378746,1.552291 -0.04413,0.05149 -0.06382,0.191728 -0.07357,0.361431 l 1.364817,0.03805 5.588071,-1.42555 3.364256,-1.99577 1.698286,-1.924726 c -0.385455,0.133696 -0.894064,0.309635 -0.894064,0.309635 0,0 -2.721655,0.503978 -2.822455,0.483816 -0.1008,-0.02018 -1.73381,-1.209429 -1.73381,-1.209429 L 44.157759,25.246573 41.738446,21.819291 40.52879,17.746841 40.50862,16.07354 Z" /><path
       id="path12-9"
       style="fill:#423427;fill-opacity:1;stroke:none;stroke-width:0.396495;stroke-linejoin:round;stroke-dashoffset:318.954;stroke-opacity:1;paint-order:markers stroke fill"
       d="m 36.516848,20.58946 c -0.201601,0.02018 -1.149151,0.725616 -1.149151,0.725612 0,0 -3.890882,5.624856 -3.76992,5.907099 0.120962,0.282248 -0.403142,1.391174 -0.403142,1.391174 l -3.369298,-0.66098 0.170516,0.372891 2.508925,2.965241 2.65171,2.02419 3.791921,1.51104 1.789274,0.04973 c 0.225146,-0.629451 0.4405,-1.262371 0.4405,-1.262371 0,0 1.128908,-2.822502 1.511955,-2.943464 0.383052,-0.120962 1.935496,-0.806375 1.935496,-1.028137 0,-0.221766 -1.814484,-5.786093 -1.814484,-5.786093 0,0 -0.927557,-1.411264 -1.008199,-1.229821 -0.08064,0.181443 -0.483817,4.616739 -0.483817,5.100587 0,0.483852 0.100948,2.580512 -0.201457,2.782116 -0.302404,0.201605 -2.88296,0.302529 -2.88296,0.302529 l -3.003972,-2.177289 c 0,0 0.705689,-1.532399 0.746008,-1.633199 0.04031,-0.100805 2.237858,-4.878803 2.399144,-5.06025 0.161281,-0.181439 0.524154,-1.007967 0.524154,-1.007967 0,0 -0.181599,-0.362801 -0.383203,-0.342639 z" /><path
       style="fill:#423427;fill-opacity:1;stroke:none;stroke-width:0.396495;stroke-linejoin:round;stroke-dashoffset:318.954;stroke-opacity:1;paint-order:markers stroke fill"
       d="m 47.383381,14.420323 -0.383047,1.149143 c 0,0 -0.161282,0.423367 -0.06048,0.443529 0.100804,0.02018 0.504014,0.1008 0.504014,0.1008 l 0.362886,-0.524167 -0.141124,-0.7661 z"
       id="path13-8" /><path
       style="fill:#423427;fill-opacity:1;stroke:none;stroke-width:0.396495;stroke-linejoin:round;stroke-dashoffset:318.954;stroke-opacity:1;paint-order:markers stroke fill"
       d="m 45.478223,17.212539 c 0,0 2.489811,2.782138 2.540211,2.893019 0.0504,0.110881 1.209629,2.066444 1.391072,2.207568 0.181443,0.141119 1.43139,0.887057 1.43139,0.887057 l 0.06048,-1.52211 c 0,0 -1.340671,-2.721658 -1.43139,-2.89302 -0.09072,-0.171362 -0.95762,-1.915243 -1.108825,-1.955562 -0.1512,-0.04031 -0.937457,-0.40321 -1.421309,-0.383048 -0.483848,0.02018 -1.209625,0.342729 -1.229787,0.383048 -0.02013,0.04031 -0.231843,0.383048 -0.231843,0.383048 z"
       id="path14-2" /><path
       style="fill:#423427;fill-opacity:1;stroke:none;stroke-width:0.396495;stroke-linejoin:round;stroke-dashoffset:318.954;stroke-opacity:1;paint-order:markers stroke fill"
       d="m 34.154317,14.297773 c -0.128302,0.228087 -2.965161,3.036437 -2.965161,3.036437 0,0 0.228091,0.570221 0.313621,0.627243 0.08554,0.05702 0.456178,0.242345 0.65576,0.228091 0.199578,-0.01424 1.810456,-1.126192 1.881732,-1.268749 0.07128,-0.142556 0.384901,-1.297256 0.384901,-1.382786 0,-0.08554 -0.270853,-1.240236 -0.270853,-1.240236 z"
       id="path15-0" /><path
       style="fill:#423427;fill-opacity:1;stroke:none;stroke-width:0.396495;stroke-linejoin:round;stroke-dashoffset:318.954;stroke-opacity:1;paint-order:markers stroke fill"
       d="m 35.693919,12.572848 -0.969382,1.297257 0.285113,0.513199 0.883842,-0.826821 c 0,0 -0.02852,0.940868 -0.02852,1.069166 0,0.128302 0.199578,1.026403 0.199578,1.026403 0,0 0.48469,0.02852 0.541712,0.01424 0.05702,-0.01424 0.15681,-0.997889 0.128297,-1.083424 -0.02852,-0.08553 -0.185319,-1.097679 -0.199578,-1.1547 -0.01424,-0.05702 -0.171065,-0.99789 -0.171065,-0.99789 z"
       id="path16-7" /><path
       style="fill:#423427;fill-opacity:1;stroke:none;stroke-width:0.396495;stroke-linejoin:round;stroke-dashoffset:318.954;stroke-opacity:1;paint-order:markers stroke fill"
       d="m 37.133727,12.572848 c 0,0 0.498945,1.311511 0.570225,1.454067 0.07128,0.142556 0.883842,0.655756 1.040658,0.655756 0.15681,0 0.997885,-0.18532 0.997885,-0.18532 0,0 0.114048,-0.769803 -0.04275,-0.855333 -0.156811,-0.08554 -2.566005,-1.06917 -2.566005,-1.06917 z"
       id="path17-1" /><path
       id="path2-2"
       style="fill:#878ec4;fill-opacity:1;stroke:none;stroke-width:0.396495;stroke-linejoin:round;stroke-dashoffset:318.954;stroke-opacity:1;paint-order:markers stroke fill"
       d="m 36.715625,8.8737592 -0.366013,0.2065011 -0.498945,1.1832977 0.07128,0.584431 h -0.09695 l 0.154012,0.912399 1.382694,1.297204 2.437876,1.297208 2.45186,0.52736 3.563876,-0.156762 1.026536,-0.256462 0.285113,-0.684357 0.102676,-0.32545 -0.01721,-0.01672 -0.357307,-0.780611 -0.184494,0.381597 -1.425554,0.49894 -1.867424,0.04262 -3.30742,-0.59864 -2.97922,-1.696448 -0.47052,-0.655711 -0.07128,-1.0691618 0.170976,-0.4705249 z" /></g></svg>
