<?xml version="1.0" encoding="UTF-8" standalone="no"?>
<svg
   width="200mm"
   height="200mm"
   fill="currentColor"
   class="bi bi-dice-6"
   viewBox="0 0 200 200"
   version="1.1"
   id="svg2"
   sodipodi:docname="pieceIcon.svg"
   inkscape:version="1.2.2 (b0a8486, 2022-12-01)"
   xmlns:inkscape="http://www.inkscape.org/namespaces/inkscape"
   xmlns:sodipodi="http://sodipodi.sourceforge.net/DTD/sodipodi-0.dtd"
   xmlns="http://www.w3.org/2000/svg"
   xmlns:svg="http://www.w3.org/2000/svg">
  <defs
     id="defs2" />
  <sodipodi:namedview
     id="namedview2"
     pagecolor="#ffffff"
     bordercolor="#000000"
     borderopacity="0.25"
     inkscape:showpageshadow="2"
     inkscape:pageopacity="0.0"
     inkscape:pagecheckerboard="0"
     inkscape:deskcolor="#d1d1d1"
     inkscape:zoom="0.19939169"
     inkscape:cx="-178.04152"
     inkscape:cy="62.690678"
     inkscape:window-width="1390"
     inkscape:window-height="1027"
     inkscape:window-x="55"
     inkscape:window-y="25"
     inkscape:window-maximized="0"
     inkscape:current-layer="svg2"
     inkscape:document-units="mm"
     showgrid="false" />
  <path
     d="m 101.96158,26.964779 c -1.25905,-0.50458 -2.66412,-0.50458 -3.92316,0 l -62.93926,25.17359 64.90083,25.95401 64.90085,-25.95401 z M 94.72693,170.90877 V 87.341329 L 26.17714,59.931959 V 143.48885 Z M 94.1258,17.167439 c 3.77094,-1.50811 7.97745,-1.50811 11.74839,0 l 75.18331,30.07753 c 1.99985,0.80147 3.31098,2.73894 3.31148,4.8934 v 91.350481 c -0.003,4.31154 -2.62967,8.18722 -6.63351,9.7868 l -75.77389,30.30956 c -1.25905,0.50458 -2.66412,0.50458 -3.92316,0 L 22.27508,153.27565 c -4.00799,-1.59623 -6.63961,-5.47265 -6.64406,-9.7868 V 52.138369 c 5e-4,-2.15446 1.31163,-4.09193 3.31148,-4.8934 z"
     id="path1-0"
     style="fill:currentColor;fill-opacity:1;stroke-width:10.5461"
     sodipodi:nodetypes="cccccccccccccccccccccccc" />
</svg>
