<?xml version="1.0" encoding="UTF-8" standalone="no"?>
<!-- Created with Inkscape (http://www.inkscape.org/) -->

<svg
   width="22.754169mm"
   height="22.754168mm"
   viewBox="0 0 22.754169 22.754168"
   version="1.1"
   id="svg1"
   xml:space="preserve"
   xmlns="http://www.w3.org/2000/svg"
   xmlns:svg="http://www.w3.org/2000/svg"><defs
     id="defs1" /><g
     id="layer1"
     transform="translate(-82.02135,-36.867)"><path
       id="grass"
       style="fill:#000000;fill-opacity:1;stroke-width:1.78429;stroke-dashoffset:318.954;paint-order:markers stroke fill"
       d="M 93.398433,36.867 A 11.377081,11.377081 0 0 0 82.02135,48.244084 11.377081,11.377081 0 0 0 93.398433,59.621167 11.377081,11.377081 0 0 0 104.77552,48.244084 11.377081,11.377081 0 0 0 93.398433,36.867 Z m 3.233395,1.486731 c 0.05275,-0.0044 0.09326,-0.0016 0.120406,0.0088 0.206285,0.07916 1.821534,2.338851 2.673738,3.74034 1.737928,2.858113 2.757808,5.742866 2.759518,7.805726 0.002,1.829034 -0.92057,3.116532 -2.937801,4.102592 -1.458324,0.712858 -2.316249,0.937727 -5.616195,1.472778 l -0.652673,0.105937 0.04237,1.273307 0.04237,1.273824 -0.36897,-0.01344 c -0.202937,-0.0074 -0.719416,-0.09 -1.147733,-0.183451 -0.858496,-0.18732 -1.24524,-0.526071 -1.246436,-1.091407 -0.0024,-1.134433 -0.713617,-1.987446 -2.068607,-2.481502 -1.563216,-0.569975 -2.9001,-1.841915 -3.38274,-3.217891 -0.368288,-1.049977 -0.300802,-2.908555 0.144694,-3.98322 0.923909,-2.228723 2.574619,-4.008295 5.447213,-5.871993 1.873668,-1.215611 5.399589,-2.875051 6.190837,-2.940389 z m -1.678967,2.841171 c -0.07292,-0.07292 -0.931764,1.159344 -1.404049,2.014347 -0.715962,1.296145 -0.675272,1.276805 -1.599386,0.763261 -0.871473,-0.484292 -1.593993,-0.670356 -2.045353,-0.5271 -0.257911,0.08186 -0.213262,0.133106 0.412895,0.470772 0.386349,0.208348 0.9228,0.611098 1.192175,0.895036 0.55112,0.580912 0.633462,1.105638 0.29869,1.906861 l -0.191203,0.457853 -0.494543,-0.326595 c -0.605205,-0.399493 -1.510777,-0.728121 -2.00608,-0.728121 -0.202934,0 -0.680773,0.06801 -1.061433,0.151412 l -0.691948,0.151928 0.849044,0.218592 c 0.466917,0.120477 1.083641,0.340618 1.370976,0.488859 0.695022,0.358576 1.502234,1.183693 1.502234,1.535823 0,0.468527 -0.290314,1.7632 -0.395325,1.7632 -0.05385,0 -0.49771,-0.18726 -0.986503,-0.415995 -0.753281,-0.352502 -1.039149,-0.415479 -1.876888,-0.415479 -0.543594,0 -1.101656,0.06278 -1.239718,0.140044 -0.21513,0.120393 -0.14808,0.162183 0.467155,0.289904 0.873031,0.181243 2.115845,0.75538 2.696993,1.245919 0.635404,0.536337 0.858429,1.059 0.948263,2.224671 0.05426,0.704079 0.183172,1.258038 0.395324,1.698087 l 0.31471,0.65319 0.0894,-0.588078 c 0.04918,-0.323251 0.0939,-0.934406 0.09922,-1.358573 0.0091,-0.72478 0.04116,-0.801508 0.532784,-1.269173 0.618897,-0.588743 2.123272,-1.33332 3.140377,-1.554427 0.426719,-0.09276 1.35479,-0.137668 2.256709,-0.109037 1.282106,0.0407 1.494155,0.02089 1.299663,-0.12144 -0.911573,-0.667067 -3.99458,-0.739412 -5.755721,-0.135392 -0.523767,0.179635 -0.982112,0.278055 -1.018543,0.219108 -0.07534,-0.121896 0.03942,-0.895043 0.221692,-1.493966 0.06744,-0.221612 0.282643,-0.551491 0.478524,-0.733289 0.341315,-0.316774 1.602712,-0.848276 2.707328,-1.140498 0.640169,-0.169356 2.425282,-0.176265 3.134692,-0.0124 0.522025,0.120578 0.521953,0.120455 0.212391,-0.113688 -0.679437,-0.513908 -1.588342,-0.73205 -3.020488,-0.724503 -1.094606,0.0058 -1.516427,0.06478 -2.089795,0.293522 -0.395082,0.157616 -0.740455,0.286767 -0.767395,0.286804 -0.02694,3.6e-5 -0.0119,-0.185952 0.03359,-0.413412 0.226766,-1.133835 1.700221,-2.045214 3.956348,-2.446879 l 1.283125,-0.228409 -0.703316,-0.170533 c -0.819678,-0.199071 -2.007005,-0.11853 -2.927987,0.198955 -0.345103,0.118964 -0.648814,0.195061 -0.674894,0.168982 -0.02609,-0.02608 0.211843,-0.748077 0.52865,-1.604554 0.316807,-0.856477 0.554106,-1.579097 0.527617,-1.605586 z" /></g></svg>
