<?xml version="1.0" encoding="UTF-8" standalone="no"?>
<!-- Created with Inkscape (http://www.inkscape.org/) -->

<svg
   width="22.754169mm"
   height="22.754169mm"
   viewBox="0 0 22.754169 22.754169"
   version="1.1"
   id="svg1"
   xml:space="preserve"
   xmlns="http://www.w3.org/2000/svg"
   xmlns:svg="http://www.w3.org/2000/svg"><defs
     id="defs1" /><g
     id="layer1"
     transform="translate(-105.0401,-82.9045)"><path
       id="electric"
       style="fill:#000000;fill-opacity:1;stroke-width:1.78429;stroke-dashoffset:318.954;paint-order:markers stroke fill"
       d="M 116.41718,82.9045 A 11.377081,11.377081 0 0 0 105.0401,94.281584 11.377081,11.377081 0 0 0 116.41718,105.65867 11.377081,11.377081 0 0 0 127.79427,94.281584 11.377081,11.377081 0 0 0 116.41718,82.9045 Z m 1.61024,1.951302 c 0.0247,0.02466 -0.46052,1.645772 -1.07797,3.602365 -0.61745,1.956592 -1.0929,3.587441 -1.05627,3.624068 0.0366,0.03663 1.66844,-0.405923 3.62614,-0.983403 1.9577,-0.577479 3.57882,-1.033443 3.60236,-1.012858 0.0509,0.04456 -7.79204,13.389266 -7.98039,13.578496 -0.0864,0.0868 -0.10788,0.0434 -0.0641,-0.13022 0.0362,-0.14366 0.6118,-2.24541 1.279,-4.670517 0.66718,-2.425113 1.17602,-4.445851 1.13119,-4.490682 -0.0448,-0.04483 -1.80129,0.451496 -3.90312,1.103292 -2.10183,0.651792 -3.8442,1.162208 -3.87211,1.134297 -0.0279,-0.02791 1.82157,-2.694254 4.10982,-5.925219 2.28826,-3.230964 4.18077,-5.854281 4.20543,-5.829619 z" /></g></svg>
