<?xml version="1.0" encoding="UTF-8" standalone="no"?>
<!-- Created with Inkscape (http://www.inkscape.org/) -->

<svg
   width="22.754169mm"
   height="22.753651mm"
   viewBox="0 0 22.754169 22.753651"
   version="1.1"
   id="svg1"
   xml:space="preserve"
   xmlns="http://www.w3.org/2000/svg"
   xmlns:svg="http://www.w3.org/2000/svg"><defs
     id="defs1" /><g
     id="layer1"
     transform="translate(-82.02135,-59.886267)"><path
       id="fighting"
       style="fill:#000000;fill-opacity:1;stroke-width:1.78429;stroke-dashoffset:318.954;paint-order:markers stroke fill"
       d="M 93.398433,59.886267 A 11.377081,11.377081 0 0 0 82.02135,71.26335 11.377081,11.377081 0 0 0 93.398433,82.639917 11.377081,11.377081 0 0 0 104.77552,71.26335 11.377081,11.377081 0 0 0 93.398433,59.886267 Z m 2.070158,2.376082 c 0.584671,10e-4 1.190428,0.03625 1.346171,0.07803 0.520057,0.139498 0.581689,0.59523 0.540019,4.008024 -0.04701,3.850524 0.03809,3.649305 -1.569413,3.696415 -0.595281,0.01743 -1.209917,0.0035 -1.366325,-0.03101 -0.607435,-0.133966 -0.629936,-0.271678 -0.629936,-3.86643 v -3.387391 l 0.307992,-0.249597 c 0.247629,-0.200476 0.517744,-0.249447 1.371492,-0.248047 z m -4.322216,0.06356 c 0.962272,0 1.425067,0.05266 1.577681,0.179318 0.190919,0.158451 0.21574,0.575064 0.21394,3.591512 -0.0011,1.876836 -0.04915,3.486976 -0.10697,3.578076 -0.220165,0.346873 -1.709796,0.52707 -2.730582,0.330212 -0.643289,-0.124061 -0.68678,-0.3708 -0.68678,-3.895369 0,-2.623548 0.03708,-3.327013 0.185518,-3.530017 0.162989,-0.222901 0.349875,-0.253732 1.547193,-0.253732 z m -4.146517,0.982369 c 0.738739,0.0024 1.477935,0.146295 1.658296,0.429948 0.05423,0.0853 0.09915,1.424284 0.100253,2.975529 0.0024,3.389133 0.05466,3.275487 -1.534274,3.332097 -0.55583,0.01982 -1.128088,0.004 -1.271757,-0.03514 -0.703254,-0.191635 -0.718435,-0.261734 -0.716235,-3.296957 0.0011,-1.551245 0.04966,-2.894764 0.107487,-2.985864 0.179311,-0.282509 0.917492,-0.422013 1.65623,-0.419613 z m 12.178068,0.0036 c 0.170819,-7.4e-4 0.380221,0.0044 0.643371,0.01395 1.760873,0.06457 1.673283,-0.111634 1.673283,3.374988 0,2.479948 -0.0285,2.893016 -0.21394,3.078365 -0.23917,0.23908 -2.143855,0.385458 -2.723348,0.20929 -0.600397,-0.182525 -0.661205,-0.518785 -0.623735,-3.462838 0.0346,-2.718472 0.03531,-2.722023 0.357601,-2.982764 0.210971,-0.170684 0.374311,-0.228793 0.886768,-0.230993 z m -9.635588,7.56853 c 2.866887,0 3.318509,0.02742 3.6158,0.222209 0.405289,0.265556 0.696082,0.903817 0.696082,1.528072 0,1.090857 -0.495352,1.531442 -1.862419,1.656746 -1.231441,0.112876 -1.523074,0.401526 -1.65933,1.642794 -0.109717,0.999479 -0.294271,1.391768 -0.754476,1.601453 -0.168878,0.07694 -1.035964,0.140043 -1.926498,0.140043 -1.522839,0 -1.640754,-0.0185 -1.985408,-0.31471 l -0.366386,-0.315226 -0.04082,-2.511475 c -0.02832,-1.745128 0.0071,-2.627773 0.116272,-2.891296 0.293588,-0.708789 0.56816,-0.75861 4.167187,-0.75861 z m 8.709029,0 h 2.420523 l 0.4439,0.443901 0.44442,0.4439 -5.2e-4,2.461865 c -5.2e-4,2.217032 -0.0262,2.503942 -0.25735,2.883029 -0.29117,0.47754 -0.44479,0.525842 -1.897555,0.595312 -1.099896,0.05259 -1.789395,0.302324 -1.959053,0.709517 -0.05349,0.128365 -0.134308,0.585994 -0.179318,1.016993 l -0.08165,0.783931 -3.758427,0.03462 c -3.114477,0.02872 -3.77036,0.0034 -3.82819,-0.147277 h 5.16e-4 c -0.03836,-0.100023 -0.0517,-0.466464 -0.02945,-0.813904 0.03881,-0.605879 0.05894,-0.635287 0.495577,-0.723987 0.261361,-0.0531 0.609206,-0.264621 0.816487,-0.496611 0.302152,-0.338162 0.360702,-0.521687 0.360702,-1.126546 0,-0.783997 0.248714,-1.407975 0.645955,-1.620573 0.1382,-0.07397 0.56383,-0.135326 0.945679,-0.136426 1.392144,-0.0039 1.811226,-0.49744 1.864486,-2.196765 0.04092,-1.305495 0.227673,-1.767291 0.804085,-1.986442 0.180504,-0.06863 1.417758,-0.12454 2.749186,-0.12454 z" /></g></svg>
