<?xml version="1.0" encoding="UTF-8" standalone="no"?>
<!-- Created with Inkscape (http://www.inkscape.org/) -->

<svg
   width="22.754169mm"
   height="22.753651mm"
   viewBox="0 0 22.754169 22.753651"
   version="1.1"
   id="svg1"
   xml:space="preserve"
   xmlns="http://www.w3.org/2000/svg"
   xmlns:svg="http://www.w3.org/2000/svg"><defs
     id="defs1" /><g
     id="layer1"
     transform="translate(-128.05885,-59.886267)"><path
       id="steel"
       style="fill:#000000;fill-opacity:1;stroke-width:1.78429;stroke-dashoffset:318.954;paint-order:markers stroke fill"
       d="M 139.43593,59.886267 A 11.377081,11.377081 0 0 0 128.05885,71.26335 11.377081,11.377081 0 0 0 139.43593,82.639917 11.377081,11.377081 0 0 0 150.81302,71.26335 11.377081,11.377081 0 0 0 139.43593,59.886267 Z m 3.93981,3.486092 c 0.72109,-0.0091 2.56632,0.04773 2.71457,0.09095 0.17493,0.051 2.65111,4.0371 2.91093,4.686019 0.0747,0.186515 -0.0853,0.646841 -0.57877,1.668632 l -0.68162,1.411283 h -1.15186 c -0.63367,0 -1.15239,-0.03594 -1.15239,-0.07906 0,-0.04312 0.32374,-0.654131 0.71882,-1.358057 0.39509,-0.703923 0.7151,-1.359242 0.7121,-1.456241 -0.0114,-0.34892 -1.24268,-2.377603 -1.60559,-2.645317 -0.33352,-0.245978 -0.5226,-0.270409 -1.8712,-0.239779 l -1.50017,0.03462 0.55759,-1.046448 c 0.30661,-0.575448 0.61957,-1.051317 0.69557,-1.057817 0.0489,-0.0042 0.129,-0.0075 0.23202,-0.0088 z m -7.46879,0.08527 0.51573,0.947229 0.51573,0.946713 h -1.51463 -1.51464 l -0.40721,0.435632 c -0.61613,0.65905 -1.38741,2.051376 -1.38441,2.500106 0.002,0.366283 0.12863,0.633379 1.09967,2.321305 l 0.35657,0.620117 h -1.22215 -1.22215 l -0.68006,-1.367358 c -0.46123,-0.927414 -0.64906,-1.443262 -0.58446,-1.60352 0.18734,-0.46497 2.54905,-4.473388 2.7187,-4.614189 0.10128,-0.08406 0.82681,-0.152417 1.74821,-0.164847 z m 3.44372,4.113961 h 4.75423 l -1.64021,2.84117 c -0.90222,1.562382 -1.97663,3.418077 -2.38745,4.124296 l -0.74724,1.28416 -1.53738,-2.655135 c -0.84576,-1.460473 -1.91129,-3.292348 -2.36729,-4.070553 -0.45601,-0.778204 -0.82889,-1.439231 -0.82889,-1.469161 0,-0.02993 2.13943,-0.05478 4.75423,-0.05478 z m -3.32486,8.034652 c 0.005,-0.0011 0.009,-6.5e-4 0.0134,0.0015 0.0594,0.03671 0.40604,0.587843 0.7705,1.224732 0.36446,0.636886 0.74169,1.223706 0.83819,1.303796 0.0965,0.08009 0.78639,0.179378 1.53324,0.220658 1.70842,0.09442 1.96468,-0.03868 2.71663,-1.408182 0.89204,-1.624641 0.80818,-1.593375 1.43092,-0.5271 0.2975,0.509388 0.53785,1.033137 0.53485,1.16427 -0.003,0.131132 -0.37056,0.767364 -0.81649,1.413867 l -0.8108,1.175639 -2.74247,0.03204 c -1.50831,0.01765 -2.80616,-0.01153 -2.88406,-0.06511 -0.20736,-0.142626 -1.75183,-2.478575 -1.75183,-2.649451 0,-0.24332 1.00211,-1.850246 1.16789,-1.886706 z" /></g></svg>
