<?xml version="1.0" encoding="UTF-8" standalone="no"?>
<!-- Created with Inkscape (http://www.inkscape.org/) -->

<svg
   width="22.754169mm"
   height="22.753651mm"
   viewBox="0 0 22.754169 22.753651"
   version="1.1"
   id="svg1"
   xml:space="preserve"
   xmlns="http://www.w3.org/2000/svg"
   xmlns:svg="http://www.w3.org/2000/svg"><defs
     id="defs1" /><g
     id="layer1"
     transform="translate(-82.02135,-105.92377)"><path
       id="dragon"
       style="fill:#000000;fill-opacity:1;stroke-width:1.78429;stroke-dashoffset:318.954;paint-order:markers stroke fill"
       d="M 93.398433,105.92377 A 11.377081,11.377081 0 0 0 82.02135,117.30033 11.377081,11.377081 0 0 0 93.398433,128.67742 11.377081,11.377081 0 0 0 104.77552,117.30033 11.377081,11.377081 0 0 0 93.398433,105.92377 Z m -2.133203,2.28151 c 1.438847,-0.006 2.975798,0.38509 4.513937,1.18132 0.990887,0.51294 2.029295,1.32916 1.880505,1.47795 -0.03981,0.0398 -0.371284,-0.0791 -0.736389,-0.26407 -1.419424,-0.71928 -3.253803,-0.92269 -4.766634,-0.52865 -2.049782,0.5339 -3.215308,1.95987 -3.215308,3.93361 0,1.54498 1.043709,3.76051 2.287716,4.85552 0.597659,0.52608 2.122006,1.40543 2.237073,1.29036 0.03641,-0.0364 -0.05251,-0.49753 -0.197921,-1.02474 -0.651628,-2.36263 -1.464872,-5.62597 -1.428337,-5.73092 0.02207,-0.0634 1.656393,1.35879 3.63182,3.16002 1.975427,1.80123 4.311444,3.92484 5.191418,4.7196 0.87996,0.79477 1.5999,1.53848 1.5999,1.65262 0,0.36139 -1.14809,1.53712 -2.16524,2.21743 -1.536244,1.0275 -3.273652,1.42732 -5.127856,1.17926 -3.424051,-0.45807 -7.478157,-3.59537 -9.207707,-7.12463 -1.831785,-3.73789 -1.613782,-6.79564 0.642855,-9.01961 1.322209,-1.30307 3.010223,-1.96736 4.860168,-1.97507 z m 3.830774,10.62106 c -0.09622,0.0962 0.276139,1.62151 0.426331,1.74615 0.163685,0.13585 1.44847,0.50402 1.823144,0.52244 0.205645,0.0101 0.186152,-0.0516 -0.130741,-0.41547 -0.478378,-0.54918 -2.048938,-1.92292 -2.118734,-1.85312 z" /></g></svg>
