<?xml version="1.0" encoding="UTF-8" standalone="no"?>
<!-- Created with Inkscape (http://www.inkscape.org/) -->

<svg
   width="22.754169mm"
   height="22.754169mm"
   viewBox="0 0 22.754169 22.754169"
   version="1.1"
   id="svg1"
   xml:space="preserve"
   xmlns="http://www.w3.org/2000/svg"
   xmlns:svg="http://www.w3.org/2000/svg"><defs
     id="defs1" /><g
     id="layer1"
     transform="translate(-82.02135,-82.9045)"><path
       id="psychic"
       style="fill:#000000;fill-opacity:1;stroke-width:1.78429;stroke-dashoffset:318.954;paint-order:markers stroke fill"
       d="M 93.398433,82.9045 A 11.377081,11.377081 0 0 0 82.02135,94.281584 11.377081,11.377081 0 0 0 93.398433,105.65867 11.377081,11.377081 0 0 0 104.77552,94.281584 11.377081,11.377081 0 0 0 93.398433,82.9045 Z m 0.293523,3.949113 c 2.907331,0.04436 5.618208,1.50534 7.811924,4.235401 1.02252,1.272512 2.08152,3.096186 2.08153,3.584794 1e-5,0.500932 -1.44144,2.600416 -2.543,3.704166 -2.709202,2.714576 -6.305019,3.856156 -9.791649,3.108856 -2.636257,-0.56504 -4.61343,-1.939043 -6.725688,-4.674651 -1.152849,-1.493072 -1.315003,-1.76282 -1.314131,-2.18643 3.44e-4,-0.166349 0.482563,-1.066557 1.071252,-2.000395 1.210404,-1.920061 2.78779,-3.613223 4.067452,-4.365625 1.108342,-0.65167 2.674621,-1.164575 4.085022,-1.337903 0.422414,-0.05191 0.841954,-0.07455 1.257288,-0.06821 z m 2.68304,2.601909 c -0.0317,0.0012 -0.05614,0.0091 -0.07183,0.0248 -0.03995,0.03995 0.233484,0.396505 0.607715,0.7922 0.924015,0.97701 1.350198,1.943495 1.424719,3.230811 0.123489,2.133184 -0.882238,3.905924 -2.759005,4.862752 -0.953006,0.485869 -1.080387,0.51607 -2.150773,0.513147 -1.435274,-0.0039 -2.310072,-0.324613 -3.307808,-1.21388 -2.216217,-1.975282 -2.332774,-5.247357 -0.265617,-7.449157 0.343306,-0.365667 0.598384,-0.690427 0.56689,-0.72192 -0.226497,-0.226497 -2.499682,1.399878 -3.423564,2.449463 -0.69064,0.784608 -1.694659,2.324812 -1.694987,2.599841 -5.03e-4,0.411451 1.562642,2.301802 2.583305,3.123841 1.160018,0.934277 2.731205,1.734164 3.950147,2.011246 1.025045,0.233012 2.876177,0.167192 3.91449,-0.139009 1.709294,-0.504079 3.373105,-1.644763 4.605402,-3.157947 0.9287,-1.140377 1.26945,-1.714691 1.17357,-1.977657 -0.12688,-0.347962 -1.07748,-1.731318 -1.686716,-2.454631 -0.816627,-0.969528 -2.990487,-2.511792 -3.465938,-2.493904 z m -2.944523,1.931148 c -0.305293,-0.0011 -0.555005,0.02577 -0.555005,0.05994 0,0.03418 0.11705,0.254696 0.260449,0.489892 0.729577,1.196617 -0.292044,2.759967 -1.63866,2.507341 -0.550485,-0.103272 -0.563139,0.01094 -0.07545,0.684196 0.640987,0.884858 1.796522,1.206205 2.796728,0.778247 2.24432,-0.96028 1.625265,-4.510279 -0.788065,-4.519621 z" /></g></svg>
