<?xml version="1.0" encoding="UTF-8" standalone="no"?>
<!-- Created with Inkscape (http://www.inkscape.org/) -->

<svg
   width="22.754169mm"
   height="22.754169mm"
   viewBox="0 0 22.754169 22.754169"
   version="1.1"
   id="svg1"
   xml:space="preserve"
   xmlns="http://www.w3.org/2000/svg"
   xmlns:svg="http://www.w3.org/2000/svg"><defs
     id="defs1" /><g
     id="layer1"
     transform="translate(-128.05885,-82.9045)"><path
       id="dark"
       style="fill:#000000;fill-opacity:1;stroke-width:1.78429;stroke-dashoffset:318.954;paint-order:markers stroke fill"
       d="M 139.43593,82.9045 A 11.377081,11.377081 0 0 0 128.05885,94.281584 11.377081,11.377081 0 0 0 139.43593,105.65867 11.377081,11.377081 0 0 0 150.81302,94.281584 11.377081,11.377081 0 0 0 139.43593,82.9045 Z m -2.6386,3.410128 -0.45888,0.762227 c -0.55721,0.925332 -0.74871,1.583309 -0.73742,2.531112 0.0105,0.883961 0.27526,1.542058 0.8971,2.230355 0.79799,0.883281 1.48641,1.205881 2.71198,1.270207 1.32656,0.06963 2.153,-0.240737 2.95331,-1.108977 1.23961,-1.344828 1.37011,-2.757152 0.42581,-4.605403 -0.29543,-0.578236 -0.48013,-1.051616 -0.41031,-1.051616 0.0698,0 0.51922,0.156422 0.99839,0.347266 2.76842,1.102607 4.76251,3.368987 5.32474,6.052344 0.66757,3.18612 -1.05555,6.512025 -4.21008,8.125597 -1.43417,0.73358 -2.56501,1.10918 -3.83543,1.27383 -1.11792,0.14488 -1.21868,0.14439 -2.28048,-0.0103 -1.14997,-0.16753 -2.088,-0.46851 -3.19619,-1.02577 -3.16347,-1.590769 -4.75319,-3.92921 -4.75319,-6.991825 0,-2.16675 0.6845,-3.749307 2.32182,-5.370215 0.86855,-0.859845 1.30408,-1.174389 2.30218,-1.66243 0.67705,-0.331055 1.39165,-0.639084 1.58854,-0.684196 z" /></g></svg>
