<?xml version="1.0" encoding="UTF-8" standalone="no"?>
<!-- Created with Inkscape (http://www.inkscape.org/) -->

<svg
   width="22.754169mm"
   height="22.754168mm"
   viewBox="0 0 22.754169 22.754168"
   version="1.1"
   id="svg1"
   xml:space="preserve"
   xmlns="http://www.w3.org/2000/svg"
   xmlns:svg="http://www.w3.org/2000/svg"><defs
     id="defs1" /><g
     id="layer1"
     transform="translate(-128.05885,-36.867)"><path
       id="water"
       style="fill:#000000;fill-opacity:1;stroke-width:1.78429;stroke-dashoffset:318.954;paint-order:markers stroke fill"
       d="M 139.43593,36.867 A 11.377081,11.377081 0 0 0 128.05885,48.244084 11.377081,11.377081 0 0 0 139.43593,59.621167 11.377081,11.377081 0 0 0 150.81302,48.244084 11.377081,11.377081 0 0 0 139.43593,36.867 Z m 7.12308,3.116606 c 0.38191,-0.0092 0.55128,0.02486 0.36691,0.112138 -0.17958,0.08501 -0.85574,0.399702 -1.50224,0.699699 -1.37103,0.636194 -2.17063,1.360558 -2.64893,2.399336 -0.64252,1.395442 -0.21073,2.596046 1.80971,5.031218 0.64892,0.782123 1.31562,1.692868 1.48156,2.024166 0.66867,1.335027 0.75685,2.855006 0.22583,3.895886 -0.97184,1.904969 -4.20117,2.82344 -7.48895,2.130103 -1.52442,-0.321471 -1.95903,-0.469851 -3.10937,-1.061951 -2.45569,-1.263987 -3.81591,-3.326778 -3.82303,-5.798096 -0.0131,-4.549031 4.06191,-7.720675 11.65924,-9.074381 1.16541,-0.207656 2.39276,-0.342787 3.02927,-0.358118 z m -9.93686,12.657625 c -0.74346,-0.02053 -0.97961,0.121692 -1.11673,0.584461 -0.17258,0.582461 1.41425,1.804578 2.75022,2.118217 0.82304,0.193214 1.79022,0.166793 2.11099,-0.05788 0.44628,-0.312589 0.36303,-0.745101 -0.24908,-1.298112 -0.82379,-0.744246 -2.01629,-1.248319 -3.14452,-1.328601 -0.12812,-0.0091 -0.24467,-0.01515 -0.35088,-0.01809 z" /></g></svg>
