<?xml version="1.0" encoding="UTF-8" standalone="no"?>
<!-- Created with Inkscape (http://www.inkscape.org/) -->

<svg
   width="22.754169mm"
   height="22.753651mm"
   viewBox="0 0 22.754169 22.753651"
   version="1.1"
   id="svg1"
   xml:space="preserve"
   xmlns="http://www.w3.org/2000/svg"
   xmlns:svg="http://www.w3.org/2000/svg"><defs
     id="defs1" /><g
     id="layer1"
     transform="translate(-105.0401,-105.92377)"><path
       id="fairy"
       style="fill:#000000;fill-opacity:1;stroke-width:1.78429;stroke-dashoffset:318.954;paint-order:markers stroke fill"
       d="m 116.41718,105.92377 a 11.377081,11.377081 0 0 0 -11.37708,11.37656 11.377081,11.377081 0 0 0 11.37708,11.37709 11.377081,11.377081 0 0 0 11.37709,-11.37709 11.377081,11.377081 0 0 0 -11.37709,-11.37656 z m -0.2036,2.85977 c 0.12183,0.002 0.23135,0.32442 0.46922,1.01389 0.45447,1.31734 1.53056,2.08373 2.94039,2.09393 0.53806,0.004 0.55708,0.0162 0.31161,0.19999 -1.32491,0.99188 -2.80026,2.93471 -3.32796,4.38216 -0.16726,0.45879 -0.34038,0.87641 -0.38448,0.92811 -0.0441,0.0517 -0.21612,-0.28451 -0.38189,-0.74672 -0.54806,-1.52818 -1.69663,-3.05595 -3.04735,-4.05402 l -0.74156,-0.54829 0.7152,-0.0739 c 1.32686,-0.13694 2.23263,-0.88699 2.9993,-2.48408 0.22332,-0.46522 0.34003,-0.71307 0.44752,-0.71107 z m 7.53339,2.94814 c 0.06,0.0129 0.16753,0.13871 0.32401,0.37517 1.06294,1.60622 1.50113,3.26693 1.37046,5.1971 -0.16208,2.39397 -0.94715,4.22937 -2.43138,5.68493 -1.10611,1.08474 -2.13694,1.68023 -3.95324,2.28358 -1.67961,0.55794 -2.89776,0.67857 -4.08503,0.40462 -2.08319,-0.48067 -4.1749,-1.68542 -5.65495,-3.25716 -1.9409,-2.06115 -2.51298,-5.8896 -1.34204,-8.98447 0.36322,-0.95999 1.08956,-1.97982 1.16066,-1.62987 0.0274,0.13471 -0.0558,0.57574 -0.18449,0.97978 -0.33667,1.05697 -0.30823,2.73391 0.0625,3.69228 0.38555,0.9966 1.05495,1.71932 2.82515,3.04891 2.23515,1.67882 3.58402,3.32395 4.27209,5.21106 0.26112,0.71614 0.29138,0.75029 0.4067,0.4594 0.94827,-2.3922 2.04034,-3.78008 4.38888,-5.57847 2.22445,-1.70337 2.82497,-2.46692 3.14037,-3.99356 0.17122,-0.82876 0.10662,-1.7499 -0.2098,-2.99878 -0.1577,-0.62246 -0.18993,-0.91592 -0.0899,-0.89452 z" /></g></svg>
