<?xml version="1.0" encoding="UTF-8" standalone="no"?>
<svg
   version="1.1"
   id="template"
   x="0px"
   y="0px"
   width="825"
   height="1125"
   viewBox="0 0 825 1125"
   enable-background="new 0 0 270 414"
   xml:space="preserve"
   sodipodi:docname="BokemonFront.svg"
   inkscape:version="1.3.2 (091e20e, 2023-11-25, custom)"
   xmlns:inkscape="http://www.inkscape.org/namespaces/inkscape"
   xmlns:sodipodi="http://sodipodi.sourceforge.net/DTD/sodipodi-0.dtd"
   xmlns="http://www.w3.org/2000/svg"
   xmlns:svg="http://www.w3.org/2000/svg"><defs
     id="defs728"><rect
       x="95.000002"
       y="700.00001"
       width="600.04908"
       height="289.30965"
       id="rect7" /><rect
       x="95"
       y="700"
       width="628.33337"
       height="291.66666"
       id="rect7-4" /><rect
       x="95"
       y="700"
       width="449.60829"
       height="292.86616"
       id="rect7-4-2" /><rect
       x="95"
       y="700"
       width="449.60828"
       height="292.86615"
       id="rect7-4-2-0" /><rect
       x="95"
       y="700"
       width="449.60829"
       height="292.86616"
       id="rect8" /></defs><sodipodi:namedview
     id="namedview726"
     pagecolor="#ffffff"
     bordercolor="#999999"
     borderopacity="1"
     showgrid="false"
     inkscape:showpageshadow="0"
     inkscape:pageopacity="0"
     inkscape:pagecheckerboard="0"
     inkscape:deskcolor="#d1d1d1"
     inkscape:zoom="0.84852812"
     inkscape:cx="203.88246"
     inkscape:cy="859.72401"
     inkscape:window-width="1920"
     inkscape:window-height="1009"
     inkscape:window-x="-8"
     inkscape:window-y="-8"
     inkscape:window-maximized="1"
     inkscape:current-layer="template" /><path
     id="rect1"
     style="fill:#0d0d0d;fill-opacity:1;stroke-width:9.40145;stroke-linecap:round;stroke-linejoin:round;paint-order:markers fill stroke"
     d="M 0 0 L 0 1125 L 825 1125 L 825 0 L 0 0 z M 92.914062 156.59375 L 723.5918 156.59375 L 723.5918 618.43555 L 92.914062 618.43555 L 92.914062 156.59375 z " /><path
     id="clipping"
     style="fill:#000000;fill-opacity:1;stroke-width:8.60825;stroke-linecap:round;stroke-linejoin:round;paint-order:markers fill stroke"
     d="M 69.591797 38.576172 C 52.971813 38.576172 39.591797 51.956188 39.591797 68.576172 L 39.591797 1051.8652 C 39.591797 1068.4852 52.971813 1081.8652 69.591797 1081.8652 L 755.4082 1081.8652 C 772.02819 1081.8652 785.4082 1068.4852 785.4082 1051.8652 L 785.4082 68.576172 C 785.4082 51.956188 772.02819 38.576172 755.4082 38.576172 L 69.591797 38.576172 z M 92.914062 156.59375 L 723.5918 156.59375 L 723.5918 618.43555 L 92.914062 618.43555 L 92.914062 156.59375 z " /><path
     id="rect2"
     style="fill:#c4c4c4;fill-opacity:1;stroke-width:8.46778;stroke-linecap:round;stroke-linejoin:round;paint-order:markers fill stroke"
     d="m 106.67286,78.714844 c -16.619991,0 -30.000008,12.27177 -30.000008,27.515626 v 831.15625 c 0,15.24385 13.380017,27.51562 30.000008,27.51562 h 611.65429 c 16.61999,0 30,-12.27177 30,-27.51562 V 106.23047 c 0,-15.243856 -13.38001,-27.515626 -30,-27.515626 z M 92.915039,156.59375 H 723.59278 v 461.8418 H 92.915039 Z" /><path
     id="path6"
     style="color:#000000;fill:#000000;fill-opacity:1;stroke-dashoffset:318.954;-inkscape-stroke:none;paint-order:markers stroke fill"
     d="m 88.837891,84.949219 -1.503907,1.669922 c 0,0 -11.820001,12.946336 -11.167968,31.693359 0.43445,12.49118 3.057488,20.39064 5.925781,25.32617 1.434145,2.46778 2.92709,4.17967 4.166015,5.3086 1.238928,1.1289 1.618913,1.75474 1.618913,1.75474 l -0.01349,0.84096 v 5.05078 247.79492 l -2.3125,221.88477 c -3.259874,4.43765 -9.878702,15.24764 -9.384765,29.44922 0.43445,12.49113 3.05749,20.39062 5.925781,25.32617 0.964395,1.65946 1.927466,2.87025 2.849609,3.89844 l -0.02344,2.15625 h 0 v 5.05078 314.5625 h 648.4356 V 687.10352 l 1.05859,-6.05469 c 2.86767,-4.9355 5.49132,-12.83518 5.92578,-25.32617 0.65196,-18.74661 -11.16406,-31.69336 -11.16406,-31.69336 l -0.53125,-0.58985 V 151.54297 l 0.005,-1.0251 c 0,0 0.36178,-0.44166 1.6005,-1.5706 1.23871,-1.12897 2.73022,-2.84085 4.16406,-5.3086 2.86767,-4.93547 5.49132,-12.83512 5.92578,-25.32617 0.65196,-18.746576 -11.16406,-31.693359 -11.16406,-31.693359 L 727.668,84.949219 Z m 4.076171,71.644531 H 723.5918 v 461.8418 H 92.914062 Z"
     sodipodi:nodetypes="ccssscccccssccccccccsccccssscccccccc" /><text
     xml:space="preserve"
     style="font-style:italic;font-size:36px;line-height:1.1;font-family:'Comic Sans MS';-inkscape-font-specification:'Comic Sans MS Italic';text-align:end;text-anchor:end;fill:none;stroke:#000000;stroke-width:2.47181;stroke-dashoffset:318.954;paint-order:markers stroke fill"
     x="719.56317"
     y="128.76225"
     id="text1"><tspan
       sodipodi:role="line"
       id="tspan1"
       x="719.56317"
       y="128.76225"
       style="font-style:normal;font-variant:normal;font-weight:normal;font-stretch:normal;font-family:Arial;-inkscape-font-specification:Arial;text-align:end;text-anchor:end;fill:#000000;fill-opacity:1;stroke:none">Power: {types}</tspan></text><path
     id="path3-5"
     style="fill:#f8f8f8;stroke-width:6;stroke-dashoffset:318.954;paint-order:markers stroke fill;fill-opacity:1"
     d="m 91.08669,627.4101 c 0,0 -10.44644,11.5944 -9.87109,28.1368 0.82508,23.7223 9.87109,28.1367 9.87109,28.1367 h 634.33404 c 0,0 9.044,-4.4144 9.8691,-28.1367 0.5753,-16.5423 -9.8691,-28.1368 -9.8691,-28.1368 z" /><path
     id="path3-2-1"
     style="fill:#f8f8f8;stroke-width:6;stroke-dashoffset:318.954;paint-order:markers stroke fill;fill-opacity:1"
     d="m 91.08672,89.99997 c 0,0 -10.44644,11.59439 -9.87109,28.13672 0.82508,23.72234 9.87109,28.13671 9.87109,28.13671 h 634.33401 c 0,0 9.044,-4.41434 9.8691,-28.13671 0.5753,-16.54229 -9.8691,-28.13672 -9.8691,-28.13672 z" /><rect
     style="fill:#f8f8f8;stroke:none;stroke-width:6.01146;stroke-dashoffset:318.954;stroke-opacity:1;paint-order:markers stroke fill;fill-opacity:1"
     id="rect4-4"
     width="638.33337"
     height="309.51184"
     x="89.968811"
     y="692.15479" /><path
     style="fill:#f8f8f8;stroke:#000000;stroke-width:6;stroke-dashoffset:318.954;stroke-opacity:1;paint-order:markers stroke fill;fill-opacity:1"
     d="m 730.74963,966.3793 c 22.6864,34.4714 0,60.1041 0,60.1041 h -107.5391 c -20.0347,-34.1769 0,-60.1041 0,-60.1041 z"
     id="path4-4" /><text
     xml:space="preserve"
     id="text7"
     style="font-size:30px;line-height:1.1;font-family:Arial;-inkscape-font-specification:Arial;text-align:start;white-space:pre;shape-inside:url(#rect7);display:inline;fill:#000000;fill-opacity:1;stroke:none;stroke-width:10.103;stroke-dasharray:none;stroke-dashoffset:318.954;stroke-opacity:1;paint-order:markers stroke fill"
     transform="translate(13.235625,8.2495793)"
     x="-41.689453"
     y="0"><tspan
       x="95"
       y="724.77263"
       id="tspan2">{rules}</tspan></text><text
     xml:space="preserve"
     id="text7-1"
     style="font-size:30px;line-height:1.1;font-family:Arial;-inkscape-font-specification:Arial;text-align:start;white-space:pre;shape-inside:url(#rect7-4);display:inline;fill:#000000;fill-opacity:1;stroke:none;stroke-width:10.103;stroke-dasharray:none;stroke-dashoffset:318.954;stroke-opacity:1;paint-order:markers stroke fill"
     transform="translate(-0.68334961,-59.988972)"
     x="-41.689453"
     y="0"><tspan
       x="95"
       y="724.77263"
       id="tspan3">{type}</tspan></text><text
     xml:space="preserve"
     id="text7-1-5"
     style="font-size:30px;line-height:1.1;font-family:Arial;-inkscape-font-specification:Arial;text-align:start;white-space:pre;shape-inside:url(#rect7-4-2);display:inline;fill:#000000;fill-opacity:1;stroke:none;stroke-width:10.103;stroke-dasharray:none;stroke-dashoffset:318.954;stroke-opacity:1;paint-order:markers stroke fill"
     transform="matrix(1.3894711,0,0,1.3894711,-40.064009,-875.46429)"
     x="-41.689453"
     y="0"><tspan
       x="95"
       y="724.77263"
       id="tspan4">{name}</tspan></text><text
     xml:space="preserve"
     id="text7-1-5-6"
     style="font-size:41.6841px;line-height:1.1;font-family:Arial;-inkscape-font-specification:Arial;text-align:center;text-anchor:middle;white-space:pre;fill:#000000;fill-opacity:1;stroke:none;stroke-width:14.0378;stroke-dasharray:none;stroke-dashoffset:318.954;stroke-opacity:1;paint-order:markers stroke fill"
     x="677.57501"
     y="1007.2188"><tspan
       id="tspan1-42"
       style="text-align:center;text-anchor:middle;stroke-width:14.0378">{a}/{d}</tspan></text><text
     xml:space="preserve"
     id="text8"
     style="font-size:30px;line-height:1.1;font-family:Arial;-inkscape-font-specification:Arial;text-align:end;white-space:pre;shape-inside:url(#rect8);display:inline;fill:#000000;fill-opacity:1;stroke:none;stroke-width:10.103;stroke-dasharray:none;stroke-dashoffset:318.954;stroke-opacity:1;paint-order:markers stroke fill"
     transform="matrix(1.3894711,0,0,1.3894711,-40.064009,-875.46429)"
     x="51.708984"
     y="0"><tspan
       x="452.86426"
       y="724.77263"
       id="tspan5">{types}</tspan></text></svg>
