<svg xmlns="http://www.w3.org/2000/svg" width="24" height="24" fill="#efb521" className="bi " viewBox="0 0 16 16">
            <path d="M 7.9297183,0.01606629 C 7.5985533,0.01629296 7.2666883,0.02139962 7.1633534,0.03373295 7.0119177,0.0513996 6.6242187,0.10755956 6.423949,0.14232621 6.2861269,0.16499286 6.1213111,0.20632616 5.7593856,0.30383276 5.4908881,0.37639938 4.9511933,0.57133924 4.7310966,0.67507248 4.0281593,1.0062989 3.6249531,1.2468721 3.1025519,1.6485451 2.9737899,1.7475651 2.8651949,1.8342383 2.8601548,1.8402917 2.8548248,1.845625 2.7616338,1.9299849 2.6535384,2.0242182 2.4408818,2.2101647 2.1295437,2.5256912 1.951581,2.736531 1.890113,2.809351 1.8349193,2.8725976 1.8286192,2.8786443 1.8232892,2.8839776 1.7401782,2.9867309 1.6474564,3.1079241 1.4625069,3.3490506 1.1600223,3.8030303 1.0637209,3.9817702 1.0299869,4.0439701 0.9951798,4.1029634 0.987373,4.1148101 0.9127852,4.2115634 0.52750598,5.0677161 0.45299818,5.3025226 c -0.0151336,0.0416 -0.0416006,0.1257266 -0.063001,0.1856999 -0.0201336,0.0602 -0.0526675,0.1567132 -0.069041,0.2159265 -0.0151336,0.058933 -0.0350005,0.1332866 -0.0436007,0.1645265 -0.0466007,0.1695666 -0.0730744,0.2791998 -0.10204822,0.4150531 -0.0176669,0.082893 -0.0403339,0.1849399 -0.0491341,0.2265198 -0.007533,0.0416 -0.022667,0.1433599 -0.03600054,0.2265068 -0.0126002,0.082893 -0.02920045,0.2018199 -0.03880059,0.2640331 -0.07256777,0.4746397 -0.06727436,1.487039 0.01260019,2.0781319 0.02593372,0.1960332 0.05440082,0.3901664 0.06426764,0.4316397 0.007533,0.0418 0.0259337,0.1211933 0.0388006,0.1781332 0.0126002,0.0572 0.0345339,0.1514266 0.0491341,0.2083732 0.0151336,0.056933 0.0345339,0.1330397 0.0436007,0.1690667 0.007533,0.03627 0.0546675,0.19048 0.10154155,0.341053 0.0468674,0.150673 0.085168,0.28096 0.085168,0.2928 0,0.0126 0.0151336,0.03853 0.0330005,0.06473 l 0.0330005,0.04687 0.0126002,-0.09348 c 0.007533,-0.08541 0.0496008,-0.207613 0.20207644,-0.599133 0.0524008,-0.1348001 0.0914681,-0.1587334 0.11817513,-0.07105 0.007533,0.03073 0.0126002,0.0075 0.007533,-0.062 -0.002667,-0.0602 0.001333,-0.1133866 0.0126002,-0.1191799 0.0176669,-0.0126 0.39435262,-0.0358 0.98786832,-0.064733 0.2108966,-0.0126 0.4975876,-0.0262 0.636143,-0.036267 0.2129166,-0.015133 0.2557773,-0.015133 0.281251,0.00753 0.00533,0.00267 0.0126,0.00753 0.020134,0.0126 -0.094488,-0.0262 -0.1904895,-0.022667 -0.4460601,-0.00533 -0.1932563,0.0126 -0.5369682,0.030733 -0.7633649,0.042333 -0.2265168,0.0126 -0.478994,0.0262 -0.5613086,0.033267 l -0.14992225,0.0126 -0.005333,0.1191799 c -0.002667,0.092726 0.002,0.130513 0.0259337,0.156966 0.0176669,0.02013 0.0385339,0.0348 0.0466007,0.0348 0.007533,0 0.0796212,0.03953 0.16024915,0.08769 0.306298,0.18342 0.7500914,0.370826 1.0821831,0.457279 0.1433688,0.03727 0.3792658,0.07735 0.461027,0.07861 0.045134,0 0.1161618,0.0075 0.1574824,0.01767 v 0.0013 c 0.074835,0.01513 0.1869628,0.0126 0.5477817,-0.0126 0.1670558,-0.0126 0.1917429,-0.01767 0.1811627,-0.04387 -0.00533,-0.01767 -0.025934,-0.07181 -0.040334,-0.123967 -0.015134,-0.05167 -0.035801,-0.112366 -0.043601,-0.133033 C 3.4206967,10.445066 3.3481227,10.233386 3.308815,10.10886 3.271748,9.9919529 3.270281,9.9896863 3.1500726,9.9334996 c -0.066768,-0.030467 -0.1239686,-0.0572 -0.1287553,-0.0572 -0.00533,0 -0.044601,-0.015133 -0.088441,-0.034733 -0.041334,-0.017667 -0.074581,-0.032733 -0.1063282,-0.043867 0.00267,4.334e-4 0.00533,0.002 0.0126,0.00133 0.029,-0.00267 0.029,-0.00533 0.00533,-0.0126 -0.017667,-0.00267 -0.041067,-0.029467 -0.053934,-0.058933 -0.060468,-0.1310234 -0.074074,-0.14715 -0.1796494,-0.19023 l -0.107595,-0.043867 -0.6945238,0.022667 c -0.3812325,0.0126 -0.87292001,0.0262 -1.09412337,0.036267 -0.27923094,0.0126 -0.41625302,0.00753 -0.44754683,-0.00533 C 0.2358386,9.5318666 0.2111715,9.4938666 0.1877312,9.4217733 0.1700643,9.36484 0.153464,9.3048667 0.1531973,9.2902534 0.15266396,9.2675868 0.2527188,8.983867 0.30286624,8.8661737 c 0.007533,-0.020133 0.0390673,-0.1010332 0.0672744,-0.1766199 0.0544008,-0.1446199 0.0960015,-0.1708265 0.12144851,-0.078613 l 0.0151336,0.046867 0.001333,-0.045333 c 0.0176003,0.1509266 0.0320005,0.1534466 0.24843714,0.1405932 0.11565509,-0.00533 0.48048061,-0.020133 0.80977901,-0.0292 0.3292983,-0.00753 0.7468847,-0.022667 0.9280274,-0.03 0.2388636,-0.00753 0.3332051,-0.00533 0.3427519,0.00753 0.00533,0.0126 0.029,0.020133 0.047601,0.020133 0.068541,0 0.1635292,0.076347 0.2035964,0.1614999 0.020134,0.046133 0.040334,0.089453 0.040334,0.098273 0,0.022667 0.3173781,0.9926659 0.3368051,1.0277391 0.00753,0.01767 0.017667,0.0474 0.017667,0.062 0,0.01513 0.00753,0.0428 0.0176,0.06047 0.017667,0.031 0.1131351,0.3216 0.3352451,1.014166 0.053201,0.166293 0.1063349,0.320746 0.1181751,0.344126 v 0.0027 c 0.020134,0.03953 0.034801,0.04233 0.1811628,0.04233 0.2010764,0 0.2569372,-0.02013 0.3442919,-0.129766 0.038534,-0.04787 0.092975,-0.114887 0.1214485,-0.147894 0.029,-0.033 0.097768,-0.124473 0.154209,-0.203839 0.1446289,-0.203074 0.370039,-0.41604 0.5118744,-0.482907 0.1274953,-0.0602 0.3806725,-0.129506 0.4730206,-0.12976 0.032734,0 0.1000282,-0.0075 0.1496689,-0.01767 0.049401,-0.0075 0.2300435,-0.0262 0.3996728,-0.03907 0.1695759,-0.0126 0.409346,-0.03047 0.5328145,-0.03907 0.2232434,-0.01767 0.4933008,-0.03627 0.9923751,-0.07105 0.1438755,-0.0075 0.3033246,-0.02267 0.3547454,-0.0292 0.1121284,-0.01513 0.4132796,-0.0368 1.3845477,-0.104314 0.1438755,-0.0075 0.4302865,-0.0292 0.6360965,-0.04687 0.205856,-0.0176 0.497461,-0.03807 0.646677,-0.04987 0.149162,-0.0126 0.291524,-0.02267 0.317304,-0.0262 0.02593,-0.0053 0.159243,-0.01513 0.296338,-0.020133 0.137576,-0.00753 0.265931,-0.017667 0.284451,-0.020133 0.02013,-0.00267 0.125229,-0.0126 0.236344,-0.017667 0.111368,-0.00533 0.303118,-0.020133 0.426586,-0.0292 0.400046,-0.032 0.727105,-0.057467 0.8801,-0.066267 0.08214,-0.00533 0.179656,-0.015133 0.215684,-0.020133 0.036,-0.00533 0.195276,-0.0176 0.354772,-0.0292 0.159749,-0.0126 0.402926,-0.0262 0.541835,-0.039067 0.138835,-0.0126 0.357798,-0.0262 0.486427,-0.0348 0.494414,-0.034267 0.779665,-0.061 0.85168,-0.081633 0.22375,-0.063733 0.319118,-0.2267665 0.24995,-0.4300931 -0.02973,-0.088193 -0.1925,-0.3285597 -0.285855,-0.4225597 -0.151182,-0.1524399 -0.391179,-0.2906131 -0.646623,-0.3712664 -0.122208,-0.038533 -0.178396,-0.043867 -0.440067,-0.043867 -0.164535,0 -0.488394,0.0126 -0.71995,0.022667 0.06828,-0.00267 0.203089,-0.00753 0.242643,-0.0126 l 0.21569,-0.015133 -0.224503,-0.00267 c -0.123469,-0.00267 -0.347392,0.00533 -0.498421,0.015133 -0.150929,0.00753 -0.444927,0.017667 -0.652577,0.020133 -0.399799,0.00267 -0.44092,-0.00533 -0.396646,-0.077107 0.029,-0.046333 0.02947,-0.1244599 0.0013,-0.1420999 -0.02267,-0.015133 -0.01767,-0.1826666 0.02973,-0.6308596 0.08013,-0.7831728 0.08416,-0.876846 0.0524,-1.2254594 l -0.02267,-0.2730465 0.04207,-0.033267 c 0.029,-0.022667 0.07685,-0.033 0.140849,-0.033267 0.106335,-5.8e-4 0.186456,0.035 0.389166,0.1768799 0.160503,0.1121199 0.172603,0.1158999 0.19301,0.043867 0.02947,-0.1038066 0.096,-0.2604999 0.121448,-0.2867798 0.01513,-0.0126 0.04487,-0.020133 0.07056,-0.015133 0.0544,0.0126 0.247683,-0.1242199 0.314304,-0.2186998 0.061,-0.086673 0.102049,-0.1038133 0.167556,-0.06954 0.09122,0.0476 0.166556,0.1385733 0.207877,0.2506999 0.05993,0.1617532 0.116408,0.3810064 0.103308,0.4014663 -0.0053,0.00753 -0.117668,0.017667 -0.270817,0.017667 -0.157983,0 -0.279205,0.00753 -0.308312,0.022667 -0.03707,0.015133 -0.05747,0.015133 -0.09121,-0.00133 -0.02267,-0.015133 -0.06373,-0.020133 -0.08844,-0.017667 l -0.04513,0.00533 -0.01513,0.4044733 c -0.01513,0.4218797 -0.002,1.0508793 0.02267,1.0654659 0.0075,0.00533 0.177643,0.015133 0.377173,0.020133 0.438326,0.015133 0.710431,0.040067 0.740918,0.071053 0.01767,0.017667 0.01767,0.0436 0.0053,0.1043133 -0.01513,0.064533 -0.03153,0.2380998 -0.03607,0.3652131 -2.53e-4,0.00753 -0.06553,0.017667 -0.145136,0.020133 -0.09045,0.00267 -0.05293,0.00753 0.100035,0.00753 0.248437,0.002 0.328738,0.015133 0.510435,0.081633 0.341745,0.1262266 0.568015,0.2978931 0.722924,0.549353 0.0494,0.080367 0.09399,0.1431065 0.09877,0.1373132 0.0053,-0.00533 -0.02267,-0.060467 -0.06147,-0.1239599 L 15.82871,8.899427 15.85138,8.5342206 C 15.88591,8.0047743 15.86398,7.3315081 15.79471,6.8756351 15.78211,6.8028152 15.76878,6.6932219 15.75864,6.6309817 15.75114,6.568715 15.72817,6.4536018 15.71104,6.3760218 15.69344,6.2979152 15.67277,6.2001553 15.66471,6.158582 15.64204,6.0361288 15.56644,5.7756489 15.464394,5.4507758 15.326565,5.0140761 14.883758,4.0476101 14.826784,4.0592768 c -0.02013,0.00267 -0.03727,0.0408 -0.05087,0.1085932 -0.0126,0.056933 -0.02593,0.11666 -0.03453,0.1282466 -0.01767,0.0292 -0.22551,0.032267 -0.401133,0.00267 -0.558215,-0.088687 -0.573662,-0.089693 -0.604702,-0.063467 -0.06654,0.058933 -0.09625,0.2129132 -0.106329,0.5584196 l -0.0075,0.3334931 0.05993,0.090713 c 0.05873,0.088433 0.06,0.09498 0.04913,0.2443998 -0.0075,0.1395799 -0.04133,0.2575531 -0.07786,0.2942598 -0.01513,0.015133 -0.08466,-0.0262 -0.148409,-0.084407 -0.03653,-0.035533 -0.03807,-0.035 -0.06903,0.00533 -0.01767,0.022667 -0.04107,0.077093 -0.05393,0.1191733 -0.01513,0.042067 -0.03027,0.0834 -0.03753,0.091967 -0.029,0.033 -0.326099,-0.09272 -0.416127,-0.1751066 -0.0456,-0.0418 -0.0504,-0.055933 -0.04033,-0.1239666 0.0126,-0.079373 -0.01767,-0.1310199 -0.06753,-0.1191732 -0.04533,0.0126 -0.05973,-0.1141466 -0.06904,-0.6353729 -0.0053,-0.3891997 -0.0013,-0.6344329 0.02013,-0.9326794 0.03027,-0.399513 0.04233,-0.4459997 0.100282,-0.4255663 0.135562,0.050667 1.501863,0.1131332 1.603051,0.073827 0.01767,-0.00533 0.02973,-0.022667 0.02973,-0.039067 0,-0.015133 -0.08567,-0.1408465 -0.188723,-0.2806598 C 13.491091,2.1117515 12.458676,1.2755921 11.154262,0.66983248 10.850611,0.5287326 10.31689,0.34054607 9.9942181,0.26082612 9.9582171,0.2532928 9.8662228,0.22829281 9.7891149,0.20789283 9.4755435,0.12701955 9.1514852,0.07158626 8.693505,0.01766629 8.5967752,0.0050663 8.2672768,-3.63668e-7 7.9361384,-3.63668e-7 Z M 5.0244411,3.0902575 c 0.035534,-0.00133 0.078108,0.00533 0.1630224,0.022667 0.2548706,0.050133 0.5384616,0.1272399 0.5912224,0.1599932 0.1096083,0.068033 0.2121565,0.1645333 0.285911,0.2701265 0.1305153,0.1869532 0.1451288,0.2214732 0.1451288,0.3592198 0,0.069287 0.00533,0.1458865 0.017667,0.1720865 0.00753,0.0262 0.0126,0.071813 0.00267,0.1010399 -0.00753,0.029733 -0.00533,0.1227 0.00753,0.2129066 0.040334,0.2686931 0.034267,0.4725996 -0.020134,0.5946462 -0.062268,0.1421066 -0.107335,0.1610066 -0.2454171,0.1043133 -0.091715,-0.038067 -0.113635,-0.0416 -0.1766293,-0.020133 -0.058468,0.017667 -0.088948,0.017667 -0.1542024,-0.00533 -0.044067,-0.017667 -0.1068349,-0.0292 -0.1393421,-0.0292 -0.032267,-0.00267 -0.067021,-0.0126 -0.077861,-0.0262 -0.015134,-0.017667 -0.015134,-0.1433666 -0.00133,-0.4376264 0.017667,-0.3960797 0.017667,-0.4136464 -0.017667,-0.4618197 -0.020134,-0.0262 -0.054201,-0.08466 -0.076348,-0.1282532 -0.022667,-0.0436 -0.063268,-0.094227 -0.089701,-0.1118666 -0.046867,-0.03 -0.049134,-0.0292 -0.082141,0.015133 -0.030734,0.0408 -0.039801,0.042867 -0.089701,0.022667 -0.048867,-0.020133 -0.060734,-0.017667 -0.092721,0.017667 C 4.8710896,4.0359235 4.8138887,4.2248433 4.7541745,4.6512364 4.7057735,4.9973228 4.6909065,5.0756361 4.6508663,5.220216 c -0.020134,0.078353 -0.020134,0.096747 0.0126,0.1645265 0.025934,0.061 0.030467,0.1017933 0.020134,0.2038332 -0.00533,0.070553 -0.017667,0.1962799 -0.022667,0.2791732 -0.00533,0.093227 -0.020134,0.1635199 -0.038801,0.1841798 -0.022667,0.0262 -0.025934,0.059733 -0.0126,0.1887266 0.00753,0.08566 0.017667,0.3792464 0.017667,0.6534798 v 0.499533 l -0.065734,0.017667 c -0.058734,0.015133 -0.060201,0.020133 -0.022667,0.03 0.067281,0.017667 0.1438755,0.1055666 0.1990563,0.2234865 0.062268,0.1332799 0.1343021,0.2310465 0.1690759,0.2310465 0.015134,0 0.077355,-0.047867 0.1393355,-0.1058266 0.1232152,-0.1148932 0.2058565,-0.2642465 0.242397,-0.4376263 0.022667,-0.1078333 0.029,-0.4025798 0.00753,-0.517653 -0.0126,-0.073567 -0.052134,-0.09524 -0.070554,-0.0378 -0.0126,0.034733 -0.150929,0.08844 -0.1811628,0.071053 -0.00753,-0.00533 -0.017667,-0.045333 -0.017667,-0.08592 0,-0.0582 0.00753,-0.080873 0.046334,-0.1043066 0.054667,-0.036267 0.057667,-0.0572 0.017667,-0.1373269 -0.022667,-0.049867 -0.025934,-0.08566 -0.0126,-0.2325598 0.022667,-0.2086199 0.041334,-0.2345732 0.1436222,-0.2053399 0.040067,0.0126 0.1801561,0.020133 0.3113048,0.020133 0.2141765,0 0.2434037,0.00267 0.2769442,0.0378 0.029734,0.0292 0.052134,0.036 0.1091016,0.0262 0.051134,-0.00753 0.1065816,0.00133 0.1902363,0.031733 L 6.226081,6.260761 6.213481,6.4132009 C 6.198347,6.5958684 6.169614,6.8437751 6.14444,7.0017817 c -0.0126,0.063467 -0.0176,0.1567199 -0.0176,0.2083665 0,0.051667 -0.00753,0.1403399 -0.017667,0.1962799 C 6.101643,7.462628 6.077906,7.6450346 6.061572,7.8108678 6.043905,7.9769143 6.023505,8.1807009 6.013971,8.2636475 6.006441,8.3465407 5.996304,8.454634 5.996304,8.5037673 5.9963573,8.6171472 5.959237,8.6408272 5.8002744,8.6262139 5.6443053,8.6110806 5.6243983,8.6000139 5.6100381,8.5251806 5.6047081,8.488914 5.5777711,8.416834 5.5533711,8.3651874 c -0.038801,-0.08138 -0.050934,-0.093227 -0.086928,-0.08138 -0.058734,0.017667 -0.1562224,0.094227 -0.2051031,0.1614998 -0.039801,0.0534 -0.047401,0.056933 -0.1360621,0.045333 -0.058467,-0.00533 -0.086175,-0.00533 -0.074834,0.00533 0.0126,0.00753 0.1282486,0.035267 0.2618439,0.058933 0.1340487,0.022667 0.2754509,0.0534 0.3143315,0.068033 0.025934,0.00753 0.073068,0.015133 0.1574757,0.020133 H 5.6686909 l -0.2903911,-0.062 C 5.2185507,8.5468073 5.063415,8.5080073 5.0325479,8.493394 5.0015474,8.4782607 4.9340264,8.453594 4.8828789,8.436194 4.8317448,8.4185274 4.7266565,8.3779941 4.649302,8.3457341 4.5190334,8.2913341 4.4381522,8.2502475 4.1628546,8.0998276 3.5865992,7.7852078 3.4267034,7.7188145 3.155506,7.6802879 2.9236958,7.6480212 2.2919595,7.6430212 2.2364987,7.6727545 c -0.002,6.667e-4 -0.00533,5.534e-4 -0.00753,0.00133 -0.022667,0.00753 -0.068788,0.017667 -0.1106083,0.017667 -0.110115,0 -0.3777791,0.065533 -0.5463216,0.1327799 -0.3364785,0.1350533 -0.91507398,0.4493997 -1.03728251,0.5644396 -0.0577342,0.0544 -0.0592009,0.058933 -0.0466007,0.1748599 0.001333,0.015133 0.002667,0.020133 0.005333,0.031733 -0.002,-0.0262 -0.005333,-0.059733 -0.0176669,-0.081627 C 0.44355449,8.4428807 0.50808879,8.3771207 0.75880602,8.2256675 0.95634902,8.1062342 1.02123,8.0722209 1.1524586,8.0142743 c 0.025934,-0.0126 0.059468,-0.0292 0.074581,-0.037533 0.046601,-0.0292 0.3100714,-0.1524399 0.3248383,-0.1524399 0.00753,0 0.048867,-0.017667 0.092721,-0.0378 0.043867,-0.020133 0.1247285,-0.042333 0.1781427,-0.048133 0.053667,-0.00533 0.1010415,-0.020133 0.1063349,-0.03 0.00533,-0.00753 0.067528,-0.017667 0.1360621,-0.017667 0.069288,-6.667e-4 0.132282,-0.00753 0.1630225,-0.017667 0.030734,-0.00753 0.0292,-0.017667 -0.033,-0.017667 -0.1242219,-0.00267 -0.1330421,-0.035533 -0.1320354,-0.4980263 6.667e-4,-0.2660398 0.0126,-0.4556397 0.029734,-0.5689732 0.038534,-0.2292865 0.069294,-0.3444798 0.096002,-0.3561665 0.039334,-0.015133 0.1302686,0.043867 0.1781427,0.1148866 l 0.046334,0.069547 v 0.58858 c 0,0.3242131 -0.00533,0.5978463 -0.0126,0.6036929 -0.00533,0.00753 -0.040801,0.020133 -0.074581,0.0292 -0.042334,0.00753 -0.015134,0.0126 0.086928,0.00533 0.2446637,-0.015133 0.5414549,2.267e-4 0.8531663,0.043867 0.1224618,0.017667 0.4514068,0.1534399 0.5597751,0.2310465 0.029,0.020133 0.064268,0.0378 0.077861,0.0378 0.015134,0 0.00267,-0.015133 -0.020134,-0.031733 -0.035801,-0.0262 -0.040067,-0.0406 -0.029734,-0.089193 0.022667,-0.1103533 0.015134,-0.1536933 -0.065734,-0.3426131 -0.072315,-0.1688199 -0.081135,-0.2020732 -0.077861,-0.3199398 0.00753,-0.3253598 0.00753,-0.5225932 -0.00533,-0.9900263 -0.020134,-0.6461528 0.0126,-0.9566126 0.131782,-1.408059 0.032534,-0.1196732 0.047134,-0.2365865 0.052401,-0.3863797 0.0126,-0.3014198 0.076601,-0.460653 0.2471837,-0.5976263 0.043601,-0.034733 0.064268,-0.067273 0.064268,-0.09952 0,-0.1128799 0.4397867,-0.4696063 0.6990106,-0.5674396 0.056201,-0.020133 0.082895,-0.030733 0.1181751,-0.031467 z m 3.0669664,0.1902332 c 0.025934,0.002 0.046334,0.00753 0.067274,0.015133 0.1849428,0.061733 0.2540106,0.2202132 0.2320636,0.5342596 -0.020134,0.2981465 0.015133,0.6026129 0.1451355,1.1892259 0.025934,0.1141399 0.055668,0.2593398 0.067274,0.3214531 0.0126,0.062267 0.0292,0.1494132 0.038801,0.1929998 0.00753,0.044067 0.025934,0.2257532 0.036067,0.4029598 0.0126,0.1776332 0.022667,0.3277731 0.025934,0.3365397 0.015133,0.0262 -0.054934,0.075087 -0.1499223,0.1043133 -0.1967897,0.0582 -0.6619234,0.087433 -0.6959906,0.043867 -0.0126,-0.015133 -0.022667,-0.084413 -0.029734,-0.1572265 -0.0126,-0.12094 -0.037067,-0.3404731 -0.088441,-0.7349462 C 7.7272687,5.4461825 7.7139347,5.3007959 7.7038677,5.2076027 7.6608007,4.7737696 7.5879593,4.3264166 7.5541988,4.2869833 c -0.020134,-0.0262 -0.0358,0.07332 -0.1017949,0.7319462 -0.062268,0.6210795 -0.1242219,1.1915191 -0.1332953,1.2315058 -0.00533,0.022667 -5.267e-4,0.0776 0.0126,0.1191732 0.036801,0.1385866 0.1600024,0.1741066 0.4041328,0.1206933 0.082141,-0.017667 0.1725959,0.064733 0.1872095,0.1705798 0.022667,0.1816602 0.063268,0.2121468 0.1811694,0.1421002 0.1040616,-0.061733 0.5313014,-0.2124001 0.5568018,-0.1977868 0.036001,0.022667 0.089195,0.1844335 0.1075883,0.3290334 0.0126,0.088193 0.034001,0.2710131 0.050934,0.4059597 0.0176,0.1350533 0.043867,0.3007865 0.058468,0.3682131 0.096501,0.4481597 0.1456355,0.7877328 0.1181751,0.8210194 -0.0126,0.015133 -0.079875,0.030467 -0.154209,0.036267 -0.074075,0.00533 -0.2635574,0.0126 -0.4205864,0.017667 -0.329645,0.00753 -0.305058,0.022667 -0.3397785,-0.1977865 -0.0126,-0.078113 -0.030734,-0.1882132 -0.040601,-0.2459132 -0.00753,-0.057933 -0.0176,-0.1478999 -0.0176,-0.2008132 0,-0.08466 -0.00533,-0.1027999 -0.058468,-0.1463932 -0.032267,-0.0262 -0.082641,-0.062467 -0.112375,-0.077093 -0.072068,-0.0378 -0.070554,-0.1015466 0.00267,-0.1509265 0.065268,-0.043867 0.064001,-0.033533 0.029734,-0.2129066 -0.033,-0.1738532 -0.046134,-0.1882132 -0.1375754,-0.1478999 -0.056934,0.0262 -0.3552254,0.08768 -0.417613,0.08768 -0.00753,0 -0.029,0.0126 -0.044867,0.03 -0.020134,0.020133 -0.0292,0.0698 -0.029734,0.1844398 -3.466e-4,0.084907 -0.0126,0.2050932 -0.029,0.2672065 -0.017667,0.062467 -0.033734,0.1305133 -0.038801,0.1539466 -0.017667,0.069793 -0.1174218,0.1766198 -0.1663025,0.1766198 -0.032734,0 -0.065001,0.0292 -0.1196818,0.1025533 -0.041601,0.056667 -0.076348,0.1214399 -0.076348,0.1420999 0,0.056467 -0.055668,0.07534 -0.2189631,0.07534 -0.2126632,0 -0.2207234,-0.00753 -0.2169433,-0.2383532 0.00133,-0.1020466 0.020134,-0.3253865 0.042067,-0.496513 0.022667,-0.1710799 0.048601,-0.3841931 0.058468,-0.472373 0.00753,-0.088193 0.025934,-0.2244998 0.036,-0.3018265 0.00753,-0.077607 0.031001,-0.2514601 0.047601,-0.3863866 0.051934,-0.4180997 0.063734,-0.522593 0.082141,-0.6881729 0.022667,-0.1992998 0.050867,-0.438133 0.074834,-0.6232995 0.00753,-0.077607 0.025934,-0.2217266 0.0388,-0.3199398 0.0126,-0.098773 0.029001,-0.2373465 0.038801,-0.3078931 0.00753,-0.070807 0.025934,-0.2613599 0.036001,-0.4240731 0.029,-0.4584263 0.049401,-0.6339129 0.089955,-0.7258995 0.044867,-0.1033066 0.085668,-0.1204399 0.1990563,-0.081633 0.1133884,0.039533 0.2548906,0.038533 0.4744606,-0.00533 0.2936178,-0.0582 0.4088195,-0.078613 0.483474,-0.072567 z m 4.1325895,0.2129065 c 0.06677,6.267e-4 0.110615,0.00267 0.116662,0.00533 0.01767,0.0126 0.03127,0.09852 0.0436,0.2686665 0.0126,0.1390866 0.02593,0.3121598 0.036,0.3848731 0.03953,0.2973931 0.04133,0.3957264 0.0126,0.5493529 -0.02593,0.1352999 -0.02593,0.1632666 -0.0013,0.2443998 0.02013,0.071047 0.02267,0.1153933 0.0075,0.1947599 -0.0126,0.056667 -0.029,0.1121199 -0.03753,0.1239666 -0.0075,0.0126 -0.02013,0.1194266 -0.02267,0.2383532 -0.0027,0.1189265 -0.01767,0.2479264 -0.02973,0.2867531 -0.0126,0.039067 -0.031,0.1030533 -0.04207,0.1421132 -0.0126,0.0388 -0.02593,0.2861998 -0.036,0.5508596 -0.01767,0.4919533 -0.03273,0.5971932 -0.107595,0.7455465 -0.031,0.061 -0.0388,0.1244665 -0.04633,0.3305197 -0.0075,0.2523132 -0.0474,0.4478664 -0.136062,0.7078129 -0.05793,0.1690598 -0.08088,0.1947598 -0.17663,0.2008065 -0.04687,0.00267 0.120442,0.00533 0.372713,0.00133 0.234583,-0.00267 0.563095,-0.0126 0.874126,-0.020133 -0.141355,0.00533 -0.23861,0.00753 -0.371199,0.015133 -0.758351,0.017667 -1.33004,0.038267 -2.326002,0.0771 -0.291144,0.0126 -0.4740537,0.015133 -0.733431,0.022667 0.047867,-0.00267 0.1000349,-0.00267 0.1345554,-0.00753 0.1028016,-0.0126 0.4396866,-0.0262 0.7483976,-0.031733 0.308712,-0.00533 0.568842,-0.017667 0.579303,-0.0262 0.0126,-0.00753 0.151182,-0.015133 0.312791,-0.0126 l 0.293371,0.00267 -0.04333,-0.0378 c -0.02267,-0.020133 -0.05267,-0.062267 -0.06427,-0.09348 -0.01767,-0.047867 -0.0494,-1.3206458 -0.04207,-1.6752055 0.0027,-0.1481535 0.0027,-0.2365868 0.0013,-0.5327399 -0.0013,-0.1557133 0.0053,-0.3593264 0.01767,-0.452773 0.04514,-0.3638065 0.05947,-0.575453 0.04207,-0.606673 -0.01513,-0.0262 -0.02013,-0.0262 -0.03607,0.00533 -0.02013,0.039067 -0.07105,0.2436465 -0.146643,0.5840729 -0.0398,0.1778799 -0.08139,0.4881663 -0.119688,0.8949594 -0.0466,0.4948999 -0.0703,0.5950532 -0.158736,0.6534598 -0.04307,0.0292 -0.05013,0.0262 -0.09449,-0.00133 -0.04533,-0.0292 -0.04967,-0.0292 -0.100035,0.015133 -0.029,0.022667 -0.07987,0.054933 -0.112375,0.069533 -0.07483,0.031 -0.07912,0.08794 -0.0075,0.1025532 0.029,0.00533 0.100028,-4.8e-4 0.158735,-0.015133 0.248191,-0.0592 0.276038,0.079373 0.118176,0.5915796 -0.05194,0.1685599 -0.06574,0.2446532 -0.063,0.3395664 0.0027,0.1128799 -1.47e-4,0.1259799 -0.04207,0.1463866 -0.029,0.015133 -0.128508,0.022667 -0.265024,0.022667 h -0.21997 l -0.02267,-0.062 c -0.01513,-0.033533 -0.03553,-0.1375666 -0.0476,-0.2310465 -0.0474,-0.3587931 -0.063,-0.4521397 -0.09122,-0.5403263 -0.02267,-0.076853 -0.02593,-0.1033066 -0.0053,-0.1645266 0.02013,-0.0592 0.01767,-0.086427 -0.0013,-0.1463932 -0.01513,-0.040333 -0.03047,-0.080373 -0.03753,-0.09196 -0.034,-0.051933 -0.113888,-0.6621798 -0.118168,-0.9024997 -0.0027,-0.1816665 -0.0075,-0.2244998 -0.05093,-0.3138931 -0.0418,-0.089947 -0.0484,-0.1317732 -0.05087,-0.3094064 -0.0013,-0.1131333 -0.0075,-0.2134132 -0.01513,-0.2219799 -0.0368,-0.059933 -0.071308,0.034 -0.1091021,0.2882398 -0.034,0.2277732 -0.044867,1.1776195 -0.015134,1.2088394 0.015134,0.015133 0.015134,0.0292 0,0.046867 -0.015133,0.017667 -0.015133,0.088693 0.00267,0.2640331 0.022667,0.2290332 0.015134,1.0780393 -0.0126,1.1469526 -0.00533,0.015133 -0.036267,0.036533 -0.069041,0.045333 -0.069794,0.022667 -0.5254547,0.040333 -0.5538284,0.022667 -0.037534,-0.022667 -0.076094,-0.1998065 -0.076348,-0.3485864 -2e-4,-0.1358133 0.017667,-0.2812665 0.053934,-0.4346797 0.00753,-0.039067 0.002,-0.08592 -0.022667,-0.1509266 -0.0348,-0.086673 -0.038067,-0.1317732 -0.036001,-0.5599596 0.002,-0.4424666 0.00267,-0.4700333 0.040334,-0.5176532 l 0.040334,-0.049867 -0.052401,-0.091973 -0.050867,-0.090707 0.036001,-0.066267 c 0.030267,-0.056667 0.033,-0.090453 0.022667,-0.2325599 C 9.2636495,5.902835 9.2488455,5.7052222 9.2392455,5.5548757 9.2317155,5.4044558 9.2133115,5.1419626 9.2017115,4.9708361 9.1891115,4.7997495 9.1727115,4.5696363 9.1641775,4.4606897 9.1515775,4.3515898 9.1415105,4.15569 9.1344435,4.02457 c -0.0126,-0.2368465 -0.0126,-0.2381065 0.031467,-0.2672331 0.074581,-0.046333 0.2310502,-0.069533 0.4909608,-0.069533 0.148909,0 0.2864377,-0.0126 0.3457247,-0.0262 0.08768,-0.022667 0.104822,-0.022667 0.160003,0.00533 0.03853,0.020133 0.07659,0.0262 0.100281,0.017667 0.029,-0.0126 0.05293,0.00267 0.106328,0.0572 0.09474,0.098013 0.110362,0.1841865 0.20813,1.1620925 0.01513,0.1557132 0.03707,0.3294198 0.0476,0.3863531 0.05267,0.2774331 0.107588,0.4640596 0.130269,0.4406863 0.0075,-0.00753 0.029,-0.0658 0.04487,-0.1252266 0.01513,-0.06 0.0416,-0.1521798 0.05667,-0.2068598 0.08769,-0.3130865 0.108849,-0.3886531 0.122962,-0.448213 0.0075,-0.036533 0.029,-0.1174133 0.04333,-0.1796466 0.02593,-0.1060732 0.07307,-0.4258663 0.124216,-0.8391261 0.0126,-0.09852 0.03253,-0.2307931 0.04513,-0.2928064 l 0.02267,-0.1131333 0.167562,-0.0126 c 0.232817,-0.015133 0.640883,-0.0262 0.8412,-0.022667 z M 1.6791236,5.693769 c 0.1977963,-0.00753 0.1940162,-0.0126 0.179656,0.3063798 -0.00753,0.1670465 -0.00267,0.2768731 0.00753,0.2943131 0.020134,0.0292 0.025934,0.0262 0.1736093,-0.064733 0.061468,-0.037533 0.079868,0.0126 0.055201,0.1448799 -0.025934,0.1410933 -0.062468,0.1791399 -0.130522,0.1342933 -0.025934,-0.017667 -0.052134,-0.022667 -0.060001,-0.015133 -0.031267,0.035267 -0.055401,0.3041601 -0.055401,0.6006399 v 0.3139198 l -0.058468,0.055667 c -0.055667,0.052667 -0.057667,0.056467 -0.029,0.096747 0.049134,0.068033 0.054201,0.08794 0.029734,0.1176666 -0.022667,0.0292 -0.1058283,0.035267 -0.1872162,0.0126 -0.035801,-0.00753 -0.050401,-0.030467 -0.061468,-0.087687 -0.020134,-0.1101 -0.038801,-1.7409658 -0.020134,-1.829179 L 1.5403107,5.698809 Z M 0.86783789,5.8598089 c 0.0201336,-3.334e-4 0.0466007,0.00133 0.0748345,0.00533 0.12119511,0.017667 0.12950861,0.036067 0.12422181,0.2911931 -0.00267,0.1866999 -6.333e-4,0.2272665 0.025934,0.2534999 0.022667,0.022667 0.038267,0.0262 0.052401,0.0126 0.0126,-0.0126 0.045867,-0.020133 0.079368,-0.020133 0.070301,0 0.074581,0.0126 0.065734,0.1705732 l -0.00533,0.1101136 -0.1060816,0.00533 -0.104815,0.00533 -0.00133,0.3485865 c -6.067e-4,0.3093331 0.022667,0.5658529 0.053934,0.5976729 0.00533,0.00533 0.036801,-4e-4 0.067528,-0.0126 0.063468,-0.0262 0.094235,-0.015133 0.094235,0.0378 0,0.020133 0.00753,0.0408 0.020134,0.0466 0.0126,0.00533 0.017667,0.050667 0.017667,0.096747 0,0.078113 -0.00267,0.0829 -0.046334,0.0829 -0.025934,0 -0.046134,-0.00533 -0.046134,-0.017667 0,-0.00753 -0.0126,-0.017667 -0.022667,-0.017667 -0.015134,0 -0.022667,0.0262 -0.022667,0.062 -5.334e-4,0.0456 -0.00753,0.058933 -0.046334,0.062 -0.025934,0.00267 -0.070294,-0.015133 -0.098768,-0.0378 -0.0511341,-0.040067 -0.0536675,-0.040333 -0.11666179,-0.00533 -0.0730744,0.038267 -0.12144851,0.0292 -0.12144851,-0.0262 0,-0.020133 -0.007533,-0.042333 -0.0201336,-0.048133 -0.0126002,-0.00533 -0.0201336,-0.1856932 -0.0201336,-0.4708597 0,-0.2520398 -0.005333,-0.510753 -0.0126002,-0.5750263 C 0.7397907,6.7022886 0.7397907,6.6992619 0.6909233,6.7108552 0.6447892,6.7234552 0.6369891,6.7135219 0.6072687,6.635515 0.5649347,6.5236417 0.5782683,6.4583885 0.6506027,6.4437751 0.7191371,6.4286418 0.7304773,6.3782418 0.7148703,6.1555353 0.7073373,6.0146821 0.7095373,5.9811755 0.7375373,5.9320422 0.7672711,5.8811755 0.8048117,5.8574622 0.8693193,5.8567089 Z M 3.0187439,6.3035086 c 0.2063631,6.666e-4 0.2930378,0.07458 0.3771991,0.3214464 0.029734,0.087434 0.040334,0.3997867 0.015134,0.4406533 -0.015134,0.0262 -0.1292553,0.043333 -0.175116,0.0292 C 3.215827,7.089475 3.19716,7.074675 3.19716,7.0585416 c 0,-0.015133 -0.0126,-0.030467 -0.025934,-0.036267 -0.020134,-0.00533 -0.022667,0.00533 -0.022667,0.049667 l 0.00133,0.060467 H 3.051121 c -0.1159084,-0.00133 -0.130522,0.022667 -0.098775,0.1615065 0.0126,0.046333 0.020134,0.1161533 0.020134,0.1554599 3.533e-4,0.056467 0.0126,0.07584 0.043601,0.08768 0.054934,0.020133 0.075088,0.002 0.1242219,-0.1133799 0.053134,-0.1249732 0.1020482,-0.1481465 0.2051031,-0.095247 0.077355,0.040067 0.1023015,0.1000333 0.061468,0.1448866 -0.00753,0.00753 -0.029,0.050133 -0.040334,0.089187 -0.0126,0.038533 -0.038067,0.07534 -0.056668,0.087687 -0.039534,0.020133 -0.045334,0.020133 -0.1166618,0 -0.029,-0.00753 -0.1375754,-0.020133 -0.242397,-0.0292 -0.1746093,-0.0126 -0.1947696,-0.017667 -0.2423903,-0.066267 -0.029,-0.0292 -0.052401,-0.068527 -0.052401,-0.09196 0,-0.022667 -0.0126,-0.062733 -0.025934,-0.091967 -0.015134,-0.0292 -0.032,-0.1022933 -0.038801,-0.1645266 -0.00533,-0.062267 -0.020134,-0.1378266 -0.029734,-0.1690732 -0.020134,-0.069787 0.037534,-0.46474 0.082141,-0.5523399 0.046867,-0.09146 0.2350836,-0.1816665 0.3771924,-0.1811665 z m -0.015134,0.2567198 c -0.00753,2e-4 -0.020134,0.0126 -0.033,0.0262 -0.025934,0.030467 -0.042334,0.2343201 -0.022667,0.2821467 0.0126,0.035 0.065001,0.036 0.095995,0.00533 0.029,-0.0292 0.029,-0.1224465 0,-0.2310467 -0.015134,-0.057467 -0.022667,-0.083147 -0.038801,-0.082893 z m 6.4855788,2.0072122 c -0.9339942,0.033 -1.7600267,0.0592 -2.370876,0.06778 0.038801,-0.00133 0.1017949,-0.00267 0.1287553,-0.00533 0.1645358,-0.0126 0.4937875,-0.020133 0.7318978,-0.020133 0.2381102,-0.00267 0.591749,-0.0126 0.7858119,-0.022667 0.1940163,-0.0126 0.4543002,-0.020133 0.5778155,-0.017667 0.042601,0.00133 0.095248,-5.6e-4 0.1466488,-0.00133 z m 5.2911673,0.066267 c 0.24643,-6.667e-4 0.599662,0.2408732 0.69753,0.4769397 0.0398,0.095747 0.0358,0.1534465 -0.01513,0.2128998 -0.0358,0.042867 -0.06247,0.0514 -0.145136,0.0572 -0.24869,0.015133 -0.618076,-0.2144199 -0.724484,-0.4496997 -0.04533,-0.1005333 -0.04887,-0.1320199 -0.02013,-0.1902265 0.0398,-0.077607 0.09424,-0.10658 0.206617,-0.10734 z m -1.273753,0.09676 c 0.131782,3.534e-4 0.204857,0.00753 0.256031,0.022667 0.172596,0.054667 0.372985,0.2479332 0.434066,0.4180797 0.029,0.0776 0.0027,0.1536932 -0.06147,0.1947599 -0.06047,0.038533 -0.345072,0.074833 -0.592736,0.07534 -0.118422,0.00267 -0.324258,0.0126 -0.457974,0.020133 -0.134048,0.0126 -0.521101,0.033533 -0.860699,0.048133 -0.339559,0.015133 -0.765912,0.038067 -0.945948,0.046867 -0.180156,0.00753 -0.503861,0.0262 -0.719971,0.037533 -0.8437929,0.0426 -1.1740779,0.059733 -1.5431835,0.0771 -0.2108965,0.00753 -0.5400482,0.0262 -0.7304311,0.036267 l 0.00133,0.00133 C 7.3998972,9.7520131 7.4448246,9.7545464 7.2932623,9.6588132 7.2222083,9.6142132 7.1103328,9.4980599 7.0732923,9.43104 c -0.034267,-0.0612 -0.029467,-0.2418798 0.00753,-0.2988531 0.062001,-0.095487 0.082141,-0.097507 0.9983752,-0.1373133 0.2418903,-0.0126 0.4982409,-0.022667 0.570282,-0.03 0.072314,-0.00533 0.417993,-0.022667 0.7678517,-0.0378 0.3498586,-0.015133 0.7241578,-0.031733 0.8321988,-0.0378 0.108095,-0.00533 0.306272,-0.015133 0.440067,-0.020133 0.133795,-0.00533 0.360365,-0.020133 0.504414,-0.030267 0.143876,-0.0126 0.363012,-0.022667 0.486474,-0.0292 0.290798,-0.0126 0.954055,-0.044333 1.216886,-0.058933 0.287044,-0.015133 0.477507,-0.022667 0.609209,-0.022667 z m -0.07785,0.2189532 c -0.04913,-10e-5 -0.109355,0.00133 -0.185703,0.00267 -0.190236,0.00267 -0.396246,0.00753 -0.458001,0.0126 -0.608202,0.030467 -0.984241,0.050133 -1.243845,0.06778 -0.169576,0.0126 -0.41472,0.022667 -0.543375,0.0292 -0.128755,0.00267 -0.394179,0.015133 -0.589702,0.0262 -0.5656756,0.031267 -0.7565652,0.0416 -1.2243923,0.058933 -0.2418903,0.00753 -0.466047,0.020133 -0.4968875,0.0262 -0.031001,0.00267 -0.193763,0.015133 -0.3637655,0.020133 -0.169576,0.00533 -0.3382185,0.015133 -0.3741991,0.017667 -0.036067,0.00267 -0.2207233,0.0126 -0.4086462,0.020133 -0.2214767,0.00753 -0.3520987,0.022667 -0.372659,0.0378 -0.03,0.020133 -0.03,0.0292 0.00267,0.093473 0.054667,0.1040599 0.1312754,0.1761266 0.2396237,0.2277732 v 0.00267 C 7.5036061,9.63672 7.5156994,9.64052 7.8154906,9.62892 7.9850665,9.62359 8.1873496,9.613787 8.2645241,9.608787 8.5107011,9.593654 9.4571689,9.543254 9.8736219,9.5259 10.094852,9.5133 10.330595,9.503233 10.397463,9.4959 c 0.06703,-0.00533 0.315671,-0.017667 0.552315,-0.030267 0.236604,-0.0126 0.594149,-0.0292 0.794812,-0.0378 0.200823,-0.0126 0.507568,-0.0262 0.682537,-0.0348 C 13.105724,9.3595 13.853295,9.3172 13.93889,9.305353 l 0.0897,-0.0126 -0.05093,-0.068027 C 13.89199,9.1080602 13.788684,9.0229003 13.685802,8.9846003 c -0.065,-0.022667 -0.111115,-0.033 -0.258943,-0.033267 z m -8.2293519,0.045333 c 0.1264885,-0.00753 0.263884,0.064 0.2754508,0.1539399 0.00533,0.058933 -0.00753,0.062467 -0.067274,0.015133 -0.022667,-0.020133 -0.1005349,-0.0552 -0.172096,-0.078613 -0.1373221,-0.0436 -0.1577357,-0.062467 -0.088441,-0.08012 0.017667,-0.00533 0.034267,-0.00753 0.052401,-0.00753 z M 4.9915246,9.009887 c 0.020134,0 0.0348,0.00533 0.036067,0.00753 -0.00533,0.015133 -0.054934,0.022667 -0.064534,0.00753 -0.00533,-0.00753 0.00533,-0.017667 0.029,-0.017667 z m -0.1033083,0.00533 c 0.022667,0.00267 0.029,0.00753 0.029,0.022667 0,0.017667 -0.022667,0.036533 -0.050934,0.042333 -0.066774,0.017667 -0.2459238,0.1020466 -0.2589506,0.12246 -0.017667,0.0262 -0.042334,0.017667 -0.063001,-0.020133 -0.054201,-0.1022999 3.533e-4,-0.1441199 0.2096365,-0.1614999 0.071054,-0.00533 0.1113684,-0.00533 0.1345487,-0.00533 z m 0.2214834,0.1615065 c 0.088441,0.00533 0.196283,0.036267 0.2858577,0.08164 0.1466422,0.074573 0.2295435,0.1924932 0.3352917,0.4753463 0.017667,0.049667 0.040601,0.093727 0.049134,0.09952 0.029001,0.0176 0.017667,0.1353066 -0.015134,0.1615066 -0.017667,0.015133 -0.097768,0.033266 -0.1811694,0.039066 l -0.00133,0.0027 c -0.083401,0.0053 -0.2522905,0.0176 -0.3756591,0.02267 -0.2184566,0.0126 -0.2255101,0.0075 -0.2948778,-0.0378 -0.060468,-0.0416 -0.1075883,-0.1093533 -0.1075883,-0.1569799 0,-0.00533 0.037067,-0.0358 0.080881,-0.062 0.1889762,-0.1143932 0.4389534,-0.1330399 0.6196895,-0.046867 0.058467,0.0292 0.1237152,0.067273 0.1436221,0.08768 0.036001,0.036267 0.036001,0.036533 0.036001,0 0,-0.062467 -0.1307753,-0.1809065 -0.2486971,-0.2249998 -0.1793961,-0.06702 -0.4418734,-0.0418 -0.5778088,0.055667 -0.067028,0.0474 -0.1065883,0.043867 -0.1320353,-0.0126 -0.025934,-0.0592 -0.00753,-0.080127 0.1196884,-0.1509265 0.089948,-0.0494 0.1148951,-0.054667 0.2948779,-0.055667 0.2096365,-0.00133 0.3098447,0.0292 0.4071328,0.1206933 0.022667,0.022667 0.042067,0.032733 0.042067,0.017667 0,-0.063467 -0.090708,-0.1539465 -0.2169433,-0.2159265 -0.1055749,-0.053133 -0.154709,-0.065267 -0.242397,-0.064733 -0.1232085,0 -0.244657,0.032267 -0.3502053,0.09196 -0.087688,0.049133 -0.1360688,0.050133 -0.1484156,0.00267 -0.0126,-0.043333 0.032267,-0.1148932 0.070554,-0.1148932 0.015134,0 0.025934,-0.00753 0.025934,-0.017667 0,-0.020133 0.1839362,-0.080633 0.2993646,-0.098273 0.022667,-0.00267 0.051134,-0.00533 0.080881,-0.00267 z M 15.549825,10.071666 c -0.0053,2.7e-5 -0.0126,0.0013 -0.02013,0.0053 -0.03047,0.0126 -0.167302,0.02267 -0.790325,0.06627 -0.149162,0.0075 -0.293038,0.02013 -0.318812,0.0262 -0.02593,0.0053 -0.147402,0.01513 -0.270817,0.02013 -0.123462,0.0075 -0.258091,0.01767 -0.299365,0.02013 -0.09499,0.0075 -0.525428,0.04433 -0.841199,0.06473 -0.133795,0.0075 -0.412346,0.0292 -0.618156,0.04687 -0.471707,0.03827 -0.793446,0.064 -1.10317,0.08441 -0.133796,0.0126 -0.357992,0.02267 -0.496908,0.03627 -0.520541,0.04033 -1.0641093,0.08214 -1.2722658,0.09675 -0.2471771,0.01767 -1.7069326,0.12598 -1.8889554,0.140593 -0.3690856,0.03 -0.6037225,0.04587 -0.8891002,0.06627 -0.1748691,0.0126 -0.3841256,0.03047 -0.4655135,0.03907 -0.081381,0.0075 -0.2252568,0.01767 -0.3187915,0.01767 -0.1592425,0 -0.4025195,0.0358 -0.4879875,0.07256 -0.1484089,0.064 -0.2325635,0.119434 -0.3517453,0.22778 -0.074834,0.06827 -0.1705826,0.148147 -0.2111499,0.178133 -0.1040616,0.07811 -0.2583706,0.264907 -0.4041061,0.48898 -0.2754575,0.42256 -0.3632922,0.512686 -0.5373749,0.55386 -0.136822,0.03253 -0.2159366,0.03127 -0.2812509,-0.0027 -0.045067,-0.02267 -0.063734,-0.05873 -0.1196818,-0.231047 -0.1138951,-0.351033 -0.22123,-0.655579 -0.2381103,-0.673066 -0.00753,-0.0126 -0.033267,0.02013 -0.056668,0.07861 -0.022667,0.05313 -0.053667,0.104313 -0.070554,0.110106 -0.063268,0.0262 -0.7114842,0.031 -0.8861202,0.0075 -0.2275301,-0.03047 -0.3598921,-0.0544 -0.4625137,-0.08441 -0.046601,-0.01513 -0.1229618,-0.03353 -0.1690759,-0.04813 -0.046334,-0.01513 -0.091968,-0.03173 -0.1015415,-0.0406 -0.00753,-0.0075 -0.029,-0.01513 -0.042067,-0.01513 -0.033267,0 -0.1824228,-0.06903 -0.6002158,-0.277733 -0.19829635,-0.09927 -0.36512559,-0.175113 -0.37117235,-0.169066 -0.005333,0.0053 0.005333,0.04813 0.0290004,0.09348 0.022667,0.04533 0.0388006,0.08793 0.0388006,0.09675 0,0.0075 0.0604677,0.13884 0.13454875,0.291167 0.4123996,0.847146 0.8623665,1.492992 1.4878026,2.135518 0.4382467,0.450226 0.7944321,0.748646 1.267806,1.063979 0.5027543,0.3349 0.8091456,0.500293 1.403968,0.757593 0.2255167,0.09751 0.8065522,0.28736 1.1121169,0.3637 0.3885592,0.09701 0.7523312,0.153953 1.3471269,0.208373 0.2164433,0.02013 1.0127354,0.0126 1.2542724,-0.01513 0.4046662,-0.04207 0.701204,-0.08642 0.9070671,-0.134293 0.041334,-0.0075 0.1516823,-0.03527 0.2439037,-0.05593 0.4113132,-0.09473 0.9528472,-0.28356 1.4683492,-0.513119 0.128248,-0.0572 0.331138,-0.164274 0.616716,-0.322967 0.05647,-0.03127 0.200316,-0.12068 0.318791,-0.199293 0.118175,-0.07836 0.22879,-0.151427 0.245417,-0.16302 0.05647,-0.0368 0.136822,-0.09499 0.221484,-0.158733 0.311738,-0.235587 0.549315,-0.44204 0.844192,-0.73802 0.38436,-0.385726 0.500488,-0.519919 0.791812,-0.913026 0.199057,-0.268113 0.203844,-0.294313 0.05667,-0.294313 -0.04433,0 -0.08516,-0.0075 -0.09121,-0.01767 -0.0053,-0.0075 -0.02267,-0.132274 -0.0388,-0.270127 -0.03073,-0.282426 -0.0562,-0.44194 -0.08365,-0.51468 -0.0126,-0.0262 -0.02013,-0.07709 -0.02013,-0.110099 -3.07e-4,-0.03327 -0.0126,-0.09701 -0.02267,-0.14186 -0.029,-0.09826 -0.0514,-0.08113 -0.08844,0.06627 -0.02013,0.08038 -0.02013,0.1217 0,0.235333 0.02947,0.16654 0.03427,0.705813 0.0053,0.735013 -0.0126,0.0126 -0.119435,0.02013 -0.247177,0.02267 -0.177896,0.0027 -0.231057,-0.002 -0.24391,-0.02267 -0.0176,-0.0262 -0.03047,-0.2602 -0.0494,-0.872306 -0.0053,-0.193006 -0.01767,-0.383786 -0.02593,-0.42408 -0.0075,-0.04053 -0.01767,-0.119673 -0.01767,-0.176619 -2.8e-4,-0.0572 -0.0126,-0.20056 -0.02593,-0.318454 -0.01513,-0.117913 -0.02267,-0.227019 -0.01767,-0.241633 0.0053,-0.01513 0.03273,-0.0262 0.06,-0.0292 0.02593,-0.0027 0.09625,-0.0053 0.152689,-0.0075 0.350112,-0.01513 0.438046,-0.0292 0.502907,-0.07861 l 0.06427,-0.04987 0.08517,0.03327 c 0.04713,0.01767 0.119182,0.0474 0.160256,0.062 0.09247,0.0348 0.173102,0.109354 0.208123,0.193007 0.03173,0.07634 0.0348,0.27484 0.0053,0.460333 -0.02013,0.12522 -0.02593,0.139333 -0.103308,0.20686 -0.08416,0.07509 -0.09928,0.12094 -0.06573,0.206853 0.0075,0.02267 0.02593,0.07635 0.03753,0.117673 0.06347,0.242887 0.08466,0.311927 0.127242,0.396933 0.02593,0.05193 0.05747,0.112374 0.06904,0.135807 0.0126,0.02013 0.02593,0.0436 0.033,0.04387 0.01513,2e-4 0.216697,-0.364839 0.339778,-0.614259 0.168316,-0.340553 0.306798,-0.696366 0.472974,-1.219406 0.04687,-0.14816 0.05087,-0.219206 0.01513,-0.2187 z m -2.444277,0.3637 c 0.169076,-0.0027 0.175622,0.02013 0.175122,0.102553 -6.33e-4,0.09523 -0.0348,0.234573 -0.06147,0.25206 -0.03253,0.02013 -0.413833,0.01767 -0.469974,-0.0027 -0.0426,-0.01767 -0.05213,-0.0126 -0.07937,0.0406 -0.04133,0.08012 -0.02267,0.290553 0.03453,0.389353 0.03073,0.0542 0.03707,0.08642 0.02593,0.140594 -0.01513,0.07181 -0.02267,0.07685 -0.112382,0.07105 -0.0388,-0.0027 -0.05547,0.0053 -0.063,0.0348 -0.0075,0.03 -0.02267,0.0378 -0.07786,0.03627 -0.09777,-0.0027 -0.208129,-0.05193 -0.208129,-0.09348 0,-0.01767 -0.01767,-0.04433 -0.036,-0.05893 -0.04533,-0.03227 -0.07181,-0.205606 -0.08844,-0.568979 l -0.0126,-0.274813 0.04487,-0.0075 c 0.05747,-0.0126 0.254897,-0.0262 0.69753,-0.04813 0.09851,-0.0053 0.172596,-0.0075 0.229037,-0.0126 z m 1.171984,0.0126 c -0.01767,-0.002 -0.03427,0.01767 -0.0388,0.0572 -0.0027,0.0262 -0.02013,0.06553 -0.04207,0.08289 -0.03527,0.03147 -0.0398,0.03173 -0.0897,-0.01767 -0.06427,-0.062 -0.07484,-0.06273 -0.139336,-0.0027 -0.0486,0.04533 -0.06803,0.127493 -0.036,0.1479 0.0075,0.0053 0.01513,0.07559 0.01767,0.156966 0.002,0.08113 0.01513,0.191247 0.02267,0.245913 h 0.0013 c 0.02013,0.09625 0.02267,0.09827 0.07937,0.09827 0.07333,0 0.139842,-0.04333 0.164536,-0.108587 0.0126,-0.0262 0.02593,-0.112126 0.03607,-0.188726 0.0126,-0.08591 0.03073,-0.158733 0.05393,-0.19174 0.04233,-0.0602 0.0466,-0.109853 0.01767,-0.214413 -0.0126,-0.0418 -0.03127,-0.06453 -0.04913,-0.06627 z m -2.477204,0.113133 c 0.169576,3e-4 0.220723,0.0126 0.236343,0.05293 0.02013,0.0514 0.03327,0.260226 0.02013,0.310893 -0.0126,0.04613 -0.01767,0.04587 -0.22753,0.06047 -0.177636,0.0126 -0.21921,0.02013 -0.23357,0.04687 -0.0075,0.01767 -0.0126,0.03653 -0.0053,0.04533 0.0075,0.0075 0.01513,0.190227 0.01513,0.404467 0.0027,0.490693 0.01767,0.780852 0.0552,1.068492 0.01767,0.124713 0.02593,0.277487 0.02267,0.339593 l -0.0053,0.11338 h -0.181162 c -0.120189,0 -0.189483,0.0075 -0.205104,0.02267 -0.029,0.0292 -0.0544,0.0292 -0.09273,-0.0013 -0.029,-0.02267 -0.04587,-0.153693 -0.08365,-0.644412 -0.0053,-0.07282 -0.0358,-0.370407 -0.06753,-0.66102 -0.03147,-0.290586 -0.0612,-0.564113 -0.06573,-0.608213 -0.0126,-0.097 -0.03427,-0.10506 -0.236351,-0.09045 -0.173602,0.01513 -0.179149,0.0053 -0.194516,-0.23558 -0.01513,-0.234327 -0.02267,-0.227773 0.299365,-0.22198 0.150175,0.0027 0.265624,0.0126 0.272577,0.02267 0.0053,0.0126 0.01513,0.04967 0.01513,0.08591 v 0.06473 h 0.130522 c 0.07206,0 0.154455,0.0075 0.182929,0.01767 0.066,0.02013 0.140089,-0.02267 0.157476,-0.09675 0.02013,-0.08969 0.03953,-0.09851 0.19175,-0.09826 z m -1.546157,0.02013 c 0.22047,0.0053 0.204596,0.037 0.190236,0.188713 -0.0053,0.07383 -0.01767,0.142353 -0.02593,0.153946 -0.0075,0.0126 -0.0965,0.01767 -0.221477,0.01513 -0.123969,-0.0027 -0.2101434,0.002 -0.2169502,0.01513 -0.00533,0.0126 -0.0292,0.02013 -0.049401,0.02013 -0.025934,0 -0.040067,-0.01767 -0.047601,-0.0572 -0.0126,-0.0612 -0.055668,-0.07583 -0.074834,-0.0262 -0.00533,0.01767 -0.002,0.0474 0.00753,0.06473 0.0126,0.01767 0.029467,0.13354 0.040334,0.256393 0.0126,0.12296 0.025934,0.248433 0.034534,0.279226 l 0.017667,0.0572 0.1375762,-0.0053 c 0.07609,-0.0027 0.169069,-0.0075 0.205103,-0.0075 l 0.06573,-0.0027 0.0027,0.1678 0.0053,0.167806 -0.0476,-0.0126 c -0.0338,-0.0075 -0.06327,6.67e-4 -0.101795,0.03 -0.04533,0.03273 -0.07105,0.03727 -0.148408,0.0292 -0.1267427,-0.01513 -0.1436229,0.0075 -0.1436229,0.202073 v 0.14966 l -0.065734,0.0027 c -0.036001,0 -0.086675,-0.0053 -0.112375,-0.01767 -0.025934,-0.0126 -0.1010415,-0.0262 -0.1675625,-0.03327 L 9.416142,12.205985 9.401008,12.064131 C 9.393478,11.986025 9.378341,11.820238 9.368008,11.695865 9.355408,11.571399 9.332474,11.299559 9.31134,11.092199 9.291206,10.884832 9.276073,10.697626 9.281606,10.677192 c 0.0176,-0.06803 0.1600024,-0.08944 0.66157,-0.09524 0.135055,-0.0013 0.234583,-0.0027 0.308331,-0.0013 z m -1.6345022,0.147893 c 0.045334,-0.0013 0.078361,0.0053 0.1138884,0.0262 0.064001,0.03327 0.086681,0.100526 0.1000349,0.288246 0.00533,0.09145 0.035534,0.20786 0.088441,0.3577 0.043334,0.12246 0.096755,0.302706 0.1196818,0.4014 0.022667,0.09851 0.043867,0.18746 0.046334,0.1993 0.00267,0.0126 0.00267,0.0292 0.00267,0.04053 -0.00267,0.02973 -0.1685692,0.07307 -0.3233249,0.08768 l -0.1257353,0.0126 -0.046334,-0.144873 c -0.025934,-0.08013 -0.076348,-0.27222 -0.1138884,-0.4271 -0.037534,-0.15496 -0.074841,-0.293407 -0.083655,-0.310893 -0.022667,-0.04333 -0.034,0.01767 -0.046334,0.289706 -0.00533,0.12446 -0.0176,0.303487 -0.022667,0.398367 l -0.0126,0.173606 0.050867,0.03327 c 0.041334,0.0292 0.065001,0.03273 0.1196818,0.01767 0.1070883,-0.0292 0.1471489,-0.01513 0.1736093,0.05893 0.0126,0.03527 0.032734,0.06527 0.043601,0.06473 0.0126,-3e-4 0.090708,-0.02973 0.1781427,-0.06473 0.1050749,-0.04233 0.1690692,-0.06 0.1887229,-0.04813 0.031,0.01767 0.050401,0.07383 0.1018015,0.292754 0.017667,0.07282 0.045601,0.172839 0.064268,0.224999 0.059934,0.168567 0.078615,0.243647 0.082141,0.339567 l 0.00267,0.09525 -0.1214485,0.0126 c -0.067021,0.0075 -0.1637758,0.02013 -0.2156833,0.0262 -0.1224552,0.01767 -0.1194351,0.02013 -0.2051031,-0.283853 -0.0176,-0.06227 -0.0348,-0.122706 -0.038801,-0.13732 -0.00267,-0.01513 -0.033267,-0.03227 -0.064268,-0.04387 -0.063734,-0.02267 -0.070301,-0.04533 -0.025934,-0.09499 0.025934,-0.0292 0.029001,-0.0436 0.00753,-0.08441 -0.020134,-0.04333 -0.030267,-0.0464 -0.082141,-0.03753 -0.033,0.0053 -0.096255,0.01767 -0.1405954,0.02267 -0.099282,0.01513 -0.1086017,0.03473 -0.1138951,0.252033 -0.00533,0.207113 -0.029,0.29948 -0.083655,0.31994 -0.022667,0.0075 -0.067274,0.04633 -0.097508,0.08289 v -0.0027 c -0.066268,0.08013 -0.1887228,0.110107 -0.2396236,0.05893 -0.017667,-0.01767 -0.030267,-0.04107 -0.03,-0.05293 1.534e-4,-0.0126 0.020134,-0.379173 0.046401,-0.814986 0.025934,-0.435746 0.051401,-0.949039 0.058467,-1.140926 0.00533,-0.191993 0.020134,-0.364286 0.029,-0.381819 0.015134,-0.0262 0.042334,-0.03327 0.1451356,-0.03327 0.070554,0 0.1942696,-0.01767 0.2754508,-0.03753 0.088695,-0.02267 0.1461423,-0.03327 0.1917496,-0.0348 z m -1.362114,0.105826 0.097508,0.04387 c 0.053134,0.02267 0.1214486,0.04713 0.149669,0.05293 0.075594,0.01513 0.1925029,0.155714 0.2081298,0.252007 0.00533,0.04307 0.00533,0.17688 0,0.295826 l -0.015134,0.215933 -0.065734,0.05893 c -0.135562,0.1227 -0.153449,0.152433 -0.1196885,0.193 0.020134,0.02267 0.050134,0.119679 0.089955,0.291213 0.038534,0.16604 0.077354,0.26486 0.1451356,0.365219 0.025934,0.04007 0.044067,0.08188 0.037534,0.09347 -0.00533,0.0126 -0.0126,0.07458 -0.00753,0.138833 0.00267,0.108593 6.667e-4,0.116653 -0.038801,0.122447 -0.030734,0.0027 -0.045601,0.02267 -0.052401,0.06347 -0.0126,0.0622 -0.046867,0.07307 -0.1305153,0.04687 -0.025934,-0.0075 -0.086928,-0.01513 -0.1345553,-0.01767 -0.103555,-0.0027 -0.1091017,-0.0126 -0.1091017,-0.196273 0,-0.137573 -0.00267,-0.174613 -0.083655,-0.58256 -0.025934,-0.131026 -0.046334,-0.264886 -0.046334,-0.297313 0,-0.0592 -0.0126,-0.07005 -0.049401,-0.04387 -0.030201,0.02013 -0.079368,0.253499 -0.063001,0.298853 0.045334,0.12296 0.054667,0.768959 0.0126,0.811892 -0.0176,0.01767 -0.4598134,0.01513 -0.4774804,-0.0027 -0.00753,-0.0126 -0.022667,-0.20358 -0.029734,-0.43012 C 6.559886,12.059071 6.549086,11.885665 6.516552,11.667518 6.501418,11.566492 6.490618,11.425892 6.490618,11.356632 c 0,-0.06954 -0.0126,-0.17562 -0.022667,-0.235587 -0.0126,-0.0602 -0.015134,-0.115146 -0.00753,-0.123959 0.015134,-0.01513 0.1597491,-0.031 0.496934,-0.0544 0.125982,-0.0075 0.172596,-0.02013 0.2305502,-0.06047 z m 0.1166618,0.187207 -0.0126,0.06047 c -0.00753,0.0416 -0.0292,0.07004 -0.067528,0.0907 -0.059734,0.032 -0.1131351,0.0368 -0.1138884,0.01513 -2.267e-4,-0.0075 -0.015134,-0.0358 -0.034534,-0.05893 -0.029,-0.03807 -0.040601,-0.04033 -0.074588,-0.02267 -0.052934,0.0292 -0.1038082,0.129253 -0.080881,0.158733 0.00753,0.0126 0.022667,0.07735 0.029,0.144873 0.022667,0.230293 0.033267,0.329767 0.040601,0.353127 v 0.0013 c 0.00267,0.0126 0.038534,0.02267 0.076341,0.02267 0.108095,0 0.1683159,-0.07987 0.1841895,-0.241633 0.00533,-0.07256 0.032534,-0.171587 0.058467,-0.227767 0.051134,-0.112127 0.054201,-0.155967 0.020134,-0.238353 z m -1.8350677,0.0075 c 0.085668,-0.0013 0.1819227,0.0053 0.2679174,0.02013 0.094995,0.01767 0.1368221,0.03653 0.2257634,0.108593 0.1446356,0.117166 0.2245034,0.252366 0.241137,0.407526 0.015134,0.130513 6.067e-4,0.17108 -0.067528,0.205347 -0.022667,0.0126 -0.054934,0.0418 -0.067274,0.06803 -0.030467,0.06247 -0.051134,0.07155 -0.2066165,0.08617 l -0.1345487,0.01513 -0.029001,-0.07105 c -0.017667,-0.04513 -0.029,-0.131527 -0.029734,-0.24164 -0.002,-0.224493 -0.0126,-0.249187 -0.104815,-0.249187 -0.072314,0 -0.072568,-6.66e-4 -0.077861,-0.07861 -0.00533,-0.07584 -0.052134,-0.1285 -0.069034,-0.0771 -0.017667,0.05793 -0.043067,0.408753 -0.046401,0.680639 l -0.00267,0.29734 0.077861,0.03173 c 0.054934,0.02013 0.074581,0.04007 0.069041,0.06047 -0.00533,0.01767 -0.00133,0.133033 0.00533,0.256673 0.017667,0.286833 0.043867,0.34866 0.1511756,0.34866 0.1254819,0 0.2217367,0.07811 0.2217367,0.179653 0,0.032 0.030267,0.0348 0.049401,0.0027 0.00753,-0.0126 0.020134,-0.0698 0.029,-0.12674 0.0126,-0.09197 0.00753,-0.11716 -0.040334,-0.220467 -0.049134,-0.103806 -0.054201,-0.127993 -0.043601,-0.232559 0.0126,-0.103307 0.017667,-0.11842 0.061468,-0.1358 0.066268,-0.0262 0.3869526,-0.0126 0.4161263,0.0176 0.017667,0.01767 0.017667,0.06273 -0.00133,0.208373 -0.042067,0.328046 -0.048867,0.349486 -0.1663025,0.473886 -0.104315,0.110353 -0.174616,0.161 -0.3008246,0.2187 v -0.0013 c -0.068534,0.032 -0.239117,0.03527 -0.416153,0.0075 -0.1259819,-0.01767 -0.306618,-0.125987 -0.3397518,-0.202573 -0.0126,-0.0292 -0.053201,-0.09852 -0.091215,-0.155467 -0.038067,-0.0572 -0.082141,-0.155206 -0.1002815,-0.21744 -0.037067,-0.129506 -0.076855,-0.197786 -0.113895,-0.197786 -0.015134,0 -0.038534,-0.01767 -0.053934,-0.04233 -0.022667,-0.03427 -0.025934,-0.09171 -0.020134,-0.270127 0.00753,-0.290886 0.038067,-0.53514 0.064268,-0.561393 0.0126,-0.0126 0.020134,-0.0446 0.020134,-0.07105 0,-0.180914 0.1940162,-0.420627 0.417613,-0.514653 0.042334,-0.01767 0.1179218,-0.0262 0.2035897,-0.0292 z m 7.3402781,0.298827 c 0.02593,-0.0053 0.05747,0.0027 0.09273,0.0292 0.035,0.02267 0.06427,0.05167 0.06427,0.06347 4.6e-5,0.0126 0.0176,0.0552 0.03753,0.09827 0.06778,0.142606 0.0602,0.148406 -0.233577,0.16302 l -0.149669,0.0075 0.0027,0.241627 c 0.0013,0.133539 0.0126,0.276553 0.02267,0.318426 l 0.02013,0.07534 0.308385,-0.0075 0.308311,-0.0075 -0.0053,0.167807 -0.0027,0.167553 -0.18721,0.0126 c -0.103054,0.0053 -0.214929,0.01767 -0.248443,0.0262 -0.03953,0.0075 -0.06954,0.0053 -0.08693,-0.0075 -0.02013,-0.01767 -0.0552,-0.01767 -0.136062,-0.0027 -0.06,0.0126 -0.186963,0.02267 -0.281251,0.0292 -0.141609,0.0075 -0.175876,0.0027 -0.19603,-0.02013 -0.02013,-0.02267 -0.02593,-0.138574 -0.02593,-0.4754 -0.0013,-0.245153 -0.0126,-0.476126 -0.02013,-0.514653 -0.01513,-0.05493 -0.01513,-0.07583 0.0075,-0.09347 0.0368,-0.031 0.192003,-0.0075 0.287324,0.0408 0.08844,0.0456 0.119936,0.033 0.139336,-0.05593 0.0075,-0.0368 0.02593,-0.05747 0.06147,-0.06627 0.06828,-0.01767 0.150422,-0.07911 0.164535,-0.123967 0.0126,-0.035 0.03073,-0.0562 0.05667,-0.062 z m -3.2749899,0.985512 c 0.054201,0.002 0.1045683,0.0126 0.1302687,0.0292 0.030267,0.02013 0.064734,0.0262 0.1017949,0.01767 0.052401,-0.0126 0.055934,-0.0075 0.073328,0.05893 0.059468,0.229287 0.080121,0.687226 0.033,0.709346 -0.015134,0.0053 -0.077355,0.01767 -0.1393421,0.02267 l -0.112375,0.0126 -0.038801,-0.06353 C 9.6208436,13.04821 9.5999096,13.03715 9.5341421,13.02831 l -0.079375,-0.0075 -0.0126,-0.150927 c -0.00533,-0.08289 -0.017666,-0.233813 -0.022666,-0.335033 l -0.015134,-0.184433 0.049134,-0.0176 c 0.037267,-0.01513 0.095248,-0.01767 0.1496689,-0.01767 z"/>
        </svg>