<svg xmlns="http://www.w3.org/2000/svg" width="24" height="24" fill="#efb521" className="bi bi-dice-5-fill" viewBox="0 0 16 16">
            <path d="M 1.1307749,1.6172016e-6 A 1.1326172,1.1326172 0 0 0 3.1491563e-4,1.1361416 V 14.869512 A 1.1326172,1.1326172 0 0 0 1.1307749,15.999982 H 14.865575 a 1.1326172,1.1326172 0 0 0 1.13473,-1.13047 V 1.1361416 A 1.1326172,1.1326172 0 0 0 14.865575,1.6172016e-6 Z M 1.7436449,2.8936916 h 5.92819 v 1.97513 h -2.09741 v 8.2374504 h -1.73338 V 4.8688216 h -2.0974 z m 7.0359,0 h 0.30857 a 0.14007171,0.14007171 0 0 0 0.13794,0.11942 0.14007171,0.14007171 0 0 0 0.13934,-0.11942 h 0.30715 a 0.14007171,0.14007171 0 0 0 0.13934,0.11942 0.14007171,0.14007171 0 0 0 0.13795,-0.11942 h 0.3085601 a 0.14007171,0.14007171 0 0 0 0.13795,0.11942 0.14007171,0.14007171 0 0 0 0.13934,-0.11942 h 0.30715 a 0.14007171,0.14007171 0 0 0 0.13793,0.11942 0.14007171,0.14007171 0 0 0 0.13935,-0.11942 h 0.30714 a 0.14007171,0.14007171 0 0 0 0.13935,0.11942 0.14007171,0.14007171 0 0 0 0.13651,-0.11529 c 0.11051,0.003 0.21639,0.011 0.3171,0.022 a 0.14007171,0.14007171 0 0 0 0.13082,0.0925 0.14007171,0.14007171 0 0 0 0.11092,-0.054 c 0.13653,0.0275 0.26562,0.06 0.38108,0.10512 0.20497,0.0762 0.39152,0.18243 0.56311,0.31426 a 0.14007171,0.14007171 0 0 0 -0.0242,0.0795 0.14007171,0.14007171 0 0 0 0.13934,0.14089 0.14007171,0.14007171 0 0 0 0.0967,-0.0385 c 0.002,0.002 0.004,0.003 0.006,0.006 0.13109,0.13071 0.24606,0.27916 0.34696,0.44509 a 0.14007171,0.14007171 0 0 0 -0.004,0.0328 0.14007171,0.14007171 0 0 0 0.091,0.12932 c 0.0602,0.11641 0.1151,0.2394 0.1621,0.37116 a 0.14007171,0.14007171 0 0 0 -0.11232,-0.0569 0.14007171,0.14007171 0 0 0 -0.14078,0.14089 0.14007171,0.14007171 0 0 0 0.14078,0.13924 0.14007171,0.14007171 0 0 0 0.13934,-0.13924 0.14007171,0.14007171 0 0 0 0,-0.011 c 0.14097,0.41763 0.21188,0.9159 0.21188,1.49876 0,0.45722 -0.0526,0.90627 -0.15783,1.34519 -0.047,0.19426 -0.10567,0.37208 -0.17064,0.53891 a 0.14007171,0.14007171 0 0 0 -0.0229,-0.001 0.14007171,0.14007171 0 0 0 -0.14077,0.14088 0.14007171,0.14007171 0 0 0 0.0555,0.10952 c -0.0534,0.10952 -0.10939,0.21463 -0.17207,0.30998 -0.26768,0.40235 -0.56785,0.70713 -0.89868,0.9129 -0.30073,0.18876 -0.67449,0.28586 -1.11199,0.30147 a 0.14007171,0.14007171 0 0 0 -0.0725,-0.0192 0.14007171,0.14007171 0 0 0 -0.0825,0.0275 h -0.42089 a 0.14007171,0.14007171 0 0 0 -0.0825,-0.0275 0.14007171,0.14007171 0 0 0 -0.081,0.0275 h -0.42091 a 0.14007171,0.14007171 0 0 0 -0.0825,-0.0275 0.14007171,0.14007171 0 0 0 -0.13935,0.14088 0.14007171,0.14007171 0 0 0 0.13935,0.1392304 0.14007171,0.14007171 0 0 0 0.0498,-0.011 v 0.32421 a 0.14007171,0.14007171 0 0 0 -0.0498,-0.008 0.14007171,0.14007171 0 0 0 -0.13935,0.13923 0.14007171,0.14007171 0 0 0 0.13935,0.14089 0.14007171,0.14007171 0 0 0 0.0498,-0.011 v 0.3242 a 0.14007171,0.14007171 0 0 0 -0.0498,-0.011 0.14007171,0.14007171 0 0 0 -0.13935,0.1409 0.14007171,0.14007171 0 0 0 0.13935,0.13923 0.14007171,0.14007171 0 0 0 0.0498,-0.011 v 0.3242 a 0.14007171,0.14007171 0 0 0 -0.0498,-0.008 0.14007171,0.14007171 0 0 0 -0.13935,0.13923 0.14007171,0.14007171 0 0 0 0.13935,0.14088 0.14007171,0.14007171 0 0 0 0.0498,-0.011 v 0.32421 a 0.14007171,0.14007171 0 0 0 -0.0498,-0.011 0.14007171,0.14007171 0 0 0 -0.13935,0.14089 0.14007171,0.14007171 0 0 0 0.13935,0.13924 0.14007171,0.14007171 0 0 0 0.0498,-0.011 v 0.3242 a 0.14007171,0.14007171 0 0 0 -0.0498,-0.011 0.14007171,0.14007171 0 0 0 -0.13935,0.14089 0.14007171,0.14007171 0 0 0 0.13935,0.14088 0.14007171,0.14007171 0 0 0 0.0498,-0.011 v 0.1563 H 8.7131849 v -0.16648 a 0.14007171,0.14007171 0 0 0 0.0683,-0.1208 0.14007171,0.14007171 0 0 0 -0.0683,-0.11942 v -0.29578 a 0.11523736,0.11523736 0 0 0 0.0355,-0.0795 0.14007171,0.14007171 0 0 0 0.0327,-0.0897 0.14007171,0.14007171 0 0 0 -0.0683,-0.1208 v -0.34412 a 0.14007171,0.14007171 0 0 0 0.0683,-0.1208 0.14007171,0.14007171 0 0 0 -0.0498,-0.10677 0.11523736,0.11523736 0 0 0 0.017,-0.0611 0.11523736,0.11523736 0 0 0 -0.0355,-0.0825 v -0.21326 a 0.14007171,0.14007171 0 0 0 0.0683,-0.12079 0.14007171,0.14007171 0 0 0 -0.0683,-0.1208 v -0.22041 a 0.11523736,0.11523736 0 0 0 0.0355,-0.0826 0.11523736,0.11523736 0 0 0 -0.0143,-0.0569 0.14007171,0.14007171 0 0 0 0.0469,-0.10511 0.14007171,0.14007171 0 0 0 -0.0683,-0.11942 v -0.34553 a 0.14007171,0.14007171 0 0 0 0.0683,-0.1194204 0.14007171,0.14007171 0 0 0 -0.0327,-0.0911 0.11523736,0.11523736 0 0 0 0,-0.003 0.11523736,0.11523736 0 0 0 -0.0355,-0.0826 v -0.28865 a 0.14007171,0.14007171 0 0 0 0.0683,-0.12079 0.14007171,0.14007171 0 0 0 -0.0683,-0.11942 v -0.14502 a 0.11523736,0.11523736 0 0 0 0.0355,-0.0839 0.11523736,0.11523736 0 0 0 -0.0355,-0.0839 v -0.0314 a 0.14007171,0.14007171 0 0 0 0.0683,-0.1208 0.14007171,0.14007171 0 0 0 -0.0683,-0.12081 v -0.34412 a 0.14007171,0.14007171 0 0 0 0.0683,-0.11942 0.14007171,0.14007171 0 0 0 -0.0683,-0.1208 v -0.34412 a 0.14007171,0.14007171 0 0 0 0.0683,-0.12081 0.14007171,0.14007171 0 0 0 -0.0683,-0.11942 v -0.071 a 0.11523736,0.11523736 0 0 0 0.0355,-0.0839 0.11523736,0.11523736 0 0 0 -0.0355,-0.0839 v -0.10511 a 0.14007171,0.14007171 0 0 0 0.0683,-0.1208 0.14007171,0.14007171 0 0 0 -0.0683,-0.1208 v -0.32563 a 0.11523736,0.11523736 0 0 0 0.0269,-0.0399 0.14007171,0.14007171 0 0 0 0.0412,-0.0996 0.14007171,0.14007171 0 0 0 -0.0683,-0.11942 v -0.34553 a 0.14007171,0.14007171 0 0 0 0.0683,-0.11942 0.14007171,0.14007171 0 0 0 -0.0654,-0.11943 0.11523736,0.11523736 0 0 0 0.0327,-0.0795 0.11523736,0.11523736 0 0 0 -0.0355,-0.0839 v -0.18188 a 0.14007171,0.14007171 0 0 0 0.0683,-0.1208 0.14007171,0.14007171 0 0 0 -0.0683,-0.11942 v -0.25178 a 0.11523736,0.11523736 0 0 0 0.0355,-0.0825 0.11523736,0.11523736 0 0 0 -0.006,-0.0355 0.14007171,0.14007171 0 0 0 0.0384,-0.0952 0.14007171,0.14007171 0 0 0 -0.0683,-0.1208 v -0.34412 a 0.14007171,0.14007171 0 0 0 0.0683,-0.11943 0.14007171,0.14007171 0 0 0 -0.037,-0.0952 0.11523736,0.11523736 0 0 0 0.004,-0.03 0.11523736,0.11523736 0 0 0 -0.0355,-0.0839 v -0.25591 a 0.14007171,0.14007171 0 0 0 0.0683,-0.1208 0.14007171,0.14007171 0 0 0 -0.0683,-0.11942 v -0.34413 a 0.14007171,0.14007171 0 0 0 0.0668,-0.10098 z m 0.4465,0.42516 a 0.14007171,0.14007171 0 0 0 -0.13934,0.13924 0.14007171,0.14007171 0 0 0 0.13934,0.14088 0.14007171,0.14007171 0 0 0 0.14077,-0.14088 0.14007171,0.14007171 0 0 0 -0.14077,-0.13924 z m 0.58585,0 a 0.14007171,0.14007171 0 0 0 -0.14078,0.13924 0.14007171,0.14007171 0 0 0 0.14078,0.14088 0.14007171,0.14007171 0 0 0 0.13935,-0.14088 0.14007171,0.14007171 0 0 0 -0.13935,-0.13924 z m 0.5844301,0 a 0.14007171,0.14007171 0 0 0 -0.13935,0.13924 0.14007171,0.14007171 0 0 0 0.13935,0.14088 0.14007171,0.14007171 0 0 0 0.14078,-0.14088 0.14007171,0.14007171 0 0 0 -0.14078,-0.13924 z m 0.58443,0 a 0.14007171,0.14007171 0 0 0 -0.13935,0.13924 0.14007171,0.14007171 0 0 0 0.13935,0.14088 0.14007171,0.14007171 0 0 0 0.14077,-0.14088 0.14007171,0.14007171 0 0 0 -0.14077,-0.13924 z m 0.58585,0 a 0.14007171,0.14007171 0 0 0 -0.14077,0.13924 0.14007171,0.14007171 0 0 0 0.14077,0.14088 0.14007171,0.14007171 0 0 0 0.13934,-0.14088 0.14007171,0.14007171 0 0 0 -0.13934,-0.13924 z m 0.58443,0 a 0.14007171,0.14007171 0 0 0 -0.13935,0.13924 0.14007171,0.14007171 0 0 0 0.13935,0.14088 0.14007171,0.14007171 0 0 0 0.14077,-0.14088 0.14007171,0.14007171 0 0 0 -0.14077,-0.13924 z m 0.58585,0 a 0.14007171,0.14007171 0 0 0 -0.14077,0.13924 0.14007171,0.14007171 0 0 0 0.14077,0.14088 0.14007171,0.14007171 0 0 0 0.13934,-0.14088 0.14007171,0.14007171 0 0 0 -0.13934,-0.13924 z m -3.5108401,0.58443 a 0.14007171,0.14007171 0 0 0 -0.13934,0.14089 0.14007171,0.14007171 0 0 0 0.13934,0.13923 0.14007171,0.14007171 0 0 0 0.14077,-0.13923 0.14007171,0.14007171 0 0 0 -0.14077,-0.14089 z m 0.58585,0 a 0.14007171,0.14007171 0 0 0 -0.14078,0.14089 0.14007171,0.14007171 0 0 0 0.14078,0.13923 0.14007171,0.14007171 0 0 0 0.13935,-0.13923 0.14007171,0.14007171 0 0 0 -0.13935,-0.14089 z m 0.5844301,0 a 0.14007171,0.14007171 0 0 0 -0.13935,0.14089 0.14007171,0.14007171 0 0 0 0.13935,0.13923 0.14007171,0.14007171 0 0 0 0.14078,-0.13923 0.14007171,0.14007171 0 0 0 -0.14078,-0.14089 z m 0.58443,0 a 0.14007171,0.14007171 0 0 0 -0.13935,0.14089 0.14007171,0.14007171 0 0 0 0.13935,0.13923 0.14007171,0.14007171 0 0 0 0.14077,-0.13923 0.14007171,0.14007171 0 0 0 -0.14077,-0.14089 z m 0.58585,0 a 0.14007171,0.14007171 0 0 0 -0.14077,0.14089 0.14007171,0.14007171 0 0 0 0.14077,0.13923 0.14007171,0.14007171 0 0 0 0.13934,-0.13923 0.14007171,0.14007171 0 0 0 -0.13934,-0.14089 z m 0.58443,0 a 0.14007171,0.14007171 0 0 0 -0.13935,0.14089 0.14007171,0.14007171 0 0 0 0.13935,0.13923 0.14007171,0.14007171 0 0 0 0.14077,-0.13923 0.14007171,0.14007171 0 0 0 -0.14077,-0.14089 z m 0.58585,0 a 0.14007171,0.14007171 0 0 0 -0.14077,0.14089 0.14007171,0.14007171 0 0 0 0.14077,0.13923 0.14007171,0.14007171 0 0 0 0.13934,-0.13923 0.14007171,0.14007171 0 0 0 -0.13934,-0.14089 z m 0.58443,0 a 0.14007171,0.14007171 0 0 0 -0.13934,0.14089 0.14007171,0.14007171 0 0 0 0.13934,0.13923 0.14007171,0.14007171 0 0 0 0.14078,-0.13923 0.14007171,0.14007171 0 0 0 -0.14078,-0.14089 z m -4.0952701,0.58443 a 0.14007171,0.14007171 0 0 0 -0.13934,0.14088 0.14007171,0.14007171 0 0 0 0.13934,0.13924 0.14007171,0.14007171 0 0 0 0.14077,-0.13924 0.14007171,0.14007171 0 0 0 -0.14077,-0.14088 z m 0.58585,0 a 0.14007171,0.14007171 0 0 0 -0.14078,0.14088 0.14007171,0.14007171 0 0 0 0.14078,0.13924 0.14007171,0.14007171 0 0 0 0.13935,-0.13924 0.14007171,0.14007171 0 0 0 -0.13935,-0.14088 z m 0.5844301,0 a 0.14007171,0.14007171 0 0 0 -0.13935,0.14088 0.14007171,0.14007171 0 0 0 0.13935,0.13924 0.14007171,0.14007171 0 0 0 0.14078,-0.13924 0.14007171,0.14007171 0 0 0 -0.14078,-0.14088 z m 0.58443,0 a 0.14007171,0.14007171 0 0 0 -0.13935,0.14088 0.14007171,0.14007171 0 0 0 0.13935,0.13924 0.14007171,0.14007171 0 0 0 0.14077,-0.13924 0.14007171,0.14007171 0 0 0 -0.14077,-0.14088 z m 0.58585,0 a 0.14007171,0.14007171 0 0 0 -0.14077,0.14088 0.14007171,0.14007171 0 0 0 0.14077,0.13924 0.14007171,0.14007171 0 0 0 0.13934,-0.13924 0.14007171,0.14007171 0 0 0 -0.13934,-0.14088 z m 0.58443,0 a 0.14007171,0.14007171 0 0 0 -0.13935,0.14088 0.14007171,0.14007171 0 0 0 0.13935,0.13924 0.14007171,0.14007171 0 0 0 0.14077,-0.13924 0.14007171,0.14007171 0 0 0 -0.14077,-0.14088 z m 0.58585,0 a 0.14007171,0.14007171 0 0 0 -0.14077,0.14088 0.14007171,0.14007171 0 0 0 0.14077,0.13924 0.14007171,0.14007171 0 0 0 0.13934,-0.13924 0.14007171,0.14007171 0 0 0 -0.13934,-0.14088 z m 0.58443,0 a 0.14007171,0.14007171 0 0 0 -0.13934,0.14088 0.14007171,0.14007171 0 0 0 0.13934,0.13924 0.14007171,0.14007171 0 0 0 0.14078,-0.13924 0.14007171,0.14007171 0 0 0 -0.14078,-0.14088 z m -2.87523,0.31284 v 0.28155 a 0.14007171,0.14007171 0 0 0 -0.0498,-0.008 0.14007171,0.14007171 0 0 0 -0.13934,0.13924 0.14007171,0.14007171 0 0 0 0.13934,0.14088 0.14007171,0.14007171 0 0 0 0.0498,-0.011 v 0.3242 a 0.14007171,0.14007171 0 0 0 -0.0498,-0.011 0.14007171,0.14007171 0 0 0 -0.13934,0.14089 0.14007171,0.14007171 0 0 0 0.13934,0.13924 0.14007171,0.14007171 0 0 0 0.0498,-0.011 v 0.3242 a 0.14007171,0.14007171 0 0 0 -0.0498,-0.008 0.14007171,0.14007171 0 0 0 -0.13934,0.13924 0.14007171,0.14007171 0 0 0 0.13934,0.14088 0.14007171,0.14007171 0 0 0 0.0498,-0.011 v 0.32423 a 0.14007171,0.14007171 0 0 0 -0.0498,-0.011 0.14007171,0.14007171 0 0 0 -0.13934,0.14089 0.14007171,0.14007171 0 0 0 0.13934,0.13923 0.14007171,0.14007171 0 0 0 0.0498,-0.011 v 0.32423 a 0.14007171,0.14007171 0 0 0 -0.0498,-0.008 0.14007171,0.14007171 0 0 0 -0.13934,0.13924 0.14007171,0.14007171 0 0 0 0.13934,0.14088 0.14007171,0.14007171 0 0 0 0.0498,-0.011 v 0.17501 h 0.49628 c 0.29474,0 0.53572,-0.0283 0.7252,-0.0825 0.13109,-0.0374 0.2466,-0.10209 0.34839,-0.19069 a 0.14007171,0.14007171 0 0 0 0.13507,0.10814 0.14007171,0.14007171 0 0 0 0.14078,-0.14089 0.14007171,0.14007171 0 0 0 -0.11946,-0.13785 c 0.0998,-0.13979 0.17416,-0.30173 0.21899,-0.48914 0.0511,-0.20583 0.0754,-0.45535 0.0754,-0.74796 0,-0.28806 -0.0513,-0.5351 -0.15357,-0.74087 -0.0212,-0.0438 -0.0427,-0.0842 -0.0654,-0.12218 a 0.14007171,0.14007171 0 0 0 0.044,-0.10235 0.14007171,0.14007171 0 0 0 -0.14078,-0.13924 0.14007171,0.14007171 0 0 0 -0.0739,0.022 c -0.0387,-0.0374 -0.0792,-0.0713 -0.12089,-0.0966 -0.18045,-0.10979 -0.35611,-0.1684 -0.52755,-0.17776 -0.17145,-0.0138 -0.39966,-0.0193 -0.68538,-0.0193 z m -1.2200401,0.27296 a 0.14007171,0.14007171 0 0 0 -0.13934,0.13924 0.14007171,0.14007171 0 0 0 0.13934,0.14088 0.14007171,0.14007171 0 0 0 0.14077,-0.14088 0.14007171,0.14007171 0 0 0 -0.14077,-0.13924 z m 0.58585,0 a 0.14007171,0.14007171 0 0 0 -0.14078,0.13924 0.14007171,0.14007171 0 0 0 0.14078,0.14088 0.14007171,0.14007171 0 0 0 0.13935,-0.14088 0.14007171,0.14007171 0 0 0 -0.13935,-0.13924 z m 2.9249901,0 a 0.14007171,0.14007171 0 0 0 -0.14077,0.13924 0.14007171,0.14007171 0 0 0 0.14077,0.14088 0.14007171,0.14007171 0 0 0 0.13934,-0.14088 0.14007171,0.14007171 0 0 0 -0.13934,-0.13924 z m 0.58443,0 a 0.14007171,0.14007171 0 0 0 -0.13934,0.13924 0.14007171,0.14007171 0 0 0 0.13934,0.14088 0.14007171,0.14007171 0 0 0 0.14078,-0.14088 0.14007171,0.14007171 0 0 0 -0.14078,-0.13924 z m 0.58585,0 a 0.14007171,0.14007171 0 0 0 -0.14078,0.13924 0.14007171,0.14007171 0 0 0 0.14078,0.14088 0.14007171,0.14007171 0 0 0 0.13935,-0.14088 0.14007171,0.14007171 0 0 0 -0.13935,-0.13924 z m -4.6811201,0.58443 a 0.14007171,0.14007171 0 0 0 -0.13934,0.14089 0.14007171,0.14007171 0 0 0 0.13934,0.13923 0.14007171,0.14007171 0 0 0 0.14077,-0.13923 0.14007171,0.14007171 0 0 0 -0.14077,-0.14089 z m 0.58585,0 a 0.14007171,0.14007171 0 0 0 -0.14078,0.14089 0.14007171,0.14007171 0 0 0 0.14078,0.13923 0.14007171,0.14007171 0 0 0 0.13935,-0.13923 0.14007171,0.14007171 0 0 0 -0.13935,-0.14089 z m 2.9249901,0 a 0.14007171,0.14007171 0 0 0 -0.14077,0.14089 0.14007171,0.14007171 0 0 0 0.14077,0.13923 0.14007171,0.14007171 0 0 0 0.13934,-0.13923 0.14007171,0.14007171 0 0 0 -0.13934,-0.14089 z m 0.58443,0 a 0.14007171,0.14007171 0 0 0 -0.13934,0.14089 0.14007171,0.14007171 0 0 0 0.13934,0.13923 0.14007171,0.14007171 0 0 0 0.14078,-0.13923 0.14007171,0.14007171 0 0 0 -0.14078,-0.14089 z m 0.58585,0 a 0.14007171,0.14007171 0 0 0 -0.14078,0.14089 0.14007171,0.14007171 0 0 0 0.14078,0.13923 0.14007171,0.14007171 0 0 0 0.13935,-0.13923 0.14007171,0.14007171 0 0 0 -0.13935,-0.14089 z m -4.6811201,0.58586 a 0.14007171,0.14007171 0 0 0 -0.13934,0.13924 0.14007171,0.14007171 0 0 0 0.13934,0.14088 0.14007171,0.14007171 0 0 0 0.14077,-0.14088 0.14007171,0.14007171 0 0 0 -0.14077,-0.13924 z m 0.58585,0 a 0.14007171,0.14007171 0 0 0 -0.14078,0.13924 0.14007171,0.14007171 0 0 0 0.14078,0.14088 0.14007171,0.14007171 0 0 0 0.13935,-0.14088 0.14007171,0.14007171 0 0 0 -0.13935,-0.13924 z m 2.9249901,0 a 0.14007171,0.14007171 0 0 0 -0.14077,0.13924 0.14007171,0.14007171 0 0 0 0.14077,0.14088 0.14007171,0.14007171 0 0 0 0.13934,-0.14088 0.14007171,0.14007171 0 0 0 -0.13934,-0.13924 z m 0.58443,0 a 0.14007171,0.14007171 0 0 0 -0.13934,0.13924 0.14007171,0.14007171 0 0 0 0.13934,0.14088 0.14007171,0.14007171 0 0 0 0.14078,-0.14088 0.14007171,0.14007171 0 0 0 -0.14078,-0.13924 z m 0.58585,0 a 0.14007171,0.14007171 0 0 0 -0.14078,0.13924 0.14007171,0.14007171 0 0 0 0.14078,0.14088 0.14007171,0.14007171 0 0 0 0.13935,-0.14088 0.14007171,0.14007171 0 0 0 -0.13935,-0.13924 z m -4.6811201,0.58443 a 0.14007171,0.14007171 0 0 0 -0.13934,0.14088 0.14007171,0.14007171 0 0 0 0.13934,0.13924 0.14007171,0.14007171 0 0 0 0.14077,-0.13924 0.14007171,0.14007171 0 0 0 -0.14077,-0.14088 z m 0.58585,0 a 0.14007171,0.14007171 0 0 0 -0.14078,0.14088 0.14007171,0.14007171 0 0 0 0.14078,0.13924 0.14007171,0.14007171 0 0 0 0.13935,-0.13924 0.14007171,0.14007171 0 0 0 -0.13935,-0.14088 z m 2.9249901,0 a 0.14007171,0.14007171 0 0 0 -0.14077,0.14088 0.14007171,0.14007171 0 0 0 0.14077,0.13924 0.14007171,0.14007171 0 0 0 0.13934,-0.13924 0.14007171,0.14007171 0 0 0 -0.13934,-0.14088 z m 0.58443,0 a 0.14007171,0.14007171 0 0 0 -0.13934,0.14088 0.14007171,0.14007171 0 0 0 0.13934,0.13924 0.14007171,0.14007171 0 0 0 0.14078,-0.13924 0.14007171,0.14007171 0 0 0 -0.14078,-0.14088 z m 0.58585,0 a 0.14007171,0.14007171 0 0 0 -0.14078,0.14088 0.14007171,0.14007171 0 0 0 0.14078,0.13924 0.14007171,0.14007171 0 0 0 0.13935,-0.13924 0.14007171,0.14007171 0 0 0 -0.13935,-0.14088 z m -4.6811201,0.58586 a 0.14007171,0.14007171 0 0 0 -0.13934,0.13923 0.14007171,0.14007171 0 0 0 0.13934,0.14089 0.14007171,0.14007171 0 0 0 0.14077,-0.14089 0.14007171,0.14007171 0 0 0 -0.14077,-0.13923 z m 0.58585,0 a 0.14007171,0.14007171 0 0 0 -0.14078,0.13923 0.14007171,0.14007171 0 0 0 0.14078,0.14089 0.14007171,0.14007171 0 0 0 0.13935,-0.14089 0.14007171,0.14007171 0 0 0 -0.13935,-0.13923 z m 2.9249901,0 a 0.14007171,0.14007171 0 0 0 -0.14077,0.13923 0.14007171,0.14007171 0 0 0 0.14077,0.14089 0.14007171,0.14007171 0 0 0 0.13934,-0.14089 0.14007171,0.14007171 0 0 0 -0.13934,-0.13923 z m 0.58443,0 a 0.14007171,0.14007171 0 0 0 -0.13934,0.13923 0.14007171,0.14007171 0 0 0 0.13934,0.14089 0.14007171,0.14007171 0 0 0 0.14078,-0.14089 0.14007171,0.14007171 0 0 0 -0.14078,-0.13923 z m 0.58585,0 a 0.14007171,0.14007171 0 0 0 -0.14078,0.13923 0.14007171,0.14007171 0 0 0 0.14078,0.14089 0.14007171,0.14007171 0 0 0 0.13935,-0.14089 0.14007171,0.14007171 0 0 0 -0.13935,-0.13923 z m -4.6811201,0.58443 a 0.14007171,0.14007171 0 0 0 -0.13934,0.14089 0.14007171,0.14007171 0 0 0 0.13934,0.13923 0.14007171,0.14007171 0 0 0 0.14077,-0.13923 0.14007171,0.14007171 0 0 0 -0.14077,-0.14089 z m 0.58585,0 a 0.14007171,0.14007171 0 0 0 -0.14078,0.14089 0.14007171,0.14007171 0 0 0 0.14078,0.13923 0.14007171,0.14007171 0 0 0 0.13935,-0.13923 0.14007171,0.14007171 0 0 0 -0.13935,-0.14089 z m 0.5844301,0 a 0.14007171,0.14007171 0 0 0 -0.13935,0.14089 0.14007171,0.14007171 0 0 0 0.13935,0.13923 0.14007171,0.14007171 0 0 0 0.14078,-0.13923 0.14007171,0.14007171 0 0 0 -0.14078,-0.14089 z m 0.58443,0 a 0.14007171,0.14007171 0 0 0 -0.13935,0.14089 0.14007171,0.14007171 0 0 0 0.13935,0.13923 0.14007171,0.14007171 0 0 0 0.14077,-0.13923 0.14007171,0.14007171 0 0 0 -0.14077,-0.14089 z m 0.58585,0 a 0.14007171,0.14007171 0 0 0 -0.14077,0.14089 0.14007171,0.14007171 0 0 0 0.14077,0.13923 0.14007171,0.14007171 0 0 0 0.13934,-0.13923 0.14007171,0.14007171 0 0 0 -0.13934,-0.14089 z m 0.58443,0 a 0.14007171,0.14007171 0 0 0 -0.13935,0.14089 0.14007171,0.14007171 0 0 0 0.13935,0.13923 0.14007171,0.14007171 0 0 0 0.14077,-0.13923 0.14007171,0.14007171 0 0 0 -0.14077,-0.14089 z m 0.58585,0 a 0.14007171,0.14007171 0 0 0 -0.14077,0.14089 0.14007171,0.14007171 0 0 0 0.14077,0.13923 0.14007171,0.14007171 0 0 0 0.13934,-0.13923 0.14007171,0.14007171 0 0 0 -0.13934,-0.14089 z m 0.58443,0 a 0.14007171,0.14007171 0 0 0 -0.13934,0.14089 0.14007171,0.14007171 0 0 0 0.13934,0.13923 0.14007171,0.14007171 0 0 0 0.14078,-0.13923 0.14007171,0.14007171 0 0 0 -0.14078,-0.14089 z m -4.0952701,0.58443 a 0.14007171,0.14007171 0 0 0 -0.13934,0.14088 0.14007171,0.14007171 0 0 0 0.13934,0.13924 0.14007171,0.14007171 0 0 0 0.14077,-0.13924 0.14007171,0.14007171 0 0 0 -0.14077,-0.14088 z m 0.58585,0 a 0.14007171,0.14007171 0 0 0 -0.14078,0.14088 0.14007171,0.14007171 0 0 0 0.14078,0.13924 0.14007171,0.14007171 0 0 0 0.13935,-0.13924 0.14007171,0.14007171 0 0 0 -0.13935,-0.14088 z m 0.5844301,0 a 0.14007171,0.14007171 0 0 0 -0.13935,0.14088 0.14007171,0.14007171 0 0 0 0.13935,0.13924 0.14007171,0.14007171 0 0 0 0.14078,-0.13924 0.14007171,0.14007171 0 0 0 -0.14078,-0.14088 z m 0.58443,0 a 0.14007171,0.14007171 0 0 0 -0.13935,0.14088 0.14007171,0.14007171 0 0 0 0.13935,0.13924 0.14007171,0.14007171 0 0 0 0.14077,-0.13924 0.14007171,0.14007171 0 0 0 -0.14077,-0.14088 z m 0.58585,0 a 0.14007171,0.14007171 0 0 0 -0.14077,0.14088 0.14007171,0.14007171 0 0 0 0.14077,0.13924 0.14007171,0.14007171 0 0 0 0.13934,-0.13924 0.14007171,0.14007171 0 0 0 -0.13934,-0.14088 z m 0.58443,0 a 0.14007171,0.14007171 0 0 0 -0.13935,0.14088 0.14007171,0.14007171 0 0 0 0.13935,0.13924 0.14007171,0.14007171 0 0 0 0.14077,-0.13924 0.14007171,0.14007171 0 0 0 -0.14077,-0.14088 z m 0.58585,0 a 0.14007171,0.14007171 0 0 0 -0.14077,0.14088 0.14007171,0.14007171 0 0 0 0.14077,0.13924 0.14007171,0.14007171 0 0 0 0.13934,-0.13924 0.14007171,0.14007171 0 0 0 -0.13934,-0.14088 z m 0.58443,0 a 0.14007171,0.14007171 0 0 0 -0.13934,0.14088 0.14007171,0.14007171 0 0 0 0.13934,0.13924 0.14007171,0.14007171 0 0 0 0.14078,-0.13924 0.14007171,0.14007171 0 0 0 -0.14078,-0.14088 z m -4.0952701,0.58583 a 0.14007171,0.14007171 0 0 0 -0.13934,0.13923 0.14007171,0.14007171 0 0 0 0.13934,0.14089 0.14007171,0.14007171 0 0 0 0.14077,-0.14089 0.14007171,0.14007171 0 0 0 -0.14077,-0.13923 z m 0.58585,0 a 0.14007171,0.14007171 0 0 0 -0.14078,0.13923 0.14007171,0.14007171 0 0 0 0.14078,0.14089 0.14007171,0.14007171 0 0 0 0.13935,-0.14089 0.14007171,0.14007171 0 0 0 -0.13935,-0.13923 z m 0.5844301,0 a 0.14007171,0.14007171 0 0 0 -0.13935,0.13923 0.14007171,0.14007171 0 0 0 0.13935,0.14089 0.14007171,0.14007171 0 0 0 0.14078,-0.14089 0.14007171,0.14007171 0 0 0 -0.14078,-0.13923 z m 0.58443,0 a 0.14007171,0.14007171 0 0 0 -0.13935,0.13923 0.14007171,0.14007171 0 0 0 0.13935,0.14089 0.14007171,0.14007171 0 0 0 0.14077,-0.14089 0.14007171,0.14007171 0 0 0 -0.14077,-0.13923 z m 0.58585,0 a 0.14007171,0.14007171 0 0 0 -0.14077,0.13923 0.14007171,0.14007171 0 0 0 0.14077,0.14089 0.14007171,0.14007171 0 0 0 0.13934,-0.14089 0.14007171,0.14007171 0 0 0 -0.13934,-0.13923 z m 0.58443,0 a 0.14007171,0.14007171 0 0 0 -0.13935,0.13923 0.14007171,0.14007171 0 0 0 0.13935,0.14089 0.14007171,0.14007171 0 0 0 0.14077,-0.14089 0.14007171,0.14007171 0 0 0 -0.14077,-0.13923 z m 0.58585,0 a 0.14007171,0.14007171 0 0 0 -0.14077,0.13923 0.14007171,0.14007171 0 0 0 0.14077,0.14089 0.14007171,0.14007171 0 0 0 0.13934,-0.14089 0.14007171,0.14007171 0 0 0 -0.13934,-0.13923 z m -3.5108401,0.58443 a 0.14007171,0.14007171 0 0 0 -0.13934,0.14089 0.14007171,0.14007171 0 0 0 0.13934,0.1392304 0.14007171,0.14007171 0 0 0 0.14077,-0.1392304 0.14007171,0.14007171 0 0 0 -0.14077,-0.14089 z m 0.58585,0 a 0.14007171,0.14007171 0 0 0 -0.14078,0.14089 0.14007171,0.14007171 0 0 0 0.14078,0.1392304 0.14007171,0.14007171 0 0 0 0.13935,-0.1392304 0.14007171,0.14007171 0 0 0 -0.13935,-0.14089 z m -0.58585,0.5858604 a 0.14007171,0.14007171 0 0 0 -0.13934,0.13924 0.14007171,0.14007171 0 0 0 0.13934,0.14088 0.14007171,0.14007171 0 0 0 0.14077,-0.14088 0.14007171,0.14007171 0 0 0 -0.14077,-0.13924 z m 0.58585,0 a 0.14007171,0.14007171 0 0 0 -0.14078,0.13924 0.14007171,0.14007171 0 0 0 0.14078,0.14088 0.14007171,0.14007171 0 0 0 0.13935,-0.14088 0.14007171,0.14007171 0 0 0 -0.13935,-0.13924 z m -0.58585,0.58443 a 0.14007171,0.14007171 0 0 0 -0.13934,0.14088 0.14007171,0.14007171 0 0 0 0.13934,0.13924 0.14007171,0.14007171 0 0 0 0.14077,-0.13924 0.14007171,0.14007171 0 0 0 -0.14077,-0.14088 z m 0.58585,0 a 0.14007171,0.14007171 0 0 0 -0.14078,0.14088 0.14007171,0.14007171 0 0 0 0.14078,0.13924 0.14007171,0.14007171 0 0 0 0.13935,-0.13924 0.14007171,0.14007171 0 0 0 -0.13935,-0.14088 z m -0.58585,0.58586 a 0.14007171,0.14007171 0 0 0 -0.13934,0.13923 0.14007171,0.14007171 0 0 0 0.13934,0.14089 0.14007171,0.14007171 0 0 0 0.14077,-0.14089 0.14007171,0.14007171 0 0 0 -0.14077,-0.13923 z m 0.58585,0 a 0.14007171,0.14007171 0 0 0 -0.14078,0.13923 0.14007171,0.14007171 0 0 0 0.14078,0.14089 0.14007171,0.14007171 0 0 0 0.13935,-0.14089 0.14007171,0.14007171 0 0 0 -0.13935,-0.13923 z m -0.58585,0.58443 a 0.14007171,0.14007171 0 0 0 -0.13934,0.14088 0.14007171,0.14007171 0 0 0 0.13934,0.13924 0.14007171,0.14007171 0 0 0 0.14077,-0.13924 0.14007171,0.14007171 0 0 0 -0.14077,-0.14088 z m 0.58585,0 a 0.14007171,0.14007171 0 0 0 -0.14078,0.14088 0.14007171,0.14007171 0 0 0 0.14078,0.13924 0.14007171,0.14007171 0 0 0 0.13935,-0.13924 0.14007171,0.14007171 0 0 0 -0.13935,-0.14088 z m -0.58585,0.58442 a 0.14007171,0.14007171 0 0 0 -0.13934,0.14089 0.14007171,0.14007171 0 0 0 0.13934,0.14089 0.14007171,0.14007171 0 0 0 0.14077,-0.14089 0.14007171,0.14007171 0 0 0 -0.14077,-0.14089 z m 0.58585,0 a 0.14007171,0.14007171 0 0 0 -0.14078,0.14089 0.14007171,0.14007171 0 0 0 0.14078,0.14089 0.14007171,0.14007171 0 0 0 0.13935,-0.14089 0.14007171,0.14007171 0 0 0 -0.13935,-0.14089 z"/>
        </svg>