<?xml version="1.0" encoding="UTF-8" standalone="no"?>
<!-- Created with Inkscape (http://www.inkscape.org/) -->

<svg
     width="75.101669mm"
     height="30mm"
     viewBox="0 0 75.101669 30"
     version="1.1"
     id="svg5"
     xml:space="preserve"
     inkscape:version="1.2.2 (732a01da63, 2022-12-09)"
     sodipodi:docname="noComponents.svg"
     xmlns:inkscape="http://www.inkscape.org/namespaces/inkscape"
     xmlns:sodipodi="http://sodipodi.sourceforge.net/DTD/sodipodi-0.dtd"
     xmlns="http://www.w3.org/2000/svg"
     xmlns:svg="http://www.w3.org/2000/svg"><sodipodi:namedview
         id="namedview7"
         pagecolor="#ffffff"
         bordercolor="#999999"
         borderopacity="1"
         inkscape:showpageshadow="0"
         inkscape:pageopacity="0"
         inkscape:pagecheckerboard="0"
         inkscape:deskcolor="#d1d1d1"
         inkscape:document-units="mm"
         showgrid="false"
         inkscape:zoom="1.829812"
         inkscape:cx="-8.1975634"
         inkscape:cy="127.06223"
         inkscape:window-width="2560"
         inkscape:window-height="1351"
         inkscape:window-x="1491"
         inkscape:window-y="586"
         inkscape:window-maximized="1"
         inkscape:current-layer="layer1" /><defs
         id="defs2" /><g
         inkscape:label="Layer 1"
         inkscape:groupmode="layer"
         id="layer1"
         transform="translate(-108.65689,-152.96755)"><g
             id="g7078"
             transform="matrix(0.55599537,0,0,0.55599537,66.753195,67.575933)"><path
                 id="path2133"
                 style="color:black;solid-color:black;fill:#4a515a;fill-opacity:1;stroke-width:1.58122;stroke-linecap:square;stroke-linejoin:round;stroke-miterlimit:5;-inkscape-stroke:none;paint-order:markers stroke fill"
                 d="m 130.00665,157.76555 a 3.3308946,3.3308946 0 0 0 -3.32896,3.32977 v 38.93084 a 3.3308946,3.3308946 0 0 0 3.32896,3.33222 h 26.64302 a 3.3308946,3.3308946 0 0 0 3.32974,-3.33222 v -38.93084 a 3.3308946,3.3308946 0 0 0 -3.32974,-3.32977 z m 13.40075,14.70815 c 1.50296,0 1.77735,0.55899 1.91616,3.9034 l 0.0916,2.20539 2.29039,0.0595 c 1.86182,0.048 2.37447,0.11313 2.73409,0.34888 0.90019,0.58982 0.94538,1.99466 0.0916,2.84849 -0.58859,0.58857 -1.60695,0.81957 -3.60922,0.81957 h -1.50433 l -0.085,2.0616 c -0.0539,1.31945 -0.17412,2.27612 -0.33421,2.65809 -0.43405,1.03568 -2.12768,1.61139 -2.98165,1.01404 h -8.3e-4 c -0.48288,-0.33869 -0.64209,-1.07856 -0.77298,-3.59122 l -0.11195,-2.14251 h -1.59012 c -2.96109,0 -4.03166,-0.47554 -4.03166,-1.79193 0,-0.39495 0.13468,-0.89446 0.32521,-1.2028 0.52728,-0.85317 1.14769,-1.04674 3.35265,-1.04674 h 1.93166 l 0.0989,-2.06159 c 0.0546,-1.13371 0.1772,-2.32954 0.2721,-2.65728 0.25608,-0.88453 0.9834,-1.42506 1.91776,-1.42506 z" /><path
                 style="fill:#31373d;fill-opacity:1;stroke-width:0.108424;stroke-linecap:square;stroke-linejoin:round;stroke-miterlimit:5;paint-order:markers stroke fill"
                 d="m 157.99713,177.46172 2.54866,-5.84884 c 0,0 10.91836,1.13581 12.12089,14.55581 0,0 6.77206,-13.56591 -10.10274,-19.65393 l 1.88006,-4.90273 -11.03647,4.53491 z"
                 id="path236-0"
                 sodipodi:nodetypes="ccccccc" /></g></g></svg>
