<svg xmlns="http://www.w3.org/2000/svg" viewBox="0 0 2625 3300"><path class="cls-7" d="m 232.86,771.16 c 0,6.39 5.18,11.58 11.58,11.58 h 140.5 c 6.4,0 11.58,-5.19 11.58,-11.58 v 0.36 l 0.17993,-297.18991 58.32007,-9e-5 157.65,-8.01 v -237.6 l -157.04,-8.39 h -58.94 l -0.0901,1.1e-4 6e-5,-57.21011 0.21,-96.11 C 396.6,45.5 380.6,38.11 369.12,37.34 362,36.86 354.38,37.2 348.66,37.2 v 0 c -6.84,0 -3.46,-8.07 1.37,-5.69 5.99,2.95 14.2,-22.22 -27.18,-22.25 -39.39,-0.03 -33.67,28.29 -41.53,28.04 v 0 l -0.42,0.01 h -19.28 c -15.91,0 -28.8,12.89 -28.8,28.8 v 97.01 l 1e-5,57.21011 L 232.7,220.33 h -58.38 l -156.98,8.12 v 237.6 l 157.02,8.28 h 58.34 l 0.18,297.19 v -0.36 z" id="clipping" style="fill-opacity:0;stroke:red;stroke-width:5px" xmlns:sodipodi="http://sodipodi.sourceforge.net/DTD/sodipodi-0.dtd" sodipodi:nodetypes="cssccccccccccccssccsccssccccccccccc" fill-opacity="0" stroke="red" stroke-width="5"/></svg>