<svg xmlns="http://www.w3.org/2000/svg" viewBox="0 0 3000 3750"><path class="cls-33" d="m 708.12499,1145.2916 -653.625002,33.7917 c -0.25,0 -0.458333,0.2083 -0.458333,0.4583 v 989.0834 c 0,0.25 0.208333,0.4583 0.458333,0.4583 l 612.208342,32.25 c 22.875,1.2083 41.625,2.2083 41.625,2.2083 H 749.99999 1115.3333 1157 v 41.6667 l 0.7083,1361.4167 v 40.9166 c 0,-0.4166 4.875,10.0834 10.7917,23.375 5.9167,13.2917 56.2083,24.125 79.125,24.125 h 502 c 22.9167,0 52.5417,-4.875 65.7917,-10.7916 13.25,-5.9167 24.125,-37.125 24.125,-36.7084 V 3606.625 L 1840.292,2204 c 0,-0.25 0.208,-0.458 0.458,-0.458 l 409.1667,-4e-4 c 22.9166,0 60.4166,-0.9583 83.2916,-2.125 l 612.25,-31.2083 c 0.25,0 0.4584,-0.2083 0.4584,-0.4583 v -989.0834 c 0,-0.25 -0.2084,-0.4583 -0.4584,-0.4583 l -653.875,-34.9167 v 0 h -409.625 l -42.1253,4e-4 c -0.25,0 -0.458,-18.7504 -0.458,-41.667 V 737.66663 c 0,-22.91667 0,-60.41667 0.083,-83.33334 l 0.7084,-317.125 c 0.042,-22.91667 -0.2917,-49.45833 -0.75,-59 l -1.3334,-7.79167 c -11.8333,-70.375 -70.1666,-95.58333 -113.2083,-98.5 -29.6667,-2 -43.625,-1.66667 -43.625,-1.66667 -22.9167,0.58334 -44.4167,0.83334 -47.75,0.58334 l -2.25,-0.79167 c -16.75,-6.04167 -3.7083,-31.16667 14.0417,-22.45833 24.9583,12.29166 59.1666,-92.583336 -113.25,-92.708336 C 1388.4167,54.79162 1388.75,145.08329 1369.125,166.95829 l -2.7917,3.125 c -4,0.875 -7.2916,1.58333 -7.2916,1.625 v 0 c 0,0 -18.75,0.0417 -41.6667,0.0417 h -40 c -66.5417,0 -120.4583,53.91667 -120.4583,120.45834 v 362.08334 83.33333 365.9583 l 3e-4,41.6667 H 1115.25 708.08333" id="clipping" style="fill-opacity:0;stroke:red;stroke-width:5px" xmlns:sodipodi="http://sodipodi.sourceforge.net/DTD/sodipodi-0.dtd" sodipodi:nodetypes="ccsscccccccccsssscccssccssccccsssccccccccccccscssscccccc" fill-opacity="0" stroke="red" stroke-width="5"/></svg>