<svg xmlns="http://www.w3.org/2000/svg" viewBox="0 0 3000 3750"><path class="cls-33" d="m 2291.875,1145.2916 653.625,33.7917 c 0.25,0 0.4583,0.2083 0.4583,0.4583 v 989.0834 c 0,0.25 -0.2083,0.4583 -0.4583,0.4583 l -612.2083,32.25 c -22.875,1.2083 -41.625,2.2083 -41.625,2.2083 H 2250 1884.6667 1843 v 41.6667 l -0.7083,1361.4167 v 40.9166 c 0,-0.4166 -4.875,10.0834 -10.7917,23.375 -5.9167,13.2917 -56.2083,24.125 -79.125,24.125 h -502 c -22.9167,0 -52.5417,-4.875 -65.7917,-10.7916 -13.25,-5.9167 -24.125,-37.125 -24.125,-36.7084 V 3606.625 L 1159.708,2204 v -0.458 h -0.458 l -409.16667,-2e-4 c -22.91667,0 -60.41667,-0.9583 -83.29167,-2.125 L 54.541655,2170.2083 c -0.25,0 -0.458333,-0.2083 -0.458333,-0.4583 v -989.0834 c 0,-0.25 0.208333,-0.4583 0.458333,-0.4583 l 653.875005,-34.9167 v 0 l 451.75034,4e-4 c 0.25,0 0.458,-18.7504 0.458,-41.667 V 737.66663 c 0,-22.91667 0,-60.41667 -0.083,-83.33334 l -0.7084,-317.125 c -0.042,-22.91667 0.2917,-49.45833 0.75,-59 l 1.3334,-7.79167 c 11.8333,-70.375 70.1666,-95.58333 113.2083,-98.5 29.6667,-2 43.625,-1.66667 43.625,-1.66667 22.9167,0.58334 44.4167,0.83334 47.75,0.58334 l 2.25,-0.79167 c 16.75,-6.04167 3.7083,-31.16667 -14.0417,-22.45833 -24.9583,12.29166 -59.1666,-92.583336 113.25,-92.708336 143.625,-0.08333 143.2917,90.208336 162.9167,112.083336 l 2.7917,3.125 c 4,0.875 7.2916,1.58333 7.2916,1.625 v 0 c 0,0 18.75,0.0417 41.6667,0.0417 h 40 c 66.5417,0 120.4583,53.91667 120.4583,120.45834 v 811.37497 l 4e-4,41.6667 h 41.6663 407.1667" id="clipping" style="fill-opacity:0;stroke:red;stroke-width:5px" xmlns:sodipodi="http://sodipodi.sourceforge.net/DTD/sodipodi-0.dtd" sodipodi:nodetypes="ccsscccccccccsssscccccsccsscccsssccccccccccccscssscccc" fill-opacity="0" stroke="red" stroke-width="5"/></svg>