<svg xmlns="http://www.w3.org/2000/svg" viewBox="0 0 2925 2250"><path stroke="red" stroke-miterlimit="10" d="M 1234.5042,445.83333 H 1495.5 c 124.2667,0 225,100.73333 225,225 h 266.6667 c 0,91.66667 150,91.66667 150,0 h 266.6666 455.9959 V 1729.1708 h -455.9959 v 456.8334 H 1720.5 v -456.8334 225 h -485.9958 v -225 486 H 551.16666 v -486 225 H 65.170822 v -225 -1058.33747 c 0,-124.26667 100.737498,-225 224.999998,-225 H 551.17499 V 790.8375 184.82916 h 120 -120 c 0,-82.8375 67.15417,-150.000002 150,-150.000002 h 383.33331 c 82.8417,0 150,67.162502 150,150.000002 H 1114.5 1234.5042 v 606.00417" id="clipping" style=";fill-opacity:0;stroke:red;stroke-width:5px" fill-opacity="0" stroke-width="5"/></svg>