<svg xmlns="http://www.w3.org/2000/svg" viewBox="0 0 2625 3300"><path class="cls-7" d="m 1654.8804,3213.7622 c 0,26.6351 -21.5916,48.2684 -48.2684,48.2684 h -585.6397 c -26.67681,0 -48.26837,-21.6333 -48.26837,-48.2684 v 1.5005 c 0,0 -0.75028,-1238.7634 -0.75028,-1238.7634 H 728.86107 L 71.735832,1943.1116 V 952.73447 c 0,0 654.582608,-34.97165 654.582608,-34.97165 H 972.32879 V 679.29701 l -0.87533,-400.61089 c 0.87533,-89.65915 67.56744,-120.46254 115.41894,-123.6721 29.678,-2.00076 61.4401,-0.58356 85.2825,-0.58356 v 0 c 28.5108,0 14.4221,-33.6378 -5.7105,-23.71736 -24.9679,12.29635 -59.1892,-92.618604 113.2931,-92.743652 164.1875,-0.125048 140.3451,117.919902 173.1076,116.877842 v 0 c 0,0 1.7507,0.0417 1.7507,0.0417 h 80.3639 c 66.3169,0 120.0457,53.7288 120.0457,120.04572 v 404.36232 c 0,0 0,238.46581 0,238.46581 h 243.8429 l 654.3325,33.84622 v 990.37714 l -654.4992,34.5131 h -243.176 c 0,0 -0.7503,1238.7634 -0.7503,1238.7634 v -1.5005 z" id="clipping" style="fill-opacity:0;stroke:red;stroke-width:5px" fill-opacity="0" stroke="red" stroke-width="5"/></svg>