<svg xmlns="http://www.w3.org/2000/svg" viewBox="0 0 375 900"><path id="clipping" style="fill-opacity:0;stroke:red;stroke-width:5px" d="M 187.5 38.396484 A 75 75 0 0 0 112.5 113.39648 A 75 75 0 0 0 187.5 188.39648 A 75 75 0 0 0 262.5 113.39648 A 75 75 0 0 0 187.5 38.396484 z M 187.5 263.39648 C 125.37083 263.39648 75 313.76315 75 375.89648 C 75 438.02982 125.37083 488.39648 187.5 488.39648 C 249.62917 488.39248 300 438.02982 300 375.89648 C 300 313.76315 249.63333 263.39648 187.5 263.39648 z M 187.5 300.89648 C 228.92083 300.89648 262.5 334.47565 262.5 375.89648 C 262.5 417.31732 228.92083 450.89648 187.5 450.89648 C 146.07917 450.89648 112.5 417.31732 112.5 375.89648 C 112.5 334.47565 146.07917 300.89648 187.5 300.89648 z M 187.5 563.39258 C 104.65833 563.39258 37.5 630.54674 37.5 713.39258 C 37.5 796.23841 104.65833 863.39258 187.5 863.39258 C 270.34167 863.39258 337.5 796.23841 337.5 713.39258 C 337.5 630.54674 270.34583 563.39258 187.5 563.39258 z M 187.5 600.89258 C 249.63333 600.89258 300 651.25924 300 713.39258 C 300 775.52591 249.63333 825.89258 187.5 825.89258 C 125.36667 825.89258 75 775.52591 75 713.39258 C 75 651.25924 125.36667 600.89258 187.5 600.89258 z " fill-opacity="0" stroke="red" stroke-width="5"/></svg>