<svg xmlns="http://www.w3.org/2000/svg" viewBox="0 0 300 300"><path stroke="red" stroke-width="5" stroke-miterlimit="10" d="m 150,203.64375 c -3.73334,0 -6.07917,3.475 -6.07917,3.475 l -25.52083,37.5 c -1.3875,2.43334 -4.5125,4.50834 -4.5125,4.50834 H 67.870833 c -6.595834,0 -7.291667,-3.81667 -7.291667,-3.81667 -7.8,-19.44167 21.691666,-60.95417 30.391666,-75.3 1.7875,-2.95417 2.5375,-5.75417 0.129167,-6.99167 -2.408333,-1.2375 -19.491666,-5.925 -25.820833,-8.68333 -6.329167,-2.75833 -19.1,-19.44167 -2.433333,-34.71667 16.666666,-15.28333 53.474997,-27.433329 53.474997,-27.433329 0,0 -0.008,-7.583333 3.125,-19.791666 C 126.7375,50.860422 150,50.860422 150,50.860422 c 0,0 23.2625,0 30.55416,21.533333 3.13334,12.208333 3.125,19.791666 3.125,19.791666 0,0 36.80834,12.149999 53.475,27.433329 16.66667,15.275 3.9,31.95834 -2.43333,34.71667 -6.33333,2.75833 -23.4125,7.44583 -25.82083,8.68333 -2.40834,1.2375 -1.65417,4.0375 0.12916,6.99167 8.7,14.34583 38.19167,55.85833 30.39167,75.3 0,0 -0.69583,3.81667 -7.29167,3.81667 H 186.1125 c 0,0 -3.125,-2.075 -4.5125,-4.50834 l -25.52084,-37.5 c 0,0 -2.34583,-3.475 -6.07916,-3.475 z" id="clipping" style="fill-opacity:0;stroke:red;stroke-width:5px" fill-opacity="0"/></svg>