<svg xmlns="http://www.w3.org/2000/svg" viewBox="0 0 3675 4950"><path id="clipping" style="stroke-miterlimit:10;;fill-opacity:0;stroke:red;stroke-width:5px" class="st1" transform="matrix(4.1666667,0,0,4.1666667,-1.47e-5,-1.98e-5)" d="m 298.6,64.1 -5,5.1 -0.7,222.4 -80.2,-82.8 H 68.5 v 82.8 l -5.1,5 H 9 v 594.8 h 54.4 l 5.1,5 v 82.8 h 144.2 l 80.2,-82.8 0.7,222.4 5,5.1 v 55.1 h 284.8 v -55.1 l 5,-5.1 0.7,-222.4 80.2,82.8 h 144.2 v -82.8 l 5.1,-5 H 873 V 296.6 h -54.4 l -5.1,-5 V 208.8 H 669.3 l -80.2,82.8 -0.7,-222.4 -5,-5.1 V 9 H 298.6 v 55.1" fill-opacity="0" stroke="red" stroke-width="5"/></svg>