<svg xmlns="http://www.w3.org/2000/svg" viewBox="0 0 3675 4950"><polyline class="st1" points="298.6,64.1 293.6,69.2 292.9,291.6 212.7,208.8 68.5,208.8 68.5,291.6 63.4,296.6 9,296.6 9,891.4    63.4,891.4 68.5,896.4 68.5,979.2 212.7,979.2 292.9,896.4 293.6,1118.8 298.6,1123.9 298.6,1179 583.4,1179 583.4,1123.9    588.4,1118.8 589.1,896.4 669.3,979.2 813.5,979.2 813.5,896.4 818.6,891.4 873,891.4 873,296.6 818.6,296.6 813.5,291.6    813.5,208.8 669.3,208.8 589.1,291.6 588.4,69.2 583.4,64.1 583.4,9 298.6,9 298.6,64.1  " id="clipping" transform="scale(4.1666667)" style="stroke-miterlimit:10;;fill-opacity:0;stroke:red;stroke-width:5px" fill-opacity="0" stroke="red" stroke-width="5"/></svg>