<svg xmlns="http://www.w3.org/2000/svg" viewBox="0 0 1275 1125"><path id="clipping" d="m 337.55078,42.824217 -75,129.908203 75,129.91016 h -0.0292 l -75.00001,129.91209 75.00001,129.90821 h -0.0292 l -74.99609,129.90433 74.99609,129.91209 h -0.0217 l -74.99609,129.90429 74.99609,129.91211 H 487.4825 l 74.96679,-129.86328 0.0167,0.0292 h 150.00784 l 75,-129.90821 -75,-129.90821 h 0.0292 l 75,-129.90817 -75,-129.9082 h 0.0292 l 75,-129.91213 -75,-129.9082 H 562.52041 l -74.97071,129.86524 -0.0167,-0.0312 h 0.025 l 75,-129.91016 -75,-129.908208 z m 450.05664,0.07225 -75,129.912113 75,129.9082 h -0.025 L 712.5863,432.6289 787.58242,562.53711 h -0.0292 l -74.99221,129.90817 74.99221,129.90821 h -0.0208 l -75,129.90821 75,129.9141 h 150.0078 L 1012.5402,952.2617 937.54022,822.35349 h 0.025 l 74.95898,-129.84375 0.033,0.0567 h 150.0078 l 75,-129.90821 -75,-129.91213 h -150.0078 l -74.96091,129.84571 -0.0292,-0.0546 h 0.025 L 1012.5885,432.62899 937.59242,302.71686 h 0.0292 L 1012.6172,172.80859 937.62109,42.896484 Z M 112.4336,432.55467 37.433594,562.46288 112.4336,692.36721 h 150.01171 l 74.9961,-129.90433 -74.9961,-129.90821 z m 450.07032,0.0429 0.0167,0.0292 h -0.025 l -74.97459,129.86521 -0.0167,-0.0292 h 0.0292 z m -0.0292,259.8125 0.0208,0.0333 h -0.0292 l -74.97071,129.85746 -0.0125,-0.025 h 0.0208 z" style="fill-opacity:0;stroke:red;stroke-width:5px" fill-opacity="0" stroke="red" stroke-width="5"/></svg>