<svg xmlns="http://www.w3.org/2000/svg" viewBox="0 0 828 1224"><path class="cls-19" d="m 512.73,39.63 c 15.93,0 28.85,12.92 28.85,28.85 v 248.45 c 0,5.5 0,10 0.02,10 h 81.46 c 5.5,0 14.5,0.22 19.99,0.5 l 169.87,8.49 c 0.08,0 0.14,0.07 0.14,0.15 v 379.87 c 0,0 -0.02,0.05 -0.05,0.05 -3.24,0.16 -169.97,8.5 -169.97,8.5 -5.49,0.27 -14.49,0.5 -19.99,0.5 h -81.39 c 0,0 -0.05,0.02 -0.05,0.05 v 469.34 c 0,9.97 -8.08,18.05 -18.05,18.05 H 304.42 c -9.97,0 -18.05,-8.08 -18.05,-18.05 V 725.04 c 0,0 -0.02,-0.05 -0.05,-0.05 -2.35,0 -82.48,0 -82.48,0 -5.5,0 -14.5,-0.23 -19.99,-0.5 L 14.97,716 c 0,0 -0.05,-0.02 -0.05,-0.05 V 336.37 c 0,0 0.03,-0.07 0.06,-0.07 l 169.58,-8.16 c 5.49,-0.26 14.49,-0.52 19.99,-0.56 l 71.8,-0.57 c 5.5,-0.04 10.05,-0.08 10.1,-0.08 0.05,0 0.1,-4.5 0.1,-10 v -70.71 c 0,-5.5 0,-14.5 -0.01,-20 L 286.36,79.34 c 0,-5.5 0.11,-12.19 0.25,-14.85 l 0.43,-2.15 c 3.21,-16.15 16.86,-21.99 27,-22.67 7.12,-0.48 56.91,-0.2 56.91,-0.2 5.5,0.03 10.67,0 11.5,-0.06 l 0.54,-0.2 c 3.97,-1.47 0.84,-7.47 -3.41,-5.37 -5.99,2.95 -14.2,-22.22 27.18,-22.25 34.47,-0.02 34.39,21.65 39.1,26.9 l 0.67,0.75 c 0.96,0.21 1.75,0.38 1.75,0.39 0,0.01 4.5,0 10,0 h 54.41 z" id="clipping" style="fill-opacity:0;stroke:red;stroke-width:5px" fill-opacity="0" stroke="red" stroke-width="5"/></svg>