<svg xmlns="http://www.w3.org/2000/svg" viewBox="0 0 3450 5100"><path class="cls-19" d="m 1313.6246,165.12495 c -66.375,0 -120.2084,53.83334 -120.2084,120.20834 V 1320.5416 c 0,22.9167 0,41.6667 -0.083,41.6667 H 853.91625 c -22.91667,0 -60.41667,0.9167 -83.29167,2.0833 l -707.791674,35.375 c -0.333333,0 -0.583333,0.2917 -0.583333,0.625 v 1582.7917 c 0,0 0.08333,0.2083 0.208333,0.2083 13.500001,0.6667 708.208344,35.4167 708.208344,35.4167 22.875,1.125 60.375,2.0833 83.29166,2.0833 h 339.12499 c 0,0 0.2083,0.083 0.2083,0.2084 v 1955.5833 c 0,41.5417 33.6667,75.2084 75.2084,75.2084 h 913.0833 c 41.5417,0 75.2084,-33.6667 75.2084,-75.2084 V 3021 c 0,0 0.083,-0.2084 0.2083,-0.2084 9.7917,0 343.6667,0 343.6667,0 22.9166,0 60.4166,-0.9583 83.2916,-2.0833 l 703.6667,-35.375 c 0,0 0.2083,-0.083 0.2083,-0.2083 V 1401.5416 c 0,0 -0.125,-0.2916 -0.25,-0.2916 l -706.5833,-34 c -22.875,-1.0834 -60.375,-2.1667 -83.2917,-2.3334 l -299.1666,-2.375 c -22.9167,-0.1666 -41.875,-0.3333 -42.0834,-0.3333 -0.2083,0 -0.4166,-18.75 -0.4166,-41.6667 v -294.625 c 0,-22.9166 0,-60.41664 0.042,-83.33331 l 0.75,-612 c 0,-22.91667 -0.4583,-50.79167 -1.0416,-61.875 L 2254,259.74995 c -13.375,-67.29166 -70.25,-91.625 -112.5,-94.45833 -29.6667,-2 -237.125,-0.83333 -237.125,-0.83333 -22.9167,0.125 -44.4583,0 -47.9167,-0.25 l -2.25,-0.83334 c -16.5416,-6.125 -3.5,-31.125 14.2084,-22.375 24.9583,12.29167 59.1666,-92.58333 -113.25,-92.70833 -143.625,-0.08333 -143.2917,90.20833 -162.9167,112.08333 l -2.7917,3.125 c -4,0.875 -7.2916,1.58334 -7.2916,1.625 0,0.0417 -18.75,0 -41.6667,0 h -226.7084 z" id="clipping" style="stroke-miterlimit:10;fill-opacity:0;stroke:red;stroke-width:5px" fill-opacity="0" stroke="red" stroke-width="5"/></svg>