<svg xmlns="http://www.w3.org/2000/svg" viewBox="0 0 3075 4725"><path class="cls-18" d="m 1392.75,191.58332 h -267 c -66.2917,0 -120,53.70833 -120,120 v 666.625 c 0,22.91668 0,60.41668 0,83.33338 v 113.4166 c 0,0.5834 -0.4583,1.0417 -1.0417,1.0417 H 882.12499 c -22.91666,0 -60.41666,0.9167 -83.29166,2 l -736.583342,35.4583 c -0.25,0 -0.458333,0.2084 -0.458333,0.5 v 1582.3334 c 0,0.6666 0.5,1.2083 1.166667,1.25 33.666666,1.625 730.791668,35.4166 730.791668,35.4166 22.875,1.125 60.375,2 83.29167,2 h 126.62504 c 1.125,0 2.0833,0.9167 2.0833,2.0834 v 121.5416 c 0,22.9167 0,60.4167 0,83.3334 V 4575.25 c 0,41.4167 33.5833,75 75,75 h 918.5833 c 38.625,0 69.9584,-31.3333 69.9584,-69.9583 v -1538.375 c 0,-22.9167 0,-60.4167 0,-83.3334 v -120.375 c 0,-1.7916 1.4166,-3.25 3.2083,-3.25 22.9583,0 119.5,0 119.5,0 22.9167,0 60.4167,-0.9166 83.2917,-2 l 734.375,-35.3333 c 2.0416,-0.083 3.625,-1.75 3.625,-3.7917 V 1215.2917 c 0,-1 -0.7917,-1.8334 -1.7917,-1.875 L 2276.25,1178 c -22.875,-1.0833 -60.375,-2 -83.2917,-2 H 2111 c -22.9167,0 -41.7083,0 -41.7917,0 -0.083,0 -0.083,-18.75 -0.083,-41.6667 l 0.7917,-777.33332 c 0,-22.91666 -2.7917,-60.20833 -6.25,-82.875 0,0 -2.0834,-13.5 -14.5,-31.70833 -23.7084,-34.66667 -63.1667,-48.625 -94.5834,-50.75 -26.0416,-1.75 -203.625,-0.875 -262.5416,-0.66667 h -8.125 c -4.8334,0.0417 -11.3334,-0.125 -14.4584,-0.33333 l -2.125,-0.70833 c -2.125,-0.70834 -3.8333,-1.70834 -5.0833,-2.875 -3.0417,-2.875 -3.75,-6.875 -2.7083,-10.66667 2.0416,-7.54167 10.875,-14.20833 21.375,-9.04167 24.9583,12.29167 59.1666,-92.583332 -113.25,-92.708332 -90.9167,-0.04167 -124.1667,36.125002 -141.2917,68.208332 -8.9167,16.66667 -13.4583,32.25 -19.4583,41.08334 -1.4167,2.08333 -2.9167,3.79166 -4.5834,5.04166 l -2.2083,1.66667 c -3,0.41667 -5.4583,0.79167 -5.4583,0.79167 v 0" id="clipping" style="stroke-miterlimit:10;fill-opacity:0;stroke:red;stroke-width:5px" fill-opacity="0" stroke="red" stroke-width="5"/></svg>