<svg xmlns="http://www.w3.org/2000/svg" viewBox="0 0 3450 2700"><path stroke="red" stroke-miterlimit="10" d="m 74.162487,2256.575 v 225 H 479.16249 v -225 405 H 1537.4958 v -405 225 h 405 v -225 375.8333 H 3000.8292 V 2256.575 h 375 V 598.24166 h -375 -454.1667 c 0,91.66667 -150,91.66667 -150,0 h -454.1667 c 0,-124.2625 -100.7375,-225 -225,-225 h -180 v 345 -525 h -120 120 c 0,-82.84167 -67.1583,-150.000004 -150,-150.000004 H 629.16249 c -82.84167,0 -150,67.158334 -150,150.000004 h 120 -120 v 525 -345 h -180 c -124.2625,0 -225.000003,100.7375 -225.000003,225" id="clipping" style=";fill-opacity:0;stroke:red;stroke-width:5px" fill-opacity="0" stroke-width="5"/></svg>