<svg xmlns="http://www.w3.org/2000/svg" viewBox="0 0 7650 5925"><path id="clipping" style="stroke-linecap:round;stroke-linejoin:round;stroke-opacity:1;paint-order:markers fill stroke;fill-opacity:0;stroke:red;stroke-width:5px" d="m 4619.3943,36.6269 -36.627,73.254 h -512.7754 c 0,0 8.9533,0 0,511.1464 -0.4069,30.5224 12.2101,83.8351 -36.2187,135.5196 -88.3114,94.8228 -138.3679,-410.627 -183.541,-697.5371 l -365.8614,-0.4063 v 1308.7988 c 0.4069,-0.407 -76.5097,-27.6738 -76.5097,-27.6738 H 736.13646 v 100.9254 l -349.99023,-2.441 c -53.71935,-57.3816 -180.28388,-50.056 -263.30469,31.744 v 2853.637 c 33.37111,32.557 65.52031,47.614 106.2168,60.637 62.2656,20.349 100.92708,9.361 159.12304,-32.557 h 347.95508 v 100.928 H 3411.1169 l 73.2539,-28.895 0.4063,1310.426 h 365.8613 c 0,-15.871 88.719,-813.115 183.1348,-696.723 0,0 37.0339,23.198 36.6269,75.696 v 0.406 0.408 563.238 h 512.7754 l 36.627,73.254 h 476.1484 l 54.9395,-73.254 h 512.7754 l 45.9882,73.254 h 476.1485 l 45.5801,-73.254 h 512.7753 v -551.843 -0.409 -1.627 -9.359 -1.223 c -0.8139,-46.801 36.2188,-75.693 36.2188,-75.693 87.9044,-94.416 137.9617,409.812 183.1348,696.723 h 366.6757 v -1301.881 l 73.254,-73.252 v -1318.567 c -80.986,0 -146.5079,-65.521 -146.5079,-146.507 0,-80.986 65.5219,-146.508 146.5079,-146.508 v -1318.565 l -73.254,-73.2535 V 1354.7851 58.1953 l -366.6757,0.8145 c -5.2906,27.2666 -78.5434,790.7327 -179.4707,701.6074 0,0 -41.105,-41.5105 -40.2911,-86.6836 1.6279,-99.2994 0,-564.0527 0,-564.0527 h -512.7753 l -45.5801,-73.254 h -476.1485 l -45.9863,73.254 h -512.7754 l -54.9414,-73.254 z m -12.6153,1316.5313 h 498.9395 c 48.8357,0 52.0903,83.4277 2.8477,85.0547 l -504.6368,-0.406 c -49.2427,-1.22 -45.9862,-84.6487 2.8496,-84.6487 z m 1102.0606,0 h 498.9375 c 48.8358,0 52.0923,83.4277 2.8496,85.0547 l -504.6367,-0.406 c -49.2428,-1.22 -45.9861,-84.6487 2.8496,-84.6487 z M 4606.779,4363.4769 h 498.9395 c 48.8357,0 52.0903,83.426 2.8477,85.054 l -504.6368,-0.406 c -49.2427,-1.221 -45.9862,-84.648 2.8496,-84.648 z m 1102.0606,0 h 498.9375 c 48.8358,0 52.0923,83.426 2.8496,85.054 l -504.6367,-0.406 c -49.2428,-1.221 -45.9861,-84.648 2.8496,-84.648 z" fill-opacity="0" stroke="red" stroke-width="5"/></svg>