<svg xmlns="http://www.w3.org/2000/svg" viewBox="0 0 3450 3450"><polyline class="st6" points="1337.2,310.7 1111,310.7 1195.9,225.9 1195.9,89.8 1116,89.8 1110.9,84.8 1105.9,12.8 315.7,12.8   310.6,84.8 305.6,89.8 225.9,89.8 225.9,225.9 310.6,310.6 310.6,310.9 310.6,311 84.8,311 12.8,316 12.8,1106.2 84.8,1111.3   310.7,1111.3 225.9,1196.1 225.9,1332.2 305.8,1332.2 310.9,1337.2 315.9,1409.2 1106.1,1409.2 1111.1,1337.2 1116.2,1332.2   1195.9,1332.2 1195.9,1196.1 1111.1,1111.4 1111.1,1111 1337.2,1111 1409.2,1106 1409.2,315.8 1337.2,310.7 " id="clipping" transform="matrix(2.4261603,0,0,2.4261603,2.67e-5,2.67e-5)" style="fill-opacity:0;stroke:red;stroke-width:5px" fill-opacity="0" stroke="red" stroke-width="5"/></svg>