<svg xmlns="http://www.w3.org/2000/svg" viewBox="0 0 3975 4725"><polygon stroke="red" stroke-miterlimit="10" points="58.5,104.453 132.5,104.453 139.5,129.461 139.5,139.469 139.5,8.969 814.5,8.969 814.5,139.469 814.5,129.461 822,104.203 895.5,104.328 895.5,139.469 945,139.469 945,994.469 895.5,994.469 895.5,1030.828 821.875,1030.703 814.5,1004.539 814.5,994.531 814.5,1075.531 814.5,1125.031 139.5,1125.031 139.5,994.531 139.5,1004.539 132.375,1030.703 58.5,1030.828 58.5,994.469 9,994.469 9,139.469 58.5,139.469 " id="clipping" transform="matrix(4.1867677,0,0,4.1667009,-19.046999,-0.18260282)" style="fill-opacity:0;stroke:red;stroke-width:5px" fill-opacity="0" stroke-width="5"/></svg>