<svg xmlns="http://www.w3.org/2000/svg" viewBox="0 0 5925 5925"><polygon stroke="red" stroke-width="5" stroke-linecap="round" stroke-linejoin="round" stroke-miterlimit="10" points="324,20.88 318.96,92.881 313.921,97.92 233.999,97.92 233.999,234.001 318.96,318.96 121.499,318.96 92.879,318.96 20.879,324 20.879,1098 92.879,1103.04 121.499,1103.04 318.959,1103.04 233.999,1187.999 233.999,1324.08 313.919,1324.08 318.959,1329.12 323.999,1401.12 1098,1401.12 1103.039,1329.119 1108.078,1324.08 1188,1324.08 1188,1187.999 1103.039,1103.04 1222.5,1103.04 1329.12,1103.04 1401.121,1098 1401.121,324 1329.12,318.96 1222.5,318.96 1103.041,318.96 1188,234.001 1188,97.92 1108.08,97.92 1103.041,92.88 1098,20.88 " id="clipping" style="fill-opacity:0;stroke:red;stroke-width:5px" transform="scale(4.1666667)" fill-opacity="0"/></svg>