<svg xmlns="http://www.w3.org/2000/svg" viewBox="0 0 375 975"><path id="clipping" style=";fill-opacity:0;stroke:red;stroke-width:5px" d="M 186.3457 40.078125 C 103.97901 40.078125 37.207031 106.85206 37.207031 189.21875 C 37.207031 191.31085 37.280425 193.38955 37.363281 195.46094 L 37.363281 703.74609 C 37.363281 707.86401 40.702392 711.20703 44.820312 711.20703 L 176.80859 711.20703 L 176.80859 636.63867 L 196.20117 636.63867 L 196.20117 711.20703 L 328.1875 711.20703 C 332.30542 711.20703 335.64453 707.86401 335.64453 703.74609 L 335.64453 189.22266 L 335.48633 189.21875 C 335.48633 189.16485 335.48242 189.11049 335.48242 189.05664 L 335.64453 189.21875 C 335.64453 109.39987 272.93493 44.229553 194.09375 40.277344 C 192.87992 40.215204 191.64985 40.210641 190.42773 40.181641 C 189.16833 40.148501 187.92566 40.086181 186.66211 40.082031 L 186.66602 40.085938 C 186.55831 40.085938 186.45341 40.078125 186.3457 40.078125 z M 176.73047 786.11328 C 101.34437 790.96032 41.191153 851.76726 37.466797 927.44336 C 37.466797 931.56128 40.624267 934.90625 44.742188 934.90625 L 328.10742 934.90625 C 332.22534 934.90625 335.38281 931.57058 335.38281 927.46094 C 331.6626 851.77656 271.50916 790.96032 196.12305 786.11328 L 196.12305 860.33594 L 176.73047 860.33594 L 176.73047 786.11328 z " fill-opacity="0" stroke="red" stroke-width="5"/></svg>