<svg xmlns="http://www.w3.org/2000/svg" viewBox="0 0 5850 5400"><path id="clipping" style="stroke-linecap:round;stroke-linejoin:round;paint-order:markers fill stroke;;fill-opacity:0;stroke:red;stroke-width:5px" d="m 3918.75,57.1963 v 75.5234 H 3187.5 v 490.9082 c -9.329,49.1667 -29.508,81.1513 -74.062,74.6055 -54.797,-2.475 -58.805,-208.2375 -75.938,-404.9375 h -375 v 962.5703 l -75,-28.6133 H 619.5293 v 102.0508 l -319.5293,2.5 c -22.8708,-19.7833 -49.5078,-36.8176 -105.2578,-31.1426 -56.7959,5.7792 -89.5834,37.7376 -118.75,90.0918 L 75,3972.9033 c 56.9583,109.0417 189.5833,95.9546 225,58.9004 h 320.834 v 85.6504 H 2587.5 l 75,-9.7129 v 953.5879 l 375,-1.875 c 20.029,-164.2416 22.579,-388.6504 75.938,-388.2754 40.583,-7.2708 78.545,8.5922 74.062,107.2422 v 453.3828 l 731.014,-0.2383 0.236,75.2383 h 525 v -75 h 731.125 l 0.125,-487.5 c 0.875,-49.4083 25.682,-71.8208 74.082,-73.125 59.167,-1.5916 57.626,210.1629 75.918,390.1504 h 375 v -954.5254 l 75,-75 v -1200 c -195.096,-2.8625 -197.75,-300.7416 0,-300 V 1341.1123 l -75,-75.5254 v -972.291 h -375 c -17.375,172.8666 -23.834,416.0529 -75.918,405.9863 -40.708,-1.0917 -65.165,-26.6043 -74.082,-75.6543 V 132.7197 H 4443.75 V 57.1963 Z m -0.146,1163.2832 h 525.109 c 47.291,1.8708 47.166,113.7083 0,112.5 h -525.109 c -47.166,1.2083 -47.258,-110.6292 0,-112.5 z m -0.04,2812.4531 h 525.159 c 47.25,1.8708 47.125,113.7083 0,112.5 h -525.159 c -47.167,1.2083 -47.259,-110.6292 0,-112.5 z" fill-opacity="0" stroke="red" stroke-width="5"/></svg>