<svg xmlns="http://www.w3.org/2000/svg" viewBox="0 0 3675 4575"><polygon class="st1" points="241.4,9 236.4,81.9 235,235.6 235,232.8 150,150.8 86,150.8 86,235.6 80.9,240.6 9,240.6 9,857.4 80.9,857.4 86,862.4 86,947.2 150,947.2 235,865.2 235,862.4 236.4,1016.1 241.4,1089 640.6,1089 645.6,1016.1 647,862.4 647,865.2 732,947.2 796,947.2 796,862.4 801.1,857.4 873,857.4 873,240.6 801.1,240.6 796,235.6 796,150.8 732,150.8 647,232.8 647,235.6 645.6,81.9 640.6,9 " id="clipping" transform="matrix(4.1666667,0,0,4.1666667,-1.47e-5,-1.83e-5)" style=";fill-opacity:0;stroke:red;stroke-width:5px" fill-opacity="0" stroke="red" stroke-width="5"/></svg>