<svg xmlns="http://www.w3.org/2000/svg" viewBox="0 0 3300 4350"><path stroke="red" stroke-miterlimit="10" d="m 2392.4834,3458.1667 148.6125,138.5417 h 285.05 c 0.058,0 0.058,-134.8542 0.058,-134.8542 l 15.0042,-15 h 420 V 907.47084 h -420 l -15,-15 v -135 h -285 L 2392.5959,896.16667 V 907.47084 53.995834 c -1.3959,0 -1.5917,0 -1488.01256,0 0,11.175 0,853.475006 0,853.475006 l -0.004,-11.30417 -148.4875,-138.69583 H 471.1 v 135 l -15,15 c 0,0 -329.39167,0 -420.004166,0 V 3446.8542 H 456.1 l 15,15 v -1.3417 136.2 H 756.09167 L 904.58334,3456.8209 V 3446.8584 4299 H 2392.4875 v -852.1458" id="clipping" style="fill-opacity:0;stroke:red;stroke-width:5px" fill-opacity="0" stroke-width="5"/></svg>