<svg xmlns="http://www.w3.org/2000/svg" viewBox="0 0 3300 4350"><path stroke="red" stroke-miterlimit="10" d="m 58.204167,928.32501 c 59.612503,0.008 419.866673,0.008 419.866673,0.008 l 15.69166,-15.65 v -119.15833 -0.425 h 285.28751 v 0.17083 l 150,123.5 -0.14584,11.55833 c 0,0 0.008,-743.8 -0.05,-855.433336 H 2372.825 v 855.437506 -11.725 l 150,-123.50417 h 284.1459 l -0.6917,0.425 v 119.80834 l 15,15 h 420.5125 V 3422.0834 h -420.0042 l -15,15 c 0,0 0,119.5458 0.071,119.5458 h -284.1459 l -150,-123.2333 v -11.3125 855.0208 H 929.30417 928.45001 v -855.025 11.3125 l -150,123.2333 c 0,0 -284.80001,0 -284.69167,0 v -119.5458 l -15.17917,-15 H 58.5875 L 58.204167,928.32501" id="clipping" style="fill-opacity:0;stroke:red;stroke-width:5px" fill-opacity="0" stroke-width="5"/></svg>