<svg xmlns="http://www.w3.org/2000/svg" viewBox="0 0 3675 4575"><polygon class="st19" points="227.3,71.7 232.3,9 649.7,9 654.7,71.7 654.7,71.7 656.1,225.5 741.1,140.7 805.2,140.7 804.9,225.5 810.2,229.1 873,229.1 873,868.9 810.2,868.9 805.2,872.5 805.2,957.3 741.1,957.3 656.1,872.5 654.7,1026.3 654.7,1026.3 649.7,1089 232.3,1089 227.3,1026.3 227.3,1026.3 225.9,872.5 140.9,957.3 76.8,957.3 76.8,872.5 71.8,868.9 9,868.9 9,229.1 71.8,229.1 76.8,225.5 76.8,140.7 140.9,140.7 225.9,225.5 227.3,71.7 " id="clipping" transform="matrix(4.1666667,0,0,4.1666667,-1.47e-5,-1.83e-5)" style="fill-opacity:0;stroke:red;stroke-width:5px" fill-opacity="0" stroke="red" stroke-width="5"/></svg>