<svg xmlns="http://www.w3.org/2000/svg" viewBox="0 0 225 225"><path d="m 112.54167,151.10004 c 6.91251,11.90418 17.85002,32.29587 24.23753,44.73338 17.27085,0 29.60836,0 48.04172,0.004 -0.43334,-24.40836 -25.10836,-60.65424 -33.62921,-81.38342 8.23335,-8.34168 32.12087,-5.10834 36.30421,-17.520854 -3.225,-23.712356 -32.68337,-25.204025 -53.69173,-31.004031 0.68334,-24.066694 -8.20417,-36.379207 -21.26669,-36.775041 h -0.0792 C 99.391653,29.549908 90.49581,41.862421 91.195811,65.929115 70.179121,71.729121 40.720755,73.22079 37.499918,96.933316 c 4.175005,12.412514 28.079198,9.179174 36.30004,17.520854 -8.516676,20.73335 -33.191703,56.97506 -33.62087,81.38342 18.429187,-0.004 30.7667,-0.004 48.025053,-0.004 6.387507,-12.43751 17.333349,-32.8292 24.258359,-44.73338 z" id="clipping" style="fill-opacity:0;stroke:red;stroke-width:5px" fill-opacity="0" stroke="red" stroke-width="5"/></svg>