<svg xmlns="http://www.w3.org/2000/svg" viewBox="0 0 2550 1125"><path id="clipping" style="color:#000000;solid-color:#000000;stroke-linejoin:round;-inkscape-paint-order:markers fill stroke;fill-opacity:0;stroke:red;stroke-width:5px" d="M 165.27733,45.21875 A 119.32735,113.11317 0 0 0 45.962932,158.32227 V 966.67778 A 119.32735,113.11317 0 0 0 165.27733,1079.7813 h 377.2422 a 119.32735,113.11317 0 0 0 118.4141,-106.61532 119.32735,113.11317 0 0 0 118.4121,106.61532 H 1156.588 a 119.32735,113.11317 0 0 0 118.4121,-106.61142 119.32735,113.11317 0 0 0 118.4121,106.61142 h 377.2422 a 119.32735,113.11317 0 0 0 118.4121,-106.61722 119.32735,113.11317 0 0 0 118.4141,106.61722 h 377.2422 A 119.32735,113.11317 0 0 0 2504.0372,966.67778 V 158.32227 A 119.32735,113.11317 0 0 0 2384.7228,45.21875 H 2007.4806 A 119.32735,113.11317 0 0 0 1889.0665,151.83399 119.32735,113.11317 0 0 0 1770.6544,45.21875 H 1393.4122 A 119.32735,113.11317 0 0 0 1275.0001,151.83008 119.32735,113.11317 0 0 0 1156.588,45.21875 H 779.34573 A 119.32735,113.11317 0 0 0 660.93363,151.83399 119.32735,113.11317 0 0 0 542.51953,45.21875 Z" fill-opacity="0" stroke="red" stroke-width="5"/></svg>