<svg xmlns="http://www.w3.org/2000/svg" viewBox="0 0 5025 1125"><path id="clipping" style="color:#000000;solid-color:#000000;stroke-linejoin:round;stroke-dasharray:none;stroke-opacity:1;paint-order:markers fill stroke;fill-opacity:0;stroke:red;stroke-width:5px" d="M 175.13672,48.763672 A 119.09811,112.33798 0 0 0 56.052734,161.0918 V 963.9082 A 119.09811,112.33798 0 0 0 175.13672,1076.2363 H 551.65625 A 119.09811,112.33798 0 0 0 670.42969,966.13086 119.0981,112.33798 0 0 0 789.20508,1076.2363 h 376.51762 a 119.0981,112.33798 0 0 0 118.7753,-110.10349 119.09811,112.33797 0 0 0 118.7735,110.10349 h 376.5176 a 119.09811,112.33797 0 0 0 118.7754,-110.10544 119.09811,112.33798 0 0 0 118.7753,110.10544 h 376.5176 a 119.09811,112.33798 0 0 0 118.7735,-110.10349 119.09811,112.33798 0 0 0 118.7753,110.10349 h 376.5176 a 119.09811,112.33798 0 0 0 118.7754,-110.10544 119.09811,112.33798 0 0 0 118.7735,110.10544 h 376.5195 a 119.09811,112.33798 0 0 0 118.7734,-110.10349 119.09811,112.33798 0 0 0 118.7754,110.10349 h 376.5176 A 119.09811,112.33798 0 0 0 4354.834,966.13281 119.09811,112.33798 0 0 0 4473.6074,1076.2363 H 4850.127 A 119.09811,112.33798 0 0 0 4969.2109,963.9082 V 161.0918 A 119.09811,112.33798 0 0 0 4850.127,48.763672 H 4473.6074 A 119.09811,112.33798 0 0 0 4354.834,158.86719 119.09811,112.33798 0 0 0 4236.0586,48.763672 H 3859.541 A 119.09811,112.33798 0 0 0 3740.7656,158.86719 119.09811,112.33798 0 0 0 3621.9922,48.763672 H 3245.4727 A 119.09811,112.33798 0 0 0 3126.6992,158.86914 119.09811,112.33798 0 0 0 3007.9238,48.763672 H 2631.4062 A 119.09811,112.33798 0 0 0 2512.6309,158.86719 119.09811,112.33798 0 0 0 2393.8574,48.763672 H 2017.3398 A 119.09811,112.33798 0 0 0 1898.5645,158.86914 119.09811,112.33797 0 0 0 1779.7891,48.763672 H 1403.2715 A 119.09811,112.33797 0 0 0 1284.498,158.86719 119.0981,112.33798 0 0 0 1165.7227,48.763672 H 789.20508 A 119.0981,112.33798 0 0 0 670.42969,158.86914 119.09811,112.33798 0 0 0 551.65625,48.763672 Z" fill-opacity="0" stroke="red" stroke-width="5"/></svg>