<svg xmlns="http://www.w3.org/2000/svg" viewBox="0 0 3825 1125"><path id="clipping" style="color:#000000;solid-color:#000000;stroke-linejoin:round;-inkscape-paint-order:markers fill stroke;fill-opacity:0;stroke:red;stroke-width:5px" d="M 919.87195 1620.2446 A 119.32735 112.87417 0 0 0 800.55749 1733.1079 L 800.55749 2539.7563 A 119.32735 112.87417 0 0 0 919.87195 2652.6196 L 1297.1141 2652.6196 A 119.32735 112.87417 0 0 0 1415.5262 2546.2348 A 119.32735 112.87417 0 0 0 1533.9384 2652.6196 L 1911.1805 2652.6196 A 119.32735 112.87417 0 0 0 2029.5946 2546.2309 A 119.32735 112.87417 0 0 0 2148.0067 2652.6196 L 2525.2489 2652.6196 A 119.32735 112.87417 0 0 0 2643.661 2546.2348 A 119.32735 112.87417 0 0 0 2762.0731 2652.6196 L 3139.3153 2652.6196 A 119.32735 112.87417 0 0 0 3257.7274 2546.2309 A 119.32735 112.87417 0 0 0 3376.1415 2652.6196 L 3753.3837 2652.6196 A 119.32735 112.87417 0 0 0 3871.7958 2546.2348 A 119.32735 112.87417 0 0 0 3990.2079 2652.6196 L 4367.4501 2652.6196 A 119.32735 112.87417 0 0 0 4486.7645 2539.7563 L 4486.7645 1733.1079 A 119.32735 112.87417 0 0 0 4367.4501 1620.2446 L 3990.2079 1620.2446 A 119.32735 112.87417 0 0 0 3871.7958 1726.6294 A 119.32735 112.87417 0 0 0 3753.3837 1620.2446 L 3376.1415 1620.2446 A 119.32735 112.87417 0 0 0 3257.7274 1726.6333 A 119.32735 112.87417 0 0 0 3139.3153 1620.2446 L 2762.0731 1620.2446 A 119.32735 112.87417 0 0 0 2643.661 1726.6294 A 119.32735 112.87417 0 0 0 2525.2489 1620.2446 L 2148.0067 1620.2446 A 119.32735 112.87417 0 0 0 2029.5946 1726.6333 A 119.32735 112.87417 0 0 0 1911.1805 1620.2446 L 1533.9384 1620.2446 A 119.32735 112.87417 0 0 0 1415.5262 1726.6294 A 119.32735 112.87417 0 0 0 1297.1141 1620.2446 L 919.87195 1620.2446 z " fill-opacity="0" stroke="red" stroke-width="5"/></svg>