<svg xmlns="http://www.w3.org/2000/svg" viewBox="0 0 5025 1125"><path id="clipping" style="color:#000000;solid-color:#000000;stroke-linejoin:round;paint-order:markers fill stroke;stroke-opacity:1;stroke-dasharray:none;;fill-opacity:0;stroke:red;stroke-width:5px" d="M 175.13672 48.763672 A 119.09811 112.33798 0 0 0 56.052734 161.0918 L 56.052734 963.9082 A 119.09811 112.33798 0 0 0 175.13672 1076.2363 L 551.65625 1076.2363 A 119.09811 112.33798 0 0 0 670.42969 966.13086 A 119.0981 112.33798 0 0 0 789.20508 1076.2363 L 1165.7227 1076.2363 A 119.0981 112.33798 0 0 0 1284.498 966.13281 A 119.09811 112.33797 0 0 0 1403.2715 1076.2363 L 1779.7891 1076.2363 A 119.09811 112.33797 0 0 0 1898.5645 966.13086 A 119.09811 112.33798 0 0 0 2017.3398 1076.2363 L 2393.8574 1076.2363 A 119.09811 112.33798 0 0 0 2512.6309 966.13281 A 119.09811 112.33798 0 0 0 2631.4062 1076.2363 L 3007.9238 1076.2363 A 119.09811 112.33798 0 0 0 3126.6992 966.13086 A 119.09811 112.33798 0 0 0 3245.4727 1076.2363 L 3621.9922 1076.2363 A 119.09811 112.33798 0 0 0 3740.7656 966.13281 A 119.09811 112.33798 0 0 0 3859.541 1076.2363 L 4236.0586 1076.2363 A 119.09811 112.33798 0 0 0 4354.834 966.13281 A 119.09811 112.33798 0 0 0 4473.6074 1076.2363 L 4850.127 1076.2363 A 119.09811 112.33798 0 0 0 4969.2109 963.9082 L 4969.2109 161.0918 A 119.09811 112.33798 0 0 0 4850.127 48.763672 L 4473.6074 48.763672 A 119.09811 112.33798 0 0 0 4354.834 158.86719 A 119.09811 112.33798 0 0 0 4236.0586 48.763672 L 3859.541 48.763672 A 119.09811 112.33798 0 0 0 3740.7656 158.86719 A 119.09811 112.33798 0 0 0 3621.9922 48.763672 L 3245.4727 48.763672 A 119.09811 112.33798 0 0 0 3126.6992 158.86914 A 119.09811 112.33798 0 0 0 3007.9238 48.763672 L 2631.4062 48.763672 A 119.09811 112.33798 0 0 0 2512.6309 158.86719 A 119.09811 112.33798 0 0 0 2393.8574 48.763672 L 2017.3398 48.763672 A 119.09811 112.33798 0 0 0 1898.5645 158.86914 A 119.09811 112.33797 0 0 0 1779.7891 48.763672 L 1403.2715 48.763672 A 119.09811 112.33797 0 0 0 1284.498 158.86719 A 119.0981 112.33798 0 0 0 1165.7227 48.763672 L 789.20508 48.763672 A 119.0981 112.33798 0 0 0 670.42969 158.86914 A 119.09811 112.33798 0 0 0 551.65625 48.763672 L 175.13672 48.763672 z " fill-opacity="0" stroke="red" stroke-width="5"/></svg>