<svg xmlns="http://www.w3.org/2000/svg" viewBox="0 0 2550 1125"><path id="clipping" style="color:#000000;solid-color:#000000;stroke-linejoin:round;-inkscape-paint-order:markers fill stroke;fill-opacity:0;stroke:red;stroke-width:5px" d="M 1517.2672 80.194973 A 119.32735 113.11317 0 0 0 1397.9528 193.29849 L 1397.9528 1001.654 A 119.32735 113.11317 0 0 0 1517.2672 1114.7575 L 1894.5094 1114.7575 A 119.32735 113.11317 0 0 0 2012.9235 1008.1422 A 119.32735 113.11317 0 0 0 2131.3356 1114.7575 L 2508.5778 1114.7575 A 119.32735 113.11317 0 0 0 2626.9899 1008.1461 A 119.32735 113.11317 0 0 0 2745.402 1114.7575 L 3122.6442 1114.7575 A 119.32735 113.11317 0 0 0 3241.0563 1008.1403 A 119.32735 113.11317 0 0 0 3359.4704 1114.7575 L 3736.7126 1114.7575 A 119.32735 113.11317 0 0 0 3856.027 1001.654 L 3856.027 193.29849 A 119.32735 113.11317 0 0 0 3736.7126 80.194973 L 3359.4704 80.194973 A 119.32735 113.11317 0 0 0 3241.0563 186.81021 A 119.32735 113.11317 0 0 0 3122.6442 80.194973 L 2745.402 80.194973 A 119.32735 113.11317 0 0 0 2626.9899 186.8063 A 119.32735 113.11317 0 0 0 2508.5778 80.194973 L 2131.3356 80.194973 A 119.32735 113.11317 0 0 0 2012.9235 186.81021 A 119.32735 113.11317 0 0 0 1894.5094 80.194973 L 1517.2672 80.194973 z " fill-opacity="0" stroke="red" stroke-width="5"/></svg>