<svg xmlns="http://www.w3.org/2000/svg" viewBox="0 0 3825 1125"><path id="clipping" style="color:#000000;solid-color:#000000;stroke-linejoin:round;-inkscape-paint-order:markers fill stroke;fill-opacity:0;stroke:red;stroke-width:5px" d="M 188.71094,46.3125 A 119.32735,112.87417 0 0 0 69.39648,159.1758 v 806.6484 a 119.32735,112.87417 0 0 0 119.31446,112.8633 h 377.24215 a 119.32735,112.87417 0 0 0 118.4121,-106.3848 119.32735,112.87417 0 0 0 118.4122,106.3848 h 377.24211 a 119.32735,112.87417 0 0 0 118.4141,-106.3887 119.32735,112.87417 0 0 0 118.4121,106.3887 h 377.2422 A 119.32735,112.87417 0 0 0 1912.5,972.3027 a 119.32735,112.87417 0 0 0 118.4121,106.3848 h 377.2422 a 119.32735,112.87417 0 0 0 118.4121,-106.3887 119.32735,112.87417 0 0 0 118.4141,106.3887 h 377.2422 a 119.32735,112.87417 0 0 0 118.4121,-106.3848 119.32735,112.87417 0 0 0 118.4121,106.3848 h 377.2422 A 119.32735,112.87417 0 0 0 3755.6035,965.8242 V 159.1758 A 119.32735,112.87417 0 0 0 3636.2891,46.3125 H 3259.0469 A 119.32735,112.87417 0 0 0 3140.6348,152.6973 119.32735,112.87417 0 0 0 3022.2227,46.3125 H 2644.9805 A 119.32735,112.87417 0 0 0 2526.5664,152.7012 119.32735,112.87417 0 0 0 2408.1543,46.3125 H 2030.9121 A 119.32735,112.87417 0 0 0 1912.5,152.6973 119.32735,112.87417 0 0 0 1794.0879,46.3125 H 1416.8457 A 119.32735,112.87417 0 0 0 1298.4336,152.7012 119.32735,112.87417 0 0 0 1180.0195,46.3125 H 802.77739 A 119.32735,112.87417 0 0 0 684.36519,152.6973 119.32735,112.87417 0 0 0 565.95309,46.3125 Z" fill-opacity="0" stroke="red" stroke-width="5"/></svg>