<svg xmlns="http://www.w3.org/2000/svg" viewBox="0 0 2700 3150"><path class="cls-16" d="M 1733,680.70833 V 277.95832 c 0,-67.08333 -54.375,-121.45833 -121.4583,-121.45833 h -76.875 c -22.9167,0 -41.6667,0 -41.6667,0 v 0 c 0,0 -1.9583,-0.25 -4.375,-0.5 l -1.8333,-1.04167 c -1.0834,-0.625 -2.125,-1.41666 -3.0834,-2.375 -7.8333,-7.79166 -12.3333,-26.20833 -23.125,-46 C 1443.25,74.791655 1409.7083,39.583321 1320,39.624988 c -172.375,0.125 -138.2083,104.958332 -113.25,92.708332 17.5833,-8.66666 30.5417,15.875 14.5833,22.25 -0.9583,0.375 -2.0416,0.70834 -3.25,0.95834 l -1.6666,0.33333 c -2.1667,0.0833 -22.7084,-0.0833 -45.625,-0.41667 0,0 -58.7084,-0.83333 -88.375,1.16667 -29.2917,1.95833 -65.625,14.25 -89.58337,44.04167 -11.41667,14.16666 -20,32.29166 -23.75,55.125 l -1.25,7.625 c -0.41667,9.25 -0.75,35.58333 -0.70833,58.5 l 0.79166,520.58333 c 0,0.83334 -0.66666,1.45834 -1.45833,1.45834 H 851 c -22.91667,0 -60.41667,0.95833 -83.29167,2.125 L 74.916656,881.37499 c -0.791666,0 -1.416666,0.66667 -1.416666,1.45834 v 987.20837 c 0,0.7916 0.625,1.4166 1.416666,1.4583 l 692.000004,35.2917 c 22.875,1.1666 60.375,2.125 83.29167,2.125 h 115.83333 c 0.79167,0 1.45834,0.6666 1.45834,1.4583 l 0.70833,1111.5417 c 0,22.9166 0,41.3333 0,40.9166 0,-0.4166 0.16667,2.1667 0.33333,5.7084 l 0.625,3.0833 c 1.875,9.2917 6.41667,17.5833 12.75,24.125 4.16667,4.25 9.08334,7.75 14.54167,10.25 3.87497,1.75 7.99997,3.0417 12.33337,3.7083 l 2.5,0.4167 c 2.8333,0.125 23.9166,0.2083 46.8333,0.2083 h 583.7083 c 22.9167,0 43.4584,-0.042 45.625,-0.125 l 1.9167,-0.25 c 1.9167,-0.25 3.7917,-0.5833 5.6667,-1.0416 9.5416,-2.3334 18,-7.5417 24.375,-14.625 4.0416,-4.5 7.25,-9.75 9.375,-15.5417 0.8333,-2.2917 1.5,-4.6667 2,-7.0833 l 0.625,-3.125 c 0.1666,-3.5834 0.3333,-6.1667 0.3333,-5.75 0,0.4166 0,-18 0,-40.9167 l 0.7083,-1111.5417 c 0,-0.7916 0.6667,-1.4583 1.4584,-1.4583 h 118.875 c 22.9166,0 60.4166,-0.9583 83.2916,-2.125 l 688.2917,-35.25 c 1.1667,-0.042 2.0833,-1 2.0833,-2.1667 V 882.79166 c 0,-0.79167 -0.625,-1.41667 -1.4166,-1.45833 l -688.9584,-35.29167 c -22.875,-1.16667 -60.375,-2.125 -83.2916,-2.125 H 1734.375 c -0.8333,0 -1.4583,-0.66667 -1.4583,-1.45833 V 680.66666" id="clipping" style="fill-opacity:0;stroke:red;stroke-width:5px" fill-opacity="0" stroke="red" stroke-width="5"/></svg>