<svg xmlns="http://www.w3.org/2000/svg" viewBox="0 0 2475 3000"><path class="cls-16" d="M 782.04166,767.83333 53.166657,806.49999 c -1.25,0.0833 -2.208333,1.08334 -2.208333,2.33334 V 1795.5 c 0,0.625 0.5,1.1667 1.125,1.2083 L 740.375,1830.7917 c 22.875,1.125 58.33333,2.0833 78.79166,2.0833 h 36.91667 c 0,0 -0.25,18.75 -0.25,41.6667 l 0.33333,991.0833 c 0,22.9167 0.16667,44.4583 0.33334,47.875 l 0.58333,2.9583 c 3.41667,17.4167 16.04167,31.5417 33,36.875 l 4.58333,1.4167 c 5.45834,0.4167 28.66667,0.75 51.58334,0.75 H 1530 c 22.9167,0 43.25,-0.042 45.2083,-0.083 l 1.7084,-0.1667 c 21.1666,-2.2917 38.375,-18.2083 42.25,-39.1667 l 0.5416,-2.875 c 0.1667,-3.2916 0.2917,-5.625 0.3334,-5.2083 0.042,0.4167 0,-18 0,-40.9167 L 1619.875,1875.75 c 0,-22.9167 -0.2083,-41.6667 -0.4167,-41.6667 h 35.8334 c 19.9166,0 54.9583,-0.9583 77.875,-2.125 l 689.6666,-35.2916 c 0.625,0 1.125,-0.5417 1.125,-1.2084 V 807.74999 c 0,-0.625 -0.5,-1.16666 -1.125,-1.20833 l -689.6666,-35.33333 -41.5834,-2.125 h -72.5 c 0,0 0,-18.75 0.083,-41.66667 l 0.7083,-400.70834 c 0,-22.91666 -0.125,-47.16666 -0.375,-53.91666 l -0.6667,-5.70834 c -0.625,-5.5 -1.5833,-10.91666 -2.875,-16.29166 -4.5833,-20.45834 -14.9166,-39.25 -29.7083,-54.125 -23.5833,-23.45834 -55.4583,-33.5 -81.6667,-35.25 -29.6666,-2 -88.375,-1.16667 -88.375,-1.16667 -22.9166,0.33333 -43.25,0.5 -45.2083,0.41667 l -1.5,-0.25 c -1.3333,-0.25 -2.6667,-0.58334 -3.9167,-1.08334 -3.7916,-1.29166 -6.5,-4.625 -7.0416,-8.58333 -0.4584,-8.04167 5.6666,-14.95833 13.7083,-15.45833 2.7917,-0.16667 5.5833,0.45833 8,1.83333 24.9583,12.29167 59.1667,-92.583335 -113.25,-92.708335 -84.3333,-0.04167 -119.0417,31.083334 -137.2917,61.208335 -12.9583,21.375 -17.625,42.25 -25.875,51.16667 -1.2916,1.41666 -2.8333,2.58333 -4.5416,3.41666 l -1.625,0.75 c -2.0417,0.16667 -3.7084,0.29167 -3.7084,0.33334 h -0.875 c -0.5,0 -19.625,0.0417 -42.5416,0.0417 H 975.16666 C 908.25,161.33332 854,215.58332 854,282.54166 v 483.95833 c 0,0.75 -0.625,1.33334 -1.33334,1.33334 H 782" id="clipping" style=";fill-opacity:0;stroke:red;stroke-width:5px" fill-opacity="0" stroke="red" stroke-width="5"/></svg>