<svg xmlns="http://www.w3.org/2000/svg" viewBox="0 0 3000 3450"><path class="cls-16" d="m 2194.75,992.62499 732,37.50001 -0.4583,990.625 -732,37.5 -312,-1.625 v 0 l -0.75,1307.2917 v -1.5 c 0,26.625 -21.5834,48.25 -48.25,48.25 h -668 c -26.6667,0 -48.25,-21.625 -48.25,-48.25 v 1.5 l -0.75,-1305.7084 H 805.20833 l -731.958341,-37.5 v -990 L 805.20833,991.58333 h 311.99997 l -0.9166,-711.75001 c 0.042,-4.45833 0.25,-8.79166 0.625,-12.95833 0.375,-4.16667 0.875,-8.08334 1.5,-11.95834 4.5,-26.91666 15.75,-47.20833 30.375,-62.20833 23.7083,-24.33333 56.25,-34.70833 82.9166,-36.5 29.6667,-2 106.9167,-0.58333 130.75,-0.58333 v 0 c 2.4167,0 4.5,-0.25 6.3334,-0.66667 19.75,-4.70833 6.375,-32.125 -12.0417,-23.04167 -24.9583,12.29167 -59.1667,-92.58333 113.25,-92.70833 150.8333,-0.08333 142.9167,99.54167 166.0833,114.875 2.0417,1.33333 4.3334,2.04167 6.9584,1.95833 v 0 c 0,0 120,0.0417 120,0.0417 66.2916,0 120,53.70833 120,120 l -0.625,715.50001 312.375,0.95833 z" id="clipping" style="fill-opacity:0;stroke:red;stroke-width:5px" fill-opacity="0" stroke="red" stroke-width="5"/></svg>