<svg xmlns="http://www.w3.org/2000/svg" viewBox="0 0 3450 4875"><path id="clipping" style="fill-opacity:0;stroke:red;stroke-width:5px" d="m 635.75016,37.502244 -79.2422,63.496096 v 563.0038 l 79.24024,63.4981 H 157.50804 v 0.012 L 37.500243,740.54154 V 2244.4788 l 68.083967,0.7422 51.92383,12.2871 v -0.01 h 698.99988 v 0 H 635.75016 l -79.2422,63.4961 v 563.0038 l 79.2422,63.4961 h 220.75776 l -0.004,718.8163 0.004,715.9549 7.20117,95.2287 180.94921,243.6071 c 0,29.6333 491.3375,56.3929 520.5292,56.3929 h 307.6659 c 29.1875,0 520.5176,-26.7596 520.5176,-56.3929 l 180.9452,-243.6071 7.2012,-95.2287 v -715.9511 -718.8163 h 220.7539 l 79.2363,-63.4961 V 2320.998 l -79.2363,-63.4961 h -220.7637 v 0 l 698.9999,0.01 51.9297,-12.2871 68.084,-0.7422 V 740.53924 l -120.0137,-13.0293 v 0 h -698.9999 220.7637 l 79.2363,-63.5 V 101.00634 L 2802.2674,37.510244 H 2581.5076 856.50792 Z" fill-opacity="0" stroke="red" stroke-width="5"/></svg>