<svg xmlns="http://www.w3.org/2000/svg" viewBox="0 0 3075 3600"><path class="cls-16" d="M 1157.5417,3504.5417 1156.8333,2172.75 c 0,-22.9167 -0.25,-41.6667 -0.5,-41.6667 -0.25,0 -19.2083,0.083 -42.125,0.1667 l -297.66664,1.2083 c -22.91667,0.083 -60.375,-0.8333 -83.29167,-2.0416 l -692.250002,-36.875 c -0.208333,0 -0.375,-0.2084 -0.375,-0.4167 v -988.7917 c 0,0 0.125,-0.2916 0.291667,-0.3333 l 693.083335,-35.375 c 22.875,-1.1667 41.54167,-2.25 41.41667,-2.375 -0.125,-0.125 18.54167,-0.25 41.45833,-0.25 H 1154.875 c 0.5,0 0.9167,-0.4167 0.9167,-0.9167 V 282.49999 c 0,-66.29167 53.7083,-120 120,-120 h 75.2916 c 22.9167,0 42.0834,0 42.5417,0 0.4583,0 0.875,0 0.875,0 0,0 1.75,-0.16667 3.875,-0.33334 l 1.6667,-0.79166 c 24.9583,-12.125 13.625,-115.791671 167.5,-115.666671 172.375,0.125 138.2083,104.958331 113.25,92.708331 -18.4584,-9.08333 -31.8334,18.41667 -11.9584,23.04167 l 1.7917,0.41667 c 2.4583,0.125 23.2083,0 46.125,-0.33334 0,0 60.0833,-0.83333 89.75,1.16667 38.375,2.58333 88.8333,22.875 107.75,77.04167 2.3333,6.70833 4.2083,13.91666 5.5,21.66666 l 1.2917,7.75 c 0.4583,9.45834 0.7916,35.91667 0.7916,58.83334 l -0.7916,697.16671 c 0,22.9166 -0.042,41.5416 -0.083,41.3333 -0.042,-0.2083 18.75,-0.3333 41.6667,-0.3333 h 297.625 c 22.9167,0 60.375,1 83.2917,2.2083 l 689.5833,36.8333 c 0.7083,0 1.25,0.625 1.25,1.2917 v 986.7917 c 0,0 -0.1667,0.375 -0.3333,0.375 L 2341,2129.0417 c -22.875,1.1666 -40.9583,2.125 -40.1667,2.125 0.7917,0 -17.2916,0 -40.2083,0 h -339.4167 c 0,0 -0.2083,0.083 -0.2083,0.2083 v 1331.5417 c 0,22.9166 -0.042,43.5416 -0.125,45.8333 l -0.25,2.0417 c -1.7917,14.1666 -9.75,26.375 -21.0833,33.9583 -3.8334,2.5833 -8.0417,4.5833 -12.5417,6 l -4.5,1.375 c -5.375,0.4167 -28.5,0.75 -51.4167,0.75 h -583.5416 c -22.9167,0 -44.25,-0.125 -47.375,-0.25 l -2.75,-0.5 c -2.75,-0.5 -5.4167,-1.2083 -7.9584,-2.125 -18.5833,-6.7083 -31.8333,-24.5 -31.8333,-45.375" id="clipping" style="stroke-dasharray:none;fill-opacity:0;stroke:red;stroke-width:5px" fill-opacity="0" stroke="red" stroke-width="5"/></svg>