<svg xmlns="http://www.w3.org/2000/svg" viewBox="0 0 2100 1800"><path id="clipping" style=";fill-opacity:0;stroke:red;stroke-width:5px" d="M 352.49609 36.121094 C 269.66275 36.121094 202.49609 103.24609 202.49609 186.12109 L 202.49609 201.12109 L 187.49609 201.12109 C 104.66275 201.12109 37.496094 268.24609 37.496094 351.12109 L 37.496094 1409.4551 L 37.496094 1409.459 C 37.496094 1492.2924 104.66275 1559.459 187.49609 1559.459 L 202.49609 1559.459 L 202.49219 1559.4551 L 202.49609 1559.4551 L 202.49609 1559.459 L 202.49609 1574.4551 C 202.49609 1657.2884 269.66275 1724.4551 352.49609 1724.4551 L 810.83008 1724.4551 C 893.70509 1724.4551 960.83008 1657.2884 960.83008 1574.4551 L 960.83008 1559.459 L 960.83008 1559.4551 L 960.83398 1559.4551 L 960.83008 1559.459 L 975.87109 1559.459 C 1058.7045 1559.459 1125.8301 1492.2924 1125.8301 1409.459 L 1125.8301 1409.4551 L 1884.1621 1409.4551 L 1884.1621 1409.459 L 2019.1621 1409.459 L 2019.1621 351.12109 L 2019.1582 351.12109 L 1884.1621 351.12109 L 1579.9961 351.12109 L 1429.9961 351.12109 L 1125.8301 351.12109 C 1125.8301 268.24609 1058.7045 201.12109 975.87109 201.12109 L 960.83008 201.12109 L 960.83008 186.12109 C 960.83008 103.24609 893.70509 36.121094 810.83008 36.121094 L 352.49609 36.121094 z " fill-opacity="0" stroke="red" stroke-width="5"/></svg>