<svg xmlns="http://www.w3.org/2000/svg" viewBox="0 0 2475 3000"><path class="cls-16" d="m 1692.9583,767.83333 728.875,38.66666 c 1.25,0.0833 2.2084,1.08334 2.2084,2.33334 V 1795.5 c 0,0.625 -0.5,1.1667 -1.125,1.2083 l -688.2917,34.0834 c -22.875,1.125 -58.3333,2.0833 -78.7917,2.0833 h -36.9166 c 0,0 0.25,18.75 0.25,41.6667 l -0.3334,991.0833 c 0,22.9167 -0.1666,44.4583 -0.3333,47.875 l -0.5833,2.9583 c -3.4167,17.4167 -16.0417,31.5417 -33,36.875 l -4.5834,1.4167 c -5.4583,0.4167 -28.6666,0.75 -51.5833,0.75 H 945 c -22.91667,0 -43.25,-0.042 -45.20834,-0.083 l -1.70833,-0.1667 c -21.16667,-2.2917 -38.375,-18.2083 -42.25,-39.1667 l -0.54167,-2.875 C 855.125,2909.9167 855,2907.5833 854.95833,2908 c -0.0417,0.4167 0,-18 0,-40.9167 L 855.125,1875.75 c 0,-22.9167 0.20833,-41.6667 0.41666,-41.6667 h -35.83333 c -19.91667,0 -54.95833,-0.9583 -77.875,-2.125 L 52.166657,1796.6667 c -0.625,0 -1.125,-0.5417 -1.125,-1.2084 V 807.74999 c 0,-0.625 0.5,-1.16666 1.125,-1.20833 l 689.666673,-35.33333 41.58333,-2.125 h 72.5 c 0,0 0,-18.75 -0.0833,-41.66667 L 855.125,326.70832 c 0,-22.91666 0.125,-47.16666 0.375,-53.91666 l 0.66666,-5.70834 c 0.625,-5.5 1.58334,-10.91666 2.875,-16.29166 4.58334,-20.45834 14.91667,-39.25 29.70834,-54.125 23.58333,-23.45834 55.45833,-33.5 81.66666,-35.25 29.66664,-2 88.37504,-1.16667 88.37504,-1.16667 22.9166,0.33333 43.25,0.5 45.2083,0.41667 l 1.5,-0.25 c 1.3333,-0.25 2.6667,-0.58334 3.9167,-1.08334 3.7916,-1.29166 6.5,-4.625 7.0416,-8.58333 0.4584,-8.04167 -5.6666,-14.95833 -13.7083,-15.45833 -2.7917,-0.16667 -5.5833,0.45833 -8,1.83333 -24.9583,12.29167 -59.1667,-92.583335 113.25,-92.708335 84.3333,-0.04167 119.0417,31.083334 137.2917,61.208335 12.9583,21.375 17.625,42.25 25.875,51.16667 1.2916,1.41666 2.8333,2.58333 4.5416,3.41666 l 1.625,0.75 c 2.0417,0.16667 3.7084,0.29167 3.7084,0.33334 h 0.875 c 0.5,0 19.625,0.0417 42.5416,0.0417 h 75.375 c 66.9167,0 121.1667,54.25 121.1667,121.20834 v 483.95833 c 0,0.75 0.625,1.33334 1.3333,1.33334 H 1693" id="clipping" style="fill-opacity:0;stroke:red;stroke-width:5px" fill-opacity="0" stroke="red" stroke-width="5"/></svg>