<svg xmlns="http://www.w3.org/2000/svg" viewBox="0 0 3225 3750"><path class="cls-16" d="m 2445.375,1142.2917 c 0,0 18.5417,1.2083 41.4167,2.375 L 3179.7083,1180 c 0.25,0 0.4584,0.2083 0.4584,0.5 v 989.0833 c 0,0.25 -0.2084,0.4584 -0.4584,0.5 L 2445,2208.6667 c 0,0 0,0 0,0 h -450.5 c -0.25,0 -0.5,0.2083 -0.5,0.5 l -0.7083,1401.5416 c 0,22.9167 0,41.3334 0,40.9167 0,-0.4167 -0.375,3.7917 -0.8334,9.4167 l -1.5,4.6666 c -3.7083,11.5417 -11.6666,21.2084 -22.0416,27.125 l -7.0417,4 c -9.25,1.25 -35.5833,2.2917 -58.5,2.2917 h -583.7083 c -22.9167,0 -45.875,-0.2917 -50.9584,-0.6667 l -4.3333,-1.25 c -11.2917,-3.3333 -20.875,-10.6666 -27.0833,-20.375 -2.375,-3.75 -4.2917,-7.8333 -5.5834,-12.2083 l -1.2916,-4.3333 c -0.375,-5.1667 -0.7084,-9.0417 -0.7084,-8.625 0,0.4166 0,-18 0,-40.9167 l -0.75,-1401.5417 c 0,-0.25 -0.2083,-0.5 -0.5,-0.5 H 821.54166 c -22.91667,0 -60.41667,-0.9583 -83.29167,-2.125 L 45.333321,2171.25 c -0.25,0 -0.458334,-0.2083 -0.458334,-0.5 v -989.0833 c 0,-0.25 0.208334,-0.4584 0.458334,-0.5 l 731.958339,-39.0834 c 0,0 0,0 0,0 h 410.87504 c 22.9166,0 41.7916,-0.125 41.9583,-0.25 0.1667,-0.125 0.2917,-19 0.2917,-41.9166 V 733.74999 c 0,-22.91667 0,-60.41667 -0.083,-83.33333 l -0.7083,-317.12501 c -0.042,-22.91666 0.6667,-52.95833 1.5833,-66.70833 l 2.7084,-10.70833 c 15.6666,-62.29167 70.1666,-85.08334 111,-87.875 29.6666,-2 88.375,-1.16667 88.375,-1.16667 22.9166,0.33333 46,0 51.2916,-0.75 l 2.5834,-2.04167 c 10.4166,-8.25 -1.7917,-28.29166 -17.9584,-20.33333 -24.9583,12.29167 -59.1666,-92.583335 113.25,-92.708335 141.0417,-0.08333 143.2917,87.000005 161.875,110.875005 l 3.0417,3.91666 c 4.4583,1.125 8.0833,2.08334 8.0833,2.08334 0,0 0.4167,0 0.875,0 0.4584,0 19.625,0 42.5417,0 h 76.0833 c 66.5417,0 120.5,53.95833 120.5,120.5 v 362.04167 c 0,22.91666 0,60.41666 -0.042,83.33333 L 1995,1100 c 0,22.9167 -0.042,41.75 0,41.875 0.042,0.125 18.75,0.2083 41.6667,0.2083 h 367.25 c 22.9166,0 41.5833,0.125 41.4583,0.25 z" id="clipping" style="fill-opacity:0;stroke:red;stroke-width:5px" fill-opacity="0" stroke="red" stroke-width="5"/></svg>