<svg xmlns="http://www.w3.org/2000/svg" viewBox="0 0 2850 3375"><path class="cls-17" d="m 1280.25,191.54165 h -119.875 c -66.4583,0 -120.3333,53.87501 -120.3333,120.33334 v 362.20834 c 0,22.91666 0,60.41666 0,83.33333 v 155.20833 c 0,22.91667 0,41.66667 0,41.66667 0,0 -18.75,0.125 -41.6667,0.29167 L 843,955.62499 c -22.91667,0.16667 -60.41667,1.25 -83.29167,2.41667 L 69.624989,993.37499 c 0,0 -0.291667,0.16667 -0.291667,0.33334 v 989.33337 c 0,0 0.125,0.3333 0.291667,0.3333 l 731.666671,37.5 c 0,0 0,0 0,0 l 238.37504,-1.625 c 0,0 0.3333,0.1667 0.3333,0.3333 V 3211.875 c 0,22.9167 0,41.3333 0,40.9167 0,-0.4167 0.4167,4.1666 0.9583,10.2083 l 1.75,5 c 5.25,15 17.75,26.625 33.2917,30.7083 l 3.9167,1.0417 c 4.5833,0.2917 27.0833,0.5417 50,0.5417 h 585.375 c 22.9166,0 47.4166,-0.5834 54.4583,-1.2917 l 5.7083,-2.375 c 11.6667,-4.8333 21.0417,-14.1667 25.9584,-25.7917 l 2.4583,-5.7916 c 0.75,-7.1667 1.3333,-31.75 1.3333,-54.6667 l -0.1666,-1190.7917 c 0,0 0.1666,-0.3333 0.3333,-0.3333 l 240.2083,1.625 c 0,0 0,0 0,0 l 734.6667,-37.5 c 0,0 0.2917,-0.1667 0.2917,-0.3333 V 993.70833 c 0,0 -0.125,-0.33334 -0.2917,-0.33334 l -732.125,-39.08333 c 0,0 0,0 0,0 h -201.4583 c -22.9167,0 -41.875,0 -42.125,0 -0.25,0 -0.4167,-18.75 -0.375,-41.66667 l 0.75,-555.66667 c 0,-22.91666 -0.3334,-49.70833 -0.8334,-59.58333 l -1.4166,-8.04167 c -1.0417,-5.875 -2.375,-11.41666 -4,-16.66666 -17.7917,-57.16667 -69.7917,-78.41667 -109.0834,-81.04167 -29.6666,-2 -85.4583,-1.20834 -85.4583,-1.20834 -22.9167,0.33334 -44.5833,0.375 -48.125,0.0833 l -2.2917,-0.91667 c -16.125,-6.29167 -3.1666,-30.95833 14.4584,-22.29167 24.9583,12.29167 59.1666,-92.58333 -113.25,-92.70833 C 1311.2917,74.499987 1311.625,164.79165 1292,186.66665 l -2.7917,3.125 c -4,0.875 -7.2916,1.58334 -7.2916,1.625 v 0" id="clipping" style="fill-opacity:0;stroke:red;stroke-width:5px" fill-opacity="0" stroke="red" stroke-width="5"/></svg>