<svg xmlns="http://www.w3.org/2000/svg" viewBox="0 0 2325 1950"><path d="m 1037.7917,1637.7917 v 92.9958 c 0,82.8333 -67.1667,150 -150.00004,150 H 429.45833 c -82.83334,0 -150,-67.1667 -150,-150 v -92.9958 h -93 c -82.83334,0 -150.000006,-67.1667 -150.000006,-150 V 429.45833 c 0,-82.83334 67.166666,-150 150.000006,-150 h 93 v -93 c 0,-82.83334 67.16666,-150.000004 150,-150.000004 h 458.33333 c 82.83334,0 150.00004,67.166664 150.00004,150.000004 v 93 h 93 c 82.8333,0 150,67.16666 150,150 h 304.1666 c 0,91.66667 150,91.66667 150,0 h 304.1667 213 V 1487.7917 h -213 -758.3333 c 0,82.8333 -67.1667,150 -150,150 z" id="clipping" style=";fill-opacity:0;stroke:red;stroke-width:5px" fill-opacity="0" stroke="red" stroke-width="5"/></svg>