<svg xmlns="http://www.w3.org/2000/svg" viewBox="0 0 4350 4500"><path style="stroke-linecap:round;stroke-linejoin:round;paint-order:markers fill stroke;fill-opacity:0;stroke:red;stroke-width:5px" d="m 3075.6446,39.980449 c -50.2654,0.133668 -100.6214,-0.04547 -150.8301,0.283203 -11.3325,24.849033 -22.6589,49.697838 -34.0039,74.541018 -127.808,0.13093 -255.8323,-0.26016 -383.5059,0.19531 0,212.85482 0,425.70965 0,638.56445 -22.5113,43.3797 -34.5737,90.94825 -29.9809,139.9707 -3.6312,26.8342 7.026,67.88045 -5.0191,86.26955 -198.2771,0.1302 -396.7698,-0.26035 -594.9121,0.1953 -0.8565,174.80152 -1.7191,349.60292 -2.5879,524.40432 -27.097,-18.4328 -50.8205,-46.4569 -79.8047,-59.5315 -372.538,0.1129 -745.2919,-0.3006 -1117.6953,0.1272 0,31.4323 0,62.8646 0,94.2969 -167.4607,1.0226 -334.9231,2.0198 -502.3828,3.0566 -65.6346,17.6511 -121.749,72.4702 -127.5977,142.168 -14.0624,118.4826 -6.1176,238.4634 -9.3426,357.5583 0.2012,249.3033 -2.5561,498.741 4.4598,747.9495 2.0945,77.9357 62.0529,153.4349 141.7434,160.871 156.693,16.3211 314.7909,6.3621 472.0652,9.2911 39.5733,-9.2795 13.7144,46.8611 21.0547,69.8086 -8.628,38.839 47.7238,12.5964 70.1953,20.1953 351.1177,-0.026 702.2523,0.052 1053.3594,-0.039 24.6458,-18.4443 49.2942,-36.8851 73.9453,-55.3223 0.9989,175.0933 1.4738,350.4026 2.7832,525.3613 199.9056,0 399.8112,0 599.7168,0 3.4226,71.1818 -12.6243,147.7843 24.5391,212.9954 12.2961,50.6734 2.1468,105.7925 5.4609,158.2449 0.1302,164.5596 -0.2604,329.3349 0.1953,493.7597 127.7702,0 255.5404,0 383.3106,0 11.443,24.851 22.6072,49.9344 34.1894,74.6582 100.2815,0.03 200.6536,0.379 300.8789,0.2246 13.8866,-23.0388 19.0135,-59.5068 37.9102,-74.8828 126.2748,-0.1309 252.7659,0.2603 378.9062,-0.1953 0,-212.8548 0,-425.7096 0,-638.5644 22.5113,-43.3797 34.5737,-90.9483 29.9809,-139.9707 3.6313,-26.8342 -7.026,-67.8805 5.0191,-86.2696 198.3064,-0.1301 396.8285,0.2604 594.9997,-0.1953 0,-174.2936 0,-348.5872 0,-522.8808 18.881,-20.7004 50.482,-36.0723 40,-69.1504 -0.13,-176.0277 0.261,-352.2712 -0.195,-528.1641 -62.485,3.8495 -123.033,-38.7661 -142.432,-98.0859 -25.298,-71.5912 7.948,-163.3257 81.875,-190.3028 18.931,-9.0128 39.97,-12.8734 60.752,-11.416 -0.04,-186.0346 0.08,-372.0994 -0.06,-558.1152 -21.931,-21.039 -50.021,-39.483 -39.942,-74.0039 -0.13,-162.6649 0.261,-325.5459 -0.195,-488.07622 -199.9349,0 -399.8698,0 -599.8047,0 -3.4226,-71.18175 12.6244,-147.78425 -24.5391,-212.9954 -12.2961,-50.6734 -2.1467,-105.79245 -5.4609,-158.24485 -0.1301,-164.55963 0.2605,-329.33497 -0.1953,-493.75976 -127.4544,-0.008 -254.9088,-0.0116 -382.3633,-0.01 -11.3158,-24.96869 -22.3753,-50.162065 -33.8574,-74.990233 -50.2116,0.05859 -100.4232,0.117188 -150.6347,0.175782 z M 3231.3672,1435.1953 c 22.4438,18.9162 45.3882,55.1888 19.7949,81.2696 -19.1089,35.3515 -59.8804,20.4351 -92.7441,23.3398 -79.0495,0 -158.099,0 -237.1484,0 -20.9378,-17.3855 -45.5082,-46.9589 -26.1231,-74.6582 14.5234,-38.1209 64.2556,-25.9025 95.7217,-29.6286 80.1632,-0.6312 160.3336,-0.1869 240.499,-0.3226 z m -157.2266,1520 c 52.5098,0 105.0196,0 157.5293,0 16.5434,18.9409 43.9582,47.3175 22.0411,73.0957 -9.0247,18.2409 -24.2337,35.3276 -46.9724,29.3735 -96.0976,3.287 -192.2744,1.6612 -288.4085,2.1402 -23.3842,-20.7786 -45.1814,-60.262 -17.9883,-87.1289 18.9572,-32.1155 60.759,-11.8583 91.2598,-17.4805 27.513,0 55.026,0 82.539,0 z" id="clipping" fill-opacity="0" stroke="red" stroke-width="5"/></svg>