<svg xmlns="http://www.w3.org/2000/svg" viewBox="0 0 3450 2700"><path style="stroke-linecap:round;stroke-linejoin:round;paint-order:markers fill stroke;fill-opacity:0;stroke:red;stroke-width:5px" d="m 865.9227,292.1117 c -0.5689,61.6167 -1.1388,123.2334 -1.7097,184.8501 -53.0735,0.7091 -106.37,0.8872 -159.305,1.9235 0.087,89.5875 -0.091,179.2464 0.1697,268.7895 46.1525,26.2786 91.4275,54.2006 138.6879,78.4708 -162.2777,6.0144 -324.5577,15.0729 -487.0356,12.8599 -19.7668,-0.7109 -44.0746,-5.6448 -34.7977,22.7424 0.1342,362.6325 -0.2682,725.4872 0.2011,1087.981 170.1738,-1.4914 340.8361,2.9145 510.3997,13.508 -30.2144,24.6333 -67.6945,40.8491 -100.777,61.9345 -19.5325,7.7036 -33.5228,18.6901 -26.8481,41.478 0.1344,81.1478 -0.2683,162.5182 0.2011,243.5272 53.571,0 107.1421,0 160.7131,0 0.134,62.1924 -0.268,124.6068 0.2011,186.6605 572.8938,-0.1341 1146.0097,0.2682 1718.7646,-0.2012 0,-62.1531 0,-124.3062 0,-186.4593 52.56,-0.1354 105.3434,0.2684 157.765,-0.2011 -0.6231,-90.5762 -0.9841,-181.226 -1.7788,-271.7564 -40.9152,-24.6351 -84.1793,-47.7235 -124.0736,-72.7885 35.8184,-7.0068 74.9273,-5.3122 111.9583,-8.1255 133.225,-6.1415 266.7998,-8.3378 400.019,-7.7774 -0.1342,-370.1418 0.2681,-740.5059 -0.2011,-1110.509 -166.6673,2.1561 -333.2143,-4.5827 -499.6323,-12.8417 -4.9188,0.5752 -18.0844,-1.2467 -6.9519,-5.896 39.3271,-25.3441 80.4653,-47.7904 120.5913,-71.7325 -0.1342,-89.9647 0.2681,-180.1516 -0.2012,-269.9775 -52.4982,0 -104.9965,0 -157.4947,0 -0.134,-62.1924 0.268,-124.6068 -0.2011,-186.6605 -572.8603,0.1341 -1145.9427,-0.2681 -1718.6641,0.2012 z" id="clipping" fill-opacity="0" stroke="red" stroke-width="5"/></svg>