<svg xmlns="http://www.w3.org/2000/svg" viewBox="0 0 3450 2700"><path style="stroke-linecap:round;stroke-linejoin:round;paint-order:markers fill stroke;;fill-opacity:0;stroke:red;stroke-width:5px" d="m 884.9308,239.34099 c -0.8148,61.37799 -1.6355,122.75589 -2.4624,184.13372 -52.3569,0.96236 -104.9316,1.40891 -157.1545,2.68458 0.8632,90.055 1.4745,180.18013 2.5068,270.19138 39.4814,24.79657 87.6135,47.4322 121.9705,74.82153 -169.9327,13.5042 -340.9255,13.9693 -511.2079,14.3296 0.1303,358.077 -0.2608,716.3699 0.1955,1074.3119 170.909,-1.6071 342.8214,5.0297 512.7725,15.343 -38.7222,29.7558 -84.5959,50.6053 -126.1041,76.5994 0.1314,89.106 -0.2606,178.4287 0.1956,267.4001 52.2752,0.8281 104.5504,1.6578 156.8256,2.4891 0.9474,62.9329 1.3847,126.0824 2.658,188.8806 559.7907,-0.1305 1119.7976,0.2606 1679.4534,-0.1956 2.1612,-61.605 -4.3407,-124.6879 4.6936,-185.5116 26.1295,-11.7211 58.5742,-2.1381 86.671,-5.4491 20.003,-7.2298 70.1529,15.7646 67.9323,-13.8496 -0.066,-84.7539 0.1305,-169.5781 -0.098,-254.2883 -40.5777,-25.8987 -86.7366,-45.1746 -124.0773,-75.2127 25.9944,-6.5719 57.7985,-1.9103 85.5126,-5.469 141.6716,-8.0761 283.7606,-11.7356 425.5264,-10.9319 -0.1303,-358.0769 0.2608,-716.3699 -0.1955,-1074.3118 -170.539,-0.2303 -342.4393,-0.1433 -511.9014,-14.6674 39.7955,-27.37342 83.4448,-49.15436 124.9308,-73.88821 -0.03,-90.30626 0.4628,-180.82889 0.1067,-271.00031 -51.1947,-2.75462 -104.2742,5.57597 -154.4878,-4.64024 -8.4279,-37.5706 -2.521,-79.45174 -4.6136,-118.42374 -6.8933,-20.36104 16.9499,-71.49652 -18.4009,-63.54098 -553.7223,0.13047 -1107.6608,-0.26067 -1661.2481,0.19557 z" id="clipping" fill-opacity="0" stroke="red" stroke-width="5"/></svg>