<svg xmlns="http://www.w3.org/2000/svg" viewBox="0 0 2400 4575"><path d="m 773.63915,3018.7546 v 263.3119 h -262.5893 c -20.6972,0 -37.502,-16.8041 -37.502,-37.4999 v -220.962 88.9039 h -112.8774 0.3796 v 567.6196 c 0,20.6958 -16.8006,37.5 -37.4978,37.5 H 98.55255 c -20.6973,0 -37.502,-16.8042 -37.502,-37.5 V 894.8759 c 0,-20.6999 16.8047,-37.4999 37.502,-37.4999 h 224.9997 c 20.6972,0 37.4978,16.8 37.4978,37.4999 v 567.6154 h -0.3796 112.8774 v 88.8998 -220.9579 c 0,-20.6999 16.8048,-37.4999 37.502,-37.4999 h 262.5893 v 263.3078 -296.0161 l -112.2432,-111.6663 14.5519,-300.016 28.3778,-792.8899 h 991.34855 l 28.3821,792.8899 14.5477,300.016 -112.2432,111.6705 v 296.0161 -263.3078 h 262.5935 c 20.693,0 37.4978,16.8 37.4978,37.4999 v 220.9579 -88.8998 h 112.8816 -0.3838 V 894.8759 c 0,-20.6999 16.8047,-37.4999 37.502,-37.4999 h 224.9998 c 20.693,0 37.4978,16.8 37.4978,37.4999 v 2785.2522 c 0,20.6958 -16.8048,37.5 -37.4978,37.5 h -224.9998 c -20.6973,0 -37.502,-16.8042 -37.502,-37.5 v -567.6196 h 0.3838 -112.8816 v -88.9039 220.962 c 0,20.6958 -16.8048,37.4999 -37.4978,37.4999 h -262.5935 v -263.3119 296.0202 l 112.2432,111.6706 -14.5477,300.0118 -28.3821,792.89 H 704.32565 l -28.3778,-792.89 -14.5519,-300.0118 112.2432,-111.6706 z" style="stroke-linecap:round;fill-opacity:0;stroke:red;stroke-width:5px" id="clipping" fill-opacity="0" stroke="red" stroke-width="5"/></svg>