<svg xmlns="http://www.w3.org/2000/svg" viewBox="0 0 3525 4725"><path d="m 1336.3307,1628.7559 -0.01,-552.2661 H 788.82208 c -20.69584,0 -37.50002,16.8042 -37.50002,37.5 l 0.004,509.9161 v -88.904 H 638.447 638.82617 53.442519 V 3185.021 H 638.82617 638.447 751.32623 v -88.8999 509.9745 c 0,20.6999 16.80417,37.4999 37.50002,37.4999 h 547.50025 v -552.3244 585.0327 l -112.2459,111.6707 14.55,580.1245 v 299.9997 l 1048.1172,4.9166 v -299.9997 l 14.55,-585.0411 -112.2459,-111.6707 v -585.0327 552.3244 h 547.5086 c 20.6917,0 37.4959,-16.8 37.4959,-37.4999 v -509.9745 88.8999 h 112.8834 -0.3834 l 585.0004,-0.025 V 1535.0019 h -585.0004 0.3834 -112.8834 v 88.904 -509.9161 c 0,-20.6958 -16.8042,-37.5 -37.4958,-37.5 h -547.5087 v 552.2661 -584.9744 L 2301.2978,932.1108 2286.7561,351.99471 V 51.995013 L 1238.643,52.161679 V 351.99471 l -14.5584,580.11609 112.2459,111.6707 z" style="fill-rule:nonzero;stroke-linecap:round;stroke-linejoin:round;stroke-opacity:1;fill-opacity:0;stroke:red;stroke-width:5px" id="clipping" fill-opacity="0" stroke="red" stroke-width="5"/></svg>