<svg xmlns="http://www.w3.org/2000/svg" viewBox="0 0 825 2400"><path id="clipping" style=";fill-opacity:0;stroke:red;stroke-width:5px" d="M 99 11.584219 A 87.75 87.75 0 0 0 11.25 99.334219 A 87.75 87.75 0 0 0 99 187.08422 A 87.75 87.75 0 0 0 186.75 99.334219 A 87.75 87.75 0 0 0 99 11.584219 z M 99 89.257031 A 10.08 10.08 0 0 1 109.08 99.337031 A 10.08 10.08 0 0 1 99 109.41703 A 10.08 10.08 0 0 1 88.92 99.337031 A 10.08 10.08 0 0 1 99 89.257031 z M 99 198.92016 C 63.94 198.92016 33.564875 218.96909 18.706875 248.22609 C 19.862875 261.02809 20.475938 274.34322 20.475938 288.01922 C 20.475938 302.22822 19.815 316.05 18.57 329.31 C 30.779 353.572 53.626 371.56222 81 377.11922 L 81.000938 377.00109 L 81.000938 385.23 L 81.000938 385.26516 C 53.626936 390.82216 30.779936 408.81091 18.570938 433.07391 C 19.815938 446.33291 20.476875 460.15522 20.476875 474.36422 C 20.476875 488.04022 19.862813 501.35481 18.707813 514.15781 C 33.564813 543.41481 63.94 563.46422 99 563.46422 C 134.061 563.46422 164.43609 543.41481 179.29313 514.15781 C 178.13612 501.35481 177.52315 488.04022 177.52312 474.36422 C 177.52313 460.15522 178.18406 446.33291 179.42906 433.07391 C 167.22006 408.81091 144.37306 390.82216 116.99906 385.26516 L 116.99906 377.15484 L 116.99906 377.11922 C 144.37306 371.56222 167.22006 353.572 179.42906 329.31 C 178.18406 316.05 177.52312 302.22822 177.52312 288.01922 C 177.52313 274.34422 178.13709 261.02909 179.29313 248.22609 C 164.43609 218.96909 134.061 198.92016 99 198.92016 z M 99.000938 218.39484 C 107.28494 218.39484 114 224.40478 114 231.82078 L 102.75 269.58891 C 102.096 271.48391 101.07194 272.33906 99.000938 272.33906 C 96.929938 272.33906 95.756938 271.26791 95.250938 269.58891 L 84 231.82078 C 84 224.40478 90.716938 218.39484 99.000938 218.39484 z M 99.385781 278.80312 A 10.08 10.08 0 0 1 109.46578 288.88313 A 10.08 10.08 0 0 1 99.385781 298.96312 A 10.08 10.08 0 0 1 89.305781 288.88313 A 10.08 10.08 0 0 1 99.385781 278.80312 z M 99.000938 463.38516 A 10.08 10.08 0 0 1 109.08094 473.46516 A 10.08 10.08 0 0 1 99.000938 483.54516 A 10.08 10.08 0 0 1 88.920938 473.46516 A 10.08 10.08 0 0 1 99.000938 463.38516 z " fill-opacity="0" stroke="red" stroke-width="5"/></svg>