<svg xmlns="http://www.w3.org/2000/svg" viewBox="0 0 3600 3000"><path id="clipping" style="stroke-miterlimit:10;fill-opacity:0;stroke:red;stroke-width:5px" class="cls-12" transform="matrix(4.1666667,0,0,4.1666667,-1.44e-5,-1.2e-5)" d="m 207.344,653.582 h 7.2 l 4.252,49.179 h 426.408 l 4.252,-49.179 h 7.2 l 4.252,-4.252 h 52.844 l -10e-4,-84.724 -64.296,-62.103 154.745,-2.159 v -4.252 h 46.799 V 223.908 H 804.2 v -4.252 l -154.745,-2.159 64.296,-62.103 10e-4,-84.724 h -52.844 l -4.252,-4.252 h -7.2 L 645.204,17.239 H 218.796 l -4.252,49.179 h -7.2 l -4.252,4.252 h -52.844 l 0.001,84.724 64.296,62.103 -154.745,2.159 v 4.252 H 13.001 V 496.092 H 59.8 v 4.252 l 154.745,2.159 -64.296,62.103 -0.001,84.724 h 52.844 z" fill-opacity="0" stroke="red" stroke-width="5"/></svg>