<svg xmlns="http://www.w3.org/2000/svg" viewBox="0 0 2475 2475"><path id="clipping" style=";fill-opacity:0;stroke:red;stroke-width:5px" d="M 1239.5762 36.804688 A 1200 1200 0 0 0 39.576172 1236.8047 A 1200 1200 0 0 0 1239.5762 2436.8047 A 1200 1200 0 0 0 2439.5762 1236.8047 A 1200 1200 0 0 0 1239.5762 36.804688 z M 1238.5195 1175.9961 A 61.5 61.5 0 0 1 1300.0195 1237.4961 A 61.5 61.5 0 0 1 1238.5195 1298.9961 A 61.5 61.5 0 0 1 1177.0195 1237.4961 A 61.5 61.5 0 0 1 1238.5195 1175.9961 z " fill-opacity="0" stroke="red" stroke-width="5"/></svg>