<svg xmlns="http://www.w3.org/2000/svg" viewBox="0 0 3525 3900"><path class="cls-33" d="m 1224.9583,2701 1.4584,1086 v -1.5 c 0,26.625 21.5833,48.25 48.25,48.25 h 975.625 c 26.6667,0 48.25,-21.625 48.25,-48.25 v 1.5 c 0,0 0,-1086 0,-1086 v -408.0417 c 0,0 408,0 408,0 L 3458,2256.7083 v -1066.375 c 0,0 -751.4583,-39.1666 -751.4583,-39.1666 h -408 c 0,0 0.7083,-844.20838 0.7083,-844.20838 -0.875,-89.625 -67.5416,-120.41667 -115.375,-123.625 -29.6666,-2 -264.0833,-0.58333 -287.9167,-0.58333 v 0 c -28.5,0 -14.4166,-33.625 5.7084,-23.70834 24.9583,12.29167 59.1666,-92.583332 -113.25,-92.708332 -164.125,-0.125 -140.2917,117.875002 -173.0417,116.833332 v 0 c 0,0 -270.5,0.0417 -270.5,0.0417 -66.2917,0 -120,53.70833 -120,120 v 847.95835 c 0,0 0,0 0,0 H 816.87501 c 0,0 -750.000009,37.75 -750.000009,37.75 v 1066.375 c 0,0 750.000009,37.7083 750.000009,37.7083 H 1224.875 v 408.0833" id="clipping" style="fill-opacity:0;stroke:red;stroke-width:5px" fill-opacity="0" stroke="red" stroke-width="5"/></svg>