<svg xmlns="http://www.w3.org/2000/svg" viewBox="0 0 3525 2250"><path stroke="red" stroke-miterlimit="10" d="m 71.166653,1767.1083 v 225 H 503.16666 v -225 432 H 1561.5 v -432 225 h 432 v -225 402.8334 h 1058.3333 v -402.8334 h 402 V 633.775 h -402 -454.1666 c 0,91.66666 -150,91.66666 -150,0 H 1993.5 c 0,-124.26667 -100.7333,-225.00001 -225,-225.00001 h -207 V 753.775 201.77916 H 1441.4958 1561.5 c 0,-82.84583 -67.1542,-150.000002 -150,-150.000002 H 653.16666 c -82.84584,0 -150,67.154172 -150,150.000002 h 120 -120 V 753.775 408.77499 H 296.16665 c -124.26666,0 -224.999997,100.73334 -224.999997,225.00001" id="clipping" style=";fill-opacity:0;stroke:red;stroke-width:5px" fill-opacity="0" stroke-width="5"/></svg>