<svg xmlns="http://www.w3.org/2000/svg" viewBox="0 0 3450 3450"><path class="cls-27" d="m 1577.4167,154.33332 v 0 c 32.75,1.04167 8.9166,-116.958334 173.0416,-116.833333 172.375,0.125 138.2084,104.958333 113.25,92.708333 -20.125,-9.91667 -34.2083,23.70833 -5.7083,23.70833 v 0 c 23.8333,0 258.2917,-1.41666 287.9167,0.58334 47.8333,3.20833 114.5,34 115.375,123.625 v 436.20834 207.45833 h 203.8333 l 935.2917,47.875 0.9166,1046.50004 -936.2083,47.4583 h -203.8333 v 216.0833 l -0.75,1086.0834 v -1.5 c 0,26.625 -21.5834,48.25 -48.25,48.25 h -974.875 c -26.6667,0 -48.25,-21.625 -48.25,-48.25 l -0.75,1.5 -0.75,-1086.0834 V 2063.625 H 974.79166 L 48.624987,2017.7083 V 970.79166 l 926.166673,-49 h 212.87504 0.4583 V 714.33333 h -0.4583 V 274.37499 c 0,-66.29167 53.7083,-120 120,-120 h 268 l 1.75,-0.0417 z" id="clipping" style="opacity:1;fill-opacity:0;stroke:red;stroke-width:5px" xmlns:sodipodi="http://sodipodi.sourceforge.net/DTD/sodipodi-0.dtd" sodipodi:nodetypes="csccssccccccccccccssccccccccccccssccc" fill-opacity="0" stroke="red" stroke-width="5"/></svg>