<svg xmlns="http://www.w3.org/2000/svg" viewBox="0 0 2925 4125"><path class="cls-27" d="m 1319.5417,163.16665 v 0 c 32.75,1.04167 8.9166,-116.958333 173.0416,-116.833333 172.375,0.125 138.2084,104.958333 113.25,92.708333 -20.125,-9.91667 -34.2083,23.70833 -5.7083,23.70833 v 0 c 23.8333,0 134.0833,-1.41666 163.75,0.58334 47.8333,3.20833 114.5,34 115.375,123.625 v 572.25 c 0,0 0,180.87498 0,180.87498 v 0 c 0,0 186.375,0 186.375,0 l -6.375,0.25 812.2083,42.5 v 1348.875 c 0,0 -811,40.5417 -811,40.5417 H 1880.375 c 0,0 -1.125,0 -1.125,0 l -0.75,1559.6667 v -1.5 c 0,26.625 -21.5833,48.25 -48.25,48.25 H 1095 c -26.6667,0 -48.25,-21.625 -48.25,-48.25 v 1.5 c 0,0 -0.75,-1558.5 -0.75,-1558.5 v -1.5834 c 0,0 -180.08334,0 -180.08334,0 L 53.708322,2432.6667 v -1350.125 c 0,0 812.208338,-42.4584 812.208338,-42.4584 h 180.04164 c 0,0 0.4167,0 0.4167,0 V 859.20832 c 0,0 -0.4583,0 -0.4583,0 v -576 c 0,-66.29167 53.7083,-120 120,-120 h 151.9583 c 0,0 1.75,-0.0417 1.75,-0.0417 z" id="clipping" style="fill-opacity:0;stroke:red;stroke-width:5px" fill-opacity="0" stroke="red" stroke-width="5"/></svg>