<svg xmlns="http://www.w3.org/2000/svg" viewBox="0 0 2925 4125"><path class="cls-27" d="m 1605.4583,163.16665 v 0 c -32.75,1.04167 -8.9166,-116.958333 -173.0416,-116.833333 -172.375,0.125 -138.2084,104.958333 -113.25,92.708333 20.125,-9.91667 34.2083,23.70833 5.7083,23.70833 v 0 c -23.8333,0 -134.0833,-1.41666 -163.75,0.58334 -47.8333,3.20833 -114.5,34 -115.375,123.625 v 572.25 c 0,0 0,180.87498 0,180.87498 v 0 H 859.375 l 6.375,0.25 -812.208345,42.5 v 1348.875 L 864.54166,2472.25 H 1045.75 l 0.75,1559.6667 v -1.5 c 0,26.625 21.5833,48.25 48.25,48.25 H 1830 c 26.6667,0 48.25,-21.625 48.25,-48.25 v 1.5 l 0.75,-1558.5 v -1.5834 h 180.0833 l 812.2084,-39.1666 v -1350.125 l -812.2084,-42.4584 h -180.0416 c 0,0 -0.4167,0 -0.4167,0 V 859.20832 h 0.4583 v -576 c 0,-66.29167 -53.7083,-120 -120,-120 H 1605.375 Z" id="clipping" style="fill-opacity:0;stroke:red;stroke-width:5px" fill-opacity="0" stroke="red" stroke-width="5"/></svg>