<svg xmlns="http://www.w3.org/2000/svg" viewBox="0 0 3300 4500"><path class="cls-21" d="m 1505.25,158.79165 h -152.7917 c -66.2916,0 -120,53.70833 -120,120 v 947.75005 c 0,0 0.083,0 0.083,0 H 867.74999 c 0,0 -812.208336,42.3333 -812.208336,42.3333 v 1349.5833 c 0,0 812.208336,41.4167 812.208336,41.4167 h 364.79171 c 0,0 -0.042,372 -0.042,372 l -0.125,-2.2917 0.75,1380.2501 c 0,26.625 21.5833,48.25 48.25,48.25 h 736.2083 c 26.6667,0 48.25,-21.625 48.25,-48.25 l 0.083,1.5 -0.083,-1379.4584 -0.083,-372 h 372.9167 c 0,0 805.8333,-41.9583 805.8333,-41.9583 V 1268.125 c 0,0 -805.8333,-41.5833 -805.8333,-41.5833 h -372.8334 c 0,0 0.875,0 0.875,0 V 282.54165 c -0.875,-89.625 -67.5416,-120.41667 -115.375,-123.625 -29.6666,-2 -139.875,-0.58333 -163.7083,-0.58333 v 0 c -28.5,0 -14.4167,-33.625 5.7083,-23.70834 24.9584,12.29167 59.1667,-92.583331 -113.25,-92.708331 -164.125,-0.125 -140.2916,117.875001 -173.0416,116.833331 v 0 c 0,0 -1.75,0.0417 -1.75,0.0417 z" id="clipping" style="fill-opacity:0;stroke:red;stroke-width:5px" fill-opacity="0" stroke="red" stroke-width="5"/></svg>